<svg xmlns="http://www.w3.org/2000/svg" viewBox="0 0 3729.857 1649.056">
  <defs>
    <style>.cls-21,.cls-22,.cls-23,.flat-outline-mini{fill:none;stroke:#000;stroke-miterlimit:10}.cls-23{stroke-width:2px}.cls-22{stroke-width:3px}.cls-21{stroke-width:14px}</style>
  </defs>
  <g id="f18">
    <path class="cls-23" d="M3143.065 897.567h60.222v58.382h-60.222zM3143.065 897.567l60.222 58.382M3203.287 897.567l-60.222 58.382M3234.867 897.567h60.34v58.382h-60.34zM3234.867 897.567l60.34 58.382M3295.207 897.567l-60.34 58.382M3143.065 678.636h60.222v78.941h-60.222zM3143.065 678.636l60.222 78.941M3203.287 678.636l-60.222 78.941M3234.867 678.636h60.34v78.941h-60.34zM3234.867 678.636l60.34 78.941M3295.207 678.636l-60.34 78.941"/>
    <path class="cls-22" d="M3093.325 7v309.859M2800.802 437.856h222.643"/>
    <path class="cls-21" d="M2760.365 437.856h40.437"/>
    <path class="cls-22" d="M2800.802 809.783l154.233-.051v-22.093h68.41"/>
    <path class="cls-21" d="M2760.365 809.797l40.437-.014"/>
    <path class="cls-22" d="M3142.769 717.84v449.36h17.586M3160.457 413.525h-17.688v266.721" transform="translate(-119.324 -96.732)"/>
    <path class="cls-22" d="M3078.719 316.793h280.599M3396.903 316.793h18.24v424.584M3637.811 887.911h-222.668"/>
    <path class="cls-21" d="M3680.314 887.911h-42.503"/>
    <path class="cls-22" d="M3093.326 424.26h251.306M3304.653 532.71h39.979M3267.068 532.71h-173.742M3186.92 598.686h157.712M3149.334 598.686h-56.009M3093.326 663.741h251.306M3150.808 771.919h-57.482M3195.025 771.919h47.904M3287.148 771.919h57.484M3219.077 663.741v108.178M3207.694 607.532v-8.846M3207.694 663.741v-22.3M3150.809 886.916h-57.484M3195.025 886.916h47.921M3287.148 886.916h57.484M3093.325 968.005h251.307M3399.463 1070.47h15.68V778.973M3078.625 1070.47h283.245M3218.839 1280.537V1070.47"/>
    <path class="cls-21" d="M3218.839 1390.238v-109.701"/>
    <path class="cls-22" d="M3219.077 886.916v81.089"/>
    <path class="cls-21" d="M3637.812 443.414h42.502"/>
    <path class="cls-22" d="M3415.143 443.414h222.669"/>
    <path class="cls-21" d="M3344.632 392.617v152.901M3344.632 316.793v41.915M3344.632 586.799v220.136M3344.632 1070.47V851.901M3093.325 1070.47v-37.779M3093.325 998.781v-146.88M3093.325 806.909l.001-220.11M3093.326 545.076l-.001-228.283"/>
    <path class="cls-23" d="M3120.895 317.44l-33.686 33.695M3144.257 317.44l-57.048 57.063M3167.618 317.44l-80.409 80.431M3190.98 317.44l-103.771 103.799M3214.342 317.44l-127.133 127.167M3237.704 317.44l-150.495 150.535M3261.065 317.44l-173.856 173.903M3284.427 317.44l-197.218 197.271M3307.789 317.44l-220.58 220.639M3331.15 317.44l-243.941 244.007M3350.757 321.196l-263.548 263.619M3350.757 344.564l-263.548 263.618M3350.757 367.932L3087.209 631.55M3350.757 391.3l-263.548 263.618M3350.757 414.668l-263.548 263.618M3350.757 438.036l-263.548 263.618M3125.535 686.686l-38.326 38.336M3350.757 461.404l-202.283 202.337M3125.534 710.055l-38.325 38.335M3350.757 484.772l-178.921 178.969M3125.534 733.423l-38.325 38.335M3350.757 508.14l-155.559 155.601M3125.534 756.791l-38.325 38.335M3350.757 531.508l-132.198 132.233M3133.771 771.919l-46.562 46.575M3350.757 554.876l-108.836 108.865M3157.133 771.919l-69.924 69.943M3350.757 578.244l-85.474 85.497M3180.495 771.919l-93.286 93.311M3350.757 601.611l-62.327 62.344M3203.857 771.919l-116.648 116.679M3350.757 624.979l-38.965 38.976M3227.218 771.919l-140.009 140.047M3350.757 648.347l-37.183 37.194M3125.546 896.986l-38.337 38.348M3250.58 771.919l-114.966 114.997M3350.757 671.715l-37.183 37.194M3125.557 920.344l-38.348 38.358M3273.942 771.919l-114.966 114.997M3350.757 695.083l-37.183 37.194M3125.536 943.733l-38.327 38.337M3297.303 771.919L3182.194 887.06M3350.757 718.451l-37.183 37.194M3125.557 967.08l-38.348 38.358M3350.757 741.819l-145.058 145.097M3147.994 968.005l-60.785 60.801M3350.757 765.187l-121.696 121.729M3171.355 968.005l-84.146 84.169M3350.757 788.555l-98.478 98.505M3194.717 968.005l-102.438 102.465M3350.757 811.923l-75.116 75.137M3218.079 968.005l-102.438 102.465M3350.757 835.291l-51.611 51.625M3241.441 968.005l-102.438 102.465M3350.757 858.659l-37.257 37.267M3264.802 968.005l-102.438 102.465M3350.757 882.027l-37.257 37.267M3288.164 968.005l-102.438 102.465M3350.757 905.395l-37.257 37.267M3311.526 968.005l-102.438 102.465M3350.757 928.763L3313.5 966.03M3350.757 952.131l-118.308 118.339M3350.757 975.499l-94.946 94.971M3350.757 998.867l-71.584 71.603M3350.757 1022.235l-48.222 48.235M3350.757 1045.603l-24.861 24.867"/>
    <path class="cls-21" d="M2760.365 7v1383.238h919.949V7M2800.802 7v196.448M3637.811 204.196V7M3637.811 769.205V285.271M3637.811 933.219v-82.928"/>
    <path class="cls-21" d="M2800.802 1036.419v244.118h837.009v-266.232M2800.802 666.742v288.592M2800.802 284.534v301.122"/>
    <path class="cls-21" d="M2716.282 7h1006.575v1493.091H2716.282z"/>
    <path class="cls-23" d="M442.723 1029.168h62.142v60.192h-62.142zM442.723 1029.168l62.142 60.192M504.865 1029.168l-62.142 60.192M537.452 1029.168h62.263v60.192h-62.263zM537.452 1029.168l62.263 60.192M599.715 1029.168l-62.263 60.192M442.723 803.449h62.142v81.389h-62.142zM442.723 803.449l62.142 81.388M504.865 803.449l-62.142 81.388M537.452 803.449h62.263v81.389h-62.263zM537.452 803.449l62.263 81.388M599.715 803.449l-62.263 81.388"/>
    <path class="cls-22" d="M649.023 116.05v317.629"/>
    <path class="cls-21" d="M93.131 433.522l-43.242.001"/>
    <path class="cls-22" d="M339.883 433.516l-246.752.006M93.131 714.518h228.157"/>
    <path class="cls-21" d="M49.889 714.518h43.242"/>
    <path class="cls-22" d="M93.131 1011.47h228.157"/>
    <path class="cls-21" d="M49.889 1011.47h43.242"/>
    <path class="cls-22" d="M321.288 635.362V433.516M321.288 797.817V673.666M321.288 836.174v366.882h15.972M378.239 433.679h285.074M720.305 868.761V433.679h-18.667M947.879 558.073H720.305"/>
    <path class="cls-21" d="M991.121 558.073h-43.242"/>
    <path class="cls-22" d="M392.561 543.619h256.462M471.718 654.634h177.305M433.361 654.634h-40.8M488.076 721.56h160.947M449.719 721.56h-57.158M392.561 787.888h256.462M451.224 898.301h-58.663M496.348 898.3l48.887.001M590.361 898.301h58.662M521.049 787.888V898.3M509.134 730.565v-9.005M509.135 787.888v-22.662M451.225 1015.626h-58.664M496.348 1015.626h48.887M590.361 1015.626h58.662M392.561 1098.375h256.462"/>
    <path class="cls-21" d="M947.879 1066.526h43.242"/>
    <path class="cls-22" d="M720.305 1066.526h227.574M703.918 1203.056h16.387V907.117M375.616 1203.056h289.947M520.866 1418.289v-215.17"/>
    <path class="cls-21" d="M520.866 1529.222v-110.933"/>
    <path class="cls-22" d="M521.049 1015.626v82.749"/>
    <path class="cls-21" d="M7 116.05h1027.762v1526.007H7z"/>
    <path class="cls-21" d="M991.121 116.05v1413.154H49.889V116.05M947.879 116.05v201.748M93.131 316.873V116.05M93.131 599.83V399.604M93.131 889.386V682.56M93.131 1060.484v-88.37"/>
    <path class="cls-21" d="M292.999 1418.289H93.131v-275.075M682.204 1418.289H358.807M947.879 1167.657v250.632H748.012M947.879 911.947v172.98M947.879 400.527v428.691M649.023 511.444v155.872M649.023 433.679v43.105M649.023 709.432v224.593M649.023 1203.056V979.902M392.561 1203.056v-38.704M392.561 1129.756V979.902M392.561 934.025V709.432M392.561 667.316V433.679"/>
    <path class="cls-23" d="M420.344 434.344l-34.085 34.054M444.365 434.344l-58.106 58.053M468.386 434.344l-82.127 82.052M492.407 434.344L386.259 540.395M516.428 434.344l-130.169 130.05M540.449 434.344l-154.19 154.049M564.47 434.344L386.259 612.392M588.491 434.344L386.259 636.39M612.512 434.344L386.259 660.389M636.532 434.344L386.259 684.388M655.269 439.624l-269.01 268.763M655.269 463.623l-269.01 268.763M655.269 487.622l-269.01 268.763M655.269 511.62l-269.01 268.764M655.269 535.619l-269.01 268.764M424.377 790.298l-38.118 38.084M655.269 559.618L426.79 787.888M424.377 814.284l-38.118 38.096M655.269 583.617L450.811 787.888M424.377 838.282l-38.118 38.097M655.269 607.616L474.831 787.888M424.377 862.281l-38.118 38.097M655.269 631.615L498.852 787.888M424.377 886.28l-38.118 38.097M655.269 655.614L522.873 787.888M436.366 898.301l-50.107 50.075M655.269 679.613L546.894 787.888M460.387 898.301l-74.128 74.074M655.269 703.612l-84.354 84.276M484.409 898.301l-98.15 98.073M655.269 727.61l-60.333 60.278M508.306 898.301l-122.047 122.072M655.269 751.609l-37.541 37.506M532.45 898.301l-146.191 146.07M655.269 775.608l-37.547 37.513M424.377 1030.274l-38.118 38.096M556.472 898.301l-117.421 117.325M655.269 799.607l-37.547 37.513M424.377 1054.273l-38.118 38.096M580.493 898.301l-117.434 117.325M655.269 823.606l-37.547 37.513M424.377 1078.272l-38.118 38.096M604.527 898.301L487.08 1015.626M655.269 847.605l-37.547 37.513M428.289 1098.375l-42.03 41.992M655.269 871.604l-144.168 144.022M452.31 1098.375l-66.051 65.991M655.269 895.603l-120.147 120.023M476.331 1098.375l-90.072 89.99M655.269 919.602l-96.127 96.024M500.181 1098.545l-104.606 104.511M655.167 943.702l-71.996 71.924M524.373 1098.375l-104.777 104.681M655.269 967.599l-48.085 48.027M548.394 1098.375l-104.777 104.681M655.269 991.598l-37.547 37.513M572.415 1098.375l-104.777 104.681M655.269 1015.597l-37.547 37.513M596.436 1098.375l-104.777 104.681M655.269 1039.596l-37.547 37.513M655.269 1063.595l-139.66 139.524M655.269 1087.594l-115.638 115.525M655.269 1111.593l-91.553 91.463M655.269 1135.592l-67.531 67.464M655.269 1159.59l-43.509 43.466M655.269 1183.589l-19.487 19.467"/>
    <path class="cls-21" d="M1034.762 911.441l1681.52-.001M1034.762 1642.056h2688.095v-141.965"/>
  </g>
  <path class="flat-outline-mini" d="M649.023 116.05h342.098v442.023H720.305V433.679h-71.282V116.05z" id="_333" data-name="333"/>
  <path class="flat-outline-mini" d="M720.305 558.073h270.816v508.453H720.305z" id="_334" data-name="334"/>
  <path class="flat-outline-mini" d="M720.305 1203.056v-136.53h270.816v462.678l-470.255.018v-326.103l199.439-.063z" id="_335" data-name="335"/>
  <path class="flat-outline-mini" d="M321.288 1203.056l199.578.063v326.103l-470.977-.018V1011.47h271.399v191.586z" id="_336" data-name="336"/>
  <path class="flat-outline-mini" d="M49.889 714.518h271.399v296.952H49.889z" id="_337" data-name="337"/>
  <path class="flat-outline-mini" d="M49.889 433.519h271.399v280.999H49.889z" id="_338" data-name="338"/>
  <path class="flat-outline-mini" d="M49.889 116.05h599.134v317.629l-599.134-.156V116.05z" id="_339" data-name="339"/>
  <path class="flat-outline-mini" d="M2760.363 7.001v430.856l263.08-.001V316.794l69.882-.001V7l-332.962.001z" id="_141" data-name="141"/>
  <path class="flat-outline-mini" d="M3023.445 787.639h-68.41v22.093l-194.67.065-.002-371.94 263.082-.001v349.783z" id="_140" data-name="140"/>
  <path class="flat-outline-mini" d="M2760.363 1390.239h458.474v-319.768h-195.401l.009-282.832h-68.41v22.093l-194.67.065-.002 580.442z" id="_139" data-name="139"/>
  <path class="flat-outline-mini" d="M3415.134 1070.471V887.912h265.178v502.327h-461.475v-319.768h196.297z" id="_138" data-name="138"/>
  <path class="flat-outline-mini" d="M3415.141 443.415h265.171v444.496h-265.171z" id="_137" data-name="137"/>
  <path class="flat-outline-mini" d="M3093.325 7v309.859l321.816-.065v126.621h265.171V7.001L3093.325 7z" id="_136" data-name="136"/>
</svg>