<svg xmlns="http://www.w3.org/2000/svg" viewBox="0 0 3729.857 1649.056"><defs><style>.cls-21,.cls-22,.cls-23,.flat-outline-mini{fill:none;stroke:#000;stroke-miterlimit:10}.cls-23{stroke-width:2px}.cls-22{stroke-width:3px}.cls-21{stroke-width:14px}</style></defs><g id="f8"><path class="cls-23" d="M442.723 1029.167h62.142v60.192h-62.142zM442.723 1029.167l62.142 60.192M504.865 1029.167l-62.142 60.192M537.452 1029.167h62.263v60.192h-62.263zM537.452 1029.167l62.263 60.192M599.715 1029.167l-62.263 60.192M442.723 803.448h62.142v81.389h-62.142zM442.723 803.448l62.142 81.388M504.865 803.448l-62.142 81.388M537.452 803.448h62.263v81.389h-62.263zM537.452 803.448l62.263 81.388M599.715 803.448l-62.263 81.388"/><path class="cls-22" d="M649.023 116.049V434.29"/><path class="cls-21" d="M49.889 433.522L7 433.523"/><path class="cls-22" d="M339.883 433.515l-289.994.007M49.889 714.518h271.399"/><path class="cls-21" d="M7 714.518h42.889"/><path class="cls-22" d="M49.889 1011.47l271.399-.001"/><path class="cls-21" d="M7 1011.47h42.889"/><path class="cls-22" d="M321.288 635.361V433.515M321.288 882.609V673.665M321.288 1094.219V920.965"/><path class="cls-21" d="M49.889 1303.184H7"/><path class="cls-22" d="M321.288 1132.575v170.609H49.889M378.239 433.678h285.074M701.638 433.678h18.667v539.369M991.121 680.758H720.305"/><path class="cls-21" d="M1034.762 680.758h-43.641"/><path class="cls-22" d="M991.121 1067.296H720.305"/><path class="cls-21" d="M1034.762 1067.296h-43.641"/><path class="cls-22" d="M392.561 543.618h256.462M471.718 654.633h177.305M433.361 654.633h-40.8M488.076 721.559h160.947M449.719 721.559h-57.158M392.561 787.887h256.462M451.224 898.3h-58.663M496.348 898.299l48.887.001M590.361 898.3h58.662M521.049 787.887v110.412M509.134 730.564v-9.005M509.135 787.887v-22.662M451.225 1015.625h-58.664M496.348 1015.625h48.887M590.361 1015.625h58.662M392.561 1098.374h256.462M703.918 1203.055h16.387v-191.652M375.616 1203.055h289.947M321.288 1203.055h15.972M520.866 1529.221v-326.166"/><path class="cls-21" d="M520.866 1642.056v-112.835"/><path class="cls-22" d="M521.049 1015.625v82.749"/><path class="cls-21" d="M7 116.049h1027.762v1526.007H7zM49.889 599.825V400.524M49.889 889.377V682.555M49.889 1195.851V972.106"/><path class="cls-21" d="M170.786 1529.204H49.889V1278.58M828.859 1529.204H212.151M991.121 1299.262v229.942H870.223M991.121 1039.794v176.74M991.121 656.232v300.833M991.121 400.524v172.979M991.121 116.049v201.747M49.889 317.795V116.049M649.023 511.443v155.872M649.023 433.678v43.105M649.023 709.431v224.594M649.023 1203.055V979.901M392.561 1203.055v-38.704M392.561 1129.755V979.901M392.561 934.025V709.431M392.561 667.315V433.678"/><path class="cls-23" d="M420.344 434.343l-34.085 34.054M444.365 434.343l-58.106 58.053M468.386 434.343l-82.127 82.052M492.407 434.343L386.259 540.394M516.428 434.343l-130.169 130.05M540.449 434.343l-154.19 154.049M564.47 434.343L386.259 612.391M588.491 434.343L386.259 636.39M612.512 434.343L386.259 660.389M636.532 434.343L386.259 684.387M655.269 439.623l-269.01 268.763M655.269 463.622l-269.01 268.763M655.269 487.621l-269.01 268.763M655.269 511.62l-269.01 268.763M655.269 535.619l-269.01 268.763M424.377 790.297l-38.118 38.084M655.269 559.617L426.79 787.887M424.377 814.283l-38.118 38.097M655.269 583.616L450.811 787.887M424.377 838.282l-38.118 38.096M655.269 607.615L474.831 787.887M424.377 862.281l-38.118 38.096M655.269 631.614L498.852 787.887M424.377 886.279l-38.118 38.097M655.269 655.613L522.873 787.887M436.366 898.3l-50.107 50.075M655.269 679.612L546.894 787.887M460.387 898.3l-74.128 74.074M655.269 703.611l-84.354 84.276M484.409 898.3l-98.15 98.073M655.269 727.61l-60.333 60.277M508.306 898.3l-122.047 122.072M655.269 751.609l-37.541 37.506M532.45 898.3l-146.191 146.071M655.269 775.607l-37.547 37.513M424.377 1030.273l-38.118 38.097M556.472 898.3l-117.421 117.325M655.269 799.606l-37.547 37.513M424.377 1054.272l-38.118 38.096M580.493 898.3l-117.434 117.325M655.269 823.605l-37.547 37.513M424.377 1078.271l-38.118 38.096M604.527 898.3L487.08 1015.625M655.269 847.604l-37.547 37.513M428.289 1098.374l-42.03 41.992M655.269 871.603l-144.168 144.022M452.31 1098.374l-66.051 65.991M655.269 895.602l-120.147 120.023M476.331 1098.374l-90.072 89.99M655.269 919.601l-96.127 96.024M500.181 1098.545l-104.606 104.51M655.167 943.701l-71.996 71.924M524.373 1098.374l-104.777 104.681M655.269 967.599l-48.085 48.026M548.394 1098.374l-104.777 104.681M655.269 991.597l-37.547 37.513M572.415 1098.374l-104.777 104.681M655.269 1015.596l-37.547 37.513M596.436 1098.374l-104.777 104.681M655.269 1039.595l-37.547 37.513M655.269 1063.594l-139.66 139.524M655.269 1087.593l-115.638 115.525M655.269 1111.592l-91.553 91.463M655.269 1135.591l-67.531 67.464M655.269 1159.59l-43.509 43.465M655.269 1183.589l-19.487 19.466"/><path class="cls-21" d="M1034.762 911.441l1681.52-.001M1034.762 1642.056h2688.095v-141.965"/><path class="cls-23" d="M3143.216 897.567h60.222v58.382h-60.222zM3143.216 897.567l60.223 58.382M3203.439 897.567l-60.223 58.382M3235.019 897.567h60.34v58.382h-60.34zM3235.019 897.567l60.34 58.382M3295.359 897.567l-60.34 58.382M3143.216 678.636h60.222v78.941h-60.222zM3143.216 678.636l60.223 78.941M3203.439 678.636l-60.223 78.941M3235.019 678.636h60.34v78.941h-60.34zM3235.019 678.636l60.34 78.941M3295.359 678.636l-60.34 78.941"/><path class="cls-22" d="M3219.078 7v309.859M3041.284 316.793h-325.002M2716.282 682.979h307.315M2716.282 934.951l307.315-.103M3023.597 570.009V316.793M3023.597 834.599V607.604M3023.597 1089.708V872.194M3023.597 1199.177v-71.874M2716.282 1197.509h230.487v-12.522h76.828M3092.903 1250.042v250.049M3346.02 1250.042v250.049M3078.87 316.793h280.599M3415.295 573.561v183.686M3397.054 316.793h18.241v219.172M3722.857 724.932h-307.562M3722.857 887.911h-307.562M3722.857 1047.691h-307.562M3415.295 794.843v183.554M3415.295 1186.92v-170.854M3297.38 1250.042h117.915v-25.528M3259.795 1250.042h-236.198v-13.27M3093.477 424.26h251.306M3304.804 532.71h39.979M3267.219 532.71h-173.742M3187.071 598.686h157.712M3149.486 598.686h-56.009M3093.477 663.741h251.306M3150.959 771.919h-57.482M3195.177 771.919h47.903M3287.299 771.919h57.484M3219.229 663.741v108.178M3207.845 607.532v-8.846M3207.845 663.741v-22.3M3150.961 886.916h-57.484M3195.177 886.916h47.92M3287.299 886.916h57.484M3093.477 968.005h251.306M3093.477 1070.47h251.306M3218.991 1179.94v-109.47M3219.229 886.916v81.089M3413.859 316.793h308.998"/><path class="cls-21" d="M3367 1500.091h-294.849M3007.651 1500.091h-291.369V7h1006.575v1493.091h-291.358M3344.783 392.617v152.901M3344.783 316.793v41.915M3344.783 586.799v220.136"/><path class="cls-21" d="M3319.725 1179.94h25.058V851.901M3118.533 1179.939h-25.056v-147.248M3282.14 1179.94l-126.022-.002M3093.477 998.781v-146.88M3093.477 806.909v-220.11M3093.477 545.076V316.793"/><path class="cls-23" d="M3121.046 317.44l-33.686 33.695M3144.408 317.44l-57.048 57.063M3167.77 317.44l-80.41 80.431M3191.131 317.44L3087.36 421.239M3214.493 317.44L3087.36 444.607M3237.855 317.44L3087.36 467.975M3261.217 317.44L3087.36 491.343M3284.578 317.44L3087.36 514.711M3307.94 317.44l-220.58 220.639M3331.302 317.44L3087.36 561.447M3350.909 321.196L3087.36 584.815M3350.909 344.564L3087.36 608.182M3350.909 367.932L3087.36 631.55M3350.909 391.3L3087.36 654.918M3350.909 414.668L3087.36 678.286M3350.909 438.036L3087.36 701.654M3125.686 686.686l-38.326 38.336M3350.909 461.404l-202.283 202.337M3125.685 710.055l-38.325 38.335M3350.909 484.772l-178.922 178.969M3125.685 733.423l-38.325 38.335M3350.909 508.14l-155.56 155.601M3125.685 756.791l-38.325 38.335M3350.909 531.508l-132.198 132.233M3133.923 771.919l-46.563 46.575M3350.909 554.876l-108.836 108.865M3157.284 771.919l-69.924 69.943M3350.909 578.244l-85.475 85.497M3180.646 771.919l-93.286 93.311M3350.909 601.611l-62.328 62.344M3204.008 771.919L3087.36 888.598M3350.909 624.979l-38.966 38.976M3227.37 771.919l-140.01 140.047M3350.909 648.347l-37.184 37.194M3125.698 896.986l-38.338 38.348M3250.732 771.919l-114.966 114.997M3350.909 671.715l-37.184 37.194M3125.708 920.344l-38.348 38.358M3274.093 771.919l-114.966 114.997M3350.909 695.083l-37.184 37.194M3125.687 943.733l-38.327 38.337M3297.455 771.919l-115.11 115.141M3350.909 718.451l-37.184 37.194M3125.708 967.08l-38.348 38.358M3350.909 741.819l-145.058 145.097M3148.145 968.005l-60.785 60.801M3350.909 765.187l-121.697 121.729M3171.507 968.005l-84.147 84.169M3350.909 788.555l-98.479 98.505M3194.869 968.005l-107.509 107.537M3350.909 811.923l-75.117 75.137M3218.23 968.005l-130.87 130.905M3350.909 835.291l-51.611 51.625M3241.592 968.005l-154.232 154.273M3350.909 858.659l-37.257 37.267M3264.954 968.005l-177.594 177.641M3350.909 882.027l-37.257 37.267M3288.315 968.005l-200.955 201.009M3350.909 905.395l-37.257 37.267M3311.677 968.005l-218.003 218.062M3350.909 928.763l-37.257 37.267M3350.909 952.131l-233.874 233.936M3350.909 975.499l-210.512 210.568M3350.909 998.867l-187.15 187.2M3350.909 1022.235l-163.789 163.832M3350.909 1045.603l-140.427 140.464M3350.909 1068.971l-117.065 117.096M3350.909 1092.339l-93.575 93.6M3350.909 1115.707l-70.214 70.232M3350.909 1139.075l-46.98 46.992"/><path class="cls-21" d="M3084.12 1500.091v54.547h-88.458v-54.549M3443.479 1500.092v54.547h-88.458v-54.549"/></g><path class="flat-outline-mini" d="M2716.282 7h502.796v309.793h-502.796z" id="_70" data-name="70"/><path class="flat-outline-mini" d="M2716.282 316.793h307.315v366.186h-307.315z" id="_69" data-name="69"/><path class="flat-outline-mini" d="M3023.597 682.979v251.869l-307.315.103V682.979h307.315z" id="_68" data-name="68"/><path class="flat-outline-mini" d="M3023.597 934.848v250.139h-76.828v12.522h-230.487V934.951l307.315-.103z" id="_67" data-name="67"/><path class="flat-outline-mini" d="M3023.597 1250.042h69.306v250.049h-8.783v54.547h-88.458v-54.547h-279.38v-302.582h230.487v-12.522h76.828v65.055z" id="_66" data-name="66"/><path class="flat-outline-mini" d="M3092.903 1250.042h253.116v250.05h-253.116z" id="_65" data-name="65"/><path class="flat-outline-mini" d="M3415.295 1250.042v-202.351h307.562v452.4h-279.378v54.548h-88.458v-54.548h-9.001v-250.049h69.275z" id="_64" data-name="64"/><path class="flat-outline-mini" d="M3415.295 887.911h307.562v159.78h-307.562z" id="_63" data-name="63"/><path class="flat-outline-mini" d="M3415.295 724.932h307.562V887.91h-307.562z" id="_62" data-name="62"/><path class="flat-outline-mini" d="M3415.295 316.793h307.562v408.139h-307.562z" id="_61" data-name="61"/><path class="flat-outline-mini" d="M3219.078 7h503.779v309.793h-503.779z" id="_60" data-name="60"/><path class="flat-outline-mini" d="M649.023 116.049v317.629L7 433.523V116.049h642.023z" id="_248" data-name="248"/><path class="flat-outline-mini" d="M321.288 433.523v280.995H7V433.523h314.288" id="_247" data-name="247"/><path class="flat-outline-mini" d="M7 714.518h314.288v296.952H7z" id="_246" data-name="246"/><path class="flat-outline-mini" d="M7 1011.469h314.288v291.714H7z" id="_245" data-name="245"/><path class="flat-outline-mini" d="M321.288 1203.055h199.578v439.001H7v-338.872h314.288v-100.129z" id="_244" data-name="244"/><path class="flat-outline-mini" d="M720.305 1203.055v-135.759h314.457v574.76H520.866v-439.001h199.439z" id="_243" data-name="243"/><path class="flat-outline-mini" d="M720.305 680.758h314.457v386.538H720.305z" id="_242" data-name="242"/><path class="flat-outline-mini" d="M649.023 116.049h385.739v564.709H720.305v-247.08h-71.282V116.049z" id="_241" data-name="241"/></svg>