<svg xmlns="http://www.w3.org/2000/svg" viewBox="0 0 3729.857 1649.056"><defs><style>.cls-21,.cls-22,.cls-23,.flat-outline-mini{fill:none;stroke:#000;stroke-miterlimit:10}.cls-23{stroke-width:2px}.cls-22{stroke-width:3px}.cls-21{stroke-width:14px}</style></defs><g id="f11"><path class="cls-23" d="M3143.223 897.567h60.222v58.382h-60.222zM3143.223 897.567l60.223 58.382M3203.446 897.567l-60.223 58.382M3235.026 897.567h60.34v58.382h-60.34zM3235.026 897.567l60.34 58.382M3295.366 897.567l-60.34 58.382M3143.223 678.636h60.222v78.941h-60.222zM3143.223 678.636l60.223 78.941M3203.446 678.636l-60.223 78.941M3235.026 678.636h60.34v78.941h-60.34zM3235.026 678.636l60.34 78.941M3295.366 678.636l-60.34 78.941"/><path class="cls-22" d="M3219.085 7v309.859M2760.524 437.856h263.08"/><path class="cls-21" d="M2716.289 437.856h44.235"/><path class="cls-22" d="M2760.524 930.947l263.08-.088"/><path class="cls-21" d="M2716.289 930.962l44.235-.015"/><path class="cls-22" d="M3023.604 719.098V316.793h17.688M3078.877 316.793h280.6M3415.302 513.23v244.017M3415.302 475.635V316.793h-18.241M3680.473 887.911h-265.171"/><path class="cls-21" d="M3722.864 887.911h-42.391"/><path class="cls-22" d="M3093.484 424.26h251.307M3304.812 532.71h39.979M3267.226 532.71h-173.742M3187.078 598.686h157.713M3149.493 598.686h-56.009M3093.484 663.741h251.307M3150.967 771.919h-57.483M3195.184 771.919h47.904M3287.306 771.919h57.485M3219.236 663.741v108.178M3207.852 607.532v-8.846M3207.852 663.741v-22.3M3150.968 886.916h-57.484M3195.184 886.916h47.921M3287.306 886.916h57.485M3093.484 968.005h251.307M3399.622 1070.47h15.68V794.843M3078.784 1070.47h283.245M3041.19 1070.47h-17.586V756.693M3218.998 1390.238V1070.47"/><path class="cls-21" d="M3218.998 1500.091v-109.853"/><path class="cls-22" d="M3219.236 886.916v81.089"/><path class="cls-21" d="M3680.473 316.793h42.391"/><path class="cls-22" d="M3413.866 316.793h266.607"/><path class="cls-21" d="M3680.473 599.474h42.391"/><path class="cls-22" d="M3415.302 599.474h265.171"/><path class="cls-21" d="M3680.473 7v197.184M2760.524 203.447V7M2760.524 710.229V284.532M2760.524 1097.127V791.264M3680.473 1156.198v234.04h-919.949v-212.025M3680.473 850.286v224.827M3680.473 561.696V769.2M3680.473 285.27v195.34M3344.791 392.617v152.901M3344.791 316.793v41.915M3344.791 586.799v220.136M3344.79 1070.47l.001-218.569M3093.484 1070.47v-37.779M3093.484 998.781v-146.88M3093.484 806.909v-220.11M3093.484 545.076V316.793"/><path class="cls-23" d="M3121.053 317.44l-33.686 33.695M3144.415 317.44l-57.048 57.063M3167.777 317.44l-80.41 80.431M3191.139 317.44l-103.772 103.799M3214.5 317.44l-127.133 127.167M3237.862 317.44l-150.495 150.535M3261.224 317.44l-173.857 173.903M3284.586 317.44l-197.219 197.271M3307.947 317.44l-220.58 220.639M3331.309 317.44l-243.942 244.007M3350.916 321.196l-263.549 263.619M3350.916 344.564l-263.549 263.618M3350.916 367.932L3087.367 631.55M3350.916 391.3l-263.549 263.618M3350.916 414.668l-263.549 263.618M3350.916 438.036l-263.549 263.618M3125.694 686.686l-38.327 38.336M3350.916 461.404l-202.283 202.337M3125.692 710.055l-38.325 38.335M3350.916 484.772l-178.921 178.969M3125.692 733.423l-38.325 38.335M3350.916 508.14l-155.56 155.601M3125.692 756.791l-38.325 38.335M3350.916 531.508l-132.198 132.233M3133.93 771.919l-46.563 46.575M3350.916 554.876L3242.08 663.741M3157.292 771.919l-69.925 69.943M3350.916 578.244l-85.475 85.497M3180.653 771.919l-93.286 93.311M3350.916 601.611l-62.328 62.344M3204.016 771.919l-116.649 116.679M3350.916 624.979l-38.966 38.976M3227.377 771.919l-140.01 140.047M3350.916 648.347l-37.184 37.194M3125.705 896.986l-38.338 38.348M3250.739 771.919l-114.966 114.997M3350.916 671.715l-37.184 37.194M3125.715 920.344l-38.348 38.358M3274.1 771.919l-114.966 114.997M3350.916 695.083l-37.184 37.194M3125.695 943.733l-38.328 38.337M3297.462 771.919l-115.11 115.141M3350.916 718.451l-37.184 37.194M3125.715 967.08l-38.348 38.358M3350.916 741.819l-145.058 145.097M3148.152 968.005l-60.785 60.801M3350.916 765.187L3229.22 886.916M3171.514 968.005l-84.147 84.169M3350.916 788.555l-98.478 98.505M3194.876 968.005l-102.438 102.465M3350.916 811.923l-75.117 75.137M3218.237 968.005l-102.438 102.465M3350.916 835.291l-51.611 51.625M3241.599 968.005l-102.438 102.465M3350.916 858.659l-37.257 37.267M3264.961 968.005l-102.438 102.465M3350.916 882.027l-37.257 37.267M3288.323 968.005l-102.438 102.465M3350.916 905.395l-37.257 37.267M3311.684 968.005l-102.438 102.465M3350.916 928.763l-37.257 37.267M3350.916 952.131l-118.308 118.339M3350.916 975.499l-94.946 94.971M3350.916 998.867l-71.584 71.603M3350.916 1022.235l-48.223 48.235M3350.916 1045.603l-24.861 24.867"/><path class="cls-21" d="M2716.282 7h1006.575v1493.091H2716.282z"/><path class="cls-23" d="M442.723 1029.167h62.142v60.192h-62.142zM442.723 1029.167l62.142 60.192M504.865 1029.167l-62.142 60.192M537.452 1029.167h62.263v60.192h-62.263zM537.452 1029.167l62.263 60.192M599.715 1029.167l-62.263 60.192M442.723 803.448h62.142v81.389h-62.142zM442.723 803.448l62.142 81.388M504.865 803.448l-62.142 81.388M537.452 803.448h62.263v81.389h-62.263zM537.452 803.448l62.263 81.388M599.715 803.448l-62.263 81.388"/><path class="cls-22" d="M649.023 116.049V434.29"/><path class="cls-21" d="M49.889 410.979L7 410.98M49.889 305.687L7 305.688M49.889 693.011L7 693.012M49.889 587.719L7 587.72M49.889 982.563L7 982.564M49.889 877.271L7 877.272M49.889 1289.038L7 1289.039M49.889 1183.746L7 1183.747"/><path class="cls-22" d="M339.883 433.515l-289.994.007M49.889 714.518h271.399M49.889 1011.47l271.399-.001M321.288 635.361V433.515M321.288 882.609V673.665M321.288 1094.219V920.965M321.288 1132.575v170.609H49.889M378.239 433.678h285.074M720.305 795.837v168.64M701.638 433.678h18.667v323.803M991.121 433.671H720.305M991.121 1067.296H720.305M991.121 807.662H720.305M392.561 543.618h256.462M471.718 654.633h177.305M433.361 654.633h-40.8M488.076 721.559h160.947M449.719 721.559h-57.158M392.561 787.887h256.462M451.224 898.3h-58.663M496.348 898.299l48.887.001M590.361 898.3h58.662M521.049 787.887v110.412M509.134 730.564v-9.005M509.135 787.887v-22.662M451.225 1015.625h-58.664M496.348 1015.625h48.887M590.361 1015.625h58.662M392.561 1098.374h256.462M720.305 1135.29v-132.457M720.305 1173.646v145.477h270.816M703.918 1203.055h16.387M375.616 1203.055h289.947M321.288 1203.055h15.972M520.866 1529.221v-326.166M521.049 1015.625v82.749"/><path class="cls-21" d="M7 116.049h1027.762v1526.007H7zM49.889 599.825V400.524M49.889 889.377V682.555M49.889 1195.851V972.106"/><path class="cls-21" d="M170.786 1529.204H49.889V1278.58M828.859 1529.204H212.151M991.121 1299.262v229.942H870.223M991.121 1039.794v176.74M991.121 656.232v300.833M991.121 400.524v172.979M991.121 116.049v201.747M49.889 317.795V116.049M649.023 511.443v155.872M649.023 433.678v43.105M649.023 709.431v224.594M649.023 1203.055V979.901M392.561 1203.055v-38.704M392.561 1129.755V979.901M392.561 934.025V709.431M392.561 667.315V433.678"/><path class="cls-23" d="M420.344 434.343l-34.085 34.054M444.365 434.343l-58.106 58.053M468.386 434.343l-82.127 82.052M492.407 434.343L386.259 540.394M516.428 434.343l-130.169 130.05M540.449 434.343l-154.19 154.049M564.47 434.343L386.259 612.391M588.491 434.343L386.259 636.39M612.512 434.343L386.259 660.389M636.532 434.343L386.259 684.387M655.269 439.623l-269.01 268.763M655.269 463.622l-269.01 268.763M655.269 487.621l-269.01 268.763M655.269 511.62l-269.01 268.763M655.269 535.619l-269.01 268.763M424.377 790.297l-38.118 38.084M655.269 559.617L426.79 787.887M424.377 814.283l-38.118 38.097M655.269 583.616L450.811 787.887M424.377 838.282l-38.118 38.096M655.269 607.615L474.831 787.887M424.377 862.281l-38.118 38.096M655.269 631.614L498.852 787.887M424.377 886.279l-38.118 38.097M655.269 655.613L522.873 787.887M436.366 898.3l-50.107 50.075M655.269 679.612L546.894 787.887M460.387 898.3l-74.128 74.074M655.269 703.611l-84.354 84.276M484.409 898.3l-98.15 98.073M655.269 727.61l-60.333 60.277M508.306 898.3l-122.047 122.072M655.269 751.609l-37.541 37.506M532.45 898.3l-146.191 146.071M655.269 775.607l-37.547 37.513M424.377 1030.273l-38.118 38.097M556.472 898.3l-117.421 117.325M655.269 799.606l-37.547 37.513M424.377 1054.272l-38.118 38.096M580.493 898.3l-117.434 117.325M655.269 823.605l-37.547 37.513M424.377 1078.271l-38.118 38.096M604.527 898.3L487.08 1015.625M655.269 847.604l-37.547 37.513M428.289 1098.374l-42.03 41.992M655.269 871.603l-144.168 144.022M452.31 1098.374l-66.051 65.991M655.269 895.602l-120.147 120.023M476.331 1098.374l-90.072 89.99M655.269 919.601l-96.127 96.024M500.181 1098.545l-104.606 104.51M655.167 943.701l-71.996 71.924M524.373 1098.374l-104.777 104.681M655.269 967.599l-48.085 48.026M548.394 1098.374l-104.777 104.681M655.269 991.597l-37.547 37.513M572.415 1098.374l-104.777 104.681M655.269 1015.596l-37.547 37.513M596.436 1098.374l-104.777 104.681M655.269 1039.595l-37.547 37.513M655.269 1063.594l-139.66 139.524M655.269 1087.593l-115.638 115.525M655.269 1111.592l-91.553 91.463M655.269 1135.591l-67.531 67.464M655.269 1159.59l-43.509 43.465M655.269 1183.589l-19.487 19.466"/><path class="cls-21" d="M238.85 1529.204v53.524H148.6v-53.524M895.044 1529.204v53.524h-90.25v-53.524M1034.762 305.687h-43.641M1034.762 410.979h-43.641M1034.762 561.396h-43.641M1034.762 666.688h-43.641M1034.762 944.959h-43.641M1034.762 1050.251h-43.641M1034.762 1204.43h-43.641M1034.762 1309.866h-43.641M1034.762 911.441l1681.52-.001M1034.762 1642.056h2688.095v-141.965"/></g><path class="flat-outline-mini" d="M49.889 410.979L7 410.98V305.688h42.889V116.049h599.134v317.622l-599.134-.149v-22.543z" id="_278" data-name="278"/><path class="flat-outline-mini" d="M49.889 693.011H7V587.72l42.889-.001V433.522h271.399v280.996H49.889v-21.507z" id="_277" data-name="277"/><path class="flat-outline-mini" d="M49.889 877.271H7v105.292h42.889v28.907h271.399V714.518H49.889v162.753z" id="_276" data-name="276"/><path class="flat-outline-mini" d="M49.889 1183.746H7v105.293h42.889v14.145h271.399v-291.715H49.889v172.277z" id="_275" data-name="275"/><path class="flat-outline-mini" d="M49.889 1303.184h271.399v-100.129h199.578v326.166H238.85v53.507H148.6v-53.524H49.889v-226.02z" id="_274" data-name="274"/><path class="flat-outline-mini" d="M804.794 1529.204l-283.928.017v-326.166h199.439v116.068h270.816v210.081h-96.077v53.524h-90.25v-53.524z" id="_273" data-name="273"/><path class="flat-outline-mini" d="M991.121 1204.43h43.641v105.436h-43.641v9.257H720.305v-251.827h270.816v137.134z" id="_272" data-name="272"/><path class="flat-outline-mini" d="M991.121 944.959h43.641v105.292h-43.641v17.045H720.305V807.662h270.816v137.297z" id="_271" data-name="271"/><path class="flat-outline-mini" d="M991.121 561.396h43.641v105.292h-43.641v140.974H720.305V433.671h270.816v127.725z" id="_270" data-name="270"/><path class="flat-outline-mini" d="M649.023 116.049h342.098v189.638h43.641v105.292h-43.641v22.692H649.023V116.049z" id="_269" data-name="269"/><path class="flat-outline-mini" d="M2716.282 7l.007 430.856h307.315V316.793h195.474V7h-502.796z" id="_99" data-name="99"/><path class="flat-outline-mini" d="M3023.604 437.856l-.007 492.905-307.315.201.007-493.106h307.315z" id="_98" data-name="98"/><path class="flat-outline-mini" d="M2716.282 1500.091h502.716V1070.47h-195.401V930.859l-307.315.103v569.129z" id="_97" data-name="97"/><path class="flat-outline-mini" d="M3415.295 1070.47V887.911h307.562v612.18h-503.859V1070.47h196.297z" id="_96" data-name="96"/><path class="flat-outline-mini" d="M3415.295 599.474h307.562v288.437h-307.562z" id="_95" data-name="95"/><path class="flat-outline-mini" d="M3415.295 316.793h307.562v282.681h-307.562z" id="_94" data-name="94"/><path class="flat-outline-mini" d="M3219.078 7h503.779v309.793h-503.779z" id="_93" data-name="93"/></svg>