<svg xmlns="http://www.w3.org/2000/svg" viewBox="0 0 3729.857 1649.057"><defs><style>.cls-21,.cls-22,.cls-23,.flat-outline-mini{fill:none;stroke:#000;stroke-miterlimit:10}.cls-23{stroke-width:2px}.cls-22{stroke-width:3px}.cls-21{stroke-width:14px}</style></defs><g id="f20"><path class="cls-23" d="M442.723 1029.168h62.142v60.192h-62.142zM442.723 1029.168l62.142 60.192M504.865 1029.168l-62.142 60.192M537.452 1029.168h62.263v60.192h-62.263zM537.452 1029.168l62.263 60.192M599.715 1029.168l-62.263 60.192M442.723 803.449h62.142v81.389h-62.142zM442.723 803.449l62.142 81.389M504.865 803.449l-62.142 81.389M537.452 803.449h62.263v81.389h-62.263zM537.452 803.449l62.263 81.389M599.715 803.449l-62.263 81.389"/><path class="cls-22" d="M649.023 116.05v318.241M339.883 433.516l-246.752.008M93.131 714.519h228.157M93.131 1011.471h228.157M321.288 635.363V433.516M321.288 797.818V673.667M321.288 836.175v366.881h15.972M378.239 433.679h285.074M720.305 868.761V433.679h-18.667M947.879 558.074H720.305M392.561 543.62h256.462M471.718 654.634h177.305M433.361 654.634h-40.8M488.076 721.561h160.947M449.719 721.561h-57.158M392.561 787.888h256.462M451.224 898.301h-58.663M496.348 898.301h48.887M590.361 898.301h58.662M521.049 787.888v110.413M509.134 730.566v-9.005M509.135 787.888v-22.661M451.225 1015.627h-58.664M496.348 1015.626h48.887M590.361 1015.627h58.662M392.561 1098.376h256.462M720.305 1066.527h227.574M703.918 1203.056h16.387V907.118M375.616 1203.056h289.947M520.866 1418.29v-215.171M521.049 1015.627v82.749"/><path class="cls-21" d="M7 116.05h1027.762v1526.007H7z"/><path class="cls-21" d="M991.121 116.05v1413.155H49.889V116.05M947.879 116.05v201.749M93.131 316.874V116.05M93.131 599.831V399.604M93.131 889.386V682.561M93.131 1060.485v-88.371"/><path class="cls-21" d="M292.999 1418.29H93.131v-275.075M682.204 1418.29H358.807M947.879 1167.657v250.633H748.012M947.879 911.947v172.981M947.879 400.527v428.692M649.023 511.445v155.871M649.023 433.679v43.106M649.023 709.433v224.593M649.023 1203.056V979.903M392.561 1203.056v-38.704M392.561 1129.756V979.903M392.561 934.026V709.433M392.561 667.316V433.679"/><path class="cls-23" d="M420.344 434.345l-34.085 34.054M444.365 434.345l-58.106 58.053M468.386 434.345l-82.127 82.052M492.407 434.345L386.259 540.396M516.428 434.345L386.259 564.394M540.449 434.345l-154.19 154.048M564.47 434.345L386.259 612.392M588.491 434.345L386.259 636.391M612.512 434.345L386.259 660.39M636.532 434.345L386.259 684.389M655.269 439.625l-269.01 268.763M655.269 463.623l-269.01 268.764M655.269 487.622l-269.01 268.764M655.269 511.621l-269.01 268.763M655.269 535.62l-269.01 268.763M424.377 790.299l-38.118 38.083M655.269 559.619L426.79 787.888M424.377 814.284l-38.118 38.097M655.269 583.618l-204.458 204.27M424.377 838.283l-38.118 38.097M655.269 607.617L474.831 787.888M424.377 862.282l-38.118 38.097M655.269 631.616L498.852 787.888M424.377 886.281l-38.118 38.097M655.269 655.615L522.873 787.888M436.366 898.301l-50.107 50.076M655.269 679.613L546.894 787.888M460.387 898.301l-74.128 74.075M655.269 703.612l-84.354 84.276M484.409 898.301l-98.15 98.073M655.269 727.611l-60.333 60.277M508.306 898.301l-122.047 122.072M655.269 751.61l-37.541 37.506M532.45 898.301l-146.191 146.071M655.269 775.609l-37.547 37.513M424.377 1030.275l-38.118 38.096M556.472 898.301l-117.421 117.326M655.269 799.608l-37.547 37.512M424.377 1054.273l-38.118 38.097M580.493 898.301l-117.434 117.326M655.269 823.607l-37.547 37.512M424.377 1078.272l-38.118 38.097M604.527 898.301L487.08 1015.627M655.269 847.606l-37.547 37.512M428.289 1098.376l-42.03 41.992M655.269 871.604l-144.168 144.023M452.31 1098.376l-66.051 65.991M655.269 895.603l-120.147 120.024M476.331 1098.376l-90.072 89.989M655.269 919.602l-96.127 96.025M500.181 1098.546l-104.606 104.51M655.167 943.702l-71.996 71.925M524.373 1098.376l-104.777 104.68M655.269 967.6l-48.085 48.027M548.394 1098.376l-104.777 104.68M655.269 991.599l-37.547 37.513M572.415 1098.376l-104.777 104.68M655.269 1015.598l-37.547 37.512M596.436 1098.376l-104.777 104.68M655.269 1039.597l-37.547 37.512M655.269 1063.596l-139.66 139.523M655.269 1087.594l-115.638 115.525M655.269 1111.593l-91.553 91.463M655.269 1135.592l-67.531 67.464M655.269 1159.591l-43.509 43.465M655.269 1183.59l-19.487 19.466"/><path class="cls-21" d="M371.639 1418.29v52.458h-90.25v-52.458M760.844 1418.29v52.457h-90.25v-52.457M991.121 305.581h-43.242M991.121 411.033h-43.242M991.121 817h-43.242M991.121 922.292h-43.242M991.121 1072.709h-43.242M991.121 1178.002h-43.242M49.889 1153.56h43.242M49.889 1048.266h43.242M49.889 982.459h43.242M49.889 877.167h43.242M49.889 692.906h43.242M49.889 587.613h43.242M49.889 410.874h43.242M49.889 305.581h43.242"/><path class="cls-23" d="M3143.065 897.567h60.222v58.382h-60.222zM3143.065 897.567l60.222 58.382M3203.287 897.567l-60.222 58.382M3234.867 897.567h60.34v58.382h-60.34zM3234.867 897.567l60.34 58.382M3295.207 897.567l-60.34 58.382M3143.065 678.636h60.222v78.941h-60.222zM3143.065 678.636l60.222 78.941M3203.287 678.636l-60.222 78.941M3234.867 678.636h60.34v78.941h-60.34zM3234.867 678.636l60.34 78.941M3295.207 678.636l-60.34 78.941"/><path class="cls-22" d="M3093.326 7v309.859M2800.802 437.856h222.643M2800.802 809.783l154.233-.051v-22.093h68.41"/><path class="cls-22" d="M3142.769 717.84v449.36h17.586M3160.457 413.525h-17.688v266.721" transform="translate(-119.324 -96.732)"/><path class="cls-22" d="M3078.719 316.793h280.599M3396.903 316.793h18.24v424.584M3637.811 887.911h-222.668M3093.326 424.26h251.306M3304.653 532.71h39.979M3267.068 532.71h-173.742M3186.92 598.686h157.712M3149.334 598.686h-56.009M3093.326 663.741h251.306M3150.808 771.919h-57.482M3195.025 771.919h47.904M3287.148 771.919h57.484M3219.077 663.741v108.178M3207.694 607.532v-8.846M3207.694 663.741v-22.3M3150.809 886.916h-57.484M3195.025 886.916h47.921M3287.148 886.916h57.484M3093.325 968.005h251.307M3399.463 1070.47h15.68V778.973M3078.625 1070.47h283.245M3218.839 1280.537V1070.47M3219.077 886.916v81.089M3415.143 443.414h222.669"/><path class="cls-21" d="M3344.632 392.617v152.901M3344.632 316.793v41.915M3344.632 586.799v220.136M3344.632 1070.47V851.901M3093.325 1070.47v-37.779M3093.325 998.781v-146.88M3093.325 806.909l.001-220.11M3093.326 545.076V316.793"/><path class="cls-23" d="M3120.895 317.44l-33.686 33.695M3144.257 317.44l-57.048 57.063M3167.618 317.44l-80.409 80.431M3190.98 317.44l-103.771 103.799M3214.342 317.44l-127.133 127.167M3237.704 317.44l-150.495 150.535M3261.065 317.44l-173.856 173.903M3284.427 317.44l-197.218 197.271M3307.789 317.44l-220.58 220.639M3331.15 317.44l-243.941 244.007M3350.757 321.196l-263.548 263.619M3350.757 344.564l-263.548 263.618M3350.757 367.932L3087.209 631.55M3350.757 391.3l-263.548 263.618M3350.757 414.668l-263.548 263.618M3350.757 438.036l-263.548 263.618M3125.535 686.686l-38.326 38.336M3350.757 461.404l-202.283 202.337M3125.534 710.055l-38.325 38.335M3350.757 484.772l-178.921 178.969M3125.534 733.423l-38.325 38.335M3350.757 508.14l-155.559 155.601M3125.534 756.791l-38.325 38.335M3350.757 531.508l-132.198 132.233M3133.771 771.919l-46.562 46.575M3350.757 554.876l-108.836 108.865M3157.133 771.919l-69.924 69.943M3350.757 578.244l-85.474 85.497M3180.495 771.919l-93.286 93.311M3350.757 601.611l-62.327 62.344M3203.857 771.919l-116.648 116.679M3350.757 624.979l-38.965 38.976M3227.218 771.919l-140.009 140.047M3350.757 648.347l-37.183 37.194M3125.546 896.986l-38.337 38.348M3250.58 771.919l-114.966 114.997M3350.757 671.715l-37.183 37.194M3125.557 920.344l-38.348 38.358M3273.942 771.919l-114.966 114.997M3350.757 695.083l-37.183 37.194M3125.536 943.733l-38.327 38.337M3297.303 771.919L3182.194 887.06M3350.757 718.451l-37.183 37.194M3125.557 967.08l-38.348 38.358M3350.757 741.819l-145.058 145.097M3147.994 968.005l-60.785 60.801M3350.757 765.187l-121.696 121.729M3171.355 968.005l-84.146 84.169M3350.757 788.555l-98.478 98.505M3194.717 968.005l-102.438 102.465M3350.757 811.923l-75.116 75.137M3218.079 968.005l-102.438 102.465M3350.757 835.291l-51.611 51.625M3241.441 968.005l-102.438 102.465M3350.757 858.659l-37.257 37.267M3264.802 968.005l-102.438 102.465M3350.757 882.027l-37.257 37.267M3288.164 968.005l-102.438 102.465M3350.757 905.395l-37.257 37.267M3311.526 968.005l-102.438 102.465M3350.757 928.763L3313.5 966.03M3350.757 952.131l-118.308 118.339M3350.757 975.499l-94.946 94.971M3350.757 998.867l-71.584 71.603M3350.757 1022.235l-48.222 48.235M3350.757 1045.603l-24.861 24.867"/><path class="cls-21" d="M2760.365 7v1383.238h919.949V7M2800.802 7v196.45M3637.811 204.188V7M3637.811 769.212V285.274M3637.811 933.227v-82.928"/><path class="cls-21" d="M3446.459 1280.537h191.352v-266.223M3064.985 1280.537h308.681M2800.802 1036.427v244.11h191.39M2800.802 666.748v288.594M2800.802 284.536v301.127M3680.314 303.107h-42.503M3637.811 185.022h42.503M3680.314 868.727h-42.473M3637.841 750.783h42.473M3680.314 1032.743h-42.503M3637.811 914.798h42.503M3452.909 1280.537v52.962h-88.459v-52.962M3071.434 1280.537v52.962h-88.458v-52.706M2760.365 936.912h40.437M2800.802 1054.857h-40.437M2760.365 566.496h40.437M2800.802 684.439h-40.437M2760.365 185.022h40.437M2800.802 302.965h-40.437"/><path class="cls-21" d="M2716.282 7h1006.575v1493.091H2716.282zM1034.762 911.441l1681.52-.001M1034.762 1642.056h2688.095v-141.965"/></g><path class="flat-outline-mini" d="M93.131 305.581V116.05h555.891v317.629l-555.891-.145v-22.66H49.888V305.581h43.243z" id="_353" data-name="353"/><path class="flat-outline-mini" d="M321.287 433.516v281.002H93.131v-21.612H49.888V587.613h43.243V433.522l228.156-.006z" id="_352" data-name="352"/><path class="flat-outline-mini" d="M321.287 714.518v296.952H93.131v-29.011H49.888V877.167h43.243V714.518h228.156z" id="_351" data-name="351"/><path class="flat-outline-mini" d="M321.287 1203.056l199.578.063v215.171H371.639v52.458h-90.25v-52.458H93.131v-264.73H49.889v-105.294h43.242v-36.796h228.156v191.586z" id="_350" data-name="350"/><path class="flat-outline-mini" d="M720.303 1203.056v-136.53h227.576v6.183h43.24v105.293h-43.24v240.288H760.844v52.457h-90.25v-52.457H520.865v-215.171l199.438-.063z" id="_349" data-name="349"/><path class="flat-outline-mini" d="M720.303 1066.526h227.576V922.292h43.241V817h-43.241V558.073H720.303v508.453z" id="_348" data-name="348"/><path class="flat-outline-mini" d="M649.022 116.05h298.857v189.531h43.241v105.452h-43.241v147.04H720.303V433.679h-71.281V116.05z" id="_347" data-name="347"/><path class="flat-outline-mini" d="M2800.802 7v178.022h-40.437v117.943h40.437v134.891l222.641.001.001-121.062 69.882-.001V7.001L2800.802 7z" id="_153" data-name="153"/><path class="flat-outline-mini" d="M3023.446 787.639h-68.411v22.094l-154.233.05V684.439h-40.437V566.496h40.437v-128.64l222.644.001v349.782z" id="_152" data-name="152"/><path class="flat-outline-mini" d="M2800.802 1280.537h182.174v52.962h88.458v-52.962h147.403v-210.065h-195.401l.01-282.833h-68.411v22.094l-154.233.05v127.129h-40.437v117.945h40.437v225.68z" id="_151" data-name="151"/><path class="flat-outline-mini" d="M3415.134 1070.472V887.913h222.707l-.03 26.885h42.503v117.945h-42.503v247.794h-184.902v52.962h-88.459v-52.962h-145.611l-.002-210.065h196.297z" id="_150" data-name="150"/><path class="flat-outline-mini" d="M3415.141 887.913V443.416h222.671l.029 307.367h42.471l.002 117.944h-42.473v19.186h-222.7z" id="_149" data-name="149"/><path class="flat-outline-mini" d="M3093.326 7.001V316.86l321.815-.065v126.621h222.671l-.001-140.309h42.501V185.022h-42.501V7.002l-544.485-.001z" id="_148" data-name="148"/></svg>