<svg xmlns="http://www.w3.org/2000/svg" viewBox="0 0 3729.857 1703.375"><defs><style>.cls-21,.cls-22,.cls-23,.flat-outline-mini{fill:none;stroke:#000;stroke-miterlimit:10}.cls-23{stroke-width:2px}.cls-22{stroke-width:3px}.cls-21{stroke-width:14px}</style></defs><g id="f5"><path class="cls-23" d="M442.723 1029.167h62.142v60.192h-62.142zM442.723 1029.167l62.142 60.192M504.865 1029.167l-62.142 60.192M537.452 1029.167h62.263v60.192h-62.263zM537.452 1029.167l62.263 60.192M599.715 1029.167l-62.263 60.192M442.723 803.448h62.142v81.389h-62.142zM442.723 803.448l62.142 81.388M504.865 803.448l-62.142 81.388M537.452 803.448h62.263v81.389h-62.263zM537.452 803.448l62.263 81.388M599.715 803.448l-62.263 81.388"/><path class="cls-22" d="M649.023 116.049V434.29M339.883 433.515L7 433.523M7 843.19h314.288M7 1011.47l314.288-.001M7 1160.41l314.288-.106M321.288 643.019V433.515M321.288 878.617V681.323M321.288 1094.219V916.974M321.288 1249.901v-117.326M321.288 1332.861v-44.603M7 1332.861h258.291v-22.583h55.997M392.561 1385.276v256.78M649.023 1385.277v256.779M378.239 433.678h285.074M701.638 433.678h18.667v533.354M1034.762 680.758H720.305M1034.762 1067.296H720.305M1034.762 1328.442H798.865v21.487h-78.56M720.305 1005.388v129.134M720.305 1173v212.277H710.5M517.032 1385.277l155.118-.001M478.675 1385.276H321.288v-14.112M392.561 543.618h256.462M471.718 654.633h177.305M433.361 654.633h-40.8M488.076 721.559h160.947M449.719 721.559h-57.158M392.561 787.887h256.462M451.224 898.3h-58.663M496.348 898.299l48.887.001M590.361 898.3h58.662M521.049 787.887v110.412M509.134 730.564v-9.005M509.135 787.887v-22.662M451.225 1015.625h-58.664M496.348 1015.625h48.887M590.361 1015.625h58.662M392.561 1098.374h256.462M392.561 1203.055h256.462M520.866 1314.581v-111.463M521.049 1015.625v82.749"/><path class="cls-21" d="M671.343 1642.056H370.507M304.7 1642.056H7V116.049h1027.762v1526.007H737.151M649.023 511.443v155.872M649.023 433.678v43.105M649.023 709.431v224.594"/><path class="cls-21" d="M623.381 1314.581h25.642v-334.68M418.203 1314.58l-25.642-.001v-150.228M585.096 1314.581l-128.608-.001M392.561 1129.755V979.901M392.561 934.025V709.431M392.561 667.315V433.678"/><path class="cls-23" d="M420.344 434.343l-34.085 34.054M444.365 434.343l-58.106 58.053M468.386 434.343l-82.127 82.052M492.407 434.343L386.259 540.394M516.428 434.343l-130.169 130.05M540.449 434.343l-154.19 154.049M564.47 434.343L386.259 612.391M588.491 434.343L386.259 636.39M612.512 434.343L386.259 660.389M636.532 434.343L386.259 684.387M655.269 439.623l-269.01 268.763M655.269 463.622l-269.01 268.763M655.269 487.621l-269.01 268.763M655.269 511.62l-269.01 268.763M655.269 535.619l-269.01 268.763M424.377 790.297l-38.118 38.084M655.269 559.617L426.79 787.887M424.377 814.283l-38.118 38.097M655.269 583.616L450.811 787.887M424.377 838.282l-38.118 38.096M655.269 607.615L474.831 787.887M424.377 862.281l-38.118 38.096M655.269 631.614L498.852 787.887M424.377 886.279l-38.118 38.097M655.269 655.613L522.873 787.887M436.366 898.3l-50.107 50.075M655.269 679.612L546.894 787.887M460.387 898.3l-74.128 74.074M655.269 703.611l-84.354 84.276M484.409 898.3l-98.15 98.073M655.269 727.61l-60.333 60.277M508.306 898.3l-122.047 122.072M655.269 751.609l-37.541 37.506M532.45 898.3l-146.191 146.071M655.269 775.607l-37.547 37.513M424.377 1030.273l-38.118 38.097M556.472 898.3l-117.421 117.325M655.269 799.606l-37.547 37.513M424.377 1054.272l-38.118 38.096M580.493 898.3l-117.434 117.325M655.269 823.605l-37.547 37.513M424.377 1078.271l-38.118 38.096M604.527 898.3L487.08 1015.625M655.269 847.604l-37.547 37.513M428.289 1098.374l-42.03 41.992M655.269 871.603l-144.168 144.022M452.31 1098.374l-66.051 65.991M655.269 895.602l-120.147 120.023M476.331 1098.374l-90.072 89.99M655.269 919.601l-96.127 96.024M500.181 1098.545l-113.922 113.818M655.167 943.701l-71.996 71.924M524.373 1098.374l-138.114 137.988M655.269 967.599l-48.085 48.026M548.394 1098.374l-162.135 161.987M655.269 991.597l-37.547 37.513M572.415 1098.374L386.259 1284.36M655.269 1015.596l-37.547 37.513M596.436 1098.374l-210.177 209.984M655.269 1039.595l-37.547 37.513M655.269 1063.594l-257.525 257.275M655.269 1087.593l-233.504 233.276M655.269 1111.592l-209.483 209.277M655.269 1135.591l-185.462 185.278M655.269 1159.59l-161.441 161.279M655.269 1183.589l-137.42 137.28M655.269 1207.587L541.87 1320.869M655.269 1231.586l-89.378 89.283M655.269 1255.585l-65.357 65.284M655.269 1279.584l-41.337 41.285"/><path class="cls-21" d="M749.372 1642.056v54.319h-90.251v-54.319M382.729 1642.056v54.319h-90.251v-54.319"/><path class="cls-23" d="M3143.216 897.567h60.222v58.382h-60.222zM3143.216 897.567l60.223 58.382M3203.439 897.567l-60.223 58.382M3235.019 897.567h60.34v58.382h-60.34zM3235.019 897.567l60.34 58.382M3295.359 897.567l-60.34 58.382M3143.216 678.636h60.222v78.941h-60.222zM3143.216 678.636l60.223 78.941M3203.439 678.636l-60.223 78.941M3235.019 678.636h60.34v78.941h-60.34zM3235.019 678.636l60.34 78.941M3295.359 678.636l-60.34 78.941"/><path class="cls-22" d="M3219.078 7v309.859M3041.284 316.793h-325.002M2716.282 682.979h307.315M2716.282 934.951l307.315-.103M3023.597 570.009V316.793M3023.597 834.599V607.604M3023.597 1089.708V872.194M3023.597 1199.177v-71.874M2716.282 1197.509h230.487v-12.522h76.828M3092.903 1250.042v250.049M3346.02 1250.042v250.049M3078.96 316.793h280.668M3415.295 535.178v222.069M3415.295 429.284v68.298M3397.222 316.793h18.073v74.895M3722.857 724.932h-307.562M3722.857 887.911h-307.562M3722.857 1047.691h-307.562M3415.295 794.843v183.554M3415.295 1186.92v-170.854M3297.523 1250.042h117.772v-25.528M3259.938 1250.042h-236.341v-13.27M3093.477 424.26h251.306M3304.804 532.71h39.979M3267.219 532.71h-173.742M3187.071 598.686h157.712M3149.486 598.686h-56.009M3093.477 663.741h251.306M3150.959 771.919h-57.482M3195.177 771.919h47.903M3287.299 771.919h57.484M3219.229 663.741v108.178M3207.845 607.532v-8.846M3207.845 663.741v-22.3M3150.961 886.916h-57.484M3195.177 886.916h47.92M3287.299 886.916h57.484M3093.477 968.005h251.306M3093.477 1070.47h251.306M3218.991 1179.94v-109.47M3219.229 886.916v81.089M3413.859 316.793h308.998M3415.295 461.061h307.562"/><path class="cls-21" d="M3367 1500.091h-294.849M3007.641 1500.091h-291.359V7h1006.575v1493.091h-291.359M3344.783 392.617v152.901M3344.783 316.793v41.915M3344.783 586.799v220.136"/><path class="cls-21" d="M3319.725 1179.94h25.058V851.901M3118.533 1179.939h-25.056v-147.248M3282.14 1179.94l-126.022-.002M3093.477 998.781v-146.88M3093.477 806.909v-220.11M3093.477 545.076V316.793"/><path class="cls-23" d="M3121.046 317.44l-33.686 33.695M3144.408 317.44l-57.048 57.063M3167.77 317.44l-80.41 80.431M3191.131 317.44L3087.36 421.239M3214.493 317.44L3087.36 444.607M3237.855 317.44L3087.36 467.975M3261.217 317.44L3087.36 491.343M3284.578 317.44L3087.36 514.711M3307.94 317.44l-220.58 220.639M3331.302 317.44L3087.36 561.447M3350.909 321.196L3087.36 584.815M3350.909 344.564L3087.36 608.182M3350.909 367.932L3087.36 631.55M3350.909 391.3L3087.36 654.918M3350.909 414.668L3087.36 678.286M3350.909 438.036L3087.36 701.654M3125.686 686.686l-38.326 38.336M3350.909 461.404l-202.283 202.337M3125.685 710.055l-38.325 38.335M3350.909 484.772l-178.922 178.969M3125.685 733.423l-38.325 38.335M3350.909 508.14l-155.56 155.601M3125.685 756.791l-38.325 38.335M3350.909 531.508l-132.198 132.233M3133.923 771.919l-46.563 46.575M3350.909 554.876l-108.836 108.865M3157.284 771.919l-69.924 69.943M3350.909 578.244l-85.475 85.497M3180.646 771.919l-93.286 93.311M3350.909 601.611l-62.328 62.344M3204.008 771.919L3087.36 888.598M3350.909 624.979l-38.966 38.976M3227.37 771.919l-140.01 140.047M3350.909 648.347l-37.184 37.194M3125.698 896.986l-38.338 38.348M3250.732 771.919l-114.966 114.997M3350.909 671.715l-37.184 37.194M3125.708 920.344l-38.348 38.358M3274.093 771.919l-114.966 114.997M3350.909 695.083l-37.184 37.194M3125.687 943.733l-38.327 38.337M3297.455 771.919l-115.11 115.141M3350.909 718.451l-37.184 37.194M3125.708 967.08l-38.348 38.358M3350.909 741.819l-145.058 145.097M3148.145 968.005l-60.785 60.801M3350.909 765.187l-121.697 121.729M3171.507 968.005l-84.147 84.169M3350.909 788.555l-98.479 98.505M3194.869 968.005l-107.509 107.537M3350.909 811.923l-75.117 75.137M3218.23 968.005l-130.87 130.905M3350.909 835.291l-51.611 51.625M3241.592 968.005l-154.232 154.273M3350.909 858.659l-37.257 37.267M3264.954 968.005l-177.594 177.641M3350.909 882.027l-37.257 37.267M3288.315 968.005l-200.955 201.009M3350.909 905.395l-37.257 37.267M3311.677 968.005l-218.003 218.062M3350.909 928.763l-37.257 37.267M3350.909 952.131l-233.874 233.936M3350.909 975.499l-210.512 210.568M3350.909 998.867l-187.15 187.2M3350.909 1022.235l-163.789 163.832M3350.909 1045.603l-140.427 140.464M3350.909 1068.971l-117.065 117.096M3350.909 1092.339l-93.575 93.6M3350.909 1115.707l-70.214 70.232M3350.909 1139.075l-46.98 46.992"/><path class="cls-21" d="M3084.12 1500.091v54.547h-88.458v-54.549M3443.479 1500.092v54.547h-88.458v-54.549M1034.762 911.441l1681.52-.001"/><path class="cls-21" d="M1034.762 1642.056h2688.095v-141.965"/></g><path class="flat-outline-mini" d="M2716.282 7h502.796v309.793h-502.796z" id="_36" data-name="36"/><path class="flat-outline-mini" d="M2716.282 316.793h307.315v366.186h-307.315z" id="_35" data-name="35"/><path class="flat-outline-mini" d="M3023.597 682.979v251.869l-307.315.103V682.979h307.315z" id="_34" data-name="34"/><path class="flat-outline-mini" d="M3023.597 934.848v250.139h-76.828v12.522h-230.487V934.951l307.315-.103z" id="_33" data-name="33"/><path class="flat-outline-mini" d="M3023.597 1250.042h69.306v250.049h-8.783v54.547h-88.458v-54.547h-279.38v-302.582h230.487v-12.522h76.828v65.055z" id="_32" data-name="32"/><path class="flat-outline-mini" d="M3092.903 1250.042h253.116v250.05h-253.116z" id="_31" data-name="31"/><path class="flat-outline-mini" d="M3415.295 1250.042v-202.351h307.562v452.4h-279.378v54.548h-88.458v-54.548h-9.001v-250.049h69.275z" id="_30" data-name="30"/><path class="flat-outline-mini" d="M3415.295 887.911h307.562v159.78h-307.562z" id="_29" data-name="29"/><path class="flat-outline-mini" d="M3415.295 724.932h307.562V887.91h-307.562z" id="_28" data-name="28"/><path class="flat-outline-mini" d="M3415.295 461.061h307.562v263.872h-307.562z" id="_27" data-name="27"/><path class="flat-outline-mini" d="M3415.295 316.793h307.562V461.06h-307.562z" id="_26" data-name="26"/><path class="flat-outline-mini" d="M3219.078 7h503.779v309.793h-503.779z" id="_25" data-name="25"/><path class="flat-outline-mini" d="M649.023 116.049v317.629L7 433.523V116.049h642.023z" id="_218" data-name="218"/><path class="flat-outline-mini" d="M321.288 433.515L7 433.523V843.19h314.288V433.515z" id="_217" data-name="217"/><path class="flat-outline-mini" d="M7 843.19h314.288v168.279H7z" id="_216" data-name="216"/><path class="flat-outline-mini" d="M321.288 1011.469H7v148.941l314.288-.106v-148.835z" id="_215" data-name="215"/><path class="flat-outline-mini" d="M321.288 1160.304L7 1160.41v172.451h258.291v-22.583h55.997v-149.974z" id="_214" data-name="214"/><path class="flat-outline-mini" d="M321.288 1310.278h-55.997v22.583H7v309.195h285.478v54.319h90.251v-54.319h9.832v-256.78h-71.273v-74.998z" id="_213" data-name="213"/><path class="flat-outline-mini" d="M392.561 1385.276h256.461v256.779H392.561z" id="_212" data-name="212"/><path class="flat-outline-mini" d="M1034.762 1642.056v-313.614H798.865v21.487h-78.56v35.348h-71.282v256.779h10.098v54.319h90.251v-54.319h285.39z" id="_211" data-name="211"/><path class="flat-outline-mini" d="M1034.762 1328.442v-261.146H720.305v282.633h78.56v-21.487h235.897z" id="_210" data-name="210"/><path class="flat-outline-mini" d="M720.305 680.758h314.457v386.538H720.305z" id="_209" data-name="209"/><path class="flat-outline-mini" d="M649.023 116.049h385.739v564.709H720.305v-247.08h-71.282V116.049z" id="_208" data-name="208"/></svg>