<svg xmlns="http://www.w3.org/2000/svg" width="569.25" height="484.619" viewBox="0 0 426.938 363.464"><defs><pattern id="Новый_узор_3" data-name="Новый узор 3" width="35.15" height="35.15" patternTransform="translate(9.701 -23.402)" patternUnits="userSpaceOnUse"><path class="cls-1" d="M0 0h35.15v35.15H0z"/><path class="cls-2" d="M35.149 35.15h35.15V70.3h-35.15z"/><path class="cls-2" d="M0 35.15h35.15V70.3H0zM-35.15 35.15H0V70.3h-35.15z"/><path class="cls-2" d="M35.149.001h35.15v35.15h-35.15z"/><path class="cls-2" d="M0 .001h35.15v35.15H0zM-35.15.001H0v35.15h-35.15zM35.149-35.149h35.15V.001h-35.15z"/><path class="cls-2" d="M0-35.149h35.15V.001H0zM-35.15-35.149H0V.001h-35.15z"/></pattern><pattern id="Новый_узор_4" data-name="Новый узор 4" width="9.822" height="9.822" patternTransform="translate(1.424 -6.847)" patternUnits="userSpaceOnUse"><path class="cls-1" d="M0 0h9.822v9.822H0z"/><path class="cls-3" d="M14.733 19.647L9.82 14.735l4.913-4.913 4.912 4.913-4.912 4.912z"/><path class="cls-3" d="M4.911 19.647l-4.913-4.912 4.913-4.913 4.912 4.913-4.912 4.912z"/><path class="cls-3" d="M-4.912 19.647l-4.912-4.912 4.912-4.913 4.913 4.913-4.913 4.912zM14.733 9.825L9.82 4.912 14.733 0l4.912 4.912-4.912 4.913z"/><path class="cls-3" d="M4.911 9.825L-.002 4.912 4.911 0l4.912 4.912-4.912 4.913z"/><path class="cls-3" d="M-4.912 9.825l-4.912-4.913L-4.912 0 .001 4.912l-4.913 4.913zM14.733.003L9.82-4.91l4.913-4.912 4.912 4.912L14.733.003z"/><path class="cls-3" d="M4.911.003L-.002-4.91l4.913-4.912L9.823-4.91 4.911.003z"/><path class="cls-3" d="M-4.912.003L-9.824-4.91l4.912-4.912L.001-4.91-4.912.003z"/></pattern><pattern id="Новый_узор_5" data-name="Новый узор 5" width="22.872" height="23.072" patternTransform="translate(11.384 -2.495)" patternUnits="userSpaceOnUse"><path class="cls-1" d="M0 0h22.872v23.072H0z"/><path class="cls-4" d="M22.664 17.512v11.12H.208v-11.12h22.456m.108-.108H.1V28.74h22.672V17.4zM22.664 5.976V17.1H.208V5.976h22.456m.108-.108H.1V17.2h22.672V5.868zM22.664-5.56V5.56H.208V-5.56h22.456m.108-.108H.1V5.668h22.672V-5.668z"/></pattern><style>.cls-1,.cls-12,.cls-13,.cls-14,.cls-17,.cls-2,.cls-3,.cls-4,.cls-9{fill:none}.cls-2{stroke:#ededed}.cls-12,.cls-17,.cls-2,.cls-3,.cls-9{stroke-linecap:round;stroke-linejoin:round;stroke-width:.4px}.cls-3,.cls-4{stroke:#e6e6e6}.cls-10,.cls-3,.cls-5,.cls-9{fill-rule:evenodd}.cls-4{stroke-miterlimit:10;stroke-width:.2px}.cls-5{fill:#fff}.cls-12,.cls-13,.cls-9{stroke:#020204}.cls-10{fill:#020204}.cls-13,.cls-14{stroke-miterlimit:22.926}.cls-13{stroke-width:.2px}.cls-14{stroke:gray;stroke-width:.6px}.cls-17{stroke:#000}</style></defs><g id="_189" data-name="189"><path class="cls-5" d="M73.528.237v58.594H.097v273.956h405.514V.237H73.528z" id="fon"/><path stroke="#dcdcdc" fill="url(#Новый_узор_3)" stroke-linecap="round" stroke-linejoin="round" stroke-width=".4" d="M73.184.25v58.036H.2v274.501H405.611V.25H73.184z" id="Слой_4" data-name="Слой 4"/><g id="wet_zones" data-name="wet zones"><path fill="url(#Новый_узор_4)" d="M162.172 26.923h90.12v72.739h-90.12z"/><path fill="url(#Новый_узор_5)" fill-rule="evenodd" d="M43.9 111.926v11.353H11.214v61.661h68.112v-73.014H43.9z"/></g><g id="walls"><path class="cls-9" d="M32.139 42.629A46.053 46.053 0 0028.9 58.287"/><path class="cls-10" d="M32.139 42.628l-.6 1.388 36.354 15.781h.453l.001-1.511-36.208-15.658z"/><path class="cls-9" d="M91.588 157.936a37.587 37.587 0 01-2.573-12.552"/><path class="cls-10" d="M91.634 158.042l29.272-12.658v-1.512h-.453l-29.419 12.782.6 1.388z"/><path class="cls-9" d="M200.387 157.96a37.772 37.772 0 01-2.584-12.576"/><path class="cls-10" d="M200.423 158.042l29.271-12.658v-1.512h-.453l-29.418 12.782.6 1.388z"/><path class="cls-9" d="M47.043 173.782a24.511 24.511 0 00-2.31 11.158"/><path class="cls-10" d="M47.078 173.712l-.601 1.387 25.95 11.282h.454l.001-1.511-25.804-11.158z"/><path class="cls-9" d="M213.982 88.609a30.75 30.75 0 012.31 11.158"/><path class="cls-10" d="M213.971 88.504l-25.803 11.158v1.511h.453l25.95-11.282-.6-1.387z"/><path d="M82.253 67.354V.25h-9.069v58.036h-4.838V59.8h-.453v7.557zM321.625.284c27.906 0 55.936-.034 83.889-.034v48.968h-23.805v-37.9l-60.084-.071V.284zM151.242 102.626h10.872V63.532h-10.872v39.094zm94.711 111.867h10.872V175.4h-10.872v39.093zM319.361 309v23.8h-90.687V309zM28.407 332.8H.256V58.286H28.9V59.8h.454v7.557h-18.14V309h17.193v23.8zM94.533 309h68.015v23.8H94.533V309zm310.981-131.309h-23.805v-45.344h23.805z" stroke-width=".5" stroke-miterlimit="3" fill="#020204" stroke="#020204" fill-rule="evenodd"/><path class="cls-12" d="M94.619 332.724h68.016M228.761 325.167v-16.249M228.761 332.724v-5.668M228.761 327.056v-1.889M162.634 325.167v-16.249M162.634 332.724v-5.668M162.634 327.056v-1.889M162.634 332.724h66.127M162.634 308.918h66.127M162.634 325.167h3.779M166.414 325.167v1.889M166.414 327.056h-3.779M200.421 327.056h-1.89M198.532 327.056v-1.889M198.532 325.167h1.89M166.414 326.112h32.118M166.414 325.167h32.118M198.532 327.056h-32.118M200.421 325.167h.944M201.366 325.167v.944M201.366 326.112h.944M202.31 326.112v.944M202.31 327.056h-1.889M228.761 327.056h-3.779M224.982 327.056v-.944M224.982 326.112h.945M225.927 326.112v-.944M225.927 325.167h2.834M224.982 327.056H202.31M204.2 324.222h18.894M201.366 324.222h2.834M204.2 324.222v1.89M204.2 326.112h-2.834M201.366 326.112v-1.89M225.927 326.112h-2.834M223.093 326.112v-1.89M223.093 324.222h2.834M225.927 324.222v1.89M223.093 326.112h-18.894M204.2 324.222h18.894M204.2 325.167h18.894M162.634 327.056v-1.889M162.634 327.056v-1.889M162.634 332.724v-5.668M162.634 325.167v-16.249M228.761 327.056v-1.889M228.761 327.056v-1.889M228.761 332.724v-5.668M228.761 325.167v-16.249M94.619 325.167v-16.249M94.619 332.724v-5.668M94.619 327.056v-1.889M28.494 325.167v-16.249M28.494 332.724v-5.668M28.494 327.056v-1.889M28.494 332.724H94.62M28.494 308.918H94.62M28.494 325.167h3.778M32.272 325.167v1.889M32.272 327.056h-3.778M59.667 327.056h-1.889M57.778 327.056v-1.889M57.778 325.167h1.89M32.272 326.112h25.506M32.272 325.167h25.506M57.778 327.056H32.272M59.667 325.167h.944M60.612 325.167v.944M60.612 326.112h.944M61.556 326.112v.944M61.556 327.056h-1.889M94.619 327.056h-3.778M90.84 327.056v-.944M90.84 326.112h.945M91.786 326.112v-.944M91.786 325.167h2.834M90.84 327.056H61.556M63.446 324.222h25.506M60.612 324.222h2.834M63.446 324.222v1.89M63.446 326.112h-2.834M60.612 326.112v-1.89M91.786 326.112h-2.834M88.952 326.112v-1.89M88.952 324.222h2.834M91.786 324.222v1.89M88.952 326.112H63.446M63.446 324.222h25.506M28.494 327.056v-1.889M28.494 327.056v-1.889M28.494 332.724v-5.668M28.494 325.167v-16.249M94.619 327.056v-1.889M94.619 327.056v-1.889M94.619 332.724v-5.668M94.619 325.167v-16.249M63.446 325.167h25.506M319.448 325.167v-16.249M319.448 332.724v-5.668M319.448 327.056v-1.889M319.448 332.724h86.153M319.448 308.918h62.348M319.448 325.167h4.724M324.171 325.167v1.889M324.171 327.056h-4.724M398.043 327.056h-4.724M393.32 327.056v-1.889M393.32 325.167h4.724M399.933 327.056h-1.89M324.171 325.167h69.148M393.32 327.056h-69.148M319.448 327.056v-1.889M319.448 327.056v-1.889M319.448 332.724v-5.668M319.448 325.167v-16.249M398.043 177.612h-16.248M405.601 177.612h-5.668M399.933 177.612h-1.89M405.601 177.612v155.112M381.795 177.612v131.307M398.043 177.612v4.723M398.043 182.334h1.89M399.933 182.334v-4.723M399.933 325.167v-4.724M399.933 320.444h-1.89M398.043 320.444v4.724M399.933 327.056v-1.889M398.043 182.334v138.109M399.933 320.444V182.335M399.933 177.612h-1.89M399.933 177.612h-1.89M405.601 177.612h-5.668M398.043 177.612h-16.248"/><path class="cls-13" d="M398.043 262.097h1.89v5.133h-1.89zM398.043 218.74h1.89v5.133h-1.89z"/><path class="cls-12" d="M398.043 49.138h-16.248M405.601 49.138h-5.668M399.933 49.138h-1.89M398.043 132.268h-16.248M405.601 132.268h-5.668M399.933 132.268h-1.89M405.601 132.268v-83.13M381.795 132.268v-83.13M398.043 132.268v-3.778M398.043 128.49h1.89M399.933 128.49v3.778M399.933 77.478v1.889M399.933 79.367h-1.89M398.043 79.367v-1.889M398.988 128.49V79.367M398.043 128.49V79.367M399.933 79.367v49.123M398.043 77.478v-.944M398.043 76.533h.945M398.988 76.533v-.945M398.988 75.588h.945M399.933 75.588v1.89M399.933 49.138v3.778M399.933 52.916h-.945M398.988 52.916v-.944M398.988 51.972h-.944M398.043 51.972v-2.834M399.933 52.916v22.672M397.099 73.7V54.806M397.099 76.533v-2.834M397.099 73.7h1.889M398.988 73.7v2.834M398.988 76.533h-1.889M398.988 51.972v2.834M398.988 54.806h-1.889M397.099 54.806v-2.834M397.099 51.972h1.889M398.988 54.806V73.7M397.099 73.7V54.806M398.043 73.7V54.806M399.933 132.268h-1.89M399.933 132.268h-1.89M405.601 132.268h-5.668M398.043 132.268h-16.248M399.933 49.138h-1.89M399.933 49.138h-1.89M405.601 49.138h-5.668M398.043 49.138h-16.248"/></g><g id="wall_2" data-name="wall 2"><path class="cls-5" d="M82.252 187.893h-9.825v-1.512h.454v-1.511h6.349v-72.929H43.9v11.338H11.214v-3.022h29.664v-8.315h-17.95V67.354h3.023v41.565h56.3v33.441h7.216v1.512h-.453v1.511h-6.762v42.51zm0-155.113h68.96v30.752h10.958V26.923h90.121v72.739h-36.01v1.511h-.454v1.512h39.486V11.242h-3.022V23.9h-68.014V11.242h137.636V.285H162.358V.25h-3.021v.034H82.253v3.022H132.7v18.516H82.253V32.78zm79.918-8.88V11.242h19.083V23.9zm83.7 285.1v-94.5h10.958V309zm0-133.6v-30.017h-16.176v-1.511h-.453v-1.512h27.584v33.04zm-47.611-33.04v1.512h-.459v1.511h-44.509v69.526h-22.672V309H127.6v-97.11h22.672v-66.5h-29.366v-1.511h-.453v-1.519h77.8zm-36.084-39.675v-3.023h26v1.511h.453v1.512zM45.222 187.893v-1.512h-.453v-1.511H11.214v3.023zM151.212 3.306v18.516h-15.493V3.306zm97.3-3.023h-3.022V.25h3.022z"/><path class="cls-14" d="M83.2.28l-.95.84M90.63.28l-3.44 3.03M98.05.28l-3.44 3.03M105.47.28l-3.44 3.03M25.95 70.33l-3.02 2.66M25.95 76.87l-3.02 2.66M88.44 21.82l-6.19 5.45M112.89.28l-3.44 3.03M25.95 83.4l-3.02 2.66M120.31.28l-3.44 3.03M95.86 21.82L83.42 32.78M25.95 89.95l-3.02 2.66M127.74.28l-3.44 3.03M103.28 21.82L90.84 32.78M25.95 96.48l-3.02 2.66M135.16.28l-3.44 3.03M110.71 21.82L98.26 32.78M25.95 103.02l-3.02 2.66M142.58.28l-3.44 3.03M135.72 6.32l-3.02 2.66M118.13 21.82l-12.44 10.96M26.68 108.92l-3.43 3.02M150 .28l-3.44 3.03M135.72 12.86l-3.02 2.66M125.55 21.82l-12.44 10.96M13.8 120.26l-2.59 2.28M21.23 120.26l-3.43 3.02M135.72 19.4l-15.18 13.38M157.43.28l-6.22 5.48M34.1 108.92l-3.43 3.02M28.65 120.26l-3.43 3.02M140.39 21.82l-12.44 10.96M164.84.28l-13.63 12.01M41.52 108.92l-3.43 3.02M43.9 113.36l-3.02 2.66M36.07 120.26l-3.43 3.02M147.82 21.82l-12.45 10.96M172.27.28l-21.06 18.55M48.94 108.92l-3.43 3.02M56.36 108.92l-3.42 3.02M179.69.28l-12.44 10.96M162.17 15.71L142.8 32.78M43.9 119.9l-3.84 3.38M63.79 108.92l-3.43 3.02M187.12.28l-12.45 10.96M162.17 22.26l-11.95 10.52M71.21 108.92l-3.43 3.02M194.54.28l-13.29 11.71M162.17 28.79l-10.96 9.66M167.73 23.9l-3.43 3.02M78.63 108.92l-3.42 3.02M201.96.28l-12.44 10.96M184.28 15.86l-3.03 2.66M162.17 35.33l-10.96 9.66M175.15 23.9l-3.43 3.02M82.25 112.27l-3.02 2.66M184.28 22.39l-5.15 4.53M209.38.28l-12.45 10.96M162.17 41.86l-10.96 9.66M82.25 118.81l-3.02 2.66M189.99 23.9l-3.43 3.02M216.8.28l-12.44 10.96M162.17 48.4l-10.96 9.66M82.25 125.35l-3.02 2.66M197.41 23.9l-3.43 3.02M224.22.28l-12.44 10.96M162.17 54.95l-9.74 8.58M14.68 184.87l-3.42 3.02M22.11 184.87l-3.43 3.02M204.83 23.9l-3.42 3.02M231.65.28l-12.44 10.96M162.17 61.48l-2.32 2.05M82.25 131.89l-3.02 2.66M29.53 184.87l-3.43 3.02M212.26 23.9l-3.43 3.02M239.07.28l-12.44 10.96M82.25 138.43l-3.02 2.66M219.68 23.9l-3.43 3.02"/><path stroke="gray" stroke-width=".6" stroke-miterlimit="22.926" fill-rule="evenodd" fill="none" d="M246.53.25l-.04.03-12.44 10.96"/><path class="cls-14" d="M85.21 142.36l-5.98 5.26M36.95 184.87l-3.43 3.02M227.11 23.9l-3.43 3.02M253.92.28l-12.44 10.96M44.38 184.87l-3.43 3.02M82.25 151.51l-3.02 2.66M261.33.28l-12.44 10.96M234.52 23.9l-3.43 3.02M82.25 158.04l-3.02 2.66M255.31 12.13l-3.02 2.66M268.76.28l-12.45 10.96M241.94 23.9l-3.42 3.02M82.25 164.58l-3.02 2.66M255.31 18.66l-3.02 2.66M276.18.28l-12.44 10.96M249.37 23.9l-3.43 3.02M163.37 99.66l-1.2 1.05M82.25 171.12l-3.02 2.66M283.6.28l-12.44 10.96M170.79 99.66l-3.44 3.03M255.31 25.2l-3.02 2.66M122.31 142.36l-1.71 1.51M74.06 184.87l-1.18 1.04M82.25 177.65l-3.02 2.66M291.03.28l-12.44 10.96M178.21 99.66l-3.44 3.03M255.31 31.74l-3.02 2.67M82.25 184.2l-4.19 3.69M129.74 142.36l-3.43 3.02M298.45.28l-12.44 10.96M255.31 38.28l-3.02 2.66M185.64 99.66l-3.44 3.03M137.16 142.36l-3.42 3.02M305.87.28l-12.45 10.96M255.31 44.82l-3.02 2.66M144.58 142.36l-3.43 3.02M313.29.28l-12.44 10.96M255.31 51.35l-3.02 2.66M152 142.36l-3.43 3.02M159.43 142.36l-3.43 3.02M255.31 57.9l-3.02 2.66M320.71.28l-12.44 10.96M153.29 147.77l-3.02 2.66M166.85 142.36l-3.43 3.02M321.91 5.77l-6.21 5.47M255.31 64.43l-3.02 2.67M153.29 154.31l-3.02 2.66M174.27 142.36l-3.42 3.02M222.75 99.66l-3.44 3.03M255.31 70.97l-3.02 2.66M153.29 160.84l-3.02 2.67M181.7 142.36l-3.43 3.02M230.17 99.66l-3.44 3.03M255.31 77.51l-3.02 2.66M153.29 167.38l-3.02 2.66M189.12 142.36l-3.43 3.02M237.59 99.66l-3.43 3.03M255.31 84.05l-3.02 2.66M153.29 173.93l-3.02 2.66M255.31 90.59l-3.02 2.66M245.01 99.66l-3.44 3.03M196.54 142.36l-3.43 3.02M153.29 180.46l-3.02 2.66M255.31 97.13l-6.32 5.56M153.29 187l-3.02 2.66M132.45 211.89l-4.85 4.28M153.29 193.54l-3.02 2.66M153.29 200.07l-3.02 2.66M139.88 211.89l-3.43 3.02M130.62 220.04l-3.02 2.66M153.29 206.62l-3.02 2.66M147.3 211.89l-3.42 3.02M130.62 226.59l-3.02 2.66M233.65 142.36l-3.42 3.02M153.29 213.15l-1.99 1.76M130.62 233.12l-3.02 2.66M241.07 142.36l-3.43 3.02M130.62 239.66l-3.02 2.66M248.49 142.36l-3.43 3.02M130.62 246.2l-3.02 2.66M255.92 142.36l-10.05 8.85M130.62 252.74l-3.02 2.66M256.83 148.1l-10.96 9.65M130.62 259.28l-3.02 2.66M256.83 154.63l-10.96 9.66M130.62 265.82l-3.02 2.66M256.83 161.17l-10.96 9.66M130.62 272.35l-3.02 2.66M256.83 167.71l-8.73 7.69M130.62 278.89l-3.02 2.67M256.83 174.25l-1.31 1.15M130.62 285.43l-3.02 2.66M130.62 291.97l-3.02 2.66M130.62 298.51l-3.02 2.66M130.62 305.04l-3.02 2.66M248.26 214.49l-2.39 2.11M255.68 214.49l-9.81 8.64M256.83 220.02l-10.96 9.65M256.83 226.56l-10.96 9.65M256.83 233.1l-10.96 9.65M256.83 239.63l-10.96 9.66M256.83 246.17l-10.96 9.66M256.83 252.71l-10.96 9.65M256.83 259.25l-10.96 9.65M256.83 265.79l-10.96 9.65M256.83 272.32l-10.96 9.66M256.83 278.86l-10.96 9.66M256.83 285.41l-10.96 9.65M256.83 291.94l-10.96 9.66M256.83 298.48l-10.96 9.65M256.83 305.02l-4.52 3.98"/><path d="M82.252 187.893h-9.825v-1.512h.454v-1.511h6.349v-72.929H43.9v11.338H11.214v-3.022h29.664v-8.315h-17.95V67.354h3.023v41.565h56.3v33.441h7.216v1.512h-.453v1.511h-6.762v42.51zm0-155.113h68.96v30.752h10.958V26.923h90.121v72.739h-36.01v1.511h-.454v1.512h39.486V11.242h-3.022V23.9h-68.014V11.242h137.636V.285H162.358V.25h-3.021v.034H82.253v3.022H132.7v18.516H82.253V32.78zm79.918-8.88V11.242h19.083V23.9zm83.7 285.1v-94.5h10.958V309zm0-133.6v-30.017h-16.176v-1.511h-.453v-1.512h27.584v33.04zm-47.611-33.04v1.512h-.459v1.511h-44.509v69.526h-22.672V309H127.6v-97.11h22.672v-66.5h-29.366v-1.511h-.453v-1.519h77.8zm-36.084-39.675v-3.023h26v1.511h.453v1.512zM45.222 187.893v-1.512h-.453v-1.511H11.214v3.023zM151.212 3.306v18.516h-15.493V3.306zm97.3-3.023h-3.022V.25h3.022z" stroke-miterlimit="22.926" stroke-width=".5" stroke="#020204" fill-rule="evenodd" fill="none"/></g></g><g id="sizes"><path class="cls-17" d="M28.899 34.921v24.357" id="LINE"/><path class="cls-17" d="M67.895 34.921v25.045" id="LINE-2" data-name="LINE"/><path class="cls-17" d="M28.899 34.921l1.461-1.462" id="LINE-3" data-name="LINE"/><path class="cls-17" d="M30.36 36.382l-1.461-1.461" id="LINE-4" data-name="LINE"/><path class="cls-17" d="M67.895 34.92H28.899" id="LINE-5" data-name="LINE"/><path d="M39.442 31.349h-1.4v-8.422l-1.415.868v-1.442l1.415-.944h1.4zM44.1 31.349h-1.4v-8.422l-1.415.868v-1.442l1.415-.944h1.4zM47.074 30.706a2.862 2.862 0 01-.721-2.078v-4.519a2.852 2.852 0 01.725-2.082 3.391 3.391 0 014.228 0 2.859 2.859 0 01.721 2.085v4.519a2.559 2.559 0 01-2.837 2.823 2.816 2.816 0 01-2.116-.748zm3.207-.968a1.6 1.6 0 00.351-1.11v-4.519A1.607 1.607 0 0050.284 23a1.743 1.743 0 00-2.184 0 1.607 1.607 0 00-.348 1.111v4.519a1.6 1.6 0 00.351 1.11 1.731 1.731 0 002.182 0zM54.8 30.706a2.866 2.866 0 01-.72-2.078v-4.519a2.856 2.856 0 01.724-2.082 3.393 3.393 0 014.229 0 2.863 2.863 0 01.721 2.085v4.519a2.852 2.852 0 01-.725 2.081 3.379 3.379 0 01-4.229 0zm3.207-.968a1.59 1.59 0 00.352-1.11v-4.519A1.6 1.6 0 0058.008 23a1.742 1.742 0 00-2.187 0 1.6 1.6 0 00-.349 1.111v4.519a1.59 1.59 0 00.352 1.11 1.73 1.73 0 002.181 0z"/><path class="cls-17" d="M67.895 34.921l-1.461-1.462" id="LINE-6" data-name="LINE"/><path class="cls-17" d="M66.434 36.382l1.461-1.461" id="LINE-7" data-name="LINE"/><path class="cls-17" d="M82.253 38.493h68.989" id="LINE-8" data-name="LINE"/><path d="M106.115 51.212h-1.395V42.79l-1.415.868v-1.442l1.415-.944h1.395zM109.7 50.973a2.5 2.5 0 01-1.057-.967 2.79 2.79 0 01-.372-1.453v-.164a2.8 2.8 0 01.372-1.4 2.5 2.5 0 011-.991 2.176 2.176 0 01-.844-.83 2.242 2.242 0 01-.318-1.145v-.24a2.641 2.641 0 01.349-1.37 2.356 2.356 0 01.984-.916 3.516 3.516 0 012.953 0 2.364 2.364 0 01.985.916 2.65 2.65 0 01.348 1.37v.24a2.2 2.2 0 01-.325 1.155 2.155 2.155 0 01-.857.82 2.583 2.583 0 011.008.995 2.737 2.737 0 01.379 1.4v.164a2.79 2.79 0 01-.372 1.453 2.5 2.5 0 01-1.056.967 3.859 3.859 0 01-3.172 0zm2.44-1.19a1.384 1.384 0 00.572-.536 1.565 1.565 0 00.2-.8v-.1a1.573 1.573 0 00-.2-.8 1.386 1.386 0 00-.572-.537 2 2 0 00-1.709 0 1.378 1.378 0 00-.571.54 1.586 1.586 0 00-.2.806v.1a1.535 1.535 0 00.2.793 1.374 1.374 0 00.571.53 1.866 1.866 0 00.855.188 1.825 1.825 0 00.851-.184zm-.116-4.48a1.25 1.25 0 00.5-.517 1.626 1.626 0 00.178-.772v-.1a1.509 1.509 0 00-.178-.738 1.226 1.226 0 00-.5-.495 1.646 1.646 0 00-1.477 0 1.238 1.238 0 00-.5.495 1.523 1.523 0 00-.177.745v.1a1.6 1.6 0 00.177.763 1.271 1.271 0 00.5.513 1.6 1.6 0 001.477 0zM116.109 48.478l3.336-7.2h1.435l-3.253 7.122h4.873v1.291h-6.392zm4.286-3.111h1.36v5.852H120.4zM125.649 51.021a2.407 2.407 0 01-.951-.855 3.4 3.4 0 01-.488-1.347v-.007h1.39v.007a1.291 1.291 0 00.438.852 1.419 1.419 0 00.943.3 1.261 1.261 0 001.035-.448 1.939 1.939 0 00.366-1.261v-.834a1.93 1.93 0 00-.366-1.254 1.259 1.259 0 00-1.035-.449 1.315 1.315 0 00-.7.206 1.941 1.941 0 00-.588.574h-1.272v-5.233h5.066V42.6h-3.671v2.235a1.992 1.992 0 01.581-.328 1.922 1.922 0 01.656-.116 2.9 2.9 0 011.474.355 2.282 2.282 0 01.929 1.039 3.9 3.9 0 01.318 1.648v.834a3.788 3.788 0 01-.328 1.647 2.326 2.326 0 01-.957 1.043 3 3 0 01-1.511.358 2.931 2.931 0 01-1.329-.294z"/><path class="cls-17" d="M151.213 38.493l-1.461 1.461" id="LINE-9" data-name="LINE"/><path class="cls-17" d="M149.752 37.032l1.461 1.461" id="LINE-10" data-name="LINE"/><path class="cls-17" d="M82.253 38.493l1.461-1.461" id="LINE-11" data-name="LINE"/><path class="cls-17" d="M83.714 39.954l-1.461-1.461" id="LINE-12" data-name="LINE"/><path class="cls-17" d="M14.136 184.624v-61.428" id="LINE-13" data-name="LINE"/><path d="M26.855 171.678v1.394h-8.422l.868 1.415h-1.442l-.943-1.415v-1.394zM26.605 168.355a2.279 2.279 0 01-1.025.948 3.719 3.719 0 01-1.623.324h-.007a5.537 5.537 0 01-1.162-.13 6.8 6.8 0 01-1.2-.376 2.761 2.761 0 01-.2-.089l-.2-.095-4.279-2.161v-1.5l4.956 2.537-.246-.007a1.212 1.212 0 01-.5-.5 1.568 1.568 0 01-.178-.766 2.44 2.44 0 01.348-1.326 2.192 2.192 0 011.015-.841 4.052 4.052 0 011.6-.287h.006a3.791 3.791 0 011.641.325 2.29 2.29 0 011.039.949 3.347 3.347 0 010 3zm-1.4-2.519a1.73 1.73 0 00-1.169-.358h-.007a1.964 1.964 0 00-1.288.376 1.31 1.31 0 00-.455 1.073 1.131 1.131 0 00.458.964 2.129 2.129 0 001.292.341h.006a1.7 1.7 0 001.165-.359 1.473 1.473 0 000-2.037zM21.919 158.717l.247.007a1.029 1.029 0 01.461.515 2.082 2.082 0 01.147.818 2.193 2.193 0 01-.362 1.251 2.386 2.386 0 01-1.022.838 3.706 3.706 0 01-1.528.3h-.007a3.818 3.818 0 01-1.647-.324 2.288 2.288 0 01-1.039-.951 2.976 2.976 0 01-.356-1.5 2.922 2.922 0 01.362-1.5 2.323 2.323 0 011.053-.946 3.871 3.871 0 011.661-.326h.011a5.2 5.2 0 011.139.137 7.011 7.011 0 011.2.39l.182.082c.06.027.121.056.18.089l4.259 2.119v1.5zm-.861-.066a1.951 1.951 0 00-1.251-.358H19.8a1.856 1.856 0 00-1.216.358 1.419 1.419 0 000 2.037 1.851 1.851 0 001.223.36h.007a1.923 1.923 0 001.248-.36 1.394 1.394 0 000-2.037zM26.212 154.332a2.865 2.865 0 01-2.078.721h-4.518a2.843 2.843 0 110-5.674h4.518a2.559 2.559 0 012.824 2.837 2.812 2.812 0 01-.746 2.116zm-.966-3.207a1.6 1.6 0 00-1.112-.352h-4.518a1.6 1.6 0 00-1.111.349 1.743 1.743 0 000 2.188 1.6 1.6 0 001.111.348h4.518a1.6 1.6 0 001.112-.351 1.738 1.738 0 000-2.182z"/><path class="cls-17" d="M14.136 123.196l1.461 1.461" id="LINE-14" data-name="LINE"/><path class="cls-17" d="M12.675 124.657l1.461-1.461" id="LINE-15" data-name="LINE"/><path class="cls-17" d="M14.136 184.624l-1.461-1.461" id="LINE-16" data-name="LINE"/><path class="cls-17" d="M15.597 183.163l-1.461 1.461" id="LINE-17" data-name="LINE"/><path class="cls-17" d="M76.624 184.624v-72.698" id="LINE-18" data-name="LINE"/><path d="M75.163 165.436v1.394h-8.422l.868 1.415h-1.442l-.944-1.415v-1.394zM70.227 159.659l.246.007a1.029 1.029 0 01.462.516 2.077 2.077 0 01.147.817 2.189 2.189 0 01-.363 1.251 2.371 2.371 0 01-1.021.838 3.711 3.711 0 01-1.529.3h-.006a3.838 3.838 0 01-1.648-.324 2.3 2.3 0 01-1.039-.952 3 3 0 01-.355-1.5 2.932 2.932 0 01.362-1.5 2.328 2.328 0 011.053-.946 3.872 3.872 0 011.661-.325h.003a5.184 5.184 0 011.138.137 6.875 6.875 0 011.2.389c.059.028.12.055.181.082s.122.057.181.089l4.259 2.119v1.5zm-.861-.065a1.943 1.943 0 00-1.251-.359h-.007a1.853 1.853 0 00-1.217.359 1.419 1.419 0 000 2.037 1.857 1.857 0 001.224.359h.007a1.925 1.925 0 001.248-.359 1.394 1.394 0 000-2.037zM74.971 154.556a2.4 2.4 0 01-.854.951 3.4 3.4 0 01-1.347.493h-.007v-1.4h.007a1.3 1.3 0 00.852-.438 1.42 1.42 0 00.3-.943 1.259 1.259 0 00-.447-1.035 1.939 1.939 0 00-1.262-.367h-.834a1.924 1.924 0 00-1.254.367 1.26 1.26 0 00-.448 1.035 1.325 1.325 0 00.2.7 1.945 1.945 0 00.575.588v1.271h-5.229v-5.065h1.326v3.671h2.236a1.992 1.992 0 01-.328-.581 1.9 1.9 0 01-.117-.656 2.9 2.9 0 01.356-1.474 2.289 2.289 0 011.039-.93 3.9 3.9 0 011.647-.317h.834a3.775 3.775 0 011.648.328 2.326 2.326 0 011.043.957 3 3 0 01.358 1.511 2.918 2.918 0 01-.294 1.334zM74.52 147.652a2.861 2.861 0 01-2.078.721h-4.519a2.849 2.849 0 01-2.081-.725 3.39 3.39 0 010-4.228 2.861 2.861 0 012.085-.721h4.519a2.852 2.852 0 012.082.725 3.379 3.379 0 010 4.228zm-.967-3.207a1.6 1.6 0 00-1.111-.351h-4.519a1.6 1.6 0 00-1.11.348 1.74 1.74 0 000 2.188 1.6 1.6 0 001.11.349h4.519a1.6 1.6 0 001.111-.352 1.735 1.735 0 000-2.182z"/><path class="cls-17" d="M76.624 111.926l1.461 1.461" id="LINE-19" data-name="LINE"/><path class="cls-17" d="M75.163 113.387l1.461-1.461" id="LINE-20" data-name="LINE"/><path class="cls-17" d="M76.624 184.624l-1.461-1.461" id="LINE-21" data-name="LINE"/><path class="cls-17" d="M78.085 183.163l-1.461 1.461" id="LINE-22" data-name="LINE"/><path class="cls-17" d="M162.172 32.134h90.12" id="LINE-23" data-name="LINE"/><path d="M194.747 43.643l3.465-4.622a3.387 3.387 0 00.468-.823 2.169 2.169 0 00.168-.8v-.013a1.207 1.207 0 00-.348-.923 1.392 1.392 0 00-.992-.328 1.368 1.368 0 00-.984.359 1.629 1.629 0 00-.458 1.015v.007h-1.442v-.007a3.721 3.721 0 01.5-1.459 2.552 2.552 0 01.981-.923 2.924 2.924 0 011.388-.318 3.454 3.454 0 011.517.3 2.131 2.131 0 01.957.885 2.805 2.805 0 01.328 1.4v.007a3.1 3.1 0 01-.218 1.1 4.713 4.713 0 01-.609 1.107l-2.878 3.91h3.76v1.327h-5.6zM201.583 42.118l3.336-7.2h1.435l-3.254 7.118h4.874v1.292h-6.391zm4.286-3.11h1.36v5.851h-1.36zM211.741 44.853h-1.4v-8.422l-1.415.868v-1.443l1.415-.943h1.4zM215.436 44.661a2.4 2.4 0 01-.951-.854A3.4 3.4 0 01214 42.46v-.007h1.394v.007a1.3 1.3 0 00.438.852 1.418 1.418 0 00.943.3 1.261 1.261 0 001.035-.447 1.944 1.944 0 00.366-1.262v-.834a1.93 1.93 0 00-.366-1.254 1.261 1.261 0 00-1.035-.448 1.314 1.314 0 00-.7.205 1.953 1.953 0 00-.588.574h-1.272v-5.233h5.066v1.326h-3.671v2.236a2.018 2.018 0 01.581-.329 1.926 1.926 0 01.656-.116 2.889 2.889 0 011.474.356 2.289 2.289 0 01.93 1.039 3.915 3.915 0 01.317 1.647v.834a3.775 3.775 0 01-.328 1.648 2.331 2.331 0 01-.957 1.043 3 3 0 01-1.511.358 2.931 2.931 0 01-1.336-.294z"/><path class="cls-17" d="M252.292 32.134l-1.461 1.461" id="LINE-24" data-name="LINE"/><path class="cls-17" d="M250.831 30.673l1.461 1.461" id="LINE-25" data-name="LINE"/><path class="cls-17" d="M162.172 32.134l1.461-1.461" id="LINE-26" data-name="LINE"/><path class="cls-17" d="M163.633 33.595l-1.461-1.461" id="LINE-27" data-name="LINE"/><path class="cls-17" d="M251.196 142.192v-39.507" id="LINE-28" data-name="LINE"/><path d="M263.915 132.734v1.395h-8.422l.868 1.415h-1.442l-.944-1.415v-1.395zM263.272 129.758a2.867 2.867 0 01-2.078.721h-4.519a2.858 2.858 0 01-2.082-.725 3.393 3.393 0 010-4.229 2.863 2.863 0 012.085-.72h4.519a2.558 2.558 0 012.823 2.837 2.815 2.815 0 01-.748 2.116zm-.968-3.207a1.589 1.589 0 00-1.11-.352h-4.519a1.6 1.6 0 00-1.111.349 1.742 1.742 0 000 2.187 1.6 1.6 0 001.111.349h4.519a1.589 1.589 0 001.11-.352 1.73 1.73 0 000-2.181zM264.017 121.086l-.305.636a2.508 2.508 0 01-.88 1.022 3.191 3.191 0 01-1.392.488v-1.421a1.5 1.5 0 00.7-.267 1.236 1.236 0 00.407-.53 2.011 2.011 0 00.133-.762 1.483 1.483 0 00-.369-1.073 1.376 1.376 0 00-1.039-.383h-.3a1.678 1.678 0 00-1.152.362 1.3 1.3 0 00-.406 1.026v.7h-1.326v-.7a1.168 1.168 0 00-.349-.9 1.4 1.4 0 00-.984-.321h-.308a1.187 1.187 0 00-.909.339 1.337 1.337 0 00-.322.96 1.477 1.477 0 00.133.636 1.236 1.236 0 00.41.474 1.858 1.858 0 00.695.284v1.415a3.622 3.622 0 01-1.395-.515 2.549 2.549 0 01-.882-.961 2.855 2.855 0 01-.3-1.333 2.754 2.754 0 01.676-1.989 2.521 2.521 0 011.908-.7h.164a2.145 2.145 0 011.3.4 2.265 2.265 0 01.807 1.141 2.018 2.018 0 01.8-1.26 2.645 2.645 0 011.586-.449h.164a3.063 3.063 0 011.483.335 2.214 2.214 0 01.937.975 3.4 3.4 0 01.321 1.541zM263.272 114.7a2.862 2.862 0 01-2.078.721h-4.519a2.853 2.853 0 01-2.082-.725 3.391 3.391 0 010-4.228 2.859 2.859 0 012.085-.721h4.519a2.559 2.559 0 012.823 2.837 2.812 2.812 0 01-.748 2.116zm-.968-3.207a1.593 1.593 0 00-1.11-.351h-4.519a1.608 1.608 0 00-1.111.348 1.743 1.743 0 000 2.188 1.608 1.608 0 001.111.348h4.519a1.593 1.593 0 001.11-.351 1.731 1.731 0 000-2.182z"/><path class="cls-17" d="M251.196 102.685l1.461 1.461" id="LINE-29" data-name="LINE"/><path class="cls-17" d="M249.734 104.146l1.462-1.461" id="LINE-30" data-name="LINE"/><path class="cls-17" d="M251.196 142.192l-1.462-1.461" id="LINE-31" data-name="LINE"/><path class="cls-17" d="M252.657 140.731l-1.461 1.461" id="LINE-32" data-name="LINE"/><path class="cls-17" d="M145.285 142.192V32.759" id="LINE-33" data-name="LINE"/><path d="M140.544 101.61l-4.622-3.465a3.387 3.387 0 00-.823-.468 2.169 2.169 0 00-.8-.168h-.013a1.207 1.207 0 00-.923.348 1.392 1.392 0 00-.328.992 1.368 1.368 0 00.359.984 1.629 1.629 0 001.015.458h.007v1.442h-.007a3.721 3.721 0 01-1.459-.5 2.552 2.552 0 01-.923-.981 2.924 2.924 0 01-.319-1.388 3.454 3.454 0 01.3-1.517 2.131 2.131 0 01.885-.957 2.805 2.805 0 011.4-.328h.007a3.1 3.1 0 011.1.218 4.713 4.713 0 011.107.609l3.91 2.878v-3.76h1.326v5.605zM141.514 92.9a2.5 2.5 0 01-.967 1.057 2.788 2.788 0 01-1.453.372h-.164a2.8 2.8 0 01-1.4-.372 2.489 2.489 0 01-.991-1 2.193 2.193 0 01-.83.845 2.247 2.247 0 01-1.146.317h-.239a2.636 2.636 0 01-1.37-.349 2.343 2.343 0 01-.916-.984 3.507 3.507 0 010-2.953 2.352 2.352 0 01.916-.985 2.645 2.645 0 011.37-.348h.239a2.2 2.2 0 011.155.325 2.158 2.158 0 01.821.857 2.573 2.573 0 01.995-1.007 2.722 2.722 0 011.4-.38h.164a2.788 2.788 0 011.453.372 2.494 2.494 0 01.967 1.056 3.848 3.848 0 010 3.172zm-5.67-2.324a1.254 1.254 0 00-.516-.5 1.63 1.63 0 00-.773-.178h-.095a1.51 1.51 0 00-.739.178 1.226 1.226 0 00-.5.5 1.646 1.646 0 000 1.477 1.226 1.226 0 00.5.5 1.523 1.523 0 00.745.177h.1a1.6 1.6 0 00.763-.177 1.262 1.262 0 00.512-.5 1.6 1.6 0 000-1.477zm4.481-.116a1.382 1.382 0 00-.536-.571 1.558 1.558 0 00-.8-.2h-.1a1.567 1.567 0 00-.8.2 1.384 1.384 0 00-.537.571 2.007 2.007 0 000 1.709 1.384 1.384 0 00.54.571 1.59 1.59 0 00.807.2h.1a1.532 1.532 0 00.793-.2 1.37 1.37 0 00.531-.571 1.863 1.863 0 00.187-.855 1.825 1.825 0 00-.185-.853zM136.818 82.832l.246.007a1.031 1.031 0 01.462.515 2.083 2.083 0 01.146.818 2.191 2.191 0 01-.362 1.251 2.371 2.371 0 01-1.021.838 3.714 3.714 0 01-1.529.3h-.007a3.821 3.821 0 01-1.647-.325 2.288 2.288 0 01-1.039-.951 3 3 0 01-.356-1.5 2.933 2.933 0 01.363-1.5 2.328 2.328 0 011.053-.946 3.869 3.869 0 011.661-.325h.006a5.243 5.243 0 011.139.136 6.955 6.955 0 011.2.39l.182.082c.062.027.122.057.181.089l4.258 2.119v1.5zm-.861-.065a1.943 1.943 0 00-1.251-.359h-.006a1.852 1.852 0 00-1.217.359 1.419 1.419 0 000 2.037 1.857 1.857 0 001.224.359h.006a1.921 1.921 0 001.248-.359 1.393 1.393 0 000-2.037zM141.111 78.447a2.862 2.862 0 01-2.078.721h-4.519a2.849 2.849 0 01-2.081-.725 3.39 3.39 0 010-4.228 2.859 2.859 0 012.085-.721h4.519a2.852 2.852 0 012.082.725 3.379 3.379 0 010 4.228zm-.967-3.207a1.6 1.6 0 00-1.111-.351h-4.519a1.6 1.6 0 00-1.11.348 1.74 1.74 0 000 2.188 1.6 1.6 0 001.11.348h4.519a1.6 1.6 0 001.111-.351 1.735 1.735 0 000-2.182z"/><path class="cls-17" d="M145.285 32.759l1.461 1.461" id="LINE-34" data-name="LINE"/><path class="cls-17" d="M143.823 34.22l1.462-1.461" id="LINE-35" data-name="LINE"/><path class="cls-17" d="M145.285 142.192l-1.462-1.461" id="LINE-36" data-name="LINE"/><path class="cls-17" d="M146.746 140.731l-1.461 1.461" id="LINE-37" data-name="LINE"/><path class="cls-17" d="M245.955 99.767V26.923" id="LINE-38" data-name="LINE"/><path d="M242.757 73.36v1.395h-8.422l.869 1.415h-1.443l-.943-1.415V73.36zM237.822 67.584l.246.007a1.031 1.031 0 01.462.515 2.1 2.1 0 01.146.818 2.193 2.193 0 01-.362 1.251 2.378 2.378 0 01-1.021.838 3.714 3.714 0 01-1.529.3h-.007a3.821 3.821 0 01-1.647-.325 2.288 2.288 0 01-1.039-.951 3 3 0 01-.356-1.5 2.923 2.923 0 01.363-1.5 2.326 2.326 0 011.052-.946 3.876 3.876 0 011.662-.325h.006a5.243 5.243 0 011.139.136 6.955 6.955 0 011.2.39l.182.082c.061.027.122.057.181.089l4.258 2.119v1.5zm-.862-.065a1.939 1.939 0 00-1.25-.359h-.01a1.852 1.852 0 00-1.217.359 1.419 1.419 0 000 2.037 1.857 1.857 0 001.224.359h.006a1.925 1.925 0 001.248-.359 1.392 1.392 0 000-2.037zM240.023 64.6l-7.2-3.336v-1.432l7.116 3.254v-4.874h1.292V64.6zm-3.11-4.287v-1.36h5.851v1.36zM242.566 55.063a2.4 2.4 0 01-.855.952 3.4 3.4 0 01-1.346.488h-.007v-1.4h.007a1.29 1.29 0 00.851-.437 1.415 1.415 0 00.3-.943 1.263 1.263 0 00-.447-1.036 1.944 1.944 0 00-1.262-.366h-.834a1.93 1.93 0 00-1.254.366 1.261 1.261 0 00-.448 1.036 1.316 1.316 0 00.2.7 1.964 1.964 0 00.574.588v1.271h-5.236v-5.063h1.326v3.671h2.235a2.028 2.028 0 01-.328-.581 1.927 1.927 0 01-.116-.657 2.885 2.885 0 01.356-1.473 2.284 2.284 0 011.039-.93 3.9 3.9 0 011.647-.317h.834a3.778 3.778 0 011.648.328 2.331 2.331 0 011.043.957 3 3 0 01.358 1.511 2.924 2.924 0 01-.285 1.335z"/><path class="cls-17" d="M245.955 26.923l1.462 1.461" id="LINE-39" data-name="LINE"/><path class="cls-17" d="M244.494 28.384l1.461-1.461" id="LINE-40" data-name="LINE"/><path class="cls-17" d="M245.955 99.662l-1.461-1.461" id="LINE-41" data-name="LINE"/><path class="cls-17" d="M247.417 98.201l-1.462 1.461" id="LINE-42" data-name="LINE"/><path class="cls-17" d="M145.933 211.887v-66.503" id="LINE-43" data-name="LINE"/><path d="M142.735 188.861v1.4h-8.422l.868 1.415h-1.442l-.944-1.415v-1.4zM134.04 181.472l8.7 2.57v1.483l-8.613-2.57v2.529h1.428v1.395H132.8v-5.407zM142.5 178.231a2.511 2.511 0 01-.968 1.057 2.786 2.786 0 01-1.452.372h-.164a2.8 2.8 0 01-1.4-.372 2.5 2.5 0 01-.991-1 2.182 2.182 0 01-.831.845 2.24 2.24 0 01-1.144.317h-.24a2.647 2.647 0 01-1.371-.349 2.369 2.369 0 01-.916-.984 3.526 3.526 0 010-2.953 2.369 2.369 0 01.916-.984 2.647 2.647 0 011.371-.349h.24a2.2 2.2 0 011.155.325 2.165 2.165 0 01.82.858 2.58 2.58 0 01.994-1.008 2.732 2.732 0 011.4-.38h.164a2.786 2.786 0 011.452.372 2.511 2.511 0 01.968 1.057 3.856 3.856 0 010 3.171zm-5.671-2.324a1.248 1.248 0 00-.516-.5 1.631 1.631 0 00-.772-.178h-.1a1.5 1.5 0 00-.738.178 1.222 1.222 0 00-.5.5 1.654 1.654 0 000 1.477 1.222 1.222 0 00.5.5 1.517 1.517 0 00.745.178h.1a1.593 1.593 0 00.762-.178 1.246 1.246 0 00.513-.5 1.6 1.6 0 000-1.477zm4.481-.116a1.378 1.378 0 00-.537-.571 1.549 1.549 0 00-.8-.2h-.1a1.567 1.567 0 00-.8.2 1.376 1.376 0 00-.536.571 2 2 0 000 1.709 1.366 1.366 0 00.54.571 1.583 1.583 0 00.806.2h.1a1.538 1.538 0 00.793-.2 1.366 1.366 0 00.529-.571 2.012 2.012 0 000-1.709zM142.092 170.962a2.867 2.867 0 01-2.078.721H135.5a2.854 2.854 0 01-2.082-.725 3.389 3.389 0 010-4.229 2.86 2.86 0 012.085-.72h4.518a2.558 2.558 0 012.823 2.837 2.819 2.819 0 01-.752 2.116zm-.967-3.207a1.6 1.6 0 00-1.111-.352H135.5a1.608 1.608 0 00-1.112.349 1.745 1.745 0 000 2.187 1.6 1.6 0 001.112.349h4.518a1.6 1.6 0 001.111-.351 1.735 1.735 0 000-2.182z"/><path class="cls-17" d="M145.933 145.384l1.461 1.461" id="LINE-44" data-name="LINE"/><path class="cls-17" d="M144.471 146.845l1.462-1.461" id="LINE-45" data-name="LINE"/><path class="cls-17" d="M145.933 211.887l-1.462-1.461" id="LINE-46" data-name="LINE"/><path class="cls-17" d="M147.394 210.426l-1.461 1.461" id="LINE-47" data-name="LINE"/><path class="cls-17" d="M87.928 108.919V67.425" id="LINE-48" data-name="LINE"/><path d="M100.647 96.915v1.395h-8.422l.868 1.415h-1.442l-.943-1.415v-1.395zM100.647 92.26v1.394h-8.422l.868 1.415h-1.442l-.943-1.415V92.26zM100.75 88.268l-.3.635a2.516 2.516 0 01-.882 1.023 3.187 3.187 0 01-1.392.488v-1.422a1.5 1.5 0 00.7-.266 1.241 1.241 0 00.407-.531 1.987 1.987 0 00.133-.761 1.485 1.485 0 00-.369-1.074A1.377 1.377 0 0098 85.978h-.3a1.678 1.678 0 00-1.152.362 1.3 1.3 0 00-.407 1.025v.7h-1.325v-.7a1.163 1.163 0 00-.349-.9 1.4 1.4 0 00-.984-.321h-.308a1.194 1.194 0 00-.909.338 1.339 1.339 0 00-.321.96 1.456 1.456 0 00.134.636 1.207 1.207 0 00.41.475 1.864 1.864 0 00.693.284v1.413a3.627 3.627 0 01-1.394-.516 2.534 2.534 0 01-.882-.961 2.865 2.865 0 01-.3-1.333 2.757 2.757 0 01.677-1.989 2.519 2.519 0 011.907-.7h.164a2.152 2.152 0 011.3.4 2.278 2.278 0 01.807 1.142 2.026 2.026 0 01.8-1.261 2.647 2.647 0 011.586-.448h.164a3.055 3.055 0 011.484.335 2.212 2.212 0 01.936.975 3.383 3.383 0 01.322 1.541zM100.456 81.161a2.407 2.407 0 01-.855.951 3.4 3.4 0 01-1.347.489h-.006v-1.395h.006a1.294 1.294 0 00.852-.437 1.423 1.423 0 00.3-.944 1.261 1.261 0 00-.448-1.035 1.939 1.939 0 00-1.261-.366h-.834a1.93 1.93 0 00-1.254.366 1.259 1.259 0 00-.448 1.035 1.314 1.314 0 00.2.7 1.941 1.941 0 00.574.588v1.272h-5.227v-5.069h1.326v3.671h2.235a1.992 1.992 0 01-.328-.581 1.922 1.922 0 01-.116-.656 2.9 2.9 0 01.355-1.474 2.292 2.292 0 011.039-.929 3.9 3.9 0 011.648-.318h.833a3.788 3.788 0 011.647.328 2.332 2.332 0 011.043.957 3 3 0 01.359 1.511 2.931 2.931 0 01-.293 1.336z"/><path class="cls-17" d="M87.928 67.425l1.461 1.461" id="LINE-49" data-name="LINE"/><path class="cls-17" d="M86.467 68.886l1.461-1.461" id="LINE-50" data-name="LINE"/><path class="cls-17" d="M87.928 108.919l-1.461-1.461" id="LINE-51" data-name="LINE"/><path class="cls-17" d="M89.389 107.458l-1.461 1.461" id="LINE-52" data-name="LINE"/><path class="cls-17" d="M82.253 108.919h9.407M82.253 67.425h9.407"/><path class="cls-17" d="M82.284 195.515h67.984" id="LINE-53" data-name="LINE"/><path d="M105.958 207.5h-1.395v-8.422l-1.415.867v-1.441l1.415-.944h1.395zM109.54 207.263a2.5 2.5 0 01-1.057-.967 2.788 2.788 0 01-.372-1.453v-.164a2.8 2.8 0 01.372-1.4 2.5 2.5 0 01.995-.992 2.179 2.179 0 01-.845-.83 2.24 2.24 0 01-.317-1.144v-.241a2.641 2.641 0 01.349-1.37 2.362 2.362 0 01.984-.916 3.516 3.516 0 012.953 0 2.362 2.362 0 01.984.916 2.641 2.641 0 01.349 1.37v.241a2.2 2.2 0 01-.325 1.154 2.151 2.151 0 01-.858.82 2.589 2.589 0 011.008 1 2.728 2.728 0 01.38 1.4v.164a2.788 2.788 0 01-.372 1.453 2.5 2.5 0 01-1.057.967 3.856 3.856 0 01-3.171 0zm2.44-1.19a1.376 1.376 0 00.571-.536 1.549 1.549 0 00.2-.8v-.1a1.566 1.566 0 00-.2-.8 1.376 1.376 0 00-.571-.536 2 2 0 00-1.709 0 1.37 1.37 0 00-.571.539 1.586 1.586 0 00-.2.806v.1a1.538 1.538 0 00.2.793 1.372 1.372 0 00.571.529 1.863 1.863 0 00.855.188 1.825 1.825 0 00.854-.183zm-.116-4.48a1.254 1.254 0 00.5-.516 1.63 1.63 0 00.178-.773v-.1a1.509 1.509 0 00-.178-.738 1.226 1.226 0 00-.5-.5 1.646 1.646 0 00-1.477 0 1.226 1.226 0 00-.5.5 1.524 1.524 0 00-.178.746v.1a1.6 1.6 0 00.178.763 1.252 1.252 0 00.5.513 1.6 1.6 0 001.477 0zM115.938 206.292l3.466-4.621a3.474 3.474 0 00.468-.823 2.185 2.185 0 00.168-.8v-.014a1.211 1.211 0 00-.349-.924 1.394 1.394 0 00-.991-.328 1.366 1.366 0 00-.985.36 1.631 1.631 0 00-.458 1.015v.006h-1.442v-.006a3.726 3.726 0 01.5-1.46 2.566 2.566 0 01.981-.923 2.93 2.93 0 011.388-.318 3.456 3.456 0 011.518.3 2.145 2.145 0 01.957.884 2.824 2.824 0 01.328 1.4v.006a3.088 3.088 0 01-.219 1.1 4.734 4.734 0 01-.608 1.108l-2.878 3.91h3.76v1.336h-5.606zM124.042 206.86a2.862 2.862 0 01-.721-2.078v-4.519a2.853 2.853 0 01.724-2.081 3.389 3.389 0 014.229 0 2.859 2.859 0 01.721 2.084v4.519a2.854 2.854 0 01-.725 2.081 3.381 3.381 0 01-4.228 0zm3.207-.967a1.6 1.6 0 00.351-1.111v-4.519a1.6 1.6 0 00-.348-1.111 1.747 1.747 0 00-2.188 0 1.605 1.605 0 00-.349 1.111v4.519a1.6 1.6 0 00.352 1.111 1.738 1.738 0 002.182 0z"/><path class="cls-17" d="M150.268 195.515l-1.461 1.461" id="LINE-54" data-name="LINE"/><path class="cls-17" d="M148.807 194.053l1.461 1.462" id="LINE-55" data-name="LINE"/><path class="cls-17" d="M82.284 195.515l1.461-1.462" id="LINE-56" data-name="LINE"/><path class="cls-17" d="M83.745 196.976l-1.461-1.461" id="LINE-57" data-name="LINE"/><path class="cls-17" d="M82.284 187.891v10.875M150.334 189.839v8.927"/><path class="cls-17" d="M120.227 211.887v97.031" id="LINE-58" data-name="LINE"/><path d="M115.538 274.358l-4.621-3.465a3.417 3.417 0 00-.825-.468 2.156 2.156 0 00-.8-.168h-.013a1.207 1.207 0 00-.923.348 1.392 1.392 0 00-.328.992 1.368 1.368 0 00.358.984 1.631 1.631 0 001.016.458h.007v1.442h-.007a3.72 3.72 0 01-1.46-.5 2.559 2.559 0 01-.923-.981 2.924 2.924 0 01-.317-1.388 3.469 3.469 0 01.3-1.517 2.133 2.133 0 01.886-.957 2.805 2.805 0 011.4-.328h.007a3.108 3.108 0 011.1.218 4.713 4.713 0 011.107.609l3.91 2.878v-3.76h1.327v5.605zM116.556 265.536a2.412 2.412 0 01-.854.951 3.417 3.417 0 01-1.347.489h-.007v-1.395h.007a1.3 1.3 0 00.851-.437 1.418 1.418 0 00.3-.944 1.259 1.259 0 00-.448-1.035 1.941 1.941 0 00-1.261-.366h-.834a1.933 1.933 0 00-1.255.366 1.264 1.264 0 00-.447 1.035 1.323 1.323 0 00.2.7 1.953 1.953 0 00.574.588v1.272h-5.236v-5.066h1.326v3.671h2.236a1.947 1.947 0 01-.328-.581 1.876 1.876 0 01-.117-.656 2.891 2.891 0 01.356-1.474 2.277 2.277 0 011.039-.929 3.9 3.9 0 011.647-.318h.834a3.792 3.792 0 011.648.328 2.334 2.334 0 011.042.957 3 3 0 01.359 1.511 2.931 2.931 0 01-.285 1.333zM111.812 255.833l.246.007a1.029 1.029 0 01.461.515 2.064 2.064 0 01.148.818 2.2 2.2 0 01-.363 1.251 2.381 2.381 0 01-1.022.838 3.706 3.706 0 01-1.528.3h-.006a3.819 3.819 0 01-1.648-.325 2.278 2.278 0 01-1.039-.951 2.986 2.986 0 01-.355-1.5 2.922 2.922 0 01.362-1.5 2.318 2.318 0 011.053-.946 3.865 3.865 0 011.661-.325h.007a5.233 5.233 0 011.137.136 6.975 6.975 0 011.2.39l.18.082c.062.027.122.057.182.089l4.259 2.119v1.5zm-.861-.065a1.947 1.947 0 00-1.251-.359h-.007a1.852 1.852 0 00-1.217.359 1.419 1.419 0 000 2.037 1.856 1.856 0 001.224.359h.007a1.924 1.924 0 001.247-.359 1.393 1.393 0 000-2.037zM116.556 250.729a2.414 2.414 0 01-.854.952 3.416 3.416 0 01-1.347.488h-.007v-1.4h.007a1.292 1.292 0 00.851-.437 1.415 1.415 0 00.3-.943 1.261 1.261 0 00-.448-1.036 1.941 1.941 0 00-1.261-.366h-.834a1.933 1.933 0 00-1.255.366 1.266 1.266 0 00-.447 1.036 1.325 1.325 0 00.2.7 1.964 1.964 0 00.574.588v1.271h-5.236v-5.065h1.326v3.671h2.236a1.96 1.96 0 01-.328-.581 1.881 1.881 0 01-.117-.657 2.885 2.885 0 01.356-1.473 2.274 2.274 0 011.039-.93 3.9 3.9 0 011.647-.317h.834a3.778 3.778 0 011.648.328 2.329 2.329 0 011.042.957 3 3 0 01.359 1.511 2.924 2.924 0 01-.285 1.337z"/><path class="cls-17" d="M120.227 308.834l-1.461-1.461" id="LINE-59" data-name="LINE"/><path class="cls-17" d="M121.688 307.373l-1.461 1.461" id="LINE-60" data-name="LINE"/><path class="cls-17" d="M120.227 211.887l1.461 1.461" id="LINE-61" data-name="LINE"/><path class="cls-17" d="M118.766 213.348l1.461-1.461" id="LINE-62" data-name="LINE"/><path class="cls-17" d="M127.85 211.887h-10.874M125.902 308.998h-8.926"/><path class="cls-17" d="M44.039 119.956h35.226" id="LINE-63" data-name="LINE"/><path d="M54.984 127.739l-.007.246a1.024 1.024 0 01-.516.462 2.074 2.074 0 01-.817.147 2.182 2.182 0 01-1.251-.363 2.371 2.371 0 01-.838-1.021 3.706 3.706 0 01-.3-1.528v-.007a3.823 3.823 0 01.325-1.648 2.293 2.293 0 01.951-1.039 3 3 0 011.5-.355 2.932 2.932 0 011.5.362 2.328 2.328 0 01.946 1.053 3.872 3.872 0 01.325 1.661v.007a5.241 5.241 0 01-.136 1.138 6.965 6.965 0 01-.39 1.2l-.082.181a2.527 2.527 0 01-.089.181l-2.119 4.259h-1.5zm.065-.861a1.943 1.943 0 00.359-1.251v-.007a1.853 1.853 0 00-.359-1.217 1.421 1.421 0 00-2.037 0 1.859 1.859 0 00-.359 1.224v.007a1.925 1.925 0 00.359 1.248 1.394 1.394 0 002.037 0zM60.087 132.483a2.4 2.4 0 01-.951-.854 3.4 3.4 0 01-.488-1.347v-.007h1.395v.007a1.292 1.292 0 00.437.852 1.42 1.42 0 00.943.3 1.263 1.263 0 001.036-.447 1.943 1.943 0 00.366-1.261v-.826a1.926 1.926 0 00-.366-1.254 1.261 1.261 0 00-1.036-.449 1.325 1.325 0 00-.7.205 1.957 1.957 0 00-.588.575h-1.268v-5.237h5.065v1.327h-3.671v2.233a1.992 1.992 0 01.581-.328 1.927 1.927 0 01.657-.116 2.9 2.9 0 011.473.355 2.289 2.289 0 01.93 1.039 3.9 3.9 0 01.317 1.648v.834a3.773 3.773 0 01-.328 1.647 2.326 2.326 0 01-.957 1.043 3 3 0 01-1.511.358 2.918 2.918 0 01-1.336-.297zM67.71 132.483a2.4 2.4 0 01-.952-.854 3.4 3.4 0 01-.488-1.347v-.007h1.4v.007a1.292 1.292 0 00.437.852 1.42 1.42 0 00.943.3 1.263 1.263 0 001.036-.447 1.943 1.943 0 00.366-1.261v-.826a1.926 1.926 0 00-.366-1.254 1.261 1.261 0 00-1.036-.449 1.325 1.325 0 00-.7.205 1.968 1.968 0 00-.588.575h-1.273v-5.237h5.065v1.327h-3.671v2.233a2 2 0 01.581-.328 1.927 1.927 0 01.657-.116 2.9 2.9 0 011.473.355 2.284 2.284 0 01.93 1.039 3.9 3.9 0 01.317 1.648v.834a3.773 3.773 0 01-.328 1.647 2.326 2.326 0 01-.957 1.043 3 3 0 01-1.511.358 2.911 2.911 0 01-1.335-.297z"/><path class="cls-17" d="M79.326 119.956l-1.461 1.461" id="LINE-64" data-name="LINE"/><path class="cls-17" d="M77.865 118.495l1.461 1.461" id="LINE-65" data-name="LINE"/><path class="cls-17" d="M44.039 119.956l1.461-1.461" id="LINE-66" data-name="LINE"/><path class="cls-17" d="M45.5 121.417l-1.461-1.461" id="LINE-67" data-name="LINE"/><path class="cls-17" d="M158.949 214.959v-69.575" id="LINE-68" data-name="LINE"/><path d="M171.669 190.812v1.395h-8.422l.868 1.415h-1.443l-.943-1.415v-1.395zM171.429 187.23a2.5 2.5 0 01-.968 1.057 2.786 2.786 0 01-1.452.372h-.164a2.793 2.793 0 01-1.4-.372 2.483 2.483 0 01-.991-1 2.188 2.188 0 01-.831.845 2.246 2.246 0 01-1.145.317h-.239a2.642 2.642 0 01-1.371-.349 2.362 2.362 0 01-.916-.984 3.526 3.526 0 010-2.953 2.362 2.362 0 01.916-.984 2.642 2.642 0 011.371-.349h.239a2.2 2.2 0 011.155.325 2.168 2.168 0 01.821.858 2.567 2.567 0 01.994-1.008 2.726 2.726 0 011.4-.38h.164a2.786 2.786 0 011.452.372 2.5 2.5 0 01.968 1.057 3.846 3.846 0 010 3.171zm-5.671-2.324a1.251 1.251 0 00-.515-.5 1.635 1.635 0 00-.773-.178h-.095a1.5 1.5 0 00-.739.178 1.222 1.222 0 00-.5.5 1.654 1.654 0 000 1.477 1.222 1.222 0 00.5.5 1.517 1.517 0 00.745.178h.1a1.593 1.593 0 00.762-.178 1.25 1.25 0 00.512-.5 1.589 1.589 0 000-1.477zm4.482-.116a1.39 1.39 0 00-.537-.571 1.551 1.551 0 00-.8-.2h-.1a1.571 1.571 0 00-.8.2 1.388 1.388 0 00-.536.571 2.007 2.007 0 000 1.709 1.372 1.372 0 00.54.571 1.587 1.587 0 00.807.2h.1a1.535 1.535 0 00.793-.2 1.362 1.362 0 00.53-.571 2.021 2.021 0 000-1.709zM171.429 179.355a2.5 2.5 0 01-.968 1.057 2.786 2.786 0 01-1.452.372h-.164a2.793 2.793 0 01-1.4-.372 2.483 2.483 0 01-.991-1 2.188 2.188 0 01-.831.845 2.246 2.246 0 01-1.145.317h-.239a2.642 2.642 0 01-1.371-.349 2.362 2.362 0 01-.916-.984 3.526 3.526 0 010-2.953 2.362 2.362 0 01.916-.984 2.642 2.642 0 011.371-.349h.239a2.2 2.2 0 011.155.325 2.168 2.168 0 01.821.858 2.567 2.567 0 01.994-1.008 2.726 2.726 0 011.4-.38h.164a2.786 2.786 0 011.452.372 2.5 2.5 0 01.968 1.057 3.846 3.846 0 010 3.171zm-5.671-2.324a1.251 1.251 0 00-.515-.5 1.635 1.635 0 00-.773-.178h-.095a1.5 1.5 0 00-.739.178 1.222 1.222 0 00-.5.5 1.654 1.654 0 000 1.477 1.222 1.222 0 00.5.5 1.517 1.517 0 00.745.178h.1a1.593 1.593 0 00.762-.178 1.25 1.25 0 00.512-.5 1.589 1.589 0 000-1.477zm4.482-.116a1.39 1.39 0 00-.537-.571 1.551 1.551 0 00-.8-.2h-.1a1.571 1.571 0 00-.8.2 1.388 1.388 0 00-.536.571 2.007 2.007 0 000 1.709 1.372 1.372 0 00.54.571 1.587 1.587 0 00.807.2h.1a1.535 1.535 0 00.793-.2 1.362 1.362 0 00.53-.571 2.021 2.021 0 000-1.709zM171.026 172.086a2.868 2.868 0 01-2.078.721h-4.519a2.856 2.856 0 01-2.082-.725 3.391 3.391 0 010-4.228 2.858 2.858 0 012.085-.721h4.519a2.853 2.853 0 012.081.724 3.379 3.379 0 010 4.229zm-.968-3.207a1.6 1.6 0 00-1.11-.352h-4.519a1.607 1.607 0 00-1.111.349 1.742 1.742 0 000 2.187 1.6 1.6 0 001.111.349h4.519a1.6 1.6 0 001.11-.351 1.731 1.731 0 000-2.182z"/><path class="cls-17" d="M158.949 145.384l1.461 1.461" id="LINE-69" data-name="LINE"/><path class="cls-17" d="M157.488 146.845l1.461-1.461" id="LINE-70" data-name="LINE"/><path class="cls-17" d="M158.949 214.959l-1.461-1.461" id="LINE-71" data-name="LINE"/><path class="cls-17" d="M160.41 213.498l-1.461 1.461" id="LINE-72" data-name="LINE"/><path class="cls-17" d="M153.274 214.959h9.407M153.274 145.384h9.407"/><path class="cls-17" d="M26.261 104.087h55.992" id="LINE-73" data-name="LINE"/><path d="M45.352 100.706h-1.394v-8.422l-1.415.868V91.71l1.415-.943h1.394zM49.047 100.515a2.413 2.413 0 01-.951-.855 3.41 3.41 0 01-.488-1.347v-.006H49v.006a1.3 1.3 0 00.438.852 1.42 1.42 0 00.943.3 1.264 1.264 0 001.036-.448 1.941 1.941 0 00.366-1.261v-.834a1.933 1.933 0 00-.366-1.255 1.263 1.263 0 00-1.036-.447 1.316 1.316 0 00-.7.2 1.941 1.941 0 00-.581.58h-1.273v-5.233h5.065v1.326h-3.671v2.235A1.969 1.969 0 0149.8 94a1.927 1.927 0 01.657-.116 2.9 2.9 0 011.473.355 2.289 2.289 0 01.93 1.039 3.9 3.9 0 01.317 1.648v.834a3.773 3.773 0 01-.328 1.647 2.336 2.336 0 01-.957 1.043 3.014 3.014 0 01-1.511.359 2.944 2.944 0 01-1.334-.294zM57.629 100.706h-1.394v-8.422l-1.415.868V91.71l1.415-.943h1.394zM60.606 100.063a2.865 2.865 0 01-.721-2.078v-4.518a2.85 2.85 0 01.725-2.081 3.39 3.39 0 014.228 0 2.858 2.858 0 01.721 2.085v4.518a2.856 2.856 0 01-.724 2.082 3.377 3.377 0 01-4.229 0zm3.207-.966a1.6 1.6 0 00.352-1.112v-4.518a1.6 1.6 0 00-.349-1.111 1.743 1.743 0 00-2.188 0 1.6 1.6 0 00-.348 1.111v4.518a1.6 1.6 0 00.351 1.112 1.738 1.738 0 002.182 0z"/><path class="cls-17" d="M82.253 104.087l-1.461 1.461" id="LINE-74" data-name="LINE"/><path class="cls-17" d="M80.792 102.626l1.461 1.461" id="LINE-75" data-name="LINE"/><path class="cls-17" d="M26.261 104.087l1.461-1.461" id="LINE-76" data-name="LINE"/><path class="cls-17" d="M27.722 105.548l-1.461-1.461" id="LINE-77" data-name="LINE"/><path class="cls-17" d="M82.253 100.706v8.875"/><path class="cls-17" d="M255.314 32.029h126.165" id="LINE-78" data-name="LINE"/><path d="M305.912 27.976l-.636-.3a2.5 2.5 0 01-1.023-.882 3.208 3.208 0 01-.488-1.391h1.422a1.5 1.5 0 00.267.7 1.238 1.238 0 00.53.406 1.992 1.992 0 00.762.134 1.483 1.483 0 001.073-.369 1.378 1.378 0 00.383-1.039v-.3a1.676 1.676 0 00-.363-1.153 1.3 1.3 0 00-1.025-.406h-.7v-1.334h.7a1.162 1.162 0 00.9-.349 1.4 1.4 0 00.322-.984V20.4a1.192 1.192 0 00-.339-.909 1.334 1.334 0 00-.96-.321 1.462 1.462 0 00-.636.133 1.214 1.214 0 00-.475.41 1.879 1.879 0 00-.284.694h-1.415a3.615 3.615 0 01.516-1.394 2.518 2.518 0 01.961-.882 2.855 2.855 0 011.333-.3 2.757 2.757 0 011.989.677 2.519 2.519 0 01.7 1.907v.164a2.154 2.154 0 01-.4 1.3 2.284 2.284 0 01-1.142.807 2.018 2.018 0 011.261.8 2.645 2.645 0 01.448 1.586v.164a3.058 3.058 0 01-.335 1.484 2.215 2.215 0 01-.974.936 3.4 3.4 0 01-1.541.322zM313.315 27.976l-.636-.3a2.5 2.5 0 01-1.022-.882 3.182 3.182 0 01-.488-1.391h1.421a1.5 1.5 0 00.267.7 1.244 1.244 0 00.53.406 1.992 1.992 0 00.762.134 1.483 1.483 0 001.073-.369 1.378 1.378 0 00.383-1.039v-.3a1.681 1.681 0 00-.362-1.153 1.3 1.3 0 00-1.026-.406h-.7v-1.334h.7a1.164 1.164 0 00.9-.349 1.4 1.4 0 00.321-.984V20.4a1.188 1.188 0 00-.339-.909 1.334 1.334 0 00-.96-.321 1.462 1.462 0 00-.636.133 1.211 1.211 0 00-.474.41 1.846 1.846 0 00-.284.694h-1.415a3.6 3.6 0 01.515-1.394 2.518 2.518 0 01.961-.882 2.855 2.855 0 011.333-.3 2.754 2.754 0 011.989.677 2.519 2.519 0 01.7 1.907v.164a2.148 2.148 0 01-.4 1.3 2.277 2.277 0 01-1.141.807 2.016 2.016 0 011.26.8A2.645 2.645 0 01317 25.07v.164a3.069 3.069 0 01-.335 1.484 2.218 2.218 0 01-.975.936 3.4 3.4 0 01-1.541.322zM318.845 25.139l3.336-7.2h1.436l-3.254 7.117h4.874v1.292h-6.392zm4.286-3.111h1.361v5.852h-1.361zM327.667 27.23a2.862 2.862 0 01-.721-2.078v-4.518a2.843 2.843 0 115.674 0v4.518a2.852 2.852 0 01-.725 2.081 3.374 3.374 0 01-4.228 0zm3.207-.967a1.6 1.6 0 00.351-1.111v-4.518a1.608 1.608 0 00-.348-1.112 1.747 1.747 0 00-2.188 0 1.608 1.608 0 00-.349 1.112v4.518a1.6 1.6 0 00.352 1.111 1.735 1.735 0 002.182 0z"/><path class="cls-17" d="M381.316 32.029l-1.461 1.461" id="LINE-79" data-name="LINE"/><path class="cls-17" d="M379.855 30.568l1.461 1.461" id="LINE-80" data-name="LINE"/><path class="cls-17" d="M255.314 32.028l1.461-1.461" id="LINE-81" data-name="LINE"/><path class="cls-17" d="M256.775 33.489l-1.461-1.461" id="LINE-82" data-name="LINE"/><path class="cls-17" d="M257.13 297.029h124.349" id="LINE-83" data-name="LINE"/><path d="M306.082 292.976l-.636-.305a2.5 2.5 0 01-1.023-.882 3.2 3.2 0 01-.488-1.391h1.422a1.5 1.5 0 00.267.7 1.238 1.238 0 00.53.406 1.992 1.992 0 00.762.134 1.483 1.483 0 001.073-.369 1.378 1.378 0 00.383-1.039v-.3a1.676 1.676 0 00-.363-1.153 1.3 1.3 0 00-1.025-.406h-.7v-1.326h.7a1.162 1.162 0 00.9-.349 1.4 1.4 0 00.322-.984v-.312a1.192 1.192 0 00-.339-.909 1.334 1.334 0 00-.96-.321 1.459 1.459 0 00-.636.133 1.207 1.207 0 00-.475.41 1.879 1.879 0 00-.284.694H304.1a3.615 3.615 0 01.516-1.394 2.518 2.518 0 01.961-.882 2.852 2.852 0 011.333-.3 2.757 2.757 0 011.989.677 2.519 2.519 0 01.7 1.907v.164a2.154 2.154 0 01-.4 1.3 2.284 2.284 0 01-1.142.807 2.018 2.018 0 011.261.8 2.645 2.645 0 01.448 1.586v.164a3.058 3.058 0 01-.335 1.484 2.215 2.215 0 01-.974.936 3.4 3.4 0 01-1.541.322zM313.485 292.976l-.636-.305a2.5 2.5 0 01-1.022-.882 3.2 3.2 0 01-.489-1.391h1.422a1.5 1.5 0 00.267.7 1.244 1.244 0 00.53.406 1.992 1.992 0 00.762.134 1.483 1.483 0 001.073-.369 1.378 1.378 0 00.383-1.039v-.3a1.681 1.681 0 00-.362-1.153 1.306 1.306 0 00-1.026-.406h-.7v-1.326h.7a1.164 1.164 0 00.9-.349 1.4 1.4 0 00.321-.984v-.312a1.188 1.188 0 00-.339-.909 1.334 1.334 0 00-.96-.321 1.462 1.462 0 00-.636.133 1.211 1.211 0 00-.474.41 1.846 1.846 0 00-.284.694H311.5a3.615 3.615 0 01.516-1.394 2.518 2.518 0 01.961-.882 2.855 2.855 0 011.333-.3 2.754 2.754 0 011.989.677 2.519 2.519 0 01.7 1.907v.164a2.148 2.148 0 01-.4 1.3 2.275 2.275 0 01-1.142.807 2.018 2.018 0 011.261.8 2.645 2.645 0 01.448 1.586v.164a3.069 3.069 0 01-.334 1.484 2.218 2.218 0 01-.975.936 3.4 3.4 0 01-1.541.322zM320.591 292.682a2.429 2.429 0 01-.951-.855 3.41 3.41 0 01-.488-1.347v-.006h1.394v.006a1.293 1.293 0 00.438.851 1.416 1.416 0 00.943.305 1.258 1.258 0 001.035-.449 1.931 1.931 0 00.367-1.26v-.834a1.927 1.927 0 00-.367-1.255 1.259 1.259 0 00-1.035-.447 1.316 1.316 0 00-.7.2 1.941 1.941 0 00-.588.574h-1.271v-5.236h5.065v1.326h-3.671v2.245a1.969 1.969 0 01.581-.328 1.9 1.9 0 01.656-.116 2.886 2.886 0 011.474.355 2.284 2.284 0 01.93 1.039 3.9 3.9 0 01.317 1.648v.834a3.777 3.777 0 01-.328 1.647 2.329 2.329 0 01-.957 1.042 3 3 0 01-1.511.36 2.944 2.944 0 01-1.333-.299zM327.5 292.23a2.862 2.862 0 01-.721-2.078v-4.518a2.843 2.843 0 115.674 0v4.518a2.848 2.848 0 01-.725 2.081 3.374 3.374 0 01-4.228 0zm3.207-.967a1.6 1.6 0 00.351-1.111v-4.518a1.608 1.608 0 00-.348-1.112 1.747 1.747 0 00-2.188 0 1.608 1.608 0 00-.348 1.112v4.518a1.6 1.6 0 00.351 1.111 1.735 1.735 0 002.182 0z"/><path class="cls-17" d="M381.316 297.029l-1.461 1.461" id="LINE-84" data-name="LINE"/><path class="cls-17" d="M379.855 295.568l1.461 1.461" id="LINE-85" data-name="LINE"/><path class="cls-17" d="M257.13 297.028l1.461-1.461" id="LINE-86" data-name="LINE"/><path class="cls-17" d="M258.591 298.489l-1.461-1.461" id="LINE-87" data-name="LINE"/><path class="cls-17" d="M11.424 297.029h116.172" id="LINE-88" data-name="LINE"/><path d="M57.252 292.976l-.635-.305a2.5 2.5 0 01-1.023-.882 3.182 3.182 0 01-.488-1.391h1.422a1.513 1.513 0 00.266.7 1.247 1.247 0 00.531.406 1.986 1.986 0 00.761.134 1.485 1.485 0 001.074-.369 1.378 1.378 0 00.383-1.039v-.3a1.681 1.681 0 00-.363-1.153 1.3 1.3 0 00-1.025-.406h-.7v-1.326h.7a1.162 1.162 0 00.9-.349 1.4 1.4 0 00.321-.984v-.312a1.191 1.191 0 00-.338-.909 1.334 1.334 0 00-.96-.321 1.456 1.456 0 00-.636.133 1.207 1.207 0 00-.475.41 1.862 1.862 0 00-.284.694H55.27a3.615 3.615 0 01.516-1.394 2.518 2.518 0 01.961-.882 2.852 2.852 0 011.333-.3 2.757 2.757 0 011.989.677 2.519 2.519 0 01.7 1.907v.164a2.154 2.154 0 01-.4 1.3 2.284 2.284 0 01-1.142.807 2.018 2.018 0 011.261.8 2.645 2.645 0 01.448 1.586v.164a3.058 3.058 0 01-.335 1.484 2.218 2.218 0 01-.975.936 3.4 3.4 0 01-1.541.322zM63.64 292.23a2.867 2.867 0 01-.721-2.078v-4.518a2.854 2.854 0 01.725-2.082 3.393 3.393 0 014.229 0 2.86 2.86 0 01.72 2.085v4.518a2.852 2.852 0 01-.724 2.081 3.375 3.375 0 01-4.229 0zm3.207-.967a1.591 1.591 0 00.352-1.111v-4.518a1.6 1.6 0 00-.349-1.112 1.745 1.745 0 00-2.187 0 1.6 1.6 0 00-.349 1.112v4.518a1.591 1.591 0 00.352 1.111 1.733 1.733 0 002.181 0zM74.165 287.937l-.007.247a1.027 1.027 0 01-.516.461 2.077 2.077 0 01-.817.147 2.2 2.2 0 01-1.251-.362 2.37 2.37 0 01-.838-1.023 3.7 3.7 0 01-.3-1.527v-.007a3.815 3.815 0 01.324-1.647 2.283 2.283 0 01.951-1.039 2.976 2.976 0 011.5-.356 2.922 2.922 0 011.5.362 2.32 2.32 0 01.947 1.053 3.869 3.869 0 01.325 1.661v.007a5.184 5.184 0 01-.137 1.138 6.988 6.988 0 01-.389 1.2c-.028.059-.055.119-.082.181s-.057.122-.089.181l-2.119 4.259h-1.5zm.065-.861a1.953 1.953 0 00.358-1.251v-.007a1.854 1.854 0 00-.358-1.216 1.419 1.419 0 00-2.037 0 1.854 1.854 0 00-.359 1.223v.007a1.924 1.924 0 00.359 1.247 1.391 1.391 0 002.037 0zM78.549 292.23a2.866 2.866 0 01-.72-2.078v-4.518a2.843 2.843 0 115.673 0v4.518a2.852 2.852 0 01-.724 2.081 3.375 3.375 0 01-4.229 0zm3.207-.967a1.591 1.591 0 00.352-1.111v-4.518a1.6 1.6 0 00-.349-1.112 1.745 1.745 0 00-2.187 0 1.6 1.6 0 00-.349 1.112v4.518a1.591 1.591 0 00.352 1.111 1.733 1.733 0 002.181 0z"/><path class="cls-17" d="M127.596 297.029l-1.461 1.461" id="LINE-89" data-name="LINE"/><path class="cls-17" d="M126.135 295.568l1.461 1.461" id="LINE-90" data-name="LINE"/><path class="cls-17" d="M11.424 297.028l1.461-1.461" id="LINE-91" data-name="LINE"/><path class="cls-17" d="M12.885 298.489l-1.461-1.461" id="LINE-92" data-name="LINE"/><path class="cls-17" d="M130.695 297.029h115.172" id="LINE-93" data-name="LINE"/><path d="M175.634 292.976l-.635-.305a2.5 2.5 0 01-1.023-.882 3.182 3.182 0 01-.488-1.391h1.422a1.513 1.513 0 00.266.7 1.247 1.247 0 00.531.406 1.983 1.983 0 00.761.134 1.485 1.485 0 001.074-.369 1.381 1.381 0 00.382-1.039v-.3a1.681 1.681 0 00-.362-1.153 1.3 1.3 0 00-1.025-.406h-.7v-1.326h.7a1.163 1.163 0 00.9-.349 1.4 1.4 0 00.321-.984v-.312a1.188 1.188 0 00-.339-.909 1.331 1.331 0 00-.96-.321 1.454 1.454 0 00-.635.133 1.207 1.207 0 00-.475.41 1.862 1.862 0 00-.284.694h-1.415a3.615 3.615 0 01.516-1.394 2.515 2.515 0 01.96-.882 2.855 2.855 0 011.333-.3 2.758 2.758 0 011.99.677 2.522 2.522 0 01.7 1.907v.164a2.154 2.154 0 01-.4 1.3 2.284 2.284 0 01-1.142.807 2.018 2.018 0 011.261.8 2.652 2.652 0 01.448 1.586v.164a3.058 3.058 0 01-.335 1.484 2.218 2.218 0 01-.975.936 3.4 3.4 0 01-1.541.322zM182.022 292.23a2.867 2.867 0 01-.721-2.078v-4.518a2.854 2.854 0 01.725-2.082 3.391 3.391 0 014.228 0 2.856 2.856 0 01.721 2.085v4.518a2.852 2.852 0 01-.724 2.081 3.375 3.375 0 01-4.229 0zm3.207-.967a1.6 1.6 0 00.352-1.111v-4.518a1.608 1.608 0 00-.349-1.112 1.747 1.747 0 00-2.188 0 1.608 1.608 0 00-.348 1.112v4.518a1.6 1.6 0 00.351 1.111 1.735 1.735 0 002.182 0zM188.889 290.139l3.336-7.2h1.436l-3.254 7.117h4.874v1.292h-6.392zm4.286-3.111h1.361v5.852h-1.361zM197.71 292.23a2.866 2.866 0 01-.72-2.078v-4.518a2.843 2.843 0 115.674 0v4.518a2.852 2.852 0 01-.725 2.081 3.375 3.375 0 01-4.229 0zm3.208-.967a1.6 1.6 0 00.351-1.111v-4.518a1.6 1.6 0 00-.349-1.112 1.745 1.745 0 00-2.187 0 1.608 1.608 0 00-.349 1.112v4.518a1.6 1.6 0 00.352 1.111 1.735 1.735 0 002.182 0z"/><path class="cls-17" d="M245.867 297.029l-1.461 1.461" id="LINE-94" data-name="LINE"/><path class="cls-17" d="M244.406 295.568l1.461 1.461" id="LINE-95" data-name="LINE"/><path class="cls-17" d="M130.695 297.028l1.461-1.461" id="LINE-96" data-name="LINE"/><path class="cls-17" d="M132.156 298.489l-1.461-1.461" id="LINE-97" data-name="LINE"/><path class="cls-17" d="M153.274 208.965h92.593" id="LINE-98" data-name="LINE"/><path d="M185.209 223.5l3.465-4.621a3.411 3.411 0 00.468-.824 2.185 2.185 0 00.168-.8v-.014a1.205 1.205 0 00-.349-.923 1.388 1.388 0 00-.991-.328 1.368 1.368 0 00-.984.358 1.637 1.637 0 00-.458 1.016v.007h-1.443v-.007a3.742 3.742 0 01.5-1.46 2.569 2.569 0 01.982-.923 2.924 2.924 0 011.388-.317 3.454 3.454 0 011.517.3 2.141 2.141 0 01.957.885 2.806 2.806 0 01.328 1.4v.007a3.107 3.107 0 01-.218 1.1 4.739 4.739 0 01-.609 1.108l-2.878 3.91h3.76v1.326h-5.6zM192.044 221.979l3.336-7.2h1.436l-3.254 7.116h4.874v1.292h-6.392zm4.287-3.111h1.36v5.852h-1.36zM200.008 221.979l3.336-7.2h1.436l-3.254 7.116h4.874v1.292h-6.392zm4.286-3.111h1.361v5.852h-1.361zM208.83 224.07a2.862 2.862 0 01-.721-2.078v-4.518a2.85 2.85 0 01.725-2.082 3.388 3.388 0 014.228 0 2.856 2.856 0 01.721 2.085v4.518a2.559 2.559 0 01-2.837 2.823 2.816 2.816 0 01-2.116-.748zm3.207-.967a1.6 1.6 0 00.351-1.111v-4.518a1.608 1.608 0 00-.348-1.112 1.747 1.747 0 00-2.188 0 1.608 1.608 0 00-.349 1.112v4.518a1.6 1.6 0 00.352 1.111 1.735 1.735 0 002.182 0z"/><path class="cls-17" d="M245.867 208.965l-1.461 1.461" id="LINE-99" data-name="LINE"/><path class="cls-17" d="M244.406 207.503l1.461 1.462" id="LINE-100" data-name="LINE"/><path class="cls-17" d="M153.274 208.964l1.461-1.461" id="LINE-101" data-name="LINE"/><path class="cls-17" d="M154.735 210.425l-1.461-1.461" id="LINE-102" data-name="LINE"/><path class="cls-17" d="M361.023 11.25v297.668" id="LINE-103" data-name="LINE"/><path d="M350.132 168.715l8.7 2.57v1.484l-8.614-2.571v2.53h1.429v1.394h-2.755v-5.407zM353.892 163.28l.246.007a1.024 1.024 0 01.462.516 2.077 2.077 0 01.147.817 2.182 2.182 0 01-.363 1.251 2.371 2.371 0 01-1.021.838 3.709 3.709 0 01-1.528.3h-.007a3.838 3.838 0 01-1.648-.324 2.3 2.3 0 01-1.039-.952 3 3 0 01-.355-1.5 2.932 2.932 0 01.362-1.5 2.328 2.328 0 011.053-.946 3.872 3.872 0 011.661-.325h.007a5.184 5.184 0 011.138.137 6.875 6.875 0 011.2.389c.059.028.12.055.181.082s.122.057.181.089l4.259 2.119v1.5zm-.861-.065a1.949 1.949 0 00-1.251-.359h-.007a1.859 1.859 0 00-1.217.359 1.421 1.421 0 000 2.037 1.859 1.859 0 001.224.359h.007a1.925 1.925 0 001.248-.359 1.394 1.394 0 000-2.037zM358.185 158.9a2.865 2.865 0 01-2.078.72h-4.519a2.855 2.855 0 01-2.081-.724 3.391 3.391 0 010-4.229 2.865 2.865 0 012.085-.721h4.519a2.854 2.854 0 012.082.725 3.38 3.38 0 010 4.229zm-.967-3.208a1.6 1.6 0 00-1.111-.351h-4.519a1.6 1.6 0 00-1.11.349 1.738 1.738 0 000 2.187 1.6 1.6 0 001.11.349h4.519a1.6 1.6 0 001.111-.352 1.735 1.735 0 000-2.182zM358.636 150.452a2.4 2.4 0 01-.854.951 3.4 3.4 0 01-1.347.489h-.007V150.5h.007a1.3 1.3 0 00.852-.437 1.423 1.423 0 00.3-.944 1.261 1.261 0 00-.447-1.035 1.944 1.944 0 00-1.262-.366h-.834a1.925 1.925 0 00-1.253.366 1.259 1.259 0 00-.449 1.035 1.323 1.323 0 00.2.7 1.945 1.945 0 00.575.588v1.272h-5.237v-5.066h1.326v3.671h2.236a1.992 1.992 0 01-.328-.581 1.9 1.9 0 01-.117-.656 2.9 2.9 0 01.356-1.474 2.287 2.287 0 011.039-.929 3.9 3.9 0 011.647-.318h.834a3.789 3.789 0 011.648.328 2.332 2.332 0 011.043.957 3 3 0 01.358 1.511 2.918 2.918 0 01-.286 1.33z"/><path class="cls-17" d="M361.023 308.918l-1.461-1.461" id="LINE-104" data-name="LINE"/><path class="cls-17" d="M362.484 307.457l-1.461 1.461" id="LINE-105" data-name="LINE"/><path class="cls-17" d="M361.024 11.25l1.461 1.461" id="LINE-106" data-name="LINE"/><path class="cls-17" d="M359.562 12.711l1.462-1.461" id="LINE-107" data-name="LINE"/><path class="cls-17" d="M268.099 308.834V142.36" id="LINE-108" data-name="LINE"/><path class="cls-17" d="M268.1 308.834l1.461-1.461" id="LINE-109" data-name="LINE"/><path class="cls-17" d="M266.639 307.373l1.461 1.461" id="LINE-110" data-name="LINE"/><path d="M277.92 240.076l-7.2-3.336v-1.435l7.116 3.254v-4.874h1.292v6.391zm-3.11-4.286v-1.36h5.852v1.36zM277.92 232.112l-7.2-3.336v-1.435l7.116 3.254v-4.874h1.292v6.391zm-3.11-4.286v-1.36h5.852v1.36zM280.406 222.945a2.3 2.3 0 01-1.026.948 3.732 3.732 0 01-1.624.324h-.006a5.554 5.554 0 01-1.163-.13 6.814 6.814 0 01-1.2-.376c-.068-.027-.136-.057-.2-.089s-.131-.063-.195-.1l-4.28-2.16v-1.5l4.956 2.536-.246-.006a1.212 1.212 0 01-.5-.5 1.59 1.59 0 01-.177-.766 2.44 2.44 0 01.348-1.326 2.184 2.184 0 011.016-.841 4.042 4.042 0 011.6-.287h.007a3.785 3.785 0 011.641.325 2.285 2.285 0 011.039.949 3.359 3.359 0 010 3zm-1.4-2.519a1.721 1.721 0 00-1.169-.359h-.006a1.964 1.964 0 00-1.288.376 1.314 1.314 0 00-.456 1.074 1.133 1.133 0 00.458.963 2.128 2.128 0 001.292.342h.007a1.7 1.7 0 001.166-.359 1.473 1.473 0 000-2.037zM280.463 215.388a2.4 2.4 0 01-.854.951 3.4 3.4 0 01-1.347.488h-.007v-1.394h.007a1.3 1.3 0 00.852-.438 1.42 1.42 0 00.3-.943 1.26 1.26 0 00-.448-1.035 1.936 1.936 0 00-1.261-.367h-.834a1.922 1.922 0 00-1.254.367 1.258 1.258 0 00-.449 1.035 1.325 1.325 0 00.2.7 1.957 1.957 0 00.575.588v1.271h-5.237v-5.065h1.327v3.671h2.235a1.992 1.992 0 01-.328-.581 1.926 1.926 0 01-.116-.656 2.9 2.9 0 01.355-1.474 2.289 2.289 0 011.039-.93 3.9 3.9 0 011.648-.317h.834a3.773 3.773 0 011.647.328 2.326 2.326 0 011.043.957 3 3 0 01.358 1.511 2.918 2.918 0 01-.285 1.333z"/><path class="cls-17" d="M268.1 142.36l-1.462 1.461" id="LINE-111" data-name="LINE"/><path class="cls-17" d="M269.561 143.821l-1.461-1.461" id="LINE-112" data-name="LINE"/><path class="cls-17" d="M256.825 142.36h15.015"/><path class="cls-17" d="M22.488 308.834V187.893" id="LINE-113" data-name="LINE"/><path class="cls-17" d="M22.489 308.834l1.461-1.461" id="LINE-114" data-name="LINE"/><path class="cls-17" d="M21.028 307.373l1.461 1.461" id="LINE-115" data-name="LINE"/><path d="M35.146 260.644l-.3.635a2.508 2.508 0 01-.882 1.023 3.174 3.174 0 01-1.39.488v-1.422a1.509 1.509 0 00.7-.266 1.231 1.231 0 00.406-.531 1.987 1.987 0 00.133-.761 1.485 1.485 0 00-.369-1.074 1.375 1.375 0 00-1.039-.382h-.3a1.674 1.674 0 00-1.151.362 1.3 1.3 0 00-.407 1.025v.7h-1.335v-.7a1.166 1.166 0 00-.347-.9 1.4 1.4 0 00-.985-.321h-.308a1.187 1.187 0 00-.908.338 1.335 1.335 0 00-.323.96 1.456 1.456 0 00.134.636 1.215 1.215 0 00.41.475 1.868 1.868 0 00.695.284v1.415a3.626 3.626 0 01-1.395-.516 2.528 2.528 0 01-.883-.961 2.864 2.864 0 01-.3-1.333 2.757 2.757 0 01.677-1.989 2.516 2.516 0 011.906-.7h.165a2.149 2.149 0 011.3.4 2.272 2.272 0 01.807 1.142 2.024 2.024 0 01.8-1.261 2.643 2.643 0 011.586-.448h.164a3.05 3.05 0 011.482.335 2.222 2.222 0 01.938.975 3.4 3.4 0 01.32 1.541zM33.834 255.127l-4.622-3.466a3.454 3.454 0 00-.823-.468 2.181 2.181 0 00-.8-.168h-.009a1.21 1.21 0 00-.924.349 1.389 1.389 0 00-.328.991 1.369 1.369 0 00.359.985 1.631 1.631 0 001.016.458h.006v1.442H27.7a3.72 3.72 0 01-1.46-.5 2.559 2.559 0 01-.923-.981 2.93 2.93 0 01-.317-1.39 3.456 3.456 0 01.3-1.518 2.141 2.141 0 01.885-.957 2.82 2.82 0 011.4-.328h.015a3.089 3.089 0 011.1.219 4.708 4.708 0 011.107.608l3.91 2.878v-3.76h1.326v5.606zM34.4 247.023a2.864 2.864 0 01-2.078.721H27.8a2.855 2.855 0 01-2.081-.724 3.393 3.393 0 010-4.229 2.861 2.861 0 012.084-.721h4.52a2.855 2.855 0 012.081.725 3.381 3.381 0 010 4.228zm-.968-3.207a1.6 1.6 0 00-1.11-.351H27.8a1.6 1.6 0 00-1.11.348 1.743 1.743 0 000 2.188 1.6 1.6 0 001.11.349h4.52a1.6 1.6 0 001.11-.352 1.735 1.735 0 000-2.182zM34.4 239.3a2.868 2.868 0 01-2.078.721H27.8a2.855 2.855 0 01-2.081-.725 3.393 3.393 0 010-4.229 2.86 2.86 0 012.084-.72h4.52a2.855 2.855 0 012.081.724 3.382 3.382 0 010 4.229zm-.968-3.207a1.59 1.59 0 00-1.11-.352H27.8a1.6 1.6 0 00-1.11.349 1.742 1.742 0 000 2.187 1.6 1.6 0 001.11.349h4.52a1.59 1.59 0 001.11-.352 1.733 1.733 0 000-2.181z"/><path class="cls-17" d="M22.488 188.038l-1.461 1.461" id="LINE-116" data-name="LINE"/><path class="cls-17" d="M23.95 189.499l-1.462-1.461" id="LINE-117" data-name="LINE"/><path class="cls-17" d="M142.11 308.834v-93.925" id="LINE-118" data-name="LINE"/><path class="cls-17" d="M142.111 308.834l1.461-1.461" id="LINE-119" data-name="LINE"/><path class="cls-17" d="M140.649 307.373l1.462 1.461" id="LINE-120" data-name="LINE"/><path d="M153.456 276.138l-4.621-3.466a3.451 3.451 0 00-.825-.468 2.181 2.181 0 00-.8-.168h-.01a1.2 1.2 0 00-.923.349 1.388 1.388 0 00-.328.991 1.368 1.368 0 00.358.984 1.626 1.626 0 001.016.458h.007v1.443h-.007a3.72 3.72 0 01-1.46-.5 2.554 2.554 0 01-.923-.982 2.922 2.922 0 01-.317-1.387 3.47 3.47 0 01.3-1.518 2.138 2.138 0 01.886-.957 2.805 2.805 0 011.4-.328h.007a3.088 3.088 0 011.1.219 4.673 4.673 0 011.107.608l3.91 2.878v-3.76h1.327v5.606zM151.931 269.3l-7.2-3.336v-1.434l7.116 3.254v-4.874h1.292v6.39zm-3.11-4.286v-1.361h5.851v1.361zM154.426 259.875a2.5 2.5 0 01-.967 1.057 2.79 2.79 0 01-1.453.372h-.164a2.793 2.793 0 01-1.4-.372 2.483 2.483 0 01-.991-1 2.193 2.193 0 01-.831.844 2.245 2.245 0 01-1.145.318h-.239a2.652 2.652 0 01-1.371-.349 2.368 2.368 0 01-.916-.984 3.529 3.529 0 010-2.954 2.374 2.374 0 01.916-.984 2.652 2.652 0 011.371-.349h.239a2.2 2.2 0 011.155.326 2.172 2.172 0 01.821.857 2.567 2.567 0 01.994-1.008 2.726 2.726 0 011.4-.38h.164a2.79 2.79 0 011.453.372 2.508 2.508 0 01.967 1.057 3.848 3.848 0 010 3.172zm-5.671-2.324a1.251 1.251 0 00-.515-.5 1.635 1.635 0 00-.773-.178h-.095a1.5 1.5 0 00-.739.178 1.229 1.229 0 00-.5.5 1.652 1.652 0 000 1.476 1.229 1.229 0 00.5.5 1.507 1.507 0 00.745.178h.1a1.582 1.582 0 00.762-.178 1.25 1.25 0 00.512-.5 1.587 1.587 0 000-1.476zm4.482-.116a1.387 1.387 0 00-.537-.572 1.551 1.551 0 00-.8-.2h-.1a1.571 1.571 0 00-.8.2 1.385 1.385 0 00-.536.572 2.007 2.007 0 000 1.709 1.378 1.378 0 00.54.571 1.587 1.587 0 00.807.2h.1a1.534 1.534 0 00.792-.2 1.368 1.368 0 00.53-.571 1.856 1.856 0 00.188-.855 1.837 1.837 0 00-.184-.854zM154.474 251.887a2.418 2.418 0 01-.854.951 3.416 3.416 0 01-1.347.488h-.007v-1.394h.007a1.3 1.3 0 00.851-.438 1.415 1.415 0 00.3-.943 1.257 1.257 0 00-.448-1.035 1.936 1.936 0 00-1.261-.367h-.834a1.927 1.927 0 00-1.255.367 1.262 1.262 0 00-.447 1.035 1.325 1.325 0 00.205.7 1.953 1.953 0 00.574.588v1.271h-5.236v-5.065h1.326v3.671h2.236a1.947 1.947 0 01-.328-.581 1.88 1.88 0 01-.117-.656A2.876 2.876 0 01148.2 249a2.279 2.279 0 011.039-.93 3.9 3.9 0 011.647-.317h.834a3.778 3.778 0 011.648.328 2.334 2.334 0 011.042.957 3 3 0 01.359 1.511 2.944 2.944 0 01-.295 1.338z"/><path class="cls-17" d="M142.11 214.909l-1.461 1.461" id="LINE-121" data-name="LINE"/><path class="cls-17" d="M143.571 216.37l-1.461-1.461" id="LINE-122" data-name="LINE"/><path class="cls-17" d="M238.841 308.834V145.383" id="LINE-123" data-name="LINE"/><path class="cls-17" d="M238.842 308.834l1.461-1.461" id="LINE-124" data-name="LINE"/><path class="cls-17" d="M237.381 307.373l1.461 1.461" id="LINE-125" data-name="LINE"/><path d="M231.67 241.308l-7.2-3.336v-1.436l7.116 3.254v-4.874h1.292v6.392zm-3.11-4.287v-1.36h5.852v1.36zM234.507 231.471l-.3.635a2.516 2.516 0 01-.882 1.023 3.187 3.187 0 01-1.392.488V232.2a1.5 1.5 0 00.7-.266 1.236 1.236 0 00.408-.531 1.983 1.983 0 00.133-.761 1.485 1.485 0 00-.37-1.074 1.378 1.378 0 00-1.039-.382h-.3a1.677 1.677 0 00-1.152.362 1.3 1.3 0 00-.407 1.025v.7h-1.326v-.7a1.163 1.163 0 00-.349-.9 1.4 1.4 0 00-.984-.321h-.308a1.191 1.191 0 00-.909.339 1.337 1.337 0 00-.321.96 1.469 1.469 0 00.133.635 1.21 1.21 0 00.411.475 1.848 1.848 0 00.693.284v1.415a3.639 3.639 0 01-1.4-.516 2.536 2.536 0 01-.881-.96 2.855 2.855 0 01-.3-1.333 2.754 2.754 0 01.677-1.99 2.522 2.522 0 011.907-.7h.164a2.146 2.146 0 011.3.4 2.269 2.269 0 01.806 1.141 2.027 2.027 0 01.8-1.261 2.654 2.654 0 011.586-.448h.164a3.058 3.058 0 011.484.335 2.212 2.212 0 01.936.975 3.383 3.383 0 01.321 1.541zM234.156 224.737a2.3 2.3 0 01-1.026.948 3.732 3.732 0 01-1.624.324h-.006a5.554 5.554 0 01-1.163-.13 6.814 6.814 0 01-1.2-.376c-.068-.027-.136-.057-.2-.089s-.131-.063-.195-.1l-4.28-2.16v-1.5l4.956 2.536-.246-.006a1.212 1.212 0 01-.5-.5 1.59 1.59 0 01-.177-.766 2.44 2.44 0 01.348-1.326 2.184 2.184 0 011.016-.841 4.042 4.042 0 011.6-.287h.007a3.785 3.785 0 011.641.325 2.285 2.285 0 011.039.949 3.359 3.359 0 010 3zm-1.4-2.519a1.721 1.721 0 00-1.169-.359h-.006a1.964 1.964 0 00-1.288.376 1.314 1.314 0 00-.456 1.074 1.133 1.133 0 00.458.963 2.128 2.128 0 001.292.342h.007a1.7 1.7 0 001.166-.359 1.473 1.473 0 000-2.037zM234.213 217.18a2.4 2.4 0 01-.854.951 3.4 3.4 0 01-1.347.488h-.007v-1.394h.007a1.3 1.3 0 00.852-.438 1.42 1.42 0 00.3-.943 1.26 1.26 0 00-.448-1.035 1.936 1.936 0 00-1.261-.367h-.834a1.922 1.922 0 00-1.254.367 1.258 1.258 0 00-.449 1.035 1.325 1.325 0 00.205.7 1.957 1.957 0 00.575.588v1.268h-5.237v-5.065h1.327v3.671h2.235a1.992 1.992 0 01-.328-.581 1.926 1.926 0 01-.116-.656 2.9 2.9 0 01.355-1.474 2.289 2.289 0 011.039-.93 3.9 3.9 0 011.648-.317h.834a3.773 3.773 0 011.647.328 2.326 2.326 0 011.043.957 3 3 0 01.358 1.511 2.918 2.918 0 01-.29 1.336z"/><path class="cls-17" d="M238.841 145.384l-1.461 1.461" id="LINE-126" data-name="LINE"/><path class="cls-17" d="M240.303 146.845l-1.462-1.461" id="LINE-127" data-name="LINE"/><path class="cls-17" d="M188.168 81.622v19.03" id="LINE-128" data-name="LINE"/><path class="cls-17" d="M216.292 81.622v19.308" id="LINE-129" data-name="LINE"/><path class="cls-17" d="M216.292 81.621h-28.124" id="LINE-130" data-name="LINE"/><path d="M192.919 77.979a2.5 2.5 0 01-1.056-.967 2.789 2.789 0 01-.372-1.452v-.16a2.8 2.8 0 01.372-1.4 2.5 2.5 0 011-.991 2.182 2.182 0 01-.845-.831 2.241 2.241 0 01-.317-1.145v-.239a2.657 2.657 0 01.348-1.371 2.371 2.371 0 01.985-.916 3.526 3.526 0 012.953 0 2.362 2.362 0 01.984.916 2.647 2.647 0 01.349 1.371v.239a2.205 2.205 0 01-.325 1.156 2.172 2.172 0 01-.858.82 2.567 2.567 0 011.003.991 2.729 2.729 0 01.38 1.4v.164a2.789 2.789 0 01-.372 1.452 2.5 2.5 0 01-1.057.967 3.848 3.848 0 01-3.172 0zm2.441-1.189a1.39 1.39 0 00.571-.537 1.551 1.551 0 00.2-.8v-.1a1.567 1.567 0 00-.2-.8 1.384 1.384 0 00-.571-.537 2.007 2.007 0 00-1.709 0 1.368 1.368 0 00-.571.541 1.581 1.581 0 00-.2.806v.1a1.541 1.541 0 00.2.793 1.366 1.366 0 00.571.529 2.021 2.021 0 001.709 0zm-.116-4.481a1.254 1.254 0 00.5-.516 1.631 1.631 0 00.177-.772v-.1a1.5 1.5 0 00-.177-.738 1.231 1.231 0 00-.5-.5 1.663 1.663 0 00-1.477 0 1.231 1.231 0 00-.5.5 1.512 1.512 0 00-.178.745v.1a1.593 1.593 0 00.178.762 1.252 1.252 0 00.5.513 1.6 1.6 0 001.477 0zM200.189 77.576a2.867 2.867 0 01-.721-2.078v-4.519a2.858 2.858 0 01.725-2.082 3.39 3.39 0 014.228 0 2.855 2.855 0 01.721 2.084V75.5a2.558 2.558 0 01-2.837 2.823 2.817 2.817 0 01-2.116-.747zm3.207-.968a1.593 1.593 0 00.352-1.11v-4.519a1.607 1.607 0 00-.349-1.111 1.743 1.743 0 00-2.188 0 1.607 1.607 0 00-.348 1.111V75.5a1.593 1.593 0 00.351 1.11 1.731 1.731 0 002.182 0zM207.914 77.576a2.862 2.862 0 01-.721-2.078v-4.519a2.853 2.853 0 01.725-2.082 3.39 3.39 0 014.228 0 2.855 2.855 0 01.721 2.084V75.5a2.559 2.559 0 01-2.837 2.823 2.816 2.816 0 01-2.116-.747zm3.207-.968a1.593 1.593 0 00.351-1.11v-4.519a1.607 1.607 0 00-.348-1.111 1.743 1.743 0 00-2.188 0 1.607 1.607 0 00-.349 1.111V75.5a1.593 1.593 0 00.352 1.11 1.731 1.731 0 002.182 0z"/><path class="cls-17" d="M188.168 81.622l1.461-1.461" id="LINE-131" data-name="LINE"/><path class="cls-17" d="M189.629 83.083l-1.461-1.461" id="LINE-132" data-name="LINE"/><path class="cls-17" d="M216.292 81.613l-1.461 1.462" id="LINE-133" data-name="LINE"/><path class="cls-17" d="M214.831 80.152l1.461 1.461" id="LINE-134" data-name="LINE"/><path class="cls-17" d="M120.906 163.18v-19.03" id="LINE-135" data-name="LINE"/><path class="cls-17" d="M89.015 163.18v-19.308" id="LINE-136" data-name="LINE"/><path class="cls-17" d="M89.015 163.181h31.891" id="LINE-137" data-name="LINE"/><path d="M98.188 170.464l-.007.246a1.031 1.031 0 01-.515.462 2.083 2.083 0 01-.818.146 2.193 2.193 0 01-1.251-.362 2.378 2.378 0 01-.838-1.021 3.714 3.714 0 01-.3-1.529v-.006a3.821 3.821 0 01.325-1.647 2.288 2.288 0 01.951-1.039 3 3 0 011.5-.356 2.933 2.933 0 011.5.363 2.326 2.326 0 01.946 1.052 3.876 3.876 0 01.325 1.662v.006a5.243 5.243 0 01-.136 1.139 6.955 6.955 0 01-.39 1.2l-.082.182a2.335 2.335 0 01-.089.181L97.19 175.4h-1.5zm.065-.861a1.943 1.943 0 00.359-1.251v-.007a1.852 1.852 0 00-.359-1.217 1.419 1.419 0 00-2.037 0 1.857 1.857 0 00-.359 1.224v.006a1.925 1.925 0 00.359 1.248 1.393 1.393 0 002.037 0zM102.573 174.757a2.862 2.862 0 01-.721-2.078v-4.519a2.849 2.849 0 01.725-2.081 3.39 3.39 0 014.228 0 2.859 2.859 0 01.721 2.085v4.519a2.852 2.852 0 01-.725 2.082 3.379 3.379 0 01-4.228 0zm3.207-.967a1.6 1.6 0 00.351-1.111v-4.519a1.6 1.6 0 00-.348-1.11 1.74 1.74 0 00-2.188 0 1.6 1.6 0 00-.348 1.11v4.519a1.6 1.6 0 00.351 1.111 1.735 1.735 0 002.182 0zM110.3 174.757a2.866 2.866 0 01-.72-2.078v-4.519a2.853 2.853 0 01.724-2.081 3.391 3.391 0 014.229 0 2.863 2.863 0 01.721 2.085v4.519a2.856 2.856 0 01-.725 2.082 3.38 3.38 0 01-4.229 0zm3.207-.967a1.593 1.593 0 00.352-1.111v-4.519a1.6 1.6 0 00-.349-1.11 1.738 1.738 0 00-2.187 0 1.6 1.6 0 00-.349 1.11v4.519a1.593 1.593 0 00.352 1.111 1.733 1.733 0 002.181 0z"/><path class="cls-17" d="M120.906 163.18l-1.461 1.461" id="LINE-138" data-name="LINE"/><path class="cls-17" d="M119.445 161.719l1.461 1.461" id="LINE-139" data-name="LINE"/><path class="cls-17" d="M89.015 163.189l1.461-1.461" id="LINE-140" data-name="LINE"/><path class="cls-17" d="M90.476 164.65l-1.461-1.461" id="LINE-141" data-name="LINE"/><path class="cls-17" d="M229.694 163.18v-19.03" id="LINE-142" data-name="LINE"/><path class="cls-17" d="M197.803 163.18v-19.308" id="LINE-143" data-name="LINE"/><path class="cls-17" d="M197.803 163.181h31.891" id="LINE-144" data-name="LINE"/><path d="M206.976 170.171l-.007.246a1.029 1.029 0 01-.515.461 2.064 2.064 0 01-.818.147 2.2 2.2 0 01-1.251-.362 2.381 2.381 0 01-.838-1.022 3.709 3.709 0 01-.3-1.528v-.007a3.818 3.818 0 01.324-1.647 2.283 2.283 0 01.951-1.039 2.986 2.986 0 011.5-.356 2.923 2.923 0 011.5.363 2.321 2.321 0 01.946 1.052 3.87 3.87 0 01.325 1.662v.006a5.173 5.173 0 01-.136 1.138 6.965 6.965 0 01-.39 1.2l-.082.181a2.549 2.549 0 01-.089.182l-2.119 4.258h-1.5zm.066-.861a1.953 1.953 0 00.358-1.251v-.007a1.855 1.855 0 00-.358-1.217 1.42 1.42 0 00-2.038 0 1.856 1.856 0 00-.359 1.224v.006a1.92 1.92 0 00.359 1.247 1.393 1.393 0 002.038 0zM211.361 174.464a2.864 2.864 0 01-.721-2.078v-4.519a2.852 2.852 0 01.725-2.082 3.391 3.391 0 014.228 0 2.858 2.858 0 01.721 2.085v4.519a2.849 2.849 0 01-.725 2.081 3.377 3.377 0 01-4.228 0zm3.207-.968a1.6 1.6 0 00.351-1.11v-4.519a1.607 1.607 0 00-.348-1.111 1.743 1.743 0 00-2.188 0 1.607 1.607 0 00-.348 1.111v4.519a1.6 1.6 0 00.351 1.11 1.731 1.731 0 002.182 0zM219.085 174.464a2.868 2.868 0 01-.72-2.078v-4.519a2.856 2.856 0 01.724-2.082 3.393 3.393 0 014.229 0 2.862 2.862 0 01.721 2.085v4.519a2.854 2.854 0 01-.725 2.081 3.379 3.379 0 01-4.229 0zm3.208-.968a1.6 1.6 0 00.351-1.11v-4.519a1.6 1.6 0 00-.349-1.111 1.742 1.742 0 00-2.187 0 1.607 1.607 0 00-.349 1.111v4.519a1.6 1.6 0 00.352 1.11 1.731 1.731 0 002.182 0z"/><path class="cls-17" d="M229.694 163.18l-1.461 1.461" id="LINE-145" data-name="LINE"/><path class="cls-17" d="M228.233 161.719l1.461 1.461" id="LINE-146" data-name="LINE"/><path class="cls-17" d="M197.803 163.189l1.461-1.461" id="LINE-147" data-name="LINE"/><path class="cls-17" d="M199.264 164.65l-1.461-1.461" id="LINE-148" data-name="LINE"/><path class="cls-17" d="M72.428 194.075v-6.095" id="LINE-149" data-name="LINE"/><path class="cls-17" d="M45.219 194.075v-6.184" id="LINE-150" data-name="LINE"/><path class="cls-17" d="M45.219 194.077h27.209" id="LINE-151" data-name="LINE"/><path d="M49.5 207.263a2.5 2.5 0 01-1.057-.967 2.788 2.788 0 01-.372-1.453v-.164a2.8 2.8 0 01.372-1.4 2.5 2.5 0 01.995-.992 2.179 2.179 0 01-.845-.83 2.24 2.24 0 01-.317-1.144v-.241a2.641 2.641 0 01.349-1.37 2.362 2.362 0 01.984-.916 3.516 3.516 0 012.953 0 2.362 2.362 0 01.984.916 2.641 2.641 0 01.349 1.37v.241a2.2 2.2 0 01-.325 1.154 2.151 2.151 0 01-.858.82 2.589 2.589 0 011.008 1 2.728 2.728 0 01.38 1.4v.164a2.788 2.788 0 01-.372 1.453 2.5 2.5 0 01-1.057.967 3.856 3.856 0 01-3.171 0zm2.44-1.19a1.376 1.376 0 00.571-.536 1.549 1.549 0 00.2-.8v-.1a1.566 1.566 0 00-.2-.8 1.376 1.376 0 00-.571-.536 2 2 0 00-1.709 0 1.37 1.37 0 00-.571.539 1.586 1.586 0 00-.2.806v.1a1.538 1.538 0 00.2.793 1.372 1.372 0 00.571.529 1.863 1.863 0 00.855.188 1.825 1.825 0 00.852-.183zm-.116-4.48a1.254 1.254 0 00.5-.516 1.63 1.63 0 00.178-.773v-.1a1.509 1.509 0 00-.178-.738 1.226 1.226 0 00-.5-.5 1.646 1.646 0 00-1.477 0 1.226 1.226 0 00-.5.5 1.524 1.524 0 00-.177.746v.1a1.6 1.6 0 00.177.763 1.252 1.252 0 00.5.513 1.6 1.6 0 001.477 0zM56.767 206.86a2.867 2.867 0 01-.721-2.078v-4.519a2.854 2.854 0 01.725-2.081 3.389 3.389 0 014.229 0 2.859 2.859 0 01.72 2.084v4.519a2.853 2.853 0 01-.72 2.078 3.382 3.382 0 01-4.229 0zm3.207-.967a1.591 1.591 0 00.352-1.111v-4.519a1.6 1.6 0 00-.349-1.111 1.745 1.745 0 00-2.187 0 1.6 1.6 0 00-.349 1.111v4.519a1.591 1.591 0 00.352 1.111 1.737 1.737 0 002.181 0zM64.492 206.86a2.862 2.862 0 01-.721-2.078v-4.519a2.849 2.849 0 01.725-2.081 3.388 3.388 0 014.228 0 2.855 2.855 0 01.721 2.084v4.519a2.849 2.849 0 01-.725 2.081 3.381 3.381 0 01-4.228 0zm3.207-.967a1.6 1.6 0 00.351-1.111v-4.519a1.6 1.6 0 00-.348-1.111 1.747 1.747 0 00-2.188 0 1.6 1.6 0 00-.348 1.111v4.519a1.6 1.6 0 00.351 1.111 1.738 1.738 0 002.182 0z"/><path class="cls-17" d="M72.428 194.075l-1.461 1.461" id="LINE-152" data-name="LINE"/><path class="cls-17" d="M70.967 192.614l1.461 1.461" id="LINE-153" data-name="LINE"/><path class="cls-17" d="M45.222 194.075l1.461-1.461" id="LINE-154" data-name="LINE"/><path class="cls-17" d="M46.683 195.536l-1.461-1.461" id="LINE-155" data-name="LINE"/><path class="cls-17" d="M28.494 347.229v-14.442" id="LINE-156" data-name="LINE"/><path class="cls-17" d="M11.301 347.257v-14.442" id="LINE-157" data-name="LINE"/><path class="cls-17" d="M11.301 347.232l17.193-.011" id="LINE-158" data-name="LINE"/><path d="M9.468 357.284l3.336-7.2h1.436l-3.254 7.116h4.874v1.3H9.468zm4.286-3.109h1.361v5.851h-1.361zM22.7 351.323l-2.571 8.7h-1.48l2.57-8.614H18.69v1.43H17.3v-2.756h5.4zM26.056 359.827a2.408 2.408 0 01-.951-.853 3.415 3.415 0 01-.488-1.348v-.006h1.394v.006a1.3 1.3 0 00.438.852 1.413 1.413 0 00.943.3 1.261 1.261 0 001.035-.448 1.941 1.941 0 00.367-1.261v-.834a1.931 1.931 0 00-.367-1.255 1.264 1.264 0 00-1.035-.448 1.316 1.316 0 00-.7.2 1.953 1.953 0 00-.588.574h-1.269v-5.236H29.9v1.326h-3.67v2.237a1.972 1.972 0 01.581-.329 1.9 1.9 0 01.656-.117 2.886 2.886 0 011.474.356 2.289 2.289 0 01.93 1.039 3.9 3.9 0 01.317 1.648v.834a3.77 3.77 0 01-.328 1.647 2.331 2.331 0 01-.957 1.043 3 3 0 01-1.511.359 2.932 2.932 0 01-1.336-.286z"/><path class="cls-17" d="M28.494 347.195l-1.461 1.461" id="LINE-159" data-name="LINE"/><path class="cls-17" d="M27.033 345.734l1.461 1.461" id="LINE-160" data-name="LINE"/><path class="cls-17" d="M11.301 347.257l1.462-1.461" id="LINE-161" data-name="LINE"/><path class="cls-17" d="M12.763 348.718l-1.462-1.461" id="LINE-162" data-name="LINE"/><path class="cls-17" d="M94.533 347.229v-14.442" id="LINE-163" data-name="LINE"/><path class="cls-17" d="M28.494 347.257v-14.442" id="LINE-164" data-name="LINE"/><path class="cls-17" d="M28.494 347.249l66.039-.045" id="LINE-165" data-name="LINE"/><path d="M52.9 360.019h-1.4V351.6l-1.416.869v-1.444l1.416-.943h1.4zM60.286 351.323l-2.571 8.7h-1.483l2.57-8.614h-2.529v1.43h-1.4v-2.756h5.408zM64.6 360.019h-1.395V351.6l-1.415.869v-1.444l1.415-.943H64.6zM67.576 359.376a2.861 2.861 0 01-.721-2.078v-4.518a2.843 2.843 0 115.674 0v4.52a2.559 2.559 0 01-2.837 2.824 2.812 2.812 0 01-2.116-.748zm3.207-.967a1.6 1.6 0 00.351-1.111v-4.518a1.607 1.607 0 00-.348-1.111 1.74 1.74 0 00-2.188 0 1.607 1.607 0 00-.348 1.111v4.52a1.6 1.6 0 00.351 1.111 1.731 1.731 0 002.182 0z"/><path class="cls-17" d="M94.664 347.195l-1.461 1.461" id="LINE-166" data-name="LINE"/><path class="cls-17" d="M93.203 345.734l1.461 1.461" id="LINE-167" data-name="LINE"/><path class="cls-17" d="M28.494 347.257l1.462-1.461" id="LINE-168" data-name="LINE"/><path class="cls-17" d="M29.956 348.718l-1.462-1.461" id="LINE-169" data-name="LINE"/><path class="cls-17" d="M228.652 347.229v-14.442" id="LINE-170" data-name="LINE"/><path class="cls-17" d="M162.613 347.257v-14.442" id="LINE-171" data-name="LINE"/><path class="cls-17" d="M162.613 347.249l66.039-.045" id="LINE-172" data-name="LINE"/><path d="M187.014 360.019h-1.394V351.6l-1.415.869v-1.444l1.415-.943h1.394zM194.4 351.323l-2.57 8.7h-1.48l2.57-8.614h-2.529v1.43H189v-2.756h5.4zM198.717 360.019h-1.394V351.6l-1.415.869v-1.444l1.415-.943h1.394zM201.694 359.376a2.861 2.861 0 01-.721-2.078v-4.518a2.843 2.843 0 115.674 0v4.52a2.559 2.559 0 01-2.837 2.824 2.812 2.812 0 01-2.116-.748zm3.207-.967a1.6 1.6 0 00.351-1.111v-4.518a1.607 1.607 0 00-.348-1.111 1.74 1.74 0 00-2.188 0 1.607 1.607 0 00-.348 1.111v4.52a1.6 1.6 0 00.351 1.111 1.731 1.731 0 002.182 0z"/><path class="cls-17" d="M228.783 347.195l-1.461 1.461" id="LINE-173" data-name="LINE"/><path class="cls-17" d="M227.322 345.734l1.461 1.461" id="LINE-174" data-name="LINE"/><path class="cls-17" d="M162.613 347.257l1.461-1.461" id="LINE-175" data-name="LINE"/><path class="cls-17" d="M164.074 348.718l-1.461-1.461" id="LINE-176" data-name="LINE"/><path class="cls-17" d="M319.361 347.229v-14.442" id="LINE-177" data-name="LINE"/><path class="cls-17" d="M228.652 347.257v-14.442" id="LINE-178" data-name="LINE"/><path class="cls-17" d="M228.652 347.257l90.709-.061" id="LINE-179" data-name="LINE"/><path d="M260.02 358.81l3.466-4.622a3.46 3.46 0 00.468-.824 2.19 2.19 0 00.168-.8v-.013a1.205 1.205 0 00-.349-.922 1.389 1.389 0 00-.991-.328 1.37 1.37 0 00-.985.358 1.629 1.629 0 00-.458 1.015v.008H259.9v-.008a3.721 3.721 0 01.5-1.459 2.559 2.559 0 01.981-.923 2.929 2.929 0 011.388-.317 3.47 3.47 0 011.518.3 2.132 2.132 0 01.957.886 2.812 2.812 0 01.328 1.4v.008a3.083 3.083 0 01-.219 1.1 4.708 4.708 0 01-.608 1.107l-2.878 3.91h3.76v1.327h-5.607zM266.856 357.284l3.336-7.2h1.435l-3.253 7.115h4.874v1.301h-6.392zm4.286-3.109h1.36v5.851h-1.36zM274.806 358.81l3.466-4.622a3.46 3.46 0 00.468-.824 2.19 2.19 0 00.168-.8v-.013a1.2 1.2 0 00-.349-.922 1.388 1.388 0 00-.991-.328 1.368 1.368 0 00-.984.358 1.623 1.623 0 00-.458 1.015v.008h-1.443v-.008a3.721 3.721 0 01.5-1.459 2.554 2.554 0 01.982-.923 2.922 2.922 0 011.387-.317 3.47 3.47 0 011.518.3 2.132 2.132 0 01.957.886 2.8 2.8 0 01.328 1.4v.008a3.083 3.083 0 01-.219 1.1 4.673 4.673 0 01-.608 1.107l-2.878 3.91h3.76v1.327h-5.606zM282.91 359.376a2.861 2.861 0 01-.721-2.078v-4.518a2.843 2.843 0 115.674 0v4.52a2.559 2.559 0 01-2.837 2.824 2.812 2.812 0 01-2.116-.748zm3.207-.967a1.6 1.6 0 00.351-1.111v-4.518a1.607 1.607 0 00-.348-1.111 1.74 1.74 0 00-2.188 0 1.607 1.607 0 00-.348 1.111v4.52a1.6 1.6 0 00.351 1.111 1.731 1.731 0 002.182 0z"/><path class="cls-17" d="M319.448 347.195l-1.461 1.461" id="LINE-180" data-name="LINE"/><path class="cls-17" d="M317.987 345.734l1.461 1.461" id="LINE-181" data-name="LINE"/><path class="cls-17" d="M228.652 347.257l1.461-1.461" id="LINE-182" data-name="LINE"/><path class="cls-17" d="M230.113 348.718l-1.461-1.461" id="LINE-183" data-name="LINE"/><path class="cls-17" d="M405.601 347.229v-14.442" id="LINE-184" data-name="LINE"/><path class="cls-17" d="M319.361 347.257v-14.442" id="LINE-185" data-name="LINE"/><path class="cls-17" d="M319.361 347.256l86.25-.059" id="LINE-186" data-name="LINE"/><path d="M351.12 358.81l3.465-4.622a3.393 3.393 0 00.468-.824 2.169 2.169 0 00.168-.8v-.013a1.2 1.2 0 00-.348-.922 1.392 1.392 0 00-.992-.328 1.368 1.368 0 00-.984.358 1.629 1.629 0 00-.458 1.015v.008H351v-.008a3.721 3.721 0 01.5-1.459 2.552 2.552 0 01.981-.923 2.924 2.924 0 011.388-.317 3.469 3.469 0 011.517.3 2.127 2.127 0 01.957.886 2.8 2.8 0 01.328 1.4v.008a3.1 3.1 0 01-.218 1.1 4.713 4.713 0 01-.609 1.107l-2.878 3.91h3.76v1.327h-5.606zM358.352 358.81l3.466-4.622a3.46 3.46 0 00.468-.824 2.19 2.19 0 00.168-.8v-.013a1.205 1.205 0 00-.349-.922 1.388 1.388 0 00-.991-.328 1.37 1.37 0 00-.985.358 1.629 1.629 0 00-.458 1.015v.008h-1.442v-.008a3.721 3.721 0 01.5-1.459 2.559 2.559 0 01.981-.923 2.929 2.929 0 011.388-.317 3.47 3.47 0 011.518.3 2.132 2.132 0 01.957.886 2.8 2.8 0 01.328 1.4v.008a3.083 3.083 0 01-.219 1.1 4.708 4.708 0 01-.608 1.107l-2.878 3.91h3.76v1.327h-5.606zM366.391 359.77a2.3 2.3 0 01-.947-1.026 3.715 3.715 0 01-.324-1.624v-.006a5.537 5.537 0 01.13-1.162 6.61 6.61 0 01.376-1.2c.027-.068.056-.135.088-.2l.1-.2 2.16-4.279h1.5l-2.536 4.957.007-.246a1.2 1.2 0 01.5-.5 1.59 1.59 0 01.766-.178 2.435 2.435 0 011.326.35 2.177 2.177 0 01.841 1.015 4.042 4.042 0 01.287 1.6v.008a3.794 3.794 0 01-.326 1.641 2.294 2.294 0 01-.949 1.039 3.355 3.355 0 01-3 0zm2.52-1.4a1.729 1.729 0 00.358-1.17 1.969 1.969 0 00-.376-1.289 1.314 1.314 0 00-1.073-.455 1.132 1.132 0 00-.964.459 2.121 2.121 0 00-.342 1.291v.008a1.7 1.7 0 00.36 1.165 1.474 1.474 0 002.037 0zM373.23 359.376a2.865 2.865 0 01-.721-2.078v-4.518a2.854 2.854 0 01.725-2.082 3.39 3.39 0 014.228 0 2.862 2.862 0 01.721 2.086v4.516a2.558 2.558 0 01-2.837 2.824 2.814 2.814 0 01-2.116-.748zm3.207-.967a1.6 1.6 0 00.352-1.111v-4.518a1.607 1.607 0 00-.349-1.111 1.74 1.74 0 00-2.188 0 1.607 1.607 0 00-.348 1.111v4.52a1.6 1.6 0 00.351 1.111 1.731 1.731 0 002.182 0z"/><path class="cls-17" d="M405.611 347.195l-1.461 1.461" id="LINE-187" data-name="LINE"/><path class="cls-17" d="M404.15 345.734l1.461 1.461" id="LINE-188" data-name="LINE"/><path class="cls-17" d="M319.361 347.257l1.461-1.461" id="LINE-189" data-name="LINE"/><path class="cls-17" d="M320.822 348.718l-1.461-1.461" id="LINE-190" data-name="LINE"/><path class="cls-17" d="M162.548 347.229v-14.442" id="LINE-191" data-name="LINE"/><path class="cls-17" d="M94.533 347.257v-14.442" id="LINE-192" data-name="LINE"/><path class="cls-17" d="M94.533 347.249l68.015-.046" id="LINE-193" data-name="LINE"/><path d="M117.943 360.019h-1.395V351.6l-1.415.869v-1.444l1.415-.943h1.395zM121.525 359.78a2.5 2.5 0 01-1.057-.968 2.784 2.784 0 01-.372-1.452v-.16a2.8 2.8 0 01.372-1.4 2.48 2.48 0 01.995-.99 2.193 2.193 0 01-.844-.831 2.246 2.246 0 01-.318-1.146v-.238a2.652 2.652 0 01.349-1.371 2.356 2.356 0 01.984-.916 3.526 3.526 0 012.953 0 2.364 2.364 0 01.985.916 2.651 2.651 0 01.348 1.371v.238a2.2 2.2 0 01-.325 1.156 2.172 2.172 0 01-.857.821 2.56 2.56 0 011.008.994 2.726 2.726 0 01.38 1.4v.164a2.775 2.775 0 01-.373 1.452 2.5 2.5 0 01-1.056.968 3.848 3.848 0 01-3.172 0zm2.44-1.189a1.393 1.393 0 00.572-.537 1.567 1.567 0 00.2-.8v-.1a1.58 1.58 0 00-.2-.8 1.393 1.393 0 00-.572-.537 2.007 2.007 0 00-1.709 0 1.387 1.387 0 00-.571.541 1.587 1.587 0 00-.2.807v.1a1.531 1.531 0 00.2.792 1.37 1.37 0 00.571.531 2.021 2.021 0 001.709 0zm-.116-4.482a1.248 1.248 0 00.5-.516 1.628 1.628 0 00.178-.772v-.1a1.5 1.5 0 00-.178-.739 1.222 1.222 0 00-.5-.5 1.652 1.652 0 00-1.476 0 1.222 1.222 0 00-.5.5 1.505 1.505 0 00-.178.744v.1a1.582 1.582 0 00.178.762 1.256 1.256 0 00.5.512 1.6 1.6 0 001.476 0zM127.937 357.284l3.336-7.2h1.436l-3.254 7.115h4.874v1.301h-6.392zm4.286-3.109h1.361v5.851h-1.361zM136.758 359.376a2.865 2.865 0 01-.72-2.078v-4.518a2.843 2.843 0 115.673 0v4.52a2.558 2.558 0 01-2.836 2.824 2.816 2.816 0 01-2.117-.748zm3.207-.967a1.593 1.593 0 00.352-1.111v-4.518a1.6 1.6 0 00-.349-1.111 1.738 1.738 0 00-2.187 0 1.6 1.6 0 00-.349 1.111v4.52a1.593 1.593 0 00.352 1.111 1.73 1.73 0 002.181 0z"/><path class="cls-17" d="M162.548 347.195l-1.461 1.461" id="LINE-194" data-name="LINE"/><path class="cls-17" d="M161.087 345.734l1.461 1.461" id="LINE-195" data-name="LINE"/><path class="cls-17" d="M94.533 347.257l1.462-1.461" id="LINE-196" data-name="LINE"/><path class="cls-17" d="M95.995 348.718l-1.462-1.461" id="LINE-197" data-name="LINE"/><path d="M420.066 269.917l-7.2-3.336v-1.435l7.116 3.253v-4.874h1.292v6.392zm-3.11-4.286v-1.36h5.851v1.36zM422.158 261.1a2.866 2.866 0 01-2.078.72h-4.519a2.853 2.853 0 01-2.081-.724 3.391 3.391 0 010-4.229 2.863 2.863 0 012.085-.72h4.519a2.856 2.856 0 012.082.724 3.38 3.38 0 010 4.229zm-.967-3.207a1.593 1.593 0 00-1.111-.352h-4.519a1.6 1.6 0 00-1.11.349 1.738 1.738 0 000 2.187 1.6 1.6 0 001.11.349h4.519a1.593 1.593 0 001.111-.352 1.733 1.733 0 000-2.181zM420.066 254.229l-7.2-3.336v-1.436l7.116 3.254v-4.874h1.292v6.392zm-3.11-4.287v-1.36h5.851v1.36zM422.609 244.688a2.4 2.4 0 01-.855.952 3.4 3.4 0 01-1.346.488h-.008v-1.395h.007a1.29 1.29 0 00.851-.437 1.42 1.42 0 00.3-.943 1.263 1.263 0 00-.447-1.036 1.944 1.944 0 00-1.262-.366h-.834a1.93 1.93 0 00-1.254.366 1.261 1.261 0 00-.448 1.036 1.316 1.316 0 00.205.7 1.964 1.964 0 00.574.588v1.271h-5.236v-5.065h1.326v3.671h2.235a2.028 2.028 0 01-.328-.581 1.927 1.927 0 01-.116-.657 2.885 2.885 0 01.356-1.473 2.284 2.284 0 011.039-.93 3.9 3.9 0 011.647-.317h.834a3.778 3.778 0 011.648.328 2.324 2.324 0 011.042.957 2.993 2.993 0 01.359 1.511 2.924 2.924 0 01-.289 1.332z"/><path class="cls-17" d="M425.263 177.611h-19.662" id="LINE-198" data-name="LINE"/><path class="cls-17" d="M425.263 332.724h-19.61" id="LINE-199" data-name="LINE"/><path class="cls-17" d="M425.276 177.691l1.462 1.461" id="LINE-200" data-name="LINE"/><path class="cls-17" d="M423.817 179.154l1.461-1.461" id="LINE-201" data-name="LINE"/><path class="cls-17" d="M425.263 332.724l-1.461-1.462" id="LINE-202" data-name="LINE"/><path class="cls-17" d="M426.724 331.262l-1.461 1.462" id="LINE-203" data-name="LINE"/><path class="cls-17" d="M425.263 177.611v155.113"/><path d="M422.8 165.264v1.394h-8.422l.869 1.415H413.8l-.943-1.415v-1.394zM421.59 163.158l-4.621-3.466a3.416 3.416 0 00-.823-.467 2.169 2.169 0 00-.8-.168h-.014a1.2 1.2 0 00-.922.348 1.391 1.391 0 00-.328.991 1.369 1.369 0 00.359.985 1.629 1.629 0 001.015.458h.006v1.442h-.006a3.721 3.721 0 01-1.459-.5 2.559 2.559 0 01-.923-.981 2.927 2.927 0 01-.319-1.388 3.451 3.451 0 01.305-1.517 2.131 2.131 0 01.885-.957 2.8 2.8 0 011.4-.329h.007a3.106 3.106 0 011.1.219 4.733 4.733 0 011.107.609l3.91 2.877v-3.759h1.331v5.6zM422.158 155.055a2.866 2.866 0 01-2.078.72h-4.519a2.853 2.853 0 01-2.081-.724 3.391 3.391 0 010-4.229 2.863 2.863 0 012.085-.72h4.519a2.856 2.856 0 012.082.724 3.38 3.38 0 010 4.229zm-.967-3.207a1.593 1.593 0 00-1.111-.352h-4.519a1.6 1.6 0 00-1.11.349 1.738 1.738 0 000 2.187 1.6 1.6 0 001.11.349h4.519a1.593 1.593 0 001.111-.352 1.733 1.733 0 000-2.181zM422.158 147.33a2.862 2.862 0 01-2.078.721h-4.519a2.849 2.849 0 01-2.081-.725 3.39 3.39 0 010-4.228 2.859 2.859 0 012.085-.721h4.519a2.852 2.852 0 012.082.725 3.379 3.379 0 010 4.228zm-.967-3.207a1.6 1.6 0 00-1.111-.352h-4.519a1.6 1.6 0 00-1.11.349 1.74 1.74 0 000 2.188 1.6 1.6 0 001.11.348h4.519a1.6 1.6 0 001.111-.351 1.735 1.735 0 000-2.182z"/><path class="cls-17" d="M425.263 132.268h-19.662" id="LINE-204" data-name="LINE"/><path class="cls-17" d="M425.263 177.611h-19.61" id="LINE-205" data-name="LINE"/><path class="cls-17" d="M425.276 132.268l1.462 1.461" id="LINE-206" data-name="LINE"/><path class="cls-17" d="M423.817 133.73l1.461-1.461" id="LINE-207" data-name="LINE"/><path class="cls-17" d="M425.263 177.611l-1.461-1.461" id="LINE-208" data-name="LINE"/><path class="cls-17" d="M426.724 176.15l-1.461 1.461" id="LINE-209" data-name="LINE"/><path class="cls-17" d="M425.263 132.268v45.343"/><path d="M422.8 40.673v1.394h-8.422l.869 1.415H413.8l-.943-1.415v-1.394zM422.158 37.7a2.862 2.862 0 01-2.078.721h-4.519a2.849 2.849 0 01-2.081-.725 2.82 2.82 0 01-.742-2.112 2.829 2.829 0 01.738-2.116 2.859 2.859 0 012.085-.721h4.519a2.852 2.852 0 012.082.725 2.823 2.823 0 01.741 2.112 2.812 2.812 0 01-.745 2.116zm-.967-3.207a1.6 1.6 0 00-1.111-.351h-4.519a1.6 1.6 0 00-1.11.348 1.74 1.74 0 000 2.188 1.6 1.6 0 001.11.348h4.519a1.6 1.6 0 001.111-.351 1.735 1.735 0 000-2.182zM422.158 29.972a2.866 2.866 0 01-2.078.72h-4.519a2.853 2.853 0 01-2.081-.724 2.824 2.824 0 01-.742-2.113 2.832 2.832 0 01.738-2.116 2.863 2.863 0 012.085-.72h4.519a2.856 2.856 0 012.082.724 2.826 2.826 0 01.741 2.112 2.816 2.816 0 01-.745 2.117zm-.967-3.207a1.593 1.593 0 00-1.111-.352h-4.519a1.6 1.6 0 00-1.11.349 1.738 1.738 0 000 2.187 1.6 1.6 0 001.11.349h4.519a1.593 1.593 0 001.111-.352 1.733 1.733 0 000-2.181zM422.609 21.528a2.4 2.4 0 01-.855.951 3.385 3.385 0 01-1.346.489h-.008v-1.395h.007a1.294 1.294 0 00.851-.437 1.421 1.421 0 00.3-.944 1.261 1.261 0 00-.447-1.035 1.944 1.944 0 00-1.262-.366h-.834a1.93 1.93 0 00-1.254.366 1.259 1.259 0 00-.448 1.035 1.317 1.317 0 00.205.7 1.964 1.964 0 00.574.588v1.271h-5.236v-5.067h1.326v3.67h2.235a2 2 0 01-.328-.581 1.917 1.917 0 01-.116-.656 2.885 2.885 0 01.356-1.473 2.284 2.284 0 011.039-.93 3.9 3.9 0 011.647-.318h.834a3.778 3.778 0 011.648.329 2.318 2.318 0 011.042.957 2.989 2.989 0 01.359 1.51 2.928 2.928 0 01-.289 1.336z"/><path class="cls-17" d="M425.263 11.25h-19.662" id="LINE-210" data-name="LINE"/><path class="cls-17" d="M425.263 49.218h-19.61" id="LINE-211" data-name="LINE"/><path class="cls-17" d="M425.276 11.25l1.462 1.461" id="LINE-212" data-name="LINE"/><path class="cls-17" d="M423.817 12.713l1.461-1.461" id="LINE-213" data-name="LINE"/><path class="cls-17" d="M425.263 49.218l-1.461-1.461" id="LINE-214" data-name="LINE"/><path class="cls-17" d="M426.724 47.757l-1.461 1.461" id="LINE-215" data-name="LINE"/><path class="cls-17" d="M425.263 11.25v37.968"/><path d="M421.59 104.785l-4.621-3.466a3.416 3.416 0 00-.823-.467 2.169 2.169 0 00-.8-.168h-.014a1.2 1.2 0 00-.922.348 1.391 1.391 0 00-.328.991 1.369 1.369 0 00.359.985 1.629 1.629 0 001.015.458h.006v1.442h-.006a3.721 3.721 0 01-1.459-.5 2.559 2.559 0 01-.923-.981 2.927 2.927 0 01-.319-1.388 3.448 3.448 0 01.305-1.517 2.138 2.138 0 01.885-.958 2.813 2.813 0 011.4-.328h.007a3.106 3.106 0 011.1.219 4.733 4.733 0 011.107.609l3.91 2.877V99.18h1.331v5.6zM421.59 97.553l-4.621-3.466a3.42 3.42 0 00-.823-.468 2.19 2.19 0 00-.8-.168h-.014a1.2 1.2 0 00-.922.349 1.388 1.388 0 00-.328.991 1.368 1.368 0 00.359.984 1.623 1.623 0 001.015.458h.006v1.443h-.006a3.721 3.721 0 01-1.459-.5 2.554 2.554 0 01-.923-.982 2.923 2.923 0 01-.319-1.387 3.456 3.456 0 01.305-1.518 2.136 2.136 0 01.885-.957 2.8 2.8 0 011.4-.328h.007a3.084 3.084 0 011.1.219 4.692 4.692 0 011.107.608l3.91 2.878v-3.76h1.331v5.606zM422.158 89.449a2.862 2.862 0 01-2.078.721h-4.519a2.849 2.849 0 01-2.081-.725 3.39 3.39 0 010-4.228 2.859 2.859 0 012.085-.721h4.519a2.852 2.852 0 012.082.725 3.379 3.379 0 010 4.228zm-.967-3.207a1.6 1.6 0 00-1.111-.351h-4.519a1.6 1.6 0 00-1.11.348 1.74 1.74 0 000 2.188 1.6 1.6 0 001.11.348h4.519a1.6 1.6 0 001.111-.351 1.735 1.735 0 000-2.182zM422.158 81.725a2.866 2.866 0 01-2.078.72h-4.519a2.853 2.853 0 01-2.081-.724 3.391 3.391 0 010-4.229 2.863 2.863 0 012.085-.721h4.519a2.856 2.856 0 012.082.725 3.38 3.38 0 010 4.229zm-.967-3.207a1.593 1.593 0 00-1.111-.352h-4.519a1.6 1.6 0 00-1.11.349 1.738 1.738 0 000 2.187 1.6 1.6 0 001.11.349h4.519a1.593 1.593 0 001.111-.352 1.733 1.733 0 000-2.181z"/><path class="cls-17" d="M425.263 49.218h-19.662" id="LINE-216" data-name="LINE"/><path class="cls-17" d="M425.263 132.268h-19.61" id="LINE-217" data-name="LINE"/><path class="cls-17" d="M425.276 49.138l1.462 1.461" id="LINE-218" data-name="LINE"/><path class="cls-17" d="M423.817 50.601l1.461-1.461" id="LINE-219" data-name="LINE"/><path class="cls-17" d="M425.263 132.268l-1.461-1.461" id="LINE-220" data-name="LINE"/><path class="cls-17" d="M426.724 130.807l-1.461 1.461" id="LINE-221" data-name="LINE"/><path class="cls-17" d="M425.263 49.218v83.05"/></g></svg>