<svg xmlns="http://www.w3.org/2000/svg" width="357.872" height="427.502" viewBox="0 0 268.404 320.626"><defs><pattern id="Новый_узор_3" data-name="Новый узор 3" width="35.15" height="35.15" patternTransform="translate(9.701 -23.402)" patternUnits="userSpaceOnUse"><path class="cls-1" d="M0 0h35.15v35.15H0z"/><path class="cls-2" d="M35.149 35.15h35.15V70.3h-35.15z"/><path class="cls-2" d="M0 35.15h35.15V70.3H0zM-35.15 35.15H0V70.3h-35.15z"/><path class="cls-2" d="M35.149.001h35.15v35.15h-35.15z"/><path class="cls-2" d="M0 .001h35.15v35.15H0zM-35.15.001H0v35.15h-35.15zM35.149-35.149h35.15V.001h-35.15z"/><path class="cls-2" d="M0-35.149h35.15V.001H0zM-35.15-35.149H0V.001h-35.15z"/></pattern><pattern id="Новый_узор_4" data-name="Новый узор 4" width="9.822" height="9.822" patternTransform="translate(1.424 -6.847)" patternUnits="userSpaceOnUse"><path class="cls-1" d="M0 0h9.822v9.822H0z"/><path class="cls-3" d="M14.733 19.647L9.82 14.735l4.913-4.913 4.912 4.913-4.912 4.912z"/><path class="cls-3" d="M4.911 19.647l-4.913-4.912 4.913-4.913 4.912 4.913-4.912 4.912z"/><path class="cls-3" d="M-4.912 19.647l-4.912-4.912 4.912-4.913 4.913 4.913-4.913 4.912zM14.733 9.825L9.82 4.912 14.733 0l4.912 4.912-4.912 4.913z"/><path class="cls-3" d="M4.911 9.825L-.002 4.912 4.911 0l4.912 4.912-4.912 4.913z"/><path class="cls-3" d="M-4.912 9.825l-4.912-4.913L-4.912 0 .001 4.912l-4.913 4.913zM14.733.003L9.82-4.91l4.913-4.912 4.912 4.912L14.733.003z"/><path class="cls-3" d="M4.911.003L-.002-4.91l4.913-4.912L9.823-4.91 4.911.003z"/><path class="cls-3" d="M-4.912.003L-9.824-4.91l4.912-4.912L.001-4.91-4.912.003z"/></pattern><style>.cls-1,.cls-10,.cls-12,.cls-14,.cls-2,.cls-3,.cls-7{fill:none}.cls-2{stroke:#ededed}.cls-10,.cls-14,.cls-2,.cls-3,.cls-7{stroke-linecap:round;stroke-linejoin:round;stroke-width:.4px}.cls-3{stroke:#e6e6e6}.cls-3,.cls-7,.cls-8{fill-rule:evenodd}.cls-10,.cls-7{stroke:#020204}.cls-8{fill:#020204}.cls-12{stroke:gray;stroke-width:.6px;stroke-miterlimit:22.926}.cls-14{stroke:#000}</style></defs><g id="_190" data-name="190"><path id="fon" fill="#fff" d="M.25 15.749h267.904v274.572H.25z"/><g id="grid"><path stroke="#dcdcdc" fill="url(#Новый_узор_3)" stroke-linecap="round" stroke-linejoin="round" stroke-width=".4" d="M.25 15.749h267.904v274.438H.25z" id="grid-2" data-name="grid"/></g><path fill="url(#Новый_узор_4)" fill-rule="evenodd" d="M230.58 24.871v15.817h-91.844v50.444H257.196V24.871H230.58z" id="wet_zones" data-name="wet zones"/><g id="walls"><path class="cls-7" d="M94.648.2c-2.421 5.169-3.248 10.518-3.221 17.06"/><path class="cls-8" d="M94.668.091l-.599 1.387 36.354 15.782h.453v-1.511L94.668.091z"/><path class="cls-7" d="M149.838 58.96a33.622 33.622 0 00-12.614-2.288"/><path class="cls-8" d="M149.895 58.981l-1.388-.601-11.283 25.95v.453l1.512.001 11.159-25.803z"/><path class="cls-7" d="M151.289 150.975a41.623 41.623 0 01-13.884 2.468"/><path class="cls-8" d="M151.394 150.935l-12.658-29.271h-1.512v.453l12.783 29.419 1.387-.601z"/><path d="M268.154 290.266H240V266.46h17.2V24.817H130.423V17.26h.453v-1.511h137.278v274.517zm-239.754 0H.25V15.749h91.177v1.511h.454v7.557H11.208V266.46H28.4v23.806zm128.474 0V266.46H111.53v23.806z" stroke-width=".5" stroke-miterlimit="3" fill="#020204" stroke="#020204" fill-rule="evenodd"/><path class="cls-10" d="M156.96 282.63v-16.249M156.96 290.187v-5.668M156.96 284.519v-1.889M240.09 282.63v-16.249M240.09 290.187v-5.668M240.09 284.519v-1.889M240.09 290.187h-83.13M240.09 266.381h-83.13M240.09 282.63h-3.778M236.312 282.63v1.889M236.312 284.519h3.778M185.3 284.519h1.89M187.189 284.519v-1.889M187.189 282.63H185.3M236.312 283.575h-49.123M236.312 282.63h-49.123M187.189 284.519h49.123M185.3 282.63h-.944M184.355 282.63v.944M184.355 283.575h-.944M183.41 283.575v.944M183.41 284.519h1.89M156.96 284.519h3.778M160.738 284.519v-.944M160.738 283.575h-.944M159.794 283.575v-.945M159.794 282.63h-2.834M160.738 284.519h22.672M181.522 281.685h-18.894M184.355 281.685h-2.833M181.522 281.685v1.89M181.522 283.575h2.833M184.355 283.575v-1.891M159.794 283.575h2.834M162.628 283.575v-1.891M162.628 281.685h-2.834M159.794 281.685v1.89M162.628 283.575h18.894M181.522 281.685h-18.894M181.522 282.63h-18.894M240.09 284.519v-1.889M240.09 284.519v-1.889M240.09 290.187v-5.668M240.09 282.63v-16.249M156.96 284.519v-1.889M156.96 284.519v-1.889M156.96 290.187v-5.668M156.96 282.63v-16.249M28.487 282.63v-16.249M28.487 290.187v-5.668M28.487 284.519v-1.889M111.616 282.63v-16.249M111.616 290.187v-5.668M111.616 284.519v-1.889M111.616 290.187H28.487M111.616 266.381H28.487M111.616 282.63h-3.778M107.838 282.63v1.889M107.838 284.519h3.778M56.826 284.519h1.89M58.716 284.519v-1.889M58.716 282.63h-1.89M107.838 283.575H58.716M107.838 282.63H58.716M58.716 284.519h49.122M56.826 282.63h-.945M55.881 282.63v.944M55.881 283.575h-.944M54.937 283.575v.944M54.937 284.519h1.889M28.487 284.519h3.778M32.265 284.519v-.944M32.265 283.575h-.945M31.321 283.575v-.945M31.321 282.63h-2.834M32.265 284.519h22.672M53.048 281.685H34.155M55.881 281.685h-2.833M53.048 281.685v1.89M53.048 283.575h2.833M55.881 283.575v-1.891M31.321 283.575h2.833M34.155 283.575v-1.891M34.155 281.685h-2.834M31.321 281.685v1.89M34.155 283.575h18.893M53.048 281.685H34.155M53.048 282.63H34.155M111.616 284.519v-1.889M111.616 284.519v-1.889M111.616 290.187v-5.668M111.616 282.63v-16.249M28.487 284.519v-1.889M28.487 284.519v-1.889M28.487 290.187v-5.668M28.487 282.63v-16.249"/></g><g id="wall_2" data-name="wall 2"><path d="M138.736 266.461h-3.022V153.1h1.511v.453h1.511v112.908zm-3.022-144.344h1.511v-.453h1.511v-27.51H257.2v-3.022H138.736v-6.349h-1.511v-.453h-1.511v37.787zm3.022-84.452V24.817h-3.022v32.308h1.511v-.453h1.511V40.688h92.2V24.817h-3.023v12.848h-61.78V24.817h-3.023v12.848zM11.208 40.31v-4.157h18.515V24.817h4.156V40.31zm0 45.721h68.015v3.023H11.208z" fill="#fff" fill-rule="evenodd"/><path class="cls-12" d="M13.63 36.15l-2.42 2.13M33.88 24.85l-4.16 3.66M21.05 36.15l-4.72 4.16M33.88 31.39l-4.16 3.66M28.48 36.15l-4.73 4.16M33.88 37.93l-2.7 2.38M16.39 86.03l-3.43 3.02M23.81 86.03l-3.43 3.02M31.23 86.03l-3.43 3.02M38.66 86.03l-3.43 3.02M46.08 86.03l-3.43 3.02M53.49 86.03l-3.42 3.02M60.92 86.03l-3.43 3.02M137.83 24.82l-2.12 1.86M68.34 86.03l-3.42 3.02M138.74 30.55l-3.03 2.67M75.77 86.03l-3.43 3.02M138.74 37.09l-3.03 2.67M138.74 43.63l-3.03 2.67M145.52 37.66l-3.44 3.03M152.93 37.66l-3.44 3.03M166.13 26.03l-3.02 2.66M138.74 50.16l-3.03 2.67M160.36 37.66l-3.44 3.03M166.13 32.58l-3.02 2.66M167.78 37.66l-3.44 3.03M175.2 37.66l-3.44 3.03M182.63 37.66l-3.44 3.03M190.05 37.66l-3.44 3.03M137.07 84.33l-1.36 1.2M138.74 89.4l-3.03 2.67M197.47 37.66l-3.44 3.03M138.74 95.94l-3.03 2.66M204.89 37.66l-3.44 3.03M144.19 91.13l-3.42 3.02M138.74 102.47l-3.03 2.67M212.31 37.66l-3.44 3.03M151.62 91.13l-3.43 3.02M138.74 109.01l-3.03 2.67M219.73 37.66l-3.43 3.03M230.94 27.79l-3.03 2.67M159.04 91.13l-3.43 3.02M166.47 91.13l-3.43 3.02M230.94 34.33L227.91 37M227.16 37.66l-3.44 3.03M138.74 115.55l-3.03 2.67M173.89 91.13l-3.43 3.02M181.31 91.13l-3.43 3.02M188.73 91.13l-3.43 3.02M196.15 91.13l-3.42 3.02M203.57 91.13l-3.42 3.02M211 91.13l-3.43 3.02M138.74 154.78l-3.03 2.67M218.42 91.13l-3.43 3.02M138.74 161.32l-3.03 2.67M225.84 91.13l-3.43 3.02M138.74 167.86l-3.03 2.67M233.26 91.13l-3.43 3.02M138.74 174.4l-3.03 2.67M240.68 91.13l-3.42 3.02M138.74 180.94l-3.03 2.67M248.11 91.13l-3.43 3.02M138.74 187.47l-3.03 2.67M255.53 91.13l-3.43 3.02M138.74 194.01l-3.03 2.67M138.74 200.56l-3.03 2.66M138.74 207.09l-3.03 2.67M138.74 213.63l-3.03 2.67M138.74 220.17l-3.03 2.66M138.74 226.71l-3.03 2.67M138.74 233.25l-3.03 2.67M138.74 239.78l-3.03 2.67M138.74 246.32l-3.03 2.67M138.74 252.86l-3.03 2.67M138.74 259.4l-3.03 2.67M138.74 265.94l-.59.52"/><path d="M138.736 266.461h-3.022V153.1h1.511v.453h1.511v112.908zm-3.022-144.344h1.511v-.453h1.511v-27.51H257.2v-3.022H138.736v-6.349h-1.511v-.453h-1.511v37.787zm3.022-84.452V24.817h-3.022v32.308h1.511v-.453h1.511V40.688h92.2V24.817h-3.023v12.848h-61.78V24.817h-3.023v12.848zM11.208 40.31v-4.157h18.515V24.817h4.156V40.31zm0 45.721h68.015v3.023H11.208z" stroke="#000" stroke-miterlimit="22.926" stroke-width=".5" fill-rule="evenodd" fill="none"/></g></g><g id="sizes"><path class="cls-14" d="M157.848 56.672h-19.03" id="LINE"/><path class="cls-14" d="M157.848 84.796h-19.309" id="LINE-2" data-name="LINE"/><path class="cls-14" d="M157.848 84.796V56.672" id="LINE-3" data-name="LINE"/><path d="M170.2 80.045a2.508 2.508 0 01-.968 1.056 2.786 2.786 0 01-1.452.372h-.164a2.8 2.8 0 01-1.4-.372 2.5 2.5 0 01-.991-1 2.182 2.182 0 01-.831.845 2.24 2.24 0 01-1.144.317h-.24a2.657 2.657 0 01-1.371-.348 2.377 2.377 0 01-.916-.985 3.526 3.526 0 010-2.953 2.369 2.369 0 01.916-.984 2.647 2.647 0 011.371-.349h.24a2.208 2.208 0 011.155.325 2.165 2.165 0 01.82.858 2.58 2.58 0 01.994-1.008 2.732 2.732 0 011.4-.38h.164a2.786 2.786 0 011.452.372 2.511 2.511 0 01.968 1.057 3.848 3.848 0 010 3.172zm-5.671-2.325a1.26 1.26 0 00-.516-.5 1.628 1.628 0 00-.772-.177h-.1a1.5 1.5 0 00-.738.177 1.235 1.235 0 00-.5.5 1.654 1.654 0 000 1.477 1.222 1.222 0 00.5.5 1.517 1.517 0 00.745.178h.1a1.591 1.591 0 00.762-.178 1.246 1.246 0 00.513-.5 1.589 1.589 0 000-1.477zm4.481-.116a1.384 1.384 0 00-.537-.571 1.549 1.549 0 00-.8-.2h-.095a1.568 1.568 0 00-.8.2 1.382 1.382 0 00-.536.571 2 2 0 000 1.709 1.374 1.374 0 00.54.572 1.593 1.593 0 00.806.2h.1a1.547 1.547 0 00.793-.2 1.375 1.375 0 00.529-.572 2.012 2.012 0 000-1.709zM169.8 72.775a2.862 2.862 0 01-2.078.721H163.2a2.843 2.843 0 110-5.674h4.518a2.848 2.848 0 012.081.725 3.374 3.374 0 010 4.228zm-.967-3.207a1.6 1.6 0 00-1.111-.351H163.2a1.608 1.608 0 00-1.112.348 1.747 1.747 0 000 2.188 1.608 1.608 0 001.112.348h4.518a1.6 1.6 0 001.111-.351 1.735 1.735 0 000-2.182zM169.8 65.051a2.866 2.866 0 01-2.078.72H163.2a2.843 2.843 0 110-5.674h4.518a2.852 2.852 0 012.081.725 3.375 3.375 0 010 4.229zm-.967-3.207a1.591 1.591 0 00-1.111-.352H163.2a1.6 1.6 0 00-1.112.349 1.745 1.745 0 000 2.187 1.6 1.6 0 001.112.349h4.518a1.591 1.591 0 001.111-.352 1.733 1.733 0 000-2.181z"/><path class="cls-14" d="M157.848 56.672l1.461 1.461" id="LINE-4" data-name="LINE"/><path class="cls-14" d="M156.386 58.133l1.462-1.461" id="LINE-5" data-name="LINE"/><path class="cls-14" d="M157.856 84.796l-1.461-1.461" id="LINE-6" data-name="LINE"/><path class="cls-14" d="M159.317 83.335l-1.461 1.461" id="LINE-7" data-name="LINE"/><path class="cls-14" d="M158.126 121.664h-19.03" id="LINE-8" data-name="LINE"/><path class="cls-14" d="M158.126 153.555h-19.308" id="LINE-9" data-name="LINE"/><path class="cls-14" d="M158.127 153.555v-31.891" id="LINE-10" data-name="LINE"/><path d="M165.41 144.383l.246.006a1.035 1.035 0 01.461.516 2.081 2.081 0 01.147.817 2.2 2.2 0 01-.362 1.251 2.367 2.367 0 01-1.022.838 3.693 3.693 0 01-1.528.3h-.007a3.818 3.818 0 01-1.647-.324 2.283 2.283 0 01-1.039-.951 2.986 2.986 0 01-.356-1.5 2.923 2.923 0 01.363-1.5 2.318 2.318 0 011.052-.947 3.885 3.885 0 011.662-.325h.006a5.177 5.177 0 011.138.137 6.965 6.965 0 011.2.39l.181.082c.061.027.122.056.182.089l4.258 2.119v1.5zm-.861-.066a1.953 1.953 0 00-1.251-.358h-.007a1.855 1.855 0 00-1.217.358 1.419 1.419 0 000 2.037 1.85 1.85 0 001.224.36h.006a1.918 1.918 0 001.247-.36 1.392 1.392 0 000-2.037zM169.7 140a2.868 2.868 0 01-2.078.721h-4.519a2.856 2.856 0 01-2.082-.725 3.393 3.393 0 010-4.229 2.861 2.861 0 012.085-.72h4.519a2.853 2.853 0 012.081.724 3.379 3.379 0 010 4.229zm-.968-3.207a1.59 1.59 0 00-1.11-.352h-4.519a1.6 1.6 0 00-1.111.349 1.742 1.742 0 000 2.187 1.6 1.6 0 001.111.349h4.519a1.59 1.59 0 001.11-.352 1.73 1.73 0 000-2.181zM169.7 132.273a2.864 2.864 0 01-2.078.721h-4.519a2.852 2.852 0 01-2.082-.725 3.391 3.391 0 010-4.228 2.858 2.858 0 012.085-.721h4.519a2.849 2.849 0 012.081.725 3.377 3.377 0 010 4.228zm-.968-3.207a1.6 1.6 0 00-1.11-.351h-4.519a1.607 1.607 0 00-1.111.348 1.743 1.743 0 000 2.188 1.607 1.607 0 001.111.348h4.519a1.6 1.6 0 001.11-.351 1.731 1.731 0 000-2.182z"/><path class="cls-14" d="M158.126 121.664l1.461 1.461" id="LINE-11" data-name="LINE"/><path class="cls-14" d="M156.665 123.125l1.461-1.461" id="LINE-12" data-name="LINE"/><path class="cls-14" d="M158.135 153.555l-1.462-1.461" id="LINE-13" data-name="LINE"/><path class="cls-14" d="M159.596 152.094l-1.461 1.461" id="LINE-14" data-name="LINE"/><path class="cls-14" d="M138.736 114.911h118.411" id="LINE-15" data-name="LINE"/><path d="M187.248 110.857l-.636-.3a2.522 2.522 0 01-1.022-.882 3.2 3.2 0 01-.489-1.392h1.422a1.491 1.491 0 00.267.7 1.227 1.227 0 00.53.408 2.012 2.012 0 00.762.132 1.483 1.483 0 001.073-.369 1.376 1.376 0 00.383-1.039v-.3a1.671 1.671 0 00-.363-1.151 1.3 1.3 0 00-1.025-.407h-.7v-1.326h.7a1.164 1.164 0 00.9-.349 1.4 1.4 0 00.322-.984v-.308a1.193 1.193 0 00-.339-.909 1.339 1.339 0 00-.96-.321 1.462 1.462 0 00-.636.133 1.212 1.212 0 00-.474.41 1.87 1.87 0 00-.285.694h-1.415a3.639 3.639 0 01.516-1.4 2.55 2.55 0 01.961-.882 2.867 2.867 0 011.333-.3 2.757 2.757 0 011.989.676 2.521 2.521 0 01.7 1.908v.164a2.154 2.154 0 01-.4 1.3 2.276 2.276 0 01-1.142.806 2.027 2.027 0 011.261.8 2.645 2.645 0 01.448 1.586v.164a3.051 3.051 0 01-.335 1.483 2.207 2.207 0 01-.974.937 3.389 3.389 0 01-1.541.321zM195.314 110.755h-1.394v-8.422l-1.415.868v-1.442l1.415-.944h1.394zM197.42 109.545l3.465-4.621a3.393 3.393 0 00.468-.824 2.185 2.185 0 00.168-.8v-.014a1.207 1.207 0 00-.348-.923 1.392 1.392 0 00-.992-.328 1.368 1.368 0 00-.984.359 1.629 1.629 0 00-.458 1.015v.007H197.3v-.007a3.727 3.727 0 01.5-1.459 2.559 2.559 0 01.981-.923 2.924 2.924 0 011.388-.318 3.454 3.454 0 011.517.3 2.136 2.136 0 01.957.885 2.809 2.809 0 01.328 1.4v.006a3.1 3.1 0 01-.218 1.1 4.713 4.713 0 01-.609 1.107l-2.878 3.911h3.76v1.326h-5.606zM206.242 110.563a2.4 2.4 0 01-.951-.854 3.4 3.4 0 01-.489-1.347v-.007h1.4v.007a1.3 1.3 0 00.437.852 1.423 1.423 0 00.944.3 1.261 1.261 0 001.035-.447 1.944 1.944 0 00.366-1.262v-.834a1.93 1.93 0 00-.366-1.254 1.261 1.261 0 00-1.035-.448 1.323 1.323 0 00-.7.2 1.945 1.945 0 00-.588.575h-1.272v-5.237h5.066v1.326h-3.671v2.236a1.992 1.992 0 01.581-.328 1.9 1.9 0 01.656-.117 2.9 2.9 0 011.474.356 2.287 2.287 0 01.929 1.039 3.9 3.9 0 01.318 1.647v.834a3.789 3.789 0 01-.328 1.648 2.332 2.332 0 01-.957 1.043 3 3 0 01-1.511.358 2.918 2.918 0 01-1.338-.286z"/><path class="cls-14" d="M256.983 114.911l-1.461 1.461" id="LINE-16" data-name="LINE"/><path class="cls-14" d="M255.522 113.45l1.461 1.461" id="LINE-17" data-name="LINE"/><path class="cls-14" d="M138.736 114.91l1.461-1.461" id="LINE-18" data-name="LINE"/><path class="cls-14" d="M140.197 116.371l-1.461-1.461" id="LINE-19" data-name="LINE"/><path class="cls-14" d="M11.43 257.194h124.284" id="LINE-20" data-name="LINE"/><path d="M61.257 253.14l-.636-.3a2.5 2.5 0 01-1.023-.882 3.182 3.182 0 01-.488-1.391h1.422a1.507 1.507 0 00.267.7 1.238 1.238 0 00.53.406 1.99 1.99 0 00.761.134 1.481 1.481 0 001.074-.37 1.376 1.376 0 00.383-1.039v-.3a1.681 1.681 0 00-.363-1.153 1.3 1.3 0 00-1.025-.406h-.7v-1.326h.7a1.162 1.162 0 00.9-.349 1.4 1.4 0 00.321-.984v-.308a1.191 1.191 0 00-.338-.909 1.334 1.334 0 00-.96-.321 1.456 1.456 0 00-.636.133 1.2 1.2 0 00-.475.41 1.862 1.862 0 00-.284.694h-1.413a3.615 3.615 0 01.516-1.394 2.518 2.518 0 01.961-.882 2.84 2.84 0 011.333-.3 2.753 2.753 0 011.989.677 2.519 2.519 0 01.7 1.907v.164a2.154 2.154 0 01-.4 1.3 2.282 2.282 0 01-1.142.806 2.023 2.023 0 011.261.8 2.645 2.645 0 01.448 1.586v.164a3.061 3.061 0 01-.335 1.484 2.22 2.22 0 01-.974.936 3.4 3.4 0 01-1.542.321zM68.66 253.14l-.636-.3a2.492 2.492 0 01-1.024-.886 3.2 3.2 0 01-.489-1.391h1.422a1.507 1.507 0 00.267.7 1.244 1.244 0 00.53.406 1.992 1.992 0 00.762.134 1.479 1.479 0 001.073-.37 1.376 1.376 0 00.383-1.039v-.3a1.681 1.681 0 00-.362-1.153 1.306 1.306 0 00-1.026-.406h-.7v-1.326h.7a1.164 1.164 0 00.9-.349 1.4 1.4 0 00.321-.984v-.308a1.188 1.188 0 00-.339-.909 1.334 1.334 0 00-.96-.321 1.462 1.462 0 00-.636.133 1.2 1.2 0 00-.474.41 1.863 1.863 0 00-.285.694h-1.41a3.615 3.615 0 01.516-1.394 2.518 2.518 0 01.961-.882 2.843 2.843 0 011.333-.3 2.751 2.751 0 011.989.677 2.519 2.519 0 01.7 1.907v.164a2.148 2.148 0 01-.4 1.3 2.278 2.278 0 01-1.142.806 2.023 2.023 0 011.261.8 2.645 2.645 0 01.448 1.586v.164a3.061 3.061 0 01-.335 1.484 2.21 2.21 0 01-.974.936 3.4 3.4 0 01-1.541.321zM75.048 252.4a2.862 2.862 0 01-.721-2.078V245.8a2.854 2.854 0 01.724-2.082 3.389 3.389 0 014.229 0A2.86 2.86 0 0180 245.8v4.518a2.852 2.852 0 01-.725 2.081 3.377 3.377 0 01-4.228 0zm3.207-.967a1.6 1.6 0 00.351-1.111V245.8a1.6 1.6 0 00-.349-1.112 1.745 1.745 0 00-2.187 0 1.608 1.608 0 00-.349 1.112v4.518a1.6 1.6 0 00.352 1.111 1.735 1.735 0 002.182 0zM83.491 252.846a2.412 2.412 0 01-.951-.854 3.411 3.411 0 01-.489-1.347v-.007h1.395v.007a1.292 1.292 0 00.437.851 1.418 1.418 0 00.944.3 1.259 1.259 0 001.035-.449 1.938 1.938 0 00.366-1.26v-.834a1.933 1.933 0 00-.366-1.253 1.261 1.261 0 00-1.035-.448 1.315 1.315 0 00-.7.206 1.941 1.941 0 00-.588.574H82.27V243.1h5.066v1.327h-3.671v2.235a1.947 1.947 0 01.581-.328 1.9 1.9 0 01.656-.116 2.891 2.891 0 011.474.355 2.277 2.277 0 01.929 1.039 3.9 3.9 0 01.318 1.648v.834a3.791 3.791 0 01-.328 1.647 2.329 2.329 0 01-.957 1.042 3 3 0 01-1.511.359 2.931 2.931 0 01-1.336-.296z"/><path class="cls-14" d="M135.78 257.194l-1.461 1.461" id="LINE-21" data-name="LINE"/><path class="cls-14" d="M134.319 255.733l1.461 1.461" id="LINE-22" data-name="LINE"/><path class="cls-14" d="M11.43 257.193l1.461-1.461" id="LINE-23" data-name="LINE"/><path class="cls-14" d="M12.891 258.654l-1.461-1.461" id="LINE-24" data-name="LINE"/><path class="cls-14" d="M138.736 86.847h118.411" id="LINE-25" data-name="LINE"/><path d="M182.632 84.169l-.636-.3a2.508 2.508 0 01-1.023-.882 3.182 3.182 0 01-.488-1.391h1.422a1.5 1.5 0 00.267.7 1.232 1.232 0 00.53.407 1.99 1.99 0 00.761.134 1.485 1.485 0 001.074-.369 1.378 1.378 0 00.383-1.039v-.3a1.677 1.677 0 00-.363-1.152 1.3 1.3 0 00-1.025-.407h-.7v-1.335h.7a1.166 1.166 0 00.9-.349 1.4 1.4 0 00.321-.985V76.6a1.2 1.2 0 00-.338-.911 1.338 1.338 0 00-.96-.32 1.456 1.456 0 00-.636.133 1.207 1.207 0 00-.475.41 1.871 1.871 0 00-.284.693h-1.415a3.634 3.634 0 01.516-1.394 2.523 2.523 0 01.961-.881 2.852 2.852 0 011.333-.3 2.757 2.757 0 011.989.676 2.521 2.521 0 01.7 1.908v.164a2.154 2.154 0 01-.4 1.3 2.284 2.284 0 01-1.142.807 2.018 2.018 0 011.261.8 2.644 2.644 0 01.448 1.585v.165a3.055 3.055 0 01-.335 1.484 2.208 2.208 0 01-.974.935 3.39 3.39 0 01-1.542.323zM190.7 84.065h-1.4v-8.422l-1.415.869v-1.443l1.415-.943h1.4zM192.817 81.331l3.336-7.2h1.436l-3.254 7.115h4.874v1.293h-6.392zm4.286-3.11h1.361v5.852H197.1zM202.357 83.874a2.4 2.4 0 01-.951-.854 3.41 3.41 0 01-.488-1.347v-.006h1.394v.006a1.291 1.291 0 00.438.851 1.414 1.414 0 00.943.3 1.261 1.261 0 001.035-.448 1.941 1.941 0 00.366-1.261v-.834a1.931 1.931 0 00-.366-1.255 1.261 1.261 0 00-1.035-.448 1.314 1.314 0 00-.7.2 1.953 1.953 0 00-.588.574h-1.272v-5.226h5.067v1.326h-3.671v2.236a1.969 1.969 0 01.581-.328 1.9 1.9 0 01.656-.117 2.9 2.9 0 011.474.355 2.294 2.294 0 01.93 1.039 3.924 3.924 0 01.317 1.649v.834a3.769 3.769 0 01-.328 1.646 2.326 2.326 0 01-.957 1.043 2.993 2.993 0 01-1.511.36 2.932 2.932 0 01-1.334-.295z"/><path class="cls-14" d="M256.983 86.847l-1.461 1.461" id="LINE-26" data-name="LINE"/><path class="cls-14" d="M255.522 85.386l1.461 1.461" id="LINE-27" data-name="LINE"/><path class="cls-14" d="M138.736 86.846l1.461-1.461" id="LINE-28" data-name="LINE"/><path class="cls-14" d="M140.197 88.307l-1.461-1.461" id="LINE-29" data-name="LINE"/><path class="cls-14" d="M236.69 94.132v172.249" id="LINE-30" data-name="LINE"/><path d="M231.76 194.563l-7.2-3.336v-1.435l7.116 3.254v-4.874h1.292v6.391zm-3.11-4.286v-1.36h5.85v1.36zM234.3 185.023a2.4 2.4 0 01-.854.951 3.384 3.384 0 01-1.347.489h.001v-1.395h.007a1.3 1.3 0 00.852-.437 1.423 1.423 0 00.3-.944 1.261 1.261 0 00-.447-1.035 1.943 1.943 0 00-1.261-.366h-.834a1.926 1.926 0 00-1.254.366 1.259 1.259 0 00-.449 1.035 1.326 1.326 0 00.205.7 1.954 1.954 0 00.575.587v1.272h-5.237v-5.065h1.327v3.67h2.235a1.979 1.979 0 01-.328-.581 1.922 1.922 0 01-.116-.656 2.9 2.9 0 01.355-1.474 2.287 2.287 0 011.039-.929 3.9 3.9 0 011.648-.318h.834a3.773 3.773 0 011.647.329 2.32 2.32 0 011.043.957 3 3 0 01.358 1.51 2.916 2.916 0 01-.299 1.334zM229.559 175.32l.246.007a1.024 1.024 0 01.462.516 2.074 2.074 0 01.147.817 2.182 2.182 0 01-.363 1.251 2.371 2.371 0 01-1.021.838 3.706 3.706 0 01-1.528.3h-.002a3.823 3.823 0 01-1.648-.325 2.293 2.293 0 01-1.039-.951 3 3 0 01-.355-1.5 2.932 2.932 0 01.362-1.5 2.328 2.328 0 011.053-.946 3.872 3.872 0 011.661-.325h.007a5.241 5.241 0 011.138.136 6.965 6.965 0 011.2.39l.181.082c.062.027.122.057.181.089l4.259 2.119v1.5zm-.861-.065a1.943 1.943 0 00-1.251-.359h-.007a1.853 1.853 0 00-1.217.359 1.421 1.421 0 000 2.037 1.859 1.859 0 001.224.359h.007a1.925 1.925 0 001.248-.359 1.394 1.394 0 000-2.037zM234.3 170.217a2.4 2.4 0 01-.854.951 3.4 3.4 0 01-1.347.488h.001v-1.394h.007a1.3 1.3 0 00.852-.438 1.42 1.42 0 00.3-.943 1.263 1.263 0 00-.447-1.036 1.943 1.943 0 00-1.261-.366h-.834a1.926 1.926 0 00-1.254.366 1.261 1.261 0 00-.449 1.036 1.325 1.325 0 00.205.7 1.957 1.957 0 00.575.588v1.271h-5.237v-5.065h1.327v3.671h2.235a1.992 1.992 0 01-.328-.581 1.927 1.927 0 01-.116-.657 2.9 2.9 0 01.355-1.473 2.289 2.289 0 011.039-.93 3.9 3.9 0 011.648-.317h.834a3.773 3.773 0 011.647.328 2.326 2.326 0 011.043.957 3 3 0 01.358 1.511 2.918 2.918 0 01-.299 1.333z"/><path class="cls-14" d="M236.69 266.381l-1.461-1.461" id="LINE-31" data-name="LINE"/><path class="cls-14" d="M238.151 264.92l-1.461 1.461" id="LINE-32" data-name="LINE"/><path class="cls-14" d="M236.691 94.132l1.461 1.461" id="LINE-33" data-name="LINE"/><path class="cls-14" d="M235.23 95.593l1.461-1.461" id="LINE-34" data-name="LINE"/><path class="cls-14" d="M21.082 89.054v177.327" id="LINE-35" data-name="LINE"/><path d="M31.528 191.856l-7.2-3.336v-1.435l7.116 3.254v-4.874h1.292v6.391zm-3.111-4.286v-1.36h5.852v1.36zM34.012 182.689a2.285 2.285 0 01-1.025.948 3.732 3.732 0 01-1.624.324h-.006a5.53 5.53 0 01-1.162-.13 6.771 6.771 0 01-1.2-.376c-.068-.027-.136-.057-.2-.089s-.131-.063-.2-.1l-4.28-2.16v-1.5l4.956 2.536-.246-.006a1.212 1.212 0 01-.5-.5 1.59 1.59 0 01-.177-.766 2.44 2.44 0 01.348-1.326 2.181 2.181 0 011.015-.841 4.033 4.033 0 011.6-.287h.007a3.791 3.791 0 011.641.325 2.3 2.3 0 011.039.949 3.355 3.355 0 010 3zm-1.4-2.519a1.721 1.721 0 00-1.169-.359h-.006a1.967 1.967 0 00-1.289.376 1.316 1.316 0 00-.455 1.074 1.13 1.13 0 00.458.963 2.126 2.126 0 001.292.342h.007a1.7 1.7 0 001.166-.359 1.473 1.473 0 000-2.037zM29.326 173.051l.246.006a1.032 1.032 0 01.462.516 2.081 2.081 0 01.147.817 2.2 2.2 0 01-.362 1.251 2.372 2.372 0 01-1.022.838 3.693 3.693 0 01-1.528.3h-.007a3.823 3.823 0 01-1.648-.324 2.293 2.293 0 01-1.039-.951 3 3 0 01-.355-1.5 2.922 2.922 0 01.362-1.5 2.325 2.325 0 011.053-.947 3.884 3.884 0 011.661-.325h.004a5.184 5.184 0 011.138.137 6.993 6.993 0 011.2.39l.181.082c.061.027.122.056.181.088l4.259 2.12v1.5zm-.861-.066a1.949 1.949 0 00-1.251-.358h-.007a1.859 1.859 0 00-1.217.358 1.421 1.421 0 000 2.037 1.859 1.859 0 001.224.36h.007a1.924 1.924 0 001.247-.36 1.393 1.393 0 000-2.037zM33.619 168.666a2.865 2.865 0 01-2.078.721h-4.518a2.856 2.856 0 01-2.082-.725 3.389 3.389 0 010-4.229 2.861 2.861 0 012.085-.72h4.518a2.856 2.856 0 012.082.724 3.38 3.38 0 010 4.229zm-.967-3.207a1.591 1.591 0 00-1.111-.352h-4.518a1.6 1.6 0 00-1.111.349 1.742 1.742 0 000 2.187 1.6 1.6 0 001.111.349h4.518a1.591 1.591 0 001.111-.352 1.733 1.733 0 000-2.181z"/><path class="cls-14" d="M21.082 266.381l-1.461-1.461" id="LINE-36" data-name="LINE"/><path class="cls-14" d="M22.543 264.92l-1.461 1.461" id="LINE-37" data-name="LINE"/><path class="cls-14" d="M21.082 89.054l1.462 1.461" id="LINE-38" data-name="LINE"/><path class="cls-14" d="M19.621 90.515l1.461-1.461" id="LINE-39" data-name="LINE"/><path class="cls-14" d="M253.384 25.005v66.127" id="LINE-40" data-name="LINE"/><path d="M251.189 76.545v1.394h-8.422l.868 1.415h-1.442l-.943-1.415v-1.394zM242.494 69.155l8.695 2.57v1.484l-8.613-2.571v2.53h1.429v1.394h-2.755v-5.407zM242.494 62.107l8.695 2.571v1.483l-8.613-2.57v2.529h1.429v1.394h-2.755v-5.407zM250.547 59.472a2.866 2.866 0 01-2.079.721h-4.518a2.843 2.843 0 110-5.674h4.518a2.852 2.852 0 012.081.725 3.375 3.375 0 010 4.228zm-.968-3.207a1.6 1.6 0 00-1.111-.351h-4.518a1.6 1.6 0 00-1.111.348 1.743 1.743 0 000 2.188 1.6 1.6 0 001.111.349h4.518a1.6 1.6 0 001.111-.352 1.735 1.735 0 000-2.182z"/><path class="cls-14" d="M253.384 91.132l-1.461-1.461" id="LINE-41" data-name="LINE"/><path class="cls-14" d="M254.845 89.671l-1.461 1.461" id="LINE-42" data-name="LINE"/><path class="cls-14" d="M253.385 25.005l1.461 1.461" id="LINE-43" data-name="LINE"/><path class="cls-14" d="M251.924 26.466l1.461-1.461" id="LINE-44" data-name="LINE"/><path class="cls-14" d="M225.551 40.688v50.444" id="LINE-45" data-name="LINE"/><path d="M223.355 76.959v1.394h-8.422l.868 1.415h-1.442l-.943-1.415v-1.394zM223.458 72.967l-.3.635a2.516 2.516 0 01-.882 1.023 3.182 3.182 0 01-1.391.488v-1.422a1.5 1.5 0 00.7-.266 1.241 1.241 0 00.407-.531 1.983 1.983 0 00.133-.761 1.485 1.485 0 00-.369-1.074 1.375 1.375 0 00-1.039-.382h-.3a1.678 1.678 0 00-1.152.362 1.3 1.3 0 00-.407 1.025v.7h-1.326v-.7a1.163 1.163 0 00-.349-.9 1.4 1.4 0 00-.984-.321h-.308a1.194 1.194 0 00-.909.338 1.339 1.339 0 00-.321.96 1.456 1.456 0 00.134.636 1.207 1.207 0 00.41.475 1.871 1.871 0 00.693.284v1.415a3.627 3.627 0 01-1.394-.516 2.534 2.534 0 01-.882-.961 2.865 2.865 0 01-.3-1.333 2.757 2.757 0 01.677-1.989 2.519 2.519 0 011.907-.7h.164a2.152 2.152 0 011.3.4 2.278 2.278 0 01.807 1.142 2.026 2.026 0 01.8-1.261 2.649 2.649 0 011.586-.448h.164a3.053 3.053 0 011.484.335 2.207 2.207 0 01.936.975 3.383 3.383 0 01.322 1.541zM223.164 65.86a2.407 2.407 0 01-.855.951 3.4 3.4 0 01-1.346.489h-.007v-1.395h.007a1.294 1.294 0 00.851-.437 1.423 1.423 0 00.3-.944 1.264 1.264 0 00-.447-1.035 1.944 1.944 0 00-1.262-.366h-.834a1.93 1.93 0 00-1.254.366 1.259 1.259 0 00-.448 1.035 1.314 1.314 0 00.205.7 1.953 1.953 0 00.574.588v1.272h-5.236v-5.069h1.326v3.671h2.235a2.015 2.015 0 01-.328-.581 1.922 1.922 0 01-.116-.656 2.9 2.9 0 01.355-1.474 2.292 2.292 0 011.039-.929 3.9 3.9 0 011.648-.318h.834a3.788 3.788 0 011.647.328 2.332 2.332 0 011.043.957 2.993 2.993 0 01.359 1.511 2.931 2.931 0 01-.29 1.336zM223.164 58.238a2.407 2.407 0 01-.855.951 3.416 3.416 0 01-1.346.489h-.007v-1.395h.007a1.291 1.291 0 00.851-.438 1.419 1.419 0 00.3-.943 1.264 1.264 0 00-.447-1.035 1.944 1.944 0 00-1.262-.366h-.834a1.93 1.93 0 00-1.254.366 1.259 1.259 0 00-.448 1.035 1.314 1.314 0 00.205.7 1.953 1.953 0 00.574.588v1.272h-5.236v-5.069h1.326v3.671h2.235a2.015 2.015 0 01-.328-.581 1.922 1.922 0 01-.116-.656 2.9 2.9 0 01.355-1.474 2.292 2.292 0 011.039-.929 3.9 3.9 0 011.648-.318h.834a3.788 3.788 0 011.647.328 2.326 2.326 0 011.043.957 2.993 2.993 0 01.359 1.511 2.931 2.931 0 01-.29 1.336z"/><path class="cls-14" d="M225.551 91.132l-1.462-1.461" id="LINE-46" data-name="LINE"/><path class="cls-14" d="M227.012 89.671l-1.461 1.461" id="LINE-47" data-name="LINE"/><path class="cls-14" d="M225.551 40.688l1.462 1.461" id="LINE-48" data-name="LINE"/><path class="cls-14" d="M224.09 42.149l1.461-1.461" id="LINE-49" data-name="LINE"/><path class="cls-14" d="M21.082 40.31v45.721" id="LINE-50" data-name="LINE"/><path d="M34.262 73.362v1.4H25.84l.868 1.415h-1.442l-.944-1.415v-1.4zM33.052 71.257l-4.621-3.466a3.426 3.426 0 00-.824-.468 2.185 2.185 0 00-.8-.168H26.8a1.205 1.205 0 00-.923.349 1.388 1.388 0 00-.328.991 1.368 1.368 0 00.359.984 1.626 1.626 0 001.015.458h.007v1.443h-.01a3.721 3.721 0 01-1.459-.5 2.554 2.554 0 01-.923-.982 2.923 2.923 0 01-.318-1.387 3.456 3.456 0 01.3-1.518 2.141 2.141 0 01.885-.957 2.809 2.809 0 011.4-.328h.007a3.083 3.083 0 011.1.219 4.7 4.7 0 011.108.608l3.91 2.878v-3.76h1.326v5.606zM34.07 62.434a2.406 2.406 0 01-.854.952 3.41 3.41 0 01-1.347.488h-.007v-1.4h.007a1.292 1.292 0 00.851-.437 1.417 1.417 0 00.3-.944 1.261 1.261 0 00-.448-1.035 1.943 1.943 0 00-1.261-.366h-.834a1.933 1.933 0 00-1.255.366 1.261 1.261 0 00-.448 1.035 1.318 1.318 0 00.206.7 1.953 1.953 0 00.574.588v1.271h-5.232V58.59h1.327v3.671h2.235a1.975 1.975 0 01-.328-.582 1.894 1.894 0 01-.116-.656 2.885 2.885 0 01.36-1.473 2.284 2.284 0 011.039-.93 3.9 3.9 0 011.648-.317h.834a3.777 3.777 0 011.647.328 2.326 2.326 0 011.043.957 3 3 0 01.358 1.51 2.928 2.928 0 01-.299 1.336zM33.619 55.531a2.861 2.861 0 01-2.078.721h-4.518a2.852 2.852 0 01-2.082-.725 3.388 3.388 0 010-4.228 2.858 2.858 0 012.085-.721h4.518a2.852 2.852 0 012.082.725 3.379 3.379 0 010 4.228zm-.967-3.207a1.6 1.6 0 00-1.111-.352h-4.518a1.605 1.605 0 00-1.111.349 1.743 1.743 0 000 2.188 1.6 1.6 0 001.111.348h4.518a1.6 1.6 0 001.111-.351 1.735 1.735 0 000-2.182z"/><path class="cls-14" d="M21.082 86.031l-1.461-1.461" id="LINE-51" data-name="LINE"/><path class="cls-14" d="M22.543 84.57l-1.461 1.461" id="LINE-52" data-name="LINE"/><path class="cls-14" d="M21.083 40.31l1.461 1.461" id="LINE-53" data-name="LINE"/><path class="cls-14" d="M19.621 41.771l1.462-1.461" id="LINE-54" data-name="LINE"/><path class="cls-14" d="M91.881 29.033H34.218" id="LINE-55" data-name="LINE"/><path d="M46.938 42.214h-1.4v-8.422l-1.415.867v-1.441l1.415-.944h1.4zM50.633 42.022a2.407 2.407 0 01-.951-.855 3.4 3.4 0 01-.488-1.346v-.008h1.394v.008a1.291 1.291 0 00.438.851 1.418 1.418 0 00.943.3A1.258 1.258 0 0053 40.528a1.944 1.944 0 00.366-1.262v-.834A1.927 1.927 0 0053 37.179a1.259 1.259 0 00-1.035-.448 1.323 1.323 0 00-.7.2 1.945 1.945 0 00-.588.575h-1.265v-5.232h5.066V33.6h-3.671v2.235a1.992 1.992 0 01.581-.328 1.9 1.9 0 01.656-.116 2.889 2.889 0 011.474.356 2.272 2.272 0 01.929 1.039 3.891 3.891 0 01.318 1.646v.834a3.8 3.8 0 01-.328 1.649 2.329 2.329 0 01-.957 1.042 3 3 0 01-1.511.358 2.931 2.931 0 01-1.336-.293zM56.665 41l3.466-4.621a3.46 3.46 0 00.468-.824 2.177 2.177 0 00.168-.8v-.013a1.206 1.206 0 00-.349-.924 1.388 1.388 0 00-.991-.328 1.368 1.368 0 00-.984.359 1.626 1.626 0 00-.458 1.016v.006h-1.443v-.006a3.726 3.726 0 01.5-1.46 2.562 2.562 0 01.982-.923 2.923 2.923 0 011.387-.318 3.456 3.456 0 011.518.3 2.147 2.147 0 01.957.885 2.812 2.812 0 01.328 1.4v.006A3.089 3.089 0 0162 35.87a4.673 4.673 0 01-.608 1.107l-2.878 3.91h3.76v1.327h-5.609zM65.487 42.022a2.413 2.413 0 01-.951-.855 3.4 3.4 0 01-.488-1.346v-.008h1.395v.008a1.29 1.29 0 00.437.851 1.42 1.42 0 00.943.3 1.26 1.26 0 001.036-.447 1.944 1.944 0 00.366-1.262v-.834a1.927 1.927 0 00-.366-1.253 1.261 1.261 0 00-1.036-.448 1.325 1.325 0 00-.7.2 1.956 1.956 0 00-.588.575h-1.268v-5.229h5.065V33.6h-3.671v2.235a1.992 1.992 0 01.581-.328 1.9 1.9 0 01.657-.116 2.885 2.885 0 011.473.356 2.279 2.279 0 01.93 1.039 3.891 3.891 0 01.317 1.646v.834a3.783 3.783 0 01-.328 1.649 2.329 2.329 0 01-.957 1.042 3 3 0 01-1.511.358 2.931 2.931 0 01-1.336-.293z"/><path class="cls-14" d="M34.218 29.033l1.461-1.461" id="LINE-56" data-name="LINE"/><path class="cls-14" d="M35.679 30.494l-1.461-1.461" id="LINE-57" data-name="LINE"/><path class="cls-14" d="M92.157 29.034l-1.461 1.461" id="LINE-58" data-name="LINE"/><path class="cls-14" d="M90.696 27.573l1.461 1.461" id="LINE-59" data-name="LINE"/><path class="cls-14" d="M135.565 87.492H79.223" id="LINE-60" data-name="LINE"/><path d="M98.829 100.673h-1.395v-8.422l-1.415.868v-1.442l1.415-.944h1.395zM106.218 91.977l-2.57 8.7h-1.483l2.57-8.614h-2.529v1.429h-1.395v-2.759h5.407zM110.532 100.673h-1.395v-8.422l-1.415.868v-1.442l1.415-.944h1.395zM114.227 100.481a2.418 2.418 0 01-.951-.854 3.41 3.41 0 01-.488-1.347v-.007h1.394v.007a1.3 1.3 0 00.438.851 1.413 1.413 0 00.943.3 1.259 1.259 0 001.035-.448 1.941 1.941 0 00.367-1.261v-.834a1.933 1.933 0 00-.367-1.255 1.264 1.264 0 00-1.035-.447 1.325 1.325 0 00-.7.2 1.945 1.945 0 00-.588.575h-1.271v-5.228h5.065v1.326H114.4V94.3a1.947 1.947 0 01.581-.328 1.88 1.88 0 01.656-.117 2.886 2.886 0 011.474.356 2.279 2.279 0 01.93 1.039 3.9 3.9 0 01.317 1.647v.834a3.778 3.778 0 01-.328 1.648 2.329 2.329 0 01-.957 1.042 3 3 0 01-1.511.359 2.931 2.931 0 01-1.335-.299z"/><path class="cls-14" d="M79.223 87.492l1.461-1.461" id="LINE-61" data-name="LINE"/><path class="cls-14" d="M80.684 88.953l-1.461-1.461" id="LINE-62" data-name="LINE"/><path class="cls-14" d="M135.663 87.493l-1.461 1.461" id="LINE-63" data-name="LINE"/><path class="cls-14" d="M134.202 86.032l1.461 1.461" id="LINE-64" data-name="LINE"/><path class="cls-14" d="M76.916 25.116v60.919" id="LINE-65" data-name="LINE"/><path d="M90.1 65.693v1.395h-8.426l.868 1.415H81.1l-.944-1.415v-1.395zM89.846 62.371a2.288 2.288 0 01-1.025.947 3.718 3.718 0 01-1.624.324h-.006a5.547 5.547 0 01-1.163-.13 6.7 6.7 0 01-1.2-.375 3.026 3.026 0 01-.2-.089l-.195-.1-4.28-2.16v-1.5l4.956 2.536-.246-.007a1.2 1.2 0 01-.5-.5 1.586 1.586 0 01-.177-.765 2.444 2.444 0 01.348-1.327 2.179 2.179 0 011.015-.84 4.032 4.032 0 011.6-.288h.007a3.791 3.791 0 011.641.326 2.289 2.289 0 011.039.949 3.355 3.355 0 010 3zm-1.4-2.52a1.726 1.726 0 00-1.169-.358h-.006a1.967 1.967 0 00-1.289.376 1.314 1.314 0 00-.455 1.073 1.132 1.132 0 00.458.964 2.126 2.126 0 001.292.342h.007a1.7 1.7 0 001.166-.36 1.473 1.473 0 000-2.037zM89.9 54.813a2.4 2.4 0 01-.854.951 3.4 3.4 0 01-1.347.489h.001v-1.4a1.292 1.292 0 00.851-.437 1.418 1.418 0 00.3-.944 1.261 1.261 0 00-.448-1.035 1.943 1.943 0 00-1.261-.366h-.834a1.933 1.933 0 00-1.255.366 1.261 1.261 0 00-.448 1.035 1.318 1.318 0 00.206.7 1.938 1.938 0 00.574.587v1.272h-5.229v-5.062h1.327v3.67h2.235a1.957 1.957 0 01-.328-.581 1.894 1.894 0 01-.116-.656 2.885 2.885 0 01.355-1.473A2.284 2.284 0 0184.668 51a3.9 3.9 0 011.648-.318h.834a3.776 3.776 0 011.647.329 2.326 2.326 0 011.043.957 3 3 0 01.358 1.51 2.928 2.928 0 01-.298 1.335zM89.9 47.191a2.4 2.4 0 01-.854.951 3.4 3.4 0 01-1.347.489h.001v-1.4a1.292 1.292 0 00.851-.437 1.418 1.418 0 00.3-.944 1.261 1.261 0 00-.448-1.035 1.943 1.943 0 00-1.261-.366h-.834a1.933 1.933 0 00-1.255.366 1.261 1.261 0 00-.448 1.035 1.321 1.321 0 00.206.7 1.95 1.95 0 00.574.587v1.272h-5.229v-5.063h1.327v3.671h2.235a1.957 1.957 0 01-.328-.581 1.9 1.9 0 01-.116-.656 2.891 2.891 0 01.355-1.474 2.287 2.287 0 011.039-.929 3.9 3.9 0 011.648-.318h.834a3.791 3.791 0 011.647.328 2.333 2.333 0 011.043.958 3 3 0 01.358 1.51 2.928 2.928 0 01-.298 1.336z"/><path class="cls-14" d="M76.916 86.035l-1.461-1.461" id="LINE-66" data-name="LINE"/><path class="cls-14" d="M78.377 84.574l-1.461 1.461" id="LINE-67" data-name="LINE"/><path class="cls-14" d="M76.917 25.116l1.461 1.461" id="LINE-68" data-name="LINE"/><path class="cls-14" d="M75.456 26.577l1.461-1.461" id="LINE-69" data-name="LINE"/><path class="cls-14" d="M138.818 45.137h92.051" id="LINE-70" data-name="LINE"/><path d="M170.6 55.915l3.466-4.621a3.445 3.445 0 00.468-.824 2.185 2.185 0 00.168-.8v-.01a1.2 1.2 0 00-.349-.923 1.388 1.388 0 00-.991-.328 1.368 1.368 0 00-.984.358 1.629 1.629 0 00-.458 1.016v.007h-1.443v-.007a3.726 3.726 0 01.5-1.46 2.562 2.562 0 01.982-.923 2.922 2.922 0 011.387-.317 3.456 3.456 0 011.518.3 2.141 2.141 0 01.957.885 2.806 2.806 0 01.328 1.4v.006a3.088 3.088 0 01-.219 1.1 4.673 4.673 0 01-.608 1.107l-2.876 3.919h3.76v1.326H170.6zM177.436 54.39l3.336-7.2h1.436l-3.254 7.116h4.874V55.6h-6.392zm4.286-3.11h1.361v5.852h-1.361zM186.257 56.482a2.866 2.866 0 01-.72-2.078v-4.518a2.854 2.854 0 01.724-2.082 3.389 3.389 0 014.229 0 2.86 2.86 0 01.721 2.085V54.4a2.852 2.852 0 01-.725 2.081 3.379 3.379 0 01-4.229 0zm3.208-.968a1.591 1.591 0 00.351-1.11v-4.518a1.6 1.6 0 00-.349-1.112 1.742 1.742 0 00-2.187 0 1.608 1.608 0 00-.349 1.112V54.4a1.592 1.592 0 00.352 1.11 1.731 1.731 0 002.182 0zM193.982 56.482a2.867 2.867 0 01-.721-2.078v-4.518a2.854 2.854 0 01.725-2.082 3.389 3.389 0 014.229 0 2.86 2.86 0 01.72 2.085V54.4a2.558 2.558 0 01-2.837 2.823 2.819 2.819 0 01-2.116-.741zm3.207-.968a1.587 1.587 0 00.352-1.11v-4.518a1.608 1.608 0 00-.349-1.112 1.742 1.742 0 00-2.187 0 1.6 1.6 0 00-.349 1.112V54.4a1.591 1.591 0 00.351 1.11 1.731 1.731 0 002.182 0z"/><path class="cls-14" d="M230.869 45.137l-1.461 1.461" id="LINE-71" data-name="LINE"/><path class="cls-14" d="M229.408 43.676l1.461 1.461" id="LINE-72" data-name="LINE"/><path class="cls-14" d="M138.818 45.137l1.461-1.461" id="LINE-73" data-name="LINE"/><path class="cls-14" d="M140.279 46.598l-1.461-1.461" id="LINE-74" data-name="LINE"/><path class="cls-14" d="M230.935 39.461v8.927"/><path class="cls-14" d="M11.378 96.808h67.779" id="LINE-75" data-name="LINE"/><path d="M36.582 108.8h-1.4v-8.422l-1.415.867V99.8l1.415-.944h1.4zM39.9 108.546a2.285 2.285 0 01-.947-1.026 3.716 3.716 0 01-.325-1.623v-.008a5.552 5.552 0 01.13-1.162 6.777 6.777 0 01.376-1.2c.028-.068.057-.137.089-.2s.064-.131.1-.194l2.16-4.28h1.5l-2.536 4.955.007-.246a1.192 1.192 0 01.5-.5 1.572 1.572 0 01.765-.178 2.446 2.446 0 011.327.348 2.177 2.177 0 01.84 1.016 4.026 4.026 0 01.287 1.6v.006a3.785 3.785 0 01-.325 1.641 2.29 2.29 0 01-.949 1.039 3.359 3.359 0 01-3 0zm2.52-1.4a1.723 1.723 0 00.358-1.168v-.008a1.97 1.97 0 00-.376-1.288 1.313 1.313 0 00-1.073-.454 1.134 1.134 0 00-.964.457 2.129 2.129 0 00-.342 1.293v.006a1.7 1.7 0 00.359 1.166 1.477 1.477 0 002.038 0zM48.422 108.8h-1.395v-8.422l-1.415.867V99.8l1.415-.944h1.395zM51.4 108.153a2.867 2.867 0 01-.721-2.078v-4.52a2.857 2.857 0 01.725-2.081 3.393 3.393 0 014.229 0 2.862 2.862 0 01.72 2.084v4.52a2.853 2.853 0 01-.724 2.081 3.382 3.382 0 01-4.229 0zm3.207-.968a1.589 1.589 0 00.352-1.11v-4.52a1.6 1.6 0 00-.349-1.11 1.742 1.742 0 00-2.187 0 1.6 1.6 0 00-.349 1.11v4.52a1.589 1.589 0 00.352 1.11 1.733 1.733 0 002.181 0z"/><path class="cls-14" d="M79.157 96.807l-1.461 1.462" id="LINE-76" data-name="LINE"/><path class="cls-14" d="M77.696 95.346l1.461 1.461" id="LINE-77" data-name="LINE"/><path class="cls-14" d="M11.378 96.807l1.461-1.461" id="LINE-78" data-name="LINE"/><path class="cls-14" d="M12.839 98.269l-1.461-1.462" id="LINE-79" data-name="LINE"/><path class="cls-14" d="M79.223 89.054v11.005"/><path class="cls-14" d="M130.105 153.102v113.213" id="LINE-80" data-name="LINE"/><path d="M125.433 223.378l-4.621-3.466a3.426 3.426 0 00-.824-.468 2.181 2.181 0 00-.8-.168h-.014a1.2 1.2 0 00-.922.349 1.388 1.388 0 00-.329.991 1.368 1.368 0 00.359.984 1.628 1.628 0 001.015.458h.007v1.442h-.004a3.727 3.727 0 01-1.459-.5 2.562 2.562 0 01-.923-.982 2.923 2.923 0 01-.318-1.387 3.47 3.47 0 01.3-1.518 2.138 2.138 0 01.886-.957 2.8 2.8 0 011.4-.328h.007a3.083 3.083 0 011.1.219 4.7 4.7 0 011.108.608l3.91 2.878v-3.76h1.326v5.606zM121.708 212.474l.246.007a1.027 1.027 0 01.461.516 2.077 2.077 0 01.147.817 2.2 2.2 0 01-.362 1.251 2.364 2.364 0 01-1.023.838 3.7 3.7 0 01-1.527.3h-.007a3.818 3.818 0 01-1.647-.324 2.288 2.288 0 01-1.039-.951 2.986 2.986 0 01-.356-1.5 2.923 2.923 0 01.363-1.5 2.317 2.317 0 011.052-.947 3.872 3.872 0 011.661-.325h.007a5.177 5.177 0 011.138.137 6.96 6.96 0 011.2.389c.059.028.119.055.181.082s.122.057.181.089l4.259 2.119v1.5zm-.862-.065a1.953 1.953 0 00-1.251-.358h-.006a1.857 1.857 0 00-1.217.358 1.419 1.419 0 000 2.037 1.856 1.856 0 001.223.359h.007a1.924 1.924 0 001.247-.359 1.391 1.391 0 000-2.037zM117.948 203.677l8.7 2.57v1.483l-8.613-2.57v2.529h1.429v1.4H116.7v-5.407zM126.452 200.323a2.414 2.414 0 01-.855.951 3.411 3.411 0 01-1.346.488h-.007v-1.394h.007a1.288 1.288 0 00.85-.438 1.414 1.414 0 00.305-.943 1.259 1.259 0 00-.448-1.035 1.941 1.941 0 00-1.261-.366h-.834a1.933 1.933 0 00-1.255.366 1.261 1.261 0 00-.447 1.035 1.314 1.314 0 00.2.7 1.953 1.953 0 00.574.588v1.272H116.7v-5.066h1.326v3.671h2.235a1.969 1.969 0 01-.328-.581 1.9 1.9 0 01-.116-.656 2.888 2.888 0 01.355-1.474 2.277 2.277 0 011.039-.929 3.9 3.9 0 011.648-.318h.834a3.788 3.788 0 011.647.328 2.329 2.329 0 011.042.957 2.993 2.993 0 01.36 1.511 2.944 2.944 0 01-.29 1.333z"/><path class="cls-14" d="M130.105 266.315l-1.461-1.461" id="LINE-81" data-name="LINE"/><path class="cls-14" d="M131.566 264.854l-1.461 1.461" id="LINE-82" data-name="LINE"/><path class="cls-14" d="M130.105 153.102l1.461 1.461" id="LINE-83" data-name="LINE"/><path class="cls-14" d="M128.644 154.563l1.461-1.461" id="LINE-84" data-name="LINE"/><path class="cls-14" d="M135.78 266.381h-8.926M135.78 153.102h-8.926"/><path class="cls-14" d="M230.936 30.606h26.048" id="LINE-85" data-name="LINE"/><path d="M239.075 34.629l-2.57 8.7h-1.484l2.57-8.613h-2.529v1.428h-1.394v-2.759h5.407zM240.305 40.59l3.336-7.2h1.436l-3.254 7.117h4.877V41.8h-6.392zm4.286-3.111h1.361v5.852h-1.361zM249.845 43.133a2.429 2.429 0 01-.951-.855 3.4 3.4 0 01-.488-1.347v-.006h1.394v.006a1.293 1.293 0 00.438.851 1.416 1.416 0 00.943.305 1.26 1.26 0 001.035-.448 1.934 1.934 0 00.367-1.261v-.834a1.924 1.924 0 00-.367-1.254 1.257 1.257 0 00-1.035-.448 1.316 1.316 0 00-.7.2 1.941 1.941 0 00-.588.574h-1.271v-5.231h5.065v1.326h-3.671v2.235a1.992 1.992 0 01.581-.328 1.9 1.9 0 01.657-.116 2.885 2.885 0 011.473.355 2.289 2.289 0 01.93 1.039 3.9 3.9 0 01.317 1.648v.834a3.777 3.777 0 01-.328 1.647 2.318 2.318 0 01-.957 1.042 2.993 2.993 0 01-1.511.36 2.931 2.931 0 01-1.333-.294z"/><path class="cls-14" d="M256.983 30.605l-1.461 1.461" id="LINE-86" data-name="LINE"/><path class="cls-14" d="M255.522 29.144l1.461 1.461" id="LINE-87" data-name="LINE"/><path class="cls-14" d="M230.935 30.605l1.461-1.461" id="LINE-88" data-name="LINE"/><path class="cls-14" d="M232.396 32.066l-1.461-1.461" id="LINE-89" data-name="LINE"/><path class="cls-14" d="M130.423 33.475v-8.996" id="LINE-90" data-name="LINE"/><path class="cls-14" d="M91.881 33.475v-9.25" id="LINE-91" data-name="LINE"/><path class="cls-14" d="M130.423 33.475l-1.461 1.461" id="LINE-92" data-name="LINE"/><path class="cls-14" d="M128.962 32.014l1.461 1.461" id="LINE-93" data-name="LINE"/><path class="cls-14" d="M91.881 33.476h38.542" id="LINE-94" data-name="LINE"/><path d="M102.424 45.571h-1.4v-8.422l-1.415.869v-1.443l1.415-.943h1.4zM107.079 45.571h-1.394v-8.422l-1.415.869v-1.443l1.415-.943h1.394zM110.056 44.929a2.865 2.865 0 01-.721-2.079v-4.517a2.843 2.843 0 115.674 0v4.517a2.849 2.849 0 01-.725 2.082 3.374 3.374 0 01-4.228 0zm3.207-.967a1.6 1.6 0 00.351-1.112v-4.517a1.608 1.608 0 00-.348-1.112 1.743 1.743 0 00-2.188 0 1.608 1.608 0 00-.348 1.112v4.517a1.6 1.6 0 00.351 1.112 1.735 1.735 0 002.182 0zM117.78 44.929a2.869 2.869 0 01-.72-2.079v-4.517a2.843 2.843 0 115.674 0v4.517a2.849 2.849 0 01-.725 2.082 3.375 3.375 0 01-4.229 0zm3.208-.967a1.6 1.6 0 00.352-1.112v-4.517a1.608 1.608 0 00-.349-1.112 1.743 1.743 0 00-2.188 0 1.6 1.6 0 00-.349 1.112v4.517a1.594 1.594 0 00.352 1.112 1.735 1.735 0 002.182 0z"/><path class="cls-14" d="M91.881 33.475l1.462 1.461" id="LINE-95" data-name="LINE"/><path class="cls-14" d="M93.343 32.014l-1.462 1.461" id="LINE-96" data-name="LINE"/><path class="cls-14" d="M111.53 304.391v-14.442" id="LINE-97" data-name="LINE"/><path class="cls-14" d="M28.487 304.418v-14.442" id="LINE-98" data-name="LINE"/><path class="cls-14" d="M28.487 304.416l83.043-.056" id="LINE-99" data-name="LINE"/><path d="M57.528 315.97l3.466-4.621a3.406 3.406 0 00.468-.823 2.19 2.19 0 00.168-.8v-.013a1.2 1.2 0 00-.349-.923 1.388 1.388 0 00-.991-.328 1.372 1.372 0 00-.984.358 1.634 1.634 0 00-.458 1.016v.006h-1.443v-.006a3.71 3.71 0 01.5-1.459 2.557 2.557 0 01.982-.924 2.936 2.936 0 011.388-.318 3.469 3.469 0 011.517.3 2.138 2.138 0 01.957.886 2.805 2.805 0 01.328 1.4v.007a3.108 3.108 0 01-.218 1.1 4.713 4.713 0 01-.609 1.107l-2.878 3.91h3.76v1.326h-5.604zM67.311 317.18h-1.4v-8.421l-1.415.868v-1.443l1.415-.943h1.4zM70.633 316.93a2.282 2.282 0 01-.947-1.025 3.713 3.713 0 01-.325-1.623v-.007a5.537 5.537 0 01.13-1.162 6.787 6.787 0 01.376-1.2c.028-.069.057-.136.089-.2s.064-.131.1-.2l2.16-4.279h1.5L71.18 312.2l.007-.246a1.2 1.2 0 01.5-.5 1.572 1.572 0 01.765-.178 2.438 2.438 0 011.327.349 2.177 2.177 0 01.84 1.014 4.038 4.038 0 01.287 1.6v.007a3.786 3.786 0 01-.325 1.64 2.292 2.292 0 01-.949 1.04 3.351 3.351 0 01-3 0zm2.52-1.4a1.726 1.726 0 00.358-1.169v-.007a1.968 1.968 0 00-.376-1.288 1.311 1.311 0 00-1.073-.455 1.13 1.13 0 00-.964.458 2.124 2.124 0 00-.342 1.292v.007a1.7 1.7 0 00.359 1.165 1.475 1.475 0 002.038 0zM77.472 316.538a2.862 2.862 0 01-.721-2.078v-4.519a2.843 2.843 0 115.674 0v4.519a2.853 2.853 0 01-.725 2.082 3.379 3.379 0 01-4.228 0zm3.207-.967a1.6 1.6 0 00.351-1.111v-4.519a1.6 1.6 0 00-.348-1.11 1.74 1.74 0 00-2.188 0 1.6 1.6 0 00-.348 1.11v4.519a1.6 1.6 0 00.351 1.111 1.735 1.735 0 002.182 0z"/><path class="cls-14" d="M111.53 304.357l-1.461 1.461" id="LINE-100" data-name="LINE"/><path class="cls-14" d="M110.069 302.895l1.461 1.462" id="LINE-101" data-name="LINE"/><path class="cls-14" d="M28.488 304.418l1.461-1.461" id="LINE-102" data-name="LINE"/><path class="cls-14" d="M29.949 305.88l-1.461-1.462" id="LINE-103" data-name="LINE"/><path class="cls-14" d="M240.003 304.391v-14.442" id="LINE-104" data-name="LINE"/><path class="cls-14" d="M156.96 304.418v-14.442" id="LINE-105" data-name="LINE"/><path class="cls-14" d="M156.96 304.416l83.043-.056" id="LINE-106" data-name="LINE"/><path d="M184.443 315.97l3.466-4.621a3.474 3.474 0 00.468-.823 2.19 2.19 0 00.168-.8v-.013a1.208 1.208 0 00-.349-.923 1.389 1.389 0 00-.991-.328 1.373 1.373 0 00-.985.358 1.634 1.634 0 00-.458 1.016v.006h-1.442v-.006a3.71 3.71 0 01.5-1.459 2.561 2.561 0 01.981-.924 2.942 2.942 0 011.388-.318 3.47 3.47 0 011.518.3 2.138 2.138 0 01.957.886 2.816 2.816 0 01.328 1.4v.007a3.088 3.088 0 01-.219 1.1 4.708 4.708 0 01-.608 1.107l-2.878 3.91h3.76v1.326h-5.606zM191.675 315.97l3.466-4.621a3.439 3.439 0 00.468-.823 2.19 2.19 0 00.168-.8v-.013a1.2 1.2 0 00-.349-.923 1.388 1.388 0 00-.991-.328 1.372 1.372 0 00-.984.358 1.629 1.629 0 00-.458 1.016v.006h-1.443v-.006a3.71 3.71 0 01.5-1.459 2.557 2.557 0 01.982-.924 2.936 2.936 0 011.388-.318 3.469 3.469 0 011.517.3 2.138 2.138 0 01.957.886 2.805 2.805 0 01.328 1.4v.007a3.088 3.088 0 01-.219 1.1 4.673 4.673 0 01-.608 1.107l-2.878 3.91h3.76v1.326h-5.606zM199.779 316.538a2.867 2.867 0 01-.721-2.078v-4.519a2.843 2.843 0 115.674 0v4.519a2.853 2.853 0 01-.725 2.082 3.379 3.379 0 01-4.228 0zm3.207-.967a1.6 1.6 0 00.352-1.111v-4.519a1.6 1.6 0 00-.349-1.11 1.74 1.74 0 00-2.188 0 1.6 1.6 0 00-.348 1.11v4.519a1.6 1.6 0 00.351 1.111 1.735 1.735 0 002.182 0zM207.5 316.538a2.862 2.862 0 01-.721-2.078v-4.519a2.843 2.843 0 115.674 0v4.519a2.858 2.858 0 01-.725 2.082 3.379 3.379 0 01-4.228 0zm3.207-.967a1.6 1.6 0 00.351-1.111v-4.519a1.6 1.6 0 00-.348-1.11 1.74 1.74 0 00-2.188 0 1.6 1.6 0 00-.349 1.11v4.519a1.6 1.6 0 00.352 1.111 1.735 1.735 0 002.182 0z"/><path class="cls-14" d="M240.003 304.357l-1.461 1.461" id="LINE-107" data-name="LINE"/><path class="cls-14" d="M238.542 302.895l1.461 1.462" id="LINE-108" data-name="LINE"/><path class="cls-14" d="M156.961 304.418l1.461-1.461" id="LINE-109" data-name="LINE"/><path class="cls-14" d="M158.422 305.88l-1.461-1.462" id="LINE-110" data-name="LINE"/><path class="cls-14" d="M156.961 304.391v-14.442" id="LINE-111" data-name="LINE"/><path class="cls-14" d="M111.53 304.418v-14.442" id="LINE-112" data-name="LINE"/><path class="cls-14" d="M111.53 304.403l45.431-.031" id="LINE-113" data-name="LINE"/><path d="M124.075 317.18h-1.395v-8.421l-1.415.868v-1.443l1.415-.943h1.395zM126.18 315.97l3.466-4.621a3.439 3.439 0 00.468-.823 2.19 2.19 0 00.168-.8v-.013a1.2 1.2 0 00-.349-.923 1.388 1.388 0 00-.991-.328 1.372 1.372 0 00-.984.358 1.629 1.629 0 00-.458 1.016v.006h-1.443v-.006a3.71 3.71 0 01.5-1.459 2.557 2.557 0 01.982-.924 2.935 2.935 0 011.387-.318 3.47 3.47 0 011.518.3 2.138 2.138 0 01.957.886 2.805 2.805 0 01.328 1.4v.007a3.088 3.088 0 01-.219 1.1 4.673 4.673 0 01-.608 1.107l-2.878 3.91h3.76v1.326h-5.604zM134.284 316.538a2.862 2.862 0 01-.721-2.078v-4.519a2.843 2.843 0 115.674 0v4.519a2.853 2.853 0 01-.725 2.082 3.379 3.379 0 01-4.228 0zm3.207-.967a1.6 1.6 0 00.351-1.111v-4.519a1.6 1.6 0 00-.348-1.11 1.74 1.74 0 00-2.188 0 1.6 1.6 0 00-.348 1.11v4.519a1.6 1.6 0 00.351 1.111 1.735 1.735 0 002.182 0zM142.008 316.538a2.866 2.866 0 01-.72-2.078v-4.519a2.843 2.843 0 115.674 0v4.519a2.858 2.858 0 01-.725 2.082 3.38 3.38 0 01-4.229 0zm3.207-.967a1.6 1.6 0 00.352-1.111v-4.519a1.6 1.6 0 00-.349-1.11 1.738 1.738 0 00-2.187 0 1.6 1.6 0 00-.349 1.11v4.519a1.6 1.6 0 00.352 1.111 1.733 1.733 0 002.181 0z"/><path class="cls-14" d="M156.96 304.357l-1.461 1.461" id="LINE-114" data-name="LINE"/><path class="cls-14" d="M155.499 302.895l1.461 1.462" id="LINE-115" data-name="LINE"/><path class="cls-14" d="M111.531 304.418l1.461-1.461" id="LINE-116" data-name="LINE"/><path class="cls-14" d="M112.992 305.88l-1.461-1.462" id="LINE-117" data-name="LINE"/><path class="cls-14" d="M28.488 304.391v-14.442" id="LINE-118" data-name="LINE"/><path class="cls-14" d="M11.208 304.418v-14.442" id="LINE-119" data-name="LINE"/><path class="cls-14" d="M11.208 304.394l17.28-.012" id="LINE-120" data-name="LINE"/><path d="M16.344 308.485l-2.57 8.695H12.29l2.571-8.613h-2.53V310h-1.394v-2.755h5.407zM20.657 317.18h-1.394v-8.421l-1.415.868v-1.443l1.415-.943h1.394zM24.353 316.989a2.4 2.4 0 01-.951-.854 3.4 3.4 0 01-.489-1.347v-.007h1.395v.007a1.294 1.294 0 00.437.851 1.416 1.416 0 00.944.3 1.259 1.259 0 001.035-.448 1.941 1.941 0 00.366-1.261v-.83a1.933 1.933 0 00-.366-1.255 1.261 1.261 0 00-1.035-.447 1.317 1.317 0 00-.7.205 1.964 1.964 0 00-.588.574h-1.269v-5.236H28.2v1.326h-3.67v2.233a1.96 1.96 0 01.581-.329 1.917 1.917 0 01.656-.116 2.885 2.885 0 011.473.356 2.279 2.279 0 01.93 1.039 3.9 3.9 0 01.318 1.647v.834a3.775 3.775 0 01-.329 1.648 2.336 2.336 0 01-.957 1.043 3.01 3.01 0 01-1.51.358 2.941 2.941 0 01-1.339-.291z"/><path class="cls-14" d="M28.487 304.357l-1.461 1.461" id="LINE-121" data-name="LINE"/><path class="cls-14" d="M27.026 302.895l1.461 1.462" id="LINE-122" data-name="LINE"/><path class="cls-14" d="M11.208 304.418l1.461-1.461" id="LINE-123" data-name="LINE"/><path class="cls-14" d="M12.669 305.88l-1.461-1.462" id="LINE-124" data-name="LINE"/><path class="cls-14" d="M257.282 304.391v-14.442" id="LINE-125" data-name="LINE"/><path class="cls-14" d="M240.003 304.418v-14.442" id="LINE-126" data-name="LINE"/><path class="cls-14" d="M240.003 304.394l17.279-.012" id="LINE-127" data-name="LINE"/><path d="M237.926 314.446l3.336-7.2h1.438l-3.254 7.116h4.874v1.292h-6.392zm4.287-3.11h1.36v5.851h-1.36zM247.466 316.989a2.4 2.4 0 01-.951-.854 3.416 3.416 0 01-.488-1.347v-.007h1.4v.007a1.29 1.29 0 00.437.851 1.415 1.415 0 00.943.3 1.261 1.261 0 001.036-.448 1.941 1.941 0 00.366-1.261v-.83a1.933 1.933 0 00-.366-1.255 1.263 1.263 0 00-1.036-.447 1.316 1.316 0 00-.7.205 1.964 1.964 0 00-.588.574h-1.271v-5.236h5.065v1.326h-3.673v2.233a1.972 1.972 0 01.581-.329 1.927 1.927 0 01.657-.116 2.885 2.885 0 011.473.356 2.284 2.284 0 01.93 1.039 3.9 3.9 0 01.317 1.647v.834a3.775 3.775 0 01-.328 1.648 2.341 2.341 0 01-.957 1.043 3.014 3.014 0 01-1.511.358 2.944 2.944 0 01-1.336-.291zM255.089 316.989a2.406 2.406 0 01-.952-.854 3.416 3.416 0 01-.488-1.347v-.007h1.4v.007a1.29 1.29 0 00.437.851 1.415 1.415 0 00.943.3 1.261 1.261 0 001.036-.448 1.941 1.941 0 00.366-1.261v-.83a1.933 1.933 0 00-.366-1.255 1.263 1.263 0 00-1.036-.447 1.316 1.316 0 00-.7.205 1.964 1.964 0 00-.588.574h-1.271v-5.236h5.065v1.326h-3.671v2.233a1.985 1.985 0 01.581-.329 1.927 1.927 0 01.657-.116 2.885 2.885 0 011.473.356 2.279 2.279 0 01.93 1.039 3.9 3.9 0 01.317 1.647v.834a3.775 3.775 0 01-.328 1.648 2.336 2.336 0 01-.957 1.043 3.014 3.014 0 01-1.511.358 2.94 2.94 0 01-1.337-.291z"/><path class="cls-14" d="M257.282 304.357l-1.461 1.461" id="LINE-128" data-name="LINE"/><path class="cls-14" d="M255.821 302.895l1.461 1.462" id="LINE-129" data-name="LINE"/><path class="cls-14" d="M240.003 304.418l1.461-1.461" id="LINE-130" data-name="LINE"/><path class="cls-14" d="M241.464 305.88l-1.461-1.462" id="LINE-131" data-name="LINE"/></g></svg>