<svg xmlns="http://www.w3.org/2000/svg" width="357.978" height="427.298" viewBox="0 0 268.483 320.473"><defs><pattern id="Новый_узор_3" data-name="Новый узор 3" width="35.15" height="35.15" patternUnits="userSpaceOnUse"><path class="cls-1" d="M0 0h35.15v35.15H0z"/><path class="cls-2" d="M35.149 35.15h35.15V70.3h-35.15z"/><path class="cls-2" d="M0 35.15h35.15V70.3H0zM-35.15 35.15H0V70.3h-35.15z"/><path class="cls-2" d="M35.149.001h35.15v35.15h-35.15z"/><path class="cls-2" d="M0 .001h35.15v35.15H0zM-35.15.001H0v35.15h-35.15zM35.149-35.149h35.15V.001h-35.15z"/><path class="cls-2" d="M0-35.149h35.15V.001H0zM-35.15-35.149H0V.001h-35.15z"/></pattern><pattern id="Новый_узор_4" data-name="Новый узор 4" width="9.822" height="9.822" patternUnits="userSpaceOnUse"><path class="cls-1" d="M0 0h9.822v9.822H0z"/><path class="cls-3" d="M14.733 19.647L9.82 14.735l4.913-4.913 4.912 4.913-4.912 4.912z"/><path class="cls-3" d="M4.911 19.647l-4.913-4.912 4.913-4.913 4.912 4.913-4.912 4.912z"/><path class="cls-3" d="M-4.912 19.647l-4.912-4.912 4.912-4.913 4.913 4.913-4.913 4.912zM14.733 9.825L9.82 4.912 14.733 0l4.912 4.912-4.912 4.913z"/><path class="cls-3" d="M4.911 9.825L-.002 4.912 4.911 0l4.912 4.912-4.912 4.913z"/><path class="cls-3" d="M-4.912 9.825l-4.912-4.913L-4.912 0 .001 4.912l-4.913 4.913zM14.733.003L9.82-4.91l4.913-4.912 4.912 4.912L14.733.003z"/><path class="cls-3" d="M4.911.003L-.002-4.91l4.913-4.912L9.823-4.91 4.911.003z"/><path class="cls-3" d="M-4.912.003L-9.824-4.91l4.912-4.912L.001-4.91-4.912.003z"/></pattern><style>.cls-1,.cls-11,.cls-2,.cls-3,.cls-7,.cls-9{fill:none}.cls-2{stroke:#ededed}.cls-2,.cls-3,.cls-7,.cls-9{stroke-linecap:round;stroke-linejoin:round;stroke-width:.4px}.cls-3{stroke:#e6e6e6}.cls-3,.cls-4,.cls-8,.cls-9{fill-rule:evenodd}.cls-4{fill:#fff}.cls-7,.cls-9{stroke:#000}.cls-11{stroke:gray;stroke-width:.6px;stroke-miterlimit:22.926}</style></defs><g id="_234" data-name="234"><path class="cls-4" d="M86.953 15.754L52.16.854a47.394 47.394 0 00-2.975 14.9H.3v274.273l267.9.163V15.754z"/><path id="grid" stroke="#dcdcdc" fill="url(#Новый_узор_3)" fill-rule="evenodd" stroke-linecap="round" stroke-linejoin="round" stroke-width=".4" d="M.296 15.754v274.273l267.904.163V15.754H.296z"/><path id="wet_zones" data-name="wet zones" fill="url(#Новый_узор_4)" fill-rule="evenodd" d="M230.785 24.822v15.872h-92.01v48.932h118.46V24.822h-26.45z"/><g id="walls"><path class="cls-7" d="M156.913 282.715v-16.249M156.913 290.272v-5.668M156.913 284.604v-1.889M240.043 282.715v-16.249M240.043 290.272v-5.668M240.043 284.604v-1.889M240.043 290.272h-83.13M240.043 266.466h-83.13M240.043 282.715h-3.778M236.265 282.715v1.889M236.265 284.604h3.778M185.253 284.604h1.89M187.143 284.604v-1.889M187.143 282.715h-1.89M236.265 283.659h-49.122M236.265 282.715h-49.122M187.143 284.604h49.122M185.253 282.715h-.944M184.309 282.715v.944M184.309 283.659h-.945M183.363 283.659v.944M183.363 284.604h1.89M156.913 284.604h3.778M160.691 284.604v-.944M160.691 283.659h-.944M159.747 283.659v-.944M159.747 282.715h-2.834M160.691 284.604h22.672M181.475 281.77h-18.894M184.309 281.77h-2.834M181.475 281.77v1.89M181.475 283.659h2.834M184.309 283.659v-1.89M159.747 283.659h2.834M162.581 283.659v-1.89M162.581 281.77h-2.834M159.747 281.77v1.89M162.581 283.659h18.894M181.475 281.77h-18.894M181.475 282.715h-18.894M240.043 284.604v-1.889M240.043 284.604v-1.889M240.043 290.272v-5.668M240.043 282.715v-16.249M156.913 284.604v-1.889M156.913 284.604v-1.889M156.913 290.272v-5.668M156.913 282.715v-16.249M28.44 282.715v-16.249M28.44 290.272v-5.668M28.44 284.604v-1.889M111.57 282.715v-16.249M111.57 290.272v-5.668M111.57 284.604v-1.889M111.57 290.272H28.44M111.57 266.466H28.44M111.57 282.715h-3.778M107.791 282.715v1.889M107.791 284.604h3.778M56.779 284.604h1.89M58.669 284.604v-1.889M58.669 282.715h-1.89M107.791 283.659H58.669M107.791 282.715H58.669M58.669 284.604h49.122M56.779 282.715h-.945M55.834 282.715v.944M55.834 283.659h-.943M54.89 283.659v.944M54.89 284.604h1.889M28.44 284.604h3.778M32.218 284.604v-.944M32.218 283.659h-.945M31.274 283.659v-.944M31.274 282.715H28.44M32.218 284.604H54.89M53.001 281.77H34.108M55.834 281.77h-2.832M53.001 281.77v1.89M53.001 283.659h2.833M55.834 283.659v-1.89M31.274 283.659h2.833M34.108 283.659v-1.89M34.108 281.77h-2.834M31.274 281.77v1.89M34.108 283.659h18.893M53.001 281.77H34.108M53.001 282.715H34.108M111.57 284.604v-1.889M111.57 284.604v-1.889M111.57 290.272v-5.668M111.57 282.715v-16.249M28.44 284.604v-1.889M28.44 284.604v-1.889M28.44 290.272v-5.668M28.44 282.715v-16.249M52.387.2a46.765 46.765 0 00-3.2 15.555"/><path class="cls-8" d="M52.425.096l-.6 1.388 36.208 15.658.601.024-.001-1.412L52.425.096z"/><path class="cls-9" d="M149.832 58.948a29.682 29.682 0 00-11.056-2.272"/><path class="cls-8" d="M149.935 58.987l-1.388-.6-11.283 25.949v.453l1.512.001 11.159-25.803z"/><path class="cls-9" d="M151.34 150.6a37.758 37.758 0 01-12.564 2.584"/><path class="cls-8" d="M151.434 150.564l-12.658-29.272h-1.512v.453l12.783 29.419 1.387-.6z"/><path d="M268.193 290.271h-28.15v-23.806h17.192V24.822H88.18v-7.557h.454v-1.51h179.559v274.516zM49.185 17.265h.453v7.558H11.247v241.642h17.192v23.806H.29V15.754h48.9v1.51zm107.728 273.006v-23.806H111.57v23.806z" stroke-miterlimit="3" stroke-width=".579" stroke="#000" fill-rule="evenodd"/></g><g id="wall_2" data-name="wall 2"><path class="cls-4" d="M138.775 121.292h-1.511v.453h-1.511V84.336h1.511v.453h1.511v4.837h118.46v3.023h-118.46v28.643zm88.988-96.024h3.022v15.426h-92.01v15.983h-1.511v.453h-1.511V24.822h3.022V37.67h21.35V24.822h3.022V37.67h64.616v-12.4zm-92.01 127.462v113.737h3.022V153.183h-1.511v-.453zM11.247 86.037h68.016v3.022H11.247v-3.022zm0-45.722v-4.157h18.516V24.822h4.155v15.494z"/><path class="cls-11" d="M13.658 36.16l-2.41 2.12M33.918 24.85l-4.16 3.67M21.078 36.16l-4.71 4.15M33.918 31.4l-4.16 3.66M28.508 36.16l-4.72 4.16M33.918 37.93l-2.71 2.39M16.418 86.04l-3.43 3.02M23.838 86.04l-3.43 3.02M31.258 86.04l-3.43 3.02M38.688 86.04l-3.43 3.02M46.108 86.04l-3.43 3.02M53.528 86.04l-3.43 3.02M60.948 86.04l-3.43 3.02M68.378 86.04l-3.43 3.02M137.868 24.82l-2.12 1.87M138.778 30.56l-3.03 2.67M75.798 86.04l-3.43 3.02M138.778 37.09l-3.03 2.67M145.548 37.67l-3.43 3.02M138.778 43.63l-3.03 2.67M163.148 28.7l-3.02 2.66M152.968 37.67l-3.43 3.02M138.778 50.17l-3.03 2.67M163.148 35.25l-6.18 5.44M167.818 37.67l-3.43 3.02M175.238 37.67l-3.43 3.02M182.658 37.67l-3.43 3.02M190.088 37.67l-3.43 3.02M137.108 84.34l-1.36 1.2M138.778 89.4l-3.03 2.67M197.508 37.67l-3.43 3.02M145.938 89.63l-3.42 3.02M204.928 37.67l-3.43 3.02M138.778 95.94l-3.03 2.67M153.368 89.63l-3.43 3.02M212.348 37.67l-3.43 3.02M138.778 102.48l-3.03 2.67M219.778 37.67l-3.43 3.02M160.788 89.63l-3.42 3.02M230.788 27.97l-3.03 2.67M138.778 109.02l-3.03 2.67M227.188 37.67l-3.42 3.02M168.208 89.63l-3.43 3.02M230.788 34.5l-3.03 2.67M138.778 115.56l-3.03 2.67M175.628 89.63l-3.43 3.02M183.048 89.63l-3.42 3.02M190.478 89.63l-3.43 3.02M197.898 89.63l-3.42 3.02M205.318 89.63l-3.42 3.02M212.748 89.63l-3.43 3.02M138.778 154.79l-3.03 2.67M220.158 89.63l-3.42 3.02M138.778 161.32l-3.03 2.67M227.588 89.63l-3.43 3.02M138.778 167.87l-3.03 2.67M235.008 89.63l-3.43 3.02M138.778 174.4l-3.03 2.67M242.428 89.63l-3.42 3.02M138.778 180.94l-3.03 2.67M249.858 89.63l-3.43 3.02M138.778 187.48l-3.03 2.67M257.238 89.66l-3.39 2.99M138.778 194.01l-3.03 2.67M138.778 200.56l-3.03 2.67M138.778 207.09l-3.03 2.67M138.778 213.63l-3.03 2.67M138.778 220.17l-3.03 2.67M138.778 226.71l-3.03 2.67M138.778 233.25l-3.03 2.67M138.778 239.78l-3.03 2.67M138.778 246.32l-3.03 2.67M138.778 252.86l-3.03 2.67M138.778 259.4l-3.03 2.67M138.778 265.94l-.6.53"/><path d="M138.775 121.292h-1.511v.453h-1.511V84.336h1.511v.453h1.511v4.837h118.46v3.023h-118.46v28.643zm88.988-96.024h3.022v15.426h-92.01v15.983h-1.511v.453h-1.511V24.822h3.022V37.67h21.35V24.822h3.022V37.67h64.616v-12.4zm-92.01 127.462v113.737h3.022V153.183h-1.511v-.453zM11.247 86.037h68.016v3.022H11.247v-3.022zm0-45.722v-4.157h18.516V24.822h4.155v15.494z" stroke-width=".576" stroke-miterlimit="22.926" stroke="#000" fill-rule="evenodd" fill="none"/></g></g><g id="sizes"><path class="cls-7" d="M157.991 56.519h-19.03" id="LINE"/><path class="cls-7" d="M157.991 84.644h-19.308" id="LINE-2" data-name="LINE"/><path class="cls-7" d="M157.992 84.644V56.519" id="LINE-3" data-name="LINE"/><path d="M170.347 79.89a2.5 2.5 0 01-.967 1.057 2.79 2.79 0 01-1.453.372h-.164a2.793 2.793 0 01-1.4-.372 2.483 2.483 0 01-.991-1 2.2 2.2 0 01-.831.845 2.253 2.253 0 01-1.145.317h-.239a2.642 2.642 0 01-1.371-.349 2.362 2.362 0 01-.916-.984 3.526 3.526 0 010-2.953 2.371 2.371 0 01.916-.985 2.651 2.651 0 011.371-.348h.239a2.2 2.2 0 011.155.325 2.172 2.172 0 01.821.857 2.564 2.564 0 01.994-1.007 2.726 2.726 0 011.4-.38h.164a2.79 2.79 0 011.453.372 2.5 2.5 0 01.967 1.056 3.848 3.848 0 010 3.172zm-5.671-2.324a1.251 1.251 0 00-.515-.5 1.635 1.635 0 00-.773-.178h-.095a1.5 1.5 0 00-.739.178 1.229 1.229 0 00-.5.5 1.654 1.654 0 000 1.477 1.229 1.229 0 00.5.5 1.517 1.517 0 00.745.177h.1a1.593 1.593 0 00.762-.177 1.25 1.25 0 00.512-.5 1.589 1.589 0 000-1.477zm4.482-.116a1.384 1.384 0 00-.537-.571 1.552 1.552 0 00-.8-.2h-.1a1.571 1.571 0 00-.8.2 1.382 1.382 0 00-.536.571 2.007 2.007 0 000 1.709 1.378 1.378 0 00.54.571 1.587 1.587 0 00.807.2h.1a1.54 1.54 0 00.793-.2 1.372 1.372 0 00.529-.571 2.021 2.021 0 000-1.709zM169.944 72.621a2.866 2.866 0 01-2.078.72h-4.519a2.856 2.856 0 01-2.082-.724 3.393 3.393 0 010-4.229 2.863 2.863 0 012.085-.72h4.519a2.853 2.853 0 012.081.724 3.379 3.379 0 010 4.229zm-.968-3.207a1.59 1.59 0 00-1.11-.352h-4.519a1.6 1.6 0 00-1.111.349 1.742 1.742 0 000 2.187 1.6 1.6 0 001.111.349h4.519a1.59 1.59 0 001.11-.352 1.73 1.73 0 000-2.181zM169.944 64.9a2.862 2.862 0 01-2.078.721h-4.519a2.852 2.852 0 01-2.082-.725 3.391 3.391 0 010-4.228 2.859 2.859 0 012.085-.721h4.519a2.849 2.849 0 012.081.725 3.377 3.377 0 010 4.228zm-.968-3.207a1.6 1.6 0 00-1.11-.351h-4.519a1.607 1.607 0 00-1.111.348 1.743 1.743 0 000 2.188 1.607 1.607 0 001.111.348h4.519a1.6 1.6 0 001.11-.351 1.731 1.731 0 000-2.182z"/><path class="cls-7" d="M157.991 56.519l1.461 1.461" id="LINE-4" data-name="LINE"/><path class="cls-7" d="M156.53 57.98l1.461-1.461" id="LINE-5" data-name="LINE"/><path class="cls-7" d="M158 84.644l-1.461-1.461" id="LINE-6" data-name="LINE"/><path class="cls-7" d="M159.461 83.183L158 84.644" id="LINE-7" data-name="LINE"/><path class="cls-7" d="M157.52 121.292h-19.03" id="LINE-8" data-name="LINE"/><path class="cls-7" d="M157.52 153.182h-19.309" id="LINE-9" data-name="LINE"/><path class="cls-7" d="M157.52 153.182v-31.89" id="LINE-10" data-name="LINE"/><path d="M164.8 144.007l.246.007a1.028 1.028 0 01.462.516 2.077 2.077 0 01.147.817 2.189 2.189 0 01-.362 1.251 2.367 2.367 0 01-1.022.838 3.706 3.706 0 01-1.528.3h-.007a3.826 3.826 0 01-1.648-.324 2.3 2.3 0 01-1.039-.951 3 3 0 01-.355-1.5 2.932 2.932 0 01.362-1.5 2.331 2.331 0 011.053-.947 3.89 3.89 0 011.661-.325h.007a5.2 5.2 0 011.139.137 6.983 6.983 0 011.2.39l.181.082c.062.027.123.056.181.088l4.259 2.12v1.5zm-.861-.065a1.949 1.949 0 00-1.251-.358h-.007a1.861 1.861 0 00-1.217.358 1.421 1.421 0 000 2.037 1.861 1.861 0 001.224.36h.007a1.925 1.925 0 001.248-.36 1.394 1.394 0 000-2.037zM169.1 139.623a2.865 2.865 0 01-2.078.72H162.5a2.852 2.852 0 01-2.081-.724 3.387 3.387 0 010-4.229 2.861 2.861 0 012.085-.72h4.518a2.557 2.557 0 012.823 2.837 2.815 2.815 0 01-.745 2.116zm-.966-3.207a1.594 1.594 0 00-1.112-.352H162.5a1.6 1.6 0 00-1.111.349 1.742 1.742 0 000 2.187 1.6 1.6 0 001.111.349h4.518a1.594 1.594 0 001.112-.352 1.737 1.737 0 000-2.181zM169.1 131.9a2.861 2.861 0 01-2.078.721H162.5a2.848 2.848 0 01-2.081-.725 3.386 3.386 0 010-4.228 2.858 2.858 0 012.085-.721h4.518a2.558 2.558 0 012.823 2.837 2.812 2.812 0 01-.745 2.116zm-.966-3.207a1.6 1.6 0 00-1.112-.351H162.5a1.6 1.6 0 00-1.111.348 1.743 1.743 0 000 2.188 1.6 1.6 0 001.111.348h4.518a1.6 1.6 0 001.112-.351 1.738 1.738 0 000-2.182z"/><path class="cls-7" d="M157.52 121.292l1.461 1.461" id="LINE-11" data-name="LINE"/><path class="cls-7" d="M156.058 122.753l1.462-1.461" id="LINE-12" data-name="LINE"/><path class="cls-7" d="M157.528 153.182l-1.461-1.461" id="LINE-13" data-name="LINE"/><path class="cls-7" d="M158.989 151.721l-1.461 1.461" id="LINE-14" data-name="LINE"/><path class="cls-7" d="M138.879 257.042H257.29" id="LINE-15" data-name="LINE"/><path d="M187.391 254.488l-.635-.3a2.511 2.511 0 01-1.023-.883 3.169 3.169 0 01-.488-1.39h1.422a1.5 1.5 0 00.266.7 1.231 1.231 0 00.531.406 1.964 1.964 0 00.761.134 1.481 1.481 0 001.073-.369 1.378 1.378 0 00.383-1.039v-.3a1.672 1.672 0 00-.362-1.151 1.3 1.3 0 00-1.025-.407h-.7v-1.327h.7a1.166 1.166 0 00.9-.348 1.4 1.4 0 00.321-.985v-.307a1.188 1.188 0 00-.339-.909 1.333 1.333 0 00-.96-.322 1.441 1.441 0 00-.635.134 1.2 1.2 0 00-.475.41 1.846 1.846 0 00-.284.694h-1.415a3.642 3.642 0 01.515-1.395 2.533 2.533 0 01.961-.882 2.867 2.867 0 011.333-.3 2.758 2.758 0 011.99.677 2.522 2.522 0 01.7 1.907v.164a2.144 2.144 0 01-.4 1.3 2.277 2.277 0 01-1.141.807 2.023 2.023 0 011.261.8 2.649 2.649 0 01.448 1.586v.164a3.054 3.054 0 01-.335 1.483 2.22 2.22 0 01-.975.937 3.386 3.386 0 01-1.541.321zM195.458 254.385h-1.4v-8.421l-1.415.868v-1.443l1.415-.943h1.4zM197.563 253.175l3.466-4.621a3.474 3.474 0 00.468-.823 2.19 2.19 0 00.168-.8v-.013a1.206 1.206 0 00-.349-.923 1.595 1.595 0 00-1.976.03 1.639 1.639 0 00-.458 1.016v.006h-1.442v-.006a3.71 3.71 0 01.5-1.459 2.561 2.561 0 01.981-.924 2.942 2.942 0 011.388-.318 3.47 3.47 0 011.518.3 2.138 2.138 0 01.957.886 2.805 2.805 0 01.328 1.4v.007a3.088 3.088 0 01-.219 1.1 4.692 4.692 0 01-.608 1.107l-2.878 3.91h3.76v1.326h-5.606zM206.385 254.194a2.4 2.4 0 01-.951-.854 3.416 3.416 0 01-.488-1.347v-.007h1.394v.007a1.3 1.3 0 00.438.851 1.415 1.415 0 00.943.3 1.261 1.261 0 001.036-.448 1.941 1.941 0 00.366-1.261v-.834a1.933 1.933 0 00-.366-1.255 1.263 1.263 0 00-1.036-.447 1.316 1.316 0 00-.7.205 1.953 1.953 0 00-.588.574h-1.271v-5.236h5.065v1.326h-3.671v2.235a1.992 1.992 0 01.581-.328 1.927 1.927 0 01.657-.116 2.885 2.885 0 011.473.356 2.284 2.284 0 01.93 1.039 3.9 3.9 0 01.317 1.647v.834a3.775 3.775 0 01-.328 1.648 2.341 2.341 0 01-.957 1.043 3.014 3.014 0 01-1.511.358 2.944 2.944 0 01-1.333-.29z"/><path class="cls-7" d="M257.127 257.042l-1.462 1.461" id="LINE-16" data-name="LINE"/><path class="cls-7" d="M255.665 255.58l1.462 1.462" id="LINE-17" data-name="LINE"/><path class="cls-7" d="M138.879 257.041l1.462-1.461" id="LINE-18" data-name="LINE"/><path class="cls-7" d="M140.341 258.502l-1.462-1.461" id="LINE-19" data-name="LINE"/><path class="cls-7" d="M11.574 257.042h124.283" id="LINE-20" data-name="LINE"/><path d="M61.646 252.988l-.636-.3a2.514 2.514 0 01-1.022-.883 3.169 3.169 0 01-.488-1.39h1.422a1.494 1.494 0 00.266.7 1.234 1.234 0 00.53.406 1.973 1.973 0 00.762.134 1.483 1.483 0 001.073-.369 1.378 1.378 0 00.383-1.039v-.3a1.672 1.672 0 00-.362-1.151 1.3 1.3 0 00-1.026-.407h-.7v-1.327h.7a1.167 1.167 0 00.9-.348 1.4 1.4 0 00.321-.985v-.307a1.188 1.188 0 00-.339-.909 1.333 1.333 0 00-.96-.322 1.441 1.441 0 00-.635.134 1.2 1.2 0 00-.475.41 1.846 1.846 0 00-.284.694h-1.412a3.626 3.626 0 01.515-1.395 2.533 2.533 0 01.961-.882 2.867 2.867 0 011.333-.3 2.758 2.758 0 011.99.677 2.522 2.522 0 01.7 1.907v.164a2.144 2.144 0 01-.4 1.3 2.277 2.277 0 01-1.141.807 2.018 2.018 0 011.26.8 2.643 2.643 0 01.449 1.586v.164A3.065 3.065 0 0165 251.73a2.22 2.22 0 01-.975.937 3.386 3.386 0 01-1.541.321zM69.049 252.988l-.635-.3a2.511 2.511 0 01-1.023-.883 3.169 3.169 0 01-.488-1.39h1.422a1.5 1.5 0 00.266.7 1.231 1.231 0 00.531.406 1.968 1.968 0 00.761.134 1.485 1.485 0 001.074-.369 1.378 1.378 0 00.383-1.039v-.3a1.672 1.672 0 00-.363-1.151 1.3 1.3 0 00-1.025-.407h-.7v-1.327h.7a1.165 1.165 0 00.9-.348 1.4 1.4 0 00.321-.985v-.307a1.191 1.191 0 00-.338-.909 1.335 1.335 0 00-.96-.322 1.442 1.442 0 00-.636.134 1.2 1.2 0 00-.475.41 1.862 1.862 0 00-.284.694h-1.413a3.626 3.626 0 01.516-1.395 2.526 2.526 0 01.961-.882 2.865 2.865 0 011.333-.3 2.757 2.757 0 011.989.677 2.519 2.519 0 01.7 1.907v.164a2.15 2.15 0 01-.4 1.3 2.284 2.284 0 01-1.142.807 2.023 2.023 0 011.261.8 2.643 2.643 0 01.448 1.586v.164a3.054 3.054 0 01-.335 1.483 2.22 2.22 0 01-.975.937 3.383 3.383 0 01-1.541.321zM74.566 251.675l3.466-4.621a3.474 3.474 0 00.468-.823 2.19 2.19 0 00.168-.8v-.013a1.206 1.206 0 00-.349-.923 1.595 1.595 0 00-1.976.03 1.634 1.634 0 00-.458 1.016v.006h-1.442v-.006a3.71 3.71 0 01.5-1.459 2.561 2.561 0 01.981-.924 2.942 2.942 0 011.388-.318 3.47 3.47 0 011.518.3 2.138 2.138 0 01.957.886 2.816 2.816 0 01.328 1.4v.007a3.088 3.088 0 01-.219 1.1 4.728 4.728 0 01-.608 1.107l-2.878 3.91h3.76v1.326h-5.604zM83.388 252.694a2.4 2.4 0 01-.951-.854 3.416 3.416 0 01-.488-1.347v-.007h1.394v.007a1.3 1.3 0 00.438.851 1.415 1.415 0 00.943.3 1.257 1.257 0 001.035-.448 1.936 1.936 0 00.367-1.261v-.834a1.927 1.927 0 00-.367-1.255 1.259 1.259 0 00-1.035-.447 1.316 1.316 0 00-.7.205 1.953 1.953 0 00-.588.574h-1.268v-5.236h5.065v1.326h-3.671v2.235a1.992 1.992 0 01.581-.328 1.926 1.926 0 01.656-.116 2.886 2.886 0 011.474.356 2.284 2.284 0 01.93 1.039 3.9 3.9 0 01.317 1.647v.834a3.775 3.775 0 01-.328 1.648 2.341 2.341 0 01-.957 1.043 3.014 3.014 0 01-1.511.358 2.944 2.944 0 01-1.336-.29z"/><path class="cls-7" d="M135.924 257.042l-1.461 1.461" id="LINE-21" data-name="LINE"/><path class="cls-7" d="M134.463 255.58l1.461 1.462" id="LINE-22" data-name="LINE"/><path class="cls-7" d="M11.574 257.041l1.461-1.461" id="LINE-23" data-name="LINE"/><path class="cls-7" d="M13.035 258.502l-1.461-1.461" id="LINE-24" data-name="LINE"/><path class="cls-7" d="M244.47 92.813v173.385" id="LINE-25" data-name="LINE"/><path d="M239.542 193.243l-7.2-3.336v-1.436l7.118 3.254v-4.874h1.291v6.392zm-3.112-4.286V187.6h5.852v1.361zM242.085 183.7a2.424 2.424 0 01-.856.951 3.4 3.4 0 01-1.346.488h-.007v-1.394h.007a1.293 1.293 0 00.851-.438 1.419 1.419 0 00.3-.943 1.259 1.259 0 00-.448-1.035 1.939 1.939 0 00-1.261-.366h-.825a1.932 1.932 0 00-1.254.366 1.258 1.258 0 00-.447 1.035 1.314 1.314 0 00.2.7 1.941 1.941 0 00.574.588v1.272h-5.236v-5.066h1.326v3.671h2.237a2.015 2.015 0 01-.328-.581 1.925 1.925 0 01-.115-.656 2.886 2.886 0 01.355-1.474 2.284 2.284 0 011.039-.93 3.893 3.893 0 011.647-.317h.834a3.781 3.781 0 011.648.328 2.329 2.329 0 011.042.957 3 3 0 01.359 1.511 2.944 2.944 0 01-.296 1.333zM237.34 174l.247.007a1.029 1.029 0 01.461.515 2.1 2.1 0 01.146.818 2.2 2.2 0 01-.361 1.251 2.375 2.375 0 01-1.023.837 3.69 3.69 0 01-1.528.3h-.006a3.823 3.823 0 01-1.648-.324 2.293 2.293 0 01-1.039-.951 2.986 2.986 0 01-.356-1.5 2.923 2.923 0 01.363-1.5 2.318 2.318 0 011.053-.946 3.867 3.867 0 011.66-.326h.008a5.184 5.184 0 011.138.137 6.993 6.993 0 011.2.39l.181.082a2 2 0 01.18.089l4.26 2.119v1.5zm-.861-.066a1.954 1.954 0 00-1.252-.358h-.006a1.854 1.854 0 00-1.216.358 1.417 1.417 0 000 2.037 1.848 1.848 0 001.222.36h.008a1.918 1.918 0 001.247-.36 1.393 1.393 0 000-2.037zM242.085 168.9a2.417 2.417 0 01-.856.951 3.385 3.385 0 01-1.346.489h-.007v-1.4h.007a1.292 1.292 0 00.851-.437 1.423 1.423 0 00.3-.944 1.259 1.259 0 00-.448-1.035 1.939 1.939 0 00-1.261-.366h-.825a1.932 1.932 0 00-1.254.366 1.258 1.258 0 00-.447 1.035 1.314 1.314 0 00.2.7 1.941 1.941 0 00.574.588v1.272h-5.236v-5.066h1.326v3.671h2.237a2.015 2.015 0 01-.328-.581 1.921 1.921 0 01-.115-.656 2.891 2.891 0 01.355-1.474 2.282 2.282 0 011.039-.929 3.892 3.892 0 011.647-.318h.834a3.8 3.8 0 011.648.328 2.334 2.334 0 011.042.957 3 3 0 01.359 1.511 2.944 2.944 0 01-.296 1.338z"/><path class="cls-7" d="M244.47 266.34l-1.461-1.462" id="LINE-26" data-name="LINE"/><path class="cls-7" d="M245.932 264.878l-1.462 1.462" id="LINE-27" data-name="LINE"/><path class="cls-7" d="M244.471 92.813l1.461 1.461" id="LINE-28" data-name="LINE"/><path class="cls-7" d="M243.01 94.274l1.461-1.461" id="LINE-29" data-name="LINE"/><path class="cls-7" d="M21.225 88.902v177.327" id="LINE-30" data-name="LINE"/><path d="M31.671 191.7l-7.2-3.336v-1.434l7.116 3.254v-4.874h1.292v6.39zm-3.11-4.286v-1.361h5.851v1.361zM34.156 182.535a2.293 2.293 0 01-1.025.947 3.721 3.721 0 01-1.624.324H31.5a5.545 5.545 0 01-1.162-.13 6.6 6.6 0 01-1.2-.376 2.416 2.416 0 01-.2-.088l-.2-.1-4.279-2.16v-1.5l4.956 2.536-.246-.007a1.2 1.2 0 01-.5-.5 1.579 1.579 0 01-.178-.766 2.435 2.435 0 01.349-1.326 2.182 2.182 0 011.015-.841 4.044 4.044 0 011.6-.287h.007a3.783 3.783 0 011.64.326 2.287 2.287 0 011.04.949 3.355 3.355 0 010 3zm-1.4-2.52a1.726 1.726 0 00-1.169-.358h-.007a1.966 1.966 0 00-1.288.376 1.311 1.311 0 00-.455 1.073 1.133 1.133 0 00.458.964 2.124 2.124 0 001.292.342h.013a1.7 1.7 0 001.165-.36 1.474 1.474 0 000-2.037zM29.47 172.9l.246.007a1.027 1.027 0 01.461.516 2.059 2.059 0 01.147.817 2.189 2.189 0 01-.362 1.251 2.374 2.374 0 01-1.022.838 3.706 3.706 0 01-1.528.3h-.007a3.836 3.836 0 01-1.647-.324 2.29 2.29 0 01-1.039-.952 2.986 2.986 0 01-.356-1.5 2.923 2.923 0 01.363-1.5 2.321 2.321 0 011.052-.946 3.876 3.876 0 011.662-.325h.006a5.193 5.193 0 011.139.137 6.865 6.865 0 011.2.389c.059.028.12.055.181.082s.123.057.182.089l4.258 2.119v1.5zm-.861-.065a1.947 1.947 0 00-1.251-.359h-.007a1.852 1.852 0 00-1.217.359 1.419 1.419 0 000 2.037 1.857 1.857 0 001.224.359h.006a1.925 1.925 0 001.248-.359 1.393 1.393 0 000-2.037zM33.763 168.511a2.864 2.864 0 01-2.078.721h-4.519a2.843 2.843 0 110-5.674h4.519a2.559 2.559 0 012.823 2.837 2.816 2.816 0 01-.745 2.116zM32.8 165.3a1.6 1.6 0 00-1.111-.351h-4.523a1.607 1.607 0 00-1.111.348 1.743 1.743 0 000 2.188 1.607 1.607 0 001.111.349h4.519a1.6 1.6 0 001.111-.352 1.735 1.735 0 000-2.182z"/><path class="cls-7" d="M21.225 266.229l-1.461-1.461" id="LINE-31" data-name="LINE"/><path class="cls-7" d="M22.687 264.768l-1.462 1.461" id="LINE-32" data-name="LINE"/><path class="cls-7" d="M21.226 88.902l1.461 1.461" id="LINE-33" data-name="LINE"/><path class="cls-7" d="M19.765 90.363l1.461-1.461" id="LINE-34" data-name="LINE"/><path class="cls-7" d="M253.528 24.853v64.773" id="LINE-35" data-name="LINE"/><path d="M251.333 75.857v1.395h-8.422l.868 1.415h-1.442l-.944-1.415v-1.395zM242.637 68.467l8.7 2.571v1.483l-8.614-2.57v2.529h1.429v1.395h-2.755v-5.408zM251.141 65.114a2.4 2.4 0 01-.854.951 3.4 3.4 0 01-1.347.488h-.007v-1.394h.007a1.293 1.293 0 00.852-.438 1.418 1.418 0 00.3-.943 1.261 1.261 0 00-.447-1.035 1.944 1.944 0 00-1.262-.366h-.834a1.93 1.93 0 00-1.254.366 1.261 1.261 0 00-.448 1.035 1.323 1.323 0 00.205.7 1.945 1.945 0 00.575.588v1.272h-5.237v-5.069h1.326v3.671h2.236a1.992 1.992 0 01-.328-.581 1.9 1.9 0 01-.117-.656 2.9 2.9 0 01.356-1.474 2.289 2.289 0 011.039-.93 3.915 3.915 0 011.647-.317h.834a3.775 3.775 0 011.648.328 2.326 2.326 0 011.043.957 3 3 0 01.358 1.511 2.918 2.918 0 01-.291 1.336zM250.69 58.211a2.865 2.865 0 01-2.078.72h-4.519a2.855 2.855 0 01-2.081-.724 3.391 3.391 0 010-4.229 2.865 2.865 0 012.085-.721h4.519a2.558 2.558 0 012.823 2.837 2.816 2.816 0 01-.749 2.117zM249.723 55a1.593 1.593 0 00-1.111-.352h-4.519a1.6 1.6 0 00-1.11.349 1.738 1.738 0 000 2.187 1.6 1.6 0 001.11.349h4.519a1.593 1.593 0 001.111-.352 1.733 1.733 0 000-2.181z"/><path class="cls-7" d="M253.528 89.617l-1.462-1.461" id="LINE-36" data-name="LINE"/><path class="cls-7" d="M254.989 88.156l-1.461 1.461" id="LINE-37" data-name="LINE"/><path class="cls-7" d="M253.528 24.853l1.462 1.461" id="LINE-38" data-name="LINE"/><path class="cls-7" d="M252.067 26.314l1.461-1.461" id="LINE-39" data-name="LINE"/><path class="cls-7" d="M225.694 40.744v48.873" id="LINE-40" data-name="LINE"/><path d="M223.5 77.013v1.395h-8.422l.868 1.415H214.5l-.944-1.415v-1.395zM223.6 73.021l-.3.636a2.522 2.522 0 01-.882 1.022 3.2 3.2 0 01-1.392.489v-1.422a1.491 1.491 0 00.7-.267 1.233 1.233 0 00.408-.53 2.012 2.012 0 00.132-.762 1.483 1.483 0 00-.369-1.073 1.376 1.376 0 00-1.039-.383h-.3a1.676 1.676 0 00-1.151.362 1.3 1.3 0 00-.407 1.026v.7h-1.326v-.7a1.168 1.168 0 00-.349-.9 1.4 1.4 0 00-.984-.321h-.308a1.19 1.19 0 00-.909.339 1.339 1.339 0 00-.321.96 1.462 1.462 0 00.133.636 1.219 1.219 0 00.41.474 1.877 1.877 0 00.694.285V75a3.639 3.639 0 01-1.395-.516 2.55 2.55 0 01-.882-.961 2.867 2.867 0 01-.3-1.333 2.755 2.755 0 01.676-1.989 2.521 2.521 0 011.908-.7h.164a2.148 2.148 0 011.3.4 2.272 2.272 0 01.806 1.142 2.027 2.027 0 01.8-1.261 2.645 2.645 0 011.586-.448h.164a3.051 3.051 0 011.483.335 2.2 2.2 0 01.937.974 3.389 3.389 0 01.321 1.541zM223.307 65.915a2.4 2.4 0 01-.854.951 3.4 3.4 0 01-1.347.488h-.006V65.96h.007a1.3 1.3 0 00.852-.438 1.42 1.42 0 00.3-.943 1.259 1.259 0 00-.447-1.035 1.939 1.939 0 00-1.262-.367h-.834a1.919 1.919 0 00-1.253.367 1.258 1.258 0 00-.449 1.035 1.325 1.325 0 00.205.7 1.945 1.945 0 00.575.588v1.271h-5.237V62.07h1.326v3.671h2.236a1.992 1.992 0 01-.328-.581 1.9 1.9 0 01-.117-.656 2.9 2.9 0 01.356-1.474 2.289 2.289 0 011.039-.93 3.9 3.9 0 011.647-.317h.834a3.775 3.775 0 011.648.328 2.326 2.326 0 011.043.957 3 3 0 01.358 1.511 2.918 2.918 0 01-.292 1.336zM223.307 58.293a2.4 2.4 0 01-.854.951 3.4 3.4 0 01-1.347.488h-.006v-1.394h.007a1.3 1.3 0 00.852-.438 1.42 1.42 0 00.3-.943 1.259 1.259 0 00-.447-1.035 1.939 1.939 0 00-1.262-.367h-.834a1.919 1.919 0 00-1.253.367 1.258 1.258 0 00-.449 1.035 1.325 1.325 0 00.205.7 1.945 1.945 0 00.575.588v1.271h-5.237v-5.068h1.326v3.671h2.236a1.992 1.992 0 01-.328-.581 1.9 1.9 0 01-.117-.656 2.9 2.9 0 01.356-1.474 2.289 2.289 0 011.039-.93 3.9 3.9 0 011.647-.317h.834a3.775 3.775 0 011.648.328 2.326 2.326 0 011.043.957 3 3 0 01.358 1.511 2.918 2.918 0 01-.292 1.336z"/><path class="cls-7" d="M225.694 89.617l-1.461-1.461" id="LINE-41" data-name="LINE"/><path class="cls-7" d="M227.155 88.156l-1.461 1.461" id="LINE-42" data-name="LINE"/><path class="cls-7" d="M225.695 40.744l1.461 1.461" id="LINE-43" data-name="LINE"/><path class="cls-7" d="M224.234 42.205l1.461-1.461" id="LINE-44" data-name="LINE"/><path class="cls-7" d="M21.225 40.316v45.563" id="LINE-45" data-name="LINE"/><path d="M34.405 73.208V74.6h-8.421l.868 1.415h-1.443l-.943-1.415v-1.392zM33.2 71.1l-4.621-3.466a3.435 3.435 0 00-.823-.467 2.169 2.169 0 00-.8-.168h-.013a1.205 1.205 0 00-.923.348 1.392 1.392 0 00-.328.992 1.368 1.368 0 00.358.984 1.634 1.634 0 001.016.458h.006v1.442h-.006a3.726 3.726 0 01-1.46-.5 2.566 2.566 0 01-.923-.981 2.924 2.924 0 01-.318-1.388 3.451 3.451 0 01.3-1.517 2.131 2.131 0 01.885-.957 2.8 2.8 0 011.4-.329h.007a3.11 3.11 0 011.1.219 4.733 4.733 0 011.107.609l3.91 2.878V65.5H34.4v5.6zM34.214 62.28a2.412 2.412 0 01-.854.951 3.41 3.41 0 01-1.347.488h-.007v-1.394h.007a1.291 1.291 0 00.851-.438 1.413 1.413 0 00.3-.943 1.259 1.259 0 00-.448-1.035 1.939 1.939 0 00-1.261-.366h-.834a1.93 1.93 0 00-1.254.366 1.259 1.259 0 00-.448 1.035 1.314 1.314 0 00.205.7 1.953 1.953 0 00.574.588V63.5h-5.232v-5.065h1.326v3.671h2.236a1.972 1.972 0 01-.329-.581 1.926 1.926 0 01-.116-.656 2.889 2.889 0 01.356-1.474 2.272 2.272 0 011.039-.929 3.9 3.9 0 011.647-.318h.834a3.778 3.778 0 011.648.328 2.329 2.329 0 011.042.957 3 3 0 01.359 1.511 2.931 2.931 0 01-.294 1.336zM33.763 55.377a2.868 2.868 0 01-2.078.72h-4.519a2.843 2.843 0 110-5.673h4.519a2.852 2.852 0 012.081.724 3.379 3.379 0 010 4.229zM32.8 52.17a1.593 1.593 0 00-1.111-.352h-4.523a1.6 1.6 0 00-1.111.349 1.742 1.742 0 000 2.187 1.6 1.6 0 001.111.349h4.519a1.593 1.593 0 001.111-.352 1.733 1.733 0 000-2.181z"/><path class="cls-7" d="M21.225 85.879l-1.461-1.461" id="LINE-46" data-name="LINE"/><path class="cls-7" d="M22.687 84.418l-1.462 1.461" id="LINE-47" data-name="LINE"/><path class="cls-7" d="M21.226 40.316l1.461 1.461" id="LINE-48" data-name="LINE"/><path class="cls-7" d="M19.765 41.777l1.461-1.461" id="LINE-49" data-name="LINE"/><path class="cls-7" d="M135.709 81.477H11.521" id="LINE-50" data-name="LINE"/><path d="M61.546 77.726l-.636-.3a2.513 2.513 0 01-1.022-.882 3.182 3.182 0 01-.488-1.391h1.421a1.5 1.5 0 00.267.7 1.244 1.244 0 00.53.407 2.011 2.011 0 00.762.133 1.483 1.483 0 001.073-.369 1.378 1.378 0 00.383-1.039v-.3a1.678 1.678 0 00-.362-1.152 1.3 1.3 0 00-1.026-.406h-.7v-1.334h.7a1.168 1.168 0 00.9-.349 1.4 1.4 0 00.321-.984v-.308a1.187 1.187 0 00-.339-.909 1.333 1.333 0 00-.96-.321 1.476 1.476 0 00-.636.132 1.214 1.214 0 00-.474.411 1.846 1.846 0 00-.284.694h-1.412a3.609 3.609 0 01.515-1.4 2.541 2.541 0 01.961-.882 2.855 2.855 0 011.333-.3 2.754 2.754 0 011.989.676 2.521 2.521 0 01.7 1.908v.164a2.15 2.15 0 01-.4 1.3 2.275 2.275 0 01-1.141.806 2.014 2.014 0 011.26.8 2.643 2.643 0 01.449 1.586v.164a3.065 3.065 0 01-.335 1.483 2.214 2.214 0 01-.975.937 3.4 3.4 0 01-1.541.321zM68.949 77.726l-.635-.3a2.516 2.516 0 01-1.023-.882 3.182 3.182 0 01-.488-1.391h1.422a1.509 1.509 0 00.266.7 1.241 1.241 0 00.531.407 2 2 0 00.761.133 1.485 1.485 0 001.074-.369 1.381 1.381 0 00.382-1.039v-.3a1.678 1.678 0 00-.362-1.152 1.3 1.3 0 00-1.025-.406h-.7v-1.334h.7a1.167 1.167 0 00.9-.349 1.4 1.4 0 00.321-.984v-.308a1.187 1.187 0 00-.339-.909 1.33 1.33 0 00-.959-.321 1.47 1.47 0 00-.636.132 1.21 1.21 0 00-.475.411 1.862 1.862 0 00-.284.694h-1.413a3.626 3.626 0 01.516-1.4 2.526 2.526 0 01.961-.882 2.852 2.852 0 011.333-.3 2.757 2.757 0 011.989.676 2.521 2.521 0 01.7 1.908v.164a2.156 2.156 0 01-.4 1.3 2.282 2.282 0 01-1.142.806 2.019 2.019 0 011.261.8 2.643 2.643 0 01.448 1.586v.164a3.054 3.054 0 01-.335 1.483 2.214 2.214 0 01-.975.937 3.4 3.4 0 01-1.541.321zM74.466 76.414l3.466-4.621a3.466 3.466 0 00.468-.825 2.176 2.176 0 00.168-.8v-.014a1.208 1.208 0 00-.349-.923 1.391 1.391 0 00-.991-.328 1.369 1.369 0 00-.985.358 1.634 1.634 0 00-.458 1.016v.007h-1.442v-.007a3.726 3.726 0 01.5-1.46 2.566 2.566 0 01.981-.923 2.929 2.929 0 011.388-.317 3.47 3.47 0 011.518.3 2.143 2.143 0 01.957.886 2.817 2.817 0 01.328 1.4v.006a3.088 3.088 0 01-.219 1.1 4.708 4.708 0 01-.608 1.107L76.312 76.3h3.759v1.326h-5.605zM83.288 77.432a2.418 2.418 0 01-.951-.854 3.41 3.41 0 01-.488-1.347v-.007h1.394v.007a1.3 1.3 0 00.438.851 1.413 1.413 0 00.943.3 1.259 1.259 0 001.035-.448 1.941 1.941 0 00.367-1.261v-.834a1.928 1.928 0 00-.367-1.254 1.261 1.261 0 00-1.035-.448 1.325 1.325 0 00-.7.2 1.945 1.945 0 00-.588.575h-1.268v-5.228h5.065v1.326h-3.671v2.236a1.947 1.947 0 01.581-.328 1.9 1.9 0 01.657-.118 2.886 2.886 0 011.474.356A2.279 2.279 0 0187.1 72.2a3.9 3.9 0 01.317 1.647v.834a3.778 3.778 0 01-.328 1.648 2.329 2.329 0 01-.957 1.042 3 3 0 01-1.511.359 2.931 2.931 0 01-1.333-.298z"/><path class="cls-7" d="M11.521 81.477l1.461-1.462" id="LINE-51" data-name="LINE"/><path class="cls-7" d="M12.982 82.938l-1.461-1.461" id="LINE-52" data-name="LINE"/><path class="cls-7" d="M135.703 81.477l-1.462 1.461" id="LINE-53" data-name="LINE"/><path class="cls-7" d="M134.241 80.016l1.462 1.461" id="LINE-54" data-name="LINE"/><path class="cls-7" d="M135.709 87.34v-9.716"/><path class="cls-7" d="M135.709 88.071H79.367" id="LINE-55" data-name="LINE"/><path d="M98.972 101.251h-1.394v-8.422l-1.415.868v-1.442l1.415-.944h1.394zM106.362 92.555l-2.57 8.7h-1.484l2.571-8.614h-2.53v1.429h-1.394v-2.759h5.407zM110.675 101.251h-1.394v-8.422l-1.415.868v-1.442l1.415-.944h1.394zM114.371 101.059a2.4 2.4 0 01-.951-.854 3.4 3.4 0 01-.489-1.347v-.007h1.395v.007a1.3 1.3 0 00.437.852 1.423 1.423 0 00.944.3 1.259 1.259 0 001.035-.448 1.941 1.941 0 00.366-1.261v-.831a1.928 1.928 0 00-.366-1.254 1.261 1.261 0 00-1.035-.448 1.326 1.326 0 00-.7.2 1.942 1.942 0 00-.587.575h-1.27v-5.232h5.065v1.326h-3.67v2.236a1.935 1.935 0 01.581-.328 1.9 1.9 0 01.656-.117 2.9 2.9 0 011.474.356 2.282 2.282 0 01.929 1.039 3.9 3.9 0 01.318 1.647v.83a3.775 3.775 0 01-.329 1.648 2.331 2.331 0 01-.957 1.043 3.01 3.01 0 01-1.51.358 2.928 2.928 0 01-1.336-.29z"/><path class="cls-7" d="M79.367 88.071l1.461-1.462" id="LINE-56" data-name="LINE"/><path class="cls-7" d="M80.828 89.532l-1.461-1.461" id="LINE-57" data-name="LINE"/><path class="cls-7" d="M135.807 88.071l-1.461 1.462" id="LINE-58" data-name="LINE"/><path class="cls-7" d="M134.346 86.61l1.461 1.461" id="LINE-59" data-name="LINE"/><path class="cls-7" d="M91.276 24.964v60.919" id="LINE-60" data-name="LINE"/><path d="M104.456 65.591v1.4h-8.422L96.9 68.4h-1.44l-.944-1.415v-1.4zM104.206 62.269a2.282 2.282 0 01-1.025.947 3.718 3.718 0 01-1.624.325h-.007a5.545 5.545 0 01-1.162-.13 6.787 6.787 0 01-1.2-.376 3.026 3.026 0 01-.2-.089l-.194-.1-4.28-2.16v-1.5l4.956 2.536-.246-.006a1.208 1.208 0 01-.5-.5 1.583 1.583 0 01-.178-.765 2.441 2.441 0 01.349-1.326 2.181 2.181 0 011.015-.841 4.033 4.033 0 011.6-.287h.007a3.791 3.791 0 011.641.325 2.3 2.3 0 011.039.949 3.355 3.355 0 010 3zm-1.4-2.519a1.721 1.721 0 00-1.169-.359h-.007a1.966 1.966 0 00-1.288.376 1.316 1.316 0 00-.455 1.074 1.13 1.13 0 00.458.963 2.126 2.126 0 001.292.342h.007a1.7 1.7 0 001.166-.359 1.475 1.475 0 000-2.037zM104.264 54.712a2.411 2.411 0 01-.854.951 3.41 3.41 0 01-1.347.488h-.007v-1.394h.007a1.293 1.293 0 00.851-.438 1.415 1.415 0 00.3-.943 1.259 1.259 0 00-.447-1.035 1.939 1.939 0 00-1.262-.367h-.834a1.924 1.924 0 00-1.254.367 1.26 1.26 0 00-.448 1.035 1.325 1.325 0 00.2.7 1.957 1.957 0 00.575.588v1.271h-5.228v-5.068h1.326v3.671h2.236a1.969 1.969 0 01-.328-.581 1.9 1.9 0 01-.117-.657 2.885 2.885 0 01.356-1.473 2.284 2.284 0 011.039-.93 3.9 3.9 0 011.647-.317h.834a3.778 3.778 0 011.648.328 2.329 2.329 0 011.042.957 2.993 2.993 0 01.359 1.511 2.931 2.931 0 01-.294 1.336zM103.813 47.808a2.861 2.861 0 01-2.078.721h-4.519a2.849 2.849 0 01-2.081-.725 3.388 3.388 0 010-4.228 2.857 2.857 0 012.084-.721h4.519a2.852 2.852 0 012.082.725 3.379 3.379 0 010 4.228zm-.967-3.207a1.6 1.6 0 00-1.111-.351h-4.519a1.6 1.6 0 00-1.11.348 1.74 1.74 0 000 2.188 1.6 1.6 0 001.11.348h4.519a1.6 1.6 0 001.111-.351 1.735 1.735 0 000-2.182z"/><path class="cls-7" d="M91.276 85.883l-1.462-1.461" id="LINE-61" data-name="LINE"/><path class="cls-7" d="M92.737 84.422l-1.461 1.461" id="LINE-62" data-name="LINE"/><path class="cls-7" d="M91.276 24.964l1.461 1.461" id="LINE-63" data-name="LINE"/><path class="cls-7" d="M89.815 26.425l1.461-1.461" id="LINE-64" data-name="LINE"/><path class="cls-7" d="M79.118 86.037h14.417"/><path class="cls-7" d="M138.961 44.985h91.824" id="LINE-65" data-name="LINE"/><path d="M170.744 55.762l3.466-4.621a3.416 3.416 0 00.467-.823 2.169 2.169 0 00.168-.8v-.014a1.2 1.2 0 00-.348-.922 1.391 1.391 0 00-.991-.328 1.369 1.369 0 00-.985.359 1.629 1.629 0 00-.458 1.015v.006h-1.442v-.006a3.721 3.721 0 01.5-1.459 2.559 2.559 0 01.981-.923 2.927 2.927 0 011.388-.319 3.451 3.451 0 011.517.3 2.131 2.131 0 01.957.885 2.8 2.8 0 01.329 1.4v.007a3.106 3.106 0 01-.219 1.1 4.733 4.733 0 01-.609 1.107l-2.877 3.91h3.759v1.326h-5.6zM177.58 54.238l3.336-7.2h1.435l-3.251 7.118h4.874v1.292h-6.394zm4.286-3.11h1.36v5.851h-1.36zM186.4 56.33a2.867 2.867 0 01-.721-2.078v-4.519a2.854 2.854 0 01.725-2.081 3.39 3.39 0 014.228 0 2.859 2.859 0 01.721 2.085v4.519a2.856 2.856 0 01-.724 2.082 3.38 3.38 0 01-4.229 0zm3.207-.967a1.6 1.6 0 00.352-1.111v-4.519a1.6 1.6 0 00-.349-1.11 1.74 1.74 0 00-2.188 0 1.6 1.6 0 00-.348 1.11v4.519a1.6 1.6 0 00.351 1.111 1.735 1.735 0 002.182 0zM194.126 56.33a2.862 2.862 0 01-.721-2.078v-4.519a2.849 2.849 0 01.725-2.081 3.39 3.39 0 014.228 0 2.859 2.859 0 01.721 2.085v4.519a2.852 2.852 0 01-.725 2.082 3.379 3.379 0 01-4.228 0zm3.207-.967a1.6 1.6 0 00.351-1.111v-4.519a1.6 1.6 0 00-.348-1.11 1.74 1.74 0 00-2.188 0 1.6 1.6 0 00-.349 1.11v4.519a1.6 1.6 0 00.352 1.111 1.735 1.735 0 002.182 0z"/><path class="cls-7" d="M230.785 44.985l-1.461 1.461" id="LINE-66" data-name="LINE"/><path class="cls-7" d="M229.324 43.524l1.461 1.461" id="LINE-67" data-name="LINE"/><path class="cls-7" d="M138.961 44.985l1.462-1.461" id="LINE-68" data-name="LINE"/><path class="cls-7" d="M140.423 46.446l-1.462-1.461" id="LINE-69" data-name="LINE"/><path class="cls-7" d="M230.785 39.309v8.927"/><path class="cls-7" d="M11.521 96.655h67.78" id="LINE-70" data-name="LINE"/><path d="M36.725 108.643h-1.394v-8.422l-1.415.869v-1.443l1.415-.943h1.394zM40.048 108.393a2.279 2.279 0 01-.948-1.025 3.713 3.713 0 01-.324-1.623v-.007a5.537 5.537 0 01.13-1.162 6.735 6.735 0 01.376-1.2c.027-.069.057-.136.089-.2l.095-.194 2.161-4.282h1.5l-2.537 4.956.007-.246a1.2 1.2 0 01.5-.5 1.579 1.579 0 01.766-.178 2.432 2.432 0 011.326.349 2.179 2.179 0 01.841 1.014 4.052 4.052 0 01.287 1.6v.007a3.789 3.789 0 01-.325 1.64 2.3 2.3 0 01-.949 1.039 3.347 3.347 0 01-3 0zm2.519-1.4a1.728 1.728 0 00.358-1.169v-.007a1.969 1.969 0 00-.376-1.289 1.313 1.313 0 00-1.073-.454 1.131 1.131 0 00-.964.458 2.129 2.129 0 00-.341 1.292v.007A1.7 1.7 0 0040.53 107a1.474 1.474 0 002.037 0zM48.565 108.643h-1.394v-8.422l-1.415.869v-1.443l1.415-.943h1.394zM51.542 108a2.864 2.864 0 01-.721-2.078V101.4a2.843 2.843 0 115.674 0v4.519A2.851 2.851 0 0155.77 108a3.377 3.377 0 01-4.228 0zm3.207-.968a1.6 1.6 0 00.351-1.11V101.4a1.6 1.6 0 00-.348-1.111 1.743 1.743 0 00-2.188 0 1.605 1.605 0 00-.349 1.111v4.519a1.6 1.6 0 00.352 1.11 1.731 1.731 0 002.182 0z"/><path class="cls-7" d="M79.301 96.655l-1.461 1.461" id="LINE-71" data-name="LINE"/><path class="cls-7" d="M77.84 95.194l1.461 1.461" id="LINE-72" data-name="LINE"/><path class="cls-7" d="M11.521 96.655l1.461-1.461" id="LINE-73" data-name="LINE"/><path class="cls-7" d="M12.982 98.116l-1.461-1.461" id="LINE-74" data-name="LINE"/><path class="cls-7" d="M79.367 88.902v11.004"/><path class="cls-7" d="M130.354 152.73v113.735" id="LINE-75" data-name="LINE"/><path d="M125.682 223.266l-4.621-3.466a3.421 3.421 0 00-.824-.467 2.16 2.16 0 00-.8-.168h-.014a1.2 1.2 0 00-.922.348 1.392 1.392 0 00-.329.992 1.368 1.368 0 00.359.984 1.631 1.631 0 001.015.458h.007v1.442h-.007a3.731 3.731 0 01-1.46-.5 2.563 2.563 0 01-.922-.981 2.924 2.924 0 01-.318-1.388 3.466 3.466 0 01.3-1.517 2.133 2.133 0 01.886-.957 2.8 2.8 0 011.4-.328h.007a3.1 3.1 0 011.1.218 4.739 4.739 0 011.108.609l3.91 2.878v-3.76h1.326v5.6zM121.957 212.363l.246.007a1.029 1.029 0 01.461.515 2.082 2.082 0 01.147.818 2.2 2.2 0 01-.362 1.251 2.378 2.378 0 01-1.023.838 3.7 3.7 0 01-1.527.3h-.007a3.818 3.818 0 01-1.647-.325 2.278 2.278 0 01-1.039-.951 2.976 2.976 0 01-.356-1.5 2.913 2.913 0 01.363-1.5 2.316 2.316 0 011.052-.946 3.869 3.869 0 011.661-.325h.007a5.234 5.234 0 011.138.136 6.965 6.965 0 011.2.39l.181.082c.062.027.122.057.181.089l4.259 2.119v1.5zm-.862-.065a1.945 1.945 0 00-1.251-.359h-.006a1.85 1.85 0 00-1.217.359 1.419 1.419 0 000 2.037 1.854 1.854 0 001.223.359h.007a1.924 1.924 0 001.247-.359 1.391 1.391 0 000-2.037zM118.2 203.565l8.695 2.57v1.484l-8.613-2.57v2.529h1.429v1.394h-2.755v-5.407zM126.7 200.212a2.421 2.421 0 01-.855.951 3.411 3.411 0 01-1.346.488h-.007v-1.394h.007a1.293 1.293 0 00.85-.438 1.416 1.416 0 00.305-.943 1.257 1.257 0 00-.448-1.035 1.936 1.936 0 00-1.261-.367h-.834a1.927 1.927 0 00-1.255.367 1.259 1.259 0 00-.447 1.035 1.316 1.316 0 00.2.7 1.953 1.953 0 00.574.588v1.271h-5.236v-5.065h1.326v3.671h2.235a1.969 1.969 0 01-.328-.581 1.9 1.9 0 01-.116-.657 2.885 2.885 0 01.355-1.473 2.282 2.282 0 011.04-.93 3.893 3.893 0 011.647-.317h.834a3.773 3.773 0 011.647.328 2.329 2.329 0 011.042.957 2.993 2.993 0 01.36 1.511 2.944 2.944 0 01-.289 1.333z"/><path class="cls-7" d="M130.354 266.229l-1.461-1.462" id="LINE-76" data-name="LINE"/><path class="cls-7" d="M131.815 264.767l-1.461 1.462" id="LINE-77" data-name="LINE"/><path class="cls-7" d="M130.354 152.73l1.461 1.461" id="LINE-78" data-name="LINE"/><path class="cls-7" d="M128.893 154.191l1.461-1.461" id="LINE-79" data-name="LINE"/><path class="cls-7" d="M136.029 266.467h-8.926M136.029 152.73h-8.926"/><path class="cls-7" d="M231.079 30.454h26.048" id="LINE-80" data-name="LINE"/><path d="M239.312 34.476l-2.57 8.7h-1.484l2.571-8.614H235.3v1.429h-1.394v-2.759h5.407zM241.076 41.962l3.466-4.621a3.44 3.44 0 00.467-.824 2.169 2.169 0 00.168-.8v-.013a1.207 1.207 0 00-.348-.923 1.391 1.391 0 00-.991-.328 1.369 1.369 0 00-.985.359 1.629 1.629 0 00-.458 1.015v.007h-1.442v-.004a3.721 3.721 0 01.5-1.459 2.559 2.559 0 01.981-.923 2.927 2.927 0 011.388-.318 3.448 3.448 0 011.517.3 2.131 2.131 0 01.957.885 2.808 2.808 0 01.329 1.4v.007a3.106 3.106 0 01-.219 1.1 4.713 4.713 0 01-.609 1.107l-2.877 3.91h3.759v1.327h-5.605zM249.9 42.98a2.4 2.4 0 01-.951-.854 3.4 3.4 0 01-.488-1.347v-.007h1.394v.007a1.3 1.3 0 00.438.852 1.418 1.418 0 00.943.3 1.261 1.261 0 001.035-.447 1.944 1.944 0 00.366-1.262v-.834a1.93 1.93 0 00-.366-1.254 1.261 1.261 0 00-1.035-.448 1.314 1.314 0 00-.7.2 1.953 1.953 0 00-.588.574h-1.272v-5.228h5.066v1.326h-3.671v2.236a1.992 1.992 0 01.581-.328 1.9 1.9 0 01.656-.117 2.889 2.889 0 011.474.356 2.289 2.289 0 01.93 1.039 3.915 3.915 0 01.317 1.647v.834a3.775 3.775 0 01-.328 1.648 2.331 2.331 0 01-.957 1.043 3 3 0 01-1.511.358 2.931 2.931 0 01-1.333-.294z"/><path class="cls-7" d="M257.127 30.453l-1.462 1.461" id="LINE-81" data-name="LINE"/><path class="cls-7" d="M255.665 28.992l1.462 1.461" id="LINE-82" data-name="LINE"/><path class="cls-7" d="M231.079 30.453l1.461-1.461" id="LINE-83" data-name="LINE"/><path class="cls-7" d="M232.54 31.914l-1.461-1.461" id="LINE-84" data-name="LINE"/><path class="cls-7" d="M88.18 33.322v-8.995" id="LINE-85" data-name="LINE"/><path class="cls-7" d="M49.638 33.322v-9.249" id="LINE-86" data-name="LINE"/><path class="cls-7" d="M88.181 33.323l-1.461 1.461" id="LINE-87" data-name="LINE"/><path class="cls-7" d="M86.72 31.862l1.461 1.461" id="LINE-88" data-name="LINE"/><path class="cls-7" d="M49.639 33.324H88.18" id="LINE-89" data-name="LINE"/><path d="M60.181 45.42h-1.394V37l-1.415.868v-1.444l1.415-.944h1.394zM64.837 45.42h-1.4V37l-1.415.868v-1.444l1.415-.944h1.4zM67.813 44.777a2.867 2.867 0 01-.721-2.078V38.18a2.856 2.856 0 01.725-2.082 3.393 3.393 0 014.229 0 2.863 2.863 0 01.72 2.085V42.7a2.853 2.853 0 01-.724 2.081 3.379 3.379 0 01-4.229 0zm3.207-.968a1.59 1.59 0 00.352-1.11V38.18a1.6 1.6 0 00-.349-1.111 1.742 1.742 0 00-2.187 0 1.6 1.6 0 00-.349 1.111v4.52a1.59 1.59 0 00.352 1.11 1.73 1.73 0 002.181 0zM75.538 44.777a2.862 2.862 0 01-.721-2.078V38.18a2.852 2.852 0 01.725-2.082 3.391 3.391 0 014.228 0 2.859 2.859 0 01.721 2.085V42.7a2.849 2.849 0 01-.725 2.081 3.377 3.377 0 01-4.228 0zm3.207-.968A1.6 1.6 0 0079.1 42.7v-4.52a1.607 1.607 0 00-.348-1.111 1.743 1.743 0 00-2.188 0 1.607 1.607 0 00-.348 1.111v4.52a1.6 1.6 0 00.351 1.11 1.731 1.731 0 002.182 0z"/><path class="cls-7" d="M49.639 33.323l1.461 1.461" id="LINE-90" data-name="LINE"/><path class="cls-7" d="M51.1 31.862l-1.461 1.461" id="LINE-91" data-name="LINE"/><path class="cls-7" d="M111.588 304.238v-14.442" id="LINE-92" data-name="LINE"/><path class="cls-7" d="M28.545 304.266v-14.442" id="LINE-93" data-name="LINE"/><path class="cls-7" d="M28.545 304.264l83.043-.057" id="LINE-94" data-name="LINE"/><path d="M56.028 315.818l3.466-4.621a3.474 3.474 0 00.468-.823 2.19 2.19 0 00.168-.8v-.014a1.209 1.209 0 00-.349-.923 1.4 1.4 0 00-.991-.328 1.366 1.366 0 00-.985.36 1.628 1.628 0 00-.458 1.014v.007h-1.442v-.007a3.732 3.732 0 01.5-1.459 2.566 2.566 0 01.981-.923 2.93 2.93 0 011.388-.318 3.456 3.456 0 011.518.305 2.139 2.139 0 01.957.884 2.82 2.82 0 01.328 1.4v.007a3.083 3.083 0 01-.219 1.1 4.734 4.734 0 01-.608 1.108l-2.878 3.91h3.759v1.326h-5.603zM63.26 315.818l3.466-4.621a3.439 3.439 0 00.468-.823 2.19 2.19 0 00.168-.8v-.014a1.205 1.205 0 00-.349-.923 1.392 1.392 0 00-.991-.328 1.365 1.365 0 00-.984.36 1.623 1.623 0 00-.458 1.014v.007h-1.443v-.007a3.732 3.732 0 01.5-1.459 2.562 2.562 0 01.982-.923 2.923 2.923 0 011.387-.318 3.456 3.456 0 011.518.305 2.139 2.139 0 01.957.884 2.809 2.809 0 01.328 1.4v.007a3.083 3.083 0 01-.219 1.1 4.7 4.7 0 01-.608 1.108l-2.878 3.91h3.76v1.326H63.26zM71.364 316.385a2.861 2.861 0 01-.721-2.078v-4.518a2.843 2.843 0 115.674 0v4.518a2.559 2.559 0 01-2.837 2.824 2.812 2.812 0 01-2.116-.746zm3.207-.966a1.6 1.6 0 00.352-1.112v-4.518a1.605 1.605 0 00-.349-1.111 1.743 1.743 0 00-2.188 0 1.6 1.6 0 00-.348 1.111v4.518a1.6 1.6 0 00.351 1.112 1.738 1.738 0 002.182 0zM79.089 316.385a2.861 2.861 0 01-.721-2.078v-4.518a2.843 2.843 0 115.674 0v4.518a2.854 2.854 0 01-.725 2.082 3.375 3.375 0 01-4.228 0zm3.207-.966a1.6 1.6 0 00.351-1.112v-4.518a1.6 1.6 0 00-.349-1.111 1.742 1.742 0 00-2.187 0 1.605 1.605 0 00-.349 1.111v4.518a1.6 1.6 0 00.352 1.112 1.738 1.738 0 002.182 0z"/><path class="cls-7" d="M111.588 304.204l-1.461 1.462" id="LINE-95" data-name="LINE"/><path class="cls-7" d="M110.127 302.743l1.461 1.461" id="LINE-96" data-name="LINE"/><path class="cls-7" d="M28.546 304.266l1.461-1.461" id="LINE-97" data-name="LINE"/><path class="cls-7" d="M30.007 305.727l-1.461-1.461" id="LINE-98" data-name="LINE"/><path class="cls-7" d="M240.061 304.238v-14.442" id="LINE-99" data-name="LINE"/><path class="cls-7" d="M157.018 304.266v-14.442" id="LINE-100" data-name="LINE"/><path class="cls-7" d="M157.018 304.264l83.043-.057" id="LINE-101" data-name="LINE"/><path d="M184.5 315.818l3.465-4.621a3.406 3.406 0 00.468-.823 2.169 2.169 0 00.168-.8v-.014a1.208 1.208 0 00-.348-.923 1.4 1.4 0 00-.992-.328 1.365 1.365 0 00-.984.36 1.628 1.628 0 00-.458 1.014v.007h-1.442v-.007a3.732 3.732 0 01.5-1.459 2.559 2.559 0 01.981-.923 2.924 2.924 0 011.388-.318 3.454 3.454 0 011.517.305 2.134 2.134 0 01.957.884 2.809 2.809 0 01.328 1.4v.007a3.1 3.1 0 01-.218 1.1 4.739 4.739 0 01-.609 1.108l-2.878 3.91h3.76v1.326h-5.6zM191.733 315.818l3.467-4.618a3.474 3.474 0 00.468-.823 2.19 2.19 0 00.168-.8v-.014a1.209 1.209 0 00-.349-.923 1.394 1.394 0 00-.991-.328 1.367 1.367 0 00-.985.36 1.628 1.628 0 00-.458 1.014v.007h-1.443v-.007a3.732 3.732 0 01.5-1.459 2.566 2.566 0 01.981-.923 2.93 2.93 0 011.388-.318 3.456 3.456 0 011.518.305 2.139 2.139 0 01.957.884 2.82 2.82 0 01.328 1.4v.007a3.083 3.083 0 01-.219 1.1 4.734 4.734 0 01-.608 1.108l-2.878 3.91h3.76v1.326h-5.606zM199.837 316.385a2.861 2.861 0 01-.721-2.078v-4.518a2.843 2.843 0 115.674 0v4.518a2.854 2.854 0 01-.725 2.082 3.375 3.375 0 01-4.228 0zm3.207-.966a1.6 1.6 0 00.351-1.112v-4.518a1.6 1.6 0 00-.348-1.111 1.743 1.743 0 00-2.188 0 1.605 1.605 0 00-.349 1.111v4.518a1.6 1.6 0 00.352 1.112 1.738 1.738 0 002.182 0zM207.561 316.385a2.865 2.865 0 01-.721-2.078v-4.518a2.852 2.852 0 01.725-2.081 3.391 3.391 0 014.229 0 2.861 2.861 0 01.72 2.085v4.518a2.558 2.558 0 01-2.837 2.824 2.816 2.816 0 01-2.116-.75zm3.207-.966a1.594 1.594 0 00.352-1.112v-4.518a1.6 1.6 0 00-.349-1.111 1.742 1.742 0 00-2.187 0 1.6 1.6 0 00-.349 1.111v4.518a1.594 1.594 0 00.352 1.112 1.737 1.737 0 002.181 0z"/><path class="cls-7" d="M240.061 304.204l-1.461 1.462" id="LINE-102" data-name="LINE"/><path class="cls-7" d="M238.6 302.743l1.461 1.461" id="LINE-103" data-name="LINE"/><path class="cls-7" d="M157.018 304.266l1.462-1.461" id="LINE-104" data-name="LINE"/><path class="cls-7" d="M158.48 305.727l-1.462-1.461" id="LINE-105" data-name="LINE"/><path class="cls-7" d="M157.018 304.238v-14.442" id="LINE-106" data-name="LINE"/><path class="cls-7" d="M111.588 304.266v-14.442" id="LINE-107" data-name="LINE"/><path class="cls-7" d="M111.588 304.251l45.43-.031" id="LINE-108" data-name="LINE"/><path d="M124.132 317.028h-1.394v-8.422l-1.415.868v-1.442l1.415-.943h1.394zM126.238 315.818l3.462-4.618a3.474 3.474 0 00.468-.823 2.19 2.19 0 00.168-.8v-.014a1.209 1.209 0 00-.349-.923 1.4 1.4 0 00-.991-.328 1.366 1.366 0 00-.985.36 1.628 1.628 0 00-.458 1.014v.007h-1.442v-.007a3.732 3.732 0 01.5-1.459 2.566 2.566 0 01.981-.923 2.93 2.93 0 011.388-.318 3.456 3.456 0 011.518.305 2.139 2.139 0 01.957.884 2.82 2.82 0 01.328 1.4v.007a3.1 3.1 0 01-.219 1.1 4.771 4.771 0 01-.608 1.108l-2.878 3.91h3.759v1.326h-5.6zM134.341 316.385a2.865 2.865 0 01-.72-2.078v-4.518a2.843 2.843 0 115.674 0v4.518a2.854 2.854 0 01-.725 2.082 3.377 3.377 0 01-4.229 0zm3.207-.966a1.594 1.594 0 00.352-1.112v-4.518a1.6 1.6 0 00-.349-1.111 1.742 1.742 0 00-2.187 0 1.605 1.605 0 00-.349 1.111v4.518a1.594 1.594 0 00.352 1.112 1.737 1.737 0 002.181 0zM142.066 316.385a2.865 2.865 0 01-.721-2.078v-4.518a2.852 2.852 0 01.725-2.081 3.39 3.39 0 014.228 0 2.858 2.858 0 01.721 2.085v4.518a2.558 2.558 0 01-2.837 2.824 2.816 2.816 0 01-2.116-.75zm3.207-.966a1.6 1.6 0 00.352-1.112v-4.518a1.605 1.605 0 00-.349-1.111 1.742 1.742 0 00-2.187 0 1.6 1.6 0 00-.349 1.111v4.518a1.6 1.6 0 00.351 1.112 1.738 1.738 0 002.182 0z"/><path class="cls-7" d="M157.018 304.204l-1.461 1.462" id="LINE-109" data-name="LINE"/><path class="cls-7" d="M155.557 302.743l1.461 1.461" id="LINE-110" data-name="LINE"/><path class="cls-7" d="M111.588 304.266l1.462-1.461" id="LINE-111" data-name="LINE"/><path class="cls-7" d="M113.05 305.727l-1.462-1.461" id="LINE-112" data-name="LINE"/><path class="cls-7" d="M28.546 304.238v-14.442" id="LINE-113" data-name="LINE"/><path class="cls-7" d="M11.266 304.266v-14.442" id="LINE-114" data-name="LINE"/><path class="cls-7" d="M11.266 304.241l17.28-.011" id="LINE-115" data-name="LINE"/><path d="M9.477 314.294l3.336-7.2h1.436L11 314.212h4.874v1.288H9.477zm4.286-3.111h1.361v5.852h-1.361zM22.712 308.333l-2.571 8.695h-1.483l2.57-8.613H18.7v1.428h-1.4v-2.754h5.408zM26.065 316.837a2.407 2.407 0 01-.951-.855 3.4 3.4 0 01-.488-1.347v-.006h1.394v.006a1.291 1.291 0 00.438.852 1.419 1.419 0 00.943.3 1.261 1.261 0 001.035-.448 1.939 1.939 0 00.366-1.261v-.834a1.93 1.93 0 00-.366-1.254 1.259 1.259 0 00-1.035-.448 1.314 1.314 0 00-.7.2 1.941 1.941 0 00-.588.574h-1.269v-5.236h5.066v1.326h-3.671v2.235a1.992 1.992 0 01.581-.328 1.926 1.926 0 01.656-.116 2.9 2.9 0 011.474.355 2.294 2.294 0 01.93 1.039 3.916 3.916 0 01.317 1.648v.834a3.773 3.773 0 01-.328 1.647 2.326 2.326 0 01-.957 1.043 3 3 0 01-1.511.359 2.931 2.931 0 01-1.336-.285z"/><path class="cls-7" d="M28.545 304.204l-1.461 1.462" id="LINE-116" data-name="LINE"/><path class="cls-7" d="M27.084 302.743l1.461 1.461" id="LINE-117" data-name="LINE"/><path class="cls-7" d="M11.266 304.266l1.461-1.461" id="LINE-118" data-name="LINE"/><path class="cls-7" d="M12.727 305.727l-1.461-1.461" id="LINE-119" data-name="LINE"/><path class="cls-7" d="M257.34 304.238v-14.442" id="LINE-120" data-name="LINE"/><path class="cls-7" d="M240.061 304.266v-14.442" id="LINE-121" data-name="LINE"/><path class="cls-7" d="M240.061 304.241l17.279-.011" id="LINE-122" data-name="LINE"/><path d="M238.272 314.294l3.336-7.2h1.436l-3.254 7.117h4.874v1.289h-6.392zm4.286-3.111h1.361v5.852h-1.361zM251.507 308.333l-2.571 8.695h-1.483l2.57-8.613h-2.529v1.428h-1.4v-2.754h5.408zM254.86 316.837a2.407 2.407 0 01-.951-.855 3.4 3.4 0 01-.488-1.347v-.006h1.394v.006a1.291 1.291 0 00.438.852 1.419 1.419 0 00.943.3 1.261 1.261 0 001.035-.448 1.939 1.939 0 00.366-1.261v-.834a1.93 1.93 0 00-.366-1.254 1.259 1.259 0 00-1.035-.448 1.314 1.314 0 00-.7.2 1.941 1.941 0 00-.588.574h-1.272v-5.236h5.066v1.326h-3.671v2.235a1.992 1.992 0 01.581-.328 1.926 1.926 0 01.656-.116 2.9 2.9 0 011.474.355 2.287 2.287 0 01.929 1.039 3.9 3.9 0 01.318 1.648v.834a3.788 3.788 0 01-.328 1.647 2.326 2.326 0 01-.957 1.043 3 3 0 01-1.511.359 2.931 2.931 0 01-1.333-.285z"/><path class="cls-7" d="M257.34 304.204l-1.462 1.462" id="LINE-123" data-name="LINE"/><path class="cls-7" d="M255.878 302.743l1.462 1.461" id="LINE-124" data-name="LINE"/><path class="cls-7" d="M240.061 304.266l1.461-1.461" id="LINE-125" data-name="LINE"/><path class="cls-7" d="M241.522 305.727l-1.461-1.461" id="LINE-126" data-name="LINE"/></g></svg>