<svg xmlns="http://www.w3.org/2000/svg" width="490.613" height="240.862" viewBox="0 0 367.96 180.647"><defs><pattern id="Новый_узор_3" data-name="Новый узор 3" width="35.15" height="35.15" patternUnits="userSpaceOnUse"><path class="cls-1" d="M0 0h35.15v35.15H0z"/><path class="cls-2" d="M35.149 35.15h35.15V70.3h-35.15z"/><path class="cls-2" d="M0 35.15h35.15V70.3H0zM-35.15 35.15H0V70.3h-35.15z"/><path class="cls-2" d="M35.149.001h35.15v35.15h-35.15z"/><path class="cls-2" d="M0 .001h35.15v35.15H0zM-35.15.001H0v35.15h-35.15zM35.149-35.149h35.15V.001h-35.15z"/><path class="cls-2" d="M0-35.149h35.15V.001H0zM-35.15-35.149H0V.001h-35.15z"/></pattern><pattern id="Новый_узор_4" data-name="Новый узор 4" width="9.822" height="9.822" patternUnits="userSpaceOnUse"><path class="cls-1" d="M0 0h9.822v9.822H0z"/><path class="cls-3" d="M14.733 19.647L9.82 14.735l4.913-4.913 4.912 4.913-4.912 4.912z"/><path class="cls-3" d="M4.911 19.647l-4.913-4.912 4.913-4.913 4.912 4.913-4.912 4.912z"/><path class="cls-3" d="M-4.912 19.647l-4.912-4.912 4.912-4.913 4.913 4.913-4.913 4.912zM14.733 9.825L9.82 4.912 14.733 0l4.912 4.912-4.912 4.913z"/><path class="cls-3" d="M4.911 9.825L-.002 4.912 4.911 0l4.912 4.912-4.912 4.913z"/><path class="cls-3" d="M-4.912 9.825l-4.912-4.913L-4.912 0 .001 4.912l-4.913 4.913zM14.733.003L9.82-4.91l4.913-4.912 4.912 4.912L14.733.003z"/><path class="cls-3" d="M4.911.003L-.002-4.91l4.913-4.912L9.823-4.91 4.911.003z"/><path class="cls-3" d="M-4.912.003L-9.824-4.91l4.912-4.912L.001-4.91-4.912.003z"/></pattern><style>.cls-1,.cls-11,.cls-2,.cls-3,.cls-7{fill:none}.cls-2{stroke:#ededed}.cls-2,.cls-3,.cls-7{stroke-linecap:round;stroke-linejoin:round;stroke-width:.4px}.cls-3{stroke:#e6e6e6}.cls-3,.cls-4,.cls-8{fill-rule:evenodd}.cls-4{fill:#fff}.cls-7{stroke:#000}.cls-11{stroke:gray;stroke-width:.6px;stroke-miterlimit:22.926}</style></defs><g id="_237" data-name="237"><path id="fon" class="cls-4" d="M367.024 77.326L352.2 42.653V.289H19.54v180.052l332.661.106V80.333a37.844 37.844 0 0014.823-3.007z"/><path id="grid" stroke="#dcdcdc" fill="url(#Новый_узор_3)" fill-rule="evenodd" stroke-linecap="round" stroke-linejoin="round" stroke-width=".4" d="M352.201.289H19.54v180.052l332.661.106V.289z"/><path id="wet_zones" data-name="wet zones" fill="url(#Новый_узор_4)" fill-rule="evenodd" d="M334.2 104.012h-90.446v65.37h83.508v-23.993h6.938v-41.377z"/><g id="walls"><path class="cls-7" d="M27.428 135.375h16.248M19.871 135.375h5.668M25.539 135.375h1.889M27.428 52.245h16.248M19.871 52.245h5.668M25.539 52.245h1.889M19.871 52.245v83.13M43.676 52.245v83.13M27.428 52.245v3.779M27.428 56.024h-1.889M25.539 56.024v-3.779M25.539 107.035v-1.889M25.539 105.146h1.889M27.428 105.146v1.889M26.483 56.024v49.122M27.428 56.024v49.122M25.539 105.146V56.024M27.428 107.035v.946M27.428 107.98h-.945M26.483 107.98v.945M26.483 108.925h-.944M25.539 108.925v-1.89M25.539 135.375v-3.779M25.539 131.597h.944M26.483 131.597v.944M26.483 132.541h.945M27.428 132.541v2.834M25.539 131.597v-22.672M28.373 110.814v18.893M28.373 107.98v2.834M28.373 110.814h-1.889M26.483 110.814v-2.834M26.483 107.98h1.889M26.483 132.541v-2.834M26.483 129.707h1.889M28.373 129.707v2.834M28.373 132.541h-1.889M26.483 129.707v-18.893M28.373 110.814v18.893M27.428 110.814v18.893M25.539 52.245h1.889M25.539 52.245h1.889M19.871 52.245h5.668M27.428 52.245h16.248M25.539 135.375h1.889M25.539 135.375h1.889M19.871 135.375h5.668M27.428 135.375h16.248M367.76 77.146a47.44 47.44 0 01-15.559 3.2"/><path class="cls-8" d="M367.859 77.102l-15.658-36.209h-1.379l-.008.6 15.657 36.209 1.388-.6z"/><path d="M286.823 91.429a30.867 30.867 0 00-1.957 9.561" stroke="#000" fill-rule="evenodd" stroke-linecap="round" stroke-linejoin="round" stroke-width=".4" fill="none"/><path class="cls-8" d="M286.865 91.331l-.6 1.387 22.482 9.783h.453v-1.512l-22.335-9.658z"/><path d="M352.2 180.341H19.87v-44.966h23.806v34.007h299.456V79.89h7.558v.452h1.51v100zM352.2.29v40.6h-1.51v.454h-7.558q0-20.553-.022-41.057zM19.87 52.245h23.806V.29H19.87z" stroke-miterlimit="3" stroke-width=".579" stroke="#000" fill-rule="evenodd"/></g><g id="wall_2" data-name="wall 2"><path class="cls-4" d="M343.11 11.247h-99.356V63.2h-3.023V11.247H43.676V.29H343.11v10.957zm-8.857 134.142v-41.377h-25.506V102.5h.453v-1.512h33.932v3.023h-5.857v41.377h5.857v3.022h-12.847v20.971h-3.023v-23.992zm-48.934-41.376V102.5h-.453v-1.512h-44.135v68.392h3.023v-65.37zm-142.265 65.369h-3.023V67.926h3.023z"/><path class="cls-11" d="M45.818.29l-2.14 1.89M53.238.29l-9.56 8.43M60.668.29l-12.44 10.96M68.088.29l-12.44 10.96M75.518.29l-12.45 10.96M82.928.29l-12.44 10.96M90.348.29l-12.44 10.96M97.778.29l-12.44 10.96M105.198.29l-12.44 10.96M112.618.29l-12.44 10.96M120.048.29l-12.44 10.96M127.458.29l-12.44 10.96M134.888.29l-12.44 10.96M142.308.29l-12.44 10.96M149.738.29l-12.45 10.96M157.158.29l-12.44 10.96M164.578.29l-12.44 10.96M172.008.29l-12.45 10.96M179.418.29l-12.44 10.96M186.838.29l-12.44 10.96M194.268.29l-12.44 10.96M201.688.29l-12.44 10.96M209.108.29l-12.44 10.96M216.538.29l-12.44 10.96M143.058 71.55l-3.03 2.67M223.948.29l-12.44 10.96M143.058 78.09l-3.03 2.67M231.378.29l-12.44 10.96M143.058 84.63l-3.03 2.67M238.798.29l-12.44 10.96M143.058 91.17l-3.03 2.67M246.218.29l-12.44 10.96M143.058 97.71l-3.03 2.67M253.648.29l-12.92 11.38M143.058 104.25l-3.03 2.67M261.068.29l-12.44 10.96M243.758 15.54l-3.03 2.67M143.058 110.78l-3.03 2.67M268.488.29l-12.44 10.96M243.758 22.07l-3.03 2.67M243.758 28.61l-3.03 2.67M275.908.29l-12.44 10.96M143.058 117.32l-3.03 2.67M243.758 35.15l-3.03 2.67M283.328.29l-12.44 10.96M143.058 123.86l-3.03 2.67M243.758 41.69l-3.03 2.67M290.758.29l-12.44 10.96M143.058 130.4l-3.03 2.67M243.758 48.23l-3.03 2.67M298.178.29l-12.44 10.96M143.058 136.94l-3.03 2.67M243.758 54.77l-3.03 2.67M305.608.29l-12.45 10.96M143.058 143.48l-3.03 2.67M313.028.29l-12.44 10.96M243.758 61.31l-2.14 1.89M143.058 150.02l-3.03 2.67M320.448.29l-12.45 10.96M143.058 156.55l-3.03 2.67M327.868.29l-12.44 10.96M143.058 163.09l-3.03 2.67M335.288.29l-12.44 10.96M342.708.29l-12.44 10.96M343.108 6.48l-5.41 4.77M243.248 100.99l-2.52 2.22M243.758 107.07l-3.03 2.67M250.668 100.99l-3.43 3.02M243.758 113.61l-3.03 2.67M258.088 100.99l-3.43 3.02M243.758 120.15l-3.03 2.67M265.508 100.99l-3.43 3.02M243.758 126.69l-3.03 2.67M272.938 100.99l-3.43 3.02M243.758 133.23l-3.03 2.67M280.358 100.99l-3.43 3.02M285.318 103.16l-.96.85M243.758 139.77l-3.03 2.67M243.758 146.3l-3.03 2.67M243.758 152.84l-3.03 2.67M310.048 100.99l-.85.75M243.758 159.38l-3.03 2.67M243.758 165.92l-3.03 2.67M317.468 100.99l-3.43 3.02M324.888 100.99l-3.43 3.02M332.318 100.99l-3.43 3.02M339.738 100.99l-5.49 4.84M337.278 109.69l-3.03 2.67M337.278 116.23l-3.03 2.67M337.278 122.77l-3.03 2.67M337.278 129.31l-3.03 2.67M337.278 135.85l-3.03 2.67M333.868 145.39l-3.43 3.02M330.288 148.55l-3.03 2.66M337.278 142.39l-3.03 2.67M341.288 145.39l-3.43 3.02M330.288 155.08l-3.03 2.67M330.288 161.62l-3.03 2.67M330.288 168.16l-1.39 1.22"/><path d="M343.11 11.247h-99.356V63.2h-3.023V11.247H43.676V.29H343.11v10.957zm-8.857 134.142v-41.377h-25.506V102.5h.453v-1.512h33.932v3.023h-5.857v41.377h5.857v3.022h-12.847v20.971h-3.023v-23.992zm-48.934-41.376V102.5h-.453v-1.512h-44.135v68.392h3.023v-65.37zm-142.265 65.369h-3.023V67.926h3.023z" stroke-width=".576" stroke-miterlimit="22.926" stroke="#000" fill-rule="evenodd" fill="none"/></g></g><g id="sizes"><path class="cls-7" d="M1.724 135.433h25.704" id="LINE"/><path class="cls-7" d="M1.661 52.409h25.705" id="LINE-2" data-name="LINE"/><path class="cls-7" d="M1.66 52.409l.063 83.103" id="LINE-3" data-name="LINE"/><path d="M13.366 108.043l-4.621-3.465a3.393 3.393 0 00-.824-.468 2.165 2.165 0 00-.8-.168h-.01a1.207 1.207 0 00-.923.348 1.392 1.392 0 00-.328.992 1.368 1.368 0 00.359.984 1.631 1.631 0 001.015.458h.007v1.442h-.007a3.721 3.721 0 01-1.459-.5 2.552 2.552 0 01-.923-.981 2.924 2.924 0 01-.318-1.388 3.454 3.454 0 01.3-1.517 2.136 2.136 0 01.885-.957 2.806 2.806 0 011.4-.328h.006a3.1 3.1 0 011.1.218 4.713 4.713 0 011.107.609l3.918 2.878v-3.76h1.326v5.605zM13.366 100.811l-4.621-3.466a3.46 3.46 0 00-.824-.468 2.185 2.185 0 00-.8-.168h-.01a1.208 1.208 0 00-.923.349 1.388 1.388 0 00-.328.991 1.371 1.371 0 00.359.985 1.631 1.631 0 001.015.458h.007v1.442h-.007a3.721 3.721 0 01-1.459-.5 2.559 2.559 0 01-.923-.981 2.93 2.93 0 01-.318-1.388 3.456 3.456 0 01.3-1.518 2.141 2.141 0 01.885-.957 2.806 2.806 0 011.4-.328h.006a3.084 3.084 0 011.1.219 4.708 4.708 0 011.107.608l3.911 2.878v-3.76h1.326v5.606zM13.933 92.707a2.861 2.861 0 01-2.078.721H7.337a2.85 2.85 0 01-2.082-.728 3.388 3.388 0 010-4.228 2.858 2.858 0 012.085-.721h4.518a2.852 2.852 0 012.082.725 3.379 3.379 0 010 4.228zm-.967-3.207a1.6 1.6 0 00-1.111-.351H7.337a1.6 1.6 0 00-1.111.348 1.74 1.74 0 000 2.188 1.605 1.605 0 001.111.349h4.518a1.6 1.6 0 001.111-.352 1.735 1.735 0 000-2.182zM13.933 84.983a2.865 2.865 0 01-2.078.72H7.337a2.854 2.854 0 01-2.082-.724 3.389 3.389 0 010-4.229 2.861 2.861 0 012.085-.72h4.518a2.856 2.856 0 012.082.724 3.38 3.38 0 010 4.229zm-.967-3.207a1.591 1.591 0 00-1.111-.352H7.337a1.6 1.6 0 00-1.111.349 1.738 1.738 0 000 2.187 1.6 1.6 0 001.111.349h4.518a1.591 1.591 0 001.111-.352 1.733 1.733 0 000-2.181z"/><path class="cls-7" d="M1.723 135.477l-1.461-1.461" id="LINE-4" data-name="LINE"/><path class="cls-7" d="M3.184 134.016l-1.461 1.461" id="LINE-5" data-name="LINE"/><path class="cls-7" d="M1.661 52.409l1.461 1.461" id="LINE-6" data-name="LINE"/><path class="cls-7" d="M.2 53.87l1.461-1.461" id="LINE-7" data-name="LINE"/><path class="cls-7" d="M1.724 169.554h25.704" id="LINE-8" data-name="LINE"/><path class="cls-7" d="M1.661 135.375h25.705" id="LINE-9" data-name="LINE"/><path class="cls-7" d="M1.679 135.375l.026 34.179" id="LINE-10" data-name="LINE"/><path d="M9.64 158.991l.246.006a1.032 1.032 0 01.462.516 2.081 2.081 0 01.147.817 2.189 2.189 0 01-.363 1.251 2.361 2.361 0 01-1.022.838 3.685 3.685 0 01-1.527.3h-.007a3.823 3.823 0 01-1.648-.324 2.293 2.293 0 01-1.039-.951 2.986 2.986 0 01-.355-1.5 2.922 2.922 0 01.362-1.5 2.325 2.325 0 011.053-.947 3.884 3.884 0 011.661-.325h.007a5.184 5.184 0 011.138.137 6.993 6.993 0 011.2.39l.181.082c.061.027.122.056.181.088l4.259 2.12v1.5zm-.861-.066a1.949 1.949 0 00-1.251-.358h-.007a1.857 1.857 0 00-1.217.358 1.421 1.421 0 000 2.037 1.852 1.852 0 001.224.36h.007a1.918 1.918 0 001.247-.36 1.393 1.393 0 000-2.037zM13.366 155.477l-4.621-3.466a3.46 3.46 0 00-.824-.468 2.185 2.185 0 00-.8-.168h-.01a1.208 1.208 0 00-.923.349 1.388 1.388 0 00-.328.991 1.371 1.371 0 00.359.985 1.631 1.631 0 001.015.458h.007v1.442h-.007a3.721 3.721 0 01-1.459-.5 2.559 2.559 0 01-.923-.981 2.93 2.93 0 01-.318-1.388 3.456 3.456 0 01.3-1.518 2.141 2.141 0 01.885-.957 2.817 2.817 0 011.4-.328h.006a3.084 3.084 0 011.1.219 4.708 4.708 0 011.107.608l3.911 2.878v-3.76h1.326v5.606zM13.933 147.373a2.861 2.861 0 01-2.078.721H7.337a2.85 2.85 0 01-2.082-.725 3.388 3.388 0 010-4.228 2.862 2.862 0 012.085-.721h4.518a2.852 2.852 0 012.082.725 3.379 3.379 0 010 4.228zm-.967-3.207a1.6 1.6 0 00-1.111-.351H7.337a1.6 1.6 0 00-1.111.348 1.74 1.74 0 000 2.188 1.605 1.605 0 001.111.349h4.518a1.6 1.6 0 001.111-.352 1.735 1.735 0 000-2.182z"/><path class="cls-7" d="M1.723 169.554l-1.461-1.461" id="LINE-11" data-name="LINE"/><path class="cls-7" d="M3.184 168.093l-1.461 1.461" id="LINE-12" data-name="LINE"/><path class="cls-7" d="M1.661 135.375l1.461 1.461" id="LINE-13" data-name="LINE"/><path class="cls-7" d="M.2 136.836l1.461-1.461" id="LINE-14" data-name="LINE"/><path class="cls-7" d="M1.724 52.409h25.704" id="LINE-15" data-name="LINE"/><path class="cls-7" d="M1.661 11.656h25.705" id="LINE-16" data-name="LINE"/><path class="cls-7" d="M1.676 11.656l.031 40.753" id="LINE-17" data-name="LINE"/><path d="M14.576 40.969v1.395H6.154l.868 1.415H5.58l-.944-1.415v-1.395zM14.576 36.314v1.394H6.154l.868 1.415H5.58l-.944-1.415v-1.394zM13.933 33.337a2.861 2.861 0 01-2.078.721H7.337a2.85 2.85 0 01-2.082-.725 2.82 2.82 0 01-.742-2.112 2.825 2.825 0 01.739-2.116 2.858 2.858 0 012.085-.721h4.518a2.852 2.852 0 012.082.725 2.823 2.823 0 01.741 2.112 2.812 2.812 0 01-.745 2.116zm-.967-3.207a1.6 1.6 0 00-1.111-.351H7.337a1.6 1.6 0 00-1.111.348 1.74 1.74 0 000 2.188 1.6 1.6 0 001.111.348h4.518a1.6 1.6 0 001.111-.351 1.735 1.735 0 000-2.182zM14.384 24.894a2.4 2.4 0 01-.854.951 3.41 3.41 0 01-1.347.488h-.007v-1.394h.007a1.288 1.288 0 00.851-.438 1.413 1.413 0 00.3-.943 1.261 1.261 0 00-.447-1.035 1.943 1.943 0 00-1.261-.366H10.8a1.931 1.931 0 00-1.255.366 1.261 1.261 0 00-.448 1.035 1.323 1.323 0 00.205.7 1.957 1.957 0 00.575.588v1.272H4.636v-5.069h1.327v3.671H8.2a1.969 1.969 0 01-.328-.581 1.9 1.9 0 01-.116-.656 2.888 2.888 0 01.355-1.474 2.289 2.289 0 011.039-.93 3.916 3.916 0 011.648-.317h.834a3.777 3.777 0 011.647.328 2.324 2.324 0 011.042.957 2.993 2.993 0 01.359 1.511 2.931 2.931 0 01-.296 1.336z"/><path class="cls-7" d="M1.723 52.409L.262 50.948" id="LINE-18" data-name="LINE"/><path class="cls-7" d="M3.184 50.948l-1.461 1.461" id="LINE-19" data-name="LINE"/><path class="cls-7" d="M1.661 11.656l1.461 1.462" id="LINE-20" data-name="LINE"/><path class="cls-7" d="M.2 13.118l1.461-1.462" id="LINE-21" data-name="LINE"/><path class="cls-7" d="M141.406 67.83V11.221" id="LINE-22" data-name="LINE"/><path d="M154.6 50.084v1.395h-8.422l.868 1.415h-1.442l-.944-1.415v-1.395zM154.412 46.389a2.412 2.412 0 01-.854.951 3.41 3.41 0 01-1.347.488h-.011v-1.394h.007a1.291 1.291 0 00.851-.438 1.413 1.413 0 00.3-.943 1.261 1.261 0 00-.447-1.035 1.944 1.944 0 00-1.262-.366h-.834a1.93 1.93 0 00-1.254.366 1.261 1.261 0 00-.448 1.035 1.323 1.323 0 00.2.7 1.945 1.945 0 00.575.588v1.269h-5.237v-5.066h1.326v3.671h2.236a1.969 1.969 0 01-.328-.581 1.9 1.9 0 01-.117-.656 2.889 2.889 0 01.356-1.474 2.277 2.277 0 011.039-.929 3.9 3.9 0 011.647-.318h.834a3.792 3.792 0 011.648.328 2.329 2.329 0 011.042.957 2.993 2.993 0 01.359 1.511 2.931 2.931 0 01-.281 1.336zM151.869 40.343l-7.2-3.336v-1.435l7.116 3.254v-4.874h1.292v6.391zm-3.11-4.286V34.7h5.851v1.36zM153.961 31.522a2.867 2.867 0 01-2.078.721h-4.519a2.852 2.852 0 01-2.081-.725 2.821 2.821 0 01-.742-2.112 2.833 2.833 0 01.738-2.117 2.863 2.863 0 012.085-.72h4.519a2.558 2.558 0 012.823 2.837 2.815 2.815 0 01-.745 2.116zm-.967-3.207a1.593 1.593 0 00-1.111-.352h-4.519a1.6 1.6 0 00-1.11.349 1.738 1.738 0 000 2.187 1.6 1.6 0 001.11.349h4.519a1.593 1.593 0 001.111-.352 1.733 1.733 0 000-2.181z"/><path class="cls-7" d="M141.406 11.221l1.461 1.461" id="LINE-23" data-name="LINE"/><path class="cls-7" d="M139.945 12.682l1.461-1.461" id="LINE-24" data-name="LINE"/><path class="cls-7" d="M141.406 67.83l-1.461-1.461" id="LINE-25" data-name="LINE"/><path class="cls-7" d="M142.867 66.369l-1.461 1.461" id="LINE-26" data-name="LINE"/><path class="cls-7" d="M248.595 169.343v-65.37" id="LINE-27" data-name="LINE"/><path d="M261.792 146.608V148h-8.422l.868 1.415H252.8l-.947-1.415v-1.394zM261.543 143.286a2.29 2.29 0 01-1.026.947 3.716 3.716 0 01-1.623.324h-.007a5.537 5.537 0 01-1.162-.13 6.8 6.8 0 01-1.2-.376 2.761 2.761 0 01-.2-.089l-.195-.095-4.279-2.161v-1.5l4.956 2.536-.246-.007a1.189 1.189 0 01-.5-.5 1.579 1.579 0 01-.178-.766 2.443 2.443 0 01.348-1.326 2.185 2.185 0 011.016-.841 4.044 4.044 0 011.6-.287h.006a3.785 3.785 0 011.641.325 2.29 2.29 0 011.039.949 3.353 3.353 0 010 3zm-1.4-2.52a1.728 1.728 0 00-1.169-.358h-.007a1.971 1.971 0 00-1.289.376 1.313 1.313 0 00-.454 1.073 1.133 1.133 0 00.458.964 2.131 2.131 0 001.292.341h.007a1.7 1.7 0 001.165-.359 1.474 1.474 0 000-2.037zM256.857 133.647l.246.007a1.029 1.029 0 01.461.515 2.082 2.082 0 01.147.818 2.2 2.2 0 01-.362 1.251 2.381 2.381 0 01-1.022.838 3.706 3.706 0 01-1.528.3h-.007a3.818 3.818 0 01-1.647-.324 2.283 2.283 0 01-1.039-.951 2.986 2.986 0 01-.356-1.5 2.932 2.932 0 01.362-1.5 2.323 2.323 0 011.053-.946 3.871 3.871 0 011.661-.326h.007a5.177 5.177 0 011.138.137 6.937 6.937 0 011.2.39l.181.082c.062.027.122.057.181.089l4.259 2.119v1.5zm-.862-.066a1.949 1.949 0 00-1.251-.358h-.007a1.854 1.854 0 00-1.216.358 1.42 1.42 0 000 2.038 1.854 1.854 0 001.223.359h.007a1.925 1.925 0 001.248-.359 1.393 1.393 0 000-2.038zM261.15 129.262a2.865 2.865 0 01-2.079.721h-4.518a2.852 2.852 0 01-2.082-.725 3.391 3.391 0 010-4.228 2.858 2.858 0 012.085-.721h4.518a2.852 2.852 0 012.082.725 3.377 3.377 0 010 4.228zm-.968-3.207a1.6 1.6 0 00-1.111-.352h-4.518a1.605 1.605 0 00-1.111.349 1.743 1.743 0 000 2.188 1.6 1.6 0 001.111.348h4.518a1.6 1.6 0 001.111-.351 1.735 1.735 0 000-2.182z"/><path class="cls-7" d="M248.595 103.973l1.461 1.461" id="LINE-28" data-name="LINE"/><path class="cls-7" d="M247.134 105.434l1.461-1.461" id="LINE-29" data-name="LINE"/><path class="cls-7" d="M248.595 169.141l-1.461-1.461" id="LINE-30" data-name="LINE"/><path class="cls-7" d="M250.056 167.68l-1.461 1.461" id="LINE-31" data-name="LINE"/><path class="cls-7" d="M241.952 100.95V63.164" id="LINE-32" data-name="LINE"/><path d="M255.15 92.666v1.4h-8.422l.868 1.415h-1.443l-.943-1.415v-1.4zM254.507 89.69a2.867 2.867 0 01-2.078.721h-4.519a2.852 2.852 0 01-2.081-.725 3.391 3.391 0 010-4.229 2.863 2.863 0 012.085-.72h4.519a2.558 2.558 0 012.823 2.837 2.815 2.815 0 01-.749 2.116zm-.967-3.207a1.593 1.593 0 00-1.111-.352h-4.519a1.6 1.6 0 00-1.111.349 1.742 1.742 0 000 2.187 1.6 1.6 0 001.111.349h4.519a1.593 1.593 0 001.111-.352 1.733 1.733 0 000-2.181zM252.415 82.823l-7.2-3.336v-1.436l7.116 3.254v-4.874h1.292v6.392zm-3.11-4.287v-1.36h5.851v1.36zM254.507 74a2.862 2.862 0 01-2.078.721h-4.519a2.843 2.843 0 110-5.674h4.519a2.559 2.559 0 012.823 2.837 2.812 2.812 0 01-.745 2.116zm-.967-3.207a1.6 1.6 0 00-1.111-.351h-4.519a1.607 1.607 0 00-1.111.348 1.743 1.743 0 000 2.188 1.607 1.607 0 001.111.349h4.519a1.6 1.6 0 001.111-.352 1.735 1.735 0 000-2.182z"/><path class="cls-7" d="M241.952 63.164l1.461 1.461" id="LINE-33" data-name="LINE"/><path class="cls-7" d="M240.491 64.625l1.461-1.461" id="LINE-34" data-name="LINE"/><path class="cls-7" d="M241.952 100.808l-1.461-1.462" id="LINE-35" data-name="LINE"/><path class="cls-7" d="M243.413 99.346l-1.461 1.462" id="LINE-36" data-name="LINE"/><path class="cls-7" d="M330.598 145.312v-41.339" id="LINE-37" data-name="LINE"/><path d="M327.389 134.743v1.394h-8.422l.869 1.415h-1.443l-.943-1.415v-1.394zM326.747 131.766a2.868 2.868 0 01-2.078.721h-4.519a2.854 2.854 0 01-2.082-.725 3.391 3.391 0 010-4.228 2.858 2.858 0 012.085-.721h4.519a2.855 2.855 0 012.081.724 3.379 3.379 0 010 4.229zm-.968-3.207a1.6 1.6 0 00-1.11-.352h-4.519a1.607 1.607 0 00-1.111.349 1.743 1.743 0 000 2.188 1.607 1.607 0 001.111.348h4.519a1.6 1.6 0 001.11-.351 1.731 1.731 0 000-2.182zM318.694 119.628l8.695 2.571v1.483l-8.613-2.57v2.529h1.429v1.395h-2.755v-5.408zM327.2 116.275a2.421 2.421 0 01-.855.951 3.411 3.411 0 01-1.346.488h-.007v-1.394H325a1.293 1.293 0 00.85-.438 1.414 1.414 0 00.305-.943 1.259 1.259 0 00-.448-1.035 1.941 1.941 0 00-1.261-.367h-.834a1.933 1.933 0 00-1.255.367 1.261 1.261 0 00-.447 1.035 1.316 1.316 0 00.205.7 1.953 1.953 0 00.574.588v1.273h-5.239v-5.07h1.326v3.67h2.235a1.969 1.969 0 01-.328-.581 1.9 1.9 0 01-.116-.656 2.886 2.886 0 01.355-1.474 2.282 2.282 0 011.04-.93 3.893 3.893 0 011.647-.317h.834a3.773 3.773 0 011.647.328 2.324 2.324 0 011.042.957 2.993 2.993 0 01.36 1.511 2.944 2.944 0 01-.292 1.337z"/><path class="cls-7" d="M330.598 104.142l1.461 1.461" id="LINE-38" data-name="LINE"/><path class="cls-7" d="M329.137 105.603l1.461-1.461" id="LINE-39" data-name="LINE"/><path class="cls-7" d="M330.598 145.17l-1.461-1.461" id="LINE-40" data-name="LINE"/><path class="cls-7" d="M332.059 143.709l-1.461 1.461" id="LINE-41" data-name="LINE"/><path class="cls-7" d="M43.76 18.674h196.319" id="LINE-42" data-name="LINE"/><path d="M175.374 31.515a2.4 2.4 0 01-.951-.854 3.41 3.41 0 01-.488-1.347v-.007h1.394v.007a1.293 1.293 0 00.438.851 1.414 1.414 0 00.943.3 1.261 1.261 0 001.035-.448 1.943 1.943 0 00.366-1.261v-.834a1.933 1.933 0 00-.366-1.255 1.261 1.261 0 00-1.035-.448 1.315 1.315 0 00-.7.206 1.941 1.941 0 00-.588.574h-1.272v-5.232h5.066v1.327h-3.671v2.235a1.969 1.969 0 01.581-.328 1.9 1.9 0 01.656-.116 2.888 2.888 0 011.474.355 2.289 2.289 0 01.93 1.039 3.9 3.9 0 01.317 1.648v.834a3.773 3.773 0 01-.328 1.647 2.331 2.331 0 01-.957 1.043 3 3 0 01-1.511.358 2.931 2.931 0 01-1.333-.294zM181.406 30.5l3.466-4.621a3.426 3.426 0 00.468-.824 2.185 2.185 0 00.168-.8v-.014a1.205 1.205 0 00-.349-.923 1.388 1.388 0 00-.991-.328 1.368 1.368 0 00-.984.359 1.626 1.626 0 00-.458 1.015v.007h-1.443v-.007a3.721 3.721 0 01.5-1.459 2.554 2.554 0 01.982-.923 2.923 2.923 0 011.387-.318 3.456 3.456 0 011.518.3 2.141 2.141 0 01.957.885 2.809 2.809 0 01.328 1.4v.007a3.083 3.083 0 01-.219 1.1 4.7 4.7 0 01-.608 1.108l-2.878 3.91h3.76V31.7h-5.606zM189.445 31.457a2.282 2.282 0 01-.947-1.025 3.718 3.718 0 01-.324-1.624V28.8a5.53 5.53 0 01.13-1.162 6.771 6.771 0 01.376-1.2c.027-.068.056-.136.089-.2s.063-.131.095-.2l2.161-4.28h1.5l-2.536 4.956.007-.246a1.2 1.2 0 01.5-.5 1.59 1.59 0 01.766-.177 2.443 2.443 0 011.326.348 2.187 2.187 0 01.841 1.015 4.05 4.05 0 01.287 1.6v.007a3.806 3.806 0 01-.325 1.641 2.3 2.3 0 01-.95 1.039 3.355 3.355 0 01-3 0zm2.52-1.4a1.726 1.726 0 00.358-1.169v-.006a1.969 1.969 0 00-.376-1.289 1.314 1.314 0 00-1.073-.455 1.133 1.133 0 00-.964.458 2.133 2.133 0 00-.342 1.292v.012a1.7 1.7 0 00.36 1.166 1.473 1.473 0 002.037 0zM196.284 31.064a2.865 2.865 0 01-.72-2.078v-4.518a2.856 2.856 0 01.724-2.082 3.389 3.389 0 014.229 0 2.861 2.861 0 01.72 2.085v4.518a2.856 2.856 0 01-.724 2.082 3.38 3.38 0 01-4.229 0zm3.207-.967a1.591 1.591 0 00.352-1.111v-4.518a1.6 1.6 0 00-.349-1.111 1.742 1.742 0 00-2.187 0 1.6 1.6 0 00-.349 1.111v4.518a1.591 1.591 0 00.352 1.111 1.733 1.733 0 002.181 0z"/><path class="cls-7" d="M240.079 18.674l-1.461 1.461" id="LINE-43" data-name="LINE"/><path class="cls-7" d="M238.618 17.213l1.461 1.461" id="LINE-44" data-name="LINE"/><path class="cls-7" d="M43.676 18.673l1.462-1.461" id="LINE-45" data-name="LINE"/><path class="cls-7" d="M45.138 20.134l-1.462-1.461" id="LINE-46" data-name="LINE"/><path class="cls-7" d="M243.668 18.674h99.378" id="LINE-47" data-name="LINE"/><path d="M281.039 30.5l3.466-4.621a3.421 3.421 0 00.467-.824 2.165 2.165 0 00.168-.8v-.014a1.208 1.208 0 00-.348-.923 1.392 1.392 0 00-.992-.328 1.368 1.368 0 00-.984.359 1.631 1.631 0 00-.458 1.015v.007h-1.442v-.007a3.721 3.721 0 01.5-1.459 2.559 2.559 0 01.981-.923 2.924 2.924 0 011.388-.318 3.451 3.451 0 011.517.3 2.136 2.136 0 01.957.885 2.809 2.809 0 01.328 1.4v.007a3.1 3.1 0 01-.218 1.1 4.739 4.739 0 01-.609 1.108l-2.878 3.91h3.76V31.7h-5.605zM289.078 31.457a2.285 2.285 0 01-.948-1.025 3.732 3.732 0 01-.324-1.624V28.8a5.53 5.53 0 01.13-1.162 6.771 6.771 0 01.376-1.2c.027-.068.057-.136.089-.2s.063-.131.1-.2l2.16-4.28h1.5l-2.536 4.956.006-.246a1.212 1.212 0 01.5-.5 1.59 1.59 0 01.766-.177 2.44 2.44 0 011.326.348 2.181 2.181 0 01.841 1.015 4.033 4.033 0 01.287 1.6v.007a3.791 3.791 0 01-.325 1.641 2.3 2.3 0 01-.949 1.039 3.355 3.355 0 01-3 0zm2.519-1.4a1.721 1.721 0 00.359-1.169v-.006a1.969 1.969 0 00-.376-1.289 1.316 1.316 0 00-1.074-.455 1.13 1.13 0 00-.963.458 2.126 2.126 0 00-.342 1.292v.012a1.7 1.7 0 00.359 1.166 1.473 1.473 0 002.037 0zM297.6 31.707h-1.4v-8.422l-1.415.868v-1.442l1.415-.944h1.4zM300.572 31.064a2.861 2.861 0 01-.721-2.078v-4.518a2.852 2.852 0 01.725-2.082 3.388 3.388 0 014.228 0 2.858 2.858 0 01.721 2.085v4.518a2.852 2.852 0 01-.725 2.082 3.379 3.379 0 01-4.228 0zm3.207-.967a1.6 1.6 0 00.351-1.111v-4.518a1.6 1.6 0 00-.348-1.111 1.743 1.743 0 00-2.188 0 1.6 1.6 0 00-.348 1.111v4.518a1.6 1.6 0 00.354 1.114 1.735 1.735 0 002.182 0z"/><path class="cls-7" d="M343.046 18.674l-1.461 1.461" id="LINE-48" data-name="LINE"/><path class="cls-7" d="M341.585 17.213l1.461 1.461" id="LINE-49" data-name="LINE"/><path class="cls-7" d="M243.668 18.673l1.461-1.461" id="LINE-50" data-name="LINE"/><path class="cls-7" d="M245.129 20.134l-1.461-1.461" id="LINE-51" data-name="LINE"/><path class="cls-7" d="M243.668 163.871h83.508" id="LINE-52" data-name="LINE"/><path d="M272.9 160.027l3.465-4.621a3.393 3.393 0 00.468-.824 2.181 2.181 0 00.168-.8v-.014a1.205 1.205 0 00-.349-.923 1.392 1.392 0 00-.991-.328 1.368 1.368 0 00-.984.359 1.631 1.631 0 00-.458 1.015v.007h-1.442v.002a3.742 3.742 0 01.5-1.459 2.569 2.569 0 01.982-.923 2.924 2.924 0 011.388-.318 3.469 3.469 0 011.517.3 2.138 2.138 0 01.957.886 2.8 2.8 0 01.328 1.4v.007a3.1 3.1 0 01-.218 1.1 4.739 4.739 0 01-.609 1.108l-2.878 3.91h3.76v1.326H272.9zM282.681 161.237h-1.395v-8.422l-1.415.868v-1.442l1.415-.943h1.395zM288.457 156.3l-.007.246a1.029 1.029 0 01-.515.461 2.082 2.082 0 01-.818.147 2.186 2.186 0 01-1.251-.363 2.372 2.372 0 01-.838-1.021 3.706 3.706 0 01-.3-1.528v-.007a3.818 3.818 0 01.324-1.647 2.283 2.283 0 01.951-1.039 2.986 2.986 0 011.5-.356 2.932 2.932 0 011.5.362 2.328 2.328 0 01.946 1.053 3.871 3.871 0 01.326 1.661v.007a5.177 5.177 0 01-.137 1.138 6.937 6.937 0 01-.39 1.2l-.082.181a2.527 2.527 0 01-.089.181l-2.119 4.259h-1.5zm.066-.862a1.949 1.949 0 00.358-1.251v-.007a1.856 1.856 0 00-.358-1.216 1.42 1.42 0 00-2.038 0 1.856 1.856 0 00-.359 1.223v.007a1.925 1.925 0 00.359 1.248 1.393 1.393 0 002.038 0zM292.842 160.594a2.861 2.861 0 01-.721-2.078V154a2.852 2.852 0 01.725-2.082 3.391 3.391 0 014.228 0A2.858 2.858 0 01297.8 154v4.518a2.558 2.558 0 01-2.837 2.823 2.812 2.812 0 01-2.121-.747zm3.207-.967a1.6 1.6 0 00.352-1.111V154a1.605 1.605 0 00-.349-1.111 1.743 1.743 0 00-2.188 0 1.6 1.6 0 00-.348 1.111v4.518a1.6 1.6 0 00.351 1.111 1.735 1.735 0 002.182 0z"/><path class="cls-7" d="M327.176 163.871l-1.461 1.461" id="LINE-53" data-name="LINE"/><path class="cls-7" d="M325.715 162.41l1.461 1.461" id="LINE-54" data-name="LINE"/><path class="cls-7" d="M243.668 163.87l1.461-1.461" id="LINE-55" data-name="LINE"/><path class="cls-7" d="M245.129 165.331l-1.461-1.461" id="LINE-56" data-name="LINE"/><path class="cls-7" d="M142.968 163.871h97.523" id="LINE-57" data-name="LINE"/><path d="M177.773 160.027l3.466-4.621a3.46 3.46 0 00.468-.824 2.181 2.181 0 00.168-.8v-.014a1.209 1.209 0 00-.349-.923 1.394 1.394 0 00-.991-.328 1.371 1.371 0 00-.985.359 1.631 1.631 0 00-.458 1.015v.007h-1.442v.002a3.727 3.727 0 01.5-1.459 2.566 2.566 0 01.981-.923 2.93 2.93 0 011.388-.318 3.47 3.47 0 011.518.3 2.138 2.138 0 01.957.886 2.813 2.813 0 01.328 1.4v.007a3.079 3.079 0 01-.219 1.1A4.734 4.734 0 01182.5 156l-2.878 3.91h3.76v1.326h-5.606zM186.6 161.045a2.4 2.4 0 01-.951-.854 3.4 3.4 0 01-.488-1.347v-.007h1.394v.007a1.3 1.3 0 00.438.852 1.42 1.42 0 00.943.3 1.259 1.259 0 001.035-.447 1.939 1.939 0 00.367-1.262v-.834a1.921 1.921 0 00-.367-1.253 1.257 1.257 0 00-1.035-.448 1.316 1.316 0 00-.7.205 1.953 1.953 0 00-.588.574h-1.271V151.3h5.065v1.326h-3.671v2.235a1.992 1.992 0 01.581-.328 1.9 1.9 0 01.656-.116 2.9 2.9 0 011.474.355 2.289 2.289 0 01.93 1.039 3.9 3.9 0 01.317 1.647v.834a3.775 3.775 0 01-.328 1.648 2.326 2.326 0 01-.957 1.043 3 3 0 01-1.511.358 2.918 2.918 0 01-1.333-.296zM193.844 160.988a2.3 2.3 0 01-.947-1.026 3.718 3.718 0 01-.324-1.624v-.007a5.552 5.552 0 01.13-1.162 6.814 6.814 0 01.376-1.2c.027-.068.056-.135.089-.2s.063-.131.095-.195l2.16-4.279h1.5l-2.536 4.956.007-.246a1.189 1.189 0 01.5-.5 1.579 1.579 0 01.766-.178 2.435 2.435 0 011.326.349 2.177 2.177 0 01.841 1.015 4.042 4.042 0 01.287 1.6v.007a3.8 3.8 0 01-.325 1.641 2.292 2.292 0 01-.95 1.039 3.359 3.359 0 01-3 0zm2.52-1.4a1.726 1.726 0 00.358-1.169v-.007a1.968 1.968 0 00-.376-1.288 1.314 1.314 0 00-1.073-.455 1.136 1.136 0 00-.964.458 2.135 2.135 0 00-.342 1.292v.007a1.7 1.7 0 00.36 1.166 1.475 1.475 0 002.037 0zM201.4 161.045a2.4 2.4 0 01-.951-.854 3.4 3.4 0 01-.488-1.347v-.007h1.394v.007a1.293 1.293 0 00.438.852 1.418 1.418 0 00.943.3 1.261 1.261 0 001.035-.447 1.944 1.944 0 00.366-1.262v-.834a1.927 1.927 0 00-.366-1.253 1.259 1.259 0 00-1.035-.448 1.314 1.314 0 00-.7.205 1.953 1.953 0 00-.588.574h-1.272V151.3h5.066v1.326h-3.671v2.235a1.992 1.992 0 01.581-.328 1.9 1.9 0 01.656-.116 2.9 2.9 0 011.474.355 2.282 2.282 0 01.929 1.039 3.9 3.9 0 01.318 1.647v.834a3.789 3.789 0 01-.328 1.648 2.326 2.326 0 01-.957 1.043 3 3 0 01-1.511.358 2.918 2.918 0 01-1.333-.296z"/><path class="cls-7" d="M240.491 163.871l-1.461 1.461" id="LINE-58" data-name="LINE"/><path class="cls-7" d="M239.03 162.41l1.461 1.461" id="LINE-59" data-name="LINE"/><path class="cls-7" d="M142.968 163.87l1.461-1.461" id="LINE-60" data-name="LINE"/><path class="cls-7" d="M144.429 165.331l-1.461-1.461" id="LINE-61" data-name="LINE"/><path class="cls-7" d="M43.697 163.871h96.062" id="LINE-62" data-name="LINE"/><path d="M77.772 160.027l3.465-4.621a3.393 3.393 0 00.468-.824 2.16 2.16 0 00.168-.8v-.014a1.208 1.208 0 00-.348-.923 1.4 1.4 0 00-.992-.328 1.368 1.368 0 00-.984.359 1.631 1.631 0 00-.458 1.015v.007h-1.442v.002a3.727 3.727 0 01.5-1.459 2.559 2.559 0 01.981-.923 2.924 2.924 0 011.388-.318 3.469 3.469 0 011.517.3 2.133 2.133 0 01.957.886 2.8 2.8 0 01.328 1.4v.007a3.1 3.1 0 01-.218 1.1A4.739 4.739 0 0182.5 156l-2.878 3.91h3.76v1.326h-5.6zM86.594 161.045a2.4 2.4 0 01-.951-.854 3.4 3.4 0 01-.489-1.347v-.007h1.4v.007a1.3 1.3 0 00.437.852 1.423 1.423 0 00.944.3 1.261 1.261 0 001.035-.447 1.944 1.944 0 00.366-1.262v-.834a1.927 1.927 0 00-.366-1.253 1.259 1.259 0 00-1.035-.448 1.314 1.314 0 00-.7.205 1.953 1.953 0 00-.588.574h-1.274V151.3h5.066v1.326h-3.671v2.235a1.992 1.992 0 01.581-.328 1.9 1.9 0 01.656-.116 2.9 2.9 0 011.474.355 2.287 2.287 0 01.929 1.039 3.9 3.9 0 01.318 1.647v.834a3.789 3.789 0 01-.328 1.648 2.332 2.332 0 01-.957 1.043 3 3 0 01-1.511.358 2.918 2.918 0 01-1.336-.296zM96.3 156.3l-.007.246a1.029 1.029 0 01-.515.461 2.082 2.082 0 01-.818.147 2.186 2.186 0 01-1.251-.363 2.372 2.372 0 01-.838-1.021 3.706 3.706 0 01-.3-1.528v-.007a3.818 3.818 0 01.325-1.647 2.278 2.278 0 01.951-1.039 2.986 2.986 0 011.5-.356 2.932 2.932 0 011.5.362 2.328 2.328 0 01.946 1.053 3.872 3.872 0 01.325 1.661v.007a5.234 5.234 0 01-.136 1.138 6.937 6.937 0 01-.39 1.2l-.082.181a2.527 2.527 0 01-.089.181l-2.121 4.261h-1.5zm.065-.862a1.943 1.943 0 00.359-1.251v-.007a1.851 1.851 0 00-.359-1.216 1.419 1.419 0 00-2.037 0 1.856 1.856 0 00-.359 1.223v.007a1.925 1.925 0 00.359 1.248 1.392 1.392 0 002.037 0zM101.4 161.045a2.4 2.4 0 01-.952-.854 3.4 3.4 0 01-.488-1.347v-.007h1.395v.007a1.292 1.292 0 00.437.852 1.42 1.42 0 00.943.3 1.263 1.263 0 001.036-.447 1.944 1.944 0 00.366-1.262v-.834a1.927 1.927 0 00-.366-1.253 1.261 1.261 0 00-1.036-.448 1.316 1.316 0 00-.7.205 1.964 1.964 0 00-.588.574h-1.267V151.3h5.065v1.326h-3.671v2.235a2 2 0 01.581-.328 1.9 1.9 0 01.657-.116 2.9 2.9 0 011.473.355 2.284 2.284 0 01.93 1.039 3.9 3.9 0 01.317 1.647v.834a3.775 3.775 0 01-.328 1.648 2.326 2.326 0 01-.957 1.043 3 3 0 01-1.511.358 2.911 2.911 0 01-1.336-.296z"/><path class="cls-7" d="M139.759 163.871l-1.462 1.461" id="LINE-63" data-name="LINE"/><path class="cls-7" d="M138.297 162.41l1.462 1.461" id="LINE-64" data-name="LINE"/><path class="cls-7" d="M43.83 163.87l1.461-1.461" id="LINE-65" data-name="LINE"/><path class="cls-7" d="M45.291 165.331l-1.461-1.461" id="LINE-66" data-name="LINE"/><path class="cls-7" d="M243.668 108.238h90.425" id="LINE-67" data-name="LINE"/><path d="M274.637 119.518l3.463-4.618a3.435 3.435 0 00.467-.823 2.169 2.169 0 00.168-.8v-.013a1.205 1.205 0 00-.348-.923 1.391 1.391 0 00-.991-.328 1.369 1.369 0 00-.985.358 1.634 1.634 0 00-.458 1.016v.006h-1.442v-.006a3.726 3.726 0 01.5-1.46A2.566 2.566 0 01276 111a2.927 2.927 0 011.388-.318 3.448 3.448 0 011.517.3 2.131 2.131 0 01.957.885 2.8 2.8 0 01.329 1.4v.007a3.11 3.11 0 01-.219 1.1 4.733 4.733 0 01-.609 1.107l-2.877 3.91h3.759v1.326h-5.605zM283.756 120.831l-.636-.3a2.513 2.513 0 01-1.022-.882 3.2 3.2 0 01-.489-1.391h1.422a1.5 1.5 0 00.267.7 1.238 1.238 0 00.53.407 1.992 1.992 0 00.762.133 1.483 1.483 0 001.073-.369 1.376 1.376 0 00.383-1.039v-.3a1.678 1.678 0 00-.362-1.152 1.3 1.3 0 00-1.026-.407h-.7V114.9h.7a1.167 1.167 0 00.9-.348 1.4 1.4 0 00.321-.985v-.307a1.188 1.188 0 00-.339-.909 1.335 1.335 0 00-.96-.322 1.462 1.462 0 00-.636.134 1.2 1.2 0 00-.474.41 1.846 1.846 0 00-.284.694h-1.415a3.609 3.609 0 01.515-1.395 2.534 2.534 0 01.961-.882 2.855 2.855 0 011.333-.3 2.754 2.754 0 011.989.677 2.519 2.519 0 01.7 1.907v.164a2.145 2.145 0 01-.4 1.3 2.277 2.277 0 01-1.141.807 2.021 2.021 0 011.26.8 2.643 2.643 0 01.449 1.586v.164a3.065 3.065 0 01-.335 1.483 2.22 2.22 0 01-.975.937 3.4 3.4 0 01-1.541.321zM290.749 120.489a2.5 2.5 0 01-1.056-.967 2.781 2.781 0 01-.373-1.453v-.164a2.787 2.787 0 01.373-1.4 2.489 2.489 0 011-.991 2.188 2.188 0 01-.845-.831 2.241 2.241 0 01-.317-1.145v-.238a2.651 2.651 0 01.348-1.371 2.364 2.364 0 01.985-.916 3.516 3.516 0 012.953 0 2.362 2.362 0 01.984.916 2.652 2.652 0 01.349 1.371v.239a2.2 2.2 0 01-.326 1.155 2.152 2.152 0 01-.857.821 2.573 2.573 0 011.008.994 2.728 2.728 0 01.38 1.4v.164a2.79 2.79 0 01-.372 1.453 2.5 2.5 0 01-1.057.967 3.848 3.848 0 01-3.172 0zm2.441-1.189a1.39 1.39 0 00.571-.537 1.554 1.554 0 00.2-.8v-.1a1.567 1.567 0 00-.2-.8 1.39 1.39 0 00-.571-.537 2.007 2.007 0 00-1.709 0 1.381 1.381 0 00-.572.54 1.6 1.6 0 00-.2.807v.1a1.545 1.545 0 00.2.793 1.365 1.365 0 00.572.53 2.021 2.021 0 001.709 0zm-.117-4.481a1.254 1.254 0 00.5-.516 1.621 1.621 0 00.178-.773v-.1a1.5 1.5 0 00-.178-.738 1.226 1.226 0 00-.5-.5 1.644 1.644 0 00-1.476 0 1.226 1.226 0 00-.5.5 1.523 1.523 0 00-.178.745v.1a1.593 1.593 0 00.178.762 1.258 1.258 0 00.5.513 1.6 1.6 0 001.476 0zM298.019 120.086a2.864 2.864 0 01-.721-2.078v-4.519a2.843 2.843 0 115.674 0v4.519a2.559 2.559 0 01-2.837 2.823 2.816 2.816 0 01-2.116-.745zm3.207-.967a1.6 1.6 0 00.351-1.111v-4.519a1.607 1.607 0 00-.348-1.111 1.743 1.743 0 00-2.188 0 1.607 1.607 0 00-.348 1.111v4.519a1.6 1.6 0 00.351 1.111 1.735 1.735 0 002.182 0z"/><path class="cls-7" d="M334.093 108.237l-1.462 1.462" id="LINE-68" data-name="LINE"/><path class="cls-7" d="M332.631 106.776l1.462 1.461" id="LINE-69" data-name="LINE"/><path class="cls-7" d="M243.668 108.237l1.461-1.461" id="LINE-70" data-name="LINE"/><path class="cls-7" d="M245.129 109.698l-1.461-1.461" id="LINE-71" data-name="LINE"/><path class="cls-7" d="M60.825 169.071V11.387" id="LINE-72" data-name="LINE"/><path d="M71.288 104.366l-7.2-3.336v-1.436l7.116 3.254v-4.874H72.5v6.392zm-3.11-4.287v-1.36h5.851v1.36zM72.813 96.415l-4.621-3.465a3.43 3.43 0 00-.824-.468 2.165 2.165 0 00-.8-.168h-.013a1.207 1.207 0 00-.923.348 1.392 1.392 0 00-.328.992 1.364 1.364 0 00.359.984 1.629 1.629 0 001.015.458h.007v1.442h-.007a3.731 3.731 0 01-1.46-.5 2.559 2.559 0 01-.923-.981 2.936 2.936 0 01-.317-1.388 3.454 3.454 0 01.3-1.517 2.131 2.131 0 01.885-.957 2.805 2.805 0 011.4-.328h.007a3.108 3.108 0 011.1.218 4.713 4.713 0 011.107.609L72.7 94.57v-3.76h1.327v5.605zM72.813 89.183l-4.621-3.466a3.5 3.5 0 00-.824-.468 2.186 2.186 0 00-.8-.168h-.013a1.208 1.208 0 00-.923.349 1.389 1.389 0 00-.328.991 1.365 1.365 0 00.359.985 1.629 1.629 0 001.015.458h.007v1.442h-.007a3.731 3.731 0 01-1.46-.5 2.566 2.566 0 01-.923-.981 2.941 2.941 0 01-.317-1.388 3.456 3.456 0 01.3-1.518 2.136 2.136 0 01.885-.957 2.816 2.816 0 011.4-.328h.007a3.088 3.088 0 011.1.219 4.708 4.708 0 011.107.608l3.91 2.878v-3.761h1.327v5.605zM73.831 80.361a2.418 2.418 0 01-.854.951 3.41 3.41 0 01-1.347.488h-.007v-1.394h.007a1.3 1.3 0 00.851-.438 1.415 1.415 0 00.3-.943 1.259 1.259 0 00-.447-1.035 1.939 1.939 0 00-1.262-.367h-.834a1.924 1.924 0 00-1.254.367 1.26 1.26 0 00-.448 1.035 1.325 1.325 0 00.2.7 1.953 1.953 0 00.574.588v1.271h-5.227v-5.068h1.326v3.671h2.236a1.969 1.969 0 01-.328-.581 1.9 1.9 0 01-.117-.656 2.886 2.886 0 01.356-1.474 2.284 2.284 0 011.039-.93 3.9 3.9 0 011.647-.317h.834a3.778 3.778 0 011.648.328 2.329 2.329 0 011.042.957 3 3 0 01.359 1.511 2.931 2.931 0 01-.294 1.336z"/><path class="cls-7" d="M60.825 11.387l1.461 1.462" id="LINE-73" data-name="LINE"/><path class="cls-7" d="M59.364 12.849l1.461-1.462" id="LINE-74" data-name="LINE"/><path class="cls-7" d="M60.825 169.071l-1.461-1.461" id="LINE-75" data-name="LINE"/><path class="cls-7" d="M62.286 167.61l-1.461 1.461" id="LINE-76" data-name="LINE"/><path class="cls-7" d="M131.21 67.841v101.502" id="LINE-77" data-name="LINE"/><path d="M126.363 132.469L121.742 129a3.435 3.435 0 00-.823-.467 2.169 2.169 0 00-.8-.168h-.013a1.205 1.205 0 00-.923.348 1.391 1.391 0 00-.328.991 1.369 1.369 0 00.358.985 1.634 1.634 0 001.016.458h.006v1.442h-.006a3.726 3.726 0 01-1.46-.5 2.566 2.566 0 01-.923-.981 2.93 2.93 0 01-.318-1.388 3.456 3.456 0 01.3-1.518 2.141 2.141 0 01.885-.957 2.813 2.813 0 011.4-.328h.007a3.11 3.11 0 011.1.219 4.765 4.765 0 011.107.608l3.91 2.878v-3.759h1.326v5.6zM127.324 124.43a2.285 2.285 0 01-1.026.947 3.713 3.713 0 01-1.623.325h-.007a5.545 5.545 0 01-1.162-.13 6.761 6.761 0 01-1.2-.376 2.81 2.81 0 01-.2-.089l-.2-.1-4.279-2.16v-1.5l4.956 2.536-.246-.007a1.2 1.2 0 01-.5-.5 1.572 1.572 0 01-.178-.765 2.432 2.432 0 01.349-1.326 2.17 2.17 0 011.015-.841 4.026 4.026 0 011.6-.287h.007a3.783 3.783 0 011.64.325 2.285 2.285 0 011.039.949 3.351 3.351 0 010 3zm-1.4-2.519a1.723 1.723 0 00-1.169-.359h-.007a1.966 1.966 0 00-1.288.376 1.311 1.311 0 00-.455 1.073 1.132 1.132 0 00.458.964 2.124 2.124 0 001.292.342h.007a1.7 1.7 0 001.165-.359 1.474 1.474 0 000-2.037zM127.334 116.986a2.5 2.5 0 01-.967 1.056 2.79 2.79 0 01-1.453.372h-.164a2.8 2.8 0 01-1.4-.372 2.489 2.489 0 01-.991-1 2.188 2.188 0 01-.831.845 2.241 2.241 0 01-1.145.317h-.239a2.651 2.651 0 01-1.371-.348 2.364 2.364 0 01-.916-.985 3.516 3.516 0 010-2.953 2.356 2.356 0 01.916-.984 2.642 2.642 0 011.371-.349h.239a2.208 2.208 0 011.155.325 2.161 2.161 0 01.821.858 2.573 2.573 0 01.994-1.008 2.728 2.728 0 011.4-.38h.164a2.79 2.79 0 011.453.372 2.5 2.5 0 01.967 1.057 3.848 3.848 0 010 3.172zm-5.67-2.325a1.266 1.266 0 00-.516-.5 1.632 1.632 0 00-.773-.177h-.1a1.506 1.506 0 00-.738.177 1.238 1.238 0 00-.495.5 1.646 1.646 0 000 1.477 1.226 1.226 0 00.495.5 1.52 1.52 0 00.745.178h.1a1.593 1.593 0 00.762-.178 1.258 1.258 0 00.513-.5 1.6 1.6 0 000-1.477zm4.481-.116a1.39 1.39 0 00-.537-.571 1.554 1.554 0 00-.8-.2h-.1a1.567 1.567 0 00-.8.2 1.39 1.39 0 00-.537.571 2.007 2.007 0 000 1.709 1.387 1.387 0 00.54.572 1.6 1.6 0 00.807.2h.1a1.545 1.545 0 00.793-.2 1.371 1.371 0 00.53-.572 2.021 2.021 0 000-1.709zM127.382 109a2.416 2.416 0 01-.855.952 3.4 3.4 0 01-1.346.488h-.007v-1.395h.007a1.29 1.29 0 00.851-.437 1.421 1.421 0 00.3-.944 1.259 1.259 0 00-.448-1.035 1.939 1.939 0 00-1.261-.366h-.834a1.928 1.928 0 00-1.254.366 1.259 1.259 0 00-.448 1.035 1.317 1.317 0 00.205.7 1.964 1.964 0 00.574.588v1.271h-5.236v-5.065h1.326v3.671h2.244a2 2 0 01-.328-.581 1.927 1.927 0 01-.116-.657 2.885 2.885 0 01.356-1.473 2.274 2.274 0 011.039-.93 3.9 3.9 0 011.647-.317h.834a3.778 3.778 0 011.648.328 2.323 2.323 0 011.042.957 3 3 0 01.359 1.51 2.928 2.928 0 01-.299 1.334z"/><path class="cls-7" d="M131.21 169.343l-1.461-1.461" id="LINE-78" data-name="LINE"/><path class="cls-7" d="M132.672 167.882l-1.462 1.461" id="LINE-79" data-name="LINE"/><path class="cls-7" d="M131.21 67.841l1.462 1.461" id="LINE-80" data-name="LINE"/><path class="cls-7" d="M129.749 69.302l1.461-1.461" id="LINE-81" data-name="LINE"/><path class="cls-7" d="M140.043 67.841h-12.084M140.043 169.343h-12.084"/><path class="cls-7" d="M250.079 63.214V11.196" id="LINE-82" data-name="LINE"/><path d="M262.24 47.145v1.394h-8.422l.868 1.415h-1.442l-.944-1.415v-1.394zM262.342 43.153l-.3.635a2.5 2.5 0 01-.882 1.023 3.178 3.178 0 01-1.391.488v-1.422a1.513 1.513 0 00.7-.266 1.239 1.239 0 00.406-.531 1.983 1.983 0 00.134-.761 1.481 1.481 0 00-.37-1.074 1.379 1.379 0 00-1.039-.382h-.3a1.677 1.677 0 00-1.152.362 1.3 1.3 0 00-.407 1.025v.7h-1.326v-.7a1.163 1.163 0 00-.349-.9 1.4 1.4 0 00-.984-.321h-.308a1.188 1.188 0 00-.909.339 1.337 1.337 0 00-.321.96 1.454 1.454 0 00.133.635 1.215 1.215 0 00.41.475 1.853 1.853 0 00.694.284v1.415a3.639 3.639 0 01-1.4-.516 2.52 2.52 0 01-.881-.96 2.855 2.855 0 01-.3-1.333 2.754 2.754 0 01.677-1.99 2.522 2.522 0 011.907-.7h.164a2.146 2.146 0 011.3.4 2.269 2.269 0 01.806 1.141 2.027 2.027 0 01.8-1.261 2.654 2.654 0 011.586-.448h.164a3.058 3.058 0 011.484.335 2.212 2.212 0 01.936.975 3.4 3.4 0 01.321 1.541zM253.545 32.352l8.7 2.57v1.484l-8.613-2.571v2.53h1.428v1.394h-2.76v-5.407zM262.048 29a2.406 2.406 0 01-.854.952 3.41 3.41 0 01-1.347.488h-.007v-1.397h.007a1.287 1.287 0 00.851-.437 1.417 1.417 0 00.305-.944 1.261 1.261 0 00-.448-1.035 1.943 1.943 0 00-1.261-.366h-.834a1.933 1.933 0 00-1.255.366 1.261 1.261 0 00-.448 1.035 1.318 1.318 0 00.206.7 1.953 1.953 0 00.574.588v1.271H252.3v-5.067h1.327v3.671h2.235a1.982 1.982 0 01-.328-.581 1.9 1.9 0 01-.116-.657 2.885 2.885 0 01.355-1.473 2.284 2.284 0 011.039-.93 3.9 3.9 0 011.648-.317h.834a3.777 3.777 0 011.647.328 2.326 2.326 0 011.043.957 3 3 0 01.358 1.51 2.928 2.928 0 01-.294 1.338z"/><path class="cls-7" d="M250.079 11.411l1.462 1.461" id="LINE-83" data-name="LINE"/><path class="cls-7" d="M248.618 12.872l1.461-1.461" id="LINE-84" data-name="LINE"/><path class="cls-7" d="M250.079 63.214l-1.461-1.462" id="LINE-85" data-name="LINE"/><path class="cls-7" d="M251.541 61.752l-1.462 1.462" id="LINE-86" data-name="LINE"/><path class="cls-7" d="M243.577 63.214h9.753"/><path class="cls-7" d="M333.862 79.85h14.897" id="LINE-87" data-name="LINE"/><path class="cls-7" d="M333.862 41.308h15.317" id="LINE-88" data-name="LINE"/><path class="cls-7" d="M333.862 79.85l-1.461-1.462" id="LINE-89" data-name="LINE"/><path class="cls-7" d="M335.323 78.388l-1.461 1.462" id="LINE-90" data-name="LINE"/><path class="cls-7" d="M333.861 41.308V79.85" id="LINE-91" data-name="LINE"/><path d="M330.083 69.762v1.395h-8.422l.868 1.415h-1.442l-.944-1.415v-1.395zM330.083 65.107V66.5h-8.422l.868 1.415h-1.442l-.944-1.415v-1.393zM329.44 62.13a2.862 2.862 0 01-2.078.721h-4.519a2.843 2.843 0 110-5.674h4.519a2.559 2.559 0 012.823 2.837 2.812 2.812 0 01-.745 2.116zm-.967-3.207a1.6 1.6 0 00-1.111-.351h-4.519a1.6 1.6 0 00-1.11.348 1.74 1.74 0 000 2.188 1.6 1.6 0 001.11.348h4.519a1.6 1.6 0 001.111-.351 1.735 1.735 0 000-2.182zM329.44 54.406a2.866 2.866 0 01-2.078.72h-4.519a2.843 2.843 0 110-5.673h4.519a2.852 2.852 0 012.081.724 3.379 3.379 0 010 4.229zm-.967-3.207a1.593 1.593 0 00-1.111-.352h-4.519a1.6 1.6 0 00-1.11.349 1.738 1.738 0 000 2.187 1.6 1.6 0 001.11.349h4.519a1.593 1.593 0 001.111-.352 1.733 1.733 0 000-2.181z"/><path class="cls-7" d="M333.862 41.308l-1.461 1.461" id="LINE-92" data-name="LINE"/><path class="cls-7" d="M335.323 42.769l-1.461-1.461" id="LINE-93" data-name="LINE"/><path class="cls-7" d="M284.781 86.45v15.781" id="LINE-94" data-name="LINE"/><path class="cls-7" d="M309.115 86.45v16.012" id="LINE-95" data-name="LINE"/><path class="cls-7" d="M309.114 86.449h-24.333" id="LINE-96" data-name="LINE"/><path d="M291.857 75.015l-2.57 8.695H287.8l2.571-8.613h-2.53v1.428h-1.391V73.77h5.407zM294.492 83.067a2.861 2.861 0 01-.721-2.078v-4.518a2.852 2.852 0 01.725-2.082 3.388 3.388 0 014.228 0 2.858 2.858 0 01.721 2.085v4.518a2.852 2.852 0 01-.725 2.082 3.379 3.379 0 01-4.228 0zm3.208-.967a1.6 1.6 0 00.351-1.111v-4.518a1.6 1.6 0 00-.348-1.111 1.74 1.74 0 00-2.188 0 1.6 1.6 0 00-.348 1.111v4.518a1.6 1.6 0 00.351 1.111 1.735 1.735 0 002.182 0zM302.216 83.067a2.865 2.865 0 01-.72-2.078v-4.518a2.856 2.856 0 01.724-2.082 3.389 3.389 0 014.229 0 2.862 2.862 0 01.721 2.085v4.518a2.856 2.856 0 01-.725 2.082 3.38 3.38 0 01-4.229 0zm3.207-.967a1.591 1.591 0 00.352-1.111v-4.518a1.6 1.6 0 00-.349-1.111 1.738 1.738 0 00-2.187 0 1.6 1.6 0 00-.349 1.111v4.518a1.591 1.591 0 00.352 1.111 1.733 1.733 0 002.181 0z"/><path class="cls-7" d="M284.78 86.45l1.461-1.461" id="LINE-97" data-name="LINE"/><path class="cls-7" d="M286.241 87.911l-1.461-1.461" id="LINE-98" data-name="LINE"/><path class="cls-7" d="M309.114 86.441l-1.461 1.461" id="LINE-99" data-name="LINE"/><path class="cls-7" d="M307.653 84.98l1.461 1.461" id="LINE-100" data-name="LINE"/></g></svg>