<svg xmlns="http://www.w3.org/2000/svg" width="735.814" height="631.291" viewBox="0 0 551.86 473.469"><defs><pattern id="Новый_узор_3" data-name="Новый узор 3" width="35.15" height="35.15" patternTransform="translate(-7.256 -21.209)" patternUnits="userSpaceOnUse"><path class="cls-1" d="M0 0h35.15v35.15H0z"/><path class="cls-2" d="M35.149 35.15h35.15V70.3h-35.15z"/><path class="cls-2" d="M0 35.15h35.15V70.3H0zM-35.15 35.15H0V70.3h-35.15z"/><path class="cls-2" d="M35.149.001h35.15v35.15h-35.15z"/><path class="cls-2" d="M0 .001h35.15v35.15H0zM-35.15.001H0v35.15h-35.15zM35.149-35.149h35.15V.001h-35.15z"/><path class="cls-2" d="M0-35.149h35.15V.001H0zM-35.15-35.149H0V.001h-35.15z"/></pattern><pattern id="Новый_узор_4" data-name="Новый узор 4" width="9.822" height="9.822" patternTransform="translate(-4.109 -8.736)" patternUnits="userSpaceOnUse"><path class="cls-1" d="M0 0h9.822v9.822H0z"/><path class="cls-3" d="M14.733 19.647L9.82 14.735l4.913-4.913 4.912 4.913-4.912 4.912z"/><path class="cls-3" d="M4.911 19.647l-4.913-4.912 4.913-4.913 4.912 4.913-4.912 4.912z"/><path class="cls-3" d="M-4.912 19.647l-4.912-4.912 4.912-4.913 4.913 4.913-4.913 4.912zM14.733 9.825L9.82 4.912 14.733 0l4.912 4.912-4.912 4.913z"/><path class="cls-3" d="M4.911 9.825L-.002 4.912 4.911 0l4.912 4.912-4.912 4.913z"/><path class="cls-3" d="M-4.912 9.825l-4.912-4.913L-4.912 0 .001 4.912l-4.913 4.913zM14.733.003L9.82-4.91l4.913-4.912 4.912 4.912L14.733.003z"/><path class="cls-3" d="M4.911.003L-.002-4.91l4.913-4.912L9.823-4.91 4.911.003z"/><path class="cls-3" d="M-4.912.003L-9.824-4.91l4.912-4.912L.001-4.91-4.912.003z"/></pattern><style>.cls-1,.cls-11,.cls-13,.cls-2,.cls-3,.cls-7,.cls-9{fill:none}.cls-2{stroke:#ededed}.cls-11,.cls-2,.cls-3,.cls-7{stroke-linecap:round;stroke-linejoin:round;stroke-width:.4px}.cls-3{stroke:#e6e6e6}.cls-11,.cls-12,.cls-3,.cls-4{fill-rule:evenodd}.cls-4{fill:#fff}.cls-11,.cls-7,.cls-9{stroke:#000}.cls-13,.cls-9{stroke-miterlimit:22.926}.cls-9{stroke-width:.2px}.cls-13{stroke:gray;stroke-width:.6px}</style></defs><g id="_244" data-name="244"><path class="cls-4" d="M382.708 15.77A39.53 39.53 0 00379.693.683L343.7 17.291h-21.058v98.6H.2v357.347h527.166V15.77z" id="fon"/><path id="grid" stroke="#dcdcdc" fill="url(#Новый_узор_3)" fill-rule="evenodd" stroke-width=".4" stroke-linecap="round" stroke-linejoin="round" d="M382.607 16.054v1.521h-59.965v98.603H.2v357.343h527.166V16.054H382.607z"/><path id="wet_zones" data-name="wet zones" fill="url(#Новый_узор_4)" d="M396.814 24.094h110.148v58.928H396.814z"/><g id="walls"><path class="cls-7" d="M533.223 359.807h-5.1M.255 115.9v357.27m0 0h527.111m0 0V359.806m0 0H42.946m0 0V115.9m0 0H.255M421.942 352.249V336M421.942 359.806v-5.668M421.942 354.138v-1.89M505.072 352.249V336M505.072 359.806v-5.668M505.072 354.138v-1.89M505.072 359.806h-83.13M505.072 336h-83.13M505.072 352.249h-3.779M501.293 352.249v1.889M501.293 354.138h3.779M450.282 354.138h1.89M452.171 354.138v-1.89M452.171 352.249h-1.89M501.293 353.193h-49.122M501.293 352.249h-49.122M452.171 354.138h49.122M450.282 352.249h-.945M449.337 352.249v.944M449.337 353.193h-.944M448.392 353.193v.945M448.392 354.138h1.889M421.942 354.138h3.779M425.721 354.138v-.945M425.721 353.193h-.945M424.776 353.193v-.944M424.776 352.249h-2.834M425.721 354.138h22.671M446.503 351.303H427.61M449.337 351.303h-2.834M446.503 351.303v1.89M446.503 353.193h2.834M449.337 353.193v-1.89M424.776 353.193h2.834M427.61 353.193v-1.89M427.61 351.303h-2.834M424.776 351.303v1.89M427.61 353.193h18.893M446.503 351.303H427.61M446.503 352.249H427.61M505.072 354.138v-1.89M505.072 354.138v-1.89M505.072 359.806v-5.668M505.072 352.249V336M421.942 354.138v-1.89M421.942 354.138v-1.89M421.942 359.806v-5.668M421.942 352.249V336M310.473 352.249V336M310.473 359.806v-5.668M310.473 354.138v-1.89M376.599 352.249V336M376.599 359.806v-5.668M376.599 354.138v-1.89M376.599 359.806h-66.126M376.599 336h-66.126M376.599 352.249h-3.78M372.82 352.249v1.889M372.82 354.138h3.779M338.812 354.138h1.889M340.701 354.138v-1.89M340.701 352.249h-1.889M372.82 353.193h-32.118M372.82 352.249h-32.118M340.701 354.138h32.119M338.812 352.249h-.945M337.868 352.249v.944M337.868 353.193h-.945M336.923 353.193v.945M336.923 354.138h1.89M310.473 354.138h3.779M314.251 354.138v-.945M314.251 353.193h-.945M313.307 353.193v-.944M313.307 352.249h-2.834M314.251 354.138h22.671M335.034 351.303h-18.893M337.868 351.303h-2.834M335.034 351.303v1.89M335.034 353.193h2.834M337.868 353.193v-1.89M313.307 353.193h2.834M316.14 353.193v-1.89M316.14 351.303h-2.833M313.307 351.303v1.89M316.14 353.193h18.894M335.034 351.303h-18.893M335.034 352.249h-18.893M376.599 354.138v-1.89M376.599 354.138v-1.89M376.599 359.806v-5.668M376.599 352.249V336M310.473 354.138v-1.89M310.473 354.138v-1.89M310.473 359.806v-5.668M310.473 352.249V336M217.896 352.249V336M217.896 359.806v-5.668M217.896 354.138v-1.89M176.331 352.249V336M176.331 359.806v-5.668M176.331 354.138v-1.89M176.331 359.806h41.565M176.331 336h41.565M176.331 352.249h3.779M180.11 352.249v1.889M180.11 354.138h-3.779M186.156 354.138h-1.89M184.266 354.138v-1.89M184.266 352.249h1.89M180.11 353.193h4.156M180.11 352.249h4.156M184.266 354.138h-4.156M186.156 352.249h.945M187.101 352.249v.944M187.101 353.193h.943M188.045 353.193v.945M188.045 354.138h-1.889M217.896 354.138h-3.779M214.118 354.138v-.945M214.118 353.193h.943M215.062 353.193v-.944M215.062 352.249h2.834M215.062 351.303l-19.772-19.771M214.118 354.138h-26.074M189.934 351.303h22.294M187.101 351.303h2.832M189.934 351.303v1.89M189.934 353.193h-2.833M187.101 353.193v-1.89M215.062 353.193h-2.834M212.228 353.193v-1.89M212.228 351.303h2.834M215.062 351.303v1.89M212.228 353.193h-22.294M189.934 351.303h22.294M189.934 352.249h22.294M187.1 351.3a27.964 27.964 0 018.189-19.771M176.331 354.138v-1.89M176.331 354.138v-1.89M176.331 359.806v-5.668M176.331 352.249V336M217.896 354.138v-1.89M217.896 354.138v-1.89M217.896 359.806v-5.668M217.896 352.249V336"/><path class="cls-4" d="M48.614 354.137l1.889-1.889h-1.889v1.889z"/><path fill="#fff" d="M50.503 352.248h4.723v1.889h-4.723z"/><path class="cls-4" d="M48.614 354.137h1.889v-1.889l-1.889 1.889z"/><path class="cls-7" d="M50.503 204.693h16.248M42.946 204.693h5.667M48.613 204.693h1.89M42.946 204.693v155.113M66.751 204.693v131.308M50.503 204.693v4.724M50.503 209.416h-1.89M48.613 209.416v-4.723M48.613 352.249v-4.724M48.613 347.525h1.89M50.503 347.525v4.724M48.613 354.138v-1.89M50.503 209.416v138.108M48.613 347.525V209.417M48.613 204.693h1.89M48.613 204.693h1.89M42.946 204.693h5.667M50.503 204.693h16.248M130.988 352.249V336M130.988 359.806v-5.668M130.988 354.138v-1.89M130.988 359.806H42.946M130.988 336H66.751M130.988 352.249h-4.724M126.264 352.249v1.889M126.264 354.138h4.724M50.503 354.138h4.723M55.226 354.138v-1.89M55.226 352.249h-4.723M48.613 354.138h1.89M126.264 352.249H55.226M55.226 354.138h71.038M130.988 354.138v-1.89M130.988 354.138v-1.89M130.988 359.806v-5.668M130.988 352.249V336"/><path class="cls-9" d="M48.597 287.478h1.89v5.133h-1.89zM48.597 244.97h1.89v5.133h-1.89z"/><path d="M253.793 204.5h-10.959v37.752h10.959V204.5zm68.849-187.208v6.8h20.971v-6.8zM176.218 359.824h-45.343v-23.805h45.343v23.805zm357.005-335.74l-151.07.01v-6.8h.454v-1.513h1.058q74.79 0 149.558-.01v8.314zm0 335.721l-28.264.019v-23.805h28.264v23.786zM66.638 204.712H42.833q0-44.853.1-89.572h23.808c-.026 29.845-.1 59.622-.1 89.572zm355.191 155.112h-45.343v-23.805h45.343v23.805zm-204.046-23.805h92.577v23.805h-92.577v-23.805zM402.86 204.5V336h-9.069V204.489c3.027 0 6.032.011 9.069.011z" stroke-miterlimit="3" stroke-width=".384" stroke="#000" fill-rule="evenodd"/><path class="cls-11" d="M379.493.2a44.5 44.5 0 013.227 15.862"/><path class="cls-12" d="M379.479.103l-35.868 15.482v1.707l36.468-15.801-.6-1.388z"/><path class="cls-11" d="M351.516 220.07a34.779 34.779 0 01-2.577-12.543"/><path class="cls-12" d="M351.551 220.172l29.279-12.645.001-1.512h-.454l-29.405 12.781.579 1.376z"/><path class="cls-11" d="M409.383 189.536a34.9 34.9 0 01-12.568 2.581"/><path class="cls-12" d="M409.473 189.497l-12.658-29.271h-1.512v.454l12.783 29.419 1.387-.602z"/><path class="cls-11" d="M491.575 150.555a31.356 31.356 0 01-2.261-11.044"/><path class="cls-12" d="M491.618 150.655l25.809-11.144v-1.51h-.453l-25.95 11.281.594 1.373z"/><path class="cls-11" d="M407.877 50.085a30.706 30.706 0 00-11.062-2.285"/><path class="cls-12" d="M407.973 50.114l-1.387-.601-11.283 25.95v.454l1.512.001 11.158-25.804z"/></g><g id="wall_2" data-name="wall 2"><path class="cls-4" d="M322.64 24.094h9.182q-.006 61.966 0 123.919H328.8v-22.654h-60.08v22.654h-20.596v-22.654H66.751v-9.086H322.64V24.094zm-68.847 218.161h-10.959v93.764h10.959v-93.764zm279.43-218.18V336l-11.071.019V139.511h-4.725V138h-.453v-1.512h5.178V94.922h-36.729v-8.879h-65.937v50.445h70.282V138h-.453v1.51h-92.5v20.716H395.3v.454h-1.512v-24.191h22.671V86.043h-22.668v-10.58h1.509v.454h1.511v7.1h110.151V24.094h3.023v10.561h12.167V24.094zM522.152 91.9v-5.857h-33.707V91.9zm0-8.88V37.677h-12.167v45.344zM253.793 207.526h95.145v-1.511h.454V204.5h-95.6v3.023zm11.9-82.167h-14.545v19.631H265.7v-19.631zM393.791 24.094v24.163h1.509V47.8h1.511V24.094zm0 180.4h3.023v-12.377H395.3v-.453h-1.512V204.5h-13.411v1.512h.454v1.511h12.96v-3.037zm9.069 14.373h77.462v-3.023H402.86z"/><path class="cls-13" d="M67.058 116.27l-.31.27M74.478 116.27l-7.73 6.81M81.888 116.27l-10.32 9.09M89.318 116.27l-10.32 9.09M96.738 116.27l-10.32 9.09M104.158 116.27l-10.31 9.09M111.588 116.27l-10.32 9.09M119.008 116.27l-10.32 9.09M126.428 116.27l-10.32 9.09M133.848 116.27l-10.32 9.09M141.268 116.27l-10.32 9.09M148.698 116.27l-10.32 9.09M156.118 116.27l-10.32 9.09M163.548 116.27l-10.32 9.09M170.958 116.27l-10.32 9.09M178.378 116.27l-10.31 9.09M185.808 116.27l-10.32 9.09M193.228 116.27l-10.32 9.09M200.648 116.27l-10.31 9.09M208.078 116.27l-10.32 9.09M215.498 116.27l-10.32 9.09M327.558 24.09l-4.92 4.33M222.918 116.27l-10.32 9.09M331.818 26.88l-9.18 8.08M230.338 116.27l-10.32 9.09M331.818 33.41l-9.18 8.09M237.758 116.27l-10.31 9.09M331.818 39.95l-9.18 8.09M245.188 116.27l-10.32 9.09M331.818 46.49l-9.18 8.09M252.608 116.27l-10.32 9.09M331.818 53.03l-9.18 8.09M260.038 116.27l-11.91 10.49M331.818 59.57l-9.18 8.08M251.148 130.63l-3.02 2.66M267.448 116.27l-10.32 9.09M331.818 66.11l-9.18 8.09M251.148 137.17l-3.02 2.66M274.878 116.27l-10.32 9.09M331.818 72.65l-9.18 8.08M251.148 143.71l-3.02 2.66M282.298 116.27l-10.32 9.09M268.718 128.23l-3.02 2.66M331.818 79.18l-9.18 8.09M394.358 24.09l-.57.5M257.118 144.99l-3.43 3.02M289.718 116.27l-10.32 9.09M268.718 134.77l-3.02 2.66M331.818 85.72l-9.18 8.09M396.818 28.46l-3.03 2.67M264.538 144.99l-3.43 3.02M297.138 116.27l-10.32 9.09M268.718 141.31l-3.02 2.66M331.818 92.26l-9.18 8.09M396.818 35l-3.03 2.67M268.718 147.85l-.18.16M304.568 116.27l-10.32 9.09M331.818 98.8l-9.18 8.09M396.818 41.54l-3.03 2.67M311.988 116.27l-10.32 9.09M331.818 105.34l-9.18 8.09M319.408 116.27l-10.32 9.09M331.818 111.88l-15.31 13.48M331.818 118.41l-7.89 6.95M331.818 124.95l-3.02 2.66M331.818 131.49l-3.02 2.66M395.298 75.57l-1.51 1.33M331.818 138.03l-3.02 2.66M396.818 80.77l-3.03 2.67M256.358 204.5l-2.57 2.27M401.688 83.02l-3.43 3.02M331.818 144.57l-3.02 2.66M263.778 204.5l-3.44 3.03M409.118 83.02l-3.43 3.02M271.208 204.5l-3.44 3.03M416.528 83.02l-3.43 3.02M278.628 204.5l-3.44 3.03M423.948 83.02l-3.42 3.02M419.488 86.95l-3.03 2.67M243.198 242.25l-.36.32M286.048 204.5l-3.44 3.03M431.378 83.02l-3.43 3.02M419.488 93.49l-3.03 2.67M250.618 242.25l-7.78 6.85M293.468 204.5l-3.44 3.03M438.798 83.02l-3.42 3.02M419.488 100.03l-3.03 2.67M253.788 246l-10.95 9.65M300.898 204.5l-3.44 3.03M446.218 83.02l-3.42 3.02M419.488 106.57l-3.03 2.67M509.988 26.85l-3.03 2.67M253.788 252.54l-10.95 9.64M308.318 204.5l-3.44 3.03M453.648 83.02l-3.43 3.02M419.488 113.11l-3.03 2.67M509.988 33.39l-3.03 2.67M253.788 259.08l-10.95 9.64M315.738 204.5l-3.44 3.03M509.988 39.92l-3.03 2.67M527.988 24.07l-5.84 5.14M515.978 34.65l-3.44 3.03M419.488 119.65l-3.03 2.67M396.818 139.62l-3.03 2.67M400.368 136.49l-3.43 3.02M253.788 265.61l-10.95 9.65M323.158 204.5l-3.44 3.03M461.068 83.02l-3.43 3.02M509.988 46.46l-3.03 2.67M533.218 25.99l-13.27 11.69M419.488 126.18l-3.03 2.67M396.818 146.15l-3.03 2.67M253.788 272.15l-10.95 9.64M330.578 204.5l-3.44 3.03M407.788 136.49l-3.43 3.02M468.488 83.02l-3.43 3.02M509.988 53l-3.03 2.67M533.218 32.54l-11.07 9.75M419.488 132.72l-3.03 2.67M396.818 152.69l-3.03 2.67M253.788 278.69l-10.95 9.65M338.008 204.5l-3.44 3.03M415.218 136.49l-3.43 3.02M475.908 83.02l-3.43 3.02M509.988 59.54l-3.03 2.67M533.218 39.08l-11.07 9.75M422.638 136.49l-3.43 3.02M396.818 159.23l-1.13 1M395.298 160.57l-.12.11M345.428 204.5l-3.44 3.03M253.788 285.23l-10.95 9.65M483.328 83.02l-3.42 3.02M509.988 66.08l-3.03 2.67M533.218 45.61l-11.07 9.75M430.058 136.49l-3.43 3.02M253.788 291.77l-10.95 9.64M490.758 83.02l-5.34 4.7M509.988 72.61l-3.03 2.67M533.218 52.15l-11.07 9.75M488.448 91.59l-3.03 2.67M253.788 298.3l-10.95 9.65M437.478 136.49l-3.43 3.02M498.178 83.02l-3.43 3.02M509.988 79.16l-3.03 2.67M533.218 58.69l-11.07 9.76M495.518 91.9l-3.42 3.02M253.788 304.85l-10.95 9.64M444.908 136.49l-3.43 3.02M505.608 83.02l-3.43 3.02M513.018 83.02l-3.43 3.02M452.318 136.49l-3.42 3.02M253.788 311.38l-10.95 9.65M502.938 91.9l-3.43 3.02M533.218 65.23l-11.07 9.75M520.438 83.02l-3.42 3.02M459.748 136.49l-3.43 3.02M396.598 192.12l-2.81 2.47M382.538 204.5l-1.71 1.51M253.788 317.92l-10.95 9.65M510.358 91.9l-3.42 3.02M533.218 71.77l-11.07 9.75M517.788 91.9l-3.43 3.02M253.788 324.46l-10.95 9.64M396.818 198.46l-3.03 2.67M389.958 204.5l-3.44 3.03M467.168 136.49l-3.43 3.02M533.218 78.3l-11.07 9.76M474.598 136.49l-3.43 3.02M253.788 331l-5.7 5.02M533.218 84.85l-11.44 10.07M482.018 136.49l-3.43 3.02M533.218 91.38l-11.07 9.76M489.438 136.49l-3.43 3.02M533.218 97.92l-11.07 9.75M406.778 215.84l-3.43 3.02M533.218 104.46l-11.07 9.75M414.198 215.84l-3.43 3.02M533.218 110.99l-11.07 9.76M421.628 215.84l-3.43 3.02M533.218 117.54l-11.07 9.75M429.048 215.84l-3.43 3.02M519.128 136.49l-1.72 1.51M533.218 124.07l-11.07 9.76M436.468 215.84l-3.43 3.02M533.218 130.61l-11.07 9.75M443.888 215.84l-3.43 3.02M533.218 137.15l-11.07 9.75M451.318 215.84l-3.43 3.02M533.218 143.69l-11.07 9.76M458.738 215.84l-3.43 3.02M533.218 150.23l-11.07 9.75M466.158 215.84l-3.43 3.02M533.218 156.77l-11.07 9.75M473.578 215.84l-3.43 3.02M533.218 163.3l-11.07 9.75M480.318 216.44l-2.75 2.42M533.218 169.84l-11.07 9.75M533.218 176.38l-11.07 9.76M533.218 182.92l-11.07 9.75M533.218 189.46l-11.07 9.75M533.218 195.99l-11.07 9.76M533.218 202.54l-11.07 9.75M533.218 209.07l-11.07 9.76M533.218 215.61l-11.07 9.75M533.218 222.15l-11.07 9.75M533.218 228.69l-11.07 9.75M533.218 235.23l-11.07 9.75M533.218 241.77l-11.07 9.75M533.218 248.3l-11.07 9.75M533.218 254.84l-11.07 9.75M533.218 261.38l-11.07 9.76M533.218 267.92l-11.07 9.75M533.218 274.46l-11.07 9.75M533.218 280.99l-11.07 9.75M533.218 287.54l-11.07 9.75M533.218 294.07l-11.07 9.76M533.218 300.61l-11.07 9.75M533.218 307.15l-11.07 9.75M533.218 313.69l-11.07 9.75M533.218 320.23l-11.07 9.75M533.218 326.76l-10.51 9.26M533.218 333.3l-3.07 2.71"/><path d="M322.64 24.094h9.182q-.006 61.966 0 123.919H328.8v-22.654h-60.08v22.654h-20.596v-22.654H66.751v-9.086H322.64V24.094zm-68.847 218.161h-10.959v93.764h10.959v-93.764zm279.43-218.18V336l-11.071.019V139.511h-4.725V138h-.453v-1.512h5.178V94.922h-36.729v-8.879h-65.937v50.445h70.282V138h-.453v1.51h-92.5v20.716H395.3v.454h-1.512v-24.191h22.671V86.043h-22.668v-10.58h1.509v.454h1.511v7.1h110.151V24.094h3.023v10.561h12.167V24.094zM522.152 91.9v-5.857h-33.707V91.9zm0-8.88V37.677h-12.167v45.344zM253.793 207.526h95.145v-1.511h.454V204.5h-95.6v3.023zm11.9-82.167h-14.545v19.631H265.7v-19.631zM393.791 24.094h3.023V47.8H395.3v.453h-1.512V24.094zm0 180.4h3.023v-12.377H395.3v-.453h-1.512V204.5h-13.411v1.512h.454v1.511h12.96v-3.037zm9.069 14.373v-3.023h77.462v3.023z" stroke-width=".36" stroke="#000" fill-rule="evenodd" stroke-linecap="round" stroke-linejoin="round" fill="none"/></g></g><g id="sizes"><path class="cls-7" d="M.255 104.911h42.691" id="LINE"/><path d="M11.357 102.38H9.962v-8.422l-1.415.868v-1.442l1.415-.944h1.395zM13.462 101.17l3.466-4.621a3.474 3.474 0 00.468-.823 2.194 2.194 0 00.168-.8v-.014a1.209 1.209 0 00-.349-.923 1.389 1.389 0 00-.991-.328 1.369 1.369 0 00-.985.359 1.634 1.634 0 00-.458 1.015v.007h-1.442v-.007a3.727 3.727 0 01.5-1.459 2.566 2.566 0 01.981-.923 2.93 2.93 0 011.388-.318 3.442 3.442 0 011.518.305 2.139 2.139 0 01.957.884 2.82 2.82 0 01.328 1.4v.007a3.083 3.083 0 01-.219 1.1 4.734 4.734 0 01-.608 1.108l-2.878 3.91h3.759v1.326h-5.6zM21.566 101.737a2.861 2.861 0 01-.721-2.078v-4.518a2.852 2.852 0 01.724-2.081 2.82 2.82 0 012.113-.743 2.827 2.827 0 012.116.739 2.862 2.862 0 01.721 2.085v4.518a2.854 2.854 0 01-.725 2.082 2.823 2.823 0 01-2.112.741 2.812 2.812 0 01-2.116-.745zm3.207-.967a1.594 1.594 0 00.351-1.111v-4.518a1.6 1.6 0 00-.348-1.111 1.4 1.4 0 00-1.094-.386 1.4 1.4 0 00-1.094.386 1.605 1.605 0 00-.349 1.111v4.518a1.594 1.594 0 00.352 1.111 1.735 1.735 0 002.182 0zM29.29 101.737a2.865 2.865 0 01-.721-2.078v-4.518a2.852 2.852 0 01.725-2.081 2.818 2.818 0 012.112-.743 2.829 2.829 0 012.117.739 2.861 2.861 0 01.72 2.085v4.518a2.557 2.557 0 01-2.837 2.823 2.815 2.815 0 01-2.116-.745zm3.207-.967a1.59 1.59 0 00.352-1.111v-4.518a1.6 1.6 0 00-.349-1.111 1.742 1.742 0 00-2.187 0 1.6 1.6 0 00-.349 1.111v4.518a1.59 1.59 0 00.352 1.111 1.733 1.733 0 002.181 0z"/><path class="cls-7" d="M42.966 104.911l-1.461 1.461" id="LINE-2" data-name="LINE"/><path class="cls-7" d="M41.505 103.45l1.461 1.461" id="LINE-3" data-name="LINE"/><path class="cls-7" d="M.255 104.911l1.461-1.461" id="LINE-4" data-name="LINE"/><path class="cls-7" d="M1.716 106.372l-1.461-1.461" id="LINE-5" data-name="LINE"/><path class="cls-7" d="M42.946 115.895v-10.984M.255 115.895v-10.984"/><path class="cls-7" d="M382.152 32.955V22.648" id="LINE-6" data-name="LINE"/><path class="cls-7" d="M343.611 32.955V22.357" id="LINE-7" data-name="LINE"/><path class="cls-7" d="M382.153 32.954l-1.461 1.461" id="LINE-8" data-name="LINE"/><path class="cls-7" d="M380.692 31.493l1.461 1.461" id="LINE-9" data-name="LINE"/><path class="cls-7" d="M343.611 32.955h38.542" id="LINE-10" data-name="LINE"/><path d="M354.192 45.258H352.8v-8.422l-1.415.868v-1.442l1.415-.944h1.395zM358.847 45.258h-1.394v-8.422l-1.415.868v-1.442l1.415-.944h1.394zM361.824 44.615a2.861 2.861 0 01-.721-2.078v-4.518a2.85 2.85 0 01.725-2.082 3.388 3.388 0 014.228 0 2.858 2.858 0 01.721 2.085v4.518a2.852 2.852 0 01-.725 2.082 3.379 3.379 0 01-4.228 0zm3.207-.967a1.6 1.6 0 00.351-1.111v-4.518a1.6 1.6 0 00-.348-1.111 1.74 1.74 0 00-2.188 0 1.6 1.6 0 00-.348 1.111v4.518a1.6 1.6 0 00.351 1.111 1.735 1.735 0 002.182 0zM369.548 44.615a2.865 2.865 0 01-.72-2.078v-4.518a2.854 2.854 0 01.724-2.082 3.389 3.389 0 014.229 0 2.862 2.862 0 01.721 2.085v4.518a2.856 2.856 0 01-.725 2.082 3.38 3.38 0 01-4.229 0zm3.207-.967a1.591 1.591 0 00.352-1.111v-4.518a1.6 1.6 0 00-.349-1.111 1.738 1.738 0 00-2.187 0 1.6 1.6 0 00-.349 1.111v4.518a1.591 1.591 0 00.352 1.111 1.733 1.733 0 002.181 0z"/><path class="cls-7" d="M343.611 32.954l1.461 1.461" id="LINE-11" data-name="LINE"/><path class="cls-7" d="M345.072 31.493l-1.461 1.461" id="LINE-12" data-name="LINE"/><path class="cls-7" d="M66.751 323.483h176.083" id="LINE-13" data-name="LINE"/><path d="M140.307 317.093l3.336-7.2h1.436l-3.254 7.117h4.875v1.29h-6.392zm4.286-3.111h1.361v5.852h-1.361zM149.474 319.577a2.282 2.282 0 01-.947-1.025 3.719 3.719 0 01-.324-1.623v-.007a5.537 5.537 0 01.13-1.162 6.745 6.745 0 01.376-1.2c.027-.068.056-.135.088-.2s.064-.131.1-.194l2.16-4.279h1.5l-2.536 4.956.007-.246a1.189 1.189 0 01.5-.5 1.568 1.568 0 01.766-.178 2.443 2.443 0 011.326.348 2.187 2.187 0 01.841 1.015 4.049 4.049 0 01.287 1.6v.006a3.791 3.791 0 01-.326 1.641 2.289 2.289 0 01-.949 1.039 3.347 3.347 0 01-3 0zm2.52-1.4a1.728 1.728 0 00.358-1.169V317a1.969 1.969 0 00-.376-1.289 1.313 1.313 0 00-1.073-.454 1.131 1.131 0 00-.964.458 2.127 2.127 0 00-.342 1.292v.007a1.7 1.7 0 00.36 1.165 1.474 1.474 0 002.037 0zM156.919 319.588a2.511 2.511 0 01-1.057-.968 2.786 2.786 0 01-.372-1.452V317a2.793 2.793 0 01.372-1.4 2.492 2.492 0 011-.992 2.175 2.175 0 01-.845-.831 2.24 2.24 0 01-.317-1.144v-.24a2.647 2.647 0 01.349-1.371 2.369 2.369 0 01.984-.916 3.526 3.526 0 012.953 0 2.369 2.369 0 01.984.916 2.647 2.647 0 01.349 1.371v.24a2.2 2.2 0 01-.325 1.155 2.165 2.165 0 01-.858.82 2.58 2.58 0 011.008.994 2.732 2.732 0 01.38 1.4v.164a2.786 2.786 0 01-.372 1.452 2.511 2.511 0 01-1.057.968 3.846 3.846 0 01-3.171 0zm2.44-1.19a1.378 1.378 0 00.571-.537 1.549 1.549 0 00.2-.8v-.095a1.568 1.568 0 00-.2-.8 1.376 1.376 0 00-.571-.536 2 2 0 00-1.709 0 1.366 1.366 0 00-.571.54 1.585 1.585 0 00-.2.807v.1a1.535 1.535 0 00.2.793 1.36 1.36 0 00.571.529 2.012 2.012 0 001.709 0zm-.116-4.481a1.248 1.248 0 00.5-.516 1.628 1.628 0 00.178-.772v-.1a1.5 1.5 0 00-.178-.738 1.222 1.222 0 00-.5-.5 1.654 1.654 0 00-1.477 0 1.222 1.222 0 00-.5.5 1.517 1.517 0 00-.178.745v.1a1.587 1.587 0 00.178.761 1.246 1.246 0 00.5.513 1.589 1.589 0 001.477 0zM164.188 319.185a2.871 2.871 0 01-.721-2.079v-4.518a2.854 2.854 0 01.725-2.082 3.393 3.393 0 014.229 0 2.86 2.86 0 01.72 2.085v4.518a2.852 2.852 0 01-.724 2.081 3.377 3.377 0 01-4.229 0zm3.207-.968a1.591 1.591 0 00.352-1.111v-4.518a1.6 1.6 0 00-.349-1.111 1.742 1.742 0 00-2.187 0 1.6 1.6 0 00-.349 1.111v4.518a1.6 1.6 0 00.351 1.111 1.735 1.735 0 002.182 0z"/><path class="cls-7" d="M242.834 323.483l-1.461 1.461" id="LINE-14" data-name="LINE"/><path class="cls-7" d="M241.373 322.022l1.461 1.461" id="LINE-15" data-name="LINE"/><path class="cls-7" d="M66.751 323.483l1.461-1.461" id="LINE-16" data-name="LINE"/><path class="cls-7" d="M68.212 324.944l-1.461-1.461" id="LINE-17" data-name="LINE"/><path class="cls-7" d="M66.751 138.831h181.373" id="LINE-18" data-name="LINE"/><path d="M142.615 148.815l3.336-7.2h1.435l-3.254 7.116h4.874v1.292h-6.391zm4.286-3.11h1.36v5.852H146.9zM152.042 151.311a2.511 2.511 0 01-1.057-.968 2.786 2.786 0 01-.372-1.452v-.164a2.8 2.8 0 01.372-1.4 2.5 2.5 0 01.995-.991 2.181 2.181 0 01-.845-.831 2.241 2.241 0 01-.317-1.145v-.239a2.641 2.641 0 01.349-1.37 2.358 2.358 0 01.984-.917 3.526 3.526 0 012.953 0 2.358 2.358 0 01.984.917 2.641 2.641 0 01.349 1.37v.239a2.2 2.2 0 01-.325 1.156 2.162 2.162 0 01-.857.82 2.58 2.58 0 011.007 1 2.726 2.726 0 01.38 1.4v.164a2.786 2.786 0 01-.372 1.452 2.505 2.505 0 01-1.057.968 3.856 3.856 0 01-3.171 0zm2.44-1.19a1.378 1.378 0 00.571-.537 1.552 1.552 0 00.2-.8v-.1a1.567 1.567 0 00-.2-.8 1.376 1.376 0 00-.571-.536 2 2 0 00-1.709 0 1.372 1.372 0 00-.571.54 1.583 1.583 0 00-.2.806v.1a1.535 1.535 0 00.2.793 1.366 1.366 0 00.571.529 1.85 1.85 0 00.855.188 1.825 1.825 0 00.854-.183zm-.116-4.481a1.254 1.254 0 00.5-.516 1.628 1.628 0 00.178-.772v-.1a1.5 1.5 0 00-.178-.738 1.222 1.222 0 00-.5-.5 1.654 1.654 0 00-1.477 0 1.222 1.222 0 00-.5.5 1.517 1.517 0 00-.177.745v.1a1.593 1.593 0 00.177.762 1.252 1.252 0 00.5.513 1.6 1.6 0 001.477 0zM158.454 148.815l3.336-7.2h1.435l-3.254 7.116h4.874v1.292h-6.391zm4.286-3.11h1.36v5.852h-1.36zM167.994 151.358a2.4 2.4 0 01-.951-.854 3.4 3.4 0 01-.489-1.347v-.007h1.4v.007a1.292 1.292 0 00.437.851 1.418 1.418 0 00.944.3 1.261 1.261 0 001.035-.447 1.944 1.944 0 00.366-1.262v-.834a1.93 1.93 0 00-.366-1.254 1.261 1.261 0 00-1.035-.448 1.326 1.326 0 00-.7.2 1.954 1.954 0 00-.587.575h-1.272v-5.228h5.065v1.326h-3.67v2.236a1.957 1.957 0 01.581-.328 1.9 1.9 0 01.656-.116 2.891 2.891 0 011.474.355 2.282 2.282 0 01.929 1.039 3.9 3.9 0 01.318 1.647v.834a3.778 3.778 0 01-.329 1.648 2.318 2.318 0 01-.957 1.042 2.989 2.989 0 01-1.51.359 2.928 2.928 0 01-1.339-.294z"/><path class="cls-7" d="M248.124 138.831l-1.461 1.461" id="LINE-19" data-name="LINE"/><path class="cls-7" d="M246.663 137.369l1.461 1.462" id="LINE-20" data-name="LINE"/><path class="cls-7" d="M66.751 138.831l1.461-1.462" id="LINE-21" data-name="LINE"/><path class="cls-7" d="M68.212 140.292l-1.461-1.461" id="LINE-22" data-name="LINE"/><path class="cls-7" d="M268.94 138.831h59.858" id="LINE-23" data-name="LINE"/><path d="M288.9 151.55h-1.4v-8.422l-1.415.868v-1.442l1.415-.944h1.4zM292.218 151.3a2.288 2.288 0 01-.947-1.025 3.718 3.718 0 01-.324-1.624v-.007a5.545 5.545 0 01.13-1.162 6.787 6.787 0 01.376-1.2c.027-.068.056-.136.089-.2s.063-.13.1-.194l2.16-4.28h1.5l-2.536 4.956.007-.246a1.2 1.2 0 01.5-.5 1.59 1.59 0 01.766-.177 2.443 2.443 0 011.326.348 2.187 2.187 0 01.841 1.015 4.05 4.05 0 01.287 1.6v.007a3.806 3.806 0 01-.325 1.641 2.3 2.3 0 01-.95 1.039 3.355 3.355 0 01-3 0zm2.52-1.4a1.726 1.726 0 00.358-1.169v-.006a1.967 1.967 0 00-.376-1.289 1.314 1.314 0 00-1.073-.455 1.133 1.133 0 00-.964.458 2.133 2.133 0 00-.342 1.292v.007a1.7 1.7 0 00.36 1.166 1.475 1.475 0 002.037 0zM298.186 150.34l3.466-4.621a3.46 3.46 0 00.468-.824 2.185 2.185 0 00.168-.8v-.014a1.208 1.208 0 00-.349-.923 1.388 1.388 0 00-.991-.328 1.371 1.371 0 00-.985.359 1.634 1.634 0 00-.458 1.015v.007h-1.442v-.007a3.721 3.721 0 01.5-1.459 2.559 2.559 0 01.981-.923 2.93 2.93 0 011.388-.318 3.456 3.456 0 011.518.3 2.141 2.141 0 01.957.885 2.806 2.806 0 01.328 1.4v.006a3.084 3.084 0 01-.219 1.1 4.673 4.673 0 01-.608 1.107l-2.878 3.911h3.76v1.326h-5.606zM306.29 150.907a2.861 2.861 0 01-.721-2.078v-4.518a2.85 2.85 0 01.725-2.082 3.388 3.388 0 014.228 0 2.858 2.858 0 01.721 2.085v4.518a2.852 2.852 0 01-.725 2.082 3.379 3.379 0 01-4.228 0zm3.207-.967a1.6 1.6 0 00.351-1.111v-4.518a1.6 1.6 0 00-.348-1.111 1.74 1.74 0 00-2.188 0 1.605 1.605 0 00-.349 1.111v4.518a1.6 1.6 0 00.352 1.111 1.735 1.735 0 002.182 0z"/><path class="cls-7" d="M328.645 138.831l-1.461 1.461" id="LINE-24" data-name="LINE"/><path class="cls-7" d="M327.184 137.369l1.461 1.462" id="LINE-25" data-name="LINE"/><path class="cls-7" d="M268.94 138.831l1.461-1.462" id="LINE-26" data-name="LINE"/><path class="cls-7" d="M270.401 140.292l-1.461-1.461" id="LINE-27" data-name="LINE"/><path class="cls-7" d="M480.322 217.301h41.83" id="LINE-28" data-name="LINE"/><path d="M491.069 230.019h-1.4V221.6l-1.415.868v-1.443l1.415-.943h1.4zM494.046 229.377a2.864 2.864 0 01-.721-2.078v-4.519a2.843 2.843 0 115.674 0v4.52a2.852 2.852 0 01-.725 2.081 3.377 3.377 0 01-4.228 0zm3.207-.967a1.6 1.6 0 00.351-1.111v-4.519a1.6 1.6 0 00-.349-1.111 1.742 1.742 0 00-2.187 0 1.607 1.607 0 00-.349 1.111v4.52a1.6 1.6 0 00.352 1.111 1.735 1.735 0 002.182 0zM504.57 225.084l-.007.246a1.022 1.022 0 01-.516.461 2.056 2.056 0 01-.817.147 2.189 2.189 0 01-1.251-.362 2.374 2.374 0 01-.838-1.022 3.706 3.706 0 01-.3-1.528v-.007a3.821 3.821 0 01.325-1.647 2.283 2.283 0 01.951-1.039 2.986 2.986 0 011.5-.355 2.922 2.922 0 011.5.362 2.323 2.323 0 01.946 1.053 3.869 3.869 0 01.325 1.661v.007a5.248 5.248 0 01-.136 1.138 6.955 6.955 0 01-.39 1.2l-.082.182a2.335 2.335 0 01-.089.181l-2.119 4.258h-1.5zm.065-.861a1.947 1.947 0 00.359-1.251v-.007a1.852 1.852 0 00-.359-1.217 1.419 1.419 0 00-2.037 0 1.857 1.857 0 00-.359 1.224v.006a1.925 1.925 0 00.359 1.248 1.393 1.393 0 002.037 0zM509.673 229.828a2.418 2.418 0 01-.951-.854 3.41 3.41 0 01-.488-1.347v-.007h1.4v.007a1.29 1.29 0 00.437.851 1.415 1.415 0 00.943.3 1.261 1.261 0 001.036-.448 1.939 1.939 0 00.366-1.261v-.834a1.93 1.93 0 00-.366-1.254 1.261 1.261 0 00-1.036-.448 1.316 1.316 0 00-.7.2 1.953 1.953 0 00-.588.574h-1.271v-5.227h5.065v1.326h-3.671v2.236a1.972 1.972 0 01.581-.329 1.927 1.927 0 01.657-.116 2.885 2.885 0 011.473.356 2.284 2.284 0 01.93 1.039 3.9 3.9 0 01.317 1.647v.834a3.778 3.778 0 01-.328 1.648 2.329 2.329 0 01-.957 1.042 3 3 0 01-1.511.359 2.931 2.931 0 01-1.338-.294z"/><path class="cls-7" d="M522.152 217.301l-1.461 1.461" id="LINE-29" data-name="LINE"/><path class="cls-7" d="M520.691 215.839l1.461 1.462" id="LINE-30" data-name="LINE"/><path class="cls-7" d="M480.322 217.301l1.461-1.462" id="LINE-31" data-name="LINE"/><path class="cls-7" d="M481.783 218.762l-1.461-1.461" id="LINE-32" data-name="LINE"/><path class="cls-7" d="M403.099 235.7h77.223" id="LINE-33" data-name="LINE"/><path d="M427.187 231.952l3.466-4.621a3.5 3.5 0 00.468-.824 2.186 2.186 0 00.168-.8v-.007a1.208 1.208 0 00-.349-.923 1.388 1.388 0 00-.991-.328 1.367 1.367 0 00-.985.359 1.629 1.629 0 00-.458 1.015v.007h-1.442v-.007a3.731 3.731 0 01.5-1.46 2.566 2.566 0 01.981-.923 2.941 2.941 0 011.388-.317 3.456 3.456 0 011.518.3 2.136 2.136 0 01.957.885 2.805 2.805 0 01.328 1.4v.007a3.088 3.088 0 01-.219 1.1 4.673 4.673 0 01-.608 1.107l-2.878 3.91h3.76v1.327h-5.606zM435.291 232.519a2.862 2.862 0 01-.721-2.078v-4.519a2.843 2.843 0 115.674 0v4.519a2.559 2.559 0 01-2.837 2.823 2.812 2.812 0 01-2.116-.745zm3.207-.967a1.6 1.6 0 00.351-1.111v-4.519a1.607 1.607 0 00-.348-1.111 1.743 1.743 0 00-2.188 0 1.607 1.607 0 00-.349 1.111v4.519a1.6 1.6 0 00.352 1.111 1.735 1.735 0 002.182 0zM443.621 232.922a2.5 2.5 0 01-1.057-.967 2.788 2.788 0 01-.372-1.453v-.164a2.8 2.8 0 01.372-1.4 2.489 2.489 0 011-.991 2.188 2.188 0 01-.845-.831 2.251 2.251 0 01-.317-1.145v-.239a2.642 2.642 0 01.349-1.371 2.362 2.362 0 01.984-.916 3.526 3.526 0 012.953 0 2.371 2.371 0 01.985.916 2.651 2.651 0 01.348 1.371v.239a2.2 2.2 0 01-.325 1.155 2.165 2.165 0 01-.857.821 2.571 2.571 0 011.007.994 2.728 2.728 0 01.38 1.4v.164a2.788 2.788 0 01-.372 1.453 2.5 2.5 0 01-1.056.967 3.848 3.848 0 01-3.172 0zm2.44-1.189a1.384 1.384 0 00.571-.537 1.552 1.552 0 00.2-.8v-.1a1.567 1.567 0 00-.2-.8 1.384 1.384 0 00-.571-.537 2.007 2.007 0 00-1.709 0 1.384 1.384 0 00-.571.54 1.59 1.59 0 00-.2.807v.1a1.54 1.54 0 00.2.793 1.366 1.366 0 00.571.529 2.021 2.021 0 001.709 0zm-.116-4.481a1.254 1.254 0 00.5-.516 1.63 1.63 0 00.178-.773v-.095a1.51 1.51 0 00-.178-.739 1.226 1.226 0 00-.5-.5 1.646 1.646 0 00-1.477 0 1.238 1.238 0 00-.5.5 1.523 1.523 0 00-.177.745v.1a1.593 1.593 0 00.177.762 1.271 1.271 0 00.5.513 1.6 1.6 0 001.477 0zM450.89 232.519a2.866 2.866 0 01-.72-2.078v-4.519a2.852 2.852 0 01.724-2.081 3.391 3.391 0 014.229 0 2.863 2.863 0 01.72 2.085v4.519a2.558 2.558 0 01-2.837 2.823 2.815 2.815 0 01-2.116-.749zm3.207-.967a1.593 1.593 0 00.352-1.111v-4.519a1.6 1.6 0 00-.349-1.111 1.742 1.742 0 00-2.187 0 1.6 1.6 0 00-.349 1.111v4.519a1.593 1.593 0 00.352 1.111 1.733 1.733 0 002.181 0z"/><path class="cls-7" d="M480.322 235.7l-1.462 1.461" id="LINE-34" data-name="LINE"/><path class="cls-7" d="M478.86 234.239l1.462 1.461" id="LINE-35" data-name="LINE"/><path class="cls-7" d="M403.099 235.7l1.461-1.461" id="LINE-36" data-name="LINE"/><path class="cls-7" d="M404.56 237.161l-1.461-1.461" id="LINE-37" data-name="LINE"/><path class="cls-7" d="M480.322 218.475V239.2"/><path class="cls-7" d="M331.822 138.831h61.746" id="LINE-38" data-name="LINE"/><path d="M352.577 151.55h-1.395v-8.422l-1.415.868v-1.442l1.415-.944h1.395zM355.9 151.3a2.288 2.288 0 01-.947-1.025 3.718 3.718 0 01-.324-1.624v-.007a5.608 5.608 0 01.129-1.162 6.787 6.787 0 01.376-1.2c.028-.068.057-.136.089-.2s.064-.13.1-.194l2.16-4.28h1.5l-2.536 4.956.007-.246a1.2 1.2 0 01.5-.5 1.586 1.586 0 01.765-.177 2.446 2.446 0 011.327.348 2.179 2.179 0 01.84 1.015 4.033 4.033 0 01.287 1.6v.007a3.791 3.791 0 01-.325 1.641 2.3 2.3 0 01-.949 1.039 3.355 3.355 0 01-3 0zm2.52-1.4a1.726 1.726 0 00.358-1.169v-.006a1.967 1.967 0 00-.376-1.289 1.314 1.314 0 00-1.073-.455 1.132 1.132 0 00-.964.458 2.126 2.126 0 00-.342 1.292v.007a1.7 1.7 0 00.359 1.166 1.477 1.477 0 002.038 0zM363.457 151.358a2.414 2.414 0 01-.952-.854 3.41 3.41 0 01-.488-1.347v-.007h1.395v.007a1.292 1.292 0 00.437.851 1.416 1.416 0 00.944.3 1.261 1.261 0 001.035-.447 1.944 1.944 0 00.366-1.262v-.834a1.93 1.93 0 00-.366-1.254 1.261 1.261 0 00-1.035-.448 1.326 1.326 0 00-.7.2 1.968 1.968 0 00-.588.575h-1.271v-5.228h5.066v1.326h-3.67v2.236a1.975 1.975 0 01.582-.328 1.894 1.894 0 01.656-.116 2.885 2.885 0 011.473.355 2.279 2.279 0 01.93 1.039 3.9 3.9 0 01.317 1.647v.834a3.778 3.778 0 01-.328 1.648 2.318 2.318 0 01-.957 1.042 2.992 2.992 0 01-1.51.359 2.928 2.928 0 01-1.336-.294zM371.079 151.358a2.4 2.4 0 01-.951-.854 3.4 3.4 0 01-.489-1.347v-.007h1.395v.007a1.292 1.292 0 00.437.851 1.418 1.418 0 00.944.3 1.261 1.261 0 001.035-.447 1.944 1.944 0 00.366-1.262v-.834a1.93 1.93 0 00-.366-1.254 1.261 1.261 0 00-1.035-.448 1.326 1.326 0 00-.7.2 1.954 1.954 0 00-.587.575h-1.272v-5.228h5.065v1.326h-3.67v2.236a1.957 1.957 0 01.581-.328 1.894 1.894 0 01.656-.116 2.885 2.885 0 011.473.355 2.279 2.279 0 01.93 1.039 3.9 3.9 0 01.318 1.647v.834a3.778 3.778 0 01-.329 1.648 2.318 2.318 0 01-.957 1.042 2.989 2.989 0 01-1.51.359 2.928 2.928 0 01-1.334-.294z"/><path class="cls-7" d="M393.568 138.831l-1.462 1.461" id="LINE-39" data-name="LINE"/><path class="cls-7" d="M392.106 137.369l1.462 1.462" id="LINE-40" data-name="LINE"/><path class="cls-7" d="M331.822 138.831l1.461-1.462" id="LINE-41" data-name="LINE"/><path class="cls-7" d="M333.283 140.292l-1.461-1.461" id="LINE-42" data-name="LINE"/><path class="cls-7" d="M396.814 28.787h110.148" id="LINE-43" data-name="LINE"/><path d="M437.874 40.3l3.465-4.621a3.406 3.406 0 00.468-.823 2.169 2.169 0 00.168-.8v-.016a1.2 1.2 0 00-.348-.922 1.392 1.392 0 00-.992-.328 1.368 1.368 0 00-.984.358 1.634 1.634 0 00-.458 1.016v.006h-1.442v-.006a3.726 3.726 0 01.5-1.46 2.559 2.559 0 01.981-.923 2.924 2.924 0 011.388-.318 3.454 3.454 0 011.517.3 2.131 2.131 0 01.957.885 2.8 2.8 0 01.328 1.4v.007a3.108 3.108 0 01-.218 1.1 4.733 4.733 0 01-.609 1.107l-2.878 3.91h3.76v1.326h-5.6zM446.583 41.266a2.5 2.5 0 01-1.057-.967 2.79 2.79 0 01-.372-1.453v-.164a2.8 2.8 0 01.372-1.4 2.489 2.489 0 011-.991 2.2 2.2 0 01-.845-.831 2.241 2.241 0 01-.317-1.145v-.239a2.642 2.642 0 01.349-1.371 2.356 2.356 0 01.984-.916 3.516 3.516 0 012.953 0 2.364 2.364 0 01.985.916 2.651 2.651 0 01.348 1.371v.239a2.2 2.2 0 01-.325 1.155 2.165 2.165 0 01-.857.821 2.578 2.578 0 011.007.994 2.728 2.728 0 01.38 1.4v.164a2.79 2.79 0 01-.372 1.453 2.5 2.5 0 01-1.056.967 3.848 3.848 0 01-3.172 0zm2.44-1.189a1.384 1.384 0 00.571-.537 1.554 1.554 0 00.2-.8v-.1a1.567 1.567 0 00-.2-.8 1.384 1.384 0 00-.571-.537 2.007 2.007 0 00-1.709 0 1.384 1.384 0 00-.571.54 1.59 1.59 0 00-.2.807v.1a1.535 1.535 0 00.2.793 1.368 1.368 0 00.571.53 2.021 2.021 0 001.709 0zm-.116-4.481a1.254 1.254 0 00.5-.516 1.632 1.632 0 00.178-.773v-.1a1.506 1.506 0 00-.178-.738 1.226 1.226 0 00-.5-.495 1.646 1.646 0 00-1.477 0 1.226 1.226 0 00-.5.495 1.52 1.52 0 00-.177.745v.1a1.593 1.593 0 00.177.762 1.258 1.258 0 00.5.513 1.6 1.6 0 001.477 0zM458.265 32.81l-2.57 8.7h-1.483l2.57-8.613h-2.529v1.429h-1.395v-2.76h5.407zM461.619 41.314a2.407 2.407 0 01-.951-.855 3.385 3.385 0 01-.489-1.346v-.007h1.4v.007a1.294 1.294 0 00.437.851 1.423 1.423 0 00.944.3 1.259 1.259 0 001.035-.448 1.939 1.939 0 00.366-1.261v-.834a1.928 1.928 0 00-.366-1.254 1.259 1.259 0 00-1.035-.448 1.317 1.317 0 00-.7.2 1.95 1.95 0 00-.587.574H460.4v-5.227h5.065v1.326h-3.67v2.235a1.979 1.979 0 01.581-.328 1.922 1.922 0 01.656-.116 2.891 2.891 0 011.474.356 2.277 2.277 0 01.929 1.039 3.892 3.892 0 01.318 1.647v.834a3.778 3.778 0 01-.329 1.648 2.323 2.323 0 01-.957 1.042 3 3 0 01-1.51.359 2.928 2.928 0 01-1.338-.294z"/><path class="cls-7" d="M506.962 28.787l-1.462 1.461" id="LINE-44" data-name="LINE"/><path class="cls-7" d="M505.5 27.325l1.462 1.462" id="LINE-45" data-name="LINE"/><path class="cls-7" d="M396.814 28.787l1.462-1.462" id="LINE-46" data-name="LINE"/><path class="cls-7" d="M398.276 30.248l-1.462-1.461" id="LINE-47" data-name="LINE"/><path class="cls-7" d="M419.649 130.475h102.503" id="LINE-48" data-name="LINE"/><path d="M456.972 126.608l3.466-4.621a3.439 3.439 0 00.468-.823 2.19 2.19 0 00.168-.8v-.014a1.2 1.2 0 00-.349-.922 1.388 1.388 0 00-.991-.328 1.368 1.368 0 00-.984.358 1.629 1.629 0 00-.458 1.016v.006h-1.443v-.006a3.726 3.726 0 01.5-1.46 2.562 2.562 0 01.982-.923 2.923 2.923 0 011.387-.318 3.456 3.456 0 011.518.305 2.136 2.136 0 01.957.885 2.8 2.8 0 01.328 1.4v.007a3.088 3.088 0 01-.219 1.1 4.692 4.692 0 01-.608 1.107l-2.878 3.91h3.76v1.326h-5.606zM465.011 127.569a2.29 2.29 0 01-.947-1.026 3.713 3.713 0 01-.324-1.623v-.007a5.545 5.545 0 01.13-1.162 6.761 6.761 0 01.376-1.2c.027-.069.056-.136.089-.2s.063-.131.1-.195l2.16-4.279h1.5l-2.536 4.956.007-.246a1.189 1.189 0 01.5-.5 1.579 1.579 0 01.766-.178 2.435 2.435 0 011.326.349 2.182 2.182 0 01.841 1.015 4.044 4.044 0 01.287 1.6v.007a3.8 3.8 0 01-.325 1.64 2.287 2.287 0 01-.95 1.039 3.351 3.351 0 01-3 0zm2.52-1.4a1.728 1.728 0 00.358-1.169 1.966 1.966 0 00-.376-1.288 1.311 1.311 0 00-1.073-.455 1.133 1.133 0 00-.964.458 2.131 2.131 0 00-.342 1.292v.007a1.7 1.7 0 00.36 1.165 1.474 1.474 0 002.037 0zM472.456 127.579a2.5 2.5 0 01-1.057-.967 2.79 2.79 0 01-.372-1.453V125a2.8 2.8 0 01.372-1.4 2.489 2.489 0 011-.991 2.2 2.2 0 01-.845-.831 2.241 2.241 0 01-.317-1.145v-.239a2.642 2.642 0 01.349-1.371 2.356 2.356 0 01.984-.916 3.516 3.516 0 012.953 0 2.364 2.364 0 01.985.916 2.651 2.651 0 01.348 1.371v.239a2.2 2.2 0 01-.325 1.155 2.172 2.172 0 01-.857.821 2.571 2.571 0 011.007.994 2.728 2.728 0 01.38 1.4v.164a2.79 2.79 0 01-.372 1.453 2.5 2.5 0 01-1.056.967 3.848 3.848 0 01-3.172 0zm2.44-1.189a1.384 1.384 0 00.571-.537 1.554 1.554 0 00.2-.8v-.1a1.567 1.567 0 00-.2-.8 1.384 1.384 0 00-.571-.537 2.007 2.007 0 00-1.709 0 1.384 1.384 0 00-.571.54 1.59 1.59 0 00-.2.807v.1a1.535 1.535 0 00.2.793 1.368 1.368 0 00.571.53 2.021 2.021 0 001.709 0zm-.116-4.481a1.254 1.254 0 00.5-.516 1.632 1.632 0 00.178-.773v-.1a1.506 1.506 0 00-.178-.738 1.235 1.235 0 00-.5-.5 1.654 1.654 0 00-1.477 0 1.235 1.235 0 00-.5.5 1.52 1.52 0 00-.177.745v.1a1.593 1.593 0 00.177.762 1.258 1.258 0 00.5.513 1.6 1.6 0 001.477 0zM479.725 127.176a2.868 2.868 0 01-.72-2.078v-4.519a2.852 2.852 0 01.724-2.081 3.391 3.391 0 014.229 0 2.861 2.861 0 01.72 2.085v4.517a2.558 2.558 0 01-2.837 2.823 2.819 2.819 0 01-2.116-.747zm3.207-.968a1.589 1.589 0 00.352-1.11v-4.519a1.6 1.6 0 00-.349-1.111 1.742 1.742 0 00-2.187 0 1.6 1.6 0 00-.349 1.111v4.521a1.589 1.589 0 00.352 1.11 1.73 1.73 0 002.181 0z"/><path class="cls-7" d="M521.87 130.475l-1.462 1.461" id="LINE-49" data-name="LINE"/><path class="cls-7" d="M520.408 129.013l1.462 1.462" id="LINE-50" data-name="LINE"/><path class="cls-7" d="M419.649 130.474l1.461-1.461" id="LINE-51" data-name="LINE"/><path class="cls-7" d="M421.11 131.936l-1.461-1.462" id="LINE-52" data-name="LINE"/><path class="cls-7" d="M501.526 24.275v58.746" id="LINE-53" data-name="LINE"/><path d="M497.958 64.207v1.4h-8.422l.868 1.415h-1.442l-.944-1.415v-1.4zM497.766 60.512a2.4 2.4 0 01-.854.951 3.4 3.4 0 01-1.347.488h-.007v-1.394h.007a1.3 1.3 0 00.852-.438 1.42 1.42 0 00.3-.943 1.259 1.259 0 00-.447-1.035 1.939 1.939 0 00-1.262-.367h-.834a1.924 1.924 0 00-1.254.367 1.26 1.26 0 00-.448 1.035 1.325 1.325 0 00.2.7 1.945 1.945 0 00.575.588v1.271h-5.237v-5.068h1.326v3.671h2.236a1.992 1.992 0 01-.328-.581 1.9 1.9 0 01-.117-.656 2.9 2.9 0 01.356-1.474 2.289 2.289 0 011.039-.93 3.9 3.9 0 011.647-.317h.834a3.775 3.775 0 011.648.328 2.326 2.326 0 011.043.957 3 3 0 01.358 1.511 2.918 2.918 0 01-.286 1.336zM495.223 54.466l-7.2-3.336v-1.436l7.116 3.254v-4.874h1.292v6.392zm-3.11-4.286v-1.361h5.851v1.361zM497.315 45.644a2.861 2.861 0 01-2.078.721h-4.519a2.853 2.853 0 01-2.081-.724 3.391 3.391 0 010-4.229 2.865 2.865 0 012.085-.721h4.519a2.856 2.856 0 012.082.725 3.379 3.379 0 010 4.228zm-.967-3.207a1.6 1.6 0 00-1.111-.351h-4.519a1.6 1.6 0 00-1.11.349 1.738 1.738 0 000 2.187 1.6 1.6 0 001.11.349h4.519a1.6 1.6 0 001.111-.352 1.735 1.735 0 000-2.182z"/><path class="cls-7" d="M501.526 83.021l-1.461-1.461" id="LINE-54" data-name="LINE"/><path class="cls-7" d="M502.987 81.56l-1.461 1.461" id="LINE-55" data-name="LINE"/><path class="cls-7" d="M501.526 24.275l1.461 1.462" id="LINE-56" data-name="LINE"/><path class="cls-7" d="M500.065 25.737l1.461-1.462" id="LINE-57" data-name="LINE"/><path class="cls-7" d="M80.486 125.359v210.486" id="LINE-58" data-name="LINE"/><path d="M93.1 243.163a2.412 2.412 0 01-.854.951 3.427 3.427 0 01-1.347.489h-.007v-1.4h.008a1.291 1.291 0 00.851-.438 1.413 1.413 0 00.3-.943 1.261 1.261 0 00-.447-1.035 1.944 1.944 0 00-1.262-.366h-.834a1.93 1.93 0 00-1.254.366 1.261 1.261 0 00-.448 1.035 1.323 1.323 0 00.2.7 1.953 1.953 0 00.574.588v1.272h-5.227v-5.066h1.326v3.671h2.236a1.969 1.969 0 01-.328-.581 1.9 1.9 0 01-.117-.656 2.889 2.889 0 01.356-1.474 2.277 2.277 0 011.039-.929 3.9 3.9 0 011.647-.318h.834a3.792 3.792 0 011.648.328 2.329 2.329 0 011.042.957 2.993 2.993 0 01.359 1.511 2.931 2.931 0 01-.295 1.338zM93.1 235.541a2.412 2.412 0 01-.854.951 3.41 3.41 0 01-1.347.488h-.007v-1.394h.008a1.291 1.291 0 00.851-.438 1.413 1.413 0 00.3-.943 1.261 1.261 0 00-.447-1.035 1.944 1.944 0 00-1.262-.366h-.834a1.93 1.93 0 00-1.254.366 1.261 1.261 0 00-.448 1.035 1.323 1.323 0 00.2.7 1.953 1.953 0 00.574.588v1.272h-5.227V231.7h1.326v3.671h2.236a1.969 1.969 0 01-.328-.581 1.9 1.9 0 01-.117-.656 2.889 2.889 0 01.356-1.474 2.277 2.277 0 011.039-.929 3.9 3.9 0 011.647-.318h.834a3.792 3.792 0 011.648.328 2.329 2.329 0 011.042.957 2.993 2.993 0 01.359 1.511 2.931 2.931 0 01-.295 1.332zM88.357 225.838l.246.007a1.031 1.031 0 01.462.515 2.082 2.082 0 01.147.818 2.194 2.194 0 01-.363 1.251 2.375 2.375 0 01-1.022.838 3.706 3.706 0 01-1.528.3h-.006a3.823 3.823 0 01-1.648-.324 2.293 2.293 0 01-1.039-.951 2.986 2.986 0 01-.355-1.5 2.922 2.922 0 01.362-1.5 2.323 2.323 0 011.053-.946 3.868 3.868 0 011.661-.326h.007a5.191 5.191 0 011.138.137 6.955 6.955 0 011.2.39l.182.082c.061.027.122.057.181.089l4.259 2.119v1.5zm-.861-.066a1.953 1.953 0 00-1.251-.358h-.007a1.857 1.857 0 00-1.217.358 1.42 1.42 0 000 2.038 1.857 1.857 0 001.224.359h.007a1.924 1.924 0 001.247-.359 1.395 1.395 0 000-2.038zM93.1 220.734a2.421 2.421 0 01-.854.952 3.41 3.41 0 01-1.347.488h-.007v-1.4h.008a1.294 1.294 0 00.851-.437 1.416 1.416 0 00.3-.944 1.261 1.261 0 00-.447-1.035 1.944 1.944 0 00-1.258-.358h-.834a1.93 1.93 0 00-1.254.366 1.261 1.261 0 00-.448 1.035 1.326 1.326 0 00.2.7 1.964 1.964 0 00.574.588v1.271h-5.231v-5.07h1.326v3.671h2.236a1.975 1.975 0 01-.328-.582 1.9 1.9 0 01-.117-.656 2.885 2.885 0 01.356-1.473 2.279 2.279 0 011.039-.93 3.9 3.9 0 011.647-.317h.834a3.778 3.778 0 011.648.328 2.323 2.323 0 011.042.957 2.992 2.992 0 01.359 1.51 2.928 2.928 0 01-.295 1.336z"/><path class="cls-7" d="M80.486 335.845l-1.461-1.461" id="LINE-59" data-name="LINE"/><path class="cls-7" d="M81.947 334.384l-1.461 1.461" id="LINE-60" data-name="LINE"/><path class="cls-7" d="M80.486 125.464l1.461 1.461" id="LINE-61" data-name="LINE"/><path class="cls-7" d="M79.025 126.925l1.461-1.461" id="LINE-62" data-name="LINE"/><path class="cls-7" d="M253.793 323.483h139.998" id="LINE-63" data-name="LINE"/><path d="M311.941 319.93l-.636-.305a2.5 2.5 0 01-1.022-.882 3.183 3.183 0 01-.488-1.39h1.421a1.5 1.5 0 00.267.7 1.244 1.244 0 00.53.406 1.992 1.992 0 00.762.134 1.483 1.483 0 001.073-.369 1.378 1.378 0 00.383-1.039v-.3a1.681 1.681 0 00-.362-1.153 1.3 1.3 0 00-1.026-.406h-.7V314h.7a1.164 1.164 0 00.9-.349 1.4 1.4 0 00.321-.984v-.308a1.188 1.188 0 00-.339-.909 1.333 1.333 0 00-.96-.321 1.462 1.462 0 00-.636.133 1.211 1.211 0 00-.474.41 1.853 1.853 0 00-.284.694h-1.415a3.6 3.6 0 01.515-1.394 2.518 2.518 0 01.961-.882 2.855 2.855 0 011.333-.3 2.754 2.754 0 011.989.677 2.519 2.519 0 01.7 1.907v.164a2.148 2.148 0 01-.4 1.3 2.277 2.277 0 01-1.141.807 2.013 2.013 0 011.26.8 2.647 2.647 0 01.449 1.586v.164a3.067 3.067 0 01-.335 1.484 2.212 2.212 0 01-.975.936 3.4 3.4 0 01-1.541.322zM322.742 311.132l-2.571 8.695h-1.483l2.57-8.613h-2.529v1.429h-1.394v-2.755h5.407zM329.79 311.132l-2.571 8.695h-1.483l2.57-8.613h-2.529v1.429h-1.395v-2.755h5.408zM332.424 319.185a2.87 2.87 0 01-.72-2.079v-4.518a2.843 2.843 0 115.674 0v4.518a2.852 2.852 0 01-.725 2.081 3.377 3.377 0 01-4.229 0zm3.207-.968a1.591 1.591 0 00.352-1.111v-4.518a1.6 1.6 0 00-.349-1.111 1.742 1.742 0 00-2.187 0 1.6 1.6 0 00-.349 1.111v4.518a1.591 1.591 0 00.352 1.111 1.733 1.733 0 002.181 0z"/><path class="cls-7" d="M393.791 323.483l-1.462 1.461" id="LINE-64" data-name="LINE"/><path class="cls-7" d="M392.329 322.022l1.462 1.461" id="LINE-65" data-name="LINE"/><path class="cls-7" d="M253.793 323.483l1.461-1.461" id="LINE-66" data-name="LINE"/><path class="cls-7" d="M255.254 324.944l-1.461-1.461" id="LINE-67" data-name="LINE"/><path class="cls-7" d="M267.528 207.527v128.318" id="LINE-68" data-name="LINE"/><path d="M280.437 284.4l-.305.636a2.506 2.506 0 01-.881 1.023 3.208 3.208 0 01-1.391.488v-1.422a1.5 1.5 0 00.7-.267 1.223 1.223 0 00.406-.53 1.992 1.992 0 00.134-.762 1.483 1.483 0 00-.369-1.073 1.378 1.378 0 00-1.039-.383h-.3a1.672 1.672 0 00-1.152.363 1.3 1.3 0 00-.406 1.025v.7H274.5v-.7a1.166 1.166 0 00-.349-.9 1.4 1.4 0 00-.984-.322h-.308a1.19 1.19 0 00-.909.339 1.335 1.335 0 00-.322.96 1.462 1.462 0 00.133.636 1.222 1.222 0 00.41.475 1.884 1.884 0 00.695.284v1.415a3.626 3.626 0 01-1.395-.516 2.534 2.534 0 01-.882-.961 2.855 2.855 0 01-.3-1.333 2.757 2.757 0 01.676-1.989 2.521 2.521 0 011.908-.7h.164a2.151 2.151 0 011.3.4 2.278 2.278 0 01.807 1.142 2.019 2.019 0 01.8-1.261 2.643 2.643 0 011.586-.448h.164a3.054 3.054 0 011.483.335 2.217 2.217 0 01.937.974 3.4 3.4 0 01.321 1.541zM277.6 278.871l-7.2-3.336V274.1l7.116 3.253v-4.874h1.292v6.392zm-3.11-4.286v-1.36h5.851v1.36zM277.6 270.907l-7.2-3.336v-1.435l7.116 3.254v-4.874h1.292v6.391zm-3.11-4.286v-1.36h5.851v1.36zM280.143 261.367a2.412 2.412 0 01-.854.951 3.417 3.417 0 01-1.347.489h-.007v-1.4h.007a1.3 1.3 0 00.851-.437 1.418 1.418 0 00.3-.944 1.259 1.259 0 00-.448-1.035 1.941 1.941 0 00-1.261-.366h-.834a1.933 1.933 0 00-1.25.375 1.264 1.264 0 00-.447 1.035 1.323 1.323 0 00.205.7 1.953 1.953 0 00.574.588v1.272H270.4v-5.066h1.326v3.671h2.236a1.947 1.947 0 01-.328-.581 1.876 1.876 0 01-.117-.656 2.881 2.881 0 01.356-1.474 2.277 2.277 0 011.039-.929 3.9 3.9 0 011.647-.318h.834a3.792 3.792 0 011.648.328 2.339 2.339 0 011.042.957 3 3 0 01.359 1.511 2.944 2.944 0 01-.299 1.329z"/><path class="cls-7" d="M267.528 335.845l-1.461-1.461" id="LINE-69" data-name="LINE"/><path class="cls-7" d="M268.989 334.384l-1.461 1.461" id="LINE-70" data-name="LINE"/><path class="cls-7" d="M267.528 207.684l1.461 1.461" id="LINE-71" data-name="LINE"/><path class="cls-7" d="M266.067 209.145l1.461-1.461" id="LINE-72" data-name="LINE"/><path class="cls-7" d="M403.066 323.483h119.086" id="LINE-73" data-name="LINE"/><path d="M452.006 319.93l-.635-.305a2.5 2.5 0 01-1.023-.882 3.183 3.183 0 01-.488-1.39h1.422a1.514 1.514 0 00.266.7 1.247 1.247 0 00.531.406 1.986 1.986 0 00.761.134 1.485 1.485 0 001.074-.369 1.377 1.377 0 00.382-1.039v-.3a1.681 1.681 0 00-.362-1.153 1.3 1.3 0 00-1.025-.406h-.7V314h.7a1.163 1.163 0 00.9-.349 1.4 1.4 0 00.321-.984v-.308a1.191 1.191 0 00-.338-.909 1.334 1.334 0 00-.96-.321 1.456 1.456 0 00-.636.133 1.207 1.207 0 00-.475.41 1.87 1.87 0 00-.284.694h-1.415a3.615 3.615 0 01.516-1.394 2.518 2.518 0 01.961-.882 2.852 2.852 0 011.333-.3 2.757 2.757 0 011.989.677 2.519 2.519 0 01.7 1.907v.164a2.154 2.154 0 01-.4 1.3 2.284 2.284 0 01-1.142.807 2.018 2.018 0 011.261.8 2.647 2.647 0 01.448 1.586v.164a3.055 3.055 0 01-.335 1.484 2.212 2.212 0 01-.975.936 3.4 3.4 0 01-1.541.322zM460.073 319.827h-1.395V311.4l-1.415.868v-1.442l1.415-.943h1.395zM467.463 311.132l-2.571 8.695h-1.483l2.57-8.613h-2.529v1.429h-1.395v-2.755h5.408zM470.816 319.636a2.422 2.422 0 01-.951-.855 3.411 3.411 0 01-.488-1.346v-.007h1.394v.007a1.288 1.288 0 00.438.85 1.414 1.414 0 00.943.3 1.261 1.261 0 001.035-.448 1.941 1.941 0 00.366-1.261v-.834a1.933 1.933 0 00-.366-1.255 1.261 1.261 0 00-1.035-.447 1.314 1.314 0 00-.7.2 1.941 1.941 0 00-.588.574H469.6v-5.236h5.066v1.326h-3.676v2.235a1.969 1.969 0 01.581-.328 1.9 1.9 0 01.656-.116 2.888 2.888 0 011.474.355 2.277 2.277 0 01.929 1.039 3.9 3.9 0 01.318 1.648v.834a3.791 3.791 0 01-.328 1.647 2.329 2.329 0 01-.957 1.042 2.993 2.993 0 01-1.511.36 2.944 2.944 0 01-1.336-.284z"/><path class="cls-7" d="M522.013 323.483l-1.461 1.461" id="LINE-74" data-name="LINE"/><path class="cls-7" d="M520.552 322.022l1.461 1.461" id="LINE-75" data-name="LINE"/><path class="cls-7" d="M403.066 323.483l1.461-1.461" id="LINE-76" data-name="LINE"/><path class="cls-7" d="M404.527 324.944l-1.461-1.461" id="LINE-77" data-name="LINE"/><path class="cls-7" d="M416.801 218.862v116.983" id="LINE-78" data-name="LINE"/><path d="M429.711 288.415l-.305.636a2.5 2.5 0 01-.882 1.022 3.182 3.182 0 01-1.391.488v-1.421a1.5 1.5 0 00.7-.267 1.244 1.244 0 00.406-.53 1.992 1.992 0 00.134-.762 1.483 1.483 0 00-.369-1.073 1.379 1.379 0 00-1.039-.383h-.3a1.681 1.681 0 00-1.153.362 1.3 1.3 0 00-.406 1.026v.7h-1.326v-.7a1.164 1.164 0 00-.349-.9 1.4 1.4 0 00-.984-.321h-.308a1.188 1.188 0 00-.909.339 1.334 1.334 0 00-.321.96 1.462 1.462 0 00.133.636 1.211 1.211 0 00.41.474 1.846 1.846 0 00.694.284v1.415a3.6 3.6 0 01-1.394-.515 2.518 2.518 0 01-.882-.961 2.855 2.855 0 01-.3-1.333 2.754 2.754 0 01.677-1.989 2.519 2.519 0 011.907-.7h.164a2.148 2.148 0 011.3.4 2.277 2.277 0 01.807 1.141 2.016 2.016 0 01.8-1.26 2.645 2.645 0 011.586-.449h.164a3.069 3.069 0 011.484.335 2.218 2.218 0 01.936.975 3.4 3.4 0 01.322 1.541zM429.608 280.349v1.394h-8.422l.868 1.415h-1.442l-.943-1.415v-1.394zM426.874 278.229l-7.2-3.335v-1.436l7.117 3.254v-4.874h1.292v6.391zm-3.111-4.286v-1.36h5.852v1.36zM429.417 268.689a2.431 2.431 0 01-.855.952 3.41 3.41 0 01-1.347.488h-.006v-1.4h.006a1.287 1.287 0 00.851-.437 1.417 1.417 0 00.305-.944 1.259 1.259 0 00-.449-1.035 1.936 1.936 0 00-1.26-.366h-.834a1.933 1.933 0 00-1.255.366 1.261 1.261 0 00-.447 1.035 1.317 1.317 0 00.205.7 1.953 1.953 0 00.574.588v1.271h-5.236v-5.065H421v3.671h2.235a1.96 1.96 0 01-.328-.581 1.9 1.9 0 01-.116-.657 2.885 2.885 0 01.355-1.473 2.279 2.279 0 011.039-.93 3.9 3.9 0 011.648-.317h.834a3.777 3.777 0 011.647.328 2.323 2.323 0 011.042.957 3 3 0 01.36 1.51 2.941 2.941 0 01-.299 1.339z"/><path class="cls-7" d="M416.801 335.845l-1.461-1.461" id="LINE-79" data-name="LINE"/><path class="cls-7" d="M418.262 334.384l-1.461 1.461" id="LINE-80" data-name="LINE"/><path class="cls-7" d="M416.801 218.862l1.461 1.461" id="LINE-81" data-name="LINE"/><path class="cls-7" d="M415.34 220.323l1.461-1.461" id="LINE-82" data-name="LINE"/><path class="cls-7" d="M519.546 139.511v196.334" id="LINE-83" data-name="LINE"/><path d="M515.7 289.956a2.422 2.422 0 01-.855.951 3.411 3.411 0 01-1.346.488h-.007V290h.007a1.288 1.288 0 00.85-.438 1.414 1.414 0 00.3-.943 1.261 1.261 0 00-.448-1.035 1.941 1.941 0 00-1.261-.366h-.834a1.933 1.933 0 00-1.255.366 1.261 1.261 0 00-.447 1.035 1.314 1.314 0 00.2.7 1.953 1.953 0 00.574.588v1.272h-5.236v-5.066h1.326v3.671h2.235a1.969 1.969 0 01-.328-.581 1.9 1.9 0 01-.116-.656 2.888 2.888 0 01.355-1.474 2.277 2.277 0 011.039-.929 3.9 3.9 0 011.648-.318h.834a3.791 3.791 0 011.647.328 2.329 2.329 0 011.042.957 2.993 2.993 0 01.36 1.511 2.944 2.944 0 01-.284 1.334zM514.683 283.924l-4.621-3.466a3.479 3.479 0 00-.824-.468 2.181 2.181 0 00-.8-.168h-.014a1.205 1.205 0 00-.923.349 1.392 1.392 0 00-.328.991 1.364 1.364 0 00.359.984 1.626 1.626 0 001.015.458h.007v1.443h-.007a3.731 3.731 0 01-1.46-.5 2.551 2.551 0 01-.922-.982 2.923 2.923 0 01-.318-1.387 3.47 3.47 0 01.3-1.518 2.138 2.138 0 01.886-.957 2.8 2.8 0 011.4-.328h.007a3.083 3.083 0 011.1.219 4.7 4.7 0 011.108.608l3.91 2.878v-3.76h1.326v5.606zM513.159 277.088l-7.2-3.336v-1.436l7.116 3.254v-4.87h1.292v6.392zm-3.111-4.286v-1.361h5.852v1.359zM515.251 268.267a2.869 2.869 0 01-2.079.72h-4.518a2.843 2.843 0 110-5.674h4.518a2.856 2.856 0 012.082.725 3.379 3.379 0 010 4.229zm-.968-3.207a1.591 1.591 0 00-1.111-.352h-4.518a1.6 1.6 0 00-1.111.349 1.742 1.742 0 000 2.187 1.6 1.6 0 001.111.349h4.518a1.591 1.591 0 001.111-.352 1.73 1.73 0 000-2.181z"/><path class="cls-7" d="M519.546 335.845l-1.461-1.461" id="LINE-84" data-name="LINE"/><path class="cls-7" d="M521.007 334.384l-1.461 1.461" id="LINE-85" data-name="LINE"/><path class="cls-7" d="M519.546 139.511l1.461 1.461" id="LINE-86" data-name="LINE"/><path class="cls-7" d="M518.085 140.972l1.461-1.461" id="LINE-87" data-name="LINE"/><path class="cls-7" d="M337.863 24.094v123.919" id="LINE-88" data-name="LINE"/><path d="M350.772 98.41l-.305.636a2.5 2.5 0 01-.881 1.022 3.2 3.2 0 01-1.391.489v-1.422a1.5 1.5 0 00.7-.267 1.228 1.228 0 00.406-.53 1.992 1.992 0 00.134-.762 1.483 1.483 0 00-.369-1.073 1.378 1.378 0 00-1.039-.383h-.3a1.677 1.677 0 00-1.152.362 1.3 1.3 0 00-.406 1.026v.7h-1.327v-.7a1.167 1.167 0 00-.348-.9 1.407 1.407 0 00-.985-.321h-.309a1.187 1.187 0 00-.909.339 1.335 1.335 0 00-.322.96 1.462 1.462 0 00.133.636 1.219 1.219 0 00.41.474 1.868 1.868 0 00.695.285v1.415a3.626 3.626 0 01-1.395-.516 2.526 2.526 0 01-.882-.961 2.855 2.855 0 01-.3-1.333 2.755 2.755 0 01.676-1.989 2.519 2.519 0 011.908-.7h.164a2.145 2.145 0 011.3.4 2.269 2.269 0 01.807 1.142 2.019 2.019 0 01.8-1.261 2.643 2.643 0 011.586-.448h.164a3.054 3.054 0 011.483.335 2.212 2.212 0 01.937.974 3.4 3.4 0 01.321 1.541zM349.46 92.894l-4.622-3.466a3.426 3.426 0 00-.824-.468 2.181 2.181 0 00-.8-.168h-.013a1.2 1.2 0 00-.923.349 1.388 1.388 0 00-.328.991 1.368 1.368 0 00.358.984 1.631 1.631 0 001.016.458h.007v1.443h-.007a3.72 3.72 0 01-1.46-.5 2.554 2.554 0 01-.923-.982 2.924 2.924 0 01-.317-1.388 3.469 3.469 0 01.3-1.517 2.138 2.138 0 01.886-.957 2.8 2.8 0 011.4-.328h.007a3.108 3.108 0 011.1.218 4.713 4.713 0 011.107.609l3.91 2.878v-3.76h1.327v5.606zM350.43 84.185a2.5 2.5 0 01-.967 1.056 2.79 2.79 0 01-1.453.372h-.164a2.793 2.793 0 01-1.4-.372 2.483 2.483 0 01-.991-1 2.188 2.188 0 01-.831.845 2.244 2.244 0 01-1.145.317h-.239a2.651 2.651 0 01-1.371-.348 2.371 2.371 0 01-.916-.985 3.526 3.526 0 010-2.953 2.362 2.362 0 01.916-.984 2.642 2.642 0 011.371-.349h.239a2.2 2.2 0 011.155.325 2.168 2.168 0 01.821.858 2.567 2.567 0 01.994-1.008 2.726 2.726 0 011.4-.38h.164a2.79 2.79 0 011.453.372 2.5 2.5 0 01.967 1.057 3.848 3.848 0 010 3.172zm-5.671-2.325a1.251 1.251 0 00-.515-.5 1.635 1.635 0 00-.773-.177h-.1a1.5 1.5 0 00-.739.177 1.222 1.222 0 00-.5.5 1.654 1.654 0 000 1.477 1.222 1.222 0 00.5.5 1.517 1.517 0 00.745.178h.1a1.593 1.593 0 00.762-.178 1.25 1.25 0 00.512-.5 1.589 1.589 0 000-1.477zm4.482-.116a1.39 1.39 0 00-.537-.571 1.551 1.551 0 00-.8-.2h-.1a1.571 1.571 0 00-.8.2 1.388 1.388 0 00-.536.571 2.007 2.007 0 000 1.709 1.372 1.372 0 00.54.571 1.588 1.588 0 00.807.2h.1a1.536 1.536 0 00.793-.2 1.362 1.362 0 00.53-.571 2.021 2.021 0 000-1.709zM350.027 76.915a2.867 2.867 0 01-2.078.721h-4.519a2.856 2.856 0 01-2.082-.725 3.391 3.391 0 010-4.228 2.859 2.859 0 012.085-.721h4.519a2.853 2.853 0 012.081.724 3.379 3.379 0 010 4.229zm-.968-3.207a1.6 1.6 0 00-1.11-.352h-4.519a1.607 1.607 0 00-1.111.349 1.743 1.743 0 000 2.188 1.607 1.607 0 001.111.348h4.519a1.6 1.6 0 001.11-.351 1.731 1.731 0 000-2.182z"/><path class="cls-7" d="M337.863 148.013l-1.461-1.461" id="LINE-89" data-name="LINE"/><path class="cls-7" d="M339.324 146.552l-1.461 1.461" id="LINE-90" data-name="LINE"/><path class="cls-7" d="M337.863 24.198l1.461 1.461" id="LINE-91" data-name="LINE"/><path class="cls-7" d="M336.402 25.659l1.461-1.461" id="LINE-92" data-name="LINE"/><path class="cls-7" d="M331.213 148.013h9.792"/><path class="cls-7" d="M229.984 336V204.503" id="LINE-93" data-name="LINE"/><path d="M226.889 282.8l-.3.636a2.52 2.52 0 01-.882 1.022 3.182 3.182 0 01-1.391.488v-1.422a1.5 1.5 0 00.7-.266 1.244 1.244 0 00.407-.53 1.992 1.992 0 00.133-.762 1.483 1.483 0 00-.369-1.073 1.376 1.376 0 00-1.039-.383h-.3a1.678 1.678 0 00-1.152.362 1.3 1.3 0 00-.406 1.026v.7h-1.326v-.7a1.168 1.168 0 00-.349-.9 1.4 1.4 0 00-.984-.321h-.308a1.187 1.187 0 00-.909.339 1.333 1.333 0 00-.321.96 1.469 1.469 0 00.132.635 1.21 1.21 0 00.411.475 1.846 1.846 0 00.694.284v1.415a3.626 3.626 0 01-1.4-.515 2.53 2.53 0 01-.881-.961 2.843 2.843 0 01-.3-1.333 2.758 2.758 0 01.676-1.99 2.525 2.525 0 011.908-.7h.164a2.15 2.15 0 011.3.4 2.275 2.275 0 01.806 1.141 2.014 2.014 0 01.8-1.26 2.643 2.643 0 011.586-.449h.164a3.065 3.065 0 011.483.335 2.214 2.214 0 01.937.975 3.4 3.4 0 01.321 1.541zM226.6 275.688a2.421 2.421 0 01-.854.952 3.41 3.41 0 01-1.347.488h-.007v-1.395h.007a1.29 1.29 0 00.851-.437 1.415 1.415 0 00.3-.943 1.261 1.261 0 00-.448-1.036 1.941 1.941 0 00-1.261-.366h-.834a1.928 1.928 0 00-1.254.366 1.264 1.264 0 00-.448 1.036 1.325 1.325 0 00.2.7 1.968 1.968 0 00.575.588v1.271h-5.237v-5.065h1.326v3.671h2.236a1.96 1.96 0 01-.328-.581 1.9 1.9 0 01-.117-.657 2.885 2.885 0 01.356-1.473 2.274 2.274 0 011.039-.93 3.9 3.9 0 011.647-.317h.834a3.778 3.778 0 011.648.328 2.323 2.323 0 011.042.957 3 3 0 01.359 1.511 2.927 2.927 0 01-.285 1.332zM224.052 269.643l-7.2-3.336v-1.436l7.116 3.254v-4.874h1.292v6.392zm-3.11-4.287V264h5.852v1.36zM226.6 260.1a2.418 2.418 0 01-.854.951 3.41 3.41 0 01-1.347.488h-.007v-1.395h.007a1.29 1.29 0 00.851-.437 1.415 1.415 0 00.3-.943 1.261 1.261 0 00-.448-1.036 1.941 1.941 0 00-1.261-.366h-.834a1.928 1.928 0 00-1.254.366 1.264 1.264 0 00-.448 1.036 1.325 1.325 0 00.2.7 1.968 1.968 0 00.575.588v1.271h-5.237v-5.065h1.326v3.671h2.236a1.96 1.96 0 01-.328-.581 1.9 1.9 0 01-.117-.657 2.885 2.885 0 01.356-1.473 2.279 2.279 0 011.039-.93 3.9 3.9 0 011.647-.317h.834a3.778 3.778 0 011.648.328 2.329 2.329 0 011.042.957 3 3 0 01.359 1.511 2.931 2.931 0 01-.285 1.333z"/><path class="cls-7" d="M229.984 204.503l1.461 1.462" id="LINE-94" data-name="LINE"/><path class="cls-7" d="M228.523 205.965l1.461-1.462" id="LINE-95" data-name="LINE"/><path class="cls-7" d="M229.984 336l-1.461-1.461" id="LINE-96" data-name="LINE"/><path class="cls-7" d="M231.445 334.539L229.984 336" id="LINE-97" data-name="LINE"/><path class="cls-7" d="M226.673 204.503h17.197"/><path class="cls-7" d="M258.338 204.503v-56.49" id="LINE-98" data-name="LINE"/><path d="M270.786 186.478v1.395h-8.422l.868 1.415h-1.442l-.944-1.415v-1.395zM268.051 184.359l-7.2-3.336v-1.435l7.116 3.254v-4.874h1.292v6.391zm-3.11-4.286v-1.36h5.852v1.36zM262.09 171.125l8.7 2.57v1.484l-8.614-2.571v2.53h1.424v1.394h-2.755v-5.407zM270.594 167.771a2.406 2.406 0 01-.854.952 3.4 3.4 0 01-1.347.488h-.007v-1.4h.007a1.292 1.292 0 00.852-.437 1.42 1.42 0 00.3-.943 1.263 1.263 0 00-.447-1.036 1.944 1.944 0 00-1.262-.366h-.834a1.925 1.925 0 00-1.253.366 1.261 1.261 0 00-.449 1.036 1.325 1.325 0 00.2.7 1.968 1.968 0 00.575.588v1.271h-5.237v-5.065h1.326v3.675h2.236a2 2 0 01-.328-.581 1.928 1.928 0 01-.117-.657 2.9 2.9 0 01.356-1.473 2.284 2.284 0 011.039-.93 3.9 3.9 0 011.647-.317h.834a3.775 3.775 0 011.648.328 2.32 2.32 0 011.043.957 3 3 0 01.358 1.511 2.914 2.914 0 01-.286 1.333z"/><path class="cls-7" d="M258.338 148.013l1.462 1.462" id="LINE-99" data-name="LINE"/><path class="cls-7" d="M256.877 149.475l1.461-1.462" id="LINE-100" data-name="LINE"/><path class="cls-7" d="M258.327 204.503l-1.462-1.461" id="LINE-101" data-name="LINE"/><path class="cls-7" d="M259.788 203.042l-1.461 1.461" id="LINE-102" data-name="LINE"/><path class="cls-7" d="M464.082 215.839v-76.328" id="LINE-103" data-name="LINE"/><path d="M475.32 192l-4.621-3.466a3.479 3.479 0 00-.824-.468 2.185 2.185 0 00-.8-.168h-.014a1.209 1.209 0 00-.923.349 1.388 1.388 0 00-.328.991 1.37 1.37 0 00.358.985 1.637 1.637 0 001.016.458h.007v1.442h-.007a3.726 3.726 0 01-1.46-.5 2.566 2.566 0 01-.923-.981 2.929 2.929 0 01-.317-1.388 3.456 3.456 0 01.3-1.518 2.141 2.141 0 01.885-.957 2.806 2.806 0 011.4-.328h.007a3.087 3.087 0 011.1.219 4.7 4.7 0 011.108.608l3.91 2.878V186.4h1.326v5.6zM475.887 183.9a2.862 2.862 0 01-2.078.721h-4.518a2.85 2.85 0 01-2.082-.725 3.388 3.388 0 010-4.228 2.856 2.856 0 012.085-.721h4.518a2.559 2.559 0 012.823 2.837 2.816 2.816 0 01-.748 2.116zm-.967-3.207a1.6 1.6 0 00-1.111-.351h-4.518a1.608 1.608 0 00-1.112.348 1.747 1.747 0 000 2.188 1.608 1.608 0 001.112.349h4.518a1.6 1.6 0 001.111-.352 1.735 1.735 0 000-2.182zM475.887 176.175a2.866 2.866 0 01-2.078.72h-4.518a2.854 2.854 0 01-2.082-.724 3.389 3.389 0 010-4.229 2.86 2.86 0 012.085-.72h4.518a2.558 2.558 0 012.823 2.837 2.819 2.819 0 01-.748 2.116zm-.967-3.207a1.591 1.591 0 00-1.111-.352h-4.518a1.6 1.6 0 00-1.112.349 1.745 1.745 0 000 2.187 1.6 1.6 0 001.112.349h4.518a1.591 1.591 0 001.111-.352 1.733 1.733 0 000-2.181zM475.887 168.45a2.862 2.862 0 01-2.078.721h-4.518a2.85 2.85 0 01-2.082-.725 3.388 3.388 0 010-4.228 2.856 2.856 0 012.085-.721h4.518a2.559 2.559 0 012.823 2.837 2.816 2.816 0 01-.748 2.116zm-.967-3.207a1.6 1.6 0 00-1.111-.351h-4.518a1.608 1.608 0 00-1.112.348 1.747 1.747 0 000 2.188 1.608 1.608 0 001.112.348h4.518a1.6 1.6 0 001.111-.351 1.735 1.735 0 000-2.182z"/><path class="cls-7" d="M464.082 139.561l1.462 1.461" id="LINE-104" data-name="LINE"/><path class="cls-7" d="M462.621 141.022l1.461-1.461" id="LINE-105" data-name="LINE"/><path class="cls-7" d="M464.071 215.839l-1.462-1.461" id="LINE-106" data-name="LINE"/><path class="cls-7" d="M465.532 214.378l-1.461 1.461" id="LINE-107" data-name="LINE"/><path class="cls-7" d="M330.272 204.503v-56.49" id="LINE-108" data-name="LINE"/><path d="M342.719 186.478v1.395H334.3l.869 1.415h-1.443l-.943-1.415v-1.395zM339.985 184.359l-7.2-3.336v-1.435l7.116 3.254v-4.874h1.299v6.391zm-3.11-4.286v-1.36h5.851v1.36zM334.024 171.125l8.695 2.57v1.484l-8.613-2.571v2.53h1.429v1.394h-2.755v-5.407zM342.528 167.771a2.424 2.424 0 01-.855.952 3.411 3.411 0 01-1.346.488h-.007v-1.4h.007a1.287 1.287 0 00.85-.437 1.416 1.416 0 00.305-.943 1.261 1.261 0 00-.448-1.036 1.941 1.941 0 00-1.261-.366h-.834a1.933 1.933 0 00-1.255.366 1.263 1.263 0 00-.447 1.036 1.316 1.316 0 00.2.7 1.964 1.964 0 00.574.588v1.271h-5.231v-5.065h1.326v3.675h2.235a1.982 1.982 0 01-.328-.581 1.9 1.9 0 01-.116-.657 2.875 2.875 0 01.356-1.473 2.274 2.274 0 011.039-.93 3.893 3.893 0 011.647-.317h.834a3.781 3.781 0 011.648.328 2.328 2.328 0 011.042.957 3 3 0 01.359 1.511 2.94 2.94 0 01-.294 1.333z"/><path class="cls-7" d="M330.271 148.013l1.462 1.462" id="LINE-109" data-name="LINE"/><path class="cls-7" d="M328.81 149.475l1.461-1.462" id="LINE-110" data-name="LINE"/><path class="cls-7" d="M330.26 204.503l-1.462-1.461" id="LINE-111" data-name="LINE"/><path class="cls-7" d="M331.721 203.042l-1.461 1.461" id="LINE-112" data-name="LINE"/><path class="cls-7" d="M410.963 136.488V86.232" id="LINE-113" data-name="LINE"/><path d="M407.817 120.072v1.395H399.4l.868 1.415h-1.442l-.943-1.415v-1.395zM407.92 116.08l-.305.636a2.5 2.5 0 01-.882 1.022 3.2 3.2 0 01-1.391.489v-1.422a1.5 1.5 0 00.7-.267 1.244 1.244 0 00.406-.53 1.992 1.992 0 00.134-.762 1.483 1.483 0 00-.369-1.073 1.38 1.38 0 00-1.04-.383h-.3a1.681 1.681 0 00-1.153.362 1.306 1.306 0 00-.406 1.026v.7h-1.326v-.7a1.164 1.164 0 00-.349-.9 1.4 1.4 0 00-.984-.321h-.308a1.188 1.188 0 00-.909.339 1.334 1.334 0 00-.321.96 1.462 1.462 0 00.133.636 1.211 1.211 0 00.41.474 1.846 1.846 0 00.694.284v1.415a3.6 3.6 0 01-1.394-.515 2.518 2.518 0 01-.882-.961 2.855 2.855 0 01-.3-1.333 2.754 2.754 0 01.677-1.989 2.519 2.519 0 011.907-.7h.164a2.148 2.148 0 011.3.4 2.277 2.277 0 01.807 1.141 2.016 2.016 0 01.8-1.26 2.645 2.645 0 011.586-.449h.164a3.069 3.069 0 011.484.335 2.218 2.218 0 01.936.975 3.4 3.4 0 01.322 1.541zM407.817 108.014v1.394H399.4l.868 1.415h-1.442l-.943-1.415v-1.394zM407.626 104.318a2.422 2.422 0 01-.855.951 3.4 3.4 0 01-1.347.489h-.006v-1.395h.006a1.292 1.292 0 00.851-.437 1.417 1.417 0 00.305-.944 1.259 1.259 0 00-.449-1.035 1.936 1.936 0 00-1.26-.366h-.834a1.933 1.933 0 00-1.255.366 1.261 1.261 0 00-.447 1.035 1.317 1.317 0 00.205.7 1.953 1.953 0 00.574.588v1.271h-5.236v-5.065h1.322v3.67h2.235a1.935 1.935 0 01-.328-.581 1.894 1.894 0 01-.116-.656 2.885 2.885 0 01.355-1.473 2.279 2.279 0 011.039-.93 3.9 3.9 0 011.648-.318h.834a3.776 3.776 0 011.647.329 2.323 2.323 0 011.042.957 3 3 0 01.36 1.51 2.941 2.941 0 01-.29 1.334z"/><path class="cls-7" d="M410.963 86.232l1.462 1.461" id="LINE-114" data-name="LINE"/><path class="cls-7" d="M409.502 87.693l1.461-1.461" id="LINE-115" data-name="LINE"/><path class="cls-7" d="M410.952 136.488l-1.462-1.461" id="LINE-116" data-name="LINE"/><path class="cls-7" d="M412.413 135.027l-1.461 1.461" id="LINE-117" data-name="LINE"/><path class="cls-7" d="M485.423 101.344h36.729" id="LINE-118" data-name="LINE"/><path d="M497.067 108.762l-.007.246a1.026 1.026 0 01-.515.462 2.082 2.082 0 01-.818.147 2.194 2.194 0 01-1.251-.363 2.375 2.375 0 01-.838-1.022 3.7 3.7 0 01-.3-1.527v-.005a3.823 3.823 0 01.325-1.648 2.288 2.288 0 01.951-1.039 2.986 2.986 0 011.5-.355 2.922 2.922 0 011.5.362 2.323 2.323 0 01.946 1.053 3.869 3.869 0 01.325 1.661v.007a5.241 5.241 0 01-.136 1.138 6.993 6.993 0 01-.39 1.2l-.082.181a2.335 2.335 0 01-.089.181l-2.119 4.259h-1.5zm.065-.861a1.947 1.947 0 00.359-1.251v-.007a1.852 1.852 0 00-.359-1.217 1.421 1.421 0 00-2.037 0 1.857 1.857 0 00-.359 1.224v.007a1.924 1.924 0 00.359 1.247 1.393 1.393 0 002.037 0zM502.171 113.506a2.407 2.407 0 01-.952-.854 3.41 3.41 0 01-.488-1.347v-.005h1.395v.007a1.287 1.287 0 00.437.851 1.415 1.415 0 00.943.3 1.263 1.263 0 001.036-.447 1.944 1.944 0 00.366-1.262v-.834a1.93 1.93 0 00-.366-1.254 1.264 1.264 0 00-1.036-.448 1.325 1.325 0 00-.7.2 1.968 1.968 0 00-.588.575h-1.268v-5.237h5.065v1.326h-3.671v2.236a1.982 1.982 0 01.581-.328 1.9 1.9 0 01.657-.117 2.885 2.885 0 011.473.356 2.279 2.279 0 01.93 1.039 3.9 3.9 0 01.317 1.647v.834a3.778 3.778 0 01-.328 1.648 2.329 2.329 0 01-.957 1.042 2.993 2.993 0 01-1.511.359 2.924 2.924 0 01-1.335-.287zM509.074 113.055a2.861 2.861 0 01-.721-2.078v-4.519a2.849 2.849 0 01.725-2.081 3.388 3.388 0 014.228 0 2.857 2.857 0 01.721 2.084v4.519a2.852 2.852 0 01-.725 2.082 3.379 3.379 0 01-4.228 0zm3.207-.967a1.6 1.6 0 00.351-1.111v-4.519a1.6 1.6 0 00-.348-1.11 1.74 1.74 0 00-2.188 0 1.6 1.6 0 00-.348 1.11v4.519a1.6 1.6 0 00.351 1.111 1.735 1.735 0 002.182 0z"/><path class="cls-7" d="M522.152 101.344l-1.461 1.461" id="LINE-119" data-name="LINE"/><path class="cls-7" d="M520.691 99.883l1.461 1.461" id="LINE-120" data-name="LINE"/><path class="cls-7" d="M485.423 101.332l1.461-1.461" id="LINE-121" data-name="LINE"/><path class="cls-7" d="M486.884 102.793l-1.461-1.461" id="LINE-122" data-name="LINE"/><path class="cls-7" d="M485.423 94.922v9.178"/><path class="cls-7" d="M380.831 225.316v-18.177" id="LINE-123" data-name="LINE"/><path class="cls-7" d="M348.939 225.316v-18.443" id="LINE-124" data-name="LINE"/><path class="cls-7" d="M348.939 225.317h31.892" id="LINE-125" data-name="LINE"/><path d="M357.977 232.52l-.007.247a1.029 1.029 0 01-.515.461 2.082 2.082 0 01-.818.147 2.2 2.2 0 01-1.251-.362 2.381 2.381 0 01-.838-1.022 3.709 3.709 0 01-.3-1.528v-.007a3.815 3.815 0 01.324-1.647 2.291 2.291 0 01.951-1.04 3 3 0 011.5-.355 2.932 2.932 0 011.5.362 2.323 2.323 0 01.946 1.053 3.871 3.871 0 01.326 1.661v.007a5.177 5.177 0 01-.137 1.138 6.965 6.965 0 01-.39 1.2l-.082.181a2.527 2.527 0 01-.089.181l-2.119 4.259h-1.5zm.066-.861a1.949 1.949 0 00.358-1.251v-.008a1.854 1.854 0 00-.358-1.216 1.42 1.42 0 00-2.038 0 1.854 1.854 0 00-.359 1.223v.007a1.925 1.925 0 00.359 1.248 1.4 1.4 0 002.038 0zM362.362 236.813a2.861 2.861 0 01-.721-2.078v-4.518a2.852 2.852 0 01.725-2.082 3.391 3.391 0 014.228 0 2.858 2.858 0 01.721 2.085v4.518a2.559 2.559 0 01-2.837 2.824 2.812 2.812 0 01-2.116-.749zm3.207-.967a1.6 1.6 0 00.352-1.111v-4.518a1.605 1.605 0 00-.349-1.111 1.743 1.743 0 00-2.188 0 1.6 1.6 0 00-.348 1.111v4.518a1.6 1.6 0 00.351 1.111 1.735 1.735 0 002.182 0zM370.087 236.813a2.861 2.861 0 01-.721-2.078v-4.518a2.856 2.856 0 01.724-2.082 3.393 3.393 0 014.229 0 2.862 2.862 0 01.721 2.085v4.518a2.856 2.856 0 01-.725 2.082 3.375 3.375 0 01-4.228 0zm3.207-.967a1.6 1.6 0 00.351-1.111v-4.518a1.6 1.6 0 00-.349-1.111 1.742 1.742 0 00-2.187 0 1.605 1.605 0 00-.349 1.111v4.518a1.6 1.6 0 00.352 1.111 1.735 1.735 0 002.182 0z"/><path class="cls-7" d="M380.831 225.317l-1.462 1.461" id="LINE-126" data-name="LINE"/><path class="cls-7" d="M379.369 223.856l1.462 1.461" id="LINE-127" data-name="LINE"/><path class="cls-7" d="M348.939 225.325l1.461-1.461" id="LINE-128" data-name="LINE"/><path class="cls-7" d="M350.4 226.787l-1.461-1.462" id="LINE-129" data-name="LINE"/><path class="cls-7" d="M413.99 47.837h-17.421" id="LINE-130" data-name="LINE"/><path class="cls-7" d="M413.99 75.896h-17.676" id="LINE-131" data-name="LINE"/><path class="cls-7" d="M413.991 75.896v-28.06" id="LINE-132" data-name="LINE"/><path d="M424.51 71.258a2.491 2.491 0 01-.966 1.056 2.791 2.791 0 01-1.454.372h-.164a2.8 2.8 0 01-1.4-.372 2.5 2.5 0 01-.991-.995 2.186 2.186 0 01-.83.845 2.244 2.244 0 01-1.146.317h-.239a2.645 2.645 0 01-1.37-.348 2.358 2.358 0 01-.916-.985 3.516 3.516 0 010-2.953 2.35 2.35 0 01.916-.984 2.636 2.636 0 011.37-.349h.239a2.206 2.206 0 011.155.325 2.154 2.154 0 01.821.858 2.569 2.569 0 011-1.008 2.722 2.722 0 011.4-.38h.164a2.791 2.791 0 011.454.372 2.494 2.494 0 01.966 1.057 3.848 3.848 0 010 3.172zm-5.67-2.324a1.254 1.254 0 00-.516-.5 1.618 1.618 0 00-.773-.178h-.095a1.5 1.5 0 00-.739.178 1.232 1.232 0 00-.5.5 1.644 1.644 0 000 1.476 1.232 1.232 0 00.5.5 1.524 1.524 0 00.746.178h.1a1.6 1.6 0 00.763-.178 1.262 1.262 0 00.512-.5 1.6 1.6 0 000-1.476zm4.481-.117a1.388 1.388 0 00-.536-.571 1.558 1.558 0 00-.8-.2h-.1a1.57 1.57 0 00-.8.2 1.39 1.39 0 00-.537.571 2.007 2.007 0 000 1.709 1.387 1.387 0 00.54.572 1.6 1.6 0 00.807.2h.1a1.547 1.547 0 00.793-.2 1.377 1.377 0 00.53-.572 1.861 1.861 0 00.187-.854 1.829 1.829 0 00-.184-.855zM424.107 63.988a2.861 2.861 0 01-2.078.721h-4.519a2.849 2.849 0 01-2.081-.725 3.39 3.39 0 010-4.228 2.861 2.861 0 012.085-.721h4.519a2.852 2.852 0 012.082.725 3.379 3.379 0 010 4.228zm-.967-3.207a1.6 1.6 0 00-1.111-.351h-4.519a1.6 1.6 0 00-1.11.348 1.74 1.74 0 000 2.188 1.6 1.6 0 001.11.348h4.519a1.6 1.6 0 001.111-.351 1.735 1.735 0 000-2.182zM424.107 56.264a2.865 2.865 0 01-2.078.72h-4.519a2.853 2.853 0 01-2.081-.724 3.391 3.391 0 010-4.229 2.864 2.864 0 012.085-.72h4.519a2.856 2.856 0 012.082.724 3.38 3.38 0 010 4.229zm-.967-3.207a1.593 1.593 0 00-1.111-.352h-4.519a1.6 1.6 0 00-1.11.349 1.738 1.738 0 000 2.187 1.6 1.6 0 001.11.349h4.519a1.593 1.593 0 001.111-.352 1.733 1.733 0 000-2.181z"/><path class="cls-7" d="M413.99 47.768l1.461 1.461" id="LINE-133" data-name="LINE"/><path class="cls-7" d="M412.529 49.229l1.461-1.461" id="LINE-134" data-name="LINE"/><path class="cls-7" d="M413.999 75.896l-1.461-1.461" id="LINE-135" data-name="LINE"/><path class="cls-7" d="M415.46 74.435l-1.461 1.461" id="LINE-136" data-name="LINE"/><path class="cls-7" d="M413.029 160.266h-15.981" id="LINE-137" data-name="LINE"/><path class="cls-7" d="M413.029 192.158h-16.215" id="LINE-138" data-name="LINE"/><path class="cls-7" d="M413.029 192.158v-31.892" id="LINE-139" data-name="LINE"/><path d="M420.509 182.983l.246.007a1.024 1.024 0 01.462.516 2.077 2.077 0 01.147.817 2.189 2.189 0 01-.362 1.251 2.367 2.367 0 01-1.022.838 3.706 3.706 0 01-1.528.3h-.007a3.826 3.826 0 01-1.648-.324 2.3 2.3 0 01-1.039-.951 3 3 0 01-.355-1.5 2.939 2.939 0 01.362-1.5 2.328 2.328 0 011.053-.946 3.875 3.875 0 011.661-.325h.007a5.2 5.2 0 011.139.137 6.978 6.978 0 011.2.389c.059.028.12.055.181.082s.123.057.181.089l4.259 2.119v1.5zm-.861-.065a1.949 1.949 0 00-1.251-.358h-.007a1.861 1.861 0 00-1.217.358 1.421 1.421 0 000 2.037 1.861 1.861 0 001.224.359h.007a1.925 1.925 0 001.248-.359 1.394 1.394 0 000-2.037zM424.8 178.6a2.865 2.865 0 01-2.078.72h-4.518a2.843 2.843 0 110-5.674h4.518a2.854 2.854 0 012.082.725 3.38 3.38 0 010 4.229zm-.966-3.207a1.594 1.594 0 00-1.112-.352h-4.518a1.6 1.6 0 00-1.111.349 1.742 1.742 0 000 2.187 1.6 1.6 0 001.111.349h4.518a1.594 1.594 0 001.112-.352 1.737 1.737 0 000-2.181zM424.8 170.874a2.865 2.865 0 01-2.078.721h-4.518a2.852 2.852 0 01-2.081-.725 3.386 3.386 0 010-4.228 2.858 2.858 0 012.085-.721h4.518a2.557 2.557 0 012.823 2.837 2.814 2.814 0 01-.749 2.116zm-.966-3.207a1.6 1.6 0 00-1.112-.352h-4.518a1.605 1.605 0 00-1.111.349 1.743 1.743 0 000 2.188 1.6 1.6 0 001.111.348h4.518a1.6 1.6 0 001.112-.351 1.738 1.738 0 000-2.182z"/><path class="cls-7" d="M413.029 160.33l1.461 1.461" id="LINE-140" data-name="LINE"/><path class="cls-7" d="M411.568 161.791l1.461-1.461" id="LINE-141" data-name="LINE"/><path class="cls-7" d="M413.037 192.158l-1.461-1.461" id="LINE-142" data-name="LINE"/><path class="cls-7" d="M414.499 190.697l-1.462 1.461" id="LINE-143" data-name="LINE"/><path class="cls-7" d="M505.072 379.428v-19.604" id="LINE-144" data-name="LINE"/><path class="cls-7" d="M421.941 379.466v-19.604" id="LINE-145" data-name="LINE"/><path class="cls-7" d="M421.941 379.464l83.131-.057" id="LINE-146" data-name="LINE"/><path d="M450.983 391.539l3.466-4.621a3.474 3.474 0 00.468-.823 2.19 2.19 0 00.168-.8v-.014a1.209 1.209 0 00-.349-.923 1.394 1.394 0 00-.991-.328 1.366 1.366 0 00-.985.36 1.628 1.628 0 00-.458 1.014v.007h-1.442v-.007a3.732 3.732 0 01.5-1.459 2.566 2.566 0 01.981-.923 2.93 2.93 0 011.388-.318 3.456 3.456 0 011.518.305 2.139 2.139 0 01.957.884 2.82 2.82 0 01.328 1.4v.007a3.083 3.083 0 01-.219 1.1 4.734 4.734 0 01-.608 1.108l-2.878 3.91h3.759v1.326h-5.605zM460.765 392.749h-1.394v-8.422l-1.415.868v-1.442l1.415-.943h1.394zM464.088 392.5a2.289 2.289 0 01-.948-1.025 3.724 3.724 0 01-.324-1.624v-.007a5.545 5.545 0 01.13-1.162 6.8 6.8 0 01.376-1.2c.027-.068.057-.135.089-.2l.095-.195 2.161-4.279h1.5l-2.537 4.956.007-.247a1.212 1.212 0 01.5-.5 1.59 1.59 0 01.766-.177 2.44 2.44 0 011.326.348 2.19 2.19 0 01.841 1.016 4.047 4.047 0 01.287 1.6v.006a3.785 3.785 0 01-.325 1.641 2.285 2.285 0 01-.949 1.039 3.351 3.351 0 01-3 0zm2.519-1.4a1.73 1.73 0 00.358-1.169v-.007a1.964 1.964 0 00-.376-1.288 1.311 1.311 0 00-1.073-.455 1.133 1.133 0 00-.964.458 2.131 2.131 0 00-.341 1.292v.006a1.7 1.7 0 00.359 1.166 1.474 1.474 0 002.037 0zM470.926 392.106a2.865 2.865 0 01-.72-2.078v-4.518a2.843 2.843 0 115.674 0v4.518a2.559 2.559 0 01-2.837 2.824 2.816 2.816 0 01-2.117-.746zm3.207-.966a1.594 1.594 0 00.352-1.112v-4.518a1.6 1.6 0 00-.349-1.111 1.742 1.742 0 00-2.187 0 1.6 1.6 0 00-.349 1.111v4.518a1.594 1.594 0 00.352 1.112 1.737 1.737 0 002.181 0z"/><path class="cls-7" d="M505.071 379.404l-1.461 1.461" id="LINE-147" data-name="LINE"/><path class="cls-7" d="M503.61 377.943l1.461 1.461" id="LINE-148" data-name="LINE"/><path class="cls-7" d="M421.941 379.466l1.461-1.461" id="LINE-149" data-name="LINE"/><path class="cls-7" d="M423.402 380.927l-1.461-1.461" id="LINE-150" data-name="LINE"/><path class="cls-7" d="M310.36 379.428v-19.604" id="LINE-151" data-name="LINE"/><path class="cls-7" d="M217.783 379.466v-19.604" id="LINE-152" data-name="LINE"/><path class="cls-7" d="M217.783 379.467l92.577-.063" id="LINE-153" data-name="LINE"/><path d="M250.1 391.539l3.466-4.621a3.439 3.439 0 00.468-.823 2.19 2.19 0 00.168-.8v-.014a1.205 1.205 0 00-.349-.923 1.392 1.392 0 00-.991-.328 1.365 1.365 0 00-.984.36 1.623 1.623 0 00-.458 1.014v.007h-1.443v-.007a3.732 3.732 0 01.5-1.459 2.562 2.562 0 01.982-.923 2.923 2.923 0 011.387-.318 3.456 3.456 0 011.518.305 2.139 2.139 0 01.957.884 2.809 2.809 0 01.328 1.4v.007a3.083 3.083 0 01-.219 1.1 4.7 4.7 0 01-.608 1.108l-2.878 3.91h3.76v1.326H250.1zM256.934 390.015l3.336-7.2h1.436l-3.254 7.117h4.874v1.292h-6.392zm4.286-3.111h1.361v5.852h-1.361zM268.555 387.813l-.007.247a1.029 1.029 0 01-.515.461 2.082 2.082 0 01-.818.147 2.193 2.193 0 01-1.251-.362 2.372 2.372 0 01-.837-1.022 3.69 3.69 0 01-.3-1.528v-.007a3.818 3.818 0 01.324-1.647 2.3 2.3 0 01.951-1.04 3 3 0 011.5-.355 2.932 2.932 0 011.5.362 2.323 2.323 0 01.946 1.053 3.875 3.875 0 01.326 1.661v.007a5.2 5.2 0 01-.137 1.139 6.983 6.983 0 01-.39 1.2l-.082.182a2 2 0 01-.089.18l-2.119 4.259h-1.5zm.066-.861a1.949 1.949 0 00.358-1.251v-.007a1.856 1.856 0 00-.358-1.216 1.419 1.419 0 00-2.037 0 1.851 1.851 0 00-.36 1.223v.007a1.919 1.919 0 00.36 1.248 1.394 1.394 0 002.037 0zM272.94 392.106a2.865 2.865 0 01-.721-2.078v-4.518a2.852 2.852 0 01.725-2.081 3.386 3.386 0 014.228 0 2.858 2.858 0 01.721 2.085v4.518a2.558 2.558 0 01-2.837 2.824 2.814 2.814 0 01-2.116-.75zm3.207-.966a1.6 1.6 0 00.352-1.112v-4.518a1.605 1.605 0 00-.349-1.111 1.742 1.742 0 00-2.187 0 1.6 1.6 0 00-.349 1.111v4.518a1.6 1.6 0 00.351 1.112 1.738 1.738 0 002.182 0z"/><path class="cls-7" d="M310.36 379.404l-1.461 1.461" id="LINE-154" data-name="LINE"/><path class="cls-7" d="M308.899 377.943l1.461 1.461" id="LINE-155" data-name="LINE"/><path class="cls-7" d="M217.783 379.466l1.461-1.461" id="LINE-156" data-name="LINE"/><path class="cls-7" d="M219.244 380.927l-1.461-1.461" id="LINE-157" data-name="LINE"/><path class="cls-7" d="M376.486 379.428v-19.604" id="LINE-158" data-name="LINE"/><path class="cls-7" d="M310.359 379.466v-19.604" id="LINE-159" data-name="LINE"/><path class="cls-7" d="M310.359 379.458l66.127-.045" id="LINE-160" data-name="LINE"/><path d="M334.805 392.749h-1.394v-8.422L332 385.2v-1.442l1.415-.943h1.394zM342.2 384.054l-2.57 8.7h-1.484l2.571-8.613h-2.53v1.428h-1.394v-2.759h5.407zM346.508 392.749h-1.394v-8.422l-1.415.868v-1.442l1.415-.943h1.394zM349.485 392.106a2.865 2.865 0 01-.721-2.078v-4.518a2.843 2.843 0 115.674 0v4.518a2.559 2.559 0 01-2.837 2.824 2.812 2.812 0 01-2.116-.746zm3.207-.966a1.6 1.6 0 00.352-1.112v-4.518a1.605 1.605 0 00-.349-1.111 1.743 1.743 0 00-2.188 0 1.6 1.6 0 00-.348 1.111v4.518a1.6 1.6 0 00.351 1.112 1.738 1.738 0 002.182 0z"/><path class="cls-7" d="M376.486 379.404l-1.461 1.461" id="LINE-161" data-name="LINE"/><path class="cls-7" d="M375.025 377.943l1.461 1.461" id="LINE-162" data-name="LINE"/><path class="cls-7" d="M310.359 379.466l1.462-1.461" id="LINE-163" data-name="LINE"/><path class="cls-7" d="M311.821 380.927l-1.462-1.461" id="LINE-164" data-name="LINE"/><path class="cls-7" d="M176.219 379.428v-19.604" id="LINE-165" data-name="LINE"/><path class="cls-7" d="M130.874 379.466v-19.604" id="LINE-166" data-name="LINE"/><path class="cls-7" d="M130.874 379.451l45.345-.031" id="LINE-167" data-name="LINE"/><path d="M143.548 392.749h-1.394v-8.422l-1.415.868v-1.442l1.415-.943h1.394zM145.654 391.539l3.466-4.621a3.474 3.474 0 00.468-.823 2.187 2.187 0 00.167-.8v-.014a1.208 1.208 0 00-.348-.923 1.4 1.4 0 00-.991-.328 1.366 1.366 0 00-.985.36 1.628 1.628 0 00-.458 1.014v.007h-1.442v-.007a3.732 3.732 0 01.5-1.459 2.566 2.566 0 01.981-.923 2.93 2.93 0 011.388-.318 3.456 3.456 0 011.518.305 2.144 2.144 0 01.957.884 2.82 2.82 0 01.328 1.4v.007a3.1 3.1 0 01-.219 1.1 4.771 4.771 0 01-.608 1.108l-2.878 3.91h3.759v1.326h-5.6zM152.886 391.539l3.466-4.621a3.439 3.439 0 00.468-.823 2.19 2.19 0 00.168-.8v-.014a1.205 1.205 0 00-.349-.923 1.392 1.392 0 00-.991-.328 1.365 1.365 0 00-.984.36 1.623 1.623 0 00-.458 1.014v.007h-1.443v-.007a3.732 3.732 0 01.5-1.459 2.562 2.562 0 01.982-.923 2.923 2.923 0 011.387-.318 3.456 3.456 0 011.518.305 2.139 2.139 0 01.957.884 2.809 2.809 0 01.328 1.4v.007a3.083 3.083 0 01-.219 1.1 4.7 4.7 0 01-.608 1.108l-2.878 3.91h3.76v1.326h-5.606zM160.99 392.106a2.861 2.861 0 01-.721-2.078v-4.518a2.843 2.843 0 115.674 0v4.518a2.559 2.559 0 01-2.837 2.824 2.812 2.812 0 01-2.116-.746zm3.207-.966a1.6 1.6 0 00.351-1.112v-4.518a1.6 1.6 0 00-.348-1.111 1.743 1.743 0 00-2.188 0 1.6 1.6 0 00-.348 1.111v4.518a1.6 1.6 0 00.351 1.112 1.738 1.738 0 002.182 0z"/><path class="cls-7" d="M176.219 379.404l-1.462 1.461" id="LINE-168" data-name="LINE"/><path class="cls-7" d="M174.757 377.943l1.462 1.461" id="LINE-169" data-name="LINE"/><path class="cls-7" d="M130.874 379.466l1.462-1.461" id="LINE-170" data-name="LINE"/><path class="cls-7" d="M132.336 380.927l-1.462-1.461" id="LINE-171" data-name="LINE"/><path class="cls-7" d="M217.782 379.428v-19.604" id="LINE-172" data-name="LINE"/><path class="cls-7" d="M176.218 379.466v-19.604" id="LINE-173" data-name="LINE"/><path class="cls-7" d="M176.218 379.449l41.564-.028" id="LINE-174" data-name="LINE"/><path d="M186.671 392.812h-1.395v-8.421l-1.415.867v-1.442l1.415-.943h1.395zM189.647 392.17a2.868 2.868 0 01-.721-2.078v-4.52a2.855 2.855 0 01.725-2.081 3.393 3.393 0 014.229 0 2.86 2.86 0 01.72 2.084v4.52a2.855 2.855 0 01-.724 2.081 3.382 3.382 0 01-4.229 0zm3.207-.968a1.6 1.6 0 00.352-1.11v-4.52a1.6 1.6 0 00-.349-1.11 1.742 1.742 0 00-2.187 0 1.6 1.6 0 00-.349 1.11v4.52a1.6 1.6 0 00.351 1.11 1.735 1.735 0 002.182 0zM197.717 392.562a2.282 2.282 0 01-.947-1.025 3.716 3.716 0 01-.324-1.623v-.008a5.545 5.545 0 01.13-1.162 6.751 6.751 0 01.376-1.2c.027-.069.056-.137.089-.2s.063-.131.095-.195l2.16-4.279h1.5l-2.536 4.955.007-.246a1.192 1.192 0 01.5-.5 1.579 1.579 0 01.766-.178 2.434 2.434 0 011.326.348 2.182 2.182 0 01.841 1.015 4.052 4.052 0 01.287 1.6v.006a3.8 3.8 0 01-.325 1.64 2.289 2.289 0 01-.95 1.04 3.355 3.355 0 01-3 0zm2.52-1.4A1.723 1.723 0 00200.6 390v-.008a1.97 1.97 0 00-.376-1.288 1.311 1.311 0 00-1.073-.454 1.133 1.133 0 00-.964.457 2.134 2.134 0 00-.347 1.293 1.706 1.706 0 00.36 1.166 1.475 1.475 0 002.037 0zM204.556 392.17a2.868 2.868 0 01-.72-2.078v-4.52a2.855 2.855 0 01.724-2.081 3.393 3.393 0 014.229 0 2.86 2.86 0 01.72 2.084v4.52a2.855 2.855 0 01-.724 2.081 3.382 3.382 0 01-4.229 0zm3.207-.968a1.59 1.59 0 00.352-1.11v-4.52a1.6 1.6 0 00-.349-1.11 1.742 1.742 0 00-2.187 0 1.6 1.6 0 00-.349 1.11v4.52a1.59 1.59 0 00.352 1.11 1.733 1.733 0 002.181 0z"/><path class="cls-7" d="M217.782 379.404l-1.461 1.461" id="LINE-175" data-name="LINE"/><path class="cls-7" d="M216.321 377.943l1.461 1.461" id="LINE-176" data-name="LINE"/><path class="cls-7" d="M176.218 379.466l1.461-1.461" id="LINE-177" data-name="LINE"/><path class="cls-7" d="M177.679 380.927l-1.461-1.461" id="LINE-178" data-name="LINE"/><path class="cls-7" d="M421.829 379.428v-19.604" id="LINE-179" data-name="LINE"/><path class="cls-7" d="M376.486 379.466v-19.604" id="LINE-180" data-name="LINE"/><path class="cls-7" d="M376.486 379.451l45.343-.031" id="LINE-181" data-name="LINE"/><path d="M387.961 392.812h-1.4v-8.421l-1.415.867v-1.442l1.415-.943h1.4zM390.066 391.6l3.466-4.622a3.454 3.454 0 00.468-.823 2.181 2.181 0 00.168-.8v-.013a1.21 1.21 0 00-.349-.924 1.389 1.389 0 00-.991-.328 1.369 1.369 0 00-.985.359 1.631 1.631 0 00-.458 1.016v.006h-1.442v-.006a3.72 3.72 0 01.5-1.46 2.559 2.559 0 01.981-.923 2.93 2.93 0 011.388-.319 3.456 3.456 0 011.518.305 2.141 2.141 0 01.957.885 2.82 2.82 0 01.328 1.4v.006a3.089 3.089 0 01-.219 1.1 4.708 4.708 0 01-.608 1.107l-2.878 3.91h3.759v1.326h-5.605zM396.9 390.078l3.336-7.2h1.435L398.42 390h4.874v1.291H396.9zm4.286-3.111h1.36v5.851h-1.36zM405.723 392.17a2.868 2.868 0 01-.72-2.078v-4.52a2.855 2.855 0 01.724-2.081 3.393 3.393 0 014.229 0 2.86 2.86 0 01.72 2.084v4.52a2.855 2.855 0 01-.724 2.081 3.382 3.382 0 01-4.229 0zm3.207-.968a1.59 1.59 0 00.352-1.11v-4.52a1.6 1.6 0 00-.349-1.11 1.742 1.742 0 00-2.187 0 1.6 1.6 0 00-.349 1.11v4.52a1.59 1.59 0 00.352 1.11 1.733 1.733 0 002.181 0z"/><path class="cls-7" d="M421.829 379.404l-1.461 1.461" id="LINE-182" data-name="LINE"/><path class="cls-7" d="M420.368 377.943l1.461 1.461" id="LINE-183" data-name="LINE"/><path class="cls-7" d="M376.486 379.466l1.461-1.461" id="LINE-184" data-name="LINE"/><path class="cls-7" d="M377.947 380.927l-1.461-1.461" id="LINE-185" data-name="LINE"/><path class="cls-7" d="M130.874 379.428v-19.604" id="LINE-186" data-name="LINE"/><path class="cls-7" d="M42.833 379.466v-19.604" id="LINE-187" data-name="LINE"/><path class="cls-7" d="M42.833 379.465l88.041-.059" id="LINE-188" data-name="LINE"/><path d="M73.247 391.539l3.466-4.621a3.435 3.435 0 00.467-.823 2.169 2.169 0 00.168-.8v-.014a1.208 1.208 0 00-.348-.923 1.4 1.4 0 00-.992-.328 1.365 1.365 0 00-.984.36 1.628 1.628 0 00-.458 1.014v.007h-1.442v-.007a3.732 3.732 0 01.5-1.459 2.566 2.566 0 01.981-.923 2.924 2.924 0 011.395-.315 3.451 3.451 0 011.517.305 2.134 2.134 0 01.957.884 2.809 2.809 0 01.328 1.4v.007a3.1 3.1 0 01-.218 1.1 4.739 4.739 0 01-.609 1.108l-2.878 3.91h3.76v1.326h-5.61zM80.479 391.539l3.466-4.621a3.474 3.474 0 00.468-.823 2.19 2.19 0 00.168-.8v-.014a1.209 1.209 0 00-.349-.923 1.392 1.392 0 00-.991-.328 1.367 1.367 0 00-.985.36 1.628 1.628 0 00-.458 1.014v.007h-1.442v-.007a3.732 3.732 0 01.5-1.459 2.566 2.566 0 01.981-.923 2.93 2.93 0 011.388-.318 3.456 3.456 0 011.518.305 2.139 2.139 0 01.957.884 2.809 2.809 0 01.328 1.4v.007a3.083 3.083 0 01-.219 1.1 4.7 4.7 0 01-.608 1.108l-2.878 3.91h3.76v1.326h-5.604zM88.518 392.5a2.293 2.293 0 01-.947-1.025 3.724 3.724 0 01-.324-1.624v-.007a5.545 5.545 0 01.13-1.162 6.634 6.634 0 01.376-1.2c.027-.068.056-.135.088-.2s.064-.131.1-.195l2.16-4.279h1.5l-2.536 4.956.007-.247a1.212 1.212 0 01.5-.5 1.59 1.59 0 01.766-.177 2.443 2.443 0 011.326.348 2.19 2.19 0 01.841 1.016 4.047 4.047 0 01.287 1.6v.006a3.784 3.784 0 01-.326 1.641 2.279 2.279 0 01-.949 1.039 3.351 3.351 0 01-3 0zm2.52-1.4a1.73 1.73 0 00.358-1.169v-.007a1.964 1.964 0 00-.376-1.288 1.311 1.311 0 00-1.073-.455 1.133 1.133 0 00-.964.458 2.124 2.124 0 00-.342 1.292v.006a1.7 1.7 0 00.36 1.166 1.474 1.474 0 002.037 0zM95.357 392.106a2.865 2.865 0 01-.721-2.078v-4.518a2.852 2.852 0 01.725-2.081 3.386 3.386 0 014.228 0 2.858 2.858 0 01.721 2.085v4.518a2.558 2.558 0 01-2.837 2.824 2.814 2.814 0 01-2.116-.75zm3.207-.966a1.6 1.6 0 00.352-1.112v-4.518a1.605 1.605 0 00-.349-1.111 1.742 1.742 0 00-2.187 0 1.6 1.6 0 00-.349 1.111v4.518a1.6 1.6 0 00.351 1.112 1.738 1.738 0 002.182 0z"/><path class="cls-7" d="M130.874 379.404l-1.461 1.461" id="LINE-189" data-name="LINE"/><path class="cls-7" d="M129.413 377.943l1.461 1.461" id="LINE-190" data-name="LINE"/><path class="cls-7" d="M42.833 379.466l1.461-1.461" id="LINE-191" data-name="LINE"/><path class="cls-7" d="M44.294 380.927l-1.461-1.461" id="LINE-192" data-name="LINE"/><path class="cls-7" d="M522.151 379.428v-19.604" id="LINE-193" data-name="LINE"/><path class="cls-7" d="M504.959 379.466v-19.604" id="LINE-194" data-name="LINE"/><path class="cls-7" d="M504.959 379.441l17.192-.011" id="LINE-195" data-name="LINE"/><path d="M503.058 390.015l3.336-7.2h1.436l-3.254 7.117h4.874v1.292h-6.392zm4.286-3.111h1.361v5.852h-1.361zM514.679 387.813l-.007.247a1.029 1.029 0 01-.515.461 2.082 2.082 0 01-.818.147 2.193 2.193 0 01-1.251-.362 2.372 2.372 0 01-.837-1.022 3.69 3.69 0 01-.3-1.528v-.007a3.818 3.818 0 01.324-1.647 2.3 2.3 0 01.951-1.04 3 3 0 011.5-.355 2.932 2.932 0 011.5.362 2.323 2.323 0 01.946 1.053 3.875 3.875 0 01.326 1.661v.007a5.2 5.2 0 01-.137 1.139 6.983 6.983 0 01-.39 1.2l-.082.182a2 2 0 01-.089.18l-2.119 4.259h-1.5zm.066-.861a1.949 1.949 0 00.358-1.251v-.007a1.856 1.856 0 00-.358-1.216 1.419 1.419 0 00-2.037 0 1.851 1.851 0 00-.36 1.223v.007a1.919 1.919 0 00.36 1.248 1.394 1.394 0 002.037 0zM519.783 392.558a2.407 2.407 0 01-.951-.855 3.384 3.384 0 01-.489-1.347v-.006h1.4v.006a1.294 1.294 0 00.437.852 1.423 1.423 0 00.944.3 1.261 1.261 0 001.035-.448 1.939 1.939 0 00.366-1.261v-.834a1.93 1.93 0 00-.366-1.254 1.259 1.259 0 00-1.035-.448 1.32 1.32 0 00-.7.2 1.95 1.95 0 00-.587.574h-1.272v-5.227h5.066v1.326h-3.671v2.235a1.992 1.992 0 01.581-.328 1.922 1.922 0 01.656-.116 2.9 2.9 0 011.474.355 2.287 2.287 0 01.929 1.039 3.9 3.9 0 01.318 1.648v.834a3.788 3.788 0 01-.328 1.647 2.332 2.332 0 01-.957 1.043 3 3 0 01-1.511.359 2.928 2.928 0 01-1.339-.294z"/><path class="cls-7" d="M522.151 379.404l-1.461 1.461" id="LINE-196" data-name="LINE"/><path class="cls-7" d="M520.69 377.943l1.461 1.461" id="LINE-197" data-name="LINE"/><path class="cls-7" d="M504.959 379.466l1.461-1.461" id="LINE-198" data-name="LINE"/><path class="cls-7" d="M506.42 380.927l-1.461-1.461" id="LINE-199" data-name="LINE"/><path class="cls-7" d="M23.342 125.725h19.604" id="LINE-200" data-name="LINE"/><path class="cls-7" d="M23.304 204.749h19.604" id="LINE-201" data-name="LINE"/><path class="cls-7" d="M23.304 204.749l.061-79.024" id="LINE-202" data-name="LINE"/><path d="M35.335 172.492l-4.621-3.466a3.421 3.421 0 00-.824-.467 2.16 2.16 0 00-.8-.168h-.01a1.208 1.208 0 00-.923.348 1.4 1.4 0 00-.328.991 1.369 1.369 0 00.359.985 1.631 1.631 0 001.015.458h.007v1.442h-.01a3.721 3.721 0 01-1.459-.5 2.559 2.559 0 01-.923-.981 2.927 2.927 0 01-.318-1.388 3.463 3.463 0 01.3-1.517 2.144 2.144 0 01.885-.958 2.82 2.82 0 011.4-.328h.015a3.1 3.1 0 011.1.219 4.739 4.739 0 011.108.609l3.91 2.877v-3.759h1.326v5.6zM36.545 162.71v1.39h-8.422l.868 1.415h-1.442l-.943-1.415v-1.39zM35.335 160.6l-4.621-3.465a3.393 3.393 0 00-.824-.468 2.181 2.181 0 00-.8-.168h-.01a1.205 1.205 0 00-.923.349 1.392 1.392 0 00-.328.991 1.368 1.368 0 00.359.984 1.631 1.631 0 001.015.458h.007v1.443h-.01a3.737 3.737 0 01-1.459-.5 2.561 2.561 0 01-.923-.982 2.924 2.924 0 01-.318-1.388 3.469 3.469 0 01.3-1.517 2.141 2.141 0 01.885-.957 2.809 2.809 0 011.4-.328h.015a3.1 3.1 0 011.1.218 4.739 4.739 0 011.108.609l3.91 2.878V155h1.326v5.6zM35.9 152.5a2.865 2.865 0 01-2.078.721h-4.516a2.856 2.856 0 01-2.082-.725 3.391 3.391 0 010-4.228 2.858 2.858 0 012.085-.721h4.518a2.856 2.856 0 012.082.724 3.377 3.377 0 010 4.229zm-.967-3.207a1.6 1.6 0 00-1.111-.352h-4.516a1.605 1.605 0 00-1.111.349 1.742 1.742 0 000 2.187 1.6 1.6 0 001.111.349h4.518a1.6 1.6 0 001.111-.351 1.735 1.735 0 000-2.182z"/><path class="cls-7" d="M23.366 125.749l-1.461 1.462" id="LINE-203" data-name="LINE"/><path class="cls-7" d="M24.827 127.211l-1.461-1.462" id="LINE-204" data-name="LINE"/><path class="cls-7" d="M23.304 204.75l1.461-1.461" id="LINE-205" data-name="LINE"/><path class="cls-7" d="M21.843 203.289l1.461 1.461" id="LINE-206" data-name="LINE"/><path class="cls-7" d="M23.342 204.749h19.604" id="LINE-207" data-name="LINE"/><path class="cls-7" d="M23.304 359.862h19.604" id="LINE-208" data-name="LINE"/><path class="cls-7" d="M23.282 359.862l.105-155.113" id="LINE-209" data-name="LINE"/><path d="M33.811 296.742l-7.2-3.336v-1.435l7.117 3.254v-4.874h1.292v6.391zm-3.111-4.286V291.1h5.852v1.36zM35.9 287.921a2.865 2.865 0 01-2.078.721h-4.516a2.856 2.856 0 01-2.082-.725 3.393 3.393 0 010-4.229 2.861 2.861 0 012.085-.72h4.518a2.856 2.856 0 012.082.724 3.377 3.377 0 010 4.229zm-.967-3.207a1.591 1.591 0 00-1.111-.352h-4.516a1.6 1.6 0 00-1.111.349 1.742 1.742 0 000 2.187 1.6 1.6 0 001.111.349h4.518a1.591 1.591 0 001.111-.352 1.733 1.733 0 000-2.181zM36.648 279.249l-.3.636a2.5 2.5 0 01-.881 1.022 3.187 3.187 0 01-1.392.488v-1.421a1.5 1.5 0 00.7-.267 1.228 1.228 0 00.406-.53 1.992 1.992 0 00.134-.762 1.483 1.483 0 00-.369-1.073 1.379 1.379 0 00-1.039-.383h-.3a1.677 1.677 0 00-1.152.362 1.3 1.3 0 00-.407 1.026v.7h-1.334v-.7a1.164 1.164 0 00-.349-.9 1.4 1.4 0 00-.984-.321h-.308a1.19 1.19 0 00-.909.339 1.337 1.337 0 00-.321.96 1.462 1.462 0 00.133.636 1.219 1.219 0 00.41.474 1.853 1.853 0 00.694.284v1.415a3.611 3.611 0 01-1.394-.515 2.526 2.526 0 01-.882-.961 2.855 2.855 0 01-.3-1.333 2.754 2.754 0 01.677-1.989 2.519 2.519 0 011.907-.7h.164a2.146 2.146 0 011.3.4 2.277 2.277 0 01.807 1.141 2.02 2.02 0 01.8-1.26 2.647 2.647 0 011.586-.449h.164a3.067 3.067 0 011.484.335 2.212 2.212 0 01.936.975 3.386 3.386 0 01.322 1.541zM36.354 272.143a2.413 2.413 0 01-.855.951 3.4 3.4 0 01-1.347.488h-.006v-1.395h.006a1.292 1.292 0 00.848-.437 1.42 1.42 0 00.3-.943 1.264 1.264 0 00-.448-1.036 1.941 1.941 0 00-1.252-.371h-.834a1.933 1.933 0 00-1.255.366 1.263 1.263 0 00-.447 1.036 1.316 1.316 0 00.205.7 1.941 1.941 0 00.574.588v1.271h-5.237V268.3h1.326v3.671h2.235a1.992 1.992 0 01-.328-.581 1.9 1.9 0 01-.116-.657 2.885 2.885 0 01.355-1.473 2.289 2.289 0 011.039-.93 3.9 3.9 0 011.648-.317h.835a3.773 3.773 0 011.647.328 2.331 2.331 0 011.043.957 3 3 0 01.359 1.511 2.944 2.944 0 01-.295 1.334z"/><path class="cls-7" d="M23.366 204.749l-1.461 1.462" id="LINE-210" data-name="LINE"/><path class="cls-7" d="M24.827 206.211l-1.461-1.462" id="LINE-211" data-name="LINE"/><path class="cls-7" d="M23.304 359.862l1.461-1.461" id="LINE-212" data-name="LINE"/><path class="cls-7" d="M21.843 358.401l1.461 1.461" id="LINE-213" data-name="LINE"/><path class="cls-7" d="M16.943 473.165v-357.27" id="LINE-214" data-name="LINE"/><path d="M8.477 304.528l.246.007a1.027 1.027 0 01.461.516 2.077 2.077 0 01.147.817 2.189 2.189 0 01-.362 1.251 2.374 2.374 0 01-1.022.838 3.706 3.706 0 01-1.528.3h-.007a3.833 3.833 0 01-1.647-.324 2.29 2.29 0 01-1.039-.952 2.986 2.986 0 01-.356-1.5 2.923 2.923 0 01.363-1.5 2.321 2.321 0 011.052-.946 3.872 3.872 0 011.661-.325h.007a5.177 5.177 0 011.138.137 6.848 6.848 0 011.2.389c.059.028.12.055.181.082s.122.057.181.089l4.259 2.119v1.5zm-.862-.065a1.949 1.949 0 00-1.251-.359h-.006a1.857 1.857 0 00-1.217.359 1.419 1.419 0 000 2.037 1.856 1.856 0 001.223.359h.007a1.925 1.925 0 001.248-.359 1.392 1.392 0 000-2.037zM12.2 301.015l-4.621-3.466a3.426 3.426 0 00-.824-.468 2.181 2.181 0 00-.8-.168h-.008a1.2 1.2 0 00-.922.349 1.388 1.388 0 00-.329.991 1.368 1.368 0 00.359.984 1.628 1.628 0 001.015.458h.007v1.443H6.07a3.727 3.727 0 01-1.459-.5 2.562 2.562 0 01-.923-.982 2.923 2.923 0 01-.318-1.387 3.47 3.47 0 01.3-1.518 2.138 2.138 0 01.886-.957 2.8 2.8 0 011.4-.328h.007a3.079 3.079 0 011.1.219 4.7 4.7 0 011.108.608l3.91 2.878v-3.76h1.326v5.606zM4.717 288.5l8.7 2.57v1.484L4.8 289.981v2.53h1.428v1.389H3.473v-5.4zM13.221 285.144a2.409 2.409 0 01-.855.952 3.4 3.4 0 01-1.346.488h-.007v-1.395h.007a1.292 1.292 0 00.851-.437 1.42 1.42 0 00.3-.943 1.261 1.261 0 00-.448-1.036 1.941 1.941 0 00-1.261-.366h-.83a1.928 1.928 0 00-1.254.366 1.261 1.261 0 00-.448 1.036 1.316 1.316 0 00.205.7 1.964 1.964 0 00.574.588v1.271H3.473V281.3H4.8v3.671h2.234a2 2 0 01-.328-.581 1.927 1.927 0 01-.116-.657 2.9 2.9 0 01.355-1.473 2.289 2.289 0 011.039-.93 3.9 3.9 0 011.648-.317h.834a3.77 3.77 0 011.647.328 2.326 2.326 0 011.043.957 3 3 0 01.359 1.511 2.924 2.924 0 01-.294 1.335z"/><path class="cls-7" d="M16.943 115.895l1.461 1.461" id="LINE-215" data-name="LINE"/><path class="cls-7" d="M15.482 117.356l1.461-1.461" id="LINE-216" data-name="LINE"/><path class="cls-7" d="M16.943 473.165l-1.461-1.461" id="LINE-217" data-name="LINE"/><path class="cls-7" d="M18.404 471.704l-1.461 1.461" id="LINE-218" data-name="LINE"/><path class="cls-7" d="M.323 456.501h527.043" id="LINE-219" data-name="LINE"/><path d="M248.8 468.97h-1.4v-8.422l-1.415.868v-1.442l1.415-.944h1.4zM252.787 469.072l-.636-.3a2.522 2.522 0 01-1.022-.882 3.2 3.2 0 01-.489-1.392h1.422a1.491 1.491 0 00.267.7 1.227 1.227 0 00.53.408 2.012 2.012 0 00.762.132 1.483 1.483 0 001.073-.369 1.376 1.376 0 00.383-1.039v-.3a1.671 1.671 0 00-.363-1.151 1.3 1.3 0 00-1.025-.407h-.7v-1.326h.7a1.164 1.164 0 00.9-.349 1.4 1.4 0 00.322-.984v-.313a1.193 1.193 0 00-.339-.909 1.339 1.339 0 00-.96-.321 1.462 1.462 0 00-.636.133 1.212 1.212 0 00-.474.41 1.877 1.877 0 00-.285.694H250.8a3.639 3.639 0 01.516-1.395 2.55 2.55 0 01.961-.882 2.867 2.867 0 011.333-.3 2.757 2.757 0 011.989.676 2.521 2.521 0 01.7 1.908v.164a2.154 2.154 0 01-.4 1.3 2.272 2.272 0 01-1.142.806 2.027 2.027 0 011.261.8 2.645 2.645 0 01.448 1.586v.164a3.051 3.051 0 01-.335 1.483 2.207 2.207 0 01-.974.937 3.389 3.389 0 01-1.541.321zM259.78 468.73a2.494 2.494 0 01-1.057-.966 2.79 2.79 0 01-.372-1.453v-.165a2.8 2.8 0 01.372-1.4 2.5 2.5 0 011-.991 2.19 2.19 0 01-.844-.83 2.246 2.246 0 01-.318-1.146v-.239a2.636 2.636 0 01.349-1.37 2.35 2.35 0 01.984-.916 3.516 3.516 0 012.953 0 2.358 2.358 0 01.985.916 2.645 2.645 0 01.348 1.37v.239a2.2 2.2 0 01-.325 1.156 2.162 2.162 0 01-.857.82 2.569 2.569 0 011.008 1 2.724 2.724 0 01.379 1.4v.165a2.79 2.79 0 01-.372 1.453 2.491 2.491 0 01-1.056.966 3.848 3.848 0 01-3.172 0zm2.44-1.189a1.391 1.391 0 00.572-.536 1.567 1.567 0 00.2-.8v-.1a1.573 1.573 0 00-.2-.8 1.389 1.389 0 00-.572-.538 2.007 2.007 0 00-1.709 0 1.384 1.384 0 00-.571.54 1.59 1.59 0 00-.2.807v.1a1.538 1.538 0 00.2.793 1.374 1.374 0 00.571.53 1.866 1.866 0 00.855.187 1.825 1.825 0 00.854-.183zm-.116-4.48a1.256 1.256 0 00.5-.517 1.63 1.63 0 00.178-.773v-.1a1.51 1.51 0 00-.178-.739 1.238 1.238 0 00-.5-.5 1.652 1.652 0 00-1.476 0 1.238 1.238 0 00-.5.5 1.513 1.513 0 00-.178.746v.1a1.589 1.589 0 00.178.763 1.264 1.264 0 00.5.513 1.6 1.6 0 001.476 0zM267.4 468.721a2.3 2.3 0 01-.947-1.026 3.718 3.718 0 01-.324-1.624v-.007a5.552 5.552 0 01.13-1.162 6.65 6.65 0 01.376-1.2c.027-.068.056-.136.088-.2s.064-.131.1-.195l2.16-4.28h1.5l-2.536 4.956.007-.246a1.2 1.2 0 01.5-.5 1.586 1.586 0 01.765-.178 2.444 2.444 0 011.327.349 2.172 2.172 0 01.84 1.016 4.024 4.024 0 01.288 1.6v.007a3.784 3.784 0 01-.326 1.641 2.284 2.284 0 01-.949 1.039 3.359 3.359 0 01-3 0zm2.52-1.4a1.726 1.726 0 00.358-1.169v-.007a1.968 1.968 0 00-.376-1.288 1.314 1.314 0 00-1.073-.455 1.136 1.136 0 00-.964.458 2.128 2.128 0 00-.342 1.292v.007a1.7 1.7 0 00.36 1.166 1.475 1.475 0 002.037 0zM274.953 468.778a2.4 2.4 0 01-.951-.854 3.384 3.384 0 01-.489-1.347v-.007h1.4v.007a1.3 1.3 0 00.437.852 1.423 1.423 0 00.944.3 1.261 1.261 0 001.035-.447 1.944 1.944 0 00.366-1.262v-.834a1.925 1.925 0 00-.366-1.253 1.259 1.259 0 00-1.035-.449 1.326 1.326 0 00-.7.2 1.942 1.942 0 00-.587.575h-1.272v-5.229h5.065v1.326h-3.67v2.236a1.979 1.979 0 01.581-.328 1.9 1.9 0 01.656-.117 2.9 2.9 0 011.474.356 2.287 2.287 0 01.929 1.039 3.9 3.9 0 01.318 1.647v.834a3.775 3.775 0 01-.329 1.648 2.32 2.32 0 01-.957 1.043 3 3 0 01-1.51.358 2.916 2.916 0 01-1.339-.294z"/><path class="cls-7" d="M527.366 456.501l-1.461 1.461" id="LINE-220" data-name="LINE"/><path class="cls-7" d="M525.905 455.039l1.461 1.462" id="LINE-221" data-name="LINE"/><path class="cls-7" d="M.323 456.501l1.461-1.462" id="LINE-222" data-name="LINE"/><path class="cls-7" d="M1.784 457.962l-1.461-1.461" id="LINE-223" data-name="LINE"/><path class="cls-7" d="M538.233 473.269V359.91" id="LINE-224" data-name="LINE"/><path d="M539.788 428.283a3.4 3.4 0 01.32-1.541 2.209 2.209 0 01.938-.974 3.05 3.05 0 011.482-.335h.164a2.643 2.643 0 011.586.448 2.024 2.024 0 01.8 1.261 2.272 2.272 0 01.806-1.142 2.148 2.148 0 011.3-.4h.164a2.519 2.519 0 011.907.7 2.756 2.756 0 01.677 1.989 2.855 2.855 0 01-.3 1.333 2.534 2.534 0 01-.882.961 3.626 3.626 0 01-1.395.516v-1.415a1.863 1.863 0 00.694-.285 1.214 1.214 0 00.411-.474 1.477 1.477 0 00.133-.636 1.335 1.335 0 00-.322-.96 1.186 1.186 0 00-.908-.339h-.309a1.4 1.4 0 00-.984.321 1.167 1.167 0 00-.348.9v.7H544.4v-.7a1.306 1.306 0 00-.407-1.026 1.676 1.676 0 00-1.151-.362h-.3a1.374 1.374 0 00-1.039.383 1.483 1.483 0 00-.369 1.073 1.993 1.993 0 00.132.762 1.238 1.238 0 00.407.53 1.5 1.5 0 00.7.267v1.422a3.2 3.2 0 01-1.391-.489 2.507 2.507 0 01-.882-1.022l-.3-.636zM539.788 420.613a2.819 2.819 0 01.741-2.112 2.854 2.854 0 012.081-.725h4.52a2.858 2.858 0 012.083.721 3.391 3.391 0 010 4.229 2.856 2.856 0 01-2.081.724h-4.52a2.862 2.862 0 01-2.078-.721 2.816 2.816 0 01-.746-2.116zm1.326 0a1.41 1.41 0 00.386 1.091 1.593 1.593 0 001.11.352h4.52a1.6 1.6 0 001.11-.349 1.743 1.743 0 000-2.188 1.6 1.6 0 00-1.11-.348h-4.52a1.593 1.593 0 00-1.11.351 1.411 1.411 0 00-.386 1.091zM539.788 412.889a2.823 2.823 0 01.741-2.113 2.853 2.853 0 012.081-.724h4.52a2.858 2.858 0 012.083.72 2.846 2.846 0 01-2.083 4.954h-4.52a2.867 2.867 0 01-2.078-.721 2.819 2.819 0 01-.744-2.116zm1.326 0a1.407 1.407 0 00.386 1.09 1.589 1.589 0 001.11.352h4.52a1.6 1.6 0 001.11-.349 1.742 1.742 0 000-2.187 1.6 1.6 0 00-1.11-.349h-4.52a1.589 1.589 0 00-1.11.352 1.408 1.408 0 00-.386 1.091zM539.788 405.164a2.819 2.819 0 01.741-2.112 2.849 2.849 0 012.081-.725h4.52a2.854 2.854 0 012.083.721A2.845 2.845 0 01547.13 408h-4.52a2.862 2.862 0 01-2.078-.721 2.816 2.816 0 01-.744-2.115zm1.326 0a1.411 1.411 0 00.386 1.091 1.593 1.593 0 001.11.351h4.52a1.6 1.6 0 001.11-.348 1.743 1.743 0 000-2.188 1.6 1.6 0 00-1.11-.348h-4.52a1.593 1.593 0 00-1.11.351 1.411 1.411 0 00-.386 1.091z"/><path class="cls-7" d="M538.233 359.948l-1.461 1.461" id="LINE-225" data-name="LINE"/><path class="cls-7" d="M539.694 361.409l-1.461-1.461" id="LINE-226" data-name="LINE"/><path class="cls-7" d="M538.233 473.269l1.461-1.461" id="LINE-227" data-name="LINE"/><path class="cls-7" d="M536.772 471.808l1.461 1.461" id="LINE-228" data-name="LINE"/><path class="cls-7" d="M527.25 359.91h10.983M527.25 473.269h10.983"/></g></svg>