<svg xmlns="http://www.w3.org/2000/svg" width="494.748" height="107.2mm" viewBox="0 0 371.06 303.874"><defs><pattern id="Новый_узор_3" data-name="Новый узор 3" width="35.15" height="35.15" patternUnits="userSpaceOnUse"><path class="cls-1" d="M0 0h35.15v35.15H0z"/><path class="cls-2" d="M35.149 35.15h35.15V70.3h-35.15z"/><path class="cls-2" d="M0 35.15h35.15V70.3H0zM-35.15 35.15H0V70.3h-35.15z"/><path class="cls-2" d="M35.149.001h35.15v35.15h-35.15z"/><path class="cls-2" d="M0 .001h35.15v35.15H0zM-35.15.001H0v35.15h-35.15zM35.149-35.149h35.15V.001h-35.15z"/><path class="cls-2" d="M0-35.149h35.15V.001H0zM-35.15-35.149H0V.001h-35.15z"/></pattern><pattern id="Новый_узор_4" data-name="Новый узор 4" width="9.822" height="9.822" patternUnits="userSpaceOnUse"><path class="cls-1" d="M0 0h9.822v9.822H0z"/><path class="cls-3" d="M14.733 19.647L9.82 14.735l4.913-4.913 4.912 4.913-4.912 4.912z"/><path class="cls-3" d="M4.911 19.647l-4.913-4.912 4.913-4.913 4.912 4.913-4.912 4.912z"/><path class="cls-3" d="M-4.912 19.647l-4.912-4.912 4.912-4.913 4.913 4.913-4.913 4.912zM14.733 9.825L9.82 4.912 14.733 0l4.912 4.912-4.912 4.913z"/><path class="cls-3" d="M4.911 9.825L-.002 4.912 4.911 0l4.912 4.912-4.912 4.913z"/><path class="cls-3" d="M-4.912 9.825l-4.912-4.913L-4.912 0 .001 4.912l-4.913 4.913zM14.733.003L9.82-4.91l4.913-4.912 4.912 4.912L14.733.003z"/><path class="cls-3" d="M4.911.003L-.002-4.91l4.913-4.912L9.823-4.91 4.911.003z"/><path class="cls-3" d="M-4.912.003L-9.824-4.91l4.912-4.912L.001-4.91-4.912.003z"/></pattern><style>.cls-1,.cls-11,.cls-2,.cls-3,.cls-7,.cls-9{fill:none}.cls-2{stroke:#ededed}.cls-2,.cls-3,.cls-7,.cls-9{stroke-linecap:round;stroke-linejoin:round;stroke-width:.4px}.cls-3{stroke:#e6e6e6}.cls-10,.cls-3,.cls-4,.cls-9{fill-rule:evenodd}.cls-4{fill:#fff}.cls-7,.cls-9{stroke:#000}.cls-11{stroke:gray;stroke-miterlimit:22.926;stroke-width:.6px}</style></defs><g id="_247" data-name="247"><path class="cls-4" d="M370.235 244.267l-14.929-33.94V5.716H23.731v280.752h331.575v-39.243a46.564 46.564 0 0014.929-2.958z" id="fon"/><path stroke="#dcdcdc" fill="url(#Новый_узор_3)" stroke-width=".4" stroke-linecap="round" stroke-linejoin="round" d="M23.731 5.716h331.575v280.752H23.731z" id="grid"/><path id="wet_zones" data-name="wet zones" fill="url(#Новый_узор_4)" fill-rule="evenodd" d="M346.236 57.672v-30.04h-22.671V10.866h-44.966v120.111h67.637v-30.04h-9.068V57.672h9.068z"/><g id="walls"><path class="cls-7" d="M66.43 5.716h-42.7m0 0v280.752m0 0h42.7m0 0V5.716M73.987 255.672h16.248M66.43 255.672h5.667M72.097 255.672h1.89M73.987 172.542h16.248M66.43 172.542h5.667M72.097 172.542h1.89M66.43 172.542v83.13M90.235 172.542v83.13M73.987 172.542v3.779M73.987 176.321h-1.89M72.097 176.321v-3.779M72.097 212.218v-1.889M72.097 210.329h1.89M73.987 210.329v1.889M73.042 176.321v34.008M73.987 176.321v34.008M72.097 210.329v-34.008M73.987 212.218v.945M73.987 213.163h-.945M73.042 213.163v.944M73.042 214.107h-.945M72.097 214.107v-1.889M72.097 255.672v-3.778M72.097 251.894h.945M73.042 251.894v.944M73.042 252.838h.945M73.987 252.838v2.834M72.097 251.894v-37.787M74.932 215.997v34.008M74.932 213.163v2.834M74.932 215.997h-1.89M73.042 215.997v-2.834M73.042 213.163h1.89M73.042 252.838v-2.833M73.042 250.005h1.89M74.932 250.005v2.832M74.932 252.838h-1.89M73.042 250.005v-34.008M74.932 215.997v34.008M73.987 215.997v34.008M72.097 172.542h1.89M72.097 172.542h1.89M66.43 172.542h5.667M73.987 172.542h16.248M72.097 255.672h1.89M72.097 255.672h1.89M66.43 255.672h5.667M73.987 255.672h16.248M73.987 98.859h16.248M66.43 98.859h5.667M72.097 98.859h1.89M73.987 32.733h16.248M66.43 32.733h5.667M72.097 32.733h1.89M66.43 32.733v66.126M90.235 32.733v66.126M73.987 32.733v3.778M73.987 36.511h-1.89M72.097 36.511v-3.778M72.097 70.519V68.63M72.097 68.63h1.89M73.987 68.63v1.889M73.042 36.511V68.63M73.987 36.511V68.63M72.097 68.63V36.511M73.987 70.519v.945M73.987 71.464h-.945M73.042 71.464v.945M73.042 72.409h-.945M72.097 72.409v-1.89M72.097 98.859v-3.778M72.097 95.081h.945M73.042 95.081v.944M73.042 96.025h.945M73.987 96.025v2.834M72.097 95.081V72.409M74.932 74.298v18.893M74.932 71.464v2.834M74.932 74.298h-1.89M73.042 74.298v-2.834M73.042 71.464h1.89M73.042 96.025v-2.834M73.042 93.191h1.89M74.932 93.191v2.834M74.932 96.025h-1.89M73.042 93.191V74.298M74.932 74.298v18.893M73.987 74.298v18.893M72.097 32.733h1.89M72.097 32.733h1.89M66.43 32.733h5.667M73.987 32.733h16.248M72.097 98.859h1.89M72.097 98.859h1.89M66.43 98.859h5.667M73.987 98.859h16.248"/><path d="M355.306.192V207.8H353.8v.453h-7.558V.192zM175.774 10.86l-85.54-.027v21.9h-23.8V.192h109.34V10.86zm170.463 282.409h9.069v-46.023H353.8v-.454h-7.558v46.477zm-279.808 0h109.345v-10.958h-85.54v-26.639h-23.8v37.6zm0-194.41h23.8v73.683h-23.8z" stroke-miterlimit="3" stroke-width=".384" stroke="#000" fill-rule="evenodd"/><path class="cls-9" d="M370.86 244.044c-5.763 2.149-9.171 2.723-15.554 3.2"/><path class="cls-10" d="M370.964 244.005l-15.658-36.208h-1.511v.453l15.781 36.355 1.388-.6z"/><path class="cls-9" d="M238.028 118.411a38.186 38.186 0 00-2.581 12.566"/><path class="cls-10" d="M238.067 118.319l-.6 1.387 29.419 12.783h.453v-1.512l-29.272-12.658z"/><path class="cls-9" d="M309.282 119.916a31.116 31.116 0 012.268 11.061"/><path class="cls-10" d="M309.24 119.819l-25.804 11.158v1.512h.453l25.951-11.283-.6-1.387z"/><path class="cls-7" d="M75.085 252.868l28.055-28.055M103.14 224.813a39.673 39.673 0 00-28.055-11.621M74.141 176.35l28.999 25.272M103.14 201.622a39.673 39.673 0 01-28.055 11.621"/></g><g id="wall_2" data-name="wall 2"><path class="cls-4" d="M346.236 282.311v10.958H175.774v-10.958zm-22.671-271.4v-.018H278.6v120.084h4.837v1.511h.453V134h-17v-1.511h.453v-1.511h8.238V10.889l-99.8-.029V.192q85.251 0 170.462.018v10.679h-19.656v13.72h19.649v3.023h-22.671V10.907zm-89.176 120.067h1.059v1.511h.453V134h-14.737v22.672h-20.4V134H90.234v-3.022zM203.782 134v19.649h14.36V134zm142.454 0H311.1v-1.511h.454v-1.511h34.686V134zm-9.068-76.328h9.068V60.7h-6.046v37.214h6.046v3.023h-9.068z"/><path class="cls-11" d="M177.858.19l-2.08 1.83M185.278.19l-9.5 8.37M192.698.19l-12.11 10.67M200.118.19l-12.11 10.67M207.538.19l-12.11 10.68M214.968.19l-12.12 10.68M222.388.19l-12.12 10.68M229.808.19l-12.13 10.68M237.228.19l-12.13 10.68M244.648.2l-12.12 10.68M96.188 130.98l-3.43 3.02M252.068.2l-12.12 10.68M103.608 130.98l-3.43 3.02M259.498.2l-12.13 10.68M111.038 130.98l-3.43 3.02M266.918.2l-12.13 10.68M118.458 130.98l-3.43 3.02M125.878 130.98l-3.43 3.02M274.338.2l-12.13 10.69M133.298 130.98l-3.43 3.02M281.758.2l-12.14 10.69M140.718 130.98l-3.43 3.02M289.178.2l-13.6 11.98M278.598 16.06l-3.02 2.66M148.138 130.98l-3.42 3.02M296.598.2l-12.13 10.69M278.598 22.6l-3.02 2.66M155.568 130.98l-3.43 3.02M304.018.2l-12.13 10.69M278.598 29.14l-3.02 2.66M162.988 130.98l-3.43 3.02M311.448.2l-12.13 10.69M278.598 35.68l-3.02 2.66M170.418 130.98l-3.43 3.02M318.868.2l-12.13 10.69M278.598 42.21l-3.02 2.66M177.828 130.98l-3.43 3.02M326.278.21l-12.13 10.68M278.598 48.75l-3.02 2.66M185.248 130.98l-3.42 3.02M333.698.21l-12.12 10.68M326.588 13.01l-3.02 2.66M192.678 130.98l-3.43 3.02M278.598 55.29l-3.02 2.66M341.118.21l-12.12 10.68M326.588 19.55l-3.02 2.66M200.098 130.98l-3.43 3.02M278.598 61.83l-3.02 2.66M346.238 2.24l-9.81 8.65M346.238 8.78l-2.39 2.11M278.598 68.37l-3.02 2.66M203.778 134.28l-3.02 2.66M207.518 130.98l-3.42 3.02M328.268 24.61l-3.42 3.02M278.598 74.91l-3.02 2.66M203.778 140.82l-3.02 2.66M214.948 130.98l-3.43 3.02M335.698 24.61l-3.43 3.02M343.108 24.61l-3.43 3.02M222.358 130.98l-4.22 3.72M203.778 147.35l-3.02 2.66M278.598 81.44l-3.02 2.66M229.788 130.98l-3.43 3.02M204.048 153.65l-3.29 2.9M221.168 138.57l-3.03 2.67M278.598 87.98l-3.02 2.66M221.168 145.11l-3.03 2.67M211.478 153.65l-3.43 3.02M235.498 132.49l-1.72 1.51M278.598 94.52l-3.02 2.66M221.168 151.65l-5.7 5.02M278.598 101.06l-3.02 2.66M278.598 107.6l-3.02 2.66M278.598 114.14l-3.02 2.66M342.698 57.67l-5.53 4.87M278.598 120.68l-3.02 2.66M340.188 66.42l-3.02 2.66M278.598 127.21l-3.02 2.66M340.188 72.95l-3.02 2.66M274.318 130.98l-3.43 3.02M340.188 79.49l-3.02 2.66M281.738 130.98l-3.43 3.02M340.188 86.03l-3.02 2.66M340.188 92.57l-3.02 2.66M341.548 97.91l-3.43 3.03M346.238 100.32l-.7.62M318.848 130.98l-3.43 3.02M326.278 130.98l-3.43 3.02M333.698 130.98l-3.43 3.02M341.118 130.98l-3.42 3.02M346.238 133.01l-1.12.99M176.758 282.31l-.98.86M184.178 282.31l-8.4 7.4M191.608 282.31l-12.44 10.96M199.018 282.31l-12.44 10.96M206.448 282.31l-12.44 10.96M213.868 282.31l-12.44 10.96M221.298 282.31l-12.45 10.96M228.718 282.31l-12.44 10.96M236.138 282.31l-12.44 10.96M243.558 282.31l-12.45 10.96M250.978 282.31l-12.44 10.96M258.398 282.31l-12.44 10.96M265.828 282.31l-12.45 10.96M273.248 282.31l-12.44 10.96M280.668 282.31l-12.44 10.96M288.088 282.31l-12.44 10.96M295.508 282.31l-12.44 10.96M302.928 282.31l-12.44 10.96M310.358 282.31l-12.44 10.96M317.778 282.31l-12.44 10.96M325.208 282.31l-12.44 10.96M332.628 282.31l-12.44 10.96M340.048 282.31l-12.44 10.96M346.238 283.39l-11.21 9.88M346.238 289.93l-3.79 3.34"/><path d="M346.236 282.311v10.958H175.774v-10.958zm-22.671-271.4v-.018H278.6v120.084h4.837v1.511h.453V134h-17v-1.511h.453v-1.511h8.238V10.889l-99.8-.029V.192q85.251 0 170.462.018v10.679h-19.656v13.72h19.649v3.023h-22.671V10.907zm-89.176 120.067h1.059v1.511h.453V134h-14.737v22.672h-20.4V134H90.234v-3.022zM203.782 134v19.649h14.36V134zm142.454 0H311.1v-1.511h.454v-1.511h34.686V134zm-9.068-76.328h9.068V60.7h-6.046v37.214h6.046v3.023h-9.068z" stroke-width=".36" stroke="#000" fill-rule="evenodd" stroke-linecap="round" stroke-linejoin="round" fill="none"/></g></g><g id="sizes"><path class="cls-7" d="M49.616 255.672h24.14" id="LINE"/><path d="M37.834 274.03l8.7 2.571v1.483l-8.613-2.57v2.529h1.428v1.394H36.59v-5.407zM46.338 270.677a2.411 2.411 0 01-.854.951 3.41 3.41 0 01-1.347.488h-.007v-1.394h.007a1.293 1.293 0 00.851-.438 1.413 1.413 0 00.3-.943 1.261 1.261 0 00-.447-1.035 1.944 1.944 0 00-1.262-.367h-.829a1.931 1.931 0 00-1.255.367 1.261 1.261 0 00-.448 1.035 1.325 1.325 0 00.205.7 1.957 1.957 0 00.575.588v1.271H36.59v-5.065h1.327v3.665h2.235a1.969 1.969 0 01-.328-.581 1.9 1.9 0 01-.116-.656 2.886 2.886 0 01.355-1.474 2.284 2.284 0 011.039-.93 3.9 3.9 0 011.648-.317h.833a3.778 3.778 0 011.648.328 2.324 2.324 0 011.042.957 2.993 2.993 0 01.359 1.511 2.931 2.931 0 01-.294 1.339zM45.887 263.773a2.861 2.861 0 01-2.078.721h-4.518a2.854 2.854 0 01-2.082-.724 3.389 3.389 0 010-4.229 2.862 2.862 0 012.085-.721h4.518a2.856 2.856 0 012.082.725 3.379 3.379 0 010 4.228zm-.967-3.207a1.6 1.6 0 00-1.111-.351h-4.518a1.6 1.6 0 00-1.111.348 1.74 1.74 0 000 2.188 1.605 1.605 0 001.111.349h4.518a1.6 1.6 0 001.111-.352 1.735 1.735 0 000-2.182z"/><path class="cls-7" d="M49.605 282.311l-1.461-1.461" id="LINE-2" data-name="LINE"/><path class="cls-7" d="M51.066 280.85l-1.461 1.461" id="LINE-3" data-name="LINE"/><path class="cls-7" d="M49.616 255.736l1.461 1.461" id="LINE-4" data-name="LINE"/><path class="cls-7" d="M48.155 257.197l1.461-1.461" id="LINE-5" data-name="LINE"/><path class="cls-7" d="M49.616 282.311h23.876" id="LINE-6" data-name="LINE"/><path class="cls-7" d="M49.616 255.672v26.639"/><path class="cls-7" d="M49.616 11.006h24.14" id="LINE-7" data-name="LINE"/><path d="M46.28 31.164a2.282 2.282 0 01-1.025.947 3.718 3.718 0 01-1.624.325h-.006a5.547 5.547 0 01-1.163-.13 6.787 6.787 0 01-1.2-.376 3.026 3.026 0 01-.2-.089l-.194-.1-4.28-2.16v-1.5l4.956 2.536-.244-.007a1.2 1.2 0 01-.5-.5 1.583 1.583 0 01-.177-.765 2.44 2.44 0 01.348-1.326 2.175 2.175 0 011.015-.841 4.033 4.033 0 011.6-.287h.014a3.791 3.791 0 011.641.325 2.3 2.3 0 011.039.949 3.355 3.355 0 010 3zm-1.4-2.519a1.721 1.721 0 00-1.169-.359h-.006a1.967 1.967 0 00-1.289.376 1.315 1.315 0 00-.455 1.073 1.132 1.132 0 00.458.964 2.126 2.126 0 001.292.342h.007a1.7 1.7 0 001.166-.359 1.475 1.475 0 000-2.037zM43.8 25.183l-7.2-3.336v-1.436l7.116 3.254v-4.874h1.292v6.392zM40.685 20.9v-1.36h5.852v1.36zM46.338 15.643a2.411 2.411 0 01-.854.951 3.41 3.41 0 01-1.347.488h-.007v-1.4h.007a1.287 1.287 0 00.851-.437 1.415 1.415 0 00.3-.943 1.263 1.263 0 00-.447-1.036 1.944 1.944 0 00-1.262-.366h-.829a1.931 1.931 0 00-1.255.366 1.264 1.264 0 00-.448 1.036 1.325 1.325 0 00.205.7 1.957 1.957 0 00.575.588v1.271H36.59V11.8h1.327v3.671h2.235a1.969 1.969 0 01-.328-.581 1.9 1.9 0 01-.116-.657 2.885 2.885 0 01.355-1.473 2.284 2.284 0 011.039-.93 3.9 3.9 0 011.648-.317h.833a3.778 3.778 0 011.648.328 2.324 2.324 0 011.042.957 2.993 2.993 0 01.359 1.511 2.931 2.931 0 01-.294 1.334z"/><path class="cls-7" d="M49.605 32.733l-1.461-1.461" id="LINE-8" data-name="LINE"/><path class="cls-7" d="M51.066 31.272l-1.461 1.461" id="LINE-9" data-name="LINE"/><path class="cls-7" d="M49.616 11.006l1.461 1.462" id="LINE-10" data-name="LINE"/><path class="cls-7" d="M48.155 12.468l1.461-1.462" id="LINE-11" data-name="LINE"/><path class="cls-7" d="M49.616 32.733h23.876" id="LINE-12" data-name="LINE"/><path class="cls-7" d="M49.616 11.006v21.727"/><path class="cls-7" d="M49.616 172.519h24.14" id="LINE-13" data-name="LINE"/><path d="M45.32 226.608l-4.62-3.465a3.393 3.393 0 00-.824-.468 2.165 2.165 0 00-.8-.168h-.014a1.207 1.207 0 00-.923.348 1.392 1.392 0 00-.328.992 1.368 1.368 0 00.359.984 1.629 1.629 0 001.015.458h.015v1.442h-.007a3.721 3.721 0 01-1.459-.5 2.552 2.552 0 01-.923-.981 2.924 2.924 0 01-.318-1.388 3.454 3.454 0 01.3-1.517 2.136 2.136 0 01.885-.957 2.806 2.806 0 011.4-.328h.006a3.1 3.1 0 011.1.218 4.713 4.713 0 011.107.609l3.911 2.878V221h1.328v5.605zM46.53 216.826v1.4h-8.422l.868 1.415h-1.442l-.944-1.415v-1.4zM46.28 213.5a2.288 2.288 0 01-1.025.947 3.718 3.718 0 01-1.624.324h-.006a5.61 5.61 0 01-1.163-.129 6.787 6.787 0 01-1.2-.376 3.026 3.026 0 01-.2-.089l-.194-.1-4.28-2.16v-1.5l4.956 2.536-.246-.007a1.2 1.2 0 01-.5-.5 1.586 1.586 0 01-.177-.765 2.446 2.446 0 01.348-1.327 2.179 2.179 0 011.015-.84 4.032 4.032 0 011.6-.288h.016a3.791 3.791 0 011.641.326 2.289 2.289 0 011.039.949 3.355 3.355 0 010 3zm-1.4-2.52a1.726 1.726 0 00-1.169-.358h-.006a1.967 1.967 0 00-1.289.376 1.314 1.314 0 00-.455 1.073 1.132 1.132 0 00.458.964 2.126 2.126 0 001.292.342h.007a1.7 1.7 0 001.166-.36 1.475 1.475 0 000-2.037zM45.887 206.665a2.861 2.861 0 01-2.078.721h-4.518a2.85 2.85 0 01-2.082-.725 3.388 3.388 0 010-4.228 2.858 2.858 0 012.085-.721h4.518a2.852 2.852 0 012.082.725 3.379 3.379 0 010 4.228zm-.967-3.207a1.6 1.6 0 00-1.111-.352h-4.518a1.605 1.605 0 00-1.111.349 1.74 1.74 0 000 2.188 1.6 1.6 0 001.111.348h4.518a1.6 1.6 0 001.111-.351 1.735 1.735 0 000-2.182z"/><path class="cls-7" d="M49.605 255.672l-1.461-1.461" id="LINE-14" data-name="LINE"/><path class="cls-7" d="M51.066 254.211l-1.461 1.461" id="LINE-15" data-name="LINE"/><path class="cls-7" d="M49.616 172.519l1.461 1.461" id="LINE-16" data-name="LINE"/><path class="cls-7" d="M48.155 173.98l1.461-1.461" id="LINE-17" data-name="LINE"/><path class="cls-7" d="M49.616 255.672h23.876" id="LINE-18" data-name="LINE"/><path class="cls-7" d="M49.616 172.519v83.153"/><path class="cls-7" d="M49.616 98.871h24.14" id="LINE-19" data-name="LINE"/><path d="M46.53 145.957v1.4h-8.422l.868 1.415h-1.442l-.944-1.415v-1.4zM41.594 140.181l.246.006a1.032 1.032 0 01.462.516 2.082 2.082 0 01.147.818 2.188 2.188 0 01-.363 1.25 2.361 2.361 0 01-1.022.838 3.685 3.685 0 01-1.527.3h-.007a3.823 3.823 0 01-1.648-.324 2.293 2.293 0 01-1.039-.951 2.986 2.986 0 01-.355-1.5 2.922 2.922 0 01.362-1.5 2.325 2.325 0 011.053-.947 3.884 3.884 0 011.661-.325h.007a5.184 5.184 0 011.138.137 6.993 6.993 0 011.2.39l.181.082c.061.027.122.056.181.089l4.259 2.119v1.5zm-.861-.066a1.949 1.949 0 00-1.251-.358h-.007a1.857 1.857 0 00-1.217.358 1.421 1.421 0 000 2.037 1.852 1.852 0 001.224.36h.007a1.918 1.918 0 001.247-.36 1.393 1.393 0 000-2.037zM41.594 133l.246.007a1.024 1.024 0 01.462.516 2.074 2.074 0 01.147.817 2.189 2.189 0 01-.363 1.251 2.368 2.368 0 01-1.022.838 3.7 3.7 0 01-1.527.3h-.007a3.823 3.823 0 01-1.648-.325 2.288 2.288 0 01-1.039-.951 2.986 2.986 0 01-.355-1.5 2.922 2.922 0 01.362-1.5 2.323 2.323 0 011.05-.953 3.869 3.869 0 011.661-.325h.007a5.241 5.241 0 011.138.136 6.993 6.993 0 011.2.39l.181.082c.062.027.122.057.181.089l4.259 2.119v1.5zm-.861-.065a1.943 1.943 0 00-1.251-.359h-.007a1.852 1.852 0 00-1.217.359 1.421 1.421 0 000 2.037 1.857 1.857 0 001.224.359h.007a1.924 1.924 0 001.247-.359 1.393 1.393 0 000-2.037zM45.887 128.611a2.861 2.861 0 01-2.078.721h-4.518a2.85 2.85 0 01-2.082-.725 3.388 3.388 0 010-4.228 2.858 2.858 0 012.085-.721h4.518a2.852 2.852 0 012.082.725 3.379 3.379 0 010 4.228zm-.967-3.211a1.6 1.6 0 00-1.111-.351h-4.518a1.6 1.6 0 00-1.111.348 1.74 1.74 0 000 2.188 1.6 1.6 0 001.111.348h4.518a1.6 1.6 0 001.111-.351 1.735 1.735 0 000-2.182z"/><path class="cls-7" d="M49.605 172.53l-1.461-1.461" id="LINE-20" data-name="LINE"/><path class="cls-7" d="M51.066 171.069l-1.461 1.461" id="LINE-21" data-name="LINE"/><path class="cls-7" d="M49.616 98.871l1.461 1.462" id="LINE-22" data-name="LINE"/><path class="cls-7" d="M48.155 100.333l1.461-1.462" id="LINE-23" data-name="LINE"/><path class="cls-7" d="M49.616 172.53h23.876" id="LINE-24" data-name="LINE"/><path class="cls-7" d="M49.616 98.871v73.659"/><path class="cls-7" d="M49.616 32.764h24.14" id="LINE-25" data-name="LINE"/><path d="M46.53 76.29v1.395h-8.422l.868 1.415h-1.442l-.944-1.415V76.29zM37.834 68.9l8.7 2.571v1.483l-8.613-2.57v2.529h1.428v1.4H36.59V68.9zM46.53 64.587v1.394h-8.422l.868 1.415h-1.442l-.944-1.415v-1.394zM45.887 61.61a2.861 2.861 0 01-2.078.721h-4.518a2.85 2.85 0 01-2.082-.725 3.388 3.388 0 010-4.228 2.858 2.858 0 012.085-.721h4.518a2.852 2.852 0 012.082.725 3.379 3.379 0 010 4.228zm-.967-3.21a1.6 1.6 0 00-1.111-.351h-4.518a1.6 1.6 0 00-1.111.348 1.74 1.74 0 000 2.188 1.605 1.605 0 001.111.349h4.518a1.6 1.6 0 001.111-.352 1.735 1.735 0 000-2.182z"/><path class="cls-7" d="M49.605 98.859l-1.461-1.461" id="LINE-26" data-name="LINE"/><path class="cls-7" d="M51.066 97.398l-1.461 1.461" id="LINE-27" data-name="LINE"/><path class="cls-7" d="M49.616 32.764l1.461 1.461" id="LINE-28" data-name="LINE"/><path class="cls-7" d="M48.155 34.225l1.461-1.461" id="LINE-29" data-name="LINE"/><path class="cls-7" d="M49.616 98.859h23.876" id="LINE-30" data-name="LINE"/><path class="cls-7" d="M49.616 32.764v66.095"/><path class="cls-7" d="M15.267 286.468L15.056 5.716" id="LINE-31" data-name="LINE"/><path d="M3.274 154.475l8.7 2.57v1.483l-8.614-2.57v2.529h1.425v1.4H2.03v-5.407zM9.235 153.244l-7.2-3.336v-1.435l7.116 3.254v-4.874h1.292v6.391zm-3.11-4.286V147.6h5.852v1.36zM12.072 143.407l-.3.636a2.507 2.507 0 01-.882 1.022 3.191 3.191 0 01-1.391.489v-1.422a1.5 1.5 0 00.7-.267 1.225 1.225 0 00.407-.53 1.992 1.992 0 00.133-.762 1.483 1.483 0 00-.369-1.073 1.376 1.376 0 00-1.039-.383h-.3a1.676 1.676 0 00-1.151.362 1.3 1.3 0 00-.407 1.026v.7H6.139v-.7a1.164 1.164 0 00-.349-.9 1.4 1.4 0 00-.984-.322H4.5a1.192 1.192 0 00-.909.339 1.339 1.339 0 00-.321.96 1.462 1.462 0 00.133.636 1.2 1.2 0 00.41.474 1.87 1.87 0 00.694.285v1.415a3.632 3.632 0 01-1.395-.516 2.523 2.523 0 01-.881-.961 2.855 2.855 0 01-.3-1.333 2.757 2.757 0 01.676-1.989 2.521 2.521 0 011.908-.7h.164a2.15 2.15 0 011.3.4 2.272 2.272 0 01.806 1.142 2.027 2.027 0 01.8-1.261 2.645 2.645 0 011.586-.448h.164a3.051 3.051 0 011.483.335 2.2 2.2 0 01.937.974 3.4 3.4 0 01.321 1.541zM11.327 137.02a2.865 2.865 0 01-2.078.72H4.73a2.853 2.853 0 01-2.081-.724 3.389 3.389 0 010-4.229 2.861 2.861 0 012.084-.721h4.516a2.856 2.856 0 012.082.725 3.38 3.38 0 010 4.229zm-.967-3.208a1.6 1.6 0 00-1.111-.351H4.73a1.6 1.6 0 00-1.11.349 1.738 1.738 0 000 2.187 1.6 1.6 0 001.11.349h4.519a1.591 1.591 0 001.111-.352 1.735 1.735 0 000-2.182z"/><path class="cls-7" d="M15.045 5.716l1.461 1.461" id="LINE-32" data-name="LINE"/><path class="cls-7" d="M13.584 7.177l1.461-1.461" id="LINE-33" data-name="LINE"/><path class="cls-7" d="M15.27 286.468l-1.461-1.461" id="LINE-34" data-name="LINE"/><path class="cls-7" d="M16.731 285.007l-1.461 1.461" id="LINE-35" data-name="LINE"/><path class="cls-7" d="M24.719 286.468H15.27M24.719 5.716h-9.665"/><path class="cls-7" d="M66.337 302.132v-15.844" id="LINE-36" data-name="LINE"/><path class="cls-7" d="M23.757 302.173v-15.844" id="LINE-37" data-name="LINE"/><path class="cls-7" d="M23.757 302.158l42.58-.032" id="LINE-38" data-name="LINE"/><path d="M34.948 299.367h-1.4v-8.422l-1.415.868v-1.442l1.415-.944h1.4zM37.924 298.724a2.865 2.865 0 01-.72-2.078v-4.519a2.853 2.853 0 01.724-2.081 3.391 3.391 0 014.229 0 2.863 2.863 0 01.72 2.085v4.519a2.856 2.856 0 01-.724 2.082 3.38 3.38 0 01-4.229 0zm3.207-.967a1.591 1.591 0 00.352-1.111v-4.519a1.6 1.6 0 00-.349-1.11 1.738 1.738 0 00-2.187 0 1.6 1.6 0 00-.349 1.11v4.519a1.591 1.591 0 00.352 1.111 1.733 1.733 0 002.181 0zM50.062 290.671l-2.57 8.7h-1.484l2.571-8.614h-2.53v1.429h-1.394v-2.755h5.407zM53.416 299.175a2.414 2.414 0 01-.952-.854 3.41 3.41 0 01-.488-1.347v-.007h1.4v.007a1.287 1.287 0 00.437.851 1.415 1.415 0 00.943.3 1.263 1.263 0 001.036-.447 1.944 1.944 0 00.366-1.262v-.834a1.93 1.93 0 00-.366-1.254 1.264 1.264 0 00-1.036-.448 1.325 1.325 0 00-.7.2 1.956 1.956 0 00-.588.575H52.2v-5.237h5.06v1.326h-3.671v2.236a1.982 1.982 0 01.581-.328 1.9 1.9 0 01.657-.117 2.885 2.885 0 011.473.356 2.279 2.279 0 01.93 1.039 3.9 3.9 0 01.317 1.647v.834a3.778 3.778 0 01-.328 1.648 2.329 2.329 0 01-.957 1.042 2.993 2.993 0 01-1.511.359 2.924 2.924 0 01-1.335-.285z"/><path class="cls-7" d="M66.426 302.111l-1.462 1.461" id="LINE-39" data-name="LINE"/><path class="cls-7" d="M64.964 300.65l1.462 1.461" id="LINE-40" data-name="LINE"/><path class="cls-7" d="M23.735 302.213l1.461-1.461" id="LINE-41" data-name="LINE"/><path class="cls-7" d="M25.196 303.674l-1.461-1.461" id="LINE-42" data-name="LINE"/><path class="cls-7" d="M337.069 246.792h11.424" id="LINE-43" data-name="LINE"/><path class="cls-7" d="M337.069 208.118h11.424" id="LINE-44" data-name="LINE"/><path class="cls-7" d="M337.068 208.118v38.674" id="LINE-45" data-name="LINE"/><path d="M333.434 236.48v1.4h-8.422l.868 1.415h-1.442l-.943-1.415v-1.4zM333.434 231.825v1.4h-8.422l.868 1.415h-1.442l-.943-1.415v-1.4zM332.792 228.849a2.869 2.869 0 01-2.079.72H326.2a2.856 2.856 0 01-2.082-.724 3.393 3.393 0 010-4.229 2.861 2.861 0 012.085-.72h4.518a2.856 2.856 0 012.082.724 3.379 3.379 0 010 4.229zm-.968-3.207a1.591 1.591 0 00-1.111-.352H326.2a1.6 1.6 0 00-1.111.349 1.742 1.742 0 000 2.187 1.6 1.6 0 001.111.349h4.518a1.591 1.591 0 001.111-.352 1.733 1.733 0 000-2.181zM332.792 221.124a2.869 2.869 0 01-2.079.721H326.2a2.852 2.852 0 01-2.082-.725 3.391 3.391 0 010-4.228 2.858 2.858 0 012.085-.721h4.518a2.852 2.852 0 012.082.725 3.377 3.377 0 010 4.228zm-.968-3.207a1.6 1.6 0 00-1.111-.352H326.2a1.605 1.605 0 00-1.111.349 1.743 1.743 0 000 2.188 1.6 1.6 0 001.111.348h4.518a1.6 1.6 0 001.111-.351 1.735 1.735 0 000-2.182z"/><path class="cls-7" d="M337.068 246.792l-1.461-1.461" id="LINE-46" data-name="LINE"/><path class="cls-7" d="M338.529 245.331l-1.461 1.461" id="LINE-47" data-name="LINE"/><path class="cls-7" d="M337.069 208.118l1.461 1.461" id="LINE-48" data-name="LINE"/><path class="cls-7" d="M335.608 209.579l1.461-1.461" id="LINE-49" data-name="LINE"/><path class="cls-7" d="M337.069 282.311h11.424" id="LINE-50" data-name="LINE"/><path class="cls-7" d="M337.069 246.792h11.424" id="LINE-51" data-name="LINE"/><path class="cls-7" d="M337.068 246.792v35.519" id="LINE-52" data-name="LINE"/><path d="M328.5 267.36l.246.007a1.027 1.027 0 01.461.516 2.077 2.077 0 01.147.817 2.2 2.2 0 01-.362 1.251 2.367 2.367 0 01-1.022.838 3.706 3.706 0 01-1.528.3h-.007a3.818 3.818 0 01-1.647-.324 2.283 2.283 0 01-1.039-.951 2.986 2.986 0 01-.356-1.5 2.939 2.939 0 01.362-1.5 2.328 2.328 0 011.053-.946 3.872 3.872 0 011.661-.325h.007a5.177 5.177 0 011.138.137 6.933 6.933 0 011.2.389c.059.028.12.055.181.082s.122.057.181.089l4.259 2.119v1.5zm-.862-.065a1.949 1.949 0 00-1.251-.358h-.007a1.854 1.854 0 00-1.216.358 1.419 1.419 0 000 2.037 1.854 1.854 0 001.223.359h.007a1.925 1.925 0 001.248-.359 1.392 1.392 0 000-2.037zM330.7 264.38l-7.2-3.336v-1.436l7.117 3.254v-4.874h1.292v6.392zm-3.111-4.286v-1.361h5.852v1.361zM333.243 254.84a2.413 2.413 0 01-.855.951 3.406 3.406 0 01-1.346.488h-.007v-1.394h.007a1.3 1.3 0 00.851-.438 1.419 1.419 0 00.3-.943 1.261 1.261 0 00-.448-1.035 1.941 1.941 0 00-1.261-.366h-.834a1.933 1.933 0 00-1.255.366 1.261 1.261 0 00-.447 1.035 1.314 1.314 0 00.2.7 1.941 1.941 0 00.574.588v1.272H323.5V251h1.326v3.671h2.235a1.992 1.992 0 01-.328-.581 1.9 1.9 0 01-.116-.656 2.886 2.886 0 01.355-1.474 2.289 2.289 0 011.039-.93 3.9 3.9 0 011.648-.317h.834a3.773 3.773 0 011.647.328 2.331 2.331 0 011.043.957 3 3 0 01.359 1.511 2.944 2.944 0 01-.299 1.331z"/><path class="cls-7" d="M337.068 282.311l-1.461-1.461" id="LINE-53" data-name="LINE"/><path class="cls-7" d="M338.529 280.85l-1.461 1.461" id="LINE-54" data-name="LINE"/><path class="cls-7" d="M337.069 246.792l1.461 1.461" id="LINE-55" data-name="LINE"/><path class="cls-7" d="M335.608 248.253l1.461-1.461" id="LINE-56" data-name="LINE"/><path class="cls-7" d="M337.069 208.118h11.424" id="LINE-57" data-name="LINE"/><path class="cls-7" d="M337.068 134v74.118" id="LINE-58" data-name="LINE"/><path d="M333.434 181.647v1.4h-8.422l.868 1.415h-1.442l-.943-1.415v-1.4zM333.2 178.065a2.5 2.5 0 01-.967 1.057 2.79 2.79 0 01-1.453.372h-.164a2.8 2.8 0 01-1.4-.372 2.5 2.5 0 01-.991-1 2.179 2.179 0 01-.83.845 2.244 2.244 0 01-1.145.317H326a2.641 2.641 0 01-1.37-.349 2.356 2.356 0 01-.916-.984 3.516 3.516 0 010-2.953 2.356 2.356 0 01.916-.984 2.641 2.641 0 011.37-.349h.24a2.2 2.2 0 011.16.335 2.158 2.158 0 01.82.858 2.576 2.576 0 011-1.008 2.726 2.726 0 011.4-.38h.164a2.79 2.79 0 011.453.372 2.5 2.5 0 01.967 1.057 3.846 3.846 0 010 3.171zm-5.671-2.324a1.248 1.248 0 00-.516-.5 1.628 1.628 0 00-.772-.178h-.1a1.5 1.5 0 00-.738.178 1.229 1.229 0 00-.5.5 1.654 1.654 0 000 1.477 1.229 1.229 0 00.5.5 1.517 1.517 0 00.745.178h.1a1.593 1.593 0 00.762-.178 1.25 1.25 0 00.512-.5 1.589 1.589 0 000-1.477zm4.481-.116a1.376 1.376 0 00-.536-.571 1.555 1.555 0 00-.8-.2h-.1a1.568 1.568 0 00-.8.2 1.376 1.376 0 00-.536.571 2 2 0 000 1.709 1.366 1.366 0 00.54.571 1.583 1.583 0 00.806.2h.1a1.535 1.535 0 00.793-.2 1.368 1.368 0 00.53-.571 1.863 1.863 0 00.188-.855 1.825 1.825 0 00-.19-.854zM333.2 170.19a2.5 2.5 0 01-.967 1.057 2.79 2.79 0 01-1.453.372h-.164a2.8 2.8 0 01-1.4-.372 2.5 2.5 0 01-.991-1 2.179 2.179 0 01-.83.845 2.244 2.244 0 01-1.145.317H326a2.641 2.641 0 01-1.37-.349 2.356 2.356 0 01-.916-.984 3.516 3.516 0 010-2.953 2.356 2.356 0 01.916-.984 2.641 2.641 0 011.37-.339h.24a2.2 2.2 0 011.155.325 2.158 2.158 0 01.82.858 2.576 2.576 0 011-1.008 2.726 2.726 0 011.4-.38h.164a2.79 2.79 0 011.453.372 2.5 2.5 0 01.967 1.057 3.846 3.846 0 010 3.171zm-5.671-2.324a1.248 1.248 0 00-.516-.5 1.628 1.628 0 00-.772-.178h-.1a1.5 1.5 0 00-.738.178 1.229 1.229 0 00-.5.5 1.654 1.654 0 000 1.477 1.229 1.229 0 00.5.5 1.517 1.517 0 00.745.178h.1a1.593 1.593 0 00.762-.178 1.25 1.25 0 00.512-.5 1.589 1.589 0 000-1.477zm4.481-.116a1.376 1.376 0 00-.536-.571 1.555 1.555 0 00-.8-.2h-.1a1.568 1.568 0 00-.8.2 1.376 1.376 0 00-.536.571 2 2 0 000 1.709 1.366 1.366 0 00.54.571 1.583 1.583 0 00.806.2h.1a1.535 1.535 0 00.793-.2 1.368 1.368 0 00.53-.571 1.863 1.863 0 00.188-.855 1.825 1.825 0 00-.19-.854zM333.243 162.2a2.407 2.407 0 01-.855.951 3.406 3.406 0 01-1.346.489h-.007v-1.395h.007a1.3 1.3 0 00.851-.437 1.423 1.423 0 00.3-.944 1.261 1.261 0 00-.448-1.035 1.941 1.941 0 00-1.261-.366h-.834a1.933 1.933 0 00-1.255.366 1.261 1.261 0 00-.447 1.035 1.314 1.314 0 00.2.7 1.941 1.941 0 00.574.588v1.272H323.5v-5.066h1.326v3.671h2.235a1.992 1.992 0 01-.328-.581 1.9 1.9 0 01-.116-.656 2.891 2.891 0 01.355-1.474 2.287 2.287 0 011.039-.929 3.9 3.9 0 011.648-.318h.834a3.788 3.788 0 011.647.328 2.337 2.337 0 011.043.957 3 3 0 01.359 1.511 2.944 2.944 0 01-.299 1.333z"/><path class="cls-7" d="M337.068 208.118l-1.461-1.461" id="LINE-59" data-name="LINE"/><path class="cls-7" d="M338.529 206.657l-1.461 1.461" id="LINE-60" data-name="LINE"/><path class="cls-7" d="M337.069 134l1.461 1.461" id="LINE-61" data-name="LINE"/><path class="cls-7" d="M335.608 135.461l1.461-1.461" id="LINE-62" data-name="LINE"/><path class="cls-7" d="M107.363 11.006v119.972" id="LINE-63" data-name="LINE"/><path d="M103.9 83.136l-.305.635a2.5 2.5 0 01-.882 1.023 3.178 3.178 0 01-1.391.488V83.86a1.513 1.513 0 00.7-.266 1.239 1.239 0 00.406-.531 1.983 1.983 0 00.134-.761 1.481 1.481 0 00-.369-1.073 1.38 1.38 0 00-1.04-.383h-.3a1.677 1.677 0 00-1.152.362 1.3 1.3 0 00-.407 1.025v.7h-1.332v-.7a1.163 1.163 0 00-.349-.9 1.4 1.4 0 00-.984-.321h-.308a1.188 1.188 0 00-.909.339 1.337 1.337 0 00-.321.96 1.454 1.454 0 00.133.635 1.215 1.215 0 00.41.475 1.853 1.853 0 00.694.284v1.415a3.643 3.643 0 01-1.394-.515 2.525 2.525 0 01-.882-.961 2.855 2.855 0 01-.3-1.333 2.758 2.758 0 01.677-1.99 2.522 2.522 0 011.907-.7h.164a2.146 2.146 0 011.3.4 2.269 2.269 0 01.8 1.139 2.027 2.027 0 01.8-1.261 2.654 2.654 0 011.586-.448h.164a3.055 3.055 0 011.484.335 2.212 2.212 0 01.936.975 3.386 3.386 0 01.33 1.539zM102.583 77.619l-4.621-3.466a3.421 3.421 0 00-.824-.467 2.16 2.16 0 00-.8-.168h-.014a1.208 1.208 0 00-.923.348 1.4 1.4 0 00-.328.991 1.369 1.369 0 00.359.985 1.631 1.631 0 001.015.458h.007v1.442h-.007a3.721 3.721 0 01-1.459-.5 2.559 2.559 0 01-.923-.981 2.927 2.927 0 01-.318-1.388 3.463 3.463 0 01.3-1.517 2.144 2.144 0 01.885-.958 2.82 2.82 0 011.4-.328h.007a3.1 3.1 0 011.1.219 4.739 4.739 0 011.108.609l3.91 2.877v-3.761h1.326v5.605zM101.059 70.783l-7.2-3.336v-1.435l7.117 3.254v-4.874h1.292v6.391zM97.948 66.5v-1.36h5.852v1.36zM103.6 61.243a2.407 2.407 0 01-.855.951 3.405 3.405 0 01-1.347.489h-.006v-1.4h.006a1.292 1.292 0 00.851-.437 1.418 1.418 0 00.3-.944 1.261 1.261 0 00-.448-1.035 1.941 1.941 0 00-1.261-.366h-.834a1.933 1.933 0 00-1.255.366 1.261 1.261 0 00-.447 1.035 1.314 1.314 0 00.2.7 1.941 1.941 0 00.574.588v1.272h-5.224V57.4h1.326v3.671h2.235a1.992 1.992 0 01-.328-.581 1.9 1.9 0 01-.116-.656 2.891 2.891 0 01.355-1.474 2.287 2.287 0 011.039-.929 3.9 3.9 0 011.648-.318h.834a3.788 3.788 0 011.647.328 2.337 2.337 0 011.043.957 3 3 0 01.359 1.511 2.944 2.944 0 01-.296 1.334z"/><path class="cls-7" d="M107.363 130.978l-1.461-1.461" id="LINE-64" data-name="LINE"/><path class="cls-7" d="M108.824 129.517l-1.461 1.461" id="LINE-65" data-name="LINE"/><path class="cls-7" d="M107.364 11.006l1.461 1.462" id="LINE-66" data-name="LINE"/><path class="cls-7" d="M105.902 12.468l1.462-1.462" id="LINE-67" data-name="LINE"/><path class="cls-7" d="M275.577 27.192H90.068" id="LINE-68" data-name="LINE"/><path d="M168.337 20.95l3.336-7.2h1.435l-3.254 7.116h4.875v1.294h-6.392zm4.286-3.11h1.36v5.851h-1.36zM177.764 23.445a2.5 2.5 0 01-1.057-.967 2.788 2.788 0 01-.372-1.453v-.164a2.8 2.8 0 01.372-1.4 2.489 2.489 0 011-.991 2.2 2.2 0 01-.845-.831 2.241 2.241 0 01-.317-1.145v-.239a2.642 2.642 0 01.349-1.371 2.362 2.362 0 01.984-.916 3.526 3.526 0 012.953 0 2.371 2.371 0 01.985.916 2.651 2.651 0 01.348 1.371v.239a2.2 2.2 0 01-.325 1.155 2.165 2.165 0 01-.857.821 2.571 2.571 0 011.007.994 2.728 2.728 0 01.38 1.4v.164a2.788 2.788 0 01-.372 1.453 2.5 2.5 0 01-1.056.967 3.848 3.848 0 01-3.172 0zm2.44-1.189a1.384 1.384 0 00.571-.537 1.552 1.552 0 00.2-.8v-.1a1.567 1.567 0 00-.2-.8 1.384 1.384 0 00-.571-.537 2.007 2.007 0 00-1.709 0 1.384 1.384 0 00-.571.54 1.59 1.59 0 00-.2.807v.1a1.534 1.534 0 00.2.792 1.362 1.362 0 00.571.53 2.021 2.021 0 001.709 0zm-.116-4.481a1.254 1.254 0 00.5-.516 1.63 1.63 0 00.178-.773v-.1a1.51 1.51 0 00-.178-.739 1.226 1.226 0 00-.5-.495 1.646 1.646 0 00-1.477 0 1.226 1.226 0 00-.5.495 1.523 1.523 0 00-.177.745v.1a1.593 1.593 0 00.177.762 1.258 1.258 0 00.5.513 1.6 1.6 0 001.477 0zM187.833 18.749l-.007.246a1.031 1.031 0 01-.515.462 2.082 2.082 0 01-.818.147 2.194 2.194 0 01-1.251-.363 2.375 2.375 0 01-.838-1.022 3.706 3.706 0 01-.3-1.528v-.006a3.823 3.823 0 01.325-1.648 2.288 2.288 0 01.954-1.037 2.986 2.986 0 011.5-.355 2.922 2.922 0 011.5.362 2.323 2.323 0 01.946 1.053 3.869 3.869 0 01.325 1.661v.007a5.248 5.248 0 01-.136 1.138 6.955 6.955 0 01-.39 1.2l-.082.182a2.335 2.335 0 01-.089.181l-2.119 4.259h-1.5zm.065-.861a1.947 1.947 0 00.359-1.251v-.007a1.852 1.852 0 00-.359-1.217 1.419 1.419 0 00-2.037 0 1.857 1.857 0 00-.359 1.224v.007a1.924 1.924 0 00.359 1.247 1.393 1.393 0 002.037 0zM192.218 23.042a2.862 2.862 0 01-.721-2.078v-4.519a2.848 2.848 0 01.725-2.081 3.39 3.39 0 014.228 0 2.859 2.859 0 01.721 2.085v4.519a2.559 2.559 0 01-2.837 2.823 2.812 2.812 0 01-2.116-.749zm3.207-.967a1.6 1.6 0 00.351-1.111v-4.519a1.607 1.607 0 00-.348-1.111 1.743 1.743 0 00-2.188 0 1.607 1.607 0 00-.348 1.111v4.519a1.6 1.6 0 00.351 1.111 1.735 1.735 0 002.182 0z"/><path class="cls-7" d="M90.068 27.192l1.461-1.461" id="LINE-69" data-name="LINE"/><path class="cls-7" d="M91.529 28.653l-1.461-1.461" id="LINE-70" data-name="LINE"/><path class="cls-7" d="M275.577 27.193l-1.462 1.461" id="LINE-71" data-name="LINE"/><path class="cls-7" d="M274.115 25.731l1.462 1.462" id="LINE-72" data-name="LINE"/><path class="cls-7" d="M346.038 275.493H90.068" id="LINE-73" data-name="LINE"/><path d="M225.786 271.736a2.288 2.288 0 01-.947-1.025 3.718 3.718 0 01-.324-1.624v-.006a5.547 5.547 0 01.13-1.163 6.625 6.625 0 01.376-1.2c.027-.068.056-.136.088-.2s.064-.131.1-.195l2.16-4.28h1.5L226.333 267l.007-.246a1.2 1.2 0 01.5-.5 1.589 1.589 0 01.765-.177 2.444 2.444 0 011.327.348 2.179 2.179 0 01.84 1.015 4.032 4.032 0 01.288 1.6v.007a3.791 3.791 0 01-.326 1.641 2.289 2.289 0 01-.949 1.039 3.355 3.355 0 01-3 0zm2.52-1.4a1.726 1.726 0 00.358-1.169v-.006a1.967 1.967 0 00-.376-1.289 1.314 1.314 0 00-1.073-.455 1.133 1.133 0 00-.964.458 2.126 2.126 0 00-.342 1.292v.007a1.7 1.7 0 00.36 1.166 1.473 1.473 0 002.037 0zM233.23 271.747a2.5 2.5 0 01-1.056-.968 2.786 2.786 0 01-.372-1.452v-.164a2.8 2.8 0 01.372-1.4 2.5 2.5 0 011-.991 2.175 2.175 0 01-.845-.831 2.241 2.241 0 01-.317-1.145v-.239a2.65 2.65 0 01.348-1.37 2.364 2.364 0 01.985-.916 3.516 3.516 0 012.953 0 2.356 2.356 0 01.984.916 2.641 2.641 0 01.349 1.37v.239a2.2 2.2 0 01-.325 1.156 2.158 2.158 0 01-.858.82 2.576 2.576 0 011.008 1 2.726 2.726 0 01.38 1.4v.164a2.786 2.786 0 01-.372 1.452 2.5 2.5 0 01-1.057.968 3.859 3.859 0 01-3.172 0zm2.441-1.19a1.388 1.388 0 00.571-.536 1.555 1.555 0 00.2-.8v-.1a1.567 1.567 0 00-.2-.8 1.382 1.382 0 00-.571-.536 2 2 0 00-1.709 0 1.366 1.366 0 00-.571.54 1.584 1.584 0 00-.2.806v.1a1.536 1.536 0 00.2.793 1.368 1.368 0 00.571.53 1.862 1.862 0 00.854.188 1.826 1.826 0 00.855-.185zm-.116-4.481a1.248 1.248 0 00.5-.516 1.628 1.628 0 00.177-.772v-.1a1.5 1.5 0 00-.177-.738 1.222 1.222 0 00-.5-.5 1.654 1.654 0 00-1.477 0 1.222 1.222 0 00-.5.5 1.517 1.517 0 00-.178.745v.1a1.593 1.593 0 00.178.762 1.246 1.246 0 00.5.513 1.6 1.6 0 001.477 0zM239.629 270.776l3.466-4.621a3.46 3.46 0 00.468-.824 2.182 2.182 0 00.167-.8v-.014a1.208 1.208 0 00-.348-.923 1.391 1.391 0 00-.991-.328 1.369 1.369 0 00-.985.359 1.631 1.631 0 00-.458 1.015v.007h-1.442v-.007a3.721 3.721 0 01.5-1.459 2.559 2.559 0 01.981-.923 2.93 2.93 0 011.388-.318 3.456 3.456 0 011.518.3 2.146 2.146 0 01.957.885 2.82 2.82 0 01.328 1.4v.007a3.1 3.1 0 01-.219 1.1 4.771 4.771 0 01-.608 1.108l-2.878 3.91h3.759v1.326h-5.605zM247.732 271.343a2.865 2.865 0 01-.72-2.078v-4.518a2.856 2.856 0 01.724-2.082 3.389 3.389 0 014.229 0 2.862 2.862 0 01.721 2.085v4.518a2.856 2.856 0 01-.725 2.082 3.38 3.38 0 01-4.229 0zm3.207-.967a1.591 1.591 0 00.352-1.111v-4.518a1.6 1.6 0 00-.349-1.111 1.742 1.742 0 00-2.187 0 1.6 1.6 0 00-.349 1.111v4.518a1.591 1.591 0 00.352 1.111 1.733 1.733 0 002.181 0z"/><path class="cls-7" d="M90.068 275.493l1.461-1.461" id="LINE-74" data-name="LINE"/><path class="cls-7" d="M91.529 276.954l-1.461-1.461" id="LINE-75" data-name="LINE"/><path class="cls-7" d="M346.038 275.494l-1.461 1.461" id="LINE-76" data-name="LINE"/><path class="cls-7" d="M344.577 274.033l1.461 1.461" id="LINE-77" data-name="LINE"/><path class="cls-7" d="M107.363 134.158v148.153" id="LINE-78" data-name="LINE"/><path d="M103.9 180.741l-.305.636a2.492 2.492 0 01-.882 1.022 3.191 3.191 0 01-1.391.489v-1.422a1.5 1.5 0 00.7-.267 1.236 1.236 0 00.406-.53 1.992 1.992 0 00.134-.762 1.483 1.483 0 00-.369-1.073 1.38 1.38 0 00-1.04-.383h-.3a1.677 1.677 0 00-1.152.362 1.3 1.3 0 00-.407 1.026v.7h-1.332v-.7a1.161 1.161 0 00-.349-.9 1.4 1.4 0 00-.984-.322h-.308a1.192 1.192 0 00-.909.339 1.339 1.339 0 00-.321.96 1.462 1.462 0 00.133.636 1.212 1.212 0 00.41.474 1.87 1.87 0 00.694.285v1.415a3.627 3.627 0 01-1.394-.516 2.518 2.518 0 01-.882-.961 2.855 2.855 0 01-.3-1.333 2.757 2.757 0 01.677-1.989 2.519 2.519 0 011.907-.7h.164a2.145 2.145 0 011.3.4 2.272 2.272 0 01.806 1.142 2.027 2.027 0 01.8-1.261 2.647 2.647 0 011.586-.448h.164a3.055 3.055 0 011.484.335 2.2 2.2 0 01.936.974 3.389 3.389 0 01.322 1.541zM98.857 171.554l.247.007a1.029 1.029 0 01.461.515 2.082 2.082 0 01.147.818 2.2 2.2 0 01-.362 1.251 2.372 2.372 0 01-1.022.837 3.693 3.693 0 01-1.528.3h-.007a3.815 3.815 0 01-1.647-.324 2.291 2.291 0 01-1.04-.951 3 3 0 01-.355-1.5 2.932 2.932 0 01.362-1.5 2.323 2.323 0 011.053-.946 3.868 3.868 0 011.661-.326h.007a5.184 5.184 0 011.138.137 6.993 6.993 0 011.2.39l.181.082c.062.027.122.056.181.089l4.259 2.119v1.5zm-.857-.066a1.949 1.949 0 00-1.251-.358h-.007a1.859 1.859 0 00-1.217.358 1.421 1.421 0 000 2.037 1.854 1.854 0 001.224.36h.007a1.919 1.919 0 001.248-.36 1.394 1.394 0 000-2.037zM103.9 166.153l-.305.636a2.5 2.5 0 01-.882 1.023 3.2 3.2 0 01-1.391.488v-1.422a1.5 1.5 0 00.7-.267 1.23 1.23 0 00.406-.53 1.992 1.992 0 00.134-.762 1.483 1.483 0 00-.369-1.073 1.38 1.38 0 00-1.04-.383h-.3a1.672 1.672 0 00-1.152.363 1.3 1.3 0 00-.407 1.025v.7h-1.332v-.7a1.161 1.161 0 00-.349-.9 1.4 1.4 0 00-.984-.322h-.308a1.192 1.192 0 00-.909.339 1.339 1.339 0 00-.321.96 1.462 1.462 0 00.133.636 1.222 1.222 0 00.41.475 1.886 1.886 0 00.694.284v1.415a3.627 3.627 0 01-1.394-.516 2.518 2.518 0 01-.882-.961 2.855 2.855 0 01-.3-1.333 2.757 2.757 0 01.677-1.989 2.519 2.519 0 011.907-.7h.164a2.152 2.152 0 011.3.4 2.276 2.276 0 01.806 1.142 2.027 2.027 0 01.8-1.261 2.647 2.647 0 011.586-.448h.164a3.055 3.055 0 011.484.335 2.21 2.21 0 01.936.974 3.389 3.389 0 01.322 1.541zM103.15 159.766a2.865 2.865 0 01-2.078.72h-4.518a2.843 2.843 0 110-5.674h4.518a2.856 2.856 0 012.082.725 3.377 3.377 0 010 4.229zm-.967-3.207a1.591 1.591 0 00-1.111-.352h-4.518a1.6 1.6 0 00-1.111.349 1.742 1.742 0 000 2.187 1.6 1.6 0 001.111.349h4.518a1.591 1.591 0 001.111-.352 1.733 1.733 0 000-2.181z"/><path class="cls-7" d="M107.363 282.311l-1.461-1.461" id="LINE-79" data-name="LINE"/><path class="cls-7" d="M108.824 280.85l-1.461 1.461" id="LINE-80" data-name="LINE"/><path class="cls-7" d="M107.364 134.158l1.461 1.462" id="LINE-81" data-name="LINE"/><path class="cls-7" d="M105.902 135.62l1.462-1.462" id="LINE-82" data-name="LINE"/><path class="cls-7" d="M210.557 156.985v125.326" id="LINE-83" data-name="LINE"/><path d="M207.089 231.854l-.3.635a2.516 2.516 0 01-.882 1.023 3.182 3.182 0 01-1.391.488v-1.422a1.509 1.509 0 00.7-.266 1.241 1.241 0 00.407-.531 1.987 1.987 0 00.133-.761 1.485 1.485 0 00-.369-1.074 1.376 1.376 0 00-1.039-.383h-.3a1.677 1.677 0 00-1.152.363 1.3 1.3 0 00-.407 1.025v.7h-1.326v-.7a1.165 1.165 0 00-.348-.9 1.4 1.4 0 00-.985-.321h-.307a1.2 1.2 0 00-.91.338 1.339 1.339 0 00-.321.96 1.47 1.47 0 00.133.636 1.21 1.21 0 00.411.475 1.864 1.864 0 00.693.284v1.415a3.627 3.627 0 01-1.394-.516 2.534 2.534 0 01-.882-.961 2.852 2.852 0 01-.3-1.333 2.757 2.757 0 01.677-1.989 2.519 2.519 0 011.907-.7h.164a2.152 2.152 0 011.3.4 2.284 2.284 0 01.807 1.142 2.023 2.023 0 01.8-1.261 2.643 2.643 0 011.586-.448h.164a3.054 3.054 0 011.483.335 2.22 2.22 0 01.937.975 3.4 3.4 0 01.321 1.541zM207.089 224.45l-.3.636a2.507 2.507 0 01-.882 1.022 3.2 3.2 0 01-1.391.489v-1.422a1.5 1.5 0 00.7-.267 1.238 1.238 0 00.407-.53 1.992 1.992 0 00.133-.762 1.483 1.483 0 00-.369-1.073 1.376 1.376 0 00-1.039-.383h-.3a1.677 1.677 0 00-1.152.362 1.3 1.3 0 00-.407 1.026v.7h-1.326v-.7a1.163 1.163 0 00-.348-.9 1.4 1.4 0 00-.985-.322h-.307a1.2 1.2 0 00-.91.339 1.339 1.339 0 00-.321.96 1.477 1.477 0 00.133.636 1.214 1.214 0 00.411.474 1.865 1.865 0 00.693.285v1.415a3.627 3.627 0 01-1.394-.516 2.534 2.534 0 01-.882-.961 2.855 2.855 0 01-.3-1.333 2.757 2.757 0 01.677-1.989 2.519 2.519 0 011.907-.7h.164a2.145 2.145 0 011.3.4 2.28 2.28 0 01.807 1.142 2.023 2.023 0 01.8-1.261 2.643 2.643 0 011.586-.448h.164a3.054 3.054 0 011.483.335 2.212 2.212 0 01.937.974 3.4 3.4 0 01.321 1.541zM207.089 217.047l-.3.636a2.52 2.52 0 01-.882 1.022 3.182 3.182 0 01-1.391.488v-1.422a1.5 1.5 0 00.7-.266 1.244 1.244 0 00.407-.53 1.992 1.992 0 00.133-.762 1.483 1.483 0 00-.369-1.073 1.376 1.376 0 00-1.039-.383h-.3a1.677 1.677 0 00-1.152.362 1.3 1.3 0 00-.407 1.026v.7h-1.326v-.7a1.167 1.167 0 00-.348-.9 1.4 1.4 0 00-.985-.321h-.307a1.192 1.192 0 00-.91.339 1.337 1.337 0 00-.321.96 1.469 1.469 0 00.133.635 1.21 1.21 0 00.411.475 1.848 1.848 0 00.693.284v1.415a3.627 3.627 0 01-1.394-.515 2.541 2.541 0 01-.882-.961 2.855 2.855 0 01-.3-1.333 2.758 2.758 0 01.677-1.99 2.522 2.522 0 011.907-.7h.164a2.146 2.146 0 011.3.4 2.277 2.277 0 01.807 1.141 2.018 2.018 0 01.8-1.26 2.643 2.643 0 011.586-.449h.164a3.065 3.065 0 011.483.335 2.22 2.22 0 01.937.975 3.4 3.4 0 01.321 1.541zM206.344 210.659a2.864 2.864 0 01-2.078.721h-4.519a2.843 2.843 0 110-5.674h4.519a2.559 2.559 0 012.823 2.837 2.816 2.816 0 01-.745 2.116zm-.968-3.207a1.593 1.593 0 00-1.11-.351h-4.519a1.607 1.607 0 00-1.111.348 1.743 1.743 0 000 2.188 1.607 1.607 0 001.111.348h4.519a1.593 1.593 0 001.11-.351 1.731 1.731 0 000-2.182z"/><path class="cls-7" d="M210.557 282.311l-1.462-1.461" id="LINE-84" data-name="LINE"/><path class="cls-7" d="M212.018 280.85l-1.461 1.461" id="LINE-85" data-name="LINE"/><path class="cls-7" d="M210.557 156.985l1.461 1.461" id="LINE-86" data-name="LINE"/><path class="cls-7" d="M209.096 158.446l1.461-1.461" id="LINE-87" data-name="LINE"/><path class="cls-7" d="M200.7 140.751H90.068" id="LINE-88" data-name="LINE"/><path d="M132.738 153.751l-.636-.3a2.492 2.492 0 01-1.022-.882 3.191 3.191 0 01-.489-1.391h1.422a1.5 1.5 0 00.267.7 1.236 1.236 0 00.53.406 1.992 1.992 0 00.762.134 1.479 1.479 0 001.073-.37 1.376 1.376 0 00.383-1.039v-.3a1.677 1.677 0 00-.362-1.152 1.3 1.3 0 00-1.026-.407h-.7v-1.326h.7a1.161 1.161 0 00.9-.349 1.4 1.4 0 00.322-.984v-.308a1.192 1.192 0 00-.339-.909 1.339 1.339 0 00-.96-.321 1.462 1.462 0 00-.636.133 1.212 1.212 0 00-.474.41 1.87 1.87 0 00-.285.694h-1.415a3.627 3.627 0 01.516-1.394 2.518 2.518 0 01.961-.882 2.855 2.855 0 011.333-.3 2.757 2.757 0 011.989.677 2.519 2.519 0 01.7 1.907v.164a2.145 2.145 0 01-.4 1.3 2.272 2.272 0 01-1.142.806 2.027 2.027 0 011.261.8 2.647 2.647 0 01.448 1.586v.164a3.058 3.058 0 01-.335 1.484 2.2 2.2 0 01-.974.936 3.389 3.389 0 01-1.541.321zM139.125 153.006a2.865 2.865 0 01-.72-2.078v-4.518a2.856 2.856 0 01.724-2.082 3.389 3.389 0 014.229 0 2.862 2.862 0 01.721 2.085v4.518a2.856 2.856 0 01-.725 2.082 3.38 3.38 0 01-4.229 0zm3.208-.967a1.6 1.6 0 00.351-1.111v-4.518a1.6 1.6 0 00-.349-1.111 1.742 1.742 0 00-2.187 0 1.605 1.605 0 00-.349 1.111v4.518a1.6 1.6 0 00.352 1.111 1.735 1.735 0 002.182 0zM145.993 150.915l3.336-7.2h1.435l-3.254 7.117h4.874v1.292h-6.391zm4.286-3.111h1.36v5.852h-1.36zM154.814 153.006a2.861 2.861 0 01-.721-2.078v-4.518a2.852 2.852 0 01.725-2.082 3.388 3.388 0 014.228 0 2.858 2.858 0 01.721 2.085v4.518a2.852 2.852 0 01-.725 2.082 3.379 3.379 0 01-4.228 0zm3.207-.967a1.6 1.6 0 00.352-1.111v-4.518a1.605 1.605 0 00-.349-1.111 1.743 1.743 0 00-2.188 0 1.6 1.6 0 00-.348 1.111v4.518a1.6 1.6 0 00.351 1.111 1.735 1.735 0 002.182 0z"/><path class="cls-7" d="M90.068 140.751l1.461-1.461" id="LINE-89" data-name="LINE"/><path class="cls-7" d="M91.529 142.212l-1.461-1.461" id="LINE-90" data-name="LINE"/><path class="cls-7" d="M200.7 140.752l-1.461 1.461" id="LINE-91" data-name="LINE"/><path class="cls-7" d="M199.239 139.291l1.461 1.461" id="LINE-92" data-name="LINE"/><path class="cls-7" d="M345.749 140.752H221.412" id="LINE-93" data-name="LINE"/><path d="M271.224 153.751l-.636-.3a2.5 2.5 0 01-1.023-.882 3.2 3.2 0 01-.488-1.391h1.423a1.5 1.5 0 00.267.7 1.23 1.23 0 00.53.406 1.992 1.992 0 00.762.134 1.479 1.479 0 001.073-.37 1.376 1.376 0 00.383-1.039v-.3a1.672 1.672 0 00-.363-1.152 1.3 1.3 0 00-1.025-.407h-.7v-1.326h.7a1.162 1.162 0 00.9-.349 1.4 1.4 0 00.322-.984v-.308a1.192 1.192 0 00-.339-.909 1.339 1.339 0 00-.96-.321 1.459 1.459 0 00-.636.133 1.222 1.222 0 00-.475.41 1.886 1.886 0 00-.284.694h-1.415a3.627 3.627 0 01.516-1.394 2.518 2.518 0 01.961-.882 2.852 2.852 0 011.333-.3 2.757 2.757 0 011.989.677 2.519 2.519 0 01.7 1.907v.164a2.152 2.152 0 01-.4 1.3 2.276 2.276 0 01-1.142.806 2.027 2.027 0 011.261.8 2.647 2.647 0 01.448 1.586v.164a3.058 3.058 0 01-.335 1.484 2.21 2.21 0 01-.974.936 3.389 3.389 0 01-1.541.321zM276.74 152.439l3.466-4.621a3.426 3.426 0 00.468-.824 2.185 2.185 0 00.168-.8v-.014a1.205 1.205 0 00-.349-.923 1.388 1.388 0 00-.991-.328 1.368 1.368 0 00-.984.359 1.626 1.626 0 00-.458 1.015v.007h-1.443v-.007a3.721 3.721 0 01.5-1.459 2.554 2.554 0 01.982-.923 2.923 2.923 0 011.387-.318 3.456 3.456 0 011.518.3 2.141 2.141 0 01.957.885 2.809 2.809 0 01.328 1.4v.007a3.083 3.083 0 01-.219 1.1 4.7 4.7 0 01-.608 1.108l-2.878 3.91h3.76v1.326h-5.604zM285.449 153.41a2.5 2.5 0 01-1.056-.968 2.786 2.786 0 01-.372-1.452v-.164a2.8 2.8 0 01.372-1.4 2.5 2.5 0 011-.991 2.179 2.179 0 01-.845-.83 2.246 2.246 0 01-.317-1.145v-.24a2.65 2.65 0 01.348-1.37 2.364 2.364 0 01.985-.916 3.516 3.516 0 012.953 0 2.356 2.356 0 01.984.916 2.641 2.641 0 01.349 1.37v.24a2.208 2.208 0 01-.325 1.155 2.158 2.158 0 01-.858.82 2.576 2.576 0 011.008 1 2.726 2.726 0 01.38 1.4v.164a2.786 2.786 0 01-.372 1.452 2.5 2.5 0 01-1.057.968 3.859 3.859 0 01-3.172 0zm2.441-1.19a1.382 1.382 0 00.571-.536 1.555 1.555 0 00.2-.8v-.095a1.568 1.568 0 00-.2-.8 1.382 1.382 0 00-.571-.536 2 2 0 00-1.709 0 1.374 1.374 0 00-.572.54 1.593 1.593 0 00-.2.806v.1a1.545 1.545 0 00.2.793 1.377 1.377 0 00.572.53 1.862 1.862 0 00.854.188 1.829 1.829 0 00.855-.19zm-.117-4.481a1.248 1.248 0 00.5-.516 1.617 1.617 0 00.178-.772v-.1a1.493 1.493 0 00-.178-.738 1.222 1.222 0 00-.5-.5 1.652 1.652 0 00-1.476 0 1.222 1.222 0 00-.5.5 1.517 1.517 0 00-.178.745v.1a1.6 1.6 0 00.178.763 1.25 1.25 0 00.5.512 1.6 1.6 0 001.476 0zM292.719 153.006a2.861 2.861 0 01-.721-2.078v-4.518a2.852 2.852 0 01.725-2.082 3.388 3.388 0 014.228 0 2.858 2.858 0 01.721 2.085v4.518a2.852 2.852 0 01-.725 2.082 3.379 3.379 0 01-4.228 0zm3.207-.967a1.6 1.6 0 00.351-1.111v-4.518a1.6 1.6 0 00-.348-1.111 1.743 1.743 0 00-2.188 0 1.6 1.6 0 00-.348 1.111v4.518a1.6 1.6 0 00.351 1.111 1.735 1.735 0 002.182 0z"/><path class="cls-7" d="M221.412 140.752l1.461-1.461" id="LINE-94" data-name="LINE"/><path class="cls-7" d="M222.873 142.213l-1.461-1.461" id="LINE-95" data-name="LINE"/><path class="cls-7" d="M346.038 140.752l-1.461 1.462" id="LINE-96" data-name="LINE"/><path class="cls-7" d="M344.577 139.291l1.461 1.461" id="LINE-97" data-name="LINE"/><path class="cls-7" d="M337.152 100.937v30.04" id="LINE-98" data-name="LINE"/><path d="M334.042 125.336a2.5 2.5 0 01-.967 1.057 2.79 2.79 0 01-1.453.372h-.164a2.793 2.793 0 01-1.4-.372 2.5 2.5 0 01-.992-1 2.179 2.179 0 01-.83.845 2.242 2.242 0 01-1.145.318h-.239a2.652 2.652 0 01-1.371-.349 2.362 2.362 0 01-.916-.984 3.519 3.519 0 010-2.954 2.362 2.362 0 01.916-.984 2.652 2.652 0 011.371-.349h.239a2.2 2.2 0 011.155.326 2.156 2.156 0 01.82.857 2.576 2.576 0 011-1.008 2.726 2.726 0 011.4-.38h.164a2.79 2.79 0 011.453.372 2.5 2.5 0 01.967 1.057 3.848 3.848 0 010 3.172zm-5.67-2.324a1.25 1.25 0 00-.517-.5 1.626 1.626 0 00-.772-.178h-.1a1.5 1.5 0 00-.738.178 1.235 1.235 0 00-.5.5 1.652 1.652 0 000 1.476 1.235 1.235 0 00.5.5 1.517 1.517 0 00.745.178h.1a1.593 1.593 0 00.762-.178 1.258 1.258 0 00.513-.5 1.6 1.6 0 000-1.476zm4.481-.116a1.387 1.387 0 00-.537-.572 1.554 1.554 0 00-.8-.2h-.1a1.567 1.567 0 00-.8.2 1.38 1.38 0 00-.537.572 2 2 0 000 1.708 1.375 1.375 0 00.54.572 1.585 1.585 0 00.807.2h.1a1.535 1.535 0 00.793-.2 1.371 1.371 0 00.53-.572 1.862 1.862 0 00.188-.854 1.837 1.837 0 00-.184-.85zM331.547 118.924l-7.2-3.336v-1.436l7.116 3.254v-4.874h1.292v6.392zm-3.11-4.286v-1.361h5.851v1.361zM334.09 109.384a2.413 2.413 0 01-.855.951 3.4 3.4 0 01-1.346.488h-.007v-1.394h.007a1.3 1.3 0 00.851-.438 1.419 1.419 0 00.3-.943 1.259 1.259 0 00-.448-1.035 1.941 1.941 0 00-1.261-.367h-.831a1.928 1.928 0 00-1.254.367 1.259 1.259 0 00-.448 1.035 1.316 1.316 0 00.205.7 1.953 1.953 0 00.574.588v1.264h-5.236v-5.065h1.326v3.671h2.233a1.992 1.992 0 01-.328-.581 1.926 1.926 0 01-.116-.656 2.9 2.9 0 01.355-1.474 2.287 2.287 0 011.04-.93 3.893 3.893 0 011.647-.317h.834a3.77 3.77 0 011.647.328 2.326 2.326 0 011.043.957 3 3 0 01.359 1.511 2.931 2.931 0 01-.291 1.34z"/><path class="cls-7" d="M337.152 130.977l-1.462-1.461" id="LINE-99" data-name="LINE"/><path class="cls-7" d="M338.613 129.516l-1.461 1.461" id="LINE-100" data-name="LINE"/><path class="cls-7" d="M337.152 100.937l1.461 1.461" id="LINE-101" data-name="LINE"/><path class="cls-7" d="M335.691 102.398l1.461-1.461" id="LINE-102" data-name="LINE"/><path class="cls-7" d="M333.081 130.977h11.063M337.152 100.937h14.963"/><path class="cls-7" d="M337.152 27.632v30.04" id="LINE-103" data-name="LINE"/><path d="M334.042 52.031a2.5 2.5 0 01-.967 1.057 2.79 2.79 0 01-1.453.372h-.164a2.793 2.793 0 01-1.4-.372 2.5 2.5 0 01-.992-.995 2.176 2.176 0 01-.83.844 2.242 2.242 0 01-1.145.318h-.239a2.642 2.642 0 01-1.371-.349 2.356 2.356 0 01-.916-.984 3.516 3.516 0 010-2.953 2.364 2.364 0 01.916-.985 2.651 2.651 0 011.371-.348h.239a2.2 2.2 0 011.155.325 2.162 2.162 0 01.82.857 2.567 2.567 0 011-1.007 2.726 2.726 0 011.4-.38h.164a2.79 2.79 0 011.453.372 2.5 2.5 0 01.967 1.056 3.848 3.848 0 010 3.172zm-5.67-2.324a1.25 1.25 0 00-.517-.5 1.626 1.626 0 00-.772-.178h-.1a1.5 1.5 0 00-.738.178 1.235 1.235 0 00-.5.5 1.654 1.654 0 000 1.477 1.247 1.247 0 00.5.5 1.517 1.517 0 00.745.177h.1a1.593 1.593 0 00.762-.177 1.271 1.271 0 00.513-.5 1.6 1.6 0 000-1.477zm4.481-.116a1.384 1.384 0 00-.537-.571 1.554 1.554 0 00-.8-.2h-.1a1.567 1.567 0 00-.8.2 1.378 1.378 0 00-.537.571 2.007 2.007 0 000 1.709 1.378 1.378 0 00.54.571 1.585 1.585 0 00.807.2h.1a1.535 1.535 0 00.793-.2 1.374 1.374 0 00.53-.571 1.863 1.863 0 00.188-.855 1.837 1.837 0 00-.184-.854zM331.547 45.619l-7.2-3.336v-1.435l7.116 3.254v-4.874h1.292v6.391zm-3.11-4.286v-1.36h5.851v1.36zM334.09 36.079a2.407 2.407 0 01-.855.951 3.4 3.4 0 01-1.346.489h-.007v-1.395h.007a1.3 1.3 0 00.851-.437 1.423 1.423 0 00.3-.944 1.259 1.259 0 00-.448-1.035 1.941 1.941 0 00-1.261-.366h-.831a1.928 1.928 0 00-1.254.366 1.259 1.259 0 00-.448 1.035 1.314 1.314 0 00.205.7 1.953 1.953 0 00.574.588V37.3h-5.236v-5.066h1.326v3.671h2.233a1.992 1.992 0 01-.328-.581 1.922 1.922 0 01-.116-.656 2.9 2.9 0 01.355-1.474 2.285 2.285 0 011.04-.929 3.892 3.892 0 011.647-.318h.834a3.785 3.785 0 011.647.328 2.326 2.326 0 011.043.957 3 3 0 01.359 1.511 2.931 2.931 0 01-.291 1.336z"/><path class="cls-7" d="M337.152 57.672l-1.462-1.461" id="LINE-104" data-name="LINE"/><path class="cls-7" d="M338.613 56.211l-1.461 1.461" id="LINE-105" data-name="LINE"/><path class="cls-7" d="M337.152 27.632l1.461 1.461" id="LINE-106" data-name="LINE"/><path class="cls-7" d="M335.691 29.093l1.461-1.461" id="LINE-107" data-name="LINE"/><path class="cls-7" d="M337.152 57.672h14.963M337.152 27.632h14.963"/><path class="cls-7" d="M281.214 10.867v120.11" id="LINE-108" data-name="LINE"/><path d="M293.678 83.064l-.3.636a2.516 2.516 0 01-.882 1.023 3.2 3.2 0 01-1.391.488v-1.422a1.5 1.5 0 00.7-.267 1.232 1.232 0 00.407-.53 2.011 2.011 0 00.133-.762 1.484 1.484 0 00-.369-1.073 1.378 1.378 0 00-1.039-.383h-.3a1.677 1.677 0 00-1.152.363 1.3 1.3 0 00-.407 1.025v.7h-1.326v-.7a1.165 1.165 0 00-.348-.9 1.4 1.4 0 00-.985-.322h-.319a1.194 1.194 0 00-.91.339 1.339 1.339 0 00-.321.96 1.456 1.456 0 00.133.636 1.21 1.21 0 00.411.475 1.864 1.864 0 00.693.284v1.415a3.627 3.627 0 01-1.394-.516 2.534 2.534 0 01-.882-.961 2.852 2.852 0 01-.3-1.333 2.757 2.757 0 01.677-1.989 2.519 2.519 0 011.907-.7h.164a2.152 2.152 0 011.3.4 2.284 2.284 0 01.807 1.142 2.019 2.019 0 01.8-1.261 2.642 2.642 0 011.585-.448h.165a3.054 3.054 0 011.483.335 2.21 2.21 0 01.936.974 3.389 3.389 0 01.322 1.541zM292.365 77.548l-4.621-3.466a3.46 3.46 0 00-.824-.468 2.181 2.181 0 00-.8-.168h-.014a1.2 1.2 0 00-.922.349 1.388 1.388 0 00-.329.991 1.371 1.371 0 00.359.985 1.639 1.639 0 001.015.458h.007v1.442h-.007a3.727 3.727 0 01-1.459-.5 2.562 2.562 0 01-.923-.982 2.923 2.923 0 01-.318-1.387 3.47 3.47 0 01.3-1.518 2.138 2.138 0 01.886-.957 2.8 2.8 0 011.4-.328h.007a3.079 3.079 0 011.1.219 4.7 4.7 0 011.108.608l3.91 2.878v-3.76h1.326v5.606zM290.841 70.712l-7.2-3.336V65.94l7.116 3.254V64.32h1.292v6.392zm-3.111-4.286v-1.361h5.852v1.361zM293.384 61.172a2.413 2.413 0 01-.855.951 3.4 3.4 0 01-1.346.488h-.007v-1.394h.007a1.293 1.293 0 00.851-.438 1.419 1.419 0 00.3-.943 1.261 1.261 0 00-.448-1.035 1.941 1.941 0 00-1.261-.366h-.825a1.928 1.928 0 00-1.254.366 1.259 1.259 0 00-.448 1.035 1.314 1.314 0 00.2.7 1.953 1.953 0 00.574.588v1.272h-5.236v-5.069h1.326V61h2.238a1.992 1.992 0 01-.328-.581 1.926 1.926 0 01-.116-.656 2.9 2.9 0 01.355-1.474 2.289 2.289 0 011.039-.93 3.9 3.9 0 011.648-.317h.834a3.773 3.773 0 011.647.328 2.326 2.326 0 011.043.957 3 3 0 01.359 1.511 2.931 2.931 0 01-.297 1.334z"/><path class="cls-7" d="M281.214 130.977l-1.461-1.461" id="LINE-109" data-name="LINE"/><path class="cls-7" d="M282.675 129.516l-1.461 1.461" id="LINE-110" data-name="LINE"/><path class="cls-7" d="M281.215 10.866l1.461 1.461" id="LINE-111" data-name="LINE"/><path class="cls-7" d="M279.754 12.327l1.461-1.461" id="LINE-112" data-name="LINE"/><path class="cls-7" d="M346.236 35.369h-67.439" id="LINE-113" data-name="LINE"/><path d="M290.845 48.481h-1.394v-8.422l-1.415.868v-1.442l1.415-.943h1.394zM294.427 48.242a2.5 2.5 0 01-1.056-.968 2.786 2.786 0 01-.371-1.452v-.164a2.8 2.8 0 01.372-1.4 2.5 2.5 0 011-.991 2.179 2.179 0 01-.845-.83 2.246 2.246 0 01-.317-1.145v-.24a2.65 2.65 0 01.348-1.37 2.364 2.364 0 01.985-.916 3.516 3.516 0 012.953 0 2.356 2.356 0 01.984.916 2.641 2.641 0 01.349 1.37v.24a2.208 2.208 0 01-.325 1.155 2.158 2.158 0 01-.858.82 2.576 2.576 0 011.008.995 2.726 2.726 0 01.38 1.4v.164a2.786 2.786 0 01-.372 1.452 2.5 2.5 0 01-1.057.968 3.859 3.859 0 01-3.172 0zm2.441-1.19a1.382 1.382 0 00.571-.536 1.555 1.555 0 00.2-.8v-.095a1.568 1.568 0 00-.2-.8 1.382 1.382 0 00-.571-.536 2 2 0 00-1.709 0 1.374 1.374 0 00-.572.54 1.593 1.593 0 00-.2.806v.1a1.545 1.545 0 00.2.793 1.377 1.377 0 00.572.53 1.862 1.862 0 00.854.188 1.829 1.829 0 00.855-.19zm-.117-4.481a1.248 1.248 0 00.5-.516 1.617 1.617 0 00.178-.772v-.1a1.493 1.493 0 00-.178-.738 1.222 1.222 0 00-.5-.5 1.652 1.652 0 00-1.476 0 1.222 1.222 0 00-.5.5 1.517 1.517 0 00-.178.745v.1a1.6 1.6 0 00.178.763 1.25 1.25 0 00.5.512 1.6 1.6 0 001.476 0zM302.712 48.583l-.635-.3a2.5 2.5 0 01-1.023-.882 3.178 3.178 0 01-.488-1.391h1.422a1.513 1.513 0 00.266.7 1.239 1.239 0 00.531.406 1.983 1.983 0 00.761.134 1.485 1.485 0 001.074-.369 1.379 1.379 0 00.382-1.04v-.3a1.677 1.677 0 00-.362-1.152 1.3 1.3 0 00-1.025-.407h-.7V42.65h.7a1.163 1.163 0 00.9-.349 1.4 1.4 0 00.321-.984v-.308a1.191 1.191 0 00-.338-.909 1.339 1.339 0 00-.96-.321 1.456 1.456 0 00-.636.133 1.215 1.215 0 00-.475.41 1.87 1.87 0 00-.284.694h-1.413a3.627 3.627 0 01.516-1.394 2.518 2.518 0 01.961-.882 2.852 2.852 0 011.333-.3 2.757 2.757 0 011.989.677 2.519 2.519 0 01.7 1.907v.164a2.152 2.152 0 01-.4 1.3 2.276 2.276 0 01-1.142.806 2.027 2.027 0 011.261.8 2.647 2.647 0 01.448 1.586v.164a3.055 3.055 0 01-.335 1.484 2.212 2.212 0 01-.975.936 3.383 3.383 0 01-1.541.321zM309.1 47.838a2.865 2.865 0 01-.721-2.078v-4.518a2.856 2.856 0 01.725-2.082 3.389 3.389 0 014.229 0 2.861 2.861 0 01.72 2.085v4.515a2.856 2.856 0 01-.724 2.082 3.38 3.38 0 01-4.229 0zm3.207-.967a1.591 1.591 0 00.352-1.111v-4.518a1.605 1.605 0 00-.349-1.111 1.742 1.742 0 00-2.187 0 1.6 1.6 0 00-.349 1.111v4.518a1.6 1.6 0 00.351 1.111 1.735 1.735 0 002.182 0z"/><path class="cls-7" d="M278.797 35.369l1.461-1.461" id="LINE-114" data-name="LINE"/><path class="cls-7" d="M280.258 36.831l-1.461-1.462" id="LINE-115" data-name="LINE"/><path class="cls-7" d="M346.236 35.37l-1.461 1.461" id="LINE-116" data-name="LINE"/><path class="cls-7" d="M344.775 33.909l1.461 1.461" id="LINE-117" data-name="LINE"/><path class="cls-7" d="M323.565 17.859h-44.768" id="LINE-118" data-name="LINE"/><path d="M291.139 30.971h-1.394v-8.422l-1.415.868v-1.442l1.415-.943h1.394zM293.245 29.761l3.465-4.621a3.393 3.393 0 00.468-.824 2.16 2.16 0 00.168-.8v-.014a1.208 1.208 0 00-.348-.923 1.4 1.4 0 00-.992-.328 1.368 1.368 0 00-.984.359 1.634 1.634 0 00-.458 1.015v.007h-1.442v-.007a3.727 3.727 0 01.5-1.459 2.559 2.559 0 01.981-.923 2.924 2.924 0 011.388-.318 3.469 3.469 0 011.517.3 2.133 2.133 0 01.957.886 2.8 2.8 0 01.328 1.4v.007a3.1 3.1 0 01-.218 1.1 4.739 4.739 0 01-.609 1.108l-2.878 3.91h3.76v1.326h-5.605zM302.364 31.074l-.636-.3a2.507 2.507 0 01-1.022-.882 3.2 3.2 0 01-.489-1.391h1.422a1.5 1.5 0 00.267.7 1.232 1.232 0 00.53.407 2.011 2.011 0 00.762.133 1.483 1.483 0 001.073-.369 1.378 1.378 0 00.383-1.039v-.3a1.677 1.677 0 00-.362-1.152 1.3 1.3 0 00-1.026-.407h-.7V25.14h.7a1.163 1.163 0 00.9-.348 1.4 1.4 0 00.322-.985V23.5a1.194 1.194 0 00-.339-.91 1.339 1.339 0 00-.96-.321 1.462 1.462 0 00-.636.133 1.212 1.212 0 00-.474.41 1.877 1.877 0 00-.285.694h-1.415a3.627 3.627 0 01.516-1.394 2.534 2.534 0 01.961-.882 2.855 2.855 0 011.333-.3 2.757 2.757 0 011.989.677 2.519 2.519 0 01.7 1.907v.164a2.145 2.145 0 01-.4 1.3 2.28 2.28 0 01-1.142.807 2.019 2.019 0 011.261.8 2.642 2.642 0 01.448 1.585v.165a3.054 3.054 0 01-.335 1.483 2.2 2.2 0 01-.974.936 3.389 3.389 0 01-1.541.322zM308.751 30.329a2.869 2.869 0 01-.72-2.079v-4.518a2.856 2.856 0 01.724-2.082 3.393 3.393 0 014.229 0 2.862 2.862 0 01.721 2.085v4.515a2.854 2.854 0 01-.725 2.082 3.379 3.379 0 01-4.229 0zm3.207-.968a1.591 1.591 0 00.352-1.111v-4.518a1.6 1.6 0 00-.349-1.111 1.742 1.742 0 00-2.187 0 1.605 1.605 0 00-.349 1.111v4.518a1.591 1.591 0 00.352 1.111 1.73 1.73 0 002.181 0z"/><path class="cls-7" d="M278.797 17.859l1.461-1.461" id="LINE-119" data-name="LINE"/><path class="cls-7" d="M280.258 19.321l-1.461-1.462" id="LINE-120" data-name="LINE"/><path class="cls-7" d="M323.565 17.86l-1.462 1.461" id="LINE-121" data-name="LINE"/><path class="cls-7" d="M322.103 16.399l1.462 1.461" id="LINE-122" data-name="LINE"/><path class="cls-7" d="M235.447 112.56v18.993" id="LINE-123" data-name="LINE"/><path class="cls-7" d="M267.339 112.56v18.993" id="LINE-124" data-name="LINE"/><path class="cls-7" d="M267.339 112.559h-31.892" id="LINE-125" data-name="LINE"/><path d="M244.623 105.053l-.007.246a1.026 1.026 0 01-.515.462 2.082 2.082 0 01-.818.147 2.194 2.194 0 01-1.251-.363 2.375 2.375 0 01-.838-1.022 3.7 3.7 0 01-.3-1.527v-.007a3.823 3.823 0 01.325-1.648 2.288 2.288 0 01.951-1.039 2.986 2.986 0 011.5-.355 2.922 2.922 0 011.5.362 2.323 2.323 0 01.946 1.053 3.869 3.869 0 01.325 1.661v.007a5.18 5.18 0 01-.136 1.138 6.993 6.993 0 01-.39 1.2l-.082.181a2.335 2.335 0 01-.089.181l-2.119 4.259h-1.5zm.065-.861a1.943 1.943 0 00.359-1.251v-.007a1.852 1.852 0 00-.359-1.217 1.421 1.421 0 00-2.037 0 1.857 1.857 0 00-.359 1.224v.007a1.924 1.924 0 00.359 1.247 1.393 1.393 0 002.037 0zM249.008 109.346a2.861 2.861 0 01-.721-2.078v-4.518a2.85 2.85 0 01.725-2.082 3.388 3.388 0 014.228 0 2.858 2.858 0 01.721 2.085v4.518a2.852 2.852 0 01-.725 2.082 3.379 3.379 0 01-4.228 0zm3.207-.967a1.6 1.6 0 00.351-1.111v-4.518a1.6 1.6 0 00-.348-1.111 1.74 1.74 0 00-2.188 0 1.6 1.6 0 00-.348 1.111v4.518a1.6 1.6 0 00.351 1.111 1.735 1.735 0 002.182 0zM256.732 109.346a2.865 2.865 0 01-.72-2.078v-4.518a2.854 2.854 0 01.724-2.082 3.389 3.389 0 014.229 0 2.862 2.862 0 01.721 2.085v4.518a2.856 2.856 0 01-.725 2.082 3.38 3.38 0 01-4.229 0zm3.207-.967a1.591 1.591 0 00.352-1.111v-4.518a1.6 1.6 0 00-.349-1.111 1.738 1.738 0 00-2.187 0 1.6 1.6 0 00-.349 1.111v4.518a1.591 1.591 0 00.352 1.111 1.733 1.733 0 002.181 0z"/><path class="cls-7" d="M235.447 112.559l1.462-1.461" id="LINE-126" data-name="LINE"/><path class="cls-7" d="M236.909 114.02l-1.462-1.461" id="LINE-127" data-name="LINE"/><path class="cls-7" d="M267.339 112.542l-1.461-1.461" id="LINE-128" data-name="LINE"/><path class="cls-7" d="M265.878 114.003l1.461-1.461" id="LINE-129" data-name="LINE"/><path class="cls-7" d="M283.436 112.56v18.993" id="LINE-130" data-name="LINE"/><path class="cls-7" d="M311.55 112.56v18.993" id="LINE-131" data-name="LINE"/><path class="cls-7" d="M311.55 112.559h-28.114" id="LINE-132" data-name="LINE"/><path d="M288.182 109.75a2.517 2.517 0 01-1.057-.968 2.786 2.786 0 01-.372-1.452v-.164a2.8 2.8 0 01.372-1.4 2.5 2.5 0 011-.991 2.175 2.175 0 01-.845-.831 2.242 2.242 0 01-.318-1.145v-.239a2.657 2.657 0 01.349-1.371 2.371 2.371 0 01.985-.916 3.526 3.526 0 012.953 0 2.368 2.368 0 01.984.916 2.657 2.657 0 01.349 1.371v.239a2.2 2.2 0 01-.326 1.156 2.163 2.163 0 01-.857.82 2.576 2.576 0 011.008 1 2.726 2.726 0 01.38 1.4v.164a2.786 2.786 0 01-.372 1.452 2.511 2.511 0 01-1.057.968 3.859 3.859 0 01-3.172 0zm2.441-1.19a1.384 1.384 0 00.571-.537 1.551 1.551 0 00.2-.8v-.1a1.567 1.567 0 00-.2-.8 1.382 1.382 0 00-.571-.536 2 2 0 00-1.709 0 1.368 1.368 0 00-.572.54 1.583 1.583 0 00-.2.806v.1a1.535 1.535 0 00.2.793 1.362 1.362 0 00.572.529 2.021 2.021 0 001.709 0zm-.117-4.481a1.254 1.254 0 00.5-.516 1.617 1.617 0 00.178-.772v-.1a1.493 1.493 0 00-.178-.738 1.222 1.222 0 00-.5-.5 1.652 1.652 0 00-1.476 0 1.222 1.222 0 00-.5.5 1.517 1.517 0 00-.178.745v.1a1.593 1.593 0 00.178.762 1.252 1.252 0 00.5.513 1.6 1.6 0 001.476 0zM295.452 109.346a2.861 2.861 0 01-.721-2.078v-4.518a2.85 2.85 0 01.725-2.082 3.388 3.388 0 014.228 0 2.858 2.858 0 01.721 2.085v4.518a2.852 2.852 0 01-.725 2.082 3.379 3.379 0 01-4.228 0zm3.207-.967a1.6 1.6 0 00.351-1.111v-4.518a1.6 1.6 0 00-.348-1.111 1.74 1.74 0 00-2.188 0 1.605 1.605 0 00-.349 1.111v4.518a1.6 1.6 0 00.352 1.111 1.735 1.735 0 002.182 0zM303.176 109.346a2.865 2.865 0 01-.72-2.078v-4.518a2.854 2.854 0 01.724-2.082 3.389 3.389 0 014.229 0 2.861 2.861 0 01.72 2.085v4.518a2.856 2.856 0 01-.724 2.082 3.38 3.38 0 01-4.229 0zm3.207-.967a1.591 1.591 0 00.352-1.111v-4.518a1.6 1.6 0 00-.349-1.111 1.738 1.738 0 00-2.187 0 1.6 1.6 0 00-.349 1.111v4.518a1.591 1.591 0 00.352 1.111 1.733 1.733 0 002.181 0z"/><path class="cls-7" d="M283.436 112.559l1.461-1.461" id="LINE-133" data-name="LINE"/><path class="cls-7" d="M284.897 114.02l-1.461-1.461" id="LINE-134" data-name="LINE"/><path class="cls-7" d="M311.55 112.542l-1.461-1.461" id="LINE-135" data-name="LINE"/><path class="cls-7" d="M310.089 114.003l1.461-1.461" id="LINE-136" data-name="LINE"/></g></svg>