<svg xmlns="http://www.w3.org/2000/svg" width="537.471" height="376.679" viewBox="0 0 403.103 282.51"><defs><pattern id="Новый_узор_3" data-name="Новый узор 3" width="35.15" height="35.15" patternTransform="translate(-7.256 -21.209)" patternUnits="userSpaceOnUse"><path class="cls-1" d="M0 0h35.15v35.15H0z"/><path class="cls-2" d="M35.149 35.15h35.15V70.3h-35.15z"/><path class="cls-2" d="M0 35.15h35.15V70.3H0zM-35.15 35.15H0V70.3h-35.15z"/><path class="cls-2" d="M35.149.001h35.15v35.15h-35.15z"/><path class="cls-2" d="M0 .001h35.15v35.15H0zM-35.15.001H0v35.15h-35.15zM35.149-35.149h35.15V.001h-35.15z"/><path class="cls-2" d="M0-35.149h35.15V.001H0zM-35.15-35.149H0V.001h-35.15z"/></pattern><pattern id="Новый_узор_4" data-name="Новый узор 4" width="9.822" height="9.822" patternTransform="translate(-4.109 -8.736)" patternUnits="userSpaceOnUse"><path class="cls-1" d="M0 0h9.822v9.822H0z"/><path class="cls-3" d="M14.733 19.647L9.82 14.735l4.913-4.913 4.912 4.913-4.912 4.912z"/><path class="cls-3" d="M4.911 19.647l-4.913-4.912 4.913-4.913 4.912 4.913-4.912 4.912z"/><path class="cls-3" d="M-4.912 19.647l-4.912-4.912 4.912-4.913 4.913 4.913-4.913 4.912zM14.733 9.825L9.82 4.912 14.733 0l4.912 4.912-4.912 4.913z"/><path class="cls-3" d="M4.911 9.825L-.002 4.912 4.911 0l4.912 4.912-4.912 4.913z"/><path class="cls-3" d="M-4.912 9.825l-4.912-4.913L-4.912 0 .001 4.912l-4.913 4.913zM14.733.003L9.82-4.91l4.913-4.912 4.912 4.912L14.733.003z"/><path class="cls-3" d="M4.911.003L-.002-4.91l4.913-4.912L9.823-4.91 4.911.003z"/><path class="cls-3" d="M-4.912.003L-9.824-4.91l4.912-4.912L.001-4.91-4.912.003z"/></pattern><style>.cls-1,.cls-11,.cls-12,.cls-2,.cls-3,.cls-7,.cls-9{fill:none}.cls-2{stroke:#ededed}.cls-2,.cls-3,.cls-7,.cls-9{stroke-linecap:round;stroke-linejoin:round;stroke-width:.4px}.cls-3{stroke:#e6e6e6}.cls-12,.cls-3,.cls-4,.cls-8,.cls-9{fill-rule:evenodd}.cls-4{fill:#fff}.cls-12,.cls-7,.cls-9{stroke:#000}.cls-11,.cls-12{stroke-miterlimit:22.926}.cls-11{stroke:gray;stroke-width:.6px}.cls-12{stroke-width:.567px}</style></defs><g id="_251" data-name="251"><path class="cls-4" d="M325.961 143.682V.371H37.085v162.491a47.053 47.053 0 00-15.022 3.038l15.022 34.166v72.162h288.876v-22.745h45.344v-105.8z" id="fon"/><path id="grid" stroke="#dcdcdc" fill="url(#Новый_узор_3)" fill-rule="evenodd" stroke-linecap="round" stroke-linejoin="round" stroke-width=".4" d="M371.305 143.682h-45.344V.371H37.085v271.857h288.876v-22.745h45.344V143.682z"/><path id="wet_zones" data-name="wet zones" fill="url(#Новый_узор_4)" fill-rule="evenodd" d="M47.287 34.087v25.994h9.258v42.603h-9.258v31.536h69.123V34.087H47.287z"/><g id="walls"><path class="cls-7" d="M212.149 115.6a34.522 34.522 0 012.607 12.569"/><path class="cls-8" d="M212.136 115.515l-29.271 12.658v1.511h.454l29.418-12.782-.601-1.387z"/><path class="cls-9" d="M87.273 123.154A30.732 30.732 0 0085 134.219"/><path class="cls-8" d="M87.308 123.06l-.601 1.388 25.95 11.282h.454l.001-1.511-25.804-11.159z"/><path class="cls-9" d="M84.057 196.3a32.552 32.552 0 00-2.271 11.055"/><path class="cls-8" d="M84.095 196.193l-.599 1.388 25.95 11.282h.453l.001-1.512-25.805-11.158z"/><path class="cls-9" d="M21.522 166.039a43.313 43.313 0 0115.563-3.2"/><path class="cls-8" d="M21.427 166.08l15.658 36.208h1.512v-.454L22.815 165.48l-1.388.6z"/><path class="cls-7" d="M318.405 44.477h-16.248M325.961 44.477h-5.667M320.294 44.477h-1.89M318.405 110.603h-16.248M325.961 110.603h-5.667M320.294 110.603h-1.89M325.961 110.603V44.477M302.157 110.603V44.477M318.405 110.603v-3.779M318.405 106.824h1.89M320.294 106.824v3.779M320.294 72.817v1.889M320.294 74.706h-1.89M318.405 74.706v-1.889M319.349 106.824V74.705M318.405 106.824V74.705M320.294 74.706v32.119M318.405 72.817v-.945M318.405 71.872h.944M319.349 71.872v-.944M319.349 70.927h.945M320.294 70.927v1.889M320.294 44.477v3.779M320.294 48.256h-.944M319.349 48.256v-.944M319.349 47.311h-.944M318.405 47.311v-2.834M320.294 48.256v22.672M317.459 69.038V50.145M317.459 71.872v-2.834M317.459 69.038h1.891M319.349 69.038v2.834M319.349 71.872h-1.89M319.349 47.311v2.833M319.349 50.145h-1.89M317.459 50.145v-2.833M317.459 47.311h1.891M319.349 50.145v18.893M317.459 69.038V50.145M318.405 69.038V50.145M320.294 110.603h-1.89M320.294 110.603h-1.89M325.961 110.603h-5.667M318.405 110.603h-16.248M320.294 44.477h-1.89M320.294 44.477h-1.89M325.961 44.477h-5.667M318.405 44.477h-16.248M318.405 238.147h-16.248M325.961 238.147h-5.667M320.294 238.147h-1.89M318.405 155.018h-16.248M325.961 155.018h-5.667M320.294 155.018h-1.89M325.961 155.018v83.129M302.157 155.018v83.129M318.405 155.018v3.779M318.405 158.797h1.89M320.294 158.797v-3.779M320.294 194.693v-1.889M320.294 192.804h-1.89M318.405 192.804v1.889M319.349 158.797v34.008M318.405 158.797v34.008M320.294 192.804v-34.008M318.405 194.693v.945M318.405 195.638h.944M319.349 195.638v.944M319.349 196.583h.945M320.294 196.583v-1.891M320.294 238.147v-3.778M320.294 234.369h-.944M319.349 234.369v.944M319.349 235.313h-.944M318.405 235.313v2.834M320.294 234.369v-37.786M317.459 198.472v34.007M317.459 195.638v2.834M317.459 198.472h1.891M319.349 198.472v-2.834M319.349 195.638h-1.89M319.349 235.313v-2.834M319.349 232.479h-1.89M317.459 232.479v2.834M317.459 235.313h1.891M319.349 232.479v-34.007M317.459 198.472v34.007M318.405 198.472v34.007M320.294 155.018h-1.89M320.294 155.018h-1.89M325.961 155.018h-5.667M318.405 155.018h-16.248M320.294 238.147h-1.89M320.294 238.147h-1.89M325.961 238.147h-5.667M318.405 238.147h-16.248"/><path class="cls-9" d="M325.961 143.682h45.344m0 0v105.8m0 0h-45.344m0 0v-105.8M370.549 248.727h-44.588m0 0v-104.29m0 0h44.588m0 0v104.29"/><path class="cls-7" d="M317.371 235.376l-28.055-28.055M289.316 207.321a39.673 39.673 0 0128.055-11.621M318.315 158.858l-28.999 25.272M289.316 184.13a39.673 39.673 0 0028.055 11.621"/><path d="M325.961 272.14h-23.805v-33.992h23.805v33.992zm-278.674 0h-10.2v-69.851H38.6v-.453h8.69v70.3zm254.869-260.9V.283h23.806v44.2h-23.806V11.241zm-265.071 0v151.6H38.6v.453h8.69V.283h-10.2v10.958zm177.219 126h87.852v17.775h23.805V110.6h-23.805v17.57h-87.4v1.512h-.456z" stroke-miterlimit="3" stroke-width=".48" stroke="#000" fill-rule="evenodd"/></g><g id="wall_2" data-name="wall 2"><path class="cls-4" d="M62.78 272.14H47.287v-10.957h12.47v-12.849h-12.47v-3.022H62.78v15.871h70.661v-50.808h-24v-1.512h.453v-1.511h23.542v-29.49h3.022v83.32h165.698v10.958zM47.287.283v10.958h15.494v19.822H47.287v3.024h69.123v94.087h.026v6.046h-3.325v1.512h-.454v1.512h70.662v-7.558h-.454v-1.512h-63.428V11.241h57.461v22.672h3.022V11.241h122.24V.283zm69.123 10.958v19.822H65.8V11.241zM47.287 207.353v3.022h34.952v-1.512h-.453v-1.511zM53.522 63.1h-6.235v-3.019h9.257v42.6h-9.257v-3.019h6.235V63.1zm31.929 74.141H47.287v-3.021H85v1.512h.453z"/><path class="cls-11" d="M49.848.28l-2.56 2.26M57.268.28l-9.98 8.79M64.688.28l-12.44 10.96M72.118.28l-12.44 10.96M79.538.28l-12.44 10.96M65.798 12.38l-3.02 2.67M52.018 31.06l-3.44 3.03M86.968.28l-12.45 10.96M65.798 18.92l-3.02 2.67M65.798 25.46l-3.02 2.66M94.388.28l-12.45 10.96M59.448 31.06l-3.44 3.03M101.808.28l-12.44 10.96M66.868 31.06l-3.44 3.03M109.228.28l-12.45 10.96M74.288 31.06l-3.44 3.03M116.648.28l-12.44 10.96M48.768 60.08l-1.48 1.3M81.708 31.06l-3.44 3.03M124.068.28l-12.44 10.96M56.188 60.08l-3.43 3.02M89.128 31.06l-3.44 3.03M131.498.28l-15.09 13.29M56.548 66.3l-3.03 2.67M96.558 31.06l-3.44 3.03M138.918.28l-12.44 10.96M119.428 17.45l-3.02 2.66M56.548 72.84l-3.03 2.67M103.978 31.06l-3.44 3.03M146.338.28l-12.44 10.96M119.428 23.99l-3.02 2.66M56.548 79.38l-3.03 2.67M111.398 31.06l-3.44 3.03M119.428 30.52l-4.05 3.57M56.548 85.91l-3.03 2.67M153.758.28l-12.44 10.96M119.428 37.06l-3.02 2.66M48.368 99.66l-1.08.95M56.548 92.45l-3.03 2.67M161.178.28l-12.44 10.96M119.428 43.6l-3.02 2.66M56.548 98.99l-4.19 3.69M168.608.28l-12.44 10.96M119.428 50.14l-3.02 2.66M176.028.28l-12.44 10.96M119.428 56.68l-3.02 2.66M183.458.28l-12.45 10.96M119.428 63.22l-3.02 2.66M190.878.28l-13.98 12.31M119.438 69.75l-3.03 2.67M198.298.28l-12.44 10.96M179.918 16.47l-3.02 2.66M119.438 76.28l-3.03 2.67M53.668 134.22l-3.43 3.02M205.718.28l-12.45 10.96M179.918 23l-3.02 2.66M119.438 82.82l-3.03 2.67M61.088 134.22l-3.42 3.02M179.918 29.54l-3.02 2.66M213.138.28l-12.44 10.96M119.438 89.36l-3.03 2.67M68.518 134.22l-3.43 3.02M220.558.28l-12.44 10.96M119.438 95.9l-3.03 2.67M75.938 134.22l-3.43 3.02M227.988.28l-12.44 10.96M119.438 102.44l-3.03 2.67M83.368 134.22l-3.43 3.02M235.408.28l-12.44 10.96M119.438 108.98l-3.03 2.67M242.838.28l-12.45 10.96M119.438 115.51l-3.03 2.67M250.248.28l-12.44 10.96M119.438 122.05l-3.03 2.67M257.668.28l-12.44 10.96M119.918 128.17l-3.48 3.07M265.098.28l-12.44 10.96M272.518.28l-12.44 10.96M127.338 128.17l-10.29 9.07M279.938.28l-12.44 10.96M134.768 128.17l-10.3 9.07M287.368.28l-12.44 10.96M52.308 207.35l-3.44 3.03M142.188 128.17l-10.29 9.07M294.778.28l-12.44 10.96M59.718 207.35l-3.44 3.03M149.608 128.17l-10.3 9.07M302.158.32l-12.4 10.92M67.148 207.35l-3.44 3.03M157.028 128.17l-10.3 9.07M302.158 6.86l-4.97 4.38M74.568 207.35l-3.44 3.03M164.448 128.17l-10.29 9.07M81.788 207.53l-3.23 2.85M171.878 128.17l-10.3 9.07M179.298 128.17l-10.3 9.07M183.318 131.17l-6.89 6.07M53.748 245.31l-3.43 3.02M137.738 177.86l-4.3 3.79M61.168 245.31l-3.43 3.02M136.458 185.52l-3.02 2.66M111.678 207.35l-2.23 1.97M50.568 261.18l-3.28 2.89M62.778 250.43l-3.02 2.66M145.158 177.86l-3.43 3.02M136.458 192.06l-3.02 2.66M62.778 256.97l-3.02 2.66M57.998 261.18l-10.71 9.43M119.098 207.35l-3.44 3.03M152.578 177.86l-3.43 3.02M159.998 177.86l-3.43 3.02M126.528 207.35l-3.44 3.03M65.418 261.18l-12.44 10.96M136.458 198.6l-3.02 2.66M72.838 261.18l-12.44 10.96M136.458 205.14l-5.95 5.24M80.268 261.18l-12.45 10.96M136.458 211.68l-3.02 2.66M87.688 261.18l-12.44 10.96M136.458 218.22l-3.02 2.66M95.108 261.18l-12.44 10.96M136.458 224.75l-3.02 2.66M102.528 261.18l-12.44 10.96M136.458 231.29l-3.02 2.66M109.948 261.18l-12.44 10.96M136.458 237.83l-3.02 2.66M117.378 261.18l-12.44 10.96M136.458 244.37l-3.02 2.66M124.798 261.18l-12.44 10.96M136.458 250.91l-3.02 2.66M132.218 261.18l-12.44 10.96M136.458 257.45l-3.02 2.66M139.648 261.18l-12.44 10.96M147.058 261.18l-12.44 10.96M154.488 261.18l-12.44 10.96M161.908 261.18l-12.44 10.96M169.328 261.18l-12.44 10.96M176.758 261.18l-12.45 10.96M184.178 261.18l-12.44 10.96M191.598 261.18l-12.45 10.96M199.018 261.18l-12.44 10.96M206.438 261.18l-12.44 10.96M213.868 261.18l-12.44 10.96M221.288 261.18l-12.44 10.96M228.708 261.18l-12.44 10.96M236.128 261.18l-12.44 10.96M243.548 261.18l-12.44 10.96M250.978 261.18l-12.44 10.96M258.398 261.18l-12.44 10.96M265.818 261.18l-12.44 10.96M273.248 261.18l-12.44 10.96M280.668 261.18l-12.44 10.96M288.088 261.18l-12.45 10.96M295.508 261.18l-12.44 10.96M302.158 261.86l-11.67 10.28M302.158 268.4l-4.25 3.74"/><path class="cls-12" d="M85.451 135.732h-.453v-1.512H47.287v3.024h38.164v-1.512zM56.544 60.081h-9.257V63.1h6.235v36.562h-6.235v3.022h9.258l-.001-42.603zM47.287.283v10.958h15.494v19.822H47.287v3.024h69.123v94.087h.026v6.046h-3.325v1.512h-.454v1.512h70.662v-7.558h-.454v-1.512h-63.428V11.241h57.461v22.672h3.022V11.241h122.24V.283zm69.123 30.78H65.8V11.241h50.61zM82.239 208.864h-.453v-1.511h-34.5v3.022h34.953zM136.463 180.885h24.016v-3.022H133.441v29.49h-23.542v1.511h-.453v1.512l23.995-.001v50.808H62.78v-15.871H47.287v3.022h12.47v12.849h-12.47v10.957h254.869v-10.957H136.463v-80.298z"/></g></g><g id="sizes"><path class="cls-7" d="M51.161 137.437v69.629" id="LINE"/><path d="M63.153 163.4v1.394h-8.422l.869 1.415h-1.443l-.943-1.415V163.4zM54.458 156.008l8.7 2.57v1.484l-8.613-2.571v2.53h1.429v1.394h-2.76v-5.407zM54.458 148.96l8.7 2.57v1.484l-8.613-2.571v2.53h1.429v1.394h-2.76v-5.407zM62.511 146.325a2.864 2.864 0 01-2.078.721h-4.519a2.843 2.843 0 110-5.674h4.519a2.559 2.559 0 012.823 2.837 2.816 2.816 0 01-.745 2.116zm-.968-3.207a1.593 1.593 0 00-1.11-.351h-4.519a1.607 1.607 0 00-1.111.348 1.743 1.743 0 000 2.188 1.607 1.607 0 001.111.348h4.519a1.593 1.593 0 001.11-.351 1.731 1.731 0 000-2.182z"/><path class="cls-7" d="M51.161 207.066l-1.461-1.461" id="LINE-2" data-name="LINE"/><path class="cls-7" d="M52.622 205.605l-1.461 1.461" id="LINE-3" data-name="LINE"/><path class="cls-7" d="M51.162 137.437l1.461 1.462" id="LINE-4" data-name="LINE"/><path class="cls-7" d="M49.701 138.899l1.461-1.462" id="LINE-5" data-name="LINE"/><path class="cls-7" d="M51.161 210.316v34.813" id="LINE-6" data-name="LINE"/><path d="M58.218 233.362l.246.007a1.027 1.027 0 01.461.516 2.077 2.077 0 01.147.817 2.189 2.189 0 01-.362 1.251 2.367 2.367 0 01-1.022.838 3.706 3.706 0 01-1.528.3h-.007a3.818 3.818 0 01-1.647-.324 2.288 2.288 0 01-1.039-.951 2.986 2.986 0 01-.356-1.5 2.929 2.929 0 01.363-1.5 2.321 2.321 0 011.052-.946 3.876 3.876 0 011.662-.325h.006a5.193 5.193 0 011.139.137 6.95 6.95 0 011.2.389c.059.028.12.055.181.082s.122.057.182.089l4.258 2.119v1.5zm-.862-.065a1.949 1.949 0 00-1.251-.358H56.1a1.857 1.857 0 00-1.217.358 1.419 1.419 0 000 2.037 1.856 1.856 0 001.223.359h.007a1.925 1.925 0 001.248-.359 1.392 1.392 0 000-2.037zM62.511 228.978a2.868 2.868 0 01-2.078.72h-4.519a2.843 2.843 0 110-5.674h4.519a2.852 2.852 0 012.081.725 3.379 3.379 0 010 4.229zm-.968-3.207a1.589 1.589 0 00-1.11-.352h-4.519a1.6 1.6 0 00-1.111.349 1.742 1.742 0 000 2.187 1.6 1.6 0 001.111.349h4.519a1.589 1.589 0 001.11-.352 1.73 1.73 0 000-2.181zM62.511 221.253a2.868 2.868 0 01-2.078.721h-4.519a2.852 2.852 0 01-2.081-.725 3.39 3.39 0 010-4.228 2.858 2.858 0 012.085-.721h4.519a2.558 2.558 0 012.823 2.837 2.817 2.817 0 01-.749 2.116zm-.968-3.207a1.593 1.593 0 00-1.11-.352h-4.519a1.607 1.607 0 00-1.111.349 1.743 1.743 0 000 2.188 1.607 1.607 0 001.111.348h4.519a1.593 1.593 0 001.11-.351 1.731 1.731 0 000-2.182z"/><path class="cls-7" d="M51.161 245.129l-1.461-1.461" id="LINE-7" data-name="LINE"/><path class="cls-7" d="M52.622 243.668l-1.461 1.461" id="LINE-8" data-name="LINE"/><path class="cls-7" d="M51.162 210.316l1.461 1.462" id="LINE-9" data-name="LINE"/><path class="cls-7" d="M49.701 211.778l1.461-1.462" id="LINE-10" data-name="LINE"/><path class="cls-7" d="M70.036 210.316v50.625" id="LINE-11" data-name="LINE"/><path d="M82.028 236.92v1.4h-8.422l.869 1.415h-1.443l-.943-1.415v-1.4zM82.131 232.928l-.3.636a2.52 2.52 0 01-.882 1.022 3.182 3.182 0 01-1.391.488v-1.422a1.5 1.5 0 00.7-.266 1.244 1.244 0 00.407-.53 1.992 1.992 0 00.133-.762 1.481 1.481 0 00-.369-1.073 1.376 1.376 0 00-1.039-.383h-.3a1.677 1.677 0 00-1.16.362 1.3 1.3 0 00-.407 1.025v.7H76.2v-.7a1.166 1.166 0 00-.348-.9 1.4 1.4 0 00-.985-.321h-.307a1.192 1.192 0 00-.91.339 1.337 1.337 0 00-.321.96 1.469 1.469 0 00.133.635 1.21 1.21 0 00.411.475 1.848 1.848 0 00.693.284v1.415a3.627 3.627 0 01-1.394-.515 2.541 2.541 0 01-.882-.961 2.855 2.855 0 01-.3-1.333 2.758 2.758 0 01.677-1.99 2.522 2.522 0 011.907-.7h.164a2.146 2.146 0 011.3.4 2.277 2.277 0 01.807 1.141 2.019 2.019 0 01.8-1.261 2.649 2.649 0 011.586-.448h.164a3.065 3.065 0 011.483.335 2.22 2.22 0 01.937.975 3.4 3.4 0 01.321 1.541zM81.386 226.54a2.864 2.864 0 01-2.078.721h-4.519a2.843 2.843 0 110-5.674h4.519a2.559 2.559 0 012.823 2.837 2.816 2.816 0 01-.745 2.116zm-.968-3.207a1.593 1.593 0 00-1.11-.351h-4.519a1.607 1.607 0 00-1.111.348 1.743 1.743 0 000 2.188 1.607 1.607 0 001.111.348h4.519a1.593 1.593 0 001.11-.351 1.731 1.731 0 000-2.182zM81.386 218.815a2.864 2.864 0 01-2.078.721h-4.519a2.843 2.843 0 110-5.674h4.519a2.852 2.852 0 012.081.725 3.377 3.377 0 010 4.228zm-.968-3.207a1.593 1.593 0 00-1.11-.351h-4.519a1.6 1.6 0 00-1.111.349 1.742 1.742 0 000 2.187 1.607 1.607 0 001.111.349h4.519a1.593 1.593 0 001.11-.352 1.731 1.731 0 000-2.182z"/><path class="cls-7" d="M70.036 260.941l-1.461-1.461" id="LINE-12" data-name="LINE"/><path class="cls-7" d="M71.497 259.48l-1.461 1.461" id="LINE-13" data-name="LINE"/><path class="cls-7" d="M70.037 210.316l1.461 1.462" id="LINE-14" data-name="LINE"/><path class="cls-7" d="M68.576 211.778l1.461-1.462" id="LINE-15" data-name="LINE"/><path class="cls-7" d="M51.161 102.754v31.25" id="LINE-16" data-name="LINE"/><path d="M58.218 124.946l.246.007a1.027 1.027 0 01.461.516 2.077 2.077 0 01.147.817 2.189 2.189 0 01-.362 1.251 2.367 2.367 0 01-1.022.838 3.706 3.706 0 01-1.528.3h-.007a3.818 3.818 0 01-1.647-.324 2.288 2.288 0 01-1.039-.951 2.986 2.986 0 01-.356-1.5 2.929 2.929 0 01.363-1.5 2.321 2.321 0 011.052-.946 3.876 3.876 0 011.662-.325h.006a5.193 5.193 0 011.139.137 6.95 6.95 0 011.2.389c.059.028.12.055.181.082s.122.057.182.089l4.258 2.119v1.5zm-.862-.065a1.949 1.949 0 00-1.251-.358H56.1a1.857 1.857 0 00-1.217.358 1.419 1.419 0 000 2.037 1.856 1.856 0 001.223.359h.007a1.925 1.925 0 001.248-.359 1.392 1.392 0 000-2.037zM60.419 121.966l-7.2-3.336v-1.436l7.116 3.254v-4.874h1.292v6.392zm-3.11-4.286v-1.361h5.851v1.361zM62.962 112.426a2.413 2.413 0 01-.855.951 3.4 3.4 0 01-1.346.488h-.007v-1.394h.007a1.3 1.3 0 00.851-.438 1.419 1.419 0 00.3-.943 1.259 1.259 0 00-.448-1.035 1.939 1.939 0 00-1.261-.366h-.834a1.928 1.928 0 00-1.254.366 1.259 1.259 0 00-.448 1.035 1.314 1.314 0 00.2.7 1.953 1.953 0 00.574.588v1.272h-5.227v-5.066h1.326v3.671h2.235a1.992 1.992 0 01-.328-.581 1.926 1.926 0 01-.116-.656 2.886 2.886 0 01.356-1.474 2.279 2.279 0 011.039-.93 3.893 3.893 0 011.647-.317h.834a3.77 3.77 0 011.647.328 2.326 2.326 0 011.043.957 3 3 0 01.359 1.511 2.931 2.931 0 01-.294 1.333z"/><path class="cls-7" d="M51.161 134.004l-1.461-1.461" id="LINE-17" data-name="LINE"/><path class="cls-7" d="M52.622 132.543l-1.461 1.461" id="LINE-18" data-name="LINE"/><path class="cls-7" d="M51.162 102.754l1.461 1.461" id="LINE-19" data-name="LINE"/><path class="cls-7" d="M49.701 104.215l1.461-1.461" id="LINE-20" data-name="LINE"/><path class="cls-7" d="M51.161 33.983v25.688" id="LINE-21" data-name="LINE"/><path d="M54.458 53.73l8.7 2.57v1.483l-8.613-2.57v2.529h1.429v1.4h-2.76V53.73zM60.419 52.5l-7.2-3.336v-1.436l7.116 3.254v-4.875h1.292V52.5zm-3.11-4.286v-1.36h5.851v1.36zM62.962 42.959a2.407 2.407 0 01-.855.951 3.4 3.4 0 01-1.346.488h-.007V43h.007a1.293 1.293 0 00.851-.438 1.419 1.419 0 00.3-.943 1.259 1.259 0 00-.448-1.035 1.939 1.939 0 00-1.261-.366h-.834a1.928 1.928 0 00-1.254.366 1.259 1.259 0 00-.448 1.035 1.314 1.314 0 00.2.7 1.953 1.953 0 00.574.588v1.273h-5.227v-5.066h1.326v3.671h2.235a1.992 1.992 0 01-.328-.581 1.922 1.922 0 01-.116-.656 2.889 2.889 0 01.356-1.474 2.272 2.272 0 011.039-.929 3.892 3.892 0 011.647-.318h.834a3.785 3.785 0 011.647.328 2.326 2.326 0 011.043.957 3 3 0 01.359 1.511 2.931 2.931 0 01-.294 1.336z"/><path class="cls-7" d="M51.161 59.671L49.7 58.209" id="LINE-22" data-name="LINE"/><path class="cls-7" d="M52.622 58.209l-1.461 1.462" id="LINE-23" data-name="LINE"/><path class="cls-7" d="M51.162 33.983l1.461 1.461" id="LINE-24" data-name="LINE"/><path class="cls-7" d="M49.701 35.444l1.461-1.461" id="LINE-25" data-name="LINE"/><path class="cls-7" d="M146.354 137.437v40.254" id="LINE-26" data-name="LINE"/><path d="M158.347 167.783v1.4h-8.422l.868 1.415h-1.442l-.944-1.415v-1.4zM157.7 164.807a2.865 2.865 0 01-2.078.72h-4.519a2.853 2.853 0 01-2.081-.724 3.391 3.391 0 010-4.229 2.863 2.863 0 012.085-.72h4.519a2.856 2.856 0 012.082.724 3.38 3.38 0 010 4.229zm-.967-3.207a1.593 1.593 0 00-1.111-.352h-4.519a1.6 1.6 0 00-1.11.349 1.738 1.738 0 000 2.187 1.6 1.6 0 001.11.349h4.519a1.593 1.593 0 001.111-.352 1.733 1.733 0 000-2.181zM153.411 154.282l.246.007a1.024 1.024 0 01.462.516 2.077 2.077 0 01.147.817 2.189 2.189 0 01-.363 1.251 2.368 2.368 0 01-1.022.838 3.7 3.7 0 01-1.527.3h-.007a3.838 3.838 0 01-1.648-.324 2.3 2.3 0 01-1.039-.952 2.986 2.986 0 01-.355-1.5 2.922 2.922 0 01.362-1.5 2.323 2.323 0 011.053-.946 3.869 3.869 0 011.661-.325h.007a5.184 5.184 0 011.138.137 6.9 6.9 0 011.2.389c.059.028.119.055.181.082s.122.057.181.089l4.259 2.119v1.5zm-.861-.065a1.953 1.953 0 00-1.251-.359h-.007a1.857 1.857 0 00-1.217.359 1.421 1.421 0 000 2.037 1.857 1.857 0 001.224.359h.007a1.924 1.924 0 001.247-.359 1.393 1.393 0 000-2.037zM157.7 149.9a2.865 2.865 0 01-2.078.72h-4.519a2.853 2.853 0 01-2.081-.724 3.391 3.391 0 010-4.229 2.863 2.863 0 012.085-.721h4.519a2.856 2.856 0 012.082.725 3.38 3.38 0 010 4.229zm-.967-3.208a1.6 1.6 0 00-1.111-.351h-4.519a1.6 1.6 0 00-1.11.349 1.738 1.738 0 000 2.187 1.6 1.6 0 001.11.349h4.519a1.593 1.593 0 001.111-.352 1.735 1.735 0 000-2.182z"/><path class="cls-7" d="M146.354 177.691l-1.461-1.461" id="LINE-27" data-name="LINE"/><path class="cls-7" d="M147.815 176.23l-1.461 1.461" id="LINE-28" data-name="LINE"/><path class="cls-7" d="M146.355 137.437l1.461 1.462" id="LINE-29" data-name="LINE"/><path class="cls-7" d="M144.894 138.899l1.461-1.462" id="LINE-30" data-name="LINE"/><path class="cls-7" d="M123.453 11.4v116.458" id="LINE-31" data-name="LINE"/><path d="M135.548 79.088l-.3.636a2.513 2.513 0 01-.882 1.022 3.182 3.182 0 01-1.391.488v-1.421a1.5 1.5 0 00.7-.267 1.244 1.244 0 00.407-.53 1.992 1.992 0 00.133-.762 1.483 1.483 0 00-.369-1.073 1.376 1.376 0 00-1.046-.381h-.3a1.677 1.677 0 00-1.152.362 1.3 1.3 0 00-.407 1.026v.7h-1.326v-.7a1.167 1.167 0 00-.348-.9 1.4 1.4 0 00-.985-.321h-.307a1.192 1.192 0 00-.91.339 1.337 1.337 0 00-.321.96 1.477 1.477 0 00.133.636 1.214 1.214 0 00.411.474 1.848 1.848 0 00.693.284v1.41a3.611 3.611 0 01-1.394-.515 2.534 2.534 0 01-.882-.961 2.855 2.855 0 01-.3-1.333 2.754 2.754 0 01.677-1.989 2.519 2.519 0 011.907-.705h.164a2.146 2.146 0 011.3.4 2.277 2.277 0 01.807 1.141 2.014 2.014 0 01.8-1.26 2.643 2.643 0 011.586-.449h.164a3.065 3.065 0 011.483.335 2.22 2.22 0 01.937.975 3.4 3.4 0 01.321 1.541zM135.445 71.022v1.394h-8.422l.869 1.415h-1.443l-.943-1.415v-1.394zM135.445 66.366v1.395h-8.422l.869 1.415h-1.443l-.943-1.415v-1.395zM134.8 63.39a2.868 2.868 0 01-2.078.72h-4.519a2.843 2.843 0 110-5.673h4.519a2.852 2.852 0 012.081.724 3.379 3.379 0 010 4.229zm-.968-3.207a1.589 1.589 0 00-1.11-.352h-4.519a1.6 1.6 0 00-1.111.349 1.742 1.742 0 000 2.187 1.6 1.6 0 001.111.349h4.519a1.589 1.589 0 001.11-.352 1.73 1.73 0 000-2.181z"/><path class="cls-7" d="M123.453 127.858l-1.462-1.461" id="LINE-32" data-name="LINE"/><path class="cls-7" d="M124.914 126.397l-1.461 1.461" id="LINE-33" data-name="LINE"/><path class="cls-7" d="M123.453 11.4l1.462 1.461" id="LINE-34" data-name="LINE"/><path class="cls-7" d="M121.992 12.861l1.461-1.461" id="LINE-35" data-name="LINE"/><path class="cls-7" d="M177.953 34.066v93.792" id="LINE-36" data-name="LINE"/><path d="M188.735 93.7l-4.621-3.466a3.435 3.435 0 00-.823-.467 2.169 2.169 0 00-.8-.168h-.014a1.2 1.2 0 00-.922.348 1.391 1.391 0 00-.329.991 1.369 1.369 0 00.359.985 1.634 1.634 0 001.016.458h.006v1.442h-.007a3.726 3.726 0 01-1.46-.5 2.566 2.566 0 01-.923-.981 2.927 2.927 0 01-.318-1.388 3.448 3.448 0 01.305-1.517 2.131 2.131 0 01.885-.957 2.8 2.8 0 011.4-.329h.007a3.11 3.11 0 011.1.219 4.733 4.733 0 011.107.609l3.91 2.877V88.1h1.326v5.6zM189.754 84.882a2.407 2.407 0 01-.855.951 3.4 3.4 0 01-1.346.488h-.007v-1.394h.007a1.293 1.293 0 00.851-.438 1.419 1.419 0 00.3-.943 1.259 1.259 0 00-.448-1.035 1.939 1.939 0 00-1.256-.366h-.834a1.928 1.928 0 00-1.254.366 1.259 1.259 0 00-.448 1.035 1.314 1.314 0 00.205.7 1.953 1.953 0 00.574.588V86.1h-5.236v-5.063h1.326v3.671h2.235a1.992 1.992 0 01-.328-.581 1.926 1.926 0 01-.116-.656 2.889 2.889 0 01.355-1.471 2.279 2.279 0 011.039-.93 3.908 3.908 0 011.647-.317H187a3.77 3.77 0 011.647.328 2.326 2.326 0 011.043.957 3 3 0 01.359 1.511 2.931 2.931 0 01-.295 1.333zM189.945 76.3v1.394h-8.422l.869 1.415h-1.443l-.943-1.415V76.3zM189.3 73.323a2.864 2.864 0 01-2.078.721h-4.519a2.843 2.843 0 110-5.674h4.519a2.559 2.559 0 012.823 2.837 2.816 2.816 0 01-.745 2.116zm-.968-3.207a1.593 1.593 0 00-1.11-.351h-4.519a1.607 1.607 0 00-1.111.348 1.743 1.743 0 000 2.188 1.607 1.607 0 001.111.348h4.519a1.593 1.593 0 001.11-.351 1.731 1.731 0 000-2.182z"/><path class="cls-7" d="M177.953 127.858l-1.462-1.461" id="LINE-37" data-name="LINE"/><path class="cls-7" d="M179.414 126.397l-1.461 1.461" id="LINE-38" data-name="LINE"/><path class="cls-7" d="M177.953 34.066l1.462 1.462" id="LINE-39" data-name="LINE"/><path class="cls-7" d="M176.492 35.528l1.461-1.462" id="LINE-40" data-name="LINE"/><path class="cls-7" d="M146.353 180.9v79.979" id="LINE-41" data-name="LINE"/><path d="M157.136 233.523l-4.621-3.466a3.426 3.426 0 00-.824-.468 2.185 2.185 0 00-.8-.168h-.014a1.2 1.2 0 00-.923.349 1.388 1.388 0 00-.328.991 1.368 1.368 0 00.359.984 1.631 1.631 0 001.015.455h.007v1.443H151a3.727 3.727 0 01-1.459-.5 2.562 2.562 0 01-.923-.982 2.924 2.924 0 01-.318-1.388 3.454 3.454 0 01.3-1.517 2.141 2.141 0 01.885-.957 2.809 2.809 0 011.4-.328h.006a3.1 3.1 0 011.1.218 4.713 4.713 0 011.107.609l3.911 2.878v-3.76h1.326v5.606zM158.346 223.74v1.395h-8.422l.868 1.415h-1.442l-.944-1.415v-1.395zM158.448 219.748l-.3.636a2.528 2.528 0 01-.882 1.022 3.2 3.2 0 01-1.392.489v-1.422a1.491 1.491 0 00.7-.267 1.233 1.233 0 00.408-.53 2.012 2.012 0 00.132-.762 1.483 1.483 0 00-.369-1.073 1.376 1.376 0 00-1.039-.383h-.3a1.676 1.676 0 00-1.151.362 1.3 1.3 0 00-.407 1.026v.7h-1.326v-.7a1.168 1.168 0 00-.349-.9 1.4 1.4 0 00-.984-.321h-.308a1.19 1.19 0 00-.909.339 1.339 1.339 0 00-.321.96 1.462 1.462 0 00.133.636 1.214 1.214 0 00.411.474 1.848 1.848 0 00.693.284v1.416a3.639 3.639 0 01-1.4-.516 2.55 2.55 0 01-.882-.961 2.867 2.867 0 01-.3-1.333 2.755 2.755 0 01.676-1.989 2.521 2.521 0 011.908-.7h.164a2.148 2.148 0 011.3.4 2.268 2.268 0 01.806 1.142 2.027 2.027 0 01.8-1.261 2.645 2.645 0 011.586-.448h.164a3.063 3.063 0 011.483.334 2.209 2.209 0 01.937.975 3.389 3.389 0 01.321 1.541zM157.7 213.36a2.861 2.861 0 01-2.078.721h-4.519a2.855 2.855 0 01-2.081-.724 3.391 3.391 0 010-4.229 2.865 2.865 0 012.085-.721h4.519a2.558 2.558 0 012.823 2.837 2.812 2.812 0 01-.749 2.116zm-.967-3.207a1.6 1.6 0 00-1.111-.351h-4.519a1.6 1.6 0 00-1.11.348 1.74 1.74 0 000 2.188 1.6 1.6 0 001.11.349h4.519a1.6 1.6 0 001.111-.352 1.735 1.735 0 000-2.182z"/><path class="cls-7" d="M146.353 260.879l-1.461-1.461" id="LINE-42" data-name="LINE"/><path class="cls-7" d="M147.815 259.418l-1.462 1.461" id="LINE-43" data-name="LINE"/><path class="cls-7" d="M146.354 180.9l1.461 1.461" id="LINE-44" data-name="LINE"/><path class="cls-7" d="M144.893 182.361l1.461-1.461" id="LINE-45" data-name="LINE"/><path class="cls-7" d="M84.998 112.882v22.735" id="LINE-46" data-name="LINE"/><path class="cls-7" d="M112.688 112.882v22.735" id="LINE-47" data-name="LINE"/><path class="cls-7" d="M112.688 112.882h-27.69" id="LINE-48" data-name="LINE"/><path d="M89.86 109.963a2.44 2.44 0 01-1.019-.963 2.859 2.859 0 01-.36-1.452v-.164a2.867 2.867 0 01.36-1.4 2.439 2.439 0 01.959-.991 2.123 2.123 0 01-.814-.832 2.281 2.281 0 01-.307-1.144v-.238a2.722 2.722 0 01.337-1.372 2.315 2.315 0 01.949-.916 3.293 3.293 0 012.849 0 2.311 2.311 0 01.95.916 2.722 2.722 0 01.337 1.372v.238a2.279 2.279 0 01-.313 1.156 2.127 2.127 0 01-.829.82 2.528 2.528 0 01.974 1 2.81 2.81 0 01.366 1.4v.164a2.859 2.859 0 01-.36 1.452 2.445 2.445 0 01-1.019.967 3.593 3.593 0 01-3.06 0zm2.354-1.189a1.351 1.351 0 00.551-.537 1.592 1.592 0 00.194-.8v-.095a1.607 1.607 0 00-.194-.8 1.364 1.364 0 00-.551-.537 1.875 1.875 0 00-1.649 0 1.364 1.364 0 00-.55.541 1.621 1.621 0 00-.2.807v.1a1.576 1.576 0 00.2.794 1.336 1.336 0 00.55.529 1.737 1.737 0 00.825.188 1.719 1.719 0 00.824-.19zm-.112-4.482a1.208 1.208 0 00.481-.516 1.656 1.656 0 00.172-.771v-.1a1.529 1.529 0 00-.172-.738 1.192 1.192 0 00-.481-.5 1.544 1.544 0 00-1.424 0 1.2 1.2 0 00-.482.5 1.559 1.559 0 00-.172.744v.1a1.632 1.632 0 00.172.761 1.229 1.229 0 00.482.512 1.484 1.484 0 001.424 0zM96.874 109.56a2.925 2.925 0 01-.7-2.078v-4.518a2.914 2.914 0 01.7-2.082 3.182 3.182 0 014.08 0 2.922 2.922 0 01.7 2.086v4.518a2.923 2.923 0 01-.7 2.082 3.172 3.172 0 01-4.08 0zm3.093-.967a1.628 1.628 0 00.34-1.111v-4.518a1.641 1.641 0 00-.336-1.111 1.633 1.633 0 00-2.111 0 1.641 1.641 0 00-.336 1.111v4.518a1.633 1.633 0 00.339 1.111 1.627 1.627 0 002.1 0zM104.327 109.56a2.925 2.925 0 01-.7-2.078v-4.518a2.91 2.91 0 01.7-2.082 3.181 3.181 0 014.079 0 2.922 2.922 0 01.7 2.086v4.518a2.919 2.919 0 01-.7 2.082 3.172 3.172 0 01-4.08 0zm3.093-.967a1.628 1.628 0 00.34-1.111v-4.518a1.641 1.641 0 00-.336-1.111 1.633 1.633 0 00-2.111 0 1.641 1.641 0 00-.336 1.111v4.518a1.633 1.633 0 00.339 1.111 1.627 1.627 0 002.1 0z"/><path class="cls-7" d="M84.998 112.882l1.41 1.461" id="LINE-49" data-name="LINE"/><path class="cls-7" d="M86.408 111.421l-1.41 1.461" id="LINE-50" data-name="LINE"/><path class="cls-7" d="M112.688 112.9l-1.41 1.461" id="LINE-51" data-name="LINE"/><path class="cls-7" d="M111.278 111.439l1.41 1.461" id="LINE-52" data-name="LINE"/><path class="cls-7" d="M81.729 192.567v14.785" id="LINE-53" data-name="LINE"/><path class="cls-7" d="M109.813 192.567v14.785" id="LINE-54" data-name="LINE"/><path class="cls-7" d="M109.813 192.566H81.729" id="LINE-55" data-name="LINE"/><path d="M86.788 189.758a2.448 2.448 0 01-1.019-.968 2.859 2.859 0 01-.359-1.452v-.164a2.866 2.866 0 01.359-1.4 2.441 2.441 0 01.96-.991 2.126 2.126 0 01-.815-.832 2.281 2.281 0 01-.307-1.144v-.239a2.721 2.721 0 01.337-1.371 2.311 2.311 0 01.95-.916 3.293 3.293 0 012.849 0 2.315 2.315 0 01.949.916 2.721 2.721 0 01.337 1.371v.239a2.279 2.279 0 01-.313 1.156 2.131 2.131 0 01-.828.82 2.53 2.53 0 01.973.994 2.816 2.816 0 01.366 1.4v.164a2.859 2.859 0 01-.36 1.452 2.454 2.454 0 01-1.019.968 3.593 3.593 0 01-3.06 0zm2.355-1.19a1.355 1.355 0 00.55-.537 1.593 1.593 0 00.2-.8v-.095a1.605 1.605 0 00-.2-.8 1.367 1.367 0 00-.55-.537 1.866 1.866 0 00-1.649 0 1.354 1.354 0 00-.551.541 1.62 1.62 0 00-.194.807v.1a1.567 1.567 0 00.194.793 1.335 1.335 0 00.551.53 1.88 1.88 0 001.649 0zm-.113-4.482a1.216 1.216 0 00.482-.516 1.668 1.668 0 00.172-.771v-.1a1.541 1.541 0 00-.172-.738 1.2 1.2 0 00-.482-.5 1.544 1.544 0 00-1.424 0 1.192 1.192 0 00-.481.5 1.548 1.548 0 00-.172.744v.1a1.62 1.62 0 00.172.761 1.221 1.221 0 00.481.512 1.484 1.484 0 001.424 0zM93.8 189.354a2.929 2.929 0 01-.7-2.079v-4.517a2.91 2.91 0 01.7-2.082 3.181 3.181 0 014.079 0 2.922 2.922 0 01.7 2.086v4.517a2.916 2.916 0 01-.7 2.082 3.167 3.167 0 01-4.08 0zm3.094-.967a1.634 1.634 0 00.339-1.112v-4.517a1.639 1.639 0 00-.336-1.111 1.632 1.632 0 00-2.11 0 1.634 1.634 0 00-.337 1.111v4.517a1.629 1.629 0 00.34 1.112 1.627 1.627 0 002.1 0zM101.255 189.354a2.933 2.933 0 01-.695-2.079v-4.517a2.91 2.91 0 01.7-2.082 3.181 3.181 0 014.079 0 2.922 2.922 0 01.7 2.086v4.517a2.916 2.916 0 01-.7 2.082 3.167 3.167 0 01-4.08 0zm3.094-.967a1.634 1.634 0 00.339-1.112v-4.517a1.639 1.639 0 00-.336-1.111 1.632 1.632 0 00-2.11 0 1.634 1.634 0 00-.337 1.111v4.517a1.634 1.634 0 00.34 1.112 1.627 1.627 0 002.1 0z"/><path class="cls-7" d="M81.729 192.566l1.41-1.461" id="LINE-56" data-name="LINE"/><path class="cls-7" d="M83.139 194.028l-1.41-1.462" id="LINE-57" data-name="LINE"/><path class="cls-7" d="M109.813 192.549l-1.41-1.461" id="LINE-58" data-name="LINE"/><path class="cls-7" d="M108.403 194.01l1.41-1.461" id="LINE-59" data-name="LINE"/><path class="cls-7" d="M183.354 156.277v-18.993" id="LINE-60" data-name="LINE"/><path class="cls-7" d="M214.229 156.277v-18.993" id="LINE-61" data-name="LINE"/><path class="cls-7" d="M214.229 156.277h-30.875" id="LINE-62" data-name="LINE"/><path d="M192.259 164.535l-.007.246a.983.983 0 01-.5.461 1.9 1.9 0 01-.788.149 2.055 2.055 0 01-1.207-.364 2.34 2.34 0 01-.807-1.021 3.789 3.789 0 01-.287-1.527v-.008a3.926 3.926 0 01.313-1.647 2.253 2.253 0 01.917-1.039 2.789 2.789 0 011.447-.355 2.759 2.759 0 011.445.361 2.313 2.313 0 01.913 1.053 4 4 0 01.314 1.662v.006a5.358 5.358 0 01-.132 1.138 7.39 7.39 0 01-.376 1.2l-.079.181a2.73 2.73 0 01-.086.182l-2.045 4.258h-1.451zm.063-.861a1.988 1.988 0 00.346-1.25v-.008a1.9 1.9 0 00-.346-1.217 1.341 1.341 0 00-1.966 0 1.911 1.911 0 00-.346 1.225v.006a1.978 1.978 0 00.346 1.248 1.184 1.184 0 00.986.441 1.168 1.168 0 00.98-.445zM196.49 168.828a2.925 2.925 0 01-.7-2.078v-4.518a2.913 2.913 0 01.7-2.082 3.179 3.179 0 014.079 0 2.921 2.921 0 01.7 2.085v4.518a2.916 2.916 0 01-.7 2.082 3.169 3.169 0 01-4.08 0zm3.093-.967a1.626 1.626 0 00.34-1.111v-4.518a1.643 1.643 0 00-.336-1.111 1.632 1.632 0 00-2.11 0 1.638 1.638 0 00-.337 1.111v4.518a1.631 1.631 0 00.339 1.111 1.623 1.623 0 002.1 0zM203.943 168.828a2.924 2.924 0 01-.7-2.078v-4.518a2.913 2.913 0 01.7-2.082 3.179 3.179 0 014.079 0 2.921 2.921 0 01.7 2.085v4.518a2.916 2.916 0 01-.7 2.082 3.169 3.169 0 01-4.08 0zm3.094-.967a1.631 1.631 0 00.339-1.111v-4.518a1.643 1.643 0 00-.336-1.111 1.632 1.632 0 00-2.11 0 1.638 1.638 0 00-.337 1.111v4.518a1.631 1.631 0 00.34 1.111 1.623 1.623 0 002.1 0z"/><path class="cls-7" d="M183.354 156.277l1.41 1.461" id="LINE-63" data-name="LINE"/><path class="cls-7" d="M184.764 154.816l-1.41 1.461" id="LINE-64" data-name="LINE"/><path class="cls-7" d="M214.229 156.295l-1.409 1.461" id="LINE-65" data-name="LINE"/><path class="cls-7" d="M212.82 154.834l1.409 1.461" id="LINE-66" data-name="LINE"/><path class="cls-7" d="M15.605 162.684h22.46" id="LINE-67" data-name="LINE"/><path class="cls-7" d="M15.605 201.91h22.46" id="LINE-68" data-name="LINE"/><path class="cls-7" d="M15.604 201.91v-39.226" id="LINE-69" data-name="LINE"/><path d="M11.97 190.905v1.4H3.548l.868 1.415H2.974l-.944-1.42v-1.4zM11.97 186.25v1.4H3.548l.868 1.415H2.974l-.944-1.415v-1.4zM11.327 183.273a2.861 2.861 0 01-2.078.721H4.73a2.853 2.853 0 01-2.081-.724 3.389 3.389 0 010-4.229 2.861 2.861 0 012.084-.721h4.516a2.856 2.856 0 012.082.725 3.379 3.379 0 010 4.228zm-.967-3.207a1.6 1.6 0 00-1.111-.351H4.73a1.6 1.6 0 00-1.11.349 1.738 1.738 0 000 2.187 1.6 1.6 0 001.11.349h4.519a1.6 1.6 0 001.111-.352 1.735 1.735 0 000-2.182zM11.327 175.549a2.865 2.865 0 01-2.078.721H4.73a2.854 2.854 0 01-2.081-.725 3.389 3.389 0 010-4.229 2.86 2.86 0 012.084-.72h4.516a2.856 2.856 0 012.082.724 3.38 3.38 0 010 4.229zm-.967-3.207a1.591 1.591 0 00-1.111-.352H4.73a1.6 1.6 0 00-1.11.349 1.738 1.738 0 000 2.187 1.6 1.6 0 001.11.349h4.519a1.591 1.591 0 001.111-.352 1.733 1.733 0 000-2.181z"/><path class="cls-7" d="M15.604 162.684l-1.461 1.461" id="LINE-70" data-name="LINE"/><path class="cls-7" d="M17.066 164.145l-1.462-1.461" id="LINE-71" data-name="LINE"/><path class="cls-7" d="M15.605 201.91l1.461-1.461" id="LINE-72" data-name="LINE"/><path class="cls-7" d="M14.144 200.449l1.461 1.461" id="LINE-73" data-name="LINE"/><path class="cls-7" d="M342.961 44.6h-17.074" id="LINE-74" data-name="LINE"/><path class="cls-7" d="M343.005 11.143h-17.073" id="LINE-75" data-name="LINE"/><path class="cls-7" d="M342.999 11.143L342.95 44.6" id="LINE-76" data-name="LINE"/><path d="M354.7 36.791a2.5 2.5 0 01-.967 1.057 2.788 2.788 0 01-1.453.372h-.164a2.8 2.8 0 01-1.4-.372 2.489 2.489 0 01-.991-.995 2.19 2.19 0 01-.83.844 2.248 2.248 0 01-1.146.318h-.239a2.646 2.646 0 01-1.37-.349 2.35 2.35 0 01-.916-.984 3.507 3.507 0 010-2.953 2.358 2.358 0 01.916-.985 2.645 2.645 0 011.37-.348h.239a2.2 2.2 0 011.155.325 2.158 2.158 0 01.821.857 2.569 2.569 0 011-1.008 2.722 2.722 0 011.4-.38h.164a2.788 2.788 0 011.453.373 2.494 2.494 0 01.967 1.056 3.848 3.848 0 010 3.172zm-5.67-2.324a1.254 1.254 0 00-.516-.5 1.63 1.63 0 00-.773-.178h-.1a1.51 1.51 0 00-.739.178 1.226 1.226 0 00-.5.5 1.644 1.644 0 000 1.476 1.226 1.226 0 00.5.5 1.512 1.512 0 00.745.178h.1a1.589 1.589 0 00.763-.178 1.262 1.262 0 00.512-.5 1.6 1.6 0 000-1.476zm4.481-.116a1.391 1.391 0 00-.536-.572 1.567 1.567 0 00-.8-.2h-.1a1.577 1.577 0 00-.8.2 1.393 1.393 0 00-.537.572 2.007 2.007 0 000 1.709 1.384 1.384 0 00.54.571 1.59 1.59 0 00.807.2h.1a1.532 1.532 0 00.793-.2 1.37 1.37 0 00.531-.571 1.866 1.866 0 00.187-.855 1.825 1.825 0 00-.186-.854zM346.243 25.108l8.695 2.571v1.483l-8.613-2.57v2.529h1.429v1.395H345v-5.408zM354.747 21.755a2.4 2.4 0 01-.854.951 3.4 3.4 0 01-1.347.488h-.007V21.8h.007a1.291 1.291 0 00.851-.438 1.413 1.413 0 00.3-.943 1.261 1.261 0 00-.447-1.035 1.944 1.944 0 00-1.262-.366h-.834a1.93 1.93 0 00-1.254.366 1.259 1.259 0 00-.448 1.035 1.314 1.314 0 00.2.7 1.953 1.953 0 00.574.588v1.272H345V17.91h1.326v3.671h2.236a2.018 2.018 0 01-.329-.581 1.926 1.926 0 01-.116-.656 2.889 2.889 0 01.356-1.474 2.289 2.289 0 011.039-.93 3.915 3.915 0 011.647-.317h.834a3.775 3.775 0 011.648.328 2.331 2.331 0 011.043.957 3 3 0 01.358 1.511 2.931 2.931 0 01-.295 1.336z"/><path class="cls-7" d="M342.943 44.6l1.462-1.461" id="LINE-77" data-name="LINE"/><path class="cls-7" d="M341.482 43.139l1.461 1.461" id="LINE-78" data-name="LINE"/><path class="cls-7" d="M343.045 11.143l-1.461 1.461" id="LINE-79" data-name="LINE"/><path class="cls-7" d="M344.506 12.604l-1.461-1.461" id="LINE-80" data-name="LINE"/><path class="cls-7" d="M342.961 110.433h-17.074" id="LINE-81" data-name="LINE"/><path class="cls-7" d="M343.005 44.566h-17.073" id="LINE-82" data-name="LINE"/><path class="cls-7" d="M342.999 44.566l-.049 65.867" id="LINE-83" data-name="LINE"/><path d="M354.938 86.116v1.395h-8.421l.868 1.415h-1.443L345 87.511v-1.395zM346.243 78.727l8.695 2.57v1.483l-8.613-2.57v2.529h1.429v1.395H345v-5.407zM354.938 74.413v1.4h-8.421l.868 1.415h-1.443l-.942-1.42v-1.4zM354.3 71.437a2.866 2.866 0 01-2.078.72H347.7a2.853 2.853 0 01-2.081-.724 3.391 3.391 0 010-4.229 2.863 2.863 0 012.085-.721h4.519a2.856 2.856 0 012.082.725 3.38 3.38 0 010 4.229zm-.967-3.207a1.593 1.593 0 00-1.111-.352H347.7a1.6 1.6 0 00-1.11.349 1.738 1.738 0 000 2.187 1.6 1.6 0 001.11.349h4.519a1.593 1.593 0 001.111-.352 1.733 1.733 0 000-2.181z"/><path class="cls-7" d="M342.943 110.433l1.462-1.461" id="LINE-84" data-name="LINE"/><path class="cls-7" d="M341.482 108.972l1.461 1.461" id="LINE-85" data-name="LINE"/><path class="cls-7" d="M343.045 44.566l-1.461 1.462" id="LINE-86" data-name="LINE"/><path class="cls-7" d="M344.506 46.028l-1.461-1.462" id="LINE-87" data-name="LINE"/><path class="cls-7" d="M342.961 154.6h-17.074" id="LINE-88" data-name="LINE"/><path class="cls-7" d="M343.005 110.483h-17.073" id="LINE-89" data-name="LINE"/><path class="cls-7" d="M342.999 110.483l-.049 44.117" id="LINE-90" data-name="LINE"/><path d="M354.938 140.989v1.395h-8.421l.868 1.415h-1.443l-.942-1.415v-1.395zM353.729 138.884l-4.622-3.466a3.454 3.454 0 00-.823-.468 2.19 2.19 0 00-.8-.168h-.013a1.2 1.2 0 00-.923.349 1.388 1.388 0 00-.328.991 1.371 1.371 0 00.359.985 1.634 1.634 0 001.015.458h.007v1.442h-.001a3.721 3.721 0 01-1.459-.5 2.554 2.554 0 01-.923-.982 2.923 2.923 0 01-.319-1.387 3.456 3.456 0 01.305-1.518 2.136 2.136 0 01.885-.957 2.805 2.805 0 011.4-.328h.007a3.084 3.084 0 011.1.219 4.673 4.673 0 011.107.608l3.91 2.878v-3.76h1.326v5.606zM352.2 132.048l-7.2-3.336v-1.436l7.116 3.254v-4.874h1.292v6.392zm-3.11-4.286V126.4h5.851v1.361zM354.3 123.227a2.866 2.866 0 01-2.078.72H347.7a2.853 2.853 0 01-2.081-.724 3.391 3.391 0 010-4.229 2.863 2.863 0 012.085-.721h4.519a2.856 2.856 0 012.077.727 3.38 3.38 0 010 4.229zm-.967-3.207a1.593 1.593 0 00-1.111-.352H347.7a1.6 1.6 0 00-1.11.349 1.738 1.738 0 000 2.187 1.6 1.6 0 001.11.349h4.519a1.593 1.593 0 001.111-.352 1.733 1.733 0 000-2.181z"/><path class="cls-7" d="M342.943 154.6l1.462-1.461" id="LINE-91" data-name="LINE"/><path class="cls-7" d="M341.482 153.139l1.461 1.461" id="LINE-92" data-name="LINE"/><path class="cls-7" d="M343.045 110.483l-1.461 1.461" id="LINE-93" data-name="LINE"/><path class="cls-7" d="M344.506 111.944l-1.461-1.461" id="LINE-94" data-name="LINE"/><path class="cls-7" d="M342.961 261.225h-17.074" id="LINE-95" data-name="LINE"/><path class="cls-7" d="M343.005 238.233h-17.073" id="LINE-96" data-name="LINE"/><path class="cls-7" d="M342.999 238.233l-.049 22.992" id="LINE-97" data-name="LINE"/><path d="M354.689 258.259a2.293 2.293 0 01-1.025.947 3.718 3.718 0 01-1.624.324h-.007a5.545 5.545 0 01-1.162-.13 6.625 6.625 0 01-1.2-.376 2.416 2.416 0 01-.2-.088l-.2-.1L345 256.68v-1.5l4.956 2.536-.246-.007a1.2 1.2 0 01-.5-.5 1.59 1.59 0 01-.178-.766 2.435 2.435 0 01.349-1.326 2.182 2.182 0 011.015-.841 4.05 4.05 0 011.6-.287h.007a3.78 3.78 0 011.64.326 2.282 2.282 0 011.04.949 3.355 3.355 0 010 3zm-1.4-2.52a1.726 1.726 0 00-1.169-.358h-.007a1.968 1.968 0 00-1.288.376 1.311 1.311 0 00-.455 1.073 1.133 1.133 0 00.458.964 2.126 2.126 0 001.292.342h.007a1.7 1.7 0 001.166-.36 1.475 1.475 0 000-2.037zM353.729 252.291l-4.622-3.466a3.454 3.454 0 00-.823-.468 2.187 2.187 0 00-.8-.167h-.013a1.207 1.207 0 00-.923.348 1.391 1.391 0 00-.328.991 1.369 1.369 0 00.359.985 1.629 1.629 0 001.015.458h.007v1.442h-.001a3.721 3.721 0 01-1.459-.5 2.559 2.559 0 01-.923-.981 2.93 2.93 0 01-.319-1.388 3.456 3.456 0 01.305-1.518 2.141 2.141 0 01.885-.957 2.816 2.816 0 011.4-.328h.007a3.106 3.106 0 011.1.219 4.745 4.745 0 011.107.608l3.91 2.878v-3.759h1.326v5.6zM354.747 243.469a2.4 2.4 0 01-.854.951 3.4 3.4 0 01-1.347.488h-.007v-1.394h.007a1.3 1.3 0 00.851-.438 1.413 1.413 0 00.3-.943 1.261 1.261 0 00-.447-1.035 1.944 1.944 0 00-1.262-.366h-.834a1.93 1.93 0 00-1.254.366 1.259 1.259 0 00-.448 1.035 1.314 1.314 0 00.2.7 1.953 1.953 0 00.574.588v1.272H345v-5.066h1.326v3.673h2.236a2.018 2.018 0 01-.329-.581 1.926 1.926 0 01-.116-.656 2.886 2.886 0 01.356-1.474 2.289 2.289 0 011.039-.93 3.9 3.9 0 011.647-.317h.834a3.775 3.775 0 011.648.328 2.331 2.331 0 011.043.957 3 3 0 01.358 1.511 2.931 2.931 0 01-.295 1.331z"/><path class="cls-7" d="M342.943 261.225l1.462-1.461" id="LINE-98" data-name="LINE"/><path class="cls-7" d="M341.482 259.764l1.461 1.461" id="LINE-99" data-name="LINE"/><path class="cls-7" d="M343.045 238.233l-1.461 1.461" id="LINE-100" data-name="LINE"/><path class="cls-7" d="M344.506 239.694l-1.461-1.461" id="LINE-101" data-name="LINE"/><path class="cls-7" d="M342.961 238.35h-17.074" id="LINE-102" data-name="LINE"/><path class="cls-7" d="M343.005 154.816h-17.073" id="LINE-103" data-name="LINE"/><path class="cls-7" d="M342.999 154.816l-.049 83.534" id="LINE-104" data-name="LINE"/><path d="M353.729 209.107l-4.622-3.466a3.387 3.387 0 00-.823-.468 2.19 2.19 0 00-.8-.168h-.013a1.2 1.2 0 00-.923.349 1.388 1.388 0 00-.328.991 1.368 1.368 0 00.359.984 1.629 1.629 0 001.015.458h.007v1.443h-.001a3.721 3.721 0 01-1.459-.5 2.554 2.554 0 01-.923-.982 2.924 2.924 0 01-.319-1.388 3.454 3.454 0 01.305-1.517 2.136 2.136 0 01.885-.957 2.805 2.805 0 011.4-.328h.007a3.1 3.1 0 011.1.218 4.713 4.713 0 011.107.609l3.91 2.878V203.5h1.326v5.606zM354.938 199.324v1.395h-8.421l.868 1.415h-1.443l-.942-1.415v-1.395zM354.689 196a2.293 2.293 0 01-1.025.947 3.718 3.718 0 01-1.624.324h-.007a5.541 5.541 0 01-1.162-.129 6.787 6.787 0 01-1.2-.376 2.81 2.81 0 01-.2-.089l-.2-.1-4.271-2.154v-1.5l4.956 2.536-.246-.007a1.2 1.2 0 01-.5-.5 1.583 1.583 0 01-.178-.765 2.438 2.438 0 01.349-1.327 2.174 2.174 0 011.015-.84 4.033 4.033 0 011.6-.287h.007a3.78 3.78 0 011.64.325 2.287 2.287 0 011.04.949 3.355 3.355 0 010 3zm-1.4-2.52a1.726 1.726 0 00-1.169-.358h-.007a1.968 1.968 0 00-1.288.376 1.311 1.311 0 00-.455 1.073 1.132 1.132 0 00.458.964 2.126 2.126 0 001.292.342h.007a1.706 1.706 0 001.166-.359 1.477 1.477 0 000-2.038zM354.3 189.163a2.862 2.862 0 01-2.078.721H347.7a2.849 2.849 0 01-2.081-.725 3.39 3.39 0 010-4.228 2.859 2.859 0 012.085-.721h4.519a2.852 2.852 0 012.082.725 3.379 3.379 0 010 4.228zm-.967-3.207a1.6 1.6 0 00-1.111-.351H347.7a1.6 1.6 0 00-1.11.348 1.74 1.74 0 000 2.188 1.6 1.6 0 001.11.348h4.519a1.6 1.6 0 001.111-.351 1.735 1.735 0 000-2.182z"/><path class="cls-7" d="M342.943 238.35l1.462-1.461" id="LINE-105" data-name="LINE"/><path class="cls-7" d="M341.482 236.889l1.461 1.461" id="LINE-106" data-name="LINE"/><path class="cls-7" d="M343.045 154.816l-1.461 1.462" id="LINE-107" data-name="LINE"/><path class="cls-7" d="M344.506 156.278l-1.461-1.462" id="LINE-108" data-name="LINE"/><path class="cls-7" d="M387.68 249.441h-17.074" id="LINE-109" data-name="LINE"/><path class="cls-7" d="M387.724 143.629H370.65" id="LINE-110" data-name="LINE"/><path class="cls-7" d="M387.718 143.629l-.05 105.812" id="LINE-111" data-name="LINE"/><path d="M398.447 210.94l-4.621-3.466a3.387 3.387 0 00-.823-.468 2.19 2.19 0 00-.8-.168h-.014a1.2 1.2 0 00-.922.349 1.388 1.388 0 00-.329.991 1.369 1.369 0 00.36.984 1.628 1.628 0 001.014.458h.007v1.443h-.007a3.732 3.732 0 01-1.459-.5 2.559 2.559 0 01-.922-.982 2.924 2.924 0 01-.319-1.388 3.454 3.454 0 01.305-1.517 2.136 2.136 0 01.885-.957 2.8 2.8 0 011.4-.328h.007a3.1 3.1 0 011.1.218 4.739 4.739 0 011.108.609l3.91 2.878v-3.76h1.326v5.606zM399.418 202.231a2.5 2.5 0 01-.967 1.056 2.788 2.788 0 01-1.453.372h-.164a2.8 2.8 0 01-1.4-.372 2.5 2.5 0 01-.992-1 2.172 2.172 0 01-.83.845 2.241 2.241 0 01-1.145.317h-.239a2.651 2.651 0 01-1.371-.348 2.364 2.364 0 01-.916-.985 3.516 3.516 0 010-2.953 2.356 2.356 0 01.916-.984 2.642 2.642 0 011.371-.349h.239a2.2 2.2 0 011.155.325 2.151 2.151 0 01.82.858 2.579 2.579 0 011-1.008 2.722 2.722 0 011.4-.38H397a2.788 2.788 0 011.453.372 2.5 2.5 0 01.967 1.057 3.848 3.848 0 010 3.172zm-5.67-2.325a1.25 1.25 0 00-.517-.5 1.622 1.622 0 00-.772-.177h-.1a1.509 1.509 0 00-.738.177 1.226 1.226 0 00-.5.5 1.646 1.646 0 000 1.477 1.226 1.226 0 00.5.5 1.523 1.523 0 00.745.178h.1a1.593 1.593 0 00.762-.178 1.258 1.258 0 00.513-.5 1.6 1.6 0 000-1.477zm4.481-.116a1.384 1.384 0 00-.537-.571 1.554 1.554 0 00-.8-.2h-.1a1.567 1.567 0 00-.8.2 1.39 1.39 0 00-.537.571 2.007 2.007 0 000 1.709 1.378 1.378 0 00.54.571 1.588 1.588 0 00.807.2h.1a1.533 1.533 0 00.793-.2 1.362 1.362 0 00.53-.571 1.862 1.862 0 00.188-.854 1.838 1.838 0 00-.184-.855zM399.015 194.961a2.867 2.867 0 01-2.078.721h-4.519a2.852 2.852 0 01-2.081-.725 3.39 3.39 0 010-4.228 2.859 2.859 0 012.085-.721h4.519a2.857 2.857 0 012.082.724 3.38 3.38 0 010 4.229zm-.967-3.207a1.6 1.6 0 00-1.111-.352h-4.519a1.6 1.6 0 00-1.11.349 1.74 1.74 0 000 2.188 1.6 1.6 0 001.11.348h4.519a1.6 1.6 0 001.111-.351 1.735 1.735 0 000-2.182zM399.015 187.236a2.862 2.862 0 01-2.078.721h-4.519a2.843 2.843 0 110-5.674h4.519a2.853 2.853 0 012.082.725 3.379 3.379 0 010 4.228zm-.967-3.207a1.6 1.6 0 00-1.111-.351h-4.519a1.6 1.6 0 00-1.11.348 1.74 1.74 0 000 2.188 1.6 1.6 0 001.11.349h4.519a1.6 1.6 0 001.111-.352 1.735 1.735 0 000-2.182z"/><path class="cls-7" d="M387.662 249.441l1.461-1.461" id="LINE-112" data-name="LINE"/><path class="cls-7" d="M386.201 247.98l1.461 1.461" id="LINE-113" data-name="LINE"/><path class="cls-7" d="M387.764 143.629l-1.461 1.461" id="LINE-114" data-name="LINE"/><path class="cls-7" d="M389.225 145.09l-1.461-1.461" id="LINE-115" data-name="LINE"/><path class="cls-7" d="M301.98 99.542H119.655" id="LINE-116" data-name="LINE"/><path d="M197.942 109.07l3.336-7.2h1.435l-3.254 7.116h4.874v1.292h-6.391zm4.286-3.11h1.36v5.852h-1.36zM209.563 106.869l-.007.246a1.026 1.026 0 01-.515.462 2.082 2.082 0 01-.818.147 2.194 2.194 0 01-1.251-.363 2.368 2.368 0 01-.838-1.022 3.7 3.7 0 01-.3-1.527v-.007a3.823 3.823 0 01.325-1.648 2.288 2.288 0 01.951-1.039 2.986 2.986 0 011.5-.355 2.922 2.922 0 011.5.362 2.323 2.323 0 01.946 1.053 3.869 3.869 0 01.325 1.661v.007a5.241 5.241 0 01-.136 1.138 6.993 6.993 0 01-.39 1.2l-.082.181a2.335 2.335 0 01-.089.181l-2.119 4.259h-1.5zm.065-.861a1.947 1.947 0 00.359-1.251v-.007a1.852 1.852 0 00-.359-1.217 1.421 1.421 0 00-2.037 0 1.857 1.857 0 00-.359 1.224v.007a1.924 1.924 0 00.359 1.247 1.393 1.393 0 002.037 0zM215.626 111.805h-1.394v-8.422l-1.415.868v-1.442l1.415-.944h1.394zM218.6 111.162a2.865 2.865 0 01-.721-2.078v-4.519a2.854 2.854 0 01.725-2.081 3.388 3.388 0 014.228 0 2.857 2.857 0 01.721 2.084v4.519a2.856 2.856 0 01-.724 2.082 3.38 3.38 0 01-4.229 0zm3.207-.967a1.6 1.6 0 00.352-1.111v-4.519a1.6 1.6 0 00-.349-1.11 1.74 1.74 0 00-2.188 0 1.6 1.6 0 00-.348 1.11v4.519a1.6 1.6 0 00.351 1.111 1.735 1.735 0 002.182 0z"/><path class="cls-7" d="M119.692 99.542l1.461-1.462" id="LINE-117" data-name="LINE"/><path class="cls-7" d="M121.153 101.003l-1.461-1.461" id="LINE-118" data-name="LINE"/><path class="cls-7" d="M301.979 99.542l-1.461 1.462" id="LINE-119" data-name="LINE"/><path class="cls-7" d="M300.518 98.081l1.461 1.461" id="LINE-120" data-name="LINE"/><path class="cls-7" d="M301.98 17.042H180.109" id="LINE-121" data-name="LINE"/><path d="M228.924 29.407l-.635-.3a2.508 2.508 0 01-1.023-.882 3.178 3.178 0 01-.488-1.391h1.422a1.5 1.5 0 00.266.7 1.233 1.233 0 00.531.407 1.983 1.983 0 00.761.133 1.485 1.485 0 001.074-.369 1.379 1.379 0 00.382-1.039v-.3a1.676 1.676 0 00-.362-1.151 1.3 1.3 0 00-1.025-.407h-.7v-1.334h.7a1.167 1.167 0 00.9-.349 1.4 1.4 0 00.321-.984v-.308a1.188 1.188 0 00-.339-.909 1.335 1.335 0 00-.96-.321 1.454 1.454 0 00-.635.133 1.207 1.207 0 00-.475.41 1.87 1.87 0 00-.284.694h-1.415a3.632 3.632 0 01.516-1.395 2.52 2.52 0 01.96-.881 2.855 2.855 0 011.333-.3 2.754 2.754 0 011.99.677 2.521 2.521 0 01.7 1.907v.164a2.156 2.156 0 01-.4 1.3 2.276 2.276 0 01-1.142.806 2.027 2.027 0 011.261.8 2.652 2.652 0 01.448 1.586v.164a3.051 3.051 0 01-.335 1.483 2.209 2.209 0 01-.975.937 3.4 3.4 0 01-1.541.321zM236.328 29.407l-.636-.3a2.508 2.508 0 01-1.023-.882 3.2 3.2 0 01-.488-1.391h1.419a1.5 1.5 0 00.267.7 1.225 1.225 0 00.53.407 1.992 1.992 0 00.762.133 1.483 1.483 0 001.073-.369 1.376 1.376 0 00.383-1.039v-.3a1.671 1.671 0 00-.363-1.151 1.3 1.3 0 00-1.025-.407h-.7v-1.334h.7a1.166 1.166 0 00.9-.349 1.4 1.4 0 00.322-.984v-.308a1.192 1.192 0 00-.339-.909 1.339 1.339 0 00-.96-.321 1.459 1.459 0 00-.636.133 1.214 1.214 0 00-.475.41 1.886 1.886 0 00-.284.694h-1.415a3.632 3.632 0 01.516-1.395 2.523 2.523 0 01.961-.881 2.852 2.852 0 011.333-.3 2.753 2.753 0 011.989.677 2.517 2.517 0 01.7 1.907v.164a2.156 2.156 0 01-.4 1.3 2.276 2.276 0 01-1.142.806 2.027 2.027 0 011.261.8 2.645 2.645 0 01.448 1.586v.164a3.051 3.051 0 01-.335 1.483 2.207 2.207 0 01-.974.937 3.4 3.4 0 01-1.541.321zM241.844 28.1l3.466-4.621a3.426 3.426 0 00.468-.824 2.185 2.185 0 00.168-.8v-.015a1.2 1.2 0 00-.349-.923 1.388 1.388 0 00-.991-.328 1.368 1.368 0 00-.984.359 1.623 1.623 0 00-.458 1.015v.007h-1.443v-.007a3.731 3.731 0 01.5-1.46 2.559 2.559 0 01.982-.922 2.923 2.923 0 011.387-.318 3.456 3.456 0 011.518.3 2.141 2.141 0 01.957.885 2.806 2.806 0 01.328 1.4v.006a3.088 3.088 0 01-.219 1.1 4.673 4.673 0 01-.608 1.107l-2.878 3.911h3.76v1.326h-5.606zM249.948 28.662a2.861 2.861 0 01-.721-2.078v-4.519a2.849 2.849 0 01.725-2.081 3.388 3.388 0 014.228 0 2.857 2.857 0 01.721 2.084v4.519a2.852 2.852 0 01-.725 2.082 3.379 3.379 0 01-4.228 0zm3.207-.967a1.6 1.6 0 00.351-1.111v-4.519a1.6 1.6 0 00-.348-1.11 1.74 1.74 0 00-2.188 0 1.6 1.6 0 00-.348 1.11v4.519a1.6 1.6 0 00.351 1.111 1.735 1.735 0 002.182 0z"/><path class="cls-7" d="M180.146 17.042l1.461-1.462" id="LINE-122" data-name="LINE"/><path class="cls-7" d="M181.607 18.503l-1.461-1.461" id="LINE-123" data-name="LINE"/><path class="cls-7" d="M301.979 17.042l-1.461 1.462" id="LINE-124" data-name="LINE"/><path class="cls-7" d="M300.518 15.581l1.461 1.461" id="LINE-125" data-name="LINE"/><path class="cls-7" d="M176.98 17.042h-57.538" id="LINE-126" data-name="LINE"/><path d="M137.848 29.305h-1.394v-8.422l-1.415.868v-1.442l1.415-.944h1.394zM139.967 26.57l3.336-7.2h1.436l-3.254 7.116h4.874v1.294h-6.392zm4.286-3.11h1.361v5.852h-1.361zM147.917 28.1l3.466-4.621a3.426 3.426 0 00.468-.824 2.185 2.185 0 00.168-.8v-.015a1.2 1.2 0 00-.349-.923 1.388 1.388 0 00-.991-.328 1.368 1.368 0 00-.984.359 1.629 1.629 0 00-.458 1.015v.007h-1.443v-.007a3.731 3.731 0 01.5-1.46 2.559 2.559 0 01.982-.922 2.924 2.924 0 011.388-.318 3.454 3.454 0 011.517.3 2.141 2.141 0 01.957.885 2.806 2.806 0 01.328 1.4v.006a3.108 3.108 0 01-.218 1.1 4.713 4.713 0 01-.609 1.107l-2.878 3.911h3.76v1.326h-5.606zM156.021 28.662a2.865 2.865 0 01-.721-2.078v-4.519a2.854 2.854 0 01.725-2.081 3.388 3.388 0 014.228 0 2.857 2.857 0 01.721 2.084v4.519a2.856 2.856 0 01-.724 2.082 3.38 3.38 0 01-4.229 0zm3.207-.967a1.6 1.6 0 00.352-1.111v-4.519a1.6 1.6 0 00-.349-1.11 1.74 1.74 0 00-2.188 0 1.6 1.6 0 00-.348 1.11v4.519a1.6 1.6 0 00.351 1.111 1.735 1.735 0 002.182 0z"/><path class="cls-7" d="M119.479 17.042l1.462-1.462" id="LINE-127" data-name="LINE"/><path class="cls-7" d="M120.941 18.503l-1.462-1.461" id="LINE-128" data-name="LINE"/><path class="cls-7" d="M176.979 17.042l-1.461 1.462" id="LINE-129" data-name="LINE"/><path class="cls-7" d="M175.518 15.581l1.461 1.461" id="LINE-130" data-name="LINE"/><path class="cls-7" d="M116.313 36.208H47.609" id="LINE-131" data-name="LINE"/><path d="M77.082 48.472h-1.395V40.05l-1.415.868v-1.442l1.415-.944h1.395zM80.664 48.232a2.5 2.5 0 01-1.057-.967 2.786 2.786 0 01-.372-1.452v-.165a2.8 2.8 0 01.372-1.4 2.5 2.5 0 011-.991 2.175 2.175 0 01-.845-.831 2.241 2.241 0 01-.317-1.145v-.239a2.647 2.647 0 01.349-1.371 2.362 2.362 0 01.984-.916 3.526 3.526 0 012.953 0 2.362 2.362 0 01.984.916 2.647 2.647 0 01.349 1.371v.239a2.2 2.2 0 01-.325 1.156 2.165 2.165 0 01-.858.82 2.569 2.569 0 011.008.995 2.725 2.725 0 01.38 1.4v.165a2.786 2.786 0 01-.372 1.452 2.5 2.5 0 01-1.057.967 3.846 3.846 0 01-3.171 0zm2.44-1.189a1.378 1.378 0 00.571-.537 1.551 1.551 0 00.2-.8v-.1a1.567 1.567 0 00-.2-.8 1.384 1.384 0 00-.571-.537 2.007 2.007 0 00-1.709 0 1.374 1.374 0 00-.571.541 1.583 1.583 0 00-.2.806v.1a1.538 1.538 0 00.2.793 1.36 1.36 0 00.571.529 2.021 2.021 0 001.709 0zm-.116-4.481a1.254 1.254 0 00.5-.516 1.63 1.63 0 00.178-.773v-.1a1.5 1.5 0 00-.178-.738 1.222 1.222 0 00-.5-.5 1.654 1.654 0 00-1.477 0 1.222 1.222 0 00-.5.5 1.517 1.517 0 00-.178.745v.1a1.593 1.593 0 00.178.762 1.252 1.252 0 00.5.513 1.6 1.6 0 001.477 0zM88.652 48.28a2.4 2.4 0 01-.951-.854 3.411 3.411 0 01-.489-1.347v-.007h1.395v.007a1.292 1.292 0 00.437.851 1.418 1.418 0 00.944.3 1.261 1.261 0 001.035-.447 1.944 1.944 0 00.366-1.262v-.834a1.93 1.93 0 00-.366-1.254 1.261 1.261 0 00-1.035-.448 1.323 1.323 0 00-.7.205 1.957 1.957 0 00-.588.575h-1.269v-5.233H92.5v1.326h-3.674v2.236a1.969 1.969 0 01.581-.328 1.9 1.9 0 01.656-.117 2.891 2.891 0 011.474.356 2.282 2.282 0 01.929 1.039 3.9 3.9 0 01.318 1.647v.834a3.792 3.792 0 01-.328 1.648 2.334 2.334 0 01-.957 1.042 2.993 2.993 0 01-1.511.359 2.931 2.931 0 01-1.336-.294zM96.274 48.28a2.4 2.4 0 01-.951-.854 3.427 3.427 0 01-.489-1.347v-.007h1.395v.007a1.288 1.288 0 00.438.851 1.413 1.413 0 00.943.3 1.261 1.261 0 001.035-.447 1.944 1.944 0 00.366-1.262v-.834a1.93 1.93 0 00-.366-1.254 1.261 1.261 0 00-1.035-.448 1.323 1.323 0 00-.7.205 1.957 1.957 0 00-.588.575h-1.269v-5.233h5.066v1.326h-3.671v2.236a1.969 1.969 0 01.581-.328 1.9 1.9 0 01.656-.117 2.891 2.891 0 011.474.356 2.282 2.282 0 01.929 1.039 3.9 3.9 0 01.318 1.647v.834a3.792 3.792 0 01-.328 1.648 2.329 2.329 0 01-.957 1.042 2.993 2.993 0 01-1.511.359 2.931 2.931 0 01-1.336-.294z"/><path class="cls-7" d="M47.646 36.208l1.461-1.461" id="LINE-132" data-name="LINE"/><path class="cls-7" d="M49.107 37.669l-1.461-1.461" id="LINE-133" data-name="LINE"/><path class="cls-7" d="M116.313 36.209l-1.461 1.461" id="LINE-134" data-name="LINE"/><path class="cls-7" d="M114.852 34.748l1.461 1.461" id="LINE-135" data-name="LINE"/><path class="cls-7" d="M116.313 74.708H56.526" id="LINE-136" data-name="LINE"/><path d="M77.445 86.972H76.05V78.55l-1.415.868v-1.442l1.415-.944h1.395zM81.14 86.78a2.411 2.411 0 01-.951-.854 3.41 3.41 0 01-.488-1.347v-.007H81.1v.007a1.293 1.293 0 00.438.851 1.413 1.413 0 00.943.3 1.261 1.261 0 001.035-.447 1.944 1.944 0 00.366-1.262v-.834a1.93 1.93 0 00-.366-1.254 1.261 1.261 0 00-1.035-.448 1.323 1.323 0 00-.7.2 1.957 1.957 0 00-.588.575h-1.274v-5.228h5.066v1.326h-3.671v2.236a1.969 1.969 0 01.581-.328 1.9 1.9 0 01.656-.117 2.889 2.889 0 011.474.356 2.284 2.284 0 01.93 1.039 3.9 3.9 0 01.317 1.647v.834a3.778 3.778 0 01-.328 1.648 2.329 2.329 0 01-.957 1.042 2.993 2.993 0 01-1.511.359 2.931 2.931 0 01-1.336-.294zM92.457 78.276l-2.571 8.7H88.4l2.57-8.614h-2.526v1.429h-1.395v-2.759h5.408zM95.091 86.329a2.865 2.865 0 01-.72-2.078v-4.519a2.853 2.853 0 01.724-2.081 3.389 3.389 0 014.229 0 2.86 2.86 0 01.72 2.084v4.519a2.856 2.856 0 01-.724 2.082 3.38 3.38 0 01-4.229 0zm3.207-.967a1.591 1.591 0 00.352-1.111v-4.519a1.6 1.6 0 00-.349-1.11 1.738 1.738 0 00-2.187 0 1.6 1.6 0 00-.349 1.11v4.519a1.591 1.591 0 00.352 1.111 1.733 1.733 0 002.181 0z"/><path class="cls-7" d="M56.563 74.708l1.461-1.461" id="LINE-137" data-name="LINE"/><path class="cls-7" d="M58.024 76.169l-1.461-1.461" id="LINE-138" data-name="LINE"/><path class="cls-7" d="M116.313 74.709l-1.461 1.461" id="LINE-139" data-name="LINE"/><path class="cls-7" d="M114.852 73.248l1.461 1.461" id="LINE-140" data-name="LINE"/><path class="cls-7" d="M133.563 258.414H62.776" id="LINE-141" data-name="LINE"/><path d="M98.685 256.988H97.29v-8.422l-1.415.868v-1.442l1.415-.943h1.395zM102.267 256.748a2.5 2.5 0 01-1.057-.967 2.788 2.788 0 01-.372-1.453v-.164a2.793 2.793 0 01.372-1.4 2.492 2.492 0 011-.992 2.182 2.182 0 01-.845-.831 2.24 2.24 0 01-.317-1.144v-.24a2.636 2.636 0 01.349-1.37 2.35 2.35 0 01.984-.916 3.507 3.507 0 012.953 0 2.35 2.35 0 01.984.916 2.636 2.636 0 01.349 1.37v.24a2.193 2.193 0 01-.325 1.154 2.154 2.154 0 01-.858.821 2.576 2.576 0 011.008 1 2.722 2.722 0 01.38 1.4v.164a2.788 2.788 0 01-.372 1.453 2.49 2.49 0 01-1.057.967 3.846 3.846 0 01-3.171 0zm2.44-1.189a1.382 1.382 0 00.571-.536 1.554 1.554 0 00.2-.8v-.1a1.568 1.568 0 00-.2-.8 1.382 1.382 0 00-.571-.536 2.007 2.007 0 00-1.709 0 1.376 1.376 0 00-.571.539 1.59 1.59 0 00-.2.807v.1a1.535 1.535 0 00.2.793 1.368 1.368 0 00.571.53 1.863 1.863 0 00.855.187 1.825 1.825 0 00.854-.184zm-.116-4.481a1.257 1.257 0 00.5-.515 1.637 1.637 0 00.178-.774v-.1a1.509 1.509 0 00-.178-.738 1.226 1.226 0 00-.5-.5 1.646 1.646 0 00-1.477 0 1.226 1.226 0 00-.5.5 1.524 1.524 0 00-.177.746v.1a1.593 1.593 0 00.177.762 1.252 1.252 0 00.5.513 1.589 1.589 0 001.477 0zM108.665 255.777l3.466-4.621a3.454 3.454 0 00.468-.823 2.181 2.181 0 00.168-.8v-.014a1.208 1.208 0 00-.349-.923 1.389 1.389 0 00-.991-.328 1.369 1.369 0 00-.985.359 1.631 1.631 0 00-.458 1.016h-1.442a3.72 3.72 0 01.5-1.46 2.559 2.559 0 01.981-.923 2.93 2.93 0 011.388-.319 3.456 3.456 0 011.518.305 2.141 2.141 0 01.957.885 2.82 2.82 0 01.328 1.4v.006a3.089 3.089 0 01-.219 1.1 4.728 4.728 0 01-.608 1.107l-2.878 3.91h3.76v1.326h-5.606zM116.769 256.346a2.864 2.864 0 01-.721-2.078v-4.52a2.855 2.855 0 01.724-2.081 3.393 3.393 0 014.229 0 2.861 2.861 0 01.721 2.084v4.52a2.855 2.855 0 01-.725 2.081 3.381 3.381 0 01-4.228 0zm3.207-.968a1.6 1.6 0 00.351-1.11v-4.52a1.6 1.6 0 00-.348-1.11 1.743 1.743 0 00-2.188 0 1.6 1.6 0 00-.349 1.11v4.52a1.6 1.6 0 00.352 1.11 1.735 1.735 0 002.182 0z"/><path class="cls-7" d="M62.813 258.414l1.461 1.461" id="LINE-142" data-name="LINE"/><path class="cls-7" d="M64.274 256.953l-1.461 1.461" id="LINE-143" data-name="LINE"/><path class="cls-7" d="M133.563 258.413l-1.461-1.461" id="LINE-144" data-name="LINE"/><path class="cls-7" d="M132.102 259.874l1.461-1.461" id="LINE-145" data-name="LINE"/><path class="cls-7" d="M133.563 241.789H47.442" id="LINE-146" data-name="LINE"/><path d="M95.423 239l3.466-4.621a3.435 3.435 0 00.467-.823 2.165 2.165 0 00.168-.8v-.014a1.211 1.211 0 00-.348-.924 1.4 1.4 0 00-.991-.328 1.366 1.366 0 00-.985.36 1.631 1.631 0 00-.458 1.015v.006H95.3v-.006a3.731 3.731 0 01.5-1.46 2.566 2.566 0 01.981-.923 2.927 2.927 0 011.388-.318 3.448 3.448 0 011.517.305 2.147 2.147 0 01.958.884 2.824 2.824 0 01.328 1.4v.006a3.11 3.11 0 01-.219 1.1 4.739 4.739 0 01-.609 1.108l-2.877 3.91h3.759v1.326h-5.603zM102.655 239l3.466-4.621a3.439 3.439 0 00.468-.823 2.185 2.185 0 00.168-.8v-.014a1.208 1.208 0 00-.349-.924 1.392 1.392 0 00-.991-.328 1.365 1.365 0 00-.984.36 1.626 1.626 0 00-.458 1.015v.006h-1.443v-.006a3.731 3.731 0 01.5-1.46 2.562 2.562 0 01.982-.923 2.923 2.923 0 011.387-.318 3.456 3.456 0 011.518.305 2.145 2.145 0 01.957.884 2.813 2.813 0 01.328 1.4v.006a3.088 3.088 0 01-.219 1.1 4.7 4.7 0 01-.608 1.108l-2.878 3.91h3.76v1.326h-5.606zM109.491 237.479l3.336-7.2h1.436l-3.254 7.118h4.874v1.291h-6.392zm4.286-3.112h1.361v5.852h-1.361zM118.313 239.57a2.862 2.862 0 01-.721-2.078v-4.519a2.853 2.853 0 01.724-2.081 3.389 3.389 0 014.229 0 2.859 2.859 0 01.721 2.084v4.519a2.854 2.854 0 01-.725 2.081 3.377 3.377 0 01-4.228 0zm3.207-.967a1.6 1.6 0 00.351-1.111v-4.519a1.6 1.6 0 00-.349-1.111 1.745 1.745 0 00-2.187 0 1.605 1.605 0 00-.349 1.111v4.519a1.6 1.6 0 00.352 1.111 1.738 1.738 0 002.182 0z"/><path class="cls-7" d="M47.479 241.789l1.462 1.461" id="LINE-147" data-name="LINE"/><path class="cls-7" d="M48.941 240.328l-1.462 1.461" id="LINE-148" data-name="LINE"/><path class="cls-7" d="M133.563 241.788l-1.461-1.461" id="LINE-149" data-name="LINE"/><path class="cls-7" d="M132.102 243.249l1.461-1.461" id="LINE-150" data-name="LINE"/><path class="cls-7" d="M133.421 170.933H47.276" id="LINE-151" data-name="LINE"/><path d="M76.422 168.262l3.466-4.621a3.413 3.413 0 00.468-.825 2.176 2.176 0 00.168-.8v-.014a1.2 1.2 0 00-.349-.923 1.388 1.388 0 00-.991-.328 1.364 1.364 0 00-.984.359 1.623 1.623 0 00-.458 1.015v.007H76.3v-.007a3.737 3.737 0 01.5-1.46 2.559 2.559 0 01.982-.922 2.923 2.923 0 011.387-.318 3.456 3.456 0 011.518.3 2.141 2.141 0 01.957.885 2.806 2.806 0 01.328 1.4v.006a3.084 3.084 0 01-.219 1.1 4.673 4.673 0 01-.608 1.107l-2.878 3.911h3.76v1.326h-5.605zM83.655 168.262l3.466-4.621a3.408 3.408 0 00.467-.825 2.156 2.156 0 00.168-.8v-.014a1.207 1.207 0 00-.348-.923 1.391 1.391 0 00-.991-.328 1.365 1.365 0 00-.985.359 1.629 1.629 0 00-.458 1.015v.007h-1.442v-.007a3.737 3.737 0 01.5-1.46 2.563 2.563 0 01.981-.922 2.927 2.927 0 011.388-.318 3.451 3.451 0 011.517.3 2.136 2.136 0 01.957.885 2.806 2.806 0 01.329 1.4v.006a3.106 3.106 0 01-.219 1.1 4.713 4.713 0 01-.609 1.107l-2.876 3.923h3.76v1.326h-5.605zM90.491 166.737l3.336-7.2h1.435l-3.254 7.116h4.874v1.292h-6.391zm4.286-3.11h1.36v5.852h-1.36zM99.312 168.829a2.867 2.867 0 01-.721-2.078v-4.519a2.859 2.859 0 01.725-2.082 3.39 3.39 0 014.228 0 2.855 2.855 0 01.721 2.084v4.519a2.558 2.558 0 01-2.837 2.823 2.814 2.814 0 01-2.116-.747zm3.207-.968a1.592 1.592 0 00.352-1.11v-4.519a1.609 1.609 0 00-.349-1.111 1.743 1.743 0 00-2.188 0 1.608 1.608 0 00-.348 1.111v4.519a1.591 1.591 0 00.351 1.11 1.731 1.731 0 002.182 0z"/><path class="cls-7" d="M47.313 170.933l1.461-1.461" id="LINE-152" data-name="LINE"/><path class="cls-7" d="M47.4 201.733s-.046-30.8-.083-30.8l1.461 1.461" id="LINE-153" data-name="LINE"/><path class="cls-7" d="M133.421 170.933l-1.462 1.462" id="LINE-154" data-name="LINE"/><path class="cls-7" d="M131.959 169.472l1.462 1.461v6.93" id="LINE-155" data-name="LINE"/><path class="cls-7" d="M302.147 247.542H136.609" id="LINE-156" data-name="LINE"/><path d="M204.91 256.487l3.336-7.2h1.436l-3.254 7.116h4.872v1.297h-6.39zm4.286-3.11h1.361v5.852H209.2zM214.45 259.03a2.418 2.418 0 01-.951-.854 3.41 3.41 0 01-.488-1.347v-.007h1.394v.007a1.3 1.3 0 00.438.851 1.413 1.413 0 00.943.3 1.259 1.259 0 001.035-.448 1.941 1.941 0 00.367-1.261v-.834a1.928 1.928 0 00-.367-1.254 1.261 1.261 0 00-1.035-.448 1.325 1.325 0 00-.7.2 1.957 1.957 0 00-.588.575h-1.272v-5.237h5.074v1.326h-3.671v2.236a1.947 1.947 0 01.581-.328 1.9 1.9 0 01.656-.117 2.886 2.886 0 011.474.356 2.279 2.279 0 01.93 1.039 3.9 3.9 0 01.317 1.647v.834a3.778 3.778 0 01-.328 1.648 2.329 2.329 0 01-.957 1.042 3 3 0 01-1.511.359 2.931 2.931 0 01-1.341-.285zM222.369 259.324l-.636-.3a2.52 2.52 0 01-1.022-.882 3.182 3.182 0 01-.488-1.391h1.422a1.5 1.5 0 00.266.7 1.244 1.244 0 00.53.407 1.992 1.992 0 00.762.133 1.483 1.483 0 001.073-.369 1.376 1.376 0 00.383-1.039v-.3a1.678 1.678 0 00-.362-1.152 1.3 1.3 0 00-1.026-.406h-.7v-1.326h.7a1.168 1.168 0 00.9-.349 1.4 1.4 0 00.321-.984v-.308a1.187 1.187 0 00-.339-.909 1.333 1.333 0 00-.96-.321 1.469 1.469 0 00-.635.132 1.21 1.21 0 00-.475.411 1.846 1.846 0 00-.284.694h-1.415a3.626 3.626 0 01.515-1.4 2.53 2.53 0 01.961-.881 2.843 2.843 0 011.333-.3 2.754 2.754 0 011.99.677 2.521 2.521 0 01.7 1.907v.164a2.15 2.15 0 01-.4 1.3 2.275 2.275 0 01-1.141.806 2.014 2.014 0 011.26.8 2.643 2.643 0 01.449 1.586v.164a3.065 3.065 0 01-.335 1.483 2.214 2.214 0 01-.975.937 3.4 3.4 0 01-1.541.321zM228.757 258.579a2.862 2.862 0 01-.721-2.078v-4.519a2.853 2.853 0 01.725-2.082 3.39 3.39 0 014.228 0 2.855 2.855 0 01.721 2.084v4.516a2.559 2.559 0 01-2.837 2.823 2.816 2.816 0 01-2.116-.744zm3.207-.968a1.593 1.593 0 00.351-1.11v-4.519a1.607 1.607 0 00-.348-1.111 1.743 1.743 0 00-2.188 0 1.607 1.607 0 00-.348 1.111v4.518a1.593 1.593 0 00.351 1.11 1.731 1.731 0 002.182 0z"/><path class="cls-7" d="M136.646 247.542l1.461-1.462" id="LINE-157" data-name="LINE"/><path class="cls-7" d="M138.107 249.003l-1.461-1.461" id="LINE-158" data-name="LINE"/><path class="cls-7" d="M302.146 247.542l-1.461 1.462" id="LINE-159" data-name="LINE"/><path class="cls-7" d="M300.685 246.081l1.461 1.461" id="LINE-160" data-name="LINE"/><path class="cls-7" d="M371.358 267.004v-17.688" id="LINE-161" data-name="LINE"/><path class="cls-7" d="M326.002 267.037v-8.251" id="LINE-162" data-name="LINE"/><path class="cls-7" d="M326.002 267.023l45.356-.034" id="LINE-163" data-name="LINE"/><path d="M338.436 279.065h-1.395v-8.422l-1.415.868v-1.443l1.415-.943h1.395zM340.541 277.855l3.466-4.622a3.46 3.46 0 00.468-.824 2.181 2.181 0 00.168-.8v-.009a1.208 1.208 0 00-.349-.923 1.389 1.389 0 00-.991-.328 1.369 1.369 0 00-.985.358 1.631 1.631 0 00-.458 1.016v.007h-1.442v-.007a3.72 3.72 0 01.5-1.46 2.559 2.559 0 01.981-.923 2.929 2.929 0 011.388-.317 3.47 3.47 0 011.518.3 2.138 2.138 0 01.957.886 2.813 2.813 0 01.328 1.4v.007a3.088 3.088 0 01-.219 1.1 4.708 4.708 0 01-.608 1.107l-2.878 3.91h3.759v1.327h-5.605zM348.645 278.422a2.864 2.864 0 01-.721-2.078v-4.519a2.856 2.856 0 01.724-2.082 3.393 3.393 0 014.229 0 2.862 2.862 0 01.721 2.085v4.519a2.854 2.854 0 01-.725 2.081 3.377 3.377 0 01-4.228 0zm3.207-.968a1.6 1.6 0 00.351-1.11v-4.519a1.6 1.6 0 00-.349-1.111 1.742 1.742 0 00-2.187 0 1.607 1.607 0 00-.349 1.111v4.519a1.6 1.6 0 00.352 1.11 1.731 1.731 0 002.182 0zM356.369 278.422a2.868 2.868 0 01-.721-2.078v-4.519a2.856 2.856 0 01.725-2.082 3.393 3.393 0 014.229 0 2.861 2.861 0 01.72 2.085v4.519a2.853 2.853 0 01-.724 2.081 3.379 3.379 0 01-4.229 0zm3.207-.968a1.59 1.59 0 00.352-1.11v-4.519a1.6 1.6 0 00-.349-1.111 1.742 1.742 0 00-2.187 0 1.6 1.6 0 00-.349 1.111v4.519a1.59 1.59 0 00.352 1.11 1.73 1.73 0 002.181 0z"/><path class="cls-7" d="M371.446 266.975l-1.461 1.461" id="LINE-164" data-name="LINE"/><path class="cls-7" d="M369.985 265.514l1.461 1.461" id="LINE-165" data-name="LINE"/><path class="cls-7" d="M326 267.077l1.461-1.461" id="LINE-166" data-name="LINE"/><path class="cls-7" d="M327.461 268.538L326 267.077" id="LINE-167" data-name="LINE"/></g></svg>