<svg xmlns="http://www.w3.org/2000/svg" width="534.588" height="371.172" viewBox="0 0 400.939 278.378"><defs><pattern id="Новый_узор_3" data-name="Новый узор 3" width="35.15" height="35.15" patternTransform="translate(-7.256 -21.209)" patternUnits="userSpaceOnUse"><path class="cls-1" d="M0 0h35.15v35.15H0z"/><path class="cls-2" d="M35.149 35.15h35.15V70.3h-35.15z"/><path class="cls-2" d="M0 35.15h35.15V70.3H0zM-35.15 35.15H0V70.3h-35.15z"/><path class="cls-2" d="M35.149.001h35.15v35.15h-35.15z"/><path class="cls-2" d="M0 .001h35.15v35.15H0zM-35.15.001H0v35.15h-35.15zM35.149-35.149h35.15V.001h-35.15z"/><path class="cls-2" d="M0-35.149h35.15V.001H0zM-35.15-35.149H0V.001h-35.15z"/></pattern><pattern id="Новый_узор_5" data-name="Новый узор 5" width="22.872" height="23.072" patternTransform="translate(-8.441 -10.048)" patternUnits="userSpaceOnUse"><path class="cls-1" d="M0 0h22.872v23.072H0z"/><path class="cls-3" d="M22.664 17.512v11.12H.208v-11.12h22.456m.108-.108H.1V28.74h22.672V17.4zM22.664 5.976V17.1H.208V5.976h22.456m.108-.108H.1V17.2h22.672V5.868zM22.664-5.56V5.56H.208V-5.56h22.456m.108-.108H.1V5.668h22.672V-5.668z"/></pattern><style>.cls-1,.cls-11,.cls-2,.cls-3,.cls-7,.cls-9{fill:none}.cls-2{stroke:#ededed}.cls-2,.cls-7,.cls-9{stroke-linecap:round;stroke-linejoin:round;stroke-width:.4px}.cls-3{stroke:#e6e6e6;stroke-miterlimit:10;stroke-width:.2px}.cls-4{fill:#fff}.cls-4,.cls-8,.cls-9{fill-rule:evenodd}.cls-7,.cls-9{stroke:#000}.cls-11{stroke:gray;stroke-width:.6px;stroke-miterlimit:22.926}</style></defs><g id="_252" data-name="252"><path class="cls-4" d="M323.871 143.508V.283H34.995v75.484l-14.813 34.338a38.478 38.478 0 0014.813 2.914v151.086h288.876v-14.8h45.344v-105.8z" id="fon"/><path id="grid" stroke="#dcdcdc" fill="url(#Новый_узор_3)" fill-rule="evenodd" stroke-width=".4" stroke-linecap="round" stroke-linejoin="round" d="M369.215 143.508h-45.344V.283H34.995v263.822h288.876V249.31h45.344V143.508z"/><path id="wet_zones" data-name="wet zones" fill="url(#Новый_узор_5)" fill-rule="evenodd" d="M60.69 145.163v15.916h-6.046v92.199h66.315V145.163H60.69z"/><g id="walls"><path class="cls-7" d="M157 159.641a34.864 34.864 0 002.577-12.559"/><path class="cls-8" d="M156.957 159.74l.6-1.388-29.418-12.782h-.453v1.512l29.271 12.658z"/><path class="cls-9" d="M109.953 192.357a30.556 30.556 0 0111.007-2.257"/><path class="cls-8" d="M109.868 192.394l11.092 25.647h1.511v-.453l-11.216-25.794-1.387.6zM19.456 109.84l1.269.549 15.782-36.355v-.453l-1.512-.001-15.539 35.933v.327z"/><path class="cls-9" d="M19.456 109.838a43.8 43.8 0 0015.539 3.191"/><path class="cls-7" d="M316.315 40.524h-16.248M323.871 40.524h-5.667M318.204 40.524h-1.889M316.315 106.65h-16.248M323.871 106.65h-5.667M318.204 106.65h-1.889M323.871 106.65V40.524M300.067 106.65V40.524M316.315 106.65v-3.778M316.315 102.872h1.89M318.204 102.872v3.778M318.204 68.864v1.89M318.204 70.754h-1.889M316.315 70.754v-1.89M317.259 102.872V70.754M316.315 102.872V70.754M318.204 70.754v32.118M316.315 68.864v-.944M316.315 67.92h.944M317.259 67.92v-.945M317.259 66.974h.945M318.204 66.974v1.891M318.204 40.524v3.778M318.204 44.303h-.944M317.259 44.303v-.944M317.259 43.358h-.944M316.315 43.358v-2.834M318.204 44.303v22.672M315.369 65.086V46.192M315.369 67.92v-2.834M315.369 65.086h1.891M317.259 65.086v2.834M317.259 67.92h-1.89M317.259 43.358v2.834M317.259 46.192h-1.89M315.369 46.192v-2.834M315.369 43.358h1.891M317.259 46.192v18.894M315.369 65.086V46.192M316.315 65.086V46.192M318.204 106.65h-1.889M318.204 106.65h-1.889M323.871 106.65h-5.667M316.315 106.65h-16.248M318.204 40.524h-1.889M318.204 40.524h-1.889M323.871 40.524h-5.667M316.315 40.524h-16.248M316.314 237.974h-16.248M323.871 237.974h-5.668M318.203 237.974h-1.89M316.314 154.845h-16.248M323.871 154.845h-5.668M318.203 154.845h-1.89M323.871 154.845v83.129M300.066 154.845v83.129M316.314 154.845v1.871M317.258 158.624h.946M318.203 158.624v-3.779M318.203 194.521v-1.89M317.258 158.624v34.008M316.314 159.551v33.081M318.203 192.632v-34.008M317.258 195.466v.944M317.258 196.41h.945M318.203 196.41v-1.89M318.203 237.974v-3.778M318.203 234.196h-.945M317.258 234.196v.945M316.314 236.068v1.906M318.203 234.196V196.41M316.314 196.392h.944M317.258 196.392v-.944M317.258 157.662v-.946M317.258 156.716h-.944M315.37 156.716l-28.055 28.056M315.37 193.559v-34.008M315.37 196.392v-2.833M315.37 193.559h1.889M317.258 193.559v2.833M317.258 196.392h-1.889M317.258 156.716v2.835M317.258 159.551h-1.889M315.37 159.551v-2.835M315.37 156.716h1.889M317.258 159.551v34.008M315.37 193.559v-34.008M316.314 193.559v-34.008"/><path class="cls-9" d="M287.315 184.772a39.673 39.673 0 0028.055 11.62"/><path class="cls-7" d="M316.314 196.393h.944M317.258 196.393v.944M317.258 235.123v.945M317.258 236.068h-.944M315.37 236.068l-28.055-28.055M315.37 199.226v34.008M315.37 196.393v2.833M315.37 199.226h1.889M317.258 199.226v-2.833M317.258 196.393h-1.889M317.258 236.068v-2.834M317.258 233.234h-1.889M315.37 233.234v2.834M315.37 236.068h1.889M317.258 233.234v-34.009M315.37 199.226v34.008M316.314 199.226v34.008"/><path class="cls-9" d="M287.315 208.013a39.673 39.673 0 0128.055-11.62"/><path class="cls-7" d="M318.203 154.845h-1.89M318.203 154.845h-1.89M323.871 154.845h-5.668M316.314 154.845h-16.248M318.203 237.974h-1.89M318.203 237.974h-1.89M323.871 237.974h-5.668M316.314 237.974h-16.248"/><path class="cls-9" d="M323.871 143.508h45.344m0 0v105.8m0 0h-45.344m0 0v-105.8M368.459 248.554h-44.588m0 0v-104.29m0 0h44.588m0 0v104.29"/><path d="M323.871 264.236h-23.805v-26.262h23.805v26.262zM34.995 146.108V113.03h1.512v-.454H45.2v33.507c-3.42 0-6.811.012-10.2.025zm175.2-9.983h89.87v-29.474h23.805v48.194h-23.804v-7.761H210.2v-10.959zM45.2.283v73.752h-8.69v-.453h-1.515V.283zm278.674 0v40.243h-23.808V.283z" stroke-width=".012" stroke="#000" fill-rule="evenodd" stroke-linecap="round" stroke-linejoin="round"/></g><g id="wall_2" data-name="wall 2"><path class="cls-4" d="M68.625 65.858H45.2v-3.023h23.425v3.023zm30.984 198.378H34.995V146.083H45.2v11.974h12.47v-12.849H45.2v-3.022h75.762v-22.672h3.023v16.611h4.157v9.446h-.453v1.512h-3.7v41.957h-3.023v-43.832H60.69v15.871h-6.046v92.2h66.315v-35.237h1.51v-.453h1.512v35.689h176.085v10.958zM57.667 11.422v-.181H45.2V.283h254.866v10.958H60.69v16.831H45.2V25.05h12.47V11.422zm102.968 124.7h-1.512v9.446h.453v1.512H210.2v-10.955zM45.2 161.079v92.2h6.424v-92.2zm78.785 29.474v-1.512h-3.025v1.059h1.51v.453z"/><path class="cls-11" d="M48.478.28l-3.28 2.89M55.908.28l-10.71 9.43M63.328.28l-12.44 10.96M70.748.28l-13.08 11.53M60.688 15.68l-3.02 2.66M50.058 25.05l-3.43 3.02M78.178.28l-12.45 10.96M60.688 22.23l-3.02 2.66M57.478 25.05l-3.42 3.02M85.598.28l-12.44 10.96M93.018.28l-12.44 10.96M100.438.28l-12.44 10.96M107.858.28l-12.44 10.96M115.288.28l-12.44 10.96M51.708 62.83l-3.44 3.03M122.708.28l-12.44 10.96M59.128 62.83l-3.44 3.03M130.128.28l-12.44 10.96M66.548 62.83l-3.44 3.03M137.558.28l-12.44 10.96M144.968.28l-12.44 10.96M152.398.28l-12.44 10.96M159.818.28l-12.44 10.96M167.238.28l-12.44 10.96M174.668.28l-12.45 10.96M182.088.28l-12.44 10.96M189.508.28l-12.45 10.96M196.928.28l-12.44 10.96M38.838 146.08l-3.84 3.39M204.348.28l-12.44 10.96M45.198 147.02l-10.2 8.99M50.688 142.19l-3.43 3.02M211.778.28l-12.44 10.96M58.108 142.19l-3.43 3.02M45.198 153.56l-10.2 8.99M219.198.28l-12.44 10.96M65.528 142.19l-3.43 3.02M47.518 158.06l-12.52 11.02M60.688 146.45l-3.02 2.66M226.618.28l-12.44 10.96M72.948 142.19l-3.43 3.02M45.198 166.64l-10.2 8.98M54.938 158.06l-3.43 3.02M60.688 152.99l-3.02 2.66M234.048.28l-12.44 10.96M80.368 142.19l-3.43 3.02M60.688 159.53l-1.76 1.55M45.198 173.17l-10.2 8.99M54.648 164.85l-3.03 2.67M241.458.28l-12.44 10.96M87.788 142.19l-3.42 3.02M45.198 179.71l-10.2 8.99M54.648 171.39l-3.03 2.67M248.888.28l-12.44 10.96M95.218 142.19l-3.43 3.02M45.198 186.25l-10.2 8.99M54.648 177.93l-3.03 2.67M256.308.28l-12.44 10.96M123.978 123.39l-3.02 2.66M54.648 184.47l-3.03 2.66M45.198 192.79l-10.2 8.99M102.638 142.19l-3.43 3.02M263.728.28l-12.44 10.96M123.978 129.93l-3.02 2.66M54.648 191l-3.03 2.67M45.198 199.33l-10.2 8.98M110.058 142.19l-3.43 3.02M271.158.28l-12.44 10.96M124.378 136.12l-3.42 3.01M54.648 197.55l-3.03 2.67M45.198 205.87l-10.2 8.99M117.488 142.19l-3.43 3.02M278.578.28l-12.44 10.96M128.138 139.34l-7.18 6.32M45.198 212.4l-10.2 8.99M54.648 204.08l-3.03 2.67M285.998.28l-12.45 10.96M54.648 210.62l-3.03 2.67M123.978 149.54l-3.02 2.66M45.198 218.94l-10.2 8.99M127.688 146.27l-.91.81M293.418.28l-12.44 10.96M54.648 217.16l-3.03 2.66M123.978 156.08l-3.02 2.66M45.198 225.48l-10.2 8.99M300.068.96l-11.67 10.28M300.068 7.5l-4.24 3.74M45.198 232.02l-10.2 8.99M123.978 162.62l-3.02 2.66M54.648 223.7l-3.03 2.67M161.488 136.12l-2.37 2.09M45.198 238.56l-10.2 8.99M123.978 169.16l-3.02 2.66M54.648 230.24l-3.03 2.67M45.198 245.1l-10.2 8.98M123.978 175.7l-3.02 2.66M168.908 136.12l-9.79 8.63M54.648 236.77l-3.03 2.67M45.198 251.64l-10.2 8.98M123.978 182.24l-3.02 2.66M176.328 136.12l-12.44 10.96M54.648 243.31l-3.03 2.67M50.748 253.28l-12.44 10.96M183.748 136.12l-12.44 10.96"/><path stroke-miterlimit="22.926" stroke="gray" stroke-width=".6" fill-rule="evenodd" fill="none" d="M123.978 188.77l-.3.27-1.21 1.06"/><path class="cls-11" d="M54.648 249.85l-3.03 2.67M58.178 253.28l-12.44 10.96M191.168 136.12l-12.44 10.96M65.598 253.28l-12.44 10.96M198.598 136.12l-12.44 10.96M73.018 253.28l-12.44 10.96M206.018 136.12l-12.44 10.96M80.448 253.28l-12.45 10.96M210.198 138.98l-9.2 8.1M210.198 145.52l-1.77 1.56M87.868 253.28l-12.44 10.96M123.978 221.47l-3.02 2.66M95.288 253.28l-12.44 10.96M123.978 228l-3.02 2.66M102.708 253.28l-12.44 10.96M123.978 234.54l-3.02 2.66M110.128 253.28l-12.44 10.96M123.978 241.08l-3.02 2.66M117.548 253.28l-12.44 10.96M123.978 247.62l-3.02 2.66M124.978 253.28l-12.44 10.96M132.398 253.28l-12.44 10.96M139.828 253.28l-12.45 10.96M147.238 253.28l-12.44 10.96M154.668 253.28l-12.44 10.96M162.088 253.28l-12.44 10.96M169.508 253.28l-12.44 10.96M176.938 253.28l-12.45 10.96M184.358 253.28l-12.44 10.96M191.778 253.28l-12.44 10.96M199.198 253.28l-12.44 10.96M206.618 253.28l-12.44 10.96M214.048 253.28l-12.45 10.96M221.468 253.28l-12.44 10.96M228.888 253.28l-12.44 10.96M236.308 253.28l-12.44 10.96M243.728 253.28l-12.44 10.96M251.158 253.28l-12.44 10.96M258.578 253.28l-12.44 10.96M265.998 253.28l-12.44 10.96M273.428 253.28l-12.44 10.96M280.848 253.28l-12.44 10.96M288.268 253.28l-12.45 10.96M295.688 253.28l-12.44 10.96M300.068 255.96l-9.4 8.28M300.068 262.5l-1.98 1.74"/><path d="M68.625 65.858H45.2v-3.023h23.425v3.023zm30.984 198.378H34.995V146.083H45.2v11.974h12.47v-12.849H45.2v-3.022h75.762v-22.672h3.023v16.611h4.157v9.446h-.453v1.512h-3.7v41.957h-3.023v-43.832H60.69v15.871h-6.046v92.2h66.315v-35.237h1.51v-.453h1.512v35.689h176.085v10.958zM57.667 11.422v-.181H45.2V.283h254.866v10.958H60.69v16.831H45.2V25.05h12.47V11.422zm102.968 124.7H210.2v10.959h-50.62v-1.512h-.453v-9.446zM45.2 161.079v92.2h6.424v-92.2zm78.785 29.474v-1.512h-3.025v1.059h1.51v.453z" stroke-width=".567" stroke-miterlimit="22.926" stroke="#000" fill-rule="evenodd" fill="none"/></g></g><g id="sizes"><path class="cls-7" d="M15.605 73.968h22.46" id="LINE"/><path class="cls-7" d="M15.605 113.194h22.46" id="LINE-2" data-name="LINE"/><path class="cls-7" d="M15.605 113.194V73.968" id="LINE-3" data-name="LINE"/><path d="M11.97 102.189v1.394H3.548L4.416 105H2.974l-.944-1.415v-1.394zM11.97 97.533v1.395H3.548l.868 1.415H2.974l-.944-1.415v-1.395zM11.327 94.557a2.865 2.865 0 01-2.078.721H4.73a2.854 2.854 0 01-2.081-.725 3.389 3.389 0 010-4.229A2.86 2.86 0 014.73 89.6h4.519a2.856 2.856 0 012.082.724 3.38 3.38 0 010 4.229zm-.967-3.207A1.591 1.591 0 009.249 91H4.73a1.6 1.6 0 00-1.11.349 1.738 1.738 0 000 2.187 1.6 1.6 0 001.11.349h4.519a1.591 1.591 0 001.111-.352 1.733 1.733 0 000-2.181zM11.327 86.832a2.861 2.861 0 01-2.078.721H4.73a2.849 2.849 0 01-2.081-.725 3.388 3.388 0 010-4.228 2.857 2.857 0 012.084-.721h4.516a2.852 2.852 0 012.082.725 3.379 3.379 0 010 4.228zm-.967-3.207a1.6 1.6 0 00-1.111-.351H4.73a1.6 1.6 0 00-1.11.348 1.74 1.74 0 000 2.188 1.6 1.6 0 001.11.348h4.519a1.6 1.6 0 001.111-.351 1.735 1.735 0 000-2.182z"/><path class="cls-7" d="M15.605 73.968l-1.462 1.461" id="LINE-4" data-name="LINE"/><path class="cls-7" d="M17.066 75.429l-1.461-1.461" id="LINE-5" data-name="LINE"/><path class="cls-7" d="M15.605 113.194l1.461-1.461" id="LINE-6" data-name="LINE"/><path class="cls-7" d="M14.144 111.733l1.461 1.461" id="LINE-7" data-name="LINE"/><path class="cls-7" d="M145.376 190.718h-22.459" id="LINE-8" data-name="LINE"/><path class="cls-7" d="M145.376 217.571h-22.459" id="LINE-9" data-name="LINE"/><path class="cls-7" d="M145.377 217.571v-26.853" id="LINE-10" data-name="LINE"/><path d="M157.3 213.454a2.5 2.5 0 01-.967 1.057 2.788 2.788 0 01-1.453.372h-.164a2.8 2.8 0 01-1.4-.372 2.5 2.5 0 01-.991-1 2.188 2.188 0 01-.831.845 2.241 2.241 0 01-1.145.317h-.239a2.642 2.642 0 01-1.371-.349 2.362 2.362 0 01-.916-.984 3.526 3.526 0 010-2.953 2.371 2.371 0 01.916-.985 2.651 2.651 0 011.371-.348h.239a2.2 2.2 0 011.155.325 2.165 2.165 0 01.821.857 2.571 2.571 0 01.994-1.007 2.728 2.728 0 011.4-.38h.164a2.788 2.788 0 011.453.372 2.5 2.5 0 01.967 1.056 3.848 3.848 0 010 3.172zm-5.67-2.324a1.254 1.254 0 00-.516-.5 1.63 1.63 0 00-.773-.178h-.095a1.51 1.51 0 00-.739.178 1.226 1.226 0 00-.5.5 1.646 1.646 0 000 1.477 1.226 1.226 0 00.5.5 1.524 1.524 0 00.746.177h.1a1.593 1.593 0 00.762-.177 1.258 1.258 0 00.513-.5 1.6 1.6 0 000-1.477zm4.481-.116a1.384 1.384 0 00-.537-.571 1.552 1.552 0 00-.8-.2h-.1a1.567 1.567 0 00-.8.2 1.384 1.384 0 00-.537.571 2.007 2.007 0 000 1.709 1.384 1.384 0 00.54.571 1.59 1.59 0 00.807.2h.1a1.538 1.538 0 00.793-.2 1.366 1.366 0 00.529-.571 2.021 2.021 0 000-1.709zM156.894 206.185a2.867 2.867 0 01-2.078.721H150.3a2.852 2.852 0 01-2.081-.725 3.391 3.391 0 010-4.229 2.863 2.863 0 012.085-.72h4.519a2.558 2.558 0 012.823 2.837 2.815 2.815 0 01-.752 2.116zm-.967-3.207a1.593 1.593 0 00-1.111-.352H150.3a1.6 1.6 0 00-1.11.349 1.738 1.738 0 000 2.187 1.6 1.6 0 001.11.349h4.519a1.593 1.593 0 001.111-.352 1.733 1.733 0 000-2.181zM156.894 198.46a2.862 2.862 0 01-2.078.721H150.3a2.843 2.843 0 110-5.674h4.519a2.559 2.559 0 012.823 2.837 2.812 2.812 0 01-.748 2.116zm-.967-3.207a1.6 1.6 0 00-1.111-.351H150.3a1.6 1.6 0 00-1.11.348 1.74 1.74 0 000 2.188 1.6 1.6 0 001.11.348h4.519a1.6 1.6 0 001.111-.351 1.735 1.735 0 000-2.182z"/><path class="cls-7" d="M145.377 190.718l1.461 1.461" id="LINE-11" data-name="LINE"/><path class="cls-7" d="M143.916 192.179l1.461-1.461" id="LINE-12" data-name="LINE"/><path class="cls-7" d="M145.376 217.571l-1.461-1.462" id="LINE-13" data-name="LINE"/><path class="cls-7" d="M146.837 216.109l-1.461 1.462" id="LINE-14" data-name="LINE"/><path class="cls-7" d="M128.106 162.488v-22.46" id="LINE-15" data-name="LINE"/><path class="cls-7" d="M159.59 162.488v-16.98" id="LINE-16" data-name="LINE"/><path class="cls-7" d="M159.59 162.488h-31.484" id="LINE-17" data-name="LINE"/><path d="M136.972 169.713l-.007.246a1.034 1.034 0 01-.525.461 2.114 2.114 0 01-.829.148 2.246 2.246 0 01-1.27-.363 2.376 2.376 0 01-.851-1.021 3.645 3.645 0 01-.3-1.528v-.007a3.763 3.763 0 01.33-1.648 2.306 2.306 0 01.965-1.039 3.075 3.075 0 011.524-.355 3.013 3.013 0 011.52.362 2.337 2.337 0 01.961 1.053 3.82 3.82 0 01.33 1.661v.007a5.081 5.081 0 01-.139 1.138 7.017 7.017 0 01-.4 1.2l-.084.181a2.539 2.539 0 01-.09.181l-2.152 4.259h-1.527zm.066-.861a1.927 1.927 0 00.364-1.251v-.007a1.836 1.836 0 00-.364-1.217 1.459 1.459 0 00-2.069 0 1.842 1.842 0 00-.365 1.224v.007a1.91 1.91 0 00.365 1.248 1.432 1.432 0 002.069 0zM141.424 174.006a2.838 2.838 0 01-.732-2.078v-4.519a2.828 2.828 0 01.736-2.081 3.483 3.483 0 014.293 0 2.837 2.837 0 01.733 2.085v4.519a2.83 2.83 0 01-.736 2.082 3.474 3.474 0 01-4.294 0zm3.256-.967a1.58 1.58 0 00.358-1.111v-4.519a1.589 1.589 0 00-.354-1.11 1.788 1.788 0 00-2.222 0 1.584 1.584 0 00-.354 1.11v4.519a1.576 1.576 0 00.358 1.111 1.78 1.78 0 002.214 0zM149.269 174.006a2.834 2.834 0 01-.733-2.078v-4.519a2.828 2.828 0 01.736-2.081 3.483 3.483 0 014.293 0 2.833 2.833 0 01.733 2.085v4.519a2.826 2.826 0 01-.736 2.082 3.472 3.472 0 01-4.293 0zm3.255-.967a1.576 1.576 0 00.358-1.111v-4.519a1.584 1.584 0 00-.354-1.11 1.787 1.787 0 00-2.221 0 1.58 1.58 0 00-.354 1.11v4.519a1.575 1.575 0 00.357 1.111 1.78 1.78 0 002.214 0z"/><path class="cls-7" d="M128.106 162.488l1.484 1.462" id="LINE-18" data-name="LINE"/><path class="cls-7" d="M129.59 161.027l-1.484 1.461" id="LINE-19" data-name="LINE"/><path class="cls-7" d="M159.59 162.488l-1.483-1.462" id="LINE-20" data-name="LINE"/><path class="cls-7" d="M158.107 163.949l1.483-1.461" id="LINE-21" data-name="LINE"/><path class="cls-7" d="M385.516 249.279h-17.073" id="LINE-22" data-name="LINE"/><path class="cls-7" d="M385.561 143.466h-17.074" id="LINE-23" data-name="LINE"/><path class="cls-7" d="M385.555 143.466l-.05 105.813" id="LINE-24" data-name="LINE"/><path d="M396.284 210.778l-4.621-3.466a3.439 3.439 0 00-.823-.468 2.19 2.19 0 00-.8-.168h-.014a1.205 1.205 0 00-.923.349 1.392 1.392 0 00-.328.991 1.365 1.365 0 00.36.984 1.623 1.623 0 001.014.458h.007v1.442h-.007a3.732 3.732 0 01-1.459-.5 2.551 2.551 0 01-.922-.982 2.923 2.923 0 01-.319-1.387 3.456 3.456 0 01.305-1.518 2.136 2.136 0 01.885-.957 2.8 2.8 0 011.4-.328h.007a3.079 3.079 0 011.1.219 4.7 4.7 0 011.108.608l3.91 2.878v-3.76h1.326v5.606zM397.255 202.069a2.5 2.5 0 01-.967 1.056 2.788 2.788 0 01-1.453.372h-.164a2.8 2.8 0 01-1.4-.372 2.5 2.5 0 01-.992-1 2.172 2.172 0 01-.83.845 2.241 2.241 0 01-1.145.317h-.24a2.65 2.65 0 01-1.37-.348 2.364 2.364 0 01-.916-.985 3.516 3.516 0 010-2.953 2.356 2.356 0 01.916-.984 2.641 2.641 0 011.37-.349h.24a2.2 2.2 0 011.155.325 2.151 2.151 0 01.82.858 2.583 2.583 0 011-1.008 2.728 2.728 0 011.4-.38h.164a2.788 2.788 0 011.453.372 2.5 2.5 0 01.967 1.057 3.848 3.848 0 010 3.172zm-5.67-2.325a1.263 1.263 0 00-.517-.5 1.622 1.622 0 00-.772-.177h-.1a1.509 1.509 0 00-.738.177 1.238 1.238 0 00-.5.5 1.646 1.646 0 000 1.477 1.226 1.226 0 00.5.5 1.523 1.523 0 00.745.178h.1a1.593 1.593 0 00.762-.178 1.258 1.258 0 00.513-.5 1.6 1.6 0 000-1.477zm4.48-.116a1.382 1.382 0 00-.536-.571 1.555 1.555 0 00-.8-.2h-.1a1.564 1.564 0 00-.8.2 1.39 1.39 0 00-.537.571 2 2 0 000 1.709 1.372 1.372 0 00.54.571 1.588 1.588 0 00.807.2h.1a1.533 1.533 0 00.793-.2 1.362 1.362 0 00.53-.571 1.862 1.862 0 00.188-.854 1.826 1.826 0 00-.185-.855zM396.852 194.8a2.865 2.865 0 01-2.079.721h-4.518a2.843 2.843 0 110-5.674h4.518a2.85 2.85 0 012.082.725 3.377 3.377 0 010 4.228zm-.967-3.207a1.6 1.6 0 00-1.112-.352h-4.518a1.6 1.6 0 00-1.11.349 1.74 1.74 0 000 2.188 1.6 1.6 0 001.11.348h4.518a1.6 1.6 0 001.112-.351 1.735 1.735 0 000-2.182zM396.852 187.074a2.865 2.865 0 01-2.079.721h-4.518a2.843 2.843 0 110-5.674h4.518a2.854 2.854 0 012.082.725 3.377 3.377 0 010 4.228zm-.967-3.207a1.6 1.6 0 00-1.112-.351h-4.518a1.6 1.6 0 00-1.11.348 1.74 1.74 0 000 2.188 1.6 1.6 0 001.11.349h4.518a1.6 1.6 0 001.112-.352 1.735 1.735 0 000-2.182z"/><path class="cls-7" d="M385.499 249.279l1.461-1.461" id="LINE-25" data-name="LINE"/><path class="cls-7" d="M384.038 247.818l1.461 1.461" id="LINE-26" data-name="LINE"/><path class="cls-7" d="M385.601 143.466l-1.461 1.462" id="LINE-27" data-name="LINE"/><path class="cls-7" d="M387.062 144.928l-1.461-1.462" id="LINE-28" data-name="LINE"/><path class="cls-7" d="M369.195 262.873v-13.719" id="LINE-29" data-name="LINE"/><path class="cls-7" d="M323.839 262.892l45.356-.034" id="LINE-30" data-name="LINE"/><path d="M336.272 274.933h-1.394v-8.422l-1.415.868v-1.442l1.415-.944h1.394zM338.378 273.723l3.466-4.621a3.479 3.479 0 00.468-.824 2.182 2.182 0 00.167-.8v-.014a1.208 1.208 0 00-.348-.923 1.391 1.391 0 00-.991-.328 1.369 1.369 0 00-.985.358 1.637 1.637 0 00-.458 1.016v.007h-1.442v-.007a3.726 3.726 0 01.5-1.46 2.566 2.566 0 01.981-.923 2.929 2.929 0 011.388-.317 3.456 3.456 0 011.518.3 2.141 2.141 0 01.957.885 2.817 2.817 0 01.328 1.4v.007a3.109 3.109 0 01-.219 1.1 4.771 4.771 0 01-.608 1.108l-2.878 3.91h3.759v1.326h-5.605zM346.481 274.29a2.866 2.866 0 01-.72-2.078v-4.518a2.854 2.854 0 01.724-2.082 3.389 3.389 0 014.229 0 2.86 2.86 0 01.721 2.085v4.518a2.852 2.852 0 01-.725 2.081 3.379 3.379 0 01-4.229 0zm3.207-.968a1.587 1.587 0 00.352-1.11v-4.518a1.6 1.6 0 00-.349-1.112 1.745 1.745 0 00-2.187 0 1.6 1.6 0 00-.349 1.112v4.518a1.587 1.587 0 00.352 1.11 1.73 1.73 0 002.181 0zM354.206 274.29a2.867 2.867 0 01-.721-2.078v-4.518a2.854 2.854 0 01.725-2.082 3.388 3.388 0 014.228 0 2.856 2.856 0 01.721 2.085v4.518a2.558 2.558 0 01-2.837 2.823 2.819 2.819 0 01-2.116-.748zm3.207-.968a1.592 1.592 0 00.352-1.11v-4.518a1.608 1.608 0 00-.349-1.112 1.745 1.745 0 00-2.187 0 1.6 1.6 0 00-.349 1.112v4.518a1.591 1.591 0 00.351 1.11 1.731 1.731 0 002.182 0z"/><path class="cls-7" d="M369.283 262.844l-1.461 1.461" id="LINE-31" data-name="LINE"/><path class="cls-7" d="M367.822 261.383l1.461 1.461" id="LINE-32" data-name="LINE"/><path class="cls-7" d="M323.836 262.946l1.461-1.462" id="LINE-33" data-name="LINE"/><path class="cls-7" d="M325.297 264.407l-1.461-1.461" id="LINE-34" data-name="LINE"/><path class="cls-7" d="M340.836 40.362h-17.073" id="LINE-35" data-name="LINE"/><path class="cls-7" d="M340.88 11.093h-17.073" id="LINE-36" data-name="LINE"/><path class="cls-7" d="M340.874 11.093l-.049 29.269" id="LINE-37" data-name="LINE"/><path d="M352.917 34.071l-.3.635a2.5 2.5 0 01-.882 1.023 3.174 3.174 0 01-1.39.488V34.8a1.514 1.514 0 00.7-.266 1.239 1.239 0 00.406-.531 1.986 1.986 0 00.134-.761 1.485 1.485 0 00-.369-1.074 1.377 1.377 0 00-1.039-.382h-.3a1.677 1.677 0 00-1.152.362 1.3 1.3 0 00-.406 1.025v.7h-1.327v-.7a1.166 1.166 0 00-.348-.9 1.4 1.4 0 00-.985-.321h-.307a1.188 1.188 0 00-.909.338 1.335 1.335 0 00-.322.96 1.456 1.456 0 00.133.636 1.215 1.215 0 00.41.475 1.868 1.868 0 00.7.284v1.415a3.626 3.626 0 01-1.4-.516 2.518 2.518 0 01-.882-.961 2.852 2.852 0 01-.3-1.333 2.757 2.757 0 01.677-1.989 2.519 2.519 0 011.907-.7h.165a2.151 2.151 0 011.3.4 2.284 2.284 0 01.807 1.142 2.019 2.019 0 01.8-1.261 2.643 2.643 0 011.586-.448h.164a3.054 3.054 0 011.483.335 2.22 2.22 0 01.937.975 3.4 3.4 0 01.321 1.541zM352.564 27.337a2.277 2.277 0 01-1.025.947 3.713 3.713 0 01-1.623.325h-.007a5.537 5.537 0 01-1.162-.13 6.735 6.735 0 01-1.2-.376 2.81 2.81 0 01-.2-.089l-.195-.1-4.279-2.16v-1.5l4.956 2.536-.246-.007a1.189 1.189 0 01-.5-.5 1.572 1.572 0 01-.178-.765 2.432 2.432 0 01.349-1.326 2.168 2.168 0 011.014-.841 4.034 4.034 0 011.6-.287h.007a3.786 3.786 0 011.64.325 2.3 2.3 0 011.04.949 3.351 3.351 0 010 3zm-1.4-2.519a1.721 1.721 0 00-1.164-.359h-.007a1.971 1.971 0 00-1.289.376 1.315 1.315 0 00-.454 1.073 1.13 1.13 0 00.458.964 2.122 2.122 0 001.292.342h.007a1.7 1.7 0 001.165-.359 1.474 1.474 0 000-2.037zM352.623 19.78a2.418 2.418 0 01-.854.951 3.416 3.416 0 01-1.347.488h-.007v-1.395h.007a1.287 1.287 0 00.85-.437 1.41 1.41 0 00.305-.943 1.261 1.261 0 00-.448-1.036 1.941 1.941 0 00-1.261-.366h-.834a1.933 1.933 0 00-1.255.366 1.263 1.263 0 00-.447 1.036 1.316 1.316 0 00.2.7 1.964 1.964 0 00.574.588V21h-5.236v-5.065h1.33v3.671h2.236a1.972 1.972 0 01-.329-.581 1.9 1.9 0 01-.116-.657 2.875 2.875 0 01.356-1.473 2.279 2.279 0 011.039-.93 3.9 3.9 0 011.647-.317h.834a3.778 3.778 0 011.648.328 2.334 2.334 0 011.042.957 3 3 0 01.359 1.511 2.944 2.944 0 01-.293 1.336z"/><path class="cls-7" d="M340.819 40.362l1.461-1.461" id="LINE-38" data-name="LINE"/><path class="cls-7" d="M339.357 38.901l1.462 1.461" id="LINE-39" data-name="LINE"/><path class="cls-7" d="M340.92 11.093l-1.461 1.461" id="LINE-40" data-name="LINE"/><path class="cls-7" d="M342.382 12.554l-1.462-1.461" id="LINE-41" data-name="LINE"/><path class="cls-7" d="M340.836 106.696h-17.073" id="LINE-42" data-name="LINE"/><path class="cls-7" d="M340.88 40.258h-17.073" id="LINE-43" data-name="LINE"/><path class="cls-7" d="M340.874 40.258l-.049 66.438" id="LINE-44" data-name="LINE"/><path d="M352.814 82.1v1.394h-8.421l.868 1.416h-1.443l-.943-1.416V82.1zM344.119 74.705l8.695 2.571v1.483l-8.613-2.57v2.529h1.429v1.395h-2.755v-5.408zM352.814 70.392v1.394h-8.421l.868 1.415h-1.443l-.943-1.415v-1.394zM352.172 67.415a2.864 2.864 0 01-2.078.721h-4.519a2.852 2.852 0 01-2.082-.725 3.391 3.391 0 010-4.228 2.858 2.858 0 012.085-.721h4.519a2.849 2.849 0 012.081.725 3.377 3.377 0 010 4.228zm-.968-3.207a1.6 1.6 0 00-1.11-.351h-4.519a1.607 1.607 0 00-1.111.348 1.743 1.743 0 000 2.188 1.607 1.607 0 001.111.348h4.519a1.6 1.6 0 001.11-.351 1.731 1.731 0 000-2.182z"/><path class="cls-7" d="M340.819 106.696l1.461-1.462" id="LINE-45" data-name="LINE"/><path class="cls-7" d="M339.357 105.234l1.462 1.462" id="LINE-46" data-name="LINE"/><path class="cls-7" d="M340.92 40.258l-1.461 1.461" id="LINE-47" data-name="LINE"/><path class="cls-7" d="M342.382 41.719l-1.462-1.461" id="LINE-48" data-name="LINE"/><path class="cls-7" d="M340.836 154.821h-17.073" id="LINE-49" data-name="LINE"/><path class="cls-7" d="M340.88 106.633h-17.073" id="LINE-50" data-name="LINE"/><path class="cls-7" d="M340.874 106.633l-.049 48.188" id="LINE-51" data-name="LINE"/><path d="M352.814 139.859v1.394h-8.421l.868 1.415h-1.443l-.943-1.415v-1.394zM344.119 132.469l8.695 2.57v1.484l-8.613-2.571v2.53h1.429v1.394h-2.755v-5.407zM347.879 127.034l.246.007a1.031 1.031 0 01.461.516 2.059 2.059 0 01.147.817 2.2 2.2 0 01-.362 1.251 2.367 2.367 0 01-1.022.838 3.709 3.709 0 01-1.528.3h-.007a3.818 3.818 0 01-1.647-.324 2.283 2.283 0 01-1.039-.951 2.986 2.986 0 01-.356-1.5 2.923 2.923 0 01.363-1.5 2.315 2.315 0 011.053-.947 3.862 3.862 0 011.661-.325h.006a5.177 5.177 0 011.138.137 6.96 6.96 0 011.2.389c.059.028.12.055.181.082s.122.057.182.089l4.258 2.119v1.5zm-.861-.065a1.953 1.953 0 00-1.251-.358h-.007a1.855 1.855 0 00-1.217.358 1.419 1.419 0 000 2.037 1.856 1.856 0 001.224.359h.006a1.925 1.925 0 001.248-.359 1.393 1.393 0 000-2.037zM352.172 122.65a2.868 2.868 0 01-2.078.72h-4.519a2.856 2.856 0 01-2.082-.724 3.393 3.393 0 010-4.229 2.861 2.861 0 012.085-.72h4.519a2.853 2.853 0 012.081.724 3.379 3.379 0 010 4.229zm-.968-3.207a1.59 1.59 0 00-1.11-.352h-4.519a1.6 1.6 0 00-1.111.349 1.742 1.742 0 000 2.187 1.6 1.6 0 001.111.349h4.519a1.59 1.59 0 001.11-.352 1.73 1.73 0 000-2.181z"/><path class="cls-7" d="M340.819 154.821l1.461-1.462" id="LINE-52" data-name="LINE"/><path class="cls-7" d="M339.357 153.359l1.462 1.462" id="LINE-53" data-name="LINE"/><path class="cls-7" d="M340.92 106.633l-1.461 1.461" id="LINE-54" data-name="LINE"/><path class="cls-7" d="M342.382 108.094l-1.462-1.461" id="LINE-55" data-name="LINE"/><path class="cls-7" d="M340.836 238.071h-17.073" id="LINE-56" data-name="LINE"/><path class="cls-7" d="M340.88 154.852h-17.073" id="LINE-57" data-name="LINE"/><path class="cls-7" d="M340.874 154.852l-.049 83.219" id="LINE-58" data-name="LINE"/><path d="M351.6 209.335l-4.621-3.466a3.421 3.421 0 00-.824-.467 2.16 2.16 0 00-.8-.168h-.013a1.207 1.207 0 00-.923.348 1.391 1.391 0 00-.328.991 1.369 1.369 0 00.358.985 1.631 1.631 0 001.016.458h.006v1.442h-.006a3.72 3.72 0 01-1.46-.5 2.559 2.559 0 01-.923-.981 2.927 2.927 0 01-.318-1.388 3.466 3.466 0 01.3-1.517 2.133 2.133 0 01.886-.957 2.8 2.8 0 011.4-.329h.007a3.11 3.11 0 011.1.219 4.713 4.713 0 011.107.609l3.91 2.877v-3.761h1.326v5.605zM352.814 199.553v1.394h-8.421l.868 1.416h-1.443l-.943-1.416v-1.394zM352.564 196.231a2.282 2.282 0 01-1.025.947 3.713 3.713 0 01-1.623.324h-.007a5.537 5.537 0 01-1.162-.13 6.735 6.735 0 01-1.2-.376 2.127 2.127 0 01-.2-.089l-.195-.095-4.279-2.16v-1.5l4.956 2.536-.246-.007a1.189 1.189 0 01-.5-.5 1.579 1.579 0 01-.178-.766 2.435 2.435 0 01.349-1.326 2.179 2.179 0 011.014-.841 4.052 4.052 0 011.6-.287h.007a3.8 3.8 0 011.64.325 2.3 2.3 0 011.04.95 3.351 3.351 0 010 3zm-1.4-2.52a1.726 1.726 0 00-1.169-.358h-.007a1.971 1.971 0 00-1.289.376 1.313 1.313 0 00-.454 1.073 1.131 1.131 0 00.458.964 2.129 2.129 0 001.292.342h.007a1.7 1.7 0 001.165-.36 1.474 1.474 0 000-2.037zM352.172 189.392a2.868 2.868 0 01-2.078.721h-4.519a2.856 2.856 0 01-2.082-.725 3.393 3.393 0 010-4.229 2.861 2.861 0 012.085-.72h4.519a2.853 2.853 0 012.081.724 3.379 3.379 0 010 4.229zm-.968-3.207a1.59 1.59 0 00-1.11-.352h-4.519a1.6 1.6 0 00-1.111.349 1.742 1.742 0 000 2.187 1.6 1.6 0 001.111.349h4.519a1.59 1.59 0 001.11-.352 1.73 1.73 0 000-2.181z"/><path class="cls-7" d="M340.819 238.071l1.461-1.462" id="LINE-59" data-name="LINE"/><path class="cls-7" d="M339.357 236.609l1.462 1.462" id="LINE-60" data-name="LINE"/><path class="cls-7" d="M340.92 154.852l-1.461 1.461" id="LINE-61" data-name="LINE"/><path class="cls-7" d="M342.382 156.313l-1.462-1.461" id="LINE-62" data-name="LINE"/><path class="cls-7" d="M340.836 253.071h-17.073" id="LINE-63" data-name="LINE"/><path class="cls-7" d="M340.88 238.102h-17.073" id="LINE-64" data-name="LINE"/><path class="cls-7" d="M340.874 238.102l-.049 14.969" id="LINE-65" data-name="LINE"/><path d="M350.08 256.473l-7.2-3.336V251.7l7.12 3.255v-4.874h1.292v6.392zm-3.11-4.286v-1.361h5.851v1.361zM350.08 248.509l-7.2-3.336v-1.435l7.12 3.253v-4.874h1.292v6.392zm-3.11-4.286v-1.36h5.851v1.36zM352.623 238.969a2.412 2.412 0 01-.854.951 3.416 3.416 0 01-1.347.488h-.007v-1.394h.007a1.288 1.288 0 00.85-.438 1.409 1.409 0 00.305-.943 1.259 1.259 0 00-.448-1.035 1.941 1.941 0 00-1.261-.366h-.834a1.933 1.933 0 00-1.255.366 1.261 1.261 0 00-.447 1.035 1.314 1.314 0 00.2.7 1.953 1.953 0 00.574.588v1.272h-5.236v-5.066h1.33v3.673h2.236a1.972 1.972 0 01-.329-.581 1.9 1.9 0 01-.116-.656 2.879 2.879 0 01.356-1.474 2.272 2.272 0 011.039-.929 3.9 3.9 0 011.647-.318h.834a3.792 3.792 0 011.648.328 2.334 2.334 0 011.042.957 3 3 0 01.359 1.511 2.944 2.944 0 01-.293 1.331z"/><path class="cls-7" d="M340.819 253.071l1.461-1.462" id="LINE-66" data-name="LINE"/><path class="cls-7" d="M339.357 251.609l1.462 1.462" id="LINE-67" data-name="LINE"/><path class="cls-7" d="M340.92 238.102l-1.461 1.461" id="LINE-68" data-name="LINE"/><path class="cls-7" d="M342.382 239.563l-1.462-1.461" id="LINE-69" data-name="LINE"/><path class="cls-7" d="M300.216 238.575H123.988" id="LINE-70" data-name="LINE"/><path d="M197.736 248.1l3.336-7.2h1.436l-3.254 7.116h4.874v1.292h-6.392zm4.286-3.111h1.361v5.852h-1.361zM210.971 242.143l-2.571 8.695h-1.483l2.57-8.613h-2.529v1.429h-1.4V240.9h5.408zM214.211 250.6a2.5 2.5 0 01-1.057-.967 2.788 2.788 0 01-.372-1.453v-.164a2.8 2.8 0 01.372-1.4 2.5 2.5 0 011-.992 2.176 2.176 0 01-.844-.83 2.242 2.242 0 01-.318-1.145v-.24a2.651 2.651 0 01.349-1.37 2.356 2.356 0 01.984-.916 3.516 3.516 0 012.953 0 2.364 2.364 0 01.985.916 2.65 2.65 0 01.348 1.37v.24a2.2 2.2 0 01-.325 1.155 2.155 2.155 0 01-.857.82 2.583 2.583 0 011.008.995 2.728 2.728 0 01.38 1.4v.164a2.779 2.779 0 01-.373 1.453 2.5 2.5 0 01-1.056.967 3.848 3.848 0 01-3.172 0zm2.44-1.19a1.384 1.384 0 00.572-.536 1.565 1.565 0 00.2-.8v-.095a1.574 1.574 0 00-.2-.8 1.386 1.386 0 00-.572-.537 2 2 0 00-1.709 0 1.378 1.378 0 00-.571.54 1.587 1.587 0 00-.2.807v.1a1.532 1.532 0 00.2.793 1.368 1.368 0 00.571.53 1.866 1.866 0 00.855.188 1.825 1.825 0 00.854-.191zm-.116-4.48a1.25 1.25 0 00.5-.517 1.623 1.623 0 00.178-.772v-.1a1.509 1.509 0 00-.178-.738 1.226 1.226 0 00-.5-.5 1.644 1.644 0 00-1.476 0 1.226 1.226 0 00-.5.5 1.512 1.512 0 00-.178.745v.1a1.582 1.582 0 00.178.762 1.258 1.258 0 00.5.513 1.6 1.6 0 001.476 0zM222.2 250.647a2.413 2.413 0 01-.951-.855 3.4 3.4 0 01-.488-1.346v-.007h1.394v.007a1.3 1.3 0 00.438.851 1.419 1.419 0 00.943.3 1.264 1.264 0 001.035-.447 1.944 1.944 0 00.367-1.262v-.834a1.93 1.93 0 00-.367-1.254 1.259 1.259 0 00-1.035-.448 1.316 1.316 0 00-.7.205 1.941 1.941 0 00-.588.574h-1.271V240.9h5.065v1.326h-3.671v2.235a2.015 2.015 0 01.581-.328 1.926 1.926 0 01.656-.116 2.9 2.9 0 011.474.355 2.294 2.294 0 01.93 1.039 3.9 3.9 0 01.317 1.648v.834a3.773 3.773 0 01-.328 1.647 2.326 2.326 0 01-.957 1.043 2.993 2.993 0 01-1.511.359 2.931 2.931 0 01-1.333-.295z"/><path class="cls-7" d="M124.026 238.575l1.461-1.461" id="LINE-71" data-name="LINE"/><path class="cls-7" d="M125.487 240.036l-1.461-1.461" id="LINE-72" data-name="LINE"/><path class="cls-7" d="M300.215 238.576l-1.461 1.461" id="LINE-73" data-name="LINE"/><path class="cls-7" d="M298.754 237.115l1.461 1.461" id="LINE-74" data-name="LINE"/><path class="cls-7" d="M120.862 238.575H54.738" id="LINE-75" data-name="LINE"/><path d="M74.684 250.838h-1.395v-8.422l-1.415.868v-1.442l1.415-.943h1.395zM82.073 242.143l-2.57 8.695H78.02l2.57-8.613h-2.529v1.429h-1.4V240.9h5.407zM83.3 248.1l3.336-7.2h1.435l-3.254 7.116H89.7v1.292h-6.4zm4.286-3.111h1.36v5.852H87.59zM92.125 250.2a2.869 2.869 0 01-.721-2.079V243.6a2.852 2.852 0 01.725-2.081 3.39 3.39 0 014.228 0 2.858 2.858 0 01.721 2.085v4.518a2.854 2.854 0 01-.724 2.082 3.379 3.379 0 01-4.229 0zm3.207-.967a1.6 1.6 0 00.352-1.112V243.6a1.6 1.6 0 00-.349-1.11 1.74 1.74 0 00-2.188 0 1.6 1.6 0 00-.348 1.11v4.518a1.6 1.6 0 00.351 1.112 1.738 1.738 0 002.182 0z"/><path class="cls-7" d="M54.776 238.575l1.461-1.461" id="LINE-76" data-name="LINE"/><path class="cls-7" d="M56.237 240.036l-1.461-1.461" id="LINE-77" data-name="LINE"/><path class="cls-7" d="M120.861 238.576l-1.461 1.461" id="LINE-78" data-name="LINE"/><path class="cls-7" d="M119.4 237.115l1.461 1.461" id="LINE-79" data-name="LINE"/><path class="cls-7" d="M120.862 127.575H44.988" id="LINE-80" data-name="LINE"/><path d="M72.681 139.838h-1.394v-8.421l-1.415.868v-1.442l1.415-.944h1.394zM78.458 134.9l-.007.246a1.033 1.033 0 01-.516.462 2.1 2.1 0 01-.817.146 2.189 2.189 0 01-1.251-.362 2.361 2.361 0 01-.838-1.022 3.706 3.706 0 01-.3-1.528v-.006a3.823 3.823 0 01.324-1.648 2.293 2.293 0 01.951-1.039 2.986 2.986 0 011.5-.355 2.922 2.922 0 011.5.362 2.325 2.325 0 01.947 1.053 3.884 3.884 0 01.325 1.661v.007a5.191 5.191 0 01-.137 1.138 7.038 7.038 0 01-.389 1.2l-.083.182a2.502 2.502 0 01-.088.18l-2.12 4.259h-1.5zm.065-.862a1.948 1.948 0 00.358-1.25v-.007a1.857 1.857 0 00-.358-1.217 1.419 1.419 0 00-2.037 0 1.858 1.858 0 00-.36 1.224v.007a1.924 1.924 0 00.36 1.247 1.392 1.392 0 002.037 0zM83.448 139.6a2.5 2.5 0 01-1.057-.967 2.788 2.788 0 01-.372-1.453v-.164a2.8 2.8 0 01.372-1.4 2.5 2.5 0 01.995-.992 2.17 2.17 0 01-.844-.83 2.242 2.242 0 01-.318-1.145v-.239a2.642 2.642 0 01.349-1.371 2.362 2.362 0 01.984-.916 3.526 3.526 0 012.953 0 2.371 2.371 0 01.985.916 2.651 2.651 0 01.348 1.371v.239a2.2 2.2 0 01-.325 1.155 2.155 2.155 0 01-.857.82 2.574 2.574 0 011.007.995 2.728 2.728 0 01.38 1.4v.164a2.788 2.788 0 01-.372 1.453 2.5 2.5 0 01-1.056.967 3.848 3.848 0 01-3.172 0zm2.44-1.19a1.376 1.376 0 00.571-.536 1.555 1.555 0 00.2-.8v-.095a1.565 1.565 0 00-.2-.8 1.378 1.378 0 00-.571-.537 2 2 0 00-1.709 0 1.378 1.378 0 00-.571.54 1.587 1.587 0 00-.2.807v.1a1.532 1.532 0 00.2.793 1.368 1.368 0 00.571.53 1.863 1.863 0 00.855.188 1.825 1.825 0 00.854-.191zm-.116-4.48a1.25 1.25 0 00.5-.517 1.623 1.623 0 00.178-.772v-.095a1.51 1.51 0 00-.178-.739 1.226 1.226 0 00-.5-.5 1.646 1.646 0 00-1.477 0 1.238 1.238 0 00-.5.5 1.524 1.524 0 00-.177.746v.1a1.593 1.593 0 00.177.762 1.271 1.271 0 00.5.513 1.6 1.6 0 001.477 0zM91.436 139.647a2.407 2.407 0 01-.951-.855 3.4 3.4 0 01-.485-1.346v-.007h1.394v.007a1.291 1.291 0 00.438.851 1.419 1.419 0 00.943.3 1.264 1.264 0 001.035-.447 1.944 1.944 0 00.366-1.262v-.834a1.93 1.93 0 00-.366-1.254 1.259 1.259 0 00-1.035-.448 1.314 1.314 0 00-.7.205 1.941 1.941 0 00-.588.574h-1.272V129.9h5.066v1.326H91.61v2.235a1.989 1.989 0 01.581-.327 1.9 1.9 0 01.656-.117 2.9 2.9 0 011.474.355 2.287 2.287 0 01.929 1.039 3.9 3.9 0 01.318 1.648v.834a3.788 3.788 0 01-.328 1.647 2.326 2.326 0 01-.957 1.043 2.993 2.993 0 01-1.511.359 2.931 2.931 0 01-1.336-.295z"/><path class="cls-7" d="M45.026 127.575l1.461-1.461" id="LINE-81" data-name="LINE"/><path class="cls-7" d="M46.487 129.036l-1.461-1.461" id="LINE-82" data-name="LINE"/><path class="cls-7" d="M120.861 127.576l-1.461 1.461" id="LINE-83" data-name="LINE"/><path class="cls-7" d="M119.4 126.115l1.461 1.461" id="LINE-84" data-name="LINE"/><path class="cls-7" d="M300.362 119.575h-176.04" id="LINE-85" data-name="LINE"/><path d="M197.976 129.1l3.336-7.2h1.435l-3.254 7.116h4.874v1.292h-6.391zm4.286-3.11h1.36v5.851h-1.36zM211.21 123.143l-2.57 8.7h-1.484l2.571-8.614H207.2v1.429h-1.4V121.9h5.407zM214.45 131.6a2.5 2.5 0 01-1.056-.967 2.788 2.788 0 01-.373-1.453v-.164a2.8 2.8 0 01.373-1.4 2.5 2.5 0 011-.991 2.182 2.182 0 01-.845-.831 2.241 2.241 0 01-.317-1.145v-.239a2.651 2.651 0 01.348-1.371 2.371 2.371 0 01.985-.916 3.526 3.526 0 012.953 0 2.362 2.362 0 01.984.916 2.652 2.652 0 01.349 1.371v.239a2.206 2.206 0 01-.325 1.155 2.161 2.161 0 01-.858.821 2.573 2.573 0 011.008.994 2.728 2.728 0 01.38 1.4v.164a2.788 2.788 0 01-.372 1.453 2.5 2.5 0 01-1.057.967 3.848 3.848 0 01-3.172 0zm2.441-1.189a1.39 1.39 0 00.571-.537 1.551 1.551 0 00.2-.8v-.1a1.567 1.567 0 00-.2-.8 1.39 1.39 0 00-.571-.537 2.007 2.007 0 00-1.709 0 1.387 1.387 0 00-.572.54 1.6 1.6 0 00-.2.807v.1a1.547 1.547 0 00.2.793 1.368 1.368 0 00.572.529 2.021 2.021 0 001.709 0zm-.117-4.481a1.254 1.254 0 00.5-.516 1.618 1.618 0 00.178-.773v-.095a1.5 1.5 0 00-.178-.739 1.226 1.226 0 00-.5-.495 1.644 1.644 0 00-1.476 0 1.226 1.226 0 00-.5.495 1.524 1.524 0 00-.178.746v.1a1.593 1.593 0 00.178.762 1.258 1.258 0 00.5.513 1.6 1.6 0 001.476 0zM222.438 131.647a2.418 2.418 0 01-.951-.854 3.41 3.41 0 01-.488-1.347v-.007h1.4v.007a1.29 1.29 0 00.437.851 1.415 1.415 0 00.943.3 1.263 1.263 0 001.036-.447 1.944 1.944 0 00.366-1.262v-.834a1.93 1.93 0 00-.366-1.254 1.264 1.264 0 00-1.036-.448 1.325 1.325 0 00-.7.205 1.964 1.964 0 00-.588.574h-1.271V121.9h5.065v1.326h-3.671v2.236a1.969 1.969 0 01.581-.328 1.9 1.9 0 01.657-.117 2.885 2.885 0 011.473.356 2.284 2.284 0 01.93 1.039 3.9 3.9 0 01.317 1.647v.834a3.778 3.778 0 01-.328 1.648 2.329 2.329 0 01-.957 1.042 2.993 2.993 0 01-1.511.359 2.931 2.931 0 01-1.338-.295z"/><path class="cls-7" d="M124.359 119.575l1.461-1.461" id="LINE-86" data-name="LINE"/><path class="cls-7" d="M125.82 121.036l-1.461-1.461" id="LINE-87" data-name="LINE"/><path class="cls-7" d="M300.361 119.576l-1.461 1.461" id="LINE-88" data-name="LINE"/><path class="cls-7" d="M298.9 118.115l1.461 1.461" id="LINE-89" data-name="LINE"/><path class="cls-7" d="M300.362 15.242H60.824" id="LINE-90" data-name="LINE"/><path d="M167.438 27.256a2.287 2.287 0 01-.948-1.026 3.716 3.716 0 01-.324-1.623V24.6a5.537 5.537 0 01.13-1.162 6.8 6.8 0 01.376-1.2c.027-.068.057-.135.089-.2s.063-.131.095-.2l2.161-4.279h1.5l-2.537 4.956.007-.246a1.189 1.189 0 01.5-.5 1.579 1.579 0 01.766-.178 2.44 2.44 0 011.326.348 2.185 2.185 0 01.841 1.016 4.044 4.044 0 01.287 1.6v.006a3.785 3.785 0 01-.325 1.641 2.29 2.29 0 01-.949 1.039 3.351 3.351 0 01-3 0zm2.519-1.4a1.728 1.728 0 00.358-1.169v-.007a1.971 1.971 0 00-.376-1.289 1.313 1.313 0 00-1.073-.454 1.133 1.133 0 00-.964.458 2.131 2.131 0 00-.341 1.292v.013a1.7 1.7 0 00.359 1.165 1.474 1.474 0 002.037 0zM173.419 24.771l3.336-7.2h1.435l-3.253 7.117h4.874v1.292h-6.392zm4.286-3.111h1.36v5.852h-1.36zM182.959 27.314a2.407 2.407 0 01-.951-.855 3.406 3.406 0 01-.488-1.346v-.007h1.394v.007a1.293 1.293 0 00.438.851 1.419 1.419 0 00.943.3 1.261 1.261 0 001.035-.448 1.941 1.941 0 00.366-1.261v-.834a1.933 1.933 0 00-.366-1.255 1.261 1.261 0 00-1.035-.447 1.314 1.314 0 00-.7.205 1.941 1.941 0 00-.588.574h-1.272v-5.232h5.065v1.326h-3.671v2.235a1.992 1.992 0 01.581-.328 1.9 1.9 0 01.656-.116 2.9 2.9 0 011.474.355 2.282 2.282 0 01.929 1.039 3.9 3.9 0 01.318 1.648v.834a3.788 3.788 0 01-.328 1.647 2.326 2.326 0 01-.957 1.043 3 3 0 01-1.511.359 2.931 2.931 0 01-1.332-.294zM189.862 26.863a2.869 2.869 0 01-.72-2.079v-4.518a2.856 2.856 0 01.724-2.082 3.393 3.393 0 014.229 0 2.861 2.861 0 01.72 2.085v4.518a2.856 2.856 0 01-.724 2.082 3.379 3.379 0 01-4.229 0zm3.207-.968a1.591 1.591 0 00.352-1.111v-4.518a1.6 1.6 0 00-.349-1.111 1.742 1.742 0 00-2.187 0 1.6 1.6 0 00-.349 1.111v4.518a1.591 1.591 0 00.352 1.111 1.733 1.733 0 002.181 0z"/><path class="cls-7" d="M60.861 15.242l1.462-1.461" id="LINE-91" data-name="LINE"/><path class="cls-7" d="M62.323 16.703l-1.462-1.461" id="LINE-92" data-name="LINE"/><path class="cls-7" d="M300.361 15.242l-1.461 1.462" id="LINE-93" data-name="LINE"/><path class="cls-7" d="M298.9 13.781l1.461 1.461" id="LINE-94" data-name="LINE"/><path class="cls-7" d="M120.862 148.575H60.824" id="LINE-95" data-name="LINE"/><path d="M74.564 160.838H73.17v-8.422l-1.415.868v-1.442l1.415-.943h1.394zM78.26 160.647a2.407 2.407 0 01-.951-.855 3.385 3.385 0 01-.489-1.346v-.007h1.4v.007a1.294 1.294 0 00.437.851 1.423 1.423 0 00.944.3 1.264 1.264 0 001.035-.447 1.944 1.944 0 00.364-1.258v-.834a1.93 1.93 0 00-.366-1.254 1.259 1.259 0 00-1.035-.448 1.317 1.317 0 00-.7.205 1.938 1.938 0 00-.587.574h-1.273V150.9H82.1v1.326h-3.67v2.235a2 2 0 01.581-.328 1.922 1.922 0 01.656-.116 2.9 2.9 0 011.474.355 2.292 2.292 0 01.929 1.039 3.9 3.9 0 01.318 1.648v.834a3.773 3.773 0 01-.329 1.647 2.32 2.32 0 01-.957 1.043 2.987 2.987 0 01-1.51.359 2.928 2.928 0 01-1.332-.295zM85.509 160.589a2.287 2.287 0 01-.947-1.025 3.724 3.724 0 01-.325-1.624v-.007a5.545 5.545 0 01.13-1.162 6.8 6.8 0 01.376-1.2c.028-.068.057-.135.089-.2s.064-.131.1-.195l2.16-4.279h1.5l-2.536 4.956.007-.246a1.2 1.2 0 01.5-.5 1.572 1.572 0 01.765-.178 2.432 2.432 0 011.326.349 2.176 2.176 0 01.841 1.015 4.029 4.029 0 01.287 1.6v.007a3.783 3.783 0 01-.325 1.64 2.285 2.285 0 01-.949 1.039 3.351 3.351 0 01-3 0zm2.519-1.4a1.723 1.723 0 00.359-1.169v-.007a1.966 1.966 0 00-.376-1.288 1.313 1.313 0 00-1.073-.455 1.131 1.131 0 00-.964.458 2.124 2.124 0 00-.342 1.292v.007a1.708 1.708 0 00.359 1.166 1.475 1.475 0 002.037 0zM93.066 160.647a2.413 2.413 0 01-.951-.855 3.4 3.4 0 01-.488-1.346v-.007h1.394v.007a1.3 1.3 0 00.438.851 1.42 1.42 0 00.943.3 1.266 1.266 0 001.036-.447 1.944 1.944 0 00.366-1.262v-.834a1.93 1.93 0 00-.366-1.254 1.261 1.261 0 00-1.036-.448 1.316 1.316 0 00-.7.205 1.941 1.941 0 00-.588.574h-1.268V150.9h5.065v1.326H93.24v2.235a2.015 2.015 0 01.581-.328 1.927 1.927 0 01.657-.116 2.9 2.9 0 011.473.355 2.294 2.294 0 01.93 1.039 3.9 3.9 0 01.317 1.648v.834a3.773 3.773 0 01-.328 1.647 2.326 2.326 0 01-.957 1.043 2.993 2.993 0 01-1.511.359 2.931 2.931 0 01-1.336-.295z"/><path class="cls-7" d="M60.861 148.575l1.462-1.461" id="LINE-96" data-name="LINE"/><path class="cls-7" d="M62.323 150.036l-1.462-1.461" id="LINE-97" data-name="LINE"/><path class="cls-7" d="M120.861 148.576l-1.461 1.461" id="LINE-98" data-name="LINE"/><path class="cls-7" d="M119.4 147.115l1.461 1.461" id="LINE-99" data-name="LINE"/><path class="cls-7" d="M49.119 28.183v34.471" id="LINE-100" data-name="LINE"/><path d="M56.176 52.265l.246.007a1.026 1.026 0 01.462.515 2.082 2.082 0 01.147.818 2.194 2.194 0 01-.363 1.251 2.375 2.375 0 01-1.022.838 3.7 3.7 0 01-1.527.3h-.007a3.823 3.823 0 01-1.648-.324 2.293 2.293 0 01-1.039-.951 2.986 2.986 0 01-.355-1.5 2.922 2.922 0 01.362-1.5 2.323 2.323 0 011.053-.946 3.869 3.869 0 011.661-.325h.007a5.18 5.18 0 011.138.136 6.993 6.993 0 011.2.39l.181.082c.062.027.122.057.181.089l4.259 2.119v1.5zm-.861-.066a1.949 1.949 0 00-1.251-.358h-.007a1.857 1.857 0 00-1.217.358 1.422 1.422 0 000 2.038 1.857 1.857 0 001.224.359h.007a1.924 1.924 0 001.247-.359 1.395 1.395 0 000-2.038zM60.873 47.275a2.5 2.5 0 01-.968 1.056 2.786 2.786 0 01-1.452.372h-.164a2.8 2.8 0 01-1.4-.372 2.5 2.5 0 01-.991-1 2.175 2.175 0 01-.831.845 2.241 2.241 0 01-1.145.317h-.239a2.65 2.65 0 01-1.37-.348 2.364 2.364 0 01-.916-.985 3.516 3.516 0 010-2.953 2.356 2.356 0 01.916-.984 2.641 2.641 0 011.37-.349h.239a2.209 2.209 0 011.156.325 2.158 2.158 0 01.82.858 2.576 2.576 0 01.995-1.008 2.726 2.726 0 011.4-.38h.164a2.786 2.786 0 011.452.372 2.5 2.5 0 01.968 1.057 3.859 3.859 0 010 3.172zM55.2 44.95a1.26 1.26 0 00-.516-.5 1.628 1.628 0 00-.772-.177h-.1a1.5 1.5 0 00-.738.177 1.235 1.235 0 00-.5.5 1.654 1.654 0 000 1.477 1.222 1.222 0 00.5.5 1.517 1.517 0 00.745.178h.1a1.593 1.593 0 00.762-.178 1.246 1.246 0 00.513-.5 1.6 1.6 0 000-1.477zm4.481-.116a1.384 1.384 0 00-.537-.571 1.549 1.549 0 00-.8-.2h-.1a1.567 1.567 0 00-.8.2 1.382 1.382 0 00-.536.571 2 2 0 000 1.709 1.366 1.366 0 00.54.571 1.584 1.584 0 00.806.2h.1a1.536 1.536 0 00.793-.2 1.368 1.368 0 00.53-.571 1.862 1.862 0 00.188-.854 1.826 1.826 0 00-.182-.855zM60.469 40.005a2.861 2.861 0 01-2.078.721h-4.518A2.85 2.85 0 0151.791 40a2.82 2.82 0 01-.742-2.112 2.825 2.825 0 01.739-2.116 2.858 2.858 0 012.085-.721h4.518a2.852 2.852 0 012.082.725 2.823 2.823 0 01.741 2.112 2.812 2.812 0 01-.745 2.117zM59.5 36.8a1.6 1.6 0 00-1.111-.351h-4.516a1.6 1.6 0 00-1.111.348 1.74 1.74 0 000 2.188 1.6 1.6 0 001.111.348h4.518a1.6 1.6 0 001.109-.353 1.735 1.735 0 000-2.182z"/><path class="cls-7" d="M49.119 62.654l-1.461-1.461" id="LINE-101" data-name="LINE"/><path class="cls-7" d="M50.581 61.193l-1.462 1.461" id="LINE-102" data-name="LINE"/><path class="cls-7" d="M49.12 28.183l1.461 1.461" id="LINE-103" data-name="LINE"/><path class="cls-7" d="M47.659 29.644l1.461-1.461" id="LINE-104" data-name="LINE"/><path class="cls-7" d="M67.619 11.183v51.471" id="LINE-105" data-name="LINE"/><path d="M79.612 55.868v1.395H71.19l.868 1.415h-1.442l-.944-1.415v-1.395zM76.877 53.749l-7.2-3.336v-1.435l7.123 3.254v-4.874h1.292v6.391zm-3.11-4.286V48.1h5.852v1.36zM79.714 43.912l-.3.636a2.5 2.5 0 01-.882 1.023 3.2 3.2 0 01-1.391.488v-1.422a1.5 1.5 0 00.7-.267 1.225 1.225 0 00.407-.53 1.992 1.992 0 00.134-.762 1.483 1.483 0 00-.37-1.073 1.376 1.376 0 00-1.039-.383h-.3a1.672 1.672 0 00-1.152.363 1.3 1.3 0 00-.407 1.025v.7h-1.333v-.7a1.162 1.162 0 00-.349-.9 1.4 1.4 0 00-.984-.322h-.308a1.192 1.192 0 00-.909.339 1.339 1.339 0 00-.321.96 1.462 1.462 0 00.133.636 1.222 1.222 0 00.41.475 1.886 1.886 0 00.694.284V45.9a3.632 3.632 0 01-1.4-.516 2.523 2.523 0 01-.881-.961 2.852 2.852 0 01-.3-1.333 2.753 2.753 0 01.677-1.989 2.517 2.517 0 011.907-.7h.164a2.154 2.154 0 011.3.4 2.276 2.276 0 01.806 1.142 2.027 2.027 0 01.8-1.261 2.647 2.647 0 011.586-.448h.164a3.058 3.058 0 011.484.335 2.21 2.21 0 01.936.974 3.4 3.4 0 01.321 1.541zM78.969 37.525a2.865 2.865 0 01-2.078.72h-4.518a2.854 2.854 0 01-2.082-.724 2.824 2.824 0 01-.742-2.113 2.828 2.828 0 01.739-2.116 2.861 2.861 0 012.085-.72h4.518a2.856 2.856 0 012.082.724 2.826 2.826 0 01.741 2.112 2.816 2.816 0 01-.745 2.117zM78 34.318a1.591 1.591 0 00-1.111-.352h-4.516a1.6 1.6 0 00-1.111.349 1.738 1.738 0 000 2.187 1.6 1.6 0 001.111.349h4.518A1.591 1.591 0 0078 36.5a1.733 1.733 0 000-2.181z"/><path class="cls-7" d="M67.619 62.654l-1.461-1.461" id="LINE-106" data-name="LINE"/><path class="cls-7" d="M69.081 61.193l-1.462 1.461" id="LINE-107" data-name="LINE"/><path class="cls-7" d="M67.62 11.183l1.461 1.461" id="LINE-108" data-name="LINE"/><path class="cls-7" d="M66.159 12.644l1.461-1.461" id="LINE-109" data-name="LINE"/><path class="cls-7" d="M49.119 66.017v75.97" id="LINE-110" data-name="LINE"/><path d="M61.112 114.068v1.394H52.69l.868 1.415h-1.442l-.944-1.415v-1.394zM56.176 108.291l.246.007a1.024 1.024 0 01.462.516 2.077 2.077 0 01.147.817 2.189 2.189 0 01-.363 1.251 2.368 2.368 0 01-1.022.838 3.7 3.7 0 01-1.527.3h-.007a3.838 3.838 0 01-1.648-.324 2.3 2.3 0 01-1.039-.952 2.986 2.986 0 01-.355-1.5 2.922 2.922 0 01.362-1.5 2.323 2.323 0 011.053-.946 3.869 3.869 0 011.661-.325h.007a5.184 5.184 0 011.138.137 6.9 6.9 0 011.2.389c.059.028.119.055.181.082s.122.057.181.089l4.259 2.119v1.5zm-.861-.065a1.949 1.949 0 00-1.251-.359h-.007a1.857 1.857 0 00-1.217.359 1.421 1.421 0 000 2.037 1.857 1.857 0 001.224.359h.007a1.924 1.924 0 001.247-.359 1.393 1.393 0 000-2.037zM58.377 105.311l-7.2-3.336v-1.436l7.116 3.254v-4.874h1.292v6.392zm-3.11-4.286v-1.361h5.852v1.361zM60.469 96.489a2.861 2.861 0 01-2.078.721h-4.518a2.854 2.854 0 01-2.082-.724 3.389 3.389 0 010-4.229 2.862 2.862 0 012.085-.721h4.518a2.856 2.856 0 012.082.725 3.379 3.379 0 010 4.228zm-.969-3.207a1.6 1.6 0 00-1.111-.351h-4.516a1.6 1.6 0 00-1.111.349 1.738 1.738 0 000 2.187 1.605 1.605 0 001.111.349h4.518a1.6 1.6 0 001.111-.352 1.735 1.735 0 000-2.182z"/><path class="cls-7" d="M49.119 141.987l-1.461-1.461" id="LINE-111" data-name="LINE"/><path class="cls-7" d="M50.581 140.526l-1.462 1.461" id="LINE-112" data-name="LINE"/><path class="cls-7" d="M49.12 66.017l1.461 1.461" id="LINE-113" data-name="LINE"/><path class="cls-7" d="M47.659 67.478l1.461-1.461" id="LINE-114" data-name="LINE"/><path class="cls-7" d="M101.369 11.383v130.604" id="LINE-115" data-name="LINE"/><path d="M113.464 88.992l-.3.636a2.5 2.5 0 01-.882 1.023 3.19 3.19 0 01-1.391.488v-1.422a1.5 1.5 0 00.7-.267 1.225 1.225 0 00.407-.53 1.992 1.992 0 00.134-.762 1.483 1.483 0 00-.37-1.073 1.376 1.376 0 00-1.039-.383h-.3a1.672 1.672 0 00-1.152.363 1.3 1.3 0 00-.407 1.025v.7h-1.326v-.7a1.162 1.162 0 00-.349-.9 1.4 1.4 0 00-.984-.322h-.308a1.192 1.192 0 00-.909.339 1.339 1.339 0 00-.321.96 1.459 1.459 0 00.133.636 1.215 1.215 0 00.41.475 1.886 1.886 0 00.694.284v1.415a3.632 3.632 0 01-1.4-.516 2.523 2.523 0 01-.881-.961 2.852 2.852 0 01-.3-1.333 2.753 2.753 0 01.677-1.991 2.517 2.517 0 011.907-.7h.164a2.154 2.154 0 011.3.4 2.276 2.276 0 01.806 1.142 2.027 2.027 0 01.8-1.261 2.647 2.647 0 011.586-.448h.164a3.058 3.058 0 011.484.335 2.21 2.21 0 01.936.974 3.4 3.4 0 01.321 1.541zM110.627 83.462l-7.2-3.336v-1.435l7.116 3.254v-4.874h1.292v6.391zm-3.11-4.286v-1.36h5.852v1.36zM104.667 70.228l8.695 2.57v1.483l-8.613-2.57v2.529h1.428v1.4h-2.755v-5.412zM112.719 67.593a2.865 2.865 0 01-2.078.721h-4.518a2.854 2.854 0 01-2.082-.725 3.388 3.388 0 010-4.228 2.858 2.858 0 012.085-.721h4.518a2.856 2.856 0 012.082.724 3.38 3.38 0 010 4.229zm-.967-3.207a1.6 1.6 0 00-1.111-.352h-4.518a1.605 1.605 0 00-1.111.349 1.74 1.74 0 000 2.188 1.6 1.6 0 001.111.348h4.518a1.6 1.6 0 001.111-.351 1.735 1.735 0 000-2.182z"/><path class="cls-7" d="M101.369 141.987l-1.461-1.461" id="LINE-116" data-name="LINE"/><path class="cls-7" d="M102.831 140.526l-1.462 1.461" id="LINE-117" data-name="LINE"/><path class="cls-7" d="M101.37 11.383l1.461 1.461" id="LINE-118" data-name="LINE"/><path class="cls-7" d="M99.909 12.844l1.461-1.461" id="LINE-119" data-name="LINE"/><path class="cls-7" d="M58.369 161.196v92" id="LINE-120" data-name="LINE"/><path d="M69.152 221.035l-4.621-3.465a3.393 3.393 0 00-.824-.468 2.165 2.165 0 00-.8-.168H62.9a1.207 1.207 0 00-.923.348 1.392 1.392 0 00-.328.992 1.368 1.368 0 00.359.984 1.631 1.631 0 001.015.458h.007v1.442h-.01a3.721 3.721 0 01-1.459-.5 2.552 2.552 0 01-.923-.981 2.924 2.924 0 01-.318-1.388 3.454 3.454 0 01.3-1.517 2.136 2.136 0 01.885-.957 2.806 2.806 0 011.4-.328h.006a3.1 3.1 0 011.1.218 4.713 4.713 0 011.107.609l3.911 2.878v-3.76h1.326v5.6zM70.17 212.213a2.4 2.4 0 01-.854.951 3.411 3.411 0 01-1.347.489h-.007v-1.395h.007a1.292 1.292 0 00.851-.437 1.418 1.418 0 00.305-.944 1.261 1.261 0 00-.448-1.035 1.943 1.943 0 00-1.261-.366h-.834a1.931 1.931 0 00-1.255.366 1.261 1.261 0 00-.448 1.035 1.323 1.323 0 00.2.7 1.957 1.957 0 00.575.588v1.272h-5.232v-5.066h1.327v3.671h2.235a1.969 1.969 0 01-.328-.581 1.9 1.9 0 01-.116-.656 2.891 2.891 0 01.355-1.474 2.287 2.287 0 011.039-.929 3.9 3.9 0 011.648-.318h.834a3.791 3.791 0 011.647.328 2.324 2.324 0 011.042.957 2.993 2.993 0 01.359 1.511 2.931 2.931 0 01-.294 1.333zM69.719 205.31a2.865 2.865 0 01-2.078.721h-4.518a2.854 2.854 0 01-2.082-.725 3.389 3.389 0 010-4.229 2.861 2.861 0 012.085-.72h4.518a2.856 2.856 0 012.082.724 3.38 3.38 0 010 4.229zm-.967-3.207a1.591 1.591 0 00-1.111-.352h-4.518a1.6 1.6 0 00-1.111.349 1.738 1.738 0 000 2.187 1.6 1.6 0 001.111.349h4.518a1.591 1.591 0 001.111-.352 1.733 1.733 0 000-2.181zM69.719 197.585a2.861 2.861 0 01-2.078.721h-4.518a2.85 2.85 0 01-2.082-.725 3.388 3.388 0 010-4.228 2.858 2.858 0 012.085-.721h4.518a2.852 2.852 0 012.082.725 3.379 3.379 0 010 4.228zm-.967-3.207a1.6 1.6 0 00-1.111-.351h-4.518a1.6 1.6 0 00-1.111.348 1.74 1.74 0 000 2.188 1.6 1.6 0 001.111.348h4.518a1.6 1.6 0 001.111-.351 1.735 1.735 0 000-2.182z"/><path class="cls-7" d="M58.369 253.196l-1.461-1.462" id="LINE-121" data-name="LINE"/><path class="cls-7" d="M59.831 251.734l-1.462 1.462" id="LINE-122" data-name="LINE"/><path class="cls-7" d="M58.37 161.196l1.461 1.461" id="LINE-123" data-name="LINE"/><path class="cls-7" d="M56.909 162.657l1.461-1.461" id="LINE-124" data-name="LINE"/><path class="cls-7" d="M97.994 145.383v107.75" id="LINE-125" data-name="LINE"/><path d="M108.777 220.817l-4.621-3.466a3.426 3.426 0 00-.824-.468 2.185 2.185 0 00-.8-.168h-.014a1.2 1.2 0 00-.923.349 1.388 1.388 0 00-.328.991 1.368 1.368 0 00.359.984 1.626 1.626 0 001.015.458h.007v1.443h-.007a3.721 3.721 0 01-1.459-.5 2.554 2.554 0 01-.923-.982 2.923 2.923 0 01-.318-1.387 3.456 3.456 0 01.3-1.518 2.141 2.141 0 01.885-.957 2.806 2.806 0 011.4-.328h.006a3.084 3.084 0 011.1.219 4.673 4.673 0 011.107.608l3.911 2.878v-3.76h1.326v5.606zM105.051 209.913l.246.007a1.024 1.024 0 01.462.516 2.077 2.077 0 01.147.817 2.189 2.189 0 01-.363 1.251 2.368 2.368 0 01-1.022.838 3.7 3.7 0 01-1.527.3h-.007a3.823 3.823 0 01-1.648-.324 2.3 2.3 0 01-1.039-.951 2.989 2.989 0 01-.355-1.5 2.926 2.926 0 01.362-1.5 2.323 2.323 0 011.053-.946 3.869 3.869 0 011.661-.325h.007a5.184 5.184 0 011.138.137 6.9 6.9 0 011.2.389c.059.028.119.055.181.082s.122.057.181.089l4.259 2.119v1.5zm-.861-.065a1.949 1.949 0 00-1.251-.359h-.007a1.857 1.857 0 00-1.217.359 1.421 1.421 0 000 2.037 1.857 1.857 0 001.224.359h.007a1.924 1.924 0 001.247-.359 1.393 1.393 0 000-2.037zM109.344 205.529a2.865 2.865 0 01-2.078.72h-4.518a2.854 2.854 0 01-2.082-.724 3.389 3.389 0 010-4.229 2.862 2.862 0 012.085-.721h4.518a2.856 2.856 0 012.082.725 3.38 3.38 0 010 4.229zm-.967-3.207a1.591 1.591 0 00-1.111-.352h-4.518a1.6 1.6 0 00-1.111.349 1.738 1.738 0 000 2.187 1.6 1.6 0 001.111.349h4.518a1.591 1.591 0 001.111-.352 1.733 1.733 0 000-2.181zM109.344 197.8a2.865 2.865 0 01-2.078.721h-4.518a2.854 2.854 0 01-2.082-.725 3.388 3.388 0 010-4.228 2.858 2.858 0 012.085-.721h4.518a2.856 2.856 0 012.082.724 3.38 3.38 0 010 4.229zm-.967-3.207a1.6 1.6 0 00-1.111-.352h-4.518a1.605 1.605 0 00-1.111.349 1.738 1.738 0 000 2.187 1.6 1.6 0 001.111.349h4.518a1.6 1.6 0 001.111-.351 1.735 1.735 0 000-2.182z"/><path class="cls-7" d="M97.994 253.133l-1.461-1.461" id="LINE-126" data-name="LINE"/><path class="cls-7" d="M99.456 251.672l-1.462 1.461" id="LINE-127" data-name="LINE"/><path class="cls-7" d="M97.995 145.383l1.461 1.461" id="LINE-128" data-name="LINE"/><path class="cls-7" d="M96.534 146.844l1.461-1.461" id="LINE-129" data-name="LINE"/><path class="cls-7" d="M169.328 147.164v105.969" id="LINE-130" data-name="LINE"/><path d="M180.11 214.207l-4.621-3.466a3.435 3.435 0 00-.823-.467 2.169 2.169 0 00-.8-.168h-.014a1.2 1.2 0 00-.922.348 1.392 1.392 0 00-.329.992 1.368 1.368 0 00.359.984 1.634 1.634 0 001.016.458h.006v1.442h-.006a3.726 3.726 0 01-1.46-.5 2.566 2.566 0 01-.923-.981 2.924 2.924 0 01-.318-1.388 3.451 3.451 0 01.305-1.517 2.131 2.131 0 01.885-.957 2.8 2.8 0 011.4-.329h.007a3.11 3.11 0 011.1.219 4.733 4.733 0 011.107.609l3.91 2.878V208.6h1.326v5.6zM176.385 203.3l.246.007a1.029 1.029 0 01.461.515 2.082 2.082 0 01.147.818 2.193 2.193 0 01-.362 1.251 2.381 2.381 0 01-1.022.838 3.706 3.706 0 01-1.528.3h-.007a3.818 3.818 0 01-1.647-.325 2.283 2.283 0 01-1.039-.951 2.986 2.986 0 01-.356-1.5 2.923 2.923 0 01.363-1.5 2.321 2.321 0 011.052-.946 3.875 3.875 0 011.661-.325h.007a5.189 5.189 0 011.139.136 6.955 6.955 0 011.2.39l.181.082c.062.027.122.057.182.089l4.258 2.119v1.5zm-.862-.065a1.943 1.943 0 00-1.251-.359h-.006a1.852 1.852 0 00-1.217.359 1.419 1.419 0 000 2.037 1.856 1.856 0 001.223.359h.007a1.925 1.925 0 001.248-.359 1.392 1.392 0 000-2.037zM180.678 198.919a2.864 2.864 0 01-2.078.721h-4.519a2.843 2.843 0 110-5.674h4.519a2.559 2.559 0 012.823 2.837 2.816 2.816 0 01-.745 2.116zm-.968-3.207a1.593 1.593 0 00-1.11-.351h-4.519a1.607 1.607 0 00-1.111.348 1.743 1.743 0 000 2.188 1.607 1.607 0 001.111.348h4.519a1.593 1.593 0 001.11-.351 1.731 1.731 0 000-2.182zM180.678 191.2a2.868 2.868 0 01-2.078.72h-4.519a2.843 2.843 0 110-5.674h4.519a2.852 2.852 0 012.081.725 3.379 3.379 0 010 4.229zm-.968-3.207a1.589 1.589 0 00-1.11-.352h-4.519a1.6 1.6 0 00-1.111.349 1.742 1.742 0 000 2.187 1.6 1.6 0 001.111.349h4.519a1.589 1.589 0 001.11-.352 1.73 1.73 0 000-2.181z"/><path class="cls-7" d="M169.328 253.133l-1.461-1.461" id="LINE-131" data-name="LINE"/><path class="cls-7" d="M170.789 251.672l-1.461 1.461" id="LINE-132" data-name="LINE"/><path class="cls-7" d="M169.328 147.164l1.462 1.461" id="LINE-133" data-name="LINE"/><path class="cls-7" d="M167.867 148.625l1.461-1.461" id="LINE-134" data-name="LINE"/><path class="cls-7" d="M284.369 11.383v124.875" id="LINE-135" data-name="LINE"/><path d="M296.464 88.713l-.3.636a2.492 2.492 0 01-.882 1.022 3.191 3.191 0 01-1.391.489v-1.422a1.5 1.5 0 00.7-.267 1.23 1.23 0 00.407-.53 1.992 1.992 0 00.134-.762 1.483 1.483 0 00-.37-1.073 1.376 1.376 0 00-1.039-.383h-.3a1.677 1.677 0 00-1.152.362 1.3 1.3 0 00-.407 1.026v.7h-1.326v-.7a1.164 1.164 0 00-.349-.9 1.4 1.4 0 00-.984-.321h-.308a1.188 1.188 0 00-.909.339 1.339 1.339 0 00-.321.96 1.462 1.462 0 00.133.636 1.219 1.219 0 00.41.474 1.87 1.87 0 00.694.285V90.7a3.632 3.632 0 01-1.395-.516 2.523 2.523 0 01-.881-.961 2.855 2.855 0 01-.3-1.333A2.751 2.751 0 01287 85.9a2.517 2.517 0 011.907-.7h.164a2.148 2.148 0 011.3.4 2.268 2.268 0 01.806 1.142 2.027 2.027 0 01.8-1.261 2.647 2.647 0 011.586-.448h.164a3.058 3.058 0 011.484.335 2.2 2.2 0 01.936.974 3.4 3.4 0 01.321 1.541zM296.464 81.31l-.3.636a2.5 2.5 0 01-.882 1.022 3.178 3.178 0 01-1.391.488v-1.422a1.494 1.494 0 00.7-.266 1.236 1.236 0 00.407-.53 1.992 1.992 0 00.134-.762 1.481 1.481 0 00-.37-1.073 1.376 1.376 0 00-1.039-.383h-.3a1.677 1.677 0 00-1.152.362 1.3 1.3 0 00-.407 1.025v.7h-1.326v-.7a1.163 1.163 0 00-.349-.9 1.4 1.4 0 00-.984-.321h-.308a1.188 1.188 0 00-.909.339 1.337 1.337 0 00-.321.96 1.454 1.454 0 00.133.635 1.215 1.215 0 00.41.475 1.853 1.853 0 00.694.284v1.415a3.632 3.632 0 01-1.395-.515 2.53 2.53 0 01-.881-.961 2.855 2.855 0 01-.3-1.333 2.754 2.754 0 01.677-1.99 2.521 2.521 0 011.907-.7h.164a2.148 2.148 0 011.3.4 2.269 2.269 0 01.806 1.141 2.027 2.027 0 01.8-1.261 2.654 2.654 0 011.586-.448h.164a3.069 3.069 0 011.484.335 2.212 2.212 0 01.936.975 3.4 3.4 0 01.321 1.541zM287.667 70.509l8.7 2.57v1.484l-8.613-2.571v2.53h1.428v1.394h-2.755v-5.407zM295.719 67.874a2.861 2.861 0 01-2.078.721h-4.518a2.85 2.85 0 01-2.082-.725 3.388 3.388 0 010-4.228 2.858 2.858 0 012.085-.721h4.518a2.852 2.852 0 012.082.725 3.379 3.379 0 010 4.228zm-.967-3.207a1.6 1.6 0 00-1.111-.351h-4.518a1.6 1.6 0 00-1.111.348 1.74 1.74 0 000 2.188 1.6 1.6 0 001.111.348h4.518a1.6 1.6 0 001.111-.351 1.735 1.735 0 000-2.182z"/><path class="cls-7" d="M284.369 136.258l-1.461-1.461" id="LINE-136" data-name="LINE"/><path class="cls-7" d="M285.831 134.797l-1.462 1.461" id="LINE-137" data-name="LINE"/><path class="cls-7" d="M284.37 11.383l1.461 1.461" id="LINE-138" data-name="LINE"/><path class="cls-7" d="M282.909 12.844l1.461-1.461" id="LINE-139" data-name="LINE"/><path class="cls-7" d="M122.369 11.383v108.188" id="LINE-140" data-name="LINE"/><path d="M133.152 90.75l-4.621-3.466a3.421 3.421 0 00-.824-.467 2.165 2.165 0 00-.8-.168h-.007a1.207 1.207 0 00-.923.348 1.392 1.392 0 00-.328.992 1.368 1.368 0 00.359.984 1.631 1.631 0 001.015.458h.007v1.442h-.007a3.721 3.721 0 01-1.459-.5 2.559 2.559 0 01-.923-.981A2.924 2.924 0 01124.32 88a3.451 3.451 0 01.3-1.517 2.136 2.136 0 01.885-.957 2.806 2.806 0 011.4-.329h.006a3.106 3.106 0 011.1.219 4.713 4.713 0 011.107.609l3.911 2.878v-3.76h1.326v5.607zM134.123 82.041a2.5 2.5 0 01-.968 1.057 2.786 2.786 0 01-1.452.372h-.164a2.8 2.8 0 01-1.4-.372 2.5 2.5 0 01-.991-1 2.172 2.172 0 01-.831.844 2.242 2.242 0 01-1.145.318h-.239a2.641 2.641 0 01-1.37-.349 2.356 2.356 0 01-.916-.984 3.516 3.516 0 010-2.953 2.364 2.364 0 01.916-.985 2.65 2.65 0 011.37-.348h.239a2.2 2.2 0 011.156.325 2.162 2.162 0 01.82.857 2.567 2.567 0 011-1.007 2.726 2.726 0 011.4-.38h.164a2.786 2.786 0 011.452.372 2.5 2.5 0 01.968 1.056 3.859 3.859 0 010 3.172zm-5.671-2.324a1.248 1.248 0 00-.516-.5 1.628 1.628 0 00-.772-.178h-.1a1.5 1.5 0 00-.738.178 1.222 1.222 0 00-.5.5 1.654 1.654 0 000 1.477 1.235 1.235 0 00.5.5 1.517 1.517 0 00.745.177h.1a1.593 1.593 0 00.762-.177 1.259 1.259 0 00.513-.5 1.6 1.6 0 000-1.477zm4.481-.116a1.378 1.378 0 00-.537-.571 1.549 1.549 0 00-.8-.2h-.1a1.567 1.567 0 00-.8.2 1.376 1.376 0 00-.536.571 2 2 0 000 1.709 1.372 1.372 0 00.54.571 1.583 1.583 0 00.806.2h.1a1.535 1.535 0 00.793-.2 1.374 1.374 0 00.53-.571 1.863 1.863 0 00.188-.855 1.825 1.825 0 00-.184-.855zM125.667 70.359l8.695 2.57v1.483l-8.613-2.57v2.529h1.428v1.4h-2.755v-5.412zM133.719 67.724a2.865 2.865 0 01-2.078.721h-4.518a2.854 2.854 0 01-2.082-.725 3.389 3.389 0 010-4.229 2.861 2.861 0 012.085-.72h4.518a2.856 2.856 0 012.082.724 3.38 3.38 0 010 4.229zm-.967-3.207a1.591 1.591 0 00-1.111-.352h-4.518a1.6 1.6 0 00-1.111.349 1.738 1.738 0 000 2.187 1.6 1.6 0 001.111.349h4.518a1.591 1.591 0 001.111-.352 1.733 1.733 0 000-2.181z"/><path class="cls-7" d="M122.369 119.571l-1.461-1.462" id="LINE-141" data-name="LINE"/><path class="cls-7" d="M123.831 118.109l-1.462 1.462" id="LINE-142" data-name="LINE"/><path class="cls-7" d="M122.37 11.383l1.461 1.461" id="LINE-143" data-name="LINE"/><path class="cls-7" d="M120.909 12.844l1.461-1.461" id="LINE-144" data-name="LINE"/></g></svg>