<svg width="2758" height="4096" viewBox="0 0 2758 4096" fill="none" xmlns="http://www.w3.org/2000/svg">
<g id="s1_fl11" clip-path="url(#clip0_4_476)">
<g id="flats">
<path id="fl99" d="M840.24 55.6876H177.462V0H0.101562V1204.16H177.462V1178.37H840.24V852.926H1364.16V55.6876H840.24Z" fill="#AD7C53"/>
<path id="fl98" d="M840.64 1207.49H0L0.105572 2531.89H118.583V2512.63H840.64V1207.49Z" fill="#AD7C53"/>
<path id="fl97" d="M1363.01 3798.94V2918.46H840.877V2540.88H178.891V2529.9H0.105572V3798.94H0V4095.89H1377.52V3798.94H1363.01Z" fill="#AD7C53"/>
<path id="fl96" d="M2643.35 2411.28V2424.73H1915.91V2918.17H1395V3796.86H1377.52V4096H2756.89V2411.28H2643.35Z" fill="#AD7C53"/>
<path id="fl95" d="M2644.99 1630.29V1642.25H1915.92V2396.3H2644.99V2411.27H2757.01V1630.29H2644.99Z" fill="#AD7C53"/>
<path id="fl94" d="M2644.99 866.092V880.054H1915.92V1618.01H2644.99V1630.29H2756.9V866.092H2644.99Z" fill="#AD7C53"/>
<path id="fl93" d="M2643.35 0V55.8208H1390.85V853.779H2643.35V865.743H2756.89V0H2643.35Z" fill="#AD7C53"/>
</g>
</g>
<defs>
<clipPath id="clip0_4_476">
<rect width="2758" height="4096" fill="white"/>
</clipPath>
</defs>
</svg>
