<svg width="2912" height="4108" viewBox="0 0 2912 4108" fill="none" xmlns="http://www.w3.org/2000/svg">
<g id="s1_fl13">
<g id="flats">
<path id="fl111" d="M188.767 71V545.531H0V879.237H188.767V1245.81H631.615L631.503 1082.08H889.293L889.349 905.851L1441.92 905.628L1440.86 71.0279H188.767V71Z" fill="#AD7C53"/>
<path id="fl110" d="M889.238 2171.38H826.548V2298.09H125.157V2313.21H0V1979.47H188.767V1276.05H661.774L661.857 1112.32H889.238L888.512 1276.86L889.238 2171.38Z" fill="#AD7C53"/>
<path id="fl109" d="M188.767 3074.55V2326.23H889.238L886.95 3067.94H1437.6V3926.53H669.223L668.693 4108H418.379V3926.53H188.767V3408.23H0L0.111598 3074.55H188.767Z" fill="#AD7C53"/>
<path id="fl108" d="M2728.39 3011.92V2551.31H2025.16V3067.94H1474.51V3926.53H2242.89L2243.42 4108H2493.73V3926.53H2728.39V3345.65H2911.94L2912 3011.92H2728.39Z" fill="#AD7C53"/>
<path id="fl107" d="M2728.39 2146.36V1293.57H2024.19L2025.16 1612.88L2022.82 2519.17H2728.39V2480.06H2911.94V2146.36H2728.39Z" fill="#AD7C53"/>
<path id="fl106" d="M2728.39 545.532V71.0566H1470.13V906.521H2020.84L2022.93 1261.01L2728.39 1260.9V879.238H2911.94V545.532H2728.39Z" fill="#AD7C53"/>
</g>
</g>
</svg>
