<svg width="2912" height="4096" viewBox="0 0 2912 4096" fill="none" xmlns="http://www.w3.org/2000/svg">
<g id="s1_fl15">
<g id="flats">
<path id="fl123" d="M188.767 58V532.648H0V866.437H188.767V1233.1H631.615L631.503 1069.33H889.293L889.349 893.058L1441.92 892.834L1440.86 58.0279H188.767V58Z" fill="#AD7C53"/>
<path id="fl122" d="M889.238 2158.9H826.548V2285.64H125.157V2300.76H0V1966.95H188.767V1263.35H661.774L661.857 1099.58H889.238L888.512 1264.15L889.238 2158.9Z" fill="#AD7C53"/>
<path id="fl121" d="M188.767 3062.29V2313.79H889.238L886.95 3055.68H1437.6V3914.48H669.223L668.693 4096H418.379V3914.48H188.767V3396.05H0L0.111598 3062.29H188.767Z" fill="#AD7C53"/>
<path id="fl120" d="M2728.39 2999.65V2538.92H2025.16V3055.68H1474.51V3914.48H2242.89L2243.42 4096H2493.73V3914.48H2728.39V3333.46H2911.94L2912 2999.65H2728.39Z" fill="#AD7C53"/>
<path id="fl119" d="M2728.39 2133.87V1280.87H2024.19L2025.16 1600.26L2022.82 2506.78H2728.39V2467.66H2911.94V2133.87H2728.39Z" fill="#AD7C53"/>
<path id="fl118" d="M2728.39 532.649V58.0566H1470.13V893.728H2020.84L2022.93 1248.31L2728.39 1248.19V866.438H2911.94V532.649H2728.39Z" fill="#AD7C53"/>
</g>
</g>
</svg>
