<svg width="2880" height="4096" viewBox="0 0 2880 4096" fill="none" xmlns="http://www.w3.org/2000/svg">
<g id="s1_fl21">
<g id="flats">
<path id="fl159" d="M823.625 64H192.836V578.991H0V940.156H192.836V1334.51H826.37V966.898H1038.54V64H823.625Z" fill="#AD7C53"/>
<path id="fl158" d="M826.37 1367.13H192.686V1747.19H0V2108.23H192.686V2475.76H614.346V2408.04H758.66V2338.5H826.37V1367.13Z" fill="#AD7C53"/>
<path id="fl157" d="M823.684 3307.05V2506.26H758.66V2440.78H646.933V2506.26H192.836V2881.54H0V3242.71H192.836V3902.99H716.046V4096H986.887V3902.99H1423.5V3307.05H823.684Z" fill="#AD7C53"/>
<path id="fl156" d="M2686.75 2813.79V2747.77H2054.11V3307.92H1457.22V3903.4H1884.07V4096H2154.94V3903.4H2686.75V3174.99H2880V2813.79H2686.75Z" fill="#AD7C53"/>
<path id="fl155" d="M2880 2311.54H2686.75V1379.79H2053.09V2714.85H2686.75V2672.71H2880V2311.54Z" fill="#AD7C53"/>
<path id="fl154" d="M2880 578.991H2686.75V64H1071.4V968.957H2053.09V1345.94H2686.75V940.036H2880V578.991Z" fill="#AD7C53"/>
</g>
</g>
</svg>
