<svg width="2882" height="4096" viewBox="0 0 2882 4096" fill="none" xmlns="http://www.w3.org/2000/svg">
<g id="s1_fl23">
<g id="flats">
<path id="fl171" d="M824.067 68.4902H194.081V582.694H1.49023V943.308H194.081V1337.06H826.809V970.009H1038.71V68.4902H824.067Z" fill="#AD7C53" stroke="black" stroke-miterlimit="10"/>
<path id="fl170" d="M826.809 1369.63H193.932V1749.11H1.49023V2109.6H193.932V2476.56H615.055V2408.95H759.185V2339.51H826.809V1369.63Z" fill="#AD7C53" stroke="black" stroke-miterlimit="10"/>
<path id="fl169" d="M824.127 3306.59V2507.02H759.185V2441.64H647.601V2507.02H194.081V2881.73H1.49023V3242.34H194.081V3901.61H716.626V4094.33H987.122V3901.61H1423.18V3306.59H824.127Z" fill="#AD7C53" stroke="black" stroke-miterlimit="10"/>
<path id="fl168" d="M2684.82 2814.08V2748.16H2052.99V3307.45H1456.86V3902.03H1883.16V4094.33H2153.69V3902.03H2684.82V3174.72H2877.83V2814.08H2684.82Z" fill="#AD7C53" stroke="black" stroke-miterlimit="10"/>
<path id="fl167" d="M2877.83 2312.6H2684.82V1382.27H2051.97V2715.29H2684.82V2673.21H2877.83V2312.6Z" fill="#AD7C53" stroke="black" stroke-miterlimit="10"/>
<path id="fl166" d="M2877.83 582.694H2684.82V68.4902H1071.53V972.065H2051.97V1348.47H2684.82V943.188H2877.83V582.694Z" fill="#AD7C53" stroke="black" stroke-miterlimit="10"/>
</g>
</g>
</svg>
