<svg width="2885" height="4096" viewBox="0 0 2885 4096" fill="none" xmlns="http://www.w3.org/2000/svg">
<g id="s1_fl24">
<g id="flats">
<path id="fl177" d="M824.925 64.4922H194.283V579.207H1.49219V940.178H194.283V1334.32H827.67V966.906H1039.79V64.4922H824.925Z" fill="#AD7C53" stroke="black" stroke-miterlimit="10"/>
<path id="fl176" d="M827.67 1366.92H194.134V1746.78H1.49219V2107.63H194.134V2474.95H615.696V2407.27H759.976V2337.77H827.67V1366.92Z" fill="#AD7C53" stroke="black" stroke-miterlimit="10"/>
<path id="fl175" d="M824.985 3305.81V2505.44H759.976V2439.99H648.275V2505.44H194.283V2880.52H1.49219V3241.49H194.283V3901.42H717.372V4094.33H988.15V3901.42H1424.66V3305.81H824.985Z" fill="#AD7C53" stroke="black" stroke-miterlimit="10"/>
<path id="fl174" d="M2687.62 2812.81V2746.82H2055.12V3306.67H1458.37V3901.84H1885.13V4094.33H2155.93V3901.84H2687.62V3173.81H2880.82V2812.81H2687.62Z" fill="#AD7C53" stroke="black" stroke-miterlimit="10"/>
<path id="fl173" d="M2880.82 2310.83H2687.62V1379.57H2054.11V2713.92H2687.62V2671.8H2880.82V2310.83Z" fill="#AD7C53" stroke="black" stroke-miterlimit="10"/>
<path id="fl172" d="M2880.82 579.207H2687.62V64.4922H1072.64V968.964H2054.11V1345.75H2687.62V940.059H2880.82V579.207Z" fill="#AD7C53" stroke="black" stroke-miterlimit="10"/>
</g>
</g>
</svg>
