<svg width="2977" height="4096" viewBox="0 0 2977 4096" fill="none" xmlns="http://www.w3.org/2000/svg">
<g id="s1_fl26">
<g id="flats">
<path id="fl185" d="M854.527 65.0305L199.611 65V551.765H0V924.704H199.611V1394.62H0V1982.31H199.611V2027.77H854.527V995.959H1471.62V65.0305H854.527Z" fill="#AD7C53"/>
<path id="fl184" d="M854.528 3414.59V2056.92H199.611V2108.22H0.123047V2695.07H199.611V3162.64H0.123047V3536.44H199.611V4029H1471.59V3414.59H854.528Z" fill="#AD7C53"/>
<path id="fl183" d="M2977 2693.49V2106.23H2777.42V2055.48H2122.47V3412.85H1506.57V4029H2777.42V3536.44H2976.88V3163.35H2777.42V2693.49H2977Z" fill="#AD7C53"/>
<path id="fl182" d="M2777.45 998.31V924.705H2976.88V551.765H2777.45V65.0312H1503.09V998.31H2122.47V2025.73H2777.42V1982.31H2976.88V1394.62H2777.42V998.31H2777.45Z" fill="#AD7C53"/>
</g>
</g>
</svg>
