<svg width="2706" height="4091" viewBox="0 0 2706 4091" fill="none" xmlns="http://www.w3.org/2000/svg">
<g id="s1_fl6">
<g id="flats">
<path id="fl48" d="M57 54.791H1335.32V826.538H57V54.791Z" fill="#AD7C53"/>
<path id="fl47" d="M57 854.602H822.276V1790.25H57V854.602Z" fill="#AD7C53"/>
<path id="fl46" d="M57 1814.57H822.592V2451.9H57V1814.57Z" fill="#AD7C53"/>
<path id="fl45" d="M822.461 2476.12H57.5273V3139.78H618.902V3106.78H822.461V2476.12Z" fill="#AD7C53"/>
<path id="fl44" d="M1003.09 3301.86H823.198V3298.28H823.356V3134.56H647.175V3168.18H58.0272V3301.86H57.7637V3920.11H763.197V4089.89H991.658V3920.11H1003.09V3301.86Z" fill="#AD7C53"/>
<path id="fl43" d="M1030.23 3304.76H1668.66V3921.59H1030.23V3304.76Z" fill="#AD7C53"/>
<path id="fl42" d="M1876.28 2774.42V3302.92H1694.77V3920.4H1707.05V4089.89H1935.51V3920.4H2085.53V3920.22H2641.68V2774.42H1876.28Z" fill="#AD7C53"/>
<path id="fl41" d="M1876.33 2354.62H2641.71V2746.33H1876.33V2354.62Z" fill="#AD7C53"/>
<path id="fl40" d="M1876.33 1925.91H2641.71V2326.26H1876.33V1925.91Z" fill="#AD7C53"/>
<path id="fl39" d="M1875.49 1232.03H2641.71V1899.77H1875.49V1232.03Z" fill="#AD7C53"/>
<path id="fl38" d="M1875.49 854.602H2641.71V1207.6H1875.49V854.602Z" fill="#AD7C53"/>
<path id="fl37" d="M2640.21 702.845V54H1361.46V827.196L2640.37 826.485V702.845H2640.21Z" fill="#AD7C53"/>
</g>
</g>
</svg>
