<svg width="2706" height="4098" viewBox="0 0 2706 4098" fill="none" xmlns="http://www.w3.org/2000/svg">
<g id="s1_fl8">
<g id="flats">
<path id="fl70" d="M59.2363 61H1336.75V833.507H59.2363V61Z" fill="#AD7C53"/>
<path id="fl69" d="M59.2363 861.58H821.975V1796.62H59.2363V861.58Z" fill="#AD7C53"/>
<path id="fl68" d="M59.2363 1820.79H821.975V2457.18H59.2363V1820.79Z" fill="#AD7C53"/>
<path id="fl67" d="M824.74 2482.04H59.2363V3145.21H620.835V3112.32H824.74V2482.04Z" fill="#AD7C53"/>
<path id="fl66" d="M824.977 3308.72V3140.39H648.882V3173.28H59V3924.8H763.566V4096.68H995.253V3924.8H1004.71V3308.72H824.977Z" fill="#AD7C53"/>
<path id="fl65" d="M1031.67 3308.72H1671.25V3924.8H1031.67V3308.72Z" fill="#AD7C53"/>
<path id="fl64" d="M1876.34 2780.01V3308.72H1695.13V3926.43H1708.25V4094.76H1938.49V3926.43H2641.23V2780.01H1876.34Z" fill="#AD7C53"/>
<path id="fl63" d="M1877.6 2360.62H2642.5V2751.73H1877.6V2360.62Z" fill="#AD7C53"/>
<path id="fl62" d="M1878.47 1931.55H2643.37V2332.57H1878.47V1931.55Z" fill="#AD7C53"/>
<path id="fl61" d="M1877.65 862.66H2643.39V1906.72H1877.65V862.66Z" fill="#AD7C53"/>
<path id="fl60" d="M2641.89 711.002V62.5801H1363.93V835.272L2642.05 834.534V711.002H2641.89Z" fill="#AD7C53"/>
</g>
</g>
</svg>
