<svg width="2706" height="4096" viewBox="0 0 2706 4096" fill="none" xmlns="http://www.w3.org/2000/svg">
<g id="s1_fl9">
<g id="flats">
<path id="fl81" d="M63.2383 57H1341.8V830.142H63.2383V57Z" fill="#AD7C53"/>
<path id="fl80" d="M63.2383 858.236H826.603V1794.05H63.2383V858.236Z" fill="#AD7C53"/>
<path id="fl79" d="M63.2383 1818.24H826.603V2455.15H63.2383V1818.24Z" fill="#AD7C53"/>
<path id="fl78" d="M829.37 2480.03H63.2383V3143.74H625.298V3110.82H829.37V2480.03Z" fill="#AD7C53"/>
<path id="fl77" d="M829.606 3307.39V3138.92H653.366V3171.84H63V3923.98H768.145V4096H1000.02V3923.98H1009.48V3307.39H829.606Z" fill="#AD7C53"/>
<path id="fl76" d="M1036.47 3307.38H1676.57V3923.97H1036.47V3307.38Z" fill="#AD7C53"/>
<path id="fl75" d="M1881.83 2778.24V3307.39H1700.48V3925.61H1713.6V4094.08H1944.03V3925.61H2647.36V2778.24H1881.83Z" fill="#AD7C53"/>
<path id="fl74" d="M1883.09 2358.51H2648.62V2749.94H1883.09V2358.51Z" fill="#AD7C53"/>
<path id="fl73" d="M1883.97 1929.09H2649.49V2330.44H1883.97V1929.09Z" fill="#AD7C53"/>
<path id="fl72" d="M1883.14 859.318H2649.51V1904.24H1883.14V859.318Z" fill="#AD7C53"/>
<path id="fl71" d="M2648.02 707.535V58.5801H1369V831.907L2648.17 831.169V707.535H2648.02Z" fill="#AD7C53"/>
</g>
</g>
</svg>
