<svg width="2922" height="4096" viewBox="0 0 2922 4096" fill="none" xmlns="http://www.w3.org/2000/svg">
<g id="s2_fl10" clip-path="url(#clip0_4_167)">
<g id="flats">
<path id="fl268" d="M188.777 63V558.199H0V846.055H188.777V898.679H1802.54V63H188.777Z" fill="#AD7C53"/>
<path id="fl267" d="M188.749 925.849V1340.42H0V1628.31H188.749V1675.07H895.279V925.849H188.749Z" fill="#AD7C53"/>
<path id="fl266" d="M188.749 1705.31V2143.54H0V2431.39H188.749V2498.63H895.279V1705.31H188.749Z" fill="#AD7C53"/>
<path id="fl265" d="M188.749 2528.76V2993.55H0V3281.4H188.749V3310.59H895.279V2528.76H188.749Z" fill="#AD7C53"/>
<path id="fl264" d="M920.315 3056.1V3335.61H188.777V3917.07H430.696V4096H676.792V3917.07H1450.88V3056.1H920.315Z" fill="#AD7C53"/>
<path id="fl263" d="M2733.25 3381.95H2001.71V3055.97H1480.97V3917.07H2250.41V4095.97H2496.53V3917.07H2733.25V3381.95Z" fill="#AD7C53"/>
<path id="fl262" d="M2922 3050.93H2733.25V2683.61H2029.85V3351.82H2733.25V3338.79H2922V3050.93Z" fill="#AD7C53"/>
<path id="fl261" d="M2922 2331.26H2733.25V1963.5H2030.12V2653.51H2733.25V2619.12H2922V2331.26Z" fill="#AD7C53"/>
<path id="fl260" d="M2922 1267.44H2733.25V923.607H2029.88V1933.37H2733.25V1555.29H2922V1267.44Z" fill="#AD7C53"/>
<path id="fl259" d="M2922 558.199H2733.25V63H1830.67V898.568H2733.25V846.055H2922V558.199Z" fill="#AD7C53"/>
</g>
</g>
<defs>
<clipPath id="clip0_4_167">
<rect width="2922" height="4096" fill="white"/>
</clipPath>
</defs>
</svg>
