<svg width="2926" height="4096" viewBox="0 0 2926 4096" fill="none" xmlns="http://www.w3.org/2000/svg">
<g id="s2_fl15">
<g id="flats">
<path id="fl316" d="M189.016 58V553.597H0V841.831H189.016V892.573H1805.01V58H189.016Z" fill="#AD7C53"/>
<path id="fl315" d="M189.016 922.062V1336.84H0V1625.08H189.016V1672.04H894.674V922.062H189.016Z" fill="#AD7C53"/>
<path id="fl314" d="M189.016 1702.44V2140.98H0V2429.22H189.016V2496.54H896.259V1702.44H189.016Z" fill="#AD7C53"/>
<path id="fl313" d="M896.259 3054.73V2720.54H844.297V2526.83H189.016V2992.11H0V3280.34L188.431 3279.4V3916.84H431.273V4096H677.73V3916.84H1447.28V3054.73H896.259Z" fill="#AD7C53"/>
<path id="fl312" d="M2802.77 3049.56V3054.73H1478.16V3916.85H2253.5V4096H2499.96V3916.85H2736.98V3337.79H2926V3049.56H2802.77Z" fill="#AD7C53"/>
<path id="fl311" d="M2926 2328.96H2736.98V1960.97H2032.38V3029.81H2736.98V2617.19H2926V2328.96Z" fill="#AD7C53"/>
<path id="fl310" d="M2926 1263.74H2736.98V919.002H2033.41V1930.7H2736.98V1551.97H2926V1263.74Z" fill="#AD7C53"/>
<path id="fl309" d="M2926 553.597H2736.73V58H1833.19V896.134H2736.73V841.831H2926V553.597Z" fill="#AD7C53"/>
</g>
</g>
</svg>
