<svg width="2921" height="4095" viewBox="0 0 2921 4095" fill="none" xmlns="http://www.w3.org/2000/svg">
<g id="s2_fl17">
<g id="flats">
<path id="fl332" d="M188.693 64V558.738H0V846.473H188.693V897.127H1801.92V64H188.693Z" fill="#AD7C53"/>
<path id="fl331" d="M188.693 926.563V1340.63H0V1628.36H188.693V1675.24H893.145V926.563H188.693Z" fill="#AD7C53"/>
<path id="_fl330" d="M188.693 1705.59V2143.37H0V2431.11H188.693V2498.31H894.728V1705.59H188.693Z" fill="#AD7C53"/>
<path id="fl329" d="M894.728 3055.53V2721.92H842.855V2528.55H188.693V2993.02H0V3280.76L188.109 3279.81V3916.15H430.536V4095H676.572V3916.15H1444.81V3055.53H894.728Z" fill="#AD7C53"/>
<path id="fl328" d="M2797.98 3050.37V3055.54H1475.63V3916.16H2249.65V4095H2495.69V3916.16H2732.31V3338.1H2921V3050.37H2797.98Z" fill="#AD7C53"/>
<path id="fl327" d="M2921 2331.02H2732.31V1963.67H2028.91V3030.65H2732.31V2618.76H2921V2331.02Z" fill="#AD7C53"/>
<path id="fl326" d="M2921 1267.65H2732.31V923.509H2029.94V1933.45H2732.31V1555.38H2921V1267.65Z" fill="#AD7C53"/>
<path id="fl325" d="M2921 558.738H2732.06V64H1830.05V900.681H2732.06V846.473H2921V558.738Z" fill="#AD7C53"/>
</g>
</g>
</svg>
