<svg width="2745" height="4096" viewBox="0 0 2745 4096" fill="none" xmlns="http://www.w3.org/2000/svg">
<g id="s2_fl18" clip-path="url(#clip0_4_257)">
<g id="flats">
<path id="fl339" d="M1723.15 60.3031H114.217V0.541992H0.114258V933.881H114.217V920.623H1723.15V60.3031Z" fill="#AD7C53"/>
<path id="fl338" d="M787.003 948.365H114.217V936.02H0.114258V1735.81H114.217V1724.55H787.003V948.365Z" fill="#AD7C53"/>
<path id="fl337" d="M787.516 1755.14H112.82V1737.98H0.114258V2585.66H112.82V2573.78H787.516V1755.14Z" fill="#AD7C53"/>
<path id="fl336" d="M1355.86 3787.67V3149.15H787.516V2811.94H721.369V2656.77H787.516V2605.14H114.217V2587.83H0.114046V3787.67H0V4095.89H1370.4V3787.67H1355.86Z" fill="#AD7C53"/>
<path id="fl335" d="M2560.93 2745.53V2762.7H1958.91V3149.6H1387.88V3788.01H1372.54V4095.89H2560.93V4096H2745V2745.53H2560.93Z" fill="#AD7C53"/>
<path id="fl334" d="M2560.93 1289.62V1307.36H1958.17V2731.62H2560.93V2743.36H2745V1289.62H2560.93Z" fill="#AD7C53"/>
<path id="fl333" d="M2560.42 0V60.3028H1753.09V922.533H1958.68V1276.02H2560.42V1287.49H2745V0H2560.42Z" fill="#AD7C53"/>
</g>
</g>
<defs>
<clipPath id="clip0_4_257">
<rect width="2745" height="4096" fill="white"/>
</clipPath>
</defs>
</svg>
