<svg width="2875" height="4096" viewBox="0 0 2875 4096" fill="none" xmlns="http://www.w3.org/2000/svg">
<g id="s2_fl20">
<g id="flats">
<path id="fl353" d="M192.105 69V604.39H0V916.011H192.105V972.469H1808.13V69H192.105Z" fill="#AD7C53"/>
<path id="fl352" d="M192.105 999.592V1450.65H0V1762.07H192.105V1812.52H826.221V999.592H192.105Z" fill="#AD7C53"/>
<path id="fl351" d="M192.135 1845.23V2319.47H0V2630.88H192.135V2703.65H826.788V1845.23H192.135Z" fill="#AD7C53"/>
<path id="fl350" d="M826.788 3307.24V2951.02H759.099V2792.22H826.788V2736.06H192.105V2832.85H0V3144.29H192.105V3905H721.879V4096H988.155V3905H1422.58V3307.24H826.788Z" fill="#AD7C53"/>
<path id="fl349" d="M2875 2906.21H2685.73V2901.37H2055.23V3308.13H1455.29V3905H1889.68V4096H2155.99V3905H2685.73V3217.77H2875V2906.21Z" fill="#AD7C53"/>
<path id="fl348" d="M2875 2138.93H2685.73V1375.86H2054.39V2868.96H2685.73V2450.34H2875V2138.93Z" fill="#AD7C53"/>
<path id="fl347" d="M2875 604.39H2685.73V69H1838.6V971.901H2054.42V1342.34H2685.73V916.639H2875V604.39Z" fill="#AD7C53"/>
</g>
</g>
</svg>
