<svg width="3064" height="4096" viewBox="0 0 3064 4096" fill="none" xmlns="http://www.w3.org/2000/svg">
    <g id="s2_fl3">
        <g id="flats">
            <path id="fl196" d="M60.2344 68H1691.51V853.923H60.2344V68Z" fill="#AD7C53"/>
            <path id="fl195" d="M60 879.435H837.655V1919.69H60V879.435Z" fill="#AD7C53"/>
            <path id="fl194" d="M796.451 2296.36H837.681V1948.15H60V2358.65H796.451V2296.36Z" fill="#AD7C53"/>
            <path id="fl193" d="M780.768 2579.75V2435.66H837.342V2387.11H60V2747.09H837.342V2579.75H780.768Z"
                  fill="#AD7C53"/>
            <path id="fl192" d="M837.785 2775.44H319.227V2775.55H60V3196.75H642.517V3138H837.785V2775.44Z"
                  fill="#AD7C53"/>
            <path id="fl191"
                  d="M837.681 3359.6V3345.35H837.785V3166.46H717.462V3225.31H60.2349V3359.6H60V3986.97H1022.15V3359.6H837.681Z"
                  fill="#AD7C53"/>
            <path id="fl190" d="M1050.62 3359.6H1689.42V3987H1050.62V3359.6Z" fill="#AD7C53"/>
            <path id="fl189"
                  d="M2351.79 3214.02V3255.62H2109.76V3270.25H1904.55V3359.7H1717.89V3986.9H1904.55V3987H2680.03V3214.02H2351.79Z"
                  fill="#AD7C53"/>
            <path id="fl188" d="M1902.35 2532.77H2681V3185.58H1902.35V2532.77Z" fill="#AD7C53"/>
            <path id="fl187" d="M1902.35 1524.39H2680.24V2504.34H1902.35V1524.39Z" fill="#AD7C53"/>
            <path id="fl186" d="M2680.27 68H1717.89V853.819H1903.16V1495.83H2680.03V853.819H2680.27V68Z"
                  fill="#AD7C53"/>
        </g>
    </g>
</svg>
