<svg width="2706" height="4096" viewBox="0 0 2706 4096" fill="none" xmlns="http://www.w3.org/2000/svg">
<g id="s2_fl6">
<g id="flats">
<path id="fl229" d="M58.2319 60H1666.92V834.241H58.2319V60Z" fill="#AD7C53"/>
<path id="fl228" d="M58.103 861.554H824.683V1886.58H58.103V861.554Z" fill="#AD7C53"/>
<path id="fl227" d="M58 1914.64H825.018V2319.59H58V1914.64Z" fill="#AD7C53"/>
<path id="fl226" d="M768.764 2530.11V2395.56H825.018V2347.65H58V2702.77H825.018V2530.11H768.764Z" fill="#AD7C53"/>
<path id="fl225" d="M824.915 2730.83H58V3146.43H632.446V3088.35H824.915V2730.83Z" fill="#AD7C53"/>
<path id="fl224" d="M1006.85 3307.03H824.58V3116.43H706.351V3174.49H58.67V3307.03H58V3925.64H764.152V4094H992.543V3925.64H1006.85V3307.03Z" fill="#AD7C53"/>
<path id="fl223" d="M1034.91 3307.03H1664.99V3925.61H1034.91V3307.03Z" fill="#AD7C53"/>
<path id="fl222" d="M2318.19 3163.35V3202.96H2078.94V3219.42L1874.98 3218.5V3307.03H1692.92V3925.82H1707.66V4094H1936.05V3925.82H2024V3925.64H2642V3163.35H2318.19Z" fill="#AD7C53"/>
<path id="fl221" d="M1874.88 2491.2H2641.79V3135.19H1874.88V2491.2Z" fill="#AD7C53"/>
<path id="fl220" d="M1874.88 1492.09H2641.79V2463.27H1874.88V1492.09Z" fill="#AD7C53"/>
<path id="fl219" d="M1692.92 60V835.272H1875.65V1468.57H2642V60H1692.92Z" fill="#AD7C53"/>
</g>
</g>
</svg>
