<svg width="380" height="868" viewBox="0 0 380 868" fill="none" xmlns="http://www.w3.org/2000/svg">
<mask id="mask0_1161_10430" style="mask-type:alpha" maskUnits="userSpaceOnUse" x="-718" y="-116" width="2172" height="851">
<rect x="-718" y="-116" width="2172" height="851" fill="black"/>
</mask>
<g mask="url(#mask0_1161_10430)">
<path d="M-216.839 451.758C-166.89 451.758 -186.87 553.322 -134.7 582.182C-92.9646 605.269 -27.8877 543.064 8.15334 522.492C49.0431 499.152 92.6839 508.819 96.987 545.431C104.503 609.376 38.458 676.751 -0.946605 704.281C-37.5763 729.871 -97.9793 771.405 -74.206 806.955C-60.7896 827.017 31.2497 839.003 59.5479 848.024C137.989 873.031 193.302 702.061 213.836 678.1C243.763 643.18 249.891 639.115 258.236 603.272C266.581 567.429 292.244 545.449 357.933 543.064C426.955 540.557 443.049 648.375 459.144 691.516C473.019 713.161 511.438 756.719 497.519 777.339C484.632 793.834 449.373 810.433 450.61 829.403C452.157 853.115 481.597 873.219 459.144 890.23C436.692 907.241 392.36 884.56 370.71 903.633C349.059 922.706 353.698 981.987 356.791 1067.04" stroke="#E8E4E2" stroke-width="10" stroke-linecap="round" stroke-linejoin="bevel"/>
<path d="M458.035 695.111C453.595 697.331 442.495 699.107 433.615 688.451C426.955 683.183 410.86 659.549 399.76 607.157C396.43 594.022 381.002 568.529 345.926 571.637C310.85 574.745 283.211 609.192 273.776 626.027C268.227 633.612 256.461 644.897 253.797 629.357M413.635 566.642C415.485 561.092 423.514 549.438 440.83 547.218C455.774 541.79 488.447 531.245 499.581 532.482C513.5 534.028 532.057 558.257 541.336 551.556C550.615 544.854 573.812 518.049 573.812 507.224C573.812 496.398 553.708 462.376 567.626 458.768C581.544 455.159 633.093 459.799 641.856 436.602C650.619 413.405 659.898 359.794 681.549 340.206C698.869 324.535 712.822 305.84 717.633 298.451" stroke="#E8E4E2" stroke-width="4"/>
<path opacity="0.5" d="M394.211 703.727C374.826 712.759 353.342 717.069 333.716 718.359M394.211 703.727C395.876 709.092 399.205 721.709 399.205 729.257C399.205 736.805 378.851 857.057 377.926 864.457L325.073 870.643M394.211 703.727C400.402 700.843 406.517 697.056 412.476 692.628M201.072 367.955C180.537 384.605 150.568 442.88 145.017 460.64C141.685 471.301 138.754 494.965 136.823 516.139M201.072 367.955L244.362 412.046M201.072 367.955C209.547 361.084 223.316 354.023 239.922 348.177M201.072 367.955L145.017 316.31M320.951 334.656L326.501 390.76M320.951 334.656C319.101 328.551 315.956 314.898 318.176 309.126C320.951 301.911 336.491 263.616 334.271 254.736C332.051 245.856 328.166 194.242 328.166 179.812C328.166 168.268 328.166 168.899 328.166 170.658M320.951 334.656C334.853 335.452 355.216 337.785 376.451 342.245M320.951 334.656C317.109 334.566 313.241 334.599 309.367 334.744M460.81 380.72C494.109 420.68 502.989 431.78 500.769 463.969C500.039 474.565 498.286 485.883 496.282 496.714M460.81 380.72C454.216 372.808 444.495 366.116 433.06 360.492M460.81 380.72C462.283 377.299 464.076 372.844 465.867 367.955M52.8883 231.427C34.9434 259.546 -2.16726 318.117 -7.05122 327.441M52.8883 231.427C64.7282 215.147 90.0731 182.032 96.733 179.812C105.058 177.037 153.898 175.372 168.882 174.817M52.8883 231.427L-59.2206 145.957M52.8883 231.427L140.578 312.219M-7.05122 327.441C-13.1562 339.096 -36.466 331.326 -43.1259 334.656M-7.05122 327.441C-2.05622 341.871 10.4868 374.726 20.6987 390.71C30.9106 406.694 31.9836 416.175 31.2436 418.918M-43.1259 334.656C-49.7858 337.986 -57.5558 359.075 -64.7707 367.955C-69.9106 374.281 -79.5573 385.959 -84.6808 397.37M-43.1259 334.656L-148.575 297.471M-97.5153 621.588C-104.175 609.378 -113.61 537.784 -114.165 517.249C-114.72 496.714 -88.0805 425.12 -88.0805 410.69C-88.0805 406.54 -86.7492 401.977 -84.6808 397.37M-97.5153 621.588L-227.939 680.417M-97.5153 621.588L-1.22362 568.864M-97.5153 621.588C-94.5394 627.044 -86.9093 638.262 -79.131 649.499M-3.72111 786.977C-12.601 778.652 -55.3357 685.967 -58.1106 680.417C-59.2999 678.039 -65.4842 669.136 -72.6878 658.777M168.882 174.817L203.292 243.637M168.882 174.817L126.703 96.5628M168.882 174.817L140.578 312.219M168.882 174.817C181.295 174.357 243.974 169.709 281.53 168.442M509.376 204.117C497.832 185.469 473.575 168.342 464.695 163.162C452.32 159.787 432.091 168.574 413.08 174.629M343.151 456.2L380.89 510.034M343.151 456.2C338.048 456.978 330.34 458.339 323.171 459.976M343.151 456.2L347.933 446.21M291.536 480.064C294.311 476.179 300.416 471.184 305.411 466.19C306.773 464.827 310.325 463.426 314.846 462.105M291.536 480.064C289.1 483.475 281.53 490.308 278.216 499.437M291.536 480.064L244.362 412.046M263.787 544.444C266.007 550.549 276.551 552.769 282.656 572.749C288.761 592.728 299.861 611.598 299.861 617.703M263.787 544.444L226.602 579.964M263.787 544.444L221.02 526.129M263.787 544.444C262.366 540.538 267.306 529.364 271.631 518.914M299.861 617.703C299.861 623.808 280.991 670.983 280.991 677.088C280.991 683.193 275.996 706.637 275.996 712.12M299.861 617.703C304.486 628.803 313.736 652.779 313.736 659.883C313.736 668.763 321.506 709.68 333.716 718.359M275.996 712.12C273.888 711.216 272.203 710.26 271.002 709.277C258.792 699.287 197.743 670.983 186.088 661.548C174.433 652.113 153.898 643.788 150.568 633.798C147.833 625.593 138.36 587.067 135.369 563.412M275.996 712.12L248.024 864.457M275.996 712.12C279.4 713.578 283.906 714.898 289.263 715.973M248.024 864.457L325.073 870.643M248.024 864.457L186.088 884.561L88.7379 985.081M333.716 718.359C336.121 685.547 340.82 617.259 340.376 606.603C339.932 595.947 339.081 579.593 338.711 572.749L337.624 551.659M333.716 718.359L325.073 780.877M333.716 718.359L340.376 726.482M333.716 718.359C316.615 719.482 300.925 718.312 289.263 715.973M380.89 510.034L335.936 518.914L337.624 551.659M380.89 510.034L398.65 503.374M398.65 503.374L425.845 534.454M398.65 503.374C403.881 507.259 416.643 515.029 425.845 515.029C437.348 515.029 460.255 511.699 467.47 510.034C474.685 508.369 489.575 496.714 496.282 496.714M425.845 534.454C428.736 538.652 432.917 544.858 437.348 551.659M425.845 534.454L387.55 584.403L357.581 604.938M425.845 534.454C433.985 533.344 450.931 522.577 453.595 488.389C453.04 483.394 449.821 469.963 441.385 456.2C431.395 439.9 417.918 414.135 401.425 404.863M482.052 607.36C482.188 607.105 482.323 606.853 482.455 606.603C488.623 595.958 488.945 577.241 488.357 562.759M482.052 607.36C476.266 605.073 463.141 597.279 456.925 584.403C453.021 576.318 444.828 563.139 437.348 551.659M482.052 607.36L514.644 636.018M482.052 607.36C480.093 611.017 477.662 615.27 474.819 619.923M482.052 607.36L540.82 624.755L575.358 631.014M474.819 619.923L507.984 695.402M474.819 619.923C461.261 642.115 438.329 673.415 412.476 692.628M437.348 551.659C451.324 555.359 481.091 562.759 488.357 562.759M488.357 562.759C488.087 556.099 487.624 550.335 487.449 546.664C487.077 538.845 492.2 518.789 496.282 496.714M488.357 562.759C495.27 562.019 509.649 560.428 511.869 559.984M496.282 496.714L515.199 503.374M337.624 551.659C344.276 565.164 357.581 594.726 357.581 604.938M357.581 604.938C357.581 617.703 352.586 675.423 348.701 690.408C344.816 705.392 340.376 711.497 340.376 726.482M340.376 726.482C340.376 738.47 354.806 779.947 357.581 786.977V809.3L325.073 870.643M412.476 692.628C420.448 702.062 441.718 721.598 463.03 724.262C489.67 727.592 491.335 707.612 504.099 707.057L555.77 677.088L575.358 631.014M210.507 474.514C207.177 460.64 230.487 438.995 239.922 419.57C241.2 416.939 242.702 414.43 244.362 412.046M210.507 474.514C213.837 488.389 224.937 497.824 223.272 511.699M210.507 474.514C186.272 471.554 134.029 461.75 118.933 446.21C111.184 438.233 73.9649 428.16 31.2436 418.918M210.507 474.514L278.216 499.437M223.272 511.699C222.882 514.949 221.974 520.087 221.02 526.129M223.272 511.699L271.631 518.914M223.272 511.699L136.823 516.139M226.602 579.964C214.277 575.289 217.899 545.88 221.02 526.129M226.602 579.964L231.597 584.175M226.602 579.964L141.184 645.89M254.907 603.828L231.597 584.175M-21.481 771.437L84.614 689.552M231.597 584.175C226.787 592.946 216.279 611.376 212.727 614.928C208.287 619.368 188.862 650.448 188.307 671.538C187.752 692.628 152.232 715.937 143.353 722.042C134.473 728.147 105.613 762.002 105.613 771.437M271.631 518.914C274.066 513.029 276.307 507.373 277.106 503.374C277.377 502.02 277.756 500.706 278.216 499.437M136.823 516.139C135.537 530.236 134.695 543.229 134.473 550.549C134.374 553.822 134.718 558.265 135.369 563.412M136.823 516.139H95.068L-1.22362 568.864M-84.6808 397.37L-242.924 361.85M-84.6808 397.37C-54.7105 402.142 -9.26041 410.156 31.2436 418.918M244.362 412.046C248.254 406.455 253.015 401.551 257.789 397.37M31.2436 418.918C25.1387 429.68 13.4837 452.537 15.7037 457.865C-11.306 466.005 -68.5445 483.616 -81.4204 488.944C-97.5153 495.604 -116.94 482.839 -133.035 485.059C-145.911 486.835 -189.459 510.219 -209.624 521.689M257.789 397.37C266.009 390.172 274.271 385.117 278.216 382.385C279.419 381.553 281.269 381.106 283.592 380.969M257.789 397.37L239.922 348.177M239.922 348.177L203.292 243.637M239.922 348.177C247.137 345.638 254.888 343.327 262.973 341.362M203.292 243.637L145.017 316.31M323.171 459.976L314.846 412.046M323.171 459.976C320.234 460.646 317.387 461.363 314.846 462.105M314.846 412.046L326.501 390.76M314.846 412.046L294.697 409.797M326.501 390.76C328.483 391.496 330.348 392.225 332.051 392.93C341.432 396.812 356.47 397.111 370.901 398.224M326.501 390.76C312.878 385.704 293.731 380.375 283.592 380.969M328.166 170.658C318.54 169.309 309.112 168.314 300.971 168.157C296.017 168.062 289.313 168.179 281.53 168.442M328.166 170.658C352.665 174.091 378.447 179.812 387.55 179.812C395.111 179.812 403.955 177.535 413.08 174.629M294.311 111.548C297.086 146.882 302.303 219.994 300.971 229.762C299.874 237.809 292.749 244.169 291.197 251.542M294.866 264.171C303.746 275.271 319.656 282.116 326.501 284.151L378.328 293.031M294.866 264.171L242.353 276.286L262.973 341.362M294.866 264.171L309.367 334.744M294.866 264.171C291.082 259.441 290.394 255.356 291.197 251.542M370.901 398.224L376.451 342.245M370.901 398.224C379.517 398.889 387.916 399.844 394.765 402.024M370.901 398.224L347.933 446.21M376.451 342.245C396.042 346.361 416.376 352.288 433.06 360.492M376.451 342.245C376.451 331.326 376.891 311.457 378.328 293.031M387.55 96.0078C387.366 106.153 387.157 120.122 387.009 134.857M413.08 174.629C418.63 189.425 413.635 202.012 413.08 212.557C412.525 223.102 424.18 265.836 429.73 278.601C434.656 289.931 461.878 311.753 471.043 324.666M413.08 173.152L387.009 134.857M387.009 134.857C386.712 164.459 386.661 197.149 387.55 208.117C389.215 228.652 387.55 238.087 382.001 264.171C380.358 271.891 379.171 282.212 378.328 293.031M394.765 402.024C396.125 402.457 397.423 402.938 398.65 403.475C399.585 403.884 400.51 404.348 401.425 404.863M394.765 402.024L433.06 360.492M433.06 360.492C441.547 349.105 461.026 325.998 471.043 324.666M471.043 324.666C472.204 326.302 473.075 327.795 473.575 329.106C476.214 336.035 471.049 353.813 465.867 367.955M347.933 446.21C349.715 448.981 352.033 452.515 354.516 456.2M354.516 456.2C361.15 466.045 368.962 476.966 370.901 477.289C374.231 477.844 409.902 463.524 423.625 461.75C437.348 459.976 454.15 453.98 460.81 446.21C467.47 438.44 497.439 409.58 506.319 408.47C517.82 400.263 543.707 380.67 555.254 367.955M354.516 456.2C359.977 454.35 371.456 449.762 373.676 446.21C375.896 442.658 393.1 417.165 401.425 404.863M140.578 312.219L145.017 316.31M283.592 380.969L262.973 341.362M283.592 380.969L294.697 409.797M262.973 341.362C277.734 337.773 293.607 335.333 309.367 334.744M314.846 462.105L294.697 409.797M291.197 251.542C289.178 247.847 284.829 238.318 283.592 229.762C282.355 221.206 281.702 185.317 281.53 168.442M135.369 563.412C132.496 564.677 128.696 566.195 124.307 567.748M-1.22362 568.864C4.03251 566.376 11.3392 565.988 19.6625 566.705M124.307 567.748C109.676 572.925 88.4999 578.485 73.2732 576.299C56.8065 573.936 36.2223 568.132 19.6625 566.705M124.307 567.748L100.186 641.766M84.614 689.552L141.184 645.89M84.614 689.552L100.186 641.766M141.184 645.89L100.186 641.766M19.6625 566.705C15.0231 581.416 2.54834 612.384 -10.2357 618.569C-23.0198 624.755 -61.4926 641.766 -79.131 649.499M-79.131 649.499C-76.9622 652.632 -74.7819 655.766 -72.6878 658.777M-72.6878 658.777C-111.839 675.101 -196.533 715.893 -222.101 748.472M555.254 367.955C566.598 355.464 605.006 334.004 627.938 320.634M555.254 367.955L581.544 397.37L577.768 418.918M555.254 367.955H465.867M687.219 264.171C677.081 276.801 653.918 304.019 642.371 311.854C639.282 313.951 634.184 316.992 627.938 320.634M627.938 320.634C640.997 335.234 667.321 366.599 668.146 375.259C669.177 386.084 666.599 479.96 673.816 499.437M820.73 703.727L700.106 653.622L575.358 631.014M325.073 870.643L289.263 715.973M613.504 563.412L575.358 631.014M571.234 456.2L577.768 418.918M633.093 426.808L577.768 418.918" stroke="#E8E4E2" stroke-linecap="round" stroke-linejoin="bevel"/>
<path d="M387.55 584.403L357.58 604.938L340.375 606.603L299.861 617.703L254.906 603.828L231.596 584.175L226.601 579.963C214.276 575.288 217.898 545.88 221.019 526.129C221.974 520.087 222.881 514.949 223.271 511.699C224.936 497.824 213.836 488.389 210.506 474.514C207.176 460.639 230.486 438.995 239.921 419.57C241.199 416.939 242.701 414.43 244.361 412.045C248.254 406.455 253.014 401.551 257.789 397.37C266.009 390.172 274.27 385.117 278.216 382.385C279.418 381.553 281.269 381.105 283.592 380.969C293.731 380.375 312.877 385.704 326.5 390.76C328.482 391.496 330.347 392.225 332.05 392.93C341.432 396.812 356.47 397.111 370.9 398.224C379.516 398.889 387.916 399.844 394.765 402.024C396.124 402.457 397.423 402.938 398.65 403.475C399.584 403.884 400.509 404.348 401.425 404.863C417.917 414.135 431.394 439.9 441.384 456.199C449.82 469.963 453.039 483.394 453.594 488.389C450.93 522.577 433.984 533.344 425.845 534.454L387.55 584.403Z" stroke="#E8E4E2" stroke-width="2" stroke-linecap="round" stroke-linejoin="bevel"/>
<g opacity="0.4">
<path d="M-45.2888 359.279C-37.8658 355.155 -16.0779 351.375 -6.11178 350L6.25993 371.651L-9.2047 404.642L-67.9703 389.693C-66.4238 385.053 -54.5676 364.434 -45.2888 359.279Z" fill="#E8E4E2"/>
<path d="M196.475 297.42L188.227 291.235L173.278 308.246L176.886 310.308L178.948 308.246L181.526 310.308L178.948 312.885L181.526 315.462L196.475 297.42Z" fill="#E8E4E2"/>
<path d="M271.22 305.668H268.643L267.097 304.637H263.488H261.426L260.395 306.699V308.246L263.488 312.885C263.66 313.229 264.21 314.019 265.035 314.431C265.859 314.844 266.066 315.291 266.066 315.462L268.643 319.586C268.987 319.93 269.983 320.617 271.22 320.617L272.767 318.555L276.112 318.04L279.468 320.617L280.499 319.586V318.555C280.327 317.868 279.881 316.287 279.468 315.462C279.056 314.638 279.296 314.088 279.468 313.916C279.296 312.885 278.85 310.72 278.437 310.308C278.025 309.895 277.235 308.761 276.891 308.246L275.344 305.668H271.22Z" fill="#E8E4E2"/>
<path d="M311.429 287.626L320.192 294.327L313.49 312.885L317.099 331.443H310.913L304.212 297.42L311.429 287.626Z" fill="#E8E4E2"/>
<path d="M317.614 267.522L323.285 270.615C324.144 270.1 326.378 267.934 328.44 263.398C331.017 257.728 329.986 253.604 329.986 251.026C329.986 248.449 320.707 242.779 317.614 240.201C314.521 237.624 312.46 235.562 311.429 237.108C310.604 238.346 306.736 243.466 304.905 245.872L299.572 244.841L300.088 245.872L297.51 252.057L296.479 254.635L294.417 256.181V260.305H297.51L301.119 258.243L309.367 269.069L313.49 265.976L314.521 269.069L317.614 267.522Z" fill="#E8E4E2"/>
<path d="M324.316 173.188L301.119 172.157L302.15 198.447L316.068 196.9V188.137L325.347 187.106L324.316 173.188Z" fill="#E8E4E2"/>
<path d="M401.123 285.564L383.081 281.956L379.473 301.544L396.484 303.606L401.123 285.564Z" fill="#E8E4E2"/>
<path d="M483.601 708.264L492.88 704.14L488.241 695.892C487.038 693.487 484.426 688.675 483.601 688.675C482.57 688.675 479.477 687.129 478.962 687.129C478.55 687.129 477.415 685.754 476.9 685.067C476.556 684.895 475.56 684.551 474.323 684.551H471.745H470.714H468.137V682.49L462.466 680.428C464.116 686.201 477.244 701.391 483.601 708.264Z" fill="#E8E4E2"/>
<path d="M338.749 520.111L368.648 514.956H375.864L372.772 536.607L339.265 535.576L338.749 520.111Z" fill="#E8E4E2"/>
<path d="M278.437 543.308L296.995 492.275L291.84 489.697L283.077 498.976L271.22 542.277L278.437 543.308Z" fill="#E8E4E2"/>
<path d="M325.862 530.421L321.223 516.503L307.305 536.607L281.53 546.401L273.798 544.854L279.984 552.071L314.006 537.638L325.862 530.421Z" fill="#E8E4E2"/>
<path d="M256.271 702.594L222.249 685.067L193.382 742.802L169.154 782.494L126.884 840.229L112.966 849.508L132.039 878.89L183.072 817.032L218.125 774.246L266.066 718.058L270.19 711.872L256.271 702.594Z" fill="#E8E4E2"/>
<path d="M226.889 673.726L251.116 686.613L275.344 639.704L268.643 636.096L226.889 673.726Z" fill="#E8E4E2"/>
<path d="M118.121 714.45L115.543 698.985L107.811 702.594V708.779L101.11 711.872H92.3463L111.419 735.585L122.245 722.182L118.121 714.45Z" fill="#E8E4E2"/>
<path d="M27.3949 726.306L10.8993 706.717L-23.1229 728.368L-2.50336 753.111L27.3949 726.306Z" fill="#E8E4E2"/>
<path d="M91.3154 680.428L132.039 647.436L102.656 644.343L91.3154 680.428Z" fill="#E8E4E2"/>
<path d="M-3.53434 487.12L-25.1848 490.213L-32.4016 501.038L-19.5145 523.204L8.32188 506.193L-3.53434 487.12Z" fill="#E8E4E2"/>
<path d="M292.355 589.186L316.068 572.175L312.975 566.505L290.294 581.969L292.355 589.186Z" fill="#E8E4E2"/>
<path d="M188.227 420.106L180.495 407.735L172.247 415.982L180.495 427.323L188.227 420.106Z" fill="#E8E4E2"/>
<path d="M251.116 353.608L264.519 348.454L272.767 363.918L265.55 369.073L255.24 367.527L251.116 353.608Z" fill="#E8E4E2"/>
<path d="M277.922 373.712L273.798 367.527L267.612 372.166L270.19 378.352L277.922 373.712Z" fill="#E8E4E2"/>
<path d="M38.2201 427.839L31.5188 426.292L18.6316 456.706L25.333 455.675L38.2201 427.839Z" fill="#E8E4E2"/>
<path d="M109.873 480.418L112.966 463.407L113.997 447.427H104.718L100.594 474.748L88.7379 469.593L82.0366 478.872L103.172 491.759L109.873 480.418Z" fill="#E8E4E2"/>
<path d="M29.9724 206.179L53.1693 223.706L59.3551 203.602L49.5609 199.478L42.344 179.374L29.9724 192.776V206.179Z" fill="#E8E4E2"/>
<path d="M18.1161 145.351C16.879 141.64 2.82334 133.839 -4.04983 130.402L-2.50336 168.548L-12.2976 174.734L3.167 186.075C4.19798 182.81 7.70329 174.94 13.4767 169.579C20.6936 162.878 19.6626 149.991 18.1161 145.351Z" fill="#E8E4E2"/>
<path d="M241.838 861.879L238.229 849.508L218.125 853.116L222.249 868.065L241.838 861.879Z" fill="#E8E4E2"/>
<path d="M254.209 951.059C262.457 956.007 274.829 948.997 279.984 944.873L257.302 903.118L245.962 911.366C245.274 922.535 245.962 946.11 254.209 951.059Z" fill="#E8E4E2"/>
<path d="M673.816 714.965L689.281 678.881L658.352 668.056L637.732 670.633L632.062 683.005L673.816 714.965Z" fill="#E8E4E2"/>
<path d="M520.716 530.936L515.562 514.956L498.55 511.863L495.458 525.781L520.716 530.936Z" fill="#E8E4E2"/>
<path d="M687.219 393.301L672.785 379.383L674.847 404.642L687.219 393.301Z" fill="#E8E4E2"/>
<path d="M684.126 417.529L674.847 411.343V427.839L684.126 417.529Z" fill="#E8E4E2"/>
<path d="M665.568 444.85V379.383L647.526 435.055L665.568 444.85Z" fill="#E8E4E2"/>
<path d="M722.272 370.62L742.892 352.577L760.934 374.228L749.077 399.487H737.737V385.053L722.272 370.62Z" fill="#E8E4E2"/>
<path d="M515.562 387.115L510.407 370.62L498.55 379.383L503.19 401.549L512.984 399.487L515.562 387.115Z" fill="#E8E4E2"/>
</g>
<path d="M-7.05028 327.441C-2.16632 318.117 34.9444 259.547 52.8892 231.427C64.7291 215.147 90.074 182.032 96.7339 179.812C105.059 177.037 153.898 175.372 168.883 174.817C183.868 174.262 272.112 167.602 300.972 168.157C309.113 168.314 318.541 169.31 328.167 170.658C352.666 174.091 378.448 179.812 387.551 179.812C395.111 179.812 403.956 177.535 413.081 174.629C432.092 168.574 452.321 159.787 464.696 163.162C473.576 168.342 497.316 184.955 508.86 203.603C521.576 221.817 549.893 260.513 561.44 269.585C575.874 280.926 625.36 311.34 628.969 321.649C632.577 331.959 647.011 346.393 649.073 355.672C651.135 364.95 643.402 395.364 640.31 403.612C637.217 411.86 633.608 422.685 628.969 444.851C624.156 465.47 660.414 486.09 671.239 496.715C682.064 507.339 701.137 540.732 704.23 562.759C707.323 584.787 691.858 619.924 695.467 643.829C699.075 667.735 765.573 748.473 767.119 758.267C768.666 768.062 748.046 775.794 676.394 812.909C604.741 850.024 577.42 869.613 539.274 904.666C508.757 932.708 474.323 938.001 460.92 937.142C421.915 931.299 339.987 919.099 324.316 917.037C304.727 914.46 286.17 959.307 261.942 957.761C237.714 956.215 180.495 922.192 154.72 904.666C128.946 887.139 120.183 866.52 106.264 842.807C95.13 823.837 24.302 786.791 -9.72018 770.639C-18.6001 762.314 -55.3347 685.968 -58.1097 680.418C-60.8847 674.868 -90.8544 633.798 -97.5143 621.588C-104.174 609.379 -113.609 537.784 -114.164 517.249C-114.719 496.715 -88.0795 425.12 -88.0795 410.69C-88.0795 406.54 -86.7483 401.977 -84.6799 397.37C-79.5563 385.96 -69.9097 374.282 -64.7697 367.956C-57.5548 359.076 -49.7849 337.986 -43.1249 334.656C-36.465 331.326 -13.1552 339.096 -7.05028 327.441Z" stroke="#E8E4E2" stroke-width="2" stroke-linecap="round" stroke-linejoin="bevel"/>
<path d="M482.455 606.603C482.323 606.853 482.188 607.105 482.052 607.36M271.002 709.277C272.203 710.26 273.888 711.216 275.996 712.12M320.951 334.656C319.101 328.551 315.956 314.898 318.176 309.126C320.951 301.911 336.491 263.616 334.271 254.736C332.051 245.856 328.166 194.242 328.166 179.812C328.166 168.268 328.166 168.899 328.166 170.658M460.81 380.72C466.545 367.4 477.127 338.43 473.575 329.106C473.075 327.795 472.204 326.302 471.043 324.666M291.536 480.064L244.362 412.046L201.072 367.955L145.017 316.31L140.578 312.219L52.8883 231.427L-59.2206 145.957M275.996 712.12C275.996 706.637 280.991 683.193 280.991 677.088C280.991 670.983 299.861 623.808 299.861 617.703C299.861 611.598 288.761 592.728 282.656 572.749C281.34 568.441 279.818 564.959 278.216 562.085C272.391 551.631 265.528 549.233 263.787 544.444L226.602 579.964L231.597 584.175C226.787 592.946 216.279 611.376 212.727 614.928C208.287 619.368 188.862 650.448 188.307 671.538C187.752 692.628 152.232 715.937 143.353 722.042C134.473 728.147 11.9302 878.734 11.9302 888.169M275.996 712.12L132.554 883.87M82.0365 944.357L121.645 896.933M398.65 503.374L380.89 510.034L335.936 518.914L337.624 551.659L338.711 572.749C339.081 579.594 339.932 595.947 340.376 606.603C340.82 617.259 336.121 685.547 333.716 718.359L324.831 781.747V990.751M398.65 503.374L425.845 534.454C428.736 538.652 432.917 544.858 437.348 551.659M398.65 503.374C403.881 507.259 416.643 515.029 425.845 515.029C437.348 515.029 460.255 511.699 467.47 510.034C474.685 508.369 489.575 496.714 496.282 496.714L515.199 503.374H526.902L556.801 565.989M482.052 607.36C476.266 605.073 463.141 597.279 456.925 584.404C453.021 576.318 444.828 563.14 437.348 551.659M482.052 607.36L514.644 636.018L563.987 686.614M482.052 607.36C480.97 609.379 479.744 611.58 478.385 613.93C477.282 615.836 476.092 617.839 474.819 619.923L527.418 745.379L528.964 821.156M437.348 551.659C451.324 555.359 481.091 562.759 488.357 562.759C494.332 561.602 507.52 559.494 512.469 560.319C518.654 561.35 538.243 569.22 556.801 565.989M271.631 518.914L223.272 511.699L136.823 516.139H95.068L-1.22362 568.864L-97.5153 621.588L-227.939 680.418M-242.924 361.85L-84.6808 397.37C-54.7105 402.142 -9.26041 410.156 31.2436 418.918C73.9649 428.16 111.184 438.233 118.933 446.21C134.029 461.75 186.272 471.555 210.507 474.514L278.216 499.437M257.789 397.37L239.922 348.177L203.292 243.637L168.882 174.817L126.703 96.5628M294.311 111.548C297.086 146.882 302.303 219.994 300.971 229.762C299.874 237.809 292.749 244.169 291.197 251.542C290.394 255.356 291.082 259.441 294.866 264.171L309.367 334.744M376.451 342.245C376.451 331.326 376.891 311.457 378.328 293.031C379.171 282.212 380.358 271.891 382.001 264.171C387.55 238.087 389.215 228.652 387.55 208.117C386.661 197.149 386.712 164.459 387.009 134.857M387.55 96.0078C387.366 106.153 387.157 120.122 387.009 134.857M413.08 174.629C418.63 189.425 413.635 202.012 413.08 212.557C412.525 223.102 424.18 265.836 429.73 278.601C434.656 289.931 461.878 311.753 471.043 324.666M413.08 173.152L387.009 134.857M471.043 324.666C461.026 325.998 441.547 349.105 433.06 360.493L394.765 402.024C396.125 402.457 397.423 402.938 398.65 403.475C399.585 403.884 400.51 404.348 401.425 404.863C393.1 417.165 375.896 442.658 373.676 446.21C369.766 449.193 360.503 455.263 354.729 455.675M471.043 324.666L569.172 257.212L621.237 192.261M556.801 565.989C575.358 562.759 597.524 562.897 611.958 564.443C623.505 565.68 685.844 554.649 715.571 548.978L800.626 519.08M748.046 822.702L645.464 752.789M528.964 821.156L548.037 940.233M528.964 821.156L645.464 752.789M132.554 883.87L101.489 1024.26M132.554 883.87L121.645 896.933M121.645 896.933C90.5718 903.29 63.479 911.572 44.9214 910.335M645.464 752.789L594.947 718.359L563.987 686.614M563.987 686.614L548.037 697.954L641.856 924.769" stroke="#E8E4E2" stroke-width="2" stroke-linecap="round" stroke-linejoin="bevel"/>
<path d="M147.978 554.109C147.939 554.556 147.819 554.931 147.619 555.234C147.416 555.536 147.142 555.757 146.796 555.897C146.45 556.036 146.042 556.085 145.572 556.043L142.795 555.798C142.325 555.757 141.932 555.637 141.616 555.439C141.297 555.241 141.065 554.976 140.922 554.643C140.775 554.31 140.721 553.919 140.76 553.472C140.799 553.031 140.919 552.667 141.121 552.381C141.323 552.095 141.609 551.885 141.981 551.751C142.349 551.614 142.807 551.553 143.355 551.568L143.24 552.872C142.982 552.869 142.767 552.894 142.596 552.948C142.425 552.998 142.293 553.076 142.202 553.182C142.108 553.288 142.054 553.423 142.039 553.585C142.024 553.757 142.049 553.907 142.112 554.037C142.173 554.167 142.271 554.27 142.408 554.348C142.542 554.425 142.709 554.472 142.911 554.49L145.688 554.735C145.889 554.753 146.062 554.735 146.207 554.683C146.352 554.63 146.468 554.546 146.553 554.429C146.635 554.312 146.684 554.168 146.699 553.996C146.713 553.834 146.685 553.692 146.614 553.572C146.543 553.448 146.428 553.346 146.268 553.267C146.106 553.184 145.897 553.123 145.642 553.084L145.757 551.781C146.299 551.864 146.741 552.005 147.083 552.201C147.422 552.398 147.665 552.655 147.814 552.972C147.962 553.289 148.017 553.668 147.978 554.109ZM141.274 548.479L141.349 547.632L148.615 546.058L148.499 547.376L143.651 548.262L148.269 549.983L148.153 551.296L141.274 548.479ZM145.936 549.87L146.185 547.044L147.391 547.151L147.142 549.977L145.936 549.87ZM147.479 544.997L147.488 544.885C147.51 544.642 147.398 544.444 147.154 544.292C146.909 544.14 146.543 544.042 146.057 543.999L141.704 543.615L141.811 542.399L145.906 542.76C146.467 542.81 146.94 542.917 147.324 543.082C147.709 543.243 147.996 543.473 148.185 543.77C148.375 544.065 148.45 544.431 148.411 544.869L148.393 545.078L147.479 544.997ZM147.471 545.085L147.576 543.888L150.164 544.117L150.058 545.313L147.471 545.085ZM147.471 545.085L147.921 539.987L149.142 540.095L148.692 545.193L147.471 545.085ZM147.849 540.8L147.955 539.603L150.542 539.832L150.437 541.028L147.849 540.8ZM141.932 541.027L142.044 539.758L149.116 540.382L149.004 541.652L141.932 541.027ZM141.776 542.798L141.983 540.453L143.204 540.561L142.997 542.906L141.776 542.798ZM149.555 536.25C149.515 536.694 149.395 537.074 149.194 537.389C148.99 537.705 148.719 537.937 148.383 538.087C148.046 538.237 147.66 538.293 147.226 538.255L144.278 537.995C143.844 537.956 143.474 537.834 143.168 537.627C142.86 537.42 142.634 537.144 142.492 536.798C142.349 536.452 142.297 536.057 142.337 535.613C142.376 535.165 142.496 534.784 142.697 534.468C142.898 534.153 143.169 533.92 143.509 533.77C143.846 533.62 144.231 533.564 144.666 533.603L147.613 533.863C148.048 533.901 148.418 534.024 148.723 534.23C149.028 534.437 149.254 534.713 149.4 535.06C149.542 535.406 149.594 535.802 149.555 536.25ZM148.285 536.138C148.301 535.956 148.278 535.794 148.215 535.651C148.149 535.508 148.05 535.395 147.917 535.311C147.784 535.227 147.623 535.177 147.435 535.161L144.604 534.911C144.419 534.895 144.254 534.916 144.108 534.975C143.963 535.034 143.847 535.128 143.76 535.258C143.67 535.387 143.617 535.543 143.601 535.724C143.585 535.906 143.61 536.068 143.676 536.211C143.739 536.351 143.837 536.462 143.97 536.546C144.103 536.63 144.262 536.68 144.447 536.696L147.277 536.946C147.466 536.962 147.632 536.941 147.778 536.882C147.924 536.823 148.042 536.731 148.131 536.605C148.218 536.475 148.269 536.319 148.285 536.138ZM148.648 531.861L148.794 530.203C148.814 529.976 148.773 529.796 148.67 529.663C148.568 529.526 148.415 529.449 148.21 529.431L147.729 529.388C147.583 529.375 147.456 529.394 147.347 529.443C147.235 529.488 147.146 529.564 147.082 529.669C147.017 529.772 146.978 529.899 146.964 530.051L146.819 531.7L145.618 531.594L145.762 529.96C145.78 529.752 145.738 529.587 145.634 529.463C145.528 529.336 145.369 529.263 145.158 529.245L144.779 529.211C144.594 529.195 144.446 529.241 144.335 529.349C144.222 529.453 144.156 529.609 144.137 529.816L143.993 531.451L142.787 531.344L142.938 529.627C142.973 529.238 143.068 528.912 143.226 528.648C143.38 528.384 143.59 528.191 143.855 528.071C144.121 527.951 144.432 527.906 144.788 527.938L145.168 527.971C145.411 527.993 145.622 528.059 145.802 528.169C145.982 528.28 146.125 528.431 146.233 528.624C146.337 528.816 146.398 529.04 146.418 529.297C146.478 529.028 146.581 528.802 146.728 528.619C146.872 528.435 147.05 528.302 147.263 528.22C147.477 528.134 147.72 528.103 147.992 528.127L148.478 528.17C148.838 528.202 149.14 528.3 149.384 528.466C149.624 528.631 149.799 528.857 149.907 529.144C150.016 529.432 150.053 529.768 150.019 530.154L149.859 531.968L148.648 531.861ZM142.731 531.981L142.843 530.712L149.915 531.336L149.803 532.606L142.731 531.981ZM150.554 524.927C150.515 525.372 150.395 525.752 150.193 526.067C149.989 526.382 149.719 526.615 149.382 526.765C149.045 526.915 148.659 526.971 148.225 526.933L145.277 526.672C144.843 526.634 144.473 526.512 144.168 526.305C143.859 526.098 143.634 525.821 143.491 525.476C143.348 525.13 143.297 524.735 143.336 524.29C143.375 523.843 143.496 523.461 143.697 523.146C143.898 522.83 144.168 522.598 144.508 522.448C144.845 522.298 145.231 522.242 145.665 522.28L148.613 522.54C149.047 522.579 149.417 522.701 149.722 522.908C150.028 523.115 150.253 523.391 150.399 523.737C150.542 524.083 150.593 524.48 150.554 524.927ZM149.284 524.815C149.3 524.634 149.277 524.472 149.215 524.329C149.149 524.186 149.049 524.072 148.916 523.989C148.783 523.905 148.622 523.855 148.434 523.838L145.604 523.589C145.419 523.572 145.253 523.594 145.108 523.653C144.962 523.712 144.846 523.806 144.759 523.936C144.669 524.065 144.616 524.22 144.6 524.402C144.584 524.584 144.609 524.746 144.675 524.889C144.738 525.028 144.836 525.14 144.969 525.224C145.102 525.307 145.261 525.357 145.446 525.374L148.277 525.623C148.465 525.64 148.632 525.619 148.778 525.56C148.923 525.501 149.041 525.408 149.13 525.282C149.217 525.153 149.268 524.997 149.284 524.815ZM143.73 520.659L143.842 519.389L150.914 520.014L150.802 521.283L143.73 520.659ZM149.616 520.669L149.919 517.235L151.15 517.343L150.847 520.777L149.616 520.669ZM146.717 520.413L146.986 517.368L148.216 517.477L147.948 520.521L146.717 520.413ZM143.774 520.153L144.078 516.719L145.308 516.828L145.005 520.262L143.774 520.153ZM147.803 511.054L144.712 509.536L144.834 508.15L148.743 510.181L147.803 511.054ZM148.551 511.135L148.046 509.963L151.932 508.477L151.803 509.946L148.551 511.135ZM144.436 512.654L144.548 511.384L151.621 512.008L151.509 513.278L144.436 512.654ZM147.433 512.359L147.626 510.171L148.847 510.278L148.654 512.467L147.433 512.359ZM152.251 505.697C152.212 506.141 152.092 506.521 151.891 506.837C151.686 507.152 151.416 507.385 151.079 507.535C150.742 507.685 150.357 507.741 149.922 507.702L146.975 507.442C146.54 507.404 146.17 507.281 145.865 507.075C145.557 506.868 145.331 506.591 145.188 506.245C145.046 505.899 144.994 505.504 145.033 505.06C145.073 504.613 145.193 504.231 145.394 503.915C145.595 503.6 145.865 503.367 146.205 503.217C146.542 503.067 146.928 503.012 147.362 503.05L150.31 503.31C150.744 503.348 151.114 503.471 151.42 503.678C151.725 503.884 151.95 504.161 152.096 504.507C152.239 504.853 152.291 505.25 152.251 505.697ZM150.982 505.585C150.998 505.403 150.974 505.241 150.912 505.098C150.846 504.955 150.747 504.842 150.613 504.758C150.48 504.675 150.32 504.625 150.132 504.608L147.301 504.358C147.116 504.342 146.951 504.363 146.805 504.422C146.659 504.481 146.543 504.576 146.457 504.705C146.367 504.835 146.314 504.99 146.298 505.172C146.282 505.353 146.307 505.516 146.372 505.659C146.435 505.798 146.533 505.91 146.666 505.993C146.799 506.077 146.958 506.127 147.143 506.143L149.974 506.393C150.162 506.41 150.329 506.389 150.475 506.329C150.621 506.27 150.738 506.178 150.828 506.052C150.914 505.922 150.966 505.767 150.982 505.585ZM151.262 502.189C151.276 502.023 151.25 501.88 151.182 501.76C151.114 501.636 151.007 501.539 150.86 501.467C150.713 501.395 150.529 501.349 150.308 501.33L145.473 500.903L145.586 499.634L150.518 500.069C150.981 500.11 151.365 500.219 151.67 500.396C151.975 500.57 152.197 500.811 152.337 501.117C152.473 501.42 152.523 501.782 152.486 502.204L152.478 502.296L151.262 502.189ZM145.713 498.194L145.825 496.925L152.897 497.549L152.785 498.818L145.713 498.194ZM145.541 500.14L145.765 497.601L146.986 497.708L146.762 500.247L145.541 500.14ZM151.873 495.214L152.018 493.565C152.031 493.422 152.009 493.296 151.953 493.187C151.895 493.074 151.808 492.983 151.693 492.914C151.575 492.844 151.435 492.803 151.273 492.788L150.991 492.764C150.822 492.749 150.674 492.765 150.545 492.812C150.414 492.856 150.311 492.929 150.237 493.03C150.159 493.131 150.114 493.253 150.102 493.396L149.956 495.045L148.735 494.937L148.889 493.196C148.923 492.807 149.031 492.476 149.212 492.205C149.393 491.933 149.634 491.732 149.936 491.602C150.236 491.471 150.58 491.423 150.969 491.458L151.528 491.507C151.911 491.541 152.238 491.648 152.509 491.829C152.781 492.01 152.98 492.251 153.107 492.553C153.235 492.852 153.281 493.194 153.247 493.58L153.093 495.322L151.873 495.214ZM145.967 495.31L146.079 494.041L153.151 494.665L153.039 495.934L145.967 495.31ZM146.725 486.839L146.837 485.569L153.899 486.192L153.787 487.462L146.725 486.839ZM152.369 489.587L152.684 486.021L153.905 486.129L153.59 489.694L152.369 489.587ZM152.637 486.547L152.745 485.326L155.576 485.576L155.468 486.797L152.637 486.547ZM146.451 489.824L146.563 488.555L153.636 489.179L153.523 490.448L146.451 489.824ZM154.328 482.167C154.289 482.611 154.169 482.991 153.968 483.307C153.763 483.622 153.493 483.855 153.156 484.005C152.819 484.155 152.434 484.211 151.999 484.172L149.052 483.912C148.617 483.874 148.247 483.751 147.942 483.545C147.633 483.338 147.408 483.061 147.265 482.715C147.122 482.369 147.071 481.974 147.11 481.53C147.149 481.083 147.27 480.701 147.471 480.385C147.672 480.07 147.942 479.837 148.282 479.687C148.619 479.537 149.005 479.482 149.439 479.52L152.387 479.78C152.821 479.818 153.191 479.941 153.496 480.148C153.802 480.354 154.027 480.631 154.173 480.977C154.316 481.323 154.367 481.72 154.328 482.167ZM153.058 482.055C153.074 481.873 153.051 481.711 152.989 481.568C152.923 481.425 152.823 481.312 152.69 481.228C152.557 481.145 152.396 481.095 152.208 481.078L149.378 480.828C149.193 480.812 149.028 480.833 148.882 480.892C148.736 480.951 148.62 481.046 148.533 481.175C148.443 481.305 148.391 481.46 148.374 481.642C148.358 481.823 148.383 481.986 148.449 482.129C148.512 482.268 148.61 482.38 148.743 482.463C148.876 482.547 149.035 482.597 149.22 482.613L152.051 482.863C152.239 482.88 152.406 482.858 152.552 482.799C152.697 482.74 152.815 482.648 152.904 482.522C152.991 482.392 153.042 482.237 153.058 482.055Z" fill="#F9F5F3"/>
</g>
<rect width="380" height="321" transform="matrix(1 0 0 -1 0 868)" fill="url(#paint0_linear_1161_10430)"/>
<rect width="380" height="188" transform="matrix(1 0 0 -1 0 735)" fill="url(#paint1_linear_1161_10430)"/>
<path d="M157.298 343.813H50.0765V381.518H99.5633L102.656 385.052L105.749 381.518H157.298V343.813Z" fill="#393D46"/>
<path d="M67.2493 358.38C67.2456 357.49 66.8975 356.639 66.281 356.012C65.6645 355.384 64.83 355.032 63.96 355.032H61.98V361.725H63.934C64.3646 361.726 64.7912 361.641 65.1894 361.473C65.5876 361.305 65.9495 361.059 66.2543 360.748C66.5592 360.438 66.801 360.068 66.9659 359.662C67.1308 359.255 67.2156 358.82 67.2153 358.38H67.2493ZM66.5627 363.744L69.5657 372.399H66.6527L63.8319 364.378H61.986V372.399H59.3553V352.348H63.94C65.2705 352.34 66.5642 352.793 67.6096 353.635C68.655 354.476 69.3902 355.654 69.6948 356.978C69.9994 358.302 69.8554 359.692 69.2865 360.921C68.7175 362.15 67.7572 363.145 66.5627 363.744Z" fill="#F9F5F3"/>
<path d="M81.4778 352.35H71.5337V372.397H81.4778V369.716H74.1644V364.378H80.8271V361.725H74.1644V355.032H81.4778V352.35Z" fill="#F9F5F3"/>
<path d="M91.0535 358.38C91.0493 357.492 90.7017 356.642 90.0867 356.015C89.4716 355.388 88.6389 355.034 87.7701 355.032H85.7821V361.725H87.7361C88.1666 361.726 88.5932 361.64 88.9912 361.472C89.3893 361.305 89.7511 361.059 90.0559 360.748C90.3607 360.437 90.6025 360.068 90.7675 359.662C90.9325 359.255 91.0174 358.82 91.0174 358.38H91.0535ZM87.7701 364.378H85.7821V372.399H83.1595V352.348H87.7441C88.5168 352.346 89.2823 352.5 89.9968 352.801C90.7113 353.101 91.3609 353.543 91.9085 354.1C92.4561 354.657 92.8909 355.319 93.1882 356.048C93.4855 356.777 93.6394 357.558 93.6411 358.348C93.6428 359.137 93.4923 359.92 93.1982 360.65C92.9041 361.38 92.4721 362.044 91.9269 362.604C91.3818 363.163 90.7341 363.608 90.0209 363.911C89.3076 364.215 88.5428 364.373 87.7701 364.374" fill="#F9F5F3"/>
<path d="M105.885 367.331C105.885 368.75 105.333 370.111 104.351 371.114C103.369 372.117 102.038 372.681 100.649 372.681C99.2607 372.681 97.9291 372.117 96.9473 371.114C95.9655 370.111 95.4139 368.75 95.4139 367.331C95.4139 362.326 95.4399 357.348 95.4399 352.344H98.0426V367.331C98.0614 368.027 98.3455 368.689 98.8343 369.175C99.3232 369.661 99.9782 369.933 100.66 369.933C101.342 369.933 101.997 369.661 102.486 369.175C102.975 368.689 103.259 368.027 103.278 367.331V352.344H105.909C105.909 358.345 105.883 355.552 105.883 367.331" fill="#F9F5F3"/>
<path d="M112.289 363.024H110.309V369.716H112.263C112.7 369.729 113.134 369.652 113.542 369.491C113.949 369.329 114.32 369.086 114.634 368.775C114.948 368.465 115.198 368.093 115.369 367.683C115.54 367.272 115.629 366.83 115.631 366.384C115.633 365.937 115.547 365.495 115.379 365.083C115.211 364.671 114.964 364.297 114.653 363.984C114.341 363.671 113.972 363.425 113.566 363.26C113.16 363.095 112.726 363.015 112.289 363.024ZM112.289 355.032H110.309V360.37H112.263C112.96 360.37 113.628 360.088 114.121 359.585C114.614 359.082 114.892 358.4 114.894 357.688C114.896 357.338 114.83 356.991 114.7 356.668C114.57 356.344 114.378 356.05 114.136 355.802C113.894 355.555 113.606 355.359 113.289 355.226C112.973 355.093 112.633 355.026 112.291 355.028L112.289 355.032ZM112.291 372.395H107.686V352.344H112.271C112.959 352.341 113.642 352.476 114.279 352.743C114.916 353.009 115.496 353.401 115.984 353.897C116.473 354.393 116.861 354.982 117.127 355.631C117.392 356.28 117.53 356.976 117.532 357.68C117.533 358.414 117.383 359.139 117.094 359.811C116.804 360.482 116.381 361.085 115.851 361.579C116.834 362.34 117.558 363.397 117.922 364.601C118.286 365.806 118.27 367.096 117.877 368.291C117.485 369.485 116.735 370.524 115.733 371.259C114.732 371.995 113.53 372.391 112.297 372.39" fill="#F9F5F3"/>
<path d="M119.857 372.397V352.35H122.487V369.714H126.72V372.397H119.857Z" fill="#F9F5F3"/>
<path d="M144.211 372.675C143.524 372.679 142.842 372.544 142.206 372.277C141.57 372.011 140.992 371.618 140.506 371.122C140.019 370.626 139.633 370.036 139.37 369.387C139.108 368.737 138.974 368.041 138.976 367.339V357.412C138.976 355.993 139.528 354.632 140.509 353.629C141.491 352.625 142.823 352.062 144.211 352.062C145.6 352.062 146.931 352.625 147.913 353.629C148.895 354.632 149.447 355.993 149.447 357.412H146.844C146.844 356.699 146.567 356.015 146.074 355.511C145.58 355.007 144.911 354.723 144.213 354.723C143.516 354.723 142.847 355.007 142.353 355.511C141.86 356.015 141.583 356.699 141.583 357.412V367.339C141.573 367.696 141.634 368.052 141.761 368.386C141.888 368.719 142.079 369.023 142.323 369.279C142.567 369.535 142.859 369.739 143.182 369.878C143.504 370.017 143.85 370.089 144.2 370.089C144.55 370.089 144.897 370.017 145.219 369.878C145.542 369.739 145.833 369.535 146.077 369.279C146.321 369.023 146.513 368.719 146.64 368.386C146.767 368.052 146.828 367.696 146.818 367.339H149.447C149.449 368.041 149.315 368.737 149.052 369.387C148.79 370.036 148.404 370.626 147.917 371.122C147.43 371.618 146.852 372.011 146.216 372.277C145.58 372.544 144.899 372.679 144.211 372.675Z" fill="#F9F5F3"/>
<path d="M128.549 372.399V369.716H129.038C129.735 369.717 130.403 369.435 130.897 368.932C131.39 368.429 131.668 367.746 131.669 367.034V355.689C131.668 355.515 131.6 355.348 131.479 355.225C131.358 355.101 131.195 355.032 131.024 355.032H128.523V352.352H137.416V355.032H134.942C134.772 355.032 134.608 355.101 134.488 355.225C134.367 355.348 134.299 355.515 134.299 355.689V367.034C134.3 367.387 134.368 367.736 134.5 368.062C134.633 368.387 134.826 368.683 135.071 368.932C135.315 369.181 135.605 369.379 135.924 369.513C136.243 369.648 136.585 369.717 136.93 369.716H137.416V372.399H128.549Z" fill="#F9F5F3"/>
<path d="M208.39 281.867H208.548C208.889 281.867 209.152 281.687 209.334 281.327C209.516 280.967 209.607 280.445 209.607 279.762V273.644H211.316V279.399C211.316 280.188 211.225 280.86 211.043 281.416C210.865 281.972 210.58 282.4 210.188 282.701C209.801 283.002 209.3 283.152 208.684 283.152H208.39V281.867ZM208.267 281.867H209.949V285.504H208.267V281.867ZM208.267 281.867H215.431V283.583H208.267V281.867ZM214.29 281.867H215.971V285.504H214.29V281.867ZM213.244 273.644H215.028V283.583H213.244V273.644ZM210.756 273.644H214.051V275.359H210.756V273.644ZM217.796 273.644H219.58V283.583H217.796V273.644ZM218.507 281.854H223.333V283.583H218.507V281.854ZM218.507 277.779H222.786V279.509H218.507V277.779ZM218.507 273.644H223.333V275.373H218.507V273.644ZM229.43 273.644H231.215V283.583H229.43V273.644ZM225.192 273.644H226.976V283.583H225.192V273.644ZM226.067 273.644H230.551V275.353H226.067V273.644ZM236.457 283.686C235.833 283.686 235.288 283.565 234.823 283.323C234.359 283.077 234.001 282.729 233.75 282.277C233.499 281.826 233.374 281.295 233.374 280.685V276.542C233.374 275.931 233.499 275.4 233.75 274.949C234.001 274.493 234.359 274.145 234.823 273.903C235.288 273.662 235.833 273.541 236.457 273.541C237.086 273.541 237.633 273.662 238.098 273.903C238.563 274.145 238.92 274.493 239.171 274.949C239.422 275.4 239.547 275.931 239.547 276.542V280.685C239.547 281.295 239.422 281.826 239.171 282.277C238.92 282.729 238.563 283.077 238.098 283.323C237.633 283.565 237.086 283.686 236.457 283.686ZM236.457 281.901C236.712 281.901 236.936 281.849 237.127 281.744C237.318 281.635 237.464 281.482 237.565 281.286C237.665 281.09 237.715 280.86 237.715 280.596V276.617C237.715 276.357 237.665 276.13 237.565 275.934C237.464 275.738 237.318 275.587 237.127 275.482C236.936 275.373 236.712 275.318 236.457 275.318C236.202 275.318 235.979 275.373 235.787 275.482C235.6 275.587 235.457 275.738 235.357 275.934C235.256 276.13 235.206 276.357 235.206 276.617V280.596C235.206 280.86 235.256 281.09 235.357 281.286C235.457 281.482 235.6 281.635 235.787 281.744C235.979 281.849 236.202 281.901 236.457 281.901Z" fill="#AD7C53"/>
<rect width="30.9293" height="30.9293" rx="15.4646" transform="matrix(0 -1 -1 0 199.568 294.328)" fill="#AD7C53"/>
<path d="M187.855 283.646L190.255 286.045M177.456 273.247L183.855 279.646M179.056 271.646L183.055 275.646L179.856 278.846L175.856 274.846M177.456 286.045L191.055 272.447C191.384 273.559 191.409 274.739 191.128 275.864C190.847 276.99 190.269 278.019 189.455 278.846C186.626 281.674 184.655 282.042 184.655 282.042" stroke="#F9F5F3" stroke-width="1.5" stroke-linecap="square"/>
<path d="M325.063 526.515L326.8 522.017H328.748L326.396 527.718L325.063 526.515ZM325.043 527.567L326.615 526.72L329.165 531.956H327.101L325.043 527.567ZM322.418 522.017H324.202V531.956H322.418V522.017ZM323.197 526.159H326.273V527.875H323.197V526.159ZM331.468 526.385H333.936C334.118 526.385 334.275 526.344 334.408 526.262C334.544 526.175 334.649 526.054 334.722 525.899C334.8 525.744 334.838 525.564 334.838 525.359V524.778C334.838 524.564 334.802 524.38 334.729 524.225C334.656 524.065 334.551 523.944 334.414 523.862C334.282 523.776 334.123 523.732 333.936 523.732H331.468V522.017H333.936C334.492 522.017 334.975 522.124 335.385 522.338C335.8 522.548 336.117 522.853 336.335 523.254C336.559 523.65 336.67 524.118 336.67 524.655V525.489C336.67 526.022 336.559 526.485 336.335 526.877C336.112 527.269 335.795 527.572 335.385 527.786C334.975 527.996 334.492 528.101 333.936 528.101H331.468V526.385ZM330.648 522.017H332.432V531.956H330.648V522.017ZM338.7 522.017H340.484V531.956H338.7V522.017ZM339.411 530.227H344.237V531.956H339.411V530.227ZM339.411 526.152H343.69V527.882H339.411V526.152ZM339.411 522.017H344.237V523.746H339.411V522.017ZM351.701 522.017H353.732V531.956H352.125V524.628L352.207 525.065L350.539 530.521H349.288L347.614 525.202L347.716 524.628V531.956H346.096V522.017H348.14L349.91 528.066L351.701 522.017ZM355.652 530.247C355.885 530.247 356.08 530.192 356.24 530.083C356.404 529.974 356.527 529.812 356.609 529.598C356.691 529.383 356.732 529.121 356.732 528.812V522.017H358.516V528.948C358.516 529.6 358.412 530.149 358.202 530.596C357.997 531.042 357.689 531.382 357.279 531.614C356.873 531.842 356.374 531.956 355.782 531.956H355.652V530.247ZM360.54 522.017H362.324V531.956H360.54V522.017ZM357.805 522.017H361.374V523.732H357.805V522.017ZM365.454 530.24H367.772C367.972 530.24 368.145 530.195 368.291 530.104C368.442 530.008 368.558 529.876 368.64 529.707C368.722 529.534 368.763 529.333 368.763 529.105V528.709C368.763 528.472 368.722 528.267 368.64 528.094C368.562 527.916 368.448 527.782 368.298 527.69C368.148 527.595 367.972 527.547 367.772 527.547H365.454V525.831H367.902C368.448 525.831 368.922 525.94 369.323 526.159C369.724 526.378 370.034 526.69 370.253 527.096C370.472 527.497 370.581 527.971 370.581 528.518V529.304C370.581 529.841 370.472 530.311 370.253 530.712C370.034 531.113 369.722 531.421 369.317 531.635C368.916 531.849 368.444 531.956 367.902 531.956H365.454V530.24ZM364.593 522.017H366.377V531.956H364.593V522.017Z" fill="#AD7C53"/>
<rect width="41.239" height="41.239" rx="20" transform="matrix(0 -1 -1 0 315.316 546.823)" fill="#AD7C53"/>
<path d="M294.696 517.233L296.664 523.289H303.031L297.88 527.031L299.847 533.086L294.696 529.344L289.545 533.086L291.513 527.031L286.362 523.289H292.729L294.696 517.233Z" stroke="#F9F5F3" stroke-width="1.5"/>
<circle cx="149.05" cy="310.824" r="8.2478" fill="#393D46"/>
<path d="M153.427 313.055L150.978 306.752H150.874L149.103 310.19L147.28 306.7L144.78 313.055H144.102V313.524H147.645V313.055H146.967L147.645 311.076L149.103 313.524L150.51 311.076L151.187 313.055H150.51V313.524H154V313.055H153.427Z" fill="#F9F5F3"/>
<path d="M164.709 313.412H166.389C166.532 313.412 166.656 313.38 166.76 313.314C166.868 313.246 166.951 313.152 167.009 313.031C167.068 312.908 167.097 312.764 167.097 312.602V312.318C167.097 312.149 167.068 312.003 167.009 311.879C166.954 311.752 166.872 311.656 166.765 311.591C166.658 311.522 166.532 311.488 166.389 311.488H164.709V310.263H166.482C166.872 310.263 167.211 310.341 167.497 310.497C167.784 310.653 168.005 310.876 168.162 311.166C168.318 311.452 168.396 311.791 168.396 312.182V312.743C168.396 313.127 168.318 313.463 168.162 313.749C168.005 314.035 167.782 314.255 167.493 314.408C167.206 314.561 166.869 314.638 166.482 314.638H164.709V313.412ZM164.094 307.538H165.369V314.638H164.094V307.538ZM164.7 307.538H167.976V308.764H164.7V307.538ZM169.816 307.538H171.091V314.638H169.816V307.538ZM170.324 313.402H173.772V314.638H170.324V313.402ZM170.324 310.492H173.381V311.728H170.324V310.492ZM170.324 307.538H173.772V308.773H170.324V307.538ZM174.953 313.417C175.119 313.417 175.259 313.378 175.373 313.3C175.49 313.222 175.578 313.106 175.636 312.953C175.695 312.8 175.724 312.613 175.724 312.392V307.538H176.999V312.489C176.999 312.955 176.924 313.347 176.774 313.666C176.628 313.985 176.408 314.228 176.115 314.394C175.825 314.556 175.469 314.638 175.046 314.638H174.953V313.417ZM178.444 307.538H179.718V314.638H178.444V307.538ZM176.491 307.538H179.04V308.764H176.491V307.538ZM183.468 314.711C183.022 314.711 182.633 314.625 182.301 314.452C181.969 314.276 181.713 314.027 181.534 313.705C181.355 313.383 181.266 313.004 181.266 312.567V309.608C181.266 309.172 181.355 308.793 181.534 308.471C181.713 308.145 181.969 307.896 182.301 307.724C182.633 307.551 183.022 307.465 183.468 307.465C183.917 307.465 184.308 307.551 184.64 307.724C184.972 307.896 185.227 308.145 185.406 308.471C185.586 308.793 185.675 309.172 185.675 309.608V312.567C185.675 313.004 185.586 313.383 185.406 313.705C185.227 314.027 184.972 314.276 184.64 314.452C184.308 314.625 183.917 314.711 183.468 314.711ZM183.468 313.437C183.65 313.437 183.81 313.399 183.947 313.324C184.083 313.246 184.187 313.137 184.259 312.997C184.331 312.857 184.366 312.693 184.366 312.504V309.662C184.366 309.477 184.331 309.314 184.259 309.174C184.187 309.034 184.083 308.926 183.947 308.852C183.81 308.773 183.65 308.734 183.468 308.734C183.286 308.734 183.126 308.773 182.989 308.852C182.856 308.926 182.753 309.034 182.682 309.174C182.61 309.314 182.574 309.477 182.574 309.662V312.504C182.574 312.693 182.61 312.857 182.682 312.997C182.753 313.137 182.856 313.246 182.989 313.324C183.126 313.399 183.286 313.437 183.468 313.437ZM187.706 310.658H189.469C189.599 310.658 189.711 310.629 189.806 310.57C189.903 310.508 189.978 310.422 190.03 310.312C190.085 310.201 190.113 310.072 190.113 309.926V309.511C190.113 309.358 190.087 309.226 190.035 309.115C189.983 309.001 189.908 308.915 189.81 308.856C189.716 308.795 189.602 308.764 189.469 308.764H187.706V307.538H189.469C189.866 307.538 190.211 307.615 190.504 307.768C190.8 307.917 191.026 308.135 191.182 308.422C191.342 308.705 191.422 309.039 191.422 309.423V310.019C191.422 310.399 191.342 310.73 191.182 311.01C191.023 311.29 190.797 311.506 190.504 311.659C190.211 311.809 189.866 311.884 189.469 311.884H187.706V310.658ZM187.12 307.538H188.394V314.638H187.12V307.538ZM192.832 307.538H194.185L195.699 312.719L194.893 313.71L192.832 307.538ZM196.06 313.31C195.969 313.612 195.847 313.868 195.694 314.076C195.541 314.285 195.354 314.442 195.132 314.55C194.911 314.657 194.654 314.711 194.361 314.711H193.702V313.466H194.214C194.354 313.466 194.48 313.435 194.59 313.373C194.701 313.308 194.795 313.215 194.873 313.095C194.955 312.971 195.02 312.821 195.069 312.646L196.397 307.538H197.696L196.06 313.31ZM200.693 314.711C200.244 314.711 199.86 314.625 199.541 314.452C199.222 314.276 198.978 314.022 198.809 313.69C198.639 313.358 198.555 312.956 198.555 312.484V309.696C198.555 309.224 198.639 308.822 198.809 308.49C198.978 308.155 199.222 307.901 199.541 307.729C199.86 307.553 200.244 307.465 200.693 307.465C201.136 307.465 201.509 307.553 201.812 307.729C202.114 307.904 202.349 308.171 202.515 308.529C202.684 308.884 202.785 309.335 202.817 309.882H201.509C201.489 309.625 201.445 309.413 201.377 309.247C201.312 309.081 201.222 308.957 201.108 308.876C200.995 308.791 200.856 308.749 200.693 308.749C200.521 308.749 200.373 308.786 200.249 308.861C200.125 308.933 200.031 309.04 199.966 309.184C199.901 309.324 199.868 309.494 199.868 309.696V312.484C199.868 312.686 199.901 312.857 199.966 312.997C200.031 313.137 200.125 313.244 200.249 313.319C200.373 313.391 200.521 313.427 200.693 313.427C200.856 313.427 200.995 313.386 201.108 313.305C201.226 313.223 201.317 313.1 201.382 312.934C201.45 312.764 201.493 312.551 201.509 312.294H202.817C202.782 312.841 202.681 313.293 202.515 313.651C202.349 314.006 202.114 314.271 201.812 314.447C201.509 314.623 201.136 314.711 200.693 314.711ZM206.084 314.711C205.634 314.711 205.25 314.625 204.931 314.452C204.612 314.276 204.368 314.022 204.199 313.69C204.03 313.358 203.945 312.956 203.945 312.484V309.696C203.945 309.224 204.03 308.822 204.199 308.49C204.368 308.155 204.612 307.901 204.931 307.729C205.25 307.553 205.634 307.465 206.084 307.465C206.526 307.465 206.899 307.553 207.202 307.729C207.505 307.904 207.739 308.171 207.905 308.529C208.074 308.884 208.175 309.335 208.208 309.882H206.899C206.88 309.625 206.836 309.413 206.767 309.247C206.702 309.081 206.613 308.957 206.499 308.876C206.385 308.791 206.246 308.749 206.084 308.749C205.911 308.749 205.763 308.786 205.639 308.861C205.516 308.933 205.421 309.04 205.356 309.184C205.291 309.324 205.258 309.494 205.258 309.696V312.484C205.258 312.686 205.291 312.857 205.356 312.997C205.421 313.137 205.516 313.244 205.639 313.319C205.763 313.391 205.911 313.427 206.084 313.427C206.246 313.427 206.385 313.386 206.499 313.305C206.616 313.223 206.707 313.1 206.772 312.934C206.84 312.764 206.883 312.551 206.899 312.294H208.208C208.172 312.841 208.071 313.293 207.905 313.651C207.739 314.006 207.505 314.271 207.202 314.447C206.899 314.623 206.526 314.711 206.084 314.711ZM211.401 310.751L212.641 307.538H214.032L212.353 311.61L211.401 310.751ZM211.386 311.503L212.509 310.897L214.33 314.638H212.856L211.386 311.503ZM209.511 307.538H210.785V314.638H209.511V307.538ZM210.068 310.497H212.265V311.723H210.068V310.497ZM216.981 307.538H217.831L220.038 314.638H218.715L217.406 309.887L216.097 314.638H214.779L216.981 307.538ZM216.005 312.304H218.842V313.515H216.005V312.304ZM222.831 311.903C222.437 311.903 222.095 311.825 221.805 311.669C221.515 311.509 221.291 311.283 221.131 310.99C220.975 310.694 220.897 310.347 220.897 309.95V309.438C220.897 309.05 220.975 308.713 221.131 308.427C221.288 308.137 221.511 307.916 221.8 307.763C222.093 307.61 222.437 307.533 222.831 307.533H224.51V308.759H222.997C222.834 308.759 222.692 308.793 222.572 308.861C222.455 308.93 222.363 309.029 222.298 309.159C222.236 309.289 222.206 309.442 222.206 309.618V309.818C222.206 309.994 222.238 310.147 222.303 310.277C222.368 310.408 222.459 310.507 222.577 310.575C222.694 310.644 222.834 310.678 222.997 310.678H224.51V311.903H222.831ZM222.337 311.532L223.578 311.757L222.303 314.638H220.872L222.337 311.532ZM223.895 307.533H225.174V314.638H223.895V307.533Z" fill="#393D46"/>
<circle cx="27.395" cy="419.077" r="8.2478" fill="#393D46"/>
<path d="M31.7716 421.308L29.3233 415.005H29.2191L27.448 418.443L25.6248 414.953L23.1245 421.308H22.4473V421.777H25.9895V421.308H25.3123L25.9895 419.329L27.448 421.777L28.8545 419.329L29.5317 421.308H28.8545V421.777H32.3446V421.308H31.7716Z" fill="#F9F5F3"/>
<path d="M41.9605 415.791H43.313L44.8267 420.972L44.0211 421.963L41.9605 415.791ZM45.188 421.562C45.0969 421.865 44.9748 422.121 44.8218 422.329C44.6688 422.537 44.4817 422.695 44.2603 422.803C44.039 422.91 43.7818 422.964 43.4888 422.964H42.8297V421.719H43.3423C43.4823 421.719 43.6076 421.688 43.7183 421.626C43.829 421.561 43.9234 421.468 44.0015 421.348C44.0829 421.224 44.148 421.074 44.1968 420.898L45.525 415.791H46.8238L45.188 421.562ZM47.1261 421.67C47.2922 421.67 47.4321 421.631 47.5461 421.553C47.6632 421.475 47.7511 421.359 47.8097 421.206C47.8683 421.053 47.8976 420.866 47.8976 420.645V415.791H49.172V420.742C49.172 421.208 49.0972 421.6 48.9474 421.919C48.8009 422.238 48.5812 422.48 48.2882 422.646C47.9985 422.809 47.6421 422.891 47.2189 422.891H47.1261V421.67ZM50.6173 415.791H51.8918V422.891H50.6173V415.791ZM48.6642 415.791H51.213V417.017H48.6642V415.791ZM56.8377 422.886V417.627L56.95 417.764L54.7966 422.886H53.5125V415.791H54.7039V421.108L54.5867 420.972L56.7498 415.791H58.0291V422.886H56.8377ZM62.6429 415.801H63.9173V422.891H62.6429V415.801ZM60.4017 421.665H63.9808V422.891H60.4017V421.665ZM63.4535 421.665H64.6791V424.507H63.4535V421.665ZM59.6449 415.791H60.9193V422.891H59.6449V415.791ZM67.9648 415.791H68.8144L71.0214 422.891H69.6982L68.3896 418.14L67.081 422.891H65.7627L67.9648 415.791ZM66.9882 420.557H69.8252V421.768H66.9882V420.557ZM76.6701 422.891H75.3957V417.266L74.5119 417.642V416.279L75.4836 415.791H76.6701V422.891ZM80.2439 419.355L80.5564 419.531C80.462 419.684 80.3367 419.8 80.1804 419.878C80.0242 419.953 79.85 419.99 79.658 419.99C79.3324 419.99 79.0492 419.917 78.8084 419.771C78.5707 419.624 78.3868 419.414 78.2566 419.141C78.1297 418.864 78.0662 418.54 78.0662 418.169V417.646C78.0662 417.24 78.1394 416.893 78.2859 416.606C78.4324 416.317 78.644 416.097 78.9207 415.947C79.2006 415.794 79.5359 415.718 79.9265 415.718C80.3172 415.718 80.6508 415.794 80.9275 415.947C81.2074 416.097 81.4207 416.317 81.5672 416.606C81.7136 416.896 81.7869 417.244 81.7869 417.651V418.12C81.7869 418.39 81.7543 418.652 81.6892 418.906C81.6274 419.16 81.533 419.45 81.406 419.775C81.393 419.814 81.3783 419.854 81.3621 419.893C81.3491 419.932 81.3344 419.969 81.3181 420.005L80.1853 422.891H78.8328L80.2439 419.355ZM79.9265 418.784C80.1153 418.784 80.2618 418.726 80.366 418.608C80.4701 418.491 80.5222 418.325 80.5222 418.11V417.607C80.5222 417.393 80.4701 417.23 80.366 417.119C80.2651 417.008 80.1186 416.953 79.9265 416.953C79.7345 416.953 79.5864 417.01 79.4822 417.124C79.378 417.235 79.3259 417.396 79.3259 417.607V418.115C79.3259 418.327 79.378 418.491 79.4822 418.608C79.5896 418.726 79.7377 418.784 79.9265 418.784ZM84.9945 422.964C84.389 422.964 83.9235 422.801 83.598 422.476C83.2757 422.147 83.1146 421.688 83.1146 421.099V417.573C83.1146 416.981 83.2757 416.522 83.598 416.196C83.9235 415.871 84.389 415.708 84.9945 415.708C85.6032 415.708 86.0687 415.871 86.391 416.196C86.7165 416.522 86.8793 416.981 86.8793 417.573V421.099C86.8793 421.691 86.7165 422.15 86.391 422.476C86.0655 422.801 85.6 422.964 84.9945 422.964ZM84.9945 421.724C85.1963 421.724 85.3477 421.655 85.4486 421.519C85.5528 421.379 85.6048 421.182 85.6048 420.928V417.744C85.6048 417.49 85.5528 417.295 85.4486 417.158C85.3477 417.018 85.1963 416.948 84.9945 416.948C84.7927 416.948 84.6413 417.018 84.5404 417.158C84.4395 417.295 84.389 417.49 84.389 417.744V420.928C84.389 421.182 84.4395 421.379 84.5404 421.519C84.6413 421.655 84.7927 421.724 84.9945 421.724ZM90.1845 422.964C89.7939 422.964 89.4635 422.891 89.1933 422.744C88.9231 422.598 88.7164 422.375 88.5732 422.075C88.4332 421.776 88.3567 421.401 88.3437 420.952H89.6181C89.6279 421.213 89.68 421.406 89.7744 421.533C89.872 421.657 90.012 421.719 90.1943 421.719C90.3733 421.719 90.5133 421.663 90.6142 421.553C90.7151 421.439 90.7656 421.283 90.7656 421.084V419.966C90.7656 419.771 90.7216 419.621 90.6338 419.517C90.5459 419.409 90.4222 419.355 90.2627 419.355C90.1162 419.355 89.9941 419.395 89.8964 419.473C89.802 419.548 89.7435 419.653 89.7207 419.79H88.5V415.791H91.9082V417.031H89.7744V418.398C89.8785 418.304 90.0022 418.232 90.1455 418.184C90.292 418.132 90.4401 418.105 90.5898 418.105C90.8925 418.105 91.153 418.179 91.3711 418.325C91.5892 418.468 91.7552 418.68 91.8691 418.96C91.983 419.237 92.04 419.572 92.04 419.966V421.084C92.04 421.481 91.9668 421.82 91.8203 422.1C91.6738 422.38 91.4622 422.594 91.1855 422.744C90.9088 422.891 90.5752 422.964 90.1845 422.964ZM96.341 415.791H97.6154V422.891H96.341V415.791ZM96.9464 415.791H99.7589V417.017H96.9464V415.791ZM102.874 422.964C102.428 422.964 102.039 422.878 101.707 422.705C101.375 422.529 101.119 422.28 100.94 421.958C100.761 421.636 100.672 421.257 100.672 420.82V417.861C100.672 417.425 100.761 417.046 100.94 416.724C101.119 416.398 101.375 416.149 101.707 415.977C102.039 415.804 102.428 415.718 102.874 415.718C103.323 415.718 103.714 415.804 104.046 415.977C104.378 416.149 104.633 416.398 104.812 416.724C104.991 417.046 105.081 417.425 105.081 417.861V420.82C105.081 421.257 104.991 421.636 104.812 421.958C104.633 422.28 104.378 422.529 104.046 422.705C103.714 422.878 103.323 422.964 102.874 422.964ZM102.874 421.689C103.056 421.689 103.216 421.652 103.352 421.577C103.489 421.499 103.593 421.39 103.665 421.25C103.736 421.11 103.772 420.946 103.772 420.757V417.915C103.772 417.729 103.736 417.567 103.665 417.427C103.593 417.287 103.489 417.179 103.352 417.104C103.216 417.026 103.056 416.987 102.874 416.987C102.691 416.987 102.532 417.026 102.395 417.104C102.262 417.179 102.159 417.287 102.088 417.427C102.016 417.567 101.98 417.729 101.98 417.915V420.757C101.98 420.946 102.016 421.11 102.088 421.25C102.159 421.39 102.262 421.499 102.395 421.577C102.532 421.652 102.691 421.689 102.874 421.689ZM106.184 421.665H106.296C106.54 421.665 106.728 421.536 106.858 421.279C106.988 421.022 107.053 420.649 107.053 420.161V415.791H108.274V419.902C108.274 420.465 108.209 420.946 108.078 421.343C107.952 421.74 107.748 422.046 107.468 422.261C107.191 422.476 106.833 422.583 106.394 422.583H106.184V421.665ZM106.096 421.665H107.297V424.263H106.096V421.665ZM106.096 421.665H111.213V422.891H106.096V421.665ZM110.398 421.665H111.599V424.263H110.398V421.665ZM109.651 415.791H110.925V422.891H109.651V415.791ZM107.873 415.791H110.227V417.017H107.873V415.791ZM114.885 415.791H115.734L117.941 422.891H116.618L115.31 418.14L114.001 422.891H112.683L114.885 415.791ZM113.908 420.557H116.745V421.768H113.908V420.557Z" fill="#393D46"/>
<path d="M220.187 412.826H221.971V422.766H220.187V412.826ZM215.949 412.826H217.733V422.766H215.949V412.826ZM216.824 412.826H221.308V414.535H216.824V412.826ZM226.462 412.826H227.652L230.741 422.766H228.889L227.057 416.114L225.225 422.766H223.379L226.462 412.826ZM225.095 419.498H229.067V421.193H225.095V419.498ZM233.161 413.646H234.945V422.766H233.161V413.646ZM230.987 412.826H237.119V414.542H230.987V412.826ZM239.449 417.194H241.917C242.099 417.194 242.257 417.153 242.389 417.071C242.525 416.985 242.63 416.864 242.703 416.709C242.781 416.554 242.819 416.374 242.819 416.169V415.588C242.819 415.374 242.783 415.189 242.71 415.034C242.637 414.875 242.532 414.754 242.396 414.672C242.263 414.585 242.104 414.542 241.917 414.542H239.449V412.826H241.917C242.473 412.826 242.956 412.933 243.366 413.147C243.781 413.357 244.098 413.662 244.316 414.063C244.54 414.46 244.651 414.927 244.651 415.465V416.299C244.651 416.832 244.54 417.295 244.316 417.687C244.093 418.078 243.776 418.382 243.366 418.596C242.956 418.805 242.473 418.91 241.917 418.91H239.449V417.194ZM238.629 412.826H240.413V422.766H238.629V412.826ZM251.336 422.759V415.396L251.494 415.588L248.479 422.759H246.681V412.826H248.349V420.271L248.185 420.079L251.213 412.826H253.004V422.759H251.336ZM257.495 412.826H258.685L261.774 422.766H259.922L258.09 416.114L256.258 422.766H254.412L257.495 412.826ZM256.128 419.498H260.1V421.193H256.128V419.498ZM264.139 417.194H266.607C266.789 417.194 266.946 417.153 267.079 417.071C267.215 416.985 267.32 416.864 267.393 416.709C267.47 416.554 267.509 416.374 267.509 416.169V415.588C267.509 415.374 267.473 415.189 267.4 415.034C267.327 414.875 267.222 414.754 267.085 414.672C266.953 414.585 266.794 414.542 266.607 414.542H264.139V412.826H266.607C267.163 412.826 267.646 412.933 268.056 413.147C268.471 413.357 268.787 413.662 269.006 414.063C269.23 414.46 269.341 414.927 269.341 415.465V416.299C269.341 416.832 269.23 417.295 269.006 417.687C268.783 418.078 268.466 418.382 268.056 418.596C267.646 418.805 267.163 418.91 266.607 418.91H264.139V417.194ZM263.319 412.826H265.103V422.766H263.319V412.826ZM278.091 412.826H279.806V422.766H278.091V412.826ZM272.246 421.05H279.075V422.766H272.246V421.05ZM271.371 412.826H273.08V422.766H271.371V412.826ZM274.714 412.826H276.423V422.766H274.714V412.826ZM286.731 422.759V415.396L286.888 415.588L283.873 422.759H282.075V412.826H283.743V420.271L283.579 420.079L286.608 412.826H288.399V422.759H286.731ZM290.661 412.826H292.445V422.766H290.661V412.826ZM291.372 421.036H296.198V422.766H291.372V421.036ZM291.372 416.962H295.651V418.691H291.372V416.962ZM291.372 412.826H296.198V414.556H291.372V412.826Z" fill="#AD7C53"/>
<rect width="30.9293" height="30.9293" rx="15.4646" transform="matrix(0 -1 -1 0 206.785 433.509)" fill="#AD7C53"/>
<path d="M184.103 422.941C184.841 422.943 185.57 422.782 186.238 422.47C186.906 422.159 187.497 421.703 187.969 421.137C188.443 421.702 189.035 422.156 189.702 422.468C190.37 422.779 191.099 422.941 191.836 422.941C192.573 422.941 193.301 422.779 193.969 422.468C194.637 422.156 195.228 421.702 195.702 421.137C196.173 421.705 196.764 422.161 197.432 422.473C198.101 422.785 198.83 422.945 199.568 422.941" stroke="#F9F5F3" stroke-width="1.5" stroke-linecap="square"/>
<path d="M184.103 418.302C184.841 418.304 185.57 418.144 186.238 417.832C186.906 417.52 187.497 417.065 187.969 416.498C188.443 417.063 189.035 417.517 189.702 417.829C190.37 418.141 191.099 418.302 191.836 418.302C192.573 418.302 193.301 418.141 193.969 417.829C194.637 417.517 195.228 417.063 195.702 416.498C196.173 417.066 196.764 417.522 197.432 417.834C198.101 418.146 198.83 418.306 199.568 418.302" stroke="#F9F5F3" stroke-width="1.5" stroke-linecap="square"/>
<path d="M184.103 413.663C184.841 413.665 185.57 413.504 186.238 413.192C186.906 412.88 187.497 412.425 187.969 411.858C188.442 412.425 189.033 412.88 189.701 413.192C190.369 413.504 191.098 413.664 191.836 413.663C192.573 413.667 193.303 413.507 193.971 413.195C194.64 412.883 195.231 412.426 195.702 411.858C196.173 412.426 196.764 412.883 197.432 413.195C198.101 413.507 198.83 413.667 199.568 413.663" stroke="#F9F5F3" stroke-width="1.5" stroke-linecap="square"/>
<path d="M57.5098 310.993V303.631L57.667 303.822L54.6523 310.993H52.8545V301.061H54.5225V308.505L54.3584 308.313L57.3867 301.061H59.1777V310.993H57.5098ZM65.6782 301.061H67.4623V311H65.6782V301.061ZM61.4399 301.061H63.2241V311H61.4399V301.061ZM62.3149 301.061H66.7993V302.77H62.3149V301.061ZM73.9628 301.061H75.747V311H73.9628V301.061ZM69.7245 301.061H71.5087V311H69.7245V301.061ZM70.5995 301.061H75.0839V302.77H70.5995V301.061ZM80.9896 311.103C80.3652 311.103 79.8206 310.982 79.3558 310.74C78.8909 310.494 78.5332 310.146 78.2825 309.694C78.0319 309.243 77.9066 308.712 77.9066 308.102V303.959C77.9066 303.348 78.0319 302.817 78.2825 302.366C78.5332 301.91 78.8909 301.562 79.3558 301.32C79.8206 301.079 80.3652 300.958 80.9896 300.958C81.6185 300.958 82.1654 301.079 82.6302 301.32C83.095 301.562 83.4528 301.91 83.7034 302.366C83.9541 302.817 84.0794 303.348 84.0794 303.959V308.102C84.0794 308.712 83.9541 309.243 83.7034 309.694C83.4528 310.146 83.095 310.494 82.6302 310.74C82.1654 310.982 81.6185 311.103 80.9896 311.103ZM80.9896 309.318C81.2448 309.318 81.4681 309.266 81.6595 309.161C81.8509 309.052 81.9967 308.899 82.097 308.703C82.1973 308.507 82.2474 308.277 82.2474 308.013V304.034C82.2474 303.774 82.1973 303.547 82.097 303.351C81.9967 303.155 81.8509 303.004 81.6595 302.899C81.4681 302.79 81.2448 302.735 80.9896 302.735C80.7344 302.735 80.5111 302.79 80.3196 302.899C80.1328 303.004 79.9892 303.155 79.889 303.351C79.7887 303.547 79.7386 303.774 79.7386 304.034V308.013C79.7386 308.277 79.7887 308.507 79.889 308.703C79.9892 308.899 80.1328 309.052 80.3196 309.161C80.5111 309.266 80.7344 309.318 80.9896 309.318ZM85.6238 309.284H85.781C86.1228 309.284 86.3849 309.104 86.5672 308.744C86.7494 308.384 86.8406 307.862 86.8406 307.179V301.061H88.5496V306.816C88.5496 307.605 88.4584 308.277 88.2761 308.833C88.0984 309.389 87.8136 309.817 87.4216 310.118C87.0343 310.419 86.533 310.569 85.9177 310.569H85.6238V309.284ZM85.5007 309.284H87.1824V312.921H85.5007V309.284ZM85.5007 309.284H92.6648V311H85.5007V309.284ZM91.5232 309.284H93.2048V312.921H91.5232V309.284ZM90.4773 301.061H92.2615V311H90.4773V301.061ZM87.989 301.061H91.2839V302.776H87.989V301.061ZM95.8498 305.429H98.3176C98.4999 305.429 98.6571 305.388 98.7893 305.306C98.926 305.219 99.0308 305.098 99.1037 304.943C99.1812 304.788 99.2199 304.608 99.2199 304.403V303.822C99.2199 303.608 99.1835 303.424 99.1105 303.269C99.0376 303.109 98.9328 302.988 98.7961 302.906C98.6639 302.82 98.5044 302.776 98.3176 302.776H95.8498V301.061H98.3176C98.8736 301.061 99.3566 301.168 99.7668 301.382C100.182 301.591 100.498 301.897 100.717 302.298C100.94 302.694 101.052 303.161 101.052 303.699V304.533C101.052 305.066 100.94 305.529 100.717 305.921C100.494 306.313 100.177 306.616 99.7668 306.83C99.3566 307.04 98.8736 307.145 98.3176 307.145H95.8498V305.429ZM95.0295 301.061H96.8137V311H95.0295V301.061ZM105.857 311.103C105.233 311.103 104.688 310.982 104.223 310.74C103.758 310.494 103.401 310.146 103.15 309.694C102.899 309.243 102.774 308.712 102.774 308.102V303.959C102.774 303.348 102.899 302.817 103.15 302.366C103.401 301.91 103.758 301.562 104.223 301.32C104.688 301.079 105.233 300.958 105.857 300.958C106.486 300.958 107.033 301.079 107.498 301.32C107.963 301.562 108.32 301.91 108.571 302.366C108.822 302.817 108.947 303.348 108.947 303.959V308.102C108.947 308.712 108.822 309.243 108.571 309.694C108.32 310.146 107.963 310.494 107.498 310.74C107.033 310.982 106.486 311.103 105.857 311.103ZM105.857 309.318C106.112 309.318 106.336 309.266 106.527 309.161C106.718 309.052 106.864 308.899 106.964 308.703C107.065 308.507 107.115 308.277 107.115 308.013V304.034C107.115 303.774 107.065 303.547 106.964 303.351C106.864 303.155 106.718 303.004 106.527 302.899C106.336 302.79 106.112 302.735 105.857 302.735C105.602 302.735 105.379 302.79 105.187 302.899C105 303.004 104.857 303.155 104.756 303.351C104.656 303.547 104.606 303.774 104.606 304.034V308.013C104.606 308.277 104.656 308.507 104.756 308.703C104.857 308.899 105 309.052 105.187 309.161C105.379 309.266 105.602 309.318 105.857 309.318ZM116.575 301.061H118.606V311H116.999V303.672L117.081 304.109L115.413 309.564H114.162L112.487 304.246L112.59 303.672V311H110.97V301.061H113.014L114.784 307.11L116.575 301.061Z" fill="#AD7C53"/>
<rect width="30.9293" height="30.9293" rx="15.4646" transform="matrix(0 -1 -1 0 44.2068 322.354)" fill="#AD7C53"/>
<path d="M21.2673 314.76C21.2673 306.981 24.3789 300.091 32.3801 299.202C32.3801 300.091 32.3801 301.239 32.3801 301.425C32.7506 300.684 34.0471 299.202 35.1583 299.202C35.1583 300.091 35.1583 301.054 35.1583 301.425L37.9365 306.981C38.307 307.352 38.8256 308.315 37.9365 309.204C36.8253 310.315 35.714 308.648 35.714 308.092C34.6027 308.092 32.9358 308.092 31.8245 305.87C30.7132 306.425 30.1576 307.537 30.7132 309.204C31.2689 310.871 32.3801 311.426 32.3801 314.76" stroke="white" stroke-width="1.5"/>
<circle cx="34.325" cy="304.48" r="0.83346" fill="white"/>
<path d="M176.454 456.891C175.789 456.891 175.233 456.788 174.786 456.583C174.344 456.373 174.005 456.059 173.768 455.64C173.531 455.216 173.396 454.68 173.364 454.033H175.169C175.192 454.421 175.306 454.708 175.511 454.895C175.72 455.077 176.024 455.168 176.42 455.168C176.794 455.168 177.081 455.07 177.281 454.874C177.486 454.674 177.589 454.391 177.589 454.026V453.493C177.589 453.17 177.507 452.921 177.343 452.748C177.179 452.57 176.946 452.481 176.646 452.481H175.231V450.759H176.646C176.892 450.759 177.083 450.69 177.22 450.554C177.357 450.412 177.425 450.216 177.425 449.966V449.398C177.425 449.102 177.338 448.874 177.165 448.715C176.997 448.551 176.757 448.469 176.447 448.469C176.11 448.469 175.848 448.564 175.661 448.756C175.479 448.947 175.37 449.241 175.333 449.638H173.528C173.574 448.986 173.711 448.446 173.939 448.018C174.166 447.589 174.492 447.27 174.916 447.061C175.34 446.851 175.862 446.746 176.482 446.746C177.069 446.746 177.573 446.844 177.992 447.04C178.416 447.231 178.737 447.514 178.956 447.888C179.175 448.261 179.284 448.71 179.284 449.234V449.788C179.284 450.171 179.186 450.52 178.99 450.834C178.799 451.148 178.53 451.404 178.184 451.6C178.585 451.727 178.895 451.969 179.113 452.324C179.337 452.68 179.448 453.119 179.448 453.644V454.184C179.448 454.753 179.33 455.241 179.093 455.646C178.856 456.052 178.514 456.362 178.068 456.576C177.621 456.786 177.083 456.891 176.454 456.891ZM184.315 456.891C183.691 456.891 183.146 456.77 182.681 456.528C182.216 456.282 181.859 455.934 181.608 455.482C181.357 455.031 181.232 454.5 181.232 453.89V449.747C181.232 449.136 181.357 448.605 181.608 448.154C181.859 447.699 182.216 447.35 182.681 447.108C183.146 446.867 183.691 446.746 184.315 446.746C184.944 446.746 185.491 446.867 185.956 447.108C186.42 447.35 186.778 447.699 187.029 448.154C187.28 448.605 187.405 449.136 187.405 449.747V453.89C187.405 454.5 187.28 455.031 187.029 455.482C186.778 455.934 186.42 456.282 185.956 456.528C185.491 456.77 184.944 456.891 184.315 456.891ZM184.315 455.106C184.57 455.106 184.794 455.054 184.985 454.949C185.176 454.84 185.322 454.687 185.422 454.491C185.523 454.295 185.573 454.065 185.573 453.801V449.822C185.573 449.562 185.523 449.335 185.422 449.139C185.322 448.943 185.176 448.792 184.985 448.688C184.794 448.578 184.57 448.523 184.315 448.523C184.06 448.523 183.836 448.578 183.645 448.688C183.458 448.792 183.315 448.943 183.214 449.139C183.114 449.335 183.064 449.562 183.064 449.822V453.801C183.064 454.065 183.114 454.295 183.214 454.491C183.315 454.687 183.458 454.84 183.645 454.949C183.836 455.054 184.06 455.106 184.315 455.106ZM192.271 456.891C191.647 456.891 191.103 456.77 190.638 456.528C190.173 456.282 189.815 455.934 189.564 455.482C189.314 455.031 189.188 454.5 189.188 453.89V449.747C189.188 449.136 189.314 448.605 189.564 448.154C189.815 447.699 190.173 447.35 190.638 447.108C191.103 446.867 191.647 446.746 192.271 446.746C192.9 446.746 193.447 446.867 193.912 447.108C194.377 447.35 194.735 447.699 194.985 448.154C195.236 448.605 195.361 449.136 195.361 449.747V453.89C195.361 454.5 195.236 455.031 194.985 455.482C194.735 455.934 194.377 456.282 193.912 456.528C193.447 456.77 192.9 456.891 192.271 456.891ZM192.271 455.106C192.527 455.106 192.75 455.054 192.941 454.949C193.133 454.84 193.279 454.687 193.379 454.491C193.479 454.295 193.529 454.065 193.529 453.801V449.822C193.529 449.562 193.479 449.335 193.379 449.139C193.279 448.943 193.133 448.792 192.941 448.688C192.75 448.578 192.527 448.523 192.271 448.523C192.016 448.523 191.793 448.578 191.602 448.688C191.415 448.792 191.271 448.943 191.171 449.139C191.071 449.335 191.021 449.562 191.021 449.822V453.801C191.021 454.065 191.071 454.295 191.171 454.491C191.271 454.687 191.415 454.84 191.602 454.949C191.793 455.054 192.016 455.106 192.271 455.106ZM201.623 446.849H203.407V456.788H201.623V446.849ZM197.384 446.849H199.168V456.788H197.384V446.849ZM198.259 446.849H202.744V448.558H198.259V446.849ZM207.897 446.849H209.087L212.177 456.788H210.324L208.492 450.137L206.66 456.788H204.814L207.897 446.849ZM206.53 453.521H210.502V455.216H206.53V453.521ZM214.541 451.217H217.009C217.191 451.217 217.349 451.176 217.481 451.094C217.618 451.007 217.722 450.886 217.795 450.731C217.873 450.576 217.911 450.396 217.911 450.191V449.61C217.911 449.396 217.875 449.212 217.802 449.057C217.729 448.897 217.624 448.776 217.488 448.694C217.355 448.608 217.196 448.564 217.009 448.564H214.541V446.849H217.009C217.565 446.849 218.048 446.956 218.458 447.17C218.873 447.38 219.19 447.685 219.409 448.086C219.632 448.482 219.743 448.95 219.743 449.487V450.321C219.743 450.854 219.632 451.317 219.409 451.709C219.185 452.101 218.868 452.404 218.458 452.618C218.048 452.828 217.565 452.933 217.009 452.933H214.541V451.217ZM213.721 446.849H215.505V456.788H213.721V446.849ZM224.419 451.347L226.155 446.849H228.103L225.752 452.55L224.419 451.347ZM224.398 452.399L225.97 451.552L228.52 456.788H226.456L224.398 452.399ZM221.773 446.849H223.557V456.788H221.773V446.849ZM222.553 450.991H225.629V452.707H222.553V450.991Z" fill="#AD7C53"/>
<rect width="30.9293" height="30.9293" rx="15.4646" transform="matrix(0 -1 -1 0 164.515 466.501)" fill="#AD7C53"/>
<path d="M146.238 451.036C146.238 451.191 146.112 451.317 145.957 451.317C145.802 451.317 145.676 451.191 145.676 451.036C145.676 450.881 145.802 450.755 145.957 450.755C146.112 450.755 146.238 450.881 146.238 451.036Z" fill="#AD7C53" stroke="#F9F5F3" stroke-width="1.5"/>
<path d="M152.424 451.036C152.424 451.191 152.298 451.317 152.143 451.317C151.988 451.317 151.862 451.191 151.862 451.036C151.862 450.881 151.988 450.755 152.143 450.755C152.298 450.755 152.424 450.881 152.424 451.036Z" fill="#AD7C53" stroke="#F9F5F3" stroke-width="1.5"/>
<path d="M154.721 443.304L151.628 446.397H146.473L143.38 443.304L141.318 454.644C141.318 454.644 145.442 458.768 149.05 458.768C152.659 458.768 156.782 454.644 156.782 454.644L154.721 443.304Z" stroke="#F9F5F3" stroke-width="1.5" stroke-linecap="round"/>
<path d="M149.05 454.099L148.799 453.848H149.301L149.05 454.099Z" fill="#AD7C53" stroke="#F9F5F3" stroke-width="1.5"/>
<defs>
<linearGradient id="paint0_linear_1161_10430" x1="190" y1="38.9091" x2="190" y2="173.145" gradientUnits="userSpaceOnUse">
<stop stop-color="#F9F5F3"/>
<stop offset="1" stop-color="#F9F5F3" stop-opacity="0"/>
</linearGradient>
<linearGradient id="paint1_linear_1161_10430" x1="190" y1="22.7879" x2="190" y2="101.406" gradientUnits="userSpaceOnUse">
<stop stop-color="#F9F5F3"/>
<stop offset="1" stop-color="#F9F5F3" stop-opacity="0"/>
</linearGradient>
</defs>
</svg>
