<svg width="1019" height="651" viewBox="0 0 1019 651" fill="none" xmlns="http://www.w3.org/2000/svg">
<mask id="mask0_850_7488" style="mask-type:alpha" maskUnits="userSpaceOnUse" x="-458" y="-201" width="2108" height="1263">
<rect x="-458" y="-201" width="2107.17" height="1262.9" fill="black"/>
</mask>
<g mask="url(#mask0_850_7488)">
<path d="M28.1035 349.701C76.5524 349.701 57.1728 448.214 107.775 476.207C148.257 498.601 211.378 438.264 246.337 418.31C285.998 395.671 328.327 405.048 332.501 440.56C339.791 502.584 275.731 567.935 237.51 594.637C201.981 619.459 143.393 659.745 166.452 694.226C179.465 713.686 268.739 725.312 296.187 734.062C372.272 758.318 425.922 592.484 445.84 569.243C474.868 535.373 480.812 531.429 488.906 496.663C497 461.897 521.892 440.578 585.608 438.264C652.555 435.833 668.166 540.411 683.778 582.256C697.236 603.25 734.5 645.5 721 665.5C708.5 681.5 674.3 697.6 675.5 716C677 739 705.556 758.5 683.778 775C662 791.5 619 769.5 598 788C577 806.5 581.5 864 584.5 946.5" stroke="#E8E4E2" stroke-width="10" stroke-linecap="round" stroke-linejoin="bevel"/>
<path d="M682.702 585.742C678.395 587.895 667.629 589.618 659.015 579.282C652.556 574.172 636.944 551.248 626.178 500.431C622.948 487.691 607.983 462.964 573.961 465.978C539.939 468.993 513.131 502.405 503.979 518.734C498.596 526.091 487.184 537.037 484.6 521.964M639.636 461.134C641.43 455.75 649.218 444.446 666.014 442.292C680.509 437.028 712.2 426.799 723 427.999C736.5 429.499 754.5 453 763.5 446.5C772.5 440 795 414 795 403.5C795 393 775.5 360 789 356.5C802.5 353 852.5 357.5 861 335C869.5 312.5 878.5 260.5 899.5 241.5C916.3 226.3 929.833 208.167 934.5 201" stroke="#E8E4E2" stroke-width="4"/>
<path opacity="0.5" d="M620.795 594.1C601.992 602.86 581.154 607.041 562.118 608.291M620.795 594.1C622.41 599.303 625.64 611.541 625.64 618.862C625.64 626.184 605.897 742.822 605 750L553.735 756M620.795 594.1C626.8 591.302 632.731 587.629 638.512 583.333M433.459 268.416C413.541 284.565 384.472 341.089 379.089 358.315C375.857 368.657 373.013 391.609 371.14 412.147M433.459 268.416L475.448 311.181M433.459 268.416C441.68 261.75 455.035 254.902 471.142 249.232M433.459 268.416L379.089 218.322M549.736 236.116L555.12 290.535M549.736 236.116C547.942 230.195 544.892 216.952 547.045 211.354C549.736 204.356 564.809 167.211 562.656 158.598C560.503 149.985 556.735 99.9212 556.735 85.925C556.735 74.728 556.735 75.3403 556.735 77.0461M549.736 236.116C563.221 236.889 582.972 239.151 603.569 243.478M549.736 236.116C546.009 236.03 542.258 236.062 538.5 236.202M685.393 280.797C717.692 319.556 726.306 330.323 724.152 361.545C723.443 371.823 721.743 382.8 719.8 393.306M685.393 280.797C678.998 273.123 669.569 266.631 658.477 261.177M685.393 280.797C686.822 277.478 688.561 273.158 690.299 268.416M289.727 135.989C272.322 163.264 236.326 220.075 231.589 229.118M289.727 135.989C301.212 120.198 325.795 88.0783 332.255 85.925C340.33 83.2334 387.702 81.6184 402.237 81.0801M289.727 135.989L180.987 53.0875M289.727 135.989L374.782 214.354M231.589 229.118C225.667 240.423 203.058 232.887 196.598 236.116M231.589 229.118C236.434 243.115 248.6 274.983 258.505 290.487C268.41 305.99 269.451 315.187 268.733 317.847M196.598 236.116C190.138 239.346 182.602 259.803 175.604 268.416C170.618 274.552 161.261 285.879 156.292 296.947M196.598 236.116L94.3172 200.049M143.843 514.428C137.383 502.585 128.231 433.142 127.693 413.224C127.155 393.306 152.994 323.863 152.994 309.866C152.994 305.841 154.285 301.415 156.292 296.947M143.843 514.428L17.3374 571.49M143.843 514.428L237.241 463.288M143.843 514.428C146.729 519.72 154.13 530.601 161.675 541.5M234.819 674.848C226.206 666.773 184.755 576.873 182.063 571.49C180.91 569.183 174.911 560.548 167.924 550.5M402.237 81.0801L435.612 147.832M402.237 81.0801L361.324 5.17699M402.237 81.0801L374.782 214.354M402.237 81.0801C414.276 80.6342 475.072 76.1252 511.5 74.8963M732.5 109.5C721.303 91.4124 697.775 74.7997 689.161 69.7753C677.159 66.5018 657.537 75.0247 639.098 80.8976M571.269 354.009L607.875 406.226M571.269 354.009C566.319 354.764 558.844 356.084 551.89 357.671M571.269 354.009L575.907 344.319M521.205 377.157C523.897 373.388 529.819 368.543 534.664 363.699C535.985 362.377 539.429 361.018 543.815 359.737M521.205 377.157C518.842 380.465 511.5 387.093 508.286 395.947M521.205 377.157L475.448 311.181M494.289 439.602C496.443 445.523 506.671 447.677 512.592 467.056C518.514 486.436 529.28 504.739 529.28 510.66M494.289 439.602L458.222 474.054M494.289 439.602L452.807 421.837M494.289 439.602C492.912 435.814 497.703 424.975 501.898 414.839M529.28 510.66C529.28 516.582 510.977 562.339 510.977 568.26C510.977 574.182 506.133 596.922 506.133 602.24M529.28 510.66C533.766 521.426 542.738 544.682 542.738 551.572C542.738 560.186 550.275 599.874 562.118 608.291M506.133 602.24C504.088 601.364 502.453 600.436 501.288 599.483C489.445 589.793 430.23 562.339 418.925 553.187C407.62 544.036 387.702 535.961 384.473 526.271C381.82 518.313 372.631 480.944 369.73 458M506.133 602.24L479 750M506.133 602.24C509.434 603.654 513.805 604.935 519 605.977M479 750L553.735 756M479 750L418.925 769.5L324.5 867M562.118 608.291C564.451 576.465 569.008 510.229 568.578 499.894C568.147 489.558 567.322 473.695 566.963 467.056L565.908 446.6M562.118 608.291L553.735 668.932M562.118 608.291L568.578 616.171M562.118 608.291C545.531 609.381 530.312 608.246 519 605.977M607.875 406.226L564.271 414.839L565.908 446.6M607.875 406.226L625.101 399.766M625.101 399.766L651.479 429.912M625.101 399.766C630.175 403.534 642.553 411.071 651.479 411.071C662.636 411.071 684.855 407.841 691.853 406.226C698.851 404.611 713.294 393.306 719.8 393.306M651.479 429.912C654.283 433.984 658.338 440.003 662.636 446.6M651.479 429.912L614.335 478.361L585.266 498.279M651.479 429.912C659.374 428.835 675.811 418.392 678.395 385.231C677.857 380.386 674.735 367.359 666.552 354.009C656.862 338.199 643.79 313.208 627.793 304.214M705.997 500.628C706.13 500.38 706.26 500.135 706.388 499.894C712.371 489.569 712.683 471.413 712.113 457.366M705.997 500.628C700.385 498.409 687.654 490.85 681.625 478.361C677.839 470.518 669.892 457.736 662.636 446.6M705.997 500.628L737.61 528.425M705.997 500.628C704.097 504.175 701.739 508.3 698.981 512.813M705.997 500.628L763 517.5L796.5 523.571M698.981 512.813L731.151 586.025M698.981 512.813C685.83 534.339 663.588 564.698 638.512 583.333M662.636 446.6C676.192 450.189 705.065 457.366 712.113 457.366M712.113 457.366C711.851 450.907 711.402 445.316 711.233 441.755C710.871 434.171 715.84 414.717 719.8 393.306M712.113 457.366C718.818 456.649 732.765 455.105 734.919 454.675M719.8 393.306L738.149 399.766M565.908 446.6C572.361 459.699 585.266 488.374 585.266 498.279M585.266 498.279C585.266 510.66 580.421 566.645 576.652 581.18C572.884 595.715 568.578 601.636 568.578 616.171M568.578 616.171C568.578 627.799 582.574 668.029 585.266 674.848V696.5L553.735 756M638.512 583.333C646.244 592.485 666.875 611.434 687.547 614.018C713.386 617.248 715.001 597.868 727.382 597.33L777.5 568.26L796.5 523.571M442.611 371.773C439.381 358.315 461.99 337.321 471.142 318.48C472.381 315.927 473.838 313.494 475.448 311.181M442.611 371.773C445.841 385.231 456.607 394.383 454.992 407.841M442.611 371.773C419.104 368.902 368.43 359.392 353.788 344.319C346.272 336.582 310.171 326.811 268.733 317.847M442.611 371.773L508.286 395.947M454.992 407.841C454.614 410.993 453.733 415.977 452.807 421.837M454.992 407.841L501.898 414.839M454.992 407.841L371.14 412.147M458.222 474.054C446.267 469.52 449.781 440.995 452.807 421.837M458.222 474.054L463.067 478.139M458.222 474.054L375.37 538M485.676 497.202L463.067 478.139M217.593 659.775L320.5 580.35M463.067 478.139C458.401 486.647 448.209 504.523 444.764 507.968C440.457 512.275 421.616 542.421 421.078 562.877C420.54 583.333 386.087 605.943 377.474 611.864C368.861 617.786 340.868 650.623 340.868 659.775M501.898 414.839C504.26 409.131 506.433 403.645 507.209 399.766C507.472 398.452 507.839 397.178 508.286 395.947M371.14 412.147C369.893 425.82 369.076 438.423 368.861 445.523C368.765 448.698 369.099 453.008 369.73 458M371.14 412.147H330.64L237.241 463.288M156.292 296.947L2.80273 262.494M156.292 296.947C185.361 301.575 229.446 309.349 268.733 317.847M475.448 311.181C479.224 305.758 483.841 301.002 488.473 296.947M268.733 317.847C262.812 328.286 251.507 350.456 253.66 355.624C227.462 363.519 171.943 380.602 159.454 385.77C143.843 392.23 125.002 379.848 109.39 382.001C96.9012 383.724 54.661 406.405 35.102 417.531M488.473 296.947C496.445 289.965 504.459 285.062 508.286 282.412C509.452 281.605 511.247 281.171 513.5 281.039M488.473 296.947L471.142 249.232M471.142 249.232L435.612 147.832M471.142 249.232C478.14 246.768 485.658 244.527 493.5 242.621M435.612 147.832L379.089 218.322M551.89 357.671L543.815 311.181M551.89 357.671C549.041 358.322 546.279 359.017 543.815 359.737M543.815 311.181L555.12 290.535M543.815 311.181L524.271 309M555.12 290.535C557.042 291.249 558.851 291.957 560.503 292.64C569.602 296.406 584.189 296.696 598.185 297.775M555.12 290.535C541.906 285.632 523.334 280.462 513.5 281.039M556.735 77.0461C547.398 75.7378 538.253 74.7721 530.357 74.6203C525.552 74.5278 519.049 74.6417 511.5 74.8963M556.735 77.0461C580.498 80.3758 605.505 85.925 614.335 85.925C621.668 85.925 630.247 83.7166 639.098 80.8976M523.897 19.7116C526.589 53.9847 531.649 124.899 530.357 134.374C529.293 142.18 522.382 148.348 520.876 155.5M524.435 167.75C533.049 178.516 548.48 185.156 555.12 187.129L605.389 195.742M524.435 167.75L473.5 179.5L493.5 242.621M524.435 167.75L538.5 236.202M524.435 167.75C520.765 163.162 520.098 159.2 520.876 155.5M598.185 297.775L603.569 243.478M598.185 297.775C606.543 298.42 614.69 299.346 621.333 301.461M598.185 297.775L575.907 344.319M603.569 243.478C622.572 247.47 642.294 253.219 658.477 261.177M603.569 243.478C603.569 232.887 603.996 213.615 605.389 195.742M614.335 4.63867C614.156 14.4786 613.953 28.0288 613.81 42.3211M639.098 80.8976C644.481 95.2496 639.636 107.458 639.098 117.686C638.559 127.914 649.864 169.365 655.247 181.746C660.025 192.735 686.43 213.901 695.319 226.427M639.098 79.4652L613.81 42.3211M613.81 42.3211C613.522 71.0334 613.472 102.741 614.335 113.379C615.95 133.297 614.335 142.449 608.952 167.75C607.359 175.238 606.207 185.249 605.389 195.742M621.333 301.461C622.652 301.881 623.911 302.348 625.101 302.868C626.008 303.265 626.905 303.715 627.793 304.214M621.333 301.461L658.477 261.177M658.477 261.177C666.709 250.132 685.603 227.719 695.319 226.427M695.319 226.427C696.445 228.014 697.29 229.462 697.775 230.733C700.335 237.454 695.325 254.698 690.299 268.416M575.907 344.319C577.637 347.007 579.885 350.435 582.293 354.009M582.293 354.009C588.727 363.558 596.305 374.152 598.185 374.465C601.415 375.003 636.015 361.113 649.326 359.392C662.636 357.671 678.933 351.855 685.393 344.319C691.853 336.782 720.922 308.79 729.536 307.713C740.69 299.753 765.8 280.748 777 268.416M582.293 354.009C587.59 352.214 598.724 347.764 600.877 344.319C603.03 340.874 619.718 316.147 627.793 304.214M374.782 214.354L379.089 218.322M513.5 281.039L493.5 242.621M513.5 281.039L524.271 309M493.5 242.621C507.818 239.14 523.214 236.773 538.5 236.202M543.815 359.737L524.271 309M520.876 155.5C518.918 151.916 514.7 142.673 513.5 134.374C512.3 126.075 511.667 91.2643 511.5 74.8963M369.73 458C366.943 459.227 363.257 460.7 359 462.206M237.241 463.288C242.34 460.875 249.427 460.498 257.5 461.194M359 462.206C344.809 467.227 324.269 472.62 309.5 470.5C293.528 468.208 273.562 462.578 257.5 461.194M359 462.206L335.604 534M320.5 580.35L375.37 538M320.5 580.35L335.604 534M375.37 538L335.604 534M257.5 461.194C253 475.463 240.9 505.5 228.5 511.5C216.1 517.5 178.783 534 161.675 541.5M161.675 541.5C163.778 544.539 165.893 547.579 167.924 550.5M167.924 550.5C129.95 566.334 47.8 605.9 23 637.5M777 268.416C788.003 256.3 825.258 235.485 847.5 222.516M777 268.416L802.5 296.947L798.837 317.847M777 268.416H690.299M905 167.75C895.167 180 872.7 206.4 861.5 214C858.503 216.034 853.558 218.984 847.5 222.516M847.5 222.516C860.167 236.678 885.7 267.1 886.5 275.5C887.5 286 885 377.056 892 395.947M1034.5 594.1L917.5 545.5L796.5 523.571M553.735 756L519 605.977M833.5 458L796.5 523.571M792.5 354.009L798.837 317.847M852.5 325.5L798.837 317.847" stroke="#E8E4E2" stroke-linecap="round" stroke-linejoin="bevel"/>
<path d="M614.334 478.36L585.265 498.278L568.577 499.893L529.28 510.659L485.676 497.201L463.066 478.139L458.221 474.054C446.267 469.519 449.78 440.994 452.807 421.837C453.733 415.976 454.613 410.993 454.991 407.84C456.606 394.382 445.84 385.231 442.61 371.773C439.38 358.315 461.99 337.32 471.141 318.479C472.381 315.927 473.838 313.493 475.448 311.181C479.223 305.758 483.841 301.001 488.472 296.946C496.445 289.965 504.458 285.061 508.285 282.412C509.452 281.604 511.246 281.17 513.499 281.038C523.334 280.462 541.905 285.631 555.119 290.535C557.041 291.248 558.85 291.956 560.502 292.64C569.602 296.405 584.188 296.695 598.185 297.775C606.542 298.419 614.689 299.345 621.333 301.461C622.651 301.88 623.911 302.347 625.101 302.868C626.007 303.264 626.904 303.714 627.792 304.214C643.789 313.208 656.861 338.198 666.551 354.008C674.734 367.359 677.856 380.386 678.394 385.231C675.811 418.391 659.374 428.835 651.478 429.911L614.334 478.36Z" stroke="#E8E4E2" stroke-width="2" stroke-linecap="round" stroke-linejoin="bevel"/>
<g opacity="0.4">
<path d="M194.5 260C201.7 256 222.833 252.333 232.5 251L244.5 272L229.5 304L172.5 289.5C174 285 185.5 265 194.5 260Z" fill="#E8E4E2"/>
<path d="M429 200L421 194L406.5 210.5L410 212.5L412 210.5L414.5 212.5L412 215L414.5 217.5L429 200Z" fill="#E8E4E2"/>
<path d="M501.5 208H499L497.5 207H494H492L491 209V210.5L494 215C494.167 215.333 494.7 216.1 495.5 216.5C496.3 216.9 496.5 217.333 496.5 217.5L499 221.5C499.333 221.833 500.3 222.5 501.5 222.5L503 220.5L506.245 220L509.5 222.5L510.5 221.5V220.5C510.333 219.833 509.9 218.3 509.5 217.5C509.1 216.7 509.333 216.167 509.5 216C509.333 215 508.9 212.9 508.5 212.5C508.1 212.1 507.333 211 507 210.5L505.5 208H501.5Z" fill="#E8E4E2"/>
<path d="M540.5 190.5L549 197L542.5 215L546 233H540L533.5 200L540.5 190.5Z" fill="#E8E4E2"/>
<path d="M546.5 171L552 174C552.833 173.5 555 171.4 557 167C559.5 161.5 558.5 157.5 558.5 155C558.5 152.5 549.5 147 546.5 144.5C543.5 142 541.5 140 540.5 141.5C539.7 142.7 535.948 147.667 534.172 150L529 149L529.5 150L527 156L526 158.5L524 160V164H527L530.5 162L538.5 172.5L542.5 169.5L543.5 172.5L546.5 171Z" fill="#E8E4E2"/>
<path d="M553 79.5L530.5 78.5L531.5 104L545 102.5V94L554 93L553 79.5Z" fill="#E8E4E2"/>
<path d="M627.5 188.5L610 185L606.5 204L623 206L627.5 188.5Z" fill="#E8E4E2"/>
<path d="M707.5 598.5L716.5 594.5L712 586.5C710.833 584.167 708.3 579.5 707.5 579.5C706.5 579.5 703.5 578 703 578C702.6 578 701.5 576.667 701 576C700.667 575.833 699.7 575.5 698.5 575.5H696H695H692.5V573.5L687 571.5C688.6 577.1 701.333 591.833 707.5 598.5Z" fill="#E8E4E2"/>
<path d="M567 416L596 411H603L600 432L567.5 431L567 416Z" fill="#E8E4E2"/>
<path d="M508.5 438.5L526.5 389L521.5 386.5L513 395.5L501.5 437.5L508.5 438.5Z" fill="#E8E4E2"/>
<path d="M554.5 426L550 412.5L536.5 432L511.5 441.5L504 440L510 447L543 433L554.5 426Z" fill="#E8E4E2"/>
<path d="M487 593L454 576L426 632L402.5 670.5L361.5 726.5L348 735.5L366.5 764L416 704L450 662.5L496.5 608L500.5 602L487 593Z" fill="#E8E4E2"/>
<path d="M458.5 565L482 577.5L505.5 532L499 528.5L458.5 565Z" fill="#E8E4E2"/>
<path d="M353 604.5L350.5 589.5L343 593V599L336.5 602H328L346.5 625L357 612L353 604.5Z" fill="#E8E4E2"/>
<path d="M265 616L249 597L216 618L236 642L265 616Z" fill="#E8E4E2"/>
<path d="M327 571.5L366.5 539.5L338 536.5L327 571.5Z" fill="#E8E4E2"/>
<path d="M235 384L214 387L207 397.5L219.5 419L246.5 402.5L235 384Z" fill="#E8E4E2"/>
<path d="M522 483L545 466.5L542 461L520 476L522 483Z" fill="#E8E4E2"/>
<path d="M421 319L413.5 307L405.5 315L413.5 326L421 319Z" fill="#E8E4E2"/>
<path d="M482 254.5L495 249.5L503 264.5L496 269.5L486 268L482 254.5Z" fill="#E8E4E2"/>
<path d="M508 274L504 268L498 272.5L500.5 278.5L508 274Z" fill="#E8E4E2"/>
<path d="M275.5 326.5L269 325L256.5 354.5L263 353.5L275.5 326.5Z" fill="#E8E4E2"/>
<path d="M345 377.5L348 361L349 345.5H340L336 372L324.5 367L318 376L338.5 388.5L345 377.5Z" fill="#E8E4E2"/>
<path d="M267.5 111.5L290 128.5L296 109L286.5 105L279.5 85.5L267.5 98.5V111.5Z" fill="#E8E4E2"/>
<path d="M256 52.5C254.8 48.9 241.167 41.3333 234.5 38L236 75L226.5 81L241.5 92C242.5 88.8333 245.9 81.2 251.5 76C258.5 69.5 257.5 57 256 52.5Z" fill="#E8E4E2"/>
<path d="M473 747.5L469.5 735.5L450 739L454 753.5L473 747.5Z" fill="#E8E4E2"/>
<path d="M485 834C493 838.8 505 832 510 828L488 787.5L477 795.5C476.333 806.333 477 829.2 485 834Z" fill="#E8E4E2"/>
<path d="M892 605L907 570L877 559.5L857 562L851.5 574L892 605Z" fill="#E8E4E2"/>
<path d="M743.5 426.5L738.5 411L722 408L719 421.5L743.5 426.5Z" fill="#E8E4E2"/>
<path d="M905 293L891 279.5L893 304L905 293Z" fill="#E8E4E2"/>
<path d="M902 316.5L893 310.5V326.5L902 316.5Z" fill="#E8E4E2"/>
<path d="M884 343V279.5L866.5 333.5L884 343Z" fill="#E8E4E2"/>
<path d="M939 271L959 253.5L976.5 274.5L965 299H954V285L939 271Z" fill="#E8E4E2"/>
<path d="M738.5 287L733.5 271L722 279.5L726.5 301L736 299L738.5 287Z" fill="#E8E4E2"/>
</g>
<path d="M231.59 229.118C236.327 220.074 272.323 163.263 289.728 135.988C301.213 120.197 325.796 88.0776 332.256 85.9243C340.331 83.2327 387.703 81.6178 402.237 81.0795C416.772 80.5411 502.365 74.0813 530.358 74.6196C538.254 74.7715 547.399 75.7371 556.735 77.0454C580.499 80.3752 605.506 85.9243 614.336 85.9243C621.669 85.9244 630.247 83.7159 639.099 80.8969C657.538 75.0241 677.159 66.5011 689.162 69.7747C697.776 74.7991 720.803 90.9124 732 109C744.333 126.667 771.8 164.2 783 173C797 184 845 213.5 848.5 223.5C852 233.5 866 247.5 868 256.5C870 265.5 862.5 295 859.5 303C856.5 311 853 321.5 848.5 343C843.832 363 879 383 889.5 393.306C900 403.611 918.5 436 921.5 457.366C924.5 478.731 909.5 512.813 913 536C916.5 559.187 981 637.5 982.5 647C984 656.5 964 664 894.5 700C825 736 798.5 755 761.5 789C731.9 816.2 698.5 821.333 685.5 820.5C647.667 814.833 568.2 803 553 801C534 798.5 516 842 492.5 840.5C469 839 413.5 806 388.5 789C363.5 772 355 752 341.5 729C330.7 710.6 262 674.667 229 659C220.387 650.925 184.756 576.873 182.064 571.489C179.373 566.106 150.303 526.271 143.844 514.428C137.384 502.584 128.232 433.141 127.694 413.223C127.156 393.305 152.995 323.862 152.995 309.866C152.995 305.84 154.286 301.414 156.292 296.946C161.262 285.878 170.619 274.551 175.604 268.415C182.603 259.802 190.139 239.346 196.599 236.116C203.059 232.886 225.668 240.422 231.59 229.118Z" stroke="#E8E4E2" stroke-width="2" stroke-linecap="round" stroke-linejoin="bevel"/>
<path d="M147.762 349.964L148.135 348.745L154.364 350.649L153.991 351.868L147.762 349.964ZM146.748 351.277L148.028 347.089L149.2 347.447L147.92 351.636L146.748 351.277ZM149.087 345.631L149.459 344.412L155.688 346.316L155.316 347.535L149.087 345.631ZM148.072 346.944L149.353 342.756L150.525 343.114L149.244 347.303L148.072 346.944ZM153.236 341.043L150.526 338.918L150.933 337.587L154.336 340.384L153.236 341.043ZM153.951 341.277L153.7 340.026L157.81 339.378L157.379 340.788L153.951 341.277ZM149.611 341.911L149.984 340.692L156.773 342.768L156.401 343.987L149.611 341.911ZM152.604 342.244L153.246 340.143L154.418 340.501L153.776 342.602L152.604 342.244Z" fill="#F9F5F3"/>
<path d="M706.388 499.894C706.26 500.135 706.13 500.38 705.997 500.628M501.288 599.483C502.453 600.436 504.088 601.364 506.133 602.24M549.736 236.116C547.942 230.195 544.892 216.952 547.045 211.354C549.736 204.356 564.809 167.211 562.656 158.598C560.503 149.985 556.735 99.9212 556.735 85.925C556.735 74.728 556.735 75.3403 556.735 77.0461M685.393 280.797C690.956 267.877 701.22 239.777 697.775 230.733C697.29 229.462 696.445 228.014 695.319 226.427M521.205 377.157L475.448 311.181L433.459 268.416L379.089 218.322L374.782 214.354L289.727 135.989L180.987 53.0875M506.133 602.24C506.133 596.922 510.977 574.182 510.977 568.26C510.977 562.339 529.28 516.582 529.28 510.66C529.28 504.739 518.514 486.436 512.592 467.056C511.316 462.878 509.839 459.5 508.286 456.713C502.636 446.573 495.978 444.246 494.289 439.602L458.222 474.054L463.067 478.139C458.401 486.647 448.209 504.523 444.764 507.968C440.457 512.275 421.616 542.421 421.078 562.877C420.54 583.333 386.087 605.943 377.474 611.864C368.861 617.786 250 763.849 250 773M506.133 602.24L367 768.83M318 827.5L356.418 781.5M625.101 399.766L607.875 406.226L564.271 414.839L565.908 446.6L566.963 467.056C567.322 473.695 568.147 489.558 568.578 499.894C569.008 510.229 564.451 576.465 562.118 608.291L553.5 669.775V872.5M625.101 399.766L651.479 429.912C654.283 433.984 658.338 440.003 662.636 446.6M625.101 399.766C630.175 403.534 642.553 411.071 651.479 411.071C662.636 411.071 684.855 407.841 691.853 406.226C698.851 404.611 713.294 393.306 719.8 393.306L738.149 399.766H749.5L778.5 460.5M705.997 500.628C700.385 498.409 687.654 490.85 681.625 478.361C677.839 470.518 669.892 457.736 662.636 446.6M705.997 500.628L737.61 528.425L785.471 577.5M705.997 500.628C704.948 502.586 703.759 504.721 702.44 507C701.371 508.849 700.216 510.792 698.981 512.813L750 634.5L751.5 708M662.636 446.6C676.192 450.189 705.065 457.366 712.113 457.366C717.909 456.244 730.7 454.2 735.5 455C741.5 456 760.5 463.634 778.5 460.5M501.898 414.839L454.992 407.841L371.14 412.147H330.64L237.241 463.288L143.843 514.428L17.3374 571.49M2.80273 262.494L156.292 296.947C185.361 301.575 229.446 309.349 268.733 317.847C310.171 326.811 346.272 336.582 353.788 344.319C368.43 359.392 419.104 368.902 442.611 371.773L508.286 395.947M488.473 296.947L471.142 249.232L435.612 147.832L402.237 81.0801L361.324 5.17699M523.897 19.7116C526.589 53.9847 531.649 124.899 530.357 134.374C529.293 142.18 522.382 148.348 520.876 155.5C520.098 159.2 520.765 163.162 524.435 167.75L538.5 236.202M603.569 243.478C603.569 232.887 603.996 213.615 605.389 195.742C606.207 185.249 607.359 175.238 608.952 167.75C614.335 142.449 615.95 133.297 614.335 113.379C613.472 102.741 613.522 71.0334 613.81 42.3211M614.335 4.63867C614.156 14.4786 613.953 28.0288 613.81 42.3211M639.098 80.8976C644.481 95.2496 639.636 107.458 639.098 117.686C638.559 127.914 649.864 169.365 655.247 181.746C660.025 192.735 686.43 213.901 695.319 226.427M639.098 79.4652L613.81 42.3211M695.319 226.427C685.603 227.719 666.709 250.132 658.477 261.177L621.333 301.461C622.652 301.881 623.911 302.348 625.101 302.868C626.008 303.265 626.905 303.715 627.793 304.214C619.718 316.147 603.03 340.874 600.877 344.319C597.085 347.213 588.1 353.1 582.5 353.5M695.319 226.427L790.5 161L841 98M778.5 460.5C796.5 457.366 818 457.5 832 459C843.2 460.2 903.667 449.5 932.5 444L1015 415M964 709.5L864.5 641.687M751.5 708L770 823.5M751.5 708L864.5 641.687M367 768.83L336.868 905M367 768.83L356.418 781.5M356.418 781.5C326.279 787.667 300 795.7 282 794.5M864.5 641.687L815.5 608.291L785.471 577.5M785.471 577.5L770 588.5L861 808.5" stroke="#E8E4E2" stroke-width="2" stroke-linecap="round" stroke-linejoin="bevel"/>
<path d="M382.269 448.922C382.23 449.37 382.11 449.745 381.91 450.047C381.707 450.35 381.432 450.571 381.087 450.71C380.741 450.85 380.333 450.898 379.863 450.857L377.086 450.612C376.616 450.57 376.223 450.451 375.907 450.253C375.588 450.055 375.356 449.789 375.212 449.456C375.065 449.123 375.012 448.733 375.051 448.285C375.09 447.844 375.21 447.481 375.412 447.195C375.614 446.909 375.9 446.699 376.271 446.565C376.64 446.427 377.098 446.366 377.645 446.382L377.53 447.685C377.272 447.682 377.058 447.708 376.886 447.761C376.715 447.811 376.584 447.89 376.493 447.996C376.399 448.102 376.345 448.236 376.33 448.398C376.315 448.57 376.339 448.721 376.403 448.851C376.463 448.98 376.562 449.084 376.699 449.161C376.833 449.238 377 449.286 377.201 449.303L379.979 449.549C380.18 449.566 380.353 449.549 380.498 449.496C380.643 449.444 380.758 449.359 380.844 449.243C380.926 449.126 380.975 448.981 380.99 448.809C381.004 448.647 380.976 448.506 380.905 448.385C380.834 448.261 380.719 448.16 380.559 448.08C380.397 447.997 380.188 447.936 379.933 447.898L380.048 446.594C380.59 446.678 381.032 446.818 381.374 447.015C381.713 447.212 381.956 447.468 382.105 447.785C382.253 448.102 382.308 448.481 382.269 448.922ZM375.57 443.243L375.644 442.397L382.91 440.823L382.794 442.141L377.946 443.027L382.564 444.748L382.448 446.061L375.57 443.243ZM380.231 444.635L380.48 441.809L381.687 441.916L381.437 444.742L380.231 444.635ZM381.759 439.927L381.769 439.811C381.791 439.568 381.679 439.371 381.434 439.222C381.189 439.07 380.824 438.972 380.337 438.929L375.984 438.545L376.092 437.324L380.187 437.686C380.748 437.735 381.221 437.842 381.605 438.007C381.989 438.172 382.276 438.403 382.465 438.701C382.655 438.995 382.731 439.36 382.692 439.794L382.673 440.008L381.759 439.927ZM381.752 440.01L381.857 438.814L384.445 439.042L384.339 440.239L381.752 440.01ZM381.752 440.01L382.197 434.966L383.418 435.074L382.973 440.118L381.752 440.01ZM382.125 435.779L382.231 434.582L384.818 434.81L384.713 436.007L382.125 435.779ZM376.208 436.006L376.32 434.737L383.392 435.361L383.28 436.63L376.208 436.006ZM376.056 437.728L376.259 435.432L377.48 435.54L377.277 437.836L376.056 437.728ZM383.809 431.472C383.77 431.916 383.65 432.296 383.449 432.612C383.245 432.927 382.974 433.159 382.637 433.309C382.301 433.459 381.915 433.515 381.48 433.477L378.533 433.217C378.098 433.178 377.728 433.056 377.423 432.849C377.115 432.642 376.889 432.366 376.746 432.02C376.604 431.674 376.552 431.279 376.591 430.835C376.631 430.387 376.751 430.006 376.952 429.69C377.153 429.375 377.424 429.142 377.764 428.992C378.1 428.842 378.486 428.786 378.921 428.825L381.868 429.085C382.303 429.123 382.672 429.246 382.978 429.452C383.283 429.659 383.509 429.936 383.654 430.282C383.797 430.628 383.849 431.024 383.809 431.472ZM382.54 431.36C382.556 431.178 382.533 431.016 382.47 430.873C382.404 430.73 382.305 430.617 382.172 430.533C382.038 430.45 381.878 430.399 381.69 430.383L378.859 430.133C378.674 430.117 378.509 430.138 378.363 430.197C378.217 430.256 378.101 430.35 378.015 430.48C377.925 430.609 377.872 430.765 377.856 430.946C377.84 431.128 377.865 431.29 377.93 431.433C377.993 431.573 378.091 431.684 378.224 431.768C378.358 431.852 378.517 431.902 378.701 431.918L381.532 432.168C381.72 432.184 381.887 432.163 382.033 432.104C382.179 432.045 382.296 431.953 382.386 431.827C382.472 431.697 382.524 431.541 382.54 431.36ZM382.911 426.986L383.057 425.328C383.077 425.101 383.036 424.921 382.934 424.787C382.831 424.651 382.678 424.574 382.474 424.556L381.992 424.513C381.846 424.5 381.719 424.518 381.61 424.568C381.498 424.613 381.41 424.689 381.345 424.794C381.28 424.896 381.241 425.024 381.228 425.176L381.082 426.825L379.881 426.719L380.025 425.085C380.043 424.877 380.001 424.711 379.897 424.588C379.791 424.461 379.632 424.388 379.422 424.369L379.042 424.336C378.857 424.32 378.71 424.365 378.599 424.473C378.485 424.578 378.419 424.734 378.401 424.941L378.256 426.575L377.05 426.469L377.202 424.752C377.236 424.363 377.332 424.036 377.489 423.772C377.643 423.508 377.853 423.316 378.118 423.196C378.384 423.075 378.695 423.031 379.052 423.062L379.431 423.096C379.674 423.117 379.886 423.183 380.065 423.294C380.245 423.405 380.389 423.556 380.496 423.749C380.6 423.941 380.662 424.165 380.682 424.422C380.741 424.153 380.845 423.926 380.991 423.743C381.135 423.56 381.314 423.427 381.527 423.345C381.74 423.259 381.983 423.228 382.255 423.252L382.742 423.295C383.102 423.327 383.403 423.425 383.647 423.591C383.887 423.756 384.062 423.982 384.17 424.269C384.279 424.556 384.316 424.893 384.282 425.279L384.122 427.093L382.911 426.986ZM376.994 427.106L377.106 425.837L384.178 426.461L384.066 427.73L376.994 427.106ZM384.83 419.906C384.791 420.35 384.671 420.73 384.47 421.046C384.265 421.361 383.995 421.594 383.658 421.744C383.321 421.894 382.936 421.95 382.501 421.911L379.554 421.651C379.119 421.613 378.749 421.49 378.444 421.284C378.135 421.077 377.91 420.8 377.767 420.454C377.625 420.108 377.573 419.713 377.612 419.269C377.651 418.822 377.772 418.44 377.973 418.125C378.174 417.809 378.444 417.576 378.784 417.427C379.121 417.277 379.507 417.221 379.941 417.259L382.889 417.519C383.323 417.558 383.693 417.68 383.998 417.887C384.304 418.094 384.529 418.37 384.675 418.716C384.818 419.062 384.87 419.459 384.83 419.906ZM383.561 419.794C383.577 419.613 383.553 419.45 383.491 419.308C383.425 419.165 383.325 419.051 383.192 418.968C383.059 418.884 382.899 418.834 382.711 418.817L379.88 418.567C379.695 418.551 379.53 418.572 379.384 418.631C379.238 418.69 379.122 418.785 379.035 418.914C378.946 419.044 378.893 419.199 378.877 419.381C378.861 419.562 378.885 419.725 378.951 419.868C379.014 420.007 379.112 420.119 379.245 420.203C379.378 420.286 379.537 420.336 379.722 420.352L382.553 420.602C382.741 420.619 382.908 420.598 383.054 420.539C383.199 420.48 383.317 420.387 383.407 420.261C383.493 420.131 383.545 419.976 383.561 419.794ZM378.015 415.541L378.127 414.271L385.199 414.895L385.087 416.165L378.015 415.541ZM383.901 415.55L384.204 412.116L385.434 412.225L385.131 415.659L383.901 415.55ZM381.002 415.294L381.271 412.25L382.501 412.358L382.232 415.403L381.002 415.294ZM378.059 415.035L378.362 411.601L379.593 411.709L379.29 415.143L378.059 415.035ZM382.021 406.694L378.929 405.176L379.052 403.79L382.961 405.821L382.021 406.694ZM382.769 406.775L382.264 405.603L386.15 404.118L386.02 405.586L382.769 406.775ZM378.654 408.294L378.766 407.025L385.838 407.649L385.726 408.918L378.654 408.294ZM381.651 408L381.844 405.811L383.065 405.919L382.871 408.107L381.651 408ZM386.478 401.24C386.438 401.684 386.318 402.064 386.117 402.38C385.913 402.695 385.642 402.928 385.306 403.078C384.969 403.228 384.583 403.284 384.149 403.245L381.201 402.985C380.767 402.947 380.397 402.824 380.091 402.618C379.783 402.411 379.557 402.134 379.415 401.788C379.272 401.442 379.22 401.047 379.259 400.603C379.299 400.156 379.419 399.774 379.62 399.458C379.821 399.143 380.092 398.91 380.432 398.761C380.769 398.611 381.154 398.555 381.589 398.593L384.536 398.853C384.971 398.892 385.341 399.014 385.646 399.221C385.951 399.427 386.177 399.704 386.323 400.05C386.465 400.396 386.517 400.793 386.478 401.24ZM385.208 401.128C385.224 400.946 385.201 400.784 385.138 400.642C385.072 400.498 384.973 400.385 384.84 400.301C384.707 400.218 384.546 400.168 384.358 400.151L381.527 399.901C381.342 399.885 381.177 399.906 381.031 399.965C380.886 400.024 380.769 400.119 380.683 400.248C380.593 400.378 380.54 400.533 380.524 400.715C380.508 400.896 380.533 401.059 380.599 401.202C380.662 401.341 380.76 401.453 380.893 401.536C381.026 401.62 381.185 401.67 381.37 401.686L384.2 401.936C384.389 401.953 384.555 401.932 384.701 401.873C384.847 401.814 384.965 401.721 385.054 401.595C385.141 401.465 385.192 401.31 385.208 401.128ZM385.492 397.683C385.507 397.518 385.48 397.375 385.413 397.255C385.345 397.131 385.238 397.033 385.091 396.961C384.943 396.89 384.759 396.844 384.539 396.824L379.704 396.398L379.816 395.128L384.748 395.564C385.212 395.604 385.596 395.714 385.901 395.891C386.206 396.065 386.428 396.305 386.567 396.611C386.704 396.914 386.754 397.276 386.717 397.698L386.708 397.79L385.492 397.683ZM379.943 393.689L380.055 392.419L387.127 393.043L387.015 394.313L379.943 393.689ZM379.772 395.634L379.996 393.095L381.216 393.203L380.992 395.742L379.772 395.634ZM386.103 390.708L386.249 389.059C386.261 388.917 386.24 388.791 386.184 388.681C386.125 388.568 386.039 388.477 385.924 388.408C385.806 388.339 385.666 388.297 385.504 388.283L385.221 388.258C385.053 388.243 384.904 388.259 384.776 388.307C384.645 388.351 384.542 388.423 384.468 388.525C384.39 388.626 384.345 388.748 384.332 388.89L384.187 390.539L382.966 390.431L383.12 388.69C383.154 388.301 383.262 387.971 383.442 387.699C383.623 387.427 383.865 387.226 384.167 387.096C384.466 386.966 384.81 386.918 385.199 386.952L385.759 387.001C386.141 387.035 386.469 387.143 386.74 387.323C387.012 387.504 387.211 387.746 387.338 388.048C387.465 388.346 387.512 388.689 387.478 389.075L387.324 390.816L386.103 390.708ZM380.198 390.805L380.31 389.535L387.382 390.159L387.27 391.429L380.198 390.805ZM380.973 382.129L381.085 380.859L388.148 381.483L388.036 382.752L380.973 382.129ZM386.617 384.887L386.933 381.312L388.153 381.419L387.838 384.994L386.617 384.887ZM386.886 381.837L386.994 380.616L389.825 380.866L389.717 382.087L386.886 381.837ZM380.699 385.124L380.811 383.855L387.883 384.479L387.771 385.748L380.699 385.124ZM388.574 377.486C388.535 377.931 388.415 378.311 388.214 378.626C388.009 378.941 387.739 379.174 387.402 379.324C387.065 379.474 386.68 379.53 386.245 379.492L383.298 379.231C382.863 379.193 382.493 379.071 382.188 378.864C381.879 378.657 381.654 378.38 381.511 378.035C381.369 377.689 381.317 377.294 381.356 376.849C381.395 376.402 381.516 376.02 381.717 375.705C381.918 375.389 382.188 375.156 382.528 375.007C382.865 374.857 383.251 374.801 383.685 374.839L386.633 375.099C387.067 375.138 387.437 375.26 387.742 375.467C388.048 375.674 388.273 375.95 388.419 376.296C388.562 376.642 388.614 377.039 388.574 377.486ZM387.305 377.374C387.321 377.193 387.297 377.031 387.235 376.888C387.169 376.745 387.069 376.631 386.936 376.548C386.803 376.464 386.643 376.414 386.455 376.397L383.624 376.148C383.439 376.131 383.274 376.153 383.128 376.212C382.982 376.271 382.866 376.365 382.779 376.495C382.69 376.624 382.637 376.779 382.621 376.961C382.605 377.143 382.629 377.305 382.695 377.448C382.758 377.587 382.856 377.699 382.989 377.783C383.122 377.866 383.281 377.916 383.466 377.933L386.297 378.182C386.485 378.199 386.652 378.178 386.798 378.119C386.943 378.06 387.061 377.967 387.151 377.841C387.237 377.712 387.289 377.556 387.305 377.374Z" fill="#F9F5F3"/>
</g>
<path d="M227.557 207.998L228.194 206.895L233.835 210.151L233.198 211.255L227.557 207.998ZM226.273 209.05L228.463 205.257L229.524 205.87L227.334 209.663L226.273 209.05ZM229.822 204.074L230.459 202.971L236.1 206.228L235.463 207.331L229.822 204.074ZM228.538 205.126L230.728 201.333L231.79 201.946L229.6 205.739L228.538 205.126ZM234.897 200.538L232.735 197.858L233.431 196.652L236.118 200.143L234.897 200.538ZM235.541 200.927L235.578 199.651L239.728 199.944L238.991 201.221L235.541 200.927ZM231.17 200.568L231.807 199.464L237.956 203.014L237.319 204.118L231.17 200.568ZM234.011 201.566L235.11 199.663L236.171 200.275L235.072 202.178L234.011 201.566Z" fill="#393D46"/>
<path d="M468.276 572.059C467.887 571.835 467.598 571.568 467.408 571.259C467.219 570.947 467.135 570.605 467.154 570.233C467.174 569.861 467.302 569.47 467.538 569.062L468.932 566.647C469.168 566.238 469.442 565.932 469.755 565.729C470.069 565.524 470.407 565.426 470.77 565.436C471.134 565.443 471.51 565.559 471.899 565.784C472.283 566.005 472.562 566.268 472.736 566.571C472.91 566.875 472.98 567.223 472.945 567.616C472.914 568.008 472.776 568.449 472.53 568.939L471.397 568.285C471.509 568.052 471.577 567.847 471.6 567.669C471.627 567.493 471.611 567.341 471.553 567.213C471.497 567.083 471.398 566.977 471.257 566.896C471.108 566.81 470.961 566.768 470.816 566.771C470.674 566.771 470.538 566.817 470.41 566.909C470.284 566.997 470.17 567.129 470.069 567.304L468.675 569.718C468.574 569.893 468.517 570.057 468.503 570.211C468.49 570.365 468.518 570.505 468.587 570.632C468.659 570.756 468.769 570.861 468.919 570.947C469.059 571.028 469.2 571.062 469.339 571.049C469.481 571.037 469.622 570.975 469.761 570.864C469.905 570.752 470.048 570.588 470.191 570.374L471.324 571.028C471.02 571.484 470.706 571.825 470.384 572.052C470.062 572.276 469.727 572.389 469.377 572.39C469.027 572.391 468.66 572.28 468.276 572.059ZM476.252 568.381L476.988 568.806L475.349 576.058L474.203 575.396L475.445 570.628L471.937 574.088L470.795 573.429L476.252 568.381ZM473.023 572.02L475.48 573.439L474.875 574.487L472.418 573.069L473.023 572.02ZM476.647 575.392L476.748 575.451C476.96 575.573 477.185 575.554 477.423 575.395C477.664 575.237 477.907 574.947 478.151 574.524L480.336 570.739L481.398 571.352L479.342 574.913C479.061 575.4 478.764 575.784 478.453 576.063C478.141 576.341 477.811 576.504 477.461 576.55C477.114 576.598 476.752 576.512 476.374 576.294L476.188 576.187L476.647 575.392ZM476.575 575.35L477.615 575.951L476.316 578.201L475.276 577.6L476.575 575.35ZM476.575 575.35L480.96 577.882L480.347 578.944L475.962 576.412L476.575 575.35ZM480.254 577.474L481.294 578.075L479.995 580.325L478.955 579.724L480.254 577.474ZM482.544 572.014L483.647 572.651L480.098 578.8L478.994 578.162L482.544 572.014ZM481.047 571.15L483.043 572.302L482.43 573.363L480.434 572.211L481.047 571.15ZM483.448 580.818C483.062 580.595 482.768 580.326 482.567 580.011C482.367 579.692 482.27 579.349 482.276 578.98C482.282 578.612 482.394 578.239 482.612 577.861L484.092 575.298C484.31 574.921 484.577 574.637 484.893 574.447C485.211 574.255 485.557 574.167 485.931 574.184C486.305 574.2 486.685 574.32 487.071 574.543C487.46 574.768 487.755 575.038 487.956 575.353C488.158 575.668 488.254 576.012 488.247 576.383C488.241 576.752 488.129 577.125 487.91 577.503L486.431 580.065C486.213 580.443 485.946 580.727 485.629 580.916C485.313 581.106 484.967 581.194 484.592 581.18C484.218 581.164 483.837 581.043 483.448 580.818ZM484.085 579.715C484.243 579.806 484.4 579.853 484.556 579.857C484.713 579.857 484.858 579.815 484.99 579.73C485.122 579.644 485.235 579.52 485.329 579.356L486.75 576.895C486.843 576.734 486.893 576.576 486.901 576.419C486.909 576.262 486.873 576.116 486.792 575.983C486.713 575.847 486.594 575.734 486.436 575.642C486.278 575.551 486.121 575.505 485.963 575.505C485.81 575.503 485.668 575.545 485.536 575.63C485.404 575.715 485.291 575.838 485.198 575.999L483.777 578.46C483.683 578.624 483.632 578.784 483.624 578.941C483.616 579.098 483.65 579.244 483.727 579.378C483.808 579.511 483.927 579.623 484.085 579.715ZM487.894 581.897L489.335 582.729C489.533 582.843 489.714 582.882 489.878 582.845C490.045 582.81 490.179 582.703 490.282 582.526L490.524 582.107C490.597 581.98 490.634 581.857 490.635 581.737C490.641 581.617 490.61 581.505 490.542 581.401C490.476 581.3 490.378 581.211 490.245 581.134L488.811 580.307L489.415 579.262L490.835 580.082C491.016 580.187 491.184 580.218 491.339 580.176C491.5 580.133 491.632 580.02 491.738 579.837L491.929 579.507C492.021 579.346 492.042 579.193 491.991 579.047C491.945 578.9 491.831 578.774 491.651 578.67L490.23 577.85L490.835 576.801L492.328 577.663C492.666 577.858 492.922 578.083 493.095 578.337C493.269 578.588 493.355 578.859 493.352 579.151C493.349 579.442 493.258 579.743 493.079 580.053L492.889 580.383C492.767 580.594 492.618 580.758 492.442 580.875C492.265 580.991 492.068 581.057 491.848 581.073C491.63 581.086 491.4 581.048 491.159 580.957C491.378 581.125 491.539 581.314 491.644 581.524C491.749 581.732 491.794 581.95 491.779 582.178C491.767 582.408 491.692 582.641 491.556 582.878L491.312 583.301C491.131 583.613 490.914 583.845 490.662 583.997C490.411 584.145 490.132 584.208 489.826 584.185C489.519 584.162 489.198 584.054 488.863 583.86L487.286 582.95L487.894 581.897ZM490.281 576.481L491.385 577.118L487.835 583.267L486.732 582.63L490.281 576.481ZM493.503 586.624C493.117 586.401 492.823 586.131 492.622 585.816C492.422 585.498 492.325 585.154 492.331 584.786C492.337 584.417 492.449 584.044 492.667 583.666L494.147 581.104C494.365 580.726 494.632 580.442 494.948 580.253C495.266 580.06 495.612 579.972 495.986 579.989C496.36 580.006 496.74 580.125 497.126 580.348C497.515 580.573 497.81 580.843 498.011 581.158C498.213 581.474 498.309 581.817 498.302 582.189C498.296 582.557 498.184 582.93 497.965 583.308L496.486 585.871C496.268 586.248 496.001 586.532 495.685 586.722C495.368 586.911 495.023 586.999 494.647 586.985C494.273 586.969 493.892 586.848 493.503 586.624ZM494.14 585.52C494.298 585.611 494.455 585.658 494.611 585.662C494.768 585.663 494.913 585.62 495.045 585.535C495.177 585.449 495.29 585.325 495.384 585.161L496.805 582.7C496.898 582.54 496.948 582.381 496.956 582.224C496.964 582.067 496.928 581.922 496.847 581.788C496.768 581.652 496.649 581.539 496.491 581.448C496.333 581.357 496.176 581.311 496.018 581.31C495.865 581.308 495.723 581.35 495.591 581.435C495.459 581.521 495.346 581.644 495.253 581.804L493.832 584.265C493.738 584.429 493.687 584.589 493.679 584.746C493.671 584.903 493.705 585.049 493.782 585.183C493.863 585.317 493.982 585.429 494.14 585.52ZM500.337 582.287L501.44 582.924L497.89 589.072L496.787 588.435L500.337 582.287ZM497.844 587.619L500.83 589.343L500.212 590.413L497.226 588.689L497.844 587.619ZM499.299 585.099L501.946 586.627L501.329 587.697L498.682 586.169L499.299 585.099ZM500.776 582.54L503.762 584.264L503.144 585.334L500.159 583.61L500.776 582.54Z" fill="#393D46"/>
<path d="M391 245H287V281.571H335L338 285L341 281.571H391V245Z" fill="#393D46"/>
<path d="M303.241 258.77C303.237 257.909 302.9 257.084 302.303 256.477C301.706 255.869 300.897 255.528 300.055 255.528H298.137V262.01H300.029C300.447 262.011 300.86 261.929 301.246 261.766C301.631 261.604 301.982 261.366 302.277 261.064C302.572 260.763 302.807 260.406 302.966 260.012C303.126 259.618 303.208 259.196 303.208 258.77H303.241ZM302.576 263.966L305.485 272.349H302.663L299.931 264.58H298.143V272.349H295.594V252.928H300.035C301.324 252.92 302.577 253.359 303.59 254.174C304.602 254.989 305.314 256.13 305.61 257.412C305.905 258.695 305.765 260.041 305.214 261.231C304.663 262.422 303.733 263.386 302.576 263.966Z" fill="#F9F5F3"/>
<path d="M317.023 252.93H307.391V272.347H317.023V269.751H309.939V264.58H316.393V262.01H309.939V255.528H317.023V252.93Z" fill="#F9F5F3"/>
<path d="M326.298 258.77C326.294 257.91 325.957 257.087 325.362 256.479C324.766 255.872 323.959 255.53 323.118 255.528H321.192V262.01H323.085C323.502 262.011 323.915 261.928 324.301 261.766C324.686 261.603 325.037 261.365 325.332 261.064C325.627 260.763 325.861 260.405 326.021 260.012C326.181 259.618 326.263 259.196 326.263 258.77H326.298ZM323.118 264.58H321.192V272.349H318.652V252.928H323.093C323.841 252.926 324.583 253.075 325.275 253.366C325.967 253.657 326.596 254.085 327.126 254.625C327.657 255.164 328.078 255.805 328.366 256.511C328.654 257.217 328.803 257.974 328.805 258.739C328.806 259.504 328.66 260.262 328.376 260.969C328.091 261.676 327.672 262.319 327.144 262.861C326.616 263.403 325.989 263.834 325.298 264.128C324.607 264.422 323.866 264.575 323.118 264.576" fill="#F9F5F3"/>
<path d="M340.664 267.44C340.664 268.814 340.13 270.133 339.179 271.104C338.228 272.076 336.938 272.622 335.593 272.622C334.248 272.622 332.958 272.076 332.007 271.104C331.056 270.133 330.522 268.814 330.522 267.44C330.522 262.593 330.547 257.771 330.547 252.924H333.068V267.44C333.086 268.115 333.361 268.756 333.835 269.226C334.308 269.697 334.943 269.961 335.603 269.961C336.264 269.961 336.899 269.697 337.372 269.226C337.846 268.756 338.121 268.115 338.139 267.44V252.924H340.687C340.687 258.736 340.662 256.031 340.662 267.44" fill="#F9F5F3"/>
<path d="M346.867 263.269H344.95V269.751H346.842C347.265 269.763 347.686 269.689 348.081 269.532C348.475 269.376 348.835 269.14 349.139 268.839C349.443 268.538 349.685 268.179 349.851 267.781C350.017 267.383 350.103 266.955 350.105 266.523C350.106 266.09 350.023 265.662 349.861 265.263C349.698 264.864 349.459 264.502 349.157 264.199C348.855 263.895 348.497 263.657 348.104 263.497C347.711 263.337 347.291 263.26 346.867 263.269ZM346.867 255.528H344.95V260.698H346.842C347.517 260.698 348.164 260.425 348.642 259.938C349.12 259.451 349.389 258.79 349.39 258.1C349.392 257.761 349.329 257.425 349.203 257.112C349.077 256.798 348.891 256.513 348.657 256.274C348.422 256.034 348.143 255.844 347.837 255.716C347.53 255.587 347.201 255.522 346.869 255.524L346.867 255.528ZM346.869 272.345H342.409V252.924H346.85C347.517 252.921 348.178 253.052 348.795 253.31C349.412 253.568 349.973 253.948 350.447 254.428C350.92 254.908 351.296 255.479 351.553 256.108C351.811 256.736 351.944 257.411 351.946 258.092C351.947 258.803 351.802 259.506 351.522 260.156C351.241 260.807 350.831 261.39 350.317 261.869C351.27 262.606 351.971 263.63 352.324 264.796C352.676 265.963 352.661 267.213 352.28 268.37C351.9 269.527 351.174 270.533 350.204 271.245C349.234 271.958 348.07 272.341 346.875 272.341" fill="#F9F5F3"/>
<path d="M354.198 272.347V252.93H356.746V269.749H360.845V272.347H354.198Z" fill="#F9F5F3"/>
<path d="M377.788 272.616C377.122 272.62 376.462 272.489 375.846 272.231C375.23 271.973 374.67 271.593 374.199 271.112C373.727 270.632 373.354 270.06 373.099 269.432C372.845 268.803 372.715 268.128 372.717 267.448V257.833C372.717 256.458 373.252 255.14 374.203 254.168C375.154 253.196 376.443 252.65 377.788 252.65C379.133 252.65 380.423 253.196 381.374 254.168C382.325 255.14 382.859 256.458 382.859 257.833H380.338C380.338 257.142 380.07 256.48 379.592 255.991C379.114 255.503 378.466 255.229 377.79 255.229C377.114 255.229 376.466 255.503 375.988 255.991C375.511 256.48 375.242 257.142 375.242 257.833V267.448C375.233 267.794 375.291 268.139 375.415 268.462C375.538 268.784 375.723 269.079 375.959 269.327C376.196 269.575 376.478 269.773 376.791 269.908C377.103 270.042 377.439 270.112 377.778 270.112C378.117 270.112 378.452 270.042 378.764 269.908C379.077 269.773 379.359 269.575 379.596 269.327C379.832 269.079 380.017 268.784 380.141 268.462C380.264 268.139 380.323 267.794 380.313 267.448H382.859C382.861 268.128 382.732 268.803 382.477 269.432C382.223 270.06 381.849 270.632 381.378 271.112C380.906 271.593 380.346 271.973 379.73 272.231C379.114 272.489 378.454 272.62 377.788 272.616Z" fill="#F9F5F3"/>
<path d="M362.618 272.349V269.751H363.091C363.766 269.751 364.413 269.478 364.891 268.991C365.369 268.504 365.638 267.842 365.639 267.153V256.164C365.639 255.995 365.573 255.833 365.455 255.714C365.338 255.595 365.18 255.528 365.015 255.528H362.593V252.932H371.207V255.528H368.81C368.645 255.528 368.486 255.595 368.37 255.714C368.253 255.833 368.187 255.995 368.187 256.164V267.153C368.187 267.494 368.254 267.833 368.382 268.148C368.51 268.464 368.698 268.75 368.934 268.991C369.171 269.233 369.452 269.424 369.761 269.554C370.07 269.684 370.401 269.751 370.735 269.751H371.207V272.349H362.618Z" fill="#F9F5F3"/>
<path d="M442.417 185.284H442.581C442.923 185.284 443.183 185.104 443.36 184.744C443.543 184.384 443.634 183.862 443.634 183.179V177.061H445.35V182.816C445.35 183.605 445.258 184.277 445.076 184.833C444.894 185.389 444.607 185.817 444.215 186.118C443.827 186.419 443.328 186.569 442.718 186.569H442.417V185.284ZM442.301 185.284H443.982V188.921H442.301V185.284ZM442.301 185.284H449.39V187H442.301V185.284ZM448.248 185.284H449.93V188.921H448.248V185.284ZM447.202 177.061H448.986V187H447.202V177.061ZM444.782 177.061H448.009V178.776H444.782V177.061ZM451.686 177.061H453.47V187H451.686V177.061ZM452.397 185.271H457.223V187H452.397V185.271ZM452.397 181.196H456.676V182.926H452.397V181.196ZM452.397 177.061H457.223V178.79H452.397V177.061ZM463.32 177.061H465.104V187H463.32V177.061ZM459.082 177.061H460.866V187H459.082V177.061ZM459.957 177.061H464.441V178.77H459.957V177.061ZM470.347 187.103C469.723 187.103 469.178 186.982 468.713 186.74C468.248 186.494 467.891 186.146 467.64 185.694C467.389 185.243 467.264 184.712 467.264 184.102V179.959C467.264 179.348 467.389 178.817 467.64 178.366C467.891 177.91 468.248 177.562 468.713 177.32C469.178 177.079 469.723 176.958 470.347 176.958C470.976 176.958 471.523 177.079 471.988 177.32C472.452 177.562 472.81 177.91 473.061 178.366C473.312 178.817 473.437 179.348 473.437 179.959V184.102C473.437 184.712 473.312 185.243 473.061 185.694C472.81 186.146 472.452 186.494 471.988 186.74C471.523 186.982 470.976 187.103 470.347 187.103ZM470.347 185.318C470.602 185.318 470.826 185.266 471.017 185.161C471.208 185.052 471.354 184.899 471.454 184.703C471.555 184.507 471.605 184.277 471.605 184.013V180.034C471.605 179.774 471.555 179.547 471.454 179.351C471.354 179.155 471.208 179.004 471.017 178.899C470.826 178.79 470.602 178.735 470.347 178.735C470.092 178.735 469.868 178.79 469.677 178.899C469.49 179.004 469.347 179.155 469.246 179.351C469.146 179.547 469.096 179.774 469.096 180.034V184.013C469.096 184.277 469.146 184.507 469.246 184.703C469.347 184.899 469.49 185.052 469.677 185.161C469.868 185.266 470.092 185.318 470.347 185.318Z" fill="#AD7C53"/>
<rect width="30" height="30" rx="15" transform="matrix(0 -1 -1 0 432 197)" fill="#AD7C53"/>
<path d="M420.639 186.639L422.967 188.966M410.552 176.552L416.759 182.759M412.104 175L415.983 178.879L412.88 181.983L409 178.103M410.552 188.966L423.743 175.776C424.062 176.855 424.087 178 423.814 179.091C423.541 180.183 422.98 181.181 422.191 181.983C419.447 184.726 417.535 185.083 417.535 185.083" stroke="#F9F5F3" stroke-width="1.5" stroke-linecap="square"/>
<path d="M564.5 419.559L566.236 415.061H568.185L565.833 420.762L564.5 419.559ZM564.479 420.611L566.052 419.764L568.602 425H566.537L564.479 420.611ZM561.854 415.061H563.639V425H561.854V415.061ZM562.634 419.203H565.71V420.919H562.634V419.203ZM570.768 419.429H573.236C573.418 419.429 573.575 419.388 573.707 419.306C573.844 419.219 573.949 419.098 574.022 418.943C574.099 418.788 574.138 418.608 574.138 418.403V417.822C574.138 417.608 574.102 417.424 574.029 417.269C573.956 417.109 573.851 416.988 573.714 416.906C573.582 416.82 573.423 416.776 573.236 416.776H570.768V415.061H573.236C573.792 415.061 574.275 415.168 574.685 415.382C575.1 415.591 575.416 415.897 575.635 416.298C575.859 416.694 575.97 417.161 575.97 417.699V418.533C575.97 419.066 575.859 419.529 575.635 419.921C575.412 420.313 575.095 420.616 574.685 420.83C574.275 421.04 573.792 421.145 573.236 421.145H570.768V419.429ZM569.948 415.061H571.732V425H569.948V415.061ZM577.932 415.061H579.716V425H577.932V415.061ZM578.642 423.271H583.469V425H578.642V423.271ZM578.642 419.196H582.922V420.926H578.642V419.196ZM578.642 415.061H583.469V416.79H578.642V415.061ZM590.933 415.061H592.963V425H591.357V417.672L591.439 418.109L589.771 423.564H588.52L586.845 418.246L586.948 417.672V425H585.327V415.061H587.371L589.142 421.11L590.933 415.061ZM595.02 423.291C595.253 423.291 595.449 423.236 595.608 423.127C595.772 423.018 595.895 422.856 595.977 422.642C596.059 422.427 596.1 422.165 596.1 421.855V415.061H597.885V421.992C597.885 422.644 597.78 423.193 597.57 423.64C597.365 424.086 597.057 424.426 596.647 424.658C596.242 424.886 595.743 425 595.15 425H595.02V423.291ZM599.908 415.061H601.692V425H599.908V415.061ZM597.174 415.061H600.742V416.776H597.174V415.061ZM604.822 423.284H607.14C607.34 423.284 607.514 423.239 607.659 423.147C607.81 423.052 607.926 422.92 608.008 422.751C608.09 422.578 608.131 422.377 608.131 422.149V421.753C608.131 421.516 608.09 421.311 608.008 421.138C607.931 420.96 607.817 420.826 607.666 420.734C607.516 420.639 607.34 420.591 607.14 420.591H604.822V418.875H607.27C607.817 418.875 608.291 418.984 608.692 419.203C609.093 419.422 609.403 419.734 609.621 420.14C609.84 420.541 609.949 421.015 609.949 421.562V422.348C609.949 422.885 609.84 423.355 609.621 423.756C609.403 424.157 609.09 424.465 608.685 424.679C608.284 424.893 607.812 425 607.27 425H604.822V423.284ZM603.961 415.061H605.745V425H603.961V415.061Z" fill="#AD7C53"/>
<rect width="40" height="40" rx="20" transform="matrix(0 -1 -1 0 553 439)" fill="#AD7C53"/>
<path d="M533 410.301L534.908 416.174L541.084 416.174L536.088 419.804L537.996 425.677L533 422.047L528.004 425.677L529.912 419.804L524.916 416.174L531.092 416.174L533 410.301Z" stroke="#F9F5F3" stroke-width="1.5"/>
<path d="M201.849 446.061H203.879V456H202.272V448.672L202.354 449.109L200.686 454.564H199.436L197.761 449.246L197.863 448.672V456H196.243V446.061H198.287L200.058 452.11L201.849 446.061ZM209.121 456.103C208.497 456.103 207.953 455.982 207.488 455.74C207.023 455.494 206.665 455.146 206.414 454.694C206.164 454.243 206.038 453.712 206.038 453.102V448.959C206.038 448.348 206.164 447.817 206.414 447.366C206.665 446.91 207.023 446.562 207.488 446.32C207.953 446.079 208.497 445.958 209.121 445.958C209.75 445.958 210.297 446.079 210.762 446.32C211.227 446.562 211.585 446.91 211.835 447.366C212.086 447.817 212.211 448.348 212.211 448.959V453.102C212.211 453.712 212.086 454.243 211.835 454.694C211.585 455.146 211.227 455.494 210.762 455.74C210.297 455.982 209.75 456.103 209.121 456.103ZM209.121 454.318C209.377 454.318 209.6 454.266 209.791 454.161C209.983 454.052 210.129 453.899 210.229 453.703C210.329 453.507 210.379 453.277 210.379 453.013V449.034C210.379 448.774 210.329 448.547 210.229 448.351C210.129 448.155 209.983 448.004 209.791 447.899C209.6 447.79 209.377 447.735 209.121 447.735C208.866 447.735 208.643 447.79 208.452 447.899C208.265 448.004 208.121 448.155 208.021 448.351C207.921 448.547 207.871 448.774 207.871 449.034V453.013C207.871 453.277 207.921 453.507 208.021 453.703C208.121 453.899 208.265 454.052 208.452 454.161C208.643 454.266 208.866 454.318 209.121 454.318ZM217.256 456.103C216.627 456.103 216.089 455.982 215.642 455.74C215.196 455.494 214.854 455.139 214.617 454.674C214.38 454.209 214.262 453.646 214.262 452.985V449.082C214.262 448.421 214.38 447.858 214.617 447.394C214.854 446.924 215.196 446.569 215.642 446.327C216.089 446.081 216.627 445.958 217.256 445.958C217.876 445.958 218.397 446.081 218.821 446.327C219.245 446.573 219.573 446.947 219.806 447.448C220.043 447.945 220.184 448.576 220.229 449.342H218.397C218.37 448.982 218.308 448.686 218.213 448.453C218.122 448.221 217.996 448.048 217.837 447.934C217.677 447.815 217.484 447.756 217.256 447.756C217.014 447.756 216.807 447.808 216.634 447.913C216.46 448.013 216.328 448.164 216.237 448.364C216.146 448.56 216.1 448.799 216.1 449.082V452.985C216.1 453.268 216.146 453.507 216.237 453.703C216.328 453.899 216.46 454.049 216.634 454.154C216.807 454.255 217.014 454.305 217.256 454.305C217.484 454.305 217.677 454.248 217.837 454.134C218.001 454.02 218.128 453.847 218.22 453.614C218.315 453.377 218.375 453.079 218.397 452.719H220.229C220.179 453.484 220.038 454.118 219.806 454.619C219.573 455.116 219.245 455.487 218.821 455.733C218.397 455.979 217.876 456.103 217.256 456.103ZM224.836 450.559L226.573 446.061H228.521L226.169 451.762L224.836 450.559ZM224.816 451.611L226.388 450.764L228.938 456H226.873L224.816 451.611ZM222.191 446.061H223.975V456H222.191V446.061ZM222.97 450.203H226.046V451.919H222.97V450.203ZM231.179 454.298H233.51C233.829 454.298 234.076 454.218 234.249 454.059C234.426 453.899 234.515 453.676 234.515 453.389V452.712C234.515 452.507 234.474 452.331 234.392 452.186C234.315 452.035 234.199 451.921 234.044 451.844C233.893 451.766 233.711 451.728 233.497 451.728H231.179V450.039H233.476C233.768 450.039 233.994 449.959 234.153 449.8C234.317 449.636 234.399 449.406 234.399 449.109V448.576C234.399 448.316 234.317 448.116 234.153 447.975C233.994 447.829 233.768 447.756 233.476 447.756H231.179V446.061H233.593C234.139 446.061 234.607 446.154 234.994 446.341C235.381 446.523 235.675 446.792 235.876 447.147C236.076 447.503 236.176 447.931 236.176 448.433V448.966C236.176 449.308 236.11 449.611 235.978 449.875C235.846 450.139 235.652 450.358 235.397 450.531C235.142 450.7 234.837 450.814 234.481 450.873C234.864 450.923 235.192 451.039 235.466 451.222C235.739 451.399 235.946 451.632 236.088 451.919C236.233 452.206 236.306 452.541 236.306 452.924V453.607C236.306 454.113 236.206 454.546 236.006 454.906C235.805 455.262 235.511 455.533 235.124 455.72C234.736 455.907 234.272 456 233.729 456H231.179V454.298ZM230.284 446.061H232.068V456H230.284V446.061ZM240.674 446.061H241.863L244.953 456H243.101L241.269 449.349L239.437 456H237.591L240.674 446.061ZM239.307 452.732H243.278V454.428H239.307V452.732ZM250.517 450.577V452.293H246.258V450.577H250.517ZM255.603 456.103C254.974 456.103 254.436 455.982 253.989 455.74C253.543 455.494 253.201 455.139 252.964 454.674C252.727 454.209 252.608 453.646 252.608 452.985V449.082C252.608 448.421 252.727 447.858 252.964 447.394C253.201 446.924 253.543 446.569 253.989 446.327C254.436 446.081 254.974 445.958 255.603 445.958C256.222 445.958 256.744 446.081 257.168 446.327C257.592 446.573 257.92 446.947 258.152 447.448C258.389 447.945 258.531 448.576 258.576 449.342H256.744C256.717 448.982 256.655 448.686 256.56 448.453C256.468 448.221 256.343 448.048 256.184 447.934C256.024 447.815 255.83 447.756 255.603 447.756C255.361 447.756 255.154 447.808 254.981 447.913C254.807 448.013 254.675 448.164 254.584 448.364C254.493 448.56 254.447 448.799 254.447 449.082V452.985C254.447 453.268 254.493 453.507 254.584 453.703C254.675 453.899 254.807 454.049 254.981 454.154C255.154 454.255 255.361 454.305 255.603 454.305C255.83 454.305 256.024 454.248 256.184 454.134C256.348 454.02 256.475 453.847 256.566 453.614C256.662 453.377 256.721 453.079 256.744 452.719H258.576C258.526 453.484 258.385 454.118 258.152 454.619C257.92 455.116 257.592 455.487 257.168 455.733C256.744 455.979 256.222 456.103 255.603 456.103ZM265.193 455.993V448.631L265.35 448.822L262.335 455.993H260.538V446.061H262.206V453.505L262.042 453.313L265.07 446.061H266.861V455.993H265.193ZM270.271 446.881H272.056V456H270.271V446.881ZM268.098 446.061H274.229V447.776H268.098V446.061ZM280.121 455.993V448.631L280.279 448.822L277.264 455.993H275.466V446.061H277.134V453.505L276.97 453.313L279.998 446.061H281.789V455.993H280.121Z" fill="#AD7C53"/>
<rect width="40" height="40" rx="20" transform="matrix(0 -1 -1 0 170 470)" fill="#AD7C53"/>
<path d="M158.612 457.562L158.664 458.186L155.749 458.195V457.5V452.311V447.935H157.81L158.612 457.562ZM140.941 458.244L140.941 457.5L140.941 453.202H141.686H142.038H142.788V452.452V442.882H146.203V448.68V449.43H146.953H147.342V457.5V458.223L140.941 458.244ZM149.909 457.5V441.743H150.156H150.906V440.993V440.557L151.855 439.75H153.249V452.737V457.5V458.204L149.909 458.214V457.5Z" stroke="#F9F5F3" stroke-width="1.5"/>
<circle cx="383" cy="213" r="8" fill="#393D46"/>
<path d="M386.715 214.868L384.343 208.763H384.242L382.527 212.093L380.761 208.713L378.339 214.868H377.683V215.323H381.114V214.868H380.458L381.114 212.951L382.527 215.323L383.889 212.951L384.545 214.868H383.889V215.323H387.27V214.868H386.715Z" fill="#F9F5F3"/>
<path d="M398.226 215.774H399.905C400.049 215.774 400.172 215.742 400.276 215.677C400.384 215.608 400.467 215.514 400.525 215.394C400.584 215.27 400.613 215.127 400.613 214.964V214.681C400.613 214.511 400.584 214.365 400.525 214.241C400.47 214.114 400.389 214.018 400.281 213.953C400.174 213.885 400.049 213.851 399.905 213.851H398.226V212.625H399.998C400.389 212.625 400.727 212.703 401.014 212.859C401.3 213.016 401.521 213.239 401.678 213.528C401.834 213.815 401.912 214.153 401.912 214.544V215.105C401.912 215.49 401.834 215.825 401.678 216.111C401.521 216.398 401.299 216.618 401.009 216.771C400.722 216.924 400.385 217 399.998 217H398.226V215.774ZM397.61 209.9H398.885V217H397.61V209.9ZM398.216 209.9H401.492V211.126H398.216V209.9ZM403.333 209.9H404.607V217H403.333V209.9ZM403.84 215.765H407.288V217H403.84V215.765ZM403.84 212.854H406.897V214.09H403.84V212.854ZM403.84 209.9H407.288V211.136H403.84V209.9ZM408.469 215.779C408.635 215.779 408.775 215.74 408.889 215.662C409.006 215.584 409.094 215.468 409.153 215.315C409.211 215.162 409.24 214.975 409.24 214.754V209.9H410.515V214.852C410.515 215.317 410.44 215.709 410.29 216.028C410.144 216.347 409.924 216.59 409.631 216.756C409.341 216.919 408.985 217 408.562 217H408.469V215.779ZM411.96 209.9H413.235V217H411.96V209.9ZM410.007 209.9H412.556V211.126H410.007V209.9ZM416.984 217.073C416.538 217.073 416.149 216.987 415.817 216.814C415.485 216.639 415.23 216.39 415.051 216.067C414.872 215.745 414.782 215.366 414.782 214.93V211.971C414.782 211.535 414.872 211.155 415.051 210.833C415.23 210.507 415.485 210.258 415.817 210.086C416.149 209.913 416.538 209.827 416.984 209.827C417.433 209.827 417.824 209.913 418.156 210.086C418.488 210.258 418.744 210.507 418.923 210.833C419.102 211.155 419.191 211.535 419.191 211.971V214.93C419.191 215.366 419.102 215.745 418.923 216.067C418.744 216.39 418.488 216.639 418.156 216.814C417.824 216.987 417.433 217.073 416.984 217.073ZM416.984 215.799C417.166 215.799 417.326 215.761 417.463 215.687C417.599 215.608 417.704 215.499 417.775 215.359C417.847 215.219 417.883 215.055 417.883 214.866V212.024C417.883 211.839 417.847 211.676 417.775 211.536C417.704 211.396 417.599 211.289 417.463 211.214C417.326 211.136 417.166 211.097 416.984 211.097C416.802 211.097 416.642 211.136 416.506 211.214C416.372 211.289 416.27 211.396 416.198 211.536C416.126 211.676 416.091 211.839 416.091 212.024V214.866C416.091 215.055 416.126 215.219 416.198 215.359C416.27 215.499 416.372 215.608 416.506 215.687C416.642 215.761 416.802 215.799 416.984 215.799ZM421.32 213.021H423.082C423.213 213.021 423.325 212.991 423.419 212.933C423.517 212.871 423.592 212.785 423.644 212.674C423.699 212.563 423.727 212.435 423.727 212.288V211.873C423.727 211.72 423.701 211.588 423.649 211.478C423.597 211.364 423.522 211.277 423.424 211.219C423.33 211.157 423.216 211.126 423.082 211.126H421.32V209.9H423.082C423.48 209.9 423.825 209.977 424.118 210.13C424.414 210.28 424.64 210.498 424.796 210.784C424.956 211.067 425.036 211.401 425.036 211.785V212.381C425.036 212.762 424.956 213.092 424.796 213.372C424.637 213.652 424.411 213.868 424.118 214.021C423.825 214.171 423.48 214.246 423.082 214.246H421.32V213.021ZM420.734 209.9H422.008V217H420.734V209.9ZM426.446 209.9H427.799L429.312 215.081L428.507 216.072L426.446 209.9ZM429.674 215.672C429.583 215.975 429.461 216.23 429.308 216.438C429.155 216.647 428.967 216.805 428.746 216.912C428.525 217.02 428.268 217.073 427.975 217.073H427.315V215.828H427.828C427.968 215.828 428.093 215.797 428.204 215.735C428.315 215.67 428.409 215.577 428.487 215.457C428.569 215.333 428.634 215.184 428.683 215.008L430.011 209.9H431.31L429.674 215.672ZM434.307 217.073C433.858 217.073 433.474 216.987 433.155 216.814C432.836 216.639 432.592 216.385 432.422 216.053C432.253 215.721 432.169 215.319 432.169 214.847V212.059C432.169 211.587 432.253 211.185 432.422 210.853C432.592 210.517 432.836 210.263 433.155 210.091C433.474 209.915 433.858 209.827 434.307 209.827C434.75 209.827 435.123 209.915 435.425 210.091C435.728 210.267 435.963 210.534 436.129 210.892C436.298 211.246 436.399 211.697 436.431 212.244H435.123C435.103 211.987 435.059 211.775 434.991 211.609C434.926 211.443 434.836 211.32 434.722 211.238C434.608 211.154 434.47 211.111 434.307 211.111C434.135 211.111 433.987 211.149 433.863 211.224C433.739 211.295 433.645 211.403 433.58 211.546C433.515 211.686 433.482 211.857 433.482 212.059V214.847C433.482 215.049 433.515 215.219 433.58 215.359C433.645 215.499 433.739 215.607 433.863 215.682C433.987 215.753 434.135 215.789 434.307 215.789C434.47 215.789 434.608 215.748 434.722 215.667C434.839 215.586 434.931 215.462 434.996 215.296C435.064 215.127 435.106 214.913 435.123 214.656H436.431C436.395 215.203 436.295 215.656 436.129 216.014C435.963 216.368 435.728 216.634 435.425 216.81C435.123 216.985 434.75 217.073 434.307 217.073ZM439.893 217.073C439.444 217.073 439.059 216.987 438.74 216.814C438.421 216.639 438.177 216.385 438.008 216.053C437.839 215.721 437.754 215.319 437.754 214.847V212.059C437.754 211.587 437.839 211.185 438.008 210.853C438.177 210.517 438.421 210.263 438.74 210.091C439.059 209.915 439.444 209.827 439.893 209.827C440.335 209.827 440.708 209.915 441.011 210.091C441.314 210.267 441.548 210.534 441.714 210.892C441.883 211.246 441.984 211.697 442.017 212.244H440.708C440.689 211.987 440.645 211.775 440.576 211.609C440.511 211.443 440.422 211.32 440.308 211.238C440.194 211.154 440.056 211.111 439.893 211.111C439.72 211.111 439.572 211.149 439.448 211.224C439.325 211.295 439.23 211.403 439.165 211.546C439.1 211.686 439.068 211.857 439.068 212.059V214.847C439.068 215.049 439.1 215.219 439.165 215.359C439.23 215.499 439.325 215.607 439.448 215.682C439.572 215.753 439.72 215.789 439.893 215.789C440.056 215.789 440.194 215.748 440.308 215.667C440.425 215.586 440.516 215.462 440.581 215.296C440.65 215.127 440.692 214.913 440.708 214.656H442.017C441.981 215.203 441.88 215.656 441.714 216.014C441.548 216.368 441.314 216.634 441.011 216.81C440.708 216.985 440.335 217.073 439.893 217.073ZM445.307 213.113L446.548 209.9H447.939L446.26 213.973L445.307 213.113ZM445.293 213.865L446.416 213.26L448.237 217H446.763L445.293 213.865ZM443.418 209.9H444.692V217H443.418V209.9ZM443.974 212.859H446.172V214.085H443.974V212.859ZM450.888 209.9H451.738L453.945 217H452.621L451.313 212.249L450.004 217H448.686L450.888 209.9ZM449.912 214.666H452.748V215.877H449.912V214.666ZM456.737 214.266C456.343 214.266 456.002 214.188 455.712 214.031C455.422 213.872 455.198 213.646 455.038 213.353C454.882 213.056 454.804 212.71 454.804 212.312V211.8C454.804 211.412 454.882 211.076 455.038 210.789C455.194 210.499 455.417 210.278 455.707 210.125C456 209.972 456.343 209.896 456.737 209.896H458.417V211.121H456.903C456.741 211.121 456.599 211.155 456.479 211.224C456.361 211.292 456.27 211.391 456.205 211.521C456.143 211.652 456.112 211.805 456.112 211.98V212.181C456.112 212.356 456.145 212.509 456.21 212.64C456.275 212.77 456.366 212.869 456.483 212.938C456.601 213.006 456.741 213.04 456.903 213.04H458.417V214.266H456.737ZM456.244 213.895L457.484 214.119L456.21 217H454.779L456.244 213.895ZM457.802 209.896H459.081V217H457.802V209.896Z" fill="#393D46"/>
<circle cx="265" cy="318" r="8" fill="#393D46"/>
<path d="M268.876 319.722L266.505 313.617H266.404L264.688 316.947L262.922 313.566L260.5 319.722H259.844V320.176H263.276V319.722H262.62L263.276 317.805L264.688 320.176L266.051 317.805L266.707 319.722H266.051V320.176H269.431V319.722H268.876Z" fill="#F9F5F3"/>
<path d="M279.132 314.9H280.484L281.998 320.081L281.192 321.072L279.132 314.9ZM282.359 320.672C282.268 320.975 282.146 321.23 281.993 321.438C281.84 321.647 281.653 321.805 281.432 321.912C281.21 322.02 280.953 322.073 280.66 322.073H280.001V320.828H280.514C280.654 320.828 280.779 320.797 280.89 320.735C281 320.67 281.095 320.577 281.173 320.457C281.254 320.333 281.319 320.184 281.368 320.008L282.696 314.9H283.995L282.359 320.672ZM284.444 320.779C284.61 320.779 284.75 320.74 284.864 320.662C284.981 320.584 285.069 320.468 285.128 320.315C285.186 320.162 285.215 319.975 285.215 319.754V314.9H286.49V319.852C286.49 320.317 286.415 320.709 286.265 321.028C286.119 321.347 285.899 321.59 285.606 321.756C285.316 321.919 284.96 322 284.537 322H284.444V320.779ZM287.935 314.9H289.21V322H287.935V314.9ZM285.982 314.9H288.531V316.126H285.982V314.9ZM294.155 321.995V316.736L294.268 316.873L292.114 321.995H290.83V314.9H292.022V320.218L291.904 320.081L294.068 314.9H295.347V321.995H294.155ZM299.971 314.91H301.245V322H299.971V314.91ZM297.72 320.774H301.308V322H297.72V320.774ZM300.781 320.774H302.007V323.616H300.781V320.774ZM296.963 314.9H298.237V322H296.963V314.9ZM304.97 314.9H305.82L308.027 322H306.704L305.395 317.249L304.086 322H302.768L304.97 314.9ZM303.994 319.666H306.83V320.877H303.994V319.666ZM312.914 322H311.639V316.375L310.755 316.751V315.389L311.727 314.9H312.914V322ZM316.487 318.465L316.8 318.641C316.706 318.794 316.58 318.909 316.424 318.987C316.268 319.062 316.094 319.1 315.902 319.1C315.576 319.1 315.293 319.026 315.052 318.88C314.814 318.733 314.63 318.523 314.5 318.25C314.373 317.973 314.31 317.649 314.31 317.278V316.756C314.31 316.349 314.383 316.002 314.529 315.716C314.676 315.426 314.888 315.206 315.164 315.057C315.444 314.904 315.779 314.827 316.17 314.827C316.561 314.827 316.894 314.904 317.171 315.057C317.451 315.206 317.664 315.426 317.811 315.716C317.957 316.006 318.03 316.354 318.03 316.761V317.229C318.03 317.5 317.998 317.762 317.933 318.016C317.871 318.27 317.777 318.559 317.65 318.885C317.637 318.924 317.622 318.963 317.606 319.002C317.593 319.041 317.578 319.078 317.562 319.114L316.429 322H315.076L316.487 318.465ZM316.17 317.894C316.359 317.894 316.505 317.835 316.61 317.718C316.714 317.601 316.766 317.435 316.766 317.22V316.717C316.766 316.502 316.714 316.339 316.61 316.229C316.509 316.118 316.362 316.062 316.17 316.062C315.978 316.062 315.83 316.119 315.726 316.233C315.622 316.344 315.57 316.505 315.57 316.717V317.225C315.57 317.436 315.622 317.601 315.726 317.718C315.833 317.835 315.981 317.894 316.17 317.894ZM321.238 322.073C320.633 322.073 320.167 321.91 319.842 321.585C319.519 321.256 319.358 320.797 319.358 320.208V316.683C319.358 316.09 319.519 315.631 319.842 315.306C320.167 314.98 320.633 314.817 321.238 314.817C321.847 314.817 322.312 314.98 322.635 315.306C322.96 315.631 323.123 316.09 323.123 316.683V320.208C323.123 320.8 322.96 321.259 322.635 321.585C322.309 321.91 321.844 322.073 321.238 322.073ZM321.238 320.833C321.44 320.833 321.591 320.765 321.692 320.628C321.796 320.488 321.848 320.291 321.848 320.037V316.854C321.848 316.6 321.796 316.404 321.692 316.268C321.591 316.128 321.44 316.058 321.238 316.058C321.036 316.058 320.885 316.128 320.784 316.268C320.683 316.404 320.633 316.6 320.633 316.854V320.037C320.633 320.291 320.683 320.488 320.784 320.628C320.885 320.765 321.036 320.833 321.238 320.833ZM326.428 322.073C326.037 322.073 325.707 322 325.437 321.854C325.167 321.707 324.96 321.484 324.817 321.185C324.677 320.885 324.6 320.511 324.587 320.062H325.862C325.871 320.322 325.924 320.516 326.018 320.643C326.116 320.766 326.256 320.828 326.438 320.828C326.617 320.828 326.757 320.773 326.858 320.662C326.959 320.548 327.009 320.392 327.009 320.193V319.075C327.009 318.88 326.965 318.73 326.877 318.626C326.789 318.519 326.666 318.465 326.506 318.465C326.36 318.465 326.238 318.504 326.14 318.582C326.046 318.657 325.987 318.763 325.964 318.899H324.744V314.9H328.152V316.141H326.018V317.508C326.122 317.413 326.246 317.342 326.389 317.293C326.536 317.241 326.684 317.215 326.833 317.215C327.136 317.215 327.397 317.288 327.615 317.435C327.833 317.578 327.999 317.789 328.113 318.069C328.227 318.346 328.284 318.681 328.284 319.075V320.193C328.284 320.59 328.21 320.929 328.064 321.209C327.917 321.489 327.706 321.704 327.429 321.854C327.152 322 326.819 322.073 326.428 322.073ZM331.823 314.9H333.097V322H331.823V314.9ZM332.428 314.9H335.241V316.126H332.428V314.9ZM338.258 322.073C337.812 322.073 337.423 321.987 337.091 321.814C336.759 321.639 336.503 321.39 336.324 321.067C336.145 320.745 336.056 320.366 336.056 319.93V316.971C336.056 316.535 336.145 316.155 336.324 315.833C336.503 315.507 336.759 315.258 337.091 315.086C337.423 314.913 337.812 314.827 338.258 314.827C338.707 314.827 339.098 314.913 339.43 315.086C339.762 315.258 340.017 315.507 340.196 315.833C340.376 316.155 340.465 316.535 340.465 316.971V319.93C340.465 320.366 340.376 320.745 340.196 321.067C340.017 321.39 339.762 321.639 339.43 321.814C339.098 321.987 338.707 322.073 338.258 322.073ZM338.258 320.799C338.44 320.799 338.6 320.761 338.737 320.687C338.873 320.608 338.977 320.499 339.049 320.359C339.121 320.219 339.156 320.055 339.156 319.866V317.024C339.156 316.839 339.121 316.676 339.049 316.536C338.977 316.396 338.873 316.289 338.737 316.214C338.6 316.136 338.44 316.097 338.258 316.097C338.076 316.097 337.916 316.136 337.779 316.214C337.646 316.289 337.543 316.396 337.472 316.536C337.4 316.676 337.364 316.839 337.364 317.024V319.866C337.364 320.055 337.4 320.219 337.472 320.359C337.543 320.499 337.646 320.608 337.779 320.687C337.916 320.761 338.076 320.799 338.258 320.799ZM341.549 320.774H341.666C341.91 320.774 342.096 320.646 342.222 320.389C342.353 320.132 342.418 319.759 342.418 319.271V314.9H343.643V319.012C343.643 319.575 343.578 320.055 343.448 320.452C343.318 320.849 343.113 321.155 342.833 321.37C342.556 321.585 342.2 321.692 341.763 321.692H341.549V320.774ZM341.466 320.774H342.667V323.372H341.466V320.774ZM341.466 320.774H346.529V322H341.466V320.774ZM345.714 320.774H346.915V323.372H345.714V320.774ZM344.967 314.9H346.241V322H344.967V314.9ZM343.238 314.9H345.543V316.126H343.238V314.9ZM349.859 314.9H350.708L352.915 322H351.592L350.284 317.249L348.975 322H347.657L349.859 314.9ZM348.882 319.666H351.719V320.877H348.882V319.666Z" fill="#393D46"/>
<path d="M454.093 312.061H455.877V322H454.093V312.061ZM449.854 312.061H451.639V322H449.854V312.061ZM450.729 312.061H455.214V313.77H450.729V312.061ZM460.504 312.061H461.694L464.784 322H462.931L461.099 315.349L459.267 322H457.421L460.504 312.061ZM459.137 318.732H463.109V320.428H459.137V318.732ZM467.203 312.881H468.987V322H467.203V312.881ZM465.029 312.061H471.161V313.776H465.029V312.061ZM473.218 316.429H475.686C475.868 316.429 476.025 316.388 476.158 316.306C476.294 316.219 476.399 316.098 476.472 315.943C476.549 315.788 476.588 315.608 476.588 315.403V314.822C476.588 314.608 476.552 314.424 476.479 314.269C476.406 314.109 476.301 313.988 476.164 313.906C476.032 313.82 475.873 313.776 475.686 313.776H473.218V312.061H475.686C476.242 312.061 476.725 312.168 477.135 312.382C477.55 312.591 477.867 312.897 478.085 313.298C478.309 313.694 478.42 314.161 478.42 314.699V315.533C478.42 316.066 478.309 316.529 478.085 316.921C477.862 317.313 477.545 317.616 477.135 317.83C476.725 318.04 476.242 318.145 475.686 318.145H473.218V316.429ZM472.398 312.061H474.182V322H472.398V312.061ZM485.037 321.993V314.631L485.194 314.822L482.179 321.993H480.382V312.061H482.05V319.505L481.886 319.313L484.914 312.061H486.705V321.993H485.037ZM491.332 312.061H492.522L495.612 322H493.759L491.927 315.349L490.095 322H488.249L491.332 312.061ZM489.965 318.732H493.937V320.428H489.965V318.732ZM497.976 316.429H500.444C500.626 316.429 500.784 316.388 500.916 316.306C501.052 316.219 501.157 316.098 501.23 315.943C501.308 315.788 501.346 315.608 501.346 315.403V314.822C501.346 314.608 501.31 314.424 501.237 314.269C501.164 314.109 501.059 313.988 500.923 313.906C500.79 313.82 500.631 313.776 500.444 313.776H497.976V312.061H500.444C501 312.061 501.483 312.168 501.893 312.382C502.308 312.591 502.625 312.897 502.843 313.298C503.067 313.694 503.178 314.161 503.178 314.699V315.533C503.178 316.066 503.067 316.529 502.843 316.921C502.62 317.313 502.303 317.616 501.893 317.83C501.483 318.04 501 318.145 500.444 318.145H497.976V316.429ZM497.156 312.061H498.94V322H497.156V312.061ZM511.859 312.061H513.575V322H511.859V312.061ZM506.015 320.284H512.844V322H506.015V320.284ZM505.14 312.061H506.849V322H505.14V312.061ZM508.482 312.061H510.191V322H508.482V312.061ZM520.5 321.993V314.631L520.657 314.822L517.642 321.993H515.844V312.061H517.512V319.505L517.348 319.313L520.376 312.061H522.168V321.993H520.5ZM524.43 312.061H526.214V322H524.43V312.061ZM525.141 320.271H529.967V322H525.141V320.271ZM525.141 316.196H529.42V317.926H525.141V316.196ZM525.141 312.061H529.967V313.79H525.141V312.061Z" fill="#AD7C53"/>
<rect width="30" height="30" rx="15" transform="matrix(0 -1 -1 0 439 332)" fill="#AD7C53"/>
<path d="M416.429 321.304C417.143 321.306 417.849 321.151 418.496 320.849C419.144 320.546 419.716 320.105 420.174 319.557C420.632 320.104 421.205 320.544 421.852 320.846C422.499 321.148 423.204 321.304 423.918 321.304C424.632 321.304 425.338 321.148 425.985 320.846C426.632 320.544 427.205 320.104 427.663 319.557C428.119 320.107 428.692 320.549 429.339 320.851C429.987 321.153 430.694 321.308 431.408 321.304" stroke="#F9F5F3" stroke-width="1.5" stroke-linecap="square"/>
<path d="M416.429 316.808C417.143 316.81 417.849 316.654 418.496 316.352C419.144 316.05 419.716 315.609 420.174 315.061C420.632 315.608 421.205 316.048 421.852 316.35C422.499 316.652 423.204 316.808 423.918 316.808C424.632 316.808 425.338 316.652 425.985 316.35C426.632 316.048 427.205 315.608 427.663 315.061C428.119 315.611 428.692 316.053 429.339 316.355C429.987 316.657 430.694 316.812 431.408 316.808" stroke="#F9F5F3" stroke-width="1.5" stroke-linecap="square"/>
<path d="M416.429 312.316C417.143 312.318 417.849 312.162 418.496 311.86C419.144 311.558 419.716 311.117 420.174 310.568C420.631 311.117 421.204 311.558 421.851 311.86C422.498 312.162 423.204 312.318 423.918 312.316C424.633 312.32 425.34 312.165 425.987 311.863C426.635 311.561 427.207 311.118 427.663 310.568C428.119 311.118 428.692 311.561 429.339 311.863C429.987 312.165 430.694 312.32 431.408 312.316" stroke="#F9F5F3" stroke-width="1.5" stroke-linecap="square"/>
<path d="M411.63 355.103C410.965 355.103 410.409 355 409.962 354.795C409.52 354.585 409.18 354.271 408.943 353.852C408.706 353.428 408.572 352.892 408.54 352.245H410.345C410.368 352.632 410.481 352.92 410.687 353.106C410.896 353.289 411.199 353.38 411.596 353.38C411.969 353.38 412.257 353.282 412.457 353.086C412.662 352.885 412.765 352.603 412.765 352.238V351.705C412.765 351.382 412.683 351.133 412.519 350.96C412.354 350.782 412.122 350.693 411.821 350.693H410.406V348.971H411.821C412.067 348.971 412.259 348.902 412.396 348.766C412.532 348.624 412.601 348.428 412.601 348.178V347.61C412.601 347.314 412.514 347.086 412.341 346.927C412.172 346.763 411.933 346.681 411.623 346.681C411.286 346.681 411.024 346.776 410.837 346.968C410.655 347.159 410.545 347.453 410.509 347.85H408.704C408.75 347.198 408.886 346.658 409.114 346.229C409.342 345.801 409.668 345.482 410.092 345.272C410.516 345.063 411.037 344.958 411.657 344.958C412.245 344.958 412.749 345.056 413.168 345.252C413.592 345.443 413.913 345.726 414.132 346.1C414.351 346.473 414.46 346.922 414.46 347.446V348C414.46 348.383 414.362 348.731 414.166 349.046C413.975 349.36 413.706 349.616 413.359 349.812C413.76 349.939 414.07 350.181 414.289 350.536C414.512 350.892 414.624 351.331 414.624 351.855V352.396C414.624 352.965 414.506 353.453 414.269 353.858C414.032 354.264 413.69 354.574 413.243 354.788C412.797 354.998 412.259 355.103 411.63 355.103ZM419.491 355.103C418.866 355.103 418.322 354.982 417.857 354.74C417.392 354.494 417.034 354.146 416.784 353.694C416.533 353.243 416.408 352.712 416.408 352.102V347.959C416.408 347.348 416.533 346.817 416.784 346.366C417.034 345.91 417.392 345.562 417.857 345.32C418.322 345.079 418.866 344.958 419.491 344.958C420.12 344.958 420.666 345.079 421.131 345.32C421.596 345.562 421.954 345.91 422.205 346.366C422.455 346.817 422.581 347.348 422.581 347.959V352.102C422.581 352.712 422.455 353.243 422.205 353.694C421.954 354.146 421.596 354.494 421.131 354.74C420.666 354.982 420.12 355.103 419.491 355.103ZM419.491 353.318C419.746 353.318 419.969 353.266 420.161 353.161C420.352 353.052 420.498 352.899 420.598 352.703C420.698 352.507 420.748 352.277 420.748 352.013V348.034C420.748 347.774 420.698 347.547 420.598 347.351C420.498 347.155 420.352 347.004 420.161 346.899C419.969 346.79 419.746 346.735 419.491 346.735C419.235 346.735 419.012 346.79 418.821 346.899C418.634 347.004 418.49 347.155 418.39 347.351C418.29 347.547 418.24 347.774 418.24 348.034V352.013C418.24 352.277 418.29 352.507 418.39 352.703C418.49 352.899 418.634 353.052 418.821 353.161C419.012 353.266 419.235 353.318 419.491 353.318ZM427.721 355.103C427.096 355.103 426.552 354.982 426.087 354.74C425.622 354.494 425.264 354.146 425.014 353.694C424.763 353.243 424.638 352.712 424.638 352.102V347.959C424.638 347.348 424.763 346.817 425.014 346.366C425.264 345.91 425.622 345.562 426.087 345.32C426.552 345.079 427.096 344.958 427.721 344.958C428.349 344.958 428.896 345.079 429.361 345.32C429.826 345.562 430.184 345.91 430.434 346.366C430.685 346.817 430.81 347.348 430.81 347.959V352.102C430.81 352.712 430.685 353.243 430.434 353.694C430.184 354.146 429.826 354.494 429.361 354.74C428.896 354.982 428.349 355.103 427.721 355.103ZM427.721 353.318C427.976 353.318 428.199 353.266 428.391 353.161C428.582 353.052 428.728 352.899 428.828 352.703C428.928 352.507 428.978 352.277 428.978 352.013V348.034C428.978 347.774 428.928 347.547 428.828 347.351C428.728 347.155 428.582 347.004 428.391 346.899C428.199 346.79 427.976 346.735 427.721 346.735C427.465 346.735 427.242 346.79 427.051 346.899C426.864 347.004 426.72 347.155 426.62 347.351C426.52 347.547 426.47 347.774 426.47 348.034V352.013C426.47 352.277 426.52 352.507 426.62 352.703C426.72 352.899 426.864 353.052 427.051 353.161C427.242 353.266 427.465 353.318 427.721 353.318ZM437.208 345.061H438.993V355H437.208V345.061ZM432.97 345.061H434.754V355H432.97V345.061ZM433.845 345.061H438.329V346.77H433.845V345.061ZM443.62 345.061H444.809L447.899 355H446.047L444.215 348.349L442.383 355H440.537L443.62 345.061ZM442.253 351.732H446.224V353.428H442.253V351.732ZM450.264 349.429H452.732C452.914 349.429 453.071 349.388 453.203 349.306C453.34 349.219 453.445 349.098 453.518 348.943C453.595 348.788 453.634 348.608 453.634 348.403V347.822C453.634 347.608 453.598 347.424 453.525 347.269C453.452 347.109 453.347 346.988 453.21 346.906C453.078 346.82 452.918 346.776 452.732 346.776H450.264V345.061H452.732C453.288 345.061 453.771 345.168 454.181 345.382C454.596 345.591 454.912 345.897 455.131 346.298C455.354 346.694 455.466 347.161 455.466 347.699V348.533C455.466 349.066 455.354 349.529 455.131 349.921C454.908 350.313 454.591 350.616 454.181 350.83C453.771 351.04 453.288 351.145 452.732 351.145H450.264V349.429ZM449.444 345.061H451.228V355H449.444V345.061ZM460.073 349.559L461.809 345.061H463.757L461.406 350.762L460.073 349.559ZM460.052 350.611L461.625 349.764L464.174 355H462.11L460.052 350.611ZM457.427 345.061H459.212V355H457.427V345.061ZM458.207 349.203H461.283V350.919H458.207V349.203Z" fill="#AD7C53"/>
<rect width="30" height="30" rx="15" transform="matrix(0 -1 -1 0 398 364)" fill="#AD7C53"/>
<path d="M380.25 349C380.25 349.138 380.138 349.25 380 349.25C379.862 349.25 379.75 349.138 379.75 349C379.75 348.862 379.862 348.75 380 348.75C380.138 348.75 380.25 348.862 380.25 349Z" fill="#AD7C53" stroke="#F9F5F3" stroke-width="1.5"/>
<path d="M386.25 349C386.25 349.138 386.138 349.25 386 349.25C385.862 349.25 385.75 349.138 385.75 349C385.75 348.862 385.862 348.75 386 348.75C386.138 348.75 386.25 348.862 386.25 349Z" fill="#AD7C53" stroke="#F9F5F3" stroke-width="1.5"/>
<path d="M388.5 341.5L385.5 344.5H380.5L377.5 341.5L375.5 352.5C375.5 352.5 379.5 356.5 383 356.5C386.5 356.5 390.5 352.5 390.5 352.5L388.5 341.5Z" stroke="#F9F5F3" stroke-width="1.5" stroke-linecap="round"/>
<path d="M383 351.939L382.811 351.75H383.189L383 351.939Z" fill="#AD7C53" stroke="#F9F5F3" stroke-width="1.5"/>
</svg>
