<svg width="380" height="660" viewBox="0 0 380 660" fill="none" xmlns="http://www.w3.org/2000/svg">
<mask id="mask0_124_4673" style="mask-type:alpha" maskUnits="userSpaceOnUse" x="-594" y="-30" width="1854" height="1111">
<rect x="-594" y="-30" width="1853.72" height="1111" fill="black"/>
</mask>
<g mask="url(#mask0_124_4673)">
<path d="M-166.365 454.464C-123.743 454.464 -140.792 541.128 -96.2762 565.754C-60.6635 585.454 -5.13407 532.374 25.6194 514.821C60.5102 494.905 97.7485 503.154 101.42 534.395C107.833 588.959 51.4781 646.449 17.8545 669.939C-13.4012 691.776 -64.9426 727.216 -44.657 757.55C-33.2089 774.669 45.3273 784.897 69.4739 792.595C136.407 813.933 183.605 668.045 201.127 647.6C226.663 617.803 231.892 614.334 239.013 583.749C246.133 553.165 268.031 534.41 324.083 532.374C382.978 530.236 396.712 622.235 410.446 659.047C422.285 677.517 455.067 714.685 443.191 732.279C432.194 746.355 402.108 760.518 403.164 776.705C404.483 796.939 429.604 814.093 410.446 828.608C391.287 843.124 353.459 823.77 334.985 840.045C316.511 856.32 320.47 906.904 323.109 979.481" stroke="#E8E4E2" stroke-width="10" stroke-linecap="round" stroke-linejoin="bevel"/>
<path d="M409.499 662.114C405.711 664.008 396.239 665.524 388.662 656.431C382.979 651.936 369.245 631.769 359.774 587.064C356.933 575.856 343.767 554.103 313.838 556.755C283.908 559.407 260.324 588.8 252.273 603.165C247.537 609.638 237.498 619.267 235.225 606.007M371.613 552.493C373.192 547.757 380.043 537.812 394.818 535.918C407.57 531.287 435.449 522.289 444.95 523.344C456.827 524.664 472.662 545.338 480.579 539.62C488.497 533.902 508.29 511.029 508.29 501.792C508.29 492.555 491.136 463.524 503.012 460.445C514.888 457.366 558.874 461.325 566.352 441.531C573.83 421.737 581.747 375.992 600.221 359.277C615.001 345.905 626.906 329.953 631.012 323.648" stroke="#E8E4E2" stroke-width="4"/>
<path opacity="0.5" d="M355.039 669.466C338.498 677.173 320.166 680.851 303.419 681.951M355.039 669.466C356.46 674.044 359.301 684.81 359.301 691.25C359.301 697.691 341.933 800.3 341.144 806.615L296.044 811.893M355.039 669.466C360.322 667.005 365.539 663.774 370.625 659.994M190.235 382.955C172.713 397.162 147.141 446.887 142.405 462.041C139.561 471.139 137.06 491.331 135.412 509.399M190.235 382.955L227.174 420.577M190.235 382.955C197.467 377.091 209.216 371.066 223.386 366.079M190.235 382.955L142.405 338.886M292.527 354.54L297.263 402.414M292.527 354.54C290.948 349.331 288.265 337.681 290.159 332.756C292.527 326.6 305.787 293.923 303.893 286.346C301.999 278.769 298.683 234.727 298.683 222.414C298.683 212.564 298.683 213.102 298.683 214.603M292.527 354.54C304.389 355.22 321.765 357.21 339.884 361.017M292.527 354.54C289.248 354.464 285.948 354.492 282.642 354.616M411.867 393.847C440.281 427.944 447.859 437.416 445.964 464.883C445.341 473.924 443.845 483.581 442.135 492.824M411.867 393.847C406.241 387.096 397.946 381.385 388.189 376.587M411.867 393.847C413.124 390.927 414.654 387.126 416.183 382.955M63.7917 266.456C48.4795 290.45 16.8133 340.428 12.6459 348.384M63.7917 266.456C73.8946 252.565 95.5211 224.308 101.204 222.414C108.308 220.046 149.982 218.625 162.768 218.152M63.7917 266.456L-31.8697 193.526M63.7917 266.456L138.616 335.395M12.6459 348.384C7.43661 358.329 -12.4534 351.699 -18.1363 354.54M12.6459 348.384C16.9081 360.697 27.6109 388.732 36.3246 402.371C45.0384 416.01 45.9539 424.101 45.3225 426.441M-18.1363 354.54C-23.8191 357.382 -30.4491 375.378 -36.6056 382.955C-40.9914 388.353 -49.2228 398.317 -53.5947 408.054M-18.1363 354.54L-108.115 322.811M-64.5462 599.377C-70.2291 588.959 -78.2799 527.868 -78.7535 510.346C-79.227 492.823 -56.4956 431.733 -56.4956 419.42C-56.4956 415.879 -55.3596 411.985 -53.5947 408.054M-64.5462 599.377L-175.836 649.576M-64.5462 599.377L17.6185 554.388M-64.5462 599.377C-62.0069 604.033 -55.4962 613.605 -48.8591 623.193M15.4875 740.502C7.9103 733.398 -28.5547 654.311 -30.9226 649.576C-31.9374 647.546 -37.2144 639.95 -43.3612 631.111M162.768 218.152L192.13 276.875M162.768 218.152L126.777 151.378M162.768 218.152L138.616 335.395M162.768 218.152C173.36 217.759 226.843 213.793 258.89 212.712M453.308 243.153C443.458 227.241 422.759 212.627 415.182 208.207C404.623 205.327 387.361 212.825 371.14 217.991M311.47 458.253L343.673 504.189M311.47 458.253C307.116 458.917 300.539 460.078 294.421 461.475M311.47 458.253L315.55 449.728M267.428 478.616C269.796 475.301 275.005 471.039 279.267 466.777C280.429 465.615 283.46 464.419 287.318 463.292M267.428 478.616C265.349 481.527 258.89 487.357 256.062 495.147M267.428 478.616L227.174 420.577M243.749 533.551C245.643 538.76 254.641 540.654 259.851 557.703C265.06 574.751 274.531 590.853 274.531 596.062M243.749 533.551L212.02 563.859M243.749 533.551L207.257 517.923M243.749 533.551C242.537 530.218 246.752 520.684 250.443 511.766M274.531 596.062C274.531 601.272 258.43 641.525 258.43 646.734C258.43 651.944 254.168 671.949 254.168 676.627M274.531 596.062C278.478 605.534 286.371 625.992 286.371 632.054C286.371 639.631 293.001 674.545 303.419 681.951M254.168 676.627C252.369 675.856 250.931 675.04 249.906 674.202C239.487 665.677 187.394 641.525 177.449 633.474C167.504 625.424 149.982 618.32 147.141 609.796C144.807 602.795 136.724 569.92 134.172 549.736M254.168 676.627L230.299 806.615M254.168 676.627C257.072 677.871 260.917 678.998 265.488 679.915M230.299 806.615L296.044 811.893M230.299 806.615L177.449 823.769L94.3818 909.542M303.419 681.951C305.471 653.953 309.481 595.683 309.102 586.591C308.723 577.498 307.997 563.544 307.681 557.703L306.754 539.707M303.419 681.951L296.044 735.297M303.419 681.951L309.102 688.882M303.419 681.951C288.827 682.909 275.439 681.911 265.488 679.915M343.673 504.189L305.314 511.766L306.754 539.707M343.673 504.189L358.827 498.506M358.827 498.506L382.032 525.026M358.827 498.506C363.29 501.821 374.18 508.451 382.032 508.451C391.847 508.451 411.394 505.61 417.55 504.189C423.707 502.769 436.412 492.824 442.135 492.824M382.032 525.026C384.499 528.609 388.066 533.904 391.847 539.707M382.032 525.026L349.356 567.648L323.783 585.17M382.032 525.026C388.978 524.079 403.438 514.892 405.711 485.72C405.237 481.458 402.491 469.997 395.292 458.253C386.768 444.344 375.268 422.36 361.195 414.447M429.993 587.237C430.109 587.019 430.224 586.804 430.337 586.591C435.6 577.508 435.875 561.536 435.373 549.179M429.993 587.237C425.056 585.285 413.856 578.635 408.552 567.648C405.221 560.748 398.23 549.504 391.847 539.707M429.993 587.237L457.804 611.69M429.993 587.237C428.321 590.357 426.247 593.986 423.821 597.957M429.993 587.237L480.14 602.08L509.61 607.42M423.821 597.957L452.121 662.362M423.821 597.957C412.252 616.893 392.685 643.601 370.625 659.994M391.847 539.707C403.773 542.864 429.173 549.179 435.373 549.179M435.373 549.179C435.142 543.496 434.748 538.578 434.599 535.445C434.281 528.774 438.652 511.659 442.135 492.824M435.373 549.179C441.271 548.547 453.542 547.19 455.436 546.811M442.135 492.824L458.277 498.506M306.754 539.707C312.43 551.231 323.783 576.456 323.783 585.17M323.783 585.17C323.783 596.062 319.521 645.314 316.206 658.1C312.891 670.887 309.102 676.096 309.102 688.882M309.102 688.882C309.102 699.112 321.415 734.503 323.783 740.502V759.55L296.044 811.893M370.625 659.994C377.427 668.045 395.576 684.715 413.761 686.988C436.493 689.829 437.914 672.781 448.806 672.307L492.895 646.734L509.61 607.42M198.286 473.881C195.445 462.041 215.335 443.572 223.386 426.997C224.476 424.752 225.758 422.611 227.174 420.577M198.286 473.881C201.128 485.72 210.599 493.771 209.178 505.61M198.286 473.881C177.607 471.355 133.028 462.989 120.147 449.728C113.535 442.922 81.7762 434.327 45.3225 426.441M198.286 473.881L256.062 495.147M209.178 505.61C208.846 508.383 208.071 512.768 207.257 517.923M209.178 505.61L250.443 511.766M209.178 505.61L135.412 509.399M212.02 563.859C201.503 559.87 204.594 534.776 207.257 517.923M212.02 563.859L216.282 567.453M212.02 563.859L139.133 620.114M236.172 584.223L216.282 567.453M0.333153 727.242L90.8629 657.37M216.282 567.453C212.178 574.937 203.211 590.664 200.181 593.694C196.392 597.483 179.817 624.003 179.343 641.999C178.87 659.994 148.561 679.885 140.984 685.094C133.407 690.303 108.781 719.191 108.781 727.242M250.443 511.766C252.521 506.745 254.432 501.919 255.115 498.506C255.346 497.35 255.669 496.23 256.062 495.147M135.412 509.399C134.315 521.427 133.597 532.514 133.407 538.76C133.323 541.553 133.616 545.344 134.172 549.736M135.412 509.399H99.7833L17.6185 554.388M-53.5947 408.054L-188.622 377.746M-53.5947 408.054C-28.0213 412.126 10.7608 418.964 45.3225 426.441M227.174 420.577C230.496 415.806 234.558 411.622 238.632 408.054M45.3225 426.441C40.1132 435.624 30.1682 455.127 32.0625 459.674C9.01531 466.619 -39.8258 481.647 -50.8126 486.194C-64.5462 491.876 -81.1212 480.984 -94.8548 482.879C-105.842 484.394 -143.001 504.347 -160.208 514.134M238.632 408.054C245.646 401.912 252.695 397.599 256.062 395.268C257.088 394.557 258.667 394.176 260.649 394.06M238.632 408.054L223.386 366.079M223.386 366.079L192.13 276.875M223.386 366.079C229.542 363.911 236.156 361.94 243.055 360.263M192.13 276.875L142.405 338.886M294.421 461.475L287.318 420.577M294.421 461.475C291.915 462.047 289.486 462.659 287.318 463.292M287.318 420.577L297.263 402.414M287.318 420.577L270.124 418.658M297.263 402.414C298.954 403.042 300.545 403.664 301.999 404.266C310.004 407.578 322.835 407.833 335.149 408.783M297.263 402.414C285.638 398.1 269.301 393.553 260.649 394.06M298.683 214.603C290.47 213.452 282.425 212.602 275.478 212.469C271.251 212.388 265.531 212.488 258.89 212.712M298.683 214.603C319.589 217.532 341.588 222.414 349.356 222.414C355.807 222.414 363.353 220.471 371.14 217.991M269.796 164.165C272.163 194.315 276.615 256.701 275.478 265.035C274.542 271.902 268.463 277.329 267.138 283.621M270.269 294.397C277.846 303.868 291.422 309.709 297.263 311.445L341.486 319.023M270.269 294.397L225.46 304.734L243.055 360.263M270.269 294.397L282.642 354.616M270.269 294.397C267.04 290.361 266.453 286.875 267.138 283.621M335.149 408.783L339.884 361.017M335.149 408.783C342.501 409.35 349.668 410.165 355.512 412.025M335.149 408.783L315.55 449.728M339.884 361.017C356.602 364.528 373.952 369.586 388.189 376.587M339.884 361.017C339.884 351.7 340.26 334.745 341.486 319.023M349.356 150.905C349.198 159.561 349.02 171.481 348.894 184.055M371.14 217.991C375.876 230.617 371.614 241.357 371.14 250.355C370.666 259.353 380.611 295.818 385.347 306.71C389.55 316.377 412.779 334.997 420.599 346.016M371.14 216.731L348.894 184.055M348.894 184.055C348.64 209.313 348.597 237.207 349.356 246.566C350.776 264.088 349.356 272.139 344.62 294.397C343.218 300.984 342.206 309.791 341.486 319.023M355.512 412.025C356.672 412.395 357.78 412.805 358.827 413.263C359.624 413.612 360.414 414.008 361.195 414.447M355.512 412.025L388.189 376.587M388.189 376.587C395.431 366.87 412.051 347.153 420.599 346.016M420.599 346.016C421.59 347.412 422.333 348.686 422.759 349.805C425.012 355.717 420.604 370.887 416.183 382.955M315.55 449.728C317.071 452.093 319.049 455.109 321.168 458.253M321.168 458.253C326.828 466.654 333.494 475.973 335.149 476.249C337.99 476.722 368.428 464.502 380.138 462.988C391.847 461.475 406.184 456.358 411.867 449.728C417.55 443.098 443.123 418.473 450.7 417.526C460.513 410.522 482.603 393.804 492.456 382.955M321.168 458.253C325.828 456.674 335.622 452.759 337.516 449.728C339.411 446.698 354.091 424.945 361.195 414.447M138.616 335.395L142.405 338.886M260.649 394.06L243.055 360.263M260.649 394.06L270.124 418.658M243.055 360.263C255.65 357.2 269.195 355.118 282.642 354.616M287.318 463.292L270.124 418.658M267.138 283.621C265.415 280.468 261.705 272.336 260.649 265.035C259.593 257.735 259.036 227.111 258.89 212.712M134.172 549.736C131.72 550.815 128.477 552.111 124.732 553.436M17.6185 554.388C22.1035 552.265 28.3382 551.934 35.4405 552.546M124.732 553.436C112.248 557.853 94.1787 562.597 81.186 560.733C67.135 558.716 49.5708 553.764 35.4405 552.546M124.732 553.436L104.15 616.595M90.8629 657.37L139.133 620.114M90.8629 657.37L104.15 616.595M139.133 620.114L104.15 616.595M35.4405 552.546C31.4817 565.098 20.8371 591.523 9.92858 596.801C-0.979964 602.08 -33.8084 616.595 -48.8591 623.193M-48.8591 623.193C-47.0085 625.866 -45.1481 628.541 -43.3612 631.111M-43.3612 631.111C-76.7684 645.039 -149.037 679.847 -170.854 707.646M492.456 382.955C502.135 372.296 534.909 353.985 554.476 342.576M492.456 382.955L514.888 408.054L511.666 426.441M492.456 382.955H416.183M605.06 294.397C596.409 305.174 576.645 328.398 566.792 335.084C564.156 336.873 559.806 339.469 554.476 342.576M554.476 342.576C565.619 355.034 588.081 381.797 588.785 389.187C589.665 398.424 587.465 478.528 593.624 495.147M718.984 669.466L616.056 626.712L509.61 607.42M296.044 811.893L265.488 679.915M542.16 549.736L509.61 607.42M506.091 458.253L511.666 426.441M558.875 433.173L511.666 426.441" stroke="#E8E4E2" stroke-linecap="round" stroke-linejoin="bevel"/>
<path d="M349.355 567.647L323.782 585.17L309.101 586.59L274.531 596.062L236.171 584.222L216.281 567.452L212.019 563.859C201.502 559.87 204.593 534.776 207.256 517.922C208.07 512.767 208.845 508.383 209.178 505.609C210.598 493.77 201.127 485.719 198.286 473.88C195.444 462.041 215.334 443.572 223.385 426.997C224.475 424.751 225.757 422.61 227.173 420.576C230.495 415.805 234.557 411.621 238.631 408.054C245.645 401.912 252.694 397.598 256.061 395.267C257.087 394.557 258.666 394.175 260.648 394.059C269.3 393.552 285.637 398.099 297.262 402.413C298.953 403.041 300.544 403.664 301.998 404.265C310.003 407.577 322.835 407.833 335.148 408.783C342.5 409.35 349.667 410.164 355.511 412.025C356.672 412.394 357.779 412.805 358.826 413.263C359.624 413.612 360.413 414.008 361.194 414.447C375.267 422.359 386.767 444.344 395.291 458.252C402.49 469.997 405.236 481.457 405.71 485.719C403.437 514.891 388.977 524.079 382.031 525.026L349.355 567.647Z" stroke="#E8E4E2" stroke-width="2" stroke-linecap="round" stroke-linejoin="bevel"/>
<g opacity="0.4">
<path d="M-19.9821 375.551C-13.6481 372.032 4.94336 368.807 13.4473 367.634L24.004 386.108L10.8082 414.259L-39.3359 401.503C-38.0164 397.544 -27.8996 379.95 -19.9821 375.551Z" fill="#E8E4E2"/>
<path d="M186.313 322.768L179.275 317.49L166.519 332.005L169.598 333.765L171.357 332.005L173.557 333.765L171.357 335.964L173.557 338.163L186.313 322.768Z" fill="#E8E4E2"/>
<path d="M250.092 329.806H247.893L246.573 328.926H243.494H241.735L240.855 330.686V332.005L243.494 335.964C243.641 336.257 244.11 336.932 244.814 337.283C245.518 337.635 245.694 338.017 245.694 338.163L247.893 341.682C248.186 341.975 249.037 342.562 250.092 342.562L251.412 340.802L254.266 340.363L257.13 342.562L258.01 341.682V340.802C257.863 340.216 257.482 338.867 257.13 338.163C256.778 337.459 256.983 336.99 257.13 336.844C256.983 335.964 256.602 334.116 256.25 333.765C255.898 333.413 255.224 332.445 254.931 332.005L253.611 329.806H250.092Z" fill="#E8E4E2"/>
<path d="M284.401 314.411L291.879 320.129L286.161 335.964L289.24 351.799H283.962L278.243 322.768L284.401 314.411Z" fill="#E8E4E2"/>
<path d="M289.68 297.256L294.518 299.895C295.251 299.455 297.157 297.608 298.917 293.737C301.116 288.899 300.236 285.38 300.236 283.181C300.236 280.981 292.319 276.143 289.68 273.944C287.041 271.744 285.281 269.985 284.401 271.304C283.698 272.36 280.397 276.729 278.835 278.782L274.285 277.902L274.724 278.782L272.525 284.06L271.645 286.26L269.886 287.579V291.098H272.525L275.604 289.339L282.642 298.576L286.161 295.937L287.041 298.576L289.68 297.256Z" fill="#E8E4E2"/>
<path d="M295.398 216.762L275.604 215.882L276.484 238.315L288.36 236.995V229.518L296.278 228.638L295.398 216.762Z" fill="#E8E4E2"/>
<path d="M360.937 312.651L345.542 309.572L342.463 326.287L356.978 328.046L360.937 312.651Z" fill="#E8E4E2"/>
<path d="M431.315 673.337L439.232 669.818L435.274 662.78C434.247 660.728 432.019 656.622 431.315 656.622C430.435 656.622 427.796 655.303 427.356 655.303C427.004 655.303 426.037 654.13 425.597 653.543C425.303 653.397 424.453 653.103 423.397 653.103H421.198H420.318H418.119V651.344L413.281 649.584C414.688 654.511 425.89 667.472 431.315 673.337Z" fill="#E8E4E2"/>
<path d="M307.714 512.788L333.226 508.389H339.384L336.745 526.863L308.154 525.984L307.714 512.788Z" fill="#E8E4E2"/>
<path d="M256.25 532.581L272.085 489.035L267.687 486.836L260.209 494.753L250.092 531.702L256.25 532.581Z" fill="#E8E4E2"/>
<path d="M296.718 521.585L292.759 509.709L280.883 526.863L258.89 535.221L252.292 533.901L257.57 540.059L286.601 527.743L296.718 521.585Z" fill="#E8E4E2"/>
<path d="M237.336 668.498L208.306 653.543L183.673 702.807L163 736.677L126.931 785.941L115.055 793.859L131.33 818.931L174.876 766.147L204.787 729.639L245.694 681.694L249.213 676.416L237.336 668.498Z" fill="#E8E4E2"/>
<path d="M212.264 643.866L232.938 654.863L253.611 614.835L247.893 611.756L212.264 643.866Z" fill="#E8E4E2"/>
<path d="M119.454 678.615L117.254 665.419L110.657 668.498V673.777L104.938 676.416H97.4607L113.736 696.649L122.973 685.213L119.454 678.615Z" fill="#E8E4E2"/>
<path d="M42.0383 688.732L27.9627 672.017L-1.06807 690.491L16.5264 711.605L42.0383 688.732Z" fill="#E8E4E2"/>
<path d="M96.581 649.584L131.33 621.433L106.258 618.794L96.581 649.584Z" fill="#E8E4E2"/>
<path d="M15.6466 484.637L-2.82751 487.276L-8.98556 496.513L2.01096 515.427L25.7634 500.912L15.6466 484.637Z" fill="#E8E4E2"/>
<path d="M268.127 571.729L288.36 557.214L285.721 552.375L266.367 565.571L268.127 571.729Z" fill="#E8E4E2"/>
<path d="M179.275 427.455L172.677 416.898L165.639 423.936L172.677 433.613L179.275 427.455Z" fill="#E8E4E2"/>
<path d="M232.938 370.713L244.374 366.314L251.412 379.51L245.254 383.909L236.457 382.589L232.938 370.713Z" fill="#E8E4E2"/>
<path d="M255.81 387.867L252.292 382.589L247.013 386.548L249.213 391.826L255.81 387.867Z" fill="#E8E4E2"/>
<path d="M51.2753 434.053L45.5572 432.733L34.5606 458.685L40.2788 457.805L51.2753 434.053Z" fill="#E8E4E2"/>
<path d="M112.416 478.918L115.055 464.403L115.935 450.767H108.017L104.498 474.08L94.3817 469.681L88.6635 477.599L106.698 488.595L112.416 478.918Z" fill="#E8E4E2"/>
<path d="M44.2376 244.913L64.0313 259.868L69.3096 242.713L60.9523 239.194L54.7942 222.04L44.2376 233.476V244.913Z" fill="#E8E4E2"/>
<path d="M34.1208 193.009C33.0651 189.842 21.0716 183.186 15.2068 180.253L16.5264 212.803L8.169 218.081L21.3648 227.758C22.2445 224.972 25.2356 218.257 30.162 213.683C36.3201 207.964 35.4404 196.968 34.1208 193.009Z" fill="#E8E4E2"/>
<path d="M225.02 804.415L221.941 793.859L204.787 796.938L208.306 809.694L225.02 804.415Z" fill="#E8E4E2"/>
<path d="M235.577 880.511C242.615 884.734 253.171 878.752 257.57 875.233L238.216 839.604L228.539 846.642C227.953 856.172 228.539 876.289 235.577 880.511Z" fill="#E8E4E2"/>
<path d="M593.623 679.055L606.819 648.265L580.428 639.028L562.833 641.227L557.995 651.784L593.623 679.055Z" fill="#E8E4E2"/>
<path d="M462.985 522.025L458.586 508.389L444.071 505.75L441.432 517.626L462.985 522.025Z" fill="#E8E4E2"/>
<path d="M605.06 404.582L592.744 392.706L594.503 414.259L605.06 404.582Z" fill="#E8E4E2"/>
<path d="M602.421 425.256L594.503 419.977V434.053L602.421 425.256Z" fill="#E8E4E2"/>
<path d="M586.586 448.568V392.706L571.19 440.211L586.586 448.568Z" fill="#E8E4E2"/>
<path d="M634.97 385.228L652.565 369.833L667.96 388.307L657.843 409.86H648.166V397.544L634.97 385.228Z" fill="#E8E4E2"/>
<path d="M458.586 399.304L454.188 385.228L444.071 392.706L448.03 411.62L456.387 409.86L458.586 399.304Z" fill="#E8E4E2"/>
</g>
<path d="M12.6472 348.384C16.8146 340.428 48.4808 290.45 63.793 266.456C73.8959 252.564 95.5224 224.308 101.205 222.414C108.309 220.046 149.983 218.625 162.77 218.151C175.556 217.678 250.854 211.995 275.48 212.469C282.426 212.602 290.471 213.452 298.685 214.603C319.59 217.532 341.589 222.414 349.357 222.414C355.808 222.414 363.355 220.471 371.141 217.991C387.363 212.824 404.624 205.327 415.184 208.206C422.761 212.626 443.018 226.802 452.869 242.714C463.719 258.256 487.882 291.274 497.734 299.016C510.051 308.693 552.277 334.645 555.356 343.442C558.435 352.239 570.751 364.555 572.511 372.473C574.27 380.39 567.672 406.342 565.033 413.38C562.394 420.417 559.315 429.655 555.356 448.569C551.249 466.163 582.188 483.757 591.425 492.823C600.662 501.889 616.937 530.383 619.576 549.178C622.215 567.974 609.019 597.956 612.098 618.355C615.177 638.753 671.919 707.646 673.239 716.004C674.558 724.361 656.964 730.959 595.823 762.629C534.683 794.299 511.37 811.014 478.82 840.924C452.781 864.853 423.398 869.368 411.962 868.635C378.679 863.65 308.77 853.24 295.399 851.481C278.684 849.281 262.849 887.549 242.176 886.23C221.502 884.91 172.678 855.879 150.685 840.924C128.691 825.969 121.214 808.374 109.338 788.141C99.8366 771.954 39.3998 740.343 10.369 726.56C2.79185 719.457 -28.5534 654.311 -30.9213 649.576C-33.2892 644.84 -58.862 609.796 -64.5449 599.377C-70.2278 588.958 -78.2786 527.868 -78.7522 510.345C-79.2257 492.823 -56.4943 431.732 -56.4943 419.42C-56.4943 415.878 -55.3583 411.985 -53.5934 408.054C-49.2215 398.317 -40.9901 388.353 -36.6043 382.955C-30.4478 375.377 -23.8178 357.382 -18.135 354.54C-12.4521 351.699 7.43792 358.329 12.6472 348.384Z" stroke="#E8E4E2" stroke-width="2" stroke-linecap="round" stroke-linejoin="bevel"/>
<path d="M430.337 586.591C430.224 586.804 430.109 587.019 429.993 587.237M249.906 674.202C250.931 675.04 252.369 675.856 254.168 676.627M292.527 354.54C290.948 349.331 288.265 337.681 290.159 332.756C292.527 326.6 305.787 293.923 303.893 286.346C301.999 278.769 298.683 234.727 298.683 222.414C298.683 212.564 298.683 213.102 298.683 214.603M411.867 393.847C416.761 382.481 425.79 357.761 422.759 349.805C422.333 348.686 421.59 347.412 420.599 346.016M267.428 478.616L227.174 420.577L190.235 382.955L142.405 338.886L138.616 335.395L63.7917 266.456L-31.8697 193.526M254.168 676.627C254.168 671.949 258.43 651.944 258.43 646.734C258.43 641.525 274.531 601.272 274.531 596.062C274.531 590.853 265.06 574.751 259.851 557.703C258.727 554.027 257.428 551.056 256.062 548.604C251.092 539.683 245.235 537.637 243.749 533.551L212.02 563.859L216.282 567.453C212.178 574.937 203.211 590.664 200.181 593.694C196.392 597.483 179.817 624.003 179.343 641.999C178.87 659.994 148.561 679.885 140.984 685.094C133.407 690.303 28.8426 818.798 28.8426 826.848M254.168 676.627L131.77 823.18M88.6636 874.793L122.461 834.326M358.827 498.506L343.673 504.189L305.314 511.766L306.754 539.707L307.681 557.703C307.997 563.544 308.723 577.498 309.102 586.591C309.481 595.683 305.471 653.953 303.419 681.951L295.838 736.039V914.381M358.827 498.506L382.032 525.026C384.499 528.609 388.066 533.904 391.847 539.707M358.827 498.506C363.29 501.821 374.18 508.451 382.032 508.451C391.847 508.451 411.394 505.61 417.55 504.189C423.707 502.769 436.412 492.824 442.135 492.824L458.277 498.506H468.263L493.775 551.935M429.993 587.237C425.056 585.285 413.856 578.635 408.552 567.648C405.221 560.748 398.23 549.504 391.847 539.707M429.993 587.237L457.804 611.69L499.908 654.863M429.993 587.237C429.07 588.96 428.024 590.838 426.864 592.843C425.923 594.469 424.907 596.178 423.821 597.957L468.703 705.007L470.023 769.666M391.847 539.707C403.773 542.864 429.173 549.179 435.373 549.179C440.472 548.191 451.725 546.393 455.947 547.097C461.226 547.977 477.94 554.692 493.775 551.935M250.443 511.766L209.178 505.61L135.412 509.399H99.7833L17.6185 554.388L-64.5462 599.377L-175.836 649.576M-188.622 377.746L-53.5947 408.054C-28.0213 412.126 10.7608 418.964 45.3225 426.441C81.7762 434.327 113.535 442.922 120.147 449.728C133.028 462.989 177.607 471.355 198.286 473.881L256.062 495.147M238.632 408.054L223.386 366.079L192.13 276.875L162.768 218.152L126.777 151.378M269.796 164.165C272.163 194.315 276.615 256.701 275.478 265.035C274.542 271.902 268.463 277.329 267.138 283.621C266.453 286.875 267.04 290.361 270.269 294.397L282.642 354.616M339.884 361.017C339.884 351.7 340.26 334.745 341.486 319.023C342.206 309.791 343.218 300.984 344.62 294.397C349.356 272.139 350.776 264.088 349.356 246.566C348.597 237.207 348.64 209.313 348.894 184.055M349.356 150.905C349.198 159.561 349.02 171.481 348.894 184.055M371.14 217.991C375.876 230.617 371.614 241.357 371.14 250.355C370.666 259.353 380.611 295.818 385.347 306.71C389.55 316.377 412.779 334.997 420.599 346.016M371.14 216.731L348.894 184.055M420.599 346.016C412.051 347.153 395.431 366.87 388.189 376.587L355.512 412.025C356.672 412.395 357.78 412.805 358.827 413.263C359.624 413.612 360.414 414.008 361.195 414.447C354.091 424.945 339.411 446.698 337.516 449.728C334.18 452.274 326.276 457.454 321.35 457.805M420.599 346.016L504.332 288.459L548.758 233.036M493.775 551.935C509.61 549.179 528.524 549.296 540.84 550.616C550.693 551.671 603.887 542.258 629.252 537.42L701.829 511.908M656.963 770.986L569.431 711.329M470.023 769.666L486.298 871.274M470.023 769.666L569.431 711.329M131.77 823.18L105.262 942.971M131.77 823.18L122.461 834.326M122.461 834.326C95.9467 839.751 72.8286 846.818 56.9937 845.762M569.431 711.329L526.325 681.951L499.908 654.863M499.908 654.863L486.298 664.54L566.352 858.078" stroke="#E8E4E2" stroke-width="2" stroke-linecap="round" stroke-linejoin="bevel"/>
<path d="M146.438 541.537C146.398 541.985 146.278 542.36 146.079 542.662C145.875 542.965 145.601 543.185 145.255 543.325C144.91 543.464 144.502 543.513 144.032 543.472L141.254 543.227C140.784 543.185 140.391 543.065 140.075 542.868C139.756 542.67 139.525 542.404 139.381 542.071C139.234 541.738 139.18 541.347 139.22 540.9C139.259 540.459 139.379 540.095 139.581 539.809C139.782 539.523 140.069 539.313 140.44 539.179C140.808 539.042 141.266 538.981 141.814 538.997L141.699 540.3C141.441 540.297 141.226 540.322 141.055 540.376C140.884 540.426 140.753 540.504 140.662 540.611C140.567 540.717 140.513 540.851 140.499 541.013C140.484 541.185 140.508 541.336 140.572 541.465C140.632 541.595 140.731 541.698 140.868 541.776C141.001 541.853 141.169 541.9 141.37 541.918L144.147 542.163C144.348 542.181 144.521 542.164 144.666 542.111C144.812 542.059 144.927 541.974 145.012 541.857C145.095 541.74 145.143 541.596 145.158 541.424C145.173 541.262 145.144 541.121 145.073 541C145.003 540.876 144.887 540.774 144.728 540.695C144.565 540.612 144.356 540.551 144.102 540.512L144.217 539.209C144.758 539.293 145.2 539.433 145.542 539.63C145.881 539.826 146.125 540.083 146.273 540.4C146.422 540.717 146.477 541.096 146.438 541.537ZM139.738 535.858L139.813 535.012L147.079 533.437L146.963 534.756L142.115 535.641L146.733 537.363L146.617 538.676L139.738 535.858ZM144.399 537.25L144.649 534.424L145.855 534.53L145.606 537.356L144.399 537.25ZM145.928 532.542L145.938 532.425C145.959 532.182 145.848 531.986 145.603 531.837C145.358 531.685 144.992 531.587 144.506 531.544L140.153 531.16L140.261 529.939L144.356 530.301C144.917 530.35 145.389 530.457 145.774 530.622C146.158 530.786 146.445 531.018 146.634 531.315C146.824 531.61 146.899 531.974 146.861 532.409L146.842 532.623L145.928 532.542ZM145.92 532.625L146.026 531.428L148.614 531.657L148.508 532.853L145.92 532.625ZM145.92 532.625L146.366 527.581L147.586 527.689L147.141 532.733L145.92 532.625ZM146.294 528.393L146.399 527.197L148.987 527.425L148.881 528.622L146.294 528.393ZM140.377 528.621L140.489 527.352L147.561 527.976L147.449 529.245L140.377 528.621ZM140.225 530.343L140.428 528.047L141.648 528.155L141.446 530.451L140.225 530.343ZM147.978 524.087C147.939 524.531 147.818 524.911 147.617 525.226C147.413 525.542 147.143 525.774 146.806 525.924C146.469 526.074 146.083 526.13 145.649 526.092L142.701 525.832C142.267 525.793 141.897 525.671 141.592 525.464C141.283 525.257 141.058 524.981 140.915 524.635C140.772 524.289 140.721 523.894 140.76 523.449C140.799 523.002 140.92 522.62 141.121 522.305C141.322 521.989 141.592 521.757 141.932 521.607C142.269 521.457 142.655 521.401 143.089 521.439L146.037 521.7C146.471 521.738 146.841 521.86 147.146 522.067C147.452 522.274 147.677 522.55 147.823 522.896C147.966 523.242 148.017 523.639 147.978 524.087ZM146.708 523.975C146.724 523.793 146.701 523.631 146.639 523.488C146.573 523.345 146.473 523.232 146.34 523.148C146.207 523.064 146.046 523.014 145.858 522.998L143.028 522.748C142.843 522.731 142.677 522.753 142.532 522.812C142.386 522.871 142.27 522.965 142.183 523.095C142.093 523.224 142.04 523.38 142.024 523.561C142.008 523.743 142.033 523.905 142.099 524.048C142.162 524.188 142.26 524.299 142.393 524.383C142.526 524.466 142.685 524.516 142.87 524.533L145.701 524.783C145.889 524.799 146.056 524.778 146.201 524.719C146.347 524.66 146.465 524.567 146.554 524.441C146.641 524.312 146.692 524.156 146.708 523.975ZM147.08 519.601L147.226 517.942C147.246 517.715 147.205 517.535 147.102 517.402C147 517.266 146.847 517.188 146.642 517.17L146.161 517.128C146.015 517.115 145.887 517.133 145.778 517.182C145.667 517.228 145.578 517.303 145.513 517.409C145.449 517.511 145.41 517.638 145.396 517.791L145.251 519.44L144.049 519.334L144.194 517.699C144.212 517.492 144.169 517.326 144.066 517.203C143.96 517.076 143.801 517.003 143.59 516.984L143.211 516.951C143.026 516.934 142.878 516.98 142.767 517.088C142.654 517.192 142.587 517.348 142.569 517.556L142.425 519.19L141.219 519.084L141.37 517.367C141.405 516.978 141.5 516.651 141.658 516.387C141.812 516.123 142.021 515.931 142.287 515.81C142.552 515.69 142.864 515.646 143.22 515.677L143.6 515.711C143.843 515.732 144.054 515.798 144.234 515.909C144.414 516.019 144.557 516.171 144.665 516.363C144.768 516.556 144.83 516.78 144.85 517.037C144.91 516.767 145.013 516.541 145.16 516.358C145.304 516.175 145.482 516.042 145.695 515.959C145.909 515.874 146.152 515.843 146.424 515.867L146.91 515.91C147.27 515.941 147.572 516.04 147.816 516.205C148.056 516.37 148.23 516.596 148.339 516.884C148.448 517.171 148.485 517.508 148.451 517.894L148.291 519.708L147.08 519.601ZM141.162 519.721L141.274 518.451L148.347 519.076L148.235 520.345L141.162 519.721ZM148.999 512.521C148.959 512.965 148.839 513.345 148.638 513.661C148.434 513.976 148.163 514.209 147.827 514.359C147.49 514.509 147.104 514.564 146.67 514.526L143.722 514.266C143.288 514.228 142.918 514.105 142.613 513.898C142.304 513.691 142.078 513.415 141.936 513.069C141.793 512.723 141.741 512.328 141.781 511.884C141.82 511.436 141.94 511.055 142.141 510.739C142.342 510.424 142.613 510.191 142.953 510.041C143.29 509.891 143.675 509.836 144.11 509.874L147.057 510.134C147.492 510.172 147.862 510.295 148.167 510.502C148.472 510.708 148.698 510.985 148.844 511.331C148.987 511.677 149.038 512.073 148.999 512.521ZM147.729 512.409C147.745 512.227 147.722 512.065 147.659 511.922C147.594 511.779 147.494 511.666 147.361 511.582C147.228 511.499 147.067 511.449 146.879 511.432L144.048 511.182C143.863 511.166 143.698 511.187 143.552 511.246C143.407 511.305 143.291 511.4 143.204 511.529C143.114 511.658 143.061 511.814 143.045 511.996C143.029 512.177 143.054 512.339 143.12 512.482C143.183 512.622 143.281 512.734 143.414 512.817C143.547 512.901 143.706 512.951 143.891 512.967L146.722 513.217C146.91 513.234 147.077 513.212 147.222 513.153C147.368 513.094 147.486 513.002 147.575 512.876C147.662 512.746 147.713 512.591 147.729 512.409ZM142.183 508.155L142.295 506.886L149.367 507.51L149.255 508.779L142.183 508.155ZM148.069 508.165L148.372 504.731L149.603 504.84L149.3 508.274L148.069 508.165ZM145.171 507.909L145.439 504.864L146.67 504.973L146.401 508.018L145.171 507.909ZM142.228 507.649L142.531 504.215L143.761 504.324L143.458 507.758L142.228 507.649ZM158.416 542.766L155.325 541.248L155.447 539.862L159.356 541.893L158.416 542.766ZM159.164 542.847L158.659 541.675L162.545 540.189L162.416 541.658L159.164 542.847ZM155.049 544.366L155.161 543.096L162.234 543.72L162.122 544.99L155.049 544.366ZM158.046 544.071L158.239 541.883L159.46 541.99L159.267 544.179L158.046 544.071ZM162.873 537.312C162.834 537.756 162.713 538.136 162.512 538.451C162.308 538.767 162.038 538.999 161.701 539.149C161.364 539.299 160.978 539.355 160.544 539.317L157.596 539.057C157.162 539.018 156.792 538.896 156.487 538.689C156.178 538.482 155.953 538.206 155.81 537.86C155.667 537.514 155.616 537.119 155.655 536.675C155.694 536.227 155.814 535.846 156.016 535.53C156.217 535.215 156.487 534.982 156.827 534.832C157.164 534.682 157.55 534.626 157.984 534.665L160.932 534.925C161.366 534.963 161.736 535.086 162.041 535.292C162.346 535.499 162.572 535.775 162.718 536.122C162.861 536.468 162.912 536.864 162.873 537.312ZM161.603 537.2C161.619 537.018 161.596 536.856 161.533 536.713C161.468 536.57 161.368 536.457 161.235 536.373C161.102 536.289 160.941 536.239 160.753 536.223L157.922 535.973C157.738 535.957 157.572 535.978 157.427 536.037C157.281 536.096 157.165 536.19 157.078 536.32C156.988 536.449 156.935 536.605 156.919 536.786C156.903 536.968 156.928 537.13 156.994 537.273C157.057 537.413 157.155 537.524 157.288 537.608C157.421 537.692 157.58 537.742 157.765 537.758L160.596 538.008C160.784 538.024 160.951 538.003 161.096 537.944C161.242 537.885 161.36 537.793 161.449 537.667C161.536 537.537 161.587 537.381 161.603 537.2ZM161.888 533.755C161.902 533.589 161.876 533.447 161.808 533.326C161.74 533.203 161.633 533.105 161.486 533.033C161.339 532.961 161.155 532.916 160.934 532.896L156.099 532.469L156.211 531.2L161.143 531.635C161.607 531.676 161.991 531.785 162.296 531.962C162.601 532.136 162.823 532.377 162.963 532.683C163.099 532.986 163.149 533.348 163.112 533.77L163.104 533.862L161.888 533.755ZM156.339 529.76L156.451 528.491L163.523 529.115L163.411 530.384L156.339 529.76ZM156.167 531.706L156.391 529.167L157.612 529.275L157.388 531.814L156.167 531.706ZM162.498 526.78L162.644 525.131C162.657 524.988 162.635 524.862 162.579 524.753C162.521 524.64 162.434 524.549 162.319 524.48C162.201 524.411 162.061 524.369 161.899 524.354L161.617 524.33C161.448 524.315 161.3 524.331 161.171 524.378C161.04 524.422 160.937 524.495 160.863 524.596C160.785 524.697 160.74 524.819 160.728 524.962L160.582 526.611L159.361 526.503L159.515 524.762C159.549 524.373 159.657 524.042 159.838 523.771C160.018 523.499 160.26 523.298 160.562 523.168C160.861 523.037 161.206 522.989 161.595 523.024L162.154 523.073C162.537 523.107 162.864 523.214 163.135 523.395C163.407 523.576 163.606 523.817 163.733 524.119C163.86 524.418 163.907 524.76 163.873 525.146L163.719 526.888L162.498 526.78ZM156.593 526.876L156.705 525.607L163.777 526.231L163.665 527.5L156.593 526.876ZM157.369 518.2L157.481 516.931L164.543 517.554L164.431 518.824L157.369 518.2ZM163.012 520.958L163.328 517.383L164.549 517.491L164.233 521.066L163.012 520.958ZM163.281 517.908L163.389 516.688L166.22 516.938L166.112 518.158L163.281 517.908ZM157.094 521.196L157.206 519.926L164.279 520.55L164.167 521.82L157.094 521.196ZM164.969 513.558C164.93 514.002 164.81 514.382 164.609 514.698C164.405 515.013 164.134 515.246 163.797 515.396C163.461 515.546 163.075 515.602 162.64 515.563L159.693 515.303C159.258 515.265 158.888 515.142 158.583 514.935C158.275 514.729 158.049 514.452 157.906 514.106C157.764 513.76 157.712 513.365 157.751 512.921C157.791 512.473 157.911 512.092 158.112 511.776C158.313 511.461 158.584 511.228 158.924 511.078C159.26 510.928 159.646 510.873 160.081 510.911L163.028 511.171C163.463 511.209 163.832 511.332 164.138 511.539C164.443 511.745 164.669 512.022 164.815 512.368C164.957 512.714 165.009 513.111 164.969 513.558ZM163.7 513.446C163.716 513.264 163.693 513.102 163.63 512.959C163.564 512.816 163.465 512.703 163.332 512.619C163.198 512.536 163.038 512.486 162.85 512.469L160.019 512.219C159.834 512.203 159.669 512.224 159.523 512.283C159.377 512.342 159.261 512.437 159.175 512.566C159.085 512.696 159.032 512.851 159.016 513.033C159 513.214 159.025 513.376 159.091 513.52C159.153 513.659 159.251 513.771 159.384 513.854C159.518 513.938 159.677 513.988 159.861 514.004L162.692 514.254C162.88 514.271 163.047 514.249 163.193 514.19C163.339 514.131 163.456 514.039 163.546 513.913C163.632 513.783 163.684 513.628 163.7 513.446Z" fill="#F9F5F3"/>
<path d="M154 368H50V404.571H98L101 408L104 404.571H154V368Z" fill="#393D46"/>
<path d="M66.6568 382.128C66.6532 381.266 66.3155 380.44 65.7176 379.832C65.1196 379.223 64.3101 378.882 63.4663 378.882H61.5458V385.373H63.4411C63.8587 385.374 64.2726 385.291 64.6588 385.129C65.045 384.966 65.396 384.727 65.6917 384.426C65.9874 384.124 66.222 383.766 66.3819 383.372C66.5419 382.978 66.6241 382.555 66.6238 382.128H66.6568ZM65.9908 387.332L68.9036 395.726H66.0782L63.342 387.947H61.5516V395.726H59V376.278H63.4469C64.7374 376.27 65.9923 376.71 67.0063 377.526C68.0203 378.342 68.7333 379.485 69.0288 380.769C69.3242 382.053 69.1846 383.401 68.6327 384.593C68.0809 385.785 67.1494 386.751 65.9908 387.332Z" fill="#F9F5F3"/>
<path d="M80.4578 376.28H70.8125V395.724H80.4578V393.124H73.3641V387.947H79.8267V385.373H73.3641V378.882H80.4578V376.28Z" fill="#F9F5F3"/>
<path d="M89.7458 382.128C89.7417 381.267 89.4046 380.442 88.808 379.834C88.2114 379.226 87.4038 378.884 86.5611 378.882H84.6328V385.373H86.5281C86.9457 385.374 87.3594 385.291 87.7455 385.128C88.1316 384.966 88.4825 384.727 88.7781 384.425C89.0738 384.124 89.3084 383.766 89.4684 383.372C89.6284 382.978 89.7108 382.555 89.7108 382.128H89.7458ZM86.5611 387.947H84.6328V395.726H82.089V376.278H86.5358C87.2853 376.276 88.0278 376.425 88.7209 376.717C89.4139 377.008 90.044 377.437 90.5751 377.977C91.1063 378.517 91.528 379.159 91.8164 379.866C92.1047 380.573 92.254 381.332 92.2557 382.097C92.2573 382.863 92.1113 383.622 91.8261 384.33C91.5408 385.039 91.1218 385.683 90.593 386.225C90.0642 386.768 89.436 387.199 88.7442 387.494C88.0524 387.789 87.3106 387.941 86.5611 387.943" fill="#F9F5F3"/>
<path d="M104.131 390.81C104.131 392.187 103.596 393.507 102.644 394.48C101.692 395.453 100.4 396 99.0532 396C97.7064 396 96.4148 395.453 95.4625 394.48C94.5102 393.507 93.9752 392.187 93.9752 390.81C93.9752 385.956 94.0004 381.128 94.0004 376.274H96.5249V390.81C96.5432 391.486 96.8187 392.128 97.2929 392.599C97.767 393.071 98.4024 393.334 99.0639 393.334C99.7254 393.334 100.361 393.071 100.835 392.599C101.309 392.128 101.585 391.486 101.603 390.81V376.274H104.155C104.155 382.094 104.129 379.386 104.129 390.81" fill="#F9F5F3"/>
<path d="M110.343 386.633H108.423V393.124H110.318C110.742 393.137 111.163 393.062 111.558 392.906C111.953 392.749 112.314 392.513 112.618 392.212C112.922 391.91 113.165 391.55 113.331 391.152C113.497 390.753 113.583 390.325 113.585 389.892C113.587 389.459 113.504 389.03 113.341 388.63C113.178 388.231 112.938 387.868 112.636 387.565C112.334 387.261 111.976 387.022 111.582 386.862C111.188 386.702 110.767 386.624 110.343 386.633ZM110.343 378.882H108.423V384.059H110.318C110.994 384.059 111.642 383.785 112.12 383.297C112.599 382.81 112.868 382.148 112.87 381.457C112.872 381.118 112.808 380.782 112.682 380.468C112.556 380.154 112.37 379.868 112.135 379.628C111.9 379.388 111.621 379.199 111.314 379.07C111.007 378.941 110.677 378.875 110.345 378.878L110.343 378.882ZM110.345 395.722H105.879V376.274H110.326C110.994 376.271 111.655 376.402 112.273 376.661C112.891 376.919 113.453 377.3 113.927 377.78C114.401 378.261 114.778 378.833 115.036 379.462C115.293 380.092 115.427 380.767 115.429 381.449C115.429 382.161 115.285 382.865 115.004 383.517C114.723 384.168 114.312 384.752 113.798 385.232C114.752 385.97 115.454 386.995 115.807 388.163C116.16 389.331 116.145 390.583 115.764 391.742C115.383 392.9 114.655 393.908 113.684 394.621C112.713 395.335 111.547 395.718 110.351 395.718" fill="#F9F5F3"/>
<path d="M117.684 395.724V376.28H120.235V393.122H124.34V395.724H117.684Z" fill="#F9F5F3"/>
<path d="M141.307 395.994C140.64 395.998 139.979 395.867 139.362 395.608C138.745 395.35 138.184 394.969 137.712 394.488C137.24 394.007 136.866 393.435 136.611 392.805C136.357 392.175 136.226 391.5 136.229 390.818V381.19C136.229 379.813 136.764 378.493 137.716 377.52C138.668 376.547 139.96 376 141.307 376C142.653 376 143.945 376.547 144.897 377.52C145.85 378.493 146.385 379.813 146.385 381.19H143.86C143.86 380.498 143.591 379.835 143.113 379.346C142.634 378.857 141.985 378.582 141.309 378.582C140.632 378.582 139.983 378.857 139.504 379.346C139.026 379.835 138.757 380.498 138.757 381.19V390.818C138.747 391.165 138.806 391.51 138.93 391.834C139.053 392.157 139.239 392.451 139.475 392.7C139.712 392.949 139.995 393.146 140.308 393.281C140.62 393.416 140.956 393.486 141.296 393.486C141.635 393.486 141.971 393.416 142.284 393.281C142.597 393.146 142.88 392.949 143.117 392.7C143.353 392.451 143.539 392.157 143.662 391.834C143.786 391.51 143.844 391.165 143.835 390.818H146.385C146.387 391.5 146.257 392.175 146.002 392.805C145.747 393.435 145.373 394.007 144.901 394.488C144.429 394.969 143.868 395.35 143.251 395.608C142.634 395.867 141.973 395.998 141.307 395.994Z" fill="#F9F5F3"/>
<path d="M126.115 395.726V393.124H126.589C127.265 393.125 127.913 392.851 128.392 392.363C128.87 391.875 129.14 391.213 129.141 390.523V379.519C129.14 379.349 129.074 379.187 128.957 379.068C128.84 378.949 128.681 378.882 128.515 378.882H126.09V376.282H134.716V378.882H132.316C132.15 378.882 131.992 378.949 131.875 379.068C131.758 379.188 131.692 379.35 131.692 379.519V390.523C131.693 390.865 131.759 391.203 131.887 391.519C132.016 391.835 132.204 392.122 132.441 392.364C132.678 392.606 132.959 392.797 133.268 392.928C133.578 393.058 133.909 393.125 134.244 393.124H134.716V395.726H126.115Z" fill="#F9F5F3"/>
<circle cx="140" cy="336" r="8" fill="#393D46"/>
<path d="M144.245 338.164L141.871 332.051H141.769L140.052 335.385L138.283 332L135.858 338.164H135.201V338.619H138.637V338.164H137.98L138.637 336.244L140.052 338.619L141.416 336.244L142.073 338.164H141.416V338.619H144.801V338.164H144.245Z" fill="#F9F5F3"/>
<path d="M155.226 338.774H156.905C157.049 338.774 157.172 338.742 157.276 338.677C157.384 338.608 157.467 338.514 157.525 338.394C157.584 338.27 157.613 338.127 157.613 337.964V337.681C157.613 337.511 157.584 337.365 157.525 337.241C157.47 337.114 157.389 337.018 157.281 336.953C157.174 336.885 157.049 336.851 156.905 336.851H155.226V335.625H156.998C157.389 335.625 157.727 335.703 158.014 335.859C158.3 336.016 158.521 336.239 158.678 336.528C158.834 336.815 158.912 337.153 158.912 337.544V338.105C158.912 338.49 158.834 338.825 158.678 339.111C158.521 339.398 158.299 339.618 158.009 339.771C157.722 339.924 157.385 340 156.998 340H155.226V338.774ZM154.61 332.9H155.885V340H154.61V332.9ZM155.216 332.9H158.492V334.126H155.216V332.9ZM160.333 332.9H161.607V340H160.333V332.9ZM160.84 338.765H164.288V340H160.84V338.765ZM160.84 335.854H163.897V337.09H160.84V335.854ZM160.84 332.9H164.288V334.136H160.84V332.9ZM165.469 338.779C165.635 338.779 165.775 338.74 165.889 338.662C166.006 338.584 166.094 338.468 166.153 338.315C166.211 338.162 166.24 337.975 166.24 337.754V332.9H167.515V337.852C167.515 338.317 167.44 338.709 167.29 339.028C167.144 339.347 166.924 339.59 166.631 339.756C166.341 339.919 165.985 340 165.562 340H165.469V338.779ZM168.96 332.9H170.235V340H168.96V332.9ZM167.007 332.9H169.556V334.126H167.007V332.9ZM173.984 340.073C173.538 340.073 173.149 339.987 172.817 339.814C172.485 339.639 172.23 339.39 172.051 339.067C171.872 338.745 171.782 338.366 171.782 337.93V334.971C171.782 334.535 171.872 334.155 172.051 333.833C172.23 333.507 172.485 333.258 172.817 333.086C173.149 332.913 173.538 332.827 173.984 332.827C174.433 332.827 174.824 332.913 175.156 333.086C175.488 333.258 175.744 333.507 175.923 333.833C176.102 334.155 176.191 334.535 176.191 334.971V337.93C176.191 338.366 176.102 338.745 175.923 339.067C175.744 339.39 175.488 339.639 175.156 339.814C174.824 339.987 174.433 340.073 173.984 340.073ZM173.984 338.799C174.166 338.799 174.326 338.761 174.463 338.687C174.599 338.608 174.704 338.499 174.775 338.359C174.847 338.219 174.883 338.055 174.883 337.866V335.024C174.883 334.839 174.847 334.676 174.775 334.536C174.704 334.396 174.599 334.289 174.463 334.214C174.326 334.136 174.166 334.097 173.984 334.097C173.802 334.097 173.642 334.136 173.506 334.214C173.372 334.289 173.27 334.396 173.198 334.536C173.126 334.676 173.091 334.839 173.091 335.024V337.866C173.091 338.055 173.126 338.219 173.198 338.359C173.27 338.499 173.372 338.608 173.506 338.687C173.642 338.761 173.802 338.799 173.984 338.799ZM178.32 336.021H180.082C180.213 336.021 180.325 335.991 180.419 335.933C180.517 335.871 180.592 335.785 180.644 335.674C180.699 335.563 180.727 335.435 180.727 335.288V334.873C180.727 334.72 180.701 334.588 180.649 334.478C180.597 334.364 180.522 334.277 180.424 334.219C180.33 334.157 180.216 334.126 180.082 334.126H178.32V332.9H180.082C180.48 332.9 180.825 332.977 181.118 333.13C181.414 333.28 181.64 333.498 181.796 333.784C181.956 334.067 182.036 334.401 182.036 334.785V335.381C182.036 335.762 181.956 336.092 181.796 336.372C181.637 336.652 181.411 336.868 181.118 337.021C180.825 337.171 180.48 337.246 180.082 337.246H178.32V336.021ZM177.734 332.9H179.008V340H177.734V332.9ZM183.446 332.9H184.799L186.312 338.081L185.507 339.072L183.446 332.9ZM186.674 338.672C186.583 338.975 186.461 339.23 186.308 339.438C186.155 339.647 185.967 339.805 185.746 339.912C185.525 340.02 185.268 340.073 184.975 340.073H184.315V338.828H184.828C184.968 338.828 185.093 338.797 185.204 338.735C185.315 338.67 185.409 338.577 185.487 338.457C185.569 338.333 185.634 338.184 185.683 338.008L187.011 332.9H188.31L186.674 338.672ZM191.307 340.073C190.858 340.073 190.474 339.987 190.155 339.814C189.836 339.639 189.592 339.385 189.422 339.053C189.253 338.721 189.169 338.319 189.169 337.847V335.059C189.169 334.587 189.253 334.185 189.422 333.853C189.592 333.517 189.836 333.263 190.155 333.091C190.474 332.915 190.858 332.827 191.307 332.827C191.75 332.827 192.123 332.915 192.425 333.091C192.728 333.267 192.963 333.534 193.129 333.892C193.298 334.246 193.399 334.697 193.431 335.244H192.123C192.103 334.987 192.059 334.775 191.991 334.609C191.926 334.443 191.836 334.32 191.722 334.238C191.608 334.154 191.47 334.111 191.307 334.111C191.135 334.111 190.987 334.149 190.863 334.224C190.739 334.295 190.645 334.403 190.58 334.546C190.515 334.686 190.482 334.857 190.482 335.059V337.847C190.482 338.049 190.515 338.219 190.58 338.359C190.645 338.499 190.739 338.607 190.863 338.682C190.987 338.753 191.135 338.789 191.307 338.789C191.47 338.789 191.608 338.748 191.722 338.667C191.839 338.586 191.931 338.462 191.996 338.296C192.064 338.127 192.106 337.913 192.123 337.656H193.431C193.395 338.203 193.295 338.656 193.129 339.014C192.963 339.368 192.728 339.634 192.425 339.81C192.123 339.985 191.75 340.073 191.307 340.073ZM196.893 340.073C196.444 340.073 196.059 339.987 195.74 339.814C195.421 339.639 195.177 339.385 195.008 339.053C194.839 338.721 194.754 338.319 194.754 337.847V335.059C194.754 334.587 194.839 334.185 195.008 333.853C195.177 333.517 195.421 333.263 195.74 333.091C196.059 332.915 196.444 332.827 196.893 332.827C197.335 332.827 197.708 332.915 198.011 333.091C198.314 333.267 198.548 333.534 198.714 333.892C198.883 334.246 198.984 334.697 199.017 335.244H197.708C197.689 334.987 197.645 334.775 197.576 334.609C197.511 334.443 197.422 334.32 197.308 334.238C197.194 334.154 197.056 334.111 196.893 334.111C196.72 334.111 196.572 334.149 196.448 334.224C196.325 334.295 196.23 334.403 196.165 334.546C196.1 334.686 196.068 334.857 196.068 335.059V337.847C196.068 338.049 196.1 338.219 196.165 338.359C196.23 338.499 196.325 338.607 196.448 338.682C196.572 338.753 196.72 338.789 196.893 338.789C197.056 338.789 197.194 338.748 197.308 338.667C197.425 338.586 197.516 338.462 197.581 338.296C197.65 338.127 197.692 337.913 197.708 337.656H199.017C198.981 338.203 198.88 338.656 198.714 339.014C198.548 339.368 198.314 339.634 198.011 339.81C197.708 339.985 197.335 340.073 196.893 340.073ZM202.307 336.113L203.548 332.9H204.939L203.26 336.973L202.307 336.113ZM202.293 336.865L203.416 336.26L205.237 340H203.763L202.293 336.865ZM200.418 332.9H201.692V340H200.418V332.9ZM200.974 335.859H203.172V337.085H200.974V335.859ZM207.888 332.9H208.738L210.945 340H209.621L208.313 335.249L207.004 340H205.686L207.888 332.9ZM206.912 337.666H209.748V338.877H206.912V337.666ZM213.737 337.266C213.343 337.266 213.002 337.188 212.712 337.031C212.422 336.872 212.198 336.646 212.038 336.353C211.882 336.056 211.804 335.71 211.804 335.312V334.8C211.804 334.412 211.882 334.076 212.038 333.789C212.194 333.499 212.417 333.278 212.707 333.125C213 332.972 213.343 332.896 213.737 332.896H215.417V334.121H213.903C213.741 334.121 213.599 334.155 213.479 334.224C213.361 334.292 213.27 334.391 213.205 334.521C213.143 334.652 213.112 334.805 213.112 334.98V335.181C213.112 335.356 213.145 335.509 213.21 335.64C213.275 335.77 213.366 335.869 213.483 335.938C213.601 336.006 213.741 336.04 213.903 336.04H215.417V337.266H213.737ZM213.244 336.895L214.484 337.119L213.21 340H211.779L213.244 336.895ZM214.802 332.896H216.081V340H214.802V332.896Z" fill="#393D46"/>
<circle cx="38" cy="437" r="8" fill="#393D46"/>
<path d="M42.2453 439.164L39.8705 433.051H39.7695L38.0516 436.385L36.2832 433L33.8579 439.164H33.201V439.619H36.6368V439.164H35.98L36.6368 437.244L38.0516 439.619L39.4158 437.244L40.0726 439.164H39.4158V439.619H42.801V439.164H42.2453Z" fill="#F9F5F3"/>
<path d="M52.1318 433.9H53.4844L54.998 439.081L54.1924 440.072L52.1318 433.9ZM55.3594 439.672C55.2682 439.975 55.1462 440.23 54.9932 440.438C54.8402 440.647 54.653 440.805 54.4316 440.912C54.2103 441.02 53.9531 441.073 53.6602 441.073H53.001V439.828H53.5137C53.6536 439.828 53.779 439.797 53.8896 439.735C54.0003 439.67 54.0947 439.577 54.1729 439.457C54.2542 439.333 54.3193 439.184 54.3682 439.008L55.6963 433.9H56.9951L55.3594 439.672ZM57.4439 439.779C57.61 439.779 57.7499 439.74 57.8639 439.662C57.9811 439.584 58.0689 439.468 58.1275 439.315C58.1861 439.162 58.2154 438.975 58.2154 438.754V433.9H59.4898V438.852C59.4898 439.317 59.415 439.709 59.2652 440.028C59.1188 440.347 58.899 440.59 58.6061 440.756C58.3163 440.919 57.9599 441 57.5367 441H57.4439V439.779ZM60.9352 433.9H62.2096V441H60.9352V433.9ZM58.982 433.9H61.5309V435.126H58.982V433.9ZM67.1555 440.995V435.736L67.2678 435.873L65.1145 440.995H63.8303V433.9H65.0217V439.218L64.9045 439.081L67.0676 433.9H68.3469V440.995H67.1555ZM72.9705 433.91H74.2449V441H72.9705V433.91ZM70.7195 439.774H74.3084V441H70.7195V439.774ZM73.7811 439.774H75.0066V442.616H73.7811V439.774ZM69.9627 433.9H71.2371V441H69.9627V433.9ZM77.9701 433.9H78.8197L81.0268 441H79.7035L78.3949 436.249L77.0863 441H75.768L77.9701 433.9ZM76.9936 438.666H79.8305V439.877H76.9936V438.666ZM85.9137 441H84.6393V435.375L83.7555 435.751V434.389L84.7271 433.9H85.9137V441ZM89.4875 437.465L89.8 437.641C89.7056 437.794 89.5803 437.909 89.424 437.987C89.2678 438.062 89.0936 438.1 88.9016 438.1C88.576 438.1 88.2928 438.026 88.052 437.88C87.8143 437.733 87.6304 437.523 87.5002 437.25C87.3732 436.973 87.3098 436.649 87.3098 436.278V435.756C87.3098 435.349 87.383 435.002 87.5295 434.716C87.676 434.426 87.8876 434.206 88.1643 434.057C88.4442 433.904 88.7795 433.827 89.1701 433.827C89.5607 433.827 89.8944 433.904 90.1711 434.057C90.451 434.206 90.6643 434.426 90.8107 434.716C90.9572 435.006 91.0305 435.354 91.0305 435.761V436.229C91.0305 436.5 90.9979 436.762 90.9328 437.016C90.871 437.27 90.7766 437.559 90.6496 437.885C90.6366 437.924 90.6219 437.963 90.6057 438.002C90.5926 438.041 90.578 438.078 90.5617 438.114L89.4289 441H88.0764L89.4875 437.465ZM89.1701 436.894C89.3589 436.894 89.5054 436.835 89.6096 436.718C89.7137 436.601 89.7658 436.435 89.7658 436.22V435.717C89.7658 435.502 89.7137 435.339 89.6096 435.229C89.5087 435.118 89.3622 435.062 89.1701 435.062C88.9781 435.062 88.8299 435.119 88.7258 435.233C88.6216 435.344 88.5695 435.505 88.5695 435.717V436.225C88.5695 436.436 88.6216 436.601 88.7258 436.718C88.8332 436.835 88.9813 436.894 89.1701 436.894ZM94.2381 441.073C93.6326 441.073 93.1671 440.91 92.8416 440.585C92.5193 440.256 92.3582 439.797 92.3582 439.208V435.683C92.3582 435.09 92.5193 434.631 92.8416 434.306C93.1671 433.98 93.6326 433.817 94.2381 433.817C94.8468 433.817 95.3123 433.98 95.6346 434.306C95.9601 434.631 96.1229 435.09 96.1229 435.683V439.208C96.1229 439.8 95.9601 440.259 95.6346 440.585C95.3091 440.91 94.8436 441.073 94.2381 441.073ZM94.2381 439.833C94.4399 439.833 94.5913 439.765 94.6922 439.628C94.7964 439.488 94.8484 439.291 94.8484 439.037V435.854C94.8484 435.6 94.7964 435.404 94.6922 435.268C94.5913 435.128 94.4399 435.058 94.2381 435.058C94.0363 435.058 93.8849 435.128 93.784 435.268C93.6831 435.404 93.6326 435.6 93.6326 435.854V439.037C93.6326 439.291 93.6831 439.488 93.784 439.628C93.8849 439.765 94.0363 439.833 94.2381 439.833ZM99.4281 441.073C99.0375 441.073 98.7071 441 98.4369 440.854C98.1667 440.707 97.96 440.484 97.8168 440.185C97.6768 439.885 97.6003 439.511 97.5873 439.062H98.8617C98.8715 439.322 98.9236 439.516 99.018 439.643C99.1156 439.766 99.2556 439.828 99.4379 439.828C99.6169 439.828 99.7569 439.773 99.8578 439.662C99.9587 439.548 100.009 439.392 100.009 439.193V438.075C100.009 437.88 99.9652 437.73 99.8773 437.626C99.7895 437.519 99.6658 437.465 99.5062 437.465C99.3598 437.465 99.2377 437.504 99.14 437.582C99.0456 437.657 98.987 437.763 98.9643 437.899H97.7436V433.9H101.152V435.141H99.018V436.508C99.1221 436.413 99.2458 436.342 99.3891 436.293C99.5355 436.241 99.6837 436.215 99.8334 436.215C100.136 436.215 100.397 436.288 100.615 436.435C100.833 436.578 100.999 436.789 101.113 437.069C101.227 437.346 101.284 437.681 101.284 438.075V439.193C101.284 439.59 101.21 439.929 101.064 440.209C100.917 440.489 100.706 440.704 100.429 440.854C100.152 441 99.8187 441.073 99.4281 441.073ZM104.823 433.9H106.097V441H104.823V433.9ZM105.428 433.9H108.241V435.126H105.428V433.9ZM111.258 441.073C110.812 441.073 110.423 440.987 110.091 440.814C109.759 440.639 109.503 440.39 109.324 440.067C109.145 439.745 109.056 439.366 109.056 438.93V435.971C109.056 435.535 109.145 435.155 109.324 434.833C109.503 434.507 109.759 434.258 110.091 434.086C110.423 433.913 110.812 433.827 111.258 433.827C111.707 433.827 112.098 433.913 112.43 434.086C112.762 434.258 113.017 434.507 113.196 434.833C113.376 435.155 113.465 435.535 113.465 435.971V438.93C113.465 439.366 113.376 439.745 113.196 440.067C113.017 440.39 112.762 440.639 112.43 440.814C112.098 440.987 111.707 441.073 111.258 441.073ZM111.258 439.799C111.44 439.799 111.6 439.761 111.737 439.687C111.873 439.608 111.977 439.499 112.049 439.359C112.121 439.219 112.156 439.055 112.156 438.866V436.024C112.156 435.839 112.121 435.676 112.049 435.536C111.977 435.396 111.873 435.289 111.737 435.214C111.6 435.136 111.44 435.097 111.258 435.097C111.076 435.097 110.916 435.136 110.779 435.214C110.646 435.289 110.543 435.396 110.472 435.536C110.4 435.676 110.364 435.839 110.364 436.024V438.866C110.364 439.055 110.4 439.219 110.472 439.359C110.543 439.499 110.646 439.608 110.779 439.687C110.916 439.761 111.076 439.799 111.258 439.799ZM114.549 439.774H114.666C114.91 439.774 115.096 439.646 115.222 439.389C115.353 439.132 115.418 438.759 115.418 438.271V433.9H116.643V438.012C116.643 438.575 116.578 439.055 116.448 439.452C116.318 439.849 116.113 440.155 115.833 440.37C115.556 440.585 115.2 440.692 114.763 440.692H114.549V439.774ZM114.466 439.774H115.667V442.372H114.466V439.774ZM114.466 439.774H119.529V441H114.466V439.774ZM118.714 439.774H119.915V442.372H118.714V439.774ZM117.967 433.9H119.241V441H117.967V433.9ZM116.238 433.9H118.543V435.126H116.238V433.9ZM122.859 433.9H123.708L125.915 441H124.592L123.284 436.249L121.975 441H120.657L122.859 433.9ZM121.882 438.666H124.719V439.877H121.882V438.666Z" fill="#393D46"/>
<path d="M194.417 306.284H194.581C194.923 306.284 195.183 306.104 195.36 305.744C195.543 305.384 195.634 304.862 195.634 304.179V298.061H197.35V303.816C197.35 304.605 197.258 305.277 197.076 305.833C196.894 306.389 196.607 306.817 196.215 307.118C195.827 307.419 195.328 307.569 194.718 307.569H194.417V306.284ZM194.301 306.284H195.982V309.921H194.301V306.284ZM194.301 306.284H201.39V308H194.301V306.284ZM200.248 306.284H201.93V309.921H200.248V306.284ZM199.202 298.061H200.986V308H199.202V298.061ZM196.782 298.061H200.009V299.776H196.782V298.061ZM203.686 298.061H205.47V308H203.686V298.061ZM204.397 306.271H209.223V308H204.397V306.271ZM204.397 302.196H208.676V303.926H204.397V302.196ZM204.397 298.061H209.223V299.79H204.397V298.061ZM215.32 298.061H217.104V308H215.32V298.061ZM211.082 298.061H212.866V308H211.082V298.061ZM211.957 298.061H216.441V299.77H211.957V298.061ZM222.347 308.103C221.723 308.103 221.178 307.982 220.713 307.74C220.248 307.494 219.891 307.146 219.64 306.694C219.389 306.243 219.264 305.712 219.264 305.102V300.959C219.264 300.348 219.389 299.817 219.64 299.366C219.891 298.91 220.248 298.562 220.713 298.32C221.178 298.079 221.723 297.958 222.347 297.958C222.976 297.958 223.523 298.079 223.988 298.32C224.452 298.562 224.81 298.91 225.061 299.366C225.312 299.817 225.437 300.348 225.437 300.959V305.102C225.437 305.712 225.312 306.243 225.061 306.694C224.81 307.146 224.452 307.494 223.988 307.74C223.523 307.982 222.976 308.103 222.347 308.103ZM222.347 306.318C222.602 306.318 222.826 306.266 223.017 306.161C223.208 306.052 223.354 305.899 223.454 305.703C223.555 305.507 223.605 305.277 223.605 305.013V301.034C223.605 300.774 223.555 300.547 223.454 300.351C223.354 300.155 223.208 300.004 223.017 299.899C222.826 299.79 222.602 299.735 222.347 299.735C222.092 299.735 221.868 299.79 221.677 299.899C221.49 300.004 221.347 300.155 221.246 300.351C221.146 300.547 221.096 300.774 221.096 301.034V305.013C221.096 305.277 221.146 305.507 221.246 305.703C221.347 305.899 221.49 306.052 221.677 306.161C221.868 306.266 222.092 306.318 222.347 306.318Z" fill="#AD7C53"/>
<rect width="30" height="30" rx="15" transform="matrix(0 -1 -1 0 184 318)" fill="#AD7C53"/>
<path d="M172.639 307.639L174.967 309.966M162.552 297.552L168.759 303.759M164.104 296L167.983 299.879L164.88 302.983L161 299.103M162.552 309.966L175.743 296.776C176.062 297.855 176.087 299 175.814 300.091C175.541 301.183 174.98 302.181 174.191 302.983C171.447 305.726 169.535 306.083 169.535 306.083" stroke="#F9F5F3" stroke-width="1.5" stroke-linecap="square"/>
<path d="M171.63 471.103C170.965 471.103 170.409 471 169.962 470.795C169.52 470.585 169.18 470.271 168.943 469.852C168.706 469.428 168.572 468.892 168.54 468.245H170.345C170.368 468.632 170.481 468.92 170.687 469.106C170.896 469.289 171.199 469.38 171.596 469.38C171.969 469.38 172.257 469.282 172.457 469.086C172.662 468.885 172.765 468.603 172.765 468.238V467.705C172.765 467.382 172.683 467.133 172.519 466.96C172.354 466.782 172.122 466.693 171.821 466.693H170.406V464.971H171.821C172.067 464.971 172.259 464.902 172.396 464.766C172.532 464.624 172.601 464.428 172.601 464.178V463.61C172.601 463.314 172.514 463.086 172.341 462.927C172.172 462.763 171.933 462.681 171.623 462.681C171.286 462.681 171.024 462.776 170.837 462.968C170.655 463.159 170.545 463.453 170.509 463.85H168.704C168.75 463.198 168.886 462.658 169.114 462.229C169.342 461.801 169.668 461.482 170.092 461.272C170.516 461.063 171.037 460.958 171.657 460.958C172.245 460.958 172.749 461.056 173.168 461.252C173.592 461.443 173.913 461.726 174.132 462.1C174.351 462.473 174.46 462.922 174.46 463.446V464C174.46 464.383 174.362 464.731 174.166 465.046C173.975 465.36 173.706 465.616 173.359 465.812C173.76 465.939 174.07 466.181 174.289 466.536C174.512 466.892 174.624 467.331 174.624 467.855V468.396C174.624 468.965 174.506 469.453 174.269 469.858C174.032 470.264 173.69 470.574 173.243 470.788C172.797 470.998 172.259 471.103 171.63 471.103ZM179.491 471.103C178.866 471.103 178.322 470.982 177.857 470.74C177.392 470.494 177.034 470.146 176.784 469.694C176.533 469.243 176.408 468.712 176.408 468.102V463.959C176.408 463.348 176.533 462.817 176.784 462.366C177.034 461.91 177.392 461.562 177.857 461.32C178.322 461.079 178.866 460.958 179.491 460.958C180.12 460.958 180.666 461.079 181.131 461.32C181.596 461.562 181.954 461.91 182.205 462.366C182.455 462.817 182.581 463.348 182.581 463.959V468.102C182.581 468.712 182.455 469.243 182.205 469.694C181.954 470.146 181.596 470.494 181.131 470.74C180.666 470.982 180.12 471.103 179.491 471.103ZM179.491 469.318C179.746 469.318 179.969 469.266 180.161 469.161C180.352 469.052 180.498 468.899 180.598 468.703C180.698 468.507 180.748 468.277 180.748 468.013V464.034C180.748 463.774 180.698 463.547 180.598 463.351C180.498 463.155 180.352 463.004 180.161 462.899C179.969 462.79 179.746 462.735 179.491 462.735C179.235 462.735 179.012 462.79 178.821 462.899C178.634 463.004 178.49 463.155 178.39 463.351C178.29 463.547 178.24 463.774 178.24 464.034V468.013C178.24 468.277 178.29 468.507 178.39 468.703C178.49 468.899 178.634 469.052 178.821 469.161C179.012 469.266 179.235 469.318 179.491 469.318ZM187.721 471.103C187.096 471.103 186.552 470.982 186.087 470.74C185.622 470.494 185.264 470.146 185.014 469.694C184.763 469.243 184.638 468.712 184.638 468.102V463.959C184.638 463.348 184.763 462.817 185.014 462.366C185.264 461.91 185.622 461.562 186.087 461.32C186.552 461.079 187.096 460.958 187.721 460.958C188.349 460.958 188.896 461.079 189.361 461.32C189.826 461.562 190.184 461.91 190.434 462.366C190.685 462.817 190.81 463.348 190.81 463.959V468.102C190.81 468.712 190.685 469.243 190.434 469.694C190.184 470.146 189.826 470.494 189.361 470.74C188.896 470.982 188.349 471.103 187.721 471.103ZM187.721 469.318C187.976 469.318 188.199 469.266 188.391 469.161C188.582 469.052 188.728 468.899 188.828 468.703C188.928 468.507 188.978 468.277 188.978 468.013V464.034C188.978 463.774 188.928 463.547 188.828 463.351C188.728 463.155 188.582 463.004 188.391 462.899C188.199 462.79 187.976 462.735 187.721 462.735C187.465 462.735 187.242 462.79 187.051 462.899C186.864 463.004 186.72 463.155 186.62 463.351C186.52 463.547 186.47 463.774 186.47 464.034V468.013C186.47 468.277 186.52 468.507 186.62 468.703C186.72 468.899 186.864 469.052 187.051 469.161C187.242 469.266 187.465 469.318 187.721 469.318ZM197.208 461.061H198.993V471H197.208V461.061ZM192.97 461.061H194.754V471H192.97V461.061ZM193.845 461.061H198.329V462.77H193.845V461.061ZM203.62 461.061H204.809L207.899 471H206.047L204.215 464.349L202.383 471H200.537L203.62 461.061ZM202.253 467.732H206.224V469.428H202.253V467.732ZM210.264 465.429H212.732C212.914 465.429 213.071 465.388 213.203 465.306C213.34 465.219 213.445 465.098 213.518 464.943C213.595 464.788 213.634 464.608 213.634 464.403V463.822C213.634 463.608 213.598 463.424 213.525 463.269C213.452 463.109 213.347 462.988 213.21 462.906C213.078 462.82 212.918 462.776 212.732 462.776H210.264V461.061H212.732C213.288 461.061 213.771 461.168 214.181 461.382C214.596 461.591 214.912 461.897 215.131 462.298C215.354 462.694 215.466 463.161 215.466 463.699V464.533C215.466 465.066 215.354 465.529 215.131 465.921C214.908 466.313 214.591 466.616 214.181 466.83C213.771 467.04 213.288 467.145 212.732 467.145H210.264V465.429ZM209.444 461.061H211.228V471H209.444V461.061ZM220.073 465.559L221.809 461.061H223.757L221.406 466.762L220.073 465.559ZM220.052 466.611L221.625 465.764L224.174 471H222.11L220.052 466.611ZM217.427 461.061H219.212V471H217.427V461.061ZM218.207 465.203H221.283V466.919H218.207V465.203Z" fill="#AD7C53"/>
<rect width="30" height="30" rx="15" transform="matrix(0 -1 -1 0 158 480)" fill="#AD7C53"/>
<path d="M140.25 465C140.25 465.138 140.138 465.25 140 465.25C139.862 465.25 139.75 465.138 139.75 465C139.75 464.862 139.862 464.75 140 464.75C140.138 464.75 140.25 464.862 140.25 465Z" fill="#AD7C53" stroke="#F9F5F3" stroke-width="1.5"/>
<path d="M146.25 465C146.25 465.138 146.138 465.25 146 465.25C145.862 465.25 145.75 465.138 145.75 465C145.75 464.862 145.862 464.75 146 464.75C146.138 464.75 146.25 464.862 146.25 465Z" fill="#AD7C53" stroke="#F9F5F3" stroke-width="1.5"/>
<path d="M148.5 457.5L145.5 460.5H140.5L137.5 457.5L135.5 468.5C135.5 468.5 139.5 472.5 143 472.5C146.5 472.5 150.5 468.5 150.5 468.5L148.5 457.5Z" stroke="#F9F5F3" stroke-width="1.5" stroke-linecap="round"/>
<path d="M143 467.939L142.811 467.75H143.189L143 467.939Z" fill="#AD7C53" stroke="#F9F5F3" stroke-width="1.5"/>
<path d="M209.093 422.061H210.877V432H209.093V422.061ZM204.854 422.061H206.639V432H204.854V422.061ZM205.729 422.061H210.214V423.77H205.729V422.061ZM215.504 422.061H216.694L219.784 432H217.931L216.099 425.349L214.267 432H212.421L215.504 422.061ZM214.137 428.732H218.109V430.428H214.137V428.732ZM222.203 422.881H223.987V432H222.203V422.881ZM220.029 422.061H226.161V423.776H220.029V422.061ZM228.218 426.429H230.686C230.868 426.429 231.025 426.388 231.158 426.306C231.294 426.219 231.399 426.098 231.472 425.943C231.549 425.788 231.588 425.608 231.588 425.403V424.822C231.588 424.608 231.552 424.424 231.479 424.269C231.406 424.109 231.301 423.988 231.164 423.906C231.032 423.82 230.873 423.776 230.686 423.776H228.218V422.061H230.686C231.242 422.061 231.725 422.168 232.135 422.382C232.55 422.591 232.867 422.897 233.085 423.298C233.309 423.694 233.42 424.161 233.42 424.699V425.533C233.42 426.066 233.309 426.529 233.085 426.921C232.862 427.313 232.545 427.616 232.135 427.83C231.725 428.04 231.242 428.145 230.686 428.145H228.218V426.429ZM227.398 422.061H229.182V432H227.398V422.061ZM240.037 431.993V424.631L240.194 424.822L237.179 431.993H235.382V422.061H237.05V429.505L236.886 429.313L239.914 422.061H241.705V431.993H240.037ZM246.332 422.061H247.522L250.612 432H248.759L246.927 425.349L245.095 432H243.249L246.332 422.061ZM244.965 428.732H248.937V430.428H244.965V428.732ZM252.976 426.429H255.444C255.626 426.429 255.784 426.388 255.916 426.306C256.052 426.219 256.157 426.098 256.23 425.943C256.308 425.788 256.346 425.608 256.346 425.403V424.822C256.346 424.608 256.31 424.424 256.237 424.269C256.164 424.109 256.059 423.988 255.923 423.906C255.79 423.82 255.631 423.776 255.444 423.776H252.976V422.061H255.444C256 422.061 256.483 422.168 256.893 422.382C257.308 422.591 257.625 422.897 257.843 423.298C258.067 423.694 258.178 424.161 258.178 424.699V425.533C258.178 426.066 258.067 426.529 257.843 426.921C257.62 427.313 257.303 427.616 256.893 427.83C256.483 428.04 256 428.145 255.444 428.145H252.976V426.429ZM252.156 422.061H253.94V432H252.156V422.061ZM266.859 422.061H268.575V432H266.859V422.061ZM261.015 430.284H267.844V432H261.015V430.284ZM260.14 422.061H261.849V432H260.14V422.061ZM263.482 422.061H265.191V432H263.482V422.061ZM275.5 431.993V424.631L275.657 424.822L272.642 431.993H270.844V422.061H272.512V429.505L272.348 429.313L275.376 422.061H277.168V431.993H275.5ZM279.43 422.061H281.214V432H279.43V422.061ZM280.141 430.271H284.967V432H280.141V430.271ZM280.141 426.196H284.42V427.926H280.141V426.196ZM280.141 422.061H284.967V423.79H280.141V422.061Z" fill="#AD7C53"/>
<rect width="30" height="30" rx="15" transform="matrix(0 -1 -1 0 194 442)" fill="#AD7C53"/>
<path d="M172 431.75C172.715 431.752 173.422 431.596 174.07 431.294C174.719 430.991 175.292 430.549 175.75 430C176.209 430.548 176.783 430.989 177.431 431.291C178.079 431.593 178.785 431.75 179.5 431.75C180.215 431.75 180.921 431.593 181.569 431.291C182.217 430.989 182.791 430.548 183.25 430C183.707 430.551 184.28 430.994 184.928 431.296C185.577 431.599 186.284 431.754 187 431.75" stroke="#F9F5F3" stroke-width="1.5" stroke-linecap="square"/>
<path d="M172 427.25C172.715 427.252 173.422 427.096 174.07 426.794C174.719 426.491 175.292 426.049 175.75 425.5C176.209 426.048 176.783 426.489 177.431 426.791C178.079 427.093 178.785 427.25 179.5 427.25C180.215 427.25 180.921 427.093 181.569 426.791C182.217 426.489 182.791 426.048 183.25 425.5C183.707 426.051 184.28 426.494 184.928 426.796C185.577 427.099 186.284 427.254 187 427.25" stroke="#F9F5F3" stroke-width="1.5" stroke-linecap="square"/>
<path d="M172 422.75C172.715 422.752 173.422 422.596 174.07 422.294C174.719 421.991 175.292 421.549 175.75 421C176.208 421.549 176.782 421.991 177.43 422.293C178.078 422.596 178.785 422.752 179.5 422.75C180.216 422.754 180.923 422.599 181.572 422.296C182.22 421.994 182.793 421.551 183.25 421C183.707 421.551 184.28 421.994 184.928 422.296C185.577 422.599 186.284 422.754 187 422.75" stroke="#F9F5F3" stroke-width="1.5" stroke-linecap="square"/>
<path d="M301.5 526.559L303.236 522.061H305.185L302.833 527.762L301.5 526.559ZM301.479 527.611L303.052 526.764L305.602 532H303.537L301.479 527.611ZM298.854 522.061H300.639V532H298.854V522.061ZM299.634 526.203H302.71V527.919H299.634V526.203ZM307.768 526.429H310.236C310.418 526.429 310.575 526.388 310.707 526.306C310.844 526.219 310.949 526.098 311.022 525.943C311.099 525.788 311.138 525.608 311.138 525.403V524.822C311.138 524.608 311.102 524.424 311.029 524.269C310.956 524.109 310.851 523.988 310.714 523.906C310.582 523.82 310.423 523.776 310.236 523.776H307.768V522.061H310.236C310.792 522.061 311.275 522.168 311.685 522.382C312.1 522.591 312.416 522.897 312.635 523.298C312.859 523.694 312.97 524.161 312.97 524.699V525.533C312.97 526.066 312.859 526.529 312.635 526.921C312.412 527.313 312.095 527.616 311.685 527.83C311.275 528.04 310.792 528.145 310.236 528.145H307.768V526.429ZM306.948 522.061H308.732V532H306.948V522.061ZM314.932 522.061H316.716V532H314.932V522.061ZM315.642 530.271H320.469V532H315.642V530.271ZM315.642 526.196H319.922V527.926H315.642V526.196ZM315.642 522.061H320.469V523.79H315.642V522.061ZM327.933 522.061H329.963V532H328.357V524.672L328.439 525.109L326.771 530.564H325.52L323.845 525.246L323.948 524.672V532H322.327V522.061H324.371L326.142 528.11L327.933 522.061ZM332.02 530.291C332.253 530.291 332.449 530.236 332.608 530.127C332.772 530.018 332.895 529.856 332.977 529.642C333.059 529.427 333.1 529.165 333.1 528.855V522.061H334.885V528.992C334.885 529.644 334.78 530.193 334.57 530.64C334.365 531.086 334.057 531.426 333.647 531.658C333.242 531.886 332.743 532 332.15 532H332.02V530.291ZM336.908 522.061H338.692V532H336.908V522.061ZM334.174 522.061H337.742V523.776H334.174V522.061ZM341.822 530.284H344.14C344.34 530.284 344.514 530.239 344.659 530.147C344.81 530.052 344.926 529.92 345.008 529.751C345.09 529.578 345.131 529.377 345.131 529.149V528.753C345.131 528.516 345.09 528.311 345.008 528.138C344.931 527.96 344.817 527.826 344.666 527.734C344.516 527.639 344.34 527.591 344.14 527.591H341.822V525.875H344.27C344.817 525.875 345.291 525.984 345.692 526.203C346.093 526.422 346.403 526.734 346.621 527.14C346.84 527.541 346.949 528.015 346.949 528.562V529.348C346.949 529.885 346.84 530.355 346.621 530.756C346.403 531.157 346.09 531.465 345.685 531.679C345.284 531.893 344.812 532 344.27 532H341.822V530.284ZM340.961 522.061H342.745V532H340.961V522.061Z" fill="#AD7C53"/>
<rect width="40" height="40" rx="20" transform="matrix(0 -1 -1 0 290 546)" fill="#AD7C53"/>
<path d="M270 517.3L271.908 523.173L278.084 523.173L273.088 526.803L274.996 532.677L270 529.047L265.004 532.677L266.912 526.803L261.916 523.173L268.092 523.173L270 517.3Z" stroke="#F9F5F3" stroke-width="1.5"/>
</g>
</svg>
