<svg id="svg2" class="platinum-simple-scheme__svg" xmlns="http://www.w3.org/2000/svg"
     viewBox="0 0 80.21 177.19">
    <g id="platinum">
        <path id="path3728" d="M24.95,.53h.04V-.74h-.04V.53Z" fill="#040606"/>
        <path id="path3730" d="M27.18,.53h.04V-.74h-.04V.53Z" fill="#040606"/>
        <path id="path3732" d="M29.41,.53h.04V-.74h-.04V.53Z" fill="#040606"/>
        <path id="path3734" d="M31.64,.53h.04V-.74h-.04V.53Z" fill="#040606"/>
        <path id="path3736" d="M33.87,.53h.04V-.74h-.04V.53Z" fill="#040606"/>
        <path id="path12" d="M0,176.41H80.2v-.13H0v.13Z" fill="#040606"/>
        <path id="path86"
              d="M72.6,163.06v-.07H7.24v13.42H72.67v-13.42h-.07v.07h-.07v13.22H7.37v-13.15H72.6v-.07h0"
              fill="#040606"/>
        <path id="path88"
              d="M72.39,154.4v-.07H7.45v8.8H72.46v-8.8h-.07v.07h-.07v8.6H7.58v-8.53H72.39v-.07h0"
              fill="#040606"/>
        <path id="path90"
              d="M72.6,153.25v-.07H7.24v1.28H72.67v-1.28h-.07v.07h-.07v1.08H7.37v-1.01H72.6v-.07h0"
              fill="#040606"/>
        <path id="path290"
              d="M72.39,144.8v-.07H7.45v8.59H72.46v-8.59h-.07v.07h-.07v8.39H7.58v-8.32H72.39v-.07h0"
              fill="#040606"/>
        <path id="path292"
              d="M72.6,143.68v-.07H7.24v1.25H72.67v-1.25h-.07v.07h-.07v1.05H7.37v-.98H72.6v-.07h0"
              fill="#040606"/>
        <path id="path476"
              d="M72.39,135.02v-.07H7.45v8.8H72.46v-8.8h-.07v.07h-.07v8.6H7.58v-8.53H72.39v-.07h0"
              fill="#040606"/>
        <path id="path478"
              d="M72.6,133.87v-.07H7.24v1.28H72.67v-1.28h-.07v.07h-.07v1.08H7.37v-1.01H72.6v-.07h0"
              fill="#040606"/>
        <path id="path662"
              d="M72.39,125.38v-.07H7.45v8.63H72.46v-8.63h-.07v.07h-.07v8.43H7.58v-8.36H72.39v-.07h0"
              fill="#040606"/>
        <path id="path664"
              d="M72.6,124.25v-.07H7.24v1.26H72.67v-1.26h-.07v.07h-.07v1.06H7.37v-.99H72.6v-.07h0"
              fill="#040606"/>
        <path id="path848"
              d="M72.39,115.75v-.07H7.45v8.63H72.46v-8.63h-.07v.07h-.07v8.43H7.58v-8.36H72.39v-.07h0"
              fill="#040606"/>
        <path id="path850"
              d="M72.6,114.63v-.07H7.24v1.26H72.67v-1.26h-.07v.07h-.07v1.06H7.37v-.99H72.6v-.07h0"
              fill="#040606"/>
        <path id="path1034"
              d="M72.39,105.98v-.07H7.45v8.78H72.46v-8.78h-.07v.07h-.07v8.58H7.58v-8.52H72.39v-.07h0"
              fill="#040606"/>
        <path id="path1036"
              d="M72.6,104.84v-.07H7.24v1.28H72.67v-1.28h-.07v.07h-.07v1.08H7.37v-1.01H72.6v-.07h0"
              fill="#040606"/>
        <path id="path1220"
              d="M72.39,96.3v-.07H7.45v8.68H72.46v-8.68h-.07v.07h-.07v8.48H7.58v-8.41H72.39v-.07h0"
              fill="#040606"/>
        <path id="path1222"
              d="M72.6,95.17v-.07H7.24v1.26H72.67v-1.26h-.07v.07h-.07v1.06H7.37v-.99H72.6v-.07h0"
              fill="#040606"/>
        <path id="path1406"
              d="M72.39,86.61v-.07H7.45v8.68H72.46v-8.68h-.07v.07h-.07v8.48H7.58v-8.41H72.39v-.07h0"
              fill="#040606"/>
        <path id="path1408"
              d="M72.6,85.49v-.07H7.24v1.26H72.67v-1.26h-.07v.07h-.07v1.06H7.37v-.99H72.6v-.07h0"
              fill="#040606"/>
        <path id="path1594"
              d="M72.39,76.93v-.07H7.45v8.68H72.46v-8.68h-.07v.07h-.07v8.48H7.58v-8.41H72.39v-.07h0"
              fill="#040606"/>
        <path id="path1596"
              d="M72.6,75.8v-.07H7.24v1.26H72.67v-1.26h-.07v.07h-.07v1.06H7.37v-.99H72.6v-.07h0"
              fill="#040606"/>
        <path id="path1780"
              d="M72.39,57.51v-.07H7.45v8.68H72.46v-8.68h-.07v.07h-.07v8.48H7.58v-8.41H72.39v-.07h0"
              fill="#040606"/>
        <path id="path1782"
              d="M72.6,56.38v-.07H7.24v1.26H72.67v-1.26h-.07v.07h-.07v1.06H7.37v-.99H72.6v-.07h0"
              fill="#040606"/>
        <path id="path1966"
              d="M72.39,47.83v-.07H7.45v8.68H72.46v-8.68h-.07v.07h-.07v8.48H7.58v-8.41H72.39v-.07h0"
              fill="#040606"/>
        <path id="path1968"
              d="M72.6,46.7v-.07H7.24v1.26H72.67v-1.26h-.07v.07h-.07v1.06H7.37v-.99H72.6v-.07h0"
              fill="#040606"/>
        <path id="path2152"
              d="M72.39,38.16v-.07H7.45v8.68H72.46v-8.68h-.07v.07h-.07v8.48H7.58v-8.41H72.39v-.07h0"
              fill="#040606"/>
        <path id="path2154"
              d="M72.6,37.03v-.07H7.24v1.26H72.67v-1.26h-.07v.07h-.07v1.06H7.37v-.99H72.6v-.07h0"
              fill="#040606"/>
        <path id="path2338"
              d="M72.39,28.49v-.07H7.45v8.68H72.46v-8.68h-.07v.07h-.07v8.48H7.58v-8.41H72.39v-.07h0"
              fill="#040606"/>
        <path id="path2340"
              d="M72.6,27.36v-.07H7.24v1.26H72.67v-1.26h-.07v.07h-.07v1.06H7.37v-.99H72.6v-.07h0"
              fill="#040606"/>
        <path id="path2524"
              d="M72.39,18.81v-.07H7.45v8.68H72.46v-8.68h-.07v.07h-.07v8.48H7.58v-8.41H72.39v-.07h0"
              fill="#040606"/>
        <path id="path2526"
              d="M72.6,17.68v-.07H7.24v1.26H72.67v-1.26h-.07v.07h-.07v1.06H7.37v-.99H72.6v-.07h0"
              fill="#040606"/>
        <path id="path2710"
              d="M72.39,1.81v-.07H7.45V17.75H72.46V1.75h-.07v.07h-.07v15.8H7.58V1.88H72.39v-.07h0"
              fill="#040606"/>
        <path id="path2712"
              d="M56.5,.59v-.07H24.53V1.88H56.57V.53h-.07v.07h-.07V1.75H24.67V.66h31.84v-.07h0"
              fill="#040606"/>
        <path id="path2896"
              d="M72.39,67.19v-.07H7.45v8.75H72.46v-8.75h-.07v.07h-.07v8.55H7.58v-8.48H72.39v-.07h0"
              fill="#040606"/>
        <path id="path2898"
              d="M72.6,66.05v-.07H7.24v1.27H72.67v-1.27h-.07v.07h-.07v1.07H7.37v-1H72.6v-.07h0"
              fill="#040606"/>
        <path id="path3708" d="M7.24,169.77H72.53v-.14H7.24v.14Z" fill="#040606"/>
        <path id="path3708-2" d="M7.45,158.79H72.43v-.14H7.45v.14Z" fill="#040606"/>
        <path id="path3708-3" d="M7.39,149.09H72.38v-.14H7.39v.14Z" fill="#040606"/>
        <path id="path3708-4" d="M7.46,139.42H72.44v-.14H7.46v.14Z" fill="#040606"/>
        <path id="path3708-5" d="M7.46,129.69H72.44v-.14H7.46v.14Z" fill="#040606"/>
        <path id="path3708-6" d="M7.39,120.07H72.38v-.14H7.39v.14Z" fill="#040606"/>
        <path id="path3708-7" d="M7.46,110.38H72.44v-.14H7.46v.14Z" fill="#040606"/>
        <path id="path3708-8" d="M7.46,100.64H72.44v-.14H7.46v.14Z" fill="#040606"/>
        <path id="path3708-9" d="M7.46,90.95H72.44v-.14H7.46v.14Z" fill="#040606"/>
        <path id="path3708-10" d="M7.46,81.27H72.44v-.14H7.46v.14Z" fill="#040606"/>
        <path id="path3708-11" d="M7.46,71.56H72.44v-.14H7.46v.14Z" fill="#040606"/>
        <path id="path3708-12" d="M7.46,61.85H72.44v-.14H7.46v.14Z" fill="#040606"/>
        <path id="path3708-13" d="M7.46,52.17H72.44v-.14H7.46v.14Z" fill="#040606"/>
        <path id="path3708-14" d="M7.46,42.5H72.44v-.14H7.46v.14Z" fill="#040606"/>
        <path id="path3708-15" d="M7.46,32.83H72.44v-.14H7.46v.14Z" fill="#040606"/>
        <path id="path3708-16" d="M7.46,23.15H72.44v-.14H7.46v.14Z" fill="#040606"/>
        <path id="path3708-17" d="M7.46,11.46H72.44v-.14H7.46v.14Z" fill="#040606"/>
        <path id="path3708-18" d="M7.46,6.81H72.44v-.14H7.46v.14Z" fill="#040606"/>
        <path id="path3712" d="M24.98,.13h31.22v-.04H24.98v.04Z" fill="#040606"/>
        <path id="path3714" d="M24.98,.29h31.22v-.04H24.98v.04Z" fill="#040606"/>
        <path id="path3716" d="M24.98,.45h31.22v-.04H24.98v.04Z" fill="#040606"/>
        <path id="path3718" d="M24.98,.61h31.22v-.04H24.98v.04Z" fill="#040606"/>
        <path id="path3738" d="M36.1,.53h.04V-.74h-.04V.53Z" fill="#040606"/>
        <path id="path3740" d="M38.33,.53h.04V-.74h-.04V.53Z" fill="#040606"/>
        <path id="path3742" d="M40.56,.53h.04V-.74h-.04V.53Z" fill="#040606"/>
        <path id="path3744" d="M42.79,.53h.04V-.74h-.04V.53Z" fill="#040606"/>
        <path id="path3746" d="M45.02,.53h.04V-.74h-.04V.53Z" fill="#040606"/>
        <path id="path3748" d="M47.25,.53h.04V-.74h-.04V.53Z" fill="#040606"/>
        <path id="path3750" d="M49.48,.53h.04V-.74h-.04V.53Z" fill="#040606"/>
        <path id="path3752" d="M51.71,.53h.04V-.74h-.04V.53Z" fill="#040606"/>
        <path id="path3754" d="M53.94,.53h.04V-.74h-.04V.53Z" fill="#040606"/>
        <path id="path3756" d="M56.17,.53h.04V-.74h-.04V.53Z" fill="#040606"/>
        <polygon points="7.81 1.88 72.59 1.75 72.67 176.28 7.46 176.41 7.81 1.88" fill="none"
                 stroke="#BEBDBD" stroke-width="1.42"/>
        <polyline points="72.53 176.34 80.2 176.48 0 176.48" fill="none" stroke="#BEBDBD"
                  stroke-width="1.42"/>
    </g>
    <g id="floors">
        <path id="9390_1" d="M7.6,175.7v-5.89H72.6v5.89H7.6Z" fill="transparent"/>
        <path id="9390_2" d="M7.6,169.81v-6.68H72.6v6.68H7.6Z" fill="transparent"/>
        <path id="9390_3" d="M7.6,163.2v-4.24H72.6v4.24H7.6Z" fill="transparent"/>
        <path id="9390_4" d="M7.6,159.22v-5.4H72.6v5.4H7.6Z" fill="transparent"/>
        <path id="9390_5" d="M7.6,153.86v-4.83H72.6v4.83H7.6Z" fill="transparent"/>
        <path id="9390_6" d="M7.6,149.14v-4.58H72.6v4.58H7.6Z" fill="transparent"/>
        <path id="9390_7" d="M7.6,144.56v-5.28H72.6v5.28H7.6Z" fill="transparent"/>
        <path id="9390_8" d="M7.6,139.36v-4.92H72.6v4.92H7.6Z" fill="transparent"/>
        <path id="9390_9" d="M7.6,134.48v-4.58H72.6v4.58H7.6Z" fill="transparent"/>
        <path id="9390_10" d="M7.6,129.89v-5.03H72.6v5.03H7.6Z" fill="transparent"/>
        <path id="9390_11" d="M7.6,124.87v-4.58H72.6v4.58H7.6Z" fill="transparent"/>
        <path id="9390_12" d="M7.6,120.28v-4.74H72.6v4.74H7.6Z" fill="transparent"/>
        <path id="9390_13" d="M7.6,115.55v-4.92H72.6v4.92H7.6Z" fill="transparent"/>
        <path id="9390_14" d="M7.6,110.63v-4.85H72.6v4.85H7.6Z" fill="transparent"/>
        <path id="9390_15" d="M7.6,105.99v-5.27H72.6v5.27H7.6Z" fill="transparent"/>
        <path id="9390_16" d="M7.6,100.72v-5.12H72.6v5.12H7.6Z" fill="transparent"/>
        <path id="9390_17" d="M7.6,95.78v-4.58H72.6v4.58H7.6Z" fill="transparent"/>
        <path id="9390_18" d="M7.6,91.2v-4.83H72.6v4.83H7.6Z" fill="transparent"/>
        <path id="9390_19" d="M7.6,86.36v-4.84H72.6v4.84H7.6Z" fill="transparent"/>
        <path id="9390_20" d="M7.6,81.52v-4.76H72.6v4.76H7.6Z" fill="transparent"/>
        <path id="9390_21" d="M7.6,76.76v-4.94H72.6v4.94H7.6Z" fill="transparent"/>
        <path id="9390_22" d="M7.6,71.82v-4.8H72.6v4.8H7.6Z" fill="transparent"/>
        <path id="9390_23" d="M7.6,67.02v-4.91H72.6v4.91H7.6Z" fill="transparent"/>
        <path id="9390_24" d="M7.6,62.12v-5.01H72.6v5.01H7.6Z" fill="transparent"/>
        <path id="9390_25" d="M7.6,57.1v-4.83H72.6v4.83H7.6Z" fill="transparent"/>
        <path id="9390_26" d="M7.46,52.27v-4.58H72.46v4.58H7.46Z" fill="transparent"/>
        <path id="9390_27" d="M7.46,47.69v-5.39H72.46v5.39H7.46Z" fill="transparent"/>
        <path id="9390_28" d="M7.46,42.5v-5.11H72.46v5.11H7.46Z" fill="transparent"/>
        <path id="9390_29" d="M7.46,37.53v-4.4H72.46v4.4H7.46Z" fill="transparent"/>
        <path id="9390_30" d="M7.46,33.13v-4.76H72.46v4.76H7.46Z" fill="transparent"/>
        <path id="9390_31" d="M7.46,28.42v-4.96H72.46v4.96H7.46Z" fill="transparent"/>
        <path id="9390_32" d="M7.46,23.55v-5.35H72.46v5.35H7.46Z" fill="transparent"/>
        <path id="9390_T" d="M7.6,18.2v-6.28H72.6v6.28H7.6Z" fill="transparent"/>
        <path id="9390_33" d="M7.6,11.92V6.68H72.6v5.24H7.6Z" fill="transparent"/>
    </g>
</svg>