<?xml version="1.0" encoding="UTF-8"?><svg id="_Слой_1" xmlns="http://www.w3.org/2000/svg" viewBox="0 0 1557.82 1179.99"><path id="Fon" d="M.5-6.51H1557.32V1172.48H.5V-6.51Z" fill="#fff"/><polygon id="_489" points="507.45 178.59 480.75 177.49 428.55 164.49 414.65 154.59 392.15 165.19 339.55 177.39 279.15 176.19 226.35 163.99 208.35 159.89 169.05 159.89 169.05 235.49 175.05 261.59 184.55 302.79 184.55 339.49 173.95 339.59 184.55 394.39 184.55 415.99 185.25 415.99 185.25 428.79 419.65 428.79 419.65 415.99 507.45 415.99 507.45 178.59" fill="none" stroke="#000" stroke-miterlimit="10"/><polygon id="_490" points="783.85 189.99 783.85 154.19 765.25 165.49 712.95 178.59 665.35 178.09 612.95 164.99 598.35 156.79 579.65 165.49 527.25 178.59 507.25 181.69 508.35 189.99 506.35 189.99 506.35 342.49 506.35 405.69 506.35 415.99 682.55 415.99 682.55 405.69 787.25 405.69 787.25 189.99 783.85 189.99" fill="none" fill-rule="evenodd" stroke="#000" stroke-miterlimit="10"/><polygon id="_491" points="1151.95 156.29 1135.35 165.09 1082.95 178.19 1035.65 177.49 983.25 164.49 965.85 156.59 949.65 165.29 897.25 178.39 851.35 178.49 798.95 165.39 787.25 157.19 787.25 193.59 787.25 406.09 899.35 406.09 899.35 416.59 1104.55 416.59 1104.55 406.09 1104.75 406.09 1104.75 333.59 1154.95 333.59 1154.95 214.19 1154.95 193.59 1154.95 165.09 1151.95 156.29" fill="none" fill-rule="evenodd" stroke="#000" stroke-miterlimit="10"/><polygon id="_492" points="1381.35 268.19 1393.25 233.09 1388.45 210.49 1388.45 172.99 1391.95 157.59 1365.55 153.59 1330.25 165.59 1277.65 177.79 1223.85 178.09 1171.25 165.89 1158.85 158.19 1158.85 185.69 1158.85 334.19 1134.05 334.19 1134.05 335.69 1105.85 335.69 1105.85 414.09 1134.05 414.09 1134.05 474.69 1271.75 474.69 1271.75 434.99 1323.95 434.99 1324.75 436.19 1360.45 434.99 1365.55 434.99 1365.55 434.79 1380.05 434.29 1372.25 407.59 1381.65 353.99 1389.35 334.29 1372.35 309.69 1381.35 268.19" fill="none" stroke="#000" stroke-miterlimit="10"/><path id="_493" d="M1392.75,545.49c-.1-.5-20-29.7-20-29.7l9.6-60.7,9.2-17.5h-122.6v43.5h-131.2v65.9h-46.9v96.1h46.9v12.6h235v-11.7l8.3,.3-8.1-18.8,9.6-60.7c.1-.1,10.3-18.8,10.2-19.3h0Z" fill="none" fill-rule="evenodd" stroke="#000" stroke-miterlimit="10"/><polygon id="_494" points="1395.45 975.79 1384.25 937.69 1373.85 907.29 1382.95 855.19 1389.25 843.29 1372.85 815.69 1381.95 764.09 1389.55 750.59 1372.85 722.49 1381.85 670.89 1389.45 657.09 1350.05 657.09 1136.75 657.09 1136.75 705.39 1084.05 705.39 1084.05 950.19 1077.95 950.19 1077.95 1010.39 1111.25 1010.39 1111.25 1010.39 1371.65 1010.39 1371.65 1010.39 1390.05 1010.29 1395.45 975.79" fill="none" fill-rule="evenodd" stroke="#000" stroke-miterlimit="10"/><polygon id="_495" points="1084.15 701.39 795.05 701.39 795.05 944.99 787.95 944.99 787.95 1010.39 1076.75 1010.39 1076.75 953.29 1084.15 953.29 1084.15 701.39" fill="none" stroke="#000" stroke-miterlimit="10"/><polygon id="_496" points="795.05 701.39 604.85 701.39 604.85 933.19 604.85 953.29 604.85 1010.39 785.15 1010.39 785.15 953.29 795.05 953.29 795.05 701.39" fill="none" stroke="#000" stroke-miterlimit="10"/><polygon id="_497" points="600.55 924.49 600.55 701.39 415.55 701.39 415.55 953.29 421.55 953.29 421.55 1010.39 602.05 1010.39 602.05 924.49 600.55 924.49" fill="none" stroke="#000" stroke-miterlimit="10"/><polygon id="_498" points="418.45 952.39 418.45 900.09 418.45 700.99 419.65 700.99 419.65 662.49 418.45 662.49 418.45 648.99 257.15 648.99 255.25 647.59 171.25 647.59 175.55 658.29 184.75 709.89 168.55 737.79 175.55 751.39 184.75 803.39 167.85 833.69 175.85 850.79 185.05 902.59 163.55 975.89 168.35 1010.39 420.15 1010.39 420.15 952.79 418.45 952.39" fill="none" stroke="#000" stroke-miterlimit="10"/><path id="_499" d="M419.65,588.49v-161.4H207.45v1.7h-9.8l-27-3.3,5.6,20.1,8.6,60.9-14.4,31.9,5.7,17.7,8.6,60.9s-8,27.6-8.6,29.3,31.2,2.7,31.2,2.7h212.2v9.1h69.7v-69.7h-69.6v.1Z" fill="none" fill-rule="evenodd" stroke="#000" stroke-miterlimit="10"/><g id="Walls_Inside"><path d="M600.07,706.77h6.57v132.88h-6.57v-132.88Zm191.63,0h6.57v132.88h-6.57v-132.88Zm345.79,2.51v-7.96h36.32v7.96h-36.32Zm0-48.54v-8.34h255.52v8.34h-255.52Zm1.87-177.74v-8.34h133.63v8.34h-133.63Z" fill="#2d2d2c"/><path d="M1265.28,431.94h8.34v51.06h-8.34v-51.06Z" fill="#2d2d2c"/><path d="M1266.16,440.27v-8.34h120.02v8.34h-120.02Zm-115.14-152.12h7.68v49.5h-7.68v-49.5ZM503.58,173.51h7.61v238.82h-7.61V173.51Zm596.78,157.24h7.01v83.23h-7.01v-83.23Zm-319.02-42.6h8.7v112.33h-8.7v-112.33Z" fill="#2d2d2c"/><path d="M1101.83,337.65v-7.01h55.7v7.01h-55.7ZM184.73,432.23v-7.01h231.43v7.01H184.73Zm0,218.85v-7.01h231.43v7.01H184.73Zm907.43-8.24v-7.03h12.22v7.03h-12.22Zm43.08-.01v-7.03h9.37v7.03h-9.37Zm-60.25,309.48h2.83v58.04h-2.83v-58.04Zm-290,0h2.83v58.04h-2.83v-58.04Zm-183.05,0h2.83v58.04h-2.83v-58.04Zm-183.37,0h2.83v58.04h-2.83v-58.04Z" fill="#2d2d2c"/><path d="M1136.65,636.21h7.96v34.35h-7.96v-34.35Zm-56.28,70.56h7.29v237.13h-7.29v-237.13Zm-668.58,0h6.57v132.88h-6.57v-132.88Z" fill="#2d2d2c"/></g><g id="Walls_Outside"><path d="M173.73,305.23l10.73-2.48m-15.97,3.69l3.93-.91m0,0l1.31-.3m-9.53-41.28l10.73-2.47m-15.97,3.68l3.93-.9m0,0l1.31-.31" fill="none" stroke="#000" stroke-linecap="round" stroke-linejoin="round" stroke-width=".22"/><path d="M158.96,265.16l9.53,41.28m6.44-44.96l9.53,41.27m-20.26-38.8l.54,2.36m0,0l-1.31,.3m0,0l-.54-2.35m5.44,23.58l-.27-1.18m0,0l1.31-.3m0,0l.27,1.18m-5.55-21.08l4.63,20.05m-3.98-20.2l4.63,20.05m-1.31,.3l-4.63-20.05m6.21,20.93l.14,.59m0,0l-.65,.15m0,0l.13,.59m0,0l-.65,.15m0,0l-.28-1.18m4.09,17.69l-.55-2.35m0,0l.66-.16m0,0l.13,.59m0,0l.66-.15m0,0l.41,1.77m-1.86-2.05l-3.26-14.16m2.23,.73l2.73,11.79m-3.14-13.56l.41,1.77m0,0l-1.31,.3m0,0l-.4-1.77m0,0l1.3-.3m2.23,15.63l-.4-1.76m0,0l1.31-.31m0,0l.4,1.77m0,0l-1.3,.3m-.41-1.76l-2.73-11.8m1.31-.3l2.73,11.79m-3.38-11.64l2.72,11.79" fill="none" stroke="#000" stroke-linecap="round" stroke-linejoin="round" stroke-width=".25"/><path d="M162.89,264.26l1.31-.31m-1.31,.31l1.31-.31m-5.24,1.21l3.93-.9m1.31-.31l10.73-2.47m-2.51,44.05l1.31-.3m-1.31,.3l1.31-.3m-5.24,1.21l3.93-.91m1.31-.3l10.73-2.48m-25.5-37.59l15.97-3.68" fill="none" stroke="#000" stroke-linecap="round" stroke-linejoin="round" stroke-width=".22"/><path d="M184.88,304.58l.29,1.25-15.97,3.68-.71-3.07,15.97-3.69,.29,1.25,.13,.58h0Z" fill="#2d2d2c" fill-rule="evenodd"/><path d="M152.52,237.28l15.97-3.69,6.44,27.88-15.97,3.69-6.44-27.88Z" fill="#2d2d2c"/><path d="M228.95,153.27l-2.48,10.73m3.68-15.97l-.9,3.93m0,0l-.3,1.31m52.6,12.14l-2.48,10.73m3.69-15.97l-.91,3.93m0,0l-.3,1.31" fill="none" stroke="#000" stroke-linecap="round" stroke-linejoin="round" stroke-width=".22"/><path d="M282.76,160.17l-52.61-12.14m48.92,28.11l-52.6-12.14m55.08,1.41l-3.01-.69m0,0l.3-1.31m0,0l3.01,.69m-30.06-6.94l1.5,.35m0,0l-.3,1.31m0,0l-1.5-.35m27.2,5.59l-25.55-5.9m25.4,6.56l-25.55-5.9m.3-1.31l25.55,5.9m-27.35-4.94l-.75-.17m0,0l.15-.66m0,0l-.75-.17m0,0l.15-.66m0,0l1.5,.35m-22.54-5.2l2.36,.54m0,0l-.15,.66m0,0l-.59-.14m0,0l-.16,.65m0,0l-1.76-.4m2.66-.77l18.68,4.31m-1.96,1.62l-15.03-3.47m17.29,3.99l-2.26-.52m0,0l.3-1.31m0,0l2.26,.52m0,0l-.3,1.31m-19.72-5.93l1.76,.41m0,0l-.3,1.31m0,0l-1.77-.41m0,0l.31-1.31m1.76,.41l16,3.69m-.3,1.31l-16-3.69m16.15,3.04l-16-3.7" fill="none" stroke="#000" stroke-linecap="round" stroke-linejoin="round" stroke-width=".25"/><path d="M281.85,164.1l-.3,1.31m.3-1.31l-.3,1.31m1.21-5.24l-.91,3.93m-.3,1.31l-2.48,10.73m-49.82-24.18l-.3,1.31m.3-1.31l-.3,1.31m1.2-5.24l-.9,3.93m-.3,1.31l-2.48,10.73m56.29-3.83l-3.69,15.97" fill="none" stroke="#000" stroke-linecap="round" stroke-linejoin="round" stroke-width=".22"/><path d="M214.7,161.28l-8.07-1.86,3.68-15.97,19.84,4.58-3.68,15.97-8.07-1.87-3.7-.85Z" fill="#2d2d2c" fill-rule="evenodd"/><path d="M279.06,176.14l3.69-15.97,32.63,7.53-3.69,15.97-32.63-7.53Z" fill="#2d2d2c"/><path d="M336.93,166.55l2.47,10.73m-3.68-15.97l.9,3.93m0,0l.31,1.31m52.6-12.15l2.48,10.73m-3.69-15.96l.91,3.92m0,0l.3,1.31" fill="none" stroke="#000" stroke-linecap="round" stroke-linejoin="round" stroke-width=".22"/><path d="M388.32,149.17l-52.6,12.14m56.29,3.82l-52.61,12.15m50.13-22.88l-3.01,.7m0,0l-.3-1.31m0,0l3.01-.7m-30.06,6.94l1.5-.34m0,0l.3,1.31m0,0l-1.5,.34m26.9-6.9l-25.55,5.9m25.7-5.24l-25.55,5.9m-.3-1.31l25.55-5.9m-26.75,7.55l-.75,.18m0,0l-.15-.66m0,0l-.75,.17m0,0l-.15-.65m0,0l1.5-.35m-22.55,5.21l2.36-.55m0,0l.15,.66m0,0l-.59,.13m0,0l.16,.66m0,0l-1.77,.41m2.05-1.86l18.69-4.31m-1.05,2.31l-15.03,3.47m17.28-3.99l-2.25,.52m0,0l-.31-1.31m0,0l2.26-.52m0,0l.3,1.31m-20.33,3.31l1.77-.4m0,0l.31,1.3m0,0l-1.77,.41m0,0l-.31-1.31m1.77-.4l16-3.7m.31,1.31l-16,3.69m15.84-4.34l-16,3.69" fill="none" stroke="#000" stroke-linecap="round" stroke-linejoin="round" stroke-width=".25"/><path d="M389.23,153.09l.3,1.31m-.3-1.31l.3,1.31m-1.21-5.23l.91,3.92m.3,1.31l2.48,10.73m-55.39,.11l.31,1.31m-.31-1.31l.31,1.31m-1.21-5.24l.9,3.93m.31,1.31l2.47,10.73m48.92-28.11l3.69,15.97" fill="none" stroke="#000" stroke-linecap="round" stroke-linejoin="round" stroke-width=".22"/><path d="M322.97,181.07l-11.27,2.6-3.68-15.96,27.7-6.4,3.68,15.97-11.26,2.6-5.17,1.19h0Z" fill="#2d2d2c" fill-rule="evenodd"/><path d="M388.32,149.16l24.32-5.62,3.69,15.97-24.32,5.62-3.69-15.97Z" fill="#2d2d2c"/><path d="M431.08,153.69l-2.66,10.68m3.96-15.9l-.97,3.91m0,0l-.33,1.31m52.38,13.06l-2.66,10.69m3.96-15.9l-.97,3.91m0,0l-.33,1.3" fill="none" stroke="#000" stroke-linecap="round" stroke-linejoin="round" stroke-width=".22"/><path d="M484.76,161.54l-52.38-13.07m48.42,28.97l-52.38-13.07m55.04,2.38l-2.99-.75m0,0l.33-1.3m0,0l2.99,.75m-29.93-7.47l1.49,.38m0,0l-.32,1.3m0,0l-1.5-.37m27.1,6.06l-25.44-6.34m25.28,6.99l-25.44-6.34m.32-1.3l25.45,6.34m-27.27-5.41l-.75-.19m0,0l.17-.65m0,0l-.75-.19m0,0l.16-.65m0,0l1.5,.37m-22.45-5.6l2.34,.59m.01,0l-.17,.65m0,0l-.58-.14m0,0l-.17,.65m0,0l-1.76-.44m2.67-.72l18.61,4.64m-1.98,1.58l-14.97-3.73m17.21,4.29l-2.24-.56m0,0l.32-1.3m0,0l2.25,.56m0,0l-.33,1.3m-19.61-6.27l1.76,.43m0,0l-.33,1.31m0,0l-1.76-.44m0,0l.33-1.3m1.76,.43l15.93,3.98m-.32,1.3l-15.94-3.97m16.1,3.32l-15.94-3.97" fill="none" stroke="#000" stroke-linecap="round" stroke-linejoin="round" stroke-width=".25"/><path d="M483.79,165.45l-.33,1.3m.33-1.3l-.33,1.3m1.3-5.21l-.97,3.91m-.33,1.3l-2.66,10.69m-49.39-25.06l-.33,1.31m.33-1.31l-.33,1.31m1.3-5.22l-.97,3.91m-.33,1.31l-2.66,10.68m56.34-2.83l-3.96,15.9" fill="none" stroke="#000" stroke-linecap="round" stroke-linejoin="round" stroke-width=".22"/><path d="M416.7,161.45l-8.02-2,3.96-15.9,19.74,4.92-3.96,15.9-8.03-2-3.69-.92Z" fill="#2d2d2c" fill-rule="evenodd"/><path d="M480.79,177.43l3.96-15.9,25.26,6.3-3.96,15.9-25.26-6.3Z" fill="#2d2d2c"/><path d="M615.5,154.27l-2.67,10.68m3.97-15.9l-.98,3.91m0,0l-.32,1.31m52.38,13.06l-2.66,10.68m3.96-15.9l-.97,3.91m0,0l-.33,1.31" fill="none" stroke="#000" stroke-linecap="round" stroke-linejoin="round" stroke-width=".22"/><path d="M669.18,162.11l-52.38-13.06m48.42,28.96l-52.39-13.06m55.05,2.38l-2.99-.75m0,0l.32-1.3m0,0l3,.74m-29.94-7.46l1.5,.37m0,0l-.33,1.31m0,0l-1.49-.38m27.1,6.07l-25.44-6.35m25.28,7l-25.45-6.34m.33-1.31l25.44,6.35m-27.26-5.42l-.75-.18m0,0l.16-.66m0,0l-.75-.18m0,0l.17-.65m0,0l1.49,.37m-22.45-5.6l2.35,.59m0,0l-.16,.65m0,0l-.59-.15m0,0l-.16,.65m0,0l-1.76-.43m2.67-.72l18.61,4.64m-1.99,1.58l-14.96-3.73m17.21,4.29l-2.25-.56m0,0l.33-1.3m0,0l2.24,.56m0,0l-.32,1.31m-19.62-6.28l1.76,.44m0,0l-.32,1.31m0,0l-1.76-.44m0,0l.32-1.31m1.76,.44l15.94,3.97m-.33,1.31l-15.93-3.97m16.09,3.32l-15.93-3.98" fill="none" stroke="#000" stroke-linecap="round" stroke-linejoin="round" stroke-width=".25"/><path d="M668.21,166.02l-.33,1.31m.33-1.31l-.33,1.31m1.3-5.22l-.97,3.91m-.33,1.31l-2.66,10.68m-49.4-25.05l-.32,1.31m.32-1.31l-.32,1.31m1.3-5.22l-.98,3.91m-.32,1.31l-2.67,10.68m56.35-2.84l-3.96,15.9" fill="none" stroke="#000" stroke-linecap="round" stroke-linejoin="round" stroke-width=".22"/><path d="M601.15,162.04l-8.01-2,3.97-15.9,19.69,4.91-3.97,15.9-8-1.99-3.68-.92Z" fill="#2d2d2c" fill-rule="evenodd"/><path d="M665.2,178l3.97-15.9,24.72,6.16-3.97,15.9-24.72-6.16Z" fill="#2d2d2c"/><path d="M801.5,154.64l-2.67,10.69m3.97-15.9l-.98,3.91m0,0l-.32,1.3m52.38,13.06l-2.66,10.69m3.96-15.9l-.97,3.91m0,0l-.33,1.3" fill="none" stroke="#000" stroke-linecap="round" stroke-linejoin="round" stroke-width=".22"/><path d="M855.18,162.49l-52.38-13.06m48.42,28.96l-52.39-13.06m55.05,2.37l-2.99-.75m0,0l.32-1.3m0,0l3,.75m-29.94-7.47l1.5,.38m0,0l-.33,1.3m0,0l-1.49-.37m27.1,6.06l-25.44-6.34m25.28,6.99l-25.45-6.34m.33-1.3l25.44,6.34m-27.26-5.41l-.75-.19m0,0l.16-.65m0,0l-.75-.19m0,0l.17-.65m0,0l1.49,.37m-22.45-5.59l2.35,.58m0,0l-.16,.65m0,0l-.59-.14m0,0l-.16,.65m0,0l-1.76-.44m2.67-.72l18.61,4.64m-1.99,1.58l-14.96-3.73m17.21,4.29l-2.25-.56m0,0l.33-1.3m0,0l2.24,.56m0,0l-.32,1.3m-19.62-6.27l1.76,.44m0,0l-.32,1.3m0,0l-1.76-.44m0,0l.32-1.3m1.76,.44l15.94,3.97m-.33,1.3l-15.93-3.97m16.09,3.32l-15.93-3.97" fill="none" stroke="#000" stroke-linecap="round" stroke-linejoin="round" stroke-width=".25"/><path d="M854.21,166.4l-.33,1.3m.33-1.3l-.33,1.3m1.3-5.21l-.97,3.91m-.33,1.3l-2.66,10.69m-49.4-25.05l-.32,1.3m.32-1.3l-.32,1.3m1.3-5.21l-.98,3.91m-.32,1.3l-2.67,10.69m56.35-2.84l-3.96,15.9" fill="none" stroke="#000" stroke-linecap="round" stroke-linejoin="round" stroke-width=".22"/><path d="M786.61,162.28l-8.38-2.09,3.96-15.9,20.61,5.13-3.97,15.91-8.38-2.09-3.84-.96h0Z" fill="#2d2d2c" fill-rule="evenodd"/><path d="M851.2,178.38l3.97-15.9,22.87,5.7-3.97,15.9-22.87-5.7Z" fill="#2d2d2c"/><path d="M985.83,153.7l-2.66,10.68m3.96-15.9l-.97,3.91m0,0l-.33,1.31m52.38,13.06l-2.66,10.69m3.96-15.9l-.97,3.91m0,0l-.33,1.3" fill="none" stroke="#000" stroke-linecap="round" stroke-linejoin="round" stroke-width=".22"/><path d="M1039.51,161.55l-52.38-13.07m48.42,28.97l-52.38-13.07m55.04,2.38l-2.99-.75m0,0l.33-1.3m0,0l2.99,.75m-29.93-7.47l1.49,.38m0,0l-.32,1.3m0,0l-1.5-.37m27.1,6.06l-25.44-6.34m25.28,6.99l-25.44-6.34m.32-1.3l25.45,6.34m-27.27-5.41l-.75-.19m0,0l.17-.65m0,0l-.75-.19m0,0l.16-.65m0,0l1.5,.37m-22.45-5.6l2.34,.59m.01,0l-.17,.65m0,0l-.58-.14m0,0l-.17,.65m0,0l-1.76-.44m2.67-.72l18.61,4.64m-1.98,1.58l-14.97-3.73m17.21,4.29l-2.24-.56m0,0l.32-1.3m0,0l2.25,.56m0,0l-.33,1.3m-19.61-6.27l1.76,.43m0,0l-.33,1.31m0,0l-1.76-.44m0,0l.33-1.3m1.76,.43l15.93,3.98m-.32,1.3l-15.94-3.97m16.1,3.32l-15.94-3.97" fill="none" stroke="#000" stroke-linecap="round" stroke-linejoin="round" stroke-width=".25"/><path d="M1038.54,165.46l-.33,1.3m.33-1.3l-.33,1.3m1.3-5.21l-.97,3.91m-.33,1.3l-2.66,10.69m-49.39-25.06l-.33,1.31m.33-1.31l-.33,1.31m1.3-5.22l-.97,3.91m-.33,1.31l-2.66,10.68m56.34-2.83l-3.96,15.9" fill="none" stroke="#000" stroke-linecap="round" stroke-linejoin="round" stroke-width=".22"/><path d="M971.9,161.58l-7.72-1.93,3.97-15.9,18.98,4.73-3.96,15.9-7.72-1.92-3.55-.88Z" fill="#2d2d2c" fill-rule="evenodd"/><path d="M1035.53,177.43l3.96-15.9,24.92,6.21-3.96,15.9-24.92-6.21Z" fill="#2d2d2c"/><path d="M1173.65,155.12l-2.47,10.73m3.68-15.97l-.9,3.93m0,0l-.31,1.31m52.61,12.14l-2.48,10.73m3.69-15.96l-.91,3.92m0,0l-.3,1.31" fill="none" stroke="#000" stroke-linecap="round" stroke-linejoin="round" stroke-width=".22"/><path d="M1227.47,162.03l-52.61-12.15m48.92,28.11l-52.6-12.14m55.08,1.41l-3.01-.69m0,0l.3-1.31m0,0l3.01,.69m-30.06-6.94l1.5,.35m0,0l-.3,1.31m0,0l-1.5-.35m27.2,5.59l-25.55-5.9m25.4,6.56l-25.55-5.9m.3-1.31l25.55,5.9m-27.35-4.94l-.75-.17m0,0l.15-.66m0,0l-.75-.17m0,0l.15-.65m0,0l1.5,.34m-22.54-5.2l2.35,.54m0,0l-.15,.66m0,0l-.59-.14m0,0l-.15,.65m0,0l-1.77-.4m2.66-.77l18.69,4.32m-1.96,1.61l-15.03-3.47m17.29,3.99l-2.26-.52m0,0l.3-1.31m0,0l2.26,.52m0,0l-.3,1.31m-19.73-5.93l1.77,.41m0,0l-.3,1.31m0,0l-1.77-.41m0,0l.3-1.31m1.77,.41l16,3.69m-.3,1.31l-16-3.69m16.15,3.04l-16-3.7" fill="none" stroke="#000" stroke-linecap="round" stroke-linejoin="round" stroke-width=".25"/><path d="M1226.56,165.95l-.3,1.31m.3-1.31l-.3,1.31m1.21-5.23l-.91,3.92m-.3,1.31l-2.48,10.73m-49.82-24.18l-.31,1.31m.31-1.31l-.31,1.31m1.21-5.24l-.9,3.93m-.31,1.31l-2.47,10.73m56.29-3.82l-3.69,15.96" fill="none" stroke="#000" stroke-linecap="round" stroke-linejoin="round" stroke-width=".22"/><path d="M1156.8,162.53l-9.85-2.27,3.69-15.97,24.22,5.59-3.68,15.97-9.85-2.28-4.53-1.04h0Z" fill="#2d2d2c" fill-rule="evenodd"/><path d="M1223.75,177.99l3.69-15.97,26.23,6.06-3.69,15.97-26.23-6.06Z" fill="#2d2d2c"/><path d="M524.47,167.79l2.66,10.69m-3.96-15.9l.97,3.91m0,0l.33,1.3m52.38-13.06l2.66,10.69m-3.96-15.9l.97,3.91m0,0l.33,1.3" fill="none" stroke="#000" stroke-linecap="round" stroke-linejoin="round" stroke-width=".22"/><path d="M575.55,149.52l-52.38,13.06m56.34,2.84l-52.38,13.06m49.72-23.75l-2.99,.75m0,0l-.33-1.31m0,0l2.99-.74m-29.93,7.46l1.5-.37m0,0l.32,1.3m0,0l-1.49,.37m26.77-7.36l-25.44,6.34m25.61-5.69l-25.45,6.34m-.32-1.3l25.44-6.35m-26.61,8.02l-.75,.19m0,0l-.16-.65m0,0l-.75,.19m0,0l-.17-.66m0,0l1.5-.37m-22.45,5.6l2.35-.59m0,0l.16,.65m0,0l-.58,.15m0,0l.16,.65m0,0l-1.76,.44m2.02-1.89l18.61-4.64m-1.01,2.33l-14.97,3.73m17.21-4.29l-2.24,.56m0,0l-.33-1.3m0,0l2.25-.56m0,0l.32,1.3m-20.26,3.67l1.76-.44m0,0l.32,1.3m0,0l-1.76,.44m0,0l-.32-1.3m1.76-.44l15.93-3.97m.33,1.3l-15.94,3.97m15.77-4.62l-15.93,3.97" fill="none" stroke="#000" stroke-linecap="round" stroke-linejoin="round" stroke-width=".25"/><path d="M576.52,153.43l.33,1.3m-.33-1.3l.33,1.3m-1.3-5.21l.97,3.91m.33,1.3l2.66,10.69m-55.37,1.07l.33,1.3m-.33-1.3l.33,1.3m-1.3-5.21l.97,3.91m.33,1.3l2.66,10.69m48.42-28.96l3.96,15.9" fill="none" stroke="#000" stroke-linecap="round" stroke-linejoin="round" stroke-width=".22"/><path d="M514.63,181.6l-8.57,2.13-3.97-15.9,21.08-5.25,3.96,15.9-8.57,2.13-3.93,.99h0Z" fill="#2d2d2c" fill-rule="evenodd"/><path d="M575.55,149.51l21.57-5.38,3.96,15.9-21.57,5.38-3.96-15.9Z" fill="#2d2d2c"/><path d="M710.13,167.79l2.67,10.69m-3.97-15.9l.98,3.91m0,0l.32,1.3m52.39-13.06l2.66,10.69m-3.96-15.9l.97,3.91m0,0l.33,1.3" fill="none" stroke="#000" stroke-linecap="round" stroke-linejoin="round" stroke-width=".22"/><path d="M761.22,149.52l-52.39,13.06m56.35,2.84l-52.38,13.06m49.72-23.75l-3,.75m0,0l-.32-1.31m0,0l2.99-.74m-29.93,7.46l1.49-.37m0,0l.33,1.3m0,0l-1.5,.37m26.78-7.36l-25.44,6.34m25.6-5.69l-25.44,6.34m-.33-1.3l25.45-6.35m-26.62,8.02l-.75,.19m0,0l-.16-.65m0,0l-.75,.19m0,0l-.16-.66m0,0l1.5-.37m-22.45,5.6l2.35-.59m0,0l.16,.65m0,0l-.59,.15m0,0l.17,.65m0,0l-1.77,.44m2.03-1.89l18.6-4.64m-1.01,2.33l-14.96,3.73m17.21-4.29l-2.25,.56m0,0l-.32-1.3m0,0l2.24-.56m0,0l.33,1.3m-20.27,3.67l1.76-.44m0,0l.33,1.3m0,0l-1.76,.44m0,0l-.33-1.3m1.76-.44l15.94-3.97m.32,1.3l-15.93,3.97m15.77-4.62l-15.93,3.97" fill="none" stroke="#000" stroke-linecap="round" stroke-linejoin="round" stroke-width=".25"/><path d="M762.19,153.43l.33,1.3m-.33-1.3l.33,1.3m-1.3-5.21l.97,3.91m.33,1.3l2.66,10.69m-55.37,1.07l.32,1.3m-.32-1.3l.32,1.3m-1.3-5.21l.98,3.91m.32,1.3l2.67,10.69m48.42-28.96l3.96,15.9" fill="none" stroke="#000" stroke-linecap="round" stroke-linejoin="round" stroke-width=".22"/><path d="M699.23,181.86l-9.29,2.32-3.97-15.9,22.86-5.7,3.97,15.9-9.3,2.32-4.27,1.06h0Z" fill="#2d2d2c" fill-rule="evenodd"/><path d="M761.22,149.51l20.98-5.23,3.97,15.9-20.98,5.23-3.97-15.9Z" fill="#2d2d2c"/><path d="M894.51,167.65l2.66,10.68m-3.96-15.9l.97,3.91m0,0l.33,1.31m52.38-13.06l2.67,10.68m-3.97-15.9l.98,3.91m0,0l.32,1.31" fill="none" stroke="#000" stroke-linecap="round" stroke-linejoin="round" stroke-width=".22"/><path d="M945.59,149.37l-52.38,13.06m56.35,2.84l-52.39,13.07m49.72-23.75l-2.99,.74m0,0l-.33-1.3m0,0l3-.75m-29.94,7.47l1.5-.38m0,0l.32,1.31m0,0l-1.49,.37m26.78-7.37l-25.45,6.35m25.61-5.7l-25.45,6.35m-.32-1.31l25.44-6.34m-26.61,8.02l-.75,.19m0,0l-.16-.65m0,0l-.75,.18m0,0l-.16-.65m0,0l1.49-.37m-22.45,5.59l2.35-.58m0,0l.16,.65m0,0l-.58,.15m0,0l.16,.65m0,0l-1.76,.44m2.02-1.89l18.61-4.64m-1.01,2.33l-14.97,3.73m17.21-4.29l-2.24,.56m0,0l-.33-1.3m0,0l2.25-.56m0,0l.32,1.3m-20.26,3.67l1.76-.44m0,0l.32,1.3m0,0l-1.76,.44m0,0l-.32-1.3m1.76-.44l15.93-3.97m.33,1.3l-15.94,3.97m15.77-4.62l-15.93,3.97" fill="none" stroke="#000" stroke-linecap="round" stroke-linejoin="round" stroke-width=".25"/><path d="M946.57,153.28l.32,1.31m-.32-1.31l.32,1.31m-1.3-5.22l.98,3.91m.32,1.31l2.67,10.68m-55.38,1.07l.33,1.31m-.33-1.31l.33,1.31m-1.3-5.22l.97,3.91m.33,1.31l2.66,10.68m48.42-28.96l3.97,15.91" fill="none" stroke="#000" stroke-linecap="round" stroke-linejoin="round" stroke-width=".22"/><path d="M883.48,181.75l-9.39,2.34-3.96-15.9,23.08-5.76,3.96,15.9-9.38,2.35-4.31,1.07h0Z" fill="#2d2d2c" fill-rule="evenodd"/><path d="M945.59,149.36l22.56-5.62,3.97,15.9-22.56,5.62-3.97-15.9Z" fill="#2d2d2c"/><path d="M1080.17,167.39l2.67,10.69m-3.96-15.9l.97,3.91m0,0l.32,1.3m52.39-13.06l2.66,10.69m-3.96-15.9l.97,3.91m0,0l.33,1.3" fill="none" stroke="#000" stroke-linecap="round" stroke-linejoin="round" stroke-width=".22"/><path d="M1131.26,149.12l-52.38,13.06m56.34,2.84l-52.38,13.06m49.72-23.75l-3,.75m0,0l-.32-1.3m0,0l2.99-.75m-29.93,7.46l1.5-.37m0,0l.32,1.3m0,0l-1.5,.38m26.78-7.37l-25.44,6.34m25.6-5.69l-25.44,6.34m-.32-1.3l25.44-6.34m-26.62,8.02l-.74,.18m0,0l-.17-.65m0,0l-.74,.19m0,0l-.17-.65m0,0l1.5-.38m-22.45,5.6l2.35-.58m0,0l.16,.65m0,0l-.59,.14m0,0l.17,.66m0,0l-1.76,.43m2.02-1.88l18.6-4.64m-1.01,2.33l-14.96,3.73m17.21-4.29l-2.25,.56m0,0l-.32-1.31m0,0l2.24-.56m0,0l.33,1.31m-20.27,3.66l1.77-.44m0,0l.32,1.31m0,0l-1.76,.44m0,0l-.33-1.31m1.77-.44l15.93-3.97m.32,1.31l-15.93,3.97m15.77-4.63l-15.93,3.98" fill="none" stroke="#000" stroke-linecap="round" stroke-linejoin="round" stroke-width=".25"/><path d="M1132.23,153.03l.33,1.3m-.33-1.3l.33,1.3m-1.3-5.21l.97,3.91m.33,1.3l2.66,10.69m-55.37,1.07l.32,1.3m-.32-1.3l.32,1.3m-1.29-5.21l.97,3.91m.32,1.3l2.67,10.69m48.42-28.96l3.96,15.9" fill="none" stroke="#000" stroke-linecap="round" stroke-linejoin="round" stroke-width=".22"/><path d="M1069.57,181.39l-9.1,2.27-3.96-15.9,22.36-5.58,3.97,15.9-9.1,2.27-4.17,1.04Z" fill="#2d2d2c" fill-rule="evenodd"/><path d="M1131.25,149.11l19.39-4.83,3.96,15.9-19.39,4.83-3.96-15.9Z" fill="#2d2d2c"/><path d="M1275.09,166.95l2.48,10.73m-3.69-15.96l.91,3.92m0,0l.3,1.31m52.61-12.14l2.47,10.73m-3.68-15.97l.9,3.93m0,0l.31,1.31" fill="none" stroke="#000" stroke-linecap="round" stroke-linejoin="round" stroke-width=".22"/><path d="M1326.49,149.57l-52.61,12.15m56.29,3.82l-52.6,12.14m50.13-22.87l-3.01,.69m0,0l-.3-1.31m0,0l3-.69m-30.05,6.94l1.5-.35m0,0l.3,1.31m0,0l-1.5,.35m26.9-6.9l-25.55,5.9m25.7-5.25l-25.55,5.9m-.3-1.31l25.55-5.9m-26.75,7.56l-.75,.17m0,0l-.16-.65m0,0l-.75,.17m0,0l-.15-.65m0,0l1.51-.35m-22.55,5.2l2.36-.54m0,0l.15,.65m0,0l-.59,.14m0,0l.15,.65m0,0l-1.77,.41m2.06-1.85l18.68-4.31m-1.05,2.31l-15.03,3.47m17.29-3.99l-2.26,.52m0,0l-.3-1.31m0,0l2.25-.52m0,0l.31,1.31m-20.33,3.31l1.77-.41m0,0l.3,1.31m0,0l-1.77,.41m0,0l-.3-1.31m1.77-.41l16-3.69m.3,1.31l-16,3.69m15.85-4.35l-16,3.7" fill="none" stroke="#000" stroke-linecap="round" stroke-linejoin="round" stroke-width=".25"/><path d="M1327.39,153.5l.31,1.31m-.31-1.31l.31,1.31m-1.21-5.24l.9,3.93m.31,1.31l2.47,10.73m-55.38,.1l.3,1.31m-.3-1.31l.3,1.31m-1.21-5.23l.91,3.92m.3,1.31l2.48,10.73m48.92-28.11l3.68,15.97" fill="none" stroke="#000" stroke-linecap="round" stroke-linejoin="round" stroke-width=".22"/><path d="M1261.22,181.46l-11.21,2.59-3.69-15.97,27.56-6.36,3.69,15.96-11.21,2.59-5.14,1.19h0Z" fill="#2d2d2c" fill-rule="evenodd"/><path d="M1326.49,149.55l26.74-6.17,3.69,15.97-26.74,6.17-3.69-15.97Z" fill="#2d2d2c"/><path d="M157.9,206.87h11.01m-16.38,0h4.03m0,0h1.34m0-37.54h11.01m-16.38,0h4.03m0,0h1.34" fill="none" stroke="#000" stroke-linecap="round" stroke-linejoin="round" stroke-width=".22"/><path d="M152.53,169.33v37.54m16.38-37.54v37.54m-11.01-37.54v2.42m0,0h-1.34m0,0v-2.42m0,19.39v-1.21m0,0h1.34m0,0v1.21m-.67-16.97v15.76m.67-15.76v15.76m-1.34,0v-15.76m1.34,16.97v.6m0,0h-.67m0,0v.61m0,0h-.67m0,0v-1.21m0,18.15v-2.42m0,0h.67m0,0v.61m0,0h.67m0,0v1.81m-1.34-2.42v-14.52m2.01,1.21v12.1m0-13.92v1.82m0,0h-1.34m0,0v-1.82m0,0h1.34m-1.34,15.74v-1.82m0,0h1.34m0,0v1.82m0,0h-1.34m0-1.82v-12.1m1.34,0v12.1m-.67-12.1v12.1" fill="none" stroke="#000" stroke-linecap="round" stroke-linejoin="round" stroke-width=".25"/><path d="M156.56,169.33h1.34m-1.34,0h1.34m-5.37,0h4.03m1.34,0h11.01m-12.35,37.54h1.34m-1.34,0h1.34m-5.37,0h4.03m1.34,0h11.01m-16.38-37.54h16.38" fill="none" stroke="#000" stroke-linecap="round" stroke-linejoin="round" stroke-width=".22"/><path d="M168.91,224.92v12.36h-16.38v-30.41h16.38v18.05Z" fill="#2d2d2c" fill-rule="evenodd"/><path d="M152.53,143.4h16.39v25.93h-16.39v-25.93Z" fill="#2d2d2c"/><path d="M173.8,397.24l10.81-2.1m-16.08,3.12l3.95-.77m0,0l1.32-.25m-9.88-50.85l10.81-2.1m-16.09,3.13l3.96-.77m0,0l1.32-.26" fill="none" stroke="#000" stroke-linecap="round" stroke-linejoin="round" stroke-width=".22"/><path d="M158.64,347.42l9.89,50.84m6.2-53.97l9.88,50.85m-20.69-48.75l.46,2.38m0,0l-1.32,.26m0,0l-.46-2.38m4.62,23.76l-.23-1.18m0,0l1.32-.26m0,0l.23,1.19m-4.82-21.26l3.93,20.2m-3.27-20.33l3.93,20.2m-1.32,.26l-3.93-20.2m5.48,21.13l.11,.59m0,0l-.66,.13m0,0l.12,.59m0,0l-.66,.13m0,0l-.23-1.19m5.26,27.08l-.56-2.9m0,0l.66-.13m0,0l.14,.73m0,0l.66-.13m0,0l.42,2.18m-1.88-2.65l-4.47-22.99m3.34,6.62l2.82,14.53m-4.3-22.13l.35,1.79m0,0l-1.32,.25m0,0l-.35-1.78m0,0l1.32-.26m3.41,24.57l-.42-2.18m0,0l1.31-.26m0,0l.43,2.18m0,0l-1.32,.26m-.42-2.18l-3.96-20.35m1.32-.25l3.95,20.34m-4.64-20.22l3.98,20.35" fill="none" stroke="#000" stroke-linecap="round" stroke-linejoin="round" stroke-width=".25"/><path d="M162.6,346.65l1.32-.26m-1.32,.26l1.32-.26m-5.28,1.03l3.96-.77m1.32-.26l10.81-2.1m-2.25,53.2l1.32-.25m-1.32,.25l1.32-.25m-5.27,1.02l3.95-.77m1.32-.25l10.81-2.1m-25.97-47.72l16.09-3.13" fill="none" stroke="#000" stroke-linecap="round" stroke-linejoin="round" stroke-width=".22"/><path d="M184.94,396.82l.23,1.16-16.09,3.13-.55-2.85,16.08-3.12,.23,1.15,.1,.53Z" fill="#2d2d2c" fill-rule="evenodd"/><path d="M157.2,339.95l16.09-3.13,1.45,7.47-16.09,3.13-1.45-7.47Z" fill="#2d2d2c"/><path d="M173.82,507.91l10.9-1.53m-16.22,2.28l3.99-.56m0,0l1.33-.19m-8.61-60.87l10.91-1.53m-16.23,2.28l3.99-.56m0,0l1.33-.19" fill="none" stroke="#000" stroke-linecap="round" stroke-linejoin="round" stroke-width=".22"/><path d="M159.89,447.79l8.61,60.87m7.62-63.15l8.6,60.87m-19.51-59.34l.34,2.4m0,0l-1.33,.18m0,0l-.34-2.39m3.37,23.97l-.17-1.2m0,0l1.33-.19m0,0l.17,1.2m-3.7-21.48l2.87,20.38m-2.2-20.47l2.86,20.37m-1.33,.19l-2.86-20.38m4.36,21.39l.08,.6m0,0l-.66,.09m0,0l.08,.6m0,0l-.66,.1m0,0l-.17-1.2m5.24,36.9l-.41-2.93m0,0l.67-.09m0,0l.1,.73m0,0l.67-.09m0,0l.31,2.19m-1.75-2.74l-4.65-32.77m2.99,6.78l3.45,24.24m-4.53-31.9l.25,1.8m0,0l-1.33,.18m0,0l-.25-1.8m0,0l1.33-.18m3.51,34.29l-.31-2.2m0,0l1.33-.19m0,0l.31,2.2m0,0l-1.33,.19m-.31-2.2l-4.28-30.11m1.33-.18l4.28,30.1m-4.97-30.01l4.31,30.11" fill="none" stroke="#000" stroke-linecap="round" stroke-linejoin="round" stroke-width=".25"/><path d="M163.88,447.23l1.33-.19m-1.33,.19l1.33-.19m-5.32,.75l3.99-.56m1.33-.19l10.91-1.53m-3.63,62.59l1.33-.19m-1.33,.19l1.33-.19m-5.32,.75l3.99-.56m1.33-.19l10.9-1.53m-24.83-58.59l16.23-2.28" fill="none" stroke="#000" stroke-linecap="round" stroke-linejoin="round" stroke-width=".22"/><path d="M184.99,508.25l.18,1.29-16.23,2.28-.44-3.16,16.22-2.28,.18,1.29,.09,.58h0Z" fill="#2d2d2c" fill-rule="evenodd"/><path d="M157.2,428.6l16.23-2.28,2.7,19.19-16.23,2.28-2.7-19.19Z" fill="#2d2d2c"/><path d="M173.78,618.39l10.91-1.53m-16.23,2.28l3.99-.56m0,0l1.33-.19m-8.6-60.88l10.9-1.53m-16.22,2.28l3.99-.56m0,0l1.33-.19" fill="none" stroke="#000" stroke-linecap="round" stroke-linejoin="round" stroke-width=".22"/><path d="M159.86,558.26l8.6,60.88m7.63-63.16l8.6,60.88m-19.51-59.35l.33,2.4m0,0l-1.32,.19m0,0l-.34-2.4m3.37,23.97l-.17-1.19m0,0l1.33-.19m0,0l.17,1.2m-3.7-21.48l2.86,20.37m-2.2-20.47l2.87,20.38m-1.33,.19l-2.87-20.38m4.37,21.39l.08,.6m0,0l-.66,.09m0,0l.08,.6m0,0l-.66,.09m0,0l-.17-1.2m5.23,36.91l-.41-2.93m0,0l.67-.1m0,0l.1,.73m0,0l.67-.09m0,0l.3,2.2m-1.74-2.74l-4.65-32.78m2.98,6.79l3.46,24.24m-4.53-31.91l.25,1.8m0,0l-1.33,.19m0,0l-.25-1.8m0,0l1.33-.19m3.51,34.29l-.31-2.19m0,0l1.33-.19m0,0l.31,2.2m0,0l-1.33,.18m-.31-2.19l-4.28-30.11m1.33-.19l4.28,30.11m-4.97-30.02l4.31,30.11" fill="none" stroke="#000" stroke-linecap="round" stroke-linejoin="round" stroke-width=".25"/><path d="M163.85,557.7l1.33-.19m-1.33,.19l1.33-.19m-5.32,.75l3.99-.56m1.33-.19l10.9-1.53m-3.63,62.6l1.33-.19m-1.33,.19l1.33-.19m-5.32,.75l3.99-.56m1.33-.19l10.91-1.53m-24.83-58.6l16.23-2.28" fill="none" stroke="#000" stroke-linecap="round" stroke-linejoin="round" stroke-width=".22"/><path d="M184.97,618.83l.19,1.36-16.23,2.28-.47-3.33,16.23-2.28,.19,1.35,.09,.62h0Z" fill="#2d2d2c" fill-rule="evenodd"/><path d="M157.18,539.3l16.23-2.28,2.66,18.95-16.23,2.28-2.66-18.95Z" fill="#2d2d2c"/><path d="M173.75,711.7l10.85-1.91m-16.14,2.85l3.97-.7m0,0l1.32-.24m-9.14-51.57l10.85-1.91m-16.14,2.85l3.97-.7m0,0l1.32-.24" fill="none" stroke="#000" stroke-linecap="round" stroke-linejoin="round" stroke-width=".22"/><path d="M159.32,661.07l9.14,51.57m7-54.42l9.14,51.57m-19.99-49.66l.42,2.39m0,0l-1.32,.23m0,0l-.42-2.38m4.2,23.84l-.21-1.2m0,0l1.32-.23m0,0l.21,1.19m-4.44-21.34l3.57,20.27m-2.91-20.38l3.57,20.26m-1.32,.23l-3.57-20.26m5.1,21.22l.11,.6m0,0l-.66,.12m0,0l.1,.59m0,0l-.66,.12m0,0l-.21-1.19m4.94,27.73l-.44-2.49m0,0l.66-.11m0,0l.11,.62m0,0l.67-.12m0,0l.32,1.86m-1.76-2.25l-4.94-27.76m3.04,5.64l3.67,20.53m-4.18-23.41l.32,1.79m0,0l-1.33,.23m0,0l-.31-1.78m0,0l1.32-.24m3.18,25.51l-.32-1.86m0,0l1.32-.24m0,0l.33,1.87m0,0l-1.33,.23m-.32-1.86l-3.87-21.63m1.33-.23l3.86,21.62m-4.54-21.5l3.88,21.62" fill="none" stroke="#000" stroke-linecap="round" stroke-linejoin="round" stroke-width=".25"/><path d="M163.29,660.37l1.32-.24m-1.32,.24l1.32-.24m-5.29,.94l3.97-.7m1.32-.24l10.85-1.91m-3.03,53.72l1.32-.24m-1.32,.24l1.32-.24m-5.29,.94l3.97-.7m1.32-.24l10.85-1.91m-25.28-48.72l16.14-2.85" fill="none" stroke="#000" stroke-linecap="round" stroke-linejoin="round" stroke-width=".22"/><path d="M184.93,711.65l.22,1.28-16.13,2.84-.56-3.13,16.14-2.85,.23,1.28,.1,.58h0Z" fill="#2d2d2c" fill-rule="evenodd"/><path d="M157.2,649.01l16.14-2.85,2.13,12.05-16.14,2.85-2.13-12.05Z" fill="#2d2d2c"/><path d="M173.75,805.2l10.85-1.91m-16.14,2.85l3.97-.7m0,0l1.32-.24m-9.14-51.57l10.85-1.91m-16.14,2.85l3.97-.7m0,0l1.32-.24" fill="none" stroke="#000" stroke-linecap="round" stroke-linejoin="round" stroke-width=".22"/><path d="M159.32,754.57l9.14,51.57m7-54.42l9.14,51.57m-19.99-49.66l.42,2.39m0,0l-1.32,.23m0,0l-.42-2.38m4.2,23.84l-.21-1.2m0,0l1.32-.23m0,0l.21,1.19m-4.44-21.34l3.57,20.27m-2.91-20.38l3.57,20.26m-1.32,.23l-3.57-20.26m5.1,21.22l.11,.6m0,0l-.66,.12m0,0l.1,.59m0,0l-.66,.12m0,0l-.21-1.19m4.94,27.73l-.44-2.49m0,0l.66-.11m0,0l.11,.62m0,0l.67-.12m0,0l.32,1.86m-1.76-2.25l-4.94-27.76m3.04,5.64l3.67,20.53m-4.18-23.41l.32,1.79m0,0l-1.33,.23m0,0l-.31-1.78m0,0l1.32-.24m3.18,25.51l-.32-1.86m0,0l1.32-.24m0,0l.33,1.87m0,0l-1.33,.23m-.32-1.86l-3.87-21.63m1.33-.23l3.86,21.62m-4.54-21.5l3.88,21.62" fill="none" stroke="#000" stroke-linecap="round" stroke-linejoin="round" stroke-width=".25"/><path d="M163.29,753.87l1.32-.24m-1.32,.24l1.32-.24m-5.29,.94l3.97-.7m1.32-.24l10.85-1.91m-3.03,53.72l1.32-.24m-1.32,.24l1.32-.24m-5.29,.94l3.97-.7m1.32-.24l10.85-1.91m-25.28-48.72l16.14-2.85" fill="none" stroke="#000" stroke-linecap="round" stroke-linejoin="round" stroke-width=".22"/><path d="M184.93,805.15l.22,1.27-16.14,2.85-.55-3.13,16.14-2.85,.23,1.28,.1,.58h0Z" fill="#2d2d2c" fill-rule="evenodd"/><path d="M157.19,742.51l16.14-2.85,2.12,12.05-16.14,2.85-2.13-12.05Z" fill="#2d2d2c"/><path d="M174.12,904.45l10.84-1.91m-16.13,2.85l3.96-.7m0,0l1.33-.24m-9.15-51.57l10.85-1.91m-16.14,2.85l3.97-.7m0,0l1.32-.24" fill="none" stroke="#000" stroke-linecap="round" stroke-linejoin="round" stroke-width=".22"/><path d="M159.68,853.82l9.15,51.57m6.99-54.42l9.14,51.57m-19.99-49.66l.42,2.39m0,0l-1.32,.23m0,0l-.42-2.38m4.2,23.84l-.21-1.2m0,0l1.33-.23m0,0l.21,1.19m-4.45-21.34l3.57,20.27m-2.91-20.38l3.58,20.26m-1.33,.23l-3.57-20.26m5.11,21.22l.1,.6m0,0l-.66,.12m0,0l.1,.59m0,0l-.66,.12m0,0l-.21-1.19m4.94,27.73l-.43-2.49m0,0l.66-.11m0,0l.11,.62m0,0l.66-.12m0,0l.33,1.86m-1.76-2.25l-4.95-27.76m3.04,5.64l3.67,20.53m-4.18-23.41l.32,1.79m0,0l-1.32,.23m0,0l-.32-1.78m0,0l1.32-.24m3.19,25.51l-.33-1.86m0,0l1.32-.24m0,0l.33,1.87m0,0l-1.32,.23m-.33-1.86l-3.86-21.63m1.32-.23l3.86,21.62m-4.54-21.5l3.88,21.62" fill="none" stroke="#000" stroke-linecap="round" stroke-linejoin="round" stroke-width=".25"/><path d="M163.65,853.12l1.32-.24m-1.32,.24l1.32-.24m-5.29,.94l3.97-.7m1.32-.24l10.85-1.91m-3.03,53.72l1.33-.24m-1.33,.24l1.33-.24m-5.29,.94l3.96-.7m1.33-.24l10.84-1.91m-25.28-48.72l16.14-2.85" fill="none" stroke="#000" stroke-linecap="round" stroke-linejoin="round" stroke-width=".22"/><path d="M186.28,910.01l.9,5.13-16.13,2.84-2.22-12.59,16.13-2.85,.91,5.12,.41,2.35Z" fill="#2d2d2c" fill-rule="evenodd"/><path d="M157.19,839.71l16.14-2.85,2.49,14.11-16.14,2.85-2.49-14.11Z" fill="#2d2d2c"/><path d="M1391.8,270.44l-10.78-2.29m16.03,3.41l-3.94-.84m0,0l-1.31-.28m-8.81,41.44l-10.77-2.29m16.02,3.41l-3.94-.84m0,0l-1.31-.28" fill="none" stroke="#000" stroke-linecap="round" stroke-linejoin="round" stroke-width=".22"/><path d="M1388.24,313l8.81-41.44m-24.84,38.03l8.81-41.44m1.97,43.73l.5-2.37m0,0l1.32,.28m0,0l-.51,2.37m5.04-23.68l-.26,1.18m0,0l-1.31-.28m0,0l.25-1.18m-3.87,21.45l4.28-20.13m-4.94,19.99l4.28-20.13m1.31,.28l-4.27,20.13m3.21-21.59l.13-.59m0,0l.65,.14m0,0l.13-.59m0,0l.66,.14m0,0l-.25,1.18m3.77-17.76l-.5,2.37m0,0l-.66-.14m0,0l.13-.59m0,0l-.66-.14m0,0l.38-1.78m.81,2.65l-3.02,14.21m-1.72-1.61l2.51-11.84m-2.89,13.62l.38-1.78m0,0l1.31,.28m0,0l-.38,1.78m0,0l-1.31-.28m4.59-15.11l-.38,1.77m0,0l-1.31-.28m0,0l.38-1.77m0,0l1.32,.28m-.38,1.77l-2.52,11.84m-1.31-.28l2.51-11.84m-1.85,11.98l2.51-11.84" fill="none" stroke="#000" stroke-linecap="round" stroke-linejoin="round" stroke-width=".25"/><path d="M1384.3,312.16l-1.31-.28m1.31,.28l-1.31-.28m5.25,1.12l-3.94-.84m-1.31-.28l-10.77-2.29m20.89-38.87l-1.31-.28m1.31,.28l-1.31-.28m5.25,1.12l-3.94-.84m-1.31-.28l-10.78-2.29m7.22,44.85l-16.03-3.41" fill="none" stroke="#000" stroke-linecap="round" stroke-linejoin="round" stroke-width=".22"/><path d="M1385.57,246.77l3.11-14.65,16.03,3.41-7.66,36.03-16.03-3.41,3.12-14.65,1.43-6.73Z" fill="#2d2d2c" fill-rule="evenodd"/><path d="M1369.04,324.57l3.18-14.98,16.03,3.41-3.18,14.98-16.03-3.41Z" fill="#2d2d2c"/><path d="M1399.34,172.88h-11.02m16.39,0h-4.03m0,0h-1.34m0,37.55h-11.02m16.39,0h-4.03m0,0h-1.34" fill="none" stroke="#000" stroke-linecap="round" stroke-linejoin="round" stroke-width=".22"/><path d="M1404.71,210.43v-37.55m-16.39,37.55v-37.55m11.02,37.55v-2.43m0,0h1.34m0,0v2.43m0-19.39v1.21m0,0h-1.34m0,0v-1.21m.67,16.96v-15.75m-.67,15.75v-15.75m1.34,0v15.75m-1.34-16.96v-.61m0,0h.67m0,0v-.6m0,0h.67m0,0v1.21m0-18.16v2.42m0,0h-.67m0,0v-.6m0,0h-.67m0,0v-1.82m1.34,2.42v14.53m-2.01-1.21v-12.11m0,13.92v-1.81m0,0h1.34m0,0v1.81m0,0h-1.34m1.34-15.73v1.81m0,0h-1.34m0,0v-1.81m0,0h1.34m0,1.81v12.11m-1.34,0v-12.11m.67,12.11v-12.11" fill="none" stroke="#000" stroke-linecap="round" stroke-linejoin="round" stroke-width=".25"/><path d="M1400.68,210.43h-1.34m1.34,0h-1.34m5.37,0h-4.03m-1.34,0h-11.02m12.36-37.55h-1.34m1.34,0h-1.34m5.37,0h-4.03m-1.34,0h-11.02m16.39,37.55h-16.39" fill="none" stroke="#000" stroke-linecap="round" stroke-linejoin="round" stroke-width=".22"/><path d="M1388.32,161.03v-8.13h16.39v19.98h-16.39v-11.85Z" fill="#2d2d2c" fill-rule="evenodd"/><path d="M1388.32,210.43h16.39v25.1h-16.39v-25.1Z" fill="#2d2d2c"/><path d="M1392.41,355.79l-10.85-1.91m16.14,2.84l-3.97-.7m0,0l-1.32-.23m-9.47,53.66l-10.84-1.91m16.13,2.84l-3.96-.7m0,0l-1.33-.23" fill="none" stroke="#000" stroke-linecap="round" stroke-linejoin="round" stroke-width=".22"/><path d="M1388.23,410.38l9.47-53.66m-25.6,50.82l9.46-53.66m1.38,55.57l.45-2.51m0,0l1.32,.23m0,0l-.44,2.51m4.42-25.08l-.22,1.26m0,0l-1.33-.24m0,0l.23-1.25m-3.32,22.69l3.76-21.32m-4.42,21.2l3.75-21.32m1.33,.24l-3.76,21.31m2.66-22.8l.11-.63m0,0l.66,.12m0,0l.11-.63m0,0l.66,.12m0,0l-.22,1.25m5.04-28.58l-.54,3.07m0,0l-.66-.12m0,0l.13-.76m0,0l-.66-.12m0,0l.41-2.3m.78,3.3l-4.28,24.26m-.68-7.75l2.7-15.33m-4.11,23.36l.33-1.89m0,0l1.32,.24m0,0l-.33,1.88m0,0l-1.32-.23m5.84-25.42l-.4,2.3m0,0l-1.33-.24m0,0l.41-2.3m0,0l1.32,.24m-.4,2.3l-3.79,21.47m-1.32-.24l3.78-21.47m-3.1,21.6l3.76-21.48" fill="none" stroke="#000" stroke-linecap="round" stroke-linejoin="round" stroke-width=".25"/><path d="M1384.27,409.68l-1.33-.23m1.33,.23l-1.33-.23m5.29,.93l-3.96-.7m-1.33-.23l-10.84-1.91m21.63-51.52l-1.32-.23m1.32,.23l-1.32-.23m5.29,.93l-3.97-.7m-1.32-.23l-10.85-1.91m6.67,56.5l-16.13-2.84" fill="none" stroke="#000" stroke-linecap="round" stroke-linejoin="round" stroke-width=".22"/><path d="M1383.43,343.25l1.29-7.28,16.13,2.84-3.15,17.91-16.14-2.84,1.28-7.29,.59-3.34Z" fill="#2d2d2c" fill-rule="evenodd"/><path d="M1371.6,410.38l.5-2.85,16.14,2.85-.5,2.85-16.14-2.85Z" fill="#2d2d2c"/><path d="M1393.1,456.71l-10.87-1.72m16.18,2.56l-3.98-.63m0,0l-1.33-.21m-9.56,60.73l-10.88-1.72m16.18,2.56l-3.98-.63m0,0l-1.32-.21" fill="none" stroke="#000" stroke-linecap="round" stroke-linejoin="round" stroke-width=".22"/><path d="M1388.84,518.28l9.57-60.73m-25.75,58.17l9.57-60.73m1.31,62.45l.38-2.39m0,0l1.32,.21m0,0l-.38,2.39m3.79-23.91l-.19,1.2m0,0l-1.33-.21m0,0l.19-1.2m-2.74,21.62l3.22-20.32m-3.88,20.22l3.21-20.32m1.33,.21l-3.22,20.32m2.08-21.73l.1-.6m0,0l.66,.11m0,0l.1-.6m0,0l.66,.1m0,0l-.19,1.2m5.78-36.82l-.46,2.92m0,0l-.66-.1m0,0l.12-.73m0,0l-.66-.11m0,0l.34-2.19m.87,3.13l-5.13,32.7m-.87-7.36l3.78-24.19m-4.99,31.84l.28-1.8m0,0l1.33,.21m0,0l-.29,1.8m0,0l-1.32-.21m6.66-33.82l-.35,2.19m0,0l-1.32-.21m0,0l.34-2.19m0,0l1.33,.21m-.35,2.19l-4.7,30.04m-1.33-.21l4.71-30.04m-4.02,30.16l4.68-30.06" fill="none" stroke="#000" stroke-linecap="round" stroke-linejoin="round" stroke-width=".25"/><path d="M1384.86,517.65l-1.32-.21m1.32,.21l-1.32-.21m5.3,.84l-3.98-.63m-1.32-.21l-10.88-1.72m21.77-58.8l-1.33-.21m1.33,.21l-1.33-.21m5.31,.84l-3.98-.63m-1.33-.21l-10.87-1.72m6.61,63.29l-16.18-2.56" fill="none" stroke="#000" stroke-linecap="round" stroke-linejoin="round" stroke-width=".22"/><path d="M1384.11,443.08l1.29-8.16,16.19,2.57-3.18,20.06-16.18-2.56,1.29-8.16,.59-3.75h0Z" fill="#2d2d2c" fill-rule="evenodd"/><path d="M1371.61,522.37l1.05-6.64,16.19,2.56-1.05,6.64-16.19-2.56Z" fill="#2d2d2c"/><path d="M1393.36,566.32l-10.88-1.73m16.18,2.57l-3.98-.63m0,0l-1.32-.21m-9.57,60.73l-10.88-1.73m16.18,2.57l-3.98-.63m0,0l-1.32-.21" fill="none" stroke="#000" stroke-linecap="round" stroke-linejoin="round" stroke-width=".22"/><path d="M1389.09,627.89l9.57-60.73m-25.75,58.16l9.57-60.73m1.31,62.46l.38-2.39m0,0l1.32,.21m0,0l-.38,2.39m3.79-23.91l-.19,1.19m0,0l-1.32-.21m0,0l.18-1.19m-2.74,21.62l3.22-20.32m-3.88,20.22l3.22-20.33m1.32,.21l-3.22,20.33m2.08-21.73l.1-.6m0,0l.66,.1m0,0l.1-.59m0,0l.66,.1m0,0l-.19,1.2m5.78-36.82l-.46,2.92m0,0l-.66-.11m0,0l.11-.73m0,0l-.66-.1m0,0l.35-2.19m.86,3.13l-5.13,32.7m-.87-7.36l3.78-24.19m-4.99,31.83l.28-1.79m0,0l1.33,.21m0,0l-.29,1.79m0,0l-1.32-.21m6.66-33.82l-.35,2.2m0,0l-1.32-.21m0,0l.35-2.2m0,0l1.32,.21m-.35,2.2l-4.7,30.04m-1.33-.21l4.71-30.04m-4.02,30.15l4.68-30.05" fill="none" stroke="#000" stroke-linecap="round" stroke-linejoin="round" stroke-width=".25"/><path d="M1385.11,627.26l-1.32-.21m1.32,.21l-1.32-.21m5.3,.84l-3.98-.63m-1.32-.21l-10.88-1.73m21.77-58.79l-1.32-.21m1.32,.21l-1.32-.21m5.3,.84l-3.98-.63m-1.32-.21l-10.88-1.73m6.61,63.3l-16.18-2.57" fill="none" stroke="#000" stroke-linecap="round" stroke-linejoin="round" stroke-width=".22"/><path d="M1384.21,553.64l1.19-7.51,16.19,2.57-2.93,18.46-16.18-2.57,1.19-7.5,.54-3.45h0Z" fill="#2d2d2c" fill-rule="evenodd"/><path d="M1371.59,633.68l1.32-8.36,16.19,2.56-1.32,8.36-16.19-2.56Z" fill="#2d2d2c"/><path d="M1392.59,672.77l-10.85-1.91m16.14,2.84l-3.97-.7m0,0l-1.32-.23m-9.05,51.59l-10.84-1.92m16.13,2.85l-3.97-.7m0,0l-1.32-.23" fill="none" stroke="#000" stroke-linecap="round" stroke-linejoin="round" stroke-width=".22"/><path d="M1388.83,725.29l9.05-51.59m-25.18,48.74l9.04-51.58m1.8,53.5l.42-2.39m0,0l1.32,.24m0,0l-.42,2.38m4.21-23.84l-.21,1.19m0,0l-1.32-.23m0,0l.21-1.19m-3.13,21.57l3.58-20.26m-4.24,20.14l3.58-20.26m1.32,.23l-3.58,20.27m2.47-21.69l.1-.6m0,0l.66,.12m0,0l.11-.6m0,0l.66,.12m0,0l-.21,1.19m4.84-27.75l-.44,2.48m0,0l-.66-.11m0,0l.11-.62m0,0l-.66-.12m0,0l.33-1.86m.88,2.71l-4.85,27.78m-.92-6.33l3.57-20.55m-4.08,23.42l.31-1.78m0,0l1.33,.23m0,0l-.32,1.79m0,0l-1.32-.24m5.73-25.05l-.33,1.86m0,0l-1.32-.23m0,0l.33-1.87m0,0l1.32,.24m-.33,1.86l-3.76,21.64m-1.33-.23l3.77-21.64m-3.09,21.76l3.75-21.65" fill="none" stroke="#000" stroke-linecap="round" stroke-linejoin="round" stroke-width=".25"/><path d="M1384.86,724.59l-1.32-.23m1.32,.23l-1.32-.23m5.29,.93l-3.97-.7m-1.32-.23l-10.84-1.92m21.21-49.44l-1.32-.23m1.32,.23l-1.32-.23m5.29,.93l-3.97-.7m-1.32-.23l-10.85-1.91m7.09,54.43l-16.14-2.85" fill="none" stroke="#000" stroke-linecap="round" stroke-linejoin="round" stroke-width=".22"/><path d="M1383.94,658.4l1.5-8.54,16.14,2.85-3.7,20.99-16.14-2.84,1.51-8.54,.69-3.92Z" fill="#2d2d2c" fill-rule="evenodd"/><path d="M1371.59,728.73l1.11-6.29,16.14,2.85-1.11,6.29-16.14-2.85Z" fill="#2d2d2c"/><path d="M1392.64,765.97l-10.85-1.91m16.14,2.84l-3.97-.7m0,0l-1.32-.23m-9.05,51.59l-10.84-1.91m16.13,2.84l-3.96-.7m0,0l-1.33-.23" fill="none" stroke="#000" stroke-linecap="round" stroke-linejoin="round" stroke-width=".22"/><path d="M1388.88,818.49l9.05-51.59m-25.18,48.75l9.04-51.59m1.8,53.5l.42-2.38m0,0l1.33,.23m0,0l-.42,2.38m4.2-23.84l-.21,1.19m0,0l-1.32-.23m0,0l.21-1.19m-3.12,21.57l3.57-20.26m-4.24,20.15l3.58-20.27m1.32,.23l-3.57,20.27m2.46-21.69l.1-.6m0,0l.66,.12m0,0l.11-.6m0,0l.66,.12m0,0l-.21,1.19m4.84-27.75l-.44,2.49m0,0l-.66-.12m0,0l.11-.62m0,0l-.66-.12m0,0l.33-1.86m.88,2.72l-4.84,27.78m-.93-6.34l3.57-20.55m-4.08,23.43l.32-1.79m0,0l1.32,.23m0,0l-.32,1.79m0,0l-1.32-.23m5.73-25.06l-.33,1.86m0,0l-1.32-.23m0,0l.33-1.86m0,0l1.32,.23m-.33,1.86l-3.76,21.64m-1.32-.23l3.76-21.64m-3.09,21.76l3.75-21.64" fill="none" stroke="#000" stroke-linecap="round" stroke-linejoin="round" stroke-width=".25"/><path d="M1384.92,817.79l-1.33-.23m1.33,.23l-1.33-.23m5.29,.93l-3.96-.7m-1.33-.23l-10.84-1.91m21.21-49.45l-1.32-.23m1.32,.23l-1.32-.23m5.29,.93l-3.97-.7m-1.32-.23l-10.85-1.91m7.09,54.43l-16.13-2.84" fill="none" stroke="#000" stroke-linecap="round" stroke-linejoin="round" stroke-width=".22"/><path d="M1383.96,751.78l1.48-8.42,16.14,2.85-3.65,20.69-16.14-2.84,1.49-8.42,.68-3.86Z" fill="#2d2d2c" fill-rule="evenodd"/><path d="M1371.58,822.15l1.15-6.52,16.14,2.85-1.15,6.52-16.14-2.85Z" fill="#2d2d2c"/><path d="M1393.69,856.99l-10.85-1.91m16.14,2.85l-3.97-.7m0,0l-1.32-.24m-9.12,52.01l-10.85-1.91m16.14,2.85l-3.97-.7m0,0l-1.32-.24" fill="none" stroke="#000" stroke-linecap="round" stroke-linejoin="round" stroke-width=".22"/><path d="M1389.86,909.94l9.12-52.01m-25.26,49.16l9.12-52.01m1.73,53.92l.42-2.4m0,0l1.33,.23m0,0l-.43,2.41m4.24-24.04l-.21,1.2m0,0l-1.32-.23m0,0l.21-1.2m-3.15,21.75l3.6-20.43m-4.27,20.31l3.61-20.43m1.32,.23l-3.6,20.43m2.49-21.86l.1-.6m0,0l.67,.11m0,0l.1-.6m0,0l.66,.12m0,0l-.21,1.2m4.88-27.97l-.44,2.5m0,0l-.66-.12m0,0l.11-.62m0,0l-.66-.12m0,0l.33-1.88m.88,2.74l-4.89,28.01m-.92-6.39l3.61-20.72m-4.12,23.62l.32-1.8m0,0l1.32,.23m0,0l-.31,1.8m0,0l-1.33-.23m5.77-25.26l-.33,1.88m0,0l-1.32-.24m0,0l.33-1.87m0,0l1.32,.23m-.33,1.88l-3.8,21.81m-1.32-.23l3.8-21.82m-3.13,21.94l3.79-21.82" fill="none" stroke="#000" stroke-linecap="round" stroke-linejoin="round" stroke-width=".25"/><path d="M1385.89,909.24l-1.32-.24m1.32,.24l-1.32-.24m5.29,.94l-3.97-.7m-1.32-.24l-10.85-1.91m21.29-49.86l-1.32-.24m1.32,.24l-1.32-.24m5.29,.94l-3.97-.7m-1.32-.24l-10.85-1.91m7.02,54.86l-16.14-2.85" fill="none" stroke="#000" stroke-linecap="round" stroke-linejoin="round" stroke-width=".22"/><path d="M1384.39,846.34l1.05-6,16.14,2.85-2.6,14.74-16.14-2.85,1.06-5.99,.49-2.75h0Z" fill="#2d2d2c" fill-rule="evenodd"/><path d="M1371.57,919.18l2.14-12.11,16.14,2.85-2.14,12.11-16.14-2.85Z" fill="#2d2d2c"/><g><path d="M270.91,949.35v-7.57m0,11.49v-4.03m0,0v-1.34m18.77,.11v-6.23m0,11.49v-4.03m0,0v-1.34" fill="none" stroke="#000" stroke-linecap="round" stroke-linejoin="round" stroke-width=".22"/><path d="M289.68,953.27h-18.77m18.77-11.49h-18.77m18.77,6.12h-2.72m0,0v1.34m0,0h2.72m-16.05-1.34h-2.72m0,0v1.34m0,0h2.72m-1.36,0h1.36m0,0v-1.34m13.33,.67h-13.33m13.33-.67h-13.33m0,1.34h13.33m-16.05,0h1.36m-1.36,0h0" fill="none" stroke="#000" stroke-linecap="round" stroke-linejoin="round" stroke-width=".25"/><path d="M289.68,949.24v-1.34m0,1.34v-1.34m0,5.37v-4.03m0-1.23v-6.23m-18.77,7.46v-1.34m0,1.34v-1.34m0,5.37v-4.03m0,.11v-7.57m18.77,11.49v-11.49" fill="none" stroke="#000" stroke-linecap="round" stroke-linejoin="round" stroke-width=".22"/></g><g><path d="M206.72,949.35v-7.57m0,11.49v-4.03m0,0v-1.34m21.87,.11v-6.23m0,11.49v-4.03m0,0v-1.34" fill="none" stroke="#000" stroke-linecap="round" stroke-linejoin="round" stroke-width=".22"/><path d="M228.59,953.27h-21.87m21.87-11.49h-21.87m21.87,6.12h-3.2m0,0v1.34m0,0h3.2m-18.68-1.34h-3.19m0,0v1.34m0,0h3.19m-1.6,0h1.6m0,0v-1.34m15.48,.67h-15.48m15.48-.67h-15.48m0,1.34h15.48m-18.67,0h1.59m-1.59,0h0" fill="none" stroke="#000" stroke-linecap="round" stroke-linejoin="round" stroke-width=".25"/><path d="M228.59,949.24v-1.34m0,1.34v-1.34m0,5.37v-4.03m0-1.23v-6.23m-21.87,7.46v-1.34m0,1.34v-1.34m0,5.37v-4.03m0,.11v-7.57m21.87,11.49v-11.49" fill="none" stroke="#000" stroke-linecap="round" stroke-linejoin="round" stroke-width=".22"/></g><path d="M242.28,942.64c.85,2.31,1.08,3.5,1.2,5.97" fill="none" stroke="#000" stroke-linecap="round" stroke-linejoin="round" stroke-width=".25"/><path d="M242.26,942.26l.28,.66-13.74,6.07h-.21v-.71l13.67-6.02h0Z" fill="#2d2d2c" fill-rule="evenodd"/><path d="M245.7,937.29c-1.56,4.26-1.99,6.45-2.22,10.99" fill="none" stroke="#000" stroke-linecap="round" stroke-linejoin="round" stroke-width=".25"/><path d="M245.74,936.6l-.52,1.22,25.3,11.17h.39v-1.32l-25.17-11.07h0Z" fill="#2d2d2c" fill-rule="evenodd"/><g><path d="M166.89,1011.7v-1.35m68.98,1.35v-1.35" fill="none" stroke="#000" stroke-linecap="round" stroke-linejoin="round" stroke-width=".22"/><path d="M235.87,1010.35h-3.17m0,0v1.35m0,0h3.17m-65.81-1.35h-3.17m0,0v1.35m0,0h3.17m-1.58,0h1.58m0,0v-1.35m62.64,.68h-62.64m62.64-.68h-62.64m0,1.35h62.64m-65.81,0h1.59m-1.59,0h0" fill="none" stroke="#000" stroke-linecap="round" stroke-linejoin="round" stroke-width=".25"/><path d="M235.87,1011.7v-1.35m0,1.35v-1.35m-68.98,1.35v-1.35m0,1.35v-1.35" fill="none" stroke="#000" stroke-linecap="round" stroke-linejoin="round" stroke-width=".22"/></g><g><path d="M260.23,1011.7v-1.35m43.89,1.35v-1.35" fill="none" stroke="#000" stroke-linecap="round" stroke-linejoin="round" stroke-width=".22"/><path d="M304.12,1010.35h-3.17m0,0v1.35m0,0h3.17m-40.73-1.35h-3.16m0,0v1.35m0,0h3.16m-1.58,0h1.58m0,0v-1.35m37.56,.68h-37.56m37.56-.68h-37.56m0,1.35h37.56m-40.72,0h1.58m-1.58,0h0" fill="none" stroke="#000" stroke-linecap="round" stroke-linejoin="round" stroke-width=".25"/><path d="M304.12,1011.7v-1.35m0,1.35v-1.35m-43.89,1.35v-1.35m0,1.35v-1.35" fill="none" stroke="#000" stroke-linecap="round" stroke-linejoin="round" stroke-width=".22"/></g><g><path d="M328.48,1011.7v-1.35m43.88,1.35v-1.35" fill="none" stroke="#000" stroke-linecap="round" stroke-linejoin="round" stroke-width=".22"/><path d="M372.36,1010.35h-3.16m0,0v1.35m0,0h3.16m-40.72-1.35h-3.16m0,0v1.35m0,0h3.16m-1.58,0h1.58m0,0v-1.35m37.56,.68h-37.56m37.56-.68h-37.56m0,1.35h37.56m-40.72,0h1.58m-1.58,0h0" fill="none" stroke="#000" stroke-linecap="round" stroke-linejoin="round" stroke-width=".25"/><path d="M372.36,1011.7v-1.35m0,1.35v-1.35m-43.88,1.35v-1.35m0,1.35v-1.35" fill="none" stroke="#000" stroke-linecap="round" stroke-linejoin="round" stroke-width=".22"/></g><path d="M260.23,1011.03h-24.36m24.36-.68h-24.36m0,1.35h24.36" fill="none" stroke="#000" stroke-linecap="round" stroke-linejoin="round" stroke-width=".25"/><path d="M328.48,1011.03h-24.36m24.36-.68h-24.36m0,1.35h24.36" fill="none" stroke="#000" stroke-linecap="round" stroke-linejoin="round" stroke-width=".25"/><g><path d="M396.72,1011.7v-1.35m23.27,1.35v-1.35" fill="none" stroke="#000" stroke-linecap="round" stroke-linejoin="round" stroke-width=".22"/><path d="M419.99,1010.35h-3.17m0,0v1.35m0,0h3.17m-20.1-1.35h-3.17m0,0v1.35m0,0h3.17m-1.58,0h1.58m0,0v-1.35m16.93,.68h-16.93m16.93-.68h-16.93m0,1.35h16.93m-20.1,0h1.59m-1.59,0h0" fill="none" stroke="#000" stroke-linecap="round" stroke-linejoin="round" stroke-width=".25"/><path d="M419.99,1011.7v-1.35m0,1.35v-1.35m-23.27,1.35v-1.35m0,1.35v-1.35" fill="none" stroke="#000" stroke-linecap="round" stroke-linejoin="round" stroke-width=".22"/></g><g><path d="M512.05,1011.7v-1.35m44.73,1.35v-1.35" fill="none" stroke="#000" stroke-linecap="round" stroke-linejoin="round" stroke-width=".22"/><path d="M556.78,1010.35h-3.16m0,0v1.35m0,0h3.16m-41.57-1.35h-3.16m0,0v1.35m0,0h3.16m-1.58,0h1.58m0,0v-1.35m38.41,.68h-38.41m38.41-.68h-38.41m0,1.35h38.41m-41.57,0h1.58m-1.58,0h0" fill="none" stroke="#000" stroke-linecap="round" stroke-linejoin="round" stroke-width=".25"/><path d="M556.78,1011.7v-1.35m0,1.35v-1.35m-44.73,1.35v-1.35m0,1.35v-1.35" fill="none" stroke="#000" stroke-linecap="round" stroke-linejoin="round" stroke-width=".22"/></g><g><path d="M419.99,1011.7v-1.35m67.7,1.35v-1.35" fill="none" stroke="#000" stroke-linecap="round" stroke-linejoin="round" stroke-width=".22"/><path d="M487.69,1010.35h-3.17m0,0v1.35m0,0h3.17m-64.53-1.35h-3.17m0,0v1.35m0,0h3.17m-1.58,0h1.58m0,0v-1.35m61.36,.68h-61.36m61.36-.68h-61.36m0,1.35h61.36m-64.53,0h1.59m-1.59,0h0" fill="none" stroke="#000" stroke-linecap="round" stroke-linejoin="round" stroke-width=".25"/><path d="M487.69,1011.7v-1.35m0,1.35v-1.35m-67.7,1.35v-1.35m0,1.35v-1.35" fill="none" stroke="#000" stroke-linecap="round" stroke-linejoin="round" stroke-width=".22"/></g><g><path d="M581.14,1011.7v-1.35m22.48,1.35v-1.35" fill="none" stroke="#000" stroke-linecap="round" stroke-linejoin="round" stroke-width=".22"/><path d="M603.62,1010.35h-3.17m0,0v1.35m0,0h3.17m-19.31-1.35h-3.17m0,0v1.35m0,0h3.17m-1.58,0h1.58m0,0v-1.35m16.14,.68h-16.14m16.14-.68h-16.14m0,1.35h16.14m-19.31,0h1.59m-1.59,0h0" fill="none" stroke="#000" stroke-linecap="round" stroke-linejoin="round" stroke-width=".25"/><path d="M603.62,1011.7v-1.35m0,1.35v-1.35m-22.48,1.35v-1.35m0,1.35v-1.35" fill="none" stroke="#000" stroke-linecap="round" stroke-linejoin="round" stroke-width=".22"/></g><g><path d="M695.83,1011.7v-1.35m44.22,1.35v-1.35" fill="none" stroke="#000" stroke-linecap="round" stroke-linejoin="round" stroke-width=".22"/><path d="M740.05,1010.35h-3.17m0,0v1.35m0,0h3.17m-41.06-1.35h-3.16m0,0v1.35m0,0h3.16m-1.58,0h1.58m0,0v-1.35m37.89,.68h-37.89m37.89-.68h-37.89m0,1.35h37.89m-41.05,0h1.58m-1.58,0h0" fill="none" stroke="#000" stroke-linecap="round" stroke-linejoin="round" stroke-width=".25"/><path d="M740.05,1011.7v-1.35m0,1.35v-1.35m-44.22,1.35v-1.35m0,1.35v-1.35" fill="none" stroke="#000" stroke-linecap="round" stroke-linejoin="round" stroke-width=".22"/></g><g><path d="M764.62,1011.7v-1.35m21.79,1.35v-1.35" fill="none" stroke="#000" stroke-linecap="round" stroke-linejoin="round" stroke-width=".22"/><path d="M786.41,1010.35h-3.17m0,0v1.35m0,0h3.17m-18.62-1.35h-3.17m0,0v1.35m0,0h3.17m-1.59,0h1.59m0,0v-1.35m15.45,.68h-15.45m15.45-.68h-15.45m0,1.35h15.45m-18.62,0h1.58m-1.58,0h0" fill="none" stroke="#000" stroke-linecap="round" stroke-linejoin="round" stroke-width=".25"/><path d="M786.41,1011.7v-1.35m0,1.35v-1.35m-21.79,1.35v-1.35m0,1.35v-1.35" fill="none" stroke="#000" stroke-linecap="round" stroke-linejoin="round" stroke-width=".22"/></g><g><path d="M832.85,1011.7v-1.35m41.77,1.35v-1.35" fill="none" stroke="#000" stroke-linecap="round" stroke-linejoin="round" stroke-width=".22"/><path d="M874.62,1010.35h-3.17m0,0v1.35m0,0h3.17m-38.6-1.35h-3.17m0,0v1.35m0,0h3.17m-1.58,0h1.58m0,0v-1.35m35.43,.68h-35.43m35.43-.68h-35.43m0,1.35h35.43m-38.6,0h1.59m-1.59,0h0" fill="none" stroke="#000" stroke-linecap="round" stroke-linejoin="round" stroke-width=".25"/><path d="M874.62,1011.7v-1.35m0,1.35v-1.35m-41.77,1.35v-1.35m0,1.35v-1.35" fill="none" stroke="#000" stroke-linecap="round" stroke-linejoin="round" stroke-width=".22"/></g><g><path d="M899.19,1011.7v-1.35m87.16,1.35v-1.35" fill="none" stroke="#000" stroke-linecap="round" stroke-linejoin="round" stroke-width=".22"/><path d="M986.35,1010.35h-3.17m0,0v1.35m0,0h3.17m-83.99-1.35h-3.17m0,0v1.35m0,0h3.17m-1.59,0h1.59m0,0v-1.35m80.82,.68h-80.82m80.82-.68h-80.82m0,1.35h80.82m-83.99,0h1.58m-1.58,0h0" fill="none" stroke="#000" stroke-linecap="round" stroke-linejoin="round" stroke-width=".25"/><path d="M986.35,1011.7v-1.35m0,1.35v-1.35m-87.16,1.35v-1.35m0,1.35v-1.35" fill="none" stroke="#000" stroke-linecap="round" stroke-linejoin="round" stroke-width=".22"/></g><g><path d="M1010.93,1011.7v-1.35m42.31,1.35v-1.35" fill="none" stroke="#000" stroke-linecap="round" stroke-linejoin="round" stroke-width=".22"/><path d="M1053.24,1010.35h-3.17m0,0v1.35m0,0h3.17m-39.14-1.35h-3.17m0,0v1.35m0,0h3.17m-1.59,0h1.59m0,0v-1.35m35.97,.68h-35.97m35.97-.68h-35.97m0,1.35h35.97m-39.14,0h1.58m-1.58,0h0" fill="none" stroke="#000" stroke-linecap="round" stroke-linejoin="round" stroke-width=".25"/><path d="M1053.24,1011.7v-1.35m0,1.35v-1.35m-42.31,1.35v-1.35m0,1.35v-1.35" fill="none" stroke="#000" stroke-linecap="round" stroke-linejoin="round" stroke-width=".22"/></g><g><path d="M1074.87,1011.7v-1.35m67.59,1.35v-1.35" fill="none" stroke="#000" stroke-linecap="round" stroke-linejoin="round" stroke-width=".22"/><path d="M1142.46,1010.35h-3.17m0,0v1.35m0,0h3.17m-64.42-1.35h-3.17m0,0v1.35m0,0h3.17m-1.59,0h1.58m0,0v-1.35m61.26,.68h-61.25m61.25-.68h-61.25m-.01,1.35h61.26m-64.42,0h1.58m-1.58,0h0" fill="none" stroke="#000" stroke-linecap="round" stroke-linejoin="round" stroke-width=".25"/><path d="M1142.46,1011.7v-1.35m0,1.35v-1.35m-67.59,1.35v-1.35m0,1.35v-1.35" fill="none" stroke="#000" stroke-linecap="round" stroke-linejoin="round" stroke-width=".22"/></g><g><path d="M1162.63,1011.7v-1.35m27.59,1.35v-1.35" fill="none" stroke="#000" stroke-linecap="round" stroke-linejoin="round" stroke-width=".22"/><path d="M1190.22,1010.35h-3.17m0,0v1.35m0,0h3.17m-24.43-1.35h-3.17m.01,0v1.35m0,0h3.16m-1.58,0h1.58m0,0v-1.35m21.26,.68h-21.26m21.26-.68h-21.26m0,1.35h21.26m-24.42,0h1.58m-1.58,0h0" fill="none" stroke="#000" stroke-linecap="round" stroke-linejoin="round" stroke-width=".25"/><path d="M1190.22,1011.7v-1.35m0,1.35v-1.35m-27.59,1.35v-1.35m0,1.35v-1.35" fill="none" stroke="#000" stroke-linecap="round" stroke-linejoin="round" stroke-width=".22"/></g><g><path d="M1231.31,1011.7v-1.35m26.68,1.35v-1.35" fill="none" stroke="#000" stroke-linecap="round" stroke-linejoin="round" stroke-width=".22"/><path d="M1257.99,1010.35h-3.17m0,0v1.35m0,0h3.17m-23.52-1.35h-3.16m0,0v1.35m0,0h3.16m-1.58,0h1.58m0,0v-1.35m20.35,.68h-20.35m20.35-.68h-20.35m0,1.35h20.35m-23.51,0h1.58m-1.58,0h0" fill="none" stroke="#000" stroke-linecap="round" stroke-linejoin="round" stroke-width=".25"/><path d="M1257.99,1011.7v-1.35m0,1.35v-1.35m-26.68,1.35v-1.35m0,1.35v-1.35" fill="none" stroke="#000" stroke-linecap="round" stroke-linejoin="round" stroke-width=".22"/></g><g><path d="M1298.12,1011.7v-1.35m24.81,1.35v-1.35" fill="none" stroke="#000" stroke-linecap="round" stroke-linejoin="round" stroke-width=".22"/><path d="M1322.93,1010.35h-3.17m0,0v1.35m0,0h3.17m-21.64-1.35h-3.17m0,0v1.35m0,0h3.17m-1.59,0h1.58m0,0v-1.35m18.48,.68h-18.47m18.47-.68h-18.47m-.01,1.35h18.48m-21.64,0h1.58m-1.58,0h0" fill="none" stroke="#000" stroke-linecap="round" stroke-linejoin="round" stroke-width=".25"/><path d="M1322.93,1011.7v-1.35m0,1.35v-1.35m-24.81,1.35v-1.35m0,1.35v-1.35" fill="none" stroke="#000" stroke-linecap="round" stroke-linejoin="round" stroke-width=".22"/></g><g><path d="M1391.3,1011.7v-1.35" fill="none" stroke="#000" stroke-linecap="round" stroke-linejoin="round" stroke-width=".22"/><path d="M1391.3,1010.35h-3.12m0,0v1.35m0,0h3.12m-3.12-.67h-65.25m65.25-.68h-65.25m0,1.35h65.25" fill="none" stroke="#000" stroke-linecap="round" stroke-linejoin="round" stroke-width=".25"/><path d="M1391.3,1011.7v-1.35m0,1.35v-1.35" fill="none" stroke="#000" stroke-linecap="round" stroke-linejoin="round" stroke-width=".22"/></g><g><path d="M786.41,1011.7v-1.35m21.79,1.35v-1.35" fill="none" stroke="#000" stroke-linecap="round" stroke-linejoin="round" stroke-width=".22"/><path d="M808.2,1010.35h-3.17m0,0v1.35m0,0h3.17m-18.62-1.35h-3.17m0,0v1.35m0,0h3.17m-1.58,0h1.58m0,0v-1.35m15.45,.68h-15.45m15.45-.68h-15.45m0,1.35h15.45m-18.62,0h1.59m-1.59,0h0" fill="none" stroke="#000" stroke-linecap="round" stroke-linejoin="round" stroke-width=".25"/><path d="M808.2,1011.7v-1.35m0,1.35v-1.35m-21.79,1.35v-1.35m0,1.35v-1.35" fill="none" stroke="#000" stroke-linecap="round" stroke-linejoin="round" stroke-width=".22"/></g><g><path d="M603.62,1011.7v-1.35m68.49,1.35v-1.35" fill="none" stroke="#000" stroke-linecap="round" stroke-linejoin="round" stroke-width=".22"/><path d="M672.11,1010.35h-3.17m0,0v1.35m0,0h3.17m-65.32-1.35h-3.17m0,0v1.35m0,0h3.17m-1.59,0h1.59m0,0v-1.35m62.15,.68h-62.15m62.15-.68h-62.15m0,1.35h62.15m-65.32,0h1.58m-1.58,0h0" fill="none" stroke="#000" stroke-linecap="round" stroke-linejoin="round" stroke-width=".25"/><path d="M672.11,1011.7v-1.35m0,1.35v-1.35m-68.49,1.35v-1.35m0,1.35v-1.35" fill="none" stroke="#000" stroke-linecap="round" stroke-linejoin="round" stroke-width=".22"/></g><path d="M396.72,1011.03h-24.36m24.36-.68h-24.36m0,1.35h24.36" fill="none" stroke="#000" stroke-linecap="round" stroke-linejoin="round" stroke-width=".25"/><path d="M512.05,1011.03h-24.36m24.36-.68h-24.36m0,1.35h24.36" fill="none" stroke="#000" stroke-linecap="round" stroke-linejoin="round" stroke-width=".25"/><path d="M581.14,1011.03h-24.36m24.36-.68h-24.36m0,1.35h24.36" fill="none" stroke="#000" stroke-linecap="round" stroke-linejoin="round" stroke-width=".25"/><path d="M695.83,1011.03h-23.72m23.72-.68h-23.72m0,1.35h23.72" fill="none" stroke="#000" stroke-linecap="round" stroke-linejoin="round" stroke-width=".25"/><path d="M764.62,1011.03h-24.57m24.57-.68h-24.57m0,1.35h24.57" fill="none" stroke="#000" stroke-linecap="round" stroke-linejoin="round" stroke-width=".25"/><path d="M832.85,1011.03h-24.57m24.57-.68h-24.57m0,1.35h24.57" fill="none" stroke="#000" stroke-linecap="round" stroke-linejoin="round" stroke-width=".25"/><path d="M899.19,1011.03h-24.57m24.57-.68h-24.57m0,1.35h24.57" fill="none" stroke="#000" stroke-linecap="round" stroke-linejoin="round" stroke-width=".25"/><path d="M1010.93,1011.03h-24.57m24.57-.68h-24.57m0,1.35h24.57" fill="none" stroke="#000" stroke-linecap="round" stroke-linejoin="round" stroke-width=".25"/><path d="M1074.87,1011.03h-21.47m21.47-.68h-21.47m0,1.35h21.47" fill="none" stroke="#000" stroke-linecap="round" stroke-linejoin="round" stroke-width=".25"/><path d="M1162.63,1011.03h-20.13m20.13-.68h-20.13m0,1.35h20.12" fill="none" stroke="#000" stroke-linecap="round" stroke-linejoin="round" stroke-width=".25"/><path d="M1231.24,1011.03h-41.02m41.02-.68h-41.02m0,1.35h41.02" fill="none" stroke="#000" stroke-linecap="round" stroke-linejoin="round" stroke-width=".25"/><path d="M1298.12,1011.03h-40.13m40.13-.68h-40.13m0,1.35h40.13" fill="none" stroke="#000" stroke-linecap="round" stroke-linejoin="round" stroke-width=".25"/><g><path d="M162.06,975.99l1.33-.19m3.5,34.56l1.33-.19" fill="none" stroke="#000" stroke-linecap="round" stroke-linejoin="round" stroke-width=".22"/><path d="M168.22,1010.17l-.21-1.51m0,0l-1.33,.19m0,0l.21,1.51m-3.21-32.51l-.29-2.05m0,0l-1.33,.19m0,0l.29,2.04m-.14-1.02l.14,1.02m0,0l1.33-.18m3.67,30.9l-4.34-30.81m5,30.72l-4.33-30.81m-1.33,.18l4.33,30.82m-4.62-32.86l.15,1.02m-.15-1.02h0" fill="none" stroke="#000" stroke-linecap="round" stroke-linejoin="round" stroke-width=".25"/><path d="M166.89,1010.36l1.33-.19m-1.33,.19l1.33-.19m-6.16-34.18l1.33-.19m-1.33,.19l1.33-.19" fill="none" stroke="#000" stroke-linecap="round" stroke-linejoin="round" stroke-width=".22"/></g><g><path d="M1395.4,975.76l1.33,.21" fill="none" stroke="#000" stroke-linecap="round" stroke-linejoin="round" stroke-width=".22"/><path d="M1391.3,1010.25l.24-1.5m0,0l-1.33-.21m0,0l-.27,1.71m6.46-32.24l.33-2.04m0,0l-1.33-.21m0,0l-.32,2.04m.16-1.02l-.16,1.02m0,0l1.32,.21m-5.53,30.63l4.87-30.74m-4.2,30.85l4.86-30.74m-1.32-.21l-4.87,30.74m5.19-32.78l-.16,1.02m.16-1.02h0" fill="none" stroke="#000" stroke-linecap="round" stroke-linejoin="round" stroke-width=".25"/><path d="M1395.4,975.76l1.33,.21m-1.33-.21l1.33,.21" fill="none" stroke="#000" stroke-linecap="round" stroke-linejoin="round" stroke-width=".22"/></g><g><path d="M379.52,949.35v-7.57m0,11.49v-4.03m0,0v-1.34m25.86,.11v-6.23m0,11.49v-4.03m0,0v-1.34" fill="none" stroke="#000" stroke-linecap="round" stroke-linejoin="round" stroke-width=".22"/><path d="M405.38,953.27h-25.86m25.86-11.49h-25.86m25.86,6.12h-2.72m0,0v1.34m0,0h2.72m-23.14-1.34h-2.72m0,0v1.34m0,0h2.72m-1.36,0h1.36m0,0v-1.34m20.42,.67h-20.42m20.42-.67h-20.42m0,1.34h20.42m-23.14,0h1.36m-1.36,0h0" fill="none" stroke="#000" stroke-linecap="round" stroke-linejoin="round" stroke-width=".25"/><path d="M405.38,949.24v-1.34m0,1.34v-1.34m0,5.37v-4.03m0-1.23v-6.23m-25.86,7.46v-1.34m0,1.34v-1.34m0,5.37v-4.03m0,.11v-7.57m25.86,11.49v-11.49" fill="none" stroke="#000" stroke-linecap="round" stroke-linejoin="round" stroke-width=".22"/></g><g><path d="M312.21,949.35v-7.57m0,11.49v-4.03m0,0v-1.34m24.99,.11v-6.23m0,11.49v-4.03m0,0v-1.34" fill="none" stroke="#000" stroke-linecap="round" stroke-linejoin="round" stroke-width=".22"/><path d="M337.2,953.27h-24.99m24.99-11.49h-24.99m24.99,6.12h-3.19m0,0v1.34m0,0h3.19m-21.79-1.34h-3.2m0,0v1.34m0,0h3.2m-1.6,0h1.6m0,0v-1.34m18.6,.67h-18.6m18.6-.67h-18.6m0,1.34h18.6m-21.8,0h1.6m-1.6,0h0" fill="none" stroke="#000" stroke-linecap="round" stroke-linejoin="round" stroke-width=".25"/><path d="M337.2,949.24v-1.34m0,1.34v-1.34m0,5.37v-4.03m0-1.23v-6.23m-24.99,7.46v-1.34m0,1.34v-1.34m0,5.37v-4.03m0,.11v-7.57m24.99,11.49v-11.49" fill="none" stroke="#000" stroke-linecap="round" stroke-linejoin="round" stroke-width=".22"/></g><path d="M350.89,942.64c.85,2.31,1.08,3.5,1.2,5.97" fill="none" stroke="#000" stroke-linecap="round" stroke-linejoin="round" stroke-width=".25"/><path d="M350.87,942.26l.28,.66-13.73,6.07h-.22v-.71l13.67-6.02h0Z" fill="#2d2d2c" fill-rule="evenodd"/><path d="M354.32,937.29c-1.56,4.26-1.99,6.45-2.22,10.99" fill="none" stroke="#000" stroke-linecap="round" stroke-linejoin="round" stroke-width=".25"/><path d="M354.35,936.6l-.52,1.22,25.3,11.17h.39v-1.32l-25.17-11.07h0Z" fill="#2d2d2c" fill-rule="evenodd"/><g><path d="M484.74,949.35v-7.57m0,11.49v-4.03m0,0v-1.34m14.29,.11v-6.23m0,11.49v-4.03m0,0v-1.34" fill="none" stroke="#000" stroke-linecap="round" stroke-linejoin="round" stroke-width=".22"/><path d="M499.03,953.27h-14.29m14.29-11.49h-14.29m14.29,6.12h-2.72m0,0v1.34m0,0h2.72m-11.57-1.34h-2.72m0,0v1.34m0,0h2.72m-1.36,0h1.36m0,0v-1.34m8.85,.67h-8.85m8.85-.67h-8.85m0,1.34h8.85m-11.57,0h1.36m-1.36,0h0" fill="none" stroke="#000" stroke-linecap="round" stroke-linejoin="round" stroke-width=".25"/><path d="M499.03,949.24v-1.34m0,1.34v-1.34m0,5.37v-4.03m0-1.23v-6.23m-14.29,7.46v-1.34m0,1.34v-1.34m0,5.37v-4.03m0,.11v-7.57m14.29,11.49v-11.49" fill="none" stroke="#000" stroke-linecap="round" stroke-linejoin="round" stroke-width=".22"/></g><g><path d="M428.33,949.35v-7.57m0,11.49v-4.03m0,0v-1.34m14.09,.11v-6.23m0,11.49v-4.03m0,0v-1.34" fill="none" stroke="#000" stroke-linecap="round" stroke-linejoin="round" stroke-width=".22"/><path d="M442.42,953.27h-14.09m14.09-11.49h-14.09m14.09,6.12h-3.19m0,0v1.34m0,0h3.19m-10.9-1.34h-3.19m0,0v1.34m0,0h3.19m-1.59,0h1.59m0,0v-1.34m7.71,.67h-7.71m7.71-.67h-7.71m0,1.34h7.71m-10.9,0h1.6m-1.6,0h0" fill="none" stroke="#000" stroke-linecap="round" stroke-linejoin="round" stroke-width=".25"/><path d="M442.42,949.24v-1.34m0,1.34v-1.34m0,5.37v-4.03m0-1.23v-6.23m-14.09,7.46v-1.34m0,1.34v-1.34m0,5.37v-4.03m0,.11v-7.57m14.09,11.49v-11.49" fill="none" stroke="#000" stroke-linecap="round" stroke-linejoin="round" stroke-width=".22"/></g><path d="M456.11,942.64c.85,2.31,1.08,3.5,1.2,5.97" fill="none" stroke="#000" stroke-linecap="round" stroke-linejoin="round" stroke-width=".25"/><path d="M456.09,942.26l.28,.66-13.74,6.07h-.21v-.71l13.67-6.02h0Z" fill="#2d2d2c" fill-rule="evenodd"/><path d="M459.53,937.29c-1.56,4.26-1.99,6.45-2.22,10.99" fill="none" stroke="#000" stroke-linecap="round" stroke-linejoin="round" stroke-width=".25"/><path d="M459.57,936.6l-.52,1.22,25.3,11.17h.39v-1.32l-25.17-11.07h0Z" fill="#2d2d2c" fill-rule="evenodd"/><g><path d="M577.78,949.35v-7.57m0,11.49v-4.03m0,0v-1.34m14.29,.11v-6.23m0,11.49v-4.03m0,0v-1.34" fill="none" stroke="#000" stroke-linecap="round" stroke-linejoin="round" stroke-width=".22"/><path d="M592.07,953.27h-14.29m14.29-11.49h-14.29m14.29,6.12h-2.72m0,0v1.34m0,0h2.72m-11.57-1.34h-2.72m0,0v1.34m0,0h2.72m-1.36,0h1.36m0,0v-1.34m8.85,.67h-8.85m8.85-.67h-8.85m0,1.34h8.85m-11.57,0h1.36m-1.36,0h0" fill="none" stroke="#000" stroke-linecap="round" stroke-linejoin="round" stroke-width=".25"/><path d="M592.07,949.24v-1.34m0,1.34v-1.34m0,5.37v-4.03m0-1.23v-6.23m-14.29,7.46v-1.34m0,1.34v-1.34m0,5.37v-4.03m0,.11v-7.57m14.29,11.49v-11.49" fill="none" stroke="#000" stroke-linecap="round" stroke-linejoin="round" stroke-width=".22"/></g><g><path d="M521.36,949.35v-7.57m0,11.49v-4.03m0,0v-1.34m14.1,.11v-6.23m0,11.49v-4.03m0,0v-1.34" fill="none" stroke="#000" stroke-linecap="round" stroke-linejoin="round" stroke-width=".22"/><path d="M535.46,953.27h-14.1m14.1-11.49h-14.1m14.1,6.12h-3.2m0,0v1.34m0,0h3.2m-10.9-1.34h-3.2m0,0v1.34m0,0h3.2m-1.6,0h1.6m0,0v-1.34m7.7,.67h-7.7m7.7-.67h-7.7m0,1.34h7.7m-10.9,0h1.6m-1.6,0h0" fill="none" stroke="#000" stroke-linecap="round" stroke-linejoin="round" stroke-width=".25"/><path d="M535.46,949.24v-1.34m0,1.34v-1.34m0,5.37v-4.03m0-1.23v-6.23m-14.1,7.46v-1.34m0,1.34v-1.34m0,5.37v-4.03m0,.11v-7.57m14.1,11.49v-11.49" fill="none" stroke="#000" stroke-linecap="round" stroke-linejoin="round" stroke-width=".22"/></g><path d="M549.15,942.64c.85,2.31,1.08,3.5,1.2,5.97" fill="none" stroke="#000" stroke-linecap="round" stroke-linejoin="round" stroke-width=".25"/><path d="M549.13,942.26l.28,.66-13.74,6.07h-.21v-.71l13.67-6.02h0Z" fill="#2d2d2c" fill-rule="evenodd"/><path d="M552.57,937.29c-1.56,4.26-1.99,6.45-2.22,10.99" fill="none" stroke="#000" stroke-linecap="round" stroke-linejoin="round" stroke-width=".25"/><path d="M552.6,936.6l-.51,1.22,25.3,11.17h.39v-1.32l-25.18-11.07Z" fill="#2d2d2c" fill-rule="evenodd"/><g><path d="M674.26,949.35v-7.57m0,11.49v-4.03m0,0v-1.34m18.07,.11v-6.23m0,11.49v-4.03m0,0v-1.34" fill="none" stroke="#000" stroke-linecap="round" stroke-linejoin="round" stroke-width=".22"/><path d="M692.33,953.27h-18.07m18.07-11.49h-18.07m18.07,6.12h-2.72m0,0v1.34m0,0h2.72m-15.35-1.34h-2.72m0,0v1.34m0,0h2.72m-1.36,0h1.36m0,0v-1.34m12.63,.67h-12.63m12.63-.67h-12.63m0,1.34h12.63m-15.35,0h1.36m-1.36,0h0" fill="none" stroke="#000" stroke-linecap="round" stroke-linejoin="round" stroke-width=".25"/><path d="M692.33,949.24v-1.34m0,1.34v-1.34m0,5.37v-4.03m0-1.23v-6.23m-18.07,7.46v-1.34m0,1.34v-1.34m0,5.37v-4.03m0,.11v-7.57m18.07,11.49v-11.49" fill="none" stroke="#000" stroke-linecap="round" stroke-linejoin="round" stroke-width=".22"/></g><g><path d="M614.65,949.35v-7.57m0,11.49v-4.03m0,0v-1.34m17.29,.11v-6.23m0,11.49v-4.03m0,0v-1.34" fill="none" stroke="#000" stroke-linecap="round" stroke-linejoin="round" stroke-width=".22"/><path d="M631.94,953.27h-17.29m17.29-11.49h-17.29m17.29,6.12h-3.19m0,0v1.34m0,0h3.19m-14.09-1.34h-3.2m0,0v1.34m0,0h3.2m-1.6,0h1.6m0,0v-1.34m10.9,.67h-10.9m10.9-.67h-10.9m0,1.34h10.9m-14.1,0h1.6m-1.6,0h0" fill="none" stroke="#000" stroke-linecap="round" stroke-linejoin="round" stroke-width=".25"/><path d="M631.94,949.24v-1.34m0,1.34v-1.34m0,5.37v-4.03m0-1.23v-6.23m-17.29,7.46v-1.34m0,1.34v-1.34m0,5.37v-4.03m0,.11v-7.57m17.29,11.49v-11.49" fill="none" stroke="#000" stroke-linecap="round" stroke-linejoin="round" stroke-width=".22"/></g><path d="M645.63,942.64c.85,2.31,1.08,3.5,1.2,5.97" fill="none" stroke="#000" stroke-linecap="round" stroke-linejoin="round" stroke-width=".25"/><path d="M645.61,942.26l.28,.66-13.74,6.07h-.21v-.71l13.67-6.02h0Z" fill="#2d2d2c" fill-rule="evenodd"/><path d="M649.05,937.29c-1.56,4.26-1.99,6.45-2.22,10.99" fill="none" stroke="#000" stroke-linecap="round" stroke-linejoin="round" stroke-width=".25"/><path d="M649.09,936.6l-.52,1.22,25.3,11.17h.39v-1.32l-25.17-11.07h0Z" fill="#2d2d2c" fill-rule="evenodd"/><g><path d="M770.58,949.35v-7.57m0,11.49v-4.03m0,0v-1.34m12.66,.11v-6.23m0,11.49v-4.03m0,0v-1.34" fill="none" stroke="#000" stroke-linecap="round" stroke-linejoin="round" stroke-width=".22"/><path d="M783.24,953.27h-12.66m12.66-11.49h-12.66m12.66,6.12h-2.72m0,0v1.34m0,0h2.72m-9.94-1.34h-2.72m0,0v1.34m0,0h2.72m-1.36,0h1.36m0,0v-1.34m7.22,.67h-7.22m7.22-.67h-7.22m0,1.34h7.22m-9.94,0h1.36m-1.36,0h0" fill="none" stroke="#000" stroke-linecap="round" stroke-linejoin="round" stroke-width=".25"/><path d="M783.24,949.24v-1.34m0,1.34v-1.34m0,5.37v-4.03m0-1.23v-6.23m-12.66,7.46v-1.34m0,1.34v-1.34m0,5.37v-4.03m0,.11v-7.57m12.66,11.49v-11.49" fill="none" stroke="#000" stroke-linecap="round" stroke-linejoin="round" stroke-width=".22"/></g><g><path d="M712.83,949.35v-7.57m0,11.49v-4.03m0,0v-1.34m15.43,.11v-6.23m0,11.49v-4.03m0,0v-1.34" fill="none" stroke="#000" stroke-linecap="round" stroke-linejoin="round" stroke-width=".22"/><path d="M728.26,953.27h-15.43m15.43-11.49h-15.43m15.43,6.12h-3.19m0,0v1.34m0,0h3.19m-12.24-1.34h-3.19m0,0v1.34m0,0h3.19m-1.6,0h1.6m0,0v-1.34m9.05,.67h-9.05m9.05-.67h-9.05m0,1.34h9.05m-12.24,0h1.59m-1.59,0h0" fill="none" stroke="#000" stroke-linecap="round" stroke-linejoin="round" stroke-width=".25"/><path d="M728.26,949.24v-1.34m0,1.34v-1.34m0,5.37v-4.03m0-1.23v-6.23m-15.43,7.46v-1.34m0,1.34v-1.34m0,5.37v-4.03m0,.11v-7.57m15.43,11.49v-11.49" fill="none" stroke="#000" stroke-linecap="round" stroke-linejoin="round" stroke-width=".22"/></g><path d="M741.95,942.64c.85,2.31,1.08,3.5,1.2,5.97" fill="none" stroke="#000" stroke-linecap="round" stroke-linejoin="round" stroke-width=".25"/><path d="M741.93,942.26l.28,.66-13.74,6.07h-.21v-.71l13.67-6.02h0Z" fill="#2d2d2c" fill-rule="evenodd"/><path d="M745.37,937.29c-1.56,4.26-1.99,6.45-2.22,10.99" fill="none" stroke="#000" stroke-linecap="round" stroke-linejoin="round" stroke-width=".25"/><path d="M745.41,936.6l-.52,1.22,25.3,11.17h.39v-1.32l-25.17-11.07h0Z" fill="#2d2d2c" fill-rule="evenodd"/><g><path d="M864.48,949.35v-7.57m0,11.49v-4.03m0,0v-1.34m15.38,.11v-6.23m0,11.49v-4.03m0,0v-1.34" fill="none" stroke="#000" stroke-linecap="round" stroke-linejoin="round" stroke-width=".22"/><path d="M879.86,953.27h-15.38m15.38-11.49h-15.38m15.38,6.12h-2.72m0,0v1.34m0,0h2.72m-12.66-1.34h-2.72m0,0v1.34m0,0h2.72m-1.36,0h1.36m0,0v-1.34m9.94,.67h-9.94m9.94-.67h-9.94m0,1.34h9.94m-12.66,0h1.36m-1.36,0h0" fill="none" stroke="#000" stroke-linecap="round" stroke-linejoin="round" stroke-width=".25"/><path d="M879.86,949.24v-1.34m0,1.34v-1.34m0,5.37v-4.03m0-1.23v-6.23m-15.38,7.46v-1.34m0,1.34v-1.34m0,5.37v-4.03m0,.11v-7.57m15.38,11.49v-11.49" fill="none" stroke="#000" stroke-linecap="round" stroke-linejoin="round" stroke-width=".22"/></g><g><path d="M806.73,949.35v-7.57m0,11.49v-4.03m0,0v-1.34m15.43,.11v-6.23m0,11.49v-4.03m0,0v-1.34" fill="none" stroke="#000" stroke-linecap="round" stroke-linejoin="round" stroke-width=".22"/><path d="M822.16,953.27h-15.43m15.43-11.49h-15.43m15.43,6.12h-3.19m0,0v1.34m0,0h3.19m-12.24-1.34h-3.19m0,0v1.34m0,0h3.19m-1.59,0h1.59m0,0v-1.34m9.05,.67h-9.05m9.05-.67h-9.05m0,1.34h9.05m-12.24,0h1.6m-1.6,0h0" fill="none" stroke="#000" stroke-linecap="round" stroke-linejoin="round" stroke-width=".25"/><path d="M822.16,949.24v-1.34m0,1.34v-1.34m0,5.37v-4.03m0-1.23v-6.23m-15.43,7.46v-1.34m0,1.34v-1.34m0,5.37v-4.03m0,.11v-7.57m15.43,11.49v-11.49" fill="none" stroke="#000" stroke-linecap="round" stroke-linejoin="round" stroke-width=".22"/></g><path d="M835.85,942.64c.85,2.31,1.08,3.5,1.2,5.97" fill="none" stroke="#000" stroke-linecap="round" stroke-linejoin="round" stroke-width=".25"/><path d="M835.83,942.26l.28,.66-13.73,6.07h-.22v-.71l13.67-6.02h0Z" fill="#2d2d2c" fill-rule="evenodd"/><path d="M839.28,937.29c-1.56,4.26-1.99,6.45-2.22,10.99" fill="none" stroke="#000" stroke-linecap="round" stroke-linejoin="round" stroke-width=".25"/><path d="M839.31,936.6l-.51,1.22,25.29,11.17h.39v-1.32l-25.17-11.07h0Z" fill="#2d2d2c" fill-rule="evenodd"/><g><path d="M960.26,949.35v-7.57m0,11.49v-4.03m0,0v-1.34m15.38,.11v-6.23m0,11.49v-4.03m0,0v-1.34" fill="none" stroke="#000" stroke-linecap="round" stroke-linejoin="round" stroke-width=".22"/><path d="M975.64,953.27h-15.38m15.38-11.49h-15.38m15.38,6.12h-2.72m0,0v1.34m0,0h2.72m-12.67-1.34h-2.72m.01,0v1.34m0,0h2.71m-1.36,0h1.36m0,0v-1.34m9.95,.67h-9.95m9.95-.67h-9.95m0,1.34h9.95m-12.66,0h1.36m-1.36,0h0" fill="none" stroke="#000" stroke-linecap="round" stroke-linejoin="round" stroke-width=".25"/><path d="M975.64,949.24v-1.34m0,1.34v-1.34m0,5.37v-4.03m0-1.23v-6.23m-15.38,7.46v-1.34m0,1.34v-1.34m0,5.37v-4.03m0,.11v-7.57m15.38,11.49v-11.49" fill="none" stroke="#000" stroke-linecap="round" stroke-linejoin="round" stroke-width=".22"/></g><g><path d="M902.5,949.35v-7.57m0,11.49v-4.03m0,0v-1.34m15.44,.11v-6.23m0,11.49v-4.03m0,0v-1.34" fill="none" stroke="#000" stroke-linecap="round" stroke-linejoin="round" stroke-width=".22"/><path d="M917.94,953.27h-15.44m15.44-11.49h-15.44m15.44,6.12h-3.2m0,0v1.34m0,0h3.2m-12.25-1.34h-3.19m0,0v1.34m0,0h3.19m-1.59,0h1.59m0,0v-1.34m9.05,.67h-9.05m9.05-.67h-9.05m0,1.34h9.05m-12.24,0h1.6m-1.6,0h0" fill="none" stroke="#000" stroke-linecap="round" stroke-linejoin="round" stroke-width=".25"/><path d="M917.94,949.24v-1.34m0,1.34v-1.34m0,5.37v-4.03m0-1.23v-6.23m-15.44,7.46v-1.34m0,1.34v-1.34m0,5.37v-4.03m0,.11v-7.57m15.44,11.49v-11.49" fill="none" stroke="#000" stroke-linecap="round" stroke-linejoin="round" stroke-width=".22"/></g><path d="M931.62,942.64c.85,2.31,1.08,3.5,1.2,5.97" fill="none" stroke="#000" stroke-linecap="round" stroke-linejoin="round" stroke-width=".25"/><path d="M931.61,942.26l.28,.66-13.74,6.07h-.21v-.71l13.67-6.02h0Z" fill="#2d2d2c" fill-rule="evenodd"/><path d="M935.05,937.29c-1.56,4.26-1.99,6.45-2.22,10.99" fill="none" stroke="#000" stroke-linecap="round" stroke-linejoin="round" stroke-width=".25"/><path d="M935.08,936.6l-.51,1.22,25.29,11.17h.39v-1.32s-25.17-11.07-25.17-11.07h0Z" fill="#2d2d2c" fill-rule="evenodd"/><g><path d="M1058,949.35v-7.57m0,11.49v-4.03m0,0v-1.34m15.38,.11v-6.23m0,11.49v-4.03m0,0v-1.34" fill="none" stroke="#000" stroke-linecap="round" stroke-linejoin="round" stroke-width=".22"/><path d="M1073.38,953.27h-15.38m15.38-11.49h-15.38m15.38,6.12h-2.72m0,0v1.34m0,0h2.72m-12.66-1.34h-2.72m0,0v1.34m0,0h2.72m-1.36,0h1.36m0,0v-1.34m9.94,.67h-9.94m9.94-.67h-9.94m0,1.34h9.94m-12.66,0h1.36m-1.36,0h0" fill="none" stroke="#000" stroke-linecap="round" stroke-linejoin="round" stroke-width=".25"/><path d="M1073.38,949.24v-1.34m0,1.34v-1.34m0,5.37v-4.03m0-1.23v-6.23m-15.38,7.46v-1.34m0,1.34v-1.34m0,5.37v-4.03m0,.11v-7.57m15.38,11.49v-11.49" fill="none" stroke="#000" stroke-linecap="round" stroke-linejoin="round" stroke-width=".22"/></g><g><path d="M997.84,949.35v-7.57m0,11.49v-4.03m0,0v-1.34m17.84,.11v-6.23m0,11.49v-4.03m0,0v-1.34" fill="none" stroke="#000" stroke-linecap="round" stroke-linejoin="round" stroke-width=".22"/><path d="M1015.68,953.27h-17.84m17.84-11.49h-17.84m17.84,6.12h-3.2m0,0v1.34m0,0h3.2m-14.64-1.34h-3.2m0,0v1.34m0,0h3.2m-1.6,0h1.6m0,0v-1.34m11.44,.67h-11.44m11.44-.67h-11.44m0,1.34h11.44m-14.64,0h1.6m-1.6,0h0" fill="none" stroke="#000" stroke-linecap="round" stroke-linejoin="round" stroke-width=".25"/><path d="M1015.68,949.24v-1.34m0,1.34v-1.34m0,5.37v-4.03m0-1.23v-6.23m-17.84,7.46v-1.34m0,1.34v-1.34m0,5.37v-4.03m0,.11v-7.57m17.84,11.49v-11.49" fill="none" stroke="#000" stroke-linecap="round" stroke-linejoin="round" stroke-width=".22"/></g><path d="M1029.37,942.64c.85,2.31,1.08,3.5,1.2,5.97" fill="none" stroke="#000" stroke-linecap="round" stroke-linejoin="round" stroke-width=".25"/><path d="M1029.35,942.26l.28,.66-13.74,6.07h-.21v-.71l13.67-6.02h0Z" fill="#2d2d2c" fill-rule="evenodd"/><path d="M1032.79,937.29c-1.56,4.26-1.99,6.45-2.22,10.99" fill="none" stroke="#000" stroke-linecap="round" stroke-linejoin="round" stroke-width=".25"/><path d="M1032.82,936.6l-.51,1.22,25.3,11.17h.39v-1.32l-25.18-11.07h0Z" fill="#2d2d2c" fill-rule="evenodd"/><g><path d="M1151.38,949.35v-7.57m0,11.49v-4.03m0,0v-1.34m15.38,.11v-6.23m0,11.49v-4.03m0,0v-1.34" fill="none" stroke="#000" stroke-linecap="round" stroke-linejoin="round" stroke-width=".22"/><path d="M1166.76,953.27h-15.38m15.38-11.49h-15.38m15.38,6.12h-2.72m0,0v1.34m0,0h2.72m-12.66-1.34h-2.72m0,0v1.34m0,0h2.72m-1.36,0h1.36m0,0v-1.34m9.94,.67h-9.94m9.94-.67h-9.94m0,1.34h9.94m-12.66,0h1.36m-1.36,0h0" fill="none" stroke="#000" stroke-linecap="round" stroke-linejoin="round" stroke-width=".25"/><path d="M1166.76,949.24v-1.34m0,1.34v-1.34m0,5.37v-4.03m0-1.23v-6.23m-15.38,7.46v-1.34m0,1.34v-1.34m0,5.37v-4.03m0,.11v-7.57m15.38,11.49v-11.49" fill="none" stroke="#000" stroke-linecap="round" stroke-linejoin="round" stroke-width=".22"/></g><g><path d="M1096.95,949.35v-7.57m0,11.49v-4.03m0,0v-1.34m12.11,.11v-6.23m0,11.49v-4.03m0,0v-1.34" fill="none" stroke="#000" stroke-linecap="round" stroke-linejoin="round" stroke-width=".22"/><path d="M1109.06,953.27h-12.11m12.11-11.49h-12.11m12.11,6.12h-3.19m0,0v1.34m0,0h3.19m-8.91-1.34h-3.2m0,0v1.34m0,0h3.2m-1.6,0h1.6m0,0v-1.34m5.72,.67h-5.72m5.72-.67h-5.72m0,1.34h5.72m-8.92,0h1.6m-1.6,0h0" fill="none" stroke="#000" stroke-linecap="round" stroke-linejoin="round" stroke-width=".25"/><path d="M1109.06,949.24v-1.34m0,1.34v-1.34m0,5.37v-4.03m0-1.23v-6.23m-12.11,7.46v-1.34m0,1.34v-1.34m0,5.37v-4.03m0,.11v-7.57m12.11,11.49v-11.49" fill="none" stroke="#000" stroke-linecap="round" stroke-linejoin="round" stroke-width=".22"/></g><path d="M1122.75,942.64c.85,2.31,1.08,3.5,1.2,5.97" fill="none" stroke="#000" stroke-linecap="round" stroke-linejoin="round" stroke-width=".25"/><path d="M1122.73,942.26l.28,.66-13.73,6.07h-.22v-.71l13.67-6.02h0Z" fill="#2d2d2c" fill-rule="evenodd"/><path d="M1126.18,937.29c-1.56,4.26-1.99,6.45-2.22,10.99" fill="none" stroke="#000" stroke-linecap="round" stroke-linejoin="round" stroke-width=".25"/><path d="M1126.21,936.6l-.52,1.22,25.3,11.17h.39v-1.32l-25.17-11.07h0Z" fill="#2d2d2c" fill-rule="evenodd"/><g><path d="M1243.06,949.35v-7.57m0,11.49v-4.03m0,0v-1.34m15.38,.11v-6.23m0,11.49v-4.03m0,0v-1.34" fill="none" stroke="#000" stroke-linecap="round" stroke-linejoin="round" stroke-width=".22"/><path d="M1258.44,953.27h-15.38m15.38-11.49h-15.38m15.38,6.12h-2.72m0,0v1.34m0,0h2.72m-12.66-1.34h-2.72m0,0v1.34m0,0h2.72m-1.36,0h1.36m0,0v-1.34m9.94,.67h-9.94m9.94-.67h-9.94m0,1.34h9.94m-12.66,0h1.36m-1.36,0h0" fill="none" stroke="#000" stroke-linecap="round" stroke-linejoin="round" stroke-width=".25"/><path d="M1258.44,949.24v-1.34m0,1.34v-1.34m0,5.37v-4.03m0-1.23v-6.23m-15.38,7.46v-1.34m0,1.34v-1.34m0,5.37v-4.03m0,.11v-7.57m15.38,11.49v-11.49" fill="none" stroke="#000" stroke-linecap="round" stroke-linejoin="round" stroke-width=".22"/></g><g><path d="M1187.83,949.35v-7.57m0,11.49v-4.03m0,0v-1.34m12.91,.11v-6.23m0,11.49v-4.03m0,0v-1.34" fill="none" stroke="#000" stroke-linecap="round" stroke-linejoin="round" stroke-width=".22"/><path d="M1200.74,953.27h-12.91m12.91-11.49h-12.91m12.91,6.12h-3.19m0,0v1.34m0,0h3.19m-9.71-1.34h-3.2m0,0v1.34m0,0h3.2m-1.6,0h1.6m0,0v-1.34m6.52,.67h-6.52m6.52-.67h-6.52m0,1.34h6.52m-9.72,0h1.6m-1.6,0h0" fill="none" stroke="#000" stroke-linecap="round" stroke-linejoin="round" stroke-width=".25"/><path d="M1200.74,949.24v-1.34m0,1.34v-1.34m0,5.37v-4.03m0-1.23v-6.23m-12.91,7.46v-1.34m0,1.34v-1.34m0,5.37v-4.03m0,.11v-7.57m12.91,11.49v-11.49" fill="none" stroke="#000" stroke-linecap="round" stroke-linejoin="round" stroke-width=".22"/></g><path d="M1214.43,942.64c.85,2.31,1.08,3.5,1.2,5.97" fill="none" stroke="#000" stroke-linecap="round" stroke-linejoin="round" stroke-width=".25"/><path d="M1214.41,942.26l.28,.66-13.73,6.07h-.22v-.71l13.67-6.02h0Z" fill="#2d2d2c" fill-rule="evenodd"/><path d="M1217.86,937.29c-1.56,4.26-1.99,6.45-2.22,10.99" fill="none" stroke="#000" stroke-linecap="round" stroke-linejoin="round" stroke-width=".25"/><path d="M1217.89,936.6l-.52,1.22,25.3,11.17h.39v-1.32l-25.17-11.07h0Z" fill="#2d2d2c" fill-rule="evenodd"/><g><path d="M1335.58,949.35v-7.57m0,11.49v-4.03m0,0v-1.34m14.53,.11v-6.23m0,11.49v-4.03m0,0v-1.34" fill="none" stroke="#000" stroke-linecap="round" stroke-linejoin="round" stroke-width=".22"/><path d="M1350.11,953.27h-14.53m14.53-11.49h-14.53m14.53,6.12h-2.72m0,0v1.34m0,0h2.72m-11.81-1.34h-2.72m0,0v1.34m0,0h2.72m-1.36,0h1.36m0,0v-1.34m9.09,.67h-9.09m9.09-.67h-9.09m0,1.34h9.09m-11.81,0h1.36m-1.36,0h0" fill="none" stroke="#000" stroke-linecap="round" stroke-linejoin="round" stroke-width=".25"/><path d="M1350.11,949.24v-1.34m0,1.34v-1.34m0,5.37v-4.03m0-1.23v-6.23m-14.53,7.46v-1.34m0,1.34v-1.34m0,5.37v-4.03m0,.11v-7.57m14.53,11.49v-11.49" fill="none" stroke="#000" stroke-linecap="round" stroke-linejoin="round" stroke-width=".22"/></g><g><path d="M1280.35,949.35v-7.57m0,11.49v-4.03m0,0v-1.34m12.91,.11v-6.23m0,11.49v-4.03m0,0v-1.34" fill="none" stroke="#000" stroke-linecap="round" stroke-linejoin="round" stroke-width=".22"/><path d="M1293.26,953.27h-12.91m12.91-11.49h-12.91m12.91,6.12h-3.19m0,0v1.34m0,0h3.19m-9.71-1.34h-3.2m0,0v1.34m0,0h3.2m-1.6,0h1.6m0,0v-1.34m6.52,.67h-6.52m6.52-.67h-6.52m0,1.34h6.52m-9.72,0h1.6m-1.6,0h0" fill="none" stroke="#000" stroke-linecap="round" stroke-linejoin="round" stroke-width=".25"/><path d="M1293.26,949.24v-1.34m0,1.34v-1.34m0,5.37v-4.03m0-1.23v-6.23m-12.91,7.46v-1.34m0,1.34v-1.34m0,5.37v-4.03m0,.11v-7.57m12.91,11.49v-11.49" fill="none" stroke="#000" stroke-linecap="round" stroke-linejoin="round" stroke-width=".22"/></g><path d="M1306.95,942.64c.85,2.31,1.08,3.5,1.2,5.97" fill="none" stroke="#000" stroke-linecap="round" stroke-linejoin="round" stroke-width=".25"/><path d="M1306.93,942.26l.28,.66-13.74,6.07h-.21v-.71l13.67-6.02h0Z" fill="#2d2d2c" fill-rule="evenodd"/><path d="M1310.37,937.29c-1.56,4.26-1.99,6.45-2.22,10.99" fill="none" stroke="#000" stroke-linecap="round" stroke-linejoin="round" stroke-width=".25"/><path d="M1310.41,936.6l-.52,1.22,25.3,11.17h.39v-1.32l-25.17-11.07h0Z" fill="#2d2d2c" fill-rule="evenodd"/><path d="M152.53,143.4h57.79v16.39h-57.79v-16.39Zm1200.69,0h51.49v16.39h-51.49v-16.39Zm31.25,179.29h16.39v16.13h-16.39v-16.13Zm.72,96.5h16.39v18.3h-16.39v-18.3Z" fill="#2d2d2c"/><path d="M1371.61,410.38h16.75v29.89h-16.75v-29.89Z" fill="#2d2d2c"/><path d="M1388.36,549.98h-16.75v-27.62l16.75-2.04v29.66Zm0,110.76h-16.75l-.02-27.06,16.77-3.31v30.37Zm0,93.99h-16.75l-.02-25.99,16.77-3.18v29.17Zm0,93.42h-16.75l-.02-25.99,16.77-3.18v29.17Zm0,96.75h-16.75l-.02-25.7,16.77-3.48v29.18Z" fill="#2d2d2c" fill-rule="evenodd"/><path d="M1385.19,529.35h16.39v19.38h-16.39v-19.38Zm0,109.75h16.39v13.6h-16.39v-13.6Zm0,96.5h16.39v10.6h-16.39v-10.6Zm0,96.67h16.39v10.92h-16.39v-10.92Z" fill="#2d2d2c"/><path d="M1401.58,947.75l-4.73,28.28-20.98-3.61v-46.1h25.71v21.43h0ZM168.46,839.7h16.69l.02-33.28-16.71-.28v33.56h0Zm0-93.5h16.69l.02-33.28-16.71-.28v33.56h0Zm0-95.12h16.69l.02-30.89-16.71-1.05v31.94h0Zm0-108.12h16.69l.02-33.42-16.67-.88-.04,34.3h0Zm0-110.73h16.69l.02-34.25-16.67,.28-.04,33.97h0Zm0-92.75h16.69l.02-33.65-16.67,.61-.04,33.04h0Zm1.95,605.42h16.76l.02-29.76-16.78-3.61v33.37Z" fill="#2d2d2c" fill-rule="evenodd"/><path d="M206.72,953.27v-11.47l-33.38-.02v11.49h33.38Zm105.49,0v-11.47l-22.53-.02v11.49h22.53Zm116.12,0v-11.47l-22.95-.02v11.49h22.95Zm93.03,0v-11.47l-22.33-.02v11.49h22.33Zm93.29,0v-11.47l-22.58-.02v11.49h22.58Zm98.18,0v-11.47l-20.5-.02v11.49h20.5Zm93.9,0v-11.47l-23.49-.02v11.49h23.49Zm95.77,0v-11.47l-22.64-.02v11.49h22.64Zm95.34,0v-11.47l-22.2-.02v11.49h22.2Zm99.11,0v-11.47l-23.57-.02v11.49h23.57Zm90.88,0v-11.47l-21.07-.02v11.49h21.07Zm92.52,0v-11.47l-21.91-.02v11.49h21.91Zm102.19,0v-11.47l-32.43-.02v11.49h32.43Z" fill="#2d2d2c" fill-rule="evenodd"/><path d="M157.19,822.33h16.39v17.37h-16.39v-17.37Zm0-93.16h16.39v13.35h-16.39v-13.35Zm0-93.39h16.39v13.23h-16.39v-13.23Zm0-110.33h16.39v13.85h-16.39v-13.85Zm0-112.16h16.39v15.3h-16.39v-15.3Zm0-92.66h16.39v19.32h-16.39v-19.32Z" fill="#2d2d2c"/><path d="M157.19,947.75l4.73,28.28,20.99-3.61v-38.89h-25.72v14.22Z" fill="#2d2d2c" fill-rule="evenodd"/><path d="M1361.37,313h27.85v21.28h-27.85v-21.28ZM781.34,158.17h8.7v129.98h-8.7V158.17Zm369.69,0h8.7v129.98h-8.7V158.17Zm-359.33,681.48h6.57v106.43h-6.57v-106.43Zm-191.63,0h6.57v106.43h-6.57v-106.43Zm-188.28,0h6.57v106.43h-6.57v-106.43Zm-.73-430.92h8.47v190.11h-8.47v-190.11Zm722.93,1.42h6.08v17.1h-6.08v-17.1Zm0,47.33h6.08v92.5h-6.08v-92.5Zm-46.33,19.84h6.08v179.67h-6.08v-179.67Zm-676.6,154h8.47v37.19h-8.47v-37.19Zm.73,68.07h7.74v9.86h-7.74v-9.86Z" fill="#2d2d2c"/><path d="M417.91,701.32h98.74v7.96h-98.74v-7.96Zm129.62,0h96.29v7.96h-96.29v-7.96Zm126.7,0h293.13v7.96h-293.13v-7.96Zm323.57,0h139.69v7.96h-139.69v-7.96Zm92.9-157.53h49.37v6.19h-49.37v-6.19Zm-642.45-127.89v-6.33h190.49v6.33h-190.49Zm219.2,.59v-6.33h245.34v6.33h-245.34Zm274.05,0v-6.33h198.57v6.33h-198.57Z" fill="#2d2d2c"/></g></svg>