<?xml version="1.0" encoding="UTF-8"?><svg id="_Слой_1" xmlns="http://www.w3.org/2000/svg" viewBox="0 0 1556.82 1178.99"><path id="Fon" d="M0,1H1556.82V1179.99H0V1Z" fill="#fff"/><polygon id="_544" points="412.61 331.92 411.11 178.22 382.51 176.02 329.91 163.92 304.71 152.12 280.91 157.82 226.91 157.82 163.31 152.32 166.01 167.32 166.01 204.92 162.81 233.82 172.01 259.52 181.61 300.82 164.51 328.02 171.81 342.32 181.71 393.12 181.81 420.02 163.41 429.22 173.21 443.52 181.81 504.42 176.81 524.62 178.31 536.02 412.41 536.02 416.21 475.82 416.61 475.82 416.61 469.82 416.61 413.92 412.61 331.92" fill="none" stroke="#000" stroke-miterlimit="10"/><polygon id="_545" points="780.31 176.12 754.81 176.52 702.41 163.42 683.01 152.42 670.21 163.02 617.81 176.12 569.21 176.52 516.81 163.42 502.91 151.02 486.41 163.02 434.01 176.12 412.61 180.02 414.31 330.42 412.41 388.32 415.41 413.82 598.31 413.92 629.61 414.52 672.21 411.32 679.11 403.52 783.81 404.02 783.81 188.72 780.31 176.12" fill="none" fill-rule="evenodd" stroke="#000" stroke-miterlimit="10"/><polygon id="_546" points="1059.31 413.82 1059.31 155.42 1058.61 155.02 1040.71 163.02 988.31 176.12 963.61 178.72 938.51 176.52 886.11 163.42 867.91 153.72 855.71 163.02 803.41 176.12 783.81 175.72 783.81 192.32 783.81 404.02 896.31 404.02 896.61 414.52 1059.31 413.82" fill="none" fill-rule="evenodd" stroke="#000" stroke-miterlimit="10"/><polygon id="_547" points="1378.11 266.22 1389.71 231.92 1385.41 208.42 1385.41 170.92 1388.41 156.42 1362.11 152.32 1325.11 157.82 1271.11 157.82 1247.91 154.42 1228.41 163.02 1176.01 176.12 1151.61 177.32 1124.31 176.52 1071.91 163.42 1060.51 158.72 1060.51 414.52 1131.11 414.52 1131.11 543.92 1375.21 543.02 1369.81 513.72 1379.31 453.02 1386.51 435.52 1369.21 405.52 1378.71 351.92 1385.81 333.12 1369.31 307.62 1378.11 266.22" fill="none" fill-rule="evenodd" stroke="#000" stroke-miterlimit="10"/><polygon id="_548" points="1087.81 702.62 1084.81 689.32 1084.81 658.42 1089.61 544.62 1388.11 544.62 1379.61 562.62 1370.01 623.32 1390.01 650.82 1378.81 668.82 1369.81 720.42 1387.81 746.42 1378.91 762.02 1369.81 813.62 1386.01 841.62 1377.11 907.92 1383.81 950.82 1384.11 955.62 1384.11 1008.32 1184.21 1008.32 1184.21 894.52 1173.71 894.52 1173.71 703.42 1087.81 702.62" fill="none" stroke="#000" stroke-miterlimit="10"/><polygon id="_549" points="1173.11 699.32 791.61 699.32 791.61 893.82 783.81 900.32 783.61 955.52 784.41 955.62 784.41 1008.32 1182.81 1008.32 1182.81 900.12 1173.11 892.82 1173.11 699.32" fill="none" stroke="#000" stroke-miterlimit="10"/><polygon id="_550" points="791.41 699.32 601.21 699.32 600.51 955.62 601.21 955.62 601.21 1008.32 782.91 1008.32 783.11 955.62 783.61 955.62 783.61 901.02 792.11 895.52 791.41 699.32" fill="none" stroke="#000" stroke-miterlimit="10"/><polygon id="_551" points="600.51 887.52 597.91 699.32 412.81 699.32 413.51 886.82 417.11 890.52 417.11 955.62 417.81 955.62 417.91 1008.32 599.91 1008.32 599.91 955.62 600.51 955.62 600.51 887.52" fill="none" stroke="#000" stroke-miterlimit="10"/><polygon id="_552" points="491.21 701.42 491.21 656.62 488.81 587.52 412.41 587.52 412.41 537.32 341.81 537.32 166.41 537.32 173.21 554.02 181.81 614.82 167.71 646.42 172.51 656.22 181.71 707.82 165.01 736.52 172.51 749.72 181.71 801.32 164.31 832.42 168.31 847.72 173.11 884.92 168.91 955.62 168.91 1008.32 416.61 1008.32 416.61 955.62 417.11 955.62 417.21 899.62 412.81 886.82 414.91 701.42 491.21 701.42" fill="none" fill-rule="evenodd" stroke="#000" stroke-miterlimit="10"/><g id="Walls_Inside"><path d="M599.57,704.96h6.57v132.88h-6.57v-132.88Zm191.63,0h6.57v132.88h-6.57v-132.88ZM411.33,250.34h7.25v160.87h-7.25V250.34Zm369.51-.5h6.52v161.67h-6.52V249.84Zm277.25-96h7.8V410.84h-7.8V153.84Zm77.74,394.33v-6.77h159.92v6.77h-159.92Zm-42.59,107.55v2.83h-6.08v-2.83h6.08Zm.01,33.81v11.96h-6.08v-11.96h6.08Zm-831.59-148.37v-8.47h150.02v8.47h-150.02Z" fill="#2d2d2c"/><path d="M410.56,386.03h2.83v26.06h-2.83v-26.06Zm761.34,313.47h7.23v138.33h-7.23v-138.33Zm-387.41,191.5h3.4v63.5h-3.4v-63.5Zm400.01,0h2.83v64.85h-2.83v-64.85Zm-583.23,7.25h3.37v56.25h-3.37v-56.25Zm-183.3-4.24h3.32v60.49h-3.32v-60.49Zm-6.68-189.05h6.57v132.88h-6.57v-132.88Z" fill="#2d2d2c"/></g><g id="Walls_Outside"><path d="M173.23,303.42l10.73-2.48m-15.97,3.69l3.93-.91m0,0l1.31-.3m-9.53-41.28l10.73-2.48m-15.97,3.69l3.93-.91m0,0l1.31-.3" fill="none" stroke="#000" stroke-linecap="round" stroke-linejoin="round" stroke-width=".22"/><path d="M158.46,263.35l9.53,41.28m6.44-44.97l9.53,41.28m-20.26-38.8l.54,2.36m0,0l-1.31,.3m0,0l-.54-2.36m5.44,23.59l-.27-1.18m0,0l1.31-.3m0,0l.27,1.18m-5.55-21.08l4.63,20.05m-3.98-20.2l4.63,20.05m-1.31,.3l-4.63-20.05m6.21,20.93l.14,.59m0,0l-.65,.15m0,0l.13,.59m0,0l-.65,.15m0,0l-.28-1.18m4.09,17.69l-.55-2.36m0,0l.66-.15m0,0l.13,.59m0,0l.66-.15m0,0l.41,1.77m-1.86-2.06l-3.26-14.15m2.23,.73l2.73,11.79m-3.14-13.56l.41,1.77m0,0l-1.31,.3m0,0l-.4-1.77m0,0l1.3-.3m2.23,15.63l-.4-1.77m0,0l1.31-.3m0,0l.4,1.77m0,0l-1.3,.3m-.41-1.77l-2.73-11.79m1.31-.3l2.73,11.79m-3.38-11.64l2.72,11.79" fill="none" stroke="#000" stroke-linecap="round" stroke-linejoin="round" stroke-width=".25"/><path d="M162.39,262.44l1.31-.3m-1.31,.3l1.31-.3m-5.24,1.21l3.93-.91m1.31-.3l10.73-2.48m-2.51,44.06l1.31-.3m-1.31,.3l1.31-.3m-5.24,1.21l3.93-.91m1.31-.3l10.73-2.48m-25.5-37.59l15.97-3.69" fill="none" stroke="#000" stroke-linecap="round" stroke-linejoin="round" stroke-width=".22"/><path d="M184.38,302.77l.29,1.25-15.97,3.68-.71-3.07,15.97-3.69,.29,1.25,.13,.58h0Z" fill="#2d2d2c" fill-rule="evenodd"/><path d="M152.02,235.47l15.97-3.69,6.43,27.88-15.97,3.69-6.43-27.88Z" fill="#2d2d2c"/><path d="M334.78,153.36l-2.48,10.73m3.69-15.97l-.91,3.93m0,0l-.3,1.31m52.6,12.14l-2.48,10.73m3.69-15.96l-.91,3.92m0,0l-.3,1.31" fill="none" stroke="#000" stroke-linecap="round" stroke-linejoin="round" stroke-width=".22"/><path d="M388.59,160.27l-52.6-12.15m48.91,28.11l-52.6-12.14m55.08,1.41l-3-.69m0,0l.3-1.31m0,0l3,.69m-30.05-6.94l1.5,.35m0,0l-.3,1.31m0,0l-1.51-.35m27.21,5.59l-25.55-5.9m25.4,6.56l-25.55-5.9m.3-1.31l25.55,5.9m-27.36-4.94l-.75-.17m0,0l.15-.66m0,0l-.75-.17m0,0l.15-.65m0,0l1.51,.34m-22.55-5.2l2.36,.54m0,0l-.15,.66m0,0l-.59-.14m0,0l-.15,.65m0,0l-1.77-.4m2.66-.77l18.68,4.32m-1.95,1.61l-15.03-3.47m17.28,3.99l-2.25-.52m0,0l.3-1.31m0,0l2.25,.52m0,0l-.3,1.31m-19.72-5.93l1.77,.41m0,0l-.3,1.31m0,0l-1.77-.41m0,0l.3-1.31m1.77,.41l16,3.69m-.3,1.31l-16-3.69m16.15,3.04l-16-3.7" fill="none" stroke="#000" stroke-linecap="round" stroke-linejoin="round" stroke-width=".25"/><path d="M387.68,164.19l-.3,1.31m.3-1.31l-.3,1.31m1.21-5.23l-.91,3.92m-.3,1.31l-2.48,10.73m-49.82-24.18l-.3,1.31m.3-1.31l-.3,1.31m1.21-5.24l-.91,3.93m-.3,1.31l-2.48,10.73m56.29-3.82l-3.69,15.96" fill="none" stroke="#000" stroke-linecap="round" stroke-linejoin="round" stroke-width=".22"/><path d="M315.52,160.21l-11.51-2.65,3.69-15.97,28.29,6.53-3.69,15.97-11.5-2.66-5.28-1.22Z" fill="#2d2d2c" fill-rule="evenodd"/><path d="M384.9,176.23l3.69-15.97,32.63,7.53-3.69,15.97-32.63-7.53Z" fill="#2d2d2c"/><path d="M521.88,152.94l-2.67,10.69m3.97-15.9l-.98,3.91m0,0l-.32,1.3m52.38,13.06l-2.67,10.69m3.97-15.9l-.98,3.91m0,0l-.32,1.3" fill="none" stroke="#000" stroke-linecap="round" stroke-linejoin="round" stroke-width=".22"/><path d="M575.56,160.79l-52.38-13.06m48.41,28.96l-52.38-13.06m55.05,2.37l-2.99-.74m0,0l.32-1.31m0,0l2.99,.75m-29.93-7.46l1.5,.37m0,0l-.33,1.3m0,0l-1.49-.37m27.1,6.06l-25.45-6.34m25.29,7l-25.45-6.35m.33-1.3l25.44,6.34m-27.26-5.41l-.75-.19m0,0l.16-.65m0,0l-.75-.19m0,0l.16-.65m0,0l1.5,.38m-22.45-5.6l2.35,.58m0,0l-.16,.66m0,0l-.59-.15m0,0l-.16,.65m0,0l-1.76-.44m2.67-.72l18.6,4.64m-1.98,1.58l-14.97-3.73m17.21,4.29l-2.24-.56m0,0l.32-1.3m0,0l2.25,.56m0,0l-.33,1.3m-19.61-6.27l1.76,.44m0,0l-.32,1.3m0,0l-1.76-.44m0,0l.32-1.3m1.76,.44l15.93,3.97m-.32,1.3l-15.93-3.97m16.09,3.32l-15.93-3.97" fill="none" stroke="#000" stroke-linecap="round" stroke-linejoin="round" stroke-width=".25"/><path d="M574.58,164.7l-.32,1.3m.32-1.3l-.32,1.3m1.3-5.21l-.98,3.91m-.32,1.3l-2.67,10.69m-49.39-25.05l-.32,1.3m.32-1.3l-.32,1.3m1.3-5.21l-.98,3.91m-.32,1.3l-2.67,10.69m56.35-2.84l-3.97,15.9" fill="none" stroke="#000" stroke-linecap="round" stroke-linejoin="round" stroke-width=".22"/><path d="M507.34,160.67l-8.14-2.03,3.97-15.9,20.01,4.99-3.97,15.9-8.14-2.03-3.73-.93h0Z" fill="#2d2d2c" fill-rule="evenodd"/><path d="M571.58,176.69l3.97-15.9,26.21,6.53-3.97,15.9-26.21-6.53Z" fill="#2d2d2c"/><path d="M707.47,152.94l-2.66,10.69m3.96-15.9l-.97,3.91m0,0l-.33,1.3m52.39,13.06l-2.67,10.69m3.97-15.9l-.98,3.91m0,0l-.32,1.3" fill="none" stroke="#000" stroke-linecap="round" stroke-linejoin="round" stroke-width=".22"/><path d="M761.16,160.79l-52.39-13.06m48.42,28.96l-52.38-13.06m55.05,2.37l-3-.74m0,0l.33-1.31m0,0l2.99,.75m-29.93-7.46l1.5,.37m0,0l-.33,1.3m0,0l-1.5-.37m27.11,6.06l-25.45-6.34m25.28,7l-25.44-6.35m.33-1.3l25.44,6.34m-27.27-5.41l-.74-.19m0,0l.16-.65m0,0l-.75-.19m0,0l.16-.65m0,0l1.5,.38m-22.45-5.6l2.35,.58m0,0l-.16,.66m0,0l-.59-.15m0,0l-.16,.65m0,0l-1.77-.44m2.68-.72l18.6,4.64m-1.98,1.58l-14.97-3.73m17.21,4.29l-2.24-.56m0,0l.32-1.3m0,0l2.25,.56m0,0l-.33,1.3m-19.61-6.27l1.76,.44m0,0l-.32,1.3m0,0l-1.77-.44m0,0l.33-1.3m1.76,.44l15.93,3.97m-.32,1.3l-15.93-3.97m16.09,3.32l-15.93-3.97" fill="none" stroke="#000" stroke-linecap="round" stroke-linejoin="round" stroke-width=".25"/><path d="M760.18,164.7l-.32,1.3m.32-1.3l-.32,1.3m1.3-5.21l-.98,3.91m-.32,1.3l-2.67,10.69m-49.39-25.05l-.33,1.3m.33-1.3l-.33,1.3m1.3-5.21l-.97,3.91m-.33,1.3l-2.66,10.69m56.35-2.84l-3.97,15.9" fill="none" stroke="#000" stroke-linecap="round" stroke-linejoin="round" stroke-width=".22"/><path d="M692.42,160.54l-8.49-2.12,3.96-15.9,20.88,5.21-3.96,15.9-8.49-2.12-3.9-.97h0Z" fill="#2d2d2c" fill-rule="evenodd"/><path d="M757.17,176.68l3.97-15.9,26.21,6.53-3.97,15.9-26.21-6.53Z" fill="#2d2d2c"/><path d="M891.15,152.94l-2.66,10.69m3.96-15.9l-.97,3.91m0,0l-.33,1.3m52.38,13.06l-2.66,10.69m3.96-15.9l-.97,3.91m0,0l-.33,1.3" fill="none" stroke="#000" stroke-linecap="round" stroke-linejoin="round" stroke-width=".22"/><path d="M944.83,160.79l-52.38-13.06m48.42,28.96l-52.38-13.06m55.04,2.37l-2.99-.74m0,0l.33-1.31m0,0l2.99,.75m-29.93-7.46l1.49,.37m0,0l-.32,1.3m0,0l-1.5-.37m27.1,6.06l-25.44-6.34m25.28,7l-25.44-6.35m.32-1.3l25.44,6.34m-27.26-5.41l-.75-.19m0,0l.17-.65m0,0l-.75-.19m0,0l.16-.65m0,0l1.5,.38m-22.45-5.6l2.34,.58m0,0l-.16,.66m0,0l-.58-.15m0,0l-.17,.65m0,0l-1.76-.44m2.67-.72l18.61,4.64m-1.98,1.58l-14.97-3.73m17.21,4.29l-2.25-.56m.01,0l.32-1.3m0,0l2.25,.56m0,0l-.33,1.3m-19.61-6.27l1.76,.44m0,0l-.33,1.3m0,0l-1.76-.44m0,0l.33-1.3m1.76,.44l15.93,3.97m-.32,1.3l-15.94-3.97m16.1,3.32l-15.94-3.97" fill="none" stroke="#000" stroke-linecap="round" stroke-linejoin="round" stroke-width=".25"/><path d="M943.86,164.7l-.33,1.3m.33-1.3l-.33,1.3m1.3-5.21l-.97,3.91m-.33,1.3l-2.66,10.69m-49.39-25.05l-.33,1.3m.33-1.3l-.33,1.3m1.3-5.21l-.97,3.91m-.33,1.3l-2.66,10.69m56.34-2.84l-3.96,15.9" fill="none" stroke="#000" stroke-linecap="round" stroke-linejoin="round" stroke-width=".22"/><path d="M876.65,160.68l-8.12-2.03,3.97-15.9,19.95,4.98-3.96,15.9-8.12-2.02-3.72-.93Z" fill="#2d2d2c" fill-rule="evenodd"/><path d="M940.85,176.68l3.97-15.9,26.21,6.53-3.97,15.9-26.21-6.53Z" fill="#2d2d2c"/><path d="M1077.02,152.94l-2.67,10.69m3.97-15.9l-.98,3.91m0,0l-.32,1.3m52.38,13.06l-2.66,10.69m3.96-15.9l-.97,3.91m0,0l-.33,1.3" fill="none" stroke="#000" stroke-linecap="round" stroke-linejoin="round" stroke-width=".22"/><path d="M1130.7,160.79l-52.38-13.06m48.42,28.96l-52.39-13.06m55.05,2.37l-2.99-.74m0,0l.32-1.31m0,0l3,.75m-29.94-7.46l1.5,.37m0,0l-.33,1.3m0,0l-1.49-.37m27.1,6.06l-25.44-6.34m25.28,7l-25.45-6.35m.33-1.3l25.44,6.34m-27.26-5.41l-.75-.19m0,0l.16-.65m0,0l-.75-.19m0,0l.17-.65m0,0l1.49,.38m-22.45-5.6l2.35,.58m0,0l-.16,.66m0,0l-.59-.15m0,0l-.16,.65m0,0l-1.76-.44m2.67-.72l18.61,4.64m-1.99,1.58l-14.96-3.73m17.21,4.29l-2.25-.56m0,0l.33-1.3m0,0l2.24,.56m0,0l-.32,1.3m-19.62-6.27l1.76,.44m0,0l-.32,1.3m0,0l-1.76-.44m0,0l.32-1.3m1.76,.44l15.94,3.97m-.33,1.3l-15.93-3.97m16.09,3.32l-15.93-3.97" fill="none" stroke="#000" stroke-linecap="round" stroke-linejoin="round" stroke-width=".25"/><path d="M1129.73,164.7l-.33,1.3m.33-1.3l-.33,1.3m1.3-5.21l-.97,3.91m-.33,1.3l-2.66,10.69m-49.4-25.05l-.32,1.3m.32-1.3l-.32,1.3m1.3-5.21l-.98,3.91m-.32,1.3l-2.67,10.69m56.35-2.84l-3.96,15.9" fill="none" stroke="#000" stroke-linecap="round" stroke-linejoin="round" stroke-width=".22"/><path d="M1062.23,160.61l-8.31-2.08,3.97-15.9,20.43,5.1-3.97,15.9-8.31-2.07-3.81-.95h0Z" fill="#2d2d2c" fill-rule="evenodd"/><path d="M1126.71,176.68l3.96-15.9,26.21,6.53-3.97,15.9-26.21-6.54Z" fill="#2d2d2c"/><path d="M229.34,146.96v11.02m0-16.39v4.03m0,0v1.34m53.99,0v11.02m0-16.39v4.03m0,0v1.34" fill="none" stroke="#000" stroke-linecap="round" stroke-linejoin="round" stroke-width=".22"/><path d="M283.33,141.59h-53.99m53.98,16.39h-53.98m53.99-11.02h-3.09m0,0v-1.34m0,0h3.09m-30.85,0h1.54m0,0v1.34m0,0h-1.54m27.76-.67h-26.22m26.22,.67h-26.22m0-1.34h26.22m-27.76,1.34h-.78m0,0v-.67m0,0h-.77m0,0v-.67m0,0h1.55m-23.14,0h2.42m0,0v.67m0,0h-.61m0,0v.67m0,0h-1.81m2.42-1.34h19.17m-1.54,2.01h-15.42m17.73,0h-2.31m0,0v-1.34m0,0h2.31m0,0v1.34m-20.55-1.34h1.82m0,0v1.34m0,0h-1.82m0,0v-1.34m1.82,0h16.42m0,1.34h-16.42m16.42-.67h-16.42" fill="none" stroke="#000" stroke-linecap="round" stroke-linejoin="round" stroke-width=".25"/><path d="M283.33,145.62v1.34m0-1.34v1.34m0-5.37v4.03m0,1.34v11.02m-53.99-12.36v1.34m0-1.34v1.34m0-5.37v4.03m0,1.34v11.02m53.99-16.39v16.39" fill="none" stroke="#000" stroke-linecap="round" stroke-linejoin="round" stroke-width=".22"/><path d="M212.47,157.98h-11.56v-16.39h28.43v16.39h-16.87Z" fill="#2d2d2c" fill-rule="evenodd"/><path d="M283.32,141.59h24.38v16.39h-24.38v-16.39Z" fill="#2d2d2c"/><path d="M1273.52,146.96v11.02m0-16.39v4.03m0,0v1.34m53.99,0v11.02m0-16.39v4.03m0,0v1.34" fill="none" stroke="#000" stroke-linecap="round" stroke-linejoin="round" stroke-width=".22"/><path d="M1327.51,141.59h-53.99m53.99,16.39h-53.99m53.99-11.02h-3.08m0,0v-1.34m0,0h3.08m-30.85,0h1.54m0,0v1.34m0,0h-1.54m27.77-.67h-26.23m26.23,.67h-26.23m0-1.34h26.23m-27.77,1.34h-.77m0,0v-.67m0,0h-.77m0,0v-.67m0,0h1.54m-23.14,0h2.42m0,0v.67m0,0h-.6m0,0v.67m0,0h-1.82m2.42-1.34h19.18m-1.54,2.01h-15.43m17.74,0h-2.31m0,0v-1.34m0,0h2.31m0,0v1.34m-20.55-1.34h1.82m0,0v1.34m0,0h-1.82m0,0v-1.34m1.82,0h16.42m0,1.34h-16.42m16.42-.67h-16.42" fill="none" stroke="#000" stroke-linecap="round" stroke-linejoin="round" stroke-width=".25"/><path d="M1327.51,145.62v1.34m0-1.34v1.34m0-5.37v4.03m0,1.34v11.02m-53.99-12.36v1.34m0-1.34v1.34m0-5.37v4.03m0,1.34v11.02m53.99-16.39v16.39" fill="none" stroke="#000" stroke-linecap="round" stroke-linejoin="round" stroke-width=".22"/><path d="M1259.46,157.98h-9.63v-16.39h23.69v16.39h-14.06Z" fill="#2d2d2c" fill-rule="evenodd"/><path d="M1327.51,141.59h30.1v16.39h-30.1v-16.39Z" fill="#2d2d2c"/><path d="M433.7,165.6l2.67,10.68m-3.97-15.9l.98,3.91m0,0l.32,1.31m52.38-13.06l2.67,10.68m-3.97-15.9l.98,3.91m0,0l.32,1.31" fill="none" stroke="#000" stroke-linecap="round" stroke-linejoin="round" stroke-width=".22"/><path d="M484.78,147.32l-52.38,13.06m56.35,2.84l-52.38,13.06m49.71-23.74l-2.99,.74m0,0l-.32-1.3m0,0l2.99-.75m-29.93,7.46l1.49-.37m0,0l.33,1.3m0,0l-1.5,.38m26.78-7.37l-25.45,6.34m25.61-5.69l-25.44,6.34m-.33-1.3l25.45-6.34m-26.62,8.02l-.75,.18m0,0l-.16-.65m0,0l-.75,.19m0,0l-.16-.65m0,0l1.5-.38m-22.45,5.6l2.34-.58m0,0l.17,.65m0,0l-.59,.14m0,0l.16,.66m0,0l-1.76,.44m2.02-1.89l18.61-4.64m-1.01,2.33l-14.97,3.73m17.21-4.29l-2.24,.56m0,0l-.32-1.31m-.01,0l2.25-.56m0,0l.32,1.31m-20.26,3.66l1.76-.44m0,0l.33,1.31m0,0l-1.77,.44m0,0l-.33-1.31m1.76-.44l15.93-3.97m.33,1.31l-15.93,3.97m15.77-4.63l-15.94,3.98" fill="none" stroke="#000" stroke-linecap="round" stroke-linejoin="round" stroke-width=".25"/><path d="M485.76,151.23l.32,1.31m-.32-1.31l.32,1.31m-1.3-5.22l.98,3.91m.32,1.31l2.67,10.68m-55.37,1.07l.32,1.31m-.32-1.31l.32,1.31m-1.3-5.22l.98,3.91m.32,1.31l2.67,10.68m48.41-28.96l3.97,15.9" fill="none" stroke="#000" stroke-linecap="round" stroke-linejoin="round" stroke-width=".22"/><path d="M423.86,179.4l-8.57,2.14-3.96-15.9,21.07-5.26,3.96,15.9-8.57,2.14-3.93,.98Z" fill="#2d2d2c" fill-rule="evenodd"/><path d="M484.78,147.32l18.38-4.58,3.96,15.9-18.38,4.58-3.96-15.9Z" fill="#2d2d2c"/><path d="M617.56,165.6l2.66,10.68m-3.96-15.9l.97,3.91m0,0l.33,1.31m52.38-13.06l2.67,10.68m-3.97-15.9l.98,3.91m0,0l.32,1.31" fill="none" stroke="#000" stroke-linecap="round" stroke-linejoin="round" stroke-width=".22"/><path d="M668.64,147.32l-52.38,13.06m56.35,2.84l-52.39,13.06m49.72-23.74l-2.99,.74m0,0l-.33-1.3m0,0l3-.75m-29.94,7.46l1.5-.37m0,0l.32,1.3m0,0l-1.49,.38m26.78-7.37l-25.45,6.34m25.61-5.69l-25.44,6.34m-.33-1.3l25.44-6.34m-26.61,8.02l-.75,.18m0,0l-.16-.65m0,0l-.75,.19m0,0l-.16-.65m0,0l1.49-.38m-22.45,5.6l2.35-.58m0,0l.16,.65m0,0l-.58,.14m0,0l.16,.66m0,0l-1.76,.44m2.02-1.89l18.61-4.64m-1.01,2.33l-14.97,3.73m17.21-4.29l-2.24,.56m0,0l-.33-1.31m0,0l2.25-.56m0,0l.32,1.31m-20.26,3.66l1.76-.44m0,0l.32,1.31m0,0l-1.76,.44m0,0l-.32-1.31m1.76-.44l15.93-3.97m.33,1.31l-15.94,3.97m15.78-4.63l-15.94,3.98" fill="none" stroke="#000" stroke-linecap="round" stroke-linejoin="round" stroke-width=".25"/><path d="M669.62,151.23l.32,1.31m-.32-1.31l.32,1.31m-1.3-5.22l.98,3.91m.32,1.31l2.67,10.68m-55.38,1.07l.33,1.31m-.33-1.31l.33,1.31m-1.3-5.22l.97,3.91m.33,1.31l2.66,10.68m48.42-28.96l3.97,15.9" fill="none" stroke="#000" stroke-linecap="round" stroke-linejoin="round" stroke-width=".22"/><path d="M606.89,179.61l-9.13,2.27-3.97-15.9,22.47-5.6,3.96,15.9-9.13,2.28-4.2,1.05Z" fill="#2d2d2c" fill-rule="evenodd"/><path d="M668.64,147.32l19.25-4.8,3.97,15.9-19.25,4.8-3.97-15.9Z" fill="#2d2d2c"/><path d="M803.09,165.6l2.67,10.68m-3.97-15.9l.98,3.91m0,0l.32,1.31m52.38-13.06l2.67,10.68m-3.97-15.9l.98,3.91m0,0l.32,1.31" fill="none" stroke="#000" stroke-linecap="round" stroke-linejoin="round" stroke-width=".22"/><path d="M854.17,147.32l-52.38,13.06m56.35,2.84l-52.38,13.06m49.71-23.74l-2.99,.74m0,0l-.32-1.3m0,0l2.99-.75m-29.93,7.46l1.49-.37m0,0l.33,1.3m0,0l-1.5,.38m26.78-7.37l-25.44,6.34m25.6-5.69l-25.44,6.34m-.33-1.3l25.45-6.34m-26.62,8.02l-.75,.18m0,0l-.16-.65m0,0l-.75,.19m0,0l-.16-.65m0,0l1.5-.38m-22.45,5.6l2.34-.58m0,0l.16,.65m0,0l-.59,.14m0,0l.16,.66m0,0l-1.76,.44m2.02-1.89l18.61-4.64m-1.01,2.33l-14.97,3.73m17.22-4.29l-2.25,.56m0,0l-.32-1.31m0,0l2.24-.56m0,0l.33,1.31m-20.27,3.66l1.76-.44m0,0l.33,1.31m0,0l-1.76,.44m0,0l-.33-1.31m1.76-.44l15.94-3.97m.32,1.31l-15.93,3.97m15.77-4.63l-15.94,3.98" fill="none" stroke="#000" stroke-linecap="round" stroke-linejoin="round" stroke-width=".25"/><path d="M855.15,151.23l.32,1.31m-.32-1.31l.32,1.31m-1.3-5.22l.98,3.91m.32,1.31l2.67,10.68m-55.37,1.07l.32,1.31m-.32-1.31l.32,1.31m-1.3-5.22l.98,3.91m.32,1.31l2.67,10.68m48.41-28.96l3.97,15.9" fill="none" stroke="#000" stroke-linecap="round" stroke-linejoin="round" stroke-width=".22"/><path d="M792.42,179.61l-9.13,2.27-3.97-15.9,22.47-5.6,3.97,15.9-9.14,2.28-4.2,1.05h0Z" fill="#2d2d2c" fill-rule="evenodd"/><path d="M854.17,147.3l18.32-4.57,3.97,15.9-18.32,4.57-3.96-15.9Z" fill="#2d2d2c"/><path d="M988.01,165.6l2.66,10.68m-3.96-15.9l.97,3.91m0,0l.33,1.31m52.38-13.06l2.66,10.68m-3.96-15.9l.97,3.91m0,0l.33,1.31" fill="none" stroke="#000" stroke-linecap="round" stroke-linejoin="round" stroke-width=".22"/><path d="M1039.09,147.32l-52.38,13.06m56.34,2.84l-52.38,13.06m49.72-23.74l-3,.74m0,0l-.32-1.3m0,0l2.99-.75m-29.93,7.46l1.5-.37m0,0l.32,1.3m0,0l-1.49,.38m26.77-7.37l-25.44,6.34m25.6-5.69l-25.44,6.34m-.32-1.3l25.44-6.34m-26.61,8.02l-.75,.18m0,0l-.17-.65m0,0l-.74,.19m0,0l-.17-.65m0,0l1.5-.38m-22.45,5.6l2.35-.58m0,0l.16,.65m0,0l-.58,.14m-.01,0l.17,.66m0,0l-1.76,.44m2.02-1.89l18.6-4.64m-1.01,2.33l-14.96,3.73m17.21-4.29l-2.25,.56m0,0l-.32-1.31m0,0l2.24-.56m0,0l.33,1.31m-20.27,3.66l1.77-.44m0,0l.32,1.31m0,0l-1.76,.44m0,0l-.33-1.31m1.77-.44l15.93-3.97m.32,1.31l-15.93,3.97m15.77-4.63l-15.93,3.98" fill="none" stroke="#000" stroke-linecap="round" stroke-linejoin="round" stroke-width=".25"/><path d="M1040.06,151.23l.33,1.31m-.33-1.31l.33,1.31m-1.3-5.22l.97,3.91m.33,1.31l2.66,10.68m-55.37,1.07l.33,1.31m-.33-1.31l.33,1.31m-1.3-5.22l.97,3.91m.33,1.31l2.66,10.68m48.42-28.96l3.96,15.9" fill="none" stroke="#000" stroke-linecap="round" stroke-linejoin="round" stroke-width=".22"/><path d="M977.34,179.61l-9.14,2.27-3.96-15.9,22.47-5.6,3.96,15.9-9.14,2.28-4.19,1.05h0Z" fill="#2d2d2c" fill-rule="evenodd"/><path d="M1039.09,147.3l18.8-4.69,3.96,15.9-18.8,4.69-3.96-15.9Z" fill="#2d2d2c"/><path d="M1175.76,165.6l2.66,10.68m-3.96-15.9l.97,3.91m0,0l.33,1.31m52.38-13.06l2.66,10.68m-3.96-15.9l.97,3.91m0,0l.33,1.31" fill="none" stroke="#000" stroke-linecap="round" stroke-linejoin="round" stroke-width=".22"/><path d="M1226.84,147.32l-52.38,13.06m56.34,2.84l-52.38,13.06m49.72-23.74l-3,.74m0,0l-.32-1.3m0,0l2.99-.75m-29.93,7.46l1.5-.37m0,0l.32,1.3m0,0l-1.49,.38m26.77-7.37l-25.44,6.34m25.6-5.69l-25.44,6.34m-.32-1.3l25.44-6.34m-26.61,8.02l-.75,.18m0,0l-.17-.65m0,0l-.74,.19m0,0l-.17-.65m0,0l1.5-.38m-22.45,5.6l2.35-.58m0,0l.16,.65m0,0l-.58,.14m-.01,0l.17,.66m0,0l-1.76,.44m2.02-1.89l18.6-4.64m-1.01,2.33l-14.96,3.73m17.21-4.29l-2.25,.56m0,0l-.32-1.31m0,0l2.24-.56m0,0l.33,1.31m-20.27,3.66l1.77-.44m0,0l.32,1.31m0,0l-1.76,.44m0,0l-.33-1.31m1.77-.44l15.93-3.97m.32,1.31l-15.93,3.97m15.77-4.63l-15.93,3.98" fill="none" stroke="#000" stroke-linecap="round" stroke-linejoin="round" stroke-width=".25"/><path d="M1227.81,151.23l.33,1.31m-.33-1.31l.33,1.31m-1.3-5.22l.97,3.91m.33,1.31l2.66,10.68m-55.37,1.07l.33,1.31m-.33-1.31l.33,1.31m-1.3-5.22l.97,3.91m.33,1.31l2.66,10.68m48.42-28.96l3.96,15.9" fill="none" stroke="#000" stroke-linecap="round" stroke-linejoin="round" stroke-width=".22"/><path d="M1163.07,180.11l-10.51,2.62-3.97-15.9,25.87-6.45,3.96,15.9-10.52,2.62-4.83,1.21Z" fill="#2d2d2c" fill-rule="evenodd"/><path d="M1226.84,147.3l22.99-5.73,3.96,15.9-22.99,5.73-3.96-15.9Z" fill="#2d2d2c"/><path d="M157.4,205.06h11.01m-16.38,0h4.03m0,0h1.34m0-37.55h11.01m-16.38,0h4.03m0,0h1.34" fill="none" stroke="#000" stroke-linecap="round" stroke-linejoin="round" stroke-width=".22"/><path d="M152.03,167.51v37.55m16.38-37.55v37.55m-11.01-37.55v2.43m0,0h-1.34m0,0v-2.43m0,19.39v-1.21m0,0h1.34m0,0v1.21m-.67-16.96v15.75m.67-15.75v15.75m-1.34,0v-15.75m1.34,16.96v.61m0,0h-.67m0,0v.61m0,0h-.67m0,0v-1.22m0,18.16v-2.42m0,0h.67m0,0v.6m0,0h.67m0,0v1.81m-1.34-2.42v-14.53m2.01,1.22v12.1m0-13.92v1.82m0,0h-1.34m0,0v-1.82m0,0h1.34m-1.34,15.74v-1.82m0,0h1.34m0,0v1.82m0,0h-1.34m0-1.82v-12.1m1.34,0v12.1m-.67-12.1v12.1" fill="none" stroke="#000" stroke-linecap="round" stroke-linejoin="round" stroke-width=".25"/><path d="M156.06,167.51h1.34m-1.34,0h1.34m-5.37,0h4.03m1.34,0h11.01m-12.35,37.55h1.34m-1.34,0h1.34m-5.37,0h4.03m1.34,0h11.01m-16.38-37.55h16.38" fill="none" stroke="#000" stroke-linecap="round" stroke-linejoin="round" stroke-width=".22"/><path d="M168.41,223.1v12.37h-16.38v-30.41h16.38v18.04Z" fill="#2d2d2c" fill-rule="evenodd"/><path d="M152.03,141.59h16.39v25.93h-16.39v-25.93Z" fill="#2d2d2c"/><path d="M173.3,395.42l10.81-2.1m-16.08,3.13l3.95-.77m0,0l1.32-.26m-9.88-50.84l10.81-2.1m-16.09,3.13l3.96-.77m0,0l1.32-.26" fill="none" stroke="#000" stroke-linecap="round" stroke-linejoin="round" stroke-width=".22"/><path d="M158.14,345.61l9.89,50.84m6.2-53.97l9.88,50.84m-20.69-48.74l.46,2.38m0,0l-1.32,.25m0,0l-.46-2.37m4.62,23.76l-.23-1.19m0,0l1.32-.25m0,0l.23,1.19m-4.82-21.26l3.93,20.2m-3.27-20.33l3.93,20.2m-1.32,.25l-3.93-20.2m5.48,21.14l.11,.59m0,0l-.66,.13m0,0l.12,.59m0,0l-.66,.13m0,0l-.23-1.19m5.26,27.08l-.56-2.9m0,0l.66-.13m0,0l.14,.72m0,0l.66-.12m0,0l.42,2.17m-1.88-2.64l-4.47-22.99m3.34,6.62l2.82,14.53m-4.3-22.13l.35,1.78m0,0l-1.32,.26m0,0l-.35-1.78m0,0l1.32-.26m3.41,24.56l-.42-2.18m0,0l1.31-.25m0,0l.43,2.18m0,0l-1.32,.25m-.42-2.18l-3.96-20.34m1.32-.26l3.95,20.35m-4.64-20.22l3.98,20.35" fill="none" stroke="#000" stroke-linecap="round" stroke-linejoin="round" stroke-width=".25"/><path d="M162.1,344.84l1.32-.26m-1.32,.26l1.32-.26m-5.28,1.03l3.96-.77m1.32-.26l10.81-2.1m-2.25,53.2l1.32-.26m-1.32,.26l1.32-.26m-5.27,1.03l3.95-.77m1.32-.26l10.81-2.1m-25.97-47.71l16.09-3.13" fill="none" stroke="#000" stroke-linecap="round" stroke-linejoin="round" stroke-width=".22"/><path d="M184.44,395.01l.23,1.16-16.09,3.13-.55-2.85,16.08-3.13,.23,1.16,.1,.53Z" fill="#2d2d2c" fill-rule="evenodd"/><path d="M156.7,338.14l16.09-3.13,1.45,7.47-16.09,3.13-1.45-7.47Z" fill="#2d2d2c"/><path d="M173.32,506.1l10.9-1.53m-16.22,2.28l3.99-.56m0,0l1.33-.19m-8.61-60.87l10.91-1.54m-16.23,2.28l3.99-.56m0,0l1.33-.18" fill="none" stroke="#000" stroke-linecap="round" stroke-linejoin="round" stroke-width=".22"/><path d="M159.39,445.97l8.61,60.88m7.62-63.16l8.6,60.88m-19.51-59.34l.34,2.39m0,0l-1.33,.19m0,0l-.34-2.4m3.37,23.98l-.17-1.2m0,0l1.33-.19m0,0l.17,1.2m-3.7-21.48l2.87,20.37m-2.2-20.47l2.86,20.38m-1.33,.19l-2.86-20.38m4.36,21.39l.08,.6m0,0l-.66,.09m0,0l.08,.6m0,0l-.66,.09m0,0l-.17-1.19m5.24,36.9l-.41-2.93m0,0l.67-.1m0,0l.1,.74m0,0l.67-.1m0,0l.31,2.2m-1.75-2.74l-4.65-32.78m2.99,6.79l3.45,24.24m-4.53-31.9l.25,1.79m0,0l-1.33,.19m0,0l-.25-1.8m0,0l1.33-.18m3.51,34.29l-.31-2.2m0,0l1.33-.19m0,0l.31,2.2m0,0l-1.33,.19m-.31-2.2l-4.28-30.11m1.33-.19l4.28,30.11m-4.97-30.01l4.31,30.1" fill="none" stroke="#000" stroke-linecap="round" stroke-linejoin="round" stroke-width=".25"/><path d="M163.38,445.41l1.33-.18m-1.33,.18l1.33-.18m-5.32,.74l3.99-.56m1.33-.18l10.91-1.54m-3.63,62.6l1.33-.19m-1.33,.19l1.33-.19m-5.32,.75l3.99-.56m1.33-.19l10.9-1.53m-24.83-58.6l16.23-2.28" fill="none" stroke="#000" stroke-linecap="round" stroke-linejoin="round" stroke-width=".22"/><path d="M184.49,506.44l.18,1.29-16.23,2.28-.44-3.16,16.22-2.28,.18,1.28,.09,.59h0Z" fill="#2d2d2c" fill-rule="evenodd"/><path d="M156.69,426.79l16.23-2.28,2.7,19.19-16.23,2.28-2.7-19.19Z" fill="#2d2d2c"/><path d="M173.28,616.58l10.91-1.54m-16.23,2.28l3.99-.56m0,0l1.33-.18m-8.6-60.88l10.9-1.53m-16.22,2.28l3.99-.56m0,0l1.33-.19" fill="none" stroke="#000" stroke-linecap="round" stroke-linejoin="round" stroke-width=".22"/><path d="M159.36,556.45l8.6,60.87m7.63-63.15l8.6,60.87m-19.51-59.34l.33,2.4m0,0l-1.32,.19m0,0l-.34-2.4m3.37,23.97l-.17-1.2m0,0l1.33-.18m0,0l.17,1.19m-3.7-21.48l2.86,20.38m-2.2-20.47l2.87,20.38m-1.33,.18l-2.87-20.37m4.37,21.38l.08,.6m0,0l-.66,.1m0,0l.08,.6m0,0l-.66,.09m0,0l-.17-1.2m5.23,36.9l-.41-2.93m0,0l.67-.09m0,0l.1,.73m0,0l.67-.09m0,0l.3,2.2m-1.74-2.75l-4.65-32.77m2.98,6.79l3.46,24.24m-4.53-31.91l.25,1.8m0,0l-1.33,.19m0,0l-.25-1.8m0,0l1.33-.19m3.51,34.29l-.31-2.2m0,0l1.33-.18m0,0l.31,2.2m0,0l-1.33,.18m-.31-2.2l-4.28-30.1m1.33-.19l4.28,30.11m-4.97-30.02l4.31,30.11" fill="none" stroke="#000" stroke-linecap="round" stroke-linejoin="round" stroke-width=".25"/><path d="M163.35,555.89l1.33-.19m-1.33,.19l1.33-.19m-5.32,.75l3.99-.56m1.33-.19l10.9-1.53m-3.63,62.59l1.33-.18m-1.33,.18l1.33-.18m-5.32,.74l3.99-.56m1.33-.18l10.91-1.54m-24.83-58.59l16.23-2.28" fill="none" stroke="#000" stroke-linecap="round" stroke-linejoin="round" stroke-width=".22"/><path d="M184.47,617.02l.19,1.35-16.23,2.28-.47-3.33,16.23-2.28,.19,1.36,.09,.62h0Z" fill="#2d2d2c" fill-rule="evenodd"/><path d="M156.69,537.49l16.23-2.28,2.66,18.95-16.23,2.28-2.66-18.95Z" fill="#2d2d2c"/><path d="M173.25,709.89l10.85-1.91m-16.14,2.84l3.97-.7m0,0l1.32-.23m-9.14-51.57l10.85-1.91m-16.14,2.84l3.97-.7m0,0l1.32-.23" fill="none" stroke="#000" stroke-linecap="round" stroke-linejoin="round" stroke-width=".22"/><path d="M158.82,659.25l9.14,51.57m7-54.41l9.14,51.57m-19.99-49.66l.42,2.38m0,0l-1.32,.24m0,0l-.42-2.39m4.2,23.84l-.21-1.19m0,0l1.32-.23m0,0l.21,1.19m-4.44-21.34l3.57,20.27m-2.91-20.39l3.57,20.27m-1.32,.23l-3.57-20.26m5.1,21.22l.11,.6m0,0l-.66,.11m0,0l.1,.6m0,0l-.66,.12m0,0l-.21-1.2m4.94,27.73l-.44-2.48m0,0l.66-.11m0,0l.11,.62m0,0l.67-.12m0,0l.32,1.86m-1.76-2.25l-4.94-27.76m3.04,5.64l3.67,20.53m-4.18-23.41l.32,1.79m0,0l-1.33,.23m0,0l-.31-1.79m0,0l1.32-.23m3.18,25.51l-.32-1.87m0,0l1.32-.23m0,0l.33,1.86m0,0l-1.33,.24m-.32-1.87l-3.87-21.62m1.33-.23l3.86,21.62m-4.54-21.51l3.88,21.63" fill="none" stroke="#000" stroke-linecap="round" stroke-linejoin="round" stroke-width=".25"/><path d="M162.79,658.55l1.32-.23m-1.32,.23l1.32-.23m-5.29,.93l3.97-.7m1.32-.23l10.85-1.91m-3.03,53.71l1.32-.23m-1.32,.23l1.32-.23m-5.29,.93l3.97-.7m1.32-.23l10.85-1.91m-25.28-48.73l16.14-2.84" fill="none" stroke="#000" stroke-linecap="round" stroke-linejoin="round" stroke-width=".22"/><path d="M184.43,709.84l.22,1.27-16.13,2.85-.56-3.14,16.14-2.84,.23,1.27,.1,.59Z" fill="#2d2d2c" fill-rule="evenodd"/><path d="M156.69,647.2l16.14-2.85,2.13,12.05-16.14,2.85-2.13-12.05Z" fill="#2d2d2c"/><path d="M173.25,803.39l10.85-1.91m-16.14,2.84l3.97-.7m0,0l1.32-.23m-9.14-51.57l10.85-1.91m-16.14,2.84l3.97-.7m0,0l1.32-.23" fill="none" stroke="#000" stroke-linecap="round" stroke-linejoin="round" stroke-width=".22"/><path d="M158.82,752.75l9.14,51.57m7-54.41l9.14,51.57m-19.99-49.66l.42,2.38m0,0l-1.32,.24m0,0l-.42-2.39m4.2,23.84l-.21-1.19m0,0l1.32-.23m0,0l.21,1.19m-4.44-21.34l3.57,20.27m-2.91-20.39l3.57,20.27m-1.32,.23l-3.57-20.26m5.1,21.22l.11,.6m0,0l-.66,.11m0,0l.1,.6m0,0l-.66,.12m0,0l-.21-1.2m4.94,27.73l-.44-2.48m0,0l.66-.11m0,0l.11,.62m0,0l.67-.12m0,0l.32,1.86m-1.76-2.25l-4.94-27.76m3.04,5.64l3.67,20.53m-4.18-23.41l.32,1.79m0,0l-1.33,.23m0,0l-.31-1.79m0,0l1.32-.23m3.18,25.51l-.32-1.87m0,0l1.32-.23m0,0l.33,1.86m0,0l-1.33,.24m-.32-1.87l-3.87-21.62m1.33-.23l3.86,21.62m-4.54-21.51l3.88,21.63" fill="none" stroke="#000" stroke-linecap="round" stroke-linejoin="round" stroke-width=".25"/><path d="M162.79,752.05l1.32-.23m-1.32,.23l1.32-.23m-5.29,.93l3.97-.7m1.32-.23l10.85-1.91m-3.03,53.71l1.32-.23m-1.32,.23l1.32-.23m-5.29,.93l3.97-.7m1.32-.23l10.85-1.91m-25.28-48.73l16.14-2.84" fill="none" stroke="#000" stroke-linecap="round" stroke-linejoin="round" stroke-width=".22"/><path d="M184.43,803.34l.22,1.27-16.14,2.85-.55-3.14,16.14-2.84,.23,1.27,.1,.59Z" fill="#2d2d2c" fill-rule="evenodd"/><path d="M156.69,740.7l16.14-2.85,2.13,12.05-16.14,2.85-2.12-12.05Zm0,97.2l16.14-2.85,13.92,78.93-16.14,2.85-13.92-78.93Z" fill="#2d2d2c"/><path d="M1391.3,268.63l-10.78-2.29m16.03,3.41l-3.94-.84m0,0l-1.31-.28m-8.81,41.44l-10.77-2.29m16.02,3.4l-3.94-.83m0,0l-1.31-.28" fill="none" stroke="#000" stroke-linecap="round" stroke-linejoin="round" stroke-width=".22"/><path d="M1387.74,311.18l8.81-41.43m-24.84,38.03l8.81-41.44m1.97,43.73l.5-2.37m0,0l1.32,.28m0,0l-.51,2.37m5.04-23.68l-.26,1.18m0,0l-1.31-.28m0,0l.25-1.18m-3.87,21.45l4.28-20.13m-4.94,19.99l4.28-20.13m1.31,.28l-4.27,20.13m3.21-21.59l.13-.59m0,0l.65,.14m0,0l.13-.6m0,0l.66,.14m0,0l-.25,1.19m3.77-17.76l-.5,2.37m0,0l-.66-.14m0,0l.13-.6m0,0l-.66-.14m0,0l.38-1.77m.81,2.65l-3.02,14.2m-1.72-1.6l2.51-11.84m-2.89,13.62l.38-1.78m0,0l1.31,.28m0,0l-.38,1.78m0,0l-1.31-.28m4.59-15.12l-.38,1.78m0,0l-1.31-.28m0,0l.38-1.78m0,0l1.32,.28m-.38,1.78l-2.52,11.84m-1.31-.28l2.51-11.84m-1.85,11.98l2.51-11.84" fill="none" stroke="#000" stroke-linecap="round" stroke-linejoin="round" stroke-width=".25"/><path d="M1383.8,310.35l-1.31-.28m1.31,.28l-1.31-.28m5.25,1.11l-3.94-.83m-1.31-.28l-10.77-2.29m20.89-38.87l-1.31-.28m1.31,.28l-1.31-.28m5.25,1.12l-3.94-.84m-1.31-.28l-10.78-2.29m7.22,44.84l-16.03-3.4" fill="none" stroke="#000" stroke-linecap="round" stroke-linejoin="round" stroke-width=".22"/><path d="M1385.07,244.96l3.11-14.65,16.03,3.41-7.66,36.03-16.03-3.41,3.12-14.65,1.43-6.73Z" fill="#2d2d2c" fill-rule="evenodd"/><path d="M1368.53,322.76l3.18-14.98,16.03,3.41-3.18,14.98-16.03-3.41Z" fill="#2d2d2c"/><path d="M1398.84,171.07h-11.02m16.39,0h-4.03m0,0h-1.34m0,37.54h-11.02m16.39,0h-4.03m0,0h-1.34" fill="none" stroke="#000" stroke-linecap="round" stroke-linejoin="round" stroke-width=".22"/><path d="M1404.21,208.61v-37.54m-16.39,37.54v-37.54m11.02,37.54v-2.42m0,0h1.34m0,0v2.42m0-19.39v1.21m0,0h-1.34m0,0v-1.21m.67,16.97v-15.76m-.67,15.76v-15.76m1.34,0v15.76m-1.34-16.97v-.6m0,0h.67m0,0v-.61m0,0h.67m0,0v1.21m0-18.15v2.42m0,0h-.67m0,0v-.61m0,0h-.67m0,0v-1.81m1.34,2.42v14.52m-2.01-1.21v-12.1m0,13.92v-1.82m0,0h1.34m0,0v1.82m0,0h-1.34m1.34-15.74v1.82m0,0h-1.34m0,0v-1.82m0,0h1.34m0,1.82v12.1m-1.34,0v-12.1m.67,12.1v-12.1" fill="none" stroke="#000" stroke-linecap="round" stroke-linejoin="round" stroke-width=".25"/><path d="M1400.18,208.61h-1.34m1.34,0h-1.34m5.37,0h-4.03m-1.34,0h-11.02m12.36-37.54h-1.34m1.34,0h-1.34m5.37,0h-4.03m-1.34,0h-11.02m16.39,37.54h-16.39" fill="none" stroke="#000" stroke-linecap="round" stroke-linejoin="round" stroke-width=".22"/><path d="M1387.82,159.21v-8.12h16.39v19.98h-16.39v-11.86Z" fill="#2d2d2c" fill-rule="evenodd"/><path d="M1387.82,208.61h16.39v25.1h-16.39v-25.1Z" fill="#2d2d2c"/><path d="M1391.91,353.98l-10.85-1.91m16.14,2.84l-3.97-.7m0,0l-1.32-.23m-9.47,53.66l-10.84-1.92m16.13,2.85l-3.96-.7m0,0l-1.33-.23" fill="none" stroke="#000" stroke-linecap="round" stroke-linejoin="round" stroke-width=".22"/><path d="M1387.73,408.57l9.47-53.66m-25.6,50.81l9.46-53.66m1.38,55.58l.45-2.51m0,0l1.32,.23m0,0l-.44,2.51m4.42-25.08l-.22,1.25m0,0l-1.33-.23m0,0l.23-1.25m-3.32,22.69l3.76-21.32m-4.42,21.2l3.75-21.32m1.33,.23l-3.76,21.32m2.66-22.8l.11-.63m0,0l.66,.12m0,0l.11-.63m0,0l.66,.12m0,0l-.22,1.25m5.04-28.58l-.54,3.07m0,0l-.66-.12m0,0l.13-.77m0,0l-.66-.11m0,0l.41-2.3m.78,3.3l-4.28,24.26m-.68-7.75l2.7-15.33m-4.11,23.35l.33-1.88m0,0l1.32,.24m0,0l-.33,1.88m0,0l-1.32-.24m5.84-25.42l-.4,2.3m0,0l-1.33-.23m0,0l.41-2.3m0,0l1.32,.23m-.4,2.3l-3.79,21.48m-1.32-.24l3.78-21.47m-3.1,21.6l3.76-21.48" fill="none" stroke="#000" stroke-linecap="round" stroke-linejoin="round" stroke-width=".25"/><path d="M1383.77,407.87l-1.33-.23m1.33,.23l-1.33-.23m5.29,.93l-3.96-.7m-1.33-.23l-10.84-1.92m21.63-51.51l-1.32-.23m1.32,.23l-1.32-.23m5.29,.93l-3.97-.7m-1.32-.23l-10.85-1.91m6.67,56.5l-16.13-2.85" fill="none" stroke="#000" stroke-linecap="round" stroke-linejoin="round" stroke-width=".22"/><path d="M1382.93,341.44l1.29-7.28,16.13,2.84-3.15,17.91-16.14-2.85,1.28-7.28,.59-3.34Z" fill="#2d2d2c" fill-rule="evenodd"/><path d="M1371.1,408.57l.5-2.85,16.14,2.85-.5,2.85-16.14-2.85Z" fill="#2d2d2c"/><path d="M1392.6,454.9l-10.87-1.73m16.18,2.57l-3.98-.63m0,0l-1.33-.21m-9.56,60.73l-10.88-1.72m16.18,2.56l-3.98-.63m0,0l-1.32-.21" fill="none" stroke="#000" stroke-linecap="round" stroke-linejoin="round" stroke-width=".22"/><path d="M1388.34,516.47l9.57-60.73m-25.75,58.16l9.57-60.73m1.31,62.46l.38-2.39m0,0l1.32,.21m0,0l-.38,2.39m3.79-23.91l-.19,1.19m0,0l-1.33-.21m0,0l.19-1.19m-2.74,21.62l3.22-20.32m-3.88,20.22l3.21-20.33m1.33,.21l-3.22,20.33m2.08-21.73l.1-.6m0,0l.66,.1m0,0l.1-.59m0,0l.66,.1m0,0l-.19,1.2m5.78-36.82l-.46,2.92m0,0l-.66-.1m0,0l.12-.74m0,0l-.66-.1m0,0l.34-2.19m.87,3.13l-5.13,32.7m-.87-7.36l3.78-24.19m-4.99,31.83l.28-1.79m0,0l1.33,.21m0,0l-.29,1.79m0,0l-1.32-.21m6.66-33.82l-.35,2.2m0,0l-1.32-.21m0,0l.34-2.2m0,0l1.33,.21m-.35,2.2l-4.7,30.04m-1.33-.21l4.71-30.04m-4.02,30.15l4.68-30.05" fill="none" stroke="#000" stroke-linecap="round" stroke-linejoin="round" stroke-width=".25"/><path d="M1384.36,515.84l-1.32-.21m1.32,.21l-1.32-.21m5.3,.84l-3.98-.63m-1.32-.21l-10.88-1.72m21.77-58.8l-1.33-.21m1.33,.21l-1.33-.21m5.31,.84l-3.98-.63m-1.33-.21l-10.87-1.73m6.61,63.3l-16.18-2.57" fill="none" stroke="#000" stroke-linecap="round" stroke-linejoin="round" stroke-width=".22"/><path d="M1383.61,441.27l1.29-8.16,16.19,2.56-3.18,20.07-16.18-2.57,1.29-8.16,.59-3.74h0Z" fill="#2d2d2c" fill-rule="evenodd"/><path d="M1371.11,520.54l1.05-6.64,16.19,2.56-1.05,6.64-16.19-2.56Z" fill="#2d2d2c"/><path d="M1392.86,564.5l-10.88-1.72m16.18,2.56l-3.98-.63m0,0l-1.32-.21m-9.57,60.74l-10.88-1.73m16.18,2.57l-3.98-.63m0,0l-1.32-.21" fill="none" stroke="#000" stroke-linecap="round" stroke-linejoin="round" stroke-width=".22"/><path d="M1388.59,626.08l9.57-60.74m-25.75,58.17l9.57-60.73m1.31,62.46l.38-2.4m0,0l1.32,.21m0,0l-.38,2.4m3.79-23.92l-.19,1.2m0,0l-1.32-.21m0,0l.18-1.2m-2.74,21.63l3.22-20.32m-3.88,20.21l3.22-20.32m1.32,.21l-3.22,20.32m2.08-21.73l.1-.59m0,0l.66,.1m0,0l.1-.6m0,0l.66,.11m0,0l-.19,1.19m5.78-36.82l-.46,2.93m0,0l-.66-.11m0,0l.11-.73m0,0l-.66-.1m0,0l.35-2.2m.86,3.14l-5.13,32.7m-.87-7.37l3.78-24.19m-4.99,31.84l.28-1.79m0,0l1.33,.21m0,0l-.29,1.79m0,0l-1.32-.21m6.66-33.82l-.35,2.19m0,0l-1.32-.21m0,0l.35-2.19m0,0l1.32,.21m-.35,2.19l-4.7,30.05m-1.33-.21l4.71-30.05m-4.02,30.16l4.68-30.05" fill="none" stroke="#000" stroke-linecap="round" stroke-linejoin="round" stroke-width=".25"/><path d="M1384.61,625.45l-1.32-.21m1.32,.21l-1.32-.21m5.3,.84l-3.98-.63m-1.32-.21l-10.88-1.73m21.77-58.8l-1.32-.21m1.32,.21l-1.32-.21m5.3,.84l-3.98-.63m-1.32-.21l-10.88-1.72m6.61,63.3l-16.18-2.57" fill="none" stroke="#000" stroke-linecap="round" stroke-linejoin="round" stroke-width=".22"/><path d="M1383.71,551.83l1.19-7.51,16.19,2.56-2.93,18.46-16.18-2.56,1.19-7.51,.54-3.44h0Z" fill="#2d2d2c" fill-rule="evenodd"/><path d="M1371.09,631.87l1.32-8.35,16.19,2.56-1.32,8.35-16.19-2.56Z" fill="#2d2d2c"/><path d="M1392.09,670.96l-10.85-1.92m16.14,2.85l-3.97-.7m0,0l-1.32-.23m-9.05,51.58l-10.84-1.91m16.13,2.85l-3.97-.7m0,0l-1.32-.24" fill="none" stroke="#000" stroke-linecap="round" stroke-linejoin="round" stroke-width=".22"/><path d="M1388.33,723.48l9.05-51.59m-25.18,48.74l9.04-51.59m1.8,53.5l.42-2.38m0,0l1.32,.23m0,0l-.42,2.39m4.21-23.84l-.21,1.19m0,0l-1.32-.23m0,0l.21-1.2m-3.13,21.58l3.58-20.27m-4.24,20.15l3.58-20.26m1.32,.23l-3.58,20.26m2.47-21.69l.1-.59m0,0l.66,.11m0,0l.11-.59m0,0l.66,.12m0,0l-.21,1.19m4.84-27.75l-.44,2.48m0,0l-.66-.11m0,0l.11-.62m0-.01l-.66-.11m0,0l.33-1.86m.88,2.71l-4.85,27.78m-.92-6.34l3.57-20.55m-4.08,23.43l.31-1.79m0,0l1.33,.24m0,0l-.32,1.78m0,0l-1.32-.23m5.73-25.06l-.33,1.87m0,0l-1.32-.24m0,0l.33-1.86m0,0l1.32,.23m-.33,1.87l-3.76,21.64m-1.33-.24l3.77-21.64m-3.09,21.76l3.75-21.64" fill="none" stroke="#000" stroke-linecap="round" stroke-linejoin="round" stroke-width=".25"/><path d="M1384.36,722.78l-1.32-.24m1.32,.24l-1.32-.24m5.29,.94l-3.97-.7m-1.32-.24l-10.84-1.91m21.21-49.44l-1.32-.23m1.32,.23l-1.32-.23m5.29,.93l-3.97-.7m-1.32-.23l-10.85-1.92m7.09,54.44l-16.14-2.85" fill="none" stroke="#000" stroke-linecap="round" stroke-linejoin="round" stroke-width=".22"/><path d="M1383.44,656.59l1.5-8.54,16.14,2.84-3.7,21-16.14-2.85,1.51-8.54,.69-3.91h0Z" fill="#2d2d2c" fill-rule="evenodd"/><path d="M1371.09,726.92l1.11-6.29,16.14,2.85-1.11,6.29-16.14-2.85Z" fill="#2d2d2c"/><path d="M1392.14,764.16l-10.85-1.91m16.14,2.84l-3.97-.7m0,0l-1.32-.23m-9.05,51.59l-10.84-1.92m16.13,2.85l-3.96-.7m0,0l-1.33-.23" fill="none" stroke="#000" stroke-linecap="round" stroke-linejoin="round" stroke-width=".22"/><path d="M1388.38,816.68l9.05-51.59m-25.18,48.74l9.04-51.58m1.8,53.5l.42-2.39m0,0l1.33,.24m0,0l-.42,2.38m4.2-23.84l-.21,1.19m0,0l-1.32-.23m0,0l.21-1.19m-3.12,21.57l3.57-20.26m-4.24,20.14l3.58-20.26m1.32,.23l-3.57,20.27m2.46-21.69l.1-.6m0,0l.66,.12m0,0l.11-.6m0,0l.66,.12m0,0l-.21,1.19m4.84-27.75l-.44,2.48m0,0l-.66-.11m0,0l.11-.62m0,0l-.66-.12m0,0l.33-1.86m.88,2.71l-4.84,27.78m-.93-6.33l3.57-20.55m-4.08,23.42l.32-1.78m0,0l1.32,.23m0,0l-.32,1.79m0,0l-1.32-.24m5.73-25.05l-.33,1.86m0,0l-1.32-.23m0,0l.33-1.87m0,0l1.32,.24m-.33,1.86l-3.76,21.64m-1.32-.23l3.76-21.64m-3.09,21.76l3.75-21.65" fill="none" stroke="#000" stroke-linecap="round" stroke-linejoin="round" stroke-width=".25"/><path d="M1384.42,815.98l-1.33-.23m1.33,.23l-1.33-.23m5.29,.93l-3.96-.7m-1.33-.23l-10.84-1.92m21.21-49.44l-1.32-.23m1.32,.23l-1.32-.23m5.29,.93l-3.97-.7m-1.32-.23l-10.85-1.91m7.09,54.43l-16.13-2.85" fill="none" stroke="#000" stroke-linecap="round" stroke-linejoin="round" stroke-width=".22"/><path d="M1383.46,749.97l1.48-8.42,16.14,2.85-3.65,20.69-16.14-2.84,1.49-8.42,.68-3.86Z" fill="#2d2d2c" fill-rule="evenodd"/><path d="M1371.08,820.34l1.15-6.52,16.14,2.85-1.15,6.52-16.14-2.85Z" fill="#2d2d2c"/><path d="M1378.96,872.48l5.98-33.95,16.14,2.85-14.72,83.49-16.14-2.85,5.99-33.95,2.75-15.59h0Z" fill="#2d2d2c" fill-rule="evenodd"/><g><path d="M270.41,893.75v-7.57m0,11.49v-4.03m0,0v-1.34m18.77,.11v-6.23m0,11.49v-4.03m0,0v-1.34" fill="none" stroke="#000" stroke-linecap="round" stroke-linejoin="round" stroke-width=".22"/><path d="M289.18,897.67h-18.77m18.77-11.49h-18.77m18.77,6.12h-2.72m0,0v1.34m0,0h2.72m-16.05-1.34h-2.72m0,0v1.34m0,0h2.72m-1.36,0h1.36m0,0v-1.34m13.33,.67h-13.33m13.33-.67h-13.33m0,1.34h13.33m-16.05,0h1.36m-1.36,0h0" fill="none" stroke="#000" stroke-linecap="round" stroke-linejoin="round" stroke-width=".25"/><path d="M289.18,893.64v-1.34m0,1.34v-1.34m0,5.37v-4.03m0-1.23v-6.23m-18.77,7.46v-1.34m0,1.34v-1.34m0,5.37v-4.03m0,.11v-7.57m18.77,11.49v-11.49" fill="none" stroke="#000" stroke-linecap="round" stroke-linejoin="round" stroke-width=".22"/></g><g><path d="M206.22,893.75v-7.57m0,11.49v-4.03m0,0v-1.34m21.87,.11v-6.23m0,11.49v-4.03m0,0v-1.34" fill="none" stroke="#000" stroke-linecap="round" stroke-linejoin="round" stroke-width=".22"/><path d="M228.09,897.67h-21.87m21.87-11.49h-21.87m21.87,6.12h-3.2m0,0v1.34m0,0h3.2m-18.68-1.34h-3.19m0,0v1.34m0,0h3.19m-1.6,0h1.6m0,0v-1.34m15.48,.67h-15.48m15.48-.67h-15.48m0,1.34h15.48m-18.67,0h1.59m-1.59,0h0" fill="none" stroke="#000" stroke-linecap="round" stroke-linejoin="round" stroke-width=".25"/><path d="M228.09,893.64v-1.34m0,1.34v-1.34m0,5.37v-4.03m0-1.23v-6.23m-21.87,7.46v-1.34m0,1.34v-1.34m0,5.37v-4.03m0,.11v-7.57m21.87,11.49v-11.49" fill="none" stroke="#000" stroke-linecap="round" stroke-linejoin="round" stroke-width=".22"/></g><path d="M241.78,887.04c.85,2.31,1.08,3.5,1.2,5.97" fill="none" stroke="#000" stroke-linecap="round" stroke-linejoin="round" stroke-width=".25"/><path d="M241.76,886.66l.28,.66-13.74,6.07h-.21v-.71l13.67-6.02h0Z" fill="#2d2d2c" fill-rule="evenodd"/><path d="M245.2,881.69c-1.56,4.26-1.99,6.45-2.22,10.99" fill="none" stroke="#000" stroke-linecap="round" stroke-linejoin="round" stroke-width=".25"/><path d="M245.24,881l-.52,1.22,25.3,11.17h.39v-1.32l-25.17-11.07Z" fill="#2d2d2c" fill-rule="evenodd"/><g><path d="M169.91,1009.88v-1.34m1218.19,1.34v-1.34" fill="none" stroke="#000" stroke-linecap="round" stroke-linejoin="round" stroke-width=".22"/><path d="M1388.1,1008.54h-3.17m0,0v1.34m0,0h3.17m-1215.02-1.34h-3.17m0,0v1.34m0,0h3.17m-1.58,0h1.58m0,0v-1.34m1211.85,.67H173.08m1211.85-.67H173.08m0,1.34H1384.93m-1215.02,0h1.59m-1.59,0h0" fill="none" stroke="#000" stroke-linecap="round" stroke-linejoin="round" stroke-width=".25"/><path d="M1388.1,1009.88v-1.34m0,1.34v-1.34m-1218.19,1.34v-1.34m0,1.34v-1.34" fill="none" stroke="#000" stroke-linecap="round" stroke-linejoin="round" stroke-width=".22"/></g><g><path d="M169.91,955.09h1.35m-1.35,53.45h1.35" fill="none" stroke="#000" stroke-linecap="round" stroke-linejoin="round" stroke-width=".22"/><path d="M171.26,1008.54v-1.52m0,0h-1.35m0,0v1.52m1.35-51.39v-2.06m0,0h-1.35m0,0v2.06m0-1.03v1.03m0,0h1.35m-.67,49.87v-49.87m.67,49.87v-49.87m-1.35,0v49.87m0-51.93v1.03m0-1.03h0" fill="none" stroke="#000" stroke-linecap="round" stroke-linejoin="round" stroke-width=".25"/><path d="M169.91,1008.54h1.35m-1.35,0h1.35m-1.35-53.45h1.35m-1.35,0h1.35" fill="none" stroke="#000" stroke-linecap="round" stroke-linejoin="round" stroke-width=".22"/></g><g><path d="M1386.52,954.51h1.34" fill="none" stroke="#000" stroke-linecap="round" stroke-linejoin="round" stroke-width=".22"/><path d="M1387.86,1008.33v-1.53m0,0h-1.34m0,0v1.74m1.34-51.97v-2.06m0,0h-1.34m0,0v2.06m0-1.03v1.03m0,0h1.34m-.67,50.23v-50.23m.67,50.23v-50.23m-1.34,0v50.23m0-52.29v1.03m0-1.03h0" fill="none" stroke="#000" stroke-linecap="round" stroke-linejoin="round" stroke-width=".25"/><path d="M1386.52,954.51h1.34m-1.34,0h1.34" fill="none" stroke="#000" stroke-linecap="round" stroke-linejoin="round" stroke-width=".22"/></g><g><path d="M1342.35,955.85v-1.35" fill="none" stroke="#000" stroke-linecap="round" stroke-linejoin="round" stroke-width=".22"/><path d="M1365.83,954.51v1.34m0,0h1.52v-1.34h-1.52m-21.42,0h-2.06m0-.01v1.35m0,0h2.06m-1.03,0h1.03m0,0v-1.34m21.42,.67h-21.42m21.42-.67h-21.42m0,1.34h21.42m-23.48,0h1.03m-1.03,0h0" fill="none" stroke="#000" stroke-linecap="round" stroke-linejoin="round" stroke-width=".25"/><path d="M1342.35,955.85v-1.35m0,1.35v-1.35m-67.63,1.35v-1.35" fill="none" stroke="#000" stroke-linecap="round" stroke-linejoin="round" stroke-width=".22"/><path d="M1320.99,954.51v1.34m0,0h1.52v-1.34h-1.52m-44.2,0h-2.07m0-.01v1.35m0,0h2.07m-1.03,0h1.03m0,0v-1.34m44.2,.67h-44.2m44.2-.67h-44.2m0,1.34h44.2m-46.27,0h1.04m-1.04,0h0" fill="none" stroke="#000" stroke-linecap="round" stroke-linejoin="round" stroke-width=".25"/><path d="M1274.72,955.85v-1.35m0,1.35v-1.35m-67.56,1.35v-1.35" fill="none" stroke="#000" stroke-linecap="round" stroke-linejoin="round" stroke-width=".22"/><path d="M1253.43,954.51v1.34m0,0h1.53v-1.34h-1.53m-44.2,0h-2.07m0-.01v1.35m0,0h2.07m-1.03,0h1.03m0,0v-1.34m44.2,.67h-44.2m44.2-.67h-44.2m0,1.34h44.2m-46.27,0h1.04m-1.04,0h0" fill="none" stroke="#000" stroke-linecap="round" stroke-linejoin="round" stroke-width=".25"/><path d="M1207.16,955.85v-1.35m0,1.35v-1.35m-64.67,1.35v-1.35" fill="none" stroke="#000" stroke-linecap="round" stroke-linejoin="round" stroke-width=".22"/><path d="M1182.97,954.51v1.34m0,0h1.53v-1.34h-1.53m-38.41,0h-2.07m0-.01v1.35m0,0h2.07m-1.04,0h1.04m0,0v-1.34m38.41,.67h-38.41m38.41-.67h-38.41m0,1.34h38.41m-40.48,0h1.03m-1.03,0h0" fill="none" stroke="#000" stroke-linecap="round" stroke-linejoin="round" stroke-width=".25"/><path d="M1142.49,955.85v-1.35m0,1.35v-1.35m-45.19,1.35v-1.35" fill="none" stroke="#000" stroke-linecap="round" stroke-linejoin="round" stroke-width=".22"/><path d="M1140.97,954.51v1.34m0,0h1.52v-1.34h-1.52m-41.6,0h-2.07m0-.01v1.35m0,0h2.07m-1.03,0h1.03m0,0v-1.34m41.6,.67h-41.6m41.6-.67h-41.6m0,1.34h41.6m-43.67,0h1.04m-1.04,0h0" fill="none" stroke="#000" stroke-linecap="round" stroke-linejoin="round" stroke-width=".25"/><path d="M1097.3,955.85v-1.35m0,1.35v-1.35m-67.1,1.35v-1.35" fill="none" stroke="#000" stroke-linecap="round" stroke-linejoin="round" stroke-width=".22"/><path d="M1075.95,954.51v1.34m0,0h1.53v-1.34h-1.53m-43.97,0h-1.78m0-.01v1.35m0,0h1.78m-1.03,0h1.03m0,0v-1.34m43.97,.67h-43.97m43.97-.67h-43.97m0,1.34h43.97m-45.75,0h.75m-.75,0h0" fill="none" stroke="#000" stroke-linecap="round" stroke-linejoin="round" stroke-width=".25"/><path d="M1030.2,955.85v-1.35m0,1.35v-1.35m-64.54,1.35v-1.35" fill="none" stroke="#000" stroke-linecap="round" stroke-linejoin="round" stroke-width=".22"/><path d="M1008.9,954.51v1.34m0,0h1.53v-1.34h-1.53m-41.46,0h-1.78m0-.01v1.35m0,0h1.78m-1.03,0h1.03m0,0v-1.34m41.46,.67h-41.46m41.46-.67h-41.46m0,1.34h41.46m-43.24,0h.75m-.75,0h0" fill="none" stroke="#000" stroke-linecap="round" stroke-linejoin="round" stroke-width=".25"/><path d="M965.66,955.85v-1.35m0,1.35v-1.35m-46.81,1.35v-1.35" fill="none" stroke="#000" stroke-linecap="round" stroke-linejoin="round" stroke-width=".22"/><path d="M964.13,954.51v1.34m0,0h1.53v-1.34h-1.53m-43.5,0h-1.78m0-.01v1.35m0,0h1.78m-1.03,0h1.03m0,0v-1.34m43.5,.67h-43.5m43.5-.67h-43.5m0,1.34h43.5m-45.28,0h.75m-.75,0h0" fill="none" stroke="#000" stroke-linecap="round" stroke-linejoin="round" stroke-width=".25"/><path d="M918.85,955.85v-1.35m0,1.35v-1.35m-65.76,1.35v-1.35" fill="none" stroke="#000" stroke-linecap="round" stroke-linejoin="round" stroke-width=".22"/><path d="M897.61,954.51v1.34m0,0h1.53v-1.34h-1.53m-42.74,0h-1.78m0-.01v1.35m0,0h1.78m-1.03,0h1.03m0,0v-1.34m42.74,.67h-42.74m42.74-.67h-42.74m0,1.34h42.74m-44.52,0h.75m-.75,0h0" fill="none" stroke="#000" stroke-linecap="round" stroke-linejoin="round" stroke-width=".25"/><path d="M853.09,955.85v-1.35m0,1.35v-1.35m-66.97,1.35v-1.35" fill="none" stroke="#000" stroke-linecap="round" stroke-linejoin="round" stroke-width=".22"/><path d="M831.85,954.51v1.34m0,0h1.53v-1.34h-1.53m-43.95,0h-1.78m0-.01v1.35m0,0h1.78m-1.03,0h1.03m0,0v-1.34m43.95,.67h-43.95m43.95-.67h-43.95m0,1.34h43.95m-45.73,0h.75m-.75,0h0" fill="none" stroke="#000" stroke-linecap="round" stroke-linejoin="round" stroke-width=".25"/><path d="M786.12,955.85v-1.35m0,1.35v-1.35m-46.48,1.35v-1.35" fill="none" stroke="#000" stroke-linecap="round" stroke-linejoin="round" stroke-width=".22"/><path d="M784.49,954.51v1.34m0,0h1.52v-1.34h-1.52m-43.07,0h-1.78m0-.01v1.35m0,0h1.78m-1.03,0h1.03m0,0v-1.34m43.07,.67h-43.07m43.07-.67h-43.07m0,1.34h43.07m-44.85,0h.75m-.75,0h0" fill="none" stroke="#000" stroke-linecap="round" stroke-linejoin="round" stroke-width=".25"/><path d="M739.64,955.85v-1.35m0,1.35v-1.35m-69.78,1.35v-1.35" fill="none" stroke="#000" stroke-linecap="round" stroke-linejoin="round" stroke-width=".22"/><path d="M718.26,954.51v1.34m0,0h1.52v-1.34h-1.52m-46.62,0h-1.78m0-.01v1.35m0,0h1.78m-1.03,0h1.03m0,0v-1.34m46.62,.67h-46.62m46.62-.67h-46.62m0,1.34h46.62m-48.4,0h.75m-.75,0h0" fill="none" stroke="#000" stroke-linecap="round" stroke-linejoin="round" stroke-width=".25"/><path d="M669.86,955.85v-1.35m0,1.35v-1.35m-67,1.35v-1.35" fill="none" stroke="#000" stroke-linecap="round" stroke-linejoin="round" stroke-width=".22"/><path d="M648.57,954.51v1.34m0,0h1.53v-1.34h-1.53m-43.93,0h-1.78m0-.01v1.35m0,0h1.78m-1.03,0h1.03m0,0v-1.34m43.93,.67h-43.93m43.93-.67h-43.93m0,1.34h43.93m-45.71,0h.75m-.75,0h0" fill="none" stroke="#000" stroke-linecap="round" stroke-linejoin="round" stroke-width=".25"/><path d="M602.86,955.85v-1.35m0,1.35v-1.35m-47.3,1.35v-1.35" fill="none" stroke="#000" stroke-linecap="round" stroke-linejoin="round" stroke-width=".22"/><path d="M601.27,954.51v1.34m0,0h1.52v-1.34h-1.52m-43.93,0h-1.78m0-.01v1.35m0,0h1.78m-1.04,0h1.04m0,0v-1.34m43.93,.67h-43.93m43.93-.67h-43.93m0,1.34h43.93m-45.71,0h.74m-.74,0h0" fill="none" stroke="#000" stroke-linecap="round" stroke-linejoin="round" stroke-width=".25"/><path d="M555.56,955.85v-1.35m0,1.35v-1.35m-69.28,1.35v-1.35" fill="none" stroke="#000" stroke-linecap="round" stroke-linejoin="round" stroke-width=".22"/><path d="M534.26,954.51v1.34m0,0h1.53v-1.34h-1.53m-46.2,0h-1.78m0-.01v1.35m0,0h1.78m-1.03,0h1.03m0,0v-1.34m46.2,.67h-46.2m46.2-.67h-46.2m0,1.34h46.2m-47.98,0h.75m-.75,0h0" fill="none" stroke="#000" stroke-linecap="round" stroke-linejoin="round" stroke-width=".25"/><path d="M486.28,955.85v-1.35m0,1.35v-1.35m-66.79,1.35v-1.35" fill="none" stroke="#000" stroke-linecap="round" stroke-linejoin="round" stroke-width=".22"/><path d="M464.99,954.51v1.34m0,0h1.52v-1.34h-1.52m-43.72,0h-1.78m0-.01v1.35m0,0h1.78m-1.03,0h1.03m0,0v-1.34m43.72,.67h-43.72m43.72-.67h-43.72m0,1.34h43.72m-45.5,0h.75m-.75,0h0" fill="none" stroke="#000" stroke-linecap="round" stroke-linejoin="round" stroke-width=".25"/><path d="M419.49,955.85v-1.35m0,1.35v-1.35m-48.12,1.35v-1.35" fill="none" stroke="#000" stroke-linecap="round" stroke-linejoin="round" stroke-width=".22"/><path d="M417.97,954.51v1.34m0,0h1.52v-1.34h-1.52m-44.82,0h-1.78m0-.01v1.35m0,0h1.78m-1.04,0h1.04m0,0v-1.34m44.82,.67h-44.82m44.82-.67h-44.82m0,1.34h44.82m-46.6,0h.74m-.74,0h0" fill="none" stroke="#000" stroke-linecap="round" stroke-linejoin="round" stroke-width=".25"/><path d="M371.37,955.85v-1.35m0,1.35v-1.35m-68.62,1.35v-1.35" fill="none" stroke="#000" stroke-linecap="round" stroke-linejoin="round" stroke-width=".22"/><path d="M350.12,954.51v1.34m0,0h1.52v-1.34h-1.52m-45.59,0h-1.78m0-.01v1.35m0,0h1.78m-1.03,0h1.03m0,0v-1.34m45.59,.67h-45.59m45.59-.67h-45.59m0,1.34h45.59m-47.37,0h.75m-.75,0h0" fill="none" stroke="#000" stroke-linecap="round" stroke-linejoin="round" stroke-width=".25"/><path d="M302.75,955.85v-1.35m0,1.35v-1.35m-67.88,1.35v-1.35" fill="none" stroke="#000" stroke-linecap="round" stroke-linejoin="round" stroke-width=".22"/><path d="M281.34,954.51v1.34m0,0h1.53v-1.34h-1.53m-44.69,0h-1.78m0-.01v1.35m0,0h1.78m-1.03,0h1.03m0,0v-1.34m44.69,.67h-44.69m44.69-.67h-44.69m0,1.34h44.69m-46.47,0h.75m-.75,0h0" fill="none" stroke="#000" stroke-linecap="round" stroke-linejoin="round" stroke-width=".25"/><path d="M234.87,955.85v-1.35m0,1.35v-1.35m-44.25,1.35v-1.35" fill="none" stroke="#000" stroke-linecap="round" stroke-linejoin="round" stroke-width=".22"/><path d="M213.48,954.51v1.34m0,0h1.53v-1.34h-1.53m-21.08,0h-1.78m0-.01v1.35m0,0h1.78m-1.03,0h1.03m0,0v-1.34m21.08,.67h-21.08m21.08-.67h-21.08m0,1.34h21.08m-22.86,0h.75m-.75,0h0" fill="none" stroke="#000" stroke-linecap="round" stroke-linejoin="round" stroke-width=".25"/><path d="M190.62,955.85v-1.35m0,1.35v-1.35" fill="none" stroke="#000" stroke-linecap="round" stroke-linejoin="round" stroke-width=".22"/></g><g><path d="M379.02,893.75v-7.57m0,11.49v-4.03m0,0v-1.34m25.86,.11v-6.23m0,11.49v-4.03m0,0v-1.34" fill="none" stroke="#000" stroke-linecap="round" stroke-linejoin="round" stroke-width=".22"/><path d="M404.88,897.67h-25.86m25.86-11.49h-25.86m25.86,6.12h-2.72m0,0v1.34m0,0h2.72m-23.14-1.34h-2.72m0,0v1.34m0,0h2.72m-1.36,0h1.36m0,0v-1.34m20.42,.67h-20.42m20.42-.67h-20.42m0,1.34h20.42m-23.14,0h1.36m-1.36,0h0" fill="none" stroke="#000" stroke-linecap="round" stroke-linejoin="round" stroke-width=".25"/><path d="M404.88,893.64v-1.34m0,1.34v-1.34m0,5.37v-4.03m0-1.23v-6.23m-25.86,7.46v-1.34m0,1.34v-1.34m0,5.37v-4.03m0,.11v-7.57m25.86,11.49v-11.49" fill="none" stroke="#000" stroke-linecap="round" stroke-linejoin="round" stroke-width=".22"/></g><g><path d="M318.49,893.75v-7.57m0,11.49v-4.03m0,0v-1.34m18.21,.11v-6.23m0,11.49v-4.03m0,0v-1.34" fill="none" stroke="#000" stroke-linecap="round" stroke-linejoin="round" stroke-width=".22"/><path d="M336.7,897.67h-18.21m18.21-11.49h-18.21m18.21,6.12h-3.19m0,0v1.34m0,0h3.19m-15.01-1.34h-3.2m0,0v1.34m0,0h3.2m-1.6,0h1.6m0,0v-1.34m11.82,.67h-11.82m11.82-.67h-11.82m0,1.34h11.82m-15.02,0h1.6m-1.6,0h0" fill="none" stroke="#000" stroke-linecap="round" stroke-linejoin="round" stroke-width=".25"/><path d="M336.7,893.64v-1.34m0,1.34v-1.34m0,5.37v-4.03m0-1.23v-6.23m-18.21,7.46v-1.34m0,1.34v-1.34m0,5.37v-4.03m0,.11v-7.57m18.21,11.49v-11.49" fill="none" stroke="#000" stroke-linecap="round" stroke-linejoin="round" stroke-width=".22"/></g><path d="M350.39,887.04c.85,2.31,1.08,3.5,1.2,5.97" fill="none" stroke="#000" stroke-linecap="round" stroke-linejoin="round" stroke-width=".25"/><path d="M350.37,886.66l.28,.66-13.73,6.07h-.22v-.71l13.67-6.02h0Z" fill="#2d2d2c" fill-rule="evenodd"/><path d="M353.82,881.69c-1.56,4.26-1.99,6.45-2.22,10.99" fill="none" stroke="#000" stroke-linecap="round" stroke-linejoin="round" stroke-width=".25"/><path d="M353.85,881l-.52,1.22,25.3,11.17h.39v-1.32l-25.17-11.07Z" fill="#2d2d2c" fill-rule="evenodd"/><g><path d="M484.24,893.75v-7.57m0,11.49v-4.03m0,0v-1.34m14.29,.11v-6.23m0,11.49v-4.03m0,0v-1.34" fill="none" stroke="#000" stroke-linecap="round" stroke-linejoin="round" stroke-width=".22"/><path d="M498.53,897.67h-14.29m14.29-11.49h-14.29m14.29,6.12h-2.72m0,0v1.34m0,0h2.72m-11.57-1.34h-2.72m0,0v1.34m0,0h2.72m-1.36,0h1.36m0,0v-1.34m8.85,.67h-8.85m8.85-.67h-8.85m0,1.34h8.85m-11.57,0h1.36m-1.36,0h0" fill="none" stroke="#000" stroke-linecap="round" stroke-linejoin="round" stroke-width=".25"/><path d="M498.53,893.64v-1.34m0,1.34v-1.34m0,5.37v-4.03m0-1.23v-6.23m-14.29,7.46v-1.34m0,1.34v-1.34m0,5.37v-4.03m0,.11v-7.57m14.29,11.49v-11.49" fill="none" stroke="#000" stroke-linecap="round" stroke-linejoin="round" stroke-width=".22"/></g><g><path d="M427.83,893.75v-7.57m0,11.49v-4.03m0,0v-1.34m14.09,.11v-6.23m0,11.49v-4.03m0,0v-1.34" fill="none" stroke="#000" stroke-linecap="round" stroke-linejoin="round" stroke-width=".22"/><path d="M441.92,897.67h-14.09m14.09-11.49h-14.09m14.09,6.12h-3.19m0,0v1.34m0,0h3.19m-10.9-1.34h-3.19m0,0v1.34m0,0h3.19m-1.59,0h1.59m0,0v-1.34m7.71,.67h-7.71m7.71-.67h-7.71m0,1.34h7.71m-10.9,0h1.6m-1.6,0h0" fill="none" stroke="#000" stroke-linecap="round" stroke-linejoin="round" stroke-width=".25"/><path d="M441.92,893.64v-1.34m0,1.34v-1.34m0,5.37v-4.03m0-1.23v-6.23m-14.09,7.46v-1.34m0,1.34v-1.34m0,5.37v-4.03m0,.11v-7.57m14.09,11.49v-11.49" fill="none" stroke="#000" stroke-linecap="round" stroke-linejoin="round" stroke-width=".22"/></g><path d="M455.61,887.04c.85,2.31,1.08,3.5,1.2,5.97" fill="none" stroke="#000" stroke-linecap="round" stroke-linejoin="round" stroke-width=".25"/><path d="M455.59,886.66l.28,.66-13.74,6.07h-.21v-.71l13.67-6.02h0Z" fill="#2d2d2c" fill-rule="evenodd"/><path d="M459.03,881.69c-1.56,4.26-1.99,6.45-2.22,10.99" fill="none" stroke="#000" stroke-linecap="round" stroke-linejoin="round" stroke-width=".25"/><path d="M459.07,881l-.52,1.22,25.3,11.17h.39v-1.32l-25.17-11.07Z" fill="#2d2d2c" fill-rule="evenodd"/><g><path d="M577.28,893.75v-7.57m0,11.49v-4.03m0,0v-1.34m14.29,.11v-6.23m0,11.49v-4.03m0,0v-1.34" fill="none" stroke="#000" stroke-linecap="round" stroke-linejoin="round" stroke-width=".22"/><path d="M591.57,897.67h-14.29m14.29-11.49h-14.29m14.29,6.12h-2.72m0,0v1.34m0,0h2.72m-11.57-1.34h-2.72m0,0v1.34m0,0h2.72m-1.36,0h1.36m0,0v-1.34m8.85,.67h-8.85m8.85-.67h-8.85m0,1.34h8.85m-11.57,0h1.36m-1.36,0h0" fill="none" stroke="#000" stroke-linecap="round" stroke-linejoin="round" stroke-width=".25"/><path d="M591.57,893.64v-1.34m0,1.34v-1.34m0,5.37v-4.03m0-1.23v-6.23m-14.29,7.46v-1.34m0,1.34v-1.34m0,5.37v-4.03m0,.11v-7.57m14.29,11.49v-11.49" fill="none" stroke="#000" stroke-linecap="round" stroke-linejoin="round" stroke-width=".22"/></g><g><path d="M520.86,893.75v-7.57m0,11.49v-4.03m0,0v-1.34m14.1,.11v-6.23m0,11.49v-4.03m0,0v-1.34" fill="none" stroke="#000" stroke-linecap="round" stroke-linejoin="round" stroke-width=".22"/><path d="M534.96,897.67h-14.1m14.1-11.49h-14.1m14.1,6.12h-3.2m0,0v1.34m0,0h3.2m-10.9-1.34h-3.2m0,0v1.34m0,0h3.2m-1.6,0h1.6m0,0v-1.34m7.7,.67h-7.7m7.7-.67h-7.7m0,1.34h7.7m-10.9,0h1.6m-1.6,0h0" fill="none" stroke="#000" stroke-linecap="round" stroke-linejoin="round" stroke-width=".25"/><path d="M534.96,893.64v-1.34m0,1.34v-1.34m0,5.37v-4.03m0-1.23v-6.23m-14.1,7.46v-1.34m0,1.34v-1.34m0,5.37v-4.03m0,.11v-7.57m14.1,11.49v-11.49" fill="none" stroke="#000" stroke-linecap="round" stroke-linejoin="round" stroke-width=".22"/></g><path d="M548.65,887.04c.85,2.31,1.08,3.5,1.2,5.97" fill="none" stroke="#000" stroke-linecap="round" stroke-linejoin="round" stroke-width=".25"/><path d="M548.63,886.66l.28,.66-13.74,6.07h-.21v-.71l13.67-6.02h0Z" fill="#2d2d2c" fill-rule="evenodd"/><path d="M552.07,881.69c-1.56,4.26-1.99,6.45-2.22,10.99" fill="none" stroke="#000" stroke-linecap="round" stroke-linejoin="round" stroke-width=".25"/><path d="M552.1,881l-.51,1.22,25.3,11.17h.39v-1.32l-25.18-11.07Z" fill="#2d2d2c" fill-rule="evenodd"/><g><path d="M673.76,893.75v-7.57m0,11.49v-4.03m0,0v-1.34m18.07,.11v-6.23m0,11.49v-4.03m0,0v-1.34" fill="none" stroke="#000" stroke-linecap="round" stroke-linejoin="round" stroke-width=".22"/><path d="M691.83,897.67h-18.07m18.07-11.49h-18.07m18.07,6.12h-2.72m0,0v1.34m0,0h2.72m-15.35-1.34h-2.72m0,0v1.34m0,0h2.72m-1.36,0h1.36m0,0v-1.34m12.63,.67h-12.63m12.63-.67h-12.63m0,1.34h12.63m-15.35,0h1.36m-1.36,0h0" fill="none" stroke="#000" stroke-linecap="round" stroke-linejoin="round" stroke-width=".25"/><path d="M691.83,893.64v-1.34m0,1.34v-1.34m0,5.37v-4.03m0-1.23v-6.23m-18.07,7.46v-1.34m0,1.34v-1.34m0,5.37v-4.03m0,.11v-7.57m18.07,11.49v-11.49" fill="none" stroke="#000" stroke-linecap="round" stroke-linejoin="round" stroke-width=".22"/></g><g><path d="M614.15,893.75v-7.57m0,11.49v-4.03m0,0v-1.34m17.29,.11v-6.23m0,11.49v-4.03m0,0v-1.34" fill="none" stroke="#000" stroke-linecap="round" stroke-linejoin="round" stroke-width=".22"/><path d="M631.44,897.67h-17.29m17.29-11.49h-17.29m17.29,6.12h-3.19m0,0v1.34m0,0h3.19m-14.09-1.34h-3.2m0,0v1.34m0,0h3.2m-1.6,0h1.6m0,0v-1.34m10.9,.67h-10.9m10.9-.67h-10.9m0,1.34h10.9m-14.1,0h1.6m-1.6,0h0" fill="none" stroke="#000" stroke-linecap="round" stroke-linejoin="round" stroke-width=".25"/><path d="M631.44,893.64v-1.34m0,1.34v-1.34m0,5.37v-4.03m0-1.23v-6.23m-17.29,7.46v-1.34m0,1.34v-1.34m0,5.37v-4.03m0,.11v-7.57m17.29,11.49v-11.49" fill="none" stroke="#000" stroke-linecap="round" stroke-linejoin="round" stroke-width=".22"/></g><path d="M645.13,887.04c.85,2.31,1.08,3.5,1.2,5.97" fill="none" stroke="#000" stroke-linecap="round" stroke-linejoin="round" stroke-width=".25"/><path d="M645.11,886.66l.28,.66-13.74,6.07h-.21v-.71l13.67-6.02h0Z" fill="#2d2d2c" fill-rule="evenodd"/><path d="M648.55,881.69c-1.56,4.26-1.99,6.45-2.22,10.99" fill="none" stroke="#000" stroke-linecap="round" stroke-linejoin="round" stroke-width=".25"/><path d="M648.59,881l-.52,1.22,25.3,11.17h.39v-1.32l-25.17-11.07Z" fill="#2d2d2c" fill-rule="evenodd"/><g><path d="M770.08,893.75v-7.57m0,11.49v-4.03m0,0v-1.34m12.66,.11v-6.23m0,11.49v-4.03m0,0v-1.34" fill="none" stroke="#000" stroke-linecap="round" stroke-linejoin="round" stroke-width=".22"/><path d="M782.74,897.67h-12.66m12.66-11.49h-12.66m12.66,6.12h-2.72m0,0v1.34m0,0h2.72m-9.94-1.34h-2.72m0,0v1.34m0,0h2.72m-1.36,0h1.36m0,0v-1.34m7.22,.67h-7.22m7.22-.67h-7.22m0,1.34h7.22m-9.94,0h1.36m-1.36,0h0" fill="none" stroke="#000" stroke-linecap="round" stroke-linejoin="round" stroke-width=".25"/><path d="M782.74,893.64v-1.34m0,1.34v-1.34m0,5.37v-4.03m0-1.23v-6.23m-12.66,7.46v-1.34m0,1.34v-1.34m0,5.37v-4.03m0,.11v-7.57m12.66,11.49v-11.49" fill="none" stroke="#000" stroke-linecap="round" stroke-linejoin="round" stroke-width=".22"/></g><g><path d="M714.03,893.75v-7.57m0,11.49v-4.03m0,0v-1.34m13.73,.11v-6.23m0,11.49v-4.03m0,0v-1.34" fill="none" stroke="#000" stroke-linecap="round" stroke-linejoin="round" stroke-width=".22"/><path d="M727.76,897.67h-13.73m13.73-11.49h-13.73m13.73,6.12h-3.19m0,0v1.34m0,0h3.19m-10.54-1.34h-3.19m0,0v1.34m0,0h3.19m-1.6,0h1.6m0,0v-1.34m7.35,.67h-7.35m7.35-.67h-7.35m0,1.34h7.35m-10.54,0h1.59m-1.59,0h0" fill="none" stroke="#000" stroke-linecap="round" stroke-linejoin="round" stroke-width=".25"/><path d="M727.76,893.64v-1.34m0,1.34v-1.34m0,5.37v-4.03m0-1.23v-6.23m-13.73,7.46v-1.34m0,1.34v-1.34m0,5.37v-4.03m0,.11v-7.57m13.73,11.49v-11.49" fill="none" stroke="#000" stroke-linecap="round" stroke-linejoin="round" stroke-width=".22"/></g><path d="M741.45,887.04c.85,2.31,1.08,3.5,1.2,5.97" fill="none" stroke="#000" stroke-linecap="round" stroke-linejoin="round" stroke-width=".25"/><path d="M741.43,886.66l.28,.66-13.74,6.07h-.21v-.71l13.67-6.02h0Z" fill="#2d2d2c" fill-rule="evenodd"/><path d="M744.87,881.69c-1.56,4.26-1.99,6.45-2.22,10.99" fill="none" stroke="#000" stroke-linecap="round" stroke-linejoin="round" stroke-width=".25"/><path d="M744.91,881l-.52,1.22,25.3,11.17h.39v-1.32l-25.17-11.07Z" fill="#2d2d2c" fill-rule="evenodd"/><g><path d="M863.98,893.75v-7.57m0,11.49v-4.03m0,0v-1.34m15.38,.11v-6.23m0,11.49v-4.03m0,0v-1.34" fill="none" stroke="#000" stroke-linecap="round" stroke-linejoin="round" stroke-width=".22"/><path d="M879.36,897.67h-15.38m15.38-11.49h-15.38m15.38,6.12h-2.72m0,0v1.34m0,0h2.72m-12.66-1.34h-2.72m0,0v1.34m0,0h2.72m-1.36,0h1.36m0,0v-1.34m9.94,.67h-9.94m9.94-.67h-9.94m0,1.34h9.94m-12.66,0h1.36m-1.36,0h0" fill="none" stroke="#000" stroke-linecap="round" stroke-linejoin="round" stroke-width=".25"/><path d="M879.36,893.64v-1.34m0,1.34v-1.34m0,5.37v-4.03m0-1.23v-6.23m-15.38,7.46v-1.34m0,1.34v-1.34m0,5.37v-4.03m0,.11v-7.57m15.38,11.49v-11.49" fill="none" stroke="#000" stroke-linecap="round" stroke-linejoin="round" stroke-width=".22"/></g><g><path d="M806.23,893.75v-7.57m0,11.49v-4.03m0,0v-1.34m15.43,.11v-6.23m0,11.49v-4.03m0,0v-1.34" fill="none" stroke="#000" stroke-linecap="round" stroke-linejoin="round" stroke-width=".22"/><path d="M821.66,897.67h-15.43m15.43-11.49h-15.43m15.43,6.12h-3.19m0,0v1.34m0,0h3.19m-12.24-1.34h-3.19m0,0v1.34m0,0h3.19m-1.59,0h1.59m0,0v-1.34m9.05,.67h-9.05m9.05-.67h-9.05m0,1.34h9.05m-12.24,0h1.6m-1.6,0h0" fill="none" stroke="#000" stroke-linecap="round" stroke-linejoin="round" stroke-width=".25"/><path d="M821.66,893.64v-1.34m0,1.34v-1.34m0,5.37v-4.03m0-1.23v-6.23m-15.43,7.46v-1.34m0,1.34v-1.34m0,5.37v-4.03m0,.11v-7.57m15.43,11.49v-11.49" fill="none" stroke="#000" stroke-linecap="round" stroke-linejoin="round" stroke-width=".22"/></g><path d="M835.35,887.04c.85,2.31,1.08,3.5,1.2,5.97" fill="none" stroke="#000" stroke-linecap="round" stroke-linejoin="round" stroke-width=".25"/><path d="M835.33,886.66l.28,.66-13.73,6.07h-.22v-.71l13.67-6.02h0Z" fill="#2d2d2c" fill-rule="evenodd"/><path d="M838.78,881.69c-1.56,4.26-1.99,6.45-2.22,10.99" fill="none" stroke="#000" stroke-linecap="round" stroke-linejoin="round" stroke-width=".25"/><path d="M838.81,881l-.51,1.22,25.29,11.17h.39v-1.32l-25.17-11.07Z" fill="#2d2d2c" fill-rule="evenodd"/><g><path d="M959.76,893.75v-7.57m0,11.49v-4.03m0,0v-1.34m15.38,.11v-6.23m0,11.49v-4.03m0,0v-1.34" fill="none" stroke="#000" stroke-linecap="round" stroke-linejoin="round" stroke-width=".22"/><path d="M975.14,897.67h-15.38m15.38-11.49h-15.38m15.38,6.12h-2.72m0,0v1.34m0,0h2.72m-12.67-1.34h-2.72m.01,0v1.34m0,0h2.71m-1.36,0h1.36m0,0v-1.34m9.95,.67h-9.95m9.95-.67h-9.95m0,1.34h9.95m-12.66,0h1.36m-1.36,0h0" fill="none" stroke="#000" stroke-linecap="round" stroke-linejoin="round" stroke-width=".25"/><path d="M975.14,893.64v-1.34m0,1.34v-1.34m0,5.37v-4.03m0-1.23v-6.23m-15.38,7.46v-1.34m0,1.34v-1.34m0,5.37v-4.03m0,.11v-7.57m15.38,11.49v-11.49" fill="none" stroke="#000" stroke-linecap="round" stroke-linejoin="round" stroke-width=".22"/></g><g><path d="M902,893.75v-7.57m0,11.49v-4.03m0,0v-1.34m15.44,.11v-6.23m0,11.49v-4.03m0,0v-1.34" fill="none" stroke="#000" stroke-linecap="round" stroke-linejoin="round" stroke-width=".22"/><path d="M917.44,897.67h-15.44m15.44-11.49h-15.44m15.44,6.12h-3.2m0,0v1.34m0,0h3.2m-12.25-1.34h-3.19m0,0v1.34m0,0h3.19m-1.59,0h1.59m0,0v-1.34m9.05,.67h-9.05m9.05-.67h-9.05m0,1.34h9.05m-12.24,0h1.6m-1.6,0h0" fill="none" stroke="#000" stroke-linecap="round" stroke-linejoin="round" stroke-width=".25"/><path d="M917.44,893.64v-1.34m0,1.34v-1.34m0,5.37v-4.03m0-1.23v-6.23m-15.44,7.46v-1.34m0,1.34v-1.34m0,5.37v-4.03m0,.11v-7.57m15.44,11.49v-11.49" fill="none" stroke="#000" stroke-linecap="round" stroke-linejoin="round" stroke-width=".22"/></g><path d="M931.12,887.04c.85,2.31,1.08,3.5,1.2,5.97" fill="none" stroke="#000" stroke-linecap="round" stroke-linejoin="round" stroke-width=".25"/><path d="M931.11,886.66l.28,.66-13.74,6.07h-.21v-.71l13.67-6.02h0Z" fill="#2d2d2c" fill-rule="evenodd"/><path d="M934.55,881.69c-1.56,4.26-1.99,6.45-2.22,10.99" fill="none" stroke="#000" stroke-linecap="round" stroke-linejoin="round" stroke-width=".25"/><path d="M934.58,881l-.51,1.22,25.29,11.17h.39v-1.32s-25.17-11.07-25.17-11.07Z" fill="#2d2d2c" fill-rule="evenodd"/><g><path d="M1057.5,893.75v-7.57m0,11.49v-4.03m0,0v-1.34m15.38,.11v-6.23m0,11.49v-4.03m0,0v-1.34" fill="none" stroke="#000" stroke-linecap="round" stroke-linejoin="round" stroke-width=".22"/><path d="M1072.88,897.67h-15.38m15.38-11.49h-15.38m15.38,6.12h-2.72m0,0v1.34m0,0h2.72m-12.66-1.34h-2.72m0,0v1.34m0,0h2.72m-1.36,0h1.36m0,0v-1.34m9.94,.67h-9.94m9.94-.67h-9.94m0,1.34h9.94m-12.66,0h1.36m-1.36,0h0" fill="none" stroke="#000" stroke-linecap="round" stroke-linejoin="round" stroke-width=".25"/><path d="M1072.88,893.64v-1.34m0,1.34v-1.34m0,5.37v-4.03m0-1.23v-6.23m-15.38,7.46v-1.34m0,1.34v-1.34m0,5.37v-4.03m0,.11v-7.57m15.38,11.49v-11.49" fill="none" stroke="#000" stroke-linecap="round" stroke-linejoin="round" stroke-width=".22"/></g><g><path d="M997.34,893.75v-7.57m0,11.49v-4.03m0,0v-1.34m17.84,.11v-6.23m0,11.49v-4.03m0,0v-1.34" fill="none" stroke="#000" stroke-linecap="round" stroke-linejoin="round" stroke-width=".22"/><path d="M1015.18,897.67h-17.84m17.84-11.49h-17.84m17.84,6.12h-3.2m0,0v1.34m0,0h3.2m-14.64-1.34h-3.2m0,0v1.34m0,0h3.2m-1.6,0h1.6m0,0v-1.34m11.44,.67h-11.44m11.44-.67h-11.44m0,1.34h11.44m-14.64,0h1.6m-1.6,0h0" fill="none" stroke="#000" stroke-linecap="round" stroke-linejoin="round" stroke-width=".25"/><path d="M1015.18,893.64v-1.34m0,1.34v-1.34m0,5.37v-4.03m0-1.23v-6.23m-17.84,7.46v-1.34m0,1.34v-1.34m0,5.37v-4.03m0,.11v-7.57m17.84,11.49v-11.49" fill="none" stroke="#000" stroke-linecap="round" stroke-linejoin="round" stroke-width=".22"/></g><path d="M1028.87,887.04c.85,2.31,1.08,3.5,1.2,5.97" fill="none" stroke="#000" stroke-linecap="round" stroke-linejoin="round" stroke-width=".25"/><path d="M1028.85,886.66l.28,.66-13.74,6.07h-.21v-.71l13.67-6.02h0Z" fill="#2d2d2c" fill-rule="evenodd"/><path d="M1032.29,881.69c-1.56,4.26-1.99,6.45-2.22,10.99" fill="none" stroke="#000" stroke-linecap="round" stroke-linejoin="round" stroke-width=".25"/><path d="M1032.32,881l-.51,1.22,25.3,11.17h.39v-1.32l-25.18-11.07Z" fill="#2d2d2c" fill-rule="evenodd"/><g><path d="M1150.88,893.75v-7.57m0,11.49v-4.03m0,0v-1.34m15.38,.11v-6.23m0,11.49v-4.03m0,0v-1.34" fill="none" stroke="#000" stroke-linecap="round" stroke-linejoin="round" stroke-width=".22"/><path d="M1166.26,897.67h-15.38m15.38-11.49h-15.38m15.38,6.12h-2.72m0,0v1.34m0,0h2.72m-12.66-1.34h-2.72m0,0v1.34m0,0h2.72m-1.36,0h1.36m0,0v-1.34m9.94,.67h-9.94m9.94-.67h-9.94m0,1.34h9.94m-12.66,0h1.36m-1.36,0h0" fill="none" stroke="#000" stroke-linecap="round" stroke-linejoin="round" stroke-width=".25"/><path d="M1166.26,893.64v-1.34m0,1.34v-1.34m0,5.37v-4.03m0-1.23v-6.23m-15.38,7.46v-1.34m0,1.34v-1.34m0,5.37v-4.03m0,.11v-7.57m15.38,11.49v-11.49" fill="none" stroke="#000" stroke-linecap="round" stroke-linejoin="round" stroke-width=".22"/></g><g><path d="M1096.45,893.75v-7.57m0,11.49v-4.03m0,0v-1.34m12.11,.11v-6.23m0,11.49v-4.03m0,0v-1.34" fill="none" stroke="#000" stroke-linecap="round" stroke-linejoin="round" stroke-width=".22"/><path d="M1108.56,897.67h-12.11m12.11-11.49h-12.11m12.11,6.12h-3.19m0,0v1.34m0,0h3.19m-8.91-1.34h-3.2m0,0v1.34m0,0h3.2m-1.6,0h1.6m0,0v-1.34m5.72,.67h-5.72m5.72-.67h-5.72m0,1.34h5.72m-8.92,0h1.6m-1.6,0h0" fill="none" stroke="#000" stroke-linecap="round" stroke-linejoin="round" stroke-width=".25"/><path d="M1108.56,893.64v-1.34m0,1.34v-1.34m0,5.37v-4.03m0-1.23v-6.23m-12.11,7.46v-1.34m0,1.34v-1.34m0,5.37v-4.03m0,.11v-7.57m12.11,11.49v-11.49" fill="none" stroke="#000" stroke-linecap="round" stroke-linejoin="round" stroke-width=".22"/></g><path d="M1122.25,887.04c.85,2.31,1.08,3.5,1.2,5.97" fill="none" stroke="#000" stroke-linecap="round" stroke-linejoin="round" stroke-width=".25"/><path d="M1122.23,886.66l.28,.66-13.73,6.07h-.22v-.71l13.67-6.02h0Z" fill="#2d2d2c" fill-rule="evenodd"/><path d="M1125.68,881.69c-1.56,4.26-1.99,6.45-2.22,10.99" fill="none" stroke="#000" stroke-linecap="round" stroke-linejoin="round" stroke-width=".25"/><path d="M1125.71,881l-.52,1.22,25.3,11.17h.39v-1.32l-25.17-11.07Z" fill="#2d2d2c" fill-rule="evenodd"/><g><path d="M1242.56,893.75v-7.57m0,11.49v-4.03m0,0v-1.34m15.38,.11v-6.23m0,11.49v-4.03m0,0v-1.34" fill="none" stroke="#000" stroke-linecap="round" stroke-linejoin="round" stroke-width=".22"/><path d="M1257.94,897.67h-15.38m15.38-11.49h-15.38m15.38,6.12h-2.72m0,0v1.34m0,0h2.72m-12.66-1.34h-2.72m0,0v1.34m0,0h2.72m-1.36,0h1.36m0,0v-1.34m9.94,.67h-9.94m9.94-.67h-9.94m0,1.34h9.94m-12.66,0h1.36m-1.36,0h0" fill="none" stroke="#000" stroke-linecap="round" stroke-linejoin="round" stroke-width=".25"/><path d="M1257.94,893.64v-1.34m0,1.34v-1.34m0,5.37v-4.03m0-1.23v-6.23m-15.38,7.46v-1.34m0,1.34v-1.34m0,5.37v-4.03m0,.11v-7.57m15.38,11.49v-11.49" fill="none" stroke="#000" stroke-linecap="round" stroke-linejoin="round" stroke-width=".22"/></g><g><path d="M1187.33,893.75v-7.57m0,11.49v-4.03m0,0v-1.34m12.91,.11v-6.23m0,11.49v-4.03m0,0v-1.34" fill="none" stroke="#000" stroke-linecap="round" stroke-linejoin="round" stroke-width=".22"/><path d="M1200.24,897.67h-12.91m12.91-11.49h-12.91m12.91,6.12h-3.19m0,0v1.34m0,0h3.19m-9.71-1.34h-3.2m0,0v1.34m0,0h3.2m-1.6,0h1.6m0,0v-1.34m6.52,.67h-6.52m6.52-.67h-6.52m0,1.34h6.52m-9.72,0h1.6m-1.6,0h0" fill="none" stroke="#000" stroke-linecap="round" stroke-linejoin="round" stroke-width=".25"/><path d="M1200.24,893.64v-1.34m0,1.34v-1.34m0,5.37v-4.03m0-1.23v-6.23m-12.91,7.46v-1.34m0,1.34v-1.34m0,5.37v-4.03m0,.11v-7.57m12.91,11.49v-11.49" fill="none" stroke="#000" stroke-linecap="round" stroke-linejoin="round" stroke-width=".22"/></g><path d="M1213.93,887.04c.85,2.31,1.08,3.5,1.2,5.97" fill="none" stroke="#000" stroke-linecap="round" stroke-linejoin="round" stroke-width=".25"/><path d="M1213.91,886.66l.28,.66-13.73,6.07h-.22v-.71l13.67-6.02h0Z" fill="#2d2d2c" fill-rule="evenodd"/><path d="M1217.36,881.69c-1.56,4.26-1.99,6.45-2.22,10.99" fill="none" stroke="#000" stroke-linecap="round" stroke-linejoin="round" stroke-width=".25"/><path d="M1217.39,881l-.52,1.22,25.3,11.17h.39v-1.32l-25.17-11.07Z" fill="#2d2d2c" fill-rule="evenodd"/><g><path d="M1335.08,893.75v-7.57m0,11.49v-4.03m0,0v-1.34m14.53,.11v-6.23m0,11.49v-4.03m0,0v-1.34" fill="none" stroke="#000" stroke-linecap="round" stroke-linejoin="round" stroke-width=".22"/><path d="M1349.61,897.67h-14.53m14.53-11.49h-14.53m14.53,6.12h-2.72m0,0v1.34m0,0h2.72m-11.81-1.34h-2.72m0,0v1.34m0,0h2.72m-1.36,0h1.36m0,0v-1.34m9.09,.67h-9.09m9.09-.67h-9.09m0,1.34h9.09m-11.81,0h1.36m-1.36,0h0" fill="none" stroke="#000" stroke-linecap="round" stroke-linejoin="round" stroke-width=".25"/><path d="M1349.61,893.64v-1.34m0,1.34v-1.34m0,5.37v-4.03m0-1.23v-6.23m-14.53,7.46v-1.34m0,1.34v-1.34m0,5.37v-4.03m0,.11v-7.57m14.53,11.49v-11.49" fill="none" stroke="#000" stroke-linecap="round" stroke-linejoin="round" stroke-width=".22"/></g><g><path d="M1279.85,893.75v-7.57m0,11.49v-4.03m0,0v-1.34m12.91,.11v-6.23m0,11.49v-4.03m0,0v-1.34" fill="none" stroke="#000" stroke-linecap="round" stroke-linejoin="round" stroke-width=".22"/><path d="M1292.76,897.67h-12.91m12.91-11.49h-12.91m12.91,6.12h-3.19m0,0v1.34m0,0h3.19m-9.71-1.34h-3.2m0,0v1.34m0,0h3.2m-1.6,0h1.6m0,0v-1.34m6.52,.67h-6.52m6.52-.67h-6.52m0,1.34h6.52m-9.72,0h1.6m-1.6,0h0" fill="none" stroke="#000" stroke-linecap="round" stroke-linejoin="round" stroke-width=".25"/><path d="M1292.76,893.64v-1.34m0,1.34v-1.34m0,5.37v-4.03m0-1.23v-6.23m-12.91,7.46v-1.34m0,1.34v-1.34m0,5.37v-4.03m0,.11v-7.57m12.91,11.49v-11.49" fill="none" stroke="#000" stroke-linecap="round" stroke-linejoin="round" stroke-width=".22"/></g><path d="M1306.45,887.04c.85,2.31,1.08,3.5,1.2,5.97" fill="none" stroke="#000" stroke-linecap="round" stroke-linejoin="round" stroke-width=".25"/><path d="M1306.43,886.66l.28,.66-13.74,6.07h-.21v-.71l13.67-6.02h0Z" fill="#2d2d2c" fill-rule="evenodd"/><path d="M1309.87,881.69c-1.56,4.26-1.99,6.45-2.22,10.99" fill="none" stroke="#000" stroke-linecap="round" stroke-linejoin="round" stroke-width=".25"/><path d="M1309.91,881l-.52,1.22,25.3,11.17h.39v-1.32l-25.17-11.07Z" fill="#2d2d2c" fill-rule="evenodd"/><path d="M152.03,141.59h57.79v16.39h-57.79v-16.39Zm1200.69,0h51.49v16.39h-51.49v-16.39Zm31.25,179.28h16.39v16.13h-16.39v-16.13Zm.72,96.5h16.39v18.3h-16.39v-18.3Z" fill="#2d2d2c"/><path d="M1371.11,408.57h16.75v29.89h-16.75v-29.89Z" fill="#2d2d2c"/><path d="M1387.86,548.17h-16.75v-27.62l16.75-2.04v29.66Zm0,110.76h-16.75l-.02-27.06,16.77-3.31v30.37Zm0,93.99h-16.75l-.02-26,16.77-3.18v29.18Zm0,93.42h-16.75l-.02-25.99,16.77-3.18v29.17Zm0,109.51h-20.51l-.02-55.87,20.53-7.57v63.44Z" fill="#2d2d2c" fill-rule="evenodd"/><path d="M1384.69,527.54h16.39v19.38h-16.39v-19.38Zm0,109.75h16.39v13.6h-16.39v-13.6Zm0,96.5h16.39v10.6h-16.39v-10.6Zm0,96.67h16.39v10.92h-16.39v-10.92Z" fill="#2d2d2c"/><path d="M167.96,837.89h16.69l.02-33.28-16.71-.29v33.57h0Zm0-93.5h16.69l.02-33.28-16.71-.29v33.57h0Zm0-95.12h16.69l.02-30.9-16.71-1.05v31.95h0Zm0-108.12h16.69l.02-33.42-16.67-.88-.04,34.3h0Zm0-110.73h16.69l.02-34.25-16.67,.28-.04,33.97h0Zm0-92.75h16.69l.02-33.65-16.67,.61-.04,33.04h0Zm1.95,618.18h20.68l.03-66.55h-20.71v66.55Z" fill="#2d2d2c" fill-rule="evenodd"/><path d="M206.22,901.84v-15.64l-33.38-.02v15.66h33.38Zm112.27,0v-15.64l-29.31-.02v15.66h29.31Zm109.34,0v-15.64l-22.95-.02v15.66h22.95Z" fill="#2d2d2c" fill-rule="evenodd"/><path d="M417.86,896.09v-58.18l-6.57-.07v58.25h6.57Zm103,5.75v-15.64l-22.33-.02v15.66h22.33Zm93.29,0v-15.64l-22.58-.02v15.66h22.58Zm99.88,0v-15.64l-22.2-.02v15.66h22.2Zm92.2,0v-15.64l-23.49-.02v15.66h23.49Zm95.77,0v-15.64l-22.64-.02v15.66h22.64Zm95.34,0v-15.64l-22.2-.02v15.66h22.2Zm99.11,0v-15.64l-23.57-.02v15.66h23.57Zm90.88,0v-15.64l-21.07-.02v15.66h21.07Zm92.52,0v-15.64l-21.91-.02v15.66h21.91Zm102.19,0v-15.64l-32.43-.02v15.66h32.43Z" fill="#2d2d2c" fill-rule="evenodd"/><path d="M156.69,820.52h16.39v17.37h-16.39v-17.37Zm0-93.17h16.39v13.35h-16.39v-13.35Zm0-93.38h16.39v13.23h-16.39v-13.23Zm0-110.33h16.39v13.85h-16.39v-13.85Zm0-112.16h16.39v15.3h-16.39v-15.3Zm0-92.66h16.39v19.32h-16.39v-19.32Zm1204.18-7.64h27.85v21.28h-27.85v-21.28ZM411.33,176.09h7.25v74.25h-7.25v-74.25Zm369.51-5.15h6.52v78.9h-6.52v-78.9Zm391.05,666.9h7.23v54.84h-7.23v-54.84Zm-380.69,0h6.57v55.8h-6.57v-55.8Zm-191.63,0h6.57v55.8h-6.57v-55.8Zm696.17-289.67v-6.77h91.91v6.77h-91.91Zm-1117.98-7.01v-8.47h83.9v8.47h-83.9Zm232.8-71.15h8.47v179.21h-8.47v-179.21Zm0-62.25h8.47v31.61h-8.47v-31.61Zm676.6,67.74h6.08v179.67h-6.08v-179.67Zm-675.87,211.89h7.74v20.07h-7.74v-20.07Z" fill="#2d2d2c"/><path d="M417.41,699.51h98.74v7.96h-98.74v-7.96Zm129.62,0h96.29v7.96h-96.29v-7.96Zm126.7,0h293.13v7.96h-293.13v-7.96Zm323.57,0h175.71v7.96h-175.71v-7.96Zm92.9-157.53h49.37v6.19h-49.37v-6.19Zm-674.72-127.89v-6.33h185.18v6.33h-185.18Zm216.56,.59v-6.33h280.26v6.33h-280.26Zm308.97,0v-6.33h156.53v6.33h-156.53Z" fill="#2d2d2c"/><g><path d="M1185.24,955.85h1.35" fill="none" stroke="#000" stroke-linecap="round" stroke-linejoin="round" stroke-width=".22"/><path d="M1186.59,1007.02h-1.35m0,0v1.52h1.35v-1.52m0-49.11v-2.06m0,0h-1.35m0,0v2.06m0-1.03v1.03m0,0h1.35m-.67,49.11v-49.11m.67,49.11v-49.11m-1.35,0v49.11m0-51.17v1.03m0-1.03h0" fill="none" stroke="#000" stroke-linecap="round" stroke-linejoin="round" stroke-width=".25"/><path d="M1185.24,955.85h1.35m-1.35,0h1.35" fill="none" stroke="#000" stroke-linecap="round" stroke-linejoin="round" stroke-width=".22"/></g><g><path d="M785.52,955.85h1.35" fill="none" stroke="#000" stroke-linecap="round" stroke-linejoin="round" stroke-width=".22"/><path d="M786.87,1007.02h-1.35m0,0v1.52h1.35v-1.52m0-49.11v-2.06m0,0h-1.35m0,0v2.06m0-1.03v1.03m0,0h1.35m-.67,49.11v-49.11m.67,49.11v-49.11m-1.35,0v49.11m0-51.17v1.03m0-1.03h0" fill="none" stroke="#000" stroke-linecap="round" stroke-linejoin="round" stroke-width=".25"/><path d="M785.52,955.85h1.35m-1.35,0h1.35" fill="none" stroke="#000" stroke-linecap="round" stroke-linejoin="round" stroke-width=".22"/></g><g><path d="M602.28,955.85h1.35" fill="none" stroke="#000" stroke-linecap="round" stroke-linejoin="round" stroke-width=".22"/><path d="M603.62,1007.02h-1.34m0,0v1.52h1.34v-1.52m0-49.11v-2.06m0,0h-1.35m0,0v2.06m0-1.03v1.03m0,0h1.35m-.68,49.11v-49.11m.67,49.11v-49.11m-1.34,0v49.11m0-51.17v1.03m0-1.03h0" fill="none" stroke="#000" stroke-linecap="round" stroke-linejoin="round" stroke-width=".25"/><path d="M602.28,955.85h1.35m-1.35,0h1.35" fill="none" stroke="#000" stroke-linecap="round" stroke-linejoin="round" stroke-width=".22"/></g><g><path d="M418.95,955.85h1.35" fill="none" stroke="#000" stroke-linecap="round" stroke-linejoin="round" stroke-width=".22"/><path d="M420.3,1007.02h-1.35m0,0v1.52h1.35v-1.52m0-49.11v-2.06m0,0h-1.35m0,0v2.06m0-1.03v1.03m0,0h1.35m-.67,49.11v-49.11m.67,49.11v-49.11m-1.35,0v49.11m0-51.17v1.03m0-1.03h0" fill="none" stroke="#000" stroke-linecap="round" stroke-linejoin="round" stroke-width=".25"/><path d="M418.95,955.85h1.35m-1.35,0h1.35" fill="none" stroke="#000" stroke-linecap="round" stroke-linejoin="round" stroke-width=".22"/></g></g></svg>