<?xml version="1.0" encoding="UTF-8"?><svg id="_Слой_1" xmlns="http://www.w3.org/2000/svg" viewBox="0 0 1556.82 1178.99"><path id="Fon" d="M0,0H1556.82V1178.99H0V0Z" fill="#fff"/><polygon id="_553" points="418.92 333.11 417.42 179.41 388.82 177.21 336.22 165.11 311.02 153.31 287.22 159.01 233.22 159.01 169.62 153.51 172.32 168.51 172.32 206.11 169.12 235.01 178.32 260.71 187.92 302.01 170.82 329.21 178.12 343.51 188.02 394.31 188.12 421.21 169.72 430.41 179.52 444.71 188.12 505.61 183.12 525.81 184.62 537.21 418.72 537.21 422.52 477.01 422.92 477.01 422.92 471.01 422.92 415.11 418.92 333.11" fill="none" stroke="#000" stroke-miterlimit="10"/><polygon id="_554" points="786.62 177.31 761.12 177.71 708.72 164.61 689.32 153.61 676.52 164.21 624.12 177.31 575.52 177.71 523.12 164.61 509.22 152.21 492.72 164.21 440.32 177.31 418.92 181.21 420.62 331.61 418.72 389.51 421.72 415.01 604.62 415.11 635.92 415.71 678.52 412.51 685.42 404.71 790.12 405.21 790.12 189.91 786.62 177.31" fill="none" fill-rule="evenodd" stroke="#000" stroke-miterlimit="10"/><polygon id="_555" points="1065.62 415.01 1065.62 156.61 1064.92 156.21 1047.02 164.21 994.62 177.31 969.92 179.91 944.82 177.71 892.42 164.61 874.22 154.91 862.02 164.21 809.72 177.31 790.12 176.91 790.12 193.51 790.12 405.21 902.62 405.21 902.92 415.71 1065.62 415.01" fill="none" fill-rule="evenodd" stroke="#000" stroke-miterlimit="10"/><polygon id="_556" points="1384.42 267.41 1396.02 233.11 1391.72 209.61 1391.72 172.11 1394.72 157.61 1368.42 153.51 1331.42 159.01 1277.42 159.01 1254.22 155.61 1234.72 164.21 1182.32 177.31 1157.92 178.51 1130.62 177.71 1078.22 164.61 1066.82 159.91 1066.82 415.71 1137.42 415.71 1137.42 545.11 1381.52 544.21 1376.12 514.91 1385.62 454.21 1392.82 436.71 1375.52 406.71 1385.02 353.11 1392.12 334.31 1375.62 308.81 1384.42 267.41" fill="none" fill-rule="evenodd" stroke="#000" stroke-miterlimit="10"/><polygon id="_557" points="1094.12 703.81 1091.12 690.51 1091.12 659.61 1095.92 545.81 1394.42 545.81 1385.92 563.81 1376.32 624.51 1396.32 652.01 1385.12 670.01 1376.12 721.61 1394.12 747.61 1385.22 763.21 1376.12 814.81 1392.32 842.81 1383.42 909.11 1390.12 952.01 1390.42 955.51 1190.52 955.51 1190.52 895.71 1180.02 895.71 1180.02 704.61 1094.12 703.81" fill="none" stroke="#000" stroke-miterlimit="10"/><polygon id="_558" points="1179.42 700.51 797.92 700.51 797.92 895.01 790.12 901.51 790.02 955.51 1189.12 955.51 1189.12 901.31 1179.42 894.01 1179.42 700.51" fill="none" stroke="#000" stroke-miterlimit="10"/><polygon id="_559" points="797.72 700.51 607.52 700.51 606.82 955.51 607.52 955.51 607.52 955.51 789.22 955.51 789.92 902.21 798.42 896.71 797.72 700.51" fill="none" stroke="#000" stroke-miterlimit="10"/><polygon id="_560" points="606.82 888.71 604.22 700.51 419.12 700.51 419.82 888.01 423.42 891.71 423.42 955.51 424.22 955.51 606.22 955.51 606.82 955.51 606.82 888.71" fill="none" stroke="#000" stroke-miterlimit="10"/><polygon id="_561" points="497.52 702.61 497.52 657.81 495.12 588.71 418.72 588.71 418.72 538.51 348.12 538.51 172.72 538.51 179.52 555.21 188.12 616.01 174.02 647.61 178.82 657.41 188.02 709.01 171.32 737.71 178.82 750.91 188.02 802.51 170.62 833.61 174.62 848.91 179.42 886.11 194.52 955.51 423.42 955.51 423.52 900.81 419.12 888.01 421.22 702.61 497.52 702.61" fill="none" fill-rule="evenodd" stroke="#000" stroke-miterlimit="10"/><g id="Walls_Inside"><path d="M599.56,703.99h6.57v132.88h-6.57v-132.88Zm191.62,0h6.57v132.88h-6.57v-132.88ZM411.31,249.37h7.25v160.87h-7.25V249.37Zm369.51-.5h6.52v161.67h-6.52V248.87Zm277.25-96h7.8V409.87h-7.8V152.87Zm77.74,394.33v-6.77h159.92v6.77h-159.92Zm-42.58,107.55v2.83h-6.08v-2.83h6.08Zm0,33.81v11.96h-6.08v-11.96h6.08Zm-831.59-148.38v-8.47h150.02v8.47h-150.02Z" fill="#2d2d2c"/><path d="M410.54,385.06h2.83v26.06h-2.83v-26.06Zm761.34,313.47h7.23v138.33h-7.23v-138.33Zm-387.4,191.5h3.4v63.48h-3.4v-63.48Zm400,0h2.83v64.85h-2.83v-64.85Zm-583.23,7.25h3.37v56.25h-3.37v-56.25Zm-183.3-4.24h3.32v60.49h-3.32v-60.49Zm-6.68-189.05h6.57v132.88h-6.57v-132.88Z" fill="#2d2d2c"/></g><g id="Walls_Outside"><path d="M173.21,302.45l10.73-2.48m-15.97,3.69l3.93-.91m0,0l1.31-.3m-9.53-41.28l10.73-2.48m-15.97,3.69l3.93-.91m0,0l1.31-.3" fill="none" stroke="#000" stroke-linecap="round" stroke-linejoin="round" stroke-width=".22"/><path d="M158.44,262.38l9.53,41.28m6.44-44.97l9.53,41.28m-20.26-38.8l.54,2.36m0,0l-1.3,.3m0,0l-.55-2.36m5.45,23.59l-.28-1.18m0,0l1.31-.3m0,0l.28,1.18m-5.56-21.08l4.63,20.05m-3.98-20.2l4.63,20.05m-1.31,.3l-4.62-20.05m6.21,20.93l.13,.59m0,0l-.65,.15m0,0l.13,.59m0,0l-.65,.15m0,0l-.27-1.18m4.08,17.69l-.54-2.36m0,0l.65-.15m0,0l.14,.59m0,0l.65-.15m0,0l.41,1.77m-1.85-2.06l-3.27-14.15m2.23,.73l2.73,11.79m-3.13-13.56l.4,1.77m0,0l-1.3,.3m0,0l-.41-1.77m0,0l1.31-.3m2.23,15.63l-.41-1.77m0,0l1.31-.3m0,0l.41,1.77m0,0l-1.31,.3m-.41-1.77l-2.72-11.79m1.3-.3l2.73,11.79m-3.38-11.64l2.72,11.79" fill="none" stroke="#000" stroke-linecap="round" stroke-linejoin="round" stroke-width=".25"/><path d="M162.37,261.47l1.31-.3m-1.31,.3l1.31-.3m-5.24,1.21l3.93-.91m1.31-.3l10.73-2.48m-2.51,44.06l1.31-.3m-1.31,.3l1.31-.3m-5.24,1.21l3.93-.91m1.31-.3l10.73-2.48m-25.5-37.59l15.97-3.69" fill="none" stroke="#000" stroke-linecap="round" stroke-linejoin="round" stroke-width=".22"/><path d="M184.36,301.8l.29,1.25-15.97,3.68-.71-3.07,15.97-3.69,.29,1.25,.13,.58h0Z" fill="#2d2d2c" fill-rule="evenodd"/><path d="M152.01,234.49l15.97-3.69,6.44,27.88-15.97,3.69-6.44-27.88Z" fill="#2d2d2c"/><path d="M334.76,152.39l-2.48,10.73m3.69-15.97l-.91,3.93m0,0l-.3,1.31m52.6,12.14l-2.47,10.73m3.68-15.96l-.9,3.92m0,0l-.31,1.31" fill="none" stroke="#000" stroke-linecap="round" stroke-linejoin="round" stroke-width=".22"/><path d="M388.57,159.3l-52.6-12.15m48.92,28.11l-52.61-12.14m55.08,1.41l-3-.69m0,0l.3-1.31m0,0l3.01,.69m-30.06-6.94l1.5,.35m0,0l-.3,1.31m0,0l-1.5-.35m27.2,5.59l-25.55-5.9m25.4,6.56l-25.55-5.9m.3-1.31l25.55,5.9m-27.35-4.94l-.76-.17m0,0l.16-.66m0,0l-.76-.17m0,0l.15-.65m0,0l1.51,.34m-22.55-5.2l2.36,.54m0,0l-.15,.66m0,0l-.59-.14m0,0l-.15,.66m0,0l-1.77-.41m2.66-.77l18.68,4.32m-1.95,1.61l-15.03-3.47m17.28,3.99l-2.25-.52m0,0l.3-1.31m0,0l2.26,.52m0,0l-.31,1.31m-19.72-5.93l1.77,.41m0,0l-.3,1.31m0,0l-1.77-.41m0,0l.3-1.31m1.77,.41l16,3.69m-.3,1.31l-16-3.69m16.15,3.04l-16-3.7" fill="none" stroke="#000" stroke-linecap="round" stroke-linejoin="round" stroke-width=".25"/><path d="M387.67,163.22l-.31,1.31m.31-1.31l-.31,1.31m1.21-5.23l-.9,3.92m-.31,1.31l-2.47,10.73m-49.83-24.18l-.3,1.31m.3-1.31l-.3,1.31m1.21-5.24l-.91,3.93m-.3,1.31l-2.48,10.73m56.29-3.82l-3.68,15.96" fill="none" stroke="#000" stroke-linecap="round" stroke-linejoin="round" stroke-width=".22"/><path d="M315.5,159.24l-11.5-2.65,3.68-15.97,28.29,6.53-3.69,15.97-11.5-2.66-5.28-1.22Z" fill="#2d2d2c" fill-rule="evenodd"/><path d="M384.88,175.26l3.69-15.97,32.63,7.53-3.69,15.97-32.63-7.53Z" fill="#2d2d2c"/><path d="M521.86,151.97l-2.67,10.69m3.97-15.9l-.98,3.91m0,0l-.32,1.3m52.38,13.06l-2.66,10.69m3.96-15.9l-.97,3.91m0,0l-.33,1.3" fill="none" stroke="#000" stroke-linecap="round" stroke-linejoin="round" stroke-width=".22"/><path d="M575.54,159.82l-52.38-13.06m48.42,28.96l-52.39-13.06m55.05,2.37l-2.99-.74m0,0l.32-1.31m0,0l3,.75m-29.94-7.46l1.5,.37m0,0l-.33,1.3m0,0l-1.49-.37m27.1,6.07l-25.44-6.35m25.28,7l-25.45-6.35m.33-1.3l25.44,6.34m-27.26-5.41l-.75-.19m0,0l.16-.65m0,0l-.75-.18m0,0l.17-.66m0,0l1.49,.38m-22.45-5.6l2.35,.58m0,0l-.16,.65m0,0l-.59-.15m0,0l-.16,.65m0,0l-1.76-.44m2.67-.72l18.61,4.64m-1.99,1.59l-14.96-3.74m17.21,4.3l-2.25-.56m0,0l.33-1.31m0,0l2.24,.56m0,0l-.32,1.3m-19.62-6.27l1.76,.44m0,0l-.32,1.3m0,0l-1.76-.44m0,0l.32-1.3m1.76,.44l15.94,3.97m-.33,1.31l-15.93-3.98m16.09,3.32l-15.93-3.97" fill="none" stroke="#000" stroke-linecap="round" stroke-linejoin="round" stroke-width=".25"/><path d="M574.57,163.73l-.33,1.3m.33-1.3l-.33,1.3m1.3-5.21l-.97,3.91m-.33,1.3l-2.66,10.69m-49.4-25.05l-.32,1.3m.32-1.3l-.32,1.3m1.3-5.21l-.98,3.91m-.32,1.3l-2.67,10.69m56.35-2.84l-3.96,15.9" fill="none" stroke="#000" stroke-linecap="round" stroke-linejoin="round" stroke-width=".22"/><path d="M507.32,159.7l-8.14-2.03,3.97-15.9,20.01,4.99-3.97,15.9-8.14-2.03-3.73-.93h0Z" fill="#2d2d2c" fill-rule="evenodd"/><path d="M571.57,175.71l3.97-15.9,26.21,6.53-3.97,15.9-26.21-6.53Z" fill="#2d2d2c"/><path d="M707.46,151.97l-2.67,10.69m3.97-15.9l-.98,3.91m0,0l-.32,1.3m52.38,13.06l-2.67,10.69m3.97-15.9l-.98,3.91m0,0l-.32,1.3" fill="none" stroke="#000" stroke-linecap="round" stroke-linejoin="round" stroke-width=".22"/><path d="M761.14,159.82l-52.38-13.06m48.41,28.96l-52.38-13.06m55.05,2.37l-2.99-.74m0,0l.32-1.31m0,0l2.99,.75m-29.93-7.46l1.5,.37m0,0l-.33,1.3m0,0l-1.49-.37m27.1,6.07l-25.44-6.35m25.28,7l-25.45-6.35m.33-1.3l25.44,6.34m-27.26-5.41l-.75-.19m0,0l.16-.65m0,0l-.75-.18m0,0l.16-.66m0,0l1.5,.38m-22.45-5.6l2.35,.58m0,0l-.16,.65m0,0l-.59-.15m0,0l-.16,.65m0,0l-1.76-.44m2.67-.72l18.6,4.64m-1.98,1.59l-14.97-3.74m17.22,4.3l-2.25-.56m0,0l.33-1.31m0,0l2.24,.56m0,0l-.32,1.3m-19.62-6.27l1.76,.44m0,0l-.32,1.3m0,0l-1.76-.44m0,0l.32-1.3m1.76,.44l15.94,3.97m-.33,1.31l-15.93-3.98m16.09,3.32l-15.93-3.97" fill="none" stroke="#000" stroke-linecap="round" stroke-linejoin="round" stroke-width=".25"/><path d="M760.16,163.73l-.32,1.3m.32-1.3l-.32,1.3m1.3-5.21l-.98,3.91m-.32,1.3l-2.67,10.69m-49.39-25.05l-.32,1.3m.32-1.3l-.32,1.3m1.3-5.21l-.98,3.91m-.32,1.3l-2.67,10.69m56.35-2.84l-3.97,15.9" fill="none" stroke="#000" stroke-linecap="round" stroke-linejoin="round" stroke-width=".22"/><path d="M692.4,159.57l-8.49-2.12,3.97-15.9,20.88,5.21-3.97,15.9-8.49-2.12-3.9-.97h0Z" fill="#2d2d2c" fill-rule="evenodd"/><path d="M757.15,175.72l3.97-15.9,26.21,6.53-3.97,15.9-26.21-6.53Z" fill="#2d2d2c"/><path d="M891.13,151.97l-2.66,10.69m3.96-15.9l-.97,3.91m0,0l-.33,1.3m52.39,13.06l-2.67,10.69m3.97-15.9l-.98,3.91m0,0l-.32,1.3" fill="none" stroke="#000" stroke-linecap="round" stroke-linejoin="round" stroke-width=".22"/><path d="M944.82,159.82l-52.39-13.06m48.42,28.96l-52.38-13.06m55.05,2.37l-3-.74m0,0l.33-1.31m0,0l2.99,.75m-29.93-7.46l1.49,.37m0,0l-.32,1.3m0,0l-1.5-.37m27.1,6.07l-25.44-6.35m25.28,7l-25.44-6.35m.32-1.3l25.45,6.34m-27.27-5.41l-.75-.19m0,0l.17-.65m0,0l-.75-.18m0,0l.16-.66m0,0l1.5,.38m-22.45-5.6l2.35,.58m0,0l-.17,.65m0,0l-.58-.15m0,0l-.17,.65m0,0l-1.76-.44m2.68-.72l18.6,4.64m-1.98,1.59l-14.97-3.74m17.21,4.3l-2.24-.56m0,0l.32-1.31m0,0l2.25,.56m0,0l-.33,1.3m-19.61-6.27l1.76,.44m0,0l-.33,1.3m0,0l-1.76-.44m0,0l.33-1.3m1.76,.44l15.93,3.97m-.32,1.31l-15.94-3.98m16.1,3.32l-15.93-3.97" fill="none" stroke="#000" stroke-linecap="round" stroke-linejoin="round" stroke-width=".25"/><path d="M943.84,163.73l-.32,1.3m.32-1.3l-.32,1.3m1.3-5.21l-.98,3.91m-.32,1.3l-2.67,10.69m-49.39-25.05l-.33,1.3m.33-1.3l-.33,1.3m1.3-5.21l-.97,3.91m-.33,1.3l-2.66,10.69m56.35-2.84l-3.97,15.9" fill="none" stroke="#000" stroke-linecap="round" stroke-linejoin="round" stroke-width=".22"/><path d="M876.63,159.71l-8.12-2.03,3.97-15.9,19.95,4.98-3.96,15.9-8.12-2.02-3.72-.93Z" fill="#2d2d2c" fill-rule="evenodd"/><path d="M940.83,175.71l3.97-15.9,26.21,6.53-3.97,15.9-26.21-6.53Z" fill="#2d2d2c"/><path d="M1077,151.97l-2.66,10.69m3.96-15.9l-.98,3.91m0,0l-.32,1.3m52.38,13.06l-2.66,10.69m3.96-15.9l-.97,3.91m0,0l-.33,1.3" fill="none" stroke="#000" stroke-linecap="round" stroke-linejoin="round" stroke-width=".22"/><path d="M1130.68,159.82l-52.38-13.06m48.42,28.96l-52.38-13.06m55.04,2.37l-2.99-.74m0,0l.32-1.31m0,0l3,.75m-29.94-7.46l1.5,.37m0,0l-.32,1.3m0,0l-1.5-.37m27.1,6.07l-25.44-6.35m25.28,7l-25.44-6.35m.32-1.3l25.44,6.34m-27.26-5.41l-.75-.19m0,0l.16-.65m0,0l-.74-.18m0,0l.16-.66m0,0l1.49,.38m-22.45-5.6l2.35,.58m0,0l-.16,.65m0,0l-.59-.15m0,0l-.16,.65m0,0l-1.76-.44m2.67-.72l18.61,4.64m-1.99,1.59l-14.96-3.74m17.21,4.3l-2.25-.56m0,0l.33-1.31m0,0l2.24,.56m0,0l-.32,1.3m-19.62-6.27l1.77,.44m0,0l-.33,1.3m0,0l-1.76-.44m0,0l.32-1.3m1.77,.44l15.93,3.97m-.33,1.31l-15.93-3.98m16.1,3.32l-15.94-3.97" fill="none" stroke="#000" stroke-linecap="round" stroke-linejoin="round" stroke-width=".25"/><path d="M1129.71,163.73l-.33,1.3m.33-1.3l-.33,1.3m1.3-5.21l-.97,3.91m-.33,1.3l-2.66,10.69m-49.4-25.05l-.32,1.3m.32-1.3l-.32,1.3m1.3-5.21l-.98,3.91m-.32,1.3l-2.66,10.69m56.34-2.84l-3.96,15.9" fill="none" stroke="#000" stroke-linecap="round" stroke-linejoin="round" stroke-width=".22"/><path d="M1062.21,159.64l-8.3-2.07,3.96-15.91,20.43,5.1-3.97,15.9-8.3-2.07-3.82-.95h0Z" fill="#2d2d2c" fill-rule="evenodd"/><path d="M1126.7,175.71l3.96-15.9,26.21,6.53-3.97,15.9-26.21-6.53Z" fill="#2d2d2c"/><path d="M229.32,145.99v11.02m0-16.39v4.03m0,0v1.34m53.99,0v11.02m0-16.39v4.03m0,0v1.34" fill="none" stroke="#000" stroke-linecap="round" stroke-linejoin="round" stroke-width=".22"/><path d="M283.31,140.62h-53.99m53.99,16.39h-53.99m53.99-11.02h-3.09m0,0v-1.34m0,0h3.09m-30.85,0h1.54m0,0v1.34m0,0h-1.54m27.76-.67h-26.22m26.22,.67h-26.22m0-1.34h26.22m-27.76,1.34h-.77m0,0v-.67m0,0h-.78m0,0v-.67m0,0h1.54m-23.14,0h2.42m0,0v.67m0,0h-.6m0,0v.67m0,0h-1.82m2.42-1.34h19.18m-1.55,2.01h-15.42m17.74,0h-2.32m0,0v-1.34m0,0h2.32m0,0v1.34m-20.55-1.34h1.81m0,0v1.34m0,0h-1.81m0,0v-1.34m1.81,0h16.42m0,1.34h-16.42m16.42-.67h-16.42" fill="none" stroke="#000" stroke-linecap="round" stroke-linejoin="round" stroke-width=".25"/><path d="M283.31,144.65v1.34m0-1.34v1.34m0-5.37v4.03m0,1.34v11.02m-53.99-12.36v1.34m0-1.34v1.34m0-5.37v4.03m0,1.34v11.02m53.99-16.39v16.39" fill="none" stroke="#000" stroke-linecap="round" stroke-linejoin="round" stroke-width=".22"/><path d="M212.45,157.01h-11.56v-16.39h28.43v16.39h-16.87Z" fill="#2d2d2c" fill-rule="evenodd"/><path d="M283.31,140.62h24.38v16.39h-24.38v-16.39Z" fill="#2d2d2c"/><path d="M1273.51,145.99v11.02m0-16.39v4.03m0,0v1.34m53.98,0v11.02m0-16.39v4.03m0,0v1.34" fill="none" stroke="#000" stroke-linecap="round" stroke-linejoin="round" stroke-width=".22"/><path d="M1327.49,140.62h-53.98m53.98,16.39h-53.98m53.98-11.02h-3.08m0,0v-1.34m0,0h3.08m-30.85,0h1.55m0,0v1.34m0,0h-1.55m27.77-.67h-26.22m26.22,.67h-26.22m0-1.34h26.22m-27.77,1.34h-.77m0,0v-.67m0,0h-.77m0,0v-.67m0,0h1.54m-23.13,0h2.42m0,0v.67m0,0h-.61m0,0v.67m0,0h-1.81m2.42-1.34h19.17m-1.54,2.01h-15.43m17.74,0h-2.31m0,0v-1.34m0,0h2.31m0,0v1.34m-20.55-1.34h1.82m0,0v1.34m0,0h-1.82m0,0v-1.34m1.82,0h16.42m0,1.34h-16.42m16.42-.67h-16.42" fill="none" stroke="#000" stroke-linecap="round" stroke-linejoin="round" stroke-width=".25"/><path d="M1327.49,144.65v1.34m0-1.34v1.34m0-5.37v4.03m0,1.34v11.02m-53.98-12.36v1.34m0-1.34v1.34m0-5.37v4.03m0,1.34v11.02m53.98-16.39v16.39" fill="none" stroke="#000" stroke-linecap="round" stroke-linejoin="round" stroke-width=".22"/><path d="M1259.45,157.01h-9.64v-16.39h23.7v16.39h-14.06Z" fill="#2d2d2c" fill-rule="evenodd"/><path d="M1327.49,140.62h30.1v16.39h-30.1v-16.39Z" fill="#2d2d2c"/><path d="M433.68,164.63l2.67,10.68m-3.97-15.9l.98,3.91m0,0l.32,1.31m52.39-13.06l2.66,10.68m-3.96-15.9l.97,3.91m0,0l.33,1.31" fill="none" stroke="#000" stroke-linecap="round" stroke-linejoin="round" stroke-width=".22"/><path d="M484.77,146.35l-52.39,13.06m56.35,2.84l-52.38,13.06m49.72-23.74l-3,.74m0,0l-.32-1.3m0,0l2.99-.75m-29.93,7.47l1.49-.38m0,0l.33,1.31m0,0l-1.5,.37m26.78-7.37l-25.44,6.34m25.6-5.69l-25.44,6.35m-.33-1.31l25.45-6.34m-26.62,8.02l-.75,.19m0,0l-.16-.66m0,0l-.75,.19m0,0l-.16-.65m0,0l1.5-.37m-22.45,5.59l2.35-.58m0,0l.16,.65m0,0l-.59,.15m0,0l.16,.65m0,0l-1.76,.44m2.03-1.89l18.6-4.64m-1.01,2.33l-14.96,3.73m17.21-4.29l-2.25,.56m0,0l-.32-1.31m0,0l2.24-.56m0,0l.33,1.31m-20.27,3.67l1.76-.44m0,0l.33,1.3m0,0l-1.76,.44m0,0l-.33-1.3m1.76-.44l15.94-3.98m.32,1.31l-15.93,3.97m15.77-4.62l-15.93,3.97" fill="none" stroke="#000" stroke-linecap="round" stroke-linejoin="round" stroke-width=".25"/><path d="M485.74,150.26l.33,1.31m-.33-1.31l.33,1.31m-1.3-5.22l.97,3.91m.33,1.31l2.66,10.68m-55.37,1.07l.32,1.31m-.32-1.31l.32,1.31m-1.3-5.22l.98,3.91m.32,1.31l2.67,10.68m48.42-28.96l3.96,15.9" fill="none" stroke="#000" stroke-linecap="round" stroke-linejoin="round" stroke-width=".22"/><path d="M423.84,178.43l-8.57,2.14-3.96-15.9,21.07-5.26,3.97,15.9-8.57,2.14-3.94,.98Z" fill="#2d2d2c" fill-rule="evenodd"/><path d="M484.77,146.35l18.38-4.58,3.96,15.9-18.38,4.58-3.96-15.9Z" fill="#2d2d2c"/><path d="M617.54,164.63l2.66,10.68m-3.96-15.9l.98,3.91m0,0l.32,1.31m52.38-13.06l2.67,10.68m-3.97-15.9l.98,3.91m0,0l.32,1.31" fill="none" stroke="#000" stroke-linecap="round" stroke-linejoin="round" stroke-width=".22"/><path d="M668.62,146.35l-52.38,13.06m56.35,2.84l-52.39,13.06m49.72-23.74l-2.99,.74m0,0l-.33-1.3m0,0l3-.75m-29.93,7.47l1.49-.38m0,0l.33,1.31m0,0l-1.5,.37m26.78-7.37l-25.45,6.34m25.61-5.69l-25.44,6.35m-.33-1.31l25.44-6.34m-26.61,8.02l-.75,.19m0,0l-.16-.66m0,0l-.75,.19m0,0l-.16-.65m0,0l1.5-.37m-22.45,5.59l2.34-.58m0,0l.17,.65m0,0l-.59,.15m0,0l.16,.65m0,0l-1.76,.44m2.02-1.89l18.61-4.64m-1.01,2.33l-14.97,3.73m17.21-4.29l-2.24,.56m0,0l-.33-1.31m0,0l2.25-.56m0,0l.32,1.31m-20.26,3.67l1.76-.44m0,0l.33,1.3m0,0l-1.77,.44m0,0l-.32-1.3m1.76-.44l15.93-3.98m.33,1.31l-15.93,3.97m15.77-4.62l-15.94,3.97" fill="none" stroke="#000" stroke-linecap="round" stroke-linejoin="round" stroke-width=".25"/><path d="M669.6,150.26l.32,1.31m-.32-1.31l.32,1.31m-1.3-5.22l.98,3.91m.32,1.31l2.67,10.68m-55.37,1.07l.32,1.31m-.32-1.31l.32,1.31m-1.3-5.22l.98,3.91m.32,1.31l2.66,10.68m48.42-28.96l3.97,15.9" fill="none" stroke="#000" stroke-linecap="round" stroke-linejoin="round" stroke-width=".22"/><path d="M606.87,178.64l-9.13,2.27-3.97-15.9,22.47-5.6,3.96,15.9-9.13,2.28-4.2,1.05Z" fill="#2d2d2c" fill-rule="evenodd"/><path d="M668.63,146.35l19.25-4.8,3.97,15.9-19.25,4.8-3.97-15.9Z" fill="#2d2d2c"/><path d="M803.07,164.63l2.67,10.68m-3.97-15.9l.98,3.91m0,0l.32,1.31m52.39-13.06l2.66,10.68m-3.96-15.9l.97,3.91m0,0l.33,1.31" fill="none" stroke="#000" stroke-linecap="round" stroke-linejoin="round" stroke-width=".22"/><path d="M854.16,146.35l-52.39,13.06m56.35,2.84l-52.38,13.06m49.72-23.74l-3,.74m0,0l-.32-1.3m0,0l2.99-.75m-29.93,7.47l1.49-.38m0,0l.33,1.31m0,0l-1.5,.37m26.78-7.37l-25.44,6.34m25.6-5.69l-25.44,6.35m-.33-1.31l25.45-6.34m-26.62,8.02l-.75,.19m0,0l-.16-.66m0,0l-.75,.19m0,0l-.16-.65m0,0l1.5-.37m-22.45,5.59l2.35-.58m0,0l.16,.65m0,0l-.59,.15m0,0l.16,.65m0,0l-1.76,.44m2.03-1.89l18.6-4.64m-1.01,2.33l-14.96,3.73m17.21-4.29l-2.25,.56m0,0l-.32-1.31m0,0l2.24-.56m0,0l.33,1.31m-20.27,3.67l1.76-.44m0,0l.33,1.3m0,0l-1.76,.44m0,0l-.33-1.3m1.76-.44l15.94-3.98m.32,1.31l-15.93,3.97m15.77-4.62l-15.93,3.97" fill="none" stroke="#000" stroke-linecap="round" stroke-linejoin="round" stroke-width=".25"/><path d="M855.13,150.26l.33,1.31m-.33-1.31l.33,1.31m-1.3-5.22l.97,3.91m.33,1.31l2.66,10.68m-55.37,1.07l.32,1.31m-.32-1.31l.32,1.31m-1.3-5.22l.98,3.91m.32,1.31l2.67,10.68m48.42-28.96l3.96,15.9" fill="none" stroke="#000" stroke-linecap="round" stroke-linejoin="round" stroke-width=".22"/><path d="M792.41,178.64l-9.14,2.27-3.96-15.9,22.46-5.6,3.97,15.9-9.14,2.28-4.19,1.05h0Z" fill="#2d2d2c" fill-rule="evenodd"/><path d="M854.16,146.34l18.32-4.57,3.97,15.9-18.32,4.57-3.97-15.9Z" fill="#2d2d2c"/><path d="M987.99,164.63l2.66,10.68m-3.96-15.9l.97,3.91m0,0l.33,1.31m52.38-13.06l2.66,10.68m-3.96-15.9l.98,3.91m0,0l.32,1.31" fill="none" stroke="#000" stroke-linecap="round" stroke-linejoin="round" stroke-width=".22"/><path d="M1039.07,146.35l-52.38,13.06m56.34,2.84l-52.38,13.06m49.72-23.74l-2.99,.74m0,0l-.33-1.3m0,0l3-.75m-29.94,7.47l1.5-.38m0,0l.32,1.31m0,0l-1.49,.37m26.77-7.37l-25.44,6.34m25.61-5.69l-25.45,6.35m-.32-1.31l25.44-6.34m-26.61,8.02l-.75,.19m0,0l-.16-.66m0,0l-.75,.19m0,0l-.16-.65m0,0l1.49-.37m-22.45,5.59l2.35-.58m0,0l.16,.65m0,0l-.58,.15m0,0l.16,.65m0,0l-1.76,.44m2.02-1.89l18.61-4.64m-1.01,2.33l-14.97,3.73m17.21-4.29l-2.24,.56m0,0l-.33-1.31m0,0l2.25-.56m0,0l.32,1.31m-20.26,3.67l1.76-.44m0,0l.32,1.3m0,0l-1.76,.44m0,0l-.32-1.3m1.76-.44l15.93-3.98m.33,1.31l-15.94,3.97m15.77-4.62l-15.93,3.97" fill="none" stroke="#000" stroke-linecap="round" stroke-linejoin="round" stroke-width=".25"/><path d="M1040.05,150.26l.32,1.31m-.32-1.31l.32,1.31m-1.3-5.22l.98,3.91m.32,1.31l2.66,10.68m-55.37,1.07l.33,1.31m-.33-1.31l.33,1.31m-1.3-5.22l.97,3.91m.33,1.31l2.66,10.68m48.42-28.96l3.96,15.9" fill="none" stroke="#000" stroke-linecap="round" stroke-linejoin="round" stroke-width=".22"/><path d="M977.32,178.64l-9.14,2.27-3.96-15.9,22.47-5.6,3.96,15.9-9.14,2.28-4.19,1.05h0Z" fill="#2d2d2c" fill-rule="evenodd"/><path d="M1039.07,146.35l18.8-4.69,3.97,15.9-18.81,4.69-3.96-15.9Z" fill="#2d2d2c"/><path d="M1175.74,164.63l2.66,10.68m-3.96-15.9l.97,3.91m0,0l.33,1.31m52.38-13.06l2.66,10.68m-3.96-15.9l.98,3.91m0,0l.32,1.31" fill="none" stroke="#000" stroke-linecap="round" stroke-linejoin="round" stroke-width=".22"/><path d="M1226.82,146.35l-52.38,13.06m56.34,2.84l-52.38,13.06m49.72-23.74l-2.99,.74m0,0l-.33-1.3m0,0l3-.75m-29.94,7.47l1.5-.38m0,0l.32,1.31m0,0l-1.49,.37m26.77-7.37l-25.44,6.34m25.61-5.69l-25.45,6.35m-.32-1.31l25.44-6.34m-26.61,8.02l-.75,.19m0,0l-.16-.66m0,0l-.75,.19m0,0l-.16-.65m0,0l1.49-.37m-22.45,5.59l2.35-.58m0,0l.16,.65m0,0l-.58,.15m0,0l.16,.65m0,0l-1.76,.44m2.02-1.89l18.61-4.64m-1.01,2.33l-14.97,3.73m17.21-4.29l-2.24,.56m0,0l-.33-1.31m0,0l2.25-.56m0,0l.32,1.31m-20.26,3.67l1.76-.44m0,0l.32,1.3m0,0l-1.76,.44m0,0l-.32-1.3m1.76-.44l15.93-3.98m.33,1.31l-15.94,3.97m15.77-4.62l-15.93,3.97" fill="none" stroke="#000" stroke-linecap="round" stroke-linejoin="round" stroke-width=".25"/><path d="M1227.8,150.26l.32,1.31m-.32-1.31l.32,1.31m-1.3-5.22l.98,3.91m.32,1.31l2.66,10.68m-55.37,1.07l.33,1.31m-.33-1.31l.33,1.31m-1.3-5.22l.97,3.91m.33,1.31l2.66,10.68m48.42-28.96l3.96,15.9" fill="none" stroke="#000" stroke-linecap="round" stroke-linejoin="round" stroke-width=".22"/><path d="M1163.06,179.14l-10.52,2.62-3.97-15.9,25.87-6.45,3.96,15.9-10.52,2.63-4.82,1.2Z" fill="#2d2d2c" fill-rule="evenodd"/><path d="M1226.81,146.34l22.99-5.73,3.96,15.9-22.99,5.73-3.96-15.9Z" fill="#2d2d2c"/><path d="M157.38,204.09h11.01m-16.38,0h4.03m0,0h1.34m0-37.54h11.01m-16.38,0h4.03m0,0h1.34" fill="none" stroke="#000" stroke-linecap="round" stroke-linejoin="round" stroke-width=".22"/><path d="M152.01,166.55v37.54m16.38-37.54v37.54m-11.01-37.54v2.42m0,0h-1.34m0,0v-2.42m0,19.39v-1.21m0,0h1.34m0,0v1.21m-.67-16.97v15.75m.67-15.75v15.75m-1.34,0v-15.76m1.34,16.97v.6m0,0h-.67m0,0v.61m0,0h-.67m0,0v-1.21m0,18.15v-2.42m0,0h.67m0,0v.61m0,0h.67m0,0v1.81m-1.34-2.42v-14.52m2.01,1.21v12.1m0-13.92v1.82m0,0h-1.34m0,0v-1.82m0,0h1.34m-1.34,15.74v-1.82m0,0h1.34m0,0v1.82m0,0h-1.34m0-1.82v-12.1m1.34,0v12.1m-.67-12.1v12.1" fill="none" stroke="#000" stroke-linecap="round" stroke-linejoin="round" stroke-width=".25"/><path d="M156.04,166.55h1.34m-1.34,0h1.34m-5.37,0h4.03m1.34,0h11.01m-12.35,37.54h1.34m-1.34,0h1.34m-5.37,0h4.03m1.34,0h11.01m-16.38-37.54h16.38" fill="none" stroke="#000" stroke-linecap="round" stroke-linejoin="round" stroke-width=".22"/><path d="M168.39,222.14v12.36h-16.38v-30.41h16.38v18.05Z" fill="#2d2d2c" fill-rule="evenodd"/><path d="M152.01,140.62h16.39v25.93h-16.39v-25.93Z" fill="#2d2d2c"/><path d="M173.28,394.46l10.82-2.11m-16.09,3.13l3.95-.77m.01,0l1.31-.25m-9.88-50.85l10.81-2.1m-16.08,3.13l3.95-.77m0,0l1.32-.26" fill="none" stroke="#000" stroke-linecap="round" stroke-linejoin="round" stroke-width=".22"/><path d="M158.13,344.64l9.88,50.84m6.2-53.97l9.89,50.84m-20.7-48.74l.46,2.38m0,0l-1.32,.26m0,0l-.46-2.38m4.62,23.76l-.23-1.19m0,0l1.32-.25m0,0l.23,1.19m-4.82-21.26l3.93,20.2m-3.27-20.33l3.93,20.2m-1.32,.25l-3.93-20.19m5.48,21.13l.12,.59m0,0l-.66,.13m0,0l.11,.59m0,0l-.66,.13m0,0l-.23-1.19m5.27,27.08l-.57-2.9m0,0l.66-.13m0,0l.14,.72m0,0l.66-.12m0,0l.42,2.18m-1.88-2.65l-4.47-22.99m3.34,6.62l2.83,14.53m-4.31-22.13l.35,1.78m0,0l-1.32,.26m0,0l-.34-1.78m0,0l1.31-.26m3.41,24.56l-.42-2.17m0,0l1.32-.26m0,0l.42,2.18m0,0l-1.32,.25m-.42-2.17l-3.96-20.35m1.32-.26l3.96,20.35m-4.64-20.22l3.98,20.35" fill="none" stroke="#000" stroke-linecap="round" stroke-linejoin="round" stroke-width=".25"/><path d="M162.08,343.87l1.32-.26m-1.32,.26l1.32-.26m-5.27,1.03l3.95-.77m1.32-.26l10.81-2.1m-2.24,53.2l1.31-.25m-1.31,.25l1.31-.25m-5.27,1.02l3.95-.77m1.32-.25l10.82-2.11m-25.97-47.71l16.08-3.13" fill="none" stroke="#000" stroke-linecap="round" stroke-linejoin="round" stroke-width=".22"/><path d="M184.42,394.04l.23,1.16-16.09,3.13-.55-2.85,16.09-3.13,.22,1.16,.1,.53Z" fill="#2d2d2c" fill-rule="evenodd"/><path d="M156.68,337.17l16.09-3.13,1.45,7.47-16.09,3.13-1.45-7.47Z" fill="#2d2d2c"/><path d="M173.3,505.13l10.91-1.53m-16.23,2.28l3.99-.56m0,0l1.33-.19m-8.61-60.87l10.91-1.54m-16.23,2.28l3.99-.56m0,0l1.33-.18" fill="none" stroke="#000" stroke-linecap="round" stroke-linejoin="round" stroke-width=".22"/><path d="M159.37,445l8.61,60.88m7.62-63.16l8.61,60.88m-19.52-59.34l.34,2.39m0,0l-1.33,.19m0,0l-.34-2.4m3.37,23.98l-.17-1.2m0,0l1.33-.19m0,0l.17,1.2m-3.7-21.48l2.87,20.37m-2.2-20.47l2.86,20.38m-1.33,.19l-2.86-20.38m4.36,21.39l.09,.6m0,0l-.67,.09m0,0l.08,.6m0,0l-.66,.1m0,0l-.17-1.2m5.24,36.9l-.41-2.93m0,0l.66-.1m0,0l.1,.74m0,0l.67-.1m0,0l.31,2.2m-1.74-2.74l-4.66-32.77m2.99,6.78l3.46,24.24m-4.54-31.9l.25,1.79m0,0l-1.33,.19m0,0l-.25-1.8m0,0l1.33-.18m3.51,34.29l-.3-2.2m0,0l1.33-.19m0,0l.3,2.2m0,0l-1.33,.19m-.3-2.2l-4.29-30.11m1.33-.19l4.29,30.11m-4.98-30.01l4.31,30.11" fill="none" stroke="#000" stroke-linecap="round" stroke-linejoin="round" stroke-width=".25"/><path d="M163.36,444.44l1.33-.18m-1.33,.18l1.33-.18m-5.32,.74l3.99-.56m1.33-.18l10.91-1.54m-3.63,62.6l1.33-.19m-1.33,.19l1.33-.19m-5.32,.75l3.99-.56m1.33-.19l10.91-1.53m-24.84-58.6l16.23-2.28" fill="none" stroke="#000" stroke-linecap="round" stroke-linejoin="round" stroke-width=".22"/><path d="M184.47,505.47l.18,1.29-16.23,2.28-.44-3.16,16.23-2.28,.18,1.28,.08,.59h0Z" fill="#2d2d2c" fill-rule="evenodd"/><path d="M156.67,425.82l16.23-2.28,2.7,19.19-16.23,2.28-2.7-19.19Z" fill="#2d2d2c"/><path d="M173.27,615.61l10.9-1.54m-16.22,2.29l3.99-.57m0,0l1.33-.18m-8.61-60.88l10.91-1.53m-16.23,2.28l3.99-.56m0,0l1.33-.19" fill="none" stroke="#000" stroke-linecap="round" stroke-linejoin="round" stroke-width=".22"/><path d="M159.34,555.48l8.61,60.88m7.62-63.16l8.6,60.87m-19.51-59.34l.34,2.4m0,0l-1.33,.19m0,0l-.34-2.4m3.37,23.97l-.17-1.2m0,0l1.33-.18m0,0l.17,1.2m-3.7-21.49l2.87,20.38m-2.2-20.47l2.86,20.38m-1.33,.18l-2.86-20.37m4.36,21.39l.08,.6m0,0l-.66,.09m0,0l.08,.6m0,0l-.66,.09m0,0l-.17-1.2m5.24,36.9l-.42-2.93m0,0l.67-.09m0,0l.1,.73m0,0l.67-.09m0,0l.31,2.2m-1.75-2.75l-4.65-32.77m2.99,6.79l3.45,24.24m-4.53-31.91l.25,1.8m0,0l-1.33,.19m0,0l-.25-1.8m0,0l1.33-.19m3.51,34.29l-.31-2.2m0,0l1.33-.18m0,0l.31,2.2m0,0l-1.33,.18m-.31-2.2l-4.28-30.1m1.33-.19l4.28,30.11m-4.97-30.02l4.31,30.11" fill="none" stroke="#000" stroke-linecap="round" stroke-linejoin="round" stroke-width=".25"/><path d="M163.33,554.92l1.33-.19m-1.33,.19l1.33-.19m-5.32,.75l3.99-.56m1.33-.19l10.91-1.53m-3.63,62.59l1.33-.18m-1.33,.18l1.33-.18m-5.32,.75l3.99-.57m1.33-.18l10.9-1.54m-24.83-58.59l16.23-2.28" fill="none" stroke="#000" stroke-linecap="round" stroke-linejoin="round" stroke-width=".22"/><path d="M184.45,616.05l.19,1.35-16.23,2.28-.47-3.32,16.23-2.29,.19,1.36,.09,.62Z" fill="#2d2d2c" fill-rule="evenodd"/><path d="M156.68,536.52l16.23-2.28,2.66,18.95-16.23,2.28-2.66-18.95Z" fill="#2d2d2c"/><path d="M173.24,708.92l10.84-1.91m-16.14,2.85l3.97-.7m0,0l1.33-.24m-9.15-51.57l10.85-1.91m-16.14,2.84l3.97-.7m0,0l1.32-.23" fill="none" stroke="#000" stroke-linecap="round" stroke-linejoin="round" stroke-width=".22"/><path d="M158.8,658.28l9.14,51.58m7-54.42l9.14,51.57m-19.99-49.66l.42,2.39m0,0l-1.32,.23m0,0l-.42-2.39m4.2,23.84l-.21-1.19m0,0l1.33-.23m0,0l.21,1.19m-4.45-21.34l3.57,20.27m-2.91-20.38l3.58,20.26m-1.33,.23l-3.57-20.26m5.11,21.22l.1,.6m0,0l-.66,.11m0,0l.1,.6m0,0l-.66,.12m0,0l-.21-1.2m4.94,27.74l-.43-2.49m0,0l.66-.11m0,0l.11,.62m0,0l.66-.12m0,0l.33,1.86m-1.76-2.25l-4.95-27.76m3.04,5.64l3.67,20.53m-4.18-23.41l.32,1.79m0,0l-1.33,.23m0,0l-.31-1.79m0,0l1.32-.23m3.19,25.51l-.33-1.87m0,0l1.32-.23m0,0l.33,1.86m0,0l-1.32,.24m-.33-1.87l-3.87-21.62m1.33-.23l3.86,21.62m-4.54-21.5l3.88,21.62" fill="none" stroke="#000" stroke-linecap="round" stroke-linejoin="round" stroke-width=".25"/><path d="M162.77,657.58l1.32-.23m-1.32,.23l1.32-.23m-5.29,.93l3.97-.7m1.32-.23l10.85-1.91m-3.03,53.72l1.33-.24m-1.33,.24l1.33-.24m-5.3,.94l3.97-.7m1.33-.24l10.84-1.91m-25.28-48.73l16.14-2.84" fill="none" stroke="#000" stroke-linecap="round" stroke-linejoin="round" stroke-width=".22"/><path d="M184.41,708.87l.23,1.28-16.14,2.84-.56-3.13,16.14-2.85,.23,1.28,.1,.58h0Z" fill="#2d2d2c" fill-rule="evenodd"/><path d="M156.67,646.23l16.14-2.85,2.13,12.05-16.14,2.85-2.13-12.05Z" fill="#2d2d2c"/><path d="M173.24,802.42l10.84-1.91m-16.14,2.85l3.97-.7m0,0l1.33-.24m-9.15-51.57l10.85-1.91m-16.14,2.84l3.97-.7m0,0l1.32-.23" fill="none" stroke="#000" stroke-linecap="round" stroke-linejoin="round" stroke-width=".22"/><path d="M158.8,751.78l9.14,51.58m7-54.42l9.14,51.57m-19.99-49.66l.42,2.39m0,0l-1.32,.23m0,0l-.42-2.39m4.2,23.84l-.21-1.19m0,0l1.33-.23m0,0l.21,1.19m-4.45-21.34l3.57,20.27m-2.91-20.38l3.58,20.26m-1.33,.23l-3.57-20.26m5.11,21.22l.1,.6m0,0l-.66,.11m0,0l.1,.6m0,0l-.66,.12m0,0l-.21-1.2m4.94,27.74l-.43-2.49m0,0l.66-.11m0,0l.11,.62m0,0l.66-.12m0,0l.33,1.86m-1.76-2.25l-4.95-27.76m3.04,5.64l3.67,20.53m-4.18-23.41l.32,1.79m0,0l-1.33,.23m0,0l-.31-1.79m0,0l1.32-.23m3.19,25.51l-.33-1.87m0,0l1.32-.23m0,0l.33,1.86m0,0l-1.32,.24m-.33-1.87l-3.87-21.62m1.33-.23l3.86,21.62m-4.54-21.5l3.88,21.62" fill="none" stroke="#000" stroke-linecap="round" stroke-linejoin="round" stroke-width=".25"/><path d="M162.77,751.08l1.32-.23m-1.32,.23l1.32-.23m-5.29,.93l3.97-.7m1.32-.23l10.85-1.91m-3.03,53.72l1.33-.24m-1.33,.24l1.33-.24m-5.3,.94l3.97-.7m1.33-.24l10.84-1.91m-25.28-48.73l16.14-2.84" fill="none" stroke="#000" stroke-linecap="round" stroke-linejoin="round" stroke-width=".22"/><path d="M184.41,802.37l.23,1.27-16.14,2.85-.56-3.13,16.14-2.85,.23,1.27,.1,.59h0Z" fill="#2d2d2c" fill-rule="evenodd"/><path d="M156.67,739.73l16.14-2.85,2.13,12.05-16.14,2.85-2.13-12.05Zm0,97.2l16.14-2.85,13.92,78.93-16.14,2.85-13.92-78.93Z" fill="#2d2d2c"/><path d="M1391.28,267.66l-10.77-2.29m16.02,3.41l-3.94-.84m0,0l-1.31-.28m-8.81,41.44l-10.77-2.29m16.03,3.41l-3.95-.84m0,0l-1.31-.28" fill="none" stroke="#000" stroke-linecap="round" stroke-linejoin="round" stroke-width=".22"/><path d="M1387.73,310.22l8.8-41.44m-24.83,38.03l8.8-41.44m1.97,43.73l.5-2.37m0,0l1.32,.28m0,0l-.51,2.37m5.04-23.68l-.25,1.18m0,0l-1.32-.28m0,0l.25-1.18m-3.87,21.45l4.28-20.13m-4.94,19.99l4.28-20.13m1.32,.28l-4.28,20.13m3.21-21.59l.13-.59m0,0l.66,.14m0,0l.12-.6m0,0l.66,.14m0,0l-.25,1.19m3.77-17.76l-.5,2.37m0,0l-.66-.14m0,0l.13-.59m0,0l-.66-.14m0,0l.38-1.78m.81,2.65l-3.02,14.2m-1.72-1.6l2.52-11.84m-2.9,13.62l.38-1.78m0,0l1.31,.28m0,0l-.37,1.78m0,0l-1.32-.28m4.59-15.11l-.38,1.77m0,0l-1.31-.28m0,0l.37-1.77m0,0l1.32,.28m-.38,1.77l-2.52,11.84m-1.31-.28l2.52-11.84m-1.86,11.98l2.51-11.84" fill="none" stroke="#000" stroke-linecap="round" stroke-linejoin="round" stroke-width=".25"/><path d="M1383.78,309.38l-1.31-.28m1.31,.28l-1.31-.28m5.26,1.12l-3.95-.84m-1.31-.28l-10.77-2.29m20.89-38.87l-1.31-.28m1.31,.28l-1.31-.28m5.25,1.12l-3.94-.84m-1.31-.28l-10.77-2.29m7.22,44.85l-16.03-3.41" fill="none" stroke="#000" stroke-linecap="round" stroke-linejoin="round" stroke-width=".22"/><path d="M1385.05,243.99l3.11-14.65,16.03,3.41-7.66,36.03-16.02-3.41,3.11-14.65,1.43-6.73h0Z" fill="#2d2d2c" fill-rule="evenodd"/><path d="M1368.52,321.79l3.18-14.98,16.03,3.41-3.18,14.98-16.03-3.41Z" fill="#2d2d2c"/><path d="M1398.82,170.1h-11.02m16.39,0h-4.03m0,0h-1.34m0,37.54h-11.02m16.39,0h-4.03m0,0h-1.34" fill="none" stroke="#000" stroke-linecap="round" stroke-linejoin="round" stroke-width=".22"/><path d="M1404.19,207.64v-37.54m-16.39,37.54v-37.54m11.02,37.54v-2.42m0,0h1.34m0,0v2.42m0-19.39v1.21m0,0h-1.34m0,0v-1.21m.67,16.97v-15.75m-.67,15.75v-15.75m1.34,0v15.76m-1.34-16.97v-.6m0,0h.67m0,0v-.61m0,0h.67m0,0v1.21m0-18.15v2.42m0,0h-.67m0,0v-.61m0,0h-.67m0,0v-1.81m1.34,2.42v14.52m-2.01-1.21v-12.1m0,13.92v-1.82m0,0h1.34m0,0v1.82m0,0h-1.34m1.34-15.74v1.82m0,0h-1.34m0,0v-1.82m0,0h1.34m0,1.82v12.1m-1.34,0v-12.1m.67,12.1v-12.1" fill="none" stroke="#000" stroke-linecap="round" stroke-linejoin="round" stroke-width=".25"/><path d="M1400.16,207.64h-1.34m1.34,0h-1.34m5.37,0h-4.03m-1.34,0h-11.02m12.36-37.54h-1.34m1.34,0h-1.34m5.37,0h-4.03m-1.34,0h-11.02m16.39,37.54h-16.39" fill="none" stroke="#000" stroke-linecap="round" stroke-linejoin="round" stroke-width=".22"/><path d="M1387.81,158.24v-8.12s16.38,0,16.38,0v19.98h-16.38v-8.13s0-3.73,0-3.73Z" fill="#2d2d2c" fill-rule="evenodd"/><path d="M1387.81,207.64h16.39v25.1h-16.39v-25.1Z" fill="#2d2d2c"/><path d="M1391.89,353.01l-10.85-1.91m16.14,2.84l-3.97-.7m0,0l-1.32-.23m-9.46,53.66l-10.85-1.91m16.14,2.84l-3.97-.7m0,0l-1.32-.23" fill="none" stroke="#000" stroke-linecap="round" stroke-linejoin="round" stroke-width=".22"/><path d="M1387.72,407.6l9.46-53.66m-25.6,50.82l9.46-53.66m1.39,55.57l.44-2.51m0,0l1.32,.23m0,0l-.44,2.51m4.42-25.08l-.22,1.25m0,0l-1.32-.23m0,0l.22-1.25m-3.32,22.69l3.76-21.32m-4.42,21.2l3.76-21.32m1.32,.23l-3.76,21.32m2.66-22.8l.11-.63m0,0l.66,.12m0,0l.11-.63m0,0l.66,.12m0,0l-.22,1.25m5.04-28.58l-.54,3.07m0,0l-.66-.12m0,0l.13-.76m0,0l-.66-.12m0,0l.41-2.3m.78,3.3l-4.28,24.26m-.68-7.75l2.7-15.33m-4.11,23.35l.33-1.88m0,0l1.32,.24m0,0l-.33,1.88m0,0l-1.32-.24m5.84-25.41l-.4,2.29m0,0l-1.33-.23m0,0l.41-2.3m0,0l1.32,.23m-.4,2.3l-3.79,21.48m-1.32-.24l3.78-21.47m-3.1,21.6l3.77-21.48" fill="none" stroke="#000" stroke-linecap="round" stroke-linejoin="round" stroke-width=".25"/><path d="M1383.75,406.9l-1.32-.23m1.32,.23l-1.32-.23m5.29,.93l-3.97-.7m-1.32-.23l-10.85-1.91m21.63-51.52l-1.32-.23m1.32,.23l-1.32-.23m5.29,.93l-3.97-.7m-1.32-.23l-10.85-1.91m6.68,56.5l-16.14-2.84" fill="none" stroke="#000" stroke-linecap="round" stroke-linejoin="round" stroke-width=".22"/><path d="M1382.91,340.47l1.29-7.28,16.14,2.84-3.16,17.91-16.14-2.84,1.28-7.29,.59-3.34Z" fill="#2d2d2c" fill-rule="evenodd"/><path d="M1371.08,407.6l.5-2.85,16.14,2.85-.5,2.85-16.14-2.85Z" fill="#2d2d2c"/><path d="M1392.59,453.93l-10.88-1.73m16.18,2.57l-3.98-.63m0,0l-1.32-.21m-9.57,60.73l-10.88-1.72m16.19,2.56l-3.98-.63m-.01,0l-1.32-.21" fill="none" stroke="#000" stroke-linecap="round" stroke-linejoin="round" stroke-width=".22"/><path d="M1388.33,515.5l9.56-60.73m-25.75,58.17l9.57-60.74m1.31,62.46l.38-2.39m0,0l1.32,.21m0,0l-.38,2.39m3.79-23.91l-.19,1.19m0,0l-1.32-.21m0,0l.19-1.19m-2.75,21.62l3.22-20.32m-3.88,20.22l3.22-20.33m1.32,.21l-3.22,20.33m2.09-21.73l.09-.6m0,0l.66,.11m0,0l.1-.6m0,0l.66,.1m0,0l-.19,1.2m5.78-36.82l-.46,2.92m0,0l-.66-.1m0,0l.11-.73m0,0l-.66-.11m0,0l.35-2.19m.86,3.13l-5.13,32.7m-.87-7.36l3.78-24.19m-4.99,31.84l.28-1.8m0,0l1.33,.21m0,0l-.29,1.8m0,0l-1.32-.21m6.66-33.82l-.34,2.19m0,0l-1.33-.21m0,0l.35-2.19m0,0l1.32,.21m-.34,2.19l-4.71,30.04m-1.33-.21l4.71-30.04m-4.02,30.16l4.68-30.06" fill="none" stroke="#000" stroke-linecap="round" stroke-linejoin="round" stroke-width=".25"/><path d="M1384.34,514.87l-1.32-.21m1.32,.21l-1.32-.21m5.31,.84l-3.98-.63m-1.33-.21l-10.88-1.72m21.77-58.8l-1.32-.21m1.32,.21l-1.32-.21m5.3,.84l-3.98-.63m-1.32-.21l-10.88-1.73m6.62,63.3l-16.19-2.56" fill="none" stroke="#000" stroke-linecap="round" stroke-linejoin="round" stroke-width=".22"/><path d="M1383.59,440.3l1.3-8.16,16.18,2.56-3.18,20.07-16.18-2.57,1.29-8.15,.59-3.75Z" fill="#2d2d2c" fill-rule="evenodd"/><path d="M1371.09,519.57l1.05-6.64,16.19,2.56-1.05,6.64-16.19-2.56Z" fill="#2d2d2c"/><path d="M1392.84,563.53l-10.88-1.72m16.18,2.57l-3.98-.63m0-.01l-1.32-.21m-9.57,60.74l-10.88-1.73m16.19,2.57l-3.98-.63m0,0l-1.33-.21" fill="none" stroke="#000" stroke-linecap="round" stroke-linejoin="round" stroke-width=".22"/><path d="M1388.58,625.11l9.56-60.73m-25.75,58.16l9.57-60.73m1.31,62.46l.38-2.4m0,0l1.32,.21m0,0l-.37,2.4m3.78-23.91l-.19,1.19m0,0l-1.32-.21m0,0l.19-1.19m-2.75,21.62l3.22-20.32m-3.88,20.21l3.22-20.32m1.32,.21l-3.22,20.32m2.09-21.72l.09-.6m0,0l.67,.1m-.01,0l.1-.6m0,0l.66,.11m0,0l-.19,1.2m5.78-36.83l-.46,2.93m0,0l-.66-.11m0,0l.11-.73m0,0l-.66-.1m0,0l.35-2.2m.86,3.14l-5.13,32.7m-.87-7.36l3.78-24.2m-4.99,31.84l.28-1.79m0,0l1.33,.21m0,0l-.29,1.79m0,0l-1.32-.21m6.66-33.82l-.34,2.19m0,0l-1.33-.21m0,0l.35-2.19m0,0l1.32,.21m-.34,2.19l-4.71,30.05m-1.33-.21l4.71-30.05m-4.02,30.16l4.68-30.05" fill="none" stroke="#000" stroke-linecap="round" stroke-linejoin="round" stroke-width=".25"/><path d="M1384.6,624.48l-1.33-.21m1.33,.21l-1.33-.21m5.31,.84l-3.98-.63m-1.33-.21l-10.88-1.73m21.77-58.8l-1.32-.21m1.32,.21l-1.32-.21m5.3,.85l-3.98-.63m-1.32-.22l-10.88-1.72m6.62,63.3l-16.19-2.57" fill="none" stroke="#000" stroke-linecap="round" stroke-linejoin="round" stroke-width=".22"/><path d="M1383.69,550.86l1.19-7.51,16.19,2.56-2.92,18.47-16.19-2.57,1.19-7.51,.54-3.44h0Z" fill="#2d2d2c" fill-rule="evenodd"/><path d="M1371.07,630.91l1.32-8.35,16.19,2.56-1.32,8.35-16.19-2.56Z" fill="#2d2d2c"/><path d="M1392.07,669.99l-10.85-1.92m16.14,2.85l-3.97-.7m0,0l-1.32-.23m-9.05,51.59l-10.84-1.92m16.14,2.85l-3.97-.7m0,0l-1.33-.23" fill="none" stroke="#000" stroke-linecap="round" stroke-linejoin="round" stroke-width=".22"/><path d="M1388.32,722.51l9.04-51.59m-25.18,48.74l9.04-51.59m1.8,53.51l.42-2.39m0,0l1.33,.23m0,0l-.42,2.39m4.2-23.84l-.21,1.19m0,0l-1.32-.23m0,0l.21-1.2m-3.12,21.58l3.57-20.27m-4.24,20.15l3.58-20.26m1.32,.23l-3.57,20.26m2.46-21.69l.1-.59m0,0l.66,.12m0,0l.11-.6m0,0l.66,.12m0,0l-.21,1.19m4.84-27.75l-.44,2.48m0,0l-.66-.11m0,0l.11-.62m0,0l-.66-.12m0,0l.33-1.86m.88,2.71l-4.84,27.78m-.93-6.33l3.57-20.56m-4.08,23.43l.32-1.79m0,0l1.32,.24m0,0l-.32,1.79m0,0l-1.32-.24m5.73-25.05l-.33,1.86m0,0l-1.32-.24m0,0l.33-1.86m0,0l1.32,.24m-.33,1.86l-3.76,21.64m-1.32-.24l3.76-21.64m-3.09,21.77l3.75-21.65" fill="none" stroke="#000" stroke-linecap="round" stroke-linejoin="round" stroke-width=".25"/><path d="M1384.35,721.81l-1.33-.23m1.33,.23l-1.33-.23m5.3,.93l-3.97-.7m-1.33-.23l-10.84-1.92m21.21-49.44l-1.32-.23m1.32,.23l-1.32-.23m5.29,.93l-3.97-.7m-1.32-.23l-10.85-1.92m7.1,54.44l-16.14-2.85" fill="none" stroke="#000" stroke-linecap="round" stroke-linejoin="round" stroke-width=".22"/><path d="M1383.42,655.62l1.5-8.54,16.14,2.84-3.7,21-16.14-2.85,1.51-8.53,.69-3.92h0Z" fill="#2d2d2c" fill-rule="evenodd"/><path d="M1371.07,725.95l1.11-6.29,16.14,2.85-1.11,6.29-16.14-2.85Z" fill="#2d2d2c"/><path d="M1392.12,763.19l-10.85-1.91m16.14,2.84l-3.97-.7m0,0l-1.32-.23m-9.04,51.59l-10.85-1.91m16.14,2.84l-3.97-.7m0,0l-1.32-.23" fill="none" stroke="#000" stroke-linecap="round" stroke-linejoin="round" stroke-width=".22"/><path d="M1388.37,815.71l9.04-51.59m-25.18,48.75l9.04-51.59m1.81,53.5l.42-2.39m0,0l1.32,.24m0,0l-.42,2.38m4.2-23.84l-.21,1.19m0,0l-1.32-.23m0,0l.21-1.19m-3.12,21.57l3.57-20.26m-4.23,20.14l3.57-20.26m1.32,.23l-3.57,20.27m2.46-21.69l.1-.6m0,0l.67,.12m0,0l.1-.6m0,0l.66,.12m0,0l-.21,1.19m4.84-27.75l-.43,2.49m0,0l-.66-.12m0,0l.1-.62m0,0l-.66-.12m0,0l.33-1.86m.89,2.72l-4.85,27.78m-.93-6.34l3.57-20.55m-4.08,23.43l.32-1.79m0,0l1.32,.23m0,0l-.31,1.79m0,0l-1.33-.23m5.73-25.06l-.32,1.86m0,0l-1.33-.23m0,0l.33-1.86m0,0l1.32,.23m-.32,1.86l-3.77,21.64m-1.32-.23l3.76-21.64m-3.09,21.76l3.75-21.65" fill="none" stroke="#000" stroke-linecap="round" stroke-linejoin="round" stroke-width=".25"/><path d="M1384.4,815.01l-1.32-.23m1.32,.23l-1.32-.23m5.29,.93l-3.97-.7m-1.32-.23l-10.85-1.91m21.21-49.45l-1.32-.23m1.32,.23l-1.32-.23m5.29,.93l-3.97-.7m-1.32-.23l-10.85-1.91m7.1,54.43l-16.14-2.84" fill="none" stroke="#000" stroke-linecap="round" stroke-linejoin="round" stroke-width=".22"/><path d="M1383.44,749l1.48-8.42,16.14,2.85-3.65,20.69-16.13-2.84,1.48-8.42,.68-3.86Z" fill="#2d2d2c" fill-rule="evenodd"/><path d="M1371.07,819.36l1.15-6.52,16.14,2.85-1.15,6.52-16.14-2.85Z" fill="#2d2d2c"/><path d="M1378.94,871.51l5.98-33.95,16.14,2.85-14.72,83.49-16.14-2.85,5.99-33.95,2.75-15.59h0Z" fill="#2d2d2c" fill-rule="evenodd"/><g><path d="M270.39,892.78v-7.57m0,11.49v-4.03m0,0v-1.34m18.77,.11v-6.23m0,11.49v-4.03m0,0v-1.34" fill="none" stroke="#000" stroke-linecap="round" stroke-linejoin="round" stroke-width=".22"/><path d="M289.16,896.7h-18.77m18.77-11.49h-18.77m18.77,6.12h-2.72m0,0v1.34m0,0h2.72m-16.05-1.34h-2.72m0,0v1.34m0,0h2.72m-1.36,0h1.36m0,0v-1.34m13.33,.67h-13.33m13.33-.67h-13.33m0,1.34h13.33m-16.05,0h1.36m-1.36,0h0" fill="none" stroke="#000" stroke-linecap="round" stroke-linejoin="round" stroke-width=".25"/><path d="M289.16,892.67v-1.34m0,1.34v-1.34m0,5.37v-4.03m0-1.23v-6.23m-18.77,7.46v-1.34m0,1.34v-1.34m0,5.37v-4.03m0,.11v-7.57m18.77,11.49v-11.49" fill="none" stroke="#000" stroke-linecap="round" stroke-linejoin="round" stroke-width=".22"/></g><g><path d="M206.2,892.78v-7.57m0,11.49v-4.03m0,0v-1.34m21.87,.11v-6.23m0,11.49v-4.03m0,0v-1.34" fill="none" stroke="#000" stroke-linecap="round" stroke-linejoin="round" stroke-width=".22"/><path d="M228.07,896.7h-21.87m21.87-11.49h-21.87m21.87,6.12h-3.19m0,0v1.34m0,0h3.19m-18.68-1.34h-3.19m0,0v1.34m0,0h3.19m-1.59,0h1.59m0,0v-1.34m15.49,.67h-15.49m15.49-.67h-15.49m0,1.34h15.49m-18.68,0h1.6m-1.6,0h0" fill="none" stroke="#000" stroke-linecap="round" stroke-linejoin="round" stroke-width=".25"/><path d="M228.07,892.67v-1.34m0,1.34v-1.34m0,5.37v-4.03m0-1.23v-6.23m-21.87,7.46v-1.34m0,1.34v-1.34m0,5.37v-4.03m0,.11v-7.57m21.87,11.49v-11.49" fill="none" stroke="#000" stroke-linecap="round" stroke-linejoin="round" stroke-width=".22"/></g><path d="M241.76,886.07c.85,2.31,1.08,3.5,1.2,5.97" fill="none" stroke="#000" stroke-linecap="round" stroke-linejoin="round" stroke-width=".25"/><path d="M241.74,885.7l.28,.65-13.74,6.07h-.21v-.71l13.67-6.01h0Z" fill="#2d2d2c" fill-rule="evenodd"/><path d="M245.18,880.72c-1.56,4.26-1.99,6.45-2.22,10.99" fill="none" stroke="#000" stroke-linecap="round" stroke-linejoin="round" stroke-width=".25"/><path d="M245.22,880.03l-.52,1.22,25.3,11.17h.39v-1.32l-25.17-11.07h0Z" fill="#2d2d2c" fill-rule="evenodd"/><path d="M1342.33,954.21h-19.83m19.83-.67h-19.83m0,1.34h19.83" fill="none" stroke="#000" stroke-linecap="round" stroke-linejoin="round" stroke-width=".25"/><path d="M1274.71,954.21h-19.77m19.77-.67h-19.77m0,1.34h19.77" fill="none" stroke="#000" stroke-linecap="round" stroke-linejoin="round" stroke-width=".25"/><path d="M1097.29,954.21h-19.83m19.83-.67h-19.83m0,1.34h19.83" fill="none" stroke="#000" stroke-linecap="round" stroke-linejoin="round" stroke-width=".25"/><path d="M1030.18,954.21h-19.77m19.77-.67h-19.77m0,1.34h19.77" fill="none" stroke="#000" stroke-linecap="round" stroke-linejoin="round" stroke-width=".25"/><path d="M918.83,954.21h-19.71m19.71-.67h-19.71m0,1.34h19.71" fill="none" stroke="#000" stroke-linecap="round" stroke-linejoin="round" stroke-width=".25"/><path d="M853.07,954.21h-19.71m19.71-.67h-19.71m0,1.34h19.71" fill="none" stroke="#000" stroke-linecap="round" stroke-linejoin="round" stroke-width=".25"/><path d="M739.62,954.21h-19.86m19.86-.67h-19.86m0,1.34h19.86" fill="none" stroke="#000" stroke-linecap="round" stroke-linejoin="round" stroke-width=".25"/><path d="M669.85,954.21h-19.77m19.77-.67h-19.77m0,1.34h19.77" fill="none" stroke="#000" stroke-linecap="round" stroke-linejoin="round" stroke-width=".25"/><path d="M555.54,954.21h-19.77m19.77-.67h-19.77m0,1.34h19.77" fill="none" stroke="#000" stroke-linecap="round" stroke-linejoin="round" stroke-width=".25"/><path d="M486.26,954.21h-19.77m19.77-.67h-19.77m0,1.34h19.77" fill="none" stroke="#000" stroke-linecap="round" stroke-linejoin="round" stroke-width=".25"/><path d="M371.35,954.21h-19.77m19.77-.67h-19.77m0,1.34h19.77" fill="none" stroke="#000" stroke-linecap="round" stroke-linejoin="round" stroke-width=".25"/><path d="M302.62,954.21h-19.77m19.77-.67h-19.77m0,1.34h19.77" fill="none" stroke="#000" stroke-linecap="round" stroke-linejoin="round" stroke-width=".25"/><path d="M234.76,954.21h-19.77m19.77-.67h-19.77m0,1.34h19.77" fill="none" stroke="#000" stroke-linecap="round" stroke-linejoin="round" stroke-width=".25"/><g><path d="M1342.33,954.88v-1.34" fill="none" stroke="#000" stroke-linecap="round" stroke-linejoin="round" stroke-width=".22"/><path d="M1365.81,953.54v1.34m0,0h1.52v-1.34h-1.52m-21.42,0h-2.06m0,0v1.34m0,0h2.06m-1.03,0h1.03m0,0v-1.34m21.42,.67h-21.42m21.42-.67h-21.42m0,1.34h21.42m-23.48,0h1.03m-1.03,0h0" fill="none" stroke="#000" stroke-linecap="round" stroke-linejoin="round" stroke-width=".25"/><path d="M1342.33,954.88v-1.34m0,1.34v-1.34m-67.62,1.34v-1.34" fill="none" stroke="#000" stroke-linecap="round" stroke-linejoin="round" stroke-width=".22"/><path d="M1320.97,953.54v1.34m0,0h1.53v-1.34h-1.53m-44.2,0h-2.06m0,0v1.34m0,0h2.06m-1.03,0h1.03m0,0v-1.34m44.2,.67h-44.2m44.2-.67h-44.2m0,1.34h44.2m-46.26,0h1.03m-1.03,0h0" fill="none" stroke="#000" stroke-linecap="round" stroke-linejoin="round" stroke-width=".25"/><path d="M1274.71,954.88v-1.34m0,1.34v-1.34m-67.56,1.34v-1.34" fill="none" stroke="#000" stroke-linecap="round" stroke-linejoin="round" stroke-width=".22"/><path d="M1253.41,953.54v1.34m0,0h1.53v-1.34h-1.53m-44.2,0h-2.06m0,0v1.34m0,0h2.06m-1.03,0h1.03m0,0v-1.34m44.2,.67h-44.2m44.2-.67h-44.2m0,1.34h44.2m-46.26,0h1.03m-1.03,0h0" fill="none" stroke="#000" stroke-linecap="round" stroke-linejoin="round" stroke-width=".25"/><path d="M1207.15,954.88v-1.34m0,1.34v-1.34m-64.68,1.34v-1.34" fill="none" stroke="#000" stroke-linecap="round" stroke-linejoin="round" stroke-width=".22"/><path d="M1182.96,953.54v1.34m0,0h1.52v-1.34h-1.52m-38.42,0h-2.07m0,0v1.34m0,0h2.07m-1.03,0h1.03m0,0v-1.34m38.42,.67h-38.42m38.42-.67h-38.42m0,1.34h38.42m-40.49,0h1.04m-1.04,0h0" fill="none" stroke="#000" stroke-linecap="round" stroke-linejoin="round" stroke-width=".25"/><path d="M1142.47,954.88v-1.34m0,1.34v-1.34m44.71,1.34v-1.34" fill="none" stroke="#000" stroke-linecap="round" stroke-linejoin="round" stroke-width=".22"/><path d="M1189.24,953.54h-2.06m0,0v1.34m0,0h2.06m-1.03,0h1.03m0,0v-1.34m17.91,.67h-17.91m17.91-.67h-17.91m0,1.34h17.91m-19.97,0h1.03m-1.03,0h0" fill="none" stroke="#000" stroke-linecap="round" stroke-linejoin="round" stroke-width=".25"/><path d="M1187.18,954.88v-1.34m0,1.34v-1.34m-89.89,1.34v-1.34" fill="none" stroke="#000" stroke-linecap="round" stroke-linejoin="round" stroke-width=".22"/><path d="M1140.95,953.54v1.34m0,0h1.52v-1.34h-1.52m-41.6,0h-2.06m0,0v1.34m0,0h2.06m-1.03,0h1.03m0,0v-1.34m41.6,.67h-41.6m41.6-.67h-41.6m0,1.34h41.6m-43.66,0h1.03m-1.03,0h0" fill="none" stroke="#000" stroke-linecap="round" stroke-linejoin="round" stroke-width=".25"/><path d="M1097.29,954.88v-1.34m0,1.34v-1.34m-67.11,1.34v-1.34" fill="none" stroke="#000" stroke-linecap="round" stroke-linejoin="round" stroke-width=".22"/><path d="M1075.94,953.54v1.34m0,0h1.52v-1.34h-1.52m-43.98,0h-1.78m0,0v1.34m0,0h1.78m-1.03,0h1.03m0,0v-1.34m43.98,.67h-43.98m43.98-.67h-43.98m0,1.34h43.98m-45.76,0h.75m-.75,0h0" fill="none" stroke="#000" stroke-linecap="round" stroke-linejoin="round" stroke-width=".25"/><path d="M1030.18,954.88v-1.34m0,1.34v-1.34m-64.54,1.34v-1.34" fill="none" stroke="#000" stroke-linecap="round" stroke-linejoin="round" stroke-width=".22"/><path d="M1008.89,953.54v1.34m0,0h1.52v-1.34h-1.52m-41.47,0h-1.78m0,0v1.34m0,0h1.78m-1.03,0h1.03m0,0v-1.34m41.47,.67h-41.47m41.47-.67h-41.47m0,1.34h41.47m-43.25,0h.75m-.75,0h0" fill="none" stroke="#000" stroke-linecap="round" stroke-linejoin="round" stroke-width=".25"/><path d="M965.64,954.88v-1.34m0,1.34v-1.34m-46.81,1.34v-1.34" fill="none" stroke="#000" stroke-linecap="round" stroke-linejoin="round" stroke-width=".22"/><path d="M964.12,953.54v1.34m0,0h1.52v-1.34h-1.52m-43.51,0h-1.78m0,0v1.34m0,0h1.78m-1.03,0h1.03m0,0v-1.34m43.51,.67h-43.51m43.51-.67h-43.51m0,1.34h43.51m-45.29,0h.75m-.75,0h0" fill="none" stroke="#000" stroke-linecap="round" stroke-linejoin="round" stroke-width=".25"/><path d="M918.83,954.88v-1.34m0,1.34v-1.34m-65.76,1.34v-1.34" fill="none" stroke="#000" stroke-linecap="round" stroke-linejoin="round" stroke-width=".22"/><path d="M897.59,953.54v1.34m0,0h1.53v-1.34h-1.53m-42.74,0h-1.78m0,0v1.34m0,0h1.78m-1.03,0h1.03m0,0v-1.34m42.74,.67h-42.74m42.74-.67h-42.74m0,1.34h42.74m-44.52,0h.75m-.75,0h0" fill="none" stroke="#000" stroke-linecap="round" stroke-linejoin="round" stroke-width=".25"/><path d="M853.07,954.88v-1.34m0,1.34v-1.34m-66.97,1.34v-1.34" fill="none" stroke="#000" stroke-linecap="round" stroke-linejoin="round" stroke-width=".22"/><path d="M831.83,953.54v1.34m0,0h1.53v-1.34h-1.53m-43.95,0h-1.78m0,0v1.34m0,0h1.78m-1.03,0h1.03m0,0v-1.34m43.95,.67h-43.95m43.95-.67h-43.95m0,1.34h43.95m-45.73,0h0" fill="none" stroke="#000" stroke-linecap="round" stroke-linejoin="round" stroke-width=".25"/><path d="M786.1,954.88v-1.34m0,1.34v-1.34m-46.48,1.34v-1.34" fill="none" stroke="#000" stroke-linecap="round" stroke-linejoin="round" stroke-width=".22"/><path d="M784.47,953.54v1.34m0,0h1.52v-1.34h-1.52m-43.07,0h-1.78m0,0v1.34m0,0h1.78m-1.03,0h1.03m0,0v-1.34m43.07,.67h-43.07m43.07-.67h-43.07m0,1.34h43.07m-44.85,0h.75m-.75,0h0" fill="none" stroke="#000" stroke-linecap="round" stroke-linejoin="round" stroke-width=".25"/><path d="M739.62,954.88v-1.34m0,1.34v-1.34m-69.77,1.34v-1.34" fill="none" stroke="#000" stroke-linecap="round" stroke-linejoin="round" stroke-width=".22"/><path d="M718.24,953.54v1.34m0,0h1.52v-1.34h-1.52m-46.61,0h-1.78m0,0v1.34m0,0h1.78m-1.04,0h1.04m0,0v-1.34m46.61,.67h-46.61m46.61-.67h-46.61m0,1.34h46.61m-48.39,0h.74m-.74,0h0" fill="none" stroke="#000" stroke-linecap="round" stroke-linejoin="round" stroke-width=".25"/><path d="M669.85,954.88v-1.34m0,1.34v-1.34m-67.01,1.34v-1.34" fill="none" stroke="#000" stroke-linecap="round" stroke-linejoin="round" stroke-width=".22"/><path d="M648.55,953.54v1.34m0,0h1.53v-1.34h-1.53m-43.93,0h-1.78m0,0v1.34m0,0h1.78m-1.03,0h1.03m0,0v-1.34m43.93,.67h-43.93m43.93-.67h-43.93m0,1.34h43.93m-45.71,0h.75m-.75,0h0" fill="none" stroke="#000" stroke-linecap="round" stroke-linejoin="round" stroke-width=".25"/><path d="M602.84,954.88v-1.34m0,1.34v-1.34m-47.3,1.34v-1.34" fill="none" stroke="#000" stroke-linecap="round" stroke-linejoin="round" stroke-width=".22"/><path d="M601.25,953.54v1.34m0,0h1.52v-1.34h-1.52m-43.93,0h-1.78m0,0v1.34m0,0h1.78m-1.03,0h1.03m0,0v-1.34m43.93,.67h-43.93m43.93-.67h-43.93m0,1.34h43.93m-45.71,0h.75m-.75,0h0" fill="none" stroke="#000" stroke-linecap="round" stroke-linejoin="round" stroke-width=".25"/><path d="M555.54,954.88v-1.34m0,1.34v-1.34m-69.28,1.34v-1.34" fill="none" stroke="#000" stroke-linecap="round" stroke-linejoin="round" stroke-width=".22"/><path d="M534.24,953.54v1.34m0,0h1.53v-1.34h-1.53m-46.2,0h-1.78m0,0v1.34m0,0h1.78m-1.03,0h1.03m0,0v-1.34m46.2,.67h-46.2m46.2-.67h-46.2m0,1.34h46.2m-47.98,0h.75m-.75,0h0" fill="none" stroke="#000" stroke-linecap="round" stroke-linejoin="round" stroke-width=".25"/><path d="M486.26,954.88v-1.34m0,1.34v-1.34m-66.79,1.34v-1.34" fill="none" stroke="#000" stroke-linecap="round" stroke-linejoin="round" stroke-width=".22"/><path d="M464.97,953.54v1.34m0,0h1.52v-1.34h-1.52m-43.72,0h-1.78m0,0v1.34m0,0h1.78m-1.03,0h1.03m0,0v-1.34m43.72,.67h-43.72m43.72-.67h-43.72m0,1.34h43.72m-45.5,0h.75m-.75,0h0" fill="none" stroke="#000" stroke-linecap="round" stroke-linejoin="round" stroke-width=".25"/><path d="M419.47,954.88v-1.34m0,1.34v-1.34m-48.12,1.34v-1.34" fill="none" stroke="#000" stroke-linecap="round" stroke-linejoin="round" stroke-width=".22"/><path d="M417.95,953.54v1.34m0,0h1.52v-1.34h-1.52m-44.82,0h-1.78m0,0v1.34m0,0h1.78m-1.03,0h1.03m0,0v-1.34m44.82,.67h-44.82m44.82-.67h-44.82m0,1.34h44.82m-46.6,0h.75m-.75,0h0" fill="none" stroke="#000" stroke-linecap="round" stroke-linejoin="round" stroke-width=".25"/><path d="M371.35,954.88v-1.34m0,1.34v-1.34m-68.62,1.34v-1.34" fill="none" stroke="#000" stroke-linecap="round" stroke-linejoin="round" stroke-width=".22"/><path d="M350.1,953.54v1.34m0,0h1.52v-1.34h-1.52m-45.59,0h-1.78m0,0v1.34m0,0h1.78m-1.03,0h1.03m0,0v-1.34m45.59,.67h-45.59m45.59-.67h-45.59m0,1.34h45.59m-47.37,0h.75m-.75,0h0" fill="none" stroke="#000" stroke-linecap="round" stroke-linejoin="round" stroke-width=".25"/><path d="M302.73,954.88v-1.34m0,1.34v-1.34m-67.88,1.34v-1.34" fill="none" stroke="#000" stroke-linecap="round" stroke-linejoin="round" stroke-width=".22"/><path d="M281.32,953.54v1.34m0,0h1.53v-1.34h-1.53m-44.69,0h-1.78m0,0v1.34m0,0h1.78m-1.03,0h1.03m0,0v-1.34m44.69,.67h-44.69m44.69-.67h-44.69m0,1.34h44.69m-46.47,0h.75m-.75,0h0" fill="none" stroke="#000" stroke-linecap="round" stroke-linejoin="round" stroke-width=".25"/><path d="M234.85,954.88v-1.34m0,1.34v-1.34m-44.25,1.34v-1.34" fill="none" stroke="#000" stroke-linecap="round" stroke-linejoin="round" stroke-width=".22"/><path d="M213.47,953.54v1.34m0,0h1.52v-1.34h-1.52m-21.09,0h-1.78m0,0v1.34m0,0h1.78m-1.03,0h1.03m0,0v-1.34m21.09,.67h-21.09m21.09-.67h-21.09m0,1.34h21.09m-22.87,0h.75m-.75,0h0" fill="none" stroke="#000" stroke-linecap="round" stroke-linejoin="round" stroke-width=".25"/><path d="M190.6,954.88v-1.34m0,1.34v-1.34" fill="none" stroke="#000" stroke-linecap="round" stroke-linejoin="round" stroke-width=".22"/></g><g><path d="M379.01,892.78v-7.57m0,11.49v-4.03m0,0v-1.34m25.86,.11v-6.23m0,11.49v-4.03m0,0v-1.34" fill="none" stroke="#000" stroke-linecap="round" stroke-linejoin="round" stroke-width=".22"/><path d="M404.87,896.7h-25.86m25.86-11.49h-25.86m25.86,6.12h-2.72m0,0v1.34m0,0h2.72m-23.15-1.34h-2.71m0,0v1.34m0,0h2.71m-1.36,0h1.36m0,0v-1.34m20.43,.67h-20.43m20.43-.67h-20.43m0,1.34h20.43m-23.14,0h1.36m-1.36,0h0" fill="none" stroke="#000" stroke-linecap="round" stroke-linejoin="round" stroke-width=".25"/><path d="M404.87,892.67v-1.34m0,1.34v-1.34m0,5.37v-4.03m0-1.23v-6.23m-25.86,7.46v-1.34m0,1.34v-1.34m0,5.37v-4.03m0,.11v-7.57m25.86,11.49v-11.49" fill="none" stroke="#000" stroke-linecap="round" stroke-linejoin="round" stroke-width=".22"/></g><g><path d="M318.47,892.78v-7.57m0,11.49v-4.03m0,0v-1.34m18.22,.11v-6.23m0,11.49v-4.03m0,0v-1.34" fill="none" stroke="#000" stroke-linecap="round" stroke-linejoin="round" stroke-width=".22"/><path d="M336.69,896.7h-18.22m18.22-11.49h-18.22m18.22,6.12h-3.2m0,0v1.34m0,0h3.2m-15.02-1.34h-3.2m0,0v1.34m0,0h3.2m-1.6,0h1.6m0,0v-1.34m11.82,.67h-11.82m11.82-.67h-11.82m0,1.34h11.82m-15.02,0h1.6m-1.6,0h0" fill="none" stroke="#000" stroke-linecap="round" stroke-linejoin="round" stroke-width=".25"/><path d="M336.69,892.67v-1.34m0,1.34v-1.34m0,5.37v-4.03m0-1.23v-6.23m-18.22,7.46v-1.34m0,1.34v-1.34m0,5.37v-4.03m0,.11v-7.57m18.22,11.49v-11.49" fill="none" stroke="#000" stroke-linecap="round" stroke-linejoin="round" stroke-width=".22"/></g><path d="M350.37,886.07c.85,2.31,1.08,3.5,1.2,5.97" fill="none" stroke="#000" stroke-linecap="round" stroke-linejoin="round" stroke-width=".25"/><path d="M350.36,885.7l.28,.65-13.74,6.07h-.21v-.71l13.67-6.01h0Z" fill="#2d2d2c" fill-rule="evenodd"/><path d="M353.8,880.72c-1.56,4.26-1.99,6.45-2.22,10.99" fill="none" stroke="#000" stroke-linecap="round" stroke-linejoin="round" stroke-width=".25"/><path d="M353.83,880.03l-.51,1.22,25.29,11.17h.39v-1.32s-25.17-11.07-25.17-11.07h0Z" fill="#2d2d2c" fill-rule="evenodd"/><g><path d="M484.22,892.78v-7.57m0,11.49v-4.03m0,0v-1.34m14.29,.11v-6.23m0,11.49v-4.03m0,0v-1.34" fill="none" stroke="#000" stroke-linecap="round" stroke-linejoin="round" stroke-width=".22"/><path d="M498.51,896.7h-14.29m14.29-11.49h-14.29m14.29,6.12h-2.72m0,0v1.34m0,0h2.72m-11.57-1.34h-2.72m0,0v1.34m0,0h2.72m-1.36,0h1.36m0,0v-1.34m8.85,.67h-8.85m8.85-.67h-8.85m0,1.34h8.85m-11.57,0h1.36m-1.36,0h0" fill="none" stroke="#000" stroke-linecap="round" stroke-linejoin="round" stroke-width=".25"/><path d="M498.51,892.67v-1.34m0,1.34v-1.34m0,5.37v-4.03m0-1.23v-6.23m-14.29,7.46v-1.34m0,1.34v-1.34m0,5.37v-4.03m0,.11v-7.57m14.29,11.49v-11.49" fill="none" stroke="#000" stroke-linecap="round" stroke-linejoin="round" stroke-width=".22"/></g><g><path d="M427.81,892.78v-7.57m0,11.49v-4.03m0,0v-1.34m14.09,.11v-6.23m0,11.49v-4.03m0,0v-1.34" fill="none" stroke="#000" stroke-linecap="round" stroke-linejoin="round" stroke-width=".22"/><path d="M441.9,896.7h-14.09m14.09-11.49h-14.09m14.09,6.12h-3.19m0,0v1.34m0,0h3.19m-10.89-1.34h-3.2m0,0v1.34m0,0h3.2m-1.6,0h1.6m0,0v-1.34m7.7,.67h-7.7m7.7-.67h-7.7m0,1.34h7.7m-10.9,0h1.6m-1.6,0h0" fill="none" stroke="#000" stroke-linecap="round" stroke-linejoin="round" stroke-width=".25"/><path d="M441.9,892.67v-1.34m0,1.34v-1.34m0,5.37v-4.03m0-1.23v-6.23m-14.09,7.46v-1.34m0,1.34v-1.34m0,5.37v-4.03m0,.11v-7.57m14.09,11.49v-11.49" fill="none" stroke="#000" stroke-linecap="round" stroke-linejoin="round" stroke-width=".22"/></g><path d="M455.59,886.07c.85,2.31,1.08,3.5,1.2,5.97" fill="none" stroke="#000" stroke-linecap="round" stroke-linejoin="round" stroke-width=".25"/><path d="M455.57,885.7l.28,.65-13.73,6.07h-.22v-.71l13.67-6.01Z" fill="#2d2d2c" fill-rule="evenodd"/><path d="M459.02,880.72c-1.56,4.26-1.99,6.45-2.22,10.99" fill="none" stroke="#000" stroke-linecap="round" stroke-linejoin="round" stroke-width=".25"/><path d="M459.05,880.03l-.51,1.22,25.29,11.17h.39v-1.32l-25.17-11.07h0Z" fill="#2d2d2c" fill-rule="evenodd"/><g><path d="M577.26,892.78v-7.57m0,11.49v-4.03m0,0v-1.34m14.29,.11v-6.23m0,11.49v-4.03m0,0v-1.34" fill="none" stroke="#000" stroke-linecap="round" stroke-linejoin="round" stroke-width=".22"/><path d="M591.55,896.7h-14.29m14.29-11.49h-14.29m14.29,6.12h-2.72m0,0v1.34m0,0h2.72m-11.57-1.34h-2.72m0,0v1.34m0,0h2.72m-1.36,0h1.36m0,0v-1.34m8.85,.67h-8.85m8.85-.67h-8.85m0,1.34h8.85m-11.57,0h1.36m-1.36,0h0" fill="none" stroke="#000" stroke-linecap="round" stroke-linejoin="round" stroke-width=".25"/><path d="M591.55,892.67v-1.34m0,1.34v-1.34m0,5.37v-4.03m0-1.23v-6.23m-14.29,7.46v-1.34m0,1.34v-1.34m0,5.37v-4.03m0,.11v-7.57m14.29,11.49v-11.49" fill="none" stroke="#000" stroke-linecap="round" stroke-linejoin="round" stroke-width=".22"/></g><g><path d="M520.85,892.78v-7.57m0,11.49v-4.03m0,0v-1.34m14.09,.11v-6.23m0,11.49v-4.03m0,0v-1.34" fill="none" stroke="#000" stroke-linecap="round" stroke-linejoin="round" stroke-width=".22"/><path d="M534.94,896.7h-14.09m14.09-11.49h-14.09m14.09,6.12h-3.2m0,0v1.34m0,0h3.2m-10.9-1.34h-3.19m0,0v1.34m0,0h3.19m-1.6,0h1.6m0,0v-1.34m7.7,.67h-7.7m7.7-.67h-7.7m0,1.34h7.7m-10.89,0h1.59m-1.59,0h0" fill="none" stroke="#000" stroke-linecap="round" stroke-linejoin="round" stroke-width=".25"/><path d="M534.94,892.67v-1.34m0,1.34v-1.34m0,5.37v-4.03m0-1.23v-6.23m-14.09,7.46v-1.34m0,1.34v-1.34m0,5.37v-4.03m0,.11v-7.57m14.09,11.49v-11.49" fill="none" stroke="#000" stroke-linecap="round" stroke-linejoin="round" stroke-width=".22"/></g><path d="M548.63,886.07c.85,2.31,1.08,3.5,1.2,5.97" fill="none" stroke="#000" stroke-linecap="round" stroke-linejoin="round" stroke-width=".25"/><path d="M548.61,885.7l.28,.65-13.74,6.07h-.21v-.71l13.67-6.01Z" fill="#2d2d2c" fill-rule="evenodd"/><path d="M552.05,880.72c-1.56,4.26-1.99,6.45-2.22,10.99" fill="none" stroke="#000" stroke-linecap="round" stroke-linejoin="round" stroke-width=".25"/><path d="M552.09,880.03l-.52,1.22,25.3,11.17h.39v-1.32l-25.17-11.07h0Z" fill="#2d2d2c" fill-rule="evenodd"/><g><path d="M673.74,892.78v-7.57m0,11.49v-4.03m0,0v-1.34m18.07,.11v-6.23m0,11.49v-4.03m0,0v-1.34" fill="none" stroke="#000" stroke-linecap="round" stroke-linejoin="round" stroke-width=".22"/><path d="M691.81,896.7h-18.07m18.07-11.49h-18.07m18.07,6.12h-2.72m0,0v1.34m0,0h2.72m-15.35-1.34h-2.72m0,0v1.34m0,0h2.72m-1.36,0h1.36m0,0v-1.34m12.63,.67h-12.63m12.63-.67h-12.63m0,1.34h12.63m-15.35,0h1.36m-1.36,0h0" fill="none" stroke="#000" stroke-linecap="round" stroke-linejoin="round" stroke-width=".25"/><path d="M691.81,892.67v-1.34m0,1.34v-1.34m0,5.37v-4.03m0-1.23v-6.23m-18.07,7.46v-1.34m0,1.34v-1.34m0,5.37v-4.03m0,.11v-7.57m18.07,11.49v-11.49" fill="none" stroke="#000" stroke-linecap="round" stroke-linejoin="round" stroke-width=".22"/></g><g><path d="M614.14,892.78v-7.57m0,11.49v-4.03m0,0v-1.34m17.28,.11v-6.23m0,11.49v-4.03m0,0v-1.34" fill="none" stroke="#000" stroke-linecap="round" stroke-linejoin="round" stroke-width=".22"/><path d="M631.42,896.7h-17.28m17.28-11.49h-17.28m17.28,6.12h-3.19m0,0v1.34m0,0h3.19m-14.09-1.34h-3.2m.01,0v1.34m0,0h3.19m-1.6,0h1.6m0,0v-1.34m10.9,.67h-10.9m10.9-.67h-10.9m0,1.34h10.9m-14.1,0h1.6m-1.59,0h0" fill="none" stroke="#000" stroke-linecap="round" stroke-linejoin="round" stroke-width=".25"/><path d="M631.42,892.67v-1.34m0,1.34v-1.34m0,5.37v-4.03m0-1.23v-6.23m-17.28,7.46v-1.34m0,1.34v-1.34m0,5.37v-4.03m0,.11v-7.57m17.28,11.49v-11.49" fill="none" stroke="#000" stroke-linecap="round" stroke-linejoin="round" stroke-width=".22"/></g><path d="M645.11,886.07c.85,2.31,1.08,3.5,1.2,5.97" fill="none" stroke="#000" stroke-linecap="round" stroke-linejoin="round" stroke-width=".25"/><path d="M645.09,885.7l.28,.65-13.73,6.07h-.22v-.71l13.67-6.01h0Z" fill="#2d2d2c" fill-rule="evenodd"/><path d="M648.54,880.72c-1.56,4.26-1.99,6.45-2.22,10.99" fill="none" stroke="#000" stroke-linecap="round" stroke-linejoin="round" stroke-width=".25"/><path d="M648.57,880.03l-.52,1.22,25.3,11.17h.39v-1.32l-25.17-11.07h0Z" fill="#2d2d2c" fill-rule="evenodd"/><g><path d="M770.06,892.78v-7.57m0,11.49v-4.03m0,0v-1.34m12.66,.11v-6.23m0,11.49v-4.03m0,0v-1.34" fill="none" stroke="#000" stroke-linecap="round" stroke-linejoin="round" stroke-width=".22"/><path d="M782.72,896.7h-12.66m12.66-11.49h-12.66m12.66,6.12h-2.72m0,0v1.34m0,0h2.72m-9.94-1.34h-2.72m0,0v1.34m0,0h2.72m-1.36,0h1.36m0,0v-1.34m7.22,.67h-7.22m7.22-.67h-7.22m0,1.34h7.22m-9.94,0h1.36m-1.36,0h0" fill="none" stroke="#000" stroke-linecap="round" stroke-linejoin="round" stroke-width=".25"/><path d="M782.72,892.67v-1.34m0,1.34v-1.34m0,5.37v-4.03m0-1.23v-6.23m-12.66,7.46v-1.34m0,1.34v-1.34m0,5.37v-4.03m0,.11v-7.57m12.66,11.49v-11.49" fill="none" stroke="#000" stroke-linecap="round" stroke-linejoin="round" stroke-width=".22"/></g><g><path d="M714.01,892.78v-7.57m0,11.49v-4.03m0,0v-1.34m13.73,.11v-6.23m0,11.49v-4.03m0,0v-1.34" fill="none" stroke="#000" stroke-linecap="round" stroke-linejoin="round" stroke-width=".22"/><path d="M727.74,896.7h-13.73m13.73-11.49h-13.73m13.73,6.12h-3.19m0,0v1.34m0,0h3.19m-10.54-1.34h-3.19m0,0v1.34m0,0h3.19m-1.59,0h1.59m0,0v-1.34m7.35,.67h-7.35m7.35-.67h-7.35m0,1.34h7.35m-10.54,0h1.6m-1.6,0h0" fill="none" stroke="#000" stroke-linecap="round" stroke-linejoin="round" stroke-width=".25"/><path d="M727.74,892.67v-1.34m0,1.34v-1.34m0,5.37v-4.03m0-1.23v-6.23m-13.73,7.46v-1.34m0,1.34v-1.34m0,5.37v-4.03m0,.11v-7.57m13.73,11.49v-11.49" fill="none" stroke="#000" stroke-linecap="round" stroke-linejoin="round" stroke-width=".22"/></g><path d="M741.43,886.07c.85,2.31,1.08,3.5,1.2,5.97" fill="none" stroke="#000" stroke-linecap="round" stroke-linejoin="round" stroke-width=".25"/><path d="M741.41,885.7l.28,.65-13.73,6.07h-.22v-.71l13.67-6.01h0Z" fill="#2d2d2c" fill-rule="evenodd"/><path d="M744.86,880.72c-1.56,4.26-1.99,6.45-2.22,10.99" fill="none" stroke="#000" stroke-linecap="round" stroke-linejoin="round" stroke-width=".25"/><path d="M744.89,880.03l-.51,1.22,25.29,11.17h.39v-1.32l-25.17-11.07h0Z" fill="#2d2d2c" fill-rule="evenodd"/><g><path d="M863.97,892.78v-7.57m0,11.49v-4.03m0,0v-1.34m15.38,.11v-6.23m0,11.49v-4.03m0,0v-1.34" fill="none" stroke="#000" stroke-linecap="round" stroke-linejoin="round" stroke-width=".22"/><path d="M879.35,896.7h-15.38m15.38-11.49h-15.38m15.38,6.12h-2.72m0,0v1.34m0,0h2.72m-12.67-1.34h-2.71m0,0v1.34m0,0h2.71m-1.35,0h1.35m0,0v-1.34m9.95,.67h-9.95m9.95-.67h-9.95m0,1.34h9.95m-12.66,0h1.36m-1.36,0h0" fill="none" stroke="#000" stroke-linecap="round" stroke-linejoin="round" stroke-width=".25"/><path d="M879.35,892.67v-1.34m0,1.34v-1.34m0,5.37v-4.03m0-1.23v-6.23m-15.38,7.46v-1.34m0,1.34v-1.34m0,5.37v-4.03m0,.11v-7.57m15.38,11.49v-11.49" fill="none" stroke="#000" stroke-linecap="round" stroke-linejoin="round" stroke-width=".22"/></g><g><path d="M806.21,892.78v-7.57m0,11.49v-4.03m0,0v-1.34m15.44,.11v-6.23m0,11.49v-4.03m0,0v-1.34" fill="none" stroke="#000" stroke-linecap="round" stroke-linejoin="round" stroke-width=".22"/><path d="M821.65,896.7h-15.44m15.44-11.49h-15.44m15.44,6.12h-3.2m0,0v1.34m0,0h3.2m-12.25-1.34h-3.19m0,0v1.34m0,0h3.19m-1.59,0h1.59m0,0v-1.34m9.05,.67h-9.05m9.05-.67h-9.05m0,1.34h9.05m-12.24,0h1.6m-1.6,0h0" fill="none" stroke="#000" stroke-linecap="round" stroke-linejoin="round" stroke-width=".25"/><path d="M821.65,892.67v-1.34m0,1.34v-1.34m0,5.37v-4.03m0-1.23v-6.23m-15.44,7.46v-1.34m0,1.34v-1.34m0,5.37v-4.03m0,.11v-7.57m15.44,11.49v-11.49" fill="none" stroke="#000" stroke-linecap="round" stroke-linejoin="round" stroke-width=".22"/></g><path d="M835.34,886.07c.85,2.31,1.08,3.5,1.2,5.97" fill="none" stroke="#000" stroke-linecap="round" stroke-linejoin="round" stroke-width=".25"/><path d="M835.32,885.7l.28,.65-13.74,6.07h-.21v-.71l13.67-6.01Z" fill="#2d2d2c" fill-rule="evenodd"/><path d="M838.76,880.72c-1.56,4.26-1.99,6.45-2.22,10.99" fill="none" stroke="#000" stroke-linecap="round" stroke-linejoin="round" stroke-width=".25"/><path d="M838.79,880.03l-.51,1.22,25.3,11.17h.38v-1.32s-25.17-11.07-25.17-11.07h0Z" fill="#2d2d2c" fill-rule="evenodd"/><g><path d="M959.74,892.78v-7.57m0,11.49v-4.03m0,0v-1.34m15.38,.11v-6.23m0,11.49v-4.03m0,0v-1.34" fill="none" stroke="#000" stroke-linecap="round" stroke-linejoin="round" stroke-width=".22"/><path d="M975.12,896.7h-15.38m15.38-11.49h-15.38m15.38,6.12h-2.72m0,0v1.34m0,0h2.72m-12.66-1.34h-2.72m0,0v1.34m0,0h2.72m-1.36,0h1.36m0,0v-1.34m9.94,.67h-9.94m9.94-.67h-9.94m0,1.34h9.94m-12.66,0h1.36m-1.36,0h0" fill="none" stroke="#000" stroke-linecap="round" stroke-linejoin="round" stroke-width=".25"/><path d="M975.12,892.67v-1.34m0,1.34v-1.34m0,5.37v-4.03m0-1.23v-6.23m-15.38,7.46v-1.34m0,1.34v-1.34m0,5.37v-4.03m0,.11v-7.57m15.38,11.49v-11.49" fill="none" stroke="#000" stroke-linecap="round" stroke-linejoin="round" stroke-width=".22"/></g><g><path d="M901.98,892.78v-7.57m0,11.49v-4.03m0,0v-1.34m15.44,.11v-6.23m0,11.49v-4.03m0,0v-1.34" fill="none" stroke="#000" stroke-linecap="round" stroke-linejoin="round" stroke-width=".22"/><path d="M917.42,896.7h-15.44m15.44-11.49h-15.44m15.44,6.12h-3.2m0,0v1.34m0,0h3.2m-12.24-1.34h-3.2m0,0v1.34m0,0h3.2m-1.6,0h1.6m0,0v-1.34m9.04,.67h-9.04m9.04-.67h-9.04m0,1.34h9.04m-12.24,0h1.6m-1.6,0h0" fill="none" stroke="#000" stroke-linecap="round" stroke-linejoin="round" stroke-width=".25"/><path d="M917.42,892.67v-1.34m0,1.34v-1.34m0,5.37v-4.03m0-1.23v-6.23m-15.44,7.46v-1.34m0,1.34v-1.34m0,5.37v-4.03m0,.11v-7.57m15.44,11.49v-11.49" fill="none" stroke="#000" stroke-linecap="round" stroke-linejoin="round" stroke-width=".22"/></g><path d="M931.11,886.07c.85,2.31,1.08,3.5,1.2,5.97" fill="none" stroke="#000" stroke-linecap="round" stroke-linejoin="round" stroke-width=".25"/><path d="M931.09,885.7l.28,.65-13.74,6.07h-.21v-.71l13.67-6.01Z" fill="#2d2d2c" fill-rule="evenodd"/><path d="M934.53,880.72c-1.56,4.26-1.99,6.45-2.22,10.99" fill="none" stroke="#000" stroke-linecap="round" stroke-linejoin="round" stroke-width=".25"/><path d="M934.56,880.03l-.51,1.22,25.3,11.17h.39v-1.32l-25.18-11.07h0Z" fill="#2d2d2c" fill-rule="evenodd"/><g><path d="M1057.48,892.78v-7.57m0,11.49v-4.03m0,0v-1.34m15.38,.11v-6.23m0,11.49v-4.03m0,0v-1.34" fill="none" stroke="#000" stroke-linecap="round" stroke-linejoin="round" stroke-width=".22"/><path d="M1072.86,896.7h-15.38m15.38-11.49h-15.38m15.38,6.12h-2.72m0,0v1.34m0,0h2.72m-12.66-1.34h-2.72m0,0v1.34m0,0h2.72m-1.36,0h1.36m0,0v-1.34m9.94,.67h-9.94m9.94-.67h-9.94m0,1.34h9.94m-12.66,0h1.36m-1.36,0h0" fill="none" stroke="#000" stroke-linecap="round" stroke-linejoin="round" stroke-width=".25"/><path d="M1072.86,892.67v-1.34m0,1.34v-1.34m0,5.37v-4.03m0-1.23v-6.23m-15.38,7.46v-1.34m0,1.34v-1.34m0,5.37v-4.03m0,.11v-7.57m15.38,11.49v-11.49" fill="none" stroke="#000" stroke-linecap="round" stroke-linejoin="round" stroke-width=".22"/></g><g><path d="M997.33,892.78v-7.57m0,11.49v-4.03m0,0v-1.34m17.83,.11v-6.23m0,11.49v-4.03m0,0v-1.34" fill="none" stroke="#000" stroke-linecap="round" stroke-linejoin="round" stroke-width=".22"/><path d="M1015.16,896.7h-17.83m17.83-11.49h-17.83m17.83,6.12h-3.2m0,0v1.34m0,0h3.2m-14.64-1.34h-3.19m0,0v1.34m0,0h3.19m-1.6,0h1.6m0,0v-1.34m11.44,.67h-11.44m11.44-.67h-11.44m0,1.34h11.44m-14.63,0h1.59m-1.59,0h0" fill="none" stroke="#000" stroke-linecap="round" stroke-linejoin="round" stroke-width=".25"/><path d="M1015.16,892.67v-1.34m0,1.34v-1.34m0,5.37v-4.03m0-1.23v-6.23m-17.83,7.46v-1.34m0,1.34v-1.34m0,5.37v-4.03m0,.11v-7.57m17.83,11.49v-11.49" fill="none" stroke="#000" stroke-linecap="round" stroke-linejoin="round" stroke-width=".22"/></g><path d="M1028.85,886.07c.85,2.31,1.08,3.5,1.2,5.97" fill="none" stroke="#000" stroke-linecap="round" stroke-linejoin="round" stroke-width=".25"/><path d="M1028.83,885.7l.28,.65-13.74,6.07h-.21v-.71l13.67-6.01Z" fill="#2d2d2c" fill-rule="evenodd"/><path d="M1032.27,880.72c-1.56,4.26-1.99,6.45-2.22,10.99" fill="none" stroke="#000" stroke-linecap="round" stroke-linejoin="round" stroke-width=".25"/><path d="M1032.31,880.03l-.52,1.22,25.3,11.17h.39v-1.32l-25.17-11.07h0Z" fill="#2d2d2c" fill-rule="evenodd"/><g><path d="M1150.86,892.78v-7.57m0,11.49v-4.03m0,0v-1.34m15.38,.11v-6.23m0,11.49v-4.03m0,0v-1.34" fill="none" stroke="#000" stroke-linecap="round" stroke-linejoin="round" stroke-width=".22"/><path d="M1166.24,896.7h-15.38m15.38-11.49h-15.38m15.38,6.12h-2.71m0,0v1.34m0,0h2.71m-12.66-1.34h-2.72m0,0v1.34m0,0h2.72m-1.36,0h1.36m0,0v-1.34m9.95,.67h-9.95m9.95-.67h-9.95m0,1.34h9.95m-12.67,0h1.36m-1.36,0h0" fill="none" stroke="#000" stroke-linecap="round" stroke-linejoin="round" stroke-width=".25"/><path d="M1166.24,892.67v-1.34m0,1.34v-1.34m0,5.37v-4.03m0-1.23v-6.23m-15.38,7.46v-1.34m0,1.34v-1.34m0,5.37v-4.03m0,.11v-7.57m15.38,11.49v-11.49" fill="none" stroke="#000" stroke-linecap="round" stroke-linejoin="round" stroke-width=".22"/></g><g><path d="M1096.43,892.78v-7.57m0,11.49v-4.03m0,0v-1.34m12.12,.11v-6.23m0,11.49v-4.03m0,0v-1.34" fill="none" stroke="#000" stroke-linecap="round" stroke-linejoin="round" stroke-width=".22"/><path d="M1108.55,896.7h-12.12m12.12-11.49h-12.12m12.12,6.12h-3.2m0,0v1.34m0,0h3.2m-8.92-1.34h-3.2m0,0v1.34m0,0h3.2m-1.6,0h1.6m0,0v-1.34m5.72,.67h-5.72m5.72-.67h-5.72m0,1.34h5.72m-8.92,0h1.6m-1.6,0h0" fill="none" stroke="#000" stroke-linecap="round" stroke-linejoin="round" stroke-width=".25"/><path d="M1108.55,892.67v-1.34m0,1.34v-1.34m0,5.37v-4.03m0-1.23v-6.23m-12.12,7.46v-1.34m0,1.34v-1.34m0,5.37v-4.03m0,.11v-7.57m12.12,11.49v-11.49" fill="none" stroke="#000" stroke-linecap="round" stroke-linejoin="round" stroke-width=".22"/></g><path d="M1122.23,886.07c.85,2.31,1.08,3.5,1.2,5.97" fill="none" stroke="#000" stroke-linecap="round" stroke-linejoin="round" stroke-width=".25"/><path d="M1122.22,885.7l.28,.65-13.74,6.07h-.21v-.71l13.67-6.01h0Z" fill="#2d2d2c" fill-rule="evenodd"/><path d="M1125.66,880.72c-1.56,4.26-1.99,6.45-2.22,10.99" fill="none" stroke="#000" stroke-linecap="round" stroke-linejoin="round" stroke-width=".25"/><path d="M1125.69,880.03l-.51,1.22,25.29,11.17h.39v-1.32l-25.17-11.07h0Z" fill="#2d2d2c" fill-rule="evenodd"/><g><path d="M1242.54,892.78v-7.57m0,11.49v-4.03m0,0v-1.34m15.38,.11v-6.23m0,11.49v-4.03m0,0v-1.34" fill="none" stroke="#000" stroke-linecap="round" stroke-linejoin="round" stroke-width=".22"/><path d="M1257.92,896.7h-15.38m15.38-11.49h-15.38m15.38,6.12h-2.71m0,0v1.34m0,0h2.71m-12.66-1.34h-2.72m0,0v1.34m0,0h2.72m-1.36,0h1.36m0,0v-1.34m9.95,.67h-9.95m9.95-.67h-9.95m0,1.34h9.95m-12.67,0h1.36m-1.36,0h0" fill="none" stroke="#000" stroke-linecap="round" stroke-linejoin="round" stroke-width=".25"/><path d="M1257.92,892.67v-1.34m0,1.34v-1.34m0,5.37v-4.03m0-1.23v-6.23m-15.38,7.46v-1.34m0,1.34v-1.34m0,5.37v-4.03m0,.11v-7.57m15.38,11.49v-11.49" fill="none" stroke="#000" stroke-linecap="round" stroke-linejoin="round" stroke-width=".22"/></g><g><path d="M1187.32,892.78v-7.57m0,11.49v-4.03m0,0v-1.34m12.91,.11v-6.23m0,11.49v-4.03m0,0v-1.34" fill="none" stroke="#000" stroke-linecap="round" stroke-linejoin="round" stroke-width=".22"/><path d="M1200.23,896.7h-12.91m12.91-11.49h-12.91m12.91,6.12h-3.2m0,0v1.34m0,0h3.2m-9.72-1.34h-3.19m0,0v1.34m0,0h3.19m-1.6,0h1.6m0,0v-1.34m6.52,.67h-6.52m6.52-.67h-6.52m0,1.34h6.52m-9.71,0h1.59m-1.59,0h0" fill="none" stroke="#000" stroke-linecap="round" stroke-linejoin="round" stroke-width=".25"/><path d="M1200.23,892.67v-1.34m0,1.34v-1.34m0,5.37v-4.03m0-1.23v-6.23m-12.91,7.46v-1.34m0,1.34v-1.34m0,5.37v-4.03m0,.11v-7.57m12.91,11.49v-11.49" fill="none" stroke="#000" stroke-linecap="round" stroke-linejoin="round" stroke-width=".22"/></g><path d="M1213.91,886.07c.85,2.31,1.08,3.5,1.2,5.97" fill="none" stroke="#000" stroke-linecap="round" stroke-linejoin="round" stroke-width=".25"/><path d="M1213.9,885.7l.28,.65-13.74,6.07h-.21v-.71l13.67-6.01h0Z" fill="#2d2d2c" fill-rule="evenodd"/><path d="M1217.34,880.72c-1.56,4.26-1.99,6.45-2.22,10.99" fill="none" stroke="#000" stroke-linecap="round" stroke-linejoin="round" stroke-width=".25"/><path d="M1217.37,880.03l-.51,1.22,25.29,11.17h.39v-1.32l-25.17-11.07h0Z" fill="#2d2d2c" fill-rule="evenodd"/><g><path d="M1335.06,892.78v-7.57m0,11.49v-4.03m0,0v-1.34m14.53,.11v-6.23m0,11.49v-4.03m0,0v-1.34" fill="none" stroke="#000" stroke-linecap="round" stroke-linejoin="round" stroke-width=".22"/><path d="M1349.59,896.7h-14.53m14.53-11.49h-14.53m14.53,6.12h-2.72m0,0v1.34m0,0h2.72m-11.81-1.34h-2.72m0,0v1.34m0,0h2.72m-1.36,0h1.36m0,0v-1.34m9.09,.67h-9.09m9.09-.67h-9.09m0,1.34h9.09m-11.81,0h1.36m-1.36,0h0" fill="none" stroke="#000" stroke-linecap="round" stroke-linejoin="round" stroke-width=".25"/><path d="M1349.59,892.67v-1.34m0,1.34v-1.34m0,5.37v-4.03m0-1.23v-6.23m-14.53,7.46v-1.34m0,1.34v-1.34m0,5.37v-4.03m0,.11v-7.57m14.53,11.49v-11.49" fill="none" stroke="#000" stroke-linecap="round" stroke-linejoin="round" stroke-width=".22"/></g><g><path d="M1279.83,892.78v-7.57m0,11.49v-4.03m0,0v-1.34m12.91,.11v-6.23m0,11.49v-4.03m0,0v-1.34" fill="none" stroke="#000" stroke-linecap="round" stroke-linejoin="round" stroke-width=".22"/><path d="M1292.74,896.7h-12.91m12.91-11.49h-12.91m12.91,6.12h-3.19m0,0v1.34m0,0h3.19m-9.71-1.34h-3.2m0,0v1.34m0,0h3.2m-1.6,0h1.6m0,0v-1.34m6.52,.67h-6.52m6.52-.67h-6.52m0,1.34h6.52m-9.72,0h1.6m-1.6,0h0" fill="none" stroke="#000" stroke-linecap="round" stroke-linejoin="round" stroke-width=".25"/><path d="M1292.74,892.67v-1.34m0,1.34v-1.34m0,5.37v-4.03m0-1.23v-6.23m-12.91,7.46v-1.34m0,1.34v-1.34m0,5.37v-4.03m0,.11v-7.57m12.91,11.49v-11.49" fill="none" stroke="#000" stroke-linecap="round" stroke-linejoin="round" stroke-width=".22"/></g><path d="M1306.43,886.07c.85,2.31,1.08,3.5,1.2,5.97" fill="none" stroke="#000" stroke-linecap="round" stroke-linejoin="round" stroke-width=".25"/><path d="M1306.41,885.7l.28,.65-13.73,6.07h-.22v-.71l13.67-6.01h0Z" fill="#2d2d2c" fill-rule="evenodd"/><path d="M1309.86,880.72c-1.56,4.26-1.99,6.45-2.22,10.99" fill="none" stroke="#000" stroke-linecap="round" stroke-linejoin="round" stroke-width=".25"/><path d="M1309.89,880.03l-.52,1.22,25.3,11.17h.39v-1.32l-25.17-11.07h0Z" fill="#2d2d2c" fill-rule="evenodd"/><path d="M152.01,140.62h57.79v16.39h-57.79v-16.39Zm1200.69,0h51.49v16.39h-51.49v-16.39Zm31.25,179.28h16.39v16.13h-16.39v-16.13Zm.73,96.5h16.39v18.3h-16.39v-18.3Z" fill="#2d2d2c"/><path d="M1371.09,407.6h16.75v29.89h-16.75v-29.89Z" fill="#2d2d2c"/><path d="M1387.84,547.2h-16.75v-27.62l16.75-2.04v29.66Zm0,110.76h-16.75l-.02-27.06,16.77-3.31v30.37Zm0,93.99h-16.75l-.02-26,16.77-3.17v29.17Zm0,93.42h-16.75l-.02-25.99,16.77-3.18v29.17Zm0,109.51h-20.51l-.02-55.87,20.53-7.57v63.44Z" fill="#2d2d2c" fill-rule="evenodd"/><path d="M1384.68,526.57h16.39v19.38h-16.39v-19.38Zm0,109.75h16.39v13.6h-16.39v-13.6Zm0,96.5h16.39v10.6h-16.39v-10.6Zm0,96.67h16.39v10.92h-16.39v-10.92Z" fill="#2d2d2c"/><path d="M167.94,836.92h16.69l.02-33.28-16.71-.28v33.56Zm0-93.5h16.69l.02-33.28-16.71-.28v33.56Zm0-95.12h16.69l.02-30.9-16.71-1.04v31.94Zm0-108.12h16.69l.02-33.42-16.67-.88-.04,34.3h0Zm0-110.73h16.69l.02-34.25-16.67,.28-.04,33.97h0Zm0-92.75h16.69l.02-33.65-16.67,.61-.04,33.04h0Zm1.96,618.18h20.67l.03-66.55h-20.7v66.55Z" fill="#2d2d2c" fill-rule="evenodd"/><path d="M206.2,900.87v-15.64l-33.37-.02v15.66h33.37Zm112.27,0v-15.64l-29.31-.02v15.66h29.31Zm109.34,0v-15.64l-22.94-.02v15.66h22.94Z" fill="#2d2d2c" fill-rule="evenodd"/><path d="M417.84,895.12v-58.18l-6.57-.07v58.25h6.57Zm103.01,5.75v-15.64l-22.34-.02v15.66h22.34Zm93.29,0v-15.64l-22.59-.02v15.66h22.59Zm99.87,0v-15.64l-22.2-.02v15.66h22.2Zm92.2,0v-15.64l-23.49-.02v15.66h23.49Zm95.77,0v-15.64l-22.63-.02v15.66h22.63Zm95.35,0v-15.64l-22.21-.02v15.66h22.21Zm99.1,0v-15.64l-23.57-.02v15.66h23.57Zm90.89,0v-15.64l-21.08-.02v15.66h21.08Zm92.51,0v-15.64l-21.91-.02v15.66h21.91Zm102.19,0v-15.64l-32.43-.02v15.66h32.43Z" fill="#2d2d2c" fill-rule="evenodd"/><path d="M156.67,819.55h16.39v17.37h-16.39v-17.37Zm0-93.17h16.39v13.35h-16.39v-13.35Zm0-93.38h16.39v13.23h-16.39v-13.23Zm0-110.33h16.39v13.85h-16.39v-13.85Zm0-112.16h16.39v15.3h-16.39v-15.3Zm0-92.66h16.39v19.32h-16.39v-19.32Zm1204.18-7.63h27.85v21.28h-27.85v-21.28ZM411.31,175.12h7.25v74.25h-7.25v-74.25Zm369.51-5.15h6.52v78.9h-6.52v-78.9Zm391.05,666.9h7.23v54.84h-7.23v-54.84Zm-380.69,0h6.57v55.8h-6.57v-55.8Zm-191.62,0h6.57v55.8h-6.57v-55.8Zm696.16-289.67v-6.77h91.91v6.77h-91.91Zm-1117.98-7.02v-8.47h83.9v8.47h-83.9Zm232.8-71.14h8.47v179.21h-8.47v-179.21Zm0-62.25h8.47v31.61h-8.47v-31.61Zm676.6,67.75h6.08v179.67h-6.08v-179.67Zm-675.87,211.88h7.74v20.81h-7.74v-20.81Z" fill="#2d2d2c"/><path d="M417.39,698.54h98.74v7.96h-98.74v-7.96Zm129.62,0h96.29v7.96h-96.29v-7.96Zm126.7,0h293.13v7.96h-293.13v-7.96Zm323.57,0h175.71v7.96h-175.71v-7.96Zm92.9-157.53h49.37v6.19h-49.37v-6.19Zm-674.72-127.89v-6.33h185.18v6.33h-185.18Zm216.56,.58v-6.33h280.26v6.33h-280.26Zm308.97,0v-6.33h156.53v6.33h-156.53Z" fill="#2d2d2c"/></g></svg>