<?xml version="1.0" encoding="UTF-8"?><svg id="_Слой_1" xmlns="http://www.w3.org/2000/svg" viewBox="0 0 1556.82 1178.99"><path id="Fon" d="M0,0H1556.82V1178.99H0V0Z" fill="#fff"/><polygon id="_390" points="505.03 180.05 478.23 178.95 426.03 165.95 412.13 156.15 389.63 166.65 337.03 178.85 276.73 177.65 223.83 165.45 205.83 161.35 166.53 161.35 166.53 236.95 172.53 263.05 182.13 304.35 182.13 340.95 171.43 341.05 182.13 395.85 182.13 417.45 182.83 417.45 182.83 430.25 417.13 430.25 417.13 417.45 505.03 417.45 505.03 180.05" fill="none" stroke="#000" stroke-miterlimit="10"/><polygon id="_391" points="783.33 191.45 783.33 155.65 764.83 166.95 712.43 180.05 664.83 179.55 612.43 166.45 597.83 158.25 579.13 166.95 526.73 180.05 506.83 183.15 507.93 191.45 505.93 191.45 505.93 343.95 505.93 407.15 505.93 417.45 682.13 417.45 682.13 407.15 786.83 407.15 786.83 191.45 783.33 191.45" fill="none" fill-rule="evenodd" stroke="#000" stroke-miterlimit="10"/><polygon id="_392" points="1149.43 157.75 1132.83 166.55 1080.43 179.65 1033.23 178.95 980.83 165.95 963.33 158.15 947.23 166.85 894.83 179.85 848.83 179.95 796.43 166.85 784.83 158.65 784.83 195.05 784.83 407.55 896.83 407.55 896.83 418.05 1102.03 418.05 1102.03 407.55 1102.33 407.55 1102.33 335.05 1152.53 335.05 1152.53 215.65 1152.53 195.05 1152.53 166.55 1149.43 157.75" fill="none" fill-rule="evenodd" stroke="#000" stroke-miterlimit="10"/><polygon id="_393" points="1378.83 269.65 1390.73 234.65 1385.93 211.95 1385.93 174.45 1389.43 159.15 1363.13 155.05 1327.83 167.05 1275.23 179.25 1221.43 179.55 1168.83 167.45 1156.33 159.75 1156.33 187.15 1156.33 335.65 1131.63 335.65 1131.63 337.15 1103.33 337.15 1103.33 415.55 1131.63 415.55 1131.63 476.15 1269.23 476.15 1269.23 436.45 1321.43 436.45 1322.23 437.65 1358.03 436.45 1363.13 436.45 1363.13 436.25 1377.53 435.85 1369.73 409.05 1379.23 355.45 1386.83 335.85 1369.83 311.15 1378.83 269.65" fill="none" stroke="#000" stroke-miterlimit="10"/><path id="_394" d="M1390.33,546.95c-.1-.5-20-29.7-20-29.7l9.6-60.7,9.2-17.5h-122.6v43.5h-131.2v65.9h-46.9v96.1h46.9v12.6h235v-11.7l8.3,.3-8.1-18.8,9.6-60.7c0-.1,10.3-18.8,10.2-19.3h0Z" fill="none" fill-rule="evenodd" stroke="#000" stroke-miterlimit="10"/><polygon id="_395" points="1393.03 977.35 1381.83 939.25 1371.33 908.75 1380.43 856.65 1386.73 844.75 1370.33 817.25 1379.43 765.65 1387.03 752.15 1370.33 723.95 1379.33 672.45 1387.03 658.55 1347.63 658.55 1134.33 658.55 1134.33 706.85 1081.53 706.85 1081.53 951.75 1075.43 951.75 1075.43 1011.85 1108.83 1011.85 1108.83 1011.85 1369.23 1011.85 1369.23 1011.85 1387.53 1011.85 1393.03 977.35" fill="none" fill-rule="evenodd" stroke="#000" stroke-miterlimit="10"/><polygon id="_396" points="1081.63 702.85 792.63 702.85 792.63 946.45 785.43 946.45 785.43 1011.85 1074.23 1011.85 1074.23 954.85 1081.63 954.85 1081.63 702.85" fill="none" stroke="#000" stroke-miterlimit="10"/><polygon id="_397" points="792.63 702.85 602.43 702.85 602.43 934.75 602.43 954.85 602.43 1011.85 782.63 1011.85 782.63 954.85 792.63 954.85 792.63 702.85" fill="none" stroke="#000" stroke-miterlimit="10"/><polygon id="_398" points="598.13 925.95 598.13 702.85 413.03 702.85 413.03 954.85 419.03 954.85 419.03 1011.85 599.53 1011.85 599.53 925.95 598.13 925.95" fill="none" stroke="#000" stroke-miterlimit="10"/><polygon id="_399" points="416.03 953.85 416.03 901.55 416.03 702.45 417.13 702.45 417.13 663.95 416.03 663.95 416.03 650.45 254.63 650.45 252.83 649.15 168.83 649.15 173.13 659.75 182.23 711.35 166.13 739.25 173.03 752.95 182.23 804.85 165.33 835.15 173.43 852.25 182.63 904.05 161.03 977.35 165.83 1011.85 417.63 1011.85 417.63 954.25 416.03 953.85" fill="none" stroke="#000" stroke-miterlimit="10"/><path id="_400" d="M417.13,589.95v-161.3H204.93v1.7h-9.8l-27-3.3,5.6,20.1,8.6,60.9-14.4,31.9,5.7,17.7,8.6,60.9s-8,27.6-8.6,29.3,31.2,2.7,31.2,2.7h212.3v9.1h69.7v-69.7h-69.7Z" fill="none" fill-rule="evenodd" stroke="#000" stroke-miterlimit="10"/><g id="Walls_Inside"><path d="M601.57,706.27h6.57v132.88h-6.57v-132.88Zm191.63,0h6.57v132.88h-6.57v-132.88Zm345.79,2.51v-7.96h36.32v7.96h-36.32Zm0-48.54v-8.34h255.52v8.34h-255.52Zm1.87-177.74v-8.34h133.63v8.34h-133.63Z" fill="#2d2d2c"/><path d="M1266.78,431.44h8.34v51.06h-8.34v-51.06Z" fill="#2d2d2c"/><path d="M1267.66,439.77v-8.34h120.02v8.34h-120.02Zm-115.14-152.12h7.68v49.5h-7.68v-49.5ZM505.08,173.01h7.61v238.82h-7.61V173.01Zm596.78,157.24h7.01v83.23h-7.01v-83.23Zm-319.02-42.6h8.7v112.33h-8.7v-112.33Z" fill="#2d2d2c"/><path d="M1103.33,337.15v-7.01h55.7v7.01h-55.7Zm-429.18,68.33v-7.01h234.09v7.01h-234.09Zm-487.92,26.25v-7.01h231.43v7.01H186.23Zm0,218.85v-7.01h231.43v7.01H186.23Z" fill="#2d2d2c"/><path d="M674.15,410.87v-7.01h9.83v7.01h-9.83Zm462.59,231.46v-7.03h9.37v7.03h-9.37Zm-236-242.49h7.51v13.97h-7.51v-13.97Zm175.75,551.97h2.83v58.04h-2.83v-58.04Zm-290,0h2.83v58.04h-2.83v-58.04Zm-183.05,0h2.83v58.04h-2.83v-58.04Zm-183.37,0h2.83v58.04h-2.83v-58.04Z" fill="#2d2d2c"/><path d="M1138.15,635.71h7.96v34.35h-7.96v-34.35Zm-56.28,70.56h7.29v237.13h-7.29v-237.13Zm-668.58,0h6.57v132.88h-6.57v-132.88Z" fill="#2d2d2c"/></g><g id="Walls_Outside"><path d="M173.23,304.73l10.73-2.48m-15.97,3.69l3.93-.91m0,0l1.31-.3m-9.53-41.28l10.73-2.47m-15.97,3.68l3.93-.9m0,0l1.31-.31" fill="none" stroke="#000" stroke-linecap="round" stroke-linejoin="round" stroke-width=".22"/><path d="M158.46,264.66l9.53,41.28m6.44-44.96l9.53,41.27m-20.26-38.8l.54,2.36m0,0l-1.31,.3m0,0l-.54-2.35m5.44,23.58l-.27-1.18m0,0l1.31-.3m0,0l.27,1.18m-5.55-21.08l4.63,20.05m-3.98-20.2l4.63,20.05m-1.31,.3l-4.63-20.05m6.21,20.93l.14,.59m0,0l-.65,.15m0,0l.13,.59m0,0l-.65,.15m0,0l-.28-1.18m4.09,17.69l-.55-2.35m0,0l.66-.16m0,0l.13,.59m0,0l.66-.15m0,0l.41,1.77m-1.86-2.05l-3.26-14.16m2.23,.73l2.73,11.79m-3.14-13.56l.41,1.77m0,0l-1.31,.3m0,0l-.4-1.77m0,0l1.3-.3m2.23,15.63l-.4-1.76m0,0l1.31-.31m0,0l.4,1.77m0,0l-1.3,.3m-.41-1.76l-2.73-11.8m1.31-.3l2.73,11.79m-3.38-11.64l2.72,11.79" fill="none" stroke="#000" stroke-linecap="round" stroke-linejoin="round" stroke-width=".25"/><path d="M162.39,263.76l1.31-.31m-1.31,.31l1.31-.31m-5.24,1.21l3.93-.9m1.31-.31l10.73-2.47m-2.51,44.05l1.31-.3m-1.31,.3l1.31-.3m-5.24,1.21l3.93-.91m1.31-.3l10.73-2.48m-25.5-37.59l15.97-3.68" fill="none" stroke="#000" stroke-linecap="round" stroke-linejoin="round" stroke-width=".22"/><path d="M184.38,304.08l.29,1.25-15.97,3.68-.71-3.07,15.97-3.69,.29,1.25,.13,.58h0Z" fill="#2d2d2c" fill-rule="evenodd"/><path d="M152.02,236.78l15.97-3.69,6.44,27.88-15.97,3.69-6.44-27.88Z" fill="#2d2d2c"/><path d="M228.45,152.77l-2.48,10.73m3.68-15.97l-.9,3.93m0,0l-.3,1.31m52.6,12.14l-2.48,10.73m3.69-15.97l-.91,3.93m0,0l-.3,1.31" fill="none" stroke="#000" stroke-linecap="round" stroke-linejoin="round" stroke-width=".22"/><path d="M282.26,159.67l-52.61-12.14m48.92,28.11l-52.6-12.14m55.08,1.41l-3.01-.69m0,0l.3-1.31m0,0l3.01,.69m-30.06-6.94l1.5,.35m0,0l-.3,1.31m0,0l-1.5-.35m27.2,5.59l-25.55-5.9m25.4,6.56l-25.55-5.9m.3-1.31l25.55,5.9m-27.35-4.94l-.75-.17m0,0l.15-.66m0,0l-.75-.17m0,0l.15-.66m0,0l1.5,.35m-22.54-5.2l2.36,.54m0,0l-.15,.66m0,0l-.59-.14m0,0l-.16,.65m0,0l-1.76-.4m2.66-.77l18.68,4.31m-1.96,1.62l-15.03-3.47m17.29,3.99l-2.26-.52m0,0l.3-1.31m0,0l2.26,.52m0,0l-.3,1.31m-19.72-5.93l1.76,.41m0,0l-.3,1.31m0,0l-1.77-.41m0,0l.31-1.31m1.76,.41l16,3.69m-.3,1.31l-16-3.69m16.15,3.04l-16-3.7" fill="none" stroke="#000" stroke-linecap="round" stroke-linejoin="round" stroke-width=".25"/><path d="M281.35,163.6l-.3,1.31m.3-1.31l-.3,1.31m1.21-5.24l-.91,3.93m-.3,1.31l-2.48,10.73m-49.82-24.18l-.3,1.31m.3-1.31l-.3,1.31m1.2-5.24l-.9,3.93m-.3,1.31l-2.48,10.73m56.29-3.83l-3.69,15.97" fill="none" stroke="#000" stroke-linecap="round" stroke-linejoin="round" stroke-width=".22"/><path d="M214.2,160.78l-8.07-1.86,3.68-15.97,19.84,4.58-3.68,15.97-8.07-1.87-3.7-.85Z" fill="#2d2d2c" fill-rule="evenodd"/><path d="M278.56,175.63l3.69-15.97,32.63,7.53-3.69,15.97-32.63-7.53Z" fill="#2d2d2c"/><path d="M336.43,166.05l2.47,10.73m-3.68-15.97l.9,3.93m0,0l.31,1.31m52.6-12.15l2.48,10.73m-3.69-15.96l.91,3.92m0,0l.3,1.31" fill="none" stroke="#000" stroke-linecap="round" stroke-linejoin="round" stroke-width=".22"/><path d="M387.82,148.67l-52.6,12.14m56.29,3.82l-52.61,12.15m50.13-22.88l-3.01,.7m0,0l-.3-1.31m0,0l3.01-.7m-30.06,6.94l1.5-.34m0,0l.3,1.31m0,0l-1.5,.34m26.9-6.9l-25.55,5.9m25.7-5.24l-25.55,5.9m-.3-1.31l25.55-5.9m-26.75,7.55l-.75,.18m0,0l-.15-.66m0,0l-.75,.17m0,0l-.15-.65m0,0l1.5-.35m-22.55,5.21l2.36-.55m0,0l.15,.66m0,0l-.59,.13m0,0l.16,.66m0,0l-1.77,.41m2.05-1.86l18.69-4.31m-1.05,2.31l-15.03,3.47m17.28-3.99l-2.25,.52m0,0l-.31-1.31m0,0l2.26-.52m0,0l.3,1.31m-20.33,3.31l1.77-.4m0,0l.31,1.3m0,0l-1.77,.41m0,0l-.31-1.31m1.77-.4l16-3.7m.31,1.31l-16,3.69m15.84-4.34l-16,3.69" fill="none" stroke="#000" stroke-linecap="round" stroke-linejoin="round" stroke-width=".25"/><path d="M388.73,152.59l.3,1.31m-.3-1.31l.3,1.31m-1.21-5.23l.91,3.92m.3,1.31l2.48,10.73m-55.39,.11l.31,1.31m-.31-1.31l.31,1.31m-1.21-5.24l.9,3.93m.31,1.31l2.47,10.73m48.92-28.11l3.69,15.97" fill="none" stroke="#000" stroke-linecap="round" stroke-linejoin="round" stroke-width=".22"/><path d="M322.47,180.57l-11.27,2.6-3.68-15.96,27.7-6.4,3.68,15.97-11.26,2.6-5.17,1.19h0Z" fill="#2d2d2c" fill-rule="evenodd"/><path d="M387.82,148.66l24.32-5.62,3.69,15.97-24.32,5.61-3.69-15.97Z" fill="#2d2d2c"/><path d="M430.58,153.19l-2.66,10.68m3.96-15.9l-.97,3.91m0,0l-.33,1.31m52.38,13.06l-2.66,10.69m3.96-15.9l-.97,3.91m0,0l-.33,1.3" fill="none" stroke="#000" stroke-linecap="round" stroke-linejoin="round" stroke-width=".22"/><path d="M484.26,161.04l-52.38-13.07m48.42,28.97l-52.38-13.07m55.04,2.38l-2.99-.75m0,0l.33-1.3m0,0l2.99,.75m-29.93-7.47l1.49,.38m0,0l-.32,1.3m0,0l-1.5-.37m27.1,6.06l-25.44-6.34m25.28,6.99l-25.44-6.34m.32-1.3l25.45,6.34m-27.27-5.41l-.75-.19m0,0l.17-.65m0,0l-.75-.19m0,0l.16-.65m0,0l1.5,.37m-22.45-5.6l2.34,.59m.01,0l-.17,.65m0,0l-.58-.14m0,0l-.17,.65m0,0l-1.76-.44m2.67-.72l18.61,4.64m-1.98,1.58l-14.97-3.73m17.21,4.29l-2.24-.56m0,0l.32-1.3m0,0l2.25,.56m0,0l-.33,1.3m-19.61-6.27l1.76,.43m0,0l-.33,1.31m0,0l-1.76-.44m0,0l.33-1.3m1.76,.43l15.93,3.98m-.32,1.3l-15.94-3.97m16.1,3.32l-15.94-3.97" fill="none" stroke="#000" stroke-linecap="round" stroke-linejoin="round" stroke-width=".25"/><path d="M483.29,164.95l-.33,1.3m.33-1.3l-.33,1.3m1.3-5.21l-.97,3.91m-.33,1.3l-2.66,10.69m-49.39-25.06l-.33,1.31m.33-1.31l-.33,1.31m1.3-5.22l-.97,3.91m-.33,1.31l-2.66,10.68m56.34-2.83l-3.96,15.9" fill="none" stroke="#000" stroke-linecap="round" stroke-linejoin="round" stroke-width=".22"/><path d="M416.2,160.95l-8.02-2,3.96-15.9,19.74,4.92-3.96,15.9-8.03-2-3.69-.92Z" fill="#2d2d2c" fill-rule="evenodd"/><path d="M480.29,176.92l3.96-15.9,25.26,6.3-3.97,15.9-25.26-6.3Z" fill="#2d2d2c"/><path d="M615,153.77l-2.67,10.68m3.97-15.9l-.98,3.91m0,0l-.32,1.31m52.38,13.06l-2.66,10.68m3.96-15.9l-.97,3.91m0,0l-.33,1.31" fill="none" stroke="#000" stroke-linecap="round" stroke-linejoin="round" stroke-width=".22"/><path d="M668.68,161.61l-52.38-13.06m48.42,28.96l-52.39-13.06m55.05,2.38l-2.99-.75m0,0l.32-1.3m0,0l3,.74m-29.94-7.46l1.5,.37m0,0l-.33,1.31m0,0l-1.49-.38m27.1,6.07l-25.44-6.35m25.28,7l-25.45-6.34m.33-1.31l25.44,6.35m-27.26-5.42l-.75-.18m0,0l.16-.66m0,0l-.75-.18m0,0l.17-.65m0,0l1.49,.37m-22.45-5.6l2.35,.59m0,0l-.16,.65m0,0l-.59-.15m0,0l-.16,.65m0,0l-1.76-.43m2.67-.72l18.61,4.64m-1.99,1.58l-14.96-3.73m17.21,4.29l-2.25-.56m0,0l.33-1.3m0,0l2.24,.56m0,0l-.32,1.31m-19.62-6.28l1.76,.44m0,0l-.32,1.31m0,0l-1.76-.44m0,0l.32-1.31m1.76,.44l15.94,3.97m-.33,1.31l-15.93-3.97m16.09,3.32l-15.93-3.98" fill="none" stroke="#000" stroke-linecap="round" stroke-linejoin="round" stroke-width=".25"/><path d="M667.71,165.52l-.33,1.31m.33-1.31l-.33,1.31m1.3-5.22l-.97,3.91m-.33,1.31l-2.66,10.68m-49.4-25.05l-.32,1.31m.32-1.31l-.32,1.31m1.3-5.22l-.98,3.91m-.32,1.31l-2.67,10.68m56.35-2.84l-3.96,15.9" fill="none" stroke="#000" stroke-linecap="round" stroke-linejoin="round" stroke-width=".22"/><path d="M600.65,161.54l-8.01-2,3.97-15.9,19.69,4.91-3.97,15.9-8-1.99-3.68-.92Z" fill="#2d2d2c" fill-rule="evenodd"/><path d="M664.71,177.5l3.97-15.9,24.72,6.16-3.97,15.9-24.72-6.17Z" fill="#2d2d2c"/><path d="M801,154.14l-2.67,10.69m3.97-15.9l-.98,3.91m0,0l-.32,1.3m52.38,13.06l-2.66,10.69m3.96-15.9l-.97,3.91m0,0l-.33,1.3" fill="none" stroke="#000" stroke-linecap="round" stroke-linejoin="round" stroke-width=".22"/><path d="M854.68,161.99l-52.38-13.06m48.42,28.96l-52.39-13.06m55.05,2.37l-2.99-.75m0,0l.32-1.3m0,0l3,.75m-29.94-7.47l1.5,.38m0,0l-.33,1.3m0,0l-1.49-.37m27.1,6.06l-25.44-6.34m25.28,6.99l-25.45-6.34m.33-1.3l25.44,6.34m-27.26-5.41l-.75-.19m0,0l.16-.65m0,0l-.75-.19m0,0l.17-.65m0,0l1.49,.37m-22.45-5.59l2.35,.58m0,0l-.16,.65m0,0l-.59-.14m0,0l-.16,.65m0,0l-1.76-.44m2.67-.72l18.61,4.64m-1.99,1.58l-14.96-3.73m17.21,4.29l-2.25-.56m0,0l.33-1.3m0,0l2.24,.56m0,0l-.32,1.3m-19.62-6.27l1.76,.44m0,0l-.32,1.3m0,0l-1.76-.44m0,0l.32-1.3m1.76,.44l15.94,3.97m-.33,1.3l-15.93-3.97m16.09,3.32l-15.93-3.97" fill="none" stroke="#000" stroke-linecap="round" stroke-linejoin="round" stroke-width=".25"/><path d="M853.71,165.9l-.33,1.3m.33-1.3l-.33,1.3m1.3-5.21l-.97,3.91m-.33,1.3l-2.66,10.69m-49.4-25.05l-.32,1.3m.32-1.3l-.32,1.3m1.3-5.21l-.98,3.91m-.32,1.3l-2.67,10.69m56.35-2.84l-3.96,15.9" fill="none" stroke="#000" stroke-linecap="round" stroke-linejoin="round" stroke-width=".22"/><path d="M786.11,161.78l-8.38-2.09,3.96-15.9,20.61,5.13-3.97,15.91-8.38-2.09-3.84-.96h0Z" fill="#2d2d2c" fill-rule="evenodd"/><path d="M850.7,177.88l3.97-15.9,22.87,5.7-3.97,15.9-22.87-5.7Z" fill="#2d2d2c"/><path d="M985.33,153.2l-2.66,10.68m3.96-15.9l-.97,3.91m0,0l-.33,1.31m52.38,13.06l-2.66,10.69m3.96-15.9l-.97,3.91m0,0l-.33,1.3" fill="none" stroke="#000" stroke-linecap="round" stroke-linejoin="round" stroke-width=".22"/><path d="M1039.01,161.05l-52.38-13.07m48.42,28.97l-52.38-13.07m55.04,2.38l-2.99-.75m0,0l.33-1.3m0,0l2.99,.75m-29.93-7.47l1.49,.38m0,0l-.32,1.3m0,0l-1.5-.37m27.1,6.06l-25.44-6.34m25.28,6.99l-25.44-6.34m.32-1.3l25.45,6.34m-27.27-5.41l-.75-.19m0,0l.17-.65m0,0l-.75-.19m0,0l.16-.65m0,0l1.5,.37m-22.45-5.6l2.34,.59m.01,0l-.17,.65m0,0l-.58-.14m0,0l-.17,.65m0,0l-1.76-.44m2.67-.72l18.61,4.64m-1.98,1.58l-14.97-3.73m17.21,4.29l-2.24-.56m0,0l.32-1.3m0,0l2.25,.56m0,0l-.33,1.3m-19.61-6.27l1.76,.43m0,0l-.33,1.31m0,0l-1.76-.44m0,0l.33-1.3m1.76,.43l15.93,3.98m-.32,1.3l-15.94-3.97m16.1,3.32l-15.94-3.97" fill="none" stroke="#000" stroke-linecap="round" stroke-linejoin="round" stroke-width=".25"/><path d="M1038.04,164.96l-.33,1.3m.33-1.3l-.33,1.3m1.3-5.21l-.97,3.91m-.33,1.3l-2.66,10.69m-49.39-25.06l-.33,1.31m.33-1.31l-.33,1.31m1.3-5.22l-.97,3.91m-.33,1.31l-2.66,10.68m56.34-2.83l-3.96,15.9" fill="none" stroke="#000" stroke-linecap="round" stroke-linejoin="round" stroke-width=".22"/><path d="M971.4,161.08l-7.72-1.93,3.97-15.9,18.98,4.73-3.96,15.9-7.72-1.92-3.55-.88Z" fill="#2d2d2c" fill-rule="evenodd"/><path d="M1035.03,176.93l3.96-15.9,24.92,6.21-3.96,15.9-24.92-6.21Z" fill="#2d2d2c"/><path d="M1173.15,154.62l-2.47,10.73m3.68-15.97l-.9,3.93m0,0l-.31,1.31m52.61,12.14l-2.48,10.73m3.69-15.96l-.91,3.92m0,0l-.3,1.31" fill="none" stroke="#000" stroke-linecap="round" stroke-linejoin="round" stroke-width=".22"/><path d="M1226.97,161.53l-52.61-12.15m48.92,28.11l-52.6-12.14m55.08,1.41l-3.01-.69m0,0l.3-1.31m0,0l3.01,.69m-30.06-6.94l1.5,.35m0,0l-.3,1.31m0,0l-1.5-.35m27.2,5.59l-25.55-5.9m25.4,6.56l-25.55-5.9m.3-1.31l25.55,5.9m-27.35-4.94l-.75-.17m0,0l.15-.66m0,0l-.75-.17m0,0l.15-.65m0,0l1.5,.34m-22.54-5.2l2.35,.54m0,0l-.15,.66m0,0l-.59-.14m0,0l-.15,.65m0,0l-1.77-.4m2.66-.77l18.69,4.32m-1.96,1.61l-15.03-3.47m17.29,3.99l-2.26-.52m0,0l.3-1.31m0,0l2.26,.52m0,0l-.3,1.31m-19.73-5.93l1.77,.41m0,0l-.3,1.31m0,0l-1.77-.41m0,0l.3-1.31m1.77,.41l16,3.69m-.3,1.31l-16-3.69m16.15,3.04l-16-3.7" fill="none" stroke="#000" stroke-linecap="round" stroke-linejoin="round" stroke-width=".25"/><path d="M1226.06,165.45l-.3,1.31m.3-1.31l-.3,1.31m1.21-5.23l-.91,3.92m-.3,1.31l-2.48,10.73m-49.82-24.18l-.31,1.31m.31-1.31l-.31,1.31m1.21-5.24l-.9,3.93m-.31,1.31l-2.47,10.73m56.29-3.82l-3.69,15.96" fill="none" stroke="#000" stroke-linecap="round" stroke-linejoin="round" stroke-width=".22"/><path d="M1156.3,162.03l-9.85-2.27,3.69-15.97,24.22,5.59-3.68,15.97-9.85-2.28-4.53-1.04h0Z" fill="#2d2d2c" fill-rule="evenodd"/><path d="M1223.25,177.48l3.69-15.97,26.23,6.06-3.69,15.97-26.23-6.06Z" fill="#2d2d2c"/><path d="M523.97,167.29l2.66,10.69m-3.96-15.9l.97,3.91m0,0l.33,1.3m52.38-13.06l2.66,10.69m-3.96-15.9l.97,3.91m0,0l.33,1.3" fill="none" stroke="#000" stroke-linecap="round" stroke-linejoin="round" stroke-width=".22"/><path d="M575.05,149.02l-52.38,13.06m56.34,2.84l-52.38,13.06m49.72-23.75l-2.99,.75m0,0l-.33-1.31m0,0l2.99-.74m-29.93,7.46l1.5-.37m0,0l.32,1.3m0,0l-1.49,.37m26.77-7.36l-25.44,6.34m25.61-5.69l-25.45,6.34m-.32-1.3l25.44-6.35m-26.61,8.02l-.75,.19m0,0l-.16-.65m0,0l-.75,.19m0,0l-.17-.66m0,0l1.5-.37m-22.45,5.6l2.35-.59m0,0l.16,.65m0,0l-.58,.15m0,0l.16,.65m0,0l-1.76,.44m2.02-1.89l18.61-4.64m-1.01,2.33l-14.97,3.73m17.21-4.29l-2.24,.56m0,0l-.33-1.3m0,0l2.25-.56m0,0l.32,1.3m-20.26,3.67l1.76-.44m0,0l.32,1.3m0,0l-1.76,.44m0,0l-.32-1.3m1.76-.44l15.93-3.97m.33,1.3l-15.94,3.97m15.77-4.62l-15.93,3.97" fill="none" stroke="#000" stroke-linecap="round" stroke-linejoin="round" stroke-width=".25"/><path d="M576.02,152.93l.33,1.3m-.33-1.3l.33,1.3m-1.3-5.21l.97,3.91m.33,1.3l2.66,10.69m-55.37,1.07l.33,1.3m-.33-1.3l.33,1.3m-1.3-5.21l.97,3.91m.33,1.3l2.66,10.69m48.42-28.96l3.96,15.9" fill="none" stroke="#000" stroke-linecap="round" stroke-linejoin="round" stroke-width=".22"/><path d="M514.13,181.1l-8.57,2.13-3.97-15.9,21.08-5.25,3.96,15.9-8.57,2.13-3.93,.99h0Z" fill="#2d2d2c" fill-rule="evenodd"/><path d="M575.05,149l21.57-5.38,3.96,15.9-21.57,5.38-3.96-15.9Z" fill="#2d2d2c"/><path d="M709.63,167.29l2.67,10.69m-3.97-15.9l.98,3.91m0,0l.32,1.3m52.39-13.06l2.66,10.69m-3.96-15.9l.97,3.91m0,0l.33,1.3" fill="none" stroke="#000" stroke-linecap="round" stroke-linejoin="round" stroke-width=".22"/><path d="M760.72,149.02l-52.39,13.06m56.35,2.84l-52.38,13.06m49.72-23.75l-3,.75m0,0l-.32-1.31m0,0l2.99-.74m-29.93,7.46l1.49-.37m0,0l.33,1.3m0,0l-1.5,.37m26.78-7.36l-25.44,6.34m25.6-5.69l-25.44,6.34m-.33-1.3l25.45-6.35m-26.62,8.02l-.75,.19m0,0l-.16-.65m0,0l-.75,.19m0,0l-.16-.66m0,0l1.5-.37m-22.45,5.6l2.35-.59m0,0l.16,.65m0,0l-.59,.15m0,0l.17,.65m0,0l-1.77,.44m2.03-1.89l18.6-4.64m-1.01,2.33l-14.96,3.73m17.21-4.29l-2.25,.56m0,0l-.32-1.3m0,0l2.24-.56m0,0l.33,1.3m-20.27,3.67l1.76-.44m0,0l.33,1.3m0,0l-1.76,.44m0,0l-.33-1.3m1.76-.44l15.94-3.97m.32,1.3l-15.93,3.97m15.77-4.62l-15.93,3.97" fill="none" stroke="#000" stroke-linecap="round" stroke-linejoin="round" stroke-width=".25"/><path d="M761.69,152.93l.33,1.3m-.33-1.3l.33,1.3m-1.3-5.21l.97,3.91m.33,1.3l2.66,10.69m-55.37,1.07l.32,1.3m-.32-1.3l.32,1.3m-1.3-5.21l.98,3.91m.32,1.3l2.67,10.69m48.42-28.96l3.96,15.9" fill="none" stroke="#000" stroke-linecap="round" stroke-linejoin="round" stroke-width=".22"/><path d="M698.73,181.36l-9.29,2.32-3.97-15.9,22.86-5.7,3.97,15.9-9.3,2.32-4.27,1.06h0Z" fill="#2d2d2c" fill-rule="evenodd"/><path d="M760.72,149.01l20.98-5.23,3.97,15.9-20.98,5.23-3.97-15.9Z" fill="#2d2d2c"/><path d="M894.01,167.15l2.66,10.68m-3.96-15.9l.97,3.91m0,0l.33,1.31m52.38-13.06l2.67,10.68m-3.97-15.9l.98,3.91m0,0l.32,1.31" fill="none" stroke="#000" stroke-linecap="round" stroke-linejoin="round" stroke-width=".22"/><path d="M945.09,148.87l-52.38,13.06m56.35,2.84l-52.39,13.07m49.72-23.75l-2.99,.74m0,0l-.33-1.3m0,0l3-.75m-29.94,7.47l1.5-.38m0,0l.32,1.31m0,0l-1.49,.37m26.78-7.37l-25.45,6.35m25.61-5.7l-25.45,6.35m-.32-1.31l25.44-6.34m-26.61,8.02l-.75,.19m0,0l-.16-.65m0,0l-.75,.18m0,0l-.16-.65m0,0l1.49-.37m-22.45,5.59l2.35-.58m0,0l.16,.65m0,0l-.58,.15m0,0l.16,.65m0,0l-1.76,.44m2.02-1.89l18.61-4.64m-1.01,2.33l-14.97,3.73m17.21-4.29l-2.24,.56m0,0l-.33-1.3m0,0l2.25-.56m0,0l.32,1.3m-20.26,3.67l1.76-.44m0,0l.32,1.3m0,0l-1.76,.44m0,0l-.32-1.3m1.76-.44l15.93-3.97m.33,1.3l-15.94,3.97m15.77-4.62l-15.93,3.97" fill="none" stroke="#000" stroke-linecap="round" stroke-linejoin="round" stroke-width=".25"/><path d="M946.07,152.78l.32,1.31m-.32-1.31l.32,1.31m-1.3-5.22l.98,3.91m.32,1.31l2.67,10.68m-55.38,1.07l.33,1.31m-.33-1.31l.33,1.31m-1.3-5.22l.97,3.91m.33,1.31l2.66,10.68m48.42-28.96l3.97,15.91" fill="none" stroke="#000" stroke-linecap="round" stroke-linejoin="round" stroke-width=".22"/><path d="M882.98,181.25l-9.39,2.34-3.96-15.9,23.08-5.76,3.96,15.9-9.38,2.35-4.31,1.07h0Z" fill="#2d2d2c" fill-rule="evenodd"/><path d="M945.09,148.86l22.56-5.62,3.97,15.9-22.56,5.62-3.97-15.9Z" fill="#2d2d2c"/><path d="M1079.67,166.89l2.67,10.69m-3.96-15.9l.97,3.91m0,0l.32,1.3m52.39-13.06l2.66,10.69m-3.96-15.9l.97,3.91m0,0l.33,1.3" fill="none" stroke="#000" stroke-linecap="round" stroke-linejoin="round" stroke-width=".22"/><path d="M1130.76,148.62l-52.38,13.06m56.34,2.84l-52.38,13.06m49.72-23.75l-3,.75m0,0l-.32-1.3m0,0l2.99-.75m-29.93,7.46l1.5-.37m0,0l.32,1.3m0,0l-1.5,.38m26.78-7.37l-25.44,6.34m25.6-5.69l-25.44,6.34m-.32-1.3l25.44-6.34m-26.62,8.02l-.74,.18m0,0l-.17-.65m0,0l-.74,.19m0,0l-.17-.65m0,0l1.5-.38m-22.45,5.6l2.35-.58m0,0l.16,.65m0,0l-.59,.14m0,0l.17,.66m0,0l-1.76,.43m2.02-1.88l18.6-4.64m-1.01,2.33l-14.96,3.73m17.21-4.29l-2.25,.56m0,0l-.32-1.31m0,0l2.24-.56m0,0l.33,1.31m-20.27,3.66l1.77-.44m0,0l.32,1.31m0,0l-1.76,.44m0,0l-.33-1.31m1.77-.44l15.93-3.97m.32,1.31l-15.93,3.97m15.77-4.63l-15.93,3.98" fill="none" stroke="#000" stroke-linecap="round" stroke-linejoin="round" stroke-width=".25"/><path d="M1131.73,152.53l.33,1.3m-.33-1.3l.33,1.3m-1.3-5.21l.97,3.91m.33,1.3l2.66,10.69m-55.37,1.07l.32,1.3m-.32-1.3l.32,1.3m-1.29-5.21l.97,3.91m.32,1.3l2.67,10.69m48.42-28.96l3.96,15.9" fill="none" stroke="#000" stroke-linecap="round" stroke-linejoin="round" stroke-width=".22"/><path d="M1069.07,180.89l-9.1,2.27-3.96-15.9,22.36-5.58,3.97,15.9-9.1,2.27-4.17,1.04Z" fill="#2d2d2c" fill-rule="evenodd"/><path d="M1130.75,148.6l19.39-4.83,3.96,15.9-19.39,4.83-3.96-15.9Z" fill="#2d2d2c"/><path d="M1274.59,166.45l2.48,10.73m-3.69-15.96l.91,3.92m0,0l.3,1.31m52.61-12.14l2.47,10.73m-3.68-15.97l.9,3.93m0,0l.31,1.31" fill="none" stroke="#000" stroke-linecap="round" stroke-linejoin="round" stroke-width=".22"/><path d="M1325.99,149.07l-52.61,12.15m56.29,3.82l-52.6,12.14m50.13-22.87l-3.01,.69m0,0l-.3-1.31m0,0l3-.69m-30.05,6.94l1.5-.35m0,0l.3,1.31m0,0l-1.5,.35m26.9-6.9l-25.55,5.9m25.7-5.25l-25.55,5.9m-.3-1.31l25.55-5.9m-26.75,7.56l-.75,.17m0,0l-.16-.65m0,0l-.75,.17m0,0l-.15-.65m0,0l1.51-.35m-22.55,5.2l2.36-.54m0,0l.15,.65m0,0l-.59,.14m0,0l.15,.65m0,0l-1.77,.41m2.06-1.85l18.68-4.31m-1.05,2.31l-15.03,3.47m17.29-3.99l-2.26,.52m0,0l-.3-1.31m0,0l2.25-.52m0,0l.31,1.31m-20.33,3.31l1.77-.41m0,0l.3,1.31m0,0l-1.77,.41m0,0l-.3-1.31m1.77-.41l16-3.69m.3,1.31l-16,3.69m15.85-4.35l-16,3.7" fill="none" stroke="#000" stroke-linecap="round" stroke-linejoin="round" stroke-width=".25"/><path d="M1326.89,153l.31,1.31m-.31-1.31l.31,1.31m-1.21-5.24l.9,3.93m.31,1.31l2.47,10.73m-55.38,.1l.3,1.31m-.3-1.31l.3,1.31m-1.21-5.23l.91,3.92m.3,1.31l2.48,10.73m48.92-28.11l3.68,15.97" fill="none" stroke="#000" stroke-linecap="round" stroke-linejoin="round" stroke-width=".22"/><path d="M1260.72,180.96l-11.21,2.59-3.69-15.97,27.56-6.36,3.69,15.96-11.21,2.59-5.14,1.19h0Z" fill="#2d2d2c" fill-rule="evenodd"/><path d="M1325.99,149.06l26.74-6.17,3.69,15.97-26.74,6.17-3.69-15.97Z" fill="#2d2d2c"/><path d="M157.4,206.37h11.01m-16.38,0h4.03m0,0h1.34m0-37.54h11.01m-16.38,0h4.03m0,0h1.34" fill="none" stroke="#000" stroke-linecap="round" stroke-linejoin="round" stroke-width=".22"/><path d="M152.03,168.83v37.54m16.38-37.54v37.54m-11.01-37.54v2.42m0,0h-1.34m0,0v-2.42m0,19.39v-1.21m0,0h1.34m0,0v1.21m-.67-16.97v15.76m.67-15.76v15.76m-1.34,0v-15.76m1.34,16.97v.6m0,0h-.67m0,0v.61m0,0h-.67m0,0v-1.21m0,18.15v-2.42m0,0h.67m0,0v.61m0,0h.67m0,0v1.81m-1.34-2.42v-14.52m2.01,1.21v12.1m0-13.92v1.82m0,0h-1.34m0,0v-1.82m0,0h1.34m-1.34,15.74v-1.82m0,0h1.34m0,0v1.82m0,0h-1.34m0-1.82v-12.1m1.34,0v12.1m-.67-12.1v12.1" fill="none" stroke="#000" stroke-linecap="round" stroke-linejoin="round" stroke-width=".25"/><path d="M156.06,168.83h1.34m-1.34,0h1.34m-5.37,0h4.03m1.34,0h11.01m-12.35,37.54h1.34m-1.34,0h1.34m-5.37,0h4.03m1.34,0h11.01m-16.38-37.54h16.38" fill="none" stroke="#000" stroke-linecap="round" stroke-linejoin="round" stroke-width=".22"/><path d="M168.41,224.42v12.36h-16.38v-30.41h16.38v18.05Z" fill="#2d2d2c" fill-rule="evenodd"/><path d="M152.03,142.9h16.39v25.93h-16.39v-25.93Z" fill="#2d2d2c"/><path d="M173.3,396.74l10.81-2.1m-16.08,3.12l3.95-.77m0,0l1.32-.25m-9.88-50.85l10.81-2.1m-16.09,3.13l3.96-.77m0,0l1.32-.26" fill="none" stroke="#000" stroke-linecap="round" stroke-linejoin="round" stroke-width=".22"/><path d="M158.14,346.92l9.89,50.84m6.2-53.97l9.88,50.85m-20.69-48.75l.46,2.38m0,0l-1.32,.26m0,0l-.46-2.38m4.62,23.76l-.23-1.18m0,0l1.32-.26m0,0l.23,1.19m-4.82-21.26l3.93,20.2m-3.27-20.33l3.93,20.2m-1.32,.26l-3.93-20.2m5.48,21.13l.11,.59m0,0l-.66,.13m0,0l.12,.59m0,0l-.66,.13m0,0l-.23-1.19m5.26,27.08l-.56-2.9m0,0l.66-.13m0,0l.14,.73m0,0l.66-.13m0,0l.42,2.18m-1.88-2.65l-4.47-22.99m3.34,6.62l2.82,14.53m-4.3-22.13l.35,1.79m0,0l-1.32,.25m0,0l-.35-1.78m0,0l1.32-.26m3.41,24.57l-.42-2.18m0,0l1.31-.26m0,0l.43,2.18m0,0l-1.32,.26m-.42-2.18l-3.96-20.35m1.32-.25l3.95,20.34m-4.64-20.22l3.98,20.35" fill="none" stroke="#000" stroke-linecap="round" stroke-linejoin="round" stroke-width=".25"/><path d="M162.1,346.15l1.32-.26m-1.32,.26l1.32-.26m-5.28,1.03l3.96-.77m1.32-.26l10.81-2.1m-2.25,53.2l1.32-.25m-1.32,.25l1.32-.25m-5.27,1.02l3.95-.77m1.32-.25l10.81-2.1m-25.97-47.72l16.09-3.13" fill="none" stroke="#000" stroke-linecap="round" stroke-linejoin="round" stroke-width=".22"/><path d="M184.44,396.32l.23,1.16-16.09,3.13-.55-2.85,16.08-3.12,.23,1.15,.1,.53Z" fill="#2d2d2c" fill-rule="evenodd"/><path d="M156.7,339.45l16.09-3.13,1.45,7.47-16.09,3.13-1.45-7.47Z" fill="#2d2d2c"/><path d="M173.32,507.41l10.9-1.53m-16.22,2.28l3.99-.56m0,0l1.33-.19m-8.61-60.87l10.91-1.53m-16.23,2.28l3.99-.56m0,0l1.33-.19" fill="none" stroke="#000" stroke-linecap="round" stroke-linejoin="round" stroke-width=".22"/><path d="M159.39,447.29l8.61,60.87m7.62-63.15l8.6,60.87m-19.51-59.34l.34,2.4m0,0l-1.33,.18m0,0l-.34-2.39m3.37,23.97l-.17-1.2m0,0l1.33-.19m0,0l.17,1.2m-3.7-21.48l2.87,20.38m-2.2-20.47l2.86,20.37m-1.33,.19l-2.86-20.38m4.36,21.39l.08,.6m0,0l-.66,.09m0,0l.08,.6m0,0l-.66,.1m0,0l-.17-1.2m5.24,36.9l-.41-2.93m0,0l.67-.09m0,0l.1,.73m0,0l.67-.09m0,0l.31,2.19m-1.75-2.74l-4.65-32.77m2.99,6.78l3.45,24.24m-4.53-31.9l.25,1.8m0,0l-1.33,.18m0,0l-.25-1.8m0,0l1.33-.18m3.51,34.29l-.31-2.2m0,0l1.33-.19m0,0l.31,2.2m0,0l-1.33,.19m-.31-2.2l-4.28-30.11m1.33-.18l4.28,30.1m-4.97-30.01l4.31,30.11" fill="none" stroke="#000" stroke-linecap="round" stroke-linejoin="round" stroke-width=".25"/><path d="M163.38,446.73l1.33-.19m-1.33,.19l1.33-.19m-5.32,.75l3.99-.56m1.33-.19l10.91-1.53m-3.63,62.59l1.33-.19m-1.33,.19l1.33-.19m-5.32,.75l3.99-.56m1.33-.19l10.9-1.53m-24.83-58.59l16.23-2.28" fill="none" stroke="#000" stroke-linecap="round" stroke-linejoin="round" stroke-width=".22"/><path d="M184.49,507.75l.18,1.29-16.23,2.28-.44-3.16,16.22-2.28,.18,1.29,.09,.58h0Z" fill="#2d2d2c" fill-rule="evenodd"/><path d="M156.69,428.09l16.23-2.28,2.7,19.19-16.23,2.28-2.7-19.19Z" fill="#2d2d2c"/><path d="M173.28,617.89l10.91-1.53m-16.23,2.28l3.99-.56m0,0l1.33-.19m-8.6-60.88l10.9-1.53m-16.22,2.28l3.99-.56m0,0l1.33-.19" fill="none" stroke="#000" stroke-linecap="round" stroke-linejoin="round" stroke-width=".22"/><path d="M159.36,557.76l8.6,60.88m7.63-63.16l8.6,60.88m-19.51-59.35l.33,2.4m0,0l-1.32,.19m0,0l-.34-2.4m3.37,23.97l-.17-1.19m0,0l1.33-.19m0,0l.17,1.2m-3.7-21.48l2.86,20.37m-2.2-20.47l2.87,20.38m-1.33,.19l-2.87-20.38m4.37,21.39l.08,.6m0,0l-.66,.09m0,0l.08,.6m0,0l-.66,.09m0,0l-.17-1.2m5.23,36.91l-.41-2.93m0,0l.67-.1m0,0l.1,.73m0,0l.67-.09m0,0l.3,2.2m-1.74-2.74l-4.65-32.78m2.98,6.79l3.46,24.24m-4.53-31.91l.25,1.8m0,0l-1.33,.19m0,0l-.25-1.8m0,0l1.33-.19m3.51,34.29l-.31-2.19m0,0l1.33-.19m0,0l.31,2.2m0,0l-1.33,.18m-.31-2.19l-4.28-30.11m1.33-.19l4.28,30.11m-4.97-30.02l4.31,30.11" fill="none" stroke="#000" stroke-linecap="round" stroke-linejoin="round" stroke-width=".25"/><path d="M163.35,557.2l1.33-.19m-1.33,.19l1.33-.19m-5.32,.75l3.99-.56m1.33-.19l10.9-1.53m-3.63,62.6l1.33-.19m-1.33,.19l1.33-.19m-5.32,.75l3.99-.56m1.33-.19l10.91-1.53m-24.83-58.6l16.23-2.28" fill="none" stroke="#000" stroke-linecap="round" stroke-linejoin="round" stroke-width=".22"/><path d="M184.47,618.33l.19,1.36-16.23,2.28-.47-3.33,16.23-2.28,.19,1.35,.09,.62h0Z" fill="#2d2d2c" fill-rule="evenodd"/><path d="M156.69,538.81l16.23-2.28,2.66,18.95-16.23,2.28-2.66-18.95Z" fill="#2d2d2c"/><path d="M173.25,711.2l10.85-1.91m-16.14,2.85l3.97-.7m0,0l1.32-.24m-9.14-51.57l10.85-1.91m-16.14,2.85l3.97-.7m0,0l1.32-.24" fill="none" stroke="#000" stroke-linecap="round" stroke-linejoin="round" stroke-width=".22"/><path d="M158.82,660.57l9.14,51.57m7-54.42l9.14,51.57m-19.99-49.66l.42,2.39m0,0l-1.32,.23m0,0l-.42-2.38m4.2,23.84l-.21-1.2m0,0l1.32-.23m0,0l.21,1.19m-4.44-21.34l3.57,20.27m-2.91-20.38l3.57,20.26m-1.32,.23l-3.57-20.26m5.1,21.22l.11,.6m0,0l-.66,.12m0,0l.1,.59m0,0l-.66,.12m0,0l-.21-1.19m4.94,27.73l-.44-2.49m0,0l.66-.11m0,0l.11,.62m0,0l.67-.12m0,0l.32,1.86m-1.76-2.25l-4.94-27.76m3.04,5.64l3.67,20.53m-4.18-23.41l.32,1.79m0,0l-1.33,.23m0,0l-.31-1.78m0,0l1.32-.24m3.18,25.51l-.32-1.86m0,0l1.32-.24m0,0l.33,1.87m0,0l-1.33,.23m-.32-1.86l-3.87-21.63m1.33-.23l3.86,21.62m-4.54-21.5l3.88,21.62" fill="none" stroke="#000" stroke-linecap="round" stroke-linejoin="round" stroke-width=".25"/><path d="M162.79,659.87l1.32-.24m-1.32,.24l1.32-.24m-5.29,.94l3.97-.7m1.32-.24l10.85-1.91m-3.03,53.72l1.32-.24m-1.32,.24l1.32-.24m-5.29,.94l3.97-.7m1.32-.24l10.85-1.91m-25.28-48.72l16.14-2.85" fill="none" stroke="#000" stroke-linecap="round" stroke-linejoin="round" stroke-width=".22"/><path d="M184.43,711.15l.22,1.28-16.13,2.84-.56-3.13,16.14-2.85,.23,1.28,.1,.58h0Z" fill="#2d2d2c" fill-rule="evenodd"/><path d="M156.7,648.52l16.14-2.85,2.13,12.05-16.14,2.85-2.13-12.05Z" fill="#2d2d2c"/><path d="M173.25,804.7l10.85-1.91m-16.14,2.85l3.97-.7m0,0l1.32-.24m-9.14-51.57l10.85-1.91m-16.14,2.85l3.97-.7m0,0l1.32-.24" fill="none" stroke="#000" stroke-linecap="round" stroke-linejoin="round" stroke-width=".22"/><path d="M158.82,754.07l9.14,51.57m7-54.42l9.14,51.57m-19.99-49.66l.42,2.39m0,0l-1.32,.23m0,0l-.42-2.38m4.2,23.84l-.21-1.2m0,0l1.32-.23m0,0l.21,1.19m-4.44-21.34l3.57,20.27m-2.91-20.38l3.57,20.26m-1.32,.23l-3.57-20.26m5.1,21.22l.11,.6m0,0l-.66,.12m0,0l.1,.59m0,0l-.66,.12m0,0l-.21-1.19m4.94,27.73l-.44-2.49m0,0l.66-.11m0,0l.11,.62m0,0l.67-.12m0,0l.32,1.86m-1.76-2.25l-4.94-27.76m3.04,5.64l3.67,20.53m-4.18-23.41l.32,1.79m0,0l-1.33,.23m0,0l-.31-1.78m0,0l1.32-.24m3.18,25.51l-.32-1.86m0,0l1.32-.24m0,0l.33,1.87m0,0l-1.33,.23m-.32-1.86l-3.87-21.63m1.33-.23l3.86,21.62m-4.54-21.5l3.88,21.62" fill="none" stroke="#000" stroke-linecap="round" stroke-linejoin="round" stroke-width=".25"/><path d="M162.79,753.37l1.32-.24m-1.32,.24l1.32-.24m-5.29,.94l3.97-.7m1.32-.24l10.85-1.91m-3.03,53.72l1.32-.24m-1.32,.24l1.32-.24m-5.29,.94l3.97-.7m1.32-.24l10.85-1.91m-25.28-48.72l16.14-2.85" fill="none" stroke="#000" stroke-linecap="round" stroke-linejoin="round" stroke-width=".22"/><path d="M184.43,804.65l.22,1.27-16.14,2.85-.55-3.13,16.14-2.85,.23,1.28,.1,.58h0Z" fill="#2d2d2c" fill-rule="evenodd"/><path d="M156.69,742.02l16.14-2.85,2.13,12.05-16.14,2.85-2.13-12.05Z" fill="#2d2d2c"/><path d="M173.62,903.95l10.84-1.91m-16.13,2.85l3.96-.7m0,0l1.33-.24m-9.15-51.57l10.85-1.91m-16.14,2.85l3.97-.7m0,0l1.32-.24" fill="none" stroke="#000" stroke-linecap="round" stroke-linejoin="round" stroke-width=".22"/><path d="M159.18,853.32l9.15,51.57m6.99-54.42l9.14,51.57m-19.99-49.66l.42,2.39m0,0l-1.32,.23m0,0l-.42-2.38m4.2,23.84l-.21-1.2m0,0l1.33-.23m0,0l.21,1.19m-4.45-21.34l3.57,20.27m-2.91-20.38l3.58,20.26m-1.33,.23l-3.57-20.26m5.11,21.22l.1,.6m0,0l-.66,.12m0,0l.1,.59m0,0l-.66,.12m0,0l-.21-1.19m4.94,27.73l-.43-2.49m0,0l.66-.11m0,0l.11,.62m0,0l.66-.12m0,0l.33,1.86m-1.76-2.25l-4.95-27.76m3.04,5.64l3.67,20.53m-4.18-23.41l.32,1.79m0,0l-1.32,.23m0,0l-.32-1.78m0,0l1.32-.24m3.19,25.51l-.33-1.86m0,0l1.32-.24m0,0l.33,1.87m0,0l-1.32,.23m-.33-1.86l-3.86-21.63m1.32-.23l3.86,21.62m-4.54-21.5l3.88,21.62" fill="none" stroke="#000" stroke-linecap="round" stroke-linejoin="round" stroke-width=".25"/><path d="M163.15,852.62l1.32-.24m-1.32,.24l1.32-.24m-5.29,.94l3.97-.7m1.32-.24l10.85-1.91m-3.03,53.72l1.33-.24m-1.33,.24l1.33-.24m-5.29,.94l3.96-.7m1.33-.24l10.84-1.91m-25.28-48.72l16.14-2.85" fill="none" stroke="#000" stroke-linecap="round" stroke-linejoin="round" stroke-width=".22"/><path d="M185.78,909.51l.9,5.13-16.13,2.84-2.22-12.59,16.13-2.85,.91,5.12,.41,2.35Z" fill="#2d2d2c" fill-rule="evenodd"/><path d="M156.69,839.2l16.14-2.85,2.49,14.11-16.14,2.85-2.49-14.11Z" fill="#2d2d2c"/><path d="M1391.3,269.94l-10.78-2.29m16.03,3.41l-3.94-.84m0,0l-1.31-.28m-8.81,41.44l-10.77-2.29m16.02,3.41l-3.94-.84m0,0l-1.31-.28" fill="none" stroke="#000" stroke-linecap="round" stroke-linejoin="round" stroke-width=".22"/><path d="M1387.74,312.5l8.81-41.44m-24.84,38.03l8.81-41.44m1.97,43.73l.5-2.37m0,0l1.32,.28m0,0l-.51,2.37m5.04-23.68l-.26,1.18m0,0l-1.31-.28m0,0l.25-1.18m-3.87,21.45l4.28-20.13m-4.94,19.99l4.28-20.13m1.31,.28l-4.27,20.13m3.21-21.59l.13-.59m0,0l.65,.14m0,0l.13-.59m0,0l.66,.14m0,0l-.25,1.18m3.77-17.76l-.5,2.37m0,0l-.66-.14m0,0l.13-.59m0,0l-.66-.14m0,0l.38-1.78m.81,2.65l-3.02,14.21m-1.72-1.61l2.51-11.84m-2.89,13.62l.38-1.78m0,0l1.31,.28m0,0l-.38,1.78m0,0l-1.31-.28m4.59-15.11l-.38,1.77m0,0l-1.31-.28m0,0l.38-1.77m0,0l1.32,.28m-.38,1.77l-2.52,11.84m-1.31-.28l2.51-11.84m-1.85,11.98l2.51-11.84" fill="none" stroke="#000" stroke-linecap="round" stroke-linejoin="round" stroke-width=".25"/><path d="M1383.8,311.66l-1.31-.28m1.31,.28l-1.31-.28m5.25,1.12l-3.94-.84m-1.31-.28l-10.77-2.29m20.89-38.87l-1.31-.28m1.31,.28l-1.31-.28m5.25,1.12l-3.94-.84m-1.31-.28l-10.78-2.29m7.22,44.85l-16.03-3.41" fill="none" stroke="#000" stroke-linecap="round" stroke-linejoin="round" stroke-width=".22"/><path d="M1385.07,246.27l3.11-14.65,16.03,3.41-7.66,36.03-16.03-3.41,3.12-14.65,1.43-6.73Z" fill="#2d2d2c" fill-rule="evenodd"/><path d="M1368.53,324.07l3.18-14.98,16.03,3.41-3.18,14.98-16.03-3.41Z" fill="#2d2d2c"/><path d="M1398.84,172.38h-11.02m16.39,0h-4.03m0,0h-1.34m0,37.55h-11.02m16.39,0h-4.03m0,0h-1.34" fill="none" stroke="#000" stroke-linecap="round" stroke-linejoin="round" stroke-width=".22"/><path d="M1404.21,209.93v-37.55m-16.39,37.55v-37.55m11.02,37.55v-2.43m0,0h1.34m0,0v2.43m0-19.39v1.21m0,0h-1.34m0,0v-1.21m.67,16.96v-15.75m-.67,15.75v-15.75m1.34,0v15.75m-1.34-16.96v-.61m0,0h.67m0,0v-.6m0,0h.67m0,0v1.21m0-18.16v2.42m0,0h-.67m0,0v-.6m0,0h-.67m0,0v-1.82m1.34,2.42v14.53m-2.01-1.21v-12.11m0,13.92v-1.81m0,0h1.34m0,0v1.81m0,0h-1.34m1.34-15.73v1.81m0,0h-1.34m0,0v-1.81m0,0h1.34m0,1.81v12.11m-1.34,0v-12.11m.67,12.11v-12.11" fill="none" stroke="#000" stroke-linecap="round" stroke-linejoin="round" stroke-width=".25"/><path d="M1400.18,209.93h-1.34m1.34,0h-1.34m5.37,0h-4.03m-1.34,0h-11.02m12.36-37.55h-1.34m1.34,0h-1.34m5.37,0h-4.03m-1.34,0h-11.02m16.39,37.55h-16.39" fill="none" stroke="#000" stroke-linecap="round" stroke-linejoin="round" stroke-width=".22"/><path d="M1387.82,160.53v-8.13h16.39v19.98h-16.39v-11.85Z" fill="#2d2d2c" fill-rule="evenodd"/><path d="M1387.82,209.93h16.39v25.1h-16.39v-25.1Z" fill="#2d2d2c"/><path d="M1391.91,355.29l-10.85-1.91m16.14,2.84l-3.97-.7m0,0l-1.32-.23m-9.47,53.66l-10.84-1.91m16.13,2.84l-3.96-.7m0,0l-1.33-.23" fill="none" stroke="#000" stroke-linecap="round" stroke-linejoin="round" stroke-width=".22"/><path d="M1387.73,409.88l9.47-53.66m-25.6,50.82l9.46-53.66m1.38,55.57l.45-2.51m0,0l1.32,.23m0,0l-.44,2.51m4.42-25.08l-.22,1.26m0,0l-1.33-.24m0,0l.23-1.25m-3.32,22.69l3.76-21.32m-4.42,21.2l3.75-21.32m1.33,.24l-3.76,21.31m2.66-22.8l.11-.63m0,0l.66,.12m0,0l.11-.63m0,0l.66,.12m0,0l-.22,1.25m5.04-28.58l-.54,3.07m0,0l-.66-.12m0,0l.13-.76m0,0l-.66-.12m0,0l.41-2.3m.78,3.3l-4.28,24.26m-.68-7.75l2.7-15.33m-4.11,23.36l.33-1.89m0,0l1.32,.24m0,0l-.33,1.88m0,0l-1.32-.23m5.84-25.42l-.4,2.3m0,0l-1.33-.24m0,0l.41-2.3m0,0l1.32,.24m-.4,2.3l-3.79,21.47m-1.32-.24l3.78-21.47m-3.1,21.6l3.76-21.48" fill="none" stroke="#000" stroke-linecap="round" stroke-linejoin="round" stroke-width=".25"/><path d="M1383.77,409.18l-1.33-.23m1.33,.23l-1.33-.23m5.29,.93l-3.96-.7m-1.33-.23l-10.84-1.91m21.63-51.52l-1.32-.23m1.32,.23l-1.32-.23m5.29,.93l-3.97-.7m-1.32-.23l-10.85-1.91m6.67,56.5l-16.13-2.84" fill="none" stroke="#000" stroke-linecap="round" stroke-linejoin="round" stroke-width=".22"/><path d="M1382.93,342.75l1.29-7.28,16.13,2.84-3.15,17.91-16.14-2.84,1.28-7.29,.59-3.34Z" fill="#2d2d2c" fill-rule="evenodd"/><path d="M1371.1,409.89l.5-2.85,16.14,2.85-.5,2.85-16.14-2.85Z" fill="#2d2d2c"/><path d="M1392.6,456.21l-10.87-1.72m16.18,2.56l-3.98-.63m0,0l-1.33-.21m-9.56,60.73l-10.88-1.72m16.18,2.56l-3.98-.63m0,0l-1.32-.21" fill="none" stroke="#000" stroke-linecap="round" stroke-linejoin="round" stroke-width=".22"/><path d="M1388.34,517.78l9.57-60.73m-25.75,58.17l9.57-60.73m1.31,62.45l.38-2.39m0,0l1.32,.21m0,0l-.38,2.39m3.79-23.91l-.19,1.2m0,0l-1.33-.21m0,0l.19-1.2m-2.74,21.62l3.22-20.32m-3.88,20.22l3.21-20.32m1.33,.21l-3.22,20.32m2.08-21.73l.1-.6m0,0l.66,.11m0,0l.1-.6m0,0l.66,.1m0,0l-.19,1.2m5.78-36.82l-.46,2.92m0,0l-.66-.1m0,0l.12-.73m0,0l-.66-.11m0,0l.34-2.19m.87,3.13l-5.13,32.7m-.87-7.36l3.78-24.19m-4.99,31.84l.28-1.8m0,0l1.33,.21m0,0l-.29,1.8m0,0l-1.32-.21m6.66-33.82l-.35,2.19m0,0l-1.32-.21m0,0l.34-2.19m0,0l1.33,.21m-.35,2.19l-4.7,30.04m-1.33-.21l4.71-30.04m-4.02,30.16l4.68-30.06" fill="none" stroke="#000" stroke-linecap="round" stroke-linejoin="round" stroke-width=".25"/><path d="M1384.36,517.15l-1.32-.21m1.32,.21l-1.32-.21m5.3,.84l-3.98-.63m-1.32-.21l-10.88-1.72m21.77-58.8l-1.33-.21m1.33,.21l-1.33-.21m5.31,.84l-3.98-.63m-1.33-.21l-10.87-1.72m6.61,63.29l-16.18-2.56" fill="none" stroke="#000" stroke-linecap="round" stroke-linejoin="round" stroke-width=".22"/><path d="M1383.61,442.58l1.29-8.16,16.19,2.57-3.18,20.06-16.18-2.56,1.29-8.16,.59-3.75h0Z" fill="#2d2d2c" fill-rule="evenodd"/><path d="M1371.11,521.86l1.05-6.64,16.19,2.56-1.05,6.64-16.19-2.56Z" fill="#2d2d2c"/><path d="M1392.86,565.82l-10.88-1.73m16.18,2.57l-3.98-.63m0,0l-1.32-.21m-9.57,60.73l-10.88-1.73m16.18,2.57l-3.98-.63m0,0l-1.32-.21" fill="none" stroke="#000" stroke-linecap="round" stroke-linejoin="round" stroke-width=".22"/><path d="M1388.59,627.39l9.57-60.73m-25.75,58.16l9.57-60.73m1.31,62.46l.38-2.39m0,0l1.32,.21m0,0l-.38,2.39m3.79-23.91l-.19,1.19m0,0l-1.32-.21m0,0l.18-1.19m-2.74,21.62l3.22-20.32m-3.88,20.22l3.22-20.33m1.32,.21l-3.22,20.33m2.08-21.73l.1-.6m0,0l.66,.1m0,0l.1-.59m0,0l.66,.1m0,0l-.19,1.2m5.78-36.82l-.46,2.92m0,0l-.66-.11m0,0l.11-.73m0,0l-.66-.1m0,0l.35-2.19m.86,3.13l-5.13,32.7m-.87-7.36l3.78-24.19m-4.99,31.83l.28-1.79m0,0l1.33,.21m0,0l-.29,1.79m0,0l-1.32-.21m6.66-33.82l-.35,2.2m0,0l-1.32-.21m0,0l.35-2.2m0,0l1.32,.21m-.35,2.2l-4.7,30.04m-1.33-.21l4.71-30.04m-4.02,30.15l4.68-30.05" fill="none" stroke="#000" stroke-linecap="round" stroke-linejoin="round" stroke-width=".25"/><path d="M1384.61,626.76l-1.32-.21m1.32,.21l-1.32-.21m5.3,.84l-3.98-.63m-1.32-.21l-10.88-1.73m21.77-58.79l-1.32-.21m1.32,.21l-1.32-.21m5.3,.84l-3.98-.63m-1.32-.21l-10.88-1.73m6.61,63.3l-16.18-2.57" fill="none" stroke="#000" stroke-linecap="round" stroke-linejoin="round" stroke-width=".22"/><path d="M1383.71,553.14l1.19-7.51,16.19,2.57-2.93,18.46-16.18-2.57,1.19-7.5,.54-3.45h0Z" fill="#2d2d2c" fill-rule="evenodd"/><path d="M1371.08,633.18l1.32-8.35,16.19,2.56-1.32,8.36-16.19-2.56Z" fill="#2d2d2c"/><path d="M1392.09,672.27l-10.85-1.91m16.14,2.84l-3.97-.7m0,0l-1.32-.23m-9.05,51.59l-10.84-1.92m16.13,2.85l-3.97-.7m0,0l-1.32-.23" fill="none" stroke="#000" stroke-linecap="round" stroke-linejoin="round" stroke-width=".22"/><path d="M1388.33,724.79l9.05-51.59m-25.18,48.74l9.04-51.58m1.8,53.5l.42-2.39m0,0l1.32,.24m0,0l-.42,2.38m4.21-23.84l-.21,1.19m0,0l-1.32-.23m0,0l.21-1.19m-3.13,21.57l3.58-20.26m-4.24,20.14l3.58-20.26m1.32,.23l-3.58,20.27m2.47-21.69l.1-.6m0,0l.66,.12m0,0l.11-.6m0,0l.66,.12m0,0l-.21,1.19m4.84-27.75l-.44,2.48m0,0l-.66-.11m0,0l.11-.62m0,0l-.66-.12m0,0l.33-1.86m.88,2.71l-4.85,27.78m-.92-6.33l3.57-20.55m-4.08,23.42l.31-1.78m0,0l1.33,.23m0,0l-.32,1.79m0,0l-1.32-.24m5.73-25.05l-.33,1.86m0,0l-1.32-.23m0,0l.33-1.87m0,0l1.32,.24m-.33,1.86l-3.76,21.64m-1.33-.23l3.77-21.64m-3.09,21.76l3.75-21.65" fill="none" stroke="#000" stroke-linecap="round" stroke-linejoin="round" stroke-width=".25"/><path d="M1384.36,724.09l-1.32-.23m1.32,.23l-1.32-.23m5.29,.93l-3.97-.7m-1.32-.23l-10.84-1.92m21.21-49.44l-1.32-.23m1.32,.23l-1.32-.23m5.29,.93l-3.97-.7m-1.32-.23l-10.85-1.91m7.09,54.43l-16.14-2.85" fill="none" stroke="#000" stroke-linecap="round" stroke-linejoin="round" stroke-width=".22"/><path d="M1383.44,657.9l1.5-8.54,16.14,2.85-3.7,20.99-16.14-2.84,1.51-8.54,.69-3.92Z" fill="#2d2d2c" fill-rule="evenodd"/><path d="M1371.09,728.24l1.11-6.29,16.14,2.85-1.11,6.29-16.14-2.85Z" fill="#2d2d2c"/><path d="M1392.14,765.47l-10.85-1.91m16.14,2.84l-3.97-.7m0,0l-1.32-.23m-9.05,51.59l-10.84-1.91m16.13,2.84l-3.96-.7m0,0l-1.33-.23" fill="none" stroke="#000" stroke-linecap="round" stroke-linejoin="round" stroke-width=".22"/><path d="M1388.38,817.99l9.05-51.59m-25.18,48.75l9.04-51.59m1.8,53.5l.42-2.38m0,0l1.33,.23m0,0l-.42,2.38m4.2-23.84l-.21,1.19m0,0l-1.32-.23m0,0l.21-1.19m-3.12,21.57l3.57-20.26m-4.24,20.15l3.58-20.27m1.32,.23l-3.57,20.27m2.46-21.69l.1-.6m0,0l.66,.12m0,0l.11-.6m0,0l.66,.12m0,0l-.21,1.19m4.84-27.75l-.44,2.49m0,0l-.66-.12m0,0l.11-.62m0,0l-.66-.12m0,0l.33-1.86m.88,2.72l-4.84,27.78m-.93-6.34l3.57-20.55m-4.08,23.43l.32-1.79m0,0l1.32,.23m0,0l-.32,1.79m0,0l-1.32-.23m5.73-25.06l-.33,1.86m0,0l-1.32-.23m0,0l.33-1.86m0,0l1.32,.23m-.33,1.86l-3.76,21.64m-1.32-.23l3.76-21.64m-3.09,21.76l3.75-21.64" fill="none" stroke="#000" stroke-linecap="round" stroke-linejoin="round" stroke-width=".25"/><path d="M1384.42,817.29l-1.33-.23m1.33,.23l-1.33-.23m5.29,.93l-3.96-.7m-1.33-.23l-10.84-1.91m21.21-49.45l-1.32-.23m1.32,.23l-1.32-.23m5.29,.93l-3.97-.7m-1.32-.23l-10.85-1.91m7.09,54.43l-16.13-2.84" fill="none" stroke="#000" stroke-linecap="round" stroke-linejoin="round" stroke-width=".22"/><path d="M1383.46,751.28l1.48-8.42,16.14,2.85-3.65,20.69-16.14-2.84,1.49-8.42,.68-3.86Z" fill="#2d2d2c" fill-rule="evenodd"/><path d="M1371.08,821.66l1.15-6.52,16.14,2.85-1.15,6.52-16.14-2.85Z" fill="#2d2d2c"/><path d="M1393.19,856.49l-10.85-1.91m16.14,2.85l-3.97-.7m0,0l-1.32-.24m-9.12,52.01l-10.85-1.91m16.14,2.85l-3.97-.7m0,0l-1.32-.24" fill="none" stroke="#000" stroke-linecap="round" stroke-linejoin="round" stroke-width=".22"/><path d="M1389.36,909.44l9.12-52.01m-25.26,49.16l9.12-52.01m1.73,53.92l.42-2.4m0,0l1.33,.23m0,0l-.43,2.41m4.24-24.04l-.21,1.2m0,0l-1.32-.23m0,0l.21-1.2m-3.15,21.75l3.6-20.43m-4.27,20.31l3.61-20.43m1.32,.23l-3.6,20.43m2.49-21.86l.1-.6m0,0l.67,.11m0,0l.1-.6m0,0l.66,.12m0,0l-.21,1.2m4.88-27.97l-.44,2.5m0,0l-.66-.12m0,0l.11-.62m0,0l-.66-.12m0,0l.33-1.88m.88,2.74l-4.89,28.01m-.92-6.39l3.61-20.72m-4.12,23.62l.32-1.8m0,0l1.32,.23m0,0l-.31,1.8m0,0l-1.33-.23m5.77-25.26l-.33,1.88m0,0l-1.32-.24m0,0l.33-1.87m0,0l1.32,.23m-.33,1.88l-3.8,21.81m-1.32-.23l3.8-21.82m-3.13,21.94l3.79-21.82" fill="none" stroke="#000" stroke-linecap="round" stroke-linejoin="round" stroke-width=".25"/><path d="M1385.39,908.74l-1.32-.24m1.32,.24l-1.32-.24m5.29,.94l-3.97-.7m-1.32-.24l-10.85-1.91m21.29-49.86l-1.32-.24m1.32,.24l-1.32-.24m5.29,.94l-3.97-.7m-1.32-.24l-10.85-1.91m7.02,54.86l-16.14-2.85" fill="none" stroke="#000" stroke-linecap="round" stroke-linejoin="round" stroke-width=".22"/><path d="M1383.89,845.84l1.05-6,16.14,2.85-2.6,14.74-16.14-2.85,1.06-5.99,.49-2.75h0Z" fill="#2d2d2c" fill-rule="evenodd"/><path d="M1371.07,918.69l2.14-12.11,16.14,2.85-2.14,12.11-16.14-2.85Z" fill="#2d2d2c"/><g><path d="M270.41,948.85v-7.57m0,11.49v-4.03m0,0v-1.34m18.77,.11v-6.23m0,11.49v-4.03m0,0v-1.34" fill="none" stroke="#000" stroke-linecap="round" stroke-linejoin="round" stroke-width=".22"/><path d="M289.18,952.77h-18.77m18.77-11.49h-18.77m18.77,6.12h-2.72m0,0v1.34m0,0h2.72m-16.05-1.34h-2.72m0,0v1.34m0,0h2.72m-1.36,0h1.36m0,0v-1.34m13.33,.67h-13.33m13.33-.67h-13.33m0,1.34h13.33m-16.05,0h1.36m-1.36,0h0" fill="none" stroke="#000" stroke-linecap="round" stroke-linejoin="round" stroke-width=".25"/><path d="M289.18,948.74v-1.34m0,1.34v-1.34m0,5.37v-4.03m0-1.23v-6.23m-18.77,7.46v-1.34m0,1.34v-1.34m0,5.37v-4.03m0,.11v-7.57m18.77,11.49v-11.49" fill="none" stroke="#000" stroke-linecap="round" stroke-linejoin="round" stroke-width=".22"/></g><g><path d="M206.22,948.85v-7.57m0,11.49v-4.03m0,0v-1.34m21.87,.11v-6.23m0,11.49v-4.03m0,0v-1.34" fill="none" stroke="#000" stroke-linecap="round" stroke-linejoin="round" stroke-width=".22"/><path d="M228.09,952.77h-21.87m21.87-11.49h-21.87m21.87,6.12h-3.2m0,0v1.34m0,0h3.2m-18.68-1.34h-3.19m0,0v1.34m0,0h3.19m-1.6,0h1.6m0,0v-1.34m15.48,.67h-15.48m15.48-.67h-15.48m0,1.34h15.48m-18.67,0h1.59m-1.59,0h0" fill="none" stroke="#000" stroke-linecap="round" stroke-linejoin="round" stroke-width=".25"/><path d="M228.09,948.74v-1.34m0,1.34v-1.34m0,5.37v-4.03m0-1.23v-6.23m-21.87,7.46v-1.34m0,1.34v-1.34m0,5.37v-4.03m0,.11v-7.57m21.87,11.49v-11.49" fill="none" stroke="#000" stroke-linecap="round" stroke-linejoin="round" stroke-width=".22"/></g><path d="M241.78,942.14c.85,2.31,1.08,3.5,1.2,5.97" fill="none" stroke="#000" stroke-linecap="round" stroke-linejoin="round" stroke-width=".25"/><path d="M241.76,941.76l.28,.66-13.74,6.07h-.21v-.71l13.67-6.02h0Z" fill="#2d2d2c" fill-rule="evenodd"/><path d="M245.2,936.79c-1.56,4.26-1.99,6.45-2.22,10.99" fill="none" stroke="#000" stroke-linecap="round" stroke-linejoin="round" stroke-width=".25"/><path d="M245.24,936.1l-.52,1.22,25.3,11.17h.39v-1.32l-25.17-11.07h0Z" fill="#2d2d2c" fill-rule="evenodd"/><g><path d="M166.39,1011.2v-1.35m68.98,1.35v-1.35" fill="none" stroke="#000" stroke-linecap="round" stroke-linejoin="round" stroke-width=".22"/><path d="M235.37,1009.85h-3.17m0,0v1.35m0,0h3.17m-65.81-1.35h-3.17m0,0v1.35m0,0h3.17m-1.58,0h1.58m0,0v-1.35m62.64,.68h-62.64m62.64-.68h-62.64m0,1.35h62.64m-65.81,0h1.59m-1.59,0h0" fill="none" stroke="#000" stroke-linecap="round" stroke-linejoin="round" stroke-width=".25"/><path d="M235.37,1011.2v-1.35m0,1.35v-1.35m-68.98,1.35v-1.35m0,1.35v-1.35" fill="none" stroke="#000" stroke-linecap="round" stroke-linejoin="round" stroke-width=".22"/></g><g><path d="M259.73,1011.2v-1.35m43.89,1.35v-1.35" fill="none" stroke="#000" stroke-linecap="round" stroke-linejoin="round" stroke-width=".22"/><path d="M303.62,1009.85h-3.17m0,0v1.35m0,0h3.17m-40.73-1.35h-3.16m0,0v1.35m0,0h3.16m-1.58,0h1.58m0,0v-1.35m37.56,.68h-37.56m37.56-.68h-37.56m0,1.35h37.56m-40.72,0h1.58m-1.58,0h0" fill="none" stroke="#000" stroke-linecap="round" stroke-linejoin="round" stroke-width=".25"/><path d="M303.62,1011.2v-1.35m0,1.35v-1.35m-43.89,1.35v-1.35m0,1.35v-1.35" fill="none" stroke="#000" stroke-linecap="round" stroke-linejoin="round" stroke-width=".22"/></g><g><path d="M327.98,1011.2v-1.35m43.88,1.35v-1.35" fill="none" stroke="#000" stroke-linecap="round" stroke-linejoin="round" stroke-width=".22"/><path d="M371.86,1009.85h-3.16m0,0v1.35m0,0h3.16m-40.72-1.35h-3.16m0,0v1.35m0,0h3.16m-1.58,0h1.58m0,0v-1.35m37.56,.68h-37.56m37.56-.68h-37.56m0,1.35h37.56m-40.72,0h1.58m-1.58,0h0" fill="none" stroke="#000" stroke-linecap="round" stroke-linejoin="round" stroke-width=".25"/><path d="M371.86,1011.2v-1.35m0,1.35v-1.35m-43.88,1.35v-1.35m0,1.35v-1.35" fill="none" stroke="#000" stroke-linecap="round" stroke-linejoin="round" stroke-width=".22"/></g><path d="M259.73,1010.53h-24.36m24.36-.68h-24.36m0,1.35h24.36" fill="none" stroke="#000" stroke-linecap="round" stroke-linejoin="round" stroke-width=".25"/><path d="M327.98,1010.53h-24.36m24.36-.68h-24.36m0,1.35h24.36" fill="none" stroke="#000" stroke-linecap="round" stroke-linejoin="round" stroke-width=".25"/><g><path d="M396.22,1011.2v-1.35m23.27,1.35v-1.35" fill="none" stroke="#000" stroke-linecap="round" stroke-linejoin="round" stroke-width=".22"/><path d="M419.49,1009.85h-3.17m0,0v1.35m0,0h3.17m-20.1-1.35h-3.17m0,0v1.35m0,0h3.17m-1.58,0h1.58m0,0v-1.35m16.93,.68h-16.93m16.93-.68h-16.93m0,1.35h16.93m-20.1,0h1.59m-1.59,0h0" fill="none" stroke="#000" stroke-linecap="round" stroke-linejoin="round" stroke-width=".25"/><path d="M419.49,1011.2v-1.35m0,1.35v-1.35m-23.27,1.35v-1.35m0,1.35v-1.35" fill="none" stroke="#000" stroke-linecap="round" stroke-linejoin="round" stroke-width=".22"/></g><g><path d="M511.55,1011.2v-1.35m44.73,1.35v-1.35" fill="none" stroke="#000" stroke-linecap="round" stroke-linejoin="round" stroke-width=".22"/><path d="M556.28,1009.85h-3.16m0,0v1.35m0,0h3.16m-41.57-1.35h-3.16m0,0v1.35m0,0h3.16m-1.58,0h1.58m0,0v-1.35m38.41,.68h-38.41m38.41-.68h-38.41m0,1.35h38.41m-41.57,0h1.58m-1.58,0h0" fill="none" stroke="#000" stroke-linecap="round" stroke-linejoin="round" stroke-width=".25"/><path d="M556.28,1011.2v-1.35m0,1.35v-1.35m-44.73,1.35v-1.35m0,1.35v-1.35" fill="none" stroke="#000" stroke-linecap="round" stroke-linejoin="round" stroke-width=".22"/></g><g><path d="M419.49,1011.2v-1.35m67.7,1.35v-1.35" fill="none" stroke="#000" stroke-linecap="round" stroke-linejoin="round" stroke-width=".22"/><path d="M487.19,1009.85h-3.17m0,0v1.35m0,0h3.17m-64.53-1.35h-3.17m0,0v1.35m0,0h3.17m-1.58,0h1.58m0,0v-1.35m61.36,.68h-61.36m61.36-.68h-61.36m0,1.35h61.36m-64.53,0h1.59m-1.59,0h0" fill="none" stroke="#000" stroke-linecap="round" stroke-linejoin="round" stroke-width=".25"/><path d="M487.19,1011.2v-1.35m0,1.35v-1.35m-67.7,1.35v-1.35m0,1.35v-1.35" fill="none" stroke="#000" stroke-linecap="round" stroke-linejoin="round" stroke-width=".22"/></g><g><path d="M580.64,1011.2v-1.35m22.48,1.35v-1.35" fill="none" stroke="#000" stroke-linecap="round" stroke-linejoin="round" stroke-width=".22"/><path d="M603.12,1009.85h-3.17m0,0v1.35m0,0h3.17m-19.31-1.35h-3.17m0,0v1.35m0,0h3.17m-1.58,0h1.58m0,0v-1.35m16.14,.68h-16.14m16.14-.68h-16.14m0,1.35h16.14m-19.31,0h1.59m-1.59,0h0" fill="none" stroke="#000" stroke-linecap="round" stroke-linejoin="round" stroke-width=".25"/><path d="M603.12,1011.2v-1.35m0,1.35v-1.35m-22.48,1.35v-1.35m0,1.35v-1.35" fill="none" stroke="#000" stroke-linecap="round" stroke-linejoin="round" stroke-width=".22"/></g><g><path d="M695.33,1011.2v-1.35m44.22,1.35v-1.35" fill="none" stroke="#000" stroke-linecap="round" stroke-linejoin="round" stroke-width=".22"/><path d="M739.55,1009.85h-3.17m0,0v1.35m0,0h3.17m-41.06-1.35h-3.16m0,0v1.35m0,0h3.16m-1.58,0h1.58m0,0v-1.35m37.89,.68h-37.89m37.89-.68h-37.89m0,1.35h37.89m-41.05,0h1.58m-1.58,0h0" fill="none" stroke="#000" stroke-linecap="round" stroke-linejoin="round" stroke-width=".25"/><path d="M739.55,1011.2v-1.35m0,1.35v-1.35m-44.22,1.35v-1.35m0,1.35v-1.35" fill="none" stroke="#000" stroke-linecap="round" stroke-linejoin="round" stroke-width=".22"/></g><g><path d="M764.12,1011.2v-1.35m21.79,1.35v-1.35" fill="none" stroke="#000" stroke-linecap="round" stroke-linejoin="round" stroke-width=".22"/><path d="M785.91,1009.85h-3.17m0,0v1.35m0,0h3.17m-18.62-1.35h-3.17m0,0v1.35m0,0h3.17m-1.59,0h1.59m0,0v-1.35m15.45,.68h-15.45m15.45-.68h-15.45m0,1.35h15.45m-18.62,0h1.58m-1.58,0h0" fill="none" stroke="#000" stroke-linecap="round" stroke-linejoin="round" stroke-width=".25"/><path d="M785.91,1011.2v-1.35m0,1.35v-1.35m-21.79,1.35v-1.35m0,1.35v-1.35" fill="none" stroke="#000" stroke-linecap="round" stroke-linejoin="round" stroke-width=".22"/></g><g><path d="M832.35,1011.2v-1.35m41.77,1.35v-1.35" fill="none" stroke="#000" stroke-linecap="round" stroke-linejoin="round" stroke-width=".22"/><path d="M874.12,1009.85h-3.17m0,0v1.35m0,0h3.17m-38.6-1.35h-3.17m0,0v1.35m0,0h3.17m-1.58,0h1.58m0,0v-1.35m35.43,.68h-35.43m35.43-.68h-35.43m0,1.35h35.43m-38.6,0h1.59m-1.59,0h0" fill="none" stroke="#000" stroke-linecap="round" stroke-linejoin="round" stroke-width=".25"/><path d="M874.12,1011.2v-1.35m0,1.35v-1.35m-41.77,1.35v-1.35m0,1.35v-1.35" fill="none" stroke="#000" stroke-linecap="round" stroke-linejoin="round" stroke-width=".22"/></g><g><path d="M898.69,1011.2v-1.35m87.16,1.35v-1.35" fill="none" stroke="#000" stroke-linecap="round" stroke-linejoin="round" stroke-width=".22"/><path d="M985.85,1009.85h-3.17m0,0v1.35m0,0h3.17m-83.99-1.35h-3.17m0,0v1.35m0,0h3.17m-1.59,0h1.59m0,0v-1.35m80.82,.68h-80.82m80.82-.68h-80.82m0,1.35h80.82m-83.99,0h1.58m-1.58,0h0" fill="none" stroke="#000" stroke-linecap="round" stroke-linejoin="round" stroke-width=".25"/><path d="M985.85,1011.2v-1.35m0,1.35v-1.35m-87.16,1.35v-1.35m0,1.35v-1.35" fill="none" stroke="#000" stroke-linecap="round" stroke-linejoin="round" stroke-width=".22"/></g><g><path d="M1010.43,1011.2v-1.35m42.31,1.35v-1.35" fill="none" stroke="#000" stroke-linecap="round" stroke-linejoin="round" stroke-width=".22"/><path d="M1052.74,1009.85h-3.17m0,0v1.35m0,0h3.17m-39.14-1.35h-3.17m0,0v1.35m0,0h3.17m-1.59,0h1.59m0,0v-1.35m35.97,.68h-35.97m35.97-.68h-35.97m0,1.35h35.97m-39.14,0h1.58m-1.58,0h0" fill="none" stroke="#000" stroke-linecap="round" stroke-linejoin="round" stroke-width=".25"/><path d="M1052.74,1011.2v-1.35m0,1.35v-1.35m-42.31,1.35v-1.35m0,1.35v-1.35" fill="none" stroke="#000" stroke-linecap="round" stroke-linejoin="round" stroke-width=".22"/></g><g><path d="M1074.37,1011.2v-1.35m67.59,1.35v-1.35" fill="none" stroke="#000" stroke-linecap="round" stroke-linejoin="round" stroke-width=".22"/><path d="M1141.96,1009.85h-3.17m0,0v1.35m0,0h3.17m-64.42-1.35h-3.17m0,0v1.35m0,0h3.17m-1.59,0h1.58m0,0v-1.35m61.26,.68h-61.25m61.25-.68h-61.25m-.01,1.35h61.26m-64.42,0h1.58m-1.58,0h0" fill="none" stroke="#000" stroke-linecap="round" stroke-linejoin="round" stroke-width=".25"/><path d="M1141.96,1011.2v-1.35m0,1.35v-1.35m-67.59,1.35v-1.35m0,1.35v-1.35" fill="none" stroke="#000" stroke-linecap="round" stroke-linejoin="round" stroke-width=".22"/></g><g><path d="M1162.13,1011.2v-1.35m27.59,1.35v-1.35" fill="none" stroke="#000" stroke-linecap="round" stroke-linejoin="round" stroke-width=".22"/><path d="M1189.72,1009.85h-3.17m0,0v1.35m0,0h3.17m-24.43-1.35h-3.17m.01,0v1.35m0,0h3.16m-1.58,0h1.58m0,0v-1.35m21.26,.68h-21.26m21.26-.68h-21.26m0,1.35h21.26m-24.42,0h1.58m-1.58,0h0" fill="none" stroke="#000" stroke-linecap="round" stroke-linejoin="round" stroke-width=".25"/><path d="M1189.72,1011.2v-1.35m0,1.35v-1.35m-27.59,1.35v-1.35m0,1.35v-1.35" fill="none" stroke="#000" stroke-linecap="round" stroke-linejoin="round" stroke-width=".22"/></g><g><path d="M1230.81,1011.2v-1.35m26.68,1.35v-1.35" fill="none" stroke="#000" stroke-linecap="round" stroke-linejoin="round" stroke-width=".22"/><path d="M1257.49,1009.85h-3.17m0,0v1.35m0,0h3.17m-23.52-1.35h-3.16m0,0v1.35m0,0h3.16m-1.58,0h1.58m0,0v-1.35m20.35,.68h-20.35m20.35-.68h-20.35m0,1.35h20.35m-23.51,0h1.58m-1.58,0h0" fill="none" stroke="#000" stroke-linecap="round" stroke-linejoin="round" stroke-width=".25"/><path d="M1257.49,1011.2v-1.35m0,1.35v-1.35m-26.68,1.35v-1.35m0,1.35v-1.35" fill="none" stroke="#000" stroke-linecap="round" stroke-linejoin="round" stroke-width=".22"/></g><g><path d="M1297.62,1011.2v-1.35m24.81,1.35v-1.35" fill="none" stroke="#000" stroke-linecap="round" stroke-linejoin="round" stroke-width=".22"/><path d="M1322.43,1009.85h-3.17m0,0v1.35m0,0h3.17m-21.64-1.35h-3.17m0,0v1.35m0,0h3.17m-1.59,0h1.58m0,0v-1.35m18.48,.68h-18.47m18.47-.68h-18.47m-.01,1.35h18.48m-21.64,0h1.58m-1.58,0h0" fill="none" stroke="#000" stroke-linecap="round" stroke-linejoin="round" stroke-width=".25"/><path d="M1322.43,1011.2v-1.35m0,1.35v-1.35m-24.81,1.35v-1.35m0,1.35v-1.35" fill="none" stroke="#000" stroke-linecap="round" stroke-linejoin="round" stroke-width=".22"/></g><g><path d="M1390.8,1011.2v-1.35" fill="none" stroke="#000" stroke-linecap="round" stroke-linejoin="round" stroke-width=".22"/><path d="M1390.8,1009.85h-3.12m0,0v1.35m0,0h3.12m-3.12-.67h-65.25m65.25-.68h-65.25m0,1.35h65.25" fill="none" stroke="#000" stroke-linecap="round" stroke-linejoin="round" stroke-width=".25"/><path d="M1390.8,1011.2v-1.35m0,1.35v-1.35" fill="none" stroke="#000" stroke-linecap="round" stroke-linejoin="round" stroke-width=".22"/></g><g><path d="M785.91,1011.2v-1.35m21.79,1.35v-1.35" fill="none" stroke="#000" stroke-linecap="round" stroke-linejoin="round" stroke-width=".22"/><path d="M807.7,1009.85h-3.17m0,0v1.35m0,0h3.17m-18.62-1.35h-3.17m0,0v1.35m0,0h3.17m-1.58,0h1.58m0,0v-1.35m15.45,.68h-15.45m15.45-.68h-15.45m0,1.35h15.45m-18.62,0h1.59m-1.59,0h0" fill="none" stroke="#000" stroke-linecap="round" stroke-linejoin="round" stroke-width=".25"/><path d="M807.7,1011.2v-1.35m0,1.35v-1.35m-21.79,1.35v-1.35m0,1.35v-1.35" fill="none" stroke="#000" stroke-linecap="round" stroke-linejoin="round" stroke-width=".22"/></g><g><path d="M603.12,1011.2v-1.35m68.49,1.35v-1.35" fill="none" stroke="#000" stroke-linecap="round" stroke-linejoin="round" stroke-width=".22"/><path d="M671.61,1009.85h-3.17m0,0v1.35m0,0h3.17m-65.32-1.35h-3.17m0,0v1.35m0,0h3.17m-1.59,0h1.59m0,0v-1.35m62.15,.68h-62.15m62.15-.68h-62.15m0,1.35h62.15m-65.32,0h1.58m-1.58,0h0" fill="none" stroke="#000" stroke-linecap="round" stroke-linejoin="round" stroke-width=".25"/><path d="M671.61,1011.2v-1.35m0,1.35v-1.35m-68.49,1.35v-1.35m0,1.35v-1.35" fill="none" stroke="#000" stroke-linecap="round" stroke-linejoin="round" stroke-width=".22"/></g><path d="M396.22,1010.53h-24.36m24.36-.68h-24.36m0,1.35h24.36" fill="none" stroke="#000" stroke-linecap="round" stroke-linejoin="round" stroke-width=".25"/><path d="M511.55,1010.53h-24.36m24.36-.68h-24.36m0,1.35h24.36" fill="none" stroke="#000" stroke-linecap="round" stroke-linejoin="round" stroke-width=".25"/><path d="M580.64,1010.53h-24.36m24.36-.68h-24.36m0,1.35h24.36" fill="none" stroke="#000" stroke-linecap="round" stroke-linejoin="round" stroke-width=".25"/><path d="M695.33,1010.53h-23.72m23.72-.68h-23.72m0,1.35h23.72" fill="none" stroke="#000" stroke-linecap="round" stroke-linejoin="round" stroke-width=".25"/><path d="M764.12,1010.53h-24.57m24.57-.68h-24.57m0,1.35h24.57" fill="none" stroke="#000" stroke-linecap="round" stroke-linejoin="round" stroke-width=".25"/><path d="M832.35,1010.53h-24.57m24.57-.68h-24.57m0,1.35h24.57" fill="none" stroke="#000" stroke-linecap="round" stroke-linejoin="round" stroke-width=".25"/><path d="M898.69,1010.53h-24.57m24.57-.68h-24.57m0,1.35h24.57" fill="none" stroke="#000" stroke-linecap="round" stroke-linejoin="round" stroke-width=".25"/><path d="M1010.43,1010.53h-24.57m24.57-.68h-24.57m0,1.35h24.57" fill="none" stroke="#000" stroke-linecap="round" stroke-linejoin="round" stroke-width=".25"/><path d="M1074.37,1010.53h-21.47m21.47-.68h-21.47m0,1.35h21.47" fill="none" stroke="#000" stroke-linecap="round" stroke-linejoin="round" stroke-width=".25"/><path d="M1162.13,1010.53h-20.13m20.13-.68h-20.13m0,1.35h20.12" fill="none" stroke="#000" stroke-linecap="round" stroke-linejoin="round" stroke-width=".25"/><path d="M1230.74,1010.53h-41.02m41.02-.68h-41.02m0,1.35h41.02" fill="none" stroke="#000" stroke-linecap="round" stroke-linejoin="round" stroke-width=".25"/><path d="M1297.62,1010.53h-40.13m40.13-.68h-40.13m0,1.35h40.13" fill="none" stroke="#000" stroke-linecap="round" stroke-linejoin="round" stroke-width=".25"/><g><path d="M161.56,975.49l1.33-.19m3.5,34.56l1.33-.19" fill="none" stroke="#000" stroke-linecap="round" stroke-linejoin="round" stroke-width=".22"/><path d="M167.72,1009.67l-.21-1.51m0,0l-1.33,.19m0,0l.21,1.51m-3.21-32.51l-.29-2.05m0,0l-1.33,.19m0,0l.29,2.04m-.14-1.02l.14,1.02m0,0l1.33-.18m3.67,30.9l-4.34-30.81m5,30.72l-4.33-30.81m-1.33,.18l4.33,30.82m-4.62-32.86l.15,1.02m-.15-1.02h0" fill="none" stroke="#000" stroke-linecap="round" stroke-linejoin="round" stroke-width=".25"/><path d="M166.39,1009.86l1.33-.19m-1.33,.19l1.33-.19m-6.16-34.18l1.33-.19m-1.33,.19l1.33-.19" fill="none" stroke="#000" stroke-linecap="round" stroke-linejoin="round" stroke-width=".22"/></g><g><path d="M1394.9,975.26l1.33,.21" fill="none" stroke="#000" stroke-linecap="round" stroke-linejoin="round" stroke-width=".22"/><path d="M1390.8,1009.75l.24-1.5m0,0l-1.33-.21m0,0l-.27,1.71m6.46-32.24l.33-2.04m0,0l-1.33-.21m0,0l-.32,2.04m.16-1.02l-.16,1.02m0,0l1.32,.21m-5.53,30.63l4.87-30.74m-4.2,30.85l4.86-30.74m-1.32-.21l-4.87,30.74m5.19-32.78l-.16,1.02m.16-1.02h0" fill="none" stroke="#000" stroke-linecap="round" stroke-linejoin="round" stroke-width=".25"/><path d="M1394.9,975.26l1.33,.21m-1.33-.21l1.33,.21" fill="none" stroke="#000" stroke-linecap="round" stroke-linejoin="round" stroke-width=".22"/></g><g><path d="M379.02,948.85v-7.57m0,11.49v-4.03m0,0v-1.34m25.86,.11v-6.23m0,11.49v-4.03m0,0v-1.34" fill="none" stroke="#000" stroke-linecap="round" stroke-linejoin="round" stroke-width=".22"/><path d="M404.88,952.77h-25.86m25.86-11.49h-25.86m25.86,6.12h-2.72m0,0v1.34m0,0h2.72m-23.14-1.34h-2.72m0,0v1.34m0,0h2.72m-1.36,0h1.36m0,0v-1.34m20.42,.67h-20.42m20.42-.67h-20.42m0,1.34h20.42m-23.14,0h1.36m-1.36,0h0" fill="none" stroke="#000" stroke-linecap="round" stroke-linejoin="round" stroke-width=".25"/><path d="M404.88,948.74v-1.34m0,1.34v-1.34m0,5.37v-4.03m0-1.23v-6.23m-25.86,7.46v-1.34m0,1.34v-1.34m0,5.37v-4.03m0,.11v-7.57m25.86,11.49v-11.49" fill="none" stroke="#000" stroke-linecap="round" stroke-linejoin="round" stroke-width=".22"/></g><g><path d="M311.71,948.85v-7.57m0,11.49v-4.03m0,0v-1.34m24.99,.11v-6.23m0,11.49v-4.03m0,0v-1.34" fill="none" stroke="#000" stroke-linecap="round" stroke-linejoin="round" stroke-width=".22"/><path d="M336.7,952.77h-24.99m24.99-11.49h-24.99m24.99,6.12h-3.19m0,0v1.34m0,0h3.19m-21.79-1.34h-3.2m0,0v1.34m0,0h3.2m-1.6,0h1.6m0,0v-1.34m18.6,.67h-18.6m18.6-.67h-18.6m0,1.34h18.6m-21.8,0h1.6m-1.6,0h0" fill="none" stroke="#000" stroke-linecap="round" stroke-linejoin="round" stroke-width=".25"/><path d="M336.7,948.74v-1.34m0,1.34v-1.34m0,5.37v-4.03m0-1.23v-6.23m-24.99,7.46v-1.34m0,1.34v-1.34m0,5.37v-4.03m0,.11v-7.57m24.99,11.49v-11.49" fill="none" stroke="#000" stroke-linecap="round" stroke-linejoin="round" stroke-width=".22"/></g><path d="M350.39,942.14c.85,2.31,1.08,3.5,1.2,5.97" fill="none" stroke="#000" stroke-linecap="round" stroke-linejoin="round" stroke-width=".25"/><path d="M350.37,941.76l.28,.66-13.73,6.07h-.22v-.71l13.67-6.02h0Z" fill="#2d2d2c" fill-rule="evenodd"/><path d="M353.82,936.79c-1.56,4.26-1.99,6.45-2.22,10.99" fill="none" stroke="#000" stroke-linecap="round" stroke-linejoin="round" stroke-width=".25"/><path d="M353.85,936.1l-.52,1.22,25.3,11.17h.39v-1.32l-25.17-11.07h0Z" fill="#2d2d2c" fill-rule="evenodd"/><g><path d="M484.24,948.85v-7.57m0,11.49v-4.03m0,0v-1.34m14.29,.11v-6.23m0,11.49v-4.03m0,0v-1.34" fill="none" stroke="#000" stroke-linecap="round" stroke-linejoin="round" stroke-width=".22"/><path d="M498.53,952.77h-14.29m14.29-11.49h-14.29m14.29,6.12h-2.72m0,0v1.34m0,0h2.72m-11.57-1.34h-2.72m0,0v1.34m0,0h2.72m-1.36,0h1.36m0,0v-1.34m8.85,.67h-8.85m8.85-.67h-8.85m0,1.34h8.85m-11.57,0h1.36m-1.36,0h0" fill="none" stroke="#000" stroke-linecap="round" stroke-linejoin="round" stroke-width=".25"/><path d="M498.53,948.74v-1.34m0,1.34v-1.34m0,5.37v-4.03m0-1.23v-6.23m-14.29,7.46v-1.34m0,1.34v-1.34m0,5.37v-4.03m0,.11v-7.57m14.29,11.49v-11.49" fill="none" stroke="#000" stroke-linecap="round" stroke-linejoin="round" stroke-width=".22"/></g><g><path d="M427.83,948.85v-7.57m0,11.49v-4.03m0,0v-1.34m14.09,.11v-6.23m0,11.49v-4.03m0,0v-1.34" fill="none" stroke="#000" stroke-linecap="round" stroke-linejoin="round" stroke-width=".22"/><path d="M441.92,952.77h-14.09m14.09-11.49h-14.09m14.09,6.12h-3.19m0,0v1.34m0,0h3.19m-10.9-1.34h-3.19m0,0v1.34m0,0h3.19m-1.59,0h1.59m0,0v-1.34m7.71,.67h-7.71m7.71-.67h-7.71m0,1.34h7.71m-10.9,0h1.6m-1.6,0h0" fill="none" stroke="#000" stroke-linecap="round" stroke-linejoin="round" stroke-width=".25"/><path d="M441.92,948.74v-1.34m0,1.34v-1.34m0,5.37v-4.03m0-1.23v-6.23m-14.09,7.46v-1.34m0,1.34v-1.34m0,5.37v-4.03m0,.11v-7.57m14.09,11.49v-11.49" fill="none" stroke="#000" stroke-linecap="round" stroke-linejoin="round" stroke-width=".22"/></g><path d="M455.61,942.14c.85,2.31,1.08,3.5,1.2,5.97" fill="none" stroke="#000" stroke-linecap="round" stroke-linejoin="round" stroke-width=".25"/><path d="M455.59,941.76l.28,.66-13.74,6.07h-.21v-.71l13.67-6.02h0Z" fill="#2d2d2c" fill-rule="evenodd"/><path d="M459.03,936.79c-1.56,4.26-1.99,6.45-2.22,10.99" fill="none" stroke="#000" stroke-linecap="round" stroke-linejoin="round" stroke-width=".25"/><path d="M459.07,936.1l-.52,1.22,25.3,11.17h.39v-1.32l-25.17-11.07h0Z" fill="#2d2d2c" fill-rule="evenodd"/><g><path d="M577.28,948.85v-7.57m0,11.49v-4.03m0,0v-1.34m14.29,.11v-6.23m0,11.49v-4.03m0,0v-1.34" fill="none" stroke="#000" stroke-linecap="round" stroke-linejoin="round" stroke-width=".22"/><path d="M591.57,952.77h-14.29m14.29-11.49h-14.29m14.29,6.12h-2.72m0,0v1.34m0,0h2.72m-11.57-1.34h-2.72m0,0v1.34m0,0h2.72m-1.36,0h1.36m0,0v-1.34m8.85,.67h-8.85m8.85-.67h-8.85m0,1.34h8.85m-11.57,0h1.36m-1.36,0h0" fill="none" stroke="#000" stroke-linecap="round" stroke-linejoin="round" stroke-width=".25"/><path d="M591.57,948.74v-1.34m0,1.34v-1.34m0,5.37v-4.03m0-1.23v-6.23m-14.29,7.46v-1.34m0,1.34v-1.34m0,5.37v-4.03m0,.11v-7.57m14.29,11.49v-11.49" fill="none" stroke="#000" stroke-linecap="round" stroke-linejoin="round" stroke-width=".22"/></g><g><path d="M520.86,948.85v-7.57m0,11.49v-4.03m0,0v-1.34m14.1,.11v-6.23m0,11.49v-4.03m0,0v-1.34" fill="none" stroke="#000" stroke-linecap="round" stroke-linejoin="round" stroke-width=".22"/><path d="M534.96,952.77h-14.1m14.1-11.49h-14.1m14.1,6.12h-3.2m0,0v1.34m0,0h3.2m-10.9-1.34h-3.2m0,0v1.34m0,0h3.2m-1.6,0h1.6m0,0v-1.34m7.7,.67h-7.7m7.7-.67h-7.7m0,1.34h7.7m-10.9,0h1.6m-1.6,0h0" fill="none" stroke="#000" stroke-linecap="round" stroke-linejoin="round" stroke-width=".25"/><path d="M534.96,948.74v-1.34m0,1.34v-1.34m0,5.37v-4.03m0-1.23v-6.23m-14.1,7.46v-1.34m0,1.34v-1.34m0,5.37v-4.03m0,.11v-7.57m14.1,11.49v-11.49" fill="none" stroke="#000" stroke-linecap="round" stroke-linejoin="round" stroke-width=".22"/></g><path d="M548.65,942.14c.85,2.31,1.08,3.5,1.2,5.97" fill="none" stroke="#000" stroke-linecap="round" stroke-linejoin="round" stroke-width=".25"/><path d="M548.63,941.76l.28,.66-13.74,6.07h-.21v-.71l13.67-6.02h0Z" fill="#2d2d2c" fill-rule="evenodd"/><path d="M552.07,936.79c-1.56,4.26-1.99,6.45-2.22,10.99" fill="none" stroke="#000" stroke-linecap="round" stroke-linejoin="round" stroke-width=".25"/><path d="M552.1,936.1l-.51,1.22,25.3,11.17h.39v-1.32l-25.18-11.07Z" fill="#2d2d2c" fill-rule="evenodd"/><g><path d="M673.76,948.85v-7.57m0,11.49v-4.03m0,0v-1.34m18.07,.11v-6.23m0,11.49v-4.03m0,0v-1.34" fill="none" stroke="#000" stroke-linecap="round" stroke-linejoin="round" stroke-width=".22"/><path d="M691.83,952.77h-18.07m18.07-11.49h-18.07m18.07,6.12h-2.72m0,0v1.34m0,0h2.72m-15.35-1.34h-2.72m0,0v1.34m0,0h2.72m-1.36,0h1.36m0,0v-1.34m12.63,.67h-12.63m12.63-.67h-12.63m0,1.34h12.63m-15.35,0h1.36m-1.36,0h0" fill="none" stroke="#000" stroke-linecap="round" stroke-linejoin="round" stroke-width=".25"/><path d="M691.83,948.74v-1.34m0,1.34v-1.34m0,5.37v-4.03m0-1.23v-6.23m-18.07,7.46v-1.34m0,1.34v-1.34m0,5.37v-4.03m0,.11v-7.57m18.07,11.49v-11.49" fill="none" stroke="#000" stroke-linecap="round" stroke-linejoin="round" stroke-width=".22"/></g><g><path d="M614.15,948.85v-7.57m0,11.49v-4.03m0,0v-1.34m17.29,.11v-6.23m0,11.49v-4.03m0,0v-1.34" fill="none" stroke="#000" stroke-linecap="round" stroke-linejoin="round" stroke-width=".22"/><path d="M631.44,952.77h-17.29m17.29-11.49h-17.29m17.29,6.12h-3.19m0,0v1.34m0,0h3.19m-14.09-1.34h-3.2m0,0v1.34m0,0h3.2m-1.6,0h1.6m0,0v-1.34m10.9,.67h-10.9m10.9-.67h-10.9m0,1.34h10.9m-14.1,0h1.6m-1.6,0h0" fill="none" stroke="#000" stroke-linecap="round" stroke-linejoin="round" stroke-width=".25"/><path d="M631.44,948.74v-1.34m0,1.34v-1.34m0,5.37v-4.03m0-1.23v-6.23m-17.29,7.46v-1.34m0,1.34v-1.34m0,5.37v-4.03m0,.11v-7.57m17.29,11.49v-11.49" fill="none" stroke="#000" stroke-linecap="round" stroke-linejoin="round" stroke-width=".22"/></g><path d="M645.13,942.14c.85,2.31,1.08,3.5,1.2,5.97" fill="none" stroke="#000" stroke-linecap="round" stroke-linejoin="round" stroke-width=".25"/><path d="M645.11,941.76l.28,.66-13.74,6.07h-.21v-.71l13.67-6.02h0Z" fill="#2d2d2c" fill-rule="evenodd"/><path d="M648.55,936.79c-1.56,4.26-1.99,6.45-2.22,10.99" fill="none" stroke="#000" stroke-linecap="round" stroke-linejoin="round" stroke-width=".25"/><path d="M648.59,936.1l-.52,1.22,25.3,11.17h.39v-1.32l-25.17-11.07h0Z" fill="#2d2d2c" fill-rule="evenodd"/><g><path d="M770.08,948.85v-7.57m0,11.49v-4.03m0,0v-1.34m12.66,.11v-6.23m0,11.49v-4.03m0,0v-1.34" fill="none" stroke="#000" stroke-linecap="round" stroke-linejoin="round" stroke-width=".22"/><path d="M782.74,952.77h-12.66m12.66-11.49h-12.66m12.66,6.12h-2.72m0,0v1.34m0,0h2.72m-9.94-1.34h-2.72m0,0v1.34m0,0h2.72m-1.36,0h1.36m0,0v-1.34m7.22,.67h-7.22m7.22-.67h-7.22m0,1.34h7.22m-9.94,0h1.36m-1.36,0h0" fill="none" stroke="#000" stroke-linecap="round" stroke-linejoin="round" stroke-width=".25"/><path d="M782.74,948.74v-1.34m0,1.34v-1.34m0,5.37v-4.03m0-1.23v-6.23m-12.66,7.46v-1.34m0,1.34v-1.34m0,5.37v-4.03m0,.11v-7.57m12.66,11.49v-11.49" fill="none" stroke="#000" stroke-linecap="round" stroke-linejoin="round" stroke-width=".22"/></g><g><path d="M712.33,948.85v-7.57m0,11.49v-4.03m0,0v-1.34m15.43,.11v-6.23m0,11.49v-4.03m0,0v-1.34" fill="none" stroke="#000" stroke-linecap="round" stroke-linejoin="round" stroke-width=".22"/><path d="M727.76,952.77h-15.43m15.43-11.49h-15.43m15.43,6.12h-3.19m0,0v1.34m0,0h3.19m-12.24-1.34h-3.19m0,0v1.34m0,0h3.19m-1.6,0h1.6m0,0v-1.34m9.05,.67h-9.05m9.05-.67h-9.05m0,1.34h9.05m-12.24,0h1.59m-1.59,0h0" fill="none" stroke="#000" stroke-linecap="round" stroke-linejoin="round" stroke-width=".25"/><path d="M727.76,948.74v-1.34m0,1.34v-1.34m0,5.37v-4.03m0-1.23v-6.23m-15.43,7.46v-1.34m0,1.34v-1.34m0,5.37v-4.03m0,.11v-7.57m15.43,11.49v-11.49" fill="none" stroke="#000" stroke-linecap="round" stroke-linejoin="round" stroke-width=".22"/></g><path d="M741.45,942.14c.85,2.31,1.08,3.5,1.2,5.97" fill="none" stroke="#000" stroke-linecap="round" stroke-linejoin="round" stroke-width=".25"/><path d="M741.43,941.76l.28,.66-13.74,6.07h-.21v-.71l13.67-6.02h0Z" fill="#2d2d2c" fill-rule="evenodd"/><path d="M744.87,936.79c-1.56,4.26-1.99,6.45-2.22,10.99" fill="none" stroke="#000" stroke-linecap="round" stroke-linejoin="round" stroke-width=".25"/><path d="M744.91,936.1l-.52,1.22,25.3,11.17h.39v-1.32l-25.17-11.07h0Z" fill="#2d2d2c" fill-rule="evenodd"/><g><path d="M863.98,948.85v-7.57m0,11.49v-4.03m0,0v-1.34m15.38,.11v-6.23m0,11.49v-4.03m0,0v-1.34" fill="none" stroke="#000" stroke-linecap="round" stroke-linejoin="round" stroke-width=".22"/><path d="M879.36,952.77h-15.38m15.38-11.49h-15.38m15.38,6.12h-2.72m0,0v1.34m0,0h2.72m-12.66-1.34h-2.72m0,0v1.34m0,0h2.72m-1.36,0h1.36m0,0v-1.34m9.94,.67h-9.94m9.94-.67h-9.94m0,1.34h9.94m-12.66,0h1.36m-1.36,0h0" fill="none" stroke="#000" stroke-linecap="round" stroke-linejoin="round" stroke-width=".25"/><path d="M879.36,948.74v-1.34m0,1.34v-1.34m0,5.37v-4.03m0-1.23v-6.23m-15.38,7.46v-1.34m0,1.34v-1.34m0,5.37v-4.03m0,.11v-7.57m15.38,11.49v-11.49" fill="none" stroke="#000" stroke-linecap="round" stroke-linejoin="round" stroke-width=".22"/></g><g><path d="M806.23,948.85v-7.57m0,11.49v-4.03m0,0v-1.34m15.43,.11v-6.23m0,11.49v-4.03m0,0v-1.34" fill="none" stroke="#000" stroke-linecap="round" stroke-linejoin="round" stroke-width=".22"/><path d="M821.66,952.77h-15.43m15.43-11.49h-15.43m15.43,6.12h-3.19m0,0v1.34m0,0h3.19m-12.24-1.34h-3.19m0,0v1.34m0,0h3.19m-1.59,0h1.59m0,0v-1.34m9.05,.67h-9.05m9.05-.67h-9.05m0,1.34h9.05m-12.24,0h1.6m-1.6,0h0" fill="none" stroke="#000" stroke-linecap="round" stroke-linejoin="round" stroke-width=".25"/><path d="M821.66,948.74v-1.34m0,1.34v-1.34m0,5.37v-4.03m0-1.23v-6.23m-15.43,7.46v-1.34m0,1.34v-1.34m0,5.37v-4.03m0,.11v-7.57m15.43,11.49v-11.49" fill="none" stroke="#000" stroke-linecap="round" stroke-linejoin="round" stroke-width=".22"/></g><path d="M835.35,942.14c.85,2.31,1.08,3.5,1.2,5.97" fill="none" stroke="#000" stroke-linecap="round" stroke-linejoin="round" stroke-width=".25"/><path d="M835.33,941.76l.28,.66-13.73,6.07h-.22v-.71l13.67-6.02h0Z" fill="#2d2d2c" fill-rule="evenodd"/><path d="M838.78,936.79c-1.56,4.26-1.99,6.45-2.22,10.99" fill="none" stroke="#000" stroke-linecap="round" stroke-linejoin="round" stroke-width=".25"/><path d="M838.81,936.1l-.51,1.22,25.29,11.17h.39v-1.32l-25.17-11.07h0Z" fill="#2d2d2c" fill-rule="evenodd"/><g><path d="M959.76,948.85v-7.57m0,11.49v-4.03m0,0v-1.34m15.38,.11v-6.23m0,11.49v-4.03m0,0v-1.34" fill="none" stroke="#000" stroke-linecap="round" stroke-linejoin="round" stroke-width=".22"/><path d="M975.14,952.77h-15.38m15.38-11.49h-15.38m15.38,6.12h-2.72m0,0v1.34m0,0h2.72m-12.67-1.34h-2.72m.01,0v1.34m0,0h2.71m-1.36,0h1.36m0,0v-1.34m9.95,.67h-9.95m9.95-.67h-9.95m0,1.34h9.95m-12.66,0h1.36m-1.36,0h0" fill="none" stroke="#000" stroke-linecap="round" stroke-linejoin="round" stroke-width=".25"/><path d="M975.14,948.74v-1.34m0,1.34v-1.34m0,5.37v-4.03m0-1.23v-6.23m-15.38,7.46v-1.34m0,1.34v-1.34m0,5.37v-4.03m0,.11v-7.57m15.38,11.49v-11.49" fill="none" stroke="#000" stroke-linecap="round" stroke-linejoin="round" stroke-width=".22"/></g><g><path d="M902,948.85v-7.57m0,11.49v-4.03m0,0v-1.34m15.44,.11v-6.23m0,11.49v-4.03m0,0v-1.34" fill="none" stroke="#000" stroke-linecap="round" stroke-linejoin="round" stroke-width=".22"/><path d="M917.44,952.77h-15.44m15.44-11.49h-15.44m15.44,6.12h-3.2m0,0v1.34m0,0h3.2m-12.25-1.34h-3.19m0,0v1.34m0,0h3.19m-1.59,0h1.59m0,0v-1.34m9.05,.67h-9.05m9.05-.67h-9.05m0,1.34h9.05m-12.24,0h1.6m-1.6,0h0" fill="none" stroke="#000" stroke-linecap="round" stroke-linejoin="round" stroke-width=".25"/><path d="M917.44,948.74v-1.34m0,1.34v-1.34m0,5.37v-4.03m0-1.23v-6.23m-15.44,7.46v-1.34m0,1.34v-1.34m0,5.37v-4.03m0,.11v-7.57m15.44,11.49v-11.49" fill="none" stroke="#000" stroke-linecap="round" stroke-linejoin="round" stroke-width=".22"/></g><path d="M931.12,942.14c.85,2.31,1.08,3.5,1.2,5.97" fill="none" stroke="#000" stroke-linecap="round" stroke-linejoin="round" stroke-width=".25"/><path d="M931.11,941.76l.28,.66-13.74,6.07h-.21v-.71l13.67-6.02h0Z" fill="#2d2d2c" fill-rule="evenodd"/><path d="M934.55,936.79c-1.56,4.26-1.99,6.45-2.22,10.99" fill="none" stroke="#000" stroke-linecap="round" stroke-linejoin="round" stroke-width=".25"/><path d="M934.58,936.1l-.51,1.22,25.29,11.17h.39v-1.32s-25.17-11.07-25.17-11.07h0Z" fill="#2d2d2c" fill-rule="evenodd"/><g><path d="M1057.5,948.85v-7.57m0,11.49v-4.03m0,0v-1.34m15.38,.11v-6.23m0,11.49v-4.03m0,0v-1.34" fill="none" stroke="#000" stroke-linecap="round" stroke-linejoin="round" stroke-width=".22"/><path d="M1072.88,952.77h-15.38m15.38-11.49h-15.38m15.38,6.12h-2.72m0,0v1.34m0,0h2.72m-12.66-1.34h-2.72m0,0v1.34m0,0h2.72m-1.36,0h1.36m0,0v-1.34m9.94,.67h-9.94m9.94-.67h-9.94m0,1.34h9.94m-12.66,0h1.36m-1.36,0h0" fill="none" stroke="#000" stroke-linecap="round" stroke-linejoin="round" stroke-width=".25"/><path d="M1072.88,948.74v-1.34m0,1.34v-1.34m0,5.37v-4.03m0-1.23v-6.23m-15.38,7.46v-1.34m0,1.34v-1.34m0,5.37v-4.03m0,.11v-7.57m15.38,11.49v-11.49" fill="none" stroke="#000" stroke-linecap="round" stroke-linejoin="round" stroke-width=".22"/></g><g><path d="M997.34,948.85v-7.57m0,11.49v-4.03m0,0v-1.34m17.84,.11v-6.23m0,11.49v-4.03m0,0v-1.34" fill="none" stroke="#000" stroke-linecap="round" stroke-linejoin="round" stroke-width=".22"/><path d="M1015.18,952.77h-17.84m17.84-11.49h-17.84m17.84,6.12h-3.2m0,0v1.34m0,0h3.2m-14.64-1.34h-3.2m0,0v1.34m0,0h3.2m-1.6,0h1.6m0,0v-1.34m11.44,.67h-11.44m11.44-.67h-11.44m0,1.34h11.44m-14.64,0h1.6m-1.6,0h0" fill="none" stroke="#000" stroke-linecap="round" stroke-linejoin="round" stroke-width=".25"/><path d="M1015.18,948.74v-1.34m0,1.34v-1.34m0,5.37v-4.03m0-1.23v-6.23m-17.84,7.46v-1.34m0,1.34v-1.34m0,5.37v-4.03m0,.11v-7.57m17.84,11.49v-11.49" fill="none" stroke="#000" stroke-linecap="round" stroke-linejoin="round" stroke-width=".22"/></g><path d="M1028.87,942.14c.85,2.31,1.08,3.5,1.2,5.97" fill="none" stroke="#000" stroke-linecap="round" stroke-linejoin="round" stroke-width=".25"/><path d="M1028.85,941.76l.28,.66-13.74,6.07h-.21v-.71l13.67-6.02h0Z" fill="#2d2d2c" fill-rule="evenodd"/><path d="M1032.29,936.79c-1.56,4.26-1.99,6.45-2.22,10.99" fill="none" stroke="#000" stroke-linecap="round" stroke-linejoin="round" stroke-width=".25"/><path d="M1032.32,936.1l-.51,1.22,25.3,11.17h.39v-1.32l-25.18-11.07h0Z" fill="#2d2d2c" fill-rule="evenodd"/><g><path d="M1150.88,948.85v-7.57m0,11.49v-4.03m0,0v-1.34m15.38,.11v-6.23m0,11.49v-4.03m0,0v-1.34" fill="none" stroke="#000" stroke-linecap="round" stroke-linejoin="round" stroke-width=".22"/><path d="M1166.26,952.77h-15.38m15.38-11.49h-15.38m15.38,6.12h-2.72m0,0v1.34m0,0h2.72m-12.66-1.34h-2.72m0,0v1.34m0,0h2.72m-1.36,0h1.36m0,0v-1.34m9.94,.67h-9.94m9.94-.67h-9.94m0,1.34h9.94m-12.66,0h1.36m-1.36,0h0" fill="none" stroke="#000" stroke-linecap="round" stroke-linejoin="round" stroke-width=".25"/><path d="M1166.26,948.74v-1.34m0,1.34v-1.34m0,5.37v-4.03m0-1.23v-6.23m-15.38,7.46v-1.34m0,1.34v-1.34m0,5.37v-4.03m0,.11v-7.57m15.38,11.49v-11.49" fill="none" stroke="#000" stroke-linecap="round" stroke-linejoin="round" stroke-width=".22"/></g><g><path d="M1096.45,948.85v-7.57m0,11.49v-4.03m0,0v-1.34m12.11,.11v-6.23m0,11.49v-4.03m0,0v-1.34" fill="none" stroke="#000" stroke-linecap="round" stroke-linejoin="round" stroke-width=".22"/><path d="M1108.56,952.77h-12.11m12.11-11.49h-12.11m12.11,6.12h-3.19m0,0v1.34m0,0h3.19m-8.91-1.34h-3.2m0,0v1.34m0,0h3.2m-1.6,0h1.6m0,0v-1.34m5.72,.67h-5.72m5.72-.67h-5.72m0,1.34h5.72m-8.92,0h1.6m-1.6,0h0" fill="none" stroke="#000" stroke-linecap="round" stroke-linejoin="round" stroke-width=".25"/><path d="M1108.56,948.74v-1.34m0,1.34v-1.34m0,5.37v-4.03m0-1.23v-6.23m-12.11,7.46v-1.34m0,1.34v-1.34m0,5.37v-4.03m0,.11v-7.57m12.11,11.49v-11.49" fill="none" stroke="#000" stroke-linecap="round" stroke-linejoin="round" stroke-width=".22"/></g><path d="M1122.25,942.14c.85,2.31,1.08,3.5,1.2,5.97" fill="none" stroke="#000" stroke-linecap="round" stroke-linejoin="round" stroke-width=".25"/><path d="M1122.23,941.76l.28,.66-13.73,6.07h-.22v-.71l13.67-6.02h0Z" fill="#2d2d2c" fill-rule="evenodd"/><path d="M1125.68,936.79c-1.56,4.26-1.99,6.45-2.22,10.99" fill="none" stroke="#000" stroke-linecap="round" stroke-linejoin="round" stroke-width=".25"/><path d="M1125.71,936.1l-.52,1.22,25.3,11.17h.39v-1.32l-25.17-11.07h0Z" fill="#2d2d2c" fill-rule="evenodd"/><g><path d="M1242.56,948.85v-7.57m0,11.49v-4.03m0,0v-1.34m15.38,.11v-6.23m0,11.49v-4.03m0,0v-1.34" fill="none" stroke="#000" stroke-linecap="round" stroke-linejoin="round" stroke-width=".22"/><path d="M1257.94,952.77h-15.38m15.38-11.49h-15.38m15.38,6.12h-2.72m0,0v1.34m0,0h2.72m-12.66-1.34h-2.72m0,0v1.34m0,0h2.72m-1.36,0h1.36m0,0v-1.34m9.94,.67h-9.94m9.94-.67h-9.94m0,1.34h9.94m-12.66,0h1.36m-1.36,0h0" fill="none" stroke="#000" stroke-linecap="round" stroke-linejoin="round" stroke-width=".25"/><path d="M1257.94,948.74v-1.34m0,1.34v-1.34m0,5.37v-4.03m0-1.23v-6.23m-15.38,7.46v-1.34m0,1.34v-1.34m0,5.37v-4.03m0,.11v-7.57m15.38,11.49v-11.49" fill="none" stroke="#000" stroke-linecap="round" stroke-linejoin="round" stroke-width=".22"/></g><g><path d="M1187.33,948.85v-7.57m0,11.49v-4.03m0,0v-1.34m12.91,.11v-6.23m0,11.49v-4.03m0,0v-1.34" fill="none" stroke="#000" stroke-linecap="round" stroke-linejoin="round" stroke-width=".22"/><path d="M1200.24,952.77h-12.91m12.91-11.49h-12.91m12.91,6.12h-3.19m0,0v1.34m0,0h3.19m-9.71-1.34h-3.2m0,0v1.34m0,0h3.2m-1.6,0h1.6m0,0v-1.34m6.52,.67h-6.52m6.52-.67h-6.52m0,1.34h6.52m-9.72,0h1.6m-1.6,0h0" fill="none" stroke="#000" stroke-linecap="round" stroke-linejoin="round" stroke-width=".25"/><path d="M1200.24,948.74v-1.34m0,1.34v-1.34m0,5.37v-4.03m0-1.23v-6.23m-12.91,7.46v-1.34m0,1.34v-1.34m0,5.37v-4.03m0,.11v-7.57m12.91,11.49v-11.49" fill="none" stroke="#000" stroke-linecap="round" stroke-linejoin="round" stroke-width=".22"/></g><path d="M1213.93,942.14c.85,2.31,1.08,3.5,1.2,5.97" fill="none" stroke="#000" stroke-linecap="round" stroke-linejoin="round" stroke-width=".25"/><path d="M1213.91,941.76l.28,.66-13.73,6.07h-.22v-.71l13.67-6.02h0Z" fill="#2d2d2c" fill-rule="evenodd"/><path d="M1217.36,936.79c-1.56,4.26-1.99,6.45-2.22,10.99" fill="none" stroke="#000" stroke-linecap="round" stroke-linejoin="round" stroke-width=".25"/><path d="M1217.39,936.1l-.52,1.22,25.3,11.17h.39v-1.32l-25.17-11.07h0Z" fill="#2d2d2c" fill-rule="evenodd"/><g><path d="M1335.08,948.85v-7.57m0,11.49v-4.03m0,0v-1.34m14.53,.11v-6.23m0,11.49v-4.03m0,0v-1.34" fill="none" stroke="#000" stroke-linecap="round" stroke-linejoin="round" stroke-width=".22"/><path d="M1349.61,952.77h-14.53m14.53-11.49h-14.53m14.53,6.12h-2.72m0,0v1.34m0,0h2.72m-11.81-1.34h-2.72m0,0v1.34m0,0h2.72m-1.36,0h1.36m0,0v-1.34m9.09,.67h-9.09m9.09-.67h-9.09m0,1.34h9.09m-11.81,0h1.36m-1.36,0h0" fill="none" stroke="#000" stroke-linecap="round" stroke-linejoin="round" stroke-width=".25"/><path d="M1349.61,948.74v-1.34m0,1.34v-1.34m0,5.37v-4.03m0-1.23v-6.23m-14.53,7.46v-1.34m0,1.34v-1.34m0,5.37v-4.03m0,.11v-7.57m14.53,11.49v-11.49" fill="none" stroke="#000" stroke-linecap="round" stroke-linejoin="round" stroke-width=".22"/></g><g><path d="M1279.85,948.85v-7.57m0,11.49v-4.03m0,0v-1.34m12.91,.11v-6.23m0,11.49v-4.03m0,0v-1.34" fill="none" stroke="#000" stroke-linecap="round" stroke-linejoin="round" stroke-width=".22"/><path d="M1292.76,952.77h-12.91m12.91-11.49h-12.91m12.91,6.12h-3.19m0,0v1.34m0,0h3.19m-9.71-1.34h-3.2m0,0v1.34m0,0h3.2m-1.6,0h1.6m0,0v-1.34m6.52,.67h-6.52m6.52-.67h-6.52m0,1.34h6.52m-9.72,0h1.6m-1.6,0h0" fill="none" stroke="#000" stroke-linecap="round" stroke-linejoin="round" stroke-width=".25"/><path d="M1292.76,948.74v-1.34m0,1.34v-1.34m0,5.37v-4.03m0-1.23v-6.23m-12.91,7.46v-1.34m0,1.34v-1.34m0,5.37v-4.03m0,.11v-7.57m12.91,11.49v-11.49" fill="none" stroke="#000" stroke-linecap="round" stroke-linejoin="round" stroke-width=".22"/></g><path d="M1306.45,942.14c.85,2.31,1.08,3.5,1.2,5.97" fill="none" stroke="#000" stroke-linecap="round" stroke-linejoin="round" stroke-width=".25"/><path d="M1306.43,941.76l.28,.66-13.74,6.07h-.21v-.71l13.67-6.02h0Z" fill="#2d2d2c" fill-rule="evenodd"/><path d="M1309.87,936.79c-1.56,4.26-1.99,6.45-2.22,10.99" fill="none" stroke="#000" stroke-linecap="round" stroke-linejoin="round" stroke-width=".25"/><path d="M1309.91,936.1l-.52,1.22,25.3,11.17h.39v-1.32l-25.17-11.07h0Z" fill="#2d2d2c" fill-rule="evenodd"/><path d="M152.03,142.9h57.79v16.39h-57.79v-16.39Zm1200.69,0h51.49v16.39h-51.49v-16.39Zm31.25,179.29h16.39v16.13h-16.39v-16.13Zm.72,96.5h16.39v18.3h-16.39v-18.3Z" fill="#2d2d2c"/><path d="M1371.11,409.88h16.75v29.89h-16.75v-29.89Z" fill="#2d2d2c"/><path d="M1387.86,549.48h-16.75v-27.62l16.75-2.04v29.66Zm0,110.76h-16.75l-.02-27.06,16.77-3.31v30.37Zm0,93.99h-16.75l-.02-25.99,16.77-3.18v29.17Zm0,93.42h-16.75l-.02-25.99,16.77-3.18v29.17Zm0,96.75h-16.75l-.02-25.7,16.77-3.48v29.18Z" fill="#2d2d2c" fill-rule="evenodd"/><path d="M1384.69,528.85h16.39v19.38h-16.39v-19.38Zm0,109.75h16.39v13.6h-16.39v-13.6Zm0,96.5h16.39v10.6h-16.39v-10.6Zm0,96.67h16.39v10.92h-16.39v-10.92Z" fill="#2d2d2c"/><path d="M1401.08,947.25l-4.73,28.28-20.98-3.61v-46.1h25.71v21.43h0ZM167.96,839.2h16.69l.02-33.28-16.71-.28v33.56h0Zm0-93.5h16.69l.02-33.28-16.71-.28v33.56h0Zm0-95.12h16.69l.02-30.89-16.71-1.05v31.94h0Zm0-108.12h16.69l.02-33.42-16.67-.88-.04,34.3h0Zm0-110.73h16.69l.02-34.25-16.67,.28-.04,33.97h0Zm0-92.75h16.69l.02-33.65-16.67,.61-.04,33.04h0Zm1.95,605.42h16.76l.02-29.76-16.78-3.61v33.37Z" fill="#2d2d2c" fill-rule="evenodd"/><path d="M206.22,952.77v-11.47l-33.38-.02v11.49h33.38Zm105.49,0v-11.47l-22.53-.02v11.49h22.53Zm116.12,0v-11.47l-22.95-.02v11.49h22.95Zm93.03,0v-11.47l-22.33-.02v11.49h22.33Zm93.29,0v-11.47l-22.58-.02v11.49h22.58Zm98.18,0v-11.47l-20.5-.02v11.49h20.5Zm93.9,0v-11.47l-23.49-.02v11.49h23.49Zm95.77,0v-11.47l-22.64-.02v11.49h22.64Zm95.34,0v-11.47l-22.2-.02v11.49h22.2Zm99.11,0v-11.47l-23.57-.02v11.49h23.57Zm90.88,0v-11.47l-21.07-.02v11.49h21.07Zm92.52,0v-11.47l-21.91-.02v11.49h21.91Zm102.19,0v-11.47l-32.43-.02v11.49h32.43Z" fill="#2d2d2c" fill-rule="evenodd"/><path d="M156.69,821.83h16.39v17.37h-16.39v-17.37Zm0-93.16h16.39v13.35h-16.39v-13.35Zm0-93.39h16.39v13.23h-16.39v-13.23Zm0-110.33h16.39v13.85h-16.39v-13.85Zm0-112.16h16.39v15.3h-16.39v-15.3Zm0-92.66h16.39v19.32h-16.39v-19.32Z" fill="#2d2d2c"/><path d="M156.69,947.25l4.73,28.28,20.99-3.61v-38.89h-25.72v14.22Z" fill="#2d2d2c" fill-rule="evenodd"/><path d="M1360.87,312.5h27.85v21.28h-27.85v-21.28ZM780.84,157.67h8.7v129.98h-8.7V157.67Zm369.69,0h8.7v129.98h-8.7V157.67Zm-359.33,681.48h6.57v106.43h-6.57v-106.43Zm-191.63,0h6.57v106.43h-6.57v-106.43Zm-188.28,0h6.57v106.43h-6.57v-106.43Zm-.73-430.92h8.47v190.11h-8.47v-190.11Zm722.93,1.42h6.08v17.1h-6.08v-17.1Zm0,47.33h6.08v92.5h-6.08v-92.5Zm-722.93,173.84h8.47v37.19h-8.47v-37.19Zm.73,68.07h7.74v10.62h-7.74v-10.62Z" fill="#2d2d2c"/><path d="M417.41,700.82h98.74v7.96h-98.74v-7.96Zm129.62,0h96.29v7.96h-96.29v-7.96Zm126.7,0h293.13v7.96h-293.13v-7.96Zm323.57,0h139.69v7.96h-139.69v-7.96ZM447.75,415.4v-6.33h190.49v6.33h-190.49Zm493.25,.59v-6.33h198.57v6.33h-198.57Z" fill="#2d2d2c"/></g></svg>