<?xml version="1.0" encoding="UTF-8"?><svg id="_Слой_1" xmlns="http://www.w3.org/2000/svg" viewBox="0 0 1556.82 1178.99"><polygon id="_679" points="505.03 175.42 478.23 174.32 426.03 161.32 412.13 151.52 389.63 162.02 337.03 174.22 276.73 173.02 223.83 160.82 205.83 156.72 166.53 156.72 166.53 232.32 172.53 258.42 182.13 299.72 182.13 336.32 171.43 336.42 182.23 392.02 165.33 420.72 173.73 442.42 182.33 503.32 182.83 536.22 417.13 536.22 417.13 412.82 505.03 412.82 505.03 175.42" fill="none" fill-rule="evenodd"/><polygon id="_680" points="781.33 186.82 781.33 151.02 762.83 162.32 710.43 175.42 662.83 174.92 610.43 161.82 595.83 153.62 577.13 162.32 524.73 175.42 504.83 178.52 505.93 186.82 503.93 186.82 503.93 339.32 503.93 402.52 503.93 412.82 680.13 412.82 680.13 402.52 784.83 402.52 784.83 186.82 781.33 186.82" fill="none" fill-rule="evenodd"/><polygon id="_681" points="1071.23 413.42 1071.23 317.82 1152.53 317.82 1152.53 211.02 1152.53 190.42 1152.53 161.92 1149.43 153.12 1132.83 161.92 1080.43 175.02 1033.23 174.32 980.83 161.32 963.33 153.52 947.23 162.22 894.83 175.22 848.83 175.32 796.43 162.22 784.83 154.02 784.83 190.42 784.83 402.92 896.83 402.92 896.83 413.42 1071.23 413.42" fill="none" fill-rule="evenodd"/><polygon id="_682" points="1379.23 350.82 1386.83 331.22 1369.83 306.62 1378.83 265.02 1390.73 230.02 1385.93 207.32 1385.93 169.82 1389.43 154.52 1363.13 150.42 1327.83 162.42 1275.23 174.62 1221.43 174.92 1168.83 162.72 1156.33 155.12 1156.33 182.52 1154.63 317.82 1123.83 317.62 1071.83 317.62 1071.83 413.42 1123.83 413.42 1123.83 410.92 1131.63 410.92 1131.63 471.52 1133.13 471.52 1133.13 544.52 1369.73 544.52 1379.83 539.52 1370.33 512.62 1379.83 451.92 1384.43 426.32 1373.63 417.92 1369.73 404.42 1379.23 350.82" fill="none"/><path id="_683" d="M1387.83,746.22l-17.4-27.1,9.1-51.6,6-17.2s-6.5-4.6-13.6-9.8l6.8,.2-8.1-18.8,9.6-60.7s9.2-16.7,10.1-18.9h-254.9v1.2h-46.9l-3,114,.4,30.9,.8,12.8,87.4,1.9v185.6l10.3,4.7,1,62.2,192.8-.1,5.5-34.5,2.5-79.6-15.5-29.1,9.1-51.6,8-14.5h0Z" fill="none"/><polygon id="_684" points="1174.73 890.42 1174.73 698.22 793.63 698.22 793.63 890.42 785.53 890.42 785.53 955.92 1184.13 955.92 1184.13 890.42 1174.73 890.42" fill="none"/><polygon id="_685" points="793.63 698.22 602.63 698.22 602.63 875.42 602.43 875.42 602.43 955.92 784.03 955.92 784.03 899.52 793.63 899.52 793.63 698.22" fill="none"/><polygon id="_686" points="602.43 698.22 414.53 698.22 414.53 899.52 418.43 899.52 418.43 955.92 601.23 955.92 601.23 899.52 602.43 899.52 602.43 698.22" fill="none"/><polygon id="_687" points="417.43 895.92 412.73 885.02 413.03 702.22 491.93 698.22 491.73 654.92 488.63 586.22 414.43 587.12 412.33 535.62 164.73 536.22 173.73 552.92 182.33 613.72 168.83 644.52 173.13 655.12 182.23 706.72 166.13 734.62 173.03 748.32 182.23 800.22 165.33 830.52 164.93 864.12 170.63 917.02 176.03 955.72 417.63 955.92 417.43 895.92" fill="none" fill-rule="evenodd"/><g id="Walls_Inside"><path d="M599.57,703.96h6.57v132.88h-6.57v-132.88Zm191.63,0h6.57v132.88h-6.57v-132.88Zm353.62,2.51v-7.96h34.81v7.96h-34.81Z" fill="#2d2d2c"/><path d="M1171.9,836.85v-136.75h7.75v136.75h-7.75Zm-21.38-587.26h7.68v71.63h-7.68v-71.63ZM503.08,170.7h7.61v238.82h-7.61V170.7Zm567.11,143.89h7.01v94.17h-7.01v-94.17Zm-289.35-65.12h8.7v148.21h-8.7V249.47Z" fill="#2d2d2c"/><path d="M672.16,403.18v-7.01h234.09v7.01h-234.09Z" fill="#2d2d2c"/><path d="M672.16,408.57v-7.01h9.83v7.01h-9.83Zm464.97,138.61v-6.77h158.53v6.77h-158.53Zm-61.62-225.96v-6.21h82.68v6.21h-82.68Zm-176.77,76.31h7.51v13.97h-7.51v-13.97Zm-480.67,496.48h2.83v62.16h-2.83v-62.16Zm183.63,0h2.83v62.16h-2.83v-62.16Zm182.83,0h2.83v62.16h-2.83v-62.16Zm400.08,0h2.83v62.16h-2.83v-62.16ZM260.99,531.69h151.83v8.47h-151.83v-8.47Zm150.3,172.27h6.57v132.88h-6.57v-132.88Z" fill="#2d2d2c"/></g><g id="Walls_Outside"><path d="M173.23,302.43l10.73-2.48m-15.97,3.68l3.93-.9m0,0l1.31-.3m-9.53-41.28l10.73-2.48m-15.97,3.69l3.93-.91m0,0l1.31-.3" fill="none" stroke="#000" stroke-linecap="round" stroke-linejoin="round" stroke-width=".22"/><path d="M158.46,262.36l9.53,41.27m6.44-44.96l9.53,41.28m-20.26-38.8l.54,2.36m0,0l-1.31,.3m0,0l-.54-2.36m5.44,23.59l-.27-1.18m0,0l1.31-.3m0,0l.27,1.17m-5.55-21.07l4.63,20.05m-3.98-20.2l4.63,20.05m-1.31,.3l-4.63-20.05m6.21,20.92l.14,.59m0,0l-.65,.16m0,0l.13,.59m0,0l-.65,.15m0,0l-.28-1.18m4.09,17.69l-.55-2.36m0,0l.66-.15m0,0l.13,.59m0,0l.66-.15m0,0l.41,1.77m-1.86-2.06l-3.26-14.15m2.23,.72l2.73,11.8m-3.14-13.57l.41,1.77m0,0l-1.31,.3m0,0l-.4-1.76m0,0l1.3-.31m2.23,15.64l-.4-1.77m0,0l1.31-.3m0,0l.4,1.77m0,0l-1.3,.3m-.41-1.77l-2.73-11.8m1.31-.3l2.73,11.8m-3.38-11.65l2.72,11.8" fill="none" stroke="#000" stroke-linecap="round" stroke-linejoin="round" stroke-width=".25"/><path d="M162.39,261.45l1.31-.3m-1.31,.3l1.31-.3m-5.24,1.21l3.93-.91m1.31-.3l10.73-2.48m-2.51,44.06l1.31-.3m-1.31,.3l1.31-.3m-5.24,1.2l3.93-.9m1.31-.3l10.73-2.48m-25.5-37.59l15.97-3.69" fill="none" stroke="#000" stroke-linecap="round" stroke-linejoin="round" stroke-width=".22"/><path d="M184.38,301.77l.29,1.25-15.97,3.69-.71-3.08,15.97-3.68,.29,1.25,.13,.57h0Z" fill="#2d2d2c" fill-rule="evenodd"/><path d="M152.03,234.48l15.97-3.69,6.44,27.88-15.97,3.69-6.44-27.88Z" fill="#2d2d2c"/><path d="M228.45,150.46l-2.48,10.73m3.68-15.97l-.9,3.93m0,0l-.3,1.31m52.6,12.14l-2.48,10.73m3.69-15.96l-.91,3.92m0,0l-.3,1.31" fill="none" stroke="#000" stroke-linecap="round" stroke-linejoin="round" stroke-width=".22"/><path d="M282.26,157.37l-52.61-12.15m48.92,28.12l-52.6-12.15m55.08,1.41l-3.01-.69m0,0l.3-1.31m0,0l3.01,.69m-30.06-6.94l1.5,.35m0,0l-.3,1.31m0,0l-1.5-.35m27.2,5.59l-25.55-5.89m25.4,6.55l-25.55-5.9m.3-1.31l25.55,5.9m-27.35-4.94l-.75-.17m0,0l.15-.65m0,0l-.75-.18m0,0l.15-.65m0,0l1.5,.34m-22.54-5.2l2.36,.54m0,0l-.15,.66m0,0l-.59-.14m0,0l-.16,.66m0,0l-1.76-.41m2.66-.77l18.68,4.32m-1.96,1.61l-15.03-3.47m17.29,3.99l-2.26-.52m0,0l.3-1.3m0,0l2.26,.53m0,0l-.3,1.3m-19.72-5.93l1.76,.41m0,0l-.3,1.31m0,0l-1.77-.41m0,0l.31-1.31m1.76,.41l16,3.69m-.3,1.31l-16-3.69m16.15,3.04l-16-3.69" fill="none" stroke="#000" stroke-linecap="round" stroke-linejoin="round" stroke-width=".25"/><path d="M281.35,161.29l-.3,1.31m.3-1.31l-.3,1.31m1.21-5.23l-.91,3.92m-.3,1.31l-2.48,10.73m-49.82-24.18l-.3,1.31m.3-1.31l-.3,1.31m1.2-5.24l-.9,3.93m-.3,1.31l-2.48,10.73m56.29-3.82l-3.69,15.97" fill="none" stroke="#000" stroke-linecap="round" stroke-linejoin="round" stroke-width=".22"/><path d="M214.2,158.47l-8.07-1.86,3.68-15.97,19.84,4.58-3.68,15.97-8.07-1.86-3.7-.86Z" fill="#2d2d2c" fill-rule="evenodd"/><path d="M278.56,173.32l3.69-15.97,32.63,7.53-3.69,15.97-32.63-7.53Z" fill="#2d2d2c"/><path d="M336.43,163.74l2.47,10.73m-3.68-15.97l.9,3.93m0,0l.31,1.31m52.6-12.14l2.48,10.73m-3.69-15.97l.91,3.93m0,0l.3,1.31" fill="none" stroke="#000" stroke-linecap="round" stroke-linejoin="round" stroke-width=".22"/><path d="M387.82,146.36l-52.6,12.14m56.29,3.83l-52.61,12.14m50.13-22.87l-3.01,.69m0,0l-.3-1.31m0,0l3.01-.69m-30.06,6.94l1.5-.35m0,0l.3,1.31m0,0l-1.5,.35m26.9-6.9l-25.55,5.89m25.7-5.24l-25.55,5.9m-.3-1.31l25.55-5.9m-26.75,7.56l-.75,.17m0,0l-.15-.66m0,0l-.75,.18m0,0l-.15-.66m0,0l1.5-.34m-22.55,5.2l2.36-.54m0,0l.15,.65m0,0l-.59,.14m0,0l.16,.65m0,0l-1.77,.41m2.05-1.85l18.69-4.32m-1.05,2.31l-15.03,3.47m17.28-3.99l-2.25,.52m0,0l-.31-1.3m0,0l2.26-.53m0,0l.3,1.31m-20.33,3.32l1.77-.41m0,0l.31,1.31m0,0l-1.77,.41m0,0l-.31-1.31m1.77-.41l16-3.69m.31,1.3l-16,3.7m15.84-4.35l-16,3.69" fill="none" stroke="#000" stroke-linecap="round" stroke-linejoin="round" stroke-width=".25"/><path d="M388.73,150.29l.3,1.31m-.3-1.31l.3,1.31m-1.21-5.24l.91,3.93m.3,1.31l2.48,10.73m-55.39,.1l.31,1.31m-.31-1.31l.31,1.31m-1.21-5.24l.9,3.93m.31,1.31l2.47,10.73m48.92-28.11l3.69,15.97" fill="none" stroke="#000" stroke-linecap="round" stroke-linejoin="round" stroke-width=".22"/><path d="M322.47,178.27l-11.27,2.6-3.68-15.97,27.7-6.4,3.68,15.97-11.26,2.6-5.17,1.2h0Z" fill="#2d2d2c" fill-rule="evenodd"/><path d="M387.82,146.35l24.32-5.62,3.69,15.97-24.32,5.62-3.69-15.97Z" fill="#2d2d2c"/><path d="M430.58,150.88l-2.66,10.69m3.96-15.9l-.97,3.91m0,0l-.33,1.3m52.38,13.06l-2.66,10.69m3.96-15.9l-.97,3.91m0,0l-.33,1.3" fill="none" stroke="#000" stroke-linecap="round" stroke-linejoin="round" stroke-width=".22"/><path d="M484.26,158.73l-52.38-13.06m48.42,28.96l-52.38-13.06m55.04,2.37l-2.99-.74m0,0l.33-1.31m0,0l2.99,.75m-29.93-7.46l1.49,.37m0,0l-.32,1.3m0,0l-1.5-.37m27.1,6.06l-25.44-6.34m25.28,7l-25.44-6.35m.32-1.3l25.45,6.34m-27.27-5.41l-.75-.19m0,0l.17-.65m0,0l-.75-.19m0,0l.16-.65m0,0l1.5,.38m-22.45-5.6l2.34,.58m.01,0l-.17,.65m0,0l-.58-.14m0,0l-.17,.65m0,0l-1.76-.44m2.67-.72l18.61,4.64m-1.98,1.58l-14.97-3.73m17.21,4.29l-2.24-.56m0,0l.32-1.3m0,0l2.25,.56m0,0l-.33,1.3m-19.61-6.27l1.76,.44m0,0l-.33,1.3m0,0l-1.76-.44m0,0l.33-1.3m1.76,.44l15.93,3.97m-.32,1.3l-15.94-3.97m16.1,3.32l-15.94-3.97" fill="none" stroke="#000" stroke-linecap="round" stroke-linejoin="round" stroke-width=".25"/><path d="M483.29,162.64l-.33,1.3m.33-1.3l-.33,1.3m1.3-5.21l-.97,3.91m-.33,1.3l-2.66,10.69m-49.39-25.05l-.33,1.3m.33-1.3l-.33,1.3m1.3-5.21l-.97,3.91m-.33,1.3l-2.66,10.69m56.34-2.84l-3.96,15.9" fill="none" stroke="#000" stroke-linecap="round" stroke-linejoin="round" stroke-width=".22"/><path d="M416.2,158.65l-8.02-2,3.96-15.9,19.74,4.92-3.96,15.9-8.03-2-3.69-.92Z" fill="#2d2d2c" fill-rule="evenodd"/><path d="M480.29,174.61l3.96-15.9,25.26,6.3-3.96,15.9-25.26-6.3Z" fill="#2d2d2c"/><path d="M615,151.46l-2.67,10.69m3.97-15.9l-.98,3.91m0,0l-.32,1.3m52.38,13.06l-2.66,10.69m3.96-15.9l-.97,3.91m0,0l-.33,1.3" fill="none" stroke="#000" stroke-linecap="round" stroke-linejoin="round" stroke-width=".22"/><path d="M668.68,159.31l-52.38-13.06m48.42,28.96l-52.39-13.06m55.05,2.37l-2.99-.75m0,0l.32-1.3m0,0l3,.75m-29.94-7.47l1.5,.38m0,0l-.33,1.3m0,0l-1.49-.37m27.1,6.06l-25.44-6.34m25.28,6.99l-25.45-6.34m.33-1.3l25.44,6.34m-27.26-5.41l-.75-.19m0,0l.16-.65m0,0l-.75-.19m0,0l.17-.65m0,0l1.49,.37m-22.45-5.59l2.35,.58m0,0l-.16,.65m0,0l-.59-.14m0,0l-.16,.65m0,0l-1.76-.44m2.67-.72l18.61,4.64m-1.99,1.58l-14.96-3.73m17.21,4.29l-2.25-.56m0,0l.33-1.3m0,0l2.24,.56m0,0l-.32,1.3m-19.62-6.27l1.76,.44m0,0l-.32,1.3m0,0l-1.76-.44m0,0l.32-1.3m1.76,.44l15.94,3.97m-.33,1.3l-15.93-3.97m16.09,3.32l-15.93-3.97" fill="none" stroke="#000" stroke-linecap="round" stroke-linejoin="round" stroke-width=".25"/><path d="M667.71,163.22l-.33,1.3m.33-1.3l-.33,1.3m1.3-5.21l-.97,3.91m-.33,1.3l-2.66,10.69m-49.4-25.05l-.32,1.3m.32-1.3l-.32,1.3m1.3-5.21l-.98,3.91m-.32,1.3l-2.67,10.69m56.35-2.84l-3.96,15.9" fill="none" stroke="#000" stroke-linecap="round" stroke-linejoin="round" stroke-width=".22"/><path d="M600.65,159.23l-8.01-1.99,3.97-15.9,19.69,4.9-3.97,15.91-8-2-3.68-.92Z" fill="#2d2d2c" fill-rule="evenodd"/><path d="M664.71,175.2l3.97-15.9,24.72,6.16-3.97,15.9-24.72-6.16Z" fill="#2d2d2c"/><path d="M801,151.83l-2.67,10.69m3.97-15.9l-.98,3.91m0,0l-.32,1.3m52.38,13.06l-2.66,10.69m3.96-15.9l-.97,3.91m0,0l-.33,1.3" fill="none" stroke="#000" stroke-linecap="round" stroke-linejoin="round" stroke-width=".22"/><path d="M854.68,159.68l-52.38-13.06m48.42,28.96l-52.39-13.06m55.05,2.37l-2.99-.74m0,0l.32-1.31m0,0l3,.75m-29.94-7.46l1.5,.37m0,0l-.33,1.3m0,0l-1.49-.37m27.1,6.06l-25.44-6.34m25.28,7l-25.45-6.35m.33-1.3l25.44,6.34m-27.26-5.41l-.75-.19m0,0l.16-.65m0,0l-.75-.19m0,0l.17-.65m0,0l1.49,.38m-22.45-5.6l2.35,.58m0,0l-.16,.66m0,0l-.59-.15m0,0l-.16,.65m0,0l-1.76-.44m2.67-.72l18.61,4.64m-1.99,1.58l-14.96-3.73m17.21,4.29l-2.25-.56m0,0l.33-1.3m0,0l2.24,.56m0,0l-.32,1.3m-19.62-6.27l1.76,.44m0,0l-.32,1.3m0,0l-1.76-.44m0,0l.32-1.3m1.76,.44l15.94,3.97m-.33,1.3l-15.93-3.97m16.09,3.32l-15.93-3.97" fill="none" stroke="#000" stroke-linecap="round" stroke-linejoin="round" stroke-width=".25"/><path d="M853.71,163.59l-.33,1.3m.33-1.3l-.33,1.3m1.3-5.21l-.97,3.91m-.33,1.3l-2.66,10.69m-49.4-25.05l-.32,1.3m.32-1.3l-.32,1.3m1.3-5.21l-.98,3.91m-.32,1.3l-2.67,10.69m56.35-2.84l-3.96,15.9" fill="none" stroke="#000" stroke-linecap="round" stroke-linejoin="round" stroke-width=".22"/><path d="M786.11,159.47l-8.38-2.09,3.96-15.9,20.61,5.14-3.97,15.9-8.38-2.09-3.84-.96Z" fill="#2d2d2c" fill-rule="evenodd"/><path d="M850.7,175.58l3.97-15.9,22.87,5.7-3.97,15.9-22.87-5.7Z" fill="#2d2d2c"/><path d="M985.33,150.89l-2.66,10.69m3.96-15.9l-.97,3.91m0,0l-.33,1.3m52.38,13.06l-2.66,10.69m3.96-15.9l-.97,3.91m0,0l-.33,1.3" fill="none" stroke="#000" stroke-linecap="round" stroke-linejoin="round" stroke-width=".22"/><path d="M1039.01,158.74l-52.38-13.06m48.42,28.96l-52.38-13.06m55.04,2.37l-2.99-.74m0,0l.33-1.31m0,0l2.99,.75m-29.93-7.46l1.49,.37m0,0l-.32,1.3m0,0l-1.5-.37m27.1,6.06l-25.44-6.34m25.28,7l-25.44-6.35m.32-1.3l25.45,6.34m-27.27-5.41l-.75-.19m0,0l.17-.65m0,0l-.75-.19m0,0l.16-.65m0,0l1.5,.38m-22.45-5.6l2.34,.58m.01,0l-.17,.65m0,0l-.58-.14m0,0l-.17,.65m0,0l-1.76-.44m2.67-.72l18.61,4.64m-1.98,1.58l-14.97-3.73m17.21,4.29l-2.24-.56m0,0l.32-1.3m0,0l2.25,.56m0,0l-.33,1.3m-19.61-6.27l1.76,.44m0,0l-.33,1.3m0,0l-1.76-.44m0,0l.33-1.3m1.76,.44l15.93,3.97m-.32,1.3l-15.94-3.97m16.1,3.32l-15.94-3.97" fill="none" stroke="#000" stroke-linecap="round" stroke-linejoin="round" stroke-width=".25"/><path d="M1038.04,162.65l-.33,1.3m.33-1.3l-.33,1.3m1.3-5.21l-.97,3.91m-.33,1.3l-2.66,10.69m-49.39-25.05l-.33,1.3m.33-1.3l-.33,1.3m1.3-5.21l-.97,3.91m-.33,1.3l-2.66,10.69m56.34-2.84l-3.96,15.9" fill="none" stroke="#000" stroke-linecap="round" stroke-linejoin="round" stroke-width=".22"/><path d="M971.4,158.77l-7.72-1.93,3.97-15.9,18.98,4.74-3.96,15.9-7.72-1.93-3.55-.88h0Z" fill="#2d2d2c" fill-rule="evenodd"/><path d="M1035.02,174.63l3.96-15.9,24.92,6.21-3.96,15.9-24.92-6.21Z" fill="#2d2d2c"/><path d="M1173.15,152.31l-2.47,10.73m3.68-15.97l-.9,3.93m0,0l-.31,1.31m52.61,12.14l-2.48,10.74m3.69-15.97l-.91,3.93m0,0l-.3,1.3" fill="none" stroke="#000" stroke-linecap="round" stroke-linejoin="round" stroke-width=".22"/><path d="M1226.97,159.22l-52.61-12.15m48.92,28.12l-52.6-12.15m55.08,1.41l-3.01-.69m0,0l.3-1.31m0,0l3.01,.7m-30.06-6.94l1.5,.34m0,0l-.3,1.31m0,0l-1.5-.35m27.2,5.6l-25.55-5.9m25.4,6.55l-25.55-5.9m.3-1.31l25.55,5.9m-27.35-4.94l-.75-.17m0,0l.15-.65m0,0l-.75-.18m0,0l.15-.65m0,0l1.5,.35m-22.54-5.21l2.35,.55m0,0l-.15,.65m0,0l-.59-.14m0,0l-.15,.66m0,0l-1.77-.41m2.66-.76l18.69,4.31m-1.96,1.61l-15.03-3.47m17.29,3.99l-2.26-.52m0,0l.3-1.3m0,0l2.26,.52m0,0l-.3,1.3m-19.73-5.93l1.77,.41m0,0l-.3,1.31m0,0l-1.77-.41m0,0l.3-1.31m1.77,.41l16,3.7m-.3,1.3l-16-3.69m16.15,3.04l-16-3.69" fill="none" stroke="#000" stroke-linecap="round" stroke-linejoin="round" stroke-width=".25"/><path d="M1226.06,163.15l-.3,1.3m.3-1.3l-.3,1.3m1.21-5.23l-.91,3.93m-.3,1.3l-2.48,10.74m-49.82-24.19l-.31,1.31m.31-1.31l-.31,1.31m1.21-5.24l-.9,3.93m-.31,1.31l-2.47,10.73m56.29-3.82l-3.69,15.97" fill="none" stroke="#000" stroke-linecap="round" stroke-linejoin="round" stroke-width=".22"/><path d="M1156.3,159.72l-9.85-2.27,3.69-15.97,24.22,5.59-3.68,15.97-9.85-2.27-4.53-1.05h0Z" fill="#2d2d2c" fill-rule="evenodd"/><path d="M1223.25,175.18l3.69-15.97,26.23,6.06-3.69,15.97-26.23-6.06Z" fill="#2d2d2c"/><path d="M523.97,164.98l2.66,10.69m-3.96-15.9l.97,3.91m0,0l.33,1.3m52.38-13.06l2.66,10.69m-3.96-15.9l.97,3.91m0,0l.33,1.3" fill="none" stroke="#000" stroke-linecap="round" stroke-linejoin="round" stroke-width=".22"/><path d="M575.05,146.71l-52.38,13.06m56.34,2.84l-52.38,13.06m49.72-23.75l-2.99,.75m0,0l-.33-1.3m0,0l2.99-.75m-29.93,7.46l1.5-.37m0,0l.32,1.3m0,0l-1.49,.38m26.77-7.37l-25.44,6.34m25.61-5.69l-25.45,6.34m-.32-1.3l25.44-6.34m-26.61,8.02l-.75,.18m0,0l-.16-.65m0,0l-.75,.19m0,0l-.17-.65m0,0l1.5-.38m-22.45,5.6l2.35-.58m0,0l.16,.65m0,0l-.58,.14m0,0l.16,.66m0-.01l-1.76,.44m2.02-1.88l18.61-4.64m-1.01,2.32l-14.97,3.74m17.21-4.29l-2.24,.55m0,0l-.33-1.3m0,0l2.25-.56m0,0l.32,1.3m-20.26,3.67l1.76-.44m0,0l.32,1.31m0,0l-1.76,.44m0,0l-.32-1.31m1.76-.44l15.93-3.97m.33,1.3l-15.94,3.98m15.77-4.63l-15.93,3.98" fill="none" stroke="#000" stroke-linecap="round" stroke-linejoin="round" stroke-width=".25"/><path d="M576.02,150.62l.33,1.3m-.33-1.3l.33,1.3m-1.3-5.21l.97,3.91m.33,1.3l2.66,10.69m-55.37,1.07l.33,1.3m-.33-1.3l.33,1.3m-1.3-5.21l.97,3.91m.33,1.3l2.66,10.69m48.42-28.96l3.96,15.9" fill="none" stroke="#000" stroke-linecap="round" stroke-linejoin="round" stroke-width=".22"/><path d="M514.13,178.79l-8.57,2.14-3.97-15.91,21.08-5.25,3.96,15.9-8.57,2.14-3.93,.98h0Z" fill="#2d2d2c" fill-rule="evenodd"/><path d="M575.05,146.7l21.57-5.38,3.97,15.9-21.57,5.38-3.97-15.9Z" fill="#2d2d2c"/><path d="M709.63,164.98l2.67,10.69m-3.97-15.9l.98,3.91m0,0l.32,1.3m52.39-13.06l2.66,10.69m-3.96-15.9l.97,3.91m0,0l.33,1.3" fill="none" stroke="#000" stroke-linecap="round" stroke-linejoin="round" stroke-width=".22"/><path d="M760.72,146.71l-52.39,13.06m56.35,2.84l-52.38,13.06m49.72-23.75l-3,.75m0,0l-.32-1.3m0,0l2.99-.75m-29.93,7.46l1.49-.37m0,0l.33,1.3m0,0l-1.5,.38m26.78-7.37l-25.44,6.34m25.6-5.69l-25.44,6.34m-.33-1.3l25.45-6.34m-26.62,8.02l-.75,.18m0,0l-.16-.65m0,0l-.75,.19m0,0l-.16-.65m0,0l1.5-.38m-22.45,5.6l2.35-.58m0,0l.16,.65m0,0l-.59,.14m0,0l.17,.66m0-.01l-1.77,.44m2.03-1.88l18.6-4.64m-1.01,2.32l-14.96,3.74m17.21-4.29l-2.25,.55m0,0l-.32-1.3m0,0l2.24-.56m0,0l.33,1.3m-20.27,3.67l1.76-.44m0,0l.33,1.31m0,0l-1.76,.44m0,0l-.33-1.31m1.76-.44l15.94-3.97m.32,1.3l-15.93,3.98m15.77-4.63l-15.93,3.98" fill="none" stroke="#000" stroke-linecap="round" stroke-linejoin="round" stroke-width=".25"/><path d="M761.69,150.62l.33,1.3m-.33-1.3l.33,1.3m-1.3-5.21l.97,3.91m.33,1.3l2.66,10.69m-55.37,1.07l.32,1.3m-.32-1.3l.32,1.3m-1.3-5.21l.98,3.91m.32,1.3l2.67,10.69m48.42-28.96l3.96,15.9" fill="none" stroke="#000" stroke-linecap="round" stroke-linejoin="round" stroke-width=".22"/><path d="M698.73,179.05l-9.29,2.32-3.97-15.9,22.86-5.7,3.97,15.9-9.3,2.32-4.27,1.06h0Z" fill="#2d2d2c" fill-rule="evenodd"/><path d="M760.72,146.7l20.98-5.23,3.97,15.9-20.98,5.23-3.97-15.9Z" fill="#2d2d2c"/><path d="M894.01,164.84l2.66,10.69m-3.96-15.9l.97,3.91m0,0l.33,1.3m52.38-13.06l2.67,10.69m-3.97-15.9l.98,3.91m0,0l.32,1.3" fill="none" stroke="#000" stroke-linecap="round" stroke-linejoin="round" stroke-width=".22"/><path d="M945.09,146.57l-52.38,13.06m56.35,2.84l-52.39,13.06m49.72-23.75l-2.99,.75m0,0l-.33-1.31m0,0l3-.74m-29.94,7.46l1.5-.37m0,0l.32,1.3m0,0l-1.49,.37m26.78-7.36l-25.45,6.34m25.61-5.69l-25.45,6.34m-.32-1.3l25.44-6.35m-26.61,8.02l-.75,.19m0,0l-.16-.65m0,0l-.75,.19m0,0l-.16-.66m0,0l1.49-.37m-22.45,5.6l2.35-.59m0,0l.16,.65m0,0l-.58,.15m0,0l.16,.65m0,0l-1.76,.44m2.02-1.89l18.61-4.64m-1.01,2.33l-14.97,3.73m17.21-4.29l-2.24,.56m0,0l-.33-1.3m0,0l2.25-.56m0,0l.32,1.3m-20.26,3.67l1.76-.44m0,0l.32,1.3m0,0l-1.76,.44m0,0l-.32-1.3m1.76-.44l15.93-3.97m.33,1.3l-15.94,3.97m15.77-4.62l-15.93,3.97" fill="none" stroke="#000" stroke-linecap="round" stroke-linejoin="round" stroke-width=".25"/><path d="M946.07,150.48l.32,1.3m-.32-1.3l.32,1.3m-1.3-5.21l.98,3.91m.32,1.3l2.67,10.69m-55.38,1.07l.33,1.3m-.33-1.3l.33,1.3m-1.3-5.21l.97,3.91m.33,1.3l2.66,10.69m48.42-28.96l3.97,15.9" fill="none" stroke="#000" stroke-linecap="round" stroke-linejoin="round" stroke-width=".22"/><path d="M882.98,178.94l-9.39,2.34-3.96-15.9,23.08-5.75,3.96,15.9-9.38,2.34-4.31,1.07Z" fill="#2d2d2c" fill-rule="evenodd"/><path d="M945.1,146.55l22.56-5.62,3.97,15.9-22.56,5.62-3.97-15.9Z" fill="#2d2d2c"/><path d="M1079.67,164.59l2.67,10.68m-3.96-15.9l.97,3.91m0,0l.32,1.31m52.39-13.06l2.66,10.68m-3.96-15.9l.97,3.91m0,0l.33,1.31" fill="none" stroke="#000" stroke-linecap="round" stroke-linejoin="round" stroke-width=".22"/><path d="M1130.76,146.31l-52.38,13.06m56.34,2.84l-52.38,13.07m49.72-23.75l-3,.74m0,0l-.32-1.3m0,0l2.99-.75m-29.93,7.47l1.5-.38m0,0l.32,1.31m0,0l-1.5,.37m26.78-7.37l-25.44,6.35m25.6-5.7l-25.44,6.35m-.32-1.31l25.44-6.34m-26.62,8.02l-.74,.19m0,0l-.17-.65m0,0l-.74,.18m0,0l-.17-.65m0,0l1.5-.37m-22.45,5.59l2.35-.58m0,0l.16,.65m0,0l-.59,.15m0,0l.17,.65m0,0l-1.76,.44m2.02-1.89l18.6-4.64m-1.01,2.33l-14.96,3.73m17.21-4.29l-2.25,.56m0,0l-.32-1.3m0,0l2.24-.56m0,0l.33,1.3m-20.27,3.67l1.77-.44m0,0l.32,1.3m0,0l-1.76,.44m0,0l-.33-1.3m1.77-.44l15.93-3.97m.32,1.3l-15.93,3.97m15.77-4.62l-15.93,3.97" fill="none" stroke="#000" stroke-linecap="round" stroke-linejoin="round" stroke-width=".25"/><path d="M1131.73,150.22l.33,1.31m-.33-1.31l.33,1.31m-1.3-5.22l.97,3.91m.33,1.31l2.66,10.68m-55.37,1.07l.32,1.31m-.32-1.31l.32,1.31m-1.29-5.22l.97,3.91m.32,1.31l2.67,10.68m48.42-28.96l3.96,15.91" fill="none" stroke="#000" stroke-linecap="round" stroke-linejoin="round" stroke-width=".22"/><path d="M1069.07,178.58l-9.1,2.27-3.96-15.9,22.36-5.58,3.97,15.9-9.1,2.27-4.17,1.04Z" fill="#2d2d2c" fill-rule="evenodd"/><path d="M1130.75,146.3l19.39-4.83,3.96,15.9-19.39,4.83-3.96-15.9Z" fill="#2d2d2c"/><path d="M1274.59,164.15l2.48,10.73m-3.69-15.97l.91,3.93m0,0l.3,1.31m52.61-12.15l2.47,10.73m-3.68-15.96l.9,3.92m0,0l.31,1.31" fill="none" stroke="#000" stroke-linecap="round" stroke-linejoin="round" stroke-width=".22"/><path d="M1325.99,146.77l-52.61,12.14m56.29,3.82l-52.6,12.15m50.13-22.88l-3.01,.7m0,0l-.3-1.31m0,0l3-.7m-30.05,6.94l1.5-.34m0,0l.3,1.3m0,0l-1.5,.35m26.9-6.9l-25.55,5.9m25.7-5.24l-25.55,5.89m-.3-1.3l25.55-5.9m-26.75,7.55l-.75,.17m0,0l-.16-.65m0,0l-.75,.17m0,0l-.15-.65m0,0l1.51-.35m-22.55,5.21l2.36-.55m0,0l.15,.66m0,0l-.59,.13m0,0l.15,.66m0,0l-1.77,.41m2.06-1.86l18.68-4.31m-1.05,2.31l-15.03,3.47m17.29-3.99l-2.26,.52m0,0l-.3-1.31m0,0l2.25-.52m0,0l.31,1.31m-20.33,3.31l1.77-.41m0,0l.3,1.31m0,0l-1.77,.41m0,0l-.3-1.31m1.77-.41l16-3.69m.3,1.31l-16,3.69m15.85-4.34l-16,3.69" fill="none" stroke="#000" stroke-linecap="round" stroke-linejoin="round" stroke-width=".25"/><path d="M1326.89,150.69l.31,1.31m-.31-1.31l.31,1.31m-1.21-5.23l.9,3.92m.31,1.31l2.47,10.73m-55.38,.11l.3,1.31m-.3-1.31l.3,1.31m-1.21-5.24l.91,3.93m.3,1.31l2.48,10.73m48.92-28.11l3.68,15.96" fill="none" stroke="#000" stroke-linecap="round" stroke-linejoin="round" stroke-width=".22"/><path d="M1260.72,178.65l-11.21,2.59-3.69-15.97,27.56-6.36,3.69,15.97-11.21,2.59-5.14,1.18h0Z" fill="#2d2d2c" fill-rule="evenodd"/><path d="M1325.99,146.74l26.74-6.17,3.69,15.97-26.74,6.17-3.69-15.97Z" fill="#2d2d2c"/><path d="M157.4,204.07h11.01m-16.38,0h4.03m0,0h1.34m0-37.55h11.01m-16.38,0h4.03m0,0h1.34" fill="none" stroke="#000" stroke-linecap="round" stroke-linejoin="round" stroke-width=".22"/><path d="M152.03,166.52v37.55m16.38-37.55v37.55m-11.01-37.55v2.42m0,0h-1.34m0,0v-2.42m0,19.39v-1.21m0,0h1.34m0,0v1.21m-.67-16.97v15.76m.67-15.76v15.76m-1.34,0v-15.76m1.34,16.97v.61m0,0h-.67m0,0v.6m0,0h-.67m0,0v-1.21m0,18.16v-2.42m0,0h.67m0,0v.6m0,0h.67m0,0v1.82m-1.34-2.42v-14.53m2.01,1.21v12.11m0-13.92v1.81m0,0h-1.34m0,0v-1.81m0,0h1.34m-1.34,15.73v-1.81m0,0h1.34m0,0v1.81m0,0h-1.34m0-1.81v-12.11m1.34,0v12.11m-.67-12.11v12.11" fill="none" stroke="#000" stroke-linecap="round" stroke-linejoin="round" stroke-width=".25"/><path d="M156.06,166.52h1.34m-1.34,0h1.34m-5.37,0h4.03m1.34,0h11.01m-12.35,37.55h1.34m-1.34,0h1.34m-5.37,0h4.03m1.34,0h11.01m-16.38-37.55h16.38" fill="none" stroke="#000" stroke-linecap="round" stroke-linejoin="round" stroke-width=".22"/><path d="M168.41,222.11v12.37h-16.38v-30.41h16.38v18.04h0Z" fill="#2d2d2c" fill-rule="evenodd"/><path d="M152.03,140.59h16.39v25.93h-16.39v-25.93Z" fill="#2d2d2c"/><path d="M173.3,394.43l10.81-2.1m-16.08,3.13l3.95-.77m0,0l1.32-.26m-9.88-50.84l10.81-2.1m-16.09,3.12l3.96-.77m0,0l1.32-.25" fill="none" stroke="#000" stroke-linecap="round" stroke-linejoin="round" stroke-width=".22"/><path d="M158.14,344.61l9.89,50.85m6.2-53.97l9.88,50.84m-20.69-48.74l.46,2.37m0,0l-1.32,.26m0,0l-.46-2.38m4.62,23.77l-.23-1.19m0,0l1.32-.26m0,0l.23,1.19m-4.82-21.26l3.93,20.2m-3.27-20.33l3.93,20.2m-1.32,.26l-3.93-20.2m5.48,21.13l.11,.6m0,0l-.66,.12m0,0l.12,.6m0,0l-.66,.13m0,0l-.23-1.19m5.26,27.08l-.56-2.91m0,0l.66-.13m0,0l.14,.73m0,0l.66-.13m0,0l.42,2.18m-1.88-2.65l-4.47-22.98m3.34,6.62l2.82,14.52m-4.3-22.12l.35,1.78m0,0l-1.32,.26m0,0l-.35-1.79m0,0l1.32-.25m3.41,24.56l-.42-2.18m0,0l1.31-.26m0,0l.43,2.18m0,0l-1.32,.26m-.42-2.18l-3.96-20.34m1.32-.26l3.95,20.34m-4.64-20.21l3.98,20.34" fill="none" stroke="#000" stroke-linecap="round" stroke-linejoin="round" stroke-width=".25"/><path d="M162.1,343.84l1.32-.25m-1.32,.25l1.32-.25m-5.28,1.02l3.96-.77m1.32-.25l10.81-2.1m-2.25,53.2l1.32-.26m-1.32,.26l1.32-.26m-5.27,1.03l3.95-.77m1.32-.26l10.81-2.1m-25.97-47.72l16.09-3.12" fill="none" stroke="#000" stroke-linecap="round" stroke-linejoin="round" stroke-width=".22"/><path d="M184.44,394.02l.23,1.15-16.09,3.13-.55-2.84,16.08-3.13,.23,1.16,.1,.53Z" fill="#2d2d2c" fill-rule="evenodd"/><path d="M156.7,337.15l16.09-3.13,1.45,7.47-16.09,3.13-1.45-7.47Z" fill="#2d2d2c"/><path d="M173.32,505.11l10.9-1.54m-16.22,2.28l3.99-.56m0,0l1.33-.18m-8.61-60.88l10.91-1.53m-16.23,2.28l3.99-.56m0,0l1.33-.19" fill="none" stroke="#000" stroke-linecap="round" stroke-linejoin="round" stroke-width=".22"/><path d="M159.39,444.98l8.61,60.87m7.62-63.15l8.6,60.87m-19.51-59.34l.34,2.4m0,0l-1.33,.19m0,0l-.34-2.4m3.37,23.97l-.17-1.2m0,0l1.33-.18m0,0l.17,1.19m-3.7-21.48l2.87,20.38m-2.2-20.47l2.86,20.38m-1.33,.18l-2.86-20.37m4.36,21.38l.08,.6m0,0l-.66,.1m0,0l.08,.6m0,0l-.66,.09m0,0l-.17-1.2m5.24,36.9l-.41-2.93m0,0l.67-.09m0,0l.1,.73m0,0l.67-.09m0,0l.31,2.2m-1.75-2.75l-4.65-32.77m2.99,6.79l3.45,24.24m-4.53-31.91l.25,1.8m0,0l-1.33,.19m0,0l-.25-1.8m0,0l1.33-.19m3.51,34.29l-.31-2.2m0,0l1.33-.18m0,0l.31,2.2m0,0l-1.33,.18m-.31-2.2l-4.28-30.1m1.33-.19l4.28,30.11m-4.97-30.02l4.31,30.11" fill="none" stroke="#000" stroke-linecap="round" stroke-linejoin="round" stroke-width=".25"/><path d="M163.38,444.42l1.33-.19m-1.33,.19l1.33-.19m-5.32,.75l3.99-.56m1.33-.19l10.91-1.53m-3.63,62.59l1.33-.18m-1.33,.18l1.33-.18m-5.32,.74l3.99-.56m1.33-.18l10.9-1.54m-24.83-58.59l16.23-2.28" fill="none" stroke="#000" stroke-linecap="round" stroke-linejoin="round" stroke-width=".22"/><path d="M184.49,505.45l.18,1.28-16.23,2.28-.44-3.16,16.22-2.28,.18,1.29,.09,.59h0Z" fill="#2d2d2c" fill-rule="evenodd"/><path d="M156.69,425.79l16.23-2.28,2.7,19.19-16.23,2.28-2.7-19.19Z" fill="#2d2d2c"/><path d="M173.28,615.58l10.91-1.53m-16.23,2.28l3.99-.56m0,0l1.33-.19m-8.6-60.87l10.9-1.54m-16.22,2.29l3.99-.57m0,0l1.33-.18" fill="none" stroke="#000" stroke-linecap="round" stroke-linejoin="round" stroke-width=".22"/><path d="M159.36,555.46l8.6,60.87m7.63-63.16l8.6,60.88m-19.51-59.34l.33,2.4m0,0l-1.32,.18m0,0l-.34-2.4m3.37,23.98l-.17-1.2m0,0l1.33-.19m0,0l.17,1.2m-3.7-21.48l2.86,20.38m-2.2-20.47l2.87,20.37m-1.33,.19l-2.87-20.38m4.37,21.39l.08,.6m0,0l-.66,.09m0,0l.08,.6m0,0l-.66,.1m0,0l-.17-1.2m5.23,36.9l-.41-2.93m0,0l.67-.09m0,0l.1,.73m0,0l.67-.1m0,0l.3,2.2m-1.74-2.74l-4.65-32.77m2.98,6.78l3.46,24.24m-4.53-31.9l.25,1.79m0,0l-1.33,.19m0,0l-.25-1.8m0,0l1.33-.18m3.51,34.29l-.31-2.2m0,0l1.33-.19m0,0l.31,2.2m0,0l-1.33,.19m-.31-2.2l-4.28-30.11m1.33-.19l4.28,30.11m-4.97-30.01l4.31,30.11" fill="none" stroke="#000" stroke-linecap="round" stroke-linejoin="round" stroke-width=".25"/><path d="M163.35,554.89l1.33-.18m-1.33,.18l1.33-.18m-5.32,.75l3.99-.57m1.33-.18l10.9-1.54m-3.63,62.6l1.33-.19m-1.33,.19l1.33-.19m-5.32,.75l3.99-.56m1.33-.19l10.91-1.53m-24.83-58.59l16.23-2.29" fill="none" stroke="#000" stroke-linecap="round" stroke-linejoin="round" stroke-width=".22"/><path d="M184.47,616.03l.19,1.35-16.23,2.28-.47-3.33,16.23-2.28,.19,1.35,.09,.63h0Z" fill="#2d2d2c" fill-rule="evenodd"/><path d="M156.69,536.49l16.23-2.28,2.66,18.95-16.23,2.28-2.66-18.95Z" fill="#2d2d2c"/><path d="M173.25,708.9l10.85-1.92m-16.14,2.85l3.97-.7m0,0l1.32-.23m-9.14-51.57l10.85-1.92m-16.14,2.85l3.97-.7m0,0l1.32-.23" fill="none" stroke="#000" stroke-linecap="round" stroke-linejoin="round" stroke-width=".22"/><path d="M158.82,658.26l9.14,51.57m7-54.42l9.14,51.57m-19.99-49.65l.42,2.38m0,0l-1.32,.23m0,0l-.42-2.38m4.2,23.84l-.21-1.19m0,0l1.32-.24m0,0l.21,1.2m-4.44-21.34l3.57,20.26m-2.91-20.38l3.57,20.26m-1.32,.24l-3.57-20.27m5.1,21.23l.11,.59m0,0l-.66,.12m0,0l.1,.6m0,0l-.66,.11m0,0l-.21-1.19m4.94,27.73l-.44-2.48m0,0l.66-.12m0,0l.11,.62m0,0l.67-.12m0,0l.32,1.86m-1.76-2.25l-4.94-27.77m3.04,5.64l3.67,20.54m-4.18-23.41l.32,1.78m0,0l-1.33,.24m0,0l-.31-1.79m0,0l1.32-.23m3.18,25.5l-.32-1.86m0,0l1.32-.23m0,0l.33,1.86m0,0l-1.33,.23m-.32-1.86l-3.87-21.62m1.33-.24l3.86,21.63m-4.54-21.51l3.88,21.62" fill="none" stroke="#000" stroke-linecap="round" stroke-linejoin="round" stroke-width=".25"/><path d="M162.79,657.56l1.32-.23m-1.32,.23l1.32-.23m-5.29,.93l3.97-.7m1.32-.23l10.85-1.92m-3.03,53.72l1.32-.23m-1.32,.23l1.32-.23m-5.29,.93l3.97-.7m1.32-.23l10.85-1.92m-25.28-48.72l16.14-2.85" fill="none" stroke="#000" stroke-linecap="round" stroke-linejoin="round" stroke-width=".22"/><path d="M184.43,708.85l.22,1.27-16.13,2.85-.56-3.14,16.14-2.85,.23,1.28,.1,.59h0Z" fill="#2d2d2c" fill-rule="evenodd"/><path d="M156.69,646.2l16.14-2.85,2.13,12.05-16.14,2.85-2.13-12.05Z" fill="#2d2d2c"/><path d="M173.25,802.4l10.85-1.92m-16.14,2.85l3.97-.7m0,0l1.32-.23m-9.14-51.57l10.85-1.92m-16.14,2.85l3.97-.7m0,0l1.32-.23" fill="none" stroke="#000" stroke-linecap="round" stroke-linejoin="round" stroke-width=".22"/><path d="M158.82,751.76l9.14,51.57m7-54.42l9.14,51.57m-19.99-49.65l.42,2.38m0,0l-1.32,.23m0,0l-.42-2.38m4.2,23.84l-.21-1.19m0,0l1.32-.24m0,0l.21,1.2m-4.44-21.34l3.57,20.26m-2.91-20.38l3.57,20.26m-1.32,.24l-3.57-20.27m5.1,21.23l.11,.59m0,0l-.66,.12m0,0l.1,.6m0,0l-.66,.11m0,0l-.21-1.19m4.94,27.73l-.44-2.48m0,0l.66-.12m0,0l.11,.62m0,0l.67-.12m0,0l.32,1.86m-1.76-2.25l-4.94-27.77m3.04,5.64l3.67,20.54m-4.18-23.41l.32,1.78m0,0l-1.33,.24m0,0l-.31-1.79m0,0l1.32-.23m3.18,25.5l-.32-1.86m0,0l1.32-.23m0,0l.33,1.86m0,0l-1.33,.23m-.32-1.86l-3.87-21.62m1.33-.24l3.86,21.63m-4.54-21.51l3.88,21.62" fill="none" stroke="#000" stroke-linecap="round" stroke-linejoin="round" stroke-width=".25"/><path d="M162.79,751.06l1.32-.23m-1.32,.23l1.32-.23m-5.29,.93l3.97-.7m1.32-.23l10.85-1.92m-3.03,53.72l1.32-.23m-1.32,.23l1.32-.23m-5.29,.93l3.97-.7m1.32-.23l10.85-1.92m-25.28-48.72l16.14-2.85" fill="none" stroke="#000" stroke-linecap="round" stroke-linejoin="round" stroke-width=".22"/><path d="M184.43,802.34l.22,1.28-16.14,2.84-.55-3.13,16.14-2.85,.23,1.28,.1,.58h0Z" fill="#2d2d2c" fill-rule="evenodd"/><path d="M156.69,739.7l16.14-2.85,2.12,12.05-16.14,2.85-2.13-12.05Z" fill="#2d2d2c"/><path d="M187.08,914.85l-16.14,2.85-14.25-80.8,16.14-2.85,9.84,55.78,4.41,5.25v19.77Z" fill="#2d2d2c" fill-rule="evenodd"/><path d="M1391.3,267.63l-10.78-2.29m16.03,3.41l-3.94-.84m0,0l-1.31-.28m-8.81,41.44l-10.77-2.29m16.02,3.41l-3.94-.84m0,0l-1.31-.28" fill="none" stroke="#000" stroke-linecap="round" stroke-linejoin="round" stroke-width=".22"/><path d="M1387.74,310.19l8.81-41.44m-24.84,38.03l8.81-41.44m1.97,43.73l.5-2.36m0,0l1.32,.27m0,0l-.51,2.37m5.04-23.68l-.26,1.19m0,0l-1.31-.28m0,0l.25-1.19m-3.87,21.46l4.28-20.13m-4.94,19.99l4.28-20.13m1.31,.28l-4.27,20.12m3.21-21.59l.13-.59m0,0l.65,.14m0,0l.13-.59m0,0l.66,.14m0,0l-.25,1.18m3.77-17.76l-.5,2.37m0,0l-.66-.14m0,0l.13-.59m0,0l-.66-.14m0,0l.38-1.78m.81,2.65l-3.02,14.21m-1.72-1.6l2.51-11.84m-2.89,13.61l.38-1.77m0,0l1.31,.28m0,0l-.38,1.77m0,0l-1.31-.28m4.59-15.11l-.38,1.78m0,0l-1.31-.28m0,0l.38-1.78m0,0l1.32,.28m-.38,1.78l-2.52,11.84m-1.31-.28l2.51-11.84m-1.85,11.98l2.51-11.84" fill="none" stroke="#000" stroke-linecap="round" stroke-linejoin="round" stroke-width=".25"/><path d="M1383.8,309.35l-1.31-.28m1.31,.28l-1.31-.28m5.25,1.12l-3.94-.84m-1.31-.28l-10.77-2.29m20.89-38.87l-1.31-.28m1.31,.28l-1.31-.28m5.25,1.12l-3.94-.84m-1.31-.28l-10.78-2.29m7.22,44.85l-16.03-3.41" fill="none" stroke="#000" stroke-linecap="round" stroke-linejoin="round" stroke-width=".22"/><path d="M1385.07,243.97l3.11-14.65,16.03,3.4-7.66,36.03-16.03-3.41,3.12-14.65,1.43-6.72Z" fill="#2d2d2c" fill-rule="evenodd"/><path d="M1368.53,321.76l3.18-14.98,16.03,3.41-3.18,14.98-16.03-3.41Z" fill="#2d2d2c"/><path d="M1398.84,170.07h-11.02m16.39,0h-4.03m0,0h-1.34m0,37.55h-11.02m16.39,0h-4.03m0,0h-1.34" fill="none" stroke="#000" stroke-linecap="round" stroke-linejoin="round" stroke-width=".22"/><path d="M1404.21,207.62v-37.55m-16.39,37.55v-37.55m11.02,37.55v-2.42m0,0h1.34m0,0v2.42m0-19.39v1.21m0,0h-1.34m0,0v-1.21m.67,16.97v-15.76m-.67,15.76v-15.76m1.34,0v15.76m-1.34-16.97v-.61m0,0h.67m0,0v-.6m0,0h.67m0,0v1.21m0-18.16v2.42m0,0h-.67m0,0v-.6m0,0h-.67m0,0v-1.82m1.34,2.42v14.53m-2.01-1.21v-12.11m0,13.92v-1.81m0,0h1.34m0,0v1.81m0,0h-1.34m1.34-15.73v1.81m0,0h-1.34m0,0v-1.81m0,0h1.34m0,1.81v12.11m-1.34,0v-12.11m.67,12.11v-12.11" fill="none" stroke="#000" stroke-linecap="round" stroke-linejoin="round" stroke-width=".25"/><path d="M1400.18,207.62h-1.34m1.34,0h-1.34m5.37,0h-4.03m-1.34,0h-11.02m12.36-37.55h-1.34m1.34,0h-1.34m5.37,0h-4.03m-1.34,0h-11.02m16.39,37.55h-16.39" fill="none" stroke="#000" stroke-linecap="round" stroke-linejoin="round" stroke-width=".22"/><path d="M1387.82,158.22v-8.13h16.39v19.98h-16.39v-11.85h0Z" fill="#2d2d2c" fill-rule="evenodd"/><path d="M1387.82,207.62h16.39v25.1h-16.39v-25.1Z" fill="#2d2d2c"/><path d="M1391.91,352.98l-10.85-1.91m16.14,2.85l-3.97-.7m0,0l-1.32-.24m-9.47,53.66l-10.84-1.91m16.13,2.85l-3.96-.7m0,0l-1.33-.24" fill="none" stroke="#000" stroke-linecap="round" stroke-linejoin="round" stroke-width=".22"/><path d="M1387.73,407.58l9.47-53.66m-25.6,50.81l9.46-53.66m1.38,55.57l.45-2.51m0,0l1.32,.24m0,0l-.44,2.51m4.42-25.08l-.22,1.25m0,0l-1.33-.23m0,0l.23-1.26m-3.32,22.69l3.76-21.32m-4.42,21.2l3.75-21.31m1.33,.23l-3.76,21.32m2.66-22.81l.11-.62m0,0l.66,.11m0,0l.11-.63m0,.01l.66,.11m0,0l-.22,1.26m5.04-28.58l-.54,3.06m0,0l-.66-.11m0,0l.13-.77m0,0l-.66-.12m0,0l.41-2.3m.78,3.3l-4.28,24.26m-.68-7.74l2.7-15.33m-4.11,23.35l.33-1.88m0,0l1.32,.23m0,0l-.33,1.88m0,0l-1.32-.23m5.84-25.42l-.4,2.3m0,0l-1.33-.23m0,0l.41-2.3m0,0l1.32,.23m-.4,2.3l-3.79,21.47m-1.32-.23l3.78-21.47m-3.1,21.59l3.76-21.48" fill="none" stroke="#000" stroke-linecap="round" stroke-linejoin="round" stroke-width=".25"/><path d="M1383.77,406.88l-1.33-.24m1.33,.24l-1.33-.24m5.29,.94l-3.96-.7m-1.33-.24l-10.84-1.91m21.63-51.51l-1.32-.24m1.32,.24l-1.32-.24m5.29,.94l-3.97-.7m-1.32-.24l-10.85-1.91m6.67,56.51l-16.13-2.85" fill="none" stroke="#000" stroke-linecap="round" stroke-linejoin="round" stroke-width=".22"/><path d="M1382.93,340.44l1.29-7.28,16.13,2.85-3.15,17.91-16.14-2.85,1.28-7.28,.59-3.35Z" fill="#2d2d2c" fill-rule="evenodd"/><path d="M1371.09,407.58l.5-2.85,16.14,2.85-.5,2.85-16.14-2.85Z" fill="#2d2d2c"/><path d="M1392.6,453.9l-10.87-1.72m16.18,2.56l-3.98-.63m0,0l-1.33-.21m-9.56,60.73l-10.88-1.72m16.18,2.56l-3.98-.63m0,0l-1.32-.21" fill="none" stroke="#000" stroke-linecap="round" stroke-linejoin="round" stroke-width=".22"/><path d="M1388.34,515.47l9.57-60.73m-25.75,58.17l9.57-60.73m1.31,62.45l.38-2.39m0,0l1.32,.21m0,0l-.38,2.39m3.79-23.91l-.19,1.2m0,0l-1.33-.21m0,0l.19-1.2m-2.74,21.63l3.22-20.33m-3.88,20.22l3.21-20.32m1.33,.21l-3.22,20.32m2.08-21.73l.1-.59m0,0l.66,.1m0,0l.1-.6m0,0l.66,.11m0,0l-.19,1.19m5.78-36.82l-.46,2.93m0,0l-.66-.11m0,0l.12-.73m0,0l-.66-.1m0,0l.34-2.2m.87,3.14l-5.13,32.7m-.87-7.37l3.78-24.19m-4.99,31.84l.28-1.79m0,0l1.33,.21m0,0l-.29,1.79m0,0l-1.32-.21m6.66-33.82l-.35,2.19m0,0l-1.32-.21m0,0l.34-2.19m0,0l1.33,.21m-.35,2.19l-4.7,30.05m-1.33-.21l4.71-30.05m-4.02,30.16l4.68-30.05" fill="none" stroke="#000" stroke-linecap="round" stroke-linejoin="round" stroke-width=".25"/><path d="M1384.36,514.84l-1.32-.21m1.32,.21l-1.32-.21m5.3,.84l-3.98-.63m-1.32-.21l-10.88-1.72m21.77-58.8l-1.33-.21m1.33,.21l-1.33-.21m5.31,.84l-3.98-.63m-1.33-.21l-10.87-1.72m6.61,63.29l-16.18-2.56" fill="none" stroke="#000" stroke-linecap="round" stroke-linejoin="round" stroke-width=".22"/><path d="M1383.61,440.27l1.29-8.15,16.19,2.56-3.18,20.06-16.18-2.56,1.29-8.16,.59-3.75h0Z" fill="#2d2d2c" fill-rule="evenodd"/><path d="M1371.11,519.55l1.05-6.64,16.19,2.56-1.05,6.64-16.19-2.56Z" fill="#2d2d2c"/><path d="M1392.86,563.51l-10.88-1.72m16.18,2.56l-3.98-.63m0,0l-1.32-.21m-9.57,60.73l-10.88-1.72m16.18,2.56l-3.98-.63m0,0l-1.32-.21" fill="none" stroke="#000" stroke-linecap="round" stroke-linejoin="round" stroke-width=".22"/><path d="M1388.59,625.08l9.57-60.73m-25.75,58.17l9.57-60.73m1.31,62.45l.38-2.39m0,0l1.32,.21m0,0l-.38,2.39m3.79-23.91l-.19,1.2m0,0l-1.32-.21m0,0l.18-1.2m-2.74,21.62l3.22-20.32m-3.88,20.22l3.22-20.32m1.32,.21l-3.22,20.32m2.08-21.73l.1-.6m0,0l.66,.11m0,0l.1-.6m0,0l.66,.1m0,0l-.19,1.2m5.78-36.82l-.46,2.92m0,0l-.66-.1m0,0l.11-.73m0,0l-.66-.11m0,0l.35-2.19m.86,3.13l-5.13,32.7m-.87-7.36l3.78-24.19m-4.99,31.84l.28-1.8m0,0l1.33,.21m0,0l-.29,1.8m0,0l-1.32-.21m6.66-33.82l-.35,2.19m0,0l-1.32-.21m0,0l.35-2.19m0,0l1.32,.21m-.35,2.19l-4.7,30.04m-1.33-.21l4.71-30.04m-4.02,30.16l4.68-30.06" fill="none" stroke="#000" stroke-linecap="round" stroke-linejoin="round" stroke-width=".25"/><path d="M1384.61,624.45l-1.32-.21m1.32,.21l-1.32-.21m5.3,.84l-3.98-.63m-1.32-.21l-10.88-1.72m21.77-58.8l-1.32-.21m1.32,.21l-1.32-.21m5.3,.84l-3.98-.63m-1.32-.21l-10.88-1.72m6.61,63.29l-16.18-2.56" fill="none" stroke="#000" stroke-linecap="round" stroke-linejoin="round" stroke-width=".22"/><path d="M1383.71,550.83l1.19-7.5,16.19,2.56-2.93,18.46-16.18-2.56,1.19-7.51,.54-3.45h0Z" fill="#2d2d2c" fill-rule="evenodd"/><path d="M1371.08,630.87l1.32-8.36,16.19,2.56-1.32,8.36-16.19-2.56Z" fill="#2d2d2c"/><path d="M1392.09,669.96l-10.85-1.91m16.14,2.84l-3.97-.7m0,0l-1.32-.23m-9.05,51.59l-10.84-1.91m16.13,2.84l-3.97-.7m0,0l-1.32-.23" fill="none" stroke="#000" stroke-linecap="round" stroke-linejoin="round" stroke-width=".22"/><path d="M1388.33,722.48l9.05-51.59m-25.18,48.75l9.04-51.59m1.8,53.5l.42-2.38m0,0l1.32,.23m0,0l-.42,2.38m4.21-23.84l-.21,1.19m0,0l-1.32-.23m0,0l.21-1.19m-3.13,21.57l3.58-20.26m-4.24,20.15l3.58-20.27m1.32,.23l-3.58,20.27m2.47-21.69l.1-.6m0,0l.66,.12m0,0l.11-.6m0,0l.66,.12m0,0l-.21,1.19m4.84-27.75l-.44,2.49m0,0l-.66-.12m0,0l.11-.62m0,0l-.66-.12m0,0l.33-1.86m.88,2.72l-4.85,27.78m-.92-6.34l3.57-20.55m-4.08,23.43l.31-1.79m0,0l1.33,.23m0,0l-.32,1.79m0,0l-1.32-.23m5.73-25.06l-.33,1.86m0,0l-1.32-.23m0,0l.33-1.86m0,0l1.32,.23m-.33,1.86l-3.76,21.64m-1.33-.23l3.77-21.64m-3.09,21.76l3.75-21.64" fill="none" stroke="#000" stroke-linecap="round" stroke-linejoin="round" stroke-width=".25"/><path d="M1384.36,721.78l-1.32-.23m1.32,.23l-1.32-.23m5.29,.93l-3.97-.7m-1.32-.23l-10.84-1.91m21.21-49.45l-1.32-.23m1.32,.23l-1.32-.23m5.29,.93l-3.97-.7m-1.32-.23l-10.85-1.91m7.09,54.43l-16.14-2.84" fill="none" stroke="#000" stroke-linecap="round" stroke-linejoin="round" stroke-width=".22"/><path d="M1383.44,655.59l1.5-8.54,16.14,2.85-3.7,20.99-16.14-2.84,1.51-8.54,.69-3.92Z" fill="#2d2d2c" fill-rule="evenodd"/><path d="M1371.08,725.93l1.11-6.29,16.14,2.85-1.11,6.29-16.14-2.85Z" fill="#2d2d2c"/><path d="M1392.14,763.16l-10.85-1.91m16.14,2.85l-3.97-.7m0,0l-1.32-.24m-9.05,51.59l-10.84-1.91m16.13,2.85l-3.96-.7m0,0l-1.33-.24" fill="none" stroke="#000" stroke-linecap="round" stroke-linejoin="round" stroke-width=".22"/><path d="M1388.38,815.69l9.05-51.59m-25.18,48.74l9.04-51.59m1.8,53.5l.42-2.38m0,0l1.33,.23m0,0l-.42,2.39m4.2-23.84l-.21,1.19m0,0l-1.32-.24m0,0l.21-1.19m-3.12,21.58l3.57-20.27m-4.24,20.15l3.58-20.27m1.32,.24l-3.57,20.26m2.46-21.69l.1-.59m0,0l.66,.11m0,0l.11-.59m0,0l.66,.11m0,0l-.21,1.2m4.84-27.75l-.44,2.48m0,0l-.66-.12m0,0l.11-.62m0,0l-.66-.11m0,0l.33-1.87m.88,2.72l-4.84,27.78m-.93-6.34l3.57-20.55m-4.08,23.43l.32-1.79m0,0l1.32,.24m0,0l-.32,1.78m0,0l-1.32-.23m5.73-25.06l-.33,1.87m0,0l-1.32-.24m0,0l.33-1.86m0,0l1.32,.23m-.33,1.87l-3.76,21.64m-1.32-.24l3.76-21.64m-3.09,21.76l3.75-21.64" fill="none" stroke="#000" stroke-linecap="round" stroke-linejoin="round" stroke-width=".25"/><path d="M1384.42,814.99l-1.33-.24m1.33,.24l-1.33-.24m5.29,.94l-3.96-.7m-1.33-.24l-10.84-1.91m21.21-49.44l-1.32-.24m1.32,.24l-1.32-.24m5.29,.94l-3.97-.7m-1.32-.24l-10.85-1.91m7.09,54.44l-16.13-2.85" fill="none" stroke="#000" stroke-linecap="round" stroke-linejoin="round" stroke-width=".22"/><path d="M1383.46,748.97l1.48-8.42,16.14,2.85-3.65,20.7-16.14-2.85,1.49-8.42,.68-3.86h0Z" fill="#2d2d2c" fill-rule="evenodd"/><path d="M1371.09,819.35l1.15-6.52,16.14,2.85-1.15,6.52-16.14-2.85Z" fill="#2d2d2c"/><path d="M1379.12,870.56l5.82-33.02,16.14,2.84-14.48,81.41-17.4-3.04v-24.26l6.25-3.11,1-5.66,2.67-15.16h0Z" fill="#2d2d2c" fill-rule="evenodd"/><g><path d="M176.57,957.51v-1.34m58.8,1.34v-1.34" fill="none" stroke="#000" stroke-linecap="round" stroke-linejoin="round" stroke-width=".22"/><path d="M235.37,956.17h-3.17m0,0v1.34m0,0h3.17m-55.64-1.34h-3.16m0,0v1.34m0,0h3.16m-1.58,0h1.58m0,0v-1.34m52.47,.67h-52.47m52.47-.67h-52.47m0,1.34h52.47m-55.63,0h1.58m-1.58,0h0" fill="none" stroke="#000" stroke-linecap="round" stroke-linejoin="round" stroke-width=".25"/><path d="M235.37,957.51v-1.34m0,1.34v-1.34m-58.8,1.34v-1.34m0,1.34v-1.34" fill="none" stroke="#000" stroke-linecap="round" stroke-linejoin="round" stroke-width=".22"/></g><g><path d="M259.73,957.51v-1.34m43.89,1.34v-1.34" fill="none" stroke="#000" stroke-linecap="round" stroke-linejoin="round" stroke-width=".22"/><path d="M303.62,956.17h-3.17m0,0v1.34m0,0h3.17m-40.73-1.34h-3.16m0,0v1.34m0,0h3.16m-1.58,0h1.58m0,0v-1.34m37.56,.67h-37.56m37.56-.67h-37.56m0,1.34h37.56m-40.72,0h1.58m-1.58,0h0" fill="none" stroke="#000" stroke-linecap="round" stroke-linejoin="round" stroke-width=".25"/><path d="M303.62,957.51v-1.34m0,1.34v-1.34m-43.89,1.34v-1.34m0,1.34v-1.34" fill="none" stroke="#000" stroke-linecap="round" stroke-linejoin="round" stroke-width=".22"/></g><g><path d="M327.98,957.51v-1.34m43.88,1.34v-1.34" fill="none" stroke="#000" stroke-linecap="round" stroke-linejoin="round" stroke-width=".22"/><path d="M371.86,956.17h-3.16m0,0v1.34m0,0h3.16m-40.72-1.34h-3.16m0,0v1.34m0,0h3.16m-1.58,0h1.58m0,0v-1.34m37.56,.67h-37.56m37.56-.67h-37.56m0,1.34h37.56m-40.72,0h1.58m-1.58,0h0" fill="none" stroke="#000" stroke-linecap="round" stroke-linejoin="round" stroke-width=".25"/><path d="M371.86,957.51v-1.34m0,1.34v-1.34m-43.88,1.34v-1.34m0,1.34v-1.34" fill="none" stroke="#000" stroke-linecap="round" stroke-linejoin="round" stroke-width=".22"/></g><path d="M259.73,956.84h-24.36m24.36-.67h-24.36m0,1.34h24.36" fill="none" stroke="#000" stroke-linecap="round" stroke-linejoin="round" stroke-width=".25"/><path d="M327.98,956.84h-24.36m24.36-.67h-24.36m0,1.34h24.36" fill="none" stroke="#000" stroke-linecap="round" stroke-linejoin="round" stroke-width=".25"/><g><path d="M396.22,957.51v-1.34m23.27,1.34v-1.34" fill="none" stroke="#000" stroke-linecap="round" stroke-linejoin="round" stroke-width=".22"/><path d="M419.49,956.17h-3.17m0,0v1.34m0,0h3.17m-20.1-1.34h-3.17m0,0v1.34m0,0h3.17m-1.58,0h1.58m0,0v-1.34m16.93,.67h-16.93m16.93-.67h-16.93m0,1.34h16.93m-20.1,0h1.59m-1.59,0h0" fill="none" stroke="#000" stroke-linecap="round" stroke-linejoin="round" stroke-width=".25"/><path d="M419.49,957.51v-1.34m0,1.34v-1.34m-23.27,1.34v-1.34m0,1.34v-1.34" fill="none" stroke="#000" stroke-linecap="round" stroke-linejoin="round" stroke-width=".22"/></g><g><path d="M511.55,957.51v-1.34m44.73,1.34v-1.34" fill="none" stroke="#000" stroke-linecap="round" stroke-linejoin="round" stroke-width=".22"/><path d="M556.28,956.17h-3.16m0,0v1.34m0,0h3.16m-41.57-1.34h-3.16m0,0v1.34m0,0h3.16m-1.58,0h1.58m0,0v-1.34m38.41,.67h-38.41m38.41-.67h-38.41m0,1.34h38.41m-41.57,0h1.58m-1.58,0h0" fill="none" stroke="#000" stroke-linecap="round" stroke-linejoin="round" stroke-width=".25"/><path d="M556.28,957.51v-1.34m0,1.34v-1.34m-44.73,1.34v-1.34m0,1.34v-1.34" fill="none" stroke="#000" stroke-linecap="round" stroke-linejoin="round" stroke-width=".22"/></g><g><path d="M419.49,957.51v-1.34m67.7,1.34v-1.34" fill="none" stroke="#000" stroke-linecap="round" stroke-linejoin="round" stroke-width=".22"/><path d="M487.19,956.17h-3.17m0,0v1.34m0,0h3.17m-64.53-1.34h-3.17m0,0v1.34m0,0h3.17m-1.58,0h1.58m0,0v-1.34m61.36,.67h-61.36m61.36-.67h-61.36m0,1.34h61.36m-64.53,0h1.59m-1.59,0h0" fill="none" stroke="#000" stroke-linecap="round" stroke-linejoin="round" stroke-width=".25"/><path d="M487.19,957.51v-1.34m0,1.34v-1.34m-67.7,1.34v-1.34m0,1.34v-1.34" fill="none" stroke="#000" stroke-linecap="round" stroke-linejoin="round" stroke-width=".22"/></g><g><path d="M580.64,957.51v-1.34m22.48,1.34v-1.34" fill="none" stroke="#000" stroke-linecap="round" stroke-linejoin="round" stroke-width=".22"/><path d="M603.12,956.17h-3.17m0,0v1.34m0,0h3.17m-19.31-1.34h-3.17m0,0v1.34m0,0h3.17m-1.58,0h1.58m0,0v-1.34m16.14,.67h-16.14m16.14-.67h-16.14m0,1.34h16.14m-19.31,0h1.59m-1.59,0h0" fill="none" stroke="#000" stroke-linecap="round" stroke-linejoin="round" stroke-width=".25"/><path d="M603.12,957.51v-1.34m0,1.34v-1.34m-22.48,1.34v-1.34m0,1.34v-1.34" fill="none" stroke="#000" stroke-linecap="round" stroke-linejoin="round" stroke-width=".22"/></g><g><path d="M695.33,957.51v-1.34m44.22,1.34v-1.34" fill="none" stroke="#000" stroke-linecap="round" stroke-linejoin="round" stroke-width=".22"/><path d="M739.55,956.17h-3.17m0,0v1.34m0,0h3.17m-41.06-1.34h-3.16m0,0v1.34m0,0h3.16m-1.58,0h1.58m0,0v-1.34m37.89,.67h-37.89m37.89-.67h-37.89m0,1.34h37.89m-41.05,0h1.58m-1.58,0h0" fill="none" stroke="#000" stroke-linecap="round" stroke-linejoin="round" stroke-width=".25"/><path d="M739.55,957.51v-1.34m0,1.34v-1.34m-44.22,1.34v-1.34m0,1.34v-1.34" fill="none" stroke="#000" stroke-linecap="round" stroke-linejoin="round" stroke-width=".22"/></g><g><path d="M764.12,957.51v-1.34m21.79,1.34v-1.34" fill="none" stroke="#000" stroke-linecap="round" stroke-linejoin="round" stroke-width=".22"/><path d="M785.91,956.17h-3.17m0,0v1.34m0,0h3.17m-18.62-1.34h-3.17m0,0v1.34m0,0h3.17m-1.59,0h1.59m0,0v-1.34m15.45,.67h-15.45m15.45-.67h-15.45m0,1.34h15.45m-18.62,0h1.58m-1.58,0h0" fill="none" stroke="#000" stroke-linecap="round" stroke-linejoin="round" stroke-width=".25"/><path d="M785.91,957.51v-1.34m0,1.34v-1.34m-21.79,1.34v-1.34m0,1.34v-1.34" fill="none" stroke="#000" stroke-linecap="round" stroke-linejoin="round" stroke-width=".22"/></g><g><path d="M832.35,957.51v-1.34m41.77,1.34v-1.34" fill="none" stroke="#000" stroke-linecap="round" stroke-linejoin="round" stroke-width=".22"/><path d="M874.12,956.17h-3.17m0,0v1.34m0,0h3.17m-38.6-1.34h-3.17m0,0v1.34m0,0h3.17m-1.58,0h1.58m0,0v-1.34m35.43,.67h-35.43m35.43-.67h-35.43m0,1.34h35.43m-38.6,0h1.59m-1.59,0h0" fill="none" stroke="#000" stroke-linecap="round" stroke-linejoin="round" stroke-width=".25"/><path d="M874.12,957.51v-1.34m0,1.34v-1.34m-41.77,1.34v-1.34m0,1.34v-1.34" fill="none" stroke="#000" stroke-linecap="round" stroke-linejoin="round" stroke-width=".22"/></g><g><path d="M898.69,957.51v-1.34m87.16,1.34v-1.34" fill="none" stroke="#000" stroke-linecap="round" stroke-linejoin="round" stroke-width=".22"/><path d="M985.85,956.17h-3.17m0,0v1.34m0,0h3.17m-83.99-1.34h-3.17m0,0v1.34m0,0h3.17m-1.59,0h1.59m0,0v-1.34m80.82,.67h-80.82m80.82-.67h-80.82m0,1.34h80.82m-83.99,0h1.58m-1.58,0h0" fill="none" stroke="#000" stroke-linecap="round" stroke-linejoin="round" stroke-width=".25"/><path d="M985.85,957.51v-1.34m0,1.34v-1.34m-87.16,1.34v-1.34m0,1.34v-1.34" fill="none" stroke="#000" stroke-linecap="round" stroke-linejoin="round" stroke-width=".22"/></g><g><path d="M1010.43,957.51v-1.34m42.31,1.34v-1.34" fill="none" stroke="#000" stroke-linecap="round" stroke-linejoin="round" stroke-width=".22"/><path d="M1052.74,956.17h-3.17m0,0v1.34m0,0h3.17m-39.14-1.34h-3.17m0,0v1.34m0,0h3.17m-1.59,0h1.59m0,0v-1.34m35.97,.67h-35.97m35.97-.67h-35.97m0,1.34h35.97m-39.14,0h1.58m-1.58,0h0" fill="none" stroke="#000" stroke-linecap="round" stroke-linejoin="round" stroke-width=".25"/><path d="M1052.74,957.51v-1.34m0,1.34v-1.34m-42.31,1.34v-1.34m0,1.34v-1.34" fill="none" stroke="#000" stroke-linecap="round" stroke-linejoin="round" stroke-width=".22"/></g><g><path d="M1074.37,957.51v-1.34m67.59,1.34v-1.34" fill="none" stroke="#000" stroke-linecap="round" stroke-linejoin="round" stroke-width=".22"/><path d="M1141.96,956.17h-3.17m0,0v1.34m0,0h3.17m-64.42-1.34h-3.17m0,0v1.34m0,0h3.17m-1.59,0h1.58m0,0v-1.34m61.26,.67h-61.25m61.25-.67h-61.25m-.01,1.34h61.26m-64.42,0h1.58m-1.58,0h0" fill="none" stroke="#000" stroke-linecap="round" stroke-linejoin="round" stroke-width=".25"/><path d="M1141.96,957.51v-1.34m0,1.34v-1.34m-67.59,1.34v-1.34m0,1.34v-1.34" fill="none" stroke="#000" stroke-linecap="round" stroke-linejoin="round" stroke-width=".22"/></g><g><path d="M1162.13,957.51v-1.34m27.59,1.34v-1.34" fill="none" stroke="#000" stroke-linecap="round" stroke-linejoin="round" stroke-width=".22"/><path d="M1189.72,956.17h-3.17m0,0v1.34m0,0h3.17m-24.43-1.34h-3.17m.01,0v1.34m0,0h3.16m-1.58,0h1.58m0,0v-1.34m21.26,.67h-21.26m21.26-.67h-21.26m0,1.34h21.26m-24.42,0h1.58m-1.58,0h0" fill="none" stroke="#000" stroke-linecap="round" stroke-linejoin="round" stroke-width=".25"/><path d="M1189.72,957.51v-1.34m0,1.34v-1.34m-27.59,1.34v-1.34m0,1.34v-1.34" fill="none" stroke="#000" stroke-linecap="round" stroke-linejoin="round" stroke-width=".22"/></g><g><path d="M1230.81,957.51v-1.34m26.68,1.34v-1.34" fill="none" stroke="#000" stroke-linecap="round" stroke-linejoin="round" stroke-width=".22"/><path d="M1257.49,956.17h-3.17m0,0v1.34m0,0h3.17m-23.52-1.34h-3.16m0,0v1.34m0,0h3.16m-1.58,0h1.58m0,0v-1.34m20.35,.67h-20.35m20.35-.67h-20.35m0,1.34h20.35m-23.51,0h1.58m-1.58,0h0" fill="none" stroke="#000" stroke-linecap="round" stroke-linejoin="round" stroke-width=".25"/><path d="M1257.49,957.51v-1.34m0,1.34v-1.34m-26.68,1.34v-1.34m0,1.34v-1.34" fill="none" stroke="#000" stroke-linecap="round" stroke-linejoin="round" stroke-width=".22"/></g><g><path d="M1297.62,957.51v-1.34m24.81,1.34v-1.34" fill="none" stroke="#000" stroke-linecap="round" stroke-linejoin="round" stroke-width=".22"/><path d="M1322.43,956.17h-3.17m0,0v1.34m0,0h3.17m-21.64-1.34h-3.17m0,0v1.34m0,0h3.17m-1.59,0h1.58m0,0v-1.34m18.48,.67h-18.47m18.47-.67h-18.47m-.01,1.34h18.48m-21.64,0h1.58m-1.58,0h0" fill="none" stroke="#000" stroke-linecap="round" stroke-linejoin="round" stroke-width=".25"/><path d="M1322.43,957.51v-1.34m0,1.34v-1.34m-24.81,1.34v-1.34m0,1.34v-1.34" fill="none" stroke="#000" stroke-linecap="round" stroke-linejoin="round" stroke-width=".22"/></g><g><path d="M1381.17,957.51v-1.34" fill="none" stroke="#000" stroke-linecap="round" stroke-linejoin="round" stroke-width=".22"/><path d="M1381.17,956.17h-3.12m0,0v1.34m0,0h3.12m-3.12-.67h-55.62m55.62-.67h-55.62m0,1.34h55.62" fill="none" stroke="#000" stroke-linecap="round" stroke-linejoin="round" stroke-width=".25"/><path d="M1381.17,957.51v-1.34m0,1.34v-1.34" fill="none" stroke="#000" stroke-linecap="round" stroke-linejoin="round" stroke-width=".22"/></g><g><path d="M785.91,957.51v-1.34m21.79,1.34v-1.34" fill="none" stroke="#000" stroke-linecap="round" stroke-linejoin="round" stroke-width=".22"/><path d="M807.7,956.17h-3.17m0,0v1.34m0,0h3.17m-18.62-1.34h-3.17m0,0v1.34m0,0h3.17m-1.58,0h1.58m0,0v-1.34m15.45,.67h-15.45m15.45-.67h-15.45m0,1.34h15.45m-18.62,0h1.59m-1.59,0h0" fill="none" stroke="#000" stroke-linecap="round" stroke-linejoin="round" stroke-width=".25"/><path d="M807.7,957.51v-1.34m0,1.34v-1.34m-21.79,1.34v-1.34m0,1.34v-1.34" fill="none" stroke="#000" stroke-linecap="round" stroke-linejoin="round" stroke-width=".22"/></g><g><path d="M603.12,957.51v-1.34m68.49,1.34v-1.34" fill="none" stroke="#000" stroke-linecap="round" stroke-linejoin="round" stroke-width=".22"/><path d="M671.61,956.17h-3.17m0,0v1.34m0,0h3.17m-65.32-1.34h-3.17m0,0v1.34m0,0h3.17m-1.59,0h1.59m0,0v-1.34m62.15,.67h-62.15m62.15-.67h-62.15m0,1.34h62.15m-65.32,0h1.58m-1.58,0h0" fill="none" stroke="#000" stroke-linecap="round" stroke-linejoin="round" stroke-width=".25"/><path d="M671.61,957.51v-1.34m0,1.34v-1.34m-68.49,1.34v-1.34m0,1.34v-1.34" fill="none" stroke="#000" stroke-linecap="round" stroke-linejoin="round" stroke-width=".22"/></g><path d="M396.22,956.84h-24.36m24.36-.67h-24.36m0,1.34h24.36" fill="none" stroke="#000" stroke-linecap="round" stroke-linejoin="round" stroke-width=".25"/><path d="M511.55,956.84h-24.36m24.36-.67h-24.36m0,1.34h24.36" fill="none" stroke="#000" stroke-linecap="round" stroke-linejoin="round" stroke-width=".25"/><path d="M580.64,956.84h-24.36m24.36-.67h-24.36m0,1.34h24.36" fill="none" stroke="#000" stroke-linecap="round" stroke-linejoin="round" stroke-width=".25"/><path d="M695.33,956.84h-23.72m23.72-.67h-23.72m0,1.34h23.72" fill="none" stroke="#000" stroke-linecap="round" stroke-linejoin="round" stroke-width=".25"/><path d="M764.12,956.84h-24.57m24.57-.67h-24.57m0,1.34h24.57" fill="none" stroke="#000" stroke-linecap="round" stroke-linejoin="round" stroke-width=".25"/><path d="M832.35,956.84h-24.57m24.57-.67h-24.57m0,1.34h24.57" fill="none" stroke="#000" stroke-linecap="round" stroke-linejoin="round" stroke-width=".25"/><path d="M898.69,956.84h-24.57m24.57-.67h-24.57m0,1.34h24.57" fill="none" stroke="#000" stroke-linecap="round" stroke-linejoin="round" stroke-width=".25"/><path d="M1010.43,956.84h-24.57m24.57-.67h-24.57m0,1.34h24.57" fill="none" stroke="#000" stroke-linecap="round" stroke-linejoin="round" stroke-width=".25"/><path d="M1074.37,956.84h-21.47m21.47-.67h-21.47m0,1.34h21.47" fill="none" stroke="#000" stroke-linecap="round" stroke-linejoin="round" stroke-width=".25"/><path d="M1162.13,956.84h-20.13m20.13-.67h-20.13m0,1.34h20.12" fill="none" stroke="#000" stroke-linecap="round" stroke-linejoin="round" stroke-width=".25"/><path d="M1230.74,956.84h-41.02m41.02-.67h-41.02m0,1.34h41.02" fill="none" stroke="#000" stroke-linecap="round" stroke-linejoin="round" stroke-width=".25"/><path d="M1297.62,956.84h-40.13m40.13-.67h-40.13m0,1.34h40.13" fill="none" stroke="#000" stroke-linecap="round" stroke-linejoin="round" stroke-width=".25"/><g><path d="M171.13,917.5l1.33-.19m4.11,38.86l1.33-.19" fill="none" stroke="#000" stroke-linecap="round" stroke-linejoin="round" stroke-width=".22"/><path d="M177.9,955.98l-.22-1.5m0,0l-1.33,.18m0,0l.22,1.51m-3.78-36.55l-.33-2.31m0,0l-1.33,.19m0,0l.33,2.31m-.17-1.15l.17,1.15m0,0l1.33-.19m4.23,34.95l-4.9-34.85m5.56,34.76l-4.89-34.86m-1.33,.19l4.89,34.85m-5.22-37.16l.16,1.16m-.16-1.16h0" fill="none" stroke="#000" stroke-linecap="round" stroke-linejoin="round" stroke-width=".25"/><path d="M176.57,956.17l1.33-.19m-1.33,.19l1.33-.19m-6.77-38.48l1.33-.19m-1.33,.19l1.33-.19" fill="none" stroke="#000" stroke-linecap="round" stroke-linejoin="round" stroke-width=".22"/></g><g><path d="M1385.28,921.58l1.32,.21" fill="none" stroke="#000" stroke-linecap="round" stroke-linejoin="round" stroke-width=".22"/><path d="M1381.17,956.06l.24-1.5m0,0l-1.32-.21m0,0l-.28,1.71m6.47-32.24l.32-2.03m0,0l-1.32-.21m0,0l-.33,2.03m.17-1.02l-.17,1.02m0,0l1.33,.21m-5.53,30.63l4.87-30.73m-4.21,30.84l4.87-30.74m-1.33-.21l-4.86,30.74m5.19-32.77l-.16,1.02m.16-1.02h0" fill="none" stroke="#000" stroke-linecap="round" stroke-linejoin="round" stroke-width=".25"/><path d="M1385.28,921.58l1.32,.21m-1.32-.21l1.32,.21" fill="none" stroke="#000" stroke-linecap="round" stroke-linejoin="round" stroke-width=".22"/></g><g><path d="M270.41,895.83v-7.57m0,11.49v-4.03m0,0v-1.34m18.77,.11v-6.23m0,11.49v-4.03m0,0v-1.34" fill="none" stroke="#000" stroke-linecap="round" stroke-linejoin="round" stroke-width=".22"/><path d="M289.18,899.75h-18.77m18.77-11.49h-18.77m18.77,6.12h-2.72m0,0v1.34m0,0h2.72m-16.05-1.34h-2.72m0,0v1.34m0,0h2.72m-1.36,0h1.36m0,0v-1.34m13.33,.67h-13.33m13.33-.67h-13.33m0,1.34h13.33m-16.05,0h1.36m-1.36,0h0" fill="none" stroke="#000" stroke-linecap="round" stroke-linejoin="round" stroke-width=".25"/><path d="M289.18,895.72v-1.34m0,1.34v-1.34m0,5.37v-4.03m0-1.23v-6.23m-18.77,7.46v-1.34m0,1.34v-1.34m0,5.37v-4.03m0,.11v-7.57m18.77,11.49v-11.49" fill="none" stroke="#000" stroke-linecap="round" stroke-linejoin="round" stroke-width=".22"/></g><g><path d="M206.22,895.83v-7.57m0,11.49v-4.03m0,0v-1.34m21.87,.11v-6.23m0,11.49v-4.03m0,0v-1.34" fill="none" stroke="#000" stroke-linecap="round" stroke-linejoin="round" stroke-width=".22"/><path d="M228.09,899.75h-21.87m21.87-11.49h-21.87m21.87,6.12h-3.2m0,0v1.34m0,0h3.2m-18.68-1.34h-3.19m0,0v1.34m0,0h3.19m-1.6,0h1.6m0,0v-1.34m15.48,.67h-15.48m15.48-.67h-15.48m0,1.34h15.48m-18.67,0h1.59m-1.59,0h0" fill="none" stroke="#000" stroke-linecap="round" stroke-linejoin="round" stroke-width=".25"/><path d="M228.09,895.72v-1.34m0,1.34v-1.34m0,5.37v-4.03m0-1.23v-6.23m-21.87,7.46v-1.34m0,1.34v-1.34m0,5.37v-4.03m0,.11v-7.57m21.87,11.49v-11.49" fill="none" stroke="#000" stroke-linecap="round" stroke-linejoin="round" stroke-width=".22"/></g><path d="M241.78,889.12c.85,2.31,1.08,3.5,1.2,5.97" fill="none" stroke="#000" stroke-linecap="round" stroke-linejoin="round" stroke-width=".25"/><path d="M241.76,888.74l.28,.66-13.74,6.07h-.21v-.71l13.67-6.02h0Z" fill="#2d2d2c" fill-rule="evenodd"/><path d="M245.2,883.77c-1.56,4.26-1.99,6.45-2.22,10.99" fill="none" stroke="#000" stroke-linecap="round" stroke-linejoin="round" stroke-width=".25"/><path d="M245.24,883.08l-.52,1.22,25.3,11.17h.39v-1.32l-25.17-11.07h0Z" fill="#2d2d2c" fill-rule="evenodd"/><g><path d="M379.02,895.83v-7.57m0,11.49v-4.03m0,0v-1.34m25.86,.11v-6.23m0,11.49v-4.03m0,0v-1.34" fill="none" stroke="#000" stroke-linecap="round" stroke-linejoin="round" stroke-width=".22"/><path d="M404.88,899.75h-25.86m25.86-11.49h-25.86m25.86,6.12h-2.72m0,0v1.34m0,0h2.72m-23.14-1.34h-2.72m0,0v1.34m0,0h2.72m-1.36,0h1.36m0,0v-1.34m20.42,.67h-20.42m20.42-.67h-20.42m0,1.34h20.42m-23.14,0h1.36m-1.36,0h0" fill="none" stroke="#000" stroke-linecap="round" stroke-linejoin="round" stroke-width=".25"/><path d="M404.88,895.72v-1.34m0,1.34v-1.34m0,5.37v-4.03m0-1.23v-6.23m-25.86,7.46v-1.34m0,1.34v-1.34m0,5.37v-4.03m0,.11v-7.57m25.86,11.49v-11.49" fill="none" stroke="#000" stroke-linecap="round" stroke-linejoin="round" stroke-width=".22"/></g><g><path d="M318.49,895.83v-7.57m0,11.49v-4.03m0,0v-1.34m18.21,.11v-6.23m0,11.49v-4.03m0,0v-1.34" fill="none" stroke="#000" stroke-linecap="round" stroke-linejoin="round" stroke-width=".22"/><path d="M336.7,899.75h-18.21m18.21-11.49h-18.21m18.21,6.12h-3.19m0,0v1.34m0,0h3.19m-15.01-1.34h-3.2m0,0v1.34m0,0h3.2m-1.6,0h1.6m0,0v-1.34m11.82,.67h-11.82m11.82-.67h-11.82m0,1.34h11.82m-15.02,0h1.6m-1.6,0h0" fill="none" stroke="#000" stroke-linecap="round" stroke-linejoin="round" stroke-width=".25"/><path d="M336.7,895.72v-1.34m0,1.34v-1.34m0,5.37v-4.03m0-1.23v-6.23m-18.21,7.46v-1.34m0,1.34v-1.34m0,5.37v-4.03m0,.11v-7.57m18.21,11.49v-11.49" fill="none" stroke="#000" stroke-linecap="round" stroke-linejoin="round" stroke-width=".22"/></g><path d="M350.39,889.12c.85,2.31,1.08,3.5,1.2,5.97" fill="none" stroke="#000" stroke-linecap="round" stroke-linejoin="round" stroke-width=".25"/><path d="M350.37,888.74l.28,.66-13.73,6.07h-.22v-.71l13.67-6.02h0Z" fill="#2d2d2c" fill-rule="evenodd"/><path d="M353.82,883.77c-1.56,4.26-1.99,6.45-2.22,10.99" fill="none" stroke="#000" stroke-linecap="round" stroke-linejoin="round" stroke-width=".25"/><path d="M353.85,883.08l-.52,1.22,25.3,11.17h.39v-1.32l-25.17-11.07h0Z" fill="#2d2d2c" fill-rule="evenodd"/><g><path d="M484.24,895.83v-7.57m0,11.49v-4.03m0,0v-1.34m14.29,.11v-6.23m0,11.49v-4.03m0,0v-1.34" fill="none" stroke="#000" stroke-linecap="round" stroke-linejoin="round" stroke-width=".22"/><path d="M498.53,899.75h-14.29m14.29-11.49h-14.29m14.29,6.12h-2.72m0,0v1.34m0,0h2.72m-11.57-1.34h-2.72m0,0v1.34m0,0h2.72m-1.36,0h1.36m0,0v-1.34m8.85,.67h-8.85m8.85-.67h-8.85m0,1.34h8.85m-11.57,0h1.36m-1.36,0h0" fill="none" stroke="#000" stroke-linecap="round" stroke-linejoin="round" stroke-width=".25"/><path d="M498.53,895.72v-1.34m0,1.34v-1.34m0,5.37v-4.03m0-1.23v-6.23m-14.29,7.46v-1.34m0,1.34v-1.34m0,5.37v-4.03m0,.11v-7.57m14.29,11.49v-11.49" fill="none" stroke="#000" stroke-linecap="round" stroke-linejoin="round" stroke-width=".22"/></g><g><path d="M427.83,895.83v-7.57m0,11.49v-4.03m0,0v-1.34m14.09,.11v-6.23m0,11.49v-4.03m0,0v-1.34" fill="none" stroke="#000" stroke-linecap="round" stroke-linejoin="round" stroke-width=".22"/><path d="M441.92,899.75h-14.09m14.09-11.49h-14.09m14.09,6.12h-3.19m0,0v1.34m0,0h3.19m-10.9-1.34h-3.19m0,0v1.34m0,0h3.19m-1.59,0h1.59m0,0v-1.34m7.71,.67h-7.71m7.71-.67h-7.71m0,1.34h7.71m-10.9,0h1.6m-1.6,0h0" fill="none" stroke="#000" stroke-linecap="round" stroke-linejoin="round" stroke-width=".25"/><path d="M441.92,895.72v-1.34m0,1.34v-1.34m0,5.37v-4.03m0-1.23v-6.23m-14.09,7.46v-1.34m0,1.34v-1.34m0,5.37v-4.03m0,.11v-7.57m14.09,11.49v-11.49" fill="none" stroke="#000" stroke-linecap="round" stroke-linejoin="round" stroke-width=".22"/></g><path d="M455.61,889.12c.85,2.31,1.08,3.5,1.2,5.97" fill="none" stroke="#000" stroke-linecap="round" stroke-linejoin="round" stroke-width=".25"/><path d="M455.59,888.74l.28,.66-13.74,6.07h-.21v-.71l13.67-6.02h0Z" fill="#2d2d2c" fill-rule="evenodd"/><path d="M459.03,883.77c-1.56,4.26-1.99,6.45-2.22,10.99" fill="none" stroke="#000" stroke-linecap="round" stroke-linejoin="round" stroke-width=".25"/><path d="M459.07,883.08l-.52,1.22,25.3,11.17h.39v-1.32l-25.17-11.07h0Z" fill="#2d2d2c" fill-rule="evenodd"/><g><path d="M577.28,895.83v-7.57m0,11.49v-4.03m0,0v-1.34m14.29,.11v-6.23m0,11.49v-4.03m0,0v-1.34" fill="none" stroke="#000" stroke-linecap="round" stroke-linejoin="round" stroke-width=".22"/><path d="M591.57,899.75h-14.29m14.29-11.49h-14.29m14.29,6.12h-2.72m0,0v1.34m0,0h2.72m-11.57-1.34h-2.72m0,0v1.34m0,0h2.72m-1.36,0h1.36m0,0v-1.34m8.85,.67h-8.85m8.85-.67h-8.85m0,1.34h8.85m-11.57,0h1.36m-1.36,0h0" fill="none" stroke="#000" stroke-linecap="round" stroke-linejoin="round" stroke-width=".25"/><path d="M591.57,895.72v-1.34m0,1.34v-1.34m0,5.37v-4.03m0-1.23v-6.23m-14.29,7.46v-1.34m0,1.34v-1.34m0,5.37v-4.03m0,.11v-7.57m14.29,11.49v-11.49" fill="none" stroke="#000" stroke-linecap="round" stroke-linejoin="round" stroke-width=".22"/></g><g><path d="M520.86,895.83v-7.57m0,11.49v-4.03m0,0v-1.34m14.1,.11v-6.23m0,11.49v-4.03m0,0v-1.34" fill="none" stroke="#000" stroke-linecap="round" stroke-linejoin="round" stroke-width=".22"/><path d="M534.96,899.75h-14.1m14.1-11.49h-14.1m14.1,6.12h-3.2m0,0v1.34m0,0h3.2m-10.9-1.34h-3.2m0,0v1.34m0,0h3.2m-1.6,0h1.6m0,0v-1.34m7.7,.67h-7.7m7.7-.67h-7.7m0,1.34h7.7m-10.9,0h1.6m-1.6,0h0" fill="none" stroke="#000" stroke-linecap="round" stroke-linejoin="round" stroke-width=".25"/><path d="M534.96,895.72v-1.34m0,1.34v-1.34m0,5.37v-4.03m0-1.23v-6.23m-14.1,7.46v-1.34m0,1.34v-1.34m0,5.37v-4.03m0,.11v-7.57m14.1,11.49v-11.49" fill="none" stroke="#000" stroke-linecap="round" stroke-linejoin="round" stroke-width=".22"/></g><path d="M548.65,889.12c.85,2.31,1.08,3.5,1.2,5.97" fill="none" stroke="#000" stroke-linecap="round" stroke-linejoin="round" stroke-width=".25"/><path d="M548.63,888.74l.28,.66-13.74,6.07h-.21v-.71l13.67-6.02h0Z" fill="#2d2d2c" fill-rule="evenodd"/><path d="M552.07,883.77c-1.56,4.26-1.99,6.45-2.22,10.99" fill="none" stroke="#000" stroke-linecap="round" stroke-linejoin="round" stroke-width=".25"/><path d="M552.1,883.08l-.51,1.22,25.3,11.17h.39v-1.32l-25.18-11.07h0Z" fill="#2d2d2c" fill-rule="evenodd"/><g><path d="M673.76,895.83v-7.57m0,11.49v-4.03m0,0v-1.34m18.07,.11v-6.23m0,11.49v-4.03m0,0v-1.34" fill="none" stroke="#000" stroke-linecap="round" stroke-linejoin="round" stroke-width=".22"/><path d="M691.83,899.75h-18.07m18.07-11.49h-18.07m18.07,6.12h-2.72m0,0v1.34m0,0h2.72m-15.35-1.34h-2.72m0,0v1.34m0,0h2.72m-1.36,0h1.36m0,0v-1.34m12.63,.67h-12.63m12.63-.67h-12.63m0,1.34h12.63m-15.35,0h1.36m-1.36,0h0" fill="none" stroke="#000" stroke-linecap="round" stroke-linejoin="round" stroke-width=".25"/><path d="M691.83,895.72v-1.34m0,1.34v-1.34m0,5.37v-4.03m0-1.23v-6.23m-18.07,7.46v-1.34m0,1.34v-1.34m0,5.37v-4.03m0,.11v-7.57m18.07,11.49v-11.49" fill="none" stroke="#000" stroke-linecap="round" stroke-linejoin="round" stroke-width=".22"/></g><g><path d="M614.15,895.83v-7.57m0,11.49v-4.03m0,0v-1.34m17.29,.11v-6.23m0,11.49v-4.03m0,0v-1.34" fill="none" stroke="#000" stroke-linecap="round" stroke-linejoin="round" stroke-width=".22"/><path d="M631.44,899.75h-17.29m17.29-11.49h-17.29m17.29,6.12h-3.19m0,0v1.34m0,0h3.19m-14.09-1.34h-3.2m0,0v1.34m0,0h3.2m-1.6,0h1.6m0,0v-1.34m10.9,.67h-10.9m10.9-.67h-10.9m0,1.34h10.9m-14.1,0h1.6m-1.6,0h0" fill="none" stroke="#000" stroke-linecap="round" stroke-linejoin="round" stroke-width=".25"/><path d="M631.44,895.72v-1.34m0,1.34v-1.34m0,5.37v-4.03m0-1.23v-6.23m-17.29,7.46v-1.34m0,1.34v-1.34m0,5.37v-4.03m0,.11v-7.57m17.29,11.49v-11.49" fill="none" stroke="#000" stroke-linecap="round" stroke-linejoin="round" stroke-width=".22"/></g><path d="M645.13,889.12c.85,2.31,1.08,3.5,1.2,5.97" fill="none" stroke="#000" stroke-linecap="round" stroke-linejoin="round" stroke-width=".25"/><path d="M645.11,888.74l.28,.66-13.74,6.07h-.21v-.71l13.67-6.02h0Z" fill="#2d2d2c" fill-rule="evenodd"/><path d="M648.55,883.77c-1.56,4.26-1.99,6.45-2.22,10.99" fill="none" stroke="#000" stroke-linecap="round" stroke-linejoin="round" stroke-width=".25"/><path d="M648.59,883.08l-.52,1.22,25.3,11.17h.39v-1.32l-25.17-11.07h0Z" fill="#2d2d2c" fill-rule="evenodd"/><g><path d="M770.08,895.83v-7.57m0,11.49v-4.03m0,0v-1.34m12.66,.11v-6.23m0,11.49v-4.03m0,0v-1.34" fill="none" stroke="#000" stroke-linecap="round" stroke-linejoin="round" stroke-width=".22"/><path d="M782.74,899.75h-12.66m12.66-11.49h-12.66m12.66,6.12h-2.72m0,0v1.34m0,0h2.72m-9.94-1.34h-2.72m0,0v1.34m0,0h2.72m-1.36,0h1.36m0,0v-1.34m7.22,.67h-7.22m7.22-.67h-7.22m0,1.34h7.22m-9.94,0h1.36m-1.36,0h0" fill="none" stroke="#000" stroke-linecap="round" stroke-linejoin="round" stroke-width=".25"/><path d="M782.74,895.72v-1.34m0,1.34v-1.34m0,5.37v-4.03m0-1.23v-6.23m-12.66,7.46v-1.34m0,1.34v-1.34m0,5.37v-4.03m0,.11v-7.57m12.66,11.49v-11.49" fill="none" stroke="#000" stroke-linecap="round" stroke-linejoin="round" stroke-width=".22"/></g><g><path d="M714.03,895.83v-7.57m0,11.49v-4.03m0,0v-1.34m13.73,.11v-6.23m0,11.49v-4.03m0,0v-1.34" fill="none" stroke="#000" stroke-linecap="round" stroke-linejoin="round" stroke-width=".22"/><path d="M727.76,899.75h-13.73m13.73-11.49h-13.73m13.73,6.12h-3.19m0,0v1.34m0,0h3.19m-10.54-1.34h-3.19m0,0v1.34m0,0h3.19m-1.6,0h1.6m0,0v-1.34m7.35,.67h-7.35m7.35-.67h-7.35m0,1.34h7.35m-10.54,0h1.59m-1.59,0h0" fill="none" stroke="#000" stroke-linecap="round" stroke-linejoin="round" stroke-width=".25"/><path d="M727.76,895.72v-1.34m0,1.34v-1.34m0,5.37v-4.03m0-1.23v-6.23m-13.73,7.46v-1.34m0,1.34v-1.34m0,5.37v-4.03m0,.11v-7.57m13.73,11.49v-11.49" fill="none" stroke="#000" stroke-linecap="round" stroke-linejoin="round" stroke-width=".22"/></g><path d="M741.45,889.12c.85,2.31,1.08,3.5,1.2,5.97" fill="none" stroke="#000" stroke-linecap="round" stroke-linejoin="round" stroke-width=".25"/><path d="M741.43,888.74l.28,.66-13.74,6.07h-.21v-.71l13.67-6.02h0Z" fill="#2d2d2c" fill-rule="evenodd"/><path d="M744.87,883.77c-1.56,4.26-1.99,6.45-2.22,10.99" fill="none" stroke="#000" stroke-linecap="round" stroke-linejoin="round" stroke-width=".25"/><path d="M744.91,883.08l-.52,1.22,25.3,11.17h.39v-1.32l-25.17-11.07h0Z" fill="#2d2d2c" fill-rule="evenodd"/><g><path d="M863.98,895.83v-7.57m0,11.49v-4.03m0,0v-1.34m15.38,.11v-6.23m0,11.49v-4.03m0,0v-1.34" fill="none" stroke="#000" stroke-linecap="round" stroke-linejoin="round" stroke-width=".22"/><path d="M879.36,899.75h-15.38m15.38-11.49h-15.38m15.38,6.12h-2.72m0,0v1.34m0,0h2.72m-12.66-1.34h-2.72m0,0v1.34m0,0h2.72m-1.36,0h1.36m0,0v-1.34m9.94,.67h-9.94m9.94-.67h-9.94m0,1.34h9.94m-12.66,0h1.36m-1.36,0h0" fill="none" stroke="#000" stroke-linecap="round" stroke-linejoin="round" stroke-width=".25"/><path d="M879.36,895.72v-1.34m0,1.34v-1.34m0,5.37v-4.03m0-1.23v-6.23m-15.38,7.46v-1.34m0,1.34v-1.34m0,5.37v-4.03m0,.11v-7.57m15.38,11.49v-11.49" fill="none" stroke="#000" stroke-linecap="round" stroke-linejoin="round" stroke-width=".22"/></g><g><path d="M806.23,895.83v-7.57m0,11.49v-4.03m0,0v-1.34m15.43,.11v-6.23m0,11.49v-4.03m0,0v-1.34" fill="none" stroke="#000" stroke-linecap="round" stroke-linejoin="round" stroke-width=".22"/><path d="M821.66,899.75h-15.43m15.43-11.49h-15.43m15.43,6.12h-3.19m0,0v1.34m0,0h3.19m-12.24-1.34h-3.19m0,0v1.34m0,0h3.19m-1.59,0h1.59m0,0v-1.34m9.05,.67h-9.05m9.05-.67h-9.05m0,1.34h9.05m-12.24,0h1.6m-1.6,0h0" fill="none" stroke="#000" stroke-linecap="round" stroke-linejoin="round" stroke-width=".25"/><path d="M821.66,895.72v-1.34m0,1.34v-1.34m0,5.37v-4.03m0-1.23v-6.23m-15.43,7.46v-1.34m0,1.34v-1.34m0,5.37v-4.03m0,.11v-7.57m15.43,11.49v-11.49" fill="none" stroke="#000" stroke-linecap="round" stroke-linejoin="round" stroke-width=".22"/></g><path d="M835.35,889.12c.85,2.31,1.08,3.5,1.2,5.97" fill="none" stroke="#000" stroke-linecap="round" stroke-linejoin="round" stroke-width=".25"/><path d="M835.33,888.74l.28,.66-13.73,6.07h-.22v-.71l13.67-6.02h0Z" fill="#2d2d2c" fill-rule="evenodd"/><path d="M838.78,883.77c-1.56,4.26-1.99,6.45-2.22,10.99" fill="none" stroke="#000" stroke-linecap="round" stroke-linejoin="round" stroke-width=".25"/><path d="M838.81,883.08l-.51,1.22,25.29,11.17h.39v-1.32l-25.17-11.07h0Z" fill="#2d2d2c" fill-rule="evenodd"/><g><path d="M959.76,895.83v-7.57m0,11.49v-4.03m0,0v-1.34m15.38,.11v-6.23m0,11.49v-4.03m0,0v-1.34" fill="none" stroke="#000" stroke-linecap="round" stroke-linejoin="round" stroke-width=".22"/><path d="M975.14,899.75h-15.38m15.38-11.49h-15.38m15.38,6.12h-2.72m0,0v1.34m0,0h2.72m-12.67-1.34h-2.72m.01,0v1.34m0,0h2.71m-1.36,0h1.36m0,0v-1.34m9.95,.67h-9.95m9.95-.67h-9.95m0,1.34h9.95m-12.66,0h1.36m-1.36,0h0" fill="none" stroke="#000" stroke-linecap="round" stroke-linejoin="round" stroke-width=".25"/><path d="M975.14,895.72v-1.34m0,1.34v-1.34m0,5.37v-4.03m0-1.23v-6.23m-15.38,7.46v-1.34m0,1.34v-1.34m0,5.37v-4.03m0,.11v-7.57m15.38,11.49v-11.49" fill="none" stroke="#000" stroke-linecap="round" stroke-linejoin="round" stroke-width=".22"/></g><g><path d="M902,895.83v-7.57m0,11.49v-4.03m0,0v-1.34m15.44,.11v-6.23m0,11.49v-4.03m0,0v-1.34" fill="none" stroke="#000" stroke-linecap="round" stroke-linejoin="round" stroke-width=".22"/><path d="M917.44,899.75h-15.44m15.44-11.49h-15.44m15.44,6.12h-3.2m0,0v1.34m0,0h3.2m-12.25-1.34h-3.19m0,0v1.34m0,0h3.19m-1.59,0h1.59m0,0v-1.34m9.05,.67h-9.05m9.05-.67h-9.05m0,1.34h9.05m-12.24,0h1.6m-1.6,0h0" fill="none" stroke="#000" stroke-linecap="round" stroke-linejoin="round" stroke-width=".25"/><path d="M917.44,895.72v-1.34m0,1.34v-1.34m0,5.37v-4.03m0-1.23v-6.23m-15.44,7.46v-1.34m0,1.34v-1.34m0,5.37v-4.03m0,.11v-7.57m15.44,11.49v-11.49" fill="none" stroke="#000" stroke-linecap="round" stroke-linejoin="round" stroke-width=".22"/></g><path d="M931.12,889.12c.85,2.31,1.08,3.5,1.2,5.97" fill="none" stroke="#000" stroke-linecap="round" stroke-linejoin="round" stroke-width=".25"/><path d="M931.11,888.74l.28,.66-13.74,6.07h-.21v-.71l13.67-6.02h0Z" fill="#2d2d2c" fill-rule="evenodd"/><path d="M934.55,883.77c-1.56,4.26-1.99,6.45-2.22,10.99" fill="none" stroke="#000" stroke-linecap="round" stroke-linejoin="round" stroke-width=".25"/><path d="M934.58,883.08l-.51,1.22,25.29,11.17h.39v-1.32s-25.17-11.07-25.17-11.07h0Z" fill="#2d2d2c" fill-rule="evenodd"/><g><path d="M1057.5,895.83v-7.57m0,11.49v-4.03m0,0v-1.34m15.38,.11v-6.23m0,11.49v-4.03m0,0v-1.34" fill="none" stroke="#000" stroke-linecap="round" stroke-linejoin="round" stroke-width=".22"/><path d="M1072.88,899.75h-15.38m15.38-11.49h-15.38m15.38,6.12h-2.72m0,0v1.34m0,0h2.72m-12.66-1.34h-2.72m0,0v1.34m0,0h2.72m-1.36,0h1.36m0,0v-1.34m9.94,.67h-9.94m9.94-.67h-9.94m0,1.34h9.94m-12.66,0h1.36m-1.36,0h0" fill="none" stroke="#000" stroke-linecap="round" stroke-linejoin="round" stroke-width=".25"/><path d="M1072.88,895.72v-1.34m0,1.34v-1.34m0,5.37v-4.03m0-1.23v-6.23m-15.38,7.46v-1.34m0,1.34v-1.34m0,5.37v-4.03m0,.11v-7.57m15.38,11.49v-11.49" fill="none" stroke="#000" stroke-linecap="round" stroke-linejoin="round" stroke-width=".22"/></g><g><path d="M997.34,895.83v-7.57m0,11.49v-4.03m0,0v-1.34m17.84,.11v-6.23m0,11.49v-4.03m0,0v-1.34" fill="none" stroke="#000" stroke-linecap="round" stroke-linejoin="round" stroke-width=".22"/><path d="M1015.18,899.75h-17.84m17.84-11.49h-17.84m17.84,6.12h-3.2m0,0v1.34m0,0h3.2m-14.64-1.34h-3.2m0,0v1.34m0,0h3.2m-1.6,0h1.6m0,0v-1.34m11.44,.67h-11.44m11.44-.67h-11.44m0,1.34h11.44m-14.64,0h1.6m-1.6,0h0" fill="none" stroke="#000" stroke-linecap="round" stroke-linejoin="round" stroke-width=".25"/><path d="M1015.18,895.72v-1.34m0,1.34v-1.34m0,5.37v-4.03m0-1.23v-6.23m-17.84,7.46v-1.34m0,1.34v-1.34m0,5.37v-4.03m0,.11v-7.57m17.84,11.49v-11.49" fill="none" stroke="#000" stroke-linecap="round" stroke-linejoin="round" stroke-width=".22"/></g><path d="M1028.87,889.12c.85,2.31,1.08,3.5,1.2,5.97" fill="none" stroke="#000" stroke-linecap="round" stroke-linejoin="round" stroke-width=".25"/><path d="M1028.85,888.74l.28,.66-13.74,6.07h-.21v-.71l13.67-6.02h0Z" fill="#2d2d2c" fill-rule="evenodd"/><path d="M1032.29,883.77c-1.56,4.26-1.99,6.45-2.22,10.99" fill="none" stroke="#000" stroke-linecap="round" stroke-linejoin="round" stroke-width=".25"/><path d="M1032.32,883.08l-.51,1.22,25.3,11.17h.39v-1.32l-25.18-11.07h0Z" fill="#2d2d2c" fill-rule="evenodd"/><g><path d="M1150.88,895.83v-7.57m0,11.49v-4.03m0,0v-1.34m13.68,.11v-6.23m0,11.49v-4.03m0,0v-1.34" fill="none" stroke="#000" stroke-linecap="round" stroke-linejoin="round" stroke-width=".22"/><path d="M1164.56,899.75h-13.68m13.68-11.49h-13.68m13.68,6.12h-2.72m0,0v1.34m0,0h2.72m-10.96-1.34h-2.72m0,0v1.34m0,0h2.72m-1.36,0h1.36m0,0v-1.34m8.24,.67h-8.24m8.24-.67h-8.24m0,1.34h8.24m-10.96,0h1.36m-1.36,0h0" fill="none" stroke="#000" stroke-linecap="round" stroke-linejoin="round" stroke-width=".25"/><path d="M1164.56,895.72v-1.34m0,1.34v-1.34m0,5.37v-4.03m0-1.23v-6.23m-13.68,7.46v-1.34m0,1.34v-1.34m0,5.37v-4.03m0,.11v-7.57m13.68,11.49v-11.49" fill="none" stroke="#000" stroke-linecap="round" stroke-linejoin="round" stroke-width=".22"/></g><g><path d="M1096.45,895.83v-7.57m0,11.49v-4.03m0,0v-1.34m12.11,.11v-6.23m0,11.49v-4.03m0,0v-1.34" fill="none" stroke="#000" stroke-linecap="round" stroke-linejoin="round" stroke-width=".22"/><path d="M1108.56,899.75h-12.11m12.11-11.49h-12.11m12.11,6.12h-3.19m0,0v1.34m0,0h3.19m-8.91-1.34h-3.2m0,0v1.34m0,0h3.2m-1.6,0h1.6m0,0v-1.34m5.72,.67h-5.72m5.72-.67h-5.72m0,1.34h5.72m-8.92,0h1.6m-1.6,0h0" fill="none" stroke="#000" stroke-linecap="round" stroke-linejoin="round" stroke-width=".25"/><path d="M1108.56,895.72v-1.34m0,1.34v-1.34m0,5.37v-4.03m0-1.23v-6.23m-12.11,7.46v-1.34m0,1.34v-1.34m0,5.37v-4.03m0,.11v-7.57m12.11,11.49v-11.49" fill="none" stroke="#000" stroke-linecap="round" stroke-linejoin="round" stroke-width=".22"/></g><path d="M1122.25,889.12c.85,2.31,1.08,3.5,1.2,5.97" fill="none" stroke="#000" stroke-linecap="round" stroke-linejoin="round" stroke-width=".25"/><path d="M1122.23,888.74l.28,.66-13.73,6.07h-.22v-.71l13.67-6.02h0Z" fill="#2d2d2c" fill-rule="evenodd"/><path d="M1125.68,883.77c-1.56,4.26-1.99,6.45-2.22,10.99" fill="none" stroke="#000" stroke-linecap="round" stroke-linejoin="round" stroke-width=".25"/><path d="M1125.71,883.08l-.52,1.22,25.3,11.17h.39v-1.32l-25.17-11.07h0Z" fill="#2d2d2c" fill-rule="evenodd"/><g><path d="M1242.56,895.83v-7.57m0,11.49v-4.03m0,0v-1.34m15.38,.11v-6.23m0,11.49v-4.03m0,0v-1.34" fill="none" stroke="#000" stroke-linecap="round" stroke-linejoin="round" stroke-width=".22"/><path d="M1257.94,899.75h-15.38m15.38-11.49h-15.38m15.38,6.12h-2.72m0,0v1.34m0,0h2.72m-12.66-1.34h-2.72m0,0v1.34m0,0h2.72m-1.36,0h1.36m0,0v-1.34m9.94,.67h-9.94m9.94-.67h-9.94m0,1.34h9.94m-12.66,0h1.36m-1.36,0h0" fill="none" stroke="#000" stroke-linecap="round" stroke-linejoin="round" stroke-width=".25"/><path d="M1257.94,895.72v-1.34m0,1.34v-1.34m0,5.37v-4.03m0-1.23v-6.23m-15.38,7.46v-1.34m0,1.34v-1.34m0,5.37v-4.03m0,.11v-7.57m15.38,11.49v-11.49" fill="none" stroke="#000" stroke-linecap="round" stroke-linejoin="round" stroke-width=".22"/></g><g><path d="M1187.33,895.83v-7.57m0,11.49v-4.03m0,0v-1.34m12.91,.11v-6.23m0,11.49v-4.03m0,0v-1.34" fill="none" stroke="#000" stroke-linecap="round" stroke-linejoin="round" stroke-width=".22"/><path d="M1200.24,899.75h-12.91m12.91-11.49h-12.91m12.91,6.12h-3.19m0,0v1.34m0,0h3.19m-9.71-1.34h-3.2m0,0v1.34m0,0h3.2m-1.6,0h1.6m0,0v-1.34m6.52,.67h-6.52m6.52-.67h-6.52m0,1.34h6.52m-9.72,0h1.6m-1.6,0h0" fill="none" stroke="#000" stroke-linecap="round" stroke-linejoin="round" stroke-width=".25"/><path d="M1200.24,895.72v-1.34m0,1.34v-1.34m0,5.37v-4.03m0-1.23v-6.23m-12.91,7.46v-1.34m0,1.34v-1.34m0,5.37v-4.03m0,.11v-7.57m12.91,11.49v-11.49" fill="none" stroke="#000" stroke-linecap="round" stroke-linejoin="round" stroke-width=".22"/></g><path d="M1213.93,889.12c.85,2.31,1.08,3.5,1.2,5.97" fill="none" stroke="#000" stroke-linecap="round" stroke-linejoin="round" stroke-width=".25"/><path d="M1213.91,888.74l.28,.66-13.73,6.07h-.22v-.71l13.67-6.02h0Z" fill="#2d2d2c" fill-rule="evenodd"/><path d="M1217.36,883.77c-1.56,4.26-1.99,6.45-2.22,10.99" fill="none" stroke="#000" stroke-linecap="round" stroke-linejoin="round" stroke-width=".25"/><path d="M1217.39,883.08l-.52,1.22,25.3,11.17h.39v-1.32l-25.17-11.07h0Z" fill="#2d2d2c" fill-rule="evenodd"/><g><path d="M1335.08,895.83v-7.57m0,11.49v-4.03m0,0v-1.34m14.53,.11v-6.23m0,11.49v-4.03m0,0v-1.34" fill="none" stroke="#000" stroke-linecap="round" stroke-linejoin="round" stroke-width=".22"/><path d="M1349.61,899.75h-14.53m14.53-11.49h-14.53m14.53,6.12h-2.72m0,0v1.34m0,0h2.72m-11.81-1.34h-2.72m0,0v1.34m0,0h2.72m-1.36,0h1.36m0,0v-1.34m9.09,.67h-9.09m9.09-.67h-9.09m0,1.34h9.09m-11.81,0h1.36m-1.36,0h0" fill="none" stroke="#000" stroke-linecap="round" stroke-linejoin="round" stroke-width=".25"/><path d="M1349.61,895.72v-1.34m0,1.34v-1.34m0,5.37v-4.03m0-1.23v-6.23m-14.53,7.46v-1.34m0,1.34v-1.34m0,5.37v-4.03m0,.11v-7.57m14.53,11.49v-11.49" fill="none" stroke="#000" stroke-linecap="round" stroke-linejoin="round" stroke-width=".22"/></g><g><path d="M1279.85,895.83v-7.57m0,11.49v-4.03m0,0v-1.34m12.91,.11v-6.23m0,11.49v-4.03m0,0v-1.34" fill="none" stroke="#000" stroke-linecap="round" stroke-linejoin="round" stroke-width=".22"/><path d="M1292.76,899.75h-12.91m12.91-11.49h-12.91m12.91,6.12h-3.19m0,0v1.34m0,0h3.19m-9.71-1.34h-3.2m0,0v1.34m0,0h3.2m-1.6,0h1.6m0,0v-1.34m6.52,.67h-6.52m6.52-.67h-6.52m0,1.34h6.52m-9.72,0h1.6m-1.6,0h0" fill="none" stroke="#000" stroke-linecap="round" stroke-linejoin="round" stroke-width=".25"/><path d="M1292.76,895.72v-1.34m0,1.34v-1.34m0,5.37v-4.03m0-1.23v-6.23m-12.91,7.46v-1.34m0,1.34v-1.34m0,5.37v-4.03m0,.11v-7.57m12.91,11.49v-11.49" fill="none" stroke="#000" stroke-linecap="round" stroke-linejoin="round" stroke-width=".22"/></g><path d="M1306.45,889.12c.85,2.31,1.08,3.5,1.2,5.97" fill="none" stroke="#000" stroke-linecap="round" stroke-linejoin="round" stroke-width=".25"/><path d="M1306.43,888.74l.28,.66-13.74,6.07h-.21v-.71l13.67-6.02h0Z" fill="#2d2d2c" fill-rule="evenodd"/><path d="M1309.87,883.77c-1.56,4.26-1.99,6.45-2.22,10.99" fill="none" stroke="#000" stroke-linecap="round" stroke-linejoin="round" stroke-width=".25"/><path d="M1309.91,883.08l-.52,1.22,25.3,11.17h.39v-1.32l-25.17-11.07h0Zm-991.42,16.67v-11.47l-29.31-.02v11.49h29.31Zm-112.27,0v-11.47l-29.31-.02v11.49h29.31Zm221.61,0v-11.47l-22.95-.02v11.49h22.95Zm93.03,0v-11.47l-22.33-.02v11.49h22.33Zm93.17,0v-11.47l-22.34-.02v11.49h22.34Zm100,0v-11.47l-22.2-.02v11.49h22.2Zm92.2,0v-11.47l-23.49-.02v11.49h23.49Zm95.77,0v-11.47l-22.64-.02v11.49h22.64Zm95.34,0v-11.47l-22.2-.02v11.49h22.2Zm99.11,0v-11.47l-23.57-.02v11.49h23.57Zm90.88,0v-11.47l-22.77-.02v11.49h22.77Zm92.52,0v-11.47l-21.91-.02v11.49h21.91Zm102.49,0v-11.47l-32.73-.02v11.49h32.73Z" fill="#2d2d2c" fill-rule="evenodd"/><path d="M152.03,140.59h57.79v16.39h-57.79v-16.39Zm1200.69,0h51.49v16.39h-51.49v-16.39Zm31.25,179.29h16.39v16.13h-16.39v-16.13Zm.72,96.5h16.39v18.3h-16.39v-18.3Z" fill="#2d2d2c"/><path d="M1371.11,407.58h16.75v28.17h-16.75v-28.17Z" fill="#2d2d2c"/><path d="M1387.86,547.18h-16.75v-27.63l16.75-2.04v29.67Zm0,110.76h-16.75l-.02-27.07,16.77-3.31v30.38Zm0,93.98h-16.75l-.02-25.99,16.77-3.18v29.17Zm0,93.43h-16.75l-.02-26,16.77-3.17v29.17Z" fill="#2d2d2c" fill-rule="evenodd"/><path d="M1384.69,526.55h16.39v19.38h-16.39v-19.38Zm0,109.75h16.39v13.6h-16.39v-13.6Zm0,96.5h16.39v10.6h-16.39v-10.6Zm0,96.66h16.39v10.92h-16.39v-10.92Z" fill="#2d2d2c"/><path d="M167.96,836.9h16.69l.02-33.28-16.71-.29v33.57h0Zm0-93.5h16.69l.02-33.28-16.71-.29v33.57h0Zm0-95.13h16.69l.02-30.89-16.71-1.05v31.94h0Zm0-108.11h16.69l.02-33.43-16.67-.88-.04,34.31h0Zm0-113.32h16.69l.02-31.67-16.67,.26-.04,31.41h0Zm0-90.17h16.69l.02-33.65-16.67,.61-.04,33.04h0Z" fill="#2d2d2c" fill-rule="evenodd"/><path d="M156.69,819.53h16.39v17.37h-16.39v-17.37Zm0-93.17h16.39v13.35h-16.39v-13.35Zm0-93.38h16.39v13.23h-16.39v-13.23Zm0-110.34h16.39v13.85h-16.39v-13.85Zm0-112.15h16.39v15.3h-16.39v-15.3Zm0-92.67h16.39v19.32h-16.39v-19.32Zm1204.18-7.63h27.85v21.28h-27.85v-21.28ZM780.84,155.36h8.7v94.11h-8.7v-94.11Zm369.69,0h7.67v94.23h-7.67v-94.23Zm21.36,681.48h7.75v60.89h-7.75v-60.89Zm-380.69,0h6.57v57.16h-6.57v-57.16Zm-191.63,0h6.57v57.91h-6.57v-57.91Zm-188.28,0h6.57v52.19h-6.57v-52.19Zm884.37-289.66v-6.77h91.99v6.77h-91.99Zm-1117.9-7.02v-8.47h83.23v8.47h-83.23Zm232.8-134.23h8.47v242.35h-8.47v-242.35Zm676.6,68.58h6.08v183.62h-6.08v-183.62Zm-675.87,211.65h7.74v20.31h-7.74v-20.31Z" fill="#2d2d2c"/><path d="M417.41,698.51h98.74v7.96h-98.74v-7.96Zm129.62,0h96.29v7.96h-96.29v-7.96Zm127.13,0h292.7v7.96h-292.7v-7.96Zm323.14,0h147.53v7.96h-147.53v-7.96Zm92.9-157.53h49.37v6.19h-49.37v-6.19Zm-614.79-127.89v-6.33h131.35v6.33h-131.35Zm-64.85,0v-7.17h36.14v7.17h-36.14Zm542.93,.58v-6.33h143.54v6.33h-143.54Z" fill="#2d2d2c"/></g></svg>