<?xml version="1.0" encoding="UTF-8"?><svg id="_Слой_1" xmlns="http://www.w3.org/2000/svg" viewBox="0 0 1557.82 1179.99"><path id="Fon" d="M.5,.5H1557.32V1179.49H.5V.5Z" fill="#fff"/><polygon id="_423" points="501.83 332.23 418.03 331.23 416.53 177.53 387.93 175.33 335.33 163.23 310.13 151.43 286.33 157.13 232.33 157.13 168.73 151.63 171.43 166.63 171.43 204.23 168.23 233.13 177.43 258.83 187.03 300.13 169.93 327.33 177.23 341.63 187.13 392.43 187.23 426.83 346.13 426.83 348.93 474.53 421.13 475.13 421.53 413.23 504.93 413.23 501.83 332.23" fill="none" stroke="#000" stroke-miterlimit="10"/><polygon id="_424" points="785.73 175.43 760.23 175.83 707.83 162.73 688.43 151.73 675.63 162.33 623.23 175.43 574.63 175.83 522.23 162.73 508.33 150.33 491.73 162.33 439.43 175.43 418.03 179.33 419.73 329.73 504.53 331.33 505.53 413.13 684.53 413.23 684.53 402.83 789.23 403.33 789.23 188.03 785.73 175.43" fill="none" stroke="#000" stroke-miterlimit="10"/><polygon id="_425" points="1064.73 413.13 1064.73 154.73 1064.03 154.33 1046.13 162.33 993.73 175.43 969.03 178.03 943.93 175.83 891.53 162.73 873.33 153.03 861.13 162.33 808.83 175.43 789.23 175.03 789.23 191.63 789.23 403.33 901.73 403.33 902.03 413.83 1064.73 413.13" fill="none" stroke="#000" stroke-miterlimit="10"/><polygon id="_426" points="1383.53 265.53 1395.13 231.23 1390.83 207.73 1390.83 170.23 1393.83 155.73 1367.53 151.63 1330.53 157.13 1276.53 157.13 1253.33 153.73 1233.83 162.33 1181.43 175.43 1157.03 176.63 1129.73 175.83 1077.33 162.73 1065.93 158.03 1065.93 412.13 1136.53 412.13 1136.53 472.73 1273.63 472.73 1273.63 433.03 1325.83 433.03 1326.63 434.23 1362.43 433.03 1367.53 433.03 1367.53 432.83 1381.93 432.43 1374.63 404.83 1384.13 351.23 1391.23 332.43 1374.73 306.93 1383.53 265.53" fill="none" stroke="#000" stroke-miterlimit="10"/><path id="_427" d="M1395.23,542.53c-.1-.5-20-29.7-20-29.7l9.6-60.7,9.2-17.5h-122.6v43.5h-131.2v65.9h-46.9v96.1h46.9v12.6h235v-11.7l8.3,.3-8.1-18.8,9.6-60.7c0-.1,10.3-18.8,10.2-19.3h0Z" fill="none" stroke="#000" stroke-miterlimit="10"/><polygon id="_428" points="1397.93 973.03 1386.73 934.93 1376.23 904.43 1385.33 852.33 1391.63 840.43 1375.33 812.83 1384.33 761.33 1391.93 747.83 1375.23 719.63 1384.23 668.13 1391.93 654.23 1352.53 654.23 1139.23 654.23 1139.23 702.53 1086.43 702.53 1086.43 947.43 1080.33 947.43 1080.33 1007.63 1113.73 1007.63 1113.73 1007.63 1374.13 1007.63 1374.13 1007.53 1392.43 1007.63 1397.93 973.03" fill="none" stroke="#000" stroke-miterlimit="10"/><polygon id="_429" points="1086.03 698.63 797.03 698.63 797.03 942.23 789.83 942.23 789.83 1007.63 1078.63 1007.63 1078.63 950.63 1086.03 950.63 1086.03 698.63" fill="none" stroke="#000" stroke-miterlimit="10"/><polygon id="_430" points="796.83 698.63 606.63 698.63 606.63 930.43 606.63 950.53 606.63 1007.63 788.33 1007.63 788.33 950.53 796.83 950.53 796.83 698.63" fill="none" stroke="#000" stroke-miterlimit="10"/><polygon id="_431" points="603.33 921.63 603.33 698.63 418.23 698.63 418.23 950.53 422.53 950.53 422.53 1007.63 604.73 1007.63 604.73 921.63 603.33 921.63" fill="none" stroke="#000" stroke-miterlimit="10"/><polygon id="_432" points="420.33 950.43 420.33 898.13 420.33 699.03 422.03 699.03 422.03 660.53 420.33 660.53 420.33 647.03 259.03 647.03 257.13 645.73 173.13 645.73 177.93 655.53 187.13 707.13 170.43 735.83 177.93 749.03 187.13 800.63 169.73 831.73 178.33 848.33 187.43 899.73 165.83 972.73 170.73 1007.63 422.03 1007.63 422.03 950.83 420.33 950.43" fill="none" stroke="#000" stroke-miterlimit="10"/><path id="_433" d="M421.53,586.53v-111.3l-74.4,1.1v-51.2H209.33v1.7h-9.8l-27-3.3,6.1,19.3,8.6,60.9-14.9,32.7,6.2,16.9,8.6,60.9s-8.5,28.4-9.1,30.1c-.6,1.7,31.2,2.7,31.2,2.7h212.3v8.3h69.7v-68.8h-69.7Z" fill="none" stroke="#000" stroke-miterlimit="10"/><g id="Walls_Inside"><path d="M600.07,705.47h6.57v132.88h-6.57v-132.88Zm191.63,0h6.57v132.88h-6.57v-132.88Zm345.79,2.5v-7.96h36.32v7.96h-36.32Zm0-48.53v-8.34h255.52v8.34h-255.52Zm1.87-177.75v-8.34h133.63v8.34h-133.63Z" fill="#2d2d2c"/><path d="M1265.28,430.63h8.34v51.06h-8.34v-51.06Z" fill="#2d2d2c"/><path d="M1266.16,438.97v-8.34h120.02v8.34h-120.02Zm-768.92-110.12h7.61v82.18h-7.61v-82.18Zm-85.41-74.57h7.61v82.18h-7.61v-82.18Z" fill="#2d2d2c"/><path d="M411.83,336.47v-7.61h93.03v7.61h-93.03Zm369.51-49.62h8.7v112.33h-8.7v-112.33h0ZM184.72,430.92v-7.01h164.53v7.01H184.72Zm157.19,49.43v-7.01h75.21v7.01h-75.21Zm-157.19,169.42v-7.01h231.43v7.01H184.72Zm907.44-8.24v-7.03h12.22v7.03h-12.22Zm43.08,0v-7.03h9.37v7.03h-9.37Zm-76.65-487.19h7.8V411.34h-7.8V154.34h0Z" fill="#2d2d2c"/><path d="M343.65,429.87h5.61v50.15h-5.61v-50.15Zm731.34,521.14h2.83v58.04h-2.83v-58.04Zm-290,0h2.83v58.04h-2.83v-58.04Zm-183.05,0h2.83v58.04h-2.83v-58.04Zm-183.37,0h2.83v58.04h-2.83v-58.04Zm718.08-316.1h7.96v34.35h-7.96v-34.35Zm-56.28,70.56h7.29v237.13h-7.29v-237.13Zm-668.58,0h6.57v132.88h-6.57v-132.88Z" fill="#2d2d2c"/></g><g id="Walls_Outside"><path d="M173.73,303.93l10.73-2.48m-15.97,3.69l3.93-.91m0,0l1.31-.3m-9.53-41.28l10.73-2.48m-15.97,3.69l3.93-.91m0,0l1.31-.3" fill="none" stroke="#000" stroke-linecap="round" stroke-linejoin="round" stroke-width=".22"/><path d="M158.96,263.86l9.53,41.28m6.44-44.97l9.53,41.28m-20.26-38.8l.54,2.36m0,0l-1.31,.3m0,0l-.54-2.36m5.44,23.59l-.27-1.18m0,0l1.31-.3m0,0l.27,1.18m-5.55-21.08l4.63,20.05m-3.98-20.2l4.63,20.05m-1.31,.3l-4.63-20.05m6.21,20.93l.14,.59m0,0l-.65,.15m0,0l.13,.59m0,0l-.65,.15m0,0l-.28-1.18m4.09,17.69l-.55-2.36m0,0l.66-.15m0,0l.13,.59m0,0l.66-.15m0,0l.41,1.77m-1.86-2.06l-3.26-14.15m2.23,.73l2.73,11.79m-3.14-13.56l.41,1.77m0,0l-1.31,.3m0,0l-.4-1.77m0,0l1.3-.3m2.23,15.63l-.4-1.77m0,0l1.31-.3m0,0l.4,1.77m0,0l-1.3,.3m-.41-1.77l-2.73-11.79m1.31-.3l2.73,11.79m-3.38-11.64l2.72,11.79" fill="none" stroke="#000" stroke-linecap="round" stroke-linejoin="round" stroke-width=".25"/><path d="M162.89,262.95l1.31-.3m-1.31,.3l1.31-.3m-5.24,1.21l3.93-.91m1.31-.3l10.73-2.48m-2.51,44.06l1.31-.3m-1.31,.3l1.31-.3m-5.24,1.21l3.93-.91m1.31-.3l10.73-2.48m-25.5-37.59l15.97-3.69" fill="none" stroke="#000" stroke-linecap="round" stroke-linejoin="round" stroke-width=".22"/><path d="M184.88,303.27l.29,1.25-15.97,3.69-.71-3.07,15.97-3.69,.29,1.25,.13,.57h0Z" fill="#2d2d2c" fill-rule="evenodd"/><path d="M152.52,235.98l15.97-3.69,6.44,27.88-15.97,3.69-6.44-27.88h0Z" fill="#2d2d2c"/><path d="M335.28,153.86l-2.48,10.74m3.69-15.97l-.91,3.93m0,0l-.3,1.3m52.6,12.15l-2.48,10.73m3.69-15.97l-.91,3.93m0,0l-.3,1.31" fill="none" stroke="#000" stroke-linecap="round" stroke-linejoin="round" stroke-width=".22"/><path d="M389.09,160.77l-52.6-12.14m48.91,28.11l-52.6-12.14m55.08,1.41l-3-.69m0,0l.3-1.31m0,0l3,.69m-30.05-6.94l1.5,.35m0,0l-.3,1.31m0,0l-1.51-.35m27.21,5.59l-25.55-5.9m25.4,6.56l-25.55-5.9m.3-1.31l25.55,5.9m-27.36-4.94l-.75-.17m0,0l.15-.66m0,0l-.75-.17m0,0l.15-.66m0,0l1.51,.35m-22.55-5.2l2.36,.54m0,0l-.15,.65m0,0l-.59-.13m0,0l-.15,.65m0,0l-1.77-.41m2.66-.76l18.68,4.31m-1.95,1.62l-15.03-3.47m17.28,3.99l-2.25-.52m0,0l.3-1.31m0,0l2.25,.52m0,0l-.3,1.31m-19.72-5.93l1.77,.41m0,0l-.3,1.31m0,0l-1.77-.41m0,0l.3-1.31m1.77,.41l16,3.69m-.3,1.31l-16-3.69m16.15,3.04l-16-3.7" fill="none" stroke="#000" stroke-linecap="round" stroke-linejoin="round" stroke-width=".25"/><path d="M388.18,164.7l-.3,1.31m.3-1.31l-.3,1.31m1.21-5.24l-.91,3.93m-.3,1.31l-2.48,10.73m-49.82-24.18l-.3,1.3m.3-1.3l-.3,1.3m1.21-5.23l-.91,3.93m-.3,1.3l-2.48,10.74m56.29-3.83l-3.69,15.97" fill="none" stroke="#000" stroke-linecap="round" stroke-linejoin="round" stroke-width=".22"/><path d="M316.02,160.72l-11.51-2.65,3.69-15.97,28.29,6.53-3.69,15.97-11.5-2.66-5.28-1.22Z" fill="#2d2d2c" fill-rule="evenodd"/><path d="M385.4,176.74l3.69-15.97,32.63,7.53-3.69,15.97-32.63-7.53Z" fill="#2d2d2c"/><path d="M522.38,153.45l-2.67,10.69m3.97-15.9l-.98,3.91m0,0l-.32,1.3m52.38,13.06l-2.67,10.69m3.97-15.9l-.98,3.91m0,0l-.32,1.3" fill="none" stroke="#000" stroke-linecap="round" stroke-linejoin="round" stroke-width=".22"/><path d="M576.06,161.3l-52.38-13.06m48.41,28.96l-52.38-13.06m55.05,2.37l-2.99-.75m0,0l.32-1.3m0,0l2.99,.75m-29.93-7.47l1.5,.38m0,0l-.33,1.3m0,0l-1.49-.37m27.1,6.06l-25.45-6.34m25.29,6.99l-25.45-6.34m.33-1.3l25.44,6.34m-27.26-5.41l-.75-.19m0,0l.16-.65m0,0l-.75-.19m0,0l.16-.65m0,0l1.5,.37m-22.45-5.59l2.35,.58m0,0l-.16,.65m0,0l-.59-.14m0,0l-.16,.65m0,0l-1.76-.44m2.67-.72l18.6,4.64m-1.98,1.58l-14.97-3.73m17.21,4.29l-2.24-.56m0,0l.32-1.3m0,0l2.25,.56m0,0l-.33,1.3m-19.61-6.27l1.76,.44m0,0l-.32,1.3m0,0l-1.76-.44m0,0l.32-1.3m1.76,.44l15.93,3.97m-.32,1.3l-15.93-3.97m16.09,3.32l-15.93-3.97" fill="none" stroke="#000" stroke-linecap="round" stroke-linejoin="round" stroke-width=".25"/><path d="M575.08,165.21l-.32,1.3m.32-1.3l-.32,1.3m1.3-5.21l-.98,3.91m-.32,1.3l-2.67,10.69m-49.39-25.05l-.32,1.3m.32-1.3l-.32,1.3m1.3-5.21l-.98,3.91m-.32,1.3l-2.67,10.69m56.35-2.84l-3.97,15.9" fill="none" stroke="#000" stroke-linecap="round" stroke-linejoin="round" stroke-width=".22"/><path d="M507.84,161.18l-8.14-2.03,3.97-15.9,20.01,4.99-3.97,15.9-8.14-2.03-3.73-.93h0Z" fill="#2d2d2c" fill-rule="evenodd"/><path d="M572.09,177.2l3.97-15.9,26.21,6.53-3.97,15.9-26.21-6.53Z" fill="#2d2d2c"/><path d="M707.97,153.45l-2.66,10.69m3.96-15.9l-.97,3.91m0,0l-.33,1.3m52.39,13.06l-2.67,10.69m3.97-15.9l-.98,3.91m0,0l-.32,1.3" fill="none" stroke="#000" stroke-linecap="round" stroke-linejoin="round" stroke-width=".22"/><path d="M761.66,161.3l-52.39-13.06m48.42,28.96l-52.38-13.06m55.05,2.37l-3-.75m0,0l.33-1.3m0,0l2.99,.75m-29.93-7.47l1.5,.38m0,0l-.33,1.3m0,0l-1.5-.37m27.11,6.06l-25.45-6.34m25.28,6.99l-25.44-6.34m.33-1.3l25.44,6.34m-27.27-5.41l-.74-.19m0,0l.16-.65m0,0l-.75-.19m0,0l.16-.65m0,0l1.5,.37m-22.45-5.59l2.35,.58m0,0l-.16,.65m0,0l-.59-.14m0,0l-.16,.65m0,0l-1.77-.44m2.68-.72l18.6,4.64m-1.98,1.58l-14.97-3.73m17.21,4.29l-2.24-.56m0,0l.32-1.3m0,0l2.25,.56m0,0l-.33,1.3m-19.61-6.27l1.76,.44m0,0l-.32,1.3m0,0l-1.77-.44m0,0l.33-1.3m1.76,.44l15.93,3.97m-.32,1.3l-15.93-3.97m16.09,3.32l-15.93-3.97" fill="none" stroke="#000" stroke-linecap="round" stroke-linejoin="round" stroke-width=".25"/><path d="M760.68,165.21l-.32,1.3m.32-1.3l-.32,1.3m1.3-5.21l-.98,3.91m-.32,1.3l-2.67,10.69m-49.39-25.05l-.33,1.3m.33-1.3l-.33,1.3m1.3-5.21l-.97,3.91m-.33,1.3l-2.66,10.69m56.35-2.84l-3.97,15.9" fill="none" stroke="#000" stroke-linecap="round" stroke-linejoin="round" stroke-width=".22"/><path d="M692.92,161.05l-8.49-2.12,3.96-15.9,20.88,5.21-3.96,15.9-8.49-2.12-3.9-.97h0Z" fill="#2d2d2c" fill-rule="evenodd"/><path d="M757.67,177.19l3.97-15.9,26.21,6.53-3.97,15.9-26.21-6.53Z" fill="#2d2d2c"/><path d="M891.65,153.45l-2.66,10.69m3.96-15.9l-.97,3.91m0,0l-.33,1.3m52.38,13.06l-2.66,10.69m3.96-15.9l-.97,3.91m0,0l-.33,1.3" fill="none" stroke="#000" stroke-linecap="round" stroke-linejoin="round" stroke-width=".22"/><path d="M945.33,161.3l-52.38-13.06m48.42,28.96l-52.38-13.06m55.04,2.37l-2.99-.75m0,0l.33-1.3m0,0l2.99,.75m-29.93-7.47l1.49,.38m0,0l-.32,1.3m0,0l-1.5-.37m27.1,6.06l-25.44-6.34m25.28,6.99l-25.44-6.34m.32-1.3l25.44,6.34m-27.26-5.41l-.75-.19m0,0l.17-.65m0,0l-.75-.19m0,0l.16-.65m0,0l1.5,.37m-22.45-5.59l2.34,.58m0,0l-.16,.65m0,0l-.58-.14m0,0l-.17,.65m0,0l-1.76-.44m2.67-.72l18.61,4.64m-1.98,1.58l-14.97-3.73m17.21,4.29l-2.25-.56m.01,0l.32-1.3m0,0l2.25,.56m0,0l-.33,1.3m-19.61-6.27l1.76,.44m0,0l-.33,1.3m0,0l-1.76-.44m0,0l.33-1.3m1.76,.44l15.93,3.97m-.32,1.3l-15.94-3.97m16.1,3.32l-15.94-3.97" fill="none" stroke="#000" stroke-linecap="round" stroke-linejoin="round" stroke-width=".25"/><path d="M944.36,165.21l-.33,1.3m.33-1.3l-.33,1.3m1.3-5.21l-.97,3.91m-.33,1.3l-2.66,10.69m-49.39-25.05l-.33,1.3m.33-1.3l-.33,1.3m1.3-5.21l-.97,3.91m-.33,1.3l-2.66,10.69m56.34-2.84l-3.96,15.9" fill="none" stroke="#000" stroke-linecap="round" stroke-linejoin="round" stroke-width=".22"/><path d="M877.15,161.18l-8.12-2.02,3.97-15.9,19.95,4.98-3.96,15.9-8.12-2.03-3.72-.93Z" fill="#2d2d2c" fill-rule="evenodd"/><path d="M941.35,177.18l3.97-15.9,26.21,6.54-3.97,15.9-26.21-6.54Z" fill="#2d2d2c"/><path d="M1077.52,153.45l-2.67,10.69m3.97-15.9l-.98,3.91m0,0l-.32,1.3m52.38,13.06l-2.66,10.69m3.96-15.9l-.97,3.91m0,0l-.33,1.3" fill="none" stroke="#000" stroke-linecap="round" stroke-linejoin="round" stroke-width=".22"/><path d="M1131.2,161.3l-52.38-13.06m48.42,28.96l-52.39-13.06m55.05,2.37l-2.99-.75m0,0l.32-1.3m0,0l3,.75m-29.94-7.47l1.5,.38m0,0l-.33,1.3m0,0l-1.49-.37m27.1,6.06l-25.44-6.34m25.28,6.99l-25.45-6.34m.33-1.3l25.44,6.34m-27.26-5.41l-.75-.19m0,0l.16-.65m0,0l-.75-.19m0,0l.17-.65m0,0l1.49,.37m-22.45-5.59l2.35,.58m0,0l-.16,.65m0,0l-.59-.14m0,0l-.16,.65m0,0l-1.76-.44m2.67-.72l18.61,4.64m-1.99,1.58l-14.96-3.73m17.21,4.29l-2.25-.56m0,0l.33-1.3m0,0l2.24,.56m0,0l-.32,1.3m-19.62-6.27l1.76,.44m0,0l-.32,1.3m0,0l-1.76-.44m0,0l.32-1.3m1.76,.44l15.94,3.97m-.33,1.3l-15.93-3.97m16.09,3.32l-15.93-3.97" fill="none" stroke="#000" stroke-linecap="round" stroke-linejoin="round" stroke-width=".25"/><path d="M1130.23,165.21l-.33,1.3m.33-1.3l-.33,1.3m1.3-5.21l-.97,3.91m-.33,1.3l-2.66,10.69m-49.4-25.05l-.32,1.3m.32-1.3l-.32,1.3m1.3-5.21l-.98,3.91m-.32,1.3l-2.67,10.69m56.35-2.84l-3.96,15.9" fill="none" stroke="#000" stroke-linecap="round" stroke-linejoin="round" stroke-width=".22"/><path d="M1062.73,161.11l-8.31-2.07,3.97-15.9,20.43,5.1-3.97,15.9-8.31-2.07-3.81-.96h0Z" fill="#2d2d2c" fill-rule="evenodd"/><path d="M1127.21,177.19l3.96-15.9,26.21,6.54-3.96,15.9-26.21-6.53h0Z" fill="#2d2d2c"/><path d="M229.84,147.47v11.01m0-16.38v4.03m0,0v1.34m53.99,0v11.02m0-16.39v4.03m0,0v1.34" fill="none" stroke="#000" stroke-linecap="round" stroke-linejoin="round" stroke-width=".22"/><path d="M283.83,142.1h-53.99m53.98,16.39h-53.98m53.99-11.02h-3.09m0,0v-1.34m0,0h3.09m-30.85,0h1.54m0,0v1.34m0,0h-1.54m27.76-.67h-26.22m26.22,.67h-26.22m0-1.34h26.22m-27.76,1.34h-.78m0,0v-.67m0,0h-.77m0,0v-.67m0,0h1.55m-23.14,0h2.42m0,0v.67m0,0h-.61m0,0v.67m0,0h-1.81m2.42-1.34h19.17m-1.54,2.01h-15.42m17.73,0h-2.31m0,0v-1.34m0,0h2.31m0,0v1.34m-20.55-1.34h1.82m0,0v1.34m0,0h-1.82m0,0v-1.34m1.82,0h16.42m0,1.34h-16.42m16.42-.67h-16.42" fill="none" stroke="#000" stroke-linecap="round" stroke-linejoin="round" stroke-width=".25"/><path d="M283.83,146.13v1.34m0-1.34v1.34m0-5.37v4.03m0,1.34v11.02m-53.99-12.36v1.34m0-1.34v1.34m0-5.37v4.03m0,1.34v11.01m53.99-16.38v16.39" fill="none" stroke="#000" stroke-linecap="round" stroke-linejoin="round" stroke-width=".22"/><path d="M212.97,158.48h-11.56v-16.38h28.43v16.38h-16.87Z" fill="#2d2d2c" fill-rule="evenodd"/><path d="M283.82,142.1h24.38v16.39h-24.38v-16.39Z" fill="#2d2d2c"/><path d="M1274.02,147.47v11.01m0-16.38v4.03m0,0v1.34m53.99,0v11.02m0-16.39v4.03m0,0v1.34" fill="none" stroke="#000" stroke-linecap="round" stroke-linejoin="round" stroke-width=".22"/><path d="M1328.01,142.1h-53.99m53.99,16.39h-53.99m53.99-11.02h-3.08m0,0v-1.34m0,0h3.08m-30.85,0h1.54m0,0v1.34m0,0h-1.54m27.77-.67h-26.23m26.23,.67h-26.23m0-1.34h26.23m-27.77,1.34h-.77m0,0v-.67m0,0h-.77m0,0v-.67m0,0h1.54m-23.14,0h2.42m0,0v.67m0,0h-.6m0,0v.67m0,0h-1.82m2.42-1.34h19.18m-1.54,2.01h-15.43m17.74,0h-2.31m0,0v-1.34m0,0h2.31m0,0v1.34m-20.55-1.34h1.82m0,0v1.34m0,0h-1.82m0,0v-1.34m1.82,0h16.42m0,1.34h-16.42m16.42-.67h-16.42" fill="none" stroke="#000" stroke-linecap="round" stroke-linejoin="round" stroke-width=".25"/><path d="M1328.01,146.13v1.34m0-1.34v1.34m0-5.37v4.03m0,1.34v11.02m-53.99-12.36v1.34m0-1.34v1.34m0-5.37v4.03m0,1.34v11.01m53.99-16.38v16.39" fill="none" stroke="#000" stroke-linecap="round" stroke-linejoin="round" stroke-width=".22"/><path d="M1259.96,158.48h-9.63v-16.38h23.69v16.38h-14.06Z" fill="#2d2d2c" fill-rule="evenodd"/><path d="M1328.01,142.1h30.1v16.39h-30.1v-16.39Z" fill="#2d2d2c"/><path d="M434.2,166.1l2.67,10.69m-3.97-15.9l.98,3.91m0,0l.32,1.3m52.38-13.06l2.67,10.69m-3.97-15.9l.98,3.91m0,0l.32,1.3" fill="none" stroke="#000" stroke-linecap="round" stroke-linejoin="round" stroke-width=".22"/><path d="M485.28,147.83l-52.38,13.06m56.35,2.84l-52.38,13.06m49.71-23.75l-2.99,.75m0,0l-.32-1.3m0,0l2.99-.75m-29.93,7.46l1.49-.37m0,0l.33,1.3m0,0l-1.5,.38m26.78-7.37l-25.45,6.34m25.61-5.69l-25.44,6.34m-.33-1.3l25.45-6.34m-26.62,8.02l-.75,.18m0,0l-.16-.65m0,0l-.75,.19m0,0l-.16-.65m0,0l1.5-.38m-22.45,5.6l2.34-.58m0,0l.17,.65m0,0l-.59,.14m0,0l.16,.65m0,0l-1.76,.44m2.02-1.88l18.61-4.64m-1.01,2.32l-14.97,3.74m17.21-4.3l-2.24,.56m0,0l-.32-1.3m-.01,0l2.25-.56m0,0l.32,1.3m-20.26,3.67l1.76-.44m0,0l.33,1.31m0,0l-1.77,.44m0,0l-.33-1.31m1.76-.44l15.93-3.97m.33,1.3l-15.93,3.98m15.77-4.63l-15.94,3.98" fill="none" stroke="#000" stroke-linecap="round" stroke-linejoin="round" stroke-width=".25"/><path d="M486.26,151.74l.32,1.3m-.32-1.3l.32,1.3m-1.3-5.21l.98,3.91m.32,1.3l2.67,10.69m-55.37,1.07l.32,1.3m-.32-1.3l.32,1.3m-1.3-5.21l.98,3.91m.32,1.3l2.67,10.69m48.41-28.96l3.97,15.9" fill="none" stroke="#000" stroke-linecap="round" stroke-linejoin="round" stroke-width=".22"/><path d="M424.36,179.91l-8.57,2.14-3.96-15.91,21.07-5.25,3.96,15.9-8.57,2.14-3.93,.98h0Z" fill="#2d2d2c" fill-rule="evenodd"/><path d="M485.27,147.82l18.38-4.58,3.96,15.9-18.38,4.58-3.97-15.9h.01Z" fill="#2d2d2c"/><path d="M618.06,166.1l2.66,10.69m-3.96-15.9l.97,3.91m0,0l.33,1.3m52.38-13.06l2.67,10.69m-3.97-15.9l.98,3.91m0,0l.32,1.3" fill="none" stroke="#000" stroke-linecap="round" stroke-linejoin="round" stroke-width=".22"/><path d="M669.14,147.83l-52.38,13.06m56.35,2.84l-52.39,13.06m49.72-23.75l-2.99,.75m0,0l-.33-1.3m0,0l3-.75m-29.94,7.46l1.5-.37m0,0l.32,1.3m0,0l-1.49,.38m26.78-7.37l-25.45,6.34m25.61-5.69l-25.44,6.34m-.33-1.3l25.44-6.34m-26.61,8.02l-.75,.18m0,0l-.16-.65m0,0l-.75,.19m0,0l-.16-.65m0,0l1.49-.38m-22.45,5.6l2.35-.58m0,0l.16,.65m0,0l-.58,.14m0,0l.16,.65m0,0l-1.76,.44m2.02-1.88l18.61-4.64m-1.01,2.32l-14.97,3.74m17.21-4.3l-2.24,.56m0,0l-.33-1.3m0,0l2.25-.56m0,0l.32,1.3m-20.26,3.67l1.76-.44m0,0l.32,1.31m0,0l-1.76,.44m0,0l-.32-1.31m1.76-.44l15.93-3.97m.33,1.3l-15.94,3.98m15.78-4.63l-15.94,3.98" fill="none" stroke="#000" stroke-linecap="round" stroke-linejoin="round" stroke-width=".25"/><path d="M670.12,151.74l.32,1.3m-.32-1.3l.32,1.3m-1.3-5.21l.98,3.91m.32,1.3l2.67,10.69m-55.38,1.07l.33,1.3m-.33-1.3l.33,1.3m-1.3-5.21l.97,3.91m.33,1.3l2.66,10.69m48.42-28.96l3.97,15.9" fill="none" stroke="#000" stroke-linecap="round" stroke-linejoin="round" stroke-width=".22"/><path d="M607.39,180.11l-9.13,2.28-3.97-15.9,22.47-5.6,3.96,15.9-9.13,2.28-4.2,1.04h0Z" fill="#2d2d2c" fill-rule="evenodd"/><path d="M669.14,147.83l19.25-4.8,3.97,15.9-19.25,4.8-3.97-15.9Z" fill="#2d2d2c"/><path d="M803.59,166.1l2.67,10.69m-3.97-15.9l.98,3.91m0,0l.32,1.3m52.38-13.06l2.67,10.69m-3.97-15.9l.98,3.91m0,0l.32,1.3" fill="none" stroke="#000" stroke-linecap="round" stroke-linejoin="round" stroke-width=".22"/><path d="M854.67,147.83l-52.38,13.06m56.35,2.84l-52.38,13.06m49.71-23.75l-2.99,.75m0,0l-.32-1.3m0,0l2.99-.75m-29.93,7.46l1.49-.37m0,0l.33,1.3m0,0l-1.5,.38m26.78-7.37l-25.44,6.34m25.6-5.69l-25.44,6.34m-.33-1.3l25.45-6.34m-26.62,8.02l-.75,.18m0,0l-.16-.65m0,0l-.75,.19m0,0l-.16-.65m0,0l1.5-.38m-22.45,5.6l2.34-.58m0,0l.16,.65m0,0l-.59,.14m0,0l.16,.65m0,0l-1.76,.44m2.02-1.88l18.61-4.64m-1.01,2.32l-14.97,3.74m17.22-4.3l-2.25,.56m0,0l-.32-1.3m0,0l2.24-.56m0,0l.33,1.3m-20.27,3.67l1.76-.44m0,0l.33,1.31m0,0l-1.76,.44m0,0l-.33-1.31m1.76-.44l15.94-3.97m.32,1.3l-15.93,3.98m15.77-4.63l-15.94,3.98" fill="none" stroke="#000" stroke-linecap="round" stroke-linejoin="round" stroke-width=".25"/><path d="M855.65,151.74l.32,1.3m-.32-1.3l.32,1.3m-1.3-5.21l.98,3.91m.32,1.3l2.67,10.69m-55.37,1.07l.32,1.3m-.32-1.3l.32,1.3m-1.3-5.21l.98,3.91m.32,1.3l2.67,10.69m48.41-28.96l3.97,15.9" fill="none" stroke="#000" stroke-linecap="round" stroke-linejoin="round" stroke-width=".22"/><path d="M792.92,180.11l-9.13,2.28-3.97-15.9,22.47-5.6,3.97,15.9-9.14,2.28-4.2,1.04h0Z" fill="#2d2d2c" fill-rule="evenodd"/><path d="M854.67,147.82l18.32-4.57,3.96,15.9-18.32,4.57-3.96-15.9Z" fill="#2d2d2c"/><path d="M988.51,166.1l2.66,10.69m-3.96-15.9l.97,3.91m0,0l.33,1.3m52.38-13.06l2.66,10.69m-3.96-15.9l.97,3.91m0,0l.33,1.3" fill="none" stroke="#000" stroke-linecap="round" stroke-linejoin="round" stroke-width=".22"/><path d="M1039.59,147.83l-52.38,13.06m56.34,2.84l-52.38,13.06m49.72-23.75l-3,.75m0,0l-.32-1.3m0,0l2.99-.75m-29.93,7.46l1.5-.37m0,0l.32,1.3m0,0l-1.49,.38m26.77-7.37l-25.44,6.34m25.6-5.69l-25.44,6.34m-.32-1.3l25.44-6.34m-26.61,8.02l-.75,.18m0,0l-.17-.65m0,0l-.74,.19m0,0l-.17-.65m0,0l1.5-.38m-22.45,5.6l2.35-.58m0,0l.16,.65m0,0l-.58,.14m-.01,0l.17,.65m0,0l-1.76,.44m2.02-1.88l18.6-4.64m-1.01,2.32l-14.96,3.74m17.21-4.3l-2.25,.56m0,0l-.32-1.3m0,0l2.24-.56m0,0l.33,1.3m-20.27,3.67l1.77-.44m0,0l.32,1.31m0,0l-1.76,.44m0,0l-.33-1.31m1.77-.44l15.93-3.97m.32,1.3l-15.93,3.98m15.77-4.63l-15.93,3.98" fill="none" stroke="#000" stroke-linecap="round" stroke-linejoin="round" stroke-width=".25"/><path d="M1040.56,151.74l.33,1.3m-.33-1.3l.33,1.3m-1.3-5.21l.97,3.91m.33,1.3l2.66,10.69m-55.37,1.07l.33,1.3m-.33-1.3l.33,1.3m-1.3-5.21l.97,3.91m.33,1.3l2.66,10.69m48.42-28.96l3.96,15.9" fill="none" stroke="#000" stroke-linecap="round" stroke-linejoin="round" stroke-width=".22"/><path d="M977.84,180.11l-9.14,2.28-3.96-15.9,22.47-5.6,3.96,15.9-9.14,2.28-4.19,1.04h0Z" fill="#2d2d2c" fill-rule="evenodd"/><path d="M1039.59,147.82l18.81-4.69,3.96,15.9-18.81,4.69-3.96-15.9Z" fill="#2d2d2c"/><path d="M1176.26,166.1l2.66,10.69m-3.96-15.9l.97,3.91m0,0l.33,1.3m52.38-13.06l2.66,10.69m-3.96-15.9l.97,3.91m0,0l.33,1.3" fill="none" stroke="#000" stroke-linecap="round" stroke-linejoin="round" stroke-width=".22"/><path d="M1227.34,147.83l-52.38,13.06m56.34,2.84l-52.38,13.06m49.72-23.75l-3,.75m0,0l-.32-1.3m0,0l2.99-.75m-29.93,7.46l1.5-.37m0,0l.32,1.3m0,0l-1.49,.38m26.77-7.37l-25.44,6.34m25.6-5.69l-25.44,6.34m-.32-1.3l25.44-6.34m-26.61,8.02l-.75,.18m0,0l-.17-.65m0,0l-.74,.19m0,0l-.17-.65m0,0l1.5-.38m-22.45,5.6l2.35-.58m0,0l.16,.65m0,0l-.58,.14m-.01,0l.17,.65m0,0l-1.76,.44m2.02-1.88l18.6-4.64m-1.01,2.32l-14.96,3.74m17.21-4.3l-2.25,.56m0,0l-.32-1.3m0,0l2.24-.56m0,0l.33,1.3m-20.27,3.67l1.77-.44m0,0l.32,1.31m0,0l-1.76,.44m0,0l-.33-1.31m1.77-.44l15.93-3.97m.32,1.3l-15.93,3.98m15.77-4.63l-15.93,3.98" fill="none" stroke="#000" stroke-linecap="round" stroke-linejoin="round" stroke-width=".25"/><path d="M1228.31,151.74l.33,1.3m-.33-1.3l.33,1.3m-1.3-5.21l.97,3.91m.33,1.3l2.66,10.69m-55.37,1.07l.33,1.3m-.33-1.3l.33,1.3m-1.3-5.21l.97,3.91m.33,1.3l2.66,10.69m48.42-28.96l3.96,15.9" fill="none" stroke="#000" stroke-linecap="round" stroke-linejoin="round" stroke-width=".22"/><path d="M1163.57,180.62l-10.51,2.62-3.97-15.9,25.87-6.45,3.96,15.9-10.52,2.62-4.83,1.21Z" fill="#2d2d2c" fill-rule="evenodd"/><path d="M1227.33,147.81l22.99-5.73,3.96,15.9-22.99,5.73-3.97-15.9h.01Z" fill="#2d2d2c"/><path d="M157.9,205.57h11.01m-16.38,0h4.03m0,0h1.34m0-37.55h11.01m-16.38,0h4.03m0,0h1.34" fill="none" stroke="#000" stroke-linecap="round" stroke-linejoin="round" stroke-width=".22"/><path d="M152.53,168.02v37.55m16.38-37.55v37.55m-11.01-37.55v2.42m0,0h-1.34m0,0v-2.42m0,19.39v-1.21m0,0h1.34m0,0v1.21m-.67-16.97v15.76m.67-15.76v15.76m-1.34,0v-15.76m1.34,16.97v.61m0,0h-.67m0,0v.6m0,0h-.67m0,0v-1.21m0,18.16v-2.42m0,0h.67m0,0v.6m0,0h.67m0,0v1.82m-1.34-2.42v-14.53m2.01,1.21v12.11m0-13.92v1.81m0,0h-1.34m0,0v-1.81m0,0h1.34m-1.34,15.73v-1.81m0,0h1.34m0,0v1.81m0,0h-1.34m0-1.81v-12.11m1.34,0v12.11m-.67-12.11v12.11" fill="none" stroke="#000" stroke-linecap="round" stroke-linejoin="round" stroke-width=".25"/><path d="M156.56,168.02h1.34m-1.34,0h1.34m-5.37,0h4.03m1.34,0h11.01m-12.35,37.55h1.34m-1.34,0h1.34m-5.37,0h4.03m1.34,0h11.01m-16.38-37.55h16.38" fill="none" stroke="#000" stroke-linecap="round" stroke-linejoin="round" stroke-width=".22"/><path d="M168.91,223.61v12.37h-16.38v-30.41h16.38v18.04h0Z" fill="#2d2d2c" fill-rule="evenodd"/><path d="M152.53,142.1h16.39v25.93h-16.39v-25.93Z" fill="#2d2d2c"/><path d="M173.8,395.93l10.81-2.1m-16.08,3.13l3.95-.77m0,0l1.32-.26m-9.88-50.84l10.81-2.1m-16.09,3.13l3.96-.77m0,0l1.32-.26" fill="none" stroke="#000" stroke-linecap="round" stroke-linejoin="round" stroke-width=".22"/><path d="M158.64,346.12l9.89,50.84m6.2-53.97l9.88,50.84m-20.69-48.74l.46,2.38m0,0l-1.32,.25m0,0l-.46-2.37m4.62,23.76l-.23-1.19m0,0l1.32-.25m0,0l.23,1.18m-4.82-21.26l3.93,20.2m-3.27-20.32l3.93,20.2m-1.32,.25l-3.93-20.2m5.48,21.13l.11,.6m0,0l-.66,.13m0,0l.12,.59m0,0l-.66,.13m0,0l-.23-1.19m5.26,27.08l-.56-2.91m0,0l.66-.12m0,0l.14,.72m0,0l.66-.13m0,0l.42,2.18m-1.88-2.65l-4.47-22.98m3.34,6.62l2.82,14.53m-4.3-22.13l.35,1.78m0,0l-1.32,.26m0,0l-.35-1.78m0,0l1.32-.26m3.41,24.56l-.42-2.18m0,0l1.31-.25m0,0l.43,2.18m0,0l-1.32,.25m-.42-2.18l-3.96-20.34m1.32-.26l3.95,20.35m-4.64-20.22l3.98,20.34" fill="none" stroke="#000" stroke-linecap="round" stroke-linejoin="round" stroke-width=".25"/><path d="M162.6,345.35l1.32-.26m-1.32,.26l1.32-.26m-5.28,1.03l3.96-.77m1.32-.26l10.81-2.1m-2.25,53.2l1.32-.26m-1.32,.26l1.32-.26m-5.27,1.03l3.95-.77m1.32-.26l10.81-2.1m-25.97-47.71l16.09-3.13" fill="none" stroke="#000" stroke-linecap="round" stroke-linejoin="round" stroke-width=".22"/><path d="M184.94,395.52l.23,1.16-16.09,3.12-.55-2.84,16.08-3.13,.23,1.16,.1,.53Z" fill="#2d2d2c" fill-rule="evenodd"/><path d="M157.2,338.64l16.09-3.13,1.45,7.47-16.09,3.13-1.45-7.47Z" fill="#2d2d2c"/><path d="M173.82,506.61l10.9-1.53m-16.22,2.28l3.99-.56m0,0l1.33-.19m-8.61-60.88l10.91-1.53m-16.23,2.28l3.99-.56m0,0l1.33-.19" fill="none" stroke="#000" stroke-linecap="round" stroke-linejoin="round" stroke-width=".22"/><path d="M159.89,446.48l8.61,60.88m7.62-63.16l8.6,60.88m-19.51-59.35l.34,2.4m0,0l-1.33,.19m0,0l-.34-2.4m3.37,23.97l-.17-1.19m0,0l1.33-.19m0,0l.17,1.2m-3.7-21.48l2.87,20.37m-2.2-20.47l2.86,20.38m-1.33,.19l-2.86-20.38m4.36,21.39l.08,.6m0,0l-.66,.09m0,0l.08,.6m0,0l-.66,.09m0,0l-.17-1.2m5.24,36.91l-.41-2.93m0,0l.67-.1m0,0l.1,.73m0,0l.67-.09m0,0l.31,2.2m-1.75-2.74l-4.65-32.78m2.99,6.79l3.45,24.24m-4.53-31.91l.25,1.8m0,0l-1.33,.19m0,0l-.25-1.8m0,0l1.33-.19m3.51,34.29l-.31-2.19m0,0l1.33-.19m0,0l.31,2.2m0,0l-1.33,.18m-.31-2.19l-4.28-30.11m1.33-.19l4.28,30.11m-4.97-30.02l4.31,30.11" fill="none" stroke="#000" stroke-linecap="round" stroke-linejoin="round" stroke-width=".25"/><path d="M163.88,445.92l1.33-.19m-1.33,.19l1.33-.19m-5.32,.75l3.99-.56m1.33-.19l10.91-1.53m-3.63,62.6l1.33-.19m-1.33,.19l1.33-.19m-5.32,.75l3.99-.56m1.33-.19l10.9-1.53m-24.83-58.6l16.23-2.28" fill="none" stroke="#000" stroke-linecap="round" stroke-linejoin="round" stroke-width=".22"/><path d="M184.99,506.95l.18,1.28-16.23,2.29-.44-3.16,16.22-2.28,.18,1.28,.09,.59h0Z" fill="#2d2d2c" fill-rule="evenodd"/><path d="M157.19,427.29l16.23-2.28,2.7,19.19-16.23,2.28-2.7-19.19Z" fill="#2d2d2c"/><path d="M173.78,617.09l10.91-1.54m-16.23,2.28l3.99-.56m0,0l1.33-.18m-8.6-60.88l10.9-1.53m-16.22,2.28l3.99-.56m0,0l1.33-.19" fill="none" stroke="#000" stroke-linecap="round" stroke-linejoin="round" stroke-width=".22"/><path d="M159.86,556.96l8.6,60.87m7.63-63.15l8.6,60.87m-19.51-59.34l.33,2.4m0,0l-1.32,.18m0,0l-.34-2.39m3.37,23.97l-.17-1.2m0,0l1.33-.19m0,0l.17,1.2m-3.7-21.48l2.86,20.38m-2.2-20.47l2.87,20.37m-1.33,.19l-2.87-20.37m4.37,21.38l.08,.6m0,0l-.66,.1m0,0l.08,.6m0,0l-.66,.09m0,0l-.17-1.2m5.23,36.9l-.41-2.93m0,0l.67-.09m0,0l.1,.73m0,0l.67-.09m0,0l.3,2.2m-1.74-2.75l-4.65-32.77m2.98,6.79l3.46,24.24m-4.53-31.91l.25,1.8m0,0l-1.33,.18m0,0l-.25-1.79m0,0l1.33-.19m3.51,34.29l-.31-2.2m0,0l1.33-.18m0,0l.31,2.19m0,0l-1.33,.19m-.31-2.2l-4.28-30.11m1.33-.18l4.28,30.11m-4.97-30.02l4.31,30.11" fill="none" stroke="#000" stroke-linecap="round" stroke-linejoin="round" stroke-width=".25"/><path d="M163.85,556.4l1.33-.19m-1.33,.19l1.33-.19m-5.32,.75l3.99-.56m1.33-.19l10.9-1.53m-3.63,62.59l1.33-.18m-1.33,.18l1.33-.18m-5.32,.74l3.99-.56m1.33-.18l10.91-1.54m-24.83-58.59l16.23-2.28" fill="none" stroke="#000" stroke-linecap="round" stroke-linejoin="round" stroke-width=".22"/><path d="M184.97,617.53l.19,1.35-16.23,2.28-.47-3.33,16.23-2.28,.19,1.36,.09,.62h0Z" fill="#2d2d2c" fill-rule="evenodd"/><path d="M157.19,538.01l16.23-2.28,2.66,18.95-16.23,2.28-2.66-18.95Z" fill="#2d2d2c"/><path d="M173.75,710.4l10.85-1.91m-16.14,2.84l3.97-.7m0,0l1.32-.23m-9.14-51.57l10.85-1.91m-16.14,2.84l3.97-.7m0,0l1.32-.23" fill="none" stroke="#000" stroke-linecap="round" stroke-linejoin="round" stroke-width=".22"/><path d="M159.32,659.76l9.14,51.57m7-54.41l9.14,51.57m-19.99-49.66l.42,2.38m0,0l-1.32,.24m0,0l-.42-2.39m4.2,23.84l-.21-1.19m0,0l1.32-.23m0,0l.21,1.19m-4.44-21.34l3.57,20.26m-2.91-20.38l3.57,20.27m-1.32,.23l-3.57-20.26m5.1,21.22l.11,.6m0,0l-.66,.11m0,0l.1,.6m0,0l-.66,.11m0,0l-.21-1.19m4.94,27.73l-.44-2.48m0,0l.66-.12m0,0l.11,.62m0,0l.67-.11m0,0l.32,1.86m-1.76-2.25l-4.94-27.76m3.04,5.64l3.67,20.53m-4.18-23.41l.32,1.79m0,0l-1.33,.23m0,0l-.31-1.79m0,0l1.32-.23m3.18,25.5l-.32-1.86m0,0l1.32-.23m0,0l.33,1.86m0,0l-1.33,.23m-.32-1.86l-3.87-21.62m1.33-.23l3.86,21.62m-4.54-21.51l3.88,21.63" fill="none" stroke="#000" stroke-linecap="round" stroke-linejoin="round" stroke-width=".25"/><path d="M163.29,659.06l1.32-.23m-1.32,.23l1.32-.23m-5.29,.93l3.97-.7m1.32-.23l10.85-1.91m-3.03,53.71l1.32-.23m-1.32,.23l1.32-.23m-5.29,.93l3.97-.7m1.32-.23l10.85-1.91m-25.28-48.73l16.14-2.84" fill="none" stroke="#000" stroke-linecap="round" stroke-linejoin="round" stroke-width=".22"/><path d="M184.93,710.35l.22,1.27-16.13,2.85-.56-3.14,16.14-2.84,.23,1.27,.1,.59Z" fill="#2d2d2c" fill-rule="evenodd"/><path d="M157.19,647.7l16.14-2.85,2.13,12.05-16.14,2.85-2.13-12.05Z" fill="#2d2d2c"/><path d="M173.75,803.9l10.85-1.91m-16.14,2.84l3.97-.7m0,0l1.32-.23m-9.14-51.57l10.85-1.91m-16.14,2.84l3.97-.7m0,0l1.32-.23" fill="none" stroke="#000" stroke-linecap="round" stroke-linejoin="round" stroke-width=".22"/><path d="M159.32,753.26l9.14,51.57m7-54.41l9.14,51.57m-19.99-49.66l.42,2.38m0,0l-1.32,.24m0,0l-.42-2.39m4.2,23.84l-.21-1.19m0,0l1.32-.23m0,0l.21,1.19m-4.44-21.34l3.57,20.26m-2.91-20.38l3.57,20.27m-1.32,.23l-3.57-20.26m5.1,21.22l.11,.6m0,0l-.66,.11m0,0l.1,.6m0,0l-.66,.11m0,0l-.21-1.19m4.94,27.73l-.44-2.48m0,0l.66-.12m0,0l.11,.62m0,0l.67-.11m0,0l.32,1.86m-1.76-2.25l-4.94-27.76m3.04,5.64l3.67,20.53m-4.18-23.41l.32,1.79m0,0l-1.33,.23m0,0l-.31-1.79m0,0l1.32-.23m3.18,25.5l-.32-1.86m0,0l1.32-.23m0,0l.33,1.86m0,0l-1.33,.23m-.32-1.86l-3.87-21.62m1.33-.23l3.86,21.62m-4.54-21.51l3.88,21.63" fill="none" stroke="#000" stroke-linecap="round" stroke-linejoin="round" stroke-width=".25"/><path d="M163.29,752.56l1.32-.23m-1.32,.23l1.32-.23m-5.29,.93l3.97-.7m1.32-.23l10.85-1.91m-3.03,53.71l1.32-.23m-1.32,.23l1.32-.23m-5.29,.93l3.97-.7m1.32-.23l10.85-1.91m-25.28-48.73l16.14-2.84" fill="none" stroke="#000" stroke-linecap="round" stroke-linejoin="round" stroke-width=".22"/><path d="M184.93,803.85l.22,1.27-16.14,2.85-.55-3.14,16.14-2.84,.23,1.27,.1,.59Z" fill="#2d2d2c" fill-rule="evenodd"/><path d="M157.19,741.2l16.14-2.85,2.13,12.05-16.14,2.85-2.13-12.05Z" fill="#2d2d2c"/><path d="M174.12,903.15l10.84-1.91m-16.13,2.84l3.96-.7m0,0l1.33-.23m-9.15-51.57l10.85-1.91m-16.14,2.84l3.97-.7m0,0l1.32-.23" fill="none" stroke="#000" stroke-linecap="round" stroke-linejoin="round" stroke-width=".22"/><path d="M159.68,852.51l9.15,51.57m6.99-54.41l9.14,51.57m-19.99-49.66l.42,2.38m0,0l-1.32,.24m0,0l-.42-2.39m4.2,23.84l-.21-1.19m0,0l1.33-.23m0,0l.21,1.19m-4.45-21.34l3.57,20.26m-2.91-20.38l3.58,20.27m-1.33,.23l-3.57-20.26m5.11,21.22l.1,.6m0,0l-.66,.11m0,0l.1,.6m0,0l-.66,.11m0,0l-.21-1.19m4.94,27.73l-.43-2.48m0,0l.66-.12m0,0l.11,.62m0,0l.66-.11m0,0l.33,1.86m-1.76-2.25l-4.95-27.76m3.04,5.64l3.67,20.53m-4.18-23.41l.32,1.79m0,0l-1.32,.23m0,0l-.32-1.79m0,0l1.32-.23m3.19,25.5l-.33-1.86m0,0l1.32-.23m0,0l.33,1.86m0,0l-1.32,.23m-.33-1.86l-3.86-21.62m1.32-.23l3.86,21.62m-4.54-21.51l3.88,21.63" fill="none" stroke="#000" stroke-linecap="round" stroke-linejoin="round" stroke-width=".25"/><path d="M163.65,851.81l1.32-.23m-1.32,.23l1.32-.23m-5.29,.93l3.97-.7m1.32-.23l10.85-1.91m-3.03,53.71l1.33-.23m-1.33,.23l1.33-.23m-5.29,.93l3.96-.7m1.33-.23l10.84-1.91m-25.28-48.73l16.14-2.84" fill="none" stroke="#000" stroke-linecap="round" stroke-linejoin="round" stroke-width=".22"/><path d="M186.28,908.71l.9,5.12-16.13,2.85-2.22-12.6,16.13-2.84,.91,5.12,.41,2.35h0Z" fill="#2d2d2c" fill-rule="evenodd"/><path d="M157.19,838.41l16.14-2.85,2.49,14.11-16.14,2.85-2.49-14.11Z" fill="#2d2d2c"/><path d="M1391.8,269.14l-10.78-2.29m16.03,3.4l-3.94-.83m0,0l-1.31-.28m-8.81,41.44l-10.77-2.29m16.02,3.4l-3.94-.83m0,0l-1.31-.28" fill="none" stroke="#000" stroke-linecap="round" stroke-linejoin="round" stroke-width=".22"/><path d="M1388.24,311.69l8.81-41.44m-24.84,38.04l8.81-41.44m1.97,43.73l.5-2.37m0,0l1.32,.28m0,0l-.51,2.37m5.04-23.68l-.26,1.18m0,0l-1.31-.28m0,0l.25-1.18m-3.87,21.45l4.28-20.13m-4.94,19.99l4.28-20.13m1.31,.28l-4.27,20.13m3.21-21.59l.13-.6m0,0l.65,.14m0,0l.13-.59m0,0l.66,.14m0,0l-.25,1.19m3.77-17.76l-.5,2.36m0,0l-.66-.14m0,0l.13-.59m0,0l-.66-.14m0,0l.38-1.77m.81,2.64l-3.02,14.21m-1.72-1.6l2.51-11.84m-2.89,13.62l.38-1.78m0,0l1.31,.28m0,0l-.38,1.77m0,0l-1.31-.27m4.59-15.12l-.38,1.78m0,0l-1.31-.28m0,0l.38-1.78m0,0l1.32,.28m-.38,1.78l-2.52,11.84m-1.31-.28l2.51-11.84m-1.85,11.98l2.51-11.84" fill="none" stroke="#000" stroke-linecap="round" stroke-linejoin="round" stroke-width=".25"/><path d="M1384.3,310.86l-1.31-.28m1.31,.28l-1.31-.28m5.25,1.11l-3.94-.83m-1.31-.28l-10.77-2.29m20.89-38.87l-1.31-.28m1.31,.28l-1.31-.28m5.25,1.11l-3.94-.83m-1.31-.28l-10.78-2.29m7.22,44.84l-16.03-3.4" fill="none" stroke="#000" stroke-linecap="round" stroke-linejoin="round" stroke-width=".22"/><path d="M1385.57,245.47l3.11-14.65,16.03,3.41-7.66,36.02-16.03-3.4,3.12-14.66,1.43-6.72Z" fill="#2d2d2c" fill-rule="evenodd"/><path d="M1369.03,323.26l3.18-14.98,16.03,3.41-3.18,14.98-16.03-3.41Z" fill="#2d2d2c"/><path d="M1399.34,171.58h-11.02m16.39,0h-4.03m0,0h-1.34m0,37.54h-11.02m16.39,0h-4.03m0,0h-1.34" fill="none" stroke="#000" stroke-linecap="round" stroke-linejoin="round" stroke-width=".22"/><path d="M1404.71,209.12v-37.54m-16.39,37.54v-37.54m11.02,37.54v-2.42m0,0h1.34m0,0v2.42m0-19.39v1.21m0,0h-1.34m0,0v-1.21m.67,16.97v-15.76m-.67,15.76v-15.76m1.34,0v15.76m-1.34-16.97v-.6m0,0h.67m0,0v-.61m0,0h.67m0,0v1.21m0-18.15v2.42m0,0h-.67m0,0v-.61m0,0h-.67m0,0v-1.81m1.34,2.42v14.52m-2.01-1.21v-12.1m0,13.92v-1.82m0,0h1.34m0,0v1.82m0,0h-1.34m1.34-15.74v1.82m0,0h-1.34m0,0v-1.82m0,0h1.34m0,1.82v12.1m-1.34,0v-12.1m.67,12.1v-12.1" fill="none" stroke="#000" stroke-linecap="round" stroke-linejoin="round" stroke-width=".25"/><path d="M1400.68,209.12h-1.34m1.34,0h-1.34m5.37,0h-4.03m-1.34,0h-11.02m12.36-37.54h-1.34m1.34,0h-1.34m5.37,0h-4.03m-1.34,0h-11.02m16.39,37.54h-16.39" fill="none" stroke="#000" stroke-linecap="round" stroke-linejoin="round" stroke-width=".22"/><path d="M1388.32,159.72v-8.12h16.39v19.98h-16.39v-11.86Z" fill="#2d2d2c" fill-rule="evenodd"/><path d="M1388.32,209.12h16.39v25.1h-16.39v-25.1Z" fill="#2d2d2c"/><path d="M1392.41,354.49l-10.85-1.92m16.14,2.85l-3.97-.7m0,0l-1.32-.23m-9.47,53.66l-10.84-1.92m16.13,2.85l-3.96-.7m0,0l-1.33-.23" fill="none" stroke="#000" stroke-linecap="round" stroke-linejoin="round" stroke-width=".22"/><path d="M1388.23,409.08l9.47-53.66m-25.6,50.81l9.46-53.66m1.38,55.58l.45-2.51m0,0l1.32,.23m0,0l-.44,2.51m4.42-25.08l-.22,1.25m0,0l-1.33-.23m0,0l.23-1.25m-3.32,22.68l3.76-21.31m-4.42,21.2l3.75-21.32m1.33,.23l-3.76,21.32m2.66-22.8l.11-.63m0,0l.66,.12m0,0l.11-.63m0,0l.66,.11m0,0l-.22,1.26m5.04-28.58l-.54,3.07m0,0l-.66-.12m0,0l.13-.77m0,0l-.66-.11m0,0l.41-2.3m.78,3.3l-4.28,24.25m-.68-7.74l2.7-15.33m-4.11,23.35l.33-1.88m0,0l1.32,.23m0,0l-.33,1.89m0,0l-1.32-.24m5.84-25.42l-.4,2.3m0,0l-1.33-.23m0,0l.41-2.3m0,0l1.32,.23m-.4,2.3l-3.79,21.47m-1.32-.23l3.78-21.47m-3.1,21.6l3.76-21.48" fill="none" stroke="#000" stroke-linecap="round" stroke-linejoin="round" stroke-width=".25"/><path d="M1384.27,408.38l-1.33-.23m1.33,.23l-1.33-.23m5.29,.93l-3.96-.7m-1.33-.23l-10.84-1.92m21.63-51.51l-1.32-.23m1.32,.23l-1.32-.23m5.29,.93l-3.97-.7m-1.32-.23l-10.85-1.92m6.67,56.51l-16.13-2.85" fill="none" stroke="#000" stroke-linecap="round" stroke-linejoin="round" stroke-width=".22"/><path d="M1383.43,341.95l1.29-7.29,16.13,2.85-3.15,17.91-16.14-2.85,1.28-7.28,.59-3.34Z" fill="#2d2d2c" fill-rule="evenodd"/><path d="M1371.59,409.07l.5-2.85,16.14,2.85-.5,2.85-16.14-2.85Z" fill="#2d2d2c"/><path d="M1393.1,455.41l-10.87-1.73m16.18,2.57l-3.98-.63m0,0l-1.33-.21m-9.56,60.73l-10.88-1.73m16.18,2.57l-3.98-.63m0,0l-1.32-.21" fill="none" stroke="#000" stroke-linecap="round" stroke-linejoin="round" stroke-width=".22"/><path d="M1388.84,516.98l9.57-60.73m-25.75,58.16l9.57-60.73m1.31,62.46l.38-2.39m0,0l1.32,.21m0,0l-.38,2.39m3.79-23.91l-.19,1.19m0,0l-1.33-.21m0,0l.19-1.19m-2.74,21.62l3.22-20.32m-3.88,20.22l3.21-20.33m1.33,.21l-3.22,20.33m2.08-21.73l.1-.6m0,0l.66,.1m0,0l.1-.59m0,0l.66,.1m0,0l-.19,1.2m5.78-36.82l-.46,2.92m0,0l-.66-.11m0,0l.12-.73m0,0l-.66-.1m0,0l.34-2.19m.87,3.13l-5.13,32.7m-.87-7.36l3.78-24.19m-4.99,31.83l.28-1.79m0,0l1.33,.21m0,0l-.29,1.79m0,0l-1.32-.21m6.66-33.82l-.35,2.2m0,0l-1.32-.21m0,0l.34-2.2m0,0l1.33,.21m-.35,2.2l-4.7,30.04m-1.33-.21l4.71-30.04m-4.02,30.15l4.68-30.05" fill="none" stroke="#000" stroke-linecap="round" stroke-linejoin="round" stroke-width=".25"/><path d="M1384.86,516.35l-1.32-.21m1.32,.21l-1.32-.21m5.3,.84l-3.98-.63m-1.32-.21l-10.88-1.73m21.77-58.79l-1.33-.21m1.33,.21l-1.33-.21m5.31,.84l-3.98-.63m-1.33-.21l-10.87-1.73m6.61,63.3l-16.18-2.57" fill="none" stroke="#000" stroke-linecap="round" stroke-linejoin="round" stroke-width=".22"/><path d="M1384.11,441.78l1.29-8.16,16.19,2.56-3.18,20.07-16.18-2.57,1.29-8.16,.59-3.74h0Z" fill="#2d2d2c" fill-rule="evenodd"/><path d="M1371.6,521.06l1.05-6.64,16.19,2.56-1.05,6.64-16.19-2.56Z" fill="#2d2d2c"/><path d="M1393.36,565.01l-10.88-1.72m16.18,2.56l-3.98-.63m0,0l-1.32-.21m-9.57,60.73l-10.88-1.72m16.18,2.56l-3.98-.63m0,0l-1.32-.21" fill="none" stroke="#000" stroke-linecap="round" stroke-linejoin="round" stroke-width=".22"/><path d="M1389.09,626.58l9.57-60.73m-25.75,58.17l9.57-60.73m1.31,62.45l.38-2.39m0,0l1.32,.21m0,0l-.38,2.39m3.79-23.91l-.19,1.2m0,0l-1.32-.21m0,0l.18-1.2m-2.74,21.63l3.22-20.33m-3.88,20.22l3.22-20.32m1.32,.21l-3.22,20.32m2.08-21.73l.1-.59m0,0l.66,.1m0,0l.1-.6m0,0l.66,.11m0,0l-.19,1.19m5.78-36.82l-.46,2.93m0,0l-.66-.11m0,0l.11-.73m0,0l-.66-.1m0,0l.35-2.2m.86,3.14l-5.13,32.7m-.87-7.37l3.78-24.19m-4.99,31.84l.28-1.79m0,0l1.33,.21m0,0l-.29,1.79m0,0l-1.32-.21m6.66-33.82l-.35,2.19m0,0l-1.32-.21m0,0l.35-2.19m0,0l1.32,.21m-.35,2.19l-4.7,30.05m-1.33-.21l4.71-30.05m-4.02,30.16l4.68-30.05" fill="none" stroke="#000" stroke-linecap="round" stroke-linejoin="round" stroke-width=".25"/><path d="M1385.11,625.95l-1.32-.21m1.32,.21l-1.32-.21m5.3,.84l-3.98-.63m-1.32-.21l-10.88-1.72m21.77-58.8l-1.32-.21m1.32,.21l-1.32-.21m5.3,.84l-3.98-.63m-1.32-.21l-10.88-1.72m6.61,63.29l-16.18-2.56" fill="none" stroke="#000" stroke-linecap="round" stroke-linejoin="round" stroke-width=".22"/><path d="M1384.21,552.34l1.19-7.51,16.19,2.56-2.93,18.46-16.18-2.56,1.19-7.51,.54-3.44h0Z" fill="#2d2d2c" fill-rule="evenodd"/><path d="M1371.59,632.37l1.32-8.35,16.19,2.56-1.32,8.36-16.19-2.56h0Z" fill="#2d2d2c"/><path d="M1392.59,671.46l-10.85-1.91m16.14,2.85l-3.97-.7m0,0l-1.32-.24m-9.05,51.59l-10.84-1.91m16.13,2.85l-3.97-.7m0,0l-1.32-.24" fill="none" stroke="#000" stroke-linecap="round" stroke-linejoin="round" stroke-width=".22"/><path d="M1388.83,723.99l9.05-51.59m-25.18,48.74l9.04-51.59m1.8,53.5l.42-2.38m0,0l1.32,.23m0,0l-.42,2.39m4.21-23.84l-.21,1.19m0,0l-1.32-.24m0,0l.21-1.19m-3.13,21.58l3.58-20.27m-4.24,20.15l3.58-20.27m1.32,.24l-3.58,20.26m2.47-21.69l.1-.59m0,0l.66,.11m0,0l.11-.59m0,0l.66,.11m0,0l-.21,1.2m4.84-27.75l-.44,2.48m0,0l-.66-.12m0,0l.11-.62m0,0l-.66-.11m0,0l.33-1.87m.88,2.72l-4.85,27.78m-.92-6.34l3.57-20.55m-4.08,23.43l.31-1.79m0,0l1.33,.24m0,0l-.32,1.78m0,0l-1.32-.23m5.73-25.06l-.33,1.87m0,0l-1.32-.24m0,0l.33-1.86m0,0l1.32,.23m-.33,1.87l-3.76,21.64m-1.33-.24l3.77-21.64m-3.09,21.76l3.75-21.64" fill="none" stroke="#000" stroke-linecap="round" stroke-linejoin="round" stroke-width=".25"/><path d="M1384.86,723.29l-1.32-.24m1.32,.24l-1.32-.24m5.29,.94l-3.97-.7m-1.32-.24l-10.84-1.91m21.21-49.44l-1.32-.24m1.32,.24l-1.32-.24m5.29,.94l-3.97-.7m-1.32-.24l-10.85-1.91m7.09,54.44l-16.14-2.85" fill="none" stroke="#000" stroke-linecap="round" stroke-linejoin="round" stroke-width=".22"/><path d="M1383.94,657.09l1.5-8.53,16.14,2.84-3.7,21-16.14-2.85,1.51-8.54,.69-3.92h0Z" fill="#2d2d2c" fill-rule="evenodd"/><path d="M1371.6,727.43l1.11-6.29,16.14,2.85-1.11,6.29-16.14-2.85Z" fill="#2d2d2c"/><path d="M1392.64,764.67l-10.85-1.92m16.14,2.85l-3.97-.7m0,0l-1.32-.23m-9.05,51.59l-10.84-1.92m16.13,2.85l-3.96-.7m0,0l-1.33-.23" fill="none" stroke="#000" stroke-linecap="round" stroke-linejoin="round" stroke-width=".22"/><path d="M1388.88,817.19l9.05-51.59m-25.18,48.74l9.04-51.59m1.8,53.51l.42-2.39m0,0l1.33,.24m0,0l-.42,2.38m4.2-23.84l-.21,1.19m0,0l-1.32-.23m0,0l.21-1.19m-3.12,21.57l3.57-20.27m-4.24,20.15l3.58-20.26m1.32,.23l-3.57,20.26m2.46-21.68l.1-.6m0,0l.66,.12m0,0l.11-.6m0,0l.66,.12m0,0l-.21,1.19m4.84-27.75l-.44,2.48m0,0l-.66-.11m0,0l.11-.62m0,0l-.66-.12m0,0l.33-1.86m.88,2.71l-4.84,27.78m-.93-6.33l3.57-20.55m-4.08,23.42l.32-1.79m0,0l1.32,.24m0,0l-.32,1.79m0,0l-1.32-.24m5.73-25.05l-.33,1.86m0,0l-1.32-.23m0,0l.33-1.87m0,0l1.32,.24m-.33,1.86l-3.76,21.64m-1.32-.24l3.76-21.63m-3.09,21.76l3.75-21.65" fill="none" stroke="#000" stroke-linecap="round" stroke-linejoin="round" stroke-width=".25"/><path d="M1384.92,816.49l-1.33-.23m1.33,.23l-1.33-.23m5.29,.93l-3.96-.7m-1.33-.23l-10.84-1.92m21.21-49.44l-1.32-.23m1.32,.23l-1.32-.23m5.29,.93l-3.97-.7m-1.32-.23l-10.85-1.92m7.09,54.44l-16.13-2.85" fill="none" stroke="#000" stroke-linecap="round" stroke-linejoin="round" stroke-width=".22"/><path d="M1383.96,750.47l1.48-8.41,16.14,2.84-3.65,20.7-16.14-2.85,1.49-8.41,.68-3.87h0Z" fill="#2d2d2c" fill-rule="evenodd"/><path d="M1371.58,820.86l1.15-6.52,16.14,2.85-1.15,6.52-16.14-2.85Z" fill="#2d2d2c"/><path d="M1393.69,855.69l-10.85-1.91m16.14,2.84l-3.97-.7m0,0l-1.32-.23m-9.12,52.01l-10.85-1.91m16.14,2.84l-3.97-.7m0,0l-1.32-.23" fill="none" stroke="#000" stroke-linecap="round" stroke-linejoin="round" stroke-width=".22"/><path d="M1389.86,908.63l9.12-52.01m-25.26,49.17l9.12-52.01m1.73,53.92l.42-2.41m0,0l1.33,.23m0,0l-.43,2.4m4.24-24.03l-.21,1.2m0,0l-1.32-.23m0,0l.21-1.21m-3.15,21.75l3.6-20.43m-4.27,20.32l3.61-20.43m1.32,.23l-3.6,20.43m2.49-21.87l.1-.6m0,0l.67,.12m0,0l.1-.6m0,0l.66,.12m0,0l-.21,1.2m4.88-27.98l-.44,2.51m0,0l-.66-.12m0,0l.11-.62m0,0l-.66-.12m0,0l.33-1.88m.88,2.74l-4.89,28m-.92-6.38l3.61-20.72m-4.12,23.62l.32-1.81m0,0l1.32,.24m0,0l-.31,1.8m0,0l-1.33-.23m5.77-25.26l-.33,1.87m0,0l-1.32-.23m0,0l.33-1.88m0,0l1.32,.23m-.33,1.88l-3.8,21.82m-1.32-.24l3.8-21.81m-3.13,21.94l3.79-21.82" fill="none" stroke="#000" stroke-linecap="round" stroke-linejoin="round" stroke-width=".25"/><path d="M1385.89,907.93l-1.32-.23m1.32,.23l-1.32-.23m5.29,.93l-3.97-.7m-1.32-.23l-10.85-1.91m21.29-49.87l-1.32-.23m1.32,.23l-1.32-.23m5.29,.93l-3.97-.7m-1.32-.23l-10.85-1.91m7.02,54.85l-16.14-2.84" fill="none" stroke="#000" stroke-linecap="round" stroke-linejoin="round" stroke-width=".22"/><path d="M1384.39,845.03l1.05-5.99,16.14,2.84-2.6,14.74-16.14-2.84,1.06-6,.49-2.75h0Z" fill="#2d2d2c" fill-rule="evenodd"/><path d="M1371.56,917.89l2.14-12.11,16.14,2.85-2.14,12.11-16.14-2.85Z" fill="#2d2d2c"/><g><path d="M270.91,948.05v-7.57m0,11.49v-4.03m0,0v-1.34m18.77,.11v-6.23m0,11.49v-4.03m0,0v-1.34" fill="none" stroke="#000" stroke-linecap="round" stroke-linejoin="round" stroke-width=".22"/><path d="M289.68,951.97h-18.77m18.77-11.49h-18.77m18.77,6.12h-2.72m0,0v1.34m0,0h2.72m-16.05-1.34h-2.72m0,0v1.34m0,0h2.72m-1.36,0h1.36m0,0v-1.34m13.33,.67h-13.33m13.33-.67h-13.33m0,1.34h13.33m-16.05,0h1.36m-1.36,0h0" fill="none" stroke="#000" stroke-linecap="round" stroke-linejoin="round" stroke-width=".25"/><path d="M289.68,947.94v-1.34m0,1.34v-1.34m0,5.37v-4.03m0-1.23v-6.23m-18.77,7.46v-1.34m0,1.34v-1.34m0,5.37v-4.03m0,.11v-7.57m18.77,11.49v-11.49" fill="none" stroke="#000" stroke-linecap="round" stroke-linejoin="round" stroke-width=".22"/></g><g><path d="M206.72,948.05v-7.57m0,11.49v-4.03m0,0v-1.34m21.87,.11v-6.23m0,11.49v-4.03m0,0v-1.34" fill="none" stroke="#000" stroke-linecap="round" stroke-linejoin="round" stroke-width=".22"/><path d="M228.59,951.97h-21.87m21.87-11.49h-21.87m21.87,6.12h-3.2m0,0v1.34m0,0h3.2m-18.68-1.34h-3.19m0,0v1.34m0,0h3.19m-1.6,0h1.6m0,0v-1.34m15.48,.67h-15.48m15.48-.67h-15.48m0,1.34h15.48m-18.67,0h1.59m-1.59,0h0" fill="none" stroke="#000" stroke-linecap="round" stroke-linejoin="round" stroke-width=".25"/><path d="M228.59,947.94v-1.34m0,1.34v-1.34m0,5.37v-4.03m0-1.23v-6.23m-21.87,7.46v-1.34m0,1.34v-1.34m0,5.37v-4.03m0,.11v-7.57m21.87,11.49v-11.49" fill="none" stroke="#000" stroke-linecap="round" stroke-linejoin="round" stroke-width=".22"/></g><path d="M242.28,941.34c.85,2.31,1.08,3.5,1.2,5.97" fill="none" stroke="#000" stroke-linecap="round" stroke-linejoin="round" stroke-width=".25"/><path d="M242.26,940.96l.28,.66-13.74,6.07h-.21v-.72l13.67-6.01h0Z" fill="#2d2d2c" fill-rule="evenodd"/><path d="M245.7,935.99c-1.56,4.26-1.99,6.45-2.22,10.99" fill="none" stroke="#000" stroke-linecap="round" stroke-linejoin="round" stroke-width=".25"/><path d="M245.74,935.3l-.52,1.21,25.3,11.18h.39v-1.32l-25.17-11.07Z" fill="#2d2d2c" fill-rule="evenodd"/><g><path d="M166.89,1010.39v-1.34m68.98,1.34v-1.34" fill="none" stroke="#000" stroke-linecap="round" stroke-linejoin="round" stroke-width=".22"/><path d="M235.87,1009.05h-3.17m0,0v1.34m0,0h3.17m-65.81-1.34h-3.17m0,0v1.34m0,0h3.17m-1.58,0h1.58m0,0v-1.34m62.64,.67h-62.64m62.64-.67h-62.64m0,1.34h62.64m-65.81,0h1.59m-1.59,0h0" fill="none" stroke="#000" stroke-linecap="round" stroke-linejoin="round" stroke-width=".25"/><path d="M235.87,1010.39v-1.34m0,1.34v-1.34m-68.98,1.34v-1.34m0,1.34v-1.34" fill="none" stroke="#000" stroke-linecap="round" stroke-linejoin="round" stroke-width=".22"/></g><g><path d="M260.23,1010.39v-1.34m43.89,1.34v-1.34" fill="none" stroke="#000" stroke-linecap="round" stroke-linejoin="round" stroke-width=".22"/><path d="M304.12,1009.05h-3.17m0,0v1.34m0,0h3.17m-40.73-1.34h-3.16m0,0v1.34m0,0h3.16m-1.58,0h1.58m0,0v-1.34m37.56,.67h-37.56m37.56-.67h-37.56m0,1.34h37.56m-40.72,0h1.58m-1.58,0h0" fill="none" stroke="#000" stroke-linecap="round" stroke-linejoin="round" stroke-width=".25"/><path d="M304.12,1010.39v-1.34m0,1.34v-1.34m-43.89,1.34v-1.34m0,1.34v-1.34" fill="none" stroke="#000" stroke-linecap="round" stroke-linejoin="round" stroke-width=".22"/></g><g><path d="M328.48,1010.39v-1.34m43.88,1.34v-1.34" fill="none" stroke="#000" stroke-linecap="round" stroke-linejoin="round" stroke-width=".22"/><path d="M372.36,1009.05h-3.16m0,0v1.34m0,0h3.16m-40.72-1.34h-3.16m0,0v1.34m0,0h3.16m-1.58,0h1.58m0,0v-1.34m37.56,.67h-37.56m37.56-.67h-37.56m0,1.34h37.56m-40.72,0h1.58m-1.58,0h0" fill="none" stroke="#000" stroke-linecap="round" stroke-linejoin="round" stroke-width=".25"/><path d="M372.36,1010.39v-1.34m0,1.34v-1.34m-43.88,1.34v-1.34m0,1.34v-1.34" fill="none" stroke="#000" stroke-linecap="round" stroke-linejoin="round" stroke-width=".22"/></g><path d="M260.23,1009.72h-24.36m24.36-.67h-24.36m0,1.34h24.36" fill="none" stroke="#000" stroke-linecap="round" stroke-linejoin="round" stroke-width=".25"/><path d="M328.48,1009.72h-24.36m24.36-.67h-24.36m0,1.34h24.36" fill="none" stroke="#000" stroke-linecap="round" stroke-linejoin="round" stroke-width=".25"/><g><path d="M396.72,1010.39v-1.34m23.27,1.34v-1.34" fill="none" stroke="#000" stroke-linecap="round" stroke-linejoin="round" stroke-width=".22"/><path d="M419.99,1009.05h-3.17m0,0v1.34m0,0h3.17m-20.1-1.34h-3.17m0,0v1.34m0,0h3.17m-1.58,0h1.58m0,0v-1.34m16.93,.67h-16.93m16.93-.67h-16.93m0,1.34h16.93m-20.1,0h1.59m-1.59,0h0" fill="none" stroke="#000" stroke-linecap="round" stroke-linejoin="round" stroke-width=".25"/><path d="M419.99,1010.39v-1.34m0,1.34v-1.34m-23.27,1.34v-1.34m0,1.34v-1.34" fill="none" stroke="#000" stroke-linecap="round" stroke-linejoin="round" stroke-width=".22"/></g><g><path d="M512.05,1010.39v-1.34m44.73,1.34v-1.34" fill="none" stroke="#000" stroke-linecap="round" stroke-linejoin="round" stroke-width=".22"/><path d="M556.78,1009.05h-3.16m0,0v1.34m0,0h3.16m-41.57-1.34h-3.16m0,0v1.34m0,0h3.16m-1.58,0h1.58m0,0v-1.34m38.41,.67h-38.41m38.41-.67h-38.41m0,1.34h38.41m-41.57,0h1.58m-1.58,0h0" fill="none" stroke="#000" stroke-linecap="round" stroke-linejoin="round" stroke-width=".25"/><path d="M556.78,1010.39v-1.34m0,1.34v-1.34m-44.73,1.34v-1.34m0,1.34v-1.34" fill="none" stroke="#000" stroke-linecap="round" stroke-linejoin="round" stroke-width=".22"/></g><g><path d="M419.99,1010.39v-1.34m67.7,1.34v-1.34" fill="none" stroke="#000" stroke-linecap="round" stroke-linejoin="round" stroke-width=".22"/><path d="M487.69,1009.05h-3.17m0,0v1.34m0,0h3.17m-64.53-1.34h-3.17m0,0v1.34m0,0h3.17m-1.58,0h1.58m0,0v-1.34m61.36,.67h-61.36m61.36-.67h-61.36m0,1.34h61.36m-64.53,0h1.59m-1.59,0h0" fill="none" stroke="#000" stroke-linecap="round" stroke-linejoin="round" stroke-width=".25"/><path d="M487.69,1010.39v-1.34m0,1.34v-1.34m-67.7,1.34v-1.34m0,1.34v-1.34" fill="none" stroke="#000" stroke-linecap="round" stroke-linejoin="round" stroke-width=".22"/></g><g><path d="M581.14,1010.39v-1.34m22.48,1.34v-1.34" fill="none" stroke="#000" stroke-linecap="round" stroke-linejoin="round" stroke-width=".22"/><path d="M603.62,1009.05h-3.17m0,0v1.34m0,0h3.17m-19.31-1.34h-3.17m0,0v1.34m0,0h3.17m-1.58,0h1.58m0,0v-1.34m16.14,.67h-16.14m16.14-.67h-16.14m0,1.34h16.14m-19.31,0h1.59m-1.59,0h0" fill="none" stroke="#000" stroke-linecap="round" stroke-linejoin="round" stroke-width=".25"/><path d="M603.62,1010.39v-1.34m0,1.34v-1.34m-22.48,1.34v-1.34m0,1.34v-1.34" fill="none" stroke="#000" stroke-linecap="round" stroke-linejoin="round" stroke-width=".22"/></g><g><path d="M695.83,1010.39v-1.34m44.22,1.34v-1.34" fill="none" stroke="#000" stroke-linecap="round" stroke-linejoin="round" stroke-width=".22"/><path d="M740.05,1009.05h-3.17m0,0v1.34m0,0h3.17m-41.06-1.34h-3.16m0,0v1.34m0,0h3.16m-1.58,0h1.58m0,0v-1.34m37.89,.67h-37.89m37.89-.67h-37.89m0,1.34h37.89m-41.05,0h1.58m-1.58,0h0" fill="none" stroke="#000" stroke-linecap="round" stroke-linejoin="round" stroke-width=".25"/><path d="M740.05,1010.39v-1.34m0,1.34v-1.34m-44.22,1.34v-1.34m0,1.34v-1.34" fill="none" stroke="#000" stroke-linecap="round" stroke-linejoin="round" stroke-width=".22"/></g><g><path d="M764.62,1010.39v-1.34m21.79,1.34v-1.34" fill="none" stroke="#000" stroke-linecap="round" stroke-linejoin="round" stroke-width=".22"/><path d="M786.41,1009.05h-3.17m0,0v1.34m0,0h3.17m-18.62-1.34h-3.17m0,0v1.34m0,0h3.17m-1.59,0h1.59m0,0v-1.34m15.45,.67h-15.45m15.45-.67h-15.45m0,1.34h15.45m-18.62,0h1.58m-1.58,0h0" fill="none" stroke="#000" stroke-linecap="round" stroke-linejoin="round" stroke-width=".25"/><path d="M786.41,1010.39v-1.34m0,1.34v-1.34m-21.79,1.34v-1.34m0,1.34v-1.34" fill="none" stroke="#000" stroke-linecap="round" stroke-linejoin="round" stroke-width=".22"/></g><g><path d="M832.85,1010.39v-1.34m41.77,1.34v-1.34" fill="none" stroke="#000" stroke-linecap="round" stroke-linejoin="round" stroke-width=".22"/><path d="M874.62,1009.05h-3.17m0,0v1.34m0,0h3.17m-38.6-1.34h-3.17m0,0v1.34m0,0h3.17m-1.58,0h1.58m0,0v-1.34m35.43,.67h-35.43m35.43-.67h-35.43m0,1.34h35.43m-38.6,0h1.59m-1.59,0h0" fill="none" stroke="#000" stroke-linecap="round" stroke-linejoin="round" stroke-width=".25"/><path d="M874.62,1010.39v-1.34m0,1.34v-1.34m-41.77,1.34v-1.34m0,1.34v-1.34" fill="none" stroke="#000" stroke-linecap="round" stroke-linejoin="round" stroke-width=".22"/></g><g><path d="M899.19,1010.39v-1.34m87.16,1.34v-1.34" fill="none" stroke="#000" stroke-linecap="round" stroke-linejoin="round" stroke-width=".22"/><path d="M986.35,1009.05h-3.17m0,0v1.34m0,0h3.17m-83.99-1.34h-3.17m0,0v1.34m0,0h3.17m-1.59,0h1.59m0,0v-1.34m80.82,.67h-80.82m80.82-.67h-80.82m0,1.34h80.82m-83.99,0h1.58m-1.58,0h0" fill="none" stroke="#000" stroke-linecap="round" stroke-linejoin="round" stroke-width=".25"/><path d="M986.35,1010.39v-1.34m0,1.34v-1.34m-87.16,1.34v-1.34m0,1.34v-1.34" fill="none" stroke="#000" stroke-linecap="round" stroke-linejoin="round" stroke-width=".22"/></g><g><path d="M1010.93,1010.39v-1.34m42.31,1.34v-1.34" fill="none" stroke="#000" stroke-linecap="round" stroke-linejoin="round" stroke-width=".22"/><path d="M1053.24,1009.05h-3.17m0,0v1.34m0,0h3.17m-39.14-1.34h-3.17m0,0v1.34m0,0h3.17m-1.59,0h1.59m0,0v-1.34m35.97,.67h-35.97m35.97-.67h-35.97m0,1.34h35.97m-39.14,0h1.58m-1.58,0h0" fill="none" stroke="#000" stroke-linecap="round" stroke-linejoin="round" stroke-width=".25"/><path d="M1053.24,1010.39v-1.34m0,1.34v-1.34m-42.31,1.34v-1.34m0,1.34v-1.34" fill="none" stroke="#000" stroke-linecap="round" stroke-linejoin="round" stroke-width=".22"/></g><g><path d="M1074.87,1010.39v-1.34m67.59,1.34v-1.34" fill="none" stroke="#000" stroke-linecap="round" stroke-linejoin="round" stroke-width=".22"/><path d="M1142.46,1009.05h-3.17m0,0v1.34m0,0h3.17m-64.42-1.34h-3.17m0,0v1.34m0,0h3.17m-1.59,0h1.58m0,0v-1.34m61.26,.67h-61.25m61.25-.67h-61.25m-.01,1.34h61.26m-64.42,0h1.58m-1.58,0h0" fill="none" stroke="#000" stroke-linecap="round" stroke-linejoin="round" stroke-width=".25"/><path d="M1142.46,1010.39v-1.34m0,1.34v-1.34m-67.59,1.34v-1.34m0,1.34v-1.34" fill="none" stroke="#000" stroke-linecap="round" stroke-linejoin="round" stroke-width=".22"/></g><g><path d="M1162.63,1010.39v-1.34m27.59,1.34v-1.34" fill="none" stroke="#000" stroke-linecap="round" stroke-linejoin="round" stroke-width=".22"/><path d="M1190.22,1009.05h-3.17m0,0v1.34m0,0h3.17m-24.43-1.34h-3.17m.01,0v1.34m0,0h3.16m-1.58,0h1.58m0,0v-1.34m21.26,.67h-21.26m21.26-.67h-21.26m0,1.34h21.26m-24.42,0h1.58m-1.58,0h0" fill="none" stroke="#000" stroke-linecap="round" stroke-linejoin="round" stroke-width=".25"/><path d="M1190.22,1010.39v-1.34m0,1.34v-1.34m-27.59,1.34v-1.34m0,1.34v-1.34" fill="none" stroke="#000" stroke-linecap="round" stroke-linejoin="round" stroke-width=".22"/></g><g><path d="M1231.31,1010.39v-1.34m26.68,1.34v-1.34" fill="none" stroke="#000" stroke-linecap="round" stroke-linejoin="round" stroke-width=".22"/><path d="M1257.99,1009.05h-3.17m0,0v1.34m0,0h3.17m-23.52-1.34h-3.16m0,0v1.34m0,0h3.16m-1.58,0h1.58m0,0v-1.34m20.35,.67h-20.35m20.35-.67h-20.35m0,1.34h20.35m-23.51,0h1.58m-1.58,0h0" fill="none" stroke="#000" stroke-linecap="round" stroke-linejoin="round" stroke-width=".25"/><path d="M1257.99,1010.39v-1.34m0,1.34v-1.34m-26.68,1.34v-1.34m0,1.34v-1.34" fill="none" stroke="#000" stroke-linecap="round" stroke-linejoin="round" stroke-width=".22"/></g><g><path d="M1298.12,1010.39v-1.34m24.81,1.34v-1.34" fill="none" stroke="#000" stroke-linecap="round" stroke-linejoin="round" stroke-width=".22"/><path d="M1322.93,1009.05h-3.17m0,0v1.34m0,0h3.17m-21.64-1.34h-3.17m0,0v1.34m0,0h3.17m-1.59,0h1.58m0,0v-1.34m18.48,.67h-18.47m18.47-.67h-18.47m-.01,1.34h18.48m-21.64,0h1.58m-1.58,0h0" fill="none" stroke="#000" stroke-linecap="round" stroke-linejoin="round" stroke-width=".25"/><path d="M1322.93,1010.39v-1.34m0,1.34v-1.34m-24.81,1.34v-1.34m0,1.34v-1.34" fill="none" stroke="#000" stroke-linecap="round" stroke-linejoin="round" stroke-width=".22"/></g><g><path d="M1391.3,1010.39v-1.34" fill="none" stroke="#000" stroke-linecap="round" stroke-linejoin="round" stroke-width=".22"/><path d="M1391.3,1009.05h-3.12m0,0v1.34m0,0h3.12m-3.12-.67h-65.25m65.25-.67h-65.25m0,1.34h65.25" fill="none" stroke="#000" stroke-linecap="round" stroke-linejoin="round" stroke-width=".25"/><path d="M1391.3,1010.39v-1.34m0,1.34v-1.34" fill="none" stroke="#000" stroke-linecap="round" stroke-linejoin="round" stroke-width=".22"/></g><g><path d="M786.41,1010.39v-1.34m21.79,1.34v-1.34" fill="none" stroke="#000" stroke-linecap="round" stroke-linejoin="round" stroke-width=".22"/><path d="M808.2,1009.05h-3.17m0,0v1.34m0,0h3.17m-18.62-1.34h-3.17m0,0v1.34m0,0h3.17m-1.58,0h1.58m0,0v-1.34m15.45,.67h-15.45m15.45-.67h-15.45m0,1.34h15.45m-18.62,0h1.59m-1.59,0h0" fill="none" stroke="#000" stroke-linecap="round" stroke-linejoin="round" stroke-width=".25"/><path d="M808.2,1010.39v-1.34m0,1.34v-1.34m-21.79,1.34v-1.34m0,1.34v-1.34" fill="none" stroke="#000" stroke-linecap="round" stroke-linejoin="round" stroke-width=".22"/></g><g><path d="M603.62,1010.39v-1.34m68.49,1.34v-1.34" fill="none" stroke="#000" stroke-linecap="round" stroke-linejoin="round" stroke-width=".22"/><path d="M672.11,1009.05h-3.17m0,0v1.34m0,0h3.17m-65.32-1.34h-3.17m0,0v1.34m0,0h3.17m-1.59,0h1.59m0,0v-1.34m62.15,.67h-62.15m62.15-.67h-62.15m0,1.34h62.15m-65.32,0h1.58m-1.58,0h0" fill="none" stroke="#000" stroke-linecap="round" stroke-linejoin="round" stroke-width=".25"/><path d="M672.11,1010.39v-1.34m0,1.34v-1.34m-68.49,1.34v-1.34m0,1.34v-1.34" fill="none" stroke="#000" stroke-linecap="round" stroke-linejoin="round" stroke-width=".22"/></g><path d="M396.72,1009.72h-24.36m24.36-.67h-24.36m0,1.34h24.36" fill="none" stroke="#000" stroke-linecap="round" stroke-linejoin="round" stroke-width=".25"/><path d="M512.05,1009.72h-24.36m24.36-.67h-24.36m0,1.34h24.36" fill="none" stroke="#000" stroke-linecap="round" stroke-linejoin="round" stroke-width=".25"/><path d="M581.14,1009.72h-24.36m24.36-.67h-24.36m0,1.34h24.36" fill="none" stroke="#000" stroke-linecap="round" stroke-linejoin="round" stroke-width=".25"/><path d="M695.83,1009.72h-23.72m23.72-.67h-23.72m0,1.34h23.72" fill="none" stroke="#000" stroke-linecap="round" stroke-linejoin="round" stroke-width=".25"/><path d="M764.62,1009.72h-24.57m24.57-.67h-24.57m0,1.34h24.57" fill="none" stroke="#000" stroke-linecap="round" stroke-linejoin="round" stroke-width=".25"/><path d="M832.85,1009.72h-24.57m24.57-.67h-24.57m0,1.34h24.57" fill="none" stroke="#000" stroke-linecap="round" stroke-linejoin="round" stroke-width=".25"/><path d="M899.19,1009.72h-24.57m24.57-.67h-24.57m0,1.34h24.57" fill="none" stroke="#000" stroke-linecap="round" stroke-linejoin="round" stroke-width=".25"/><path d="M1010.93,1009.72h-24.57m24.57-.67h-24.57m0,1.34h24.57" fill="none" stroke="#000" stroke-linecap="round" stroke-linejoin="round" stroke-width=".25"/><path d="M1074.87,1009.72h-21.47m21.47-.67h-21.47m0,1.34h21.47" fill="none" stroke="#000" stroke-linecap="round" stroke-linejoin="round" stroke-width=".25"/><path d="M1162.63,1009.72h-20.13m20.13-.67h-20.13m0,1.34h20.12" fill="none" stroke="#000" stroke-linecap="round" stroke-linejoin="round" stroke-width=".25"/><path d="M1231.24,1009.72h-41.02m41.02-.67h-41.02m0,1.34h41.02" fill="none" stroke="#000" stroke-linecap="round" stroke-linejoin="round" stroke-width=".25"/><path d="M1298.12,1009.72h-40.13m40.13-.67h-40.13m0,1.34h40.13" fill="none" stroke="#000" stroke-linecap="round" stroke-linejoin="round" stroke-width=".25"/><g><path d="M162.06,974.69l1.33-.19m3.5,34.55l1.33-.18" fill="none" stroke="#000" stroke-linecap="round" stroke-linejoin="round" stroke-width=".22"/><path d="M168.22,1008.87l-.21-1.51m0,0l-1.33,.18m0,0l.21,1.51m-3.21-32.51l-.29-2.04m0,0l-1.33,.19m0,0l.29,2.04m-.14-1.02l.14,1.02m0,0l1.33-.19m3.67,30.91l-4.34-30.81m5,30.72l-4.33-30.82m-1.33,.19l4.33,30.81m-4.62-32.86l.15,1.03m-.15-1.02h0" fill="none" stroke="#000" stroke-linecap="round" stroke-linejoin="round" stroke-width=".25"/><path d="M166.89,1009.05l1.33-.18m-1.33,.18l1.33-.18m-6.16-34.18l1.33-.19m-1.33,.19l1.33-.19" fill="none" stroke="#000" stroke-linecap="round" stroke-linejoin="round" stroke-width=".22"/></g><g><path d="M1395.4,974.46l1.33,.21" fill="none" stroke="#000" stroke-linecap="round" stroke-linejoin="round" stroke-width=".22"/><path d="M1391.3,1008.95l.24-1.51m0,0l-1.33-.21m0,0l-.27,1.72m6.46-32.24l.33-2.04m0,0l-1.33-.21m0,0l-.32,2.04m.16-1.02l-.16,1.02m0,0l1.32,.21m-5.53,30.63l4.87-30.74m-4.2,30.84l4.86-30.73m-1.32-.21l-4.87,30.73m5.19-32.77l-.16,1.02m.16-1.02h0" fill="none" stroke="#000" stroke-linecap="round" stroke-linejoin="round" stroke-width=".25"/><path d="M1395.4,974.46l1.33,.21m-1.33-.21l1.33,.21" fill="none" stroke="#000" stroke-linecap="round" stroke-linejoin="round" stroke-width=".22"/></g><g><path d="M379.52,948.05v-7.57m0,11.49v-4.03m0,0v-1.34m25.86,.11v-6.23m0,11.49v-4.03m0,0v-1.34" fill="none" stroke="#000" stroke-linecap="round" stroke-linejoin="round" stroke-width=".22"/><path d="M405.38,951.97h-25.86m25.86-11.49h-25.86m25.86,6.12h-2.72m0,0v1.34m0,0h2.72m-23.14-1.34h-2.72m0,0v1.34m0,0h2.72m-1.36,0h1.36m0,0v-1.34m20.42,.67h-20.42m20.42-.67h-20.42m0,1.34h20.42m-23.14,0h1.36m-1.36,0h0" fill="none" stroke="#000" stroke-linecap="round" stroke-linejoin="round" stroke-width=".25"/><path d="M405.38,947.94v-1.34m0,1.34v-1.34m0,5.37v-4.03m0-1.23v-6.23m-25.86,7.46v-1.34m0,1.34v-1.34m0,5.37v-4.03m0,.11v-7.57m25.86,11.49v-11.49" fill="none" stroke="#000" stroke-linecap="round" stroke-linejoin="round" stroke-width=".22"/></g><g><path d="M312.21,948.05v-7.57m0,11.49v-4.03m0,0v-1.34m24.99,.11v-6.23m0,11.49v-4.03m0,0v-1.34" fill="none" stroke="#000" stroke-linecap="round" stroke-linejoin="round" stroke-width=".22"/><path d="M337.2,951.97h-24.99m24.99-11.49h-24.99m24.99,6.12h-3.19m0,0v1.34m0,0h3.19m-21.79-1.34h-3.2m0,0v1.34m0,0h3.2m-1.6,0h1.6m0,0v-1.34m18.6,.67h-18.6m18.6-.67h-18.6m0,1.34h18.6m-21.8,0h1.6m-1.6,0h0" fill="none" stroke="#000" stroke-linecap="round" stroke-linejoin="round" stroke-width=".25"/><path d="M337.2,947.94v-1.34m0,1.34v-1.34m0,5.37v-4.03m0-1.23v-6.23m-24.99,7.46v-1.34m0,1.34v-1.34m0,5.37v-4.03m0,.11v-7.57m24.99,11.49v-11.49" fill="none" stroke="#000" stroke-linecap="round" stroke-linejoin="round" stroke-width=".22"/></g><path d="M350.89,941.34c.85,2.31,1.08,3.5,1.2,5.97" fill="none" stroke="#000" stroke-linecap="round" stroke-linejoin="round" stroke-width=".25"/><path d="M350.87,940.96l.28,.66-13.73,6.07h-.22v-.72l13.67-6.01Z" fill="#2d2d2c" fill-rule="evenodd"/><path d="M354.32,935.99c-1.56,4.26-1.99,6.45-2.22,10.99" fill="none" stroke="#000" stroke-linecap="round" stroke-linejoin="round" stroke-width=".25"/><path d="M354.35,935.3l-.52,1.21,25.3,11.18h.39v-1.32l-25.17-11.07Z" fill="#2d2d2c" fill-rule="evenodd"/><g><path d="M484.74,948.05v-7.57m0,11.49v-4.03m0,0v-1.34m14.29,.11v-6.23m0,11.49v-4.03m0,0v-1.34" fill="none" stroke="#000" stroke-linecap="round" stroke-linejoin="round" stroke-width=".22"/><path d="M499.03,951.97h-14.29m14.29-11.49h-14.29m14.29,6.12h-2.72m0,0v1.34m0,0h2.72m-11.57-1.34h-2.72m0,0v1.34m0,0h2.72m-1.36,0h1.36m0,0v-1.34m8.85,.67h-8.85m8.85-.67h-8.85m0,1.34h8.85m-11.57,0h1.36m-1.36,0h0" fill="none" stroke="#000" stroke-linecap="round" stroke-linejoin="round" stroke-width=".25"/><path d="M499.03,947.94v-1.34m0,1.34v-1.34m0,5.37v-4.03m0-1.23v-6.23m-14.29,7.46v-1.34m0,1.34v-1.34m0,5.37v-4.03m0,.11v-7.57m14.29,11.49v-11.49" fill="none" stroke="#000" stroke-linecap="round" stroke-linejoin="round" stroke-width=".22"/></g><g><path d="M428.33,948.05v-7.57m0,11.49v-4.03m0,0v-1.34m14.09,.11v-6.23m0,11.49v-4.03m0,0v-1.34" fill="none" stroke="#000" stroke-linecap="round" stroke-linejoin="round" stroke-width=".22"/><path d="M442.42,951.97h-14.09m14.09-11.49h-14.09m14.09,6.12h-3.19m0,0v1.34m0,0h3.19m-10.9-1.34h-3.19m0,0v1.34m0,0h3.19m-1.59,0h1.59m0,0v-1.34m7.71,.67h-7.71m7.71-.67h-7.71m0,1.34h7.71m-10.9,0h1.6m-1.6,0h0" fill="none" stroke="#000" stroke-linecap="round" stroke-linejoin="round" stroke-width=".25"/><path d="M442.42,947.94v-1.34m0,1.34v-1.34m0,5.37v-4.03m0-1.23v-6.23m-14.09,7.46v-1.34m0,1.34v-1.34m0,5.37v-4.03m0,.11v-7.57m14.09,11.49v-11.49" fill="none" stroke="#000" stroke-linecap="round" stroke-linejoin="round" stroke-width=".22"/></g><path d="M456.11,941.34c.85,2.31,1.08,3.5,1.2,5.97" fill="none" stroke="#000" stroke-linecap="round" stroke-linejoin="round" stroke-width=".25"/><path d="M456.09,940.96l.28,.66-13.74,6.07h-.21v-.72l13.67-6.01h0Z" fill="#2d2d2c" fill-rule="evenodd"/><path d="M459.53,935.99c-1.56,4.26-1.99,6.45-2.22,10.99" fill="none" stroke="#000" stroke-linecap="round" stroke-linejoin="round" stroke-width=".25"/><path d="M459.57,935.3l-.52,1.21,25.3,11.18h.39v-1.32l-25.17-11.07Z" fill="#2d2d2c" fill-rule="evenodd"/><g><path d="M577.78,948.05v-7.57m0,11.49v-4.03m0,0v-1.34m14.29,.11v-6.23m0,11.49v-4.03m0,0v-1.34" fill="none" stroke="#000" stroke-linecap="round" stroke-linejoin="round" stroke-width=".22"/><path d="M592.07,951.97h-14.29m14.29-11.49h-14.29m14.29,6.12h-2.72m0,0v1.34m0,0h2.72m-11.57-1.34h-2.72m0,0v1.34m0,0h2.72m-1.36,0h1.36m0,0v-1.34m8.85,.67h-8.85m8.85-.67h-8.85m0,1.34h8.85m-11.57,0h1.36m-1.36,0h0" fill="none" stroke="#000" stroke-linecap="round" stroke-linejoin="round" stroke-width=".25"/><path d="M592.07,947.94v-1.34m0,1.34v-1.34m0,5.37v-4.03m0-1.23v-6.23m-14.29,7.46v-1.34m0,1.34v-1.34m0,5.37v-4.03m0,.11v-7.57m14.29,11.49v-11.49" fill="none" stroke="#000" stroke-linecap="round" stroke-linejoin="round" stroke-width=".22"/></g><g><path d="M521.36,948.05v-7.57m0,11.49v-4.03m0,0v-1.34m14.1,.11v-6.23m0,11.49v-4.03m0,0v-1.34" fill="none" stroke="#000" stroke-linecap="round" stroke-linejoin="round" stroke-width=".22"/><path d="M535.46,951.97h-14.1m14.1-11.49h-14.1m14.1,6.12h-3.2m0,0v1.34m0,0h3.2m-10.9-1.34h-3.2m0,0v1.34m0,0h3.2m-1.6,0h1.6m0,0v-1.34m7.7,.67h-7.7m7.7-.67h-7.7m0,1.34h7.7m-10.9,0h1.6m-1.6,0h0" fill="none" stroke="#000" stroke-linecap="round" stroke-linejoin="round" stroke-width=".25"/><path d="M535.46,947.94v-1.34m0,1.34v-1.34m0,5.37v-4.03m0-1.23v-6.23m-14.1,7.46v-1.34m0,1.34v-1.34m0,5.37v-4.03m0,.11v-7.57m14.1,11.49v-11.49" fill="none" stroke="#000" stroke-linecap="round" stroke-linejoin="round" stroke-width=".22"/></g><path d="M549.15,941.34c.85,2.31,1.08,3.5,1.2,5.97" fill="none" stroke="#000" stroke-linecap="round" stroke-linejoin="round" stroke-width=".25"/><path d="M549.13,940.96l.28,.66-13.74,6.07h-.21v-.72l13.67-6.01Z" fill="#2d2d2c" fill-rule="evenodd"/><path d="M552.57,935.99c-1.56,4.26-1.99,6.45-2.22,10.99" fill="none" stroke="#000" stroke-linecap="round" stroke-linejoin="round" stroke-width=".25"/><path d="M552.6,935.3l-.51,1.21,25.3,11.18h.39v-1.32l-25.18-11.07Z" fill="#2d2d2c" fill-rule="evenodd"/><g><path d="M674.26,948.05v-7.57m0,11.49v-4.03m0,0v-1.34m18.07,.11v-6.23m0,11.49v-4.03m0,0v-1.34" fill="none" stroke="#000" stroke-linecap="round" stroke-linejoin="round" stroke-width=".22"/><path d="M692.33,951.97h-18.07m18.07-11.49h-18.07m18.07,6.12h-2.72m0,0v1.34m0,0h2.72m-15.35-1.34h-2.72m0,0v1.34m0,0h2.72m-1.36,0h1.36m0,0v-1.34m12.63,.67h-12.63m12.63-.67h-12.63m0,1.34h12.63m-15.35,0h1.36m-1.36,0h0" fill="none" stroke="#000" stroke-linecap="round" stroke-linejoin="round" stroke-width=".25"/><path d="M692.33,947.94v-1.34m0,1.34v-1.34m0,5.37v-4.03m0-1.23v-6.23m-18.07,7.46v-1.34m0,1.34v-1.34m0,5.37v-4.03m0,.11v-7.57m18.07,11.49v-11.49" fill="none" stroke="#000" stroke-linecap="round" stroke-linejoin="round" stroke-width=".22"/></g><g><path d="M614.65,948.05v-7.57m0,11.49v-4.03m0,0v-1.34m17.29,.11v-6.23m0,11.49v-4.03m0,0v-1.34" fill="none" stroke="#000" stroke-linecap="round" stroke-linejoin="round" stroke-width=".22"/><path d="M631.94,951.97h-17.29m17.29-11.49h-17.29m17.29,6.12h-3.19m0,0v1.34m0,0h3.19m-14.09-1.34h-3.2m0,0v1.34m0,0h3.2m-1.6,0h1.6m0,0v-1.34m10.9,.67h-10.9m10.9-.67h-10.9m0,1.34h10.9m-14.1,0h1.6m-1.6,0h0" fill="none" stroke="#000" stroke-linecap="round" stroke-linejoin="round" stroke-width=".25"/><path d="M631.94,947.94v-1.34m0,1.34v-1.34m0,5.37v-4.03m0-1.23v-6.23m-17.29,7.46v-1.34m0,1.34v-1.34m0,5.37v-4.03m0,.11v-7.57m17.29,11.49v-11.49" fill="none" stroke="#000" stroke-linecap="round" stroke-linejoin="round" stroke-width=".22"/></g><path d="M645.63,941.34c.85,2.31,1.08,3.5,1.2,5.97" fill="none" stroke="#000" stroke-linecap="round" stroke-linejoin="round" stroke-width=".25"/><path d="M645.61,940.96l.28,.66-13.74,6.07h-.21v-.72l13.67-6.01Z" fill="#2d2d2c" fill-rule="evenodd"/><path d="M649.05,935.99c-1.56,4.26-1.99,6.45-2.22,10.99" fill="none" stroke="#000" stroke-linecap="round" stroke-linejoin="round" stroke-width=".25"/><path d="M649.09,935.3l-.52,1.21,25.3,11.18h.39v-1.32l-25.17-11.07Z" fill="#2d2d2c" fill-rule="evenodd"/><g><path d="M770.58,948.05v-7.57m0,11.49v-4.03m0,0v-1.34m12.66,.11v-6.23m0,11.49v-4.03m0,0v-1.34" fill="none" stroke="#000" stroke-linecap="round" stroke-linejoin="round" stroke-width=".22"/><path d="M783.24,951.97h-12.66m12.66-11.49h-12.66m12.66,6.12h-2.72m0,0v1.34m0,0h2.72m-9.94-1.34h-2.72m0,0v1.34m0,0h2.72m-1.36,0h1.36m0,0v-1.34m7.22,.67h-7.22m7.22-.67h-7.22m0,1.34h7.22m-9.94,0h1.36m-1.36,0h0" fill="none" stroke="#000" stroke-linecap="round" stroke-linejoin="round" stroke-width=".25"/><path d="M783.24,947.94v-1.34m0,1.34v-1.34m0,5.37v-4.03m0-1.23v-6.23m-12.66,7.46v-1.34m0,1.34v-1.34m0,5.37v-4.03m0,.11v-7.57m12.66,11.49v-11.49" fill="none" stroke="#000" stroke-linecap="round" stroke-linejoin="round" stroke-width=".22"/></g><g><path d="M712.83,948.05v-7.57m0,11.49v-4.03m0,0v-1.34m15.43,.11v-6.23m0,11.49v-4.03m0,0v-1.34" fill="none" stroke="#000" stroke-linecap="round" stroke-linejoin="round" stroke-width=".22"/><path d="M728.26,951.97h-15.43m15.43-11.49h-15.43m15.43,6.12h-3.19m0,0v1.34m0,0h3.19m-12.24-1.34h-3.19m0,0v1.34m0,0h3.19m-1.6,0h1.6m0,0v-1.34m9.05,.67h-9.05m9.05-.67h-9.05m0,1.34h9.05m-12.24,0h1.59m-1.59,0h0" fill="none" stroke="#000" stroke-linecap="round" stroke-linejoin="round" stroke-width=".25"/><path d="M728.26,947.94v-1.34m0,1.34v-1.34m0,5.37v-4.03m0-1.23v-6.23m-15.43,7.46v-1.34m0,1.34v-1.34m0,5.37v-4.03m0,.11v-7.57m15.43,11.49v-11.49" fill="none" stroke="#000" stroke-linecap="round" stroke-linejoin="round" stroke-width=".22"/></g><path d="M741.95,941.34c.85,2.31,1.08,3.5,1.2,5.97" fill="none" stroke="#000" stroke-linecap="round" stroke-linejoin="round" stroke-width=".25"/><path d="M741.93,940.96l.28,.66-13.74,6.07h-.21v-.72l13.67-6.01Z" fill="#2d2d2c" fill-rule="evenodd"/><path d="M745.37,935.99c-1.56,4.26-1.99,6.45-2.22,10.99" fill="none" stroke="#000" stroke-linecap="round" stroke-linejoin="round" stroke-width=".25"/><path d="M745.41,935.3l-.52,1.21,25.3,11.18h.39v-1.32l-25.17-11.07Z" fill="#2d2d2c" fill-rule="evenodd"/><g><path d="M864.48,948.05v-7.57m0,11.49v-4.03m0,0v-1.34m15.38,.11v-6.23m0,11.49v-4.03m0,0v-1.34" fill="none" stroke="#000" stroke-linecap="round" stroke-linejoin="round" stroke-width=".22"/><path d="M879.86,951.97h-15.38m15.38-11.49h-15.38m15.38,6.12h-2.72m0,0v1.34m0,0h2.72m-12.66-1.34h-2.72m0,0v1.34m0,0h2.72m-1.36,0h1.36m0,0v-1.34m9.94,.67h-9.94m9.94-.67h-9.94m0,1.34h9.94m-12.66,0h1.36m-1.36,0h0" fill="none" stroke="#000" stroke-linecap="round" stroke-linejoin="round" stroke-width=".25"/><path d="M879.86,947.94v-1.34m0,1.34v-1.34m0,5.37v-4.03m0-1.23v-6.23m-15.38,7.46v-1.34m0,1.34v-1.34m0,5.37v-4.03m0,.11v-7.57m15.38,11.49v-11.49" fill="none" stroke="#000" stroke-linecap="round" stroke-linejoin="round" stroke-width=".22"/></g><g><path d="M806.73,948.05v-7.57m0,11.49v-4.03m0,0v-1.34m15.43,.11v-6.23m0,11.49v-4.03m0,0v-1.34" fill="none" stroke="#000" stroke-linecap="round" stroke-linejoin="round" stroke-width=".22"/><path d="M822.16,951.97h-15.43m15.43-11.49h-15.43m15.43,6.12h-3.19m0,0v1.34m0,0h3.19m-12.24-1.34h-3.19m0,0v1.34m0,0h3.19m-1.59,0h1.59m0,0v-1.34m9.05,.67h-9.05m9.05-.67h-9.05m0,1.34h9.05m-12.24,0h1.6m-1.6,0h0" fill="none" stroke="#000" stroke-linecap="round" stroke-linejoin="round" stroke-width=".25"/><path d="M822.16,947.94v-1.34m0,1.34v-1.34m0,5.37v-4.03m0-1.23v-6.23m-15.43,7.46v-1.34m0,1.34v-1.34m0,5.37v-4.03m0,.11v-7.57m15.43,11.49v-11.49" fill="none" stroke="#000" stroke-linecap="round" stroke-linejoin="round" stroke-width=".22"/></g><path d="M835.85,941.34c.85,2.31,1.08,3.5,1.2,5.97" fill="none" stroke="#000" stroke-linecap="round" stroke-linejoin="round" stroke-width=".25"/><path d="M835.83,940.96l.28,.66-13.73,6.07h-.22v-.72l13.67-6.01h0Z" fill="#2d2d2c" fill-rule="evenodd"/><path d="M839.28,935.99c-1.56,4.26-1.99,6.45-2.22,10.99" fill="none" stroke="#000" stroke-linecap="round" stroke-linejoin="round" stroke-width=".25"/><path d="M839.31,935.3l-.51,1.21,25.29,11.18h.39v-1.32l-25.17-11.07Z" fill="#2d2d2c" fill-rule="evenodd"/><g><path d="M960.26,948.05v-7.57m0,11.49v-4.03m0,0v-1.34m15.38,.11v-6.23m0,11.49v-4.03m0,0v-1.34" fill="none" stroke="#000" stroke-linecap="round" stroke-linejoin="round" stroke-width=".22"/><path d="M975.64,951.97h-15.38m15.38-11.49h-15.38m15.38,6.12h-2.72m0,0v1.34m0,0h2.72m-12.67-1.34h-2.72m.01,0v1.34m0,0h2.71m-1.36,0h1.36m0,0v-1.34m9.95,.67h-9.95m9.95-.67h-9.95m0,1.34h9.95m-12.66,0h1.36m-1.36,0h0" fill="none" stroke="#000" stroke-linecap="round" stroke-linejoin="round" stroke-width=".25"/><path d="M975.64,947.94v-1.34m0,1.34v-1.34m0,5.37v-4.03m0-1.23v-6.23m-15.38,7.46v-1.34m0,1.34v-1.34m0,5.37v-4.03m0,.11v-7.57m15.38,11.49v-11.49" fill="none" stroke="#000" stroke-linecap="round" stroke-linejoin="round" stroke-width=".22"/></g><g><path d="M902.5,948.05v-7.57m0,11.49v-4.03m0,0v-1.34m15.44,.11v-6.23m0,11.49v-4.03m0,0v-1.34" fill="none" stroke="#000" stroke-linecap="round" stroke-linejoin="round" stroke-width=".22"/><path d="M917.94,951.97h-15.44m15.44-11.49h-15.44m15.44,6.12h-3.2m0,0v1.34m0,0h3.2m-12.25-1.34h-3.19m0,0v1.34m0,0h3.19m-1.59,0h1.59m0,0v-1.34m9.05,.67h-9.05m9.05-.67h-9.05m0,1.34h9.05m-12.24,0h1.6m-1.6,0h0" fill="none" stroke="#000" stroke-linecap="round" stroke-linejoin="round" stroke-width=".25"/><path d="M917.94,947.94v-1.34m0,1.34v-1.34m0,5.37v-4.03m0-1.23v-6.23m-15.44,7.46v-1.34m0,1.34v-1.34m0,5.37v-4.03m0,.11v-7.57m15.44,11.49v-11.49" fill="none" stroke="#000" stroke-linecap="round" stroke-linejoin="round" stroke-width=".22"/></g><path d="M931.62,941.34c.85,2.31,1.08,3.5,1.2,5.97" fill="none" stroke="#000" stroke-linecap="round" stroke-linejoin="round" stroke-width=".25"/><path d="M931.61,940.96l.28,.66-13.74,6.07h-.21v-.72l13.67-6.01Z" fill="#2d2d2c" fill-rule="evenodd"/><path d="M935.05,935.99c-1.56,4.26-1.99,6.45-2.22,10.99" fill="none" stroke="#000" stroke-linecap="round" stroke-linejoin="round" stroke-width=".25"/><path d="M935.08,935.3l-.51,1.21,25.29,11.18h.39v-1.32l-25.17-11.07Z" fill="#2d2d2c" fill-rule="evenodd"/><g><path d="M1058,948.05v-7.57m0,11.49v-4.03m0,0v-1.34m15.38,.11v-6.23m0,11.49v-4.03m0,0v-1.34" fill="none" stroke="#000" stroke-linecap="round" stroke-linejoin="round" stroke-width=".22"/><path d="M1073.38,951.97h-15.38m15.38-11.49h-15.38m15.38,6.12h-2.72m0,0v1.34m0,0h2.72m-12.66-1.34h-2.72m0,0v1.34m0,0h2.72m-1.36,0h1.36m0,0v-1.34m9.94,.67h-9.94m9.94-.67h-9.94m0,1.34h9.94m-12.66,0h1.36m-1.36,0h0" fill="none" stroke="#000" stroke-linecap="round" stroke-linejoin="round" stroke-width=".25"/><path d="M1073.38,947.94v-1.34m0,1.34v-1.34m0,5.37v-4.03m0-1.23v-6.23m-15.38,7.46v-1.34m0,1.34v-1.34m0,5.37v-4.03m0,.11v-7.57m15.38,11.49v-11.49" fill="none" stroke="#000" stroke-linecap="round" stroke-linejoin="round" stroke-width=".22"/></g><g><path d="M997.84,948.05v-7.57m0,11.49v-4.03m0,0v-1.34m17.84,.11v-6.23m0,11.49v-4.03m0,0v-1.34" fill="none" stroke="#000" stroke-linecap="round" stroke-linejoin="round" stroke-width=".22"/><path d="M1015.68,951.97h-17.84m17.84-11.49h-17.84m17.84,6.12h-3.2m0,0v1.34m0,0h3.2m-14.64-1.34h-3.2m0,0v1.34m0,0h3.2m-1.6,0h1.6m0,0v-1.34m11.44,.67h-11.44m11.44-.67h-11.44m0,1.34h11.44m-14.64,0h1.6m-1.6,0h0" fill="none" stroke="#000" stroke-linecap="round" stroke-linejoin="round" stroke-width=".25"/><path d="M1015.68,947.94v-1.34m0,1.34v-1.34m0,5.37v-4.03m0-1.23v-6.23m-17.84,7.46v-1.34m0,1.34v-1.34m0,5.37v-4.03m0,.11v-7.57m17.84,11.49v-11.49" fill="none" stroke="#000" stroke-linecap="round" stroke-linejoin="round" stroke-width=".22"/></g><path d="M1029.37,941.34c.85,2.31,1.08,3.5,1.2,5.97" fill="none" stroke="#000" stroke-linecap="round" stroke-linejoin="round" stroke-width=".25"/><path d="M1029.35,940.96l.28,.66-13.74,6.07h-.21v-.72l13.67-6.01Z" fill="#2d2d2c" fill-rule="evenodd"/><path d="M1032.79,935.99c-1.56,4.26-1.99,6.45-2.22,10.99" fill="none" stroke="#000" stroke-linecap="round" stroke-linejoin="round" stroke-width=".25"/><path d="M1032.82,935.3l-.51,1.21,25.3,11.18h.39v-1.32l-25.18-11.07Z" fill="#2d2d2c" fill-rule="evenodd"/><g><path d="M1151.38,948.05v-7.57m0,11.49v-4.03m0,0v-1.34m15.38,.11v-6.23m0,11.49v-4.03m0,0v-1.34" fill="none" stroke="#000" stroke-linecap="round" stroke-linejoin="round" stroke-width=".22"/><path d="M1166.76,951.97h-15.38m15.38-11.49h-15.38m15.38,6.12h-2.72m0,0v1.34m0,0h2.72m-12.66-1.34h-2.72m0,0v1.34m0,0h2.72m-1.36,0h1.36m0,0v-1.34m9.94,.67h-9.94m9.94-.67h-9.94m0,1.34h9.94m-12.66,0h1.36m-1.36,0h0" fill="none" stroke="#000" stroke-linecap="round" stroke-linejoin="round" stroke-width=".25"/><path d="M1166.76,947.94v-1.34m0,1.34v-1.34m0,5.37v-4.03m0-1.23v-6.23m-15.38,7.46v-1.34m0,1.34v-1.34m0,5.37v-4.03m0,.11v-7.57m15.38,11.49v-11.49" fill="none" stroke="#000" stroke-linecap="round" stroke-linejoin="round" stroke-width=".22"/></g><g><path d="M1096.95,948.05v-7.57m0,11.49v-4.03m0,0v-1.34m12.11,.11v-6.23m0,11.49v-4.03m0,0v-1.34" fill="none" stroke="#000" stroke-linecap="round" stroke-linejoin="round" stroke-width=".22"/><path d="M1109.06,951.97h-12.11m12.11-11.49h-12.11m12.11,6.12h-3.19m0,0v1.34m0,0h3.19m-8.91-1.34h-3.2m0,0v1.34m0,0h3.2m-1.6,0h1.6m0,0v-1.34m5.72,.67h-5.72m5.72-.67h-5.72m0,1.34h5.72m-8.92,0h1.6m-1.6,0h0" fill="none" stroke="#000" stroke-linecap="round" stroke-linejoin="round" stroke-width=".25"/><path d="M1109.06,947.94v-1.34m0,1.34v-1.34m0,5.37v-4.03m0-1.23v-6.23m-12.11,7.46v-1.34m0,1.34v-1.34m0,5.37v-4.03m0,.11v-7.57m12.11,11.49v-11.49" fill="none" stroke="#000" stroke-linecap="round" stroke-linejoin="round" stroke-width=".22"/></g><path d="M1122.75,941.34c.85,2.31,1.08,3.5,1.2,5.97" fill="none" stroke="#000" stroke-linecap="round" stroke-linejoin="round" stroke-width=".25"/><path d="M1122.73,940.96l.28,.66-13.73,6.07h-.22v-.72l13.67-6.01h0Z" fill="#2d2d2c" fill-rule="evenodd"/><path d="M1126.18,935.99c-1.56,4.26-1.99,6.45-2.22,10.99" fill="none" stroke="#000" stroke-linecap="round" stroke-linejoin="round" stroke-width=".25"/><path d="M1126.21,935.3l-.52,1.21,25.3,11.18h.39v-1.32l-25.17-11.07Z" fill="#2d2d2c" fill-rule="evenodd"/><g><path d="M1243.06,948.05v-7.57m0,11.49v-4.03m0,0v-1.34m15.38,.11v-6.23m0,11.49v-4.03m0,0v-1.34" fill="none" stroke="#000" stroke-linecap="round" stroke-linejoin="round" stroke-width=".22"/><path d="M1258.44,951.97h-15.38m15.38-11.49h-15.38m15.38,6.12h-2.72m0,0v1.34m0,0h2.72m-12.66-1.34h-2.72m0,0v1.34m0,0h2.72m-1.36,0h1.36m0,0v-1.34m9.94,.67h-9.94m9.94-.67h-9.94m0,1.34h9.94m-12.66,0h1.36m-1.36,0h0" fill="none" stroke="#000" stroke-linecap="round" stroke-linejoin="round" stroke-width=".25"/><path d="M1258.44,947.94v-1.34m0,1.34v-1.34m0,5.37v-4.03m0-1.23v-6.23m-15.38,7.46v-1.34m0,1.34v-1.34m0,5.37v-4.03m0,.11v-7.57m15.38,11.49v-11.49" fill="none" stroke="#000" stroke-linecap="round" stroke-linejoin="round" stroke-width=".22"/></g><g><path d="M1187.83,948.05v-7.57m0,11.49v-4.03m0,0v-1.34m12.91,.11v-6.23m0,11.49v-4.03m0,0v-1.34" fill="none" stroke="#000" stroke-linecap="round" stroke-linejoin="round" stroke-width=".22"/><path d="M1200.74,951.97h-12.91m12.91-11.49h-12.91m12.91,6.12h-3.19m0,0v1.34m0,0h3.19m-9.71-1.34h-3.2m0,0v1.34m0,0h3.2m-1.6,0h1.6m0,0v-1.34m6.52,.67h-6.52m6.52-.67h-6.52m0,1.34h6.52m-9.72,0h1.6m-1.6,0h0" fill="none" stroke="#000" stroke-linecap="round" stroke-linejoin="round" stroke-width=".25"/><path d="M1200.74,947.94v-1.34m0,1.34v-1.34m0,5.37v-4.03m0-1.23v-6.23m-12.91,7.46v-1.34m0,1.34v-1.34m0,5.37v-4.03m0,.11v-7.57m12.91,11.49v-11.49" fill="none" stroke="#000" stroke-linecap="round" stroke-linejoin="round" stroke-width=".22"/></g><path d="M1214.43,941.34c.85,2.31,1.08,3.5,1.2,5.97" fill="none" stroke="#000" stroke-linecap="round" stroke-linejoin="round" stroke-width=".25"/><path d="M1214.41,940.96l.28,.66-13.73,6.07h-.22v-.72l13.67-6.01h0Z" fill="#2d2d2c" fill-rule="evenodd"/><path d="M1217.86,935.99c-1.56,4.26-1.99,6.45-2.22,10.99" fill="none" stroke="#000" stroke-linecap="round" stroke-linejoin="round" stroke-width=".25"/><path d="M1217.89,935.3l-.52,1.21,25.3,11.18h.39v-1.32l-25.17-11.07Z" fill="#2d2d2c" fill-rule="evenodd"/><g><path d="M1335.58,948.05v-7.57m0,11.49v-4.03m0,0v-1.34m14.53,.11v-6.23m0,11.49v-4.03m0,0v-1.34" fill="none" stroke="#000" stroke-linecap="round" stroke-linejoin="round" stroke-width=".22"/><path d="M1350.11,951.97h-14.53m14.53-11.49h-14.53m14.53,6.12h-2.72m0,0v1.34m0,0h2.72m-11.81-1.34h-2.72m0,0v1.34m0,0h2.72m-1.36,0h1.36m0,0v-1.34m9.09,.67h-9.09m9.09-.67h-9.09m0,1.34h9.09m-11.81,0h1.36m-1.36,0h0" fill="none" stroke="#000" stroke-linecap="round" stroke-linejoin="round" stroke-width=".25"/><path d="M1350.11,947.94v-1.34m0,1.34v-1.34m0,5.37v-4.03m0-1.23v-6.23m-14.53,7.46v-1.34m0,1.34v-1.34m0,5.37v-4.03m0,.11v-7.57m14.53,11.49v-11.49" fill="none" stroke="#000" stroke-linecap="round" stroke-linejoin="round" stroke-width=".22"/></g><g><path d="M1280.35,948.05v-7.57m0,11.49v-4.03m0,0v-1.34m12.91,.11v-6.23m0,11.49v-4.03m0,0v-1.34" fill="none" stroke="#000" stroke-linecap="round" stroke-linejoin="round" stroke-width=".22"/><path d="M1293.26,951.97h-12.91m12.91-11.49h-12.91m12.91,6.12h-3.19m0,0v1.34m0,0h3.19m-9.71-1.34h-3.2m0,0v1.34m0,0h3.2m-1.6,0h1.6m0,0v-1.34m6.52,.67h-6.52m6.52-.67h-6.52m0,1.34h6.52m-9.72,0h1.6m-1.6,0h0" fill="none" stroke="#000" stroke-linecap="round" stroke-linejoin="round" stroke-width=".25"/><path d="M1293.26,947.94v-1.34m0,1.34v-1.34m0,5.37v-4.03m0-1.23v-6.23m-12.91,7.46v-1.34m0,1.34v-1.34m0,5.37v-4.03m0,.11v-7.57m12.91,11.49v-11.49" fill="none" stroke="#000" stroke-linecap="round" stroke-linejoin="round" stroke-width=".22"/></g><path d="M1306.95,941.34c.85,2.31,1.08,3.5,1.2,5.97" fill="none" stroke="#000" stroke-linecap="round" stroke-linejoin="round" stroke-width=".25"/><path d="M1306.93,940.96l.28,.66-13.74,6.07h-.21v-.72l13.67-6.01h0Z" fill="#2d2d2c" fill-rule="evenodd"/><path d="M1310.37,935.99c-1.56,4.26-1.99,6.45-2.22,10.99" fill="none" stroke="#000" stroke-linecap="round" stroke-linejoin="round" stroke-width=".25"/><path d="M1310.41,935.3l-.52,1.21,25.3,11.18h.39v-1.32l-25.17-11.07Z" fill="#2d2d2c" fill-rule="evenodd"/><path d="M152.53,142.1h57.79v16.39h-57.79v-16.39Zm1200.69,0h51.49v16.39h-51.49v-16.39Zm31.25,179.28h16.39v16.13h-16.39v-16.13Zm.72,96.5h16.39v18.3h-16.39v-18.3Z" fill="#2d2d2c"/><path d="M1371.61,409.08h16.75v29.89h-16.75v-29.89h0Z" fill="#2d2d2c"/><path d="M1388.36,548.68h-16.75v-27.63l16.75-2.03v29.66h0Zm0,110.76h-16.75l-.02-27.06,16.77-3.31v30.37Zm0,93.99h-16.75l-.02-26,16.77-3.18v29.18Zm0,93.42h-16.75l-.02-25.99,16.77-3.18v29.17Zm0,96.74h-16.75l-.02-25.69,16.77-3.48v29.17Z" fill="#2d2d2c" fill-rule="evenodd"/><path d="M1385.19,528.05h16.39v19.38h-16.39v-19.38Zm0,109.75h16.39v13.6h-16.39v-13.6Zm0,96.5h16.39v10.6h-16.39v-10.6Zm0,96.67h16.39v10.92h-16.39v-10.92Z" fill="#2d2d2c"/><path d="M1401.58,946.44l-4.73,28.28-20.98-3.6v-46.11h25.71v21.43h0ZM168.46,838.4h16.69l.02-33.28-16.71-.29v33.57h0Zm0-93.5h16.69l.02-33.28-16.71-.29v33.57h0Zm0-95.12h16.69l.02-30.9-16.71-1.05v31.95h0Zm0-108.12h16.69l.02-33.43-16.67-.87-.04,34.3h0Zm0-110.74h16.69l.02-34.24-16.67,.28-.04,33.96h0Zm0-92.74h16.69l.02-33.66-16.67,.62-.04,33.04h0Zm1.95,605.41h16.76l.02-29.76-16.78-3.61v33.37Z" fill="#2d2d2c" fill-rule="evenodd"/><path d="M206.72,951.97v-11.48h-33.38v11.48h33.38Zm105.49,0v-11.48h-22.53v11.48h22.53Zm116.12,0v-11.48h-22.95v11.48h22.95Zm93.03,0v-11.48h-22.33v11.48h22.33Zm93.29,0v-11.48h-22.58v11.48h22.58Zm98.18,0v-11.48h-20.5v11.48h20.5Zm93.9,0v-11.48h-23.49v11.48h23.49Zm95.77,0v-11.48h-22.64v11.48h22.64Zm95.34,0v-11.48h-22.2v11.48h22.2Zm99.11,0v-11.48h-23.57v11.48h23.57Zm90.88,0v-11.48h-21.07v11.48h21.07Zm92.52,0v-11.48h-21.91v11.48h21.91Zm102.19,0v-11.48h-32.43v11.48h32.43Z" fill="#2d2d2c" fill-rule="evenodd"/><path d="M157.19,821.03h16.39v17.37h-16.39v-17.37Zm0-93.17h16.39v13.35h-16.39v-13.35Zm0-93.38h16.39v13.23h-16.39v-13.23Zm0-110.33h16.39v13.85h-16.39v-13.85Zm0-112.16h16.39v15.3h-16.39v-15.3Zm0-92.67h16.39v19.32h-16.39v-19.32Z" fill="#2d2d2c"/><path d="M157.19,946.44l4.73,28.28,20.99-3.6v-38.9h-25.72v14.22Z" fill="#2d2d2c" fill-rule="evenodd"/><path d="M1361.37,311.69h27.85v21.28h-27.85v-21.28ZM411.83,176.6h7.25v110.76h-7.25v-110.76Zm369.51-5.15h8.7v115.4h-8.7v-115.4Zm10.36,666.9h6.57v106.43h-6.57v-106.43Zm-191.63,0h6.57v106.43h-6.57v-106.43Zm-188.28,0h6.57v106.43h-6.57v-106.43Zm-.73-430.92h8.47v190.11h-8.47v-190.11h0Zm722.93,1.42h6.08v17.1h-6.08v-17.1Zm0,47.33h6.08v92.5h-6.08v-92.5Zm-46.33,19.83h6.08v179.67h-6.08v-179.67h0Zm-676.6,154h8.47v37.19h-8.47v-37.19Zm.73,68.08h7.74v9.86h-7.74v-9.86Z" fill="#2d2d2c"/><path d="M417.91,700.01h98.74v7.96h-98.74v-7.96h0Zm129.62,0h96.29v7.96h-96.29v-7.96Zm126.7,0h293.13v7.96h-293.13v-7.96Zm323.57,0h139.69v7.96h-139.69v-7.96h0Zm92.9-157.52h49.37v6.19h-49.37v-6.19Zm-642.46-127.89v-6.33h190.49v6.33h-190.49Zm219.21,.58v-6.33h245.34v6.33h-245.34Zm274.06,0v-6.33h198.57v6.33h-198.57Z" fill="#2d2d2c"/></g></svg>