<svg xmlns="http://www.w3.org/2000/svg" width="489.717" height="623.24" viewBox="0 0 367.289 467.431"><defs><pattern id="Новый_узор_3" data-name="Новый узор 3" width="35.15" height="35.15" patternTransform="translate(-7.256 -21.209)" patternUnits="userSpaceOnUse"><path class="cls-1" d="M0 0h35.15v35.15H0z"/><path class="cls-2" d="M35.149 35.15h35.15V70.3h-35.15z"/><path class="cls-2" d="M0 35.15h35.15V70.3H0zM-35.15 35.15H0V70.3h-35.15z"/><path class="cls-2" d="M35.149.001h35.15v35.15h-35.15z"/><path class="cls-2" d="M0 .001h35.15v35.15H0zM-35.15.001H0v35.15h-35.15zM35.149-35.149h35.15V.001h-35.15z"/><path class="cls-2" d="M0-35.149h35.15V.001H0zM-35.15-35.149H0V.001h-35.15z"/></pattern><pattern id="Новый_узор_4" data-name="Новый узор 4" width="9.822" height="9.822" patternTransform="translate(-4.109 -8.736)" patternUnits="userSpaceOnUse"><path class="cls-1" d="M0 0h9.822v9.822H0z"/><path class="cls-3" d="M14.733 19.647L9.82 14.735l4.913-4.913 4.912 4.913-4.912 4.912z"/><path class="cls-3" d="M4.911 19.647l-4.913-4.912 4.913-4.913 4.912 4.913-4.912 4.912z"/><path class="cls-3" d="M-4.912 19.647l-4.912-4.912 4.912-4.913 4.913 4.913-4.913 4.912zM14.733 9.825L9.82 4.912 14.733 0l4.912 4.912-4.912 4.913z"/><path class="cls-3" d="M4.911 9.825L-.002 4.912 4.911 0l4.912 4.912-4.912 4.913z"/><path class="cls-3" d="M-4.912 9.825l-4.912-4.913L-4.912 0 .001 4.912l-4.913 4.913zM14.733.003L9.82-4.91l4.913-4.912 4.912 4.912L14.733.003z"/><path class="cls-3" d="M4.911.003L-.002-4.91l4.913-4.912L9.823-4.91 4.911.003z"/><path class="cls-3" d="M-4.912.003L-9.824-4.91l4.912-4.912L.001-4.91-4.912.003z"/></pattern><pattern id="Новый_узор_5" data-name="Новый узор 5" width="22.872" height="23.072" patternTransform="translate(-8.441 -10.048)" patternUnits="userSpaceOnUse"><path class="cls-1" d="M0 0h22.872v23.072H0z"/><path class="cls-4" d="M22.664 17.512v11.12H.208v-11.12h22.456m.108-.108H.1V28.74h22.672V17.4zM22.664 5.976V17.1H.208V5.976h22.456m.108-.108H.1V17.2h22.672V5.868zM22.664-5.56V5.56H.208V-5.56h22.456m.108-.108H.1V5.668h22.672V-5.668z"/></pattern><style>.cls-1,.cls-10,.cls-12,.cls-14,.cls-2,.cls-3,.cls-4,.cls-9{fill:none}.cls-2{stroke:#ededed}.cls-10,.cls-12,.cls-2,.cls-3,.cls-9{stroke-linecap:round;stroke-linejoin:round}.cls-12,.cls-2,.cls-3,.cls-9{stroke-width:.4px}.cls-3,.cls-4{stroke:#e6e6e6}.cls-12,.cls-13,.cls-3,.cls-5{fill-rule:evenodd}.cls-4{stroke-miterlimit:10;stroke-width:.2px}.cls-5{fill:#fff}.cls-10,.cls-12,.cls-9{stroke:#000}.cls-10{stroke-width:.388px}.cls-14{stroke:gray;stroke-width:.6px;stroke-miterlimit:22.926}</style></defs><g id="_101" data-name="101"><path id="fon" class="cls-5" d="M346.963 321.1H303.4V.228H15.766v329.616L.789 363.681a44.859 44.859 0 0014.977 3.019v100.5H303.4v-25.18h43.567z"/><path stroke="#dcdcdc" fill="url(#Новый_узор_3)" stroke-width=".4" stroke-linecap="round" stroke-linejoin="round" d="M346.963 321.104h-43.567V.228H15.766v466.975h287.63V442.02h43.567V321.104z" id="grid"/><g id="wet_zones" data-name="wet zones" fill-rule="evenodd"><path fill="url(#Новый_узор_4)" d="M102.297 375.138v21.916H24.836v37.785h14.735v21.351H59.22v-4.552h43.077v4.552h39.296v-81.052h-39.296z"/><path fill="url(#Новый_узор_5)" d="M89.449 11.619H24.835v95.426h15.114v-4.535h49.5V11.619z"/></g><g id="walls"><path class="cls-9" d="M295.951 44.13h-15.492M303.509 44.13h-5.668M297.841 44.13h-1.89M295.951 127.26h-15.492M303.509 127.26h-5.668M297.841 127.26h-1.89M303.509 127.26V44.13M280.459 127.26V44.13M295.951 127.26v-3.778M295.951 123.481h1.89M297.841 123.481v3.778M297.841 72.47v1.89M297.841 74.359h-1.89M295.951 74.359v-1.89M296.895 123.481V74.359M295.951 123.481V74.359M297.841 74.359v49.122M295.951 72.47v-.944M295.951 71.525h.944M296.895 71.525v-.945M296.895 70.58h.945M297.841 70.58v1.89M297.841 44.13v3.779M297.841 47.909h-.945M296.895 47.909v-.945M296.895 46.964h-.944M295.951 46.964V44.13M297.841 47.909V70.58M295.006 68.691V49.798M295.006 71.525v-2.834M295.006 68.691h1.89M296.895 68.691v2.834M296.895 71.525h-1.889M296.895 46.964v2.834M296.895 49.798h-1.889M295.006 49.798v-2.834M295.006 46.964h1.89M296.895 49.798v18.893M295.006 68.691V49.798M295.951 68.691V49.798M297.841 127.26h-1.89M297.841 127.26h-1.89M303.509 127.26h-5.668M295.951 127.26h-15.492M297.841 44.13h-1.89M297.841 44.13h-1.89M303.509 44.13h-5.668M295.951 44.13h-15.492M303.509 127.26h-23.05M295.951 261.401h-15.492M303.509 261.401h-5.668M297.841 261.401h-1.89M295.951 195.275h-15.492M303.509 195.275h-5.668M297.841 195.275h-1.89M303.509 195.275v66.126M280.459 195.275v66.126M295.951 195.275v3.778M295.951 199.054h1.89M297.841 199.054v-3.778M297.841 233.061v-1.889M297.841 231.172h-1.89M295.951 231.172v1.89M296.895 199.054v32.118M295.951 199.054v32.118M297.841 231.172v-32.118M295.951 233.061v.945M295.951 234.006h.944M296.895 234.006v.944M296.895 234.951h.945M297.841 234.951v-1.889M297.841 261.401v-3.779M297.841 257.622h-.945M296.895 257.622v.946M296.895 258.567h-.944M295.951 258.567v2.834M297.841 257.622V234.95M295.006 236.84v18.893M295.006 234.006v2.834M295.006 236.84h1.89M296.895 236.84v-2.834M296.895 234.006h-1.889M296.895 258.567v-2.834M296.895 255.733h-1.889M295.006 255.733v2.834M295.006 258.567h1.89M296.895 255.733V236.84M295.006 236.84v18.893M295.951 236.84v18.893M297.841 195.275h-1.89M297.841 195.275h-1.89M303.509 195.275h-5.668M295.951 195.275h-15.492M297.841 261.401h-1.89M297.841 261.401h-1.89M303.509 261.401h-5.668M295.951 261.401h-15.492M303.509 261.401h-23.05M295.951 339.996h-15.492M303.509 339.996h-5.668M297.841 339.996h-1.89M295.951 423.127h-15.492M303.509 423.127h-5.668M297.841 423.127h-1.89M303.509 423.127v-83.13M280.459 423.127v-83.13M295.951 423.127v-3.779M295.951 419.348h1.89M297.841 419.348v3.779M297.841 383.451v1.889M297.841 385.34h-1.89M295.951 385.34v-1.889M296.895 419.348v-34.007M295.951 419.348v-34.007M297.841 385.34v34.007M295.951 383.451v-.945M295.951 382.506h.944M296.895 382.506v-.945M296.895 381.561h.945M297.841 381.561v1.891M297.841 339.996v3.78M297.841 343.775h-.945M296.895 343.775v-.944M296.895 342.831h-.944M295.951 342.831v-2.834M297.841 343.775v37.786M295.006 379.672v-34.008M295.006 382.506v-2.834M295.006 379.672h1.89M296.895 379.672v2.834M296.895 382.506h-1.889M296.895 342.831v2.833M296.895 345.665h-1.889M295.006 345.665v-2.834M295.006 342.831h1.89M296.895 345.665v34.007M295.006 379.672v-34.008M295.951 379.672v-34.008M295.006 342.831l-28.055 28.055M266.951 370.886a39.68 39.68 0 0028.056 11.62"/><path class="cls-10" d="M295.951 419.348l-29-25.905M266.951 393.443a40.939 40.939 0 0128.056-10.953"/><path class="cls-9" d="M297.841 423.127h-1.89M297.841 423.127h-1.89M303.509 423.127h-5.668M295.951 423.127h-15.492M297.841 339.996h-1.89M297.841 339.996h-1.89M303.509 339.996h-5.668M295.951 339.996h-15.492M303.509 423.127h-23.05M346.963 442.02h-43.454m0 0V321.1m0 0h43.454m0 0v120.92"/><path d="M280.459 423.127h23.05v44.021H190.953V456.19h89.506v-33.063zM15.766 467.148V366.712h1.511v-.454h7.558v100.89zM24.835.283v327.432h-7.558v-.453h-1.511V.283zm278.674 0v43.846h-23.05V.283zM190.621 161.457h89.838v-34.2h23.05v68.014h-23.05v-24.746h-89.838v-9.068zm89.838 99.943h23.05V340h-23.05z" stroke-width=".5" stroke="#000" fill-rule="evenodd" stroke-linecap="round" stroke-linejoin="round"/><path class="cls-12" d="M78.381 83.5a30.717 30.717 0 0011.068 2.27"/><path class="cls-13" d="M78.291 83.461l1.387.6L90.96 58.11v-.452h-1.511L78.291 83.461z"/><path class="cls-12" d="M132.668 148.9a35.479 35.479 0 012.578 12.559"/><path class="cls-13" d="M132.626 148.798l-29.271 12.659v1.51h.453l29.418-12.781-.6-1.388z"/><path class="cls-12" d="M78.386 140.748a31.281 31.281 0 0011.063 2.268"/><path class="cls-13" d="M78.291 140.707l1.387.599 11.282-25.95v-.453h-1.511l-11.158 25.804z"/><path class="cls-12" d="M.2 363.511a43.349 43.349 0 0015.565 3.2"/><path class="cls-13" d="M.107 363.471l1.388.6 15.782-36.356v-.453l-1.512.001L.107 363.471z"/><path class="cls-12" d="M114.193 384.707a28.912 28.912 0 01-1.959-9.569"/><path class="cls-13" d="M114.232 384.797l22.336-9.659v-1.511h-.453l-22.483 9.783.6 1.387z"/><path class="cls-12" d="M157.179 367.715a34.937 34.937 0 01-12.562 2.587"/><path class="cls-13" d="M157.275 367.682l-12.658-29.272h-1.512v.453l12.782 29.419 1.388-.6z"/></g><g id="wall_2" data-name="wall 2"><path class="cls-5" d="M280.459.283v11.336H92.47V58.11h-1.51v-.452h-1.51V11.619H24.835V.283zM89.45 143.016h1.51v-.453h1.512v18.894h10.885v1.51h.453v7.557H24.835v-9.068h19.27v-13.98h-19.27v-3.023h22.293v17h42.32v-18.441zm3.022-27.66H90.96v-.456h-1.51v-4.836H24.835v-3.022h15.113v-4.532h49.5V85.77h1.51v-.454h1.512v30.04zm-49.5-9.823v1.512h46.476v-1.512zm98.623 269.6h-5.025v-1.511h-.453v-1.512h5.478v-2.267h1.505v.453h1.512v85.894h46.336v10.958H24.835V456.19h11.712v-18.327H24.835v-3.024h14.736V456.19H59.22v-4.552h44.657v4.552h37.709v-81.052zM62.462 454.66v1.53h38.4v-1.53zm72.784-293.2v1.51h-.453v7.557h55.828v-9.068zM99.274 372.115v21.915H24.836v3.024H102.3v-21.916h9.937v-1.511h.453v-1.512zM37.3 271.414H24.835v-3.022h15.492v40.431h59.7v3.023H24.835v-3.023H37.3v-37.409zm107.314 40.432v26.564H143.1v.453h-1.512v-30.04h138.871v3.023z"/><path class="cls-14" d="M27.21.28l-2.38 2.1M34.64.28l-9.81 8.64M42.06.28L29.19 11.62M49.49.28L36.61 11.62M56.91.28L44.04 11.62M64.33.28L51.46 11.62M71.76.28L58.88 11.62M79.17.28L66.3 11.62M86.6.28L73.72 11.62M94.02.28L81.15 11.62M101.44.28L88.57 11.62M108.86.28L95.99 11.62M92.47 14.72l-3.02 2.66M116.29.28l-12.87 11.34M92.47 21.26l-3.02 2.66M123.7.28l-12.87 11.34M92.47 27.79l-3.02 2.67M131.13.28l-12.87 11.34M92.47 34.33L89.45 37M138.55.28l-12.87 11.34M92.47 40.87l-3.02 2.67M145.98.28L133.1 11.62M92.47 47.41l-3.02 2.67M153.4.28l-12.87 11.34M92.47 53.95l-3.02 2.67M32.21 107.04l-3.44 3.03M160.82.28l-12.87 11.34M44.77 102.51l-4.82 4.25M39.63 107.04l-3.44 3.03M168.25.28l-12.88 11.34M47.05 107.04l-3.44 3.03M52.2 102.51l-3.43 3.02M175.66.28l-12.87 11.34M54.47 107.04l-3.44 3.03M59.61 102.51l-3.43 3.02M183.08.28l-12.87 11.34M61.89 107.04l-3.44 3.03M67.04 102.51l-3.43 3.02M190.51.28l-12.87 11.34M92.47 86.64l-3.02 2.67M69.32 107.04l-3.44 3.03M26.85 144.45l-2.02 1.78M74.46 102.51l-3.43 3.02M197.93.28l-12.87 11.34M81.88 102.51l-3.42 3.02M34.28 144.45l-3.44 3.03M76.74 107.04l-3.44 3.03M92.47 93.18l-3.02 2.67M92.47 99.72l-3.02 2.66M84.16 107.04l-3.44 3.03M41.7 144.45l-3.44 3.03M89.31 102.51l-3.43 3.02M205.35.28l-12.87 11.34M212.78.28l-12.87 11.34M47.13 146.2l-3.02 2.66M29.81 161.46l-4.98 4.39M92.47 106.26l-4.32 3.81M220.19.28l-12.87 11.34M92.47 112.79l-2.39 2.11M37.23 161.46l-10.29 9.06M47.13 152.74l-3.02 2.66M227.62.28l-12.88 11.34M47.13 159.28l-12.76 11.24M235.04.28l-12.87 11.34M52.07 161.46l-10.28 9.06M242.47.28l-12.88 11.34M59.5 161.46l-10.29 9.06M249.89.28l-12.87 11.34M66.92 161.46l-10.28 9.06M257.31.28l-12.87 11.34M92.47 145.49l-3.02 2.66M74.34 161.46l-10.28 9.06M264.74.28l-12.88 11.34M81.77 161.46l-10.29 9.06M92.47 152.03l-3.02 2.66M272.15.28l-12.87 11.34M89.18 161.46l-10.28 9.06M92.47 158.56l-3.02 2.67M279.57.28L266.7 11.62M96.61 161.46l-10.29 9.06M280.46 6.04l-6.34 5.58M103.35 162.06l-9.6 8.46M103.81 168.2l-2.64 2.32M141.14 161.46l-6.35 5.59M27.18 268.39l-2.35 2.07M148.56 161.46l-10.28 9.06M34.6 268.39l-3.42 3.02M155.99 161.46l-10.29 9.06M40.33 269.88l-3.03 2.67M163.41 161.46l-10.28 9.06M40.33 276.42l-3.03 2.67M170.83 161.46l-10.28 9.06M178.25 161.46l-10.29 9.06M40.33 282.96l-3.03 2.67M185.67 161.46l-10.28 9.06M40.33 289.5l-3.03 2.67M190.62 163.64l-7.81 6.88M25.82 308.82l-.99.87M40.33 296.04l-3.03 2.67M190.62 170.18l-.38.34M40.33 302.58l-3.03 2.67M33.24 308.82l-3.44 3.03M40.67 308.82l-3.44 3.03M48.09 308.82l-3.44 3.03M55.51 308.82l-3.44 3.03M62.93 308.82l-3.44 3.03M70.35 308.82l-3.44 3.03M77.78 308.82l-3.44 3.03M85.2 308.82l-3.44 3.03M92.62 308.82l-3.44 3.03M100.03 308.83l-3.43 3.02M25.58 394.03l-.74.65M33 394.03l-3.43 3.02M40.43 394.03L37 397.05M144.58 308.82l-2.99 2.63M47.85 394.03l-3.43 3.02M144.62 315.32l-3.03 2.66M151.99 308.82l-3.44 3.03M55.27 394.03l-3.43 3.02M144.62 321.85l-3.03 2.67M159.42 308.82l-3.44 3.03M62.69 394.03l-3.43 3.02M144.62 328.39l-3.03 2.67M166.84 308.82l-3.44 3.03M70.11 394.03l-3.43 3.02M174.26 308.82l-3.43 3.03M144.62 334.94l-3.03 2.66M102.42 372.11l-3.15 2.78M31.21 434.84l-3.43 3.02M77.54 394.03l-3.43 3.02M181.69 308.82l-3.44 3.03M109.84 372.11l-3.44 3.03M84.96 394.03l-3.43 3.02M38.63 434.84l-3.42 3.02M102.3 378.76l-3.03 2.66M189.11 308.82l-3.44 3.03M92.38 394.03l-3.42 3.02M39.57 440.55l-3.02 2.67M102.3 385.29l-3.03 2.67M196.53 308.82l-3.43 3.03M102.3 391.83l-5.92 5.22M29.24 456.19l-4.41 3.89M39.57 447.09l-3.02 2.66M203.95 308.82l-3.44 3.03M39.57 453.63l-14.74 12.98M211.37 308.82l-3.44 3.03M142.09 369.85l-.5.44M139.53 372.11l-2.96 2.61M44.08 456.19l-12.44 10.96M218.8 308.82l-3.44 3.03M51.51 456.19l-12.44 10.96M144.62 374.16l-3.03 2.67M144.62 380.7l-3.03 2.67M226.22 308.82l-3.44 3.03M64.1 451.64l-4.88 4.29M58.93 456.19l-12.44 10.96M144.62 387.24l-3.03 2.67M233.64 308.82l-3.44 3.03M66.35 456.19l-12.44 10.96M71.52 451.64l-3.43 3.02M144.62 393.78l-3.03 2.67M241.07 308.82l-3.44 3.03M73.78 456.19l-12.44 10.96M78.94 451.64l-3.42 3.02M144.62 400.32l-3.03 2.66M248.48 308.82l-3.44 3.03M81.19 456.19l-12.44 10.96M86.36 451.64l-3.43 3.02M144.62 406.85l-3.03 2.67M255.91 308.82l-3.44 3.03M88.62 456.19l-12.44 10.96M93.78 451.64l-3.43 3.02M144.62 413.39l-3.03 2.67M263.33 308.82l-3.44 3.03M96.04 456.19L83.6 467.15M101.2 451.64l-3.42 3.02M144.62 419.94l-3.03 2.66M270.75 308.82l-3.44 3.03M103.88 455.82l-12.86 11.33M144.62 426.47l-3.03 2.67M278.18 308.82l-3.44 3.03M110.89 456.19l-12.44 10.96M144.62 433.01l-3.03 2.67M118.31 456.19l-12.44 10.96M144.62 439.55l-3.03 2.67M125.73 456.19l-12.44 10.96M144.62 446.09l-3.03 2.67M133.15 456.19l-12.44 10.96M144.62 452.63l-3.03 2.66M140.57 456.19l-12.44 10.96M148 456.19l-12.44 10.96M155.42 456.19l-12.44 10.96M162.84 456.19l-12.44 10.96M170.27 456.19l-12.44 10.96M177.68 456.19l-12.44 10.96M185.11 456.19l-12.45 10.96M190.95 457.58l-10.86 9.57M190.95 464.12l-3.44 3.03"/><path d="M280.459.283v11.336H92.47V56.6h0v1.51h-1.51v-.452h-1.51V56.6h0V11.619H24.835V.283zM89.45 143.016h1.51v-.453h1.512v18.894h10.885v1.51h.453v7.557H24.835v-9.068h19.27v-13.98h-19.27v-3.023h22.293v17h42.32v-18.441zm3.022-27.66H90.96v-.456h-1.51v-4.836H24.835v-3.022h15.113v-4.532h49.5V85.77h1.51v-.454h1.512v30.04zm-49.5-9.823h46.476v1.512H42.97v-1.512zm98.623 269.6h-5.025v-1.511h-.453v-1.512h5.478v-2.267h1.505v.453h1.512v85.894h46.336v10.958H24.835V456.19h11.712v-18.327H24.835v-3.024h14.736v3.024h0v18.327H59.22v-4.552h44.657v3.022h0v1.53h37.709v-81.052zM62.462 454.66h38.4v1.53h-38.4v-1.53zm72.784-293.2v1.51h-.453v7.557h55.828v-9.068zM99.274 372.115h13.413v1.512h-.453v1.511H102.3v21.916H24.836v-3.024h74.438v-21.915zM37.3 271.414H24.835v-3.022h15.492v40.431h59.7v3.023H24.835v-3.023H37.3v-37.409zm107.314 40.432v26.564H143.1v.453h-1.512v-30.04h138.871v3.023z" stroke-width=".567" stroke-miterlimit="22.926" stroke="#000" fill-rule="evenodd" fill="none"/></g></g><g id="sizes"><path class="cls-9" d="M346.963 306.597v17.074" id="LINE"/><path class="cls-9" d="M303.747 306.568l43.216.032" id="LINE-2" data-name="LINE"/><path d="M314.56 318.685h-1.395v-8.422l-1.415.869v-1.443l1.415-.943h1.395zM316.665 317.475l3.466-4.621a3.454 3.454 0 00.468-.823 2.19 2.19 0 00.168-.8v-.014a1.205 1.205 0 00-.349-.922 1.39 1.39 0 00-.991-.329 1.371 1.371 0 00-.985.36 1.629 1.629 0 00-.458 1.015v.006h-1.442v-.006a3.721 3.721 0 01.5-1.459 2.559 2.559 0 01.981-.923 2.93 2.93 0 011.388-.319 3.456 3.456 0 011.518.305 2.136 2.136 0 01.957.885 2.813 2.813 0 01.328 1.4v.007a3.084 3.084 0 01-.219 1.1 4.728 4.728 0 01-.608 1.107l-2.878 3.91h3.76v1.326h-5.606zM324.769 318.043a2.862 2.862 0 01-.721-2.078v-4.519a2.843 2.843 0 115.674 0v4.519a2.856 2.856 0 01-.725 2.082 3.379 3.379 0 01-4.228 0zm3.207-.967a1.6 1.6 0 00.351-1.111v-4.519a1.6 1.6 0 00-.348-1.11 1.74 1.74 0 00-2.188 0 1.6 1.6 0 00-.349 1.11v4.519a1.6 1.6 0 00.352 1.111 1.735 1.735 0 002.182 0zM332.493 318.043a2.867 2.867 0 01-.721-2.078v-4.519a2.852 2.852 0 01.725-2.081 3.391 3.391 0 014.229 0 2.863 2.863 0 01.72 2.085v4.519a2.856 2.856 0 01-.724 2.082 3.38 3.38 0 01-4.229 0zm3.207-.967a1.593 1.593 0 00.352-1.111v-4.519a1.6 1.6 0 00-.349-1.11 1.738 1.738 0 00-2.187 0 1.6 1.6 0 00-.349 1.11v4.519a1.593 1.593 0 00.352 1.111 1.733 1.733 0 002.181 0z"/><path class="cls-9" d="M346.963 306.615l-1.461-1.461" id="LINE-3" data-name="LINE"/><path class="cls-9" d="M345.502 308.076l1.461-1.461" id="LINE-4" data-name="LINE"/><path class="cls-9" d="M303.747 306.513l1.461 1.461" id="LINE-5" data-name="LINE"/><path class="cls-9" d="M305.208 305.052l-1.461 1.461" id="LINE-6" data-name="LINE"/><path class="cls-9" d="M324.589 339.996h-25.705" id="LINE-7" data-name="LINE"/><path class="cls-9" d="M324.651 423.08h-25.704" id="LINE-8" data-name="LINE"/><path class="cls-9" d="M324.652 423.08l-.062-83.084" id="LINE-9" data-name="LINE"/><path d="M335.66 395.623l-4.621-3.466a3.474 3.474 0 00-.823-.468 2.19 2.19 0 00-.8-.168h-.014a1.205 1.205 0 00-.923.349 1.392 1.392 0 00-.328.991 1.365 1.365 0 00.36.984 1.623 1.623 0 001.014.458h.007v1.443h-.007a3.732 3.732 0 01-1.459-.5 2.551 2.551 0 01-.922-.982 2.923 2.923 0 01-.319-1.387 3.456 3.456 0 01.305-1.518 2.136 2.136 0 01.885-.957 2.8 2.8 0 011.4-.328h.007a3.079 3.079 0 011.1.219 4.7 4.7 0 011.108.608l3.91 2.878v-3.76h1.326v5.606zM335.66 388.39l-4.621-3.465a3.406 3.406 0 00-.823-.468 2.169 2.169 0 00-.8-.168h-.014a1.208 1.208 0 00-.923.348 1.4 1.4 0 00-.328.992 1.365 1.365 0 00.36.984 1.628 1.628 0 001.014.458h.007v1.442h-.007a3.732 3.732 0 01-1.459-.5 2.549 2.549 0 01-.922-.981 2.924 2.924 0 01-.319-1.388 3.454 3.454 0 01.305-1.517 2.131 2.131 0 01.885-.957 2.8 2.8 0 011.4-.328h.007a3.1 3.1 0 011.1.218 4.739 4.739 0 011.108.609l3.91 2.878v-3.76h1.326v5.6zM336.228 380.287a2.869 2.869 0 01-2.079.721h-4.518a2.852 2.852 0 01-2.081-.725 3.391 3.391 0 010-4.229 2.861 2.861 0 012.085-.72h4.518a2.854 2.854 0 012.082.724 3.379 3.379 0 010 4.229zm-.967-3.207a1.594 1.594 0 00-1.112-.352h-4.518a1.6 1.6 0 00-1.11.349 1.738 1.738 0 000 2.187 1.6 1.6 0 001.11.349h4.518a1.594 1.594 0 001.112-.352 1.733 1.733 0 000-2.181zM336.228 372.562a2.865 2.865 0 01-2.079.721h-4.518a2.843 2.843 0 110-5.674h4.518a2.85 2.85 0 012.082.725 3.377 3.377 0 010 4.228zm-.967-3.207a1.6 1.6 0 00-1.112-.351h-4.518a1.6 1.6 0 00-1.11.348 1.74 1.74 0 000 2.188 1.6 1.6 0 001.11.348h4.518a1.6 1.6 0 001.112-.351 1.735 1.735 0 000-2.182z"/><path class="cls-9" d="M324.59 339.996l1.461 1.462" id="LINE-10" data-name="LINE"/><path class="cls-9" d="M323.128 341.458l1.462-1.462" id="LINE-11" data-name="LINE"/><path class="cls-9" d="M324.651 423.08l-1.461-1.461" id="LINE-12" data-name="LINE"/><path class="cls-9" d="M326.113 421.619l-1.462 1.461" id="LINE-13" data-name="LINE"/><path class="cls-9" d="M324.589 195.274h-25.705" id="LINE-14" data-name="LINE"/><path class="cls-9" d="M324.651 261.401h-25.704" id="LINE-15" data-name="LINE"/><path class="cls-9" d="M324.646 261.401l-.05-66.125" id="LINE-16" data-name="LINE"/><path d="M336.87 236.955v1.394h-8.422l.868 1.415h-1.442l-.943-1.415v-1.394zM328.175 229.565l8.695 2.571v1.483l-8.613-2.57v2.529h1.429v1.394h-2.755v-5.407zM336.87 225.252v1.394h-8.422l.868 1.415h-1.442l-.943-1.415v-1.394zM336.228 222.275a2.865 2.865 0 01-2.079.721h-4.518a2.843 2.843 0 110-5.674h4.518a2.85 2.85 0 012.082.725 3.377 3.377 0 010 4.228zm-.967-3.207a1.6 1.6 0 00-1.112-.351h-4.518a1.6 1.6 0 00-1.11.348 1.74 1.74 0 000 2.188 1.6 1.6 0 001.11.348h4.518a1.6 1.6 0 001.112-.351 1.735 1.735 0 000-2.182z"/><path class="cls-9" d="M324.59 195.274l1.461 1.462" id="LINE-17" data-name="LINE"/><path class="cls-9" d="M323.128 196.736l1.462-1.462" id="LINE-18" data-name="LINE"/><path class="cls-9" d="M324.651 261.401l-1.461-1.462" id="LINE-19" data-name="LINE"/><path class="cls-9" d="M326.113 259.939l-1.462 1.462" id="LINE-20" data-name="LINE"/><path class="cls-9" d="M324.589 127.26h-25.705" id="LINE-21" data-name="LINE"/><path class="cls-9" d="M324.651 195.274h-25.704" id="LINE-22" data-name="LINE"/><path class="cls-9" d="M324.646 195.274l-.051-68.015" id="LINE-23" data-name="LINE"/><path d="M336.87 171.952v1.394h-8.422l.868 1.415h-1.442l-.943-1.415v-1.394zM336.631 168.37a2.508 2.508 0 01-.967 1.057 2.788 2.788 0 01-1.453.372h-.164a2.8 2.8 0 01-1.4-.372 2.507 2.507 0 01-.992-1 2.172 2.172 0 01-.83.845 2.242 2.242 0 01-1.145.318h-.24a2.651 2.651 0 01-1.37-.349 2.368 2.368 0 01-.916-.984 3.519 3.519 0 010-2.954 2.362 2.362 0 01.916-.984 2.651 2.651 0 011.37-.349h.24a2.2 2.2 0 011.155.326 2.149 2.149 0 01.82.857 2.583 2.583 0 011-1.008 2.728 2.728 0 011.4-.38h.164a2.788 2.788 0 011.453.372 2.5 2.5 0 01.967 1.057 3.848 3.848 0 010 3.172zm-5.67-2.324a1.25 1.25 0 00-.517-.5 1.611 1.611 0 00-.772-.178h-.1a1.5 1.5 0 00-.738.178 1.226 1.226 0 00-.5.5 1.644 1.644 0 000 1.476 1.226 1.226 0 00.5.5 1.523 1.523 0 00.745.178h.1a1.593 1.593 0 00.762-.178 1.258 1.258 0 00.513-.5 1.6 1.6 0 000-1.476zm4.48-.117a1.382 1.382 0 00-.536-.571 1.555 1.555 0 00-.8-.2h-.1a1.564 1.564 0 00-.8.2 1.39 1.39 0 00-.537.571 2 2 0 000 1.709 1.375 1.375 0 00.54.572 1.587 1.587 0 00.807.2h.1a1.532 1.532 0 00.793-.2 1.365 1.365 0 00.53-.572 1.862 1.862 0 00.188-.854 1.832 1.832 0 00-.185-.855zM334.136 161.958l-7.2-3.336v-1.436l7.116 3.254v-4.874h1.292v6.392zm-3.111-4.286v-1.361h5.852v1.361zM336.228 153.136a2.865 2.865 0 01-2.079.721h-4.518a2.843 2.843 0 110-5.674h4.518a2.854 2.854 0 012.082.725 3.377 3.377 0 010 4.228zm-.967-3.207a1.6 1.6 0 00-1.112-.351h-4.518a1.6 1.6 0 00-1.11.349 1.738 1.738 0 000 2.187 1.6 1.6 0 001.11.349h4.518a1.6 1.6 0 001.112-.352 1.735 1.735 0 000-2.182z"/><path class="cls-9" d="M324.59 127.259l1.461 1.462" id="LINE-24" data-name="LINE"/><path class="cls-9" d="M323.128 128.721l1.462-1.462" id="LINE-25" data-name="LINE"/><path class="cls-9" d="M324.651 195.274l-1.461-1.461" id="LINE-26" data-name="LINE"/><path class="cls-9" d="M326.113 193.813l-1.462 1.461" id="LINE-27" data-name="LINE"/><path class="cls-9" d="M324.589 44.129h-25.705" id="LINE-28" data-name="LINE"/><path class="cls-9" d="M324.651 127.259h-25.704" id="LINE-29" data-name="LINE"/><path class="cls-9" d="M324.652 127.259l-.062-83.13" id="LINE-30" data-name="LINE"/><path d="M335.66 98.219l-4.621-3.466a3.406 3.406 0 00-.823-.468 2.19 2.19 0 00-.8-.168h-.014a1.205 1.205 0 00-.923.349 1.392 1.392 0 00-.328.991 1.365 1.365 0 00.36.984 1.628 1.628 0 001.014.458h.007v1.443h-.007a3.732 3.732 0 01-1.459-.5 2.551 2.551 0 01-.922-.982 2.924 2.924 0 01-.319-1.388 3.454 3.454 0 01.305-1.517 2.136 2.136 0 01.885-.957 2.8 2.8 0 011.4-.328h.007a3.1 3.1 0 011.1.218 4.739 4.739 0 011.108.609l3.91 2.878v-3.76h1.326v5.606zM336.87 88.436v1.395h-8.422l.868 1.415h-1.442l-.943-1.415v-1.395zM336.621 85.114a2.293 2.293 0 01-1.025.947 3.721 3.721 0 01-1.624.325h-.007a5.545 5.545 0 01-1.162-.13 6.8 6.8 0 01-1.2-.376 3.278 3.278 0 01-.2-.089l-.195-.1-4.279-2.16v-1.5l4.956 2.536-.246-.007a1.2 1.2 0 01-.5-.5 1.572 1.572 0 01-.178-.765 2.438 2.438 0 01.349-1.327 2.174 2.174 0 011.015-.84 4.029 4.029 0 011.6-.287h.007a3.783 3.783 0 011.64.325 2.285 2.285 0 011.039.949 3.351 3.351 0 010 3zm-1.4-2.52a1.728 1.728 0 00-1.169-.358h-.007a1.966 1.966 0 00-1.288.376 1.311 1.311 0 00-.455 1.073 1.132 1.132 0 00.458.964 2.124 2.124 0 001.292.342h.007a1.708 1.708 0 001.166-.359 1.477 1.477 0 000-2.038zM336.228 78.275a2.865 2.865 0 01-2.079.721h-4.518a2.843 2.843 0 110-5.674h4.518a2.85 2.85 0 012.082.725 3.377 3.377 0 010 4.228zm-.967-3.207a1.6 1.6 0 00-1.112-.351h-4.518a1.6 1.6 0 00-1.11.348 1.74 1.74 0 000 2.188 1.6 1.6 0 001.11.348h4.518a1.6 1.6 0 001.112-.351 1.735 1.735 0 000-2.182z"/><path class="cls-9" d="M324.59 44.13l1.461 1.461" id="LINE-31" data-name="LINE"/><path class="cls-9" d="M323.128 45.591l1.462-1.461" id="LINE-32" data-name="LINE"/><path class="cls-9" d="M324.651 127.259l-1.461-1.461" id="LINE-33" data-name="LINE"/><path class="cls-9" d="M326.113 125.798l-1.462 1.461" id="LINE-34" data-name="LINE"/><path class="cls-9" d="M324.589 261.401h-25.705" id="LINE-35" data-name="LINE"/><path class="cls-9" d="M324.651 339.996h-25.704" id="LINE-36" data-name="LINE"/><path class="cls-9" d="M324.65 339.996l-.059-78.595" id="LINE-37" data-name="LINE"/><path d="M335.66 298.747l-4.621-3.466a3.474 3.474 0 00-.823-.468 2.19 2.19 0 00-.8-.168h-.014a1.205 1.205 0 00-.923.349 1.392 1.392 0 00-.328.991 1.363 1.363 0 00.36.984 1.623 1.623 0 001.014.458h.007v1.443h-.007a3.732 3.732 0 01-1.459-.5 2.551 2.551 0 01-.922-.982 2.923 2.923 0 01-.319-1.387 3.456 3.456 0 01.305-1.518 2.136 2.136 0 01.885-.957 2.8 2.8 0 011.4-.328h.007a3.079 3.079 0 011.1.219 4.7 4.7 0 011.108.608l3.91 2.878v-3.76h1.326v5.606zM336.87 288.965v1.394h-8.422l.868 1.415h-1.442l-.943-1.415v-1.394zM335.66 286.859l-4.621-3.466a3.435 3.435 0 00-.823-.467 2.169 2.169 0 00-.8-.168h-.014a1.208 1.208 0 00-.923.348 1.4 1.4 0 00-.328.991 1.366 1.366 0 00.36.985 1.628 1.628 0 001.014.458h.007v1.442h-.007a3.732 3.732 0 01-1.459-.5 2.556 2.556 0 01-.922-.981 2.927 2.927 0 01-.319-1.388 3.448 3.448 0 01.305-1.517 2.138 2.138 0 01.885-.958 2.813 2.813 0 011.4-.328h.007a3.1 3.1 0 011.1.219 4.739 4.739 0 011.108.609l3.91 2.877v-3.759h1.326v5.6zM336.228 278.756a2.869 2.869 0 01-2.079.72h-4.518a2.843 2.843 0 110-5.674h4.518a2.854 2.854 0 012.082.725 3.379 3.379 0 010 4.229zm-.967-3.207a1.594 1.594 0 00-1.112-.352h-4.518a1.6 1.6 0 00-1.11.349 1.738 1.738 0 000 2.187 1.6 1.6 0 001.11.349h4.518a1.594 1.594 0 001.112-.352 1.733 1.733 0 000-2.181z"/><path class="cls-9" d="M324.59 261.401l1.461 1.461" id="LINE-38" data-name="LINE"/><path class="cls-9" d="M323.128 262.862l1.462-1.461" id="LINE-39" data-name="LINE"/><path class="cls-9" d="M324.651 339.996l-1.461-1.461" id="LINE-40" data-name="LINE"/><path class="cls-9" d="M326.113 338.535l-1.462 1.461" id="LINE-41" data-name="LINE"/><path class="cls-9" d="M324.589 11.514h-25.705" id="LINE-42" data-name="LINE"/><path class="cls-9" d="M324.651 44.129h-25.704" id="LINE-43" data-name="LINE"/><path class="cls-9" d="M324.633 44.129l-.024-32.615" id="LINE-44" data-name="LINE"/><path d="M336.631 36.794a2.5 2.5 0 01-.967 1.056 2.788 2.788 0 01-1.453.372h-.164a2.8 2.8 0 01-1.4-.372 2.5 2.5 0 01-.992-1 2.172 2.172 0 01-.83.845 2.241 2.241 0 01-1.145.317h-.24a2.65 2.65 0 01-1.37-.348 2.364 2.364 0 01-.916-.985 3.516 3.516 0 010-2.953 2.356 2.356 0 01.916-.984 2.641 2.641 0 011.37-.349h.24a2.206 2.206 0 011.155.325 2.151 2.151 0 01.82.858 2.583 2.583 0 011-1.008 2.728 2.728 0 011.4-.38h.164a2.788 2.788 0 011.453.372 2.5 2.5 0 01.967 1.057 3.848 3.848 0 010 3.172zm-5.67-2.325a1.263 1.263 0 00-.517-.5 1.622 1.622 0 00-.772-.177h-.1a1.509 1.509 0 00-.738.177 1.238 1.238 0 00-.5.5 1.646 1.646 0 000 1.477 1.226 1.226 0 00.5.5 1.523 1.523 0 00.745.178h.1a1.593 1.593 0 00.762-.178 1.258 1.258 0 00.513-.5 1.6 1.6 0 000-1.477zm4.48-.116a1.382 1.382 0 00-.536-.571 1.555 1.555 0 00-.8-.2h-.1a1.564 1.564 0 00-.8.2 1.39 1.39 0 00-.537.571 2 2 0 000 1.709 1.381 1.381 0 00.54.572 1.6 1.6 0 00.807.2h.1a1.542 1.542 0 00.793-.2 1.371 1.371 0 00.53-.572 1.862 1.862 0 00.188-.854 1.829 1.829 0 00-.185-.855zM328.175 25.111l8.695 2.57v1.484l-8.613-2.571v2.53h1.429v1.394h-2.755v-5.407zM336.228 22.476a2.865 2.865 0 01-2.079.721h-4.518a2.843 2.843 0 110-5.674h4.518a2.85 2.85 0 012.082.725 2.82 2.82 0 01.742 2.112 2.812 2.812 0 01-.745 2.116zm-.967-3.207a1.6 1.6 0 00-1.112-.351h-4.518a1.6 1.6 0 00-1.11.348 1.4 1.4 0 00-.387 1.094 1.4 1.4 0 00.387 1.094 1.6 1.6 0 001.11.348h4.518a1.6 1.6 0 001.112-.351 1.41 1.41 0 00.386-1.091 1.411 1.411 0 00-.386-1.091z"/><path class="cls-9" d="M324.59 11.514l1.461 1.462" id="LINE-45" data-name="LINE"/><path class="cls-9" d="M323.128 12.976l1.462-1.462" id="LINE-46" data-name="LINE"/><path class="cls-9" d="M324.651 44.129l-1.461-1.461" id="LINE-47" data-name="LINE"/><path class="cls-9" d="M326.113 42.668l-1.462 1.461" id="LINE-48" data-name="LINE"/><path class="cls-9" d="M324.589 423.08h-25.705" id="LINE-49" data-name="LINE"/><path class="cls-9" d="M324.651 455.695h-25.704" id="LINE-50" data-name="LINE"/><path class="cls-9" d="M324.633 455.695l-.024-32.615" id="LINE-51" data-name="LINE"/><path d="M331.935 445.914l.246.007a1.031 1.031 0 01.462.515 2.1 2.1 0 01.146.818 2.193 2.193 0 01-.362 1.251 2.375 2.375 0 01-1.022.838 3.706 3.706 0 01-1.528.3h-.007a3.821 3.821 0 01-1.647-.324 2.293 2.293 0 01-1.039-.951 2.986 2.986 0 01-.356-1.5 2.932 2.932 0 01.362-1.5 2.328 2.328 0 011.053-.946 3.875 3.875 0 011.661-.326h.007a5.186 5.186 0 011.139.137 6.955 6.955 0 011.2.39l.182.082c.061.027.122.057.18.089l4.259 2.119v1.5zm-.862-.066a1.949 1.949 0 00-1.251-.358h-.007a1.856 1.856 0 00-1.216.358 1.42 1.42 0 000 2.038 1.856 1.856 0 001.223.359h.007a1.925 1.925 0 001.248-.359 1.393 1.393 0 000-2.038zM335.66 442.4l-4.621-3.466a3.435 3.435 0 00-.823-.467 2.169 2.169 0 00-.8-.168h-.014a1.208 1.208 0 00-.923.348 1.4 1.4 0 00-.328.991 1.366 1.366 0 00.36.985 1.628 1.628 0 001.014.458h.007v1.442h-.007a3.732 3.732 0 01-1.459-.5 2.556 2.556 0 01-.922-.981 2.927 2.927 0 01-.319-1.388 3.448 3.448 0 01.305-1.517 2.138 2.138 0 01.885-.958 2.813 2.813 0 011.4-.328h.007a3.1 3.1 0 011.1.219 4.739 4.739 0 011.108.609l3.91 2.877V436.8h1.326v5.6zM336.228 434.3a2.869 2.869 0 01-2.079.72h-4.518a2.843 2.843 0 110-5.673h4.518a2.854 2.854 0 012.082.724 3.379 3.379 0 010 4.229zm-.967-3.207a1.594 1.594 0 00-1.112-.352h-4.518a1.6 1.6 0 00-1.11.349 1.738 1.738 0 000 2.187 1.6 1.6 0 001.11.349h4.518a1.594 1.594 0 001.112-.352 1.733 1.733 0 000-2.181z"/><path class="cls-9" d="M324.59 423.08l1.461 1.461" id="LINE-52" data-name="LINE"/><path class="cls-9" d="M323.128 424.541l1.462-1.461" id="LINE-53" data-name="LINE"/><path class="cls-9" d="M324.651 455.695l-1.461-1.461" id="LINE-54" data-name="LINE"/><path class="cls-9" d="M326.113 454.234l-1.462 1.461" id="LINE-55" data-name="LINE"/><g id="LINE-56" data-name="LINE"><path class="cls-9" d="M351.433 321.291V442.02M342.129 321.104h9.304M342.129 442.02h9.304"/></g><path d="M363.946 394.622l-.3.636a2.512 2.512 0 01-.882 1.022 3.182 3.182 0 01-1.391.488v-1.422a1.5 1.5 0 00.7-.266 1.244 1.244 0 00.407-.53 1.992 1.992 0 00.133-.762 1.481 1.481 0 00-.369-1.073 1.376 1.376 0 00-1.039-.383h-.3a1.678 1.678 0 00-1.152.362 1.3 1.3 0 00-.406 1.025v.7h-1.326v-.7a1.163 1.163 0 00-.349-.9 1.4 1.4 0 00-.984-.321h-.308a1.188 1.188 0 00-.909.339 1.333 1.333 0 00-.321.96 1.469 1.469 0 00.132.635 1.21 1.21 0 00.411.475 1.846 1.846 0 00.694.284v1.409a3.626 3.626 0 01-1.4-.515 2.53 2.53 0 01-.881-.961 2.843 2.843 0 01-.3-1.333 2.754 2.754 0 01.677-1.99 2.521 2.521 0 011.907-.7h.164a2.148 2.148 0 011.3.4 2.275 2.275 0 01.806 1.141 2.014 2.014 0 01.8-1.26 2.643 2.643 0 011.586-.449h.164a3.072 3.072 0 011.484.335 2.218 2.218 0 01.936.975 3.4 3.4 0 01.321 1.541zM362.634 389.105l-4.621-3.466a3.44 3.44 0 00-.824-.467 2.165 2.165 0 00-.8-.168h-.014a1.207 1.207 0 00-.923.348 1.392 1.392 0 00-.328.992 1.368 1.368 0 00.358.984 1.634 1.634 0 001.016.458h.007v1.442h-.005a3.726 3.726 0 01-1.46-.5 2.566 2.566 0 01-.923-.981 2.924 2.924 0 01-.317-1.388 3.466 3.466 0 01.3-1.517 2.144 2.144 0 01.886-.957 2.806 2.806 0 011.4-.329h.006a3.11 3.11 0 011.1.219 4.713 4.713 0 011.107.609l3.911 2.878V383.5h1.326v5.605zM363.2 381a2.866 2.866 0 01-2.078.72h-4.518a2.858 2.858 0 01-2.083-.724 3.391 3.391 0 010-4.229 2.86 2.86 0 012.085-.72h4.518a2.558 2.558 0 012.823 2.837A2.819 2.819 0 01363.2 381zm-.968-3.207a1.589 1.589 0 00-1.11-.352h-4.518a1.6 1.6 0 00-1.112.349 1.742 1.742 0 000 2.187 1.6 1.6 0 001.112.349h4.518a1.589 1.589 0 001.11-.352 1.73 1.73 0 000-2.181zM363.2 373.277a2.862 2.862 0 01-2.078.721h-4.518a2.854 2.854 0 01-2.083-.725 3.39 3.39 0 010-4.228 2.856 2.856 0 012.085-.721h4.518a2.559 2.559 0 012.823 2.837 2.816 2.816 0 01-.747 2.116zm-.968-3.207a1.593 1.593 0 00-1.11-.351h-4.518a1.608 1.608 0 00-1.112.348 1.743 1.743 0 000 2.188 1.608 1.608 0 001.112.348h4.518a1.593 1.593 0 001.11-.351 1.731 1.731 0 000-2.182z"/><path class="cls-9" d="M351.433 442.02l-1.461-1.462" id="LINE-57" data-name="LINE"/><path class="cls-9" d="M352.894 440.558l-1.461 1.462" id="LINE-58" data-name="LINE"/><path class="cls-9" d="M351.433 321.104l1.461 1.461" id="LINE-59" data-name="LINE"/><path class="cls-9" d="M349.972 322.565l1.461-1.461" id="LINE-60" data-name="LINE"/><path class="cls-9" d="M92.472 32.293h187.987" id="LINE-61" data-name="LINE"/><path d="M173.779 27.946a2.412 2.412 0 01-.951-.854 3.411 3.411 0 01-.489-1.347v-.007h1.4v.007a1.294 1.294 0 00.437.851 1.418 1.418 0 00.944.3 1.259 1.259 0 001.035-.448 1.939 1.939 0 00.366-1.261v-.834a1.93 1.93 0 00-.366-1.254 1.259 1.259 0 00-1.035-.448 1.314 1.314 0 00-.7.2 1.953 1.953 0 00-.588.574h-1.272V18.2h5.066v1.326h-3.671v2.234a1.972 1.972 0 01.581-.329 1.922 1.922 0 01.656-.116 2.891 2.891 0 011.474.356 2.277 2.277 0 01.929 1.039 3.9 3.9 0 01.318 1.647v.834a3.792 3.792 0 01-.328 1.648 2.334 2.334 0 01-.957 1.042 3 3 0 01-1.511.359 2.931 2.931 0 01-1.338-.294zM180.682 27.5a2.868 2.868 0 01-.721-2.078V20.9a2.852 2.852 0 01.725-2.081 3.391 3.391 0 014.229 0 2.861 2.861 0 01.72 2.085v4.519a2.558 2.558 0 01-2.835 2.817 2.819 2.819 0 01-2.118-.74zm3.207-.967a1.593 1.593 0 00.352-1.111V20.9a1.6 1.6 0 00-.349-1.111 1.742 1.742 0 00-2.187 0 1.6 1.6 0 00-.349 1.111v4.519a1.593 1.593 0 00.352 1.111 1.733 1.733 0 002.181 0zM187.536 26.927L191 22.306a3.406 3.406 0 00.468-.823 2.169 2.169 0 00.168-.8v-.013a1.207 1.207 0 00-.348-.923 1.392 1.392 0 00-.992-.328 1.364 1.364 0 00-.984.359 1.629 1.629 0 00-.458 1.015v.007h-1.442a3.731 3.731 0 01.5-1.46 2.559 2.559 0 01.981-.923 2.924 2.924 0 011.388-.318 3.454 3.454 0 011.517.3 2.131 2.131 0 01.957.885 2.8 2.8 0 01.328 1.4v.007a3.108 3.108 0 01-.218 1.1 4.713 4.713 0 01-.609 1.107l-2.878 3.91h3.76v1.326h-5.6zM195.639 27.5a2.868 2.868 0 01-.721-2.078V20.9a2.852 2.852 0 01.725-2.081 3.391 3.391 0 014.229 0 2.861 2.861 0 01.72 2.085v4.519a2.558 2.558 0 01-2.837 2.823 2.819 2.819 0 01-2.116-.746zm3.207-.967a1.593 1.593 0 00.352-1.111V20.9a1.6 1.6 0 00-.349-1.111 1.742 1.742 0 00-2.187 0 1.6 1.6 0 00-.349 1.111v4.519a1.593 1.593 0 00.352 1.111 1.733 1.733 0 002.181 0z"/><path class="cls-9" d="M280.295 32.293l-1.461 1.462" id="LINE-62" data-name="LINE"/><path class="cls-9" d="M278.834 30.832l1.461 1.461" id="LINE-63" data-name="LINE"/><path class="cls-9" d="M92.472 32.293l1.461-1.461" id="LINE-64" data-name="LINE"/><path class="cls-9" d="M93.933 33.754l-1.461-1.461" id="LINE-65" data-name="LINE"/><path class="cls-9" d="M260.002 11.514v149.943" id="LINE-66" data-name="LINE"/><path d="M257.91 98.766l-.305.636a2.506 2.506 0 01-.881 1.023 3.213 3.213 0 01-1.391.488v-1.422a1.5 1.5 0 00.7-.267 1.232 1.232 0 00.407-.53 2.011 2.011 0 00.133-.762 1.483 1.483 0 00-.369-1.073 1.378 1.378 0 00-1.039-.383h-.3a1.672 1.672 0 00-1.152.363 1.3 1.3 0 00-.407 1.025v.7h-1.326v-.7a1.162 1.162 0 00-.349-.9 1.4 1.4 0 00-.984-.322h-.308a1.193 1.193 0 00-.909.339 1.339 1.339 0 00-.321.96 1.459 1.459 0 00.133.636 1.222 1.222 0 00.41.475 1.886 1.886 0 00.694.284v1.415a3.627 3.627 0 01-1.394-.516 2.534 2.534 0 01-.882-.961 2.852 2.852 0 01-.3-1.333 2.757 2.757 0 01.677-1.989 2.519 2.519 0 011.907-.7h.164a2.152 2.152 0 011.3.4 2.284 2.284 0 01.807 1.142 2.022 2.022 0 01.8-1.261 2.647 2.647 0 011.575-.451h.164a3.055 3.055 0 011.484.335 2.21 2.21 0 01.936.974 3.389 3.389 0 01.322 1.541zM257.568 91.773a2.5 2.5 0 01-.967 1.057 2.79 2.79 0 01-1.453.372h-.164a2.793 2.793 0 01-1.4-.372 2.492 2.492 0 01-.992-1 2.176 2.176 0 01-.83.844 2.245 2.245 0 01-1.145.318h-.24a2.641 2.641 0 01-1.37-.349 2.356 2.356 0 01-.916-.984 3.516 3.516 0 010-2.953 2.364 2.364 0 01.916-.985 2.65 2.65 0 011.37-.348h.24a2.2 2.2 0 011.155.325 2.162 2.162 0 01.82.857 2.576 2.576 0 011-1.008 2.734 2.734 0 011.4-.379h.164a2.79 2.79 0 011.453.372 2.5 2.5 0 01.967 1.056 3.848 3.848 0 010 3.172zm-5.668-2.324a1.242 1.242 0 00-.516-.5 1.628 1.628 0 00-.772-.178h-.1a1.5 1.5 0 00-.738.178 1.235 1.235 0 00-.5.5 1.654 1.654 0 000 1.477 1.247 1.247 0 00.5.5 1.517 1.517 0 00.745.177h.1a1.593 1.593 0 00.762-.177 1.262 1.262 0 00.512-.5 1.589 1.589 0 000-1.477zm4.481-.116a1.384 1.384 0 00-.536-.572 1.565 1.565 0 00-.8-.2h-.095a1.574 1.574 0 00-.8.2 1.386 1.386 0 00-.537.572 2 2 0 000 1.709 1.378 1.378 0 00.54.571 1.585 1.585 0 00.807.2h.1a1.535 1.535 0 00.793-.2 1.374 1.374 0 00.53-.571 1.863 1.863 0 00.188-.855 1.825 1.825 0 00-.193-.854zM252.872 81.7l.246.007a1.029 1.029 0 01.461.515 2.082 2.082 0 01.147.818 2.2 2.2 0 01-.362 1.251 2.381 2.381 0 01-1.022.838 3.706 3.706 0 01-1.528.3h-.007a3.818 3.818 0 01-1.647-.324 2.283 2.283 0 01-1.039-.951 2.986 2.986 0 01-.356-1.5 2.932 2.932 0 01.362-1.5 2.328 2.328 0 011.053-.946 3.872 3.872 0 011.661-.325h.007a5.173 5.173 0 011.138.136 6.937 6.937 0 011.2.39l.181.082c.062.027.122.057.181.089l4.259 2.119v1.5zm-.862-.066a1.949 1.949 0 00-1.251-.358h-.007a1.856 1.856 0 00-1.216.358 1.42 1.42 0 000 2.038 1.854 1.854 0 001.223.359h.007a1.925 1.925 0 001.248-.359 1.393 1.393 0 000-2.038zM257.616 76.6a2.416 2.416 0 01-.855.952 3.4 3.4 0 01-1.346.488h-.007v-1.4h.007a1.3 1.3 0 00.851-.437 1.421 1.421 0 00.3-.944 1.261 1.261 0 00-.448-1.035 1.941 1.941 0 00-1.261-.366h-.834a1.933 1.933 0 00-1.255.366 1.261 1.261 0 00-.447 1.035 1.317 1.317 0 00.205.7 1.964 1.964 0 00.574.588v1.271h-5.236v-5.062h1.326v3.671h2.235a2 2 0 01-.328-.582 1.894 1.894 0 01-.116-.656 2.9 2.9 0 01.355-1.473 2.284 2.284 0 011.039-.93 3.9 3.9 0 011.648-.317h.834a3.773 3.773 0 011.647.328 2.32 2.32 0 011.043.957 3 3 0 01.359 1.51 2.928 2.928 0 01-.29 1.336z"/><path class="cls-9" d="M260.002 161.267l-1.461-1.461" id="LINE-67" data-name="LINE"/><path class="cls-9" d="M261.464 159.806l-1.462 1.461" id="LINE-68" data-name="LINE"/><path class="cls-9" d="M260.003 11.514l1.461 1.462" id="LINE-69" data-name="LINE"/><path class="cls-9" d="M258.542 12.976l1.461-1.462" id="LINE-70" data-name="LINE"/><path class="cls-9" d="M144.825 332.549h135.634" id="LINE-71" data-name="LINE"/><path d="M200.266 328.5l-.636-.3a2.52 2.52 0 01-1.022-.882 3.178 3.178 0 01-.488-1.391h1.422a1.494 1.494 0 00.266.7 1.236 1.236 0 00.53.407 1.992 1.992 0 00.762.133 1.483 1.483 0 001.073-.369 1.376 1.376 0 00.383-1.039v-.3a1.674 1.674 0 00-.362-1.151 1.3 1.3 0 00-1.026-.408h-.7v-1.326h.7a1.167 1.167 0 00.9-.348 1.4 1.4 0 00.321-.985v-.307a1.192 1.192 0 00-.339-.91 1.341 1.341 0 00-.96-.321 1.455 1.455 0 00-.635.134 1.215 1.215 0 00-.475.41 1.855 1.855 0 00-.284.693h-1.415a3.639 3.639 0 01.515-1.394 2.541 2.541 0 01.961-.882 2.867 2.867 0 011.333-.3 2.758 2.758 0 011.99.677 2.522 2.522 0 01.7 1.907v.164a2.146 2.146 0 01-.4 1.3 2.271 2.271 0 01-1.141.807 2.022 2.022 0 011.26.8 2.645 2.645 0 01.449 1.586v.164a3.063 3.063 0 01-.335 1.483 2.214 2.214 0 01-.975.937 3.4 3.4 0 01-1.541.321zM207 328.143a2.3 2.3 0 01-.948-1.025 3.718 3.718 0 01-.324-1.624v-.007a5.545 5.545 0 01.13-1.162 6.787 6.787 0 01.376-1.2c.027-.069.057-.136.089-.2l.095-.195 2.161-4.279h1.5l-2.537 4.956.007-.246a1.212 1.212 0 01.5-.5 1.59 1.59 0 01.766-.178 2.432 2.432 0 011.326.349 2.182 2.182 0 01.841 1.015 4.05 4.05 0 01.287 1.6v.007a3.783 3.783 0 01-.325 1.64 2.285 2.285 0 01-.949 1.039 3.351 3.351 0 01-3 0zm2.519-1.4a1.728 1.728 0 00.358-1.169v-.007a1.966 1.966 0 00-.376-1.288 1.31 1.31 0 00-1.073-.455 1.133 1.133 0 00-.964.458 2.133 2.133 0 00-.341 1.292v.007a1.706 1.706 0 00.359 1.166 1.475 1.475 0 002.037 0zM212.981 325.658l3.336-7.2h1.435l-3.253 7.116h4.874v1.292h-6.392zm4.286-3.11h1.36v5.852h-1.36zM221.8 327.75a2.866 2.866 0 01-.72-2.078v-4.519a2.853 2.853 0 01.724-2.081 3.391 3.391 0 014.229 0 2.863 2.863 0 01.72 2.085v4.519a2.856 2.856 0 01-.724 2.082 3.38 3.38 0 01-4.229 0zm3.207-.967a1.593 1.593 0 00.352-1.111v-4.519a1.6 1.6 0 00-.349-1.11 1.738 1.738 0 00-2.187 0 1.6 1.6 0 00-.349 1.11v4.519a1.593 1.593 0 00.352 1.111 1.733 1.733 0 002.181 0z"/><path class="cls-9" d="M280.295 332.548l-1.461 1.462" id="LINE-72" data-name="LINE"/><path class="cls-9" d="M278.834 331.087l1.461 1.461" id="LINE-73" data-name="LINE"/><path class="cls-9" d="M144.758 332.548l1.461-1.461" id="LINE-74" data-name="LINE"/><path class="cls-9" d="M146.219 334.009l-1.461-1.461" id="LINE-75" data-name="LINE"/><path class="cls-9" d="M260.002 311.769v149.943" id="LINE-76" data-name="LINE"/><path d="M257.91 397.759s-.1.211-.305.635a2.506 2.506 0 01-.881 1.023 3.187 3.187 0 01-1.391.488v-1.422a1.509 1.509 0 00.7-.266 1.241 1.241 0 00.407-.531 2.006 2.006 0 00.133-.761 1.485 1.485 0 00-.369-1.074 1.377 1.377 0 00-1.039-.382h-.3a1.677 1.677 0 00-1.152.362 1.3 1.3 0 00-.407 1.025v.7h-1.326v-.7a1.163 1.163 0 00-.349-.9 1.4 1.4 0 00-.984-.321h-.308a1.193 1.193 0 00-.909.338 1.339 1.339 0 00-.321.96 1.456 1.456 0 00.133.636 1.215 1.215 0 00.41.475 1.87 1.87 0 00.694.284v1.415a3.627 3.627 0 01-1.394-.516 2.534 2.534 0 01-.882-.961 2.852 2.852 0 01-.3-1.333 2.757 2.757 0 01.677-1.989 2.519 2.519 0 011.907-.7h.164a2.152 2.152 0 011.3.4 2.284 2.284 0 01.807 1.142 2.022 2.022 0 01.8-1.261 2.647 2.647 0 011.586-.448h.164a3.055 3.055 0 011.484.335 2.212 2.212 0 01.936.975 3.383 3.383 0 01.322 1.541zM257.568 390.765a2.5 2.5 0 01-.967 1.057 2.79 2.79 0 01-1.453.372h-.164a2.793 2.793 0 01-1.4-.372 2.492 2.492 0 01-.992-1 2.186 2.186 0 01-.83.845 2.244 2.244 0 01-1.145.317h-.24a2.641 2.641 0 01-1.37-.349 2.356 2.356 0 01-.916-.984 3.516 3.516 0 010-2.953 2.356 2.356 0 01.916-.984 2.641 2.641 0 011.37-.349h.24a2.2 2.2 0 011.155.325 2.162 2.162 0 01.82.857 2.58 2.58 0 011-1.007 2.726 2.726 0 011.4-.38h.164a2.79 2.79 0 011.453.372 2.5 2.5 0 01.967 1.057 3.846 3.846 0 010 3.171zm-5.671-2.324a1.242 1.242 0 00-.516-.5 1.628 1.628 0 00-.772-.178h-.1a1.5 1.5 0 00-.738.178 1.235 1.235 0 00-.5.5 1.654 1.654 0 000 1.477 1.235 1.235 0 00.5.5 1.517 1.517 0 00.745.177h.1a1.593 1.593 0 00.762-.177 1.25 1.25 0 00.512-.5 1.589 1.589 0 000-1.477zm4.481-.116a1.376 1.376 0 00-.536-.571 1.555 1.555 0 00-.8-.2h-.095a1.565 1.565 0 00-.8.2 1.378 1.378 0 00-.537.571 2 2 0 000 1.709 1.378 1.378 0 00.54.571 1.585 1.585 0 00.807.2h.1a1.535 1.535 0 00.793-.2 1.374 1.374 0 00.53-.571 1.863 1.863 0 00.188-.855 1.825 1.825 0 00-.19-.854zM257.807 381.817v1.395h-8.422l.868 1.415h-1.442l-.943-1.415v-1.395zM257.616 378.122a2.413 2.413 0 01-.855.951 3.4 3.4 0 01-1.346.488h-.007v-1.394h.007a1.3 1.3 0 00.851-.438 1.419 1.419 0 00.3-.943 1.261 1.261 0 00-.448-1.035 1.941 1.941 0 00-1.261-.366h-.834a1.933 1.933 0 00-1.255.366 1.261 1.261 0 00-.447 1.035 1.314 1.314 0 00.205.7 1.953 1.953 0 00.574.588v1.272h-5.236v-5.066h1.326v3.671h2.235a1.992 1.992 0 01-.328-.581 1.9 1.9 0 01-.116-.656 2.9 2.9 0 01.355-1.474 2.289 2.289 0 011.039-.93 3.9 3.9 0 011.648-.317h.834a3.773 3.773 0 011.647.328 2.326 2.326 0 011.043.957 3 3 0 01.359 1.511 2.931 2.931 0 01-.29 1.333z"/><path class="cls-9" d="M260.002 461.522l-1.461-1.461" id="LINE-77" data-name="LINE"/><path class="cls-9" d="M261.464 460.061l-1.462 1.461" id="LINE-78" data-name="LINE"/><path class="cls-9" d="M260.003 311.769l1.461 1.462" id="LINE-79" data-name="LINE"/><path class="cls-9" d="M258.542 313.231l1.461-1.462" id="LINE-80" data-name="LINE"/><path class="cls-9" d="M24.835 191.469h255.624" id="LINE-81" data-name="LINE"/><path d="M139.754 187.064a2.285 2.285 0 01-.947-1.026 3.713 3.713 0 01-.325-1.623v-.007a5.545 5.545 0 01.13-1.162 6.761 6.761 0 01.376-1.2c.028-.069.057-.136.089-.2s.064-.131.1-.2l2.16-4.279h1.5l-2.537 4.963.007-.246a1.189 1.189 0 01.5-.5 1.572 1.572 0 01.765-.178 2.432 2.432 0 011.326.349 2.166 2.166 0 01.841 1.015 4.026 4.026 0 01.287 1.6v.007a3.783 3.783 0 01-.325 1.64 2.29 2.29 0 01-.949 1.039 3.351 3.351 0 01-3 0zm2.519-1.4a1.723 1.723 0 00.359-1.169v-.007a1.971 1.971 0 00-.376-1.289 1.315 1.315 0 00-1.073-.454 1.132 1.132 0 00-.964.458 2.124 2.124 0 00-.342 1.292v.007a1.7 1.7 0 00.359 1.165 1.474 1.474 0 002.037 0zM147.2 187.074a2.5 2.5 0 01-1.056-.967 2.79 2.79 0 01-.372-1.453v-.164a2.793 2.793 0 01.372-1.4 2.5 2.5 0 011-.992 2.179 2.179 0 01-.845-.83 2.241 2.241 0 01-.317-1.145v-.239a2.651 2.651 0 01.348-1.371 2.364 2.364 0 01.985-.916 3.516 3.516 0 012.953 0 2.356 2.356 0 01.984.916 2.642 2.642 0 01.349 1.371v.239a2.208 2.208 0 01-.325 1.155 2.158 2.158 0 01-.858.82 2.576 2.576 0 011.008 1 2.726 2.726 0 01.38 1.4v.164a2.79 2.79 0 01-.372 1.453 2.5 2.5 0 01-1.057.967 3.848 3.848 0 01-3.172 0zm2.441-1.189a1.39 1.39 0 00.571-.537 1.554 1.554 0 00.2-.8v-.1a1.567 1.567 0 00-.2-.8 1.384 1.384 0 00-.571-.537 2.007 2.007 0 00-1.709 0 1.381 1.381 0 00-.572.54 1.6 1.6 0 00-.2.807v.1a1.545 1.545 0 00.2.793 1.377 1.377 0 00.572.53 1.862 1.862 0 00.854.188 1.841 1.841 0 00.853-.184zm-.117-4.481a1.259 1.259 0 00.5-.517 1.625 1.625 0 00.177-.772v-.1a1.5 1.5 0 00-.177-.738 1.243 1.243 0 00-.5-.5 1.652 1.652 0 00-1.476 0 1.235 1.235 0 00-.5.5 1.517 1.517 0 00-.178.745v.1a1.593 1.593 0 00.178.762 1.258 1.258 0 00.5.513 1.6 1.6 0 001.476 0zM154.814 187.064a2.287 2.287 0 01-.948-1.026 3.713 3.713 0 01-.324-1.623v-.007a5.545 5.545 0 01.13-1.162 6.761 6.761 0 01.376-1.2c.027-.069.057-.136.089-.2s.063-.131.095-.2l2.161-4.279h1.5l-2.537 4.956.007-.246a1.189 1.189 0 01.5-.5 1.579 1.579 0 01.766-.178 2.432 2.432 0 011.326.349 2.177 2.177 0 01.841 1.015 4.044 4.044 0 01.287 1.6v.007a3.783 3.783 0 01-.325 1.64 2.29 2.29 0 01-.949 1.039 3.351 3.351 0 01-3 0zm2.519-1.4a1.728 1.728 0 00.358-1.169v-.007a1.971 1.971 0 00-.376-1.289 1.313 1.313 0 00-1.073-.454 1.133 1.133 0 00-.964.458 2.131 2.131 0 00-.341 1.292v.007a1.7 1.7 0 00.359 1.165 1.474 1.474 0 002.037 0zM161.652 186.671a2.868 2.868 0 01-.72-2.078v-4.519a2.856 2.856 0 01.724-2.082 3.393 3.393 0 014.229 0 2.861 2.861 0 01.72 2.085v4.519a2.853 2.853 0 01-.724 2.081 3.379 3.379 0 01-4.229 0zm3.207-.968a1.59 1.59 0 00.352-1.11v-4.519a1.6 1.6 0 00-.349-1.111 1.742 1.742 0 00-2.187 0 1.6 1.6 0 00-.349 1.111v4.519a1.59 1.59 0 00.352 1.11 1.73 1.73 0 002.181 0z"/><path class="cls-9" d="M280.295 191.469l-1.461 1.462" id="LINE-82" data-name="LINE"/><path class="cls-9" d="M278.834 190.008l1.461 1.461" id="LINE-83" data-name="LINE"/><path class="cls-9" d="M24.835 191.469l1.461-1.462" id="LINE-84" data-name="LINE"/><path class="cls-9" d="M26.296 192.93l-1.461-1.461" id="LINE-85" data-name="LINE"/><path class="cls-9" d="M260.002 170.69v138.133" id="LINE-86" data-name="LINE"/><path d="M257.91 251.7l-.305.636a2.5 2.5 0 01-.881 1.022 3.187 3.187 0 01-1.391.488v-1.421a1.5 1.5 0 00.7-.267 1.238 1.238 0 00.407-.53 2.011 2.011 0 00.133-.762 1.483 1.483 0 00-.369-1.073 1.378 1.378 0 00-1.039-.383h-.3a1.677 1.677 0 00-1.152.362 1.3 1.3 0 00-.407 1.026v.7h-1.326v-.7a1.164 1.164 0 00-.349-.9 1.4 1.4 0 00-.984-.321h-.308a1.19 1.19 0 00-.909.339 1.339 1.339 0 00-.321.96 1.462 1.462 0 00.133.636 1.219 1.219 0 00.41.474 1.853 1.853 0 00.694.284v1.415a3.611 3.611 0 01-1.394-.515 2.534 2.534 0 01-.882-.961 2.855 2.855 0 01-.3-1.333 2.754 2.754 0 01.677-1.989 2.519 2.519 0 011.907-.705h.164a2.146 2.146 0 011.3.4 2.277 2.277 0 01.807 1.141 2.02 2.02 0 01.8-1.26 2.647 2.647 0 011.586-.449h.164a3.067 3.067 0 011.484.335 2.212 2.212 0 01.936.975 3.386 3.386 0 01.322 1.541zM249.112 240.9l8.7 2.571v1.483l-8.613-2.57v2.529h1.429v1.387h-2.755v-5.4zM256.6 239.134l-4.621-3.466a3.426 3.426 0 00-.824-.468 2.181 2.181 0 00-.8-.168h-.014a1.205 1.205 0 00-.923.349 1.392 1.392 0 00-.328.991 1.368 1.368 0 00.359.984 1.626 1.626 0 001.015.458h.007v1.443h-.007a3.727 3.727 0 01-1.459-.5 2.562 2.562 0 01-.923-.982 2.923 2.923 0 01-.318-1.387 3.47 3.47 0 01.3-1.518 2.138 2.138 0 01.886-.957 2.8 2.8 0 011.4-.328h.007a3.079 3.079 0 011.1.219 4.7 4.7 0 011.108.608l3.91 2.878v-3.76h1.326v5.606zM257.165 231.03a2.865 2.865 0 01-2.079.721h-4.518a2.852 2.852 0 01-2.082-.725 3.391 3.391 0 010-4.228 2.858 2.858 0 012.085-.721h4.518a2.85 2.85 0 012.082.725 3.377 3.377 0 010 4.228zm-.968-3.207a1.6 1.6 0 00-1.111-.352h-4.518a1.605 1.605 0 00-1.111.349 1.743 1.743 0 000 2.188 1.6 1.6 0 001.111.348h4.518a1.6 1.6 0 001.111-.351 1.731 1.731 0 000-2.182z"/><path class="cls-9" d="M260.002 308.823l-1.461-1.461" id="LINE-87" data-name="LINE"/><path class="cls-9" d="M261.464 307.362l-1.462 1.461" id="LINE-88" data-name="LINE"/><path class="cls-9" d="M260.003 170.69l1.461 1.462" id="LINE-89" data-name="LINE"/><path class="cls-9" d="M258.542 172.152l1.461-1.462" id="LINE-90" data-name="LINE"/><path class="cls-9" d="M103.355 146.42v14.82" id="LINE-91" data-name="LINE"/><path class="cls-9" d="M135.246 146.42v15.036" id="LINE-92" data-name="LINE"/><path class="cls-9" d="M135.246 146.419h-31.891" id="LINE-93" data-name="LINE"/><path d="M112.529 138.081l-.007.246a1.027 1.027 0 01-.516.461 2.077 2.077 0 01-.817.147 2.189 2.189 0 01-1.251-.362 2.374 2.374 0 01-.838-1.022 3.706 3.706 0 01-.3-1.528v-.007a3.833 3.833 0 01.324-1.647 2.29 2.29 0 01.952-1.039 2.986 2.986 0 011.5-.356 2.923 2.923 0 011.5.363 2.321 2.321 0 01.946 1.052 3.876 3.876 0 01.325 1.662v.006a5.193 5.193 0 01-.137 1.139 6.865 6.865 0 01-.389 1.2c-.028.059-.055.12-.082.181s-.057.122-.089.182l-2.119 4.258h-1.5zm.065-.862a1.942 1.942 0 00.359-1.25v-.007a1.852 1.852 0 00-.359-1.217 1.419 1.419 0 00-2.037 0 1.857 1.857 0 00-.359 1.224v.006a1.925 1.925 0 00.359 1.248 1.392 1.392 0 002.037 0zM116.914 142.374a2.864 2.864 0 01-.721-2.078v-4.519a2.843 2.843 0 115.674 0v4.523a2.559 2.559 0 01-2.837 2.823 2.816 2.816 0 01-2.116-.749zm3.207-.967a1.6 1.6 0 00.351-1.111v-4.519a1.607 1.607 0 00-.348-1.111 1.743 1.743 0 00-2.188 0 1.607 1.607 0 00-.349 1.111v4.523a1.6 1.6 0 00.352 1.111 1.735 1.735 0 002.182 0zM124.638 142.374a2.868 2.868 0 01-.72-2.078v-4.519a2.852 2.852 0 01.724-2.081 3.391 3.391 0 014.229 0 2.861 2.861 0 01.72 2.085v4.519a2.558 2.558 0 01-2.837 2.823 2.819 2.819 0 01-2.116-.749zm3.207-.967a1.593 1.593 0 00.352-1.111v-4.519a1.6 1.6 0 00-.349-1.111 1.742 1.742 0 00-2.187 0 1.6 1.6 0 00-.349 1.111v4.523a1.593 1.593 0 00.352 1.111 1.733 1.733 0 002.181 0z"/><path class="cls-9" d="M103.355 146.42l1.461-1.461" id="LINE-94" data-name="LINE"/><path class="cls-9" d="M104.816 147.881l-1.461-1.461" id="LINE-95" data-name="LINE"/><path class="cls-9" d="M135.246 146.411l-1.462 1.461" id="LINE-96" data-name="LINE"/><path class="cls-9" d="M133.784 144.95l1.462 1.461" id="LINE-97" data-name="LINE"/><path class="cls-9" d="M95.634 115.357h-3.116" id="LINE-98" data-name="LINE"/><path class="cls-9" d="M95.634 142.563h-3.162" id="LINE-99" data-name="LINE"/><path class="cls-9" d="M95.634 142.563v-27.206" id="LINE-100" data-name="LINE"/><path d="M107.32 138.271a2.5 2.5 0 01-.967 1.057 2.788 2.788 0 01-1.453.372h-.164a2.8 2.8 0 01-1.4-.372 2.489 2.489 0 01-.991-1 2.179 2.179 0 01-.831.844 2.242 2.242 0 01-1.145.318h-.239a2.642 2.642 0 01-1.371-.349 2.362 2.362 0 01-.916-.984 3.526 3.526 0 010-2.953 2.371 2.371 0 01.916-.985 2.651 2.651 0 011.371-.348h.239a2.2 2.2 0 011.155.325 2.165 2.165 0 01.821.857 2.564 2.564 0 01.994-1.007 2.728 2.728 0 011.4-.38h.164a2.788 2.788 0 011.453.372 2.5 2.5 0 01.967 1.056 3.848 3.848 0 010 3.172zm-5.67-2.324a1.254 1.254 0 00-.516-.5 1.63 1.63 0 00-.773-.178h-.095a1.51 1.51 0 00-.739.178 1.226 1.226 0 00-.5.5 1.646 1.646 0 000 1.477 1.238 1.238 0 00.5.5 1.523 1.523 0 00.745.177h.1a1.593 1.593 0 00.762-.177 1.271 1.271 0 00.513-.5 1.6 1.6 0 000-1.477zm4.481-.116a1.384 1.384 0 00-.537-.571 1.552 1.552 0 00-.8-.2h-.1a1.567 1.567 0 00-.8.2 1.384 1.384 0 00-.537.571 2.007 2.007 0 000 1.709 1.384 1.384 0 00.54.571 1.59 1.59 0 00.807.2h.1a1.54 1.54 0 00.793-.2 1.366 1.366 0 00.529-.571 2.021 2.021 0 000-1.709zM106.917 131a2.866 2.866 0 01-2.078.72h-4.519a2.852 2.852 0 01-2.081-.72 3.391 3.391 0 010-4.229 2.863 2.863 0 012.085-.72h4.519a2.558 2.558 0 012.823 2.837 2.815 2.815 0 01-.749 2.112zm-.967-3.207a1.593 1.593 0 00-1.111-.352h-4.519a1.6 1.6 0 00-1.11.349 1.738 1.738 0 000 2.187 1.6 1.6 0 001.11.349h4.519a1.593 1.593 0 001.111-.352 1.733 1.733 0 000-2.181zM106.917 123.277a2.862 2.862 0 01-2.078.721h-4.519a2.843 2.843 0 110-5.674h4.519a2.559 2.559 0 012.823 2.837 2.812 2.812 0 01-.745 2.116zm-.967-3.207a1.6 1.6 0 00-1.111-.351h-4.519a1.6 1.6 0 00-1.11.348 1.74 1.74 0 000 2.188 1.6 1.6 0 001.11.348h4.519a1.6 1.6 0 001.111-.351 1.735 1.735 0 000-2.182z"/><path class="cls-9" d="M95.633 115.357l1.461 1.461" id="LINE-101" data-name="LINE"/><path class="cls-9" d="M94.172 116.818l1.461-1.461" id="LINE-102" data-name="LINE"/><path class="cls-9" d="M95.642 142.564l-1.461-1.461" id="LINE-103" data-name="LINE"/><path class="cls-9" d="M97.103 141.103l-1.461 1.461" id="LINE-104" data-name="LINE"/><path class="cls-9" d="M76.247 85.77h13.202" id="LINE-105" data-name="LINE"/><path class="cls-9" d="M76.247 57.658h13.201" id="LINE-106" data-name="LINE"/><path class="cls-9" d="M76.247 57.658V85.77" id="LINE-107" data-name="LINE"/><path d="M72.606 81.023a2.5 2.5 0 01-.967 1.057 2.786 2.786 0 01-1.452.372h-.165a2.8 2.8 0 01-1.4-.372 2.5 2.5 0 01-.991-1 2.172 2.172 0 01-.831.844 2.242 2.242 0 01-1.145.318h-.239a2.647 2.647 0 01-1.371-.349 2.362 2.362 0 01-.916-.984 3.526 3.526 0 010-2.953 2.371 2.371 0 01.916-.985 2.657 2.657 0 011.371-.348h.239a2.2 2.2 0 011.156.325 2.169 2.169 0 01.82.857 2.569 2.569 0 011-1.008 2.733 2.733 0 011.4-.379h.165a2.786 2.786 0 011.452.372 2.5 2.5 0 01.967 1.056 3.848 3.848 0 010 3.172zm-5.67-2.323a1.254 1.254 0 00-.516-.5 1.63 1.63 0 00-.773-.178h-.095a1.5 1.5 0 00-.738.178 1.222 1.222 0 00-.5.5 1.654 1.654 0 000 1.477 1.235 1.235 0 00.5.5 1.517 1.517 0 00.745.177h.1a1.593 1.593 0 00.762-.177 1.265 1.265 0 00.513-.5 1.6 1.6 0 000-1.477zm4.481-.116a1.386 1.386 0 00-.537-.572 1.561 1.561 0 00-.8-.2h-.1a1.577 1.577 0 00-.8.2 1.393 1.393 0 00-.537.572 2.007 2.007 0 000 1.709 1.38 1.38 0 00.541.571 1.583 1.583 0 00.806.2h.1a1.538 1.538 0 00.793-.2 1.366 1.366 0 00.529-.571 2.021 2.021 0 000-1.709zM72.2 73.754a2.865 2.865 0 01-2.078.72h-4.516a2.853 2.853 0 01-2.081-.724 3.389 3.389 0 010-4.229 2.86 2.86 0 012.084-.72h4.519a2.856 2.856 0 012.082.724 3.38 3.38 0 010 4.229zm-.967-3.207a1.591 1.591 0 00-1.111-.352h-4.516a1.6 1.6 0 00-1.11.349 1.738 1.738 0 000 2.187 1.6 1.6 0 001.11.349h4.519a1.591 1.591 0 001.111-.352 1.733 1.733 0 000-2.181zM72.2 66.029a2.861 2.861 0 01-2.078.721h-4.516a2.849 2.849 0 01-2.081-.725 3.388 3.388 0 010-4.228 2.857 2.857 0 012.084-.721h4.519a2.852 2.852 0 012.082.725 3.379 3.379 0 010 4.228zm-.967-3.207a1.6 1.6 0 00-1.111-.352h-4.516a1.6 1.6 0 00-1.11.349 1.74 1.74 0 000 2.188 1.6 1.6 0 001.11.348h4.519A1.6 1.6 0 0071.236 65a1.735 1.735 0 000-2.182z"/><path class="cls-9" d="M76.247 85.77l-1.461-1.461" id="LINE-108" data-name="LINE"/><path class="cls-9" d="M77.709 84.309l-1.462 1.461" id="LINE-109" data-name="LINE"/><path class="cls-9" d="M76.239 57.658l1.461 1.461" id="LINE-110" data-name="LINE"/><path class="cls-9" d="M74.777 59.119l1.462-1.461" id="LINE-111" data-name="LINE"/><path class="cls-9" d="M166.229 338.437h-22.107" id="LINE-112" data-name="LINE"/><path class="cls-9" d="M166.229 370.302h-22.107" id="LINE-113" data-name="LINE"/><path class="cls-9" d="M166.23 370.302v-31.865" id="LINE-114" data-name="LINE"/><path d="M173.743 361.14l.246.007a1.027 1.027 0 01.461.516 2.077 2.077 0 01.147.817 2.189 2.189 0 01-.362 1.251 2.367 2.367 0 01-1.022.838 3.706 3.706 0 01-1.528.3h-.007a3.818 3.818 0 01-1.647-.324 2.288 2.288 0 01-1.039-.951 2.986 2.986 0 01-.356-1.5 2.923 2.923 0 01.363-1.5 2.317 2.317 0 011.052-.947 3.872 3.872 0 011.661-.325h.007a5.177 5.177 0 011.138.137 6.933 6.933 0 011.2.389c.059.028.12.055.181.082s.122.057.181.089l4.259 2.119v1.5zm-.862-.065a1.949 1.949 0 00-1.251-.358h-.006a1.857 1.857 0 00-1.217.358 1.419 1.419 0 000 2.037 1.856 1.856 0 001.223.359h.007a1.925 1.925 0 001.248-.359 1.392 1.392 0 000-2.037zM178.036 356.756a2.868 2.868 0 01-2.078.72h-4.519a2.856 2.856 0 01-2.082-.724 3.393 3.393 0 010-4.229 2.862 2.862 0 012.085-.721h4.519a2.854 2.854 0 012.081.725 3.379 3.379 0 010 4.229zm-.968-3.207a1.59 1.59 0 00-1.11-.352h-4.519a1.6 1.6 0 00-1.111.349 1.742 1.742 0 000 2.187 1.6 1.6 0 001.111.349h4.519a1.59 1.59 0 001.11-.352 1.73 1.73 0 000-2.181zM178.036 349.031a2.868 2.868 0 01-2.078.721h-4.519a2.852 2.852 0 01-2.082-.725 3.391 3.391 0 010-4.228 2.858 2.858 0 012.085-.721h4.519a2.853 2.853 0 012.081.724 3.379 3.379 0 010 4.229zm-.968-3.207a1.6 1.6 0 00-1.11-.352h-4.519a1.605 1.605 0 00-1.111.349 1.743 1.743 0 000 2.188 1.6 1.6 0 001.111.348h4.519a1.6 1.6 0 001.11-.351 1.731 1.731 0 000-2.182z"/><path class="cls-9" d="M166.23 338.437l1.461 1.461" id="LINE-115" data-name="LINE"/><path class="cls-9" d="M164.768 339.898l1.462-1.461" id="LINE-116" data-name="LINE"/><path class="cls-9" d="M166.23 370.302l-1.462-1.462" id="LINE-117" data-name="LINE"/><path class="cls-9" d="M167.691 368.84l-1.461 1.462" id="LINE-118" data-name="LINE"/><path class="cls-9" d="M100.299 310.323h41.323" id="LINE-119" data-name="LINE"/><path d="M110.716 307.25h-1.395v-8.422l-1.415.868v-1.442l1.415-.944h1.395zM113.692 306.607a2.865 2.865 0 01-.72-2.078v-4.518a2.856 2.856 0 01.724-2.082 3.389 3.389 0 014.229 0 2.862 2.862 0 01.721 2.085v4.518a2.854 2.854 0 01-.725 2.082 3.38 3.38 0 01-4.229 0zm3.207-.967a1.591 1.591 0 00.352-1.111v-4.518a1.6 1.6 0 00-.349-1.111 1.738 1.738 0 00-2.187 0 1.6 1.6 0 00-.349 1.111v4.518a1.591 1.591 0 00.352 1.111 1.733 1.733 0 002.181 0zM120.546 306.04l3.466-4.621a3.46 3.46 0 00.468-.824 2.182 2.182 0 00.167-.8v-.014a1.207 1.207 0 00-.348-.923 1.391 1.391 0 00-.991-.328 1.369 1.369 0 00-.985.359 1.631 1.631 0 00-.458 1.015v.007h-1.442v-.007a3.727 3.727 0 01.5-1.459 2.566 2.566 0 01.981-.923 2.93 2.93 0 011.388-.318 3.456 3.456 0 011.518.3 2.152 2.152 0 01.957.885 2.82 2.82 0 01.328 1.4v.006a3.106 3.106 0 01-.219 1.1 4.745 4.745 0 01-.608 1.107l-2.878 3.911h3.759v1.326h-5.6zM128.649 306.607a2.865 2.865 0 01-.72-2.078v-4.518a2.856 2.856 0 01.724-2.082 3.389 3.389 0 014.229 0 2.862 2.862 0 01.721 2.085v4.518a2.854 2.854 0 01-.725 2.082 3.38 3.38 0 01-4.229 0zm3.207-.967a1.591 1.591 0 00.352-1.111v-4.518a1.6 1.6 0 00-.349-1.111 1.738 1.738 0 00-2.187 0 1.6 1.6 0 00-.349 1.111v4.518a1.591 1.591 0 00.352 1.111 1.733 1.733 0 002.181 0z"/><path class="cls-9" d="M141.593 310.323l-1.461 1.461" id="LINE-120" data-name="LINE"/><path class="cls-9" d="M140.132 308.862l1.461 1.461" id="LINE-121" data-name="LINE"/><path class="cls-9" d="M100.299 310.323l1.461-1.461" id="LINE-122" data-name="LINE"/><path class="cls-9" d="M101.76 311.784l-1.461-1.461" id="LINE-123" data-name="LINE"/><path class="cls-9" d="M45.364 268.313v40.51" id="LINE-124" data-name="LINE"/><path d="M58.162 297.277v1.4H49.74l.868 1.415h-1.442l-.943-1.415v-1.4zM58.162 292.622v1.394H49.74l.868 1.415h-1.442l-.943-1.415v-1.394zM56.952 290.516l-4.621-3.465a3.406 3.406 0 00-.823-.468 2.169 2.169 0 00-.8-.168H50.7a1.208 1.208 0 00-.923.348 1.4 1.4 0 00-.328.992 1.365 1.365 0 00.36.984 1.628 1.628 0 001.014.458h.007v1.442h-.01a3.732 3.732 0 01-1.459-.5 2.549 2.549 0 01-.922-.981 2.924 2.924 0 01-.319-1.388 3.454 3.454 0 01.3-1.517 2.131 2.131 0 01.885-.957 2.8 2.8 0 011.4-.328h.007a3.1 3.1 0 011.1.218 4.739 4.739 0 011.108.609l3.91 2.878v-3.76h1.326v5.605zM57.52 282.413a2.869 2.869 0 01-2.079.721h-4.518a2.852 2.852 0 01-2.081-.725 3.391 3.391 0 010-4.229 2.861 2.861 0 012.085-.72h4.518a2.854 2.854 0 012.082.724 3.379 3.379 0 010 4.229zm-.967-3.207a1.594 1.594 0 00-1.112-.352h-4.518a1.6 1.6 0 00-1.11.349 1.738 1.738 0 000 2.187 1.6 1.6 0 001.11.349h4.518a1.594 1.594 0 001.112-.352 1.733 1.733 0 000-2.181z"/><path class="cls-9" d="M45.362 308.823l-1.461-1.461" id="LINE-125" data-name="LINE"/><path class="cls-9" d="M46.823 307.362l-1.461 1.461" id="LINE-126" data-name="LINE"/><path class="cls-9" d="M45.363 268.313l1.461 1.461" id="LINE-127" data-name="LINE"/><path class="cls-9" d="M43.902 269.774l1.461-1.461" id="LINE-128" data-name="LINE"/><path class="cls-9" d="M48.638 268.313h-10.75"/><path class="cls-9" d="M88.58 393.464v-81.618" id="LINE-129" data-name="LINE"/><path d="M84.3 365.233l-4.621-3.466a3.421 3.421 0 00-.824-.467 2.165 2.165 0 00-.8-.168h-.014a1.208 1.208 0 00-.923.348 1.391 1.391 0 00-.328.991 1.369 1.369 0 00.359.985 1.631 1.631 0 001.015.458h.007v1.442h-.007a3.721 3.721 0 01-1.459-.5 2.559 2.559 0 01-.923-.981 2.927 2.927 0 01-.318-1.388 3.448 3.448 0 01.3-1.517 2.136 2.136 0 01.885-.957 2.809 2.809 0 011.4-.329h.007a3.1 3.1 0 011.1.219 4.739 4.739 0 011.108.609l3.91 2.877v-3.759H85.5v5.605zM85.507 355.451v1.394h-8.422l.868 1.416h-1.442l-.944-1.416v-1.394zM85.609 351.459l-.3.635a2.5 2.5 0 01-.882 1.023 3.178 3.178 0 01-1.391.488v-1.422a1.513 1.513 0 00.7-.266 1.239 1.239 0 00.406-.531 1.983 1.983 0 00.134-.761 1.477 1.477 0 00-.37-1.073 1.376 1.376 0 00-1.039-.383h-.3a1.677 1.677 0 00-1.152.362 1.3 1.3 0 00-.415 1.025v.705h-1.324v-.705a1.163 1.163 0 00-.349-.9 1.4 1.4 0 00-.984-.321h-.308a1.188 1.188 0 00-.909.339 1.337 1.337 0 00-.321.96 1.454 1.454 0 00.133.635 1.215 1.215 0 00.41.475 1.853 1.853 0 00.694.284v1.415a3.654 3.654 0 01-1.395-.515 2.53 2.53 0 01-.881-.961 2.855 2.855 0 01-.3-1.333 2.754 2.754 0 01.677-1.99 2.522 2.522 0 011.907-.7h.164a2.146 2.146 0 011.3.4 2.269 2.269 0 01.806 1.141 2.027 2.027 0 01.8-1.261 2.654 2.654 0 011.586-.448h.164a3.069 3.069 0 011.484.335 2.212 2.212 0 01.936.975 3.4 3.4 0 01.321 1.541zM85.315 344.352a2.4 2.4 0 01-.854.951 3.4 3.4 0 01-1.347.489h-.007V344.4h.007a1.292 1.292 0 00.851-.437 1.417 1.417 0 00.3-.944 1.261 1.261 0 00-.448-1.035 1.943 1.943 0 00-1.261-.366h-.834a1.933 1.933 0 00-1.255.366 1.261 1.261 0 00-.448 1.035 1.318 1.318 0 00.206.7 1.953 1.953 0 00.574.588v1.271h-5.232v-5.065h1.327v3.67h2.235a1.957 1.957 0 01-.328-.581 1.894 1.894 0 01-.116-.656 2.885 2.885 0 01.355-1.473 2.284 2.284 0 011.039-.93 3.9 3.9 0 011.648-.318h.834a3.776 3.776 0 011.647.329 2.326 2.326 0 011.043.957 3 3 0 01.358 1.51 2.928 2.928 0 01-.294 1.331z"/><path class="cls-9" d="M88.579 311.846l1.462 1.461" id="LINE-130" data-name="LINE"/><path class="cls-9" d="M87.118 313.307l1.461-1.461" id="LINE-131" data-name="LINE"/><path class="cls-9" d="M88.579 393.752l-1.461-1.461" id="LINE-132" data-name="LINE"/><path class="cls-9" d="M90.041 392.291l-1.462 1.461" id="LINE-133" data-name="LINE"/><path class="cls-9" d="M95.546 372.046v-60.2" id="LINE-134" data-name="LINE"/><path d="M107.974 352.172v1.394h-8.422l.868 1.415h-1.442l-.944-1.415v-1.394zM107.782 348.476a2.412 2.412 0 01-.854.951 3.4 3.4 0 01-1.347.489h-.007v-1.395h.007a1.292 1.292 0 00.851-.437 1.416 1.416 0 00.3-.944 1.261 1.261 0 00-.447-1.035 1.944 1.944 0 00-1.262-.366h-.834a1.93 1.93 0 00-1.254.366 1.261 1.261 0 00-.448 1.035 1.326 1.326 0 00.2.7 1.956 1.956 0 00.575.588v1.272h-5.228v-5.065h1.326v3.67h2.24a1.957 1.957 0 01-.328-.581 1.9 1.9 0 01-.117-.656 2.885 2.885 0 01.356-1.473 2.279 2.279 0 011.039-.93 3.9 3.9 0 011.647-.318h.834a3.778 3.778 0 011.648.329 2.323 2.323 0 011.042.957 2.989 2.989 0 01.359 1.51 2.928 2.928 0 01-.298 1.333zM108.076 340.557l-.3.636a2.516 2.516 0 01-.882 1.023 3.19 3.19 0 01-1.391.488v-1.422a1.5 1.5 0 00.7-.267 1.232 1.232 0 00.407-.53 1.992 1.992 0 00.133-.762 1.483 1.483 0 00-.369-1.073 1.376 1.376 0 00-1.039-.383h-.3a1.671 1.671 0 00-1.151.363 1.3 1.3 0 00-.407 1.025v.7h-1.326v-.7a1.166 1.166 0 00-.349-.9 1.4 1.4 0 00-.984-.322h-.318a1.192 1.192 0 00-.909.339 1.334 1.334 0 00-.321.96 1.459 1.459 0 00.133.636 1.214 1.214 0 00.41.475 1.886 1.886 0 00.694.284v1.415a3.626 3.626 0 01-1.395-.516 2.534 2.534 0 01-.882-.961 2.864 2.864 0 01-.3-1.333 2.757 2.757 0 01.676-1.989 2.521 2.521 0 011.908-.7h.164a2.156 2.156 0 011.3.4 2.276 2.276 0 01.806 1.142 2.023 2.023 0 01.8-1.261 2.645 2.645 0 011.586-.448h.164a3.051 3.051 0 011.483.335 2.207 2.207 0 01.937.974 3.4 3.4 0 01.321 1.541zM107.782 333.451a2.412 2.412 0 01-.854.951 3.41 3.41 0 01-1.347.488h-.007v-1.39h.007a1.288 1.288 0 00.851-.438 1.413 1.413 0 00.3-.943 1.261 1.261 0 00-.447-1.035 1.944 1.944 0 00-1.262-.366h-.834a1.93 1.93 0 00-1.254.366 1.261 1.261 0 00-.448 1.035 1.323 1.323 0 00.2.7 1.945 1.945 0 00.575.588v1.272h-5.228v-5.066h1.326v3.671h2.24a1.969 1.969 0 01-.328-.581 1.9 1.9 0 01-.117-.656 2.889 2.889 0 01.356-1.474 2.284 2.284 0 011.039-.93 3.911 3.911 0 011.647-.317h.834a3.778 3.778 0 011.648.328 2.329 2.329 0 011.042.957 2.993 2.993 0 01.359 1.511 2.931 2.931 0 01-.298 1.329z"/><path class="cls-9" d="M95.546 311.846l1.461 1.461" id="LINE-135" data-name="LINE"/><path class="cls-9" d="M94.085 313.307l1.461-1.461" id="LINE-136" data-name="LINE"/><path class="cls-9" d="M95.546 372.046l-1.461-1.461" id="LINE-137" data-name="LINE"/><path class="cls-9" d="M97.007 370.585l-1.461 1.461" id="LINE-138" data-name="LINE"/><path class="cls-9" d="M100.705 372.046H92.83"/><path class="cls-9" d="M24.835 384.171h74.136" id="LINE-139" data-name="LINE"/><path d="M47.575 379.887l3.466-4.621a3.416 3.416 0 00.467-.823 2.169 2.169 0 00.168-.8v-.013a1.205 1.205 0 00-.348-.923 1.392 1.392 0 00-.992-.328 1.368 1.368 0 00-.984.359 1.629 1.629 0 00-.458 1.015v.006h-1.442v-.006a3.721 3.721 0 01.5-1.459 2.559 2.559 0 01.981-.923 2.924 2.924 0 011.388-.319 3.451 3.451 0 011.517.305 2.131 2.131 0 01.957.885 2.805 2.805 0 01.329 1.4v.007a3.106 3.106 0 01-.219 1.1 4.733 4.733 0 01-.609 1.107l-2.878 3.91h3.76v1.334h-5.6zM55.678 380.455a2.866 2.866 0 01-.72-2.078v-4.519a2.853 2.853 0 01.724-2.081 3.391 3.391 0 014.229 0 2.863 2.863 0 01.72 2.085v4.519a2.856 2.856 0 01-.724 2.082 3.38 3.38 0 01-4.229 0zm3.207-.967a1.593 1.593 0 00.352-1.111v-4.519a1.6 1.6 0 00-.349-1.11 1.738 1.738 0 00-2.187 0 1.6 1.6 0 00-.349 1.11v4.519a1.593 1.593 0 00.352 1.111 1.733 1.733 0 002.181 0zM63.4 380.455a2.862 2.862 0 01-.721-2.078v-4.519a2.849 2.849 0 01.725-2.081 3.39 3.39 0 014.228 0 2.859 2.859 0 01.721 2.085v4.519a2.852 2.852 0 01-.725 2.082 3.379 3.379 0 01-4.228 0zm3.207-.967a1.6 1.6 0 00.351-1.111v-4.519a1.6 1.6 0 00-.348-1.11 1.74 1.74 0 00-2.188 0 1.6 1.6 0 00-.348 1.11v4.519a1.6 1.6 0 00.351 1.111 1.735 1.735 0 002.182 0zM71.127 380.455a2.866 2.866 0 01-.72-2.078v-4.519a2.853 2.853 0 01.724-2.081 3.391 3.391 0 014.229 0 2.863 2.863 0 01.721 2.085v4.519a2.856 2.856 0 01-.725 2.082 3.38 3.38 0 01-4.229 0zm3.208-.967a1.6 1.6 0 00.351-1.111v-4.519a1.6 1.6 0 00-.349-1.11 1.738 1.738 0 00-2.187 0 1.6 1.6 0 00-.349 1.11v4.519a1.593 1.593 0 00.352 1.111 1.735 1.735 0 002.182 0z"/><path class="cls-9" d="M98.971 384.171l-1.461 1.461" id="LINE-140" data-name="LINE"/><path class="cls-9" d="M97.51 382.709l1.461 1.462" id="LINE-141" data-name="LINE"/><path class="cls-9" d="M24.835 384.171l1.461-1.462" id="LINE-142" data-name="LINE"/><path class="cls-9" d="M26.296 385.632l-1.461-1.461" id="LINE-143" data-name="LINE"/><path class="cls-9" d="M34.836 327.715H24.295" id="LINE-144" data-name="LINE"/><path class="cls-9" d="M34.836 366.258H23.997" id="LINE-145" data-name="LINE"/><path class="cls-9" d="M34.836 327.715l1.461 1.462" id="LINE-146" data-name="LINE"/><path class="cls-9" d="M33.375 329.177l1.461-1.462" id="LINE-147" data-name="LINE"/><path class="cls-9" d="M34.837 366.258v-38.543" id="LINE-148" data-name="LINE"/><path d="M47.515 355.941v1.4h-8.422l.868 1.415h-1.442l-.943-1.415v-1.4zM47.515 351.286v1.394h-8.422l.868 1.415h-1.442l-.943-1.415v-1.394zM46.873 348.309a2.865 2.865 0 01-2.079.721h-4.518a2.852 2.852 0 01-2.082-.725 3.391 3.391 0 010-4.228 2.858 2.858 0 012.085-.721h4.518a2.85 2.85 0 012.082.725 3.377 3.377 0 010 4.228zm-.968-3.207a1.6 1.6 0 00-1.111-.351h-4.518a1.6 1.6 0 00-1.111.348 1.743 1.743 0 000 2.188 1.605 1.605 0 001.111.349h4.518a1.6 1.6 0 001.111-.352 1.731 1.731 0 000-2.182zM46.873 340.585a2.869 2.869 0 01-2.079.72h-4.518a2.856 2.856 0 01-2.082-.724 3.393 3.393 0 010-4.229 2.861 2.861 0 012.085-.72h4.518a2.854 2.854 0 012.082.724 3.379 3.379 0 010 4.229zm-.968-3.207a1.591 1.591 0 00-1.111-.352h-4.518a1.6 1.6 0 00-1.111.349 1.742 1.742 0 000 2.187 1.6 1.6 0 001.111.349h4.518a1.591 1.591 0 001.111-.352 1.73 1.73 0 000-2.181z"/><path class="cls-9" d="M34.836 366.258l1.461-1.461" id="LINE-149" data-name="LINE"/><path class="cls-9" d="M33.375 364.797l1.461 1.461" id="LINE-150" data-name="LINE"/><path class="cls-9" d="M136.568 387.862v-12.541" id="LINE-151" data-name="LINE"/><path class="cls-9" d="M112.234 387.862v-12.724" id="LINE-152" data-name="LINE"/><path class="cls-9" d="M112.234 387.862h24.334" id="LINE-153" data-name="LINE"/><path d="M115.091 399.549a2.5 2.5 0 01-1.057-.968 2.784 2.784 0 01-.372-1.452v-.164a2.8 2.8 0 01.372-1.4 2.5 2.5 0 01.995-.991 2.172 2.172 0 01-.844-.831 2.239 2.239 0 01-.318-1.145v-.239a2.641 2.641 0 01.349-1.37 2.356 2.356 0 01.984-.916 3.516 3.516 0 012.953 0 2.364 2.364 0 01.985.916 2.65 2.65 0 01.348 1.37v.239a2.2 2.2 0 01-.325 1.156 2.155 2.155 0 01-.857.82 2.576 2.576 0 011.008 1 2.734 2.734 0 01.379 1.4v.164a2.784 2.784 0 01-.372 1.452 2.5 2.5 0 01-1.056.968 3.859 3.859 0 01-3.172 0zm2.44-1.19a1.4 1.4 0 00.572-.536 1.565 1.565 0 00.2-.8v-.1a1.573 1.573 0 00-.2-.8 1.38 1.38 0 00-.572-.537 2 2 0 00-1.709 0 1.372 1.372 0 00-.571.54 1.583 1.583 0 00-.2.806v.1a1.538 1.538 0 00.2.793 1.366 1.366 0 00.571.529 1.853 1.853 0 00.855.189 1.825 1.825 0 00.854-.184zm-.116-4.481a1.248 1.248 0 00.5-.516 1.626 1.626 0 00.178-.772v-.1a1.5 1.5 0 00-.178-.738 1.22 1.22 0 00-.5-.495 1.644 1.644 0 00-1.476 0 1.228 1.228 0 00-.5.495 1.514 1.514 0 00-.177.745v.1a1.6 1.6 0 00.177.763 1.258 1.258 0 00.5.512 1.6 1.6 0 001.476 0zM122.36 399.145a2.865 2.865 0 01-.72-2.078v-4.518a2.85 2.85 0 01.724-2.081 3.387 3.387 0 014.229 0 2.862 2.862 0 01.721 2.085v4.518a2.856 2.856 0 01-.725 2.082 3.38 3.38 0 01-4.229 0zm3.207-.967a1.591 1.591 0 00.352-1.111v-4.518a1.6 1.6 0 00-.349-1.111 1.742 1.742 0 00-2.187 0 1.6 1.6 0 00-.349 1.111v4.518a1.591 1.591 0 00.352 1.111 1.733 1.733 0 002.181 0zM130.085 399.145a2.865 2.865 0 01-.721-2.078v-4.518a2.846 2.846 0 01.725-2.081 3.386 3.386 0 014.228 0 2.858 2.858 0 01.721 2.085v4.518a2.856 2.856 0 01-.724 2.082 3.38 3.38 0 01-4.229 0zm3.207-.967a1.6 1.6 0 00.352-1.111v-4.518a1.6 1.6 0 00-.349-1.111 1.743 1.743 0 00-2.188 0 1.6 1.6 0 00-.348 1.111v4.518a1.6 1.6 0 00.351 1.111 1.735 1.735 0 002.182 0z"/><path class="cls-9" d="M136.568 387.862l-1.461 1.461" id="LINE-154" data-name="LINE"/><path class="cls-9" d="M135.107 386.4l1.461 1.462" id="LINE-155" data-name="LINE"/><path class="cls-9" d="M112.234 387.87l1.461-1.461" id="LINE-156" data-name="LINE"/><path class="cls-9" d="M113.695 389.331l-1.461-1.461" id="LINE-157" data-name="LINE"/><path class="cls-9" d="M48.976 456.19v-59.042" id="LINE-158" data-name="LINE"/><path d="M60.2 426.807v1.393h-8.426l.868 1.415H51.2l-.944-1.415v-1.395zM59.946 423.485a2.282 2.282 0 01-1.025.947 3.718 3.718 0 01-1.624.325h-.006a5.547 5.547 0 01-1.163-.13 6.787 6.787 0 01-1.2-.376 3.026 3.026 0 01-.2-.089l-.194-.1-4.28-2.16v-1.5l4.956 2.536-.246-.007a1.2 1.2 0 01-.5-.5 1.583 1.583 0 01-.177-.765 2.44 2.44 0 01.348-1.326 2.175 2.175 0 011.015-.841 4.033 4.033 0 011.6-.287h.007a3.791 3.791 0 011.641.325 2.3 2.3 0 011.039.949 3.355 3.355 0 010 3zm-1.4-2.519a1.721 1.721 0 00-1.169-.359h-.006a1.967 1.967 0 00-1.289.376 1.315 1.315 0 00-.455 1.073 1.132 1.132 0 00.458.964 2.126 2.126 0 001.292.342h.007a1.7 1.7 0 001.168-.362 1.473 1.473 0 000-2.037zM59.553 416.646a2.861 2.861 0 01-2.078.721h-4.518a2.852 2.852 0 01-2.082-.725 3.388 3.388 0 010-4.228 2.858 2.858 0 012.085-.721h4.518a2.852 2.852 0 012.082.725 3.379 3.379 0 010 4.228zm-.967-3.207a1.6 1.6 0 00-1.111-.351h-4.518a1.6 1.6 0 00-1.111.348 1.743 1.743 0 000 2.188 1.6 1.6 0 001.111.348h4.518a1.6 1.6 0 001.111-.351 1.735 1.735 0 000-2.182zM59.553 408.922a2.865 2.865 0 01-2.078.72h-4.518a2.856 2.856 0 01-2.082-.724 3.389 3.389 0 010-4.229 2.861 2.861 0 012.085-.72h4.518a2.856 2.856 0 012.082.724 3.38 3.38 0 010 4.229zm-.967-3.207a1.591 1.591 0 00-1.111-.352h-4.518a1.6 1.6 0 00-1.111.349 1.742 1.742 0 000 2.187 1.6 1.6 0 001.111.349h4.518a1.591 1.591 0 001.111-.352 1.733 1.733 0 000-2.181z"/><path class="cls-9" d="M48.976 397.148l1.461 1.461" id="LINE-159" data-name="LINE"/><path class="cls-9" d="M47.515 398.609l1.461-1.461" id="LINE-160" data-name="LINE"/><path class="cls-9" d="M48.976 456.156l-1.461-1.462" id="LINE-161" data-name="LINE"/><path class="cls-9" d="M50.437 454.694l-1.461 1.462" id="LINE-162" data-name="LINE"/><path class="cls-9" d="M29.227 144.453v-34.326" id="LINE-163" data-name="LINE"/><path d="M40.446 137.442v1.395h-8.422l.868 1.415H31.45l-.944-1.415v-1.395zM39.8 134.466a2.865 2.865 0 01-2.078.72h-4.515a2.856 2.856 0 01-2.082-.724 3.389 3.389 0 010-4.229 2.862 2.862 0 012.085-.721h4.518a2.856 2.856 0 012.082.725 3.38 3.38 0 010 4.229zm-.967-3.207a1.591 1.591 0 00-1.111-.352h-4.515a1.6 1.6 0 00-1.111.349 1.742 1.742 0 000 2.187 1.6 1.6 0 001.111.349h4.518a1.591 1.591 0 001.111-.352 1.733 1.733 0 000-2.181zM31.751 122.328l8.695 2.57v1.484l-8.613-2.571v2.53h1.428v1.394h-2.755v-5.407zM39.8 119.693a2.861 2.861 0 01-2.078.721h-4.515a2.852 2.852 0 01-2.082-.725 3.388 3.388 0 010-4.228 2.858 2.858 0 012.085-.721h4.518a2.852 2.852 0 012.082.725 3.379 3.379 0 010 4.228zm-.967-3.207a1.6 1.6 0 00-1.111-.351h-4.515a1.6 1.6 0 00-1.111.348 1.743 1.743 0 000 2.188 1.6 1.6 0 001.111.348h4.518a1.6 1.6 0 001.111-.351 1.735 1.735 0 000-2.182z"/><path class="cls-9" d="M29.226 110.127l1.462 1.462" id="LINE-164" data-name="LINE"/><path class="cls-9" d="M27.765 111.589l1.461-1.462" id="LINE-165" data-name="LINE"/><path class="cls-9" d="M29.226 144.478l-1.461-1.462" id="LINE-166" data-name="LINE"/><path class="cls-9" d="M30.688 143.016l-1.462 1.462" id="LINE-167" data-name="LINE"/><path class="cls-9" d="M29.227 107.02V11.619" id="LINE-168" data-name="LINE"/><path d="M39.236 73.276l-4.621-3.466a3.421 3.421 0 00-.824-.467 2.165 2.165 0 00-.8-.168h-.014a1.208 1.208 0 00-.923.348 1.391 1.391 0 00-.328.991 1.369 1.369 0 00.359.985 1.631 1.631 0 001.015.458h.007V73.4H33.1a3.721 3.721 0 01-1.459-.5 2.559 2.559 0 01-.923-.981 2.93 2.93 0 01-.318-1.388 3.448 3.448 0 01.3-1.517 2.144 2.144 0 01.885-.958 2.817 2.817 0 011.4-.328H33a3.106 3.106 0 011.1.219 4.771 4.771 0 011.108.608l3.91 2.878v-3.762h1.326v5.6zM40.254 64.454a2.411 2.411 0 01-.854.951 3.41 3.41 0 01-1.347.488h-.007V64.5h.007a1.293 1.293 0 00.851-.438 1.414 1.414 0 00.3-.943 1.261 1.261 0 00-.448-1.035 1.943 1.943 0 00-1.261-.366h-.834a1.933 1.933 0 00-1.255.366 1.261 1.261 0 00-.448 1.035 1.323 1.323 0 00.2.7 1.957 1.957 0 00.575.588v1.272h-5.227v-5.07h1.327v3.671h2.235a1.969 1.969 0 01-.328-.581 1.9 1.9 0 01-.116-.656 2.888 2.888 0 01.355-1.474 2.289 2.289 0 011.039-.93 3.9 3.9 0 011.648-.317h.834a3.777 3.777 0 011.647.328 2.324 2.324 0 011.042.957 2.993 2.993 0 01.359 1.511 2.931 2.931 0 01-.294 1.336zM40.2 57.205a2.288 2.288 0 01-1.025.947 3.718 3.718 0 01-1.624.324h-.006a5.547 5.547 0 01-1.163-.13 6.625 6.625 0 01-1.2-.376 2.573 2.573 0 01-.2-.088l-.194-.1-4.28-2.16v-1.5l4.956 2.536-.246-.007a1.2 1.2 0 01-.5-.5 1.59 1.59 0 01-.177-.766 2.443 2.443 0 01.348-1.326 2.187 2.187 0 011.015-.841 4.05 4.05 0 011.6-.287h.007a3.791 3.791 0 011.641.326 2.289 2.289 0 011.039.949 3.355 3.355 0 010 3zm-1.4-2.52a1.726 1.726 0 00-1.169-.358h-.006a1.967 1.967 0 00-1.289.376 1.314 1.314 0 00-.455 1.073 1.133 1.133 0 00.458.964 2.126 2.126 0 001.292.342h.007a1.7 1.7 0 001.166-.36 1.473 1.473 0 000-2.037zM40.254 49.647a2.4 2.4 0 01-.854.951 3.4 3.4 0 01-1.347.489h-.007v-1.4h.007a1.292 1.292 0 00.851-.437 1.418 1.418 0 00.3-.944 1.261 1.261 0 00-.448-1.035 1.943 1.943 0 00-1.256-.361h-.834a1.933 1.933 0 00-1.255.366 1.261 1.261 0 00-.448 1.035 1.329 1.329 0 00.2.7 1.965 1.965 0 00.575.587v1.272h-5.232V45.8h1.327v3.671h2.235a1.957 1.957 0 01-.328-.581 1.9 1.9 0 01-.116-.656 2.891 2.891 0 01.355-1.474 2.287 2.287 0 011.039-.929 3.9 3.9 0 011.648-.318h.834a3.776 3.776 0 011.647.329 2.318 2.318 0 011.042.957 2.987 2.987 0 01.359 1.51 2.928 2.928 0 01-.294 1.338z"/><path class="cls-9" d="M29.226 11.619l1.462 1.462" id="LINE-169" data-name="LINE"/><path class="cls-9" d="M27.765 13.081l1.461-1.462" id="LINE-170" data-name="LINE"/><path class="cls-9" d="M29.226 107.045l-1.461-1.462" id="LINE-171" data-name="LINE"/><path class="cls-9" d="M30.688 105.583l-1.462 1.462" id="LINE-172" data-name="LINE"/><path class="cls-9" d="M24.835 113.389h64.613" id="LINE-173" data-name="LINE"/><path d="M47.144 124.608H45.75v-8.422l-1.415.868v-1.442l1.415-.943h1.394zM54.534 115.913l-2.571 8.7H50.48L53.05 116h-2.529v1.429h-1.4v-2.755h5.408zM55.764 121.874l3.336-7.2h1.436l-3.254 7.116h4.874v1.292h-6.392zm4.286-3.111h1.361v5.852H60.05zM64.585 123.966a2.869 2.869 0 01-.72-2.079v-4.518a2.856 2.856 0 01.724-2.082 3.393 3.393 0 014.229 0 2.862 2.862 0 01.721 2.085v4.518a2.854 2.854 0 01-.725 2.082 3.379 3.379 0 01-4.229 0zm3.208-.966a1.6 1.6 0 00.351-1.111v-4.518a1.6 1.6 0 00-.349-1.111 1.742 1.742 0 00-2.187 0 1.605 1.605 0 00-.349 1.111v4.518a1.591 1.591 0 00.352 1.111 1.731 1.731 0 002.182 0z"/><path class="cls-9" d="M89.449 113.389l-1.461 1.461" id="LINE-174" data-name="LINE"/><path class="cls-9" d="M87.988 111.927l1.461 1.462" id="LINE-175" data-name="LINE"/><path class="cls-9" d="M24.869 113.389l1.461-1.462" id="LINE-176" data-name="LINE"/><path class="cls-9" d="M26.33 114.85l-1.461-1.461" id="LINE-177" data-name="LINE"/><path class="cls-9" d="M24.835 16.918h64.613" id="LINE-178" data-name="LINE"/><path d="M47.535 28.137H46.14v-8.421l-1.415.868v-1.443l1.415-.941h1.395zM54.924 19.442l-2.57 8.7h-1.483l2.57-8.613h-2.529v1.429h-1.395V18.2h5.407zM57.358 27.888a2.287 2.287 0 01-.947-1.025 3.721 3.721 0 01-.325-1.624v-.007a5.545 5.545 0 01.13-1.162 6.761 6.761 0 01.376-1.2c.028-.069.057-.136.089-.2s.064-.131.1-.2l2.16-4.279h1.5l-2.536 4.956.007-.246a1.2 1.2 0 01.5-.5 1.572 1.572 0 01.765-.178 2.432 2.432 0 011.326.349 2.17 2.17 0 01.841 1.015 4.026 4.026 0 01.287 1.6v.007a3.783 3.783 0 01-.325 1.64 2.292 2.292 0 01-.949 1.04 3.355 3.355 0 01-3 0zm2.519-1.4a1.721 1.721 0 00.359-1.169v-.007a1.966 1.966 0 00-.376-1.288 1.313 1.313 0 00-1.073-.455 1.132 1.132 0 00-.964.458 2.124 2.124 0 00-.342 1.292v.007a1.7 1.7 0 00.359 1.165 1.474 1.474 0 002.037 0zM64.2 27.5a2.864 2.864 0 01-.721-2.078V20.9a2.843 2.843 0 115.674 0v4.519a2.559 2.559 0 01-2.837 2.823A2.816 2.816 0 0164.2 27.5zm3.207-.967a1.6 1.6 0 00.351-1.111V20.9a1.607 1.607 0 00-.348-1.111 1.743 1.743 0 00-2.188 0 1.607 1.607 0 00-.348 1.111v4.519a1.6 1.6 0 00.351 1.111 1.735 1.735 0 002.182 0z"/><path class="cls-9" d="M89.449 16.918l-1.461 1.461" id="LINE-179" data-name="LINE"/><path class="cls-9" d="M87.988 15.457l1.461 1.461" id="LINE-180" data-name="LINE"/><path class="cls-9" d="M24.869 16.918l1.461-1.461" id="LINE-181" data-name="LINE"/><path class="cls-9" d="M26.33 18.379l-1.461-1.461" id="LINE-182" data-name="LINE"/><path class="cls-9" d="M47.128 158.021h42.32" id="LINE-183" data-name="LINE"/><path d="M59.493 155.657H58.1v-8.421l-1.415.868v-1.443l1.415-.943h1.394zM64.148 155.657h-1.394v-8.421l-1.415.868v-1.443l1.415-.943h1.394zM68.141 155.76l-.636-.3a2.516 2.516 0 01-1.023-.882 3.208 3.208 0 01-.488-1.391h1.422a1.5 1.5 0 00.267.7 1.232 1.232 0 00.53.407 1.992 1.992 0 00.762.133 1.483 1.483 0 001.073-.369 1.376 1.376 0 00.383-1.039v-.3a1.674 1.674 0 00-.363-1.152 1.3 1.3 0 00-1.025-.406h-.7v-1.327h.7a1.165 1.165 0 00.9-.348 1.4 1.4 0 00.322-.985v-.307a1.192 1.192 0 00-.339-.909 1.335 1.335 0 00-.96-.322 1.459 1.459 0 00-.636.134 1.206 1.206 0 00-.475.41 1.879 1.879 0 00-.284.694h-1.413a3.626 3.626 0 01.516-1.4 2.534 2.534 0 01.961-.882 2.865 2.865 0 011.333-.3 2.757 2.757 0 011.989.677 2.519 2.519 0 01.7 1.907v.165a2.151 2.151 0 01-.4 1.3 2.272 2.272 0 01-1.142.807 2.023 2.023 0 011.261.8 2.643 2.643 0 01.448 1.586v.164a3.054 3.054 0 01-.335 1.483 2.217 2.217 0 01-.974.937 3.4 3.4 0 01-1.541.321zM74.528 155.015a2.868 2.868 0 01-.72-2.078v-4.519a2.843 2.843 0 115.673 0v4.519a2.852 2.852 0 01-.724 2.081 3.379 3.379 0 01-4.229 0zm3.207-.967a1.593 1.593 0 00.352-1.111v-4.519a1.6 1.6 0 00-.349-1.111 1.742 1.742 0 00-2.187 0 1.6 1.6 0 00-.349 1.111v4.519a1.593 1.593 0 00.352 1.111 1.733 1.733 0 002.181 0z"/><path class="cls-9" d="M89.449 158.021l-1.461 1.462" id="LINE-184" data-name="LINE"/><path class="cls-9" d="M87.988 156.56l1.461 1.461" id="LINE-185" data-name="LINE"/><path class="cls-9" d="M47.31 158.021l1.461-1.461" id="LINE-186" data-name="LINE"/><path class="cls-9" d="M48.771 159.483l-1.461-1.462" id="LINE-187" data-name="LINE"/><path class="cls-9" d="M107.728 456.19v-81.006" id="LINE-188" data-name="LINE"/><path d="M117.9 428.532l-4.621-3.466a3.474 3.474 0 00-.823-.468 2.19 2.19 0 00-.8-.168h-.013a1.206 1.206 0 00-.923.349 1.389 1.389 0 00-.328.991 1.369 1.369 0 00.358.985 1.634 1.634 0 001.016.458h.006v1.442h-.006a3.726 3.726 0 01-1.46-.5 2.566 2.566 0 01-.923-.981 2.93 2.93 0 01-.318-1.388 3.456 3.456 0 01.3-1.518 2.136 2.136 0 01.885-.957 2.813 2.813 0 011.4-.328h.007a3.088 3.088 0 011.1.219 4.728 4.728 0 011.107.608l3.91 2.878v-3.759h1.326v5.6zM119.108 418.75v1.394h-8.421l.868 1.415h-1.443l-.943-1.415v-1.394zM118.869 415.168a2.5 2.5 0 01-.967 1.056 2.788 2.788 0 01-1.453.372h-.164a2.8 2.8 0 01-1.4-.372 2.489 2.489 0 01-.991-1 2.188 2.188 0 01-.831.845 2.241 2.241 0 01-1.145.317h-.239a2.651 2.651 0 01-1.371-.348 2.364 2.364 0 01-.916-.985 3.516 3.516 0 010-2.953 2.356 2.356 0 01.916-.984 2.642 2.642 0 011.371-.349h.239a2.208 2.208 0 011.155.325 2.161 2.161 0 01.821.858 2.573 2.573 0 01.994-1.008 2.728 2.728 0 011.4-.38h.164a2.788 2.788 0 011.453.372 2.5 2.5 0 01.967 1.057 3.848 3.848 0 010 3.172zm-5.67-2.324a1.262 1.262 0 00-.516-.5 1.629 1.629 0 00-.773-.177h-.1a1.509 1.509 0 00-.738.177 1.235 1.235 0 00-.495.5 1.644 1.644 0 000 1.476 1.226 1.226 0 00.495.5 1.523 1.523 0 00.745.178h.1a1.593 1.593 0 00.762-.178 1.258 1.258 0 00.513-.5 1.6 1.6 0 000-1.476zm4.481-.117a1.39 1.39 0 00-.537-.571 1.554 1.554 0 00-.8-.2h-.1a1.567 1.567 0 00-.8.2 1.39 1.39 0 00-.537.571 2.007 2.007 0 000 1.709 1.387 1.387 0 00.54.572 1.6 1.6 0 00.807.2h.1a1.545 1.545 0 00.793-.2 1.371 1.371 0 00.53-.572 2.021 2.021 0 000-1.709zM118.466 407.9a2.864 2.864 0 01-2.078.721h-4.519a2.843 2.843 0 110-5.674h4.519a2.559 2.559 0 012.823 2.837 2.816 2.816 0 01-.745 2.116zm-.967-3.207a1.6 1.6 0 00-1.111-.351h-4.519a1.607 1.607 0 00-1.111.348 1.743 1.743 0 000 2.188 1.607 1.607 0 001.111.348h4.519a1.6 1.6 0 001.111-.351 1.735 1.735 0 000-2.182z"/><path class="cls-9" d="M107.727 375.184l1.462 1.461" id="LINE-189" data-name="LINE"/><path class="cls-9" d="M106.266 376.645l1.461-1.461" id="LINE-190" data-name="LINE"/><path class="cls-9" d="M107.727 455.892l-1.461-1.461" id="LINE-191" data-name="LINE"/><path class="cls-9" d="M109.189 454.431l-1.462 1.461" id="LINE-192" data-name="LINE"/><path class="cls-9" d="M30.185 434.743v-37.595" id="LINE-193" data-name="LINE"/><path d="M36.469 423.2l.246.007a1.029 1.029 0 01.461.515 2.082 2.082 0 01.147.818 2.193 2.193 0 01-.362 1.251 2.381 2.381 0 01-1.022.838 3.706 3.706 0 01-1.528.3H34.4a3.818 3.818 0 01-1.647-.324 2.288 2.288 0 01-1.039-.951 2.986 2.986 0 01-.356-1.5 2.923 2.923 0 01.363-1.5 2.321 2.321 0 011.052-.946 3.876 3.876 0 011.662-.325h.006a5.189 5.189 0 011.139.136 6.955 6.955 0 011.2.39l.181.082c.062.027.122.057.182.089l4.257 2.12v1.5zm-.862-.066a1.949 1.949 0 00-1.251-.358h-.006a1.857 1.857 0 00-1.217.358 1.42 1.42 0 000 2.038 1.856 1.856 0 001.223.359h.007a1.925 1.925 0 001.248-.359 1.393 1.393 0 000-2.038zM36.469 416.019l.246.007a1.027 1.027 0 01.461.516 2.077 2.077 0 01.147.817 2.189 2.189 0 01-.362 1.251 2.374 2.374 0 01-1.022.838 3.706 3.706 0 01-1.528.3H34.4a3.833 3.833 0 01-1.647-.324 2.29 2.29 0 01-1.039-.952 2.986 2.986 0 01-.356-1.5 2.923 2.923 0 01.363-1.5 2.321 2.321 0 011.052-.946 3.876 3.876 0 011.662-.325h.006a5.193 5.193 0 011.139.137 6.865 6.865 0 011.2.389c.059.028.12.055.181.082s.122.057.182.089l4.258 2.119v1.5zm-.862-.065a1.949 1.949 0 00-1.251-.359h-.006a1.857 1.857 0 00-1.217.359 1.419 1.419 0 000 2.037 1.856 1.856 0 001.223.359h.007a1.925 1.925 0 001.248-.359 1.392 1.392 0 000-2.037zM40.762 411.635a2.868 2.868 0 01-2.078.72h-4.519a2.843 2.843 0 110-5.674h4.519a2.852 2.852 0 012.081.725 3.379 3.379 0 010 4.229zm-.968-3.208a1.593 1.593 0 00-1.11-.351h-4.519a1.6 1.6 0 00-1.111.349 1.742 1.742 0 000 2.187 1.607 1.607 0 001.111.349h4.519a1.589 1.589 0 001.11-.352 1.731 1.731 0 000-2.182z"/><path class="cls-9" d="M30.184 397.148l1.462 1.461" id="LINE-194" data-name="LINE"/><path class="cls-9" d="M28.723 398.609l1.461-1.461" id="LINE-195" data-name="LINE"/><path class="cls-9" d="M30.184 434.743l-1.461-1.461" id="LINE-196" data-name="LINE"/><path class="cls-9" d="M31.646 433.282l-1.462 1.461" id="LINE-197" data-name="LINE"/><path class="cls-9" d="M34.836 268.313v-97.788" id="LINE-198" data-name="LINE"/><path d="M46.305 233.272l-4.621-3.466a3.44 3.44 0 00-.824-.467 2.165 2.165 0 00-.8-.168h-.01a1.207 1.207 0 00-.923.348 1.392 1.392 0 00-.328.992 1.364 1.364 0 00.359.984 1.629 1.629 0 001.015.458h.007v1.447h-.007a3.731 3.731 0 01-1.46-.5 2.556 2.556 0 01-.922-.981 2.924 2.924 0 01-.318-1.388 3.451 3.451 0 01.3-1.517 2.136 2.136 0 01.885-.957 2.806 2.806 0 011.4-.329h.006a3.11 3.11 0 011.1.219 4.713 4.713 0 011.107.609l3.911 2.878v-3.76h1.326v5.6zM47.265 225.233a2.282 2.282 0 01-1.025.947 3.718 3.718 0 01-1.624.325h-.007a5.545 5.545 0 01-1.162-.13 6.787 6.787 0 01-1.2-.376 3.026 3.026 0 01-.2-.089l-.194-.1-4.28-2.16v-1.5l4.956 2.536-.246-.007a1.2 1.2 0 01-.5-.5 1.583 1.583 0 01-.178-.765 2.441 2.441 0 01.349-1.326 2.17 2.17 0 011.015-.841 4.033 4.033 0 011.6-.287h.007a3.791 3.791 0 011.641.325 2.3 2.3 0 011.039.949 3.355 3.355 0 010 3zm-1.4-2.519a1.721 1.721 0 00-1.169-.359h-.007a1.966 1.966 0 00-1.288.376 1.315 1.315 0 00-.455 1.073 1.132 1.132 0 00.458.964 2.124 2.124 0 001.292.342h.007a1.7 1.7 0 001.166-.359 1.475 1.475 0 000-2.037zM46.872 218.394a2.861 2.861 0 01-2.078.721h-4.519a2.849 2.849 0 01-2.081-.725 3.39 3.39 0 010-4.228 2.859 2.859 0 012.085-.721h4.519a2.852 2.852 0 012.082.725 3.379 3.379 0 010 4.228zm-.967-3.207a1.6 1.6 0 00-1.111-.351h-4.519a1.6 1.6 0 00-1.11.348 1.74 1.74 0 000 2.188 1.6 1.6 0 001.11.348h4.519a1.6 1.6 0 001.111-.351 1.735 1.735 0 000-2.182zM46.872 210.67a2.865 2.865 0 01-2.078.72h-4.519a2.853 2.853 0 01-2.081-.724 3.391 3.391 0 010-4.229 2.863 2.863 0 012.085-.72h4.519a2.856 2.856 0 012.082.724 3.38 3.38 0 010 4.229zm-.967-3.207a1.593 1.593 0 00-1.111-.352h-4.519a1.6 1.6 0 00-1.11.349 1.738 1.738 0 000 2.187 1.6 1.6 0 001.11.349h4.519a1.593 1.593 0 001.111-.352 1.733 1.733 0 000-2.181z"/><path class="cls-9" d="M34.836 170.648l1.461 1.462" id="LINE-199" data-name="LINE"/><path class="cls-9" d="M33.375 172.11l1.461-1.462" id="LINE-200" data-name="LINE"/><path class="cls-9" d="M34.836 268.313l-1.461-1.461" id="LINE-201" data-name="LINE"/><path class="cls-9" d="M36.297 266.852l-1.461 1.461" id="LINE-202" data-name="LINE"/><g id="LINE-203" data-name="LINE"><path class="cls-9" d="M141.718 300.25h138.577M141.531 308.823v-11.417M280.459 308.823v-11.417"/></g><path d="M198.3 298.891l-.636-.3a2.52 2.52 0 01-1.022-.882 3.187 3.187 0 01-.488-1.392h1.422a1.5 1.5 0 00.266.7 1.239 1.239 0 00.53.408 1.992 1.992 0 00.762.133 1.481 1.481 0 001.073-.37 1.374 1.374 0 00.383-1.039v-.3a1.677 1.677 0 00-.362-1.152 1.3 1.3 0 00-1.025-.407h-.7v-1.326h.7a1.163 1.163 0 00.9-.349 1.4 1.4 0 00.321-.984v-.308a1.191 1.191 0 00-.339-.909 1.337 1.337 0 00-.96-.321 1.469 1.469 0 00-.635.133 1.21 1.21 0 00-.475.411 1.848 1.848 0 00-.284.693h-1.415a3.638 3.638 0 01.515-1.4 2.546 2.546 0 01.961-.881 2.855 2.855 0 011.333-.3 2.754 2.754 0 011.99.677 2.522 2.522 0 01.7 1.907v.164a2.146 2.146 0 01-.4 1.3 2.269 2.269 0 01-1.141.806 2.027 2.027 0 011.261.8 2.654 2.654 0 01.448 1.586v.164a3.069 3.069 0 01-.335 1.484 2.212 2.212 0 01-.975.936 3.386 3.386 0 01-1.541.321zM205.3 298.55a2.5 2.5 0 01-1.056-.967 2.79 2.79 0 01-.372-1.453v-.164a2.8 2.8 0 01.372-1.4 2.5 2.5 0 01.995-.991 2.179 2.179 0 01-.845-.83 2.242 2.242 0 01-.317-1.146v-.239a2.65 2.65 0 01.348-1.37 2.364 2.364 0 01.985-.916 3.516 3.516 0 012.953 0 2.356 2.356 0 01.984.916 2.641 2.641 0 01.349 1.37v.239a2.2 2.2 0 01-.325 1.156 2.158 2.158 0 01-.858.82 2.583 2.583 0 011.008 1 2.726 2.726 0 01.38 1.4v.164a2.79 2.79 0 01-.372 1.453 2.5 2.5 0 01-1.057.967 3.859 3.859 0 01-3.172 0zm2.441-1.19a1.388 1.388 0 00.571-.536 1.555 1.555 0 00.2-.8v-.1a1.563 1.563 0 00-.2-.8 1.377 1.377 0 00-.571-.537 2 2 0 00-1.709 0 1.366 1.366 0 00-.571.54 1.586 1.586 0 00-.2.806v.1a1.536 1.536 0 00.2.793 1.368 1.368 0 00.571.53 1.862 1.862 0 00.854.188 1.826 1.826 0 00.852-.184zm-.116-4.48a1.263 1.263 0 00.5-.517 1.625 1.625 0 00.177-.772v-.1a1.506 1.506 0 00-.177-.738 1.247 1.247 0 00-.5-.5 1.654 1.654 0 00-1.477 0 1.235 1.235 0 00-.5.5 1.517 1.517 0 00-.178.745v.1a1.6 1.6 0 00.178.763 1.258 1.258 0 00.5.513 1.6 1.6 0 001.477 0zM211.71 296.054l3.335-7.2h1.436l-3.254 7.116h4.873v1.292h-6.39zm4.286-3.11h1.36v5.856H216zM220.531 298.146a2.861 2.861 0 01-.721-2.078v-4.518a2.848 2.848 0 01.725-2.081 3.386 3.386 0 014.228 0 2.858 2.858 0 01.721 2.085v4.518a2.558 2.558 0 01-2.837 2.823 2.812 2.812 0 01-2.116-.749zm3.207-.967a1.594 1.594 0 00.351-1.111v-4.518a1.6 1.6 0 00-.348-1.111 1.74 1.74 0 00-2.188 0 1.6 1.6 0 00-.348 1.111v4.518a1.594 1.594 0 00.351 1.111 1.735 1.735 0 002.182 0z"/><path class="cls-9" d="M280.295 300.25l-1.461 1.461" id="LINE-204" data-name="LINE"/><path class="cls-9" d="M278.834 298.789l1.461 1.461" id="LINE-205" data-name="LINE"/><path class="cls-9" d="M141.531 300.25l1.461-1.461" id="LINE-206" data-name="LINE"/><path class="cls-9" d="M142.992 301.711l-1.461-1.461" id="LINE-207" data-name="LINE"/><g id="LINE-208" data-name="LINE"><path class="cls-9" d="M135.246 152.793h145.049M135.246 161.366v-11.417M280.459 161.366v-11.417"/></g><path d="M195.439 150.954l-.636-.3a2.516 2.516 0 01-1.023-.882 3.182 3.182 0 01-.488-1.391h1.422a1.509 1.509 0 00.266.7 1.241 1.241 0 00.531.407 1.987 1.987 0 00.761.133 1.485 1.485 0 001.074-.369 1.376 1.376 0 00.383-1.039v-.3a1.677 1.677 0 00-.363-1.152 1.3 1.3 0 00-1.025-.407h-.7v-1.334h.7a1.165 1.165 0 00.9-.348 1.4 1.4 0 00.321-.985v-.307a1.2 1.2 0 00-.338-.91 1.339 1.339 0 00-.96-.321 1.47 1.47 0 00-.636.133 1.21 1.21 0 00-.475.411 1.864 1.864 0 00-.284.693h-1.415a3.627 3.627 0 01.516-1.394 2.534 2.534 0 01.961-.882 2.852 2.852 0 011.333-.3 2.757 2.757 0 011.989.677 2.519 2.519 0 01.7 1.907v.164a2.152 2.152 0 01-.4 1.3 2.284 2.284 0 01-1.142.807 2.023 2.023 0 011.261.8 2.643 2.643 0 01.448 1.586v.164a3.054 3.054 0 01-.335 1.483 2.223 2.223 0 01-.974.937 3.4 3.4 0 01-1.542.321zM202.432 150.612a2.5 2.5 0 01-1.057-.967 2.79 2.79 0 01-.372-1.453v-.164a2.8 2.8 0 01.372-1.4 2.489 2.489 0 011-.991 2.2 2.2 0 01-.845-.831 2.241 2.241 0 01-.317-1.145v-.239a2.642 2.642 0 01.349-1.371 2.356 2.356 0 01.984-.916 3.516 3.516 0 012.953 0 2.364 2.364 0 01.985.916 2.651 2.651 0 01.348 1.371v.239a2.2 2.2 0 01-.325 1.155 2.172 2.172 0 01-.857.821 2.571 2.571 0 011.007.994 2.728 2.728 0 01.38 1.4v.164a2.79 2.79 0 01-.372 1.453 2.5 2.5 0 01-1.056.967 3.848 3.848 0 01-3.172 0zm2.44-1.189a1.384 1.384 0 00.571-.537 1.554 1.554 0 00.2-.8v-.1a1.567 1.567 0 00-.2-.8 1.384 1.384 0 00-.571-.537 2.007 2.007 0 00-1.709 0 1.384 1.384 0 00-.571.54 1.59 1.59 0 00-.2.807v.1a1.535 1.535 0 00.2.793 1.368 1.368 0 00.571.53 2.021 2.021 0 001.709 0zm-.116-4.481a1.254 1.254 0 00.5-.516 1.632 1.632 0 00.178-.773v-.1a1.506 1.506 0 00-.178-.738 1.235 1.235 0 00-.5-.5 1.654 1.654 0 00-1.477 0 1.235 1.235 0 00-.5.5 1.52 1.52 0 00-.177.745v.1a1.593 1.593 0 00.177.762 1.258 1.258 0 00.5.513 1.6 1.6 0 001.477 0zM212.5 145.916l-.007.246a1.029 1.029 0 01-.515.461 2.082 2.082 0 01-.818.147 2.193 2.193 0 01-1.251-.362 2.381 2.381 0 01-.838-1.022 3.706 3.706 0 01-.3-1.528v-.007a3.818 3.818 0 01.325-1.647 2.283 2.283 0 01.951-1.039 2.986 2.986 0 011.5-.356 2.923 2.923 0 011.5.363 2.321 2.321 0 01.946 1.052 3.876 3.876 0 01.325 1.662v.006a5.25 5.25 0 01-.136 1.139 6.955 6.955 0 01-.39 1.2l-.082.181a2.775 2.775 0 01-.089.182l-2.119 4.258H210zm.065-.862a1.943 1.943 0 00.359-1.251v-.003a1.852 1.852 0 00-.359-1.217 1.419 1.419 0 00-2.037 0 1.856 1.856 0 00-.359 1.223v.007a1.925 1.925 0 00.359 1.248 1.392 1.392 0 002.037 0zM216.886 150.209a2.864 2.864 0 01-.721-2.078v-4.519a2.843 2.843 0 115.674 0v4.519a2.559 2.559 0 01-2.839 2.823 2.816 2.816 0 01-2.114-.745zm3.207-.968a1.593 1.593 0 00.351-1.11v-4.519a1.607 1.607 0 00-.348-1.111 1.743 1.743 0 00-2.188 0 1.607 1.607 0 00-.348 1.111v4.519a1.593 1.593 0 00.351 1.11 1.731 1.731 0 002.182 0z"/><path class="cls-9" d="M280.295 152.793l-1.461 1.462" id="LINE-209" data-name="LINE"/><path class="cls-9" d="M278.834 151.332l1.461 1.461" id="LINE-210" data-name="LINE"/><path class="cls-9" d="M135.246 152.793l1.461-1.461" id="LINE-211" data-name="LINE"/><path class="cls-9" d="M136.707 154.255l-1.461-1.462" id="LINE-212" data-name="LINE"/><path class="cls-9" d="M39.481 435.549h102.112" id="LINE-213" data-name="LINE"/><path d="M76.6 431.266l3.466-4.621a3.46 3.46 0 00.468-.824 2.181 2.181 0 00.168-.8v-.014a1.2 1.2 0 00-.349-.922 1.388 1.388 0 00-.991-.328 1.37 1.37 0 00-.985.358 1.637 1.637 0 00-.458 1.016v.006h-1.443v-.006a3.72 3.72 0 01.5-1.46 2.554 2.554 0 01.982-.923 2.923 2.923 0 011.387-.318 3.47 3.47 0 011.518.3 2.138 2.138 0 01.957.886 2.8 2.8 0 01.328 1.4v.007a3.088 3.088 0 01-.219 1.1 4.692 4.692 0 01-.608 1.107l-2.878 3.91h3.76v1.326H76.6zM89.116 423.781l-2.571 8.695h-1.483l2.57-8.613H85.1v1.429h-1.391v-2.755h5.407zM92.469 432.285a2.421 2.421 0 01-.951-.855 3.411 3.411 0 01-.488-1.346v-.007h1.394v.007a1.293 1.293 0 00.438.85 1.416 1.416 0 00.943.3 1.259 1.259 0 001.035-.448 1.936 1.936 0 00.367-1.261v-.825a1.927 1.927 0 00-.367-1.255 1.261 1.261 0 00-1.035-.447 1.316 1.316 0 00-.7.2 1.953 1.953 0 00-.588.574h-1.268v-5.236h5.065v1.326h-3.671v2.238a1.969 1.969 0 01.581-.328 1.9 1.9 0 01.656-.116 2.876 2.876 0 011.474.356 2.279 2.279 0 01.93 1.039 3.893 3.893 0 01.316 1.649v.834a3.773 3.773 0 01-.328 1.647 2.324 2.324 0 01-.957 1.042 2.993 2.993 0 01-1.511.36 2.944 2.944 0 01-1.335-.298zM99.373 431.834a2.864 2.864 0 01-.721-2.078v-4.519a2.856 2.856 0 01.724-2.082 3.393 3.393 0 014.229 0 2.862 2.862 0 01.721 2.085v4.519a2.849 2.849 0 01-.725 2.081 3.377 3.377 0 01-4.228 0zm3.207-.968a1.6 1.6 0 00.351-1.11v-4.519a1.607 1.607 0 00-.348-1.111 1.743 1.743 0 00-2.188 0 1.607 1.607 0 00-.349 1.111v4.519a1.6 1.6 0 00.352 1.11 1.731 1.731 0 002.182 0z"/><path class="cls-9" d="M141.644 435.549l-1.461 1.461" id="LINE-214" data-name="LINE"/><path class="cls-9" d="M140.183 434.087l1.461 1.462" id="LINE-215" data-name="LINE"/><path class="cls-9" d="M39.481 435.549l1.462-1.462" id="LINE-216" data-name="LINE"/><path class="cls-9" d="M40.943 437.01l-1.462-1.461" id="LINE-217" data-name="LINE"/></g></svg>