<svg xmlns="http://www.w3.org/2000/svg" width="432.741" height="543.111" viewBox="0 0 324.556 407.333"><defs><pattern id="Новый_узор_3" data-name="Новый узор 3" width="35.15" height="35.15" patternTransform="translate(-7.256 -21.209)" patternUnits="userSpaceOnUse"><path class="cls-1" d="M0 0h35.15v35.15H0z"/><path class="cls-2" d="M35.149 35.15h35.15V70.3h-35.15z"/><path class="cls-2" d="M0 35.15h35.15V70.3H0zM-35.15 35.15H0V70.3h-35.15z"/><path class="cls-2" d="M35.149.001h35.15v35.15h-35.15z"/><path class="cls-2" d="M0 .001h35.15v35.15H0zM-35.15.001H0v35.15h-35.15zM35.149-35.149h35.15V.001h-35.15z"/><path class="cls-2" d="M0-35.149h35.15V.001H0zM-35.15-35.149H0V.001h-35.15z"/></pattern><pattern id="Новый_узор_4" data-name="Новый узор 4" width="9.822" height="9.822" patternTransform="translate(-4.109 -8.736)" patternUnits="userSpaceOnUse"><path class="cls-1" d="M0 0h9.822v9.822H0z"/><path class="cls-3" d="M14.733 19.647L9.82 14.735l4.913-4.913 4.912 4.913-4.912 4.912z"/><path class="cls-3" d="M4.911 19.647l-4.913-4.912 4.913-4.913 4.912 4.913-4.912 4.912z"/><path class="cls-3" d="M-4.912 19.647l-4.912-4.912 4.912-4.913 4.913 4.913-4.913 4.912zM14.733 9.825L9.82 4.912 14.733 0l4.912 4.912-4.912 4.913z"/><path class="cls-3" d="M4.911 9.825L-.002 4.912 4.911 0l4.912 4.912-4.912 4.913z"/><path class="cls-3" d="M-4.912 9.825l-4.912-4.913L-4.912 0 .001 4.912l-4.913 4.913zM14.733.003L9.82-4.91l4.913-4.912 4.912 4.912L14.733.003z"/><path class="cls-3" d="M4.911.003L-.002-4.91l4.913-4.912L9.823-4.91 4.911.003z"/><path class="cls-3" d="M-4.912.003L-9.824-4.91l4.912-4.912L.001-4.91-4.912.003z"/></pattern><style>.cls-1,.cls-12,.cls-2,.cls-3,.cls-7,.cls-9{fill:none}.cls-2{stroke:#ededed}.cls-2,.cls-3,.cls-7,.cls-9{stroke-linecap:round;stroke-linejoin:round;stroke-width:.4px}.cls-3{stroke:#e6e6e6}.cls-3,.cls-8,.cls-9{fill-rule:evenodd}.cls-7,.cls-9{stroke:#000}.cls-12{stroke:gray;stroke-width:.6px;stroke-miterlimit:22.926}</style></defs><g id="_140" data-name="140"><path id="fon" d="M286.053 209.372c9.9-.123 15.034-3.188 15.034-3.188s-10.951-24.392-15.034-33.816V19.74H.2v381.831h216.705v-16.438h47.61v-23.616h21.538z" fill="#fff" fill-rule="evenodd"/><path id="grid" stroke="#dcdcdc" fill="url(#Новый_узор_3)" stroke-linecap="round" stroke-linejoin="round" stroke-width=".4" d="M286.053 19.74H.2v381.831h216.705v-16.438h47.61v-23.616h21.538V19.74z"/><path id="wet_zones" data-name="wet zones" fill="url(#Новый_узор_4)" fill-rule="evenodd" d="M276.985 52.047h-15.492V25.786h-49.878V145.758h60.835v-36.465h4.535V52.047z"/><g id="walls"><path class="cls-7" d="M.2 401.571h44.588m0 0V19.74m0 0H.2m0 0v381.831M49.323 300.303h15.492M41.765 300.303h5.668M47.433 300.303h1.89M49.323 366.429h15.492M41.765 366.429h5.668M47.433 366.429h1.89M41.765 366.429v-66.126M64.815 366.429v-66.126M49.323 366.429v-3.779M49.323 362.65h-1.891M47.433 362.65v3.779M47.433 328.643v1.889M47.433 330.532h1.89M49.323 330.532v-1.889M48.378 362.65v-32.118M49.323 362.65v-32.118M47.433 330.532v32.118M49.323 328.643v-.945M49.323 327.698h-.945M48.378 327.698v-.944M48.378 326.754h-.945M47.433 326.754v1.889M47.433 300.303v3.779M47.433 304.082h.945M48.378 304.082v-.945M48.378 303.137h.945M49.323 303.137v-2.834M47.433 304.082v22.672M50.267 324.864v-18.893M50.267 327.698v-2.834M50.267 324.864h-1.889M48.378 324.864v2.834M48.378 327.698h1.889M48.378 303.137v2.834M48.378 305.971h1.889M50.267 305.971v-2.834M50.267 303.137h-1.889M48.378 305.971v18.893M50.267 324.864v-18.893M49.323 324.864v-18.893M47.433 366.429h1.89M47.433 366.429h1.89M41.765 366.429h5.668M49.323 366.429h15.492M47.433 300.303h1.89M47.433 300.303h1.89M41.765 300.303h5.668M49.323 300.303h15.492M41.765 300.303h23.05M49.323 172.586h15.492M41.765 172.586h5.668M47.433 172.586h1.89M49.323 255.715h15.492M41.765 255.715h5.668M47.433 255.715h1.89M41.765 255.715v-83.129M64.815 255.715v-83.129M49.323 255.715v-3.779M49.323 251.937h-1.891M47.433 251.937v3.778M47.433 216.04v1.889M47.433 217.929h1.89M49.323 217.929v-1.889M48.378 251.937V217.93M49.323 251.937V217.93M47.433 217.929v34.007M49.323 216.04v-.945M49.323 215.095h-.945M48.378 215.095v-.945M48.378 214.15h-.945M47.433 214.15v1.89M47.433 172.586v3.778M47.433 176.364h.945M48.378 176.364v-.945M48.378 175.419h.945M49.323 175.419v-2.833M50.267 175.419l28.055 28.055M47.433 176.364v37.786M50.267 212.261v-34.008M50.267 215.095v-2.834M50.267 212.261h-1.889M48.378 212.261v2.834M48.378 215.095h1.889M48.378 175.419v2.834M48.378 178.253h1.889M50.267 178.253v-2.834M50.267 175.419h-1.889M48.378 178.253v34.008M50.267 212.261v-34.008M49.323 212.261v-34.008M78.322 203.475A39.677 39.677 0 0150.267 215.1M49.525 252.028l28.797-25.363M78.322 226.665a39.677 39.677 0 00-28.055-11.621M47.433 255.715h1.89M47.433 255.715h1.89M41.765 255.715h5.668M49.323 255.715h15.492M47.433 172.586h1.89M47.433 172.586h1.89M41.765 172.586h5.668M49.323 172.586h15.492M49.323 115.15h15.492M41.765 115.15h5.668M47.433 115.15h1.89M49.323 49.024h15.492M41.765 49.024h5.668M47.433 49.024h1.89M41.765 49.024v66.126M64.815 49.024v66.126M49.323 49.024v3.779M49.323 52.803h-1.891M47.433 52.803v-3.779M47.433 86.811v-1.89M47.433 84.921h1.89M49.323 84.921v1.89M48.378 52.803v32.118M49.323 52.803v32.118M47.433 84.921V52.803M49.323 86.811v.945M49.323 87.755h-.945M48.378 87.755v.945M48.378 88.7h-.945M47.433 88.7v-1.89M47.433 115.15v-3.778M47.433 111.372h.945M48.378 111.372v.944M48.378 112.316h.945M49.323 112.316v2.834M47.433 111.372V88.7M50.267 90.589v18.893M50.267 87.755v2.834M50.267 90.589h-1.889M48.378 90.589v-2.834M48.378 87.755h1.889M48.378 112.316v-2.834M48.378 109.482h1.889M50.267 109.482v2.834M50.267 112.316h-1.889M48.378 109.482V90.589M50.267 90.589v18.893M49.323 90.589v18.893M47.433 49.024h1.89M47.433 49.024h1.89M41.765 49.024h5.668M49.323 49.024h15.492M47.433 115.15h1.89M47.433 115.15h1.89M41.765 115.15h5.668M49.323 115.15h15.492M41.765 49.024h23.05M301.621 206.184a43.311 43.311 0 01-15.568 3.2"/><path class="cls-8" d="M301.711 206.145l-15.658-36.21h-1.511v.454l15.782 36.355 1.387-.599z"/><path class="cls-9" d="M172.9 125.874a34.176 34.176 0 00-2.545 12.327"/><path class="cls-8" d="M172.938 125.775l-.613 1.38 28.898 12.556h.454l-.001-1.51-28.738-12.426z"/><path class="cls-9" d="M243.049 134.687a30.739 30.739 0 012.271 11.071"/><path class="cls-8" d="M243.011 134.598l-25.804 11.159-.018 1.511h.471l25.951-11.282-.6-1.388z"/><path class="cls-9" d="M301.621 206.184a43.311 43.311 0 01-15.568 3.2"/><path class="cls-8" d="M301.711 206.145l-15.658-36.21h-1.511v.454l15.782 36.355 1.387-.599z"/><path class="cls-9" d="M172.9 125.874a34.176 34.176 0 00-2.545 12.327"/><path class="cls-8" d="M172.938 125.775l-.613 1.38 28.898 12.556h.454l-.001-1.51-28.738-12.426z"/><path class="cls-9" d="M243.049 134.687a30.739 30.739 0 012.271 11.071"/><path class="cls-8" d="M243.011 134.598l-25.804 11.159-.018 1.511h.471l25.951-11.282-.6-1.388z"/><path d="M276.985 361.517h9.068V209.384h-1.511v-.453h-7.557v152.586zm9.068-192.64v1.058h-1.511v.454h-7.557l-.012-155.855h9.068l.012 154.343zm-175.919 227.97H64.815v-30.418h-23.05v40.62h68.369v-10.2zM41.765 255.715h23.05V300.3h-23.05v-44.585zm23.05-229.93v23.239h-23.05l-.012-34.49H64.8l.012 11.251zM110.134 138.2H64.815v-23.05h-23.05v57.435h23.05V148.78h45.319z" stroke-miterlimit="3" stroke-width=".48" stroke="#000" fill-rule="evenodd"/></g><g id="wall_2" data-name="wall 2"><path d="M246.378 145.757h26.073v-36.464h4.535v3.023h-1.513v33.441h1.512v3.023h-32.118v-1.512h.453v-1.511zM208.592 25.786H64.815V14.827h212.17v10.958h-12.47v23.239h12.47v3.023h-15.492V25.785h-49.878v119.972h5.574v1.511h.471v1.512h-16.437v-9.069h.454V138.2h6.915V25.786zm-98.458 371.061v10.2h106.771v-21.914h47.61v-23.616h12.47v-10.581h-22.672v23.239h-48.367v22.672zm0-258.647v10.58h60.671v-9.069h-.453V138.2zm166.851 110.9h-71.416v-25.692h3.023v22.671h68.393v3.021zM263 279.331h13.981v3.023h-10.954v11.336h10.958v3.023H263z" fill="#fff"/><path class="cls-12" d="M68.39 14.83l-3.58 3.15M75.81 14.83l-11 9.69M83.24 14.83L70.79 25.79M90.65 14.83L78.21 25.79M98.08 14.83L85.63 25.79M105.5 14.83L93.06 25.79M112.92 14.83l-12.44 10.96M120.34 14.83L107.9 25.79M127.77 14.83l-12.44 10.96M135.18 14.83l-12.44 10.96M142.61 14.83l-12.44 10.96M150.03 14.83l-12.44 10.96M157.46 14.83l-12.45 10.96M164.88 14.83l-12.44 10.96M172.3 14.83l-12.44 10.96M179.73 14.83l-12.45 10.96M187.14 14.83L174.7 25.79M194.57 14.83l-12.45 10.96M201.99 14.83l-12.44 10.96M209.41 14.83l-12.44 10.96M216.83 14.83l-12.44 10.96M211.61 25.97l-3.02 2.66M224.26 14.83l-12.44 10.96M211.61 32.51l-3.02 2.66M231.67 14.83l-12.44 10.96M211.61 39.04l-3.02 2.66M239.1 14.83l-12.44 10.96M211.61 45.58l-3.02 2.66M246.52 14.83l-12.44 10.96M211.61 52.12l-3.02 2.67M113.9 138.2l-3.77 3.32M253.95 14.83L241.5 25.79M211.61 58.66l-3.02 2.66M121.32 138.2l-11.19 9.86M261.37 14.83l-12.44 10.96M211.61 65.2l-3.02 2.66M128.75 138.2l-12.01 10.58M268.79 14.83l-12.44 10.96M211.61 71.73l-3.02 2.67M136.16 138.2l-12.01 10.58M276.21 14.83l-14.72 12.96M276.98 20.69l-5.79 5.1M211.61 78.27l-3.02 2.66M143.58 138.2l-12.01 10.58M264.51 31.67l-3.02 2.66M211.61 84.82l-3.02 2.66M151.01 138.2L139 148.78M264.51 38.21l-3.02 2.67M211.61 91.35l-3.02 2.66M158.43 138.2l-12.01 10.58M264.51 44.75l-3.02 2.66M211.61 97.89l-3.02 2.66M165.85 138.2l-12.01 10.58M267.09 49.02l-3.44 3.03M211.61 104.43l-3.02 2.66M170.81 140.37l-9.54 8.41M274.51 49.02l-3.44 3.03M170.81 146.92l-2.12 1.86M211.61 110.97l-3.02 2.66M211.61 117.51l-3.02 2.66M211.61 124.04l-3.02 2.66M201.25 139.71l-.03.03M202.96 138.2l-1.28 1.13M211.61 130.58l-3.02 2.66M211.61 137.12l-10.39 9.16M211.61 143.66l-5.81 5.12M216.65 145.76l-3.42 3.02M272.9 109.29l-.45.39M276.98 112.23l-.1.09M275.47 113.56l-3.02 2.66M246.34 145.76l-1.02.9M275.47 120.1l-3.02 2.66M253.76 145.76l-3.42 3.02M275.47 126.64l-3.02 2.66M261.19 145.76l-3.43 3.02M275.47 133.18l-3.02 2.66M275.47 139.72l-3.02 2.66M268.61 145.76l-3.43 3.02M276.03 145.76l-3.43 3.02M208.59 224.78l-3.02 2.67M208.59 231.32l-3.02 2.67M208.59 237.86l-3.02 2.67M208.59 244.4l-3.02 2.66M214.1 246.08l-3.42 3.02M221.53 246.08l-3.43 3.02M228.95 246.08l-3.43 3.02M236.37 246.08l-3.42 3.02M243.8 246.08l-3.43 3.02M251.21 246.08l-3.42 3.02M258.64 246.08l-3.43 3.02M266.06 246.08l-3.43 3.02M273.48 246.08l-3.43 3.02M117.18 396.85l-7.05 6.21M124.6 396.85l-11.58 10.2M265.43 279.33l-2.43 2.14M132.02 396.85l-11.58 10.2M139.44 396.85l-11.58 10.2M272.85 279.33l-3.43 3.02M266.03 285.34l-3.03 2.67M146.86 396.85l-11.57 10.2M276.98 282.23l-.14.12M266.03 291.87l-3.03 2.67M271.39 293.69l-3.42 3.02M154.29 396.85l-11.58 10.2M276.98 295.31l-1.59 1.4M161.71 396.85l-11.58 10.2M169.14 396.85l-11.58 10.2M176.55 396.85l-11.58 10.2M209.71 374.18l-3.76 3.31M183.98 396.85l-11.58 10.2M191.4 396.85l-11.58 10.2M217.13 374.18l-11.18 9.85M198.82 396.85l-11.58 10.2M224.56 374.18l-18.61 16.39M258.36 350.94l-4.05 3.57M216.9 387.46l-22.23 19.59M231.98 374.18l-12.43 10.95M239.4 374.18l-12.43 10.95M216.9 394l-14.81 13.05M265.79 350.94l-11.48 10.11M246.82 374.18l-12.43 10.95M216.9 400.54l-7.39 6.51M273.2 350.94l-18.89 16.64M264.51 365.14l-10.2 8.98M254.24 374.18l-12.43 10.95M276.98 354.15l-8.36 7.37M276.98 360.69l-.94.83M264.51 371.68l-15.27 13.45M264.51 378.21l-7.85 6.92M264.51 384.75l-.43.38"/><path d="M246.378 145.757h26.073v-36.464h4.535v3.023h-1.513v33.441h1.512v3.023h-32.118v-1.512h.453v-1.511zM208.592 25.786H64.815V14.827h212.17v10.958h-12.47v23.239h12.47v3.023h-15.492V25.785h-49.878v119.972h5.574v1.511h.471v1.512h-16.437v-9.069h.454V138.2h6.915V25.786zm-98.458 371.061v10.2h106.771v-21.914h47.61v-23.616h12.47v-10.581h-22.672v23.239h-48.367v22.672zm0-258.647v10.58h60.671v-9.069h-.453V138.2zm166.851 110.9h-71.416v-25.692h3.023v22.671h68.393v3.021zM263 279.331h13.981v3.023h-10.954v11.336h10.958v3.023H263z" stroke-width=".567" stroke-miterlimit="22.926" stroke="#000" fill-rule="evenodd" fill="none"/></g></g><g id="sizes"><path class="cls-7" d="M41.765 1.764v24.14" id="LINE"/><path class="cls-7" d="M.222 1.701v24.14" id="LINE-2" data-name="LINE"/><path class="cls-7" d="M.222 1.716l41.531.031" id="LINE-3" data-name="LINE"/><path d="M10.746 13.833H9.351V5.412l-1.415.868V4.837l1.415-.943h1.395zM12.851 12.624L16.317 8a3.474 3.474 0 00.468-.823 2.19 2.19 0 00.168-.8v-.008a1.208 1.208 0 00-.349-.923 1.389 1.389 0 00-.991-.328 1.367 1.367 0 00-.985.359 1.629 1.629 0 00-.458 1.015V6.5h-1.442v-.008a3.731 3.731 0 01.5-1.46 2.566 2.566 0 01.981-.923 2.93 2.93 0 011.391-.318 3.456 3.456 0 011.518.305 2.136 2.136 0 01.957.885 2.813 2.813 0 01.328 1.4v.007a3.088 3.088 0 01-.219 1.1 4.708 4.708 0 01-.609 1.112L14.7 12.507h3.76v1.326h-5.609zM20.955 13.191a2.864 2.864 0 01-.721-2.078V6.594a2.852 2.852 0 01.724-2.081 2.824 2.824 0 012.113-.742 2.831 2.831 0 012.116.738 2.862 2.862 0 01.721 2.085v4.519a2.852 2.852 0 01-.725 2.081 2.82 2.82 0 01-2.112.742 2.816 2.816 0 01-2.116-.745zm3.207-.967a1.6 1.6 0 00.351-1.111V6.594a1.607 1.607 0 00-.348-1.111 1.407 1.407 0 00-1.094-.383 1.405 1.405 0 00-1.094.386 1.607 1.607 0 00-.349 1.111v4.519a1.6 1.6 0 00.352 1.111 1.41 1.41 0 001.091.386 1.411 1.411 0 001.091-.389zM28.679 13.191a2.868 2.868 0 01-.721-2.078V6.594a2.852 2.852 0 01.725-2.081 2.821 2.821 0 012.117-.742 2.833 2.833 0 012.117.738 2.861 2.861 0 01.72 2.085v4.519a2.852 2.852 0 01-.724 2.081 2.824 2.824 0 01-2.113.742 2.819 2.819 0 01-2.121-.745zm3.207-.967a1.593 1.593 0 00.352-1.111V6.594a1.6 1.6 0 00-.349-1.111 1.742 1.742 0 00-2.187 0 1.6 1.6 0 00-.349 1.111v4.519a1.593 1.593 0 00.352 1.111 1.733 1.733 0 002.181 0z"/><path class="cls-7" d="M41.753 1.763L40.292.302" id="LINE-4" data-name="LINE"/><path class="cls-7" d="M40.292 3.224l1.461-1.461" id="LINE-5" data-name="LINE"/><path class="cls-7" d="M.2 1.661l1.461 1.461" id="LINE-6" data-name="LINE"/><path class="cls-7" d="M1.661.2L.2 1.661" id="LINE-7" data-name="LINE"/><path class="cls-7" d="M15.645 19.74h24.14" id="LINE-8" data-name="LINE"/><path class="cls-7" d="M15.582 401.571h24.14" id="LINE-9" data-name="LINE"/><path class="cls-7" d="M15.678 19.74l-.13 381.831" id="LINE-10" data-name="LINE"/><path d="M12.58 223.677v1.394H4.158l.868 1.415H3.583l-.943-1.415v-1.394zM11.937 220.7a2.861 2.861 0 01-2.078.721H5.34a2.849 2.849 0 01-2.081-.725 3.39 3.39 0 010-4.228 2.861 2.861 0 012.085-.721h4.515a2.852 2.852 0 012.082.725 3.379 3.379 0 010 4.228zm-.967-3.207a1.6 1.6 0 00-1.111-.351H5.34a1.6 1.6 0 00-1.11.348 1.74 1.74 0 000 2.188 1.6 1.6 0 001.11.348h4.519a1.6 1.6 0 001.111-.351 1.735 1.735 0 000-2.182zM12.58 211.3v1.394H4.158l.868 1.415H3.583l-.943-1.415V211.3zM9.845 209.178l-7.2-3.336v-1.436l7.116 3.254v-4.874h1.292v6.392zm-3.11-4.286v-1.361h5.851v1.361zM12.388 199.638a2.4 2.4 0 01-.854.951 3.4 3.4 0 01-1.347.488h-.007v-1.394h.007a1.3 1.3 0 00.852-.438 1.42 1.42 0 00.3-.943 1.259 1.259 0 00-.447-1.035 1.939 1.939 0 00-1.262-.367H8.8a1.924 1.924 0 00-1.254.367A1.26 1.26 0 007.1 198.3a1.325 1.325 0 00.2.7 1.953 1.953 0 00.574.588v1.271H2.64v-5.065h1.326v3.671H6.2a1.992 1.992 0 01-.328-.581 1.9 1.9 0 01-.117-.656 2.886 2.886 0 01.356-1.474 2.289 2.289 0 011.039-.93 3.9 3.9 0 011.647-.317h.834a3.775 3.775 0 011.648.328 2.331 2.331 0 011.043.957 3 3 0 01.358 1.511 2.931 2.931 0 01-.292 1.335z"/><path class="cls-7" d="M15.644 19.74l-1.461 1.461" id="LINE-11" data-name="LINE"/><path class="cls-7" d="M17.105 21.201l-1.461-1.461" id="LINE-12" data-name="LINE"/><path class="cls-7" d="M15.542 401.571l1.462-1.462" id="LINE-13" data-name="LINE"/><path class="cls-7" d="M14.081 400.109l1.461 1.462" id="LINE-14" data-name="LINE"/><path class="cls-7" d="M310.392 208.98h-24.845" id="LINE-15" data-name="LINE"/><path class="cls-7" d="M310.391 170.391h-32.543" id="LINE-16" data-name="LINE"/><path class="cls-7" d="M310.392 170.391v38.589" id="LINE-17" data-name="LINE"/><path d="M321.111 198.848v1.394h-8.422l.869 1.415h-1.443l-.944-1.415v-1.394zM321.111 194.192v1.395h-8.422l.869 1.415h-1.443l-.944-1.415v-1.395zM320.468 191.216a2.865 2.865 0 01-2.078.721h-4.517a2.853 2.853 0 01-2.082-.725 3.387 3.387 0 010-4.229 2.862 2.862 0 012.086-.72h4.517a2.558 2.558 0 012.824 2.837 2.816 2.816 0 01-.75 2.116zm-.967-3.207a1.59 1.59 0 00-1.111-.352h-4.517a1.6 1.6 0 00-1.112.349 1.742 1.742 0 000 2.187 1.6 1.6 0 001.112.349h4.517a1.59 1.59 0 001.111-.352 1.73 1.73 0 000-2.181zM320.468 183.491a2.861 2.861 0 01-2.078.721h-4.517a2.849 2.849 0 01-2.082-.725 3.386 3.386 0 010-4.228 2.858 2.858 0 012.086-.721h4.517a2.559 2.559 0 012.824 2.837 2.812 2.812 0 01-.75 2.116zm-.967-3.207a1.594 1.594 0 00-1.111-.351h-4.517a1.608 1.608 0 00-1.112.348 1.743 1.743 0 000 2.188 1.608 1.608 0 001.112.348h4.517a1.594 1.594 0 001.111-.351 1.731 1.731 0 000-2.182z"/><path class="cls-7" d="M310.392 208.98l1.461-1.461" id="LINE-18" data-name="LINE"/><path class="cls-7" d="M308.931 207.519l1.461 1.461" id="LINE-19" data-name="LINE"/><path class="cls-7" d="M310.391 170.391l-1.461 1.461" id="LINE-20" data-name="LINE"/><path class="cls-7" d="M311.853 171.852l-1.462-1.461" id="LINE-21" data-name="LINE"/><path class="cls-7" d="M31.495 255.692h22.788" id="LINE-22" data-name="LINE"/><path class="cls-7" d="M31.439 172.609h22.789" id="LINE-23" data-name="LINE"/><path class="cls-7" d="M31.439 172.609l.062 83.083" id="LINE-24" data-name="LINE"/><path d="M28.037 228.23l-4.621-3.465a3.417 3.417 0 00-.825-.468 2.181 2.181 0 00-.8-.168h-.013a1.2 1.2 0 00-.923.349 1.388 1.388 0 00-.328.991 1.368 1.368 0 00.358.984 1.631 1.631 0 001.016.458h.007v1.442h-.007a3.736 3.736 0 01-1.46-.5 2.561 2.561 0 01-.923-.982 2.924 2.924 0 01-.317-1.388 3.469 3.469 0 01.3-1.517 2.138 2.138 0 01.886-.957 2.805 2.805 0 011.4-.328h.013a3.108 3.108 0 011.1.218 4.713 4.713 0 011.107.609l3.91 2.878v-3.76h1.327v5.6zM28.037 221l-4.621-3.466a3.485 3.485 0 00-.825-.468 2.181 2.181 0 00-.8-.168h-.013a1.208 1.208 0 00-.923.349 1.391 1.391 0 00-.328.991 1.369 1.369 0 00.358.985 1.631 1.631 0 001.016.458h.007v1.442h-.007a3.72 3.72 0 01-1.46-.5 2.559 2.559 0 01-.923-.981 2.929 2.929 0 01-.317-1.388 3.47 3.47 0 01.3-1.518 2.138 2.138 0 01.886-.957 2.816 2.816 0 011.4-.328h.013a3.088 3.088 0 011.1.219 4.745 4.745 0 011.107.608l3.91 2.878v-3.759h1.327V221zM28.6 212.9a2.866 2.866 0 01-2.078.72h-4.515a2.856 2.856 0 01-2.082-.724 3.393 3.393 0 010-4.229 2.863 2.863 0 012.085-.721h4.519a2.854 2.854 0 012.081.725 3.379 3.379 0 010 4.229zm-.968-3.208a1.6 1.6 0 00-1.11-.351h-4.515a1.6 1.6 0 00-1.111.349 1.742 1.742 0 000 2.187 1.607 1.607 0 001.111.349h4.519a1.6 1.6 0 001.11-.352 1.731 1.731 0 000-2.182zM28.6 205.17a2.867 2.867 0 01-2.078.721h-4.515a2.856 2.856 0 01-2.082-.725 3.393 3.393 0 010-4.229 2.863 2.863 0 012.085-.72h4.519a2.853 2.853 0 012.081.724 3.379 3.379 0 010 4.229zm-.968-3.207a1.59 1.59 0 00-1.11-.352h-4.515a1.607 1.607 0 00-1.111.349 1.742 1.742 0 000 2.187 1.6 1.6 0 001.111.349h4.519a1.6 1.6 0 001.11-.351 1.731 1.731 0 000-2.182z"/><path class="cls-7" d="M31.501 255.692l-1.461-1.461" id="LINE-25" data-name="LINE"/><path class="cls-7" d="M32.962 254.231l-1.461 1.461" id="LINE-26" data-name="LINE"/><path class="cls-7" d="M31.439 172.609l1.462 1.461" id="LINE-27" data-name="LINE"/><path class="cls-7" d="M29.978 174.07l1.461-1.461" id="LINE-28" data-name="LINE"/><path class="cls-7" d="M31.495 114.863h22.788" id="LINE-29" data-name="LINE"/><path class="cls-7" d="M31.44 49.024h22.788" id="LINE-30" data-name="LINE"/><path class="cls-7" d="M31.446 49.024l.049 65.839" id="LINE-31" data-name="LINE"/><path d="M29.247 90.561v1.394h-8.422l.868 1.415H20.25l-.943-1.415v-1.394zM20.551 83.171l8.7 2.57v1.484l-8.614-2.571v2.53h1.429v1.394h-2.759v-5.407zM29.247 78.857v1.395h-8.422l.868 1.415H20.25l-.943-1.415v-1.395zM28.6 75.881a2.865 2.865 0 01-2.078.721h-4.515a2.854 2.854 0 01-2.081-.725 3.391 3.391 0 010-4.229 2.864 2.864 0 012.085-.72h4.519a2.856 2.856 0 012.082.724 3.38 3.38 0 010 4.229zm-.967-3.207a1.593 1.593 0 00-1.111-.352h-4.515a1.6 1.6 0 00-1.11.349 1.738 1.738 0 000 2.187 1.6 1.6 0 001.11.349h4.519a1.593 1.593 0 001.111-.352 1.733 1.733 0 000-2.181z"/><path class="cls-7" d="M31.502 114.863l-1.462-1.461" id="LINE-32" data-name="LINE"/><path class="cls-7" d="M32.963 113.402l-1.461 1.461" id="LINE-33" data-name="LINE"/><path class="cls-7" d="M31.44 49.024l1.461 1.462" id="LINE-34" data-name="LINE"/><path class="cls-7" d="M29.979 50.486l1.461-1.462" id="LINE-35" data-name="LINE"/><path class="cls-7" d="M31.495 49.024h22.788" id="LINE-36" data-name="LINE"/><path class="cls-7" d="M31.44 25.903h22.788" id="LINE-37" data-name="LINE"/><path class="cls-7" d="M31.462 25.903l.017 23.121" id="LINE-38" data-name="LINE"/><path d="M29 46.586a2.3 2.3 0 01-1.026.947 3.718 3.718 0 01-1.624.324h-.007a5.608 5.608 0 01-1.162-.129 6.787 6.787 0 01-1.2-.376 3.026 3.026 0 01-.2-.089l-.2-.1-4.279-2.16V43.5l4.956 2.536-.246-.007a1.2 1.2 0 01-.5-.5 1.586 1.586 0 01-.178-.765 2.447 2.447 0 01.349-1.327 2.172 2.172 0 011.016-.84 4.024 4.024 0 011.6-.288h.007a3.784 3.784 0 011.641.326 2.284 2.284 0 011.039.949 3.359 3.359 0 010 3zm-1.4-2.52a1.726 1.726 0 00-1.169-.358h-.007a1.968 1.968 0 00-1.288.376 1.314 1.314 0 00-.455 1.073 1.132 1.132 0 00.458.964 2.128 2.128 0 001.292.342h.007A1.7 1.7 0 0027.6 46.1a1.475 1.475 0 000-2.037zM29.055 39.028a2.4 2.4 0 01-.854.951 3.39 3.39 0 01-1.347.489h-.007v-1.4h.007a1.3 1.3 0 00.852-.437 1.421 1.421 0 00.3-.944 1.261 1.261 0 00-.447-1.035 1.944 1.944 0 00-1.262-.366h-.834a1.93 1.93 0 00-1.254.366 1.261 1.261 0 00-.448 1.035 1.326 1.326 0 00.205.7 1.964 1.964 0 00.574.588v1.271h-5.233v-5.062h1.326v3.67h2.236a1.979 1.979 0 01-.328-.581 1.9 1.9 0 01-.117-.656 2.885 2.885 0 01.356-1.473 2.284 2.284 0 011.039-.93 3.9 3.9 0 011.647-.318h.834a3.775 3.775 0 011.648.329 2.326 2.326 0 011.043.957 3 3 0 01.358 1.51 2.928 2.928 0 01-.294 1.336zM29.055 31.406a2.4 2.4 0 01-.854.951 3.39 3.39 0 01-1.347.489h-.007v-1.395h.007a1.3 1.3 0 00.852-.437 1.423 1.423 0 00.3-.944 1.261 1.261 0 00-.447-1.035 1.944 1.944 0 00-1.262-.366h-.834a1.93 1.93 0 00-1.254.366 1.261 1.261 0 00-.448 1.035 1.326 1.326 0 00.205.7 1.95 1.95 0 00.574.587v1.272h-5.233v-5.067h1.326v3.67h2.236a1.979 1.979 0 01-.328-.581 1.9 1.9 0 01-.117-.651 2.891 2.891 0 01.356-1.474 2.287 2.287 0 011.039-.929 3.9 3.9 0 011.647-.318h.834a3.775 3.775 0 011.648.329 2.326 2.326 0 011.043.957 3 3 0 01.358 1.51 2.928 2.928 0 01-.294 1.331z"/><path class="cls-7" d="M31.502 49.024l-1.462-1.461" id="LINE-39" data-name="LINE"/><path class="cls-7" d="M32.963 47.563l-1.461 1.461" id="LINE-40" data-name="LINE"/><path class="cls-7" d="M31.44 25.903l1.461 1.461" id="LINE-41" data-name="LINE"/><path class="cls-7" d="M29.979 27.364l1.461-1.461" id="LINE-42" data-name="LINE"/><path class="cls-7" d="M31.495 396.278h22.788" id="LINE-43" data-name="LINE"/><path class="cls-7" d="M31.44 366.286h22.788" id="LINE-44" data-name="LINE"/><path class="cls-7" d="M31.459 366.286l.023 29.992" id="LINE-45" data-name="LINE"/><path d="M29.007 390.321a2.494 2.494 0 01-.966 1.057 2.791 2.791 0 01-1.454.372h-.164a2.8 2.8 0 01-1.4-.372 2.489 2.489 0 01-.991-1 2.193 2.193 0 01-.83.845 2.254 2.254 0 01-1.146.317h-.239a2.636 2.636 0 01-1.37-.349 2.35 2.35 0 01-.916-.984 3.516 3.516 0 010-2.953 2.358 2.358 0 01.916-.985 2.645 2.645 0 011.37-.348h.239a2.2 2.2 0 011.155.325 2.158 2.158 0 01.821.857 2.567 2.567 0 011-1.007 2.722 2.722 0 011.4-.38h.164a2.791 2.791 0 011.454.372 2.491 2.491 0 01.966 1.056 3.848 3.848 0 010 3.172zM23.337 388a1.254 1.254 0 00-.516-.5 1.63 1.63 0 00-.773-.178h-.095a1.51 1.51 0 00-.739.178 1.226 1.226 0 00-.495.5 1.646 1.646 0 000 1.477 1.238 1.238 0 00.495.5 1.523 1.523 0 00.745.177h.1a1.6 1.6 0 00.763-.177 1.275 1.275 0 00.512-.5 1.6 1.6 0 000-1.477zm4.481-.116a1.382 1.382 0 00-.536-.571 1.558 1.558 0 00-.8-.2h-.1a1.567 1.567 0 00-.8.2 1.384 1.384 0 00-.537.571 2.007 2.007 0 000 1.709 1.384 1.384 0 00.54.571 1.59 1.59 0 00.807.2h.1a1.531 1.531 0 00.792-.2 1.37 1.37 0 00.531-.571 1.863 1.863 0 00.187-.855 1.825 1.825 0 00-.184-.857zM29 382.706a2.3 2.3 0 01-1.026.947 3.718 3.718 0 01-1.624.325h-.007a5.545 5.545 0 01-1.162-.13 6.787 6.787 0 01-1.2-.376 3.026 3.026 0 01-.2-.089l-.2-.1-4.279-2.16v-1.5l4.956 2.536-.246-.007a1.2 1.2 0 01-.5-.5 1.583 1.583 0 01-.178-.765 2.441 2.441 0 01.349-1.326 2.168 2.168 0 011.016-.841 4.024 4.024 0 011.6-.287h.007a3.785 3.785 0 011.641.325 2.29 2.29 0 011.039.949 3.359 3.359 0 010 3zm-1.4-2.519a1.721 1.721 0 00-1.169-.359h-.007a1.968 1.968 0 00-1.288.376 1.314 1.314 0 00-.455 1.073 1.132 1.132 0 00.458.964 2.128 2.128 0 001.292.342h.007a1.7 1.7 0 001.166-.359 1.475 1.475 0 000-2.037zM28.6 375.867a2.861 2.861 0 01-2.078.721h-4.515a2.849 2.849 0 01-2.081-.725 3.39 3.39 0 010-4.228 2.861 2.861 0 012.085-.721h4.519a2.852 2.852 0 012.082.725 3.379 3.379 0 010 4.228zm-.967-3.207a1.6 1.6 0 00-1.111-.351h-4.515a1.6 1.6 0 00-1.11.348 1.74 1.74 0 000 2.188 1.6 1.6 0 001.11.348h4.519a1.6 1.6 0 001.111-.351 1.735 1.735 0 000-2.182z"/><path class="cls-7" d="M31.502 396.278l-1.462-1.461" id="LINE-46" data-name="LINE"/><path class="cls-7" d="M32.963 394.817l-1.461 1.461" id="LINE-47" data-name="LINE"/><path class="cls-7" d="M31.44 366.286l1.461 1.461" id="LINE-48" data-name="LINE"/><path class="cls-7" d="M29.979 367.747l1.461-1.461" id="LINE-49" data-name="LINE"/><path class="cls-7" d="M31.495 366.286h22.788" id="LINE-50" data-name="LINE"/><path class="cls-7" d="M31.44 300.447h22.788" id="LINE-51" data-name="LINE"/><path class="cls-7" d="M31.446 300.447l.049 65.839" id="LINE-52" data-name="LINE"/><path d="M29.247 341.982v1.395h-8.422l.868 1.415H20.25l-.943-1.415v-1.395zM20.551 334.593l8.7 2.57v1.483l-8.614-2.57v2.529h1.429V340h-2.759v-5.407zM29.247 330.279v1.395h-8.422l.868 1.415H20.25l-.943-1.415v-1.395zM28.6 327.3a2.865 2.865 0 01-2.078.72h-4.515a2.853 2.853 0 01-2.081-.724 3.391 3.391 0 010-4.229 2.864 2.864 0 012.085-.72h4.519a2.856 2.856 0 012.082.724 3.38 3.38 0 010 4.229zm-.967-3.207a1.593 1.593 0 00-1.111-.352h-4.515a1.6 1.6 0 00-1.11.349 1.738 1.738 0 000 2.187 1.6 1.6 0 001.11.349h4.519a1.593 1.593 0 001.111-.352 1.733 1.733 0 000-2.181z"/><path class="cls-7" d="M31.502 366.286l-1.462-1.462" id="LINE-53" data-name="LINE"/><path class="cls-7" d="M32.963 364.824l-1.461 1.462" id="LINE-54" data-name="LINE"/><path class="cls-7" d="M31.44 300.447l1.461 1.461" id="LINE-55" data-name="LINE"/><path class="cls-7" d="M29.979 301.908l1.461-1.461" id="LINE-56" data-name="LINE"/><path class="cls-7" d="M31.495 172.585h22.788" id="LINE-57" data-name="LINE"/><path class="cls-7" d="M31.439 115.15h22.789" id="LINE-58" data-name="LINE"/><path class="cls-7" d="M31.448 115.15l.044 57.435" id="LINE-59" data-name="LINE"/><path d="M29.247 154.06v1.394h-8.422l.868 1.415H20.25l-.943-1.415v-1.394zM29.055 150.364a2.412 2.412 0 01-.854.951 3.4 3.4 0 01-1.347.489h-.007v-1.4h.007a1.3 1.3 0 00.851-.437 1.418 1.418 0 00.3-.944 1.259 1.259 0 00-.448-1.035 1.941 1.941 0 00-1.261-.366h-.834a1.933 1.933 0 00-1.255.366 1.264 1.264 0 00-.447 1.035 1.326 1.326 0 00.205.7 1.95 1.95 0 00.574.587v1.272h-5.232v-5.062h1.326v3.67h2.236a1.935 1.935 0 01-.328-.581 1.876 1.876 0 01-.117-.656 2.881 2.881 0 01.356-1.474 2.277 2.277 0 011.039-.929 3.9 3.9 0 011.647-.318h.834a3.778 3.778 0 011.648.329 2.328 2.328 0 011.042.957 3 3 0 01.359 1.51 2.941 2.941 0 01-.294 1.336zM28.037 144.332l-4.621-3.466a3.485 3.485 0 00-.825-.468 2.181 2.181 0 00-.8-.168h-.013a1.208 1.208 0 00-.923.349 1.391 1.391 0 00-.328.991 1.369 1.369 0 00.358.985 1.631 1.631 0 001.016.458h.007v1.442h-.007a3.72 3.72 0 01-1.46-.5 2.559 2.559 0 01-.923-.981 2.929 2.929 0 01-.317-1.388 3.47 3.47 0 01.3-1.518 2.138 2.138 0 01.886-.957 2.816 2.816 0 011.4-.328h.013a3.088 3.088 0 011.1.219 4.708 4.708 0 011.107.608l3.91 2.878v-3.759h1.327v5.6zM28.6 136.228a2.862 2.862 0 01-2.078.721h-4.515a2.856 2.856 0 01-2.082-.724 3.393 3.393 0 010-4.229 2.863 2.863 0 012.085-.721h4.519a2.854 2.854 0 012.081.725 3.377 3.377 0 010 4.228zm-.968-3.207a1.6 1.6 0 00-1.11-.351h-4.515a1.6 1.6 0 00-1.111.349 1.742 1.742 0 000 2.187 1.607 1.607 0 001.111.349h4.519a1.6 1.6 0 001.11-.352 1.731 1.731 0 000-2.182z"/><path class="cls-7" d="M31.501 172.585l-1.461-1.461" id="LINE-60" data-name="LINE"/><path class="cls-7" d="M32.962 171.124l-1.461 1.461" id="LINE-61" data-name="LINE"/><path class="cls-7" d="M31.439 115.15l1.462 1.462" id="LINE-62" data-name="LINE"/><path class="cls-7" d="M29.978 116.612l1.461-1.462" id="LINE-63" data-name="LINE"/><path class="cls-7" d="M31.495 300.303h22.788" id="LINE-64" data-name="LINE"/><path class="cls-7" d="M31.439 255.692h22.789" id="LINE-65" data-name="LINE"/><path class="cls-7" d="M31.453 255.692l.034 44.611" id="LINE-66" data-name="LINE"/><path d="M29.247 288v1.4h-8.422l.868 1.415H20.25l-.943-1.415V288zM28.037 285.891l-4.621-3.466a3.451 3.451 0 00-.825-.468 2.181 2.181 0 00-.8-.168h-.013a1.2 1.2 0 00-.923.349 1.388 1.388 0 00-.328.991 1.368 1.368 0 00.358.984 1.626 1.626 0 001.016.458h.007v1.443h-.007a3.72 3.72 0 01-1.46-.5 2.554 2.554 0 01-.923-.982 2.922 2.922 0 01-.317-1.387 3.47 3.47 0 01.3-1.518 2.138 2.138 0 01.886-.957 2.805 2.805 0 011.4-.328h.013a3.088 3.088 0 011.1.219 4.673 4.673 0 011.107.608l3.91 2.878v-3.76h1.327v5.606zM28.037 278.658l-4.621-3.466a3.446 3.446 0 00-.825-.467 2.16 2.16 0 00-.8-.168h-.013a1.207 1.207 0 00-.923.348 1.391 1.391 0 00-.328.991 1.369 1.369 0 00.358.985 1.631 1.631 0 001.016.458h.007v1.442h-.007a3.72 3.72 0 01-1.46-.5 2.559 2.559 0 01-.923-.981 2.926 2.926 0 01-.317-1.388 3.466 3.466 0 01.3-1.517 2.133 2.133 0 01.886-.957 2.805 2.805 0 011.4-.329h.013a3.11 3.11 0 011.1.219 4.713 4.713 0 011.107.609l3.91 2.877v-3.759h1.327v5.605zM28.6 270.555a2.866 2.866 0 01-2.078.72h-4.515a2.856 2.856 0 01-2.082-.724 3.393 3.393 0 010-4.229 2.863 2.863 0 012.085-.72h4.519a2.853 2.853 0 012.081.724 3.379 3.379 0 010 4.229zm-.968-3.207a1.59 1.59 0 00-1.11-.352h-4.515a1.6 1.6 0 00-1.111.349 1.742 1.742 0 000 2.187 1.6 1.6 0 001.111.349h4.519a1.59 1.59 0 001.11-.352 1.73 1.73 0 000-2.181z"/><path class="cls-7" d="M31.501 300.303l-1.461-1.461" id="LINE-67" data-name="LINE"/><path class="cls-7" d="M32.962 298.842l-1.461 1.461" id="LINE-68" data-name="LINE"/><path class="cls-7" d="M31.439 255.692l1.462 1.461" id="LINE-69" data-name="LINE"/><path class="cls-7" d="M29.978 257.153l1.461-1.461" id="LINE-70" data-name="LINE"/><path class="cls-7" d="M82.468 25.903V138.2" id="LINE-71" data-name="LINE"/><path d="M80.376 94.734l-.3.636a2.508 2.508 0 01-.882 1.023 3.212 3.212 0 01-1.392.488v-1.422a1.5 1.5 0 00.7-.267 1.232 1.232 0 00.407-.53 1.992 1.992 0 00.134-.762 1.479 1.479 0 00-.37-1.073 1.376 1.376 0 00-1.039-.383h-.3a1.676 1.676 0 00-1.153.363 1.3 1.3 0 00-.406 1.025v.7h-1.332v-.7a1.163 1.163 0 00-.35-.9 1.4 1.4 0 00-.984-.322H72.8a1.2 1.2 0 00-.91.339 1.338 1.338 0 00-.32.96 1.459 1.459 0 00.133.636 1.206 1.206 0 00.41.475 1.881 1.881 0 00.693.284v1.415a3.627 3.627 0 01-1.394-.516 2.523 2.523 0 01-.881-.961 2.852 2.852 0 01-.3-1.333 2.757 2.757 0 01.676-1.989 2.521 2.521 0 011.908-.7h.164a2.154 2.154 0 011.3.4 2.282 2.282 0 01.806 1.142 2.026 2.026 0 01.8-1.261 2.647 2.647 0 011.586-.448h.164a3.062 3.062 0 011.485.335 2.208 2.208 0 01.935.974 3.389 3.389 0 01.322 1.541zM79.63 88.347a2.865 2.865 0 01-2.078.72h-4.517a2.852 2.852 0 01-2.082-.724 3.387 3.387 0 010-4.229 2.862 2.862 0 012.086-.72h4.517a2.558 2.558 0 012.824 2.836 2.816 2.816 0 01-.75 2.117zm-.966-3.207a1.594 1.594 0 00-1.112-.352h-4.517a1.6 1.6 0 00-1.112.349 1.742 1.742 0 000 2.187 1.6 1.6 0 001.112.349h4.517a1.594 1.594 0 001.112-.352 1.733 1.733 0 000-2.181zM77.539 81.479l-7.2-3.335v-1.436l7.116 3.254v-4.874h1.295v6.391zm-3.11-4.286v-1.36h5.852v1.36zM79.63 72.658a2.861 2.861 0 01-2.078.721h-4.517a2.849 2.849 0 01-2.082-.725 3.386 3.386 0 010-4.228 2.858 2.858 0 012.086-.721h4.517a2.559 2.559 0 012.824 2.837 2.812 2.812 0 01-.75 2.116zm-.966-3.207a1.6 1.6 0 00-1.112-.351h-4.517a1.608 1.608 0 00-1.112.348 1.743 1.743 0 000 2.188 1.608 1.608 0 001.112.348h4.517a1.6 1.6 0 001.112-.351 1.735 1.735 0 000-2.182z"/><path class="cls-7" d="M82.468 138.101l-1.461-1.462" id="LINE-72" data-name="LINE"/><path class="cls-7" d="M83.93 136.639l-1.462 1.462" id="LINE-73" data-name="LINE"/><path class="cls-7" d="M82.469 25.903l1.461 1.461" id="LINE-74" data-name="LINE"/><path class="cls-7" d="M81.008 27.364l1.461-1.461" id="LINE-75" data-name="LINE"/><path class="cls-7" d="M256.67 25.903v119.855" id="LINE-76" data-name="LINE"/><path d="M254.578 101.31l-.305.635a2.506 2.506 0 01-.881 1.023 3.191 3.191 0 01-1.392.488v-1.422a1.513 1.513 0 00.7-.266 1.249 1.249 0 00.407-.531 2.006 2.006 0 00.133-.761 1.485 1.485 0 00-.369-1.074 1.375 1.375 0 00-1.039-.382h-.3a1.683 1.683 0 00-1.153.362 1.3 1.3 0 00-.406 1.025v.7h-1.326v-.7a1.163 1.163 0 00-.349-.9 1.4 1.4 0 00-.984-.321H247a1.191 1.191 0 00-.909.338 1.339 1.339 0 00-.321.96 1.47 1.47 0 00.133.636 1.223 1.223 0 00.41.475 1.87 1.87 0 00.694.284v1.415a3.627 3.627 0 01-1.394-.516 2.526 2.526 0 01-.882-.961 2.852 2.852 0 01-.3-1.333 2.757 2.757 0 01.677-1.989 2.519 2.519 0 011.907-.7h.164a2.154 2.154 0 011.3.4 2.278 2.278 0 01.807 1.142 2.022 2.022 0 01.8-1.261 2.647 2.647 0 011.586-.448h.164a3.053 3.053 0 011.484.335 2.212 2.212 0 01.936.975 3.4 3.4 0 01.322 1.541zM254.475 93.243v1.4h-8.422l.868 1.415h-1.442l-.943-1.415v-1.4zM254.226 89.921a2.293 2.293 0 01-1.025.947 3.724 3.724 0 01-1.624.324h-.007a5.545 5.545 0 01-1.162-.13 6.661 6.661 0 01-1.2-.375 3.278 3.278 0 01-.2-.089l-.194-.1-4.279-2.16v-1.5l4.956 2.536-.246-.007a1.189 1.189 0 01-.5-.5 1.575 1.575 0 01-.178-.765 2.444 2.444 0 01.348-1.327 2.177 2.177 0 011.016-.84 4.025 4.025 0 011.6-.288h.006a3.784 3.784 0 011.641.326 2.284 2.284 0 011.039.949 3.351 3.351 0 010 3zm-1.4-2.52a1.728 1.728 0 00-1.169-.358h-.007a1.967 1.967 0 00-1.289.376 1.313 1.313 0 00-.454 1.073 1.133 1.133 0 00.458.964 2.122 2.122 0 001.292.342h.007a1.7 1.7 0 001.166-.36 1.475 1.475 0 000-2.037zM253.833 83.082a2.871 2.871 0 01-2.079.721h-4.518a2.852 2.852 0 01-2.082-.725 3.391 3.391 0 010-4.228 2.856 2.856 0 012.085-.721h4.518a2.85 2.85 0 012.081.724 3.377 3.377 0 010 4.229zm-.968-3.207a1.594 1.594 0 00-1.111-.352h-4.518a1.605 1.605 0 00-1.111.349 1.743 1.743 0 000 2.188 1.6 1.6 0 001.111.348h4.518a1.594 1.594 0 001.111-.351 1.735 1.735 0 000-2.182z"/><path class="cls-7" d="M256.67 145.895l-1.461-1.461" id="LINE-77" data-name="LINE"/><path class="cls-7" d="M258.131 144.434l-1.461 1.461" id="LINE-78" data-name="LINE"/><path class="cls-7" d="M256.671 25.903l1.461 1.461" id="LINE-79" data-name="LINE"/><path class="cls-7" d="M255.21 27.364l1.461-1.461" id="LINE-80" data-name="LINE"/><path class="cls-7" d="M82.468 148.78v247.498" id="LINE-81" data-name="LINE"/><path d="M80.024 285.135a2.293 2.293 0 01-1.025.947 3.721 3.721 0 01-1.624.324h-.006a5.537 5.537 0 01-1.162-.13 6.781 6.781 0 01-1.2-.376 2.958 2.958 0 01-.2-.088l-.2-.1-4.28-2.16v-1.5l4.958 2.536-.247-.007a1.208 1.208 0 01-.5-.5 1.59 1.59 0 01-.177-.766 2.443 2.443 0 01.349-1.326 2.187 2.187 0 011.015-.841 4.042 4.042 0 011.6-.287h.008a3.806 3.806 0 011.641.325 2.3 2.3 0 011.039.95 3.355 3.355 0 010 3zm-1.4-2.52a1.728 1.728 0 00-1.169-.358h-.006a1.965 1.965 0 00-1.289.376 1.314 1.314 0 00-.455 1.073 1.132 1.132 0 00.459.964 2.125 2.125 0 001.291.342h.007a1.7 1.7 0 001.165-.36 1.471 1.471 0 000-2.037zM80.024 277.95a2.287 2.287 0 01-1.024.95 3.721 3.721 0 01-1.624.325h-.006a5.537 5.537 0 01-1.162-.13 6.781 6.781 0 01-1.2-.376 3.576 3.576 0 01-.2-.089l-.2-.1-4.28-2.16v-1.5l4.958 2.536-.247-.007a1.208 1.208 0 01-.5-.5 1.583 1.583 0 01-.177-.765 2.441 2.441 0 01.349-1.326 2.181 2.181 0 011.015-.841 4.024 4.024 0 011.6-.287h.008a3.791 3.791 0 011.641.325 2.3 2.3 0 011.039.949 3.355 3.355 0 010 3zm-1.4-2.519a1.723 1.723 0 00-1.169-.359h-.006a1.965 1.965 0 00-1.289.376 1.315 1.315 0 00-.455 1.073 1.129 1.129 0 00.459.964 2.119 2.119 0 001.291.342h.007a1.7 1.7 0 001.165-.359 1.471 1.471 0 000-2.037zM80.376 270.1l-.3.635a2.508 2.508 0 01-.882 1.023 3.187 3.187 0 01-1.392.488v-1.426a1.5 1.5 0 00.7-.266 1.241 1.241 0 00.407-.531 1.983 1.983 0 00.134-.761 1.481 1.481 0 00-.37-1.074 1.379 1.379 0 00-1.039-.382h-.3a1.681 1.681 0 00-1.153.362 1.3 1.3 0 00-.406 1.025v.7h-1.332v-.7a1.164 1.164 0 00-.35-.9 1.4 1.4 0 00-.984-.321H72.8a1.192 1.192 0 00-.91.339 1.335 1.335 0 00-.32.96 1.454 1.454 0 00.133.635 1.2 1.2 0 00.41.475 1.864 1.864 0 00.693.284v1.415a3.627 3.627 0 01-1.394-.516 2.52 2.52 0 01-.881-.96 2.855 2.855 0 01-.3-1.333 2.758 2.758 0 01.676-1.99 2.525 2.525 0 011.908-.7h.164a2.154 2.154 0 011.3.4 2.282 2.282 0 01.806 1.142 2.026 2.026 0 01.8-1.261 2.654 2.654 0 011.586-.448h.164a3.062 3.062 0 011.485.335 2.21 2.21 0 01.935.975 3.383 3.383 0 01.322 1.541zM80.082 262.989a2.412 2.412 0 01-.854.951 3.4 3.4 0 01-1.348.489v-1.395a1.294 1.294 0 00.852-.437 1.418 1.418 0 00.305-.944 1.262 1.262 0 00-.449-1.035 1.936 1.936 0 00-1.26-.366h-.834a1.931 1.931 0 00-1.255.366 1.261 1.261 0 00-.448 1.035 1.317 1.317 0 00.2.7 1.938 1.938 0 00.574.587v1.272h-5.232v-5.065h1.327v3.67h2.24a1.935 1.935 0 01-.328-.581 1.9 1.9 0 01-.117-.656 2.9 2.9 0 01.355-1.474 2.287 2.287 0 011.039-.929 3.905 3.905 0 011.649-.318h.834a3.769 3.769 0 011.646.329 2.32 2.32 0 011.043.957 3 3 0 01.359 1.51 2.928 2.928 0 01-.298 1.334z"/><path class="cls-7" d="M82.468 396.62l-1.461-1.461" id="LINE-82" data-name="LINE"/><path class="cls-7" d="M83.93 395.159l-1.462 1.461" id="LINE-83" data-name="LINE"/><path class="cls-7" d="M82.469 148.78l1.461 1.462" id="LINE-84" data-name="LINE"/><path class="cls-7" d="M81.008 150.242l1.461-1.462" id="LINE-85" data-name="LINE"/><path class="cls-7" d="M207.033 148.78v74.628" id="LINE-86" data-name="LINE"/><path d="M204.837 196.389v1.394h-8.421l.868 1.415h-1.443l-.943-1.415v-1.394zM199.9 190.612l.246.007a1.029 1.029 0 01.462.516 2.078 2.078 0 01.146.817 2.189 2.189 0 01-.362 1.251 2.371 2.371 0 01-1.021.838 3.714 3.714 0 01-1.529.3h-.007a3.836 3.836 0 01-1.647-.324 2.3 2.3 0 01-1.039-.952 3 3 0 01-.356-1.5 2.923 2.923 0 01.363-1.5 2.326 2.326 0 011.052-.946 3.876 3.876 0 011.662-.325h.006a5.186 5.186 0 011.139.137 6.865 6.865 0 011.2.389l.182.082c.061.028.122.057.181.089l4.258 2.119v1.5zm-.861-.065a1.949 1.949 0 00-1.251-.359h-.007a1.857 1.857 0 00-1.217.359 1.419 1.419 0 000 2.037 1.857 1.857 0 001.224.359h.006a1.925 1.925 0 001.248-.359 1.393 1.393 0 000-2.037zM204.6 185.622a2.5 2.5 0 01-.967 1.057 2.788 2.788 0 01-1.453.372h-.164a2.8 2.8 0 01-1.4-.372 2.489 2.489 0 01-.991-1 2.186 2.186 0 01-.831.844 2.242 2.242 0 01-1.145.318h-.239a2.646 2.646 0 01-1.37-.349 2.343 2.343 0 01-.916-.984 3.507 3.507 0 010-2.953 2.352 2.352 0 01.916-.985 2.645 2.645 0 011.37-.348h.239a2.2 2.2 0 011.155.325 2.158 2.158 0 01.821.857 2.569 2.569 0 01.995-1.008 2.722 2.722 0 011.4-.38h.164a2.779 2.779 0 011.453.373 2.494 2.494 0 01.967 1.056 3.848 3.848 0 010 3.172zm-5.67-2.324a1.254 1.254 0 00-.516-.5 1.63 1.63 0 00-.773-.178h-.1a1.509 1.509 0 00-.738.178 1.226 1.226 0 00-.5.5 1.644 1.644 0 000 1.476 1.226 1.226 0 00.5.5 1.512 1.512 0 00.745.178h.1a1.589 1.589 0 00.763-.178 1.262 1.262 0 00.512-.5 1.6 1.6 0 000-1.476zm4.481-.116a1.391 1.391 0 00-.536-.572 1.57 1.57 0 00-.8-.2h-.1a1.577 1.577 0 00-.8.2 1.393 1.393 0 00-.537.572 2.007 2.007 0 000 1.709 1.384 1.384 0 00.54.571 1.59 1.59 0 00.807.2h.1a1.532 1.532 0 00.793-.2 1.37 1.37 0 00.531-.571 1.866 1.866 0 00.187-.855 1.825 1.825 0 00-.187-.854zM204.2 178.353a2.866 2.866 0 01-2.078.72H197.6a2.853 2.853 0 01-2.081-.724 3.391 3.391 0 010-4.229 2.863 2.863 0 012.085-.721h4.519a2.856 2.856 0 012.082.725 3.38 3.38 0 010 4.229zm-.967-3.208a1.6 1.6 0 00-1.111-.351H197.6a1.6 1.6 0 00-1.11.349 1.738 1.738 0 000 2.187 1.6 1.6 0 001.11.349h4.519a1.593 1.593 0 001.111-.352 1.735 1.735 0 000-2.182z"/><path class="cls-7" d="M207.033 223.309l-1.461-1.462" id="LINE-87" data-name="LINE"/><path class="cls-7" d="M208.494 221.847l-1.461 1.462" id="LINE-88" data-name="LINE"/><path class="cls-7" d="M207.034 148.78l1.461 1.462" id="LINE-89" data-name="LINE"/><path class="cls-7" d="M205.572 150.242l1.462-1.462" id="LINE-90" data-name="LINE"/><path class="cls-7" d="M268.783 148.78v96.969" id="LINE-91" data-name="LINE"/><path d="M265.377 211.616l-4.621-3.466a3.416 3.416 0 00-.823-.467 2.169 2.169 0 00-.8-.168h-.013a1.205 1.205 0 00-.923.348 1.391 1.391 0 00-.328.991 1.369 1.369 0 00.359.985 1.629 1.629 0 001.015.458h.006v1.442h-.006a3.721 3.721 0 01-1.459-.5 2.559 2.559 0 01-.923-.981 2.927 2.927 0 01-.319-1.388 3.451 3.451 0 01.305-1.517 2.131 2.131 0 01.885-.957 2.805 2.805 0 011.4-.329h.007a3.106 3.106 0 011.1.219 4.733 4.733 0 011.107.609l3.91 2.877v-3.759h1.326v5.605zM266.4 202.794a2.392 2.392 0 01-.855.951 3.4 3.4 0 01-1.346.488h-.007v-1.394h.007a1.291 1.291 0 00.851-.438 1.413 1.413 0 00.3-.943 1.261 1.261 0 00-.447-1.035 1.944 1.944 0 00-1.262-.366h-.834a1.93 1.93 0 00-1.254.366 1.259 1.259 0 00-.448 1.035 1.314 1.314 0 00.2.7 1.953 1.953 0 00.574.588v1.272h-5.236v-5.066h1.326v3.671h2.235a2.015 2.015 0 01-.328-.581 1.926 1.926 0 01-.116-.656 2.889 2.889 0 01.356-1.474 2.289 2.289 0 011.039-.93 3.915 3.915 0 011.647-.317h.834a3.778 3.778 0 011.648.328 2.331 2.331 0 011.043.957 3 3 0 01.358 1.511 2.931 2.931 0 01-.285 1.333zM266.348 195.285a2.5 2.5 0 01-.967 1.057 2.788 2.788 0 01-1.453.372h-.164a2.8 2.8 0 01-1.4-.372 2.489 2.489 0 01-.991-1 2.186 2.186 0 01-.831.844 2.242 2.242 0 01-1.145.318h-.239a2.636 2.636 0 01-1.37-.349 2.343 2.343 0 01-.916-.984 3.507 3.507 0 010-2.953 2.352 2.352 0 01.916-.985 2.645 2.645 0 011.37-.348h.239a2.2 2.2 0 011.155.325 2.158 2.158 0 01.821.857 2.569 2.569 0 011-1.008 2.731 2.731 0 011.4-.379h.164a2.788 2.788 0 011.453.372 2.494 2.494 0 01.967 1.056 3.848 3.848 0 010 3.172zm-5.67-2.324a1.254 1.254 0 00-.516-.5 1.63 1.63 0 00-.773-.178h-.1a1.509 1.509 0 00-.738.178 1.226 1.226 0 00-.5.5 1.644 1.644 0 000 1.476 1.235 1.235 0 00.5.5 1.523 1.523 0 00.745.177h.1a1.6 1.6 0 00.763-.177 1.271 1.271 0 00.512-.5 1.6 1.6 0 000-1.476zm4.481-.116a1.391 1.391 0 00-.536-.572 1.57 1.57 0 00-.8-.2h-.1a1.577 1.577 0 00-.8.2 1.393 1.393 0 00-.537.572 2.007 2.007 0 000 1.709 1.384 1.384 0 00.54.571 1.59 1.59 0 00.807.2h.1a1.532 1.532 0 00.793-.2 1.37 1.37 0 00.531-.571 1.866 1.866 0 00.187-.855 1.825 1.825 0 00-.185-.854zM265.945 188.016a2.866 2.866 0 01-2.078.72h-4.519a2.853 2.853 0 01-2.081-.724 3.391 3.391 0 010-4.229 2.863 2.863 0 012.085-.721h4.519a2.856 2.856 0 012.082.725 3.38 3.38 0 010 4.229zm-.967-3.207a1.593 1.593 0 00-1.111-.352h-4.519a1.6 1.6 0 00-1.11.349 1.738 1.738 0 000 2.187 1.6 1.6 0 001.11.349h4.519a1.593 1.593 0 001.111-.352 1.733 1.733 0 000-2.181z"/><path class="cls-7" d="M268.783 245.649l-1.461-1.461" id="LINE-92" data-name="LINE"/><path class="cls-7" d="M270.244 244.188l-1.461 1.461" id="LINE-93" data-name="LINE"/><path class="cls-7" d="M268.784 148.78l1.461 1.462" id="LINE-94" data-name="LINE"/><path class="cls-7" d="M267.322 150.242l1.462-1.462" id="LINE-95" data-name="LINE"/><path class="cls-7" d="M198.605 249.102v125.073" id="LINE-96" data-name="LINE"/><path d="M196.512 323.845l-.3.635a2.521 2.521 0 01-.881 1.023 3.187 3.187 0 01-1.392.488v-1.422a1.5 1.5 0 00.7-.266 1.236 1.236 0 00.408-.531 2 2 0 00.132-.761 1.485 1.485 0 00-.369-1.074 1.379 1.379 0 00-1.039-.382h-.3a1.676 1.676 0 00-1.151.362 1.3 1.3 0 00-.407 1.025v.7h-1.326v-.7a1.167 1.167 0 00-.349-.9 1.4 1.4 0 00-.984-.321h-.308a1.19 1.19 0 00-.909.339 1.337 1.337 0 00-.321.96 1.454 1.454 0 00.133.635 1.215 1.215 0 00.41.475 1.853 1.853 0 00.694.284v1.415a3.654 3.654 0 01-1.395-.515 2.557 2.557 0 01-.882-.961 2.867 2.867 0 01-.3-1.333 2.758 2.758 0 01.676-1.99 2.525 2.525 0 011.908-.7h.164a2.148 2.148 0 011.3.4 2.269 2.269 0 01.806 1.141 2.027 2.027 0 01.8-1.261 2.652 2.652 0 011.586-.448h.164a3.051 3.051 0 011.483.335 2.209 2.209 0 01.937.975 3.383 3.383 0 01.321 1.541zM196.512 316.441l-.3.636a2.521 2.521 0 01-.881 1.023 3.2 3.2 0 01-1.392.488v-1.422a1.491 1.491 0 00.7-.267 1.227 1.227 0 00.408-.53 2.012 2.012 0 00.132-.762 1.483 1.483 0 00-.369-1.073 1.376 1.376 0 00-1.039-.383h-.3a1.671 1.671 0 00-1.151.363 1.3 1.3 0 00-.407 1.025v.7h-1.326v-.7a1.166 1.166 0 00-.349-.9 1.4 1.4 0 00-.984-.322h-.308a1.193 1.193 0 00-.909.339 1.339 1.339 0 00-.321.96 1.459 1.459 0 00.133.636 1.215 1.215 0 00.41.475 1.886 1.886 0 00.694.284v1.415a3.639 3.639 0 01-1.395-.516 2.55 2.55 0 01-.882-.961 2.864 2.864 0 01-.3-1.333 2.757 2.757 0 01.676-1.989 2.521 2.521 0 011.908-.7h.164a2.154 2.154 0 011.3.4 2.276 2.276 0 01.806 1.142 2.027 2.027 0 01.8-1.261 2.645 2.645 0 011.586-.448h.164a3.051 3.051 0 011.483.335 2.207 2.207 0 01.937.974 3.389 3.389 0 01.321 1.541zM196.512 309.038l-.3.636a2.518 2.518 0 01-.881 1.022 3.2 3.2 0 01-1.392.489v-1.422a1.491 1.491 0 00.7-.267 1.233 1.233 0 00.408-.53 2.012 2.012 0 00.132-.762 1.483 1.483 0 00-.369-1.073 1.376 1.376 0 00-1.039-.383h-.3a1.676 1.676 0 00-1.151.362 1.3 1.3 0 00-.407 1.026v.7h-1.326v-.7a1.168 1.168 0 00-.349-.9 1.4 1.4 0 00-.984-.321h-.308a1.19 1.19 0 00-.909.339 1.339 1.339 0 00-.321.96 1.462 1.462 0 00.133.636 1.219 1.219 0 00.41.474 1.853 1.853 0 00.694.284v1.415a3.622 3.622 0 01-1.395-.515 2.55 2.55 0 01-.882-.961 2.867 2.867 0 01-.3-1.333 2.754 2.754 0 01.676-1.989 2.521 2.521 0 011.908-.7h.164a2.148 2.148 0 011.3.4 2.269 2.269 0 01.806 1.141 2.025 2.025 0 01.8-1.26 2.645 2.645 0 011.586-.449h.164a3.063 3.063 0 011.483.335 2.209 2.209 0 01.937.975 3.389 3.389 0 01.321 1.541zM195.767 302.65a2.861 2.861 0 01-2.078.721h-4.519a2.849 2.849 0 01-2.081-.725 3.39 3.39 0 010-4.228 2.861 2.861 0 012.085-.721h4.519a2.558 2.558 0 012.823 2.837 2.812 2.812 0 01-.749 2.116zm-.967-3.207a1.6 1.6 0 00-1.111-.351h-4.519a1.6 1.6 0 00-1.11.348 1.74 1.74 0 000 2.188 1.6 1.6 0 001.11.349h4.519a1.6 1.6 0 001.111-.352 1.735 1.735 0 000-2.182z"/><path class="cls-7" d="M198.605 374.175l-1.461-1.461" id="LINE-97" data-name="LINE"/><path class="cls-7" d="M200.066 372.714l-1.461 1.461" id="LINE-98" data-name="LINE"/><path class="cls-7" d="M198.606 249.102l1.461 1.461" id="LINE-99" data-name="LINE"/><path class="cls-7" d="M197.145 250.563l1.461-1.461" id="LINE-100" data-name="LINE"/><path class="cls-7" d="M270.361 296.713v54.223" id="LINE-101" data-name="LINE"/><path d="M268.166 334.5v1.4h-8.421l.868 1.416h-1.443l-.943-1.416v-1.4zM265.432 332.383l-7.2-3.336v-1.436l7.116 3.254v-4.874h1.292v6.392zm-3.11-4.286v-1.361h5.851v1.364zM265.432 324.419l-7.2-3.336v-1.436l7.116 3.254v-4.874h1.292v6.392zm-3.11-4.286v-1.361h5.851v1.361zM267.975 314.879a2.412 2.412 0 01-.854.951 3.416 3.416 0 01-1.347.488h-.007v-1.394h.007a1.293 1.293 0 00.851-.438 1.413 1.413 0 00.3-.943 1.259 1.259 0 00-.448-1.035 1.941 1.941 0 00-1.261-.366h-.834a1.933 1.933 0 00-1.255.366 1.261 1.261 0 00-.447 1.035 1.314 1.314 0 00.2.7 1.953 1.953 0 00.574.588v1.269h-5.236v-5.066h1.326v3.671h2.236a1.972 1.972 0 01-.329-.581 1.9 1.9 0 01-.116-.656 2.879 2.879 0 01.356-1.474 2.279 2.279 0 011.039-.93 3.9 3.9 0 011.647-.317h.834a3.778 3.778 0 011.648.328 2.334 2.334 0 011.042.957 3 3 0 01.359 1.511 2.944 2.944 0 01-.285 1.336z"/><path class="cls-7" d="M270.361 350.836l-1.461-1.461" id="LINE-102" data-name="LINE"/><path class="cls-7" d="M271.822 349.375l-1.461 1.461" id="LINE-103" data-name="LINE"/><path class="cls-7" d="M270.362 296.713l1.461 1.462" id="LINE-104" data-name="LINE"/><path class="cls-7" d="M268.901 298.175l1.461-1.462" id="LINE-105" data-name="LINE"/><path class="cls-7" d="M270.361 249.102v30.229" id="LINE-106" data-name="LINE"/><path d="M259.471 269.036l8.695 2.57v1.484l-8.613-2.57v2.529h1.429v1.394h-2.755v-5.407zM263.231 263.6l.246.006a1.035 1.035 0 01.461.516 2.059 2.059 0 01.147.817 2.2 2.2 0 01-.362 1.251 2.367 2.367 0 01-1.022.838 3.693 3.693 0 01-1.528.3h-.007a3.818 3.818 0 01-1.647-.324 2.283 2.283 0 01-1.039-.951 2.986 2.986 0 01-.355-1.5 2.922 2.922 0 01.362-1.5 2.32 2.32 0 011.053-.947 3.88 3.88 0 011.661-.325h.007a5.176 5.176 0 011.137.137 6.937 6.937 0 011.2.39l.181.082c.062.027.122.056.182.088l4.258 2.12v1.5zm-.861-.066a1.953 1.953 0 00-1.251-.358h-.007a1.855 1.855 0 00-1.217.358 1.419 1.419 0 000 2.037 1.856 1.856 0 001.224.36h.006a1.925 1.925 0 001.248-.36 1.393 1.393 0 000-2.037zM267.524 259.217a2.868 2.868 0 01-2.078.72h-4.519a2.856 2.856 0 01-2.082-.724 3.393 3.393 0 010-4.229 2.861 2.861 0 012.085-.72h4.519a2.853 2.853 0 012.081.724 3.379 3.379 0 010 4.229zm-.968-3.207a1.59 1.59 0 00-1.11-.352h-4.519a1.6 1.6 0 00-1.111.349 1.742 1.742 0 000 2.187 1.6 1.6 0 001.111.349h4.519a1.59 1.59 0 001.11-.352 1.73 1.73 0 000-2.181z"/><path class="cls-7" d="M270.361 279.232l-1.461-1.462" id="LINE-107" data-name="LINE"/><path class="cls-7" d="M271.822 277.77l-1.461 1.462" id="LINE-108" data-name="LINE"/><path class="cls-7" d="M270.362 249.102l1.461 1.461" id="LINE-109" data-name="LINE"/><path class="cls-7" d="M268.901 250.563l1.461-1.461" id="LINE-110" data-name="LINE"/><path class="cls-7" d="M276.973 238.45h-68.689" id="LINE-111" data-name="LINE"/><path d="M232.064 236.255h-1.395v-8.422l-1.415.868v-1.442l1.415-.944h1.395zM235.646 236.016a2.5 2.5 0 01-1.057-.967 2.79 2.79 0 01-.372-1.453v-.164a2.8 2.8 0 01.372-1.4 2.5 2.5 0 011-.991 2.183 2.183 0 01-.844-.83 2.243 2.243 0 01-.318-1.146v-.239a2.651 2.651 0 01.349-1.37 2.362 2.362 0 01.984-.916 3.516 3.516 0 012.953 0 2.364 2.364 0 01.985.916 2.65 2.65 0 01.348 1.37v.239a2.2 2.2 0 01-.325 1.156 2.155 2.155 0 01-.857.82 2.583 2.583 0 011.008 1 2.728 2.728 0 01.38 1.4v.164a2.79 2.79 0 01-.372 1.453 2.508 2.508 0 01-1.057.967 3.859 3.859 0 01-3.172 0zm2.44-1.19a1.378 1.378 0 00.572-.536 1.565 1.565 0 00.2-.8v-.1a1.573 1.573 0 00-.2-.8 1.38 1.38 0 00-.572-.537 2 2 0 00-1.709 0 1.378 1.378 0 00-.571.54 1.586 1.586 0 00-.2.806v.1a1.535 1.535 0 00.2.793 1.374 1.374 0 00.571.53 1.869 1.869 0 00.855.188 1.825 1.825 0 00.854-.184zm-.116-4.48a1.25 1.25 0 00.5-.517 1.626 1.626 0 00.178-.772v-.1a1.506 1.506 0 00-.178-.738 1.226 1.226 0 00-.5-.5 1.644 1.644 0 00-1.476 0 1.226 1.226 0 00-.5.5 1.509 1.509 0 00-.178.745v.1a1.589 1.589 0 00.178.763 1.258 1.258 0 00.5.513 1.6 1.6 0 001.476 0zM242.916 235.612a2.861 2.861 0 01-.721-2.078v-4.518a2.852 2.852 0 01.724-2.081 3.387 3.387 0 014.229 0 2.862 2.862 0 01.721 2.085v4.518a2.854 2.854 0 01-.725 2.082 3.379 3.379 0 01-4.228 0zm3.207-.967a1.594 1.594 0 00.351-1.111v-4.518a1.6 1.6 0 00-.349-1.111 1.742 1.742 0 00-2.187 0 1.605 1.605 0 00-.349 1.111v4.518a1.594 1.594 0 00.352 1.111 1.735 1.735 0 002.182 0zM250.64 235.612a2.865 2.865 0 01-.721-2.078v-4.518a2.852 2.852 0 01.725-2.081 3.387 3.387 0 014.229 0 2.861 2.861 0 01.72 2.085v4.518a2.557 2.557 0 01-2.837 2.823 2.815 2.815 0 01-2.116-.749zm3.207-.967a1.59 1.59 0 00.352-1.111v-4.518a1.6 1.6 0 00-.349-1.111 1.742 1.742 0 00-2.187 0 1.6 1.6 0 00-.349 1.111v4.518a1.59 1.59 0 00.352 1.111 1.733 1.733 0 002.181 0z"/><path class="cls-7" d="M208.384 238.45l1.461-1.461" id="LINE-112" data-name="LINE"/><path class="cls-7" d="M209.845 239.911l-1.461-1.461" id="LINE-113" data-name="LINE"/><path class="cls-7" d="M276.973 238.451l-1.461 1.461" id="LINE-114" data-name="LINE"/><path class="cls-7" d="M275.512 236.989l1.461 1.462" id="LINE-115" data-name="LINE"/><path class="cls-7" d="M205.392 238.45H64.815" id="LINE-116" data-name="LINE"/><path d="M123.458 236.357l-.635-.3a2.516 2.516 0 01-1.023-.882 3.187 3.187 0 01-.488-1.392h1.422a1.509 1.509 0 00.266.7 1.241 1.241 0 00.531.407 1.987 1.987 0 00.761.133 1.481 1.481 0 001.074-.37 1.374 1.374 0 00.383-1.039v-.3a1.677 1.677 0 00-.363-1.152 1.3 1.3 0 00-1.025-.407h-.7v-1.326h.7a1.162 1.162 0 00.9-.349 1.4 1.4 0 00.321-.984v-.308a1.194 1.194 0 00-.338-.909 1.339 1.339 0 00-.96-.321 1.456 1.456 0 00-.636.134 1.2 1.2 0 00-.475.41 1.864 1.864 0 00-.284.693h-1.415a3.639 3.639 0 01.516-1.395 2.539 2.539 0 01.961-.881 2.852 2.852 0 011.333-.3 2.753 2.753 0 011.989.677 2.519 2.519 0 01.7 1.907v.164a2.152 2.152 0 01-.4 1.3 2.276 2.276 0 01-1.142.806 2.032 2.032 0 011.261.8 2.647 2.647 0 01.448 1.586v.164a3.058 3.058 0 01-.335 1.484 2.212 2.212 0 01-.975.936 3.383 3.383 0 01-1.541.321zM134.259 227.56l-2.57 8.695h-1.483l2.57-8.613h-2.529v1.428h-1.4v-2.755h5.407zM136.693 236.006a2.29 2.29 0 01-.947-1.026 3.718 3.718 0 01-.325-1.624v-.006a5.554 5.554 0 01.13-1.163 6.814 6.814 0 01.376-1.2c.028-.068.057-.136.089-.2l.1-.195 2.16-4.28h1.5l-2.536 4.956.007-.246a1.206 1.206 0 01.5-.5 1.583 1.583 0 01.765-.177 2.44 2.44 0 011.326.348 2.178 2.178 0 01.841 1.016 4.024 4.024 0 01.287 1.6v.007a3.785 3.785 0 01-.325 1.641 2.285 2.285 0 01-.949 1.039 3.359 3.359 0 01-3 0zm2.519-1.4a1.721 1.721 0 00.359-1.169v-.006a1.964 1.964 0 00-.376-1.288 1.313 1.313 0 00-1.073-.456 1.135 1.135 0 00-.964.458 2.128 2.128 0 00-.342 1.292v.007a1.7 1.7 0 00.359 1.166 1.473 1.473 0 002.037 0zM143.532 235.612a2.861 2.861 0 01-.721-2.078v-4.518a2.848 2.848 0 01.725-2.081 3.386 3.386 0 014.228 0 2.858 2.858 0 01.721 2.085v4.518a2.558 2.558 0 01-2.837 2.823 2.812 2.812 0 01-2.116-.749zm3.207-.967a1.594 1.594 0 00.351-1.111v-4.518a1.6 1.6 0 00-.348-1.111 1.743 1.743 0 00-2.188 0 1.6 1.6 0 00-.348 1.111v4.518a1.594 1.594 0 00.351 1.111 1.735 1.735 0 002.182 0z"/><path class="cls-7" d="M64.815 238.45l1.461-1.461" id="LINE-117" data-name="LINE"/><path class="cls-7" d="M66.276 239.911l-1.461-1.461" id="LINE-118" data-name="LINE"/><path class="cls-7" d="M205.392 238.451l-1.461 1.461" id="LINE-119" data-name="LINE"/><path class="cls-7" d="M203.931 236.989l1.461 1.462" id="LINE-120" data-name="LINE"/><path class="cls-7" d="M276.973 164.494H64.815" id="LINE-121" data-name="LINE"/><path d="M158.411 162.108a2.416 2.416 0 01-.952-.855 3.4 3.4 0 01-.488-1.346v-.007h1.4v.007a1.3 1.3 0 00.437.851 1.421 1.421 0 00.944.3 1.259 1.259 0 001.035-.448 1.941 1.941 0 00.366-1.261v-.834a1.928 1.928 0 00-.366-1.254 1.259 1.259 0 00-1.035-.448 1.317 1.317 0 00-.7.2 1.964 1.964 0 00-.588.574h-1.274v-5.227h5.065v1.326h-3.671v2.235a2 2 0 01.582-.328 1.917 1.917 0 01.656-.116 2.885 2.885 0 011.473.356 2.274 2.274 0 01.93 1.039 3.893 3.893 0 01.317 1.647v.834a3.77 3.77 0 01-.328 1.647 2.32 2.32 0 01-.957 1.043 3 3 0 01-1.51.359 2.928 2.928 0 01-1.336-.294zM165.66 162.05a2.292 2.292 0 01-.948-1.026 3.728 3.728 0 01-.324-1.623v-.007a5.545 5.545 0 01.13-1.162 6.761 6.761 0 01.376-1.2c.027-.069.057-.136.089-.2s.063-.131.1-.195l2.16-4.279h1.5l-2.536 4.956.006-.246a1.2 1.2 0 01.5-.5 1.579 1.579 0 01.766-.178 2.432 2.432 0 011.326.349 2.171 2.171 0 01.841 1.015 4.044 4.044 0 01.287 1.6v.007a3.783 3.783 0 01-.325 1.64 2.285 2.285 0 01-.949 1.039 3.351 3.351 0 01-3 0zm2.519-1.4a1.728 1.728 0 00.359-1.169v-.007a1.971 1.971 0 00-.376-1.289 1.316 1.316 0 00-1.074-.454 1.13 1.13 0 00-.963.458 2.124 2.124 0 00-.342 1.292v.007a1.7 1.7 0 00.359 1.165 1.474 1.474 0 002.037 0zM172.844 162.05a2.29 2.29 0 01-.947-1.026 3.713 3.713 0 01-.324-1.623v-.007a5.545 5.545 0 01.13-1.162 6.761 6.761 0 01.376-1.2c.027-.069.056-.136.088-.2s.064-.131.1-.195l2.16-4.279h1.5l-2.536 4.956.007-.246a1.189 1.189 0 01.5-.5 1.579 1.579 0 01.766-.178 2.435 2.435 0 011.326.349 2.177 2.177 0 01.841 1.015 4.044 4.044 0 01.287 1.6v.007a3.783 3.783 0 01-.326 1.64 2.279 2.279 0 01-.949 1.039 3.351 3.351 0 01-3 0zm2.52-1.4a1.728 1.728 0 00.358-1.169v-.007a1.971 1.971 0 00-.376-1.289 1.313 1.313 0 00-1.073-.454 1.133 1.133 0 00-.964.458 2.131 2.131 0 00-.342 1.292v.007a1.7 1.7 0 00.36 1.165 1.474 1.474 0 002.037 0zM179.683 161.657a2.868 2.868 0 01-.721-2.078v-4.519a2.856 2.856 0 01.725-2.082 3.393 3.393 0 014.229 0 2.861 2.861 0 01.72 2.085v4.519a2.558 2.558 0 01-2.836 2.818 2.819 2.819 0 01-2.117-.743zm3.207-.968a1.589 1.589 0 00.352-1.11v-4.519a1.607 1.607 0 00-.349-1.111 1.742 1.742 0 00-2.187 0 1.6 1.6 0 00-.349 1.111v4.519a1.593 1.593 0 00.351 1.11 1.731 1.731 0 002.182 0z"/><path class="cls-7" d="M64.815 164.494l1.461-1.461" id="LINE-122" data-name="LINE"/><path class="cls-7" d="M66.276 165.955l-1.461-1.461" id="LINE-123" data-name="LINE"/><path class="cls-7" d="M276.973 164.495l-1.461 1.461" id="LINE-124" data-name="LINE"/><path class="cls-7" d="M275.512 163.034l1.461 1.461" id="LINE-125" data-name="LINE"/><path class="cls-7" d="M64.815 43.606h143.777" id="LINE-126" data-name="LINE"/><path d="M124.1 39.553l-.636-.3a2.52 2.52 0 01-1.022-.882 3.187 3.187 0 01-.488-1.391h1.421a1.5 1.5 0 00.267.7 1.244 1.244 0 00.53.407 2.011 2.011 0 00.762.133 1.483 1.483 0 001.073-.369 1.378 1.378 0 00.383-1.039v-.3a1.677 1.677 0 00-.362-1.152 1.3 1.3 0 00-1.028-.415h-.7v-1.326h.7a1.164 1.164 0 00.9-.349 1.4 1.4 0 00.321-.984v-.308a1.19 1.19 0 00-.339-.909 1.337 1.337 0 00-.96-.321 1.462 1.462 0 00-.636.133 1.219 1.219 0 00-.474.41 1.86 1.86 0 00-.284.694h-1.415a3.611 3.611 0 01.515-1.394 2.541 2.541 0 01.961-.882 2.855 2.855 0 011.333-.3 2.754 2.754 0 011.989.677 2.519 2.519 0 01.7 1.907v.164a2.146 2.146 0 01-.4 1.3 2.277 2.277 0 01-1.141.807 2.014 2.014 0 011.26.8 2.642 2.642 0 01.449 1.585v.165a3.065 3.065 0 01-.335 1.483 2.212 2.212 0 01-.975.936 3.386 3.386 0 01-1.541.322zM131.093 39.211a2.5 2.5 0 01-1.056-.967 2.79 2.79 0 01-.372-1.453v-.164a2.793 2.793 0 01.372-1.4 2.5 2.5 0 011-.992 2.179 2.179 0 01-.845-.83 2.244 2.244 0 01-.317-1.145v-.24a2.651 2.651 0 01.348-1.371 2.364 2.364 0 01.985-.916 3.516 3.516 0 012.953 0 2.356 2.356 0 01.984.916 2.642 2.642 0 01.349 1.371v.239a2.208 2.208 0 01-.325 1.155 2.158 2.158 0 01-.858.82 2.576 2.576 0 011.008.995 2.726 2.726 0 01.38 1.4v.164a2.79 2.79 0 01-.372 1.453 2.5 2.5 0 01-1.057.967 3.848 3.848 0 01-3.172 0zm2.441-1.19a1.382 1.382 0 00.571-.536 1.555 1.555 0 00.2-.8v-.095a1.567 1.567 0 00-.2-.8 1.384 1.384 0 00-.571-.537 2.007 2.007 0 00-1.709 0 1.381 1.381 0 00-.572.54 1.6 1.6 0 00-.2.807v.1a1.545 1.545 0 00.2.793 1.377 1.377 0 00.572.53 1.862 1.862 0 00.854.188 1.829 1.829 0 00.855-.19zm-.117-4.48a1.25 1.25 0 00.5-.517 1.617 1.617 0 00.178-.772v-.1a1.493 1.493 0 00-.178-.738 1.235 1.235 0 00-.5-.5 1.652 1.652 0 00-1.476 0 1.235 1.235 0 00-.5.5 1.517 1.517 0 00-.178.745v.1a1.593 1.593 0 00.178.762 1.258 1.258 0 00.5.513 1.6 1.6 0 001.476 0zM138.363 38.808a2.865 2.865 0 01-.721-2.079v-4.518a2.852 2.852 0 01.725-2.082 3.391 3.391 0 014.228 0 2.858 2.858 0 01.721 2.085v4.518a2.85 2.85 0 01-.725 2.082 3.377 3.377 0 01-4.228 0zm3.207-.968a1.6 1.6 0 00.351-1.111v-4.518a1.6 1.6 0 00-.348-1.111 1.743 1.743 0 00-2.188 0 1.6 1.6 0 00-.348 1.111v4.518a1.6 1.6 0 00.351 1.111 1.731 1.731 0 002.182 0zM146.087 38.808a2.869 2.869 0 01-.72-2.079v-4.518a2.856 2.856 0 01.724-2.082 3.393 3.393 0 014.229 0 2.862 2.862 0 01.721 2.085v4.518a2.854 2.854 0 01-.725 2.082 3.379 3.379 0 01-4.229 0zm3.207-.968a1.591 1.591 0 00.352-1.111v-4.518a1.6 1.6 0 00-.346-1.111 1.742 1.742 0 00-2.187 0 1.6 1.6 0 00-.349 1.111v4.518a1.591 1.591 0 00.352 1.111 1.73 1.73 0 002.181 0z"/><path class="cls-7" d="M208.592 43.606l-1.461 1.461" id="LINE-127" data-name="LINE"/><path class="cls-7" d="M207.131 42.145l1.461 1.461" id="LINE-128" data-name="LINE"/><path class="cls-7" d="M64.815 43.605l1.461-1.461" id="LINE-129" data-name="LINE"/><path class="cls-7" d="M66.276 45.067l-1.461-1.462" id="LINE-130" data-name="LINE"/><path class="cls-7" d="M211.615 43.606h49.902" id="LINE-131" data-name="LINE"/><path d="M226.007 39.45h-1.394v-8.422l-1.413.872v-1.446l1.415-.943h1.394zM228.126 36.716l3.336-7.2h1.438l-3.254 7.116h4.874v1.292h-6.392zm4.287-3.111h1.36v5.852h-1.36zM237.666 39.259a2.413 2.413 0 01-.951-.855 3.4 3.4 0 01-.488-1.346v-.007h1.4v.007a1.292 1.292 0 00.437.851 1.42 1.42 0 00.943.3 1.264 1.264 0 001.036-.448 1.941 1.941 0 00.357-1.261v-.83a1.928 1.928 0 00-.366-1.254 1.261 1.261 0 00-1.034-.448 1.316 1.316 0 00-.7.2 1.964 1.964 0 00-.588.574h-1.271v-5.231h5.065v1.326h-3.666v2.235a2 2 0 01.581-.328 1.9 1.9 0 01.657-.116 2.9 2.9 0 011.473.355 2.289 2.289 0 01.93 1.039 3.9 3.9 0 01.317 1.648v.83a3.773 3.773 0 01-.328 1.647 2.326 2.326 0 01-.957 1.043 3 3 0 01-1.511.359 2.931 2.931 0 01-1.336-.29zM244.57 38.808a2.865 2.865 0 01-.721-2.079v-4.518a2.852 2.852 0 01.725-2.082 3.391 3.391 0 014.228 0 2.858 2.858 0 01.721 2.085v4.518a2.85 2.85 0 01-.725 2.082 3.377 3.377 0 01-4.228 0zm3.207-.968a1.6 1.6 0 00.351-1.111v-4.518a1.6 1.6 0 00-.348-1.111 1.743 1.743 0 00-2.188 0 1.6 1.6 0 00-.348 1.111v4.518a1.6 1.6 0 00.351 1.111 1.731 1.731 0 002.182 0z"/><path class="cls-7" d="M261.517 43.606l-1.462 1.461" id="LINE-132" data-name="LINE"/><path class="cls-7" d="M260.055 42.145l1.462 1.461" id="LINE-133" data-name="LINE"/><path class="cls-7" d="M211.615 43.605l1.461-1.461" id="LINE-134" data-name="LINE"/><path class="cls-7" d="M213.076 45.067l-1.461-1.462" id="LINE-135" data-name="LINE"/><path class="cls-7" d="M211.615 68.606h65.358" id="LINE-136" data-name="LINE"/><path d="M226.339 64.45h-1.394v-8.422l-1.415.868v-1.442l1.415-.943h1.394zM233.729 55.755l-2.57 8.7h-1.484l2.571-8.613h-2.53v1.429h-1.394v-2.76h5.407zM236.969 64.211a2.5 2.5 0 01-1.056-.967 2.79 2.79 0 01-.372-1.453v-.164a2.793 2.793 0 01.372-1.4 2.5 2.5 0 01.995-.992 2.179 2.179 0 01-.845-.83 2.244 2.244 0 01-.317-1.145v-.24a2.651 2.651 0 01.348-1.371 2.364 2.364 0 01.985-.916 3.516 3.516 0 012.953 0 2.356 2.356 0 01.984.916 2.642 2.642 0 01.349 1.371v.239a2.208 2.208 0 01-.325 1.155 2.158 2.158 0 01-.858.82 2.576 2.576 0 011.008.995 2.726 2.726 0 01.38 1.4v.164a2.79 2.79 0 01-.372 1.453 2.5 2.5 0 01-1.057.967 3.848 3.848 0 01-3.172 0zm2.441-1.19a1.382 1.382 0 00.571-.536 1.555 1.555 0 00.2-.8v-.095a1.567 1.567 0 00-.2-.8 1.384 1.384 0 00-.571-.537 2.007 2.007 0 00-1.709 0 1.381 1.381 0 00-.572.54 1.6 1.6 0 00-.2.807v.1a1.545 1.545 0 00.2.793 1.377 1.377 0 00.572.53 1.862 1.862 0 00.854.188 1.829 1.829 0 00.855-.19zm-.117-4.48a1.25 1.25 0 00.5-.517 1.617 1.617 0 00.178-.772v-.1a1.493 1.493 0 00-.178-.738 1.235 1.235 0 00-.5-.5 1.652 1.652 0 00-1.476 0 1.235 1.235 0 00-.5.5 1.517 1.517 0 00-.178.745v.1a1.593 1.593 0 00.178.762 1.258 1.258 0 00.5.513 1.6 1.6 0 001.476 0zM244.239 63.808a2.865 2.865 0 01-.721-2.079v-4.518a2.852 2.852 0 01.725-2.082 3.391 3.391 0 014.228 0 2.858 2.858 0 01.721 2.085v4.518a2.85 2.85 0 01-.725 2.082 3.377 3.377 0 01-4.228 0zm3.207-.968a1.6 1.6 0 00.351-1.111v-4.518a1.6 1.6 0 00-.348-1.111 1.743 1.743 0 00-2.188 0 1.6 1.6 0 00-.348 1.111v4.518a1.6 1.6 0 00.351 1.111 1.731 1.731 0 002.182 0z"/><path class="cls-7" d="M276.973 68.606l-1.461 1.461" id="LINE-137" data-name="LINE"/><path class="cls-7" d="M275.512 67.145l1.461 1.461" id="LINE-138" data-name="LINE"/><path class="cls-7" d="M211.615 68.605l1.461-1.461" id="LINE-139" data-name="LINE"/><path class="cls-7" d="M213.076 70.067l-1.461-1.462" id="LINE-140" data-name="LINE"/><path class="cls-7" d="M64.815 380.34h141.132" id="LINE-141" data-name="LINE"/><path d="M123.531 376.287l-.636-.3a2.5 2.5 0 01-1.022-.881 3.2 3.2 0 01-.489-1.391h1.422a1.5 1.5 0 00.267.7 1.223 1.223 0 00.53.406 1.992 1.992 0 00.762.134 1.483 1.483 0 001.073-.369 1.378 1.378 0 00.383-1.039v-.3a1.672 1.672 0 00-.363-1.152 1.3 1.3 0 00-1.025-.406h-.7v-1.327h.7a1.163 1.163 0 00.9-.348 1.4 1.4 0 00.322-.985v-.307a1.19 1.19 0 00-.339-.909 1.335 1.335 0 00-.96-.322 1.462 1.462 0 00-.636.133 1.212 1.212 0 00-.474.41 1.868 1.868 0 00-.285.7h-1.415a3.626 3.626 0 01.516-1.4 2.526 2.526 0 01.961-.882 2.855 2.855 0 011.333-.3 2.757 2.757 0 011.989.676 2.519 2.519 0 01.7 1.908v.164a2.151 2.151 0 01-.4 1.3 2.274 2.274 0 01-1.142.807 2.019 2.019 0 011.261.8 2.643 2.643 0 01.448 1.586v.164a3.054 3.054 0 01-.335 1.483 2.212 2.212 0 01-.974.937 3.4 3.4 0 01-1.541.321zM134.332 367.489l-2.571 8.7h-1.483l2.57-8.614h-2.529V369h-1.395v-2.755h5.408zM141.379 367.489l-2.57 8.7h-1.483l2.57-8.614h-2.529V369h-1.395v-2.755h5.407zM144.014 375.542a2.867 2.867 0 01-.721-2.078v-4.519a2.856 2.856 0 01.725-2.082 3.393 3.393 0 014.229 0 2.863 2.863 0 01.72 2.085v4.519a2.853 2.853 0 01-.724 2.081 3.379 3.379 0 01-4.229 0zm3.207-.968a1.59 1.59 0 00.352-1.11v-4.519a1.6 1.6 0 00-.349-1.111 1.742 1.742 0 00-2.187 0 1.6 1.6 0 00-.349 1.111v4.519a1.59 1.59 0 00.352 1.11 1.73 1.73 0 002.181 0z"/><path class="cls-7" d="M205.947 380.34l-1.462 1.461" id="LINE-142" data-name="LINE"/><path class="cls-7" d="M204.485 378.879l1.462 1.461" id="LINE-143" data-name="LINE"/><path class="cls-7" d="M64.815 380.339l1.461-1.461" id="LINE-144" data-name="LINE"/><path class="cls-7" d="M66.276 381.801l-1.461-1.462" id="LINE-145" data-name="LINE"/><path class="cls-7" d="M170.352 114.831v23.27" id="LINE-146" data-name="LINE"/><path class="cls-7" d="M201.677 114.831v23.27" id="LINE-147" data-name="LINE"/><path class="cls-7" d="M201.677 114.83h-31.325" id="LINE-148" data-name="LINE"/><path d="M179.243 106.908l-.007.246a1.024 1.024 0 01-.516.462 2.077 2.077 0 01-.817.147 2.182 2.182 0 01-1.251-.363 2.364 2.364 0 01-.838-1.021 3.709 3.709 0 01-.3-1.528v-.007a3.823 3.823 0 01.324-1.648 2.3 2.3 0 01.951-1.039 3 3 0 011.5-.355 2.936 2.936 0 011.5.362 2.328 2.328 0 01.946 1.053 3.872 3.872 0 01.325 1.661v.007a5.184 5.184 0 01-.137 1.138 6.96 6.96 0 01-.389 1.2c-.028.059-.055.12-.082.181s-.057.122-.089.181l-2.119 4.259h-1.5zm.065-.861a1.949 1.949 0 00.358-1.251v-.007a1.859 1.859 0 00-.358-1.217 1.421 1.421 0 00-2.037 0 1.859 1.859 0 00-.359 1.224v.007a1.925 1.925 0 00.359 1.248 1.394 1.394 0 002.037 0zM183.627 111.2a2.865 2.865 0 01-.72-2.078V104.6a2.855 2.855 0 01.724-2.081 3.389 3.389 0 014.229 0 2.861 2.861 0 01.721 2.084v4.519a2.854 2.854 0 01-.725 2.082 3.38 3.38 0 01-4.229 0zm3.207-.967a1.591 1.591 0 00.352-1.111V104.6a1.6 1.6 0 00-.349-1.11 1.738 1.738 0 00-2.187 0 1.6 1.6 0 00-.349 1.11v4.519a1.591 1.591 0 00.352 1.111 1.733 1.733 0 002.181 0zM191.352 111.2a2.865 2.865 0 01-.721-2.078V104.6a2.855 2.855 0 01.725-2.081 3.388 3.388 0 014.228 0 2.857 2.857 0 01.721 2.084v4.519a2.557 2.557 0 01-2.837 2.823 2.814 2.814 0 01-2.116-.745zm3.207-.967a1.6 1.6 0 00.352-1.111V104.6a1.6 1.6 0 00-.349-1.11 1.738 1.738 0 00-2.187 0 1.6 1.6 0 00-.349 1.11v4.519a1.6 1.6 0 00.351 1.111 1.735 1.735 0 002.182 0z"/><path class="cls-7" d="M170.352 114.831l1.461-1.461" id="LINE-149" data-name="LINE"/><path class="cls-7" d="M171.813 116.292l-1.461-1.461" id="LINE-150" data-name="LINE"/><path class="cls-7" d="M201.677 114.831l-1.461 1.461" id="LINE-151" data-name="LINE"/><path class="cls-7" d="M200.216 113.37l1.461 1.461" id="LINE-152" data-name="LINE"/><path class="cls-7" d="M217.189 123.474v23.269" id="LINE-153" data-name="LINE"/><path class="cls-7" d="M245.32 123.474v23.269" id="LINE-154" data-name="LINE"/><path class="cls-7" d="M245.32 123.473h-28.131" id="LINE-155" data-name="LINE"/><path d="M221.945 120.248a2.5 2.5 0 01-1.057-.968 2.786 2.786 0 01-.372-1.452v-.164a2.8 2.8 0 01.372-1.4 2.5 2.5 0 011-.991 2.172 2.172 0 01-.844-.831 2.242 2.242 0 01-.318-1.145v-.239a2.641 2.641 0 01.349-1.37 2.35 2.35 0 01.984-.916 3.516 3.516 0 012.953 0 2.358 2.358 0 01.985.916 2.65 2.65 0 01.348 1.37v.239a2.2 2.2 0 01-.325 1.156 2.162 2.162 0 01-.857.82 2.576 2.576 0 011.008 1 2.734 2.734 0 01.379 1.4v.164a2.786 2.786 0 01-.372 1.452 2.5 2.5 0 01-1.056.968 3.859 3.859 0 01-3.172 0zm2.44-1.19a1.386 1.386 0 00.572-.537 1.561 1.561 0 00.2-.8v-.1a1.577 1.577 0 00-.2-.8 1.384 1.384 0 00-.572-.536 2 2 0 00-1.709 0 1.372 1.372 0 00-.571.54 1.583 1.583 0 00-.2.806v.1a1.535 1.535 0 00.2.793 1.374 1.374 0 00.571.53 1.866 1.866 0 00.855.187 1.825 1.825 0 00.854-.183zm-.116-4.481a1.248 1.248 0 00.5-.516 1.628 1.628 0 00.178-.772v-.1a1.5 1.5 0 00-.178-.738 1.222 1.222 0 00-.5-.5 1.654 1.654 0 00-1.477 0 1.235 1.235 0 00-.5.5 1.517 1.517 0 00-.177.745v.1a1.593 1.593 0 00.177.762 1.259 1.259 0 00.5.513 1.6 1.6 0 001.477 0zM229.214 119.844a2.865 2.865 0 01-.72-2.078v-4.518a2.854 2.854 0 01.724-2.082 3.389 3.389 0 014.229 0 2.861 2.861 0 01.72 2.085v4.518a2.856 2.856 0 01-.724 2.082 3.38 3.38 0 01-4.229 0zm3.207-.967a1.591 1.591 0 00.352-1.111v-4.518a1.6 1.6 0 00-.349-1.111 1.738 1.738 0 00-2.187 0 1.6 1.6 0 00-.349 1.111v4.518a1.591 1.591 0 00.352 1.111 1.733 1.733 0 002.181 0zM236.939 119.844a2.861 2.861 0 01-.721-2.078v-4.518a2.85 2.85 0 01.725-2.082 3.388 3.388 0 014.228 0 2.858 2.858 0 01.721 2.085v4.518a2.852 2.852 0 01-.725 2.082 3.379 3.379 0 01-4.228 0zm3.207-.967a1.6 1.6 0 00.352-1.111v-4.518a1.605 1.605 0 00-.349-1.111 1.74 1.74 0 00-2.188 0 1.6 1.6 0 00-.348 1.111v4.518a1.6 1.6 0 00.351 1.111 1.735 1.735 0 002.182 0z"/><path class="cls-7" d="M217.189 123.474l1.461-1.461" id="LINE-156" data-name="LINE"/><path class="cls-7" d="M218.65 124.935l-1.461-1.461" id="LINE-157" data-name="LINE"/><path class="cls-7" d="M245.597 123.474l-1.461 1.461" id="LINE-158" data-name="LINE"/><path class="cls-7" d="M244.136 122.013l1.461 1.461" id="LINE-159" data-name="LINE"/><path class="cls-7" d="M195.192 249.117h11.125M195.192 374.175h11.125"/><path class="cls-7" d="M254.313 366.962h-48.366" id="LINE-160" data-name="LINE"/><path d="M220.157 364.767h-1.4v-8.422l-1.415.868v-1.443l1.415-.943h1.4zM222.262 363.557l3.466-4.621a3.479 3.479 0 00.468-.824 2.186 2.186 0 00.168-.8v-.012a1.2 1.2 0 00-.349-.923 1.388 1.388 0 00-.991-.328 1.368 1.368 0 00-.984.359 1.623 1.623 0 00-.458 1.015v.007h-1.443v-.007a3.721 3.721 0 01.5-1.459 2.554 2.554 0 01.982-.923 2.923 2.923 0 011.387-.318 3.456 3.456 0 011.518.3 2.136 2.136 0 01.957.885 2.808 2.808 0 01.328 1.4v.007a3.084 3.084 0 01-.219 1.1 4.673 4.673 0 01-.608 1.107l-2.878 3.91h3.76v1.327h-5.606zM233.166 359.831l-.007.246a1.033 1.033 0 01-.516.462 2.077 2.077 0 01-.817.147 2.189 2.189 0 01-1.251-.363 2.364 2.364 0 01-.838-1.021 3.711 3.711 0 01-.3-1.529v-.006a3.823 3.823 0 01.324-1.648 2.293 2.293 0 01.951-1.039 3 3 0 011.5-.355 2.932 2.932 0 011.5.362 2.331 2.331 0 01.947 1.053 3.887 3.887 0 01.325 1.661v.007a5.184 5.184 0 01-.137 1.138 7.009 7.009 0 01-.389 1.2l-.083.182c-.028.061-.056.122-.088.181l-2.12 4.259h-1.5zm.065-.861a1.949 1.949 0 00.358-1.251v-.007a1.857 1.857 0 00-.358-1.217 1.419 1.419 0 00-2.037 0 1.858 1.858 0 00-.36 1.224v.007a1.925 1.925 0 00.36 1.248 1.394 1.394 0 002.037 0zM237.55 364.124a2.865 2.865 0 01-.72-2.078v-4.519a2.853 2.853 0 01.724-2.081 3.391 3.391 0 014.229 0 2.864 2.864 0 01.72 2.085v4.519a2.856 2.856 0 01-.724 2.082 3.38 3.38 0 01-4.229 0zm3.207-.967a1.593 1.593 0 00.352-1.111v-4.519a1.6 1.6 0 00-.349-1.11 1.738 1.738 0 00-2.187 0 1.6 1.6 0 00-.349 1.11v4.519a1.593 1.593 0 00.352 1.111 1.733 1.733 0 002.181 0z"/><path class="cls-7" d="M205.947 366.962l1.461-1.462" id="LINE-161" data-name="LINE"/><path class="cls-7" d="M207.408 368.423l-1.461-1.461" id="LINE-162" data-name="LINE"/><path class="cls-7" d="M254.313 366.962l-1.461 1.462" id="LINE-163" data-name="LINE"/><path class="cls-7" d="M252.852 365.501l1.461 1.461" id="LINE-164" data-name="LINE"/><path class="cls-7" d="M205.947 363.549v11.125"/></g></svg>