<svg xmlns="http://www.w3.org/2000/svg" width="534.973" height="357.71" viewBox="0 0 401.229 268.282"><defs><pattern id="Новый_узор_3" data-name="Новый узор 3" width="35.15" height="35.15" patternTransform="translate(-42.406 -21.209)" patternUnits="userSpaceOnUse"><path class="cls-1" d="M0 0h35.15v35.15H0z"/><path class="cls-2" d="M35.149 35.15h35.15V70.3h-35.15z"/><path class="cls-2" d="M0 35.15h35.15V70.3H0zM-35.15 35.15H0V70.3h-35.15z"/><path class="cls-2" d="M35.149.001h35.15v35.15h-35.15z"/><path class="cls-2" d="M0 .001h35.15v35.15H0zM-35.15.001H0v35.15h-35.15zM35.149-35.149h35.15V.001h-35.15z"/><path class="cls-2" d="M0-35.149h35.15V.001H0zM-35.15-35.149H0V.001h-35.15z"/></pattern><pattern id="Новый_узор_4" data-name="Новый узор 4" width="9.822" height="9.822" patternTransform="translate(-4.109 -8.736)" patternUnits="userSpaceOnUse"><path class="cls-1" d="M0 0h9.822v9.822H0z"/><path class="cls-3" d="M14.733 19.647L9.82 14.735l4.913-4.913 4.912 4.913-4.912 4.912z"/><path class="cls-3" d="M4.911 19.647l-4.913-4.912 4.913-4.913 4.912 4.913-4.912 4.912z"/><path class="cls-3" d="M-4.912 19.647l-4.912-4.912 4.912-4.913 4.913 4.913-4.913 4.912zM14.733 9.825L9.82 4.912 14.733 0l4.912 4.912-4.912 4.913z"/><path class="cls-3" d="M4.911 9.825L-.002 4.912 4.911 0l4.912 4.912-4.912 4.913z"/><path class="cls-3" d="M-4.912 9.825l-4.912-4.913L-4.912 0 .001 4.912l-4.913 4.913zM14.733.003L9.82-4.91l4.913-4.912 4.912 4.912L14.733.003z"/><path class="cls-3" d="M4.911.003L-.002-4.91l4.913-4.912L9.823-4.91 4.911.003z"/><path class="cls-3" d="M-4.912.003L-9.824-4.91l4.912-4.912L.001-4.91-4.912.003z"/></pattern><pattern id="Новый_узор_5" data-name="Новый узор 5" width="22.872" height="23.072" patternTransform="translate(-8.441 -10.048)" patternUnits="userSpaceOnUse"><path class="cls-1" d="M0 0h22.872v23.072H0z"/><path class="cls-4" d="M22.664 17.512v11.12H.208v-11.12h22.456m.108-.108H.1V28.74h22.672V17.4zM22.664 5.976V17.1H.208V5.976h22.456m.108-.108H.1V17.2h22.672V5.868zM22.664-5.56V5.56H.208V-5.56h22.456m.108-.108H.1V5.668h22.672V-5.668z"/></pattern><style>.cls-1,.cls-11,.cls-13,.cls-2,.cls-3,.cls-4,.cls-9{fill:none}.cls-2{stroke:#ededed}.cls-11,.cls-2,.cls-3,.cls-9{stroke-linecap:round;stroke-linejoin:round;stroke-width:.4px}.cls-3,.cls-4{stroke:#e6e6e6}.cls-10,.cls-11,.cls-3,.cls-5{fill-rule:evenodd}.cls-4{stroke-miterlimit:10;stroke-width:.2px}.cls-5{fill:#fff}.cls-11,.cls-9{stroke:#000}.cls-13{stroke:gray;stroke-width:.6px;stroke-miterlimit:22.926}</style></defs><g id="_10" data-name="10"><path id="fon" class="cls-5" d="M381.168 163.231a41.379 41.379 0 00-15.658-3.24v-38.906a24.318 24.318 0 007.168-1.47L365.51 105.1V.283H34.312V268h331.2v-70.793z"/><path stroke="#dcdcdc" fill="url(#Новый_узор_3)" stroke-linecap="round" stroke-linejoin="round" stroke-width=".4" d="M34.312.283H365.51v267.715H34.312z" id="grid"/><g id="wet_zones" data-name="wet zones" fill-rule="evenodd"><path fill="url(#Новый_узор_4)" d="M342.082 213.208h-70.64V258.553h32.287v-9.826h38.353v-35.519z"/><path fill="url(#Новый_узор_5)" d="M342.043 36.557V9.641h-70.621V83.31h74.812V36.557h-4.191z"/></g><g id="walls"><path class="cls-9" d="M41.87 227.568h15.492M34.313 227.568h5.668M39.981 227.568h1.889M41.87 161.442h15.492M34.313 161.442h5.668M39.981 161.442h1.889M34.313 161.442v66.126M57.362 161.442v66.126M41.87 161.442v3.778M41.87 165.22h-1.889M39.981 165.22v-3.778M39.981 199.228v-1.889M39.981 197.339h1.889M41.87 197.339v1.89M40.925 165.22v32.119M41.87 165.22v32.119M39.981 197.339V165.22M41.87 199.228v.944M41.87 200.173h-.945M40.925 200.173v.944M40.925 201.117h-.943M39.981 201.117v-1.889M39.981 227.568v-3.779M39.981 223.789h.944M40.925 223.789v.944M40.925 224.733h.946M41.87 224.733v2.835M39.981 223.789v-22.672M42.815 203.007V221.9M42.815 200.173v2.834M42.815 203.007h-1.889M40.925 203.007v-2.834M40.925 200.173h1.89M40.925 224.733v-2.834M40.925 221.899h1.89M42.815 221.899v2.834M42.815 224.733h-1.889M40.925 221.899v-18.893M42.815 203.007V221.9M41.87 203.007V221.9M39.981 161.442h1.889M39.981 161.442h1.889M34.313 161.442h5.668M41.87 161.442h15.492M39.981 227.568h1.889M39.981 227.568h1.889M34.313 227.568h5.668M41.87 227.568h15.492M34.313 161.442h23.05M41.87 116.098h15.492M34.313 116.098h5.668M39.981 116.098h1.889M41.87 32.968h15.492M34.313 32.968h5.668M39.981 32.968h1.889M34.313 32.968v83.13M57.362 32.968v83.13M41.87 32.968v3.779M41.87 36.747h-1.889M39.981 36.747v-3.779M39.981 87.759v-1.89M39.981 85.869h1.889M41.87 85.869v1.89M40.925 36.747v49.122M41.87 36.747v49.122M39.981 85.869V36.747M41.87 87.759v.944M41.87 88.703h-.945M40.925 88.703v.945M40.925 89.648h-.943M39.981 89.648v-1.889M39.981 116.098v-3.779M39.981 112.319h.944M40.925 112.319v.945M40.925 113.264h.946M41.87 113.264v2.834M39.981 112.319V89.648M42.815 91.537v18.893M42.815 88.703v2.834M42.815 91.537h-1.889M40.925 91.537v-2.834M40.925 88.703h1.89M40.925 113.264v-2.834M40.925 110.43h1.89M42.815 110.43v2.834M42.815 113.264h-1.889M40.925 110.43V91.537M42.815 91.537v18.893M41.87 91.537v18.893M39.981 32.968h1.889M39.981 32.968h1.889M34.313 32.968h5.668M41.87 32.968h15.492M39.981 116.098h1.889M39.981 116.098h1.889M34.313 116.098h5.668M41.87 116.098h15.492M34.313 32.968h23.05M381.087 163.2a46.964 46.964 0 00-15.577-3.206"/><path class="cls-10" d="M381.168 163.231l-1.387-.6-15.783 36.355v.454l1.512.001 15.658-36.21z"/><path class="cls-11" d="M372.678 119.615a23.055 23.055 0 01-7.168 1.471"/><path class="cls-10" d="M372.769 119.583l-7.259-16.785-1.512-.001v.453l7.357 16.871 1.414-.538z"/><path class="cls-11" d="M304.365 199.123a33.213 33.213 0 012.273 11.062"/><path class="cls-10" d="M304.329 199.027l-25.804 11.158v1.512h.455l25.949-11.283-.6-1.387z"/><path class="cls-11" d="M232.731 124.124a35.3 35.3 0 00-2.586 12.567"/><path class="cls-10" d="M232.765 124.033l-.535 1.435 29.353 12.735h.453l.001-1.512-29.272-12.658z"/><path class="cls-11" d="M301.943 150.784a31.4 31.4 0 01-2.272-11.07"/><path class="cls-10" d="M301.981 150.873l25.804-11.158v-1.512h-.453l-25.951 11.283.6 1.387z"/><path class="cls-11" d="M257.34 64.218a31.333 31.333 0 0011.06 2.267"/><path class="cls-10" d="M257.24 64.175l1.387.6 11.283-25.949v-.455h-1.511L257.24 64.175z"/><path d="M365.509 102.8H364v.453h-7.557V.283h9.068V102.8zm0 165.2h-9.068v-69.014H364v.454h1.511V268zm-9.068-147.366H364v.453h1.511v38.906H364v.453h-7.557v-39.814zM57.362 32.968h-23.05V.283h23.05v32.685zm0 96.544h149.053v10.2H57.362v21.727h-23.05V116.1h23.05v13.414zm-23.05 129.041v-30.986h23.05V268h-23.05z" stroke-miterlimit="3" stroke-width=".5" stroke="#000" fill-rule="evenodd"/></g><g id="wall_2" data-name="wall 2"><path class="cls-5" d="M57.362 268v-9.445H268.4v-48.369h10.126v1.514h.455v1.511h-7.558v45.346h32.307v-9.826h38.353v-35.523h-35.9V211.7h.454v-1.511h49.8v3.022h-11.332v19.271h11.336v3.018h-11.336v23.052h11.336V268zM356.441 94.182h-12.47V129.7h12.47v10.013h-28.656V138.2h-.453v-1.512h6.437V86.624h-62.347v50.067h28.7v1.509h-.454v1.511h-38.085V138.2h.453v-1.512h6.364V66.484h1.511v-.453h1.512V83.6h74.911V36.557h-4.251V9.729h-70.66v29.1h-1.513v-.455h-1.51V9.729h-63.482v81.619H201.9V9.729H57.362V.283h299.079v9.446h-11.336v23.806h11.336v3.022h-7.085V83.6h7.085v10.582zm-49.689 164.371h35.33v-6.8h-35.33v6.8zM206.415 136.691v3.023H230.6V138.2h-.454v-1.512z"/><path class="cls-13" d="M62.72.28L57.36 5M70.15.28L59.42 9.73M77.57.28L66.84 9.73M84.99.28L74.27 9.73M92.42.28L81.69 9.73M99.83.28L89.1 9.73M107.26.28L96.53 9.73M114.68.28l-10.73 9.45M122.1.28l-10.72 9.45M129.53.28L118.8 9.73M136.95.28l-10.73 9.45M144.37.28l-10.72 9.45M151.79.28l-10.73 9.45M159.21.28l-10.72 9.45M166.64.28l-10.73 9.45M174.06.28l-10.73 9.45M181.48.28l-10.72 9.45M188.91.28l-10.73 9.45M196.32.28l-10.73 9.45M203.75.28l-10.73 9.45M211.17.28l-10.73 9.45M218.59.28l-10.72 9.45M204.92 12.33l-3.02 2.66M204.92 18.86l-3.02 2.67M226.02.28l-10.73 9.45M204.92 25.4l-3.02 2.66M233.44.28l-10.73 9.45M204.92 31.94l-3.02 2.66M240.86.28l-10.72 9.45M204.92 38.47l-3.02 2.67M248.28.28l-10.73 9.45M204.92 45.02l-3.02 2.66M255.7.28l-10.72 9.45M204.92 51.56l-3.02 2.66M263.13.28L252.4 9.73M204.92 58.09l-3.02 2.66M270.55.28l-10.73 9.45M204.92 64.63l-3.02 2.66M277.97.28l-10.73 9.45M204.92 71.17l-3.02 2.67M271.42 12.59l-3.02 2.66M285.4.28l-10.73 9.45M204.92 77.71l-3.02 2.66M271.42 19.12l-3.02 2.67M292.81.28l-10.73 9.45M204.92 84.25l-3.02 2.66M271.42 25.66l-3.02 2.67M300.24.28l-10.73 9.45M307.66.28l-10.73 9.45M271.42 32.2l-3.02 2.66M204.92 90.78l-.64.57M315.08.28l-10.73 9.45M271.42 38.74l-.1.09M322.51.28l-10.73 9.45M329.93.28L319.2 9.73M337.35.28l-10.73 9.45M269.62 66.48l-1.22 1.08M270.13 66.03l-.22.2M344.77.28l-10.73 9.45M271.42 71.43l-3.02 2.66M59.01 258.55L57.36 260M352.19.28l-10.73 9.45M345.11 13.06l-3.03 2.67M271.42 77.97l-3.02 2.66M66.43 258.55l-9.07 7.99M356.44 3.08l-7.55 6.65M356.44 9.62l-.13.11M73.86 258.55L63.13 268M212.19 136.69l-3.43 3.02M272.46 83.6l-4.06 3.57M345.11 19.6l-3.03 2.67M279.88 83.6l-3.43 3.02M219.61 136.69l-3.42 3.02M271.42 91.05l-3.02 2.66M81.28 258.55L70.56 268M345.11 26.14l-3.03 2.67M287.3 83.6l-3.42 3.02M271.42 97.59l-3.02 2.66M227.04 136.69l-3.43 3.02M88.71 258.55L77.98 268M345.11 32.68l-3.03 2.67M294.72 83.6l-3.43 3.02M271.42 104.12l-3.02 2.67M96.12 258.55L85.39 268M351.55 33.54l-5.22 4.6M356.44 35.77l-.9.79M302.14 83.6l-3.42 3.02M271.42 110.66l-3.02 2.67M103.54 258.55L92.82 268M349.36 42.01l-3.03 2.67M309.56 83.6l-3.42 3.02M271.42 117.2l-3.02 2.66M110.97 258.55L100.24 268M349.36 48.54l-3.03 2.67M316.99 83.6l-3.43 3.02M271.42 123.74l-3.02 2.66M118.39 258.55L107.66 268M349.36 55.08l-3.03 2.67M324.41 83.6l-3.43 3.02M271.42 130.28l-3.02 2.66M264.15 136.69l-2.57 2.26M125.82 258.55L115.09 268M349.36 61.62l-3.03 2.67M349.36 68.16l-3.03 2.67M133.24 258.55L122.51 268M271.57 136.69l-3.43 3.02M331.84 83.6l-3.43 3.02M349.36 74.7l-3.03 2.67M140.65 258.55L129.93 268M278.99 136.69l-3.43 3.02M339.25 83.6l-5.48 4.83M148.08 258.55L137.35 268M286.41 136.69l-3.43 3.02M349.36 81.24l-15.59 13.73M155.5 258.55L144.77 268M293.83 136.69l-3.43 3.02M354.1 83.6l-20.33 17.91M356.44 88.08l-6.93 6.1M162.92 258.55L152.2 268M300.13 137.68l-2.3 2.03M343.97 99.06l-10.2 8.99M170.35 258.55L159.62 268M343.97 105.6l-10.2 8.99M177.77 258.55L167.04 268M343.97 112.14l-10.2 8.99M185.2 258.55L174.47 268M343.97 118.68l-10.2 8.99M192.61 258.55L181.88 268M330.94 136.69l-3.16 2.79M343.97 125.21l-10.2 8.99M200.03 258.55L189.31 268M346.3 129.7l-11.36 10.01M207.46 258.55L196.73 268M353.72 129.7l-11.36 10.01M356.44 133.85l-6.66 5.86M214.88 258.55L204.15 268M269.78 210.19l-1.38 1.21M277.2 210.19l-3.43 3.02M271.42 215.28l-3.02 2.66M222.3 258.55L211.58 268M271.42 221.82l-3.02 2.66M229.73 258.55L219 268M271.42 228.35l-3.02 2.67M237.14 258.55L226.42 268M271.42 234.89l-3.02 2.67M244.57 258.55L233.84 268M306.89 210.19l-.25.22M271.42 241.43l-3.02 2.66M251.99 258.55L241.26 268M259.41 258.55L248.69 268M271.42 247.97l-3.02 2.66M314.31 210.19l-3.43 3.02M266.84 258.55L256.11 268M271.42 254.51l-3.02 2.66M321.73 210.19l-3.42 3.02M274.26 258.55L263.53 268M329.16 210.19l-3.43 3.02M281.68 258.55L270.95 268M336.57 210.19l-3.42 3.02M344 210.19l-3.43 3.02M289.1 258.55L278.37 268M296.52 258.55L285.79 268M307.67 248.73l-3.94 3.47M345.11 215.75l-3.03 2.67M351.42 210.19l-3.43 3.02M356.44 212.31l-1.03.9M315.09 248.73l-3.43 3.02M345.11 222.29l-3.03 2.67M306.75 256.08L293.22 268M322.52 248.73l-3.43 3.02M345.11 228.83l-3.03 2.67M311.37 258.55L300.64 268M329.94 248.73l-3.43 3.02M348.39 232.48l-6.31 5.56M318.79 258.55L308.07 268M355.81 232.48l-3.43 3.02M337.36 248.73l-3.42 3.02M345.11 241.91l-3.03 2.67M326.22 258.55L315.49 268M345.11 248.44l-3.76 3.31M333.63 258.55L322.91 268M345.11 254.98l-3.03 2.67M341.06 258.55L330.33 268M348.48 258.55L337.75 268M355.9 258.55L345.17 268M356.44 264.62L352.6 268"/><path d="M342.08 257.65l-1.02.9h1.02v-.9z"/><path d="M57.362 268v-9.445H268.4v-48.369h10.126v1.514h.455v1.511h-7.558v45.346h32.307v-9.826h38.353v-35.523h-35.9V211.7h.454v-1.511h49.8v3.022h-11.332v19.271h11.336v3.018h-11.336v23.052h11.336V268zM356.441 94.182h-12.47V129.7h12.47v10.013h-28.656V138.2h-.453v-1.512h6.437V86.624h-62.347v50.067h28.7v1.509h-.454v1.511h-38.085V138.2h.453v-1.512h6.364V66.484h1.511v-.453h1.512V83.6h74.911V36.557h-4.251V9.729h-70.66v29.1h-1.513v-.455h-1.51V9.729h-63.482v81.619H201.9V9.729H57.362V.283h299.079v9.446h-11.336v23.806h11.336v3.022h-7.085V83.6h7.085v10.582zm-49.689 164.371h35.33v-6.8h-35.33v6.8zM206.415 136.691h23.729v1.509h.454v1.511h-24.183z" stroke-width=".567" stroke-miterlimit="22.926" stroke="#000" fill-rule="evenodd" fill="none"/></g></g><g id="sizes"><path class="cls-9" d="M14.225 115.948H39.93" id="LINE"/><path class="cls-9" d="M14.163 33.08h25.704" id="LINE-2" data-name="LINE"/><path class="cls-9" d="M14.162 33.08l.062 82.868" id="LINE-3" data-name="LINE"/><path d="M10.76 86.945l-4.621-3.466a3.432 3.432 0 00-.825-.468 2.176 2.176 0 00-.795-.168h-.014a1.2 1.2 0 00-.923.349 1.388 1.388 0 00-.328.991 1.368 1.368 0 00.358.984 1.629 1.629 0 001.016.458h.007v1.443h-.007a3.726 3.726 0 01-1.46-.5 2.562 2.562 0 01-.923-.982 2.922 2.922 0 01-.317-1.386 3.47 3.47 0 01.3-1.518 2.143 2.143 0 01.886-.957 2.806 2.806 0 011.4-.328h.006a3.088 3.088 0 011.1.219 4.673 4.673 0 011.107.608l3.917 2.876v-3.76h1.326v5.606zM11.97 77.162v1.395H3.548l.868 1.415H2.974l-.944-1.415v-1.395zM11.72 73.84a2.279 2.279 0 01-1.026.947 3.713 3.713 0 01-1.623.325h-.007a5.545 5.545 0 01-1.162-.13 6.761 6.761 0 01-1.2-.376 3.026 3.026 0 01-.2-.089l-.194-.1-4.28-2.16v-1.5l4.956 2.536-.246-.007a1.189 1.189 0 01-.5-.5 1.572 1.572 0 01-.178-.765 2.441 2.441 0 01.352-1.321 2.176 2.176 0 011.015-.841 4.026 4.026 0 011.6-.287h.007a3.791 3.791 0 011.641.325 2.3 2.3 0 011.039.949 3.355 3.355 0 010 3zm-1.4-2.519a1.721 1.721 0 00-1.169-.359h-.005a1.971 1.971 0 00-1.289.376 1.318 1.318 0 00-.457 1.073 1.131 1.131 0 00.458.964 2.124 2.124 0 001.292.342h.01a1.7 1.7 0 001.165-.359 1.474 1.474 0 000-2.037zM11.327 67a2.862 2.862 0 01-2.078.721H4.73A2.853 2.853 0 012.648 67a3.39 3.39 0 010-4.228 2.855 2.855 0 012.084-.721h4.517a2.848 2.848 0 012.081.725 3.377 3.377 0 010 4.228zm-.968-3.207a1.593 1.593 0 00-1.11-.351H4.73a1.607 1.607 0 00-1.111.348 1.743 1.743 0 000 2.188 1.607 1.607 0 001.111.349h4.519a1.593 1.593 0 001.11-.352 1.731 1.731 0 000-2.182z"/><path class="cls-9" d="M14.224 115.948l-1.461-1.461" id="LINE-4" data-name="LINE"/><path class="cls-9" d="M15.686 114.487l-1.462 1.461" id="LINE-5" data-name="LINE"/><path class="cls-9" d="M14.163 33.08l1.461 1.462" id="LINE-6" data-name="LINE"/><path class="cls-9" d="M12.701 34.542l1.462-1.462" id="LINE-7" data-name="LINE"/><path class="cls-9" d="M14.225 33.031H39.93" id="LINE-8" data-name="LINE"/><path class="cls-9" d="M14.245 8.981h25.704" id="LINE-9" data-name="LINE"/><path class="cls-9" d="M14.244 8.981l-.02 24.05" id="LINE-10" data-name="LINE"/><path d="M11.72 30.082a2.287 2.287 0 01-1.026.948 3.728 3.728 0 01-1.623.324h-.007a5.545 5.545 0 01-1.162-.13 6.761 6.761 0 01-1.2-.376c-.068-.027-.136-.057-.2-.089s-.131-.063-.194-.1L2.03 28.5V27l4.956 2.537-.246-.007a1.2 1.2 0 01-.5-.5 1.579 1.579 0 01-.178-.766 2.441 2.441 0 01.349-1.326 2.176 2.176 0 011.016-.838 4.044 4.044 0 011.6-.287h.007a3.791 3.791 0 011.641.325 2.3 2.3 0 011.039.949 3.355 3.355 0 010 3zm-1.4-2.519a1.726 1.726 0 00-1.167-.363h-.007a1.971 1.971 0 00-1.289.376 1.319 1.319 0 00-.457 1.078 1.133 1.133 0 00.458.964 2.131 2.131 0 001.292.341h.01a1.7 1.7 0 001.165-.359 1.474 1.474 0 000-2.037zM12.072 22.228l-.3.636a2.52 2.52 0 01-.882 1.022 3.182 3.182 0 01-1.391.488v-1.421a1.51 1.51 0 00.7-.267 1.244 1.244 0 00.407-.53 1.992 1.992 0 00.133-.762 1.483 1.483 0 00-.369-1.073 1.376 1.376 0 00-1.039-.383h-.3a1.678 1.678 0 00-1.152.362 1.3 1.3 0 00-.406 1.026v.7H6.139v-.7a1.168 1.168 0 00-.349-.9 1.4 1.4 0 00-.984-.321H4.5a1.187 1.187 0 00-.909.339 1.333 1.333 0 00-.321.96 1.469 1.469 0 00.132.635 1.21 1.21 0 00.411.475 1.846 1.846 0 00.694.284v1.412a3.609 3.609 0 01-1.397-.51 2.53 2.53 0 01-.881-.961 2.843 2.843 0 01-.3-1.333 2.758 2.758 0 01.676-1.99 2.525 2.525 0 011.908-.7h.164a2.15 2.15 0 011.3.4 2.275 2.275 0 01.806 1.141 2.014 2.014 0 01.8-1.26 2.643 2.643 0 011.586-.449h.164a3.065 3.065 0 011.483.335 2.214 2.214 0 01.937.975 3.4 3.4 0 01.321 1.541zM11.778 15.121a2.421 2.421 0 01-.854.952 3.41 3.41 0 01-1.347.488H9.57v-1.395h.007a1.29 1.29 0 00.851-.437 1.415 1.415 0 00.3-.943 1.261 1.261 0 00-.448-1.036 1.941 1.941 0 00-1.261-.366h-.83a1.928 1.928 0 00-1.254.366 1.264 1.264 0 00-.448 1.036 1.325 1.325 0 00.205.7 1.968 1.968 0 00.575.588v1.271H2.03v-5.068h1.326v3.671h2.236a1.96 1.96 0 01-.328-.581 1.9 1.9 0 01-.117-.657 2.885 2.885 0 01.353-1.473 2.274 2.274 0 011.039-.93 3.9 3.9 0 011.647-.317h.834a3.778 3.778 0 011.648.328 2.323 2.323 0 011.042.957 3 3 0 01.359 1.511 2.927 2.927 0 01-.291 1.335z"/><path class="cls-9" d="M14.224 33.031l-1.461-1.461" id="LINE-11" data-name="LINE"/><path class="cls-9" d="M15.686 31.57l-1.462 1.461" id="LINE-12" data-name="LINE"/><path class="cls-9" d="M14.245 8.981l1.461 1.462" id="LINE-13" data-name="LINE"/><path class="cls-9" d="M12.784 10.443l1.461-1.462" id="LINE-14" data-name="LINE"/><path class="cls-9" d="M14.225 161.44H39.93" id="LINE-15" data-name="LINE"/><path class="cls-9" d="M14.245 116.009h25.704" id="LINE-16" data-name="LINE"/><path class="cls-9" d="M14.244 116.009l-.02 45.431" id="LINE-17" data-name="LINE"/><path d="M11.97 148.882v1.395H3.548l.868 1.415H2.974l-.944-1.415v-1.395zM10.76 146.777l-4.621-3.466a3.432 3.432 0 00-.825-.468 2.176 2.176 0 00-.795-.168h-.014a1.2 1.2 0 00-.923.349 1.388 1.388 0 00-.328.991 1.368 1.368 0 00.358.984 1.629 1.629 0 001.016.458h.007v1.443h-.007a3.726 3.726 0 01-1.46-.5 2.562 2.562 0 01-.923-.982 2.922 2.922 0 01-.317-1.387 3.47 3.47 0 01.3-1.518 2.143 2.143 0 01.886-.957 2.806 2.806 0 011.4-.328h.006a3.088 3.088 0 011.1.219 4.673 4.673 0 011.107.608l3.911 2.878v-3.76h1.332v5.606zM9.235 139.941l-7.2-3.336v-1.436l7.116 3.254v-4.874h1.292v6.392zm-3.11-4.286v-1.361h5.852v1.361zM11.327 131.12a2.866 2.866 0 01-2.078.72H4.73a2.857 2.857 0 01-2.082-.724 3.391 3.391 0 010-4.229 2.859 2.859 0 012.084-.721h4.517a2.852 2.852 0 012.081.725 3.379 3.379 0 010 4.229zm-.968-3.208a1.593 1.593 0 00-1.11-.351H4.73a1.6 1.6 0 00-1.111.349 1.742 1.742 0 000 2.187 1.607 1.607 0 001.111.349h4.519a1.593 1.593 0 001.11-.352 1.731 1.731 0 000-2.182z"/><path class="cls-9" d="M14.224 161.44l-1.461-1.461" id="LINE-18" data-name="LINE"/><path class="cls-9" d="M15.686 159.979l-1.462 1.461" id="LINE-19" data-name="LINE"/><path class="cls-9" d="M14.245 116.009l1.461 1.461" id="LINE-20" data-name="LINE"/><path class="cls-9" d="M12.784 117.47l1.44-1.461" id="LINE-21" data-name="LINE"/><path class="cls-9" d="M14.225 227.481H39.93" id="LINE-22" data-name="LINE"/><path class="cls-9" d="M14.245 161.44h25.704" id="LINE-23" data-name="LINE"/><path class="cls-9" d="M14.244 161.44l-.02 66.041" id="LINE-24" data-name="LINE"/><path d="M11.97 203.078v1.394H3.548l.868 1.415H2.974l-.944-1.415v-1.394zM3.274 195.688l8.7 2.57v1.484l-8.614-2.571v2.53h1.425v1.399H2.03v-5.407zM11.97 191.374v1.4H3.548l.868 1.415H2.974l-.944-1.415v-1.4zM11.327 188.4a2.867 2.867 0 01-2.078.721H4.73a2.858 2.858 0 01-2.082-.725 3.391 3.391 0 010-4.229 2.859 2.859 0 012.084-.72h4.517a2.852 2.852 0 012.081.724 3.379 3.379 0 010 4.229zm-.968-3.207a1.589 1.589 0 00-1.11-.352H4.73a1.6 1.6 0 00-1.111.349 1.742 1.742 0 000 2.187 1.6 1.6 0 001.111.349h4.519a1.589 1.589 0 001.11-.352 1.73 1.73 0 000-2.181z"/><path class="cls-9" d="M14.224 227.481l-1.461-1.461" id="LINE-25" data-name="LINE"/><path class="cls-9" d="M15.686 226.02l-1.462 1.461" id="LINE-26" data-name="LINE"/><path class="cls-9" d="M14.245 161.44l1.461 1.461" id="LINE-27" data-name="LINE"/><path class="cls-9" d="M12.784 162.901l1.44-1.461" id="LINE-28" data-name="LINE"/><path class="cls-9" d="M14.225 258.882H39.93" id="LINE-29" data-name="LINE"/><path class="cls-9" d="M14.245 227.518h25.704" id="LINE-30" data-name="LINE"/><path class="cls-9" d="M14.244 227.518l-.02 31.364" id="LINE-31" data-name="LINE"/><path d="M11.73 249.557a2.5 2.5 0 01-.967 1.057 2.789 2.789 0 01-1.452.372h-.165a2.8 2.8 0 01-1.4-.372 2.5 2.5 0 01-.991-1 2.186 2.186 0 01-.831.844 2.242 2.242 0 01-1.145.318h-.24a2.657 2.657 0 01-1.371-.349 2.368 2.368 0 01-.916-.984 3.526 3.526 0 010-2.953 2.371 2.371 0 01.916-.985 2.657 2.657 0 011.371-.349h.239a2.206 2.206 0 011.156.326 2.176 2.176 0 01.82.857 2.567 2.567 0 01.994-1.008 2.728 2.728 0 011.4-.38h.165a2.789 2.789 0 011.452.372 2.508 2.508 0 01.967 1.057 3.848 3.848 0 010 3.172zm-5.67-2.324a1.254 1.254 0 00-.516-.5 1.632 1.632 0 00-.773-.178h-.095a1.5 1.5 0 00-.738.178 1.231 1.231 0 00-.5.5 1.661 1.661 0 000 1.476 1.231 1.231 0 00.5.5 1.5 1.5 0 00.745.178h.1a1.582 1.582 0 00.762-.178 1.252 1.252 0 00.513-.5 1.6 1.6 0 000-1.476zm4.481-.116a1.387 1.387 0 00-.537-.572 1.551 1.551 0 00-.8-.2h-.1a1.567 1.567 0 00-.8.2 1.38 1.38 0 00-.537.572 2.007 2.007 0 000 1.709 1.374 1.374 0 00.541.571 1.581 1.581 0 00.806.2h.1a1.54 1.54 0 00.793-.2 1.372 1.372 0 00.529-.571 1.856 1.856 0 00.188-.855 1.837 1.837 0 00-.183-.854zM12.072 241.272l-.3.636a2.52 2.52 0 01-.882 1.022 3.182 3.182 0 01-1.391.488V242a1.5 1.5 0 00.7-.266 1.244 1.244 0 00.407-.53 1.992 1.992 0 00.133-.762 1.483 1.483 0 00-.369-1.073 1.376 1.376 0 00-1.039-.383h-.3a1.678 1.678 0 00-1.152.362 1.3 1.3 0 00-.406 1.026v.7H6.139v-.7a1.168 1.168 0 00-.349-.9 1.4 1.4 0 00-.984-.321H4.5a1.187 1.187 0 00-.909.339 1.333 1.333 0 00-.321.96 1.469 1.469 0 00.132.635 1.21 1.21 0 00.411.475 1.846 1.846 0 00.694.284v1.415a3.626 3.626 0 01-1.395-.515 2.53 2.53 0 01-.881-.961 2.843 2.843 0 01-.3-1.333 2.758 2.758 0 01.676-1.99 2.525 2.525 0 011.908-.7h.164a2.15 2.15 0 011.3.4 2.275 2.275 0 01.806 1.141 2.014 2.014 0 01.8-1.26 2.643 2.643 0 011.586-.449h.164a3.065 3.065 0 011.483.335 2.214 2.214 0 01.937.975 3.4 3.4 0 01.321 1.541zM11.778 234.165a2.421 2.421 0 01-.854.952 3.41 3.41 0 01-1.347.488H9.57v-1.395h.007a1.29 1.29 0 00.851-.437 1.416 1.416 0 00.3-.944 1.259 1.259 0 00-.448-1.035 1.941 1.941 0 00-1.261-.366h-.83a1.928 1.928 0 00-1.254.366 1.261 1.261 0 00-.448 1.035 1.326 1.326 0 00.205.7 1.968 1.968 0 00.575.588v1.271H2.03v-5.065h1.326v3.671h2.236a1.96 1.96 0 01-.328-.581 1.9 1.9 0 01-.117-.657 2.885 2.885 0 01.356-1.473 2.274 2.274 0 011.039-.93 3.9 3.9 0 011.647-.317h.834a3.778 3.778 0 011.648.328 2.323 2.323 0 011.042.957 3 3 0 01.359 1.51 2.928 2.928 0 01-.294 1.334z"/><path class="cls-9" d="M14.224 258.882l-1.461-1.461" id="LINE-32" data-name="LINE"/><path class="cls-9" d="M15.686 257.421l-1.462 1.461" id="LINE-33" data-name="LINE"/><path class="cls-9" d="M14.245 227.518l1.461 1.461" id="LINE-34" data-name="LINE"/><path class="cls-9" d="M12.784 228.979l1.44-1.461" id="LINE-35" data-name="LINE"/><path class="cls-9" d="M72.502 9.71v119.605" id="LINE-36" data-name="LINE"/><path d="M70.035 82l-.3.636a2.506 2.506 0 01-.881 1.023 3.2 3.2 0 01-1.391.488v-1.424a1.5 1.5 0 00.7-.267 1.232 1.232 0 00.407-.53 1.992 1.992 0 00.133-.762 1.483 1.483 0 00-.369-1.073 1.376 1.376 0 00-1.039-.383h-.3a1.674 1.674 0 00-1.152.363 1.3 1.3 0 00-.406 1.025v.7H64.1v-.7a1.166 1.166 0 00-.349-.9 1.4 1.4 0 00-.984-.322h-.308a1.192 1.192 0 00-.909.339 1.335 1.335 0 00-.322.96 1.459 1.459 0 00.134.636 1.207 1.207 0 00.41.475 1.879 1.879 0 00.694.284v1.415a3.626 3.626 0 01-1.4-.516 2.534 2.534 0 01-.882-.961 2.864 2.864 0 01-.3-1.333 2.757 2.757 0 01.676-1.989 2.521 2.521 0 011.908-.7h.164a2.156 2.156 0 011.3.4 2.276 2.276 0 01.806 1.142 2.023 2.023 0 01.8-1.261 2.643 2.643 0 011.586-.448h.164a3.051 3.051 0 011.483.335 2.212 2.212 0 01.937.974 3.4 3.4 0 01.321 1.541zM67.2 76.468L60 73.132V71.7l7.116 3.254v-4.877h1.292v6.391zm-3.11-4.286v-1.36h5.851v1.36zM70.035 66.631l-.3.636a2.5 2.5 0 01-.881 1.022 3.2 3.2 0 01-1.391.489v-1.422a1.5 1.5 0 00.7-.267 1.232 1.232 0 00.407-.53 1.992 1.992 0 00.133-.762 1.483 1.483 0 00-.369-1.073 1.376 1.376 0 00-1.039-.383h-.3a1.678 1.678 0 00-1.152.362 1.3 1.3 0 00-.406 1.026v.7H64.1v-.7a1.164 1.164 0 00-.349-.9 1.4 1.4 0 00-.984-.322h-.308a1.192 1.192 0 00-.909.339 1.335 1.335 0 00-.322.96 1.462 1.462 0 00.134.636 1.2 1.2 0 00.41.474 1.863 1.863 0 00.694.285v1.415a3.626 3.626 0 01-1.4-.516 2.534 2.534 0 01-.882-.961 2.867 2.867 0 01-.3-1.333 2.757 2.757 0 01.676-1.989 2.521 2.521 0 011.908-.7h.164a2.15 2.15 0 011.3.4 2.272 2.272 0 01.806 1.142 2.023 2.023 0 01.8-1.261 2.643 2.643 0 011.586-.448h.164a3.051 3.051 0 011.483.335 2.207 2.207 0 01.937.974 3.4 3.4 0 01.321 1.541zM69.29 60.244a2.866 2.866 0 01-2.078.72h-4.519a2.843 2.843 0 110-5.674h4.519a2.852 2.852 0 012.081.725 3.379 3.379 0 010 4.229zm-.967-3.208a1.6 1.6 0 00-1.111-.351h-4.519a1.6 1.6 0 00-1.11.349 1.738 1.738 0 000 2.187 1.6 1.6 0 001.11.349h4.519a1.593 1.593 0 001.111-.352 1.735 1.735 0 000-2.182z"/><path class="cls-9" d="M72.502 129.315l-1.461-1.461" id="LINE-37" data-name="LINE"/><path class="cls-9" d="M73.964 127.854l-1.462 1.461" id="LINE-38" data-name="LINE"/><path class="cls-9" d="M72.503 9.71l1.461 1.462" id="LINE-39" data-name="LINE"/><path class="cls-9" d="M71.042 11.172l1.461-1.462" id="LINE-40" data-name="LINE"/><path class="cls-9" d="M287.752 9.71v73.855" id="LINE-41" data-name="LINE"/><path d="M285.183 56.882v1.4h-8.422l.868 1.415h-1.442l-.944-1.415v-1.4zM280.247 51.106l.246.007a1.029 1.029 0 01.461.515 2.064 2.064 0 01.148.818 2.2 2.2 0 01-.363 1.251 2.381 2.381 0 01-1.022.838 3.706 3.706 0 01-1.528.3h-.006a3.82 3.82 0 01-1.648-.324 2.283 2.283 0 01-1.039-.951 2.986 2.986 0 01-.355-1.5 2.922 2.922 0 01.362-1.5 2.313 2.313 0 011.053-.946 3.865 3.865 0 011.661-.326h.007a5.176 5.176 0 011.137.137 6.975 6.975 0 011.2.39l.18.082c.062.027.122.057.182.089l4.259 2.119v1.5zm-.861-.066a1.953 1.953 0 00-1.251-.358h-.007a1.857 1.857 0 00-1.217.358 1.42 1.42 0 000 2.038 1.856 1.856 0 001.224.359h.007a1.924 1.924 0 001.247-.359 1.395 1.395 0 000-2.038zM284.943 46.116a2.5 2.5 0 01-.967 1.056 2.79 2.79 0 01-1.453.372h-.164a2.8 2.8 0 01-1.4-.372 2.489 2.489 0 01-.991-.995 2.188 2.188 0 01-.831.845 2.244 2.244 0 01-1.145.317h-.239a2.651 2.651 0 01-1.371-.348 2.371 2.371 0 01-.916-.985 3.526 3.526 0 010-2.953 2.362 2.362 0 01.916-.984 2.642 2.642 0 011.371-.349h.239a2.2 2.2 0 011.155.325 2.168 2.168 0 01.821.858 2.567 2.567 0 01.994-1.008 2.726 2.726 0 011.4-.38h.164a2.79 2.79 0 011.453.372 2.5 2.5 0 01.967 1.057 3.848 3.848 0 010 3.172zm-5.671-2.325a1.264 1.264 0 00-.515-.5 1.635 1.635 0 00-.773-.177h-.095a1.5 1.5 0 00-.739.177 1.247 1.247 0 00-.5.5 1.654 1.654 0 000 1.477 1.235 1.235 0 00.5.5 1.519 1.519 0 00.746.178h.1a1.593 1.593 0 00.762-.178 1.25 1.25 0 00.512-.5 1.589 1.589 0 000-1.477zm4.482-.116a1.39 1.39 0 00-.537-.571 1.551 1.551 0 00-.8-.2h-.1a1.573 1.573 0 00-.8.2 1.388 1.388 0 00-.536.571 2.007 2.007 0 000 1.709 1.372 1.372 0 00.54.571 1.588 1.588 0 00.807.2h.1a1.541 1.541 0 00.793-.2 1.366 1.366 0 00.529-.571 2.021 2.021 0 000-1.709zM284.991 38.127a2.412 2.412 0 01-.854.951 3.4 3.4 0 01-1.347.489h-.007v-1.4h.007a1.3 1.3 0 00.851-.437 1.416 1.416 0 00.3-.944 1.259 1.259 0 00-.448-1.035 1.941 1.941 0 00-1.261-.366h-.832a1.933 1.933 0 00-1.255.366 1.264 1.264 0 00-.447 1.035 1.326 1.326 0 00.2.7 1.964 1.964 0 00.574.588v1.271h-5.236v-5.062h1.326v3.67h2.236a1.935 1.935 0 01-.328-.581 1.872 1.872 0 01-.117-.656 2.885 2.885 0 01.356-1.473 2.274 2.274 0 011.039-.93 3.9 3.9 0 011.647-.318h.834a3.778 3.778 0 011.648.329 2.323 2.323 0 011.042.957 3 3 0 01.359 1.51 2.928 2.928 0 01-.287 1.336z"/><path class="cls-9" d="M287.752 83.565l-1.461-1.461" id="LINE-42" data-name="LINE"/><path class="cls-9" d="M289.214 82.104l-1.462 1.461" id="LINE-43" data-name="LINE"/><path class="cls-9" d="M287.753 9.71l1.461 1.462" id="LINE-44" data-name="LINE"/><path class="cls-9" d="M286.292 11.172l1.461-1.462" id="LINE-45" data-name="LINE"/><path class="cls-9" d="M287.752 86.716v49.828" id="LINE-46" data-name="LINE"/><path d="M285.183 129.1v1.395h-8.422l.868 1.415h-1.442l-.944-1.415V129.1zM283.973 126.992l-4.621-3.466a3.432 3.432 0 00-.825-.468 2.177 2.177 0 00-.8-.168h-.013a1.2 1.2 0 00-.923.349 1.388 1.388 0 00-.328.991 1.368 1.368 0 00.358.984 1.626 1.626 0 001.016.458h.007v1.443h-.007a3.726 3.726 0 01-1.46-.5 2.562 2.562 0 01-.923-.982 2.922 2.922 0 01-.317-1.387 3.47 3.47 0 01.3-1.518 2.138 2.138 0 01.886-.957 2.805 2.805 0 011.4-.328h.007a3.088 3.088 0 011.1.219 4.673 4.673 0 011.107.608l3.91 2.878v-3.76h1.327v5.606zM284.933 118.953a2.29 2.29 0 01-1.026.947 3.713 3.713 0 01-1.623.324h-.007a5.545 5.545 0 01-1.162-.13 6.761 6.761 0 01-1.2-.376 2.58 2.58 0 01-.2-.089l-.195-.095-4.279-2.161v-1.5l4.956 2.536-.246-.007a1.189 1.189 0 01-.5-.5 1.579 1.579 0 01-.178-.766 2.443 2.443 0 01.349-1.326 2.177 2.177 0 011.015-.841 4.044 4.044 0 011.6-.287h.007a3.791 3.791 0 011.641.325 2.3 2.3 0 011.039.949 3.357 3.357 0 010 3zm-1.4-2.52a1.726 1.726 0 00-1.169-.358h-.007a1.971 1.971 0 00-1.289.376 1.316 1.316 0 00-.454 1.073 1.133 1.133 0 00.458.964 2.131 2.131 0 001.292.341h.007a1.7 1.7 0 001.165-.359 1.474 1.474 0 000-2.037zM284.991 111.4a2.412 2.412 0 01-.854.951 3.416 3.416 0 01-1.347.488h-.007v-1.399h.007a1.293 1.293 0 00.851-.438 1.413 1.413 0 00.3-.943 1.259 1.259 0 00-.448-1.035 1.941 1.941 0 00-1.261-.366h-.832a1.933 1.933 0 00-1.255.366 1.264 1.264 0 00-.447 1.035 1.323 1.323 0 00.2.7 1.953 1.953 0 00.574.588v1.272h-5.236v-5.069h1.326v3.671h2.236a1.947 1.947 0 01-.328-.581 1.88 1.88 0 01-.117-.656 2.889 2.889 0 01.356-1.474 2.279 2.279 0 011.039-.93 3.911 3.911 0 011.647-.317h.834a3.778 3.778 0 011.648.328 2.329 2.329 0 011.042.957 3 3 0 01.359 1.511 2.931 2.931 0 01-.287 1.341z"/><path class="cls-9" d="M287.752 136.544l-1.461-1.461" id="LINE-47" data-name="LINE"/><path class="cls-9" d="M289.214 135.083l-1.462 1.461" id="LINE-48" data-name="LINE"/><path class="cls-9" d="M287.753 86.716l1.461 1.461" id="LINE-49" data-name="LINE"/><path class="cls-9" d="M286.292 88.177l1.461-1.461" id="LINE-50" data-name="LINE"/><path class="cls-9" d="M338.752 213.299v35.245" id="LINE-51" data-name="LINE"/><path d="M336.183 243.058v1.4h-8.422l.868 1.415h-1.442l-.944-1.415v-1.4zM335.54 240.081a2.862 2.862 0 01-2.078.721h-4.519a2.856 2.856 0 01-2.082-.724 3.393 3.393 0 010-4.229 2.863 2.863 0 012.085-.721h4.519a2.854 2.854 0 012.081.725 3.377 3.377 0 010 4.228zm-.968-3.207a1.6 1.6 0 00-1.11-.351h-4.519a1.607 1.607 0 00-1.111.348 1.743 1.743 0 000 2.188 1.607 1.607 0 001.111.349h4.519a1.6 1.6 0 001.11-.352 1.731 1.731 0 000-2.182zM335.54 232.357a2.867 2.867 0 01-2.078.721h-4.519a2.856 2.856 0 01-2.082-.725 3.393 3.393 0 010-4.229 2.863 2.863 0 012.085-.72h4.519a2.853 2.853 0 012.081.724 3.379 3.379 0 010 4.229zm-.968-3.207a1.59 1.59 0 00-1.11-.352h-4.519a1.6 1.6 0 00-1.111.349 1.742 1.742 0 000 2.187 1.6 1.6 0 001.111.349h4.519a1.59 1.59 0 001.11-.352 1.73 1.73 0 000-2.181zM335.54 224.632a2.862 2.862 0 01-2.078.721h-4.519a2.852 2.852 0 01-2.082-.725 3.391 3.391 0 010-4.228 2.859 2.859 0 012.085-.721h4.519a2.849 2.849 0 012.081.725 3.377 3.377 0 010 4.228zm-.968-3.207a1.6 1.6 0 00-1.11-.351h-4.519a1.607 1.607 0 00-1.111.348 1.743 1.743 0 000 2.188 1.607 1.607 0 001.111.348h4.519a1.6 1.6 0 001.11-.351 1.731 1.731 0 000-2.182z"/><path class="cls-9" d="M338.752 248.544l-1.461-1.461" id="LINE-52" data-name="LINE"/><path class="cls-9" d="M340.214 247.083l-1.462 1.461" id="LINE-53" data-name="LINE"/><path class="cls-9" d="M338.753 213.299l1.461 1.461" id="LINE-54" data-name="LINE"/><path class="cls-9" d="M337.292 214.76l1.461-1.461" id="LINE-55" data-name="LINE"/><path class="cls-9" d="M273.919 213.299v45.078" id="LINE-56" data-name="LINE"/><path d="M286.162 245.922v1.4h-8.422l.867 1.415h-1.441l-.943-1.415v-1.4zM284.951 243.817l-4.621-3.466a3.474 3.474 0 00-.823-.468 2.181 2.181 0 00-.8-.168h-.007a1.208 1.208 0 00-.924.349 1.392 1.392 0 00-.328.991 1.365 1.365 0 00.36.984 1.626 1.626 0 001.015.458h.006v1.443h-.006a3.731 3.731 0 01-1.46-.5 2.551 2.551 0 01-.922-.982 2.923 2.923 0 01-.319-1.387 3.456 3.456 0 01.3-1.518 2.141 2.141 0 01.885-.957 2.806 2.806 0 011.4-.328h.006a3.084 3.084 0 011.1.219 4.7 4.7 0 011.108.608l3.91 2.878v-3.76h1.326v5.606zM286.264 234.7l-.3.635a2.508 2.508 0 01-.882 1.023 3.183 3.183 0 01-1.39.488v-1.422a1.514 1.514 0 00.7-.266 1.247 1.247 0 00.406-.531 1.983 1.983 0 00.133-.761 1.485 1.485 0 00-.369-1.074 1.379 1.379 0 00-1.039-.382h-.3a1.678 1.678 0 00-1.152.362 1.3 1.3 0 00-.407 1.025v.7h-1.334v-.7a1.163 1.163 0 00-.348-.9 1.4 1.4 0 00-.984-.321h-.309a1.187 1.187 0 00-.908.339 1.33 1.33 0 00-.322.959 1.456 1.456 0 00.134.636 1.207 1.207 0 00.41.475 1.87 1.87 0 00.694.284v1.415a3.615 3.615 0 01-1.394-.516 2.521 2.521 0 01-.883-.961 2.865 2.865 0 01-.3-1.333 2.758 2.758 0 01.678-1.989 2.516 2.516 0 011.906-.7h.164a2.152 2.152 0 011.3.4 2.278 2.278 0 01.807 1.142 2.023 2.023 0 01.8-1.261 2.647 2.647 0 011.586-.448h.164a3.051 3.051 0 011.483.335 2.214 2.214 0 01.937.975 3.4 3.4 0 01.321 1.541zM285.52 228.31a2.871 2.871 0 01-2.079.721h-4.519a2.854 2.854 0 01-2.081-.725 3.391 3.391 0 010-4.228 2.855 2.855 0 012.084-.721h4.519a2.853 2.853 0 012.081.724 3.38 3.38 0 010 4.229zm-.968-3.207a1.6 1.6 0 00-1.111-.352h-4.519a1.6 1.6 0 00-1.11.349 1.742 1.742 0 000 2.187 1.6 1.6 0 001.11.349h4.519a1.6 1.6 0 001.111-.351 1.735 1.735 0 000-2.182z"/><path class="cls-9" d="M273.919 258.377l-1.461-1.461" id="LINE-57" data-name="LINE"/><path class="cls-9" d="M275.38 256.916l-1.461 1.461" id="LINE-58" data-name="LINE"/><path class="cls-9" d="M273.92 213.299l1.461 1.461" id="LINE-59" data-name="LINE"/><path class="cls-9" d="M272.459 214.76l1.461-1.461" id="LINE-60" data-name="LINE"/><path class="cls-9" d="M343.877 36.731v46.834" id="LINE-61" data-name="LINE"/><path d="M341.308 60.835v1.395h-8.422l.868 1.415h-1.442l-.944-1.415v-1.395zM340.1 58.73l-4.621-3.466a3.466 3.466 0 00-.825-.468 2.177 2.177 0 00-.8-.168h-.013a1.208 1.208 0 00-.923.349 1.388 1.388 0 00-.328.991 1.37 1.37 0 00.358.985 1.637 1.637 0 001.016.458h.007v1.442h-.007a3.726 3.726 0 01-1.46-.5 2.566 2.566 0 01-.923-.981 2.929 2.929 0 01-.317-1.388 3.47 3.47 0 01.3-1.518 2.138 2.138 0 01.886-.957 2.805 2.805 0 011.4-.328h.007a3.088 3.088 0 011.1.219 4.673 4.673 0 011.107.608l3.91 2.878v-3.76h1.327v5.604zM332.612 46.213l8.7 2.571v1.483l-8.614-2.57v2.529h1.429v1.394h-2.755v-5.407zM341.116 42.86a2.418 2.418 0 01-.854.951 3.416 3.416 0 01-1.347.488h-.007v-1.394h.007a1.3 1.3 0 00.851-.438 1.415 1.415 0 00.3-.943 1.259 1.259 0 00-.448-1.035 1.941 1.941 0 00-1.261-.367h-.834a1.933 1.933 0 00-1.255.367 1.264 1.264 0 00-.447 1.035 1.325 1.325 0 00.2.7 1.953 1.953 0 00.574.588v1.268h-5.236v-5.065h1.326v3.671h2.236a1.947 1.947 0 01-.328-.581 1.88 1.88 0 01-.117-.656 2.886 2.886 0 01.356-1.474 2.279 2.279 0 011.039-.93 3.9 3.9 0 011.647-.317h.834a3.778 3.778 0 011.648.328 2.329 2.329 0 011.042.957 3 3 0 01.359 1.511 2.931 2.931 0 01-.285 1.336z"/><path class="cls-9" d="M343.877 83.565l-1.461-1.461" id="LINE-62" data-name="LINE"/><path class="cls-9" d="M345.339 82.104l-1.462 1.461" id="LINE-63" data-name="LINE"/><path class="cls-9" d="M343.878 36.731l1.461 1.462" id="LINE-64" data-name="LINE"/><path class="cls-9" d="M342.417 38.193l1.461-1.462" id="LINE-65" data-name="LINE"/><path class="cls-9" d="M72.502 139.929v118.48" id="LINE-66" data-name="LINE"/><path d="M70.035 210.059l-.3.636a2.5 2.5 0 01-.881 1.022 3.182 3.182 0 01-1.391.488v-1.421a1.5 1.5 0 00.7-.267 1.244 1.244 0 00.407-.53 1.992 1.992 0 00.133-.762 1.483 1.483 0 00-.369-1.073 1.376 1.376 0 00-1.039-.383h-.3a1.678 1.678 0 00-1.152.362 1.3 1.3 0 00-.406 1.026v.7H64.1v-.7a1.168 1.168 0 00-.349-.9 1.4 1.4 0 00-.984-.321h-.308a1.188 1.188 0 00-.909.339 1.333 1.333 0 00-.322.96 1.462 1.462 0 00.134.636 1.211 1.211 0 00.41.474 1.846 1.846 0 00.694.284v1.415a3.609 3.609 0 01-1.4-.515 2.534 2.534 0 01-.882-.961 2.867 2.867 0 01-.3-1.333 2.754 2.754 0 01.676-1.989 2.521 2.521 0 011.908-.7h.164a2.15 2.15 0 011.3.4 2.269 2.269 0 01.806 1.141 2.018 2.018 0 01.8-1.26 2.643 2.643 0 011.586-.449h.164a3.063 3.063 0 011.483.335 2.214 2.214 0 01.937.975 3.4 3.4 0 01.321 1.541zM69.933 201.993v1.394h-8.422l.868 1.415h-1.442l-.944-1.415v-1.394zM69.741 198.3a2.412 2.412 0 01-.854.951 3.4 3.4 0 01-1.347.489h-.007v-1.395h.007a1.294 1.294 0 00.851-.437 1.418 1.418 0 00.3-.944 1.261 1.261 0 00-.447-1.035 1.944 1.944 0 00-1.262-.366h-.834a1.93 1.93 0 00-1.254.366 1.261 1.261 0 00-.448 1.035 1.326 1.326 0 00.2.7 1.95 1.95 0 00.574.587v1.272h-5.227v-5.065h1.326v3.67h2.236a1.957 1.957 0 01-.328-.581 1.9 1.9 0 01-.117-.656 2.891 2.891 0 01.356-1.474 2.282 2.282 0 011.039-.929 3.9 3.9 0 011.647-.318h.834a3.778 3.778 0 011.648.329 2.323 2.323 0 011.042.957 3 3 0 01.359 1.51 2.928 2.928 0 01-.294 1.334zM69.741 190.675a2.412 2.412 0 01-.854.951 3.4 3.4 0 01-1.347.489h-.007v-1.4h.007a1.294 1.294 0 00.851-.437 1.418 1.418 0 00.3-.944 1.261 1.261 0 00-.447-1.035 1.944 1.944 0 00-1.262-.366h-.834a1.93 1.93 0 00-1.254.366 1.261 1.261 0 00-.448 1.035 1.323 1.323 0 00.2.7 1.953 1.953 0 00.574.588v1.278h-5.227v-5.07h1.326v3.67h2.236a1.969 1.969 0 01-.328-.581 1.9 1.9 0 01-.117-.656 2.891 2.891 0 01.356-1.474 2.282 2.282 0 011.039-.929 3.9 3.9 0 011.647-.318h.834a3.792 3.792 0 011.648.328 2.334 2.334 0 011.042.957 3 3 0 01.359 1.511 2.931 2.931 0 01-.294 1.337z"/><path class="cls-9" d="M72.502 258.409l-1.461-1.462" id="LINE-67" data-name="LINE"/><path class="cls-9" d="M73.964 256.947l-1.462 1.462" id="LINE-68" data-name="LINE"/><path class="cls-9" d="M72.503 139.929l1.461 1.461" id="LINE-69" data-name="LINE"/><path class="cls-9" d="M71.042 141.39l1.461-1.461" id="LINE-70" data-name="LINE"/><path class="cls-9" d="M270.002 139.799v70.218" id="LINE-71" data-name="LINE"/><path d="M267.433 185.54v1.4h-8.422l.868 1.415h-1.442l-.944-1.415v-1.4zM267.193 181.958a2.5 2.5 0 01-.967 1.057 2.79 2.79 0 01-1.453.372h-.164a2.8 2.8 0 01-1.4-.372 2.489 2.489 0 01-.991-.995 2.2 2.2 0 01-.831.845 2.244 2.244 0 01-1.145.317H260a2.642 2.642 0 01-1.371-.349 2.362 2.362 0 01-.916-.984 3.526 3.526 0 010-2.953 2.371 2.371 0 01.916-.985 2.651 2.651 0 011.371-.348h.239a2.2 2.2 0 011.155.325 2.172 2.172 0 01.821.857 2.571 2.571 0 01.994-1.007 2.726 2.726 0 011.4-.38h.164a2.79 2.79 0 011.453.372 2.5 2.5 0 01.967 1.056 3.848 3.848 0 010 3.172zm-5.671-2.324a1.251 1.251 0 00-.515-.5 1.635 1.635 0 00-.773-.178h-.095a1.5 1.5 0 00-.739.178 1.235 1.235 0 00-.5.5 1.654 1.654 0 000 1.477 1.235 1.235 0 00.5.5 1.518 1.518 0 00.746.177h.1a1.593 1.593 0 00.762-.177 1.25 1.25 0 00.512-.5 1.589 1.589 0 000-1.477zm4.482-.116a1.384 1.384 0 00-.537-.571 1.552 1.552 0 00-.8-.2h-.1a1.574 1.574 0 00-.8.2 1.382 1.382 0 00-.536.571 2.007 2.007 0 000 1.709 1.378 1.378 0 00.54.571 1.587 1.587 0 00.807.2h.1a1.54 1.54 0 00.793-.2 1.372 1.372 0 00.529-.571 2.021 2.021 0 000-1.709zM264.7 175.546l-7.2-3.336v-1.435l7.116 3.254v-4.874h1.292v6.391zm-3.11-4.286v-1.36h5.851v1.36zM267.241 166.006a2.412 2.412 0 01-.854.951 3.4 3.4 0 01-1.347.489h-.007v-1.4h.007a1.3 1.3 0 00.851-.437 1.418 1.418 0 00.3-.944 1.259 1.259 0 00-.448-1.035 1.941 1.941 0 00-1.261-.366h-.834a1.933 1.933 0 00-1.255.366 1.264 1.264 0 00-.447 1.035 1.329 1.329 0 00.2.7 1.962 1.962 0 00.574.587v1.272h-5.236v-5.066h1.326v3.671h2.236a1.935 1.935 0 01-.328-.581 1.876 1.876 0 01-.117-.656 2.891 2.891 0 01.356-1.474 2.277 2.277 0 011.039-.929 3.9 3.9 0 011.647-.318h.834a3.778 3.778 0 011.648.329 2.323 2.323 0 011.042.957 3 3 0 01.359 1.51 2.928 2.928 0 01-.285 1.339z"/><path class="cls-9" d="M270.002 210.017l-1.461-1.461" id="LINE-72" data-name="LINE"/><path class="cls-9" d="M271.464 208.556l-1.462 1.461" id="LINE-73" data-name="LINE"/><path class="cls-9" d="M270.003 139.799l1.461 1.461" id="LINE-74" data-name="LINE"/><path class="cls-9" d="M268.542 141.26l1.461-1.461" id="LINE-75" data-name="LINE"/><path class="cls-9" d="M197.678 9.898v81.383" id="LINE-76" data-name="LINE"/><path d="M193.9 63.331l-4.621-3.465a3.374 3.374 0 00-.824-.468 2.181 2.181 0 00-.8-.168h-.013a1.205 1.205 0 00-.923.348 1.392 1.392 0 00-.328.992 1.364 1.364 0 00.359.984 1.626 1.626 0 001.015.458h.006v1.442h-.006a3.747 3.747 0 01-1.46-.5 2.558 2.558 0 01-.922-.982 2.913 2.913 0 01-.319-1.388 3.454 3.454 0 01.305-1.517 2.136 2.136 0 01.885-.957 2.8 2.8 0 011.4-.328h.007a3.1 3.1 0 011.1.218 4.733 4.733 0 011.107.609l3.91 2.878v-3.76h1.326v5.605zM195.108 53.549v1.4h-8.421l.868 1.415h-1.443l-.943-1.415v-1.4zM194.917 49.854a2.412 2.412 0 01-.854.951 3.41 3.41 0 01-1.347.488h-.007V49.9h.007a1.288 1.288 0 00.85-.438 1.409 1.409 0 00.305-.943 1.261 1.261 0 00-.447-1.035 1.944 1.944 0 00-1.262-.366h-.834a1.93 1.93 0 00-1.254.366 1.259 1.259 0 00-.448 1.035 1.314 1.314 0 00.2.7 1.953 1.953 0 00.574.588v1.272h-5.236v-5.07h1.336v3.671h2.235a2.015 2.015 0 01-.328-.581 1.9 1.9 0 01-.116-.656 2.879 2.879 0 01.356-1.474 2.284 2.284 0 011.039-.93 3.9 3.9 0 011.647-.317h.834a3.778 3.778 0 011.648.328 2.324 2.324 0 011.042.957 2.993 2.993 0 01.359 1.511 2.931 2.931 0 01-.299 1.336zM194.466 42.951a2.868 2.868 0 01-2.078.72h-4.519a2.857 2.857 0 01-2.082-.724 3.393 3.393 0 010-4.229 2.862 2.862 0 012.082-.718h4.519a2.852 2.852 0 012.081.725 3.379 3.379 0 010 4.229zm-.968-3.207a1.589 1.589 0 00-1.11-.352h-4.519a1.6 1.6 0 00-1.111.349 1.742 1.742 0 000 2.187 1.6 1.6 0 001.111.349h4.519a1.589 1.589 0 001.11-.352 1.73 1.73 0 000-2.181z"/><path class="cls-9" d="M197.678 91.281l-1.461-1.461" id="LINE-77" data-name="LINE"/><path class="cls-9" d="M199.14 89.82l-1.462 1.461" id="LINE-78" data-name="LINE"/><path class="cls-9" d="M197.679 9.898l1.461 1.461" id="LINE-79" data-name="LINE"/><path class="cls-9" d="M196.218 11.359l1.461-1.461" id="LINE-80" data-name="LINE"/><path class="cls-9" d="M205.096 91.437h-13.334"/><path class="cls-9" d="M278.628 190.024v21.624" id="LINE-81" data-name="LINE"/><path class="cls-9" d="M306.605 190.024v21.624" id="LINE-82" data-name="LINE"/><path class="cls-9" d="M306.605 190.024h-27.977" id="LINE-83" data-name="LINE"/><path d="M283.306 187.589a2.5 2.5 0 01-1.057-.968 2.786 2.786 0 01-.372-1.452v-.164a2.793 2.793 0 01.372-1.4 2.483 2.483 0 011-.991 2.2 2.2 0 01-.845-.831 2.246 2.246 0 01-.317-1.145v-.238a2.642 2.642 0 01.349-1.371 2.362 2.362 0 01.984-.916 3.516 3.516 0 012.953 0 2.371 2.371 0 01.985.916 2.651 2.651 0 01.348 1.371v.239a2.2 2.2 0 01-.325 1.155 2.172 2.172 0 01-.857.821 2.564 2.564 0 011.007.994 2.726 2.726 0 01.38 1.4v.164a2.786 2.786 0 01-.372 1.452 2.5 2.5 0 01-1.056.968 3.848 3.848 0 01-3.172 0zm2.44-1.189a1.384 1.384 0 00.571-.537 1.552 1.552 0 00.2-.8v-.1a1.571 1.571 0 00-.2-.8 1.382 1.382 0 00-.571-.536 2.007 2.007 0 00-1.709 0 1.378 1.378 0 00-.571.54 1.587 1.587 0 00-.2.807v.1a1.535 1.535 0 00.2.793 1.368 1.368 0 00.571.53 2.021 2.021 0 001.709 0zm-.116-4.482a1.251 1.251 0 00.5-.515 1.635 1.635 0 00.178-.773v-.095a1.5 1.5 0 00-.178-.739 1.222 1.222 0 00-.5-.5 1.654 1.654 0 00-1.477 0 1.222 1.222 0 00-.5.5 1.517 1.517 0 00-.177.745v.1a1.593 1.593 0 00.177.762 1.25 1.25 0 00.5.512 1.589 1.589 0 001.477 0zM290.575 187.186a2.868 2.868 0 01-.721-2.078v-4.519a2.856 2.856 0 01.725-2.082 3.393 3.393 0 014.229 0 2.861 2.861 0 01.72 2.085v4.519a2.853 2.853 0 01-.724 2.081 3.379 3.379 0 01-4.229 0zm3.207-.968a1.59 1.59 0 00.352-1.11v-4.519a1.6 1.6 0 00-.349-1.111 1.742 1.742 0 00-2.187 0 1.6 1.6 0 00-.349 1.111v4.519a1.59 1.59 0 00.352 1.11 1.73 1.73 0 002.181 0zM298.3 187.186a2.864 2.864 0 01-.721-2.078v-4.519a2.852 2.852 0 01.725-2.082 3.391 3.391 0 014.228 0 2.858 2.858 0 01.721 2.085v4.519a2.849 2.849 0 01-.725 2.081 3.377 3.377 0 01-4.228 0zm3.207-.968a1.6 1.6 0 00.351-1.11v-4.519a1.607 1.607 0 00-.348-1.111 1.743 1.743 0 00-2.188 0 1.607 1.607 0 00-.348 1.111v4.519a1.6 1.6 0 00.351 1.11 1.731 1.731 0 002.182 0z"/><path class="cls-9" d="M278.628 190.024l1.461-1.461" id="LINE-84" data-name="LINE"/><path class="cls-9" d="M280.089 191.486l-1.461-1.462" id="LINE-85" data-name="LINE"/><path class="cls-9" d="M306.605 190.024l-1.461 1.462" id="LINE-86" data-name="LINE"/><path class="cls-9" d="M305.144 188.563l1.461 1.461" id="LINE-87" data-name="LINE"/><path class="cls-9" d="M230.128 116.337v21.623" id="LINE-88" data-name="LINE"/><path class="cls-9" d="M262.036 116.337v21.623" id="LINE-89" data-name="LINE"/><path class="cls-9" d="M262.036 116.336h-31.908" id="LINE-90" data-name="LINE"/><path d="M239.311 109.205l-.007.247a1.025 1.025 0 01-.516.46 2.059 2.059 0 01-.817.148 2.2 2.2 0 01-1.251-.362 2.37 2.37 0 01-.838-1.023 3.7 3.7 0 01-.3-1.527v-.007a3.815 3.815 0 01.324-1.647 2.286 2.286 0 01.951-1.04 2.986 2.986 0 011.5-.355 2.922 2.922 0 011.5.362 2.325 2.325 0 01.947 1.053 3.869 3.869 0 01.325 1.661v.007a5.191 5.191 0 01-.137 1.138 7.077 7.077 0 01-.389 1.2c-.028.058-.055.119-.082.181s-.057.122-.089.181l-2.119 4.259h-1.5zm.065-.861a1.953 1.953 0 00.358-1.251v-.007a1.854 1.854 0 00-.358-1.216 1.419 1.419 0 00-2.037 0 1.855 1.855 0 00-.36 1.223v.007a1.924 1.924 0 00.36 1.247 1.393 1.393 0 002.037 0zM243.7 113.5a2.866 2.866 0 01-.72-2.078V106.9a2.843 2.843 0 115.673 0v4.518a2.852 2.852 0 01-.724 2.081 3.375 3.375 0 01-4.229 0zm3.207-.967a1.591 1.591 0 00.352-1.111V106.9a1.6 1.6 0 00-.349-1.112 1.745 1.745 0 00-2.187 0 1.6 1.6 0 00-.349 1.112v4.518a1.591 1.591 0 00.352 1.111 1.733 1.733 0 002.181 0zM251.42 113.5a2.862 2.862 0 01-.721-2.078V106.9a2.843 2.843 0 115.674 0v4.518a2.561 2.561 0 01-2.837 2.824 2.812 2.812 0 01-2.116-.742zm3.207-.967a1.6 1.6 0 00.352-1.111V106.9a1.608 1.608 0 00-.349-1.112 1.747 1.747 0 00-2.188 0 1.608 1.608 0 00-.348 1.112v4.518a1.6 1.6 0 00.351 1.111 1.735 1.735 0 002.182 0z"/><path class="cls-9" d="M230.128 116.337l1.461-1.461" id="LINE-91" data-name="LINE"/><path class="cls-9" d="M231.589 117.798l-1.461-1.461" id="LINE-92" data-name="LINE"/><path class="cls-9" d="M262.036 116.337l-1.461 1.461" id="LINE-93" data-name="LINE"/><path class="cls-9" d="M260.575 114.876l1.461 1.461" id="LINE-94" data-name="LINE"/><path class="cls-9" d="M299.544 155.044v-15.729" id="LINE-95" data-name="LINE"/><path class="cls-9" d="M327.71 155.044v-15.729" id="LINE-96" data-name="LINE"/><path class="cls-9" d="M327.71 155.045h-28.166" id="LINE-97" data-name="LINE"/><path d="M304.316 165.526a2.5 2.5 0 01-1.056-.967 2.788 2.788 0 01-.372-1.453v-.164a2.8 2.8 0 01.372-1.4 2.5 2.5 0 011-.992 2.179 2.179 0 01-.845-.83 2.24 2.24 0 01-.317-1.144v-.241a2.65 2.65 0 01.348-1.37 2.371 2.371 0 01.985-.916 3.516 3.516 0 012.953 0 2.362 2.362 0 01.984.916 2.641 2.641 0 01.349 1.37v.241a2.193 2.193 0 01-.325 1.154 2.151 2.151 0 01-.858.82 2.589 2.589 0 011.008 1 2.728 2.728 0 01.38 1.4v.164a2.788 2.788 0 01-.372 1.453 2.5 2.5 0 01-1.057.967 3.848 3.848 0 01-3.172 0zm2.441-1.19a1.382 1.382 0 00.571-.536 1.549 1.549 0 00.2-.8v-.095a1.566 1.566 0 00-.2-.8 1.382 1.382 0 00-.571-.536 2 2 0 00-1.709 0 1.364 1.364 0 00-.571.539 1.586 1.586 0 00-.2.806v.1a1.538 1.538 0 00.2.793 1.366 1.366 0 00.571.529 1.862 1.862 0 00.854.188 1.826 1.826 0 00.855-.188zm-.116-4.48a1.266 1.266 0 00.5-.516 1.629 1.629 0 00.177-.773v-.1a1.509 1.509 0 00-.177-.738 1.238 1.238 0 00-.5-.5 1.646 1.646 0 00-1.477 0 1.226 1.226 0 00-.5.5 1.524 1.524 0 00-.178.746v.1a1.6 1.6 0 00.178.763 1.252 1.252 0 00.5.513 1.6 1.6 0 001.477 0zM311.586 165.123a2.862 2.862 0 01-.721-2.078v-4.519a2.849 2.849 0 01.725-2.081 3.388 3.388 0 014.228 0 2.855 2.855 0 01.721 2.084v4.519a2.849 2.849 0 01-.725 2.081 3.377 3.377 0 01-4.228 0zm3.207-.967a1.6 1.6 0 00.352-1.111v-4.519a1.605 1.605 0 00-.349-1.111 1.747 1.747 0 00-2.188 0 1.6 1.6 0 00-.348 1.111v4.519a1.6 1.6 0 00.351 1.111 1.738 1.738 0 002.182 0zM319.311 165.123a2.862 2.862 0 01-.721-2.078v-4.519a2.853 2.853 0 01.724-2.081 3.389 3.389 0 014.229 0 2.859 2.859 0 01.721 2.084v4.519a2.854 2.854 0 01-.725 2.081 3.377 3.377 0 01-4.228 0zm3.207-.967a1.6 1.6 0 00.351-1.111v-4.519a1.6 1.6 0 00-.348-1.111 1.747 1.747 0 00-2.188 0 1.605 1.605 0 00-.349 1.111v4.519a1.6 1.6 0 00.352 1.111 1.738 1.738 0 002.182 0z"/><path class="cls-9" d="M299.544 155.044l1.461 1.462" id="LINE-98" data-name="LINE"/><path class="cls-9" d="M301.005 153.583l-1.461 1.461" id="LINE-99" data-name="LINE"/><path class="cls-9" d="M327.71 155.044l-1.462-1.461" id="LINE-100" data-name="LINE"/><path class="cls-9" d="M326.248 156.506l1.462-1.462" id="LINE-101" data-name="LINE"/><path class="cls-9" d="M385.012 159.95h-20.477" id="LINE-102" data-name="LINE"/><path class="cls-9" d="M385.012 199.219h-20.477" id="LINE-103" data-name="LINE"/><path class="cls-9" d="M385.012 199.219V159.95" id="LINE-104" data-name="LINE"/><path d="M397.784 188.538v1.395h-8.422l.868 1.415h-1.442l-.943-1.415v-1.395zM397.784 183.883v1.395h-8.422l.868 1.415h-1.442l-.943-1.415v-1.395zM397.142 180.907a2.867 2.867 0 01-2.079.72h-4.518a2.843 2.843 0 110-5.674h4.518a2.859 2.859 0 012.083.725 3.38 3.38 0 010 4.229zm-.967-3.207a1.594 1.594 0 00-1.112-.352h-4.518a1.6 1.6 0 00-1.11.349 1.738 1.738 0 000 2.187 1.6 1.6 0 001.11.349h4.518a1.594 1.594 0 001.112-.352 1.733 1.733 0 000-2.181zM397.142 173.182a2.867 2.867 0 01-2.079.721h-4.518a2.852 2.852 0 01-2.081-.725 3.39 3.39 0 010-4.228 2.858 2.858 0 012.085-.721h4.518a2.858 2.858 0 012.083.724 3.38 3.38 0 010 4.229zm-.967-3.207a1.6 1.6 0 00-1.112-.352h-4.518a1.6 1.6 0 00-1.11.349 1.74 1.74 0 000 2.188 1.6 1.6 0 001.11.348h4.518a1.6 1.6 0 001.112-.351 1.735 1.735 0 000-2.182z"/><path class="cls-9" d="M385.012 159.95l1.462 1.461" id="LINE-105" data-name="LINE"/><path class="cls-9" d="M383.551 161.411l1.461-1.461" id="LINE-106" data-name="LINE"/><path class="cls-9" d="M385.012 199.219l-1.461-1.461" id="LINE-107" data-name="LINE"/><path class="cls-9" d="M386.474 197.758l-1.462 1.461" id="LINE-108" data-name="LINE"/><path class="cls-9" d="M250.295 38.575h19.343" id="LINE-109" data-name="LINE"/><path class="cls-9" d="M250.295 66.94h19.343" id="LINE-110" data-name="LINE"/><path class="cls-9" d="M250.294 66.94V38.575" id="LINE-111" data-name="LINE"/><path d="M241.111 59.529l.246.007a1.024 1.024 0 01.461.515 2.082 2.082 0 01.147.818 2.2 2.2 0 01-.361 1.251 2.38 2.38 0 01-1.023.837 3.69 3.69 0 01-1.528.3h-.006a3.828 3.828 0 01-1.649-.324 2.3 2.3 0 01-1.039-.951 3 3 0 01-.355-1.5 2.923 2.923 0 01.363-1.5 2.313 2.313 0 011.053-.946 3.867 3.867 0 011.66-.326h.008a5.191 5.191 0 011.138.137 6.993 6.993 0 011.2.39l.18.082a1.9 1.9 0 01.181.089l4.26 2.119v1.5zm-.861-.066a1.954 1.954 0 00-1.25-.358h-.006a1.859 1.859 0 00-1.217.358 1.419 1.419 0 000 2.037 1.853 1.853 0 001.223.36h.008a1.918 1.918 0 001.247-.36 1.4 1.4 0 000-2.037zM245.4 55.144a2.867 2.867 0 01-2.078.721h-4.519a2.854 2.854 0 01-2.081-.725 3.389 3.389 0 010-4.229 2.859 2.859 0 012.084-.72h4.519a2.853 2.853 0 012.081.724 3.382 3.382 0 010 4.229zm-.967-3.207a1.6 1.6 0 00-1.111-.352h-4.519a1.605 1.605 0 00-1.111.349 1.745 1.745 0 000 2.187 1.6 1.6 0 001.111.349h4.519a1.6 1.6 0 001.111-.351 1.738 1.738 0 000-2.182zM245.4 47.419a2.862 2.862 0 01-2.078.721h-4.519a2.849 2.849 0 01-2.081-.725 3.388 3.388 0 010-4.228 2.855 2.855 0 012.084-.721h4.519a2.849 2.849 0 012.081.725 3.381 3.381 0 010 4.228zm-.967-3.207a1.6 1.6 0 00-1.111-.351h-4.519a1.6 1.6 0 00-1.111.348 1.747 1.747 0 000 2.188 1.6 1.6 0 001.111.348h4.519a1.6 1.6 0 001.111-.351 1.738 1.738 0 000-2.182z"/><path class="cls-9" d="M250.294 38.575l-1.461 1.461" id="LINE-112" data-name="LINE"/><path class="cls-9" d="M251.755 40.036l-1.461-1.461" id="LINE-113" data-name="LINE"/><path class="cls-9" d="M250.294 66.94l1.461-1.461" id="LINE-114" data-name="LINE"/><path class="cls-9" d="M248.833 65.479l1.461 1.461" id="LINE-115" data-name="LINE"/><path class="cls-9" d="M201.678 25.225H57.251" id="LINE-116" data-name="LINE"/><path d="M117.133 23.132l-.636-.3a2.507 2.507 0 01-1.022-.882 3.191 3.191 0 01-.489-1.391h1.422a1.5 1.5 0 00.267.7 1.238 1.238 0 00.53.407 1.992 1.992 0 00.762.133 1.483 1.483 0 001.073-.369 1.376 1.376 0 00.383-1.039v-.3a1.676 1.676 0 00-.362-1.151 1.3 1.3 0 00-1.026-.407h-.7V17.2h.7a1.168 1.168 0 00.9-.349 1.4 1.4 0 00.321-.984v-.308a1.192 1.192 0 00-.339-.909 1.334 1.334 0 00-.96-.321 1.462 1.462 0 00-.636.133 1.211 1.211 0 00-.474.41 1.87 1.87 0 00-.285.694h-1.412a3.626 3.626 0 01.516-1.395 2.534 2.534 0 01.961-.882 2.867 2.867 0 011.333-.3 2.757 2.757 0 011.989.676 2.521 2.521 0 01.7 1.908v.164a2.15 2.15 0 01-.4 1.3 2.272 2.272 0 01-1.142.806 2.023 2.023 0 011.261.8 2.645 2.645 0 01.448 1.586v.164a3.051 3.051 0 01-.335 1.483 2.2 2.2 0 01-.974.937 3.4 3.4 0 01-1.541.321zM124.126 22.79a2.5 2.5 0 01-1.057-.967 2.788 2.788 0 01-.372-1.453v-.164a2.8 2.8 0 01.372-1.4 2.5 2.5 0 01.995-.991 2.186 2.186 0 01-.844-.831 2.242 2.242 0 01-.318-1.145V15.6a2.652 2.652 0 01.349-1.371 2.368 2.368 0 01.984-.916 3.526 3.526 0 012.953 0 2.371 2.371 0 01.985.916 2.651 2.651 0 01.348 1.371v.239a2.2 2.2 0 01-.325 1.156 2.169 2.169 0 01-.857.82 2.573 2.573 0 011.008.994 2.731 2.731 0 01.38 1.4v.164a2.779 2.779 0 01-.373 1.453 2.5 2.5 0 01-1.056.967 3.848 3.848 0 01-3.172 0zm2.44-1.189a1.38 1.38 0 00.572-.537 1.561 1.561 0 00.2-.8v-.1a1.577 1.577 0 00-.2-.8 1.387 1.387 0 00-.572-.537 2.007 2.007 0 00-1.709 0 1.384 1.384 0 00-.571.54 1.59 1.59 0 00-.2.807v.1a1.538 1.538 0 00.2.793 1.366 1.366 0 00.571.529 1.856 1.856 0 00.855.188 1.837 1.837 0 00.854-.184zm-.116-4.481a1.254 1.254 0 00.5-.516 1.63 1.63 0 00.178-.773v-.095a1.51 1.51 0 00-.178-.739 1.226 1.226 0 00-.5-.495 1.652 1.652 0 00-1.476 0 1.226 1.226 0 00-.5.495 1.513 1.513 0 00-.178.746v.1a1.582 1.582 0 00.178.762 1.258 1.258 0 00.5.513 1.6 1.6 0 001.476 0zM131.741 22.78a2.293 2.293 0 01-.947-1.025 3.718 3.718 0 01-.324-1.624v-.007a5.545 5.545 0 01.13-1.162 6.787 6.787 0 01.376-1.2c.027-.068.056-.136.088-.2s.064-.131.1-.194l2.16-4.28h1.5l-2.536 4.956.007-.246a1.2 1.2 0 01.5-.5 1.579 1.579 0 01.766-.178 2.443 2.443 0 011.326.349 2.182 2.182 0 01.841 1.015 4.05 4.05 0 01.287 1.6v.016a3.791 3.791 0 01-.326 1.641 2.289 2.289 0 01-.949 1.039 3.355 3.355 0 01-3 0zm2.52-1.4a1.726 1.726 0 00.358-1.169v-.007a1.966 1.966 0 00-.376-1.288 1.314 1.314 0 00-1.073-.455 1.133 1.133 0 00-.964.458 2.131 2.131 0 00-.342 1.292v.007a1.7 1.7 0 00.36 1.166 1.475 1.475 0 002.037 0zM138.58 22.387a2.867 2.867 0 01-.721-2.078V15.79a2.852 2.852 0 01.725-2.081 3.391 3.391 0 014.229 0 2.863 2.863 0 01.72 2.085v4.519a2.558 2.558 0 01-2.837 2.823 2.815 2.815 0 01-2.116-.749zm3.207-.967a1.6 1.6 0 00.352-1.111V15.79a1.6 1.6 0 00-.349-1.11 1.738 1.738 0 00-2.187 0 1.6 1.6 0 00-.349 1.11v4.519a1.6 1.6 0 00.351 1.111 1.735 1.735 0 002.182 0z"/><path class="cls-9" d="M57.251 25.225l1.461-1.461" id="LINE-117" data-name="LINE"/><path class="cls-9" d="M58.712 26.686l-1.461-1.461" id="LINE-118" data-name="LINE"/><path class="cls-9" d="M201.678 25.225l-1.461 1.462" id="LINE-119" data-name="LINE"/><path class="cls-9" d="M200.217 23.764l1.461 1.461" id="LINE-120" data-name="LINE"/><path class="cls-9" d="M268.178 249.891H57.251" id="LINE-121" data-name="LINE"/><path d="M149.757 247.505a2.412 2.412 0 01-.951-.854 3.411 3.411 0 01-.489-1.347v-.004h1.395v.007a1.294 1.294 0 00.437.851 1.418 1.418 0 00.944.3 1.259 1.259 0 001.035-.448 1.941 1.941 0 00.366-1.261v-.834a1.933 1.933 0 00-.366-1.255 1.264 1.264 0 00-1.035-.447 1.323 1.323 0 00-.7.205 1.945 1.945 0 00-.588.575h-1.272v-5.237h5.067v1.326h-3.671v2.236a1.947 1.947 0 01.581-.328 1.876 1.876 0 01.656-.117 2.891 2.891 0 011.474.356 2.277 2.277 0 01.929 1.039 3.9 3.9 0 01.318 1.647v.834a3.792 3.792 0 01-.328 1.648 2.334 2.334 0 01-.957 1.042 3 3 0 01-1.511.359 2.931 2.931 0 01-1.334-.293zM157.379 247.505a2.412 2.412 0 01-.951-.854 3.411 3.411 0 01-.489-1.347v-.004h1.4v.007a1.294 1.294 0 00.437.851 1.418 1.418 0 00.944.3 1.259 1.259 0 001.035-.448 1.941 1.941 0 00.366-1.261v-.834a1.933 1.933 0 00-.366-1.255 1.264 1.264 0 00-1.035-.447 1.323 1.323 0 00-.7.205 1.945 1.945 0 00-.588.575h-1.272v-5.237h5.066v1.326h-3.671v2.236a1.947 1.947 0 01.581-.328 1.876 1.876 0 01.656-.117 2.891 2.891 0 011.474.356 2.277 2.277 0 01.929 1.039 3.9 3.9 0 01.318 1.647v.834a3.792 3.792 0 01-.328 1.648 2.329 2.329 0 01-.957 1.042 3 3 0 01-1.511.359 2.931 2.931 0 01-1.338-.293zM164.888 247.457a2.5 2.5 0 01-1.057-.967 2.79 2.79 0 01-.372-1.453v-.164a2.8 2.8 0 01.372-1.4 2.489 2.489 0 011-.991 2.2 2.2 0 01-.845-.831 2.253 2.253 0 01-.317-1.145v-.239a2.642 2.642 0 01.349-1.371 2.362 2.362 0 01.984-.916 3.526 3.526 0 012.953 0 2.371 2.371 0 01.985.916 2.651 2.651 0 01.348 1.371v.239a2.205 2.205 0 01-.325 1.156 2.176 2.176 0 01-.857.82 2.564 2.564 0 011.007.994 2.728 2.728 0 01.38 1.4v.164a2.79 2.79 0 01-.372 1.453 2.5 2.5 0 01-1.056.967 3.848 3.848 0 01-3.172 0zm2.44-1.189a1.384 1.384 0 00.571-.537 1.552 1.552 0 00.2-.8v-.1a1.567 1.567 0 00-.2-.8 1.378 1.378 0 00-.571-.537 2.007 2.007 0 00-1.709 0 1.378 1.378 0 00-.571.54 1.587 1.587 0 00-.2.807v.1a1.54 1.54 0 00.2.793 1.372 1.372 0 00.571.529 2.021 2.021 0 001.709 0zm-.116-4.482a1.245 1.245 0 00.5-.515 1.635 1.635 0 00.178-.773v-.098a1.5 1.5 0 00-.178-.739 1.235 1.235 0 00-.5-.5 1.663 1.663 0 00-1.477 0 1.235 1.235 0 00-.5.5 1.518 1.518 0 00-.177.746v.1a1.593 1.593 0 00.177.762 1.25 1.25 0 00.5.512 1.589 1.589 0 001.477 0zM172.157 247.054a2.866 2.866 0 01-.72-2.078v-4.519a2.856 2.856 0 01.724-2.082 3.393 3.393 0 014.229 0 2.863 2.863 0 01.72 2.085v4.519a2.558 2.558 0 01-2.837 2.823 2.819 2.819 0 01-2.116-.748zm3.207-.968a1.59 1.59 0 00.352-1.11v-4.519a1.6 1.6 0 00-.349-1.111 1.742 1.742 0 00-2.187 0 1.6 1.6 0 00-.349 1.111v4.519a1.59 1.59 0 00.352 1.11 1.73 1.73 0 002.181 0z"/><path class="cls-9" d="M57.251 249.891l1.461-1.461" id="LINE-122" data-name="LINE"/><path class="cls-9" d="M58.712 251.353l-1.461-1.462" id="LINE-123" data-name="LINE"/><path class="cls-9" d="M268.178 249.892l-1.461 1.461" id="LINE-124" data-name="LINE"/><path class="cls-9" d="M266.717 248.431l1.461 1.461" id="LINE-125" data-name="LINE"/><path class="cls-9" d="M342.043 215.558h-70.469" id="LINE-126" data-name="LINE"/><path d="M297.6 228.239h-1.39v-8.422l-1.415.867v-1.441l1.415-.944h1.39zM304.994 219.543l-2.57 8.7h-1.484l2.571-8.614h-2.53v1.428h-1.394V218.3h5.407zM308.348 228.047a2.416 2.416 0 01-.952-.855 3.4 3.4 0 01-.488-1.346v-.008h1.392v.008a1.294 1.294 0 00.437.851 1.421 1.421 0 00.944.3 1.258 1.258 0 001.035-.447 1.944 1.944 0 00.366-1.262v-.834a1.932 1.932 0 00-.366-1.254 1.261 1.261 0 00-1.035-.447 1.326 1.326 0 00-.7.205 1.956 1.956 0 00-.588.575h-1.271V218.3h5.065v1.326h-3.671v2.235a2 2 0 01.582-.328 1.894 1.894 0 01.656-.116 2.885 2.885 0 011.473.356 2.274 2.274 0 01.93 1.039 3.891 3.891 0 01.317 1.646v.834a3.783 3.783 0 01-.328 1.649 2.323 2.323 0 01-.957 1.042 3 3 0 01-1.51.358 2.928 2.928 0 01-1.331-.294zM315.251 227.6a2.867 2.867 0 01-.721-2.078V221a2.851 2.851 0 01.725-2.081 3.391 3.391 0 014.228 0A2.858 2.858 0 01320.2 221v4.52a2.849 2.849 0 01-.725 2.081 3.381 3.381 0 01-4.228 0zm3.207-.968a1.6 1.6 0 00.352-1.11V221a1.6 1.6 0 00-.349-1.11 1.743 1.743 0 00-2.188 0 1.6 1.6 0 00-.348 1.11v4.52a1.6 1.6 0 00.351 1.11 1.735 1.735 0 002.182 0z"/><path class="cls-9" d="M271.574 215.558l1.461-1.461" id="LINE-127" data-name="LINE"/><path class="cls-9" d="M273.035 217.019l-1.461-1.461" id="LINE-128" data-name="LINE"/><path class="cls-9" d="M342.043 215.559l-1.461 1.461" id="LINE-129" data-name="LINE"/><path class="cls-9" d="M340.582 214.098l1.461 1.461" id="LINE-130" data-name="LINE"/><path class="cls-9" d="M268.428 25.225H205.23" id="LINE-131" data-name="LINE"/><path d="M226.729 23.03h-1.394v-8.422l-1.415.868v-1.442l1.415-.944h1.394zM234.119 14.334l-2.57 8.7h-1.484l2.571-8.614h-2.53v1.429h-1.394V13.09h5.407zM237.473 22.838a2.421 2.421 0 01-.952-.854 3.41 3.41 0 01-.488-1.347v-.007h1.4v.007a1.292 1.292 0 00.437.851 1.416 1.416 0 00.944.3 1.261 1.261 0 001.035-.447 1.944 1.944 0 00.366-1.262v-.834a1.93 1.93 0 00-.371-1.245 1.261 1.261 0 00-1.035-.448 1.326 1.326 0 00-.7.2 1.956 1.956 0 00-.588.575h-1.271V13.09h5.065v1.326h-3.671v2.236a1.975 1.975 0 01.582-.328 1.9 1.9 0 01.656-.117 2.885 2.885 0 011.473.356 2.279 2.279 0 01.93 1.039 3.9 3.9 0 01.317 1.647v.834a3.778 3.778 0 01-.328 1.648 2.323 2.323 0 01-.957 1.042 2.992 2.992 0 01-1.51.359 2.928 2.928 0 01-1.334-.294zM244.376 22.387a2.867 2.867 0 01-.721-2.078V15.79a2.848 2.848 0 01.725-2.081 3.39 3.39 0 014.228 0 2.859 2.859 0 01.721 2.085v4.519a2.559 2.559 0 01-2.837 2.823 2.814 2.814 0 01-2.116-.749zm3.207-.967a1.6 1.6 0 00.352-1.111V15.79a1.6 1.6 0 00-.349-1.11 1.74 1.74 0 00-2.188 0 1.6 1.6 0 00-.348 1.11v4.519a1.6 1.6 0 00.351 1.111 1.735 1.735 0 002.182 0z"/><path class="cls-9" d="M205.23 25.225l1.462-1.461" id="LINE-132" data-name="LINE"/><path class="cls-9" d="M206.692 26.686l-1.462-1.461" id="LINE-133" data-name="LINE"/><path class="cls-9" d="M268.428 25.225l-1.461 1.462" id="LINE-134" data-name="LINE"/><path class="cls-9" d="M266.967 23.764l1.461 1.461" id="LINE-135" data-name="LINE"/><path class="cls-9" d="M341.918 25.225H271.48" id="LINE-136" data-name="LINE"/><path d="M296.479 23.03h-1.394v-8.422l-1.415.868v-1.442l1.415-.944h1.394zM302.256 18.094l-.007.246a1.029 1.029 0 01-.516.462 2.077 2.077 0 01-.817.147 2.189 2.189 0 01-1.251-.363 2.368 2.368 0 01-.838-1.022 3.706 3.706 0 01-.3-1.528v-.006a3.838 3.838 0 01.324-1.648 2.3 2.3 0 01.952-1.039 2.986 2.986 0 011.5-.355 2.922 2.922 0 011.5.362 2.323 2.323 0 01.946 1.053 3.869 3.869 0 01.325 1.661v.007a5.241 5.241 0 01-.136 1.138 6.993 6.993 0 01-.39 1.2l-.082.181a2.335 2.335 0 01-.089.181l-2.119 4.259h-1.5zm.065-.861a1.947 1.947 0 00.359-1.251v-.007a1.852 1.852 0 00-.359-1.217 1.421 1.421 0 00-2.037 0 1.857 1.857 0 00-.359 1.224v.007a1.924 1.924 0 00.359 1.247 1.393 1.393 0 002.037 0zM306.641 22.387a2.862 2.862 0 01-.721-2.078V15.79a2.848 2.848 0 01.725-2.081 3.39 3.39 0 014.228 0 2.859 2.859 0 01.721 2.085v4.519a2.559 2.559 0 01-2.837 2.823 2.812 2.812 0 01-2.116-.749zm3.207-.967a1.6 1.6 0 00.351-1.111V15.79a1.6 1.6 0 00-.348-1.11 1.74 1.74 0 00-2.188 0 1.6 1.6 0 00-.349 1.11v4.519a1.6 1.6 0 00.352 1.111 1.735 1.735 0 002.182 0zM314.365 22.387a2.866 2.866 0 01-.72-2.078V15.79a2.852 2.852 0 01.724-2.081 3.391 3.391 0 014.229 0 2.863 2.863 0 01.72 2.085v4.519a2.558 2.558 0 01-2.837 2.823 2.815 2.815 0 01-2.116-.749zm3.207-.967a1.593 1.593 0 00.352-1.111V15.79a1.6 1.6 0 00-.349-1.11 1.738 1.738 0 00-2.187 0 1.6 1.6 0 00-.349 1.11v4.519a1.593 1.593 0 00.352 1.111 1.733 1.733 0 002.181 0z"/><path class="cls-9" d="M271.48 25.225l1.462-1.461" id="LINE-137" data-name="LINE"/><path class="cls-9" d="M272.942 26.686l-1.462-1.461" id="LINE-138" data-name="LINE"/><path class="cls-9" d="M341.918 25.225l-1.461 1.462" id="LINE-139" data-name="LINE"/><path class="cls-9" d="M340.457 23.764l1.461 1.461" id="LINE-140" data-name="LINE"/><path class="cls-9" d="M346.251 78.058H271.48" id="LINE-141" data-name="LINE"/><path d="M292.5 74.653l3.466-4.621a3.46 3.46 0 00.468-.824 2.181 2.181 0 00.168-.8V68.4a1.209 1.209 0 00-.349-.923 1.392 1.392 0 00-.991-.328 1.371 1.371 0 00-.985.359 1.631 1.631 0 00-.458 1.015v.007h-1.442v-.007a3.727 3.727 0 01.5-1.459 2.566 2.566 0 01.981-.923 2.93 2.93 0 011.388-.318 3.47 3.47 0 011.518.3 2.138 2.138 0 01.957.886 2.813 2.813 0 01.328 1.4v.007a3.079 3.079 0 01-.219 1.1 4.734 4.734 0 01-.608 1.108l-2.878 3.91h3.76v1.326H292.5zM300.6 75.221a2.865 2.865 0 01-.721-2.079v-4.518a2.856 2.856 0 01.724-2.082 3.393 3.393 0 014.229 0 2.862 2.862 0 01.721 2.085v4.518a2.85 2.85 0 01-.725 2.082 3.377 3.377 0 01-4.228 0zm3.207-.968a1.6 1.6 0 00.351-1.111v-4.518a1.6 1.6 0 00-.348-1.111 1.743 1.743 0 00-2.188 0 1.605 1.605 0 00-.349 1.111v4.518a1.6 1.6 0 00.352 1.111 1.731 1.731 0 002.182 0zM307.468 73.129l3.336-7.2h1.435l-3.254 7.116h4.874v1.292h-6.391zm4.286-3.111h1.36v5.852h-1.36zM315.418 74.653l3.466-4.621a3.46 3.46 0 00.468-.824 2.181 2.181 0 00.168-.8V68.4a1.209 1.209 0 00-.349-.923 1.4 1.4 0 00-.991-.328 1.369 1.369 0 00-.985.359 1.631 1.631 0 00-.458 1.015v.007H315.3v-.007a3.727 3.727 0 01.5-1.459 2.566 2.566 0 01.981-.923 2.93 2.93 0 011.388-.318 3.47 3.47 0 011.518.3 2.138 2.138 0 01.957.886 2.813 2.813 0 01.328 1.4v.007a3.079 3.079 0 01-.219 1.1 4.771 4.771 0 01-.608 1.108l-2.878 3.91h3.759v1.326h-5.605z"/><path class="cls-9" d="M271.48 78.058l1.462-1.461" id="LINE-142" data-name="LINE"/><path class="cls-9" d="M272.942 79.519l-1.462-1.461" id="LINE-143" data-name="LINE"/><path class="cls-9" d="M346.251 78.059l-1.461 1.461" id="LINE-144" data-name="LINE"/><path class="cls-9" d="M344.79 76.598l1.461 1.461" id="LINE-145" data-name="LINE"/><path class="cls-9" d="M333.73 100.225h-62.25" id="LINE-146" data-name="LINE"/><path d="M298.4 98.03h-1.39v-8.422l-1.415.868v-1.442l1.415-.944h1.39zM301.727 97.78a2.3 2.3 0 01-.948-1.025 3.718 3.718 0 01-.324-1.624v-.007a5.545 5.545 0 01.13-1.162 6.787 6.787 0 01.376-1.2c.027-.068.057-.136.089-.2s.063-.131.1-.194l2.16-4.28h1.5l-2.537 4.956.007-.246a1.212 1.212 0 01.5-.5 1.579 1.579 0 01.766-.178 2.441 2.441 0 011.326.349 2.176 2.176 0 01.841 1.015 4.05 4.05 0 01.287 1.6v.016a3.791 3.791 0 01-.325 1.641 2.3 2.3 0 01-.949 1.039 3.355 3.355 0 01-3 0zm2.519-1.4a1.726 1.726 0 00.358-1.169v-.007a1.972 1.972 0 00-.375-1.288 1.316 1.316 0 00-1.074-.455 1.133 1.133 0 00-.964.458 2.131 2.131 0 00-.341 1.292v.007a1.7 1.7 0 00.359 1.166 1.475 1.475 0 002.037 0zM309.171 97.79a2.5 2.5 0 01-1.057-.967 2.788 2.788 0 01-.372-1.453v-.164a2.8 2.8 0 01.372-1.4 2.5 2.5 0 011-.991 2.186 2.186 0 01-.844-.831 2.242 2.242 0 01-.318-1.145V90.6a2.642 2.642 0 01.349-1.371 2.362 2.362 0 01.984-.916 3.526 3.526 0 012.953 0 2.371 2.371 0 01.985.916 2.651 2.651 0 01.348 1.371v.239a2.2 2.2 0 01-.325 1.156 2.169 2.169 0 01-.857.82 2.573 2.573 0 011.008.994 2.73 2.73 0 01.379 1.4v.164a2.788 2.788 0 01-.372 1.453 2.5 2.5 0 01-1.056.967 3.848 3.848 0 01-3.172 0zm2.44-1.189a1.386 1.386 0 00.572-.537 1.561 1.561 0 00.2-.8v-.1a1.577 1.577 0 00-.2-.8 1.393 1.393 0 00-.572-.537 2.007 2.007 0 00-1.709 0 1.384 1.384 0 00-.571.54 1.59 1.59 0 00-.2.807v.1a1.538 1.538 0 00.2.793 1.366 1.366 0 00.571.529 2.021 2.021 0 001.709 0zm-.111-4.481a1.254 1.254 0 00.5-.516 1.63 1.63 0 00.178-.773v-.095a1.51 1.51 0 00-.178-.739 1.226 1.226 0 00-.5-.5 1.652 1.652 0 00-1.476 0 1.226 1.226 0 00-.5.5 1.513 1.513 0 00-.178.746v.1a1.582 1.582 0 00.178.762 1.258 1.258 0 00.5.513 1.6 1.6 0 001.476 0zM316.44 97.387a2.866 2.866 0 01-.72-2.078V90.79a2.843 2.843 0 115.674 0v4.519a2.852 2.852 0 01-.725 2.081 3.379 3.379 0 01-4.229 0zm3.207-.967a1.593 1.593 0 00.353-1.111V90.79a1.6 1.6 0 00-.349-1.11 1.738 1.738 0 00-2.187 0 1.6 1.6 0 00-.349 1.11v4.519a1.593 1.593 0 00.352 1.111 1.733 1.733 0 002.181 0z"/><path class="cls-9" d="M271.48 100.225l1.462-1.461" id="LINE-147" data-name="LINE"/><path class="cls-9" d="M272.942 101.686l-1.462-1.461" id="LINE-148" data-name="LINE"/><path class="cls-9" d="M333.73 100.225l-1.461 1.462" id="LINE-149" data-name="LINE"/><path class="cls-9" d="M332.269 98.764l1.461 1.461" id="LINE-150" data-name="LINE"/></g></svg>