<svg xmlns="http://www.w3.org/2000/svg" width="585.74" height="537.77" viewBox="0 0 439.304 403.328"><defs><pattern id="Новый_узор_3" data-name="Новый узор 3" width="35.15" height="35.15" patternTransform="translate(-7.256 -21.209)" patternUnits="userSpaceOnUse"><path class="cls-1" d="M0 0h35.15v35.15H0z"/><path class="cls-2" d="M35.149 35.15h35.15V70.3h-35.15z"/><path class="cls-2" d="M0 35.15h35.15V70.3H0zM-35.15 35.15H0V70.3h-35.15z"/><path class="cls-2" d="M35.149.001h35.15v35.15h-35.15z"/><path class="cls-2" d="M0 .001h35.15v35.15H0zM-35.15.001H0v35.15h-35.15zM35.149-35.149h35.15V.001h-35.15z"/><path class="cls-2" d="M0-35.149h35.15V.001H0zM-35.15-35.149H0V.001h-35.15z"/></pattern><pattern id="Новый_узор_4" data-name="Новый узор 4" width="9.822" height="9.822" patternTransform="translate(-4.109 -8.736)" patternUnits="userSpaceOnUse"><path class="cls-1" d="M0 0h9.822v9.822H0z"/><path class="cls-3" d="M14.733 19.647L9.82 14.735l4.913-4.913 4.912 4.913-4.912 4.912z"/><path class="cls-3" d="M4.911 19.647l-4.913-4.912 4.913-4.913 4.912 4.913-4.912 4.912z"/><path class="cls-3" d="M-4.912 19.647l-4.912-4.912 4.912-4.913 4.913 4.913-4.913 4.912zM14.733 9.825L9.82 4.912 14.733 0l4.912 4.912-4.912 4.913z"/><path class="cls-3" d="M4.911 9.825L-.002 4.912 4.911 0l4.912 4.912-4.912 4.913z"/><path class="cls-3" d="M-4.912 9.825l-4.912-4.913L-4.912 0 .001 4.912l-4.913 4.913zM14.733.003L9.82-4.91l4.913-4.912 4.912 4.912L14.733.003z"/><path class="cls-3" d="M4.911.003L-.002-4.91l4.913-4.912L9.823-4.91 4.911.003z"/><path class="cls-3" d="M-4.912.003L-9.824-4.91l4.912-4.912L.001-4.91-4.912.003z"/></pattern><pattern id="Новый_узор_5" data-name="Новый узор 5" width="22.872" height="23.072" patternTransform="translate(-8.441 -10.048)" patternUnits="userSpaceOnUse"><path class="cls-1" d="M0 0h22.872v23.072H0z"/><path class="cls-4" d="M22.664 17.512v11.12H.208v-11.12h22.456m.108-.108H.1V28.74h22.672V17.4zM22.664 5.976V17.1H.208V5.976h22.456m.108-.108H.1V17.2h22.672V5.868zM22.664-5.56V5.56H.208V-5.56h22.456m.108-.108H.1V5.668h22.672V-5.668z"/></pattern><style>.cls-1,.cls-10,.cls-12,.cls-14,.cls-16,.cls-2,.cls-3,.cls-4,.cls-9{fill:none}.cls-2{stroke:#ededed}.cls-10,.cls-14,.cls-2,.cls-3,.cls-9{stroke-linecap:round;stroke-linejoin:round}.cls-10,.cls-14,.cls-2,.cls-3{stroke-width:.4px}.cls-3,.cls-4{stroke:#e6e6e6}.cls-14,.cls-15,.cls-3,.cls-5{fill-rule:evenodd}.cls-4{stroke-miterlimit:10;stroke-width:.2px}.cls-5{fill:#fff}.cls-10,.cls-12,.cls-14,.cls-9{stroke:#000}.cls-9{stroke-width:.425px}.cls-12,.cls-16{stroke-miterlimit:22.926}.cls-12{stroke-width:.2px}.cls-16{stroke:gray;stroke-width:.6px}</style></defs><g id="_55" data-name="55"><path id="fon" class="cls-5" d="M357.06 67.921V57.294c3.007-6.839 12.8-29.074 15.36-34.326a44.544 44.544 0 00-15.36-3.091V.123h-88.8v13.008H25.863l-.506 283.4.506 42.888h297.946v45.343H414.5v-45.346h13.982V67.921z"/><path stroke="#dcdcdc" fill="url(#Новый_узор_3)" stroke-width=".4" stroke-linecap="round" stroke-linejoin="round" d="M428.478 67.921h-71.417V.283H276.89v12.848H25.863v326.284H323.809v45.344h90.687v-45.343h13.982V67.921z" id="grid"/><g id="wet_zones" data-name="wet zones"><path fill="url(#Новый_узор_4)" d="M187.588 38.266h80.676v67.064h-80.676z"/><path fill="url(#Новый_узор_5)" d="M351.015 92.869h67.637v59.315h-67.637z"/></g><g id="walls"><path class="cls-9" d="M323.809 384.759H414.5m0 0v-45.344m0 0h-90.691m0 0v45.344M413.74 339.416h-89.175m0 0V384m0 0h89.175m0 0v-44.584"/><path class="cls-10" d="M336.09 331.858v-13.603M336.09 339.416v-5.668M402.216 331.858v-13.603M402.216 339.416v-5.668M402.216 339.416H336.09M402.216 318.256H336.09M402.216 339.416v-5.668M402.216 331.858v-13.603M336.09 339.416v-5.668M336.09 331.858v-13.603M336.09 339.416v-21.16M402.226 333.748v-1.889M336.1 333.748v-1.889M336.1 331.859h3.778M339.878 331.859v1.889M339.878 333.748H336.1M367.274 333.748h-1.89M365.384 333.748v-1.889M365.384 331.859h1.89M339.878 332.804h25.506M339.878 331.859h25.506M365.384 333.748h-25.506M367.274 331.859h.945M368.219 331.859v.944M368.219 332.804h.944M369.163 332.804v.943M369.163 333.748h-1.889M402.226 333.748h-3.779M398.447 333.748v-.944M398.447 332.804h.945M399.392 332.804v-.945M399.392 331.859h2.834M399.392 330.914l-22.043-22.043M398.447 333.748h-29.284M371.052 330.914h25.506M368.219 330.914h2.833M371.052 330.914v1.89M371.052 332.804h-2.833M368.219 332.804v-1.891M399.392 332.804h-2.834M396.558 332.804v-1.891M396.558 330.914h2.834M399.392 330.914v1.89M396.558 332.804h-25.506M371.052 330.914h25.506M371.052 331.859h25.506M377.349 308.871a31.175 31.175 0 00-9.13 22.043M336.1 333.748v-1.889M336.1 333.748v-1.889M402.226 333.748v-1.889M402.226 333.748v-1.889"/><path d="M357.061.283v19.574h-1.511v.453h-7.557V.283zM279.222 72.86v32.469h-10.958V72.86zM223.8 24.089h-36.022v92.1h-9.447v-.453h-1.51V24.089H48.913v34.385h-23.05V13.13h88.221v10.959zm-36.022 294.167h14.171v21.159h-90.688v-21.159zm160.214-259.4h7.557v.453h1.511v8.616h71.417v271.49h-26.262v-21.159h16.438V76.99h-70.661V58.852zm-11.9 280.563h-68.017v-21.163h68.015v21.159zM25.863 141.6h23.05v45.345h-23.05z" stroke-miterlimit="3" stroke-width=".5" stroke="#000" fill-rule="evenodd"/><path class="cls-10" d="M336.09 331.858v-13.603M336.09 339.416v-5.668M336.09 333.748v-1.89M402.216 331.858v-13.603M402.216 339.416v-5.668M402.216 333.748v-1.89M402.216 339.416H336.09M402.216 318.256H336.09M402.216 331.858h-3.779M398.437 331.858v1.89M398.437 333.748h3.779M364.429 333.748h1.889M366.319 333.748v-1.89M366.319 331.858h-1.889M398.437 332.803h-32.118M398.437 331.858h-32.118M366.319 333.748h32.118M364.429 331.858h-.945M363.484 331.858v.945M363.484 332.803h-.943M362.54 332.803v.944M362.54 333.748h1.889M336.09 333.748h3.778M339.868 333.748v-.944M339.868 332.803h-.945M338.923 332.803v-.945M338.923 331.858h-2.833M339.868 333.748h22.672M360.65 330.914h-18.892M363.484 330.914h-2.834M360.65 330.914v1.89M360.65 332.803h2.834M363.484 332.803v-1.89M338.923 332.803h2.835M341.758 332.803v-1.89M341.758 330.914h-2.835M338.923 330.914v1.89M341.758 332.803h18.892M360.65 330.914h-18.892M360.65 331.858h-18.892M402.216 333.748v-1.89M402.216 333.748v-1.89M402.216 339.416v-5.668M402.216 331.858v-13.603M336.09 333.748v-1.89M336.09 333.748v-1.89M336.09 339.416v-5.668M336.09 331.858v-13.603M336.09 339.416v-21.16M201.949 331.858v-13.603M201.949 339.416v-5.668M201.949 333.748v-1.89M268.074 331.858v-13.603M268.074 339.416v-5.668M268.074 333.748v-1.89M268.074 339.416h-66.125M268.074 318.256h-66.125M268.074 331.858h-3.779M264.296 331.858v1.89M264.296 333.748h3.779M230.288 333.748h1.89M232.177 333.748v-1.89M232.177 331.858h-1.89M264.296 332.803h-32.118M264.296 331.858h-32.118M232.177 333.748h32.118M230.288 331.858h-.944M229.343 331.858v.945M229.343 332.803h-.945M228.399 332.803v.944M228.399 333.748h1.889M201.949 333.748h3.778M205.727 333.748v-.944M205.727 332.803h-.944M204.782 332.803v-.945M204.782 331.858h-2.833M205.727 333.748h22.672M226.509 330.914h-18.893M229.343 330.914h-2.834M226.509 330.914v1.89M226.509 332.803h2.834M229.343 332.803v-1.89M204.782 332.803h2.834M207.616 332.803v-1.89M207.616 330.914h-2.834M204.782 330.914v1.89M207.616 332.803h18.893M226.509 330.914h-18.893M226.509 331.858h-18.893M268.074 333.748v-1.89M268.074 333.748v-1.89M268.074 339.416v-5.668M268.074 331.858v-13.603M201.949 333.748v-1.89M201.949 333.748v-1.89M201.949 339.416v-5.668M201.949 331.858v-13.603M201.949 318.256v21.16M111.261 331.858v-13.603M111.261 339.416v-5.668M111.261 333.748v-1.89M111.261 339.416H25.864M111.261 318.256H48.913M111.261 331.858h-4.724M106.538 331.858v1.89M106.538 333.748h4.724M33.421 333.748h4.724M38.145 333.748v-1.89M38.145 331.858h-4.723M31.532 333.748h1.889M106.538 331.858H38.145M38.145 333.748h68.393M111.261 333.748v-1.89M111.261 333.748v-1.89M111.261 339.416v-5.668M111.261 331.858v-13.603M33.421 186.948h15.492M25.864 186.948h5.668M31.532 186.948h1.889M25.864 186.948v152.468M48.914 186.948v131.308M33.421 186.948v4.724M33.421 191.672h-1.889M31.532 191.672v-4.725M31.532 331.858v-4.723M31.532 327.135h1.889M33.421 327.135v4.723M31.532 333.748v-1.89M33.421 191.672v135.464M31.532 327.135V191.671M31.532 186.948h1.889M31.532 186.948h1.889M25.864 186.948h5.668M33.421 186.948h15.492M33.421 141.605h15.492M25.864 141.605h5.668M31.532 141.605h1.889M33.421 58.474h15.492M25.864 58.474h5.668M31.532 58.474h1.889M25.864 58.474v83.131M48.914 58.474v83.131M33.421 58.474v3.779M33.421 62.254h-1.889M31.532 62.254v-3.78M31.532 113.264v-1.889M31.532 111.376h1.889M33.421 111.376v1.889M32.477 62.254v49.121M33.421 62.254v49.121M31.532 111.376V62.254M33.421 113.264v.945M33.421 114.21h-.945M32.477 114.21v.944M32.477 115.154h-.944M31.532 115.154v-1.89M31.532 141.605v-3.779M31.532 137.826h.944M32.477 137.826v.945M32.477 138.771h.945M33.421 138.771v2.834M31.532 137.826v-22.672M34.366 117.044v18.893M34.366 114.21v2.834M34.366 117.044h-1.889M32.477 117.044v-2.834M32.477 114.21h1.889M32.477 138.771v-2.835M32.477 135.936h1.889M34.366 135.936v2.835M34.366 138.771h-1.889M32.477 135.936v-18.893M34.366 117.044v18.893M33.421 117.044v18.893M31.532 58.474h1.889M31.532 58.474h1.889M25.864 58.474h5.668M33.421 58.474h15.492M31.532 141.605h1.889M31.532 141.605h1.889M25.864 141.605h5.668M33.421 141.605h15.492M25.864 58.474h23.05"/><path class="cls-12" d="M31.532 269.51h1.889v5.133h-1.889zM31.532 227.003h1.889v5.133h-1.889z"/><path stroke-miterlimit="3" stroke-width=".5" stroke="#000" d="M176.821 183.984h10.958v39h-10.958z"/><path class="cls-14" d="M372.617 23.053a43.267 43.267 0 00-15.556-3.2"/><path class="cls-15" d="M372.719 23.097l-1.387-.6-15.783 36.355v.453h1.512l15.658-36.208z"/><path class="cls-14" d="M340.971 168.118a37.309 37.309 0 002.564-12.911"/><path class="cls-15" d="M340.961 168.218l.573-1.388-28.892-13.134h-.433v1.511l28.752 13.011z"/><path class="cls-14" d="M222.114 167.763a35.282 35.282 0 002.582-12.555"/><path class="cls-15" d="M222.076 167.866l.6-1.388-29.418-12.782h-.454v1.512l29.272 12.658z"/><path class="cls-14" d="M164.255 118.318a34.9 34.9 0 0112.565-2.578"/><path class="cls-15" d="M164.162 118.359l12.658 29.272h1.511v-.454l-12.782-29.418-1.387.6z"/><path class="cls-14" d="M242.28 94.341a30.507 30.507 0 012.253 10.989"/><path class="cls-15" d="M242.239 94.246l-25.63 11.084v1.511h.453l25.777-11.207-.6-1.388z"/><path class="cls-14" d="M381.716 141.117a30.719 30.719 0 012.276 11.067"/><path class="cls-15" d="M381.683 141.026l-25.804 11.158v1.512h.453l25.951-11.282-.6-1.388z"/></g><g id="wall_2" data-name="wall 2"><path class="cls-5" d="M187.778 148.689v-1.512h-9.447v.454h-1.51v36.353h10.957v-28.777h5.022V153.7h.454v-1.512h-5.48v-3.5zm0-110.431v-3.022h80.486V24.089h-154.18V13.13h154.18V.283h79.729v10.959h-46.1V42.6h-22.671v30.26h-10.958v-34.6zm111.092 1.324v-28.34h-19.648v28.34zM187.778 318.256h-10.957v-95.272h10.957v95.272zm240.7-172.118h-.378v-3.022h.379v3.022zm-115.816 6.046v1.516h-.453v1.511h-6.349v163.045h-3.022V155.207H224.7V153.7h-.453v-1.512zm70.849 3.024h35.425v-3.023h-34.971v1.515h-.454v1.512zm-35.519 0h-4.515V153.7h-.454v-1.512h4.969V76.933h3.023v12.9h53.279V76.99h3.023v12.848h11.242v3.022h-67.544v59.324h4.837v1.516h.453v1.512zm-160.214-46.856v-3.022h28.831v1.511h.453v1.511zm56.3 0h57.814v-3.022h-57.36v1.511h-.454z"/><path class="cls-16" d="M116.91 13.13l-2.83 2.49M124.33 13.13l-10.25 9.03M131.76 13.13l-12.44 10.96M139.18 13.13l-12.44 10.96M146.6 13.13l-12.44 10.96M154.02 13.13l-12.44 10.96M161.44 13.13L149 24.09M168.87 13.13l-12.44 10.96M176.29 13.13l-12.44 10.96M183.72 13.13l-12.45 10.96M191.14 13.13L178.7 24.09M198.55 13.13l-12.44 10.96M205.98 13.13l-12.45 10.96M188.3 35.24l-.52.46M213.4 13.13l-12.44 10.96M195.73 35.24l-3.43 3.02M220.82 13.13l-12.44 10.96M203.15 35.24l-3.43 3.02M228.25 13.13l-12.44 10.96M210.57 35.24l-3.42 3.02M235.67 13.13l-12.44 10.96M217.99 35.24l-3.43 3.02M243.09 13.13l-12.44 10.96M225.41 35.24l-3.43 3.02M250.51 13.13l-12.44 10.96M272.52.28l-4.26 3.75M232.83 35.24l-3.42 3.02M257.93 13.13l-12.44 10.96M279.94.28l-11.68 10.29M240.26 35.24l-3.43 3.02M265.36 13.13l-12.44 10.96M287.37.28l-27.03 23.81M247.68 35.24l-3.43 3.02M279.22 14l-11.46 10.09M294.79.28l-12.44 10.96M255.11 35.24l-3.43 3.02M279.22 20.53l-10.96 9.65M302.21.28l-12.44 10.96M262.52 35.24l-3.43 3.02M279.22 27.07l-12.7 11.19M309.63.28l-12.44 10.96M190.38 105.33l-2.6 2.29M279.22 33.61l-10.96 9.65M317.05.28l-12.44 10.96M301.89 13.64l-3.02 2.66M197.8 105.33l-3.43 3.02M279.86 39.58l-11.6 10.22M324.48.28l-12.45 10.96M301.89 20.18l-3.02 2.66M205.23 105.33l-3.43 3.02M287.29 39.58l-3.43 3.02M279.22 46.69l-10.96 9.65M331.9.28l-12.44 10.96M301.89 26.72l-3.02 2.66M212.65 105.33l-3.43 3.02M294.71 39.58l-3.43 3.02M279.22 53.23l-10.96 9.65M339.32.28l-12.44 10.96M301.89 33.26l-3.02 2.66M217.06 107.99l-.41.36M346.75.28l-12.44 10.96M301.89 39.8l-3.18 2.8M279.22 59.77l-10.96 9.65M179.99 147.18l-3.17 2.79M347.99 5.72l-6.27 5.52M279.22 66.3l-7.45 6.56M187.41 147.18l-10.59 9.33M279.22 72.84l-.02.02M189.15 152.18l-12.33 10.87M249.76 105.33l-3.43 3.02M187.78 159.93l-10.96 9.65M187.78 166.47l-10.96 9.65M257.18 105.33l-3.42 3.02M187.78 173.01l-10.96 9.65M264.61 105.33l-3.43 3.02M187.78 179.55l-5.03 4.43M272.03 105.33l-3.43 3.02M226.26 152.18l-1.72 1.52M279.45 105.33l-3.43 3.02M233.69 152.18l-3.44 3.03M286.87 105.33l-3.43 3.02M241.11 152.18l-3.44 3.03M294.29 105.33l-3.43 3.02M301.71 105.33l-3.43 3.02M248.53 152.18l-3.44 3.03M255.96 152.18l-3.44 3.03M348.8 76.93l-.81.71M183.01 222.98l-6.19 5.45M263.38 152.18l-3.44 3.03M351.02 81.51l-3.03 2.67M270.8 152.18l-3.44 3.03M187.78 225.31l-10.96 9.66M187.78 231.85l-10.96 9.65M278.22 152.18l-3.44 3.03M351.02 88.05l-3.03 2.67M351.02 94.59l-3.03 2.67M285.65 152.18l-3.44 3.03M187.78 238.39l-10.96 9.66M356.41 89.84l-3.42 3.02M351.02 101.13l-3.03 2.67M293.07 152.18l-3.44 3.03M187.78 244.93l-10.96 9.65M363.83 89.84l-3.43 3.02M351.02 107.66l-3.03 2.67M187.78 251.47l-10.96 9.65M300.49 152.18l-3.44 3.03M371.25 89.84l-3.43 3.02M351.02 114.2l-3.03 2.67M187.78 258l-10.96 9.66M307.91 152.18l-5.07 4.46M378.67 89.84l-3.42 3.02M351.02 120.74l-3.03 2.67M312.21 154.93l-.32.28M187.78 264.54l-10.96 9.65M305.86 160.52l-3.02 2.66M386.1 89.84l-3.43 3.02M407.32 77.69l-3.03 2.67M351.02 127.28l-3.03 2.67M187.78 271.08l-10.96 9.66M305.86 167.06l-3.02 2.67M393.52 89.84l-3.42 3.02M407.32 84.22l-3.03 2.67M351.02 133.82l-3.03 2.67M187.78 277.62l-10.96 9.66M305.86 173.6l-3.02 2.66M400.94 89.84l-3.42 3.02M351.02 140.35l-3.03 2.67M187.78 284.16l-10.96 9.65M305.86 180.14l-3.02 2.66M408.36 89.84l-3.43 3.02M415.78 89.84l-3.42 3.02M305.86 186.67l-3.02 2.66M187.78 290.69l-10.96 9.66M345.02 152.18l-1.73 1.52M351.02 146.89l-3.03 2.67M352.45 152.18l-3.44 3.03M187.78 297.24l-10.96 9.65M305.86 193.22l-3.02 2.66M187.78 303.78l-10.96 9.65M305.86 199.76l-3.02 2.66M187.78 310.31l-9.02 7.95M305.86 206.29l-3.02 2.66M187.78 316.85l-1.6 1.41M305.86 212.83l-3.02 2.66M305.86 219.37l-3.02 2.66M389.56 152.18l-3.44 3.03M305.86 225.91l-3.02 2.66M396.98 152.18l-3.44 3.03M305.86 232.45l-3.02 2.66M404.4 152.18l-3.44 3.03M305.86 238.98l-3.02 2.66M411.82 152.18l-3.44 3.03M305.86 245.52l-3.02 2.66M305.86 252.07l-3.02 2.66M418.94 152.45l-3.13 2.76M305.86 258.6l-3.02 2.66M305.86 265.14l-3.02 2.66M305.86 271.67l-3.02 2.66M305.86 278.22l-3.02 2.66M305.86 284.76l-3.02 2.66M305.86 291.29l-3.02 2.66M305.86 297.83l-3.02 2.66M305.86 304.37l-3.02 2.66M305.86 310.91l-3.02 2.66M305.86 317.45l-.92.81"/><path d="M187.778 148.689v-1.512h-9.447v.454h-1.51v36.353h10.957v-28.777h5.022V153.7h.454v-1.512h-5.48v-3.5zm0-110.431v-3.022h80.486V24.089h-154.18V13.13h154.18V.283h79.729v10.959h-46.1V42.6h-22.671v30.26h-10.958v-34.6zm111.092 1.324v-28.34h-19.648v28.34zM187.778 318.256h-10.957v-95.272h10.957v95.272zm124.884-166.072v1.516h-.453v1.511h-6.349v163.045h-3.022V155.207H224.7V153.7h-.453v-1.512zm70.849 3.024h35.425v-3.023h-34.971v1.515h-.454v1.512zm-35.519 0h-4.515V153.7h-.454v-1.512h4.969V76.933h3.023v12.9h53.279V76.99h3.023v12.848h11.242v3.022h-67.544v59.324h4.837v1.516h.453v1.512zm-160.214-46.856v-3.022h28.831v1.511h.453v1.511zm56.3 0h57.814v-3.022h-57.36v1.511h-.454z" stroke-width=".567" stroke-miterlimit="22.926" stroke="#000" fill-rule="evenodd" fill="none"/></g></g><g id="sizes"><path class="cls-10" d="M216.609 84.919v21.623" id="LINE"/><path class="cls-10" d="M244.533 84.919v21.623" id="LINE-2" data-name="LINE"/><path class="cls-10" d="M244.533 84.918h-27.924" id="LINE-3" data-name="LINE"/><path d="M221.261 82.483a2.5 2.5 0 01-1.057-.967 2.786 2.786 0 01-.372-1.452V79.9a2.8 2.8 0 01.372-1.4 2.492 2.492 0 011-.991 2.182 2.182 0 01-.845-.831 2.242 2.242 0 01-.318-1.145v-.239a2.654 2.654 0 01.349-1.371 2.368 2.368 0 01.984-.916 3.529 3.529 0 012.954 0 2.374 2.374 0 01.984.916 2.654 2.654 0 01.349 1.371v.239a2.2 2.2 0 01-.326 1.156 2.163 2.163 0 01-.857.82 2.569 2.569 0 011.008.995 2.725 2.725 0 01.38 1.4v.165a2.786 2.786 0 01-.372 1.452 2.5 2.5 0 01-1.057.967 3.848 3.848 0 01-3.172 0zm2.44-1.189a1.38 1.38 0 00.572-.537 1.551 1.551 0 00.2-.8v-.1a1.567 1.567 0 00-.2-.8 1.387 1.387 0 00-.572-.537 2.007 2.007 0 00-1.709 0 1.384 1.384 0 00-.571.54 1.59 1.59 0 00-.2.807v.1a1.538 1.538 0 00.2.793 1.366 1.366 0 00.571.529 1.856 1.856 0 00.855.188 1.837 1.837 0 00.853-.183zm-.116-4.481a1.254 1.254 0 00.5-.516 1.63 1.63 0 00.178-.773v-.095a1.51 1.51 0 00-.178-.739 1.226 1.226 0 00-.5-.5 1.652 1.652 0 00-1.476 0 1.226 1.226 0 00-.5.5 1.513 1.513 0 00-.178.746v.1a1.582 1.582 0 00.178.762 1.252 1.252 0 00.5.513 1.6 1.6 0 001.476 0zM228.531 82.08a2.861 2.861 0 01-.721-2.08v-4.517a2.853 2.853 0 01.724-2.081 3.391 3.391 0 014.229 0 2.863 2.863 0 01.721 2.085V80a2.856 2.856 0 01-.725 2.082 3.379 3.379 0 01-4.228 0zm3.207-.967a1.6 1.6 0 00.351-1.113v-4.517a1.6 1.6 0 00-.348-1.11 1.74 1.74 0 00-2.188 0 1.6 1.6 0 00-.349 1.11V80a1.6 1.6 0 00.352 1.111 1.735 1.735 0 002.182 0zM236.255 82.08a2.865 2.865 0 01-.721-2.08v-4.517a2.854 2.854 0 01.725-2.081 3.391 3.391 0 014.229 0 2.863 2.863 0 01.72 2.085V80a2.856 2.856 0 01-.724 2.082 3.38 3.38 0 01-4.229 0zm3.207-.967a1.591 1.591 0 00.352-1.113v-4.517a1.6 1.6 0 00-.349-1.11 1.738 1.738 0 00-2.187 0 1.6 1.6 0 00-.349 1.11V80a1.591 1.591 0 00.352 1.111 1.733 1.733 0 002.181 0z"/><path class="cls-10" d="M216.609 84.918l1.462-1.461" id="LINE-4" data-name="LINE"/><path class="cls-10" d="M218.071 86.379l-1.462-1.461" id="LINE-5" data-name="LINE"/><path class="cls-10" d="M244.533 84.919l-1.461 1.461" id="LINE-6" data-name="LINE"/><path class="cls-10" d="M243.072 83.458l1.461 1.461" id="LINE-7" data-name="LINE"/><path class="cls-10" d="M355.879 130.561v21.623" id="LINE-8" data-name="LINE"/><path class="cls-10" d="M383.992 130.561v21.623" id="LINE-9" data-name="LINE"/><path class="cls-10" d="M383.992 130.561h-28.113" id="LINE-10" data-name="LINE"/><path d="M360.624 128.126a2.5 2.5 0 01-1.056-.968 2.786 2.786 0 01-.372-1.452v-.164a2.793 2.793 0 01.372-1.4 2.492 2.492 0 011-.992 2.175 2.175 0 01-.845-.831 2.24 2.24 0 01-.317-1.144v-.239a2.651 2.651 0 01.348-1.371 2.364 2.364 0 01.985-.916 3.516 3.516 0 012.953 0 2.356 2.356 0 01.984.916 2.642 2.642 0 01.349 1.371v.239a2.208 2.208 0 01-.325 1.155 2.158 2.158 0 01-.858.82 2.576 2.576 0 011.008 1 2.726 2.726 0 01.38 1.4v.164a2.786 2.786 0 01-.372 1.452 2.5 2.5 0 01-1.057.968 3.848 3.848 0 01-3.172 0zm2.441-1.189a1.386 1.386 0 00.571-.538 1.548 1.548 0 00.2-.8v-.1a1.571 1.571 0 00-.2-.8 1.388 1.388 0 00-.571-.536 2.007 2.007 0 00-1.709 0 1.381 1.381 0 00-.572.54 1.6 1.6 0 00-.2.807v.1a1.545 1.545 0 00.2.793 1.371 1.371 0 00.572.53 1.862 1.862 0 00.854.188 1.841 1.841 0 00.855-.184zm-.116-4.482a1.264 1.264 0 00.5-.515 1.635 1.635 0 00.177-.773v-.1a1.5 1.5 0 00-.177-.738 1.235 1.235 0 00-.5-.5 1.654 1.654 0 00-1.477 0 1.222 1.222 0 00-.5.5 1.517 1.517 0 00-.178.745v.1a1.587 1.587 0 00.178.761 1.246 1.246 0 00.5.513 1.589 1.589 0 001.477 0zM367.894 127.723a2.864 2.864 0 01-.721-2.078v-4.519a2.843 2.843 0 115.674 0v4.519a2.851 2.851 0 01-.725 2.081 3.377 3.377 0 01-4.228 0zm3.207-.968a1.6 1.6 0 00.351-1.11v-4.519a1.607 1.607 0 00-.348-1.111 1.743 1.743 0 00-2.188 0 1.607 1.607 0 00-.348 1.111v4.519a1.6 1.6 0 00.351 1.11 1.731 1.731 0 002.182 0zM375.618 127.723a2.868 2.868 0 01-.72-2.078v-4.519a2.843 2.843 0 115.674 0v4.519a2.855 2.855 0 01-.725 2.081 3.379 3.379 0 01-4.229 0zm3.207-.968a1.59 1.59 0 00.352-1.11v-4.519a1.6 1.6 0 00-.349-1.111 1.742 1.742 0 00-2.187 0 1.6 1.6 0 00-.349 1.111v4.519a1.59 1.59 0 00.352 1.11 1.73 1.73 0 002.181 0z"/><path class="cls-10" d="M355.879 130.561l1.461-1.462" id="LINE-11" data-name="LINE"/><path class="cls-10" d="M357.34 132.022l-1.461-1.461" id="LINE-12" data-name="LINE"/><path class="cls-10" d="M383.992 130.561l-1.461 1.461" id="LINE-13" data-name="LINE"/><path class="cls-10" d="M382.531 129.1l1.461 1.461" id="LINE-14" data-name="LINE"/><path class="cls-10" d="M155.105 147.631h21.623" id="LINE-15" data-name="LINE"/><path class="cls-10" d="M155.105 115.74h21.623" id="LINE-16" data-name="LINE"/><path class="cls-10" d="M155.104 115.74v31.891" id="LINE-17" data-name="LINE"/><path d="M147.973 138.456l.246.007a1.027 1.027 0 01.461.516 2.056 2.056 0 01.147.817 2.2 2.2 0 01-.362 1.251 2.374 2.374 0 01-1.022.838 3.709 3.709 0 01-1.528.3h-.007a3.818 3.818 0 01-1.647-.325 2.278 2.278 0 01-1.039-.951 2.986 2.986 0 01-.356-1.5 2.923 2.923 0 01.363-1.5 2.318 2.318 0 011.053-.946 3.862 3.862 0 011.661-.325h.007a5.233 5.233 0 011.137.136 6.937 6.937 0 011.2.39l.181.082c.062.027.122.057.182.089l4.258 2.119v1.5zm-.861-.065a1.947 1.947 0 00-1.251-.359h-.007a1.85 1.85 0 00-1.217.359 1.419 1.419 0 000 2.037 1.856 1.856 0 001.224.359h.006a1.925 1.925 0 001.248-.359 1.393 1.393 0 000-2.037zM152.266 134.071a2.864 2.864 0 01-2.078.721h-4.519a2.852 2.852 0 01-2.082-.725 3.391 3.391 0 010-4.228 2.858 2.858 0 012.085-.721h4.519a2.849 2.849 0 012.081.725 3.377 3.377 0 010 4.228zm-.968-3.207a1.6 1.6 0 00-1.11-.351h-4.519a1.607 1.607 0 00-1.111.348 1.743 1.743 0 000 2.188 1.607 1.607 0 001.111.349h4.519a1.6 1.6 0 001.11-.352 1.731 1.731 0 000-2.182zM152.266 126.347a2.868 2.868 0 01-2.078.72h-4.519a2.856 2.856 0 01-2.082-.724 3.393 3.393 0 010-4.229 2.861 2.861 0 012.085-.72h4.519a2.853 2.853 0 012.081.724 3.379 3.379 0 010 4.229zm-.968-3.207a1.59 1.59 0 00-1.11-.352h-4.519a1.6 1.6 0 00-1.111.349 1.742 1.742 0 000 2.187 1.6 1.6 0 001.111.349h4.519a1.59 1.59 0 001.11-.352 1.73 1.73 0 000-2.181z"/><path class="cls-10" d="M155.104 147.631l-1.461-1.461" id="LINE-18" data-name="LINE"/><path class="cls-10" d="M156.565 146.17l-1.461 1.461" id="LINE-19" data-name="LINE"/><path class="cls-10" d="M155.105 115.74l1.461 1.461" id="LINE-20" data-name="LINE"/><path class="cls-10" d="M153.643 117.201l1.462-1.461" id="LINE-21" data-name="LINE"/><path class="cls-10" d="M224.697 176.831v-21.623" id="LINE-22" data-name="LINE"/><path class="cls-10" d="M192.804 176.831v-21.623" id="LINE-23" data-name="LINE"/><path class="cls-10" d="M192.804 176.832h31.893" id="LINE-24" data-name="LINE"/><path d="M201.979 183.365l-.007.246a1.024 1.024 0 01-.516.462 2.077 2.077 0 01-.817.147 2.189 2.189 0 01-1.251-.363 2.368 2.368 0 01-.838-1.022 3.7 3.7 0 01-.3-1.527v-.008a3.838 3.838 0 01.324-1.648 2.3 2.3 0 01.952-1.039 2.986 2.986 0 011.5-.355 2.922 2.922 0 011.5.362 2.323 2.323 0 01.946 1.053 3.869 3.869 0 01.325 1.661v.007a5.184 5.184 0 01-.137 1.138 6.9 6.9 0 01-.389 1.2c-.028.059-.055.119-.082.181s-.057.122-.089.181l-2.119 4.259h-1.5zm.065-.861a1.943 1.943 0 00.359-1.251v-.007a1.852 1.852 0 00-.359-1.217 1.421 1.421 0 00-2.037 0 1.857 1.857 0 00-.359 1.224v.007a1.924 1.924 0 00.359 1.247 1.393 1.393 0 002.037 0zM206.364 187.658a2.861 2.861 0 01-.721-2.078v-4.518a2.856 2.856 0 01.724-2.082 3.389 3.389 0 014.229 0 2.862 2.862 0 01.721 2.085v4.518a2.856 2.856 0 01-.725 2.082 3.379 3.379 0 01-4.228 0zm3.207-.967a1.6 1.6 0 00.351-1.111v-4.518a1.6 1.6 0 00-.348-1.111 1.743 1.743 0 00-2.188 0 1.605 1.605 0 00-.349 1.111v4.518a1.6 1.6 0 00.352 1.111 1.735 1.735 0 002.182 0zM214.088 187.658a2.865 2.865 0 01-.721-2.078v-4.518a2.856 2.856 0 01.725-2.082 3.389 3.389 0 014.229 0 2.861 2.861 0 01.72 2.085v4.518a2.856 2.856 0 01-.724 2.082 3.38 3.38 0 01-4.229 0zm3.207-.967a1.591 1.591 0 00.352-1.111v-4.518a1.6 1.6 0 00-.349-1.111 1.742 1.742 0 00-2.187 0 1.6 1.6 0 00-.349 1.111v4.518a1.591 1.591 0 00.352 1.111 1.733 1.733 0 002.181 0z"/><path class="cls-10" d="M224.697 176.831l-1.461 1.461" id="LINE-25" data-name="LINE"/><path class="cls-10" d="M223.236 175.37l1.461 1.461" id="LINE-26" data-name="LINE"/><path class="cls-10" d="M192.804 176.831l1.461-1.461" id="LINE-27" data-name="LINE"/><path class="cls-10" d="M194.265 178.292l-1.461-1.461" id="LINE-28" data-name="LINE"/><path class="cls-10" d="M343.535 176.831v-21.623" id="LINE-29" data-name="LINE"/><path class="cls-10" d="M312.209 176.831v-21.623" id="LINE-30" data-name="LINE"/><path class="cls-10" d="M312.209 176.832h31.326" id="LINE-31" data-name="LINE"/><path d="M321.1 183.428l-.007.246a1.027 1.027 0 01-.516.461 2.074 2.074 0 01-.817.147 2.189 2.189 0 01-1.251-.362 2.374 2.374 0 01-.838-1.022 3.706 3.706 0 01-.3-1.528v-.007a3.818 3.818 0 01.325-1.647 2.283 2.283 0 01.951-1.039 2.986 2.986 0 011.5-.356 2.923 2.923 0 011.5.363 2.321 2.321 0 01.946 1.052 3.876 3.876 0 01.325 1.662v.006a5.25 5.25 0 01-.136 1.139 6.955 6.955 0 01-.39 1.2l-.082.181a2.775 2.775 0 01-.089.182l-2.119 4.258h-1.5zm.065-.862a1.943 1.943 0 00.359-1.251v-.006a1.852 1.852 0 00-.359-1.217 1.419 1.419 0 00-2.037 0 1.856 1.856 0 00-.359 1.223v.007a1.925 1.925 0 00.359 1.248 1.392 1.392 0 002.037 0zM325.485 187.721a2.864 2.864 0 01-.721-2.078v-4.519a2.843 2.843 0 115.674 0v4.519a2.559 2.559 0 01-2.837 2.823 2.816 2.816 0 01-2.116-.745zm3.207-.968a1.593 1.593 0 00.351-1.11v-4.519a1.607 1.607 0 00-.348-1.111 1.743 1.743 0 00-2.188 0 1.607 1.607 0 00-.349 1.111v4.519a1.593 1.593 0 00.352 1.11 1.731 1.731 0 002.182 0zM333.209 187.721a2.868 2.868 0 01-.72-2.078v-4.519a2.852 2.852 0 01.724-2.081 3.391 3.391 0 014.229 0 2.861 2.861 0 01.72 2.085v4.519a2.558 2.558 0 01-2.837 2.823 2.819 2.819 0 01-2.116-.749zm3.207-.968a1.589 1.589 0 00.352-1.11v-4.519a1.6 1.6 0 00-.349-1.111 1.742 1.742 0 00-2.187 0 1.6 1.6 0 00-.349 1.111v4.519a1.589 1.589 0 00.352 1.11 1.73 1.73 0 002.181 0z"/><path class="cls-10" d="M343.535 176.831l-1.461 1.461" id="LINE-32" data-name="LINE"/><path class="cls-10" d="M342.074 175.37l1.461 1.461" id="LINE-33" data-name="LINE"/><path class="cls-10" d="M312.209 176.831l1.461-1.461" id="LINE-34" data-name="LINE"/><path class="cls-10" d="M313.67 178.292l-1.461-1.461" id="LINE-35" data-name="LINE"/><path class="cls-10" d="M176.821 48.048H48.914" id="LINE-36" data-name="LINE"/><path d="M100.381 45.956l-.636-.3a2.52 2.52 0 01-1.022-.882 3.182 3.182 0 01-.488-1.391h1.422a1.494 1.494 0 00.266.7 1.244 1.244 0 00.53.407 1.992 1.992 0 00.762.133 1.483 1.483 0 001.073-.369 1.376 1.376 0 00.383-1.039v-.3a1.678 1.678 0 00-.362-1.152 1.3 1.3 0 00-1.026-.406h-.7v-1.334h.7a1.168 1.168 0 00.9-.349 1.4 1.4 0 00.321-.984v-.308a1.188 1.188 0 00-.339-.909 1.333 1.333 0 00-.96-.322 1.455 1.455 0 00-.635.134 1.207 1.207 0 00-.475.41 1.846 1.846 0 00-.284.694H98.4a3.626 3.626 0 01.515-1.4 2.541 2.541 0 01.961-.882 2.867 2.867 0 011.333-.3 2.758 2.758 0 011.99.676 2.525 2.525 0 01.7 1.908v.164a2.145 2.145 0 01-.4 1.3 2.265 2.265 0 01-1.141.807 2.018 2.018 0 011.26.8 2.643 2.643 0 01.449 1.586v.164a3.063 3.063 0 01-.335 1.483 2.22 2.22 0 01-.975.937 3.4 3.4 0 01-1.541.321zM105.911 43.119l3.336-7.2h1.436l-3.254 7.116h4.871v1.292h-6.392zm4.287-3.11h1.36v5.851H110.2zM115.748 45.956l-.635-.3a2.516 2.516 0 01-1.023-.882 3.182 3.182 0 01-.488-1.391h1.422a1.5 1.5 0 00.266.7 1.241 1.241 0 00.531.407 1.983 1.983 0 00.761.133 1.485 1.485 0 001.074-.369 1.379 1.379 0 00.382-1.039v-.3a1.678 1.678 0 00-.362-1.152 1.3 1.3 0 00-1.025-.406h-.7v-1.334h.7a1.167 1.167 0 00.9-.349 1.4 1.4 0 00.321-.984v-.308a1.188 1.188 0 00-.339-.909 1.331 1.331 0 00-.96-.322 1.455 1.455 0 00-.635.134 1.207 1.207 0 00-.475.41 1.862 1.862 0 00-.284.694h-1.415a3.626 3.626 0 01.516-1.4 2.531 2.531 0 01.96-.882 2.87 2.87 0 011.333-.3 2.758 2.758 0 011.99.676 2.525 2.525 0 01.7 1.908v.164a2.151 2.151 0 01-.4 1.3 2.272 2.272 0 01-1.142.807 2.023 2.023 0 011.261.8 2.649 2.649 0 01.448 1.586v.164a3.051 3.051 0 01-.33 1.488 2.22 2.22 0 01-.975.937 3.4 3.4 0 01-1.541.321zM122.136 45.211a2.867 2.867 0 01-.721-2.078v-4.519a2.852 2.852 0 01.725-2.081 3.39 3.39 0 014.228 0 2.859 2.859 0 01.721 2.085v4.519a2.558 2.558 0 01-2.837 2.823 2.814 2.814 0 01-2.116-.749zm3.207-.967a1.6 1.6 0 00.352-1.111v-4.519a1.607 1.607 0 00-.349-1.111 1.743 1.743 0 00-2.188 0 1.607 1.607 0 00-.348 1.111v4.519a1.6 1.6 0 00.351 1.111 1.735 1.735 0 002.182 0z"/><path class="cls-10" d="M48.914 48.048l1.461-1.461" id="LINE-37" data-name="LINE"/><path class="cls-10" d="M50.375 49.51l-1.461-1.462" id="LINE-38" data-name="LINE"/><path class="cls-10" d="M176.821 48.049l-1.462 1.461" id="LINE-39" data-name="LINE"/><path class="cls-10" d="M175.359 46.588l1.462 1.461" id="LINE-40" data-name="LINE"/><path class="cls-10" d="M268.264 48.048h-80.246" id="LINE-41" data-name="LINE"/><path d="M216.882 59.477l3.466-4.621a3.479 3.479 0 00.468-.824 2.19 2.19 0 00.168-.8v-.013a1.208 1.208 0 00-.349-.923 1.388 1.388 0 00-.991-.328 1.371 1.371 0 00-.985.359 1.629 1.629 0 00-.458 1.015v.007h-1.442v-.007a3.721 3.721 0 01.5-1.459 2.559 2.559 0 01.981-.923 2.93 2.93 0 011.388-.318 3.456 3.456 0 011.518.3 2.136 2.136 0 01.957.885 2.808 2.808 0 01.328 1.4v.007a3.084 3.084 0 01-.219 1.1 4.673 4.673 0 01-.608 1.107l-2.878 3.91h3.76v1.327h-5.606zM226.664 60.687h-1.394v-8.422l-1.415.868V51.69l1.415-.943h1.394zM231.32 60.687h-1.395v-8.422l-1.415.868V51.69l1.415-.943h1.395zM234.3 60.044a2.865 2.865 0 01-.721-2.078v-4.519a2.854 2.854 0 01.725-2.081 3.391 3.391 0 014.229 0 2.864 2.864 0 01.72 2.085v4.519a2.856 2.856 0 01-.724 2.082 3.38 3.38 0 01-4.229 0zm3.207-.967a1.593 1.593 0 00.352-1.111v-4.519a1.6 1.6 0 00-.349-1.11 1.738 1.738 0 00-2.187 0 1.6 1.6 0 00-.349 1.11v4.519a1.593 1.593 0 00.352 1.111 1.733 1.733 0 002.181 0z"/><path class="cls-10" d="M188.018 48.048l1.461-1.461" id="LINE-42" data-name="LINE"/><path class="cls-10" d="M189.479 49.51l-1.461-1.462" id="LINE-43" data-name="LINE"/><path class="cls-10" d="M268.264 48.049l-1.462 1.461" id="LINE-44" data-name="LINE"/><path class="cls-10" d="M266.802 46.588l1.462 1.461" id="LINE-45" data-name="LINE"/><path class="cls-10" d="M347.993 114.624H188.018" id="LINE-46" data-name="LINE"/><path d="M213.632 124.528l3.336-7.2h1.432l-3.254 7.116h4.874v1.292h-6.392zm4.286-3.11h1.361v5.852h-1.361zM221.582 126.053l3.466-4.621a3.426 3.426 0 00.468-.824 2.185 2.185 0 00.168-.8v-.008a1.2 1.2 0 00-.349-.923 1.388 1.388 0 00-.991-.328 1.368 1.368 0 00-.984.359 1.623 1.623 0 00-.458 1.015v.007h-1.443v-.007a3.731 3.731 0 01.5-1.46 2.559 2.559 0 01.982-.922 2.923 2.923 0 011.387-.318 3.456 3.456 0 011.518.3 2.141 2.141 0 01.957.885 2.806 2.806 0 01.328 1.4v.006a3.088 3.088 0 01-.219 1.1 4.673 4.673 0 01-.608 1.107l-2.878 3.911h3.76v1.326h-5.606zM230.291 127.023a2.5 2.5 0 01-1.056-.967 2.786 2.786 0 01-.372-1.452v-.164a2.8 2.8 0 01.372-1.4 2.5 2.5 0 01.995-.991 2.175 2.175 0 01-.845-.831 2.241 2.241 0 01-.317-1.145v-.239a2.657 2.657 0 01.348-1.371 2.371 2.371 0 01.985-.916 3.526 3.526 0 012.953 0 2.362 2.362 0 01.984.916 2.647 2.647 0 01.349 1.371v.239a2.212 2.212 0 01-.325 1.156 2.165 2.165 0 01-.858.82 2.569 2.569 0 011.008 1 2.726 2.726 0 01.38 1.4v.164a2.786 2.786 0 01-.372 1.452 2.5 2.5 0 01-1.057.967 3.848 3.848 0 01-3.172 0zm2.441-1.189a1.384 1.384 0 00.571-.537 1.551 1.551 0 00.2-.8v-.1a1.567 1.567 0 00-.2-.8 1.39 1.39 0 00-.571-.537 2.007 2.007 0 00-1.709 0 1.383 1.383 0 00-.572.541 1.593 1.593 0 00-.2.806v.1a1.547 1.547 0 00.2.793 1.368 1.368 0 00.572.529 2.021 2.021 0 001.709 0zm-.116-4.481a1.266 1.266 0 00.5-.516 1.628 1.628 0 00.177-.772v-.1a1.5 1.5 0 00-.177-.738 1.235 1.235 0 00-.5-.5 1.654 1.654 0 00-1.477 0 1.222 1.222 0 00-.5.5 1.517 1.517 0 00-.178.745v.1a1.593 1.593 0 00.178.762 1.252 1.252 0 00.5.513 1.6 1.6 0 001.477 0zM237.561 126.62a2.861 2.861 0 01-.721-2.078v-4.519a2.849 2.849 0 01.725-2.081 3.388 3.388 0 014.228 0 2.857 2.857 0 01.721 2.084v4.519a2.852 2.852 0 01-.725 2.082 3.379 3.379 0 01-4.228 0zm3.207-.967a1.6 1.6 0 00.351-1.111v-4.519a1.6 1.6 0 00-.348-1.11 1.74 1.74 0 00-2.188 0 1.6 1.6 0 00-.348 1.11v4.519a1.6 1.6 0 00.351 1.111 1.735 1.735 0 002.182 0z"/><path class="cls-10" d="M188.018 114.624l1.461-1.461" id="LINE-47" data-name="LINE"/><path class="cls-10" d="M189.479 116.086l-1.461-1.462" id="LINE-48" data-name="LINE"/><path class="cls-10" d="M347.992 114.625l-1.461 1.461" id="LINE-49" data-name="LINE"/><path class="cls-10" d="M346.531 113.164l1.461 1.461" id="LINE-50" data-name="LINE"/><path class="cls-10" d="M77.136 24.265v293.991" id="LINE-51" data-name="LINE"/><path d="M65.871 180.236l8.7 2.571v1.483l-8.613-2.57v2.529h1.429v1.4h-2.76v-5.408zM74.327 177a2.5 2.5 0 01-.967 1.057 2.79 2.79 0 01-1.453.372h-.164a2.793 2.793 0 01-1.4-.372 2.5 2.5 0 01-.992-1 2.176 2.176 0 01-.83.844 2.242 2.242 0 01-1.145.318h-.239a2.642 2.642 0 01-1.371-.349 2.356 2.356 0 01-.916-.984 3.516 3.516 0 010-2.953 2.364 2.364 0 01.916-.985 2.651 2.651 0 011.371-.348h.239a2.2 2.2 0 011.155.325 2.162 2.162 0 01.82.857 2.576 2.576 0 011-1.008 2.734 2.734 0 011.4-.379h.164a2.79 2.79 0 011.453.372 2.5 2.5 0 01.967 1.056 3.848 3.848 0 010 3.172zm-5.67-2.324a1.25 1.25 0 00-.517-.5 1.628 1.628 0 00-.772-.178h-.1a1.5 1.5 0 00-.738.178 1.235 1.235 0 00-.5.5 1.652 1.652 0 000 1.476 1.243 1.243 0 00.5.5 1.517 1.517 0 00.745.177h.1a1.593 1.593 0 00.762-.177 1.267 1.267 0 00.513-.5 1.6 1.6 0 000-1.476zm4.48-.116a1.384 1.384 0 00-.536-.572 1.565 1.565 0 00-.8-.2h-.095a1.577 1.577 0 00-.8.2 1.386 1.386 0 00-.537.572 2.007 2.007 0 000 1.709 1.378 1.378 0 00.54.571 1.585 1.585 0 00.807.2h.1a1.535 1.535 0 00.793-.2 1.374 1.374 0 00.53-.571 1.866 1.866 0 00.188-.855 1.825 1.825 0 00-.19-.858zM73.924 169.727a2.868 2.868 0 01-2.078.72h-4.519a2.856 2.856 0 01-2.082-.724 3.393 3.393 0 010-4.229 2.862 2.862 0 012.085-.721h4.519a2.854 2.854 0 012.081.725 3.379 3.379 0 010 4.229zm-.968-3.207a1.59 1.59 0 00-1.11-.352h-4.519a1.6 1.6 0 00-1.111.349 1.742 1.742 0 000 2.187 1.6 1.6 0 001.111.349h4.519a1.59 1.59 0 001.11-.352 1.73 1.73 0 000-2.181zM74.375 161.283a2.407 2.407 0 01-.855.951 3.385 3.385 0 01-1.346.489h-.007v-1.4h.007a1.3 1.3 0 00.851-.437 1.423 1.423 0 00.3-.944 1.261 1.261 0 00-.448-1.035 1.941 1.941 0 00-1.261-.366h-.834a1.928 1.928 0 00-1.254.366 1.259 1.259 0 00-.448 1.035 1.317 1.317 0 00.2.7 1.95 1.95 0 00.574.587v1.271h-5.227v-5.065h1.326v3.67h2.235a1.979 1.979 0 01-.328-.581 1.917 1.917 0 01-.116-.656 2.9 2.9 0 01.356-1.468 2.287 2.287 0 011.039-.929 3.9 3.9 0 011.648-.318h.834a3.773 3.773 0 011.647.329 2.32 2.32 0 011.043.957 3 3 0 01.359 1.51 2.928 2.928 0 01-.295 1.334z"/><path class="cls-10" d="M77.136 318.256l-1.461-1.461" id="LINE-52" data-name="LINE"/><path class="cls-10" d="M78.597 316.795l-1.461 1.461" id="LINE-53" data-name="LINE"/><path class="cls-10" d="M77.137 24.265l1.461 1.462" id="LINE-54" data-name="LINE"/><path class="cls-10" d="M75.676 25.727l1.461-1.462" id="LINE-55" data-name="LINE"/><path class="cls-10" d="M347.992 106.89h-46.098" id="LINE-56" data-name="LINE"/><path d="M314.751 104.7h-1.394v-8.427l-1.415.869V95.7l1.415-.943h1.394zM316.857 103.485l3.466-4.621a3.435 3.435 0 00.467-.823 2.169 2.169 0 00.168-.8v-.013a1.205 1.205 0 00-.348-.923 1.392 1.392 0 00-.992-.328 1.368 1.368 0 00-.984.358 1.634 1.634 0 00-.458 1.016v.006h-1.442v-.006a3.726 3.726 0 01.5-1.46 2.566 2.566 0 01.981-.923 2.924 2.924 0 011.388-.318 3.451 3.451 0 011.517.3 2.131 2.131 0 01.957.885 2.8 2.8 0 01.329 1.4v.007a3.11 3.11 0 01-.219 1.1 4.733 4.733 0 01-.609 1.107l-2.878 3.91h3.76v1.341h-5.6zM325.679 104.5a2.407 2.407 0 01-.951-.855 3.4 3.4 0 01-.488-1.346v.001h1.394v.007a1.291 1.291 0 00.438.851 1.419 1.419 0 00.943.3 1.259 1.259 0 001.035-.448 1.939 1.939 0 00.366-1.261v-.834a1.928 1.928 0 00-.366-1.254 1.259 1.259 0 00-1.035-.448 1.314 1.314 0 00-.7.205 1.953 1.953 0 00-.588.574h-1.272v-5.236h5.066v1.326h-3.671v2.235a1.992 1.992 0 01.581-.328 1.922 1.922 0 01.656-.116 2.889 2.889 0 011.474.356 2.272 2.272 0 01.929 1.039 3.9 3.9 0 01.318 1.647v.834a3.792 3.792 0 01-.328 1.648 2.329 2.329 0 01-.957 1.042 3 3 0 01-1.511.359 2.931 2.931 0 01-1.333-.298zM332.582 104.053a2.868 2.868 0 01-.72-2.078v-4.519a2.843 2.843 0 115.673 0v4.519a2.852 2.852 0 01-.724 2.081 3.379 3.379 0 01-4.229 0zm3.207-.968a1.589 1.589 0 00.352-1.11v-4.519a1.6 1.6 0 00-.349-1.111 1.742 1.742 0 00-2.187 0 1.6 1.6 0 00-.349 1.111v4.519a1.589 1.589 0 00.352 1.11 1.73 1.73 0 002.181 0z"/><path class="cls-10" d="M301.894 106.89l1.461-1.461" id="LINE-57" data-name="LINE"/><path class="cls-10" d="M303.355 108.352l-1.461-1.462" id="LINE-58" data-name="LINE"/><path class="cls-10" d="M347.992 106.891l-1.461 1.461" id="LINE-59" data-name="LINE"/><path class="cls-10" d="M346.531 105.43l1.461 1.461" id="LINE-60" data-name="LINE"/><path class="cls-10" d="M418.559 106.89h-67.544" id="LINE-61" data-name="LINE"/><path d="M374.933 104.7h-1.395v-8.427l-1.415.869V95.7l1.415-.943h1.395zM382.323 96l-2.571 8.695h-1.483l2.57-8.613h-2.529v1.429h-1.395v-2.755h5.408zM384.086 103.485l3.466-4.621a3.474 3.474 0 00.468-.823 2.19 2.19 0 00.168-.8v-.013a1.2 1.2 0 00-.349-.923 1.388 1.388 0 00-.991-.328 1.368 1.368 0 00-.984.358 1.629 1.629 0 00-.458 1.016v.006h-1.443v-.006a3.726 3.726 0 01.5-1.46 2.562 2.562 0 01.982-.923 2.923 2.923 0 011.387-.318 3.456 3.456 0 011.518.3 2.136 2.136 0 01.957.885 2.8 2.8 0 01.328 1.4v.007a3.088 3.088 0 01-.219 1.1 4.692 4.692 0 01-.608 1.107l-2.878 3.91h3.76v1.341h-5.606zM392.908 104.5a2.413 2.413 0 01-.951-.855 3.4 3.4 0 01-.488-1.346v.001h1.395v.007a1.29 1.29 0 00.437.851 1.42 1.42 0 00.943.3 1.261 1.261 0 001.036-.448 1.939 1.939 0 00.366-1.261v-.834a1.928 1.928 0 00-.366-1.254 1.261 1.261 0 00-1.036-.448 1.316 1.316 0 00-.7.205 1.964 1.964 0 00-.588.574h-1.271v-5.236h5.065v1.326h-3.671v2.235a2 2 0 01.581-.328 1.927 1.927 0 01.657-.116 2.885 2.885 0 011.473.356 2.279 2.279 0 01.93 1.039 3.9 3.9 0 01.317 1.647v.834a3.778 3.778 0 01-.328 1.648 2.329 2.329 0 01-.957 1.042 3 3 0 01-1.511.359 2.931 2.931 0 01-1.333-.298z"/><path class="cls-10" d="M351.015 106.89l1.461-1.461" id="LINE-62" data-name="LINE"/><path class="cls-10" d="M352.476 108.352l-1.461-1.462" id="LINE-63" data-name="LINE"/><path class="cls-10" d="M418.559 106.891l-1.462 1.461" id="LINE-64" data-name="LINE"/><path class="cls-10" d="M417.097 105.43l1.462 1.461" id="LINE-65" data-name="LINE"/><path class="cls-10" d="M288.693 155.207V318.01" id="LINE-66" data-name="LINE"/><path d="M283.388 249.594l-7.2-3.336v-1.436l7.115 3.254V243.2h1.297v6.392zm-3.109-4.286v-1.361h5.851v1.361zM286.226 239.757l-.305.636a2.512 2.512 0 01-.882 1.022 3.178 3.178 0 01-1.391.488v-1.422a1.494 1.494 0 00.7-.266 1.236 1.236 0 00.407-.53 1.992 1.992 0 00.134-.762 1.483 1.483 0 00-.369-1.073 1.378 1.378 0 00-1.039-.383h-.3a1.677 1.677 0 00-1.152.362 1.3 1.3 0 00-.407 1.026v.7h-1.326v-.7a1.168 1.168 0 00-.349-.9 1.4 1.4 0 00-.985-.321h-.306a1.193 1.193 0 00-.911.339 1.341 1.341 0 00-.32.96 1.454 1.454 0 00.133.635 1.215 1.215 0 00.41.475 1.853 1.853 0 00.694.284v1.415a3.638 3.638 0 01-1.4-.515 2.53 2.53 0 01-.881-.961 2.855 2.855 0 01-.3-1.333 2.758 2.758 0 01.676-1.99 2.525 2.525 0 011.908-.7h.164a2.148 2.148 0 011.3.4 2.277 2.277 0 01.807 1.141 2.017 2.017 0 01.8-1.26 2.645 2.645 0 011.586-.449h.164a3.067 3.067 0 011.484.335 2.212 2.212 0 01.936.975 3.4 3.4 0 01.322 1.541zM286.122 231.69v1.4H277.7l.87 1.415h-1.444l-.943-1.415v-1.4zM285.48 228.714a2.867 2.867 0 01-2.078.721h-4.518a2.854 2.854 0 01-2.082-.725 3.391 3.391 0 010-4.229 2.864 2.864 0 012.086-.72h4.512a2.558 2.558 0 012.824 2.837 2.816 2.816 0 01-.744 2.116zm-.967-3.207a1.6 1.6 0 00-1.111-.352h-4.518a1.607 1.607 0 00-1.111.349 1.738 1.738 0 000 2.187 1.6 1.6 0 001.111.349h4.516a1.6 1.6 0 001.111-.351 1.731 1.731 0 000-2.182z"/><path class="cls-10" d="M288.693 318.01l-1.461-1.462" id="LINE-67" data-name="LINE"/><path class="cls-10" d="M290.154 316.548l-1.461 1.462" id="LINE-68" data-name="LINE"/><path class="cls-10" d="M288.693 155.207l1.462 1.462" id="LINE-69" data-name="LINE"/><path class="cls-10" d="M287.232 156.669l1.461-1.462" id="LINE-70" data-name="LINE"/><path class="cls-10" d="M404.796 155.207V318.01" id="LINE-71" data-name="LINE"/><path d="M399.491 249.594l-7.2-3.336v-1.436l7.116 3.254V243.2h1.293v6.392zm-3.11-4.286v-1.361h5.852v1.361zM402.328 239.757l-.3.636a2.5 2.5 0 01-.882 1.022 3.182 3.182 0 01-1.391.488v-1.422a1.507 1.507 0 00.7-.266 1.25 1.25 0 00.406-.53 1.992 1.992 0 00.134-.762 1.479 1.479 0 00-.37-1.073 1.376 1.376 0 00-1.039-.383h-.3a1.681 1.681 0 00-1.153.362 1.3 1.3 0 00-.406 1.026v.7H396.4v-.7a1.164 1.164 0 00-.349-.9 1.4 1.4 0 00-.984-.321h-.308a1.188 1.188 0 00-.909.339 1.333 1.333 0 00-.321.96 1.454 1.454 0 00.133.635 1.2 1.2 0 00.41.475 1.846 1.846 0 00.694.284v1.415a3.626 3.626 0 01-1.4-.515 2.53 2.53 0 01-.881-.961 2.843 2.843 0 01-.3-1.333 2.754 2.754 0 01.677-1.99 2.522 2.522 0 011.907-.7h.164a2.148 2.148 0 011.3.4 2.275 2.275 0 01.806 1.141 2.018 2.018 0 01.8-1.26 2.645 2.645 0 011.586-.449h.164a3.072 3.072 0 011.484.335 2.218 2.218 0 01.936.975 3.4 3.4 0 01.321 1.541zM402.226 231.69v1.4H393.8l.868 1.415h-1.438l-.944-1.415v-1.4zM401.583 228.714a2.867 2.867 0 01-2.078.721h-4.518a2.854 2.854 0 01-2.082-.725 3.389 3.389 0 010-4.229 2.86 2.86 0 012.085-.72h4.518a2.558 2.558 0 012.823 2.837 2.819 2.819 0 01-.748 2.116zm-.967-3.207a1.6 1.6 0 00-1.111-.352h-4.518a1.608 1.608 0 00-1.112.349 1.745 1.745 0 000 2.187 1.6 1.6 0 001.112.349h4.518a1.6 1.6 0 001.111-.351 1.735 1.735 0 000-2.182z"/><path class="cls-10" d="M404.796 318.01l-1.462-1.462" id="LINE-72" data-name="LINE"/><path class="cls-10" d="M406.257 316.548l-1.461 1.462" id="LINE-73" data-name="LINE"/><path class="cls-10" d="M404.796 155.207l1.462 1.462" id="LINE-74" data-name="LINE"/><path class="cls-10" d="M403.335 156.669l1.461-1.462" id="LINE-75" data-name="LINE"/><path class="cls-10" d="M404.796 92.869v59.315" id="LINE-76" data-name="LINE"/><path d="M402.226 137.482v1.4H393.8l.868 1.415h-1.438l-.944-1.415v-1.4zM401.976 134.16a2.279 2.279 0 01-1.026.947 3.713 3.713 0 01-1.623.325h-.006a5.547 5.547 0 01-1.163-.13 6.761 6.761 0 01-1.2-.376 3.026 3.026 0 01-.2-.089l-.194-.1-4.28-2.16v-1.5l4.956 2.536-.246-.007a1.2 1.2 0 01-.5-.5 1.572 1.572 0 01-.177-.765 2.44 2.44 0 01.348-1.326 2.181 2.181 0 011.015-.841 4.026 4.026 0 011.6-.287h.007a3.791 3.791 0 011.641.325 2.3 2.3 0 011.039.949 3.355 3.355 0 010 3zm-1.4-2.519a1.721 1.721 0 00-1.169-.359h-.007a1.967 1.967 0 00-1.289.376 1.315 1.315 0 00-.455 1.073 1.131 1.131 0 00.458.964 2.124 2.124 0 001.292.342h.007a1.7 1.7 0 001.165-.359 1.471 1.471 0 000-2.037zM401.583 127.321a2.862 2.862 0 01-2.078.721h-4.518a2.85 2.85 0 01-2.082-.725 3.388 3.388 0 010-4.228 2.856 2.856 0 012.085-.721h4.518a2.559 2.559 0 012.823 2.837 2.816 2.816 0 01-.748 2.116zm-.967-3.207a1.6 1.6 0 00-1.111-.351h-4.518a1.608 1.608 0 00-1.112.348 1.747 1.747 0 000 2.188 1.608 1.608 0 001.112.349h4.518a1.6 1.6 0 001.111-.352 1.735 1.735 0 000-2.182zM401.583 119.6a2.866 2.866 0 01-2.078.72h-4.518a2.854 2.854 0 01-2.082-.724 3.389 3.389 0 010-4.229 2.86 2.86 0 012.085-.72h4.518a2.558 2.558 0 012.823 2.837 2.819 2.819 0 01-.748 2.116zm-.967-3.207a1.591 1.591 0 00-1.111-.352h-4.518a1.6 1.6 0 00-1.112.349 1.745 1.745 0 000 2.187 1.6 1.6 0 001.112.349h4.518a1.591 1.591 0 001.111-.352 1.733 1.733 0 000-2.181z"/><path class="cls-10" d="M404.796 152.184l-1.462-1.461" id="LINE-77" data-name="LINE"/><path class="cls-10" d="M406.257 150.723l-1.461 1.461" id="LINE-78" data-name="LINE"/><path class="cls-10" d="M404.796 92.869l1.462 1.461" id="LINE-79" data-name="LINE"/><path class="cls-10" d="M403.335 94.33l1.461-1.461" id="LINE-80" data-name="LINE"/><path class="cls-10" d="M203.844 38.258v67.071" id="LINE-81" data-name="LINE"/><path d="M201.274 81.56v1.394h-8.422l.868 1.415h-1.442l-.944-1.415V81.56zM192.578 74.17l8.7 2.57v1.484l-8.614-2.571v2.53h1.429v1.394h-2.755V74.17zM192.578 67.122l8.7 2.57v1.484l-8.614-2.57v2.529h1.429v1.394h-2.755v-5.407zM201.082 63.769a2.4 2.4 0 01-.854.951 3.4 3.4 0 01-1.347.488h-.007v-1.394h.007a1.3 1.3 0 00.852-.438 1.42 1.42 0 00.3-.943 1.259 1.259 0 00-.447-1.035 1.939 1.939 0 00-1.262-.367h-.834a1.919 1.919 0 00-1.253.367 1.258 1.258 0 00-.449 1.035 1.325 1.325 0 00.205.7 1.957 1.957 0 00.575.588v1.271h-5.237v-5.068h1.326V63.6h2.243a1.992 1.992 0 01-.328-.581 1.928 1.928 0 01-.117-.657 2.9 2.9 0 01.356-1.473 2.289 2.289 0 011.039-.93 3.9 3.9 0 011.647-.317h.834a3.775 3.775 0 011.648.328 2.326 2.326 0 011.043.957 3 3 0 01.358 1.511 2.918 2.918 0 01-.298 1.331z"/><path class="cls-10" d="M203.844 105.329l-1.461-1.461" id="LINE-82" data-name="LINE"/><path class="cls-10" d="M205.305 103.868l-1.461 1.461" id="LINE-83" data-name="LINE"/><path class="cls-10" d="M203.844 38.258l1.462 1.462" id="LINE-84" data-name="LINE"/><path class="cls-10" d="M202.383 39.72l1.461-1.462" id="LINE-85" data-name="LINE"/><path class="cls-10" d="M296.51 42.604v62.725" id="LINE-86" data-name="LINE"/><path d="M293.941 81.966v1.394h-8.422l.868 1.415h-1.442L284 83.36v-1.394zM293.691 78.644a2.285 2.285 0 01-1.026.947 3.713 3.713 0 01-1.623.324h-.007a5.545 5.545 0 01-1.162-.13 6.761 6.761 0 01-1.2-.376c-.068-.027-.136-.056-.2-.089s-.131-.063-.194-.095L284 77.065v-1.5l4.956 2.536-.246-.007a1.189 1.189 0 01-.5-.5 1.579 1.579 0 01-.178-.766 2.443 2.443 0 01.349-1.326 2.182 2.182 0 011.015-.841 4.044 4.044 0 011.6-.287h.007a3.806 3.806 0 011.641.325 2.3 2.3 0 011.039.95 3.355 3.355 0 010 3zm-1.4-2.52a1.726 1.726 0 00-1.169-.358h-.007a1.971 1.971 0 00-1.289.376 1.316 1.316 0 00-.454 1.073 1.133 1.133 0 00.458.964 2.131 2.131 0 001.292.342h.007a1.7 1.7 0 001.165-.36 1.474 1.474 0 000-2.037zM293.749 71.086a2.412 2.412 0 01-.854.951 3.41 3.41 0 01-1.347.488h-.007v-1.394h.007a1.291 1.291 0 00.851-.438 1.413 1.413 0 00.3-.943 1.259 1.259 0 00-.448-1.035 1.941 1.941 0 00-1.261-.366h-.834a1.928 1.928 0 00-1.254.366 1.261 1.261 0 00-.448 1.035 1.323 1.323 0 00.2.7 1.945 1.945 0 00.575.588v1.272H284v-5.069h1.326v3.671h2.236a1.947 1.947 0 01-.328-.581 1.9 1.9 0 01-.117-.656 2.889 2.889 0 01.356-1.474 2.272 2.272 0 011.039-.929 3.9 3.9 0 011.647-.318h.834a3.792 3.792 0 011.648.328 2.329 2.329 0 011.042.957 3 3 0 01.359 1.511 2.931 2.931 0 01-.293 1.336zM293.3 64.183a2.866 2.866 0 01-2.078.72H286.7a2.857 2.857 0 01-2.082-.724 3.393 3.393 0 010-4.229 2.863 2.863 0 012.085-.72h4.519a2.852 2.852 0 012.081.724 3.379 3.379 0 010 4.229zm-.968-3.207a1.589 1.589 0 00-1.11-.352H286.7a1.6 1.6 0 00-1.111.349 1.742 1.742 0 000 2.187 1.6 1.6 0 001.111.349h4.519a1.589 1.589 0 001.11-.352 1.73 1.73 0 000-2.181z"/><path class="cls-10" d="M296.51 105.329l-1.461-1.461" id="LINE-87" data-name="LINE"/><path class="cls-10" d="M297.972 103.868l-1.462 1.461" id="LINE-88" data-name="LINE"/><path class="cls-10" d="M296.511 42.604l1.461 1.462" id="LINE-89" data-name="LINE"/><path class="cls-10" d="M295.05 44.066l1.461-1.462" id="LINE-90" data-name="LINE"/><path class="cls-10" d="M274.12 108.352v43.832" id="LINE-91" data-name="LINE"/><path d="M271.55 139.343v1.394h-8.422l.868 1.415h-1.442l-.943-1.415v-1.394zM271.55 134.688v1.394h-8.422L264 137.5h-1.442l-.943-1.415v-1.394zM268.816 132.568l-7.2-3.336V127.8l7.117 3.254v-4.874h1.292v6.391zm-3.111-4.286v-1.36h5.852v1.36zM270.908 123.747a2.866 2.866 0 01-2.079.721h-4.518a2.843 2.843 0 110-5.674h4.518a2.848 2.848 0 012.081.725 3.375 3.375 0 010 4.228zm-.968-3.207a1.6 1.6 0 00-1.111-.351h-4.518a1.6 1.6 0 00-1.111.348 1.743 1.743 0 000 2.188 1.6 1.6 0 001.111.348h4.518a1.6 1.6 0 001.111-.351 1.735 1.735 0 000-2.182z"/><path class="cls-10" d="M274.12 152.184l-1.461-1.461" id="LINE-92" data-name="LINE"/><path class="cls-10" d="M275.581 150.723l-1.461 1.461" id="LINE-93" data-name="LINE"/><path class="cls-10" d="M274.12 108.352l1.462 1.462" id="LINE-94" data-name="LINE"/><path class="cls-10" d="M272.659 109.814l1.461-1.462" id="LINE-95" data-name="LINE"/><path class="cls-10" d="M399.392 346.861v-15.947" id="LINE-96" data-name="LINE"/><path class="cls-10" d="M368.219 346.861v-15.947" id="LINE-97" data-name="LINE"/><path class="cls-10" d="M368.218 346.862h31.174" id="LINE-98" data-name="LINE"/><path d="M377.239 354.314l-.007.246a1.031 1.031 0 01-.516.461 2.077 2.077 0 01-.817.147 2.2 2.2 0 01-1.251-.362 2.364 2.364 0 01-.838-1.023 3.7 3.7 0 01-.3-1.527v-.007a3.815 3.815 0 01.324-1.647 2.283 2.283 0 01.951-1.039 2.976 2.976 0 011.5-.356 2.922 2.922 0 011.5.362 2.325 2.325 0 01.947 1.053 3.869 3.869 0 01.325 1.661v.007a5.184 5.184 0 01-.137 1.138 6.988 6.988 0 01-.389 1.2c-.028.059-.055.119-.082.181s-.057.122-.089.181l-2.119 4.259h-1.5zm.065-.862a1.953 1.953 0 00.358-1.251v-.007a1.854 1.854 0 00-.358-1.216 1.419 1.419 0 00-2.037 0 1.854 1.854 0 00-.359 1.223v.007a1.924 1.924 0 00.359 1.247 1.391 1.391 0 002.037 0zM380.219 356.515l3.336-7.2h1.436l-3.254 7.117h4.874v1.292h-6.392zm4.286-3.111h1.361v5.852h-1.361zM389.759 359.058a2.422 2.422 0 01-.951-.855 3.41 3.41 0 01-.488-1.347v-.006h1.394v.006a1.288 1.288 0 00.438.851 1.414 1.414 0 00.943.305 1.261 1.261 0 001.035-.448 1.941 1.941 0 00.366-1.261v-.834a1.933 1.933 0 00-.366-1.255 1.261 1.261 0 00-1.035-.447 1.314 1.314 0 00-.7.2 1.941 1.941 0 00-.588.574h-1.272v-5.231h5.065v1.326h-3.671v2.235a1.969 1.969 0 01.581-.328 1.9 1.9 0 01.656-.116 2.888 2.888 0 011.474.355 2.284 2.284 0 01.93 1.039 3.913 3.913 0 01.317 1.648v.834a3.777 3.777 0 01-.328 1.647 2.329 2.329 0 01-.957 1.042 3 3 0 01-1.511.36 2.944 2.944 0 01-1.332-.294z"/><path class="cls-10" d="M399.436 346.861l-1.461 1.462" id="LINE-99" data-name="LINE"/><path class="cls-10" d="M397.975 345.4l1.461 1.461" id="LINE-100" data-name="LINE"/><path class="cls-10" d="M368.218 346.861l1.461-1.461" id="LINE-101" data-name="LINE"/><path class="cls-10" d="M369.679 348.323l-1.461-1.462" id="LINE-102" data-name="LINE"/><path class="cls-10" d="M402.122 364.353v-24.937" id="LINE-103" data-name="LINE"/><path class="cls-10" d="M335.996 364.381v-24.903" id="LINE-104" data-name="LINE"/><path class="cls-10" d="M335.996 364.372l66.126-.044" id="LINE-105" data-name="LINE"/><path d="M360.442 377.1h-1.395v-8.422l-1.415.868v-1.442l1.415-.944h1.395zM367.831 368.405l-2.57 8.7h-1.483l2.57-8.614h-2.529v1.429h-1.4v-2.755h5.407zM372.145 377.1h-1.395v-8.422l-1.415.868v-1.442l1.415-.944h1.395zM375.121 376.458a2.865 2.865 0 01-.72-2.078v-4.519a2.853 2.853 0 01.724-2.081 3.391 3.391 0 014.229 0 2.865 2.865 0 01.721 2.085v4.519a2.856 2.856 0 01-.725 2.082 3.38 3.38 0 01-4.229 0zm3.207-.967a1.593 1.593 0 00.352-1.111v-4.519a1.6 1.6 0 00-.349-1.11 1.738 1.738 0 00-2.187 0 1.6 1.6 0 00-.349 1.11v4.519a1.593 1.593 0 00.352 1.111 1.733 1.733 0 002.181 0z"/><path class="cls-10" d="M402.122 364.319l-1.461 1.461" id="LINE-106" data-name="LINE"/><path class="cls-10" d="M400.661 362.858l1.461 1.461" id="LINE-107" data-name="LINE"/><path class="cls-10" d="M335.996 364.381l1.461-1.462" id="LINE-108" data-name="LINE"/><path class="cls-10" d="M337.457 365.842l-1.461-1.461" id="LINE-109" data-name="LINE"/><path class="cls-10" d="M414.51 401.634v-16.745" id="LINE-110" data-name="LINE"/><path class="cls-10" d="M323.823 401.666v-16.745" id="LINE-111" data-name="LINE"/><path class="cls-10" d="M323.823 401.662l90.687-.053" id="LINE-112" data-name="LINE"/><path d="M354.816 397.844l3.466-4.621a3.427 3.427 0 00.467-.825 2.156 2.156 0 00.168-.8v-.014a1.207 1.207 0 00-.348-.923 1.392 1.392 0 00-.992-.328 1.368 1.368 0 00-.984.358 1.634 1.634 0 00-.458 1.016v.007h-1.442v-.007a3.726 3.726 0 01.5-1.46 2.566 2.566 0 01.981-.923 2.924 2.924 0 011.388-.317 3.466 3.466 0 011.517.3 2.144 2.144 0 01.957.886 2.806 2.806 0 01.328 1.4v.006a3.108 3.108 0 01-.218 1.1 4.713 4.713 0 01-.609 1.107l-2.878 3.911h3.76v1.326h-5.605zM361.652 396.319l3.336-7.2h1.435l-3.254 7.116h4.874v1.292h-6.391zm4.286-3.11h1.36v5.852h-1.36zM370.473 398.411a2.862 2.862 0 01-.721-2.078v-4.518a2.854 2.854 0 01.725-2.083 3.39 3.39 0 014.228 0 2.856 2.856 0 01.721 2.085v4.518a2.559 2.559 0 01-2.837 2.823 2.816 2.816 0 01-2.116-.747zm3.207-.968a1.593 1.593 0 00.352-1.11v-4.518a1.608 1.608 0 00-.349-1.112 1.743 1.743 0 00-2.188 0 1.608 1.608 0 00-.348 1.112v4.518a1.593 1.593 0 00.351 1.11 1.731 1.731 0 002.182 0zM378.2 398.411a2.862 2.862 0 01-.721-2.078v-4.518a2.858 2.858 0 01.724-2.083 3.391 3.391 0 014.229 0 2.86 2.86 0 01.721 2.085v4.518a2.852 2.852 0 01-.725 2.081 3.377 3.377 0 01-4.228 0zm3.207-.968a1.593 1.593 0 00.351-1.11v-4.518a1.608 1.608 0 00-.348-1.112 1.743 1.743 0 00-2.188 0 1.608 1.608 0 00-.349 1.112v4.518a1.593 1.593 0 00.352 1.11 1.731 1.731 0 002.182 0z"/><path class="cls-10" d="M414.484 401.605l-1.461 1.461" id="LINE-113" data-name="LINE"/><path class="cls-10" d="M413.023 400.144l1.461 1.461" id="LINE-114" data-name="LINE"/><path class="cls-10" d="M323.848 401.666l1.461-1.461" id="LINE-115" data-name="LINE"/><path class="cls-10" d="M325.309 403.128l-1.461-1.462" id="LINE-116" data-name="LINE"/><path class="cls-10" d="M423.324 384.763h-17.067" id="LINE-117" data-name="LINE"/><path class="cls-10" d="M423.307 384.763l-.027-45.123" id="LINE-118" data-name="LINE"/><path d="M435.859 372.015v1.394h-8.422l.868 1.415h-1.442l-.944-1.415v-1.394zM434.649 369.909l-4.621-3.466a3.421 3.421 0 00-.824-.467 2.165 2.165 0 00-.8-.168h-.014a1.207 1.207 0 00-.923.348 1.392 1.392 0 00-.328.992 1.368 1.368 0 00.359.984 1.629 1.629 0 001.015.458h.007v1.442h-.007a3.727 3.727 0 01-1.459-.5 2.566 2.566 0 01-.923-.981 2.924 2.924 0 01-.318-1.388 3.451 3.451 0 01.3-1.517 2.136 2.136 0 01.885-.957 2.809 2.809 0 011.4-.329h.006a3.106 3.106 0 011.1.219 4.713 4.713 0 011.107.609l3.911 2.878V364.3h1.326v5.605zM435.216 361.806a2.865 2.865 0 01-2.078.72h-4.519a2.855 2.855 0 01-2.081-.724 3.391 3.391 0 010-4.229 2.864 2.864 0 012.085-.72h4.519a2.557 2.557 0 012.823 2.837 2.815 2.815 0 01-.749 2.116zm-.967-3.207a1.593 1.593 0 00-1.111-.352h-4.519a1.6 1.6 0 00-1.11.349 1.738 1.738 0 000 2.187 1.6 1.6 0 001.11.349h4.519a1.593 1.593 0 001.111-.352 1.733 1.733 0 000-2.181zM435.216 354.081a2.861 2.861 0 01-2.078.721h-4.519a2.851 2.851 0 01-2.081-.725 3.39 3.39 0 010-4.228 2.861 2.861 0 012.085-.721h4.519a2.558 2.558 0 012.823 2.837 2.812 2.812 0 01-.749 2.116zm-.967-3.207a1.6 1.6 0 00-1.111-.351h-4.519a1.6 1.6 0 00-1.11.348 1.74 1.74 0 000 2.188 1.6 1.6 0 001.11.348h4.519a1.6 1.6 0 001.111-.351 1.735 1.735 0 000-2.182z"/><path class="cls-10" d="M423.262 339.64l1.461 1.462" id="LINE-119" data-name="LINE"/><path class="cls-10" d="M421.801 341.102l1.461-1.462" id="LINE-120" data-name="LINE"/><path class="cls-10" d="M423.324 384.796l-1.461-1.461" id="LINE-121" data-name="LINE"/><path class="cls-10" d="M424.785 383.335l-1.461 1.461" id="LINE-122" data-name="LINE"/><path class="cls-10" d="M380.536 19.857h-32.543" id="LINE-123" data-name="LINE"/><path class="cls-10" d="M380.536 58.852h-32.543" id="LINE-124" data-name="LINE"/><path class="cls-10" d="M380.537 58.852V19.857" id="LINE-125" data-name="LINE"/><path d="M392.132 48.4v1.4h-8.422l.868 1.415h-1.442l-.943-1.415v-1.4zM392.132 43.748v1.4h-8.422l.868 1.415h-1.442l-.943-1.415v-1.4zM391.49 40.772a2.869 2.869 0 01-2.079.72h-4.518a2.843 2.843 0 110-5.674h4.518a2.854 2.854 0 012.082.725 2.821 2.821 0 01.742 2.112 2.816 2.816 0 01-.745 2.117zm-.967-3.207a1.594 1.594 0 00-1.112-.352h-4.518a1.6 1.6 0 00-1.11.349 1.738 1.738 0 000 2.187 1.6 1.6 0 001.11.349h4.518a1.594 1.594 0 001.112-.352 1.737 1.737 0 000-2.181zM391.49 33.047a2.869 2.869 0 01-2.079.721h-4.518a2.852 2.852 0 01-2.081-.725 2.82 2.82 0 01-.742-2.112 2.829 2.829 0 01.738-2.116 2.858 2.858 0 012.085-.721h4.518a2.854 2.854 0 012.082.724 2.824 2.824 0 01.742 2.113 2.815 2.815 0 01-.745 2.116zm-.967-3.207a1.6 1.6 0 00-1.112-.352h-4.518a1.6 1.6 0 00-1.11.349 1.738 1.738 0 000 2.187 1.6 1.6 0 001.11.349h4.518a1.6 1.6 0 001.112-.351 1.738 1.738 0 000-2.182z"/><path class="cls-10" d="M380.537 19.857l1.461 1.461" id="LINE-126" data-name="LINE"/><path class="cls-10" d="M379.075 21.318l1.462-1.461" id="LINE-127" data-name="LINE"/><path class="cls-10" d="M380.536 58.852l-1.461-1.461" id="LINE-128" data-name="LINE"/><path class="cls-10" d="M381.997 57.391l-1.461 1.461" id="LINE-129" data-name="LINE"/><path class="cls-10" d="M268.074 353.857v-14.442" id="LINE-130" data-name="LINE"/><path class="cls-10" d="M201.949 353.885v-14.442" id="LINE-131" data-name="LINE"/><path class="cls-10" d="M201.949 353.878l66.126-.047" id="LINE-132" data-name="LINE"/><path d="M226.4 366.606H225v-8.422l-1.415.868v-1.443l1.415-.943h1.4zM233.784 357.91l-2.57 8.7h-1.483l2.57-8.614h-2.529v1.429h-1.395v-2.755h5.407zM238.1 366.606h-1.4v-8.422l-1.415.868v-1.443l1.415-.943h1.4zM241.075 365.963a2.864 2.864 0 01-.721-2.078v-4.519a2.856 2.856 0 01.724-2.082 3.393 3.393 0 014.229 0 2.862 2.862 0 01.721 2.085v4.519a2.854 2.854 0 01-.725 2.081 3.377 3.377 0 01-4.228 0zm3.207-.968a1.6 1.6 0 00.351-1.11v-4.519a1.6 1.6 0 00-.349-1.111 1.742 1.742 0 00-2.187 0 1.607 1.607 0 00-.349 1.111v4.519A1.6 1.6 0 00242.1 365a1.731 1.731 0 002.182 0z"/><path class="cls-10" d="M268.075 353.823l-1.462 1.462" id="LINE-133" data-name="LINE"/><path class="cls-10" d="M266.613 352.362l1.462 1.461" id="LINE-134" data-name="LINE"/><path class="cls-10" d="M201.949 353.885l1.461-1.461" id="LINE-135" data-name="LINE"/><path class="cls-10" d="M203.41 355.346l-1.461-1.461" id="LINE-136" data-name="LINE"/><path class="cls-10" d="M335.996 353.857v-14.442" id="LINE-137" data-name="LINE"/><path class="cls-10" d="M268.074 353.885v-14.442" id="LINE-138" data-name="LINE"/><path class="cls-10" d="M268.074 353.878l67.922-.047" id="LINE-139" data-name="LINE"/><path d="M290.452 366.606h-1.394v-8.422l-1.415.868v-1.443l1.415-.943h1.394zM294.034 366.366a2.5 2.5 0 01-1.056-.968 2.786 2.786 0 01-.372-1.452v-.164a2.793 2.793 0 01.372-1.4 2.483 2.483 0 011-.991 2.188 2.188 0 01-.845-.831 2.244 2.244 0 01-.317-1.145v-.239a2.651 2.651 0 01.348-1.371 2.371 2.371 0 01.985-.916 3.526 3.526 0 012.953 0 2.362 2.362 0 01.984.916 2.642 2.642 0 01.349 1.371v.239a2.2 2.2 0 01-.325 1.155 2.168 2.168 0 01-.858.821 2.567 2.567 0 011.008.994 2.726 2.726 0 01.38 1.4v.164a2.786 2.786 0 01-.372 1.452 2.5 2.5 0 01-1.057.968 3.848 3.848 0 01-3.172 0zm2.441-1.189a1.39 1.39 0 00.571-.537 1.551 1.551 0 00.2-.8v-.1a1.571 1.571 0 00-.2-.8 1.388 1.388 0 00-.571-.536 2.007 2.007 0 00-1.709 0 1.372 1.372 0 00-.571.54 1.588 1.588 0 00-.2.807v.1a1.536 1.536 0 00.2.793 1.362 1.362 0 00.571.53 2.021 2.021 0 001.709 0zm-.116-4.482a1.251 1.251 0 00.5-.515 1.635 1.635 0 00.177-.773v-.095a1.5 1.5 0 00-.177-.739 1.222 1.222 0 00-.5-.5 1.654 1.654 0 00-1.477 0 1.222 1.222 0 00-.5.5 1.517 1.517 0 00-.178.745v.1a1.593 1.593 0 00.178.762 1.25 1.25 0 00.5.512 1.589 1.589 0 001.477 0zM300.447 363.871l3.336-7.2h1.435l-3.254 7.116h4.874v1.292h-6.391zm4.286-3.11h1.36v5.851h-1.36zM309.268 365.963a2.864 2.864 0 01-.721-2.078v-4.519a2.852 2.852 0 01.725-2.082 3.391 3.391 0 014.228 0 2.858 2.858 0 01.721 2.085v4.519a2.849 2.849 0 01-.725 2.081 3.377 3.377 0 01-4.228 0zm3.207-.968a1.6 1.6 0 00.351-1.11v-4.519a1.607 1.607 0 00-.348-1.111 1.743 1.743 0 00-2.188 0 1.607 1.607 0 00-.348 1.111v4.519a1.6 1.6 0 00.351 1.11 1.731 1.731 0 002.182 0z"/><path class="cls-10" d="M335.996 353.823l-1.461 1.462" id="LINE-140" data-name="LINE"/><path class="cls-10" d="M334.535 352.362l1.461 1.461" id="LINE-141" data-name="LINE"/><path class="cls-10" d="M268.074 353.885l1.462-1.461" id="LINE-142" data-name="LINE"/><path class="cls-10" d="M269.536 355.346l-1.462-1.461" id="LINE-143" data-name="LINE"/><path class="cls-10" d="M201.949 353.857v-14.442" id="LINE-144" data-name="LINE"/><path class="cls-10" d="M111.262 353.885v-14.442" id="LINE-145" data-name="LINE"/><path class="cls-10" d="M111.262 353.887l90.687-.064" id="LINE-146" data-name="LINE"/><path d="M142.608 365.4l3.466-4.622a3.421 3.421 0 00.467-.824 2.16 2.16 0 00.168-.8v-.013a1.207 1.207 0 00-.348-.923 1.392 1.392 0 00-.992-.328 1.368 1.368 0 00-.984.358 1.631 1.631 0 00-.458 1.016v.007h-1.442v-.007a3.72 3.72 0 01.5-1.46 2.559 2.559 0 01.981-.923 2.924 2.924 0 011.388-.317 3.466 3.466 0 011.517.3 2.133 2.133 0 01.957.886 2.8 2.8 0 01.328 1.4v.007a3.108 3.108 0 01-.218 1.1 4.713 4.713 0 01-.609 1.107l-2.878 3.91h3.76v1.327h-5.6zM149.444 363.871l3.336-7.2h1.435l-3.254 7.116h4.874v1.292h-6.391zm4.286-3.11h1.36v5.851h-1.36zM157.394 365.4l3.466-4.622a3.421 3.421 0 00.467-.824 2.16 2.16 0 00.168-.8v-.013a1.207 1.207 0 00-.348-.923 1.391 1.391 0 00-.991-.328 1.369 1.369 0 00-.985.358 1.631 1.631 0 00-.458 1.016v.007h-1.442v-.007a3.72 3.72 0 01.5-1.46 2.559 2.559 0 01.981-.923 2.926 2.926 0 011.388-.317 3.463 3.463 0 011.517.3 2.133 2.133 0 01.957.886 2.8 2.8 0 01.329 1.4v.007a3.11 3.11 0 01-.219 1.1 4.713 4.713 0 01-.609 1.107l-2.877 3.91H163v1.327h-5.6zM165.5 365.963a2.868 2.868 0 01-.72-2.078v-4.519a2.856 2.856 0 01.724-2.082 3.393 3.393 0 014.229 0 2.861 2.861 0 01.72 2.085v4.519a2.853 2.853 0 01-.724 2.081 3.379 3.379 0 01-4.229 0zm3.2-.963a1.59 1.59 0 00.352-1.11v-4.519a1.6 1.6 0 00-.349-1.111 1.742 1.742 0 00-2.187 0 1.6 1.6 0 00-.349 1.111v4.519a1.59 1.59 0 00.352 1.11 1.73 1.73 0 002.181 0z"/><path class="cls-10" d="M202.004 353.823l-1.461 1.462" id="LINE-147" data-name="LINE"/><path class="cls-10" d="M200.543 352.362l1.461 1.461" id="LINE-148" data-name="LINE"/><path class="cls-10" d="M111.262 353.885l1.461-1.461" id="LINE-149" data-name="LINE"/><path class="cls-10" d="M112.723 355.346l-1.461-1.461" id="LINE-150" data-name="LINE"/><path class="cls-10" d="M111.261 353.857v-14.442" id="LINE-151" data-name="LINE"/><path class="cls-10" d="M25.863 353.885v-14.442" id="LINE-152" data-name="LINE"/><path class="cls-10" d="M25.863 353.885l85.399-.061" id="LINE-153" data-name="LINE"/><path d="M54.956 365.4l3.466-4.622a3.426 3.426 0 00.468-.824 2.181 2.181 0 00.168-.8v-.013a1.2 1.2 0 00-.349-.923 1.388 1.388 0 00-.991-.328 1.368 1.368 0 00-.984.358 1.626 1.626 0 00-.458 1.016v.007h-1.443v-.007a3.72 3.72 0 01.5-1.46 2.554 2.554 0 01.982-.923 2.922 2.922 0 011.387-.317 3.47 3.47 0 011.518.3 2.138 2.138 0 01.957.886 2.8 2.8 0 01.328 1.4v.007a3.088 3.088 0 01-.219 1.1 4.673 4.673 0 01-.608 1.107l-2.878 3.91h3.76v1.327h-5.604zM62.189 365.4l3.466-4.622a3.421 3.421 0 00.467-.824 2.16 2.16 0 00.168-.8v-.013a1.207 1.207 0 00-.348-.923 1.392 1.392 0 00-.992-.328 1.368 1.368 0 00-.984.358 1.631 1.631 0 00-.458 1.016v.007h-1.442v-.007a3.72 3.72 0 01.5-1.46 2.559 2.559 0 01.981-.923 2.924 2.924 0 011.388-.317 3.466 3.466 0 011.517.3 2.133 2.133 0 01.957.886 2.8 2.8 0 01.329 1.4v.007a3.11 3.11 0 01-.219 1.1 4.713 4.713 0 01-.609 1.107l-2.878 3.91h3.76v1.327h-5.6zM70.228 366.356a2.285 2.285 0 01-.947-1.026 3.713 3.713 0 01-.325-1.623v-.007a5.537 5.537 0 01.13-1.162 6.735 6.735 0 01.376-1.2 2.81 2.81 0 01.089-.2l.1-.195 2.16-4.279h1.5l-2.536 4.956.007-.246a1.189 1.189 0 01.5-.5 1.572 1.572 0 01.765-.178 2.432 2.432 0 011.326.349 2.171 2.171 0 01.841 1.015 4.026 4.026 0 01.287 1.6v.007a3.794 3.794 0 01-.325 1.641 2.3 2.3 0 01-.949 1.039 3.355 3.355 0 01-3 0zm2.519-1.4a1.721 1.721 0 00.359-1.169v-.007a1.971 1.971 0 00-.376-1.289 1.315 1.315 0 00-1.073-.454 1.128 1.128 0 00-.964.458 2.122 2.122 0 00-.342 1.292v.007a1.7 1.7 0 00.359 1.165 1.474 1.474 0 002.037 0zM77.067 365.963a2.864 2.864 0 01-.721-2.078v-4.519a2.852 2.852 0 01.725-2.082 3.391 3.391 0 014.228 0 2.858 2.858 0 01.721 2.085v4.519a2.849 2.849 0 01-.725 2.081 3.377 3.377 0 01-4.228 0zm3.207-.963a1.6 1.6 0 00.351-1.11v-4.519a1.607 1.607 0 00-.348-1.111 1.743 1.743 0 00-2.188 0 1.607 1.607 0 00-.348 1.111v4.519a1.6 1.6 0 00.351 1.11 1.731 1.731 0 002.182 0z"/><path class="cls-10" d="M111.262 353.823l-1.462 1.462" id="LINE-154" data-name="LINE"/><path class="cls-10" d="M109.8 352.362l1.462 1.461" id="LINE-155" data-name="LINE"/><path class="cls-10" d="M25.863 353.885l1.462-1.461" id="LINE-156" data-name="LINE"/><path class="cls-10" d="M27.325 355.346l-1.462-1.461" id="LINE-157" data-name="LINE"/><path class="cls-10" d="M1.724 186.948h24.139" id="LINE-158" data-name="LINE"/><path class="cls-10" d="M1.661 339.416h24.14" id="LINE-159" data-name="LINE"/><path class="cls-10" d="M1.66 339.416l.063-152.468" id="LINE-160" data-name="LINE"/><path d="M13.675 277.617l-7.2-3.336v-1.435l7.117 3.254v-4.874h1.292v6.391zm-3.111-4.286v-1.36h5.852v1.36zM15.766 268.8a2.865 2.865 0 01-2.078.721H9.17a2.856 2.856 0 01-2.082-.725 3.388 3.388 0 010-4.228 2.858 2.858 0 012.085-.721h4.518a2.856 2.856 0 012.082.724 3.377 3.377 0 010 4.229zm-.967-3.207a1.6 1.6 0 00-1.111-.352H9.17a1.605 1.605 0 00-1.111.349 1.742 1.742 0 000 2.187 1.6 1.6 0 001.111.349h4.518a1.6 1.6 0 001.111-.351 1.735 1.735 0 000-2.182zM16.512 260.124l-.3.636a2.5 2.5 0 01-.882 1.022 3.191 3.191 0 01-1.391.489v-1.422a1.5 1.5 0 00.7-.267 1.228 1.228 0 00.406-.53 1.992 1.992 0 00.134-.762 1.483 1.483 0 00-.369-1.073 1.38 1.38 0 00-1.04-.383h-.3a1.677 1.677 0 00-1.152.362 1.3 1.3 0 00-.407 1.026v.7h-1.333v-.7a1.164 1.164 0 00-.349-.9 1.4 1.4 0 00-.984-.322h-.308a1.188 1.188 0 00-.909.339 1.339 1.339 0 00-.321.96 1.462 1.462 0 00.133.636 1.219 1.219 0 00.41.474 1.853 1.853 0 00.694.284v1.415a3.611 3.611 0 01-1.394-.515 2.518 2.518 0 01-.882-.961 2.855 2.855 0 01-.3-1.333 2.754 2.754 0 01.677-1.989 2.519 2.519 0 011.907-.7h.164a2.145 2.145 0 011.3.4 2.277 2.277 0 01.807 1.141 2.02 2.02 0 01.8-1.26 2.647 2.647 0 011.586-.448h.164a3.067 3.067 0 011.484.334 2.212 2.212 0 01.936.975 3.389 3.389 0 01.322 1.541zM16.218 253.018a2.413 2.413 0 01-.855.951 3.4 3.4 0 01-1.347.488h-.006v-1.394h.006a1.293 1.293 0 00.851-.438 1.416 1.416 0 00.3-.943 1.26 1.26 0 00-.448-1.035 1.936 1.936 0 00-1.261-.367h-.834a1.927 1.927 0 00-1.255.367 1.259 1.259 0 00-.447 1.035 1.316 1.316 0 00.205.7 1.941 1.941 0 00.574.588v1.271H6.47v-5.065H7.8v3.671h2.235a1.992 1.992 0 01-.328-.581 1.9 1.9 0 01-.116-.657 2.885 2.885 0 01.355-1.473 2.289 2.289 0 011.039-.93 3.9 3.9 0 011.648-.317h.834a3.773 3.773 0 011.647.328 2.331 2.331 0 011.043.957 3 3 0 01.359 1.511 2.944 2.944 0 01-.298 1.333z"/><path class="cls-10" d="M1.723 186.948l-1.461 1.461" id="LINE-161" data-name="LINE"/><path class="cls-10" d="M3.184 188.409l-1.461-1.461" id="LINE-162" data-name="LINE"/><path class="cls-10" d="M1.661 339.416l1.461-1.462" id="LINE-163" data-name="LINE"/><path class="cls-10" d="M.2 337.954l1.461 1.462" id="LINE-164" data-name="LINE"/><path class="cls-10" d="M1.724 141.604h24.139" id="LINE-165" data-name="LINE"/><path class="cls-10" d="M1.661 186.947h24.14" id="LINE-166" data-name="LINE"/><path class="cls-10" d="M1.682 186.947l.019-45.342" id="LINE-167" data-name="LINE"/><path d="M16.409 174.521v1.394H7.987l.868 1.415H7.413l-.943-1.415v-1.394zM15.2 172.415l-4.621-3.466a3.46 3.46 0 00-.824-.468 2.178 2.178 0 00-.8-.167h-.011a1.208 1.208 0 00-.923.348 1.4 1.4 0 00-.328.991 1.369 1.369 0 00.359.985 1.631 1.631 0 001.015.458h.007v1.442h-.007a3.721 3.721 0 01-1.459-.5 2.559 2.559 0 01-.923-.981 2.93 2.93 0 01-.318-1.388 3.47 3.47 0 01.3-1.518 2.146 2.146 0 01.885-.957 2.82 2.82 0 011.4-.328h.007a3.1 3.1 0 011.1.219 4.771 4.771 0 011.108.608l3.91 2.878v-3.761h1.326v5.6zM15.766 164.312a2.865 2.865 0 01-2.078.72H9.17a2.856 2.856 0 01-2.082-.724 3.389 3.389 0 010-4.229 2.862 2.862 0 012.085-.721h4.518a2.856 2.856 0 012.082.725 3.377 3.377 0 010 4.229zM14.8 161.1a1.591 1.591 0 00-1.111-.352H9.17a1.6 1.6 0 00-1.111.349 1.742 1.742 0 000 2.187 1.6 1.6 0 001.111.349h4.518a1.591 1.591 0 001.111-.352 1.733 1.733 0 000-2.181zM15.766 156.587a2.865 2.865 0 01-2.078.721H9.17a2.856 2.856 0 01-2.082-.725 3.388 3.388 0 010-4.228 2.858 2.858 0 012.085-.721h4.518a2.856 2.856 0 012.082.724 3.377 3.377 0 010 4.229zm-.966-3.207a1.6 1.6 0 00-1.111-.352H9.17a1.605 1.605 0 00-1.111.349 1.743 1.743 0 000 2.188 1.6 1.6 0 001.111.348h4.518a1.6 1.6 0 001.111-.351 1.735 1.735 0 000-2.182z"/><path class="cls-10" d="M1.723 141.604l-1.461 1.462" id="LINE-168" data-name="LINE"/><path class="cls-10" d="M3.184 143.066l-1.461-1.462" id="LINE-169" data-name="LINE"/><path class="cls-10" d="M1.661 186.947l1.461-1.461" id="LINE-170" data-name="LINE"/><path class="cls-10" d="M.2 185.486l1.461 1.461" id="LINE-171" data-name="LINE"/><path class="cls-10" d="M1.724 24.265h24.139" id="LINE-172" data-name="LINE"/><path class="cls-10" d="M1.661 58.473h24.14" id="LINE-173" data-name="LINE"/><path class="cls-10" d="M1.685 58.473l.014-34.208" id="LINE-174" data-name="LINE"/><path d="M11.473 47.981l.247.006a1.031 1.031 0 01.461.516 2.077 2.077 0 01.147.817 2.2 2.2 0 01-.362 1.251 2.367 2.367 0 01-1.022.838 3.709 3.709 0 01-1.528.3h-.007a3.815 3.815 0 01-1.647-.324 2.291 2.291 0 01-1.04-.951 3 3 0 01-.355-1.5 2.932 2.932 0 01.362-1.5 2.331 2.331 0 011.053-.947 3.884 3.884 0 011.661-.325h.007a5.184 5.184 0 011.138.137 6.993 6.993 0 011.2.39l.181.082c.062.027.122.056.181.088l4.259 2.12v1.5zm-.861-.066a1.949 1.949 0 00-1.251-.358h-.007a1.859 1.859 0 00-1.217.358 1.421 1.421 0 000 2.037 1.859 1.859 0 001.224.36h.007a1.925 1.925 0 001.248-.36 1.394 1.394 0 000-2.037zM16.512 42.58l-.3.636a2.492 2.492 0 01-.882 1.022 3.191 3.191 0 01-1.391.489v-1.422a1.5 1.5 0 00.7-.267 1.228 1.228 0 00.406-.53 1.992 1.992 0 00.134-.762 1.483 1.483 0 00-.369-1.073 1.38 1.38 0 00-1.04-.383h-.3a1.677 1.677 0 00-1.152.362 1.3 1.3 0 00-.407 1.026v.7h-1.333v-.7a1.164 1.164 0 00-.349-.9 1.4 1.4 0 00-.984-.321h-.308a1.188 1.188 0 00-.909.339 1.339 1.339 0 00-.321.96 1.462 1.462 0 00.133.636 1.219 1.219 0 00.41.474 1.87 1.87 0 00.694.285v1.415a3.627 3.627 0 01-1.394-.516 2.518 2.518 0 01-.882-.961 2.855 2.855 0 01-.3-1.333 2.756 2.756 0 01.677-1.989 2.519 2.519 0 011.907-.7h.164a2.145 2.145 0 011.3.4 2.275 2.275 0 01.807 1.142 2.022 2.022 0 01.8-1.261 2.647 2.647 0 011.586-.448h.164a3.055 3.055 0 011.484.335 2.2 2.2 0 01.936.974 3.389 3.389 0 01.322 1.541zM15.766 36.192a2.861 2.861 0 01-2.078.721H9.17a2.856 2.856 0 01-2.082-.724 2.828 2.828 0 01-.742-2.113 2.831 2.831 0 01.739-2.116 2.862 2.862 0 012.085-.721h4.518a2.856 2.856 0 012.082.725 2.824 2.824 0 01.742 2.112 2.812 2.812 0 01-.746 2.116zm-.966-3.207a1.6 1.6 0 00-1.111-.351H9.17a1.6 1.6 0 00-1.111.348 1.743 1.743 0 000 2.188 1.605 1.605 0 001.111.349h4.518a1.6 1.6 0 001.111-.352 1.735 1.735 0 000-2.182z"/><path class="cls-10" d="M1.723 24.265L.262 25.727" id="LINE-175" data-name="LINE"/><path class="cls-10" d="M3.184 25.727l-1.461-1.462" id="LINE-176" data-name="LINE"/><path class="cls-10" d="M1.661 58.473l1.461-1.461" id="LINE-177" data-name="LINE"/><path class="cls-10" d="M.2 57.012l1.461 1.461" id="LINE-178" data-name="LINE"/><path class="cls-10" d="M1.724 58.474h24.139" id="LINE-179" data-name="LINE"/><path class="cls-10" d="M1.661 141.604h24.14" id="LINE-180" data-name="LINE"/><path class="cls-10" d="M1.675 141.604l.034-83.13" id="LINE-181" data-name="LINE"/><path d="M15.2 114.122l-4.621-3.466a3.421 3.421 0 00-.824-.467 2.16 2.16 0 00-.8-.168h-.011a1.208 1.208 0 00-.923.348 1.4 1.4 0 00-.328.991 1.369 1.369 0 00.359.985 1.631 1.631 0 001.015.458h.007v1.442h-.007a3.721 3.721 0 01-1.459-.5 2.559 2.559 0 01-.923-.981 2.93 2.93 0 01-.318-1.388 3.47 3.47 0 01.3-1.518 2.146 2.146 0 01.885-.957 2.82 2.82 0 011.4-.328h.007a3.1 3.1 0 011.1.219 4.771 4.771 0 011.108.608l3.91 2.878v-3.759h1.326v5.605zM15.2 106.89l-4.621-3.466a3.426 3.426 0 00-.824-.468 2.181 2.181 0 00-.8-.168h-.011a1.205 1.205 0 00-.923.349 1.392 1.392 0 00-.328.991 1.368 1.368 0 00.359.984 1.626 1.626 0 001.015.458h.007v1.443h-.007a3.721 3.721 0 01-1.459-.5 2.554 2.554 0 01-.923-.982 2.923 2.923 0 01-.318-1.387 3.47 3.47 0 01.3-1.518 2.141 2.141 0 01.885-.957 2.809 2.809 0 011.4-.328h.007a3.083 3.083 0 011.1.219 4.7 4.7 0 011.108.608l3.91 2.878v-3.76h1.326v5.606zM15.766 98.786a2.861 2.861 0 01-2.078.721H9.17a2.852 2.852 0 01-2.082-.725 3.388 3.388 0 010-4.228 2.858 2.858 0 012.085-.721h4.518a2.852 2.852 0 012.082.725 3.375 3.375 0 010 4.228zm-.966-3.207a1.6 1.6 0 00-1.111-.351H9.17a1.6 1.6 0 00-1.111.348 1.743 1.743 0 000 2.188 1.6 1.6 0 001.111.348h4.518a1.6 1.6 0 001.111-.351 1.735 1.735 0 000-2.182zM15.766 91.062a2.865 2.865 0 01-2.078.72H9.17a2.856 2.856 0 01-2.082-.724 3.389 3.389 0 010-4.229 2.862 2.862 0 012.085-.721h4.518a2.856 2.856 0 012.082.725 3.377 3.377 0 010 4.229zm-.966-3.207a1.591 1.591 0 00-1.111-.352H9.17a1.6 1.6 0 00-1.111.349 1.742 1.742 0 000 2.187 1.6 1.6 0 001.111.349h4.518a1.591 1.591 0 001.111-.352 1.733 1.733 0 000-2.181z"/><path class="cls-10" d="M1.723 58.474L.262 59.936" id="LINE-182" data-name="LINE"/><path class="cls-10" d="M3.184 59.936l-1.461-1.462" id="LINE-183" data-name="LINE"/><path class="cls-10" d="M1.661 141.604l1.461-1.461" id="LINE-184" data-name="LINE"/><path class="cls-10" d="M.2 140.143l1.461 1.461" id="LINE-185" data-name="LINE"/><path class="cls-10" d="M302.838 287.852H187.935" id="LINE-186" data-name="LINE"/><path d="M233.248 300.76l-.635-.305a2.5 2.5 0 01-1.023-.882 3.174 3.174 0 01-.488-1.39h1.422a1.514 1.514 0 00.266.7 1.239 1.239 0 00.531.406 1.983 1.983 0 00.761.134 1.485 1.485 0 001.074-.369 1.381 1.381 0 00.382-1.039v-.3a1.677 1.677 0 00-.362-1.152 1.3 1.3 0 00-1.025-.407h-.7v-1.326h.7a1.166 1.166 0 00.9-.348 1.4 1.4 0 00.321-.985v-.307a1.189 1.189 0 00-.339-.91 1.335 1.335 0 00-.96-.321 1.454 1.454 0 00-.635.133 1.215 1.215 0 00-.475.41 1.87 1.87 0 00-.284.694h-1.415a3.621 3.621 0 01.516-1.394 2.515 2.515 0 01.96-.882 2.858 2.858 0 011.333-.3 2.758 2.758 0 011.99.677 2.522 2.522 0 01.7 1.907v.164a2.154 2.154 0 01-.4 1.3 2.284 2.284 0 01-1.142.807 2.019 2.019 0 011.261.8 2.649 2.649 0 01.448 1.586v.164a3.054 3.054 0 01-.335 1.483 2.22 2.22 0 01-.975.937 3.41 3.41 0 01-1.541.321zM239.636 300.015a2.868 2.868 0 01-.721-2.078v-4.519a2.854 2.854 0 01.725-2.082 3.391 3.391 0 014.228 0 2.858 2.858 0 01.721 2.085v4.519a2.855 2.855 0 01-.724 2.081 3.379 3.379 0 01-4.229 0zm3.207-.968a1.6 1.6 0 00.352-1.11v-4.519a1.607 1.607 0 00-.349-1.111 1.743 1.743 0 00-2.188 0 1.607 1.607 0 00-.348 1.111v4.519a1.6 1.6 0 00.351 1.11 1.731 1.731 0 002.182 0zM251.774 291.962l-2.571 8.695h-1.483l2.57-8.613h-2.529v1.429h-1.395v-2.755h5.408zM255.127 300.466a2.421 2.421 0 01-.951-.855 3.411 3.411 0 01-.488-1.346v-.007h1.394v.007a1.293 1.293 0 00.438.85 1.414 1.414 0 00.943.305 1.259 1.259 0 001.035-.448 1.941 1.941 0 00.367-1.261v-.834a1.933 1.933 0 00-.367-1.255 1.261 1.261 0 00-1.035-.447 1.316 1.316 0 00-.7.2 1.953 1.953 0 00-.588.574h-1.271v-5.236h5.065v1.326H255.3v2.235a1.969 1.969 0 01.581-.328 1.9 1.9 0 01.656-.116 2.886 2.886 0 011.474.355 2.282 2.282 0 01.93 1.04 3.893 3.893 0 01.317 1.647v.834a3.773 3.773 0 01-.328 1.647 2.324 2.324 0 01-.957 1.042 2.993 2.993 0 01-1.511.36 2.944 2.944 0 01-1.335-.289z"/><path class="cls-10" d="M187.936 287.852l1.461-1.461" id="LINE-187" data-name="LINE"/><path class="cls-10" d="M189.397 289.313l-1.461-1.461" id="LINE-188" data-name="LINE"/><path class="cls-10" d="M302.813 287.853l-1.461 1.461" id="LINE-189" data-name="LINE"/><path class="cls-10" d="M301.352 286.391l1.461 1.462" id="LINE-190" data-name="LINE"/><path class="cls-10" d="M418.462 287.852H306.078" id="LINE-191" data-name="LINE"/><path d="M348.755 299.447l3.466-4.621a3.46 3.46 0 00.468-.824 2.181 2.181 0 00.168-.8v-.014a1.2 1.2 0 00-.349-.922 1.388 1.388 0 00-.991-.329 1.367 1.367 0 00-.984.359 1.626 1.626 0 00-.458 1.015v.007h-1.443v-.007a3.721 3.721 0 01.5-1.459 2.554 2.554 0 01.982-.923 2.923 2.923 0 011.387-.318 3.47 3.47 0 011.518.3 2.138 2.138 0 01.957.886 2.8 2.8 0 01.328 1.4v.007a3.088 3.088 0 01-.219 1.1 4.712 4.712 0 01-.608 1.107l-2.878 3.91h3.76v1.326h-5.606zM359.658 295.722l-.006.246a1.031 1.031 0 01-.516.461 2.077 2.077 0 01-.817.147 2.2 2.2 0 01-1.251-.362 2.364 2.364 0 01-.838-1.023 3.7 3.7 0 01-.3-1.527v-.007a3.818 3.818 0 01.324-1.647 2.283 2.283 0 01.951-1.039 2.976 2.976 0 011.5-.356 2.913 2.913 0 011.5.363 2.318 2.318 0 01.947 1.052 3.884 3.884 0 01.325 1.661v.007a5.177 5.177 0 01-.137 1.138 6.965 6.965 0 01-.39 1.2l-.082.181a2.515 2.515 0 01-.088.181l-2.12 4.259h-1.5zm.066-.862a1.949 1.949 0 00.358-1.251v-.009a1.855 1.855 0 00-.358-1.217 1.419 1.419 0 00-2.037 0 1.855 1.855 0 00-.36 1.223v.007a1.924 1.924 0 00.36 1.247 1.391 1.391 0 002.037 0zM363.842 300.407a2.282 2.282 0 01-.947-1.025 3.713 3.713 0 01-.324-1.623v-.007a5.6 5.6 0 01.129-1.162 6.735 6.735 0 01.376-1.2c.028-.069.057-.136.089-.2s.064-.13.1-.194l2.16-4.279h1.5l-2.536 4.956.007-.246a1.189 1.189 0 01.5-.5 1.575 1.575 0 01.765-.178 2.438 2.438 0 011.327.349 2.172 2.172 0 01.84 1.014 4.034 4.034 0 01.288 1.6v.007a3.789 3.789 0 01-.326 1.64 2.289 2.289 0 01-.949 1.039 3.347 3.347 0 01-3 0zm2.52-1.4a1.728 1.728 0 00.358-1.169v-.007a1.969 1.969 0 00-.376-1.289 1.313 1.313 0 00-1.073-.454 1.13 1.13 0 00-.964.458 2.122 2.122 0 00-.342 1.292v.007a1.7 1.7 0 00.36 1.165 1.474 1.474 0 002.037 0zM370.681 300.015a2.864 2.864 0 01-.721-2.078v-4.519a2.843 2.843 0 115.674 0v4.519a2.851 2.851 0 01-.725 2.081 3.377 3.377 0 01-4.228 0zm3.207-.968a1.6 1.6 0 00.352-1.11v-4.519a1.607 1.607 0 00-.349-1.111 1.743 1.743 0 00-2.188 0 1.607 1.607 0 00-.348 1.111v4.519a1.6 1.6 0 00.351 1.11 1.731 1.731 0 002.182 0z"/><path class="cls-10" d="M306.078 287.852l1.462-1.461" id="LINE-192" data-name="LINE"/><path class="cls-10" d="M307.54 289.313l-1.462-1.461" id="LINE-193" data-name="LINE"/><path class="cls-10" d="M418.462 287.853l-1.461 1.461" id="LINE-194" data-name="LINE"/><path class="cls-10" d="M417.001 286.391l1.461 1.462" id="LINE-195" data-name="LINE"/></g></svg>