<svg xmlns="http://www.w3.org/2000/svg" width="462.947" height="426.886" viewBox="0 0 347.21 320.163"><defs><pattern id="Новый_узор_3" data-name="Новый узор 3" width="35.15" height="35.15" patternTransform="translate(-7.256 -21.209)" patternUnits="userSpaceOnUse"><path class="cls-1" d="M0 0h35.15v35.15H0z"/><path class="cls-2" d="M35.149 35.15h35.15V70.3h-35.15z"/><path class="cls-2" d="M0 35.15h35.15V70.3H0zM-35.15 35.15H0V70.3h-35.15z"/><path class="cls-2" d="M35.149.001h35.15v35.15h-35.15z"/><path class="cls-2" d="M0 .001h35.15v35.15H0zM-35.15.001H0v35.15h-35.15zM35.149-35.149h35.15V.001h-35.15z"/><path class="cls-2" d="M0-35.149h35.15V.001H0zM-35.15-35.149H0V.001h-35.15z"/></pattern><pattern id="Новый_узор_4" data-name="Новый узор 4" width="9.822" height="9.822" patternTransform="translate(-4.109 -8.736)" patternUnits="userSpaceOnUse"><path class="cls-1" d="M0 0h9.822v9.822H0z"/><path class="cls-3" d="M14.733 19.647L9.82 14.735l4.913-4.913 4.912 4.913-4.912 4.912z"/><path class="cls-3" d="M4.911 19.647l-4.913-4.912 4.913-4.913 4.912 4.913-4.912 4.912z"/><path class="cls-3" d="M-4.912 19.647l-4.912-4.912 4.912-4.913 4.913 4.913-4.913 4.912zM14.733 9.825L9.82 4.912 14.733 0l4.912 4.912-4.912 4.913z"/><path class="cls-3" d="M4.911 9.825L-.002 4.912 4.911 0l4.912 4.912-4.912 4.913z"/><path class="cls-3" d="M-4.912 9.825l-4.912-4.913L-4.912 0 .001 4.912l-4.913 4.913zM14.733.003L9.82-4.91l4.913-4.912 4.912 4.912L14.733.003z"/><path class="cls-3" d="M4.911.003L-.002-4.91l4.913-4.912L9.823-4.91 4.911.003z"/><path class="cls-3" d="M-4.912.003L-9.824-4.91l4.912-4.912L.001-4.91-4.912.003z"/></pattern><pattern id="Новый_узор_5" data-name="Новый узор 5" width="22.872" height="23.072" patternTransform="translate(-8.441 -10.048)" patternUnits="userSpaceOnUse"><path class="cls-1" d="M0 0h22.872v23.072H0z"/><path class="cls-4" d="M22.664 17.512v11.12H.208v-11.12h22.456m.108-.108H.1V28.74h22.672V17.4zM22.664 5.976V17.1H.208V5.976h22.456m.108-.108H.1V17.2h22.672V5.868zM22.664-5.56V5.56H.208V-5.56h22.456m.108-.108H.1V5.668h22.672V-5.668z"/></pattern><style>.cls-1,.cls-11,.cls-13,.cls-2,.cls-3,.cls-4,.cls-9{fill:none}.cls-2{stroke:#ededed}.cls-11,.cls-2,.cls-3,.cls-9{stroke-linecap:round;stroke-linejoin:round;stroke-width:.4px}.cls-3,.cls-4{stroke:#e6e6e6}.cls-11,.cls-12,.cls-3,.cls-5{fill-rule:evenodd}.cls-4{stroke-miterlimit:10;stroke-width:.2px}.cls-5{fill:#fff}.cls-11,.cls-9{stroke:#000}.cls-13{stroke:gray;stroke-width:.6px;stroke-miterlimit:22.926}</style></defs><g id="_95" data-name="95"><path id="fon" class="cls-5" d="M347.01 5.573H303.5V.283H15.758v167.646l-14.9 34.7s4.945 2.637 14.9 2.888v100.565H303.5v-5.208h43.51z"/><path stroke="#dcdcdc" fill="url(#Новый_узор_3)" stroke-linecap="round" stroke-linejoin="round" stroke-width=".4" d="M15.758 5.573H347.01v295.301H15.758z" id="grid"/><g id="wet_zones" data-name="wet zones" fill-rule="evenodd"><path fill="url(#Новый_узор_4)" d="M78.939 213.964H24.827v24.183h4.611v35.52h10.124v21.35h49.501v-81.053H78.939z"/><path fill="url(#Новый_узор_5)" d="M24.827 9.352v97.866h15.492v15h49.122V9.352H24.827z"/></g><g id="walls"><path class="cls-9" d="M301.611 262.709v38.165m0 0h45.344m0 0V5.573m0 0h-45.344m0 0v29.285m0 0h.756m0 0v64.614m0 0h-.756m0 0l.031 80.107m0 0h.725m0 0v83.13m0 0h-.756M295.943 100.228h-15.492M303.501 100.228h-5.668M297.833 100.228h-1.89M295.943 34.102h-15.492M303.501 34.102h-5.668M297.833 34.102h-1.89M303.501 34.102v66.126M280.451 34.102v66.126M295.943 34.102v3.778M295.943 37.88h1.89M297.833 37.88v-3.778M297.833 71.888v-1.89M297.833 69.999h-1.89M295.943 69.999v1.89M296.888 37.88v32.118M295.943 37.88v32.118M297.833 69.999V37.881M295.943 71.888v.945M295.943 72.833h.944M296.888 72.833v.944M296.888 73.778h.945M297.833 73.778v-1.889M297.833 100.228v-3.779M297.833 96.449h-.945M296.888 96.449v.945M296.888 97.394h-.944M295.943 97.394v2.834M297.833 96.449V73.777M294.999 75.667V94.56M294.999 72.833v2.834M294.999 75.667h1.889M296.888 75.667v-2.834M296.888 72.833h-1.889M296.888 97.394V94.56M296.888 94.56h-1.889M294.999 94.56v2.834M294.999 97.394h1.889M296.888 94.56V75.667M294.999 75.667V94.56M295.943 75.667V94.56M297.833 34.102h-1.89M297.833 34.102h-1.89M303.501 34.102h-5.668M295.943 34.102h-15.492M297.833 100.228h-1.89M297.833 100.228h-1.89M303.501 100.228h-5.668M295.943 100.228h-15.492M303.501 100.228h-23.05M295.943 261.954h-15.492M303.501 261.954h-5.668M297.833 261.954h-1.89M295.943 178.823h-15.492M303.501 178.823h-5.668M297.833 178.823h-1.89M303.501 178.823v83.13M280.451 178.823v83.13M295.943 178.823v3.779M295.943 182.602h1.89M297.833 182.602v-3.779M297.833 218.499v-1.889M297.833 216.61h-1.89M295.943 216.61v1.889M296.888 182.602v34.008M295.943 182.602v34.008M297.833 216.61v-34.008M295.943 218.499v.945M295.943 219.444h.944M296.888 219.444v.944M296.888 220.388h.945M297.833 220.388v-1.889M297.833 261.954v-3.779M297.833 258.174h-.945M296.888 258.174v.945M296.888 259.119h-.944M295.943 259.119v2.834M294.999 259.119l-28.056-28.055M297.833 258.174v-37.785M294.999 222.278v34.007M294.999 219.444v2.834M294.999 222.278h1.889M296.888 222.278v-2.834M296.888 219.444h-1.889M296.888 259.119v-2.834M296.888 256.285h-1.889M294.999 256.285v2.834M294.999 259.119h1.889M296.888 256.285v-34.007M294.999 222.278v34.007M295.943 222.278v34.007M266.943 231.064A39.676 39.676 0 01295 219.444M295.825 182.595l-28.882 25.312M266.943 207.907A39.677 39.677 0 00295 219.528M297.833 178.823h-1.89M297.833 178.823h-1.89M303.501 178.823h-5.668M295.943 178.823h-15.492M297.833 261.954h-1.89M297.833 261.954h-1.89M303.501 261.954h-5.668M295.943 261.954h-15.492"/><path d="M303.5 305.974H190.945v-10.957h89.506v-33.063H303.5v44.02zm-287.743 0V205.538h1.511v-.453h7.558v100.889zm9.069-139.432h-7.557v-.453h-1.511V.283h9.069v166.259zM190.614.283H303.5V34.1h-23.05V9.351h-89.836V.283zm89.837 99.944H303.5v78.6h-23.05z" stroke-miterlimit="3" stroke-width=".5" stroke="#000" fill-rule="evenodd"/><path class="cls-11" d="M78.384 67.2a30.687 30.687 0 0011.057 2.272"/><path class="cls-12" d="M78.283 67.163l11.158-25.802h1.512v.453L79.67 67.764l-1.387-.601z"/><path class="cls-11" d="M128.222 116.948a34.857 34.857 0 012.585 12.564"/><path class="cls-12" d="M128.187 116.853l-29.271 12.659v1.511h.453l29.42-12.782-.602-1.388z"/><path class="cls-11" d="M.2 202.341a37.909 37.909 0 0015.558 3.2"/><path class="cls-12" d="M.1 202.298l1.387.599 15.782-36.355v-.453l-1.511.001L.1 202.298z"/><path class="cls-11" d="M55.169 223.523a28.858 28.858 0 01-1.962-9.558"/><path class="cls-12" d="M55.206 223.624l22.335-9.659.014-1.659-.614.272-22.336 9.659.601 1.387z"/><path class="cls-11" d="M114.189 223.521a28.816 28.816 0 01-1.962-9.556"/><path class="cls-12" d="M114.224 223.624l22.337-9.659-.006-1.629-.595.242-22.335 9.659.599 1.387z"/></g><g id="wall_2" data-name="wall 2"><path class="cls-5" d="M92.464 69.02h-1.511v.453h-1.511v52.765H40.319v-15.02H24.827v3.023H37.3v19.271H24.827v5.29h64.614v22.672h3.022V134.8h6.906v-3.779h-.453v-1.511h-6.453V69.018zM190.614.283v9.069H92.463v32.463h-1.51v-.454h-1.511V9.352H24.827V.283zM39.562 295v.017h49.5v-81.053H77.54v-1.51h-.453v-1.512h35.593v1.512h-.453v1.51H92.086v81.053H143.1v-81.053h-6.54v-1.51h-.453v-1.512h10.014v84.075h44.824v10.957H24.827v-10.957H36.54v-18.328H24.827v-3.023h1.511v-32.5h-1.511v-3.023h4.534v35.519h10.2V295zm240.889-165.488v5.29h-150.1v-3.779h.452v-1.511zm-255.624 81.43v3.022h28.38v-1.51h.453v-1.512zm15.492-81.43v-4.25h49.122v4.25z"/><path class="cls-13" d="M30.68.28l-5.85 5.15M38.1.28L27.81 9.35M45.53.28l-10.3 9.07M52.95.28L42.66 9.35M60.37.28L50.08 9.35M67.79.28l-10.3 9.07M75.21.28L64.92 9.35M82.64.28l-10.3 9.07M90.06.28l-10.3 9.07M97.48.28L87.19 9.35M104.91.28l-10.3 9.07M92.46 11.24l-3.02 2.66M112.33.28l-10.3 9.07M92.46 17.78l-3.02 2.66M119.75.28l-10.3 9.07M92.46 24.32l-3.02 2.66M127.17.28l-10.3 9.07M92.46 30.86l-3.02 2.66M134.59.28L124.3 9.35M92.46 37.4l-3.02 2.66M142.02.28l-10.3 9.07M149.44.28l-10.3 9.07M28.04 107.22l-3.21 2.83M156.86.28l-10.29 9.07M35.47 107.22l-3.43 3.02M164.28.28l-10.3 9.07M40.32 109.48l-3.02 2.66M171.7.28l-10.29 9.07M92.46 70.09l-3.02 2.66M25 129.51l-.17.15M40.32 116.02l-3.02 2.66M179.13.28l-10.3 9.07M40.68 122.24l-3.38 2.98M92.46 76.63l-3.02 2.66M32.43 129.51l-6.01 5.29M186.55.28l-10.3 9.07M92.46 83.17l-3.02 2.66M40.32 129.1l-6.47 5.7M48.1 122.24l-3.42 3.02M190.61 3.24l-6.93 6.11M92.46 89.71l-3.02 2.66M47.28 129.51l-6.01 5.29M55.53 122.24l-3.43 3.02M92.46 96.24l-3.02 2.66M54.7 129.51l-6.01 5.29M62.95 122.24l-3.43 3.02M92.46 102.78l-3.02 2.66M62.12 129.51l-6.01 5.29M70.37 122.24l-3.43 3.02M92.46 109.32l-3.02 2.66M69.54 129.51l-6.01 5.29M77.79 122.24l-3.43 3.02M92.46 115.86l-3.02 2.66M76.96 129.51l-6 5.29M85.21 122.24l-3.43 3.02M92.46 122.4l-3.25 2.86M84.38 129.51l-6 5.29M92.46 128.94l-6.66 5.86M98.92 129.78l-5.7 5.02M92.46 135.47l-3.02 2.66M92.46 142.01l-3.02 2.66M92.46 148.55l-3.02 2.66M92.46 155.09l-2.71 2.38M29.06 210.94l-3.43 3.02M36.48 210.94l-3.43 3.02M136.34 129.51l-5.99 5.28M43.9 210.94l-3.42 3.02M51.33 210.94l-3.43 3.02M143.77 129.51l-6.01 5.29M27.86 238.15l-3.03 2.67M151.19 129.51l-6.01 5.29M29.36 243.36l-3.02 2.66M158.6 129.51l-6 5.29M29.36 249.9l-3.02 2.66M166.03 129.51l-6.01 5.29M29.36 256.44l-3.02 2.66M81.01 210.94l-3.43 3.02M173.45 129.51l-6 5.29M29.36 262.98l-3.02 2.66M88.44 210.94l-3.43 3.02M180.87 129.51l-6 5.29M29.36 269.52l-3.02 2.66M95.86 210.94l-3.43 3.02M92.09 214.26l-3.03 2.67M188.3 129.51l-6.01 5.29M32.07 273.67l-3.43 3.02M103.28 210.94l-3.43 3.02M92.09 220.8l-3.03 2.67M195.72 129.51l-6 5.29M39.5 273.67l-3.43 3.02M92.09 227.34l-3.03 2.67M110.71 210.94l-3.43 3.02M203.14 129.51l-6 5.29M39.56 280.15l-3.02 2.66M92.09 233.87l-3.03 2.67M210.56 129.51l-6.01 5.29M39.56 286.69l-3.02 2.66M92.09 240.41l-3.03 2.67M30.1 295.02l-5.27 4.64M217.98 129.51l-6 5.29M39.56 293.23L25.1 305.97M92.09 246.95l-3.03 2.67M225.41 129.51l-6.01 5.29M44.95 295.02l-12.43 10.95M92.09 253.49l-3.03 2.67M140.39 210.94l-3.42 3.02M232.83 129.51l-6 5.29M52.37 295.02l-12.43 10.95M146.12 212.44l-3.02 2.66M92.09 260.03l-3.03 2.67M240.26 129.51l-6.01 5.29M59.79 295.02l-12.43 10.95M146.12 218.97l-3.02 2.66M92.09 266.57l-3.03 2.67M247.68 129.51l-6.01 5.29M67.21 295.02l-12.43 10.95M146.12 225.51l-3.02 2.66M92.09 273.11l-3.03 2.66M255.09 129.51l-6 5.29M74.64 295.02l-12.43 10.95M146.12 232.05l-3.02 2.66M92.09 279.64l-3.03 2.67M262.52 129.51l-6.01 5.29M82.06 295.02l-12.43 10.95M146.12 238.59l-3.02 2.66M92.09 286.18l-3.03 2.67M269.94 129.51l-6 5.29M92.09 292.72l-15.04 13.25M146.12 245.13l-3.02 2.66M277.36 129.51l-6 5.29M96.91 295.02l-12.43 10.95M146.12 251.67l-3.02 2.66M280.45 133.33l-1.67 1.47M146.12 258.21l-3.02 2.66M104.33 295.02L91.9 305.97M146.12 264.75l-3.02 2.66M111.75 295.02l-12.43 10.95M146.12 271.28l-3.02 2.66M119.17 295.02l-12.43 10.95M146.12 277.82l-3.02 2.66M126.59 295.02l-12.43 10.95M146.12 284.36l-3.02 2.66M134.02 295.02l-12.43 10.95M146.12 290.9l-3.02 2.66M141.44 295.02l-12.43 10.95M148.86 295.02l-12.43 10.95M156.28 295.02l-12.43 10.95M163.7 295.02l-12.43 10.95M171.13 295.02l-12.43 10.95M178.55 295.02l-12.43 10.95M185.97 295.02l-12.43 10.95M190.95 297.17l-9.99 8.8M190.95 303.71l-2.56 2.26"/><path d="M92.464 69.02h-1.511v.453h-1.511v52.765H40.319v-15.02H24.827v3.023H37.3v19.271H24.827v5.29h64.614v22.672h3.022V134.8h6.906v-3.779h-.453v-1.511h-6.453V69.018zM190.614.283v9.069H92.463v32.463h-1.51v-.454h-1.511V9.352H24.827V.283zM39.562 295v.017h49.5v-81.053H77.54v-1.51h-.453v-1.512h35.593v1.512h-.453v1.51H92.086v81.053H143.1v-81.053h-6.54v-1.51h-.453v-1.512h10.014v84.075h44.824v10.957H24.827v-10.957H36.54v-18.328H24.827v-3.023h1.511v-32.5h-1.511v-3.023h4.534v35.519h10.2V295zm240.889-165.488v5.29h-150.1v-3.779h.452v-1.511zm-255.624 81.43H53.66v1.512h-.453v1.51h-28.38v-3.022zm15.492-81.43v-4.25h49.122v4.25z" stroke-width=".567" stroke-miterlimit="22.926" stroke="#000" fill-rule="evenodd" fill="none"/></g></g><g id="sizes"><path class="cls-9" d="M32.743 166.089h-12.45" id="LINE"/><path class="cls-9" d="M32.743 205.538h-12.45" id="LINE-2" data-name="LINE"/><path class="cls-9" d="M32.744 205.538v-39.449" id="LINE-3" data-name="LINE"/><path d="M44.963 194.769v1.394h-8.422l.868 1.415h-1.442l-.944-1.415v-1.394zM44.963 190.113v1.4h-8.422l.868 1.415h-1.442l-.944-1.415v-1.4zM44.32 187.137a2.865 2.865 0 01-2.078.721h-4.518a2.856 2.856 0 01-2.082-.725 3.389 3.389 0 010-4.229 2.861 2.861 0 012.085-.72h4.518a2.856 2.856 0 012.082.724 3.38 3.38 0 010 4.229zm-.967-3.207a1.591 1.591 0 00-1.111-.352h-4.518a1.6 1.6 0 00-1.111.349 1.738 1.738 0 000 2.187 1.6 1.6 0 001.111.349h4.518a1.591 1.591 0 001.111-.352 1.733 1.733 0 000-2.181zM44.32 179.412a2.861 2.861 0 01-2.078.721h-4.518a2.852 2.852 0 01-2.082-.725 3.388 3.388 0 010-4.228 2.858 2.858 0 012.085-.721h4.518a2.852 2.852 0 012.082.725 3.379 3.379 0 010 4.228zm-.967-3.207a1.6 1.6 0 00-1.111-.351h-4.518a1.6 1.6 0 00-1.111.348 1.74 1.74 0 000 2.188 1.6 1.6 0 001.111.348h4.518a1.6 1.6 0 001.111-.351 1.735 1.735 0 000-2.182z"/><path class="cls-9" d="M32.744 166.089l1.461 1.461" id="LINE-4" data-name="LINE"/><path class="cls-9" d="M31.283 167.55l1.461-1.461" id="LINE-5" data-name="LINE"/><path class="cls-9" d="M32.743 205.494l-1.461-1.461" id="LINE-6" data-name="LINE"/><path class="cls-9" d="M34.204 204.033l-1.461 1.461" id="LINE-7" data-name="LINE"/><path class="cls-9" d="M321.973 178.823h-24.14" id="LINE-8" data-name="LINE"/><path class="cls-9" d="M322.035 261.953h-24.139" id="LINE-9" data-name="LINE"/><path class="cls-9" d="M322.036 261.953l-.062-83.005" id="LINE-10" data-name="LINE"/><path d="M317.6 233.036l-4.621-3.466a3.416 3.416 0 00-.823-.467 2.169 2.169 0 00-.8-.168h-.013a1.205 1.205 0 00-.923.348 1.392 1.392 0 00-.328.992 1.368 1.368 0 00.359.984 1.629 1.629 0 001.015.458h.006v1.442h-.006a3.721 3.721 0 01-1.459-.5 2.559 2.559 0 01-.923-.981 2.924 2.924 0 01-.319-1.388 3.451 3.451 0 01.305-1.517 2.131 2.131 0 01.885-.957 2.805 2.805 0 011.4-.329h.007a3.106 3.106 0 011.1.219 4.733 4.733 0 011.107.609l3.91 2.878v-3.76h1.326v5.6zM318.812 223.254v1.4h-8.421l.868 1.415h-1.443l-.943-1.415v-1.4zM313.877 217.478l.246.007a1.031 1.031 0 01.462.515 2.083 2.083 0 01.146.818 2.188 2.188 0 01-.362 1.25 2.364 2.364 0 01-1.021.838 3.7 3.7 0 01-1.529.3h-.007a3.821 3.821 0 01-1.647-.324 2.293 2.293 0 01-1.039-.951 3 3 0 01-.356-1.5 2.933 2.933 0 01.363-1.5 2.325 2.325 0 011.052-.946 3.876 3.876 0 011.662-.326h.006a5.186 5.186 0 011.139.137 6.955 6.955 0 011.2.39l.182.082c.062.027.122.056.181.089l4.258 2.119v1.5zm-.861-.066a1.949 1.949 0 00-1.251-.358h-.007a1.857 1.857 0 00-1.217.358 1.419 1.419 0 000 2.037 1.852 1.852 0 001.224.36h.006a1.915 1.915 0 001.248-.36 1.393 1.393 0 000-2.037zM318.17 213.093a2.867 2.867 0 01-2.078.721h-4.519a2.854 2.854 0 01-2.081-.725 3.391 3.391 0 010-4.229 2.863 2.863 0 012.085-.72h4.519a2.856 2.856 0 012.082.724 3.38 3.38 0 010 4.229zm-.967-3.207a1.593 1.593 0 00-1.111-.352h-4.519a1.6 1.6 0 00-1.11.349 1.738 1.738 0 000 2.187 1.6 1.6 0 001.11.349h4.519a1.6 1.6 0 001.111-.351 1.735 1.735 0 000-2.182z"/><path class="cls-9" d="M321.974 178.823l1.461 1.461" id="LINE-11" data-name="LINE"/><path class="cls-9" d="M320.512 180.284l1.462-1.461" id="LINE-12" data-name="LINE"/><path class="cls-9" d="M322.076 261.953l-1.462-1.461" id="LINE-13" data-name="LINE"/><path class="cls-9" d="M323.537 260.492l-1.461 1.461" id="LINE-14" data-name="LINE"/><path class="cls-9" d="M341.59 300.874l-.222-295.301" id="LINE-15" data-name="LINE"/><path d="M329.592 160.665l8.695 2.57v1.484l-8.613-2.57v2.529h1.426v1.394h-2.754v-5.407zM338.048 157.425a2.5 2.5 0 01-.968 1.057 2.781 2.781 0 01-1.452.372h-.164a2.8 2.8 0 01-1.4-.372 2.5 2.5 0 01-.991-1 2.175 2.175 0 01-.831.845 2.239 2.239 0 01-1.144.318h-.24a2.651 2.651 0 01-1.37-.349 2.362 2.362 0 01-.916-.984 3.519 3.519 0 010-2.954 2.362 2.362 0 01.916-.984 2.651 2.651 0 011.37-.349h.24a2.2 2.2 0 011.155.326 2.149 2.149 0 01.82.857 2.576 2.576 0 01.995-1.008 2.726 2.726 0 011.4-.38h.164a2.781 2.781 0 011.452.372 2.5 2.5 0 01.968 1.057 3.848 3.848 0 010 3.172zm-5.671-2.324a1.248 1.248 0 00-.516-.5 1.623 1.623 0 00-.772-.178h-.1a1.5 1.5 0 00-.738.178 1.22 1.22 0 00-.5.5 1.644 1.644 0 000 1.476 1.22 1.22 0 00.5.5 1.517 1.517 0 00.745.178h.1a1.6 1.6 0 00.763-.178 1.25 1.25 0 00.512-.5 1.587 1.587 0 000-1.476zm4.481-.116a1.385 1.385 0 00-.536-.572 1.555 1.555 0 00-.8-.2h-.095a1.564 1.564 0 00-.8.2 1.374 1.374 0 00-.537.572 2 2 0 000 1.708 1.368 1.368 0 00.54.572 1.583 1.583 0 00.806.2h.1a1.538 1.538 0 00.793-.2 1.362 1.362 0 00.529-.572 1.849 1.849 0 00.189-.854 1.825 1.825 0 00-.189-.854zM338.287 148.477v1.394h-8.422l.868 1.415h-1.442l-.943-1.415v-1.394zM338.1 144.781a2.416 2.416 0 01-.855.952 3.41 3.41 0 01-1.347.488h-.006v-1.4h.006a1.294 1.294 0 00.852-.437 1.421 1.421 0 00.3-.944 1.259 1.259 0 00-.449-1.035 1.936 1.936 0 00-1.26-.366h-.834a1.933 1.933 0 00-1.255.366 1.261 1.261 0 00-.447 1.035 1.317 1.317 0 00.2.7 1.953 1.953 0 00.574.588V146h-5.236v-5.065h1.326v3.671h2.235a1.975 1.975 0 01-.328-.582 1.917 1.917 0 01-.116-.656 2.9 2.9 0 01.355-1.473 2.284 2.284 0 011.039-.93 3.9 3.9 0 011.648-.317h.834a3.773 3.773 0 011.647.328 2.331 2.331 0 011.043.957 3.012 3.012 0 01.359 1.51 2.941 2.941 0 01-.285 1.338z"/><path class="cls-9" d="M341.448 5.573l1.461 1.461" id="LINE-16" data-name="LINE"/><path class="cls-9" d="M339.987 7.034l1.461-1.461" id="LINE-17" data-name="LINE"/><path class="cls-9" d="M341.55 300.874l-1.461-1.461" id="LINE-18" data-name="LINE"/><path class="cls-9" d="M343.011 299.413l-1.461 1.461" id="LINE-19" data-name="LINE"/><path class="cls-9" d="M321.973 100.227h-24.14" id="LINE-20" data-name="LINE"/><path class="cls-9" d="M322.035 178.823h-24.139" id="LINE-21" data-name="LINE"/><path class="cls-9" d="M322.034 178.823l-.059-78.596" id="LINE-22" data-name="LINE"/><path d="M317.6 151.734l-4.621-3.466a3.42 3.42 0 00-.823-.468 2.19 2.19 0 00-.8-.168h-.013a1.2 1.2 0 00-.923.349 1.388 1.388 0 00-.328.991 1.368 1.368 0 00.359.984 1.623 1.623 0 001.015.458h.006v1.443h-.006a3.721 3.721 0 01-1.459-.5 2.554 2.554 0 01-.923-.982 2.924 2.924 0 01-.319-1.388 3.454 3.454 0 01.305-1.517 2.136 2.136 0 01.885-.957 2.805 2.805 0 011.4-.328h.007a3.1 3.1 0 011.1.218 4.733 4.733 0 011.107.609l3.91 2.878v-3.76h1.326v5.606zM318.812 141.951v1.4h-8.421l.868 1.415h-1.443l-.943-1.415v-1.4zM317.6 139.846l-4.621-3.466a3.454 3.454 0 00-.823-.468 2.19 2.19 0 00-.8-.168h-.013a1.2 1.2 0 00-.923.349 1.388 1.388 0 00-.328.991 1.367 1.367 0 00.359.984 1.623 1.623 0 001.015.458h.006v1.443h-.006a3.721 3.721 0 01-1.459-.5 2.554 2.554 0 01-.923-.982 2.923 2.923 0 01-.319-1.387 3.456 3.456 0 01.305-1.518 2.136 2.136 0 01.885-.957 2.805 2.805 0 011.4-.328h.007a3.084 3.084 0 011.1.219 4.692 4.692 0 011.107.608l3.91 2.878v-3.76h1.326v5.606zM310.117 127.329l8.695 2.571v1.483l-8.613-2.57v2.529h1.429v1.394h-2.755v-5.407z"/><path class="cls-9" d="M321.974 100.227l1.461 1.462" id="LINE-23" data-name="LINE"/><path class="cls-9" d="M320.512 101.689l1.462-1.462" id="LINE-24" data-name="LINE"/><path class="cls-9" d="M322.076 178.948l-1.462-1.461" id="LINE-25" data-name="LINE"/><path class="cls-9" d="M323.537 177.487l-1.461 1.461" id="LINE-26" data-name="LINE"/><path class="cls-9" d="M321.973 34.101h-24.14" id="LINE-27" data-name="LINE"/><path class="cls-9" d="M322.035 100.228h-24.139" id="LINE-28" data-name="LINE"/><path class="cls-9" d="M322.03 100.228l-.05-66.126" id="LINE-29" data-name="LINE"/><path d="M318.812 76.728v1.394h-8.421l.868 1.415h-1.443l-.943-1.415v-1.394zM310.117 69.338l8.695 2.57v1.484l-8.612-2.571v2.53h1.429v1.394h-2.755v-5.407zM318.812 65.025v1.394h-8.421l.868 1.415h-1.443l-.943-1.415v-1.394zM318.17 62.048a2.867 2.867 0 01-2.078.721h-4.519a2.854 2.854 0 01-2.081-.725 3.39 3.39 0 010-4.228 2.859 2.859 0 012.085-.721h4.519a2.856 2.856 0 012.082.724 3.38 3.38 0 010 4.229zm-.967-3.207a1.6 1.6 0 00-1.111-.352h-4.519a1.6 1.6 0 00-1.11.349 1.74 1.74 0 000 2.188 1.6 1.6 0 001.11.348h4.519a1.6 1.6 0 001.111-.351 1.735 1.735 0 000-2.182z"/><path class="cls-9" d="M321.974 34.101l1.461 1.462" id="LINE-30" data-name="LINE"/><path class="cls-9" d="M320.512 35.563l1.462-1.462" id="LINE-31" data-name="LINE"/><path class="cls-9" d="M322.076 100.228l-1.462-1.461" id="LINE-32" data-name="LINE"/><path class="cls-9" d="M323.537 98.767l-1.461 1.461" id="LINE-33" data-name="LINE"/><path class="cls-9" d="M321.973 9.521h-24.14" id="LINE-34" data-name="LINE"/><path class="cls-9" d="M322.035 34.101h-24.139" id="LINE-35" data-name="LINE"/><path class="cls-9" d="M322.014 34.101l-.018-24.58" id="LINE-36" data-name="LINE"/><path d="M318.563 31.061a2.293 2.293 0 01-1.025.947 3.718 3.718 0 01-1.624.324h-.007a5.545 5.545 0 01-1.162-.13 6.787 6.787 0 01-1.2-.376 2.127 2.127 0 01-.2-.089l-.2-.095-4.279-2.16v-1.5l4.956 2.536-.246-.007a1.2 1.2 0 01-.5-.5 1.59 1.59 0 01-.178-.766 2.435 2.435 0 01.349-1.326 2.182 2.182 0 011.015-.841 4.05 4.05 0 011.6-.287h.007a3.8 3.8 0 011.64.325 2.294 2.294 0 011.04.95 3.355 3.355 0 010 3zm-1.4-2.52a1.726 1.726 0 00-1.163-.358h-.007a1.968 1.968 0 00-1.288.376 1.311 1.311 0 00-.455 1.073 1.133 1.133 0 00.458.964 2.133 2.133 0 001.292.342 1.706 1.706 0 001.166-.36 1.475 1.475 0 000-2.037zM318.573 23.616a2.5 2.5 0 01-.967 1.057 2.788 2.788 0 01-1.453.372h-.164a2.8 2.8 0 01-1.4-.372 2.489 2.489 0 01-.991-.995 2.193 2.193 0 01-.83.845 2.247 2.247 0 01-1.146.317h-.239a2.636 2.636 0 01-1.37-.349 2.343 2.343 0 01-.916-.984 3.507 3.507 0 010-2.953 2.352 2.352 0 01.916-.985 2.645 2.645 0 011.37-.348h.239a2.2 2.2 0 011.155.325 2.158 2.158 0 01.821.857 2.573 2.573 0 011-1.007 2.722 2.722 0 011.4-.38h.164a2.788 2.788 0 011.453.372 2.494 2.494 0 01.967 1.056 3.848 3.848 0 010 3.172zm-5.67-2.324a1.254 1.254 0 00-.516-.5 1.63 1.63 0 00-.773-.178h-.1a1.509 1.509 0 00-.738.178 1.226 1.226 0 00-.495.5 1.646 1.646 0 000 1.477 1.226 1.226 0 00.495.5 1.523 1.523 0 00.745.177h.1a1.6 1.6 0 00.763-.177 1.262 1.262 0 00.512-.5 1.6 1.6 0 000-1.477zm4.481-.116a1.382 1.382 0 00-.536-.571 1.561 1.561 0 00-.8-.2h-.1a1.567 1.567 0 00-.8.2 1.384 1.384 0 00-.537.571 2.007 2.007 0 000 1.709 1.384 1.384 0 00.54.571 1.59 1.59 0 00.807.2h.1a1.532 1.532 0 00.793-.2 1.37 1.37 0 00.531-.571 1.863 1.863 0 00.187-.855 1.825 1.825 0 00-.185-.854zM318.621 15.628a2.4 2.4 0 01-.854.951 3.427 3.427 0 01-1.347.489h-.007v-1.4h.007a1.291 1.291 0 00.851-.438 1.413 1.413 0 00.3-.943 1.261 1.261 0 00-.447-1.035 1.944 1.944 0 00-1.262-.366h-.834a1.93 1.93 0 00-1.254.366 1.259 1.259 0 00-.448 1.035 1.314 1.314 0 00.205.7 1.953 1.953 0 00.574.588v1.272h-5.236v-5.064h1.331v3.671h2.236a2.018 2.018 0 01-.329-.581 1.922 1.922 0 01-.116-.656 2.889 2.889 0 01.356-1.474 2.282 2.282 0 011.039-.929 3.9 3.9 0 011.647-.318h.834a3.789 3.789 0 011.648.328 2.331 2.331 0 011.043.957 3 3 0 01.358 1.511 2.931 2.931 0 01-.295 1.336z"/><path class="cls-9" d="M321.974 9.521l1.461 1.461" id="LINE-37" data-name="LINE"/><path class="cls-9" d="M320.512 10.982l1.462-1.461" id="LINE-38" data-name="LINE"/><path class="cls-9" d="M322.076 34.102l-1.462-1.461" id="LINE-39" data-name="LINE"/><path class="cls-9" d="M323.537 32.641l-1.461 1.461" id="LINE-40" data-name="LINE"/><path class="cls-9" d="M321.973 261.953h-24.14" id="LINE-41" data-name="LINE"/><path class="cls-9" d="M322.035 294.886h-24.139" id="LINE-42" data-name="LINE"/><path class="cls-9" d="M322.017 294.886l-.024-32.932" id="LINE-43" data-name="LINE"/><path d="M313.877 284.944l.246.007a1.033 1.033 0 01.462.516 2.078 2.078 0 01.146.817 2.189 2.189 0 01-.362 1.251 2.364 2.364 0 01-1.021.838 3.714 3.714 0 01-1.529.3h-.007a3.821 3.821 0 01-1.647-.324 2.293 2.293 0 01-1.039-.951 3 3 0 01-.356-1.5 2.933 2.933 0 01.363-1.5 2.333 2.333 0 011.052-.947 3.891 3.891 0 011.662-.325h.006a5.186 5.186 0 011.139.137 7.038 7.038 0 011.2.389l.182.083c.062.027.122.056.181.088l4.258 2.12v1.5zm-.861-.065a1.949 1.949 0 00-1.251-.358h-.007a1.857 1.857 0 00-1.217.358 1.419 1.419 0 000 2.037 1.858 1.858 0 001.224.36h.006a1.921 1.921 0 001.248-.36 1.393 1.393 0 000-2.037zM317.6 281.431l-4.621-3.466a3.454 3.454 0 00-.823-.468 2.19 2.19 0 00-.8-.168h-.013a1.2 1.2 0 00-.923.349 1.388 1.388 0 00-.328.991 1.368 1.368 0 00.359.984 1.623 1.623 0 001.015.458h.006v1.443h-.006a3.721 3.721 0 01-1.459-.5 2.554 2.554 0 01-.923-.982 2.923 2.923 0 01-.319-1.387 3.456 3.456 0 01.305-1.518 2.136 2.136 0 01.885-.957 2.805 2.805 0 011.4-.328h.007a3.084 3.084 0 011.1.219 4.692 4.692 0 011.107.608l3.91 2.878v-3.76h1.326v5.606zM318.17 273.327a2.862 2.862 0 01-2.078.721h-4.519a2.849 2.849 0 01-2.081-.725 3.39 3.39 0 010-4.228 2.859 2.859 0 012.085-.721h4.519a2.852 2.852 0 012.082.725 3.379 3.379 0 010 4.228zm-.967-3.207a1.6 1.6 0 00-1.111-.351h-4.519a1.6 1.6 0 00-1.11.348 1.74 1.74 0 000 2.188 1.6 1.6 0 001.11.348h4.519a1.6 1.6 0 001.111-.351 1.735 1.735 0 000-2.182z"/><path class="cls-9" d="M321.974 261.953l1.461 1.461" id="LINE-44" data-name="LINE"/><path class="cls-9" d="M320.512 263.414l1.462-1.461" id="LINE-45" data-name="LINE"/><path class="cls-9" d="M322.076 294.886l-1.462-1.461" id="LINE-46" data-name="LINE"/><path class="cls-9" d="M323.537 293.425l-1.461 1.461" id="LINE-47" data-name="LINE"/><path class="cls-9" d="M346.955 318.4v-24.14" id="LINE-48" data-name="LINE"/><path class="cls-9" d="M303.523 318.462v-24.14" id="LINE-49" data-name="LINE"/><path class="cls-9" d="M303.523 318.448l43.432-.033" id="LINE-50" data-name="LINE"/><path d="M315.071 315.239h-1.394v-8.421l-1.415.868v-1.443l1.415-.943h1.394zM318.048 314.6a2.864 2.864 0 01-.721-2.078V308a2.853 2.853 0 01.725-2.082 3.391 3.391 0 014.228 0A2.858 2.858 0 01323 308v4.519a2.559 2.559 0 01-2.837 2.823 2.812 2.812 0 01-2.115-.742zm3.207-.968a1.593 1.593 0 00.351-1.11V308a1.608 1.608 0 00-.348-1.111 1.743 1.743 0 00-2.188 0 1.608 1.608 0 00-.348 1.111v4.519a1.593 1.593 0 00.351 1.11 1.731 1.731 0 002.182 0zM328.572 310.3l-.007.246a1.031 1.031 0 01-.515.462 2.083 2.083 0 01-.818.146 2.2 2.2 0 01-1.251-.362 2.375 2.375 0 01-.838-1.022 3.709 3.709 0 01-.3-1.528v-.007a3.818 3.818 0 01.324-1.647 2.288 2.288 0 01.951-1.039 3 3 0 011.5-.356 2.923 2.923 0 011.5.363 2.315 2.315 0 01.946 1.052 3.873 3.873 0 01.326 1.662v.006a5.17 5.17 0 01-.137 1.138 6.937 6.937 0 01-.39 1.2l-.082.181a2.04 2.04 0 01-.089.182l-2.119 4.258h-1.5zm.066-.861a1.951 1.951 0 00.358-1.251v-.007a1.855 1.855 0 00-.358-1.217 1.419 1.419 0 00-2.037 0 1.85 1.85 0 00-.36 1.224v.006a1.914 1.914 0 00.36 1.247 1.392 1.392 0 002.037 0zM333.676 315.048a2.407 2.407 0 01-.951-.855 3.385 3.385 0 01-.489-1.346v-.007h1.395v.007a1.292 1.292 0 00.437.85 1.413 1.413 0 00.944.305 1.261 1.261 0 001.035-.447 1.944 1.944 0 00.366-1.262v-.834a1.93 1.93 0 00-.366-1.254 1.259 1.259 0 00-1.035-.448 1.317 1.317 0 00-.7.2 1.964 1.964 0 00-.588.574h-1.271V305.3h5.065v1.326h-3.67v2.235a2 2 0 01.581-.328 1.894 1.894 0 01.656-.116 2.875 2.875 0 011.473.356 2.279 2.279 0 01.93 1.039 3.9 3.9 0 01.318 1.647v.834a3.778 3.778 0 01-.329 1.648 2.318 2.318 0 01-.957 1.042 2.989 2.989 0 01-1.51.359 2.928 2.928 0 01-1.334-.294z"/><path class="cls-9" d="M346.834 318.4l-1.461 1.462" id="LINE-51" data-name="LINE"/><path class="cls-9" d="M345.373 316.939l1.461 1.461" id="LINE-52" data-name="LINE"/><path class="cls-9" d="M303.501 318.502l1.461-1.461" id="LINE-53" data-name="LINE"/><path class="cls-9" d="M304.962 319.963l-1.461-1.461" id="LINE-54" data-name="LINE"/><path class="cls-9" d="M89.441 14.336H24.827" id="LINE-55" data-name="LINE"/><path d="M44.985 27.385h-1.394v-8.422l-1.415.868v-1.442l1.415-.944h1.394zM52.375 18.69l-2.57 8.7h-1.484l2.571-8.613h-2.53V20.2h-1.394v-2.755h5.407zM54.809 27.135a2.279 2.279 0 01-.948-1.025 3.718 3.718 0 01-.324-1.624v-.006a5.53 5.53 0 01.13-1.162 6.771 6.771 0 01.376-1.2c.027-.068.057-.136.089-.2s.063-.131.095-.2l2.161-4.28h1.5L55.355 22.4l.007-.246a1.206 1.206 0 01.5-.5 1.59 1.59 0 01.766-.177 2.44 2.44 0 011.326.348 2.187 2.187 0 01.841 1.015 4.05 4.05 0 01.287 1.6v.007a3.791 3.791 0 01-.325 1.641 2.3 2.3 0 01-.949 1.039 3.355 3.355 0 01-3 0zm2.519-1.4a1.726 1.726 0 00.358-1.169v-.006a1.967 1.967 0 00-.376-1.289 1.313 1.313 0 00-1.073-.455 1.133 1.133 0 00-.964.458 2.133 2.133 0 00-.341 1.292v.007a1.7 1.7 0 00.359 1.166 1.473 1.473 0 002.037 0zM61.647 26.742a2.865 2.865 0 01-.72-2.078v-4.518a2.856 2.856 0 01.724-2.082 3.389 3.389 0 014.229 0 2.862 2.862 0 01.721 2.085v4.518a2.856 2.856 0 01-.725 2.082 3.38 3.38 0 01-4.229 0zm3.207-.967a1.591 1.591 0 00.352-1.111v-4.518a1.6 1.6 0 00-.349-1.111 1.742 1.742 0 00-2.187 0 1.6 1.6 0 00-.349 1.111v4.518a1.591 1.591 0 00.352 1.111 1.733 1.733 0 002.181 0z"/><path class="cls-9" d="M24.827 14.336l1.461-1.462" id="LINE-56" data-name="LINE"/><path class="cls-9" d="M26.288 15.797l-1.461-1.461" id="LINE-57" data-name="LINE"/><path class="cls-9" d="M89.441 14.336l-1.461 1.461" id="LINE-58" data-name="LINE"/><path class="cls-9" d="M87.98 12.875l1.461 1.461" id="LINE-59" data-name="LINE"/><path class="cls-9" d="M234.872 295.017V134.802" id="LINE-60" data-name="LINE"/><path d="M228.19 229.217l-7.2-3.336v-1.436l7.116 3.254v-4.874h1.294v6.392zm-3.11-4.286v-1.361h5.851v1.361zM231.027 219.38l-.3.636a2.513 2.513 0 01-.882 1.022 3.182 3.182 0 01-1.391.488v-1.421a1.5 1.5 0 00.7-.267 1.238 1.238 0 00.407-.53 1.992 1.992 0 00.133-.762 1.483 1.483 0 00-.369-1.073 1.376 1.376 0 00-1.039-.383h-.3a1.677 1.677 0 00-1.152.362 1.3 1.3 0 00-.407 1.026v.7h-1.326v-.7a1.167 1.167 0 00-.348-.9 1.4 1.4 0 00-.985-.321h-.307a1.19 1.19 0 00-.91.339 1.339 1.339 0 00-.321.96 1.477 1.477 0 00.133.636 1.214 1.214 0 00.411.474 1.848 1.848 0 00.693.284v1.415a3.611 3.611 0 01-1.394-.515 2.534 2.534 0 01-.882-.961 2.855 2.855 0 01-.3-1.333 2.754 2.754 0 01.677-1.989 2.519 2.519 0 011.907-.7h.164a2.145 2.145 0 011.3.4 2.277 2.277 0 01.807 1.141 2.017 2.017 0 01.8-1.26 2.643 2.643 0 011.586-.449h.164a3.065 3.065 0 011.483.335 2.22 2.22 0 01.937.975 3.4 3.4 0 01.321 1.541zM231.027 211.977l-.3.635a2.516 2.516 0 01-.882 1.023 3.182 3.182 0 01-1.391.488V212.7a1.509 1.509 0 00.7-.266 1.241 1.241 0 00.407-.531 1.983 1.983 0 00.133-.761 1.485 1.485 0 00-.369-1.074 1.379 1.379 0 00-1.039-.382h-.3a1.677 1.677 0 00-1.152.362 1.3 1.3 0 00-.407 1.025v.7h-1.326v-.7a1.166 1.166 0 00-.348-.9 1.4 1.4 0 00-.985-.321h-.307a1.19 1.19 0 00-.91.339 1.337 1.337 0 00-.321.96 1.469 1.469 0 00.133.635 1.21 1.21 0 00.411.475 1.848 1.848 0 00.693.284v1.415a3.627 3.627 0 01-1.394-.516 2.531 2.531 0 01-.882-.96 2.855 2.855 0 01-.3-1.333 2.758 2.758 0 01.677-1.99 2.522 2.522 0 011.907-.7h.164a2.146 2.146 0 011.3.4 2.277 2.277 0 01.807 1.141 2.019 2.019 0 01.8-1.261 2.649 2.649 0 011.586-.448h.164a3.054 3.054 0 011.483.335 2.22 2.22 0 01.937.975 3.4 3.4 0 01.321 1.541zM230.733 204.87a2.407 2.407 0 01-.855.951 3.385 3.385 0 01-1.346.489h-.007v-1.4h.007a1.3 1.3 0 00.851-.437 1.423 1.423 0 00.3-.944 1.259 1.259 0 00-.448-1.035 1.941 1.941 0 00-1.261-.366h-.834a1.928 1.928 0 00-1.254.366 1.259 1.259 0 00-.448 1.035 1.317 1.317 0 00.2.7 1.95 1.95 0 00.574.587v1.272h-5.236v-5.065h1.326v3.67h2.235a1.979 1.979 0 01-.328-.581 1.922 1.922 0 01-.116-.656 2.9 2.9 0 01.355-1.474 2.285 2.285 0 011.04-.929 3.892 3.892 0 011.647-.318h.834a3.77 3.77 0 011.647.329 2.32 2.32 0 011.043.957 3 3 0 01.359 1.51 2.928 2.928 0 01-.285 1.339z"/><path class="cls-9" d="M234.872 134.802l1.461 1.462" id="LINE-61" data-name="LINE"/><path class="cls-9" d="M233.41 136.264l1.462-1.462" id="LINE-62" data-name="LINE"/><path class="cls-9" d="M234.871 295.041l-1.461-1.461" id="LINE-63" data-name="LINE"/><path class="cls-9" d="M236.332 293.58l-1.461 1.461" id="LINE-64" data-name="LINE"/><path class="cls-9" d="M89.441 152.243H24.827" id="LINE-65" data-name="LINE"/><path d="M47.136 149.673h-1.4v-8.422l-1.415.868v-1.442l1.415-.943h1.4zM54.525 140.978l-2.57 8.695h-1.483l2.57-8.613h-2.529v1.428h-1.395v-2.754h5.407zM55.756 146.939l3.336-7.2h1.435l-3.254 7.117h4.874v1.292h-6.391zm4.286-3.111H61.4v5.852h-1.36zM64.577 149.03a2.865 2.865 0 01-.721-2.078v-4.518a2.856 2.856 0 01.725-2.082 3.389 3.389 0 014.229 0 2.861 2.861 0 01.72 2.085v4.518a2.558 2.558 0 01-2.837 2.824 2.816 2.816 0 01-2.116-.749zm3.207-.967a1.6 1.6 0 00.352-1.111v-4.518a1.605 1.605 0 00-.349-1.111 1.742 1.742 0 00-2.187 0 1.6 1.6 0 00-.349 1.111v4.518a1.6 1.6 0 00.351 1.111 1.735 1.735 0 002.182 0z"/><path class="cls-9" d="M24.827 152.243l1.462-1.461" id="LINE-66" data-name="LINE"/><path class="cls-9" d="M26.289 153.704l-1.462-1.461" id="LINE-67" data-name="LINE"/><path class="cls-9" d="M89.441 152.244l-1.461 1.461" id="LINE-68" data-name="LINE"/><path class="cls-9" d="M87.98 150.782l1.461 1.462" id="LINE-69" data-name="LINE"/><path class="cls-9" d="M280.451 152.243H92.364" id="LINE-70" data-name="LINE"/><path d="M167.312 146.939l3.336-7.2h1.436l-3.254 7.117h4.87v1.292h-6.392zm4.287-3.111h1.36v5.852H171.6zM178.934 144.737l-.007.247a1.031 1.031 0 01-.516.461 2.077 2.077 0 01-.817.147 2.2 2.2 0 01-1.251-.362 2.367 2.367 0 01-.838-1.022 3.709 3.709 0 01-.3-1.528v-.007a3.815 3.815 0 01.324-1.647 2.291 2.291 0 01.951-1.04 3 3 0 011.5-.355 2.932 2.932 0 011.5.362 2.331 2.331 0 01.947 1.053 3.884 3.884 0 01.325 1.661v.007a5.184 5.184 0 01-.137 1.138 7.077 7.077 0 01-.389 1.2l-.083.181c-.028.061-.056.122-.088.181l-2.12 4.259h-1.5zm.065-.861a1.949 1.949 0 00.358-1.251v-.007A1.859 1.859 0 00179 141.4a1.421 1.421 0 00-2.037 0 1.859 1.859 0 00-.36 1.224v.007a1.925 1.925 0 00.36 1.248 1.394 1.394 0 002.037 0zM187.731 140.978l-2.57 8.695h-1.483l2.57-8.613h-2.529v1.428h-1.395v-2.754h5.407zM190.366 149.03a2.865 2.865 0 01-.721-2.078v-4.518a2.856 2.856 0 01.725-2.082 3.389 3.389 0 014.229 0 2.861 2.861 0 01.72 2.085v4.518a2.558 2.558 0 01-2.837 2.824 2.816 2.816 0 01-2.116-.749zm3.207-.967a1.591 1.591 0 00.352-1.111v-4.518a1.6 1.6 0 00-.349-1.111 1.742 1.742 0 00-2.187 0 1.6 1.6 0 00-.349 1.111v4.518a1.591 1.591 0 00.352 1.111 1.733 1.733 0 002.181 0z"/><path class="cls-9" d="M92.364 152.243l1.461-1.461" id="LINE-71" data-name="LINE"/><path class="cls-9" d="M93.825 153.704l-1.461-1.461" id="LINE-72" data-name="LINE"/><path class="cls-9" d="M280.451 152.244l-1.461 1.461" id="LINE-73" data-name="LINE"/><path class="cls-9" d="M278.99 150.782l1.461 1.462" id="LINE-74" data-name="LINE"/><path class="cls-9" d="M89.145 100.065H24.827" id="LINE-75" data-name="LINE"/><path d="M42.879 97.5h-1.394v-8.427l-1.415.869V88.5l1.415-.943h1.394zM50.269 88.8L47.7 97.5h-1.485l2.571-8.613h-2.53v1.429h-1.394v-2.76h5.407zM52.7 97.246a2.292 2.292 0 01-.948-1.026 3.713 3.713 0 01-.324-1.623v-.007a5.545 5.545 0 01.13-1.162 6.761 6.761 0 01.376-1.2c.027-.069.057-.136.089-.2s.063-.131.1-.2l2.16-4.279h1.5l-2.537 4.956.007-.246a1.2 1.2 0 01.5-.5 1.579 1.579 0 01.766-.178 2.432 2.432 0 011.326.349 2.171 2.171 0 01.841 1.015 4.044 4.044 0 01.287 1.6v.007a3.783 3.783 0 01-.325 1.64 2.29 2.29 0 01-.949 1.039 3.351 3.351 0 01-3 0zm2.519-1.4a1.728 1.728 0 00.359-1.169v-.007a1.971 1.971 0 00-.376-1.289 1.316 1.316 0 00-1.074-.454 1.133 1.133 0 00-.964.458 2.131 2.131 0 00-.341 1.292v.007a1.7 1.7 0 00.359 1.165 1.474 1.474 0 002.037 0zM59.541 96.853a2.868 2.868 0 01-.72-2.078v-4.519a2.856 2.856 0 01.724-2.082 3.393 3.393 0 014.229 0 2.862 2.862 0 01.721 2.085v4.519a2.854 2.854 0 01-.725 2.081 3.379 3.379 0 01-4.229 0zm3.207-.968a1.59 1.59 0 00.352-1.11v-4.519a1.6 1.6 0 00-.349-1.111 1.742 1.742 0 00-2.187 0 1.6 1.6 0 00-.349 1.111v4.519a1.59 1.59 0 00.352 1.11 1.73 1.73 0 002.181 0z"/><path class="cls-9" d="M24.827 100.065l1.462-1.461" id="LINE-76" data-name="LINE"/><path class="cls-9" d="M26.289 101.526l-1.462-1.461" id="LINE-77" data-name="LINE"/><path class="cls-9" d="M89.145 100.066l-1.461 1.461" id="LINE-78" data-name="LINE"/><path class="cls-9" d="M87.684 98.605l1.461 1.461" id="LINE-79" data-name="LINE"/><path class="cls-9" d="M153.57 210.942v84.111" id="LINE-80" data-name="LINE"/><path d="M165.5 267.154l-4.621-3.465a3.393 3.393 0 00-.824-.468 2.185 2.185 0 00-.8-.168h-.014a1.208 1.208 0 00-.923.348 1.392 1.392 0 00-.328.992 1.368 1.368 0 00.359.984 1.631 1.631 0 001.015.458h.007v1.442h-.007a3.736 3.736 0 01-1.459-.5 2.561 2.561 0 01-.923-.982 2.924 2.924 0 01-.318-1.388 3.469 3.469 0 01.3-1.517 2.141 2.141 0 01.885-.957 2.809 2.809 0 011.4-.328h.007a3.1 3.1 0 011.1.218 4.739 4.739 0 011.108.609l3.91 2.878v-3.76h1.326v5.605zM165.5 259.922l-4.621-3.466a3.46 3.46 0 00-.824-.468 2.185 2.185 0 00-.8-.168h-.014a1.209 1.209 0 00-.923.349 1.389 1.389 0 00-.328.991 1.369 1.369 0 00.359.985 1.631 1.631 0 001.015.458h.007v1.442h-.007a3.721 3.721 0 01-1.459-.5 2.559 2.559 0 01-.923-.981 2.93 2.93 0 01-.318-1.388 3.47 3.47 0 01.3-1.518 2.141 2.141 0 01.885-.957 2.82 2.82 0 011.4-.328h.007a3.083 3.083 0 011.1.219 4.734 4.734 0 011.108.608l3.91 2.878v-3.759h1.326v5.605zM166.469 251.213a2.5 2.5 0 01-.968 1.057 2.786 2.786 0 01-1.452.372h-.164a2.8 2.8 0 01-1.4-.372 2.5 2.5 0 01-.991-1 2.183 2.183 0 01-.83.844 2.247 2.247 0 01-1.145.318h-.24a2.651 2.651 0 01-1.37-.349 2.362 2.362 0 01-.916-.984 3.516 3.516 0 010-2.953 2.364 2.364 0 01.916-.985 2.65 2.65 0 011.37-.348h.24a2.2 2.2 0 011.155.325 2.162 2.162 0 01.82.857 2.576 2.576 0 011-1.008 2.726 2.726 0 011.4-.38h.164a2.777 2.777 0 011.452.373 2.5 2.5 0 01.968 1.056 3.859 3.859 0 010 3.172zm-5.671-2.324a1.248 1.248 0 00-.516-.5 1.628 1.628 0 00-.772-.178h-.1a1.5 1.5 0 00-.738.178 1.222 1.222 0 00-.5.5 1.652 1.652 0 000 1.476 1.222 1.222 0 00.5.5 1.507 1.507 0 00.745.178h.1a1.589 1.589 0 00.763-.178 1.25 1.25 0 00.512-.5 1.6 1.6 0 000-1.476zm4.481-.116a1.378 1.378 0 00-.536-.572 1.565 1.565 0 00-.8-.2h-.095a1.578 1.578 0 00-.8.2 1.378 1.378 0 00-.536.572 2 2 0 000 1.709 1.372 1.372 0 00.54.571 1.583 1.583 0 00.806.2h.1a1.535 1.535 0 00.793-.2 1.374 1.374 0 00.53-.571 1.869 1.869 0 00.188-.855 1.825 1.825 0 00-.19-.854zM166.065 243.943a2.861 2.861 0 01-2.078.721h-4.518a2.843 2.843 0 110-5.674h4.518a2.856 2.856 0 012.082.725 3.379 3.379 0 010 4.228zm-.967-3.207a1.6 1.6 0 00-1.111-.351h-4.518a1.6 1.6 0 00-1.111.349 1.742 1.742 0 000 2.187 1.605 1.605 0 001.111.349h4.518a1.6 1.6 0 001.111-.352 1.735 1.735 0 000-2.182z"/><path class="cls-9" d="M153.57 295.053l-1.462-1.461" id="LINE-81" data-name="LINE"/><path class="cls-9" d="M155.031 293.592l-1.461 1.461" id="LINE-82" data-name="LINE"/><path class="cls-9" d="M153.57 210.942l1.461 1.461" id="LINE-83" data-name="LINE"/><path class="cls-9" d="M152.109 212.403l1.461-1.461" id="LINE-84" data-name="LINE"/><path class="cls-9" d="M156.845 210.942h-10.75"/><path class="cls-9" d="M95.492 214.254v80.763" id="LINE-85" data-name="LINE"/><path d="M106.676 268.573l-4.621-3.465a3.393 3.393 0 00-.824-.468 2.16 2.16 0 00-.8-.168h-.014a1.208 1.208 0 00-.923.348 1.4 1.4 0 00-.328.992 1.368 1.368 0 00.359.984 1.631 1.631 0 001.015.458h.007v1.446h-.007a3.727 3.727 0 01-1.459-.5 2.559 2.559 0 01-.923-.981 2.924 2.924 0 01-.318-1.388 3.469 3.469 0 01.3-1.517 2.133 2.133 0 01.886-.957 2.8 2.8 0 011.4-.328h.007a3.1 3.1 0 011.1.218 4.739 4.739 0 011.108.609l3.91 2.878v-3.76h1.326v5.6zM106.676 261.341l-4.621-3.466a3.46 3.46 0 00-.824-.468 2.181 2.181 0 00-.8-.168h-.014a1.209 1.209 0 00-.923.349 1.394 1.394 0 00-.328.991 1.369 1.369 0 00.359.985 1.631 1.631 0 001.015.458h.007v1.442h-.007a3.727 3.727 0 01-1.459-.5 2.566 2.566 0 01-.923-.981 2.93 2.93 0 01-.318-1.388 3.47 3.47 0 01.3-1.518 2.138 2.138 0 01.886-.957 2.813 2.813 0 011.4-.328h.007a3.079 3.079 0 011.1.219 4.734 4.734 0 011.108.608l3.91 2.878v-3.76h1.326v5.606zM107.244 253.237a2.865 2.865 0 01-2.079.721h-4.518a2.856 2.856 0 01-2.082-.724 3.393 3.393 0 010-4.229 2.862 2.862 0 012.085-.721h4.518a2.854 2.854 0 012.082.725 3.377 3.377 0 010 4.228zm-.968-3.207a1.6 1.6 0 00-1.111-.351h-4.518a1.6 1.6 0 00-1.111.348 1.743 1.743 0 000 2.188 1.605 1.605 0 001.111.349h4.518a1.6 1.6 0 001.111-.352 1.731 1.731 0 000-2.182zM107.244 245.513a2.869 2.869 0 01-2.079.721h-4.518a2.856 2.856 0 01-2.082-.725 3.393 3.393 0 010-4.229 2.861 2.861 0 012.085-.72h4.518a2.854 2.854 0 012.082.724 3.379 3.379 0 010 4.229zm-.968-3.207a1.591 1.591 0 00-1.111-.352h-4.518a1.6 1.6 0 00-1.111.349 1.742 1.742 0 000 2.187 1.6 1.6 0 001.111.349h4.518a1.591 1.591 0 001.111-.352 1.73 1.73 0 000-2.181z"/><path class="cls-9" d="M95.492 295.053l-1.461-1.461" id="LINE-86" data-name="LINE"/><path class="cls-9" d="M96.953 293.592l-1.461 1.461" id="LINE-87" data-name="LINE"/><path class="cls-9" d="M95.493 214.254l1.461 1.462" id="LINE-88" data-name="LINE"/><path class="cls-9" d="M94.032 215.716l1.461-1.462" id="LINE-89" data-name="LINE"/><path class="cls-9" d="M90.902 157.474v53.468" id="LINE-90" data-name="LINE"/><path d="M104.04 194.886v1.394h-8.421l.868 1.415h-1.443l-.944-1.415v-1.394zM101.306 192.767l-7.2-3.336V188l7.116 3.254v-4.874h1.292v6.392zm-3.11-4.286v-1.361h5.851v1.361zM101.306 184.8l-7.2-3.336v-1.436l7.116 3.254v-4.874h1.292v6.392zm-3.11-4.286v-1.361h5.851v1.361zM103.849 175.263a2.418 2.418 0 01-.854.951 3.41 3.41 0 01-1.347.488h-.007v-1.394h.007a1.3 1.3 0 00.851-.438 1.413 1.413 0 00.3-.943 1.259 1.259 0 00-.448-1.035 1.939 1.939 0 00-1.261-.366h-.834a1.93 1.93 0 00-1.254.366 1.259 1.259 0 00-.448 1.035 1.314 1.314 0 00.2.7 1.953 1.953 0 00.574.588v1.272H94.1v-5.066h1.326v3.671h2.236a1.972 1.972 0 01-.329-.581 1.926 1.926 0 01-.116-.656 2.886 2.886 0 01.356-1.474 2.279 2.279 0 011.039-.93 3.9 3.9 0 011.647-.317h.834a3.778 3.778 0 011.648.328 2.329 2.329 0 011.042.957 3 3 0 01.359 1.511 2.931 2.931 0 01-.293 1.333z"/><path class="cls-9" d="M90.902 210.942l-1.461-1.462" id="LINE-91" data-name="LINE"/><path class="cls-9" d="M92.363 209.48l-1.461 1.462" id="LINE-92" data-name="LINE"/><path class="cls-9" d="M90.903 157.474l1.461 1.462" id="LINE-93" data-name="LINE"/><path class="cls-9" d="M89.442 158.936l1.461-1.462" id="LINE-94" data-name="LINE"/><path class="cls-9" d="M144.594 134.802v76.14" id="LINE-95" data-name="LINE"/><path d="M156.523 187.1l-4.621-3.466a3.46 3.46 0 00-.824-.468 2.185 2.185 0 00-.8-.168h-.014a1.205 1.205 0 00-.923.349 1.388 1.388 0 00-.328.991 1.368 1.368 0 00.359.984 1.626 1.626 0 001.015.458h.007v1.443h-.007a3.721 3.721 0 01-1.459-.5 2.554 2.554 0 01-.923-.982 2.923 2.923 0 01-.318-1.387 3.456 3.456 0 01.3-1.518 2.141 2.141 0 01.885-.957 2.809 2.809 0 011.4-.328h.007a3.083 3.083 0 011.1.219 4.7 4.7 0 011.108.608l3.91 2.878v-3.76h1.326v5.604zM157.09 178.994a2.861 2.861 0 01-2.078.721h-4.518a2.852 2.852 0 01-2.082-.725 3.388 3.388 0 010-4.228 2.858 2.858 0 012.085-.721h4.518a2.852 2.852 0 012.082.725 3.379 3.379 0 010 4.228zm-.967-3.207a1.6 1.6 0 00-1.111-.351h-4.518a1.6 1.6 0 00-1.111.348 1.743 1.743 0 000 2.188 1.6 1.6 0 001.111.348h4.518a1.6 1.6 0 001.111-.351 1.735 1.735 0 000-2.182zM157.541 170.551a2.4 2.4 0 01-.854.951 3.41 3.41 0 01-1.347.488h-.007v-1.39h.007a1.288 1.288 0 00.851-.438 1.414 1.414 0 00.305-.943 1.261 1.261 0 00-.448-1.035 1.943 1.943 0 00-1.261-.366h-.834a1.933 1.933 0 00-1.255.366 1.261 1.261 0 00-.448 1.035 1.315 1.315 0 00.206.7 1.941 1.941 0 00.574.588v1.272h-5.237v-5.066h1.327v3.671h2.235a1.969 1.969 0 01-.328-.581 1.9 1.9 0 01-.116-.656 2.888 2.888 0 01.355-1.474 2.289 2.289 0 011.039-.93 3.916 3.916 0 011.648-.317h.834a3.777 3.777 0 011.647.328 2.324 2.324 0 011.042.957 2.993 2.993 0 01.359 1.511 2.931 2.931 0 01-.294 1.329zM157.541 162.929a2.411 2.411 0 01-.854.951 3.41 3.41 0 01-1.347.488h-.007v-1.394h.007a1.293 1.293 0 00.851-.438 1.414 1.414 0 00.305-.943 1.261 1.261 0 00-.448-1.035 1.943 1.943 0 00-1.261-.366h-.834a1.933 1.933 0 00-1.255.366 1.261 1.261 0 00-.448 1.035 1.315 1.315 0 00.206.7 1.941 1.941 0 00.574.588v1.272h-5.237v-5.066h1.327v3.671h2.235a1.969 1.969 0 01-.328-.581 1.9 1.9 0 01-.116-.656 2.886 2.886 0 01.355-1.474 2.289 2.289 0 011.039-.93 3.9 3.9 0 011.648-.317h.834a3.777 3.777 0 011.647.328 2.324 2.324 0 011.042.957 2.993 2.993 0 01.359 1.511 2.931 2.931 0 01-.294 1.333z"/><path class="cls-9" d="M144.594 210.942l-1.461-1.462" id="LINE-96" data-name="LINE"/><path class="cls-9" d="M146.055 209.48l-1.461 1.462" id="LINE-97" data-name="LINE"/><path class="cls-9" d="M144.595 134.802l1.461 1.462" id="LINE-98" data-name="LINE"/><path class="cls-9" d="M143.134 136.264l1.461-1.462" id="LINE-99" data-name="LINE"/><path class="cls-9" d="M76.525 9.352v112.813" id="LINE-100" data-name="LINE"/><path d="M74.432 77.225l-.3.635a2.516 2.516 0 01-.882 1.023 3.182 3.182 0 01-1.391.488v-1.422a1.5 1.5 0 00.7-.266 1.241 1.241 0 00.407-.531 1.983 1.983 0 00.133-.761 1.481 1.481 0 00-.369-1.073 1.376 1.376 0 00-1.039-.383h-.3a1.678 1.678 0 00-1.152.362 1.3 1.3 0 00-.406 1.025v.7H68.5v-.7a1.166 1.166 0 00-.348-.9 1.4 1.4 0 00-.985-.321h-.307a1.188 1.188 0 00-.909.339 1.333 1.333 0 00-.322.96 1.455 1.455 0 00.134.635 1.207 1.207 0 00.41.475 1.846 1.846 0 00.694.284v1.415a3.642 3.642 0 01-1.395-.515 2.541 2.541 0 01-.882-.961 2.867 2.867 0 01-.3-1.333 2.758 2.758 0 01.676-1.99 2.523 2.523 0 011.908-.7h.164a2.145 2.145 0 011.3.4 2.265 2.265 0 01.807 1.141 2.023 2.023 0 01.8-1.261 2.649 2.649 0 011.586-.448h.164a3.054 3.054 0 011.483.335 2.22 2.22 0 01.937.975 3.4 3.4 0 01.321 1.541zM73.12 71.708l-4.62-3.466a3.435 3.435 0 00-.823-.467 2.169 2.169 0 00-.8-.168h-.013a1.207 1.207 0 00-.923.348 1.391 1.391 0 00-.328.991 1.365 1.365 0 00.359.985 1.629 1.629 0 001.015.458H67v1.442h-.007a3.731 3.731 0 01-1.46-.5 2.566 2.566 0 01-.923-.981 2.926 2.926 0 01-.317-1.388 3.448 3.448 0 01.3-1.517 2.138 2.138 0 01.885-.958 2.813 2.813 0 011.4-.328h.007a3.11 3.11 0 011.1.219 4.713 4.713 0 011.107.609L73 69.862V66.1h1.33v5.605zM73.12 64.476L68.5 61.01a3.439 3.439 0 00-.823-.468 2.19 2.19 0 00-.8-.168h-.013a1.2 1.2 0 00-.923.349 1.388 1.388 0 00-.328.991 1.364 1.364 0 00.359.984 1.623 1.623 0 001.015.458H67V64.6h-.007a3.731 3.731 0 01-1.46-.5 2.562 2.562 0 01-.923-.982 2.922 2.922 0 01-.317-1.387 3.456 3.456 0 01.3-1.518 2.136 2.136 0 01.885-.957 2.8 2.8 0 011.4-.328h.007a3.088 3.088 0 011.1.219 4.673 4.673 0 011.107.608L73 62.63v-3.76h1.33v5.606zM73.687 56.372a2.864 2.864 0 01-2.078.721H67.09a2.843 2.843 0 110-5.674h4.519a2.559 2.559 0 012.823 2.837 2.812 2.812 0 01-.745 2.116zm-.967-3.207a1.6 1.6 0 00-1.111-.351H67.09a1.607 1.607 0 00-1.111.348 1.743 1.743 0 000 2.188 1.607 1.607 0 001.111.348h4.519a1.6 1.6 0 001.111-.351 1.735 1.735 0 000-2.182z"/><path class="cls-9" d="M76.525 122.239l-1.462-1.461" id="LINE-101" data-name="LINE"/><path class="cls-9" d="M77.986 120.778l-1.461 1.461" id="LINE-102" data-name="LINE"/><path class="cls-9" d="M76.528 9.352l1.461 1.461" id="LINE-103" data-name="LINE"/><path class="cls-9" d="M75.067 10.813l1.461-1.461" id="LINE-104" data-name="LINE"/><path class="cls-9" d="M29.492 9.352v97.675" id="LINE-105" data-name="LINE"/><path d="M40.962 71.8l-4.621-3.466a3.474 3.474 0 00-.823-.468 2.19 2.19 0 00-.8-.168h-.014a1.205 1.205 0 00-.922.349 1.39 1.39 0 00-.329.991 1.369 1.369 0 00.359.985 1.634 1.634 0 001.016.458h.006v1.439h-.006a3.726 3.726 0 01-1.46-.5 2.566 2.566 0 01-.923-.981 2.93 2.93 0 01-.318-1.388 3.456 3.456 0 01.3-1.518 2.136 2.136 0 01.885-.957 2.813 2.813 0 011.4-.328h.007a3.088 3.088 0 011.1.219 4.728 4.728 0 011.107.608l3.91 2.878v-3.761h1.326V71.8zM41.923 63.758a2.29 2.29 0 01-1.026.947 3.713 3.713 0 01-1.623.324h-.007A5.608 5.608 0 0138.1 64.9a6.761 6.761 0 01-1.2-.376 2.81 2.81 0 01-.2-.089l-.2-.1-4.279-2.16v-1.5l4.956 2.536-.246-.007a1.189 1.189 0 01-.5-.5 1.575 1.575 0 01-.178-.765 2.438 2.438 0 01.349-1.327 2.169 2.169 0 011.015-.84 4.025 4.025 0 011.6-.288h.007a3.783 3.783 0 011.64.326 2.279 2.279 0 011.039.949 3.351 3.351 0 010 3zm-1.4-2.52a1.728 1.728 0 00-1.169-.358h-.007a1.971 1.971 0 00-1.289.376 1.313 1.313 0 00-.454 1.073 1.132 1.132 0 00.458.964 2.124 2.124 0 001.292.342h.007a1.7 1.7 0 001.165-.359 1.475 1.475 0 000-2.038zM40.962 57.79l-4.621-3.466a3.435 3.435 0 00-.823-.467 2.169 2.169 0 00-.8-.168h-.014a1.2 1.2 0 00-.922.348 1.391 1.391 0 00-.329.991 1.369 1.369 0 00.359.985 1.634 1.634 0 001.016.458h.006v1.442h-.006a3.726 3.726 0 01-1.46-.5 2.566 2.566 0 01-.923-.981 2.927 2.927 0 01-.318-1.388 3.448 3.448 0 01.3-1.517 2.131 2.131 0 01.885-.957 2.8 2.8 0 011.4-.329h.007a3.11 3.11 0 011.1.219 4.733 4.733 0 011.107.609l3.91 2.877v-3.761h1.326v5.6zM41.53 49.687a2.868 2.868 0 01-2.078.72h-4.519a2.856 2.856 0 01-2.082-.724 3.393 3.393 0 010-4.229 2.861 2.861 0 012.085-.72h4.519a2.852 2.852 0 012.081.724 3.379 3.379 0 010 4.229zm-.968-3.207a1.589 1.589 0 00-1.11-.352h-4.519a1.6 1.6 0 00-1.111.349 1.742 1.742 0 000 2.187 1.6 1.6 0 001.111.349h4.519a1.589 1.589 0 001.11-.352 1.73 1.73 0 000-2.181z"/><path class="cls-9" d="M29.492 107.101l-1.461-1.461" id="LINE-106" data-name="LINE"/><path class="cls-9" d="M30.953 105.64l-1.461 1.461" id="LINE-107" data-name="LINE"/><path class="cls-9" d="M29.493 9.352l1.461 1.461" id="LINE-108" data-name="LINE"/><path class="cls-9" d="M28.032 10.813l1.461-1.461" id="LINE-109" data-name="LINE"/><path class="cls-9" d="M98.76 41.815h-6.497" id="LINE-110" data-name="LINE"/><path class="cls-9" d="M98.76 68.931h-6.497" id="LINE-111" data-name="LINE"/><path class="cls-9" d="M98.76 68.931V41.815" id="LINE-112" data-name="LINE"/><path d="M111.241 64.81a2.5 2.5 0 01-.967 1.056 2.79 2.79 0 01-1.453.372h-.164a2.8 2.8 0 01-1.4-.372 2.489 2.489 0 01-.991-1 2.188 2.188 0 01-.831.845 2.241 2.241 0 01-1.145.317h-.239a2.651 2.651 0 01-1.371-.348 2.364 2.364 0 01-.916-.985 3.516 3.516 0 010-2.953 2.356 2.356 0 01.916-.984 2.642 2.642 0 011.371-.349h.239a2.208 2.208 0 011.155.325 2.161 2.161 0 01.821.858 2.573 2.573 0 01.994-1.008 2.728 2.728 0 011.4-.38h.164a2.79 2.79 0 011.453.372 2.5 2.5 0 01.967 1.057 3.848 3.848 0 010 3.172zm-5.67-2.325a1.266 1.266 0 00-.516-.5 1.632 1.632 0 00-.773-.177h-.1a1.509 1.509 0 00-.738.177 1.238 1.238 0 00-.495.5 1.646 1.646 0 000 1.477 1.226 1.226 0 00.495.5 1.523 1.523 0 00.745.178h.1a1.593 1.593 0 00.762-.178 1.258 1.258 0 00.513-.5 1.6 1.6 0 000-1.477zm4.481-.116a1.39 1.39 0 00-.537-.571 1.554 1.554 0 00-.8-.2h-.1a1.567 1.567 0 00-.8.2 1.39 1.39 0 00-.537.571 2.007 2.007 0 000 1.709 1.387 1.387 0 00.54.572 1.6 1.6 0 00.807.2h.1a1.545 1.545 0 00.793-.2 1.371 1.371 0 00.53-.572 2.021 2.021 0 000-1.709zM110.838 57.54a2.864 2.864 0 01-2.078.721h-4.519a2.843 2.843 0 110-5.674h4.519a2.559 2.559 0 012.823 2.837 2.816 2.816 0 01-.745 2.116zm-.967-3.207a1.6 1.6 0 00-1.111-.351h-4.519a1.607 1.607 0 00-1.111.348 1.743 1.743 0 000 2.188 1.607 1.607 0 001.111.348h4.519a1.6 1.6 0 001.111-.351 1.735 1.735 0 000-2.182zM110.838 49.816a2.868 2.868 0 01-2.078.72h-4.519a2.843 2.843 0 110-5.674h4.519a2.852 2.852 0 012.081.725 3.379 3.379 0 010 4.229zm-.967-3.207a1.593 1.593 0 00-1.111-.352h-4.519a1.6 1.6 0 00-1.111.349 1.742 1.742 0 000 2.187 1.6 1.6 0 001.111.349h4.519a1.593 1.593 0 001.111-.352 1.733 1.733 0 000-2.181z"/><path class="cls-9" d="M98.76 41.815l1.461 1.461" id="LINE-113" data-name="LINE"/><path class="cls-9" d="M97.298 43.276l1.462-1.461" id="LINE-114" data-name="LINE"/><path class="cls-9" d="M98.76 68.931l-1.462-1.461" id="LINE-115" data-name="LINE"/><path class="cls-9" d="M100.221 67.47l-1.461 1.461" id="LINE-116" data-name="LINE"/><path class="cls-9" d="M280.451 27.174H92.544" id="LINE-117" data-name="LINE"/><path d="M172.426 22.245l3.336-7.2h1.438l-3.254 7.116h4.874v1.292h-6.392zm4.286-3.111h1.361v5.852h-1.361zM184.047 20.044l-.007.246a1.029 1.029 0 01-.515.461 2.082 2.082 0 01-.818.147 2.2 2.2 0 01-1.251-.362 2.372 2.372 0 01-.837-1.022 3.69 3.69 0 01-.3-1.528v-.007a3.818 3.818 0 01.324-1.647 2.283 2.283 0 01.951-1.039 2.986 2.986 0 011.5-.356 2.932 2.932 0 011.5.362 2.323 2.323 0 01.946 1.053 3.871 3.871 0 01.326 1.661v.007a5.177 5.177 0 01-.137 1.138 6.937 6.937 0 01-.39 1.2l-.082.181a2.023 2.023 0 01-.089.181l-2.119 4.259h-1.5zm.066-.862a1.949 1.949 0 00.358-1.251v-.007a1.856 1.856 0 00-.358-1.216 1.419 1.419 0 00-2.037 0 1.849 1.849 0 00-.36 1.223v.007a1.919 1.919 0 00.36 1.248 1.392 1.392 0 002.037 0zM192.845 16.284l-2.57 8.7h-1.484l2.571-8.613h-2.53V17.8h-1.394v-2.76h5.407zM195.48 24.337a2.865 2.865 0 01-.721-2.079V17.74a2.852 2.852 0 01.725-2.082 3.391 3.391 0 014.228 0 2.858 2.858 0 01.721 2.085v4.518a2.852 2.852 0 01-.725 2.082 3.377 3.377 0 01-4.228 0zm3.207-.968a1.6 1.6 0 00.352-1.111V17.74a1.605 1.605 0 00-.349-1.111 1.743 1.743 0 00-2.188 0 1.6 1.6 0 00-.348 1.111v4.518a1.6 1.6 0 00.351 1.111 1.735 1.735 0 002.182 0z"/><path class="cls-9" d="M92.544 27.174l1.461-1.461" id="LINE-118" data-name="LINE"/><path class="cls-9" d="M94.005 28.635l-1.461-1.461" id="LINE-119" data-name="LINE"/><path class="cls-9" d="M280.451 27.175l-1.461 1.461" id="LINE-120" data-name="LINE"/><path class="cls-9" d="M278.99 25.714l1.461 1.461" id="LINE-121" data-name="LINE"/><path class="cls-9" d="M262.748 9.521v119.991" id="LINE-122" data-name="LINE"/><path d="M260.281 79.445l-.305.636a2.506 2.506 0 01-.876 1.019 3.2 3.2 0 01-1.391.488V80.17a1.5 1.5 0 00.7-.267 1.232 1.232 0 00.407-.53 2.011 2.011 0 00.133-.762 1.483 1.483 0 00-.369-1.073 1.378 1.378 0 00-1.039-.383h-.3a1.672 1.672 0 00-1.152.363 1.3 1.3 0 00-.406 1.025v.7h-1.326v-.7a1.166 1.166 0 00-.349-.9 1.4 1.4 0 00-.984-.322h-.308a1.19 1.19 0 00-.909.339 1.335 1.335 0 00-.322.96 1.456 1.456 0 00.133.636 1.215 1.215 0 00.41.475 1.868 1.868 0 00.695.284v1.415a3.626 3.626 0 01-1.4-.516 2.534 2.534 0 01-.882-.961 2.852 2.852 0 01-.3-1.333 2.757 2.757 0 01.676-1.989 2.521 2.521 0 011.908-.7h.164a2.156 2.156 0 011.3.4 2.282 2.282 0 01.806 1.142 2.019 2.019 0 01.8-1.261 2.643 2.643 0 011.586-.448h.164a3.054 3.054 0 011.483.335 2.212 2.212 0 01.937.974 3.4 3.4 0 01.321 1.541zM258.969 73.929l-4.621-3.466a3.466 3.466 0 00-.825-.468 2.177 2.177 0 00-.8-.168h-.013a1.2 1.2 0 00-.923.349 1.388 1.388 0 00-.328.991 1.366 1.366 0 00.358.984 1.632 1.632 0 001.016.459h.007v1.442h-.007a3.726 3.726 0 01-1.46-.5 2.562 2.562 0 01-.923-.982 2.922 2.922 0 01-.317-1.387 3.47 3.47 0 01.3-1.518 2.138 2.138 0 01.886-.957 2.805 2.805 0 011.4-.328h.007a3.088 3.088 0 011.1.219 4.673 4.673 0 011.107.608l3.91 2.878v-3.76h1.327v5.606zM259.536 65.825a2.862 2.862 0 01-2.078.721h-4.519a2.852 2.852 0 01-2.082-.725 3.391 3.391 0 010-4.228 2.859 2.859 0 012.085-.721h4.519a2.559 2.559 0 012.823 2.837 2.816 2.816 0 01-.748 2.116zm-.968-3.207a1.6 1.6 0 00-1.11-.351h-4.519a1.607 1.607 0 00-1.111.348 1.743 1.743 0 000 2.188 1.607 1.607 0 001.111.348h4.519a1.6 1.6 0 001.11-.351 1.731 1.731 0 000-2.182zM259.536 58.1a2.866 2.866 0 01-2.078.72h-4.519a2.856 2.856 0 01-2.082-.724 3.393 3.393 0 010-4.229 2.863 2.863 0 012.085-.72h4.519a2.558 2.558 0 012.823 2.837 2.819 2.819 0 01-.748 2.116zm-.968-3.207a1.59 1.59 0 00-1.11-.352h-4.519a1.6 1.6 0 00-1.111.349 1.742 1.742 0 000 2.187 1.6 1.6 0 001.111.349h4.519a1.59 1.59 0 001.11-.352 1.73 1.73 0 000-2.181z"/><path class="cls-9" d="M262.748 129.6l-1.461-1.461" id="LINE-123" data-name="LINE"/><path class="cls-9" d="M264.209 128.139l-1.461 1.461" id="LINE-124" data-name="LINE"/><path class="cls-9" d="M262.749 9.521l1.461 1.461" id="LINE-125" data-name="LINE"/><path class="cls-9" d="M261.288 10.982l1.461-1.461" id="LINE-126" data-name="LINE"/><path class="cls-9" d="M98.867 111.158v18.957" id="LINE-127" data-name="LINE"/><path class="cls-9" d="M130.759 111.158v18.957" id="LINE-128" data-name="LINE"/><path class="cls-9" d="M130.759 111.157H98.867" id="LINE-129" data-name="LINE"/><path d="M108.041 104.026l-.006.246a1.037 1.037 0 01-.516.462 2.078 2.078 0 01-.817.146 2.189 2.189 0 01-1.251-.362 2.367 2.367 0 01-.838-1.022 3.69 3.69 0 01-.3-1.528v-.006a3.823 3.823 0 01.324-1.648 2.293 2.293 0 01.951-1.039 2.986 2.986 0 011.5-.355 2.922 2.922 0 011.5.362 2.325 2.325 0 01.947 1.053 3.884 3.884 0 01.325 1.665 5.191 5.191 0 01-.137 1.138 6.955 6.955 0 01-.39 1.2l-.082.182a2.515 2.515 0 01-.088.181l-2.12 4.259h-1.5zm.066-.861a1.953 1.953 0 00.358-1.251v-.007a1.857 1.857 0 00-.358-1.217 1.419 1.419 0 00-2.037 0 1.858 1.858 0 00-.36 1.224v.007a1.924 1.924 0 00.36 1.247 1.393 1.393 0 002.037 0zM112.426 108.319a2.866 2.866 0 01-.72-2.078v-4.519a2.852 2.852 0 01.724-2.081 3.391 3.391 0 014.229 0 2.863 2.863 0 01.72 2.085v4.519a2.558 2.558 0 01-2.837 2.823 2.815 2.815 0 01-2.116-.749zm3.207-.967a1.593 1.593 0 00.352-1.111v-4.519a1.6 1.6 0 00-.349-1.111 1.742 1.742 0 00-2.187 0 1.6 1.6 0 00-.349 1.111v4.519a1.593 1.593 0 00.352 1.111 1.733 1.733 0 002.181 0zM120.151 108.319a2.862 2.862 0 01-.721-2.078v-4.519a2.843 2.843 0 115.674 0v4.519a2.559 2.559 0 01-2.837 2.823 2.812 2.812 0 01-2.116-.745zm3.207-.967a1.6 1.6 0 00.351-1.111v-4.519a1.607 1.607 0 00-.348-1.111 1.743 1.743 0 00-2.188 0 1.607 1.607 0 00-.348 1.111v4.519a1.6 1.6 0 00.351 1.111 1.735 1.735 0 002.182 0z"/><path class="cls-9" d="M98.889 111.158l1.461-1.461" id="LINE-130" data-name="LINE"/><path class="cls-9" d="M100.35 112.619l-1.461-1.461" id="LINE-131" data-name="LINE"/><path class="cls-9" d="M130.759 111.158l-1.461 1.461" id="LINE-132" data-name="LINE"/><path class="cls-9" d="M129.298 109.697l1.461 1.461" id="LINE-133" data-name="LINE"/><path class="cls-9" d="M136.555 231.163v-17.48" id="LINE-134" data-name="LINE"/><path class="cls-9" d="M112.127 231.163v-17.48" id="LINE-135" data-name="LINE"/><path class="cls-9" d="M112.127 231.164h24.428" id="LINE-136" data-name="LINE"/><path d="M119.253 235.563l-2.57 8.7H115.2l2.57-8.613h-2.53v1.427h-1.394v-2.754h5.407zM121.888 243.615a2.862 2.862 0 01-.721-2.078v-4.519a2.849 2.849 0 01.725-2.081 3.388 3.388 0 014.228 0 2.855 2.855 0 01.721 2.084v4.519a2.849 2.849 0 01-.725 2.081 3.377 3.377 0 01-4.228 0zm3.207-.967a1.6 1.6 0 00.351-1.111v-4.519a1.6 1.6 0 00-.348-1.111 1.747 1.747 0 00-2.188 0 1.605 1.605 0 00-.349 1.111v4.519a1.6 1.6 0 00.352 1.111 1.738 1.738 0 002.182 0zM129.612 243.615a2.866 2.866 0 01-.72-2.078v-4.519a2.853 2.853 0 01.724-2.081 3.389 3.389 0 014.229 0 2.859 2.859 0 01.72 2.084v4.519a2.853 2.853 0 01-.724 2.081 3.379 3.379 0 01-4.229 0zm3.207-.967a1.591 1.591 0 00.352-1.111v-4.519a1.6 1.6 0 00-.349-1.111 1.745 1.745 0 00-2.187 0 1.6 1.6 0 00-.349 1.111v4.519a1.591 1.591 0 00.352 1.111 1.737 1.737 0 002.181 0z"/><path class="cls-9" d="M136.533 231.163l-1.461 1.461" id="LINE-137" data-name="LINE"/><path class="cls-9" d="M135.072 229.702l1.461 1.461" id="LINE-138" data-name="LINE"/><path class="cls-9" d="M112.127 231.163l1.461-1.461" id="LINE-139" data-name="LINE"/><path class="cls-9" d="M113.588 232.624l-1.461-1.461" id="LINE-140" data-name="LINE"/><path class="cls-9" d="M143.133 289.097h-51.12" id="LINE-141" data-name="LINE"/><path d="M107.405 286.485h-1.395v-8.421l-1.415.868v-1.443l1.415-.943h1.395zM111.4 286.588l-.636-.305a2.5 2.5 0 01-1.022-.882 3.187 3.187 0 01-.489-1.39h1.422a1.5 1.5 0 00.267.7 1.228 1.228 0 00.53.406 1.992 1.992 0 00.762.134 1.483 1.483 0 001.073-.369 1.378 1.378 0 00.383-1.039v-.3a1.677 1.677 0 00-.362-1.152 1.3 1.3 0 00-1.026-.406h-.7v-1.327h.7a1.167 1.167 0 00.9-.348 1.407 1.407 0 00.321-.985v-.307a1.185 1.185 0 00-.339-.909 1.335 1.335 0 00-.96-.322 1.462 1.462 0 00-.636.133 1.219 1.219 0 00-.474.41 1.851 1.851 0 00-.284.695h-1.416a3.626 3.626 0 01.516-1.4 2.518 2.518 0 01.961-.882 2.855 2.855 0 011.333-.3 2.754 2.754 0 011.989.677 2.519 2.519 0 01.7 1.907v.165a2.145 2.145 0 01-.4 1.3 2.269 2.269 0 01-1.142.807 2.019 2.019 0 011.261.8 2.643 2.643 0 01.448 1.586v.164a3.065 3.065 0 01-.334 1.483 2.22 2.22 0 01-.975.937 3.4 3.4 0 01-1.541.321zM118.8 286.588l-.636-.305a2.5 2.5 0 01-1.022-.882 3.174 3.174 0 01-.488-1.39h1.422a1.509 1.509 0 00.266.7 1.234 1.234 0 00.53.406 1.992 1.992 0 00.762.134 1.481 1.481 0 001.073-.369 1.378 1.378 0 00.383-1.039v-.3a1.677 1.677 0 00-.362-1.152 1.3 1.3 0 00-1.025-.406H119v-1.327h.7a1.166 1.166 0 00.9-.348 1.4 1.4 0 00.321-.985v-.307a1.185 1.185 0 00-.339-.909 1.333 1.333 0 00-.96-.322 1.454 1.454 0 00-.635.133 1.215 1.215 0 00-.475.41 1.851 1.851 0 00-.284.695h-1.415a3.626 3.626 0 01.515-1.4 2.525 2.525 0 01.961-.882 2.855 2.855 0 011.333-.3 2.758 2.758 0 011.99.677 2.522 2.522 0 01.7 1.907v.165a2.145 2.145 0 01-.4 1.3 2.271 2.271 0 01-1.141.807 2.019 2.019 0 011.261.8 2.649 2.649 0 01.448 1.586v.164a3.065 3.065 0 01-.335 1.483 2.22 2.22 0 01-.975.937 3.4 3.4 0 01-1.541.321zM125.188 285.843a2.864 2.864 0 01-.721-2.078v-4.519a2.852 2.852 0 01.725-2.082 3.391 3.391 0 014.228 0 2.858 2.858 0 01.721 2.085v4.519a2.849 2.849 0 01-.725 2.081 3.377 3.377 0 01-4.228 0zm3.207-.968a1.6 1.6 0 00.352-1.11v-4.519a1.607 1.607 0 00-.349-1.111 1.743 1.743 0 00-2.188 0 1.607 1.607 0 00-.348 1.111v4.519a1.6 1.6 0 00.351 1.11 1.731 1.731 0 002.182 0z"/><path class="cls-9" d="M92.013 289.097l1.462-1.461" id="LINE-142" data-name="LINE"/><path class="cls-9" d="M93.475 290.559l-1.462-1.462" id="LINE-143" data-name="LINE"/><path class="cls-9" d="M143.133 289.098l-1.461 1.461" id="LINE-144" data-name="LINE"/><path class="cls-9" d="M141.672 287.637l1.461 1.461" id="LINE-145" data-name="LINE"/><path class="cls-9" d="M280.451 289.097H145.998" id="LINE-146" data-name="LINE"/><path d="M180.685 286.588l-.636-.305a2.5 2.5 0 01-1.023-.882 3.174 3.174 0 01-.488-1.39h1.422a1.509 1.509 0 00.266.7 1.231 1.231 0 00.531.406 1.986 1.986 0 00.761.134 1.485 1.485 0 001.074-.369 1.378 1.378 0 00.383-1.039v-.3a1.677 1.677 0 00-.363-1.152 1.3 1.3 0 00-1.025-.406h-.7v-1.327h.7a1.165 1.165 0 00.9-.348 1.4 1.4 0 00.321-.985v-.307a1.188 1.188 0 00-.338-.909 1.335 1.335 0 00-.96-.322 1.456 1.456 0 00-.636.133 1.215 1.215 0 00-.475.41 1.868 1.868 0 00-.284.695H178.7a3.626 3.626 0 01.516-1.4 2.518 2.518 0 01.961-.882 2.852 2.852 0 011.333-.3 2.757 2.757 0 011.989.677 2.519 2.519 0 01.7 1.907v.165a2.151 2.151 0 01-.4 1.3 2.278 2.278 0 01-1.142.807 2.019 2.019 0 011.261.8 2.643 2.643 0 01.448 1.586v.164a3.054 3.054 0 01-.335 1.483 2.223 2.223 0 01-.974.937 3.4 3.4 0 01-1.542.321zM187.791 286.294a2.412 2.412 0 01-.951-.854 3.433 3.433 0 01-.489-1.347v-.007h1.4v.007a1.288 1.288 0 00.438.85 1.409 1.409 0 00.943.305 1.259 1.259 0 001.035-.448 1.941 1.941 0 00.366-1.261v-.834a1.933 1.933 0 00-.366-1.255 1.261 1.261 0 00-1.035-.447 1.314 1.314 0 00-.7.205 1.953 1.953 0 00-.588.574h-1.274v-5.236h5.066v1.326h-3.671v2.236a1.972 1.972 0 01.581-.329 1.9 1.9 0 01.656-.116 2.879 2.879 0 011.474.356 2.272 2.272 0 01.929 1.039 3.9 3.9 0 01.318 1.647v.834a3.792 3.792 0 01-.328 1.648 2.334 2.334 0 01-.957 1.042 3 3 0 01-1.511.359 2.944 2.944 0 01-1.336-.294zM197.494 281.55l-.007.246a1.029 1.029 0 01-.515.461 2.064 2.064 0 01-.818.147 2.2 2.2 0 01-1.251-.362 2.381 2.381 0 01-.838-1.022 3.709 3.709 0 01-.3-1.528v-.007a3.818 3.818 0 01.325-1.647 2.283 2.283 0 01.951-1.039 2.986 2.986 0 011.5-.356 2.923 2.923 0 011.5.363 2.318 2.318 0 01.946 1.053 3.862 3.862 0 01.325 1.661v.006a5.173 5.173 0 01-.136 1.138 6.937 6.937 0 01-.39 1.2l-.082.181a2.775 2.775 0 01-.089.182l-2.119 4.258h-1.5zm.066-.861a1.953 1.953 0 00.358-1.251v-.007a1.855 1.855 0 00-.358-1.217 1.42 1.42 0 00-2.038 0 1.856 1.856 0 00-.359 1.224v.006a1.925 1.925 0 00.359 1.248 1.395 1.395 0 002.038 0zM201.879 285.843a2.864 2.864 0 01-.721-2.078v-4.519a2.852 2.852 0 01.725-2.082 3.391 3.391 0 014.228 0 2.858 2.858 0 01.721 2.085v4.519a2.849 2.849 0 01-.725 2.081 3.377 3.377 0 01-4.228 0zm3.207-.968a1.6 1.6 0 00.351-1.11v-4.519a1.607 1.607 0 00-.348-1.111 1.743 1.743 0 00-2.188 0 1.607 1.607 0 00-.348 1.111v4.519a1.6 1.6 0 00.351 1.11 1.731 1.731 0 002.182 0z"/><path class="cls-9" d="M145.998 289.097l1.461-1.461" id="LINE-147" data-name="LINE"/><path class="cls-9" d="M147.459 290.559l-1.461-1.462" id="LINE-148" data-name="LINE"/><path class="cls-9" d="M280.451 289.098l-1.461 1.461" id="LINE-149" data-name="LINE"/><path class="cls-9" d="M278.99 287.637l1.461 1.461" id="LINE-150" data-name="LINE"/><path class="cls-9" d="M89.063 289.097H39.612" id="LINE-151" data-name="LINE"/><path d="M54.254 286.485H52.86v-8.421l-1.415.868v-1.443l1.415-.943h1.394zM58.247 286.588l-.636-.305a2.5 2.5 0 01-1.023-.882 3.174 3.174 0 01-.488-1.39h1.422a1.5 1.5 0 00.267.7 1.223 1.223 0 00.53.406 1.992 1.992 0 00.762.134 1.484 1.484 0 001.073-.369 1.378 1.378 0 00.383-1.039v-.3a1.677 1.677 0 00-.363-1.152 1.3 1.3 0 00-1.025-.406h-.7v-1.327h.7a1.165 1.165 0 00.9-.348 1.4 1.4 0 00.321-.985v-.307a1.188 1.188 0 00-.338-.909 1.335 1.335 0 00-.96-.322 1.456 1.456 0 00-.636.133 1.215 1.215 0 00-.475.41 1.868 1.868 0 00-.284.695h-1.413a3.626 3.626 0 01.516-1.4 2.518 2.518 0 01.961-.882 2.852 2.852 0 011.333-.3 2.757 2.757 0 011.989.677 2.519 2.519 0 01.7 1.907v.165a2.151 2.151 0 01-.4 1.3 2.278 2.278 0 01-1.142.807 2.019 2.019 0 011.261.8 2.643 2.643 0 01.448 1.586v.164a3.054 3.054 0 01-.335 1.483 2.223 2.223 0 01-.974.937 3.4 3.4 0 01-1.541.321zM63.763 285.276l3.466-4.622a3.46 3.46 0 00.468-.824 2.181 2.181 0 00.168-.8v-.013a1.208 1.208 0 00-.349-.923 1.388 1.388 0 00-.991-.328 1.37 1.37 0 00-.985.358 1.631 1.631 0 00-.458 1.016v.007H63.64v-.007a3.72 3.72 0 01.5-1.46 2.559 2.559 0 01.981-.923 2.93 2.93 0 011.388-.318 3.47 3.47 0 011.518.3 2.138 2.138 0 01.957.886 2.8 2.8 0 01.328 1.4v.007a3.088 3.088 0 01-.219 1.1 4.673 4.673 0 01-.608 1.107l-2.878 3.91h3.76v1.326h-5.604zM71.867 285.843a2.864 2.864 0 01-.721-2.078v-4.519a2.852 2.852 0 01.725-2.082 3.391 3.391 0 014.228 0 2.858 2.858 0 01.721 2.085v4.519a2.849 2.849 0 01-.725 2.081 3.377 3.377 0 01-4.228 0zm3.207-.968a1.6 1.6 0 00.351-1.11v-4.519a1.607 1.607 0 00-.348-1.111 1.743 1.743 0 00-2.188 0 1.607 1.607 0 00-.349 1.111v4.519a1.6 1.6 0 00.352 1.11 1.731 1.731 0 002.182 0z"/><path class="cls-9" d="M39.612 289.097l1.461-1.461" id="LINE-152" data-name="LINE"/><path class="cls-9" d="M41.073 290.559l-1.461-1.462" id="LINE-153" data-name="LINE"/><path class="cls-9" d="M89.063 289.098l-1.461 1.461" id="LINE-154" data-name="LINE"/><path class="cls-9" d="M87.602 287.637l1.461 1.461" id="LINE-155" data-name="LINE"/><path class="cls-9" d="M53.66 199.879v11.063" id="LINE-156" data-name="LINE"/><path class="cls-9" d="M77.075 199.879v11.063" id="LINE-157" data-name="LINE"/><path class="cls-9" d="M77.075 199.878H53.66" id="LINE-158" data-name="LINE"/><path d="M60.278 188.987l-2.571 8.7h-1.483l2.57-8.614h-2.529v1.427h-1.394v-2.755h5.407zM62.913 197.04a2.862 2.862 0 01-.721-2.078v-4.519a2.857 2.857 0 01.724-2.082 3.391 3.391 0 014.229 0 2.859 2.859 0 01.721 2.084v4.519a2.852 2.852 0 01-.725 2.081 3.377 3.377 0 01-4.228 0zm3.207-.968a1.593 1.593 0 00.351-1.11v-4.519a1.6 1.6 0 00-.349-1.111 1.742 1.742 0 00-2.187 0 1.607 1.607 0 00-.349 1.111v4.519a1.593 1.593 0 00.352 1.11 1.731 1.731 0 002.182 0zM70.637 197.04a2.867 2.867 0 01-.721-2.078v-4.519a2.858 2.858 0 01.725-2.082 3.391 3.391 0 014.229 0 2.859 2.859 0 01.72 2.084v4.519a2.558 2.558 0 01-2.837 2.823 2.819 2.819 0 01-2.116-.747zm3.207-.968a1.589 1.589 0 00.352-1.11v-4.519a1.6 1.6 0 00-.349-1.111 1.742 1.742 0 00-2.187 0 1.6 1.6 0 00-.349 1.111v4.519a1.589 1.589 0 00.352 1.11 1.73 1.73 0 002.181 0z"/><path class="cls-9" d="M53.681 199.879l1.461-1.461" id="LINE-159" data-name="LINE"/><path class="cls-9" d="M55.142 201.34l-1.461-1.461" id="LINE-160" data-name="LINE"/><path class="cls-9" d="M77.075 199.879l-1.461 1.461" id="LINE-161" data-name="LINE"/><path class="cls-9" d="M75.614 198.418l1.461 1.461" id="LINE-162" data-name="LINE"/><path class="cls-9" d="M89.104 225.297H24.786" id="LINE-163" data-name="LINE"/><path d="M48.328 238.227h-1.394v-8.422l-1.416.868v-1.442l1.416-.944h1.394zM55.718 229.531l-2.571 8.7h-1.483l2.57-8.614h-2.529v1.429H50.31v-2.755h5.408zM60.031 238.227h-1.394v-8.422l-1.415.868v-1.442l1.415-.944h1.394zM63.008 237.584a2.862 2.862 0 01-.721-2.078v-4.519a2.853 2.853 0 01.725-2.082 3.391 3.391 0 014.228 0 2.859 2.859 0 01.721 2.085v4.519a2.559 2.559 0 01-2.837 2.823 2.816 2.816 0 01-2.116-.748zm3.207-.968a1.593 1.593 0 00.351-1.11v-4.519a1.607 1.607 0 00-.348-1.111 1.743 1.743 0 00-2.188 0 1.607 1.607 0 00-.348 1.111v4.519a1.593 1.593 0 00.351 1.11 1.731 1.731 0 002.182 0z"/><path class="cls-9" d="M24.786 225.297l1.461-1.462" id="LINE-164" data-name="LINE"/><path class="cls-9" d="M26.247 226.758l-1.461-1.461" id="LINE-165" data-name="LINE"/><path class="cls-9" d="M89.104 225.297l-1.461 1.461" id="LINE-166" data-name="LINE"/><path class="cls-9" d="M87.643 223.836l1.461 1.461" id="LINE-167" data-name="LINE"/><path class="cls-9" d="M32.803 213.964v59.537" id="LINE-168" data-name="LINE"/><path d="M45.941 264.659v1.395h-8.422l.869 1.415h-1.443L36 266.054v-1.395zM45.75 260.964a2.407 2.407 0 01-.855.951 3.4 3.4 0 01-1.346.488h-.007v-1.394h.007a1.291 1.291 0 00.851-.438 1.419 1.419 0 00.3-.943 1.259 1.259 0 00-.448-1.035 1.939 1.939 0 00-1.252-.366h-.834a1.928 1.928 0 00-1.254.366 1.259 1.259 0 00-.448 1.035 1.314 1.314 0 00.2.7 1.953 1.953 0 00.574.588v1.272H36v-5.066h1.326v3.671h2.235a1.992 1.992 0 01-.328-.581 1.926 1.926 0 01-.116-.656 2.889 2.889 0 01.356-1.474 2.272 2.272 0 011.039-.929 3.892 3.892 0 011.647-.318H43a3.792 3.792 0 011.648.328 2.329 2.329 0 011.042.957 3 3 0 01.359 1.511 2.931 2.931 0 01-.299 1.333zM41.006 251.261l.246.007a1.029 1.029 0 01.461.515 2.082 2.082 0 01.147.818 2.193 2.193 0 01-.362 1.251 2.381 2.381 0 01-1.022.838 3.706 3.706 0 01-1.528.3h-.007a3.818 3.818 0 01-1.647-.324 2.288 2.288 0 01-1.039-.951 2.986 2.986 0 01-.356-1.5 2.923 2.923 0 01.363-1.5 2.321 2.321 0 011.052-.946 3.876 3.876 0 011.662-.325h.006a5.189 5.189 0 011.139.136 6.955 6.955 0 011.2.39l.181.082c.062.027.122.057.182.089l4.258 2.119v1.5zm-.862-.066a1.949 1.949 0 00-1.251-.358h-.006a1.857 1.857 0 00-1.217.358 1.42 1.42 0 000 2.038 1.856 1.856 0 001.223.359h.007a1.925 1.925 0 001.248-.359 1.393 1.393 0 000-2.038zM45.3 246.876a2.864 2.864 0 01-2.078.721H38.7a2.843 2.843 0 110-5.674h4.519a2.559 2.559 0 012.823 2.837 2.816 2.816 0 01-.742 2.116zm-.968-3.207a1.593 1.593 0 00-1.11-.351H38.7a1.607 1.607 0 00-1.111.348 1.743 1.743 0 000 2.188 1.607 1.607 0 001.111.348h4.519a1.593 1.593 0 001.11-.351 1.731 1.731 0 000-2.182z"/><path class="cls-9" d="M32.803 273.501l-1.461-1.461" id="LINE-169" data-name="LINE"/><path class="cls-9" d="M34.264 272.04l-1.461 1.461" id="LINE-170" data-name="LINE"/><path class="cls-9" d="M32.804 213.964l1.461 1.462" id="LINE-171" data-name="LINE"/><path class="cls-9" d="M31.342 215.426l1.462-1.462" id="LINE-172" data-name="LINE"/></g></svg>