<svg xmlns="http://www.w3.org/2000/svg" width="694.726" height="603.485" viewBox="0 0 521.043 452.613"><defs><pattern id="Новый_узор_3" data-name="Новый узор 3" width="35.15" height="35.15" patternTransform="translate(-7.256 -21.209)" patternUnits="userSpaceOnUse"><path class="cls-1" d="M0 0h35.15v35.15H0z"/><path class="cls-2" d="M35.149 35.15h35.15V70.3h-35.15z"/><path class="cls-2" d="M0 35.15h35.15V70.3H0zM-35.15 35.15H0V70.3h-35.15z"/><path class="cls-2" d="M35.149.001h35.15v35.15h-35.15z"/><path class="cls-2" d="M0 .001h35.15v35.15H0zM-35.15.001H0v35.15h-35.15zM35.149-35.149h35.15V.001h-35.15z"/><path class="cls-2" d="M0-35.149h35.15V.001H0zM-35.15-35.149H0V.001h-35.15z"/></pattern><pattern id="Новый_узор_4" data-name="Новый узор 4" width="9.822" height="9.822" patternTransform="translate(-4.109 -8.736)" patternUnits="userSpaceOnUse"><path class="cls-1" d="M0 0h9.822v9.822H0z"/><path class="cls-3" d="M14.733 19.647L9.82 14.735l4.913-4.913 4.912 4.913-4.912 4.912z"/><path class="cls-3" d="M4.911 19.647l-4.913-4.912 4.913-4.913 4.912 4.913-4.912 4.912z"/><path class="cls-3" d="M-4.912 19.647l-4.912-4.912 4.912-4.913 4.913 4.913-4.913 4.912zM14.733 9.825L9.82 4.912 14.733 0l4.912 4.912-4.912 4.913z"/><path class="cls-3" d="M4.911 9.825L-.002 4.912 4.911 0l4.912 4.912-4.912 4.913z"/><path class="cls-3" d="M-4.912 9.825l-4.912-4.913L-4.912 0 .001 4.912l-4.913 4.913zM14.733.003L9.82-4.91l4.913-4.912 4.912 4.912L14.733.003z"/><path class="cls-3" d="M4.911.003L-.002-4.91l4.913-4.912L9.823-4.91 4.911.003z"/><path class="cls-3" d="M-4.912.003L-9.824-4.91l4.912-4.912L.001-4.91-4.912.003z"/></pattern><pattern id="Новый_узор_5" data-name="Новый узор 5" width="22.872" height="23.072" patternTransform="translate(-8.441 -10.048)" patternUnits="userSpaceOnUse"><path class="cls-1" d="M0 0h22.872v23.072H0z"/><path class="cls-4" d="M22.664 17.512v11.12H.208v-11.12h22.456m.108-.108H.1V28.74h22.672V17.4zM22.664 5.976V17.1H.208V5.976h22.456m.108-.108H.1V17.2h22.672V5.868zM22.664-5.56V5.56H.208V-5.56h22.456m.108-.108H.1V5.668h22.672V-5.668z"/></pattern><style>.cls-1,.cls-11,.cls-12,.cls-13,.cls-15,.cls-2,.cls-3,.cls-4,.cls-9{fill:none}.cls-2{stroke:#ededed}.cls-11,.cls-12,.cls-2,.cls-3,.cls-9{stroke-linecap:round;stroke-linejoin:round}.cls-11,.cls-2,.cls-3,.cls-9{stroke-width:.4px}.cls-3,.cls-4{stroke:#e6e6e6}.cls-10,.cls-11,.cls-12,.cls-3,.cls-5{fill-rule:evenodd}.cls-4{stroke-miterlimit:10;stroke-width:.2px}.cls-5{fill:#fff}.cls-11,.cls-12,.cls-13,.cls-9{stroke:#000}.cls-12{stroke-width:.425px}.cls-13,.cls-15{stroke-miterlimit:22.926}.cls-13{stroke-width:.2px}.cls-15{stroke:gray;stroke-width:.6px}</style></defs><g id="_253" data-name="253"><path class="cls-5" d="M210 150.622V35.167h-21.381a45.12 45.12 0 00-2.955-15.023l-33.8 15.023H.285v344.044H289.16v41.828h90.687v-41.828h108.94V150.622z" id="fon"/><path stroke="#dcdcdc" fill="url(#Новый_узор_3)" fill-rule="evenodd" stroke-width=".4" stroke-linecap="round" stroke-linejoin="round" d="M488.787 150.622h-278.79V35.167H.285v344.044H289.16v41.828h90.687v-41.828h108.94V150.622z" id="grid"/><g id="mebel" fill-rule="evenodd"><path fill="url(#Новый_узор_4)" d="M69.055 43.48v4.536H33.913v9.652H11.241v42.319H107.974V43.48H69.055z"/><path fill="url(#Новый_узор_5)" d="M15.775 103.009v32.671h-4.534v28.718H107.974v-61.389H15.775z"/></g><g id="walls"><path class="cls-9" d="M185.412 19.614a43.1 43.1 0 013.217 15.553"/><path class="cls-10" d="M185.389 19.509L149.18 35.167l.001 1.512h.453l36.355-15.782-.6-1.388z"/><path class="cls-11" d="M122.058 61.92A24.81 24.81 0 00111 59.652"/><path class="cls-10" d="M122.157 61.962l-1.388-.6-11.282 25.95v.454h1.511l11.159-25.804z"/><path class="cls-11" d="M217.858 237.222a31.579 31.579 0 01-2.577-12.562"/><path class="cls-10" d="M217.9 237.318l29.272-12.655v-1.512h-.453l-29.42 12.779.601 1.388z"/><path class="cls-11" d="M49.648 153.632a32.853 32.853 0 00-2.207 10.768"/><path class="cls-10" d="M49.689 153.538l-.601 1.387 25.257 10.982h.453v-1.511l-25.109-10.858z"/><path class="cls-11" d="M119.981 203.84a35.5 35.5 0 0012.555 2.575"/><path class="cls-10" d="M119.877 203.795l1.388.6 12.782-29.418v-.454h-1.511l-12.659 29.272z"/><path class="cls-9" d="M355.286 371.654v-16.247M355.286 379.211v-5.668M355.286 373.543v-1.889M313.721 371.654v-16.247M313.721 379.211v-5.668M313.721 373.543v-1.889M313.721 379.211h41.564M313.721 355.407h41.564M313.721 371.654h2.834M316.555 371.654v.945M316.555 372.599h.945M317.5 372.599v.944M317.5 373.543h-3.779M347.351 373.543h-1.89M345.461 373.543v-.944M345.461 372.599h.945M346.407 372.599v-.944M346.407 371.654h.944M316.555 370.709l21.107-21.107M345.461 373.543H317.5M319.389 370.709h24.184M316.555 370.709h2.834M319.389 370.709v1.89M319.389 372.599h-2.834M316.555 372.599v-1.89M346.407 372.599h-2.834M343.573 372.599v-1.89M343.573 370.709h2.834M346.407 370.709v1.89M343.573 372.599h-24.184M319.389 370.709h24.184M319.389 371.654h24.184M347.351 371.654h1.89M349.241 371.654v1.889M349.241 373.543h-1.89M355.286 373.543h-3.778M351.507 373.543v-1.889M351.507 371.654h3.778M349.241 372.599h2.267M349.241 371.654h2.267M351.507 373.543h-2.267"/><path class="cls-11" d="M337.663 349.6a29.846 29.846 0 018.744 21.107"/><path class="cls-9" d="M313.721 373.543v-1.889M313.721 373.543v-1.889M313.721 379.211v-5.668M313.721 371.654v-16.247M355.286 373.543v-1.889M355.286 373.543v-1.889M355.286 379.211v-5.668M355.286 371.654v-16.247M221.145 371.654v-16.247M221.145 379.211v-5.668M221.145 373.543v-1.889M155.019 371.654v-16.247M155.019 379.211v-5.668M155.019 373.543v-1.889M155.019 379.211h66.126M155.019 355.407h66.126M155.019 371.654h3.778M158.797 371.654v1.889M158.797 373.543h-3.778M192.805 373.543h-1.89M190.916 373.543v-1.889M190.916 371.654h1.89M158.797 372.599h32.118M158.797 371.654h32.118M190.916 373.543h-32.119M192.805 371.654h.944M193.749 371.654v.945M193.749 372.599h.945M194.694 372.599v.944M194.694 373.543h-1.889M221.145 373.543h-3.779M217.366 373.543v-.944M217.366 372.599h.945M218.311 372.599v-.944M218.311 371.654h2.834M217.366 373.543h-22.672M196.584 370.709h18.894M193.749 370.709h2.835M196.584 370.709v1.89M196.584 372.599h-2.835M193.749 372.599v-1.89M218.311 372.599h-2.834M215.477 372.599v-1.89M215.477 370.709h2.834M218.311 370.709v1.89M215.477 372.599h-18.894M196.584 370.709h18.894M196.584 371.654h18.894M155.019 373.543v-1.889M155.019 373.543v-1.889M155.019 379.211v-5.668M155.019 371.654v-16.247M221.145 373.543v-1.889M221.145 373.543v-1.889M221.145 379.211v-5.668M221.145 371.654v-16.247M26.545 371.654v-16.247M26.545 379.211v-5.668M26.545 373.543v-1.889M109.675 371.654v-16.247M109.675 379.211v-5.668M109.675 373.543v-1.889M109.675 379.211h-83.13M109.675 355.407h-83.13M109.675 371.654h-3.778M105.897 371.654v1.889M105.897 373.543h3.778M54.885 373.543h1.89M56.775 373.543v-1.889M56.775 371.654h-1.89M105.897 372.599H56.775M105.897 371.654H56.775M56.775 373.543h49.122M54.885 371.654h-.944M53.941 371.654v.945M53.941 372.599h-.945M52.996 372.599v.944M52.996 373.543h1.89M26.545 373.543h3.778M30.324 373.543v-.944M30.324 372.599h-.944M29.379 372.599v-.944M29.379 371.654h-2.834M30.324 373.543h22.672M51.106 370.709H32.213M53.941 370.709h-2.835M51.106 370.709v1.89M51.106 372.599h2.835M53.941 372.599v-1.89M29.379 372.599h2.834M32.213 372.599v-1.89M32.213 370.709h-2.834M29.379 370.709v1.89M32.213 372.599h18.893M51.106 370.709H32.213M51.106 371.654H32.213M109.675 373.543v-1.889M109.675 373.543v-1.889M109.675 379.211v-5.668M109.675 371.654v-16.247M26.545 373.543v-1.889M26.545 373.543v-1.889M26.545 379.211v-5.668M26.545 371.654v-16.247"/><path class="cls-12" d="M379.091 420.226h-89.175m0 0v-41.015m0 0h89.175m0 0v41.015M379.847 420.982H289.16m0 0v-41.771m0 0h90.687m0 0v41.771"/><path class="cls-9" d="M400.632 371.557v-16.248M400.632 379.114v-5.667M400.632 373.447v-1.891M400.632 379.114h88.042M400.632 355.309h64.235M400.632 371.557h4.723M405.354 371.557v1.89M405.354 373.447h-4.723M481.116 373.447h-4.723M476.393 373.447v-1.891M476.393 371.557h4.723M483.005 373.447h-1.889M405.354 371.557h71.039M476.393 373.447h-71.039M400.632 373.447v-1.891M400.632 373.447v-1.891M400.632 379.114v-5.667M400.632 371.557v-16.248M481.116 224.001h-16.248M488.674 224.001h-5.669M483.005 224.001h-1.889M488.674 224.001v155.113M464.868 224.001v131.308M481.116 224.001v4.724M481.116 228.725h1.89M483.005 228.725v-4.724M483.005 371.557v-4.724M483.005 366.833h-1.889M481.116 366.833v4.724M483.005 373.447v-1.891M481.116 228.725v138.108M483.005 366.833V228.725M483.005 224.001h-1.889M483.005 224.001h-1.889M488.674 224.001h-5.669M481.116 224.001h-16.248"/><path class="cls-13" d="M481.116 306.786h1.889v5.133h-1.889zM481.116 264.279h1.889v5.133h-1.889z"/><path d="M.283 379.212v-23.805h26.262v23.805zm0-335.731v-8.313h148.9v1.512h.453v6.8zM210 35.167v8.26c-7.315 0-14.5.054-21.822.054v-6.8h.454v-1.513zm-72.175 189.486v130.754h17.193v23.805h-45.344v-23.805h19.083v-133.78h9.068v3.026zm140.187.013v41.677h10.959v-44.7h-10.959v3.022zm210.659-.566h-23.805v-73.478h23.805V224.1zM355.285 355.407h45.344v23.805h-45.344v-23.805zm-134.141 0h92.576v23.805h-92.576z" stroke-miterlimit="3" stroke-width=".48" stroke="#000" fill-rule="evenodd"/></g><g id="wall_2" data-name="wall 2"><path class="cls-5" d="M.283 158.919V43.48h10.958v11.164h19.65V43.482h3.022v1.512h32.119V43.48h3.023v4.536H33.913v9.652H11.241v42.319h96.733V87.313h1.512v.454H111V164.4h-3.022v-61.391h-92.2v32.671h-4.537v28.72h36.2v1.51h.459v1.512H11.241v187.985H.283V158.919zm219.161-8.3h245.422v10.957H288.971v24.167h-10.959v-2.268h-13.6v-21.9H199.8V43.427H210V150.622zm47.987 10.957v18.877h10.581v-18.874zm21.54 104.764h-10.959v89.064h10.959v-89.061zM11.241 132.658h1.512v-29.649h-1.512v29.649zm96.733-89.178v16.627h1.512v-.453H111V43.48zm24.561 178.147v-15.212h1.511v-.453h1.512v15.665zm5.29 0q38.955 0 77.91.01v1.512h-.454v1.51q-38.729 0-77.456-.006v-3.026zm140.187 3.039v-3.022h-31.293v1.512h.453v1.511h30.84zM74.8 164.4v1.51h-.453v1.512h58.19v7.1h1.511v.454h1.512V164.4z"/><path class="cls-15" d="M3.178 43.48l-2.9 2.55M10.598 43.48L.278 52.57M11.238 49.45L.278 59.11M12.778 54.64L.278 65.65M32.868 43.48l-1.98 1.74M11.238 62.53L.278 72.19M20.198 54.64l-3.44 3.03M27.618 54.64l-3.44 3.03M11.238 69.07L.278 78.72M38.568 44.99l-3.44 3.03M33.908 49.1l-3.02 2.66M11.238 75.61L.278 85.27M33.908 55.64l-2.3 2.03M45.998 44.99l-3.44 3.03M11.238 82.15L.278 91.8M53.418 44.99l-3.44 3.03M11.238 88.68L.278 98.34M60.838 44.99l-3.44 3.03M11.238 95.22l-10.96 9.66M69.058 44.29l-4.24 3.73M13.248 99.99L.278 111.41M15.778 104.3l-3.03 2.67M20.678 99.99l-3.43 3.02M11.238 108.3l-10.96 9.66M15.778 110.84l-3.03 2.67M28.098 99.99l-3.43 3.02M11.238 114.84L.278 124.5M15.778 117.38l-3.03 2.67M35.518 99.99l-3.43 3.02M11.238 121.38l-10.96 9.65M15.778 123.91l-3.03 2.67M42.938 99.99l-3.43 3.02M11.238 127.91l-10.96 9.66M50.358 99.99l-3.42 3.02M15.778 130.46l-15.5 13.65M110.998 46.57l-3.02 2.66M110.998 53.11l-3.02 2.66M11.238 140.99l-10.96 9.66M57.788 99.99l-3.43 3.02M65.208 99.99l-3.43 3.02M11.238 147.53l-10.96 9.66M72.628 99.99l-3.43 3.02M11.238 154.07l-10.96 9.65M80.058 99.99l-3.43 3.02M11.238 160.61l-10.96 9.66M87.478 99.99l-3.43 3.02M14.358 164.4L.278 176.8M94.888 99.99l-3.42 3.02M11.238 173.68l-10.96 9.66M21.778 164.4l-3.43 3.02M109.288 87.31l-1.31 1.15M110.998 92.34l-3.02 2.66M29.198 164.4l-3.43 3.02M11.238 180.22l-10.96 9.66M102.318 99.99l-3.43 3.02M110.998 98.88l-4.69 4.13M11.238 186.76l-10.96 9.65M36.618 164.4l-3.43 3.02M110.998 105.42l-3.02 2.66M44.048 164.4l-3.43 3.02M11.238 193.3l-10.96 9.66M110.998 111.96l-3.02 2.66M11.238 199.84l-10.96 9.65M110.998 118.5l-3.02 2.66M11.238 206.38l-10.96 9.65M110.998 125.03l-3.02 2.66M11.238 212.91l-10.96 9.66M203.628 43.43l-3.83 3.38M110.998 131.57l-3.02 2.66M11.238 219.46l-10.96 9.65M209.998 44.36l-10.2 8.99M110.998 138.11l-3.02 2.66M81.158 164.4l-3.43 3.02M11.238 225.99l-10.96 9.66M209.998 50.9l-10.2 8.99M88.578 164.4l-3.43 3.02M110.998 144.65l-3.02 2.66M11.238 232.53l-10.96 9.66M209.998 57.44l-10.2 8.98M95.998 164.4l-3.43 3.02M110.998 151.19l-3.02 2.66M11.238 239.07l-10.96 9.65M209.998 63.98l-10.2 8.98M103.418 164.4l-3.42 3.02M110.998 157.73l-3.02 2.66M11.238 245.61l-10.96 9.65M209.998 70.52l-10.2 8.98"/><path stroke="gray" stroke-width=".6" stroke-miterlimit="22.926" fill-rule="evenodd" fill="none" d="M110.998 164.27l-.15.13-3.43 3.02"/><path class="cls-15" d="M11.238 252.15L.278 261.8M209.998 77.06l-10.2 8.98M118.268 164.4l-3.43 3.02M11.238 258.68l-10.96 9.66M209.998 83.59l-10.2 8.99M125.688 164.4l-3.43 3.02M11.238 265.22l-10.96 9.66M209.998 90.13l-10.2 8.99M133.108 164.4l-3.43 3.02M11.238 271.76l-10.96 9.65M209.998 96.67l-10.2 8.98M11.238 278.3l-10.96 9.66M135.558 168.79l-3.02 2.66M209.998 103.21l-10.2 8.99M11.238 284.84l-10.96 9.65M209.998 109.75l-10.2 8.98M11.238 291.38l-10.96 9.65M209.998 116.29l-10.2 8.98M11.238 297.91l-10.96 9.66M209.998 122.82l-10.2 8.99M11.238 304.46l-10.96 9.65M209.998 129.36l-10.2 8.99M11.238 310.99l-10.96 9.66M209.998 135.9l-10.2 8.99M11.238 317.53l-10.96 9.66M135.558 208.01l-3.02 2.67M209.998 142.44l-10.2 8.98M11.238 324.07l-10.96 9.65M209.998 148.98l-10.2 8.98M135.558 214.55l-3.02 2.66M11.238 330.6l-10.96 9.66M135.558 221.09l-.61.54M215.558 150.62l-12.44 10.96M11.238 337.15L.278 346.8M142.368 221.63l-3.42 3.02M222.978 150.62l-12.44 10.96M11.238 343.68l-10.96 9.66M230.398 150.62l-12.44 10.96M149.788 221.63l-3.43 3.02M157.208 221.63l-3.43 3.02M237.818 150.62l-12.44 10.96M11.238 350.22l-5.89 5.19M164.628 221.63l-3.43 3.02M245.248 150.62l-12.45 10.96M172.058 221.63l-3.43 3.02M252.668 150.62l-12.44 10.96M179.478 221.64l-3.43 3.01M260.088 150.62l-12.44 10.96M186.898 221.64l-3.43 3.02M267.518 150.62l-12.45 10.96M194.318 221.64l-3.43 3.02M274.928 150.62l-12.44 10.96M267.428 163.77l-3.02 2.66M201.738 221.64l-3.43 3.02M282.348 150.62l-12.44 10.96M267.428 170.31l-3.02 2.66M209.158 221.64l-3.43 3.02M289.778 150.62l-12.44 10.96M267.428 176.85l-3.02 2.66M297.198 150.62l-19.19 16.91M215.738 222.38l-2.59 2.28M288.968 164.41l-10.96 9.66M270.748 180.46l-3.43 3.02M304.628 150.62l-12.45 10.96M288.968 170.95l-14.22 12.53M312.048 150.62l-12.44 10.96M288.968 177.49l-9.38 8.26M319.468 150.62l-12.44 10.96M326.888 150.62l-12.44 10.96M288.968 184.03l-1.96 1.72M334.308 150.62l-12.44 10.96M253.688 221.64l-3.43 3.02M261.108 221.64l-3.43 3.02M341.738 150.62l-12.45 10.96M268.538 221.64l-3.43 3.03M349.158 150.62l-12.44 10.96M356.578 150.62l-12.44 10.96M275.958 221.64l-3.43 3.03M364.008 150.62l-12.44 10.96M371.418 150.62l-12.44 10.96M378.848 150.62l-12.45 10.96M386.268 150.62l-12.44 10.96M393.688 150.62l-12.44 10.96M401.118 150.62l-12.44 10.96M408.538 150.62l-12.44 10.96M415.958 150.62l-12.44 10.96M284.598 266.34l-6.59 5.8M288.968 269.03l-10.96 9.65M423.378 150.62l-12.44 10.96M288.968 275.56l-10.96 9.66M430.798 150.62l-12.44 10.96M288.968 282.1l-10.96 9.66M438.228 150.62l-12.44 10.96M288.968 288.64l-10.96 9.66M445.648 150.62l-12.44 10.96M288.968 295.18l-10.96 9.66M453.078 150.62l-12.45 10.96M288.968 301.72l-10.96 9.65M460.498 150.62l-12.44 10.96M288.968 308.25l-10.96 9.66M464.868 153.3l-9.4 8.28M288.968 314.79l-10.96 9.66M464.868 159.84l-1.98 1.74M288.968 321.33l-10.96 9.66M288.968 327.87l-10.96 9.66M288.968 334.41l-10.96 9.65M288.968 340.95l-10.96 9.65M288.968 347.49l-8.99 7.92M288.968 354.03l-1.57 1.38"/><path d="M.283 158.919V43.48h10.958v11.164h19.65V43.482h3.022v1.512h32.119V43.48h3.023v4.536H33.913v9.652H11.241v42.319h96.733V87.313h1.512v.454H111V164.4h-3.022v-61.391h-92.2v32.671h-4.537v28.72h36.2v1.51h.459v1.512H11.241v187.985H.283V158.919zm219.161-8.3h245.422v10.957H288.971v24.167h-10.959v-2.268h-13.6v-21.9H199.8V43.427H210V55.4h0v3.022h0v92.2zm47.987 10.957v18.877h10.581v-18.874zm21.54 104.764h-10.959v89.064h10.959v-89.061zM11.241 132.658v-29.649h1.512v29.649zm96.733-89.178H111v16.174h-1.51v.453h-1.512V43.48zm24.561 178.147v-15.212h1.511v-.453h1.512v15.665zm5.29 0q38.955 0 77.91.01v1.512h-.454v1.51q-38.729 0-77.456-.006v-3.026zm140.187 3.039v-3.022h-31.293v1.512h.453v1.511h30.84zM74.8 164.4v1.51h-.453v1.512h58.19v7.1h1.511v.454h1.512V164.4z" stroke-width=".567" stroke-miterlimit="22.926" stroke="#000" fill-rule="evenodd" fill="none"/></g></g><g id="sizes"><path class="cls-9" d="M188.339 15.605v22.46" id="LINE"/><path class="cls-9" d="M149.454 15.605v22.46" id="LINE-2" data-name="LINE"/><path class="cls-9" d="M149.454 15.604h38.885" id="LINE-3" data-name="LINE"/><path d="M160.363 11.97h-1.383V3.548l-1.4.868V2.974l1.4-.944h1.383zM164.978 11.97H163.6V3.548l-1.4.868V2.974l1.4-.944h1.383zM167.929 11.327a2.875 2.875 0 01-.715-2.078V4.73a2.867 2.867 0 01.718-2.081 3.337 3.337 0 014.192 0 2.875 2.875 0 01.714 2.084v4.516a2.87 2.87 0 01-.718 2.082 3.326 3.326 0 01-4.191 0zm3.178-.967a1.605 1.605 0 00.349-1.111V4.73a1.608 1.608 0 00-.346-1.11 1.712 1.712 0 00-2.168 0 1.608 1.608 0 00-.346 1.11v4.519a1.6 1.6 0 00.349 1.111 1.707 1.707 0 002.162 0zM175.586 11.327a2.879 2.879 0 01-.714-2.078V4.73a2.867 2.867 0 01.718-2.081 3.335 3.335 0 014.191 0 2.871 2.871 0 01.719 2.081v4.519a2.874 2.874 0 01-.718 2.082 3.328 3.328 0 01-4.192 0zm3.179-.967a1.605 1.605 0 00.349-1.111V4.73a1.608 1.608 0 00-.346-1.11 1.712 1.712 0 00-2.168 0 1.608 1.608 0 00-.346 1.11v4.519a1.6 1.6 0 00.349 1.111 1.707 1.707 0 002.162 0z"/><path class="cls-9" d="M188.339 15.604l-1.448-1.461" id="LINE-4" data-name="LINE"/><path class="cls-9" d="M186.891 17.066l1.448-1.462" id="LINE-5" data-name="LINE"/><path class="cls-9" d="M149.454 15.605l1.448 1.461" id="LINE-6" data-name="LINE"/><path class="cls-9" d="M150.902 14.144l-1.448 1.461" id="LINE-7" data-name="LINE"/><path class="cls-9" d="M19.237 57.781V99.81" id="LINE-8" data-name="LINE"/><path d="M31.23 87.889v1.416h-8.422l.868 1.437h-1.442l-.943-1.437v-1.416zM31.23 83.162v1.416h-8.422l.868 1.436h-1.442l-.943-1.436v-1.416zM30.587 80.139a2.837 2.837 0 01-2.078.733h-4.518a2.828 2.828 0 01-2.082-.737 3.481 3.481 0 010-4.293 2.833 2.833 0 012.085-.732h4.518a2.832 2.832 0 012.082.735 3.47 3.47 0 010 4.294zm-.967-3.256a1.578 1.578 0 00-1.111-.357h-4.518a1.587 1.587 0 00-1.111.354 1.79 1.79 0 000 2.221 1.587 1.587 0 001.111.355h4.518a1.579 1.579 0 001.111-.356 1.782 1.782 0 000-2.215zM30.587 72.3a2.833 2.833 0 01-2.078.733h-4.518a2.828 2.828 0 01-2.082-.736 3.481 3.481 0 010-4.293 2.83 2.83 0 012.085-.733h4.518a2.832 2.832 0 012.079.729 3.47 3.47 0 010 4.294zm-.967-3.26a1.574 1.574 0 00-1.111-.358h-4.518a1.583 1.583 0 00-1.111.355 1.789 1.789 0 000 2.22 1.583 1.583 0 001.111.355h4.518a1.574 1.574 0 001.111-.358 1.78 1.78 0 000-2.214z"/><path class="cls-9" d="M19.237 99.81l-1.461-1.461" id="LINE-9" data-name="LINE"/><path class="cls-9" d="M20.699 98.349l-1.462 1.461" id="LINE-10" data-name="LINE"/><path class="cls-9" d="M19.238 57.781l1.461 1.461" id="LINE-11" data-name="LINE"/><path class="cls-9" d="M17.777 59.242l1.461-1.461" id="LINE-12" data-name="LINE"/><path class="cls-9" d="M19.237 103.114v61.217" id="LINE-13" data-name="LINE"/><path d="M31.23 144.222v1.416h-8.422l.868 1.437h-1.442l-.943-1.437v-1.416zM30.98 140.848a2.3 2.3 0 01-1.025.961 3.645 3.645 0 01-1.623.33h-.007a5.479 5.479 0 01-1.162-.132 6.633 6.633 0 01-1.2-.382 2.761 2.761 0 01-.2-.089l-.2-.1-4.279-2.193v-1.528l4.956 2.575-.24-.004a1.214 1.214 0 01-.5-.507 1.636 1.636 0 01-.177-.778 2.509 2.509 0 01.348-1.346 2.191 2.191 0 011.016-.854 3.988 3.988 0 011.6-.292h.013a3.758 3.758 0 011.641.33 2.3 2.3 0 011.039.965 3.445 3.445 0 010 3.044zm-1.4-2.557a1.7 1.7 0 00-1.169-.366h-.007a1.953 1.953 0 00-1.289.382 1.345 1.345 0 00-.454 1.09 1.154 1.154 0 00.458.979 2.1 2.1 0 001.292.347h.006a1.69 1.69 0 001.166-.364 1.513 1.513 0 000-2.068zM28.5 134.775l-7.2-3.388v-1.458l7.117 3.305v-4.949h1.292v6.49zm-3.111-4.353v-1.38h5.852v1.38zM30.587 125.817a2.836 2.836 0 01-2.078.732h-4.518a2.828 2.828 0 01-2.082-.736 3.481 3.481 0 010-4.293 2.833 2.833 0 012.085-.732h4.518a2.832 2.832 0 012.082.735 3.47 3.47 0 010 4.294zm-.967-3.256a1.578 1.578 0 00-1.111-.357h-4.518a1.587 1.587 0 00-1.111.354 1.79 1.79 0 000 2.221 1.587 1.587 0 001.111.354h4.518a1.578 1.578 0 001.111-.357 1.782 1.782 0 000-2.215z"/><path class="cls-9" d="M19.237 164.331l-1.461-1.461" id="LINE-14" data-name="LINE"/><path class="cls-9" d="M20.699 162.87l-1.462 1.461" id="LINE-15" data-name="LINE"/><path class="cls-9" d="M19.238 103.114l1.461 1.461" id="LINE-16" data-name="LINE"/><path class="cls-9" d="M17.777 104.575l1.461-1.461" id="LINE-17" data-name="LINE"/><path class="cls-9" d="M19.237 167.552v187.737" id="LINE-18" data-name="LINE"/><path d="M31.039 273a2.442 2.442 0 01-.855.964 3.366 3.366 0 01-1.347.5h-.006v-1.416h.006a1.287 1.287 0 00.851-.445 1.452 1.452 0 00.3-.958 1.293 1.293 0 00-.448-1.052 1.925 1.925 0 00-1.261-.371h-.829a1.917 1.917 0 00-1.255.371 1.293 1.293 0 00-.447 1.052 1.348 1.348 0 00.2.708 1.956 1.956 0 00.574.6v1.291h-5.231v-5.154h1.326v3.728h2.235a2.027 2.027 0 01-.328-.59 1.958 1.958 0 01-.116-.666 2.965 2.965 0 01.355-1.5 2.29 2.29 0 011.039-.944 3.838 3.838 0 011.648-.323h.834a3.73 3.73 0 011.647.333 2.341 2.341 0 011.043.972 3.091 3.091 0 01.359 1.534 3.039 3.039 0 01-.294 1.366zM30.587 265.984a2.836 2.836 0 01-2.078.732h-4.518a2.828 2.828 0 01-2.082-.736 3.481 3.481 0 010-4.293 2.833 2.833 0 012.085-.732h4.518a2.832 2.832 0 012.082.735 3.47 3.47 0 010 4.294zm-.967-3.256a1.578 1.578 0 00-1.111-.357h-4.518a1.587 1.587 0 00-1.111.354 1.79 1.79 0 000 2.221 1.587 1.587 0 001.111.354h4.518a1.578 1.578 0 001.111-.357 1.782 1.782 0 000-2.215zM31.23 256.436v1.416h-8.422l.868 1.437h-1.442l-.943-1.437v-1.416zM30.587 253.414a2.836 2.836 0 01-2.078.732h-4.518a2.828 2.828 0 01-2.082-.736 3.481 3.481 0 010-4.293 2.83 2.83 0 012.085-.733h4.518a2.828 2.828 0 012.082.736 3.47 3.47 0 010 4.294zm-.967-3.256a1.574 1.574 0 00-1.111-.358h-4.518a1.583 1.583 0 00-1.111.355 1.789 1.789 0 000 2.22 1.583 1.583 0 001.111.355h4.518a1.578 1.578 0 001.111-.357 1.782 1.782 0 000-2.215z"/><path class="cls-9" d="M19.237 355.289l-1.461-1.461" id="LINE-19" data-name="LINE"/><path class="cls-9" d="M20.699 353.828l-1.462 1.461" id="LINE-20" data-name="LINE"/><path class="cls-9" d="M19.238 167.552l1.461 1.461" id="LINE-21" data-name="LINE"/><path class="cls-9" d="M17.777 169.013l1.461-1.461" id="LINE-22" data-name="LINE"/><path class="cls-9" d="M121.295 221.627v133.662" id="LINE-23" data-name="LINE"/><path d="M117.9 300.992l-.3.645a2.518 2.518 0 01-.882 1.038 3.134 3.134 0 01-1.391.5v-1.443a1.5 1.5 0 00.7-.27 1.263 1.263 0 00.406-.539 2.052 2.052 0 00.134-.774 1.519 1.519 0 00-.37-1.09 1.364 1.364 0 00-1.039-.388h-.3a1.659 1.659 0 00-1.152.368 1.33 1.33 0 00-.407 1.041v.715h-1.326v-.715a1.189 1.189 0 00-.349-.916 1.382 1.382 0 00-.984-.327h-.308a1.183 1.183 0 00-.909.344 1.374 1.374 0 00-.321.975 1.5 1.5 0 00.133.645 1.23 1.23 0 00.41.483 1.855 1.855 0 00.694.288v1.437a3.581 3.581 0 01-1.395-.524 2.542 2.542 0 01-.881-.976 2.924 2.924 0 01-.3-1.353 2.821 2.821 0 01.677-2.02 2.5 2.5 0 011.907-.715h.164a2.12 2.12 0 011.3.41 2.307 2.307 0 01.806 1.159 2.058 2.058 0 01.8-1.28 2.615 2.615 0 011.583-.46h.164a3.036 3.036 0 011.484.34 2.237 2.237 0 01.936.99 3.5 3.5 0 01.321 1.565zM117.548 294.155a2.3 2.3 0 01-1.025.961 3.66 3.66 0 01-1.624.33h-.006a5.488 5.488 0 01-1.163-.132 6.648 6.648 0 01-1.2-.382 2.255 2.255 0 01-.2-.09l-.195-.1-4.28-2.194v-1.527l4.956 2.575-.246-.007a1.2 1.2 0 01-.5-.507 1.629 1.629 0 01-.177-.777 2.512 2.512 0 01.348-1.347 2.186 2.186 0 011.015-.853 4 4 0 011.6-.292h.007a3.746 3.746 0 011.641.33 2.306 2.306 0 011.039.965 3.453 3.453 0 010 3.044zm-1.4-2.558a1.7 1.7 0 00-1.169-.365h-.006a1.951 1.951 0 00-1.289.382 1.345 1.345 0 00-.455 1.09 1.157 1.157 0 00.458.979 2.1 2.1 0 001.292.347h.007a1.69 1.69 0 001.166-.364 1.513 1.513 0 000-2.069zM117.155 287.209a2.833 2.833 0 01-2.078.733h-4.518a2.828 2.828 0 01-2.082-.736 3.481 3.481 0 010-4.293 2.83 2.83 0 012.085-.733h4.518a2.828 2.828 0 012.082.736 3.472 3.472 0 010 4.293zm-.967-3.255a1.574 1.574 0 00-1.111-.358h-4.518a1.583 1.583 0 00-1.111.355 1.789 1.789 0 000 2.22 1.583 1.583 0 001.111.355h4.518a1.574 1.574 0 001.111-.358 1.78 1.78 0 000-2.214zM117.155 279.366a2.836 2.836 0 01-2.078.732h-4.518a2.828 2.828 0 01-2.082-.736 3.481 3.481 0 010-4.293 2.834 2.834 0 012.085-.733h4.518a2.832 2.832 0 012.082.736 3.474 3.474 0 010 4.294zm-.967-3.256a1.579 1.579 0 00-1.111-.358h-4.518a1.587 1.587 0 00-1.111.355 1.79 1.79 0 000 2.221 1.587 1.587 0 001.111.354h4.518a1.578 1.578 0 001.111-.357 1.782 1.782 0 000-2.215z"/><path class="cls-9" d="M121.295 355.289l-1.461-1.461" id="LINE-24" data-name="LINE"/><path class="cls-9" d="M122.757 353.828l-1.462 1.461" id="LINE-25" data-name="LINE"/><path class="cls-9" d="M121.296 167.552l1.461 1.461" id="LINE-26" data-name="LINE"/><path class="cls-9" d="M119.835 169.013l1.461-1.461" id="LINE-27" data-name="LINE"/><path class="cls-9" d="M121.296 221.627l1.461 1.462" id="LINE-28" data-name="LINE"/><path class="cls-9" d="M119.835 223.089l1.461-1.462" id="LINE-29" data-name="LINE"/><path class="cls-9" d="M133.288 221.627h-15.69"/><path class="cls-9" d="M126.904 43.373v120.958" id="LINE-30" data-name="LINE"/><path d="M139 116.236l-.3.645a2.533 2.533 0 01-.882 1.038 3.151 3.151 0 01-1.391.5v-1.444a1.5 1.5 0 00.7-.27 1.268 1.268 0 00.407-.538 2.062 2.062 0 00.133-.775 1.523 1.523 0 00-.369-1.09 1.367 1.367 0 00-1.039-.388h-.3a1.66 1.66 0 00-1.152.368 1.331 1.331 0 00-.406 1.041v.715h-1.327v-.715a1.194 1.194 0 00-.348-.916 1.386 1.386 0 00-.985-.326h-.307a1.183 1.183 0 00-.909.343 1.37 1.37 0 00-.322.975 1.5 1.5 0 00.134.646 1.226 1.226 0 00.41.482 1.848 1.848 0 00.694.288v1.438a3.585 3.585 0 01-1.395-.525 2.557 2.557 0 01-.882-.975 2.944 2.944 0 01-.3-1.354 2.825 2.825 0 01.676-2.02 2.5 2.5 0 011.907-.714h.165a2.117 2.117 0 011.3.409 2.3 2.3 0 01.807 1.159 2.054 2.054 0 01.8-1.28 2.611 2.611 0 011.586-.455h.164a3.032 3.032 0 011.483.339 2.245 2.245 0 01.937.99 3.5 3.5 0 01.321 1.565zM137.687 110.634l-4.622-3.519a3.476 3.476 0 00-.823-.476 2.175 2.175 0 00-.8-.17h-.013a1.193 1.193 0 00-.923.355 1.422 1.422 0 00-.328 1.006 1.4 1.4 0 00.359 1 1.617 1.617 0 001.015.464h.007v1.465h-.007a3.688 3.688 0 01-1.46-.509 2.58 2.58 0 01-.923-1 3.007 3.007 0 01-.317-1.409 3.559 3.559 0 01.3-1.541 2.145 2.145 0 01.885-.971 2.762 2.762 0 011.4-.334h.007a3.052 3.052 0 011.1.222 4.749 4.749 0 011.107.617l3.91 2.923v-3.818h1.339v5.692zM136.162 103.693l-7.2-3.388v-1.458l7.116 3.305V97.2h1.292v6.49zm-3.11-4.353v-1.381h5.848v1.381zM138.254 94.735a2.84 2.84 0 01-2.078.732h-4.519a2.824 2.824 0 01-2.081-.736 3.483 3.483 0 010-4.293 2.833 2.833 0 012.085-.732h4.519a2.828 2.828 0 012.081.735 3.472 3.472 0 010 4.294zm-.967-3.256a1.58 1.58 0 00-1.111-.357h-4.519a1.589 1.589 0 00-1.111.354 1.79 1.79 0 000 2.221 1.589 1.589 0 001.111.354h4.519a1.58 1.58 0 001.111-.357 1.782 1.782 0 000-2.215z"/><path class="cls-9" d="M126.904 164.331l-1.461-1.461" id="LINE-31" data-name="LINE"/><path class="cls-9" d="M128.365 162.87l-1.461 1.461" id="LINE-32" data-name="LINE"/><path class="cls-9" d="M126.905 43.373l1.461 1.461" id="LINE-33" data-name="LINE"/><path class="cls-9" d="M125.444 44.834l1.461-1.461" id="LINE-34" data-name="LINE"/><path class="cls-9" d="M278.904 185.623v35.895" id="LINE-35" data-name="LINE"/><path d="M290.9 214.223v1.416h-8.421l.868 1.437H281.9l-.943-1.437v-1.416zM290.254 211.2a2.84 2.84 0 01-2.078.732h-4.519a2.824 2.824 0 01-2.081-.736 3.483 3.483 0 010-4.293 2.834 2.834 0 012.085-.733h4.519a2.828 2.828 0 012.081.736 3.472 3.472 0 010 4.294zm-.967-3.256a1.58 1.58 0 00-1.111-.358h-4.519a1.589 1.589 0 00-1.111.355 1.79 1.79 0 000 2.221 1.589 1.589 0 001.111.354h4.519a1.58 1.58 0 001.111-.357 1.782 1.782 0 000-2.215zM290.254 203.356a2.84 2.84 0 01-2.078.732h-4.519a2.824 2.824 0 01-2.081-.736 3.483 3.483 0 010-4.293 2.833 2.833 0 012.085-.732h4.519a2.828 2.828 0 012.081.735 3.472 3.472 0 010 4.294zm-.967-3.256a1.58 1.58 0 00-1.111-.357h-4.519a1.589 1.589 0 00-1.111.354 1.79 1.79 0 000 2.221 1.589 1.589 0 001.111.354h4.519a1.58 1.58 0 001.111-.357 1.782 1.782 0 000-2.215zM290.254 195.512a2.84 2.84 0 01-2.078.733h-4.519a2.82 2.82 0 01-2.081-.737 3.483 3.483 0 010-4.293 2.833 2.833 0 012.085-.732h4.519a2.828 2.828 0 012.081.735 3.472 3.472 0 010 4.294zm-.967-3.256a1.58 1.58 0 00-1.111-.357h-4.519a1.589 1.589 0 00-1.111.354 1.79 1.79 0 000 2.221 1.589 1.589 0 001.111.355h4.519a1.58 1.58 0 001.111-.358 1.782 1.782 0 000-2.215z"/><path class="cls-9" d="M278.904 221.518l-1.461-1.461" id="LINE-36" data-name="LINE"/><path class="cls-9" d="M280.365 220.057l-1.461 1.461" id="LINE-37" data-name="LINE"/><path class="cls-9" d="M278.905 185.623l1.461 1.461" id="LINE-38" data-name="LINE"/><path class="cls-9" d="M277.444 187.084l1.461-1.461" id="LINE-39" data-name="LINE"/><path class="cls-9" d="M254.279 161.748v59.77" id="LINE-40" data-name="LINE"/><path d="M266.271 213.9v1.416h-8.421l.868 1.437h-1.443l-.943-1.437V213.9zM266.022 210.523a2.306 2.306 0 01-1.025.961 3.649 3.649 0 01-1.624.33h-.007a5.486 5.486 0 01-1.162-.132 6.623 6.623 0 01-1.2-.382 2.132 2.132 0 01-.2-.09l-.195-.1-4.279-2.194v-1.527l4.956 2.575-.246-.007a1.206 1.206 0 01-.5-.506 1.624 1.624 0 01-.178-.778 2.5 2.5 0 01.349-1.346 2.183 2.183 0 011.015-.854 3.992 3.992 0 011.6-.292h.007a3.746 3.746 0 011.641.33 2.306 2.306 0 011.039.965 3.453 3.453 0 010 3.044zm-1.4-2.558a1.7 1.7 0 00-1.169-.365h-.007a1.95 1.95 0 00-1.288.382 1.342 1.342 0 00-.455 1.09 1.156 1.156 0 00.458.979 2.1 2.1 0 001.292.347h.007a1.687 1.687 0 001.165-.364 1.514 1.514 0 000-2.069zM265.629 203.579a2.84 2.84 0 01-2.078.732h-4.519a2.824 2.824 0 01-2.081-.736 3.483 3.483 0 010-4.293 2.83 2.83 0 012.085-.733h4.519a2.824 2.824 0 012.081.736 3.472 3.472 0 010 4.294zm-.967-3.256a1.576 1.576 0 00-1.111-.358h-4.519a1.584 1.584 0 00-1.111.355 1.79 1.79 0 000 2.221 1.589 1.589 0 001.111.354h4.519a1.58 1.58 0 001.111-.357 1.782 1.782 0 000-2.215zM266.08 195.005a2.443 2.443 0 01-.854.965 3.386 3.386 0 01-1.347.5h-.007v-1.42h.007a1.284 1.284 0 00.851-.444 1.451 1.451 0 00.3-.958 1.29 1.29 0 00-.448-1.052 1.923 1.923 0 00-1.261-.371h-.834a1.914 1.914 0 00-1.254.371 1.29 1.29 0 00-.448 1.052 1.351 1.351 0 00.205.708 1.968 1.968 0 00.574.6v1.291h-5.236V191.1h1.326v3.728h2.236a2.019 2.019 0 01-.445-1.256 2.965 2.965 0 01.356-1.5 2.292 2.292 0 011.039-.945 3.849 3.849 0 011.647-.322h.834a3.72 3.72 0 011.648.333 2.338 2.338 0 011.042.972 3.088 3.088 0 01.359 1.534 3.019 3.019 0 01-.29 1.361z"/><path class="cls-9" d="M254.279 221.518l-1.461-1.461" id="LINE-41" data-name="LINE"/><path class="cls-9" d="M255.74 220.057l-1.461 1.461" id="LINE-42" data-name="LINE"/><path class="cls-9" d="M254.28 161.748l1.461 1.461" id="LINE-43" data-name="LINE"/><path class="cls-9" d="M252.819 163.209l1.461-1.461" id="LINE-44" data-name="LINE"/><path class="cls-9" d="M194.571 43.373v117.875" id="LINE-45" data-name="LINE"/><path d="M193 113.42l-.3.646a2.539 2.539 0 01-.882 1.038 3.138 3.138 0 01-1.391.5v-1.443a1.487 1.487 0 00.7-.271 1.256 1.256 0 00.407-.538 2.056 2.056 0 00.133-.774 1.523 1.523 0 00-.369-1.09 1.364 1.364 0 00-1.039-.389h-.3a1.66 1.66 0 00-1.152.368 1.331 1.331 0 00-.406 1.041v.715h-1.327v-.723a1.2 1.2 0 00-.348-.916 1.39 1.39 0 00-.985-.326h-.307a1.18 1.18 0 00-.909.344 1.369 1.369 0 00-.322.975 1.5 1.5 0 00.134.645 1.212 1.212 0 00.41.482 1.849 1.849 0 00.694.289v1.437a3.584 3.584 0 01-1.395-.524 2.552 2.552 0 01-.882-.976 2.939 2.939 0 01-.3-1.353 2.823 2.823 0 01.676-2.02 2.5 2.5 0 011.907-.715h.165a2.123 2.123 0 011.3.409 2.31 2.31 0 01.807 1.16 2.059 2.059 0 01.8-1.281 2.618 2.618 0 011.586-.455h.164a3.021 3.021 0 011.483.34 2.248 2.248 0 01.937.989 3.5 3.5 0 01.321 1.566zM192.9 105.23v1.416h-8.421l.868 1.437H183.9l-.943-1.437v-1.416zM192.705 101.478a2.443 2.443 0 01-.854.965 3.386 3.386 0 01-1.347.5h-.004v-1.416h.007a1.288 1.288 0 00.851-.444 1.455 1.455 0 00.3-.958 1.289 1.289 0 00-.448-1.052 1.923 1.923 0 00-1.261-.371h-.834a1.914 1.914 0 00-1.254.371 1.289 1.289 0 00-.448 1.052 1.351 1.351 0 00.205.708 1.976 1.976 0 00.574.6v1.291h-5.236v-5.151h1.326v3.727h2.236a2.019 2.019 0 01-.445-1.256 2.965 2.965 0 01.356-1.5 2.29 2.29 0 011.039-.944 3.834 3.834 0 011.647-.322h.834a3.72 3.72 0 011.648.333 2.336 2.336 0 011.042.971 3.092 3.092 0 01.359 1.535 3.022 3.022 0 01-.293 1.361zM192.254 94.467a2.836 2.836 0 01-2.078.733h-4.519a2.82 2.82 0 01-2.081-.737 3.483 3.483 0 010-4.293 2.833 2.833 0 012.085-.732h4.519a2.828 2.828 0 012.081.735 3.472 3.472 0 010 4.294zm-.967-3.256a1.58 1.58 0 00-1.111-.357h-4.519a1.589 1.589 0 00-1.111.354 1.79 1.79 0 000 2.221 1.584 1.584 0 001.111.355h4.519a1.576 1.576 0 001.111-.358 1.782 1.782 0 000-2.215z"/><path class="cls-9" d="M194.571 161.248l-1.462-1.462" id="LINE-46" data-name="LINE"/><path class="cls-9" d="M196.032 159.786l-1.461 1.462" id="LINE-47" data-name="LINE"/><path class="cls-9" d="M194.571 43.373l1.462 1.461" id="LINE-48" data-name="LINE"/><path class="cls-9" d="M193.11 44.834l1.461-1.461" id="LINE-49" data-name="LINE"/><path class="cls-9" d="M199.777 161.373h-8.438"/><path class="cls-9" d="M142.904 43.373v178" id="LINE-50" data-name="LINE"/><path d="M152.162 146.885l-7.2-3.387v-1.458l7.116 3.3v-4.94h1.292v6.49zm-3.11-4.352v-1.381h5.848v1.381zM146.2 133.447l8.695 2.609v1.507l-8.613-2.61v2.568h1.429v1.416h-2.755v-5.49zM154.705 130.042a2.443 2.443 0 01-.854.965 3.386 3.386 0 01-1.347.5h-.004v-1.416h.007a1.284 1.284 0 00.851-.444 1.451 1.451 0 00.3-.958 1.29 1.29 0 00-.448-1.052 1.923 1.923 0 00-1.261-.371h-.834a1.914 1.914 0 00-1.254.371 1.29 1.29 0 00-.448 1.052 1.348 1.348 0 00.205.708 1.968 1.968 0 00.574.6v1.291h-5.236v-5.144h1.326v3.728h2.236a2.019 2.019 0 01-.445-1.256 2.965 2.965 0 01.356-1.5 2.292 2.292 0 011.039-.945 3.849 3.849 0 011.647-.322h.834a3.734 3.734 0 011.648.333 2.338 2.338 0 011.042.972 3.088 3.088 0 01.359 1.534 3.019 3.019 0 01-.293 1.354zM154.254 123.031a2.84 2.84 0 01-2.078.732h-4.519a2.824 2.824 0 01-2.081-.736 3.483 3.483 0 010-4.293 2.834 2.834 0 012.085-.733h4.519a2.828 2.828 0 012.081.736 3.472 3.472 0 010 4.294zm-.967-3.256a1.58 1.58 0 00-1.111-.358h-4.519a1.589 1.589 0 00-1.111.355 1.79 1.79 0 000 2.221 1.589 1.589 0 001.111.354h4.519a1.58 1.58 0 001.111-.357 1.782 1.782 0 000-2.215z"/><path class="cls-9" d="M142.904 221.373l-1.461-1.462" id="LINE-51" data-name="LINE"/><path class="cls-9" d="M144.365 219.911l-1.461 1.462" id="LINE-52" data-name="LINE"/><path class="cls-9" d="M142.905 43.373l1.461 1.461" id="LINE-53" data-name="LINE"/><path class="cls-9" d="M141.444 44.834l1.461-1.461" id="LINE-54" data-name="LINE"/><path class="cls-9" d="M142.904 224.873v130.25" id="LINE-55" data-name="LINE"/><path d="M155 302.514l-.3.646a2.545 2.545 0 01-.882 1.038 3.151 3.151 0 01-1.391.5v-1.448a1.486 1.486 0 00.7-.27 1.262 1.262 0 00.407-.538 2.062 2.062 0 00.133-.775 1.52 1.52 0 00-.369-1.089 1.364 1.364 0 00-1.039-.389h-.3a1.66 1.66 0 00-1.152.368 1.331 1.331 0 00-.406 1.041v.715h-1.327v-.713a1.2 1.2 0 00-.348-.916 1.386 1.386 0 00-.985-.326h-.307a1.18 1.18 0 00-.909.344 1.366 1.366 0 00-.322.974 1.5 1.5 0 00.134.646 1.226 1.226 0 00.41.482 1.832 1.832 0 00.694.288v1.438a3.585 3.585 0 01-1.395-.525 2.55 2.55 0 01-.882-.975 2.944 2.944 0 01-.3-1.354 2.821 2.821 0 01.676-2.019 2.5 2.5 0 011.907-.715h.165a2.123 2.123 0 011.3.409 2.307 2.307 0 01.807 1.159 2.059 2.059 0 01.8-1.28 2.611 2.611 0 011.586-.455h.164a3.021 3.021 0 011.483.34 2.237 2.237 0 01.937.989 3.5 3.5 0 01.321 1.565zM152.162 296.9l-7.2-3.388v-1.458l7.116 3.305v-4.949h1.292v6.49zm-3.11-4.353v-1.38h5.848v1.38zM149.961 285.1l.246.007a1.036 1.036 0 01.461.524 2.118 2.118 0 01.147.829 2.247 2.247 0 01-.362 1.271 2.386 2.386 0 01-1.022.851 3.642 3.642 0 01-1.528.3h-.003a3.748 3.748 0 01-1.647-.33 2.3 2.3 0 01-1.039-.965 3.065 3.065 0 01-.355-1.523 3.009 3.009 0 01.362-1.521 2.341 2.341 0 011.053-.96 3.823 3.823 0 011.661-.331h.007a5.14 5.14 0 011.138.139 6.9 6.9 0 011.2.4l.182.083c.061.027.122.057.181.089l4.258 2.153v1.527zm-.861-.065a1.925 1.925 0 00-1.251-.366h-.007a1.831 1.831 0 00-1.217.366 1.456 1.456 0 000 2.068 1.842 1.842 0 001.224.364h.006a1.908 1.908 0 001.248-.364 1.271 1.271 0 00.441-1.038 1.256 1.256 0 00-.444-1.032zM154.705 279.917a2.447 2.447 0 01-.854.964 3.386 3.386 0 01-1.347.5h-.004v-1.416h.007a1.284 1.284 0 00.851-.444 1.451 1.451 0 00.3-.958 1.29 1.29 0 00-.448-1.052 1.923 1.923 0 00-1.261-.371h-.834a1.914 1.914 0 00-1.254.371 1.29 1.29 0 00-.448 1.052 1.348 1.348 0 00.205.708 1.968 1.968 0 00.574.6v1.291h-5.236v-5.144h1.326v3.728h2.236a2.019 2.019 0 01-.445-1.256 2.965 2.965 0 01.356-1.5 2.292 2.292 0 011.039-.945 3.849 3.849 0 011.647-.322h.834a3.734 3.734 0 011.648.333 2.338 2.338 0 011.042.972 3.088 3.088 0 01.359 1.534 3.026 3.026 0 01-.293 1.355z"/><path class="cls-9" d="M142.904 355.123l-1.461-1.462" id="LINE-56" data-name="LINE"/><path class="cls-9" d="M144.365 353.661l-1.461 1.462" id="LINE-57" data-name="LINE"/><path class="cls-9" d="M142.905 224.873l1.461 1.461" id="LINE-58" data-name="LINE"/><path class="cls-9" d="M141.444 226.334l1.461-1.461" id="LINE-59" data-name="LINE"/><path class="cls-9" d="M450.404 161.539v193.584" id="LINE-60" data-name="LINE"/><path d="M462.205 269.51a2.443 2.443 0 01-.854.965 3.385 3.385 0 01-1.348.5v-1.416a1.288 1.288 0 00.852-.444 1.454 1.454 0 00.305-.958 1.294 1.294 0 00-.449-1.052 1.92 1.92 0 00-1.26-.371h-.834a1.915 1.915 0 00-1.255.371 1.293 1.293 0 00-.448 1.052 1.351 1.351 0 00.205.708 1.967 1.967 0 00.574.6v1.291h-5.236v-5.144h1.326v3.728h2.236a1.994 1.994 0 01-.328-.59 1.963 1.963 0 01-.117-.666 2.976 2.976 0 01.355-1.5 2.3 2.3 0 011.039-.945 3.843 3.843 0 011.649-.322h.834a3.711 3.711 0 011.646.333 2.335 2.335 0 011.043.972 3.085 3.085 0 01.36 1.534 3.019 3.019 0 01-.295 1.354zM462.4 260.794v1.416h-8.422l.869 1.437H453.4l-.943-1.437v-1.416zM453.7 253.292l8.7 2.608v1.507l-8.613-2.611v2.569h1.429v1.416h-2.755v-5.49zM462.205 249.886a2.443 2.443 0 01-.854.965 3.385 3.385 0 01-1.348.5v-1.416a1.288 1.288 0 00.852-.444 1.454 1.454 0 00.305-.958 1.294 1.294 0 00-.449-1.052 1.92 1.92 0 00-1.26-.371h-.834a1.915 1.915 0 00-1.255.371 1.293 1.293 0 00-.448 1.052 1.351 1.351 0 00.205.708 1.953 1.953 0 00.574.6v1.292h-5.236v-5.144h1.326v3.727h2.236a2.03 2.03 0 01-.445-1.255 2.976 2.976 0 01.355-1.5 2.3 2.3 0 011.039-.945 3.843 3.843 0 011.649-.322h.834a3.711 3.711 0 011.646.333 2.335 2.335 0 011.043.972 3.085 3.085 0 01.36 1.534 3.019 3.019 0 01-.295 1.353z"/><path class="cls-9" d="M450.404 355.123l-1.461-1.462" id="LINE-61" data-name="LINE"/><path class="cls-9" d="M451.865 353.661l-1.461 1.462" id="LINE-62" data-name="LINE"/><path class="cls-9" d="M450.405 161.539l1.461 1.461" id="LINE-63" data-name="LINE"/><path class="cls-9" d="M448.944 163l1.461-1.461" id="LINE-64" data-name="LINE"/><path class="cls-9" d="M298.404 221.966v133.157" id="LINE-65" data-name="LINE"/><path d="M310.5 300.887l-.3.646a2.545 2.545 0 01-.882 1.038 3.138 3.138 0 01-1.391.5v-1.443a1.487 1.487 0 00.7-.271 1.262 1.262 0 00.407-.538 2.06 2.06 0 00.133-.774 1.521 1.521 0 00-.369-1.09 1.364 1.364 0 00-1.039-.389h-.3a1.66 1.66 0 00-1.152.368 1.331 1.331 0 00-.406 1.041v.715h-1.327v-.715a1.2 1.2 0 00-.348-.916 1.386 1.386 0 00-.985-.326h-.307a1.18 1.18 0 00-.909.344 1.366 1.366 0 00-.322.974 1.5 1.5 0 00.134.646 1.226 1.226 0 00.41.482 1.832 1.832 0 00.694.288v1.433a3.585 3.585 0 01-1.4-.525 2.55 2.55 0 01-.882-.975 2.944 2.944 0 01-.3-1.354 2.821 2.821 0 01.676-2.019 2.5 2.5 0 011.907-.715h.165a2.123 2.123 0 011.3.409 2.307 2.307 0 01.807 1.159 2.059 2.059 0 01.8-1.28 2.611 2.611 0 011.586-.455h.164a3.021 3.021 0 011.483.34 2.237 2.237 0 01.937.989 3.5 3.5 0 01.321 1.566zM310.205 293.672a2.443 2.443 0 01-.854.965 3.386 3.386 0 01-1.347.5H308v-1.416a1.284 1.284 0 00.851-.444 1.453 1.453 0 00.3-.958 1.29 1.29 0 00-.448-1.052 1.923 1.923 0 00-1.261-.371h-.834a1.914 1.914 0 00-1.254.371 1.29 1.29 0 00-.448 1.052 1.351 1.351 0 00.205.708 1.968 1.968 0 00.574.6v1.291h-5.236v-5.144h1.326v3.726h2.236a2.019 2.019 0 01-.445-1.256 2.965 2.965 0 01.356-1.5 2.292 2.292 0 011.039-.945 3.834 3.834 0 011.647-.322h.834a3.72 3.72 0 011.648.333 2.338 2.338 0 011.042.972 3.088 3.088 0 01.359 1.534 3.019 3.019 0 01-.286 1.356zM305.461 283.818l.246.007a1.036 1.036 0 01.461.524 2.118 2.118 0 01.147.829 2.249 2.249 0 01-.362 1.271 2.377 2.377 0 01-1.022.85 3.642 3.642 0 01-1.528.3h-.003a3.748 3.748 0 01-1.647-.33 2.3 2.3 0 01-1.039-.965 3.071 3.071 0 01-.355-1.523 3.009 3.009 0 01.362-1.521 2.343 2.343 0 011.053-.961 3.838 3.838 0 011.661-.33h.007a5.14 5.14 0 011.138.139 6.9 6.9 0 011.2.4c.059.028.12.056.182.083s.122.058.181.09l4.258 2.153v1.527zm-.861-.066a1.925 1.925 0 00-1.251-.365h-.007a1.831 1.831 0 00-1.217.365 1.457 1.457 0 000 2.069 1.842 1.842 0 001.224.364h.006a1.908 1.908 0 001.248-.364 1.271 1.271 0 00.441-1.038 1.258 1.258 0 00-.444-1.031zM310.205 278.637a2.443 2.443 0 01-.854.965 3.386 3.386 0 01-1.347.5H308v-1.416a1.288 1.288 0 00.851-.444 1.453 1.453 0 00.3-.958 1.29 1.29 0 00-.448-1.052 1.923 1.923 0 00-1.261-.371h-.834a1.914 1.914 0 00-1.254.371 1.29 1.29 0 00-.448 1.052 1.351 1.351 0 00.205.708 1.965 1.965 0 00.574.6v1.291h-5.236v-5.143h1.326v3.727h2.236a2.014 2.014 0 01-.445-1.255 2.965 2.965 0 01.356-1.5 2.287 2.287 0 011.039-.945 3.834 3.834 0 011.647-.322h.834a3.72 3.72 0 011.648.333 2.338 2.338 0 011.042.972 3.085 3.085 0 01.359 1.534 3.019 3.019 0 01-.286 1.353z"/><path class="cls-9" d="M298.404 355.123l-1.461-1.462" id="LINE-66" data-name="LINE"/><path class="cls-9" d="M299.865 353.661l-1.461 1.462" id="LINE-67" data-name="LINE"/><path class="cls-9" d="M298.405 221.966l1.461 1.461" id="LINE-68" data-name="LINE"/><path class="cls-9" d="M296.944 223.427l1.461-1.461" id="LINE-69" data-name="LINE"/><path class="cls-9" d="M288.808 221.654h11.063"/><path class="cls-9" d="M73.112 43.331V99.81" id="LINE-70" data-name="LINE"/><path d="M85.105 89.4v1.416h-8.422l.868 1.437h-1.442l-.943-1.437V89.4zM84.914 85.643a2.438 2.438 0 01-.855.965 3.38 3.38 0 01-1.347.5h-.006v-1.42h.006a1.286 1.286 0 00.851-.444 1.454 1.454 0 00.3-.958 1.293 1.293 0 00-.448-1.052 1.925 1.925 0 00-1.261-.371h-.834a1.917 1.917 0 00-1.255.371 1.293 1.293 0 00-.447 1.052 1.351 1.351 0 00.2.708 1.964 1.964 0 00.574.6v1.291h-5.226v-5.147h1.326v3.727h2.235a2.014 2.014 0 01-.328-.59 1.954 1.954 0 01-.116-.666 2.965 2.965 0 01.355-1.5 2.3 2.3 0 011.039-.944 3.838 3.838 0 011.648-.322h.834a3.716 3.716 0 011.647.333 2.338 2.338 0 011.043.971 3.092 3.092 0 01.359 1.535 3.035 3.035 0 01-.294 1.361zM84.462 78.632a2.833 2.833 0 01-2.078.733h-4.518a2.824 2.824 0 01-2.082-.737 3.481 3.481 0 010-4.293 2.833 2.833 0 012.085-.732h4.518a2.832 2.832 0 012.082.735 3.47 3.47 0 010 4.294zm-.962-3.256a1.578 1.578 0 00-1.111-.357h-4.523a1.583 1.583 0 00-1.111.355 1.789 1.789 0 000 2.22 1.583 1.583 0 001.111.355h4.518a1.574 1.574 0 001.111-.358 1.782 1.782 0 000-2.215zM84.462 70.789a2.836 2.836 0 01-2.078.732h-4.518a2.828 2.828 0 01-2.082-.736 3.481 3.481 0 010-4.293 2.83 2.83 0 012.085-.733h4.518a2.828 2.828 0 012.082.736 3.47 3.47 0 010 4.294zm-.962-3.256a1.574 1.574 0 00-1.111-.358h-4.523a1.583 1.583 0 00-1.111.355 1.789 1.789 0 000 2.22 1.583 1.583 0 001.111.355h4.518a1.578 1.578 0 001.111-.357 1.782 1.782 0 000-2.215z"/><path class="cls-9" d="M73.112 99.81l-1.461-1.461" id="LINE-71" data-name="LINE"/><path class="cls-9" d="M74.574 98.349l-1.462 1.461" id="LINE-72" data-name="LINE"/><path class="cls-9" d="M73.113 43.331l1.461 1.461" id="LINE-73" data-name="LINE"/><path class="cls-9" d="M71.652 44.792l1.461-1.461" id="LINE-74" data-name="LINE"/><path class="cls-9" d="M111.932 174.794h22.46" id="LINE-75" data-name="LINE"/><path class="cls-9" d="M111.932 206.522h22.46" id="LINE-76" data-name="LINE"/><path class="cls-9" d="M111.931 206.522v-31.728" id="LINE-77" data-name="LINE"/><path d="M103.36 197.535l.246.007a1.038 1.038 0 01.462.524 2.132 2.132 0 01.147.829 2.259 2.259 0 01-.362 1.271 2.377 2.377 0 01-1.022.85 3.645 3.645 0 01-1.528.3h-.003a3.763 3.763 0 01-1.648-.33 2.306 2.306 0 01-1.039-.965 3.081 3.081 0 01-.355-1.523 3.019 3.019 0 01.362-1.521 2.348 2.348 0 011.053-.961 3.823 3.823 0 011.661-.33h.007a5.133 5.133 0 011.138.139 6.851 6.851 0 011.2.4c.059.027.119.056.181.083s.122.058.181.09l4.259 2.152v1.528zm-.861-.066a1.921 1.921 0 00-1.251-.365h-.007a1.832 1.832 0 00-1.217.365 1.459 1.459 0 000 2.069 1.843 1.843 0 001.224.364h.007a1.905 1.905 0 001.247-.364 1.272 1.272 0 00.441-1.038 1.256 1.256 0 00-.443-1.031zM107.653 193.082a2.836 2.836 0 01-2.078.732h-4.518a2.828 2.828 0 01-2.082-.736 3.481 3.481 0 010-4.293 2.83 2.83 0 012.085-.733h4.518a2.828 2.828 0 012.082.736 3.474 3.474 0 010 4.294zm-.967-3.256a1.574 1.574 0 00-1.111-.358h-4.518a1.583 1.583 0 00-1.111.355 1.789 1.789 0 000 2.22 1.583 1.583 0 001.111.355h4.518a1.578 1.578 0 001.111-.357 1.782 1.782 0 000-2.215zM107.653 185.238a2.836 2.836 0 01-2.078.732h-4.518a2.828 2.828 0 01-2.082-.736 3.481 3.481 0 010-4.293 2.834 2.834 0 012.085-.733h4.518a2.832 2.832 0 012.082.736 3.474 3.474 0 010 4.294zm-.967-3.256a1.578 1.578 0 00-1.111-.357h-4.518a1.587 1.587 0 00-1.111.354 1.79 1.79 0 000 2.221 1.587 1.587 0 001.111.354h4.518a1.578 1.578 0 001.111-.357 1.782 1.782 0 000-2.215z"/><path class="cls-9" d="M111.931 174.794l-1.461 1.462" id="LINE-78" data-name="LINE"/><path class="cls-9" d="M113.393 176.256l-1.462-1.462" id="LINE-79" data-name="LINE"/><path class="cls-9" d="M111.932 206.522l1.461-1.461" id="LINE-80" data-name="LINE"/><path class="cls-9" d="M110.471 205.061l1.461 1.461" id="LINE-81" data-name="LINE"/><path class="cls-9" d="M104.486 60.039h5.083" id="LINE-82" data-name="LINE"/><path class="cls-9" d="M104.486 87.289h5.083" id="LINE-83" data-name="LINE"/><path class="cls-9" d="M104.485 87.289v-27.25" id="LINE-84" data-name="LINE"/><path d="M100.61 83.119a2.519 2.519 0 01-.967 1.072 2.753 2.753 0 01-1.453.378h-.164a2.765 2.765 0 01-1.4-.378 2.512 2.512 0 01-.991-1.01 2.194 2.194 0 01-.831.858 2.218 2.218 0 01-1.145.322h-.239a2.616 2.616 0 01-1.371-.354 2.386 2.386 0 01-.916-1 3.632 3.632 0 010-3 2.4 2.4 0 01.916-1 2.616 2.616 0 011.371-.354h.239a2.261 2.261 0 011.976 1.2 2.59 2.59 0 01.994-1.023 2.706 2.706 0 011.4-.386h.164a2.753 2.753 0 011.453.378 2.527 2.527 0 01.967 1.073 3.963 3.963 0 010 3.221zm-5.67-2.361a1.272 1.272 0 00-.516-.507 1.607 1.607 0 00-.773-.18h-.095a1.49 1.49 0 00-.739.18 1.246 1.246 0 00-.495.507 1.693 1.693 0 000 1.5 1.234 1.234 0 00.495.507 1.493 1.493 0 00.746.181h.1a1.561 1.561 0 00.762-.181 1.265 1.265 0 00.513-.507 1.642 1.642 0 000-1.5zm4.481-.118a1.393 1.393 0 00-.537-.579 1.524 1.524 0 00-.8-.205h-.1a1.54 1.54 0 00-.8.205 1.393 1.393 0 00-.537.579 2.066 2.066 0 000 1.735 1.4 1.4 0 00.54.581 1.571 1.571 0 00.807.2h.1a1.52 1.52 0 00.793-.2 1.38 1.38 0 00.529-.581 2.08 2.08 0 000-1.735zM100.207 75.736a2.838 2.838 0 01-2.078.732H93.61a2.824 2.824 0 01-2.081-.736 3.483 3.483 0 010-4.293 2.835 2.835 0 012.085-.732h4.519a2.828 2.828 0 012.081.735 3.472 3.472 0 010 4.294zm-.967-3.256a1.58 1.58 0 00-1.111-.357H93.61a1.584 1.584 0 00-1.11.354 1.787 1.787 0 000 2.221 1.584 1.584 0 001.11.354h4.519a1.58 1.58 0 001.111-.357 1.782 1.782 0 000-2.215zM100.207 67.892a2.838 2.838 0 01-2.078.733H93.61a2.824 2.824 0 01-2.081-.737 3.483 3.483 0 010-4.293 2.835 2.835 0 012.085-.732h4.519a2.828 2.828 0 012.081.735 3.472 3.472 0 010 4.294zm-.967-3.256a1.58 1.58 0 00-1.111-.357H93.61a1.584 1.584 0 00-1.11.354 1.787 1.787 0 000 2.221 1.584 1.584 0 001.11.354h4.519a1.58 1.58 0 001.111-.357 1.782 1.782 0 000-2.215z"/><path class="cls-9" d="M104.485 60.039l-1.461 1.461" id="LINE-85" data-name="LINE"/><path class="cls-9" d="M105.946 61.5l-1.461-1.461" id="LINE-86" data-name="LINE"/><path class="cls-9" d="M104.486 87.289l1.461-1.461" id="LINE-87" data-name="LINE"/><path class="cls-9" d="M103.025 85.828l1.461 1.461" id="LINE-88" data-name="LINE"/><path class="cls-9" d="M47.432 151.17v14.911" id="LINE-89" data-name="LINE"/><path class="cls-9" d="M74.735 151.17v14.911" id="LINE-90" data-name="LINE"/><path class="cls-9" d="M74.735 151.169H47.432" id="LINE-91" data-name="LINE"/><path d="M51.629 147.293a2.512 2.512 0 01-1.072-.967 2.75 2.75 0 01-.378-1.452v-.165a2.762 2.762 0 01.378-1.4 2.518 2.518 0 011.01-.991 2.293 2.293 0 01-1.18-1.976v-.242a2.613 2.613 0 01.354-1.37 2.374 2.374 0 011-.916 3.619 3.619 0 013 0 2.374 2.374 0 011 .916 2.613 2.613 0 01.354 1.37v.239a2.258 2.258 0 01-1.2 1.976 2.589 2.589 0 011.024 1 2.7 2.7 0 01.385 1.4v.165a2.75 2.75 0 01-.378 1.452 2.512 2.512 0 01-1.072.967 3.965 3.965 0 01-3.222 0zm2.479-1.189a1.412 1.412 0 00.58-.536 1.54 1.54 0 00.2-.8v-.1a1.543 1.543 0 00-.2-.8 1.4 1.4 0 00-.58-.538 2.066 2.066 0 00-1.735 0 1.4 1.4 0 00-.581.54 1.569 1.569 0 00-.2.807v.1a1.52 1.52 0 00.2.793 1.387 1.387 0 00.581.529 2.08 2.08 0 001.735 0zm-.118-4.481a1.266 1.266 0 00.507-.516 1.61 1.61 0 00.18-.773v-.095a1.484 1.484 0 00-.18-.739 1.252 1.252 0 00-.507-.5 1.7 1.7 0 00-1.5 0 1.252 1.252 0 00-.507.5 1.5 1.5 0 00-.18.746v.1a1.578 1.578 0 00.18.763 1.275 1.275 0 00.507.512 1.644 1.644 0 001.5 0zM59.012 146.89a2.834 2.834 0 01-.733-2.078v-4.519a2.83 2.83 0 01.736-2.081 3.485 3.485 0 014.294 0 2.836 2.836 0 01.732 2.085v4.519a2.826 2.826 0 01-.736 2.082 3.472 3.472 0 01-4.293 0zm3.256-.967a1.578 1.578 0 00.357-1.111v-4.519a1.584 1.584 0 00-.354-1.11 1.787 1.787 0 00-2.221 0 1.58 1.58 0 00-.354 1.11v4.519a1.574 1.574 0 00.357 1.111 1.782 1.782 0 002.215 0zM66.856 146.89a2.838 2.838 0 01-.732-2.078v-4.519a2.829 2.829 0 01.735-2.081 3.485 3.485 0 014.294 0 2.836 2.836 0 01.732 2.085v4.519a2.826 2.826 0 01-.736 2.082 3.472 3.472 0 01-4.293 0zm3.256-.967a1.578 1.578 0 00.357-1.111v-4.519a1.584 1.584 0 00-.354-1.11 1.787 1.787 0 00-2.221 0 1.584 1.584 0 00-.354 1.11v4.519a1.578 1.578 0 00.357 1.111 1.782 1.782 0 002.215 0z"/><path class="cls-9" d="M47.432 151.169l1.484-1.461" id="LINE-92" data-name="LINE"/><path class="cls-9" d="M48.916 152.63l-1.484-1.461" id="LINE-93" data-name="LINE"/><path class="cls-9" d="M74.735 151.169l-1.484 1.462" id="LINE-94" data-name="LINE"/><path class="cls-9" d="M73.251 149.708l1.484 1.461" id="LINE-95" data-name="LINE"/><path class="cls-9" d="M215.224 241.848v-17.189" id="LINE-96" data-name="LINE"/><path class="cls-9" d="M247.235 241.848v-17.189" id="LINE-97" data-name="LINE"/><path class="cls-9" d="M247.235 241.849h-32.011" id="LINE-98" data-name="LINE"/><path d="M224.355 249.075l-.007.246a1.034 1.034 0 01-.525.461 2.132 2.132 0 01-.829.147 2.254 2.254 0 01-1.27-.362 2.373 2.373 0 01-.851-1.022 3.642 3.642 0 01-.3-1.528v-.007a3.762 3.762 0 01.33-1.647 2.3 2.3 0 01.965-1.039 3.061 3.061 0 011.524-.356 3 3 0 011.52.363 2.341 2.341 0 01.961 1.052 3.823 3.823 0 01.33 1.661v.007a5.082 5.082 0 01-.139 1.139 7.1 7.1 0 01-.4 1.2l-.084.182a2.516 2.516 0 01-.09.18l-2.152 4.259h-1.527zm.065-.862a1.921 1.921 0 00.365-1.251v-.006a1.829 1.829 0 00-.365-1.217 1.456 1.456 0 00-2.068 0 1.841 1.841 0 00-.365 1.223v.007a1.91 1.91 0 00.365 1.248 1.272 1.272 0 001.038.441 1.258 1.258 0 001.03-.445zM228.807 253.368a2.84 2.84 0 01-.732-2.078v-4.519a2.822 2.822 0 01.736-2.081 3.483 3.483 0 014.293 0 2.835 2.835 0 01.732 2.085v4.519a2.833 2.833 0 01-.735 2.082 3.474 3.474 0 01-4.294 0zm3.256-.967a1.58 1.58 0 00.357-1.111v-4.519a1.583 1.583 0 00-.354-1.11 1.787 1.787 0 00-2.221 0 1.583 1.583 0 00-.354 1.11v4.519a1.576 1.576 0 00.358 1.111 1.78 1.78 0 002.214 0zM236.651 253.368a2.84 2.84 0 01-.732-2.078v-4.519a2.826 2.826 0 01.736-2.081 3.483 3.483 0 014.293 0 2.831 2.831 0 01.733 2.085v4.519a2.83 2.83 0 01-.736 2.082 3.474 3.474 0 01-4.294 0zm3.256-.967a1.576 1.576 0 00.358-1.111v-4.519a1.587 1.587 0 00-.354-1.11 1.788 1.788 0 00-2.222 0 1.583 1.583 0 00-.354 1.11v4.519a1.576 1.576 0 00.358 1.111 1.78 1.78 0 002.214 0z"/><path class="cls-9" d="M215.224 241.849l1.484 1.461" id="LINE-99" data-name="LINE"/><path class="cls-9" d="M216.708 240.388l-1.484 1.461" id="LINE-100" data-name="LINE"/><path class="cls-9" d="M247.235 241.848l-1.484-1.461" id="LINE-101" data-name="LINE"/><path class="cls-9" d="M245.751 243.31l1.484-1.462" id="LINE-102" data-name="LINE"/><path class="cls-9" d="M107.986 51.777h-73.88" id="LINE-103" data-name="LINE"/><path d="M38.756 64.04H37.34v-8.422l-1.437.868v-1.442l1.437-.944h1.416zM44.622 59.1l-.007.247a1.041 1.041 0 01-.524.461 2.136 2.136 0 01-.829.147 2.255 2.255 0 01-1.271-.362 2.377 2.377 0 01-.85-1.022 3.63 3.63 0 01-.3-1.528v-.003a3.741 3.741 0 01.33-1.647 2.3 2.3 0 01.965-1.039A3.068 3.068 0 0143.657 54a3.019 3.019 0 011.521.362 2.348 2.348 0 01.961 1.053 3.841 3.841 0 01.33 1.661v.007a5.126 5.126 0 01-.139 1.138 6.993 6.993 0 01-.4 1.2l-.083.181a2.539 2.539 0 01-.09.181l-2.149 4.257h-1.527zm.066-.861a1.921 1.921 0 00.365-1.251v-.007a1.828 1.828 0 00-.365-1.216 1.457 1.457 0 00-2.069 0 1.839 1.839 0 00-.364 1.223V57a1.908 1.908 0 00.364 1.248 1.271 1.271 0 001.038.441 1.256 1.256 0 001.031-.446zM49.688 63.8a2.527 2.527 0 01-1.072-.968 2.75 2.75 0 01-.378-1.452v-.164a2.766 2.766 0 01.378-1.4 2.512 2.512 0 011.01-.991 2.189 2.189 0 01-.857-.83 2.212 2.212 0 01-.323-1.145v-.24a2.615 2.615 0 01.354-1.37 2.38 2.38 0 011-.916 3.622 3.622 0 013 0 2.377 2.377 0 011 .916 2.615 2.615 0 01.354 1.37v.24a2.258 2.258 0 01-1.2 1.975 2.6 2.6 0 011.024 1 2.711 2.711 0 01.385 1.4v.164a2.75 2.75 0 01-.378 1.452 2.524 2.524 0 01-1.073.968 3.963 3.963 0 01-3.221 0zm2.479-1.19a1.385 1.385 0 00.579-.536 1.528 1.528 0 00.2-.8v-.095a1.541 1.541 0 00-.2-.8 1.385 1.385 0 00-.579-.536 2.056 2.056 0 00-1.735 0 1.377 1.377 0 00-.58.54 1.556 1.556 0 00-.2.806v.1a1.509 1.509 0 00.2.793 1.38 1.38 0 00.58.53 1.914 1.914 0 00.867.188 1.878 1.878 0 00.868-.189zm-.118-4.481a1.254 1.254 0 00.507-.516 1.606 1.606 0 00.18-.772v-.1a1.483 1.483 0 00-.18-.738 1.23 1.23 0 00-.507-.5 1.7 1.7 0 00-1.5 0 1.23 1.23 0 00-.507.5 1.487 1.487 0 00-.181.745v.1a1.565 1.565 0 00.181.763 1.256 1.256 0 00.507.512 1.634 1.634 0 001.5 0zM57.071 63.4a2.836 2.836 0 01-.732-2.078V56.8a2.828 2.828 0 01.736-2.082 3.485 3.485 0 014.293 0A2.834 2.834 0 0162.1 56.8v4.518a2.832 2.832 0 01-.736 2.082 3.47 3.47 0 01-4.294 0zm3.256-.967a1.579 1.579 0 00.358-1.111V56.8a1.587 1.587 0 00-.355-1.111 1.79 1.79 0 00-2.221 0 1.587 1.587 0 00-.354 1.111v4.518a1.578 1.578 0 00.357 1.111 1.782 1.782 0 002.215 0z"/><path class="cls-9" d="M34.144 51.777l1.461-1.462" id="LINE-104" data-name="LINE"/><path class="cls-9" d="M35.605 53.238l-1.461-1.461" id="LINE-105" data-name="LINE"/><path class="cls-9" d="M107.985 51.777l-1.461 1.462" id="LINE-106" data-name="LINE"/><path class="cls-9" d="M106.524 50.316l1.461 1.461" id="LINE-107" data-name="LINE"/><path class="cls-9" d="M199.788 51.777h-88.642" id="LINE-108" data-name="LINE"/><path d="M155.1 62.83l3.519-4.621a3.462 3.462 0 00.476-.824 2.166 2.166 0 00.17-.8v-.014a1.194 1.194 0 00-.355-.923 1.427 1.427 0 00-1.006-.328 1.4 1.4 0 00-1 .359 1.62 1.62 0 00-.464 1.015v.007h-1.47V56.7a3.663 3.663 0 01.51-1.459 2.563 2.563 0 011-.923 3.008 3.008 0 011.405-.318 3.574 3.574 0 011.541.3 2.147 2.147 0 01.971.886 2.762 2.762 0 01.334 1.4v.014a3.047 3.047 0 01-.222 1.1 4.775 4.775 0 01-.617 1.108l-2.923 3.91h3.818v1.322H155.1zM164.355 64.143l-.646-.3a2.529 2.529 0 01-1.038-.881 3.143 3.143 0 01-.5-1.392h1.443a1.491 1.491 0 00.271.7 1.246 1.246 0 00.538.406 2.052 2.052 0 00.774.134 1.523 1.523 0 001.09-.369 1.366 1.366 0 00.389-1.039v-.3a1.659 1.659 0 00-.368-1.152 1.333 1.333 0 00-1.041-.407h-.715v-1.334h.715a1.192 1.192 0 00.916-.349 1.386 1.386 0 00.326-.984v-.308a1.185 1.185 0 00-.344-.909 1.374 1.374 0 00-.975-.321 1.5 1.5 0 00-.645.133 1.23 1.23 0 00-.483.41 1.872 1.872 0 00-.288.694h-1.437a3.586 3.586 0 01.524-1.394 2.544 2.544 0 01.976-.882 2.927 2.927 0 011.353-.3 2.825 2.825 0 012.02.677 2.5 2.5 0 01.715 1.907v.164a2.124 2.124 0 01-.409 1.3 2.322 2.322 0 01-1.16.807 2.057 2.057 0 011.281.8 2.622 2.622 0 01.455 1.586v.16a3.033 3.033 0 01-.34 1.484 2.24 2.24 0 01-.989.936 3.491 3.491 0 01-1.566.322zM171.57 63.849a2.452 2.452 0 01-.965-.855 3.38 3.38 0 01-.5-1.347v-.006h1.416v.006a1.291 1.291 0 00.445.852 1.457 1.457 0 00.958.3 1.3 1.3 0 001.052-.448 1.925 1.925 0 00.371-1.261v-.83a1.917 1.917 0 00-.371-1.255 1.294 1.294 0 00-1.052-.447 1.348 1.348 0 00-.708.2 1.956 1.956 0 00-.6.574h-1.291V54.1h5.144v1.326h-3.728v2.235a2.027 2.027 0 01.59-.328 1.958 1.958 0 01.666-.116 2.965 2.965 0 011.5.355 2.29 2.29 0 01.944 1.039 3.838 3.838 0 01.323 1.648v.834a3.73 3.73 0 01-.333 1.647 2.341 2.341 0 01-.972 1.043 3.091 3.091 0 01-1.534.359 3.039 3.039 0 01-1.355-.293zM178.581 63.4a2.836 2.836 0 01-.732-2.078V56.8a2.828 2.828 0 01.736-2.082 3.485 3.485 0 014.293 0 2.833 2.833 0 01.732 2.085v4.518a2.832 2.832 0 01-.735 2.082 3.47 3.47 0 01-4.294 0zm3.256-.967a1.578 1.578 0 00.357-1.111V56.8a1.587 1.587 0 00-.354-1.111 1.79 1.79 0 00-2.221 0 1.587 1.587 0 00-.354 1.111v4.518a1.578 1.578 0 00.357 1.111 1.782 1.782 0 002.215 0z"/><path class="cls-9" d="M111.183 51.777l1.461-1.462" id="LINE-109" data-name="LINE"/><path class="cls-9" d="M112.644 53.238l-1.461-1.461" id="LINE-110" data-name="LINE"/><path class="cls-9" d="M199.787 51.777l-1.461 1.462" id="LINE-111" data-name="LINE"/><path class="cls-9" d="M198.326 50.316l1.461 1.461" id="LINE-112" data-name="LINE"/><path class="cls-9" d="M107.986 106.527H15.99" id="LINE-113" data-name="LINE"/><path d="M47.921 117.58l3.52-4.621a3.5 3.5 0 00.476-.824 2.163 2.163 0 00.169-.8v-.014a1.2 1.2 0 00-.354-.923 1.427 1.427 0 00-1.006-.328 1.4 1.4 0 00-1 .359 1.621 1.621 0 00-.465 1.015v.007H47.8v-.007a3.663 3.663 0 01.51-1.459 2.577 2.577 0 011-.923 3.008 3.008 0 011.409-.318 3.567 3.567 0 011.541.3 2.154 2.154 0 01.972.886 2.762 2.762 0 01.334 1.4v.007a3.028 3.028 0 01-.223 1.1 4.7 4.7 0 01-.617 1.108l-2.923 3.91h3.819v1.326h-5.701zM56.084 118.541a2.3 2.3 0 01-.96-1.026 3.645 3.645 0 01-.331-1.623v-.007a5.479 5.479 0 01.132-1.162 6.633 6.633 0 01.382-1.2c.027-.068.058-.135.09-.2l.1-.2 2.193-4.279h1.527l-2.575 4.956.007-.246a1.191 1.191 0 01.507-.5 1.618 1.618 0 01.777-.178 2.51 2.51 0 011.347.348 2.184 2.184 0 01.853 1.016 3.971 3.971 0 01.292 1.6v.006a3.743 3.743 0 01-.33 1.641 2.3 2.3 0 01-.965 1.039 3.449 3.449 0 01-3.044 0zm2.558-1.4a1.706 1.706 0 00.365-1.169v-.007a1.953 1.953 0 00-.382-1.289 1.343 1.343 0 00-1.089-.454 1.157 1.157 0 00-.98.458 2.1 2.1 0 00-.347 1.292v.006a1.69 1.69 0 00.365 1.166 1.513 1.513 0 002.068 0zM63.03 118.147a2.837 2.837 0 01-.733-2.078v-4.518a2.824 2.824 0 01.737-2.082 3.485 3.485 0 014.293 0 2.833 2.833 0 01.732 2.085v4.518a2.832 2.832 0 01-.735 2.082 3.47 3.47 0 01-4.294 0zm3.256-.967a1.578 1.578 0 00.357-1.111v-4.518a1.587 1.587 0 00-.354-1.111 1.79 1.79 0 00-2.221 0 1.587 1.587 0 00-.355 1.111v4.518a1.579 1.579 0 00.358 1.111 1.782 1.782 0 002.215 0zM70.874 118.147a2.833 2.833 0 01-.733-2.078v-4.518a2.828 2.828 0 01.736-2.082 3.485 3.485 0 014.293 0 2.83 2.83 0 01.733 2.085v4.518a2.828 2.828 0 01-.736 2.082 3.468 3.468 0 01-4.293 0zm3.255-.967a1.574 1.574 0 00.358-1.111v-4.518a1.583 1.583 0 00-.355-1.111 1.789 1.789 0 00-2.22 0 1.583 1.583 0 00-.355 1.111v4.518a1.574 1.574 0 00.358 1.111 1.78 1.78 0 002.214 0z"/><path class="cls-9" d="M16.027 106.527l1.461-1.462" id="LINE-114" data-name="LINE"/><path class="cls-9" d="M17.488 107.988l-1.461-1.461" id="LINE-115" data-name="LINE"/><path class="cls-9" d="M107.985 106.527l-1.461 1.462" id="LINE-116" data-name="LINE"/><path class="cls-9" d="M106.524 105.066l1.461 1.461" id="LINE-117" data-name="LINE"/><path class="cls-9" d="M128.736 340.36H11.396" id="LINE-118" data-name="LINE"/><path d="M59.3 352.726s-.216-.1-.645-.305a2.523 2.523 0 01-1.038-.881 3.138 3.138 0 01-.5-1.391h1.443a1.5 1.5 0 00.27.7 1.255 1.255 0 00.539.406 2.052 2.052 0 00.774.134 1.523 1.523 0 001.09-.369 1.365 1.365 0 00.388-1.039v-.3a1.659 1.659 0 00-.368-1.152 1.33 1.33 0 00-1.041-.406H59.5v-1.327h.715a1.192 1.192 0 00.916-.348 1.386 1.386 0 00.327-.985v-.307a1.182 1.182 0 00-.344-.909 1.37 1.37 0 00-.975-.322 1.5 1.5 0 00-.645.133 1.23 1.23 0 00-.483.41 1.853 1.853 0 00-.288.695h-1.436a3.569 3.569 0 01.524-1.395 2.544 2.544 0 01.976-.882 2.924 2.924 0 011.353-.3 2.825 2.825 0 012.02.676 2.5 2.5 0 01.715 1.908v.164a2.117 2.117 0 01-.41 1.3 2.308 2.308 0 01-1.159.807 2.049 2.049 0 011.28.8 2.611 2.611 0 01.456 1.586v.164a3.032 3.032 0 01-.34 1.483 2.245 2.245 0 01-.99.937 3.5 3.5 0 01-1.565.321zM67.491 352.624h-1.416V344.2l-1.437.868v-1.443l1.437-.943h1.416zM75 343.928l-2.61 8.7h-1.512l2.611-8.614H70.92v1.429H69.5v-2.755H75zM78.4 352.432a2.443 2.443 0 01-.965-.854 3.391 3.391 0 01-.5-1.347v-.007h1.416v.007a1.29 1.29 0 00.444.851 1.453 1.453 0 00.958.3 1.29 1.29 0 001.052-.448 1.925 1.925 0 00.371-1.261v-.834a1.917 1.917 0 00-.371-1.255 1.3 1.3 0 00-1.052-.447 1.351 1.351 0 00-.708.2 1.976 1.976 0 00-.6.574h-1.284v-5.236H82.3v1.326h-3.723v2.236a1.994 1.994 0 01.59-.329 1.954 1.954 0 01.666-.116 2.955 2.955 0 011.5.356 2.285 2.285 0 01.944 1.039 3.834 3.834 0 01.322 1.647v.834a3.72 3.72 0 01-.333 1.648 2.341 2.341 0 01-.971 1.042 3.092 3.092 0 01-1.535.359 3.035 3.035 0 01-1.36-.285z"/><path class="cls-9" d="M11.433 340.36l1.461-1.461" id="LINE-119" data-name="LINE"/><path class="cls-9" d="M12.894 341.821l-1.461-1.461" id="LINE-120" data-name="LINE"/><path class="cls-9" d="M128.735 340.361l-1.461 1.461" id="LINE-121" data-name="LINE"/><path class="cls-9" d="M127.274 338.9l1.461 1.461" id="LINE-122" data-name="LINE"/><path class="cls-9" d="M277.986 340.36H137.865" id="LINE-123" data-name="LINE"/><path d="M195.945 352.726l-.646-.305a2.536 2.536 0 01-1.038-.881 3.151 3.151 0 01-.5-1.391h1.444a1.48 1.48 0 00.27.7 1.252 1.252 0 00.538.406 2.061 2.061 0 00.775.134 1.52 1.52 0 001.089-.369 1.366 1.366 0 00.389-1.039v-.3a1.659 1.659 0 00-.368-1.152 1.331 1.331 0 00-1.041-.406h-.715v-1.327h.715a1.2 1.2 0 00.916-.348 1.386 1.386 0 00.326-.985v-.307a1.178 1.178 0 00-.344-.909 1.366 1.366 0 00-.974-.322 1.5 1.5 0 00-.646.133 1.234 1.234 0 00-.482.41 1.837 1.837 0 00-.288.695h-1.438a3.585 3.585 0 01.525-1.395 2.542 2.542 0 01.975-.882 2.931 2.931 0 011.354-.3 2.821 2.821 0 012.019.676 2.5 2.5 0 01.715 1.908v.164a2.123 2.123 0 01-.409 1.3 2.313 2.313 0 01-1.159.807 2.055 2.055 0 011.28.8 2.611 2.611 0 01.455 1.586v.164a3.021 3.021 0 01-.34 1.483 2.237 2.237 0 01-.989.937 3.5 3.5 0 01-1.565.321zM206.912 343.928l-2.61 8.7H202.8l2.611-8.614h-2.569v1.429h-1.416v-2.755h5.491zM214.069 343.928l-2.61 8.7h-1.506l2.61-8.614H210v1.429h-1.416v-2.755h5.49zM217.473 352.432a2.45 2.45 0 01-.965-.854 3.391 3.391 0 01-.5-1.347v-.007h1.416v.007a1.287 1.287 0 00.445.851 1.451 1.451 0 00.958.3 1.288 1.288 0 001.051-.448 1.925 1.925 0 00.371-1.261v-.834a1.917 1.917 0 00-.371-1.255 1.294 1.294 0 00-1.051-.447 1.346 1.346 0 00-.708.2 1.968 1.968 0 00-.6.574h-1.291v-5.236h5.143v1.326h-3.727v2.236a2.007 2.007 0 01.59-.329 1.958 1.958 0 01.666-.116 2.955 2.955 0 011.5.356 2.285 2.285 0 01.944 1.039 3.834 3.834 0 01.322 1.647v.834a3.72 3.72 0 01-.333 1.648 2.336 2.336 0 01-.971 1.042 3.091 3.091 0 01-1.534.359 3.039 3.039 0 01-1.355-.285z"/><path class="cls-9" d="M137.902 340.36l1.461-1.461" id="LINE-124" data-name="LINE"/><path class="cls-9" d="M139.363 341.821l-1.461-1.461" id="LINE-125" data-name="LINE"/><path class="cls-9" d="M277.985 340.361l-1.461 1.461" id="LINE-126" data-name="LINE"/><path class="cls-9" d="M276.524 338.9l1.461 1.461" id="LINE-127" data-name="LINE"/><path class="cls-9" d="M264.277 168.36H135.896" id="LINE-128" data-name="LINE"/><path d="M187.349 180.726s-.216-.1-.645-.305a2.523 2.523 0 01-1.038-.881 3.151 3.151 0 01-.5-1.391h1.444a1.5 1.5 0 00.27.7 1.258 1.258 0 00.538.406 2.061 2.061 0 00.775.134 1.523 1.523 0 001.09-.369 1.369 1.369 0 00.388-1.039v-.3a1.659 1.659 0 00-.368-1.152 1.331 1.331 0 00-1.041-.406h-.715v-1.327h.715a1.194 1.194 0 00.916-.348 1.386 1.386 0 00.326-.985v-.307a1.181 1.181 0 00-.343-.909 1.37 1.37 0 00-.975-.322 1.5 1.5 0 00-.646.133 1.234 1.234 0 00-.482.41 1.853 1.853 0 00-.288.695h-1.438a3.585 3.585 0 01.525-1.395 2.549 2.549 0 01.975-.882 2.931 2.931 0 011.354-.3 2.825 2.825 0 012.02.676 2.5 2.5 0 01.714 1.908v.164a2.117 2.117 0 01-.409 1.3 2.308 2.308 0 01-1.159.807 2.049 2.049 0 011.28.8 2.611 2.611 0 01.455 1.586v.164a3.021 3.021 0 01-.34 1.483 2.237 2.237 0 01-.989.937 3.5 3.5 0 01-1.565.321zM192.964 177.889l3.388-7.2h1.458l-3.305 7.116h4.95v1.295h-6.491zm4.353-3.11h1.383v5.851h-1.381zM202.651 180.432a2.443 2.443 0 01-.965-.854 3.391 3.391 0 01-.5-1.347v-.007h1.416v.007a1.29 1.29 0 00.444.851 1.453 1.453 0 00.958.3 1.29 1.29 0 001.052-.448 1.925 1.925 0 00.371-1.261v-.834a1.917 1.917 0 00-.371-1.255 1.3 1.3 0 00-1.052-.447 1.351 1.351 0 00-.708.205 1.976 1.976 0 00-.6.574h-1.291v-5.236h5.143v1.326h-3.727v2.236a2 2 0 01.589-.329 1.962 1.962 0 01.666-.116 2.959 2.959 0 011.5.356 2.285 2.285 0 01.944 1.039 3.834 3.834 0 01.322 1.647v.834a3.72 3.72 0 01-.333 1.648 2.343 2.343 0 01-.972 1.042 3.085 3.085 0 01-1.534.359 3.035 3.035 0 01-1.352-.29zM210.391 180.432a2.45 2.45 0 01-.965-.854 3.391 3.391 0 01-.5-1.347v-.007h1.416v.007a1.287 1.287 0 00.445.851 1.451 1.451 0 00.958.3 1.288 1.288 0 001.051-.448 1.925 1.925 0 00.371-1.261v-.834a1.917 1.917 0 00-.371-1.255 1.294 1.294 0 00-1.051-.447 1.346 1.346 0 00-.708.205 1.968 1.968 0 00-.6.574h-1.291v-5.236h5.154v1.326h-3.727v2.236a2.007 2.007 0 01.59-.329 1.954 1.954 0 01.666-.116 2.955 2.955 0 011.5.356 2.285 2.285 0 01.944 1.039 3.834 3.834 0 01.322 1.647v.834a3.72 3.72 0 01-.333 1.648 2.336 2.336 0 01-.971 1.042 3.091 3.091 0 01-1.534.359 3.039 3.039 0 01-1.366-.29z"/><path class="cls-9" d="M135.933 168.36l1.461-1.461" id="LINE-129" data-name="LINE"/><path class="cls-9" d="M137.394 169.821l-1.461-1.461" id="LINE-130" data-name="LINE"/><path class="cls-9" d="M264.277 168.361l-1.461 1.461" id="LINE-131" data-name="LINE"/><path class="cls-9" d="M262.816 166.9l1.461 1.461" id="LINE-132" data-name="LINE"/><path class="cls-9" d="M464.694 168.36H289.083" id="LINE-133" data-name="LINE"/><path d="M362.6 177.889l3.336-7.2h1.435l-3.254 7.116h4.874v1.295H362.6zm4.286-3.11h1.36v5.851h-1.36zM375.833 171.928l-2.57 8.7h-1.484l2.571-8.614h-2.53v1.429h-1.394v-2.755h5.407zM379.187 180.432a2.421 2.421 0 01-.952-.854 3.416 3.416 0 01-.488-1.347v-.007h1.395v.007a1.292 1.292 0 00.437.851 1.415 1.415 0 00.943.3 1.261 1.261 0 001.036-.448 1.941 1.941 0 00.366-1.261v-.834a1.933 1.933 0 00-.366-1.255 1.266 1.266 0 00-1.036-.447 1.316 1.316 0 00-.7.205 1.964 1.964 0 00-.588.574h-1.271v-5.236h5.065v1.326h-3.668v2.236a1.985 1.985 0 01.581-.329 1.9 1.9 0 01.657-.116 2.875 2.875 0 011.473.356A2.274 2.274 0 01383 175.2a3.9 3.9 0 01.317 1.647v.834a3.778 3.778 0 01-.328 1.648 2.334 2.334 0 01-.957 1.042 3 3 0 01-1.511.359 2.937 2.937 0 01-1.334-.298zM386.09 179.981a2.862 2.862 0 01-.721-2.078v-4.519a2.852 2.852 0 01.725-2.082 3.393 3.393 0 014.229 0 2.863 2.863 0 01.72 2.085v4.513a2.853 2.853 0 01-.724 2.081 3.379 3.379 0 01-4.229 0zm3.207-.968a1.6 1.6 0 00.351-1.11v-4.519a1.607 1.607 0 00-.348-1.111 1.743 1.743 0 00-2.188 0 1.607 1.607 0 00-.348 1.111v4.516a1.6 1.6 0 00.351 1.11 1.731 1.731 0 002.182 0z"/><path class="cls-9" d="M289.121 168.36l1.461-1.461" id="LINE-134" data-name="LINE"/><path class="cls-9" d="M290.582 169.821l-1.461-1.461" id="LINE-135" data-name="LINE"/><path class="cls-9" d="M464.694 168.361l-1.462 1.461" id="LINE-136" data-name="LINE"/><path class="cls-9" d="M463.232 166.9l1.462 1.461" id="LINE-137" data-name="LINE"/><path class="cls-9" d="M464.902 340.36H289.198" id="LINE-138" data-name="LINE"/><path d="M362.789 349.889l3.387-7.2h1.458l-3.3 7.116h4.949v1.295h-6.49zm4.352-3.11h1.381v5.851h-1.381zM376.227 343.928l-2.609 8.7h-1.507l2.61-8.614h-2.568v1.429h-1.416v-2.755h5.49zM378.018 351.414l3.52-4.622a3.457 3.457 0 00.475-.824 2.166 2.166 0 00.17-.8v-.013a1.2 1.2 0 00-.354-.923 1.426 1.426 0 00-1.006-.328 1.4 1.4 0 00-1 .358 1.621 1.621 0 00-.465 1.016v.007h-1.465v-.007a3.662 3.662 0 01.51-1.46 2.577 2.577 0 011-.923 3.007 3.007 0 011.409-.317 3.571 3.571 0 011.541.3 2.154 2.154 0 01.972.886 2.772 2.772 0 01.334 1.4v.007a3.033 3.033 0 01-.223 1.1 4.677 4.677 0 01-.617 1.107l-2.923 3.91h3.818v1.327h-5.692zM386.976 352.432a2.45 2.45 0 01-.965-.854 3.391 3.391 0 01-.5-1.347v-.007h1.416v.007a1.29 1.29 0 00.444.851 1.456 1.456 0 00.959.3 1.288 1.288 0 001.051-.448 1.925 1.925 0 00.371-1.261v-.834a1.917 1.917 0 00-.371-1.255 1.294 1.294 0 00-1.051-.447 1.352 1.352 0 00-.709.2 1.976 1.976 0 00-.6.574h-1.291v-5.236h5.143v1.326h-3.727v2.236a2.007 2.007 0 01.59-.329 1.954 1.954 0 01.666-.116 2.955 2.955 0 011.5.356 2.285 2.285 0 01.944 1.039 3.834 3.834 0 01.322 1.647v.834a3.72 3.72 0 01-.333 1.648 2.341 2.341 0 01-.971 1.042 3.091 3.091 0 01-1.534.359 3.039 3.039 0 01-1.354-.285z"/><path class="cls-9" d="M289.235 340.36l1.461-1.461" id="LINE-139" data-name="LINE"/><path class="cls-9" d="M290.696 341.821l-1.461-1.461" id="LINE-140" data-name="LINE"/><path class="cls-9" d="M464.902 340.361l-1.461 1.461" id="LINE-141" data-name="LINE"/><path class="cls-9" d="M463.441 338.9l1.461 1.461" id="LINE-142" data-name="LINE"/><path class="cls-9" d="M107.986 96.943H11.615" id="LINE-143" data-name="LINE"/><path d="M35.144 94.83l3.519-4.621a3.5 3.5 0 00.476-.824 2.166 2.166 0 00.17-.8v-.014a1.2 1.2 0 00-.355-.923 1.427 1.427 0 00-1.006-.328 1.4 1.4 0 00-1 .359 1.621 1.621 0 00-.465 1.015v.007h-1.464V88.7a3.662 3.662 0 01.509-1.459 2.577 2.577 0 011-.923A3.012 3.012 0 0137.934 86a3.574 3.574 0 011.541.3 2.152 2.152 0 01.971.886 2.762 2.762 0 01.334 1.4v.014a3.047 3.047 0 01-.222 1.1 4.743 4.743 0 01-.618 1.1l-2.922 3.91h3.818v1.33h-5.692zM43.307 95.791a2.3 2.3 0 01-.961-1.026 3.645 3.645 0 01-.33-1.623v-.007a5.541 5.541 0 01.131-1.162 6.633 6.633 0 01.382-1.2q.042-.1.09-.2l.1-.2L44.91 86.1h1.528l-2.576 4.956.007-.246a1.191 1.191 0 01.507-.5 1.62 1.62 0 01.777-.178 2.51 2.51 0 011.347.348 2.191 2.191 0 01.854 1.016 3.988 3.988 0 01.292 1.6v.006a3.743 3.743 0 01-.331 1.641 2.3 2.3 0 01-.964 1.039 3.449 3.449 0 01-3.044 0zm2.557-1.4a1.706 1.706 0 00.366-1.169v-.007a1.953 1.953 0 00-.382-1.289 1.345 1.345 0 00-1.09-.454 1.157 1.157 0 00-.98.458 2.1 2.1 0 00-.346 1.292v.006A1.69 1.69 0 0043.8 94.4a1.513 1.513 0 002.068 0zM50.252 95.4a2.836 2.836 0 01-.732-2.078V88.8a2.828 2.828 0 01.736-2.082 3.485 3.485 0 014.293 0 2.833 2.833 0 01.732 2.085v4.518a2.832 2.832 0 01-.735 2.082 3.47 3.47 0 01-4.294 0zm3.256-.967a1.578 1.578 0 00.357-1.111V88.8a1.587 1.587 0 00-.354-1.111 1.79 1.79 0 00-2.221 0 1.587 1.587 0 00-.354 1.111v4.518a1.578 1.578 0 00.357 1.111 1.782 1.782 0 002.215 0zM58.1 95.4a2.833 2.833 0 01-.733-2.078V88.8a2.824 2.824 0 01.737-2.082 3.485 3.485 0 014.293 0 2.833 2.833 0 01.732 2.085v4.518a2.832 2.832 0 01-.739 2.079 3.47 3.47 0 01-4.294 0zm3.256-.967a1.578 1.578 0 00.357-1.111V88.8a1.587 1.587 0 00-.354-1.111 1.79 1.79 0 00-2.221 0 1.583 1.583 0 00-.355 1.111v4.518a1.574 1.574 0 00.358 1.111 1.782 1.782 0 002.215 0z"/><path class="cls-9" d="M11.652 96.943l1.461-1.461" id="LINE-144" data-name="LINE"/><path class="cls-9" d="M13.113 98.405l-1.461-1.462" id="LINE-145" data-name="LINE"/><path class="cls-9" d="M107.985 96.944l-1.461 1.461" id="LINE-146" data-name="LINE"/><path class="cls-9" d="M106.524 95.483l1.461 1.461" id="LINE-147" data-name="LINE"/><path class="cls-9" d="M289.108 437.19v-17.074" id="LINE-148" data-name="LINE"/><path class="cls-9" d="M379.652 437.234V420.16" id="LINE-149" data-name="LINE"/><path class="cls-9" d="M379.652 437.228l-90.544-.05" id="LINE-150" data-name="LINE"/><path d="M319.917 447.958l3.52-4.622a3.457 3.457 0 00.475-.824 2.166 2.166 0 00.17-.8v-.012a1.2 1.2 0 00-.354-.923 1.426 1.426 0 00-1.006-.328 1.4 1.4 0 00-1 .358 1.621 1.621 0 00-.465 1.016v.007h-1.465v-.007a3.662 3.662 0 01.51-1.46 2.577 2.577 0 011-.923 3.008 3.008 0 011.409-.318 3.57 3.57 0 011.541.3 2.154 2.154 0 01.972.886 2.772 2.772 0 01.334 1.4v.007a3.033 3.033 0 01-.223 1.1 4.677 4.677 0 01-.617 1.107l-2.923 3.91h3.818v1.326h-5.692zM326.858 446.433l3.388-7.2h1.454l-3.305 7.116h4.95v1.292h-6.491zm4.353-3.11h1.381v5.851h-1.381zM335.816 448.525a2.84 2.84 0 01-.732-2.078v-4.519a2.828 2.828 0 01.736-2.082 3.485 3.485 0 014.293 0 2.83 2.83 0 01.733 2.085v4.519a2.825 2.825 0 01-.736 2.081 3.472 3.472 0 01-4.294 0zm3.256-.968a1.573 1.573 0 00.358-1.11v-4.519a1.584 1.584 0 00-.355-1.111 1.789 1.789 0 00-2.22 0 1.584 1.584 0 00-.355 1.111v4.519a1.577 1.577 0 00.357 1.11 1.778 1.778 0 002.215 0zM343.66 448.525a2.84 2.84 0 01-.732-2.078v-4.519a2.828 2.828 0 01.736-2.082 3.485 3.485 0 014.293 0 2.833 2.833 0 01.732 2.085v4.519a2.829 2.829 0 01-.735 2.081 3.472 3.472 0 01-4.294 0zm3.256-.968a1.577 1.577 0 00.357-1.11v-4.519a1.589 1.589 0 00-.354-1.111 1.79 1.79 0 00-2.221 0 1.589 1.589 0 00-.354 1.111v4.519a1.577 1.577 0 00.357 1.11 1.778 1.778 0 002.215 0z"/><path class="cls-9" d="M289.108 437.172l1.461 1.461" id="LINE-151" data-name="LINE"/><path class="cls-9" d="M290.569 435.711l-1.461 1.461" id="LINE-152" data-name="LINE"/><path class="cls-9" d="M379.652 437.274l-1.461-1.461" id="LINE-153" data-name="LINE"/><path class="cls-9" d="M378.191 438.735l1.461-1.461" id="LINE-154" data-name="LINE"/><path class="cls-9" d="M275.514 420.868h13.719" id="LINE-155" data-name="LINE"/><path class="cls-9" d="M275.494 379.384l.035 41.484" id="LINE-156" data-name="LINE"/><path d="M271.972 410.366v1.394h-8.422l.868 1.415h-1.442l-.943-1.415v-1.394zM270.762 408.26l-4.621-3.466a3.44 3.44 0 00-.824-.467 2.16 2.16 0 00-.8-.168h-.014a1.208 1.208 0 00-.923.348 1.4 1.4 0 00-.328.992 1.364 1.364 0 00.359.984 1.631 1.631 0 001.015.458h.007v1.442h-.007a3.731 3.731 0 01-1.46-.5 2.556 2.556 0 01-.922-.981 2.924 2.924 0 01-.318-1.388 3.466 3.466 0 01.3-1.517 2.133 2.133 0 01.886-.957 2.8 2.8 0 011.4-.329h.007a3.1 3.1 0 011.1.219 4.739 4.739 0 011.108.609l3.91 2.878v-3.76h1.326v5.605zM271.33 400.157a2.869 2.869 0 01-2.079.72h-4.518a2.843 2.843 0 110-5.673h4.518a2.856 2.856 0 012.082.724 3.379 3.379 0 010 4.229zm-.968-3.207a1.591 1.591 0 00-1.111-.352h-4.518a1.6 1.6 0 00-1.111.349 1.742 1.742 0 000 2.187 1.6 1.6 0 001.111.349h4.518a1.591 1.591 0 001.111-.352 1.73 1.73 0 000-2.181zM271.33 392.432a2.865 2.865 0 01-2.079.721h-4.518a2.843 2.843 0 110-5.674h4.518a2.852 2.852 0 012.082.725 3.377 3.377 0 010 4.228zm-.968-3.207a1.6 1.6 0 00-1.111-.351h-4.518a1.6 1.6 0 00-1.111.348 1.743 1.743 0 000 2.188 1.6 1.6 0 001.111.348h4.518a1.6 1.6 0 001.111-.351 1.731 1.731 0 000-2.182z"/><path class="cls-9" d="M275.543 420.956l-1.461-1.461" id="LINE-157" data-name="LINE"/><path class="cls-9" d="M277.004 419.495l-1.461 1.461" id="LINE-158" data-name="LINE"/><path class="cls-9" d="M275.441 379.382l1.461 1.461" id="LINE-159" data-name="LINE"/><path class="cls-9" d="M273.98 380.843l1.461-1.461" id="LINE-160" data-name="LINE"/><path class="cls-9" d="M26.569 396.128v-17.074" id="LINE-161" data-name="LINE"/><path class="cls-9" d="M11.077 396.172v-17.074" id="LINE-162" data-name="LINE"/><path class="cls-9" d="M11.077 396.166l15.492-.05" id="LINE-163" data-name="LINE"/><path d="M8.165 405.372l3.387-7.2h1.458l-3.3 7.117h4.949v1.292H8.165zm4.352-3.111H13.9v5.852h-1.383zM19.965 403.17l-.006.247a1.047 1.047 0 01-.525.461 2.132 2.132 0 01-.829.147 2.259 2.259 0 01-1.271-.362 2.374 2.374 0 01-.85-1.023 3.637 3.637 0 01-.3-1.527v-.007a3.763 3.763 0 01.33-1.648 2.306 2.306 0 01.965-1.039 3.081 3.081 0 011.521-.355 3.019 3.019 0 011.521.362 2.343 2.343 0 01.961 1.053 3.826 3.826 0 01.33 1.661v.007a5.133 5.133 0 01-.139 1.138 6.824 6.824 0 01-.4 1.2l-.083.181a2.344 2.344 0 01-.09.181l-2.152 4.259h-1.524zm.066-.861a1.923 1.923 0 00.365-1.251v-.007a1.832 1.832 0 00-.365-1.217 1.459 1.459 0 00-2.069 0 1.843 1.843 0 00-.364 1.224v.007a1.9 1.9 0 00.364 1.247 1.43 1.43 0 002.069 0zM25.147 407.915a2.453 2.453 0 01-.965-.855 3.374 3.374 0 01-.5-1.347v-.006H25.1v.006a1.286 1.286 0 00.444.851 1.456 1.456 0 00.958.305 1.292 1.292 0 001.052-.448 1.923 1.923 0 00.371-1.261v-.834a1.914 1.914 0 00-.371-1.254 1.289 1.289 0 00-1.052-.448 1.351 1.351 0 00-.708.2 1.964 1.964 0 00-.6.574h-1.285v-5.236h5.143v1.326h-3.727v2.235a2.014 2.014 0 01.59-.328 1.954 1.954 0 01.666-.116 2.965 2.965 0 011.5.355 2.29 2.29 0 01.944 1.039 3.838 3.838 0 01.322 1.648v.834a3.719 3.719 0 01-.333 1.647 2.326 2.326 0 01-.971 1.042 3.081 3.081 0 01-1.535.359 3.021 3.021 0 01-1.361-.288z"/><path class="cls-9" d="M26.569 396.11l-1.462 1.461" id="LINE-164" data-name="LINE"/><path class="cls-9" d="M25.107 394.649l1.462 1.461" id="LINE-165" data-name="LINE"/><path class="cls-9" d="M11.077 396.212l1.461-1.461" id="LINE-166" data-name="LINE"/><path class="cls-9" d="M12.538 397.673l-1.461-1.461" id="LINE-167" data-name="LINE"/><path class="cls-9" d="M155.069 396.128v-17.074" id="LINE-168" data-name="LINE"/><path class="cls-9" d="M109.589 396.172v-17.074" id="LINE-169" data-name="LINE"/><path class="cls-9" d="M109.589 396.166l45.48-.05" id="LINE-170" data-name="LINE"/><path d="M122.014 408.106H120.6v-8.422l-1.436.868v-1.442l1.436-.943h1.416zM124.153 406.9l3.519-4.621a3.462 3.462 0 00.476-.824 2.166 2.166 0 00.17-.8v-.014a1.194 1.194 0 00-.355-.923 1.426 1.426 0 00-1-.328 1.392 1.392 0 00-1 .36 1.61 1.61 0 00-.465 1.014v.007h-1.465v-.007a3.679 3.679 0 01.51-1.46 2.568 2.568 0 011-.922 3 3 0 011.409-.318 3.559 3.559 0 011.541.305 2.156 2.156 0 01.972.884 2.776 2.776 0 01.334 1.4v.007a3.049 3.049 0 01-.223 1.1 4.775 4.775 0 01-.617 1.108l-2.923 3.91h3.818v1.326h-5.692zM131.094 405.372l3.388-7.2h1.458l-3.305 7.117h4.949v1.292h-6.49zm4.353-3.111h1.381v5.852h-1.381zM140.052 407.463a2.838 2.838 0 01-.732-2.078v-4.518a2.828 2.828 0 01.736-2.082 3.481 3.481 0 014.293 0 2.832 2.832 0 01.733 2.085v4.518a2.826 2.826 0 01-.736 2.081 3.472 3.472 0 01-4.294 0zm3.256-.967a1.577 1.577 0 00.358-1.111v-4.518a1.592 1.592 0 00-.355-1.112 1.794 1.794 0 00-2.221 0 1.591 1.591 0 00-.354 1.112v4.518a1.577 1.577 0 00.357 1.111 1.782 1.782 0 002.215 0z"/><path class="cls-9" d="M155.069 396.11l-1.462 1.461" id="LINE-171" data-name="LINE"/><path class="cls-9" d="M153.607 394.649l1.462 1.461" id="LINE-172" data-name="LINE"/><path class="cls-9" d="M109.589 396.212l1.462-1.461" id="LINE-173" data-name="LINE"/><path class="cls-9" d="M111.051 397.673l-1.462-1.461" id="LINE-174" data-name="LINE"/><path class="cls-9" d="M221.069 396.128v-17.074" id="LINE-175" data-name="LINE"/><path class="cls-9" d="M155.058 396.172v-17.074" id="LINE-176" data-name="LINE"/><path class="cls-9" d="M155.058 396.166l66.011-.05" id="LINE-177" data-name="LINE"/><path d="M179.314 408.106H177.9v-8.422l-1.437.868v-1.442l1.437-.943h1.416zM186.818 399.411l-2.609 8.695H182.7l2.61-8.613h-2.568v1.428h-1.416v-2.754h5.49zM191.2 408.106h-1.416v-8.422l-1.437.868v-1.442l1.437-.943h1.416zM194.221 407.463a2.838 2.838 0 01-.732-2.078v-4.518a2.828 2.828 0 01.736-2.082 3.481 3.481 0 014.293 0 2.832 2.832 0 01.732 2.085v4.518a2.826 2.826 0 01-.735 2.081 3.472 3.472 0 01-4.294 0zm3.256-.967a1.577 1.577 0 00.357-1.111v-4.518a1.591 1.591 0 00-.354-1.112 1.794 1.794 0 00-2.221 0 1.591 1.591 0 00-.354 1.112v4.518a1.577 1.577 0 00.357 1.111 1.782 1.782 0 002.215 0z"/><path class="cls-9" d="M221.069 396.11l-1.462 1.461" id="LINE-178" data-name="LINE"/><path class="cls-9" d="M219.607 394.649l1.462 1.461" id="LINE-179" data-name="LINE"/><path class="cls-9" d="M155.058 396.212l1.461-1.461" id="LINE-180" data-name="LINE"/><path class="cls-9" d="M156.519 397.673l-1.461-1.461" id="LINE-181" data-name="LINE"/><path class="cls-9" d="M355.235 396.128v-17.074" id="LINE-182" data-name="LINE"/><path class="cls-9" d="M313.777 396.172v-17.074" id="LINE-183" data-name="LINE"/><path class="cls-9" d="M313.777 396.166l41.458-.05" id="LINE-184" data-name="LINE"/><path d="M324.129 408.106h-1.416v-8.422l-1.436.868v-1.442l1.436-.943h1.416zM327.153 407.463a2.838 2.838 0 01-.733-2.078v-4.518a2.828 2.828 0 01.737-2.082 3.481 3.481 0 014.293 0 2.832 2.832 0 01.732 2.085v4.518a2.826 2.826 0 01-.735 2.081 3.472 3.472 0 01-4.294 0zm3.256-.967a1.577 1.577 0 00.357-1.111v-4.518a1.591 1.591 0 00-.354-1.112 1.794 1.794 0 00-2.221 0 1.592 1.592 0 00-.355 1.112v4.518a1.577 1.577 0 00.358 1.111 1.782 1.782 0 002.215 0zM335.347 407.857a2.306 2.306 0 01-.961-1.025 3.666 3.666 0 01-.33-1.624v-.008a5.486 5.486 0 01.132-1.162 6.608 6.608 0 01.382-1.2c.027-.068.057-.135.09-.2s.065-.131.1-.194l2.194-4.279h1.527l-2.575 4.956.007-.247a1.2 1.2 0 01.507-.5 1.629 1.629 0 01.777-.177 2.512 2.512 0 011.347.348 2.184 2.184 0 01.853 1.016 3.985 3.985 0 01.292 1.6v.006a3.74 3.74 0 01-.33 1.641 2.3 2.3 0 01-.965 1.039 3.458 3.458 0 01-3.044 0zm2.558-1.4a1.7 1.7 0 00.365-1.168v-.007a1.951 1.951 0 00-.382-1.289 1.345 1.345 0 00-1.09-.454 1.156 1.156 0 00-.979.458 2.1 2.1 0 00-.347 1.292v.006a1.69 1.69 0 00.364 1.166 1.513 1.513 0 002.069 0zM342.292 407.463a2.834 2.834 0 01-.733-2.078v-4.518a2.828 2.828 0 01.736-2.082 3.481 3.481 0 014.293 0 2.828 2.828 0 01.733 2.085v4.518a2.822 2.822 0 01-.736 2.081 3.47 3.47 0 01-4.293 0zm3.255-.967a1.572 1.572 0 00.358-1.111v-4.518a1.587 1.587 0 00-.355-1.112 1.793 1.793 0 00-2.22 0 1.587 1.587 0 00-.355 1.112v4.518a1.572 1.572 0 00.358 1.111 1.78 1.78 0 002.214 0z"/><path class="cls-9" d="M355.235 396.11l-1.461 1.461" id="LINE-185" data-name="LINE"/><path class="cls-9" d="M353.774 394.649l1.461 1.461" id="LINE-186" data-name="LINE"/><path class="cls-9" d="M313.777 396.212l1.461-1.461" id="LINE-187" data-name="LINE"/><path class="cls-9" d="M315.238 397.673l-1.461-1.461" id="LINE-188" data-name="LINE"/><path class="cls-9" d="M400.902 396.128v-17.074" id="LINE-189" data-name="LINE"/><path class="cls-9" d="M355.235 396.172v-17.074" id="LINE-190" data-name="LINE"/><path class="cls-9" d="M355.235 396.166l45.667-.05" id="LINE-191" data-name="LINE"/><path d="M370.021 408.106h-1.416v-8.422l-1.437.868v-1.442l1.437-.943h1.416zM372.16 406.9l3.519-4.621a3.462 3.462 0 00.476-.824 2.166 2.166 0 00.17-.8v-.014a1.194 1.194 0 00-.355-.923 1.427 1.427 0 00-1.006-.328 1.4 1.4 0 00-1 .36 1.609 1.609 0 00-.464 1.014v.007h-1.465v-.007a3.694 3.694 0 01.509-1.46 2.577 2.577 0 011-.922 2.993 2.993 0 011.409-.318 3.559 3.559 0 011.541.305 2.148 2.148 0 01.971.884 2.766 2.766 0 01.334 1.4v.007a3.047 3.047 0 01-.222 1.1 4.775 4.775 0 01-.617 1.108l-2.923 3.91h3.818v1.326h-5.695zM379.5 406.9l3.52-4.621a3.5 3.5 0 00.476-.824 2.163 2.163 0 00.169-.8v-.014a1.2 1.2 0 00-.354-.923 1.427 1.427 0 00-1.006-.328 1.4 1.4 0 00-1 .36 1.615 1.615 0 00-.465 1.014v.007h-1.465v-.007a3.679 3.679 0 01.51-1.46 2.582 2.582 0 011-.922 3 3 0 011.409-.318 3.552 3.552 0 011.541.305 2.156 2.156 0 01.972.884 2.766 2.766 0 01.334 1.4v.007a3.028 3.028 0 01-.223 1.1 4.7 4.7 0 01-.617 1.108l-2.923 3.91h3.822v1.326h-5.7zM387.732 407.463a2.838 2.838 0 01-.732-2.078v-4.518a2.828 2.828 0 01.736-2.082 3.481 3.481 0 014.293 0 2.832 2.832 0 01.732 2.085v4.518a2.826 2.826 0 01-.735 2.081 3.472 3.472 0 01-4.294 0zm3.256-.967a1.577 1.577 0 00.357-1.111v-4.518a1.591 1.591 0 00-.354-1.112 1.794 1.794 0 00-2.221 0 1.591 1.591 0 00-.354 1.112v4.518a1.577 1.577 0 00.357 1.111 1.782 1.782 0 002.215 0z"/><path class="cls-9" d="M400.902 396.11l-1.461 1.461" id="LINE-192" data-name="LINE"/><path class="cls-9" d="M399.441 394.649l1.461 1.461" id="LINE-193" data-name="LINE"/><path class="cls-9" d="M355.235 396.212l1.461-1.461" id="LINE-194" data-name="LINE"/><path class="cls-9" d="M356.696 397.673l-1.461-1.461" id="LINE-195" data-name="LINE"/><path class="cls-9" d="M488.652 396.128v-17.074" id="LINE-196" data-name="LINE"/><path class="cls-9" d="M400.902 396.172v-17.074" id="LINE-197" data-name="LINE"/><path class="cls-9" d="M400.902 396.166l87.75-.05" id="LINE-198" data-name="LINE"/><path d="M430.961 406.9l3.52-4.621a3.5 3.5 0 00.476-.824 2.163 2.163 0 00.169-.8v-.014a1.2 1.2 0 00-.354-.923 1.427 1.427 0 00-1.006-.328 1.4 1.4 0 00-1 .36 1.615 1.615 0 00-.465 1.014v.007h-1.465v-.007a3.679 3.679 0 01.51-1.46 2.582 2.582 0 011-.922 3 3 0 011.409-.318 3.552 3.552 0 011.541.305 2.156 2.156 0 01.972.884 2.766 2.766 0 01.334 1.4v.007a3.028 3.028 0 01-.223 1.1 4.7 4.7 0 01-.617 1.108l-2.923 3.91h3.819v1.326h-5.693zM438.305 406.9l3.52-4.621a3.457 3.457 0 00.475-.824 2.145 2.145 0 00.17-.8v-.014a1.2 1.2 0 00-.354-.923 1.43 1.43 0 00-1.006-.328 1.4 1.4 0 00-1 .36 1.615 1.615 0 00-.465 1.014v.007h-1.465v-.007a3.679 3.679 0 01.51-1.46 2.582 2.582 0 011-.922 3 3 0 011.409-.318 3.555 3.555 0 011.541.305 2.156 2.156 0 01.972.884 2.766 2.766 0 01.334 1.4v.007a3.028 3.028 0 01-.223 1.1 4.7 4.7 0 01-.617 1.108l-2.923 3.91H444v1.326h-5.693zM446.468 407.857a2.306 2.306 0 01-.961-1.025 3.666 3.666 0 01-.33-1.624v-.008a5.486 5.486 0 01.132-1.162 6.608 6.608 0 01.382-1.2 4.432 4.432 0 01.19-.394l2.194-4.279h1.525l-2.575 4.956.007-.247a1.2 1.2 0 01.507-.5 1.629 1.629 0 01.777-.177 2.512 2.512 0 011.347.348 2.184 2.184 0 01.853 1.016 3.985 3.985 0 01.292 1.6v.006a3.74 3.74 0 01-.33 1.641 2.3 2.3 0 01-.965 1.039 3.458 3.458 0 01-3.044 0zm2.558-1.4a1.7 1.7 0 00.365-1.168v-.007a1.951 1.951 0 00-.382-1.289 1.345 1.345 0 00-1.09-.454 1.157 1.157 0 00-.979.458 2.1 2.1 0 00-.347 1.292v.006a1.685 1.685 0 00.365 1.166 1.512 1.512 0 002.068 0zM453.414 407.463a2.834 2.834 0 01-.733-2.078v-4.518a2.828 2.828 0 01.736-2.082 3.481 3.481 0 014.293 0 2.828 2.828 0 01.733 2.085v4.518a2.826 2.826 0 01-.735 2.081 3.472 3.472 0 01-4.294 0zm3.255-.967a1.572 1.572 0 00.358-1.111v-4.518a1.587 1.587 0 00-.355-1.112 1.793 1.793 0 00-2.22 0 1.587 1.587 0 00-.355 1.112v4.518a1.572 1.572 0 00.358 1.111 1.78 1.78 0 002.214 0z"/><path class="cls-9" d="M488.652 396.11l-1.461 1.461" id="LINE-199" data-name="LINE"/><path class="cls-9" d="M487.191 394.649l1.461 1.461" id="LINE-200" data-name="LINE"/><path class="cls-9" d="M400.902 396.212l1.461-1.461" id="LINE-201" data-name="LINE"/><path class="cls-9" d="M402.363 397.673l-1.461-1.461" id="LINE-202" data-name="LINE"/><path class="cls-9" d="M313.746 396.128v-17.074" id="LINE-203" data-name="LINE"/><path class="cls-9" d="M221.089 396.172v-17.074" id="LINE-204" data-name="LINE"/><path class="cls-9" d="M221.089 396.166l92.657-.05" id="LINE-205" data-name="LINE"/><path d="M227.043 406.9l3.52-4.621a3.5 3.5 0 00.476-.824 2.166 2.166 0 00.17-.8v-.014a1.2 1.2 0 00-.355-.923 1.427 1.427 0 00-1.006-.328 1.4 1.4 0 00-1 .36 1.615 1.615 0 00-.465 1.014v.007h-1.465v-.007a3.679 3.679 0 01.51-1.46 2.582 2.582 0 011-.922 3 3 0 011.41-.318 3.559 3.559 0 011.541.305 2.153 2.153 0 01.971.884 2.766 2.766 0 01.334 1.4v.007a3.047 3.047 0 01-.222 1.1 4.743 4.743 0 01-.618 1.108l-2.923 3.91h3.819v1.326h-5.693zM233.985 405.372l3.388-7.2h1.458l-3.3 7.117h4.949v1.292h-6.49zm4.352-3.111h1.381v5.852h-1.381zM245.786 403.17l-.007.247a1.039 1.039 0 01-.525.461 2.129 2.129 0 01-.829.147 2.254 2.254 0 01-1.27-.362 2.376 2.376 0 01-.851-1.023 3.637 3.637 0 01-.3-1.527v-.007a3.749 3.749 0 01.331-1.648 2.3 2.3 0 01.964-1.039 3.083 3.083 0 011.524-.355 3.015 3.015 0 011.52.362 2.337 2.337 0 01.961 1.053 3.826 3.826 0 01.33 1.661v.007a5.188 5.188 0 01-.138 1.138 6.912 6.912 0 01-.4 1.2l-.083.181a1.905 1.905 0 01-.09.181l-2.152 4.259h-1.527zm.065-.861a1.923 1.923 0 00.365-1.251v-.007a1.832 1.832 0 00-.365-1.217 1.458 1.458 0 00-2.068 0 1.844 1.844 0 00-.365 1.224v.007a1.9 1.9 0 00.365 1.247 1.429 1.429 0 002.068 0zM250.239 407.463a2.834 2.834 0 01-.733-2.078v-4.518a2.824 2.824 0 01.737-2.082 3.481 3.481 0 014.293 0 2.832 2.832 0 01.732 2.085v4.518a2.826 2.826 0 01-.735 2.081 3.472 3.472 0 01-4.294 0zm3.256-.967a1.577 1.577 0 00.357-1.111v-4.518a1.591 1.591 0 00-.354-1.112 1.794 1.794 0 00-2.221 0 1.592 1.592 0 00-.355 1.112v4.518a1.577 1.577 0 00.358 1.111 1.782 1.782 0 002.215 0z"/><path class="cls-9" d="M313.746 396.11l-1.462 1.461" id="LINE-206" data-name="LINE"/><path class="cls-9" d="M312.284 394.649l1.462 1.461" id="LINE-207" data-name="LINE"/><path class="cls-9" d="M221.089 396.212l1.462-1.461" id="LINE-208" data-name="LINE"/><path class="cls-9" d="M222.551 397.673l-1.462-1.461" id="LINE-209" data-name="LINE"/><path class="cls-9" d="M109.652 396.128v-17.074" id="LINE-210" data-name="LINE"/><path class="cls-9" d="M26.485 396.172v-17.074" id="LINE-211" data-name="LINE"/><path class="cls-9" d="M26.485 396.166l83.167-.05" id="LINE-212" data-name="LINE"/><path d="M55.353 406.9l3.52-4.621a3.457 3.457 0 00.475-.824 2.166 2.166 0 00.17-.8v-.014a1.2 1.2 0 00-.354-.923 1.43 1.43 0 00-1.006-.328 1.4 1.4 0 00-1 .36 1.615 1.615 0 00-.465 1.014v.007h-1.465v-.007a3.679 3.679 0 01.51-1.46 2.582 2.582 0 011-.922 3 3 0 011.409-.318 3.555 3.555 0 011.541.305 2.156 2.156 0 01.972.884 2.776 2.776 0 01.334 1.4v.007a3.028 3.028 0 01-.223 1.1 4.7 4.7 0 01-.617 1.108l-2.923 3.91h3.818v1.326h-5.696zM65.286 408.106H63.87v-8.422l-1.437.868v-1.442l1.437-.943h1.416zM68.66 407.857a2.3 2.3 0 01-.961-1.025 3.652 3.652 0 01-.33-1.624v-.008a5.548 5.548 0 01.131-1.162 6.608 6.608 0 01.382-1.2c.028-.068.058-.135.09-.2s.066-.131.1-.194l2.193-4.279h1.528l-2.576 4.956.007-.247a1.2 1.2 0 01.507-.5 1.632 1.632 0 01.777-.177 2.51 2.51 0 011.347.348 2.191 2.191 0 01.854 1.016 3.985 3.985 0 01.292 1.6v.006a3.74 3.74 0 01-.331 1.641 2.3 2.3 0 01-.964 1.039 3.458 3.458 0 01-3.044 0zm2.557-1.4a1.7 1.7 0 00.366-1.168v-.007a1.951 1.951 0 00-.382-1.289 1.345 1.345 0 00-1.09-.454 1.159 1.159 0 00-.98.458 2.1 2.1 0 00-.346 1.292v.006a1.69 1.69 0 00.364 1.166 1.512 1.512 0 002.068 0zM75.605 407.463a2.838 2.838 0 01-.732-2.078v-4.518a2.828 2.828 0 01.736-2.082 3.481 3.481 0 014.293 0 2.832 2.832 0 01.732 2.085v4.518a2.826 2.826 0 01-.735 2.081 3.472 3.472 0 01-4.294 0zm3.256-.967a1.577 1.577 0 00.357-1.111v-4.518a1.591 1.591 0 00-.354-1.112 1.794 1.794 0 00-2.221 0 1.591 1.591 0 00-.354 1.112v4.518a1.577 1.577 0 00.357 1.111 1.782 1.782 0 002.215 0z"/><path class="cls-9" d="M109.652 396.11l-1.461 1.461" id="LINE-213" data-name="LINE"/><path class="cls-9" d="M108.191 394.649l1.461 1.461" id="LINE-214" data-name="LINE"/><path class="cls-9" d="M26.485 396.212l1.461-1.461" id="LINE-215" data-name="LINE"/><path class="cls-9" d="M27.946 397.673l-1.461-1.461" id="LINE-216" data-name="LINE"/><path class="cls-9" d="M505.621 379.085h-17.074" id="LINE-217" data-name="LINE"/><path class="cls-9" d="M505.665 224.248h-17.074" id="LINE-218" data-name="LINE"/><path class="cls-9" d="M505.659 224.248l-.05 154.837" id="LINE-219" data-name="LINE"/><path d="M514.864 316.324l-7.2-3.388v-1.458l7.116 3.305v-4.95h1.292v6.491zm-3.111-4.353v-1.381h5.852v1.381zM516.956 307.366a2.84 2.84 0 01-2.079.732h-4.518a2.824 2.824 0 01-2.081-.736 3.483 3.483 0 010-4.293 2.834 2.834 0 012.085-.733h4.518a2.83 2.83 0 012.082.736 3.472 3.472 0 010 4.294zm-.967-3.256a1.581 1.581 0 00-1.112-.358h-4.518a1.583 1.583 0 00-1.11.355 1.787 1.787 0 000 2.221 1.583 1.583 0 001.11.354h4.518a1.581 1.581 0 001.112-.357 1.782 1.782 0 000-2.215zM517.7 298.56l-.3.646a2.545 2.545 0 01-.882 1.038 3.163 3.163 0 01-1.391.5V299.3a1.486 1.486 0 00.7-.27 1.262 1.262 0 00.407-.538 2.062 2.062 0 00.133-.775 1.52 1.52 0 00-.369-1.089 1.364 1.364 0 00-1.039-.389h-.3a1.66 1.66 0 00-1.152.368 1.332 1.332 0 00-.407 1.041v.715h-1.326v-.715a1.191 1.191 0 00-.349-.916 1.382 1.382 0 00-.984-.326h-.308a1.183 1.183 0 00-.909.344 1.37 1.37 0 00-.321.974 1.5 1.5 0 00.134.646 1.226 1.226 0 00.41.482 1.841 1.841 0 00.693.288v1.438a3.586 3.586 0 01-1.394-.525 2.557 2.557 0 01-.882-.975 2.944 2.944 0 01-.3-1.354 2.821 2.821 0 01.677-2.019 2.5 2.5 0 011.907-.715h.164a2.124 2.124 0 011.3.409 2.308 2.308 0 01.807 1.159 2.059 2.059 0 01.8-1.28 2.617 2.617 0 011.586-.455h.164a3.02 3.02 0 011.484.34 2.224 2.224 0 01.936.989 3.489 3.489 0 01.322 1.565zM517.407 291.345a2.438 2.438 0 01-.855.965 3.375 3.375 0 01-1.346.5h-.006v-1.42h.007a1.288 1.288 0 00.851-.444 1.459 1.459 0 00.3-.958 1.3 1.3 0 00-.447-1.052 1.928 1.928 0 00-1.262-.371h-.834a1.914 1.914 0 00-1.254.371 1.29 1.29 0 00-.448 1.052 1.351 1.351 0 00.205.708 1.965 1.965 0 00.574.6v1.291h-5.236v-5.147h1.326v3.727h2.235a2.045 2.045 0 01-.328-.589 1.987 1.987 0 01-.116-.666 2.976 2.976 0 01.355-1.5 2.3 2.3 0 011.039-.945 3.838 3.838 0 011.648-.322h.834a3.716 3.716 0 011.647.333 2.335 2.335 0 011.043.972 3.075 3.075 0 01.359 1.534 3.019 3.019 0 01-.291 1.361z"/><path class="cls-9" d="M505.603 379.085l1.461-1.462" id="LINE-220" data-name="LINE"/><path class="cls-9" d="M504.142 377.623l1.461 1.462" id="LINE-221" data-name="LINE"/><path class="cls-9" d="M505.705 224.248l-1.461 1.461" id="LINE-222" data-name="LINE"/><path class="cls-9" d="M507.166 225.709l-1.461-1.461" id="LINE-223" data-name="LINE"/><path class="cls-9" d="M505.621 224.248h-17.074" id="LINE-224" data-name="LINE"/><path class="cls-9" d="M505.665 161.248h-17.074" id="LINE-225" data-name="LINE"/><path class="cls-9" d="M505.659 161.248l-.05 63" id="LINE-226" data-name="LINE"/><path d="M517.6 203.075v1.416h-8.422l.868 1.436H508.6l-.943-1.436v-1.416zM517.349 199.7a2.306 2.306 0 01-1.025.961 3.66 3.66 0 01-1.624.33h-.007a5.486 5.486 0 01-1.162-.132 6.658 6.658 0 01-1.2-.382 2.77 2.77 0 01-.2-.09l-.2-.1-4.279-2.194v-1.523l4.956 2.575-.246-.007a1.2 1.2 0 01-.5-.507 1.618 1.618 0 01-.178-.777 2.5 2.5 0 01.349-1.347 2.181 2.181 0 011.015-.853 3.974 3.974 0 011.6-.292h.007a3.739 3.739 0 011.64.33 2.3 2.3 0 011.039.965 3.449 3.449 0 010 3.044zm-1.4-2.558a1.7 1.7 0 00-1.169-.365h-.007a1.95 1.95 0 00-1.288.382 1.342 1.342 0 00-.455 1.09 1.157 1.157 0 00.458.979 2.1 2.1 0 001.292.347h.007a1.689 1.689 0 001.166-.365 1.514 1.514 0 000-2.068zM517.407 192.028a2.445 2.445 0 01-.855.965 3.375 3.375 0 01-1.346.5h-.006v-1.416h.007a1.285 1.285 0 00.851-.445 1.457 1.457 0 00.3-.958 1.294 1.294 0 00-.447-1.051 1.928 1.928 0 00-1.262-.371h-.834a1.914 1.914 0 00-1.254.371 1.288 1.288 0 00-.448 1.051 1.346 1.346 0 00.205.708 1.968 1.968 0 00.574.6v1.291h-5.236v-5.143h1.326v3.727h2.235a2.05 2.05 0 01-.328-.59 1.983 1.983 0 01-.116-.666 2.976 2.976 0 01.355-1.5 2.3 2.3 0 011.039-.944 3.838 3.838 0 011.648-.322h.834a3.716 3.716 0 011.647.333 2.328 2.328 0 011.043.971 3.08 3.08 0 01.359 1.534 3.026 3.026 0 01-.291 1.355zM516.956 185.016a2.841 2.841 0 01-2.079.733h-4.518a2.824 2.824 0 01-2.081-.737 3.483 3.483 0 010-4.293 2.833 2.833 0 012.085-.732h4.518a2.83 2.83 0 012.082.735 3.472 3.472 0 010 4.294zm-.967-3.256a1.581 1.581 0 00-1.112-.357h-4.518a1.583 1.583 0 00-1.11.354 1.787 1.787 0 000 2.221 1.583 1.583 0 001.11.355h4.518a1.581 1.581 0 001.112-.358 1.782 1.782 0 000-2.215z"/><path class="cls-9" d="M505.603 224.248l1.461-1.462" id="LINE-227" data-name="LINE"/><path class="cls-9" d="M504.142 222.786l1.461 1.462" id="LINE-228" data-name="LINE"/><path class="cls-9" d="M505.705 161.248l-1.461 1.461" id="LINE-229" data-name="LINE"/><path class="cls-9" d="M507.166 162.709l-1.461-1.461" id="LINE-230" data-name="LINE"/></g></svg>