<svg xmlns="http://www.w3.org/2000/svg" width="575.134" height="501.392" viewBox="0 0 431.352 376.043"><defs><pattern id="Новый_узор_3" data-name="Новый узор 3" width="35.15" height="35.15" patternTransform="translate(-7.256 -21.209)" patternUnits="userSpaceOnUse"><path class="cls-1" d="M0 0h35.15v35.15H0z"/><path class="cls-2" d="M35.149 35.15h35.15V70.3h-35.15z"/><path class="cls-2" d="M0 35.15h35.15V70.3H0zM-35.15 35.15H0V70.3h-35.15z"/><path class="cls-2" d="M35.149.001h35.15v35.15h-35.15z"/><path class="cls-2" d="M0 .001h35.15v35.15H0zM-35.15.001H0v35.15h-35.15zM35.149-35.149h35.15V.001h-35.15z"/><path class="cls-2" d="M0-35.149h35.15V.001H0zM-35.15-35.149H0V.001h-35.15z"/></pattern><pattern id="Новый_узор_4" data-name="Новый узор 4" width="9.822" height="9.822" patternTransform="translate(-4.109 -8.736)" patternUnits="userSpaceOnUse"><path class="cls-1" d="M0 0h9.822v9.822H0z"/><path class="cls-3" d="M14.733 19.647L9.82 14.735l4.913-4.913 4.912 4.913-4.912 4.912z"/><path class="cls-3" d="M4.911 19.647l-4.913-4.912 4.913-4.913 4.912 4.913-4.912 4.912z"/><path class="cls-3" d="M-4.912 19.647l-4.912-4.912 4.912-4.913 4.913 4.913-4.913 4.912zM14.733 9.825L9.82 4.912 14.733 0l4.912 4.912-4.912 4.913z"/><path class="cls-3" d="M4.911 9.825L-.002 4.912 4.911 0l4.912 4.912-4.912 4.913z"/><path class="cls-3" d="M-4.912 9.825l-4.912-4.913L-4.912 0 .001 4.912l-4.913 4.913zM14.733.003L9.82-4.91l4.913-4.912 4.912 4.912L14.733.003z"/><path class="cls-3" d="M4.911.003L-.002-4.91l4.913-4.912L9.823-4.91 4.911.003z"/><path class="cls-3" d="M-4.912.003L-9.824-4.91l4.912-4.912L.001-4.91-4.912.003z"/></pattern><style>.cls-1,.cls-10,.cls-12,.cls-2,.cls-3,.cls-7,.cls-9{fill:none}.cls-2{stroke:#ededed}.cls-2,.cls-3,.cls-7,.cls-9{stroke-linecap:round;stroke-linejoin:round;stroke-width:.4px}.cls-3{stroke:#e6e6e6}.cls-3,.cls-4,.cls-8,.cls-9{fill-rule:evenodd}.cls-4{fill:#fff}.cls-6{fill:url(#Новый_узор_4)}.cls-10,.cls-7,.cls-9{stroke:#000}.cls-10,.cls-12{stroke-miterlimit:22.926}.cls-10{stroke-width:.2px}.cls-12{stroke:gray;stroke-width:.6px}</style></defs><g id="_249" data-name="249"><path class="cls-4" d="M361.29 227.106V24.745H.24v335.542h22.131l33.314 15.039a42.343 42.343 0 002.96-15.039H361.29v-27.379h45.342v-105.8z" id="fon"/><path id="grid" stroke="#dcdcdc" fill="url(#Новый_узор_3)" fill-rule="evenodd" stroke-linecap="round" stroke-linejoin="round" stroke-width=".4" d="M406.632 227.106H361.29V24.745H.24v335.542h361.05v-27.379h45.342V227.106z"/><g id="wet_zones" data-name="wet zones"><path class="cls-6" d="M131.358 270.168h68.773v81.044h-68.773zM75.435 270.168h52.9v58.758h-52.9z"/></g><g id="walls"><path class="cls-7" d="M55.461 375.843a43.747 43.747 0 003.2-15.557"/><path class="cls-8" d="M55.417 375.944l.601-1.387-36.356-15.782h-.453v1.511l.002.001h.451v.195l35.755 15.462z"/><path class="cls-9" d="M169.466 281.26a30.829 30.829 0 01-2.286-11.093"/><path class="cls-8" d="M169.49 281.325l25.803-11.159-.001-1.512h-.453l-25.95 11.283.601 1.388z"/><path class="cls-9" d="M123.115 256.083a31 31 0 012.274 11.06"/><path class="cls-8" d="M123.079 255.984l-25.804 11.16.001 1.511h.454l25.95-11.282-.601-1.389z"/><path class="cls-9" d="M93.053 206.589a34.906 34.906 0 00-2.578 12.566"/><path class="cls-8" d="M93.094 206.496l-.601 1.387 29.419 12.783h.453v-1.512l-29.271-12.658z"/><path class="cls-9" d="M238.387 256.072a34.869 34.869 0 01-12.563 2.578"/><path class="cls-8" d="M238.483 256.03l-12.676-29.29-1.493.018v.453l12.781 29.419 1.388-.6z"/><path class="cls-7" d="M353.731 239.371h-16.248M361.288 239.371h-5.667M355.621 239.371h-1.89M353.731 322.501h-16.248M361.288 322.501h-5.667M355.621 322.501h-1.89M361.288 322.501v-83.13M337.483 322.501v-83.13M353.731 322.501v-3.779M353.731 318.722h1.89M355.621 318.722v3.779M355.621 282.825v1.889M355.621 284.714h-1.89M353.731 284.714v-1.889M354.676 318.722v-34.008M353.731 318.722v-34.008M355.621 284.714v34.008M353.731 282.825v-.944M353.731 281.88h.944M354.676 281.88v-.944M354.676 280.935h.945M355.621 280.935v1.89M355.621 239.371v3.778M355.621 243.149h-.945M354.676 243.149v-.944M354.676 242.205h-.944M353.731 242.205v-2.834M355.621 243.149v37.786M352.786 279.046v-34.007M352.786 281.88v-2.833M352.786 279.046h1.89M354.676 279.046v2.834M354.676 281.88h-1.89M354.676 242.205v2.834M354.676 245.039h-1.89M352.786 245.039v-2.834M352.786 242.205h1.89M354.676 245.039v34.007M352.786 279.046v-34.007M353.731 279.046v-34.007M355.621 322.501h-1.89M355.621 322.501h-1.89M361.288 322.501h-5.667M353.731 322.501h-16.248M355.621 239.371h-1.89M355.621 239.371h-1.89M361.288 239.371h-5.667M353.731 239.371h-16.248M103.208 32.301v16.248M103.208 24.745v5.667M103.208 30.412v1.889M37.082 32.301v16.248M37.082 24.745v5.667M37.082 30.412v1.889M37.082 24.745h66.126M37.082 48.549h66.126M37.082 32.301h3.778M40.86 32.301v-1.889M40.86 30.412h-3.778M74.868 30.412h-1.889M72.979 30.412v1.889M72.979 32.301h1.889M40.86 31.357h32.119M40.86 32.301h32.119M72.979 30.412H40.86M74.868 32.301h.944M75.812 32.301v-.944M75.812 31.357h.945M76.758 31.357v-.945M76.758 30.412h-1.89M103.208 30.412H99.43M99.43 30.412v.945M99.43 31.357h.944M100.374 31.357v.944M100.374 32.301h2.834M99.43 30.412H76.758M78.647 33.247H97.54M75.812 33.247h2.835M78.647 33.247v-1.89M78.647 31.357h-2.835M75.812 31.357v1.89M100.374 31.357H97.54M97.54 31.357v1.89M97.54 33.247h2.834M100.374 33.247v-1.89M97.54 31.357H78.647M78.647 33.247H97.54M78.647 32.301H97.54M37.082 30.412v1.889M37.082 30.412v1.889M37.082 24.745v5.667M37.082 32.301v16.248M103.208 30.412v1.889M103.208 30.412v1.889M103.208 24.745v5.667M103.208 32.301v16.248M214.677 32.301v16.248M214.677 24.745v5.667M214.677 30.412v1.889M148.551 32.301v16.248M148.551 24.745v5.667M148.551 30.412v1.889M148.551 24.745h66.126M148.551 48.549h66.126M148.551 32.301h3.778M152.33 32.301v-1.889M152.33 30.412h-3.778M186.338 30.412h-1.89M184.448 30.412v1.889M184.448 32.301h1.89M152.33 31.357h32.118M152.33 32.301h32.118M184.448 30.412H152.33M186.338 32.301h.944M187.282 32.301v-.944M187.282 31.357h.945M188.227 31.357v-.945M188.227 30.412h-1.89M214.677 30.412h-3.778M210.899 30.412v.945M210.899 31.357h.944M211.844 31.357v.944M211.844 32.301h2.833M210.899 30.412h-22.672M190.117 33.247h18.893M187.282 33.247h2.835M190.117 33.247v-1.89M190.117 31.357h-2.835M187.282 31.357v1.89M211.844 31.357h-2.834M209.01 31.357v1.89M209.01 33.247h2.834M211.844 33.247v-1.89M209.01 31.357h-18.893M190.117 33.247h18.893M190.117 32.301h18.893M148.551 30.412v1.889M148.551 30.412v1.889M148.551 24.745v5.667M148.551 32.301v16.248M214.677 30.412v1.889M214.677 30.412v1.889M214.677 24.745v5.667M214.677 32.301v16.248"/><path class="cls-9" d="M361.288 227.106h45.344m0 0v105.8m0 0h-45.344m0 0v-105.8M405.876 332.152h-44.588m0 0V227.861m0 0h44.588m0 0v104.291"/><path class="cls-7" d="M353.732 179.759h-16.247M361.29 179.759h-5.668M355.622 179.759h-1.89M361.29 179.759V24.648M337.484 179.759V48.452M353.732 179.759v-4.722M353.732 175.036h1.891M355.622 175.036v4.723M355.622 32.204v4.723M355.622 36.928h-1.89M353.732 36.928v-4.724M355.622 30.315v1.889M353.732 175.036V36.927M355.622 36.928v138.109M355.622 179.759h-1.89M355.622 179.759h-1.89M361.29 179.759h-5.668M353.732 179.759h-16.247M260.022 32.204v16.25M260.022 24.647v5.668M260.022 30.315v1.889M260.022 24.647H361.29M260.022 48.453h77.463M260.022 32.204h4.724M264.746 32.204v-1.889M264.746 30.315h-4.724M353.732 30.315h-4.723M349.01 30.315v1.889M349.01 32.204h4.723M355.622 30.315h-1.89M264.746 32.204h84.264M349.01 30.315h-84.264M260.022 30.315v1.889M260.022 30.315v1.889M260.022 24.647v5.668M260.022 32.204v16.25"/><path class="cls-10" d="M353.749 69.889h1.89v5.133h-1.89zM353.749 112.396h1.89v5.133h-1.89z"/><path d="M.24 24.745h36.842v23.8h-26.64v302.673h9.22v9.068H.24V24.745zm82.374 335.542h0v-9.072H58.202v7.558h.454v1.51zm165-9.072v9.072h113.674V322.5h-23.805v28.717h-89.871zm89.871-128.086l-89.871.009V210.29l89.871-.009v-30.423h23.805v59.513h-23.807v-16.242zM260.021 48.55h-45.344v-23.8h45.344v23.8zm-156.813-23.8h45.344v23.8h-45.344z" stroke-miterlimit="3" stroke-width=".48" stroke="#000" fill-rule="evenodd"/><path class="cls-7" d="M352.839 242.17l-28.055 28.055M324.785 270.225a39.673 39.673 0 0028.055 11.621M353.784 318.688l-29-25.272M324.785 293.416A39.673 39.673 0 01352.84 281.8"/></g><g id="wall_2" data-name="wall 2"><path class="cls-4" d="M201.641 210.294h45.971v12.848h-21.788v3.62h-1.51v.453H222.8v-4.075l-44.022.005v-26.472h22.862v13.621zm-19.839 0h16.816V199.7H181.8v10.6zm-101.455-14h3.023v22.86h7.1v1.512h.453v1.51H80.348v-22.86H25.557v22.86H10.442v-3.022h12.092v-19.836H10.442V196.3zm51.011 73.872v81.043h68.773v-81.041h-4.839v-1.512h-.453v-1.511H222.8V258.2h1.512v.455h1.51v11.516h-22.67v81.044h44.46v9.072h-165v-9.072h30.605v-19.267H75.435v19.27h-3.023v-84.074h24.863v1.511h.454v1.512H75.435v58.758h52.9v-58.757h-3.4v-1.512h.453v-1.511h42.244v1.511h-.452v1.512zm-3.022 81.043v-19.261h-12.093v19.264zM129.47 48.55h3.022v173.628h-10.581v-1.51h.453v-1.512h7.106z"/><path class="cls-12" d="M132.488 50.17l-3.02 2.66M132.488 56.71l-3.02 2.66M132.488 63.24l-3.02 2.66M132.488 69.78l-3.02 2.66M132.488 76.32l-3.02 2.66M132.488 82.86l-3.02 2.66M132.488 89.4l-3.02 2.66M11.138 196.3l-.7.62M132.488 95.94l-3.02 2.66M18.558 196.3l-3.43 3.02M132.488 102.47l-3.02 2.66M25.978 196.3l-3.44 3.02M132.488 109.02l-3.02 2.66M25.558 203.21l-3.02 2.66M33.408 196.3l-3.43 3.02M132.488 115.55l-3.02 2.66M25.558 209.75l-3.02 2.66M14.878 219.16l-3.43 3.02M40.828 196.3l-3.43 3.02M132.488 122.09l-3.02 2.66M25.558 216.29l-3.02 2.66M22.298 219.16l-3.43 3.02M48.248 196.3l-3.43 3.02M132.488 128.63l-3.02 2.66M55.668 196.3l-3.43 3.02M63.088 196.3l-3.43 3.02M132.488 135.16l-3.02 2.66M70.518 196.3l-3.43 3.02M132.488 141.71l-3.02 2.66M77.938 196.3l-3.43 3.02M132.488 148.24l-3.02 2.66M83.368 198.05l-3.02 2.66M132.488 154.78l-3.02 2.66M83.368 204.59l-3.02 2.66M132.488 161.32l-3.02 2.66M83.368 211.13l-3.02 2.66M132.488 167.86l-3.02 2.66M83.368 217.67l-3.02 2.66M132.488 174.4l-3.02 2.66M89.098 219.16l-3.43 3.02M132.488 180.93l-3.02 2.66M132.488 187.47l-3.02 2.66M132.488 194.02l-3.02 2.66M132.488 200.55l-3.02 2.66M132.488 207.09l-3.02 2.66M126.198 219.16l-3.42 3.02M132.488 213.62l-3.02 2.66M132.488 220.16l-2.29 2.02M79.158 267.14l-3.44 3.03M75.438 270.42l-3.03 2.67M75.438 276.96l-3.03 2.67M86.578 267.14l-3.44 3.03M94.008 267.14l-3.44 3.03M75.438 283.5l-3.03 2.67M181.418 196.67l-2.64 2.32M75.438 290.03l-3.03 2.67M75.438 296.57l-3.03 2.67M188.838 196.67l-3.43 3.02M181.798 202.87l-3.02 2.66M75.438 303.11l-3.03 2.67M196.268 196.67l-3.43 3.02M181.798 209.41l-3.02 2.66M75.438 309.65l-3.03 2.67M201.638 198.48l-3.02 2.66M188.218 210.3l-9.44 8.31M75.438 316.19l-3.03 2.67M131.118 267.14l-3.44 3.03M201.638 205.01l-3.02 2.66M195.638 210.3l-14.58 12.84M75.438 322.73l-3.03 2.67M138.538 267.14l-3.44 3.03M203.078 210.29l-14.59 12.85M131.358 273.47l-3.02 2.66M75.808 328.93l-3.4 3M145.958 267.14l-3.44 3.03M210.488 210.29l-14.59 12.85M131.358 280l-3.02 2.66M75.438 335.8l-3.03 2.67M131.358 286.54l-3.02 2.66M217.908 210.29l-14.58 12.85M153.378 267.14l-3.44 3.03M83.238 328.93l-3.43 3.02M75.438 342.34l-3.03 2.67M131.358 293.08l-3.02 2.66M225.338 210.29l-14.59 12.85M160.798 267.14l-3.44 3.03M90.658 328.93l-3.43 3.02M75.438 348.88l-2.66 2.34M131.358 299.62l-3.02 2.66M167.628 267.67l-2.84 2.5M232.758 210.29l-14.58 12.85M98.088 328.93l-3.43 3.02M105.508 328.93l-3.43 3.02M240.178 210.29l-17.38 15.31M131.358 306.16l-3.02 2.66M87.638 351.21l-5.02 4.42M112.928 328.93l-3.43 3.02M247.608 210.29l-14.59 12.85M131.358 312.7l-3.02 2.66M247.608 216.83l-7.16 6.31M120.348 328.93l-3.42 3.02M95.058 351.21l-10.3 9.08M116.238 332.55l-3.02 2.67M131.358 319.24l-3.02 2.66M197.908 267.14l-2.62 2.31M127.768 328.93l-3.43 3.02M102.478 351.21l-10.31 9.08M116.238 339.09l-3.02 2.66M131.358 325.77l-3.02 2.66M116.238 345.63l-3.02 2.66M109.898 351.21l-10.3 9.08M205.338 267.14l-5.21 4.59M131.358 332.31l-3.02 2.66M222.908 258.2l-.11.1M117.328 351.21l-10.31 9.08M203.148 275.61l-3.02 2.66M212.758 267.14l-3.44 3.03M131.358 338.85l-3.02 2.66M124.748 351.21l-10.31 9.08M203.148 282.15l-3.02 2.66M225.818 262.17l-3.02 2.67M220.178 267.14l-3.44 3.03M131.358 345.39l-3.02 2.66M225.828 268.71l-1.66 1.46M203.148 288.68l-3.02 2.66M132.168 351.21l-10.31 9.08M203.148 295.22l-3.02 2.66M139.598 351.21l-10.31 9.08M147.008 351.21l-10.31 9.08M203.148 301.76l-3.02 2.66M154.438 351.21l-10.31 9.08M203.148 308.3l-3.02 2.66M161.858 351.21l-10.31 9.08M203.148 314.84l-3.02 2.66M169.278 351.21l-10.3 9.08M203.148 321.38l-3.02 2.66M176.708 351.21l-10.31 9.08M203.148 327.91l-3.02 2.66M184.128 351.21l-10.31 9.08M203.148 334.45l-3.02 2.66M191.538 351.21l-10.3 9.08M203.148 340.99l-3.02 2.66M198.968 351.21l-10.31 9.08M203.148 347.53l-3.02 2.66M206.388 351.21l-10.31 9.08M213.818 351.21l-10.31 9.08M221.238 351.21l-10.31 9.08M228.658 351.21l-10.31 9.08M236.088 351.21l-10.31 9.08M243.498 351.21l-10.31 9.08M247.608 354.13l-6.99 6.16"/><path d="M201.641 210.294h45.971v12.848h-21.788v3.62h-1.51v.453H222.8v-4.075l-44.022.005v-26.472h22.862v13.621zm-19.839 0V199.7h16.816v10.6zm-101.455-14h3.023v22.86h7.1v1.512h.453v1.51H80.348v-22.86H25.557v22.86H10.442v-3.022h12.092v-19.836H10.442V196.3zm51.011 73.872v81.043h68.773v-81.041h-4.839v-1.512h-.453v-1.511H222.8V258.2h1.512v.455h1.51v11.516h-22.67v81.044h44.46v9.072h-165v-9.072h30.605v-19.267H75.435v19.27h-3.023v-84.074h24.863v1.511h.454v1.512H75.435v58.758h52.9v-58.757h-3.4v-1.512h.453v-1.511h42.244v1.511h-.452v1.512zm-3.022 81.043v-19.261h-12.093v19.264zM129.47 48.55h3.022v173.628h-10.581v-1.51h.453v-1.512h7.106z" stroke-width=".567" stroke-miterlimit="22.926" stroke="#000" fill-rule="evenodd" fill="none"/></g></g><g id="sizes"><path class="cls-7" d="M19.605 339.791v11.424" id="LINE"/><path class="cls-7" d="M58.279 339.791v11.424" id="LINE-2" data-name="LINE"/><path class="cls-7" d="M58.279 339.791H19.605" id="LINE-3" data-name="LINE"/><path d="M29.917 336.156h-1.4v-8.422l-1.415.869v-1.443l1.415-.943h1.4zM34.572 336.156h-1.4v-8.422l-1.415.869v-1.443l1.415-.943h1.4zM37.549 335.514a2.862 2.862 0 01-.721-2.078v-4.519a2.843 2.843 0 115.674 0v4.519a2.858 2.858 0 01-.725 2.082 2.823 2.823 0 01-2.112.741 2.812 2.812 0 01-2.116-.745zm3.207-.967a1.6 1.6 0 00.351-1.111v-4.519a1.6 1.6 0 00-.349-1.11 1.738 1.738 0 00-2.187 0 1.6 1.6 0 00-.349 1.11v4.519a1.6 1.6 0 00.352 1.111 1.735 1.735 0 002.182 0zM45.273 335.514a2.867 2.867 0 01-.721-2.078v-4.519a2.852 2.852 0 01.725-2.081 3.391 3.391 0 014.229 0 2.863 2.863 0 01.72 2.085v4.519a2.857 2.857 0 01-.724 2.082 3.38 3.38 0 01-4.229 0zm3.207-.967a1.593 1.593 0 00.352-1.111v-4.519a1.6 1.6 0 00-.349-1.11 1.738 1.738 0 00-2.187 0 1.6 1.6 0 00-.349 1.11v4.519a1.593 1.593 0 00.352 1.111 1.733 1.733 0 002.181 0z"/><path class="cls-7" d="M19.605 339.791l1.461-1.462" id="LINE-4" data-name="LINE"/><path class="cls-7" d="M21.066 341.252l-1.461-1.461" id="LINE-5" data-name="LINE"/><path class="cls-7" d="M58.279 339.791l-1.461 1.462" id="LINE-6" data-name="LINE"/><path class="cls-7" d="M56.818 338.33l1.461 1.461" id="LINE-7" data-name="LINE"/><path class="cls-7" d="M139.675 48.55v173.628" id="LINE-8" data-name="LINE"/><path d="M149.6 149.724l-7.2-3.336v-1.436l7.116 3.254v-4.874h1.292v6.392zm-3.11-4.286v-1.361h5.851v1.361zM152.081 140.557a2.29 2.29 0 01-1.026.947 3.713 3.713 0 01-1.623.324h-.007a5.545 5.545 0 01-1.162-.13 6.761 6.761 0 01-1.2-.376 2.127 2.127 0 01-.2-.089l-.2-.095-4.279-2.16v-1.5l4.956 2.536-.24-.014a1.189 1.189 0 01-.5-.5 1.579 1.579 0 01-.178-.766 2.435 2.435 0 01.349-1.326 2.177 2.177 0 011.015-.841 4.044 4.044 0 011.6-.287h.007a3.8 3.8 0 011.64.325 2.292 2.292 0 011.039.95 3.351 3.351 0 010 3zm-1.4-2.52a1.728 1.728 0 00-1.169-.358h-.007a1.971 1.971 0 00-1.289.376 1.313 1.313 0 00-.454 1.073 1.133 1.133 0 00.458.964 2.131 2.131 0 001.292.342h.007a1.7 1.7 0 001.165-.36 1.474 1.474 0 000-2.037zM152.139 133a2.407 2.407 0 01-.855.951 3.4 3.4 0 01-1.346.488h-.007v-1.394h.007a1.293 1.293 0 00.851-.438 1.419 1.419 0 00.3-.943 1.259 1.259 0 00-.448-1.035 1.941 1.941 0 00-1.261-.366h-.834a1.928 1.928 0 00-1.254.366 1.259 1.259 0 00-.448 1.035 1.314 1.314 0 00.2.7 1.953 1.953 0 00.574.588v1.272h-5.236v-5.066h1.326v3.671h2.235a1.992 1.992 0 01-.328-.581 1.922 1.922 0 01-.116-.656 2.9 2.9 0 01.355-1.474 2.279 2.279 0 011.04-.929 3.892 3.892 0 011.647-.318h.834a3.785 3.785 0 011.647.328 2.326 2.326 0 011.043.957 3 3 0 01.359 1.511 2.931 2.931 0 01-.285 1.333zM151.688 126.1a2.868 2.868 0 01-2.078.72h-4.519a2.856 2.856 0 01-2.082-.724 3.393 3.393 0 010-4.229 2.861 2.861 0 012.085-.72h4.519a2.853 2.853 0 012.081.724 3.379 3.379 0 010 4.229zm-.968-3.207a1.59 1.59 0 00-1.11-.352h-4.519a1.6 1.6 0 00-1.111.349 1.742 1.742 0 000 2.187 1.6 1.6 0 001.111.349h4.519a1.59 1.59 0 001.11-.352 1.73 1.73 0 000-2.181z"/><path class="cls-7" d="M139.675 222.128l-1.461-1.462" id="LINE-9" data-name="LINE"/><path class="cls-7" d="M141.136 220.666l-1.461 1.462" id="LINE-10" data-name="LINE"/><path class="cls-7" d="M139.676 48.55l1.461 1.462" id="LINE-11" data-name="LINE"/><path class="cls-7" d="M138.214 50.012l1.462-1.462" id="LINE-12" data-name="LINE"/><path class="cls-7" d="M122.38 222.178h20.223"/><path class="cls-7" d="M14.492 222.178v129.037" id="LINE-13" data-name="LINE"/><path d="M27.249 299.233l-.3.636a2.521 2.521 0 01-.881 1.023 3.2 3.2 0 01-1.392.488v-1.422a1.491 1.491 0 00.7-.267 1.227 1.227 0 00.408-.53 2.012 2.012 0 00.132-.762 1.483 1.483 0 00-.369-1.073 1.376 1.376 0 00-1.039-.383h-.3a1.669 1.669 0 00-1.151.363 1.3 1.3 0 00-.407 1.025v.7h-1.334v-.7a1.166 1.166 0 00-.349-.9 1.4 1.4 0 00-.984-.322h-.308a1.193 1.193 0 00-.909.339 1.339 1.339 0 00-.322.96 1.459 1.459 0 00.134.636 1.215 1.215 0 00.41.475 1.886 1.886 0 00.694.284v1.415a3.639 3.639 0 01-1.395-.516 2.55 2.55 0 01-.882-.961 2.864 2.864 0 01-.3-1.333 2.757 2.757 0 01.676-1.989 2.521 2.521 0 011.908-.7h.164a2.154 2.154 0 011.3.4 2.276 2.276 0 01.806 1.142 2.027 2.027 0 01.8-1.261 2.645 2.645 0 011.586-.448h.164a3.051 3.051 0 011.483.335 2.207 2.207 0 01.937.974 3.389 3.389 0 01.321 1.541zM24.412 293.7l-7.2-3.336v-1.435l7.116 3.254v-4.874h1.292v6.391zm-3.11-4.286v-1.36h5.851v1.36zM25.937 285.753l-4.621-3.466a3.46 3.46 0 00-.824-.468 2.186 2.186 0 00-.8-.168h-.013a1.208 1.208 0 00-.923.349 1.389 1.389 0 00-.328.991 1.371 1.371 0 00.359.985 1.629 1.629 0 001.015.458h.007v1.442h-.007a3.727 3.727 0 01-1.459-.5 2.566 2.566 0 01-.923-.981 2.93 2.93 0 01-.318-1.388 3.456 3.456 0 01.3-1.518 2.136 2.136 0 01.885-.957 2.818 2.818 0 011.4-.328h.013a3.084 3.084 0 011.1.219 4.708 4.708 0 011.107.608l3.91 2.878v-3.76h1.327v5.606zM26.955 276.931a2.4 2.4 0 01-.854.951 3.4 3.4 0 01-1.347.488h-.007v-1.394h.007a1.3 1.3 0 00.852-.438 1.42 1.42 0 00.3-.943 1.259 1.259 0 00-.447-1.035 1.939 1.939 0 00-1.262-.367h-.834a1.924 1.924 0 00-1.254.367 1.26 1.26 0 00-.448 1.035 1.325 1.325 0 00.2.7 1.945 1.945 0 00.575.588v1.271h-5.229v-5.065h1.326v3.671h2.236a1.992 1.992 0 01-.328-.581 1.9 1.9 0 01-.117-.656 2.9 2.9 0 01.356-1.474 2.289 2.289 0 011.039-.93 3.9 3.9 0 011.647-.317h.834a3.775 3.775 0 011.648.328 2.326 2.326 0 011.043.957 3 3 0 01.358 1.511 2.918 2.918 0 01-.294 1.333z"/><path class="cls-7" d="M14.492 351.07l-1.462-1.461" id="LINE-14" data-name="LINE"/><path class="cls-7" d="M15.953 349.609l-1.461 1.461" id="LINE-15" data-name="LINE"/><path class="cls-7" d="M14.492 222.178l1.461 1.462" id="LINE-16" data-name="LINE"/><path class="cls-7" d="M13.031 223.64l1.461-1.462" id="LINE-17" data-name="LINE"/><path class="cls-7" d="M66.815 267.143v84.072" id="LINE-18" data-name="LINE"/><path d="M63.677 323.222l-4.621-3.466a3.426 3.426 0 00-.824-.468 2.185 2.185 0 00-.8-.168h-.014a1.205 1.205 0 00-.923.349 1.388 1.388 0 00-.328.991 1.368 1.368 0 00.359.984 1.626 1.626 0 001.015.458h.007v1.443h-.007a3.721 3.721 0 01-1.459-.5 2.554 2.554 0 01-.923-.982 2.923 2.923 0 01-.318-1.387 3.456 3.456 0 01.3-1.518 2.141 2.141 0 01.885-.957 2.809 2.809 0 011.4-.328h.007a3.083 3.083 0 011.1.219 4.7 4.7 0 011.108.608l3.91 2.878v-3.76h1.326v5.606zM63.677 315.989l-4.621-3.466a3.421 3.421 0 00-.824-.467 2.165 2.165 0 00-.8-.168h-.014a1.208 1.208 0 00-.923.348 1.392 1.392 0 00-.328.992 1.368 1.368 0 00.359.984 1.631 1.631 0 001.015.458h.007v1.442h-.007a3.721 3.721 0 01-1.459-.5 2.559 2.559 0 01-.923-.981 2.924 2.924 0 01-.318-1.388 3.451 3.451 0 01.3-1.517 2.136 2.136 0 01.885-.957 2.809 2.809 0 011.4-.329h.007a3.1 3.1 0 011.1.219 4.739 4.739 0 011.108.609l3.91 2.878v-3.76h1.326v5.6zM64.695 307.167a2.4 2.4 0 01-.854.951 3.41 3.41 0 01-1.347.488h-.007v-1.394h.007a1.288 1.288 0 00.851-.438 1.414 1.414 0 00.3-.943 1.261 1.261 0 00-.445-1.031 1.943 1.943 0 00-1.261-.366h-.834a1.933 1.933 0 00-1.255.366 1.261 1.261 0 00-.448 1.035 1.315 1.315 0 00.206.7 1.941 1.941 0 00.574.588v1.272h-5.235v-5.066h1.327V307h2.235a1.969 1.969 0 01-.328-.581 1.9 1.9 0 01-.116-.656 2.888 2.888 0 01.355-1.474 2.282 2.282 0 011.039-.929 3.9 3.9 0 011.648-.318h.834a3.791 3.791 0 011.647.328 2.331 2.331 0 011.043.957 3 3 0 01.358 1.511 2.931 2.931 0 01-.294 1.329zM64.695 299.545a2.4 2.4 0 01-.854.951 3.41 3.41 0 01-1.347.488h-.007v-1.394h.007a1.288 1.288 0 00.851-.438 1.414 1.414 0 00.3-.943 1.261 1.261 0 00-.448-1.035 1.943 1.943 0 00-1.261-.366h-.834a1.933 1.933 0 00-1.255.366 1.261 1.261 0 00-.448 1.035 1.315 1.315 0 00.206.7 1.941 1.941 0 00.574.588v1.272h-5.232V295.7h1.327v3.671h2.235a1.969 1.969 0 01-.328-.581 1.9 1.9 0 01-.116-.656 2.888 2.888 0 01.355-1.474 2.289 2.289 0 011.039-.93 3.916 3.916 0 011.648-.317h.834a3.777 3.777 0 011.647.328 2.331 2.331 0 011.043.957 3 3 0 01.358 1.511 2.931 2.931 0 01-.294 1.336z"/><path class="cls-7" d="M66.815 351.07l-1.461-1.461" id="LINE-19" data-name="LINE"/><path class="cls-7" d="M68.276 349.609l-1.461 1.461" id="LINE-20" data-name="LINE"/><path class="cls-7" d="M66.816 267.144l1.461 1.461" id="LINE-21" data-name="LINE"/><path class="cls-7" d="M65.355 268.605l1.461-1.461" id="LINE-22" data-name="LINE"/><path class="cls-7" d="M73.007 267.144h-8.694"/><path class="cls-7" d="M137.83 270.168v81.047" id="LINE-23" data-name="LINE"/><path d="M148.859 323.56l-4.622-3.466a3.439 3.439 0 00-.823-.468 2.19 2.19 0 00-.8-.168h-.014a1.2 1.2 0 00-.923.349 1.388 1.388 0 00-.328.991 1.364 1.364 0 00.359.984 1.623 1.623 0 001.015.458h.007v1.443h-.007a3.731 3.731 0 01-1.46-.5 2.562 2.562 0 01-.923-.982 2.922 2.922 0 01-.317-1.387 3.456 3.456 0 01.3-1.518 2.136 2.136 0 01.885-.957 2.8 2.8 0 011.4-.328h.007a3.088 3.088 0 011.1.219 4.673 4.673 0 011.107.608l3.91 2.878v-3.76h1.327v5.606zM150.069 313.777v1.4h-8.422l.868 1.415h-1.443l-.943-1.415v-1.4zM149.829 310.2a2.5 2.5 0 01-.967 1.057 2.788 2.788 0 01-1.453.372h-.164a2.8 2.8 0 01-1.4-.372 2.489 2.489 0 01-.991-1 2.2 2.2 0 01-.831.845 2.241 2.241 0 01-1.145.317h-.239a2.642 2.642 0 01-1.371-.349 2.362 2.362 0 01-.916-.984 3.526 3.526 0 010-2.953 2.371 2.371 0 01.916-.985 2.651 2.651 0 011.371-.348h.239a2.2 2.2 0 011.155.325 2.165 2.165 0 01.821.857 2.571 2.571 0 01.994-1.007 2.728 2.728 0 011.4-.38h.164a2.788 2.788 0 011.453.372 2.5 2.5 0 01.967 1.056 3.848 3.848 0 010 3.172zm-5.67-2.324a1.254 1.254 0 00-.516-.5 1.63 1.63 0 00-.773-.178h-.095a1.51 1.51 0 00-.739.178 1.226 1.226 0 00-.5.5 1.646 1.646 0 000 1.477 1.226 1.226 0 00.5.5 1.523 1.523 0 00.745.177h.1a1.593 1.593 0 00.762-.177 1.258 1.258 0 00.513-.5 1.6 1.6 0 000-1.477zm4.481-.116a1.384 1.384 0 00-.537-.571 1.552 1.552 0 00-.8-.2h-.1a1.567 1.567 0 00-.8.2 1.384 1.384 0 00-.537.571 2.007 2.007 0 000 1.709 1.384 1.384 0 00.54.571 1.59 1.59 0 00.807.2h.1a1.535 1.535 0 00.793-.2 1.368 1.368 0 00.53-.571 2.021 2.021 0 000-1.709zM149.426 302.926a2.868 2.868 0 01-2.078.72h-4.519a2.852 2.852 0 01-2.081-.724 3.391 3.391 0 010-4.229 2.861 2.861 0 012.085-.72h4.519a2.558 2.558 0 012.823 2.837 2.815 2.815 0 01-.749 2.116zm-.967-3.207a1.593 1.593 0 00-1.111-.352h-4.519a1.6 1.6 0 00-1.111.349 1.742 1.742 0 000 2.187 1.6 1.6 0 001.111.349h4.519a1.593 1.593 0 001.111-.352 1.733 1.733 0 000-2.181z"/><path class="cls-7" d="M137.83 351.07l-1.461-1.461" id="LINE-24" data-name="LINE"/><path class="cls-7" d="M139.291 349.609l-1.461 1.461" id="LINE-25" data-name="LINE"/><path class="cls-7" d="M137.831 270.168l1.461 1.461" id="LINE-26" data-name="LINE"/><path class="cls-7" d="M136.369 271.629l1.462-1.461" id="LINE-27" data-name="LINE"/><path class="cls-7" d="M144.022 270.167h-8.694"/><path class="cls-7" d="M209.83 270.168v81.047" id="LINE-28" data-name="LINE"/><path d="M220.859 323.56l-4.622-3.466a3.439 3.439 0 00-.823-.468 2.19 2.19 0 00-.8-.168h-.014a1.2 1.2 0 00-.923.349 1.388 1.388 0 00-.328.991 1.364 1.364 0 00.359.984 1.623 1.623 0 001.015.458h.007v1.443h-.007a3.731 3.731 0 01-1.46-.5 2.562 2.562 0 01-.923-.982 2.922 2.922 0 01-.317-1.387 3.456 3.456 0 01.3-1.518 2.136 2.136 0 01.885-.957 2.8 2.8 0 011.4-.328h.007a3.088 3.088 0 011.1.219 4.673 4.673 0 011.107.608l3.91 2.878v-3.76h1.327v5.606zM222.069 313.777v1.4h-8.422l.868 1.415h-1.443l-.943-1.415v-1.4zM221.829 310.2a2.5 2.5 0 01-.967 1.057 2.788 2.788 0 01-1.453.372h-.164a2.8 2.8 0 01-1.4-.372 2.489 2.489 0 01-.991-1 2.2 2.2 0 01-.831.845 2.241 2.241 0 01-1.145.317h-.239a2.642 2.642 0 01-1.371-.349 2.362 2.362 0 01-.916-.984 3.526 3.526 0 010-2.953 2.371 2.371 0 01.916-.985 2.651 2.651 0 011.371-.348h.239a2.2 2.2 0 011.155.325 2.165 2.165 0 01.821.857 2.571 2.571 0 01.994-1.007 2.728 2.728 0 011.4-.38h.164a2.788 2.788 0 011.453.372 2.5 2.5 0 01.967 1.056 3.848 3.848 0 010 3.172zm-5.67-2.324a1.254 1.254 0 00-.516-.5 1.63 1.63 0 00-.773-.178h-.095a1.51 1.51 0 00-.739.178 1.226 1.226 0 00-.5.5 1.646 1.646 0 000 1.477 1.226 1.226 0 00.5.5 1.523 1.523 0 00.745.177h.1a1.593 1.593 0 00.762-.177 1.258 1.258 0 00.513-.5 1.6 1.6 0 000-1.477zm4.481-.116a1.384 1.384 0 00-.537-.571 1.552 1.552 0 00-.8-.2h-.1a1.567 1.567 0 00-.8.2 1.384 1.384 0 00-.537.571 2.007 2.007 0 000 1.709 1.384 1.384 0 00.54.571 1.59 1.59 0 00.807.2h.1a1.535 1.535 0 00.793-.2 1.368 1.368 0 00.53-.571 2.021 2.021 0 000-1.709zM221.426 302.926a2.868 2.868 0 01-2.078.72h-4.519a2.852 2.852 0 01-2.081-.724 3.391 3.391 0 010-4.229 2.861 2.861 0 012.085-.72h4.519a2.558 2.558 0 012.823 2.837 2.815 2.815 0 01-.749 2.116zm-.967-3.207a1.593 1.593 0 00-1.111-.352h-4.519a1.6 1.6 0 00-1.111.349 1.742 1.742 0 000 2.187 1.6 1.6 0 001.111.349h4.519a1.593 1.593 0 001.111-.352 1.733 1.733 0 000-2.181z"/><path class="cls-7" d="M209.83 351.07l-1.461-1.461" id="LINE-29" data-name="LINE"/><path class="cls-7" d="M211.291 349.609l-1.461 1.461" id="LINE-30" data-name="LINE"/><path class="cls-7" d="M209.831 270.168l1.461 1.461" id="LINE-31" data-name="LINE"/><path class="cls-7" d="M208.369 271.629l1.462-1.461" id="LINE-32" data-name="LINE"/><path class="cls-7" d="M216.022 270.167h-8.694"/><path class="cls-7" d="M337.483 266.76H225.824" id="LINE-33" data-name="LINE"/><path d="M269.178 279.1l-.635-.3a2.516 2.516 0 01-1.023-.882 3.187 3.187 0 01-.488-1.392h1.422a1.5 1.5 0 00.266.7 1.241 1.241 0 00.531.407 1.983 1.983 0 00.761.133 1.485 1.485 0 001.074-.369 1.381 1.381 0 00.382-1.039v-.3a1.678 1.678 0 00-.362-1.152 1.3 1.3 0 00-1.025-.407h-.7v-1.326h.7a1.163 1.163 0 00.9-.349 1.4 1.4 0 00.321-.984v-.308a1.191 1.191 0 00-.339-.909 1.334 1.334 0 00-.959-.321 1.456 1.456 0 00-.636.134 1.207 1.207 0 00-.475.41 1.864 1.864 0 00-.284.693H267.2a3.627 3.627 0 01.516-1.394 2.526 2.526 0 01.961-.882 2.865 2.865 0 011.333-.3 2.757 2.757 0 011.989.677 2.519 2.519 0 01.7 1.907v.164a2.152 2.152 0 01-.4 1.3 2.278 2.278 0 01-1.142.807 2.026 2.026 0 011.261.8 2.647 2.647 0 01.448 1.586v.164a3.055 3.055 0 01-.335 1.484 2.212 2.212 0 01-.975.936 3.383 3.383 0 01-1.541.322zM275.566 278.356a2.865 2.865 0 01-.721-2.078v-4.518a2.852 2.852 0 01.725-2.081 3.391 3.391 0 014.229 0 2.861 2.861 0 01.72 2.085v4.518a2.558 2.558 0 01-2.837 2.824 2.812 2.812 0 01-2.116-.75zm3.207-.966a1.6 1.6 0 00.352-1.112v-4.518a1.605 1.605 0 00-.349-1.111 1.742 1.742 0 00-2.187 0 1.6 1.6 0 00-.349 1.111v4.518a1.6 1.6 0 00.351 1.112 1.738 1.738 0 002.182 0zM284.009 278.808a2.413 2.413 0 01-.951-.855 3.4 3.4 0 01-.488-1.347v-.006h1.395v.006a1.29 1.29 0 00.437.852 1.42 1.42 0 00.943.3 1.264 1.264 0 001.036-.448 1.939 1.939 0 00.366-1.261v-.834a1.93 1.93 0 00-.366-1.254 1.261 1.261 0 00-1.036-.448 1.316 1.316 0 00-.7.2 1.941 1.941 0 00-.588.574h-1.271v-5.227h5.065v1.326h-3.671v2.235a1.992 1.992 0 01.581-.328 1.927 1.927 0 01.657-.116 2.9 2.9 0 011.473.355 2.294 2.294 0 01.93 1.039 3.9 3.9 0 01.317 1.648v.834a3.773 3.773 0 01-.328 1.647 2.326 2.326 0 01-.957 1.043 3 3 0 01-1.511.359 2.931 2.931 0 01-1.333-.294zM290.913 278.356a2.861 2.861 0 01-.721-2.078v-4.518a2.843 2.843 0 115.674 0v4.518a2.559 2.559 0 01-2.837 2.824 2.809 2.809 0 01-2.116-.746zm3.207-.966a1.6 1.6 0 00.351-1.112v-4.518a1.6 1.6 0 00-.348-1.111 1.743 1.743 0 00-2.188 0 1.6 1.6 0 00-.348 1.111v4.518a1.6 1.6 0 00.351 1.112 1.738 1.738 0 002.182 0z"/><path class="cls-7" d="M225.969 266.76l1.461-1.461" id="LINE-34" data-name="LINE"/><path class="cls-7" d="M227.43 268.222l-1.461-1.462" id="LINE-35" data-name="LINE"/><path class="cls-7" d="M337.483 266.761l-1.461 1.461" id="LINE-36" data-name="LINE"/><path class="cls-7" d="M336.022 265.3l1.461 1.461" id="LINE-37" data-name="LINE"/><path class="cls-7" d="M80.083 270.168v58.758" id="LINE-38" data-name="LINE"/><path d="M92.905 302.977v1.394h-8.422l.868 1.415h-1.442l-.944-1.415v-1.394zM92.714 299.281a2.407 2.407 0 01-.855.951 3.39 3.39 0 01-1.347.489h-.006v-1.395h.006a1.292 1.292 0 00.851-.437 1.418 1.418 0 00.305-.944 1.261 1.261 0 00-.448-1.035 1.941 1.941 0 00-1.261-.366h-.834a1.933 1.933 0 00-1.255.366 1.261 1.261 0 00-.447 1.035 1.317 1.317 0 00.2.7 1.938 1.938 0 00.574.587v1.268h-5.232v-5.065h1.327v3.67h2.235a1.979 1.979 0 01-.328-.581 1.894 1.894 0 01-.116-.656 2.891 2.891 0 01.355-1.474 2.287 2.287 0 011.039-.929 3.9 3.9 0 011.648-.318h.834a3.773 3.773 0 011.647.329 2.326 2.326 0 011.043.957 3 3 0 01.358 1.51 2.941 2.941 0 01-.293 1.338zM93.007 291.362l-.3.636a2.5 2.5 0 01-.882 1.023 3.2 3.2 0 01-1.391.488v-1.422a1.5 1.5 0 00.7-.267 1.23 1.23 0 00.406-.53 1.992 1.992 0 00.134-.762 1.483 1.483 0 00-.369-1.073 1.38 1.38 0 00-1.04-.383h-.3a1.672 1.672 0 00-1.152.363 1.3 1.3 0 00-.407 1.025v.7h-1.332v-.7a1.161 1.161 0 00-.349-.9 1.4 1.4 0 00-.984-.322h-.308a1.192 1.192 0 00-.909.339 1.339 1.339 0 00-.321.96 1.462 1.462 0 00.133.636 1.222 1.222 0 00.41.475 1.886 1.886 0 00.694.284v1.415a3.627 3.627 0 01-1.394-.516 2.518 2.518 0 01-.882-.961 2.855 2.855 0 01-.3-1.333 2.757 2.757 0 01.677-1.989 2.519 2.519 0 011.907-.7h.164a2.152 2.152 0 011.3.4 2.276 2.276 0 01.806 1.142 2.027 2.027 0 01.8-1.261 2.647 2.647 0 011.586-.448h.164a3.055 3.055 0 011.484.335 2.21 2.21 0 01.936.974 3.389 3.389 0 01.321 1.541zM92.714 284.256a2.413 2.413 0 01-.855.951 3.4 3.4 0 01-1.347.488h-.006V284.3h.006a1.293 1.293 0 00.851-.438 1.414 1.414 0 00.305-.943 1.261 1.261 0 00-.448-1.035 1.941 1.941 0 00-1.261-.366h-.834a1.933 1.933 0 00-1.255.366 1.261 1.261 0 00-.447 1.035 1.314 1.314 0 00.2.7 1.941 1.941 0 00.574.588v1.272h-5.232v-5.066h1.327v3.671h2.235a1.992 1.992 0 01-.328-.581 1.9 1.9 0 01-.116-.656 2.888 2.888 0 01.355-1.474 2.289 2.289 0 011.039-.93 3.9 3.9 0 011.648-.317h.834a3.773 3.773 0 011.647.328 2.331 2.331 0 011.043.957 3 3 0 01.358 1.511 2.944 2.944 0 01-.293 1.334z"/><path class="cls-7" d="M80.083 328.926l-1.461-1.462" id="LINE-39" data-name="LINE"/><path class="cls-7" d="M81.544 327.464l-1.461 1.462" id="LINE-40" data-name="LINE"/><path class="cls-7" d="M80.084 270.169l1.461 1.461" id="LINE-41" data-name="LINE"/><path class="cls-7" d="M78.622 271.63l1.462-1.461" id="LINE-42" data-name="LINE"/><path class="cls-7" d="M86.275 270.169h-8.694"/><path class="cls-7" d="M85.385 222.178v44.965" id="LINE-43" data-name="LINE"/><path d="M81.966 253.277v1.4h-8.422l.868 1.415H72.97l-.943-1.415v-1.4zM81.966 248.622v1.395h-8.422l.868 1.415H72.97l-.943-1.415v-1.395zM73.271 241.232l8.695 2.571v1.483l-8.613-2.57v2.529h1.428v1.395h-2.754v-5.408zM81.323 238.6a2.865 2.865 0 01-2.078.72h-4.518a2.843 2.843 0 110-5.673h4.518a2.558 2.558 0 012.824 2.836 2.816 2.816 0 01-.746 2.117zm-.966-3.207a1.594 1.594 0 00-1.112-.352h-4.518a1.6 1.6 0 00-1.111.349 1.742 1.742 0 000 2.187 1.6 1.6 0 001.111.349h4.518a1.594 1.594 0 001.112-.352 1.737 1.737 0 000-2.181z"/><path class="cls-7" d="M85.385 267.143l-1.461-1.461" id="LINE-44" data-name="LINE"/><path class="cls-7" d="M86.846 265.682l-1.461 1.461" id="LINE-45" data-name="LINE"/><path class="cls-7" d="M85.385 222.178l1.462 1.462" id="LINE-46" data-name="LINE"/><path class="cls-7" d="M83.924 223.64l1.461-1.462" id="LINE-47" data-name="LINE"/><path class="cls-7" d="M205.855 223.142v44.001" id="LINE-48" data-name="LINE"/><path d="M202.437 253.933v1.394h-8.422l.868 1.415h-1.442l-.943-1.415v-1.394zM202.437 249.277v1.4h-8.422l.868 1.415h-1.442l-.943-1.415v-1.4zM197.5 243.5l.246.007a1.029 1.029 0 01.461.515 2.082 2.082 0 01.147.818 2.193 2.193 0 01-.362 1.251 2.381 2.381 0 01-1.022.838 3.706 3.706 0 01-1.528.3h-.007a3.818 3.818 0 01-1.647-.325 2.278 2.278 0 01-1.039-.951 2.986 2.986 0 01-.356-1.5 2.932 2.932 0 01.362-1.5 2.328 2.328 0 011.053-.946 3.872 3.872 0 011.661-.325h.007a5.234 5.234 0 011.138.136 6.937 6.937 0 011.2.39l.181.082c.062.027.122.057.181.089l4.259 2.119V246zm-.862-.065a1.943 1.943 0 00-1.251-.359h-.007a1.851 1.851 0 00-1.216.359 1.419 1.419 0 000 2.037 1.856 1.856 0 001.223.359h.007a1.925 1.925 0 001.248-.359 1.392 1.392 0 000-2.037zM202.246 238.4a2.416 2.416 0 01-.855.952 3.4 3.4 0 01-1.346.488h-.007v-1.395h.007a1.292 1.292 0 00.851-.437 1.42 1.42 0 00.3-.943 1.264 1.264 0 00-.448-1.036 1.941 1.941 0 00-1.261-.366h-.834a1.928 1.928 0 00-1.254.366 1.261 1.261 0 00-.448 1.036 1.316 1.316 0 00.2.7 1.964 1.964 0 00.574.588v1.271H192.5v-5.065h1.326v3.671h2.235a2 2 0 01-.328-.581 1.9 1.9 0 01-.116-.657 2.9 2.9 0 01.355-1.473 2.284 2.284 0 011.039-.93 3.9 3.9 0 011.648-.317h.834a3.773 3.773 0 011.647.328 2.326 2.326 0 011.043.957 3 3 0 01.359 1.511 2.924 2.924 0 01-.296 1.332z"/><path class="cls-7" d="M205.855 267.143l-1.461-1.461" id="LINE-49" data-name="LINE"/><path class="cls-7" d="M207.317 265.682l-1.462 1.461" id="LINE-50" data-name="LINE"/><path class="cls-7" d="M205.856 223.142l1.461 1.461" id="LINE-51" data-name="LINE"/><path class="cls-7" d="M204.395 224.603l1.461-1.461" id="LINE-52" data-name="LINE"/><path class="cls-7" d="M190.333 48.55v148.123" id="LINE-53" data-name="LINE"/><path d="M202.36 134.479l-.3.635a2.516 2.516 0 01-.882 1.023 3.182 3.182 0 01-1.391.488V135.2a1.5 1.5 0 00.7-.266 1.241 1.241 0 00.407-.531 1.987 1.987 0 00.133-.761 1.485 1.485 0 00-.369-1.074 1.376 1.376 0 00-1.039-.383h-.3a1.679 1.679 0 00-1.152.363 1.3 1.3 0 00-.406 1.025v.7h-1.327v-.7a1.165 1.165 0 00-.348-.9 1.4 1.4 0 00-.985-.321h-.307a1.191 1.191 0 00-.909.338 1.335 1.335 0 00-.322.96 1.456 1.456 0 00.134.636 1.207 1.207 0 00.41.475 1.862 1.862 0 00.694.284v1.415a3.626 3.626 0 01-1.4-.516 2.534 2.534 0 01-.882-.961 2.865 2.865 0 01-.3-1.333 2.757 2.757 0 01.677-1.989 2.519 2.519 0 011.907-.7h.165a2.151 2.151 0 011.3.4 2.272 2.272 0 01.807 1.142 2.023 2.023 0 01.8-1.261 2.643 2.643 0 011.586-.448h.164a3.054 3.054 0 011.483.335 2.22 2.22 0 01.937.975 3.4 3.4 0 01.321 1.541zM197.322 125.291l.246.007a1.024 1.024 0 01.461.515 2.064 2.064 0 01.147.818 2.193 2.193 0 01-.362 1.251 2.374 2.374 0 01-1.022.838 3.706 3.706 0 01-1.528.3h-.007a3.821 3.821 0 01-1.647-.325 2.283 2.283 0 01-1.039-.951 2.986 2.986 0 01-.356-1.5 2.923 2.923 0 01.363-1.5 2.318 2.318 0 011.053-.946 3.869 3.869 0 011.661-.325h.007a5.248 5.248 0 011.138.136 6.955 6.955 0 011.2.39l.182.082c.061.027.122.057.181.089l4.258 2.119v1.5zm-.861-.065a1.947 1.947 0 00-1.251-.359h-.01a1.852 1.852 0 00-1.217.359 1.419 1.419 0 000 2.037 1.857 1.857 0 001.224.359h.006a1.925 1.925 0 001.248-.359 1.393 1.393 0 000-2.037zM193.562 116.493l8.695 2.57v1.484l-8.613-2.57v2.529h1.429v1.394h-2.755v-5.407zM202.066 113.14a2.418 2.418 0 01-.854.951 3.41 3.41 0 01-1.347.488h-.007v-1.394h.007a1.3 1.3 0 00.851-.438 1.415 1.415 0 00.3-.943 1.257 1.257 0 00-.448-1.035 1.934 1.934 0 00-1.261-.367h-.834a1.924 1.924 0 00-1.254.367 1.257 1.257 0 00-.448 1.035 1.316 1.316 0 00.2.7 1.953 1.953 0 00.574.588v1.271h-5.236V109.3h1.326v3.671h2.236a1.972 1.972 0 01-.329-.581 1.926 1.926 0 01-.116-.656 2.886 2.886 0 01.356-1.474 2.284 2.284 0 011.039-.93 3.9 3.9 0 011.647-.317h.834a3.778 3.778 0 011.648.328 2.329 2.329 0 011.042.957 3 3 0 01.359 1.511 2.931 2.931 0 01-.285 1.331z"/><path class="cls-7" d="M190.333 196.673l-1.462-1.461" id="LINE-54" data-name="LINE"/><path class="cls-7" d="M191.794 195.212l-1.461 1.461" id="LINE-55" data-name="LINE"/><path class="cls-7" d="M190.333 48.55l1.461 1.462" id="LINE-56" data-name="LINE"/><path class="cls-7" d="M188.871 50.012l1.462-1.462" id="LINE-57" data-name="LINE"/><path class="cls-7" d="M318.786 48.55v161.569" id="LINE-58" data-name="LINE"/><path d="M312.482 144.134l-7.2-3.336v-1.436l7.116 3.254v-4.874h1.292v6.392zm-3.11-4.286v-1.361h5.851v1.361zM312.482 136.17l-7.2-3.336V131.4l7.116 3.254v-4.874h1.292v6.392zm-3.11-4.286v-1.361h5.851v1.361zM314.574 127.349a2.868 2.868 0 01-2.078.72h-4.519a2.843 2.843 0 110-5.673h4.523a2.852 2.852 0 012.081.724 3.379 3.379 0 010 4.229zm-.967-3.207a1.593 1.593 0 00-1.111-.352h-4.519a1.6 1.6 0 00-1.111.349 1.742 1.742 0 000 2.187 1.6 1.6 0 001.111.349h4.523a1.593 1.593 0 001.111-.352 1.733 1.733 0 000-2.181zM314.574 119.624a2.868 2.868 0 01-2.078.721h-4.519a2.843 2.843 0 110-5.674h4.523a2.559 2.559 0 012.823 2.837 2.816 2.816 0 01-.749 2.116zm-.967-3.207a1.6 1.6 0 00-1.111-.352h-4.519a1.607 1.607 0 00-1.111.349 1.743 1.743 0 000 2.188 1.607 1.607 0 001.111.348h4.523a1.6 1.6 0 001.111-.351 1.735 1.735 0 000-2.182z"/><path class="cls-7" d="M318.786 210.119l-1.461-1.461" id="LINE-59" data-name="LINE"/><path class="cls-7" d="M320.248 208.658l-1.462 1.461" id="LINE-60" data-name="LINE"/><path class="cls-7" d="M318.787 48.55l1.461 1.462" id="LINE-61" data-name="LINE"/><path class="cls-7" d="M317.326 50.012l1.461-1.462" id="LINE-62" data-name="LINE"/><path class="cls-7" d="M318.786 223.259v127.959" id="LINE-63" data-name="LINE"/><path d="M315.319 299.974l-.3.635a2.516 2.516 0 01-.882 1.023 3.182 3.182 0 01-1.391.488v-1.42a1.5 1.5 0 00.7-.266 1.241 1.241 0 00.407-.531 1.983 1.983 0 00.133-.761 1.485 1.485 0 00-.369-1.074 1.379 1.379 0 00-1.039-.382h-.3a1.678 1.678 0 00-1.152.362 1.3 1.3 0 00-.406 1.025v.7h-1.327v-.7a1.166 1.166 0 00-.348-.9 1.4 1.4 0 00-.985-.321h-.307a1.188 1.188 0 00-.909.339 1.33 1.33 0 00-.322.959 1.456 1.456 0 00.134.636 1.2 1.2 0 00.41.475 1.862 1.862 0 00.694.284v1.415a3.626 3.626 0 01-1.395-.516 2.526 2.526 0 01-.882-.961 2.865 2.865 0 01-.3-1.333 2.757 2.757 0 01.677-1.989 2.522 2.522 0 011.907-.7h.165a2.151 2.151 0 011.3.4 2.278 2.278 0 01.807 1.142 2.023 2.023 0 01.8-1.261 2.643 2.643 0 011.586-.448h.164a3.054 3.054 0 011.483.335 2.22 2.22 0 01.937.975 3.4 3.4 0 01.321 1.541zM312.482 294.443l-7.2-3.336v-1.435l7.116 3.254v-4.874h1.292v6.391zm-3.11-4.286V288.8h5.851v1.36zM306.521 281.209l8.695 2.57v1.484l-8.613-2.571v2.53h1.429v1.394h-2.755v-5.407zM315.025 277.855a2.414 2.414 0 01-.854.952 3.41 3.41 0 01-1.347.488h-.007v-1.4h.007a1.29 1.29 0 00.851-.437 1.415 1.415 0 00.3-.943 1.261 1.261 0 00-.448-1.036 1.939 1.939 0 00-1.261-.366h-.834a1.93 1.93 0 00-1.254.366 1.261 1.261 0 00-.448 1.036 1.316 1.316 0 00.205.7 1.964 1.964 0 00.574.588v1.271h-5.236v-5.065h1.327v3.671h2.236a1.985 1.985 0 01-.329-.581 1.927 1.927 0 01-.116-.657 2.885 2.885 0 01.356-1.473 2.274 2.274 0 011.039-.93 3.9 3.9 0 011.647-.317h.834a3.778 3.778 0 011.648.328 2.329 2.329 0 011.042.957 3 3 0 01.359 1.511 2.924 2.924 0 01-.291 1.337z"/><path class="cls-7" d="M318.786 351.051l-1.461-1.461" id="LINE-64" data-name="LINE"/><path class="cls-7" d="M320.248 349.59l-1.462 1.461" id="LINE-65" data-name="LINE"/><path class="cls-7" d="M318.787 223.259l1.461 1.461" id="LINE-66" data-name="LINE"/><path class="cls-7" d="M317.326 224.72l1.461-1.461" id="LINE-67" data-name="LINE"/><path class="cls-7" d="M337.485 64.736H132.492" id="LINE-68" data-name="LINE"/><path d="M222.257 61.037a2.414 2.414 0 01-.952-.854 3.41 3.41 0 01-.488-1.347v-.007h1.395v.007a1.29 1.29 0 00.437.851 1.415 1.415 0 00.943.3 1.261 1.261 0 001.036-.448 1.939 1.939 0 00.366-1.261v-.834a1.93 1.93 0 00-.366-1.254 1.264 1.264 0 00-1.036-.448 1.316 1.316 0 00-.7.2 1.964 1.964 0 00-.588.574h-1.271v-5.227h5.067v1.326h-3.67v2.236a1.985 1.985 0 01.581-.329 1.927 1.927 0 01.657-.116 2.885 2.885 0 011.473.356 2.279 2.279 0 01.93 1.039 3.9 3.9 0 01.317 1.647v.834a3.778 3.778 0 01-.328 1.648 2.329 2.329 0 01-.957 1.042 3 3 0 01-1.511.359 2.924 2.924 0 01-1.335-.294zM228.3 58.494l3.336-7.2h1.436l-3.254 7.116h4.874v1.29H228.3zm4.287-3.11h1.36v5.851h-1.36zM239.924 56.293l-.007.246a1.026 1.026 0 01-.517.461 2.059 2.059 0 01-.817.147 2.189 2.189 0 01-1.251-.362 2.367 2.367 0 01-.838-1.022 3.706 3.706 0 01-.3-1.528v-.006a3.823 3.823 0 01.324-1.648 2.288 2.288 0 01.951-1.039 2.986 2.986 0 011.5-.355 2.922 2.922 0 011.5.362 2.325 2.325 0 01.947 1.053 3.884 3.884 0 01.325 1.661v.007a5.191 5.191 0 01-.137 1.138 6.955 6.955 0 01-.39 1.2l-.082.182a2.515 2.515 0 01-.088.181l-2.12 4.259h-1.5zm.065-.861a1.953 1.953 0 00.358-1.251v-.007a1.857 1.857 0 00-.358-1.217 1.419 1.419 0 00-2.037 0 1.858 1.858 0 00-.36 1.224v.007a1.924 1.924 0 00.36 1.247 1.393 1.393 0 002.037 0zM245.027 61.037a2.412 2.412 0 01-.951-.854 3.41 3.41 0 01-.488-1.347v-.007h1.394v.007a1.291 1.291 0 00.438.851 1.413 1.413 0 00.943.3 1.259 1.259 0 001.035-.448 1.939 1.939 0 00.366-1.261v-.834a1.93 1.93 0 00-.366-1.254 1.261 1.261 0 00-1.035-.448 1.314 1.314 0 00-.7.2 1.953 1.953 0 00-.588.574h-1.272v-5.227h5.066v1.326H245.2v2.236a1.972 1.972 0 01.581-.329 1.926 1.926 0 01.656-.116 2.889 2.889 0 011.474.356 2.277 2.277 0 01.929 1.039 3.9 3.9 0 01.318 1.647v.834a3.792 3.792 0 01-.328 1.648 2.329 2.329 0 01-.957 1.042 3 3 0 01-1.511.359 2.931 2.931 0 01-1.335-.294z"/><path class="cls-7" d="M132.492 64.736l1.461-1.461" id="LINE-69" data-name="LINE"/><path class="cls-7" d="M133.953 66.197l-1.461-1.461" id="LINE-70" data-name="LINE"/><path class="cls-7" d="M337.485 64.737l-1.462 1.461" id="LINE-71" data-name="LINE"/><path class="cls-7" d="M336.023 63.276l1.462 1.461" id="LINE-72" data-name="LINE"/><path class="cls-7" d="M27.986 48.55v147.746" id="LINE-73" data-name="LINE"/><path d="M24.518 134.476l-.3.635a2.516 2.516 0 01-.882 1.023 3.178 3.178 0 01-1.391.488V135.2a1.5 1.5 0 00.7-.266 1.241 1.241 0 00.407-.531 1.983 1.983 0 00.133-.761 1.485 1.485 0 00-.369-1.074 1.375 1.375 0 00-1.039-.382h-.3a1.676 1.676 0 00-1.151.362 1.3 1.3 0 00-.407 1.025v.7h-1.334v-.7a1.167 1.167 0 00-.349-.9 1.4 1.4 0 00-.984-.321h-.308a1.191 1.191 0 00-.909.338 1.334 1.334 0 00-.321.96 1.456 1.456 0 00.133.636 1.207 1.207 0 00.41.475 1.87 1.87 0 00.694.284v1.415a3.632 3.632 0 01-1.4-.516 2.534 2.534 0 01-.882-.961 2.864 2.864 0 01-.3-1.333 2.757 2.757 0 01.676-1.989 2.521 2.521 0 011.908-.7h.164a2.156 2.156 0 011.3.4 2.276 2.276 0 01.806 1.142 2.023 2.023 0 01.8-1.261 2.645 2.645 0 011.586-.448h.164a3.051 3.051 0 011.483.335 2.209 2.209 0 01.937.975 3.4 3.4 0 01.321 1.541zM19.48 125.288l.246.007a1.024 1.024 0 01.462.516 2.074 2.074 0 01.147.817 2.189 2.189 0 01-.363 1.251 2.368 2.368 0 01-1.022.838 3.7 3.7 0 01-1.527.3h-.007a3.823 3.823 0 01-1.648-.325 2.288 2.288 0 01-1.039-.951 2.986 2.986 0 01-.355-1.5 2.922 2.922 0 01.362-1.5 2.323 2.323 0 011.053-.946 3.869 3.869 0 011.661-.325h.007a5.241 5.241 0 011.138.136 6.993 6.993 0 011.2.39l.181.082c.062.027.122.057.181.089l4.259 2.119v1.5zm-.861-.065a1.947 1.947 0 00-1.251-.359h-.007a1.852 1.852 0 00-1.217.359 1.421 1.421 0 000 2.037 1.857 1.857 0 001.224.359h.007a1.924 1.924 0 001.247-.359 1.393 1.393 0 000-2.037zM21.681 122.308l-7.2-3.336v-1.436l7.119 3.254v-4.874h1.292v6.392zm-3.11-4.287v-1.36h5.852v1.36zM24.224 112.768a2.418 2.418 0 01-.854.951 3.41 3.41 0 01-1.347.488h-.007v-1.394h.007a1.293 1.293 0 00.851-.438 1.415 1.415 0 00.3-.943 1.263 1.263 0 00-.447-1.036 1.944 1.944 0 00-1.262-.366h-.834a1.93 1.93 0 00-1.254.366 1.264 1.264 0 00-.448 1.036 1.325 1.325 0 00.205.7 1.945 1.945 0 00.575.588v1.271h-5.233v-5.065H15.8v3.671h2.236a1.969 1.969 0 01-.328-.581 1.9 1.9 0 01-.117-.657 2.885 2.885 0 01.356-1.473 2.284 2.284 0 011.039-.93 3.9 3.9 0 011.647-.317h.834a3.778 3.778 0 011.648.328 2.329 2.329 0 011.042.957 2.993 2.993 0 01.359 1.511 2.931 2.931 0 01-.292 1.333z"/><path class="cls-7" d="M27.986 196.296l-1.461-1.462" id="LINE-74" data-name="LINE"/><path class="cls-7" d="M29.447 194.834l-1.461 1.462" id="LINE-75" data-name="LINE"/><path class="cls-7" d="M27.987 48.55l1.461 1.462" id="LINE-76" data-name="LINE"/><path class="cls-7" d="M26.525 50.012l1.462-1.462" id="LINE-77" data-name="LINE"/><path class="cls-7" d="M125.306 48.664v170.292" id="LINE-78" data-name="LINE"/><path d="M119 148.388l-7.2-3.336v-1.436l7.117 3.254V142h1.292v6.392zm-3.111-4.286v-1.361h5.852v1.359zM121.545 138.848a2.413 2.413 0 01-.855.951 3.4 3.4 0 01-1.347.488h-.006v-1.394h.006a1.293 1.293 0 00.851-.438 1.416 1.416 0 00.3-.943 1.26 1.26 0 00-.448-1.035 1.936 1.936 0 00-1.261-.367h-.834a1.927 1.927 0 00-1.255.367 1.259 1.259 0 00-.447 1.035 1.316 1.316 0 00.2.7 1.941 1.941 0 00.574.588v1.271H111.8V135h1.326v3.671h2.235a1.992 1.992 0 01-.328-.581 1.9 1.9 0 01-.116-.656 2.886 2.886 0 01.355-1.474 2.289 2.289 0 011.039-.93 3.9 3.9 0 011.648-.317h.834a3.773 3.773 0 011.647.328 2.331 2.331 0 011.043.957 3 3 0 01.359 1.511 2.944 2.944 0 01-.297 1.339zM121.545 131.226a2.413 2.413 0 01-.855.951 3.4 3.4 0 01-1.347.488h-.006v-1.394h.006a1.293 1.293 0 00.851-.438 1.416 1.416 0 00.3-.943 1.264 1.264 0 00-.448-1.036 1.941 1.941 0 00-1.261-.366h-.834a1.933 1.933 0 00-1.255.366 1.263 1.263 0 00-.447 1.036 1.316 1.316 0 00.2.7 1.941 1.941 0 00.574.588v1.271H111.8v-5.065h1.326v3.671h2.235a1.992 1.992 0 01-.328-.581 1.9 1.9 0 01-.116-.657 2.885 2.885 0 01.355-1.473 2.289 2.289 0 011.039-.93 3.9 3.9 0 011.648-.317h.834a3.773 3.773 0 011.647.328 2.331 2.331 0 011.043.957 3 3 0 01.359 1.511 2.944 2.944 0 01-.297 1.333zM121.093 124.322a2.861 2.861 0 01-2.078.721H114.5a2.852 2.852 0 01-2.082-.725 3.391 3.391 0 010-4.228 2.858 2.858 0 012.085-.721h4.518a2.559 2.559 0 012.824 2.837 2.812 2.812 0 01-.752 2.116zm-.967-3.207a1.6 1.6 0 00-1.111-.351H114.5a1.6 1.6 0 00-1.111.348 1.743 1.743 0 000 2.188 1.6 1.6 0 001.111.348h4.518a1.6 1.6 0 001.111-.351 1.735 1.735 0 000-2.182z"/><path class="cls-7" d="M125.306 218.956l-1.461-1.461" id="LINE-79" data-name="LINE"/><path class="cls-7" d="M126.767 217.495l-1.461 1.461" id="LINE-80" data-name="LINE"/><path class="cls-7" d="M125.307 48.664l1.461 1.461" id="LINE-81" data-name="LINE"/><path class="cls-7" d="M123.846 50.125l1.461-1.461" id="LINE-82" data-name="LINE"/><path class="cls-7" d="M129.47 64.736H10.691" id="LINE-83" data-name="LINE"/><path d="M59.314 61.331l-.636-.3a2.52 2.52 0 01-1.022-.882 3.182 3.182 0 01-.488-1.391h1.422a1.494 1.494 0 00.266.7 1.244 1.244 0 00.53.407 1.992 1.992 0 00.762.133 1.483 1.483 0 001.073-.369 1.376 1.376 0 00.383-1.039v-.3a1.678 1.678 0 00-.362-1.152 1.3 1.3 0 00-1.026-.406h-.7V55.4h.7a1.167 1.167 0 00.9-.348 1.4 1.4 0 00.321-.985v-.307a1.188 1.188 0 00-.339-.909 1.333 1.333 0 00-.96-.322 1.455 1.455 0 00-.635.134 1.207 1.207 0 00-.475.41 1.846 1.846 0 00-.284.694h-1.412a3.626 3.626 0 01.515-1.4 2.541 2.541 0 01.961-.882 2.867 2.867 0 011.333-.3 2.758 2.758 0 011.99.676 2.523 2.523 0 01.7 1.908v.164a2.145 2.145 0 01-.4 1.3 2.265 2.265 0 01-1.141.807 2.018 2.018 0 011.26.8 2.643 2.643 0 01.45 1.586v.164a3.065 3.065 0 01-.335 1.483 2.22 2.22 0 01-.975.937 3.4 3.4 0 01-1.541.321zM67.381 61.229h-1.395v-8.422l-1.415.868v-1.443l1.415-.943h1.395zM71.373 61.331l-.636-.3a2.507 2.507 0 01-1.022-.882 3.2 3.2 0 01-.489-1.391h1.422a1.5 1.5 0 00.267.7 1.232 1.232 0 00.53.407 1.992 1.992 0 00.762.133 1.483 1.483 0 001.073-.369 1.376 1.376 0 00.383-1.039v-.3a1.674 1.674 0 00-.363-1.16 1.3 1.3 0 00-1.025-.406h-.7V55.4h.7a1.163 1.163 0 00.9-.348 1.4 1.4 0 00.322-.985v-.307a1.192 1.192 0 00-.339-.909 1.335 1.335 0 00-.96-.322 1.462 1.462 0 00-.636.134 1.2 1.2 0 00-.474.41 1.863 1.863 0 00-.285.694H69.39a3.626 3.626 0 01.516-1.4 2.534 2.534 0 01.961-.882 2.867 2.867 0 011.333-.3 2.757 2.757 0 011.989.676 2.519 2.519 0 01.7 1.908v.164a2.151 2.151 0 01-.4 1.3 2.272 2.272 0 01-1.142.807 2.023 2.023 0 011.261.8 2.643 2.643 0 01.448 1.586v.164a3.054 3.054 0 01-.335 1.483 2.217 2.217 0 01-.974.937 3.4 3.4 0 01-1.541.321zM77.76 60.586a2.868 2.868 0 01-.72-2.078v-4.519a2.843 2.843 0 115.674 0v4.519a2.852 2.852 0 01-.725 2.081 3.379 3.379 0 01-4.229 0zm3.207-.967a1.593 1.593 0 00.352-1.111v-4.519a1.6 1.6 0 00-.349-1.111 1.742 1.742 0 00-2.187 0 1.6 1.6 0 00-.349 1.111v4.519a1.593 1.593 0 00.352 1.111 1.733 1.733 0 002.181 0z"/><path class="cls-7" d="M10.691 64.736l1.461-1.461" id="LINE-84" data-name="LINE"/><path class="cls-7" d="M12.152 66.197l-1.461-1.461" id="LINE-85" data-name="LINE"/><path class="cls-7" d="M129.47 64.737l-1.461 1.461" id="LINE-86" data-name="LINE"/><path class="cls-7" d="M128.009 63.276l1.461 1.461" id="LINE-87" data-name="LINE"/><path class="cls-7" d="M178.779 204.11h-46.106" id="LINE-88" data-name="LINE"/><path d="M147.092 217.222h-1.4V208.8l-1.415.868v-1.442l1.415-.944h1.4zM151.747 217.222h-1.394V208.8l-1.415.868v-1.442l1.415-.944h1.394zM157.524 212.286l-.007.246a1.022 1.022 0 01-.516.461 2.059 2.059 0 01-.817.148 2.189 2.189 0 01-1.251-.363 2.367 2.367 0 01-.838-1.022 3.7 3.7 0 01-.3-1.527v-.007a3.82 3.82 0 01.324-1.648 2.283 2.283 0 01.951-1.039 2.986 2.986 0 011.5-.355 2.922 2.922 0 011.5.362 2.315 2.315 0 01.947 1.053 3.865 3.865 0 01.325 1.661v.007a5.176 5.176 0 01-.137 1.137 6.97 6.97 0 01-.389 1.2c-.028.058-.055.119-.082.18s-.057.122-.089.182l-2.119 4.259h-1.5zm.065-.861a1.953 1.953 0 00.358-1.251v-.007a1.857 1.857 0 00-.358-1.217 1.421 1.421 0 00-2.037 0 1.857 1.857 0 00-.359 1.224v.007a1.924 1.924 0 00.359 1.247 1.393 1.393 0 002.037 0zM162.627 217.03a2.412 2.412 0 01-.951-.854 3.41 3.41 0 01-.488-1.347v-.007h1.394v.007a1.291 1.291 0 00.438.851 1.413 1.413 0 00.943.3 1.259 1.259 0 001.035-.448 1.941 1.941 0 00.366-1.261v-.834a1.928 1.928 0 00-.366-1.254 1.261 1.261 0 00-1.035-.448 1.323 1.323 0 00-.7.2 1.945 1.945 0 00-.588.575h-1.272v-5.237h5.066v1.326H162.8v2.236a1.947 1.947 0 01.581-.328 1.9 1.9 0 01.656-.117 2.889 2.889 0 011.474.356 2.279 2.279 0 01.93 1.039 3.9 3.9 0 01.317 1.647v.834a3.778 3.778 0 01-.328 1.648 2.329 2.329 0 01-.957 1.042 3 3 0 01-1.511.359 2.931 2.931 0 01-1.335-.285z"/><path class="cls-7" d="M132.673 204.11l1.462-1.461" id="LINE-89" data-name="LINE"/><path class="cls-7" d="M134.135 205.571l-1.462-1.461" id="LINE-90" data-name="LINE"/><path class="cls-7" d="M178.779 204.11l-1.461 1.462" id="LINE-91" data-name="LINE"/><path class="cls-7" d="M177.318 202.649l1.461 1.461" id="LINE-92" data-name="LINE"/><path class="cls-7" d="M128.335 324.561h-52.9" id="LINE-93" data-name="LINE"/><path d="M91.481 321.788h-1.395v-8.422l-1.415.868v-1.442l1.415-.943h1.395zM95.473 321.891l-.636-.3a2.507 2.507 0 01-1.022-.882 3.2 3.2 0 01-.489-1.392h1.422a1.5 1.5 0 00.267.7 1.238 1.238 0 00.53.407 1.992 1.992 0 00.762.133 1.483 1.483 0 001.073-.369 1.376 1.376 0 00.383-1.039v-.3a1.678 1.678 0 00-.362-1.152 1.3 1.3 0 00-1.026-.407h-.7v-1.326h.7a1.164 1.164 0 00.9-.349 1.4 1.4 0 00.321-.984v-.308a1.2 1.2 0 00-.339-.909 1.339 1.339 0 00-.96-.321 1.462 1.462 0 00-.636.134 1.211 1.211 0 00-.474.41 1.865 1.865 0 00-.285.693H93.49a3.627 3.627 0 01.516-1.394 2.534 2.534 0 01.961-.882 2.867 2.867 0 011.333-.3 2.757 2.757 0 011.989.677 2.519 2.519 0 01.7 1.907v.164a2.145 2.145 0 01-.4 1.3 2.274 2.274 0 01-1.142.807 2.026 2.026 0 011.261.8 2.647 2.647 0 01.448 1.586v.164a3.053 3.053 0 01-.335 1.484 2.2 2.2 0 01-.974.936 3.389 3.389 0 01-1.541.322zM102.466 321.549a2.5 2.5 0 01-1.057-.967 2.788 2.788 0 01-.372-1.453v-.164a2.8 2.8 0 01.372-1.4 2.5 2.5 0 01.995-.991 2.183 2.183 0 01-.844-.83 2.242 2.242 0 01-.318-1.145v-.24a2.651 2.651 0 01.349-1.37 2.362 2.362 0 01.984-.916 3.516 3.516 0 012.953 0 2.364 2.364 0 01.985.916 2.65 2.65 0 01.348 1.37v.24a2.2 2.2 0 01-.325 1.155 2.155 2.155 0 01-.857.82 2.583 2.583 0 011.008 1 2.728 2.728 0 01.38 1.4v.164a2.779 2.779 0 01-.373 1.453 2.5 2.5 0 01-1.056.967 3.848 3.848 0 01-3.172 0zm2.44-1.19a1.378 1.378 0 00.572-.536 1.565 1.565 0 00.2-.8v-.1a1.574 1.574 0 00-.2-.8 1.38 1.38 0 00-.572-.537 2 2 0 00-1.709 0 1.378 1.378 0 00-.571.54 1.587 1.587 0 00-.2.807v.1a1.535 1.535 0 00.2.793 1.368 1.368 0 00.571.53 1.869 1.869 0 00.855.188 1.825 1.825 0 00.854-.185zm-.116-4.48a1.25 1.25 0 00.5-.517 1.623 1.623 0 00.178-.772v-.1a1.509 1.509 0 00-.178-.738 1.226 1.226 0 00-.5-.495 1.644 1.644 0 00-1.476 0 1.226 1.226 0 00-.5.495 1.512 1.512 0 00-.178.745v.1a1.582 1.582 0 00.178.762 1.258 1.258 0 00.5.513 1.6 1.6 0 001.476 0zM109.736 321.146a2.865 2.865 0 01-.721-2.079v-4.518a2.843 2.843 0 115.674 0v4.518a2.854 2.854 0 01-.725 2.082 3.377 3.377 0 01-4.228 0zm3.207-.967a1.6 1.6 0 00.351-1.112v-4.518a1.6 1.6 0 00-.349-1.111 1.742 1.742 0 00-2.187 0 1.605 1.605 0 00-.349 1.111v4.518a1.6 1.6 0 00.352 1.112 1.738 1.738 0 002.182 0z"/><path class="cls-7" d="M75.435 324.561l1.461-1.461" id="LINE-94" data-name="LINE"/><path class="cls-7" d="M76.896 326.022l-1.461-1.461" id="LINE-95" data-name="LINE"/><path class="cls-7" d="M128.335 324.562l-1.461 1.461" id="LINE-96" data-name="LINE"/><path class="cls-7" d="M126.874 323.101l1.461 1.461" id="LINE-97" data-name="LINE"/><path class="cls-7" d="M200.131 344.859h-68.773" id="LINE-98" data-name="LINE"/><path d="M155.747 342.086h-1.4v-8.422l-1.415.868v-1.442l1.415-.944h1.4zM163.136 333.391l-2.57 8.695h-1.483l2.57-8.613h-2.529v1.427h-1.395v-2.755h5.407zM164.367 339.352l3.336-7.2h1.435l-3.254 7.117h4.874v1.292h-6.391zm4.286-3.111h1.36v5.852h-1.36zM173.188 341.443a2.867 2.867 0 01-.721-2.078v-4.518a2.854 2.854 0 01.725-2.082 3.389 3.389 0 014.229 0 2.86 2.86 0 01.72 2.085v4.518a2.558 2.558 0 01-2.837 2.823 2.819 2.819 0 01-2.116-.748zm3.207-.967a1.591 1.591 0 00.352-1.111v-4.518a1.6 1.6 0 00-.349-1.112 1.745 1.745 0 00-2.187 0 1.6 1.6 0 00-.349 1.112v4.518a1.591 1.591 0 00.352 1.111 1.733 1.733 0 002.181 0z"/><path class="cls-7" d="M131.358 344.859l1.461-1.461" id="LINE-99" data-name="LINE"/><path class="cls-7" d="M132.819 346.32l-1.461-1.461" id="LINE-100" data-name="LINE"/><path class="cls-7" d="M200.131 344.859l-1.461 1.462" id="LINE-101" data-name="LINE"/><path class="cls-7" d="M198.67 343.398l1.461 1.461" id="LINE-102" data-name="LINE"/><path class="cls-7" d="M337.483 344.859H203.416" id="LINE-103" data-name="LINE"/><path d="M258.243 342.188l-.635-.3a2.5 2.5 0 01-1.023-.882 3.182 3.182 0 01-.488-1.391h1.422a1.513 1.513 0 00.266.7 1.247 1.247 0 00.531.406 1.983 1.983 0 00.761.134 1.481 1.481 0 001.074-.37 1.379 1.379 0 00.382-1.039v-.3a1.681 1.681 0 00-.362-1.153 1.3 1.3 0 00-1.025-.406h-.7v-1.326h.7a1.163 1.163 0 00.9-.349 1.4 1.4 0 00.321-.984v-.308a1.188 1.188 0 00-.339-.909 1.331 1.331 0 00-.96-.321 1.454 1.454 0 00-.635.133 1.2 1.2 0 00-.475.41 1.862 1.862 0 00-.284.694h-1.415a3.615 3.615 0 01.516-1.394 2.515 2.515 0 01.96-.882 2.855 2.855 0 011.333-.3 2.758 2.758 0 011.99.677 2.522 2.522 0 01.7 1.907v.164a2.154 2.154 0 01-.4 1.3 2.276 2.276 0 01-1.142.806 2.023 2.023 0 011.261.8 2.652 2.652 0 01.448 1.586v.164a3.058 3.058 0 01-.335 1.484 2.218 2.218 0 01-.975.936 3.4 3.4 0 01-1.541.321zM264.977 341.836a2.285 2.285 0 01-.948-1.025 3.734 3.734 0 01-.324-1.623v-.007a5.537 5.537 0 01.13-1.162 6.745 6.745 0 01.376-1.2c.027-.068.057-.135.089-.2s.063-.131.1-.194l2.16-4.28h1.5l-2.536 4.957.006-.247a1.212 1.212 0 01.5-.5 1.578 1.578 0 01.766-.177 2.44 2.44 0 011.326.348 2.181 2.181 0 01.841 1.015 4.044 4.044 0 01.287 1.6v.007a3.791 3.791 0 01-.325 1.641 2.3 2.3 0 01-.949 1.039 3.355 3.355 0 01-3 0zm2.519-1.4a1.72 1.72 0 00.359-1.168v-.007a1.967 1.967 0 00-.376-1.289 1.316 1.316 0 00-1.074-.454 1.128 1.128 0 00-.963.458 2.12 2.12 0 00-.342 1.292v.006a1.7 1.7 0 00.359 1.165 1.471 1.471 0 002.037 0zM272.534 341.9a2.429 2.429 0 01-.951-.855 3.41 3.41 0 01-.488-1.347v-.006h1.394v.006a1.293 1.293 0 00.438.851 1.416 1.416 0 00.943.305 1.258 1.258 0 001.035-.449 1.931 1.931 0 00.367-1.26v-.834a1.927 1.927 0 00-.367-1.255 1.259 1.259 0 00-1.035-.447 1.316 1.316 0 00-.7.205 1.941 1.941 0 00-.588.574h-1.271v-5.237h5.065v1.327h-3.671v2.235a1.947 1.947 0 01.581-.328 1.9 1.9 0 01.656-.116 2.886 2.886 0 011.474.355 2.279 2.279 0 01.93 1.039 3.9 3.9 0 01.317 1.648v.834a3.777 3.777 0 01-.328 1.647 2.329 2.329 0 01-.957 1.042 3 3 0 01-1.511.359 2.944 2.944 0 01-1.333-.293zM279.438 341.443a2.862 2.862 0 01-.721-2.078v-4.518a2.843 2.843 0 115.674 0v4.518a2.559 2.559 0 01-2.837 2.823 2.816 2.816 0 01-2.116-.745zm3.207-.967a1.6 1.6 0 00.351-1.111v-4.518a1.608 1.608 0 00-.348-1.112 1.747 1.747 0 00-2.188 0 1.608 1.608 0 00-.349 1.112v4.518a1.6 1.6 0 00.352 1.111 1.735 1.735 0 002.182 0z"/><path class="cls-7" d="M203.416 344.859l1.461-1.461" id="LINE-104" data-name="LINE"/><path class="cls-7" d="M204.877 346.32l-1.461-1.461" id="LINE-105" data-name="LINE"/><path class="cls-7" d="M337.483 344.859l-1.461 1.462" id="LINE-106" data-name="LINE"/><path class="cls-7" d="M336.022 343.398l1.461 1.461" id="LINE-107" data-name="LINE"/><path class="cls-7" d="M80.156 204.11h-54.42" id="LINE-108" data-name="LINE"/><path d="M42.606 217.222h-1.394V208.8l-1.415.868v-1.442l1.415-.944h1.394zM44.725 214.487l3.336-7.2H49.5l-3.254 7.116h4.874v1.297h-6.395zm4.286-3.11h1.361v5.852h-1.361zM56.346 212.286l-.006.246a1.031 1.031 0 01-.516.461 2.062 2.062 0 01-.817.148 2.189 2.189 0 01-1.251-.363 2.367 2.367 0 01-.838-1.022 3.688 3.688 0 01-.3-1.527v-.007a3.82 3.82 0 01.324-1.648 2.283 2.283 0 01.951-1.039 2.986 2.986 0 011.5-.355 2.922 2.922 0 011.5.362 2.32 2.32 0 01.947 1.053 3.88 3.88 0 01.325 1.661v.007a5.176 5.176 0 01-.137 1.137 6.975 6.975 0 01-.39 1.2l-.082.18c-.028.061-.056.122-.089.182l-2.119 4.259h-1.5zm.066-.861a1.953 1.953 0 00.358-1.251v-.007a1.857 1.857 0 00-.358-1.217 1.421 1.421 0 00-2.037 0 1.852 1.852 0 00-.36 1.224v.007a1.918 1.918 0 00.36 1.247 1.393 1.393 0 002.037 0zM60.731 216.579a2.867 2.867 0 01-.721-2.078v-4.519a2.858 2.858 0 01.725-2.082 3.393 3.393 0 014.229 0 2.863 2.863 0 01.72 2.085v4.515a2.558 2.558 0 01-2.837 2.823 2.819 2.819 0 01-2.116-.744zm3.207-.968a1.59 1.59 0 00.352-1.11v-4.519a1.6 1.6 0 00-.349-1.111 1.742 1.742 0 00-2.187 0 1.6 1.6 0 00-.349 1.111v4.518a1.59 1.59 0 00.352 1.11 1.73 1.73 0 002.181 0z"/><path class="cls-7" d="M25.736 204.11l1.461-1.461" id="LINE-109" data-name="LINE"/><path class="cls-7" d="M27.197 205.571l-1.461-1.461" id="LINE-110" data-name="LINE"/><path class="cls-7" d="M80.156 204.11l-1.462 1.462" id="LINE-111" data-name="LINE"/><path class="cls-7" d="M78.694 202.649l1.462 1.461" id="LINE-112" data-name="LINE"/><path class="cls-7" d="M83.389 190.118H10.442" id="LINE-113" data-name="LINE"/><path d="M36.966 186.854h-1.4v-8.421l-1.415.868v-1.443l1.415-.943h1.4zM42.742 181.919l-.006.246a1.031 1.031 0 01-.516.461 2.063 2.063 0 01-.817.147 2.189 2.189 0 01-1.251-.362 2.367 2.367 0 01-.838-1.022 3.69 3.69 0 01-.3-1.528v-.007a3.821 3.821 0 01.324-1.647 2.288 2.288 0 01.951-1.039 2.986 2.986 0 011.5-.355 2.922 2.922 0 011.5.362 2.325 2.325 0 01.947 1.053 3.884 3.884 0 01.325 1.661v.007a5.191 5.191 0 01-.137 1.138 6.955 6.955 0 01-.39 1.2l-.082.182a2.165 2.165 0 01-.089.181l-2.119 4.258h-1.5zm.066-.861a1.953 1.953 0 00.358-1.251v-.007a1.857 1.857 0 00-.358-1.217 1.419 1.419 0 00-2.037 0 1.852 1.852 0 00-.36 1.224v.006a1.919 1.919 0 00.36 1.248 1.393 1.393 0 002.037 0zM49.927 181.919l-.007.246a1.022 1.022 0 01-.516.461 2.056 2.056 0 01-.817.147 2.189 2.189 0 01-1.251-.362 2.374 2.374 0 01-.838-1.022 3.706 3.706 0 01-.3-1.528v-.007a3.821 3.821 0 01.325-1.647 2.283 2.283 0 01.951-1.039 2.986 2.986 0 011.5-.355 2.922 2.922 0 011.5.362 2.323 2.323 0 01.946 1.053 3.869 3.869 0 01.325 1.661v.007a5.248 5.248 0 01-.136 1.138 6.955 6.955 0 01-.39 1.2l-.082.182a2.335 2.335 0 01-.089.181l-2.119 4.258h-1.5zm.065-.861a1.947 1.947 0 00.359-1.251v-.007a1.852 1.852 0 00-.359-1.217 1.419 1.419 0 00-2.037 0 1.857 1.857 0 00-.359 1.224v.006a1.925 1.925 0 00.359 1.248 1.393 1.393 0 002.037 0zM54.312 186.212a2.864 2.864 0 01-.721-2.078v-4.519a2.843 2.843 0 115.674 0v4.519a2.559 2.559 0 01-2.837 2.823 2.816 2.816 0 01-2.116-.745zm3.207-.967a1.6 1.6 0 00.351-1.111v-4.519a1.607 1.607 0 00-.348-1.111 1.743 1.743 0 00-2.188 0 1.607 1.607 0 00-.348 1.111v4.519a1.6 1.6 0 00.351 1.111 1.735 1.735 0 002.182 0z"/><path class="cls-7" d="M10.711 190.118l1.461-1.461" id="LINE-114" data-name="LINE"/><path class="cls-7" d="M12.172 191.579l-1.461-1.461" id="LINE-115" data-name="LINE"/><path class="cls-7" d="M83.389 190.119l-1.461 1.461" id="LINE-116" data-name="LINE"/><path class="cls-7" d="M81.928 188.657l1.461 1.462" id="LINE-117" data-name="LINE"/><path class="cls-7" d="M83.389 197.86v-10.459"/><path class="cls-7" d="M337.483 204.11H201.886" id="LINE-118" data-name="LINE"/><path d="M257.352 201.047l-.636-.3a2.5 2.5 0 01-1.022-.882 3.178 3.178 0 01-.488-1.391h1.422a1.494 1.494 0 00.266.7 1.236 1.236 0 00.53.407 1.992 1.992 0 00.762.134 1.481 1.481 0 001.073-.37 1.376 1.376 0 00.383-1.039V198a1.677 1.677 0 00-.362-1.152 1.3 1.3 0 00-1.025-.407h-.7v-1.326h.7a1.163 1.163 0 00.9-.349 1.4 1.4 0 00.321-.984v-.308a1.188 1.188 0 00-.339-.909 1.337 1.337 0 00-.96-.321 1.454 1.454 0 00-.635.133 1.215 1.215 0 00-.475.41 1.853 1.853 0 00-.284.694h-1.413a3.638 3.638 0 01.515-1.395 2.53 2.53 0 01.961-.881 2.855 2.855 0 011.333-.3 2.754 2.754 0 011.99.677 2.522 2.522 0 01.7 1.907v.164a2.148 2.148 0 01-.4 1.3 2.269 2.269 0 01-1.141.806 2.027 2.027 0 011.261.8 2.654 2.654 0 01.448 1.586v.164a3.069 3.069 0 01-.335 1.484 2.212 2.212 0 01-.975.936 3.4 3.4 0 01-1.541.321zM264.086 200.7a2.29 2.29 0 01-.948-1.025 3.732 3.732 0 01-.324-1.624v-.006a5.547 5.547 0 01.13-1.163 6.787 6.787 0 01.376-1.2c.027-.068.057-.136.089-.2s.063-.13.1-.194l2.16-4.28h1.5l-2.537 4.956.007-.246a1.212 1.212 0 01.5-.5 1.59 1.59 0 01.766-.177 2.44 2.44 0 011.326.348 2.181 2.181 0 01.841 1.015 4.05 4.05 0 01.287 1.6v.007a3.791 3.791 0 01-.325 1.641 2.3 2.3 0 01-.949 1.039 3.355 3.355 0 01-3 0zm2.519-1.4a1.726 1.726 0 00.359-1.169v-.006a1.967 1.967 0 00-.376-1.289 1.316 1.316 0 00-1.074-.455 1.133 1.133 0 00-.964.458 2.133 2.133 0 00-.341 1.292v.007a1.7 1.7 0 00.359 1.166 1.473 1.473 0 002.037 0zM271.53 200.706a2.5 2.5 0 01-1.057-.968 2.786 2.786 0 01-.372-1.452v-.164a2.8 2.8 0 01.372-1.4 2.5 2.5 0 011-.991 2.179 2.179 0 01-.844-.831 2.242 2.242 0 01-.318-1.145v-.239a2.651 2.651 0 01.349-1.37 2.356 2.356 0 01.984-.916 3.516 3.516 0 012.953 0 2.364 2.364 0 01.985.916 2.65 2.65 0 01.348 1.37v.239a2.2 2.2 0 01-.325 1.156 2.162 2.162 0 01-.857.82 2.576 2.576 0 011.008.995 2.726 2.726 0 01.38 1.4v.164a2.777 2.777 0 01-.373 1.452 2.5 2.5 0 01-1.056.968 3.859 3.859 0 01-3.172 0zm2.44-1.19a1.386 1.386 0 00.572-.537 1.559 1.559 0 00.2-.8v-.1a1.577 1.577 0 00-.2-.8 1.384 1.384 0 00-.572-.536 2 2 0 00-1.709 0 1.372 1.372 0 00-.571.54 1.583 1.583 0 00-.2.806v.1a1.535 1.535 0 00.2.793 1.374 1.374 0 00.571.53 1.866 1.866 0 00.855.188 1.825 1.825 0 00.854-.184zm-.116-4.481a1.248 1.248 0 00.5-.516 1.628 1.628 0 00.178-.772v-.1a1.5 1.5 0 00-.178-.738 1.222 1.222 0 00-.5-.5 1.652 1.652 0 00-1.476 0 1.222 1.222 0 00-.5.5 1.507 1.507 0 00-.178.745v.1a1.582 1.582 0 00.178.762 1.246 1.246 0 00.5.513 1.6 1.6 0 001.476 0zM278.8 200.3a2.865 2.865 0 01-.72-2.078v-4.518a2.856 2.856 0 01.724-2.082 3.389 3.389 0 014.229 0 2.862 2.862 0 01.721 2.085v4.518a2.856 2.856 0 01-.725 2.082 3.38 3.38 0 01-4.229 0zm3.208-.967a1.6 1.6 0 00.351-1.111v-4.518a1.6 1.6 0 00-.349-1.111 1.738 1.738 0 00-2.187 0 1.605 1.605 0 00-.349 1.111v4.518a1.591 1.591 0 00.352 1.111 1.735 1.735 0 002.182 0z"/><path class="cls-7" d="M201.886 204.11l1.461-1.461" id="LINE-119" data-name="LINE"/><path class="cls-7" d="M203.347 205.571l-1.461-1.461" id="LINE-120" data-name="LINE"/><path class="cls-7" d="M337.483 204.11l-1.461 1.462" id="LINE-121" data-name="LINE"/><path class="cls-7" d="M336.022 202.649l1.461 1.461" id="LINE-122" data-name="LINE"/><path class="cls-7" d="M90.475 200.8v18.993" id="LINE-123" data-name="LINE"/><path class="cls-7" d="M122.366 200.8v18.993" id="LINE-124" data-name="LINE"/><path class="cls-7" d="M122.366 200.799H90.475" id="LINE-125" data-name="LINE"/><path d="M99.651 193.293l-.007.246a1.026 1.026 0 01-.516.461 2.059 2.059 0 01-.817.147 2.189 2.189 0 01-1.251-.362 2.367 2.367 0 01-.838-1.022 3.706 3.706 0 01-.3-1.528v-.006a3.823 3.823 0 01.324-1.648 2.288 2.288 0 01.951-1.039 2.986 2.986 0 011.5-.355 2.922 2.922 0 011.5.362 2.325 2.325 0 01.947 1.053 3.869 3.869 0 01.325 1.661v.007a5.191 5.191 0 01-.137 1.138 7.038 7.038 0 01-.389 1.2l-.082.182a2.335 2.335 0 01-.089.181l-2.119 4.259h-1.5zm.065-.861a1.953 1.953 0 00.358-1.251v-.007a1.857 1.857 0 00-.358-1.217 1.419 1.419 0 00-2.037 0 1.858 1.858 0 00-.36 1.224v.007a1.924 1.924 0 00.36 1.247 1.393 1.393 0 002.037 0zM104.035 197.586a2.868 2.868 0 01-.72-2.078v-4.519a2.843 2.843 0 115.673 0v4.519a2.852 2.852 0 01-.724 2.081 3.379 3.379 0 01-4.229 0zm3.207-.967a1.593 1.593 0 00.352-1.111v-4.519a1.6 1.6 0 00-.349-1.111 1.742 1.742 0 00-2.187 0 1.6 1.6 0 00-.349 1.111v4.519a1.593 1.593 0 00.352 1.111 1.733 1.733 0 002.181 0zM111.76 197.586a2.864 2.864 0 01-.721-2.078v-4.519a2.843 2.843 0 115.674 0v4.519a2.559 2.559 0 01-2.837 2.823 2.812 2.812 0 01-2.116-.745zm3.207-.967a1.6 1.6 0 00.352-1.111v-4.519a1.607 1.607 0 00-.349-1.111 1.743 1.743 0 00-2.188 0 1.607 1.607 0 00-.348 1.111v4.519a1.6 1.6 0 00.351 1.111 1.735 1.735 0 002.182 0z"/><path class="cls-7" d="M90.475 200.799l1.461-1.461" id="LINE-126" data-name="LINE"/><path class="cls-7" d="M91.936 202.26l-1.461-1.461" id="LINE-127" data-name="LINE"/><path class="cls-7" d="M122.366 200.782l-1.461-1.461" id="LINE-128" data-name="LINE"/><path class="cls-7" d="M120.905 202.243l1.461-1.461" id="LINE-129" data-name="LINE"/><path class="cls-7" d="M97.275 249.381v18.993" id="LINE-130" data-name="LINE"/><path class="cls-7" d="M125.389 249.381v18.993" id="LINE-131" data-name="LINE"/><path class="cls-7" d="M125.389 249.381H97.275" id="LINE-132" data-name="LINE"/><path d="M102.021 246.571a2.5 2.5 0 01-1.056-.967 2.781 2.781 0 01-.373-1.453v-.164a2.784 2.784 0 01.373-1.4 2.483 2.483 0 01.995-.991 2.188 2.188 0 01-.845-.831 2.244 2.244 0 01-.317-1.145v-.239a2.651 2.651 0 01.348-1.371 2.371 2.371 0 01.985-.916 3.526 3.526 0 012.953 0 2.368 2.368 0 01.984.916 2.652 2.652 0 01.349 1.371v.239a2.2 2.2 0 01-.326 1.155 2.159 2.159 0 01-.857.821 2.567 2.567 0 011.008.994 2.726 2.726 0 01.38 1.4v.164a2.79 2.79 0 01-.372 1.453 2.5 2.5 0 01-1.057.967 3.848 3.848 0 01-3.172 0zm2.441-1.189a1.39 1.39 0 00.571-.537 1.551 1.551 0 00.2-.8v-.1a1.571 1.571 0 00-.2-.8 1.388 1.388 0 00-.571-.536 2.007 2.007 0 00-1.709 0 1.381 1.381 0 00-.572.54 1.6 1.6 0 00-.2.807v.1a1.544 1.544 0 00.2.792 1.371 1.371 0 00.572.53 2.021 2.021 0 001.709 0zm-.117-4.482a1.251 1.251 0 00.5-.515 1.624 1.624 0 00.178-.773v-.095a1.494 1.494 0 00-.178-.739 1.222 1.222 0 00-.5-.5 1.652 1.652 0 00-1.476 0 1.222 1.222 0 00-.5.5 1.517 1.517 0 00-.178.745v.1a1.593 1.593 0 00.178.762 1.25 1.25 0 00.5.512 1.587 1.587 0 001.476 0zM109.291 246.168a2.862 2.862 0 01-.721-2.078v-4.519a2.852 2.852 0 01.725-2.082 3.391 3.391 0 014.228 0 2.859 2.859 0 01.721 2.085v4.519a2.849 2.849 0 01-.725 2.081 3.377 3.377 0 01-4.228 0zm3.207-.968a1.6 1.6 0 00.351-1.11v-4.519a1.607 1.607 0 00-.348-1.111 1.743 1.743 0 00-2.188 0 1.607 1.607 0 00-.348 1.111v4.519a1.6 1.6 0 00.351 1.11 1.731 1.731 0 002.182 0zM117.015 246.168a2.866 2.866 0 01-.72-2.078v-4.519a2.856 2.856 0 01.724-2.082 3.393 3.393 0 014.229 0 2.863 2.863 0 01.72 2.085v4.519a2.853 2.853 0 01-.724 2.081 3.379 3.379 0 01-4.229 0zm3.207-.968a1.59 1.59 0 00.352-1.11v-4.519a1.6 1.6 0 00-.349-1.111 1.742 1.742 0 00-2.187 0 1.6 1.6 0 00-.349 1.111v4.519a1.59 1.59 0 00.352 1.11 1.73 1.73 0 002.181 0z"/><path class="cls-7" d="M97.275 249.381l1.461-1.461" id="LINE-133" data-name="LINE"/><path class="cls-7" d="M98.736 250.842l-1.461-1.461" id="LINE-134" data-name="LINE"/><path class="cls-7" d="M125.389 249.363l-1.461-1.461" id="LINE-135" data-name="LINE"/><path class="cls-7" d="M123.928 250.824l1.461-1.461" id="LINE-136" data-name="LINE"/><path class="cls-7" d="M199.072 289.159v-18.992" id="LINE-137" data-name="LINE"/><path class="cls-7" d="M167.18 289.159v-18.992" id="LINE-138" data-name="LINE"/><path class="cls-7" d="M167.18 289.16h31.892" id="LINE-139" data-name="LINE"/><path d="M173.813 300.016a2.508 2.508 0 01-1.056-.968 2.78 2.78 0 01-.373-1.452v-.164a2.791 2.791 0 01.373-1.4 2.5 2.5 0 011-.991 2.182 2.182 0 01-.845-.831 2.241 2.241 0 01-.317-1.145v-.239a2.657 2.657 0 01.348-1.371 2.377 2.377 0 01.985-.916 3.526 3.526 0 012.953 0 2.375 2.375 0 01.984.916 2.657 2.657 0 01.349 1.371v.239a2.2 2.2 0 01-.326 1.156 2.156 2.156 0 01-.857.82 2.58 2.58 0 011.008.994 2.732 2.732 0 01.38 1.4v.164a2.789 2.789 0 01-.372 1.452 2.511 2.511 0 01-1.057.968 3.859 3.859 0 01-3.172 0zm2.441-1.19a1.384 1.384 0 00.571-.537 1.549 1.549 0 00.2-.8v-.1a1.567 1.567 0 00-.2-.8 1.382 1.382 0 00-.571-.536 2 2 0 00-1.709 0 1.374 1.374 0 00-.572.54 1.593 1.593 0 00-.2.806v.1a1.547 1.547 0 00.2.793 1.375 1.375 0 00.572.529 2.012 2.012 0 001.709 0zm-.117-4.481a1.248 1.248 0 00.5-.516 1.619 1.619 0 00.178-.772v-.1a1.493 1.493 0 00-.178-.738 1.222 1.222 0 00-.5-.5 1.652 1.652 0 00-1.476 0 1.222 1.222 0 00-.5.5 1.517 1.517 0 00-.178.745v.1a1.593 1.593 0 00.178.762 1.246 1.246 0 00.5.513 1.6 1.6 0 001.476 0zM181.083 299.612a2.862 2.862 0 01-.721-2.078v-4.518a2.85 2.85 0 01.725-2.082 3.388 3.388 0 014.228 0 2.856 2.856 0 01.721 2.085v4.518a2.559 2.559 0 01-2.837 2.823 2.816 2.816 0 01-2.116-.748zm3.207-.967a1.6 1.6 0 00.351-1.111v-4.518a1.608 1.608 0 00-.348-1.112 1.747 1.747 0 00-2.188 0 1.608 1.608 0 00-.348 1.112v4.518a1.6 1.6 0 00.351 1.111 1.735 1.735 0 002.182 0zM188.807 299.612a2.866 2.866 0 01-.72-2.078v-4.518a2.854 2.854 0 01.724-2.082 3.389 3.389 0 014.229 0 2.86 2.86 0 01.72 2.085v4.518a2.852 2.852 0 01-.724 2.081 3.379 3.379 0 01-4.229 0zm3.207-.967a1.591 1.591 0 00.352-1.111v-4.518a1.6 1.6 0 00-.349-1.112 1.745 1.745 0 00-2.187 0 1.6 1.6 0 00-.349 1.112v4.518a1.591 1.591 0 00.352 1.111 1.733 1.733 0 002.181 0z"/><path class="cls-7" d="M199.072 289.16l-1.462 1.461" id="LINE-140" data-name="LINE"/><path class="cls-7" d="M197.61 287.699l1.462 1.461" id="LINE-141" data-name="LINE"/><path class="cls-7" d="M167.18 289.178l1.461 1.461" id="LINE-142" data-name="LINE"/><path class="cls-7" d="M168.641 287.716l-1.461 1.462" id="LINE-143" data-name="LINE"/><path class="cls-7" d="M244.817 226.74h-18.993" id="LINE-144" data-name="LINE"/><path class="cls-7" d="M244.817 258.631h-18.993" id="LINE-145" data-name="LINE"/><path class="cls-7" d="M244.818 258.631V226.74" id="LINE-146" data-name="LINE"/><path d="M251.81 249.457l.246.007a1.026 1.026 0 01.462.515 2.082 2.082 0 01.147.818 2.189 2.189 0 01-.363 1.251 2.368 2.368 0 01-1.022.838 3.7 3.7 0 01-1.527.3h-.007a3.823 3.823 0 01-1.648-.325 2.288 2.288 0 01-1.039-.951 2.986 2.986 0 01-.355-1.5 2.922 2.922 0 01.362-1.5 2.323 2.323 0 011.053-.946 3.869 3.869 0 011.661-.325h.007a5.241 5.241 0 011.138.136 6.993 6.993 0 011.2.39l.181.082c.062.027.122.057.181.089l4.259 2.119v1.5zm-.861-.065a1.943 1.943 0 00-1.251-.359h-.007a1.852 1.852 0 00-1.217.359 1.421 1.421 0 000 2.037 1.857 1.857 0 001.224.359h.007a1.924 1.924 0 001.247-.359 1.393 1.393 0 000-2.037zM256.1 245.072a2.861 2.861 0 01-2.078.721h-4.518a2.85 2.85 0 01-2.082-.725 3.388 3.388 0 010-4.228 2.858 2.858 0 012.085-.721h4.518a2.852 2.852 0 012.082.725 3.379 3.379 0 010 4.228zm-.967-3.207a1.6 1.6 0 00-1.111-.351h-4.518a1.6 1.6 0 00-1.111.348 1.74 1.74 0 000 2.188 1.6 1.6 0 001.111.348h4.518a1.6 1.6 0 001.111-.351 1.735 1.735 0 000-2.182zM256.1 237.348a2.865 2.865 0 01-2.078.72h-4.518a2.854 2.854 0 01-2.082-.724 3.389 3.389 0 010-4.229 2.861 2.861 0 012.085-.72h4.518a2.856 2.856 0 012.082.724 3.38 3.38 0 010 4.229zm-.967-3.207a1.591 1.591 0 00-1.111-.352h-4.518a1.6 1.6 0 00-1.111.349 1.738 1.738 0 000 2.187 1.6 1.6 0 001.111.349h4.518a1.591 1.591 0 001.111-.352 1.733 1.733 0 000-2.181z"/><path class="cls-7" d="M244.818 226.74l1.461 1.461" id="LINE-147" data-name="LINE"/><path class="cls-7" d="M243.356 228.201l1.462-1.461" id="LINE-148" data-name="LINE"/><path class="cls-7" d="M244.835 258.631l1.461-1.461" id="LINE-149" data-name="LINE"/><path class="cls-7" d="M243.374 257.17l1.461 1.461" id="LINE-150" data-name="LINE"/><path class="cls-7" d="M103.208 15.423v17.074" id="LINE-151" data-name="LINE"/><path class="cls-7" d="M37.082 15.379v17.074" id="LINE-152" data-name="LINE"/><path class="cls-7" d="M37.082 15.385l66.126.05" id="LINE-153" data-name="LINE"/><path d="M61.528 11.97h-1.395V3.548l-1.415.868V2.974l1.415-.944h1.395zM68.918 3.274l-2.571 8.7h-1.483l2.57-8.614h-2.529v1.425h-1.4V2.03h5.408zM73.231 11.97h-1.394V3.548l-1.415.868V2.974l1.415-.944h1.394zM76.208 11.327a2.861 2.861 0 01-.721-2.078V4.73a2.849 2.849 0 01.725-2.081 3.388 3.388 0 014.228 0 2.857 2.857 0 01.721 2.084v4.516a2.852 2.852 0 01-.725 2.082 3.379 3.379 0 01-4.228 0zm3.207-.967a1.6 1.6 0 00.351-1.111V4.73a1.6 1.6 0 00-.348-1.11 1.74 1.74 0 00-2.188 0 1.6 1.6 0 00-.348 1.11v4.519a1.6 1.6 0 00.351 1.111 1.735 1.735 0 002.182 0z"/><path class="cls-7" d="M103.252 15.441l-1.461-1.461" id="LINE-154" data-name="LINE"/><path class="cls-7" d="M101.791 16.902l1.461-1.461" id="LINE-155" data-name="LINE"/><path class="cls-7" d="M37.082 15.339l1.461 1.461" id="LINE-156" data-name="LINE"/><path class="cls-7" d="M38.543 13.878l-1.461 1.461" id="LINE-157" data-name="LINE"/><path class="cls-7" d="M37.017 15.423v17.074" id="LINE-158" data-name="LINE"/><path class="cls-7" d="M9.972 15.379v17.074" id="LINE-159" data-name="LINE"/><path class="cls-7" d="M9.972 15.385l27.045.05" id="LINE-160" data-name="LINE"/><path d="M19.276 3.274l-2.57 8.7h-1.484l2.571-8.614h-2.53v1.425h-1.394V2.03h5.407zM20.507 9.235l3.335-7.2h1.436l-3.254 7.118H26.9v1.292h-6.393zm4.286-3.11h1.36v5.852h-1.36zM30.047 11.778a2.414 2.414 0 01-.952-.854 3.41 3.41 0 01-.488-1.347V9.57H30v.007a1.287 1.287 0 00.437.851 1.415 1.415 0 00.943.3 1.263 1.263 0 001.036-.447 1.944 1.944 0 00.366-1.262v-.83a1.93 1.93 0 00-.366-1.254 1.264 1.264 0 00-1.036-.448 1.325 1.325 0 00-.7.205 1.968 1.968 0 00-.588.575h-1.266V2.03h5.065v1.326H30.22v2.236a1.982 1.982 0 01.581-.328 1.9 1.9 0 01.657-.117 2.885 2.885 0 011.473.356 2.279 2.279 0 01.93 1.039 3.9 3.9 0 01.317 1.647v.834a3.778 3.778 0 01-.328 1.648 2.323 2.323 0 01-.957 1.042 2.993 2.993 0 01-1.511.359 2.927 2.927 0 01-1.335-.294z"/><path class="cls-7" d="M37.061 15.441L35.6 13.98" id="LINE-161" data-name="LINE"/><path class="cls-7" d="M35.6 16.902l1.461-1.461" id="LINE-162" data-name="LINE"/><path class="cls-7" d="M9.972 15.339l1.462 1.461" id="LINE-163" data-name="LINE"/><path class="cls-7" d="M11.434 13.878l-1.462 1.461" id="LINE-164" data-name="LINE"/><path class="cls-7" d="M361.29 15.423v17.074" id="LINE-165" data-name="LINE"/><path class="cls-7" d="M259.977 15.379v17.074" id="LINE-166" data-name="LINE"/><path class="cls-7" d="M259.977 15.372l101.313.076" id="LINE-167" data-name="LINE"/><path d="M298.338 10.76l3.462-4.621a3.46 3.46 0 00.468-.824 2.185 2.185 0 00.168-.8v-.01a1.208 1.208 0 00-.349-.923 1.389 1.389 0 00-.991-.328 1.369 1.369 0 00-.985.359 1.629 1.629 0 00-.458 1.015v.007h-1.442v-.007a3.731 3.731 0 01.5-1.46 2.563 2.563 0 01.981-.922 2.93 2.93 0 011.388-.318 3.456 3.456 0 011.518.3 2.141 2.141 0 01.957.885 2.817 2.817 0 01.328 1.4v.006a3.088 3.088 0 01-.219 1.1 4.708 4.708 0 01-.608 1.107l-2.878 3.911h3.76v1.333h-5.606zM306.377 11.72a2.288 2.288 0 01-.947-1.025 3.718 3.718 0 01-.324-1.624v-.007a5.545 5.545 0 01.13-1.162 6.7 6.7 0 01.375-1.2c.028-.068.057-.136.089-.2l.1-.194 2.16-4.28h1.5l-2.536 4.956.007-.246a1.2 1.2 0 01.5-.5 1.586 1.586 0 01.765-.178 2.444 2.444 0 011.327.349 2.179 2.179 0 01.84 1.015 4.032 4.032 0 01.288 1.6v.007a3.791 3.791 0 01-.326 1.641 2.289 2.289 0 01-.949 1.039 3.355 3.355 0 01-3 0zm2.52-1.4a1.726 1.726 0 00.358-1.169v-.005a1.966 1.966 0 00-.376-1.288 1.314 1.314 0 00-1.073-.455 1.132 1.132 0 00-.964.458 2.126 2.126 0 00-.342 1.292v.007a1.7 1.7 0 00.36 1.166 1.475 1.475 0 002.037 0zM314.9 11.97h-1.4V3.548l-1.415.868V2.974l1.415-.944h1.4zM317.871 11.327a2.865 2.865 0 01-.72-2.078V4.73a2.853 2.853 0 01.724-2.081 3.389 3.389 0 014.229 0 2.86 2.86 0 01.72 2.084v4.516a2.856 2.856 0 01-.724 2.082 3.38 3.38 0 01-4.229 0zm3.207-.967a1.591 1.591 0 00.352-1.111V4.73a1.6 1.6 0 00-.349-1.11 1.738 1.738 0 00-2.187 0 1.6 1.6 0 00-.349 1.11v4.519a1.591 1.591 0 00.352 1.111 1.733 1.733 0 002.181 0z"/><path class="cls-7" d="M361.29 15.441l-1.461-1.461" id="LINE-168" data-name="LINE"/><path class="cls-7" d="M359.829 16.902l1.461-1.461" id="LINE-169" data-name="LINE"/><path class="cls-7" d="M259.977 15.339l1.461 1.461" id="LINE-170" data-name="LINE"/><path class="cls-7" d="M261.438 13.878l-1.461 1.461" id="LINE-171" data-name="LINE"/><path class="cls-7" d="M378.364 179.858H361.29" id="LINE-172" data-name="LINE"/><path class="cls-7" d="M378.408 24.647h-17.073" id="LINE-173" data-name="LINE"/><path class="cls-7" d="M378.436 24.647l-.117 155.112" id="LINE-174" data-name="LINE"/><path d="M387.608 116.638l-7.2-3.336v-1.436l7.118 3.254v-4.874h1.291v6.392zm-3.112-4.286v-1.361h5.852v1.361zM389.7 107.816a2.862 2.862 0 01-2.078.721H383.1a2.853 2.853 0 01-2.081-.724 3.389 3.389 0 010-4.229 2.859 2.859 0 012.084-.721h4.519a2.849 2.849 0 012.081.725 3.377 3.377 0 010 4.228zm-.967-3.207a1.6 1.6 0 00-1.111-.351H383.1a1.6 1.6 0 00-1.111.348 1.747 1.747 0 000 2.188 1.605 1.605 0 001.111.349h4.519a1.6 1.6 0 001.111-.352 1.738 1.738 0 000-2.182zM390.444 99.145l-.3.635a2.508 2.508 0 01-.882 1.023 3.182 3.182 0 01-1.391.488v-1.422a1.513 1.513 0 00.7-.266 1.247 1.247 0 00.406-.531 1.987 1.987 0 00.133-.761 1.485 1.485 0 00-.369-1.074 1.378 1.378 0 00-1.04-.383h-.3a1.679 1.679 0 00-1.152.363 1.3 1.3 0 00-.407 1.025v.7h-1.332v-.7a1.161 1.161 0 00-.348-.9 1.4 1.4 0 00-.984-.321h-.309a1.19 1.19 0 00-.908.338 1.335 1.335 0 00-.322.96 1.456 1.456 0 00.134.636 1.2 1.2 0 00.41.475 1.862 1.862 0 00.694.284v1.415a3.615 3.615 0 01-1.394-.516 2.528 2.528 0 01-.883-.961 2.865 2.865 0 01-.3-1.333 2.758 2.758 0 01.678-1.989 2.516 2.516 0 011.906-.7h.164a2.152 2.152 0 011.3.4 2.278 2.278 0 01.807 1.142 2.023 2.023 0 01.8-1.261 2.645 2.645 0 011.586-.448h.164a3.054 3.054 0 011.483.335 2.22 2.22 0 01.937.975 3.4 3.4 0 01.321 1.541zM390.151 92.038a2.417 2.417 0 01-.856.951 3.4 3.4 0 01-1.346.489h-.007v-1.395h.007a1.292 1.292 0 00.851-.437 1.423 1.423 0 00.3-.944 1.259 1.259 0 00-.448-1.035 1.939 1.939 0 00-1.252-.367h-.834a1.932 1.932 0 00-1.254.366 1.258 1.258 0 00-.447 1.035 1.314 1.314 0 00.2.7 1.941 1.941 0 00.574.588v1.272H380.4v-5.068h1.326v3.671h2.234a1.992 1.992 0 01-.328-.581 1.921 1.921 0 01-.115-.656 2.891 2.891 0 01.355-1.474 2.277 2.277 0 011.039-.929 3.892 3.892 0 011.647-.318h.834a3.8 3.8 0 011.648.328 2.329 2.329 0 011.042.957 3 3 0 01.359 1.511 2.944 2.944 0 01-.29 1.336z"/><path class="cls-7" d="M378.346 179.858l1.462-1.461" id="LINE-175" data-name="LINE"/><path class="cls-7" d="M376.885 178.397l1.461 1.461" id="LINE-176" data-name="LINE"/><path class="cls-7" d="M378.448 24.647l-1.461 1.461" id="LINE-177" data-name="LINE"/><path class="cls-7" d="M379.909 26.108l-1.461-1.461" id="LINE-178" data-name="LINE"/><path class="cls-7" d="M378.364 239.371H361.29" id="LINE-179" data-name="LINE"/><path class="cls-7" d="M378.408 179.858h-17.073" id="LINE-180" data-name="LINE"/><path class="cls-7" d="M378.4 179.858l-.045 59.513" id="LINE-181" data-name="LINE"/><path d="M390.342 219.73v1.4h-8.422l.868 1.415h-1.442l-.943-1.415v-1.4zM390.151 216.035a2.422 2.422 0 01-.855.951 3.411 3.411 0 01-1.347.489h-.006v-1.395h.006a1.292 1.292 0 00.851-.437 1.418 1.418 0 00.305-.944 1.259 1.259 0 00-.449-1.035 1.936 1.936 0 00-1.26-.366h-.834a1.933 1.933 0 00-1.255.366 1.261 1.261 0 00-.447 1.035 1.314 1.314 0 00.2.7 1.941 1.941 0 00.574.588v1.272H380.4v-5.069h1.326v3.671h2.235a1.947 1.947 0 01-.328-.581 1.9 1.9 0 01-.116-.656 2.891 2.891 0 01.355-1.474 2.277 2.277 0 011.039-.929 3.9 3.9 0 011.648-.318h.834a3.791 3.791 0 011.647.328 2.334 2.334 0 011.042.957 3 3 0 01.359 1.511 2.944 2.944 0 01-.29 1.336zM385.406 206.332l.247.007a1.027 1.027 0 01.46.515 2.064 2.064 0 01.148.818 2.2 2.2 0 01-.362 1.251 2.377 2.377 0 01-1.023.838 3.7 3.7 0 01-1.527.3h-.007a3.823 3.823 0 01-1.648-.325 2.283 2.283 0 01-1.039-.951 2.986 2.986 0 01-.355-1.5 2.922 2.922 0 01.362-1.5 2.318 2.318 0 011.053-.946 3.869 3.869 0 011.661-.325h.007a5.248 5.248 0 011.138.136 6.993 6.993 0 011.2.39l.181.082c.062.027.122.057.181.089l4.259 2.119v1.5zm-.861-.065a1.947 1.947 0 00-1.251-.359h-.007a1.853 1.853 0 00-1.217.359 1.421 1.421 0 000 2.037 1.859 1.859 0 001.224.359h.007a1.924 1.924 0 001.247-.359 1.393 1.393 0 000-2.037zM390.151 201.229a2.429 2.429 0 01-.855.951 3.41 3.41 0 01-1.347.488h-.006v-1.4h.006a1.287 1.287 0 00.851-.437 1.416 1.416 0 00.305-.943 1.261 1.261 0 00-.449-1.036 1.936 1.936 0 00-1.26-.366h-.834a1.933 1.933 0 00-1.255.366 1.263 1.263 0 00-.447 1.036 1.316 1.316 0 00.2.7 1.953 1.953 0 00.574.588v1.271H380.4v-5.065h1.326v3.671h2.235a1.947 1.947 0 01-.328-.581 1.9 1.9 0 01-.116-.657 2.885 2.885 0 01.355-1.473 2.279 2.279 0 011.039-.93 3.9 3.9 0 011.648-.317h.834a3.777 3.777 0 011.647.328 2.329 2.329 0 011.042.957 3 3 0 01.359 1.511 2.944 2.944 0 01-.29 1.338z"/><path class="cls-7" d="M378.346 239.371l1.462-1.462" id="LINE-182" data-name="LINE"/><path class="cls-7" d="M376.885 237.909l1.461 1.462" id="LINE-183" data-name="LINE"/><path class="cls-7" d="M378.448 179.858l-1.461 1.461" id="LINE-184" data-name="LINE"/><path class="cls-7" d="M379.909 181.319l-1.461-1.461" id="LINE-185" data-name="LINE"/><path class="cls-7" d="M378.364 351.218H361.29" id="LINE-186" data-name="LINE"/><path class="cls-7" d="M378.408 322.501h-17.073" id="LINE-187" data-name="LINE"/><path class="cls-7" d="M378.388 322.501l-.021 28.717" id="LINE-188" data-name="LINE"/><path d="M381.647 341.627l8.695 2.57v1.484l-8.613-2.571v2.53h1.428v1.394H380.4v-5.407zM385.406 336.192l.247.007a1.025 1.025 0 01.46.516 2.059 2.059 0 01.148.817 2.2 2.2 0 01-.362 1.251 2.37 2.37 0 01-1.023.838 3.7 3.7 0 01-1.527.3h-.007a3.823 3.823 0 01-1.648-.324 2.288 2.288 0 01-1.039-.951 2.986 2.986 0 01-.355-1.5 2.922 2.922 0 01.362-1.5 2.315 2.315 0 011.053-.947 3.869 3.869 0 011.661-.325h.007a5.191 5.191 0 011.138.137 6.988 6.988 0 011.2.389c.058.028.119.055.181.082s.122.057.181.089l4.259 2.119v1.5zm-.861-.065a1.953 1.953 0 00-1.251-.358h-.007a1.859 1.859 0 00-1.217.358 1.421 1.421 0 000 2.037 1.859 1.859 0 001.224.359h.007a1.924 1.924 0 001.247-.359 1.393 1.393 0 000-2.037zM390.151 331.089a2.429 2.429 0 01-.855.951 3.41 3.41 0 01-1.347.488h-.006v-1.394h.006a1.288 1.288 0 00.851-.438 1.414 1.414 0 00.305-.943 1.259 1.259 0 00-.449-1.035 1.936 1.936 0 00-1.26-.366h-.834a1.933 1.933 0 00-1.255.366 1.261 1.261 0 00-.447 1.035 1.314 1.314 0 00.2.7 1.941 1.941 0 00.574.588v1.272H380.4v-5.066h1.326v3.671h2.235a1.947 1.947 0 01-.328-.581 1.9 1.9 0 01-.116-.656 2.888 2.888 0 01.355-1.474 2.279 2.279 0 011.039-.93 3.9 3.9 0 011.648-.317h.834a3.777 3.777 0 011.647.328 2.329 2.329 0 011.042.957 3 3 0 01.359 1.511 2.944 2.944 0 01-.29 1.333z"/><path class="cls-7" d="M378.346 351.218l1.462-1.462" id="LINE-189" data-name="LINE"/><path class="cls-7" d="M376.885 349.756l1.461 1.462" id="LINE-190" data-name="LINE"/><path class="cls-7" d="M378.448 322.501l-1.461 1.461" id="LINE-191" data-name="LINE"/><path class="cls-7" d="M379.909 323.962l-1.461-1.461" id="LINE-192" data-name="LINE"/><path class="cls-7" d="M378.364 322.501H361.29" id="LINE-193" data-name="LINE"/><path class="cls-7" d="M378.408 239.371h-17.073" id="LINE-194" data-name="LINE"/><path class="cls-7" d="M378.409 239.371l-.063 83.13" id="LINE-195" data-name="LINE"/><path d="M389.132 293.459l-4.621-3.466a3.479 3.479 0 00-.824-.468 2.181 2.181 0 00-.8-.168h-.014a1.209 1.209 0 00-.923.349 1.394 1.394 0 00-.328.991 1.365 1.365 0 00.359.985 1.631 1.631 0 001.015.458h.007v1.442H383a3.731 3.731 0 01-1.46-.5 2.566 2.566 0 01-.923-.981 2.929 2.929 0 01-.317-1.388 3.47 3.47 0 01.3-1.518 2.141 2.141 0 01.885-.957 2.817 2.817 0 011.4-.328h.007a3.087 3.087 0 011.1.219 4.734 4.734 0 011.108.608l3.91 2.878v-3.759h1.326v5.605zM390.342 283.677v1.394h-8.422l.868 1.415h-1.442l-.943-1.415v-1.394zM390.092 280.354a2.279 2.279 0 01-1.025.948 3.719 3.719 0 01-1.623.324h-.007a5.537 5.537 0 01-1.162-.13 6.745 6.745 0 01-1.2-.376c-.068-.027-.135-.057-.2-.089s-.131-.063-.194-.1l-4.279-2.161v-1.5l4.956 2.537-.247-.007a1.2 1.2 0 01-.5-.5 1.578 1.578 0 01-.177-.766 2.44 2.44 0 01.348-1.326 2.187 2.187 0 011.015-.841 4.049 4.049 0 011.6-.287h.006a3.791 3.791 0 011.641.325 2.3 2.3 0 011.039.949 3.355 3.355 0 010 3zm-1.4-2.519a1.725 1.725 0 00-1.168-.358h-.007a1.967 1.967 0 00-1.289.376 1.313 1.313 0 00-.454 1.073 1.131 1.131 0 00.458.964 2.127 2.127 0 001.292.341h.006a1.7 1.7 0 001.165-.359 1.471 1.471 0 000-2.037zM389.7 273.516a2.866 2.866 0 01-2.078.72H383.1a2.843 2.843 0 110-5.673h4.518a2.852 2.852 0 012.081.724 3.379 3.379 0 010 4.229zm-.967-3.207a1.591 1.591 0 00-1.111-.352H383.1a1.6 1.6 0 00-1.112.349 1.745 1.745 0 000 2.187 1.6 1.6 0 001.112.349h4.518a1.591 1.591 0 001.111-.352 1.733 1.733 0 000-2.181z"/><path class="cls-7" d="M378.346 322.519l1.462-1.461" id="LINE-196" data-name="LINE"/><path class="cls-7" d="M376.885 321.058l1.461 1.461" id="LINE-197" data-name="LINE"/><path class="cls-7" d="M378.448 239.371l-1.461 1.462" id="LINE-198" data-name="LINE"/><path class="cls-7" d="M379.909 240.833l-1.461-1.462" id="LINE-199" data-name="LINE"/><path class="cls-7" d="M214.655 15.423v17.074" id="LINE-200" data-name="LINE"/><path class="cls-7" d="M148.529 15.379v17.074" id="LINE-201" data-name="LINE"/><path class="cls-7" d="M148.529 15.385l66.126.05" id="LINE-202" data-name="LINE"/><path d="M172.976 11.97h-1.4V3.548l-1.415.868V2.974l1.415-.944h1.4zM180.365 3.274l-2.57 8.7h-1.483l2.57-8.614h-2.529v1.425h-1.4V2.03h5.407zM184.679 11.97h-1.4V3.548l-1.415.868V2.974l1.415-.944h1.4zM187.655 11.327a2.865 2.865 0 01-.72-2.078V4.73a2.853 2.853 0 01.724-2.081 3.389 3.389 0 014.229 0 2.861 2.861 0 01.721 2.084v4.516a2.856 2.856 0 01-.725 2.082 3.38 3.38 0 01-4.229 0zm3.207-.967a1.591 1.591 0 00.352-1.111V4.73a1.6 1.6 0 00-.349-1.11 1.738 1.738 0 00-2.187 0 1.6 1.6 0 00-.349 1.11v4.519a1.591 1.591 0 00.352 1.111 1.733 1.733 0 002.181 0z"/><path class="cls-7" d="M214.7 15.441l-1.462-1.461" id="LINE-203" data-name="LINE"/><path class="cls-7" d="M213.238 16.902l1.462-1.461" id="LINE-204" data-name="LINE"/><path class="cls-7" d="M148.529 15.339l1.462 1.461" id="LINE-205" data-name="LINE"/><path class="cls-7" d="M149.991 13.878l-1.462 1.461" id="LINE-206" data-name="LINE"/><path class="cls-7" d="M148.529 15.423v17.074" id="LINE-207" data-name="LINE"/><path class="cls-7" d="M103.208 15.379v17.074" id="LINE-208" data-name="LINE"/><path class="cls-7" d="M103.208 15.393l45.321.034" id="LINE-209" data-name="LINE"/><path d="M115.88 11.97h-1.395V3.548l-1.415.868V2.974l1.415-.944h1.395zM117.985 10.76l3.466-4.621a3.46 3.46 0 00.468-.824 2.185 2.185 0 00.168-.8v-.01a1.208 1.208 0 00-.349-.923 1.389 1.389 0 00-.991-.328 1.369 1.369 0 00-.985.359 1.629 1.629 0 00-.458 1.015v.007h-1.442v-.007a3.731 3.731 0 01.5-1.46 2.563 2.563 0 01.981-.922 2.93 2.93 0 011.388-.318 3.456 3.456 0 011.518.3 2.141 2.141 0 01.957.885 2.817 2.817 0 01.328 1.4v.006a3.088 3.088 0 01-.219 1.1 4.708 4.708 0 01-.608 1.107l-2.878 3.911h3.759v1.333h-5.605zM124.821 9.235l3.336-7.2h1.435l-3.253 7.116h4.874v1.292h-6.392zm4.286-3.11h1.36v5.852h-1.36zM133.642 11.327a2.865 2.865 0 01-.72-2.078V4.73a2.853 2.853 0 01.724-2.081 3.389 3.389 0 014.229 0 2.86 2.86 0 01.72 2.084v4.516a2.856 2.856 0 01-.724 2.082 3.38 3.38 0 01-4.229 0zm3.207-.967a1.591 1.591 0 00.352-1.111V4.73a1.6 1.6 0 00-.349-1.11 1.738 1.738 0 00-2.187 0 1.6 1.6 0 00-.349 1.11v4.519a1.591 1.591 0 00.352 1.111 1.733 1.733 0 002.181 0z"/><path class="cls-7" d="M148.529 15.441l-1.461-1.461" id="LINE-210" data-name="LINE"/><path class="cls-7" d="M147.068 16.902l1.461-1.461" id="LINE-211" data-name="LINE"/><path class="cls-7" d="M103.208 15.339l1.461 1.461" id="LINE-212" data-name="LINE"/><path class="cls-7" d="M104.669 13.878l-1.461 1.461" id="LINE-213" data-name="LINE"/><path class="cls-7" d="M259.977 15.423v17.074" id="LINE-214" data-name="LINE"/><path class="cls-7" d="M214.655 15.379v17.074" id="LINE-215" data-name="LINE"/><path class="cls-7" d="M214.655 15.393l45.322.034" id="LINE-216" data-name="LINE"/><path d="M227.487 11.97h-1.395V3.548l-1.415.868V2.974l1.415-.944h1.395zM229.592 10.76l3.466-4.621a3.426 3.426 0 00.468-.824 2.185 2.185 0 00.168-.8v-.01a1.2 1.2 0 00-.349-.923 1.388 1.388 0 00-.991-.328 1.368 1.368 0 00-.984.359 1.623 1.623 0 00-.458 1.015v.007h-1.443v-.007a3.731 3.731 0 01.5-1.46 2.559 2.559 0 01.982-.922 2.923 2.923 0 011.387-.318 3.456 3.456 0 011.518.3 2.141 2.141 0 01.957.885 2.806 2.806 0 01.328 1.4v.006a3.088 3.088 0 01-.219 1.1 4.673 4.673 0 01-.608 1.107l-2.878 3.911h3.76v1.333h-5.606zM236.825 10.76l3.466-4.621a3.421 3.421 0 00.467-.824 2.165 2.165 0 00.168-.8v-.01a1.207 1.207 0 00-.348-.923 1.391 1.391 0 00-.991-.328 1.369 1.369 0 00-.985.359 1.629 1.629 0 00-.458 1.015v.007H236.7v-.007a3.731 3.731 0 01.5-1.46 2.563 2.563 0 01.981-.922 2.93 2.93 0 011.388-.318 3.448 3.448 0 011.517.3 2.144 2.144 0 01.958.885 2.817 2.817 0 01.328 1.4v.006a3.11 3.11 0 01-.219 1.1 4.745 4.745 0 01-.608 1.107l-2.878 3.911h3.759v1.333h-5.605zM244.928 11.327a2.865 2.865 0 01-.72-2.078V4.73a2.853 2.853 0 01.724-2.081 3.389 3.389 0 014.229 0 2.861 2.861 0 01.721 2.084v4.516a2.856 2.856 0 01-.725 2.082 3.38 3.38 0 01-4.229 0zm3.207-.967a1.591 1.591 0 00.352-1.111V4.73a1.6 1.6 0 00-.349-1.11 1.738 1.738 0 00-2.187 0 1.6 1.6 0 00-.349 1.11v4.519a1.591 1.591 0 00.352 1.111 1.733 1.733 0 002.181 0z"/><path class="cls-7" d="M259.977 15.441l-1.461-1.461" id="LINE-217" data-name="LINE"/><path class="cls-7" d="M258.516 16.902l1.461-1.461" id="LINE-218" data-name="LINE"/><path class="cls-7" d="M214.655 15.339l1.462 1.461" id="LINE-219" data-name="LINE"/><path class="cls-7" d="M216.117 13.878l-1.462 1.461" id="LINE-220" data-name="LINE"/><path class="cls-7" d="M416.149 227.106l.08 105.802" id="LINE-221" data-name="LINE"/><path d="M426.7 294.866l-4.621-3.466a3.421 3.421 0 00-.824-.467 2.16 2.16 0 00-.8-.168h-.013a1.205 1.205 0 00-.923.348 1.391 1.391 0 00-.328.991 1.369 1.369 0 00.358.985 1.631 1.631 0 001.016.458h.006v1.442h-.006a3.72 3.72 0 01-1.46-.5 2.559 2.559 0 01-.923-.981 2.927 2.927 0 01-.318-1.388 3.466 3.466 0 01.3-1.517 2.133 2.133 0 01.886-.957 2.8 2.8 0 011.4-.329h.007a3.11 3.11 0 011.1.219 4.733 4.733 0 011.107.609l3.91 2.878v-3.76h1.326v5.6zM427.667 286.157a2.5 2.5 0 01-.968 1.057 2.786 2.786 0 01-1.452.372h-.164a2.793 2.793 0 01-1.4-.372 2.483 2.483 0 01-.991-1 2.186 2.186 0 01-.831.844 2.247 2.247 0 01-1.145.318h-.239a2.642 2.642 0 01-1.371-.349 2.356 2.356 0 01-.916-.984 3.516 3.516 0 010-2.953 2.364 2.364 0 01.916-.985 2.651 2.651 0 011.371-.348h.239a2.2 2.2 0 011.155.325 2.172 2.172 0 01.821.857 2.558 2.558 0 01.994-1.007 2.726 2.726 0 011.4-.38h.164a2.786 2.786 0 011.452.372 2.5 2.5 0 01.968 1.056 3.848 3.848 0 010 3.172zM422 283.833a1.251 1.251 0 00-.515-.5 1.635 1.635 0 00-.773-.178h-.1a1.5 1.5 0 00-.738.178 1.222 1.222 0 00-.5.5 1.654 1.654 0 000 1.477 1.235 1.235 0 00.5.5 1.517 1.517 0 00.745.177h.1a1.593 1.593 0 00.762-.177 1.262 1.262 0 00.512-.5 1.589 1.589 0 000-1.477zm4.482-.116a1.384 1.384 0 00-.537-.571 1.554 1.554 0 00-.8-.2h-.1a1.571 1.571 0 00-.8.2 1.382 1.382 0 00-.536.571 2.007 2.007 0 000 1.709 1.378 1.378 0 00.54.571 1.587 1.587 0 00.807.2h.1a1.535 1.535 0 00.793-.2 1.368 1.368 0 00.53-.571 2.021 2.021 0 000-1.709zM427.264 278.888a2.868 2.868 0 01-2.078.72h-4.519a2.856 2.856 0 01-2.082-.724 3.393 3.393 0 010-4.229 2.861 2.861 0 012.085-.72h4.519a2.853 2.853 0 012.081.724 3.379 3.379 0 010 4.229zm-.968-3.207a1.59 1.59 0 00-1.11-.352h-4.519a1.6 1.6 0 00-1.111.349 1.742 1.742 0 000 2.187 1.6 1.6 0 001.111.349h4.519a1.59 1.59 0 001.11-.352 1.73 1.73 0 000-2.181zM427.264 271.163a2.864 2.864 0 01-2.078.721h-4.519a2.852 2.852 0 01-2.082-.725 3.391 3.391 0 010-4.228 2.858 2.858 0 012.085-.721h4.519a2.849 2.849 0 012.081.725 3.377 3.377 0 010 4.228zm-.968-3.207a1.6 1.6 0 00-1.11-.352h-4.519a1.607 1.607 0 00-1.111.349 1.743 1.743 0 000 2.188 1.607 1.607 0 001.111.348h4.519a1.6 1.6 0 001.11-.351 1.731 1.731 0 000-2.182z"/><path class="cls-7" d="M416.22 332.908l-1.461-1.462" id="LINE-222" data-name="LINE"/><path class="cls-7" d="M417.681 331.446l-1.461 1.462" id="LINE-223" data-name="LINE"/><path class="cls-7" d="M416.118 227.13l1.461 1.461" id="LINE-224" data-name="LINE"/><path class="cls-7" d="M414.657 228.591l1.461-1.461" id="LINE-225" data-name="LINE"/><path class="cls-7" d="M406.632 227.106h9.449M406.632 332.907h9.665"/><path class="cls-7" d="M406.646 353.776v-26.864" id="LINE-226" data-name="LINE"/><path class="cls-7" d="M361.29 354.376v-26.865" id="LINE-227" data-name="LINE"/><path class="cls-7" d="M361.29 354.362l45.357-.034" id="LINE-228" data-name="LINE"/><path d="M373.724 366.4h-1.395v-8.42l-1.415.869v-1.443l1.415-.943h1.395zM375.829 365.192l3.466-4.621a3.42 3.42 0 00.468-.823 2.19 2.19 0 00.168-.8v-.013a1.2 1.2 0 00-.349-.923 1.388 1.388 0 00-.991-.328 1.368 1.368 0 00-.984.359 1.623 1.623 0 00-.458 1.015v.006h-1.443v-.006a3.721 3.721 0 01.5-1.459 2.554 2.554 0 01.982-.923 2.923 2.923 0 011.387-.319 3.456 3.456 0 011.518.305 2.136 2.136 0 01.957.885 2.805 2.805 0 01.328 1.4v.007a3.084 3.084 0 01-.219 1.1 4.692 4.692 0 01-.608 1.107l-2.878 3.91h3.76v1.329h-5.606zM383.933 365.76a2.862 2.862 0 01-.721-2.078v-4.519a2.849 2.849 0 01.725-2.081 3.39 3.39 0 014.228 0 2.859 2.859 0 01.721 2.085v4.519a2.852 2.852 0 01-.725 2.082 3.379 3.379 0 01-4.228 0zm3.207-.967a1.6 1.6 0 00.351-1.111v-4.519a1.6 1.6 0 00-.348-1.11 1.74 1.74 0 00-2.188 0 1.6 1.6 0 00-.348 1.11v4.519a1.6 1.6 0 00.351 1.111 1.735 1.735 0 002.182 0zM391.657 365.76a2.866 2.866 0 01-.72-2.078v-4.519a2.853 2.853 0 01.724-2.081 3.391 3.391 0 014.229 0 2.863 2.863 0 01.721 2.085v4.519a2.856 2.856 0 01-.725 2.082 3.38 3.38 0 01-4.229 0zm3.207-.967a1.593 1.593 0 00.352-1.111v-4.519a1.6 1.6 0 00-.349-1.11 1.738 1.738 0 00-2.187 0 1.6 1.6 0 00-.349 1.11v4.519a1.593 1.593 0 00.352 1.111 1.733 1.733 0 002.181 0z"/><path class="cls-7" d="M406.735 354.314l-1.461 1.461" id="LINE-229" data-name="LINE"/><path class="cls-7" d="M405.274 352.853l1.461 1.461" id="LINE-230" data-name="LINE"/><path class="cls-7" d="M361.288 354.416l1.461-1.462" id="LINE-231" data-name="LINE"/><path class="cls-7" d="M362.749 355.877l-1.461-1.461" id="LINE-232" data-name="LINE"/></g></svg>