<svg xmlns="http://www.w3.org/2000/svg" width="537.653" height="394.023" viewBox="0 0 403.238 295.518"><defs><pattern id="Новый_узор_3" data-name="Новый узор 3" width="35.15" height="35.15" patternTransform="translate(-7.256 -21.209)" patternUnits="userSpaceOnUse"><path class="cls-1" d="M0 0h35.15v35.15H0z"/><path class="cls-2" d="M35.149 35.15h35.15V70.3h-35.15z"/><path class="cls-2" d="M0 35.15h35.15V70.3H0zM-35.15 35.15H0V70.3h-35.15z"/><path class="cls-2" d="M35.149.001h35.15v35.15h-35.15z"/><path class="cls-2" d="M0 .001h35.15v35.15H0zM-35.15.001H0v35.15h-35.15zM35.149-35.149h35.15V.001h-35.15z"/><path class="cls-2" d="M0-35.149h35.15V.001H0zM-35.15-35.149H0V.001h-35.15z"/></pattern><pattern id="Новый_узор_4" data-name="Новый узор 4" width="9.822" height="9.822" patternTransform="translate(-4.109 -8.736)" patternUnits="userSpaceOnUse"><path class="cls-1" d="M0 0h9.822v9.822H0z"/><path class="cls-3" d="M14.733 19.647L9.82 14.735l4.913-4.913 4.912 4.913-4.912 4.912z"/><path class="cls-3" d="M4.911 19.647l-4.913-4.912 4.913-4.913 4.912 4.913-4.912 4.912z"/><path class="cls-3" d="M-4.912 19.647l-4.912-4.912 4.912-4.913 4.913 4.913-4.913 4.912zM14.733 9.825L9.82 4.912 14.733 0l4.912 4.912-4.912 4.913z"/><path class="cls-3" d="M4.911 9.825L-.002 4.912 4.911 0l4.912 4.912-4.912 4.913z"/><path class="cls-3" d="M-4.912 9.825l-4.912-4.913L-4.912 0 .001 4.912l-4.913 4.913zM14.733.003L9.82-4.91l4.913-4.912 4.912 4.912L14.733.003z"/><path class="cls-3" d="M4.911.003L-.002-4.91l4.913-4.912L9.823-4.91 4.911.003z"/><path class="cls-3" d="M-4.912.003L-9.824-4.91l4.912-4.912L.001-4.91-4.912.003z"/></pattern><style>.cls-1,.cls-11,.cls-2,.cls-3,.cls-7,.cls-9{fill:none}.cls-2{stroke:#ededed}.cls-2,.cls-3,.cls-7,.cls-9{stroke-linecap:round;stroke-linejoin:round;stroke-width:.4px}.cls-3{stroke:#e6e6e6}.cls-3,.cls-4,.cls-8,.cls-9{fill-rule:evenodd}.cls-4{fill:#fff}.cls-7,.cls-9{stroke:#000}.cls-11{stroke:gray;stroke-width:.6px;stroke-miterlimit:22.926}</style></defs><g id="_257" data-name="257"><path class="cls-4" d="M381.012 244.631l-15.061-33.869V.284H77.075v160.361H31.731v105.8h45.344v27.176h288.876v-46.033c9.649-.264 15.061-2.957 15.061-2.957z" id="fon"/><path stroke="#dcdcdc" fill="url(#Новый_узор_3)" fill-rule="evenodd" stroke-linecap="round" stroke-linejoin="round" stroke-width=".4" d="M77.075.284v160.361H31.731v105.802h45.344v27.176h288.876V.284H77.075z" id="grid"/><path id="wet_zones" data-name="wet zones" fill="url(#Новый_узор_4)" fill-rule="evenodd" d="M356.882 58.041v-30.04h-22.671V11.168h-44.966v120.178h67.637v-30.04h-9.08V58.041h9.08z"/><g id="walls"><path class="cls-7" d="M381.513 244.415a43.254 43.254 0 01-15.561 3.2"/><path class="cls-8" d="M381.61 244.373l-15.658-36.208h-1.512v.453l15.783 36.354 1.387-.599z"/><path class="cls-9" d="M248.672 118.783a35.473 35.473 0 00-2.579 12.562"/><path class="cls-8" d="M248.713 118.687l-.6 1.387 29.418 12.782h.454v-1.511l-29.272-12.658z"/><path class="cls-9" d="M319.921 120.267a31.347 31.347 0 012.275 11.078"/><path class="cls-8" d="M319.875 120.171l-25.793 11.174v1.511h.454l25.949-11.282-.61-1.403z"/><path class="cls-7" d="M84.633 99.227h16.248M77.076 99.227h5.667M82.743 99.227h1.889M84.633 33.101h16.248M77.076 33.101h5.667M82.743 33.101h1.889M77.076 33.101v66.126M100.881 33.101v66.126M84.633 33.101v3.778M84.633 36.879h-1.889M82.743 36.879v-3.778M82.743 70.887v-1.89M82.743 68.998h1.889M84.633 68.998v1.889M83.688 36.879v32.118M84.633 36.879v32.118M82.743 68.998V36.879M84.633 70.887v.945M84.633 71.832h-.945M83.688 71.832v.944M83.688 72.776h-.944M82.743 72.776v-1.889M82.743 99.227v-3.779M82.743 95.448h.944M83.688 95.448v.945M83.688 96.393h.945M84.633 96.393v2.834M82.743 95.448V72.776M85.578 74.665v18.894M85.578 71.832v2.833M85.578 74.665h-1.891M83.688 74.665v-2.833M83.688 71.832h1.89M83.688 96.393v-2.834M83.688 93.559h1.89M85.578 93.559v2.834M85.578 96.393h-1.891M83.688 93.559V74.665M85.578 74.665v18.894M84.633 74.665v18.894M82.743 33.101h1.889M82.743 33.101h1.889M77.076 33.101h5.667M84.633 33.101h16.248M82.743 99.227h1.889M82.743 99.227h1.889M77.076 99.227h5.667M84.633 99.227h16.248M84.633 171.981h16.248M77.076 171.981h5.667M82.743 171.981h1.889M84.633 255.111h16.248M77.076 255.111h5.667M82.743 255.111h1.889M77.076 255.111v-83.13M100.881 255.111v-83.13M84.633 255.111v-3.779M84.633 251.332h-1.889M82.743 251.332v3.779M82.743 215.435v1.889M82.743 217.325h1.889M84.633 217.325v-1.889M83.688 251.332v-34.008M84.633 251.332v-34.008M82.743 217.325v34.007M84.633 215.435v-.945M84.633 214.491h-.945M83.688 214.491v-.944M83.688 213.546h-.944M82.743 213.546v1.889M82.743 171.981v3.779M82.743 175.76h.944M83.688 175.76v-.945M83.688 174.815h.945M84.633 174.815v-2.834M82.743 175.76v37.786M85.578 211.657v-34.008M85.578 214.491v-2.833M85.578 211.657h-1.891M83.688 211.657v2.833M83.688 214.491h1.89M83.688 174.815v2.834M83.688 177.649h1.89M85.578 177.649v-2.834M85.578 174.815h-1.891M83.688 177.649v34.008M85.578 211.657v-34.008M84.633 211.657v-34.008M82.743 255.111h1.889M82.743 255.111h1.889M77.076 255.111h5.667M84.633 255.111h16.248M82.743 171.981h1.889M82.743 171.981h1.889M77.076 171.981h5.667M84.633 171.981h16.248M85.77 174.799l28.055 28.055M113.825 202.854a39.673 39.673 0 01-28.055 11.621M84.826 251.317l28.999-25.272M113.825 226.045a39.673 39.673 0 00-28.055-11.621"/><path class="cls-9" d="M77.076 160.645H31.731m0 0v105.8m0 0h45.345m0 0v-105.8M32.487 265.691h44.589m0 0V161.4m0 0H32.487m0 0v104.29"/><path d="M77.075 255.112h23.8v27.568h91.506v10.958H77.075v-38.526zM365.951 1.361v206.805h-1.511v.453h-7.557V.324h9.069v1.037zm0 292.277h-9.068v-46.477h7.557v.454h1.511v46.023zM77.075.27q57.656 0 115.311.014v10.953L100.88 11.2v21.9h-23.8V.27zm0 98.958h23.8v72.754h-23.8z" stroke-miterlimit="3" stroke-width=".48" stroke="#000" fill-rule="evenodd"/></g><g id="wall_2" data-name="wall 2"><path class="cls-4" d="M344.035 293.638H192.386V282.68h164.5v10.958zM192.386.284q82.311.024 164.5.039v10.959h-19.653v13.7h19.649V28h-22.671V11.281l-44.966-.009v120.074h4.837v1.512h.453v1.511h-17v-1.511h.454v-1.512h8.237V11.271q-46.917-.012-93.836-.034V.284zm52.649 131.062H100.88v3.023h110.525v22.671h20.405v-22.671h14.736v-1.511h-.453v-1.512zm76.706 3.023h35.142v-3.023H322.2v1.512h-.454v1.511zm-92.954 19.65v-19.65h-14.359v19.65zm122.05-92.955h6.046v-3.023h-9.069v43.265h9.069v-3.023h-6.046z"/><path class="cls-11" d="M195.298.28l-2.91 2.57M202.718.28l-10.33 9.11M210.138.28l-12.44 10.96M217.558.29l-12.44 10.95M224.978.29l-12.44 10.96M232.398.29l-12.44 10.96M239.818.29l-12.44 10.96M247.238.3l-12.44 10.95M254.648.3l-12.43 10.96M105.888 131.35l-3.43 3.02M262.068.3l-12.43 10.96M113.308 131.35l-3.43 3.02M269.488.31l-12.43 10.95M120.728 131.35l-3.42 3.02M276.908.31l-12.43 10.95M128.158 131.35l-3.43 3.02M135.578 131.35l-3.43 3.02M284.338.31l-12.44 10.96M143.008 131.35l-3.43 3.02M291.758.31l-12.44 10.96M150.428 131.35l-3.43 3.02M299.178.31l-12.96 11.42M289.248 15.59l-3.03 2.67M157.838 131.35l-3.42 3.02M306.598.31l-12.44 10.96M289.248 22.13l-3.03 2.67M165.268 131.35l-3.43 3.02M314.018.31l-12.44 10.96M289.248 28.67l-3.03 2.67M172.688 131.35l-3.43 3.02M321.428.32l-12.43 10.95M289.248 35.21l-3.03 2.67M180.108 131.35l-3.42 3.02M328.858.32l-12.44 10.96M289.248 41.75l-3.03 2.67M187.538 131.35l-3.43 3.02M336.278.32l-12.44 10.96M289.248 48.29l-3.03 2.67M194.958 131.35l-3.42 3.02M343.708.32l-12.45 10.96M337.228 12.56l-3.02 2.66M202.378 131.35l-3.43 3.02M289.248 54.82l-3.03 2.67M351.118.32l-12.44 10.96M337.228 19.1l-3.02 2.66M209.798 131.35l-3.43 3.02M289.248 61.36l-3.03 2.67M356.878 1.79l-10.78 9.49M356.878 8.32l-3.36 2.96M289.248 67.9l-3.03 2.67M217.218 131.35l-5.81 5.12M337.968 24.98l-3.43 3.02M289.248 74.44l-3.03 2.67M214.428 140.35l-3.02 2.66M224.648 131.35l-3.43 3.02M345.398 24.98l-3.43 3.02M289.248 80.98l-3.03 2.67M214.428 146.89l-3.02 2.66M232.068 131.35l-3.43 3.02M352.818 24.98l-3.43 3.02M356.878 27.94l-.06.06M239.498 131.35l-3.43 3.02M214.428 153.43l-3.02 2.66M231.808 138.12l-3.02 2.66M289.248 87.52l-3.03 2.67M231.808 144.66l-3.02 2.66M221.178 154.02l-3.42 3.02M246.088 132.08l-2.6 2.29M289.248 94.06l-3.03 2.67M228.598 154.02l-3.43 3.02M231.808 151.19l-3.02 2.66M289.248 100.59l-3.03 2.67M289.248 107.13l-3.03 2.67M352.398 58.04l-4.58 4.04M289.248 113.67l-3.03 2.67M289.248 120.21l-3.03 2.67M356.878 60.63l-.48.43M350.838 65.95l-3.02 2.67M289.248 126.75l-3.03 2.67M350.838 72.49l-3.02 2.66M284.028 131.35l-3.43 3.02M350.838 79.04l-3.02 2.66M291.448 131.35l-3.42 3.02M350.838 85.57l-3.02 2.66M350.838 92.11l-3.02 2.66M351.248 98.28l-3.43 3.03M356.878 99.87l-1.64 1.44M328.558 131.35l-3.43 3.02M335.988 131.35l-3.43 3.02M343.398 131.35l-3.43 3.02M350.828 131.35l-3.43 3.02M356.878 132.56l-2.06 1.81M193.888 282.68l-1.5 1.32M201.308 282.68l-8.92 7.86M208.728 282.68l-12.44 10.96M216.158 282.68l-12.44 10.96M223.568 282.68l-12.44 10.96M230.988 282.68l-12.44 10.96M238.418 282.68l-12.44 10.96M245.838 282.68l-12.44 10.96M253.268 282.68l-12.45 10.96M260.688 282.68l-12.44 10.96M268.098 282.68l-12.44 10.96M275.528 282.68l-12.44 10.96M282.948 282.68l-12.44 10.96M290.378 282.68l-12.45 10.96M297.798 282.68l-12.44 10.96M305.218 282.68l-12.44 10.96M312.648 282.68l-12.44 10.96M320.058 282.68l-12.44 10.96M327.478 282.68l-12.44 10.96M334.908 282.68l-12.44 10.96M342.328 282.68l-12.44 10.96M349.758 282.68l-12.45 10.96M356.878 282.94l-12.14 10.7M356.878 289.48l-4.73 4.16"/><path d="M344.035 293.638H192.386V282.68h164.5v10.958zM192.386.284q82.311.024 164.5.039v10.959h-19.653v13.7h19.649V28h-22.671V11.281l-44.966-.009v120.074h4.837v1.512h.453v1.511h-17v-1.511h.454v-1.512h8.237V11.271q-46.917-.012-93.836-.034V.284zm52.649 131.062H100.88v3.023h110.525v22.671h20.405v-22.671h14.736v-1.511h-.453v-1.512zm76.706 3.023h35.142v-3.023H322.2v1.512h-.454v1.511zm-92.954 19.65v-19.65h-14.359v19.65zm122.05-92.955v37.219h6.046v3.023h-9.069V58.041h9.069v3.023z" stroke-width=".567" stroke-miterlimit="22.926" stroke="#000" fill-rule="evenodd" fill="none"/></g></g><g id="sizes"><path class="cls-7" d="M15.423 266.412h17.074" id="LINE"/><path class="cls-7" d="M15.379 160.577h17.074" id="LINE-2" data-name="LINE"/><path class="cls-7" d="M15.385 160.577l.05 105.835" id="LINE-3" data-name="LINE"/><path d="M10.76 227.559l-4.621-3.466a3.466 3.466 0 00-.825-.468 2.176 2.176 0 00-.795-.168h-.014a1.208 1.208 0 00-.923.349 1.388 1.388 0 00-.328.991 1.37 1.37 0 00.358.985 1.634 1.634 0 001.016.458h.007v1.442h-.007a3.726 3.726 0 01-1.46-.5 2.566 2.566 0 01-.923-.981 2.929 2.929 0 01-.317-1.388 3.47 3.47 0 01.3-1.518 2.143 2.143 0 01.886-.957 2.806 2.806 0 011.4-.328h.006a3.088 3.088 0 011.1.219 4.673 4.673 0 011.107.608l3.911 2.878v-3.76h1.332v5.606zM3.274 215.042l8.7 2.571v1.487l-8.614-2.57v2.529h1.425v1.395H2.03v-5.408zM11.73 211.8a2.5 2.5 0 01-.967 1.057 2.789 2.789 0 01-1.452.372h-.165a2.8 2.8 0 01-1.4-.372 2.5 2.5 0 01-.991-1 2.186 2.186 0 01-.831.844 2.242 2.242 0 01-1.145.318h-.24a2.657 2.657 0 01-1.371-.349 2.362 2.362 0 01-.916-.984 3.526 3.526 0 010-2.953 2.371 2.371 0 01.916-.985 2.657 2.657 0 011.371-.348h.239a2.205 2.205 0 011.156.325 2.176 2.176 0 01.82.857 2.567 2.567 0 01.994-1.008 2.728 2.728 0 011.4-.38h.165a2.78 2.78 0 011.452.373 2.5 2.5 0 01.967 1.056 3.848 3.848 0 010 3.172zm-5.67-2.324a1.254 1.254 0 00-.516-.5 1.632 1.632 0 00-.773-.178h-.095a1.5 1.5 0 00-.738.178 1.231 1.231 0 00-.5.5 1.661 1.661 0 000 1.476 1.231 1.231 0 00.5.5 1.5 1.5 0 00.745.178h.1a1.582 1.582 0 00.762-.178 1.252 1.252 0 00.513-.5 1.6 1.6 0 000-1.476zm4.481-.116a1.393 1.393 0 00-.541-.57 1.561 1.561 0 00-.8-.2h-.1a1.577 1.577 0 00-.8.2 1.386 1.386 0 00-.537.572 2.007 2.007 0 000 1.709 1.374 1.374 0 00.541.571 1.581 1.581 0 00.806.2h.1a1.54 1.54 0 00.793-.2 1.372 1.372 0 00.529-.571 2.021 2.021 0 000-1.709zM11.327 204.533a2.866 2.866 0 01-2.078.72H4.73a2.857 2.857 0 01-2.082-.724 3.391 3.391 0 010-4.229 2.859 2.859 0 012.084-.721h4.517a2.852 2.852 0 012.081.725 3.379 3.379 0 010 4.229zm-.968-3.208a1.593 1.593 0 00-1.11-.351H4.73a1.6 1.6 0 00-1.111.349 1.742 1.742 0 000 2.187 1.607 1.607 0 001.111.349h4.519a1.589 1.589 0 001.11-.352 1.731 1.731 0 000-2.182z"/><path class="cls-7" d="M15.441 266.412l-1.461-1.461" id="LINE-4" data-name="LINE"/><path class="cls-7" d="M16.902 264.951l-1.461 1.461" id="LINE-5" data-name="LINE"/><path class="cls-7" d="M15.339 160.577l1.461 1.461" id="LINE-6" data-name="LINE"/><path class="cls-7" d="M13.878 162.038l1.461-1.461" id="LINE-7" data-name="LINE"/><path class="cls-7" d="M31.745 280.006v-13.719" id="LINE-8" data-name="LINE"/><path class="cls-7" d="M76.963 280.025l-45.218-.034" id="LINE-9" data-name="LINE"/><path d="M44.11 292.073h-1.394v-8.422l-1.415.868v-1.443l1.415-.943h1.394zM46.216 290.863l3.466-4.621a3.446 3.446 0 00.467-.825 2.16 2.16 0 00.168-.8v-.013a1.207 1.207 0 00-.348-.923 1.391 1.391 0 00-.991-.328 1.369 1.369 0 00-.985.358 1.631 1.631 0 00-.458 1.016v.007h-1.442v-.007a3.72 3.72 0 01.5-1.46 2.559 2.559 0 01.981-.923 2.926 2.926 0 011.388-.317 3.463 3.463 0 011.517.3 2.133 2.133 0 01.957.886 2.805 2.805 0 01.329 1.4v.007a3.11 3.11 0 01-.219 1.1 4.713 4.713 0 01-.609 1.107l-2.877 3.91h3.759v1.327h-5.6zM54.319 291.43a2.866 2.866 0 01-.72-2.078v-4.519a2.856 2.856 0 01.724-2.082 3.393 3.393 0 014.229 0 2.863 2.863 0 01.72 2.085v4.519a2.853 2.853 0 01-.724 2.081 3.379 3.379 0 01-4.229 0zm3.207-.968a1.59 1.59 0 00.352-1.11v-4.519a1.6 1.6 0 00-.349-1.111 1.742 1.742 0 00-2.187 0 1.6 1.6 0 00-.349 1.111v4.519a1.59 1.59 0 00.352 1.11 1.73 1.73 0 002.181 0zM62.044 291.43a2.862 2.862 0 01-.721-2.078v-4.519a2.852 2.852 0 01.725-2.082 3.391 3.391 0 014.228 0 2.859 2.859 0 01.724 2.082v4.519a2.849 2.849 0 01-.725 2.081 3.377 3.377 0 01-4.228 0zm3.207-.968a1.6 1.6 0 00.352-1.11v-4.519a1.607 1.607 0 00-.349-1.111 1.743 1.743 0 00-2.188 0 1.607 1.607 0 00-.348 1.111v4.519a1.6 1.6 0 00.351 1.11 1.731 1.731 0 002.182 0z"/><path class="cls-7" d="M31.657 279.977l1.461 1.461" id="LINE-10" data-name="LINE"/><path class="cls-7" d="M33.118 278.516l-1.461 1.461" id="LINE-11" data-name="LINE"/><path class="cls-7" d="M76.965 280.079l-1.461-1.461" id="LINE-12" data-name="LINE"/><path class="cls-7" d="M75.504 281.54l1.461-1.461" id="LINE-13" data-name="LINE"/><path class="cls-7" d="M60.894 255.096h17.074" id="LINE-14" data-name="LINE"/><path class="cls-7" d="M60.85 171.979h17.074" id="LINE-15" data-name="LINE"/><path class="cls-7" d="M60.856 171.979l.05 83.117" id="LINE-16" data-name="LINE"/><path d="M56.232 226.06l-4.621-3.466a3.46 3.46 0 00-.824-.468 2.185 2.185 0 00-.8-.168h-.014a1.209 1.209 0 00-.923.349 1.388 1.388 0 00-.328.991 1.371 1.371 0 00.359.985 1.631 1.631 0 001.015.458h.007v1.442H50.1a3.721 3.721 0 01-1.459-.5 2.559 2.559 0 01-.923-.981 2.93 2.93 0 01-.318-1.388 3.456 3.456 0 01.3-1.518 2.141 2.141 0 01.885-.957 2.809 2.809 0 011.4-.328H50a3.083 3.083 0 011.1.219 4.7 4.7 0 011.108.608l3.91 2.878v-3.76h1.326v5.606zM57.442 216.278v1.394H49.02l.868 1.415h-1.442l-.944-1.415v-1.394zM57.192 212.955a2.285 2.285 0 01-1.025.948 3.732 3.732 0 01-1.624.324h-.006a5.53 5.53 0 01-1.162-.13 6.771 6.771 0 01-1.2-.376c-.068-.027-.136-.057-.2-.089s-.131-.063-.2-.1l-4.28-2.16v-1.5l4.956 2.537-.246-.007a1.212 1.212 0 01-.5-.5 1.59 1.59 0 01-.177-.766 2.44 2.44 0 01.348-1.326 2.181 2.181 0 011.015-.841 4.05 4.05 0 011.6-.287h.007a3.791 3.791 0 011.641.325 2.3 2.3 0 011.039.949 3.355 3.355 0 010 3zm-1.4-2.519a1.726 1.726 0 00-1.169-.359h-.006a1.969 1.969 0 00-1.289.376 1.316 1.316 0 00-.455 1.074 1.133 1.133 0 00.458.964 2.133 2.133 0 001.292.341h.007a1.7 1.7 0 001.166-.359 1.473 1.473 0 000-2.037zM56.8 206.117a2.865 2.865 0 01-2.078.72H50.2a2.856 2.856 0 01-2.082-.724 3.389 3.389 0 010-4.229 2.862 2.862 0 012.085-.721h4.518a2.856 2.856 0 012.082.725 3.38 3.38 0 010 4.229zm-.967-3.208a1.6 1.6 0 00-1.111-.351H50.2a1.6 1.6 0 00-1.111.349 1.742 1.742 0 000 2.187 1.605 1.605 0 001.111.349h4.518a1.6 1.6 0 001.111-.352 1.735 1.735 0 000-2.182z"/><path class="cls-7" d="M60.912 255.096l-1.461-1.461" id="LINE-17" data-name="LINE"/><path class="cls-7" d="M62.373 253.635l-1.461 1.461" id="LINE-18" data-name="LINE"/><path class="cls-7" d="M60.81 171.979l1.461 1.462" id="LINE-19" data-name="LINE"/><path class="cls-7" d="M59.349 173.441l1.461-1.462" id="LINE-20" data-name="LINE"/><path class="cls-7" d="M60.894 171.926h17.074" id="LINE-21" data-name="LINE"/><path class="cls-7" d="M60.85 99.155h17.074" id="LINE-22" data-name="LINE"/><path class="cls-7" d="M60.856 99.155l.05 72.771" id="LINE-23" data-name="LINE"/><path d="M57.442 150.236v1.394H49.02l.868 1.415h-1.442l-.946-1.415v-1.394zM52.506 144.459l.246.007a1.024 1.024 0 01.462.516 2.077 2.077 0 01.147.817A2.2 2.2 0 0153 147.05a2.374 2.374 0 01-1.022.838 3.709 3.709 0 01-1.528.3h-.007a3.838 3.838 0 01-1.648-.324 2.3 2.3 0 01-1.039-.952 3 3 0 01-.355-1.5 2.932 2.932 0 01.362-1.5 2.323 2.323 0 011.053-.946 3.869 3.869 0 011.661-.325h.007a5.184 5.184 0 011.138.137 6.9 6.9 0 011.2.389c.059.028.119.055.181.082s.122.057.181.089l4.259 2.119v1.5zm-.861-.065a1.949 1.949 0 00-1.251-.359h-.007a1.859 1.859 0 00-1.217.359 1.421 1.421 0 000 2.037 1.859 1.859 0 001.224.359h.006a1.924 1.924 0 001.247-.359 1.393 1.393 0 000-2.037zM52.506 137.275l.246.007a1.026 1.026 0 01.462.515 2.082 2.082 0 01.147.818 2.2 2.2 0 01-.361 1.251 2.372 2.372 0 01-1.022.837 3.693 3.693 0 01-1.528.3h-.007a3.823 3.823 0 01-1.648-.324 2.293 2.293 0 01-1.039-.951 3 3 0 01-.355-1.5 2.932 2.932 0 01.362-1.5 2.318 2.318 0 011.053-.946 3.868 3.868 0 011.661-.326h.007a5.184 5.184 0 011.138.137 6.993 6.993 0 011.2.39l.181.082c.061.027.122.056.181.089l4.259 2.119v1.5zm-.861-.066a1.949 1.949 0 00-1.251-.358h-.007a1.859 1.859 0 00-1.217.358 1.421 1.421 0 000 2.037 1.854 1.854 0 001.224.36h.006a1.918 1.918 0 001.247-.36 1.393 1.393 0 000-2.037zM56.8 132.89a2.865 2.865 0 01-2.078.721H50.2a2.856 2.856 0 01-2.082-.725 3.388 3.388 0 010-4.228 2.858 2.858 0 012.085-.721h4.518a2.856 2.856 0 012.082.724 3.38 3.38 0 010 4.229zm-.967-3.207a1.6 1.6 0 00-1.111-.352H50.2a1.605 1.605 0 00-1.111.349 1.742 1.742 0 000 2.187 1.6 1.6 0 001.111.349h4.518a1.6 1.6 0 001.111-.351 1.735 1.735 0 000-2.182z"/><path class="cls-7" d="M60.912 171.926l-1.461-1.461" id="LINE-24" data-name="LINE"/><path class="cls-7" d="M62.373 170.465l-1.461 1.461" id="LINE-25" data-name="LINE"/><path class="cls-7" d="M60.81 99.155l1.461 1.461" id="LINE-26" data-name="LINE"/><path class="cls-7" d="M59.349 100.616l1.461-1.461" id="LINE-27" data-name="LINE"/><path class="cls-7" d="M60.894 99.093h17.074" id="LINE-28" data-name="LINE"/><path class="cls-7" d="M60.85 33.127h17.074" id="LINE-29" data-name="LINE"/><path class="cls-7" d="M60.856 33.127l.05 65.966" id="LINE-30" data-name="LINE"/><path d="M57.442 74.728v1.394H49.02l.868 1.415h-1.442l-.946-1.415v-1.394zM48.747 67.338l8.7 2.571v1.483l-8.613-2.57v2.529h1.428v1.394H47.5v-5.407zM57.442 63.025v1.394H49.02l.868 1.415h-1.442l-.946-1.415v-1.394zM56.8 60.048a2.861 2.861 0 01-2.078.721H50.2a2.852 2.852 0 01-2.082-.725 3.388 3.388 0 010-4.228A2.858 2.858 0 0150.2 55.1h4.518a2.852 2.852 0 012.082.725 3.379 3.379 0 010 4.228zm-.967-3.207a1.6 1.6 0 00-1.111-.351H50.2a1.6 1.6 0 00-1.111.348 1.743 1.743 0 000 2.188 1.6 1.6 0 001.111.348h4.518a1.6 1.6 0 001.111-.351 1.735 1.735 0 000-2.182z"/><path class="cls-7" d="M60.912 99.093l-1.461-1.461" id="LINE-31" data-name="LINE"/><path class="cls-7" d="M62.373 97.632l-1.461 1.461" id="LINE-32" data-name="LINE"/><path class="cls-7" d="M60.81 33.127l1.461 1.461" id="LINE-33" data-name="LINE"/><path class="cls-7" d="M59.349 34.588l1.461-1.461" id="LINE-34" data-name="LINE"/><path class="cls-7" d="M60.894 33.051h17.074" id="LINE-35" data-name="LINE"/><path class="cls-7" d="M60.85 11.127h17.074" id="LINE-36" data-name="LINE"/><path class="cls-7" d="M60.856 11.127l.05 21.924" id="LINE-37" data-name="LINE"/><path d="M57.192 30.905a2.282 2.282 0 01-1.025.947 3.718 3.718 0 01-1.624.324h-.006a5.53 5.53 0 01-1.162-.13 6.771 6.771 0 01-1.2-.376 2.249 2.249 0 01-.2-.089l-.2-.095-4.275-2.161v-1.5l4.956 2.536-.246-.007a1.2 1.2 0 01-.5-.5 1.59 1.59 0 01-.177-.766 2.443 2.443 0 01.348-1.326 2.187 2.187 0 011.015-.841 4.05 4.05 0 011.6-.287h.007a3.806 3.806 0 011.641.325 2.3 2.3 0 011.039.95 3.355 3.355 0 010 3zm-1.4-2.52a1.726 1.726 0 00-1.169-.358h-.006a1.969 1.969 0 00-1.289.376 1.314 1.314 0 00-.455 1.073 1.133 1.133 0 00.458.964 2.133 2.133 0 001.292.342h.007a1.7 1.7 0 001.166-.36 1.473 1.473 0 000-2.037zM54.708 24.923l-7.2-3.336v-1.435l7.116 3.254v-4.874h1.292v6.391zM51.6 20.637v-1.36h5.852v1.36zM57.25 15.383a2.4 2.4 0 01-.854.951 3.411 3.411 0 01-1.347.489h-.007v-1.395h.007a1.292 1.292 0 00.851-.437 1.418 1.418 0 00.3-.944 1.261 1.261 0 00-.448-1.035 1.943 1.943 0 00-1.261-.366h-.834a1.933 1.933 0 00-1.255.366 1.261 1.261 0 00-.448 1.035 1.315 1.315 0 00.206.7 1.941 1.941 0 00.574.588V16.6H47.5v-5.062h1.327v3.671h2.235a1.969 1.969 0 01-.328-.581 1.9 1.9 0 01-.116-.656 2.891 2.891 0 01.355-1.474 2.287 2.287 0 011.039-.929 3.9 3.9 0 011.648-.318h.84a3.788 3.788 0 011.647.328 2.331 2.331 0 011.043.957 3 3 0 01.358 1.511 2.931 2.931 0 01-.298 1.336z"/><path class="cls-7" d="M60.912 33.051l-1.461-1.461" id="LINE-38" data-name="LINE"/><path class="cls-7" d="M62.373 31.59l-1.461 1.461" id="LINE-39" data-name="LINE"/><path class="cls-7" d="M60.81 11.127l1.461 1.461" id="LINE-40" data-name="LINE"/><path class="cls-7" d="M59.349 12.588l1.461-1.461" id="LINE-41" data-name="LINE"/><path class="cls-7" d="M387.619 208.59H365.16" id="LINE-42" data-name="LINE"/><path class="cls-7" d="M387.619 247.759H365.16" id="LINE-43" data-name="LINE"/><path class="cls-7" d="M387.62 208.59v39.169" id="LINE-44" data-name="LINE"/><path d="M399.793 237.147v1.4h-8.422l.868 1.421H390.8l-.943-1.421v-1.4zM399.793 232.475v1.4h-8.422l.868 1.421H390.8l-.943-1.421v-1.4zM399.15 229.487a2.859 2.859 0 01-2.078.723h-4.518a2.853 2.853 0 110-5.694h4.518a2.994 2.994 0 012.078 4.971zm-.966-3.218a1.6 1.6 0 00-1.112-.354h-4.518a1.6 1.6 0 00-1.111.35 1.755 1.755 0 000 2.2 1.6 1.6 0 001.111.35h4.518a1.59 1.59 0 001.112-.354 1.747 1.747 0 000-2.188zM399.15 221.734a2.859 2.859 0 01-2.078.723h-4.518a2.853 2.853 0 110-5.694h4.518a2.994 2.994 0 012.078 4.971zm-.966-3.218a1.6 1.6 0 00-1.112-.354h-4.518a1.6 1.6 0 00-1.111.35 1.755 1.755 0 000 2.2 1.6 1.6 0 001.111.35h4.518a1.59 1.59 0 001.112-.354 1.747 1.747 0 000-2.188z"/><path class="cls-7" d="M387.62 208.59l1.461 1.466" id="LINE-45" data-name="LINE"/><path class="cls-7" d="M386.159 210.056l1.461-1.466" id="LINE-46" data-name="LINE"/><path class="cls-7" d="M387.619 247.759l-1.461-1.466" id="LINE-47" data-name="LINE"/><path class="cls-7" d="M389.08 246.293l-1.461 1.466" id="LINE-48" data-name="LINE"/><path class="cls-7" d="M277.469 148.623V133.52" id="LINE-49" data-name="LINE"/><path class="cls-7" d="M246.714 148.623V133.52" id="LINE-50" data-name="LINE"/><path class="cls-7" d="M246.714 148.624h30.755" id="LINE-51" data-name="LINE"/><path d="M255.217 155.848l-.007.246a1.032 1.032 0 01-.524.461 2.121 2.121 0 01-.831.147 2.253 2.253 0 01-1.269-.362 2.39 2.39 0 01-.851-1.021 3.65 3.65 0 01-.3-1.529v-.006a3.749 3.749 0 01.33-1.648 2.29 2.29 0 01.965-1.039 3.068 3.068 0 011.523-.355 3 3 0 011.519.362 2.334 2.334 0 01.962 1.053 3.82 3.82 0 01.33 1.661v.007a5.024 5.024 0 01-.139 1.138 6.978 6.978 0 01-.395 1.2l-.084.182a2.539 2.539 0 01-.09.181l-2.152 4.259h-1.527zm.066-.861a1.926 1.926 0 00.363-1.251v-.007a1.834 1.834 0 00-.363-1.217 1.457 1.457 0 00-2.069 0 1.842 1.842 0 00-.364 1.224v.006a1.911 1.911 0 00.364 1.249 1.432 1.432 0 002.069 0zM259.67 160.141a2.84 2.84 0 01-.732-2.078v-4.519a2.828 2.828 0 01.735-2.081 3.485 3.485 0 014.294 0 2.835 2.835 0 01.732 2.085v4.519a2.832 2.832 0 01-.736 2.082 3.472 3.472 0 01-4.293 0zm3.256-.967a1.58 1.58 0 00.357-1.111v-4.519a1.589 1.589 0 00-.354-1.11 1.788 1.788 0 00-2.222 0 1.584 1.584 0 00-.353 1.11v4.519a1.58 1.58 0 00.357 1.111 1.782 1.782 0 002.215 0zM267.514 160.141a2.836 2.836 0 01-.733-2.078v-4.519a2.824 2.824 0 01.737-2.081 3.483 3.483 0 014.293 0 2.835 2.835 0 01.732 2.085v4.519a2.828 2.828 0 01-.736 2.082 3.472 3.472 0 01-4.293 0zm3.256-.967a1.58 1.58 0 00.357-1.111v-4.519a1.584 1.584 0 00-.354-1.11 1.787 1.787 0 00-2.221 0 1.58 1.58 0 00-.355 1.11v4.519a1.576 1.576 0 00.358 1.111 1.782 1.782 0 002.215 0z"/><path class="cls-7" d="M277.469 148.624l-1.484 1.461" id="LINE-52" data-name="LINE"/><path class="cls-7" d="M275.985 147.163l1.484 1.461" id="LINE-53" data-name="LINE"/><path class="cls-7" d="M246.714 148.623l1.484-1.461" id="LINE-54" data-name="LINE"/><path class="cls-7" d="M248.198 150.084l-1.484-1.461" id="LINE-55" data-name="LINE"/><path class="cls-7" d="M321.719 148.623V133.52" id="LINE-56" data-name="LINE"/><path class="cls-7" d="M294.714 148.623V133.52" id="LINE-57" data-name="LINE"/><path class="cls-7" d="M294.714 148.624h27.005" id="LINE-58" data-name="LINE"/><path d="M298.763 160.544a2.517 2.517 0 01-1.073-.968 2.747 2.747 0 01-.377-1.452v-.164a2.758 2.758 0 01.377-1.4 2.506 2.506 0 011.01-.991 2.294 2.294 0 01-1.179-1.976v-.239a2.61 2.61 0 01.354-1.37 2.365 2.365 0 011-.916 3.622 3.622 0 013 0 2.371 2.371 0 011 .916 2.611 2.611 0 01.355 1.37v.239a2.265 2.265 0 01-1.2 1.976 2.582 2.582 0 011.024.995 2.687 2.687 0 01.386 1.4v.164a2.747 2.747 0 01-.378 1.452 2.517 2.517 0 01-1.073.968 3.963 3.963 0 01-3.221 0zm2.478-1.189a1.4 1.4 0 00.579-.536 1.531 1.531 0 00.2-.8v-.1a1.537 1.537 0 00-.2-.8 1.4 1.4 0 00-.579-.537 2.066 2.066 0 00-1.735 0 1.4 1.4 0 00-.58.54 1.56 1.56 0 00-.2.807v.1a1.506 1.506 0 00.2.793 1.38 1.38 0 00.58.53 1.9 1.9 0 00.867.188 1.881 1.881 0 00.868-.185zm-.118-4.482a1.258 1.258 0 00.507-.515 1.61 1.61 0 00.181-.773v-.095a1.485 1.485 0 00-.181-.739 1.233 1.233 0 00-.507-.5 1.695 1.695 0 00-1.5 0 1.231 1.231 0 00-.506.5 1.489 1.489 0 00-.18.745v.1a1.567 1.567 0 00.18.763 1.264 1.264 0 00.506.511 1.636 1.636 0 001.5 0zM306.145 160.141a2.836 2.836 0 01-.733-2.078v-4.519a2.828 2.828 0 01.736-2.081 3.483 3.483 0 014.293 0 2.831 2.831 0 01.733 2.085v4.519a2.824 2.824 0 01-.736 2.082 3.472 3.472 0 01-4.293 0zm3.255-.967a1.576 1.576 0 00.358-1.111v-4.519a1.58 1.58 0 00-.354-1.11 1.785 1.785 0 00-2.22 0 1.58 1.58 0 00-.355 1.11v4.519a1.571 1.571 0 00.358 1.111 1.779 1.779 0 002.213 0zM313.989 160.141a2.84 2.84 0 01-.732-2.078v-4.519a2.828 2.828 0 01.735-2.081 3.485 3.485 0 014.294 0 2.835 2.835 0 01.733 2.085v4.519a2.832 2.832 0 01-.736 2.082 3.474 3.474 0 01-4.294 0zm3.256-.967a1.58 1.58 0 00.358-1.111v-4.519a1.585 1.585 0 00-.355-1.11 1.787 1.787 0 00-2.221 0 1.584 1.584 0 00-.353 1.11v4.519a1.575 1.575 0 00.357 1.111 1.78 1.78 0 002.214 0z"/><path class="cls-7" d="M321.719 148.624l-1.484 1.461" id="LINE-59" data-name="LINE"/><path class="cls-7" d="M320.235 147.163l1.484 1.461" id="LINE-60" data-name="LINE"/><path class="cls-7" d="M294.714 148.623l1.484-1.461" id="LINE-61" data-name="LINE"/><path class="cls-7" d="M296.198 150.084l-1.484-1.461" id="LINE-62" data-name="LINE"/><path class="cls-7" d="M106.682 11.343v120.021" id="LINE-63" data-name="LINE"/><path d="M118.776 83.481l-.3.635a2.505 2.505 0 01-.883 1.021 3.2 3.2 0 01-1.391.488v-1.42a1.5 1.5 0 00.7-.267 1.214 1.214 0 00.407-.529 1.971 1.971 0 00.134-.761 1.482 1.482 0 00-.37-1.072 1.379 1.379 0 00-1.039-.382h-.3a1.675 1.675 0 00-1.152.362 1.3 1.3 0 00-.407 1.024v.7h-1.326v-.7a1.161 1.161 0 00-.349-.9 1.4 1.4 0 00-.984-.321h-.316a1.2 1.2 0 00-.909.338 1.338 1.338 0 00-.321.959 1.458 1.458 0 00.133.635 1.2 1.2 0 00.411.474 1.85 1.85 0 00.693.284v1.413a3.638 3.638 0 01-1.4-.515 2.52 2.52 0 01-.881-.96 2.844 2.844 0 01-.3-1.331 2.748 2.748 0 01.677-1.987 2.526 2.526 0 011.907-.7h.164a2.145 2.145 0 011.3.4 2.277 2.277 0 01.806 1.14 2.026 2.026 0 01.8-1.26 2.653 2.653 0 011.586-.446h.164a3.069 3.069 0 011.484.334 2.208 2.208 0 01.936.973 3.393 3.393 0 01.321 1.539zM117.464 77.971l-4.621-3.46a3.459 3.459 0 00-.823-.468 2.191 2.191 0 00-.8-.167h-.014a1.208 1.208 0 00-.923.348 1.387 1.387 0 00-.328.99 1.368 1.368 0 00.358.983 1.644 1.644 0 001.016.457h.007V78.1h-.007a3.705 3.705 0 01-1.459-.5 2.566 2.566 0 01-.924-.98 2.927 2.927 0 01-.317-1.386 3.448 3.448 0 01.3-1.515 2.134 2.134 0 01.885-.956 2.809 2.809 0 011.4-.327h.006a3.086 3.086 0 011.1.218 4.73 4.73 0 011.108.607l3.91 2.874v-3.761h1.326v5.6zM115.939 71.145l-7.2-3.331V66.38l7.116 3.25v-4.868h1.292v6.383zm-3.11-4.28v-1.359h5.852v1.359zM118.482 61.618a2.4 2.4 0 01-.854.949 3.389 3.389 0 01-1.347.488h-.007v-1.392h.007a1.3 1.3 0 00.852-.437 1.418 1.418 0 00.3-.942 1.261 1.261 0 00-.449-1.035 1.944 1.944 0 00-1.26-.365h-.834a1.937 1.937 0 00-1.255.365 1.263 1.263 0 00-.448 1.035 1.319 1.319 0 00.2.7 1.954 1.954 0 00.575.587v1.27h-5.237v-5.063h1.327v3.666h2.248a1.971 1.971 0 01-.444-1.235 2.874 2.874 0 01.355-1.471 2.271 2.271 0 011.039-.929 3.885 3.885 0 011.648-.317h.834a3.791 3.791 0 011.647.327 2.329 2.329 0 011.043.956 3.008 3.008 0 01.358 1.509 2.913 2.913 0 01-.298 1.334z"/><path class="cls-7" d="M106.682 131.364l-1.461-1.46" id="LINE-64" data-name="LINE"/><path class="cls-7" d="M108.143 129.904l-1.461 1.46" id="LINE-65" data-name="LINE"/><path class="cls-7" d="M106.683 11.343l1.461 1.459" id="LINE-66" data-name="LINE"/><path class="cls-7" d="M105.221 12.802l1.462-1.459" id="LINE-67" data-name="LINE"/><path class="cls-7" d="M106.682 134.468v148" id="LINE-68" data-name="LINE"/><path d="M118.776 183.433l-.3.635a2.5 2.5 0 01-.883 1.02 3.17 3.17 0 01-1.391.488v-1.419a1.5 1.5 0 00.7-.267 1.223 1.223 0 00.407-.528 1.98 1.98 0 00.134-.762 1.48 1.48 0 00-.37-1.071 1.376 1.376 0 00-1.039-.383h-.3a1.675 1.675 0 00-1.152.362 1.3 1.3 0 00-.407 1.024v.7h-1.326v-.7a1.161 1.161 0 00-.349-.9 1.4 1.4 0 00-.984-.321h-.316a1.193 1.193 0 00-.909.338 1.338 1.338 0 00-.321.959 1.458 1.458 0 00.133.635 1.2 1.2 0 00.411.474 1.834 1.834 0 00.693.283v1.413a3.621 3.621 0 01-1.4-.514 2.52 2.52 0 01-.881-.96 2.844 2.844 0 01-.3-1.331 2.746 2.746 0 01.677-1.987 2.526 2.526 0 011.907-.7h.164a2.145 2.145 0 011.3.4 2.273 2.273 0 01.806 1.14 2.021 2.021 0 01.8-1.26 2.66 2.66 0 011.586-.447h.164a3.069 3.069 0 011.484.335 2.208 2.208 0 01.936.973 3.393 3.393 0 01.321 1.539zM113.738 174.257l.246.007a1.018 1.018 0 01.461.516 2.054 2.054 0 01.148.816 2.183 2.183 0 01-.363 1.249 2.36 2.36 0 01-1.021.836 3.69 3.69 0 01-1.528.3h-.007a3.823 3.823 0 01-1.648-.324 2.3 2.3 0 01-1.039-.949 2.985 2.985 0 01-.355-1.5 2.925 2.925 0 01.362-1.495 2.327 2.327 0 011.053-.945 3.884 3.884 0 011.661-.324h.007a5.264 5.264 0 011.139.136 7.1 7.1 0 011.2.389l.181.082c.062.027.121.057.181.089l4.259 2.116v1.5zm-.861-.064a1.938 1.938 0 00-1.251-.359h-.007a1.846 1.846 0 00-1.217.359 1.418 1.418 0 000 2.034 1.865 1.865 0 001.224.358h.007a1.932 1.932 0 001.248-.358 1.241 1.241 0 00.44-1.021 1.228 1.228 0 00-.444-1.013zM118.776 168.865l-.3.634a2.5 2.5 0 01-.883 1.021 3.17 3.17 0 01-1.391.488v-1.42a1.509 1.509 0 00.7-.266 1.22 1.22 0 00.407-.529 1.975 1.975 0 00.134-.761 1.482 1.482 0 00-.37-1.072 1.376 1.376 0 00-1.039-.383h-.3a1.675 1.675 0 00-1.152.363 1.3 1.3 0 00-.407 1.023v.7h-1.326v-.7a1.159 1.159 0 00-.349-.9 1.4 1.4 0 00-.984-.321h-.316a1.2 1.2 0 00-.909.337 1.339 1.339 0 00-.321.959 1.451 1.451 0 00.133.635 1.2 1.2 0 00.411.475 1.85 1.85 0 00.693.283v1.413a3.638 3.638 0 01-1.4-.515 2.513 2.513 0 01-.881-.96 2.841 2.841 0 01-.3-1.331 2.745 2.745 0 01.677-1.986 2.522 2.522 0 011.907-.7h.164a2.151 2.151 0 011.3.4 2.28 2.28 0 01.806 1.141 2.021 2.021 0 01.8-1.26 2.653 2.653 0 011.586-.447h.164a3.058 3.058 0 011.484.335 2.205 2.205 0 01.936.972 3.4 3.4 0 01.321 1.54zM118.031 162.485a2.866 2.866 0 01-2.078.72h-4.518a2.854 2.854 0 01-2.081-.723 3.379 3.379 0 010-4.223 2.862 2.862 0 012.085-.721h4.518a2.862 2.862 0 012.082.724 3.372 3.372 0 010 4.223zm-.967-3.2a1.59 1.59 0 00-1.111-.352h-4.518a1.6 1.6 0 00-1.111.348 1.738 1.738 0 000 2.184 1.6 1.6 0 001.111.349h4.518a1.59 1.59 0 001.111-.352 1.728 1.728 0 000-2.177z"/><path class="cls-7" d="M106.682 282.468l-1.461-1.459" id="LINE-69" data-name="LINE"/><path class="cls-7" d="M108.143 281.009l-1.461 1.459" id="LINE-70" data-name="LINE"/><path class="cls-7" d="M106.683 134.468l1.461 1.459" id="LINE-71" data-name="LINE"/><path class="cls-7" d="M105.221 135.927l1.462-1.459" id="LINE-72" data-name="LINE"/><path class="cls-7" d="M221.182 157.051v125.417" id="LINE-73" data-name="LINE"/><path d="M233.276 231.95l-.3.634a2.505 2.505 0 01-.883 1.021 3.182 3.182 0 01-1.391.488v-1.42a1.509 1.509 0 00.7-.266 1.223 1.223 0 00.407-.53 1.966 1.966 0 00.134-.76 1.483 1.483 0 00-.37-1.073 1.375 1.375 0 00-1.039-.382h-.3a1.675 1.675 0 00-1.152.362 1.3 1.3 0 00-.407 1.024v.7h-1.326v-.7a1.161 1.161 0 00-.349-.9 1.4 1.4 0 00-.984-.322h-.316a1.2 1.2 0 00-.909.338 1.342 1.342 0 00-.321.96 1.454 1.454 0 00.133.635 1.2 1.2 0 00.411.475 1.883 1.883 0 00.693.283v1.413a3.622 3.622 0 01-1.4-.516 2.518 2.518 0 01-.881-.959 2.844 2.844 0 01-.3-1.331 2.748 2.748 0 01.677-1.987 2.522 2.522 0 011.907-.7h.164a2.152 2.152 0 011.3.4 2.281 2.281 0 01.806 1.14 2.026 2.026 0 01.8-1.26 2.653 2.653 0 011.586-.446h.164a3.069 3.069 0 011.484.334 2.216 2.216 0 01.936.972 3.4 3.4 0 01.321 1.541zM233.276 224.556l-.3.635a2.5 2.5 0 01-.883 1.02 3.2 3.2 0 01-1.391.489v-1.42a1.5 1.5 0 00.7-.267 1.226 1.226 0 00.407-.529 1.971 1.971 0 00.134-.761 1.48 1.48 0 00-.37-1.072 1.375 1.375 0 00-1.039-.382h-.3a1.675 1.675 0 00-1.152.361 1.3 1.3 0 00-.407 1.025v.7h-1.326v-.7a1.163 1.163 0 00-.349-.9 1.4 1.4 0 00-.984-.321h-.316a1.2 1.2 0 00-.909.338 1.34 1.34 0 00-.321.96 1.461 1.461 0 00.133.635 1.2 1.2 0 00.411.474 1.866 1.866 0 00.693.283v1.413a3.606 3.606 0 01-1.4-.515 2.518 2.518 0 01-.881-.959 2.847 2.847 0 01-.3-1.331 2.749 2.749 0 01.677-1.988 2.526 2.526 0 011.907-.7h.164a2.146 2.146 0 011.3.4 2.274 2.274 0 01.806 1.139 2.021 2.021 0 01.8-1.259 2.653 2.653 0 011.586-.447h.164a3.081 3.081 0 011.484.334 2.218 2.218 0 01.936.973 3.4 3.4 0 01.321 1.54zM233.276 217.162l-.3.635a2.5 2.5 0 01-.883 1.021 3.182 3.182 0 01-1.391.488v-1.42a1.5 1.5 0 00.7-.267 1.211 1.211 0 00.407-.528 1.98 1.98 0 00.134-.762 1.48 1.48 0 00-.37-1.071 1.376 1.376 0 00-1.039-.383h-.3a1.67 1.67 0 00-1.152.363 1.3 1.3 0 00-.407 1.023v.7h-1.326v-.7a1.159 1.159 0 00-.349-.9 1.4 1.4 0 00-.984-.322h-.316a1.2 1.2 0 00-.909.338 1.339 1.339 0 00-.321.959 1.454 1.454 0 00.133.635 1.2 1.2 0 00.411.475 1.866 1.866 0 00.693.283v1.413a3.638 3.638 0 01-1.4-.515 2.513 2.513 0 01-.881-.96 2.841 2.841 0 01-.3-1.331 2.745 2.745 0 01.677-1.986 2.522 2.522 0 011.907-.7h.164a2.151 2.151 0 011.3.4 2.28 2.28 0 01.806 1.141 2.021 2.021 0 01.8-1.26 2.653 2.653 0 011.586-.447h.164a3.058 3.058 0 011.484.335 2.205 2.205 0 01.936.972 3.4 3.4 0 01.321 1.539zM232.531 210.783a2.866 2.866 0 01-2.078.72h-4.518a2.854 2.854 0 01-2.081-.723 3.379 3.379 0 010-4.223 2.858 2.858 0 012.085-.721h4.518a2.858 2.858 0 012.082.724 3.372 3.372 0 010 4.223zm-.967-3.2a1.594 1.594 0 00-1.111-.351h-4.518a1.6 1.6 0 00-1.111.347 1.739 1.739 0 000 2.185 1.6 1.6 0 001.111.349h4.518a1.594 1.594 0 001.111-.352 1.729 1.729 0 000-2.178z"/><path class="cls-7" d="M221.182 282.468l-1.461-1.459" id="LINE-74" data-name="LINE"/><path class="cls-7" d="M222.643 281.009l-1.461 1.459" id="LINE-75" data-name="LINE"/><path class="cls-7" d="M221.183 157.051l1.461 1.459" id="LINE-76" data-name="LINE"/><path class="cls-7" d="M219.721 158.51l1.462-1.459" id="LINE-77" data-name="LINE"/><path class="cls-7" d="M342.932 28.051v103.313" id="LINE-78" data-name="LINE"/><path d="M340.714 109.185l-4.621-3.461a3.493 3.493 0 00-.823-.468 2.212 2.212 0 00-.8-.167h-.014a1.208 1.208 0 00-.923.348 1.387 1.387 0 00-.328.99 1.368 1.368 0 00.358.983 1.638 1.638 0 001.016.457h.007v1.441h-.007a3.705 3.705 0 01-1.459-.5 2.552 2.552 0 01-.924-.98 2.926 2.926 0 01-.317-1.385 3.45 3.45 0 01.3-1.516 2.136 2.136 0 01.885-.955 2.809 2.809 0 011.4-.328h.006a3.108 3.108 0 011.1.218 4.734 4.734 0 011.108.608l3.91 2.874v-3.755h1.326v5.6zM333.229 96.685l8.695 2.567v1.482l-8.613-2.567v2.526h1.428v1.392h-2.755v-5.4zM333.229 89.647l8.695 2.567V93.7l-8.613-2.567v2.526h1.428v1.393h-2.755v-5.4zM341.732 86.3a2.4 2.4 0 01-.854.948 3.39 3.39 0 01-1.347.489h-.007v-1.394h.007a1.3 1.3 0 00.852-.437 1.418 1.418 0 00.3-.942 1.261 1.261 0 00-.449-1.035 1.944 1.944 0 00-1.26-.365h-.834a1.937 1.937 0 00-1.255.365 1.263 1.263 0 00-.448 1.035 1.319 1.319 0 00.205.7 1.954 1.954 0 00.575.587v1.27h-5.237v-5.063h1.327v3.666h2.235a1.942 1.942 0 01-.328-.58 1.92 1.92 0 01-.116-.655 2.874 2.874 0 01.355-1.471 2.277 2.277 0 011.039-.929 3.9 3.9 0 011.648-.317h.834a3.791 3.791 0 011.647.327 2.329 2.329 0 011.043.956 3.008 3.008 0 01.358 1.509 2.917 2.917 0 01-.29 1.336z"/><path class="cls-7" d="M342.932 131.364l-1.461-1.46" id="LINE-79" data-name="LINE"/><path class="cls-7" d="M344.393 129.904l-1.461 1.46" id="LINE-80" data-name="LINE"/><path class="cls-7" d="M342.933 28.051l1.461 1.459" id="LINE-81" data-name="LINE"/><path class="cls-7" d="M341.471 29.51l1.462-1.459" id="LINE-82" data-name="LINE"/><path class="cls-7" d="M291.432 11.551v119.813" id="LINE-83" data-name="LINE"/><path d="M303.526 107.731l-.3.635a2.505 2.505 0 01-.883 1.021 3.2 3.2 0 01-1.391.488v-1.42a1.5 1.5 0 00.7-.267 1.214 1.214 0 00.407-.529 1.971 1.971 0 00.134-.761 1.482 1.482 0 00-.37-1.072 1.379 1.379 0 00-1.039-.382h-.3a1.675 1.675 0 00-1.152.362 1.3 1.3 0 00-.407 1.024v.7h-1.326v-.7a1.161 1.161 0 00-.349-.9 1.4 1.4 0 00-.984-.321h-.308a1.2 1.2 0 00-.909.338 1.338 1.338 0 00-.321.959 1.458 1.458 0 00.133.635 1.2 1.2 0 00.411.474 1.85 1.85 0 00.693.284v1.413a3.638 3.638 0 01-1.395-.515 2.52 2.52 0 01-.881-.96 2.844 2.844 0 01-.3-1.331 2.748 2.748 0 01.677-1.987 2.526 2.526 0 011.907-.7h.164a2.145 2.145 0 011.3.4 2.277 2.277 0 01.806 1.14 2.026 2.026 0 01.8-1.26 2.653 2.653 0 011.586-.446h.164a3.069 3.069 0 011.484.334 2.208 2.208 0 01.936.973 3.393 3.393 0 01.321 1.539zM302.214 102.221l-4.621-3.46a3.459 3.459 0 00-.823-.468 2.191 2.191 0 00-.8-.167h-.014a1.208 1.208 0 00-.923.348 1.387 1.387 0 00-.328.99 1.368 1.368 0 00.358.983 1.644 1.644 0 001.016.457h.007v1.441h-.007a3.705 3.705 0 01-1.459-.5 2.566 2.566 0 01-.924-.98 2.927 2.927 0 01-.317-1.386 3.448 3.448 0 01.3-1.515 2.134 2.134 0 01.885-.956 2.809 2.809 0 011.4-.327h.006a3.086 3.086 0 011.1.218 4.73 4.73 0 011.108.607l3.91 2.874v-3.756h1.326v5.6zM300.689 95.4l-7.2-3.331V90.63l7.116 3.25v-4.868h1.295V95.4zm-3.11-4.28v-1.364h5.852v1.359zM303.232 85.868a2.4 2.4 0 01-.854.949 3.389 3.389 0 01-1.347.488h-.007v-1.392h.007a1.3 1.3 0 00.852-.437 1.418 1.418 0 00.3-.942 1.261 1.261 0 00-.449-1.035 1.944 1.944 0 00-1.26-.365h-.834a1.937 1.937 0 00-1.255.365 1.263 1.263 0 00-.448 1.035 1.319 1.319 0 00.205.7 1.954 1.954 0 00.575.587v1.27h-5.237v-5.063h1.327v3.666h2.235a1.971 1.971 0 01-.444-1.235 2.874 2.874 0 01.355-1.471 2.271 2.271 0 011.047-.929 3.885 3.885 0 011.648-.317h.834a3.791 3.791 0 011.647.327 2.329 2.329 0 011.043.956 3.008 3.008 0 01.358 1.509 2.913 2.913 0 01-.298 1.334z"/><path class="cls-7" d="M291.432 131.364l-1.461-1.46" id="LINE-84" data-name="LINE"/><path class="cls-7" d="M292.893 129.904l-1.461 1.46" id="LINE-85" data-name="LINE"/><path class="cls-7" d="M291.433 11.551l1.461 1.459" id="LINE-86" data-name="LINE"/><path class="cls-7" d="M289.971 13.01l1.462-1.459" id="LINE-87" data-name="LINE"/><path class="cls-7" d="M101.093 17.803h184.913" id="LINE-88" data-name="LINE"/><path d="M179.294 27.332l3.336-7.2h1.435l-3.253 7.116h4.874v1.292h-6.392zm4.286-3.111h1.36v5.852h-1.36zM190.915 25.131l-.007.246a1.029 1.029 0 01-.515.461 2.082 2.082 0 01-.818.147 2.193 2.193 0 01-1.251-.362 2.381 2.381 0 01-.838-1.022 3.706 3.706 0 01-.3-1.528v-.007a3.818 3.818 0 01.325-1.647 2.283 2.283 0 01.951-1.039 2.986 2.986 0 011.5-.356 2.923 2.923 0 011.5.363 2.321 2.321 0 01.946 1.052 3.872 3.872 0 01.325 1.661v.007a5.173 5.173 0 01-.136 1.138 6.937 6.937 0 01-.39 1.2l-.082.181a2.527 2.527 0 01-.089.181l-2.119 4.259h-1.5zm.065-.862a1.943 1.943 0 00.359-1.251v-.006a1.852 1.852 0 00-.359-1.217 1.419 1.419 0 00-2.037 0 1.856 1.856 0 00-.359 1.223v.007a1.925 1.925 0 00.359 1.248 1.392 1.392 0 002.037 0zM193.9 27.332l3.335-7.2h1.436l-3.254 7.116h4.874v1.292H193.9zm4.286-3.111h1.36v5.852h-1.36zM202.717 29.424a2.864 2.864 0 01-.717-2.078v-4.519a2.852 2.852 0 01.725-2.082 3.391 3.391 0 014.228 0 2.858 2.858 0 01.721 2.085v4.519a2.849 2.849 0 01-.725 2.081 3.377 3.377 0 01-4.228 0zm3.207-.968a1.6 1.6 0 00.351-1.11v-4.519a1.6 1.6 0 00-.348-1.111 1.743 1.743 0 00-2.188 0 1.6 1.6 0 00-.348 1.111v4.519a1.6 1.6 0 00.351 1.11 1.731 1.731 0 002.182 0z"/><path class="cls-7" d="M285.969 17.803l-1.461-1.461" id="LINE-89" data-name="LINE"/><path class="cls-7" d="M284.508 19.264l1.461-1.461" id="LINE-90" data-name="LINE"/><path class="cls-7" d="M101.094 17.804l1.461 1.461" id="LINE-91" data-name="LINE"/><path class="cls-7" d="M102.555 16.343l-1.461 1.461" id="LINE-92" data-name="LINE"/><path class="cls-7" d="M101.093 141.303h110.33" id="LINE-93" data-name="LINE"/><path d="M144 153.669l-.636-.3a2.513 2.513 0 01-1.022-.882 3.2 3.2 0 01-.489-1.391h1.422a1.5 1.5 0 00.267.7 1.238 1.238 0 00.53.407 2.011 2.011 0 00.762.133 1.483 1.483 0 001.073-.369 1.378 1.378 0 00.383-1.039v-.3a1.678 1.678 0 00-.362-1.152 1.306 1.306 0 00-1.026-.406h-.7v-1.327h.7a1.167 1.167 0 00.9-.348 1.4 1.4 0 00.321-.985v-.31a1.19 1.19 0 00-.339-.91 1.339 1.339 0 00-.96-.321 1.477 1.477 0 00-.636.133 1.214 1.214 0 00-.474.411 1.848 1.848 0 00-.284.693h-1.41a3.611 3.611 0 01.515-1.394 2.534 2.534 0 01.961-.882 2.855 2.855 0 011.333-.3 2.754 2.754 0 011.989.677 2.519 2.519 0 01.7 1.907v.164a2.145 2.145 0 01-.4 1.3 2.277 2.277 0 01-1.141.807 2.017 2.017 0 011.26.8 2.643 2.643 0 01.449 1.586v.164a3.065 3.065 0 01-.335 1.483 2.214 2.214 0 01-.975.937 3.4 3.4 0 01-1.541.321zM150.39 152.924a2.862 2.862 0 01-.721-2.078v-4.519a2.852 2.852 0 01.725-2.082 3.391 3.391 0 014.228 0 2.858 2.858 0 01.721 2.085v4.519a2.559 2.559 0 01-2.837 2.823 2.816 2.816 0 01-2.116-.748zm3.207-.968a1.593 1.593 0 00.351-1.11v-4.519a1.6 1.6 0 00-.348-1.111 1.743 1.743 0 00-2.188 0 1.605 1.605 0 00-.349 1.111v4.519a1.593 1.593 0 00.352 1.11 1.731 1.731 0 002.182 0zM160.914 148.631l-.007.246a1.024 1.024 0 01-.515.461 2.064 2.064 0 01-.818.148 2.194 2.194 0 01-1.251-.363 2.381 2.381 0 01-.838-1.022 3.706 3.706 0 01-.3-1.528v-.007a3.818 3.818 0 01.325-1.647 2.283 2.283 0 01.951-1.039 2.986 2.986 0 011.5-.356 2.923 2.923 0 011.5.363 2.321 2.321 0 01.946 1.052 3.872 3.872 0 01.325 1.661v.007a5.173 5.173 0 01-.136 1.138 6.975 6.975 0 01-.39 1.2l-.082.18a2.775 2.775 0 01-.089.182l-2.119 4.259h-1.5zm.065-.862a1.943 1.943 0 00.359-1.251v-.006a1.852 1.852 0 00-.359-1.217 1.419 1.419 0 00-2.037 0 1.856 1.856 0 00-.359 1.223v.007a1.925 1.925 0 00.359 1.248 1.392 1.392 0 002.037 0zM165.3 152.924a2.862 2.862 0 01-.721-2.078v-4.519a2.852 2.852 0 01.725-2.082 3.391 3.391 0 014.228 0 2.858 2.858 0 01.721 2.085v4.519a2.559 2.559 0 01-2.837 2.823 2.816 2.816 0 01-2.116-.748zm3.207-.968a1.593 1.593 0 00.351-1.11v-4.519a1.6 1.6 0 00-.348-1.111 1.743 1.743 0 00-2.188 0 1.6 1.6 0 00-.348 1.111v4.519a1.593 1.593 0 00.351 1.11 1.731 1.731 0 002.182 0z"/><path class="cls-7" d="M211.385 141.303l-1.461-1.461" id="LINE-94" data-name="LINE"/><path class="cls-7" d="M209.924 142.764l1.461-1.461" id="LINE-95" data-name="LINE"/><path class="cls-7" d="M101.094 141.304l1.461 1.461" id="LINE-96" data-name="LINE"/><path class="cls-7" d="M102.555 139.843l-1.461 1.461" id="LINE-97" data-name="LINE"/><path class="cls-7" d="M101.093 268.303h255.913" id="LINE-98" data-name="LINE"/><path d="M143.435 280.317a2.287 2.287 0 01-.948-1.026 3.713 3.713 0 01-.324-1.623v-.007a5.545 5.545 0 01.13-1.162 6.761 6.761 0 01.376-1.2c.027-.068.057-.136.089-.2s.063-.131.1-.194l2.16-4.28h1.5l-2.537 4.956.007-.246a1.2 1.2 0 01.5-.5 1.579 1.579 0 01.766-.178 2.441 2.441 0 011.326.349 2.176 2.176 0 01.841 1.015 4.044 4.044 0 01.287 1.6v.007a3.791 3.791 0 01-.325 1.641 2.3 2.3 0 01-.949 1.039 3.355 3.355 0 01-3 0zm2.519-1.4a1.726 1.726 0 00.359-1.169v-.007a1.971 1.971 0 00-.376-1.289 1.319 1.319 0 00-1.074-.454 1.133 1.133 0 00-.964.458 2.131 2.131 0 00-.341 1.292v.007a1.7 1.7 0 00.359 1.165 1.474 1.474 0 002.037 0zM150.879 280.327a2.5 2.5 0 01-1.057-.967 2.789 2.789 0 01-.372-1.452v-.165a2.8 2.8 0 01.372-1.4 2.5 2.5 0 011-.991 2.193 2.193 0 01-.844-.831 2.242 2.242 0 01-.318-1.145v-.239a2.645 2.645 0 01.349-1.371 2.362 2.362 0 01.984-.916 3.526 3.526 0 012.953 0 2.371 2.371 0 01.985.916 2.654 2.654 0 01.348 1.371v.239a2.205 2.205 0 01-.325 1.156 2.176 2.176 0 01-.857.82 2.567 2.567 0 011.008.994 2.727 2.727 0 01.379 1.4v.165a2.789 2.789 0 01-.372 1.452 2.5 2.5 0 01-1.056.967 3.848 3.848 0 01-3.172 0zm2.44-1.189a1.393 1.393 0 00.572-.537 1.561 1.561 0 00.2-.8v-.1a1.577 1.577 0 00-.2-.8 1.386 1.386 0 00-.572-.537 2.007 2.007 0 00-1.709 0 1.378 1.378 0 00-.571.54 1.587 1.587 0 00-.2.807v.1a1.54 1.54 0 00.2.793 1.372 1.372 0 00.571.529 2.021 2.021 0 001.709 0zm-.116-4.481a1.254 1.254 0 00.5-.516 1.635 1.635 0 00.178-.773v-.095a1.5 1.5 0 00-.178-.739 1.235 1.235 0 00-.5-.5 1.661 1.661 0 00-1.476 0 1.235 1.235 0 00-.5.5 1.508 1.508 0 00-.178.746v.1a1.582 1.582 0 00.178.762 1.252 1.252 0 00.5.513 1.6 1.6 0 001.476 0zM162.562 271.871l-2.571 8.7h-1.483l2.57-8.614h-2.529v1.429h-1.4v-2.755h5.408zM165.2 279.924a2.866 2.866 0 01-.72-2.078v-4.519a2.857 2.857 0 01.724-2.082 3.393 3.393 0 014.229 0 2.863 2.863 0 01.72 2.085v4.519a2.852 2.852 0 01-.724 2.081 3.379 3.379 0 01-4.229 0zm3.207-.968a1.589 1.589 0 00.352-1.11v-4.519a1.6 1.6 0 00-.349-1.111 1.742 1.742 0 00-2.187 0 1.6 1.6 0 00-.349 1.111v4.519a1.589 1.589 0 00.352 1.11 1.73 1.73 0 002.181 0z"/><path class="cls-7" d="M356.969 268.303l-1.461-1.461" id="LINE-99" data-name="LINE"/><path class="cls-7" d="M355.508 269.764l1.461-1.461" id="LINE-100" data-name="LINE"/><path class="cls-7" d="M101.094 268.304l1.461 1.461" id="LINE-101" data-name="LINE"/><path class="cls-7" d="M102.555 266.843l-1.461 1.461" id="LINE-102" data-name="LINE"/><path class="cls-7" d="M289.406 17.803h44.6" id="LINE-103" data-name="LINE"/><path d="M301.623 30.066h-1.394v-8.422l-1.416.869V21.07l1.416-.943h1.394zM303.729 28.856l3.465-4.621a3.393 3.393 0 00.468-.824 2.181 2.181 0 00.168-.8V22.6a1.2 1.2 0 00-.349-.922 1.388 1.388 0 00-.991-.329 1.368 1.368 0 00-.984.359 1.634 1.634 0 00-.458 1.015v.007h-1.443v-.007a3.743 3.743 0 01.5-1.459 2.569 2.569 0 01.982-.923 2.924 2.924 0 011.388-.318 3.469 3.469 0 011.517.3 2.138 2.138 0 01.957.886 2.8 2.8 0 01.328 1.4v.007a3.1 3.1 0 01-.218 1.1 4.739 4.739 0 01-.609 1.108l-2.878 3.91h3.76v1.326h-5.605zM312.848 30.169l-.636-.3a2.516 2.516 0 01-1.023-.882 3.213 3.213 0 01-.488-1.391h1.422a1.5 1.5 0 00.267.7 1.232 1.232 0 00.53.407 2.011 2.011 0 00.762.133 1.483 1.483 0 001.073-.369 1.378 1.378 0 00.383-1.039v-.3a1.672 1.672 0 00-.363-1.152 1.3 1.3 0 00-1.025-.407h-.7v-1.334h.7a1.165 1.165 0 00.9-.348 1.4 1.4 0 00.322-.985V22.6a1.194 1.194 0 00-.339-.91 1.339 1.339 0 00-.96-.321 1.477 1.477 0 00-.636.133 1.217 1.217 0 00-.475.411 1.881 1.881 0 00-.284.693h-1.415a3.627 3.627 0 01.516-1.394 2.534 2.534 0 01.961-.882 2.852 2.852 0 011.333-.3 2.757 2.757 0 011.989.677 2.519 2.519 0 01.7 1.907v.164a2.152 2.152 0 01-.4 1.3 2.284 2.284 0 01-1.142.807 2.019 2.019 0 011.261.8 2.642 2.642 0 01.448 1.585v.165a3.054 3.054 0 01-.335 1.483 2.21 2.21 0 01-.974.936 3.389 3.389 0 01-1.541.322zM319.235 29.424a2.868 2.868 0 01-.72-2.078v-4.519a2.856 2.856 0 01.724-2.082 3.393 3.393 0 014.229 0 2.861 2.861 0 01.72 2.085v4.519a2.853 2.853 0 01-.724 2.081 3.379 3.379 0 01-4.229 0zm3.207-.968a1.59 1.59 0 00.352-1.11v-4.519a1.6 1.6 0 00-.349-1.111 1.742 1.742 0 00-2.187 0 1.6 1.6 0 00-.349 1.111v4.519a1.59 1.59 0 00.352 1.11 1.73 1.73 0 002.181 0z"/><path class="cls-7" d="M333.969 17.803l-1.461-1.461" id="LINE-104" data-name="LINE"/><path class="cls-7" d="M332.508 19.264l1.461-1.461" id="LINE-105" data-name="LINE"/><path class="cls-7" d="M289.406 17.804l1.461 1.461" id="LINE-106" data-name="LINE"/><path class="cls-7" d="M290.867 16.343l-1.461 1.461" id="LINE-107" data-name="LINE"/><path class="cls-7" d="M289.406 66.136h58.183" id="LINE-108" data-name="LINE"/><path d="M308.277 78.4h-1.394v-8.422l-1.415.868V69.4l1.415-.944h1.394zM311.6 78.15a2.29 2.29 0 01-.948-1.025 3.732 3.732 0 01-.324-1.624v-.007a5.545 5.545 0 01.13-1.162 6.787 6.787 0 01.376-1.2c.027-.068.057-.136.089-.2s.063-.13.1-.194l2.16-4.28h1.5l-2.537 4.956.007-.246a1.212 1.212 0 01.5-.5 1.59 1.59 0 01.766-.178 2.441 2.441 0 011.326.349 2.181 2.181 0 01.841 1.015 4.05 4.05 0 01.287 1.6v.007a3.791 3.791 0 01-.325 1.641 2.3 2.3 0 01-.949 1.039 3.355 3.355 0 01-3 0zm2.519-1.4a1.726 1.726 0 00.359-1.169v-.007a1.966 1.966 0 00-.376-1.288 1.316 1.316 0 00-1.074-.455 1.133 1.133 0 00-.964.458 2.131 2.131 0 00-.341 1.292v.007a1.7 1.7 0 00.359 1.166 1.475 1.475 0 002.037 0zM318.438 77.757a2.865 2.865 0 01-.72-2.078V71.16a2.853 2.853 0 01.724-2.081 3.391 3.391 0 014.229 0 2.865 2.865 0 01.721 2.085v4.519a2.856 2.856 0 01-.725 2.082 3.38 3.38 0 01-4.229 0zm3.208-.967a1.6 1.6 0 00.354-1.111V71.16a1.6 1.6 0 00-.349-1.11 1.738 1.738 0 00-2.187 0 1.6 1.6 0 00-.349 1.11v4.519a1.591 1.591 0 00.352 1.111 1.735 1.735 0 002.182 0zM326.163 77.757a2.865 2.865 0 01-.721-2.078V71.16a2.854 2.854 0 01.725-2.081 3.391 3.391 0 014.229 0 2.864 2.864 0 01.72 2.085v4.519a2.856 2.856 0 01-.724 2.082 3.38 3.38 0 01-4.229 0zm3.207-.967a1.6 1.6 0 00.352-1.111V71.16a1.6 1.6 0 00-.349-1.11 1.738 1.738 0 00-2.187 0 1.6 1.6 0 00-.349 1.11v4.519a1.6 1.6 0 00.351 1.111 1.735 1.735 0 002.182 0z"/><path class="cls-7" d="M347.552 66.136l-1.461-1.461" id="LINE-109" data-name="LINE"/><path class="cls-7" d="M346.091 67.598l1.461-1.462" id="LINE-110" data-name="LINE"/><path class="cls-7" d="M289.406 66.137l1.461 1.461" id="LINE-111" data-name="LINE"/><path class="cls-7" d="M290.867 64.676l-1.461 1.461" id="LINE-112" data-name="LINE"/><path class="cls-7" d="M289.406 41.761h67.35" id="LINE-113" data-name="LINE"/><path d="M308.093 54.025h-1.4V45.6l-1.415.868v-1.439l1.415-.944h1.4zM311.675 53.785a2.5 2.5 0 01-1.057-.967 2.786 2.786 0 01-.372-1.452V51.2a2.8 2.8 0 01.372-1.4 2.5 2.5 0 011-.991 2.179 2.179 0 01-.844-.831 2.242 2.242 0 01-.318-1.145v-.239a2.645 2.645 0 01.349-1.371 2.362 2.362 0 01.984-.916 3.526 3.526 0 012.953 0 2.371 2.371 0 01.985.916 2.654 2.654 0 01.348 1.371v.239a2.2 2.2 0 01-.325 1.156 2.169 2.169 0 01-.857.82 2.569 2.569 0 011.008 1 2.733 2.733 0 01.379 1.4v.165a2.786 2.786 0 01-.372 1.452 2.5 2.5 0 01-1.056.967 3.848 3.848 0 01-3.172 0zm2.44-1.189a1.386 1.386 0 00.572-.537 1.561 1.561 0 00.2-.8v-.1a1.577 1.577 0 00-.2-.8 1.393 1.393 0 00-.572-.537 2.007 2.007 0 00-1.709 0 1.384 1.384 0 00-.571.54 1.59 1.59 0 00-.2.807v.1a1.538 1.538 0 00.2.793 1.366 1.366 0 00.571.529 2.021 2.021 0 001.709 0zM314 48.115a1.254 1.254 0 00.5-.516 1.63 1.63 0 00.178-.773v-.095a1.51 1.51 0 00-.178-.739 1.226 1.226 0 00-.5-.495 1.654 1.654 0 00-1.477 0 1.238 1.238 0 00-.5.495 1.524 1.524 0 00-.177.746v.1a1.593 1.593 0 00.177.762 1.265 1.265 0 00.5.513 1.6 1.6 0 001.477 0zM319.96 54.127l-.636-.3a2.513 2.513 0 01-1.022-.882 3.191 3.191 0 01-.489-1.391h1.422a1.5 1.5 0 00.267.7 1.238 1.238 0 00.53.407 1.992 1.992 0 00.762.133 1.483 1.483 0 001.073-.369 1.376 1.376 0 00.383-1.039v-.3a1.676 1.676 0 00-.362-1.151 1.3 1.3 0 00-1.026-.407h-.7v-1.334h.7a1.168 1.168 0 00.9-.349 1.4 1.4 0 00.321-.984v-.308a1.188 1.188 0 00-.339-.909 1.334 1.334 0 00-.96-.321 1.462 1.462 0 00-.636.133 1.211 1.211 0 00-.474.41 1.853 1.853 0 00-.284.694h-1.415a3.616 3.616 0 01.515-1.4 2.523 2.523 0 01.961-.881 2.855 2.855 0 011.333-.3 2.754 2.754 0 011.989.676 2.521 2.521 0 01.7 1.908v.164a2.15 2.15 0 01-.4 1.3 2.269 2.269 0 01-1.141.806 2.021 2.021 0 011.26.8 2.645 2.645 0 01.449 1.586v.164a3.063 3.063 0 01-.335 1.483 2.209 2.209 0 01-.975.937 3.4 3.4 0 01-1.541.321zM326.348 53.382a2.861 2.861 0 01-.721-2.078v-4.519a2.849 2.849 0 01.725-2.081 3.39 3.39 0 014.228 0 2.861 2.861 0 01.721 2.085V51.3a2.852 2.852 0 01-.725 2.082 3.379 3.379 0 01-4.228 0zm3.207-.967a1.6 1.6 0 00.351-1.111v-4.519a1.6 1.6 0 00-.348-1.11 1.74 1.74 0 00-2.188 0 1.6 1.6 0 00-.349 1.11V51.3a1.6 1.6 0 00.352 1.111 1.735 1.735 0 002.182 0z"/><path class="cls-7" d="M356.719 41.761l-1.461-1.461" id="LINE-114" data-name="LINE"/><path class="cls-7" d="M355.258 43.223l1.461-1.462" id="LINE-115" data-name="LINE"/><path class="cls-7" d="M289.406 41.762l1.461 1.461" id="LINE-116" data-name="LINE"/><path class="cls-7" d="M290.867 40.301l-1.461 1.461" id="LINE-117" data-name="LINE"/></g></svg>