<svg xmlns="http://www.w3.org/2000/svg" width="537.619" height="418.311" viewBox="0 0 403.213 313.734"><defs><pattern id="Новый_узор_3" data-name="Новый узор 3" width="35.15" height="35.15" patternTransform="translate(-7.256 -21.209)" patternUnits="userSpaceOnUse"><path class="cls-1" d="M0 0h35.15v35.15H0z"/><path class="cls-2" d="M35.149 35.15h35.15V70.3h-35.15z"/><path class="cls-2" d="M0 35.15h35.15V70.3H0zM-35.15 35.15H0V70.3h-35.15z"/><path class="cls-2" d="M35.149.001h35.15v35.15h-35.15z"/><path class="cls-2" d="M0 .001h35.15v35.15H0zM-35.15.001H0v35.15h-35.15zM35.149-35.149h35.15V.001h-35.15z"/><path class="cls-2" d="M0-35.149h35.15V.001H0zM-35.15-35.149H0V.001h-35.15z"/></pattern><pattern id="Новый_узор_4" data-name="Новый узор 4" width="9.822" height="9.822" patternTransform="translate(-4.109 -8.736)" patternUnits="userSpaceOnUse"><path class="cls-1" d="M0 0h9.822v9.822H0z"/><path class="cls-3" d="M14.733 19.647L9.82 14.735l4.913-4.913 4.912 4.913-4.912 4.912z"/><path class="cls-3" d="M4.911 19.647l-4.913-4.912 4.913-4.913 4.912 4.913-4.912 4.912z"/><path class="cls-3" d="M-4.912 19.647l-4.912-4.912 4.912-4.913 4.913 4.913-4.913 4.912zM14.733 9.825L9.82 4.912 14.733 0l4.912 4.912-4.912 4.913z"/><path class="cls-3" d="M4.911 9.825L-.002 4.912 4.911 0l4.912 4.912-4.912 4.913z"/><path class="cls-3" d="M-4.912 9.825l-4.912-4.913L-4.912 0 .001 4.912l-4.913 4.913zM14.733.003L9.82-4.91l4.913-4.912 4.912 4.912L14.733.003z"/><path class="cls-3" d="M4.911.003L-.002-4.91l4.913-4.912L9.823-4.91 4.911.003z"/><path class="cls-3" d="M-4.912.003L-9.824-4.91l4.912-4.912L.001-4.91-4.912.003z"/></pattern><style>.cls-1,.cls-11,.cls-2,.cls-3,.cls-7,.cls-8{fill:none}.cls-2{stroke:#ededed}.cls-2,.cls-3,.cls-7,.cls-8{stroke-linecap:round;stroke-linejoin:round;stroke-width:.4px}.cls-3{stroke:#e6e6e6}.cls-3,.cls-4,.cls-8,.cls-9{fill-rule:evenodd}.cls-4{fill:#fff}.cls-7,.cls-8{stroke:#000}.cls-11{stroke:gray;stroke-width:.6px;stroke-miterlimit:22.926}</style></defs><g id="_255" data-name="255"><path class="cls-4" d="M380.948 91.38a41.981 41.981 0 00-14.969-2.914V64.373c4.586-.185 6.412-1.168 6.412-1.168l-6.412-14.914V.283H77.1V178.84H31.759v105.8H77.1v18.876h288.879V125.07z" id="fon"/><path id="grid" stroke="#dcdcdc" fill="url(#Новый_узор_3)" fill-rule="evenodd" stroke-width=".4" stroke-linecap="round" stroke-linejoin="round" d="M77.103.283V178.84H31.759v105.802h45.344v18.876h288.876V.283H77.103z"/><path id="wet_zones" data-name="wet zones" fill="url(#Новый_узор_4)" fill-rule="evenodd" d="M337.262 11.242h-81.71v67.071h72.641V29.945h9.069V11.242z"/><g id="walls"><g id="walls-2" data-name="walls"><path d="M77.103.283h23.805v45.344H77.103zM77.103 128.757h23.805v61.418H77.103zM77.103 273.305h23.805v30.213H77.103z"/><path class="cls-7" d="M84.66 128.757h16.248M77.103 128.757h5.668M82.771 128.757h1.889M84.66 45.628h16.248M77.103 45.628h5.668M82.771 45.628h1.889M84.66 273.305h16.248M77.103 273.305h5.668M82.771 273.305h1.889M84.66 190.176h16.248M77.103 190.176h5.668M82.771 190.176h1.889M100.908 294.45v-21.145M100.908 190.176V159.93M100.908 150.862v-22.105M100.908 45.628V11.242M77.103.375v45.253M77.103 128.757v61.419M77.103 273.305v30.213M77.103 45.628v83.129M100.908 45.628v83.129M84.66 45.628v3.778M84.66 49.406h-1.889M82.771 49.406v-3.778M82.771 100.417v-1.889M82.771 98.528h1.889M84.66 98.528v1.889M83.715 49.406v49.122M84.66 49.406v49.122M82.771 98.528V49.406M84.66 100.417v.945M84.66 101.362h-.945M83.715 101.362v.944M83.715 102.306h-.944M82.771 102.306v-1.89M82.771 128.757v-3.778M82.771 124.978h.944M83.715 124.978v.944M83.715 125.923h.945M84.66 125.923v2.834M82.771 124.978v-22.672M85.605 104.196v18.893M85.605 101.362v2.834M85.605 104.196h-1.89M83.715 104.196v-2.834M83.715 101.362h1.89M83.715 125.923v-2.834M83.715 123.089h1.89M85.605 123.089v2.834M85.605 125.923h-1.89M83.715 123.089v-18.893M85.605 104.196v18.893M84.66 104.196v18.893M82.771 45.628h1.889M82.771 45.628h1.889M77.103 45.628h5.668M84.66 45.628h16.248M82.771 128.757h1.889M82.771 128.757h1.889M77.103 128.757h5.668M84.66 128.757h16.248M77.103 190.176v83.129M100.908 190.176v83.129M84.66 190.176v3.778M84.66 193.954h-1.889M82.771 193.954v-3.778M82.771 229.852v-1.891M82.771 227.962h1.889M84.66 227.962v1.89M83.715 193.954v34.008M84.66 193.954v34.008M82.771 227.962v-34.008M84.66 229.852v.943M84.66 230.796h-.945M83.715 230.796v.945M83.715 231.741h-.944M82.771 231.741v-1.89M82.771 273.305v-3.778M82.771 269.527h.944M83.715 269.527v.944M83.715 270.471h.945M84.66 270.471v2.834M85.605 270.471l28.055-28.055M82.771 269.527v-37.786M85.605 233.63v34.008M85.605 230.796v2.834M85.605 233.63h-1.89M83.715 233.63v-2.834M83.715 230.796h1.89M83.715 270.471v-2.834M83.715 267.638h1.89M85.605 267.638v2.834M85.605 270.471h-1.89M83.715 267.638V233.63M85.605 233.63v34.008M84.66 233.63v34.008"/><path class="cls-8" d="M85.605 230.8a39.676 39.676 0 0128.055 11.621"/><path class="cls-7" d="M82.771 190.176h1.889M82.771 190.176h1.889M77.103 190.176h5.668M84.66 190.176h16.248M82.771 273.305h1.889M82.771 273.305h1.889M77.103 273.305h5.668M84.66 273.305h16.248"/><path d="M100.908 294.45h256.758v9.068H100.908z"/><path class="cls-7" d="M77.103 303.518h205.179M357.666 294.45H100.908"/><path d="M356.911.283h9.068V45.06h-9.068zM356.911 65.464h9.068v21.917h-9.068zM356.911 128.945h9.068v174.573h-9.068z"/><path class="cls-7" d="M365.979 128.946h-9.068M365.979 87.381h-9.068M365.979 45.06h-9.068M365.979 65.465h-9.068M365.979 303.417V202.251M365.979 193.938v-64.992M365.979 87.381V65.465M365.979 45.06V.381M356.911 11.242v18.704M356.911 37.503v7.558M356.911 65.465v7.558M356.911 81.335v6.046M356.911 128.946v21.916M356.911 159.93v58.947M356.911 221.9v80.516"/><path class="cls-8" d="M381.637 91.68l-3.77-1.406m0 0l-3.893-1.017m0 0L370 88.644m0 0l-4.018-.2"/><path class="cls-9" d="M356.911 88.892h7.557v-.453h1.511v-1.058h-9.068v1.511zM356.911 128.945h9.068v-1.058h-1.511v-.453h-7.557v1.511z"/><path transform="rotate(-66.571 373.115 109.483)" d="M353.39 108.728h39.449v1.511H353.39z"/><path class="cls-7" d="M356.911 88.892h7.557M364.468 88.892v-.453M364.468 88.439h1.511M365.979 88.439V87.38M365.979 87.381h-9.068M356.911 87.381v1.512M356.911 128.946h9.068M365.979 128.946v-1.058M365.979 127.888h-1.511M364.468 127.888v-.454M364.468 127.434h-7.557M356.911 127.434v1.512M381.637 91.68l-15.658 36.208M365.979 127.888l-1.387-.6M364.592 127.288L380.25 91.08M380.249 91.08l1.389.6M365.979 87.381h-9.068M365.979 87.381h-9.068M365.979 128.946h-9.068M365.979 128.946h-9.068"/><path class="cls-8" d="M373.238 62.905l-2.344.829m0 0l-2.435.5m0 0l-2.48.169"/><path class="cls-9" d="M356.911 63.953v1.512h9.068v-1.059h-1.511v-.453h-7.557zM356.911 45.06v1.511h7.557v-.453h1.511V45.06h-9.068z"/><path transform="rotate(-23.386 368.913 54.81)" d="M368.159 45.667h1.512v18.289h-1.512z"/><path class="cls-7" d="M356.911 63.954h7.557M364.468 63.954v.453M364.468 64.407h1.511M365.979 64.407v1.058M365.979 65.465h-9.068M356.911 65.465v-1.511M356.911 45.06h9.068M365.979 45.06v1.058M365.979 46.118h-1.511M364.468 46.118v.454M364.468 46.572h-7.557M356.911 46.572V45.06M373.238 62.905l-7.259-16.787M365.979 46.118l-1.387.601M364.592 46.719l7.259 16.786M371.851 63.505l1.387-.6M365.979 65.465h-9.068M365.979 65.465h-9.068M365.979 45.06h-9.068M365.979 45.06h-9.068"/><path d="M100.908.283H356.91v10.958H100.908z"/><path class="cls-7" d="M100.908 11.242H252.62M255.643 11.242h81.619M340.284 11.242h16.626"/><path class="cls-9" d="M338.017 81.336v-8.313h7.558l-7.558 8.313z"/><path class="cls-9" d="M345.575 73.022v8.313h-7.558l7.558-8.313z"/><path d="M345.575 73.022h11.336v8.313h-11.336z"/><path class="cls-7" d="M338.017 81.335v-8.313M356.911 73.022h-11.336M338.017 81.335h18.894"/><path class="cls-9" d="M338.017 29.945h7.558v7.559l-7.558-7.559z"/><path class="cls-9" d="M338.017 37.504v-7.559l7.558 7.559h-7.558z"/><path d="M338.017 37.504h7.558v35.519h-7.558z"/><path class="cls-7" d="M338.017 29.946h7.557M345.574 73.022v-35.52M338.017 29.946v43.076"/><path d="M345.575 29.945h11.336v7.559h-11.336z"/><path class="cls-7" d="M345.574 37.503h11.336M356.911 29.946h-11.336"/><path d="M100.908 150.861h199.323v9.069H100.908zM334.239 150.861h22.672v9.069h-22.672z"/><path class="cls-7" d="M100.908 159.93h199.323M337.262 159.93h19.649M356.911 150.862h-22.672M300.231 150.862h-44.778M252.43 150.862H100.908M334.239 150.862v9.068M300.231 150.862v9.068M334.239 159.93v-9.068M300.231 159.93v-9.068"/><path class="cls-9" d="M334.239 218.877h3.022l-3.022 3.023v-3.023z"/><path d="M337.261 218.876h19.649v3.023h-19.649z"/><path class="cls-9" d="M334.239 221.9l3.022-3.023v3.023h-3.022z"/><path class="cls-7" d="M334.239 221.9v-3.022M356.911 218.878h-19.649M334.239 221.9h22.672"/><path d="M334.239 159.93h3.022v58.946h-3.022z"/><path class="cls-7" d="M337.262 218.878v-58.947M334.239 159.93v58.947"/><path d="M254.887 78.312h30.418v3.023h-30.418zM315.534 78.312h41.376v3.023h-41.376z"/><path class="cls-7" d="M315.535 81.335v-3.022M285.305 81.335v-3.022M356.911 78.312h-25.695M328.193 78.312h-12.658M285.305 78.312h-30.417M254.888 78.312v3.022M254.888 81.335h30.417M315.535 81.335h41.376"/><path class="cls-8" d="M288.673 92.494l-1-2.687m0 0l-.724-2.774m0 0l-.439-2.833m0 0l-.147-2.864"/><path class="cls-9" d="M286.817 78.312h-1.512v3.023h1.058v-1.512h.454v-1.511zM315.534 78.312h-1.511v1.511h.453v1.512h1.058v-3.023z"/><path transform="rotate(-23.383 301.27 86.22)" d="M287.218 85.464h28.113v1.512h-28.113z"/><path class="cls-7" d="M286.817 78.312v1.512M286.817 79.824h-.454M286.363 79.824v1.511M286.363 81.335h-1.058M285.305 81.335v-3.022M285.305 78.312h1.512M315.535 78.312v3.022M315.535 81.335h-1.059M314.476 81.335v-1.511M314.476 79.824h-.453M314.023 79.824v-1.512M314.023 78.312h1.512M288.673 92.494l25.803-11.159M314.476 81.335l-.6-1.387M313.877 79.948l-25.805 11.158M288.073 91.106l.6 1.388M285.305 81.335v-3.022M285.305 81.335v-3.022M315.535 81.335v-3.022M315.535 81.335v-3.022"/><path transform="rotate(-89.924 253.962 135.933)" d="M239.035 134.422h29.854v3.023h-29.854z"/><path transform="rotate(-89.922 254.08 49.123)" d="M216.198 47.612h75.765v3.023h-75.765z"/><path class="cls-7" d="M252.471 121.005l3.023.004M252.517 87.004l3.022.004M255.453 150.862l.041-29.854M255.54 87.008l.104-75.766M252.62 11.242l-.103 75.762M252.471 121.005l-.041 29.857"/><path class="cls-8" d="M239.857 90.664l3.048-1.133m0 0l3.148-.816m0 0l3.215-.491m0 0l3.248-.163"/><path class="cls-9" d="M255.538 88.519l.002-1.512-3.023-.004-.001 1.058 1.511.002v.454l1.511.002zM255.494 121.008l.002-1.512-1.511-.002-.001.453h-1.511l-.002 1.058 3.023.003z"/><path transform="rotate(-23.308 246.854 105.004)" d="M246.103 89.063h1.511v31.885h-1.511z"/><path class="cls-7" d="M255.538 88.519l-1.511-.002M254.026 88.517v-.453M254.027 88.064l-1.511-.003M252.516 88.061l.001-1.057M252.517 87.004l3.022.004M255.54 87.008l-.002 1.512M255.494 121.008l-3.023-.003M252.471 121.005l.001-1.059M252.472 119.946l1.511.002M253.983 119.948v-.453M253.984 119.495l1.512.002M255.496 119.497l-.002 1.512M239.857 90.664l12.615 29.282M252.472 119.946l1.388-.598M253.861 119.349l-12.617-29.284M241.245 90.065l-1.388.599M252.517 87.004l3.022.004M252.517 87.004l3.022.004M252.471 121.005l3.023.004M252.471 121.005l3.023.004"/><path d="M328.193 29.945h9.824v3.023h-9.824z"/><path class="cls-7" d="M337.262 29.946h-9.069M328.193 29.946v3.022M331.216 32.969h6.801M338.017 32.969v-3.022"/><path d="M328.193 32.968h3.023v45.344h-3.023z"/><path class="cls-7" d="M331.216 78.312V32.968M328.193 32.969v45.343"/><path d="M337.261 11.241h3.023v18.704h-3.023z"/><path class="cls-7" d="M337.262 11.242v18.704M338.017 29.946h2.267M340.284 29.946V11.242"/><path class="cls-8" d="M77.1 178.84H31.759m0 0v105.8m0 0H77.1m0 0v-105.8M32.515 283.886H77.1m0 0V179.6m0 0H32.515m0 0v104.29"/></g><path class="cls-7" d="M373.139 62.939a21.544 21.544 0 01-7.16 1.467"/><path class="cls-9" d="M373.238 62.903l-7.259-16.786h-1.511v.453l7.362 16.886 1.408-.553z"/><path class="cls-8" d="M381.55 91.641a43.872 43.872 0 00-15.571-3.2"/><path class="cls-9" d="M381.637 91.678l-1.387-.601-15.782 36.356v.453h1.511l15.658-36.208z"/><path class="cls-8" d="M288.648 92.426a30.886 30.886 0 01-2.285-11.092"/><path class="cls-9" d="M288.673 92.492l25.804-11.157-.001-1.513h-.452l-25.951 11.283.6 1.387z"/><path class="cls-8" d="M239.955 90.626a31.039 31.039 0 0112.561-2.566"/><path class="cls-9" d="M239.857 90.662l12.616 29.283 1.511.001.001-.453-12.74-29.429-1.388.598z"/><path class="cls-7" d="M84.66 128.756h16.248M77.103 128.756h5.668M82.771 128.756h1.889M84.66 45.627h16.248M77.103 45.627h5.668M82.771 45.627h1.889M77.103 45.627v83.129M100.908 45.627v83.129M84.66 45.627v3.778M84.66 49.405h-1.889M82.771 49.405v-3.778M82.771 100.416v-1.889M82.771 98.527h1.889M84.66 98.527v1.889M83.715 49.405v49.122M84.66 49.405v49.122M82.771 98.527V49.405M84.66 100.416v.945M84.66 101.361h-.945M83.715 101.361v.944M83.715 102.305h-.944M82.771 102.305v-1.89M82.771 128.756v-3.778M82.771 124.977h.944M83.715 124.977v.944M83.715 125.922h.945M84.66 125.922v2.834M82.771 124.977v-22.672M85.605 104.195v18.893M85.605 101.361v2.834M85.605 104.195h-1.89M83.715 104.195v-2.834M83.715 101.361h1.89M83.715 125.922v-2.835M83.715 123.087h1.89M85.605 123.087v2.835M85.605 125.922h-1.89M83.715 123.087v-18.892M85.605 104.195v18.893M84.66 104.195v18.893M82.771 45.627h1.889M82.771 45.627h1.889M77.103 45.627h5.668M84.66 45.627h16.248M82.771 128.756h1.889M82.771 128.756h1.889M77.103 128.756h5.668M84.66 128.756h16.248M84.66 273.304h16.248M77.103 273.304h5.668M82.771 273.304h1.889M84.66 190.174h16.248M77.103 190.174h5.668M82.771 190.174h1.889M77.103 190.174v83.13M100.908 190.174v83.13M84.66 190.174v3.778M84.66 193.953h-1.889M82.771 193.953v-3.778M82.771 229.85v-1.89M82.771 227.961h1.889M84.66 227.961v1.89M83.715 193.953v34.008M84.66 193.953v34.008M82.771 227.961v-34.008M84.66 229.85v.944M84.66 230.795h-.945M83.715 230.795v.945M83.715 231.74h-.944M82.771 231.74v-1.89M82.771 273.304v-3.778M82.771 269.526h.944M83.715 269.526v.944M83.715 270.47h.945M84.66 270.47v2.834M82.771 269.526V231.74M85.605 233.629v34.008M85.605 230.795v2.834M85.605 233.629h-1.89M83.715 233.629v-2.834M83.715 230.795h1.89M83.715 270.47v-2.834M83.715 267.637h1.89M85.605 267.637v2.834M85.605 270.47h-1.89M83.715 267.637v-34.009M85.605 233.629v34.008M84.66 233.629v34.008M82.771 190.174h1.889M82.771 190.174h1.889M77.103 190.174h5.668M84.66 190.174h16.248M82.771 273.304h1.889M82.771 273.304h1.889M77.103 273.304h5.668M84.66 273.304h16.248"/><path class="cls-8" d="M77.1 178.839H31.759m0 0v105.8m0 0H77.1m0 0v-105.8M32.515 283.884H77.1m0 0v-104.29m0 0H32.515m0 0v104.29"/><path d="M365.979 128.705h0v73.546h-9.068v-71.333h0v-3.484h7.556v.453h1.512v.818zM77.1 303.518v-30.212h23.805v30.212zM365.979 65.464v22.975h-1.512v.453h-7.556V63.953h7.556v.453h1.512v1.058zm-9.068-20.4v1.511h7.556v-.453h1.512V.283h-9.068V45.06zm-256 105.8h91.505v9.069h-91.508v30.245H77.1v-61.421h23.805v22.1zm0-139.62v34.383H77.1V.283h115.31v10.958z" stroke-width=".012" stroke="#000" fill-rule="evenodd" stroke-linecap="round" stroke-linejoin="round"/><path class="cls-7" d="M113.606 242.321A39.673 39.673 0 0085.551 230.7M84.607 193.858l29 25.272M113.606 219.13a39.673 39.673 0 01-28.055 11.621"/></g><g id="wall_2" data-name="wall 2"><path class="cls-4" d="M255.453 150.239v.622h44.778v9.069H192.413v-9.069h60.016l.042-29.856v-1.058h1.51v-.453h1.51v1.512l-.04 29.23zm82.564-117.271v45.345h-6.8V32.968h6.8zm0-3.022h-9.824v48.367h-14.17v1.51h.453v1.512h42.435v-8.313h-11.336V37.5h11.336v-7.554h-18.894zm18.893 188.93h-19.649V159.93h19.65v-9.069h-22.672V221.9h22.672v72.55h-256v9.068h265.068V202.251h-9.068v16.625zM192.413.283v10.958h60.207L252.517 87v1.058h1.512v.455h1.51v-1.511l.008-5.673h30.815v-1.506h.454v-1.51h-31.264l.091-67.072H356.91V.283h-164.5z"/><path class="cls-11" d="M196.688.28l-4.28 3.77M204.118.28l-11.71 10.31M211.538.28l-12.44 10.96M218.958.28l-12.44 10.96M226.378.28l-12.44 10.96M233.798.28l-12.44 10.96M241.228.28l-12.44 10.96M248.648.28l-12.44 10.96M256.068.28l-12.44 10.96M263.498.28l-12.44 10.96M270.908.28l-12.44 10.96M255.638 13.74l-3.03 2.66M278.338.28l-12.44 10.96M255.628 20.29l-3.03 2.66M255.618 26.83l-3.02 2.66M285.758.28l-12.44 10.96M255.608 33.38l-3.02 2.66M293.178.28l-12.44 10.96M255.598 39.93l-3.02 2.66M300.608.28l-12.44 10.96M255.588 46.48l-3.02 2.66M308.028.28l-12.44 10.96M255.578 53.02l-3.02 2.66M315.448.28l-12.44 10.96M255.578 59.56l-3.03 2.66M322.868.28l-12.44 10.96M255.568 66.11l-3.03 2.66M330.288.28l-12.44 10.96M255.558 72.66l-3.02 2.65M337.718.28l-12.45 10.96M345.138.28l-12.44 10.96M256.558 78.31l-4.03 3.55M352.558.28l-12.44 10.96M255.538 85.75l-2.62 2.31M263.988 78.31l-3.43 3.02M356.908 2.98l-9.37 8.26M271.398 78.31l-3.43 3.02M356.908 9.52l-1.95 1.72M333.718 29.95l-5.53 4.87M278.828 78.31l-3.43 3.02M196.468 150.86l-4.06 3.58M341.138 29.95l-3.42 3.02M331.218 38.69l-3.03 2.67M203.888 150.86l-10.29 9.07M286.248 78.31l-3.43 3.02M331.218 45.23l-3.03 2.67M211.308 150.86l-10.29 9.07M348.568 29.95l-10.55 9.29M345.578 39.12l-7.56 6.66M218.738 150.86l-10.3 9.07M253.828 119.95l-1.36 1.2M254.348 119.49l-.37.32M331.218 51.77l-3.03 2.67M355.988 29.95l-8.57 7.55M356.908 35.68l-2.06 1.82M331.218 58.31l-3.03 2.67M226.158 150.86l-10.29 9.07M255.478 125.03l-3.02 2.66M345.578 45.66l-7.56 6.66M331.218 64.85l-3.03 2.67M315.938 78.31l-1.71 1.51M233.588 150.86l-10.3 9.07M255.478 131.58l-3.03 2.66M345.578 52.2l-7.56 6.66M323.358 78.31l-3.43 3.02M331.218 71.39l-3.03 2.66M240.998 150.86l-10.29 9.07M255.468 138.12l-3.03 2.66M345.578 58.74l-7.56 6.65M331.218 77.93l-3.87 3.4M248.428 150.86l-10.3 9.07M255.458 144.67l-3.03 2.66M345.578 65.28l-7.56 6.65M255.848 150.86l-10.3 9.07M345.578 71.81l-10.8 9.52M263.268 150.86l-10.29 9.07M351.628 73.02l-9.43 8.31M356.908 74.91l-7.29 6.42M107.698 294.45l-6.79 5.98M270.698 150.86l-10.3 9.07M278.118 150.86l-10.3 9.07M115.118 294.45l-10.3 9.07M285.528 150.86l-10.29 9.07M122.528 294.45l-10.29 9.07M292.958 150.86l-10.3 9.07M129.958 294.45l-10.3 9.07M300.228 150.99l-10.15 8.94M137.378 294.45l-10.29 9.07M144.808 294.45l-10.3 9.07M300.228 157.53l-2.72 2.4M152.228 294.45l-10.3 9.07M159.648 294.45l-10.29 9.07M167.078 294.45l-10.3 9.07M337.488 150.86l-3.25 2.86M174.488 294.45l-10.29 9.07M344.908 150.86l-10.67 9.4M181.908 294.45l-10.29 9.07M352.338 150.86l-10.3 9.07M337.258 164.14l-3.02 2.66M189.338 294.45l-10.3 9.07M356.908 153.37l-7.45 6.56M337.258 170.68l-3.02 2.66M196.758 294.45l-10.29 9.07M337.258 177.22l-3.02 2.66M356.908 159.91l-.02.02M204.188 294.45l-10.3 9.07M337.258 183.76l-3.02 2.66M211.608 294.45l-10.3 9.07M337.258 190.29l-3.02 2.66M219.018 294.45l-10.29 9.07M337.258 196.83l-3.02 2.66M226.448 294.45l-10.3 9.07M337.258 203.37l-3.02 2.66M233.868 294.45l-10.3 9.07M241.288 294.45l-10.29 9.07M337.258 209.91l-3.02 2.66M248.718 294.45l-10.3 9.07M337.258 216.45l-3.02 2.66M360.808 202.25l-3.9 3.43M256.138 294.45l-10.29 9.07M341.928 218.88l-3.43 3.02M349.338 218.88l-3.42 3.02M263.558 294.45l-10.3 9.07M365.978 204.22l-9.07 7.99M356.768 218.88l-3.43 3.02M270.978 294.45l-10.29 9.07M365.978 210.76l-9.07 7.99M278.398 294.45l-10.29 9.07M365.978 217.3l-9.07 7.99M285.828 294.45l-10.3 9.07M365.978 223.84l-9.07 7.99M293.248 294.45l-10.29 9.07M365.978 230.38l-9.07 7.99M300.678 294.45l-10.3 9.07M365.978 236.92l-9.07 7.99M308.098 294.45l-10.3 9.07M365.978 243.46l-9.07 7.99M315.518 294.45l-10.3 9.07M365.978 249.99l-9.07 7.99M365.978 256.53l-9.07 7.99M322.938 294.45l-10.3 9.07M365.978 263.07l-9.07 7.99M330.358 294.45l-10.3 9.07M365.978 269.61l-9.07 7.99M337.778 294.45l-10.29 9.07M365.978 276.15l-9.07 7.99M345.208 294.45l-10.3 9.07M365.978 282.69l-9.07 7.99M352.628 294.45l-10.29 9.07M365.978 289.22l-16.23 14.3M365.978 295.76l-8.8 7.76M365.978 302.3l-1.39 1.22"/><path d="M255.453 150.239v.622h44.778v9.069H192.413v-9.069h60.016l.042-29.856h0v-1.058h1.51v-.453h1.51v1.512h0l-.04 29.23zm82.564-117.271h0V37.5h0v35.522h0v5.291h-6.8V32.968h6.8zm0-3.022h-9.824v48.367h-14.17v1.51h.453v1.512h42.435v-8.313h-11.336V37.5h11.336v-7.554h-18.894zm18.893 188.93h0v-16.625h9.068v101.267h-265.07v-9.068h256V221.9h-22.669v-71.039h22.672v9.069h-19.65v58.946h19.649zM192.413.283v10.958h60.207L252.517 87h0v1.058h1.512v.455h1.51v-1.511h0l.008-5.673h30.815v-1.506h.454v-1.51h-31.264l.091-67.072H356.91V.283h-164.5z" stroke-width=".567" stroke-miterlimit="22.926" stroke="#000" fill-rule="evenodd" fill="none"/></g></g><g id="sizes"><path class="cls-7" d="M15.423 284.628h17.074" id="LINE"/><path class="cls-7" d="M15.379 178.792h17.074" id="LINE-2" data-name="LINE"/><path class="cls-7" d="M15.385 178.792l.05 105.836" id="LINE-3" data-name="LINE"/><path d="M10.76 246.112l-4.621-3.465a3.393 3.393 0 00-.824-.468 2.185 2.185 0 00-.8-.168h-.01a1.2 1.2 0 00-.923.349 1.388 1.388 0 00-.328.991 1.368 1.368 0 00.359.984 1.629 1.629 0 001.015.458h.007v1.443h-.007a3.748 3.748 0 01-1.46-.5 2.566 2.566 0 01-.922-.982 2.924 2.924 0 01-.318-1.388 3.454 3.454 0 01.3-1.517 2.141 2.141 0 01.885-.957 2.806 2.806 0 011.4-.328h.006a3.108 3.108 0 011.1.218 4.713 4.713 0 011.107.609l3.911 2.878v-3.76h1.333v5.6zM11.73 237.4a2.5 2.5 0 01-.967 1.057 2.786 2.786 0 01-1.452.372h-.165a2.8 2.8 0 01-1.4-.372 2.5 2.5 0 01-.991-1 2.175 2.175 0 01-.831.845 2.241 2.241 0 01-1.145.317h-.24a2.647 2.647 0 01-1.371-.349 2.362 2.362 0 01-.916-.984 3.526 3.526 0 010-2.953 2.362 2.362 0 01.916-.984A2.647 2.647 0 014.539 233h.239a2.2 2.2 0 011.156.325 2.165 2.165 0 01.82.858 2.569 2.569 0 011-1.008 2.725 2.725 0 011.4-.38h.165a2.786 2.786 0 011.452.372 2.5 2.5 0 01.967 1.057 3.846 3.846 0 010 3.171zm-5.67-2.324a1.254 1.254 0 00-.516-.5 1.629 1.629 0 00-.773-.177h-.095a1.5 1.5 0 00-.738.177 1.222 1.222 0 00-.5.5 1.654 1.654 0 000 1.477 1.222 1.222 0 00.5.5 1.517 1.517 0 00.745.178h.1a1.593 1.593 0 00.762-.178 1.252 1.252 0 00.513-.5 1.6 1.6 0 000-1.477zm4.481-.116a1.384 1.384 0 00-.537-.571 1.551 1.551 0 00-.8-.2h-.1a1.567 1.567 0 00-.8.2 1.39 1.39 0 00-.537.571 2.007 2.007 0 000 1.709 1.374 1.374 0 00.541.571 1.584 1.584 0 00.806.2h.1a1.538 1.538 0 00.793-.2 1.36 1.36 0 00.529-.571 2.021 2.021 0 000-1.709zM11.327 230.134a2.865 2.865 0 01-2.078.721H4.73a2.854 2.854 0 01-2.081-.725 3.388 3.388 0 010-4.228 2.857 2.857 0 012.084-.721h4.516a2.856 2.856 0 012.082.724 3.38 3.38 0 010 4.229zm-.967-3.207a1.6 1.6 0 00-1.111-.352H4.73a1.6 1.6 0 00-1.11.349 1.74 1.74 0 000 2.188 1.6 1.6 0 001.11.348h4.519a1.6 1.6 0 001.111-.351 1.735 1.735 0 000-2.182zM11.327 222.409a2.861 2.861 0 01-2.078.721H4.73a2.849 2.849 0 01-2.081-.725 3.388 3.388 0 010-4.228 2.857 2.857 0 012.084-.721h4.516a2.852 2.852 0 012.082.725 3.379 3.379 0 010 4.228zm-.967-3.209a1.6 1.6 0 00-1.111-.351H4.73a1.6 1.6 0 00-1.11.348 1.74 1.74 0 000 2.188 1.6 1.6 0 001.11.349h4.519a1.6 1.6 0 001.111-.352 1.735 1.735 0 000-2.182z"/><path class="cls-7" d="M15.441 284.628l-1.461-1.461" id="LINE-4" data-name="LINE"/><path class="cls-7" d="M16.902 283.167l-1.461 1.461" id="LINE-5" data-name="LINE"/><path class="cls-7" d="M15.339 178.792l1.461 1.461" id="LINE-6" data-name="LINE"/><path class="cls-7" d="M13.878 180.253l1.461-1.461" id="LINE-7" data-name="LINE"/><path class="cls-7" d="M31.745 298.221v-13.718" id="LINE-8" data-name="LINE"/><path class="cls-7" d="M76.963 298.241l-45.218-.034" id="LINE-9" data-name="LINE"/><path d="M44.11 310.288h-1.394v-8.422l-1.415.868v-1.442l1.415-.943h1.394zM46.216 309.077l3.466-4.621a3.416 3.416 0 00.467-.823 2.16 2.16 0 00.168-.8v-.014a1.207 1.207 0 00-.348-.923 1.391 1.391 0 00-.991-.329 1.37 1.37 0 00-.985.36 1.631 1.631 0 00-.458 1.015v.006h-1.442v-.006a3.721 3.721 0 01.5-1.459 2.559 2.559 0 01.981-.923 2.927 2.927 0 011.388-.319 3.448 3.448 0 011.517.305 2.136 2.136 0 01.957.885 2.806 2.806 0 01.329 1.4v.006a3.111 3.111 0 01-.219 1.1 4.753 4.753 0 01-.609 1.107l-2.877 3.91h3.759v1.326h-5.6zM54.319 309.646a2.868 2.868 0 01-.72-2.078v-4.52a2.853 2.853 0 01.724-2.081 3.393 3.393 0 014.229 0 2.86 2.86 0 01.72 2.084v4.52a2.856 2.856 0 01-.724 2.081 3.382 3.382 0 01-4.229 0zm3.207-.968a1.59 1.59 0 00.352-1.11v-4.52a1.6 1.6 0 00-.349-1.11 1.742 1.742 0 00-2.187 0 1.6 1.6 0 00-.349 1.11v4.52a1.59 1.59 0 00.352 1.11 1.733 1.733 0 002.181 0zM62.044 309.646a2.864 2.864 0 01-.721-2.078v-4.52a2.849 2.849 0 01.725-2.081 3.391 3.391 0 014.228 0 2.857 2.857 0 01.724 2.081v4.52a2.853 2.853 0 01-.725 2.081 3.381 3.381 0 01-4.228 0zm3.207-.968a1.6 1.6 0 00.352-1.11v-4.52a1.6 1.6 0 00-.349-1.11 1.743 1.743 0 00-2.188 0 1.6 1.6 0 00-.348 1.11v4.52a1.6 1.6 0 00.351 1.11 1.735 1.735 0 002.182 0z"/><path class="cls-7" d="M31.657 298.193l1.461 1.461" id="LINE-10" data-name="LINE"/><path class="cls-7" d="M33.118 296.731l-1.461 1.462" id="LINE-11" data-name="LINE"/><path class="cls-7" d="M76.966 298.294l-1.462-1.461" id="LINE-12" data-name="LINE"/><path class="cls-7" d="M75.504 299.756l1.462-1.462" id="LINE-13" data-name="LINE"/><path class="cls-7" d="M60.348 45.527h17.074" id="LINE-14" data-name="LINE"/><path class="cls-7" d="M60.304 11.581h17.073" id="LINE-15" data-name="LINE"/><path class="cls-7" d="M60.31 11.581l.049 33.946" id="LINE-16" data-name="LINE"/><path d="M51.96 34.934l.246.007a1.024 1.024 0 01.461.515 2.064 2.064 0 01.147.818 2.193 2.193 0 01-.362 1.251 2.372 2.372 0 01-1.022.837 3.69 3.69 0 01-1.528.3H49.9a3.823 3.823 0 01-1.648-.324 2.288 2.288 0 01-1.039-.951 2.986 2.986 0 01-.355-1.5 2.922 2.922 0 01.362-1.5 2.318 2.318 0 011.053-.946 3.868 3.868 0 011.661-.326h.007a5.191 5.191 0 011.138.137 6.955 6.955 0 011.2.39l.182.082c.061.027.122.056.181.089l4.258 2.119v1.5zm-.861-.066a1.953 1.953 0 00-1.251-.358h-.007a1.857 1.857 0 00-1.217.358 1.419 1.419 0 000 2.037 1.852 1.852 0 001.224.36h.006a1.919 1.919 0 001.248-.36 1.393 1.393 0 000-2.037zM48.2 26.136l8.7 2.57v1.484l-8.614-2.571v2.53h1.429v1.394h-2.759v-5.407zM56.7 22.782a2.421 2.421 0 01-.854.952 3.41 3.41 0 01-1.347.488h.001v-1.395a1.29 1.29 0 00.851-.437 1.416 1.416 0 00.3-.944 1.259 1.259 0 00-.448-1.035 1.939 1.939 0 00-1.261-.366h-.834a1.93 1.93 0 00-1.254.366 1.261 1.261 0 00-.448 1.035 1.317 1.317 0 00.205.7 1.964 1.964 0 00.574.588V24h-5.229v-5.062h1.326v3.671h2.236a1.985 1.985 0 01-.329-.581 1.927 1.927 0 01-.116-.657 2.885 2.885 0 01.356-1.473 2.279 2.279 0 011.039-.93 3.9 3.9 0 011.647-.317h.834a3.778 3.778 0 011.648.328 2.323 2.323 0 011.042.957 3 3 0 01.361 1.51 2.928 2.928 0 01-.3 1.336z"/><path class="cls-7" d="M60.366 45.527l-1.462-1.462" id="LINE-17" data-name="LINE"/><path class="cls-7" d="M61.827 44.065l-1.461 1.462" id="LINE-18" data-name="LINE"/><path class="cls-7" d="M60.264 11.581l1.461 1.461" id="LINE-19" data-name="LINE"/><path class="cls-7" d="M58.803 13.042l1.461-1.461" id="LINE-20" data-name="LINE"/><path class="cls-7" d="M60.348 190.206h17.074" id="LINE-21" data-name="LINE"/><path class="cls-7" d="M60.304 128.823h17.073" id="LINE-22" data-name="LINE"/><path class="cls-7" d="M60.31 128.823l.049 61.383" id="LINE-23" data-name="LINE"/><path d="M56.9 169.463v1.4h-8.426l.868 1.415H47.9l-.943-1.415v-1.4zM56.646 166.141a2.293 2.293 0 01-1.025.947 3.721 3.721 0 01-1.624.324h-.007a5.545 5.545 0 01-1.162-.13 6.761 6.761 0 01-1.2-.376 2.416 2.416 0 01-.2-.088l-.2-.1-4.279-2.16v-1.5l4.956 2.536-.246-.007a1.2 1.2 0 01-.5-.5 1.579 1.579 0 01-.178-.766 2.435 2.435 0 01.357-1.321 2.182 2.182 0 011.015-.841 4.047 4.047 0 011.6-.287h.007a3.791 3.791 0 011.641.326 2.289 2.289 0 011.039.949 3.355 3.355 0 010 3zm-1.4-2.52a1.726 1.726 0 00-1.169-.358h-.007a1.966 1.966 0 00-1.288.376 1.311 1.311 0 00-.455 1.073 1.133 1.133 0 00.458.964 2.131 2.131 0 001.292.342h.007a1.7 1.7 0 001.165-.36 1.474 1.474 0 000-2.037zM51.96 156.5l.246.007a1.022 1.022 0 01.461.516 2.059 2.059 0 01.147.817 2.189 2.189 0 01-.362 1.251 2.374 2.374 0 01-1.022.838 3.706 3.706 0 01-1.528.3H49.9a3.823 3.823 0 01-1.648-.325 2.283 2.283 0 01-1.039-.951 2.986 2.986 0 01-.355-1.5 2.922 2.922 0 01.362-1.5 2.323 2.323 0 011.053-.946 3.869 3.869 0 011.661-.325h.007a5.248 5.248 0 011.138.136 6.955 6.955 0 011.2.39l.182.082c.061.028.122.057.181.089L56.9 157.5v1.5zm-.861-.065a1.947 1.947 0 00-1.251-.359h-.007a1.852 1.852 0 00-1.217.359 1.419 1.419 0 000 2.037 1.857 1.857 0 001.224.359h.006a1.925 1.925 0 001.248-.359 1.393 1.393 0 000-2.037zM56.253 152.117a2.864 2.864 0 01-2.078.721h-4.519a2.843 2.843 0 110-5.674h4.519A2.559 2.559 0 0157 150a2.812 2.812 0 01-.747 2.117zm-.967-3.207a1.6 1.6 0 00-1.111-.351h-4.519a1.607 1.607 0 00-1.111.348 1.743 1.743 0 000 2.188 1.607 1.607 0 001.111.349h4.519a1.6 1.6 0 001.111-.352 1.735 1.735 0 000-2.182z"/><path class="cls-7" d="M60.366 190.206l-1.462-1.461" id="LINE-24" data-name="LINE"/><path class="cls-7" d="M61.827 188.745l-1.461 1.461" id="LINE-25" data-name="LINE"/><path class="cls-7" d="M60.264 128.823l1.461 1.461" id="LINE-26" data-name="LINE"/><path class="cls-7" d="M58.803 130.284l1.461-1.461" id="LINE-27" data-name="LINE"/><path class="cls-7" d="M60.348 273.206h17.074" id="LINE-28" data-name="LINE"/><path class="cls-7" d="M60.304 190.089h17.073" id="LINE-29" data-name="LINE"/><path class="cls-7" d="M60.31 190.089l.049 83.117" id="LINE-30" data-name="LINE"/><path d="M55.686 244.17l-4.622-3.47a3.435 3.435 0 00-.823-.467 2.169 2.169 0 00-.8-.168h-.013a1.207 1.207 0 00-.923.348 1.391 1.391 0 00-.328.991 1.365 1.365 0 00.359.985 1.629 1.629 0 001.015.458h.007v1.442h-.007a3.731 3.731 0 01-1.46-.5 2.566 2.566 0 01-.923-.981 2.929 2.929 0 01-.317-1.388 3.456 3.456 0 01.3-1.518 2.141 2.141 0 01.885-.957 2.813 2.813 0 011.4-.328h.007a3.11 3.11 0 011.1.219 4.745 4.745 0 011.107.608l3.91 2.878v-3.759h1.34v5.6zM56.9 234.388v1.394h-8.426l.868 1.415H47.9l-.943-1.415v-1.394zM56.646 231.066a2.293 2.293 0 01-1.025.947 3.721 3.721 0 01-1.624.324h-.007a5.545 5.545 0 01-1.162-.13 6.761 6.761 0 01-1.2-.376 2.127 2.127 0 01-.2-.089l-.2-.095-4.279-2.16v-1.5l4.956 2.536-.246-.007a1.2 1.2 0 01-.5-.5 1.579 1.579 0 01-.178-.766 2.435 2.435 0 01.349-1.326 2.182 2.182 0 011.015-.841 4.047 4.047 0 011.6-.287h.007a3.806 3.806 0 011.641.325 2.3 2.3 0 011.039.95 3.355 3.355 0 010 3zm-1.4-2.52a1.726 1.726 0 00-1.169-.358h-.007a1.966 1.966 0 00-1.288.376 1.311 1.311 0 00-.455 1.073 1.133 1.133 0 00.458.964 2.131 2.131 0 001.292.342h.007a1.7 1.7 0 001.165-.36 1.474 1.474 0 000-2.037zM56.253 224.227a2.868 2.868 0 01-2.078.72h-4.519a2.852 2.852 0 01-2.081-.724 3.391 3.391 0 010-4.229 2.861 2.861 0 012.085-.72h4.519A2.558 2.558 0 0157 222.111a2.815 2.815 0 01-.747 2.116zm-.967-3.207a1.593 1.593 0 00-1.111-.352h-4.519a1.6 1.6 0 00-1.111.349 1.742 1.742 0 000 2.187 1.6 1.6 0 001.111.349h4.519a1.593 1.593 0 001.111-.352 1.733 1.733 0 000-2.181z"/><path class="cls-7" d="M60.366 273.206l-1.462-1.461" id="LINE-31" data-name="LINE"/><path class="cls-7" d="M61.827 271.745l-1.461 1.461" id="LINE-32" data-name="LINE"/><path class="cls-7" d="M60.264 190.089l1.461 1.461" id="LINE-33" data-name="LINE"/><path class="cls-7" d="M58.803 191.55l1.461-1.461" id="LINE-34" data-name="LINE"/><path class="cls-7" d="M60.348 128.811h17.074" id="LINE-35" data-name="LINE"/><path class="cls-7" d="M60.304 45.564h17.073" id="LINE-36" data-name="LINE"/><path class="cls-7" d="M60.31 45.564l.049 83.247" id="LINE-37" data-name="LINE"/><path d="M55.686 99.569L51.064 96.1a3.439 3.439 0 00-.823-.468 2.19 2.19 0 00-.8-.168h-.013a1.2 1.2 0 00-.923.349 1.388 1.388 0 00-.328.991 1.364 1.364 0 00.359.984 1.623 1.623 0 001.015.458h.007v1.443h-.007a3.731 3.731 0 01-1.46-.5 2.562 2.562 0 01-.923-.982 2.924 2.924 0 01-.317-1.388 3.454 3.454 0 01.3-1.517 2.136 2.136 0 01.885-.957 2.8 2.8 0 011.4-.328h.007a3.088 3.088 0 011.1.219 4.673 4.673 0 011.107.608l3.91 2.878v-3.76h1.34v5.606zM56.9 89.786v1.395h-8.426l.868 1.415H47.9l-.943-1.415v-1.395zM56.646 86.464a2.287 2.287 0 01-1.025.947 3.721 3.721 0 01-1.621.325h-.01a5.545 5.545 0 01-1.162-.13 6.761 6.761 0 01-1.2-.376 2.81 2.81 0 01-.2-.089l-.2-.1-4.279-2.16v-1.5l4.956 2.536-.246-.007a1.2 1.2 0 01-.5-.5 1.572 1.572 0 01-.178-.765 2.432 2.432 0 01.349-1.326 2.17 2.17 0 011.015-.841 4.029 4.029 0 011.6-.287h.007a3.791 3.791 0 011.641.325 2.3 2.3 0 011.039.949 3.355 3.355 0 010 3zm-1.4-2.519a1.721 1.721 0 00-1.169-.359h-.007a1.966 1.966 0 00-1.288.376 1.311 1.311 0 00-.455 1.073 1.132 1.132 0 00.458.964 2.124 2.124 0 001.292.342h.007a1.7 1.7 0 001.165-.359 1.474 1.474 0 000-2.037zM56.253 79.625a2.864 2.864 0 01-2.078.721h-4.519a2.843 2.843 0 110-5.674h4.519A2.559 2.559 0 0157 77.509a2.812 2.812 0 01-.747 2.116zm-.967-3.207a1.6 1.6 0 00-1.111-.351h-4.519a1.607 1.607 0 00-1.111.348 1.743 1.743 0 000 2.188 1.607 1.607 0 001.111.348h4.519a1.6 1.6 0 001.111-.351 1.735 1.735 0 000-2.182z"/><path class="cls-7" d="M60.366 128.811l-1.462-1.461" id="LINE-38" data-name="LINE"/><path class="cls-7" d="M61.827 127.35l-1.461 1.461" id="LINE-39" data-name="LINE"/><path class="cls-7" d="M60.264 45.564l1.461 1.461" id="LINE-40" data-name="LINE"/><path class="cls-7" d="M58.803 47.025l1.461-1.461" id="LINE-41" data-name="LINE"/><path class="cls-7" d="M387.609 88.305H365.15" id="LINE-42" data-name="LINE"/><path class="cls-7" d="M387.609 127.714H365.15" id="LINE-43" data-name="LINE"/><path class="cls-7" d="M387.61 88.305v39.409" id="LINE-44" data-name="LINE"/><path d="M399.783 117.037v1.408h-8.422l.868 1.43h-1.442l-.944-1.43v-1.408zM399.783 112.337v1.408h-8.422l.868 1.429h-1.442l-.944-1.429v-1.408zM399.14 109.33a2.844 2.844 0 01-2.078.728h-4.519a2.835 2.835 0 01-2.081-.731 2.866 2.866 0 012.081-5h4.519a2.837 2.837 0 012.082.732 3.438 3.438 0 010 4.269zm-.967-3.237a1.583 1.583 0 00-1.111-.356h-4.519a1.589 1.589 0 00-1.11.353 1.768 1.768 0 000 2.208 1.589 1.589 0 001.11.352h4.519a1.583 1.583 0 001.111-.355 1.763 1.763 0 000-2.2zM399.14 101.53a2.849 2.849 0 01-2.078.728h-4.519a2.571 2.571 0 01-2.823-2.865 2.562 2.562 0 012.823-2.864h4.519a3.018 3.018 0 012.078 5zm-.967-3.237a1.578 1.578 0 00-1.111-.356h-4.519a1.589 1.589 0 00-1.11.352 1.77 1.77 0 000 2.209 1.589 1.589 0 001.11.352h4.519a1.578 1.578 0 001.111-.356 1.762 1.762 0 000-2.2z"/><path class="cls-7" d="M387.61 88.305l1.461 1.476" id="LINE-45" data-name="LINE"/><path class="cls-7" d="M386.149 89.781l1.461-1.476" id="LINE-46" data-name="LINE"/><path class="cls-7" d="M387.609 127.714l-1.461-1.475" id="LINE-47" data-name="LINE"/><path class="cls-7" d="M389.07 126.239l-1.461 1.475" id="LINE-48" data-name="LINE"/><path class="cls-7" d="M231.254 87.805h22.459" id="LINE-49" data-name="LINE"/><path class="cls-7" d="M231.254 120.131h22.459" id="LINE-50" data-name="LINE"/><path class="cls-7" d="M231.253 87.805v32.326" id="LINE-51" data-name="LINE"/><path d="M222.683 110.806l.246.007a1.026 1.026 0 01.461.521 2.093 2.093 0 01.148.825 2.228 2.228 0 01-.363 1.263 2.373 2.373 0 01-1.021.846 3.663 3.663 0 01-1.529.3h-.006a3.778 3.778 0 01-1.648-.328 2.3 2.3 0 01-1.039-.96 3.039 3.039 0 01-.355-1.515 2.981 2.981 0 01.362-1.511 2.333 2.333 0 011.053-.956 3.835 3.835 0 011.661-.329h.007a5.14 5.14 0 011.138.139 7.007 7.007 0 011.2.393l.181.083c.061.028.121.057.181.09l4.259 2.14v1.518zm-.861-.066a1.932 1.932 0 00-1.251-.362h-.007a1.841 1.841 0 00-1.217.362 1.445 1.445 0 000 2.057 1.847 1.847 0 001.224.363h.007a1.916 1.916 0 001.248-.363 1.418 1.418 0 000-2.057zM226.976 106.378a2.849 2.849 0 01-2.078.728h-4.519a2.834 2.834 0 01-2.081-.732 2.866 2.866 0 012.081-5h4.521a2.836 2.836 0 012.082.731 3.439 3.439 0 010 4.27zm-.967-3.238a1.584 1.584 0 00-1.111-.355h-4.519a1.589 1.589 0 00-1.11.352 1.768 1.768 0 000 2.208 1.589 1.589 0 001.11.352h4.521a1.584 1.584 0 001.111-.355 1.763 1.763 0 000-2.2zM226.976 98.577a2.844 2.844 0 01-2.078.728h-4.519a2.834 2.834 0 01-2.081-.731 2.866 2.866 0 012.081-5h4.521a2.837 2.837 0 012.082.732 3.438 3.438 0 010 4.269zm-.967-3.237a1.584 1.584 0 00-1.111-.355h-4.519a1.589 1.589 0 00-1.11.352 1.768 1.768 0 000 2.208 1.589 1.589 0 001.11.352h4.521a1.584 1.584 0 001.111-.355 1.763 1.763 0 000-2.2z"/><path class="cls-7" d="M231.253 87.805l-1.461 1.476" id="LINE-52" data-name="LINE"/><path class="cls-7" d="M232.714 89.281l-1.461-1.476" id="LINE-53" data-name="LINE"/><path class="cls-7" d="M231.254 120.131l1.461-1.476" id="LINE-54" data-name="LINE"/><path class="cls-7" d="M229.793 118.655l1.461 1.476" id="LINE-55" data-name="LINE"/><path class="cls-7" d="M325.921 150.839h8.378" id="LINE-56" data-name="LINE"/><path class="cls-7" d="M325.921 221.943h8.378" id="LINE-57" data-name="LINE"/><path class="cls-7" d="M325.92 150.839v71.104" id="LINE-58" data-name="LINE"/><path d="M322.287 197.06v1.408h-8.422l.868 1.43h-1.442l-.944-1.43v-1.408zM322.047 193.443a2.5 2.5 0 01-.967 1.066 2.75 2.75 0 01-1.453.377h-.164a2.761 2.761 0 01-1.4-.377 2.5 2.5 0 01-.991-1 2.181 2.181 0 01-.831.853 2.223 2.223 0 01-1.145.321h-.239a2.61 2.61 0 01-1.37-.353 2.361 2.361 0 01-.916-.993 3.583 3.583 0 010-2.982 2.364 2.364 0 01.916-.994 2.619 2.619 0 011.37-.352h.239a2.259 2.259 0 011.976 1.193 2.578 2.578 0 01.995-1.017 2.7 2.7 0 011.4-.384h.164a2.768 2.768 0 011.453.376 2.513 2.513 0 01.967 1.066 3.923 3.923 0 010 3.2zm-5.671-2.347a1.257 1.257 0 00-.515-.5 1.61 1.61 0 00-.773-.179h-.1a1.484 1.484 0 00-.739.179 1.244 1.244 0 00-.5.5 1.675 1.675 0 000 1.491 1.232 1.232 0 00.5.5 1.511 1.511 0 00.746.18h.1a1.59 1.59 0 00.763-.18 1.253 1.253 0 00.511-.5 1.618 1.618 0 000-1.491zm4.482-.117a1.4 1.4 0 00-.536-.577 1.549 1.549 0 00-.8-.2h-.1a1.559 1.559 0 00-.8.2 1.394 1.394 0 00-.537.577 2.043 2.043 0 000 1.725 1.379 1.379 0 00.54.576 1.56 1.56 0 00.807.205h.1a1.511 1.511 0 00.793-.205 1.367 1.367 0 00.529-.576 1.881 1.881 0 00.188-.863 1.858 1.858 0 00-.184-.862zM321.644 186.1a2.848 2.848 0 01-2.078.727h-4.519a2.569 2.569 0 01-2.823-2.864 2.872 2.872 0 01.738-2.136 2.843 2.843 0 012.085-.728h4.519a3.018 3.018 0 012.078 5zm-.967-3.238a1.584 1.584 0 00-1.111-.355h-4.519a1.589 1.589 0 00-1.11.352 1.77 1.77 0 000 2.209 1.593 1.593 0 001.11.351h4.519a1.58 1.58 0 001.111-.355 1.763 1.763 0 000-2.2zM321.644 178.3a2.848 2.848 0 01-2.078.727h-4.519a2.569 2.569 0 01-2.823-2.864 2.872 2.872 0 01.738-2.136 2.843 2.843 0 012.085-.728h4.519a3.018 3.018 0 012.078 5zm-.967-3.237a1.58 1.58 0 00-1.111-.356h-4.519a1.589 1.589 0 00-1.11.352 1.77 1.77 0 000 2.209 1.593 1.593 0 001.11.351h4.519a1.58 1.58 0 001.111-.355 1.762 1.762 0 000-2.2z"/><path class="cls-7" d="M325.92 150.839l-1.461 1.476" id="LINE-59" data-name="LINE"/><path class="cls-7" d="M327.381 152.315l-1.461-1.476" id="LINE-60" data-name="LINE"/><path class="cls-7" d="M325.921 221.943l1.461-1.475" id="LINE-61" data-name="LINE"/><path class="cls-7" d="M324.459 220.468l1.462 1.475" id="LINE-62" data-name="LINE"/><path class="cls-7" d="M120.338 11.361v139.344" id="LINE-63" data-name="LINE"/><path d="M132.432 92.663l-.3.635a2.508 2.508 0 01-.882 1.02 3.182 3.182 0 01-1.391.488v-1.42a1.5 1.5 0 00.7-.266 1.21 1.21 0 00.406-.529 1.971 1.971 0 00.134-.761 1.48 1.48 0 00-.369-1.072 1.377 1.377 0 00-1.039-.382h-.3a1.672 1.672 0 00-1.151.361 1.3 1.3 0 00-.407 1.024v.7H126.5v-.7a1.162 1.162 0 00-.349-.9 1.4 1.4 0 00-.984-.322h-.308a1.2 1.2 0 00-.909.338 1.342 1.342 0 00-.322.96 1.439 1.439 0 00.134.634 1.206 1.206 0 00.41.475 1.872 1.872 0 00.694.283v1.413a3.622 3.622 0 01-1.395-.515 2.528 2.528 0 01-.882-.959 2.859 2.859 0 01-.3-1.331 2.75 2.75 0 01.676-1.987 2.524 2.524 0 011.908-.7h.164a2.148 2.148 0 011.3.4 2.275 2.275 0 01.807 1.141 2.017 2.017 0 01.8-1.26 2.651 2.651 0 011.586-.447h.164a3.051 3.051 0 011.483.335 2.213 2.213 0 01.937.972 3.4 3.4 0 01.321 1.54zM123.634 81.876l8.7 2.567v1.481l-8.614-2.566v2.525h1.429v1.393h-2.759v-5.4zM132.08 79.446a2.286 2.286 0 01-1.026.945 3.7 3.7 0 01-1.623.325h-.007a5.537 5.537 0 01-1.162-.13 6.783 6.783 0 01-1.2-.375 3.658 3.658 0 01-.2-.089l-.2-.1-4.279-2.157v-1.5l4.956 2.533-.246-.007a1.2 1.2 0 01-.5-.5 1.589 1.589 0 01-.178-.765 2.44 2.44 0 01.349-1.325 2.178 2.178 0 011.015-.839 4.05 4.05 0 011.6-.287h.007a3.791 3.791 0 011.641.325 2.287 2.287 0 011.039.948 3.347 3.347 0 010 2.994zm-1.4-2.516a1.721 1.721 0 00-1.169-.358h-.007a1.973 1.973 0 00-1.288.375 1.312 1.312 0 00-.455 1.072 1.133 1.133 0 00.458.963 2.135 2.135 0 001.292.341h.007a1.709 1.709 0 001.165-.358 1.471 1.471 0 000-2.035zM131.687 72.616a2.866 2.866 0 01-2.078.72h-4.519a2.852 2.852 0 01-2.081-.724 3.381 3.381 0 010-4.222 2.864 2.864 0 012.085-.72h4.519a2.859 2.859 0 012.082.723 3.372 3.372 0 010 4.223zm-.967-3.2a1.6 1.6 0 00-1.111-.351h-4.519a1.6 1.6 0 00-1.11.348 1.734 1.734 0 000 2.184 1.6 1.6 0 001.11.349h4.519a1.6 1.6 0 001.111-.352 1.729 1.729 0 000-2.178z"/><path class="cls-7" d="M120.338 150.705l-1.461-1.459" id="LINE-64" data-name="LINE"/><path class="cls-7" d="M121.799 149.246l-1.461 1.459" id="LINE-65" data-name="LINE"/><path class="cls-7" d="M120.339 11.361l1.461 1.459" id="LINE-66" data-name="LINE"/><path class="cls-7" d="M118.878 12.82l1.461-1.459" id="LINE-67" data-name="LINE"/><path class="cls-7" d="M120.338 159.964v134.408" id="LINE-68" data-name="LINE"/><path d="M132.432 236.941l-.3.634a2.51 2.51 0 01-.882 1.021 3.182 3.182 0 01-1.391.488v-1.42a1.509 1.509 0 00.7-.266 1.213 1.213 0 00.406-.53 1.962 1.962 0 00.134-.76 1.483 1.483 0 00-.369-1.073 1.377 1.377 0 00-1.039-.382h-.3a1.672 1.672 0 00-1.151.362 1.3 1.3 0 00-.407 1.024v.7H126.5v-.7a1.166 1.166 0 00-.349-.9 1.4 1.4 0 00-.984-.321h-.308a1.2 1.2 0 00-.909.337 1.342 1.342 0 00-.322.96 1.441 1.441 0 00.134.635 1.206 1.206 0 00.41.475 1.889 1.889 0 00.694.283v1.413a3.622 3.622 0 01-1.395-.516 2.521 2.521 0 01-.882-.959 2.856 2.856 0 01-.3-1.331 2.752 2.752 0 01.676-1.987 2.524 2.524 0 011.908-.7h.164a2.149 2.149 0 011.3.4 2.277 2.277 0 01.807 1.14 2.022 2.022 0 01.8-1.26 2.651 2.651 0 011.586-.446h.164a3.063 3.063 0 011.483.334 2.22 2.22 0 01.937.973 3.4 3.4 0 01.321 1.54zM132.08 230.216a2.286 2.286 0 01-1.026.945 3.71 3.71 0 01-1.623.325h-.007a5.537 5.537 0 01-1.162-.13 6.783 6.783 0 01-1.2-.375 3.658 3.658 0 01-.2-.089l-.2-.1-4.279-2.157v-1.5l4.956 2.532-.246-.007a1.187 1.187 0 01-.5-.5 1.585 1.585 0 01-.178-.764 2.44 2.44 0 01.349-1.325 2.173 2.173 0 011.015-.839 4.032 4.032 0 011.6-.288h.007a3.791 3.791 0 011.641.326 2.287 2.287 0 011.039.948 3.347 3.347 0 010 2.994zm-1.4-2.516a1.721 1.721 0 00-1.169-.358h-.007a1.973 1.973 0 00-1.288.375 1.311 1.311 0 00-.455 1.072 1.13 1.13 0 00.458.962 2.128 2.128 0 001.292.342h.007a1.709 1.709 0 001.165-.358 1.471 1.471 0 000-2.035zM131.687 223.386a2.87 2.87 0 01-2.078.72h-4.519a2.856 2.856 0 01-2.081-.724 3.382 3.382 0 010-4.223 2.868 2.868 0 012.085-.719h4.519a2.859 2.859 0 012.082.723 3.372 3.372 0 010 4.223zm-.967-3.2a1.593 1.593 0 00-1.111-.352h-4.519a1.6 1.6 0 00-1.11.349 1.734 1.734 0 000 2.184 1.6 1.6 0 001.11.348h4.519a1.6 1.6 0 001.111-.351 1.729 1.729 0 000-2.178zM131.687 215.671a2.862 2.862 0 01-2.078.721h-4.519a2.852 2.852 0 01-2.081-.724 3.382 3.382 0 010-4.223 2.864 2.864 0 012.085-.72h4.519a2.864 2.864 0 012.082.723 3.372 3.372 0 010 4.223zm-.967-3.2a1.6 1.6 0 00-1.111-.352h-4.519a1.6 1.6 0 00-1.11.348 1.736 1.736 0 000 2.185 1.6 1.6 0 001.11.348h4.519a1.6 1.6 0 001.111-.351 1.729 1.729 0 000-2.178z"/><path class="cls-7" d="M120.338 294.372l-1.461-1.459" id="LINE-69" data-name="LINE"/><path class="cls-7" d="M121.799 292.913l-1.461 1.459" id="LINE-70" data-name="LINE"/><path class="cls-7" d="M120.339 159.964l1.461 1.459" id="LINE-71" data-name="LINE"/><path class="cls-7" d="M118.878 161.423l1.461-1.459" id="LINE-72" data-name="LINE"/><path class="cls-7" d="M262.922 81.506v69.199" id="LINE-73" data-name="LINE"/><path d="M274.914 126.386v1.393h-8.422l.868 1.413h-1.443l-.943-1.413v-1.393zM269.978 120.617l.246.007a1.022 1.022 0 01.461.516 2.054 2.054 0 01.148.816 2.193 2.193 0 01-.363 1.249 2.36 2.36 0 01-1.021.836 3.7 3.7 0 01-1.529.3h-.006a3.823 3.823 0 01-1.648-.324 2.284 2.284 0 01-1.039-.949 2.981 2.981 0 01-.355-1.5 2.928 2.928 0 01.362-1.5 2.327 2.327 0 011.053-.945 3.88 3.88 0 011.661-.325h.007a5.191 5.191 0 011.138.137 7.038 7.038 0 011.2.389l.182.082c.061.028.121.057.181.089l4.259 2.116v1.5zm-.861-.064a1.943 1.943 0 00-1.251-.358h-.007a1.85 1.85 0 00-1.217.358 1.415 1.415 0 000 2.034 1.863 1.863 0 001.224.358h.007a1.932 1.932 0 001.248-.358 1.242 1.242 0 00.44-1.02 1.229 1.229 0 00-.444-1.014zM274.674 115.633a2.482 2.482 0 01-.967 1.056 2.785 2.785 0 01-1.453.372h-.164a2.793 2.793 0 01-1.4-.372 2.481 2.481 0 01-.991-.994 2.163 2.163 0 01-.831.843 2.23 2.23 0 01-1.145.318h-.239a2.655 2.655 0 01-1.37-.348 2.353 2.353 0 01-.916-.983 3.51 3.51 0 010-2.95 2.353 2.353 0 01.916-.983 2.645 2.645 0 011.37-.348h.239a2.2 2.2 0 011.155.325 2.149 2.149 0 01.821.856 2.573 2.573 0 011-1.007 2.738 2.738 0 011.4-.379h.164a2.785 2.785 0 011.453.372 2.485 2.485 0 01.967 1.055 3.837 3.837 0 010 3.167zm-5.674-2.32a1.251 1.251 0 00-.515-.5 1.632 1.632 0 00-.773-.177h-.095a1.5 1.5 0 00-.739.177 1.226 1.226 0 00-.495.5 1.639 1.639 0 000 1.474 1.218 1.218 0 00.495.5 1.509 1.509 0 00.745.178h.1a1.589 1.589 0 00.763-.178 1.251 1.251 0 00.511-.5 1.583 1.583 0 000-1.474zm4.482-.117a1.389 1.389 0 00-.536-.569 1.548 1.548 0 00-.8-.2h-.1a1.555 1.555 0 00-.8.2 1.385 1.385 0 00-.537.569 2 2 0 000 1.707 1.376 1.376 0 00.54.57 1.577 1.577 0 00.807.2h.1a1.522 1.522 0 00.792-.2 1.359 1.359 0 00.53-.57 1.845 1.845 0 00.188-.853 1.825 1.825 0 00-.181-.85zM274.271 108.374a2.866 2.866 0 01-2.078.72h-4.519a2.852 2.852 0 01-2.081-.724 3.381 3.381 0 010-4.222 2.865 2.865 0 012.085-.721h4.519a2.86 2.86 0 012.082.724 3.372 3.372 0 010 4.223zm-.967-3.2a1.6 1.6 0 00-1.111-.352h-4.519a1.6 1.6 0 00-1.11.349 1.734 1.734 0 000 2.184 1.6 1.6 0 001.11.348h4.519a1.6 1.6 0 001.111-.351 1.729 1.729 0 000-2.178z"/><path class="cls-7" d="M262.922 150.705l-1.462-1.459" id="LINE-74" data-name="LINE"/><path class="cls-7" d="M264.383 149.246l-1.461 1.459" id="LINE-75" data-name="LINE"/><path class="cls-7" d="M262.922 81.506l1.462 1.459" id="LINE-76" data-name="LINE"/><path class="cls-7" d="M261.461 82.965l1.461-1.459" id="LINE-77" data-name="LINE"/><path class="cls-7" d="M262.922 11.256v66.783" id="LINE-78" data-name="LINE"/><path d="M274.914 54.86v1.393h-8.422l.868 1.413h-1.443l-.943-1.413V54.86zM266.218 47.481l8.7 2.567v1.481l-8.618-2.567v2.526h1.429v1.393h-2.755v-5.4zM274.674 44.244a2.479 2.479 0 01-.967 1.055 2.776 2.776 0 01-1.453.373h-.164a2.784 2.784 0 01-1.4-.373 2.485 2.485 0 01-.991-.993 2.17 2.17 0 01-.831.843 2.229 2.229 0 01-1.145.317h-.239a2.645 2.645 0 01-1.37-.348 2.347 2.347 0 01-.916-.983 3.507 3.507 0 010-2.949 2.353 2.353 0 01.916-.983 2.645 2.645 0 011.37-.348h.239a2.207 2.207 0 011.155.324 2.158 2.158 0 01.821.857 2.56 2.56 0 011-1.007 2.738 2.738 0 011.4-.379h.164a2.785 2.785 0 011.453.372 2.485 2.485 0 01.967 1.055 3.837 3.837 0 010 3.167zM269 41.924a1.251 1.251 0 00-.515-.5 1.632 1.632 0 00-.773-.177h-.095a1.5 1.5 0 00-.739.177 1.226 1.226 0 00-.495.5 1.639 1.639 0 000 1.474 1.218 1.218 0 00.495.5 1.509 1.509 0 00.745.178h.1a1.589 1.589 0 00.763-.178 1.251 1.251 0 00.511-.5 1.583 1.583 0 000-1.474zm4.482-.117a1.4 1.4 0 00-.536-.57 1.558 1.558 0 00-.8-.2h-.1a1.564 1.564 0 00-.8.2 1.394 1.394 0 00-.537.57 2 2 0 000 1.707 1.376 1.376 0 00.54.57 1.587 1.587 0 00.807.2h.1a1.531 1.531 0 00.792-.2 1.359 1.359 0 00.53-.57 1.845 1.845 0 00.188-.853 1.825 1.825 0 00-.181-.854zM274.271 36.985a2.866 2.866 0 01-2.078.72h-4.519a2.852 2.852 0 01-2.081-.724 2.812 2.812 0 01-.742-2.109 2.826 2.826 0 01.738-2.114 2.864 2.864 0 012.085-.72h4.519a2.86 2.86 0 012.082.724 2.818 2.818 0 01.741 2.11 2.806 2.806 0 01-.745 2.113zm-.967-3.2a1.6 1.6 0 00-1.111-.352h-4.519a1.6 1.6 0 00-1.11.348 1.736 1.736 0 000 2.185 1.6 1.6 0 001.11.348h4.519a1.6 1.6 0 001.111-.351 1.729 1.729 0 000-2.178z"/><path class="cls-7" d="M262.922 78.039l-1.462-1.46" id="LINE-79" data-name="LINE"/><path class="cls-7" d="M264.383 76.579l-1.461 1.46" id="LINE-80" data-name="LINE"/><path class="cls-7" d="M262.922 11.256l1.462 1.459" id="LINE-81" data-name="LINE"/><path class="cls-7" d="M261.461 12.715l1.461-1.459" id="LINE-82" data-name="LINE"/><path class="cls-7" d="M342.422 222.152v72.104" id="LINE-83" data-name="LINE"/><path d="M354.414 268.256v1.394h-8.422l.868 1.413h-1.443l-.943-1.413v-1.394zM349.478 262.487l.246.007a1.026 1.026 0 01.461.516 2.054 2.054 0 01.148.816 2.19 2.19 0 01-.363 1.249 2.353 2.353 0 01-1.021.836 3.679 3.679 0 01-1.529.3h-.006a3.808 3.808 0 01-1.648-.324 2.288 2.288 0 01-1.039-.948 2.985 2.985 0 01-.355-1.5 2.925 2.925 0 01.362-1.5 2.329 2.329 0 011.053-.946 3.881 3.881 0 011.661-.324h.007a5.191 5.191 0 011.138.137 7.033 7.033 0 011.2.388l.182.082c.061.028.121.057.181.089l4.259 2.117v1.5zm-.861-.064a1.943 1.943 0 00-1.251-.358h-.007a1.85 1.85 0 00-1.217.358 1.415 1.415 0 000 2.034 1.863 1.863 0 001.224.359h.007a1.933 1.933 0 001.248-.359 1.391 1.391 0 000-2.034zM351.679 259.511l-7.2-3.331v-1.434L351.6 258v-4.868h1.292v6.383zm-3.11-4.28v-1.359h5.851v1.359zM353.771 250.7a2.862 2.862 0 01-2.078.721h-4.519a2.852 2.852 0 01-2.081-.724 3.381 3.381 0 010-4.222 2.861 2.861 0 012.085-.721h4.519a2.86 2.86 0 012.082.724 3.37 3.37 0 010 4.222zm-.967-3.2a1.6 1.6 0 00-1.111-.351h-4.519a1.6 1.6 0 00-1.11.347 1.736 1.736 0 000 2.185 1.6 1.6 0 001.11.348h4.519a1.6 1.6 0 001.111-.351 1.729 1.729 0 000-2.178z"/><path class="cls-7" d="M342.422 294.256l-1.462-1.46" id="LINE-84" data-name="LINE"/><path class="cls-7" d="M343.883 292.796l-1.461 1.46" id="LINE-85" data-name="LINE"/><path class="cls-7" d="M342.422 222.152l1.462 1.459" id="LINE-86" data-name="LINE"/><path class="cls-7" d="M340.961 223.611l1.461-1.459" id="LINE-87" data-name="LINE"/><path class="cls-7" d="M325.672 30.068v47.971" id="LINE-88" data-name="LINE"/><path d="M324.289 62.7v1.393h-8.422l.868 1.414h-1.443l-.943-1.414V62.7zM323.079 60.6l-4.621-3.461a3.5 3.5 0 00-.824-.468 2.208 2.208 0 00-.8-.167h-.013a1.207 1.207 0 00-.923.348 1.387 1.387 0 00-.328.99 1.368 1.368 0 00.358.983 1.633 1.633 0 001.016.457h.007v1.438h-.007a3.7 3.7 0 01-1.459-.5 2.545 2.545 0 01-.924-.98 2.926 2.926 0 01-.317-1.385 3.464 3.464 0 01.3-1.516 2.133 2.133 0 01.886-.955 2.808 2.808 0 011.4-.328h.007a3.108 3.108 0 011.1.218 4.708 4.708 0 011.107.608l3.91 2.874V55h1.327v5.6zM324.289 50.828v1.393h-8.422l.868 1.413h-1.443l-.943-1.413v-1.393zM324.1 47.138a2.412 2.412 0 01-.854.949 3.41 3.41 0 01-1.347.488h-.007v-1.393h.007a1.3 1.3 0 00.852-.437 1.417 1.417 0 00.3-.942 1.257 1.257 0 00-.448-1.034 1.947 1.947 0 00-1.261-.366h-.834a1.939 1.939 0 00-1.255.366 1.262 1.262 0 00-.447 1.034 1.32 1.32 0 00.205.7 1.973 1.973 0 00.574.587v1.269h-5.236V43.3h1.326v3.666h2.236a1.947 1.947 0 01-.328-.581 1.894 1.894 0 01-.117-.655 2.865 2.865 0 01.356-1.471 2.277 2.277 0 011.039-.929 3.9 3.9 0 011.647-.317h.834a3.778 3.778 0 011.648.328 2.329 2.329 0 011.043.956 3 3 0 01.358 1.508 2.927 2.927 0 01-.291 1.333z"/><path class="cls-7" d="M325.672 78.039l-1.462-1.46" id="LINE-89" data-name="LINE"/><path class="cls-7" d="M327.133 76.579l-1.461 1.46" id="LINE-90" data-name="LINE"/><path class="cls-7" d="M325.672 30.068l1.462 1.459" id="LINE-91" data-name="LINE"/><path class="cls-7" d="M324.211 31.527l1.461-1.459" id="LINE-92" data-name="LINE"/><path class="cls-7" d="M328.195 29.964h-6.25"/><path class="cls-7" d="M101.048 280.31h255.62" id="LINE-93" data-name="LINE"/><path d="M216.034 292.324a2.3 2.3 0 01-.948-1.025 3.732 3.732 0 01-.324-1.624v-.007a5.545 5.545 0 01.13-1.162 6.787 6.787 0 01.376-1.2c.027-.069.057-.136.089-.2s.063-.131.1-.2l2.16-4.279h1.5l-2.536 4.956.006-.246a1.212 1.212 0 01.5-.5 1.59 1.59 0 01.766-.178 2.432 2.432 0 011.326.349 2.176 2.176 0 01.841 1.015 4.05 4.05 0 01.287 1.6v.007a3.783 3.783 0 01-.325 1.64 2.285 2.285 0 01-.949 1.039 3.351 3.351 0 01-3 0zm2.519-1.4a1.721 1.721 0 00.359-1.169v-.007a1.968 1.968 0 00-.376-1.288 1.313 1.313 0 00-1.074-.455 1.13 1.13 0 00-.963.458 2.126 2.126 0 00-.342 1.292v.007a1.706 1.706 0 00.359 1.166 1.475 1.475 0 002.037 0zM223.478 292.334a2.5 2.5 0 01-1.057-.967 2.788 2.788 0 01-.372-1.453v-.164a2.8 2.8 0 01.372-1.4 2.485 2.485 0 011-.991 2.186 2.186 0 01-.845-.83 2.248 2.248 0 01-.318-1.146v-.239a2.646 2.646 0 01.349-1.37 2.349 2.349 0 01.984-.916 3.509 3.509 0 012.954 0 2.355 2.355 0 01.984.916 2.646 2.646 0 01.349 1.37v.239a2.2 2.2 0 01-.326 1.155 2.152 2.152 0 01-.857.821 2.569 2.569 0 011.008 1 2.722 2.722 0 01.38 1.4v.164a2.788 2.788 0 01-.372 1.453 2.5 2.5 0 01-1.057.967 3.848 3.848 0 01-3.172 0zm2.44-1.189a1.385 1.385 0 00.572-.536 1.56 1.56 0 00.2-.8v-.1a1.567 1.567 0 00-.2-.8 1.387 1.387 0 00-.572-.537 2.007 2.007 0 00-1.709 0 1.384 1.384 0 00-.571.54 1.59 1.59 0 00-.2.807v.1a1.532 1.532 0 00.2.793 1.37 1.37 0 00.571.531 1.868 1.868 0 00.855.187 1.825 1.825 0 00.854-.185zm-.116-4.481a1.254 1.254 0 00.5-.516 1.63 1.63 0 00.178-.773v-.1a1.509 1.509 0 00-.178-.738 1.226 1.226 0 00-.5-.5 1.644 1.644 0 00-1.476 0 1.226 1.226 0 00-.5.5 1.512 1.512 0 00-.178.745v.1a1.589 1.589 0 00.178.763 1.262 1.262 0 00.5.512 1.6 1.6 0 001.476 0zM235.161 283.878l-2.571 8.695h-1.483l2.57-8.613h-2.529v1.429h-1.4v-2.755h5.408zM237.8 291.931a2.866 2.866 0 01-.72-2.078v-4.519a2.853 2.853 0 01.724-2.081 3.391 3.391 0 014.229 0 2.863 2.863 0 01.721 2.085v4.519a2.856 2.856 0 01-.725 2.082 3.38 3.38 0 01-4.229 0zm3.207-.967a1.593 1.593 0 00.352-1.111v-4.519a1.6 1.6 0 00-.349-1.11 1.738 1.738 0 00-2.187 0 1.6 1.6 0 00-.349 1.11v4.519a1.593 1.593 0 00.352 1.111 1.733 1.733 0 002.181 0z"/><path class="cls-7" d="M356.631 280.31l-1.461-1.461" id="LINE-94" data-name="LINE"/><path class="cls-7" d="M355.17 281.771l1.461-1.461" id="LINE-95" data-name="LINE"/><path class="cls-7" d="M101.049 280.311l1.461 1.461" id="LINE-96" data-name="LINE"/><path class="cls-7" d="M102.51 278.85l-1.461 1.461" id="LINE-97" data-name="LINE"/><path class="cls-7" d="M101.048 168.56h233.163" id="LINE-98" data-name="LINE"/><path d="M205.126 180.574a2.293 2.293 0 01-.947-1.025 3.718 3.718 0 01-.324-1.624v-.007a5.545 5.545 0 01.13-1.162 6.787 6.787 0 01.376-1.2c.027-.069.056-.136.089-.2s.063-.131.095-.2l2.161-4.279h1.5l-2.536 4.956.007-.246a1.2 1.2 0 01.5-.5 1.59 1.59 0 01.766-.178 2.435 2.435 0 011.326.349 2.182 2.182 0 01.841 1.015 4.05 4.05 0 01.287 1.6v.007a3.783 3.783 0 01-.325 1.64 2.285 2.285 0 01-.949 1.039 3.353 3.353 0 01-3 0zm2.52-1.4a1.726 1.726 0 00.358-1.169V178a1.968 1.968 0 00-.376-1.288 1.311 1.311 0 00-1.073-.455 1.133 1.133 0 00-.964.458 2.133 2.133 0 00-.341 1.292v.007a1.706 1.706 0 00.359 1.166 1.475 1.475 0 002.037 0zM211.094 179.613l3.466-4.621a3.42 3.42 0 00.468-.823 2.19 2.19 0 00.168-.8v-.013a1.2 1.2 0 00-.349-.923 1.388 1.388 0 00-.991-.328 1.368 1.368 0 00-.984.359 1.623 1.623 0 00-.458 1.015v.006h-1.443v-.006a3.721 3.721 0 01.5-1.459 2.554 2.554 0 01.982-.923 2.923 2.923 0 011.387-.319 3.456 3.456 0 011.518.305 2.136 2.136 0 01.957.885 2.805 2.805 0 01.328 1.4v.007a3.084 3.084 0 01-.219 1.1 4.692 4.692 0 01-.608 1.107l-2.878 3.91h3.76v1.326h-5.606zM223.611 172.128l-2.57 8.7h-1.484l2.57-8.613H219.6v1.429h-1.4v-2.755h5.407zM226.246 180.181a2.862 2.862 0 01-.721-2.078v-4.519a2.849 2.849 0 01.725-2.081 3.39 3.39 0 014.228 0 2.863 2.863 0 01.721 2.085v4.512a2.852 2.852 0 01-.725 2.082 3.379 3.379 0 01-4.228 0zm3.207-.967a1.6 1.6 0 00.351-1.111v-4.519a1.6 1.6 0 00-.348-1.11 1.74 1.74 0 00-2.188 0 1.6 1.6 0 00-.349 1.11v4.516a1.6 1.6 0 00.352 1.111 1.735 1.735 0 002.182 0z"/><path class="cls-7" d="M334.174 168.56l-1.461-1.461" id="LINE-99" data-name="LINE"/><path class="cls-7" d="M332.713 170.021l1.461-1.461" id="LINE-100" data-name="LINE"/><path class="cls-7" d="M101.049 168.561l1.461 1.461" id="LINE-101" data-name="LINE"/><path class="cls-7" d="M102.51 167.1l-1.461 1.461" id="LINE-102" data-name="LINE"/><path class="cls-7" d="M101.048 136.894h151.138" id="LINE-103" data-name="LINE"/><path d="M162.184 146.423l3.336-7.2h1.436l-3.254 7.117h4.874v1.292h-6.392zm4.286-3.111h1.361v5.852h-1.361zM171.005 148.514a2.865 2.865 0 01-.72-2.078v-4.518a2.856 2.856 0 01.724-2.082 3.389 3.389 0 014.229 0 2.861 2.861 0 01.72 2.085v4.518a2.856 2.856 0 01-.724 2.082 3.38 3.38 0 01-4.229 0zm3.207-.967a1.591 1.591 0 00.352-1.111v-4.518a1.6 1.6 0 00-.349-1.111 1.742 1.742 0 00-2.187 0 1.6 1.6 0 00-.349 1.111v4.518a1.591 1.591 0 00.352 1.111 1.733 1.733 0 002.181 0zM179.677 149.259l-.635-.3a2.5 2.5 0 01-1.023-.882 3.178 3.178 0 01-.488-1.391h1.422a1.513 1.513 0 00.266.7 1.239 1.239 0 00.531.406 1.983 1.983 0 00.761.134 1.477 1.477 0 001.073-.37 1.376 1.376 0 00.383-1.039v-.3a1.677 1.677 0 00-.362-1.152 1.3 1.3 0 00-1.025-.407h-.705v-1.326h.705a1.163 1.163 0 00.9-.349 1.4 1.4 0 00.321-.984v-.308a1.188 1.188 0 00-.339-.909 1.337 1.337 0 00-.96-.321 1.454 1.454 0 00-.635.133 1.215 1.215 0 00-.475.41 1.853 1.853 0 00-.284.694H177.7a3.627 3.627 0 01.515-1.394 2.525 2.525 0 01.961-.882 2.855 2.855 0 011.333-.3 2.758 2.758 0 011.99.677 2.522 2.522 0 01.7 1.907v.164a2.146 2.146 0 01-.4 1.3 2.269 2.269 0 01-1.141.806 2.027 2.027 0 011.261.8 2.654 2.654 0 01.448 1.586v.164a3.069 3.069 0 01-.335 1.484 2.212 2.212 0 01-.975.936 3.386 3.386 0 01-1.541.321zM186.784 148.966a2.407 2.407 0 01-.951-.855 3.4 3.4 0 01-.489-1.347v-.006h1.4v.006a1.292 1.292 0 00.437.851 1.417 1.417 0 00.944.3 1.261 1.261 0 001.035-.448 1.941 1.941 0 00.366-1.261v-.834a1.933 1.933 0 00-.366-1.255 1.261 1.261 0 00-1.035-.448 1.318 1.318 0 00-.7.206 1.953 1.953 0 00-.588.574h-1.271v-5.237h5.065v1.327h-3.67v2.235a1.957 1.957 0 01.581-.328 1.894 1.894 0 01.656-.116 2.885 2.885 0 011.473.355 2.284 2.284 0 01.93 1.039 3.9 3.9 0 01.318 1.648v.834a3.773 3.773 0 01-.329 1.647 2.326 2.326 0 01-.957 1.043 3 3 0 01-1.51.358 2.941 2.941 0 01-1.339-.288z"/><path class="cls-7" d="M252.149 136.894l-1.462-1.462" id="LINE-104" data-name="LINE"/><path class="cls-7" d="M250.687 138.355l1.462-1.461" id="LINE-105" data-name="LINE"/><path class="cls-7" d="M101.049 136.894l1.461 1.461" id="LINE-106" data-name="LINE"/><path class="cls-7" d="M102.51 135.433l-1.461 1.461" id="LINE-107" data-name="LINE"/><path class="cls-7" d="M255.715 136.894h101.121" id="LINE-108" data-name="LINE"/><path d="M292.5 147.947l3.465-4.621a3.393 3.393 0 00.468-.824 2.185 2.185 0 00.168-.8v-.014a1.205 1.205 0 00-.349-.923 1.388 1.388 0 00-.991-.328 1.368 1.368 0 00-.984.359 1.631 1.631 0 00-.458 1.015v.007h-1.443v-.007a3.737 3.737 0 01.5-1.459 2.561 2.561 0 01.982-.923 2.924 2.924 0 011.388-.318 3.454 3.454 0 011.517.3 2.141 2.141 0 01.957.885 2.809 2.809 0 01.328 1.4v.007a3.1 3.1 0 01-.218 1.1 4.739 4.739 0 01-.609 1.108l-2.878 3.91h3.76v1.326h-5.6zM301.618 149.259l-.636-.3a2.5 2.5 0 01-1.023-.882 3.2 3.2 0 01-.488-1.391h1.422a1.5 1.5 0 00.267.7 1.23 1.23 0 00.53.406 1.992 1.992 0 00.762.134 1.479 1.479 0 001.073-.37 1.376 1.376 0 00.383-1.039v-.3a1.672 1.672 0 00-.363-1.152 1.3 1.3 0 00-1.025-.407h-.7v-1.326h.7a1.162 1.162 0 00.9-.349 1.4 1.4 0 00.322-.984v-.308a1.192 1.192 0 00-.339-.909 1.339 1.339 0 00-.96-.321 1.462 1.462 0 00-.636.133 1.222 1.222 0 00-.475.41 1.886 1.886 0 00-.284.694h-1.415a3.627 3.627 0 01.516-1.394 2.518 2.518 0 01.961-.882 2.855 2.855 0 011.333-.3 2.757 2.757 0 011.989.677 2.519 2.519 0 01.7 1.907v.164a2.152 2.152 0 01-.4 1.3 2.276 2.276 0 01-1.142.806 2.027 2.027 0 011.261.8 2.647 2.647 0 01.448 1.586v.164a3.058 3.058 0 01-.335 1.484 2.21 2.21 0 01-.974.936 3.389 3.389 0 01-1.541.321zM312.418 140.462l-2.57 8.7h-1.483l2.57-8.613h-2.529v1.428h-1.395v-2.755h5.407zM315.772 148.966a2.407 2.407 0 01-.951-.855 3.41 3.41 0 01-.488-1.347v-.006h1.394v.006a1.288 1.288 0 00.438.851 1.414 1.414 0 00.943.3 1.261 1.261 0 001.035-.448 1.941 1.941 0 00.366-1.261v-.834a1.933 1.933 0 00-.366-1.255 1.261 1.261 0 00-1.035-.448 1.315 1.315 0 00-.7.206 1.941 1.941 0 00-.588.574h-1.272v-5.237h5.066v1.327h-3.671v2.235a1.969 1.969 0 01.581-.328 1.9 1.9 0 01.656-.116 2.888 2.888 0 011.474.355 2.282 2.282 0 01.929 1.039 3.9 3.9 0 01.318 1.648v.834a3.788 3.788 0 01-.328 1.647 2.331 2.331 0 01-.957 1.043 3 3 0 01-1.511.358 2.944 2.944 0 01-1.333-.288z"/><path class="cls-7" d="M356.799 136.894l-1.461-1.462" id="LINE-109" data-name="LINE"/><path class="cls-7" d="M355.338 138.355l1.461-1.461" id="LINE-110" data-name="LINE"/><path class="cls-7" d="M255.716 136.894l1.461 1.461" id="LINE-111" data-name="LINE"/><path class="cls-7" d="M257.177 135.433l-1.461 1.461" id="LINE-112" data-name="LINE"/><path class="cls-7" d="M255.715 15.56h81.517" id="LINE-113" data-name="LINE"/><path d="M283.977 26.613l3.466-4.621a3.474 3.474 0 00.468-.823 2.19 2.19 0 00.168-.8v-.013a1.206 1.206 0 00-.349-.923 1.389 1.389 0 00-.991-.328 1.369 1.369 0 00-.985.358 1.634 1.634 0 00-.458 1.016v.006h-1.442v-.006a3.726 3.726 0 01.5-1.46 2.566 2.566 0 01.981-.923 2.93 2.93 0 011.388-.318 3.456 3.456 0 011.518.3 2.136 2.136 0 01.957.885 2.813 2.813 0 01.328 1.4v.007a3.088 3.088 0 01-.219 1.1 4.728 4.728 0 01-.608 1.107l-2.878 3.91h3.76v1.326h-5.606zM291.209 26.613l3.466-4.621a3.439 3.439 0 00.468-.823 2.19 2.19 0 00.168-.8v-.013a1.2 1.2 0 00-.349-.923 1.388 1.388 0 00-.991-.328 1.368 1.368 0 00-.984.358 1.629 1.629 0 00-.458 1.016v.006h-1.443v-.006a3.726 3.726 0 01.5-1.46 2.562 2.562 0 01.982-.923 2.924 2.924 0 011.388-.318 3.454 3.454 0 011.517.3 2.136 2.136 0 01.957.885 2.8 2.8 0 01.328 1.4v.007a3.108 3.108 0 01-.218 1.1 4.733 4.733 0 01-.609 1.107l-2.878 3.91h3.76v1.326h-5.606zM300.992 27.823h-1.4V19.4l-1.415.868v-1.441l1.415-.943h1.4zM304.687 27.632a2.412 2.412 0 01-.951-.854 3.41 3.41 0 01-.488-1.347v-.007h1.394v.007a1.291 1.291 0 00.438.851 1.413 1.413 0 00.943.3 1.259 1.259 0 001.035-.448 1.939 1.939 0 00.366-1.261v-.834a1.93 1.93 0 00-.366-1.254 1.259 1.259 0 00-1.035-.448 1.314 1.314 0 00-.7.2 1.953 1.953 0 00-.588.574h-1.272v-5.227h5.066v1.326h-3.671v2.235a1.992 1.992 0 01.581-.328A1.926 1.926 0 01306.1 21a2.889 2.889 0 011.474.356 2.272 2.272 0 01.926 1.044 3.9 3.9 0 01.318 1.647v.834a3.792 3.792 0 01-.328 1.648 2.329 2.329 0 01-.957 1.042 3 3 0 01-1.511.359 2.931 2.931 0 01-1.335-.298z"/><path class="cls-7" d="M337.195 15.56l-1.461-1.461" id="LINE-114" data-name="LINE"/><path class="cls-7" d="M335.734 17.021l1.461-1.461" id="LINE-115" data-name="LINE"/><path class="cls-7" d="M255.716 15.561l1.461 1.461" id="LINE-116" data-name="LINE"/><path class="cls-7" d="M257.177 14.1l-1.461 1.461" id="LINE-117" data-name="LINE"/><path class="cls-7" d="M255.715 72.935h72.246" id="LINE-118" data-name="LINE"/><path d="M281.6 70.823h-1.4V62.4l-1.415.868v-1.441l1.415-.943h1.4zM287.372 65.888l-.007.246a1.031 1.031 0 01-.516.461 2.059 2.059 0 01-.817.147 2.189 2.189 0 01-1.251-.362 2.367 2.367 0 01-.838-1.022 3.706 3.706 0 01-.3-1.528v-.007a3.821 3.821 0 01.324-1.647 2.288 2.288 0 01.951-1.039 2.986 2.986 0 011.5-.356 2.923 2.923 0 011.5.363 2.323 2.323 0 01.947 1.052 3.876 3.876 0 01.325 1.662v.006a5.193 5.193 0 01-.137 1.136 6.95 6.95 0 01-.389 1.2c-.028.059-.055.12-.082.181s-.057.123-.089.182l-2.119 4.258h-1.5zm.065-.861a1.953 1.953 0 00.358-1.251v-.007a1.857 1.857 0 00-.358-1.217 1.419 1.419 0 00-2.037 0 1.857 1.857 0 00-.359 1.224v.006a1.925 1.925 0 00.359 1.248 1.393 1.393 0 002.037 0zM292.362 70.584a2.5 2.5 0 01-1.057-.967 2.788 2.788 0 01-.372-1.453V68a2.8 2.8 0 01.372-1.4 2.489 2.489 0 011-.991 2.186 2.186 0 01-.844-.831 2.242 2.242 0 01-.318-1.145v-.239a2.642 2.642 0 01.349-1.371 2.356 2.356 0 01.984-.916 3.516 3.516 0 012.953 0 2.364 2.364 0 01.985.916 2.651 2.651 0 01.348 1.371v.239a2.2 2.2 0 01-.325 1.155 2.165 2.165 0 01-.857.821 2.573 2.573 0 011.008.994 2.737 2.737 0 01.379 1.4v.164a2.788 2.788 0 01-.372 1.453 2.5 2.5 0 01-1.056.967 3.848 3.848 0 01-3.172 0zM294.8 69.4a1.393 1.393 0 00.572-.537 1.564 1.564 0 00.2-.8v-.1a1.577 1.577 0 00-.2-.8 1.393 1.393 0 00-.572-.537 2.007 2.007 0 00-1.709 0 1.384 1.384 0 00-.571.54 1.59 1.59 0 00-.2.807v.1a1.535 1.535 0 00.2.793 1.368 1.368 0 00.571.53 2.021 2.021 0 001.709 0zm-.116-4.481a1.254 1.254 0 00.5-.516 1.632 1.632 0 00.178-.773v-.1a1.509 1.509 0 00-.178-.738 1.226 1.226 0 00-.5-.495 1.646 1.646 0 00-1.477 0 1.238 1.238 0 00-.5.495 1.523 1.523 0 00-.177.745v.1a1.593 1.593 0 00.177.762 1.271 1.271 0 00.5.513 1.6 1.6 0 001.477 0zM300.35 70.632a2.412 2.412 0 01-.951-.854 3.41 3.41 0 01-.488-1.347v-.007h1.394v.007a1.291 1.291 0 00.438.851 1.413 1.413 0 00.943.3 1.259 1.259 0 001.035-.448 1.939 1.939 0 00.366-1.261v-.834a1.93 1.93 0 00-.366-1.254 1.259 1.259 0 00-1.035-.448 1.314 1.314 0 00-.7.205 1.953 1.953 0 00-.588.574h-1.272v-5.232h5.074v1.326h-3.671v2.235a1.992 1.992 0 01.581-.328 1.926 1.926 0 01.656-.116 2.889 2.889 0 011.474.356 2.279 2.279 0 01.93 1.039 3.911 3.911 0 01.317 1.647v.834a3.778 3.778 0 01-.328 1.648 2.329 2.329 0 01-.957 1.042 3 3 0 01-1.511.359 2.931 2.931 0 01-1.341-.294z"/><path class="cls-7" d="M327.924 72.935l-1.461-1.461" id="LINE-119" data-name="LINE"/><path class="cls-7" d="M326.463 74.396l1.461-1.461" id="LINE-120" data-name="LINE"/><path class="cls-7" d="M255.716 72.936l1.461 1.461" id="LINE-121" data-name="LINE"/><path class="cls-7" d="M257.177 71.475l-1.461 1.461" id="LINE-122" data-name="LINE"/><path class="cls-7" d="M314.027 95.839V80.736" id="LINE-123" data-name="LINE"/><path class="cls-7" d="M286.371 95.839V80.736" id="LINE-124" data-name="LINE"/><path class="cls-7" d="M286.371 95.839h27.656" id="LINE-125" data-name="LINE"/><path d="M290.745 107.76a2.523 2.523 0 01-1.073-.968 2.738 2.738 0 01-.378-1.452v-.164a2.749 2.749 0 01.378-1.4 2.515 2.515 0 011.01-.992 2.3 2.3 0 01-1.18-1.975v-.239a2.617 2.617 0 01.355-1.371 2.372 2.372 0 011-.916 3.622 3.622 0 013 0 2.377 2.377 0 011 .916 2.616 2.616 0 01.354 1.371v.239a2.258 2.258 0 01-1.2 1.975 2.6 2.6 0 011.024 1 2.694 2.694 0 01.386 1.4v.164a2.747 2.747 0 01-.378 1.452 2.523 2.523 0 01-1.073.968 3.963 3.963 0 01-3.221 0zm2.478-1.19a1.39 1.39 0 00.579-.536 1.528 1.528 0 00.2-.8v-.095a1.537 1.537 0 00-.2-.8 1.4 1.4 0 00-.579-.537 2.066 2.066 0 00-1.735 0 1.39 1.39 0 00-.58.54 1.557 1.557 0 00-.205.807v.1a1.506 1.506 0 00.205.793 1.372 1.372 0 00.58.529 1.9 1.9 0 00.867.189 1.881 1.881 0 00.868-.19zm-.118-4.481a1.254 1.254 0 00.507-.516 1.6 1.6 0 00.18-.772v-.1a1.483 1.483 0 00-.18-.738 1.233 1.233 0 00-.507-.5 1.695 1.695 0 00-1.5 0 1.231 1.231 0 00-.506.5 1.489 1.489 0 00-.181.745v.1a1.561 1.561 0 00.181.762 1.26 1.26 0 00.506.512 1.636 1.636 0 001.5 0zM298.126 107.357a2.84 2.84 0 01-.732-2.079v-4.518a2.826 2.826 0 01.736-2.081 3.483 3.483 0 014.293 0 2.83 2.83 0 01.733 2.085v4.518a2.826 2.826 0 01-.736 2.083 3.474 3.474 0 01-4.294 0zm3.256-.967a1.577 1.577 0 00.358-1.112v-4.518a1.578 1.578 0 00-.354-1.11 1.785 1.785 0 00-2.22 0 1.578 1.578 0 00-.355 1.11v4.518a1.576 1.576 0 00.357 1.112 1.78 1.78 0 002.214 0zM305.971 107.357a2.84 2.84 0 01-.732-2.079v-4.518a2.826 2.826 0 01.735-2.081 3.485 3.485 0 014.294 0 2.833 2.833 0 01.732 2.081v4.518a2.834 2.834 0 01-.735 2.083 3.474 3.474 0 01-4.294 0zm3.256-.967a1.581 1.581 0 00.357-1.112v-4.518a1.583 1.583 0 00-.354-1.11 1.787 1.787 0 00-2.221 0 1.582 1.582 0 00-.353 1.11v4.518a1.576 1.576 0 00.357 1.112 1.78 1.78 0 002.214 0z"/><path class="cls-7" d="M314.027 95.839l-1.484 1.461" id="LINE-126" data-name="LINE"/><path class="cls-7" d="M312.543 94.378l1.484 1.461" id="LINE-127" data-name="LINE"/><path class="cls-7" d="M286.371 95.839l1.484-1.462" id="LINE-128" data-name="LINE"/><path class="cls-7" d="M287.855 97.3l-1.484-1.461" id="LINE-129" data-name="LINE"/></g></svg>