<svg xmlns="http://www.w3.org/2000/svg" width="575.206" height="501.392" viewBox="0 0 431.404 376.044"><defs><pattern id="Новый_узор_3" data-name="Новый узор 3" width="35.15" height="35.15" patternTransform="translate(-7.256 -21.209)" patternUnits="userSpaceOnUse"><path class="cls-1" d="M0 0h35.15v35.15H0z"/><path class="cls-2" d="M35.149 35.15h35.15V70.3h-35.15z"/><path class="cls-2" d="M0 35.15h35.15V70.3H0zM-35.15 35.15H0V70.3h-35.15z"/><path class="cls-2" d="M35.149.001h35.15v35.15h-35.15z"/><path class="cls-2" d="M0 .001h35.15v35.15H0zM-35.15.001H0v35.15h-35.15zM35.149-35.149h35.15V.001h-35.15z"/><path class="cls-2" d="M0-35.149h35.15V.001H0zM-35.15-35.149H0V.001h-35.15z"/></pattern><pattern id="Новый_узор_4" data-name="Новый узор 4" width="9.822" height="9.822" patternTransform="translate(-4.109 -8.736)" patternUnits="userSpaceOnUse"><path class="cls-1" d="M0 0h9.822v9.822H0z"/><path class="cls-3" d="M14.733 19.647L9.82 14.735l4.913-4.913 4.912 4.913-4.912 4.912z"/><path class="cls-3" d="M4.911 19.647l-4.913-4.912 4.913-4.913 4.912 4.913-4.912 4.912z"/><path class="cls-3" d="M-4.912 19.647l-4.912-4.912 4.912-4.913 4.913 4.913-4.913 4.912zM14.733 9.825L9.82 4.912 14.733 0l4.912 4.912-4.912 4.913z"/><path class="cls-3" d="M4.911 9.825L-.002 4.912 4.911 0l4.912 4.912-4.912 4.913z"/><path class="cls-3" d="M-4.912 9.825l-4.912-4.913L-4.912 0 .001 4.912l-4.913 4.913zM14.733.003L9.82-4.91l4.913-4.912 4.912 4.912L14.733.003z"/><path class="cls-3" d="M4.911.003L-.002-4.91l4.913-4.912L9.823-4.91 4.911.003z"/><path class="cls-3" d="M-4.912.003L-9.824-4.91l4.912-4.912L.001-4.91-4.912.003z"/></pattern><style>.cls-1,.cls-11,.cls-13,.cls-2,.cls-3,.cls-7,.cls-9{fill:none}.cls-2{stroke:#ededed}.cls-2,.cls-3,.cls-7,.cls-9{stroke-linecap:round;stroke-linejoin:round}.cls-11,.cls-2,.cls-3,.cls-7,.cls-9{stroke-width:.4px}.cls-3{stroke:#e6e6e6}.cls-10,.cls-3,.cls-9{fill-rule:evenodd}.cls-6{fill:url(#Новый_узор_4)}.cls-11,.cls-7,.cls-9{stroke:#000}.cls-11,.cls-13{stroke-miterlimit:22.926}.cls-13{stroke:gray;stroke-width:.6px}</style></defs><g id="_309" data-name="309"><path id="fon" d="M361.348 227.107V24.745H.3V360.09l21.392.012L55.758 375.3a42.48 42.48 0 002.942-15.178l302.644.166v-27.379h45.344v-105.8z" fill="#fff"/><path id="grid" stroke="#dcdcdc" fill="url(#Новый_узор_3)" fill-rule="evenodd" stroke-width=".4" stroke-linecap="round" stroke-linejoin="round" d="M406.692 227.107h-45.344V24.745H.3V360.09l361.048.198v-27.379h45.344V227.107z"/><g id="wet_zones" data-name="wet zones"><path class="cls-6" d="M75.495 270.167h52.901v58.758H75.495zM131.387 270.167h68.803v81.052h-68.803z"/></g><g id="walls"><path class="cls-7" d="M337.543 351.219H203.212"/><path d="M.3 360.288V24.745h36.842v23.806H10.5v302.668h9.22v7.557h-.453v1.512zm361.048 0H245.714v-9.069h91.829V322.5h23.805v37.787zm-278.674 0H58.718v-1.512h-.455v-7.557h24.411v9.069zm254.869-137.16l-91.1.01v-12.847l91.1-.011v-30.422h23.805v59.513h-23.805v-16.243zM103.269 24.745h45.343v23.806h-45.343V24.745zm156.812 23.806h-45.344V24.745h45.344z" stroke-miterlimit="3" stroke-width=".6" stroke="#000" fill-rule="evenodd"/><path class="cls-9" d="M55.515 375.844a43.679 43.679 0 003.2-15.556"/><path class="cls-10" d="M55.478 375.945l.599-1.387-36.355-15.782h-.453l-.001 1.512 36.21 15.657z"/><path class="cls-9" d="M169.51 281.237a30.728 30.728 0 01-2.27-11.07"/><path class="cls-10" d="M169.549 281.326l25.804-11.159-.001-1.51h-.453l-25.95 11.281.6 1.388z"/><path class="cls-9" d="M123.143 256.088a29.32 29.32 0 012.3 11.056"/><path class="cls-10" d="M123.139 255.986l-25.805 11.158.001 1.512h.454l25.95-11.283-.6-1.387z"/><path class="cls-9" d="M93.128 206.6a35.536 35.536 0 00-2.594 12.558"/><path class="cls-10" d="M93.153 206.497l-.6 1.388 29.418 12.782h.453v-1.511l-29.271-12.659z"/><path class="cls-9" d="M238.442 256.075a35.613 35.613 0 01-12.558 2.577"/><path class="cls-10" d="M238.543 256.031l-12.659-29.272h-1.511l-.08.454 12.862 29.418 1.388-.6z"/><path class="cls-7" d="M353.791 239.372h-16.248M361.349 239.372h-5.669M355.68 239.372h-1.889M353.791 322.502h-16.248M361.349 322.502h-5.669M355.68 322.502h-1.889M361.349 322.502v-83.13M337.543 322.502v-83.13M353.791 322.502v-3.779M353.791 318.723h1.89M355.68 318.723v3.779M355.68 282.826v1.889M355.68 284.716h-1.889M353.791 284.716v-1.889M354.735 318.723v-34.008M353.791 318.723v-34.008M355.68 284.716v34.007M353.791 282.826v-.944M353.791 281.882h.944M354.735 281.882v-.945M354.735 280.936h.945M355.68 280.936v1.891M355.68 239.372v3.779M355.68 243.151h-.944M354.735 243.151v-.945M354.735 242.206h-.944M353.791 242.206v-2.834M355.68 243.151v37.785M352.847 279.047V245.04M352.847 281.882v-2.834M352.847 279.047h1.889M354.735 279.047v2.834M354.735 281.882h-1.889M354.735 242.206v2.834M354.735 245.04h-1.889M352.847 245.04v-2.834M352.847 242.206h1.889M354.735 245.04v34.007M352.847 279.047V245.04M353.791 279.047V245.04M355.68 322.502h-1.889M355.68 322.502h-1.889M361.349 322.502h-5.669M353.791 322.502h-16.248M355.68 239.372h-1.889M355.68 239.372h-1.889M361.349 239.372h-5.669M353.791 239.372h-16.248M103.267 32.303v16.248M103.267 24.746v5.668M103.267 30.414v1.889M37.142 32.303v16.248M37.142 24.746v5.668M37.142 30.414v1.889M37.142 24.746h66.125M37.142 48.551h66.125M37.142 32.303h3.778M40.921 32.303v-1.889M40.921 30.414h-3.779M74.928 30.414h-1.889M73.039 30.414v1.889M73.039 32.303h1.889M40.921 31.358h32.118M40.921 32.303h32.118M73.039 30.414H40.921M74.928 32.303h.945M75.873 32.303v-.945M75.873 31.358h.944M76.817 31.358v-.944M76.817 30.414h-1.89M103.267 30.414h-3.778M99.489 30.414v.944M99.489 31.358h.944M100.434 31.358v.945M100.434 32.303h2.833M99.489 30.414H76.817M78.707 33.248H97.6M75.873 33.248h2.834M78.707 33.248v-1.89M78.707 31.358h-2.834M75.873 31.358v1.89M100.434 31.358H97.6M97.6 31.358v1.89M97.6 33.248h2.834M100.434 33.248v-1.89M97.6 31.358H78.707M78.707 33.248H97.6M78.707 32.303H97.6M37.142 30.414v1.889M37.142 30.414v1.889M37.142 24.746v5.668M37.142 32.303v16.248M103.267 30.414v1.889M103.267 30.414v1.889M103.267 24.746v5.668M103.267 32.303v16.248M214.737 32.303v16.248M214.737 24.746v5.668M214.737 30.414v1.889M148.611 32.303v16.248M148.611 24.746v5.668M148.611 30.414v1.889M148.611 24.746h66.126M148.611 48.551h66.126M148.611 32.303h3.778M152.39 32.303v-1.889M152.39 30.414h-3.778M186.397 30.414h-1.889M184.509 30.414v1.889M184.509 32.303h1.889M152.39 31.358h32.119M152.39 32.303h32.119M184.509 30.414H152.39M186.397 32.303h.945M187.343 32.303v-.945M187.343 31.358h.944M188.287 31.358v-.944M188.287 30.414h-1.89M214.737 30.414h-3.778M210.959 30.414v.944M210.959 31.358h.944M211.903 31.358v.945M211.903 32.303h2.834M210.959 30.414h-22.672M190.176 33.248h18.894M187.343 33.248h2.833M190.176 33.248v-1.89M190.176 31.358h-2.833M187.343 31.358v1.89M211.903 31.358h-2.834M209.069 31.358v1.89M209.069 33.248h2.834M211.903 33.248v-1.89M209.069 31.358h-18.894M190.176 33.248h18.894M190.176 32.303h18.894M148.611 30.414v1.889M148.611 30.414v1.889M148.611 24.746v5.668M148.611 32.303v16.248M214.737 30.414v1.889M214.737 30.414v1.889M214.737 24.746v5.668M214.737 32.303v16.248M353.791 179.858h-16.248M361.349 179.858h-5.669M355.68 179.858h-1.889M361.349 179.858V24.747M337.543 179.858V48.55M353.791 179.858v-4.722M353.791 175.135h1.89M355.68 175.135v4.723M355.68 32.303v4.723M355.68 37.026h-1.889M353.791 37.026v-4.723M355.68 30.414v1.889M353.791 175.135V37.026M355.68 37.026v138.11M355.68 179.858h-1.889M355.68 179.858h-1.889M361.349 179.858h-5.669M353.791 179.858h-16.248M260.081 32.303v16.248M260.081 24.746v5.668M260.081 30.414v1.889M260.081 24.746h101.268M260.081 48.551h77.462M260.081 32.303h4.723M264.804 32.303v-1.889M264.804 30.414h-4.723M353.791 30.414h-4.724M349.067 30.414v1.889M349.067 32.303h4.724M355.68 30.414h-1.889M264.804 32.303h84.264M349.067 30.414h-84.264M260.081 30.414v1.889M260.081 30.414v1.889M260.081 24.746v5.668M260.081 32.303v16.248"/><path class="cls-9" d="M361.349 227.107h45.343m0 0v105.8m0 0h-45.343m0 0v-105.8M405.936 332.153h-44.588m0 0V227.862m0 0h44.588m0 0v104.291"/><path class="cls-11" d="M353.808 69.889h1.889v5.133h-1.889zM353.808 112.396h1.889v5.133h-1.889z"/><path class="cls-7" d="M352.162 245.066l-28.055 28.055M324.108 273.121a39.673 39.673 0 0028.055 11.621M353.107 321.584l-29-25.272M324.108 296.312a39.673 39.673 0 0128.055-11.621"/></g><g id="wall_2" data-name="wall 2"><path d="M220.027 360.288H82.674v-9.069h30.607v-19.271H75.5v19.271h-3.028v-84.075h24.863v1.512h.454v1.512H75.5v58.759h52.9v-58.76H125v-1.512h.453v-1.512h42.245v1.512h-.453v1.511h-35.827v81.052h68.772v-81.051h-4.838v-1.511h-.452v-1.512h27.962V258.2h1.512v.453h1.51v11.517h-22.673v81.052h42.5v9.069zm2.835-137.147H178.84v-26.468h22.86V210.3h44.74v12.842h-20.557v3.619h-1.51v.454h-1.512v-4.072zM128.4 331.948h-12.1v19.271h12.1v-19.271zM181.863 199.7v10.6h16.816v-10.6zm-101.455-.378H25.617v22.861H10.5v-3.023h12.094v-19.842H10.5V196.3h72.929v22.861h7.1v1.511h.453v1.512H80.407v-22.861zm41.563 22.861v-1.512h.453v-1.511h7.106V48.551h3.022v173.628z" fill="#fff" fill-rule="evenodd"/><path class="cls-13" d="M132.548 50.17l-3.02 2.66M132.548 56.71l-3.02 2.66M132.548 63.24l-3.02 2.66M132.548 69.78l-3.02 2.66M132.548 76.32l-3.02 2.66M132.548 82.86l-3.02 2.66M132.548 89.4l-3.02 2.66M11.208 196.29l-.71.63M132.548 95.94l-3.02 2.66M18.628 196.29l-3.44 3.03M132.548 102.47l-3.02 2.66M26.048 196.29l-3.45 3.03M132.548 109.02l-3.02 2.66M33.478 196.29l-3.44 3.03M25.618 203.21l-3.02 2.66M132.548 115.55l-3.02 2.66M14.938 219.16l-3.43 3.02M40.898 196.29l-3.44 3.03M25.618 209.75l-3.02 2.66M132.548 122.09l-3.02 2.66M25.618 216.29l-3.02 2.66M22.358 219.16l-3.43 3.02M48.318 196.29l-3.44 3.03M132.548 128.63l-3.02 2.66M55.738 196.29l-3.44 3.03M132.548 135.17l-3.02 2.66M63.168 196.29l-3.44 3.03M132.548 141.71l-3.02 2.66M70.588 196.29l-3.44 3.03M132.548 148.24l-3.02 2.66M78.008 196.29l-3.44 3.03M132.548 154.78l-3.02 2.66M83.428 198.05l-3.02 2.66M132.548 161.32l-3.02 2.66M83.428 204.59l-3.02 2.66M132.548 167.86l-3.02 2.66M83.428 211.13l-3.02 2.66M132.548 174.4l-3.02 2.66M83.428 217.67l-3.02 2.66M132.548 180.94l-3.02 2.66M89.158 219.16l-3.43 3.02M132.548 187.47l-3.02 2.66M132.548 194.02l-3.02 2.66M132.548 200.55l-3.02 2.66M132.548 207.09l-3.02 2.66M132.548 213.62l-3.02 2.66M126.258 219.16l-3.42 3.02M132.548 220.16l-2.29 2.02M75.498 270.42l-3.03 2.67M79.218 267.14l-3.44 3.03M86.638 267.14l-3.44 3.03M75.498 276.96l-3.03 2.67M94.068 267.14l-3.44 3.03M75.498 283.5l-3.03 2.67M181.478 196.67l-2.64 2.32M75.498 290.03l-3.03 2.67M188.898 196.67l-3.44 3.03M181.858 202.87l-3.02 2.66M75.498 296.57l-3.03 2.67M196.328 196.67l-3.44 3.03M181.858 209.41l-3.02 2.66M75.498 303.11l-3.03 2.67M201.698 198.48l-3.02 2.66M188.278 210.3l-9.44 8.31M75.498 309.65l-3.03 2.67M201.698 205.02l-3.02 2.66M195.698 210.3l-14.57 12.84M131.178 267.14l-3.44 3.03M75.498 316.19l-3.03 2.67M203.118 210.3l-14.57 12.84M131.418 273.47l-3.02 2.66M138.598 267.14l-3.44 3.03M75.498 322.73l-3.03 2.67M210.548 210.3l-14.58 12.84M131.418 280.01l-3.02 2.66M146.018 267.14l-3.44 3.03M75.878 328.93l-3.41 3.01M217.958 210.3l-14.57 12.84M83.298 328.93l-3.43 3.02M75.498 335.8l-3.03 2.67M153.438 267.14l-3.44 3.03M131.418 286.54l-3.02 2.66M225.388 210.3l-14.58 12.84M90.718 328.93l-3.43 3.02M75.498 342.34l-3.03 2.67M160.858 267.14l-3.44 3.03M131.418 293.08l-3.02 2.66M232.808 210.3l-14.57 12.84M167.688 267.67l-2.84 2.5M98.148 328.93l-3.43 3.02M75.498 348.88l-2.66 2.34M131.418 299.62l-3.02 2.66M240.228 210.3l-17.37 15.31M105.568 328.93l-3.43 3.02M131.418 306.16l-3.02 2.66M246.438 211.37l-13.36 11.77M112.988 328.93l-3.43 3.02M87.688 351.22l-5.01 4.41M131.418 312.7l-3.02 2.66M246.438 217.91l-5.93 5.23M116.298 332.55l-3.02 2.67M120.408 328.93l-3.42 3.02M95.108 351.22l-10.29 9.07M131.418 319.24l-3.02 2.66M197.968 267.14l-2.62 2.31M116.298 339.09l-3.02 2.66M127.828 328.93l-3.43 3.02M102.528 351.22l-10.3 9.07M131.418 325.77l-3.02 2.66M116.298 345.63l-3.02 2.66M131.418 332.31l-3.02 2.66M109.948 351.22l-10.29 9.07M205.398 267.14l-5.21 4.59M212.818 267.14l-3.44 3.03M203.208 275.61l-3.02 2.66M222.968 258.2l-.11.1M117.378 351.22l-10.3 9.07M131.418 338.85l-3.02 2.66M220.238 267.14l-3.44 3.03M225.878 262.18l-3.02 2.66M203.208 282.15l-3.02 2.66M124.798 351.22l-10.3 9.07M131.418 345.39l-3.02 2.66M203.208 288.68l-3.02 2.66M225.878 268.71l-1.65 1.46M132.218 351.22l-10.3 9.07M203.208 295.22l-3.02 2.66M139.638 351.22l-10.29 9.07M203.208 301.76l-3.02 2.66M147.058 351.22l-10.3 9.07M203.208 308.3l-3.02 2.66M154.478 351.22l-10.29 9.07M161.908 351.22l-10.3 9.07M203.208 314.84l-3.02 2.66M169.328 351.22l-10.29 9.07M203.208 321.38l-3.02 2.66M176.758 351.22l-10.3 9.07M203.208 327.92l-3.02 2.66M184.178 351.22l-10.3 9.07M203.208 334.45l-3.02 2.66M191.598 351.22l-10.29 9.07M203.208 340.99l-3.02 2.66M199.018 351.22l-10.3 9.07M203.208 347.53l-3.02 2.66M206.438 351.22l-10.3 9.07M213.858 351.22l-10.29 9.07M221.288 351.22l-10.3 9.07M228.708 351.22l-10.3 9.07M236.138 351.22l-10.3 9.07M243.548 351.22l-10.3 9.07M245.718 355.85l-5.04 4.44"/><path d="M220.027 360.288H82.674v-9.069h30.607v-19.271H75.5v19.271h-3.028v-84.075h24.863v1.512h.454v1.512H75.5v58.759h52.9v-58.76H125v-1.512h.453v-1.512h42.245v1.512h-.453v1.511h-35.827v81.052h68.772v-81.051h-4.838v-1.511h-.452v-1.512h27.962V258.2h1.512v.453h1.51v11.517h-22.673v81.052h42.5v9.069zm2.835-137.147h0-44.022v-26.468h22.86V210.3h44.74v12.842h-20.557v3.619h-1.51v.454h-1.512v-4.072zM128.4 331.948h-12.1v19.271h12.1v-19.271zM181.863 199.7h0v10.6h16.816v-10.6zm-101.455-.378H25.617v22.861H10.5v-3.023h12.094v-19.842H10.5V196.3h72.929v3.023h0v19.838h7.1v1.511h.453v1.512H80.407v-22.861zm41.563 22.861v-1.512h.453v-1.511h7.106V48.551h3.022v173.628z" stroke-width=".567" stroke="#000" fill-rule="evenodd" stroke-linecap="round" stroke-linejoin="round" fill="none"/></g></g><g id="sizes"><path class="cls-7" d="M19.657 339.792v11.423" id="LINE"/><path class="cls-7" d="M58.331 339.792v11.423" id="LINE-2" data-name="LINE"/><path class="cls-7" d="M58.331 339.791H19.657" id="LINE-3" data-name="LINE"/><path d="M29.969 336.157h-1.395v-8.422l-1.415.868v-1.442l1.415-.944h1.395zM34.624 336.157H33.23v-8.422l-1.415.868v-1.442l1.415-.944h1.394zM37.6 335.514a2.861 2.861 0 01-.721-2.078v-4.519a2.851 2.851 0 01.725-2.081 2.82 2.82 0 012.112-.742 2.825 2.825 0 012.116.739 2.857 2.857 0 01.721 2.084v4.519a2.558 2.558 0 01-2.837 2.823 2.812 2.812 0 01-2.116-.745zm3.207-.967a1.6 1.6 0 00.351-1.111v-4.519a1.6 1.6 0 00-.348-1.11 1.74 1.74 0 00-2.188 0 1.6 1.6 0 00-.348 1.11v4.519a1.6 1.6 0 00.351 1.111 1.735 1.735 0 002.182 0zM45.325 335.514a2.865 2.865 0 01-.72-2.078v-4.519a2.855 2.855 0 01.724-2.081 3.389 3.389 0 014.229 0 2.861 2.861 0 01.721 2.084v4.519a2.854 2.854 0 01-.725 2.082 3.38 3.38 0 01-4.229 0zm3.207-.967a1.591 1.591 0 00.352-1.111v-4.519a1.6 1.6 0 00-.349-1.11 1.738 1.738 0 00-2.187 0 1.6 1.6 0 00-.349 1.11v4.519a1.591 1.591 0 00.352 1.111 1.733 1.733 0 002.181 0z"/><path class="cls-7" d="M19.657 339.791l1.461-1.461" id="LINE-4" data-name="LINE"/><path class="cls-7" d="M21.118 341.252l-1.461-1.461" id="LINE-5" data-name="LINE"/><path class="cls-7" d="M58.331 339.792l-1.461 1.461" id="LINE-6" data-name="LINE"/><path class="cls-7" d="M56.87 338.33l1.461 1.462" id="LINE-7" data-name="LINE"/><path class="cls-7" d="M139.727 48.551v173.628" id="LINE-8" data-name="LINE"/><path d="M149.648 149.724l-7.2-3.336v-1.435l7.116 3.254v-4.874h1.292v6.391zm-3.11-4.286v-1.36h5.851v1.36zM152.133 140.557a2.287 2.287 0 01-1.025.947 3.721 3.721 0 01-1.624.325h-.007a5.545 5.545 0 01-1.162-.13 6.761 6.761 0 01-1.2-.376 2.81 2.81 0 01-.2-.089l-.195-.1-4.279-2.16v-1.5l4.956 2.536-.246-.007a1.2 1.2 0 01-.5-.5 1.572 1.572 0 01-.178-.765 2.432 2.432 0 01.349-1.326 2.17 2.17 0 011.015-.841 4.029 4.029 0 011.6-.287h.007a3.791 3.791 0 011.641.325 2.3 2.3 0 011.039.949 3.355 3.355 0 010 3zm-1.4-2.519a1.721 1.721 0 00-1.169-.359h-.007a1.966 1.966 0 00-1.288.376 1.313 1.313 0 00-.455 1.073 1.132 1.132 0 00.458.964 2.124 2.124 0 001.292.342h.007a1.7 1.7 0 001.165-.359 1.474 1.474 0 000-2.037zM152.191 133a2.418 2.418 0 01-.854.951 3.41 3.41 0 01-1.347.488h-.007v-1.395h.007a1.29 1.29 0 00.851-.437 1.415 1.415 0 00.3-.943 1.261 1.261 0 00-.448-1.036 1.939 1.939 0 00-1.261-.366h-.832a1.93 1.93 0 00-1.254.366 1.264 1.264 0 00-.448 1.036 1.316 1.316 0 00.2.7 1.964 1.964 0 00.574.588v1.271h-5.236v-5.065h1.326v3.671h2.236a1.985 1.985 0 01-.329-.581 1.927 1.927 0 01-.116-.657 2.885 2.885 0 01.356-1.473 2.284 2.284 0 011.039-.93 3.9 3.9 0 011.647-.317h.834a3.778 3.778 0 011.648.328 2.329 2.329 0 011.042.957 3 3 0 01.359 1.511 2.931 2.931 0 01-.287 1.333zM151.74 126.1a2.864 2.864 0 01-2.078.721h-4.519a2.843 2.843 0 110-5.674h4.519a2.559 2.559 0 012.823 2.837 2.812 2.812 0 01-.745 2.116zm-.967-3.207a1.6 1.6 0 00-1.111-.351h-4.519a1.607 1.607 0 00-1.111.348 1.743 1.743 0 000 2.188 1.607 1.607 0 001.111.348h4.519a1.6 1.6 0 001.111-.351 1.735 1.735 0 000-2.182z"/><path class="cls-7" d="M139.727 222.128l-1.461-1.461" id="LINE-9" data-name="LINE"/><path class="cls-7" d="M141.188 220.667l-1.461 1.461" id="LINE-10" data-name="LINE"/><path class="cls-7" d="M139.728 48.551l1.461 1.461" id="LINE-11" data-name="LINE"/><path class="cls-7" d="M138.267 50.012l1.461-1.461" id="LINE-12" data-name="LINE"/><path class="cls-7" d="M122.432 222.179h20.224"/><path class="cls-7" d="M14.544 222.179v129.036" id="LINE-13" data-name="LINE"/><path d="M27.3 299.234l-.3.636a2.52 2.52 0 01-.882 1.022 3.182 3.182 0 01-1.391.488v-1.422a1.494 1.494 0 00.7-.266 1.244 1.244 0 00.407-.53 1.992 1.992 0 00.133-.762 1.483 1.483 0 00-.369-1.073 1.376 1.376 0 00-1.039-.383h-.3a1.678 1.678 0 00-1.152.362 1.3 1.3 0 00-.406 1.026v.7h-1.333v-.7a1.167 1.167 0 00-.348-.9 1.4 1.4 0 00-.985-.321h-.307a1.188 1.188 0 00-.909.339 1.333 1.333 0 00-.322.96 1.455 1.455 0 00.134.635 1.2 1.2 0 00.41.475 1.846 1.846 0 00.694.284v1.415a3.626 3.626 0 01-1.395-.515 2.541 2.541 0 01-.882-.961 2.867 2.867 0 01-.3-1.333 2.758 2.758 0 01.677-1.99 2.522 2.522 0 011.907-.7h.164a2.146 2.146 0 011.3.4 2.277 2.277 0 01.807 1.141 2.018 2.018 0 01.8-1.26 2.643 2.643 0 011.586-.449h.164a3.065 3.065 0 011.483.335 2.22 2.22 0 01.937.975 3.4 3.4 0 01.317 1.538zM24.465 293.7l-7.2-3.336v-1.436l7.116 3.254v-4.874h1.292v6.392zm-3.11-4.287v-1.36h5.851v1.36zM25.989 285.753l-4.621-3.465a3.406 3.406 0 00-.823-.468 2.19 2.19 0 00-.8-.168h-.013a1.205 1.205 0 00-.923.348 1.392 1.392 0 00-.328.992 1.368 1.368 0 00.358.984 1.634 1.634 0 001.016.458h.006v1.442h-.006a3.741 3.741 0 01-1.46-.5 2.569 2.569 0 01-.923-.982 2.924 2.924 0 01-.318-1.388 3.454 3.454 0 01.3-1.517 2.136 2.136 0 01.885-.957 2.8 2.8 0 011.4-.328h.007a3.108 3.108 0 011.1.218 4.733 4.733 0 011.107.609l3.91 2.878v-3.76H27.2v5.6zM27.008 276.931a2.412 2.412 0 01-.854.951 3.411 3.411 0 01-1.347.489H24.8v-1.395h.007a1.294 1.294 0 00.851-.437 1.418 1.418 0 00.3-.944 1.259 1.259 0 00-.448-1.035 1.939 1.939 0 00-1.261-.366h-.834a1.93 1.93 0 00-1.254.366 1.259 1.259 0 00-.448 1.035 1.314 1.314 0 00.205.7 1.953 1.953 0 00.574.588v1.272H17.26v-5.066h1.326v3.671h2.235a1.992 1.992 0 01-.328-.581 1.922 1.922 0 01-.116-.656 2.891 2.891 0 01.356-1.474 2.277 2.277 0 011.039-.929 3.9 3.9 0 011.647-.318h.834a3.792 3.792 0 011.648.328 2.334 2.334 0 011.042.957 3 3 0 01.357 1.513 2.931 2.931 0 01-.292 1.331z"/><path class="cls-7" d="M14.544 351.071l-1.461-1.462" id="LINE-14" data-name="LINE"/><path class="cls-7" d="M16.005 349.609l-1.461 1.462" id="LINE-15" data-name="LINE"/><path class="cls-7" d="M14.545 222.179l1.461 1.461" id="LINE-16" data-name="LINE"/><path class="cls-7" d="M13.083 223.64l1.462-1.461" id="LINE-17" data-name="LINE"/><path class="cls-7" d="M66.867 267.143v84.072" id="LINE-18" data-name="LINE"/><path d="M63.729 323.222l-4.621-3.466a3.421 3.421 0 00-.824-.467 2.16 2.16 0 00-.8-.168h-.014a1.208 1.208 0 00-.923.348 1.4 1.4 0 00-.328.991 1.369 1.369 0 00.359.985 1.631 1.631 0 001.015.458h.007v1.442a3.727 3.727 0 01-1.459-.5 2.566 2.566 0 01-.923-.981 2.927 2.927 0 01-.318-1.388 3.463 3.463 0 01.3-1.517 2.133 2.133 0 01.886-.957 2.8 2.8 0 011.4-.329h.014a3.1 3.1 0 011.1.219 4.739 4.739 0 011.108.609l3.91 2.877v-3.759h1.326v5.6zM63.729 315.99l-4.621-3.466a3.426 3.426 0 00-.824-.468 2.181 2.181 0 00-.8-.168h-.014a1.205 1.205 0 00-.923.349 1.392 1.392 0 00-.328.991 1.368 1.368 0 00.359.984 1.626 1.626 0 001.015.458h.007v1.443a3.727 3.727 0 01-1.459-.5 2.562 2.562 0 01-.923-.982 2.923 2.923 0 01-.318-1.387 3.47 3.47 0 01.3-1.518 2.138 2.138 0 01.886-.957 2.8 2.8 0 011.4-.328h.014a3.079 3.079 0 011.1.219 4.7 4.7 0 011.108.608l3.91 2.878v-3.76h1.326v5.606zM64.748 307.167a2.409 2.409 0 01-.855.952 3.4 3.4 0 01-1.346.488h-.007v-1.4h.007a1.292 1.292 0 00.851-.437 1.42 1.42 0 00.3-.943 1.264 1.264 0 00-.448-1.036 1.941 1.941 0 00-1.261-.366h-.834a1.928 1.928 0 00-1.254.366 1.261 1.261 0 00-.448 1.036 1.316 1.316 0 00.2.7 1.964 1.964 0 00.574.588v1.271H55v-5.065h1.326v3.671h2.235a2 2 0 01-.328-.581 1.9 1.9 0 01-.116-.657 2.9 2.9 0 01.355-1.473 2.284 2.284 0 011.039-.93 3.9 3.9 0 011.648-.317h.834a3.773 3.773 0 011.647.328 2.326 2.326 0 011.043.957 3 3 0 01.359 1.511 2.924 2.924 0 01-.294 1.337zM64.748 299.545a2.416 2.416 0 01-.855.952 3.4 3.4 0 01-1.346.488h-.007v-1.4h.007a1.292 1.292 0 00.851-.437 1.421 1.421 0 00.3-.944 1.261 1.261 0 00-.448-1.035 1.941 1.941 0 00-1.261-.366h-.834a1.928 1.928 0 00-1.254.366 1.259 1.259 0 00-.448 1.035 1.317 1.317 0 00.2.7 1.964 1.964 0 00.574.588v1.271H55V295.7h1.326v3.671h2.235a2 2 0 01-.328-.581 1.9 1.9 0 01-.116-.657 2.9 2.9 0 01.355-1.473 2.284 2.284 0 011.039-.93 3.9 3.9 0 011.648-.317h.834a3.773 3.773 0 011.647.328 2.32 2.32 0 011.043.957 3 3 0 01.359 1.51 2.928 2.928 0 01-.294 1.337z"/><path class="cls-7" d="M66.867 351.071l-1.461-1.462" id="LINE-19" data-name="LINE"/><path class="cls-7" d="M68.329 349.609l-1.462 1.462" id="LINE-20" data-name="LINE"/><path class="cls-7" d="M66.868 267.144l1.461 1.462" id="LINE-21" data-name="LINE"/><path class="cls-7" d="M65.407 268.606l1.461-1.462" id="LINE-22" data-name="LINE"/><path class="cls-7" d="M73.059 267.144h-8.694"/><path class="cls-7" d="M137.882 270.168v81.047" id="LINE-23" data-name="LINE"/><path d="M148.911 323.56l-4.621-3.466a3.46 3.46 0 00-.824-.468 2.185 2.185 0 00-.8-.168h-.014a1.208 1.208 0 00-.923.349 1.391 1.391 0 00-.328.991 1.369 1.369 0 00.359.985 1.631 1.631 0 001.015.458h.007v1.442h-.007a3.721 3.721 0 01-1.459-.5 2.559 2.559 0 01-.923-.981 2.93 2.93 0 01-.318-1.388 3.456 3.456 0 01.3-1.518 2.141 2.141 0 01.885-.957 2.817 2.817 0 011.4-.328h.006a3.106 3.106 0 011.1.219 4.745 4.745 0 011.107.608l3.911 2.878v-3.759h1.326v5.605zM150.121 313.778v1.394H141.7l.868 1.415h-1.442l-.944-1.415v-1.394zM149.882 310.2a2.5 2.5 0 01-.968 1.056 2.787 2.787 0 01-1.452.373h-.162a2.8 2.8 0 01-1.4-.373 2.5 2.5 0 01-.991-1 2.175 2.175 0 01-.831.845 2.241 2.241 0 01-1.145.317h-.239a2.65 2.65 0 01-1.37-.348 2.358 2.358 0 01-.916-.985 3.516 3.516 0 010-2.953 2.35 2.35 0 01.916-.984 2.651 2.651 0 011.37-.349h.239a2.209 2.209 0 011.156.325 2.158 2.158 0 01.82.858 2.576 2.576 0 011-1.008 2.726 2.726 0 011.4-.38h.164a2.786 2.786 0 011.452.372 2.5 2.5 0 01.968 1.057 3.859 3.859 0 010 3.172zm-5.671-2.324a1.248 1.248 0 00-.516-.5 1.617 1.617 0 00-.772-.178h-.1a1.493 1.493 0 00-.738.178 1.222 1.222 0 00-.5.5 1.652 1.652 0 000 1.476 1.222 1.222 0 00.5.5 1.517 1.517 0 00.745.178h.1a1.593 1.593 0 00.762-.178 1.246 1.246 0 00.513-.5 1.6 1.6 0 000-1.476zm4.481-.117a1.384 1.384 0 00-.537-.571 1.551 1.551 0 00-.8-.2h-.1a1.567 1.567 0 00-.8.2 1.382 1.382 0 00-.536.571 2 2 0 000 1.709 1.374 1.374 0 00.54.572 1.593 1.593 0 00.806.2h.1a1.545 1.545 0 00.793-.2 1.377 1.377 0 00.53-.572 1.862 1.862 0 00.188-.854 1.829 1.829 0 00-.184-.859zM149.478 302.926a2.861 2.861 0 01-2.078.721h-4.518a2.85 2.85 0 01-2.082-.725 3.388 3.388 0 010-4.228 2.858 2.858 0 012.085-.721h4.515a2.852 2.852 0 012.082.725 3.379 3.379 0 010 4.228zm-.967-3.207a1.6 1.6 0 00-1.111-.351h-4.518a1.6 1.6 0 00-1.111.348 1.74 1.74 0 000 2.188 1.6 1.6 0 001.111.348h4.518a1.6 1.6 0 001.111-.351 1.735 1.735 0 000-2.182z"/><path class="cls-7" d="M137.882 351.071l-1.461-1.462" id="LINE-24" data-name="LINE"/><path class="cls-7" d="M139.344 349.609l-1.462 1.462" id="LINE-25" data-name="LINE"/><path class="cls-7" d="M137.883 270.168l1.461 1.461" id="LINE-26" data-name="LINE"/><path class="cls-7" d="M136.422 271.629l1.461-1.461" id="LINE-27" data-name="LINE"/><path class="cls-7" d="M144.074 270.167h-8.694"/><path class="cls-7" d="M209.882 270.168v81.047" id="LINE-28" data-name="LINE"/><path d="M220.911 323.56l-4.621-3.466a3.46 3.46 0 00-.824-.468 2.185 2.185 0 00-.8-.168h-.014a1.208 1.208 0 00-.923.349 1.391 1.391 0 00-.328.991 1.369 1.369 0 00.359.985 1.631 1.631 0 001.015.458h.007v1.442h-.007a3.721 3.721 0 01-1.459-.5 2.559 2.559 0 01-.923-.981 2.93 2.93 0 01-.318-1.388 3.456 3.456 0 01.3-1.518 2.141 2.141 0 01.885-.957 2.817 2.817 0 011.4-.328h.006a3.106 3.106 0 011.1.219 4.745 4.745 0 011.107.608l3.911 2.878v-3.759h1.326v5.605zM222.121 313.778v1.394H213.7l.868 1.415h-1.442l-.944-1.415v-1.394zM221.882 310.2a2.5 2.5 0 01-.968 1.056 2.787 2.787 0 01-1.452.373h-.162a2.8 2.8 0 01-1.4-.373 2.5 2.5 0 01-.991-1 2.175 2.175 0 01-.831.845 2.241 2.241 0 01-1.145.317h-.239a2.65 2.65 0 01-1.37-.348 2.358 2.358 0 01-.916-.985 3.516 3.516 0 010-2.953 2.35 2.35 0 01.916-.984 2.651 2.651 0 011.37-.349h.239a2.209 2.209 0 011.156.325 2.158 2.158 0 01.82.858 2.576 2.576 0 011-1.008 2.726 2.726 0 011.4-.38h.164a2.786 2.786 0 011.452.372 2.5 2.5 0 01.968 1.057 3.859 3.859 0 010 3.172zm-5.671-2.324a1.248 1.248 0 00-.516-.5 1.617 1.617 0 00-.772-.178h-.1a1.493 1.493 0 00-.738.178 1.222 1.222 0 00-.5.5 1.652 1.652 0 000 1.476 1.222 1.222 0 00.5.5 1.517 1.517 0 00.745.178h.1a1.593 1.593 0 00.762-.178 1.246 1.246 0 00.513-.5 1.6 1.6 0 000-1.476zm4.481-.117a1.384 1.384 0 00-.537-.571 1.551 1.551 0 00-.8-.2h-.1a1.567 1.567 0 00-.8.2 1.382 1.382 0 00-.536.571 2 2 0 000 1.709 1.374 1.374 0 00.54.572 1.593 1.593 0 00.806.2h.1a1.545 1.545 0 00.793-.2 1.377 1.377 0 00.53-.572 1.862 1.862 0 00.188-.854 1.829 1.829 0 00-.184-.859zM221.478 302.926a2.861 2.861 0 01-2.078.721h-4.518a2.85 2.85 0 01-2.082-.725 3.388 3.388 0 010-4.228 2.858 2.858 0 012.085-.721h4.515a2.852 2.852 0 012.082.725 3.379 3.379 0 010 4.228zm-.967-3.207a1.6 1.6 0 00-1.111-.351h-4.518a1.6 1.6 0 00-1.111.348 1.74 1.74 0 000 2.188 1.6 1.6 0 001.111.348h4.518a1.6 1.6 0 001.111-.351 1.735 1.735 0 000-2.182z"/><path class="cls-7" d="M209.882 351.071l-1.461-1.462" id="LINE-29" data-name="LINE"/><path class="cls-7" d="M211.344 349.609l-1.462 1.462" id="LINE-30" data-name="LINE"/><path class="cls-7" d="M209.883 270.168l1.461 1.461" id="LINE-31" data-name="LINE"/><path class="cls-7" d="M208.422 271.629l1.461-1.461" id="LINE-32" data-name="LINE"/><path class="cls-7" d="M216.074 270.167h-8.694"/><path class="cls-7" d="M337.536 266.761H225.877" id="LINE-33" data-name="LINE"/><path d="M269.231 279.1l-.636-.3a2.506 2.506 0 01-1.023-.881 3.208 3.208 0 01-.488-1.391h1.422a1.5 1.5 0 00.267.7 1.223 1.223 0 00.53.406 1.992 1.992 0 00.762.134 1.483 1.483 0 001.073-.369 1.378 1.378 0 00.383-1.039v-.3a1.672 1.672 0 00-.363-1.152 1.3 1.3 0 00-1.025-.406h-.7v-1.327h.7a1.165 1.165 0 00.9-.348 1.4 1.4 0 00.322-.985v-.307a1.19 1.19 0 00-.339-.909 1.335 1.335 0 00-.96-.322 1.462 1.462 0 00-.636.133 1.222 1.222 0 00-.475.41 1.884 1.884 0 00-.284.7h-1.415a3.626 3.626 0 01.516-1.4 2.518 2.518 0 01.961-.882 2.855 2.855 0 011.333-.3 2.757 2.757 0 011.989.676 2.519 2.519 0 01.7 1.908v.164a2.151 2.151 0 01-.4 1.3 2.278 2.278 0 01-1.142.807 2.019 2.019 0 011.261.8 2.643 2.643 0 01.448 1.586v.164a3.054 3.054 0 01-.335 1.483 2.217 2.217 0 01-.974.937 3.4 3.4 0 01-1.541.321zM275.618 278.357a2.868 2.868 0 01-.72-2.078v-4.519a2.856 2.856 0 01.724-2.082 3.393 3.393 0 014.229 0 2.861 2.861 0 01.72 2.085v4.519a2.853 2.853 0 01-.724 2.081 3.379 3.379 0 01-4.229 0zm3.207-.968a1.59 1.59 0 00.352-1.11v-4.519a1.6 1.6 0 00-.349-1.111 1.742 1.742 0 00-2.187 0 1.6 1.6 0 00-.349 1.111v4.519a1.59 1.59 0 00.352 1.11 1.73 1.73 0 002.181 0zM284.062 278.808a2.412 2.412 0 01-.951-.854 3.4 3.4 0 01-.489-1.347v-.007h1.395v.007a1.3 1.3 0 00.437.851 1.418 1.418 0 00.944.3 1.259 1.259 0 001.035-.448 1.941 1.941 0 00.366-1.261v-.834a1.933 1.933 0 00-.366-1.255 1.264 1.264 0 00-1.035-.447 1.317 1.317 0 00-.7.2 1.95 1.95 0 00-.587.574h-1.272v-5.227h5.065v1.326h-3.67v2.236a1.96 1.96 0 01.581-.329 1.894 1.894 0 01.656-.116 2.875 2.875 0 011.473.356 2.274 2.274 0 01.93 1.039 3.9 3.9 0 01.318 1.647v.834a3.778 3.778 0 01-.329 1.648 2.328 2.328 0 01-.957 1.042 3 3 0 01-1.51.359 2.941 2.941 0 01-1.334-.294zM290.965 278.357a2.868 2.868 0 01-.721-2.078v-4.519a2.856 2.856 0 01.725-2.082 3.391 3.391 0 014.228 0 2.858 2.858 0 01.721 2.085v4.519a2.853 2.853 0 01-.724 2.081 3.379 3.379 0 01-4.229 0zm3.207-.968a1.6 1.6 0 00.352-1.11v-4.519a1.607 1.607 0 00-.349-1.111 1.742 1.742 0 00-2.187 0 1.6 1.6 0 00-.349 1.111v4.519a1.6 1.6 0 00.351 1.11 1.731 1.731 0 002.182 0z"/><path class="cls-7" d="M226.021 266.761l1.461-1.461" id="LINE-34" data-name="LINE"/><path class="cls-7" d="M227.482 268.222l-1.461-1.461" id="LINE-35" data-name="LINE"/><path class="cls-7" d="M337.536 266.761l-1.461 1.462" id="LINE-36" data-name="LINE"/><path class="cls-7" d="M336.075 265.3l1.461 1.461" id="LINE-37" data-name="LINE"/><path class="cls-7" d="M80.135 270.168v58.758" id="LINE-38" data-name="LINE"/><path d="M92.957 302.977v1.4h-8.422l.869 1.415h-1.443l-.943-1.415v-1.4zM92.766 299.282a2.413 2.413 0 01-.855.951 3.4 3.4 0 01-1.346.488h-.007v-1.394h.007a1.3 1.3 0 00.851-.438 1.42 1.42 0 00.3-.943 1.259 1.259 0 00-.448-1.035 1.941 1.941 0 00-1.261-.367h-.834a1.928 1.928 0 00-1.254.367 1.259 1.259 0 00-.448 1.035 1.316 1.316 0 00.205.7 1.953 1.953 0 00.574.588v1.266h-5.232v-5.065h1.326v3.671h2.235a1.992 1.992 0 01-.328-.581 1.926 1.926 0 01-.116-.656 2.9 2.9 0 01.355-1.474 2.287 2.287 0 011.04-.93 3.893 3.893 0 011.647-.317h.834a3.77 3.77 0 011.647.328 2.326 2.326 0 011.043.957 3 3 0 01.359 1.511 2.931 2.931 0 01-.294 1.338zM93.06 291.363l-.3.636a2.52 2.52 0 01-.882 1.022 3.187 3.187 0 01-1.391.488v-1.422a1.5 1.5 0 00.7-.266 1.244 1.244 0 00.407-.53 2.011 2.011 0 00.133-.762 1.481 1.481 0 00-.369-1.073 1.376 1.376 0 00-1.039-.383h-.3a1.677 1.677 0 00-1.152.362 1.3 1.3 0 00-.407 1.025v.705h-1.334v-.705a1.166 1.166 0 00-.348-.9 1.4 1.4 0 00-.985-.321h-.307a1.19 1.19 0 00-.91.339 1.337 1.337 0 00-.321.96 1.469 1.469 0 00.133.635 1.21 1.21 0 00.411.475 1.848 1.848 0 00.693.284v1.415a3.627 3.627 0 01-1.394-.515 2.541 2.541 0 01-.882-.961 2.855 2.855 0 01-.3-1.333 2.758 2.758 0 01.677-1.99 2.522 2.522 0 011.907-.7h.164a2.146 2.146 0 011.3.4 2.277 2.277 0 01.807 1.141 2.019 2.019 0 01.8-1.261 2.649 2.649 0 011.586-.448h.164a3.065 3.065 0 011.483.335 2.212 2.212 0 01.936.975 3.386 3.386 0 01.322 1.541zM92.766 284.256a2.416 2.416 0 01-.855.952 3.4 3.4 0 01-1.346.488h-.007v-1.4h.007a1.3 1.3 0 00.851-.437 1.421 1.421 0 00.3-.944 1.259 1.259 0 00-.448-1.035 1.941 1.941 0 00-1.261-.366h-.834a1.928 1.928 0 00-1.254.366 1.259 1.259 0 00-.448 1.035 1.317 1.317 0 00.205.7 1.964 1.964 0 00.574.588v1.271h-5.232v-5.065h1.326v3.671h2.235a2 2 0 01-.328-.582 1.917 1.917 0 01-.116-.656 2.9 2.9 0 01.355-1.473 2.281 2.281 0 011.04-.93 3.893 3.893 0 011.647-.317h.834a3.77 3.77 0 011.647.328 2.32 2.32 0 011.043.957 3 3 0 01.359 1.51 2.928 2.928 0 01-.294 1.339z"/><path class="cls-7" d="M80.135 328.926l-1.461-1.461" id="LINE-39" data-name="LINE"/><path class="cls-7" d="M81.597 327.465l-1.462 1.461" id="LINE-40" data-name="LINE"/><path class="cls-7" d="M80.136 270.169l1.461 1.461" id="LINE-41" data-name="LINE"/><path class="cls-7" d="M78.675 271.63l1.461-1.461" id="LINE-42" data-name="LINE"/><path class="cls-7" d="M86.327 270.169h-8.694"/><path class="cls-7" d="M85.437 222.179v44.964" id="LINE-43" data-name="LINE"/><path d="M82.019 253.278v1.394H73.6l.868 1.415h-1.445l-.944-1.415v-1.394zM82.019 248.623v1.394H73.6l.868 1.415h-1.445l-.944-1.415v-1.394zM73.323 241.233l8.7 2.57v1.484l-8.614-2.571v2.53h1.429v1.394h-2.759v-5.407zM81.376 238.6a2.861 2.861 0 01-2.078.721H74.78a2.85 2.85 0 01-2.082-.725 3.388 3.388 0 010-4.228 2.858 2.858 0 012.085-.721H79.3a2.852 2.852 0 012.082.725 3.379 3.379 0 010 4.228zm-.967-3.207a1.6 1.6 0 00-1.111-.351H74.78a1.6 1.6 0 00-1.111.348 1.74 1.74 0 000 2.188 1.6 1.6 0 001.111.348h4.52a1.6 1.6 0 001.111-.351 1.735 1.735 0 000-2.182z"/><path class="cls-7" d="M85.437 267.143l-1.461-1.461" id="LINE-44" data-name="LINE"/><path class="cls-7" d="M86.898 265.682l-1.461 1.461" id="LINE-45" data-name="LINE"/><path class="cls-7" d="M85.438 222.179l1.461 1.461" id="LINE-46" data-name="LINE"/><path class="cls-7" d="M83.977 223.64l1.461-1.461" id="LINE-47" data-name="LINE"/><path class="cls-7" d="M205.908 223.142v44.001" id="LINE-48" data-name="LINE"/><path d="M202.489 253.933v1.4h-8.421l.868 1.415h-1.443l-.943-1.415v-1.4zM202.489 249.278v1.394h-8.421l.868 1.415h-1.443l-.943-1.415v-1.394zM197.554 243.5l.246.007a1.031 1.031 0 01.461.516 2.059 2.059 0 01.147.817 2.189 2.189 0 01-.362 1.251 2.367 2.367 0 01-1.022.838 3.706 3.706 0 01-1.528.3h-.007a3.821 3.821 0 01-1.647-.324 2.288 2.288 0 01-1.039-.951 2.986 2.986 0 01-.356-1.5 2.923 2.923 0 01.363-1.5 2.32 2.32 0 011.053-.947 3.884 3.884 0 011.661-.325h.006a5.193 5.193 0 011.139.137 7.038 7.038 0 011.2.389l.182.083c.062.028.122.056.181.088l4.258 2.12V246zm-.861-.065a1.953 1.953 0 00-1.251-.358h-.007a1.857 1.857 0 00-1.217.358 1.419 1.419 0 000 2.037 1.858 1.858 0 001.224.36h.006a1.925 1.925 0 001.248-.36 1.393 1.393 0 000-2.037zM202.3 238.4a2.412 2.412 0 01-.854.951 3.41 3.41 0 01-1.347.488h-.007v-1.394h.007a1.291 1.291 0 00.851-.438 1.413 1.413 0 00.3-.943 1.259 1.259 0 00-.448-1.035 1.939 1.939 0 00-1.261-.366h-.834a1.93 1.93 0 00-1.254.366 1.259 1.259 0 00-.448 1.035 1.314 1.314 0 00.2.7 1.953 1.953 0 00.574.588v1.272h-5.229v-5.066h1.326v3.671h2.236a1.972 1.972 0 01-.329-.581 1.926 1.926 0 01-.116-.656 2.889 2.889 0 01.356-1.474 2.279 2.279 0 011.039-.93 3.911 3.911 0 011.647-.317h.834a3.778 3.778 0 011.648.328 2.329 2.329 0 011.042.957 3 3 0 01.359 1.511 2.931 2.931 0 01-.292 1.333z"/><path class="cls-7" d="M205.908 267.143l-1.461-1.461" id="LINE-49" data-name="LINE"/><path class="cls-7" d="M207.369 265.682l-1.461 1.461" id="LINE-50" data-name="LINE"/><path class="cls-7" d="M205.909 223.142l1.461 1.461" id="LINE-51" data-name="LINE"/><path class="cls-7" d="M204.447 224.603l1.462-1.461" id="LINE-52" data-name="LINE"/><path class="cls-7" d="M190.385 48.551v148.122" id="LINE-53" data-name="LINE"/><path d="M202.412 134.479l-.3.636a2.506 2.506 0 01-.882 1.022 3.178 3.178 0 01-1.391.488V135.2a1.5 1.5 0 00.7-.267 1.23 1.23 0 00.407-.53 1.992 1.992 0 00.133-.762 1.483 1.483 0 00-.369-1.073 1.376 1.376 0 00-1.039-.383h-.3a1.676 1.676 0 00-1.151.362 1.3 1.3 0 00-.407 1.026v.7h-1.326v-.7a1.164 1.164 0 00-.349-.9 1.4 1.4 0 00-.984-.321h-.308a1.188 1.188 0 00-.909.339 1.339 1.339 0 00-.321.96 1.462 1.462 0 00.133.636 1.219 1.219 0 00.41.474 1.853 1.853 0 00.694.284v1.415a3.616 3.616 0 01-1.4-.515 2.523 2.523 0 01-.881-.961 2.855 2.855 0 01-.3-1.333 2.75 2.75 0 01.677-1.989 2.518 2.518 0 011.907-.705h.164a2.148 2.148 0 011.3.4 2.269 2.269 0 01.806 1.141 2.025 2.025 0 01.8-1.26 2.645 2.645 0 011.586-.449h.164a3.069 3.069 0 011.484.335 2.212 2.212 0 01.936.975 3.4 3.4 0 01.321 1.541zM197.374 125.292l.246.006a1.028 1.028 0 01.462.516 2.077 2.077 0 01.147.817 2.189 2.189 0 01-.363 1.251 2.361 2.361 0 01-1.022.838 3.7 3.7 0 01-1.527.3h-.007a3.823 3.823 0 01-1.648-.324 2.293 2.293 0 01-1.039-.951 2.986 2.986 0 01-.355-1.5 2.922 2.922 0 01.362-1.5 2.325 2.325 0 011.053-.947 3.884 3.884 0 011.661-.325h.007a5.184 5.184 0 011.138.137 6.993 6.993 0 011.2.39l.181.082c.061.027.122.056.181.088l4.259 2.12v1.5zm-.861-.066a1.949 1.949 0 00-1.251-.358h-.007a1.857 1.857 0 00-1.217.358 1.421 1.421 0 000 2.037 1.858 1.858 0 001.224.36h.007a1.924 1.924 0 001.247-.36 1.393 1.393 0 000-2.037zM193.614 116.494l8.7 2.57v1.483l-8.614-2.57v2.529h1.429v1.394h-2.759v-5.407zM202.118 113.14a2.4 2.4 0 01-.854.951 3.411 3.411 0 01-1.347.489h-.007v-1.395h.007a1.292 1.292 0 00.851-.437 1.418 1.418 0 00.3-.944 1.261 1.261 0 00-.447-1.035 1.944 1.944 0 00-1.262-.366h-.833a1.931 1.931 0 00-1.255.366 1.261 1.261 0 00-.448 1.035 1.323 1.323 0 00.205.7 1.957 1.957 0 00.575.588v1.272h-5.233V109.3h1.33v3.671h2.236a1.969 1.969 0 01-.328-.581 1.9 1.9 0 01-.116-.656 2.891 2.891 0 01.355-1.474 2.282 2.282 0 011.039-.929 3.9 3.9 0 011.648-.318h.833a3.792 3.792 0 011.648.328 2.329 2.329 0 011.042.957 2.993 2.993 0 01.359 1.511 2.931 2.931 0 01-.298 1.331z"/><path class="cls-7" d="M190.385 196.673l-1.461-1.461" id="LINE-54" data-name="LINE"/><path class="cls-7" d="M191.846 195.212l-1.461 1.461" id="LINE-55" data-name="LINE"/><path class="cls-7" d="M190.385 48.551l1.461 1.461" id="LINE-56" data-name="LINE"/><path class="cls-7" d="M188.924 50.012l1.461-1.461" id="LINE-57" data-name="LINE"/><path class="cls-7" d="M318.839 48.551v161.568" id="LINE-58" data-name="LINE"/><path d="M312.534 144.134l-7.2-3.336v-1.435l7.116 3.254v-4.874h1.292v6.391zm-3.11-4.286v-1.36h5.852v1.36zM312.534 136.17l-7.2-3.336V131.4l7.116 3.254v-4.874h1.292v6.391zm-3.11-4.286v-1.36h5.852v1.36zM314.626 127.349a2.861 2.861 0 01-2.078.721h-4.518a2.85 2.85 0 01-2.082-.725 3.388 3.388 0 010-4.228 2.858 2.858 0 012.085-.721h4.518a2.852 2.852 0 012.082.725 3.379 3.379 0 010 4.228zm-.967-3.207a1.6 1.6 0 00-1.111-.351h-4.518a1.6 1.6 0 00-1.111.348 1.74 1.74 0 000 2.188 1.6 1.6 0 001.111.348h4.518a1.6 1.6 0 001.111-.351 1.735 1.735 0 000-2.182zM314.626 119.625a2.865 2.865 0 01-2.078.72h-4.518a2.854 2.854 0 01-2.082-.724 3.389 3.389 0 010-4.229 2.862 2.862 0 012.085-.721h4.518a2.856 2.856 0 012.082.725 3.38 3.38 0 010 4.229zm-.967-3.208a1.6 1.6 0 00-1.111-.351h-4.518a1.6 1.6 0 00-1.111.349 1.738 1.738 0 000 2.187 1.605 1.605 0 001.111.349h4.518a1.6 1.6 0 001.111-.352 1.735 1.735 0 000-2.182z"/><path class="cls-7" d="M318.839 210.119l-1.461-1.461" id="LINE-59" data-name="LINE"/><path class="cls-7" d="M320.3 208.658l-1.461 1.461" id="LINE-60" data-name="LINE"/><path class="cls-7" d="M318.84 48.551l1.461 1.461" id="LINE-61" data-name="LINE"/><path class="cls-7" d="M317.378 50.012l1.462-1.461" id="LINE-62" data-name="LINE"/><path class="cls-7" d="M318.839 223.259v127.959" id="LINE-63" data-name="LINE"/><path d="M315.371 299.974l-.3.636a2.5 2.5 0 01-.882 1.022 3.191 3.191 0 01-1.391.489V300.7a1.5 1.5 0 00.7-.267 1.23 1.23 0 00.407-.53 1.992 1.992 0 00.133-.762 1.483 1.483 0 00-.369-1.073 1.376 1.376 0 00-1.039-.383h-.3a1.676 1.676 0 00-1.151.362 1.3 1.3 0 00-.407 1.026v.7h-1.326v-.7a1.168 1.168 0 00-.349-.9 1.4 1.4 0 00-.984-.321h-.313a1.188 1.188 0 00-.909.339 1.339 1.339 0 00-.321.96 1.462 1.462 0 00.133.636 1.211 1.211 0 00.41.474 1.87 1.87 0 00.694.285v1.415a3.632 3.632 0 01-1.395-.516 2.523 2.523 0 01-.881-.961 2.855 2.855 0 01-.3-1.333 2.751 2.751 0 01.677-1.989 2.517 2.517 0 011.907-.7h.164a2.148 2.148 0 011.3.4 2.268 2.268 0 01.801 1.138 2.027 2.027 0 01.8-1.261 2.645 2.645 0 011.586-.448h.164a3.051 3.051 0 011.483.335 2.2 2.2 0 01.937.974 3.4 3.4 0 01.321 1.541zM312.534 294.444l-7.2-3.336v-1.436l7.116 3.254v-4.874h1.292v6.392zm-3.11-4.286V288.8h5.852v1.361zM306.573 281.209l8.7 2.571v1.483l-8.614-2.57v2.529h1.429v1.4h-2.755v-5.408zM315.077 277.856a2.4 2.4 0 01-.854.951 3.41 3.41 0 01-1.347.488h-.007V277.9h.007a1.288 1.288 0 00.851-.438 1.413 1.413 0 00.3-.943 1.261 1.261 0 00-.447-1.035 1.944 1.944 0 00-1.262-.366h-.834a1.93 1.93 0 00-1.254.366 1.261 1.261 0 00-.448 1.035 1.323 1.323 0 00.2.7 1.957 1.957 0 00.575.588v1.272h-5.237v-5.066h1.326v3.671h2.236a1.969 1.969 0 01-.328-.581 1.9 1.9 0 01-.117-.656 2.889 2.889 0 01.356-1.474 2.277 2.277 0 011.039-.929 3.9 3.9 0 011.647-.318h.834a3.778 3.778 0 011.648.328 2.329 2.329 0 011.042.957 2.993 2.993 0 01.359 1.511 2.931 2.931 0 01-.285 1.334z"/><path class="cls-7" d="M318.839 351.051l-1.461-1.461" id="LINE-64" data-name="LINE"/><path class="cls-7" d="M320.3 349.59l-1.461 1.461" id="LINE-65" data-name="LINE"/><path class="cls-7" d="M318.84 223.259l1.461 1.461" id="LINE-66" data-name="LINE"/><path class="cls-7" d="M317.378 224.72l1.462-1.461" id="LINE-67" data-name="LINE"/><path class="cls-7" d="M337.537 64.736H132.544" id="LINE-68" data-name="LINE"/><path d="M222.309 61.037a2.412 2.412 0 01-.951-.854 3.4 3.4 0 01-.489-1.347v-.007h1.4v.007a1.294 1.294 0 00.437.851 1.418 1.418 0 00.944.3 1.259 1.259 0 001.035-.448 1.939 1.939 0 00.366-1.261v-.834a1.93 1.93 0 00-.366-1.254 1.261 1.261 0 00-1.035-.448 1.32 1.32 0 00-.7.2 1.962 1.962 0 00-.587.574h-1.272v-5.227h5.066v1.326h-3.671v2.236a1.96 1.96 0 01.581-.329 1.922 1.922 0 01.656-.116 2.891 2.891 0 011.474.356 2.282 2.282 0 01.929 1.039 3.9 3.9 0 01.318 1.647v.834a3.792 3.792 0 01-.328 1.648 2.331 2.331 0 01-.958 1.042 3 3 0 01-1.51.359 2.928 2.928 0 01-1.339-.294zM228.355 58.494l3.336-7.2h1.435l-3.254 7.116h4.874v1.29h-6.391zm4.286-3.11H234v5.851h-1.36zM239.976 56.293l-.007.246a1.022 1.022 0 01-.516.461 2.059 2.059 0 01-.817.147 2.189 2.189 0 01-1.251-.362 2.374 2.374 0 01-.838-1.022 3.706 3.706 0 01-.3-1.528v-.006a3.838 3.838 0 01.324-1.648 2.29 2.29 0 01.952-1.039 2.986 2.986 0 011.5-.355 2.922 2.922 0 011.5.362 2.323 2.323 0 01.946 1.053 3.869 3.869 0 01.325 1.661v.007a5.191 5.191 0 01-.137 1.138 6.865 6.865 0 01-.389 1.2l-.082.182a2.335 2.335 0 01-.089.181l-2.119 4.259h-1.5zm.065-.861a1.947 1.947 0 00.359-1.251v-.007a1.852 1.852 0 00-.359-1.217 1.419 1.419 0 00-2.037 0 1.857 1.857 0 00-.359 1.224v.007a1.924 1.924 0 00.355 1.247 1.393 1.393 0 002.037 0zM245.079 61.037a2.418 2.418 0 01-.951-.854 3.41 3.41 0 01-.488-1.347v-.007h1.394v.007a1.3 1.3 0 00.438.851 1.415 1.415 0 00.943.3 1.257 1.257 0 001.035-.448 1.934 1.934 0 00.367-1.261v-.834a1.924 1.924 0 00-.367-1.254 1.26 1.26 0 00-1.035-.448 1.316 1.316 0 00-.7.2 1.953 1.953 0 00-.588.574h-1.271v-5.227h5.065v1.326h-3.671v2.236a1.972 1.972 0 01.581-.329 1.926 1.926 0 01.656-.116 2.886 2.886 0 011.474.356 2.284 2.284 0 01.93 1.039 3.9 3.9 0 01.317 1.647v.834a3.778 3.778 0 01-.328 1.648 2.329 2.329 0 01-.957 1.042 3 3 0 01-1.511.359 2.931 2.931 0 01-1.333-.294z"/><path class="cls-7" d="M132.544 64.736l1.461-1.461" id="LINE-69" data-name="LINE"/><path class="cls-7" d="M134.005 66.197l-1.461-1.461" id="LINE-70" data-name="LINE"/><path class="cls-7" d="M337.537 64.737l-1.461 1.461" id="LINE-71" data-name="LINE"/><path class="cls-7" d="M336.076 63.276l1.461 1.461" id="LINE-72" data-name="LINE"/><path class="cls-7" d="M28.038 48.551v147.745" id="LINE-73" data-name="LINE"/><path d="M24.571 134.476l-.305.636a2.5 2.5 0 01-.882 1.022 3.191 3.191 0 01-1.391.489V135.2a1.5 1.5 0 00.7-.267 1.228 1.228 0 00.406-.53 1.992 1.992 0 00.134-.762 1.483 1.483 0 00-.369-1.073 1.38 1.38 0 00-1.04-.383h-.3a1.677 1.677 0 00-1.152.362 1.3 1.3 0 00-.407 1.026v.7h-1.328v-.7a1.164 1.164 0 00-.349-.9 1.4 1.4 0 00-.984-.321H17a1.188 1.188 0 00-.909.339 1.339 1.339 0 00-.321.96 1.462 1.462 0 00.133.636 1.219 1.219 0 00.41.474 1.853 1.853 0 00.694.284v1.415a3.611 3.611 0 01-1.394-.515 2.518 2.518 0 01-.882-.961 2.855 2.855 0 01-.3-1.333 2.754 2.754 0 01.677-1.989 2.519 2.519 0 011.907-.7h.164a2.145 2.145 0 011.3.4 2.277 2.277 0 01.807 1.141 2.02 2.02 0 01.8-1.26 2.647 2.647 0 011.586-.448h.164a3.067 3.067 0 011.484.334 2.212 2.212 0 01.936.975 3.389 3.389 0 01.322 1.541zM19.532 125.289l.247.006a1.035 1.035 0 01.461.516 2.081 2.081 0 01.147.817 2.2 2.2 0 01-.362 1.251 2.367 2.367 0 01-1.022.838 3.693 3.693 0 01-1.528.3h-.007a3.815 3.815 0 01-1.647-.324 2.291 2.291 0 01-1.04-.951 3 3 0 01-.355-1.5 2.932 2.932 0 01.362-1.5 2.331 2.331 0 011.053-.947 3.884 3.884 0 011.661-.325h.007a5.184 5.184 0 011.138.137 6.993 6.993 0 011.2.39l.181.082c.062.027.122.056.181.088l4.259 2.12v1.5zm-.861-.066a1.949 1.949 0 00-1.251-.358h-.007a1.859 1.859 0 00-1.217.358 1.421 1.421 0 000 2.037 1.859 1.859 0 001.224.36h.007a1.925 1.925 0 001.248-.36 1.394 1.394 0 000-2.037zM21.734 122.308l-7.2-3.336v-1.435l7.117 3.254v-4.874h1.292v6.391zm-3.111-4.286v-1.36h5.852v1.36zM24.277 112.768a2.407 2.407 0 01-.855.951 3.421 3.421 0 01-1.347.489h-.006v-1.395h.006a1.288 1.288 0 00.851-.438 1.414 1.414 0 00.305-.943 1.261 1.261 0 00-.448-1.035 1.941 1.941 0 00-1.261-.366h-.834a1.933 1.933 0 00-1.255.366 1.261 1.261 0 00-.447 1.035 1.314 1.314 0 00.2.7 1.941 1.941 0 00.574.588v1.272h-5.231v-5.066h1.326v3.671h2.235a1.992 1.992 0 01-.328-.581 1.9 1.9 0 01-.116-.656 2.891 2.891 0 01.354-1.477 2.287 2.287 0 011.039-.929 3.9 3.9 0 011.648-.318h.834a3.788 3.788 0 011.647.328 2.331 2.331 0 011.043.957 3 3 0 01.359 1.511 2.944 2.944 0 01-.293 1.336z"/><path class="cls-7" d="M28.038 196.296l-1.461-1.461" id="LINE-74" data-name="LINE"/><path class="cls-7" d="M29.499 194.835l-1.461 1.461" id="LINE-75" data-name="LINE"/><path class="cls-7" d="M28.039 48.551l1.461 1.461" id="LINE-76" data-name="LINE"/><path class="cls-7" d="M26.578 50.012l1.461-1.461" id="LINE-77" data-name="LINE"/><path class="cls-7" d="M125.359 48.664v170.293" id="LINE-78" data-name="LINE"/><path d="M119.054 148.388l-7.2-3.336v-1.435l7.116 3.254V142h1.292v6.391zm-3.11-4.286v-1.36h5.856v1.36zM121.6 138.848a2.4 2.4 0 01-.854.951 3.411 3.411 0 01-1.347.489h-.007v-1.4h.007a1.292 1.292 0 00.851-.437 1.418 1.418 0 00.3-.944 1.261 1.261 0 00-.447-1.035 1.944 1.944 0 00-1.262-.366h-.833a1.931 1.931 0 00-1.255.366 1.261 1.261 0 00-.448 1.035 1.323 1.323 0 00.2.7 1.957 1.957 0 00.575.588v1.272h-5.237V135h1.326v3.671h2.236a1.969 1.969 0 01-.328-.581 1.9 1.9 0 01-.116-.656 2.891 2.891 0 01.355-1.474 2.282 2.282 0 011.039-.929 3.9 3.9 0 011.648-.318h.833a3.792 3.792 0 011.648.328 2.329 2.329 0 011.042.957 2.993 2.993 0 01.359 1.511 2.931 2.931 0 01-.285 1.339zM121.6 131.226a2.4 2.4 0 01-.854.951 3.427 3.427 0 01-1.347.489h-.007v-1.4h.007a1.288 1.288 0 00.851-.438 1.413 1.413 0 00.3-.943 1.261 1.261 0 00-.447-1.035 1.944 1.944 0 00-1.262-.366h-.833a1.931 1.931 0 00-1.255.366 1.261 1.261 0 00-.448 1.035 1.323 1.323 0 00.2.7 1.957 1.957 0 00.575.588v1.272h-5.237v-5.066h1.326v3.671h2.236a1.969 1.969 0 01-.328-.581 1.9 1.9 0 01-.116-.656 2.891 2.891 0 01.355-1.474 2.282 2.282 0 011.039-.929 3.9 3.9 0 011.648-.318h.833a3.792 3.792 0 011.648.328 2.324 2.324 0 011.042.957 2.993 2.993 0 01.359 1.511 2.931 2.931 0 01-.285 1.338zM121.146 124.323a2.865 2.865 0 01-2.078.72h-4.518a2.854 2.854 0 01-2.082-.724 3.389 3.389 0 010-4.229 2.861 2.861 0 012.085-.72h4.518a2.856 2.856 0 012.082.724 3.38 3.38 0 010 4.229zm-.967-3.207a1.591 1.591 0 00-1.111-.352h-4.518a1.6 1.6 0 00-1.111.349 1.738 1.738 0 000 2.187 1.6 1.6 0 001.111.349h4.518a1.591 1.591 0 001.111-.352 1.733 1.733 0 000-2.181z"/><path class="cls-7" d="M125.359 218.957l-1.462-1.462" id="LINE-79" data-name="LINE"/><path class="cls-7" d="M126.82 217.495l-1.461 1.462" id="LINE-80" data-name="LINE"/><path class="cls-7" d="M125.359 48.664l1.462 1.462" id="LINE-81" data-name="LINE"/><path class="cls-7" d="M123.898 50.126l1.461-1.462" id="LINE-82" data-name="LINE"/><path class="cls-7" d="M129.522 64.736H10.744" id="LINE-83" data-name="LINE"/><path d="M59.366 61.331l-.635-.3a2.516 2.516 0 01-1.023-.882 3.182 3.182 0 01-.488-1.391h1.422a1.5 1.5 0 00.266.7 1.241 1.241 0 00.531.407 1.987 1.987 0 00.761.133 1.485 1.485 0 001.074-.369 1.375 1.375 0 00.382-1.039v-.3a1.678 1.678 0 00-.362-1.152 1.3 1.3 0 00-1.025-.406h-.7V55.4h.7a1.166 1.166 0 00.9-.348 1.4 1.4 0 00.321-.985v-.307a1.191 1.191 0 00-.338-.909 1.335 1.335 0 00-.96-.322 1.456 1.456 0 00-.636.134 1.207 1.207 0 00-.475.41 1.862 1.862 0 00-.284.694h-1.413a3.626 3.626 0 01.516-1.4 2.534 2.534 0 01.961-.882 2.864 2.864 0 011.333-.3 2.757 2.757 0 011.989.676 2.519 2.519 0 01.7 1.908v.164a2.151 2.151 0 01-.4 1.3 2.272 2.272 0 01-1.142.807 2.023 2.023 0 011.261.8 2.643 2.643 0 01.448 1.586v.164a3.054 3.054 0 01-.335 1.483 2.22 2.22 0 01-.975.937 3.4 3.4 0 01-1.541.321zM67.433 61.229h-1.4v-8.422l-1.415.868v-1.443l1.415-.943h1.4zM71.425 61.331l-.636-.3a2.513 2.513 0 01-1.022-.882 3.182 3.182 0 01-.488-1.391H70.7a1.5 1.5 0 00.267.7 1.238 1.238 0 00.53.407 1.992 1.992 0 00.762.133 1.483 1.483 0 001.073-.369 1.376 1.376 0 00.383-1.039v-.3a1.678 1.678 0 00-.362-1.152 1.3 1.3 0 00-1.026-.406h-.7V55.4h.7a1.167 1.167 0 00.9-.348 1.4 1.4 0 00.321-.985v-.307a1.188 1.188 0 00-.339-.909 1.333 1.333 0 00-.96-.322 1.462 1.462 0 00-.636.134 1.211 1.211 0 00-.474.41 1.846 1.846 0 00-.284.694h-1.412a3.609 3.609 0 01.515-1.4 2.534 2.534 0 01.961-.882 2.867 2.867 0 011.333-.3 2.754 2.754 0 011.989.676 2.52 2.52 0 01.7 1.908v.164a2.145 2.145 0 01-.4 1.3 2.265 2.265 0 01-1.141.807 2.021 2.021 0 011.26.8 2.643 2.643 0 01.449 1.586v.164a3.065 3.065 0 01-.335 1.483 2.22 2.22 0 01-.975.937 3.4 3.4 0 01-1.541.321zM77.813 60.586a2.864 2.864 0 01-.721-2.078v-4.519a2.843 2.843 0 115.674 0v4.519a2.559 2.559 0 01-2.837 2.823 2.812 2.812 0 01-2.116-.745zm3.207-.967a1.6 1.6 0 00.351-1.111v-4.519a1.607 1.607 0 00-.348-1.111 1.743 1.743 0 00-2.188 0 1.607 1.607 0 00-.348 1.111v4.519a1.6 1.6 0 00.351 1.111 1.735 1.735 0 002.182 0z"/><path class="cls-7" d="M10.744 64.736l1.461-1.461" id="LINE-84" data-name="LINE"/><path class="cls-7" d="M12.205 66.197l-1.461-1.461" id="LINE-85" data-name="LINE"/><path class="cls-7" d="M129.522 64.737l-1.461 1.461" id="LINE-86" data-name="LINE"/><path class="cls-7" d="M128.061 63.276l1.461 1.461" id="LINE-87" data-name="LINE"/><path class="cls-7" d="M178.831 204.11h-46.105" id="LINE-88" data-name="LINE"/><path d="M147.145 217.221h-1.4V208.8l-1.415.868v-1.442l1.415-.943h1.4zM151.8 217.221h-1.4V208.8l-1.415.868v-1.442l1.415-.943h1.4zM157.576 212.286l-.006.246a1.037 1.037 0 01-.516.462 2.1 2.1 0 01-.817.146 2.189 2.189 0 01-1.251-.362 2.361 2.361 0 01-.838-1.022 3.69 3.69 0 01-.3-1.528v-.007a3.821 3.821 0 01.324-1.647 2.293 2.293 0 01.951-1.039 2.986 2.986 0 011.5-.356 2.923 2.923 0 011.5.363 2.328 2.328 0 01.947 1.052 3.89 3.89 0 01.325 1.661v.007a5.186 5.186 0 01-.137 1.139 6.955 6.955 0 01-.39 1.2l-.082.182a2 2 0 01-.089.18l-2.119 4.259h-1.5zm.066-.862a1.949 1.949 0 00.358-1.251v-.006a1.857 1.857 0 00-.358-1.217 1.419 1.419 0 00-2.037 0 1.851 1.851 0 00-.36 1.223v.007a1.919 1.919 0 00.36 1.248 1.392 1.392 0 002.037 0zM162.68 217.03a2.407 2.407 0 01-.951-.855 3.4 3.4 0 01-.489-1.346v-.007h1.395v.007a1.294 1.294 0 00.437.851 1.423 1.423 0 00.944.3 1.264 1.264 0 001.035-.447 1.944 1.944 0 00.366-1.262v-.834a1.93 1.93 0 00-.366-1.254 1.259 1.259 0 00-1.035-.448 1.314 1.314 0 00-.7.2 1.953 1.953 0 00-.588.574h-1.272v-5.236h5.066v1.326h-3.671v2.235a2.015 2.015 0 01.581-.328 1.922 1.922 0 01.656-.116 2.9 2.9 0 011.474.355 2.292 2.292 0 01.929 1.039 3.9 3.9 0 01.318 1.648v.834a3.788 3.788 0 01-.328 1.647 2.326 2.326 0 01-.957 1.043 2.993 2.993 0 01-1.511.359 2.931 2.931 0 01-1.333-.285z"/><path class="cls-7" d="M132.726 204.11l1.461-1.461" id="LINE-89" data-name="LINE"/><path class="cls-7" d="M134.187 205.571l-1.461-1.461" id="LINE-90" data-name="LINE"/><path class="cls-7" d="M178.831 204.111l-1.461 1.461" id="LINE-91" data-name="LINE"/><path class="cls-7" d="M177.37 202.649l1.461 1.462" id="LINE-92" data-name="LINE"/><path class="cls-7" d="M128.387 324.562h-52.9" id="LINE-93" data-name="LINE"/><path d="M91.533 321.789h-1.395v-8.422l-1.415.868v-1.443l1.415-.943h1.395zM95.525 321.891l-.636-.3a2.52 2.52 0 01-1.022-.882 3.178 3.178 0 01-.488-1.391H94.8a1.5 1.5 0 00.267.7 1.227 1.227 0 00.53.406 1.973 1.973 0 00.762.134 1.483 1.483 0 001.073-.369 1.378 1.378 0 00.383-1.039v-.3a1.672 1.672 0 00-.362-1.151 1.3 1.3 0 00-1.026-.407h-.7v-1.326h.7a1.168 1.168 0 00.9-.349 1.4 1.4 0 00.321-.984v-.308a1.19 1.19 0 00-.339-.909 1.333 1.333 0 00-.96-.322 1.441 1.441 0 00-.635.134 1.2 1.2 0 00-.475.41 1.846 1.846 0 00-.284.694h-1.412a3.626 3.626 0 01.515-1.4 2.541 2.541 0 01.961-.882 2.867 2.867 0 011.333-.3 2.758 2.758 0 011.99.676 2.525 2.525 0 01.7 1.908v.164a2.143 2.143 0 01-.4 1.3 2.271 2.271 0 01-1.141.807 2.018 2.018 0 011.26.8 2.643 2.643 0 01.449 1.586v.164a3.065 3.065 0 01-.335 1.483 2.22 2.22 0 01-.975.937 3.386 3.386 0 01-1.541.321zM102.518 321.549a2.487 2.487 0 01-1.056-.967 2.785 2.785 0 01-.372-1.453v-.164a2.793 2.793 0 01.372-1.4 2.489 2.489 0 01.995-.991 2.182 2.182 0 01-.845-.831 2.241 2.241 0 01-.317-1.145v-.239a2.645 2.645 0 01.348-1.37 2.358 2.358 0 01.985-.916 3.516 3.516 0 012.953 0 2.35 2.35 0 01.984.916 2.636 2.636 0 01.349 1.37v.239a2.208 2.208 0 01-.325 1.155 2.154 2.154 0 01-.858.821 2.563 2.563 0 011.008 1 2.719 2.719 0 01.38 1.4v.164a2.785 2.785 0 01-.372 1.453 2.49 2.49 0 01-1.057.967 3.848 3.848 0 01-3.172 0zm2.441-1.189a1.394 1.394 0 00.571-.536 1.558 1.558 0 00.2-.8v-.1a1.567 1.567 0 00-.2-.8 1.384 1.384 0 00-.571-.537 2.007 2.007 0 00-1.709 0 1.381 1.381 0 00-.572.54 1.6 1.6 0 00-.2.807v.1a1.544 1.544 0 00.2.792 1.364 1.364 0 00.572.53 1.849 1.849 0 00.854.188 1.829 1.829 0 00.855-.184zm-.117-4.482a1.26 1.26 0 00.5-.515 1.629 1.629 0 00.177-.773v-.09a1.5 1.5 0 00-.177-.739 1.228 1.228 0 00-.5-.495 1.644 1.644 0 00-1.476 0 1.22 1.22 0 00-.5.495 1.517 1.517 0 00-.178.745v.1a1.6 1.6 0 00.178.763 1.253 1.253 0 00.5.511 1.587 1.587 0 001.476 0zM109.788 321.146a2.861 2.861 0 01-.721-2.078v-4.519a2.843 2.843 0 115.674 0v4.519a2.853 2.853 0 01-.725 2.082 3.379 3.379 0 01-4.228 0zm3.207-.967a1.6 1.6 0 00.351-1.111v-4.519a1.6 1.6 0 00-.348-1.11 1.74 1.74 0 00-2.188 0 1.6 1.6 0 00-.348 1.11v4.519a1.6 1.6 0 00.351 1.111 1.735 1.735 0 002.182 0z"/><path class="cls-7" d="M75.487 324.562l1.461-1.462" id="LINE-94" data-name="LINE"/><path class="cls-7" d="M76.948 326.023l-1.461-1.461" id="LINE-95" data-name="LINE"/><path class="cls-7" d="M128.387 324.562l-1.461 1.461" id="LINE-96" data-name="LINE"/><path class="cls-7" d="M126.926 323.101l1.461 1.461" id="LINE-97" data-name="LINE"/><path class="cls-7" d="M200.183 344.859H131.41" id="LINE-98" data-name="LINE"/><path d="M155.8 342.086h-1.394v-8.421l-1.416.868v-1.443l1.416-.943h1.394zM163.189 333.391l-2.571 8.695h-1.483l2.57-8.613h-2.529v1.427h-1.395v-2.755h5.408zM164.419 339.352l3.336-7.2h1.436l-3.254 7.116h4.874v1.292h-6.392zm4.286-3.11h1.361v5.851h-1.361zM173.24 341.444a2.868 2.868 0 01-.72-2.078v-4.519a2.856 2.856 0 01.724-2.082 3.393 3.393 0 014.229 0 2.862 2.862 0 01.721 2.085v4.519a2.854 2.854 0 01-.725 2.081 3.379 3.379 0 01-4.229 0zm3.207-.968a1.59 1.59 0 00.352-1.11v-4.519a1.6 1.6 0 00-.349-1.111 1.742 1.742 0 00-2.187 0 1.6 1.6 0 00-.349 1.111v4.519a1.59 1.59 0 00.352 1.11 1.73 1.73 0 002.181 0z"/><path class="cls-7" d="M131.41 344.859l1.461-1.461" id="LINE-99" data-name="LINE"/><path class="cls-7" d="M132.871 346.32l-1.461-1.461" id="LINE-100" data-name="LINE"/><path class="cls-7" d="M200.183 344.86l-1.461 1.461" id="LINE-101" data-name="LINE"/><path class="cls-7" d="M198.722 343.398l1.461 1.462" id="LINE-102" data-name="LINE"/><path class="cls-7" d="M337.535 344.859H203.468" id="LINE-103" data-name="LINE"/><path d="M258.3 342.189l-.636-.305a2.5 2.5 0 01-1.022-.882 3.174 3.174 0 01-.488-1.39h1.421a1.514 1.514 0 00.267.7 1.242 1.242 0 00.53.406 1.992 1.992 0 00.762.134 1.483 1.483 0 001.073-.369 1.378 1.378 0 00.383-1.039v-.3a1.677 1.677 0 00-.362-1.152 1.3 1.3 0 00-1.026-.406h-.7v-1.327h.7a1.167 1.167 0 00.9-.348 1.4 1.4 0 00.321-.985v-.307a1.185 1.185 0 00-.339-.909 1.333 1.333 0 00-.96-.322 1.454 1.454 0 00-.635.133 1.215 1.215 0 00-.475.41 1.851 1.851 0 00-.284.695h-1.415a3.626 3.626 0 01.515-1.4 2.525 2.525 0 01.961-.882 2.855 2.855 0 011.333-.3 2.758 2.758 0 011.99.677 2.522 2.522 0 01.7 1.907v.164a2.146 2.146 0 01-.4 1.3 2.277 2.277 0 01-1.141.807 2.014 2.014 0 011.26.8 2.643 2.643 0 01.449 1.586v.164a3.065 3.065 0 01-.335 1.483 2.22 2.22 0 01-.975.937 3.4 3.4 0 01-1.541.321zM265.03 341.836a2.279 2.279 0 01-.948-1.025 3.713 3.713 0 01-.324-1.623v-.007a5.537 5.537 0 01.13-1.162 6.735 6.735 0 01.376-1.2c.027-.069.057-.136.089-.2l.095-.195 2.161-4.279h1.5l-2.537 4.956.007-.246a1.189 1.189 0 01.5-.5 1.579 1.579 0 01.766-.178 2.432 2.432 0 011.326.349 2.179 2.179 0 01.841 1.014 4.052 4.052 0 01.287 1.6v.007a3.786 3.786 0 01-.325 1.64 2.29 2.29 0 01-.949 1.039 3.347 3.347 0 01-3 0zm2.519-1.4a1.726 1.726 0 00.358-1.169v-.007a1.971 1.971 0 00-.376-1.289 1.313 1.313 0 00-1.073-.454 1.131 1.131 0 00-.964.458 2.129 2.129 0 00-.341 1.292v.007a1.7 1.7 0 00.359 1.165 1.474 1.474 0 002.037 0zM272.587 341.9a2.412 2.412 0 01-.951-.854 3.416 3.416 0 01-.488-1.347v-.007h1.394v.007a1.288 1.288 0 00.438.85 1.409 1.409 0 00.943.305 1.259 1.259 0 001.035-.448 1.941 1.941 0 00.366-1.261v-.834a1.933 1.933 0 00-.366-1.255 1.261 1.261 0 00-1.035-.447 1.314 1.314 0 00-.7.205 1.953 1.953 0 00-.588.574h-1.272v-5.236h5.066v1.326h-3.671v2.235a1.992 1.992 0 01.581-.328 1.9 1.9 0 01.656-.116 2.879 2.879 0 011.474.356 2.279 2.279 0 01.93 1.039 3.9 3.9 0 01.317 1.647v.834a3.778 3.778 0 01-.328 1.648 2.334 2.334 0 01-.957 1.042 3 3 0 01-1.511.359 2.944 2.944 0 01-1.333-.294zM279.49 341.444a2.868 2.868 0 01-.72-2.078v-4.519a2.856 2.856 0 01.724-2.082 3.393 3.393 0 014.229 0 2.862 2.862 0 01.721 2.085v4.519a2.854 2.854 0 01-.725 2.081 3.379 3.379 0 01-4.229 0zm3.207-.968a1.59 1.59 0 00.352-1.11v-4.519a1.6 1.6 0 00-.349-1.111 1.742 1.742 0 00-2.187 0 1.6 1.6 0 00-.349 1.111v4.519a1.59 1.59 0 00.352 1.11 1.73 1.73 0 002.181 0z"/><path class="cls-7" d="M203.468 344.859l1.461-1.461" id="LINE-104" data-name="LINE"/><path class="cls-7" d="M204.929 346.32l-1.461-1.461" id="LINE-105" data-name="LINE"/><path class="cls-7" d="M337.535 344.86l-1.461 1.461" id="LINE-106" data-name="LINE"/><path class="cls-7" d="M336.074 343.398l1.461 1.462" id="LINE-107" data-name="LINE"/><path class="cls-7" d="M80.208 204.11h-54.42" id="LINE-108" data-name="LINE"/><path d="M42.658 217.221h-1.394V208.8l-1.415.868v-1.442l1.415-.943h1.394zM44.778 214.487l3.335-7.2h1.436l-3.249 7.118h4.874v1.295h-6.396zm4.286-3.111h1.36v5.852h-1.36zM56.4 212.286l-.007.246a1.029 1.029 0 01-.516.462 2.1 2.1 0 01-.817.146 2.189 2.189 0 01-1.251-.362 2.361 2.361 0 01-.838-1.022 3.706 3.706 0 01-.3-1.528v-.007a3.821 3.821 0 01.329-1.647 2.293 2.293 0 01.951-1.039 2.986 2.986 0 011.5-.356 2.929 2.929 0 011.5.363 2.326 2.326 0 01.946 1.052 3.875 3.875 0 01.325 1.661v.007a5.186 5.186 0 01-.137 1.139 6.95 6.95 0 01-.389 1.2l-.082.182a2.15 2.15 0 01-.089.18l-2.125 4.258h-1.5zm.065-.862a1.949 1.949 0 00.358-1.251v-.006a1.857 1.857 0 00-.358-1.217 1.419 1.419 0 00-2.037 0 1.856 1.856 0 00-.359 1.223v.007a1.925 1.925 0 00.359 1.248 1.392 1.392 0 002.037 0zM60.783 216.579a2.867 2.867 0 01-.72-2.079v-4.518a2.843 2.843 0 115.674 0v4.518a2.859 2.859 0 01-.725 2.083 3.38 3.38 0 01-4.229 0zm3.207-.967a1.594 1.594 0 00.352-1.112v-4.518a1.6 1.6 0 00-.349-1.11 1.738 1.738 0 00-2.187 0 1.6 1.6 0 00-.349 1.11v4.518a1.594 1.594 0 00.352 1.112 1.733 1.733 0 002.181 0z"/><path class="cls-7" d="M25.788 204.11l1.461-1.461" id="LINE-109" data-name="LINE"/><path class="cls-7" d="M27.249 205.571l-1.461-1.461" id="LINE-110" data-name="LINE"/><path class="cls-7" d="M80.208 204.111l-1.461 1.461" id="LINE-111" data-name="LINE"/><path class="cls-7" d="M78.747 202.649l1.461 1.462" id="LINE-112" data-name="LINE"/><path class="cls-7" d="M83.441 190.118H10.494" id="LINE-113" data-name="LINE"/><path d="M37.018 186.854h-1.394v-8.421l-1.415.868v-1.443l1.415-.943h1.394zM42.8 181.919l-.007.246a1.022 1.022 0 01-.516.461 2.059 2.059 0 01-.817.147 2.189 2.189 0 01-1.251-.362 2.367 2.367 0 01-.838-1.022 3.706 3.706 0 01-.3-1.528v-.007a3.821 3.821 0 01.324-1.647 2.288 2.288 0 01.951-1.039 2.986 2.986 0 011.5-.355 2.929 2.929 0 011.5.362 2.323 2.323 0 01.946 1.053 3.869 3.869 0 01.325 1.661v.007a5.191 5.191 0 01-.137 1.138 6.95 6.95 0 01-.389 1.2c-.028.059-.055.12-.082.182s-.057.122-.089.181l-2.12 4.257h-1.5zm.065-.861a1.953 1.953 0 00.358-1.251v-.007a1.857 1.857 0 00-.358-1.217 1.419 1.419 0 00-2.037 0 1.857 1.857 0 00-.359 1.224v.006a1.925 1.925 0 00.359 1.248 1.393 1.393 0 002.037 0zM49.979 181.919l-.007.246a1.024 1.024 0 01-.515.461 2.064 2.064 0 01-.818.147 2.193 2.193 0 01-1.251-.362 2.381 2.381 0 01-.838-1.022 3.706 3.706 0 01-.3-1.528v-.007a3.821 3.821 0 01.324-1.647 2.288 2.288 0 01.951-1.039 2.986 2.986 0 011.5-.355 2.922 2.922 0 011.5.362 2.318 2.318 0 01.946 1.053 3.868 3.868 0 01.326 1.661v.007a5.191 5.191 0 01-.137 1.138 6.955 6.955 0 01-.39 1.2l-.082.182a2.165 2.165 0 01-.089.181l-2.119 4.258h-1.5zm.066-.861a1.953 1.953 0 00.358-1.251v-.007a1.857 1.857 0 00-.358-1.217 1.419 1.419 0 00-2.037 0 1.852 1.852 0 00-.36 1.224v.006a1.919 1.919 0 00.36 1.248 1.393 1.393 0 002.037 0zM54.364 186.212a2.868 2.868 0 01-.721-2.078v-4.519a2.843 2.843 0 115.674 0v4.519a2.559 2.559 0 01-2.837 2.823 2.816 2.816 0 01-2.116-.745zm3.207-.967a1.6 1.6 0 00.352-1.111v-4.519a1.607 1.607 0 00-.349-1.111 1.743 1.743 0 00-2.188 0 1.607 1.607 0 00-.348 1.111v4.519a1.6 1.6 0 00.351 1.111 1.735 1.735 0 002.182 0z"/><path class="cls-7" d="M10.763 190.118l1.461-1.461" id="LINE-114" data-name="LINE"/><path class="cls-7" d="M12.224 191.579l-1.461-1.461" id="LINE-115" data-name="LINE"/><path class="cls-7" d="M83.441 190.119l-1.461 1.461" id="LINE-116" data-name="LINE"/><path class="cls-7" d="M81.98 188.658l1.461 1.461" id="LINE-117" data-name="LINE"/><path class="cls-7" d="M83.441 197.86v-10.458"/><path class="cls-7" d="M337.535 204.11H201.938" id="LINE-118" data-name="LINE"/><path d="M257.4 201.048l-.636-.3a2.513 2.513 0 01-1.022-.882 3.182 3.182 0 01-.488-1.391h1.421a1.5 1.5 0 00.267.7 1.238 1.238 0 00.53.407 1.992 1.992 0 00.762.133 1.483 1.483 0 001.073-.369 1.376 1.376 0 00.383-1.039V198a1.677 1.677 0 00-.362-1.152 1.3 1.3 0 00-1.026-.407h-.7v-1.326h.7a1.167 1.167 0 00.9-.348 1.4 1.4 0 00.321-.985v-.307a1.192 1.192 0 00-.339-.91 1.339 1.339 0 00-.96-.321 1.477 1.477 0 00-.636.133 1.214 1.214 0 00-.474.411 1.848 1.848 0 00-.284.693h-1.415a3.611 3.611 0 01.515-1.394 2.534 2.534 0 01.961-.882 2.855 2.855 0 011.333-.3 2.754 2.754 0 011.989.677 2.519 2.519 0 01.7 1.907v.164a2.145 2.145 0 01-.4 1.3 2.277 2.277 0 01-1.141.807 2.017 2.017 0 011.26.8 2.643 2.643 0 01.449 1.586v.164a3.065 3.065 0 01-.335 1.483 2.22 2.22 0 01-.975.937 3.4 3.4 0 01-1.541.321zM264.138 200.7a2.29 2.29 0 01-.947-1.026 3.713 3.713 0 01-.324-1.623v-.007a5.545 5.545 0 01.13-1.162 6.761 6.761 0 01.376-1.2c.027-.069.056-.136.089-.2s.063-.131.1-.195l2.16-4.279h1.5l-2.536 4.956.007-.246a1.189 1.189 0 01.5-.5 1.579 1.579 0 01.766-.178 2.435 2.435 0 011.326.349 2.177 2.177 0 01.841 1.015 4.044 4.044 0 01.287 1.6v.007a3.8 3.8 0 01-.325 1.64 2.287 2.287 0 01-.95 1.039 3.351 3.351 0 01-3 0zm2.52-1.4a1.728 1.728 0 00.358-1.169v-.007a1.971 1.971 0 00-.376-1.289 1.313 1.313 0 00-1.073-.454 1.133 1.133 0 00-.964.458 2.131 2.131 0 00-.342 1.292v.007a1.7 1.7 0 00.36 1.165 1.474 1.474 0 002.037 0zM271.583 200.706a2.5 2.5 0 01-1.057-.967 2.79 2.79 0 01-.372-1.453v-.164a2.793 2.793 0 01.372-1.4 2.5 2.5 0 011-.992 2.186 2.186 0 01-.845-.83 2.251 2.251 0 01-.317-1.145v-.239a2.642 2.642 0 01.349-1.371 2.356 2.356 0 01.984-.916 3.516 3.516 0 012.953 0 2.364 2.364 0 01.985.916 2.651 2.651 0 01.348 1.371v.239a2.2 2.2 0 01-.325 1.155 2.162 2.162 0 01-.857.82 2.58 2.58 0 011.007.995 2.726 2.726 0 01.38 1.4v.164a2.79 2.79 0 01-.372 1.453 2.5 2.5 0 01-1.056.967 3.848 3.848 0 01-3.172 0zm2.44-1.189a1.384 1.384 0 00.571-.537 1.554 1.554 0 00.2-.8v-.1a1.567 1.567 0 00-.2-.8 1.378 1.378 0 00-.571-.537 2.007 2.007 0 00-1.709 0 1.378 1.378 0 00-.571.54 1.59 1.59 0 00-.2.807v.1a1.535 1.535 0 00.2.793 1.368 1.368 0 00.571.53 2.021 2.021 0 001.709 0zm-.116-4.481a1.254 1.254 0 00.5-.516 1.632 1.632 0 00.178-.773v-.1a1.506 1.506 0 00-.178-.738 1.235 1.235 0 00-.5-.5 1.654 1.654 0 00-1.477 0 1.247 1.247 0 00-.5.5 1.517 1.517 0 00-.177.745v.1a1.593 1.593 0 00.177.762 1.271 1.271 0 00.5.513 1.6 1.6 0 001.477 0zM278.852 200.3a2.868 2.868 0 01-.72-2.078v-4.519a2.852 2.852 0 01.724-2.081 3.391 3.391 0 014.229 0 2.861 2.861 0 01.72 2.085v4.519a2.558 2.558 0 01-2.837 2.823 2.819 2.819 0 01-2.116-.749zm3.207-.968a1.589 1.589 0 00.352-1.11v-4.519a1.6 1.6 0 00-.349-1.111 1.742 1.742 0 00-2.187 0 1.6 1.6 0 00-.349 1.111v4.519a1.589 1.589 0 00.352 1.11 1.73 1.73 0 002.181 0z"/><path class="cls-7" d="M201.938 204.11l1.462-1.461" id="LINE-119" data-name="LINE"/><path class="cls-7" d="M203.4 205.571l-1.462-1.461" id="LINE-120" data-name="LINE"/><path class="cls-7" d="M337.535 204.111l-1.461 1.461" id="LINE-121" data-name="LINE"/><path class="cls-7" d="M336.074 202.649l1.461 1.462" id="LINE-122" data-name="LINE"/><path class="cls-7" d="M90.527 200.8v18.993" id="LINE-123" data-name="LINE"/><path class="cls-7" d="M122.419 200.8v18.993" id="LINE-124" data-name="LINE"/><path class="cls-7" d="M122.419 200.799H90.527" id="LINE-125" data-name="LINE"/><path d="M99.7 193.293l-.007.247a1.027 1.027 0 01-.516.461 2.077 2.077 0 01-.817.147 2.2 2.2 0 01-1.251-.362 2.374 2.374 0 01-.838-1.022 3.709 3.709 0 01-.3-1.528v-.007a3.83 3.83 0 01.324-1.647 2.293 2.293 0 01.952-1.04 3 3 0 011.5-.355 2.932 2.932 0 011.5.362 2.328 2.328 0 01.946 1.053 3.872 3.872 0 01.325 1.661v.007a5.184 5.184 0 01-.137 1.138 6.875 6.875 0 01-.389 1.2c-.028.059-.055.12-.082.181s-.057.122-.089.181l-2.119 4.259H97.2zm.065-.861a1.943 1.943 0 00.359-1.251v-.007a1.849 1.849 0 00-.359-1.216 1.419 1.419 0 00-2.037 0 1.854 1.854 0 00-.359 1.223v.007a1.925 1.925 0 00.359 1.248 1.394 1.394 0 002.037 0zM104.088 197.586a2.861 2.861 0 01-.721-2.078v-4.518a2.852 2.852 0 01.725-2.082 3.391 3.391 0 014.228 0 2.862 2.862 0 01.721 2.085v4.518a2.559 2.559 0 01-2.837 2.824 2.812 2.812 0 01-2.116-.749zm3.207-.967a1.6 1.6 0 00.351-1.111v-4.518a1.6 1.6 0 00-.348-1.111 1.743 1.743 0 00-2.188 0 1.605 1.605 0 00-.349 1.111v4.518a1.6 1.6 0 00.352 1.111 1.735 1.735 0 002.182 0zM111.812 197.586a2.865 2.865 0 01-.72-2.078v-4.518a2.856 2.856 0 01.724-2.082 3.393 3.393 0 014.229 0 2.861 2.861 0 01.72 2.085v4.518a2.558 2.558 0 01-2.837 2.824 2.816 2.816 0 01-2.116-.749zm3.207-.967a1.591 1.591 0 00.352-1.111v-4.518a1.6 1.6 0 00-.349-1.111 1.742 1.742 0 00-2.187 0 1.6 1.6 0 00-.349 1.111v4.518a1.591 1.591 0 00.352 1.111 1.733 1.733 0 002.181 0z"/><path class="cls-7" d="M90.527 200.799l1.461-1.461" id="LINE-126" data-name="LINE"/><path class="cls-7" d="M91.988 202.261l-1.461-1.462" id="LINE-127" data-name="LINE"/><path class="cls-7" d="M122.419 200.782l-1.462-1.461" id="LINE-128" data-name="LINE"/><path class="cls-7" d="M120.957 202.243l1.462-1.461" id="LINE-129" data-name="LINE"/><path class="cls-7" d="M97.327 249.382v18.992" id="LINE-130" data-name="LINE"/><path class="cls-7" d="M125.441 249.382v18.992" id="LINE-131" data-name="LINE"/><path class="cls-7" d="M125.441 249.381H97.327" id="LINE-132" data-name="LINE"/><path d="M102.073 246.571a2.5 2.5 0 01-1.056-.967 2.788 2.788 0 01-.372-1.453v-.164a2.8 2.8 0 01.372-1.4 2.5 2.5 0 011-.991 2.179 2.179 0 01-.845-.83 2.241 2.241 0 01-.317-1.145v-.24a2.65 2.65 0 01.348-1.37 2.364 2.364 0 01.985-.916 3.516 3.516 0 012.953 0 2.356 2.356 0 01.984.916 2.641 2.641 0 01.349 1.37v.24a2.2 2.2 0 01-.325 1.155 2.151 2.151 0 01-.858.82 2.583 2.583 0 011.008 1 2.728 2.728 0 01.38 1.4v.164a2.788 2.788 0 01-.372 1.453 2.5 2.5 0 01-1.057.967 3.848 3.848 0 01-3.172 0zm2.441-1.19a1.382 1.382 0 00.571-.536 1.555 1.555 0 00.2-.8v-.095a1.564 1.564 0 00-.2-.8 1.384 1.384 0 00-.571-.537 2 2 0 00-1.709 0 1.372 1.372 0 00-.571.54 1.586 1.586 0 00-.2.806v.1a1.536 1.536 0 00.2.793 1.368 1.368 0 00.571.53 1.862 1.862 0 00.854.188 1.826 1.826 0 00.855-.189zm-.116-4.48a1.25 1.25 0 00.5-.517 1.622 1.622 0 00.177-.772v-.1a1.509 1.509 0 00-.177-.738 1.226 1.226 0 00-.5-.5 1.646 1.646 0 00-1.477 0 1.226 1.226 0 00-.5.5 1.523 1.523 0 00-.178.745v.1a1.6 1.6 0 00.178.763 1.258 1.258 0 00.5.513 1.6 1.6 0 001.477 0zM109.343 246.167a2.865 2.865 0 01-.721-2.078v-4.518a2.843 2.843 0 115.674 0v4.518a2.85 2.85 0 01-.725 2.082 3.375 3.375 0 01-4.228 0zm3.207-.966a1.6 1.6 0 00.352-1.112v-4.518a1.605 1.605 0 00-.349-1.111 1.743 1.743 0 00-2.188 0 1.6 1.6 0 00-.348 1.111v4.518a1.6 1.6 0 00.351 1.112 1.738 1.738 0 002.182 0zM117.068 246.167a2.861 2.861 0 01-.721-2.078v-4.518a2.843 2.843 0 115.674 0v4.518a2.85 2.85 0 01-.725 2.082 3.375 3.375 0 01-4.228 0zm3.207-.966a1.6 1.6 0 00.351-1.112v-4.518a1.6 1.6 0 00-.348-1.111 1.743 1.743 0 00-2.188 0 1.605 1.605 0 00-.349 1.111v4.518a1.6 1.6 0 00.352 1.112 1.738 1.738 0 002.182 0z"/><path class="cls-7" d="M97.327 249.381l1.462-1.461" id="LINE-133" data-name="LINE"/><path class="cls-7" d="M98.789 250.842l-1.462-1.461" id="LINE-134" data-name="LINE"/><path class="cls-7" d="M125.441 249.363l-1.461-1.461" id="LINE-135" data-name="LINE"/><path class="cls-7" d="M123.98 250.825l1.461-1.462" id="LINE-136" data-name="LINE"/><path class="cls-7" d="M199.124 289.16v-18.993" id="LINE-137" data-name="LINE"/><path class="cls-7" d="M167.233 289.16v-18.993" id="LINE-138" data-name="LINE"/><path class="cls-7" d="M167.233 289.16h31.891" id="LINE-139" data-name="LINE"/><path d="M173.866 300.015a2.5 2.5 0 01-1.057-.967 2.788 2.788 0 01-.372-1.453v-.164a2.793 2.793 0 01.372-1.4 2.492 2.492 0 011-.992 2.186 2.186 0 01-.844-.831 2.241 2.241 0 01-.318-1.144v-.24a2.646 2.646 0 01.349-1.37 2.35 2.35 0 01.984-.916 3.507 3.507 0 012.953 0 2.358 2.358 0 01.985.916 2.645 2.645 0 01.348 1.37v.24a2.193 2.193 0 01-.325 1.154 2.158 2.158 0 01-.857.821 2.576 2.576 0 011.008 1 2.722 2.722 0 01.38 1.4v.164a2.788 2.788 0 01-.373 1.453 2.494 2.494 0 01-1.056.967 3.848 3.848 0 01-3.172 0zm2.44-1.189a1.391 1.391 0 00.572-.536 1.564 1.564 0 00.2-.8v-.1a1.578 1.578 0 00-.2-.8 1.391 1.391 0 00-.572-.536 2.007 2.007 0 00-1.709 0 1.376 1.376 0 00-.571.539 1.59 1.59 0 00-.2.807v.1a1.535 1.535 0 00.2.793 1.368 1.368 0 00.571.53 1.866 1.866 0 00.855.187 1.825 1.825 0 00.854-.184zm-.116-4.481a1.257 1.257 0 00.5-.515 1.637 1.637 0 00.178-.774v-.1a1.509 1.509 0 00-.178-.738 1.226 1.226 0 00-.5-.5 1.644 1.644 0 00-1.476 0 1.226 1.226 0 00-.5.5 1.513 1.513 0 00-.178.746v.1a1.589 1.589 0 00.178.763 1.256 1.256 0 00.5.512 1.587 1.587 0 001.476 0zM181.135 299.613a2.868 2.868 0 01-.72-2.078v-4.52a2.855 2.855 0 01.724-2.081 3.393 3.393 0 014.229 0 2.861 2.861 0 01.721 2.084v4.52a2.855 2.855 0 01-.725 2.081 3.382 3.382 0 01-4.229 0zm3.207-.968a1.59 1.59 0 00.352-1.11v-4.52a1.6 1.6 0 00-.349-1.11 1.742 1.742 0 00-2.187 0 1.6 1.6 0 00-.349 1.11v4.52a1.59 1.59 0 00.352 1.11 1.733 1.733 0 002.181 0zM188.86 299.613a2.868 2.868 0 01-.721-2.078v-4.52a2.855 2.855 0 01.725-2.081 3.391 3.391 0 014.228 0 2.857 2.857 0 01.721 2.084v4.52a2.855 2.855 0 01-.724 2.081 3.382 3.382 0 01-4.229 0zm3.207-.968a1.6 1.6 0 00.352-1.11v-4.52a1.6 1.6 0 00-.349-1.11 1.742 1.742 0 00-2.187 0 1.6 1.6 0 00-.349 1.11v4.52a1.6 1.6 0 00.351 1.11 1.735 1.735 0 002.182 0z"/><path class="cls-7" d="M199.124 289.16l-1.461 1.461" id="LINE-140" data-name="LINE"/><path class="cls-7" d="M197.663 287.699l1.461 1.461" id="LINE-141" data-name="LINE"/><path class="cls-7" d="M167.233 289.178l1.461 1.461" id="LINE-142" data-name="LINE"/><path class="cls-7" d="M168.694 287.717l-1.461 1.461" id="LINE-143" data-name="LINE"/><path class="cls-7" d="M244.869 226.74h-18.992" id="LINE-144" data-name="LINE"/><path class="cls-7" d="M244.869 258.631h-18.992" id="LINE-145" data-name="LINE"/><path class="cls-7" d="M244.87 258.631V226.74" id="LINE-146" data-name="LINE"/><path d="M251.863 249.458l.246.006a1.031 1.031 0 01.461.516 2.077 2.077 0 01.147.817 2.2 2.2 0 01-.362 1.251 2.367 2.367 0 01-1.022.838 3.706 3.706 0 01-1.528.3h-.005a3.815 3.815 0 01-1.647-.324 2.283 2.283 0 01-1.039-.951 2.986 2.986 0 01-.356-1.5 2.932 2.932 0 01.362-1.5 2.331 2.331 0 011.053-.947 3.887 3.887 0 011.661-.325h.007a5.177 5.177 0 011.138.137 6.965 6.965 0 011.2.39l.181.082c.062.027.122.056.181.088l4.259 2.12v1.5zm-.862-.066a1.949 1.949 0 00-1.251-.358h-.007a1.854 1.854 0 00-1.216.358 1.419 1.419 0 000 2.037 1.855 1.855 0 001.223.36h.007a1.925 1.925 0 001.248-.36 1.392 1.392 0 000-2.037zM256.155 245.073a2.865 2.865 0 01-2.078.72h-4.518a2.856 2.856 0 01-2.082-.724 3.393 3.393 0 010-4.229 2.861 2.861 0 012.085-.72h4.518a2.856 2.856 0 012.082.724 3.377 3.377 0 010 4.229zm-.967-3.207a1.591 1.591 0 00-1.111-.352h-4.518a1.6 1.6 0 00-1.111.349 1.742 1.742 0 000 2.187 1.6 1.6 0 001.111.349h4.518a1.591 1.591 0 001.111-.352 1.733 1.733 0 000-2.181zM256.155 237.348a2.861 2.861 0 01-2.078.721h-4.518a2.852 2.852 0 01-2.082-.725 3.391 3.391 0 010-4.228 2.858 2.858 0 012.085-.721h4.518a2.852 2.852 0 012.082.725 3.375 3.375 0 010 4.228zm-.967-3.207a1.6 1.6 0 00-1.111-.351h-4.518a1.6 1.6 0 00-1.111.348 1.743 1.743 0 000 2.188 1.6 1.6 0 001.111.348h4.518a1.6 1.6 0 001.111-.351 1.735 1.735 0 000-2.182z"/><path class="cls-7" d="M244.87 226.74l1.461 1.461" id="LINE-147" data-name="LINE"/><path class="cls-7" d="M243.409 228.201l1.461-1.461" id="LINE-148" data-name="LINE"/><path class="cls-7" d="M244.887 258.631l1.462-1.461" id="LINE-149" data-name="LINE"/><path class="cls-7" d="M243.426 257.17l1.461 1.461" id="LINE-150" data-name="LINE"/><path class="cls-7" d="M103.26 15.423v17.074" id="LINE-151" data-name="LINE"/><path class="cls-7" d="M37.134 15.379v17.074" id="LINE-152" data-name="LINE"/><path class="cls-7" d="M37.134 15.385l66.126.05" id="LINE-153" data-name="LINE"/><path d="M61.58 11.97h-1.394V3.548l-1.415.868V2.974l1.415-.944h1.394zM68.97 3.274l-2.57 8.7h-1.484l2.571-8.614h-2.53v1.425h-1.394V2.03h5.407zM73.283 11.97h-1.394V3.548l-1.415.868V2.974l1.415-.944h1.394zM76.26 11.327a2.865 2.865 0 01-.721-2.078V4.73a2.849 2.849 0 01.725-2.081 3.388 3.388 0 014.228 0 2.857 2.857 0 01.721 2.084v4.516a2.852 2.852 0 01-.725 2.082 3.379 3.379 0 01-4.228 0zm3.207-.967a1.6 1.6 0 00.352-1.111V4.73a1.6 1.6 0 00-.349-1.11 1.74 1.74 0 00-2.188 0 1.6 1.6 0 00-.348 1.11v4.519a1.6 1.6 0 00.351 1.111 1.735 1.735 0 002.182 0z"/><path class="cls-7" d="M103.304 15.441l-1.461-1.461" id="LINE-154" data-name="LINE"/><path class="cls-7" d="M101.843 16.902l1.461-1.461" id="LINE-155" data-name="LINE"/><path class="cls-7" d="M37.134 15.339l1.461 1.461" id="LINE-156" data-name="LINE"/><path class="cls-7" d="M38.595 13.878l-1.461 1.461" id="LINE-157" data-name="LINE"/><path class="cls-7" d="M37.069 15.423v17.074" id="LINE-158" data-name="LINE"/><path class="cls-7" d="M10.025 15.379v17.074" id="LINE-159" data-name="LINE"/><path class="cls-7" d="M10.025 15.385l27.044.05" id="LINE-160" data-name="LINE"/><path d="M19.328 3.274l-2.57 8.7h-1.483l2.57-8.614h-2.529v1.425h-1.4V2.03h5.407zM20.559 9.235l3.336-7.2h1.435l-3.254 7.118h4.874v1.292h-6.391zm4.286-3.11h1.36v5.852h-1.36zM30.1 11.778a2.4 2.4 0 01-.951-.854 3.411 3.411 0 01-.489-1.347V9.57h1.395v.007a1.292 1.292 0 00.437.851 1.418 1.418 0 00.944.3 1.261 1.261 0 001.035-.447 1.944 1.944 0 00.366-1.262v-.83a1.93 1.93 0 00-.366-1.254 1.261 1.261 0 00-1.035-.448 1.323 1.323 0 00-.7.205 1.957 1.957 0 00-.588.575h-1.27V2.03h5.066v1.326h-3.671v2.236a1.969 1.969 0 01.581-.328 1.9 1.9 0 01.656-.117 2.891 2.891 0 011.474.356 2.282 2.282 0 01.929 1.039 3.9 3.9 0 01.318 1.647v.834a3.792 3.792 0 01-.328 1.648 2.334 2.334 0 01-.957 1.042 2.993 2.993 0 01-1.511.359 2.931 2.931 0 01-1.335-.294z"/><path class="cls-7" d="M37.113 15.441l-1.461-1.461" id="LINE-161" data-name="LINE"/><path class="cls-7" d="M35.652 16.902l1.461-1.461" id="LINE-162" data-name="LINE"/><path class="cls-7" d="M10.025 15.339l1.461 1.461" id="LINE-163" data-name="LINE"/><path class="cls-7" d="M11.486 13.878l-1.461 1.461" id="LINE-164" data-name="LINE"/><path class="cls-7" d="M361.343 15.423v17.074" id="LINE-165" data-name="LINE"/><path class="cls-7" d="M260.029 15.379v17.074" id="LINE-166" data-name="LINE"/><path class="cls-7" d="M260.029 15.372l101.314.076" id="LINE-167" data-name="LINE"/><path d="M298.39 10.76l3.466-4.621a3.426 3.426 0 00.468-.824 2.185 2.185 0 00.168-.8v-.01a1.2 1.2 0 00-.349-.923 1.388 1.388 0 00-.991-.328 1.368 1.368 0 00-.984.359 1.623 1.623 0 00-.458 1.015v.007h-1.443v-.007a3.731 3.731 0 01.5-1.46 2.559 2.559 0 01.982-.922 2.923 2.923 0 011.387-.318 3.456 3.456 0 011.518.3 2.141 2.141 0 01.957.885 2.806 2.806 0 01.328 1.4v.006a3.088 3.088 0 01-.219 1.1 4.673 4.673 0 01-.608 1.107l-2.878 3.911H304v1.333h-5.61zM306.429 11.72a2.288 2.288 0 01-.947-1.025 3.718 3.718 0 01-.324-1.624v-.007a5.545 5.545 0 01.13-1.162 6.787 6.787 0 01.376-1.2c.027-.068.056-.136.089-.2s.063-.13.1-.194l2.161-4.28h1.5l-2.536 4.956.007-.246a1.2 1.2 0 01.5-.5 1.59 1.59 0 01.766-.178 2.443 2.443 0 011.326.349 2.187 2.187 0 01.841 1.015 4.05 4.05 0 01.287 1.6v.007a3.806 3.806 0 01-.325 1.641 2.3 2.3 0 01-.95 1.039 3.355 3.355 0 01-3 0zm2.52-1.4a1.726 1.726 0 00.358-1.169v-.005a1.966 1.966 0 00-.376-1.288 1.314 1.314 0 00-1.073-.455 1.133 1.133 0 00-.964.458 2.133 2.133 0 00-.342 1.292v.007a1.7 1.7 0 00.36 1.166 1.475 1.475 0 002.037 0zM314.947 11.97h-1.395V3.548l-1.415.868V2.974l1.415-.944h1.395zM317.924 11.327a2.861 2.861 0 01-.721-2.078V4.73a2.853 2.853 0 01.724-2.081 3.389 3.389 0 014.229 0 2.861 2.861 0 01.721 2.084v4.516a2.856 2.856 0 01-.725 2.082 3.379 3.379 0 01-4.228 0zm3.207-.967a1.6 1.6 0 00.351-1.111V4.73a1.6 1.6 0 00-.348-1.11 1.74 1.74 0 00-2.188 0 1.6 1.6 0 00-.349 1.11v4.519a1.6 1.6 0 00.352 1.111 1.735 1.735 0 002.182 0z"/><path class="cls-7" d="M361.343 15.441l-1.461-1.461" id="LINE-168" data-name="LINE"/><path class="cls-7" d="M359.882 16.902l1.461-1.461" id="LINE-169" data-name="LINE"/><path class="cls-7" d="M260.029 15.339l1.461 1.461" id="LINE-170" data-name="LINE"/><path class="cls-7" d="M261.49 13.878l-1.461 1.461" id="LINE-171" data-name="LINE"/><path class="cls-7" d="M378.416 179.859h-17.073" id="LINE-172" data-name="LINE"/><path class="cls-7" d="M378.461 24.648h-17.074" id="LINE-173" data-name="LINE"/><path class="cls-7" d="M378.488 24.648l-.116 155.112" id="LINE-174" data-name="LINE"/><path d="M387.66 116.638l-7.2-3.336v-1.435l7.116 3.254v-4.874h1.292v6.391zm-3.11-4.286v-1.36h5.85v1.36zM389.752 107.817a2.868 2.868 0 01-2.078.721h-4.519a2.854 2.854 0 01-2.082-.725 3.393 3.393 0 010-4.229 2.861 2.861 0 012.085-.72h4.519a2.855 2.855 0 012.081.724 3.379 3.379 0 010 4.229zm-.968-3.207a1.59 1.59 0 00-1.11-.352h-4.519a1.605 1.605 0 00-1.111.349 1.742 1.742 0 000 2.187 1.6 1.6 0 001.111.349h4.519a1.6 1.6 0 001.11-.351 1.731 1.731 0 000-2.182zM390.5 99.145l-.305.636a2.5 2.5 0 01-.882 1.022 3.191 3.191 0 01-1.39.489V99.87a1.5 1.5 0 00.7-.267 1.236 1.236 0 00.406-.53 1.992 1.992 0 00.134-.762 1.483 1.483 0 00-.369-1.073 1.378 1.378 0 00-1.039-.383h-.3a1.677 1.677 0 00-1.152.362 1.3 1.3 0 00-.407 1.026v.7h-1.326v-.7a1.167 1.167 0 00-.348-.9 1.4 1.4 0 00-.985-.321h-.307a1.189 1.189 0 00-.91.339 1.339 1.339 0 00-.321.96 1.462 1.462 0 00.133.636 1.211 1.211 0 00.41.474 1.853 1.853 0 00.694.284v1.415a3.6 3.6 0 01-1.394-.515 2.518 2.518 0 01-.882-.961 2.855 2.855 0 01-.3-1.333 2.754 2.754 0 01.677-1.989 2.519 2.519 0 011.907-.7h.164a2.148 2.148 0 011.3.4 2.277 2.277 0 01.807 1.141 2.017 2.017 0 01.8-1.26 2.643 2.643 0 011.586-.449h.164a3.065 3.065 0 011.483.335 2.212 2.212 0 01.936.975 3.4 3.4 0 01.322 1.541zM390.2 92.039a2.421 2.421 0 01-.855.951 3.411 3.411 0 01-1.346.488H388v-1.395a1.287 1.287 0 00.85-.437 1.416 1.416 0 00.305-.943 1.261 1.261 0 00-.448-1.036 1.941 1.941 0 00-1.261-.366h-.834a1.933 1.933 0 00-1.255.366 1.263 1.263 0 00-.447 1.036 1.316 1.316 0 00.205.7 1.953 1.953 0 00.574.588v1.271h-5.236v-5.068h1.326v3.671h2.235a1.969 1.969 0 01-.328-.581 1.9 1.9 0 01-.116-.657 2.885 2.885 0 01.355-1.473 2.282 2.282 0 011.04-.93 3.893 3.893 0 011.647-.317h.834a3.773 3.773 0 011.647.328 2.329 2.329 0 011.042.957 2.993 2.993 0 01.36 1.511 2.944 2.944 0 01-.295 1.336z"/><path class="cls-7" d="M378.399 179.859l1.461-1.462" id="LINE-175" data-name="LINE"/><path class="cls-7" d="M376.938 178.397l1.461 1.462" id="LINE-176" data-name="LINE"/><path class="cls-7" d="M378.501 24.648l-1.462 1.461" id="LINE-177" data-name="LINE"/><path class="cls-7" d="M379.962 26.109l-1.461-1.461" id="LINE-178" data-name="LINE"/><path class="cls-7" d="M378.416 239.371h-17.073" id="LINE-179" data-name="LINE"/><path class="cls-7" d="M378.461 179.859h-17.074" id="LINE-180" data-name="LINE"/><path class="cls-7" d="M378.452 179.859l-.044 59.512" id="LINE-181" data-name="LINE"/><path d="M390.394 219.731v1.394h-8.422l.869 1.416H381.4l-.943-1.416v-1.394zM390.2 216.036a2.421 2.421 0 01-.855.951 3.4 3.4 0 01-1.346.488H388v-1.394a1.293 1.293 0 00.85-.438 1.416 1.416 0 00.305-.943 1.259 1.259 0 00-.447-1.035 1.939 1.939 0 00-1.262-.367h-.834a1.924 1.924 0 00-1.254.367 1.257 1.257 0 00-.448 1.035 1.316 1.316 0 00.205.7 1.953 1.953 0 00.574.588v1.271h-5.236v-5.065h1.326v3.671h2.235a2.015 2.015 0 01-.328-.581 1.9 1.9 0 01-.116-.656 2.886 2.886 0 01.355-1.474 2.287 2.287 0 011.04-.93 3.9 3.9 0 011.647-.317h.834a3.773 3.773 0 011.647.328 2.318 2.318 0 011.042.957 2.983 2.983 0 01.36 1.511 2.931 2.931 0 01-.295 1.333zM385.459 206.333l.246.006a1.033 1.033 0 01.462.516 2.1 2.1 0 01.146.817 2.2 2.2 0 01-.362 1.251 2.358 2.358 0 01-1.023.838 3.7 3.7 0 01-1.527.3h-.007a3.818 3.818 0 01-1.647-.324 2.288 2.288 0 01-1.039-.951 2.986 2.986 0 01-.356-1.5 2.923 2.923 0 01.363-1.5 2.323 2.323 0 011.052-.947 3.887 3.887 0 011.661-.325h.007a5.17 5.17 0 011.138.137 6.937 6.937 0 011.2.39l.181.082c.062.027.123.056.181.088l4.259 2.12v1.5zm-.862-.066a1.949 1.949 0 00-1.251-.358h-.006a1.855 1.855 0 00-1.217.358 1.419 1.419 0 000 2.037 1.855 1.855 0 001.223.36h.007a1.92 1.92 0 001.247-.36 1.391 1.391 0 000-2.037zM390.2 201.229a2.414 2.414 0 01-.855.951 3.4 3.4 0 01-1.346.488H388v-1.394a1.288 1.288 0 00.85-.438 1.414 1.414 0 00.305-.943 1.261 1.261 0 00-.447-1.035 1.944 1.944 0 00-1.262-.366h-.834a1.93 1.93 0 00-1.254.366 1.259 1.259 0 00-.448 1.035 1.314 1.314 0 00.205.7 1.953 1.953 0 00.574.588v1.272h-5.236v-5.066h1.326v3.671h2.235a2.015 2.015 0 01-.328-.581 1.9 1.9 0 01-.116-.656 2.888 2.888 0 01.355-1.474 2.279 2.279 0 011.04-.929 3.9 3.9 0 011.647-.318h.834a3.788 3.788 0 011.647.328 2.318 2.318 0 011.042.957 2.983 2.983 0 01.36 1.511 2.931 2.931 0 01-.295 1.333z"/><path class="cls-7" d="M378.399 239.371l1.461-1.461" id="LINE-182" data-name="LINE"/><path class="cls-7" d="M376.938 237.91l1.461 1.461" id="LINE-183" data-name="LINE"/><path class="cls-7" d="M378.501 179.859l-1.462 1.461" id="LINE-184" data-name="LINE"/><path class="cls-7" d="M379.962 181.32l-1.461-1.461" id="LINE-185" data-name="LINE"/><path class="cls-7" d="M378.416 351.218h-17.073" id="LINE-186" data-name="LINE"/><path class="cls-7" d="M378.461 322.501h-17.074" id="LINE-187" data-name="LINE"/><path class="cls-7" d="M378.441 322.501l-.022 28.717" id="LINE-188" data-name="LINE"/><path d="M381.7 341.627l8.695 2.571v1.483l-8.613-2.57v2.529h1.429v1.4h-2.755v-5.408zM385.459 336.193l.246.007a1.031 1.031 0 01.462.515 2.1 2.1 0 01.146.818 2.2 2.2 0 01-.362 1.251 2.372 2.372 0 01-1.023.838 3.7 3.7 0 01-1.527.3h-.007a3.818 3.818 0 01-1.647-.324 2.288 2.288 0 01-1.039-.951 2.986 2.986 0 01-.356-1.5 2.923 2.923 0 01.363-1.5 2.321 2.321 0 011.052-.946 3.872 3.872 0 011.661-.325h.007a5.166 5.166 0 011.138.136 6.937 6.937 0 011.2.39l.181.082c.062.027.123.057.181.089l4.259 2.119v1.5zm-.862-.066a1.949 1.949 0 00-1.251-.358h-.006a1.855 1.855 0 00-1.217.358 1.42 1.42 0 000 2.038 1.854 1.854 0 001.223.359h.007a1.92 1.92 0 001.247-.359 1.392 1.392 0 000-2.038zM390.2 331.089a2.424 2.424 0 01-.855.952 3.4 3.4 0 01-1.346.488H388v-1.395a1.292 1.292 0 00.85-.437 1.417 1.417 0 00.305-.944 1.261 1.261 0 00-.447-1.035 1.944 1.944 0 00-1.262-.366h-.834a1.93 1.93 0 00-1.254.366 1.259 1.259 0 00-.448 1.035 1.317 1.317 0 00.205.7 1.964 1.964 0 00.574.588v1.271h-5.236v-5.065h1.326v3.671h2.235a2.02 2.02 0 01-.328-.582 1.894 1.894 0 01-.116-.656 2.885 2.885 0 01.355-1.473 2.281 2.281 0 011.04-.93 3.9 3.9 0 011.647-.317h.834a3.773 3.773 0 011.647.328 2.313 2.313 0 011.042.957 2.982 2.982 0 01.36 1.51 2.928 2.928 0 01-.295 1.334z"/><path class="cls-7" d="M378.399 351.218l1.461-1.461" id="LINE-189" data-name="LINE"/><path class="cls-7" d="M376.938 349.757l1.461 1.461" id="LINE-190" data-name="LINE"/><path class="cls-7" d="M378.501 322.501l-1.462 1.461" id="LINE-191" data-name="LINE"/><path class="cls-7" d="M379.962 323.962l-1.461-1.461" id="LINE-192" data-name="LINE"/><path class="cls-7" d="M378.416 322.501h-17.073" id="LINE-193" data-name="LINE"/><path class="cls-7" d="M378.461 239.372h-17.074" id="LINE-194" data-name="LINE"/><path class="cls-7" d="M378.461 239.372l-.062 83.13" id="LINE-195" data-name="LINE"/><path d="M389.184 293.459l-4.621-3.465a3.374 3.374 0 00-.824-.468 2.181 2.181 0 00-.8-.168h-.014a1.2 1.2 0 00-.922.349 1.388 1.388 0 00-.329.991 1.365 1.365 0 00.36.984 1.626 1.626 0 001.014.458h.007v1.443h-.007a3.759 3.759 0 01-1.46-.5 2.563 2.563 0 01-.921-.982 2.913 2.913 0 01-.319-1.388 3.454 3.454 0 01.305-1.517 2.136 2.136 0 01.885-.957 2.8 2.8 0 011.4-.328h.007a3.1 3.1 0 011.1.218 4.739 4.739 0 011.108.609l3.91 2.878v-3.76h1.326v5.605zM390.394 283.677v1.395h-8.422l.869 1.415H381.4l-.943-1.415v-1.395zM390.145 280.355a2.293 2.293 0 01-1.025.947 3.718 3.718 0 01-1.624.324h-.007a5.608 5.608 0 01-1.162-.129 6.735 6.735 0 01-1.2-.376 2.81 2.81 0 01-.2-.089l-.194-.1-4.279-2.16v-1.5l4.956 2.536-.246-.007a1.189 1.189 0 01-.5-.5 1.586 1.586 0 01-.178-.765 2.438 2.438 0 01.349-1.327 2.169 2.169 0 011.015-.84 4.029 4.029 0 011.6-.287h.007a3.783 3.783 0 011.64.325 2.29 2.29 0 011.039.949 3.351 3.351 0 010 3zm-1.4-2.52a1.728 1.728 0 00-1.169-.358h-.007a1.969 1.969 0 00-1.289.376 1.313 1.313 0 00-.454 1.073 1.132 1.132 0 00.458.964 2.124 2.124 0 001.292.342h.007a1.706 1.706 0 001.166-.359 1.477 1.477 0 000-2.038zM389.752 273.516a2.864 2.864 0 01-2.078.721h-4.519a2.852 2.852 0 01-2.082-.725 3.391 3.391 0 010-4.228 2.858 2.858 0 012.085-.721h4.519a2.849 2.849 0 012.081.725 3.377 3.377 0 010 4.228zm-.968-3.207a1.593 1.593 0 00-1.11-.351h-4.519a1.607 1.607 0 00-1.111.348 1.743 1.743 0 000 2.188 1.607 1.607 0 001.111.348h4.519a1.593 1.593 0 001.11-.351 1.731 1.731 0 000-2.182z"/><path class="cls-7" d="M378.399 322.519l1.461-1.461" id="LINE-196" data-name="LINE"/><path class="cls-7" d="M376.938 321.058l1.461 1.461" id="LINE-197" data-name="LINE"/><path class="cls-7" d="M378.501 239.372l-1.462 1.461" id="LINE-198" data-name="LINE"/><path class="cls-7" d="M379.962 240.833l-1.461-1.461" id="LINE-199" data-name="LINE"/><path class="cls-7" d="M214.708 15.423v17.074" id="LINE-200" data-name="LINE"/><path class="cls-7" d="M148.582 15.379v17.074" id="LINE-201" data-name="LINE"/><path class="cls-7" d="M148.582 15.385l66.126.05" id="LINE-202" data-name="LINE"/><path d="M173.028 11.97h-1.394V3.548l-1.416.868V2.974l1.416-.944h1.394zM180.418 3.274l-2.571 8.7h-1.483l2.57-8.614h-2.529v1.425h-1.4V2.03h5.408zM184.731 11.97h-1.394V3.548l-1.415.868V2.974l1.415-.944h1.394zM187.708 11.327a2.861 2.861 0 01-.721-2.078V4.73a2.849 2.849 0 01.725-2.081 3.388 3.388 0 014.228 0 2.857 2.857 0 01.721 2.084v4.516a2.852 2.852 0 01-.725 2.082 3.379 3.379 0 01-4.228 0zm3.207-.967a1.6 1.6 0 00.351-1.111V4.73a1.6 1.6 0 00-.348-1.11 1.74 1.74 0 00-2.188 0 1.6 1.6 0 00-.348 1.11v4.519a1.6 1.6 0 00.351 1.111 1.735 1.735 0 002.182 0z"/><path class="cls-7" d="M214.752 15.441l-1.461-1.461" id="LINE-203" data-name="LINE"/><path class="cls-7" d="M213.291 16.902l1.461-1.461" id="LINE-204" data-name="LINE"/><path class="cls-7" d="M148.582 15.339l1.461 1.461" id="LINE-205" data-name="LINE"/><path class="cls-7" d="M150.043 13.878l-1.461 1.461" id="LINE-206" data-name="LINE"/><path class="cls-7" d="M148.582 15.423v17.074" id="LINE-207" data-name="LINE"/><path class="cls-7" d="M103.26 15.379v17.074" id="LINE-208" data-name="LINE"/><path class="cls-7" d="M103.26 15.393l45.322.034" id="LINE-209" data-name="LINE"/><path d="M115.932 11.97h-1.395V3.548l-1.415.868V2.974l1.415-.944h1.395zM118.037 10.76l3.463-4.621a3.426 3.426 0 00.468-.824 2.185 2.185 0 00.168-.8v-.01a1.2 1.2 0 00-.349-.923 1.388 1.388 0 00-.991-.328 1.368 1.368 0 00-.984.359 1.623 1.623 0 00-.458 1.015v.007h-1.443v-.007a3.731 3.731 0 01.5-1.46 2.559 2.559 0 01.982-.922 2.923 2.923 0 011.387-.318 3.456 3.456 0 011.518.3 2.141 2.141 0 01.957.885 2.806 2.806 0 01.328 1.4v.006a3.088 3.088 0 01-.219 1.1 4.673 4.673 0 01-.608 1.107l-2.878 3.911h3.76v1.333h-5.606zM124.873 9.235l3.336-7.2h1.436l-3.254 7.116h4.874v1.292h-6.392zm4.286-3.11h1.361v5.852h-1.361zM133.7 11.327a2.861 2.861 0 01-.721-2.078V4.73a2.853 2.853 0 01.724-2.081 3.389 3.389 0 014.229 0 2.861 2.861 0 01.721 2.084v4.516a2.856 2.856 0 01-.725 2.082 3.379 3.379 0 01-4.228 0zm3.207-.967a1.6 1.6 0 00.351-1.111V4.73a1.6 1.6 0 00-.348-1.11 1.74 1.74 0 00-2.188 0 1.6 1.6 0 00-.349 1.11v4.519a1.6 1.6 0 00.352 1.111 1.735 1.735 0 002.182 0z"/><path class="cls-7" d="M148.582 15.441l-1.461-1.461" id="LINE-210" data-name="LINE"/><path class="cls-7" d="M147.121 16.902l1.461-1.461" id="LINE-211" data-name="LINE"/><path class="cls-7" d="M103.26 15.339l1.461 1.461" id="LINE-212" data-name="LINE"/><path class="cls-7" d="M104.721 13.878l-1.461 1.461" id="LINE-213" data-name="LINE"/><path class="cls-7" d="M260.029 15.423v17.074" id="LINE-214" data-name="LINE"/><path class="cls-7" d="M214.708 15.379v17.074" id="LINE-215" data-name="LINE"/><path class="cls-7" d="M214.708 15.393l45.321.034" id="LINE-216" data-name="LINE"/><path d="M227.539 11.97h-1.394V3.548l-1.415.868V2.974l1.415-.944h1.394zM229.645 10.76l3.466-4.621a3.421 3.421 0 00.467-.824 2.165 2.165 0 00.168-.8v-.01a1.207 1.207 0 00-.348-.923 1.392 1.392 0 00-.992-.328 1.368 1.368 0 00-.984.359 1.629 1.629 0 00-.458 1.015v.007h-1.442v-.007a3.731 3.731 0 01.5-1.46 2.563 2.563 0 01.981-.922 2.924 2.924 0 011.388-.318 3.451 3.451 0 011.517.3 2.136 2.136 0 01.957.885 2.806 2.806 0 01.329 1.4v.006a3.11 3.11 0 01-.219 1.1 4.713 4.713 0 01-.609 1.107l-2.878 3.911h3.76v1.333h-5.6zM236.877 10.76l3.466-4.621a3.46 3.46 0 00.468-.824 2.185 2.185 0 00.168-.8v-.01a1.2 1.2 0 00-.349-.923 1.388 1.388 0 00-.991-.328 1.367 1.367 0 00-.984.359 1.629 1.629 0 00-.459 1.015v.007h-1.442v-.007a3.731 3.731 0 01.5-1.46 2.559 2.559 0 01.982-.922 2.923 2.923 0 011.387-.318 3.456 3.456 0 011.518.3 2.141 2.141 0 01.957.885 2.806 2.806 0 01.328 1.4v.006a3.088 3.088 0 01-.219 1.1 4.673 4.673 0 01-.608 1.107l-2.878 3.911h3.76v1.333h-5.606zM244.981 11.327a2.861 2.861 0 01-.721-2.078V4.73a2.849 2.849 0 01.725-2.081 3.388 3.388 0 014.228 0 2.857 2.857 0 01.721 2.084v4.516a2.852 2.852 0 01-.725 2.082 3.379 3.379 0 01-4.228 0zm3.207-.967a1.6 1.6 0 00.351-1.111V4.73a1.6 1.6 0 00-.348-1.11 1.74 1.74 0 00-2.188 0 1.6 1.6 0 00-.348 1.11v4.519a1.6 1.6 0 00.351 1.111 1.735 1.735 0 002.182 0z"/><path class="cls-7" d="M260.029 15.441l-1.461-1.461" id="LINE-217" data-name="LINE"/><path class="cls-7" d="M258.568 16.902l1.461-1.461" id="LINE-218" data-name="LINE"/><path class="cls-7" d="M214.708 15.339l1.461 1.461" id="LINE-219" data-name="LINE"/><path class="cls-7" d="M216.169 13.878l-1.461 1.461" id="LINE-220" data-name="LINE"/><path class="cls-7" d="M416.201 227.106l.08 105.802" id="LINE-221" data-name="LINE"/><path d="M426.749 294.867l-4.621-3.466a3.432 3.432 0 00-.825-.468 2.176 2.176 0 00-.8-.168h-.014a1.2 1.2 0 00-.923.349 1.388 1.388 0 00-.328.991 1.368 1.368 0 00.358.984 1.629 1.629 0 001.016.458h.007v1.443h-.007a3.726 3.726 0 01-1.46-.5 2.562 2.562 0 01-.923-.982 2.922 2.922 0 01-.317-1.387 3.47 3.47 0 01.3-1.518 2.143 2.143 0 01.886-.957 2.806 2.806 0 011.4-.328h.006a3.088 3.088 0 011.1.219 4.673 4.673 0 011.107.608l3.911 2.878v-3.76h1.326v5.606zM427.719 286.158a2.5 2.5 0 01-.967 1.056 2.789 2.789 0 01-1.452.372h-.165a2.8 2.8 0 01-1.4-.372 2.5 2.5 0 01-.991-1 2.188 2.188 0 01-.831.845 2.241 2.241 0 01-1.145.317h-.239a2.654 2.654 0 01-1.371-.348 2.371 2.371 0 01-.916-.985 3.526 3.526 0 010-2.953 2.362 2.362 0 01.916-.984 2.645 2.645 0 011.371-.349h.239a2.214 2.214 0 011.156.325 2.172 2.172 0 01.82.858 2.567 2.567 0 01.994-1.008 2.728 2.728 0 011.4-.38h.165a2.789 2.789 0 011.452.372 2.5 2.5 0 01.967 1.057 3.848 3.848 0 010 3.172zm-5.67-2.325a1.266 1.266 0 00-.516-.5 1.635 1.635 0 00-.773-.177h-.095a1.5 1.5 0 00-.739.177 1.247 1.247 0 00-.5.5 1.663 1.663 0 000 1.477 1.235 1.235 0 00.5.5 1.519 1.519 0 00.746.178h.1a1.593 1.593 0 00.762-.178 1.252 1.252 0 00.513-.5 1.6 1.6 0 000-1.477zm4.481-.116a1.39 1.39 0 00-.537-.571 1.551 1.551 0 00-.8-.2h-.1a1.567 1.567 0 00-.8.2 1.384 1.384 0 00-.537.571 2.007 2.007 0 000 1.709 1.381 1.381 0 00.54.572 1.6 1.6 0 00.807.2h.1A1.55 1.55 0 00426 286a1.375 1.375 0 00.529-.572 2.021 2.021 0 000-1.709zM427.316 278.888a2.862 2.862 0 01-2.078.721h-4.519a2.853 2.853 0 01-2.082-.725 3.391 3.391 0 010-4.228 2.859 2.859 0 012.085-.721h4.519a2.559 2.559 0 012.823 2.837 2.816 2.816 0 01-.748 2.116zm-.968-3.207a1.593 1.593 0 00-1.11-.351h-4.519a1.607 1.607 0 00-1.111.348 1.743 1.743 0 000 2.188 1.607 1.607 0 001.111.348h4.519a1.593 1.593 0 001.11-.351 1.731 1.731 0 000-2.182zM427.316 271.164a2.866 2.866 0 01-2.078.72h-4.519a2.857 2.857 0 01-2.082-.724 3.393 3.393 0 010-4.229 2.863 2.863 0 012.085-.721h4.519a2.852 2.852 0 012.081.725 3.379 3.379 0 010 4.229zm-.968-3.207a1.589 1.589 0 00-1.11-.352h-4.519a1.6 1.6 0 00-1.111.349 1.742 1.742 0 000 2.187 1.6 1.6 0 001.111.349h4.519a1.589 1.589 0 001.11-.352 1.73 1.73 0 000-2.181z"/><path class="cls-7" d="M416.272 332.908l-1.461-1.461" id="LINE-222" data-name="LINE"/><path class="cls-7" d="M417.734 331.447l-1.462 1.461" id="LINE-223" data-name="LINE"/><path class="cls-7" d="M416.17 227.13l1.462 1.462" id="LINE-224" data-name="LINE"/><path class="cls-7" d="M414.709 228.592l1.461-1.462" id="LINE-225" data-name="LINE"/><path class="cls-7" d="M406.684 227.106h9.449M406.684 332.907h9.665"/><path class="cls-7" d="M406.699 353.776v-26.864" id="LINE-226" data-name="LINE"/><path class="cls-7" d="M361.343 354.376v-26.865" id="LINE-227" data-name="LINE"/><path class="cls-7" d="M361.343 354.362l45.356-.034" id="LINE-228" data-name="LINE"/><path d="M373.777 366.4h-1.394v-8.422l-1.416.868v-1.442l1.416-.944h1.394zM375.883 365.193l3.465-4.621a3.406 3.406 0 00.468-.823 2.194 2.194 0 00.168-.8v-.014a1.205 1.205 0 00-.349-.923 1.388 1.388 0 00-.991-.328 1.368 1.368 0 00-.984.359 1.634 1.634 0 00-.458 1.015v.007h-1.443v-.007a3.743 3.743 0 01.5-1.459 2.569 2.569 0 01.982-.923 2.924 2.924 0 011.388-.318 3.44 3.44 0 011.517.305 2.139 2.139 0 01.957.884 2.809 2.809 0 01.328 1.4v.006a3.1 3.1 0 01-.218 1.1 4.739 4.739 0 01-.609 1.108l-2.878 3.91h3.76v1.329h-5.605zM383.986 365.76a2.865 2.865 0 01-.721-2.078v-4.518a2.852 2.852 0 01.725-2.081 3.386 3.386 0 014.228 0 2.858 2.858 0 01.721 2.085v4.518a2.557 2.557 0 01-2.837 2.823 2.814 2.814 0 01-2.116-.749zm3.207-.967a1.594 1.594 0 00.352-1.111v-4.518a1.605 1.605 0 00-.349-1.111 1.742 1.742 0 00-2.187 0 1.6 1.6 0 00-.349 1.111v4.518a1.594 1.594 0 00.351 1.111 1.735 1.735 0 002.182 0zM391.711 365.76a2.861 2.861 0 01-.721-2.078v-4.518a2.848 2.848 0 01.725-2.081 3.386 3.386 0 014.228 0 2.858 2.858 0 01.721 2.085v4.518a2.558 2.558 0 01-2.837 2.823 2.812 2.812 0 01-2.116-.749zm3.207-.967a1.594 1.594 0 00.351-1.111v-4.518a1.6 1.6 0 00-.348-1.111 1.743 1.743 0 00-2.188 0 1.605 1.605 0 00-.349 1.111v4.518a1.594 1.594 0 00.352 1.111 1.735 1.735 0 002.182 0z"/><path class="cls-7" d="M406.787 354.314l-1.461 1.461" id="LINE-229" data-name="LINE"/><path class="cls-7" d="M405.326 352.853l1.461 1.461" id="LINE-230" data-name="LINE"/><path class="cls-7" d="M361.34 354.416l1.462-1.461" id="LINE-231" data-name="LINE"/><path class="cls-7" d="M362.802 355.877l-1.462-1.461" id="LINE-232" data-name="LINE"/></g></svg>