<svg xmlns="http://www.w3.org/2000/svg" width="470.449" height="390.591" viewBox="0 0 352.837 292.943"><defs><pattern id="Новый_узор_3" data-name="Новый узор 3" width="35.15" height="35.15" patternTransform="translate(-7.256 -21.209)" patternUnits="userSpaceOnUse"><path class="cls-1" d="M0 0h35.15v35.15H0z"/><path class="cls-2" d="M35.149 35.15h35.15V70.3h-35.15z"/><path class="cls-2" d="M0 35.15h35.15V70.3H0zM-35.15 35.15H0V70.3h-35.15z"/><path class="cls-2" d="M35.149.001h35.15v35.15h-35.15z"/><path class="cls-2" d="M0 .001h35.15v35.15H0zM-35.15.001H0v35.15h-35.15zM35.149-35.149h35.15V.001h-35.15z"/><path class="cls-2" d="M0-35.149h35.15V.001H0zM-35.15-35.149H0V.001h-35.15z"/></pattern><pattern id="Новый_узор_4" data-name="Новый узор 4" width="9.822" height="9.822" patternTransform="translate(-4.109 -8.736)" patternUnits="userSpaceOnUse"><path class="cls-1" d="M0 0h9.822v9.822H0z"/><path class="cls-3" d="M14.733 19.647L9.82 14.735l4.913-4.913 4.912 4.913-4.912 4.912z"/><path class="cls-3" d="M4.911 19.647l-4.913-4.912 4.913-4.913 4.912 4.913-4.912 4.912z"/><path class="cls-3" d="M-4.912 19.647l-4.912-4.912 4.912-4.913 4.913 4.913-4.913 4.912zM14.733 9.825L9.82 4.912 14.733 0l4.912 4.912-4.912 4.913z"/><path class="cls-3" d="M4.911 9.825L-.002 4.912 4.911 0l4.912 4.912-4.912 4.913z"/><path class="cls-3" d="M-4.912 9.825l-4.912-4.913L-4.912 0 .001 4.912l-4.913 4.913zM14.733.003L9.82-4.91l4.913-4.912 4.912 4.912L14.733.003z"/><path class="cls-3" d="M4.911.003L-.002-4.91l4.913-4.912L9.823-4.91 4.911.003z"/><path class="cls-3" d="M-4.912.003L-9.824-4.91l4.912-4.912L.001-4.91-4.912.003z"/></pattern><style>.cls-1,.cls-10,.cls-11,.cls-2,.cls-3,.cls-8{fill:none}.cls-2{stroke:#ededed}.cls-10,.cls-2,.cls-3,.cls-8{stroke-linecap:round;stroke-linejoin:round;stroke-width:.4px}.cls-3{stroke:#e6e6e6}.cls-3,.cls-4,.cls-8,.cls-9{fill-rule:evenodd}.cls-4{fill:#fff}.cls-10,.cls-8{stroke:#000}.cls-11{stroke:gray;stroke-width:.6px;stroke-miterlimit:22.926}</style></defs><g id="_338" data-name="338"><path id="fon" class="cls-4" d="M330.241 243.591L315.3 208.175V5.023H29.828v280.752H315.3v-39.249a44.766 44.766 0 0014.941-2.935z"/><path stroke="#dcdcdc" fill="url(#Новый_узор_3)" stroke-linecap="round" stroke-linejoin="round" stroke-width=".4" d="M29.828 5.023h285.476v280.752H29.828z" id="grid"/><path id="wet_zones" data-name="wet zones" fill="url(#Новый_узор_4)" fill-rule="evenodd" d="M306.046 57.152V26.923h-22.483V9.352h-44.966v120.917h67.449v-30.23h-8.88V57.152h8.88z"/><g id="walls"><path d="M315.3 292.56v.143h-9.069v-46.619h7.557v.454h1.512v46.022zM69.881.283v31.741h23.806V9.352h42.938V.283zm66.744 292.277c-22.378 0-44.447.143-66.744.143v-37.739h23.806V281.6h42.938v10.96zM306.235.283h9.065v206.805h-1.512v.453h-7.557V.283zM69.881 98.15h23.806v73.683H69.881z" stroke-miterlimit="3" stroke-width=".48" stroke="#000" fill-rule="evenodd"/><path class="cls-8" d="M330.864 243.293a42.348 42.348 0 01-15.561 3.245"/><path class="cls-9" d="M330.967 243.258l-15.664-36.169-1.511-.001v.453l15.782 36.356 1.393-.639z"/><path class="cls-8" d="M198.031 117.713a37.32 37.32 0 00-2.586 12.556"/><path class="cls-9" d="M198.065 117.611l-.445 1.508 29.296 12.672.421-.01v-1.512l-29.272-12.658z"/><path class="cls-8" d="M269.236 119.217a30.682 30.682 0 012.311 11.052"/><path class="cls-9" d="M269.238 119.111l-25.805 11.158.001 1.512h.453l25.832-11.232-.481-1.438z"/><path class="cls-8" d="M29.828 285.775h40.054m0 0v-32.5m0 0v-81.614m0 0v-75.2m0 0v-64.61m0 0V5.023m0 0H29.828m0 0v280.752"/><path class="cls-10" d="M77.439 98.15h16.248M69.882 98.15h5.666M75.549 98.15h1.89M77.439 32.025h16.248M69.882 32.025h5.666M75.549 32.025h1.89M69.882 32.025V98.15M93.687 32.025V98.15M77.439 32.025v3.779M77.439 35.803h-1.89M75.549 35.803v-3.779M75.549 69.811v-1.889M75.549 67.921h1.89M77.439 67.921v1.89M76.494 35.803v32.118M77.439 35.803v32.118M75.549 67.921V35.804M77.439 69.811v.945M77.439 70.756h-.945M76.494 70.756v.944M76.494 71.7h-.945M75.549 71.7v-1.889M75.549 98.15v-3.778M75.549 94.372h.945M76.494 94.372v.945M76.494 95.317h.945M77.439 95.317v2.833M75.549 94.372V71.7M78.384 73.59v18.893M78.384 70.756v2.834M78.384 73.59h-1.89M76.494 73.59v-2.834M76.494 70.756h1.89M76.494 95.317v-2.834M76.494 92.483h1.89M78.384 92.483v2.834M78.384 95.317h-1.89M76.494 92.483V73.59M78.384 73.59v18.893M77.439 73.59v18.893M75.549 32.025h1.89M75.549 32.025h1.89M69.882 32.025h5.666M77.439 32.025h16.248M75.549 98.15h1.89M75.549 98.15h1.89M69.882 98.15h5.666M77.439 98.15h16.248M77.439 171.886h16.248M69.882 171.886h5.667M75.549 171.886h1.89M69.882 171.886v82.667M93.687 171.886v82.667M77.439 171.886v1.879M76.494 175.644h-.945M75.549 175.644v-3.758M75.549 211.34v-1.878M76.494 175.644v33.818M77.439 176.582v32.88M75.549 209.462v-33.818M76.494 213.219h-.945M75.549 213.219v-1.879M75.549 254.552v-3.756M75.549 250.795h.945M77.439 252.674v1.878M75.549 250.795V213.22M77.439 213.219h-.945M76.494 213.219v.94M76.494 251.735v.938M76.494 252.674h.945M78.384 252.674l28.055-27.899M78.384 216.037v33.819M78.384 213.219v2.818M78.384 216.037h-1.89M76.494 216.037v-2.818M76.494 213.219h1.89M76.494 252.674v-2.819M76.494 249.855h1.89M78.384 249.855v2.819M78.384 252.674h-1.89M76.494 249.855v-33.818M78.384 216.037v33.819M77.439 216.037v33.819M78.384 213.219a39.8 39.8 0 0128.055 11.556M77.439 213.219h-.945M76.494 213.219v-.94M76.494 174.703v-.939M76.494 173.764h.945M78.384 173.764l28.055 27.898M78.384 210.4v-33.818M78.384 213.219V210.4M78.384 210.4h-1.89M76.494 210.4v2.819M76.494 213.219h1.89M76.494 173.764v2.818M76.494 176.582h1.89M78.384 176.582v-2.818M78.384 173.764h-1.89M76.494 176.582v33.819M78.384 210.4v-33.818M77.439 210.4v-33.818M78.384 213.219a39.792 39.792 0 0028.055-11.557M75.549 171.886h1.89M75.549 171.886h1.89M69.882 171.886h5.667M77.439 171.886h16.248M69.881 254.552h23.806"/></g><g id="wall_2" data-name="wall 2"><path class="cls-4" d="M299.793.283H136.625v9.069h98.949v120.916h-8.237v1.512h-.453v1.511h17v-1.511h-.453v-1.512H238.6V9.352h44.966v17.571h22.672V23.9h-19.652V9.352h19.649V.283zM272.6 130.269h33.631v3.024h-35.138v-1.511h.453v-1.512zm33.635 162.291h-12.847v.143h-3.023v-.143h-74.817v.143h-3.023v-.143h-75.9V281.6h169.61v10.96zm0-97.109h-22.672v-3.024h22.672v3.024zm-120.161 5.29V158.23H163.4v-24.938H93.687v-3.024h101.758v1.512h.454v1.511h-6.8v67.449h46.477v3.022H163.4v-3.022zm0-45.533h-19.649v-21.916h19.649v21.916zm114.115-95.032v36.841h6.046v3.022h-9.069V57.152h9.069v3.024z"/><path class="cls-11" d="M139.538.28l-2.91 2.56M146.958.28l-10.3 9.07M154.378.28l-10.29 9.07M161.808.28l-10.3 9.07M169.228.28l-10.3 9.07M176.648.28l-10.29 9.07M184.068.28l-10.29 9.07M191.488.28l-10.29 9.07M198.918.28l-10.3 9.07M206.338.28l-10.3 9.07M213.768.28l-10.3 9.07M221.188.28l-10.3 9.07M228.598.28l-10.29 9.07M236.028.28l-10.3 9.07M95.888 130.27l-2.2 1.94M243.448.28l-10.3 9.07M250.878.28l-10.3 9.07M103.308 130.27l-3.43 3.02M238.598 11.09l-3.02 2.66M258.298.28l-10.3 9.07M110.738 130.27l-3.43 3.02M238.598 17.63l-3.02 2.66M265.718.28l-10.29 9.07M118.158 130.27l-3.43 3.02M238.598 24.17l-3.02 2.66M273.138.28l-10.29 9.07M125.578 130.27l-3.43 3.02M238.598 30.71l-3.02 2.66M280.558.28l-10.29 9.07M132.998 130.27l-3.43 3.02M238.598 37.25l-3.02 2.66M287.988.28l-10.3 9.07M140.418 130.27l-3.43 3.02M238.598 43.78l-3.02 2.66M295.408.28l-11.85 10.44M147.838 130.27l-3.42 3.02M238.598 50.32l-3.02 2.66M286.588 14.59l-3.03 2.67M302.828.28l-10.3 9.07M155.268 130.27l-3.43 3.02M238.598 56.86l-3.02 2.66M306.238 3.82l-6.28 5.53M286.588 21.13l-3.03 2.66M162.688 130.27l-3.43 3.02M238.598 63.4l-3.02 2.66M290.868 23.9l-3.43 3.02M166.428 133.52l-3.03 2.67M170.118 130.27l-3.43 3.02M238.598 69.94l-3.02 2.66M298.278 23.9l-3.43 3.02M166.428 140.05l-3.03 2.67M177.528 130.27l-3.43 3.02M238.598 76.47l-3.02 2.66M305.698 23.9l-3.42 3.02M166.428 146.59l-3.03 2.67M184.948 130.27l-3.42 3.02M238.598 83.01l-3.02 2.66M166.428 153.13l-3.03 2.67M192.378 130.27l-6.3 5.55M238.598 89.55l-3.02 2.66M171.488 155.21l-3.43 3.02M189.098 139.7l-3.02 2.66M238.598 96.09l-3.02 2.66M178.908 155.21l-3.42 3.02M189.098 146.24l-3.02 2.66M238.598 102.63l-3.02 2.66M297.648 57.15l-.48.43M189.098 152.78l-6.19 5.45M238.598 109.17l-3.02 2.66M305.068 57.15l-3.44 3.03M238.598 115.7l-3.02 2.66M189.098 159.31l-3.02 2.66M300.188 61.45l-3.02 2.66M238.598 122.24l-3.02 2.67M229.488 130.27l-2.6 2.29M189.098 165.85l-3.02 2.66M300.188 67.99l-3.02 2.66M238.598 128.78l-5.12 4.51M189.098 172.39l-3.02 2.66M300.188 74.53l-3.02 2.66M189.098 178.93l-3.02 2.66M164.338 200.74l-.94.83M243.438 131.06l-2.53 2.23M300.188 81.07l-3.02 2.66M300.188 87.61l-3.02 2.66M189.098 185.47l-3.02 2.66M171.758 200.74l-3.43 3.02M300.188 94.14l-3.02 2.67M189.098 192.01l-3.02 2.66M179.188 200.74l-3.43 3.02M304.348 97.02l-3.43 3.02M189.098 198.55l-5.92 5.21M274.018 130.27l-2.93 2.58M194.028 200.74l-3.43 3.02M201.448 200.74l-3.43 3.02M281.448 130.27l-3.43 3.02M208.868 200.74l-3.43 3.02M288.868 130.27l-3.43 3.02M216.298 200.74l-3.43 3.02M296.288 130.27l-3.42 3.02M303.718 130.27l-3.43 3.02M223.718 200.74l-3.43 3.02M139.348 281.6l-2.72 2.4M231.138 200.74l-3.42 3.02M235.578 203.36l-.45.4M146.768 281.6l-10.14 8.93M154.188 281.6l-12.44 10.96M161.618 281.6l-12.45 10.96M169.038 281.6l-12.44 10.96M176.458 281.6l-12.44 10.96M285.108 192.43l-1.55 1.36M183.888 281.6l-12.45 10.96M191.308 281.6l-12.44 10.96M292.528 192.43l-3.42 3.02M198.718 281.6l-12.44 10.96M299.948 192.43l-3.43 3.02M306.238 193.43l-2.3 2.02M206.148 281.6l-12.44 10.96M213.568 281.6l-12.44 10.96M220.998 281.6l-12.45 10.96M228.418 281.6l-12.44 10.96M235.838 281.6l-12.44 10.96M243.258 281.6l-12.44 10.96M250.678 281.6l-12.44 10.96M258.098 281.6l-12.44 10.96M265.528 281.6l-12.44 10.96M272.948 281.6l-12.44 10.96M280.378 281.6l-12.45 10.96M287.798 281.6l-12.44 10.96M295.218 281.6l-12.45 10.96M302.638 281.6l-12.45 10.96M306.238 284.97l-8.62 7.59M306.238 291.51l-1.2 1.05"/><path d="M299.793.283H136.625v9.069h98.949v120.916h-8.237v1.512h-.453v1.511h17v-1.511h-.453v-1.512H238.6V9.352h44.966v17.571h22.672V23.9h-19.652V9.352h19.649V.283zM272.6 130.269h33.631v3.024h-35.138v-1.511h.453v-1.512zm33.635 162.291h-169.61V281.6h169.61v10.96zm0-97.109h-22.672v-3.024h22.672v3.024zm-120.161 5.29H163.4v3.022h72.171v-3.022H189.1v-67.449h6.8v-1.511h-.454v-1.512H93.687v3.024H163.4v24.939h22.671v42.511zm0-45.533v-21.916h-19.649v21.916zm114.115-95.032v36.841h6.046v3.022h-9.069V57.152h9.069v3.024z" stroke-width=".567" stroke-miterlimit="22.926" stroke="#000" fill-rule="evenodd" fill="none"/></g></g><g id="sizes"><path class="cls-10" d="M238.858 11.683h44.475" id="LINE"/><path d="M250.779 23.947h-1.416v-8.422l-1.436.868v-1.442l1.436-.944h1.416zM252.918 22.737l3.52-4.621a3.477 3.477 0 00.475-.824 2.17 2.17 0 00.17-.8v-.013a1.2 1.2 0 00-.354-.923 1.426 1.426 0 00-1.006-.328 1.4 1.4 0 00-1 .359 1.613 1.613 0 00-.465 1.015v.007h-1.465v-.007a3.673 3.673 0 01.51-1.46 2.574 2.574 0 011-.922 3.008 3.008 0 011.409-.318 3.556 3.556 0 011.541.3 2.152 2.152 0 01.972.885 2.775 2.775 0 01.334 1.4v.013a3.054 3.054 0 01-.223 1.1 4.677 4.677 0 01-.617 1.107l-2.923 3.91h3.818v1.327h-5.692zM259.859 21.212l3.388-7.2h1.458L261.4 21.13h4.95v1.292h-6.491zm4.353-3.11h1.381v5.851h-1.381zM268.817 23.3a2.838 2.838 0 01-.732-2.078v-4.515a2.824 2.824 0 01.736-2.081 3.483 3.483 0 014.293 0 2.831 2.831 0 01.733 2.085v4.519a2.824 2.824 0 01-.736 2.081 3.472 3.472 0 01-4.294 0zm3.256-.967a1.576 1.576 0 00.358-1.111v-4.515a1.58 1.58 0 00-.355-1.11 1.787 1.787 0 00-2.221 0 1.584 1.584 0 00-.354 1.11v4.519a1.58 1.58 0 00.357 1.111 1.782 1.782 0 002.215 0z"/><path class="cls-10" d="M283.296 11.683l-1.461-1.461" id="LINE-2" data-name="LINE"/><path class="cls-10" d="M281.835 13.145l1.461-1.462" id="LINE-3" data-name="LINE"/><path class="cls-10" d="M238.858 11.684l1.462 1.461" id="LINE-4" data-name="LINE"/><path class="cls-10" d="M240.32 10.223l-1.462 1.461" id="LINE-5" data-name="LINE"/><path class="cls-10" d="M93.92 11.683h141.413" id="LINE-6" data-name="LINE"/><path d="M152.414 24.049l-.645-.3a2.542 2.542 0 01-1.039-.882 3.158 3.158 0 01-.5-1.391h1.444a1.5 1.5 0 00.27.7 1.268 1.268 0 00.538.407 2.062 2.062 0 00.775.133 1.523 1.523 0 001.09-.369 1.367 1.367 0 00.388-1.039V21a1.66 1.66 0 00-.368-1.152 1.331 1.331 0 00-1.041-.406h-.715v-1.326h.715a1.194 1.194 0 00.916-.349 1.383 1.383 0 00.326-.984v-.308a1.183 1.183 0 00-.343-.909 1.37 1.37 0 00-.975-.322 1.5 1.5 0 00-.646.134 1.226 1.226 0 00-.482.41 1.839 1.839 0 00-.288.694H150.4a3.585 3.585 0 01.525-1.395 2.557 2.557 0 01.975-.882 2.944 2.944 0 011.354-.3 2.821 2.821 0 012.019.676 2.5 2.5 0 01.715 1.908v.164a2.122 2.122 0 01-.409 1.3 2.307 2.307 0 01-1.159.806 2.056 2.056 0 011.28.8 2.613 2.613 0 01.455 1.586v.164a3.018 3.018 0 01-.34 1.483 2.226 2.226 0 01-.989.937 3.5 3.5 0 01-1.565.321zM163.381 15.251l-2.61 8.7h-1.506l2.61-8.614h-2.568v1.429h-1.416v-2.759h5.49zM167.089 24.049l-.646-.3a2.545 2.545 0 01-1.038-.882 3.158 3.158 0 01-.5-1.391h1.444a1.486 1.486 0 00.27.7 1.262 1.262 0 00.538.407 2.062 2.062 0 00.775.133 1.52 1.52 0 001.089-.369 1.364 1.364 0 00.389-1.039V21a1.66 1.66 0 00-.368-1.152 1.331 1.331 0 00-1.041-.406h-.715v-1.326h.715a1.2 1.2 0 00.916-.349 1.383 1.383 0 00.326-.984v-.308a1.18 1.18 0 00-.344-.909 1.366 1.366 0 00-.974-.322 1.5 1.5 0 00-.646.134 1.226 1.226 0 00-.482.41 1.839 1.839 0 00-.288.694h-1.438a3.585 3.585 0 01.525-1.395 2.55 2.55 0 01.975-.882 2.944 2.944 0 011.354-.3 2.821 2.821 0 012.019.676 2.5 2.5 0 01.715 1.908v.164a2.128 2.128 0 01-.409 1.3 2.311 2.311 0 01-1.159.806 2.056 2.056 0 011.28.8 2.613 2.613 0 01.455 1.586v.164a3.018 3.018 0 01-.34 1.483 2.226 2.226 0 01-.989.937 3.5 3.5 0 01-1.565.321zM173.575 23.3a2.838 2.838 0 01-.732-2.078v-4.515a2.824 2.824 0 01.736-2.081 3.483 3.483 0 014.293 0 2.835 2.835 0 01.732 2.085v4.519a2.828 2.828 0 01-.735 2.081 3.472 3.472 0 01-4.294 0zm3.256-.967a1.58 1.58 0 00.357-1.111v-4.515a1.584 1.584 0 00-.354-1.11 1.787 1.787 0 00-2.221 0 1.584 1.584 0 00-.354 1.11v4.519a1.58 1.58 0 00.357 1.111 1.782 1.782 0 002.215 0z"/><path class="cls-10" d="M235.296 11.683l-1.461-1.461" id="LINE-7" data-name="LINE"/><path class="cls-10" d="M233.835 13.145l1.461-1.462" id="LINE-8" data-name="LINE"/><path class="cls-10" d="M93.921 11.684l1.461 1.461" id="LINE-9" data-name="LINE"/><path class="cls-10" d="M95.382 10.223l-1.461 1.461" id="LINE-10" data-name="LINE"/><path class="cls-10" d="M93.92 138.183h69.241" id="LINE-11" data-name="LINE"/><path d="M118.086 150.446h-1.416v-8.421l-1.437.868v-1.442l1.437-.944h1.416zM121.724 150.208a2.53 2.53 0 01-1.073-.968 2.752 2.752 0 01-.378-1.452v-.164a2.766 2.766 0 01.378-1.4 2.512 2.512 0 011.01-.991 2.293 2.293 0 01-1.18-1.976v-.239a2.626 2.626 0 01.354-1.371 2.386 2.386 0 011-.916 3.632 3.632 0 013 0 2.384 2.384 0 011 .916 2.617 2.617 0 01.355 1.371v.239a2.265 2.265 0 01-1.2 1.976 2.6 2.6 0 011.024.994 2.706 2.706 0 01.386 1.4v.164a2.752 2.752 0 01-.378 1.452 2.538 2.538 0 01-1.074.968 3.961 3.961 0 01-3.22 0zm2.478-1.19a1.381 1.381 0 00.579-.537 1.528 1.528 0 00.2-.8v-.095a1.54 1.54 0 00-.2-.8 1.387 1.387 0 00-.579-.537 2.066 2.066 0 00-1.735 0 1.39 1.39 0 00-.58.54 1.563 1.563 0 00-.2.808v.1a1.506 1.506 0 00.2.793 1.374 1.374 0 00.58.53 2.07 2.07 0 001.735 0zm-.118-4.481a1.26 1.26 0 00.507-.516 1.607 1.607 0 00.18-.773v-.095a1.49 1.49 0 00-.18-.739 1.234 1.234 0 00-.507-.495 1.693 1.693 0 00-1.5 0 1.234 1.234 0 00-.507.495 1.493 1.493 0 00-.181.746v.1a1.561 1.561 0 00.181.762 1.265 1.265 0 00.507.513 1.642 1.642 0 001.5 0zM131.948 145.511l-.007.246a1.043 1.043 0 01-.524.462 2.132 2.132 0 01-.829.147 2.25 2.25 0 01-1.271-.363 2.371 2.371 0 01-.85-1.022 3.642 3.642 0 01-.3-1.528v-.006a3.749 3.749 0 01.33-1.648 2.306 2.306 0 01.965-1.039 3.071 3.071 0 011.523-.355 3.009 3.009 0 011.521.362 2.343 2.343 0 01.961 1.053 3.823 3.823 0 01.33 1.661v.007a5.133 5.133 0 01-.139 1.138 6.935 6.935 0 01-.4 1.2c-.028.059-.056.119-.083.181s-.058.122-.09.181l-2.152 4.258h-1.528zm.066-.861a1.925 1.925 0 00.365-1.251v-.007a1.831 1.831 0 00-.365-1.217 1.457 1.457 0 00-2.069 0 1.842 1.842 0 00-.364 1.224v.007a1.907 1.907 0 00.364 1.247 1.271 1.271 0 001.038.441 1.258 1.258 0 001.031-.444zM136.4 149.8a2.84 2.84 0 01-.732-2.079v-4.518a2.824 2.824 0 01.736-2.081 3.483 3.483 0 014.293 0 2.831 2.831 0 01.733 2.085v4.518a2.825 2.825 0 01-.736 2.082 3.468 3.468 0 01-4.294 0zm3.256-.967a1.577 1.577 0 00.358-1.112v-4.518a1.585 1.585 0 00-.355-1.11 1.787 1.787 0 00-2.221 0 1.584 1.584 0 00-.354 1.11v4.518a1.581 1.581 0 00.357 1.112 1.782 1.782 0 002.215 0z"/><path class="cls-10" d="M163.124 138.183l-1.461-1.461" id="LINE-12" data-name="LINE"/><path class="cls-10" d="M161.663 139.645l1.461-1.462" id="LINE-13" data-name="LINE"/><path class="cls-10" d="M93.921 138.184l1.461 1.461" id="LINE-14" data-name="LINE"/><path class="cls-10" d="M95.382 136.723l-1.461 1.461" id="LINE-15" data-name="LINE"/><path class="cls-10" d="M93.92 168.85h91.934" id="LINE-16" data-name="LINE"/><path d="M125.7 179.9l3.52-4.621a3.471 3.471 0 00.475-.823 2.154 2.154 0 00.17-.8v-.014a1.2 1.2 0 00-.354-.923 1.428 1.428 0 00-1.006-.328 1.4 1.4 0 00-1 .36 1.618 1.618 0 00-.465 1.014v.007h-1.465v-.007a3.674 3.674 0 01.51-1.459 2.574 2.574 0 011-.922 3.008 3.008 0 011.409-.319 3.552 3.552 0 011.541.305 2.152 2.152 0 01.972.885 2.762 2.762 0 01.334 1.4v.007a3.024 3.024 0 01-.223 1.1 4.7 4.7 0 01-.617 1.108l-2.923 3.91h3.819v1.326H125.7zM132.64 178.379l3.387-7.2h1.458l-3.3 7.116h4.949v1.292h-6.49zm4.352-3.111h1.381v5.852h-1.381zM144.44 176.178l-.006.246a1.045 1.045 0 01-.525.462 2.152 2.152 0 01-.829.146 2.246 2.246 0 01-1.27-.362 2.366 2.366 0 01-.851-1.022 3.642 3.642 0 01-.3-1.528v-.007a3.762 3.762 0 01.33-1.647 2.306 2.306 0 01.965-1.039 3.072 3.072 0 011.524-.356 3.018 3.018 0 011.52.362 2.353 2.353 0 01.961 1.053 3.829 3.829 0 01.33 1.661v.007a5.134 5.134 0 01-.139 1.139 6.814 6.814 0 01-.4 1.2c-.027.06-.056.12-.083.182s-.058.122-.09.18l-2.152 4.259H141.9zm.066-.862a1.921 1.921 0 00.365-1.251v-.007a1.83 1.83 0 00-.365-1.216 1.456 1.456 0 00-2.068 0 1.835 1.835 0 00-.365 1.223v.007a1.9 1.9 0 00.365 1.248 1.269 1.269 0 001.038.441 1.254 1.254 0 001.03-.445zM148.894 180.471a2.837 2.837 0 01-.733-2.079v-4.518a2.824 2.824 0 01.736-2.081 3.483 3.483 0 014.293 0 2.83 2.83 0 01.733 2.085v4.518a2.83 2.83 0 01-.735 2.082 3.472 3.472 0 01-4.294 0zm3.255-.967a1.577 1.577 0 00.358-1.112v-4.518a1.578 1.578 0 00-.355-1.11 1.785 1.785 0 00-2.22 0 1.578 1.578 0 00-.355 1.11v4.518a1.577 1.577 0 00.358 1.112 1.78 1.78 0 002.214 0z"/><path class="cls-10" d="M185.817 168.85l-1.461-1.461" id="LINE-17" data-name="LINE"/><path class="cls-10" d="M184.356 170.311l1.461-1.461" id="LINE-18" data-name="LINE"/><path class="cls-10" d="M93.921 168.851l1.461 1.461" id="LINE-19" data-name="LINE"/><path class="cls-10" d="M95.382 167.39l-1.461 1.461" id="LINE-20" data-name="LINE"/><path class="cls-10" d="M189.452 168.85h116.506" id="LINE-21" data-name="LINE"/><path d="M234.907 181.216l-.645-.3a2.533 2.533 0 01-1.038-.882 3.143 3.143 0 01-.5-1.391h1.443a1.5 1.5 0 00.27.7 1.268 1.268 0 00.538.407 2.062 2.062 0 00.775.133 1.523 1.523 0 001.09-.369 1.364 1.364 0 00.388-1.039v-.3a1.66 1.66 0 00-.368-1.152 1.332 1.332 0 00-1.041-.407h-.715v-1.326h.715a1.191 1.191 0 00.916-.349 1.382 1.382 0 00.326-.984v-.308a1.186 1.186 0 00-.343-.909 1.374 1.374 0 00-.975-.321 1.5 1.5 0 00-.645.134 1.222 1.222 0 00-.483.41 1.857 1.857 0 00-.288.693h-1.437a3.57 3.57 0 01.524-1.394 2.552 2.552 0 01.976-.882 2.937 2.937 0 011.353-.3 2.825 2.825 0 012.02.677 2.5 2.5 0 01.714 1.907v.164a2.117 2.117 0 01-.409 1.3 2.308 2.308 0 01-1.159.807 2.056 2.056 0 011.28.8 2.617 2.617 0 01.455 1.586v.164a3.031 3.031 0 01-.339 1.484 2.232 2.232 0 01-.99.936 3.486 3.486 0 01-1.565.322zM241.394 180.471a2.837 2.837 0 01-.733-2.079v-4.518a2.824 2.824 0 01.736-2.081 3.483 3.483 0 014.293 0 2.83 2.83 0 01.733 2.085v4.518a2.83 2.83 0 01-.735 2.082 3.472 3.472 0 01-4.294 0zm3.255-.967a1.577 1.577 0 00.358-1.112v-4.518a1.578 1.578 0 00-.355-1.11 1.785 1.785 0 00-2.22 0 1.578 1.578 0 00-.355 1.11v4.518a1.577 1.577 0 00.358 1.112 1.78 1.78 0 002.214 0zM249.852 180.874a2.521 2.521 0 01-1.073-.967 2.753 2.753 0 01-.378-1.453v-.164a2.762 2.762 0 01.378-1.4 2.515 2.515 0 011.01-.992 2.182 2.182 0 01-.857-.83 2.209 2.209 0 01-.323-1.145v-.24a2.625 2.625 0 01.354-1.37 2.38 2.38 0 011-.916 3.622 3.622 0 013 0 2.377 2.377 0 011 .916 2.615 2.615 0 01.354 1.37v.24a2.258 2.258 0 01-1.2 1.975 2.609 2.609 0 011.024 1 2.7 2.7 0 01.385 1.4v.164a2.762 2.762 0 01-.377 1.453 2.53 2.53 0 01-1.074.967 3.961 3.961 0 01-3.22 0zm2.478-1.19a1.385 1.385 0 00.579-.536 1.528 1.528 0 00.205-.8v-.095a1.537 1.537 0 00-.205-.8 1.393 1.393 0 00-.579-.537 2.056 2.056 0 00-1.735 0 1.383 1.383 0 00-.58.54 1.559 1.559 0 00-.2.807v.1a1.506 1.506 0 00.2.793 1.374 1.374 0 00.58.53 1.914 1.914 0 00.867.188 1.878 1.878 0 00.868-.19zm-.118-4.48a1.257 1.257 0 00.507-.517 1.6 1.6 0 00.18-.772v-.1a1.488 1.488 0 00-.18-.738 1.234 1.234 0 00-.507-.495 1.693 1.693 0 00-1.5 0 1.234 1.234 0 00-.507.495 1.492 1.492 0 00-.181.745v.1a1.561 1.561 0 00.181.762 1.265 1.265 0 00.507.513 1.642 1.642 0 001.5 0zM257.234 180.471a2.84 2.84 0 01-.732-2.079v-4.518a2.824 2.824 0 01.736-2.081 3.483 3.483 0 014.293 0 2.83 2.83 0 01.733 2.085v4.518a2.826 2.826 0 01-.736 2.082 3.472 3.472 0 01-4.294 0zm3.256-.967a1.577 1.577 0 00.358-1.112v-4.518a1.583 1.583 0 00-.355-1.11 1.787 1.787 0 00-2.221 0 1.583 1.583 0 00-.354 1.11v4.518a1.581 1.581 0 00.357 1.112 1.782 1.782 0 002.215 0z"/><path class="cls-10" d="M305.921 168.85l-1.461-1.461" id="LINE-22" data-name="LINE"/><path class="cls-10" d="M304.46 170.311l1.461-1.461" id="LINE-23" data-name="LINE"/><path class="cls-10" d="M189.452 168.851l1.461 1.461" id="LINE-24" data-name="LINE"/><path class="cls-10" d="M190.913 167.39l-1.461 1.461" id="LINE-25" data-name="LINE"/><path class="cls-10" d="M93.92 201.583h69.288" id="LINE-26" data-name="LINE"/><path d="M118.11 213.847h-1.416v-8.422l-1.436.868v-1.443l1.436-.943h1.416zM121.748 213.607a2.525 2.525 0 01-1.072-.967 2.756 2.756 0 01-.378-1.453v-.164a2.759 2.759 0 01.378-1.4 2.5 2.5 0 011.01-.991 2.287 2.287 0 01-1.18-1.976v-.239a2.625 2.625 0 01.353-1.371 2.4 2.4 0 011-.916 3.632 3.632 0 013 0 2.384 2.384 0 011 .916 2.608 2.608 0 01.355 1.371v.239a2.261 2.261 0 01-1.2 1.976 2.59 2.59 0 011.023.994 2.7 2.7 0 01.386 1.4v.164a2.756 2.756 0 01-.378 1.453 2.534 2.534 0 01-1.073.967 3.963 3.963 0 01-3.221 0zm2.479-1.189a1.393 1.393 0 00.579-.537 1.534 1.534 0 00.2-.8v-.1a1.553 1.553 0 00-.2-.8 1.391 1.391 0 00-.579-.536 2.068 2.068 0 00-1.736 0 1.389 1.389 0 00-.58.54 1.559 1.559 0 00-.2.807v.1a1.508 1.508 0 00.2.793 1.38 1.38 0 00.58.53 2.083 2.083 0 001.736 0zm-.119-4.482a1.258 1.258 0 00.507-.515 1.613 1.613 0 00.181-.773v-.095a1.485 1.485 0 00-.181-.739 1.23 1.23 0 00-.507-.5 1.7 1.7 0 00-1.5 0 1.233 1.233 0 00-.506.5 1.476 1.476 0 00-.181.745v.1a1.55 1.55 0 00.181.762 1.26 1.26 0 00.506.512 1.634 1.634 0 001.5 0zM131.973 208.911l-.007.246a1.039 1.039 0 01-.525.461 2.111 2.111 0 01-.829.147 2.254 2.254 0 01-1.27-.362 2.379 2.379 0 01-.851-1.022 3.645 3.645 0 01-.3-1.528v-.006a3.746 3.746 0 01.331-1.648 2.294 2.294 0 01.964-1.039 3.072 3.072 0 011.524-.355 3.005 3.005 0 011.52.362 2.332 2.332 0 01.961 1.053 3.82 3.82 0 01.33 1.661v.007a5.18 5.18 0 01-.138 1.137 6.884 6.884 0 01-.4 1.2l-.083.181a2.195 2.195 0 01-.09.182l-2.152 4.259h-1.527zm.065-.861a1.925 1.925 0 00.365-1.251v-.007a1.829 1.829 0 00-.365-1.217 1.456 1.456 0 00-2.068 0 1.84 1.84 0 00-.365 1.224v.007a1.907 1.907 0 00.365 1.247 1.271 1.271 0 001.038.441 1.256 1.256 0 001.03-.444zM136.426 213.2a2.838 2.838 0 01-.733-2.078v-4.519a2.824 2.824 0 01.737-2.082 3.485 3.485 0 014.293 0 2.835 2.835 0 01.732 2.085v4.519a2.829 2.829 0 01-.735 2.081 3.472 3.472 0 01-4.294 0zm3.256-.968a1.577 1.577 0 00.357-1.11v-4.519a1.589 1.589 0 00-.354-1.111 1.79 1.79 0 00-2.221 0 1.589 1.589 0 00-.355 1.111v4.519a1.578 1.578 0 00.358 1.11 1.778 1.778 0 002.215 0z"/><path class="cls-10" d="M163.171 201.583l-1.461-1.461" id="LINE-27" data-name="LINE"/><path class="cls-10" d="M161.71 203.044l1.461-1.461" id="LINE-28" data-name="LINE"/><path class="cls-10" d="M93.921 201.584l1.461 1.461" id="LINE-29" data-name="LINE"/><path class="cls-10" d="M95.382 200.123l-1.461 1.461" id="LINE-30" data-name="LINE"/><path class="cls-10" d="M30.108 270.583h39.475" id="LINE-31" data-name="LINE"/><path d="M39.443 282.847h-1.416v-8.422l-1.436.868v-1.443l1.436-.943h1.416zM41.582 281.637l3.52-4.622a3.457 3.457 0 00.475-.824 2.166 2.166 0 00.17-.8v-.013a1.2 1.2 0 00-.354-.923 1.426 1.426 0 00-1.006-.328 1.4 1.4 0 00-1 .358 1.621 1.621 0 00-.465 1.016v.007h-1.465v-.007a3.662 3.662 0 01.51-1.46 2.577 2.577 0 011-.923 3.007 3.007 0 011.409-.317 3.571 3.571 0 011.541.3 2.154 2.154 0 01.972.886 2.772 2.772 0 01.334 1.4v.007A3.033 3.033 0 0147 276.5a4.677 4.677 0 01-.617 1.107l-2.923 3.91h3.818v1.327h-5.696zM49.811 282.2a2.834 2.834 0 01-.733-2.078v-4.519a2.828 2.828 0 01.736-2.082 3.485 3.485 0 014.293 0 2.831 2.831 0 01.733 2.085v4.519a2.825 2.825 0 01-.736 2.081 3.47 3.47 0 01-4.293 0zm3.255-.968a1.573 1.573 0 00.358-1.11v-4.519a1.584 1.584 0 00-.355-1.111 1.789 1.789 0 00-2.22 0 1.584 1.584 0 00-.355 1.111v4.519a1.573 1.573 0 00.358 1.11 1.777 1.777 0 002.214 0zM57.654 282.2a2.838 2.838 0 01-.732-2.078v-4.519a2.828 2.828 0 01.736-2.082 3.485 3.485 0 014.293 0 2.835 2.835 0 01.733 2.085v4.519a2.83 2.83 0 01-.736 2.081 3.472 3.472 0 01-4.294 0zm3.256-.968a1.578 1.578 0 00.358-1.11v-4.519a1.589 1.589 0 00-.355-1.111 1.79 1.79 0 00-2.221 0 1.589 1.589 0 00-.354 1.111v4.519a1.577 1.577 0 00.357 1.11 1.778 1.778 0 002.215 0z"/><path class="cls-10" d="M69.546 270.583l-1.461-1.461" id="LINE-32" data-name="LINE"/><path class="cls-10" d="M68.085 272.044l1.461-1.461" id="LINE-33" data-name="LINE"/><path class="cls-10" d="M30.108 270.584l1.462 1.461" id="LINE-34" data-name="LINE"/><path class="cls-10" d="M31.57 269.123l-1.462 1.461" id="LINE-35" data-name="LINE"/><path class="cls-10" d="M93.92 265.333h212.038" id="LINE-36" data-name="LINE"/><path d="M187.423 277.4a2.443 2.443 0 01-.965-.854 3.391 3.391 0 01-.5-1.347v.001h1.416v.007a1.29 1.29 0 00.444.851 1.453 1.453 0 00.958.3 1.29 1.29 0 001.052-.448 1.925 1.925 0 00.371-1.261v-.834a1.917 1.917 0 00-.371-1.255 1.3 1.3 0 00-1.052-.447 1.351 1.351 0 00-.708.205 1.965 1.965 0 00-.6.574h-1.291v-5.236h5.143v1.326h-3.72v2.236a2 2 0 01.589-.329 1.962 1.962 0 01.666-.116 2.962 2.962 0 011.5.356 2.285 2.285 0 01.944 1.039 3.834 3.834 0 01.322 1.647v.834a3.72 3.72 0 01-.333 1.648 2.343 2.343 0 01-.972 1.042 3.085 3.085 0 01-1.534.359 3.032 3.032 0 01-1.359-.298zM194.785 277.347a2.3 2.3 0 01-.961-1.026 3.656 3.656 0 01-.33-1.623v-.007a5.479 5.479 0 01.132-1.162 6.6 6.6 0 01.382-1.2c.027-.068.057-.136.09-.2s.065-.131.1-.195l2.194-4.279h1.527l-2.575 4.956.007-.246a1.194 1.194 0 01.506-.5 1.624 1.624 0 01.778-.178 2.5 2.5 0 011.347.349 2.176 2.176 0 01.853 1.015 3.988 3.988 0 01.292 1.6v.007a3.749 3.749 0 01-.33 1.641 2.311 2.311 0 01-.965 1.039 3.453 3.453 0 01-3.044 0zm2.558-1.4a1.7 1.7 0 00.365-1.169v-.007a1.955 1.955 0 00-.382-1.289 1.345 1.345 0 00-1.09-.454 1.154 1.154 0 00-.979.458 2.1 2.1 0 00-.347 1.292v.007a1.687 1.687 0 00.364 1.165 1.514 1.514 0 002.069 0zM206.21 268.9l-2.609 8.7h-1.507l2.61-8.614h-2.568v1.429h-1.416v-2.755h5.49zM208.887 276.954a2.834 2.834 0 01-.733-2.078v-4.519a2.824 2.824 0 01.737-2.082 3.485 3.485 0 014.293 0 2.835 2.835 0 01.732 2.085v4.519a2.829 2.829 0 01-.735 2.081 3.472 3.472 0 01-4.294 0zm3.256-.968a1.577 1.577 0 00.357-1.11v-4.519a1.589 1.589 0 00-.354-1.111 1.79 1.79 0 00-2.221 0 1.584 1.584 0 00-.355 1.111v4.519a1.573 1.573 0 00.358 1.11 1.778 1.778 0 002.215 0z"/><path class="cls-10" d="M305.921 265.333l-1.461-1.461" id="LINE-37" data-name="LINE"/><path class="cls-10" d="M304.46 266.794l1.461-1.461" id="LINE-38" data-name="LINE"/><path class="cls-10" d="M93.921 265.334l1.461 1.461" id="LINE-39" data-name="LINE"/><path class="cls-10" d="M95.382 263.873l-1.461 1.461" id="LINE-40" data-name="LINE"/><path class="cls-10" d="M238.858 36.725h67.163" id="LINE-41" data-name="LINE"/><path d="M261.589 48.988h-1.416v-8.422l-1.437.868v-1.442l1.437-.943h1.416zM265.227 48.749a2.521 2.521 0 01-1.073-.967 2.756 2.756 0 01-.378-1.453v-.164a2.759 2.759 0 01.378-1.4 2.508 2.508 0 011.01-.992 2.189 2.189 0 01-.857-.83 2.212 2.212 0 01-.323-1.145v-.24a2.625 2.625 0 01.354-1.37 2.38 2.38 0 011-.916 3.622 3.622 0 013 0 2.377 2.377 0 011 .916 2.615 2.615 0 01.354 1.37v.24a2.258 2.258 0 01-1.2 1.975 2.6 2.6 0 011.024 1 2.7 2.7 0 01.385 1.4v.164a2.764 2.764 0 01-.377 1.453 2.53 2.53 0 01-1.074.967 3.961 3.961 0 01-3.22 0zm2.478-1.19a1.385 1.385 0 00.579-.536 1.528 1.528 0 00.2-.8v-.095a1.543 1.543 0 00-.2-.8 1.391 1.391 0 00-.579-.536 2.056 2.056 0 00-1.735 0 1.377 1.377 0 00-.58.54 1.556 1.556 0 00-.2.807v.1a1.508 1.508 0 00.2.793 1.38 1.38 0 00.58.53 1.914 1.914 0 00.867.188 1.878 1.878 0 00.868-.191zm-.118-4.481a1.254 1.254 0 00.507-.516 1.606 1.606 0 00.18-.772v-.1a1.483 1.483 0 00-.18-.738 1.242 1.242 0 00-.507-.5 1.7 1.7 0 00-1.5 0 1.242 1.242 0 00-.507.5 1.487 1.487 0 00-.181.745v.1a1.561 1.561 0 00.181.762 1.256 1.256 0 00.507.512 1.634 1.634 0 001.5 0zM271.737 46.254l3.388-7.2h1.458l-3.305 7.116h4.95v1.292h-6.491zm4.353-3.111h1.381V49h-1.381zM280.7 48.346a2.84 2.84 0 01-.732-2.079v-4.518a2.828 2.828 0 01.736-2.082 3.485 3.485 0 014.293 0 2.834 2.834 0 01.733 2.085v4.518a2.832 2.832 0 01-.736 2.082 3.472 3.472 0 01-4.294 0zm3.256-.968a1.579 1.579 0 00.358-1.111v-4.518a1.587 1.587 0 00-.355-1.111 1.79 1.79 0 00-2.221 0 1.587 1.587 0 00-.354 1.111v4.518a1.578 1.578 0 00.357 1.111 1.778 1.778 0 002.215 0z"/><path class="cls-10" d="M305.983 36.725l-1.461-1.461" id="LINE-42" data-name="LINE"/><path class="cls-10" d="M304.522 38.186l1.461-1.461" id="LINE-43" data-name="LINE"/><path class="cls-10" d="M238.858 36.726l1.462 1.461" id="LINE-44" data-name="LINE"/><path class="cls-10" d="M240.32 35.265l-1.462 1.461" id="LINE-45" data-name="LINE"/><path class="cls-10" d="M238.858 65.808h58.163" id="LINE-46" data-name="LINE"/><path d="M259.119 78.072H257.7V69.65l-1.436.868v-1.442l1.436-.944h1.416zM262.493 77.822a2.306 2.306 0 01-.961-1.025 3.663 3.663 0 01-.33-1.624v-.007a5.486 5.486 0 01.132-1.166 6.623 6.623 0 01.382-1.2c.027-.068.057-.136.09-.2s.065-.131.1-.195l2.194-4.279h1.527l-2.575 4.956.007-.246a1.2 1.2 0 01.507-.5 1.618 1.618 0 01.777-.178 2.513 2.513 0 011.347.349 2.181 2.181 0 01.853 1.015 3.992 3.992 0 01.292 1.6v.007a3.746 3.746 0 01-.33 1.641 2.306 2.306 0 01-.965 1.039 3.453 3.453 0 01-3.044 0zm2.558-1.4a1.7 1.7 0 00.365-1.169v-.007a1.95 1.95 0 00-.382-1.288 1.345 1.345 0 00-1.09-.455 1.156 1.156 0 00-.979.458 2.1 2.1 0 00-.347 1.292v.007a1.69 1.69 0 00.364 1.166 1.516 1.516 0 002.069 0zM271.142 78.072h-1.416V69.65l-1.437.868v-1.442l1.437-.944h1.416zM274.165 77.429a2.838 2.838 0 01-.732-2.078v-4.519a2.824 2.824 0 01.736-2.081 3.483 3.483 0 014.293 0 2.835 2.835 0 01.732 2.085v4.519a2.828 2.828 0 01-.735 2.081 3.472 3.472 0 01-4.294 0zm3.256-.967a1.58 1.58 0 00.357-1.111v-4.519a1.584 1.584 0 00-.354-1.11 1.787 1.787 0 00-2.221 0 1.584 1.584 0 00-.354 1.11v4.519a1.58 1.58 0 00.357 1.111 1.782 1.782 0 002.215 0z"/><path class="cls-10" d="M296.983 65.808l-1.461-1.461" id="LINE-47" data-name="LINE"/><path class="cls-10" d="M295.522 67.27l1.461-1.462" id="LINE-48" data-name="LINE"/><path class="cls-10" d="M238.858 65.809l1.462 1.461" id="LINE-49" data-name="LINE"/><path class="cls-10" d="M240.32 64.348l-1.462 1.461" id="LINE-50" data-name="LINE"/><path class="cls-10" d="M102.012 9.636v120.25" id="LINE-51" data-name="LINE"/><path d="M114.314 81.749l-.3.645a2.527 2.527 0 01-.883 1.038 3.151 3.151 0 01-1.391.5v-1.447a1.506 1.506 0 00.7-.271 1.246 1.246 0 00.406-.538 2.036 2.036 0 00.134-.774 1.515 1.515 0 00-.37-1.09 1.364 1.364 0 00-1.039-.389h-.3a1.659 1.659 0 00-1.152.368 1.333 1.333 0 00-.407 1.041v.715h-1.326v-.715a1.192 1.192 0 00-.349-.916 1.386 1.386 0 00-.984-.326h-.308a1.184 1.184 0 00-.909.343 1.377 1.377 0 00-.321.976 1.493 1.493 0 00.134.646 1.208 1.208 0 00.41.482 1.836 1.836 0 00.693.288v1.437a3.6 3.6 0 01-1.394-.524 2.541 2.541 0 01-.882-.975 2.95 2.95 0 01-.3-1.354 2.825 2.825 0 01.677-2.02 2.5 2.5 0 011.907-.715h.164a2.124 2.124 0 011.3.409 2.316 2.316 0 01.806 1.16 2.059 2.059 0 01.8-1.281 2.622 2.622 0 011.586-.455h.164a3.014 3.014 0 011.484.341 2.227 2.227 0 01.936.988 3.5 3.5 0 01.321 1.566zM113 76.147l-4.621-3.519a3.428 3.428 0 00-.823-.476 2.179 2.179 0 00-.8-.17h-.014a1.2 1.2 0 00-.923.354 1.427 1.427 0 00-.328 1.007 1.4 1.4 0 00.358 1 1.623 1.623 0 001.016.465h.007v1.465h-.007a3.678 3.678 0 01-1.459-.51 2.583 2.583 0 01-.924-1 3.017 3.017 0 01-.317-1.409 3.559 3.559 0 01.3-1.541 2.16 2.16 0 01.885-.971 2.768 2.768 0 011.4-.333h.007a3.03 3.03 0 011.1.222 4.739 4.739 0 011.108.617l3.91 2.923v-3.816h1.326v5.692zM113.962 67.984a2.3 2.3 0 01-1.025.961 3.66 3.66 0 01-1.624.33h-.006a5.479 5.479 0 01-1.162-.132 6.633 6.633 0 01-1.2-.382q-.1-.042-.2-.09l-.195-.1-4.28-2.194v-1.524l4.957 2.576-.247-.008a1.212 1.212 0 01-.5-.506 1.636 1.636 0 01-.177-.778 2.51 2.51 0 01.348-1.347 2.2 2.2 0 011.015-.853 4 4 0 011.6-.292h.007a3.746 3.746 0 011.641.33 2.3 2.3 0 011.039.965 3.453 3.453 0 010 3.044zm-1.4-2.558a1.7 1.7 0 00-1.168-.365h-.007a1.948 1.948 0 00-1.288.382 1.342 1.342 0 00-.455 1.09 1.156 1.156 0 00.458.979 2.1 2.1 0 001.292.347h.006a1.686 1.686 0 001.165-.365 1.51 1.51 0 000-2.068zM113.569 61.039a2.838 2.838 0 01-2.078.732h-4.518a2.822 2.822 0 01-2.081-.736 3.479 3.479 0 010-4.293 2.833 2.833 0 012.085-.732h4.518a2.83 2.83 0 012.082.735 3.474 3.474 0 010 4.294zm-.966-3.256a1.581 1.581 0 00-1.112-.357h-4.518a1.585 1.585 0 00-1.111.354 1.79 1.79 0 000 2.221 1.585 1.585 0 001.111.354h4.518A1.577 1.577 0 00112.6 60a1.784 1.784 0 000-2.214z"/><path class="cls-10" d="M102.012 129.886l-1.461-1.46" id="LINE-52" data-name="LINE"/><path class="cls-10" d="M103.474 128.426l-1.462 1.46" id="LINE-53" data-name="LINE"/><path class="cls-10" d="M102.013 9.636l1.461 1.459" id="LINE-54" data-name="LINE"/><path class="cls-10" d="M100.552 11.095l1.461-1.459" id="LINE-55" data-name="LINE"/><path class="cls-10" d="M102.012 133.511v147.75" id="LINE-56" data-name="LINE"/><path d="M114.314 256.514l-.3.645a2.531 2.531 0 01-.883 1.037 3.151 3.151 0 01-1.391.5v-1.444a1.5 1.5 0 00.7-.271 1.24 1.24 0 00.406-.538 2.029 2.029 0 00.134-.774 1.519 1.519 0 00-.37-1.09 1.364 1.364 0 00-1.039-.389h-.3a1.654 1.654 0 00-1.152.369 1.332 1.332 0 00-.407 1.041v.714h-1.326v-.714a1.191 1.191 0 00-.349-.916 1.382 1.382 0 00-.984-.327h-.308a1.185 1.185 0 00-.909.344 1.374 1.374 0 00-.321.975 1.49 1.49 0 00.134.646 1.211 1.211 0 00.41.483 1.869 1.869 0 00.693.288v1.436a3.586 3.586 0 01-1.394-.524 2.541 2.541 0 01-.882-.975 2.947 2.947 0 01-.3-1.354 2.827 2.827 0 01.677-2.02 2.5 2.5 0 011.907-.715h.164a2.125 2.125 0 011.3.41 2.317 2.317 0 01.806 1.159 2.059 2.059 0 01.8-1.281 2.629 2.629 0 011.586-.455h.164a3.025 3.025 0 011.484.341 2.233 2.233 0 01.936.988 3.51 3.51 0 01.321 1.566zM109.276 247.183l.246.007a1.03 1.03 0 01.461.525 2.115 2.115 0 01.148.83 2.253 2.253 0 01-.362 1.269 2.365 2.365 0 01-1.022.851 3.642 3.642 0 01-1.528.3h-.007a3.781 3.781 0 01-1.648-.329 2.311 2.311 0 01-1.039-.965 3.079 3.079 0 01-.355-1.525 3.009 3.009 0 01.362-1.519 2.345 2.345 0 011.053-.962 3.823 3.823 0 011.661-.329h.007a5.151 5.151 0 011.139.138 7.04 7.04 0 011.2.4c.059.027.119.056.181.083s.122.058.181.091l4.259 2.151v1.527zm-.861-.065a1.921 1.921 0 00-1.251-.364h-.007a1.832 1.832 0 00-1.217.364 1.458 1.458 0 000 2.068 1.84 1.84 0 001.224.365h.007a1.9 1.9 0 001.248-.365 1.272 1.272 0 00.44-1.038 1.257 1.257 0 00-.444-1.03zM114.212 241.026v1.416h-8.422l.868 1.438h-1.442l-.944-1.438v-1.416zM114.021 237.274a2.439 2.439 0 01-.855.965 3.366 3.366 0 01-1.347.5h-.006v-1.417h.006a1.289 1.289 0 00.852-.443 1.462 1.462 0 00.3-.958 1.288 1.288 0 00-.449-1.052 1.915 1.915 0 00-1.26-.372h-.834a1.911 1.911 0 00-1.255.372 1.291 1.291 0 00-.448 1.052 1.352 1.352 0 00.206.708 1.967 1.967 0 00.574.6v1.291h-5.237v-5.15h1.332v3.73h2.235a2.026 2.026 0 01-.444-1.257 2.961 2.961 0 01.355-1.5 2.281 2.281 0 011.039-.945 3.838 3.838 0 011.648-.323h.834a3.719 3.719 0 011.647.334 2.341 2.341 0 011.043.972 3.093 3.093 0 01.358 1.534 3.011 3.011 0 01-.294 1.359z"/><path class="cls-10" d="M102.012 281.261l-1.461-1.46" id="LINE-57" data-name="LINE"/><path class="cls-10" d="M103.474 279.801l-1.462 1.46" id="LINE-58" data-name="LINE"/><path class="cls-10" d="M102.013 133.511l1.461 1.459" id="LINE-59" data-name="LINE"/><path class="cls-10" d="M100.552 134.97l1.461-1.459" id="LINE-60" data-name="LINE"/><path class="cls-10" d="M166.846 204.115v77.146" id="LINE-61" data-name="LINE"/><path d="M177.836 256.91l-4.621-3.519a3.423 3.423 0 00-.823-.475 2.179 2.179 0 00-.8-.17h-.014a1.2 1.2 0 00-.923.353 1.428 1.428 0 00-.328 1.007 1.4 1.4 0 00.358 1 1.629 1.629 0 001.016.466h.007v1.464h-.008a3.663 3.663 0 01-1.459-.51 2.587 2.587 0 01-.924-1 3.019 3.019 0 01-.317-1.406 3.556 3.556 0 01.3-1.541 2.158 2.158 0 01.885-.972 2.778 2.778 0 011.4-.333h.007a3.051 3.051 0 011.1.222 4.707 4.707 0 011.108.618l3.91 2.922v-3.817h1.326v5.691zM178.4 248.681a2.834 2.834 0 01-2.078.733h-4.518a2.826 2.826 0 01-2.081-.736 3.479 3.479 0 010-4.293 2.83 2.83 0 012.085-.733h4.518a2.826 2.826 0 012.082.736 3.472 3.472 0 010 4.293zm-.966-3.255a1.577 1.577 0 00-1.112-.358h-4.518a1.585 1.585 0 00-1.111.354 1.79 1.79 0 000 2.221 1.581 1.581 0 001.111.354h4.518a1.576 1.576 0 001.112-.357 1.784 1.784 0 000-2.214zM178.8 240.487a2.3 2.3 0 01-1.025.961 3.66 3.66 0 01-1.624.33h-.006a5.472 5.472 0 01-1.162-.132 6.709 6.709 0 01-1.2-.381c-.068-.029-.136-.058-.2-.091l-.195-.1-4.28-2.193v-1.528l4.957 2.575-.247-.006a1.22 1.22 0 01-.5-.507 1.636 1.636 0 01-.177-.778 2.506 2.506 0 01.348-1.346 2.2 2.2 0 011.015-.854 4 4 0 011.6-.292h.007a3.761 3.761 0 011.641.33 2.3 2.3 0 011.039.965 3.453 3.453 0 010 3.044zm-1.4-2.558a1.7 1.7 0 00-1.169-.365h-.006a1.948 1.948 0 00-1.288.382 1.343 1.343 0 00-.456 1.09 1.157 1.157 0 00.459.979 2.1 2.1 0 001.291.347h.007A1.691 1.691 0 00177.4 240a1.511 1.511 0 000-2.069zM178.854 232.812a2.429 2.429 0 01-.854.965 3.366 3.366 0 01-1.347.5h-.007v-1.417h.007a1.289 1.289 0 00.852-.443 1.462 1.462 0 00.3-.958 1.288 1.288 0 00-.449-1.052 1.915 1.915 0 00-1.26-.372h-.834a1.911 1.911 0 00-1.255.372 1.291 1.291 0 00-.448 1.052 1.352 1.352 0 00.206.708 1.967 1.967 0 00.574.6v1.291h-5.237v-5.144h1.327v3.728h2.235a2.026 2.026 0 01-.444-1.257 2.961 2.961 0 01.355-1.5 2.287 2.287 0 011.039-.945 3.838 3.838 0 011.648-.323h.834a3.719 3.719 0 011.647.334 2.341 2.341 0 011.043.972 3.1 3.1 0 01.358 1.534 3 3 0 01-.29 1.355z"/><path class="cls-10" d="M166.846 281.261l-1.461-1.46" id="LINE-62" data-name="LINE"/><path class="cls-10" d="M168.307 279.801l-1.461 1.46" id="LINE-63" data-name="LINE"/><path class="cls-10" d="M166.846 204.115l1.462 1.459" id="LINE-64" data-name="LINE"/><path class="cls-10" d="M165.385 205.574l1.461-1.459" id="LINE-65" data-name="LINE"/><path class="cls-10" d="M166.846 158.511v41.937" id="LINE-66" data-name="LINE"/><path d="M179.046 192.228v1.416h-8.422l.868 1.438h-1.442l-.944-1.438v-1.416zM179.046 187.5v1.416h-8.422l.868 1.436h-1.442l-.944-1.436V187.5zM178.854 183.749a2.436 2.436 0 01-.854.965 3.366 3.366 0 01-1.347.5h-.007v-1.417h.007a1.286 1.286 0 00.852-.444 1.461 1.461 0 00.3-.958 1.286 1.286 0 00-.449-1.051 1.915 1.915 0 00-1.26-.372h-.834a1.911 1.911 0 00-1.255.372 1.289 1.289 0 00-.448 1.051 1.347 1.347 0 00.206.708 1.956 1.956 0 00.574.6v1.291h-5.237v-5.143h1.327v3.727h2.235a2.026 2.026 0 01-.444-1.257 2.961 2.961 0 01.355-1.5 2.285 2.285 0 011.039-.944 3.838 3.838 0 011.648-.323h.834a3.719 3.719 0 011.647.334 2.333 2.333 0 011.043.971 3.1 3.1 0 01.358 1.534 3.005 3.005 0 01-.29 1.356zM178.4 176.738a2.838 2.838 0 01-2.078.733h-4.518a2.826 2.826 0 01-2.081-.736 3.481 3.481 0 010-4.294 2.833 2.833 0 012.085-.732h4.518a2.826 2.826 0 012.082.736 3.472 3.472 0 010 4.293zm-.966-3.256a1.581 1.581 0 00-1.112-.357h-4.518a1.585 1.585 0 00-1.111.354 1.79 1.79 0 000 2.221 1.586 1.586 0 001.111.355h4.518a1.581 1.581 0 001.112-.358 1.785 1.785 0 000-2.215z"/><path class="cls-10" d="M166.846 200.448l-1.461-1.459" id="LINE-67" data-name="LINE"/><path class="cls-10" d="M168.307 198.989l-1.461 1.459" id="LINE-68" data-name="LINE"/><path class="cls-10" d="M166.846 158.511l1.462 1.459" id="LINE-69" data-name="LINE"/><path class="cls-10" d="M165.385 159.97l1.461-1.459" id="LINE-70" data-name="LINE"/><path class="cls-10" d="M194.346 133.594v66.854" id="LINE-71" data-name="LINE"/><path d="M206.546 193.443v1.416h-8.422l.868 1.438h-1.442l-.944-1.438v-1.416zM197.851 185.939l8.695 2.611v1.506l-8.613-2.61v2.569h1.428v1.416h-2.755v-5.492zM206.354 182.535a2.436 2.436 0 01-.854.965 3.365 3.365 0 01-1.347.5h-.007v-1.42h.007a1.29 1.29 0 00.852-.444 1.461 1.461 0 00.3-.958 1.29 1.29 0 00-.449-1.052 1.92 1.92 0 00-1.26-.371h-.834a1.917 1.917 0 00-1.255.371 1.292 1.292 0 00-.448 1.052 1.352 1.352 0 00.206.708 1.964 1.964 0 00.574.6v1.292h-5.237v-5.148h1.327v3.728h2.235a2 2 0 01-.328-.591 1.974 1.974 0 01-.116-.666 2.965 2.965 0 01.355-1.5 2.29 2.29 0 011.039-.944 3.838 3.838 0 011.648-.322h.834a3.733 3.733 0 011.647.333 2.344 2.344 0 011.043.971 3.1 3.1 0 01.358 1.535 3.005 3.005 0 01-.29 1.361zM205.9 175.524a2.834 2.834 0 01-2.078.733h-4.518a2.823 2.823 0 01-2.081-.737 3.479 3.479 0 010-4.293 2.833 2.833 0 012.085-.732h4.518a2.83 2.83 0 012.082.735 3.474 3.474 0 010 4.294zm-.966-3.256a1.581 1.581 0 00-1.112-.357h-4.518a1.585 1.585 0 00-1.111.354 1.79 1.79 0 000 2.221 1.581 1.581 0 001.111.354h4.518a1.572 1.572 0 001.112-.358 1.784 1.784 0 000-2.214z"/><path class="cls-10" d="M194.346 200.448l-1.461-1.459" id="LINE-72" data-name="LINE"/><path class="cls-10" d="M195.807 198.989l-1.461 1.459" id="LINE-73" data-name="LINE"/><path class="cls-10" d="M194.346 133.594l1.462 1.459" id="LINE-74" data-name="LINE"/><path class="cls-10" d="M192.885 135.053l1.461-1.459" id="LINE-75" data-name="LINE"/><path class="cls-10" d="M287.98 133.722v58.434" id="LINE-76" data-name="LINE"/><path d="M300.179 161.95v1.416h-8.422l.868 1.438h-1.442l-.944-1.438v-1.416zM297.444 159.8l-7.2-3.388v-1.458l7.116 3.305v-4.95h1.292v6.491zm-3.11-4.353v-1.382h5.852v1.382zM291.483 146.36l8.7 2.61v1.5l-8.614-2.609v2.568h1.429v1.416h-2.755v-5.49zM299.536 143.684a2.838 2.838 0 01-2.078.732h-4.519a2.829 2.829 0 01-2.081-.735 3.485 3.485 0 010-4.294 2.836 2.836 0 012.085-.732h4.519a2.83 2.83 0 012.082.735 3.474 3.474 0 010 4.294zm-.967-3.256a1.578 1.578 0 00-1.111-.357h-4.519a1.584 1.584 0 00-1.11.354 1.787 1.787 0 000 2.221 1.584 1.584 0 001.11.354h4.519a1.574 1.574 0 001.111-.358 1.78 1.78 0 000-2.214z"/><path class="cls-10" d="M287.98 192.156l-1.462-1.459" id="LINE-77" data-name="LINE"/><path class="cls-10" d="M289.441 190.697l-1.461 1.459" id="LINE-78" data-name="LINE"/><path class="cls-10" d="M287.98 133.722l1.462 1.46" id="LINE-79" data-name="LINE"/><path class="cls-10" d="M286.519 135.182l1.461-1.46" id="LINE-80" data-name="LINE"/><path class="cls-10" d="M287.98 195.727v85.409" id="LINE-81" data-name="LINE"/><path d="M298.969 252.887l-4.621-3.519a3.447 3.447 0 00-.824-.476 2.167 2.167 0 00-.8-.169h-.014a1.2 1.2 0 00-.923.353 1.425 1.425 0 00-.328 1.007 1.4 1.4 0 00.358 1 1.627 1.627 0 001.016.466h.007v1.464h-.007a3.663 3.663 0 01-1.459-.51 2.587 2.587 0 01-.924-1 3.022 3.022 0 01-.317-1.409 3.568 3.568 0 01.3-1.541 2.16 2.16 0 01.886-.972 2.768 2.768 0 011.4-.333h.006a3.031 3.031 0 011.1.222 4.682 4.682 0 011.107.618l3.911 2.922v-3.81h1.326v5.692zM300.281 243.627l-.3.645a2.542 2.542 0 01-.883 1.038 3.138 3.138 0 01-1.391.5v-1.443a1.5 1.5 0 00.7-.271 1.24 1.24 0 00.407-.538 2.056 2.056 0 00.133-.774 1.519 1.519 0 00-.369-1.09 1.365 1.365 0 00-1.039-.388h-.3a1.651 1.651 0 00-1.151.368 1.332 1.332 0 00-.407 1.041v.715h-1.326v-.715a1.193 1.193 0 00-.355-.915 1.384 1.384 0 00-.984-.327h-.308a1.187 1.187 0 00-.909.343 1.379 1.379 0 00-.321.976 1.5 1.5 0 00.133.645 1.215 1.215 0 00.411.483 1.836 1.836 0 00.693.288v1.437a3.581 3.581 0 01-1.395-.524 2.542 2.542 0 01-.881-.976 2.93 2.93 0 01-.3-1.353 2.829 2.829 0 01.676-2.021 2.5 2.5 0 011.908-.714h.164a2.12 2.12 0 011.3.41 2.309 2.309 0 01.806 1.159 2.054 2.054 0 01.8-1.281 2.619 2.619 0 011.586-.454h.164a3.029 3.029 0 011.483.339 2.229 2.229 0 01.937.99 3.5 3.5 0 01.321 1.565zM297.444 238.012l-7.2-3.388v-1.458l7.116 3.305v-4.95h1.292v6.491zm-3.11-4.353v-1.382h5.852v1.382zM299.987 228.324a2.429 2.429 0 01-.854.965 3.366 3.366 0 01-1.347.5h-.007v-1.417h.007a1.292 1.292 0 00.852-.443 1.462 1.462 0 00.3-.958 1.288 1.288 0 00-.448-1.052 1.919 1.919 0 00-1.261-.372h-.829a1.906 1.906 0 00-1.254.372 1.291 1.291 0 00-.448 1.052 1.36 1.36 0 00.2.708 1.968 1.968 0 00.575.6v1.291h-5.237v-5.15h1.326v3.727h2.238a2.035 2.035 0 01-.445-1.257 2.961 2.961 0 01.356-1.495 2.285 2.285 0 011.039-.944 3.836 3.836 0 011.647-.323h.834a3.72 3.72 0 011.648.334 2.338 2.338 0 011.043.971 3.1 3.1 0 01.358 1.535 3 3 0 01-.293 1.356z"/><path class="cls-10" d="M287.98 281.136l-1.462-1.46" id="LINE-82" data-name="LINE"/><path class="cls-10" d="M289.441 279.676l-1.461 1.46" id="LINE-83" data-name="LINE"/><path class="cls-10" d="M287.98 195.727l1.462 1.459" id="LINE-84" data-name="LINE"/><path class="cls-10" d="M286.519 197.186l1.461-1.459" id="LINE-85" data-name="LINE"/><path class="cls-10" d="M243.012 9.636v120.25" id="LINE-86" data-name="LINE"/><path d="M255.314 109.749l-.3.645a2.527 2.527 0 01-.883 1.038 3.151 3.151 0 01-1.391.5v-1.444a1.506 1.506 0 00.7-.271 1.246 1.246 0 00.406-.538 2.036 2.036 0 00.134-.774 1.515 1.515 0 00-.37-1.09 1.364 1.364 0 00-1.039-.389h-.3a1.659 1.659 0 00-1.152.368 1.333 1.333 0 00-.407 1.041v.715h-1.326v-.715a1.192 1.192 0 00-.349-.916 1.386 1.386 0 00-.984-.326h-.308a1.184 1.184 0 00-.909.343 1.377 1.377 0 00-.321.976 1.493 1.493 0 00.134.646 1.208 1.208 0 00.41.482 1.836 1.836 0 00.693.288v1.437a3.6 3.6 0 01-1.394-.524 2.541 2.541 0 01-.882-.975 2.95 2.95 0 01-.3-1.354 2.825 2.825 0 01.677-2.02 2.5 2.5 0 011.907-.715h.164a2.124 2.124 0 011.3.409 2.316 2.316 0 01.806 1.16 2.059 2.059 0 01.8-1.281 2.622 2.622 0 011.586-.455h.164a3.014 3.014 0 011.484.341 2.227 2.227 0 01.936.988 3.5 3.5 0 01.321 1.566zM254 104.147l-4.621-3.519a3.428 3.428 0 00-.823-.476 2.179 2.179 0 00-.8-.17h-.014a1.2 1.2 0 00-.923.354 1.427 1.427 0 00-.328 1.007 1.4 1.4 0 00.358 1 1.623 1.623 0 001.016.465h.007v1.465h-.007a3.678 3.678 0 01-1.459-.51 2.583 2.583 0 01-.924-1 3.017 3.017 0 01-.317-1.409 3.559 3.559 0 01.3-1.541 2.16 2.16 0 01.885-.971 2.768 2.768 0 011.4-.333h.007a3.03 3.03 0 011.1.222 4.739 4.739 0 011.108.617l3.91 2.923v-3.816h1.326v5.692zM254.962 95.984a2.3 2.3 0 01-1.025.961 3.66 3.66 0 01-1.624.33h-.006a5.479 5.479 0 01-1.162-.132 6.633 6.633 0 01-1.2-.382q-.1-.042-.2-.09l-.2-.1-4.28-2.194v-1.524l4.957 2.576-.247-.008a1.212 1.212 0 01-.5-.506 1.636 1.636 0 01-.177-.778 2.51 2.51 0 01.348-1.347 2.2 2.2 0 011.015-.853 4 4 0 011.6-.292h.007a3.746 3.746 0 011.641.33 2.3 2.3 0 011.039.965 3.453 3.453 0 010 3.044zm-1.4-2.558a1.7 1.7 0 00-1.168-.365h-.007a1.948 1.948 0 00-1.288.382 1.342 1.342 0 00-.455 1.09 1.156 1.156 0 00.458.979 2.1 2.1 0 001.292.347h.006a1.686 1.686 0 001.165-.365 1.51 1.51 0 000-2.068zM254.569 89.039a2.838 2.838 0 01-2.078.732h-4.518a2.822 2.822 0 01-2.081-.736 3.479 3.479 0 010-4.293 2.833 2.833 0 012.085-.732h4.518a2.83 2.83 0 012.082.735 3.474 3.474 0 010 4.294zm-.966-3.256a1.581 1.581 0 00-1.112-.357h-4.518a1.585 1.585 0 00-1.111.354 1.79 1.79 0 000 2.221 1.585 1.585 0 001.111.354h4.518A1.577 1.577 0 00253.6 88a1.784 1.784 0 000-2.214z"/><path class="cls-10" d="M243.012 129.886l-1.461-1.46" id="LINE-87" data-name="LINE"/><path class="cls-10" d="M244.474 128.426l-1.462 1.46" id="LINE-88" data-name="LINE"/><path class="cls-10" d="M243.013 9.636l1.461 1.459" id="LINE-89" data-name="LINE"/><path class="cls-10" d="M241.552 11.095l1.461-1.459" id="LINE-90" data-name="LINE"/><path class="cls-10" d="M288.096 27.167v102.719" id="LINE-91" data-name="LINE"/><path d="M285.086 111.692l-4.621-3.519a3.457 3.457 0 00-.823-.475 2.158 2.158 0 00-.8-.17h-.014a1.194 1.194 0 00-.923.354 1.424 1.424 0 00-.328 1.006 1.407 1.407 0 00.358 1 1.634 1.634 0 001.016.465h.007v1.464h-.007a3.663 3.663 0 01-1.459-.51 2.587 2.587 0 01-.924-1 3.019 3.019 0 01-.317-1.409 3.553 3.553 0 01.3-1.541 2.158 2.158 0 01.885-.972 2.778 2.778 0 011.4-.333h.007a3.051 3.051 0 011.1.222 4.707 4.707 0 011.108.618l3.91 2.922V106h1.339v5.692zM277.6 98.982l8.695 2.61v1.508l-8.613-2.609v2.568h1.428v1.416h-2.755v-5.493zM281.36 93.464l.246.007a1.024 1.024 0 01.461.524 2.115 2.115 0 01.148.83 2.256 2.256 0 01-.362 1.27 2.377 2.377 0 01-1.022.85 3.642 3.642 0 01-1.528.3h-.003a3.763 3.763 0 01-1.648-.33 2.3 2.3 0 01-1.039-.965 3.071 3.071 0 01-.355-1.523 3.008 3.008 0 01.362-1.52 2.345 2.345 0 011.053-.962 3.823 3.823 0 011.661-.329h.007a5.092 5.092 0 011.139.138 7.04 7.04 0 011.2.4l.181.083c.061.028.122.058.181.091l4.259 2.151V96zm-.86-.064a1.921 1.921 0 00-1.251-.364h-.007a1.832 1.832 0 00-1.217.364 1.459 1.459 0 000 2.069 1.851 1.851 0 001.224.364h.007a1.916 1.916 0 001.248-.364 1.274 1.274 0 00.44-1.038 1.258 1.258 0 00-.444-1.031zM285.653 89.011a2.838 2.838 0 01-2.078.733h-4.518a2.826 2.826 0 01-2.081-.736 3.481 3.481 0 010-4.294 2.833 2.833 0 012.085-.732h4.518a2.826 2.826 0 012.082.736 3.472 3.472 0 010 4.293zm-.966-3.256a1.581 1.581 0 00-1.112-.357h-4.518a1.585 1.585 0 00-1.111.354 1.79 1.79 0 000 2.221 1.585 1.585 0 001.111.354h4.518a1.581 1.581 0 001.112-.357 1.785 1.785 0 000-2.215z"/><path class="cls-10" d="M288.096 129.886l-1.461-1.46" id="LINE-92" data-name="LINE"/><path class="cls-10" d="M289.557 128.426l-1.461 1.46" id="LINE-93" data-name="LINE"/><path class="cls-10" d="M288.096 27.167l1.462 1.459" id="LINE-94" data-name="LINE"/><path class="cls-10" d="M286.635 28.626l1.461-1.459" id="LINE-95" data-name="LINE"/><path class="cls-10" d="M303.178 100.386v29.5" id="LINE-96" data-name="LINE"/><path d="M301.38 126.648v1.416h-8.422l.868 1.437h-1.442l-.944-1.437v-1.416zM300.737 123.625a2.834 2.834 0 01-2.078.733h-4.518a2.826 2.826 0 01-2.081-.736 3.481 3.481 0 010-4.294 2.833 2.833 0 012.085-.732h4.518a2.826 2.826 0 012.082.736 3.472 3.472 0 010 4.293zm-.966-3.256a1.581 1.581 0 00-1.112-.357h-4.518a1.585 1.585 0 00-1.111.354 1.79 1.79 0 000 2.221 1.581 1.581 0 001.111.354h4.518a1.576 1.576 0 001.112-.357 1.785 1.785 0 000-2.215zM298.646 116.652l-7.2-3.387v-1.458l7.116 3.3v-4.949h1.292v6.49zm-3.111-4.352v-1.382h5.852v1.382zM301.188 106.965a2.436 2.436 0 01-.854.965 3.366 3.366 0 01-1.347.5h-.007v-1.42h.007a1.29 1.29 0 00.852-.444 1.459 1.459 0 00.3-.958 1.291 1.291 0 00-.449-1.052 1.922 1.922 0 00-1.26-.371h-.83a1.917 1.917 0 00-1.255.371 1.293 1.293 0 00-.448 1.052 1.349 1.349 0 00.206.708 1.956 1.956 0 00.574.6v1.284h-5.237v-5.14h1.327v3.728H295a2.026 2.026 0 01-.444-1.256 2.965 2.965 0 01.355-1.5 2.285 2.285 0 011.039-.944 3.838 3.838 0 011.648-.323h.834a3.733 3.733 0 011.647.333 2.346 2.346 0 011.043.972 3.1 3.1 0 01.358 1.534 3 3 0 01-.292 1.361z"/><path class="cls-10" d="M303.178 129.886l-1.461-1.46" id="LINE-97" data-name="LINE"/><path class="cls-10" d="M304.64 128.426l-1.462 1.46" id="LINE-98" data-name="LINE"/><path class="cls-10" d="M303.179 100.386l1.461 1.459" id="LINE-99" data-name="LINE"/><path class="cls-10" d="M301.718 101.845l1.461-1.459" id="LINE-100" data-name="LINE"/><path class="cls-10" d="M303.178 27.323v29.423" id="LINE-101" data-name="LINE"/><path d="M301.141 52.311a2.517 2.517 0 01-.968 1.073 2.75 2.75 0 01-1.452.378h-.164a2.766 2.766 0 01-1.4-.378 2.518 2.518 0 01-.991-1.01 2.293 2.293 0 01-1.976 1.18h-.239a2.615 2.615 0 01-1.37-.354 2.38 2.38 0 01-.916-1 3.619 3.619 0 010-3 2.38 2.38 0 01.916-1 2.615 2.615 0 011.37-.354h.239a2.258 2.258 0 011.976 1.2 2.6 2.6 0 011-1.024 2.7 2.7 0 011.4-.385h.164a2.74 2.74 0 011.452.378 2.52 2.52 0 01.968 1.072 3.974 3.974 0 010 3.221zm-5.671-2.36a1.26 1.26 0 00-.516-.507 1.606 1.606 0 00-.772-.18h-.1a1.483 1.483 0 00-.738.18 1.239 1.239 0 00-.5.507 1.695 1.695 0 000 1.5 1.231 1.231 0 00.5.506 1.5 1.5 0 00.745.181h.1a1.579 1.579 0 00.763-.181 1.26 1.26 0 00.512-.506 1.644 1.644 0 000-1.5zm4.481-.118a1.4 1.4 0 00-.536-.58 1.537 1.537 0 00-.8-.2h-.1a1.543 1.543 0 00-.8.2 1.4 1.4 0 00-.537.58 2.056 2.056 0 000 1.735 1.383 1.383 0 00.54.58 1.556 1.556 0 00.806.2h.1a1.509 1.509 0 00.793-.2 1.378 1.378 0 00.529-.58 1.9 1.9 0 00.189-.867 1.878 1.878 0 00-.184-.868zM298.646 45.8l-7.2-3.388v-1.457l7.116 3.3V39.31h1.292v6.49zm-3.111-4.352v-1.382h5.852v1.382zM301.188 36.113a2.436 2.436 0 01-.854.965 3.366 3.366 0 01-1.347.5h-.007v-1.42h.007a1.29 1.29 0 00.852-.444 1.459 1.459 0 00.3-.958 1.291 1.291 0 00-.449-1.052 1.922 1.922 0 00-1.26-.371h-.83a1.917 1.917 0 00-1.255.371 1.293 1.293 0 00-.448 1.052 1.349 1.349 0 00.206.708 1.956 1.956 0 00.574.6v1.291h-5.237v-5.147h1.327v3.728H295a2.026 2.026 0 01-.444-1.256 2.965 2.965 0 01.355-1.5 2.285 2.285 0 011.039-.944 3.838 3.838 0 011.648-.323h.834a3.733 3.733 0 011.647.333 2.346 2.346 0 011.043.972 3.1 3.1 0 01.358 1.534 3 3 0 01-.292 1.361z"/><path class="cls-10" d="M303.178 56.746l-1.461-1.459" id="LINE-102" data-name="LINE"/><path class="cls-10" d="M304.639 55.287l-1.461 1.459" id="LINE-103" data-name="LINE"/><path class="cls-10" d="M303.179 27.323l1.461 1.459" id="LINE-104" data-name="LINE"/><path class="cls-10" d="M301.717 28.782l1.462-1.459" id="LINE-105" data-name="LINE"/><path class="cls-10" d="M337.231 246.581h-22.46" id="LINE-106" data-name="LINE"/><path class="cls-10" d="M337.231 207.172h-22.46" id="LINE-107" data-name="LINE"/><path class="cls-10" d="M337.231 246.581v-39.409" id="LINE-108" data-name="LINE"/><path d="M349.392 235.92v1.408h-8.422l.868 1.429H340.4l-.944-1.429v-1.408zM349.392 231.22v1.408h-8.422l.868 1.428H340.4l-.944-1.428v-1.408zM348.749 228.213a2.848 2.848 0 01-2.078.727h-4.519a2.569 2.569 0 01-2.823-2.864 2.872 2.872 0 01.738-2.136 2.843 2.843 0 012.085-.728h4.519a3.018 3.018 0 012.078 5zm-.967-3.238a1.584 1.584 0 00-1.111-.355h-4.519a1.589 1.589 0 00-1.11.352 1.77 1.77 0 000 2.209 1.593 1.593 0 001.11.351h4.519a1.58 1.58 0 001.111-.355 1.763 1.763 0 000-2.2zM348.749 220.413a2.852 2.852 0 01-2.078.727h-4.519a2.834 2.834 0 01-2.081-.731 2.867 2.867 0 012.081-5h4.519a2.838 2.838 0 012.082.732 3.439 3.439 0 010 4.27zm-.967-3.238a1.585 1.585 0 00-1.111-.356h-4.519a1.584 1.584 0 00-1.11.353 1.768 1.768 0 000 2.208 1.589 1.589 0 001.11.352h4.519a1.584 1.584 0 001.111-.355 1.763 1.763 0 000-2.2z"/><path class="cls-10" d="M337.231 246.581l1.462-1.476" id="LINE-109" data-name="LINE"/><path class="cls-10" d="M335.77 245.105l1.461 1.476" id="LINE-110" data-name="LINE"/><path class="cls-10" d="M337.231 207.172l-1.462 1.476" id="LINE-111" data-name="LINE"/><path class="cls-10" d="M338.692 208.648l-1.461-1.476" id="LINE-112" data-name="LINE"/><path class="cls-10" d="M55.59 31.984h14.395" id="LINE-113" data-name="LINE"/><path class="cls-10" d="M55.59 98.146h14.395" id="LINE-114" data-name="LINE"/><path class="cls-10" d="M55.589 31.984v66.162" id="LINE-115" data-name="LINE"/><path d="M51.97 73.815v1.416h-8.422l.868 1.437h-1.442l-.944-1.437v-1.416zM43.274 66.311l8.7 2.61v1.506l-8.614-2.61v2.569h1.429V71.8H42.03v-5.489zM51.97 61.931v1.416h-8.422l.868 1.437h-1.442l-.944-1.437v-1.416zM51.327 58.908a2.838 2.838 0 01-2.078.732H44.73a2.83 2.83 0 01-2.081-.736 3.481 3.481 0 010-4.293 2.829 2.829 0 012.084-.733h4.519a2.826 2.826 0 012.082.736 3.474 3.474 0 010 4.294zm-.967-3.256a1.574 1.574 0 00-1.111-.358H44.73a1.584 1.584 0 00-1.11.354 1.787 1.787 0 000 2.221 1.58 1.58 0 001.11.354h4.519a1.574 1.574 0 001.111-.357 1.78 1.78 0 000-2.214z"/><path class="cls-10" d="M55.589 31.984l-1.461 1.475" id="LINE-116" data-name="LINE"/><path class="cls-10" d="M57.051 33.459l-1.462-1.475" id="LINE-117" data-name="LINE"/><path class="cls-10" d="M55.59 98.146l1.461-1.476" id="LINE-118" data-name="LINE"/><path class="cls-10" d="M54.129 96.67l1.461 1.476" id="LINE-119" data-name="LINE"/><path class="cls-10" d="M55.59 98.198h14.395" id="LINE-120" data-name="LINE"/><path class="cls-10" d="M55.59 171.886h14.395" id="LINE-121" data-name="LINE"/><path class="cls-10" d="M55.589 98.198v73.688" id="LINE-122" data-name="LINE"/><path d="M51.97 145.145v1.416h-8.422l.868 1.439h-1.442l-.944-1.437v-1.416zM47.034 139.279l.246.007a1.032 1.032 0 01.461.524 2.122 2.122 0 01.148.83 2.246 2.246 0 01-.363 1.27 2.376 2.376 0 01-1.021.851 3.645 3.645 0 01-1.528.3h-.007a3.778 3.778 0 01-1.648-.329 2.311 2.311 0 01-1.039-.965 3.075 3.075 0 01-.355-1.524 3.013 3.013 0 01.362-1.52 2.337 2.337 0 011.053-.961 3.82 3.82 0 011.661-.33h.007a5.081 5.081 0 011.138.139 6.93 6.93 0 011.2.4l.181.084c.061.027.121.057.181.09l4.259 2.152v1.527zm-.861-.066a1.927 1.927 0 00-1.251-.364h-.007a1.836 1.836 0 00-1.217.364 1.459 1.459 0 000 2.069 1.843 1.843 0 001.224.364h.007a1.91 1.91 0 001.248-.364 1.273 1.273 0 00.44-1.038 1.259 1.259 0 00-.444-1.031zM47.034 131.983l.246.007a1.03 1.03 0 01.461.525 2.114 2.114 0 01.148.829 2.246 2.246 0 01-.363 1.27 2.376 2.376 0 01-1.021.851 3.645 3.645 0 01-1.528.3h-.007a3.763 3.763 0 01-1.648-.329 2.311 2.311 0 01-1.039-.965 3.075 3.075 0 01-.355-1.524 3.013 3.013 0 01.362-1.52 2.337 2.337 0 011.053-.961 3.82 3.82 0 011.661-.33h.007a5.081 5.081 0 011.138.139 7.017 7.017 0 011.2.395l.181.084c.061.028.121.057.181.09L51.97 133v1.527zm-.861-.066a1.927 1.927 0 00-1.251-.364h-.007a1.836 1.836 0 00-1.217.364 1.459 1.459 0 000 2.069 1.843 1.843 0 001.224.364h.007a1.91 1.91 0 001.248-.364 1.273 1.273 0 00.44-1.038 1.259 1.259 0 00-.444-1.031zM51.327 127.531a2.838 2.838 0 01-2.078.732H44.73a2.83 2.83 0 01-2.081-.736 3.481 3.481 0 010-4.293 2.829 2.829 0 012.084-.733h4.519a2.826 2.826 0 012.082.736 3.474 3.474 0 010 4.294zm-.967-3.256a1.574 1.574 0 00-1.111-.358H44.73a1.584 1.584 0 00-1.11.354 1.788 1.788 0 000 2.222 1.584 1.584 0 001.11.354h4.519a1.574 1.574 0 001.111-.358 1.78 1.78 0 000-2.214z"/><path class="cls-10" d="M55.589 98.198l-1.461 1.476" id="LINE-123" data-name="LINE"/><path class="cls-10" d="M57.051 99.674l-1.462-1.476" id="LINE-124" data-name="LINE"/><path class="cls-10" d="M55.59 171.886l1.461-1.476" id="LINE-125" data-name="LINE"/><path class="cls-10" d="M54.129 170.41l1.461 1.476" id="LINE-126" data-name="LINE"/><path class="cls-10" d="M55.59 171.844h14.395" id="LINE-127" data-name="LINE"/><path class="cls-10" d="M55.59 254.886h14.395" id="LINE-128" data-name="LINE"/><path class="cls-10" d="M55.589 171.844v83.042" id="LINE-129" data-name="LINE"/><path d="M50.76 226.081l-4.621-3.52a3.443 3.443 0 00-.824-.475 2.17 2.17 0 00-.8-.17h-.014a1.2 1.2 0 00-.923.354 1.424 1.424 0 00-.328 1.006 1.407 1.407 0 00.358 1 1.631 1.631 0 001.016.465h.007v1.465h-.007a3.679 3.679 0 01-1.459-.511 2.587 2.587 0 01-.924-1 3.019 3.019 0 01-.317-1.409 3.571 3.571 0 01.3-1.541 2.16 2.16 0 01.886-.972 2.789 2.789 0 011.4-.333h.006a3.033 3.033 0 011.1.223 4.642 4.642 0 011.107.617l3.911 2.922v-3.817h1.336v5.692zM51.97 216.147v1.416h-8.422l.868 1.437h-1.442l-.944-1.438v-1.416zM51.72 212.774a2.3 2.3 0 01-1.026.961 3.653 3.653 0 01-1.623.33h-.007a5.49 5.49 0 01-1.162-.133 6.64 6.64 0 01-1.2-.38c-.068-.029-.136-.059-.2-.091l-.2-.1-4.28-2.193v-1.528l4.956 2.576-.246-.007a1.2 1.2 0 01-.5-.507 1.636 1.636 0 01-.178-.778 2.507 2.507 0 01.349-1.346 2.188 2.188 0 011.015-.854 3.978 3.978 0 011.6-.292h.007a3.761 3.761 0 011.641.33 2.309 2.309 0 011.039.964 3.455 3.455 0 010 3.045zm-1.4-2.558a1.7 1.7 0 00-1.169-.365h-.007a1.952 1.952 0 00-1.288.382 1.343 1.343 0 00-.455 1.09 1.159 1.159 0 00.458.979 2.107 2.107 0 001.292.347h.007a1.686 1.686 0 001.165-.365 1.513 1.513 0 000-2.068zM51.327 205.829a2.838 2.838 0 01-2.078.732H44.73a2.83 2.83 0 01-2.081-.736 3.481 3.481 0 010-4.293 2.832 2.832 0 012.084-.732h4.519a2.826 2.826 0 012.082.736 3.472 3.472 0 010 4.293zm-.967-3.256a1.578 1.578 0 00-1.111-.357H44.73a1.589 1.589 0 00-1.11.353 1.788 1.788 0 000 2.222 1.584 1.584 0 001.11.354h4.519a1.578 1.578 0 001.111-.357 1.782 1.782 0 000-2.215z"/><path class="cls-10" d="M55.589 171.844l-1.461 1.475" id="LINE-130" data-name="LINE"/><path class="cls-10" d="M57.051 173.319l-1.462-1.475" id="LINE-131" data-name="LINE"/><path class="cls-10" d="M55.59 254.886l1.461-1.476" id="LINE-132" data-name="LINE"/><path class="cls-10" d="M54.129 253.41l1.461 1.476" id="LINE-133" data-name="LINE"/><path class="cls-10" d="M15.59 4.969h14.395" id="LINE-134" data-name="LINE"/><path class="cls-10" d="M15.59 285.761h14.395" id="LINE-135" data-name="LINE"/><path class="cls-10" d="M15.589 4.969v280.792" id="LINE-136" data-name="LINE"/><path d="M3.274 153.955l8.7 2.61v1.506l-8.614-2.609v2.568h1.425v1.416H2.03v-5.491zM9.235 152.706l-7.2-3.389v-1.457l7.116 3.3v-4.95h1.292v6.491zm-3.11-4.354v-1.38h5.852v1.38zM3.274 139.266l8.7 2.61v1.507l-8.614-2.61v2.568h1.425v1.416H2.03v-5.491zM11.327 136.591a2.838 2.838 0 01-2.078.732H4.73a2.83 2.83 0 01-2.081-.736 3.481 3.481 0 010-4.293 2.833 2.833 0 012.084-.733h4.516a2.826 2.826 0 012.082.736 3.474 3.474 0 010 4.294zm-.967-3.256a1.579 1.579 0 00-1.111-.358H4.73a1.589 1.589 0 00-1.11.354 1.788 1.788 0 000 2.222 1.584 1.584 0 001.11.354h4.519a1.574 1.574 0 001.111-.358 1.78 1.78 0 000-2.214z"/><path class="cls-10" d="M15.589 4.969l-1.461 1.475" id="LINE-137" data-name="LINE"/><path class="cls-10" d="M17.051 6.444l-1.462-1.475" id="LINE-138" data-name="LINE"/><path class="cls-10" d="M15.59 285.761l1.461-1.476" id="LINE-139" data-name="LINE"/><path class="cls-10" d="M14.129 284.285l1.461 1.476" id="LINE-140" data-name="LINE"/><path class="cls-10" d="M227.254 115.625v15.102" id="LINE-141" data-name="LINE"/><path class="cls-10" d="M195.426 115.625v15.102" id="LINE-142" data-name="LINE"/><path class="cls-10" d="M195.426 115.624h31.828" id="LINE-143" data-name="LINE"/><path d="M204.464 107.053l-.007.246a1.036 1.036 0 01-.524.461 2.117 2.117 0 01-.829.148 2.255 2.255 0 01-1.271-.363 2.383 2.383 0 01-.851-1.021 3.647 3.647 0 01-.3-1.529v-.006a3.749 3.749 0 01.33-1.648 2.3 2.3 0 01.965-1.039 3.065 3.065 0 011.523-.355 3.019 3.019 0 011.521.362 2.341 2.341 0 01.96 1.053 3.82 3.82 0 01.331 1.661v.007a5.14 5.14 0 01-.139 1.138 6.94 6.94 0 01-.4 1.2l-.083.181a2.753 2.753 0 01-.089.181l-2.153 4.259h-1.527zm.065-.861a1.921 1.921 0 00.366-1.251v-.007a1.831 1.831 0 00-.366-1.217 1.456 1.456 0 00-2.068 0 1.842 1.842 0 00-.364 1.224v.007a1.91 1.91 0 00.364 1.248 1.273 1.273 0 001.038.44 1.256 1.256 0 001.03-.444zM208.917 111.346a2.838 2.838 0 01-.732-2.078v-4.519a2.824 2.824 0 01.736-2.081 3.483 3.483 0 014.293 0 2.836 2.836 0 01.732 2.085v4.519a2.832 2.832 0 01-.735 2.082 3.474 3.474 0 01-4.294 0zm3.256-.967a1.58 1.58 0 00.357-1.111v-4.519a1.584 1.584 0 00-.354-1.11 1.787 1.787 0 00-2.221 0 1.584 1.584 0 00-.354 1.11v4.519a1.58 1.58 0 00.357 1.111 1.782 1.782 0 002.215 0zM216.761 111.346a2.834 2.834 0 01-.733-2.078v-4.519a2.82 2.82 0 01.737-2.081 3.483 3.483 0 014.293 0 2.836 2.836 0 01.732 2.085v4.519a2.832 2.832 0 01-.735 2.082 3.474 3.474 0 01-4.294 0zm3.256-.967a1.58 1.58 0 00.357-1.111v-4.519a1.584 1.584 0 00-.354-1.11 1.787 1.787 0 00-2.221 0 1.585 1.585 0 00-.355 1.11v4.519a1.576 1.576 0 00.358 1.111 1.782 1.782 0 002.215 0z"/><path class="cls-10" d="M227.254 115.624l-1.474-1.461" id="LINE-144" data-name="LINE"/><path class="cls-10" d="M225.78 117.085l1.474-1.461" id="LINE-145" data-name="LINE"/><path class="cls-10" d="M195.426 115.625l1.474 1.461" id="LINE-146" data-name="LINE"/><path class="cls-10" d="M196.9 114.164l-1.474 1.461" id="LINE-147" data-name="LINE"/><path class="cls-10" d="M271.108 140.746v-8.527" id="LINE-148" data-name="LINE"/><path class="cls-10" d="M243.947 140.746v-8.527" id="LINE-149" data-name="LINE"/><path class="cls-10" d="M243.947 140.747h27.161" id="LINE-150" data-name="LINE"/><path d="M248.072 152.668A2.515 2.515 0 01247 151.7a2.747 2.747 0 01-.378-1.452v-.164a2.766 2.766 0 01.378-1.4 2.518 2.518 0 011.01-.991 2.187 2.187 0 01-.858-.831 2.212 2.212 0 01-.322-1.144v-.24a2.615 2.615 0 01.354-1.37 2.38 2.38 0 011-.916 3.622 3.622 0 013 0 2.389 2.389 0 011 .916 2.615 2.615 0 01.354 1.37v.24a2.258 2.258 0 01-1.2 1.975 2.593 2.593 0 011.023 1 2.7 2.7 0 01.386 1.4v.164a2.747 2.747 0 01-.378 1.452 2.523 2.523 0 01-1.073.968 3.963 3.963 0 01-3.221 0zm2.479-1.19a1.391 1.391 0 00.579-.536 1.528 1.528 0 00.205-.8v-.095a1.535 1.535 0 00-.205-.8 1.387 1.387 0 00-.579-.537 2.058 2.058 0 00-1.736 0 1.389 1.389 0 00-.58.54 1.565 1.565 0 00-.2.806v.1a1.517 1.517 0 00.2.793 1.378 1.378 0 00.58.529 1.9 1.9 0 00.868.189 1.878 1.878 0 00.868-.189zm-.118-4.478a1.252 1.252 0 00.506-.516 1.592 1.592 0 00.181-.772v-.1a1.473 1.473 0 00-.181-.738 1.231 1.231 0 00-.506-.5 1.693 1.693 0 00-1.5 0 1.228 1.228 0 00-.507.5 1.489 1.489 0 00-.181.745v.1a1.561 1.561 0 00.181.762 1.256 1.256 0 00.507.512 1.634 1.634 0 001.5 0zM255.455 152.265a2.842 2.842 0 01-.732-2.079v-4.518a2.822 2.822 0 01.736-2.081 3.483 3.483 0 014.293 0 2.833 2.833 0 01.732 2.085v4.518a2.83 2.83 0 01-.735 2.082 3.472 3.472 0 01-4.294 0zm3.256-.967a1.581 1.581 0 00.357-1.112v-4.518a1.585 1.585 0 00-.354-1.111 1.79 1.79 0 00-2.221 0 1.585 1.585 0 00-.354 1.111v4.518a1.581 1.581 0 00.357 1.112 1.785 1.785 0 002.215 0zM263.3 152.265a2.843 2.843 0 01-.733-2.079v-4.518a2.823 2.823 0 01.737-2.081 3.483 3.483 0 014.293 0 2.833 2.833 0 01.732 2.085v4.518a2.83 2.83 0 01-.735 2.082 3.472 3.472 0 01-4.294 0zm3.256-.967a1.581 1.581 0 00.357-1.112v-4.518a1.585 1.585 0 00-.354-1.111 1.79 1.79 0 00-2.221 0 1.586 1.586 0 00-.355 1.111v4.518a1.581 1.581 0 00.358 1.112 1.785 1.785 0 002.215 0z"/><path class="cls-10" d="M271.108 140.747l-1.474 1.461" id="LINE-151" data-name="LINE"/><path class="cls-10" d="M269.634 139.286l1.474 1.461" id="LINE-152" data-name="LINE"/><path class="cls-10" d="M243.947 140.746l1.474-1.461" id="LINE-153" data-name="LINE"/><path class="cls-10" d="M245.421 142.208l-1.474-1.462" id="LINE-154" data-name="LINE"/><path class="cls-10" d="M283.499 218.58v-22.944" id="LINE-155" data-name="LINE"/><path class="cls-10" d="M235.593 218.58v-15.103" id="LINE-156" data-name="LINE"/><path class="cls-10" d="M235.593 218.58h47.906" id="LINE-157" data-name="LINE"/><path d="M250.615 230.739H249.2v-8.422l-1.436.868v-1.442l1.436-.943h1.416zM254.67 230.842l-.646-.3a2.54 2.54 0 01-1.038-.883 3.163 3.163 0 01-.5-1.39h1.444a1.5 1.5 0 00.27.7 1.252 1.252 0 00.538.406 2.041 2.041 0 00.775.134 1.52 1.52 0 001.089-.369 1.366 1.366 0 00.389-1.039v-.3a1.659 1.659 0 00-.368-1.152 1.332 1.332 0 00-1.041-.407h-.715v-1.326h.715a1.192 1.192 0 00.916-.349 1.382 1.382 0 00.326-.984v-.308a1.181 1.181 0 00-.344-.909 1.37 1.37 0 00-.974-.321 1.49 1.49 0 00-.646.134 1.21 1.21 0 00-.482.41 1.827 1.827 0 00-.288.693h-1.438a3.586 3.586 0 01.525-1.394 2.541 2.541 0 01.975-.882 2.944 2.944 0 011.354-.3 2.821 2.821 0 012.019.677 2.5 2.5 0 01.715 1.907v.164a2.124 2.124 0 01-.409 1.3 2.315 2.315 0 01-1.159.807 2.051 2.051 0 011.28.8 2.615 2.615 0 01.455 1.586v.164a3.02 3.02 0 01-.34 1.484 2.23 2.23 0 01-.989.936 3.5 3.5 0 01-1.565.322zM262.86 230.739h-1.416v-8.422l-1.436.868v-1.442l1.436-.943h1.416zM265.883 230.1a2.843 2.843 0 01-.733-2.079V223.5a2.823 2.823 0 01.737-2.081 3.483 3.483 0 014.293 0 2.833 2.833 0 01.732 2.085v4.518a2.83 2.83 0 01-.735 2.082 3.472 3.472 0 01-4.294 0zm3.256-.967a1.581 1.581 0 00.357-1.112V223.5a1.581 1.581 0 00-.354-1.11 1.787 1.787 0 00-2.221 0 1.581 1.581 0 00-.355 1.11v4.518a1.581 1.581 0 00.358 1.112 1.785 1.785 0 002.215 0z"/><path class="cls-10" d="M283.499 218.58l-1.474 1.462" id="LINE-158" data-name="LINE"/><path class="cls-10" d="M282.025 217.119l1.474 1.461" id="LINE-159" data-name="LINE"/><path class="cls-10" d="M235.593 218.58l1.474-1.462" id="LINE-160" data-name="LINE"/><path class="cls-10" d="M237.067 220.041l-1.474-1.461" id="LINE-161" data-name="LINE"/></g></svg>