<svg version="1.1" id="_x31_89" xmlns="http://www.w3.org/2000/svg" x="0" y="0" viewBox="0 0 405.367 332.734" xml:space="preserve"><style>.st0,.st1{fill-rule:evenodd;clip-rule:evenodd}.st0{fill:#fff}.st1{stroke:#999;stroke-linecap:round;stroke-linejoin:round}.st1,.st2,.st3{fill:none;stroke-miterlimit:3}.st2{fill-rule:evenodd;clip-rule:evenodd;stroke-width:.4;stroke-linecap:round;stroke-linejoin:round;stroke:#999}.st3{stroke:#000}.st3,.st4,.st6,.st7{fill-rule:evenodd;clip-rule:evenodd}.st6,.st7{fill:none;stroke:#000;stroke-miterlimit:22.9256}.st7{stroke:#666;stroke-width:.6}</style><path class="st0" d="M72.602.107v58.314H.108v274.206h405.258V.107z" id="fon"/><g id="mebel_7_"><path class="st1" d="M349.914 33.737h30.136m0 0V11.065m0 0h-30.136m0 0v22.672M349.914 31.47h30.136M380.049 33.737H277.837M380.049 11.065v22.672M324.881 31.659h21.916m0 0V13.142m0 0h-21.916m0 0v18.516M335.84 20.378v-5.299M335.84 15.079h1.095M335.84 20.378h1.095M344.694 20.378v-5.299M343.597 15.079h1.097M343.597 20.378h1.097M332.334 17.513a2.74 2.74 0 11-5.479-.001 2.74 2.74 0 015.479.001zM334.832 25.752a3.967 3.967 0 11-7.935 0 3.969 3.969 0 017.935 0z"/><path class="st1" d="M333.132 25.752a2.269 2.269 0 11-4.537-.001 2.269 2.269 0 014.537.001zM342.912 17.699a2.646 2.646 0 11-5.292-.002 2.646 2.646 0 015.292.002zM344.785 26.29a3.401 3.401 0 11-6.801-.003 3.401 3.401 0 016.801.003zM321.765 33.737h28.148M321.765 11.065h28.148M321.765 33.737V11.065M349.914 33.737V11.065M277.837 94.195V33.737M277.837 79.836v-46.1M255.165 79.836h22.672M277.837 102.508V79.836m0 0h-22.672m0 0v22.672m0 0h22.672M262.723 91.172h7.558M263.829 93.844l5.345-5.344M266.501 94.951v-7.558M269.173 93.844l-5.344-5.344M275.003 58.865v19.271m0 0l-.222.535m0 0l-.534.22m0 0h-17.381m0 0l-.535-.22m0 0l-.222-.535m0 0V58.865m0 0l.222-.534m0 0l.535-.221m0 0h17.381m0 0l.534.221m0 0l.222.534M277.837 57.165v22.672M255.165 57.165v22.672M277.837 57.165h-22.672M277.837 79.836h-22.672M273.114 60.754v15.492M272.359 77.003h-11.714M259.889 76.247v-7.001M259.889 67.756v-7.002M260.645 59.998h11.714M273.114 60.754h.141a.142.142 0 00-.141-.142.142.142 0 000 .283.14.14 0 00.141-.141h-.141zM273.114 76.247a.755.755 0 01-.755.756M260.645 77.003a.755.755 0 01-.756-.756M259.889 60.754c0-.418.338-.756.756-.756M272.359 59.998c.417 0 .755.338.755.756M264.721 68.161l.24.1m0 0l.1.241m0 0l-.101.24m0 0l-.241.099m0 0h-7.476m0 0l-.24-.1m0 0l-.099-.24m0 0l.099-.24m0 0l.24-.1m0 0h7.478M259.171 67.745v.415m0 0h-1.928m0 0l-.24.1m0 0l-.1.24m0 .001l.1.24m0-.001l.24.1m0 0h1.928m0 0v.414m0 .001h-2.456m0 0v-1.509m0-.001h2.456M260.532 67.756v.404m0 0h-1.323m0 0v-.404m0 0h1.323M260.532 69.244h-1.323m0 0v-.404m0 0h1.323m0 0v.404M277.837 34.493v22.672M255.165 34.493v22.672M277.837 34.493h-22.672M277.837 57.165h-22.672M272.736 42.672a3.41 3.41 0 11-6.822 0 3.41 3.41 0 016.822 0z"/><path class="st1" d="M272.214 42.672a2.89 2.89 0 11-5.779 0 2.89 2.89 0 115.779 0zM272.736 48.98a2.579 2.579 0 11-5.158.002 2.579 2.579 0 015.158-.002z"/><path class="st1" d="M271.601 48.98a1.445 1.445 0 11-2.89 0 1.445 1.445 0 012.89 0zM271.532 38.603v.964m0 0h1.204m0 0V52.09m0 0h-1.204m0 0v.964M262.005 40.067l.104.048m.103.047l.103.047m.103.047l.103.047m.104.047l.103.047m.103.047l.103.048m.102.047l.104.047m.102.047l.104.047m.103.047l.104.047m.102.048l.103.047m.102.047l.104.047m.105.047l.102.047m.104.048l.102.047m.103.047l.103.048m.103.047l.102.046m.104.047l.103.047m.104.048l.103.047m.104.047l.102.048M262.005 49.701l.104-.047m.103-.047l.103-.048m.103-.046l.103-.047m.104-.047l.103-.048m.103-.047l.103-.047m.102-.048l.104-.047m.102-.046l.104-.048m.103-.047l.104-.047m.102-.047l.103-.048m.102-.047l.104-.047m.105-.046l.102-.048m.104-.047l.102-.047m.103-.048l.103-.047m.103-.047l.102-.046m.104-.048l.103-.047m.104-.048l.103-.047m.104-.047l.102-.047M262.005 40.067v.078m0 .113v.114m0 .113v.113m0 .114v.078m0 0l.052.042m.089.071l.088.071m.086.072l.088.072m.089.071l.088.071m.089.072l.088.071m.088.071l.088.072m.087.072l.087.071m.089.071l.088.072m.088.071l.088.072m.088.071l.088.072m.09.071l.087.071m.087.072l.088.071m.089.072l.088.071m.088.072l.088.071m.088.071l.088.073m.087.07l.088.072m.088.071l.088.072m.088.071l.088.071m.088.073l.089.071m.089.071l.087.071m.088.072l.088.072m.087.071l.088.072m.089.071l.052.042M262.005 49.701v-.077m0-.114v-.113m0-.114v-.113m0-.114v-.078m0 0l.052-.042m.089-.071l.088-.071m.086-.072l.088-.071m.089-.071l.088-.071m.089-.073l.088-.071m.088-.072l.088-.072m.087-.07l.087-.071m.089-.071l.088-.073m.088-.071l.088-.071m.088-.072l.088-.071m.09-.072l.087-.071m.087-.072l.088-.071m.089-.071l.088-.072m.088-.072l.088-.071m.088-.071l.088-.072m.087-.071l.088-.071m.088-.072l.088-.072m.088-.071l.088-.071m.088-.072l.089-.071m.089-.072l.087-.071m.088-.072l.088-.071m.087-.071l.088-.072m.089-.072l.052-.042M261.528 49.701v-9.634m0 0h.478m0 0v.723m0 0h-.237m0 0v8.188m0 0h.237m0 0v.723m0 0h-.478"/><g><path class="st1" d="M346.798 98.162v-3.028m0 .001h.858m0 0h17.176m0 0h.859m0 0v3.028M365.691 91.708v3.427m0-.001h-.858m0 0v-3.225m0 0h.057m0 0l.293.196m0 0l.343-.086m0 0l.165-.312M364.89 89.348l.293.196m0 0l.343-.087m0 0l.165-.311m0 0v2.561m0 0l-.165.313m0 0l-.343.086m0 0l-.293-.196m0 0h-17.291m0 0l-.294.196m0 0l-.343-.086m0 0l-.164-.313m0 0v-2.561m0 0l.164.311m0 0l.343.087m0 0l.294-.196m0 0h17.291M346.798 91.708l.164.312m0-.001l.343.086m0 0l.294-.196m0 0h.057m0 0v3.225m0 0h-.858m0 0v-3.427M349.466 88.716l-1.003.227h15.564l-1.003-.227zM364.027 88.943h-15.565m0 0l1.004-.227m0 0h13.557m0 0l1.004.227M364.89 88.943l.293-.196m0 0l.343.086m0 0l.165.313m0 0l-.165.312m0 0l-.343.087m0 0l-.293-.197m0 0h-17.291m0 0l-.294.197m0 0l-.343-.087m0 0l-.164-.312m0 0l.164-.313m0 0l.343-.086m0 0l.294.196m0 0h17.291M324.881 98.162v-3.028m0 .001h.858m0 0h17.176m0 0h.86m0 0v3.028M343.775 91.708v3.427m0-.001h-.859m0 0v-3.225m0 0h.057m0 0l.294.196m0 0l.343-.086m0 0l.165-.312M342.973 89.348l.294.196m0 0l.343-.087m0 0l.165-.311m0 0v2.561m0 0l-.165.313m0 0l-.343.086m0 0l-.294-.196m0 0h-17.29m0 0l-.294.196m0 0l-.343-.086m0 0l-.165-.313m0 0v-2.561m0 0l.165.311m0 0l.343.087m0 0l.294-.196m0 0h17.29M324.881 91.708l.165.312m0-.001l.343.086m0 0l.294-.196m.001 0h.056m-.001 0v3.225m0 0h-.858m0 0v-3.427M327.55 88.716l-1.005.227h15.566l-1.005-.227zM342.111 88.943h-15.565m0 0l1.004-.227m0 0h13.556m0 0l1.005.227M342.973 88.943l.294-.196m0 0l.343.086m0 0l.165.313m0 0l-.165.312m0 0l-.343.087m0 0l-.294-.197m0 0h-17.29m0 0l-.294.197m0 0l-.343-.087m0 0l-.165-.312m0 0l.165-.313m0 0l.343-.086m0 0l.294.196m0 0h17.29M346.798 132.17v3.028m0 0h.858m0 0h17.176m0 0h.859m0 0v-3.028M365.691 138.626v-3.427m0-.001h-.858m0 0v3.225m0 0h.057m0 0l.293-.196m0 0l.343.086m0 0l.165.312M364.89 140.985l.293-.196m0 0l.343.087m0 0l.165.311m0 0v-2.561m0 0l-.165-.313m0 0l-.343-.086m0 0l-.293.196m0 0h-17.291m0 0l-.294-.196m0 0l-.343.086m0 0l-.164.313m0 0v2.561m0 0l.164-.311m0 0l.343-.087m0 0l.294.196m0 0h17.291M346.798 138.626l.164-.312m0-.001l.343-.086m0 0l.294.196m0 0h.057m0 0v-3.225m0 0h-.858m0 0v3.427M348.462 141.391l1.004.226h13.557l1.004-.226zM364.027 141.39h-15.565m0 0l1.004.227m0 0h13.557m0 0l1.004-.227M364.89 141.39l.293.196m0 0l.343-.086m0 0l.165-.313m0 0l-.165-.312m0 0l-.343-.087m0 0l-.293.197m0 0h-17.291m0 0l-.294-.197m0 0l-.343.087m0 0l-.164.312m0 0l.164.313m0 0l.343.086m0 0l.294-.196m0 0h17.291M324.881 132.17v3.028m0 0h.858m0 0h17.176m0 0h.86m0 0v-3.028M343.775 138.626v-3.427m0-.001h-.859m0 0v3.225m0 0h.057m0 0l.294-.196m0 0l.343.086m0 0l.165.312M342.973 140.985l.294-.196m0 0l.343.087m0 0l.165.311m0 0v-2.561m0 0l-.165-.313m0 0l-.343-.086m0 0l-.294.196m0 0h-17.29m0 0l-.294-.196m0 0l-.343.086m0 0l-.165.313m0 0v2.561m0 0l.165-.311m0 0l.343-.087m0 0l.294.196m0 0h17.29M324.881 138.626l.165-.312m0-.001l.343-.086m0 0l.294.196m.001 0h.056m-.001 0v-3.225m0 0h-.858m0 0v3.427M326.544 141.391l1.005.226h13.556l1.006-.226zM342.111 141.39h-15.565m0 0l1.004.227m0 0h13.556m0 0l1.005-.227M342.973 141.39l.294.196m0 0l.343-.086m0 0l.165-.313m0 0l-.165-.312m0 0l-.343-.087m0 0l-.294.197m0 0h-17.29m0 0l-.294-.197m0 0l-.343.087m0 0l-.165.312m0 0l.165.313m0 0l.343.086m0 0l.294-.196m0 0h17.29M317.337 132.17V98.162m0 0h56.666m0 0v34.008m0 0h-56.666"/></g><g><path class="st1" d="M332.439 290.684v4.156M333.195 295.596h40.053M374.003 294.84v-4.156M373.248 289.928h-40.054M374.003 290.684V257.81M374.003 257.81h-2.645M364.23 257.81h-2.268M332.439 258.944v29.852M333.573 289.928h28.39M363.096 288.795v-29.852M361.962 257.81h-28.389M372.492 258.944v29.852M371.359 289.928h-7.129M363.096 288.795v-29.852M364.23 257.81h7.129M367.202 288.795v-29.852M333.195 295.596a.755.755 0 01-.756-.756M374.003 294.84a.755.755 0 01-.756.756M373.248 289.928c.418 0 .756.339.756.756M332.439 290.684c0-.417.338-.756.756-.756M333.573 289.928a1.133 1.133 0 01-1.134-1.133M363.096 288.795c0 .626-.508 1.133-1.134 1.133M361.962 257.81c.626 0 1.134.508 1.134 1.134M332.439 258.944c0-.626.507-1.134 1.134-1.134M372.492 288.795c0 .626-.507 1.133-1.133 1.133M364.23 289.928a1.134 1.134 0 01-1.134-1.133M363.096 258.944c0-.626.508-1.134 1.134-1.134M371.359 257.81c.626 0 1.133.508 1.133 1.134M368.336 289.928a1.134 1.134 0 01-1.134-1.133M367.202 258.944c0-.626.508-1.134 1.134-1.134M374.003 257.81v-37.786M374.003 257.81h-2.645M374.003 220.024h-2.645M364.23 257.81h-2.268M364.23 220.024h-2.268M332.439 221.158v35.519M333.573 257.81h28.39M363.096 256.676v-35.519M361.962 220.024h-28.389M372.492 221.158v35.519M371.359 257.81h-7.129M363.096 256.676v-35.519M364.23 220.024h7.129M367.202 256.676v-35.519M333.573 257.81a1.133 1.133 0 01-1.134-1.134M363.096 256.676c0 .627-.508 1.134-1.134 1.134M361.962 220.024c.626 0 1.134.508 1.134 1.134M332.439 221.158c0-.626.507-1.134 1.134-1.134M372.492 256.676c0 .627-.507 1.134-1.133 1.134M364.23 257.81a1.134 1.134 0 01-1.134-1.134M363.096 221.158c0-.626.508-1.134 1.134-1.134M371.359 220.024c.626 0 1.133.508 1.133 1.134M368.336 257.81a1.134 1.134 0 01-1.134-1.134M367.202 221.158c0-.626.508-1.134 1.134-1.134M332.439 187.15v-4.156M333.195 182.238h40.053M374.003 182.994v4.156M373.248 187.906h-40.054M374.003 187.15v32.874M374.003 220.024h-2.645M364.23 220.024h-2.268M332.439 218.89v-29.851M333.573 187.906h28.39M363.096 189.04v29.851M361.962 220.024h-28.389M372.492 218.89v-29.851M371.359 187.906h-7.129M363.096 189.04v29.851M364.23 220.024h7.129M367.202 189.04v29.851M332.439 182.994c0-.417.338-.756.756-.756M373.248 182.238c.418 0 .756.339.756.756M374.003 187.15a.756.756 0 01-.756.756M333.195 187.906a.756.756 0 01-.756-.756M332.439 189.04c0-.626.507-1.134 1.134-1.134M361.962 187.906c.626 0 1.134.508 1.134 1.134M363.096 218.89c0 .626-.508 1.134-1.134 1.134M333.573 220.024a1.134 1.134 0 01-1.134-1.134M371.359 187.906c.626 0 1.133.508 1.133 1.134M363.096 189.04c0-.626.508-1.134 1.134-1.134M364.23 220.024a1.134 1.134 0 01-1.134-1.134M372.492 218.89c0 .626-.507 1.134-1.133 1.134M367.202 189.04c0-.626.508-1.134 1.134-1.134M368.336 220.024a1.134 1.134 0 01-1.134-1.134"/><g><path class="st1" d="M256.677 199.241h15.114m0 0v92.576m0-.001h-15.114m0 0V199.24M261.558 268.766h-1.02m0 0v-44.369m0 0h1.02m0 0v44.369M260.539 259.305h-.832m0 0l-.567-.152m0 0l-.415-.415m0 0l-.152-.567m0 0v-22.699m0 0l.152-.567m0 0l.415-.415m0 0l.567-.152m0 0h.832m0 0v24.967M261.856 268.766h-.298m0 0v-44.369m0 0h.298m0 0v44.369"/></g><g><path class="st1" d="M245.719 208.838h-1.89m0 0v73.382m0 0h1.89m0 0v-73.382M207.933 208.838v36.691m0 0h26.45m0 0v-36.691m0 0h-26.45M207.933 245.53v36.69m0 0h26.45m0 0v-36.69m0 0h-26.45M207.933 282.22v9.597m0 0h37.786m0 0v-9.597m0 0h-1.889m-9.446 0h-26.451M207.933 199.241v9.598m0 0h26.451m9.446 0h1.889m0 0v-9.598m0 0h-37.786M243.83 245.53h-9.446m0 0v41.488m0 0h9.446m0 0V245.53M243.83 245.53h-9.446m0 0v-41.49m0 0h9.446m0 0v41.49"/><g><path class="st1" d="M130.471 308.821v-94.088M130.471 214.733h22.672M153.143 214.733h-22.672m0 0v94.088m0 0h22.672m0 0v-94.088M141.429 308.821h.756m0 0v-94.088m0 0h-.756m0 0v94.088M151.15 221.32h-18.626m0 0v.756m0 0h18.626m0 0v-.756M151.15 223.325h-18.626m0 0v.756m0 0h18.626m0 0v-.756M151.15 225.33h-18.626m0 0v.756m0 0h18.626m0 0v-.756M151.15 227.335h-18.626m0 0v.756m0 0h18.626m0 0v-.756M151.015 231.579l-18.491-2.241m0 .001l-.091.75m0-.001l18.49 2.241m0 0l.092-.75"/><g><path class="st1" d="M127.448 211.711h3.023M150.12 211.711h-19.648M150.12 145.207v66.504M127.448 211.711h22.672m0 0v-66.504m0-.001h-22.672m0 0v66.504M139.161 145.207h-.756m.001 0v66.504m0 0h.756m-.001 0v-66.504M129.441 205.123h18.626m0 0v-.756m0 0h-18.626m0 0v.756M129.441 203.119h18.626m0 0v-.755m0 0h-18.626m0 0v.755M129.441 201.115h18.626m0 0v-.756m0 0h-18.626m0 0v.756M129.441 199.11h18.626m0 0v-.756m0 0h-18.626m0 0v.756M129.576 194.864l18.491 2.242m0 0l.091-.751m0 0l-18.49-2.241m0 0l-.092.75"/></g><g><path class="st1" d="M182.661 157.719h1.068m0 0v13.707m0 0h-10.183m0-13.707h9.115M183.729 163.945h1.532m0 0v1.257m0 0h-1.532m0 0v-1.257M176.894 171.426l.504 1.428m0 0l.562 1.592m0 0l-1.402.418m0 0l-.71-2.01m0 0l-.504-1.428m0 0h1.55M175.344 157.719l.504-1.428m0 0l.71-2.01m0 0l1.402.418m0 0l-.562 1.592m0 0l-.504 1.428m0 0h-1.55M183.729 157.719v13.707M179.646 171.426v-13.707M173.548 190.55h-20.404m-.001 0v-45.344m0 0h20.404m.001 0v45.344"/></g></g></g><g><path class="st1" d="M28.259 308.821H11.066M24.292 298.43a3.78 3.78 0 11-7.558-.002 3.78 3.78 0 017.558.002z"/><path class="st1" d="M21.646 298.43a1.134 1.134 0 11-2.267.001 1.134 1.134 0 012.267-.001zM24.292 209.632a3.78 3.78 0 11-7.558-.002 3.78 3.78 0 017.558.002z"/><path class="st1" d="M21.646 209.632a1.134 1.134 0 11-2.267.001 1.134 1.134 0 012.267-.001zM84.75 220.024v68.015m0 0H14.846m0 0v-68.015m0 0H84.75M86.639 221.913v64.237m0 0l-.145.723m0 0l-.409.613m0 0l-.613.409m0 0l-.723.144m0 0v-68.015m0-.001l.723.144m0 0l.613.409m0 .001l.409.613m0 0l.145.723M11.066 220.024v68.015m0 0h3.779m0 0v-68.015m0 0h-3.779M11.066 288.039v-68.015m0-.001h1.89m0 0v68.015m0 .001h-1.89M11.066 289.928v17.004m0 0H29.96m0 0v-17.004m0 0H11.066M11.066 218.134V201.13m0 0H29.96m0 0v17.004m0 0H11.066M16.734 260.077v25.695m0 0l.111.267m0 0l.267.111m0 0h12.47m0 0l.267-.111m0 0l.111-.267m0 0v-25.695m0 0l-.111-.267m0 0l-.267-.111m0 0h-12.47m0 0l-.267.111m0 0l-.111.267M16.734 247.985v-25.694m0 0l.111-.267m0 0l.267-.111m0 0h12.47m0 0l.267.111m0 0l.111.267m0 0v25.694m0 0l-.111.268m0 0l-.267.11m0 0h-12.47m0 0l-.267-.11m0 0l-.111-.268M28.936 220.024v1.889M28.936 248.363v11.336M28.936 286.15v1.889M33.945 220.024v68.015m0 0h18.687m0 0l-14.908-68.015m0 0h-3.779M21.374 302.11l-.86-3.68m0 0l-3.431-1.584m0 0l3.431 1.584m0 0l3.545-1.306M21.374 205.953l-.86 3.68m0 0l-3.431 1.584m0 0l3.431-1.584m0 0l3.545 1.305"/></g><g><path class="st1" d="M79.081 111.766v34.007M79.081 145.773H43.752M43.751 145.773v-34.007M73.414 118.379a.944.944 0 11-1.889 0 .944.944 0 011.889 0zM64.42 124.749l1.396.372m0 0l1.209.792m0 0l.899 1.133m0 .001l.495 1.358m.001-.001l.044 1.445m0 0l-.414 1.384m-.001.001l-.828 1.185m0 0l-1.159.863m.001-.001l-1.372.455m0 .001h-1.446m-.001 0l-1.372-.455m0-.001l-1.159-.863m.001.001l-.829-1.185m-.001 0l-.413-1.384m0-.001l.043-1.445m0 0l.496-1.358m.001.001l.897-1.133m0-.001l1.209-.792m-.001 0l1.397-.372m0 0v-5.538m0 .001l-.455.108m0 0l-.49.036m.001 0l-.488-.036m-.001 0l-.456-.108m0 0l-.392-.173m.001-.001l-.299-.224m-.001 0l-.189-.261m0 0l-.065-.281m.001 0v-.402m0 0l.019-.12m0 .001l.065-.278m0 0l.054-.104m0-.001l.181-.251m0 0l.078-.069m-.001 0l.275-.205m0 0l.356-.157m0 .001l.195-.052m0 0l.25-.06m0 0l.02-.687m.001-.001l.009-.797m-.001.001h-1.729m0 0v-.434m0 0h-2.871m.001 0l-.16-.059m-.001-.001l-.083-.148m0 0l.033-.167m0 0l.134-.105m.001 0l.485-.157m0 .001l.726-.316m0-.001l1.008-.573m0 .001l.728-.259m-.001-.001v-.124m0 .001h-.604m0 0v-.982m0-.001h2.569m0 0v.877m0 0l.024.01m.001 0l.039.028m-.001 0l.033.034m.001 0l.025.04m0 0l.278.673m0 0h.697m-.001 0v-1.361m0 0h-1.058m.001 0v-.301m0 0h3.024m-.001 0v.301m0 0H64.42m0 0v1.361m0 0h1.437m.001 0v.151m0 0h.415m0 0v-.302m0 0h-.153m0 0v-.529m0 .001h-.604m.001 0v-.982m0-.001h2.569m-.001 0v.982m0 .001h-.604m.001 0v.529m0-.001h-.152m0 0v.302m0 0h.151m.001 0v1.511m0 .001h-2.57m-.001 0v2.154m0-.001h-.021m0 0h-.06m-.001 0h-.094m0 0h-.123m0 0h-.149m.001 0h-.044m0 0v7.505M62.078 113.428h.21m0 0l-.141-.341m0 0l-.325-.053m0 0l-.008.002m0 0v.242m0 0h-.152m0 0v.301m0 0h.416m0 0v-.151M60.604 113.58v-.24m0 0l-.677.239m0 0l-.987.563m0 0l-.053.024m0 0h1.566m0 0v-.586m0 0h.151M66.461 112.749v.528M67.141 112.749v.528M60.804 112.749h-.352M61.662 113.278h-.189M61.473 113.278h-.681M60.793 113.278h-.015M61.473 113.101v.177M60.793 113.272v.006M60.604 113.58h1.058M62.957 115.09h.557M60.453 114.165v.492M63.023 115.658h.49M57.658 114.644l-.076.013M61.806 112.54l.048.003M61.636 112.573l.17-.032M62.351 112.624l.047.01M62.398 112.634l.02.009M60.453 112.872l.453-.159M60.906 112.712l.73-.14M61.762 113.045l.06-.011M57.658 114.644l.512-.167M58.169 114.477l.719-.312M60.864 112.729h.001M61.854 112.543l.497.081M63.511 117.146l.002-.002M63.513 116.616l-.002-.002M62.078 113.976v-.128M62.078 113.731v-.104M62.078 113.848v-.117M62.288 113.428h.523M61.04 113.185l.723-.14M60.604 113.339l.436-.154M62.758 114.062h.142a.141.141 0 10-.282 0 .14.14 0 10.282 0h-.142zM62.667 114.017l.091.045M62.569 114.002l.098.015M62.471 114.017l.098-.015M62.38 114.062l.091-.045M62.224 116.558l.345-.026M62.569 116.532l.345.026M62.153 116.575l.071-.017M63.235 116.634l.195.052M62.914 116.558l.321.076M62.2 114.229l-.009.062M63.43 116.686l.083.036M62.985 116.575l-.02-.687M62.947 114.29l-.009-.061M62.938 114.229l-.026-.059M62.912 114.17l-.042-.049M62.87 114.122l-.055-.038M62.815 114.083l-.057-.021M62.758 114.062l-.008-.003M62.75 114.059l-.068-.008M62.682 114.051h-.227M62.456 114.051l-.068.008M62.387 114.059l-.007.003M62.38 114.062l-.057.021M62.324 114.083l-.055.038M62.269 114.122l-.042.048M62.227 114.17l-.027.059M62.965 115.887l-.019-1.597M62.181 115.09l.01-.8M62.078 114.789h.107M62.953 114.789h.561M64.42 124.749v5.343M63.513 124.749v5.343M64.42 130.092h-.907M67.481 112.749h-1.36M67.33 113.278h-1.059M67.33 113.58h-1.059M65.857 113.58v1.209M62.078 114.789v-1.209M64.42 112.068h-.907M64.42 113.428v3.816M63.513 119.211v-5.783M65.857 114.789H64.42M64.912 115.09h-.491M64.912 115.658h-.491M63.023 115.09v1.494M64.42 127.426a1.89 1.89 0 01-.907 3.669 1.889 1.889 0 010-3.669M65.857 114.116a.34.34 0 110 .59"/><path class="st2" d="M43.563 182.993h35.52m-35.52-11.336h35.52m-68.017-11.336h68.016m-68.016-11.336h68.016m-68.016-11.336h10.57m12.868 0h9.248m-32.686-11.336h11.318m11.372 0h9.996m23.238 58.38v-38.92m-22.672 38.92v-38.92m-22.672 22.294v-30.34m0-4.417v-10.208"/><path class="st1" d="M21.669 137.905l.469 1.645m-.001 0l.718 1.551m0 0l.967 1.23m0 0l1.249.943m.001 0l1.448.594m0 0l1.55.205m-.001 0l1.552-.205m.001 0l1.447-.594m0 0l1.248-.943m-.001 0l.968-1.23m0 0l.719-1.551m.001 0l.469-1.645m-.001 0l.207-1.698m0 0l-.059-1.709m0 0l-1.223-11.585m0 0H22.743m0 0l-1.223 11.585m0 0l-.06 1.709m.001 0l.208 1.698M32.187 128.634H28.07M28.07 128.634h-4.116M31.134 142.901c-.89.57-1.962.881-3.064.887M34.381 136.071c.165 2.592-1.03 5.107-3.247 6.83M32.187 128.634c1.505 2.253 2.266 4.827 2.194 7.437M21.758 136.071c-.07-2.609.689-5.184 2.195-7.437M25.006 142.901c-2.217-1.723-3.413-4.238-3.248-6.83M28.07 143.788a5.74 5.74 0 01-3.063-.887M23.423 122.913h9.295v.188h-9.295zM32.718 122.912h-9.296m0 0v.189m0 .001h9.296m0 0v-.189M18.624 122.912h18.894M18.624 118.379h18.894M18.624 122.912v-4.533M37.517 122.912v-4.533M42.996 184.693H11.634m0 0l-.402-.166m0 0l-.166-.4m0 0v-15.493m0 0l.166-.401m0 0l.402-.166m0 0h31.362m0 0l.4.166m0 0l.166.401m0 0v15.493m0 0l-.166.4m0 0l-.4.166M41.862 180.537H27.767m-.907 0H12.767M12.2 179.97v-10.202M12.767 169.201h29.095M42.429 169.768v10.202M12.767 180.537a.566.566 0 01-.567-.566M12.2 169.768c0-.313.254-.567.567-.567M41.862 169.201c.313 0 .567.254.567.567M42.429 179.97a.566.566 0 01-.567.566M28.07 177.136a.757.757 0 01-.302.605v-1.21a.757.757 0 01.302.605zm-1.21.604a.756.756 0 010-1.208v1.208zM26.861 184.165h.907m0 0v-7.748m0-.001l-.256-.302m0 .001h-.395m0 0l-.256.302m0-.001v7.748M26.559 184.163h1.51v.265h-1.51zM28.07 184.165h-1.511m0 0v.264m0-.001h1.511m0 0v-.264"/><path class="st1" d="M26.181 184.428h2.266v.265h-2.266zM28.448 184.428h-2.267m0 0v.265m0 0h2.267m0 0v-.265M30.584 182.804v1.624m0 0h-.096m-.001 0v.133m0 0h-.282m.001 0v.132m0 0h1.889m0 0v-.132m0 0h-.283m0 0v-.133m0 0h-.095m0 0v-1.624m0 0h-.321m0 0v-.416m0 0h1.077m0 0v-.491m0 0h-2.645m0 0v.491m0 0h1.076m0 0v.416m0 0h-.32M24.047 182.804v1.624m0 0h.094m-.001 0v.133m0 0h.283m.001 0v.132m0 0h-1.889m0 0v-.132m0 0h.283m-.001 0v-.133m0 0h.095m0 0v-1.624m0 0h.322m.001 0v-.416m0 0h-1.078m-.001 0v-.491m0 0h2.646m.001 0v.491m0 0h-1.078m0 0v.416m0 0h.322M31.395 182.388l-.071-.071M30.904 182.388l.072-.071M31.395 182.804h-.491M31.716 184.428h-1.133M30.488 184.561h1.323M23.234 182.388l.071-.071M23.724 182.388l-.071-.071M23.234 182.804h.49M22.913 184.428h1.134M24.14 184.561h-1.322M31.395 182.143a.244.244 0 01-.245.245.245.245 0 110-.491c.136 0 .245.11.245.246zM23.724 182.143a.244.244 0 01-.245.245.244.244 0 01-.245-.245.245.245 0 11.49 0zM43.751 111.766h35.33"/></g><g><path class="st1" d="M139.351 44.317l.755-.756m0 0H82.104m0 0v.756m0 0h57.247M88.691 34.596v18.626m0 0h.756m0 0V34.596m0 0h-.756M90.696 34.596v18.626m0 0h.756m0 0V34.596m0 0h-.756M92.701 34.596v18.626m0 0h.756m0 0V34.596m0 0h-.756M94.705 34.596v18.626m0 0h.756m0 0V34.596m0 0h-.756M98.951 34.732l-2.241 18.49m0 0l.751.091m0 0l2.241-18.49m0 0l-.751-.091M151.064 32.604h-68.96m0 0v22.671m0 0h46.289m0 0v46.855m0 0h22.671m0 0V32.604M139.351 102.13h.755m0 0V43.561m0 0l-.755.756m0 0v57.813M149.072 95.543h-18.626m0 0v-.756m0 0h18.626m0 0v.756M149.072 93.538h-18.626m0 0v-.755m0 .001h18.626m0 0v.755M149.072 91.535h-18.626m0 0v-.756m0 0h18.626m0 0v.756M149.072 89.53h-18.626m0 0v-.756m0 0h18.626m0 0v.756M148.936 85.284l-18.49 2.241m0 0l-.091-.75m0 0l18.49-2.241m0 0l.091.75"/></g></g><g><path class="st2" d="M220.404 99.485l5.288-5.288m-12.235 5.288l12.235-12.235m-19.183 12.235l19.183-19.183m-26.13 19.183l26.13-26.13m-33.076 26.13l33.076-33.076m-40.023 33.076l40.023-40.023m-46.97 40.023l1.512-1.512m4.46-4.46l40.998-40.998m25.769-25.769l.188-.188m-79.874 72.927l1.512-1.512m11.407-11.407l40.998-40.998m18.822-18.822l.189-.188m-79.875 72.927l1.512-1.512m18.354-18.354l40.998-40.998m11.874-11.875l.189-.188m-55.691 48.744l43.628-43.628m4.927-4.928l.189-.188m-53.671 46.725l25.847-25.847m8.32-8.321l12.557-12.557m-46.724 39.778l22.123-22.123m11.444-11.444l6.211-6.211m-39.778 32.831l21.027-21.028m-21.027 14.081l21.829-21.829m-21.829 14.882l18.937-18.937m-18.937 11.99l11.99-11.99m-11.99 5.043l5.043-5.043m64.422.188l-.188-.188m-6.76.188l-.188-.188m-6.759.188l-.188-.188m-6.759.188l-.188-.188m.12 7.066l-7.066-7.066m7.066 14.013l-14.014-14.014m14.014 20.961l-15.016-15.016m15.016 21.963l-14.389-14.389M199.24 28.013l-1.455-1.455m27.907 34.854l-16.158-16.158m-10.957-10.956l-7.74-7.74m34.855 41.801l-20.68-20.68m-6.771-6.772l-14.35-14.349M225.692 75.305l-48.748-48.747M225.692 82.253l-48.555-48.556M225.692 89.199l-48.555-48.554M225.692 96.146l-48.555-48.555m44.947 51.894l-44.947-44.947m38 44.947l-38-38m31.053 38l-23.496-23.496m-.687-.687l-6.87-6.87m24.106 31.053l-16.549-16.549m9.602 16.549l-9.602-9.602m2.655 9.602l-2.655-2.655m-4.292 2.655l-1.512-1.512m-5.434 1.512l-1.512-1.512m-5.436 1.512l-1.512-1.512"/><path class="st1" d="M198.319 41.549l.469 1.645m0 0l.718 1.551m0 0l.968 1.23m0 0l1.248.943m0 0l1.448.594m0 0l1.551.206m0 0l1.551-.206m0 0l1.448-.594m0 0l1.248-.943m0 0l.967-1.23m0 0l.719-1.551m0 0l.469-1.645m0 0l.208-1.697m0 0l-.06-1.71m0 0l-1.223-11.584m0 0h-10.654m0 0l-1.222 11.584m0 0l-.06 1.71m0 0l.207 1.697M208.837 32.279h-4.116M204.721 32.279h-4.116M207.785 46.546c-.889.57-1.961.88-3.063.886M211.033 39.716c.165 2.592-1.031 5.106-3.248 6.83M208.837 32.279c1.506 2.253 2.266 4.828 2.195 7.437M198.41 39.716c-.07-2.609.689-5.185 2.195-7.437M201.658 46.546c-2.217-1.724-3.413-4.238-3.248-6.83M204.721 47.432a5.737 5.737 0 01-3.063-.886M200.073 26.557h9.296v.19h-9.296zM209.369 26.558h-9.295m0 0v.188m0 0h9.295m0 0v-.188M195.275 26.558h18.893M195.275 22.024h18.893M195.275 26.558v-4.534M214.168 26.558v-4.534"/><g><path class="st1" d="M252.143 26.747v72.738m0-.001h-26.45m0 0V26.747m0 0h26.45M227.808 35.233l.081-1.053m0 0l.238-1.02m0 0l.39-.958m0 0l.529-.865m0 0l.652-.748m0 0l.756-.606m0 0l.835-.446m0 0l.891-.274m0 0l.919-.092m0 0h11.638m0 0l.919.092m0 0l.89.274m0 0l.836.446m0 0l.755.606m0 0l.652.748m0 0l.529.865m0 0l.389.958m0 0l.24 1.02m0 0l.08 1.053m0 0v49.099m0 0l-.169 2.21m0 0l-.501 2.143m0 0l-.819 2.011m0 0l-1.111 1.817m0 0l-1.369 1.57m0 0l-1.586 1.272m0 0l-1.755.939m0 0l-1.87.574m0 0l-1.93.192m0 0l-1.928-.192m0 0l-1.871-.574m0 0l-1.755-.939m0 0l-1.586-1.272m0 0l-1.369-1.57m0 0l-1.112-1.817m0 0l-.818-2.011m0 0l-.501-2.143m0 0l-.169-2.21m0 0V35.233M239.863 35.815a.946.946 0 11-1.891-.001.946.946 0 011.891.001z"/></g><g><path class="st1" d="M184.694 75.302h-22.671m0 0v22.672m0 0h22.671m0 0V75.302M180.538 86.638a7.179 7.179 0 11-14.358 0 7.179 7.179 0 1114.358 0zM172.842 92.646l.449-1.233m0 0V90.1m0 0l-.449-1.232m0 0l.343-1.474m.001 0v-1.513m0 0l-.343-1.472m-.001 0l.45-1.235m0 0V81.86m0 0l-.45-1.235m0 0l2.987 2.232m0 0v7.558m0 0l-2.987 2.231M176.091 90.415v-7.558m0 0h-.262m0 0v7.558m0 0h.262M176.615 90.415v-7.558m0 0h-.262m0 0v7.558m0 0h.262M171.328 85.795l-.086.891m0-.001l.227.022m0 0l.045-.477m0 0l1.142 1.383m0 .001l.152-.126m0-.001l-.53-.642m0 0l.082-.067m0 0l.611.74m0 0l.146-.121m0 0l-.611-.74m0 0l.097-.081m0 0l.497.602m0 0l.13-.108m0 0l-.496-.601m0 0l.097-.08m0 .001l.343.415m0-.001l.139-.116m0 0l-1.174-1.422M162.023 97.974V75.302m0 0h22.671m0 0v22.672m0 0h-22.671"/><g><path class="st1" d="M177.137 56.786h-15.114m0 0v18.516m0 .001h15.114m0 0V56.786M162.023 56.22V27.124m0 0l.166-.401m0 0l.4-.165m0 0h13.982m0 0l.4.165m0 0l.166.401m0 0V56.22m0 0l-.166.4m0 0l-.4.166m0 0h-13.982m0 0l-.4-.166m0 0l-.166-.4M166.179 55.086V28.258M166.746 27.692h8.691M176.003 28.258v26.828M175.437 55.653h-8.691M166.179 28.258c0-.313.254-.566.566-.566M175.437 27.692c.312 0 .566.253.566.566M176.003 55.086a.567.567 0 01-.566.566M166.746 55.653a.567.567 0 01-.566-.566M169.923 41.672a.757.757 0 01-1.453.294l.028-.015.106-.279-.106-.281-.028-.015a.756.756 0 011.453.296zM164.29 42.617l1.585-.151m0-.001l.36-.123m0 .001l2-.251m-.001 0l.265-.14m.001 0l.105-.279m-.001 0l-.105-.28m.001 0l-.265-.14m-.001 0l-2-.25m.001 0l-.36-.124m0 0l-1.585-.152m0 0l-.555.181m-.001 0l-.343.473m0 0v.584m0 0l.343.471m0 0l.555.181M165.231 41.159h.562M165.792 42.186h-.561M165.231 42.186v-1.027M165.792 41.159a.513.513 0 110 1.027M166.235 41.003a.797.797 0 010 1.34M166.179 55.086V42.361m0-1.377V28.258"/></g></g></g></g><g id="walls_1_"><path class="st0" d="M82.007 187.733h-9.825v-1.512h.454v-1.511h6.349v-72.929h-35.33v11.338l-32.686-.001v-3.022h29.664v-8.315h-17.95V67.194h3.023v41.565h56.302V142.2h7.215v1.512h-.453v1.511h-6.762l-.001 42.51zm.001-155.113h68.96v30.751h10.958V26.763h90.121v72.739h-36.011v1.511h-.454v1.512h39.486l.001-91.443h-3.022V23.74h-68.015V11.082h137.636V.125L162.113.124V.09h-3.021v.034H82.008v3.022h50.444v18.516H82.008V32.62zm79.918-8.88V11.082h19.083V23.74h-19.083zm83.696 285.097v-94.504h10.958v94.504h-10.958zm0-133.597v-30.017h-16.173v-1.511h-.453V142.2h27.584v33.039h-10.958v.001zm-47.611-33.04v1.512h-.453v1.511h-44.512v69.526h-22.672v94.089h-3.023v-97.111l22.672-.001v-66.504h-29.362v-1.511h-.453V142.2c25.934 0 51.868.005 77.803 0zm-36.084-39.675v-3.023h25.996v1.511h.453v1.512h-26.449zm-116.95 85.208v-1.512h-.453v-1.511H10.969v3.023h34.008zM150.967 3.146l.001 18.516h-15.494V3.146h15.493zM248.266.123h-3.022V.09h3.022v.033z"/><path class="st3" d="M31.894 42.469c-2.136 5.729-2.928 9.551-3.24 15.658"/><path class="st4" d="M31.894 42.468l-.6 1.388 36.354 15.781h.453l.001-1.511z"/><path class="st3" d="M91.343 157.776c-1.737-4.656-2.347-7.968-2.573-12.553"/><path class="st4" d="M91.389 157.882l29.272-12.658v-1.512h-.453l-29.419 12.782z"/><path class="st3" d="M200.142 157.8c-1.666-4.461-2.338-7.741-2.585-12.576"/><path class="st4" d="M200.178 157.882l29.271-12.658v-1.512h-.453l-29.418 12.782z"/><g><path class="st3" d="M46.798 173.622c-1.787 3.695-2.282 7.129-2.31 11.158"/><path class="st4" d="M46.833 173.552l-.601 1.387 25.95 11.282h.454l.001-1.511z"/></g><g><path class="st3" d="M213.737 88.449c1.537 3.725 2.085 6.781 2.31 11.158"/><path class="st4" d="M213.725 88.344l-25.802 11.158v1.511h.453l25.95-11.282z"/></g><path d="M82.008 67.194V.09h-9.069v58.036h-4.838v1.511h-.453v7.557h14.36zM321.38.124c27.906 0 55.936-.034 83.889-.034v48.968h-23.805V11.153l-60.083-.071V.124h-.001zM150.997 102.466h10.872V63.372h-10.872v39.094h0zm94.711 111.868h10.872V175.24h-10.872v39.094h0zm73.408 94.504v23.806h-90.687v-23.806h90.687zM28.162 332.643H.011V58.126h28.641v1.511h.454v7.557H10.968v241.643h17.193v23.806h.001zm66.126-23.805h68.015v23.806H94.288v-23.806h0zm310.981-131.307h-23.805v-45.344h23.805v45.344z" fill-rule="evenodd" clip-rule="evenodd" stroke="#000" stroke-miterlimit="3"/><path class="st3" d="M94.374 332.564h68.015"/><g><path class="st3" d="M228.516 325.007v-16.249M228.516 332.564v-5.668M228.516 326.896v-1.889M162.389 325.007v-16.249M162.389 332.564v-5.668M162.389 326.896v-1.889M162.389 332.564h66.127M162.389 308.758h66.127M162.389 325.007h3.779M166.169 325.007v1.889M166.169 326.896h-3.78M200.176 326.896h-1.89M198.287 326.896v-1.889M198.287 325.007h1.89M166.169 325.952h32.118M166.169 325.007h32.118M198.287 326.896h-32.118M200.176 325.007h.944M201.121 325.007v.944M201.121 325.952h.944M202.065 325.952v.944M202.065 326.896h-1.889M228.516 326.896h-3.779M224.737 326.896v-.944M224.737 325.952h.945M225.682 325.952v-.944M225.682 325.007h2.834M224.737 326.896h-22.672M203.955 324.062h18.893M201.121 324.062h2.834M203.955 324.062v1.89M203.955 325.952h-2.834M201.121 325.952v-1.89M225.682 325.952h-2.834M222.848 325.952v-1.89M222.848 324.062h2.834M225.682 324.062v1.89M222.848 325.952h-18.894M203.955 324.062h18.893M203.955 325.007h18.893M162.389 326.896v-1.889M162.389 326.896v-1.889M162.389 332.564v-5.668M162.389 325.007v-16.249M228.516 326.896v-1.889M228.516 326.896v-1.889M228.516 332.564v-5.668M228.516 325.007v-16.249"/><g><path class="st3" d="M94.374 325.007v-16.249M94.374 332.564v-5.668M94.374 326.896v-1.889M28.249 325.007v-16.249M28.249 332.564v-5.668M28.249 326.896v-1.889M28.249 332.564h66.126M28.249 308.758h66.126M28.249 325.007h3.778M32.027 325.007v1.889M32.027 326.896h-3.778M59.422 326.896h-1.889M57.533 326.896v-1.889M57.533 325.007h1.89M32.027 325.952h25.506M32.027 325.007h25.506M57.533 326.896H32.027M59.422 325.007h.944M60.367 325.007v.944M60.367 325.952h.944M61.311 325.952v.944M61.311 326.896h-1.889M94.374 326.896h-3.778M90.595 326.896v-.944M90.595 325.952h.945M91.541 325.952v-.944M91.541 325.007h2.834M90.595 326.896H61.311M63.201 324.062h25.506M60.367 324.062h2.834M63.201 324.062v1.89M63.201 325.952h-2.834M60.367 325.952v-1.89M91.541 325.952h-2.834M88.707 325.952v-1.89M88.707 324.062h2.834M91.541 324.062v1.89M88.707 325.952H63.201M63.201 324.062h25.506M28.249 326.896v-1.889M28.249 326.896v-1.889M28.249 332.564v-5.668M28.249 325.007v-16.249M94.374 326.896v-1.889M94.374 326.896v-1.889M94.374 332.564v-5.668M94.374 325.007v-16.249M63.201 325.007h25.506"/></g><g><path class="st3" d="M319.203 325.007v-16.249M319.203 332.564v-5.668M319.203 326.896v-1.889M319.203 332.564h86.153M319.203 308.758h62.348M319.203 325.007h4.724M323.926 325.007v1.889M323.926 326.896h-4.724M397.798 326.896h-4.724M393.075 326.896v-1.889M393.075 325.007h4.724M399.688 326.896h-1.89M323.926 325.007h69.148M393.075 326.896h-69.148M319.203 326.896v-1.889M319.203 326.896v-1.889M319.203 332.564v-5.668M319.203 325.007v-16.249M397.798 177.452H381.55M405.356 177.452h-5.668M399.688 177.452h-1.89M405.356 177.452v155.112M381.55 177.452v131.307M397.798 177.452v4.723M397.798 182.174h1.89M399.688 182.174v-4.723M399.688 325.007v-4.724M399.688 320.284h-1.89M397.798 320.284v4.724M399.688 326.896v-1.889M397.798 182.174v138.109M399.688 320.284V182.175M399.688 177.452h-1.89M399.688 177.452h-1.89M405.356 177.452h-5.668M397.798 177.452H381.55"/><path class="st6" d="M397.798 261.937h1.89v5.133h-1.89zM397.798 218.58h1.89v5.133h-1.89z"/></g><g><path class="st3" d="M397.798 48.978H381.55M405.356 48.978h-5.668M399.688 48.978h-1.89M397.798 132.108H381.55M405.356 132.108h-5.668M399.688 132.108h-1.89M405.356 132.108v-83.13M381.55 132.108v-83.13M397.798 132.108v-3.778M397.798 128.33h1.89M399.688 128.33v3.778M399.688 77.318v1.889M399.688 79.207h-1.89M397.798 79.207v-1.889M398.743 128.33V79.207M397.798 128.33V79.207M399.688 79.207v49.123M397.798 77.318v-.944M397.798 76.374h.944M398.743 76.374v-.945M398.743 75.428h.945M399.688 75.428v1.89M399.688 48.978v3.778M399.688 52.756h-.945M398.743 52.756v-.943M398.743 51.812h-.944M397.798 51.812v-2.834M399.688 52.756v22.673M396.854 73.54V54.646M396.854 76.374v-2.835M396.854 73.54h1.889M398.743 73.54v2.834M398.743 76.374h-1.889M398.743 51.812v2.834M398.743 54.646h-1.889M396.854 54.646v-2.834M396.854 51.812h1.889M398.743 54.646V73.54M396.854 73.54V54.646M397.798 73.54V54.646M399.688 132.108h-1.89M399.688 132.108h-1.89M405.356 132.108h-5.668M397.798 132.108H381.55M399.688 48.978h-1.89M399.688 48.978h-1.89M405.356 48.978h-5.668M397.798 48.978H381.55"/></g></g><g><path class="st7" d="M82.958.119l-.95.84M90.388.119l-3.44 3.03M97.808.119l-3.44 3.03M105.228.119l-3.44 3.03M25.708 70.169l-3.02 2.66M25.708 76.709l-3.02 2.66M88.198 21.659l-6.19 5.45M112.648.119l-3.44 3.03M25.708 83.239l-3.02 2.66M120.068.119l-3.44 3.03M95.618 21.659l-12.44 10.96M25.708 89.789l-3.02 2.66M127.498.119l-3.44 3.03M103.038 21.659l-12.44 10.96M25.708 96.319l-3.02 2.66M134.918.119l-3.44 3.03M110.468 21.659l-12.45 10.96M25.708 102.859l-3.02 2.66M142.338.119l-3.44 3.03M135.478 6.159l-3.02 2.66M117.888 21.659l-12.44 10.96M26.438 108.759l-3.43 3.02M149.758.119l-3.44 3.03M135.478 12.699l-3.02 2.66M125.308 21.659l-12.44 10.96M13.558 120.099l-2.59 2.28M20.988 120.099l-3.43 3.02M135.478 19.239l-15.18 13.38M157.188.119l-6.22 5.48M33.858 108.759l-3.43 3.02M28.408 120.099l-3.43 3.02M140.148 21.659l-12.44 10.96M164.598.119l-13.63 12.01M41.278 108.759l-3.43 3.02M43.658 113.199l-3.02 2.66M35.828 120.099l-3.43 3.02M147.578 21.659l-12.45 10.96M172.028.119l-21.06 18.55M48.698 108.759l-3.43 3.02M56.118 108.759l-3.42 3.02M179.448.119l-12.44 10.96M161.928 15.549l-19.37 17.07M43.658 119.739l-3.84 3.38M63.548 108.759l-3.43 3.02M186.878.119l-12.45 10.96M161.928 22.099l-11.95 10.52M70.968 108.759l-3.43 3.02M194.298.119l-13.29 11.71M161.928 28.629l-10.96 9.66M167.488 23.739l-3.43 3.02M78.388 108.759l-3.42 3.02M201.718.119l-12.44 10.96M184.038 15.699l-3.03 2.66M161.928 35.169l-10.96 9.66M174.908 23.739l-3.43 3.02M82.008 112.109l-3.02 2.66M184.038 22.229l-5.15 4.53M209.138.119l-12.45 10.96M161.928 41.699l-10.96 9.66M82.008 118.649l-3.02 2.66M189.748 23.739l-3.43 3.02M216.558.119l-12.44 10.96M161.928 48.239l-10.96 9.66M82.008 125.189l-3.02 2.66M197.168 23.739l-3.43 3.02M223.978.119l-12.44 10.96M161.928 54.789l-9.74 8.58M14.438 184.709l-3.42 3.02M21.868 184.709l-3.43 3.02M204.588 23.739l-3.42 3.02M231.408.119l-12.44 10.96M161.928 61.319l-2.32 2.05M82.008 131.729l-3.02 2.66M29.288 184.709l-3.43 3.02M212.018 23.739l-3.43 3.02M238.828.119l-12.44 10.96M82.008 138.269l-3.02 2.66M219.438 23.739l-3.43 3.02M246.288.089l-.04.03-12.44 10.96M84.968 142.199l-5.98 5.26M36.708 184.709l-3.43 3.02M226.868 23.739l-3.43 3.02M253.678.119l-12.44 10.96M44.138 184.709l-3.43 3.02M82.008 151.349l-3.02 2.66M261.088.119l-12.44 10.96M234.278 23.739l-3.43 3.02M82.008 157.879l-3.02 2.66M255.068 11.969l-3.02 2.66M268.518.119l-12.45 10.96M241.698 23.739l-3.42 3.02M82.008 164.419l-3.02 2.66M255.068 18.499l-3.02 2.66M275.938.119l-12.44 10.96M249.128 23.739l-3.43 3.02M163.128 99.499l-1.2 1.05M82.008 170.959l-3.02 2.66M283.358.119l-12.44 10.96M170.548 99.499l-3.44 3.03M255.068 25.039l-3.02 2.66M122.068 142.199l-1.71 1.51M73.818 184.709l-1.18 1.04M82.008 177.489l-3.02 2.66M290.788.119l-12.44 10.96M177.968 99.499l-3.44 3.03M255.068 31.579l-3.02 2.67M82.008 184.039l-4.19 3.69M129.498 142.199l-3.43 3.02M298.208.119l-12.44 10.96M255.068 38.119l-3.02 2.66M185.398 99.499l-3.44 3.03M136.918 142.199l-3.42 3.02M305.628.119l-12.45 10.96M255.068 44.659l-3.02 2.66M144.338 142.199l-3.43 3.02M313.048.119l-12.44 10.96M255.068 51.189l-3.02 2.66M151.758 142.199l-3.43 3.02M159.188 142.199l-3.43 3.02M255.068 57.739l-3.02 2.66M320.468.119l-12.44 10.96M153.048 147.609l-3.02 2.66M166.608 142.199l-3.43 3.02M321.668 5.609l-6.21 5.47M255.068 64.269l-3.02 2.67M153.048 154.149l-3.02 2.66M174.028 142.199l-3.42 3.02M222.508 99.499l-3.44 3.03M255.068 70.809l-3.02 2.66M153.048 160.679l-3.02 2.67M181.458 142.199l-3.43 3.02M229.928 99.499l-3.44 3.03M255.068 77.349l-3.02 2.66M153.048 167.219l-3.02 2.66M188.878 142.199l-3.43 3.02M237.348 99.499l-3.43 3.03M255.068 83.889l-3.02 2.66M153.048 173.769l-3.02 2.66M255.068 90.429l-3.02 2.66M244.768 99.499l-3.44 3.03M196.298 142.199l-3.43 3.02M153.048 180.299l-3.02 2.66M255.068 96.969l-6.32 5.56M153.048 186.839l-3.02 2.66M132.208 211.729l-4.85 4.28M153.048 193.379l-3.02 2.66M153.048 199.909l-3.02 2.66M139.638 211.729l-3.43 3.02M130.378 219.879l-3.02 2.66M153.048 206.459l-3.02 2.66M147.058 211.729l-3.42 3.02M130.378 226.429l-3.02 2.66M233.408 142.199l-3.42 3.02M153.048 212.989l-1.99 1.76M130.378 232.959l-3.02 2.66M240.828 142.199l-3.43 3.02M130.378 239.499l-3.02 2.66M248.248 142.199l-3.43 3.02M130.378 246.039l-3.02 2.66M255.678 142.199l-10.05 8.85M130.378 252.579l-3.02 2.66M256.588 147.939l-10.96 9.65M130.378 259.119l-3.02 2.66M256.588 154.469l-10.96 9.66M130.378 265.659l-3.02 2.66M256.588 161.009l-10.96 9.66M130.378 272.189l-3.02 2.66M256.588 167.549l-8.73 7.69M130.378 278.729l-3.02 2.67M256.588 174.089l-1.31 1.15M130.378 285.269l-3.02 2.66M130.378 291.809l-3.02 2.66M130.378 298.349l-3.02 2.66M130.378 304.879l-3.02 2.66M248.018 214.329l-2.39 2.11M255.438 214.329l-9.81 8.64M256.588 219.859l-10.96 9.65M256.588 226.399l-10.96 9.65M256.588 232.939l-10.96 9.65M256.588 239.469l-10.96 9.66M256.588 246.009l-10.96 9.66M256.588 252.549l-10.96 9.65M256.588 259.089l-10.96 9.65M256.588 265.629l-10.96 9.65M256.588 272.159l-10.96 9.66M256.588 278.699l-10.96 9.66M256.588 285.249l-10.96 9.65M256.588 291.779l-10.96 9.66M256.588 298.319l-10.96 9.65M256.588 304.859l-4.52 3.98"/></g><path class="st6" d="M82.007 187.733h-9.825v-1.512h.454v-1.511h6.349v-72.929h-35.33v11.338l-32.686-.001v-3.022h29.664v-8.315h-17.95V67.194h3.023v41.565h56.302V142.2h7.215v1.512h-.453v1.511h-6.762l-.001 42.51zm.001-155.113h68.96v30.751h10.958V26.763h90.121v72.739h-36.011v1.511h-.454v1.512h39.486l.001-91.443h-3.022V23.74h-68.015V11.082h137.636V.125L162.113.124V.09h-3.021v.034H82.008v3.022h50.444v18.516H82.008V32.62zm79.918-8.88V11.082h19.083V23.74h-19.083zm83.696 285.097v-94.504h10.958v94.504h-10.958zm0-133.597v-30.017h-16.173v-1.511h-.453V142.2h27.584v33.039h-10.958v.001zm-47.611-33.04v1.512h-.453v1.511h-44.512v69.526h-22.672v94.089h-3.023v-97.111l22.672-.001v-66.504h-29.362v-1.511h-.453V142.2c25.934 0 51.868.005 77.803 0zm-36.084-39.675v-3.023h25.996v1.511h.453v1.512h-26.449zm-116.95 85.208v-1.512h-.453v-1.511H10.969v3.023h34.008zM150.967 3.146l.001 18.516h-15.494V3.146h15.493zM248.266.123h-3.022V.09h3.022v.033z"/></g><g id="sizes"><path d="M341.232 172.84l3.961-5.281c.229-.302.407-.616.535-.941s.191-.629.191-.91v-.016c0-.453-.133-.805-.398-1.055s-.644-.375-1.133-.375c-.464 0-.839.137-1.125.41s-.461.66-.523 1.16v.008h-1.648v-.008c.094-.651.285-1.207.574-1.668s.663-.813 1.121-1.055.987-.363 1.586-.363c.677 0 1.255.116 1.734.348s.844.569 1.094 1.012.375.977.375 1.602v.008c0 .401-.083.82-.25 1.258s-.398.859-.695 1.266l-3.289 4.469h4.297v1.516h-6.406v-1.385zM350.888 173.938c-.474-.269-.835-.659-1.082-1.172s-.371-1.132-.371-1.855v-.008c0-.422.05-.864.148-1.328a7.568 7.568 0 01.641-1.82l2.469-4.891h1.719l-2.898 5.664.008-.281c.13-.245.32-.435.57-.57s.542-.203.875-.203c.589 0 1.094.133 1.516.398s.742.652.961 1.16.328 1.118.328 1.832v.008c0 .729-.124 1.354-.371 1.875s-.609.917-1.086 1.188-1.048.406-1.715.406-1.238-.135-1.712-.403zm2.879-1.598c.273-.313.41-.758.41-1.336v-.008c0-.636-.144-1.126-.43-1.473s-.695-.52-1.227-.52c-.474 0-.841.175-1.102.523s-.391.841-.391 1.477v.008c0 .578.137 1.022.41 1.332s.66.465 1.16.465c.507.001.897-.155 1.17-.468zM357.724 172.629h1.594v1.594l-1.594 1.578v-3.172zM362.33 173.489c-.55-.567-.824-1.359-.824-2.375v-5.164c0-1.021.276-1.813.828-2.379s1.356-.848 2.414-.848c1.063 0 1.868.281 2.418.844s.824 1.356.824 2.383v5.164c0 1.021-.276 1.813-.828 2.379s-1.356.848-2.414.848c-1.063-.001-1.868-.285-2.418-.852zm3.664-1.106c.269-.294.402-.718.402-1.27v-5.164c0-.552-.133-.976-.398-1.27s-.683-.441-1.25-.441-.984.147-1.25.441-.398.718-.398 1.27v5.164c0 .552.134.976.402 1.27s.684.441 1.246.441.977-.147 1.246-.441zM222.456 165.912h-1.594v-9.625l-1.617.992v-1.648l1.617-1.078h1.594v11.359zM227.776 165.912h-1.594v-9.625l-1.617.992v-1.648l1.617-1.078h1.594v11.359zM230.198 164.319h1.594v1.594l-1.594 1.578v-3.172zM238.003 160.272l-.008.281c-.13.239-.327.415-.59.527s-.574.168-.934.168c-.542 0-1.019-.138-1.43-.414s-.73-.665-.957-1.168-.34-1.085-.34-1.746v-.008c0-.734.124-1.362.371-1.883s.609-.917 1.086-1.188 1.048-.406 1.715-.406 1.237.138 1.711.414.835.677 1.082 1.203.371 1.159.371 1.898v.008c0 .406-.052.84-.156 1.301a8.052 8.052 0 01-.539 1.578c-.031.07-.065.14-.102.207l-2.422 4.867h-1.719l2.861-5.639zm.074-.985c.273-.339.41-.815.41-1.43v-.008c0-.599-.137-1.063-.41-1.391s-.66-.492-1.16-.492c-.505 0-.895.164-1.168.492s-.41.794-.41 1.398v.008c0 .614.137 1.09.41 1.426s.663.504 1.168.504c.5.001.886-.168 1.16-.507z"/><g><path d="M102.83 303.22h-1.594v-9.625l-1.617.992v-1.648l1.617-1.078h1.594v11.359zM105.236 301.837l3.961-5.281c.229-.302.407-.616.535-.941s.191-.629.191-.91v-.016c0-.453-.133-.805-.398-1.055s-.644-.375-1.133-.375c-.464 0-.839.137-1.125.41s-.461.66-.523 1.16v.008h-1.648v-.008c.094-.651.285-1.207.574-1.668s.663-.813 1.121-1.055.987-.363 1.586-.363c.677 0 1.255.116 1.734.348s.844.569 1.094 1.012.375.977.375 1.602v.008c0 .401-.083.82-.25 1.258s-.398.859-.695 1.266l-3.289 4.469h4.297v1.516h-6.406v-1.385zM113.517 301.626h1.594v1.594l-1.594 1.578v-3.172zM117.127 301.837l3.961-5.281c.229-.302.407-.616.535-.941s.191-.629.191-.91v-.016c0-.453-.133-.805-.398-1.055s-.644-.375-1.133-.375c-.464 0-.839.137-1.125.41s-.461.66-.523 1.16v.008h-1.648v-.008c.094-.651.285-1.207.574-1.668s.663-.813 1.121-1.055.987-.363 1.586-.363c.677 0 1.255.116 1.734.348s.844.569 1.094 1.012.375.977.375 1.602v.008c0 .401-.083.82-.25 1.258s-.398.859-.695 1.266l-3.289 4.469h4.297v1.516h-6.406v-1.385z"/></g><g><path d="M178.695 37.707l3.813-8.227h1.641l-3.719 8.133H186v1.477h-7.305v-1.383zm4.898-3.554h1.555v6.688h-1.555v-6.688zM187.797 39.239h1.594v1.594l-1.594 1.578v-3.172zM193.222 40.614c-.445-.224-.808-.55-1.086-.977s-.465-.94-.559-1.539v-.008h1.594v.008c.058.417.224.741.5.973s.636.348 1.078.348c.511 0 .905-.171 1.184-.512s.418-.821.418-1.441v-.953c0-.614-.14-1.093-.418-1.434s-.673-.512-1.184-.512c-.276 0-.542.078-.797.234s-.479.375-.672.656h-1.453v-5.984h5.789v1.516h-4.195v2.555a2.275 2.275 0 011.414-.508c.656 0 1.218.136 1.684.406s.82.667 1.063 1.188.363 1.148.363 1.883v.953c0 .734-.125 1.362-.375 1.883s-.614.918-1.094 1.191-1.055.41-1.727.41c-.573 0-1.081-.113-1.527-.336z"/></g><g><path d="M91.43 63.914l-.008.281c-.13.239-.327.415-.59.527s-.574.168-.934.168c-.542 0-1.019-.138-1.43-.414s-.73-.665-.957-1.168-.34-1.085-.34-1.746v-.008c0-.734.124-1.362.371-1.883s.609-.917 1.086-1.188 1.048-.406 1.715-.406 1.237.138 1.711.414.835.677 1.082 1.203.371 1.159.371 1.898v.008c0 .406-.052.84-.156 1.301a8.052 8.052 0 01-.539 1.578c-.031.07-.065.14-.102.207l-2.422 4.867h-1.719l2.861-5.639zm.075-.984c.273-.339.41-.815.41-1.43v-.008c0-.599-.137-1.063-.41-1.391s-.66-.492-1.16-.492c-.505 0-.895.164-1.168.492s-.41.794-.41 1.398v.008c0 .614.137 1.09.41 1.426s.663.504 1.168.504c.499.001.886-.168 1.16-.507zM95.462 67.961h1.594v1.594l-1.594 1.578v-3.172zM105.11 59.617l-2.938 9.938h-1.695l2.938-9.844h-2.891v1.633H98.93v-3.148h6.18v1.421z"/></g></g></svg>