<svg version="1.1" id="_x31_90" xmlns="http://www.w3.org/2000/svg" x="0" y="0" viewBox="0 0 268.904 291.066" xml:space="preserve"><style>.st0,.st1{fill-rule:evenodd;clip-rule:evenodd;fill:#fff}.st1{fill:none;stroke:#999;stroke-miterlimit:3}.st1,.st3,.st4{stroke-linecap:round;stroke-linejoin:round}.st3{fill-rule:evenodd;clip-rule:evenodd;fill:#fff;stroke:#999;stroke-miterlimit:10}.st4{fill:none;stroke:#000;stroke-miterlimit:3}.st4,.st5,.st7{fill-rule:evenodd;clip-rule:evenodd}.st7{fill:none;stroke:#666;stroke-width:.6;stroke-miterlimit:22.9256}</style><g id="fon"><path id="fon_1_" class="st0" d="M.5 16.581h267.904V290.62H.5z"/></g><g id="mebel_6_"><path class="st1" d="M34.129 115.858v-3.778M11.458 115.858H34.13M34.129 115.858v-3.778M11.458 115.858H34.13M34.129 183.873v-22.672m0 0H11.458m0 0v22.672m0 0H34.13M34.129 161.201v-22.672M11.458 161.201v-22.672M34.129 161.201H11.458M34.129 138.529H11.458M32.051 116.235v21.916m0 .001H13.536m0 0v-21.916m0-.001h18.515M34.129 115.858v22.672M11.458 115.858v22.672M34.129 115.858H11.458M34.129 138.529H11.458M34.129 161.201v-22.672M11.458 161.201v-22.672M34.129 161.201H11.458M34.129 138.529H11.458M32.051 161.579v21.916m0 0H13.536m0 0v-21.916m0 0h18.515M20.771 172.537h-5.299M15.472 172.537v1.096M20.771 172.537v1.096M20.771 181.392h-5.299M15.472 180.296v1.096M20.771 180.296v1.096M20.645 166.291a2.74 2.74 0 11-5.479 0 2.74 2.74 0 015.479 0zM30.112 167.563a3.967 3.967 0 11-7.934 0 3.967 3.967 0 017.934 0z"/><path class="st1" d="M28.412 167.563a2.267 2.267 0 11-4.534 0 2.267 2.267 0 014.534 0zM20.735 176.964a2.646 2.646 0 11-5.291 0 2.646 2.646 0 015.291 0zM30.083 178.082a3.4 3.4 0 11-6.801-.001 3.4 3.4 0 016.801.001zM34.129 161.201v22.672M11.458 161.201v22.672M34.129 161.201H11.458M34.129 183.873H11.458M35.64 94.569v14.36M35.64 94.569c0-.417.338-.756.755-.756M36.396 109.684a.755.755 0 01-.755-.755M35.64 94.569c0-.417.338-.756.755-.756M36.396 109.684a.755.755 0 01-.755-.755M56.801 112.079H34.13M56.801 89.407v22.672M56.801 112.079H34.13M56.801 89.407v22.672M45.125 92.302h-8.729m0 0l-.868.173m0 0l-.735.491m0 0l-.492.736m0 0l-.172.868m0 0v14.359m0 0l.172.867m0 0l.492.735m0 0l.735.492m0 0l.868.173m0 0h18.137m0 0l.868-.173m0 0l.736-.492m0 0l.491-.735m0 0l.172-.867m0 0V94.57m0 0l-.172-.868m0 0l-.491-.736m0 0l-.736-.491m0 0l-.868-.173m0 0h-8.728M45.125 93.814h-8.729M36.396 109.684h18.138M55.289 108.929V94.57M54.534 93.814h-8.707M55.289 108.929a.755.755 0 01-.756.755M54.534 93.814c.417 0 .756.339.756.756M47.166 97.97a1.7 1.7 0 11-3.401 0 1.7 1.7 0 013.401 0zM45.805 97.841l-.1.24m0 0l-.241.099m0 0l-.24-.101m0 0l-.099-.24m0 0v-7.476m0 0l.099-.241m0 0l.241-.098m0 0l.24.098m0 0l.1.241m0 0v7.478M46.219 92.29h-.414m0 0v-1.927m0 0l-.1-.241m0 0l-.24-.099m0 0l-.241.099m0 0l-.099.241m0 0v1.927m0 0h-.415m0 0v-2.456m0 0h1.509m0 0v2.456M46.209 93.65h-.404m.001 0v-1.322m0 0h.404m-.001 0v1.322M44.721 93.65v-1.322m0 0h.404m0 0v1.322m0 0h-.404M56.801 112.079h15.115M56.801 89.407h15.115M56.801 112.079V89.407M56.801 112.079h22.672m0 0V89.407m0 0H56.801m0 0v22.672M68.137 96.965v7.557M65.465 98.071l5.344 5.345M64.358 100.743h7.557M65.465 103.415l5.344-5.344M45.125 93.814h-8.729M35.64 94.569v14.36M36.396 109.684h18.138M55.289 108.929V94.57M54.534 93.814h-8.635M55.289 108.929a.755.755 0 01-.756.755M54.534 93.814c.417 0 .756.339.756.756"/><path class="st1" d="M47.166 97.97a1.7 1.7 0 11-3.401 0 1.7 1.7 0 013.401 0zM45.805 97.841l-.1.24m0 0l-.241.099m0 0l-.24-.101m0 0l-.099-.24m0 0v-7.476m0 0l.099-.241m0 0l.241-.098m0 0l.24.098m0 0l.1.241m0 0v7.478M46.219 92.29h-.414m0 0v-1.927m0 0l-.1-.241m0 0l-.24-.099m0 0l-.241.099m0 0l-.099.241m0 0v1.927m0 0h-.415m0 0v-2.456m0 0h1.509m0 0v2.456M46.209 93.65h-.404v-1.322m.001 0h.404m-.001 0v1.322M44.721 93.65v-1.322m0 0h.404m0 0v1.322m0 0h-.404M34.129 138.529v-22.672M11.458 138.529v-22.672M34.129 138.529H11.458M34.129 115.858H11.458"/><g><path class="st1" d="M18.298 132.955l.103-.047m.103-.048l.103-.047m.103-.046l.103-.047m.103-.047l.103-.048m.103-.047l.103-.048m.104-.047l.103-.047m.102-.047l.103-.047m.103-.047l.103-.047m.103-.048l.104-.047m.103-.047l.103-.047m.103-.047l.103-.047m.104-.047l.103-.047m.102-.048l.103-.047m.103-.047l.104-.047m.103-.047l.103-.047m.103-.048l.103-.047m.104-.047l.103-.047M18.298 132.955v-.078m0-.113v-.114m0-.113v-.113m0-.114v-.078m0 0l.052-.042m.087-.071l.088-.071m.087-.072l.088-.071m.089-.072l.089-.071m.087-.072l.089-.071m.087-.071l.088-.072m.088-.071l.088-.072m.088-.071l.088-.072m.089-.071l.088-.071m.088-.072l.088-.072m.087-.071l.088-.071m.088-.072l.088-.071m.088-.071l.088-.072m.088-.072l.088-.071m.088-.071l.088-.072m.088-.071l.088-.071m.088-.072l.088-.072m.089-.071l.088-.071m.088-.072l.088-.072m.087-.071l.088-.071m.088-.072l.088-.071m.088-.071l.088-.072m.088-.072l.051-.042M29.028 130.351a3.411 3.411 0 11-6.822 0 3.411 3.411 0 016.822 0z"/><path class="st1" d="M28.506 130.351a2.89 2.89 0 11-5.78 0 2.89 2.89 0 015.78 0z"/><g><path class="st1" d="M29.028 124.042a2.58 2.58 0 11-5.16-.001 2.58 2.58 0 015.16.001z"/><path class="st1" d="M27.893 124.042a1.445 1.445 0 11-2.89 0 1.445 1.445 0 012.89 0zM27.823 134.419v-.963m0 0h1.205m0 0v-12.524m0 0h-1.205m0 0v-.964M18.298 123.321l.103.047m.103.049l.103.047m.103.046l.103.047m.103.047l.103.047m.103.047l.103.048m.104.048l.103.047m.102.046l.103.047m.103.047l.103.047m.103.048l.104.047m.103.048l.103.047m.103.046l.103.047m.104.047l.103.048m.102.047l.103.047m.103.048l.104.047m.103.046l.103.047m.103.047l.103.048m.104.047l.103.048M18.298 123.321v.078m0 .113v.114m0 .113v.113m0 .114v.078m0 0l.052.042m.087.071l.088.071m.087.072l.088.072m.089.071l.089.071m.087.072l.089.071m.087.071l.088.072m.088.072l.088.071m.088.071l.088.072m.089.071l.088.071m.088.072l.088.072m.087.071l.088.071m.088.072l.088.071m.088.072l.088.071m.088.072l.088.071m.088.071l.088.072m.088.071l.088.072m.088.071l.088.072m.089.071l.088.071m.088.072l.088.071m.087.072l.088.071m.088.073l.088.072m.088.07l.088.073m.088.071l.051.042"/></g><path class="st1" d="M17.819 123.321v9.634m0 0h.479m0 0v-.723m0 .001h-.238m0 0v-8.188m0-.001h.238m0 0v-.723m0 0h-.479"/></g><g><path class="st1" d="M90.215 140.012l-4.109-4.109m0 0l-.426-.407m0-.001l-.43-.371m0 0l-.424-.328m0 0l-.403-.276m0 .001l-.017-.009m0 0l-.375-.216m0 0l-.332-.147m0-.001l-.025-.008m0 .001l-.281-.075m0 0l-.028-.004m0-.001l-.22.002m0 0l-.03.002m0 .001l-.029.007m0 0l-.027.013m0 0l-.154.078m0-.001l-.024.018m0 .001l-.012.01m0 0l-1.133 1.134m0 0l-1.03-1.029m0-.001l-5.217 5.217m11.115 11.117l5.217-5.218m0 0l-1.029-1.029m0 0l1.134-1.134m0 0l.011-.011m0-.001l.017-.025m0 .001l.078-.154m0 0l.013-.027m0 0l.008-.029m0-.001l.002-.029m0 .001l.001-.221m0-.001l-.003-.028m0 .001l-.075-.281m0-.001l-.008-.025m0 .001l-.148-.332m0 0l-.214-.376m0-.001l-.011-.016m0 .001l-.276-.404m0 0l-.328-.423m0-.001l-.371-.429m0 .001l-.407-.427M81.068 135.994l9.057 9.057M81.191 136.117l.897-.898M90 144.927l.898-.898M86.127 149.047l4.665-4.664M77.071 139.99l4.664-4.663M85.076 136.925l4.117 4.117M82.088 135.22c.354-.354 1.691.409 2.988 1.706M89.193 141.041c1.296 1.296 2.06 2.634 1.705 2.988M53.617 168.393l4.108 4.108m0 .001l.427.408m0-.001l.43.371m0 0l.423.328m-.001 0l.404.275m.001 0l.016.011m0 0l.376.215m0 0l.332.147m0 0l.024.008m-.001 0l.281.075m.001 0l.029.003m0 0l.22-.001m0 0l.03-.002m0 0l.028-.008m0 0l.027-.012m0 0l.154-.078m0 0l.025-.018m-.001 0l.011-.011m.001.001l1.134-1.133m0-.001l1.029 1.029m0 0l5.219-5.218m-11.117-11.114l-5.216 5.217m0 0l1.029 1.029m0 0l-1.135 1.134m0 0l-.01.011m0 0l-.017.025m0 0l-.078.153m0 0l-.013.027m0 0l-.008.03m0 0l-.002.029m0 0l-.001.221m0 0l.003.027m0 0l.074.282m0 0l.009.025m-.001 0l.147.332m.001 0l.215.375m0 0l.01.016m0 0l.276.404m-.001 0l.329.424m.001 0l.371.429m0 0l.407.427M62.764 172.411l-9.057-9.057M62.641 172.287l-.898.898M53.83 163.477l-.896.897M57.703 159.358l-4.663 4.664M66.761 168.414l-4.664 4.664M58.755 171.48l-4.117-4.117M61.742 173.186c-.354.354-1.692-.409-2.988-1.705M54.638 167.363c-1.296-1.296-2.06-2.634-1.705-2.988M57.725 135.903l-4.108 4.109m0 0l-.408.427m0 0l-.371.429m0 0l-.329.423m0 0l-.275.404m0 0l-.01.016m0 0l-.216.376m0 0l-.146.332m0 0l-.009.025m0 0l-.074.281m0 0l-.003.028m0 0l.001.221m0 0l.002.029m0 0l.008.029m0 0l.012.027m0 0l.078.154m0 0l.018.024m0 0l.01.012m0 0l1.134 1.133m0 0l-1.029 1.03m0 0l5.217 5.217m11.115-11.115l-5.218-5.217m0 0l-1.028 1.029m0 0l-1.135-1.134m0 0l-.01-.01m0 0l-.026-.018m0 0l-.153-.078m0 0l-.027-.013m0 0l-.029-.007m0 0l-.029-.002m0 0l-.221-.002m0 0l-.028.004m0 0l-.281.075m0 0l-.025.008m0 0l-.332.147m0 0l-.376.215m0 0l-.015.01m0 0l-.405.276m0 0l-.423.328m0 0l-.429.371m0 0l-.427.407M53.707 145.051l9.057-9.057M53.83 144.927l-.896-.898M62.641 136.117l-.898-.898M66.761 139.99l-4.664-4.663M57.703 149.047l-4.663-4.664M54.638 141.041l4.117-4.117M52.933 144.029c-.354-.354.409-1.692 1.705-2.988M58.754 136.924c1.297-1.296 2.635-2.059 2.988-1.705M86.106 172.502l4.109-4.108m0 0l.408-.427m0 0l.371-.43m0 0l.328-.424m0 0l.275-.403m0 0l.011-.017m0 0l.215-.375m0 0l.147-.332m0 0l.008-.024m0 0l.075-.282m0 0l.003-.028m0 0l-.001-.22m0 0l-.002-.03m0 0l-.008-.029m0 0l-.012-.027m0 0l-.078-.154m0 0l-.018-.024m0 0l-.011-.012m0 0l-1.133-1.133m0 0l1.029-1.03m0 0l-5.218-5.218M75.488 168.89l5.219 5.218m0 0l1.029-1.029m0 0l1.134 1.134m0 0l.011.011m0 0l.025.017m0 0l.153.078m0 0l.027.013m0 0l.03.008m0 0l.029.002m0 0l.221.001m0 0l.027-.003m0 0l.281-.075m0 0l.026-.008m0 0l.332-.148m0 0l.375-.214m0 0l.016-.011m0 0l.404-.276m0 0l.424-.328m0 0l.429-.371m0 0l.426-.407M90.124 163.354l-9.057 9.057M90 163.477l.898.897M81.191 172.287l.897.898M77.071 168.414l4.664 4.664M86.127 159.357l4.665 4.665M89.194 167.363l-4.117 4.117M90.899 164.375c.354.354-.409 1.691-1.705 2.987M85.076 171.479c-1.296 1.296-2.634 2.06-2.988 1.705M87.029 154.202c0 8.348-6.767 15.114-15.114 15.114-8.348 0-15.115-6.766-15.115-15.114 0-8.347 6.767-15.114 15.115-15.114 8.348 0 15.114 6.767 15.114 15.114z"/></g><g><path class="st1" d="M13.347 200.08h1.7m0 0v48.82m0 0h-1.7m0 0v-48.82M47.355 224.49v24.41m0 0H23.549m0-24.41h23.806M47.355 248.9v9.598m0 0H13.347m0 0V248.9m0 0h1.7m8.502 0h23.806M47.355 200.08v24.41m0 0H23.549m0-24.41h23.806M47.355 190.482v9.598m0 0H23.549m-8.502 0h-1.7m0 0v-9.598m0 0h34.008M15.047 224.49h8.502m0 0v29.209m0 0h-8.502m0 0V224.49M15.047 224.49h8.502m0 0v-29.209m0 0h-8.502m0 0v29.209"/></g><g><path class="st1" d="M79.473 86.385H11.458M29.973 51.999a7.179 7.179 0 11-14.358 0 7.179 7.179 0 1114.358 0zM11.458 63.335v23.05m0 0h68.015m0 0V63.713m0 0H34.13m0 0v-.378m0 0H11.458M79.473 75.049v-.756m0 0H11.458m0 0v.756m0 0h68.015M65.724 83.954V65.327m0 0h-.755m0 0v18.627m0 0h.755M63.72 83.954V65.327m0 0h-.756m0 0v18.627m0 0h.756M61.715 83.954V65.327m0 0h-.755m0 0v18.627m0 0h.755M59.71 83.954V65.327m0 0h-.756m0 0v18.627m0 0h.756M55.465 83.818l2.241-18.491m0 .001l-.75-.091m0 0l-2.241 18.491m0-.001l.75.091M22.277 58.007l.449-1.233m0 0v-1.312m0 0l-.449-1.233m0 0l.342-1.474m0 0v-1.513m0 0l-.342-1.472m0 0l.45-1.235m0 0v-1.314m0 0l-.45-1.235m0 0l2.988 2.232m0 0v7.558m0 0l-2.988 2.231M25.526 55.776v-7.558m0 0h-.261m0 0v7.558m0 0h.261M26.049 55.776v-7.558m0 0h-.261m0 0v7.558m0 0h.261M20.762 51.155l-.085.891m0 0l.226.021m0 0l.045-.476m0 0l1.143 1.383m0 0l.152-.126m0 0l-.53-.641m0 0l.081-.068m0 0l.611.74m0 0l.146-.12m0 0l-.61-.741m0 0l.097-.08m0 0l.496.602m0 0l.131-.108m0 0l-.497-.601m0 0l.097-.081m0 0l.343.415m0 0l.139-.115m0 0l-1.174-1.423M11.458 63.335V40.663m0 0H34.13m0 0v22.672m0 0H11.458"/></g><g><path class="st1" d="M132.71 202.306h1.02m-.001 0v44.369m0 0h-1.02m.001 0v-44.369M133.729 212.007h.832m0 0l.566.152m0 0l.415.414m0 0l.153.567m0 0v22.699m0 0l-.153.567m0 0l-.415.415m0 0l-.566.152m0 0h-.832m0 0v-24.966M132.412 202.306h.298m0 0v44.369m0 0h-.298m0 0v-44.369M118.771 190.483h17.192m0 0v76.331m0 0h-17.192m0 0v-76.331"/></g><g><path class="st1" d="M251.779 243.236a3.78 3.78 0 11-7.558 0 3.78 3.78 0 017.558 0z"/><path class="st1" d="M249.133 243.236a1.134 1.134 0 11-2.267 0 1.134 1.134 0 012.267 0zM251.779 154.438a3.78 3.78 0 11-7.558 0 3.78 3.78 0 017.558 0z"/><path class="st1" d="M249.133 154.438a1.134 1.134 0 11-2.269 0 1.134 1.134 0 012.269 0zM178.095 232.845v-68.016m0 0h75.572m0 0v68.016m0 0h-75.572M176.206 230.955v-64.236m0 0l.144-.724m0 0l.41-.612m0 0l.612-.409m0 0l.724-.145m0 0v68.016m0 0l-.724-.145m0 0l-.612-.409m0 0l-.41-.612m0 0l-.144-.724M257.446 232.845v-68.016m0 0h-3.778m0 0v68.016m0 0h3.778M257.446 164.829v68.016m0 0h-1.889m0 0v-68.016m0 0h1.889M257.446 162.94v-17.003m0 0h-18.893m0 0v17.003m0 0h18.893M257.446 234.734v17.004m0 0h-18.893m0 0v-17.004m0 0h18.893M251.779 192.791v-25.694m0 0l-.111-.268m0 0l-.267-.11m0 0h-12.47m0 0l-.267.11m0 0l-.111.268m0 0v25.694m0 0l.111.268m0 0l.267.11m0 0h12.47m0 0l.267-.11m0 0l.111-.268M251.779 204.883v25.694m0 0l-.111.268m0 0l-.267.11m0 0h-12.47m0 0l-.267-.11m0 0l-.111-.268m0 0v-25.694m0 0l.111-.268m0 0l.267-.11m0 0h12.47m0 0l.267.11m0 0l.111.268M239.577 232.845v-1.89M239.577 204.505v-11.336M239.577 166.719v-1.89M234.567 232.845v-68.016m0 0h-18.686m0 0l14.908 68.016m0 0h3.778M248.86 246.915l-.86-3.68m0 0l-3.431-1.583m0 0l3.431 1.583m0 0l3.546-1.305M248.86 150.759l-.86 3.679m0 0l-3.431 1.584m0 0l3.431-1.584m0 0l3.546 1.306"/></g><g><path class="st1" d="M138.986 94.509h118.46M138.986 94.509v22.671m0 0h118.46m0 0V94.509m0 0h-118.46M257.446 106.223v-.756m0 0h-118.46m0 0v.756m0 0h118.46M147.085 96.501v18.627m0 0h.756m0 0V96.501m0 0h-.756M149.089 96.501v18.627m0 0h.756m0 0V96.501m0 0h-.756M151.093 96.501v18.627m0 0h.756m0 0V96.501m0 0h-.756M153.098 96.501v18.627m0 0h.756m0 0V96.501m0 0h-.756M157.344 96.637l-2.241 18.491m0 0l.75.091m0 0l2.241-18.491m0 0l-.75-.091"/></g><g><path d="M256.167 91.486h0m-6.946 0h0m-6.948 0h0m-6.947 0h0m-6.947 0l2.617-2.617m-9.563 2.617l9.563-9.563m-16.511 9.563l16.511-16.511m-23.458 16.511l23.458-23.458m-30.404 23.458l30.404-30.404m-37.352 30.404l34.007-34.008m-40.953 34.008l34.008-34.008M179.75 91.486l34.008-34.008m-40.954 34.008l34.008-34.008m-40.956 34.008l34.008-34.008M158.91 91.486l34.008-34.008m-40.956 34.008l35.579-35.579m-42.525 35.579l42.525-42.525m-48.555 41.607l28.879-28.879m8.853-8.852l10.824-10.824m-48.556 41.608l25.464-25.463m11.618-11.618l5.499-5.499m-42.581 35.633l24.692-24.692m-24.692 17.745l25.512-25.51M138.986 62.78l21.741-21.739m-21.741 14.793l14.793-14.793m-14.793 7.845l7.847-7.845m-7.847.898l.9-.898m91.11 18.101l-1.664-1.664m27.062 34.008h0m-25.398-25.398l-8.611-8.61m27.061 34.008h0m-18.45-18.45l-15.558-15.558M242.5 91.486h0m-11.504-11.504l-22.505-22.504m27.062 34.008h0m-4.557-4.557l-29.452-29.451m-14.002-14.002l-2.434-2.434m43.497 50.444l-34.008-34.008m-7.055-7.055l-9.381-9.381m43.498 50.444L175.992 45.82m38.72 45.666l-37.971-37.971m-11.963-11.963l-.511-.511m43.499 50.445l-32.349-32.348m-11.302-11.301l-6.796-6.795m43.499 50.444L171.372 62.04m-7.818-7.818l-13.18-13.181m43.496 50.445l-50.444-50.444m43.498 50.444l-47.939-47.938m40.993 47.938l-40.992-40.99m34.044 40.99l-34.044-34.044m27.098 34.044l-27.098-27.097m20.151 27.097l-20.151-20.149m13.203 20.149l-13.203-13.203m6.257 13.203l-6.257-6.256" fill-rule="evenodd" clip-rule="evenodd" fill="none" stroke="#999" stroke-width=".4" stroke-linecap="round" stroke-linejoin="round" stroke-miterlimit="3"/><path class="st1" d="M163.758 56.032l.468 1.645m0 0l.719 1.552m0 0l.967 1.23m0 0l1.249.943m0 0l1.448.593m0 0l1.55.206m0 0l1.551-.206m0 0l1.448-.593m0 0l1.248-.943m0 0l.968-1.23m0 0l.719-1.552m0 0l.469-1.645m0 0l.207-1.697m0 0l-.059-1.709m0 0l-1.223-11.585m0 0h-10.655m0 0l-1.222 11.585m0 0l-.06 1.709m0 0l.208 1.697M174.276 46.763h-4.116M170.16 46.763h-4.116M173.223 61.029a5.742 5.742 0 01-3.063.886M176.471 54.199c.165 2.592-1.03 5.107-3.248 6.83M174.276 46.763c1.506 2.252 2.267 4.827 2.195 7.437M163.848 54.199c-.07-2.609.689-5.185 2.195-7.437M167.096 61.029c-2.217-1.723-3.413-4.238-3.248-6.83M170.16 61.915a5.734 5.734 0 01-3.063-.886"/><path class="st3" d="M165.512 41.041h9.295v.189h-9.295z"/><path class="st1" d="M174.807 41.041h-9.295m0 0v.188m0 0h9.295m0 0v-.188M160.714 41.041h18.893M160.714 36.507h18.893M160.714 41.041v-4.534M179.607 41.041v-4.534M188.108 40.852h42.321m0 0l.401.166m0 0l.166.401m0 0v15.493m0 0l-.166.4m0 0l-.401.166m0 0h-42.321m0 0l-.4-.166m0 0l-.166-.4m0 0V41.419m0 0l.166-.401m0 0l.4-.166M210.024 48.409a.751.751 0 01-.302.604v-1.209a.754.754 0 01.302.605zm-1.209.604a.755.755 0 010-1.208v1.208zM209.722 41.381h-.907m0 0v7.748m0 0l.257.301m0 0h.394m0 0l.256-.301m0 0v-7.748"/><path class="st3" d="M208.513 41.116h1.511v.265h-1.511z"/><path class="st1" d="M208.513 41.381h1.511m0 0v-.265m0 0h-1.511m0 0v.265"/><path class="st3" d="M208.135 40.852h2.267v.265h-2.267z"/><path class="st1" d="M208.135 41.116h2.267m0 0v-.265m0 0h-2.267m0 0v.265M206.001 42.741v-1.625m0 0h.094m0 0v-.132m0 0h.284m0 0v-.133m0 0h-1.89m0 0v.133m0 0h.283m0 0v.132m0 0h.095m0 0v1.625m0 0h.322m0 0v.416m0 0h-1.078m0 0v.49m0 0h2.646m0 0v-.49m0 0h-1.077m0 0v-.416m0 0h.321M212.538 42.741v-1.625m0 0h-.095m0 0v-.132m0 0h-.283m0 0v-.133m0 0h1.889m0 0v.133m0 0h-.283m0 0v.132m0 0h-.095m0 0v1.625m0 0h-.321m0 0v.416m0 0h1.077m0 0v.49m0 0h-2.645m0 0v-.49m0 0h1.077m0 0v-.416m0 0h-.321M205.188 43.157l.072.071M205.679 43.157l-.072.071M205.188 42.741h.491M204.867 41.116h1.134M206.094 40.984h-1.322M213.349 43.157l-.071.071M212.859 43.157l.071.071M213.349 42.741h-.49M213.671 41.116h-1.133M212.443 40.984h1.322M205.679 43.402c0 .136-.11.245-.246.245a.244.244 0 01-.245-.245.246.246 0 01.491 0zM213.349 43.402a.244.244 0 01-.245.245.244.244 0 01-.245-.245.245.245 0 11.49 0zM189.242 45.009h40.054M229.862 45.575v10.202M229.296 56.345h-40.055M188.675 55.778V45.575M229.296 45.009c.313 0 .566.254.566.566M229.862 55.778a.566.566 0 01-.566.567M189.242 56.345a.567.567 0 01-.566-.567M188.675 45.575c0-.312.254-.566.566-.566M210.024 48.409a.751.751 0 01-.302.604v-1.209a.754.754 0 01.302.605zm-1.209.604a.755.755 0 010-1.208v1.208zM189.242 45.009h19.573m.907 0h19.574M257.446 25.171v66.314m0 0h-26.45m0 0V25.171m0 0h26.45M245.166 34.239a.944.944 0 11-1.889 0 .944.944 0 011.889 0zM233.112 32.907l.08-.959m0 0l.239-.931m0 0l.39-.873m0 0l.528-.789m0 0l.653-.681m0 0l.756-.552m0 .001l.834-.407m0-.001l.891-.25m0 0l.919-.084m0 0h11.639m0 0l.918.084m0 0l.89.25m0 0l.836.407m0 .001l.756.552m0-.001l.651.681m0 0l.53.789m0 0l.389.873m0 0l.239.931m0 0l.081.959m0 0V77.67m0 0l-.169 2.015m0 0l-.501 1.953m0 0l-.819 1.834m0 0l-1.111 1.658m0 0l-1.369 1.429m0 0l-1.586 1.161m0 0l-1.756.855m0 0l-1.87.523m0 0l-1.929.176m0 0l-1.929-.176m0 0l-1.87-.523m0 0l-1.755-.855m0 0l-1.586-1.161m0 0l-1.369-1.429m0 0l-1.112-1.658m0 0l-.818-1.834m0 0l-.501-1.953m0 0l-.169-2.015m0 0V32.907"/></g></g><g id="walls_1_"><path class="st0" d="M138.986 266.761h-3.022V153.402h1.511v.453h1.511v112.906zm-3.022-144.344h1.511v-.453h1.511v-27.51h118.46v-3.022h-118.46v-6.349h-1.511v-.453h-1.511v37.787zm3.022-84.452V25.117h-3.022v32.308h1.511v-.453h1.511V40.989h92.199V25.117h-3.023v12.848h-61.78V25.117h-3.023v12.848h-24.373zM11.458 40.61v-4.157h18.515V25.117h4.156V40.61H11.458zm0 45.721h68.015v3.023H11.458v-3.023z"/><path class="st4" d="M94.898.5c-2.421 5.169-3.248 10.518-3.221 17.06"/><path class="st5" d="M94.918.391l-.599 1.387 36.354 15.782h.453v-1.511z"/><path class="st4" d="M150.088 59.26c-4.296-1.604-7.697-2.241-12.613-2.288"/><path class="st5" d="M150.145 59.281l-1.388-.601-11.283 25.95v.453l1.512.001z"/><path class="st4" d="M151.539 151.275c-4.461 1.665-8.767 2.314-13.884 2.467"/><path class="st5" d="M151.644 151.235l-12.658-29.271h-1.512v.453l12.783 29.419z"/><path d="M268.404 290.566h-28.151V266.76h17.193V25.117H130.673V17.56h.453v-1.511h137.278v274.517h0zm-239.754 0H.5V16.049h91.177v1.511h.454v7.557H11.457V266.76H28.65v23.806h0zm128.474 0V266.76H111.78v23.806h45.344z" fill-rule="evenodd" clip-rule="evenodd" stroke="#000" stroke-linecap="round" stroke-linejoin="round" stroke-miterlimit="3"/><g><path class="st4" d="M157.21 282.93v-16.249M157.21 290.487v-5.668M157.21 284.819v-1.889M240.34 282.93v-16.249M240.34 290.487v-5.668M240.34 284.819v-1.889M240.34 290.487h-83.13M240.34 266.681h-83.13M240.34 282.93h-3.778M236.562 282.93v1.889M236.562 284.819h3.778M185.55 284.819h1.89M187.439 284.819v-1.889M187.439 282.93h-1.889M236.562 283.875h-49.123M236.562 282.93h-49.123M187.439 284.819h49.123M185.55 282.93h-.944M184.605 282.93v.944M184.605 283.875h-.944M183.66 283.875v.944M183.66 284.819h1.89M157.21 284.819h3.778M160.988 284.819v-.944M160.988 283.875h-.944M160.044 283.875v-.944M160.044 282.93h-2.834M160.988 284.819h22.672M181.772 281.985h-18.894M184.605 281.985h-2.833M181.772 281.985v1.89M181.772 283.875h2.833M184.605 283.875v-1.891M160.044 283.875h2.834M162.878 283.875v-1.891M162.878 281.985h-2.834M160.044 281.985v1.89M162.878 283.875h18.894M181.772 281.985h-18.894M181.772 282.93h-18.894M240.34 284.819v-1.889M240.34 284.819v-1.889M240.34 290.487v-5.668M240.34 282.93v-16.249M157.21 284.819v-1.889M157.21 284.819v-1.889M157.21 290.487v-5.668M157.21 282.93v-16.249"/><g><path class="st4" d="M28.737 282.93v-16.249M28.737 290.487v-5.668M28.737 284.819v-1.889M111.867 282.93v-16.249M111.867 290.487v-5.668M111.867 284.819v-1.889M111.867 290.487h-83.13M111.867 266.681h-83.13M111.867 282.93h-3.778M108.088 282.93v1.889M108.088 284.819h3.778M57.076 284.819h1.89M58.966 284.819v-1.889M58.966 282.93h-1.89M108.088 283.875H58.966M108.088 282.93H58.966M58.966 284.819h49.122M57.076 282.93h-.945M56.131 282.93v.944M56.131 283.875h-.944M55.187 283.875v.944M55.187 284.819h1.889M28.737 284.819h3.778M32.515 284.819v-.944M32.515 283.875h-.945M31.571 283.875v-.944M31.571 282.93h-2.834M32.515 284.819h22.672M53.298 281.985H34.405M56.131 281.985h-2.833M53.298 281.985v1.89M53.298 283.875h2.833M56.131 283.875v-1.891M31.571 283.875h2.833M34.405 283.875v-1.891M34.405 281.985h-2.834M31.571 281.985v1.89M34.405 283.875h18.893M53.298 281.985H34.405M53.298 282.93H34.405M111.867 284.819v-1.889M111.867 284.819v-1.889M111.867 290.487v-5.668M111.867 282.93v-16.249M28.737 284.819v-1.889M28.737 284.819v-1.889M28.737 290.487v-5.668M28.737 282.93v-16.249"/></g></g><g><path class="st7" d="M14.13 36.486l-2.42 2.13M34.38 25.186l-4.16 3.66M21.55 36.486l-4.72 4.16M34.38 31.726l-4.16 3.66M28.98 36.486l-4.73 4.16M34.38 38.266l-2.7 2.38M16.89 86.366l-3.43 3.02M24.31 86.366l-3.43 3.02M31.73 86.366l-3.43 3.02M39.16 86.366l-3.43 3.02M46.58 86.366l-3.43 3.02M53.99 86.366l-3.42 3.02M61.42 86.366l-3.43 3.02M138.33 25.156l-2.12 1.86M68.84 86.366l-3.42 3.02M139.24 30.886l-3.03 2.67M76.27 86.366l-3.43 3.02M139.24 37.426l-3.03 2.67M139.24 43.966l-3.03 2.67M146.02 37.996l-3.44 3.03M153.43 37.996l-3.44 3.03M166.63 26.366l-3.02 2.66M139.24 50.496l-3.03 2.67M160.86 37.996l-3.44 3.03M166.63 32.916l-3.02 2.66M168.28 37.996l-3.44 3.03M175.7 37.996l-3.44 3.03M183.13 37.996l-3.44 3.03M190.55 37.996l-3.44 3.03M137.57 84.666l-1.36 1.2M139.24 89.736l-3.03 2.67M197.97 37.996l-3.44 3.03M139.24 96.276l-3.03 2.66M205.39 37.996l-3.44 3.03M144.69 91.466l-3.42 3.02M139.24 102.806l-3.03 2.67M212.81 37.996l-3.44 3.03M152.12 91.466l-3.43 3.02M139.24 109.346l-3.03 2.67M220.23 37.996l-3.43 3.03M231.44 28.126l-3.03 2.67M159.54 91.466l-3.43 3.02M166.97 91.466l-3.43 3.02M231.44 34.666l-3.03 2.67M227.66 37.996l-3.44 3.03M139.24 115.886l-3.03 2.67M174.39 91.466l-3.43 3.02M181.81 91.466l-3.43 3.02M189.23 91.466l-3.43 3.02M196.65 91.466l-3.42 3.02M204.07 91.466l-3.42 3.02M211.5 91.466l-3.43 3.02M139.24 155.116l-3.03 2.67M218.92 91.466l-3.43 3.02M139.24 161.656l-3.03 2.67M226.34 91.466l-3.43 3.02M139.24 168.196l-3.03 2.67M233.76 91.466l-3.43 3.02M139.24 174.736l-3.03 2.67M241.18 91.466l-3.42 3.02M139.24 181.276l-3.03 2.67M248.61 91.466l-3.43 3.02M139.24 187.806l-3.03 2.67M256.03 91.466l-3.43 3.02M139.24 194.346l-3.03 2.67M139.24 200.896l-3.03 2.66M139.24 207.426l-3.03 2.67M139.24 213.966l-3.03 2.67M139.24 220.506l-3.03 2.66M139.24 227.046l-3.03 2.67M139.24 233.586l-3.03 2.67M139.24 240.116l-3.03 2.67M139.24 246.656l-3.03 2.67M139.24 253.196l-3.03 2.67M139.24 259.736l-3.03 2.67M139.24 266.276l-.59.52"/></g><path d="M138.986 266.761h-3.022V153.402h1.511v.453h1.511v112.906h0zm-3.022-144.344h1.511v-.453h1.511v-27.51h118.46v-3.022h-118.46v-6.349h-1.511v-.453h-1.511v37.787h0zm3.022-84.452V25.117h-3.022v32.308h1.511v-.453h1.511V40.989h92.199V25.117h-3.023v12.848h-61.78V25.117h-3.023v12.848h-24.373 0zM11.458 40.61v-4.157h18.515V25.117h4.156V40.61H11.458h0zm0 45.721h68.015v3.023H11.458v-3.023z" fill-rule="evenodd" clip-rule="evenodd" fill="none" stroke="#000" stroke-linecap="round" stroke-linejoin="round" stroke-miterlimit="22.926"/></g><g id="sizes_6_"><path d="M57.806 126.341h-1.594v-9.625l-1.617.992v-1.648l1.617-1.078h1.594v11.359zM62.029 126.122a2.758 2.758 0 01-1.086-.977c-.279-.427-.465-.94-.559-1.539v-.008h1.594v.008c.057.417.224.741.5.973.276.231.635.348 1.078.348.51 0 .905-.171 1.184-.512.278-.341.418-.821.418-1.441v-.953c0-.614-.14-1.093-.418-1.434-.279-.341-.673-.512-1.184-.512-.276 0-.542.078-.797.234a2.237 2.237 0 00-.672.656h-1.453v-5.984h5.789v1.516h-4.195v2.555a2.275 2.275 0 011.414-.508c.656 0 1.217.136 1.684.406.466.271.82.667 1.063 1.188s.363 1.148.363 1.883v.953c0 .734-.125 1.362-.375 1.883s-.615.918-1.094 1.191c-.479.273-1.055.41-1.727.41-.573 0-1.082-.112-1.527-.336zM68.939 124.747h1.594v1.594l-1.594 1.578v-3.172zM72.564 123.216l3.813-8.227h1.641l-3.719 8.133h5.57v1.477h-7.305v-1.383zm4.899-3.555h1.555v6.688h-1.555v-6.688z"/><g><path d="M235.774 265.2h-1.594v-9.625l-1.617.992v-1.648l1.617-1.078h1.594V265.2zM238.196 262.075l3.813-8.227h1.641l-3.719 8.133h5.57v1.477h-7.305v-1.383zm4.898-3.554h1.555v6.688h-1.555v-6.688zM247.298 263.606h1.594v1.594l-1.594 1.578v-3.172zM253.821 265.2h-1.594v-9.625l-1.617.992v-1.648l1.617-1.078h1.594V265.2z"/></g><g><path d="M208.539 81.672l3.813-8.227h1.641l-3.719 8.133h5.57v1.477h-7.305v-1.383zm4.898-3.555h1.555v6.688h-1.555v-6.688zM217.64 83.203h1.594v1.594l-1.594 1.578v-3.172zM223.406 84.914l-.727-.348c-.485-.232-.874-.567-1.168-1.008s-.48-.97-.559-1.59h1.625c.047.323.148.589.305.797s.358.363.605.465.538.152.871.152c.526 0 .935-.141 1.227-.422s.438-.677.438-1.188v-.342c0-.567-.138-1.007-.414-1.316s-.667-.465-1.172-.465h-.805v-1.516h.805c.442 0 .786-.133 1.031-.398s.367-.641.367-1.125v-.352c0-.448-.129-.794-.387-1.039s-.624-.367-1.098-.367c-.271 0-.513.051-.727.152s-.395.258-.543.469-.257.476-.324.793h-1.617c.104-.62.301-1.151.59-1.594s.655-.778 1.098-1.008.95-.344 1.523-.344c.979 0 1.737.258 2.273.773s.805 1.242.805 2.18v.188c0 .567-.153 1.063-.461 1.484s-.742.729-1.305.922c.62.136 1.101.44 1.441.914s.512 1.078.512 1.813v.188c0 .661-.128 1.227-.383 1.695s-.626.825-1.113 1.07-1.074.367-1.762.367h-.951z"/></g><g><path d="M39.378 39.206a2.758 2.758 0 01-1.086-.977c-.279-.427-.465-.94-.559-1.539v-.008h1.594v.008c.057.417.224.741.5.973.276.231.635.348 1.078.348.51 0 .905-.171 1.184-.512.278-.341.418-.821.418-1.441v-.953c0-.614-.14-1.093-.418-1.434-.279-.341-.673-.512-1.184-.512-.276 0-.542.078-.797.234a2.237 2.237 0 00-.672.656h-1.453v-5.984h5.789v1.516h-4.195v2.555a2.275 2.275 0 011.414-.508c.656 0 1.217.136 1.684.406.466.271.82.667 1.063 1.188s.363 1.148.363 1.883v.953c0 .734-.125 1.362-.375 1.883s-.615.918-1.094 1.191c-.479.273-1.055.41-1.727.41-.573 0-1.082-.112-1.527-.336zM46.288 37.831h1.594v1.594l-1.594 1.578v-3.172zM49.898 38.042l3.961-5.281c.229-.302.407-.616.535-.941.127-.325.191-.629.191-.91v-.016c0-.453-.133-.805-.398-1.055s-.644-.375-1.133-.375c-.464 0-.839.137-1.125.41-.287.273-.461.66-.523 1.16v.008h-1.648v-.008c.094-.651.285-1.207.574-1.668s.663-.813 1.121-1.055c.458-.242.987-.363 1.586-.363.677 0 1.255.116 1.734.348.479.231.844.569 1.094 1.012s.375.977.375 1.602v.008c0 .401-.083.82-.25 1.258a5.417 5.417 0 01-.695 1.266l-3.289 4.469h4.297v1.516h-6.406v-1.385z"/></g></g></svg>