<svg version="1.1" id="_x31_92" xmlns="http://www.w3.org/2000/svg" x="0" y="0" viewBox="0 0 348.887 185.209" xml:space="preserve"><style>.st0{fill-rule:evenodd;clip-rule:evenodd;fill:#fff}.st1,.st3{fill:none;stroke-linecap:round;stroke-linejoin:round;stroke-miterlimit:3}.st1{fill-rule:evenodd;clip-rule:evenodd;stroke:#999}.st3{stroke:#000}.st3,.st4,.st6{fill-rule:evenodd;clip-rule:evenodd}.st6{fill:none;stroke:#666;stroke-width:.6;stroke-miterlimit:22.9256}</style><path class="st0" d="M277.098 161.72h55.5V.5H.606v184.209h276.492z" id="fon"/><g id="mebel_5_"><path class="st1" d="M248.674 173.751H112.832M248.674 151.08v3.022M248.674 154.102v19.649M112.832 173.751v-22.672M112.832 151.08v22.672m0-.001h135.842m0 0V151.08m0 0H112.832M248.674 162.793v-.756m0 0H112.832m0 0v.756m0 0h135.842M119.419 153.073v18.626m0 0h.755m0 0v-18.626m0 0h-.755M121.424 153.073v18.626m0 0h.756m0 0v-18.626m0 0h-.756M123.428 153.073v18.626m0 0h.756m0 0v-18.626m0 0h-.756M125.433 153.073v18.626m0 0h.755m0 0v-18.626m0 0h-.755M129.679 153.207l-2.242 18.491m0 .001l.751.091m0 0l2.241-18.49m0 0l-.75-.092"/><g><path class="st1" d="M58.35 14.692v-1.02m0 0h44.369m0 0v1.02m0 0H58.35M67.811 13.672v-.832m0 0l.152-.567m0 0l.415-.415m0 0l.567-.152m0 .001h22.699m0 0l.566.152m0-.001l.415.415m0 0l.152.567m0 0v.832m0 0H67.811M58.35 14.99v-.298m0 0h44.369m0 0v.298m0 0H58.35M43.994 26.574V11.46m0 0h68.838m0 0v15.114m0 0H43.994"/></g><g><path class="st1" d="M198.229 50.757h2.834m18.893 0h.945m0 0V11.459m0 0H112.832m0 0v22.672m0 0h85.397m0 0v16.626M220.901 90.622V87.6M220.901 11.46V87.6M198.229 67.95v22.672m0 0h22.672m0 0V67.95m0 0h-22.672M213.344 79.285h-7.558M212.237 76.614l-5.344 5.344M209.565 75.507v7.557M206.893 76.614l5.344 5.344M201.063 41.405v19.271m0 0l.221.535m0 0l.535.221m0 0H219.2m0 0l.535-.221m0 0l.221-.535m0 0V41.405m0 0l-.221-.534m0 0l-.535-.222m0 0h-17.381m0 0l-.535.222m0 0l-.221.534M198.229 34.131v33.818M220.901 34.131v33.818M198.229 34.131h22.672M198.229 67.95h22.672M202.953 43.294v15.492M203.708 59.542h11.714M216.178 58.786v-7.001M216.178 50.296v-7.002M215.422 42.539h-11.714M202.953 43.294h.141a.141.141 0 10-.282 0 .14.14 0 10.282 0h-.141zM203.708 59.542a.756.756 0 01-.755-.756M216.178 58.786a.756.756 0 01-.755.756M215.422 42.539c.417 0 .755.339.755.756M202.953 43.294c0-.417.338-.756.755-.756M211.345 50.701l-.24.1m0 0l-.099.241m0 0l.1.24m0 0l.241.099m0 0h7.476m0 0l.24-.1m0 0l.1-.24m0 0l-.1-.24m0 0l-.24-.1m0 0h-7.478M216.896 50.287v.414m0 0h1.927m0 0l.24.1m0 0l.1.24m0 0l-.1.24m0 0l-.24.1m0 0h-1.927m0 0v.415m0 0h2.456m0 0v-1.509m0 0h-2.456M215.535 50.297v.403m0 0h1.323m.001 0v-.404m0 .001h-1.323M215.535 51.785h1.323m.001 0v-.404m0 0h-1.323m-.001 0v.404M169.511 32.053h-21.916m0 0V13.537m0 0h21.916m0 0v18.516M158.554 20.773v-5.299M158.554 15.474h-1.097M158.554 20.773h-1.097M149.7 20.773v-5.299M150.796 15.474H149.7M150.796 20.773H149.7M167.539 17.907a2.739 2.739 0 11-5.478.002 2.739 2.739 0 015.478-.002zM167.496 26.147a3.968 3.968 0 11-7.935-.001 3.968 3.968 0 017.935.001z"/><path class="st1" d="M165.796 26.147a2.267 2.267 0 11-4.534 0 2.267 2.267 0 014.534 0zM156.772 18.092a2.646 2.646 0 11-5.291 0 2.646 2.646 0 015.291 0zM156.41 26.683a3.4 3.4 0 11-6.802 0 3.4 3.4 0 016.802 0zM173.668 34.131h-30.229M173.668 11.46h-30.229M173.668 34.131V11.459M143.439 34.131V11.459M173.668 34.131h24.561M173.668 11.46h24.561M173.668 34.131V11.459M198.229 34.131V11.459M186.11 25.723a3.411 3.411 0 11-6.822 0 3.411 3.411 0 016.822 0z"/><path class="st1" d="M185.589 25.723a2.89 2.89 0 11-5.781 0 2.89 2.89 0 015.781 0zM191.586 26.555a2.579 2.579 0 11-5.158 0 2.579 2.579 0 015.158 0z"/><path class="st1" d="M190.452 26.555a1.445 1.445 0 11-2.89 0 1.445 1.445 0 012.89 0zM178.63 27.93h.963m0 0v1.204m0 0h12.524m0 0V27.93m0 0h.964M180.093 18.405l.047.103m.048.103l.048.103m.045.103l.048.104m.048.102l.047.103m.046.103l.047.104m.048.102l.047.104m.048.103l.047.103m.047.103l.047.103m.046.103l.048.103m.047.103l.047.103m.048.104l.047.103m.048.103l.046.103m.048.103l.047.103m.046.103l.047.103m.048.103l.047.103m.048.104l.047.102m.047.104l.047.102M189.727 18.405l-.047.103m-.047.103l-.048.103m-.047.103l-.047.104m-.047.102l-.047.103m-.047.103l-.047.104m-.048.102l-.047.104m-.047.103l-.047.103m-.047.103l-.047.103m-.048.103l-.047.103m-.047.103l-.047.103m-.047.104l-.047.103m-.048.103l-.046.103m-.048.103l-.047.103m-.047.103l-.047.103m-.047.103l-.047.103m-.048.104l-.047.102m-.047.104l-.047.102M180.093 18.405h.078m.114 0h.114m.113 0h.113m.114 0h.078m0 0l.042.051m.07.088l.071.089m.073.087l.071.088m.071.088l.071.088m.073.088l.071.088m.071.088l.072.089m.07.088l.072.087m.072.088l.072.088m.07.088l.072.088m.072.088l.072.088m.07.089l.071.088m.073.087l.071.088m.072.088l.071.088m.072.088l.071.088m.07.089l.072.088m.072.088l.072.087m.07.088l.072.088m.072.088l.072.088m.07.088l.071.089m.073.088l.071.088m.071.087l.072.088m.072.088l.071.089m.071.088l.042.051M189.727 18.405h-.078m-.113 0h-.114m-.113 0h-.113m-.114 0h-.078m0 0l-.042.051m-.071.088l-.071.089m-.072.087l-.071.088m-.072.088l-.071.088m-.072.088l-.071.088m-.071.088l-.072.089m-.071.088l-.072.087m-.071.088l-.072.088m-.071.088l-.071.088m-.072.088l-.072.088m-.071.089l-.071.088m-.072.087l-.071.088m-.072.088l-.071.088m-.072.088l-.071.088m-.071.089l-.072.088m-.071.088l-.072.087m-.071.088l-.072.088m-.071.088l-.071.088m-.072.088l-.072.089m-.071.088l-.071.088m-.072.087l-.072.088m-.071.088l-.071.089m-.072.088l-.042.051M189.727 17.926h-9.634m0 0v.479m0 0h.723m0 0v-.238m0 0h8.188m0 0v.238m0 0h.723m0 0v-.479"/></g><g><path class="st1" d="M45.755 163.804a7.18 7.18 0 11-14.359 0 7.179 7.179 0 017.179-7.179 7.179 7.179 0 017.18 7.179zM49.729 94.401h57.813m0 0v75.572m0 0H49.729m0 0V94.401M50.907 92.511h54.746m0 0l.723.144m0 0l.613.409m0 0l.409.613m0 0l.144.724m0 0H49.729m0 0l.028-.815m0 0l.431-.692m0 0l.719-.383M49.729 173.751h57.813m0 0v-3.778m0 0H49.729m0 0v3.778M107.542 173.751H49.729m0 0v-1.89m0 0h57.813m0 0v1.89M49.729 150.872h57.813m0 0v-18.687m0 0l-57.813 12.672m0 0v6.015M79.58 167.895h25.695m0 0l.267-.111m0 0l.111-.268m0 0v-12.469m0 0l-.111-.267m0 0l-.267-.111m0 0H79.58m0 0l-.267.111m0 0l-.111.267m0 0v12.469m0 0l.111.268m0 0l.267.111M77.691 167.895H51.996m0 0l-.267-.111m0 0l-.111-.268m0 0v-12.469m0 0l.111-.267m0 0l.267-.111m0 0h25.695m0 0l.267.111m0 0l.111.267m0 0v12.469m0 0l-.111.268m0 0l-.267.111"/></g><g><path class="st1" d="M174.473 72.224l-4.109-4.109m0 0l-.426-.407m0 0l-.43-.371m0 0l-.424-.328m0 0l-.403-.276m0 0l-.017-.009m0 0l-.375-.216m0 0l-.332-.147m0 0l-.025-.008m0 0l-.281-.075m0 0l-.028-.004m0 0l-.22.002m0 0l-.03.002m0 0l-.029.007m0 0l-.027.013m0 0l-.154.078m0 0l-.024.018m0 0l-.012.01m0 0l-1.133 1.134m0 0l-1.03-1.029m0 0l-5.217 5.217m11.115 11.116l5.217-5.218m0 0l-1.029-1.029m0 0l1.134-1.134m0 0l.011-.011m0 0l.017-.025m0 0l.078-.154m0 0l.013-.027m0 0l.008-.029m0 0l.002-.029m0 0l.001-.221m0 0l-.003-.028m0 0l-.075-.281m0 0l-.008-.025m0 0l-.148-.332m0 0l-.214-.376m0 0l-.011-.016m0 0l-.276-.404m0 0l-.328-.423m0 0l-.371-.429m0 0l-.407-.427M165.326 68.206l9.057 9.057M165.449 68.33l.897-.898M174.258 77.139l.898-.898M170.385 81.26l4.665-4.665M161.328 72.203l4.665-4.664M169.334 69.137l4.117 4.117M166.346 67.432c.354-.354 1.691.409 2.988 1.706M173.45 73.253c1.296 1.296 2.06 2.634 1.705 2.988M137.875 100.605l4.108 4.108m0 .001l.427.408m-.001 0l.43.371m0 0l.423.328m0 0l.404.275m.001 0l.016.011m-.001 0l.376.215m.001 0l.332.147m0 0l.024.008m-.001 0l.281.075m.001 0l.029.003m-.001 0l.22-.001m0 0l.03-.002m0 0l.028-.008m.001 0l.027-.012m-.001 0l.154-.078m0 0l.025-.018m0 0l.011-.011m0 0l1.134-1.133m.001 0l1.029 1.029m0 0l5.219-5.218m-11.117-11.114l-5.216 5.217m-.001-.001l1.029 1.029m0 0l-1.135 1.134m0 .001l-.01.011m0 0l-.017.025m0 0l-.078.153m.001 0l-.013.027m-.001 0l-.008.03m.001 0l-.002.029m0 0l-.001.221m-.001 0l.003.027m.001 0l.074.282m0 0l.009.025m-.001 0l.147.332m0 0l.215.375m.001 0l.01.016m0 0l.276.404m-.001 0l.329.424m0 0l.371.429m0 0l.407.427M147.022 104.623l-9.057-9.057M146.899 104.499l-.898.898M138.088 95.69l-.897.897M141.961 91.57l-4.663 4.664M151.019 100.626l-4.664 4.664M143.013 103.692l-4.117-4.117M146 105.398c-.354.354-1.692-.409-2.988-1.705M138.896 99.575c-1.296-1.296-2.06-2.634-1.705-2.988M141.983 68.115l-4.108 4.109m0 0l-.408.427m0 0l-.371.429m0 0l-.329.423m0 0l-.275.404m0 0l-.01.016m0 0l-.216.376m0 0l-.146.332m0 0l-.009.025m0 0l-.074.281m0 0l-.003.028m0 0l.001.221m0 0l.002.029m0 0l.008.029m0 0l.012.027m0 0l.078.154m0 0l.018.024m0 0l.01.012m0 0l1.134 1.133m0 0l-1.029 1.03m0 0l5.217 5.217M152.6 71.726l-5.218-5.217m0 0l-1.028 1.029m0 0l-1.135-1.134m0 0l-.01-.01m0 0l-.026-.018m0 0l-.153-.078m0 0l-.027-.013m0 0l-.029-.007m0 0l-.029-.002m0 0l-.221-.002m0 0l-.028.004m0 0l-.281.075m0 0l-.025.008m0 0l-.332.147m0 0l-.376.215m0 0l-.015.01m0 0l-.405.276m0 0l-.423.328m0 0l-.429.371m0 0l-.427.407M137.965 77.263l9.057-9.057M138.088 77.139l-.897-.898M146.899 68.33l-.898-.898M151.019 72.203l-4.664-4.664M141.961 81.259l-4.663-4.664M138.896 73.254l4.117-4.117M137.191 76.241c-.354-.354.409-1.692 1.705-2.988M143.012 69.136c1.297-1.296 2.635-2.059 2.988-1.705M170.364 104.714l4.109-4.108m0 0l.408-.427m0 0l.371-.43m0 0l.328-.424m0 0l.275-.403m0 0l.011-.017m0 0l.215-.375m0 0l.147-.332m0 0l.008-.024m0 0l.075-.282m0 0l.003-.028m0 0l-.001-.22m0 0l-.002-.03m0 0l-.008-.029m0 0l-.012-.027m0 0l-.078-.154m0 0l-.018-.024m0 0l-.011-.012m0 0l-1.133-1.133m0 0l1.029-1.03m0 0l-5.218-5.218m-11.116 11.115l5.218 5.218m.001 0l1.029-1.029m0 0l1.134 1.134m0 0l.011.011m0 0l.025.017m0 0l.153.078m0 0l.027.013m0 0l.03.008m0 0l.029.002m0 0l.221.001m0 0l.027-.003m0 0l.281-.075m0 0l.026-.008m0 0l.332-.148m0 0l.375-.214m0 0l.016-.011m0 0l.404-.276m0 0l.424-.328m0 0l.429-.371m0 0l.426-.407M174.382 95.567l-9.057 9.057M174.258 95.69l.898.897M165.449 104.499l.897.898M161.328 100.626l4.665 4.664M170.385 91.57l4.665 4.664M173.452 99.575l-4.117 4.117M175.157 96.587c.354.354-.409 1.691-1.705 2.987M169.334 103.692c-1.296 1.296-2.634 2.06-2.988 1.705M171.287 86.414c0 8.348-6.767 15.114-15.114 15.114-8.348 0-15.115-6.766-15.115-15.114 0-8.347 6.767-15.114 15.115-15.114 8.347 0 15.114 6.767 15.114 15.114z"/></g><g><path class="st1" d="M255.097 11.46V87.6M231.481 18.072a.945.945 0 11-1.89-.001.945.945 0 011.89.001zM236.907 50.688l.372-1.397m.001 0l.793-1.209m-.001 0l1.132-.898m.001 0l1.358-.496m-.001 0l1.445-.043m.001 0l1.385.414m0 0l1.184.828m0 0l.864 1.159m0 0l.455 1.372m0 0v1.446m0 0l-.455 1.372m0 0l-.864 1.159m0 0l-1.184.828m0 0l-1.385.414m0 0l-1.445-.043m-.001 0l-1.358-.496m.001 0l-1.132-.898m-.001 0l-.793-1.209m.001 0l-.372-1.397m-.001 0h-5.538m.001 0l.108.456m0 0l.037.49m0 0l-.037.488m0 0l-.108.456m0 0l-.172.392m0 0l-.225.299m0 0l-.261.189m-.001 0l-.281.064m.001 0h-.402m0 0l-.12-.019m-.001 0l-.278-.064m.001 0l-.103-.054m-.001 0l-.251-.181m.001 0l-.071-.078m-.001 0l-.204-.275m.001 0l-.157-.356m0 0l-.052-.195m-.001 0l-.059-.251m0 0l-.688-.019m0 0l-.796-.01m.001 0v1.729m0 0h-.435m-.001 0v2.872m0 0l-.059.159m0 0l-.148.083m0 0l-.167-.033m0 0l-.105-.133m.001 0l-.158-.485m-.001 0l-.314-.726m.001 0l-.575-1.008m-.001 0l-.257-.729m0 0h-.125m0 0v.604m0 0h-.982m0 0V52.69m0 0h.877m.001 0l.01-.023m-.001 0l.028-.04m0 0l.034-.032m.001 0l.04-.025m-.001 0l.673-.278m0 0v-.698m0 0h-1.361m.001 0v1.059m0 0h-.301m-.001 0v-3.024m0 0h.301m.001 0v1.059m0 0h1.361m-.001 0v-1.437m0 0h.152m.001 0v-.415m0 0h-.303m0 0v.151m0 0h-.529m-.001 0v.604m0 0h-.982m0 0v-2.569m0 0h.982m0 0v.604m0 0h.529m.001 0v.152m0 0h.303m0 0v-.152m0 0h1.511m0 0v2.571m0 0h2.154m0 0v.022m0 0v.06m0 0v.093m0 0v.124m0 0v.149m0 0v.043m0 0h7.504M225.587 53.031v-.21m0 0l-.341.141m0 0l-.053.325m0 0l.002.009m0 0h.241m0 0v.15m0 0h.302m0 0v-.415m0 0h-.151M225.738 54.503h-.241m0 0l.24.677m0 .001l.563.988m0-.001l.023.053m0 .001v-1.567m0-.001h-.585m0 0v-.151M224.906 48.647h.53M224.906 47.967h.53M224.906 54.304v.351M225.435 53.446v.188M225.435 53.634v.681M225.435 54.315v.015M225.26 53.634h.176M225.431 54.315h.004M225.738 54.503v-1.058M227.249 52.152v-.558M226.323 54.655h.491M227.816 52.085v-.49M226.802 57.451l.012.076M224.699 53.301l.002-.047M224.731 53.471l-.032-.17M224.783 52.756l.009-.046M224.792 52.71l.009-.021M225.031 54.655l-.161-.452M224.87 54.203l-.139-.731M225.204 53.346l-.011-.06M226.802 57.451l-.166-.512M226.635 56.939l-.312-.718M224.887 54.245v-.001M224.701 53.254l.082-.498M229.304 51.596l-.001-.002M228.773 51.594l-.001.002M226.134 53.031h-.127M225.889 53.031h-.103M226.007 53.031h-.118M225.587 52.821v-.523M225.343 54.068l-.139-.722M225.497 54.503l-.154-.436M226.22 52.35v-.001M226.176 52.441l.044-.091M226.16 52.54l.015-.099M226.176 52.637l-.015-.098M226.22 52.728l-.044-.091M226.22 52.728v.001M228.716 52.883l-.026-.344M228.69 52.54l.026-.347M228.733 52.954l-.017-.07M228.793 51.874l.052-.196M228.716 52.194l.077-.32M226.387 52.908l.062.009M228.845 51.677l.036-.083M228.733 52.124l-.688.019M226.449 52.162l-.062.009M226.387 52.171l-.058.025M226.329 52.197l-.049.042M226.279 52.239l-.037.055M226.242 52.293l-.021.056M226.221 52.35l-.004.007M226.217 52.357l-.008.069M226.21 52.426v.227M226.21 52.653l.008.068M226.217 52.721l.004.007M226.221 52.729l.021.056M226.242 52.785l.037.055M226.279 52.839l.05.042M226.329 52.881l.058.027M228.045 52.142l-1.596.02M227.249 52.926l-.8-.01M226.947 53.031v-.108M226.947 52.156v-.562M236.907 50.688h5.343M236.907 51.594h5.343M242.25 50.688v.906M224.906 47.626v1.361M225.435 47.778v1.059M225.738 47.778v1.059M225.738 49.251h1.209M226.947 53.031h-1.209M224.226 50.688v.906M225.587 50.688h3.816M231.369 51.594h-5.783M226.947 49.251v1.437M227.249 50.197v.491M227.816 50.197v.491M227.249 52.085h1.493M239.585 50.688a1.889 1.889 0 110 .906M226.274 49.251a.34.34 0 01.125-.464.339.339 0 01.464.464"/><g><path d="M303.067 87.598l4.931-4.932m-11.878 4.932l11.878-11.879m-18.825 11.879l11.572-11.571m-18.519 11.571l11.21-11.21m12.047-12.047l2.515-2.515m-32.719 25.772l13.366-13.367m10.554-10.553l8.799-8.8m-39.666 32.72l18.634-18.634m5.19-5.19l15.842-15.842m-46.613 39.666l46.613-46.613M255.097 86.94l52.901-52.903m-52.901 45.955l51.529-51.529m-51.529 44.583l44.582-44.583m-44.582 37.636l37.635-37.636m-37.635 30.689l30.688-30.689m-30.688 23.741l24.119-24.118m-24.119 17.172l17.172-17.172m-17.172 10.225l10.225-10.225m-10.224 3.278l3.279-3.279m49.621 1.373l-.995-.995m.995 7.943l-7.943-7.943m7.943 14.89l-14.889-14.89m14.889 21.836l-21.836-21.836m-.836-.836l-.032-.032m22.704 29.651l-29.16-29.161m29.16 36.109L271.89 28.086m28.804 35.75l-35.75-35.75m43.054 50.001l-2.557-2.557m-12.045-12.046l-35.399-35.399m50.001 56.949l-8.84-8.84m-10.539-10.539l-33.522-33.522m48.518 55.465l-11.523-11.523m-5.118-5.119L255.097 39.08m41.571 48.518l-41.571-41.571m34.624 41.571l-34.624-34.624m27.677 34.624l-27.677-27.677m20.73 27.677l-20.73-20.73m13.783 20.73l-13.783-13.783m6.836 13.783l-6.836-6.836" fill-rule="evenodd" clip-rule="evenodd" fill="none" stroke="#999" stroke-width=".4" stroke-linecap="round" stroke-linejoin="round" stroke-miterlimit="3"/><path class="st1" d="M307.998 60.487v18.894M312.533 60.487v18.894M293.007 63.532l-1.645.469m0 0l-1.551.718m0 0l-1.23.967m0 0l-.943 1.249m0 0l-.594 1.448m0 0l-.205 1.551m0 0l.205 1.551m0 0l.594 1.447m0 0l.943 1.249m0 0l1.23.967m0 0l1.551.719m0 0l1.645.469m0 0l1.698.208m0 0l1.709-.06m0 0l11.585-1.223m0 0V64.607m0 0l-11.585-1.223m0 0l-1.709-.059m0 0l-1.698.207M302.277 74.05v-4.116M302.277 69.934v-4.117M288.01 72.997a5.756 5.756 0 01-.886-3.063M294.84 76.246c-2.591.165-5.107-1.031-6.83-3.248M302.277 74.05c-2.253 1.505-4.828 2.266-7.437 2.195M294.84 63.622c2.609-.07 5.184.69 7.437 2.195M288.01 66.869c1.723-2.217 4.239-3.413 6.83-3.248M287.124 69.934a5.752 5.752 0 01.886-3.064M307.809 65.286h.189v9.296h-.189zM307.998 74.581v-9.296m0 0h-.189m0 0v9.296m0 0h.189M307.998 60.487h4.534M307.998 79.381h4.534"/><g><path class="st1" d="M255.664 11.46h29.096m0 0l.401.166m0 0l.165.4m0 0v15.493m0 0l-.165.401m0 0l-.401.166m0 0h-29.096m0 0l-.4-.166m0 0l-.167-.401m0 0V12.026m0 0l.167-.4m0 0l.4-.166M256.798 15.616h12.961m.906 0h12.962M284.193 16.182v10.203M283.626 26.952h-26.829M256.231 26.385V16.182M283.626 15.616c.313 0 .567.254.567.566M284.193 26.385a.567.567 0 01-.567.566M256.798 26.952a.567.567 0 01-.566-.566M256.231 16.182c0-.312.254-.566.566-.566M270.968 19.016a.756.756 0 01-.303.606V18.41a.757.757 0 01.303.606zm-1.209.605a.755.755 0 010-1.21v1.21zM270.666 11.989h-.907m0 0v7.748m0 0l.256.301m0 0h.395m0 0l.256-.301m0 0v-7.748M269.456 11.724h1.511v.264h-1.511zM269.456 11.989h1.512m0 0v-.265m0 0h-1.512m0 0v.265"/><path class="st1" d="M269.078 11.459h2.267v.265h-2.267zM269.079 11.724h2.267m0 0v-.265m0 0h-2.267m0 0v.265M266.944 13.349v-1.625m0 0h.094m0 0v-.133m0 0h.284m0 0v-.132m0 0h-1.889m0 0v.132m0 0h.283m0 0v.133m0 0h.095m0 0v1.625m0 0h.321m-.001 0v.415m0 0h-1.077m.001 0v.491m0 0h2.645m0 0v-.491m0 0h-1.077m0 0v-.415m0 0h.321M273.481 13.349v-1.625m0 0h-.095m0 0v-.133m0 0h-.283m0 0v-.132m0 0h1.889m0 0v.132m0 0h-.283m0 0v.133m0 0h-.095m0 0v1.625m0 0h-.321m0 0v.415m0 0h1.077m0 0v.491m0 0h-2.645m0 0v-.491m0 0h1.077m0 0v-.415m0 0h-.321M266.131 13.764l.072.072M266.622 13.764l-.072.072M266.131 13.349h.491M265.81 11.724h1.133M267.038 11.591h-1.322M274.293 13.764l-.072.072M273.801 13.764l.072.072M274.293 13.349h-.491M274.614 11.724h-1.133M273.386 11.591h1.323M266.622 14.01a.245.245 0 11-.491 0 .246.246 0 11.491 0zM274.293 14.01a.245.245 0 11-.245-.246c.135 0 .245.11.245.246z"/><g><path class="st1" d="M303.842 20.604a7.18 7.18 0 11-7.179-7.18 7.18 7.18 0 017.179 7.18zM290.655 20.088l1.233.448m0 0h1.312m0 0l1.234-.448m0 0l1.473.342m0 0h1.512m0 0l1.473-.342m-.001 0l1.235.449m.001.001h1.314m0 0l1.235-.449m0-.001l-2.232 2.987m0 0h-7.558m0 0l-2.231-2.987M292.886 23.336h7.557m0 0v-.261m0 0h-7.557m0 0v.261M292.886 23.86h7.557m0 0v-.262m0 0h-7.557m0 0v.262M297.506 18.573l-.891-.085m0 0l-.022.226m0 0l.477.046m0 0l-1.383 1.141m0 0l.126.153m0 0l.642-.53m0 0l.067.081m0 0l-.74.611m0 0l.121.146m0 0l.74-.61m0 0l.08.096m0 0l-.601.497m0 0l.107.13m0 0l.601-.496m0 0l.081.098m0 0l-.415.342m0 0l.116.139m0 0l1.422-1.173M285.326 11.46h22.672m0 0v17.004m0-.001h-22.672m0 0V11.46"/></g></g></g></g><path class="st1" d="M248.674 135.965v15.114m0 0h75.195m0 0v-15.114m0 0h-75.195"/></g><g id="walls"><path class="st0" d="M323.762.5v10.959h-12.847v33.063h12.847v3.023h-12.847v40.053h12.847v3.023h-36.577V89.11h-.453v-1.512h21.16V11.459h-84.074v76.139h39.486v1.512h-.453v1.511h-42.056V11.459H157.95V.5h165.812zm0 150.58v10.958h-46.288v22.671H84.383v-10.958h25.32v-22.672h3.023v22.672h135.842V151.08h75.194zm-72.171 22.671h14.925v-19.649h-14.925v19.649z"/><path class="st3" d="M348.387 98.654c-5.509-2.054-9.585-2.891-15.555-3.195"/><path class="st4" d="M348.489 98.699l-1.388-.6-15.781 36.354v.453h1.511z"/><path class="st3" d="M264.779 100.115c-1.262-3.568-1.665-5.645-1.928-9.493"/><path class="st4" d="M264.85 100.28l22.336-9.658-.001-1.512h-.453l-22.482 9.783z"/><path d="M323.762 134.453h9.069v27.585h-9.069v-27.585h0zM24.306 184.709h60.077v-10.958H24.306v-34.239H.5v45.197h23.806zm0-173.25v47.233H.5V.5h157.45v10.959H24.306h0zM323.633.5h9.198v94.959h-1.511v.453h-7.558V11.459h-.129V.5z" fill-rule="evenodd" clip-rule="evenodd" stroke="#000" stroke-miterlimit="3"/><g><path class="st3" d="M8.144 139.433h16.248M.587 139.433h5.668M6.255 139.433h1.889M8.144 58.612h16.248M.587 58.612h5.668M6.255 58.612h1.889M.587 58.612v80.82M24.393 58.612v80.82M8.144 58.612v3.78M8.144 62.392H6.255M6.255 62.392v-3.779M6.255 111.093v-1.89M6.255 109.203h1.889M8.144 109.203v1.89M7.2 62.392v46.812M8.144 62.392v46.812M6.255 109.203V62.391M8.144 111.093v.944M8.144 112.037h-.945M7.2 112.037v.945M7.2 112.983h-.944M6.255 112.983v-1.89M6.255 139.433v-3.779M6.255 135.654h.944M7.2 135.654v.945M7.2 136.599h.945M8.144 136.599v2.834M6.255 135.654v-22.671M9.089 114.871v18.895M9.089 112.037v2.834M9.089 114.871H7.2M7.2 114.871v-2.834M7.2 112.037h1.889M7.2 136.599v-2.834M7.2 133.765h1.889M9.089 133.765v2.834M9.089 136.599H7.2M7.2 133.765v-18.894M9.089 114.871v18.895M8.144 114.871v18.895M6.255 58.612h1.889M6.255 58.612h1.889M.587 58.612h5.668M8.144 58.612h16.248M6.255 139.433h1.889M6.255 139.433h1.889M.587 139.433h5.668M8.144 139.433h16.248"/></g><g><path class="st6" d="M162.137.467l-3.98 3.51M169.567.467l-11.41 10.05M176.987.467l-12.44 10.96M184.417.467l-12.45 10.96M191.827.467l-12.44 10.96M199.247.467l-12.44 10.96M206.677.467l-12.44 10.96M214.097.467l-12.44 10.96M221.517.467l-12.44 10.96M228.947.467l-12.44 10.96M236.367.467l-15.36 13.53M224.027 17.877l-3.02 2.66M243.787.467l-12.44 10.96M224.027 24.417l-3.02 2.66M251.207.467l-12.44 10.96M224.027 30.947l-3.02 2.66M258.627.467l-12.44 10.96M224.027 37.487l-3.02 2.66M266.057.467l-12.44 10.96M224.027 44.027l-3.02 2.66M273.477.467l-12.44 10.96M224.027 50.567l-3.02 2.66M280.907.467l-12.45 10.96M109.967 151.047l-.05.04M224.027 57.107l-3.02 2.66M288.317.467l-12.44 10.96M91.647 173.717l-7.05 6.21M112.937 154.967l-3.02 2.66M224.027 63.647l-3.02 2.66M295.747.467l-12.45 10.96M112.937 161.507l-3.02 2.66M99.067 173.717l-12.44 10.96M224.027 70.177l-3.02 2.66M303.167.467l-12.44 10.96M112.937 168.037l-3.02 2.66M106.497 173.717l-12.44 10.96M224.027 76.717l-3.02 2.66M310.587.467l-12.44 10.96M113.917 173.717l-12.44 10.96M224.027 83.257l-3.02 2.66M318.007.467l-12.44 10.96M121.347 173.717l-12.45 10.96M226.557 87.567l-3.42 3.02M323.977 1.757l-10.98 9.67M311.127 13.077l-3.02 2.66M128.767 173.717l-12.44 10.96M233.987 87.567l-3.43 3.02M323.977 8.297l-3.56 3.13M311.127 19.617l-3.02 2.66M136.187 173.717l-12.44 10.96M241.397 87.567l-3.42 3.02M311.127 26.147l-3.02 2.66M143.607 173.717l-12.44 10.96M248.827 87.567l-3.43 3.02M311.127 32.687l-3.02 2.66M151.027 173.717l-12.44 10.96M256.247 87.567l-3.43 3.02M311.127 39.227l-3.02 2.66M158.447 173.717l-12.44 10.96M312.577 44.487l-4.47 3.94M263.517 87.707l-3.27 2.88M165.877 173.717l-12.44 10.96M311.127 52.307l-3.02 2.66M319.997 44.487l-3.44 3.03M173.297 173.717l-12.44 10.96M311.127 58.847l-3.02 2.66M180.727 173.717l-12.45 10.96M311.127 65.377l-3.02 2.66M188.137 173.717l-12.44 10.96M311.127 71.917l-3.02 2.66M293.357 87.567l-3.43 3.02M195.567 173.717l-12.45 10.96M300.777 87.567l-3.43 3.02M311.127 78.457l-3.02 2.66M202.987 173.717l-12.44 10.96M311.127 84.997l-6.35 5.59M210.407 173.717l-12.44 10.96M315.627 87.567l-3.43 3.02M217.837 173.717l-12.45 10.96M323.057 87.567l-3.43 3.02M250.987 151.047l-2.21 1.95M225.257 173.717l-12.44 10.96M232.677 173.717l-12.44 10.96M258.417 151.047l-3.43 3.02M251.797 156.877l-3.02 2.66M240.097 173.717l-12.44 10.96M265.827 151.047l-3.42 3.02M251.797 163.407l-3.02 2.66M247.517 173.717l-12.44 10.96M273.257 151.047l-6.53 5.75M251.797 169.947l-3.02 2.66M254.937 173.717l-12.44 10.96M280.677 151.047l-13.95 12.29M262.367 173.717l-12.44 10.96M288.097 151.047l-21.37 18.83M295.527 151.047l-12.44 10.96M277.687 166.757l-20.34 17.92M302.947 151.047l-12.44 10.96M277.687 173.297l-12.91 11.38M310.367 151.047l-12.44 10.96M277.687 179.837l-5.5 4.84M317.787 151.047l-12.44 10.96M323.977 152.137l-11.21 9.87M323.977 158.677l-3.79 3.33"/></g><path d="M323.762.5v10.959h-12.847v33.063h12.847v3.023h-12.847v40.053h12.847v3.023h-36.577V89.11h-.453v-1.512h21.16V11.459h-84.074v76.139h39.486v1.512h-.453v1.511h-42.056V11.459H157.95V.5h165.812zm0 150.58v10.958h-46.288v22.671H84.383v-10.958h25.32v-22.672h3.023v22.672h135.842V151.08h75.194zm-72.171 22.671h14.925v-19.649h-14.925v19.649z" fill-rule="evenodd" clip-rule="evenodd" fill="none" stroke="#000" stroke-miterlimit="22.926"/></g><g id="sizes_4_"><path d="M306.11 106.678a2.758 2.758 0 01-1.086-.977c-.279-.427-.465-.94-.559-1.539v-.008h1.594v.008c.057.417.224.741.5.973.276.231.635.348 1.078.348.51 0 .905-.171 1.184-.512.278-.341.418-.821.418-1.441v-.953c0-.614-.14-1.093-.418-1.434-.279-.341-.673-.512-1.184-.512-.276 0-.542.078-.797.234a2.237 2.237 0 00-.672.656h-1.453v-5.984h5.789v1.516h-4.195v2.555a2.275 2.275 0 011.414-.508c.656 0 1.217.136 1.684.406.466.271.82.667 1.063 1.188s.363 1.148.363 1.883v.953c0 .734-.125 1.362-.375 1.883s-.615.918-1.094 1.191c-.479.273-1.055.41-1.727.41-.573 0-1.081-.112-1.527-.336zM313.02 105.303h1.594v1.594l-1.594 1.578v-3.172zM317.626 106.162c-.55-.567-.824-1.359-.824-2.375v-5.164c0-1.021.276-1.813.828-2.379.552-.565 1.356-.848 2.414-.848 1.063 0 1.868.281 2.418.844.549.563.824 1.356.824 2.383v5.164c0 1.021-.276 1.813-.828 2.379-.552.565-1.357.848-2.414.848-1.063 0-1.869-.284-2.418-.852zm3.664-1.105c.268-.294.402-.718.402-1.27v-5.164c0-.552-.133-.976-.398-1.27s-.683-.441-1.25-.441c-.568 0-.984.147-1.25.441s-.398.718-.398 1.27v5.164c0 .552.134.976.402 1.27.268.294.684.441 1.246.441s.977-.147 1.246-.441zM285.347 38.818l3.813-8.227h1.641l-3.719 8.133h5.57v1.477h-7.305v-1.383zm4.898-3.555h1.555v6.688h-1.555v-6.688zM294.449 40.349h1.594v1.594l-1.594 1.578v-3.172zM300.214 42.06l-.727-.348a2.857 2.857 0 01-1.168-1.008c-.294-.44-.48-.97-.559-1.59h1.625c.047.323.148.589.305.797s.358.363.605.465c.247.102.538.152.871.152.526 0 .935-.141 1.227-.422.292-.281.438-.677.438-1.188v-.344c0-.567-.138-1.007-.414-1.316-.276-.31-.667-.465-1.172-.465h-.805v-1.516h.805c.442 0 .786-.133 1.031-.398.245-.266.367-.641.367-1.125v-.352c0-.448-.129-.794-.387-1.039s-.624-.367-1.098-.367c-.271 0-.513.051-.727.152-.214.102-.395.258-.543.469s-.257.476-.324.793h-1.617c.104-.62.301-1.151.59-1.594s.655-.778 1.098-1.008c.442-.229.95-.344 1.523-.344.979 0 1.737.258 2.273.773.536.516.805 1.242.805 2.18v.188c0 .567-.154 1.063-.461 1.484-.308.422-.742.729-1.305.922.62.136 1.1.44 1.441.914.341.474.512 1.078.512 1.813v.188c0 .661-.128 1.227-.383 1.695a2.526 2.526 0 01-1.113 1.07c-.487.245-1.074.367-1.762.367l-.951.002z"/><g><path d="M200.863 107.897h-1.594v-9.625l-1.617.992v-1.648l1.617-1.078h1.594v11.359zM203.269 106.514l3.961-5.281c.229-.302.407-.616.535-.941.127-.325.191-.629.191-.91v-.016c0-.453-.133-.805-.398-1.055s-.644-.375-1.133-.375c-.464 0-.839.137-1.125.41-.287.273-.461.66-.523 1.16v.008h-1.648v-.008c.094-.651.285-1.207.574-1.668s.663-.813 1.121-1.055c.458-.242.987-.363 1.586-.363.677 0 1.255.116 1.734.348.479.231.844.569 1.094 1.012s.375.977.375 1.602v.008c0 .401-.083.82-.25 1.258a5.417 5.417 0 01-.695 1.266l-3.289 4.469h4.297v1.516h-6.406v-1.385zM211.551 106.303h1.594v1.594l-1.594 1.578v-3.172zM216.156 107.162c-.55-.567-.824-1.359-.824-2.375v-5.164c0-1.021.276-1.813.828-2.379.552-.565 1.356-.848 2.414-.848 1.063 0 1.868.281 2.418.844.549.563.824 1.356.824 2.383v5.164c0 1.021-.276 1.813-.828 2.379-.552.565-1.357.848-2.414.848-1.062 0-1.869-.284-2.418-.852zm3.664-1.105c.268-.294.402-.718.402-1.27v-5.164c0-.552-.133-.976-.398-1.27s-.683-.441-1.25-.441c-.568 0-.984.147-1.25.441s-.398.718-.398 1.27v5.164c0 .552.134.976.402 1.27.268.294.684.441 1.246.441s.978-.147 1.246-.441z"/></g><g><path d="M86.899 87.915h-1.594V78.29l-1.617.992v-1.648l1.617-1.078h1.594v11.359zM90.301 87.181c-.55-.567-.824-1.359-.824-2.375v-5.164c0-1.021.276-1.813.828-2.379.552-.565 1.356-.848 2.414-.848 1.063 0 1.868.281 2.418.844.549.563.824 1.356.824 2.383v5.164c0 1.021-.276 1.813-.828 2.379-.552.565-1.357.848-2.414.848-1.062 0-1.869-.285-2.418-.852zm3.664-1.105c.268-.294.402-.718.402-1.27v-5.164c0-.552-.133-.976-.398-1.27s-.683-.441-1.25-.441c-.568 0-.984.147-1.25.441s-.398.718-.398 1.27v5.164c0 .552.134.976.402 1.27.268.294.684.441 1.246.441s.978-.147 1.246-.441zM98.149 86.322h1.594v1.594l-1.594 1.578v-3.172zM102.754 87.181c-.55-.567-.824-1.359-.824-2.375v-5.164c0-1.021.276-1.813.828-2.379.552-.565 1.356-.848 2.414-.848 1.063 0 1.868.281 2.418.844.549.563.824 1.356.824 2.383v5.164c0 1.021-.276 1.813-.828 2.379-.552.565-1.357.848-2.414.848-1.062 0-1.868-.285-2.418-.852zm3.664-1.105c.268-.294.402-.718.402-1.27v-5.164c0-.552-.133-.976-.398-1.27s-.683-.441-1.25-.441c-.568 0-.984.147-1.25.441s-.398.718-.398 1.27v5.164c0 .552.134.976.402 1.27.268.294.684.441 1.246.441s.978-.147 1.246-.441z"/></g></g></svg>