<svg version="1.1" id="_x31_93_1_" xmlns="http://www.w3.org/2000/svg" x="0" y="0" viewBox="0 0 347.99 160.592" xml:space="preserve"><style>.st0{fill-rule:evenodd;clip-rule:evenodd;fill:#fff}.st1,.st3{fill:none;stroke-miterlimit:3}.st1{fill-rule:evenodd;clip-rule:evenodd;stroke-linecap:round;stroke-linejoin:round;stroke:#999}.st3{stroke:#000}.st3,.st4,.st6{fill-rule:evenodd;clip-rule:evenodd}.st6{fill:none;stroke:#666;stroke-width:.6;stroke-miterlimit:22.9256}</style><path class="st0" d="M0 0h331.158v160.592H0z" id="fon"/><g id="mebel_2_"><path class="st1" d="M41.528 10.959v1.89m0 0h48.82m0 0v-1.89m0 0h-48.82M41.528 48.745h24.41m0 0v-26.45m0 0h-24.41m0 0v26.45M65.938 48.745h24.41m0 0v-26.45m0 0h-24.41m0 0v26.45M90.347 48.745h9.598m.001 0V10.959m0 0h-9.598m-.001 0v1.89m0 9.445v26.451M31.93 48.745h9.598m0 0V22.293m0-9.445v-1.889m0 0H31.93m0 0v37.786M65.938 12.848v9.446m0 .001h29.208m0 0v-9.446m0-.001H65.938M65.938 12.848v9.446m0 .001H36.729m0 0v-9.446m0-.001h29.209M45.533 82.564V63.67m0 0H83.32m0 0v18.894m0 0H45.533"/><g><path class="st1" d="M34.395 149.634V134.52m0 0h68.574m-.001 0v15.114m0 0H34.395M90.747 144.754v1.02m0 0H46.378m0 0v-1.02m0 0h44.369M81.286 145.773v.832m0 0l-.152.567m0 0l-.415.415m0 0l-.567.152m0 0H57.453m0 0l-.566-.152m0 0l-.415-.415m0 0l-.152-.567m0 0v-.832m0 0h24.966M90.747 144.456v.298m0 0H46.378m0 0v-.298m0 0h44.369"/><g><path class="st1" d="M323.263 128.663v20.972M323.263 127.151v1.512M323.263 149.634h-83.508M239.755 149.634v-20.971M239.755 128.663v20.972m0 0h83.508m0 0v-20.972m0 0h-83.508M323.263 139.432v-.756m0 0h-83.508m0 0v.756m0 0h83.508M246.341 129.712v18.626m0-.001h.756m0 0v-18.626m0 .001h-.756M248.346 129.712v18.626m0-.001h.756m0 0v-18.626m0 .001h-.756M250.35 129.712v18.626m0-.001h.756m0 0v-18.626m0 .001h-.756M252.355 129.712v18.626m0-.001h.755m0 0v-18.626m0 .001h-.755M256.601 129.847l-2.241 18.491m0-.001l.75.091m0 0l2.241-18.491m0 .001l-.75-.091"/></g><g><path class="st1" d="M236.732 149.634v-20.972m0 .001H113.549m0 0v20.972m0-.001h123.183M113.549 138.865v.756m0 0h123.183m0 0v-.756m0 0H113.549M219.846 148.586V129.96m0 0h-.756m0 0v18.626m0 0h.756M217.841 148.586V129.96m0 0h-.756m0 0v18.626m0 0h.756M215.836 148.586V129.96m0 0h-.755m0 0v18.626m0 0h.755M213.832 148.586V129.96m0 0h-.756m0 0v18.626m0 0h.756M209.586 148.451l2.241-18.491m0 0l-.75-.091m0 0l-2.241 18.491m0 0l.75.091"/></g></g><g><path class="st1" d="M107.881 10.959h113.358m0 0v74.25m0 0h-22.671m0 0V33.631m0 0h-90.687m0 0V10.959M221.239 85.209v-3.022M221.239 10.959v71.228M135.37 31.552h-21.916m0 0V13.036m0 0h21.916m0 0v18.516M124.412 20.272v-5.299M124.412 14.973h-1.096M124.412 20.272h-1.096M115.558 20.272v-5.299M116.654 14.973h-1.096M116.654 20.272h-1.096M133.398 17.407a2.74 2.74 0 11-5.479 0 2.74 2.74 0 015.479 0zM133.354 25.645a3.968 3.968 0 11-7.935 0 3.968 3.968 0 017.935 0z"/><path class="st1" d="M131.654 25.645a2.267 2.267 0 11-4.535.001 2.267 2.267 0 014.535-.001zM122.63 17.591a2.646 2.646 0 11-5.293 0 2.646 2.646 0 015.293 0zM122.268 26.183a3.4 3.4 0 11-6.803-.001 3.4 3.4 0 016.803.001zM140.944 33.631h-33.063M140.944 10.959h-33.063M140.944 33.631V10.958M107.881 33.631V10.958M201.401 41.565v19.271m0 0l.222.535m0 0l.534.221m0 0h17.382m0 0l.534-.221m0 0l.222-.535m0 0V41.565m0 0l-.222-.534m0 0l-.534-.221m0 0h-17.382m0 0l-.534.221m0 0l-.222.534M198.568 39.865v22.672M221.239 39.865v22.672M198.568 39.865h22.671M198.568 62.537h22.671M203.291 43.455v15.492M204.047 59.703h11.714M216.516 58.947v-7.002m0-1.488v-7.002M215.761 42.699h-11.714M203.291 43.454h.141a.141.141 0 10-.283.001.141.141 0 00.283-.001h-.141zM204.047 59.703a.756.756 0 01-.756-.756M216.516 58.947a.755.755 0 01-.755.756M215.761 42.699c.417 0 .755.339.755.756M203.291 43.455c0-.417.338-.756.756-.756M211.684 50.861l-.24.101m0 0l-.099.24m0 0l.1.24m-.001 0l.241.099m.001 0h7.476m-.001 0l.24-.099m.001 0l.1-.241m0 0l-.1-.24m0 0l-.24-.1m-.001 0h-7.478M217.234 50.447v.414m0 0h1.927m0 0l.24.1m0 0l.1.24m0 0l-.1.241m0 0l-.24.099m0 0h-1.927m0 0v.415m0 0h2.456m0 0v-1.509m0 0h-2.456M215.874 50.457v.404m0 0h1.322m0 0v-.404m0 0h-1.322M215.874 51.945h1.322m0 0v-.404m0 0h-1.322m0 0v.404M140.944 33.631h22.671M140.944 10.959h22.671M140.944 33.631V10.958M163.615 33.631V10.958M198.568 62.537v22.672m0 0h22.671m0 0V62.537m0 0h-22.671M213.682 73.873h-7.557M212.576 71.201l-5.344 5.344M209.903 70.094v7.557M207.232 71.201l5.344 5.344M152.534 25.118a3.41 3.41 0 11-6.822 0 3.41 3.41 0 016.822 0z"/><path class="st1" d="M152.013 25.118a2.89 2.89 0 11-5.78 0 2.89 2.89 0 015.78 0zM158.011 25.95a2.58 2.58 0 11-5.16-.001 2.58 2.58 0 015.16.001z"/><path class="st1" d="M156.876 25.95a1.445 1.445 0 11-2.89 0 1.445 1.445 0 012.89 0zM168.943 20.834l1.233.449m0 0h1.312m0 0l1.233-.449m0 0l1.473.342m0 0h1.513m0 0l1.473-.342m0 0l1.235.45m0 0h1.314m0 0l1.234-.45m.001 0l-2.231 2.987m-.001 0h-7.558m0 0l-2.231-2.987M171.175 24.083h7.557m0 0v-.262m0 0h-7.557m0 0v.262M171.175 24.606h7.557m0 0v-.262m0 0h-7.557m0 0v.262M175.794 19.319l-.891-.086m.001 0l-.021.227m-.001 0l.477.045m0 0l-1.384 1.142m0 0l.126.152m0 0l.642-.53m0 0l.067.081m0 0l-.739.612m0 0l.12.146m0 0l.74-.611m0 0l.08.097m.001 0l-.601.496m-.001 0l.107.131m.001 0l.602-.497m0 0l.08.098m-.001 0l-.414.343m0 0l.115.139m0 0l1.422-1.174M163.615 10.959h22.672m0 0v22.672m0 0h-22.672m0 0V10.959M145.054 27.325h.963m0 0v1.204m0 0h12.524m0 0v-1.204m0 0h.964M146.518 17.798l.047.104m.048.102l.047.104m.046.103l.047.104m.048.102l.048.103m.046.104l.048.103m.047.103l.047.103m.046.102l.047.104m.048.103l.047.104m.048.102l.047.104m.046.101l.047.104m.047.104l.048.103m.047.104l.047.102m.048.104l.047.102m.048.103l.046.103m.047.103l.048.102m.046.105l.047.103m.048.103l.048.103M156.152 17.798l-.047.104m-.047.102l-.048.104m-.047.103l-.047.104m-.047.102l-.047.103m-.047.104l-.047.103m-.048.103l-.047.103m-.047.102l-.047.104m-.048.103l-.047.104m-.046.102l-.048.104m-.047.101l-.047.104m-.047.104l-.047.103m-.048.104l-.047.102m-.047.104l-.047.102m-.047.103l-.047.103m-.047.103l-.048.102m-.047.105l-.047.103m-.047.103l-.047.103M146.518 17.798h.078m.112 0h.114m.114 0h.114m.113 0h.078m0 0l.042.052m.071.088l.072.088m.07.088l.071.088m.073.088l.071.089m.072.087l.071.088m.072.089l.071.088m.072.088l.071.087m.071.087l.071.089m.072.089l.072.088m.071.087l.072.088m.07.088l.072.088m.072.088l.071.088m.071.089l.071.088m.073.088l.072.088m.071.088l.072.088m.071.088l.071.088m.071.088l.072.088m.072.088l.071.088m.071.087l.071.088m.072.089l.071.088m.072.087l.072.089m.071.087l.072.088m.07.089l.042.052M156.152 17.798h-.078m-.113 0h-.114m-.113 0h-.113m-.114 0h-.078m0 0l-.042.052m-.071.088l-.071.088m-.072.088l-.071.088m-.072.088l-.071.089m-.072.087l-.071.088m-.072.089l-.071.088m-.071.088l-.072.087m-.071.087l-.072.089m-.071.089l-.072.088m-.071.087l-.071.088m-.072.088l-.071.088m-.072.088l-.071.088m-.072.089l-.071.088m-.072.088l-.071.088m-.072.088l-.071.088m-.071.088l-.072.088m-.071.088l-.072.088m-.072.088l-.071.088m-.071.087l-.071.088m-.072.089l-.071.088m-.072.087l-.072.089m-.071.087l-.071.088m-.071.089l-.042.052M156.152 17.32h-9.634m0 0v.479m0 0h.722m0 0v-.238m0 0h8.189m0 0v.238m0 0h.723m0 0v-.479"/></g><g><path class="st1" d="M178.797 57.813l-4.109-4.109m0 0l-.426-.407m0 0l-.43-.371m0 0l-.424-.328m0 0l-.403-.276m0 0l-.017-.009m0 0l-.375-.216m0 0l-.332-.147m0 0l-.025-.008m0 0l-.281-.075m0 0l-.028-.004m0 0l-.22.002m0 0l-.03.002m0 0l-.029.007m0 0l-.027.013m0 0l-.154.078m0 0l-.024.018m.001 0l-.012.01m-.001 0l-1.133 1.134m0 0l-1.03-1.029m0 0l-5.217 5.217m11.115 11.116l5.217-5.218m0 0l-1.029-1.029m0 0l1.134-1.134m0 0l.011-.011m0 0l.017-.025m0 0l.078-.154m0 0l.013-.027m0 0l.008-.029m0 0l.002-.029m0 0l.001-.221m0 0l-.003-.028m0 0l-.075-.281m0 0l-.008-.025m0 0l-.148-.332m0 0l-.214-.376m0 0l-.011-.016m0 0l-.276-.404m0 0l-.328-.423m0 0l-.371-.429m0 0l-.407-.427M169.65 53.796l9.057 9.057M169.773 53.919l.897-.898M178.582 62.728l.898-.897M174.709 66.849l4.665-4.664M165.653 57.792l4.664-4.664M173.659 54.726l4.117 4.117M170.67 53.021c.354-.354 1.691.409 2.988 1.706M177.775 58.842c1.296 1.296 2.06 2.634 1.705 2.988M142.199 86.195l4.108 4.108m0 0l.427.408m0 0l.43.371m0 0l.423.328m0 0l.404.275m0 0l.016.011m0 0l.376.215m0 0l.332.147m0 0l.024.008m0 0l.281.075m0 0l.029.003m0 0l.22-.001m0 0l.03-.002m0 0l.028-.008m0 0l.027-.012m0 0l.154-.078m0 0l.025-.018m0 0l.011-.011m0 0l1.134-1.133m0 0l1.029 1.029m0 0l5.219-5.218m-11.117-11.114l-5.216 5.217m0 0l1.029 1.029m0 0l-1.135 1.134m0 0l-.01.011m0 0l-.017.025m0 0l-.078.153m0 0l-.013.027m0 0l-.008.03m0 0l-.002.029m0 0l-.001.221m0 0l.003.027m0 0l.074.282m0 0l.009.025m0 0l.147.332m0 0l.215.375m0 0l.01.016m0 0l.276.404m0 0l.329.424m0 0l.371.429m0 0l.407.427M151.346 90.213l-9.057-9.057M151.223 90.088l-.898.898M142.413 81.279l-.897.897M146.286 77.159l-4.664 4.664M155.343 86.215l-4.664 4.665M147.337 89.282l-4.117-4.117M150.325 90.987c-.354.354-1.692-.409-2.988-1.705M143.22 85.165c-1.296-1.296-2.06-2.634-1.705-2.988M146.307 53.704l-4.108 4.109m0 0l-.408.427m0 0l-.371.429m0 0l-.329.423m0 0l-.275.404m0 0l-.01.016m0 0l-.216.376m0 0l-.146.332m0 0l-.009.025m0 0l-.074.281m0 0l-.003.028m0 0l.001.221m0 0l.002.029m0 0l.008.029m0 0l.012.027m0 0l.078.154m0 0l.018.024m0 0l.01.012m0 0l1.134 1.133m0 0l-1.029 1.03m0 0l5.217 5.217m11.115-11.115l-5.218-5.217m0 0l-1.028 1.029m0 0l-1.135-1.134m0 0l-.01-.01m0 0l-.026-.018m0 0l-.153-.078m0 0l-.027-.013m0 0l-.029-.007m0 0l-.029-.002m0 0l-.221-.002m0 0l-.028.004m0 0l-.281.075m0 0l-.025.008m0 0l-.332.147m0 0l-.376.215m0 0l-.015.01m0 0l-.405.276m0 0l-.423.328m0 0l-.429.371m0 0l-.427.407M142.29 62.852l9.057-9.057M142.413 62.728l-.897-.897M151.223 53.919l-.898-.898M155.343 57.792l-4.664-4.664M146.286 66.848l-4.664-4.663M143.22 58.843l4.117-4.117M141.515 61.831c-.354-.354.409-1.692 1.705-2.988M147.336 54.726c1.297-1.296 2.635-2.059 2.988-1.705M174.688 90.303l4.109-4.108m0 0l.408-.427m0 0l.371-.43m0 0l.328-.424m0 0l.275-.403m0 0l.011-.017m0 0l.215-.375m0 0l.147-.332m0 0l.008-.024m0 0l.075-.282m0 0l.003-.028m0 0l-.001-.22m0 0l-.002-.03m0 0l-.008-.029m0 0l-.012-.027m0 0l-.078-.154m0 0l-.018-.024m0 0l-.011-.012m0 0l-1.133-1.133m0 0l1.029-1.03m0 0l-5.218-5.218M164.07 86.692l5.219 5.218m0-.001l1.029-1.029m0 0l1.134 1.134m0 0l.011.011m0 0l.025.017m0 0l.153.078m0 0l.027.013m0 0l.03.008m0 0l.029.002m0 0l.221.001m0 0l.027-.003m0 0l.281-.075m0 0l.026-.008m0 0l.332-.148m0 0l.375-.214m0 0l.016-.011m0 0l.404-.276m0 0l.424-.328m0 0l.429-.371m0 0l.426-.407M178.707 81.156l-9.057 9.057M178.582 81.279l.898.897M169.773 90.088l.897.898M165.653 86.215l4.664 4.665M174.709 77.159l4.665 4.664M177.776 85.165l-4.117 4.117M179.481 82.176c.354.354-.409 1.691-1.705 2.987M173.659 89.281c-1.296 1.296-2.634 2.06-2.988 1.705M175.612 72.003c0 8.348-6.767 15.114-15.114 15.114-8.348 0-15.115-6.766-15.115-15.114 0-8.347 6.767-15.114 15.115-15.114 8.347 0 15.114 6.768 15.114 15.114z"/></g><g><path d="M262.493 82.186l4.09-4.09m30.106-30.107l.189-.189m-41.333 34.386l11.038-11.038m23.159-23.159l4.992-4.992m-46.135 39.189l17.984-17.985m16.212-16.212l11.434-11.435m-52.578 45.632l24.932-24.932m9.265-9.265l10.615-10.615m-51.758 44.812l31.878-31.879m2.318-2.318l10.508-10.508m11.986-11.986l3.338-3.339m-66.975 60.03l47.216-47.217m10.137-10.138l4.992-4.992m-65.841 58.895l49.8-49.8m3.398-3.398l5.697-5.697m-58.895 51.948l51.947-51.948M224.262 64.84l45-45.001m-45 38.054l31.876-31.877m.375-.374l5.803-5.803m-38.054 31.107l24.874-24.873m7.433-7.433l.189-.189m-32.496 25.547l17.926-17.925m14.381-14.381l.189-.189m-32.496 25.549l10.979-10.979m-10.979 4.032l4.033-4.033m66.439-6.025l-.208-.208m-1.076 5.873l-5.872-5.872m-1.894 5.052l-5.053-5.053m14.103 21.049l-3.968-3.968m-11.899-11.898l-5.183-5.183m21.204 28.15l-10.406-10.405m-9.807-9.808l-7.937-7.937m21.202 28.15L275.581 35.63m-.439-.44L259.79 19.839m-3.032-3.032l-.189-.189m24.425 31.371L256.57 23.565m17.477 24.424l-21.916-21.916M267.1 47.989l-21.916-21.916m21.399 28.347l-28.347-28.347m28.347 35.294L231.29 26.073m35.293 42.241l-42.321-42.32m42.321 49.267l-42.321-42.322m42.299 49.247l-42.299-42.3m35.352 42.3l-35.352-35.353m28.405 35.353L224.262 53.78m21.459 28.406l-21.459-21.459m14.511 21.459l-14.511-14.512m7.565 14.512l-7.565-7.565m.617 7.565l-.617-.618" fill-rule="evenodd" clip-rule="evenodd" fill="none" stroke="#999" stroke-width=".4" stroke-linecap="round" stroke-linejoin="round" stroke-miterlimit="3"/><path class="st1" d="M301.347 82.186h-34.764M266.583 82.186V47.989M266.583 47.989h34.764M295.679 75.573a.945.945 0 11-1.89 0 .945.945 0 011.89 0zM288.363 65.617l-.372 1.396m0 0l-.793 1.209m0 0l-1.132.898m0 0l-1.358.496m0 0l-1.445.043m0 0l-1.385-.413m0 0l-1.184-.829m0 0l-.864-1.159m0 0l-.455-1.372m0 0V64.44m0 0l.455-1.372m0 0l.864-1.159m0 0l1.184-.828m0 0l1.385-.414m0 0l1.445.044m0 0l1.358.495m0 0l1.132.898m0 0l.793 1.209m0 0l.372 1.397m0 0h5.538m0 0l-.108-.456m0 0l-.037-.489m0 0l.037-.489m0 0l.108-.456m0 0l.172-.391m0 0l.225-.3m0 0l.261-.189m0 0l.281-.064m0 0h.402m0 0l.12.019m0 0l.278.064m0 0l.103.054m0 0l.251.181m0 0l.071.078m0 0l.204.275m0 0l.157.356m0 0l.052.196m0 0l.059.249m0 0l.688.02m0 0l.796.01m0 0v-1.729m0 0h.435m0 0v-2.872m0 0l.059-.159m0 0l.148-.084m0 0l.167.033m0 0l.105.134m0 0l.158.485m0 0l.315.727m0 0l.574 1.007m0 0l.257.729m0 0h.125m0 0v-.604m0 0h.983m0 0v2.569m0 0h-.878m0 0l-.01.024m0 0l-.027.039m0 0l-.035.032m0 0l-.04.025m0 0l-.673.279m0 0v.697m0 0h1.361m0 0v-1.059m0 0h.302m0 0v3.024m0 0h-.302m0 0v-1.058m0 0h-1.361m0 0v1.436m0 0h-.151m0 0v.416m0 0h.302m0 0v-.152m0 0h.529m0 0v-.604m0 0h.983m0 0v2.569m0 0h-.983m0 0v-.604m0 0h-.529m0 0v-.152m0 0h-.302m0 0v.152m0 0h-1.512m0 0v-2.571m0 0h-2.154m0 0v-.022m0 0v-.06m0 0v-.093m0 0v-.124m0 0v-.149m0 0v-.042m0 0h-7.504M299.684 63.274v.209m0 0l.34-.14m0 0l.053-.326m0 0l-.001-.008m0 0h-.241m0 0v-.151m0 0h-.302m0 0v.416m0 0h.151M299.533 61.799h.241m0 0l-.24-.676m0 0l-.563-.988m0 .001l-.024-.053m0 0v1.567m0 0h.586m0 0v.15M300.364 67.657h-.529M300.364 68.338h-.529M300.364 62v-.351M299.835 62.858v-.189M299.835 62.669v-.68M299.835 61.989v-.014M300.011 62.669h-.176M299.84 61.989h-.005M299.533 61.799v1.06M298.021 64.152v.558M298.947 61.649h-.491M297.455 64.219v.491M298.468 58.853l-.012-.076M300.571 63.002l-.002.048M300.539 62.833l.032.17M300.488 63.548l-.01.047M300.478 63.594l-.009.02M300.239 61.649l.161.453M300.4 62.102l.139.73M300.066 62.958l.011.06M298.468 58.853l.167.512M298.635 59.365l.312.718M300.383 62.059v.001M300.569 63.05l-.082.498M295.966 64.708l.001.002M296.497 64.71l.001-.002M299.136 63.274h.127M299.381 63.274h.103M299.264 63.274h.118M299.684 63.483v.523M299.927 62.236l.139.722M299.773 61.799l.154.438M299.05 63.954v.001M299.095 63.863l-.044.091M299.11 63.765l-.015.098M299.095 63.667l.015.099M299.05 63.576l.044.091M299.051 63.576h.141a.141.141 0 00-.283 0 .142.142 0 00.283 0h-.141zM296.554 63.421l.026.345M296.58 63.765l-.026.345M296.537 63.348l.017.072M296.478 64.432l-.052.195M296.554 64.11l-.077.321M298.883 63.396l-.062-.009M296.426 64.627l-.036.083M296.537 64.181l.688-.02M298.821 64.143l.062-.01M298.883 64.133l.058-.026M298.941 64.107l.049-.042M298.991 64.065l.038-.055M299.029 64.01l.021-.056M299.05 63.954l.003-.007M299.053 63.947l.008-.068M299.061 63.879v-.228M299.061 63.651l-.008-.068M299.053 63.583l-.003-.007M299.05 63.576l-.021-.057M299.029 63.519l-.038-.055M298.991 63.465l-.049-.042M298.941 63.423l-.058-.027M297.225 64.162l1.596-.019M298.021 63.377l.8.011M298.324 63.274v.107M298.324 64.149v.561M288.363 65.617h-5.343M288.363 64.71h-5.343M283.02 65.617v-.907M300.364 68.677v-1.36M299.835 68.526v-1.058M299.533 68.526v-1.058M299.533 67.052h-1.209M298.324 63.274h1.209M301.044 65.617v-.907M299.684 65.617h-3.817M293.901 64.71h5.783M298.324 67.052v-1.436M298.021 66.107v-.49M297.455 66.107v-.49M298.021 64.219h-1.493M285.685 65.617a1.889 1.889 0 110-.907M298.996 67.052a.34.34 0 11-.589 0"/><g><path class="st1" d="M279.742 24.772l-1.645.469m0 0l-1.552.718m0 0l-1.23.968m0 0l-.942 1.248m0 0l-.594 1.449m0 0l-.206 1.55m0 0l.206 1.551m0 0l.594 1.447m0 0l.942 1.249m0 0l1.23.967m0 0l1.552.72m0 0l1.645.468m0 0l1.698.208m0 0l1.709-.06m0 0l11.585-1.223m0 0V25.847m0 0l-11.585-1.223m0 0l-1.709-.059m0 0l-1.698.207M289.012 35.291v-4.116M289.012 31.174v-4.115M274.745 34.238a5.736 5.736 0 01-.886-3.063M281.575 37.486c-2.591.165-5.107-1.031-6.83-3.248M289.012 35.291c-2.252 1.506-4.828 2.266-7.437 2.195M281.575 24.863c2.609-.071 5.185.689 7.437 2.195M274.745 28.111c1.723-2.218 4.238-3.413 6.83-3.248M273.859 31.174a5.728 5.728 0 01.886-3.063M294.545 26.527h.189v9.295h-.189zM294.734 35.822v-9.295m0 0h-.189m0 0v9.295m0 0h.189M294.734 21.727v18.894M299.268 21.727v18.894M294.734 21.727h4.534M294.734 40.621h4.534"/></g><path class="st1" d="M301.347 82.186v-9.447M301.347 47.989v24.75M294.545 47.989h6.802"/><g><path class="st1" d="M224.829 10.959h31.174m0 0l.401.166m0 0l.165.401m0 0v13.981m0 0l-.165.4m0 0l-.401.166m0 0h-31.174m0 0l-.401-.166m0 0l-.165-.4m0 0V11.526m0 0l.165-.401m0 0l.401-.166M225.963 15.115h14m.906 0h14M255.436 15.682v8.69M254.869 24.94h-28.906M225.396 24.373v-8.69M254.869 15.115c.313 0 .567.254.567.567M255.436 24.373a.567.567 0 01-.567.567M225.963 24.94a.567.567 0 01-.567-.567M225.396 15.682c0-.313.254-.567.567-.567M241.172 18.103a.752.752 0 01-.303.605v-1.211a.759.759 0 01.303.606zm-1.209.605a.754.754 0 010-1.21v1.21zM240.87 11.488h-.907m0 0v7.748m0 0l.256.301m0 0h.395m0 0l.256-.301m0 0v-7.748M239.66 11.223h1.512v.264h-1.512zM239.66 11.488h1.512m0 0v-.265m0 0h-1.512m0 0v.265"/><path class="st1" d="M239.282 10.958h2.267v.266h-2.267zM239.282 11.224h2.268m0 0v-.265m0-.001h-2.268m0 0v.265M237.148 12.848v-1.625m0 .001h.095m0 0v-.134m0 0h.283m-.001 0v-.132m0 0h-1.89m.001 0v.132m0 0h.284m-.001 0v.133m0 .001h.094m0 0v1.625m0-.001h.322m0 0v.415m0 0h-1.078m0 0v.491m0 0h2.646m.001 0v-.491m0 0h-1.077m-.001 0v-.415m0 0h.321M243.685 12.848v-1.625m0 .001h-.095m0 0v-.134m0 0h-.283m-.001 0v-.132m0 0h1.89m.001 0v.132m0 0h-.284m-.001 0v.133m0 .001h-.094m0 0v1.625m0-.001h-.322m.001 0v.415m0 0h1.077m0 0v.491m0 0h-2.645m0 0v-.491m0 0h1.077m-.001 0v-.415m0 0h-.321M236.335 13.264l.072.072M236.826 13.264l-.072.072M236.335 12.848h.491M236.014 11.224h1.134M237.242 11.09h-1.323M244.497 13.264l-.072.072M244.006 13.264l.072.072M244.497 12.848h-.491M244.818 11.224h-1.134M243.59 11.09h1.323M236.826 13.509a.245.245 0 11-.491 0 .246.246 0 11.491 0zM244.497 13.509a.245.245 0 11-.491 0 .246.246 0 11.491 0zM224.263 10.959h32.307M256.569 20.028v-3.023M256.569 10.959v6.046"/></g></g></g><g id="walls_1_"><path class="st0" d="M157.45 10.958h63.789v74.25h13.653v.001h1.512v-1.512h-.454v-1.51h-1.058v-.001h-10.63V10.958h32.307v9.069h37.976v27.961h6.801v34.199h-41.061v1.51h-.454v1.512h63.431v-12.47h-12.469V37.221h12.469v-7.558h-21.916v15.302h-3.778V17.004h-37.976v-6.046h63.67V0H157.45v10.958zm165.812 138.675v10.959H157.45v-10.959h79.282v-20.971h3.023v20.971h83.507z"/><path class="st3" d="M347.888 91.359c-5.516-2.059-9.578-2.898-15.556-3.203"/><path class="st4" d="M347.989 91.396l-1.388-.601-15.781 36.356v.454h1.511z"/><path class="st3" d="M339.492 62.654c-2.681.948-4.269 1.272-7.16 1.47"/><path class="st4" d="M339.59 62.621l-7.259-16.786h-1.511v.454l7.332 16.813z"/><path class="st3" d="M258.323 72.63c1.306 3.477 1.704 5.781 1.962 9.556"/><path class="st4" d="M258.286 72.527l-22.335 9.659-.001 1.511h.454l22.482-9.783z"/><path d="M0 160.592v-32.118h23.806v21.159H157.45v10.959H0h0zm323.134-10.959h.129v-22.482h7.558v.454h1.511v32.987h-9.198v-10.959h0zM23.806 10.958v34.387H0V0h157.45v10.958H23.806h0zm308.525 0v34.877h-1.511v.454h-7.558V0h9.069v10.958h0zm0 76.14v1.058h-1.511v.453h-7.558V63.67h7.558v.454h1.511v22.974z" fill-rule="evenodd" clip-rule="evenodd" stroke="#000" stroke-miterlimit="3"/><g><path class="st3" d="M7.645 128.395h16.248M.087 128.395h5.668M5.756 128.395h1.889M7.645 45.265h16.248M.087 45.265h5.668M5.756 45.265h1.889M.087 45.265v83.13M23.893 45.265v83.13M7.645 45.265v3.778M7.645 49.043H5.756M5.756 49.043v-3.778M5.756 100.055v-1.89M5.756 98.165h1.889M7.645 98.165v1.891M6.7 49.043v49.122M7.645 49.043v49.122M5.756 98.165V49.044M7.645 100.055v.944M7.645 101H6.7M6.7 101v.945M6.7 101.945h-.944M5.756 101.945v-1.89M5.756 128.395v-3.779M5.756 124.616H6.7M6.7 124.616v.945M6.7 125.561h.945M7.645 125.561v2.834M5.756 124.616v-22.671M8.589 103.834v18.893M8.589 101v2.834M8.589 103.834H6.7M6.7 103.834V101M6.7 101h1.889M6.7 125.561v-2.834M6.7 122.727h1.889M8.589 122.727v2.834M8.589 125.561H6.7M6.7 122.727v-18.894M8.589 103.834v18.893M7.645 103.834v18.893M5.756 45.265h1.889M5.756 45.265h1.889M.087 45.265h5.668M7.645 45.265h16.248M5.756 128.395h1.889M5.756 128.395h1.889M.087 128.395h5.668M7.645 128.395h16.248"/></g><g><path class="st6" d="M160.576.001l-3.13 2.76M168.006.001l-10.56 9.3M175.426.001l-12.44 10.96M182.846.001l-12.44 10.96M190.266.001l-12.44 10.96M197.686.001l-12.44 10.96M205.116.001l-12.45 10.96M212.536.001l-12.44 10.96M219.956.001l-12.44 10.96M227.386.001l-12.44 10.96M234.796.001l-13.56 11.95M224.266 15.821l-3.03 2.67M242.226.001l-12.44 10.96M224.266 22.361l-3.03 2.67M249.646.001l-12.44 10.96M224.266 28.901l-3.03 2.67M257.066.001l-12.44 10.96M224.266 35.441l-3.03 2.67M264.496.001l-12.45 10.96M224.266 41.981l-3.03 2.67M271.916.001l-15.35 13.52M260.046 17.001l-3.44 3.03M224.266 48.521l-3.03 2.67M279.336.001l-12.44 10.96M267.456 17.001l-3.44 3.03M224.266 55.051l-3.03 2.67M286.756.001l-12.44 10.96M274.886 17.001l-3.44 3.03M224.266 61.591l-3.03 2.67M294.176.001l-12.44 10.96M282.306 17.001l-3.44 3.03M224.266 68.131l-3.03 2.67M301.606.001l-12.45 10.96M289.726 17.001l-3.44 3.03M224.266 74.671l-3.03 2.67M309.026.001l-12.44 10.96M297.156 17.001l-3.44 3.03M224.266 81.211l-3.03 2.67M316.446.001l-12.44 10.96M297.566 23.171l-3.02 2.67M230.576 82.191l-3.43 3.02M323.266.541l-11.83 10.42M323.266 7.071l-4.42 3.89M161.436 149.631l-3.99 3.51M236.276 83.701l-1.72 1.51M297.566 29.711l-3.02 2.66M305.046 29.661l-3.7 3.26M168.856 149.631l-11.41 10.05M297.566 36.251l-3.02 2.66M297.566 42.781l-3.02 2.67M176.276 149.631l-12.44 10.96M312.466 29.661l-11.12 9.79M310.796 37.671l-11.71 10.32M183.706 149.631l-12.45 10.96M319.886 29.661l-8.58 7.56M323.266 33.231l-4.53 3.99M191.126 149.631l-12.44 10.96M267.686 82.191l-3.43 3.02M310.796 44.211l-9.45 8.32M275.106 82.191l-3.43 3.02M198.546 149.631l-12.44 10.96M310.796 50.751l-9.45 8.32M282.526 82.191l-3.42 3.02M205.976 149.631l-12.44 10.96M310.796 57.291l-9.45 8.32M289.946 82.191l-3.43 3.02M237.196 128.661l-.46.4M213.386 149.631l-12.44 10.96M310.796 63.821l-9.45 8.33M297.366 82.191l-3.43 3.02M220.806 149.631l-12.44 10.96M239.756 132.941l-3.02 2.66M310.796 70.361l-9.45 8.32M315.516 72.741l-14.15 12.47M228.236 149.631l-12.44 10.96M239.756 139.481l-3.02 2.66M322.946 72.741l-14.16 12.47M235.656 149.631l-12.44 10.96M239.756 146.021l-3.02 2.66M323.266 79.001l-7.05 6.21M243.086 149.631l-12.44 10.96M250.506 149.631l-12.44 10.96M257.926 149.631l-12.45 10.96M265.346 149.631l-12.44 10.96M272.766 149.631l-12.44 10.96M280.196 149.631l-12.45 10.96M287.616 149.631l-12.44 10.96M295.036 149.631l-12.44 10.96M302.466 149.631l-12.44 10.96M309.876 149.631l-12.44 10.96M317.296 149.631l-12.44 10.96M323.266 150.921l-10.98 9.67M323.266 157.461l-3.56 3.13"/></g><path d="M157.45 10.958h63.789v74.25h13.653v.001h1.512v-1.512h-.454v-1.51h-1.058v-.001h-10.63V10.958h32.307v9.069h37.976v27.961h6.801v34.199h-41.061v1.51h-.454v1.512h63.431v-12.47h-12.469V37.221h12.469v-7.558h-21.916v15.302h-3.778V17.004h-37.976v-6.046h63.67V0H157.45v10.958h0zm165.812 138.675v10.959H157.45v-10.959h79.282v-20.971h3.023v20.971h83.507z" fill-rule="evenodd" clip-rule="evenodd" fill="none" stroke="#000" stroke-miterlimit="22.926"/></g><g id="sizes_3_"><path d="M242.89 124.189l-.727-.348a2.857 2.857 0 01-1.168-1.008c-.294-.44-.48-.97-.559-1.59h1.625c.047.323.148.589.305.797s.358.363.605.465c.247.102.538.152.871.152.526 0 .935-.141 1.227-.422.292-.281.438-.677.438-1.188v-.344c0-.567-.138-1.007-.414-1.316-.276-.31-.667-.465-1.172-.465h-.805v-1.516h.805c.442 0 .786-.133 1.031-.398.245-.266.367-.641.367-1.125v-.352c0-.448-.129-.794-.387-1.039s-.624-.367-1.098-.367c-.271 0-.513.051-.727.152-.214.102-.395.258-.543.469s-.257.476-.324.793h-1.617c.104-.62.301-1.151.59-1.594s.655-.778 1.098-1.008c.442-.229.95-.344 1.523-.344.979 0 1.737.258 2.273.773.536.516.805 1.242.805 2.18v.188c0 .567-.154 1.063-.461 1.484-.308.422-.742.729-1.305.922.62.136 1.1.44 1.441.914.341.474.512 1.078.512 1.813v.188c0 .661-.128 1.227-.383 1.695a2.526 2.526 0 01-1.113 1.07c-.487.245-1.074.367-1.762.367l-.951.002zM249.21 122.478h1.594v1.594l-1.594 1.578v-3.172zM258.858 114.134l-2.937 9.938h-1.695l2.937-9.844h-2.891v1.633h-1.594v-3.148h6.18v1.421zM229.663 67.873l-.727-.348a2.857 2.857 0 01-1.168-1.008c-.294-.44-.48-.97-.559-1.59h1.625c.047.323.148.589.305.797s.358.363.605.465c.247.102.538.152.871.152.526 0 .935-.141 1.227-.422.292-.281.438-.677.438-1.188v-.344c0-.567-.138-1.007-.414-1.316-.276-.31-.667-.465-1.172-.465h-.805V61.09h.805c.442 0 .786-.133 1.031-.398.245-.266.367-.641.367-1.125v-.352c0-.448-.129-.794-.387-1.039s-.624-.367-1.098-.367c-.271 0-.513.051-.727.152-.214.102-.395.258-.543.469s-.257.476-.324.793h-1.617c.104-.62.301-1.151.59-1.594s.655-.778 1.098-1.008c.442-.229.95-.344 1.523-.344.979 0 1.737.258 2.273.773.536.516.805 1.242.805 2.18v.188c0 .567-.154 1.063-.461 1.484-.308.422-.742.729-1.305.922.62.136 1.1.44 1.441.914.341.474.512 1.078.512 1.813v.188c0 .661-.128 1.227-.383 1.695a2.526 2.526 0 01-1.113 1.07c-.487.245-1.074.367-1.762.367l-.951.002zM235.984 66.162h1.594v1.594l-1.594 1.578v-3.172zM241.749 67.873l-.727-.348a2.857 2.857 0 01-1.168-1.008c-.294-.44-.48-.97-.559-1.59h1.625c.047.323.148.589.305.797s.358.363.605.465c.247.102.538.152.871.152.526 0 .935-.141 1.227-.422.292-.281.438-.677.438-1.188v-.344c0-.567-.138-1.007-.414-1.316-.276-.31-.667-.465-1.172-.465h-.805V61.09h.805c.442 0 .786-.133 1.031-.398.245-.266.367-.641.367-1.125v-.352c0-.448-.129-.794-.387-1.039s-.624-.367-1.098-.367c-.271 0-.513.051-.727.152-.214.102-.395.258-.543.469s-.257.476-.324.793h-1.617c.104-.62.301-1.151.59-1.594s.655-.778 1.098-1.008c.442-.229.95-.344 1.523-.344.979 0 1.737.258 2.273.773.536.516.805 1.242.805 2.18v.188c0 .567-.154 1.063-.461 1.484-.308.422-.742.729-1.305.922.62.136 1.1.44 1.441.914.341.474.512 1.078.512 1.813v.188c0 .661-.128 1.227-.383 1.695a2.526 2.526 0 01-1.113 1.07c-.487.245-1.074.367-1.762.367l-.951.002z"/><g><path d="M117.444 124.072h-1.594v-9.625l-1.617.992v-1.648l1.617-1.078h1.594v11.359zM119.866 120.947l3.813-8.227h1.641l-3.719 8.133h5.57v1.477h-7.305v-1.383zm4.899-3.555h1.555v6.688h-1.555v-6.688zM128.968 122.478h1.594v1.594l-1.594 1.578v-3.172zM133.573 123.337c-.55-.567-.824-1.359-.824-2.375v-5.164c0-1.021.276-1.813.828-2.379.552-.565 1.356-.848 2.414-.848 1.063 0 1.868.281 2.418.844.549.563.824 1.356.824 2.383v5.164c0 1.021-.276 1.813-.828 2.379-.552.565-1.357.848-2.414.848-1.062 0-1.868-.284-2.418-.852zm3.664-1.105c.268-.294.402-.718.402-1.27v-5.164c0-.552-.133-.976-.398-1.27s-.683-.441-1.25-.441c-.568 0-.984.147-1.25.441s-.398.718-.398 1.27v5.164c0 .552.134.976.402 1.27.268.294.684.441 1.246.441s.978-.147 1.246-.441z"/></g><g><path d="M201.361 99.155a2.758 2.758 0 01-1.086-.977c-.279-.427-.465-.94-.559-1.539v-.008h1.594v.008c.057.417.224.741.5.973.276.231.635.348 1.078.348.51 0 .905-.171 1.184-.512.278-.341.418-.821.418-1.441v-.953c0-.614-.14-1.093-.418-1.434-.279-.341-.673-.512-1.184-.512-.276 0-.542.078-.797.234a2.237 2.237 0 00-.672.656h-1.453v-5.984h5.789v1.516h-4.195v2.555a2.275 2.275 0 011.414-.508c.656 0 1.217.136 1.684.406.466.271.82.667 1.063 1.188s.363 1.148.363 1.883v.953c0 .734-.125 1.362-.375 1.883s-.615.918-1.094 1.191c-.479.273-1.055.41-1.727.41-.572 0-1.081-.113-1.527-.336zM208.272 97.78h1.594v1.594l-1.594 1.578V97.78zM213.568 99.1a2.86 2.86 0 01-1.207-1.105c-.284-.477-.426-1.03-.426-1.66v-.188c0-.567.142-1.102.426-1.602.284-.5.663-.878 1.137-1.133-.401-.219-.723-.535-.965-.949s-.363-.851-.363-1.309v-.273c0-.594.133-1.116.398-1.566s.641-.8 1.125-1.047 1.047-.371 1.688-.371 1.203.124 1.688.371.859.597 1.125 1.047.398.973.398 1.566v.273c0 .469-.124.909-.371 1.32a2.485 2.485 0 01-.98.938c.479.261.863.64 1.152 1.137s.434 1.03.434 1.598v.188c0 .63-.142 1.184-.426 1.66a2.854 2.854 0 01-1.207 1.105c-.521.261-1.125.391-1.813.391s-1.292-.13-1.813-.391zm2.79-1.359c.281-.146.499-.351.652-.613.153-.263.23-.566.23-.91v-.109c0-.349-.077-.655-.23-.918-.154-.263-.371-.468-.652-.613s-.607-.219-.977-.219-.695.073-.977.219-.499.352-.652.617c-.154.266-.23.573-.23.922v.117c0 .344.077.646.23.906.153.261.371.462.652.605s.606.215.977.215c.37 0 .695-.074.977-.219zm-.133-5.121c.245-.138.435-.335.57-.59.135-.255.203-.55.203-.883v-.109c0-.317-.068-.599-.203-.844a1.406 1.406 0 00-.57-.566 1.74 1.74 0 00-.844-.199 1.74 1.74 0 00-.844.199 1.4 1.4 0 00-.57.566 1.724 1.724 0 00-.203.852v.117c0 .328.067.618.203.871.135.253.325.448.57.586.245.138.526.207.844.207.317 0 .599-.07.844-.207z"/></g></g></svg>