<svg version="1.1" id="_x31_96_1_" xmlns="http://www.w3.org/2000/svg" x="0" y="0" viewBox="0 0 663.205 351.886" xml:space="preserve"><style>.st0,.st1{fill-rule:evenodd;clip-rule:evenodd}.st0{fill:#fff}.st1{stroke:#999;stroke-linecap:round;stroke-linejoin:round}.st1,.st2,.st3{fill:none;stroke-miterlimit:3}.st2{fill-rule:evenodd;clip-rule:evenodd;stroke-width:.4;stroke-linecap:round;stroke-linejoin:round;stroke:#999}.st3{stroke:#000}.st3,.st4,.st6,.st7{fill-rule:evenodd;clip-rule:evenodd}.st6,.st7{fill:none;stroke:#000;stroke-miterlimit:22.9256}.st7{stroke:#666;stroke-width:.6}</style><path class="st0" d="M.932.547h661.45v335.135H.932z" id="fon"/><g id="mebel_1_"><path class="st1" d="M54.917 316.466a3.778 3.778 0 11-7.557 0 3.778 3.778 0 017.557 0z"/><path class="st1" d="M52.272 316.466a1.133 1.133 0 11-2.265 0 1.133 1.133 0 012.265 0zM143.715 316.466a3.777 3.777 0 01-3.778 3.778 3.778 3.778 0 110-7.557 3.778 3.778 0 013.778 3.779z"/><path class="st1" d="M141.07 316.466a1.133 1.133 0 11-2.265 0 1.133 1.133 0 012.265 0zM54.917 316.466a3.778 3.778 0 11-7.557 0 3.778 3.778 0 017.557 0z"/><path class="st1" d="M52.272 316.466a1.133 1.133 0 11-2.265 0 1.133 1.133 0 012.265 0zM143.715 316.466a3.777 3.777 0 01-3.778 3.778 3.778 3.778 0 110-7.557 3.778 3.778 0 013.778 3.779z"/><path class="st1" d="M141.07 316.466a1.133 1.133 0 11-2.265 0 1.133 1.133 0 012.265 0zM61.529 246.561h68.016m0 0v75.573m0 0H61.529m0 0v-75.573M63.419 244.671h64.237m0 0l.723.144m0 0l.613.41m0 .001l.409.613m0-.001l.144.723m0 0H61.529m0 0l.143-.723m.001 0l.41-.613m0 .001l.613-.41m0-.001l.723-.144M61.529 325.912h68.016m0 0v-3.778m0 0H61.529m0 0v3.778M129.545 325.912H61.529m0 0v-1.889m0 0h68.016m0 0v1.889M131.434 325.912h17.003m0 0v-18.893m0 0h-17.003m0 0v18.893M59.64 325.912H42.636m0 0v-18.893m0 0H59.64m0 0v18.893M101.583 320.244h25.695m0 0l.267-.111m0 0l.111-.267m0 0v-12.469m0 0l-.111-.267m0 0l-.267-.111m0 0h-25.695m0 0l-.267.111m0 0l-.111.267m0 0v12.469m0 0l.111.267m0 0l.267.111M89.491 320.244H63.796m0 0l-.267-.111m0 0l-.111-.267m.001 0v-12.469m0 0l.111-.267m-.001 0l.267-.111m0 0h25.695m0 0l.267.111m0 0l.111.267m0 0v12.469m0 0l-.111.267m0 0l-.267.111M61.529 308.042h1.89M89.869 308.042h11.335M127.656 308.042h1.889M61.529 303.033h68.016m0 0v-18.686m0 0l-68.016 14.908m0 0v3.778M47.459 317.326l3.68-.86m0 0l1.583-3.431m0 0l-1.583 3.431m0 0l1.305 3.546M143.615 317.326l-3.679-.86m0 0l-1.584-3.431m0 0l1.584 3.431m0 0l-1.306 3.546M47.459 317.326l3.68-.86m0 0l1.583-3.431m0 0l-1.583 3.431m0 0l1.305 3.546M143.615 317.326l-3.679-.86m0 0l-1.584-3.431m0 0l1.584 3.431m0 0l-1.306 3.546"/><g><path class="st1" d="M228.001 325.954l-68.744-.021M159.257 242.569h22.294M159.257 325.932v-83.363M228.001 314.974v-.756m0 0h-57.03m0 0l-.756.756m0 0h57.786M216.88 305.253v18.626m0 0h-.755m0 0v-18.626m0 0h.755M214.876 305.253v18.626m0 0h-.756m0 0v-18.626m0 0h.756M212.871 305.253v18.626m0 0h-.755m0 0v-18.626m0 0h.755M210.866 305.253v18.626m0 0h-.756m0 0v-18.626m0 0h.756M206.62 305.389l2.241 18.49m0 0l-.75.092m0 0l-2.241-18.491m0 0l.75-.091M181.551 242.569h-22.294m0 0v83.363m0 0h68.744m0 0V303.26m0 0h-46.45m0 0v-60.691M170.215 314.974l.756-.756m0 0v-71.649m0 0h-.756m0 0v72.405M179.936 251.422H161.31m0 0v.755m0 0h18.626m0 0v-.755M179.936 253.427H161.31m0 0v.756m0 0h18.626m0 0v-.756M179.936 255.432H161.31m0 0v.756m0 0h18.626m0 0v-.756M179.936 257.436H161.31m0 0v.755m0 0h18.626m0 0v-.755M179.801 261.681l-18.491-2.241m0 .001l-.091.75m0-.001l18.491 2.241m0 .001l.091-.75"/></g><g><path class="st1" d="M324.195 325.983l-13.252-.004M310.942 325.979l.027-86.434M310.945 313.796v-3.022M333.641 239.546h-22.672m0 0v86.438m0 0h13.226m0 0v1.038m0 0h9.446m0 0v-87.476M321.927 325.983h.756m0 0v-86.438m0 0h-.756m0 0v86.438M331.648 246.133h-18.626m0 0v.756m0 0h18.626m0 0v-.756M331.648 248.138h-18.626m0 0v.755m0 0h18.626m0 0v-.755M331.648 250.142h-18.626m0 0v.756m0 0h18.626m0 0v-.756M331.648 252.147h-18.626m0 0v.756m0 0h18.626m0 0v-.756M331.512 256.393l-18.491-2.241m.001 0l-.091.75m0 0l18.492 2.241m-.001-.001l.09-.75"/></g><g><path class="st1" d="M476.473 319.086v-54.6M476.473 319.086h22.672m0 0v-54.601m0 .001h-22.672m0 0v54.601M487.809 264.485h-.755m0 0v54.601m0 0h.755m0 0v-54.601M478.088 312.5h18.626m0 0v-.756m0 0h-18.626m0 0v.756M478.088 310.495h18.626m0 0v-.755m0 0h-18.626m0 0v.755M478.088 308.49h18.626m0 0v-.756m0 0h-18.626m0 0v.756M478.088 306.486h18.626m0 0v-.756m0 0h-18.626m0 0v.756M478.223 302.24l18.491 2.241m0 0l.091-.75m0 0l-18.491-2.241m0 0l-.091.75"/></g><g><path class="st1" d="M302.467 66.295h3.029m0 0v-.859m0 0V48.261m0 0v-.859m0 0h-3.029M308.923 47.402h-3.427m0 0v.859m0 0h3.224m-.001 0v-.058m0 0l-.196-.293m.001 0l.087-.343m0 0l.312-.165M311.281 48.203l-.196-.293m0 .001l.087-.343m0 0l.312-.165m0 0h-2.562m0 0l-.312.165m.001 0l-.087.343m0 0l.196.293m-.001-.001v17.291m0 .001l-.196.293m.001 0l.087.343m0 0l.312.165m-.001 0h2.562m0 0l-.312-.165m0 0l-.087-.343m0 0l.196-.293m0 0V48.203M308.923 66.295l-.312-.165m0 0l-.087-.342m0 0l.196-.294m-.001.001v-.058m0-.001h-3.224m.001 0v.859m0 0h3.427M311.687 49.066v15.565m0 0l.227-1.004m0 0V50.07m0 0l-.227-1.004M311.687 48.203l.196-.293m0 .001l-.086-.343m0 0l-.313-.165m0 0l-.312.165m0 0l-.087.343m0 0l.196.293m0-.001v17.291m0 .001l-.196.293m0 0l.087.343m0 0l.312.165m0 0l.313-.165m0 0l.086-.343m0 0l-.196-.293m0 0V48.203M302.467 88.212h3.029m0 0v-.859m0 0V70.178m0 0v-.859m0 0h-3.029M308.923 69.319h-3.427m0 0v.859m0 0h3.224m-.001 0v-.058m0 0l-.196-.294m.001 0l.087-.342m0 0l.312-.165M311.281 70.12l-.196-.294m0 0l.087-.342m0 0l.312-.165m0 0h-2.562m0 0l-.312.165m.001 0l-.087.342m0 0l.196.294m-.001 0v17.291m0 0l-.196.293m.001 0l.087.343m0 0l.312.165m-.001 0h2.562m0 0l-.312-.165m0 0l-.087-.343m0 0l.196-.293m0 0V70.12M308.923 88.212l-.312-.165m0 0l-.087-.342m0 0l.196-.294m-.001 0v-.058m0 0h-3.224m.001 0v.859m0 0h3.427M311.687 70.982v15.565m0 0l.227-1.004m0 0V71.987m0 0l-.227-1.005M311.687 70.12l.196-.294m0 0l-.086-.342m0 0l-.313-.165m0 0l-.312.165m0 0l-.087.342m0 0l.196.294m0 0v17.291m0 0l-.196.293m0 0l.087.343m0 0l.312.165m0 0l.313-.165m0 0l.086-.343m0 0l-.196-.293m0 0V70.12M268.46 66.295h-3.029m0 0v-.859m0 0V48.261m0 0v-.859m0 0h3.029M262.004 47.402h3.427m0 0v.859m0 0h-3.224m0 0v-.058m0 0l.196-.293m0 0l-.087-.343m0 0l-.312-.165M259.645 48.203l.196-.293m0 .001l-.086-.343m0 0l-.313-.165m0 0h2.562m0 0l.312.165m0 0l.087.343m0 0l-.196.293m0-.001v17.291m0 .001l.196.293m0 0l-.087.343m0 0l-.312.165m0 0h-2.562m0 0l.313-.165m0 0l.086-.343m0 0l-.196-.293m0 0V48.203M262.004 66.295l.312-.165m0 0l.087-.342m0 0l-.196-.294m0 .001v-.058m0-.001h3.224m0 0v.859m0 0h-3.427M259.24 49.066v15.565m0 0l-.227-1.004m-.001 0V50.07m0 0l.227-1.004M259.24 48.203l-.196-.293m-.001.001l.087-.343m0 0l.312-.165m0 0l.313.165m0 0l.086.343m0 0l-.196.293m0-.001v17.291m0 .001l.196.293m0 0l-.086.343m0 0l-.313.165m0 0l-.312-.165m0 0l-.087-.343m0 0l.196-.293m.001 0V48.203M268.46 88.212h-3.029m0 0v-.859m0 0V70.178m0 0v-.859m0 0h3.029M262.004 69.319h3.427m0 0v.859m0 0h-3.224m0 0v-.058m0 0l.196-.294m0 0l-.087-.342m0 0l-.312-.165M259.645 70.12l.196-.294m0 0l-.086-.342m0 0l-.313-.165m0 0h2.562m0 0l.312.165m0 0l.087.342m0 0l-.196.294m0 0v17.291m0 0l.196.293m0 0l-.087.343m0 0l-.312.165m0 0h-2.562m0 0l.313-.165m0 0l.086-.343m0 0l-.196-.293m0 0V70.12M262.004 88.212l.312-.165m0 0l.087-.342m0 0l-.196-.294m0 0v-.058m0 0h3.224m0 0v.859m0 0h-3.427M259.24 70.982v15.565m0 0l-.227-1.004m-.001 0V71.987m0 0l.227-1.005M259.24 70.12l-.196-.294m-.001 0l.087-.342m0 0l.312-.165m0 0l.313.165m0 0l.086.342m0 0l-.196.294m0 0v17.291m0 0l.196.293m0 0l-.086.343m0 0l-.313.165m0 0l-.312-.165m0 0l-.087-.343m0 0l.196-.293m.001 0V70.12M302.467 91.235h3.029m0 0v.859m0 0v17.175m0 0v.859m0 0h-3.029M308.923 110.128h-3.427m0 0v-.859m0 0h3.224m-.001 0v.058m0 .001l-.196.294m.001-.001l.087.342m0 0l.312.165M311.281 109.327l-.196.294m0 0l.087.342m0 0l.312.165m0 0h-2.562m0 0l-.312-.165m.001 0l-.087-.342m0 0l.196-.294m-.001 0V92.036m0 0l-.196-.293m.001 0l.087-.343m0 0l.312-.165m-.001 0h2.562m0 0l-.312.165m0 0l-.087.343m0 0l.196.293m0 0v17.291M308.923 91.235l-.312.165m0 0l-.087.343m0 0l.196.293m-.001 0v.058m0 0h-3.224m.001 0v-.859m0 0h3.427M311.687 108.465V92.9m0 0l.227 1.004m0 0v13.556m0 0l-.227 1.005M311.687 109.327l.196.294m0 0l-.086.342m0 0l-.313.165m0 0l-.312-.165m0 0l-.087-.342m0 0l.196-.294m0 0V92.036m0 0l-.196-.293m0 0l.087-.343m0 0l.312-.165m0 0l.313.165m0 0l.086.343m0 0l-.196.293m0 0v17.291M268.46 91.235h-3.029m0 0v.859m0 0v17.175m0 0v.859m0 0h3.029M262.004 110.128h3.427m0 0v-.859m0 0h-3.224m0 0v.058m0 .001l.196.294m0-.001l-.087.342m0 0l-.312.165M259.645 109.327l.196.294m0 0l-.086.342m0 0l-.313.165m0 0h2.562m0 0l.312-.165m0 0l.087-.342m0 0l-.196-.294m0 0V92.036m0 0l.196-.293m0 0l-.087-.343m0 0l-.312-.165m0 0h-2.562m0 0l.313.165m0 0l.086.343m0 0l-.196.293m0 0v17.291M262.004 91.235l.312.165m0 0l.087.343m0 0l-.196.293m0 0v.058m0 0h3.224m0 0v-.859m0 0h-3.427M259.24 108.465V92.9m0 0l-.227 1.004m-.001 0v13.556m0 0l.227 1.005M259.24 109.327l-.196.294m-.001 0l.087.342m0 0l.312.165m0 0l.313-.165m0 0l.086-.342m0 0l-.196-.294m0 0V92.036m0 0l.196-.293m0 0l-.086-.343m0 0l-.313-.165m0 0l-.312.165m0 0l-.087.343m0 0l.196.293m.001 0v17.291M268.46 118.441h34.007m0 0V39.09m0 0H268.46m0 0v79.351"/><g><path class="st1" d="M188.528 87.84h4.156M193.44 87.084V47.031M192.684 46.275h-4.156M187.772 47.031v40.054M188.528 46.275h-32.875M155.654 46.275v2.645M155.654 56.049v2.268M156.787 87.84h29.851M187.772 86.706v-28.39M186.638 57.183h-29.851M155.654 58.316v28.39M156.787 47.787h29.851M187.772 48.92v7.129M186.638 57.183h-29.851M155.654 56.049V48.92M186.638 53.077h-29.851M193.44 87.084a.756.756 0 01-.756.756M192.684 46.275c.417 0 .756.338.756.755M187.772 47.031c0-.417.338-.755.756-.755M188.528 87.84a.756.756 0 01-.756-.756M187.772 86.706c0 .626-.508 1.134-1.134 1.134M186.638 57.183c.626 0 1.134.508 1.134 1.134M155.654 58.316c0-.626.508-1.134 1.134-1.134M156.787 87.84a1.134 1.134 0 01-1.134-1.134M186.638 47.787c.626 0 1.134.508 1.134 1.133M187.772 56.049c0 .626-.508 1.134-1.134 1.134M156.787 57.183a1.134 1.134 0 01-1.134-1.134M155.654 48.92c0-.625.508-1.133 1.134-1.133M187.772 51.943c0 .626-.508 1.133-1.134 1.133M156.787 53.077a1.134 1.134 0 01-1.134-1.133M155.654 46.275h-37.786M155.654 46.275v2.645M117.868 46.275v2.645M155.654 56.049v2.268M117.868 56.049v2.268M119.001 87.84h35.519M155.654 86.706v-28.39M154.52 57.183h-35.519M117.868 58.316v28.39M119.001 47.787h35.519M155.654 48.92v7.129M154.52 57.183h-35.519M117.868 56.049V48.92M154.52 53.077h-35.519M155.654 86.706c0 .626-.507 1.134-1.133 1.134M154.52 57.183c.626 0 1.133.508 1.133 1.134M117.868 58.316c0-.626.508-1.134 1.134-1.134M119.001 87.84a1.134 1.134 0 01-1.134-1.134M154.52 47.787c.626 0 1.133.508 1.133 1.133M155.654 56.049c0 .626-.507 1.134-1.133 1.134M119.001 57.183a1.134 1.134 0 01-1.134-1.134M117.868 48.92c0-.625.508-1.133 1.134-1.133M155.654 51.943c0 .626-.507 1.133-1.133 1.133M119.001 53.077a1.134 1.134 0 01-1.134-1.133M47.207 87.84H43.05M42.295 87.084V47.031M43.05 46.275h4.157M47.963 47.031v40.054M47.207 46.275h32.874M80.081 46.275v2.645M80.081 56.049v2.268M78.948 87.84H49.096M47.963 86.706v-28.39M49.096 57.183h29.852M80.081 58.316v28.39M78.948 47.787H49.096M47.963 48.92v7.129M49.096 57.183h29.852M80.081 56.049V48.92M49.096 53.077h29.852M43.05 87.84a.756.756 0 01-.756-.756M42.295 47.031c0-.417.338-.755.756-.755M47.207 46.275c.417 0 .756.338.756.755M47.963 87.084a.757.757 0 01-.756.756M49.096 87.84a1.133 1.133 0 01-1.133-1.134M47.963 58.316c0-.626.507-1.134 1.133-1.134M78.948 57.183c.626 0 1.134.508 1.134 1.134M80.081 86.706c0 .626-.507 1.134-1.134 1.134M47.963 48.92c0-.625.507-1.133 1.133-1.133M49.096 57.183a1.133 1.133 0 01-1.133-1.134M80.081 56.049c0 .626-.507 1.134-1.134 1.134M78.948 47.787c.626 0 1.134.508 1.134 1.133M49.096 53.077a1.133 1.133 0 01-1.133-1.133M80.081 51.943c0 .626-.507 1.133-1.134 1.133M117.868 46.275H80.081M117.868 46.275v2.645M80.081 46.275v2.645M117.868 56.049v2.268M80.081 56.049v2.268M81.214 87.84h35.521M117.868 86.706v-28.39M116.734 57.183h-35.52M80.081 58.316v28.39M81.214 47.787h35.521M117.868 48.92v7.129M116.734 57.183h-35.52M80.081 56.049V48.92M116.734 53.077h-35.52M117.868 86.706c0 .626-.507 1.134-1.133 1.134M116.734 57.183c.626 0 1.133.508 1.133 1.134M80.081 58.316c0-.626.507-1.134 1.133-1.134M81.214 87.84a1.133 1.133 0 01-1.133-1.134M116.734 47.787c.626 0 1.133.508 1.133 1.133M117.868 56.049c0 .626-.507 1.134-1.133 1.134M81.214 57.183a1.133 1.133 0 01-1.133-1.134M80.081 48.92c0-.625.507-1.133 1.133-1.133M117.868 51.943c0 .626-.507 1.133-1.133 1.133M81.214 53.077a1.133 1.133 0 01-1.133-1.133M156.787 102.955h29.849M187.77 101.821V88.973M186.636 87.84h-29.849M155.654 88.974v12.848M187.77 101.821c0 .626-.507 1.134-1.134 1.134M186.636 87.84c.626 0 1.134.507 1.134 1.133M155.654 88.974c0-.626.508-1.133 1.134-1.133M156.787 102.955a1.134 1.134 0 01-1.134-1.134M88.975 120.918v-18.893m0 0h37.903m0 0v18.893m0 0H88.975"/></g><g><path class="st1" d="M42.333 186.079v-15.115m0-.001h151.145m0 0v15.115m0 .001H42.333M140.024 180.442v1.02m0 0H95.655m0 0v-1.02m0 0h44.369M130.563 181.462v.832m0 0l-.152.567m0 0l-.415.414m0 0l-.567.153m0 0H106.73m0 0l-.567-.153m0 0l-.414-.414m0 0l-.152-.567m0 0v-.832m0 0h24.966M140.024 180.144v.298m0 0H95.655m0 0v-.298m0 0h44.369"/></g><g><path class="st1" d="M395.232 24.354v145.853M372.561 170.208h3.023M395.232 170.208h-19.648M376.339 126.565v19.271m0 0l.222.534m0 0l.534.221m0 0h17.382m0 0l.534-.221m0 0l.222-.534m0 0v-19.271m0 0l-.222-.535m0 0l-.534-.221m0 0h-17.382m0 0l-.534.221m0 0l-.222.535M372.561 124.865v22.671M395.232 124.865v22.671M372.561 124.865h22.672M372.561 147.536h22.672M378.229 128.454v15.493M378.985 144.702h11.714M391.454 143.947v-7.002m0-1.568v-6.923M390.698 127.699h-11.714M378.229 128.454h.142a.142.142 0 00-.283 0 .142.142 0 00.283 0h-.142zM378.985 144.702a.756.756 0 01-.756-.756M391.454 143.947a.756.756 0 01-.755.756M390.698 127.699c.417 0 .755.338.755.755M378.229 128.454c0-.417.338-.755.756-.755M386.621 135.86l-.24.101m0 0l-.099.24m0 0l.1.24m0 0l.241.099m0 0h7.476m0 0l.24-.099m0 0l.1-.241m0 0l-.1-.24m0 0l-.24-.1m0 0h-7.478M392.172 135.446v.414m0 0h1.927m0 0l.24.1m0 0l.101.24m0 0l-.101.241m0 0l-.24.099m0 0h-1.927m0 0v.415m0 0h2.457m0 0v-1.509m0 0h-2.457M390.812 135.456v.404m0 0h1.322m0 0v-.404m0 0h-1.322M390.812 136.945h1.322m0 0v-.404m0 0h-1.322m0 0v.404M372.561 102.193v22.672M395.232 102.193v22.672M372.561 102.193h22.672M372.561 124.865h22.672M374.639 63.651v21.916m0 0h18.515m0 0V63.651m0 0h-18.515M385.919 74.609h5.299M391.218 74.609v1.096M385.919 74.609v1.096M385.919 83.463h5.299M391.218 82.367v1.096M385.919 82.367v1.096M391.524 68.363a2.74 2.74 0 11-5.48 0 2.74 2.74 0 015.48 0zM384.513 69.634a3.967 3.967 0 11-7.934 0 3.967 3.967 0 017.934 0z"/><path class="st1" d="M382.813 69.634a2.267 2.267 0 11-4.534 0 2.267 2.267 0 014.534 0zM391.244 79.036a2.645 2.645 0 11-5.29 0 2.645 2.645 0 015.29 0zM383.409 80.154a3.4 3.4 0 11-6.802 0 3.4 3.4 0 016.802 0zM372.561 47.025v55.168M395.232 47.025v55.168M372.561 47.025h22.672M372.561 102.193h22.672M372.561 147.536v22.672m0 0h22.672m0 0v-22.672m0 0h-22.672M387.676 158.873h-7.558M386.568 156.201l-5.343 5.344M383.897 155.094v7.557M381.225 156.201l5.344 5.344M372.561 47.025V24.354m0 0h22.672m0 0v22.671m0 0h-22.672M385.367 110.372a3.41 3.41 0 11-6.822 0 3.41 3.41 0 016.822 0z"/><path class="st1" d="M384.846 110.372a2.89 2.89 0 11-5.78 0 2.89 2.89 0 015.78 0zM383.703 116.681a2.58 2.58 0 11-5.16-.001 2.58 2.58 0 015.16.001z"/><path class="st1" d="M382.568 116.681a1.444 1.444 0 11-2.889.001 1.444 1.444 0 012.889-.001zM379.749 106.303v.963m0 0h-1.205m0 0v12.525m0 0h1.205m0 0v.963M389.753 107.767v9.634m0 0h-.479m0 0v-.722m0 0h.238m0 0v-8.189m0 0h-.238m0 0v-.723m0 0h.479M389.275 107.767l-.103.047m-.103.047l-.104.048m-.103.047l-.103.047m-.103.047l-.103.048m-.103.046l-.103.048m-.103.047l-.103.047m-.103.047l-.103.047m-.103.047l-.103.048m-.103.046l-.103.048m-.104.047l-.102.047m-.104.047l-.103.048m-.103.047l-.103.046m-.103.048l-.103.047m-.104.047l-.103.047m-.103.047l-.103.048m-.103.047l-.103.047m-.103.047l-.103.047M389.275 117.401l-.103-.047m-.103-.047l-.104-.047m-.103-.047l-.103-.048m-.103-.047l-.103-.047m-.103-.047l-.103-.047m-.103-.047l-.103-.048m-.103-.047l-.103-.047m-.103-.047l-.103-.047m-.103-.047l-.103-.047m-.104-.048l-.102-.047m-.104-.047l-.103-.047m-.103-.048l-.103-.046m-.103-.047l-.103-.048m-.104-.047l-.103-.047m-.103-.047l-.103-.047m-.103-.048l-.103-.046m-.103-.048l-.103-.047M389.275 107.767v.078m0 .113v.114m0 .113v.114m0 .113v.078m0 0l-.052.042m-.087.071l-.089.072m-.087.071l-.088.071m-.088.072l-.089.071m-.087.072l-.089.071m-.088.072l-.088.071m-.088.071l-.088.072m-.088.071l-.088.072m-.088.071l-.087.072m-.089.071l-.088.072m-.088.071l-.088.071m-.088.072l-.088.071m-.088.072l-.088.071m-.088.072l-.088.071m-.088.072l-.088.071m-.088.071l-.088.072m-.088.071l-.088.072m-.088.072l-.088.071m-.088.071l-.088.072m-.088.071l-.088.071m-.088.072l-.088.072m-.088.071l-.088.071m-.088.072l-.051.042M389.275 117.401v-.078m0-.113v-.113m0-.113v-.114m0-.114v-.077m0 0l-.052-.042m-.087-.071l-.089-.072m-.087-.072l-.088-.071m-.088-.072l-.089-.071m-.087-.071l-.089-.072m-.088-.071l-.088-.072m-.088-.071l-.088-.072m-.088-.071l-.088-.071m-.088-.072l-.087-.071m-.089-.072l-.088-.071m-.088-.072l-.088-.071m-.088-.072l-.088-.071m-.088-.072l-.088-.071m-.088-.071l-.088-.072m-.088-.071l-.088-.072m-.088-.071l-.088-.072m-.088-.071l-.088-.071m-.088-.072l-.088-.071m-.088-.072l-.088-.071m-.088-.072l-.088-.071m-.088-.072l-.088-.072m-.088-.071l-.088-.071m-.088-.071l-.051-.042"/></g><g><path class="st1" d="M523.139 131a3.778 3.778 0 11-7.557.001 3.778 3.778 0 017.557-.001z"/><path class="st1" d="M520.494 131a1.134 1.134 0 11-2.269 0 1.134 1.134 0 012.269 0zM523.139 42.202a3.778 3.778 0 11-7.557 0 3.778 3.778 0 017.557 0z"/><path class="st1" d="M520.494 42.202a1.134 1.134 0 11-2.269 0 1.134 1.134 0 012.269 0zM449.456 120.608V52.592m0 0h75.573m0 0v68.016m0 0h-75.573M447.567 118.719V54.482m0 0l.144-.722m0 0l.409-.614m0 0l.613-.409m0 0l.723-.144m0 0v68.015m0 0l-.723-.143m0 0l-.613-.41m0 0l-.409-.613m0 0l-.144-.723M528.807 120.608V52.592m0 0h-3.778m0 0v68.016m0 0h3.778M528.807 52.593v68.016m0 0h-1.889m0 0V52.593m0 0h1.889M528.807 50.704V33.701m0 0h-18.893m0 0v17.003m0 0h18.893M528.807 122.498v17.004m0-.001h-18.893m0 0v-17.004m0 .001h18.893M523.139 80.555V54.86m0 0l-.11-.267m0 0l-.268-.111m0 0h-12.47m0 0l-.266.111m0 0l-.111.267m0 0v25.695m0 0l.111.267m0 0l.266.111m0 0h12.47m0 0l.268-.111m0 0l.11-.267M523.139 92.646v25.695m0 0l-.11.267m0 0l-.268.111m0 .001h-12.47m0 0l-.266-.111m0-.001l-.111-.267m0 0V92.646m0 0l.111-.267m0 0l.266-.111m0 .001h12.47m0 0l.268.111m0-.001l.11.267M510.938 120.608v-1.889M510.938 92.269V80.933M510.938 54.483v-1.891M505.928 120.608V52.592m0 0h-18.686m0 0l14.908 68.016m0 0h3.778M520.221 134.679l-.86-3.68m0 0l-3.431-1.583m0 0l3.431 1.583m0 0l3.546-1.305M520.221 38.522l-.86 3.68m0 .001l-3.431 1.583m0-.001l3.431-1.583m0 .001l3.546 1.305"/><g><path class="st1" d="M528.807 139.615h-22.672m0 0v77.637m0 0h22.672m0 0v-77.637M517.471 217.252h.756m0 0v-77.637m0 0h-.756m0 0v77.637M527.193 146.088h-18.627m0 0v.756m0 0h18.627m0 0v-.756M527.193 148.093h-18.627m0 0v.755m0 0h18.627m0 0v-.755M527.193 150.098h-18.627m0 0v.756m0 0h18.627m0 0v-.756M527.193 152.102h-18.627m0 0v.756m0 0h18.627m0 0v-.756M527.057 156.348l-18.491-2.241m0 0l-.091.75m0 0l18.491 2.241m0 0l.091-.75"/></g></g><g><path class="st1" d="M647.267 131a3.778 3.778 0 11-7.557.001 3.778 3.778 0 017.557-.001z"/><path class="st1" d="M644.622 131a1.134 1.134 0 11-2.269 0 1.134 1.134 0 012.269 0zM647.267 42.202a3.778 3.778 0 11-7.557 0 3.778 3.778 0 017.557 0z"/><path class="st1" d="M644.622 42.202a1.134 1.134 0 11-2.269 0 1.134 1.134 0 012.269 0zM573.584 120.608V52.592m0 0h75.572m0 0v68.016m0 0h-75.572M571.695 118.719V54.482m0 0l.144-.722m0 0l.41-.614m-.001 0l.612-.409m0 0l.724-.144m0 0v68.015m0 0l-.724-.143m0 0l-.612-.41m0 0l-.41-.613m.001 0l-.144-.723M652.935 120.608V52.592m0 0h-3.778m0 0v68.016m0 0h3.778M652.935 52.593v68.016m0 0h-1.889m0 0V52.593m0 0h1.889M652.935 50.704V33.701m0 0h-18.893m0 0v17.003m0 0h18.893M652.935 122.498v17.004m0-.001h-18.893m0 0v-17.004m0 .001h18.893M647.267 80.555V54.86m0 0l-.11-.267m0 0l-.268-.111m0 0H634.42m0 0l-.267.111m0 0l-.111.267m0 0v25.695m0 0l.111.267m0 0l.267.111m0 0h12.469m0 0l.268-.111m0 0l.11-.267M647.267 92.646v25.695m0 0l-.11.267m0 0l-.268.111m0 .001H634.42m0 0l-.267-.111m0-.001l-.111-.267m0 0V92.646m0 0l.111-.267m0 0l.267-.111m0 .001h12.469m0 0l.268.111m0-.001l.11.267M635.066 120.608v-1.889M635.066 92.269V80.933M635.066 54.483v-1.891M630.056 120.608V52.592m0 0H611.37m0 0l14.908 68.016m0 0h3.778M644.349 134.679l-.86-3.68m0 0l-3.431-1.583m0 0l3.431 1.583m0 0l3.546-1.305M644.349 38.522l-.86 3.68m0 .001l-3.431 1.583m0-.001l3.431-1.583m0 .001l3.546 1.305"/></g><g><path class="st1" d="M652.935 197.99v19.262M652.935 217.252V194.58m0 0h-70.472m0 0v22.672m0 0h70.472M582.463 205.916v.756m0 0h70.472m0 0v-.756m0 0h-70.472M646.348 215.637v-18.626m0 0h-.756m0 0v18.626m0 0h.756M644.344 215.637v-18.626m0 0h-.756m0 0v18.626m0 0h.756M642.339 215.637v-18.626m0 0h-.756m0 0v18.626m0 0h.756M640.334 215.637v-18.626m0 0h-.756m0 0v18.626m0 0h.756M636.088 215.502l2.242-18.491m0 0l-.751-.091m0 0l-2.241 18.491m0 0l.75.091"/></g><g><path class="st2" d="M261.049 324.378h.005m-.005-11.336h.005m-.005-11.336h25.508m12.608 0h8.78m-76.921-11.336h59.404m4.867 0h12.65m-76.921-11.335h76.921m-76.921-11.337h76.921m-76.921-11.335h.026m30.229 0h46.666m-76.921-11.337h.026m30.229 0h46.666m-16.922 45.099v-47.557m-22.672 68.205v-68.204m-22.672 53.154v-38.04"/><path class="st1" d="M231.617 242.569h29.096m0 0l.401.166m0 0l.165.4m0 0v13.981m0 0l-.165.401m0 0l-.401.166m0 0h-29.096m0 0l-.401-.166m0 0l-.166-.401m0 0v-13.981m0 0l.166-.4m0 0l.401-.166M232.751 246.726h12.961m.905 0h12.961M260.146 247.293v8.691M259.579 256.55h-26.828M232.184 255.983v-8.691M259.579 246.726c.313 0 .567.254.567.567M260.146 255.983a.567.567 0 01-.567.566M232.751 256.55a.567.567 0 01-.567-.566M232.184 247.293c0-.313.253-.567.567-.567M246.618 243.098h-.907m0 0v7.748m0 0l.256.301m0 0h.395m0 0l.256-.301m0 0v-7.748M245.409 242.833h1.511v.264h-1.511zM245.409 243.098h1.512m0 0v-.265m0 0h-1.512m0 0v.265"/><path class="st1" d="M245.031 242.568h2.267v.266h-2.267zM245.031 242.833h2.267m0 0v-.264m0 0h-2.267m0 0v.264M242.896 244.458v-1.625m0 0h.094m0 0v-.132m0 .001h.284m0 0v-.132m0-.001h-1.89m0 0v.132m0 .001h.284m0 0v.132m0-.001h.094m0 0v1.625m0 0h.322m0 0v.416m0 .001h-1.077m0 0v.491m0 0h2.645m0 0v-.491m0 0h-1.077m0 0v-.416m0-.001h.321M249.433 244.458v-1.625m0 0h-.094m0 0v-.132m0 .001h-.283m0 0v-.132m0-.001h1.889m0 0v.132m0 .001h-.283m0 0v.132m0-.001h-.095m0 0v1.625m0 0h-.322m0 0v.416m0 .001h1.078m0 0v.491m0 0h-2.645m0 0v-.491m0 0h1.076m0 0v-.416m0-.001h-.321M242.084 244.874l.072.072M242.575 244.874l-.072.072M242.084 244.458h.491M241.763 242.833h1.133M242.99 242.701h-1.322M250.245 244.874l-.072.072M249.754 244.874l.072.072M250.245 244.458h-.491M250.567 242.833h-1.135M249.339 242.701h1.323M242.575 245.12c0 .135-.11.246-.246.246a.246.246 0 010-.492.245.245 0 01.246.246zM250.245 245.12c0 .135-.11.246-.245.246a.246.246 0 010-.492.245.245 0 01.245.246z"/><g><path class="st1" d="M231.024 325.964v-30.241M231.024 295.723h30.025M261.049 295.723v30.241M238.581 319.351a.945.945 0 11-1.89 0 .945.945 0 011.89 0zM245.662 312.98l-1.397-.372m0 0l-1.209-.793m0 0l-.898-1.132m0 0l-.496-1.358m0 0l-.043-1.445m0 0l.414-1.385m0 0l.828-1.185m0 0l1.159-.863m0 .001l1.372-.455m0-.001h1.446m0 0l1.372.455m0 .001l1.159.863m0-.001l.829 1.185m0 0l.413 1.385m0 0l-.043 1.445m0 0l-.496 1.358m0 0l-.898 1.132m0 0l-1.208.793m0 0l-1.397.372m0 0v5.538m0 0l.455-.108m0 0l.49-.037m0 0l.488.037m0 0l.456.108m0 0l.391.172m0 0l.3.225m0 0l.189.261m0 0l.065.281m0 .001v.401m0-.001l-.02.121m0 0l-.063.277m0 0l-.055.104m0 0l-.181.251m0 .001l-.079.07m0 0l-.273.205m0-.001l-.357.157m0 .001l-.196.051m0 0l-.25.06m0-.001l-.019.688m0 0l-.009.796m0 0h1.728m0 0v.435m0 0h2.872m0 0l.16.058m0 .001l.083.149m0-.001l-.034.166m0 0l-.133.106m0 0l-.485.157m0 0l-.726.315m0 0l-1.008.574m0 0l-.729.258m0 0v.125m0 0h.605m0 0v.982m0 0h-2.57m0 0v-.877m0 0l-.023-.01m0 0l-.039-.028m0 0l-.033-.034m0 0l-.025-.041m0 0l-.278-.672m0 0h-.697m0 0v1.36m0 0h1.057m0 0v.302m0 0h-3.023m0 0v-.302m0 0h1.059m0 0v-1.36m0 0h-1.436m0 0v-.152m0 0h-.416m0 0v.303m0 0h.151m0 0v.529m0 0h.605m0 0v.982m0 0h-2.57m0 0v-.982m0 0h.605m0 0v-.529m0 0h.151m0 0v-.303m0 0h-.151m0 0v-1.511m0 0h2.57m0 0v-2.154m0 .001h.023m0 0h.059m0 0h.093m0 0h.124m0 0h.15m0 0h.042m0 0v-7.504M248.004 324.301h-.209m0 0l.14.341m0 0l.326.053m0 0l.008-.002m0 0v-.241m0 0h.151m0 0v-.302m0 0h-.416m0 0v.151M249.478 324.15v.241m0 0l.677-.24m0 0l.988-.563m0 0l.052-.023m0 0h-1.566m0 0v.585m0 0h-.151M243.621 324.981v-.529M242.941 324.981v-.529M249.278 324.981h.351M248.42 324.452h.188M248.609 324.452h.681M249.289 324.452h.014M248.609 324.628v-.176M249.289 324.458v-.006M249.478 324.15h-1.058M247.126 322.639h-.557M249.629 323.564v-.491M247.059 322.072h-.491M252.425 323.085l.076-.012M248.276 325.188l-.047-.002M248.445 325.156l-.17.032M247.731 325.105l-.046-.01M247.684 325.095l-.02-.009M249.629 324.857l-.453.16M249.177 325.017l-.732.139M248.32 324.684l-.059.011M252.425 323.085l-.512.167M251.913 323.252l-.718.312M249.218 325h-.001M248.228 325.187l-.498-.083M246.571 320.583l-.002.002M246.569 321.114l.002.001M248.004 323.753v.127M248.004 323.999v.103M248.004 323.881v.118M247.795 324.301h-.523M249.042 324.545l-.722.139M249.478 324.391l-.436.154M247.324 323.668v-.001M247.415 323.712l-.091-.044M247.513 323.728l-.098-.017M247.611 323.712l-.098.016M247.702 323.668l-.091.044M247.702 323.668v-.001M247.858 321.171l-.344.026M247.513 321.197l-.345-.026M247.929 321.154l-.071.017M246.847 321.095l-.195-.051M247.168 321.171l-.321-.076M247.882 323.501l.009-.062M246.651 321.044l-.082-.038M247.097 321.154l.02.688M247.135 323.439l.009.061M247.144 323.501l.026.058M247.171 323.559l.042.05M247.213 323.608l.055.038M247.267 323.646l.056.021M247.324 323.668l.007.002M247.331 323.67l.068.008M247.399 323.678h.228M247.626 323.678l.069-.008M247.695 323.67l.007-.003M247.702 323.667l.056-.021M247.759 323.646l.055-.038M247.813 323.608l.042-.05M247.856 323.559l.026-.058M247.116 321.843l.019 1.596M247.901 322.639l-.01.8M248.004 322.941h-.107M247.129 322.941h-.561M245.662 312.98v-5.343M246.569 312.98v-5.343M245.662 307.638h.907M242.601 324.981h1.36M242.752 324.452h1.058M242.752 324.15h1.058M244.226 324.15v-1.209M248.004 322.941v1.209M245.662 325.661h.907M245.662 324.301v-3.817M246.569 318.518v5.783M244.226 322.941h1.436M245.171 322.639h.491M245.171 322.072h.491M247.059 322.639v-1.493M245.662 310.303a1.889 1.889 0 11.907 0M244.226 323.613a.34.34 0 110-.589M261.049 325.964l-30.024-.01M261.055 310.773l-.002 3.022M261.053 313.796l-.004 12.168"/></g><g><path class="st1" d="M299.263 295.971l-.469-1.645m0 0l-.718-1.552m0 0l-.968-1.23m0 0l-1.248-.942m0 0l-1.448-.594m0 0l-1.551-.206m0 0l-1.551.206m0 0l-1.448.594m0 0l-1.248.942m0 0l-.968 1.23m0 0l-.718 1.552m0 0l-.469 1.645m0 0l-.207 1.698m0 0l.059 1.709m0 0l1.223 11.585m0 0h10.654m0 0l1.223-11.585m0 0l.06-1.709m0 0l-.208-1.698M288.744 305.241h4.117M292.861 305.241h4.116M289.797 290.974a5.747 5.747 0 013.064-.887M286.55 297.804c-.166-2.592 1.031-5.107 3.248-6.83M288.744 305.241c-1.505-2.252-2.266-4.828-2.195-7.437M299.173 297.804c.07 2.609-.689 5.185-2.195 7.437M295.925 290.974c2.217 1.723 3.413 4.238 3.248 6.83M292.861 290.087a5.734 5.734 0 013.063.887M288.213 310.773h9.295v.189h-9.295zM288.213 310.962h9.295m0 0v-.189m0 0h-9.295m0 0v.189M302.307 310.962h-18.893M302.307 315.497h-18.893M302.307 310.962v4.534M283.414 310.962v4.534"/></g><g><path class="st2" d="M461.216 311.718l2.599-2.598m-9.545 2.598l9.393-9.393m-31.644 24.696l.189-.189m15.115-15.114l8.573-8.573m-30.824 23.876l.189-.189m15.115-15.114l8.359-8.359m12.026-12.027l3.054-3.054m-45.689 38.743l.189-.189m15.115-15.114l10.761-10.762m10.287-10.287l9.337-9.337m-52.636 45.689l.189-.189m15.114-15.114l16.441-16.441m4.204-4.205l16.688-16.688M419.535 311.718l44.28-44.279M412.589 311.718l47.232-47.232m-54.386 47.438l47.439-47.438m-47.439 40.492l40.492-40.492m-40.492 33.544l33.545-33.545m-33.545 26.599l26.598-26.598m-26.598 19.65l19.652-19.651m-19.652 12.705l12.704-12.704m-12.704 5.756l5.758-5.757m52.622 3.69l-3.69-3.69m3.69 10.638l-10.637-10.637m10.637 17.583l-17.584-17.583m17.584 24.531l-24.531-24.531m19.714 26.66l-26.662-26.66m31.479 38.425l-.544-.544m-11.968-11.968l-25.913-25.914m38.425 45.372l-6.828-6.827m-11.294-11.294l-27.251-27.25m40.287 47.232l-8.13-8.13m-7.788-7.788l-31.314-31.314m40.284 47.232l-46.347-46.346m39.401 46.346l-39.4-39.4m32.453 39.4l-32.453-32.453m25.506 32.453l-25.506-25.506m18.559 25.506l-18.559-18.559m26.916 33.862l-.189-.189m-15.115-15.114l-11.612-11.612m19.969 26.915l-.189-.189M410.1 311.718l-4.665-4.665m13.022 19.968l-.189-.189M411.51 327.021l-.189-.189m-5.886-5.885"/><path class="st1" d="M448.823 290.58l-1.645.468m0 0l-1.552.719m0 0l-1.229.967m0 0l-.944 1.249m0 0l-.593 1.448m0 0l-.206 1.551m0 0l.206 1.551m0 0l.593 1.447m0 0l.944 1.249m0-.001l1.229.967m0 .001l1.552.719m0 0l1.645.469m0 0l1.698.207m0 0l1.709-.059m0 0l11.585-1.223m0-.001v-10.654m0 0l-11.585-1.223m0 .001l-1.709-.06m0 0l-1.698.208M458.093 301.098v-4.116M458.093 296.981v-4.117M443.827 300.045a5.743 5.743 0 01-.887-3.063M450.656 303.293c-2.591.165-5.107-1.031-6.83-3.248M458.093 301.098c-2.253 1.505-4.828 2.266-7.437 2.195M450.656 290.669c2.609-.07 5.185.69 7.437 2.195M443.827 293.918c1.723-2.217 4.238-3.414 6.83-3.249M442.94 296.981a5.738 5.738 0 01.887-3.063M463.626 292.335h.189v9.294h-.189zM463.815 301.629v-9.295m0 0h-.189m0 0v9.295m0 0h.189M463.815 287.535v18.893M468.349 287.535v18.893M463.815 287.535h4.533M463.815 306.428h4.533"/><g><path class="st1" d="M435.097 326.832h-29.095m0 0l-.401-.166m0 0l-.166-.4m0 0v-13.981m0 0l.166-.401m0 0l.401-.166m0 0h29.095m0 0l.401.166m0 0l.166.401m0 0v13.981m0 0l-.166.4m0 0l-.401.166M433.964 322.676h-12.961m-.907 0h-12.961M406.569 322.109v-8.691M407.135 312.851h26.829M434.531 313.418v8.691M407.135 322.676a.567.567 0 01-.566-.566M406.569 313.418c0-.312.254-.566.566-.566M433.964 312.851c.313 0 .567.254.567.566M434.531 322.109a.567.567 0 01-.567.566M421.305 319.687a.757.757 0 01-.302.605v-1.21a.759.759 0 01.302.605zm-1.209.605a.755.755 0 010-1.208v1.208zM420.096 326.303h.907m0 0v-7.748m0 0l-.256-.301m0 0h-.395m0 0l-.256.301m0 0v7.748M419.794 326.303h1.511v.264h-1.511zM421.305 326.303h-1.511m0 0v.265m0 0h1.511m0 0v-.265"/><path class="st1" d="M419.416 326.567h2.267v.266h-2.267zM421.683 326.568h-2.267m0 0v.264m0 0h2.267m0 0v-.264M423.818 324.943v1.625m0 0h-.095m0 0v.132m0 0h-.283m0 0v.132m0 0h1.889m0 0v-.132m0 0h-.283m0 0v-.132m0 0h-.095m0 0v-1.625m0 0h-.321m0 0v-.416m0 0h1.077m0 0v-.491m0 0h-2.645m0 0v.491m0 0h1.077m0 0v.416m0 0h-.321M417.281 324.943v1.625m0 0h.095m0 0v.132m0 0h.283m0 0v.132m0 0h-1.889m-.001 0v-.132m0 0h.283m0 0v-.132m0 0h.095m.001 0v-1.625m0 0h.321m0 0v-.416m0 0h-1.077m0 0v-.491m0 0h2.645m0 0v.491m0 0h-1.077m-.001 0v.416m0 0h.321M424.63 324.527l-.072-.072M424.139 324.527l.072-.072M424.63 324.943h-.491M424.951 326.568h-1.133M423.723 326.7h1.323M416.469 324.527l.072-.072M416.96 324.527l-.072-.072M416.469 324.943h.49M416.147 326.568h1.133M417.375 326.7h-1.322M424.63 324.282a.246.246 0 11-.491-.001.246.246 0 01.491.001zM416.96 324.282a.246.246 0 11-.491-.001.246.246 0 01.491.001zM435.664 311.718h23.428m0 0v15.304m0 0h-23.428m0 0v-15.304"/></g></g><g><path class="st1" d="M571.506 305.559a7.18 7.18 0 11-14.361-.001 7.18 7.18 0 0114.361.001zM558.318 305.043l1.232.449m.001 0h1.313m-.001 0l1.233-.449m0 0l1.473.342m.001 0h1.513m-.001 0l1.473-.342m.001 0l1.235.45m-.001 0h1.313m0 0l1.235-.45m.001 0l-2.232 2.987m0 0h-7.557m0 0l-2.231-2.987M560.55 308.292h7.557m0 0v-.262m0 0h-7.557m0 0v.262M560.55 308.815h7.557m0 0v-.262m0 0h-7.557m0 0v.262M565.169 303.528l-.891-.085m0 0l-.021.226m0 0l.477.045m0 0l-1.383 1.143m0 0l.126.152m0 0l.641-.53m0 0l.068.081m0 0l-.74.611m0 0l.12.146m0 0l.741-.611m0 0l.08.098m0 0l-.602.496m0 0l.108.131m0 0l.601-.497m0 0l.08.097m0 0l-.414.343m0 0l.115.14m0 0l1.422-1.175M552.99 296.414h22.672m.001 0v22.672m0 0H552.99m0 0v-22.672"/><g><path class="st1" d="M627.93 261.484l-1.645.469m0 0l-1.551.718m0 0l-1.231.968m0 0l-.942 1.248m0 0l-.594 1.448m0 0l-.206 1.551m0 0l.206 1.551m0 0l.594 1.447m0 0l.942 1.249m0 0l1.231.967m0 0l1.551.719m0 0l1.645.469m0 0l1.698.207m0 0l1.709-.059m0 0l11.585-1.223m0 0v-10.654m0 0l-11.585-1.223m0 0l-1.709-.06m0 0l-1.698.208M637.2 272.002v-4.117M637.2 267.886v-4.116M622.934 270.949a5.743 5.743 0 01-.887-3.063M629.763 274.197c-2.591.166-5.106-1.031-6.829-3.248M637.2 272.002c-2.253 1.505-4.828 2.265-7.437 2.195M629.763 261.574c2.609-.07 5.185.689 7.437 2.195M622.934 264.822c1.723-2.217 4.238-3.413 6.829-3.248M622.047 267.886a5.732 5.732 0 01.887-3.063M642.733 263.239h.189v9.294h-.189zM642.922 272.534v-9.295m0 0h-.189m0 0v9.295m0 0h.189M642.922 258.439v18.893M647.456 258.439v18.893M642.922 258.439h4.534M642.922 277.332h4.534"/></g><path class="st2" d="M652.882 286.778l.052-.052m-6.999.052l1.321-1.321m-8.267 1.321l3.744-3.744m-10.692 3.744l10.692-10.692m-17.639 10.692l13.063-13.063m-20.01 13.063l12.312-12.312m11.961-11.96l.313-.313m-31.532 24.585l13.632-13.632m11.304-11.304l6.596-6.596m-38.48 31.532l17.67-17.67m7.828-7.827l10.777-10.776m-43.221 36.273l36.274-36.274m-43.221 36.274l37.447-37.447m-44.395 37.447l44.395-44.395m-49.122 42.177l49.122-49.123m-49.122 42.175l49.122-49.122m-49.122 42.176l49.122-49.122m-49.122 42.174l43.443-43.443m-43.443 36.497l36.497-36.496m-36.497 29.548l29.55-29.549m-29.55 22.603l22.603-22.602m-22.603 15.654l15.656-15.655m-15.656 8.709l8.709-8.708m-8.709 1.762l1.762-1.762m47.36 3.484l-3.485-3.485m3.485 10.432l-10.432-10.432m25.358 32.304l-2.075-2.075m-12.851-12.85l-17.38-17.379m32.306 39.252l-9.022-9.022m-5.904-5.904l-24.326-24.326m34.852 41.799l-41.799-41.798m46.199 53.143l-.169-.169m-11.94-11.939l-41.037-41.035m59.557 66.502l-1.321-1.321m-5.09-5.09l-6.454-6.454m-11.338-11.337l-42.3-42.3m59.556 66.502l-12.292-12.293m-7.963-7.961l-43.257-43.257m56.565 63.511l-56.565-56.565m49.617 56.565l-49.618-49.618m42.672 49.618l-42.671-42.671m35.725 42.671l-35.725-35.725m28.778 35.725L578.685 258m21.83 28.778l-21.83-21.83m14.883 21.83l-14.883-14.883m7.937 14.883l-7.937-7.937m.99 7.937l-.99-.99"/><g><path class="st1" d="M642.922 220.842v29.096m0 0l-.167.401m0 0l-.4.165m0 0h-13.981m0 0l-.401-.165m0 0l-.166-.401m0 0v-29.096m0 0l.166-.401m0 0l.401-.165m0 0h13.981m0 0l.4.165m0 0l.167.401M638.765 221.975v12.961m0 .906v12.962M638.198 249.371h-8.69M628.941 248.804v-26.828M629.508 221.409h8.69M638.765 248.804a.566.566 0 01-.566.567M629.508 249.371a.567.567 0 01-.567-.567M628.941 221.975c0-.313.254-.567.567-.567M638.198 221.409c.313 0 .566.253.566.567M636.382 235.842a.754.754 0 01-1.21 0h1.21zm-1.21-.906a.753.753 0 011.209 0h-1.209zM642.393 235.843v-.907m0 0h-7.748m0 0l-.301.257m0 0v.394m0 0l.301.256m0 0h7.748M642.393 234.633h.265v1.512h-.265zM642.393 234.634v1.512m0 0h.265m0 0v-1.512m0 0h-.265"/><path class="st1" d="M642.657 234.255h.265v2.268h-.265zM642.657 234.256v2.268m0 0h.265m0 0v-2.268m0 0h-.265M641.033 232.121h1.625m-.001 0v.094m0 0h.132m0 0v.284m0 0h.133m0 0v-1.89m0 0h-.133m0 0v.284m0 0h-.132m0 0v.094m0 0h-1.625m.001 0v.322m0 0h-.416m0 0v-1.077m0 0h-.491m-.001 0v2.645m0 0h.491m.001 0V231.8m0 0h.416m0 0v.321M641.033 238.658h1.625m-.001 0v-.095m0 0h.132m0 0v-.283m0 0h.133m0 0v1.889m0 0h-.133m0 0v-.283m0 0h-.132m0 0v-.095m0 0h-1.625m.001 0v-.321m0 0h-.416m0 0v1.077m0 0h-.491m-.001 0v-2.645m0 0h.491m.001 0v1.077m0 0h.416m0 0v-.321M640.617 231.309l-.071.072M640.617 231.8l-.071-.072M641.033 231.309v.491M642.657 230.987v1.134M642.789 232.215v-1.322M640.617 239.471l-.071-.072M640.617 238.979l-.071.072M641.033 239.471v-.491M642.657 239.792v-1.133M642.789 238.563v1.323M640.617 231.554a.245.245 0 11-.491 0c0-.135.11-.246.246-.246.135 0 .245.111.245.246zM640.617 239.225a.246.246 0 11-.491 0 .246.246 0 01.491 0z"/></g><g><path class="st1" d="M652.935 313.23h-74.25m0 0v-26.45m0-.001h74.25m0 0v26.45M644.273 288.895l1.074.081m0 0l1.042.238m0 0l.978.389m0 0l.883.53m0 0l.763.652m0 0l.618.755m0 0l.456.836m0 0l.28.891m0 0l.093.918m0 0v11.638m0 0l-.093.919m0 0l-.28.891m0 0l-.456.835m0 0l-.618.756m0 0l-.763.652m0 0l-.883.529m0 0l-.978.389m0 0l-1.042.239m0 0l-1.074.08m0 0h-50.119m0 0l-2.256-.168m0 0l-2.188-.502m0 0l-2.053-.818m0 0l-1.855-1.111m0 0l-1.601-1.369m0 0l-1.3-1.586m-.001 0l-.957-1.755m.001 0l-.586-1.87m0 0l-.197-1.93m0 0l.197-1.929m0 0l.586-1.87m0 0l.957-1.755m-.001 0l1.3-1.587m.001 0l1.601-1.369m0 0l1.855-1.111m0 0l2.053-.818m0 0l2.188-.502m0 0l2.256-.168m0 0h50.119M644.811 300.004a.945.945 0 11-1.89 0 .945.945 0 011.89 0zM637.821 313.23h3.022M652.935 313.23h-12.092M637.821 313.23h-59.136"/></g></g></g></g></g><g id="walls"><path class="st0" d="M307.513 242.6h-76.895c-.002 6.957-.007 19.119-.007 22.409h-1.512v.453h-1.511c0-4.857.004-15.407.006-22.862h-10.201v-3.022h76.139v-6.16h1.512v-.453h1.511v6.613h13.981c-.011 28.791-.018 57.59-.027 86.384h13.618v10.671h-.367v.26H155.798v-10.931h.005v-86.384h25.317v3.022h-22.294v83.362h68.744l.01-33.294h1.512v.454h1.511l-.01 32.84h30.025l.005-15.157h46.869l.021-68.205zm-.026 83.362l.004-12.134H281.82v12.134h25.667zm-28.69 0v-12.134h-15.152l-.004 12.134h15.156zm17.759-123.982h-1.511v-.453h-1.512v-2.57h-137.69V186.11h140.713v15.87zm166.827 109.769v-47.233h-24.495v-1.511h-.454v-1.511h102.033v1.511h-.453v1.511h-63.973v54.602h99.189v-54.602h-7.104v-1.511h-.453v-1.511h7.557v-8.691h1.511v.453h1.511v60.005h74.25v3.023H640.41v10.769h-3.022v-10.769h-59.136l-.001 10.769h-3.022v-4.912H476.04v4.912h-3.023v-12.281h-11.335v12.281h-3.023l-.001-15.304h4.725zm-52.155-50.255v1.511h-.454v1.511h-5.771v-3.022h6.225zm117.147-44.21V24.385h3.023v192.899h4.837v1.511h.454v1.512h-94.476v-1.512h.453v-1.511h85.709zm113.926 68.204h10.203v-3.023h-7.18v-62.158h7.18v-3.023h-84.377v1.511h-.453v1.512h7.557v5.291h1.511v-.454h1.511v-4.836h64.049l-.001 65.18zm-175.895 26.261h6.612v-47.233h-6.612v47.233zm-61.403-91.442v-3.023h5.771l.022 1.509.432.002v1.512h-6.225zm-10.202-21.35h-22.672V170.24h22.672v3.023h-19.649v12.847h19.649v12.847z"/><path class="st3" d="M349.726 351.711c-2.247-6.026-3.121-10.678-3.216-17.101"/><path class="st4" d="M349.756 351.779l36.208-15.658v-1.511h-.454l-36.354 15.782z"/><path class="st3" d="M241.704 267.298c-3.931-1.47-7.602-2.313-12.604-2.232"/><path class="st4" d="M241.769 267.322l-1.387-.6-11.291 25.946v.454h1.511z"/><path class="st3" d="M280.967 230.839c4.872 1.818 8.885 2.313 14.078 2.579"/><path class="st4" d="M280.875 230.799l1.387.6 12.783-29.419v-.453h-1.512z"/><path class="st3" d="M589.314 250.984c-4.238 1.58-7.295 2.159-12.572 2.272"/><path class="st4" d="M589.411 250.947l-11.158-25.804h-1.511v.455l11.282 25.949z"/><g><path class="st3" d="M565.542 204.719c1.812 4.784 2.325 7.465 2.584 12.565v1.511"/><path class="st4" d="M565.507 204.625l-29.272 12.659v1.511h.454l29.418-12.782z"/></g><g><path class="st4" d="M542.322 275.675l25.804-11.159v-1.511h-.453l-25.951 11.283z"/><path class="st3" d="M540.014 263.005v1.512c.235 4.578.675 6.776 2.277 11.072"/></g><g><path class="st3" d="M436.614 275.593c1.485-4.003 2.2-7.809 2.275-12.588"/><path class="st4" d="M436.578 275.675l.6-1.387-25.95-11.283h-.454v1.511z"/></g><g><path class="st3" d="M440.078 204.697c1.794 4.83 2.513 8.54 2.588 14.098"/><path class="st4" d="M440.046 204.625l-29.272 12.659.022 1.509.432.002 29.418-12.782z"/></g><path d="M652.503 24.385h-17.948V.579h28.15v335.542h-276.74v-1.511h-.454v-7.557h9.291v-65.559h10.202v65.559h247.5V24.385h-.001zM.5 298.335h23.806v27.587l131.492.039v10.931l-131.492-.012v.012H.5v-38.557h0zm0-142.643h23.806v30.4h131.461l.077 12.865H24.306v16.248H.5v-59.513h0zM99.879.579h90.687v23.806H99.879V.579h0zm156.813 0h45.343v23.806h-45.343V.579h0zm166.259 23.806V.579h-54.79v23.806h26.64v195.922h10.202V24.385h17.948zM506.081.579v23.806h45.344V.579h-45.344 0zm-182.32 325.383l9.069-.047v1.138h14.139v7.557h-.458v1.511H332.83v.772h-9.068l-.023-.772.022-10.159z" fill-rule="evenodd" clip-rule="evenodd" stroke="#000" stroke-miterlimit="3"/><g><path class="st3" d="M8.144 298.256h16.248M.587 298.256h5.668M6.255 298.256h1.889M8.144 215.126h16.248M.587 215.126h5.668M6.255 215.126h1.889M.587 215.126v83.13M24.393 215.126v83.13M8.144 215.126v3.779M8.144 218.905H6.255M6.255 218.905v-3.779M6.255 269.916v-1.889M6.255 268.027h1.889M8.144 268.027v1.889M7.2 218.905v49.122M8.144 218.905v49.122M6.255 268.027v-49.122M8.144 269.916v.945M8.144 270.861h-.945M7.2 270.861v.945M7.2 271.806h-.944M6.255 271.806v-1.89M6.255 298.256v-3.778M6.255 294.478h.944M7.2 294.478v.944M7.2 295.422h.945M8.144 295.422v2.834M6.255 294.478v-22.672M9.089 273.695v18.893M9.089 270.861v2.834M9.089 273.695H7.2M7.2 273.695v-2.834M7.2 270.861h1.889M7.2 295.422v-2.834M7.2 292.588h1.889M9.089 292.588v2.834M9.089 295.422H7.2M7.2 292.588v-18.893M9.089 273.695v18.893M8.144 273.695v18.893M6.255 215.126h1.889M6.255 215.126h1.889M.587 215.126h5.668M8.144 215.126h16.248M6.255 298.256h1.889M6.255 298.256h1.889M.587 298.256h5.668M8.144 298.256h16.248"/></g><g><path class="st3" d="M190.652 8.057v16.248M190.652.5v5.668M190.652 6.168v1.889M256.778 8.057v16.248M256.778.5v5.668M256.778 6.168v1.889M256.778.5h-66.125M256.778 24.305h-66.125M256.778 8.057H253M252.999 8.057V6.168M252.999 6.168h3.778M218.992 6.168h1.89M220.881 6.168v1.889M220.881 8.057h-1.89M252.999 7.113h-32.117M252.999 8.057h-32.117M220.881 6.168h32.118M218.992 8.057h-.944M218.047 8.057v-.944M218.047 7.113h-.945M217.103 7.113v-.945M217.103 6.168h1.889M190.652 6.168h3.779M194.431 6.168v.945M194.431 7.113h-.945M193.486 7.113v.944M193.486 8.057h-2.833M194.431 6.168h22.671M215.213 9.002H196.32M218.047 9.002h-2.834M215.213 9.002V7.113M215.213 7.113h2.834M218.047 7.113v1.889M193.486 7.113h2.834M196.32 7.113v1.889M196.32 9.002h-2.834M193.486 9.002V7.113M196.32 7.113h18.893M215.213 9.002H196.32M215.213 8.057H196.32M256.778 6.168v1.889M256.778 6.168v1.889M256.778.5v5.668M256.778 8.057v16.248M190.652 6.168v1.889M190.652 6.168v1.889M190.652.5v5.668M190.652 8.057v16.248"/><g><path class="st3" d="M302.122 8.057v16.248M302.122.5v5.668M302.122 6.168v1.889M368.248 8.057v16.248M368.248.5v5.668M368.248 6.168v1.889M368.248.5h-66.126M368.248 24.305h-66.126M368.248 8.057h-3.778M364.469 8.057V6.168M364.469 6.168h3.778M330.461 6.168h1.89M332.351 6.168v1.889M332.351 8.057h-1.89M364.469 7.113h-32.118M364.469 8.057h-32.118M332.351 6.168h32.118M330.461 8.057h-.945M329.517 8.057v-.944M329.517 7.113h-.945M328.572 7.113v-.945M328.572 6.168h1.889M302.122 6.168h3.779M305.9 6.168v.945M305.9 7.113h-.945M304.956 7.113v.944M304.956 8.057h-2.834M305.9 6.168h22.672M326.683 9.002h-18.894M329.517 9.002h-2.834M326.683 9.002V7.113M326.683 7.113h2.834M329.517 7.113v1.889M304.956 7.113h2.833M307.789 7.113v1.889M307.789 9.002h-2.834M304.956 9.002V7.113M307.789 7.113h18.893M326.683 9.002h-18.894M326.683 8.057h-18.894M368.248 6.168v1.889M368.248 6.168v1.889M368.248.5v5.668M368.248 8.057v16.248M302.122 6.168v1.889M302.122 6.168v1.889M302.122.5v5.668M302.122 8.057v16.248"/></g><g><path class="st3" d="M423.038 8.057v16.248M423.038.5v5.668M423.038 6.168v1.889M506.168 8.057v16.248M506.168.5v5.668M506.168 6.168v1.889M506.168.5h-83.13M506.168 24.305h-83.13M506.168 8.057h-3.778M502.389 8.057V6.168M502.389 6.168h3.778M451.377 6.168h1.89M453.267 6.168v1.889M453.267 8.057h-1.89M502.389 7.113h-49.122M502.389 8.057h-49.122M453.267 6.168h49.122M451.377 8.057h-.945M450.432 8.057v-.944M450.432 7.113h-.943M449.488 7.113v-.945M449.488 6.168h1.889M423.038 6.168h3.778M426.816 6.168v.945M426.816 7.113h-.945M425.872 7.113v.944M425.872 8.057h-2.834M426.816 6.168h22.672M447.599 9.002h-18.893M450.432 9.002H447.6M447.599 9.002V7.113M447.599 7.113h2.833M450.432 7.113v1.889M425.872 7.113h2.833M428.706 7.113v1.889M428.706 9.002h-2.834M425.872 9.002V7.113M428.706 7.113h18.893M447.599 9.002h-18.893M447.599 8.057h-18.893M506.168 6.168v1.889M506.168 6.168v1.889M506.168.5v5.668M506.168 8.057v16.248M423.038 6.168v1.889M423.038 6.168v1.889M423.038.5v5.668M423.038 8.057v16.248"/></g><g><path class="st3" d="M634.641 8.057v16.248M634.641.5v5.668M634.641 6.168v1.889M551.511 8.057v16.248M551.511.5v5.668M551.511 6.168v1.889M551.511.5h83.13M551.511 24.305h83.13M551.511 8.057h3.778M555.289 8.057V6.168M555.289 6.168h-3.778M606.301 6.168h-1.89M604.412 6.168v1.889M604.412 8.057h1.89M555.289 7.113h49.123M555.289 8.057h49.123M604.412 6.168h-49.123M606.301 8.057h.945M607.247 8.057v-.944M607.247 7.113h.943M608.191 7.113v-.945M608.191 6.168h-1.89M634.641 6.168h-3.778M630.863 6.168v.945M630.863 7.113h.944M631.807 7.113v.944M631.807 8.057h2.834M630.863 6.168h-22.672M610.081 9.002h18.893M607.247 9.002h2.834M610.081 9.002V7.113M610.081 7.113h-2.834M607.247 7.113v1.889M631.807 7.113h-2.834M628.973 7.113v1.889M628.973 9.002h2.834M631.807 9.002V7.113M628.973 7.113H610.08M610.081 9.002h18.893M610.081 8.057h18.893M551.511 6.168v1.889M551.511 6.168v1.889M551.511.5v5.668M551.511 8.057v16.248M634.641 6.168v1.889M634.641 6.168v1.889M634.641.5v5.668M634.641 8.057v16.248"/></g><g><path class="st3" d="M8.144 155.613h16.248M.587 155.613h5.668M6.255 155.613h1.889M.587 155.613V.5M24.393 155.613V24.305"/><path class="st0" d="M6.255 150.89h1.89v4.723h-1.89z"/><path class="st3" d="M8.144 155.613v-4.724M8.144 150.889H6.255M6.255 150.889v4.724M6.255 8.057v4.723M6.255 12.781h1.889M8.144 12.781V8.057M6.255 6.168v1.889M8.144 150.889V12.78M6.255 12.781v138.108M6.255 155.613h1.889M6.255 155.613h1.889M.587 155.613h5.668M8.144 155.613h16.248M99.965 8.057v16.248M99.965.5v5.668M99.965 6.168v1.889M99.965.5H.587M99.965 24.305H24.392M99.965 8.057h-4.724M95.242 8.057V6.168M95.242 6.168h4.724M8.144 6.168h4.724M12.868 6.168v1.889M12.868 8.057H8.145M6.255 6.168h1.889M95.242 8.057H12.868M12.868 6.168h82.374M99.965 6.168v1.889M99.965 6.168v1.889M99.965.5v5.668M99.965 8.057v16.248"/><g><path class="st6" d="M6.255 67.695h1.89v5.133h-1.89zM6.255 110.202h1.89v5.133h-1.89z"/></g></g></g><g><path class="st7" d="M162.876 186.132l-6.77 5.97M170.306 186.132l-14.2 12.51M177.726 186.132l-14.59 12.85M185.146 186.132l-14.59 12.85M192.566 186.132l-14.59 12.85M199.996 186.132l-14.59 12.85M207.416 186.132l-14.59 12.85M214.836 186.132l-14.59 12.85M161.556 239.602l-5.5 4.84M222.256 186.132l-14.59 12.85M168.986 239.602l-3.43 3.02M159.086 248.322l-3.03 2.67M229.686 186.132l-14.59 12.85M176.406 239.602l-3.43 3.02M159.086 254.862l-3.03 2.67M237.106 186.132l-14.59 12.85M159.086 261.392l-3.03 2.67M181.376 241.762l-.98.86M244.526 186.132l-14.59 12.85M159.086 267.932l-3.03 2.67M251.946 186.132l-14.59 12.85M159.086 274.472l-3.03 2.67M259.366 186.132l-14.58 12.85M159.086 281.012l-3.03 2.67M266.796 186.132l-14.59 12.85M159.086 287.552l-3.03 2.67M274.216 186.132l-14.59 12.85M159.086 294.092l-3.03 2.66M220.936 239.602l-3.28 2.89M281.636 186.132l-14.59 12.85M228.356 239.602l-3.43 3.02M159.086 300.622l-3.03 2.67M289.056 186.132l-14.59 12.85M230.876 243.932l-3.02 2.66M235.786 239.602l-3.43 3.02M159.086 307.172l-3.03 2.66M296.486 186.132l-14.59 12.85M230.866 250.472l-3.02 2.66M243.206 239.602l-3.43 3.02M159.086 313.702l-3.03 2.67M296.816 192.382l-7.5 6.6M296.816 198.912l-2.99 2.64M159.086 320.242l-3.03 2.67M250.626 239.602l-3.42 3.02M230.866 257.012l-3.02 2.66M159.986 325.982l-3.93 3.46M230.866 263.542l-2.2 1.94M258.046 239.602l-3.43 3.02M167.416 325.982l-11.36 10M265.466 239.602l-3.43 3.02M174.836 325.982l-12.41 10.93M272.896 239.602l-3.43 3.02M182.256 325.982l-12.4 10.93M280.316 239.602l-3.43 3.02M531.656 24.732l-3.02 2.66M294.736 233.442l-.94.82M189.686 325.982l-12.41 10.93M287.736 239.602l-3.42 3.02M531.656 31.272l-3.02 2.66M373.876 170.262l-1.49 1.31M197.106 325.982l-12.41 10.93M230.856 296.252l-3.02 2.66M296.816 238.142l-5.08 4.48M531.656 37.812l-3.02 2.66M375.406 175.452l-3.02 2.66M381.296 170.262l-3.43 3.02M230.856 302.792l-3.02 2.66M204.526 325.982l-12.41 10.93M302.586 239.602l-3.43 3.02M531.656 44.352l-3.02 2.66M375.406 181.992l-3.02 2.66M388.716 170.262l-3.42 3.02M230.856 309.332l-3.03 2.66M211.946 325.982l-12.41 10.93M310.006 239.602l-3.43 3.02M531.656 50.882l-3.02 2.66M395.056 171.222l-2.34 2.06M378.126 186.132l-5.74 5.06M230.846 315.872l-3.02 2.66M219.366 325.982l-12.4 10.93M310.796 245.442l-3.02 2.66M531.656 57.422l-3.02 2.66M385.546 186.132l-13.16 11.59M230.846 322.412l-3.02 2.66M226.796 325.982l-12.41 10.93M310.796 251.982l-3.03 2.66M531.656 63.962l-3.02 2.66M392.976 186.132l-14.59 12.85M234.216 325.982l-12.4 10.93M310.786 258.532l-3.02 2.66M310.786 265.072l-3.02 2.66M395.056 190.832l-9.25 8.15M531.656 70.502l-3.02 2.66M241.646 325.982l-12.41 10.93M310.786 271.602l-3.02 2.66M395.056 197.372l-1.83 1.61M531.656 77.042l-3.02 2.66M266.256 310.832l-5.37 4.73M249.056 325.982l-12.41 10.93M310.786 278.142l-3.03 2.67M531.656 83.572l-3.02 2.66M263.906 319.442l-3.03 2.66M256.476 325.982l-12.4 10.93M273.676 310.832l-3.43 3.02M310.776 284.692l-3.02 2.66M531.656 90.112l-3.02 2.66M263.896 325.982l-12.4 10.93M281.096 310.832l-3.42 3.02M310.776 291.232l-3.02 2.66M531.656 96.652l-3.02 2.66M282.076 316.512l-3.02 2.66M271.326 325.982l-12.41 10.93M288.526 310.832l-3.43 3.02M310.776 297.772l-3.03 2.66M531.656 103.192l-3.02 2.66M282.076 323.052l-3.02 2.66M278.746 325.982l-12.4 10.93M295.946 310.832l-3.43 3.02M310.776 304.312l-3.03 2.67M409.546 217.302l-3.44 3.03M531.656 109.732l-3.02 2.66M286.176 325.982l-12.41 10.93M303.366 310.832l-3.42 3.02M310.776 310.852l-3.41 3M531.656 116.272l-3.02 2.66M293.596 325.982l-12.41 10.93M310.766 317.392l-3.02 2.66M531.656 122.812l-3.02 2.66M301.016 325.982l-12.41 10.93M310.766 323.932l-14.74 12.98M531.656 129.342l-3.02 2.67M315.856 325.982l-12.4 10.93M531.656 135.882l-3.02 2.66M323.286 325.982l-12.41 10.93M446.656 217.302l-3.44 3.03M531.656 142.422l-3.02 2.66M531.656 148.962l-3.02 2.66M454.086 217.302l-3.44 3.03M324.386 331.552l-6.08 5.36M531.656 155.502l-3.02 2.66M461.506 217.302l-3.44 3.03M411.316 261.512l-3.44 3.03M531.656 162.042l-3.02 2.66M468.916 217.302l-3.44 3.03M531.656 168.572l-3.02 2.66M476.346 217.302l-3.44 3.03M531.656 175.112l-3.02 2.66M483.766 217.302l-3.44 3.03M531.656 181.652l-3.02 2.66M491.186 217.302l-3.43 3.03M441.006 261.512l-1.86 1.64M498.616 217.302l-3.44 3.03M531.656 188.192l-3.02 2.66M448.426 261.512l-3.44 3.03M506.036 217.302l-3.44 3.03M531.656 194.732l-3.02 2.66M455.846 261.512l-3.44 3.03M513.456 217.302l-3.44 3.03M531.656 201.272l-3.02 2.66M463.266 261.512l-3.44 3.03M466.666 265.062l-3.02 2.66M470.696 261.512l-3.44 3.03M531.656 207.812l-3.02 2.66M520.876 217.302l-3.44 3.03M466.666 271.592l-3.02 2.67M478.116 261.512l-4.84 4.26M531.656 214.342l-3.02 2.66M528.296 217.302l-3.43 3.03M466.666 278.132l-3.02 2.66M476.296 269.652l-3.02 2.66M535.726 217.302l-3.44 3.03M485.536 261.512l-3.44 3.03M466.666 284.672l-3.02 2.66M492.956 261.512l-3.44 3.03M476.296 276.192l-3.02 2.66M466.666 291.212l-3.02 2.66M500.376 261.512l-3.44 3.03M476.296 282.722l-3.02 2.67M466.666 297.752l-3.02 2.66M507.806 261.512l-3.44 3.03M476.296 289.272l-3.02 2.66M466.666 304.292l-3.02 2.66M515.226 261.512l-3.44 3.03M476.296 295.802l-3.02 2.66M461.946 314.982l-3.03 2.67M476.296 302.342l-3.02 2.66M572.836 217.302l-3.44 3.03M522.646 261.512l-3.44 3.03M466.666 310.822l-4.5 3.97M473.016 311.772l-3.43 3.02M530.066 261.512l-3.44 3.03M580.256 217.302l-4.77 4.2M476.296 308.882l-3.02 2.66M461.946 321.522l-3.03 2.67M476.296 315.422l-3.02 2.66M537.496 261.512l-3.44 3.03M587.686 217.302l-3.44 3.03M479.496 319.142l-6.22 5.48M595.106 217.302l-3.44 3.03M486.916 319.142l-3.43 3.02M602.526 217.302l-3.44 3.03M494.336 319.142l-3.43 3.02M609.946 217.302l-3.44 3.03M501.756 319.142l-3.43 3.02M576.996 252.862l-1.51 1.33M617.366 217.302l-3.44 3.03M509.186 319.142l-3.43 3.02M574.606 261.512l-3.44 3.03M624.786 217.302l-3.43 3.03M578.506 258.072l-3.02 2.66M578.506 264.612l-3.02 2.66M632.216 217.302l-3.44 3.03M516.606 319.142l-3.43 3.02M578.506 271.152l-3.02 2.66M639.636 217.302l-3.44 3.03M524.026 319.142l-3.43 3.02M578.506 277.692l-3.02 2.66M647.056 217.302l-4.5 3.96M531.446 319.142l-3.43 3.02M578.516 284.222l-3.03 2.67M652.766 218.812l-1.72 1.52M645.586 225.142l-3.03 2.67M538.876 319.142l-3.43 3.02M578.516 290.752l-3.03 2.67M645.586 231.672l-3.03 2.67M546.296 319.142l-3.43 3.02M578.516 297.292l-3.03 2.67M645.586 238.212l-3.03 2.67M553.716 319.142l-3.43 3.02M578.516 303.832l-3.03 2.67M645.586 244.752l-3.03 2.67M561.136 319.142l-3.43 3.02M578.516 310.372l-3.03 2.67M645.586 251.292l-3.03 2.67M568.566 319.142l-3.43 3.02M578.516 316.912l-5.96 5.25M645.586 257.832l-3.03 2.67M582.636 313.282l-3.43 3.02M590.056 313.282l-3.42 3.02M645.586 264.372l-3.03 2.66M578.506 323.462l-3.02 2.66M597.476 313.282l-3.43 3.02M645.586 270.902l-3.03 2.67M604.896 313.282l-3.43 3.02M645.586 277.442l-3.03 2.67M612.326 313.282l-3.43 3.02M647.276 282.492l-3.43 3.02M619.746 313.282l-3.43 3.02M652.766 284.192l-1.49 1.32M627.166 313.282l-3.43 3.02M634.586 313.282l-3.42 3.02M642.016 313.282l-4.37 3.85M649.436 313.282l-3.43 3.02M640.666 321.012l-3.02 2.66"/></g><path class="st6" d="M307.513 242.6h-76.895c-.002 6.957-.007 19.119-.007 22.409h-1.512v.453h-1.511c0-4.857.004-15.407.006-22.862h-10.201v-3.022h76.139v-6.16h1.512v-.453h1.511v6.613h13.981c-.011 28.791-.018 57.59-.027 86.384h13.618v10.671h-.367v.26H155.798v-10.931h.005v-86.384h25.317v3.022h-22.294v83.362h68.744l.01-33.294h1.512v.454h1.511l-.01 32.84h30.025l.005-15.157h46.869l.021-68.205zm-.026 83.362l.004-12.134H281.82v12.134h25.667zm-28.69 0v-12.134h-15.152l-.004 12.134h15.156zm17.759-123.982h-1.511v-.453h-1.512v-2.57h-137.69V186.11h140.713v15.87zm166.827 109.769v-47.233h-24.495v-1.511h-.454v-1.511h102.033v1.511h-.453v1.511h-63.973v54.602h99.189v-54.602h-7.104v-1.511h-.453v-1.511h7.557v-8.691h1.511v.453h1.511v60.005h74.25v3.023H640.41v10.769h-3.022v-10.769h-59.136l-.001 10.769h-3.022v-4.912H476.04v4.912h-3.023v-12.281h-11.335v12.281h-3.023l-.001-15.304h4.725zm-52.155-50.255v1.511h-.454v1.511h-5.771v-3.022h6.225zm117.147-44.21V24.385h3.023v192.899h4.837v1.511h.454v1.512h-94.476v-1.512h.453v-1.511h85.709zm113.926 68.204l.001-65.181h-64.049v4.836h-1.511v.454h-1.511v-5.291h-7.557v-1.512h.453v-1.511h84.377v3.023h-7.18v62.158h7.18v3.023l-10.203.001zm-175.895 26.261v-47.233h6.612v47.233h-6.612zm-61.403-91.442v-3.023h5.771l.022 1.509.432.002v1.512h-6.225zm-10.202-21.35h-22.672V170.24h22.672v3.023h-19.649v12.847h19.649v12.847z"/></g><g id="sizes"><path d="M273.471 178.37l3.813-8.227h1.641l-3.719 8.133h5.57v1.477h-7.305v-1.383zm4.899-3.554h1.555v6.688h-1.555v-6.688zM282.557 180.113l3.961-5.281c.229-.302.407-.616.535-.941.127-.325.191-.629.191-.91v-.016c0-.453-.133-.805-.398-1.055s-.644-.375-1.133-.375c-.464 0-.839.137-1.125.41-.287.273-.461.66-.523 1.16v.008h-1.648v-.008c.094-.651.285-1.207.574-1.668s.663-.813 1.121-1.055c.458-.242.987-.363 1.586-.363.677 0 1.255.116 1.734.348.479.232.844.569 1.094 1.012.25.443.375.977.375 1.602v.008c0 .401-.083.82-.25 1.258a5.417 5.417 0 01-.695 1.266l-3.289 4.469h4.297v1.516h-6.406v-1.385zM290.838 179.902h1.594v1.594l-1.594 1.578v-3.172zM295.444 180.761c-.55-.567-.824-1.359-.824-2.375v-5.164c0-1.021.276-1.813.828-2.379.552-.565 1.356-.848 2.414-.848 1.063 0 1.868.281 2.418.844.549.563.824 1.357.824 2.383v5.164c0 1.021-.276 1.814-.828 2.379-.552.565-1.357.848-2.414.848-1.063 0-1.869-.284-2.418-.852zm3.664-1.105c.268-.294.402-.717.402-1.27v-5.164c0-.552-.133-.975-.398-1.27-.266-.294-.683-.441-1.25-.441-.568 0-.984.147-1.25.441-.266.294-.398.718-.398 1.27v5.164c0 .552.134.976.402 1.27.268.294.684.441 1.246.441s.977-.147 1.246-.441zM160.154 232.966h-1.594v-9.625l-1.617.992v-1.648l1.617-1.078h1.594v11.359zM164.376 232.747a2.75 2.75 0 01-1.086-.977c-.279-.427-.465-.94-.559-1.539v-.008h1.594v.008c.057.417.224.741.5.973.276.232.635.348 1.078.348.51 0 .905-.17 1.184-.512.278-.341.418-.821.418-1.441v-.953c0-.614-.14-1.092-.418-1.434-.279-.341-.673-.512-1.184-.512-.276 0-.542.078-.797.234a2.237 2.237 0 00-.672.656h-1.453v-5.984h5.789v1.516h-4.195v2.555a2.275 2.275 0 011.414-.508c.656 0 1.217.136 1.684.406.466.271.82.667 1.063 1.188.242.521.363 1.148.363 1.883v.953c0 .734-.125 1.362-.375 1.883-.25.521-.615.918-1.094 1.191-.479.273-1.055.41-1.727.41-.573 0-1.081-.113-1.527-.336zM171.286 231.372h1.594v1.594l-1.594 1.578v-3.172zM180.935 223.028l-2.938 9.938h-1.695l2.938-9.844h-2.891v1.633h-1.594v-3.148h6.18v1.421z"/><g><path d="M287.414 258.241l-.727-.348a2.857 2.857 0 01-1.168-1.008c-.294-.44-.48-.97-.559-1.59h1.625c.047.323.148.589.305.797.156.208.358.363.605.465.247.102.538.152.871.152.526 0 .935-.141 1.227-.422.292-.281.438-.677.438-1.188v-.344c0-.567-.138-1.006-.414-1.316-.276-.31-.667-.465-1.172-.465h-.805v-1.516h.805c.442 0 .786-.133 1.031-.398.245-.266.367-.641.367-1.125v-.352c0-.448-.129-.794-.387-1.039-.258-.245-.624-.367-1.098-.367-.271 0-.513.051-.727.152-.214.102-.395.258-.543.469s-.257.476-.324.793h-1.617c.104-.62.301-1.151.59-1.594a2.893 2.893 0 011.098-1.008c.442-.229.95-.344 1.523-.344.979 0 1.737.258 2.273.773.536.516.805 1.242.805 2.18v.188c0 .568-.154 1.063-.461 1.484-.308.422-.742.729-1.305.922.62.136 1.1.44 1.441.914.341.474.512 1.078.512 1.813v.188c0 .662-.128 1.227-.383 1.695a2.52 2.52 0 01-1.113 1.07c-.487.245-1.074.367-1.762.367l-.951.002zM293.735 256.531h1.594v1.594l-1.594 1.578v-3.172zM299.032 257.851a2.855 2.855 0 01-1.207-1.105c-.284-.477-.426-1.03-.426-1.66v-.188c0-.567.142-1.102.426-1.602.284-.5.663-.877 1.137-1.133-.401-.219-.723-.535-.965-.949s-.363-.85-.363-1.309v-.273c0-.594.133-1.116.398-1.566.266-.45.641-.799 1.125-1.047.484-.247 1.047-.371 1.688-.371s1.203.124 1.688.371c.484.248.859.597 1.125 1.047.266.451.398.973.398 1.566v.273c0 .469-.124.909-.371 1.32a2.478 2.478 0 01-.98.938c.479.261.863.64 1.152 1.137a3.13 3.13 0 01.434 1.598v.188c0 .63-.142 1.184-.426 1.66a2.854 2.854 0 01-1.207 1.105c-.521.261-1.125.391-1.813.391s-1.293-.13-1.813-.391zm2.789-1.36c.281-.146.499-.35.652-.613.153-.263.23-.566.23-.91v-.109c0-.349-.077-.655-.23-.918a1.582 1.582 0 00-.652-.613 2.09 2.09 0 00-.977-.219c-.37 0-.695.073-.977.219a1.573 1.573 0 00-.652.617c-.154.266-.23.573-.23.922v.117c0 .344.077.646.23.906.153.261.371.462.652.605.281.144.606.215.977.215.37 0 .695-.073.977-.219zm-.133-5.121c.245-.138.435-.334.57-.59.135-.255.203-.549.203-.883v-.109c0-.317-.068-.599-.203-.844a1.406 1.406 0 00-.57-.566 1.74 1.74 0 00-.844-.199 1.74 1.74 0 00-.844.199 1.406 1.406 0 00-.57.566 1.726 1.726 0 00-.203.852v.117c0 .328.067.619.203.871.135.253.325.448.57.586.245.138.526.207.844.207.317 0 .599-.068.844-.207z"/></g><g><path d="M371.5 314.775a2.855 2.855 0 01-1.207-1.105c-.284-.477-.426-1.03-.426-1.66v-.188c0-.567.142-1.102.426-1.602.284-.5.663-.877 1.137-1.133-.401-.219-.723-.535-.965-.949s-.363-.85-.363-1.309v-.273c0-.594.133-1.116.398-1.566.266-.45.641-.799 1.125-1.047.484-.247 1.047-.371 1.688-.371s1.203.124 1.688.371c.484.248.859.597 1.125 1.047.266.451.398.973.398 1.566v.273c0 .469-.124.909-.371 1.32a2.478 2.478 0 01-.98.938c.479.261.863.64 1.152 1.137a3.13 3.13 0 01.434 1.598v.188c0 .63-.142 1.184-.426 1.66a2.854 2.854 0 01-1.207 1.105c-.521.261-1.125.391-1.813.391s-1.292-.131-1.813-.391zm2.789-1.36c.281-.146.499-.35.652-.613.153-.263.23-.566.23-.91v-.109c0-.349-.077-.655-.23-.918a1.582 1.582 0 00-.652-.613 2.09 2.09 0 00-.977-.219c-.37 0-.695.073-.977.219a1.573 1.573 0 00-.652.617c-.154.266-.23.573-.23.922v.117c0 .344.077.646.23.906.153.261.371.462.652.605.281.144.606.215.977.215.37 0 .696-.073.977-.219zm-.132-5.121c.245-.138.435-.334.57-.59.135-.255.203-.549.203-.883v-.109c0-.317-.068-.599-.203-.844a1.406 1.406 0 00-.57-.566 1.74 1.74 0 00-.844-.199 1.74 1.74 0 00-.844.199 1.406 1.406 0 00-.57.566 1.726 1.726 0 00-.203.852v.117c0 .328.067.619.203.871.135.253.325.448.57.586.245.138.526.207.844.207.317 0 .598-.069.844-.207zM378.828 313.454h1.594v1.594l-1.594 1.578v-3.172zM383.434 314.314c-.55-.567-.824-1.359-.824-2.375v-5.164c0-1.021.276-1.813.828-2.379.552-.565 1.356-.848 2.414-.848 1.063 0 1.868.281 2.418.844.549.563.824 1.357.824 2.383v5.164c0 1.021-.276 1.814-.828 2.379-.552.565-1.357.848-2.414.848-1.063-.001-1.869-.284-2.418-.852zm3.664-1.106c.268-.294.402-.717.402-1.27v-5.164c0-.552-.133-.975-.398-1.27-.266-.294-.683-.441-1.25-.441-.568 0-.984.147-1.25.441-.266.294-.398.718-.398 1.27v5.164c0 .552.134.976.402 1.27.268.294.684.441 1.246.441s.977-.146 1.246-.441z"/></g><g><path d="M207.602 257.057l-.727-.348a2.857 2.857 0 01-1.168-1.008c-.294-.44-.48-.97-.559-1.59h1.625c.047.323.148.589.305.797.156.208.358.363.605.465.247.102.538.152.871.152.526 0 .935-.141 1.227-.422.292-.281.438-.677.438-1.188v-.344c0-.567-.138-1.006-.414-1.316-.276-.31-.667-.465-1.172-.465h-.805v-1.516h.805c.442 0 .786-.133 1.031-.398.245-.266.367-.641.367-1.125v-.352c0-.448-.129-.794-.387-1.039-.258-.245-.624-.367-1.098-.367-.271 0-.513.051-.727.152-.214.102-.395.258-.543.469s-.257.476-.324.793h-1.617c.104-.62.301-1.151.59-1.594a2.893 2.893 0 011.098-1.008c.442-.229.95-.344 1.523-.344.979 0 1.737.258 2.273.773.536.516.805 1.242.805 2.18v.188c0 .568-.154 1.063-.461 1.484-.308.422-.742.729-1.305.922.62.136 1.1.44 1.441.914.341.474.512 1.078.512 1.813v.188c0 .662-.128 1.227-.383 1.695a2.52 2.52 0 01-1.113 1.07c-.487.245-1.074.367-1.762.367l-.951.002zM213.922 255.346h1.594v1.594l-1.594 1.578v-3.172zM218.922 256.655a2.61 2.61 0 01-1.082-1.172c-.248-.513-.371-1.131-.371-1.855v-.008c0-.422.049-.864.148-1.328a7.673 7.673 0 01.532-1.597l.109-.223 2.469-4.891h1.719l-2.898 5.664.008-.281c.13-.245.32-.435.57-.57.25-.135.542-.203.875-.203.588 0 1.094.133 1.516.398s.742.652.961 1.16.328 1.119.328 1.832v.008c0 .729-.124 1.354-.371 1.875a2.62 2.62 0 01-1.086 1.188c-.477.271-1.048.406-1.715.406-.668-.001-1.238-.134-1.712-.403zm2.879-1.598c.273-.313.41-.758.41-1.336v-.008c0-.635-.144-1.126-.43-1.473-.287-.346-.695-.52-1.227-.52-.474 0-.841.175-1.102.523-.261.349-.391.841-.391 1.477v.008c0 .578.137 1.022.41 1.332.273.31.66.465 1.16.465.507.001.897-.155 1.17-.468z"/></g><g><path d="M457.834 210.402h-1.594v-9.625l-1.617.992v-1.648l1.617-1.078h1.594v11.359zM461.631 210.117a2.61 2.61 0 01-1.082-1.172c-.248-.513-.371-1.131-.371-1.855v-.008c0-.422.049-.864.148-1.328a7.673 7.673 0 01.532-1.597l.109-.223 2.469-4.891h1.719l-2.898 5.664.008-.281c.13-.245.32-.435.57-.57.25-.135.542-.203.875-.203.588 0 1.094.133 1.516.398s.742.652.961 1.16.328 1.119.328 1.832v.008c0 .729-.124 1.354-.371 1.875a2.62 2.62 0 01-1.086 1.188c-.477.271-1.048.406-1.715.406-.668-.001-1.239-.134-1.712-.403zm2.879-1.598c.273-.313.41-.758.41-1.336v-.008c0-.635-.144-1.126-.43-1.473-.287-.346-.695-.52-1.227-.52-.474 0-.841.175-1.102.523-.261.349-.391.841-.391 1.477v.008c0 .578.137 1.022.41 1.332.273.31.66.465 1.16.465.507.001.896-.155 1.17-.468zM468.467 208.808h1.594v1.594l-1.594 1.578v-3.172zM474.99 210.402h-1.594v-9.625l-1.617.992v-1.648l1.617-1.078h1.594v11.359zM626.317 173.631h-1.594v-9.625l-1.617.992v-1.648l1.617-1.078h1.594v11.359zM630.114 173.346a2.61 2.61 0 01-1.082-1.172c-.247-.513-.371-1.131-.371-1.855v-.008c0-.422.05-.864.148-1.328a7.673 7.673 0 01.532-1.597l.109-.223 2.469-4.891h1.719l-2.898 5.664.008-.281c.13-.245.32-.435.57-.57.25-.135.542-.203.875-.203.589 0 1.094.133 1.516.398s.742.652.961 1.16.328 1.119.328 1.832v.008c0 .729-.124 1.354-.371 1.875a2.615 2.615 0 01-1.086 1.188c-.477.271-1.048.406-1.715.406s-1.239-.134-1.712-.403zm2.879-1.598c.273-.313.41-.758.41-1.336v-.008c0-.635-.144-1.126-.43-1.473-.286-.346-.695-.52-1.227-.52-.474 0-.841.175-1.102.523-.261.349-.391.841-.391 1.477v.008c0 .578.137 1.022.41 1.332.273.31.66.465 1.16.465.506.001.896-.155 1.17-.468zM636.95 172.037h1.594v1.594l-1.594 1.578v-3.172zM640.559 172.248l3.961-5.281c.229-.302.407-.616.535-.941.128-.325.191-.629.191-.91v-.016c0-.453-.133-.805-.398-1.055s-.644-.375-1.133-.375c-.464 0-.839.137-1.125.41s-.461.66-.523 1.16v.008h-1.648v-.008c.094-.651.285-1.207.574-1.668s.663-.813 1.121-1.055.987-.363 1.586-.363c.677 0 1.255.116 1.734.348.479.232.844.569 1.094 1.012.25.443.375.977.375 1.602v.008c0 .401-.083.82-.25 1.258s-.398.859-.695 1.266l-3.289 4.469h4.297v1.516h-6.406v-1.385z"/><g><path d="M465.119 252.741l3.813-8.227h1.641l-3.719 8.133h5.57v1.477h-7.305v-1.383zm4.898-3.554h1.555v6.688h-1.555v-6.688zM474.221 254.273h1.594v1.594l-1.594 1.578v-3.172zM479.517 255.593a2.855 2.855 0 01-1.207-1.105c-.284-.477-.426-1.03-.426-1.66v-.188c0-.567.142-1.102.426-1.602.284-.5.663-.877 1.137-1.133-.401-.219-.723-.535-.965-.949s-.363-.85-.363-1.309v-.273c0-.594.133-1.116.398-1.566.266-.45.641-.799 1.125-1.047.484-.247 1.047-.371 1.688-.371s1.203.124 1.688.371c.484.248.859.597 1.125 1.047.266.451.398.973.398 1.566v.273c0 .469-.124.909-.371 1.32a2.478 2.478 0 01-.98.938c.479.261.863.64 1.152 1.137a3.13 3.13 0 01.434 1.598v.188c0 .63-.142 1.184-.426 1.66a2.854 2.854 0 01-1.207 1.105c-.521.261-1.125.391-1.813.391s-1.292-.13-1.813-.391zm2.79-1.359c.281-.146.499-.35.652-.613.153-.263.23-.566.23-.91v-.109c0-.349-.077-.655-.23-.918a1.582 1.582 0 00-.652-.613 2.09 2.09 0 00-.977-.219c-.37 0-.695.073-.977.219a1.573 1.573 0 00-.652.617c-.154.266-.23.573-.23.922v.117c0 .344.077.646.23.906.153.261.371.462.652.605.281.144.606.215.977.215.37-.001.695-.073.977-.219zm-.133-5.121c.245-.138.435-.334.57-.59.135-.255.203-.549.203-.883v-.109c0-.317-.068-.599-.203-.844a1.406 1.406 0 00-.57-.566 1.74 1.74 0 00-.844-.199 1.74 1.74 0 00-.844.199 1.406 1.406 0 00-.57.566 1.726 1.726 0 00-.203.852v.117c0 .328.067.619.203.871.135.253.325.448.57.586.245.138.526.207.844.207.317 0 .599-.069.844-.207z"/></g><g><path d="M506.736 312.877l-.727-.348a2.857 2.857 0 01-1.168-1.008c-.294-.44-.48-.97-.559-1.59h1.625c.047.323.148.589.305.797.156.208.358.363.605.465.247.102.538.152.871.152.526 0 .935-.141 1.227-.422.292-.281.438-.677.438-1.188v-.344c0-.567-.138-1.006-.414-1.316-.276-.31-.667-.465-1.172-.465h-.805v-1.516h.805c.442 0 .786-.133 1.031-.398.245-.266.367-.641.367-1.125v-.352c0-.448-.129-.794-.387-1.039-.258-.245-.624-.367-1.098-.367-.271 0-.513.051-.727.152-.214.102-.395.258-.543.469s-.257.476-.324.793h-1.617c.104-.62.301-1.151.59-1.594a2.893 2.893 0 011.098-1.008c.442-.229.95-.344 1.523-.344.979 0 1.737.258 2.273.773.536.516.805 1.242.805 2.18v.188c0 .568-.154 1.063-.461 1.484-.308.422-.742.729-1.305.922.62.136 1.1.44 1.441.914.341.474.512 1.078.512 1.813v.188c0 .662-.128 1.227-.383 1.695a2.52 2.52 0 01-1.113 1.07c-.487.245-1.074.367-1.762.367l-.951.002zM513.057 311.166h1.593v1.594l-1.593 1.578v-3.172zM518.482 312.541a2.75 2.75 0 01-1.086-.977c-.278-.427-.465-.94-.559-1.539v-.008h1.594v.008c.058.417.224.741.5.973.276.232.636.348 1.078.348.511 0 .905-.17 1.184-.512.278-.341.418-.821.418-1.441v-.953c0-.614-.14-1.092-.418-1.434-.278-.341-.673-.512-1.184-.512-.276 0-.542.078-.797.234s-.479.375-.672.656h-1.453V301.4h5.789v1.516h-4.195v2.555a2.275 2.275 0 011.414-.508c.656 0 1.218.136 1.684.406.466.271.82.667 1.063 1.188.242.521.363 1.148.363 1.883v.953c0 .734-.125 1.362-.375 1.883-.25.521-.614.918-1.094 1.191s-1.055.41-1.727.41c-.573 0-1.082-.112-1.527-.336z"/></g><g><path d="M585.04 232.154l3.813-8.227h1.641l-3.719 8.133h5.57v1.477h-7.305v-1.383zm4.899-3.555h1.555v6.688h-1.555v-6.688zM594.142 233.685h1.594v1.594l-1.594 1.578v-3.172zM599.908 235.396l-.727-.348a2.857 2.857 0 01-1.168-1.008c-.294-.44-.48-.97-.559-1.59h1.625c.047.323.148.589.305.797.156.208.358.363.605.465s.538.152.871.152c.526 0 .935-.141 1.227-.422s.438-.677.438-1.188v-.344c0-.567-.138-1.006-.414-1.316-.276-.31-.667-.465-1.172-.465h-.805v-1.516h.805c.442 0 .786-.133 1.031-.398s.367-.641.367-1.125v-.352c0-.448-.129-.794-.387-1.039-.258-.245-.624-.367-1.098-.367-.271 0-.513.051-.727.152s-.395.258-.543.469-.257.476-.324.793h-1.617c.104-.62.301-1.151.59-1.594a2.893 2.893 0 011.098-1.008c.442-.229.95-.344 1.523-.344.979 0 1.737.258 2.273.773s.805 1.242.805 2.18v.188c0 .568-.153 1.063-.461 1.484s-.742.729-1.305.922c.62.136 1.101.44 1.441.914.341.474.512 1.078.512 1.813v.188c0 .662-.128 1.227-.383 1.695s-.626.826-1.113 1.07c-.487.245-1.074.367-1.762.367l-.951.002z"/></g><g><path d="M442.337 277.63l3.961-5.281c.229-.302.407-.616.535-.941.127-.325.191-.629.191-.91v-.016c0-.453-.133-.805-.398-1.055s-.644-.375-1.133-.375c-.464 0-.839.137-1.125.41-.287.273-.461.66-.523 1.16v.008h-1.648v-.008c.094-.651.285-1.207.574-1.668s.663-.813 1.121-1.055c.458-.242.987-.363 1.586-.363.677 0 1.255.116 1.734.348.479.232.844.569 1.094 1.012.25.443.375.977.375 1.602v.008c0 .401-.083.82-.25 1.258a5.417 5.417 0 01-.695 1.266l-3.289 4.469h4.297v1.516h-6.406v-1.385zM450.619 277.419h1.594v1.594l-1.594 1.578v-3.172zM456.384 279.13l-.727-.348a2.857 2.857 0 01-1.168-1.008c-.294-.44-.48-.97-.559-1.59h1.625c.047.323.148.589.305.797.156.208.358.363.605.465.247.102.538.152.871.152.526 0 .935-.141 1.227-.422.292-.281.438-.677.438-1.188v-.344c0-.567-.138-1.006-.414-1.316-.276-.31-.667-.465-1.172-.465h-.805v-1.516h.805c.442 0 .786-.133 1.031-.398.245-.266.367-.641.367-1.125v-.352c0-.448-.129-.794-.387-1.039-.258-.245-.624-.367-1.098-.367-.271 0-.513.051-.727.152-.214.102-.395.258-.543.469s-.257.476-.324.793h-1.617c.104-.62.301-1.151.59-1.594a2.893 2.893 0 011.098-1.008c.442-.229.95-.344 1.523-.344.979 0 1.737.258 2.273.773.536.516.805 1.242.805 2.18v.188c0 .568-.154 1.063-.461 1.484-.308.422-.742.729-1.305.922.62.136 1.1.44 1.441.914.341.474.512 1.078.512 1.813v.188c0 .662-.128 1.227-.383 1.695a2.52 2.52 0 01-1.113 1.07c-.487.245-1.074.367-1.762.367l-.951.002z"/></g></g></g></svg>