<svg version="1.1" id="_x31_86" xmlns="http://www.w3.org/2000/svg" x="0" y="0" viewBox="0 0 405.589 585.822" xml:space="preserve"><style>.st0{fill-rule:evenodd;clip-rule:evenodd;fill:#fff}.st1,.st2{stroke:#999}.st1{fill:none;stroke-linecap:round;stroke-linejoin:round;stroke-miterlimit:3}.st2{stroke-width:.4}.st2,.st3,.st4{fill:none;stroke-linecap:round;stroke-linejoin:round;stroke-miterlimit:3}.st3{fill-rule:evenodd;clip-rule:evenodd;stroke:#999}.st4{stroke:#000}.st4,.st5,.st7,.st8{fill-rule:evenodd;clip-rule:evenodd}.st7,.st8{fill:none;stroke-miterlimit:22.9256}.st7{stroke-linecap:round;stroke-linejoin:round;stroke:#000}.st8{stroke:#666;stroke-width:.6}.st9{enable-background:new}.st10{fill:#010101}</style><path class="st0" d="M.594.536v334.89H72.26v249.85h332.844V.536z"/><g id="mebel"><path class="st1" d="M191.794 74.406h4.15M196.704 73.656v-40.06M195.954 32.846h-4.16M191.034 33.596v40.06M191.794 32.846h-32.87M158.914 32.846v2.64M158.914 42.616v2.27M160.054 74.406h29.85M191.034 73.276v-28.39M189.904 43.746h-29.85M158.914 44.886v28.39M160.054 34.356h29.85M191.034 35.486v7.13M189.904 43.746h-29.85M158.914 42.616v-7.13M189.904 39.646h-29.85M196.704 73.656c0 .42-.34.75-.76.75M195.954 32.846c.42 0 .76.34.76.76M191.034 33.596c0-.42.34-.75.76-.75M191.794 74.406c-.42 0-.75-.34-.75-.76M191.034 73.276c0 .63-.51 1.13-1.13 1.13M189.904 43.746c.63 0 1.13.51 1.13 1.13M158.914 44.886c0-.63.51-1.13 1.13-1.13M160.054 74.406c-.63 0-1.13-.51-1.13-1.13M189.904 34.356c.63 0 1.13.51 1.13 1.13M191.034 42.616c0 .63-.51 1.13-1.13 1.13M160.054 43.746c-.63 0-1.13-.51-1.13-1.13M158.914 35.486c0-.63.51-1.13 1.13-1.13M191.034 38.506c0 .63-.51 1.13-1.13 1.13M160.054 39.646c-.63 0-1.13-.51-1.13-1.13M158.914 32.846h-37.78M158.914 32.846v2.64M121.134 32.846v2.64M158.914 42.616v2.27M121.134 42.616v2.27M122.264 74.406h35.52M158.914 73.276v-28.39M157.784 43.746h-35.52M121.134 44.886v28.39M122.264 34.356h35.52M158.914 35.486v7.13M157.784 43.746h-35.52M121.134 42.616v-7.13M157.784 39.646h-35.52M158.914 73.276c0 .63-.51 1.13-1.13 1.13M157.784 43.746c.63 0 1.13.51 1.13 1.13M121.134 44.886c0-.63.51-1.13 1.13-1.13M122.264 74.406c-.63 0-1.13-.51-1.13-1.13M157.784 34.356c.63 0 1.13.51 1.13 1.13M158.914 42.616c0 .63-.51 1.13-1.13 1.13M122.264 43.746c-.63 0-1.13-.51-1.13-1.13M121.134 35.486c0-.63.51-1.13 1.13-1.13M158.914 38.506c0 .63-.51 1.13-1.13 1.13M122.264 39.646c-.63 0-1.13-.51-1.13-1.13M50.474 74.406h-4.16M45.564 73.656v-40.06M46.314 32.846h4.16M51.224 33.596v40.06M50.474 32.846h32.87M83.344 32.846v2.64M83.344 42.616v2.27M82.214 74.406h-29.85M51.224 73.276v-28.39M52.364 43.746h29.85M83.344 44.886v28.39M82.214 34.356h-29.85M51.224 35.486v7.13M52.364 43.746h29.85M83.344 42.616v-7.13M52.364 39.646h29.85M46.314 74.406a.76.76 0 01-.76-.76M45.564 33.596c0-.42.34-.75.76-.75M50.474 32.846c.42 0 .76.34.76.76M51.224 73.656c0 .42-.34.75-.76.75M52.364 74.406c-.63 0-1.13-.51-1.13-1.13M51.224 44.886c0-.63.51-1.13 1.13-1.13M82.214 43.746c.63 0 1.13.51 1.13 1.13M83.344 73.276c0 .63-.51 1.13-1.13 1.13M51.224 35.486c0-.63.51-1.13 1.13-1.13M52.364 43.746c-.63 0-1.13-.51-1.13-1.13M83.344 42.616c0 .63-.51 1.13-1.13 1.13M82.214 34.356c.63 0 1.13.51 1.13 1.13M52.364 39.646c-.63 0-1.13-.51-1.13-1.13M83.344 38.506c0 .63-.51 1.13-1.13 1.13M121.134 32.846h-37.79M121.134 32.846v2.64M83.344 32.846v2.64M121.134 42.616v2.27M83.344 42.616v2.27M84.484 74.406h35.52M121.134 73.276v-28.39M120.004 43.746h-35.52M83.344 44.886v28.39M84.484 34.356h35.52M121.134 35.486v7.13M120.004 43.746h-35.52M83.344 42.616v-7.13M120.004 39.646h-35.52M121.134 73.276c0 .63-.51 1.13-1.13 1.13M120.004 43.746c.63 0 1.13.51 1.13 1.13M83.344 44.886c0-.63.51-1.13 1.13-1.13M84.484 74.406c-.63 0-1.13-.51-1.13-1.13M120.004 34.356c.63 0 1.13.51 1.13 1.13M121.134 42.616c0 .63-.51 1.13-1.13 1.13M84.484 43.746c-.63 0-1.13-.51-1.13-1.13M83.344 35.486c0-.63.51-1.13 1.13-1.13M121.134 38.506c0 .63-.51 1.13-1.13 1.13M84.484 39.646c-.63 0-1.13-.51-1.13-1.13M160.054 89.526h29.85M191.034 88.386v-12.84M189.904 74.406h-29.85M158.914 75.546v12.84M191.034 88.386c0 .63-.51 1.13-1.13 1.13M189.904 74.406c.63 0 1.13.51 1.13 1.13M158.914 75.546c0-.63.51-1.13 1.13-1.13M160.054 89.526c-.63 0-1.13-.51-1.13-1.13"/><g><path class="st1" d="M52.414 107.286l-6.95 6.94M43.864 114.226l-2.8-2.8M41.064 111.426l-1.61 1.6M39.454 113.026l-17.63-17.63M21.824 95.396l1.6-1.6M23.424 93.796l-1.47-1.48M21.954 90.716l6.95-6.95M30.504 85.376l-6.95 6.94M37.824 92.696l-6.95 6.94M41.064 111.426l-17.64-17.63M52.414 107.286l6.94-6.95M59.364 98.736l-2.81-2.81M56.554 95.926l1.61-1.6M58.164 94.326l-17.64-17.63M40.524 76.696l-1.6 1.6M38.924 78.296l-1.47-1.47M35.844 76.826l-6.94 6.94M30.504 85.376l6.95-6.95M37.824 92.696l6.95-6.95M56.554 95.926l-17.63-17.63M45.464 114.226c-.44.44-1.16.44-1.6 0M21.954 92.316c-.44-.44-.44-1.16 0-1.6M23.554 92.316c-.44.44-1.16.44-1.6 0M30.874 99.636c-.44.44-1.16.44-1.6 0M59.364 98.736c.44.44.44 1.16 0 1.6M35.844 76.826c.44-.44 1.16-.44 1.6 0M37.454 76.826c.44.44.44 1.16 0 1.6M44.774 84.146c.44.44.44 1.16 0 1.6"/></g><path class="st1" d="M100.234 89.526h37.9v18.89h-37.9z"/><g><path class="st1" d="M275.934 65.336v-3.03m0 0h-.86m0 0h-17.18m.01 0h-.86m0 0v3.03M257.044 58.876v3.43m0 0h.86m0 0v-3.22m0-.01h-.06m0 0l-.29.2m0 0l-.34-.09m-.01 0l-.16-.31M257.844 56.516l-.29.2m0 0l-.34-.09m-.01 0l-.16-.31m0 0v2.56m0 0l.16.31m0 0l.34.09m.01 0l.29-.2m0 0h17.29m0 0l.29.2m.01 0l.34-.09m0 0l.16-.31m0 0v-2.56m0 0l-.16.31m0 0l-.34.09m0 0l-.29-.2m-.01 0h-17.29M275.934 58.876l-.16.31m0 0l-.34.09m0 0l-.29-.2m-.01 0h-.06m0 0v3.22m0 .01h.86m0 0v-3.43M258.704 56.116h15.57m0 0l-1-.23m0 0h-13.56m0 0l-1 .23M257.844 56.116l-.29-.2m0 0l-.34.09m-.01 0l-.16.31m0 0l.16.31m0 0l.34.09m.01 0l.29-.2m0 0h17.29m0 0l.29.2m.01 0l.34-.09m0 0l.16-.31m0 0l-.16-.31m0 0l-.34-.09m0 0l-.29.2m-.01 0h-17.29M297.854 65.336v-3.03m0 0h-.86m0 0h-17.17m0 0h-.86m0 0v3.03M278.964 58.876v3.43m0 0h.86m0 0v-3.22m0-.01h-.06m0 0l-.29.2m-.01 0l-.34-.09m0 0l-.16-.31M279.764 56.516l-.29.2m-.01 0l-.34-.09m0 0l-.17-.31m.01 0v2.56m0 0l.17.31m-.01 0l.34.09m0 0l.29-.2m.01 0h17.29m0 0l.29.2m0 0l.34-.09m0 0l.16-.31m.01 0v-2.56m0 0l-.16.31m-.01 0l-.34.09m0 0l-.29-.2m0 0h-17.29M297.854 58.876l-.16.31m-.01 0l-.34.09m0 0l-.29-.2m0 0h-.06m0 0v3.22m0 .01h.86m0 0v-3.43M280.624 56.116h15.57m0 0l-1-.23m-.01 0h-13.56m.01 0l-1 .23M279.764 56.116l-.29-.2m-.01 0l-.34.09m0 0l-.17.31m.01 0l.17.31m-.01 0l.34.09m0 0l.29-.2m.01 0h17.29m0 0l.29.2m0 0l.34-.09m0 0l.16-.31m.01 0l-.16-.31m-.01 0l-.34-.09m0 0l-.29.2m0 0h-17.29M275.934 99.336v3.03m0 0h-.86m0 0h-17.18m.01 0h-.86m0 0v-3.03M257.044 105.796v-3.43m0 0h.86m0 0v3.22m0 .01h-.06m0 0l-.29-.2m0 0l-.34.09m-.01 0l-.16.31M257.844 108.156l-.29-.2m0 0l-.34.09m-.01 0l-.16.31m0 0v-2.56m0 0l.16-.31m0 0l.34-.09m.01 0l.29.2m0 0h17.29m0 0l.29-.2m.01 0l.34.09m0 0l.16.31m0 0v2.56m0 0l-.16-.31m0 0l-.34-.09m0 0l-.29.2m-.01 0h-17.29M275.934 105.796l-.16-.31m0 0l-.34-.09m0 0l-.29.2m-.01 0h-.06m0 0v-3.22m0-.01h.86m0 0v3.43M258.704 108.556h15.57m0 0l-1 .23m0 0h-13.56m0 0l-1-.23M257.844 108.556l-.29.2m0 0l-.34-.09m-.01 0l-.16-.31m0 0l.16-.31m0 0l.34-.09m.01 0l.29.2m0 0h17.29m0 0l.29-.2m.01 0l.34.09m0 0l.16.31m0 0l-.16.31m0 0l-.34.09m0 0l-.29-.2m-.01 0h-17.29M297.854 99.336v3.03m0 0h-.86m0 0h-17.17m0 0h-.86m0 0v-3.03M278.964 105.796v-3.43m0 0h.86m0 0v3.22m0 .01h-.06m0 0l-.29-.2m-.01 0l-.34.09m0 0l-.16.31M279.764 108.156l-.29-.2m-.01 0l-.34.09m0 0l-.17.31m.01 0v-2.56m0 0l.17-.31m-.01 0l.34-.09m0 0l.29.2m.01 0h17.29m0 0l.29-.2m0 0l.34.09m0 0l.16.31m.01 0v2.56m0 0l-.16-.31m-.01 0l-.34-.09m0 0l-.29.2m0 0h-17.29M297.854 105.796l-.16-.31m-.01 0l-.34-.09m0 0l-.29.2m0 0h-.06m0 0v-3.22m0-.01h.86m0 0v3.43M280.624 108.556h15.57m0 0l-1 .23m-.01 0h-13.56m.01 0l-1-.23M279.764 108.556l-.29.2m-.01 0l-.34-.09m0 0l-.17-.31m.01 0l.17-.31m-.01 0l.34-.09m0 0l.29.2m.01 0h17.29m0 0l.29-.2m0 0l.34.09m0 0l.16.31m.01 0l-.16.31m-.01 0l-.34.09m0 0l-.29-.2m0 0h-17.29M300.874 65.336v-3.03m0 0h.86m0 0h17.18m0 0h.86m0 0v3.03M319.774 58.876v3.43m0 0h-.86m0 0v-3.22m0-.01h.06m-.01 0l.29.2m.01 0l.34-.09m0 0l.17-.31M318.964 56.516l.29.2m.01 0l.34-.09m0 0l.17-.31m0 0v2.56m0 0l-.17.31m0 0l-.34.09m0 0l-.29-.2m-.01 0h-17.29m0 0l-.29.2m0 0l-.34-.09m0 0l-.17-.31m0 0v-2.56m0 0l.17.31m0 0l.34.09m0 0l.29-.2m0 0h17.29M300.874 58.876l.16.31m.01 0l.34.09m0 0l.29-.2m0 0h.06m0 0v3.22m0 .01h-.86m0 0v-3.43M318.104 56.116h-15.57m.01 0l1-.23m0 0h13.56m0 0l1 .23M318.964 56.116l.29-.2m.01 0l.34.09m0 0l.17.31m0 0l-.17.31m0 0l-.34.09m0 0l-.29-.2m-.01 0h-17.29m0 0l-.29.2m0 0l-.34-.09m0 0l-.17-.31m0 0l.17-.31m0 0l.34-.09m0 0l.29.2m0 0h17.29M300.874 99.336v3.03m0 0h.86m0 0h17.18m0 0h.86m0 0v-3.03M319.774 105.796v-3.43m0 0h-.86m0 0v3.22m0 .01h.06m-.01 0l.29-.2m.01 0l.34.09m0 0l.17.31M318.964 108.156l.29-.2m.01 0l.34.09m0 0l.17.31m0 0v-2.56m0 0l-.17-.31m0 0l-.34-.09m0 0l-.29.2m-.01 0h-17.29m0 0l-.29-.2m0 0l-.34.09m0 0l-.17.31m0 0v2.56m0 0l.17-.31m0 0l.34-.09m0 0l.29.2m0 0h17.29M300.874 105.796l.16-.31m.01 0l.34-.09m0 0l.29.2m0 0h.06m0 0v-3.22m0-.01h-.86m0 0v3.43M318.104 108.556h-15.57m.01 0l1 .23m0 0h13.56m0 0l1-.23M318.964 108.556l.29.2m.01 0l.34-.09m0 0l.17-.31m0 0l-.17-.31m0 0l-.34-.09m0 0l-.29.2m-.01 0h-17.29m0 0l-.29-.2m0 0l-.34.09m0 0l-.17.31m0 0l.17.31m0 0l.34.09m0 0l.29-.2m0 0h17.29M328.004 99.336v-34m0 0h-79.35m0 0v34.01m0-.01h79.35"/></g><g><path class="st1" d="M183.484 186.996l-101.27.02M183.484 164.296v3.02M183.484 167.316v19.68M82.214 186.996v-22.7m0 0h101.27m0 0v22.7m0 0H82.214M153.094 181.216v1.02m0 0h-44.37m.01 0v-1.02m0 0h44.37M143.634 182.236v.83m0 0l-.15.57m0 0l-.41.42m0-.01l-.57.15m0 .01h-22.7m0 0l-.57-.15m0-.01l-.41-.42m0 .01l-.15-.57m0 0v-.83m0 0h24.97M153.094 180.916v.3m0 0h-44.37m.01 0v-.3m0 0h44.37"/><g><path class="st1" d="M201.994 187.006v-22.71M245.634 168.116h-19.27m0 0l-.53.22m0 0l-.22.53m0 .01v17.38m0 0l.22.53m0 0l.53.22m0 0h19.27m0 0l.53-.22m.01 0l.22-.53m0-.01v-17.38m0 0l-.22-.53m0 0l-.53-.22M247.334 164.336h-22.67M247.334 187.006h-22.67M247.334 164.336v22.67M224.664 164.336v22.67M243.744 170.006h-15.49M227.504 170.756v11.72M228.254 183.226h15.5M244.504 182.476v-11.72M227.504 170.756c0-.42.34-.76.76-.76M228.254 183.226a.76.76 0 01-.76-.76M244.504 182.476c0 .42-.34.76-.75.76M243.744 170.006c.42 0 .76.34.76.76M236.344 178.396l-.1-.24m0 0l-.24-.1m0 0l-.24.1m0 0l-.1.24m0 0v7.48m0 0l.1.24m0 0l.24.1m0 0l.24-.1m0 0l.1-.24m0 0v-7.48M236.754 183.946h-.41m0 0v1.93m0 0l-.1.24m0 0l-.24.1m0 0l-.24-.1m0 0l-.1-.24m0 0v-1.93m0 0h-.41m-.01 0v2.46m0 0h1.51m0 0v-2.46M236.744 182.586h-.4m0 0v1.32m0 0h.4m0 0v-1.32M235.254 182.586v1.32m0 0h.4m.01 0v-1.32m0 0h-.4M270.004 164.336h-22.67M270.014 187.006h-22.68M270.004 164.336l.01 22.67M247.334 164.336v22.67M325.274 166.406h-21.92m0 0v18.52m0 0h21.92m0-.01v-18.52M314.314 177.686v5.3M314.314 182.986h-1.1M314.314 177.686h-1.1M305.464 177.686v5.3M306.554 182.986h-1.09M306.554 177.686h-1.09M323.304 180.556c0 1.51-1.23 2.74-2.74 2.74-1.51 0-2.74-1.23-2.74-2.74 0-1.51 1.23-2.74 2.74-2.74 1.51 0 2.74 1.22 2.74 2.74zM323.254 172.316c0 2.19-1.78 3.97-3.97 3.97s-3.97-1.78-3.97-3.97 1.78-3.97 3.97-3.97c2.2 0 3.97 1.77 3.97 3.97z"/><path class="st1" d="M321.554 172.316c0 1.25-1.02 2.27-2.27 2.27s-2.27-1.01-2.27-2.27c0-1.25 1.02-2.27 2.27-2.27 1.26 0 2.27 1.01 2.27 2.27zM312.534 180.366a2.64 2.64 0 01-2.65 2.64 2.646 2.646 0 010-5.29c1.46.01 2.65 1.19 2.65 2.65zM312.164 171.776c0 1.88-1.52 3.4-3.4 3.4s-3.4-1.52-3.4-3.4 1.52-3.4 3.4-3.4 3.4 1.52 3.4 3.4zM358.614 164.326l-88.61.01M358.624 186.996l-88.61.01M358.614 164.326l.01 22.67M270.004 164.336l.01 22.67M224.664 164.336h-22.67m0 0v22.67m0 .01h22.67m0-.01v-22.67M213.334 179.456v-7.56M216.004 178.346l-5.35-5.34M217.104 175.676h-7.55M216.004 173.006l-5.35 5.34M358.614 164.326h22.67m0 0v22.67m.01 0h-22.67m0 0v-22.67M265.244 173.726c0 1.88-1.53 3.41-3.41 3.41s-3.41-1.53-3.41-3.41 1.53-3.41 3.41-3.41 3.41 1.53 3.41 3.41z"/><path class="st1" d="M264.724 173.726c0 1.6-1.29 2.89-2.89 2.89s-2.89-1.29-2.89-2.89 1.29-2.89 2.89-2.89c1.59 0 2.89 1.3 2.89 2.89zM258.104 172.896a2.58 2.58 0 11-5.16 0c0-1.43 1.15-2.58 2.58-2.58a2.58 2.58 0 012.58 2.58z"/><path class="st1" d="M256.964 172.896c0 .8-.65 1.45-1.44 1.45-.8 0-1.45-.65-1.45-1.45s.65-1.44 1.45-1.44 1.44.64 1.44 1.44zM265.894 171.516h-.96m0 0v-1.21m0 .01h-12.52m0 0v1.2m0 .01h-.96M264.434 181.526h-9.63m0 0v-.48m0 0h.72m0 0v.24m0 0h8.19m0 0v-.24m0 0h.72m0 0v.48M264.434 181.046l-.05-.1m-.04-.11l-.05-.1m-.05-.1l-.05-.1m-.04-.11l-.05-.1m-.05-.1l-.05-.1m-.04-.11l-.05-.1m-.04-.11l-.05-.1m-.05-.1l-.05-.1m-.04-.11l-.05-.1m-.05-.1l-.05-.1m-.04-.11l-.05-.1m-.05-.11l-.05-.1m-.04-.1l-.05-.1m-.05-.11l-.05-.1m-.04-.11l-.05-.1m-.04-.1l-.05-.1m-.05-.11l-.05-.1M254.804 181.046l.05-.1m.04-.1l.05-.1m.05-.11l.05-.1m.04-.11l.05-.1m.04-.1l.05-.1m.05-.11l.05-.1m.04-.11l.05-.1m.05-.1l.05-.1m.04-.11l.05-.1m.05-.1l.05-.1m.04-.11l.05-.1m.04-.11l.05-.1m.05-.1l.05-.1m.04-.11l.05-.1m.05-.11l.05-.1m.04-.1l.05-.1m.05-.11l.05-.1M264.434 181.046h-.08m-.11 0h-.11m-.12 0h-.11m-.11 0h-.08m0 0l-.04-.05m-.07-.09l-.07-.09m-.08-.08l-.07-.09m-.07-.09l-.07-.09m-.07-.09l-.07-.09m-.08-.08l-.07-.09m-.07-.09l-.07-.09m-.07-.08l-.07-.09m-.08-.09l-.07-.09m-.07-.09l-.07-.09m-.07-.08l-.07-.09m-.07-.09l-.07-.09m-.08-.09l-.07-.09m-.07-.08l-.07-.09m-.07-.09l-.07-.09m-.08-.08l-.07-.09m-.07-.09l-.07-.09m-.07-.08l-.07-.09m-.07-.09l-.07-.09m-.08-.09l-.07-.09m-.07-.08l-.07-.09m-.07-.09l-.07-.09m-.08-.08l-.04-.05M254.804 181.046h.08m.11 0h.11m.12 0h.11m.11 0h.08m0 0l.04-.05m.07-.09l.07-.09m.08-.08l.07-.09m.07-.09l.07-.09m.07-.09l.07-.09m.07-.08l.07-.09m.08-.09l.07-.09m.07-.08l.07-.09m.07-.09l.07-.09m.08-.09l.07-.09m.07-.08l.07-.09m.07-.09l.07-.09m.07-.08l.07-.09m.08-.09l.07-.09m.07-.09l.07-.09m.07-.08l.07-.09m.08-.09l.07-.09m.07-.08l.07-.09m.07-.09l.07-.09m.07-.09l.07-.09m.08-.08l.07-.09m.07-.09l.07-.09m.07-.08l.04-.05"/></g></g><g><path class="st1" d="M258.294 208.356c0 2.09-1.69 3.78-3.78 3.78s-3.78-1.69-3.78-3.78 1.69-3.78 3.78-3.78c2.09.01 3.78 1.7 3.78 3.78z"/><path class="st1" d="M255.654 208.356a1.129 1.129 0 11-2.26 0 1.129 1.129 0 112.26 0zM347.094 208.356c0 2.09-1.69 3.78-3.78 3.78s-3.78-1.69-3.78-3.78 1.69-3.78 3.78-3.78c2.09.01 3.78 1.7 3.78 3.78z"/><path class="st1" d="M344.454 208.356a1.129 1.129 0 11-2.26 0 1.129 1.129 0 112.26 0zM332.924 274.486h-68.02m0 0v-71.79m0 0h68.02m0 0v71.79M331.034 276.376h-64.24m.01 0l-.72-.14m-.01 0l-.61-.41m0 0l-.41-.61m0-.01l-.14-.72m0 0h68.02m-.01 0l-.14.72m0 0l-.41.61m0 .01l-.61.41m0 0l-.72.14M332.924 198.916h-68.02m0 0v3.78m0 0h68.02m0 0v-3.78M264.914 198.916h68.02m-.01 0v1.89m0 0h-68.02m.01 0v-1.89M263.024 198.916h-17m-.01 0v18.89m0 0h17m.01 0v-18.89M334.814 198.916h17m0 0v18.89m0 0h-17m0 0v-18.89M292.874 204.586h-25.69m-.01 0l-.27.11m.01 0l-.11.27m0-.01v12.47m0 0l.11.27m0 0l.27.11m-.01 0h25.69m.01 0l.27-.11m0 0l.11-.27m0 0v-12.47m0 0l-.11-.27m0 .01l-.27-.11M304.964 204.586h25.69m0 0l.27.11m0 0l.11.27m0-.01v12.47m0 0l-.11.27m0 0l-.27.11m0 0h-25.69m0 0l-.27-.11m0 0l-.11-.27m0 0v-12.47m0 0l.11-.27m0 .01l.27-.11M332.924 216.786h-1.89M304.584 216.786h-11.33M266.794 216.786h-1.89M332.924 221.796h-68.02m0 0v18.69m0-.01l68.02-14.91m0 .01v-3.78M250.844 209.216l3.68-.86m0 0l1.58-3.43m0 0l-1.58 3.43m0 0l1.31 3.55M346.994 209.216l-3.68-.86m0 0l-1.58-3.43m0 0l1.58 3.43m0 0l-1.3 3.55"/><g><path class="st1" d="M381.294 325.876h-169.66M211.634 303.206v22.67m0 0h57.62m0 0v-22.67m0 0h-57.62M269.254 314.916v-.76m0 .01h-57.62m0 0v.76m0-.01h57.62M218.214 305.196v18.63m0 0h.76m0 0v-18.63m0 0h-.76M220.224 305.196v18.63m0 0h.76m-.01 0v-18.63m0 0h-.76M222.224 305.196v18.63m0 0h.76m0 0v-18.63m0 0h-.76M224.234 305.196v18.63m0 0h.76m-.01 0v-18.63m0 0h-.76M228.474 305.336l-2.24 18.49m0 0l.75.09m0 0l2.24-18.49m0 0l-.75-.09M381.294 314.916v-.76m0 .01h-57.62m-.01 0v.76m0-.01h57.62M330.254 305.196v18.63m0 0h.76m0 0v-18.63m0 0h-.76M332.254 305.196v18.63m0 0h.76m0 0v-18.63m0 0h-.76M334.264 305.196v18.63m0 0h.76m-.01 0v-18.63m0 0h-.76M336.264 305.196v18.63m0 0h.76m0 0v-18.63m0 0h-.76M340.514 305.336l-2.24 18.49m0 0l.75.09m0 0l2.24-18.49m0 0l-.75-.09M269.254 303.206v22.67m0 0h54.41m0 0v-22.67m0 0h-54.41M323.664 303.206v22.67m0 0h57.62m.01 0v-22.67m0 0h-57.62"/></g><g><path class="st1" d="M229.014 503.286v71.03M206.344 503.286h22.67M229.014 503.286h-22.67m0 0v71.04m0-.01h22.67m0 0v-71.04M217.304 574.316h.75m0 0v-71.04m0 .01h-.75m0 0v71.04M227.024 509.866h-18.63m0 0v.75m0 .01h18.63m0 0v-.75M227.024 511.876h-18.63m0 0v.76m0-.01h18.63m0 0v-.76M227.024 513.876h-18.63m0 0v.75m0 .01h18.63m0 0v-.75M227.024 515.886h-18.63m0 0v.75m0 0h18.63m0 0v-.75M226.884 520.126l-18.49-2.24m0 0l-.09.75m0 0l18.49 2.24m0 0l.09-.75"/></g><g><path class="st1" d="M274.924 564.876c0 2.09-1.69 3.78-3.78 3.78s-3.78-1.69-3.78-3.78 1.69-3.78 3.78-3.78 3.78 1.69 3.78 3.78z"/><path class="st1" d="M272.274 564.876a1.129 1.129 0 11-2.26 0c0-.63.51-1.13 1.13-1.13.63-.01 1.13.5 1.13 1.13zM363.724 564.876c0 2.09-1.69 3.78-3.78 3.78s-3.78-1.69-3.78-3.78 1.69-3.78 3.78-3.78c2.08 0 3.78 1.69 3.78 3.78z"/><path class="st1" d="M361.074 564.876a1.129 1.129 0 11-2.26 0c0-.63.51-1.13 1.13-1.13.62-.01 1.13.5 1.13 1.13zM281.534 498.746h68.02m0 0v71.79m0 .01h-68.02m0 0v-71.79M283.424 496.856h64.24m0 0l.72.14m0 .01l.61.41m0 0l.41.61m0 0l.14.72m.01 0h-68.02m0 0l.14-.72m0 0l.41-.61m0 0l.61-.41m.01 0l.72-.14M281.534 574.316h68.02m0 0v-3.78m0 .01h-68.02m0 0v3.78M349.554 574.316h-68.02m0 0v-1.89m0 .01h68.02m0 0v1.89M351.444 574.316h17m0 0v-18.89m0 0h-17m0 0v18.89M279.644 574.316h-17m0 0v-18.89m0 0h17m0 0v18.89M321.584 568.656h25.69m.01 0l.27-.11m0 0l.11-.27m0 0v-12.47m0 0l-.11-.27m0 0l-.27-.11m0 0h-25.69m-.01 0l-.27.11m.01 0l-.11.27m0 0v12.47m0 0l.11.27m0 0l.27.11M309.494 568.656h-25.69m0 0l-.27-.11m0 0l-.11-.27m0 0v-12.47m0 0l.11-.27m0 0l.27-.11m0 0h25.69m0 0l.27.11m0 0l.11.27m0 0v12.47m0 0l-.11.27m0 0l-.27.11M281.534 556.446h1.89M309.874 556.446h11.34M347.664 556.446h1.89M281.534 551.446h68.02m0 0v-18.69m0 0l-68.02 14.91m0 0v3.78M267.464 565.736l3.68-.86m0 0l1.58-3.43m0 0l-1.58 3.43m0 0l1.31 3.54M363.624 565.736l-3.68-.86m0 0l-1.58-3.43m-.01 0l1.58 3.43m.01 0l-1.31 3.54"/></g><g><path class="st1" d="M381.294 455.296h-169.66M211.634 432.626v22.67m0 0h57.62m0 0v-22.67m0 0h-57.62M269.254 444.336v-.76m0 0h-57.62m0 0v.76m0 0h57.62M218.214 434.616v18.63m0-.01h.76m0 0v-18.63m0 .01h-.76M220.224 434.616v18.63m0-.01h.76m-.01 0v-18.63m0 .01h-.76M222.224 434.616v18.63m0-.01h.76m0 0v-18.63m0 .01h-.76M224.234 434.616v18.63m0-.01h.76m-.01 0v-18.63m0 .01h-.76M228.474 434.746l-2.24 18.49m0 .01l.75.09m0 0l2.24-18.49m0 0l-.75-.09M323.664 432.626v22.67m0 0h57.62m.01 0v-22.67m0 0h-57.62M381.294 444.336v-.76m0 0h-57.62m-.01 0v.76m0 0h57.62M330.254 434.616v18.63m0-.01h.76m0 0v-18.63m0 .01h-.76M332.254 434.616v18.63m0-.01h.76m0 0v-18.63m0 .01h-.76M334.264 434.616v18.63m0-.01h.76m-.01 0v-18.63m0 .01h-.76M336.264 434.616v18.63m0-.01h.76m0 0v-18.63m0 .01h-.76M340.514 434.746l-2.24 18.49m0 .01l.75.09m0 0l2.24-18.49m0 0l-.75-.09M269.254 432.626v22.67m0 0h54.41m0 0v-22.67m0 0h-54.41"/></g><g><path class="st1" d="M258.294 346.656c0 2.09-1.69 3.78-3.78 3.78s-3.78-1.69-3.78-3.78 1.69-3.78 3.78-3.78 3.78 1.7 3.78 3.78z"/><path class="st1" d="M255.654 346.656a1.129 1.129 0 11-2.26 0 1.129 1.129 0 112.26 0zM347.094 346.656c0 2.09-1.69 3.78-3.78 3.78s-3.78-1.69-3.78-3.78 1.69-3.78 3.78-3.78 3.78 1.7 3.78 3.78z"/><path class="st1" d="M344.454 346.656a1.129 1.129 0 11-2.26 0 1.129 1.129 0 112.26 0zM332.924 412.786h-68.02m0 0v-71.79m0-.01h68.02m0 0v71.79M331.034 414.676h-64.24m.01 0l-.72-.14m-.01-.01l-.61-.41m0 0l-.41-.61m0 0l-.14-.72m0 0h68.02m-.01 0l-.14.72m0 0l-.41.61m0 0l-.61.41m0 0l-.72.14M332.924 337.216h-68.02m0 0v3.78m0-.01h68.02m0 0v-3.78M264.914 337.216h68.02m-.01 0v1.89m0-.01h-68.02m.01 0v-1.89M263.024 337.216h-17m-.01 0v18.89m0 0h17m.01 0v-18.89M334.814 337.216h17m0 0v18.89m0 0h-17m0 0v-18.89M292.874 342.876h-25.69m-.01 0l-.27.11m.01 0l-.11.27m0 0v12.47m0 0l.11.27m0 0l.27.11m-.01 0h25.69m.01 0l.27-.11m0 0l.11-.27m0 0v-12.47m0 0l-.11-.27m0 0l-.27-.11M304.964 342.876h25.69m0 0l.27.11m0 0l.11.27m0 0v12.47m0 0l-.11.27m0 0l-.27.11m0 0h-25.69m0 0l-.27-.11m0 0l-.11-.27m0 0v-12.47m0 0l.11-.27m0 0l.27-.11M332.924 355.086h-1.89M304.584 355.086h-11.33M266.794 355.086h-1.89M332.924 360.086h-68.02m0 0v18.69m0 0l68.02-14.91m0 0v-3.78M250.844 347.516l3.68-.86m0 0l1.58-3.43m0 0l-1.58 3.43m0 0l1.31 3.55M346.994 347.516l-3.68-.86m0 0l-1.58-3.43m0 0l1.58 3.43m0 0l-1.3 3.55"/></g><g><path class="st1" d="M158.734 371.216h1.89m0 0v-118.65m0 0h-1.89m0 0v118.65M149.284 252.566h-.76m0 0v77.46m0 .01h.76m0 0v-77.46M139.564 259.156h18.63m-.01 0v.76m0 0h-18.63m.01 0v-.76M139.564 261.166h18.63m-.01 0v.76m0-.01h-18.63m.01 0v-.76M139.564 263.166h18.63m-.01 0v.76m0 0h-18.63m.01 0v-.76M139.564 265.176h18.63m-.01 0v.75m0 0h-18.63m.01 0v-.75M139.694 269.416l18.49-2.24m0 0l.09.75m.01 0l-18.49 2.24m-.01 0l-.09-.75M137.944 330.036h20.78m.01 0v-77.46m0-.01h-20.78m-.01 0v77.46M112.364 357.616c0 3.96-3.22 7.18-7.18 7.18-3.97 0-7.18-3.21-7.18-7.18s3.21-7.18 7.18-7.18 7.18 3.22 7.18 7.18zM105.704 351.606l-.45 1.23m0 .01v1.31m0 0l.45 1.23m0 0l-.34 1.47m0 0v1.51m0 .01l.34 1.47m0 0l-.45 1.24m0-.01v1.31m0 .01l.45 1.24m0-.01l-2.99-2.23m0 0v-7.56m0 0l2.99-2.23M102.454 353.836v7.56m0 0h.26m0 0v-7.56m0 0h-.26M101.934 353.836v7.56m0 0h.26m0 0v-7.56m0 0h-.26M107.214 358.456l.08-.89m.01 0l-.23-.02m0 0l-.04.48m0 0l-1.14-1.38m-.01-.01l-.15.13m0 0l.53.64m0 0l-.08.07m0 0l-.61-.74m0 0l-.15.12m0 0l.61.74m0 0l-.1.08m.01 0l-.5-.6m0 0l-.13.11m0 0l.5.6m0 0l-.1.08m0 0l-.34-.41m0-.01l-.14.12m0 0l1.17 1.42M114.334 346.276v22.67m0 .01h-22.67m0 0v-22.67m0-.01h22.67"/><g><path class="st1" d="M89.394 327.006h-7.56M66.724 252.566h22.67M89.394 252.566v74.44M66.724 327.006h22.67m0 0v-74.44m0 0h-22.67m0 0v74.44M78.054 252.566h-.76m.01 0v74.44m0 0h.76m-.01 0v-74.44M68.334 320.426h18.63m0 0v-.76m0 0h-18.63m0 0v.76M68.334 318.416h18.63m0 0v-.76m0 .01h-18.63m0 0v.76M68.334 316.416h18.63m0 0v-.76m0 0h-18.63m0 0v.76M68.334 314.406h18.63m0 0v-.76m0 .01h-18.63m0 0v.76M68.474 310.166l18.49 2.24m0 0l.09-.75m0 0l-18.49-2.24m0 0l-.09.75"/></g><g><path class="st2" d="M128.434 311.706l6.49-6.49m-9.36 2.41l9.36-9.36m-8.56 1.61l8.56-8.56m-27.33 20.39l6.23-6.23m11.44-11.44l9.66-9.66m-34.28 27.33l12.58-12.58m8.31-8.3l13.39-13.4m-41.22 34.28l41.22-41.22m-42.51 35.56l42.51-42.51m-42.51 35.56l42.51-42.51m-42.51 35.56l39.58-39.58m-39.58 32.64l32.63-32.63m-32.63 25.68l6.59-6.59m3.43-3.43l15.66-15.66m-25.68 18.73l.06-.06m9.96-9.96l8.72-8.72m-8.72 1.77l1.77-1.77m30.72 5.6l-5.59-5.59m5.59 12.53l-12.54-12.54m12.54 19.49l-19.48-19.49m19.48 26.44l-26.43-26.43m26.43 33.37l-32.49-32.49m32.49 39.44l-32.49-32.49m32.49 39.44l-32.49-32.49m32.49 39.43l-8.52-8.52m-7.59-7.59l-19.02-19.01m33.1 40.04l-7.02-7.02m-11.23-11.23l-21.88-21.88m-.26-.26l-.09-.09m33.53 40.48l-.73-.73m-11.99-12l-20.81-20.81m21.54 28.49l-21.54-21.53m19.64 26.58l-19.64-19.64m12.69 19.64l-12.69-12.69m5.74 12.69l-5.74-5.74"/><path class="st1" d="M92.414 252.566h7.98M100.394 252.566h1.51M92.414 271.096v-17.96m0 0l.17-.4m0 0l.4-.16m0-.01h8.89m0 0l.4.16m0 .01l.17.4m0 0v17.96m0 0l-.17.4m0 0l-.4.16m0 .01h-8.89m0 0l-.4-.16m0-.01l-.17-.4M96.574 269.966v-7.16m0-1.38v-7.16M97.134 253.706h3.61M101.304 254.266v15.7M100.744 270.526h-3.61M96.574 254.266c0-.31.25-.57.57-.57M100.744 253.706c.31 0 .57.25.57.57M101.304 269.966c0 .31-.25.57-.57.57M97.134 270.526a.57.57 0 01-.57-.57M98.874 262.406c-.11.27-.38.47-.7.47-.2 0-.39-.08-.53-.21l.98-.12.25-.14zm-1.23-.83a.766.766 0 011.23.25l-.24-.13-.99-.12zM94.684 263.066l1.59-.15m-.01 0l.36-.12m0-.01l2-.25m0 0l.26-.14m.01 0l.11-.28m-.01 0l-.11-.28m.01 0l-.26-.14m-.01 0l-2-.25m0 0l-.36-.12m0 0l-1.59-.15m.01 0l-.56.18m0 0l-.34.47m0 0v.58m0 0l.34.47m0 .01l.56.18M95.624 261.606h.56M96.184 262.636h-.56M95.624 262.636v-1.03M96.184 261.606c.28 0 .51.23.51.51s-.23.51-.51.51"/><path class="st1" d="M96.624 261.446c.37.24.48.73.24 1.1a.69.69 0 01-.24.24"/></g><g><path class="st1" d="M126.214 296.716l-.47-1.65m0 0l-.72-1.55m0 0l-.97-1.23m0 0l-1.25-.94m0 0l-1.45-.59m.01 0l-1.55-.21m0 0l-1.55.21m0 0l-1.45.59m0 0l-1.25.94m0 0l-.97 1.23m0 0l-.72 1.55m0 0l-.47 1.65m0 0l-.21 1.7m.01 0l.06 1.71m0-.01l1.22 11.58m0 .01h10.65m0 0l1.22-11.58m.01-.01l.06-1.71m0 .01l-.21-1.7M115.694 305.986h4.12M119.814 305.986h4.11M116.744 291.716c.89-.57 1.96-.88 3.06-.89M113.494 298.546c-.16-2.59 1.03-5.11 3.25-6.83M115.694 305.986c-1.51-2.25-2.27-4.83-2.19-7.44M126.124 298.546c.07 2.61-.69 5.19-2.19 7.44M122.874 291.716c2.22 1.72 3.41 4.24 3.25 6.83M119.814 290.836c1.1.01 2.18.32 3.06.89"/><path class="st3" d="M115.164 311.516h9.29v.19h-9.29z"/><path class="st1" d="M115.164 311.706h9.3m-.01 0v-.19m0 0h-9.3m.01 0v.19M129.254 311.706h-18.89M129.254 316.236h-18.89M129.254 311.706v4.53M110.364 311.706v4.53"/></g><g><path class="st2" d="M156.284 422.796l1.31-1.31m-8.26 1.31l8.26-8.26m-15.21 8.26l15.21-15.21m-22.15 15.21l22.15-22.15m-29.1 22.15l29.1-29.1m-36.05 29.1l33.63-33.63m-40.57 33.63l33.63-33.63m-40.58 33.63l33.63-33.63m-40.58 33.63l33.63-33.63m-40.58 33.63l33.63-33.63m-40.57 33.63l33.63-33.63m-38.61 31.66l15.89-15.89m5.45-5.45l10.97-10.97m-32.31 25.36l10.74-10.74m10.61-10.61l8.65-8.65m-30 23.06l8.64-8.64m12.05-12.05l2.36-2.36m9.26-9.26l.13-.13m.12-.12l.13-.13m-32.69 25.74l9.04-9.04m-9.04 2.09l9.16-9.16m-9.16 2.22l2.21-2.21m73.55 8.1l-2.82-2.82m2.82 9.77l-9.76-9.76m9.76 16.7l-16.71-16.71m16.71 23.66l-23.66-23.66m23.66 30.61l-30.6-30.6m26.68 33.62l-33.63-33.63m26.68 33.63l-38.92-38.92m31.98 38.92l-37.34-37.34m30.39 37.34l-29.57-29.57m22.62 29.57l-22.84-22.85m-11.87-11.86l-4.21-4.21m31.98 38.92l-18.75-18.74m-9.68-9.68l-8.68-8.68m30.16 37.1l-30.16-30.16m23.21 30.16l-23.21-23.21m16.26 23.21l-16.26-16.26m9.32 16.26l-9.32-9.32m2.37 9.32l-2.37-2.37"/><path class="st1" d="M90.544 398.866l.47 1.65m0 0l.72 1.55m0 0l.97 1.23m0 0l1.25.94m0 0l1.45.59m-.01.01l1.55.21m.01-.01l1.55-.21m0 .01l1.45-.59m-.01-.01l1.25-.94m0 0l.97-1.23m0 0l.72-1.55m0 0l.47-1.65m0 0l.21-1.7m0 .01l-.06-1.71m-.01 0l-1.22-11.58m0-.01h-10.65m0 0l-1.22 11.58m0 .01l-.06 1.71m0 0l.21 1.7M101.064 389.596h-4.11M96.954 389.596h-4.12M100.014 403.866c-.89.57-1.96.88-3.06.89M103.264 397.036c.17 2.59-1.03 5.11-3.25 6.83M101.064 389.596c1.51 2.25 2.27 4.83 2.2 7.44M90.634 397.036c-.07-2.61.69-5.19 2.2-7.44M93.884 403.866c-2.22-1.72-3.41-4.24-3.25-6.83M96.954 404.756c-1.1-.01-2.18-.32-3.06-.89"/><path class="st3" d="M92.304 383.876h9.3v.19h-9.3z"/><path class="st1" d="M101.594 383.876h-9.29m0 0v.19m0 0h9.29m0 0v-.19M87.504 383.876h18.89M87.504 379.346h18.89M87.504 383.876v-4.53M106.394 383.876v-4.53"/><g><path class="st1" d="M114.714 374.246h42.32m-.01 0l.4.17m.01-.01l.16.4m0 0v13.79m0 .01l-.16.4m0 0l-.4.17m-.01-.01h-42.32m.01 0l-.4-.17m-.01.01l-.17-.4m.01 0v-13.79m0-.01l.17-.4m-.01 0l.4-.17M115.844 378.396h19.57m.91 0h19.57M156.464 378.966v8.5M155.894 388.036h-40.05M115.274 387.466v-8.5M155.894 378.396c.31 0 .57.25.57.57M156.464 387.466c0 .31-.25.57-.57.57M115.844 388.036a.57.57 0 01-.57-.57M115.274 378.966c0-.31.25-.57.57-.57M136.624 381.336c0 .25-.12.47-.3.6v-1.21c.18.14.3.36.3.61zm-1.21.6a.768.768 0 01-.3-.6c0-.25.12-.47.3-.6v1.2zM136.324 374.776h-.91m0 0v7.75m0-.01l.26.3m0 0h.39m0 0l.26-.3m0 0v-7.75"/><path class="st3" d="M135.114 374.506h1.51v.26h-1.51z"/><path class="st1" d="M135.114 374.776h1.51m0 0v-.27m0 0h-1.51m0 0v.27"/><path class="st3" d="M134.734 374.246h2.27v.26h-2.27z"/><path class="st1" d="M134.734 374.506h2.27m0 0v-.26m0 0h-2.27m0 0v.26M132.604 376.136v-1.63m0 0h.09m0 0v-.13m0 0h.28m0 0v-.13m0 0h-1.89m0 0v.13m0 0h.28m.01 0v.13m0 0h.1m-.01 0v1.63m0 0h.32m0 0v.42m0-.01h-1.08m.01 0v.49m0 0h2.65m-.01 0v-.49m0 0h-1.08m.01 0v-.42m0 .01h.32M139.134 376.136v-1.63m0 0h-.1m.01 0v-.13m0 0h-.28m0 0v-.13m0 0h1.89m-.01 0v.13m0 0h-.28m0 0v.13m0 0h-.09m0 0v1.63m0 0h-.32m0 0v.42m0-.01h1.08m-.01 0v.49m0 0h-2.65m.01 0v-.49m0 0h1.08m-.01 0v-.42m0 .01h-.32M131.784 376.546l.08.07M132.284 376.546l-.08.07M131.784 376.136h.5M131.464 374.506h1.14M132.694 374.376h-1.32M139.954 376.546l-.08.07M139.454 376.546l.08.07M139.954 376.136h-.5M140.274 374.506h-1.14M139.044 374.376h1.32M132.284 376.796c0 .14-.11.25-.25.25s-.25-.11-.25-.25.11-.25.25-.25.25.11.25.25zM139.954 376.796c0 .14-.11.25-.25.25s-.25-.11-.25-.25.11-.25.25-.25.25.11.25.25z"/></g><g><path class="st1" d="M81.834 422.796h75.76M89.394 446.416c0 .52-.42.95-.94.95a.95.95 0 01-.95-.95c0-.52.42-.94.95-.94.51-.01.94.42.94.94zM118.784 440.046l-1.4-.37m0 0l-1.21-.79m0-.01l-.9-1.13m.01 0l-.5-1.36m0 0l-.04-1.44m0 0l.41-1.39m0 0l.83-1.18m0 0l1.16-.86m0-.01l1.37-.45m0 0h1.45m0 0l1.37.45m0 0l1.16.86m0 .01l.83 1.18m0 0l.41 1.39m0 0l-.04 1.44m0 0l-.5 1.36m0 0l-.9 1.13m0 0l-1.21.79m0 .01l-1.4.37m.01 0v5.54m0 0l.46-.11m-.01 0l.49-.04m0 0l.49.04m0 0l.45.11m.01 0l.39.17m0 0l.3.23m0-.01l.19.26m0 0l.06.28m0 0v.4m0 .01l-.02.12m0 0l-.06.28m0-.01l-.05.1m-.01.01l-.18.25m0 0l-.08.07m0 0l-.27.2m0 0l-.36.16m0 0l-.2.05m.01 0l-.25.06m0 0l-.02.69m0 0l-.01.8m0 0h1.73m0 0v.43m0 0h2.87m0 0l.16.06m0 0l.08.15m0 0l-.03.17m0-.01l-.13.1m0 .01l-.49.16m0 0l-.73.31m0 0l-1.01.58m.01 0l-.73.26m0-.01v.13m0 0h.6m0 0v.98m0 0h-2.57m0 0v-.88m0 0l-.02-.01m0 0l-.04-.03m0 .01l-.03-.03m0-.01l-.02-.04m-.01 0l-.28-.67m0 0h-.7m.01 0v1.36m0 0h1.06m-.01 0v.3m0 0h-3.02m0 0v-.3m0 0h1.06m0 0v-1.36m0 0h-1.44m0 0v-.15m0 0h-.42m.01 0v.3m0 0h.15m0 0v.53m0 0h.6m0 0v.98m0 0h-2.57m0 0v-.98m0 0h.6m.01 0v-.53m0 0h.15m0 0v-.3m0 0h-.15m0 0v-1.51m0 0h2.57m0 0v-2.15m0-.01h.02m0 0h.06m0 0h.09m0 0h.13m0 0h.15m0 0h.04m0 0v-7.5M121.124 451.366h-.21m0 0l.14.34m0 0l.33.05m.01 0v-.24m0 0h.15m0 0v-.3m0 0h-.42m0 0v.15M122.604 451.216v.24m0 0l.68-.24m-.01 0l.99-.56m0-.01l.05-.02m0 0h-1.57m.01 0v.59m0 0h-.15M116.744 452.046v-.53M116.064 452.046v-.53M122.404 452.046h.35M121.544 451.516h.19M121.734 451.516h.68M122.414 451.516h.01M121.734 451.696v-.18M122.604 451.216h-1.06M120.244 449.706h-.55M122.754 450.626v-.49M120.184 449.136h-.49M125.544 450.146l.08-.01M121.394 452.256l-.04-.01M121.564 452.216l-.17.04M120.854 452.166l-.05-.01M120.804 452.156l-.02-.01M122.754 451.916l-.46.16M122.294 452.076l-.73.14M121.444 451.746l-.06.01M125.544 450.146l-.51.17M125.034 450.316l-.72.31M121.354 452.246l-.5-.08M121.124 450.816v.13M121.124 451.066v.1M121.124 450.946v.12M120.914 451.366h-.52M122.164 451.606l-.72.14M122.604 451.456l-.44.15M120.534 450.776l-.09-.04M120.634 450.786l-.1-.01M120.734 450.776l-.1.01M120.824 450.726l-.09.05M120.984 448.236l-.35.02M120.634 448.256l-.34-.02M121.054 448.216l-.07.02M119.964 448.156l-.19-.05M120.294 448.236l-.32-.08M121.004 450.566l.01-.06M119.774 448.106l-.08-.04M120.214 448.216l.02.69M120.254 450.506l.01.06M120.264 450.566l.03.06M120.294 450.626l.04.05M120.334 450.676l.06.03M120.394 450.706l.05.02M120.444 450.726l.01.01M120.454 450.736l.07.01M120.524 450.746h.22M120.744 450.746l.07-.01M120.814 450.736l.01-.01M120.824 450.726l.06-.02M120.884 450.706l.05-.03M120.934 450.676l.04-.05M120.974 450.626l.03-.06M120.234 448.906l.02 1.6M121.024 449.706l-.01.8M121.124 450.006h-.1M120.254 450.006h-.56M118.784 440.046v-5.35M119.694 440.046v-5.35M118.784 434.696h.91M115.724 452.046h1.36M115.874 451.516h1.06M115.874 451.216h1.06M117.344 451.216v-1.21M121.124 450.006v1.21M118.784 452.726h.91M118.784 451.366v-3.82M119.694 445.586v5.78M117.344 450.006h1.44M118.294 449.706h.49M118.294 449.136h.49M120.184 449.706v-1.5M118.784 437.366a1.89 1.89 0 11.91 0M117.344 450.676c-.16.09-.37.04-.46-.13a.339.339 0 01.12-.46c.11-.06.24-.06.34 0"/></g></g><g><path class="st1" d="M116.434 495.036l.47 1.65m0-.01l.72 1.55m-.01.01l.97 1.23m0 0l1.25.94m0 0l1.45.59m0 0l1.55.2m0 .01l1.55-.2m0-.01l1.45-.59m0 0l1.25-.94m0 0l.97-1.23m-.01 0l.72-1.55m0-.01l.47-1.65m0 .01l.21-1.7m0 0l-.06-1.71m0 0l-1.22-11.58m0 0h-10.65m-.01 0l-1.22 11.58m0 0l-.06 1.71m0 0l.21 1.7M126.954 485.766h-4.12M122.834 485.766h-4.12M125.894 500.036c-.89.57-1.96.88-3.06.89M129.144 493.206c.17 2.59-1.03 5.11-3.25 6.83M126.954 485.766c1.51 2.25 2.27 4.83 2.2 7.44M116.524 493.206c-.07-2.61.69-5.18 2.19-7.44M119.764 500.036c-2.22-1.72-3.41-4.24-3.25-6.83M122.834 500.916c-1.1-.01-2.17-.32-3.06-.89"/><path class="st3" d="M118.184 480.046h9.3v.19h-9.3z"/><path class="st1" d="M127.484 480.046h-9.3m0 0v.19m0 0h9.3m0 0v-.19M113.384 480.046h18.9M113.384 475.506h18.9M113.384 480.046v-4.54M132.284 480.046v-4.54"/><path class="st2" d="M100.724 538.516h56.87m-56.87-11.33h56.87m-56.87-11.34h56.87m-56.87-11.34h56.87m-56.87-11.33h15.5m13.21 0h28.16m-56.87-11.34h16.59m11.04 0h29.24m-15.21 66.03v-67.83m-22.67 67.83v-47.56"/><g><path class="st1" d="M100.724 547.866v-67.82M97.514 539.606v-17.38M97.514 522.226h-12.47M85.044 522.226v8.24m0 .9v8.24M85.044 539.606h12.47M97.514 505.696v-17.39M97.514 488.306h-12.47M85.044 488.306v8.24m0 .91v8.24M85.044 505.696h12.47M88.874 531.366a1.135 1.135 0 01-2.08 0h2.08zm-2.07-.9a1.135 1.135 0 012.08 0h-2.08zM88.874 497.456c-.17.4-.57.68-1.04.68-.46 0-.86-.28-1.04-.68h2.08zm-2.07-.91a1.135 1.135 0 012.08 0h-2.08zM82.364 530.456v.91m0 0h7.75m0 0l.3-.26m0 .01v-.39m0-.01l-.3-.26m0 0h-7.75"/><path class="st3" d="M82.094 530.156h.27v1.51h-.27z"/><path class="st1" d="M82.364 531.666v-1.51m0 0h-.27m0 0v1.51m0 0h.26"/><path class="st3" d="M81.834 529.776h.26v2.27h-.26z"/><path class="st1" d="M82.094 532.046v-2.27m0 0h-.26m0 0v2.27m0 0h.26M83.724 534.186h-1.63m0 0v-.1m0 0h-.13m0 0v-.28m0 0h-.13m0 0v1.89m0 0h.13m0 0v-.28m0-.01h.13m0 0v-.09m0 0h1.63m0 0v-.32m0 0h.42m0 0v1.08m0 0h.49m0 0v-2.65m0 0h-.49m0 0v1.08m0 0h-.42m0 0v-.32M83.724 527.646h-1.63m0 0v.1m0-.01h-.13m0 0v.28m0 .01h-.13m0 0v-1.89m0 0h.13m0 0v.28m0 0h.13m0 0v.09m0 .01h1.63m0 0v.32m0 0h.42m0 0v-1.08m0 0h.49m0 0v2.65m0 0h-.49m0 0v-1.08m0 0h-.42m0 0v.32M82.364 496.546v.91m0 0h7.75m0 0l.3-.26m0 0v-.4m0 .01l-.3-.26m0 0h-7.75"/><path class="st3" d="M82.094 496.246h.27v1.51h-.27z"/><path class="st1" d="M82.364 497.756v-1.51m0 0h-.27m0 0v1.51m0 0h.26"/><path class="st3" d="M81.834 495.866h.26v2.27h-.26z"/><path class="st1" d="M82.094 498.136v-2.27m0 0h-.26m0 0v2.27m0 0h.26M83.724 500.266h-1.63m0 0v-.09m0 0h-.13m0 0v-.28m0 0h-.13m0 0v1.89m0-.01h.13m0 0v-.28m0 0h.13m0 0v-.1m0 .01h1.63m0 0v-.32m0-.01h.42m0 0v1.08m0 0h.49m0 0v-2.64m0 0h-.49m0 0v1.08m0-.01h-.42m0 0v-.32M83.724 493.736h-1.63m0 0v.09m0 0h-.13m0 0v.28m0 0h-.13m0 0v-1.89m0 0h.13m0 0v.28m0 .01h.13m0 0v.09m0 0h1.63m0 0v.32m0 0h.42m0 0v-1.08m0 .01h.49m0 0v2.64m0 0h-.49m0 0v-1.08m0 .01h-.42m0 0v.32M84.144 534.996l.07-.07M84.144 534.506l.07.07M83.724 534.996v-.49M82.094 535.316v-1.13M81.964 534.086v1.32M84.144 526.836l.07.07M84.144 527.326l.07-.07M83.724 526.836v.49M82.094 526.516v1.13M81.964 527.736v-1.32M84.144 501.086l.07-.08M84.144 500.586l.07.08M83.724 501.086v-.5M82.094 501.406v-1.14M81.964 500.176v1.32M84.144 492.916l.07.08M84.144 493.406l.07-.07M83.724 492.916v.49M82.094 492.596v1.14M81.964 493.826v-1.32M84.634 534.746c0 .14-.11.25-.25.25s-.24-.11-.24-.25.11-.25.24-.25.25.12.25.25zM84.634 527.076c0 .14-.11.25-.25.25s-.24-.11-.24-.25.11-.25.24-.25.25.12.25.25zM84.634 500.836c0 .14-.11.25-.25.25s-.24-.11-.24-.25.11-.25.24-.25.25.11.25.25zM84.634 493.166c0 .14-.11.25-.25.25s-.24-.11-.24-.25.11-.25.24-.25.25.11.25.25z"/></g><g><path class="st1" d="M100.724 547.866h-18.89M81.834 547.866h75.76m0 0v26.45m0 0h-75.76m0 0v-26.45M90.674 572.206l-1.1-.08m0 0l-1.06-.24m0 0l-1-.39m0 0l-.9-.53m0 0l-.78-.65m0 0l-.63-.76m0 0l-.46-.84m0 .01l-.29-.89m0 0l-.1-.92m.01 0v-11.64m0 0l.1-.92m-.01 0l.29-.89m0 0l.46-.83m0 0l.63-.76m0 0l.78-.65m0 0l.9-.53m0 0l1-.39m0 0l1.06-.24m0 0l1.1-.08m0 0h51.14m0 0l2.3.17m0 0l2.23.5m0 0l2.1.82m0 0l1.89 1.11m0 0l1.63 1.37m0 0l1.33 1.59m0-.01l.98 1.76m0 0l.6 1.87m-.01 0l.2 1.93m.01 0l-.2 1.93m-.01 0l-.6 1.87m.01 0l-.98 1.76m0-.01l-1.33 1.59m0 0l-1.63 1.37m0 0l-1.89 1.11m0 0l-2.1.82m0 0l-2.23.5m0 0l-2.3.17m0 0h-51.14M91.844 561.096c0 .52-.42.95-.94.95s-.95-.42-.95-.95.42-.94.95-.94c.52-.01.94.42.94.94z"/></g></g></g></g></g><g id="walls_1_"><path class="st0" d="M183.386 164.341h18.513v22.702l50.458-.005v10.958l-40.821.004-.001 64.228h-1.51v.454h-1.511l.001-64.682-126.397.013-.001-10.958 116.759-.012v-19.679l-12.467.001v19.68h-3.023v-22.704zM95.344 585.322H81.741v-10.958h75.761v-31.098h1.512v-.454h1.511v31.552h68.393v-71.038h-22.672v-3.023h25.695v74.061h18.896v10.958H95.344zm157.013-248.445h-40.821v-10.958h40.821v10.958zm-82.981 118.46h-8.851v-37.352h-1.511v.454h-1.512v36.898H81.741v3.022l75.761.001v18.704h-56.868V458.36h-3.022v18.704H81.741v3.023h75.761v35.066h1.512v.453h1.511v-57.247h8.398v-1.51h.453v-1.512zM10.702 198.066l-.003-11.006 11.717.001v-19.466l-11.717-.002v-3.023l14.74.002.001 33.447-14.738.047zm200.834 257.271l169.661.001v3.022l-180.383-.001v-1.51h-.453v-1.512l8.154.001-.001-80.486h1.511v.454h1.51l.001 80.031zm-.001-111.923h-1.51v.454h-1.511v-50.202h1.511v.454h1.51v49.294zm-51.01-93.823h-31.06v1.511h-.453v1.512h5.818v59.135H92.321v-59.135h9.486v-1.512h-.454v-1.511H66.626v3.023h22.672v74.439h-7.557v3.023h25.127v8.124H88.542v33.063h-6.801v3.023h29.473v6.802H81.741v3.022c5.175 0 32.496 0 32.495-.001l.001-9.823h43.265v16.04h1.512v.453h1.511v-19.516h-68.96v-30.04h18.326l-.001-11.147h27.962v-77.462h22.672v-3.023h.001zm-68.204 77.462v-12.281h21.16v12.281h-21.16zm24.182 0v-12.281h18.327v12.281h-18.327z"/><path class="st4" d="M55.783 351.622c2.212-5.965 2.859-9.344 3.173-15.5"/><path class="st5" d="M55.715 351.779l.601-1.387L19.96 334.61h-.453v1.511z"/><path class="st4" d="M58.956 334.61v1.511M146.439 517.427a36.79 36.79 0 0112.575-2.274"/><path class="st5" d="M146.342 517.462l11.16 25.804h1.512v-.454l-11.25-25.874z"/><path class="st4" d="M146.438 416.171c3.667 1.497 8.733 2.358 12.547 2.21"/><path class="st5" d="M146.342 416.129l1.389.6 11.283-25.95v-.453h-1.512z"/><path class="st4" d="M198.195 471.019c1.613-4.325 2.526-9.278 2.619-14.17"/><path class="st5" d="M198.195 471.018l.6-1.387-29.419-12.782h-.453v1.511z"/><g><path class="st4" d="M224.119 372.715c-4.461 1.664-8.954 2.473-14.094 2.591"/><path class="st5" d="M224.195 372.686l-12.659-29.272h-1.511v.454l12.782 29.418z"/></g><g><path class="st4" d="M224.09 264.813c-5.064-1.889-9.053-2.604-14.064-2.585"/><path class="st5" d="M224.195 264.848l-1.388-.6-12.782 29.418v.454h1.511z"/></g><g><path class="st4" d="M103.663 238.432c-1.365 3.571-2.382 8.096-2.309 12.577"/><path class="st5" d="M103.662 238.432l-.599 1.388 25.949 11.282h.453l.001-1.511z"/></g><path d="M.5.579h36.842v23.806h-26.64v302.668h9.258v7.557h-.453v1.511H.5V.579h0zm81.241 326.474v258.269h-9.069V336.121H58.955v-1.511h-.453v-7.557h23.239zm299.456 99.756h23.805v62.347h-23.805v-62.347h0zm0-89.932h-128.84v-10.958h128.84v-27.584h23.805v62.348h-23.805v-23.806h0zm0 237.487v-19.082h23.805v30.04H250.836v-10.958h130.361zm0-418.672h23.805v59.513h-23.805v-17.223l-128.84.013v-10.958l128.84-.013v-31.332h0zM305.624 24.385h-90.687V.579h90.687v23.806h0zM103.468.579h45.344v23.806h-45.344V.579z" fill-rule="evenodd" clip-rule="evenodd" stroke="#000" stroke-linecap="round" stroke-linejoin="round" stroke-miterlimit="3"/><g><path class="st4" d="M397.531 426.729h-16.247M405.089 426.729h-5.668M399.421 426.729h-1.89M397.531 360.603h-16.247M405.089 360.603h-5.668M399.421 360.603h-1.89M405.089 360.603v66.126M381.284 360.603v66.126M397.531 360.603v3.779M397.531 364.382h1.891M399.421 364.382v-3.779M399.421 398.39v-1.89M399.421 396.5h-1.89M397.531 396.5v1.89M398.476 364.382V396.5M397.531 364.382V396.5M399.421 396.5v-32.118M397.531 398.39v.945M397.531 399.335h.945M398.476 399.335v.944M398.476 400.279h.945M399.421 400.279v-1.889M399.421 426.729v-3.778M399.421 422.951h-.945M398.476 422.951v.945M398.476 423.896h-.944M397.531 423.896v2.833M399.421 422.951v-22.672M396.587 402.168v18.894M396.587 399.335v2.833M396.587 402.168h1.889M398.476 402.168v-2.833M398.476 399.335h-1.889M398.476 423.896v-2.834M398.476 421.062h-1.889M396.587 421.062v2.834M396.587 423.896h1.889M398.476 421.062v-18.894M396.587 402.168v18.894M397.531 402.168v18.894M399.421 360.603h-1.89M399.421 360.603h-1.89M405.089 360.603h-5.668M397.531 360.603h-16.247M399.421 426.729h-1.89M399.421 426.729h-1.89M405.089 426.729h-5.668M397.531 426.729h-16.247"/><g><path class="st4" d="M397.531 298.256h-16.247M405.089 298.256h-5.668M399.421 298.256h-1.89M397.531 215.126h-16.247M405.089 215.126h-5.668M399.421 215.126h-1.89M405.089 215.126v83.13M381.284 215.126v83.13M397.531 215.126v3.779M397.531 218.905h1.891M399.421 218.905v-3.779M399.421 269.916v-1.889M399.421 268.027h-1.89M397.531 268.027v1.889M398.476 218.905v49.122M397.531 218.905v49.122M399.421 268.027v-49.122M397.531 269.916v.945M397.531 270.861h.945M398.476 270.861v.945M398.476 271.806h.945M399.421 271.806v-1.89M399.421 298.256v-3.778M399.421 294.478h-.945M398.476 294.478v.944M398.476 295.422h-.944M397.531 295.422v2.834M399.421 294.478v-22.672M396.587 273.695v18.893M396.587 270.861v2.834M396.587 273.695h1.889M398.476 273.695v-2.834M398.476 270.861h-1.889M398.476 295.422v-2.834M398.476 292.588h-1.889M396.587 292.588v2.834M396.587 295.422h1.889M398.476 292.588v-18.893M396.587 273.695v18.893M397.531 273.695v18.893M399.421 215.126h-1.89M399.421 215.126h-1.89M405.089 215.126h-5.668M397.531 215.126h-16.247M399.421 298.256h-1.89M399.421 298.256h-1.89M405.089 298.256h-5.668M397.531 298.256h-16.247"/></g><g><path class="st4" d="M397.531 489.077h-16.247M405.089 489.077h-5.668M399.421 489.077h-1.89M397.531 555.203h-16.247M405.089 555.203h-5.668M399.421 555.203h-1.89M405.089 555.203v-66.126M381.284 555.203v-66.126M397.531 555.203v-3.778M397.531 551.424h1.891M399.421 551.424v3.779M399.421 517.417v1.889M399.421 519.306h-1.89M397.531 519.306v-1.889M398.476 551.424v-32.119M397.531 551.424v-32.119M399.421 519.306v32.119M397.531 517.417v-.945M397.531 516.472h.945M398.476 516.472v-.945M398.476 515.527h.945M399.421 515.527v1.89M399.421 489.077v3.779M399.421 492.856h-.945M398.476 492.856v-.946M398.476 491.911h-.944M397.531 491.911v-2.834M399.421 492.856v22.67M396.587 513.638v-18.893M396.587 516.472v-2.834M396.587 513.638h1.889M398.476 513.638v2.834M398.476 516.472h-1.889M398.476 491.911v2.834M398.476 494.745h-1.889M396.587 494.745v-2.834M396.587 491.911h1.889M398.476 494.745v18.893M396.587 513.638v-18.893M397.531 513.638v-18.893M399.421 555.203h-1.89M399.421 555.203h-1.89M405.089 555.203h-5.668M397.531 555.203h-16.247M399.421 489.077h-1.89M399.421 489.077h-1.89M405.089 489.077h-5.668M397.531 489.077h-16.247"/></g><g><path class="st4" d="M103.554 8.057v16.248M103.554.5v5.668M103.554 6.168v1.889M37.428 8.057v16.248M37.428.5v5.668M37.428 6.168v1.889M37.428.5h66.126M37.428 24.305h66.126M37.428 8.057h3.778M41.206 8.057V6.168M41.206 6.168h-3.778M75.214 6.168h-1.889M73.325 6.168v1.889M73.325 8.057h1.889M41.206 7.113h32.119M41.206 8.057h32.119M73.325 6.168H41.207M75.214 8.057h.945M76.159 8.057v-.944M76.159 7.113h.944M77.104 7.113v-.945M77.104 6.168h-1.89M103.554 6.168h-3.778M99.776 6.168v.945M99.776 7.113h.944M100.72 7.113v.944M100.72 8.057h2.834M99.776 6.168H77.104M78.994 9.002h18.892M76.159 9.002h2.835M78.994 9.002V7.113M78.994 7.113h-2.835M76.159 7.113v1.889M100.72 7.113h-2.834M97.886 7.113v1.889M97.886 9.002h2.834M100.72 9.002V7.113M97.886 7.113H78.993M78.994 9.002h18.892M78.994 8.057h18.892M37.428 6.168v1.889M37.428 6.168v1.889M37.428.5v5.668M37.428 8.057v16.248M103.554 6.168v1.889M103.554 6.168v1.889M103.554.5v5.668M103.554 8.057v16.248"/><g><path class="st4" d="M215.024 8.057v16.248M215.024.5v5.668M215.024 6.168v1.889M148.898 8.057v16.248M148.898.5v5.668M148.898 6.168v1.889M148.898.5h66.126M148.898 24.305h66.126M148.898 8.057h3.778M152.676 8.057V6.168M152.676 6.168h-3.778M186.684 6.168h-1.89M184.794 6.168v1.889M184.794 8.057h1.89M152.676 7.113h32.118M152.676 8.057h32.118M184.794 6.168h-32.118M186.684 8.057h.944M187.628 8.057v-.944M187.628 7.113h.945M188.574 7.113v-.945M188.574 6.168h-1.891M215.024 6.168h-3.778M211.245 6.168v.945M211.245 7.113h.944M212.19 7.113v.944M212.19 8.057h2.834M211.245 6.168h-22.672M190.462 9.002h18.894M187.628 9.002h2.834M190.462 9.002V7.113M190.462 7.113h-2.834M187.628 7.113v1.889M212.19 7.113h-2.834M209.356 7.113v1.889M209.356 9.002h2.834M212.19 9.002V7.113M209.356 7.113h-18.894M190.462 9.002h18.894M190.462 8.057h18.894M148.898 6.168v1.889M148.898 6.168v1.889M148.898.5v5.668M148.898 8.057v16.248M215.024 6.168v1.889M215.024 6.168v1.889M215.024.5v5.668M215.024 8.057v16.248"/></g><g><path class="st4" d="M397.531 155.613h-16.247M405.089 155.613h-5.668M399.421 155.613h-1.89M405.089 155.613V.5M381.284 155.613V24.305M397.531 155.613v-4.724M397.531 150.889h1.891M399.421 150.889v4.724M399.421 8.057v4.723M399.421 12.781h-1.89M397.531 12.781V8.057M399.421 6.168v1.889M397.531 150.889V12.78M399.421 12.781v138.108M399.421 155.613h-1.89M399.421 155.613h-1.89M405.089 155.613h-5.668M397.531 155.613h-16.247M305.711 8.057v16.248M305.711.5v5.668M305.711 6.168v1.889M305.711.5h99.378M305.711 24.305h75.572M305.711 8.057h4.723M310.434 8.057V6.168M310.434 6.168h-4.723M397.531 6.168h-4.723M392.808 6.168v1.889M392.808 8.057h4.724M399.421 6.168h-1.89M310.434 8.057h82.374M392.808 6.168h-82.374M305.711 6.168v1.889M305.711 6.168v1.889M305.711.5v5.668M305.711 8.057v16.248"/><g><path class="st7" d="M397.531 65.994h1.89v5.133h-1.89zM397.531 109.352h1.89v5.133h-1.89z"/></g></g></g></g><g><path class="st8" d="M17.756 164.442l-3.43 3.02M25.176 164.442l-3.43 3.02M25.676 170.542l-3.02 2.66M14.486 186.932l-3.55 3.13M25.676 177.082l-3.02 2.66M25.676 183.622l-3.02 2.66M21.916 186.932l-10.98 9.67M25.676 190.152l-8.8 7.76M25.676 196.692l-1.36 1.2M88.726 186.922l-6.37 5.61M96.146 186.922l-12.44 10.96M103.576 186.922l-12.45 10.96M110.986 186.922l-12.44 10.96M118.416 186.922l-12.44 10.96M125.836 186.922l-12.44 10.96M133.256 186.922l-12.44 10.96M69.686 249.462l-2.82 2.48M140.676 186.922l-12.44 10.96M77.116 249.462l-3.43 3.02M148.116 186.912l-12.45 10.97M84.536 249.462l-3.43 3.02M155.536 186.912l-12.44 10.97M188.726 164.212l-5.1 4.5M91.956 249.462l-3.43 3.02M162.966 186.912l-12.45 10.96M186.646 172.582l-3.02 2.66M196.146 164.212l-3.43 3.02M92.556 255.472l-3.02 2.66M99.376 249.462l-3.43 3.02M170.376 186.912l-12.44 10.96M186.646 179.122l-3.02 2.66M202.136 165.472l-3.02 2.66M92.556 262.002l-3.02 2.66M177.796 186.912l-12.44 10.96M202.136 172.022l-3.02 2.66M92.556 268.552l-3.02 2.66M186.646 185.662l-13.86 12.21M202.136 178.552l-3.02 2.66M92.556 275.092l-3.02 2.66M192.646 186.912l-12.44 10.96M92.556 281.622l-3.02 2.66M202.136 185.092l-14.51 12.78M92.556 288.162l-3.02 2.66M136.486 249.462l-3.43 3.02M207.486 186.912l-12.44 10.96M138.086 254.592l-3.02 2.66M143.906 249.462l-3.43 3.02M92.556 294.702l-3.02 2.66M214.916 186.912l-12.44 10.96M138.086 261.132l-3.02 2.66M151.326 249.462l-3.42 3.02M92.556 301.242l-3.02 2.66M222.336 186.912l-13.58 11.96M211.776 202.752l-3.02 2.66M158.756 249.462l-3.43 3.02M92.556 307.782l-3.02 2.66M138.086 267.672l-3.02 2.66M229.756 186.912l-12.44 10.96M211.776 209.282l-3.02 2.66M95.606 311.622l-6.07 5.35M138.086 274.202l-3.02 2.66M237.176 186.912l-12.44 10.96M211.776 215.822l-3.02 2.66M92.556 320.852l-3.02 2.66M103.036 311.622l-3.43 3.02M85.666 326.922l-3.43 3.02M138.086 280.742l-3.02 2.66M244.596 186.912l-12.43 10.96M211.776 222.362l-3.02 2.66M110.456 311.622l-3.43 3.02M93.086 326.922l-3.43 3.02M138.086 287.282l-3.02 2.66M252.026 186.912l-12.43 10.95M252.596 192.942l-5.58 4.92M117.876 311.622l-4.16 3.67M100.516 326.922l-3.43 3.02M211.776 228.902l-3.03 2.67M138.086 293.822l-3.02 2.66M116.736 319.162l-3.02 2.67M125.296 311.622l-3.42 3.02M107.936 326.922l-3.43 3.02M91.796 341.132l-3.02 2.67M95.276 338.072l-3.43 3.02M211.776 235.442l-3.03 2.67M138.086 300.362l-3.02 2.66M132.726 311.622l-3.43 3.02M102.696 338.072l-3.42 3.02M91.796 347.672l-3.02 2.67M116.736 325.702l-4.81 4.24M110.126 331.532l-3.02 2.66M211.776 241.982l-3.03 2.67M138.086 306.902l-3.02 2.66M138.086 313.432l-3.02 2.66M211.776 248.512l-3.03 2.67M91.796 354.212l-3.02 2.66M110.126 338.062l-3.44 3.03M122.776 326.922l-3.43 3.02M138.086 319.972l-3.02 2.66M211.776 255.052l-3.03 2.67M91.796 360.752l-3.02 2.66M130.196 326.922l-3.43 3.02M211.776 261.592l-.57.51M138.086 326.512l-3.89 3.43M87.436 371.132l-3.43 3.02M91.796 367.292l-3.02 2.66M83.696 380.962l-1.72 1.52M94.856 371.132l-3.43 3.02M91.116 380.962l-3.42 3.02M102.276 371.132l-3.42 3.02M98.546 380.962l-3.43 3.02M109.706 371.132l-3.43 3.02M117.116 371.132l-5.67 5M105.956 380.962l-3.42 3.02M124.546 371.132l-3.43 3.02M211.776 294.282l-3.03 2.67M114.476 380.002l-4.52 3.98M131.966 371.132l-3.43 3.02M211.776 300.822l-3.03 2.67M139.396 371.132l-3.43 3.02M211.776 307.362l-3.03 2.67M146.816 371.132l-3.43 3.02M211.776 313.902l-3.03 2.67M154.236 371.132l-3.43 3.02M211.776 320.442l-3.03 2.67M160.766 371.922l-3.03 2.67M213.126 325.792l-4.38 3.86M160.766 378.452l-3.03 2.67M220.546 325.792l-11.8 10.39M227.966 325.792l-12.43 10.95M211.776 340.052l-3.03 2.67M160.766 384.992l-3.03 2.67M235.396 325.792l-12.43 10.95M88.486 455.202l-3.44 3.03M242.816 325.792l-12.43 10.95M95.916 455.202l-3.44 3.03M250.236 325.792l-12.43 10.95M103.336 455.202l-5.49 4.84M252.596 330.252l-7.36 6.49M100.866 463.922l-3.02 2.66M86.096 476.932l-3.43 3.02M110.756 455.202l-3.44 3.03M209.536 374.722l-.79.69M160.576 417.852l-2.84 2.5M100.866 470.452l-3.02 2.66M93.506 476.932l-3.43 3.02M118.176 455.202l-3.44 3.03M211.776 379.282l-3.03 2.67M160.766 424.222l-3.03 2.67M100.936 476.932l-3.43 3.02M125.596 455.202l-3.44 3.03M211.776 385.822l-3.03 2.67M160.766 430.762l-3.03 2.67M108.356 476.932l-3.43 3.02M133.026 455.202l-3.44 3.03M211.776 392.362l-3.03 2.67M160.766 437.302l-3.03 2.67M115.776 476.932l-3.42 3.02M140.446 455.202l-3.44 3.03M211.776 398.902l-3.03 2.67M160.766 443.842l-3.03 2.67M123.206 476.932l-3.43 3.02M147.866 455.202l-3.43 3.03M211.776 405.442l-3.03 2.67M160.766 450.382l-3.03 2.67M130.626 476.932l-3.43 3.02M155.296 455.202l-3.44 3.03M211.776 411.982l-3.03 2.67M162.716 455.202l-4.98 4.39M138.046 476.932l-3.43 3.02M160.766 463.452l-3.03 2.67M169.616 455.652l-2.92 2.58M211.776 418.512l-3.02 2.66M145.466 476.932l-3.43 3.02M160.766 469.992l-3.03 2.67M211.776 425.052l-3.02 2.66M152.886 476.932l-3.43 3.02M211.776 431.592l-3.02 2.66M160.766 476.532l-3.88 3.42M211.776 438.132l-3.02 2.66M160.766 483.072l-3.03 2.67M211.776 444.672l-3.02 2.66M160.766 489.612l-3.03 2.67M211.776 451.212l-3.02 2.66M207.236 455.212l-3.43 3.02M160.766 496.152l-3.03 2.67M160.766 502.682l-3.03 2.67M214.666 455.202l-3.44 3.03M222.086 455.202l-3.44 3.03M160.766 509.222l-3.03 2.67M86.966 574.232l-4.99 4.4M229.516 455.202l-3.44 3.03M94.396 574.232l-12.42 10.94M236.936 455.202l-3.44 3.03M101.816 574.232l-12.44 10.96M244.356 455.202l-3.44 3.03M109.236 574.232l-12.44 10.96M251.786 455.202l-3.44 3.03M116.666 574.232l-12.45 10.96M259.196 455.202l-3.44 3.03M208.146 500.172l-1.66 1.46M159.896 542.682l-2.16 1.9M124.076 574.232l-12.44 10.96M215.576 500.172l-3.43 3.02M266.616 455.202l-3.43 3.03M131.506 574.232l-12.45 10.96M160.766 548.452l-3.03 2.67M274.046 455.202l-3.44 3.03M160.766 554.992l-3.03 2.67M138.926 574.232l-12.44 10.96M222.996 500.172l-3.43 3.02M281.466 455.202l-3.44 3.03M160.766 561.532l-3.03 2.67M146.346 574.232l-12.44 10.96M230.416 500.172l-3.42 3.02M288.896 455.202l-3.44 3.03M160.766 568.072l-3.03 2.67M153.776 574.232l-12.44 10.96M232.176 505.162l-3.02 2.66M296.316 455.202l-3.44 3.03M161.196 574.232l-12.44 10.96M232.176 511.702l-3.02 2.66M303.726 455.212l-3.43 3.02M168.616 574.232l-12.44 10.96M232.176 518.242l-3.02 2.66M311.146 455.212l-3.43 3.02M176.036 574.232l-12.44 10.96M232.176 524.772l-3.02 2.66M318.566 455.212l-3.43 3.02M183.456 574.232l-12.44 10.96M232.176 531.312l-3.02 2.66M325.986 455.212l-3.42 3.02M190.886 574.232l-12.45 10.96M232.176 537.852l-3.02 2.66M232.176 544.392l-3.02 2.66M333.416 455.212l-3.43 3.02M198.306 574.232l-12.44 10.96M232.176 550.932l-3.02 2.66M340.836 455.212l-3.43 3.02M205.726 574.232l-12.44 10.96M232.176 557.472l-3.02 2.66M348.266 455.212l-3.43 3.02M213.156 574.232l-12.45 10.96M232.176 564.002l-3.02 2.66M355.676 455.212l-3.43 3.02M220.566 574.232l-12.44 10.96M232.176 570.542l-3.02 2.66M363.096 455.212l-3.43 3.02M227.996 574.232l-12.45 10.96M235.416 574.232l-12.44 10.96M370.526 455.212l-3.43 3.02M242.836 574.232l-12.44 10.96M377.946 455.212l-3.43 3.02M250.266 574.232l-12.44 10.96M251.076 580.052l-5.83 5.14"/></g><path class="st7" d="M183.386 164.341h18.513v22.702l50.458-.005v10.958l-40.821.004-.001 64.228h-1.51v.454h-1.511l.001-64.682-126.397.013-.001-10.958 116.759-.012v-19.679l-12.467.001v19.68h-3.023v-22.704zM95.344 585.322H81.741v-10.958h75.761v-31.098h1.512v-.454h1.511v31.552h68.393v-71.038h-22.672v-3.023h25.695v74.061h18.896v10.958H95.344zm157.013-248.445h-40.821v-10.958h40.821v10.958zm-82.981 118.46v1.512h-.453v1.51h-8.398v57.247h-1.511v-.453h-1.512v-35.066H81.741v-3.023h15.871V458.36h3.022v18.704h56.868V458.36l-75.761-.001v-3.022h75.761v-36.898h1.512v-.454h1.511v37.352h8.851zM10.702 198.066l-.003-11.006 11.717.001v-19.466l-11.717-.002v-3.023l14.74.002.001 33.447-14.738.047zm200.834 257.271l169.661.001v3.022l-180.383-.001v-1.51h-.453v-1.512l8.154.001-.001-80.486h1.511v.454h1.51l.001 80.031zm-.001-111.923h-1.51v.454h-1.511v-50.202h1.511v.454h1.51v49.294zm-51.01-93.823v3.023h-22.672v77.462h-27.962l.001 11.147H91.565v30.04h68.96v19.516h-1.511v-.453h-1.512v-16.04h-43.265l-.001 9.823c.001.001-27.321.001-32.495.001v-3.022h29.473v-6.802H81.741v-3.023h6.801V338.2h18.326v-8.124H81.741v-3.023h7.557v-74.439H66.626v-3.023h34.727v1.511h.454v1.512h-9.486v59.135h42.509v-59.135h-5.818v-1.512h.453v-1.511h31.06zm-68.204 77.462h21.16v-12.281h-21.16v12.281zm24.182 0h18.327v-12.281h-18.327v12.281z"/></g><g id="sizes"><g class="st9"><path class="st10" d="M15.052 153.685l3.813-8.227h1.641l-3.719 8.133h5.57v1.477h-7.305v-1.383zm4.898-3.554h1.555v6.688H19.95v-6.688z"/></g><g class="st9"><path class="st10" d="M25.25 156.81h-1.594v-9.625l-1.617.992v-1.648l1.617-1.078h1.594v11.359zM27.672 155.217h1.594v1.594l-1.594 1.578v-3.172zM37.32 146.873l-2.938 9.938h-1.695l2.938-9.844h-2.891v1.633H31.14v-3.148h6.18v1.421z"/></g><g class="st9"><path class="st10" d="M218.536 213.243h-1.594v-9.625l-1.617.992v-1.648l1.617-1.078h1.594v11.359z"/></g><g class="st9"><path class="st10" d="M224.738 213.025c-.445-.224-.808-.55-1.086-.977s-.465-.94-.559-1.539v-.008h1.594v.008c.058.417.224.741.5.973s.636.348 1.078.348c.511 0 .905-.171 1.184-.512s.418-.821.418-1.441v-.953c0-.614-.14-1.093-.418-1.434s-.673-.512-1.184-.512c-.276 0-.542.078-.797.234s-.479.375-.672.656h-1.453v-5.984h5.789v1.516h-4.195v2.555a2.275 2.275 0 011.414-.508c.656 0 1.218.136 1.684.406s.82.667 1.063 1.188.363 1.148.363 1.883v.953c0 .734-.125 1.362-.375 1.883s-.614.918-1.094 1.191-1.055.41-1.727.41c-.573 0-1.082-.113-1.527-.336zM231.648 211.65h1.594v1.594l-1.594 1.578v-3.172zM235.258 211.861l3.961-5.281c.229-.302.407-.616.535-.941s.191-.629.191-.91v-.016c0-.453-.133-.805-.398-1.055s-.644-.375-1.133-.375c-.464 0-.839.137-1.125.41s-.461.66-.523 1.16v.008h-1.648v-.008c.094-.651.285-1.207.574-1.668s.663-.813 1.121-1.055.987-.363 1.586-.363c.677 0 1.255.116 1.734.348s.844.569 1.094 1.012.375.977.375 1.602v.008c0 .401-.083.82-.25 1.258s-.398.859-.695 1.266l-3.289 4.469h4.297v1.516h-6.406v-1.385z"/></g><g class="st9"><path class="st10" d="M219.536 407.78h-1.594v-9.625l-1.617.992v-1.648l1.617-1.078h1.594v11.359z"/></g><g class="st9"><path class="st10" d="M226.078 407.898l-.727-.348c-.485-.232-.874-.567-1.168-1.008s-.48-.97-.559-1.59h1.625c.047.323.148.589.305.797s.358.363.605.465.538.152.871.152c.526 0 .935-.141 1.227-.422s.438-.677.438-1.188v-.344c0-.567-.138-1.007-.414-1.316s-.667-.465-1.172-.465h-.805v-1.516h.805c.442 0 .786-.133 1.031-.398s.367-.641.367-1.125v-.352c0-.448-.129-.794-.387-1.039s-.624-.367-1.098-.367c-.271 0-.513.051-.727.152s-.395.258-.543.469-.257.476-.324.793h-1.617c.104-.62.301-1.151.59-1.594s.655-.778 1.098-1.008.95-.344 1.523-.344c.979 0 1.737.258 2.273.773s.805 1.242.805 2.18v.188c0 .567-.153 1.063-.461 1.484s-.742.729-1.305.922c.62.136 1.101.44 1.441.914s.512 1.078.512 1.813v.188c0 .661-.128 1.227-.383 1.695s-.626.825-1.113 1.07-1.074.367-1.762.367l-.951.002zM232.398 406.187h1.594v1.594l-1.594 1.578v-3.172zM237.695 407.507c-.521-.261-.923-.629-1.207-1.105s-.426-1.03-.426-1.66v-.188c0-.567.142-1.102.426-1.602s.663-.878 1.137-1.133c-.401-.219-.723-.535-.965-.949s-.363-.851-.363-1.309v-.273c0-.594.133-1.116.398-1.566s.641-.8 1.125-1.047 1.047-.371 1.688-.371 1.203.124 1.688.371.859.597 1.125 1.047.398.973.398 1.566v.273c0 .469-.124.909-.371 1.32s-.574.724-.98.938c.479.261.863.64 1.152 1.137s.434 1.03.434 1.598v.188c0 .63-.142 1.184-.426 1.66s-.687.845-1.207 1.105-1.125.391-1.813.391-1.292-.13-1.813-.391zm2.789-1.359c.281-.146.499-.351.652-.613s.23-.566.23-.91v-.109c0-.349-.077-.655-.23-.918s-.371-.468-.652-.613-.606-.219-.977-.219-.695.073-.977.219-.499.352-.652.617-.23.573-.23.922v.117c0 .344.077.646.23.906s.371.462.652.605.606.215.977.215.696-.074.977-.219zm-.133-5.121c.245-.138.435-.335.57-.59s.203-.55.203-.883v-.109c0-.317-.067-.599-.203-.844s-.325-.434-.57-.566-.526-.199-.844-.199-.599.066-.844.199-.435.321-.57.566-.203.528-.203.852v.117c0 .328.067.618.203.871s.325.448.57.586.526.207.844.207.599-.07.844-.207z"/></g><g class="st9"><path class="st10" d="M238.21 510.279h-1.594v-9.625l-1.617.992v-1.648l1.617-1.078h1.594v11.359z"/></g><g class="st9"><path class="st10" d="M248.635 500.341l-2.938 9.938h-1.695l2.938-9.844h-2.891v1.633h-1.594v-3.148h6.18v1.421zM250.666 508.685h1.594v1.594l-1.594 1.578v-3.172zM254.291 507.154l3.812-8.227h1.641l-3.719 8.133h5.57v1.477h-7.305v-1.383zm4.898-3.555h1.555v6.688h-1.555v-6.688z"/></g><g class="st9"><path class="st10" d="M131.095 399.539l3.813-8.227h1.641l-3.719 8.133h5.57v1.477h-7.305v-1.383zm4.898-3.554h1.555v6.688h-1.555v-6.688z"/></g><g class="st9"><path class="st10" d="M138.394 401.071h1.594v1.594l-1.594 1.578v-3.172zM143 401.93c-.55-.567-.824-1.359-.824-2.375v-5.164c0-1.021.276-1.813.828-2.379.552-.565 1.356-.848 2.414-.848 1.063 0 1.868.281 2.418.844.549.563.824 1.356.824 2.383v5.164c0 1.021-.276 1.813-.828 2.379-.552.565-1.357.848-2.414.848-1.063-.001-1.869-.285-2.418-.852zm3.664-1.106c.268-.294.402-.718.402-1.27v-5.164c0-.552-.133-.976-.398-1.27s-.683-.441-1.25-.441c-.568 0-.984.147-1.25.441s-.398.718-.398 1.27v5.164c0 .552.134.976.402 1.27.268.294.684.441 1.246.441s.977-.147 1.246-.441z"/></g><g class="st9"><path class="st10" d="M137.181 491.204l3.813-8.227h1.641l-3.719 8.133h5.57v1.477h-7.305v-1.383zm4.898-3.554h1.555v6.688h-1.555v-6.688z"/></g><g class="st9"><path class="st10" d="M144.48 492.736h1.594v1.594l-1.594 1.578v-3.172zM149.48 494.044a2.614 2.614 0 01-1.082-1.172c-.248-.513-.371-1.132-.371-1.855v-.008c0-.422.049-.864.148-1.328a7.648 7.648 0 01.532-1.597l.109-.223 2.469-4.891h1.719l-2.898 5.664.008-.281c.13-.245.32-.435.57-.57s.542-.203.875-.203c.588 0 1.094.133 1.516.398s.742.652.961 1.16.328 1.118.328 1.832v.008c0 .729-.124 1.354-.371 1.875-.248.521-.609.917-1.086 1.188s-1.048.406-1.715.406c-.668 0-1.238-.134-1.712-.403zm2.879-1.597c.273-.313.41-.758.41-1.336v-.008c0-.636-.144-1.126-.43-1.473-.287-.347-.695-.52-1.227-.52-.474 0-.841.175-1.102.523-.261.349-.391.841-.391 1.477v.008c0 .578.137 1.022.41 1.332s.66.465 1.16.465c.507 0 .897-.156 1.17-.468z"/></g><g class="st9"><path class="st10" d="M20.213 313.488l-.008.281c-.13.239-.327.415-.59.527a2.372 2.372 0 01-.934.168c-.542 0-1.019-.138-1.43-.414-.412-.276-.73-.665-.957-1.168s-.34-1.085-.34-1.746v-.008c0-.734.124-1.362.371-1.883.247-.521.609-.917 1.086-1.188s1.048-.406 1.715-.406 1.237.138 1.711.414c.474.276.834.677 1.082 1.203.247.526.371 1.159.371 1.898v.008c0 .406-.052.84-.156 1.301a8.052 8.052 0 01-.539 1.578c-.031.07-.065.14-.102.207l-2.422 4.867h-1.719l2.861-5.639zm.074-.985c.273-.339.41-.815.41-1.43v-.008c0-.599-.137-1.063-.41-1.391s-.66-.492-1.16-.492c-.505 0-.895.164-1.168.492s-.41.794-.41 1.398v.008c0 .614.137 1.09.41 1.426s.663.504 1.168.504c.5.001.887-.168 1.16-.507z"/></g><g class="st9"><path class="st10" d="M23.333 317.534h1.594v1.594l-1.594 1.578v-3.172zM28.759 318.909a2.758 2.758 0 01-1.086-.977c-.279-.427-.465-.94-.559-1.539v-.008h1.594v.008c.057.417.224.741.5.973.276.231.635.348 1.078.348.51 0 .905-.171 1.184-.512.278-.341.418-.821.418-1.441v-.953c0-.614-.14-1.093-.418-1.434-.279-.341-.673-.512-1.184-.512-.276 0-.542.078-.797.234a2.237 2.237 0 00-.672.656h-1.453v-5.984h5.789v1.516h-4.195v2.555a2.275 2.275 0 011.414-.508c.656 0 1.217.136 1.684.406.466.271.82.667 1.063 1.188s.363 1.148.363 1.883v.953c0 .734-.125 1.362-.375 1.883s-.615.918-1.094 1.191c-.479.273-1.055.41-1.727.41-.573 0-1.082-.112-1.527-.336z"/></g><g class="st9"><path class="st10" d="M98.584 307.122H96.99v-9.625l-1.617.992v-1.648l1.617-1.078h1.594v11.359z"/></g><g class="st9"><path class="st10" d="M102.985 305.529h1.594v1.594l-1.594 1.578v-3.172zM112.634 297.185l-2.938 9.938h-1.695l2.938-9.844h-2.891v1.633h-1.594v-3.148h6.18v1.421z"/></g><g class="st9"><path class="st10" d="M123.779 344.449l3.961-5.281c.229-.302.407-.616.535-.941.127-.325.191-.629.191-.91v-.016c0-.453-.133-.805-.398-1.055-.266-.25-.644-.375-1.133-.375-.464 0-.839.137-1.125.41-.287.273-.461.66-.523 1.16v.008h-1.648v-.008c.094-.651.285-1.207.574-1.668s.663-.813 1.121-1.055c.458-.242.987-.363 1.586-.363.677 0 1.255.116 1.734.348.479.231.844.569 1.094 1.012s.375.977.375 1.602v.008c0 .401-.083.82-.25 1.258a5.417 5.417 0 01-.695 1.266l-3.289 4.469h4.297v1.516h-6.406v-1.385z"/></g><g class="st9"><path class="st10" d="M131.095 344.238h1.594v1.594l-1.594 1.578v-3.172zM138.899 340.192l-.008.281c-.13.239-.327.415-.59.527a2.372 2.372 0 01-.934.168c-.542 0-1.019-.138-1.43-.414-.412-.276-.73-.665-.957-1.168s-.34-1.085-.34-1.746v-.008c0-.734.124-1.362.371-1.883.247-.521.609-.917 1.086-1.188s1.048-.406 1.715-.406 1.237.138 1.711.414c.474.276.834.677 1.082 1.203.247.526.371 1.159.371 1.898v.008c0 .406-.052.84-.156 1.301a8.052 8.052 0 01-.539 1.578c-.031.07-.065.14-.102.207l-2.422 4.867h-1.719l2.861-5.639zm.075-.985c.273-.339.41-.815.41-1.43v-.008c0-.599-.137-1.063-.41-1.391s-.66-.492-1.16-.492c-.505 0-.895.164-1.168.492s-.41.794-.41 1.398v.008c0 .614.137 1.09.41 1.426s.663.504 1.168.504c.499.001.886-.168 1.16-.507z"/></g><g class="st9"><path class="st10" d="M179.852 352.348l-2.938 9.938h-1.695l2.938-9.844h-2.891v1.633h-1.594v-3.148h6.18v1.421z"/></g><g class="st9"><path class="st10" d="M181.129 360.692h1.594v1.594l-1.594 1.578v-3.172zM186.426 362.012a2.86 2.86 0 01-1.207-1.105c-.284-.477-.426-1.03-.426-1.66v-.188c0-.567.142-1.102.426-1.602.284-.5.663-.878 1.137-1.133-.401-.219-.723-.535-.965-.949s-.363-.851-.363-1.309v-.273c0-.594.133-1.116.398-1.566s.641-.8 1.125-1.047 1.047-.371 1.688-.371 1.203.124 1.688.371.859.597 1.125 1.047.398.973.398 1.566v.273c0 .469-.124.909-.371 1.32a2.485 2.485 0 01-.98.938c.479.261.863.64 1.152 1.137s.434 1.03.434 1.598v.188c0 .63-.142 1.184-.426 1.66a2.854 2.854 0 01-1.207 1.105c-.521.261-1.125.391-1.813.391s-1.293-.13-1.813-.391zm2.789-1.359c.281-.146.499-.351.652-.613.153-.263.23-.566.23-.91v-.109c0-.349-.077-.655-.23-.918-.154-.263-.371-.468-.652-.613s-.607-.219-.977-.219-.695.073-.977.219-.499.352-.652.617c-.154.266-.23.573-.23.922v.117c0 .344.077.646.23.906.153.261.371.462.652.605s.606.215.977.215c.37-.001.695-.074.977-.219zm-.133-5.122c.245-.138.435-.335.57-.59.135-.255.203-.55.203-.883v-.109c0-.317-.068-.599-.203-.844a1.406 1.406 0 00-.57-.566 1.74 1.74 0 00-.844-.199 1.74 1.74 0 00-.844.199 1.4 1.4 0 00-.57.566 1.724 1.724 0 00-.203.852v.117c0 .328.067.618.203.871.135.253.325.448.57.586.245.138.526.207.844.207.318 0 .599-.069.844-.207z"/></g></g></svg>