<svg version="1.1" id="_x32_30" xmlns="http://www.w3.org/2000/svg" x="0" y="0" viewBox="0 0 404.611 584.959" xml:space="preserve"><style>.st0,.st1,.st2{fill-rule:evenodd;clip-rule:evenodd;fill:#fff}.st1,.st2{fill:none;stroke:#999;stroke-linecap:round;stroke-linejoin:round}.st1{stroke-miterlimit:3}.st2{stroke-width:.4}.st2,.st3{stroke-miterlimit:3}.st3,.st4,.st5{fill:none;stroke:#000}.st4{fill-rule:evenodd;clip-rule:evenodd;stroke-miterlimit:22.9256}.st5{stroke-miterlimit:3}.st5,.st6,.st8{fill-rule:evenodd;clip-rule:evenodd}.st8{fill:none;stroke:#666;stroke-width:.6;stroke-miterlimit:22.9256}.st9{fill:#070707}</style><path class="st0" d="M.108 0v335.249h72.204v249.317l332.299.285V0z"/><g id="mebel_7_"><path class="st1" d="M191.307 73.98h4.157M196.22 73.225V33.171M195.464 32.416h-4.157M190.552 33.171v40.054M191.307 32.416h-32.873M158.434 32.416v2.645M158.434 42.189v2.268M159.567 73.98h29.852M190.552 72.847V44.456M189.418 43.323h-29.852M158.434 44.457v28.391M159.567 33.927h29.852M190.552 35.061v7.128M189.418 43.323h-29.852M158.434 42.189v-7.128M189.418 39.217h-29.852M196.22 73.225a.756.756 0 01-.756.755M195.464 32.416c.417 0 .756.338.756.755M190.552 33.171c0-.417.338-.755.755-.755M191.307 73.98a.755.755 0 01-.755-.755M190.552 72.847c0 .626-.508 1.133-1.134 1.133M189.418 43.323c.626 0 1.134.507 1.134 1.133M158.434 44.457c0-.626.507-1.133 1.133-1.133M159.567 73.98a1.133 1.133 0 01-1.133-1.133M189.418 33.927c.626 0 1.134.507 1.134 1.133M190.552 42.189c0 .626-.508 1.134-1.134 1.134M159.567 43.323a1.134 1.134 0 01-1.133-1.134M158.434 35.061c0-.626.507-1.133 1.133-1.133M190.552 38.083c0 .626-.508 1.134-1.134 1.134M159.567 39.217a1.133 1.133 0 01-1.133-1.134M158.434 32.416h-37.787M158.434 32.416v2.645M120.647 32.416v2.645M158.434 42.189v2.268M120.647 42.189v2.268M121.781 73.98H157.3M158.434 72.847V44.456M157.3 43.323h-35.52M120.647 44.457v28.391M121.781 33.927H157.3M158.434 35.061v7.128M157.3 43.323h-35.52M120.647 42.189v-7.128M157.3 39.217h-35.52M158.434 72.847c0 .626-.508 1.133-1.134 1.133M157.3 43.323c.626 0 1.134.507 1.134 1.133M120.647 44.457c0-.626.508-1.133 1.134-1.133M121.781 73.98a1.134 1.134 0 01-1.134-1.133M157.3 33.927c.626 0 1.134.507 1.134 1.133M158.434 42.189c0 .626-.508 1.134-1.134 1.134M121.781 43.323a1.134 1.134 0 01-1.134-1.134M120.647 35.061c0-.626.508-1.133 1.134-1.133M158.434 38.083c0 .626-.508 1.134-1.134 1.134M121.781 39.217a1.134 1.134 0 01-1.134-1.134M49.987 73.98h-4.156M45.075 73.225V33.171M45.83 32.416h4.156M50.742 33.171v40.054M49.987 32.416h32.874M82.861 32.416v2.645M82.861 42.189v2.268M81.728 73.98H51.876M50.742 72.847V44.456M51.876 43.323h29.852M82.861 44.457v28.391M81.728 33.927H51.876M50.742 35.061v7.128M51.876 43.323h29.852M82.861 42.189v-7.128M51.876 39.217h29.852M45.83 73.98a.756.756 0 01-.756-.755M45.075 33.171c0-.417.339-.755.756-.755M49.987 32.416c.418 0 .756.338.756.755M50.742 73.225a.755.755 0 01-.756.755M51.876 73.98a1.134 1.134 0 01-1.134-1.133M50.742 44.457c0-.626.508-1.133 1.134-1.133M81.728 43.323c.626 0 1.133.507 1.133 1.133M82.861 72.847c0 .626-.507 1.133-1.133 1.133M50.742 35.061c0-.626.508-1.133 1.134-1.133M51.876 43.323a1.134 1.134 0 01-1.134-1.134M82.861 42.189c0 .626-.507 1.134-1.133 1.134M81.728 33.927c.626 0 1.133.507 1.133 1.133M51.876 39.217a1.134 1.134 0 01-1.134-1.134M82.861 38.083c0 .626-.507 1.134-1.133 1.134M120.647 32.416H82.861M120.647 32.416v2.645M82.861 32.416v2.645M120.647 42.189v2.268M82.861 42.189v2.268M83.995 73.98h35.519M120.647 72.847V44.456M119.514 43.323h-35.52M82.861 44.457v28.391M83.995 33.927h35.519M120.647 35.061v7.128M119.514 43.323h-35.52M82.861 42.189v-7.128M119.514 39.217h-35.52M120.647 72.847c0 .626-.507 1.133-1.133 1.133M119.514 43.323c.626 0 1.133.507 1.133 1.133M82.861 44.457c0-.626.508-1.133 1.134-1.133M83.995 73.98a1.134 1.134 0 01-1.134-1.133M119.514 33.927c.626 0 1.133.507 1.133 1.133M120.647 42.189c0 .626-.507 1.134-1.133 1.134M83.995 43.323a1.134 1.134 0 01-1.134-1.134M82.861 35.061c0-.626.508-1.133 1.134-1.133M120.647 38.083c0 .626-.507 1.134-1.133 1.134M83.995 39.217a1.134 1.134 0 01-1.134-1.134M159.567 89.095h29.849M190.549 87.961V75.114M189.415 73.98h-29.848M158.434 75.114v12.847M190.549 87.961c0 .626-.508 1.133-1.134 1.133M189.415 73.98c.626 0 1.134.508 1.134 1.134M158.434 75.114c0-.626.507-1.134 1.133-1.134M159.567 89.095a1.133 1.133 0 01-1.133-1.133"/><g><path class="st1" d="M51.928 106.854l-6.947 6.947M43.377 113.802l-2.802-2.803M40.575 110.999l-1.603 1.603M38.972 112.602L21.338 94.968M21.338 94.968l1.603-1.604M22.941 93.365l-1.473-1.473M21.468 90.289l6.946-6.947M30.018 84.945l-6.946 6.947M37.339 92.266l-6.947 6.947M40.575 110.999L22.941 93.365M51.928 106.854l6.946-6.947M58.875 98.305l-2.803-2.803M56.072 95.502l1.603-1.603M57.675 93.899L40.041 76.265M40.041 76.265l-1.604 1.603M38.438 77.868l-1.473-1.473M35.362 76.395l-6.947 6.947M30.018 84.945l6.947-6.947M37.339 92.266l6.947-6.947M56.072 95.502L38.438 77.868M44.981 113.802a1.136 1.136 0 01-1.604 0M21.468 91.892a1.135 1.135 0 010-1.603M23.072 91.892a1.134 1.134 0 01-1.604 0M30.392 99.213a1.135 1.135 0 01-1.603 0M58.875 98.305c.443.442.443 1.16 0 1.603M35.362 76.395a1.134 1.134 0 011.604 0M36.965 76.395a1.135 1.135 0 010 1.603M44.287 83.716a1.135 1.135 0 010 1.603"/></g><path class="st1" d="M99.747 89.094h37.903v18.894H99.747z"/><g><path class="st1" d="M275.451 64.905v-3.029m0 0h-.858m.001 0h-17.176m-.001 0h-.859m0 0v3.029M256.559 58.449v3.427m0 0h.858m0 0v-3.224m0 0h-.057m0 0l-.293.196m0 0l-.344-.087m0 0l-.164-.312M257.36 56.09l-.293.196m0 0l-.344-.086m0 0l-.164-.313m0 0v2.562m0 0l.164.312m0 0l.344.087m0 0l.293-.196m0 .001h17.291m0 0l.294.196m0-.001l.343-.087m0 0l.164-.312m0 0v-2.562m0 0l-.164.313m0 0l-.343.086m0 0l-.294-.196m0 0H257.36M275.451 58.449l-.164.312m.001 0l-.343.087m0 0l-.294-.196m0 0h-.057m0 0v3.224m0 0h.858m-.001 0v-3.427M258.223 55.685h15.565m0 0l-1.004-.227m0 0h-13.557m0 0l-1.004.227M257.36 55.685l-.293-.197m0 0l-.344.087m0 0l-.164.313m0 0l.164.312m0 0l.344.087m0 0l.293-.197m0 0h17.291m0 0l.294.197m0 0l.343-.087m0 0l.164-.312m0 0l-.164-.313m0 0l-.343-.087m0 0l-.294.197m0 0H257.36M297.369 64.905v-3.029m0 0h-.859m-.001 0h-17.175m.001 0h-.86m0 0v3.029M278.475 58.449v3.427m0 0h.859m0 0v-3.224m0 0h-.057m0 0l-.294.196m0 0l-.343-.087m0 0l-.165-.312M279.277 56.09l-.294.196m0 0l-.343-.086m0 0l-.165-.313m0 0v2.562m0 0l.165.312m0 0l.343.087m0 0l.294-.196m0 .001h17.29m0 0l.294.196m0-.001l.343-.087m0 0l.165-.312m0 0v-2.562m0 0l-.165.313m0 0l-.343.086m0 0l-.294-.196m0 0h-17.29M297.369 58.449l-.165.312m0 0l-.343.087m0 0l-.294-.196m-.001 0h-.057m0 0v3.224m0 0h.859m.001 0v-3.427M280.139 55.685h15.565m0 0l-1.004-.227m0 0h-13.556m0 0l-1.005.227M279.277 55.685l-.294-.197m0 0l-.343.087m0 0l-.165.313m0 0l.165.312m0 0l.343.087m0 0l.294-.197m0 0h17.29m0 0l.294.197m0 0l.343-.087m0 0l.165-.312m0 0l-.165-.313m0 0l-.343-.087m0 0l-.294.197m0 0h-17.29M275.451 98.912v3.029m0 0h-.858m.001 0h-17.176m-.001 0h-.859m0 0v-3.029M256.559 105.368v-3.427m0 0h.858m0 0v3.224m0 0h-.057m0 0l-.293-.196m0 0l-.344.087m0 0l-.164.312M257.36 107.726l-.293-.196m0 .001l-.344.087m0 0l-.164.312m0 0v-2.562m0-.001l.164-.312m0 .001l.344-.087m0 0l.293.196m0-.001h17.291m0 0l.294-.196m0 .001l.343.087m0 0l.164.312m0-.001v2.562m0 .001l-.164-.312m0 0l-.343-.087m0 0l-.294.196m0-.001H257.36M275.451 105.368l-.164-.312m.001 0l-.343-.087m0 0l-.294.196m0 0h-.057m0 0v-3.224m0 0h.858m-.001 0v3.427M258.223 108.132h15.565m0 0l-1.004.227m0 0h-13.557m0 0l-1.004-.227M257.36 108.132l-.293.197m0 0l-.344-.087m0 0l-.164-.313m0 0l.164-.312m0 0l.344-.087m0 0l.293.196m0 0h17.291m0 0l.294-.196m0 0l.343.087m0 0l.164.312m0 0l-.164.313m0 0l-.343.087m0 0l-.294-.197m0 0H257.36M297.369 98.912v3.029m0 0h-.859m-.001 0h-17.175m.001 0h-.86m0 0v-3.029M278.475 105.368v-3.427m0 0h.859m0 0v3.224m0 0h-.057m0 0l-.294-.196m0 0l-.343.087m0 0l-.165.312M279.277 107.726l-.294-.196m0 .001l-.343.087m0 0l-.165.312m0 0v-2.562m0-.001l.165-.312m0 .001l.343-.087m0 0l.294.196m0-.001h17.29m0 0l.294-.196m0 .001l.343.087m0 0l.165.312m0-.001v2.562m0 .001l-.165-.312m0 0l-.343-.087m0 0l-.294.196m0-.001h-17.29M297.369 105.368l-.165-.312m0 0l-.343-.087m0 0l-.294.196m-.001 0h-.057m0 0v-3.224m0 0h.859m.001 0v3.427M280.139 108.132h15.565m0 0l-1.004.227m0 0h-13.556m0 0l-1.005-.227M279.277 108.132l-.294.197m0 0l-.343-.087m0 0l-.165-.313m0 0l.165-.312m0 0l.343-.087m0 0l.294.196m0 0h17.29m0 0l.294-.196m0 0l.343.087m0 0l.165.312m0 0l-.165.313m0 0l-.343.087m0 0l-.294-.197m0 0h-17.29M300.392 64.905v-3.029m0 0h.858m0 0h17.176m0 0h.859m0 0v3.029M319.285 58.449v3.427m0 0h-.858m0 0v-3.224m0 0h.057m0 0l.294.196m0 0l.342-.087m-.001 0l.165-.312M318.484 56.09l.294.196m0 0l.342-.086m0 0l.165-.313m0 0v2.562m0 0l-.165.312m0 0l-.342.087m0 0l-.294-.196m0 .001h-17.291m0 0l-.294.196m0-.001l-.342-.087m0 0l-.165-.312m0 0v-2.562m0 0l.165.313m0 0l.342.086m0 0l.294-.196m0 0h17.291M300.392 58.449l.165.312m0 0l.342.087m0 0l.294-.196m0 0h.057m0 0v3.224m0 0h-.858m0 0v-3.427M317.621 55.685h-15.566m0 0l1.004-.227m0 0h13.557m0 0l1.005.227M318.484 55.685l.294-.197m0 0l.342.087m0 0l.165.313m0 0l-.165.312m0 0l-.342.087m0 0l-.294-.197m0 0h-17.291m0 0l-.294.197m0 0l-.342-.087m0 0l-.165-.312m0 0l.165-.313m0 0l.342-.087m0 0l.294.197m0 0h17.291M300.392 98.912v3.029m0 0h.858m0 0h17.176m0 0h.859m0 0v-3.029M319.285 105.368v-3.427m0 0h-.858m0 0v3.224m0 0h.057m0 0l.294-.196m0 0l.342.087m-.001 0l.165.312M318.484 107.726l.294-.196m0 .001l.342.087m0 0l.165.312m0 0v-2.562m0-.001l-.165-.312m0 .001l-.342-.087m0 0l-.294.196m0-.001h-17.291m0 0l-.294-.196m0 .001l-.342.087m0 0l-.165.312m0-.001v2.562m0 .001l.165-.312m0 0l.342-.087m0 0l.294.196m0-.001h17.291M300.392 105.368l.165-.312m0 0l.342-.087m0 0l.294.196m0 0h.057m0 0v-3.224m0 0h-.858m0 0v3.427M317.621 108.132h-15.566m0 0l1.004.227m0 0h13.557m0 0l1.005-.227M318.484 108.132l.294.197m0 0l.342-.087m0 0l.165-.313m0 0l-.165-.312m0 0l-.342-.087m0 0l-.294.196m0 0h-17.291m0 0l-.294-.196m0 0l-.342.087m0 0l-.165.312m0 0l.165.313m0 0l.342.087m0 0l.294-.197m0 0h17.291M327.522 98.913V64.905m0 0H248.17m0 0v34.008m0 0h79.352"/></g><g><path class="st1" d="M182.995 186.573l-101.27.011M182.995 163.87v3.023M182.995 166.893v19.681M81.726 186.573V163.87m0 0h101.269m0 0v22.703m0 0H81.726M152.614 180.789v1.02m0 0h-44.369m0 0v-1.02m0 0h44.369M143.152 181.809v.833m0 0l-.151.566m0 0l-.415.415m0 0l-.568.152m0 0H119.32m0 0l-.567-.152m0 0l-.414-.415m0 0l-.153-.566m0 0v-.833m0 0h24.966M152.614 180.492v.297m0 0h-44.369m0 0v-.297m0 0h44.369"/><g><path class="st1" d="M201.507 186.583v-22.712M245.151 167.686l-19.271.002m0 0l-.534.221m0 0l-.221.535m0 0l.002 17.382m0 0l.221.534m0 0l.534.221m0 0l19.271-.002m0 0l.535-.222m0 0l.221-.534m0 0l-.002-17.382m0 0l-.221-.534m0 0l-.535-.221M246.851 163.907l-22.672.002M246.854 186.579l-22.672.002M246.851 163.907l.003 22.672M224.179 163.91l.003 22.671M243.262 169.575l-15.492.002M227.014 170.333l.001 11.714M227.771 182.803l15.493-.002M244.019 182.045l-.001-11.714M227.014 170.333c0-.417.338-.756.756-.756M227.771 182.803a.757.757 0 01-.756-.756M244.019 182.045a.756.756 0 01-.755.756M243.262 169.575c.417 0 .756.339.756.756M235.857 177.969l-.101-.241m0 0l-.24-.098m0 0l-.24.1m0 0l-.1.24m0 0l.001 7.476m0 0l.1.241m0 0l.241.099m0 0l.24-.099m0 0l.1-.241m0 0l-.001-7.477M236.272 183.52h-.414m0 0v1.927m0 0l-.1.24m0 0l-.24.1m0 0l-.241-.1m0 0l-.1-.24m0 0v-1.927m0 0h-.414m0 0v2.456m0 0h1.509m0 0v-2.456M236.261 182.159h-.404m0 0l.001 1.322m0 0h.404m0 0l-.001-1.322M234.773 182.159v1.322m0 0h.404m0 0v-1.322m0 0h-.404M269.523 163.905l-22.672.002M269.526 186.577l-22.672.002M269.523 163.905l.003 22.672M246.851 163.907l.003 22.672M324.786 165.977l-21.916.002m-.001.001l.002 18.516m0-.001l21.916-.003m.001.001l-.002-18.515M313.828 177.258l.001 5.299M313.829 182.557h-1.096M313.828 177.258h-1.095M304.975 177.259v5.299M306.071 182.558h-1.096M306.071 177.259h-1.096M322.815 180.124a2.74 2.74 0 11-5.48 0 2.74 2.74 0 015.48 0zM322.771 171.884a3.968 3.968 0 11-7.936 0 3.968 3.968 0 017.936 0z"/><path class="st1" d="M321.071 171.884a2.268 2.268 0 11-4.536-.002 2.268 2.268 0 014.536.002zM312.047 179.94a2.646 2.646 0 11-5.291-.001 2.646 2.646 0 015.291.001zM311.684 171.349a3.401 3.401 0 11-6.801-.003 3.401 3.401 0 016.801.003zM358.132 163.895l-88.609.01M358.134 186.567l-88.608.009M358.132 163.895l.002 22.673M269.523 163.905l.003 22.672M224.179 163.91l-22.672.002m0 0l.003 22.672m0 0l22.672-.003m0 0l-.003-22.671M212.845 179.025l-.001-7.557M215.517 177.919l-5.345-5.343M216.623 175.246l-7.558.001M215.516 172.574l-5.343 5.345M358.132 163.895l22.671-.002m0 0l.003 22.671m0 0l-22.672.003m0 .001l-.002-22.672M264.756 173.301a3.411 3.411 0 11-6.822 0 3.411 3.411 0 016.822 0z"/><path class="st1" d="M264.235 173.301a2.89 2.89 0 11-5.78 0 2.89 2.89 0 015.78 0zM257.615 172.469a2.579 2.579 0 11-5.159 0 2.58 2.58 0 115.159 0z"/><path class="st1" d="M256.481 172.469a1.444 1.444 0 11-2.888.002 1.444 1.444 0 012.888-.002zM265.413 171.093h-.964m0 0v-1.205m0 0l-12.524.002m.001 0v1.204m0 0h-.963M263.95 181.098l-9.634.001m.001 0v-.479m0 0h.722m0 0v.238m0 0l8.189-.001m0 0v-.237m0 0h.723m-.001 0v.478M263.95 180.62l-.048-.104m-.047-.103l-.047-.103m-.046-.103l-.048-.103m-.047-.103l-.047-.103m-.048-.103l-.047-.103m-.047-.103l-.047-.103m-.046-.104l-.047-.103m-.048-.103l-.048-.103m-.047-.103l-.047-.103m-.047-.103l-.046-.103m-.047-.103l-.048-.104m-.047-.102l-.047-.104m-.048-.103l-.048-.103m-.046-.103l-.046-.103m-.049-.104l-.047-.103m-.046-.102l-.048-.103m-.047-.103l-.047-.103M254.317 180.62l.047-.103m.047-.103l.048-.104m.046-.102l.047-.104m.048-.103l.047-.103m.047-.103l.047-.103m.047-.103l.048-.103m.046-.103l.048-.103m.047-.103l.047-.103m.047-.103l.047-.103m.048-.103l.047-.104m.046-.103l.048-.103m.047-.103l.047-.103m.047-.103l.047-.103m.048-.103l.046-.103m.047-.104l.048-.102m.047-.104l.047-.103m.048-.103l.047-.103M263.95 180.62h-.078m-.112 0h-.114m-.113 0h-.113m-.115 0h-.078m.001 0l-.042-.052m-.072-.088l-.071-.088m-.071-.088l-.072-.088m-.072-.088l-.071-.088m-.071-.087l-.071-.089m-.071-.088l-.072-.088m-.072-.088l-.071-.088m-.071-.088l-.072-.088m-.072-.088l-.071-.087m-.072-.089l-.072-.088m-.07-.088l-.072-.088m-.072-.088l-.071-.088m-.071-.088l-.071-.088m-.073-.087l-.071-.089m-.071-.088l-.072-.088m-.072-.088l-.071-.088m-.071-.088l-.073-.088m-.071-.088l-.071-.087m-.071-.089l-.071-.088m-.071-.088l-.071-.088m-.073-.088l-.071-.088m-.071-.088l-.072-.088m-.072-.087l-.043-.052M254.317 180.62h.077m.114 0h.114m.113 0h.113m.114 0h.077m0 0l.042-.051m.072-.089l.071-.088m.072-.087l.071-.088m.071-.089l.071-.088m.072-.087l.072-.088m.071-.089l.072-.088m.071-.088l.071-.087m.071-.089l.072-.088m.072-.088l.071-.087m.072-.089l.071-.088m.071-.088l.072-.088m.072-.088l.071-.088m.071-.088l.072-.088m.071-.088l.071-.088m.072-.088l.072-.088m.071-.088l.071-.088m.072-.088l.072-.088m.071-.088l.071-.088m.072-.088l.071-.088m.071-.088l.072-.088m.072-.088l.071-.088m.071-.088l.072-.088m.071-.088l.042-.052"/></g></g><g><path class="st1" d="M257.812 207.933a3.78 3.78 0 11-7.558-.002 3.78 3.78 0 017.558.002z"/><path class="st1" d="M255.166 207.933a1.133 1.133 0 11-2.267 0 1.133 1.133 0 012.267 0zM346.61 207.933a3.779 3.779 0 11-7.558-.002 3.779 3.779 0 017.558.002z"/><path class="st1" d="M343.964 207.933a1.134 1.134 0 11-2.267-.001 1.134 1.134 0 012.267.001zM332.44 274.059h-68.016m0 0v-71.794m0 0h68.016m0 0v71.794M330.55 275.948h-64.236m0 0l-.723-.144m0 0l-.613-.409m0 0l-.409-.614m0 0l-.145-.722m0 0h68.016m0 0l-.144.722m0 0l-.41.614m0 0l-.612.409m0 0l-.724.144M332.44 198.486h-68.016m0 0v3.779m0 0h68.016m0 0v-3.779M264.424 198.486h68.016m0 0v1.89m0 0h-68.016m0 0v-1.89M262.536 198.486h-17.004m-.001 0v18.893m0 0h17.004m.001 0v-18.893M334.328 198.486h17.004m.001 0v18.893m0 0h-17.004m-.001 0v-18.893M292.386 204.154h-25.694m0 0l-.268.111m0 0l-.11.267m0 0v12.469m0 0l.11.268m0 0l.268.11m0 0h25.694m0 0l.268-.11m0 0l.11-.268m0 0v-12.469m0 0l-.11-.267m0 0l-.268-.111M304.478 204.154h25.694m0 0l.268.111m0 0l.11.267m0 0v12.469m0 0l-.11.268m0 0l-.268.11m0 0h-25.694m0 0l-.268-.11m0 0l-.11-.268m0 0v-12.469m0 0l.11-.267m0 0l.268-.111M332.44 216.356h-1.89M304.1 216.356h-11.336M266.314 216.356h-1.89M332.44 221.365h-68.016m0 0v18.686m0 0l68.016-14.907m0 0v-3.779M250.354 208.793l3.68-.86m0 0l1.583-3.432m0 0l-1.583 3.432m0 0l1.305 3.545M346.51 208.793l-3.68-.86m0 0l-1.583-3.432m0 0l1.583 3.432m0 0l-1.305 3.545"/><g><path class="st1" d="M380.806 325.448h-169.66M211.146 302.776v22.672m0 0h57.624m0 0v-22.672m0 0h-57.624M268.77 314.49v-.756m0 0h-57.624m0 0v.756m0 0h57.624M217.732 304.769v18.626m0 .001h.756m0 0V304.77m0-.001h-.756M219.737 304.769v18.626m0 .001h.756m0 0V304.77m0-.001h-.756M221.742 304.769v18.626m0 .001h.756m0 0V304.77m0-.001h-.756M223.746 304.769v18.626m0 .001h.756m0 0V304.77m0-.001h-.756M227.991 304.905l-2.241 18.491m.001 0l.75.091m0 0l2.242-18.491m0 0l-.751-.091M380.806 314.49v-.756m0 0h-57.624m0 0v.756m0 0h57.624M329.768 304.769v18.626m0 .001h.756m0 0V304.77m0-.001h-.756M331.773 304.769v18.626m0 .001h.756m0 0V304.77m0-.001h-.756M333.778 304.769v18.626m0 .001h.756m0 0V304.77m0-.001h-.756M335.783 304.769v18.626m0 .001h.756m0 0V304.77m0-.001h-.756M340.029 304.905l-2.241 18.491m0 0l.75.091m0 0l2.241-18.491m0 0l-.75-.091M268.77 302.776v22.672m0 0h54.412m0 0v-22.672m0 0H268.77M323.182 302.776v22.672m0 0h57.624m0 0v-22.672m0 0h-57.624"/></g><g><path class="st1" d="M228.527 502.855v71.038M205.855 502.855h22.672M228.527 502.855h-22.672m0 0v71.038m0 0h22.672m0 0v-71.038M216.814 573.893h.755m0 0v-71.038m0 0h-.755m0 0v71.038M226.534 509.442h-18.626m.001 0v.755m0 0h18.626m-.001 0v-.755M226.534 511.446h-18.626m.001 0v.756m0 0h18.626m-.001 0v-.756M226.534 513.451h-18.626m.001 0v.755m0 0h18.626m-.001 0v-.755M226.534 515.456h-18.626m.001 0v.755m0 0h18.626m-.001 0v-.755M226.399 519.702l-18.49-2.242m0 0l-.092.75m0 0l18.491 2.242m0 0l.091-.75"/></g><g><path class="st1" d="M274.438 564.447a3.778 3.778 0 11-7.557 0 3.778 3.778 0 017.557 0z"/><path class="st1" d="M271.792 564.447a1.134 1.134 0 11-2.267-.001 1.134 1.134 0 012.267.001zM363.236 564.447a3.778 3.778 0 11-7.557 0 3.778 3.778 0 017.557 0z"/><path class="st1" d="M360.59 564.447a1.134 1.134 0 11-2.267-.001 1.134 1.134 0 012.267.001zM281.05 498.321h68.016m0 0v71.794m0 0H281.05m0 0v-71.794M282.94 496.432h64.236m0 0l.723.144m0 0l.613.409m0 0l.409.613m0 0l.145.723m0 0H281.05m0 0l.144-.723m0 0l.41-.613m0 0l.612-.409m0 0l.724-.144M281.05 573.893h68.016m0 0v-3.778m0 0H281.05m0 0v3.778M349.066 573.893H281.05m0 0v-1.889m0 0h68.016m0 0v1.889M350.954 573.893h17.004m.001 0V555m0 0h-17.004m-.001 0v18.893M279.16 573.893h-17.004m.001 0V555m0 0h17.004m-.001 0v18.893M321.104 568.225h25.694m0 0l.268-.111m0 0l.11-.266m0 0v-12.47m0 0l-.11-.267m0 0l-.268-.111m0 0h-25.694m0 0l-.268.111m0 0l-.11.267m0 0v12.47m0 0l.11.266m0 0l.268.111M309.012 568.225h-25.694m0 0l-.268-.111m0 0l-.11-.266m0 0v-12.47m0 0l.11-.267m0 0l.268-.111m0 0h25.694m0 0l.267.111m0 0l.111.267m0 0v12.47m0 0l-.111.266m0 0l-.267.111M281.05 556.023h1.89M309.39 556.023h11.336M347.176 556.023h1.89M281.05 551.014h68.016m0 0v-18.686m0 0l-68.016 14.907m0 0v3.779M266.98 565.307l3.679-.86m0 0l1.584-3.432m0 0l-1.584 3.432m0 0l1.306 3.545M363.136 565.307l-3.68-.86m0 0l-1.583-3.432m0 0l1.583 3.432m0 0l-1.305 3.545"/></g><g><path class="st1" d="M380.806 454.866h-169.66M211.146 432.194v22.672m0 0h57.624m0 0v-22.672m0 0h-57.624M268.77 443.908v-.756m0 0h-57.624m0 0v.756m0 0h57.624M217.732 434.188v18.626m0-.001h.756m0 0v-18.626m0 .001h-.756M219.737 434.188v18.626m0-.001h.756m0 0v-18.626m0 .001h-.756M221.742 434.188v18.626m0-.001h.756m0 0v-18.626m0 .001h-.756M223.746 434.188v18.626m0-.001h.756m0 0v-18.626m0 .001h-.756M227.991 434.323l-2.241 18.491m.001 0l.75.091m0 0l2.242-18.491m0 0l-.751-.091M323.182 432.194v22.672m0 0h57.624m0 0v-22.672m0 0h-57.624M380.806 443.908v-.756m0 0h-57.624m0 0v.756m0 0h57.624M329.768 434.188v18.626m0-.001h.756m0 0v-18.626m0 .001h-.756M331.773 434.188v18.626m0-.001h.756m0 0v-18.626m0 .001h-.756M333.778 434.188v18.626m0-.001h.756m0 0v-18.626m0 .001h-.756M335.783 434.188v18.626m0-.001h.756m0 0v-18.626m0 .001h-.756M340.029 434.323l-2.241 18.491m0 0l.75.091m0 0l2.241-18.491m0 0l-.75-.091M268.77 432.194v22.672m0 0h54.412m0 0v-22.672m0 0H268.77"/></g><g><path class="st1" d="M257.812 346.231a3.78 3.78 0 11-7.558-.002 3.78 3.78 0 017.558.002z"/><path class="st1" d="M255.166 346.231a1.133 1.133 0 11-2.267 0 1.133 1.133 0 012.267 0zM346.61 346.231a3.779 3.779 0 11-7.558-.002 3.779 3.779 0 017.558.002z"/><path class="st1" d="M343.964 346.231a1.134 1.134 0 11-2.267-.001 1.134 1.134 0 012.267.001zM332.44 412.357h-68.016m0 0v-71.794m0 0h68.016m0 0v71.794M330.55 414.246h-64.236m0 0l-.723-.144m0 0l-.613-.409m0 0l-.409-.614m0 0l-.145-.722m0 0h68.016m0 0l-.144.722m0 0l-.41.614m0 0l-.612.409m0 0l-.724.144M332.44 336.784h-68.016m0 0v3.779m0 0h68.016m0 0v-3.779M264.424 336.784h68.016m0 0v1.889m0 0h-68.016m0 0v-1.889M262.536 336.784h-17.004m-.001 0v18.893m0 0h17.004m.001 0v-18.893M334.328 336.784h17.004m.001 0v18.893m0 0h-17.004m-.001 0v-18.893M292.386 342.452h-25.694m0 0l-.268.11m0 0l-.11.268m0 0v12.469m0 0l.11.268m0 0l.268.11m0 0h25.694m0 0l.268-.11m0 0l.11-.268m0 0V342.83m0 0l-.11-.268m0 0l-.268-.11M304.478 342.452h25.694m0 0l.268.11m0 0l.11.268m0 0v12.469m0 0l-.11.268m0 0l-.268.11m0 0h-25.694m0 0l-.268-.11m0 0l-.11-.268m0 0V342.83m0 0l.11-.268m0 0l.268-.11M332.44 354.654h-1.89M304.1 354.654h-11.336M266.314 354.654h-1.89M332.44 359.663h-68.016m0 0v18.686m0 0l68.016-14.907m0 0v-3.779M250.354 347.091l3.68-.86m0 0l1.583-3.432m0 0l-1.583 3.432m0 0l1.305 3.545M346.51 347.091l-3.68-.86m0 0l-1.583-3.432m0 0l1.583 3.432m0 0l-1.305 3.545"/></g><g><path class="st1" d="M158.244 370.792h1.89m.001 0V252.143m0 0h-1.89m-.001 0v118.649M148.798 252.143h-.756m0 0v77.461m0 0h.756m0 0v-77.461M139.077 258.729h18.626m.001 0v.756m0 0h-18.626m-.001 0v-.756M139.077 260.734h18.626m.001 0v.756m0 0h-18.626m-.001 0v-.756M139.077 262.739h18.626m.001 0v.756m0 0h-18.626m-.001 0v-.756M139.077 264.744h18.626m.001 0v.755m0 0h-18.626m-.001 0v-.755M139.212 268.989l18.491-2.241m0 0l.091.75m0 0l-18.491 2.241m0 0l-.091-.75M137.462 329.604h20.782m0 0v-77.461m0 0h-20.782m0 0v77.461M111.881 357.189a7.18 7.18 0 11-14.361-.001 7.18 7.18 0 0114.361.001zM105.217 351.181l-.449 1.233m0 0v1.312m0 0l.449 1.234m0 0l-.342 1.473m0 0v1.513m0 0l.342 1.472m0 0l-.45 1.235m0 0v1.314m0 0l.45 1.235m0 0l-2.987-2.232m0 0v-7.557m0 0l2.987-2.232M101.968 353.413v7.557m0-.001h.262m0 0v-7.557m0 .001h-.262M101.445 353.413v7.557m0-.001h.262m0 0v-7.557m0 .001h-.262M106.733 358.032l.085-.891m0 0l-.227-.021m0 0l-.045.476m0 0l-1.142-1.383m0 0l-.152.126m0 0l.53.642m0 0l-.081.067m0 0l-.612-.74m0 0l-.145.121m0 0l.61.74m0 0l-.097.08m0 0l-.497-.601m0 0l-.13.107m0 0l.497.602m0 0l-.098.08m0 0l-.342-.414m0 0l-.14.115m0 0l1.174 1.422M113.846 345.853v22.672m0 0H91.174m0 0v-22.672m0 0h22.672"/><g><path class="st1" d="M88.906 326.582h-7.557M66.235 252.143h22.672M88.906 252.143v74.439M66.235 326.582h22.672m0 0v-74.439m0 0H66.235m0 0v74.439M77.571 252.143h-.756m0 0v74.439m0 0h.756m0 0v-74.439M67.85 319.995h18.626m0 0v-.756m0 0H67.85m0 0v.756M67.85 317.991h18.626m0 0v-.756m0-.001H67.85m0 0v.756M67.85 315.986h18.626m0 0v-.756m0 0H67.85m0 0v.756M67.85 313.982h18.626m0 0v-.756m0-.001H67.85m0 0v.756M67.986 309.736l18.49 2.241m0-.001l.091-.75m0 .001l-18.49-2.241m0-.001l-.091.75"/></g><g><path class="st2" d="M127.949 311.278l6.49-6.49m-9.357 2.41l9.356-9.357m-8.555 1.609l8.555-8.556m-27.33 20.384l6.232-6.232m11.439-11.439l9.66-9.66m-34.277 27.331l12.578-12.579m8.305-8.305L134.439 277m-41.224 34.278l41.224-41.225M91.93 305.616l42.509-42.509M91.93 298.669l42.509-42.51M91.93 291.722l39.58-39.579m-39.58 32.632l32.632-32.632M91.93 277.828l6.591-6.591m3.432-3.432l15.662-15.662M91.93 270.881l.062-.062m9.961-9.961l8.716-8.715m-8.716 1.768l1.768-1.768m30.718 5.591l-5.591-5.591m5.591 12.537l-12.538-12.537m12.538 19.485l-19.484-19.485m19.484 26.432l-26.431-26.432m26.431 33.379l-32.486-32.486m32.486 39.432l-32.486-32.486m32.486 39.433l-32.486-32.486m32.486 39.433l-8.522-8.522m-7.59-7.589l-19.014-19.014m33.095 40.041l-7.016-7.016m-11.233-11.234l-21.883-21.883m-.254-.253l-.092-.092m33.531 40.478l-.732-.732m-11.994-11.993L91.93 277.748m21.535 28.482L91.93 284.694m19.637 26.584L91.93 291.641m12.69 19.637l-12.69-12.69m5.743 12.69l-5.743-5.744"/><path class="st1" d="M91.93 252.143h7.975M99.905 252.143h1.511M91.93 270.67v-17.96m0 0l.166-.401m0-.001l.4-.165m0 0h8.891m0 0l.401.165m0 0l.166.401m0 .001v17.961m0-.001l-.166.401m0 .001l-.401.165m0-.001h-8.891m0 0l-.4-.165m0 .001l-.166-.401M96.086 269.536v-7.158m0-1.377v-7.157M96.653 253.276h3.602M100.821 253.843v15.693M100.254 270.103h-3.602M96.086 253.843c0-.313.254-.567.566-.567M100.254 253.276c.312 0 .566.254.566.567M100.821 269.536a.567.567 0 01-.566.567M96.653 270.103a.567.567 0 01-.566-.567M98.384 261.981a.757.757 0 01-1.225.251l.982-.123.243-.128zm-1.224-.834a.757.757 0 011.225.252l-.243-.129-.982-.123zM94.196 262.635l1.585-.151m.001 0l.36-.124m0 0l2-.25m-.001 0l.264-.14m.001 0l.106-.28m0 0l-.106-.28m0 0l-.264-.139m-.001 0l-2-.251m.001 0l-.36-.123m0 0l-1.585-.152m-.001 0l-.555.181m0 0l-.343.472m0 0v.584m0 0l.343.472m0 0l.555.181M95.138 261.176h.562M95.7 262.204h-.562M95.138 262.204v-1.027M95.7 261.176a.515.515 0 110 1.027M96.142 261.02a.796.796 0 010 1.34"/></g><g><path class="st1" d="M125.727 296.287l-.469-1.645m0 0l-.718-1.552m0 0l-.968-1.23m0 0l-1.248-.943m0 0l-1.449-.593m0 0l-1.55-.206m0 0l-1.551.206m0 0l-1.447.593m0 0l-1.249.943m0 0l-.968 1.23m0 0l-.718 1.552m0 0l-.469 1.645m0 0l-.208 1.697m0 0l.06 1.709m0 0l1.223 11.585m0 0h10.654m0 0l1.223-11.585m0 0l.059-1.709m0 0l-.207-1.697M115.208 305.557h4.116M119.324 305.557h4.118M116.261 291.29a5.747 5.747 0 013.063-.886M113.013 298.12c-.165-2.591 1.031-5.106 3.248-6.83M115.208 305.557c-1.506-2.252-2.266-4.828-2.195-7.437M125.636 298.12c.07 2.61-.689 5.185-2.194 7.437M122.388 291.29c2.217 1.723 3.413 4.239 3.248 6.83M119.324 290.404a5.737 5.737 0 013.063.886M114.677 311.089h9.294v.189h-9.294zM114.677 311.278h9.296m0 0v-.189m0 0h-9.296m0 0v.189M128.772 311.278h-18.894M128.772 315.812h-18.894M128.772 311.278v4.534M109.878 311.278v4.534"/></g><g><path class="st2" d="M155.796 422.37l1.315-1.315m-8.262 1.315l8.262-8.262m-15.209 8.262l15.209-15.209m-22.156 15.209l22.156-22.156m-29.103 22.156l29.103-29.103m-36.05 29.103l33.63-33.63m-40.577 33.63l33.63-33.63m-40.577 33.63l33.631-33.63m-40.578 33.63l33.631-33.63m-40.577 33.63l33.631-33.63m-40.579 33.63l33.63-33.63M81.35 420.399l15.892-15.892m5.448-5.447l10.967-10.967M81.35 413.452l10.743-10.743m10.611-10.611l8.647-8.647M81.35 406.505l8.642-8.641m12.048-12.049l2.365-2.364m9.252-9.252l.129-.129m.126-.126l.129-.129M81.35 399.558l9.042-9.042m-9.042 2.095l9.16-9.16m-9.16 2.213l2.214-2.213m73.547 8.106l-2.817-2.817m2.817 9.764l-9.764-9.764m9.764 16.711L140.4 388.74m16.711 23.657l-23.657-23.657m23.657 30.604l-30.604-30.604m26.683 33.63l-33.63-33.63m26.683 33.63l-38.919-38.919m31.972 38.919l-37.338-37.338m30.391 37.338l-29.571-29.571m22.624 29.571l-22.845-22.845M90.693 387.66l-4.209-4.209m31.97 38.919l-18.745-18.745m-9.679-9.679l-8.68-8.68m30.158 37.104L81.35 392.212m23.211 30.158L81.35 399.159m16.264 23.211L81.35 406.106m9.317 16.264l-9.317-9.317m2.37 9.317L81.35 420"/><path class="st1" d="M90.062 398.442l.469 1.645m0 0l.718 1.552m0 0l.968 1.23m0 0l1.248.943m0 0l1.448.593m0 0l1.551.206m0 0l1.551-.206m0 0l1.448-.593m0 0l1.248-.943m0 0l.967-1.23m0 0l.719-1.552m0 0l.469-1.645m0 0l.208-1.698m0 0l-.06-1.709m0 0l-1.223-11.585m0 0H91.137m0 0l-1.222 11.585m0 0l-.06 1.709m0 0l.207 1.698M100.58 389.172h-4.116M96.464 389.171h-4.116M99.528 403.438a5.746 5.746 0 01-3.063.887M102.776 396.609c.165 2.591-1.031 5.107-3.248 6.83M100.58 389.172c1.506 2.252 2.266 4.828 2.195 7.437M90.153 396.609c-.07-2.609.689-5.185 2.195-7.437M93.401 403.438c-2.217-1.723-3.414-4.238-3.248-6.83M96.464 404.325a5.738 5.738 0 01-3.063-.887M91.816 383.451h9.296v.188h-9.296zM101.112 383.45h-9.295m0 0v.189m0 0h9.295m0 0v-.189M87.018 383.45h18.893M87.018 378.916h18.893M87.018 383.45v-4.534M105.91 383.45v-4.534"/><g><path class="st1" d="M114.224 373.815h42.32m0 0l.402.166m0 0l.165.4m0 0v13.793m0 0l-.165.4m0 0l-.402.166m0 0h-42.32m0 0l-.401-.166m0 0l-.166-.4m0 0v-13.793m0 0l.166-.4m0 0l.401-.166M115.357 377.971h19.573m.907 0h19.574M155.977 378.538v8.502M155.41 387.607h-40.053M114.79 387.04v-8.502M155.41 377.971c.313 0 .566.254.566.567M155.977 387.04a.565.565 0 01-.566.566M115.357 387.607a.566.566 0 01-.566-.566M114.79 378.538c0-.313.254-.567.566-.567M136.14 380.908a.755.755 0 01-.303.605v-1.21a.755.755 0 01.303.605zm-1.21.604a.754.754 0 010-1.209v1.209zM135.837 374.344h-.907m0 0v7.748m0 0l.256.301m0 0h.395m0 0l.256-.301m0 0v-7.748M134.629 374.079h1.511v.265h-1.511zM134.628 374.344h1.512m0 0v-.265m0 0h-1.512m0 0v.265M134.251 373.815h2.267v.264h-2.267zM134.25 374.079h2.268m0 0v-.264m0 0h-2.268m0 0v.264M132.116 375.704v-1.625m0 0h.094m0 0v-.132m0 0h.284m0 0v-.132m0 0h-1.89m0 0v.132m0 0h.283m0 0v.132m0 0h.095m0 0v1.625m0 0h.322m0 0v.416m0 0h-1.078m0 0v.491m0 0h2.646m0 0v-.491m0 0h-1.077m0 0v-.416m0 0h.321M138.653 375.704v-1.625m0 0h-.095m0 0v-.132m0 0h-.283m0 0v-.132m0 0h1.889m0 0v.132m0 0h-.283m0 0v.132m0 0h-.095m0 0v1.625m0 0h-.321m0 0v.416m0 0h1.077m0 0v.491m0 0h-2.645m0 0v-.491m0 0h1.076m0 0v-.416m0 0h-.32M131.303 376.12l.072.072M131.794 376.12l-.072.072M131.303 375.704h.491M130.982 374.079h1.134M132.209 373.947h-1.322M139.465 376.12l-.072.072M138.973 376.12l.072.072M139.465 375.704h-.492M139.786 374.079h-1.134M138.558 373.947h1.322M131.794 376.365a.246.246 0 11-.491 0 .246.246 0 01.491 0zM139.465 376.365a.246.246 0 11-.492 0 .246.246 0 01.492 0z"/></g><g><path class="st1" d="M81.349 422.37h75.762M88.906 445.986a.945.945 0 11-1.89 0 .945.945 0 011.89 0zM118.298 439.616l-1.396-.372m0 0l-1.209-.793m0 0l-.898-1.132m0 0l-.496-1.358m0 0l-.044-1.445m0 0l.414-1.385m0 0l.828-1.184m0 0l1.159-.864m0 0l1.372-.455m0 0h1.447m0 0l1.371.455m0 0l1.159.864m0 0l.829 1.184m0 0l.413 1.385m0 0l-.043 1.445m0 0l-.496 1.358m0 0l-.897 1.132m0 0l-1.209.793m0 0l-1.397.372m0 0v5.538m0 0l.455-.108m0 0l.49-.037m0 0l.489.037m0 0l.455.108m0 0l.392.172m0 0l.299.225m0 0l.19.261m0 0l.064.281m0 0v.402m0 0l-.019.12m0 0l-.065.278m0 0l-.053.103m0 0l-.182.251m0 0l-.078.071m0 0l-.274.204m0 0l-.357.157m0 0l-.195.052m0 0l-.25.059m0-.001l-.02.688m0 .001l-.009.796m0 0h1.729m0 0v.435m0 0h2.871m0 0l.16.059m0-.001l.083.148m0 .001l-.033.167m0 0l-.133.105m0 0l-.486.158m0-.001l-.726.314m0 .001l-1.008.575m0 0l-.728.257m0 0v.125m0 0h.604m0 0v.982m0 0h-2.569m0 0v-.877m0 0l-.024-.01m0-.001l-.039-.028m0 .001l-.033-.034m0 0l-.024-.04m0 0l-.279-.673m0-.001h-.697m0 0v1.36m0 .001h1.058m0 0v.302m0 0h-3.023m0 0v-.302m0 0h1.058m0 0v-1.36m0-.001h-1.436m0 0v-.152m0 .001h-.416m0 0v.303m0 0h.152m0 0v.529m0 0h.604m0 0v.982m0 0h-2.569m0 0v-.982m0 0h.604m0 0v-.529m0 0h.152m0 0v-.303m0 0h-.152m0 0v-1.511m0 0h2.57m0 0v-2.154m0 0h.023m0 0h.059m0 0h.094m0 0h.124m0 0h.148m0 0h.043m0 0v-7.504M120.641 450.936h-.209m0 0l.14.341m0 0l.326.053m0 .001l.008-.002m0 0v-.241m0-.001h.151m0 0v-.302m0 0h-.416m0 0v.151M122.115 450.785v.241m0 0l.677-.24m0 0l.987-.563m0 0l.054-.023m0 0h-1.567m0 0v.585m0 0h-.151M116.258 451.617v-.529M115.577 451.617v-.529M121.914 451.617h.352M121.057 451.088h.188M121.246 451.088h.68M121.926 451.088h.014M121.246 451.264v-.176M121.926 451.093v-.005M122.115 450.785h-1.058M119.762 449.274h-.557M122.266 450.199v-.49M119.696 448.707h-.49M125.062 449.721l.075-.012M120.912 451.824l-.047-.002M121.083 451.792l-.171.032M120.368 451.741l-.047-.011M120.321 451.73l-.02-.009M122.266 451.492l-.453.161M121.813 451.653l-.73.139M120.956 451.319l-.059.011M125.062 449.721l-.513.167M124.549 449.888l-.717.311M121.856 451.636h-.001M120.866 451.822l-.498-.082M119.207 447.219l-.002.001M119.205 447.75l.002.001M120.641 450.389v.127M120.641 450.634v.103M120.641 450.516v.119M120.432 450.936h-.524M121.679 451.18l-.723.139M122.115 451.026l-.436.154M119.961 450.303h-.001M120.052 450.348l-.091-.044M120.15 450.363l-.098-.015M120.247 450.348l-.098.014M120.338 450.303l-.091.044M120.338 450.303h.001M120.495 447.807l-.346.026M120.15 447.833l-.345-.026M120.566 447.79l-.071.017M119.484 447.731l-.195-.053M119.805 447.807l-.321-.077M120.519 450.136l.009-.062M119.288 447.679l-.083-.037M119.734 447.79l.02.688M119.772 450.074l.009.062M119.781 450.136l.026.058M119.807 450.194l.043.05M119.85 450.244l.055.038M119.905 450.282l.056.021M119.961 450.303l.007.003M119.968 450.306l.068.008M120.037 450.314h.227M120.263 450.314l.068-.008M120.331 450.306l.007-.003M120.339 450.303l.057-.021M120.396 450.282l.055-.038M120.45 450.244l.043-.05M120.493 450.194l.025-.058M119.753 448.478l.019 1.596M120.537 449.274l-.01.8M120.641 449.576h-.107M119.766 449.576h-.561M118.298 439.616v-5.343M119.205 439.616v-5.343M118.298 434.273h.907M115.238 451.617h1.36M115.389 451.088h1.058M115.389 450.785h1.058M116.863 450.785v-1.209M120.641 449.576v1.209M118.298 452.297h.907M118.298 450.936v-3.815M119.205 445.154v5.783M116.863 449.576h1.436M117.807 449.274h.491M117.807 448.707h.491M119.696 449.274v-1.493M118.298 436.938a1.889 1.889 0 11.907 0M116.863 450.249a.34.34 0 110-.589"/></g></g><g><path class="st1" d="M115.946 494.608l.469 1.645m0 0l.718 1.551m0 0l.968 1.23m0 0l1.248.943m0 0l1.448.594m0 .001l1.551.205m0-.001l1.551-.205m0 .001l1.447-.594m0-.001l1.249-.943m0 0l.967-1.23m0 0l.719-1.551m0 0l.469-1.645m0 0l.208-1.698m0 0l-.06-1.709m0 0l-1.223-11.585m0 0h-10.654m0 0l-1.223 11.585m0 0l-.059 1.709m0 0l.207 1.698M126.464 485.338h-4.116M122.348 485.338h-4.117M125.412 499.605c-.89.57-1.962.881-3.063.887M128.66 492.775c.165 2.591-1.031 5.107-3.248 6.83M126.464 485.338c1.506 2.253 2.266 4.828 2.195 7.437M116.037 492.775c-.071-2.609.689-5.185 2.194-7.437M119.284 499.605c-2.217-1.723-3.413-4.238-3.247-6.83M122.348 500.491a5.744 5.744 0 01-3.064-.887M117.7 479.617h9.295v.188H117.7zM126.996 479.617H117.7m-.001 0v.188m0 0h9.296m.001 0v-.188M112.901 479.617h18.894M112.901 475.082h18.894M112.901 479.617v-4.535M131.794 479.617v-4.535"/><path class="st2" d="M100.243 538.091h56.868m-56.868-11.336h56.868m-56.868-11.336h56.868m-56.868-11.336h56.868m-56.868-11.336h15.501m13.208 0h28.159m-56.868-11.336h16.588m11.033 0h29.246m-15.208 66.032v-67.826m-22.672 67.826v-47.556"/><g><path class="st1" d="M100.242 547.443v-67.826M97.031 539.177v-17.382M97.031 521.795h-12.47M84.561 521.795v8.239m0 .904v8.238M84.561 539.177h12.47M97.031 505.264v-17.382M97.031 487.882h-12.47M84.561 487.882v8.237m0 .907v8.238M84.561 505.264h12.47M88.394 530.938a1.135 1.135 0 01-2.08 0h2.08zm-2.08-.904a1.135 1.135 0 012.08 0h-2.08zM88.393 497.026a1.135 1.135 0 01-2.08 0h2.08zm-2.078-.907a1.135 1.135 0 012.078 0h-2.078zM81.878 530.033v.907m0 0h7.749m0 0l.301-.256m0 0v-.395m0 0l-.301-.256m0 0h-7.749M81.613 529.73h.266v1.512h-.266zM81.878 531.242v-1.512m0 0h-.265m0 0v1.512m0 0h.265"/><path class="st1" d="M81.35 529.352h.264v2.268h-.264zM81.613 531.62v-2.267m0 0h-.265m.001 0v2.267m0 0h.265M83.239 533.755h-1.625m-.001 0v-.095m0 0h-.132m.001 0v-.283m0 0h-.133m0 0v1.889m0 0h.133m0 0v-.283m0 0h.132m-.001 0v-.095m0 0h1.625m.001 0v-.321m0 0h.416m0 0v1.077m0 0h.491m0 0v-2.645m0 0h-.491m0 0v1.077m0 0h-.416m0 0v-.321M83.239 527.218h-1.625m-.001 0v.095m0 0h-.132m.001 0v.283m0 0h-.133m0 0v-1.89m0 0h.133m0 0v.284m0 0h.132m-.001 0v.094m0 0h1.625m.001 0v.322m0 0h.416m0 0v-1.078m0 0h.491m0 0v2.646m0 0h-.491m0 0v-1.077m0 0h-.416m0 0v.321M81.878 496.12v.907m0 0h7.749m0 0l.301-.256m0 0v-.395m0 0l-.301-.256m0 0h-7.749M81.613 495.817h.266v1.512h-.266zM81.878 497.329v-1.512m0 0h-.265m0 0v1.512m0 0h.265"/><path class="st1" d="M81.35 495.44h.264v2.267h-.264zM81.613 497.707v-2.267m0 0h-.265m.001 0v2.267m0 0h.265M83.239 499.841h-1.625m-.001 0v-.094m0 0h-.132m.001 0v-.283m0 0h-.133m0 0v1.889m0 0h.133m0 0v-.283m0 0h.132m-.001 0v-.095m0 0h1.625m.001 0v-.322m0 0h.416m0 0v1.077m0 0h.491m0 0v-2.644m0 0h-.491m0 0v1.076m0 0h-.416m0 0v-.321M83.239 493.305h-1.625m-.001 0v.094m0 0h-.132m.001 0v.284m0 0h-.133m0 0v-1.89m0 0h.133m0 0v.284m0 0h.132m-.001 0v.094m0 0h1.625m.001 0v.322m0 0h.416m0 0v-1.078m0 0h.491m0 0v2.645m0 0h-.491m0 0v-1.076m0 0h-.416m0 0v.321M83.655 534.567l.072-.072M83.655 534.076l.072.072M83.239 534.567v-.491M81.613 534.888v-1.133M81.482 533.66v1.323M83.655 526.405l.072.072M83.655 526.896l.072-.071M83.239 526.405v.491M81.613 526.084v1.134M81.482 527.312v-1.323M83.655 500.654l.072-.072M83.655 500.162l.072.072M83.239 500.654v-.491M81.613 500.975v-1.134M81.482 499.747v1.323M83.655 492.492l.072.072M83.655 492.983l.072-.072M83.239 492.492v.491M81.613 492.171v1.134M81.482 493.399v-1.322M84.146 534.321a.246.246 0 11-.492 0 .246.246 0 01.492 0zM84.146 526.651a.246.246 0 11-.492 0 .246.246 0 01.492 0zM84.146 500.408a.246.246 0 11-.492 0 .246.246 0 01.492 0zM84.146 492.738a.246.246 0 11-.49 0 .246.246 0 01.49 0z"/></g><g><path class="st1" d="M100.242 547.443H81.348M81.349 547.443h75.762m0 0v26.45m0 0H81.349m0 0v-26.45M90.188 571.778l-1.096-.081m0-.001l-1.063-.238m0 0l-.997-.39m0 0l-.902-.529m0 0l-.778-.652m0 0l-.631-.756m0 0l-.465-.835m0 0l-.285-.891m0 0l-.096-.918m0 0v-11.639m0 0l.096-.918m0 0l.285-.891m0 0l.465-.835m0 0l.631-.756m0 0l.778-.652m0 0l.902-.529m0 0l.997-.389m0 0l1.063-.239m0 .001l1.096-.081m0-.001h51.14m0 0l2.301.169m0 0l2.233.501m0 0l2.095.819m0 0l1.893 1.111m0 0l1.634 1.369m0 .001l1.325 1.586m0-.001l.978 1.755m0 0l.597 1.87m0 0l.201 1.93m0 0l-.201 1.929m0 0l-.597 1.87m0 0l-.978 1.755m0 0l-1.325 1.587m0 0l-1.634 1.368m0 0l-1.893 1.112m0 0l-2.095.818m0 0l-2.233.501m0 0l-2.301.169m0 .001h-51.14M91.363 560.668a.945.945 0 11-1.89 0 .945.945 0 011.89 0z"/></g></g></g></g></g><g id="walls"><path class="st3" d="M396.999 426.337h-16.248M404.557 426.337h-5.668M398.889 426.337h-1.89M396.999 360.211h-16.248M404.557 360.211h-5.668M398.889 360.211h-1.89M404.557 360.211v66.126M380.751 360.211v66.126M396.999 360.211v3.779M396.999 363.99h1.891M398.889 363.99v-3.779M398.889 397.998v-1.89M398.889 396.108h-1.89M396.999 396.108v1.89M397.944 363.99v32.118M396.999 363.99v32.118M398.889 396.108V363.99M396.999 397.998v.945M396.999 398.943h.945M397.944 398.943v.944M397.944 399.887h.945M398.889 399.887v-1.889M398.889 426.337v-3.777M398.889 422.559h-.945M397.944 422.559v.945M397.944 423.504H397M396.999 423.504v2.833M398.889 422.559v-22.672M396.055 401.776v18.895M396.055 398.943v2.833M396.055 401.776h1.889M397.944 401.776v-2.832M397.944 398.943h-1.889M397.944 423.504v-2.834M397.944 420.67h-1.889M396.055 420.67v2.834M396.055 423.504h1.889M397.944 420.67v-18.894M396.055 401.776v18.895M396.999 401.776v18.895M398.889 360.211h-1.89M398.889 360.211h-1.89M404.557 360.211h-5.668M396.999 360.211h-16.248M398.889 426.337h-1.89M398.889 426.337h-1.89M404.557 426.337h-5.668M396.999 426.337h-16.248"/><g><path class="st3" d="M396.999 297.864h-16.248M404.557 297.864h-5.668M398.889 297.864h-1.89M396.999 214.734h-16.248M404.557 214.734h-5.668M398.889 214.734h-1.89M404.557 214.734v83.13M380.751 214.734v83.13M396.999 214.734v3.78M396.999 218.513h1.891M398.889 218.513v-3.779M398.889 269.524v-1.889M398.889 267.635h-1.89M396.999 267.635v1.889M397.944 218.513v49.122M396.999 218.513v49.122M398.889 267.635v-49.122M396.999 269.524v.945M396.999 270.469h.945M397.944 270.469v.945M397.944 271.414h.945M398.889 271.414v-1.89M398.889 297.864v-3.778M398.889 294.086h-.945M397.944 294.086v.944M397.944 295.03H397M396.999 295.03v2.834M398.889 294.086v-22.672M396.055 273.303v18.893M396.055 270.469v2.834M396.055 273.303h1.889M397.944 273.303v-2.834M397.944 270.469h-1.889M397.944 295.03v-2.834M397.944 292.196h-1.889M396.055 292.196v2.834M396.055 295.03h1.889M397.944 292.196v-18.893M396.055 273.303v18.893M396.999 273.303v18.893M398.889 214.734h-1.89M398.889 214.734h-1.89M404.557 214.734h-5.668M396.999 214.734h-16.248M398.889 297.864h-1.89M398.889 297.864h-1.89M404.557 297.864h-5.668M396.999 297.864h-16.248"/></g><g><path class="st3" d="M396.999 488.685h-16.248M404.557 488.685h-5.668M398.889 488.685h-1.89M396.999 554.811h-16.248M404.557 554.811h-5.668M398.889 554.811h-1.89M404.557 554.811v-66.126M380.751 554.811v-66.126M396.999 554.811v-3.778M396.999 551.033h1.891M398.889 551.033v3.778M398.889 517.025v1.889M398.889 518.914h-1.89M396.999 518.914v-1.889M397.944 551.033v-32.119M396.999 551.033v-32.119M398.889 518.914v32.119M396.999 517.025v-.945M396.999 516.08h.945M397.944 516.08v-.945M397.944 515.135h.945M398.889 515.135v1.89M398.889 488.685v3.779M398.889 492.464h-.945M397.944 492.464v-.945M397.944 491.519H397M396.999 491.519v-2.834M398.889 492.464v22.671M396.055 513.246v-18.893M396.055 516.08v-2.834M396.055 513.246h1.889M397.944 513.246v2.834M397.944 516.08h-1.889M397.944 491.519v2.834M397.944 494.353h-1.889M396.055 494.353v-2.834M396.055 491.519h1.889M397.944 494.353v18.893M396.055 513.246v-18.893M396.999 513.246v-18.893M398.889 554.811h-1.89M398.889 554.811h-1.89M404.557 554.811h-5.668M396.999 554.811h-16.248M398.889 488.685h-1.89M398.889 488.685h-1.89M404.557 488.685h-5.668M396.999 488.685h-16.248"/></g><g><path class="st3" d="M103.022 7.665v16.249M103.022.108v5.668M103.022 5.776v1.889M36.896 7.665v16.249M36.896.108v5.668M36.896 5.776v1.889M36.896.108h66.126M36.896 23.914h66.126M36.896 7.665h3.778M40.674 7.665V5.777M40.674 5.776h-3.778M74.682 5.776h-1.889M72.793 5.776v1.889M72.793 7.665h1.889M40.674 6.721h32.119M40.674 7.665h32.119M72.793 5.776H40.674M74.682 7.665h.945M75.627 7.665v-.944M75.627 6.721h.944M76.572 6.721v-.945M76.572 5.776h-1.89M103.022 5.776h-3.778M99.244 5.776v.945M99.244 6.721h.944M100.188 6.721v.944M100.188 7.665h2.834M99.244 5.776H76.572M78.461 8.611h18.893M75.627 8.611h2.834M78.461 8.611v-1.89M78.461 6.721h-2.834M75.627 6.721V8.61M100.188 6.721h-2.834M97.354 6.721V8.61M97.354 8.611h2.834M100.188 8.611v-1.89M97.354 6.721H78.461M78.461 8.611h18.893M78.461 7.665h18.893M36.896 5.776v1.889M36.896 5.776v1.889M36.896.108v5.668M36.896 7.665v16.249M103.022 5.776v1.889M103.022 5.776v1.889M103.022.108v5.668M103.022 7.665v16.249"/><g><path class="st3" d="M214.492 7.665v16.249M214.492.108v5.668M214.492 5.776v1.889M148.366 7.665v16.249M148.366.108v5.668M148.366 5.776v1.889M148.366.108h66.126M148.366 23.914h66.126M148.366 7.665h3.778M152.144 7.665V5.777M152.144 5.776h-3.778M186.152 5.776h-1.89M184.262 5.776v1.889M184.262 7.665h1.89M152.144 6.721h32.118M152.144 7.665h32.118M184.262 5.776h-32.118M186.152 7.665h.944M187.096 7.665v-.944M187.096 6.721h.945M188.041 6.721v-.945M188.041 5.776h-1.89M214.492 5.776h-3.778M210.713 5.776v.945M210.713 6.721h.944M211.658 6.721v.944M211.658 7.665h2.834M210.713 5.776h-22.672M189.93 8.611h18.894M187.096 8.611h2.834M189.93 8.611v-1.89M189.93 6.721h-2.834M187.096 6.721V8.61M211.658 6.721h-2.834M208.824 6.721V8.61M208.824 8.611h2.834M211.658 8.611v-1.89M208.824 6.721H189.93M189.93 8.611h18.894M189.93 7.665h18.894M148.366 5.776v1.889M148.366 5.776v1.889M148.366.108v5.668M148.366 7.665v16.249M214.492 5.776v1.889M214.492 5.776v1.889M214.492.108v5.668M214.492 7.665v16.249"/></g><g><path class="st3" d="M396.999 155.221h-16.248M404.557 155.221h-5.668M398.889 155.221h-1.89M404.557 155.221V.108M380.751 155.221V23.913M396.999 155.221v-4.724M396.999 150.498h1.891M398.889 150.498v4.723M398.889 7.665v4.724M398.889 12.389h-1.89M396.999 12.389V7.666M398.889 5.776v1.889M396.999 150.498V12.389M398.889 12.389v138.109M398.889 155.221h-1.89M398.889 155.221h-1.89M404.557 155.221h-5.668M396.999 155.221h-16.248M305.179 7.665v16.249M305.179.108v5.668M305.179 5.776v1.889M305.179.108h99.378M305.179 23.914h75.572M305.179 7.665h4.723M309.902 7.665V5.777M309.902 5.776h-4.723M396.999 5.776h-4.724M392.276 5.776v1.889M392.276 7.665H397M398.889 5.776h-1.89M309.902 7.665h82.374M392.276 5.776h-82.374M305.179 5.776v1.889M305.179 5.776v1.889M305.179.108v5.668M305.179 7.665v16.249"/><g><path class="st4" d="M396.999 65.602h1.89v5.133h-1.89zM396.999 108.96h1.89v5.133h-1.89z"/></g></g></g><path class="st5" d="M197.663 470.547l1.138-3.047m.001 0l.82-3.148m0 0l.496-3.215m-.001 0l.166-3.248"/><path class="st6" d="M197.663 470.547l.6-1.387-29.418-12.782h-.453l.001 1.511z"/><path class="st5" d="M198.264 469.16l-.601 1.387M145.994 516.949c4.27-1.589 6.498-2.034 11.062-2.267"/><path class="st6" d="M145.897 516.991l11.159 25.804h1.513v-.454l-11.283-25.95z"/><path class="st5" d="M145.992 415.699c3.251 1.422 6.756 2.154 11.064 2.268"/><path class="st6" d="M145.897 415.658l1.389.6 11.283-25.95v-.453h-1.513z"/><path class="st5" d="M223.65 372.252c-4.461 1.664-7.723 2.336-12.559 2.583"/><path class="st6" d="M223.75 372.215l-12.659-29.272h-1.511v.454l12.781 29.418z"/><g><path class="st5" d="M223.652 264.335c-4.87-1.817-7.369-2.313-12.561-2.578"/><path class="st6" d="M223.75 264.377l-1.389-.6-12.781 29.418v.454h1.511z"/></g><g><path class="st5" d="M55.261 351.238c2.04-5.482 2.908-9.651 3.211-15.587"/><path class="st6" d="M55.231 351.308l.601-1.387-36.356-15.782h-.453v1.511z"/><g><path class="st5" d="M103.179 238.062c-1.501 4.019-2.057 6.843-2.272 11.058"/><path class="st6" d="M103.216 237.961l-.599 1.388 25.95 11.282h.453v-1.511z"/></g></g><path d="M380.751 584.851H72.226l-.001-249.201H58.472v-1.511h-.454v-7.557h23.277v247.311c99.818 0 199.633-.003 299.456 0v-19.082h23.805v30.04h-23.805 0zM9.5.108h27.396v23.806H9.501c0 101.581.755 201.507.755 302.668h9.22v7.557h-.453v1.511H.054V.108H9.5zm239.164 336.676h132.087v23.428h23.805v-62.348h-23.805v27.962H248.664v10.958h0zm132.087 121.105v30.796h23.805v-62.347h-23.805v31.551h0zm0-272.25v-30.418h23.805v59.513h-23.805v-16.248l-132.087.014v-12.83c44.022 0 88.047-.027 132.087-.031h0zM103.022.108h45.344v23.806h-45.344V.108h0zm202.156 23.806h-90.687V.108h90.687v23.806z" fill-rule="evenodd" clip-rule="evenodd" stroke="#000" stroke-miterlimit="3"/><path class="st0" d="M208.069 207.215v-8.711l-126.397.013-.001-12.847h100.135v-22.684h19.647v22.684h47.211v12.83l-37.574.004-.001 63.253h-1.51v.454h-1.511l.001-54.996zm-23.24-21.557v.012h13.601v-19.661h-13.601v19.649zm63.835 151.126v-10.958H211.09l-.001-32.177h-1.51v-.454h-1.511v50.202h1.511v-.454h1.51l.001-6.159h37.574zM9.501 164.101h15.492c0 11.474-.018 22.948-.018 34.422l-15.493.003.019-12.848 12.469-.002v-18.552H9.501v-3.023zm71.794 165.504h24.938v8.124H87.908v33.063h-6.612v3.023h29.473v6.801H81.295v3.023h32.496v-9.824h43.265v16.04h1.512v.453h1.511v-19.516h-69.15v-30.04h18.327v-11.147h28.151v-77.462h22.672v-3.023h-31.06v1.511h-.453v1.512h5.817v59.135H91.875v-59.135h9.486v-1.512h-.454v-1.511H66.179v3.023h22.672v74.439h-7.557v3.023h.001zm299.456 125.261v3.023H200.283v-1.511h-.453v-1.512h8.239v-80.485h1.511v.454h1.51l.001 80.031h169.66zM157.056 573.887v-31.092h1.512v-.454h1.511v31.546h-3.023zm-75.761-94.271v-3.023h15.87l.001-18.704H81.295v-3.023h75.761v-36.898h1.512v-.454h1.511v37.352h8.766v1.512h-.453v1.511h-8.313v57.246h-1.511v-.453h-1.512v-35.066H81.295zm147.177 23.239H205.8v-3.023h25.695v74.055h-3.023v-71.032zm-71.416-44.966h-56.868v18.704h56.868v-18.704zM91.875 314.301h21.16v12.281h-21.16v-12.281zm24.182 0h18.327v12.281h-18.327v-12.281z"/><g><path class="st8" d="M9.88 163.853l-.14.13M17.31 163.853l-3.43 3.02M24.73 163.853l-3.43 3.02M25.23 169.953l-3.02 2.66M15.08 185.433l-5.35 4.71M25.22 176.493l-3.01 2.66M25.22 183.043l-15.5 13.65M25.22 189.583l-9.88 8.7M25.21 196.123l-2.44 2.15M89.32 185.423l-7.41 6.52M96.74 185.423l-14.59 12.85M104.16 185.423l-14.59 12.85M111.58 185.423l-14.59 12.85M119.01 185.423l-14.59 12.85M126.43 185.423l-14.58 12.85M133.85 185.423l-14.58 12.84M69.24 248.873l-2.82 2.48M141.27 185.423l-14.58 12.84M76.66 248.873l-3.43 3.02M148.69 185.423l-14.58 12.84M84.09 248.873l-3.43 3.02M156.12 185.423l-14.58 12.84M185.06 166.463l-3.02 2.66M189.28 162.743l-3.43 3.02M91.51 248.873l-3.43 3.02M163.54 185.423l-14.58 12.84M185.06 173.003l-3.02 2.66M196.7 162.743l-3.42 3.02M92.11 254.883l-3.02 2.66M98.93 248.873l-3.43 3.02M170.96 185.423l-14.58 12.84M185.06 179.533l-3.02 2.66M201.69 164.883l-3.02 2.66M92.11 261.423l-3.02 2.66M178.38 185.423l-14.58 12.84M201.69 171.433l-3.02 2.66M92.11 267.963l-3.02 2.66M185.81 185.423l-14.58 12.84M201.69 177.963l-3.02 2.66M92.11 274.503l-3.02 2.66M193.23 185.423l-14.57 12.83M92.11 281.033l-3.02 2.66M201.69 184.503l-15.61 13.75M136.04 248.873l-3.43 3.02M92.11 287.573l-3.02 2.66M208.07 185.423l-14.57 12.83M143.46 248.873l-3.43 3.02M92.11 294.113l-3.02 2.66M137.64 254.003l-3.02 2.66M215.49 185.423l-14.56 12.83M150.89 248.873l-3.43 3.02M92.11 300.653l-3.02 2.66M137.64 260.543l-3.02 2.66M222.91 185.423l-14.61 12.87M211.33 202.163l-3.03 2.67M158.31 248.873l-3.43 3.02M92.11 307.193l-3.02 2.66M137.64 267.083l-3.02 2.66M230.34 185.423l-14.57 12.83M211.33 208.703l-3.03 2.67M95.17 311.033l-6.08 5.36M137.64 273.623l-3.02 2.66M237.76 185.423l-14.56 12.83M211.33 215.233l-3.03 2.67M92.11 320.263l-3.02 2.66M102.59 311.033l-3.43 3.02M85.22 326.333l-3.44 3.03M137.64 280.153l-3.02 2.66M245.17 185.423l-14.56 12.83M211.33 221.773l-3.03 2.67M92.64 326.333l-3.44 3.03M110.01 311.033l-3.43 3.02M137.64 286.693l-3.02 2.66M248.9 188.683l-10.87 9.57M248.9 195.223l-3.44 3.03M137.64 293.233l-3.02 2.66M211.33 228.323l-3.03 2.66M117.43 311.033l-4.16 3.67M100.07 326.333l-3.44 3.03M94.83 337.483l-3.43 3.02M91.16 340.723l-3.02 2.66M116.29 318.583l-3.02 2.66M137.64 299.773l-3.02 2.66M211.32 234.863l-3.02 2.66M124.86 311.033l-3.43 3.02M107.49 326.333l-3.44 3.03M102.26 337.483l-3.43 3.02M91.16 347.263l-3.02 2.66M132.28 311.033l-3.43 3.02M211.32 241.403l-3.02 2.66M137.64 306.313l-3.02 2.66M109.49 331.113l-3.02 2.66M116.29 325.123l-4.82 4.24M122.33 326.333l-3.43 3.03M109.49 337.653l-3.24 2.85M91.16 353.793l-3.02 2.66M211.32 247.943l-3.02 2.66M137.64 312.853l-3.02 2.66M129.76 326.333l-3.44 3.03M91.16 360.333l-3.02 2.66M211.32 254.483l-3.02 2.66M137.64 319.393l-3.02 2.66M91.16 366.873l-3.02 2.66M86.99 370.543l-3.44 3.03M137.64 325.923l-3.91 3.44M211.32 261.013l-.56.5M83.25 380.373l-1.72 1.52M94.41 370.543l-3.44 3.03M90.68 380.373l-3.43 3.02M101.84 370.543l-3.44 3.03M98.1 380.373l-3.43 3.02M109.26 370.543l-3.44 3.03M105.52 380.373l-3.43 3.02M116.68 370.543l-5.68 5M124.11 370.543l-3.44 3.03M211.32 293.713l-3.02 2.66M114.03 379.423l-4.51 3.97M131.52 370.543l-3.44 3.03M211.32 300.243l-3.02 2.66M138.95 370.543l-3.44 3.03M211.32 306.783l-3.02 2.66M146.37 370.543l-3.44 3.03M211.33 313.323l-3.03 2.66M153.79 370.543l-3.44 3.03M211.33 319.863l-3.03 2.66M160.31 371.343l-3.02 2.66M212.25 325.583l-3.95 3.48M160.31 377.883l-3.02 2.66M219.68 325.583l-11.38 10.02M227.09 325.583l-12.43 10.95M211.33 339.473l-3.03 2.66M160.31 384.413l-3.02 2.66M234.51 325.583l-12.43 10.95M88.03 454.623l-3.43 3.02M241.94 325.583l-12.43 10.95M95.46 454.623l-3.43 3.02M248.9 325.993l-11.97 10.54M102.88 454.623l-5.48 4.83M248.9 332.533l-4.54 4M85.65 476.343l-3.44 3.03M110.3 454.623l-3.42 3.02M100.42 463.333l-3.02 2.66M209.1 374.133l-.8.7M160.14 417.263l-2.85 2.51M100.42 469.873l-3.02 2.66M117.73 454.623l-3.43 3.02M93.07 476.343l-3.44 3.03M160.31 423.653l-3.02 2.66M211.32 378.713l-3.02 2.66M125.15 454.623l-3.43 3.02M100.49 476.343l-3.44 3.03M160.31 430.183l-3.02 2.66M211.32 385.243l-3.02 2.66M132.57 454.623l-3.43 3.02M107.91 476.343l-3.44 3.03M160.31 436.723l-3.02 2.66M211.32 391.783l-3.02 2.66M139.99 454.623l-3.43 3.02M115.33 476.343l-3.44 3.03M160.31 443.263l-3.02 2.66M211.32 398.323l-3.02 2.66M147.41 454.623l-3.42 3.02M122.76 476.343l-3.44 3.03M160.31 449.803l-3.02 2.66M211.32 404.863l-3.02 2.66M154.84 454.623l-3.43 3.02M130.18 476.343l-3.44 3.03M137.6 476.343l-3.44 3.03M211.32 411.403l-3.02 2.66M162.26 454.623l-4.97 4.38M145.03 476.343l-3.44 3.03M211.33 417.943l-3.03 2.66M169.08 455.153l-2.83 2.49M160.31 462.883l-3.02 2.66M152.44 476.343l-3.44 3.03M211.33 424.463l-3.03 2.67M160.31 469.413l-3.02 2.66M160.31 475.953l-3.88 3.42M211.33 431.003l-3.03 2.67M160.31 482.493l-3.02 2.66M211.33 437.543l-3.03 2.67M160.31 489.033l-3.02 2.66M211.33 444.083l-3.03 2.67M160.31 495.573l-3.02 2.66M206.79 454.623l-3.42 3.02M211.33 450.623l-3.03 2.67M160.31 502.113l-3.02 2.66M214.22 454.623l-3.43 3.02M221.64 454.623l-3.43 3.02M160.31 508.653l-3.02 2.66M229.05 454.623l-3.42 3.02M236.48 454.623l-3.43 3.02M243.9 454.623l-3.43 3.02M251.33 454.623l-3.43 3.02M258.75 454.623l-3.43 3.02M207.71 499.583l-1.67 1.47M159.46 542.093l-2.17 1.91M160.31 547.883l-3.02 2.66M215.14 499.583l-3.44 3.03M266.17 454.623l-3.42 3.02M160.31 554.413l-3.02 2.66M222.55 499.583l-3.44 3.03M273.59 454.623l-3.43 3.02M160.31 560.953l-3.02 2.66M229.97 499.583l-3.44 3.03M281.01 454.623l-3.43 3.02M288.44 454.623l-3.43 3.02M231.73 504.573l-3.02 2.66M160.31 567.493l-3.02 2.66M295.86 454.623l-3.43 3.02M231.73 511.113l-3.02 2.66M303.28 454.623l-3.42 3.02M231.73 517.653l-3.02 2.66M310.71 454.623l-3.43 3.02M231.73 524.193l-3.02 2.66M318.13 454.623l-3.43 3.02M231.73 530.733l-3.02 2.66M325.54 454.623l-3.42 3.02M231.73 537.263l-3.02 2.66M332.97 454.623l-3.43 3.02M231.73 543.803l-3.02 2.66M340.39 454.623l-3.43 3.02M231.73 550.343l-3.02 2.66M347.82 454.623l-3.43 3.02M231.73 556.883l-3.02 2.66M355.24 454.623l-3.43 3.02M231.73 563.423l-3.02 2.66M362.66 454.623l-3.42 3.02M231.73 569.963l-3.02 2.66M370.08 454.623l-3.43 3.02M377.5 454.623l-3.43 3.02"/></g><path class="st4" d="M208.069 207.215v-8.711l-126.397.013-.001-12.847h100.135v-22.684h19.647v22.684h47.211v12.83l-37.574.004-.001 63.253h-1.51v.454h-1.511l.001-54.996zm-23.24-21.557v.012h13.601v-19.661h-13.601v19.649zm63.835 151.126v-10.958H211.09l-.001-32.177h-1.51v-.454h-1.511v50.202h1.511v-.454h1.51l.001-6.159h37.574zM9.501 164.101h15.492c0 11.474-.018 22.948-.018 34.422l-15.493.003.019-12.848 12.469-.002v-18.552H9.501v-3.023zm71.794 165.504v-3.023h7.557v-74.439H66.18v-3.023h34.728v1.511h.454v1.512h-9.486v59.135h42.509v-59.135h-5.817v-1.512h.453v-1.511h31.06v3.023h-22.672v77.462h-28.151v11.147H90.929v30.04h69.15v19.516h-1.511v-.453h-1.512v-16.04h-43.265v9.824H81.295v-3.023h29.473v-6.801H81.295v-3.023h6.612v-33.063h18.326v-8.124H81.295zm299.456 125.261v3.023H200.283v-1.511h-.453v-1.512h8.239v-80.485h1.511v.454h1.51l.001 80.031h169.66zM157.056 573.887v-31.092h1.512v-.454h1.511v31.546h-3.023zm-75.761-94.271v-3.023h15.87l.001-18.704H81.295v-3.023h75.761v-36.898h1.512v-.454h1.511v37.352h8.766v1.512h-.453v1.511h-8.313v57.246h-1.511v-.453h-1.512v-35.066H81.295zm147.177 23.239H205.8v-3.023h25.695v74.055h-3.023v-71.032zm-71.416-44.966h-56.868v18.704h56.868v-18.704zM91.875 314.301v12.281h21.16v-12.281h-21.16zm24.182 0v12.281h18.327v-12.281h-18.327z"/></g><g id="sizes_7_"><path class="st9" d="M17.167 156.057l3.813-8.227h1.641l-3.719 8.133h5.57v1.477h-7.305v-1.383zm4.898-3.555h1.555v6.688h-1.555v-6.688zM29.167 159.182h-1.594v-9.625l-1.617.992v-1.648l1.617-1.078h1.594v11.359zM31.588 157.588h1.594v1.594l-1.594 1.578v-3.172zM41.237 149.245l-2.938 9.938h-1.695l2.938-9.844h-2.891v1.633h-1.594v-3.148h6.18v1.421zM217.051 212.316h-1.594v-9.625l-1.617.992v-1.648l1.617-1.078h1.594v11.359zM221.274 212.097a2.75 2.75 0 01-1.086-.977c-.278-.427-.465-.94-.559-1.539v-.008h1.594v.008c.058.417.224.741.5.973.276.232.636.348 1.078.348.511 0 .905-.17 1.184-.512.278-.341.418-.821.418-1.441v-.953c0-.614-.14-1.092-.418-1.434-.278-.341-.673-.512-1.184-.512-.276 0-.542.078-.797.234s-.479.375-.672.656h-1.453v-5.984h5.789v1.516h-4.195v2.555a2.275 2.275 0 011.414-.508c.656 0 1.218.136 1.684.406.466.271.82.667 1.063 1.188.242.521.363 1.148.363 1.883v.953c0 .734-.125 1.362-.375 1.883-.25.521-.614.918-1.094 1.191s-1.055.41-1.727.41c-.573 0-1.082-.112-1.527-.336zM228.184 210.722h1.594v1.594l-1.594 1.578v-3.172zM231.794 210.933l3.961-5.281c.229-.302.407-.616.535-.941.128-.325.191-.629.191-.91v-.016c0-.453-.133-.805-.398-1.055s-.644-.375-1.133-.375c-.464 0-.839.137-1.125.41s-.461.66-.523 1.16v.008h-1.648v-.008c.094-.651.285-1.207.574-1.668s.663-.813 1.121-1.055.987-.363 1.586-.363c.677 0 1.255.116 1.734.348.479.232.844.569 1.094 1.012.25.443.375.977.375 1.602v.008c0 .401-.083.82-.25 1.258s-.398.859-.695 1.266l-3.289 4.469h4.297v1.516h-6.406v-1.385zM215.051 407.853h-1.594v-9.625l-1.617.992v-1.648l1.617-1.078h1.594v11.359zM219.614 407.97l-.727-.348a2.857 2.857 0 01-1.168-1.008c-.294-.44-.48-.97-.559-1.59h1.625c.047.323.148.589.305.797.156.208.358.363.605.465s.538.152.871.152c.526 0 .935-.141 1.227-.422s.438-.677.438-1.188v-.344c0-.567-.138-1.006-.414-1.316-.276-.31-.667-.465-1.172-.465h-.805v-1.516h.805c.442 0 .786-.133 1.031-.398s.367-.641.367-1.125v-.352c0-.448-.129-.794-.387-1.039-.258-.245-.624-.367-1.098-.367-.271 0-.513.051-.727.152s-.395.258-.543.469-.257.476-.324.793h-1.617c.104-.62.301-1.151.59-1.594a2.893 2.893 0 011.098-1.008c.442-.229.95-.344 1.523-.344.979 0 1.737.258 2.273.773s.805 1.242.805 2.18v.188c0 .568-.153 1.063-.461 1.484s-.742.729-1.305.922c.62.136 1.101.44 1.441.914.341.474.512 1.078.512 1.813v.188c0 .662-.128 1.227-.383 1.695s-.626.826-1.113 1.07c-.487.245-1.074.367-1.762.367l-.951.002zM225.934 406.259h1.594v1.594l-1.594 1.578v-3.172zM231.231 407.58c-.521-.26-.923-.629-1.207-1.105s-.426-1.03-.426-1.66v-.188c0-.567.142-1.102.426-1.602s.663-.877 1.137-1.133c-.401-.219-.723-.535-.965-.949s-.363-.85-.363-1.309v-.273c0-.594.133-1.116.398-1.566.266-.45.641-.799 1.125-1.047.484-.247 1.047-.371 1.688-.371s1.203.124 1.688.371c.484.248.859.597 1.125 1.047.266.451.398.973.398 1.566v.273c0 .469-.124.909-.371 1.32a2.472 2.472 0 01-.98.938c.479.261.863.64 1.152 1.137a3.13 3.13 0 01.434 1.598v.188c0 .63-.142 1.184-.426 1.66s-.687.845-1.207 1.105c-.521.261-1.125.391-1.813.391s-1.292-.131-1.813-.391zm2.789-1.36c.281-.146.499-.35.652-.613.153-.263.23-.566.23-.91v-.109c0-.349-.077-.655-.23-.918a1.576 1.576 0 00-.652-.613c-.281-.146-.606-.219-.977-.219s-.695.073-.977.219c-.281.146-.499.352-.652.617s-.23.573-.23.922v.117c0 .344.077.646.23.906.153.261.371.462.652.605.281.144.606.215.977.215s.696-.073.977-.219zm-.133-5.121c.245-.138.435-.334.57-.59.136-.255.203-.549.203-.883v-.109c0-.317-.067-.599-.203-.844s-.325-.434-.57-.566-.526-.199-.844-.199-.599.066-.844.199-.435.322-.57.566a1.726 1.726 0 00-.203.852v.117c0 .328.067.619.203.871.136.253.325.448.57.586.245.138.526.207.844.207s.599-.069.844-.207z"/><g><path class="st9" d="M237.725 510.352h-1.594v-9.625l-1.617.992v-1.648l1.617-1.078h1.594v11.359zM246.171 500.414l-2.938 9.938h-1.695l2.938-9.844h-2.891v1.633h-1.594v-3.148h6.18v1.421zM248.202 508.758h1.594v1.594l-1.594 1.578v-3.172zM251.827 507.227L255.64 499h1.641l-3.719 8.133h5.57v1.477h-7.305v-1.383zm4.898-3.555h1.555v6.688h-1.555v-6.688z"/></g><g><path class="st9" d="M132.61 399.612l3.813-8.227h1.641l-3.719 8.133h5.57v1.477h-7.305v-1.383zm4.898-3.555h1.555v6.688h-1.555v-6.688zM141.712 401.143h1.594v1.594l-1.594 1.578v-3.172zM146.317 402.002c-.55-.567-.824-1.359-.824-2.375v-5.164c0-1.021.276-1.813.828-2.379.552-.565 1.356-.848 2.414-.848 1.063 0 1.868.281 2.418.844s.824 1.357.824 2.383v5.164c0 1.021-.276 1.814-.828 2.379-.552.565-1.356.848-2.414.848-1.063 0-1.868-.284-2.418-.852zm3.664-1.105c.269-.294.402-.717.402-1.27v-5.164c0-.552-.133-.975-.398-1.27-.266-.294-.683-.441-1.25-.441s-.984.147-1.25.441c-.266.294-.398.718-.398 1.27v5.164c0 .552.134.976.402 1.27.269.294.684.441 1.246.441s.978-.147 1.246-.441z"/></g><g><path class="st9" d="M136.696 490.276l3.813-8.227h1.641l-3.719 8.133h5.57v1.477h-7.305v-1.383zm4.898-3.554h1.555v6.688h-1.555v-6.688zM145.797 491.808h1.594v1.594l-1.594 1.578v-3.172zM150.797 493.116a2.61 2.61 0 01-1.082-1.172c-.247-.513-.371-1.131-.371-1.855v-.008c0-.422.05-.864.148-1.328a7.673 7.673 0 01.532-1.597l.109-.223 2.469-4.891h1.719l-2.898 5.664.008-.281c.13-.245.32-.435.57-.57.25-.135.542-.203.875-.203.589 0 1.094.133 1.516.398s.742.652.961 1.16.328 1.119.328 1.832v.008c0 .729-.124 1.354-.371 1.875a2.615 2.615 0 01-1.086 1.188c-.477.271-1.048.406-1.715.406s-1.238-.134-1.712-.403zm2.879-1.597c.273-.313.41-.758.41-1.336v-.008c0-.635-.144-1.126-.43-1.473-.286-.346-.695-.52-1.227-.52-.474 0-.841.175-1.102.523-.261.349-.391.841-.391 1.477v.008c0 .578.137 1.022.41 1.332.273.31.66.465 1.16.465.507 0 .897-.156 1.17-.468z"/></g><g><path class="st9" d="M24.825 314.56l-.008.281c-.13.24-.327.416-.59.527a2.372 2.372 0 01-.934.168c-.542 0-1.019-.138-1.43-.414-.411-.276-.73-.665-.957-1.168-.227-.502-.34-1.084-.34-1.746v-.008c0-.734.124-1.362.371-1.883a2.615 2.615 0 011.086-1.188c.477-.271 1.048-.406 1.715-.406s1.237.138 1.711.414a2.66 2.66 0 011.082 1.203c.247.526.371 1.159.371 1.898v.008c0 .406-.052.84-.156 1.301s-.253.918-.445 1.371l-.094.207c-.031.07-.065.14-.102.207l-2.422 4.867h-1.719l2.861-5.639zm.074-.985c.273-.338.41-.815.41-1.43v-.008c0-.599-.137-1.063-.41-1.391s-.66-.492-1.16-.492c-.505 0-.895.164-1.168.492s-.41.794-.41 1.398v.008c0 .615.137 1.09.41 1.426s.663.504 1.168.504c.5.001.887-.168 1.16-.507zM28.856 318.606h1.594v1.594l-1.594 1.578v-3.172zM34.282 319.981a2.75 2.75 0 01-1.086-.977c-.278-.427-.465-.94-.559-1.539v-.008h1.594v.008c.058.417.224.741.5.973.276.232.636.348 1.078.348.511 0 .905-.17 1.184-.512.278-.341.418-.821.418-1.441v-.953c0-.614-.14-1.092-.418-1.434-.278-.341-.673-.512-1.184-.512-.276 0-.542.078-.797.234s-.479.375-.672.656h-1.453v-5.984h5.789v1.516h-4.195v2.555a2.275 2.275 0 011.414-.508c.656 0 1.218.136 1.684.406.466.271.82.667 1.063 1.188.242.521.363 1.148.363 1.883v.953c0 .734-.125 1.362-.375 1.883-.25.521-.614.918-1.094 1.191s-1.055.41-1.727.41c-.573 0-1.082-.112-1.527-.336z"/></g><g><path class="st9" d="M98.099 307.195h-1.594v-9.625l-1.617.992v-1.648l1.617-1.078h1.594v11.359zM100.521 305.601h1.594v1.594l-1.594 1.578v-3.172zM110.17 297.257l-2.938 9.938h-1.695l2.938-9.844h-2.891v1.633h-1.594v-3.148h6.18v1.421z"/></g><g><path class="st9" d="M123.295 342.522l3.961-5.281c.229-.302.407-.616.535-.941.128-.325.191-.629.191-.91v-.016c0-.453-.133-.805-.398-1.055s-.644-.375-1.133-.375c-.464 0-.839.137-1.125.41s-.461.66-.523 1.16v.008h-1.648v-.008c.094-.651.285-1.207.574-1.668s.663-.813 1.121-1.055.987-.363 1.586-.363c.677 0 1.255.116 1.734.348.479.232.844.569 1.094 1.012.25.443.375.977.375 1.602v.008c0 .401-.083.82-.25 1.258s-.398.859-.695 1.266l-3.289 4.469h4.297v1.516h-6.406v-1.385zM131.576 342.311h1.594v1.594l-1.594 1.578v-3.172zM139.38 338.264l-.008.281c-.13.24-.327.416-.59.527a2.372 2.372 0 01-.934.168c-.542 0-1.019-.138-1.43-.414-.411-.276-.73-.665-.957-1.168-.227-.502-.34-1.084-.34-1.746v-.008c0-.734.124-1.362.371-1.883a2.615 2.615 0 011.086-1.188c.477-.271 1.048-.406 1.715-.406s1.237.138 1.711.414a2.66 2.66 0 011.082 1.203c.247.526.371 1.159.371 1.898v.008c0 .406-.052.84-.156 1.301s-.253.918-.445 1.371l-.094.207c-.031.07-.065.14-.102.207l-2.422 4.867h-1.719l2.861-5.639zm.075-.984c.273-.338.41-.815.41-1.43v-.008c0-.599-.137-1.063-.41-1.391s-.66-.492-1.16-.492c-.505 0-.895.164-1.168.492s-.41.794-.41 1.398v.008c0 .615.137 1.09.41 1.426s.663.504 1.168.504c.5.001.886-.168 1.16-.507z"/></g><g><path class="st9" d="M179.368 352.42l-2.938 9.938h-1.695l2.938-9.844h-2.891v1.633h-1.594v-3.148h6.18v1.421zM181.399 360.764h1.594v1.594l-1.594 1.578v-3.172zM186.696 362.084c-.521-.26-.923-.629-1.207-1.105s-.426-1.03-.426-1.66v-.188c0-.567.142-1.102.426-1.602s.663-.877 1.137-1.133c-.401-.219-.723-.535-.965-.949s-.363-.85-.363-1.309v-.273c0-.594.133-1.116.398-1.566.266-.45.641-.799 1.125-1.047.484-.247 1.047-.371 1.688-.371s1.203.124 1.688.371c.484.248.859.597 1.125 1.047.266.451.398.973.398 1.566v.273c0 .469-.124.909-.371 1.32a2.472 2.472 0 01-.98.938c.479.261.863.64 1.152 1.137a3.13 3.13 0 01.434 1.598v.188c0 .63-.142 1.184-.426 1.66s-.687.845-1.207 1.105c-.521.261-1.125.391-1.813.391s-1.293-.13-1.813-.391zm2.789-1.359c.281-.146.499-.35.652-.613.153-.263.23-.566.23-.91v-.109c0-.349-.077-.655-.23-.918a1.576 1.576 0 00-.652-.613c-.281-.146-.606-.219-.977-.219s-.695.073-.977.219c-.281.146-.499.352-.652.617s-.23.573-.23.922v.117c0 .344.077.646.23.906.153.261.371.462.652.605.281.144.606.215.977.215s.696-.073.977-.219zm-.133-5.121c.245-.138.435-.334.57-.59.136-.255.203-.549.203-.883v-.109c0-.317-.067-.599-.203-.844s-.325-.434-.57-.566-.526-.199-.844-.199-.599.066-.844.199-.435.322-.57.566a1.726 1.726 0 00-.203.852v.117c0 .328.067.619.203.871.136.253.325.448.57.586.245.138.526.207.844.207s.599-.069.844-.207z"/></g></g></svg>