<svg version="1.1" id="_x32_32_1_" xmlns="http://www.w3.org/2000/svg" x="0" y="0" viewBox="0 0 348.31 295.139" xml:space="preserve"><style>.st0,.st1{fill-rule:evenodd;clip-rule:evenodd}.st0{fill:#fff}.st1{stroke:#999;stroke-linecap:round;stroke-linejoin:round}.st1,.st2,.st3{fill:none;stroke-miterlimit:3}.st2{fill-rule:evenodd;clip-rule:evenodd;stroke-width:.4;stroke-linecap:round;stroke-linejoin:round;stroke:#999}.st3{stroke:#000}.st4,.st5,.st7{fill-rule:evenodd;clip-rule:evenodd}.st5,.st7{fill:none;stroke:#000;stroke-miterlimit:3}.st7{stroke:#666;stroke-width:.6;stroke-miterlimit:22.9256}</style><path class="st0" d="M104.882 273.522H348.31V0H15.632v294.965l89.25.046z"/><g id="mebel_5_"><path class="st1" d="M100.489 180.891H38.897"/><path class="st2" d="M38.897 257.598h15.525m10.892 0h35.174m-61.591-11.336h14.39m13.162 0h34.04m-61.592-11.336h61.592M38.897 223.59h61.592m-61.592-11.336h61.592m-61.592-11.336h61.592m-61.592-11.336h61.592m-16.627 69.149v-77.84m-22.671 56.854v-56.854M38.897 258.732v-77.841"/><path class="st1" d="M37.763 209.042V191.66M37.763 191.66H26.049M26.049 191.66v3.533m0 2.645v2.059m0 .906v2.06m0 2.646v3.533M26.049 209.042h11.714M29.712 200.803a1.133 1.133 0 01-2.079 0h2.079zm-2.079-.905a1.134 1.134 0 012.079 0h-2.079zM23.933 199.898v.907m0 0h7.749m0 0l.301-.257m0 0v-.394m0 0l-.301-.256m0 0h-7.749M23.668 199.595h.266v1.511h-.266zM23.933 201.107v-1.511m0 0h-.265m0 0v1.511m0 0h.265"/><path class="st1" d="M23.405 199.217h.264v2.267h-.264zM23.668 201.485v-2.267m0-.001h-.265m.001 0v2.267m0 .001h.265M25.294 203.619h-1.625m-.001 0v-.094m0 0h-.132m.001 0v-.284m0 0h-.133m0 0v1.89m0 0h.133m0 0v-.283m0 0h.132m-.001 0v-.095m0 0h1.625m.001 0v-.322m0 0h.416m0 0v1.078m0 0h.491m0 0v-2.645m0 0h-.491m0 0v1.076m0 0h-.416m0 0v-.321M25.294 197.083h-1.625m-.001 0v.094m0 0h-.132m.001 0v.283m0 0h-.133m0 0v-1.889m0 0h.133m0 0v.283m0 0h.132m-.001 0v.095m0 0h1.625m.001 0v.322m0 0h.416m0 0v-1.078m0 0h.491m0 0v2.645m0 0h-.491m0 0v-1.077m0 0h-.416m0 0v.322M25.71 204.432l.072-.071M25.71 203.941l.072.072M25.294 204.432v-.491M23.668 204.753v-1.134M23.537 203.526v1.322M25.71 196.271l.072.071M25.71 196.761l.072-.071M25.294 196.271v.49M23.668 195.949v1.134M23.537 197.177v-1.322M26.201 204.187c0 .136-.11.245-.246.245a.244.244 0 01-.245-.245.245.245 0 11.491 0zM26.201 196.516c0 .136-.11.245-.246.245a.244.244 0 01-.245-.245c0-.136.109-.245.245-.245s.246.109.246.245zM37.763 247.962V230.58M37.763 230.58H26.049M26.049 230.58v3.533m0 2.645v2.059m0 .908v2.059m0 2.645v3.533M26.049 247.962h11.714M29.712 239.725a1.134 1.134 0 01-2.079 0h2.079zm-2.079-.907a1.134 1.134 0 012.079 0h-2.079zM23.933 238.818v.907m0 0h7.749m0 0l.301-.256m0 0v-.395m0 0l-.301-.256m0 0h-7.749M23.933 240.027v-1.512m0-.001h-.265m0 0v1.512m0 .001h.265M23.668 240.405v-2.267m0-.001h-.265m.001 0v2.267m0 .001h.265M25.294 242.54h-1.625m-.001 0v-.095m0 0h-.132m.001 0v-.284m0 0h-.133m0 0v1.89m0 0h.133m0 0v-.283m0 0h.132m-.001 0v-.095m0 0h1.625m.001 0v-.321m0 0h.416m0 0v1.077m0 0h.491m0 0v-2.645m0 0h-.491m0 0v1.076m0 0h-.416m0 0v-.32M25.294 236.002h-1.625m-.001 0v.095m0 0h-.132m.001 0v.283m0 0h-.133m0 0v-1.889m0 0h.133m0 0v.283m0 0h.132m-.001 0v.095m0 0h1.625m.001 0v.321m0 0h.416m0 0v-1.077m0 0h.491m0 0v2.645m0 0h-.491m0 0v-1.076m0 0h-.416m0 0v.32M25.71 243.352l.072-.071M25.71 242.861l.072.072M25.294 243.352v-.491M23.668 243.673v-1.133M23.537 242.446v1.322M25.71 235.191l.072.071M25.71 235.682l.072-.072M25.294 235.191v.491M23.668 234.869v1.133M23.537 236.097v-1.322M26.201 243.107c0 .136-.11.245-.246.245a.244.244 0 01-.245-.245.245.245 0 11.491 0zM26.201 235.436a.246.246 0 11-.492 0 .246.246 0 01.492 0zM66.27 243.739l-.469-1.645m0 0l-.718-1.552m0 0l-.967-1.23m0 0l-1.249-.942m0 0l-1.448-.594m0 0l-1.551-.206m0 0l-1.551.206m0 0l-1.447.594m0 0l-1.249.942m0 0l-.967 1.23m0 0l-.719 1.552m0 0l-.469 1.645m0 0l-.207 1.697m0 0l.059 1.709m0 0l1.223 11.586m0 .001h10.654m0 0l1.223-11.586m0-.001l.059-1.709m0 0l-.207-1.697M55.751 253.01h4.116M59.868 253.01h4.117M56.804 238.742a5.747 5.747 0 013.063-.886M53.556 245.572c-.165-2.592 1.031-5.106 3.248-6.83M55.751 253.01c-1.506-2.253-2.266-4.828-2.195-7.437M66.18 245.572c.07 2.609-.69 5.185-2.195 7.437M62.932 238.743c2.217 1.723 3.413 4.237 3.248 6.829M59.868 237.857a5.727 5.727 0 013.064.887M55.221 258.543h9.295v.188h-9.295zM55.22 258.732h9.296m0 0v-.189m0 0H55.22m0 0v.189M69.315 258.732H50.421M69.315 263.266H50.421M69.315 258.732v4.534M50.422 258.732v4.534"/><path class="st1" d="M31.682 239.725l.301-.256v-.395l-.301-.256h-7.749v.907zM25.294 236.002h-1.625m-.001 0v.095m0 0h-.132m.001 0v.283m0 0h-.133m0 0v-1.889m0 0h.133m0 0v.283m0 0h.132m-.001 0v.095m0 0h1.625m.001 0v.321m0 0h.416m0 0v-1.077m0 0h.491m0 0v2.645m0 0h-.491m0 0v-1.076m0 0h-.416m0 0v.32M72.334 159.892l1.396.372m0 0l1.209.793m0 0l.898 1.133m0 0l.496 1.357m0 0l.043 1.446m0 0l-.413 1.384m0 0l-.829 1.185m0 0l-1.158.863m0 0l-1.372.455m0 0h-1.447m0 0l-1.372-.455m0 0l-1.159-.863m0 0l-.828-1.185m0 0l-.414-1.384m0 0l.044-1.446m0 0l.496-1.357m0 0l.897-1.133m0 0l1.209-.793m0 0l1.397-.372m0 0v-5.538m0 0l-.455.108m0 0l-.49.037m0 0l-.489-.037m0 0l-.455-.108m0 0l-.392-.172m0 0l-.299-.225m0 0l-.19-.261m0 0l-.064-.28m0 0v-.403m0 0l.019-.12m0 0l.064-.277m0 0l.054-.104m0 0l.182-.251m0 0l.078-.07m0 0l.274-.205m0 0l.356-.157m0 0l.196-.051m0 0l.25-.06m0 0l.019-.688m0 0l.01-.796m0 0h-1.729m0 0v-.435m0 0h-2.872m0 0l-.159-.058m0 0l-.083-.149m0 0l.033-.167m0 0l.134-.104m0 0l.485-.158m0 0l.726-.315m0 0l1.008-.574m0-.001l.728-.258m0 .001v-.125m0 0h-.604m0 0v-.982m0 0h2.569m0 0v.878m0-.001l.024.009m0 .001l.039.028m0 0l.033.034m0 0l.024.041m0-.001l.279.673m0 .001h.697m0 0v-1.361m0-.001h-1.058m0 0v-.302m0 .001h3.023m0 0v.302m0-.001h-1.058m0 0v1.361m0 .001h1.436m0 0v.151m0 0h.416m0 0v-.303m0-.001h-.152m0 0v-.529m0 .001h-.604m0 0v-.982m0 0h2.569m0 0v.982m0 0h-.604m0 0v.529m0-.001h-.152m0 0v.303m0 .001h.152m0 0v1.511m0 0h-2.57m0 0v2.154m0 0h-.023m0 0h-.059m0 0h-.094m0 0h-.124m0 0h-.149m0 0h-.042m0 0v7.504"/><g><path class="st1" d="M96.253 153.52a.945.945 0 11-1.89 0 .945.945 0 011.89 0zM69.991 148.572h.209m0 0l-.14-.341m0-.001l-.326-.053m0 0l-.008.001m0 0v.242m0 0h-.151m0 0v.302m0 0h.416m0 0v-.151M68.517 148.723v-.241m0 0l-.677.239m0 0l-.987.564m0 0l-.054.023m0 0h1.567m0 0v-.585m0 0h.151M74.374 147.891v.528M75.054 147.891v.528M68.717 147.891h-.352M69.575 148.42h-.188M69.386 148.42h-.68M68.706 148.42h-.014M69.386 148.244v.176M68.706 148.415v.005M68.517 148.723h1.058M70.869 150.233h.558M68.366 149.308v.491M70.935 150.801h.491M65.57 149.787l-.076.012M69.719 147.684l.048.002M69.55 147.716l.169-.032M70.264 147.767l.047.011M70.311 147.777l.02.009M68.366 148.016l.453-.161M68.819 147.855l.73-.139M69.675 148.189l.06-.012M65.57 149.787l.513-.167M66.083 149.62l.717-.312M68.777 147.872v-.001M69.766 147.686l.498.08M71.425 152.289l.002-.002M71.427 151.758l-.002-.002M69.991 149.118v-.127M69.991 148.873v-.103M69.991 148.991v-.118M70.2 148.572h.523M68.953 148.328l.722-.14M68.517 148.481l.436-.152M70.671 149.204l.001.001M70.58 149.16l.091.044M70.482 149.145l.098.016M70.384 149.16l.099-.016M70.293 149.204l.092-.044M70.293 149.204v.001M70.137 151.701l.345-.026M70.482 151.675l.345.026M70.066 151.718l.071-.017M71.148 151.777l.195.052M70.827 151.701l.321.076M70.113 149.371l-.009.062M71.343 151.829l.084.036M70.898 151.718l-.02-.688M70.86 149.434l-.01-.062M70.85 149.371l-.025-.058M70.825 149.314l-.042-.051M70.783 149.264l-.056-.038M70.727 149.225l-.056-.021M70.671 149.205l-.007-.003M70.664 149.202l-.068-.009M70.595 149.193h-.226M70.369 149.193l-.068.009M70.301 149.202l-.009.003M70.293 149.205l-.057.021M70.236 149.225l-.055.039M70.181 149.264l-.042.05M70.139 149.314l-.025.057M70.879 151.029l-.019-1.595M70.095 150.233l.009-.799M69.991 149.932h.107M70.866 149.932h.561M72.334 159.892v5.343M71.427 159.892v5.343M72.334 165.234h-.907M75.394 147.891h-1.36M75.243 148.42h-1.058M75.243 148.723h-1.058M73.769 148.723v1.209M69.991 149.932v-1.209M72.334 147.211h-.907M72.334 148.572v3.815M71.427 154.354v-5.782M73.769 149.932h-1.436M72.825 150.233h-.491M72.825 150.801h-.491M70.935 150.233v1.493M72.334 162.569a1.889 1.889 0 11-.907 0M73.769 149.259a.34.34 0 110 .589"/></g><g><path class="st1" d="M212.936 252.992a3.78 3.78 0 11-7.558-.002 3.78 3.78 0 017.558.002z"/><path class="st1" d="M210.29 252.992a1.134 1.134 0 11-2.267.001 1.134 1.134 0 012.267-.001zM301.733 252.992a3.78 3.78 0 11-7.558-.002 3.78 3.78 0 017.558.002z"/><path class="st1" d="M299.089 252.992a1.134 1.134 0 11-2.269 0 1.134 1.134 0 012.269 0zM219.548 183.088h68.016m0 0v75.572m0 0h-68.016m0 0v-75.572M221.437 181.198h64.236m0 0l.724.144m0 0l.612.41m0 0l.41.612m0 0l.144.724m0 0h-68.016m0 0l.145-.724m0 0l.409-.612m0 0l.612-.41m0 0l.724-.144M219.548 262.44h68.016m0 0v-3.779m0-.001h-68.016m0 0v3.779M287.563 262.44h-68.016m0 0v-1.891m0-.001h68.016m0 0v1.891M289.453 262.44h17.004m0 0v-18.894m0-.001h-17.004m0 0v18.894M217.659 262.44h-17.004m0 0v-18.894m0-.001h17.004m0 0v18.894M259.601 256.771h25.694m.001 0l.268-.11m-.001-.001l.11-.268m0 0v-12.469m0 .001l-.11-.267m0-.001l-.268-.111m.001 0h-25.694m-.001 0l-.268.111m0 0l-.11.267m0 .001v12.469m0-.001l.11.268m0 0l.268.11M247.51 256.771h-25.694m0 0l-.268-.11m-.001-.001l-.11-.268m0 0v-12.469m0 .001l.11-.267m0-.001l.268-.111m.001 0h25.694m0 0l.268.111m-.001 0l.11.267m0 .001v12.469m0-.001l-.11.268m0 0l-.268.11M219.548 244.569h1.89M247.887 244.569h11.337M285.674 244.569h1.89M219.548 239.559h68.016m0 0v-18.686m0 0l-68.016 14.908m0 0v3.778M205.477 253.852l3.68-.86m.001 0l1.583-3.431m-.001 0l-1.583 3.431m.001 0l1.305 3.546M301.634 253.852l-3.679-.86m-.001 0l-1.584-3.431m0 0l1.584 3.431m0 0l-1.306 3.546"/></g><g><path class="st1" d="M177.493 251.76l-.756-.756m0 .001h-71.416m0 0v.756m0-.001h72.172M111.908 242.04v18.626m0 0h.756m0 0V242.04m0 0h-.756M113.912 242.04v18.626m0 0h.756m0 0V242.04m0 0h-.756M115.917 242.04v18.626m0 0h.756m0 0V242.04m0 0h-.756M117.922 242.04v18.626m0 0h.756m0 0V242.04m0 0h-.756M122.168 242.175l-2.241 18.49m0 0l.75.092m0 0l2.241-18.491m0 0l-.75-.091M188.451 193.192h-22.672m0 0v46.855m0 0h-60.458m0 0v22.672m0 0h83.13m0 0v-69.527M176.737 251.005l.756.756m0-.001v-58.569m0 .001h-.756m0 0v57.813M186.458 199.779h-18.626m0 0v.755m0 0h18.626m0 0v-.755M186.458 201.784h-18.626m0 0v.755m0 0h18.626m0 0v-.755M186.458 203.788h-18.626m0 0v.756m0 0h18.626m0 0v-.756M186.458 205.793h-18.626m0 0v.756m0 0h18.626m0 0v-.756M186.323 210.039l-18.491-2.241m0 0l-.091.75m0 0l18.491 2.241m0 0l.091-.75"/></g><g><path class="st1" d="M24.836 135.95v-22.672M119.303 113.278v22.673M24.836 113.278v22.672m0 .001h94.467m0 0v-22.672m0-.001H24.836M119.303 124.992v-.756m0 0H24.836m0 0v.756m0 0h94.467M31.423 115.271v18.626m0 0h.756m0 0v-18.626m0 0h-.756M33.428 115.271v18.626m0 0h.756m0 0v-18.626m0 0h-.756M35.432 115.271v18.626m0 0h.756m0 0v-18.626m0 0h-.756M37.436 115.271v18.626m0 0h.756m0 0v-18.626m0 0h-.756M41.682 115.407l-2.241 18.49m.001 0l.751.091m-.001 0l2.241-18.49m0 0l-.751-.091"/><g><path class="st1" d="M169.935 135.95v-15.114m0 0h154.357m0 0v15.114m0 0H169.935M290.512 131.069v1.021m0 0h-44.369m0 0v-1.021m0 0h44.369M281.051 132.09v.832m0 0l-.151.566m0 0l-.415.415m-.001 0l-.568.152m0 0h-22.699m0 0l-.566-.152m.001 0l-.415-.415m0 0l-.152-.566m-.001 0v-.832m0 0h24.966M290.512 130.772v.298m0 0h-44.369m0 0v-.298m0 0h44.369"/><g><path class="st1" d="M212.786 61.841l-4.109-4.109m0 0l-.426-.407m0 0l-.43-.371m0-.001l-.424-.328m0 0l-.403-.276m0 .001l-.017-.009m0 0l-.375-.216m0 0l-.332-.147m0 0l-.025-.008m0 0l-.281-.075m0 0l-.028-.004m0-.001l-.22.002m0 0l-.03.002m0 .001l-.029.007m0 0l-.027.013m0 0l-.154.078m-.001 0l-.024.018m.001 0l-.012.01m-.001 0l-1.133 1.134m.001 0l-1.03-1.029m0-.001l-5.217 5.217m11.114 11.117l5.217-5.218m.001 0l-1.029-1.029m0 0l1.134-1.134m0-.001l.011-.011m0 0l.017-.025m0 0l.078-.154m-.001.001l.013-.027m.001 0l.008-.029m0-.001l.002-.029m0 .001l.001-.221m0-.001l-.003-.028m0 .001l-.075-.281m0-.001l-.008-.025m0 .001l-.148-.332m0 0l-.214-.376m0 0l-.011-.016m0 0l-.276-.404m0 0l-.328-.423m0-.001l-.371-.429m0 .001l-.407-.427M203.638 57.823l9.057 9.057M203.761 57.946l.897-.898M212.571 66.756l.898-.898M208.698 70.876l4.664-4.664M199.641 61.819l4.664-4.663M207.647 58.754l4.117 4.117M204.659 57.049c.354-.354 1.691.409 2.988 1.706M211.763 62.87c1.296 1.296 2.06 2.634 1.705 2.988M176.187 90.222l4.108 4.108m0 0l.427.408m0 0l.43.371m0 0l.423.328m0 0l.404.275m0 0l.016.011m0 .001l.376.215m0-.001l.332.147m0 0l.024.008m0 0l.281.075m0 .001l.029.003m0-.001l.22-.001m0 .001l.03-.002m0 0l.028-.008m0-.001l.027-.012m0 0l.154-.078m0 0l.025-.018m0 0l.011-.011m0 0l1.134-1.133m0 .001l1.029 1.029m0 0l5.219-5.218m-11.117-11.115l-5.216 5.217m0 0l1.029 1.029m0 0l-1.135 1.134m0 0l-.01.011m0 0l-.017.025m0 0l-.078.153m0 0l-.013.027m0 0l-.008.03m0 0l-.002.029m0 0l-.001.221m0 0l.003.027m0 0l.074.282m0 0l.009.025m0 0l.147.332m0 0l.215.375m0 0l.01.016m0 0l.276.404m0 0l.329.424m0 .001l.371.429m0-.001l.407.427M185.335 94.24l-9.058-9.057M185.212 94.116l-.898.898M176.401 85.306l-.897.897M180.274 81.187l-4.663 4.664M189.331 90.243l-4.664 4.664M181.326 93.309l-4.117-4.117M184.313 95.015c-.354.354-1.692-.409-2.988-1.705M177.208 89.192c-1.296-1.296-2.06-2.634-1.705-2.988M180.295 57.732l-4.108 4.109m0 0l-.408.427m0 0l-.371.429m0 0l-.329.423m0 0l-.275.404m0 0l-.01.016m0 0l-.216.376m.001 0l-.146.332m-.001 0l-.009.025m0 0l-.074.281m0 0l-.003.028m.001 0l.001.221m-.001 0l.002.029m0 0l.008.029m0 0l.012.027m.001 0l.078.154m-.001-.001l.018.024m0 .001l.01.012m.001-.001l1.134 1.133m-.001.001l-1.029 1.03m0 0l5.217 5.217m11.116-11.115l-5.218-5.217m0 0l-1.028 1.029m-.001 0l-1.135-1.134m0 0l-.01-.01m0 0l-.026-.018m0 0l-.153-.078m0 0l-.027-.013m0 0l-.029-.007m0 0l-.029-.002m.001 0l-.221-.002m-.001 0l-.028.004m0 0l-.281.075m0 0l-.025.008m.001 0l-.332.147m-.001 0l-.376.215m.001 0l-.015.01m-.001 0l-.405.276m0 0l-.423.328m0 0l-.429.371m.001 0l-.427.407M176.278 66.88l9.057-9.058M176.401 66.756l-.897-.898M185.212 57.946l-.898-.898M189.331 61.819l-4.664-4.663M180.274 70.876l-4.663-4.664M177.208 62.87l4.118-4.117M175.503 65.858c-.354-.354.409-1.692 1.705-2.988M181.325 58.753c1.297-1.296 2.635-2.059 2.988-1.705M208.676 94.331l4.109-4.108m0 0l.408-.427m0 0l.371-.43m0 0l.328-.424m0 0l.275-.403m0 0l.011-.017m0 0l.215-.375m0 0l.147-.332m0 0l.008-.024m0 0l.075-.282m0 0l.003-.028m0 0l-.001-.22m0 0l-.002-.03m0 0l-.008-.029m0 0l-.012-.027m0 0l-.078-.154m0 0l-.018-.024m0 0l-.011-.012m0 0l-1.133-1.133m0 0l1.029-1.03m0 0l-5.218-5.218m-11.115 11.115l5.219 5.218m-.001 0l1.029-1.029m0 0l1.134 1.134m0 0l.011.011m0 0l.025.017m0 0l.153.078m0 0l.027.013m0 0l.03.008m0 0l.029.002m0 0l.221.001m0 0l.027-.003m0 0l.281-.075m0 0l.026-.008m0 0l.332-.148m0 0l.375-.214m0 0l.016-.011m0 0l.404-.276m0 0l.424-.328m0 0l.429-.371m0 0l.426-.407M212.695 85.183l-9.057 9.057M212.571 85.306l.898.897M203.761 94.116l.897.898M199.641 90.243l4.664 4.664M208.698 81.186l4.664 4.665M211.764 89.192l-4.117 4.117M213.469 86.204c.354.354-.409 1.691-1.705 2.987M207.647 93.308c-1.296 1.296-2.634 2.06-2.988 1.705M209.6 76.031c0 8.348-6.767 15.114-15.114 15.114-8.348 0-15.115-6.766-15.115-15.114 0-8.347 6.767-15.114 15.115-15.114 8.347 0 15.114 6.767 15.114 15.114z"/><g><path class="st1" d="M292.213 59.811v1.7m0 0h-48.82m0 0v-1.7m0 0h48.82M267.803 93.819h-24.41m0 0V70.013m24.41 0v23.806M243.393 93.819h-9.598m-.001 0V59.811m0 0h9.598m.001 0v1.7m0 8.502v23.806M292.213 93.819h-24.41m0 0V70.013m24.41 0v23.806M301.81 93.819h-9.598m.001 0V70.013m0-8.502v-1.7m0 0h9.598m-.001 0v34.008M267.803 61.511v8.502m0 0h-29.209m0 0v-8.502m0 0h29.209M267.803 61.511v8.502m0 0h29.209m0 0v-8.502m0 0h-29.209"/></g><g><path class="st1" d="M124.593 33.738h22.672m0 0V11.066m0 0h-22.672m0 0v22.672M135.928 18.624v7.558M133.256 19.731l5.345 5.343M132.149 22.402h7.558M133.256 25.074l5.345-5.344M213.484 31.66H235.4m0 0V13.144m0 0h-21.916m0 0V31.66M224.442 20.381v-5.299M224.442 15.082h1.096M224.442 20.381h1.096M233.297 20.381v-5.299M232.201 15.082h1.096M232.201 20.381h1.096M220.936 17.515a2.74 2.74 0 11-5.479-.001 2.74 2.74 0 015.479.001zM223.435 25.754a3.968 3.968 0 11-7.936 0 3.968 3.968 0 017.936 0z"/><path class="st1" d="M221.735 25.754a2.269 2.269 0 11-4.537-.001 2.269 2.269 0 014.537.001zM231.514 17.7a2.646 2.646 0 11-5.292-.002 2.646 2.646 0 015.292.002zM233.387 26.291a3.4 3.4 0 11-6.8 0 3.4 3.4 0 016.8 0zM192.607 33.738h63.67M192.607 11.066h63.67M192.607 33.738V11.066M168.235 30.904h-19.271m0 0l-.535-.221m0 0l-.22-.535m0 .001V12.767m0 0l.22-.535m0 0l.535-.221m0 0h19.271m0 0l.534.221m0 0l.222.535m0 0v17.381m0 .001l-.222.535m0-.001l-.534.221M169.935 33.738h-22.671M169.935 11.066h-22.671M169.935 33.738V11.066M147.264 33.738V11.066M166.346 29.016h-15.492M150.097 28.26V16.546M150.853 15.79h15.492M167.101 16.546V28.26M150.853 29.016a.757.757 0 01-.756-.756M150.097 16.546c0-.417.339-.756.756-.756M166.346 15.79c.418 0 .756.339.756.756M167.101 28.26a.756.756 0 01-.756.756M158.94 20.623l-.101.239m0 0l-.241.1m0 0l-.24-.101m0 0l-.099-.24m0 0v-7.477m0 0l.1-.24m0 0l.24-.099m0 0l.241.099m0 0l.1.24m0 0v7.479M159.354 15.072h-.414m0 0v-1.928m0 0l-.1-.24m0 0l-.241-.1m0 0l-.24.1m0 0l-.1.24m0 0v1.928m0 0h-.414m0 0v-2.456m0 0h1.509m0 0v2.456M159.344 16.433h-.404m.001 0v-1.322m0 0h.404m-.001 0v1.322M157.855 16.433v-1.322m0 0h.404m0 0v1.322m0 0h-.404M169.935 33.738h22.672M169.935 11.066h22.672M169.935 33.738V11.066M192.607 33.738V11.066M256.277 33.738V11.066M301.621 33.738h22.672m0 0V11.066m0 0h-22.672m0 0v22.672M278.949 33.738h22.672m0 0V11.066m0 0h-22.672m0 0v22.672M256.277 33.738h22.672m0 0V11.066m0 0h-22.672m0 0v22.672M181.526 25.226a3.41 3.41 0 11-6.822 0 3.41 3.41 0 016.822 0z"/><path class="st1" d="M181.005 25.226a2.89 2.89 0 11-5.78.001 2.89 2.89 0 015.78-.001zM187.003 26.058a2.579 2.579 0 11-5.16 0 2.579 2.579 0 015.16 0z"/><path class="st1" d="M185.868 26.058a1.444 1.444 0 11-2.888.002 1.444 1.444 0 012.888-.002zM174.047 27.433h.963m0 0v1.204m0 0h12.524m0 0v-1.204m0 0h.963M175.51 17.906h.077m.113 0h.114m.114 0h.114m.114 0h.077m-.001 0l.042.052m.072.088l.071.089m.071.087l.072.088m.072.088l.071.088m.072.088l.072.088m.071.088l.072.088m.071.088l.071.088m.07.088l.072.088m.072.088l.071.088m.073.088l.071.088m.071.089l.071.087m.072.088l.072.088m.071.088l.072.088m.071.088l.071.088m.071.088l.072.088m.072.088l.071.088m.071.088l.071.088m.071.088l.072.088m.072.088l.071.089m.071.088l.072.087m.072.088l.071.088m.072.088l.072.088m.071.088l.042.052M185.143 17.906h-.077m-.114 0h-.114m-.113 0h-.113m-.114 0h-.077m0 0l-.042.052m-.072.088l-.071.089m-.072.087l-.071.088m-.071.088l-.071.088m-.072.088l-.072.088m-.071.088l-.072.088m-.071.088l-.071.088m-.072.088l-.072.088m-.071.088l-.071.088m-.072.088l-.071.088m-.071.089l-.072.087m-.072.088l-.071.088m-.071.088l-.072.088m-.071.088l-.071.088m-.072.088l-.072.088m-.071.088l-.071.088m-.072.088l-.072.088m-.071.088l-.071.088m-.072.088l-.071.089m-.071.088l-.072.087m-.072.088l-.071.088m-.071.088l-.072.088m-.071.088l-.042.052"/><g><path class="st1" d="M41.84 34.494V11.066M68.29 20.367a7.18 7.18 0 11-7.179-7.18 7.18 7.18 0 017.179 7.18zM55.103 19.852l1.232.449m0 0h1.313m0 0l1.233-.449m0 0l1.473.342m0 0h1.513m0 0l1.473-.342m0 0l1.235.45m0 0h1.313m0 0l1.236-.45m0 0l-2.232 2.987m0-.001h-7.558m0 0l-2.231-2.987M57.335 23.101h7.558m0 0v-.262m0-.001h-7.558m0 0v.262M57.335 23.623h7.558m0 0v-.261m0 0h-7.558m0 0v.261M61.955 18.336l-.892-.085m0 0l-.021.226m0 0l.477.046m0 0l-1.383 1.142m0 0l.126.152m0 0l.641-.53m0 0l.068.081m0 0l-.74.611m0 0l.12.146m0 0l.741-.61m0 0l.08.097m0 0l-.602.496m0 0l.108.13m0 0l.601-.496m0 0l.081.098m0 0l-.415.342m0 0l.115.14m0 0l1.423-1.174M49.775 11.223h22.672m0 0v22.672m0 0H49.775m0 0V11.223M49.775 33.895h-7.936m0 0V11.248m0 0h7.936m0 0v22.646M24.836 34.494H41.84m0 0V67.18m0 0H24.836m0 0V34.494"/></g><g><path class="st2" d="M117.469 67.18l1.834-1.834m-8.78 1.834l8.78-8.78m-15.728 8.78l15.728-15.728M96.627 67.18l22.675-22.674M89.682 67.18l29.621-29.621M86.427 63.487l32.875-32.875M86.427 56.54l14.65-14.65m7.827-7.827l10.399-10.399M86.427 49.592l10.611-10.611m11.304-11.303l6.787-6.787M84.565 44.508l11.152-11.152m11.961-11.961l.503-.503M77.618 44.508l18.85-18.849M76.982 38.198l17.306-17.306M76.982 31.251L87.34 20.892m-10.358 3.412l3.413-3.412m38.908 3.736l-3.737-3.736m3.737 10.684l-10.685-10.684m10.685 17.63l-10.975-10.974M119.303 45.469l-10.492-10.491M96.757 22.924l-2.032-2.032m24.578 31.524l-12.471-12.47M96.093 29.207l-8.316-8.316m31.526 38.473l-17.359-17.359m-6.018-6.018L80.83 20.892m38.473 45.418L76.982 23.99m36.244 43.19L76.982 30.936m29.297 36.244L86.427 47.328m-2.82-2.82l-6.626-6.626M99.33 67.18L86.427 54.276m-9.374-9.375l-.071-.071m15.402 22.35l-5.956-5.957M78.49 67.18"/><path class="st1" d="M95.896 35.883l.469 1.645m0 0l.718 1.551m0 0l.968 1.23m0 0l1.248.943m0 0l1.448.594m0 0l1.55.206m0 0l1.552-.206m0 0l1.447-.594m0 0l1.249-.943m0 0l.967-1.23m0 0l.719-1.551m0 0l.469-1.645m0 0l.207-1.697m0 0l-.059-1.71m0 0l-1.223-11.584m0 0H96.971m0 0l-1.223 11.584m0 0l-.059 1.71m0 0l.207 1.697M106.415 26.612h-4.117M102.298 26.612h-4.116M105.362 40.88c-.89.57-1.962.88-3.064.886M108.61 34.05c.165 2.591-1.031 5.106-3.248 6.83M106.415 26.612c1.505 2.253 2.266 4.828 2.195 7.437M95.987 34.05c-.071-2.609.689-5.185 2.194-7.437M99.234 40.88c-2.217-1.724-3.413-4.239-3.247-6.83M102.298 41.766a5.742 5.742 0 01-3.063-.886M97.651 20.891h9.295v.188h-9.295zM106.946 20.892H97.65m0 0v.188m0 0h9.296m0 0v-.188M92.851 20.892h18.894M92.851 16.357h18.894M92.851 20.892v-4.535M111.745 20.892v-4.535"/><g><path class="st1" d="M86.427 67.18h-9.445M76.981 66.612V45.074m0 0l.166-.4m0 0l.4-.166m0 0h8.314m0 0l.401.166m0 0l.165.4m0 0v21.538m0 0l-.165.401m0 0l-.401.166m0 0h-8.314m0 0l-.4-.166m0 0l-.166-.401M81.137 65.479v-8.946m0-1.378v-8.946M81.705 45.641h3.022M85.294 46.208v19.271M84.727 66.046h-3.022M81.137 46.208c0-.313.254-.567.567-.567M84.727 45.641c.313 0 .566.254.566.567M85.294 65.479a.566.566 0 01-.566.566M81.705 66.046a.567.567 0 01-.567-.566M83.217 56.251a.753.753 0 01-1.144.153l1.121-.141.023-.012zm-1.145-.967a.753.753 0 011.144.153l-.023-.012-1.121-.141zM79.249 56.788l1.585-.151m0 0l.359-.123m0 0l2-.251m0 0l.265-.14m0 0l.105-.279m0 0l-.105-.281m0 0l-.265-.139m0 0l-2-.25m0 0l-.359-.124m0 0l-1.585-.152m0 0l-.556.181m0 0l-.342.473m0 0v.583m0 0l.342.472m0 0l.556.181M80.19 55.33h.562M80.752 56.357h-.562M80.19 56.357V55.33M80.752 55.33a.513.513 0 110 1.027M81.193 55.174a.795.795 0 010 1.34"/></g></g></g></g></g></g></g><g id="walls"><path class="st3" d="M340.591 40.352h-16.248M348.149 40.352h-5.668M342.481 40.352h-1.89M340.591 106.478h-16.248M348.149 106.478h-5.668M342.481 106.478h-1.89M348.149 106.478V40.352M324.343 106.478V40.352M340.591 106.478v-3.779M340.591 102.699h1.891M342.481 102.699v3.778M342.481 68.691v1.89M342.481 70.58h-1.89M340.591 70.58v-1.89M341.536 102.699V70.58M340.591 102.699V70.58M342.481 70.58v32.118M340.591 68.691v-.944M340.591 67.746h.945M341.536 67.746v-.944M341.536 66.802h.945M342.481 66.802v1.889M342.481 40.352v3.778M342.481 44.13h-.945M341.536 44.13v-.944M341.536 43.186h-.944M340.591 43.186v-2.834M342.481 44.13v22.672M339.647 64.912V46.019M339.647 67.746v-2.834M339.647 64.912h1.889M341.536 64.912v2.834M341.536 67.746h-1.889M341.536 43.186v2.834M341.536 46.02h-1.889M339.647 46.02v-2.834M339.647 43.186h1.889M341.536 46.02v18.893M339.647 64.912V46.019M340.591 64.912V46.019M342.481 106.478h-1.89M342.481 106.478h-1.89M348.149 106.478h-5.668M340.591 106.478h-16.248M342.481 40.352h-1.89M342.481 40.352h-1.89M348.149 40.352h-5.668M340.591 40.352h-16.248"/><g><path class="st3" d="M340.591 168.824h-16.248M348.149 168.824h-5.668M342.481 168.824h-1.89M340.591 251.954h-16.248M348.149 251.954h-5.668M342.481 251.954h-1.89M348.149 251.954v-83.13M324.343 251.954v-83.13M340.591 251.954v-3.778M340.591 248.176h1.891M342.481 248.176v3.778M342.481 197.164v1.89M342.481 199.054h-1.89M340.591 199.054v-1.89M341.536 248.176v-49.122M340.591 248.176v-49.122M342.481 199.054v49.122M340.591 197.164v-.944M340.591 196.22h.945M341.536 196.22v-.944M341.536 195.276h.945M342.481 195.276v1.889M342.481 168.824v3.779M342.481 172.604h-.945M341.536 172.604v-.945M341.536 171.658h-.944M340.591 171.658v-2.834M342.481 172.604v22.672M339.647 193.386v-18.894M339.647 196.22v-2.834M339.647 193.386h1.889M341.536 193.386v2.834M341.536 196.22h-1.889M341.536 171.658v2.834M341.536 174.492h-1.889M339.647 174.492v-2.834M339.647 171.658h1.889M341.536 174.492v18.895M339.647 193.386v-18.894M340.591 193.386v-18.894M342.481 251.954h-1.89M342.481 251.954h-1.89M348.149 251.954h-5.668M340.591 251.954h-16.248M342.481 168.824h-1.89M342.481 168.824h-1.89M348.149 168.824h-5.668M340.591 168.824h-16.248"/></g><g><path class="st3" d="M114.521 220.261c-3.715 1.39-6.775 2.077-11.038 2.297"/><path class="st4" d="M114.641 220.247l-11.159-25.804-1.511.001v.453l11.256 25.889z"/><path class="st5" d="M158.03 159.475c1.818-4.871 2.321-7.373 2.585-12.566"/><path class="st4" d="M157.995 159.567l.601-1.387-29.418-12.783h-.454v1.512z"/><path class="st5" d="M.263 75.969c5.304-1.906 9.415-2.884 15.555-3.197"/><path transform="rotate(-23.384 8.683 93.815)" class="st4" d="M7.927 74.092h1.512v39.448H7.927z"/><path class="st5" d="M89.837 81.244c-1.468-3.934-2.082-6.777-2.3-11.041"/><path class="st4" d="M89.883 81.345l25.766-11.143v-1.511h-.453L89.289 79.955z"/><path class="st5" d="M67.514 80.557c1.404-3.768 1.943-6.406 2.144-10.354"/><path class="st4" d="M67.495 80.653l.601-1.386L43.78 68.691h-.453v1.511z"/></g><path d="M15.818 295.031l.001-182.81h1.51v-.453h7.559v24.183h102.778v10.958H24.887v148.122h-9.069 0zM263.2 262.535h61.143v-10.58h23.805v21.538H263.2v-10.958h0zM24.887 11.067v62.159h-7.559v-.454h-1.51V.108h9.069v10.959h0zM324.343.108h23.805V40.35h-23.805V.108h0zM160.161 135.95v9.446h.454v1.512h163.728v21.916h23.805v-62.348h-23.805v29.474H160.161h0zm-32.495 0v10.958h1.058v-1.512h.454v-9.446h-1.512z" fill-rule="evenodd" clip-rule="evenodd" stroke="#000" stroke-miterlimit="3"/><path class="st0" d="M127.665 135.951h1.512v9.446h-.454v1.512H103.48v47.535h-1.51v.453h-1.512v-47.988h-60.08v37.786H24.887v-3.022h12.469v-34.764H24.887v-10.958h94.465v-22.672h3.023v22.672h5.29zm60.458 126.583l-84.642.001v-39.978h-1.51v-.454h-1.512v40.432H24.887v3.022h54.601v18.516H24.887v10.958h79.918v-21.538H263.2v-10.958h-72.055v-72.55h-25.694v3.023h22.672v69.526zm4.11-126.583v10.958h-31.618v-1.512h-.454v-9.446h32.072zM324.343.108v10.958H122.375v59.135h-6.727V68.69h-.453v-1.51h4.157V20.136h-42.32V67.18H87.99v1.511h-.454v1.511H69.659v-1.511h-.453V67.18h4.804V11.067H41.89v22.828H24.888v-3.023h13.98V11.067H24.887V.108h299.456zM119.352 11.067h-42.32v6.046h42.32v-6.046zM42.268 70.203l1.059-.001v-1.511h.453V67.18h-1.512v.001H24.887v3.022h17.381zm40.243 195.354h11.336v18.516H82.511v-18.516z"/><g><path class="st7" d="M26.819.291l-1.96 1.73M34.239.291l-9.38 8.26M41.659.291l-12.44 10.96M49.079.291l-12.44 10.96M56.509.291l-12.44 10.96M41.859 13.191l-3.02 2.66M29.009 31.051l-3.44 3.03M63.929.291l-12.44 10.96M41.859 19.731l-3.02 2.66M71.349.291l-12.44 10.96M36.429 31.051l-3.43 3.03M41.859 26.271l-3.02 2.66M41.859 32.811l-1.44 1.27M78.779.291l-12.44 10.96M86.189.291l-12.44 10.96M77.009 14.921l-3.03 2.67M93.619.291l-12.45 10.96M77.009 21.461l-3.03 2.67M24.899 67.361l-.04.04M101.039.291l-12.44 10.96M81.739 17.291l-3.44 3.03M32.329 67.361l-3.43 3.02M77.009 28.001l-3.03 2.67M108.459.291l-12.44 10.96M89.169 17.291l-3.44 3.03M77.009 34.541l-3.03 2.67M39.749 67.361l-3.43 3.02M115.889.291l-12.44 10.96M96.589 17.291l-3.44 3.03M77.009 41.081l-3.03 2.67M123.309.291l-12.44 10.96M104.009 17.291l-3.44 3.03M77.009 47.611l-3.03 2.67M130.729.291l-12.45 10.96M111.429 17.291l-3.44 3.03M118.849 17.291l-3.44 3.03M122.349 14.211l-3.02 2.66M77.009 54.151l-3.03 2.67M138.149.291l-12.44 10.96M122.349 20.751l-3.02 2.66M69.439 67.361l-.26.23M77.009 60.691l-3.03 2.67M145.569.291l-12.44 10.96M122.349 27.291l-3.02 2.66M77.009 67.231l-3.58 3.15M152.999.291l-12.44 10.96M122.349 33.831l-3.02 2.66M84.279 67.361l-3.42 3.02M160.419.291l-12.44 10.96M122.349 40.371l-3.02 2.66M167.839.291l-12.44 10.96M122.349 46.901l-3.02 2.66M175.259.291l-12.44 10.96M122.349 53.441l-3.02 2.66M28.479 136.131l-3.62 3.19M182.679.291l-12.44 10.96M122.349 59.981l-3.02 2.66M35.899 136.131l-11.04 9.73M190.109.291l-12.45 10.96M43.329 136.131l-12.44 10.96M122.349 66.521l-4.39 3.86M197.529.291l-12.44 10.96M50.749 136.131l-13.42 11.83M204.949.291l-12.44 10.96M58.179 136.131l-12.45 10.96M40.349 151.831l-3.02 2.66M212.379.291l-12.44 10.96M65.599 136.131l-12.44 10.96M40.349 158.371l-3.02 2.66M219.799.291l-12.44 10.96M73.009 136.131l-12.44 10.96M40.349 164.901l-3.02 2.66M227.209.291l-12.44 10.96M80.439 136.131l-12.45 10.96M28.539 181.851l-3.44 3.03M40.349 171.441l-3.02 2.66M234.639.291l-12.44 10.96M87.859 136.131l-12.44 10.96M35.959 181.851l-3.44 3.03M40.349 177.991l-3.02 2.66M242.059.291l-12.44 10.96M95.279 136.131l-12.44 10.96M40.349 184.521l-.4.36M121.019 113.461l-1.69 1.49M249.489.291l-12.45 10.96M122.349 118.831l-3.02 2.66M102.709 136.131l-12.44 10.96M256.909.291l-12.44 10.96M122.349 125.371l-3.02 2.66M110.129 136.131l-12.44 10.96M264.329.291l-12.44 10.96M122.349 131.901l-3.02 2.66M103.459 148.541l-3.03 2.67M117.549 136.131l-12.44 10.96M271.749.291l-12.44 10.96M124.969 136.131l-12.44 10.96M103.459 155.081l-3.03 2.67M279.169.291l-12.44 10.96M129.149 138.991l-9.2 8.1M103.459 161.621l-3.03 2.67M286.589.291l-12.44 10.96M103.459 168.161l-3.03 2.67M128.699 145.921l-1.32 1.17M129.149 145.531l-.06.05M294.019.291l-12.44 10.96M103.459 174.701l-3.03 2.67M301.439.291l-12.44 10.96M103.459 181.241l-3.03 2.67M308.869.291l-12.45 10.96M103.459 187.771l-3.03 2.67M162.079 136.131l-1.94 1.71M316.279.291l-12.44 10.96M169.499 136.131l-9.36 8.25M25.799 262.721l-.94.83M103.459 194.311l-.35.31M323.699.291l-12.44 10.96M324.319 6.291l-5.63 4.96M33.229 262.721l-3.43 3.02M176.929 136.131l-12.45 10.96M40.649 262.721l-3.43 3.02M184.349 136.131l-12.44 10.96M48.069 262.721l-3.42 3.02M191.769 136.131l-12.44 10.96M192.209 142.291l-5.45 4.8M101.399 222.281l-.97.86M31.059 284.251l-6.2 5.46M55.499 262.721l-3.43 3.02M103.459 227.011l-3.03 2.67M38.479 284.251l-12.44 10.96M62.919 262.721l-3.43 3.02M103.459 233.541l-3.03 2.67M45.899 284.251l-12.44 10.96M70.339 262.721l-3.43 3.02M103.459 240.081l-3.03 2.67M53.319 284.251l-12.44 10.96M77.759 262.721l-3.43 3.02M103.459 246.621l-3.03 2.67M167.539 190.171l-2.11 1.86M60.739 284.251l-12.44 10.96M85.179 262.721l-5.72 5.04M103.459 253.161l-3.03 2.67M174.959 190.171l-3.43 3.02M82.489 271.631l-3.03 2.67M68.169 284.251l-12.45 10.96M92.609 262.721l-3.43 3.02M103.459 259.701l-3.03 2.67M182.379 190.171l-3.42 3.02M82.489 278.171l-3.03 2.67M75.589 284.251l-12.44 10.96M100.029 262.721l-6.21 5.47M189.809 190.171l-3.43 3.02M83.009 284.251l-12.44 10.96M107.449 262.721l-13.63 12.01M191.119 195.551l-3.02 2.66M90.429 284.251l-12.44 10.96M114.869 262.721l-21.05 18.54M191.119 202.091l-3.02 2.66M122.289 262.721l-12.43 10.95M104.779 278.151l-19.37 17.06M191.119 208.631l-3.02 2.66M129.709 262.721l-12.43 10.95M104.779 284.691l-11.95 10.52M191.119 215.171l-3.02 2.66M104.779 291.231l-4.52 3.98M137.139 262.721l-12.43 10.95M191.119 221.711l-3.02 2.66M144.559 262.721l-12.43 10.95M191.119 228.251l-3.02 2.66M151.989 262.721l-12.43 10.95M191.119 234.781l-3.02 2.67M159.409 262.721l-12.43 10.95M191.119 241.321l-3.02 2.66M166.819 262.721l-12.43 10.95M191.119 247.861l-3.02 2.66M174.249 262.721l-12.43 10.95M191.119 254.401l-3.02 2.66M181.669 262.721l-12.43 10.95M191.119 260.941l-14.46 12.73M196.519 262.721l-12.43 10.95M203.939 262.721l-12.43 10.95M211.359 262.721l-12.43 10.95M218.779 262.721l-12.43 10.95M226.199 262.721l-12.43 10.95M233.629 262.721l-12.43 10.95M241.049 262.721l-12.43 10.95M248.479 262.721l-12.43 10.95M255.899 262.721l-12.43 10.95M263.169 262.851l-12.29 10.82M263.169 269.391l-4.86 4.28"/></g><path d="M127.665 135.951h1.512v9.446h-.454v1.512H103.48v47.535h-1.51v.453h-1.512v-47.988h-60.08v37.786H24.887v-3.022h12.469v-34.764H24.887v-10.958h94.465v-22.672h3.023v22.672h5.29zm60.458 126.583h0l-84.642.001v-39.978h-1.51v-.454h-1.512v40.432H24.887v3.022h54.601v18.516H24.887v10.958h79.918v-21.538H263.2v-10.958h-72.055v-72.55h-25.694v3.023h22.672v69.526h0zm4.11-126.583v10.958h-31.618v-1.512h-.454v-9.446h32.072zM324.343.108v10.958H122.375v59.135h-6.727V68.69h-.453v-1.51h4.157V20.136h-42.32V67.18H87.99v1.511h-.454v1.511H69.659v-1.511h-.453V67.18h4.804V11.067H41.89v22.828H24.888v-3.023h13.98V11.067H24.887V.108h299.456zM119.352 11.067h-42.32v6.046h42.32v-6.046h0zM42.268 70.203H24.887v-3.022h17.381v-.001h1.512v1.511h-.453v1.511l-1.059.001h0zm40.243 195.354v18.516h11.336v-18.516H82.511z" fill-rule="evenodd" clip-rule="evenodd" fill="none" stroke="#000" stroke-miterlimit="22.926"/></g><g id="sizes_5_"><path d="M168.526 184.354h-1.295v-7.82l-1.313.807V176l1.313-.876h1.295v9.23zM175.389 176.279l-2.387 8.074h-1.377l2.387-7.998h-2.349v1.326h-1.295v-2.558h5.021v1.156zM177.039 183.059h1.295v1.295l-1.295 1.282v-2.577zM181.447 184.176a2.249 2.249 0 01-.882-.793c-.227-.348-.378-.765-.454-1.251v-.007h1.295v.007c.047.339.182.602.406.79s.517.283.876.283c.415 0 .735-.139.962-.416s.339-.668.339-1.172v-.773c0-.5-.112-.888-.339-1.165s-.547-.416-.962-.416c-.225 0-.44.063-.647.19s-.39.305-.546.533h-1.181v-4.862h4.704v1.231h-3.409v2.076a1.82 1.82 0 011.149-.413c.533 0 .988.11 1.367.33s.667.542.863.965c.197.423.295.933.295 1.53v.773c0 .598-.102 1.107-.305 1.53s-.499.746-.889.968c-.389.223-.856.334-1.402.334a2.728 2.728 0 01-1.24-.272zM27.418 105.904l3.098-6.684h1.333l-3.021 6.607h4.525v1.199h-5.935v-1.122zm3.98-2.888h1.264v5.434h-1.264v-5.434zM34.814 107.148h1.295v1.295l-1.295 1.282v-2.577zM37.759 105.904l3.098-6.684h1.333l-3.021 6.607h4.525v1.199h-5.935v-1.122zm3.979-2.888h1.264v5.434h-1.264v-5.434z"/><g><path d="M81.852 33.648h-1.295v-7.82l-1.313.807v-1.34l1.313-.876h1.295v9.229zM83.819 32.354h1.295v1.295l-1.295 1.282v-2.577zM86.765 31.109l3.098-6.684h1.333l-3.021 6.607H92.7v1.199h-5.935v-1.122zm3.979-2.888h1.264v5.434h-1.264v-5.434z"/></g><g><path d="M47.502 47.734h-1.295v-7.82l-1.313.807v-1.34l1.313-.876h1.295v9.229zM49.47 46.439h1.295v1.295l-1.295 1.282v-2.577zM53.532 47.503c-.385-.218-.678-.535-.879-.952s-.302-.92-.302-1.508v-.006c0-.344.04-.703.121-1.08a6.176 6.176 0 01.432-1.298c.029-.062.059-.121.088-.181l2.006-3.974h1.396l-2.354 4.603.007-.229c.105-.199.26-.354.463-.464s.44-.165.711-.165c.479 0 .889.107 1.231.324.343.215.603.529.78.942.178.412.268.908.268 1.488v.007c0 .592-.101 1.1-.302 1.523a2.13 2.13 0 01-.883.965c-.387.22-.852.33-1.394.33-.54.002-1.004-.107-1.389-.325zm2.339-1.298c.223-.254.334-.616.334-1.086v-.006c0-.517-.117-.916-.35-1.197s-.564-.422-.996-.422c-.386 0-.684.142-.896.426-.212.283-.317.683-.317 1.199v.006c0 .471.111.831.333 1.083.223.252.536.378.942.378.412 0 .728-.127.95-.381z"/></g><g><path d="M127.719 46.495h-1.295v-7.82l-1.313.807v-1.34l1.313-.876h1.295v9.229zM134.58 38.421l-2.387 8.074h-1.377l2.387-7.998h-2.349v1.326h-1.295v-2.558h5.021v1.156zM136.232 45.2h1.295v1.295l-1.295 1.282V45.2zM140.64 46.317a2.249 2.249 0 01-.882-.793c-.227-.348-.378-.765-.454-1.251v-.007h1.295v.007c.047.339.182.602.406.79s.517.283.876.283c.415 0 .735-.139.962-.416s.339-.668.339-1.172v-.773c0-.5-.112-.888-.339-1.165s-.547-.416-.962-.416c-.225 0-.44.063-.647.19s-.39.305-.546.533h-1.181v-4.862h4.704v1.231h-3.409v2.076a1.82 1.82 0 011.149-.413c.533 0 .988.11 1.367.33s.667.542.863.965c.197.423.295.933.295 1.53v.773c0 .598-.102 1.107-.305 1.53s-.499.746-.889.968c-.389.223-.856.334-1.402.334a2.697 2.697 0 01-1.24-.272z"/></g><g><path d="M85.222 258.246a2.249 2.249 0 01-.882-.793c-.227-.348-.378-.765-.454-1.251v-.007h1.295v.007c.047.339.182.602.406.79s.517.283.876.283c.415 0 .735-.139.962-.416s.339-.668.339-1.172v-.773c0-.5-.112-.888-.339-1.165s-.547-.416-.962-.416c-.225 0-.44.063-.647.19s-.39.305-.546.533h-1.181v-4.862h4.704v1.231h-3.409v2.076a1.82 1.82 0 011.149-.413c.533 0 .988.11 1.367.33s.667.542.863.965c.197.423.295.933.295 1.53v.773c0 .598-.102 1.107-.305 1.53s-.499.746-.889.968c-.389.223-.856.334-1.402.334a2.697 2.697 0 01-1.24-.272zM90.837 257.129h1.295v1.295l-1.295 1.282v-2.577zM95.522 258.52l-.59-.283c-.395-.188-.71-.461-.949-.818s-.391-.788-.454-1.292h1.32c.038.263.12.479.247.647s.291.295.492.378c.201.082.438.124.708.124.428 0 .76-.115.997-.344.236-.229.355-.55.355-.965v-.279c0-.461-.112-.817-.337-1.069s-.542-.378-.952-.378h-.654v-1.23h.654c.359 0 .639-.108.838-.324s.299-.521.299-.914v-.285c0-.364-.105-.646-.314-.845-.21-.199-.507-.298-.893-.298-.22 0-.416.041-.59.123-.174.083-.32.21-.441.381-.12.172-.208.387-.264.645h-1.313c.085-.504.244-.936.479-1.295.234-.359.532-.633.892-.818a2.64 2.64 0 011.237-.279c.796 0 1.412.209 1.848.628s.654 1.009.654 1.771v.152c0 .462-.125.863-.375 1.207-.25.342-.604.592-1.061.748.504.11.895.358 1.172.743s.416.876.416 1.473v.152c0 .537-.104.997-.312 1.378s-.509.67-.904.869-.873.299-1.432.299l-.773-.002z"/></g></g></svg>