<svg version="1.1" id="_x32_33_1_" xmlns="http://www.w3.org/2000/svg" x="0" y="0" viewBox="0 0 406.259 376.219" xml:space="preserve"><style>.st0,.st1,.st2{fill-rule:evenodd;clip-rule:evenodd;fill:#fff}.st1,.st2{fill:none;stroke:#999;stroke-linecap:round;stroke-linejoin:round}.st1{stroke-miterlimit:3}.st2{stroke-width:.4}.st2,.st3{stroke-miterlimit:3}.st3,.st4,.st5{fill:none;stroke:#000}.st4{fill-rule:evenodd;clip-rule:evenodd;stroke-miterlimit:22.9256}.st5{stroke-miterlimit:3}.st5,.st6,.st8{fill-rule:evenodd;clip-rule:evenodd}.st8{fill:none;stroke:#666;stroke-width:.6;stroke-miterlimit:22.9256}</style><path class="st0" d="M73.575.34v58.928H.34v273.387l16.255.008v42.814h90.188v-42.77l298.924.145V.34z"/><g id="mebel_4_"><path class="st1" d="M183.001 156.642h1.068m0 0v13.707m0 0h-10.183m.001-13.707h9.115M184.07 162.868h1.532m0 0v1.257m0 0h-1.532m0 0v-1.257M177.235 170.349l.504 1.428m0 0l.562 1.592m0 0l-1.402.418m0 0l-.71-2.01m0 0l-.504-1.428m0 0h1.55M175.685 156.642l.504-1.428m0 0l.71-2.01m0 0l1.402.418m0 0l-.562 1.592m0 0l-.504 1.428m0 0h-1.55M184.07 156.642v13.707M179.987 170.349v-13.706M173.888 189.473h-20.404m0 0v-45.344m0 0h20.404m0 0v45.344"/><g><path class="st1" d="M130.812 309.161v-94.088M130.812 215.073h22.672M153.484 215.073h-22.672m0 0v94.088m0 0h22.672m0 0v-94.088M141.77 309.161h.756m0 0v-94.088m0 0h-.756m0 0v94.088M151.491 221.66h-18.626m0 0v.756m0 0h18.626m0 0v-.756M151.491 223.665h-18.626m0 0v.756m0 0h18.626m0 0v-.756M151.491 225.67h-18.626m0 0v.756m0 0h18.626m0 0v-.756M151.491 227.675h-18.626m0 0v.756m0 0h18.626m0 0v-.756M151.356 231.92l-18.491-2.241m0 0l-.091.75m0 0l18.49 2.241m0 0l.092-.75"/><g><path class="st1" d="M127.788 212.051h3.024M150.46 212.051h-19.648M150.46 145.547v66.504M127.788 212.051h22.672m0 0v-66.504m0 0h-22.672m0 0v66.504M139.502 145.547h-.756m0 0v66.504m0 0h.756m0 0v-66.504M129.782 205.464h18.626m0 0v-.756m0 0h-18.626m0 0v.756M129.782 203.459h18.626m0 0v-.755m0 0h-18.626m0 0v.755M129.782 201.455h18.626m0 0v-.756m0 0h-18.626m0 0v.756M129.782 199.45h18.626m0 0v-.756m0 0h-18.626m0 0v.756M129.917 195.204l18.491 2.242m0 0l.091-.751m0 0l-18.49-2.241m-.001 0l-.092.75"/></g></g><g><path class="st1" d="M43.335 186.545H11.974m0 0l-.402-.166m0 0l-.166-.4m-.001 0v-15.493m0 0l.166-.401m.001 0l.402-.166m0 0h31.362m-.001 0l.4.166m0 0l.166.401m.001 0v15.493m0 0l-.166.4m-.001 0l-.4.166M22.008 138.245l.469 1.645m0 0l.718 1.551m0 0l.967 1.23m0 0l1.249.943m0 0l1.448.594m0 0l1.55.205m0 0l1.552-.205m0 0l1.447-.594m0 0l1.248-.943m0 0l.968-1.23m0 0l.719-1.551m0 0l.469-1.645m0 0l.207-1.698m0 0l-.059-1.709m0 0l-1.223-11.585m0 0H23.083m0 0l-1.223 11.585m0 0l-.06 1.709m0 0l.208 1.698M32.527 128.974H28.41M28.41 128.974h-4.116M31.474 143.241c-.89.57-1.962.881-3.064.887M34.721 136.411c.165 2.592-1.03 5.107-3.247 6.83M32.527 128.974c1.505 2.253 2.266 4.827 2.194 7.437M22.098 136.411c-.07-2.609.689-5.184 2.195-7.437M25.346 143.241c-2.217-1.723-3.413-4.238-3.248-6.83M28.41 144.128a5.74 5.74 0 01-3.063-.887M23.763 123.253h9.295v.188h-9.295zM33.058 123.253h-9.296m0 0v.189m0 0h9.296m0 0v-.189M18.963 123.253h18.895M18.963 118.719h18.895M18.963 123.253v-4.534M37.857 123.253v-4.534M79.421 112.106v35.519M79.421 147.625h-35.33M44.091 147.625v-35.519M73.753 118.719a.944.944 0 11-1.889 0 .944.944 0 011.889 0zM64.76 125.089l1.396.372m0 .001l1.209.792m0 0l.899 1.133m0 0l.495 1.358m0-.001l.044 1.445m0 .001l-.414 1.384m0 0l-.828 1.185m0 0l-1.159.863m0-.001l-1.372.455m0 .001h-1.446m0 0l-1.372-.455m0-.001l-1.159-.863m0 .001l-.829-1.185m0 0l-.413-1.384m0 0l.043-1.445m0-.001l.496-1.358m0 .001l.897-1.133m0 0l1.209-.792m0 0l1.397-.372m0-.001v-5.538m0 .001l-.455.108m0 0l-.49.036m0 0l-.488-.036m0 0l-.456-.108m0 0l-.392-.173m0 0l-.299-.224m0 0l-.189-.261m0 0l-.065-.281m0 0v-.402m0 0l.019-.12m0 0l.065-.278m0 0l.054-.104m0 0l.181-.251m0-.001l.078-.069m0 .001l.275-.205m0 0l.356-.157m0 0l.195-.052m0 0l.25-.06m0 0l.02-.687m0 0l.009-.797m0 0h-1.729m0 0v-.434m0 0h-2.871m0 0l-.16-.059m0-.001l-.083-.148m0 .001l.033-.167m0 0l.134-.105m0 0l.485-.157m0 0l.726-.316m0 0l1.008-.573m0 0l.728-.259m0 0v-.124m0 0h-.604m0 0v-.982m0 0h2.569m0 0v.877m0 0l.024.01m0-.001l.039.028m0 .001l.033.034m0 0l.025.04m0 0l.278.673m0-.001h.697m0 0v-1.361m0 .001h-1.058m0 0v-.301m0 0h3.024m0 0v.301m0 0H64.76m0 0v1.361m0-.001h1.437m0 0v.151m0 .001h.415m0 0v-.302m0 0h-.152m0 0v-.529m0 0h-.604m0 0v-.982m0 0h2.569m0 0v.982m0 0h-.604m0 0v.529m0 0h-.151m0 0v.302m0 0h.151m0 0v1.511m0 0h-2.57m0 0v2.154m0-.001h-.022m0 0h-.06m0 0h-.094m0 0h-.123m0 0h-.149m0 0h-.043m0 0v7.505M62.417 113.768h.21m.001 0l-.141-.341m0 0l-.325-.053m-.001 0l-.008.002m.001 0v.242m0 0h-.152m0 0v.301m0 0h.416m-.001 0v-.151M60.944 113.92v-.24m0 0l-.677.239m0 0l-.987.563m0 0l-.053.024m0 0h1.566m0 0v-.586m0 0h.151M66.801 113.089v.529M67.481 113.089v.529M61.144 113.089h-.352M62.002 113.618h-.189M61.813 113.618h-.681M61.133 113.618h-.015M61.813 113.441v.177M61.133 113.612v.006M60.944 113.92h1.058M63.296 115.43h.557M60.793 114.505v.492M63.363 115.998h.49M57.998 114.984l-.076.013M62.146 112.881l.048.002M61.976 112.913l.17-.032M62.691 112.965l.047.01M62.738 112.975l.02.008M60.793 113.213l.453-.16M61.246 113.052l.73-.14M62.102 113.386l.06-.012M57.998 114.984l.512-.167M58.509 114.817l.718-.312M61.204 113.069h.001M62.194 112.883l.497.082M63.851 117.486l.002-.002M63.853 116.956l-.002-.002M62.417 114.316v-.128M62.417 114.071v-.104M62.417 114.188v-.117M62.628 113.768h.523M61.379 113.525l.724-.14M60.944 113.679l.436-.153M63.007 114.357l.091.045M62.909 114.343l.098.015M62.811 114.357l.098-.015M62.72 114.402l.091-.045M62.72 114.402h-.001M62.564 116.898l.345-.026M62.909 116.872l.345.026M62.493 116.915l.071-.017M63.575 116.974l.195.052M63.253 116.898l.322.076M62.54 114.569l-.009.062M63.77 117.026l.083.036M63.325 116.915l-.02-.687M63.287 114.631l-.009-.062M63.278 114.569l-.026-.059M63.251 114.511l-.042-.049M63.209 114.462l-.055-.038M63.155 114.424l-.057-.021M63.098 114.402l-.008-.003M63.09 114.399l-.068-.008M63.022 114.392h-.227M62.795 114.392l-.067.007M62.727 114.399l-.007.003M62.719 114.402l-.056.021M62.664 114.424l-.055.038M62.609 114.462l-.042.049M62.567 114.511l-.027.059M63.305 116.227l-.019-1.597M62.521 115.43l.01-.799M62.417 115.129h.108M63.293 115.129h.56M64.76 125.089v5.344M63.853 125.089v5.344M64.76 130.433h-.907M67.821 113.089h-1.36M67.67 113.618h-1.059M67.67 113.92h-1.059M66.197 113.92v1.209M62.417 115.129v-1.209M64.76 112.408h-.907M64.76 113.768v3.816M63.853 119.551v-5.783M66.197 115.129H64.76M65.252 115.43h-.491M65.252 115.998h-.491M63.363 115.43v1.494M64.76 127.767a1.89 1.89 0 01-.907 3.669 1.889 1.889 0 010-3.669M66.197 114.456a.34.34 0 110 .59"/><path class="st2" d="M43.902 183.333h35.519m-35.519-11.336h35.519m-68.015-11.336h68.016m-68.016-11.336h68.016m-68.016-11.336h10.57m12.868 0h9.248m-32.686-11.336h11.318m11.371 0h9.996m23.239 59.891v-38.919m-22.672 38.919v-38.919m-22.672 22.294v-31.852m0-4.417v-10.208M42.202 182.388H28.107m-.907 0H13.107M12.54 181.821V171.62M13.107 171.052h29.095M42.769 171.62v10.201M13.107 182.388a.567.567 0 01-.567-.567M12.54 171.62c0-.313.254-.567.567-.567M42.202 171.052c.313 0 .567.254.567.567M42.769 181.821a.567.567 0 01-.567.567M28.41 178.988a.757.757 0 01-.302.605v-1.21a.757.757 0 01.302.605zm-1.21.604a.756.756 0 010-1.208v1.208zM27.201 186.017h.907m0 0v-7.749m0-.001l-.256-.301m0 0h-.395m0 0l-.256.301m0 0v7.749M28.41 186.017h-1.511m0 0v.264m0-.001h1.511m0 0v-.264M28.788 186.28h-2.267m0 0v.265m0 0h2.267m0 0v-.265M30.923 184.655v1.625m0 0h-.096m0 0v.133m0 0h-.282m.001 0v.132m0 0h1.889m0 0v-.132m0 0h-.283m-.001 0v-.133m0 0h-.095m0 0v-1.625m0 0h-.321m.001 0v-.415m0 0h1.077m-.001 0v-.491m0 0h-2.645m0 0v.491m0 0h1.076m0 0v.415m0 0h-.32M24.386 184.655v1.625m0 0h.094m0 0v.133m0 0h.283m0 0v.132m0 0h-1.889m0 0v-.132m0 0h.283m0 0v-.133m0 0h.095m0 0v-1.625m0 0h.322m0 0v-.415m0 0h-1.078m0 0v-.491m0 0h2.646m0 0v.491m0 0h-1.078m0 0v.415m0 0h.322M31.735 184.24l-.071-.072M31.244 184.24l.072-.072M31.735 184.655h-.491M32.056 186.28h-1.133M30.828 186.413h1.323M23.574 184.24l.071-.072M24.064 184.24l-.071-.072M23.574 184.655h.49M23.253 186.28h1.133M24.48 186.413h-1.322M31.735 183.994a.245.245 0 11-.491 0 .246.246 0 01.491 0zM24.064 183.994a.245.245 0 11-.49.002.245.245 0 01.49-.002zM43.902 186.545v3.023M43.902 186.545v3.023M43.902 186.545v3.023M43.902 186.545v3.023"/><path class="st1" d="M44.091 112.106h35.33M44.091 123.442v-11.336"/><g><path class="st1" d="M28.6 309.161H11.407M24.632 298.771a3.78 3.78 0 11-7.558-.002 3.78 3.78 0 017.558.002z"/><path class="st1" d="M21.987 298.771a1.134 1.134 0 11-2.267.001 1.134 1.134 0 012.267-.001zM24.632 209.973a3.78 3.78 0 11-7.558-.002 3.78 3.78 0 017.558.002z"/><path class="st1" d="M21.987 209.973a1.134 1.134 0 11-2.267.001 1.134 1.134 0 012.267-.001zM85.09 220.364v68.015m0 0H15.186m0 0v-68.015m0 0H85.09M86.98 222.253v64.237m0 0l-.145.723m0 0l-.409.613m0 0l-.613.409m0 0l-.723.144m0 0v-68.015m0 0l.723.144m0 0l.613.409m0 0l.409.613m0 0l.145.723M11.407 220.364v68.015m0 0h3.779m0 0v-68.015m0 0h-3.779M11.407 288.379v-68.015m0 0h1.89m0 0v68.015m0 0h-1.89M11.407 290.269v17.004m0 0h18.894m0 0v-17.004m0 0H11.407M11.407 218.475v-17.004m0 0h18.894m0 0v17.004m0 0H11.407M17.075 260.417v25.695m0 0l.111.267m0 0l.267.111m0 0h12.47m0 0l.267-.111m0 0l.111-.267m0 0v-25.695m0 0l-.111-.267m0 0l-.267-.111m0 0h-12.47m0 0l-.267.111m0 0l-.111.267M17.075 248.325v-25.694m0 0l.111-.267m0 0l.267-.111m0 0h12.47m0 0l.267.111m0 0l.111.267m0 0v25.694m0 0l-.111.268m0 0l-.267.11m0 0h-12.47m0 0l-.267-.11m0 0l-.111-.268M29.277 220.364v1.889M29.277 248.703v11.336M29.277 286.49v1.889M34.286 220.364v68.015m0 0h18.687m0 0l-14.908-68.015m-.001 0h-3.779M21.714 302.45l-.86-3.68m0 0l-3.431-1.584m0 0l3.431 1.584m0 0l3.545-1.306M21.714 206.293l-.86 3.68m0 0l-3.431 1.584m0 0l3.431-1.584m0 0l3.545 1.305"/></g></g><g><path class="st1" d="M139.692 44.657l.755-.756m0 0H82.445m0 0v.756m0 0h57.247M89.032 34.937v18.626m0 0h.756m0 0V34.937m0 0h-.756M91.037 34.937v18.626m0 0h.756m0 0V34.937m0 0h-.756M93.042 34.937v18.626m0 0h.756m0 0V34.937m0 0h-.756M95.045 34.937v18.626m0 0h.756m0 0V34.937m0 0h-.756M99.291 35.072l-2.241 18.49m.001 0l.751.091m-.001 0l2.241-18.49m.001 0l-.751-.091M151.405 32.945h-68.96m0 0v22.671m0-.001h46.289m0 0v46.855m0 0h22.671m0 0V32.945M139.692 102.471h.755m0 0V43.902m0 0l-.755.756m0 0v57.813M149.412 95.884h-18.626m.001 0v-.756m0 0h18.626m-.001 0v.756M149.412 93.879h-18.626m.001 0v-.755m0 0h18.626m-.001 0v.755M149.412 91.875h-18.626m.001 0v-.756m0 0h18.626m-.001 0v.756M149.412 89.87h-18.626m.001 0v-.756m0 0h18.626m-.001 0v.756M149.277 85.624l-18.49 2.241m0 0l-.091-.75m0 0l18.49-2.241m0 0l.091.75"/></g><g><path class="st1" d="M350.254 34.077h30.136m0 0V11.405m0 0h-30.136m0 0v22.672M350.254 31.811h30.136M380.39 34.077H278.178M380.39 11.405v22.673M325.222 31.999h21.916m0 0V13.483m0 0h-21.916m0 0v18.516M336.18 20.719V15.42M336.18 15.42h1.096M336.18 20.719h1.096M345.034 20.719V15.42M343.938 15.42h1.097M343.938 20.719h1.097M332.674 17.854a2.74 2.74 0 11-5.479-.001 2.74 2.74 0 015.479.001zM335.172 26.093a3.967 3.967 0 11-7.935 0 3.969 3.969 0 017.935 0z"/><path class="st1" d="M333.473 26.093a2.269 2.269 0 11-4.537-.001 2.269 2.269 0 014.537.001zM343.252 18.039a2.646 2.646 0 11-5.292-.002 2.646 2.646 0 015.292.002zM345.125 26.63a3.401 3.401 0 11-6.801-.003 3.401 3.401 0 016.801.003zM322.106 34.077h28.148M322.106 11.405h28.148M322.106 34.077V11.405M350.254 34.077V11.405M278.178 94.535V34.077M278.178 80.177v-46.1M255.506 80.177h22.672M278.178 102.849V80.177m0 0h-22.672m0 0v22.672m0 0h22.672M263.064 91.513h7.558M264.17 94.184l5.344-5.343M266.842 95.291v-7.558M269.514 94.184l-5.344-5.343M275.344 59.205v19.271m0 0l-.222.535m0 0l-.534.22m0 0h-17.381m0 0l-.535-.22m0 0l-.222-.535m0 0V59.205m0 0l.222-.534m0 0l.535-.221m0 0h17.381m0 0l.534.221m0 0l.222.534M278.178 57.505v22.672M255.506 57.505v22.672M278.178 57.505h-22.672M278.178 80.177h-22.672M273.455 61.095v15.492M272.7 77.343h-11.714M260.23 76.587v-7.001m0-1.489v-7.002M260.986 60.339H272.7M273.455 61.095h.142a.142.142 0 00-.283 0 .142.142 0 00.283 0h-.142zM273.455 76.587a.755.755 0 01-.755.756M260.986 77.343a.755.755 0 01-.756-.756M260.23 61.095c0-.418.338-.756.756-.756M272.7 60.339c.417 0 .755.338.755.756M265.062 68.501l.24.1m0 0l.1.241m0 0l-.101.24m0 0l-.241.099m0 0h-7.476m0 0l-.24-.1m0 0l-.099-.24m0 0l.099-.24m0 0l.24-.1m0 0h7.478M259.512 68.086v.415m0 0h-1.928m0 0l-.24.1m0 0l-.1.24m0 0l.1.24m0 0l.24.1m0 0h1.928m0 0v.414m0 0h-2.456m0 0v-1.509m0 0h2.456M260.872 68.097v.404m0 0h-1.323m0 0v-.404m0 0h1.323M260.872 69.585h-1.323m0 0v-.404m0 0h1.323m0 0v.404M278.178 34.833v22.672M255.506 34.833v22.672M278.178 34.833h-22.672M278.178 57.505h-22.672M273.077 43.013a3.41 3.41 0 11-6.822 0 3.41 3.41 0 016.822 0z"/><path class="st1" d="M272.555 43.013a2.89 2.89 0 11-5.779 0 2.89 2.89 0 115.779 0zM273.077 49.32a2.579 2.579 0 11-5.158.002 2.579 2.579 0 015.158-.002z"/><path class="st1" d="M271.942 49.32a1.445 1.445 0 11-2.89 0 1.445 1.445 0 012.89 0zM271.873 38.943v.964m0 .001h1.204m-.001 0V52.43m0 0h-1.204m.001 0v.964M262.346 40.407l.104.048m.103.047l.103.047m.103.047l.103.047m.103.047l.103.047m.103.047l.103.048m.103.047l.104.047m.102.047l.104.047m.102.047l.104.047m.103.048l.103.047m.102.047l.104.047m.104.047l.102.047m.104.048l.102.047m.104.047l.103.048m.103.047l.102.046m.104.047l.103.047m.103.048l.103.047m.104.047l.102.048M262.346 50.041l.104-.047m.103-.047l.103-.048m.103-.046l.103-.047m.103-.047l.103-.048m.103-.047l.103-.047m.103-.048l.104-.047m.102-.046l.104-.048m.102-.047l.104-.047m.103-.047l.103-.048m.102-.047l.104-.047m.104-.046l.102-.048m.104-.047l.102-.047m.104-.048l.103-.047m.103-.047l.102-.046m.104-.048l.103-.047m.103-.048l.103-.047m.104-.047l.102-.047M262.346 40.407v.078m0 .113v.114m0 .113v.113m0 .114v.078m0 0l.052.042m.088.071l.088.071m.087.072l.088.072m.089.071l.088.071m.088.072l.088.071m.088.071l.088.072m.088.072l.087.071m.089.071l.088.072m.088.071l.088.072m.088.071l.088.072m.089.071l.087.071m.088.072l.088.071m.088.072l.088.071m.088.072l.088.071m.088.071l.088.073m.088.07l.088.072m.088.071l.088.072m.088.071l.088.071m.088.073l.089.071m.088.071l.087.071m.088.072l.088.072m.088.071l.088.072m.088.071l.052.042M262.346 50.041v-.077m0-.114v-.113m0-.114v-.113m0-.114v-.078m0 0l.052-.042m.088-.071l.088-.071m.087-.072l.088-.071m.089-.071l.088-.071m.088-.073l.088-.071m.088-.071l.088-.072m.088-.071l.087-.071m.089-.071l.088-.073m.088-.071l.088-.071m.088-.072l.088-.071m.089-.072l.087-.071m.088-.072l.088-.071m.088-.071l.088-.072m.088-.072l.088-.071m.088-.071l.088-.072m.088-.071l.088-.071m.088-.072l.088-.072m.088-.071l.088-.071m.088-.072l.089-.071m.088-.072l.087-.071m.088-.072l.088-.071m.088-.071l.088-.072m.088-.071l.052-.042M261.869 50.041v-9.634m0 0h.478m0 0v.723m0 0h-.237m-.001 0v8.188m0 0h.237m.001 0v.723m0 0h-.478"/><g><path class="st1" d="M347.139 98.503v-3.028m0 0h.858m0 0h17.176m0 0h.859m0 0v3.028M366.032 92.048v3.427m0 0h-.858m0 0V92.25m0 0h.057m0 0l.293.196m0 0l.343-.086m0 0l.165-.312M365.231 89.689l.293.196m0 0l.343-.087m0 0l.165-.311m0 0v2.561m0 0l-.165.313m0 0l-.343.086m0 0l-.293-.196m0 0H347.94m0 0l-.294.196m0 0l-.343-.086m0 0l-.164-.313m0 0v-2.561m0 0l.164.311m0 0l.343.087m0 0l.294-.196m0 0h17.291M347.139 92.048l.164.312m0 0l.343.086m0 0l.294-.196m0 0h.057m0 0v3.225m0 0h-.858m0 0v-3.427M349.807 89.057l-1.004.227h15.564l-1.003-.227zM364.368 89.283h-15.565m0 0l1.004-.227m0 0h13.557m0 0l1.004.227M365.231 89.283l.293-.196m0 0l.343.086m0 0l.165.313m0 0l-.165.312m0 0l-.343.087m0 0l-.293-.197m0 0H347.94m0 0l-.294.197m0 0l-.343-.087m0 0l-.164-.312m0 0l.164-.313m0 0l.343-.086m0 0l.294.196m0 0h17.291M325.222 98.503v-3.028m0 0h.858m0 0h17.176m0 0h.86m0 0v3.028M344.116 92.048v3.427m0 0h-.859m0 0V92.25m0 0h.057m0 0l.294.196m0 0l.343-.086m0 0l.165-.312M343.314 89.689l.294.196m0 0l.343-.087m0 0l.165-.311m0 0v2.561m0 0l-.165.313m0 0l-.343.086m0 0l-.294-.196m0 0h-17.29m0 0l-.294.196m0 0l-.343-.086m0 0l-.165-.313m0 0v-2.561m0 0l.165.311m0 0l.343.087m0 0l.294-.196m0 0h17.29M325.222 92.048l.165.312m0 0l.343.086m0 0l.294-.196m0 0h.056m0 0v3.225m0 0h-.858m0 0v-3.427M327.891 89.057l-1.005.227h15.566l-1.005-.227zM342.452 89.283h-15.565m0 0l1.004-.227m0 0h13.556m0 0l1.005.227M343.314 89.283l.294-.196m0 0l.343.086m0 0l.165.313m0 0l-.165.312m0 0l-.343.087m0 0l-.294-.197m0 0h-17.29m0 0l-.294.197m0 0l-.343-.087m0 0l-.165-.312m0 0l.165-.313m0 0l.343-.086m0 0l.294.196m0 0h17.29M347.139 132.511v3.028m0 0h.858m0 0h17.176m0 0h.859m0 0v-3.028M366.032 138.966v-3.427m0 0h-.858m0 0v3.225m0 0h.057m0 0l.293-.196m0 0l.343.086m0 0l.165.312M365.231 141.325l.293-.196m0 0l.343.087m0 0l.165.311m0 0v-2.561m0 0l-.165-.313m0 0l-.343-.086m0 0l-.293.196m0 0H347.94m0 0l-.294-.196m0 0l-.343.086m0 0l-.164.313m0 0v2.561m0 0l.164-.311m0 0l.343-.087m0 0l.294.196m0 0h17.291M347.139 138.966l.164-.312m0 0l.343-.086m0 0l.294.196m0 0h.057m0 0v-3.225m0 0h-.858m0 0v3.427M348.803 141.731l1.004.226h13.557l1.004-.226zM364.368 141.731h-15.565m0 0l1.004.227m0 0h13.557m0 0l1.004-.227M365.231 141.731l.293.196m0-.001l.343-.086m0 .001l.165-.313m0 0l-.165-.312m0 0l-.343-.087m0-.001l-.293.197m0 0H347.94m0 0l-.294-.197m0 0l-.343.087m0 .001l-.164.312m0 0l.164.313m0 0l.343.086m0-.001l.294-.196m0 .001h17.291M325.222 132.511v3.028m0 0h.858m0 0h17.176m0 0h.86m0 0v-3.028M344.116 138.966v-3.427m0 0h-.859m0 0v3.225m0 0h.057m0 0l.294-.196m0 0l.343.086m0 0l.165.312M343.314 141.325l.294-.196m0 0l.343.087m0 0l.165.311m0 0v-2.561m0 0l-.165-.313m0 0l-.343-.086m0 0l-.294.196m0 0h-17.29m0 0l-.294-.196m0 0l-.343.086m0 0l-.165.313m0 0v2.561m0 0l.165-.311m0 0l.343-.087m0 0l.294.196m0 0h17.29M325.222 138.966l.165-.312m0 0l.343-.086m0 0l.294.196m0 0h.056m0 0v-3.225m0 0h-.858m0 0v3.427M326.885 141.731l1.005.226h13.556l1.005-.226zM342.452 141.731h-15.565m0 0l1.004.227m0 0h13.556m0 0l1.005-.227M343.314 141.731l.294.196m0-.001l.343-.086m0 .001l.165-.313m0 0l-.165-.312m0 0l-.343-.087m0-.001l-.294.197m0 0h-17.29m0 0l-.294-.197m0 0l-.343.087m0 .001l-.165.312m0 0l.165.313m0 0l.343.086m0-.001l.294-.196m0 .001h17.29M317.678 132.511V98.503m0 0h56.666m0 0v34.008m0 0h-56.666"/></g></g><g><path class="st2" d="M220.745 99.825l5.288-5.288m-12.235 5.288l12.235-12.235M206.85 99.825l19.183-19.183m-26.13 19.183l26.13-26.13m-33.076 26.13l33.076-33.076M186.01 99.825l40.023-40.023m-46.97 40.023l1.512-1.512m4.46-4.46l40.998-40.998m25.768-25.768l.189-.188m-79.874 72.926l1.512-1.512m11.407-11.406l40.998-40.998m18.822-18.822l.189-.188m-79.875 72.926l1.512-1.512m18.354-18.354l40.998-40.998m11.874-11.874l.189-.188m-55.692 48.744l43.628-43.628m4.928-4.928l.189-.188m-53.671 46.724l25.847-25.847m8.32-8.32l12.557-12.557m-46.724 39.777l22.123-22.123m11.443-11.444l6.211-6.211M177.478 59.73l21.027-21.028m-21.027 14.08l21.829-21.829m-21.829 14.882l18.937-18.937m-18.937 11.99l11.99-11.99m-11.99 5.043l5.043-5.043m64.422.189l-.189-.188m-6.759.188l-.188-.188m-6.759.188l-.188-.188m-6.759.188l-.188-.188m.12 7.065l-7.066-7.066m7.066 14.014l-14.014-14.014m14.014 20.96l-15.017-15.016m15.017 21.963l-14.389-14.389m-12.063-12.062l-1.455-1.455m27.907 34.854l-16.158-16.157m-10.957-10.957l-7.74-7.74m34.855 41.8l-20.68-20.68m-6.772-6.771l-14.35-14.35M226.033 75.646l-48.748-48.747M226.033 82.593l-48.555-48.556M226.033 89.539l-48.555-48.554m48.555 55.502l-48.555-48.555m44.947 51.893l-44.947-44.947m38 44.947l-38-38m31.053 38l-23.496-23.496m-.687-.686l-6.87-6.87m24.106 31.052l-16.549-16.549m9.602 16.549l-9.602-9.602m2.655 9.602l-2.655-2.655m-4.292 2.655l-1.512-1.512m-5.434 1.512l-1.512-1.512m-5.436 1.512l-1.512-1.512"/><path class="st1" d="M198.66 41.89l.469 1.645m-.001 0l.718 1.551m0 0l.968 1.23m.001 0l1.248.943m0 0l1.448.594m0 0l1.551.206m0 0l1.551-.206m-.001 0l1.448-.594m.001 0l1.248-.943m0 0l.967-1.23m0 0l.719-1.551m0 0l.469-1.645m0 0l.208-1.697m-.001 0l-.06-1.71m.001 0l-1.223-11.584m0 0h-10.654m0 0l-1.222 11.584m-.001 0l-.06 1.71m.001 0l.207 1.697M209.178 32.619h-4.116M205.062 32.619h-4.116M208.126 46.887c-.889.57-1.961.88-3.063.886M211.374 40.057c.165 2.592-1.031 5.106-3.248 6.83M209.178 32.619c1.506 2.253 2.266 4.828 2.195 7.437M198.751 40.057c-.07-2.609.689-5.185 2.195-7.437M201.999 46.887c-2.217-1.724-3.413-4.238-3.248-6.83M205.062 47.773a5.737 5.737 0 01-3.063-.886M200.414 26.898h9.296v.19h-9.296zM209.709 26.899h-9.295m0 0v.188m0-.001h9.295m0 0v-.188M195.616 26.899h18.893M195.616 22.364h18.893M195.616 26.899v-4.535M214.508 26.899v-4.535"/><g><path class="st1" d="M252.484 27.087v72.738m0 0h-26.45m0 0V27.087m0 0h26.45M228.149 35.573l.081-1.053m0 0l.238-1.02m0 0l.39-.958m0 0l.529-.865m0 0l.652-.748m0 0l.756-.606m0 0l.835-.446m0 0l.891-.274m0 0l.919-.092m0 0h11.638m0 0l.919.092m0 0l.89.274m0 0l.836.446m0 0l.755.606m0 0l.652.748m0 0l.529.865m0 0l.389.958m0 0l.24 1.02m0 0l.08 1.053m0 0v49.099m0 0l-.169 2.21m0 0l-.501 2.143m0 0l-.819 2.011m0 0l-1.111 1.817m0 0l-1.369 1.57m0 0l-1.586 1.272m0 0l-1.755.939m0 0l-1.87.574m0 0l-1.93.192m0 0l-1.928-.192m0 0l-1.871-.574m0 0l-1.755-.939m0 0l-1.586-1.272m0 0l-1.369-1.57m0 0l-1.112-1.817m0 0l-.818-2.011m0 0l-.501-2.143m0 0l-.169-2.21m0 0V35.573M240.204 36.155a.946.946 0 11-1.891-.001.946.946 0 011.891.001z"/></g><g><path class="st1" d="M185.035 75.643h-22.671m0 0v22.672m0 0h22.671m0 0V75.643M180.878 86.979a7.179 7.179 0 11-14.358 0 7.178 7.178 0 017.179-7.18 7.178 7.178 0 017.179 7.18zM173.183 92.986l.449-1.233m0 0V90.44m0 0l-.449-1.232m0 0l.343-1.474m0 .001v-1.513m0-.001l-.343-1.472m0 0l.45-1.235m0 0V82.2m0 0l-.45-1.235m0 0l2.987 2.232m0 0v7.558m0 0l-2.987 2.231M176.432 90.755v-7.558m0 0h-.262m0 0v7.558m0 0h.262M176.956 90.755v-7.558m0 0h-.262m-.001 0v7.558m0 0h.262M171.668 86.135l-.086.891m.001 0l.227.022m-.001 0l.045-.477m0 0l1.142 1.383m0 0l.152-.126m0 0l-.53-.642m0 0l.082-.067m0 0l.611.74m0 0l.146-.121m0 0l-.611-.74m0 0l.097-.081m0 0l.497.602m0 0l.13-.108m0 0l-.496-.601m0 0l.097-.08m0 0l.343.415m0 0l.139-.116m0 0l-1.174-1.422M162.364 98.315V75.643m0 0h22.671m0 0v22.672m0 0h-22.671"/><g><path class="st1" d="M177.478 57.127h-15.114m0 0v18.516m0 0h15.114m0 0V57.127M162.364 56.561V27.465m0 0l.166-.401m0-.001l.4-.165m0 .001h13.982m0 0l.4.165m0-.001l.166.401m0 .001v29.096m0 0l-.166.4m0-.001l-.4.166m0 .001H162.93m0 0l-.4-.166m0-.001l-.166-.4M166.52 55.427V28.599M167.086 28.032h8.691M176.344 28.599v26.828M175.778 55.993h-8.691M166.52 28.599c0-.313.254-.566.566-.566M175.778 28.032c.312 0 .566.253.566.566M176.344 55.427a.567.567 0 01-.566.566M167.086 55.993a.567.567 0 01-.566-.566M170.264 42.013a.757.757 0 01-1.453.294l.028-.015.106-.279-.106-.281-.028-.015a.756.756 0 011.453.296zM164.63 42.957l1.585-.151m0 0l.36-.123m0 0l2-.251m0 0l.265-.14m0 0l.105-.279m0 0l-.105-.28m0 0l-.265-.14m0 0l-2-.25m0 0l-.36-.124m0 0l-1.585-.152m0 0l-.555.181m0 0l-.343.473m0 0v.584m0 0l.343.471m0 0l.555.181M165.572 41.499h.562M166.133 42.526h-.562M165.572 42.526v-1.027M166.133 41.499a.513.513 0 110 1.027M166.576 41.343a.797.797 0 010 1.34M166.52 55.427V42.702m0-1.378V28.599"/></g></g></g><g><path class="st1" d="M332.78 291.025v4.155M333.535 295.937h40.054M374.344 295.181v-4.156M373.588 290.269h-40.053M374.344 291.025v-32.874M374.344 258.151h-2.645M364.571 258.151h-2.268M332.78 259.284v29.852M333.914 290.269h28.389M363.437 289.136v-29.852M362.303 258.151h-28.39M372.832 259.284v29.852M371.7 290.269h-7.129M363.437 289.136v-29.852M364.571 258.151h7.129M367.542 289.136v-29.852M333.535 295.937a.755.755 0 01-.756-.756M374.344 295.181a.755.755 0 01-.756.756M373.588 290.269c.418 0 .756.339.756.756M332.78 291.025c0-.417.338-.756.756-.756M333.914 290.269a1.133 1.133 0 01-1.134-1.133M363.437 289.136c0 .626-.508 1.133-1.134 1.133M362.303 258.151c.626 0 1.134.508 1.134 1.134M332.78 259.284c0-.626.507-1.134 1.134-1.134M372.832 289.136c0 .626-.507 1.133-1.133 1.133M364.571 290.269a1.134 1.134 0 01-1.134-1.133M363.437 259.284c0-.626.508-1.134 1.134-1.134M371.7 258.151c.626 0 1.133.508 1.133 1.134M368.676 290.269a1.134 1.134 0 01-1.134-1.133M367.542 259.284c0-.626.508-1.134 1.134-1.134M374.344 258.151v-37.787M374.344 258.151h-2.645M374.344 220.364h-2.645M364.571 258.151h-2.268M364.571 220.364h-2.268M332.78 221.498v35.519M333.914 258.151h28.389M363.437 257.017v-35.519M362.303 220.364h-28.39M372.832 221.498v35.519M371.7 258.151h-7.129M363.437 257.017v-35.519M364.571 220.364h7.129M367.542 257.017v-35.519M333.914 258.151a1.133 1.133 0 01-1.134-1.134M363.437 257.017c0 .627-.508 1.134-1.134 1.134M362.303 220.364c.626 0 1.134.508 1.134 1.134M332.78 221.498c0-.626.507-1.134 1.134-1.134M372.832 257.017c0 .627-.507 1.134-1.133 1.134M364.571 258.151a1.134 1.134 0 01-1.134-1.134M363.437 221.498c0-.626.508-1.134 1.134-1.134M371.7 220.364c.626 0 1.133.508 1.133 1.134M368.676 258.151a1.134 1.134 0 01-1.134-1.134M367.542 221.498c0-.626.508-1.134 1.134-1.134M332.78 187.49v-4.156M333.535 182.578h40.054M374.344 183.334v4.156M373.588 188.246h-40.053M374.344 187.49v32.874M374.344 220.364h-2.645M364.571 220.364h-2.268M332.78 219.231V189.38M333.914 188.246h28.389M363.437 189.38v29.851M362.303 220.364h-28.39M372.832 219.231V189.38M371.7 188.246h-7.129M363.437 189.38v29.851M364.571 220.364h7.129M367.542 189.38v29.851M332.78 183.334c0-.417.338-.756.756-.756M373.588 182.578c.418 0 .756.339.756.756M374.344 187.49a.756.756 0 01-.756.756M333.535 188.246a.756.756 0 01-.756-.756M332.78 189.38c0-.626.507-1.134 1.134-1.134M362.303 188.246c.626 0 1.134.508 1.134 1.134M363.437 219.231c0 .626-.508 1.134-1.134 1.134M333.914 220.364a1.134 1.134 0 01-1.134-1.134M371.7 188.246c.626 0 1.133.508 1.133 1.134M363.437 189.38c0-.626.508-1.134 1.134-1.134M364.571 220.364a1.134 1.134 0 01-1.134-1.134M372.832 219.231c0 .626-.507 1.134-1.133 1.134M367.542 189.38c0-.626.508-1.134 1.134-1.134M368.676 220.364a1.134 1.134 0 01-1.134-1.134"/><g><path class="st1" d="M257.018 199.581h15.114m0 0v92.576m0 0h-15.114m0 0v-92.576M261.899 269.107h-1.02m0 0v-44.369m0-.001h1.02m0 0v44.369M260.88 259.646h-.832m-.001 0l-.567-.152m0 0l-.415-.415m0 0l-.152-.567m0 0v-22.699m0 0l.152-.567m0 0l.415-.415m0 0l.567-.152m0 0h.832m.001 0v24.967M262.197 269.107h-.298m0 0v-44.369m0-.001h.298m0 0v44.369"/></g></g><g><path class="st1" d="M246.06 209.179h-1.89m0 0v73.382m0 0h1.89m0 0v-73.382M208.274 209.179v36.691m0 0h26.45m0 0v-36.691m0 0h-26.45M208.274 245.87v36.69m0 0h26.45m0 0v-36.69m0 0h-26.45M208.274 282.561v9.597m0 0h37.786m0 0v-9.597m0 0h-1.889m-9.446 0h-26.451M208.274 199.581v9.598m0 0h26.451m9.446 0h1.889m0 0v-9.598m0 0h-37.786M244.17 245.87h-9.446m.001 0v41.488m0 0h9.446m-.001 0V245.87M244.17 245.87h-9.446m.001 0v-41.49m0 0h9.446m-.001 0v41.49"/></g></g><g id="walls"><path class="st3" d="M94.777 333.019h68.015M228.919 325.463v-16.249M228.919 333.019v-5.668M228.919 327.351v-1.889M162.792 325.463v-16.249M162.792 333.019v-5.668M162.792 327.351v-1.889M162.792 333.019h66.127M162.792 309.214h66.127M162.792 325.463h3.779M166.571 325.463v1.889M166.571 327.351h-3.779M200.579 327.351h-1.89M198.689 327.351v-1.889M198.689 325.463h1.89M166.571 326.407h32.118M166.571 325.463h32.118M198.689 327.351h-32.118M200.579 325.463h.944M201.523 325.463v.944M201.523 326.407h.944M202.468 326.407v.944M202.468 327.351h-1.889M228.919 327.351h-3.779M225.14 327.351v-.944M225.14 326.407h.945M226.085 326.407v-.944M226.085 325.463h2.834M225.14 327.351h-22.672M204.358 324.517h18.893M201.523 324.517h2.835M204.358 324.517v1.89M204.358 326.407h-2.835M201.523 326.407v-1.89M226.085 326.407h-2.834M223.251 326.407v-1.89M223.251 324.517h2.834M226.085 324.517v1.89M223.251 326.407h-18.894M204.358 324.517h18.893M204.358 325.463h18.893M162.792 327.351v-1.889M162.792 327.351v-1.889M162.792 333.019v-5.668M162.792 325.463v-16.249M228.919 327.351v-1.889M228.919 327.351v-1.889M228.919 333.019v-5.668M228.919 325.463v-16.249"/><g><path class="st3" d="M94.777 325.463v-16.249M94.777 333.019v-5.668M94.777 327.351v-1.889M28.651 325.463v-16.249M28.651 333.019v-5.668M28.651 327.351v-1.889M28.651 333.019h66.126M28.651 309.214h66.126M28.651 325.463h3.778M32.43 325.463v1.889M32.43 327.351h-3.778M59.825 327.351h-1.89M57.936 327.351v-1.889M57.936 325.463h1.889M32.43 326.407h25.506M32.43 325.463h25.506M57.936 327.351H32.429M59.825 325.463h.944M60.769 325.463v.944M60.769 326.407h.945M61.714 326.407v.944M61.714 327.351h-1.889M94.777 327.351h-3.779M90.998 327.351v-.944M90.998 326.407h.945M91.943 326.407v-.944M91.943 325.463h2.834M91.943 324.517L69.9 302.474M90.998 327.351H61.714M63.603 324.517H89.11M60.769 324.517h2.834M63.603 324.517v1.89M63.603 326.407h-2.834M60.769 326.407v-1.89M91.943 326.407h-2.834M89.109 326.407v-1.89M89.109 324.517h2.834M91.943 324.517v1.89M89.109 326.407H63.603M63.603 324.517H89.11M63.603 325.463H89.11M60.769 324.517a31.171 31.171 0 019.131-22.043M28.651 327.351v-1.889M28.651 327.351v-1.889M28.651 333.019v-5.668M28.651 325.463v-16.249M94.777 327.351v-1.889M94.777 327.351v-1.889M94.777 333.019v-5.668M94.777 325.463v-16.249"/><g><path class="st3" d="M107.057 375.719H16.371m0 0V333.02m0 0h90.687m-.001 0v42.699M17.126 333.019h89.176m0 0v41.943m0 0H17.126m0 0v-41.943"/></g></g><g><path class="st3" d="M319.605 325.463v-16.249M319.605 333.019v-5.668M319.605 327.351v-1.889M319.605 333.019h86.154M319.605 309.214h62.348M319.605 325.463h4.724M324.329 325.463v1.889M324.329 327.351h-4.724M398.201 327.351h-4.724M393.477 327.351v-1.889M393.477 325.463h4.724M400.091 327.351h-1.89M324.329 325.463h69.148M393.477 327.351h-69.148M319.605 327.351v-1.889M319.605 327.351v-1.889M319.605 333.019v-5.668M319.605 325.463v-16.249M398.201 177.907h-16.248M405.759 177.907h-5.668M400.091 177.907h-1.89M405.759 177.907v155.112M381.953 177.907v131.307M398.201 177.907v4.723M398.201 182.63h1.89M400.091 182.63v-4.723M400.091 325.463v-4.724M400.091 320.739h-1.89M398.201 320.739v4.724M400.091 327.351v-1.889M398.201 182.63v138.109M400.091 320.739V182.63M400.091 177.907h-1.89M400.091 177.907h-1.89M405.759 177.907h-5.668M398.201 177.907h-16.248"/><path class="st4" d="M398.201 262.393h1.89v5.133h-1.89zM398.201 219.035h1.89v5.133h-1.89z"/></g><g><path class="st5" d="M398.201 49.433h-16.248M405.759 49.433h-5.668M400.091 49.433h-1.89M398.201 132.563h-16.248M405.759 132.563h-5.668M400.091 132.563h-1.89M405.759 132.563v-83.13M381.953 132.563v-83.13M398.201 132.563v-3.778M398.201 128.785h1.89M400.091 128.785v3.778M400.091 77.773v1.889M400.091 79.662h-1.89M398.201 79.662v-1.889M399.146 128.785V79.662M398.201 128.785V79.662M400.091 79.662v49.123M398.201 77.773v-.944M398.201 76.829h.944M399.146 76.829v-.945M399.146 75.883h.944M400.091 75.883v1.891M400.091 49.433v3.778M400.091 53.212h-.945M399.146 53.212v-.944M399.146 52.267h-.945M398.201 52.267v-2.834M400.091 53.212v22.672M397.257 73.995V55.101M397.257 76.829v-2.834M397.257 73.995h1.889M399.146 73.995v2.834M399.146 76.829h-1.889M399.146 52.267v2.834M399.146 55.101h-1.889M397.257 55.101v-2.834M397.257 52.267h1.889M399.146 55.101v18.894M397.257 73.995V55.101M398.201 73.995V55.101M400.091 132.563h-1.89M400.091 132.563h-1.89M405.759 132.563h-5.668M398.201 132.563h-16.248M400.091 49.433h-1.89M400.091 49.433h-1.89M405.759 49.433h-5.668M398.201 49.433h-16.248"/></g><g><path class="st5" d="M32.332 42.95c-2.43 5.012-3.151 10.044-3.189 15.553"/><path class="st6" d="M32.373 42.853l-.59 1.378 36.354 15.782h.453l.001-1.511z"/><path class="st5" d="M91.85 156.67c-1.706-4.573-2.338-7.621-2.591-12.583"/><path class="st6" d="M91.878 156.746l29.272-12.658v-1.512h-.425l-29.361 12.745z"/><path class="st5" d="M200.626 156.636c-1.658-4.442-2.333-7.736-2.579-12.548"/><path class="st6" d="M200.667 156.746l29.271-12.658v-1.512h-.453l-29.418 12.783z"/><path class="st5" d="M47.291 175.512c-1.965 3.497-2.226 7.367-2.278 11.085"/><path transform="rotate(-66.566 59.923 181.715)" class="st6" d="M59.168 167.655h1.512v28.114h-1.512z"/><path class="st5" d="M214.23 88.827c1.494 4 2.079 6.858 2.295 11.051"/><path class="st6" d="M214.215 88.719l-25.803 11.159v1.511h.454l25.95-11.283z"/></g><path d="M246.111 173.083h10.958v39h-10.958v-39h0zM11.458 309.214h17.193v23.805H.5V58.502h28.642v1.511h.454v7.557H11.458v241.644h0zM73.427 58.502L73.428.5h9.069v67.07h-14.36v-7.557h.453v-1.511h4.837zM320.81.5h84.948v48.934h-23.805V11.458H320.81V.5h0zM162.415 60.876v42.025h-10.958V60.876h10.958zm-31.552 248.338l31.929.001v23.806H94.777v-23.806l36.086-.001h0zm115.248 0h-17.193v23.806h90.687v-23.806h-73.494 0zm159.647-131.307h-23.805v-45.344h23.805v45.344z" fill-rule="evenodd" clip-rule="evenodd" stroke="#000" stroke-miterlimit="3"/><path class="st0" d="M82.497.5v3.022h54.601v18.516H82.497v10.958h68.96v35.198h10.958V27.139h90.121l-.001 72.739h-36.01v1.511h-.454v1.512h39.487V11.458h65.252V.5H82.497zm170.039 10.958l-.001 12.658h-68.014V11.458h68.015zM150.511 212.103h.001v-68.016H121.15v-1.511h-.453v-1.511H198.5v1.511h-.453v1.511h-44.512v71.039h-6.471v-.001h-16.2v94.089h-3.023v-97.111h22.67zm106.558 97.111h-10.958V144.087h-16.173v-1.511h-.453v-1.511h16.626v.016c.931-.01 1.893-.016 2.891-.016v.001h8.067v168.148zM162.415 24.116V11.458h19.083v12.658h-19.083zm26.451 78.785h-26.45v-3.023h25.996v1.511h.453v1.512h.001zM23.172 67.57h3.023v41.565l56.302.001v31.93h7.215v1.511h-.453v1.511h-6.762v45.532l-9.826.001v-1.511h.454v-1.511l6.348-.001v-74.383c-11.78 0-23.507-.057-35.33-.057v11.337H11.457v-3.022H41.12l.001-8.315-17.95.001V67.57h.001zM11.458 189.62h34.008v-1.511h-.453v-1.511H11.458v3.022zM140.121 3.522h11.336v18.516h-11.336V3.522z"/><g><path class="st8" d="M83.543.701l-.95.84M90.973.701l-3.43 3.02M98.383.701l-3.43 3.02M26.293 70.751l-3.02 2.66M105.803.701l-3.42 3.02M26.293 77.281l-3.02 2.66M88.773 22.241l-6.18 5.45M113.233.701l-3.43 3.02M96.203 22.241l-12.44 10.96M26.293 83.821l-3.02 2.66M120.653.701l-3.43 3.02M103.623 22.241l-12.44 10.96M26.293 90.371l-3.02 2.66M128.083.701l-3.43 3.02M111.053 22.241l-12.45 10.96M26.293 96.901l-3.02 2.66M135.503.701l-3.43 3.02M118.463 22.241l-12.44 10.96M26.293 103.441l-3.02 2.66M142.913.701l-5.72 5.04M125.883 22.241l-12.44 10.96M14.153 120.671l-2.6 2.29M27.023 109.331l-3.44 3.03M150.343.701l-3.43 3.02M140.223 9.611l-3.03 2.67M133.313 22.241l-12.44 10.96M34.453 109.331l-3.44 3.03M21.583 120.671l-3.43 3.02M157.763.701l-6.21 5.47M140.223 16.151l-3.03 2.67M165.183.701l-13.63 12.01M29.003 120.671l-3.43 3.02M41.873 109.331l-3.44 3.03M140.733 22.241l-12.44 10.96M148.163 22.241l-12.45 10.96M44.243 113.781l-3.02 2.66M49.293 109.331l-3.44 3.03M36.423 120.671l-3.43 3.02M172.613.701l-21.06 18.55M180.033.701l-12.44 10.96M56.713 109.331l-3.45 3.04M44.243 120.321l-3.83 3.37M162.513 16.131l-19.37 17.07M187.453.701l-12.44 10.96M64.143 109.331l-3.47 3.06M162.513 22.671l-11.95 10.53M194.873.701l-13.28 11.7M162.513 29.211l-10.96 9.65M71.563 109.331l-3.48 3.07M168.063 24.321l-3.43 3.02M184.623 16.271l-3.03 2.67M202.293.701l-12.44 10.96M162.513 35.751l-10.96 9.65M78.983 109.331l-3.49 3.08M175.483 24.321l-3.43 3.02M209.723.701l-12.45 10.96M162.513 42.281l-10.96 9.66M82.593 112.691l-3.02 2.66M184.623 22.811l-5.15 4.53M217.143.701l-12.44 10.96M162.513 48.821l-10.96 9.66M82.593 119.231l-3.02 2.66M190.333 24.321l-3.43 3.02M224.563.701l-12.44 10.96M162.513 55.371l-10.96 9.65M82.593 125.771l-3.02 2.66M13.313 186.801l-1.76 1.55M197.753 24.321l-3.43 3.02M231.993.701l-12.44 10.96M82.593 132.311l-3.02 2.66M20.733 186.801l-3.43 3.02M162.513 61.901l-7.36 6.49M205.173 24.321l-3.42 3.02M239.403.701l-12.44 10.96M82.593 138.841l-3.02 2.66M28.153 186.801l-3.43 3.02M212.593 24.321l-3.43 3.02M246.823.701l-12.44 10.96M82.593 145.381l-3.02 2.66M35.573 186.801l-3.43 3.02M87.273 141.261l-3.44 3.03M220.013 24.321l-3.43 3.02M254.253.701l-12.44 10.96M82.593 151.921l-3.02 2.66M43.003 186.801l-3.43 3.02M227.443 24.321l-3.43 3.02M261.673.701l-12.44 10.96M82.593 158.461l-3.02 2.66M234.863 24.321l-3.43 3.02M269.103.701l-12.45 10.96M255.653 12.551l-3.02 2.66M82.593 165.001l-3.02 2.66M242.283 24.321l-3.42 3.02M276.523.701l-12.44 10.96M255.653 19.081l-3.02 2.66M82.593 171.541l-3.02 2.66M163.713 100.081l-1.2 1.05M249.713 24.321l-3.43 3.02M255.653 25.621l-3.02 2.66M82.593 178.071l-3.02 2.66M124.383 141.261l-3.13 2.76M171.133 100.081l-3.43 3.02M283.943.701l-12.44 10.96M255.653 32.161l-3.02 2.66M131.803 141.261l-3.44 3.03M82.593 184.611l-5.91 5.21M178.553 100.081l-3.43 3.02M291.363.701l-12.44 10.96M255.653 38.701l-3.02 2.66M139.223 141.261l-3.43 3.03M185.973 100.081l-3.43 3.02M298.783.701l-12.44 10.96M255.653 45.241l-3.02 2.66M146.653 141.261l-3.44 3.03M306.213.701l-12.45 10.96M255.653 51.771l-3.02 2.66M154.073 141.261l-3.46 3.05M313.633.701l-12.44 10.96M255.653 58.321l-3.02 2.66M153.633 148.191l-3.02 2.66M161.503 141.261l-3.44 3.03M320.913.831l-12.3 10.83M320.913 7.371l-4.87 4.29M168.923 141.261l-3.44 3.03M153.633 154.731l-3.02 2.66M255.653 64.851l-3.02 2.67M176.333 141.261l-3.44 3.03M153.633 161.261l-3.02 2.66M223.083 100.081l-3.43 3.02M255.653 71.391l-3.02 2.66M230.503 100.081l-3.43 3.02M153.633 167.801l-3.02 2.66M183.763 141.261l-3.44 3.03M255.653 77.931l-3.02 2.66M237.923 100.081l-3.42 3.02M153.633 174.341l-3.02 2.66M191.183 141.261l-3.44 3.03M255.653 84.461l-3.02 2.67M245.353 100.081l-3.43 3.02M198.603 141.261l-3.43 3.03M153.633 180.881l-3.02 2.66M255.653 91.011l-3.02 2.66M255.653 97.551l-6.31 5.55M153.633 187.421l-3.02 2.66M132.813 212.301l-4.87 4.29M153.633 193.961l-3.02 2.66M130.963 220.461l-3.02 2.66M153.633 200.491l-3.02 2.66M140.223 212.301l-3.42 3.02M130.963 227.001l-3.02 2.66M153.633 207.031l-3.02 2.66M147.653 212.301l-3.43 3.02M235.713 141.261l-3.44 3.03M130.963 233.541l-3.02 2.66M153.633 213.571l-2 1.76M130.963 240.081l-3.02 2.66M243.143 141.261l-3.44 3.03M130.963 246.621l-3.02 2.66M250.553 141.271l-4.34 3.82M130.963 253.161l-3.02 2.66M257.163 141.991l-10.95 9.64M130.963 259.701l-3.02 2.66M257.163 148.521l-10.95 9.65M130.963 266.231l-3.02 2.66M257.163 155.061l-10.95 9.64M130.963 272.771l-3.02 2.66M257.163 161.601l-10.95 9.64M130.963 279.311l-3.02 2.66M257.163 168.131l-10.95 9.65M130.963 285.851l-3.02 2.66M257.163 174.681l-10.95 9.64M130.963 292.391l-3.02 2.66M257.163 181.221l-10.95 9.64M130.963 298.931l-3.02 2.66M257.163 187.751l-10.95 9.65M130.963 305.461l-3.02 2.66M257.163 194.291l-10.95 9.64M257.163 200.831l-10.95 9.65M257.163 207.371l-10.95 9.64M257.163 213.911l-10.95 9.64M257.163 220.441l-10.95 9.65M257.163 226.981l-10.95 9.65M257.163 233.521l-10.95 9.65M257.163 240.061l-10.95 9.65M257.163 246.601l-10.95 9.64M257.163 253.131l-10.95 9.65M257.163 259.681l-10.95 9.64M257.163 266.221l-10.95 9.64M257.163 272.751l-10.95 9.65M257.163 279.291l-10.95 9.64M257.163 285.831l-10.95 9.65M257.163 292.371l-10.95 9.65M257.163 298.911l-10.95 9.64M257.163 305.441l-4.5 3.97"/></g><path class="st5" d="M82.497.5v3.022h54.601v18.516H82.497v10.958h68.96v35.198h10.958V27.139h90.121l-.001 72.739h-36.01v1.511h-.454v1.512h39.487V11.458h65.252V.5H82.497zm170.039 10.958l-.001 12.658h-68.014V11.458h68.015zM150.511 212.103h.001v-68.016H121.15v-1.511h-.453v-1.511H198.5v1.511h-.453v1.511h-44.512v71.039h-6.471v-.001h-16.2v94.089h-3.023v-97.111h22.67zm106.558 97.111h-10.958V144.087h-16.173v-1.511h-.453v-1.511h16.626v.016c.931-.01 1.893-.016 2.891-.016v.001h8.067v168.148zM162.415 24.116h19.083V11.458h-19.083v12.658zm26.451 78.785v-1.512h-.453v-1.511h-25.996v3.023h26.449zM23.172 67.57h3.023v41.565l56.302.001v31.93h7.215v1.511h-.453v1.511h-6.762v45.532l-9.826.001v-1.511h.454v-1.511l6.348-.001v-74.383c-11.78 0-23.507-.057-35.33-.057v11.337H11.457v-3.022H41.12l.001-8.315-17.95.001V67.57h.001zM11.458 189.62v-3.022h33.555v1.511h.453v1.511H11.458zM140.121 3.522v18.516h11.336V3.522h-11.336z"/></g><g id="sizes_4_"><path d="M341.573 173.681l3.961-5.281c.229-.302.407-.616.535-.941s.191-.629.191-.91v-.016c0-.453-.133-.805-.398-1.055s-.644-.375-1.133-.375c-.464 0-.839.137-1.125.41s-.461.66-.523 1.16v.008h-1.648v-.008c.094-.651.285-1.207.574-1.668s.663-.813 1.121-1.055.987-.363 1.586-.363c.677 0 1.255.116 1.734.348s.844.569 1.094 1.012.375.977.375 1.602v.008c0 .401-.083.82-.25 1.258s-.398.859-.695 1.266l-3.289 4.469h4.297v1.516h-6.406v-1.385zM351.229 174.778c-.474-.269-.835-.659-1.082-1.172s-.371-1.132-.371-1.855v-.008c0-.422.05-.864.148-1.328a7.568 7.568 0 01.641-1.82l2.469-4.891h1.719l-2.898 5.664.008-.281c.13-.245.32-.435.57-.57s.542-.203.875-.203c.589 0 1.094.133 1.516.398s.742.652.961 1.16.328 1.118.328 1.832v.008c0 .729-.124 1.354-.371 1.875s-.609.917-1.086 1.188-1.048.406-1.715.406-1.238-.134-1.712-.403zm2.879-1.597c.273-.313.41-.758.41-1.336v-.008c0-.636-.144-1.126-.43-1.473s-.695-.52-1.227-.52c-.474 0-.841.175-1.102.523s-.391.841-.391 1.477v.008c0 .578.137 1.022.41 1.332s.66.465 1.16.465c.507.001.897-.156 1.17-.468zM358.065 173.47h1.594v1.594l-1.594 1.578v-3.172zM362.671 174.329c-.55-.567-.824-1.359-.824-2.375v-5.164c0-1.021.276-1.813.828-2.379s1.356-.848 2.414-.848c1.063 0 1.868.281 2.418.844s.824 1.356.824 2.383v5.164c0 1.021-.276 1.813-.828 2.379s-1.356.848-2.414.848c-1.063 0-1.869-.284-2.418-.852zm3.664-1.105c.269-.294.402-.718.402-1.27v-5.164c0-.552-.133-.976-.398-1.27s-.683-.441-1.25-.441-.984.147-1.25.441-.398.718-.398 1.27v5.164c0 .552.134.976.402 1.27s.684.441 1.246.441.977-.147 1.246-.441zM222.797 165.753h-1.594v-9.625l-1.617.992v-1.648l1.617-1.078h1.594v11.359zM228.117 165.753h-1.594v-9.625l-1.617.992v-1.648l1.617-1.078h1.594v11.359zM230.539 164.159h1.594v1.594l-1.594 1.578v-3.172zM238.343 160.112l-.008.281c-.13.239-.327.415-.59.527s-.574.168-.934.168c-.542 0-1.019-.138-1.43-.414s-.73-.665-.957-1.168-.34-1.085-.34-1.746v-.008c0-.734.124-1.362.371-1.883s.609-.917 1.086-1.188 1.048-.406 1.715-.406 1.237.138 1.711.414.835.677 1.082 1.203.371 1.159.371 1.898v.008c0 .406-.052.84-.156 1.301a8.052 8.052 0 01-.539 1.578c-.031.07-.065.14-.102.207l-2.422 4.867h-1.719l2.861-5.639zm.075-.984c.273-.339.41-.815.41-1.43v-.008c0-.599-.137-1.063-.41-1.391s-.66-.492-1.16-.492c-.505 0-.895.164-1.168.492s-.41.794-.41 1.398v.008c0 .614.137 1.09.41 1.426s.663.504 1.168.504c.5.001.886-.168 1.16-.507z"/><g><path d="M102.17 305.06h-1.594v-9.625l-1.617.992v-1.648l1.617-1.078h1.594v11.359zM104.576 303.677l3.961-5.281c.229-.302.407-.616.535-.941s.191-.629.191-.91v-.016c0-.453-.133-.805-.398-1.055s-.644-.375-1.133-.375c-.464 0-.839.137-1.125.41s-.461.66-.523 1.16v.008h-1.648v-.008c.094-.651.285-1.207.574-1.668s.663-.813 1.121-1.055.987-.363 1.586-.363c.677 0 1.255.116 1.734.348s.844.569 1.094 1.012.375.977.375 1.602v.008c0 .401-.083.82-.25 1.258s-.398.859-.695 1.266l-3.289 4.469h4.297v1.516h-6.406v-1.385zM112.857 303.466h1.594v1.594l-1.594 1.578v-3.172zM116.467 303.677l3.961-5.281c.229-.302.407-.616.535-.941s.191-.629.191-.91v-.016c0-.453-.133-.805-.398-1.055s-.644-.375-1.133-.375c-.464 0-.839.137-1.125.41s-.461.66-.523 1.16v.008h-1.648v-.008c.094-.651.285-1.207.574-1.668s.663-.813 1.121-1.055.987-.363 1.586-.363c.677 0 1.255.116 1.734.348s.844.569 1.094 1.012.375.977.375 1.602v.008c0 .401-.083.82-.25 1.258s-.398.859-.695 1.266l-3.289 4.469h4.297v1.516h-6.406v-1.385z"/></g><g><path d="M178.368 38.215l3.813-8.227h1.641l-3.719 8.133h5.57v1.477h-7.305v-1.383zm4.898-3.555h1.555v6.688h-1.555V34.66zM187.469 39.746h1.594v1.594l-1.594 1.578v-3.172zM192.895 41.121c-.445-.224-.808-.55-1.086-.977s-.465-.94-.559-1.539v-.008h1.594v.008c.058.417.224.741.5.973s.636.348 1.078.348c.511 0 .905-.171 1.184-.512s.418-.821.418-1.441v-.953c0-.614-.14-1.093-.418-1.434s-.673-.512-1.184-.512c-.276 0-.542.078-.797.234s-.479.375-.672.656H191.5V29.98h5.789v1.516h-4.195v2.555a2.275 2.275 0 011.414-.508c.656 0 1.218.136 1.684.406s.82.667 1.063 1.188.363 1.148.363 1.883v.953c0 .734-.125 1.362-.375 1.883s-.614.918-1.094 1.191-1.055.41-1.727.41c-.573 0-1.081-.112-1.527-.336z"/></g><g><path d="M90.771 62.755l-.008.281c-.13.239-.327.415-.59.527s-.574.168-.934.168c-.542 0-1.019-.138-1.43-.414s-.73-.665-.957-1.168-.34-1.085-.34-1.746v-.008c0-.734.124-1.362.371-1.883s.609-.917 1.086-1.188 1.048-.406 1.715-.406 1.237.138 1.711.414.835.677 1.082 1.203.371 1.159.371 1.898v.008c0 .406-.052.84-.156 1.301a8.052 8.052 0 01-.539 1.578c-.031.07-.065.14-.102.207l-2.422 4.867H87.91l2.861-5.639zm.074-.984c.273-.339.41-.815.41-1.43v-.008c0-.599-.137-1.063-.41-1.391s-.66-.492-1.16-.492c-.505 0-.895.164-1.168.492s-.41.794-.41 1.398v.008c0 .614.137 1.09.41 1.426s.663.504 1.168.504c.5 0 .887-.169 1.16-.507zM94.802 66.802h1.594v1.594l-1.594 1.578v-3.172zM104.451 58.458l-2.938 9.938h-1.695l2.938-9.844h-2.891v1.633h-1.594v-3.148h6.18v1.421z"/></g><g><path d="M28.104 359.113l4.771-5.281c.276-.302.491-.616.646-.941.153-.325.23-.629.23-.91v-.016c0-.453-.16-.805-.48-1.055-.319-.25-.774-.375-1.364-.375-.559 0-1.011.137-1.355.41-.346.273-.556.66-.631 1.16v.008h-1.986v-.008c.113-.651.344-1.207.691-1.668a3.343 3.343 0 011.352-1.055c.552-.242 1.188-.363 1.91-.363.816 0 1.513.116 2.09.348s1.017.569 1.318 1.012c.301.442.451.977.451 1.602v.008c0 .401-.101.82-.301 1.258-.201.438-.48.859-.838 1.266l-3.963 4.469h5.177v1.516h-7.718v-1.385zM38.082 358.902h1.92v1.594l-1.92 1.578v-3.172zM44.464 360.223c-.628-.261-1.112-.629-1.454-1.105s-.514-1.03-.514-1.66v-.188c0-.567.172-1.102.514-1.602s.798-.878 1.369-1.133c-.483-.219-.87-.535-1.162-.949s-.438-.851-.438-1.309v-.273c0-.594.16-1.116.479-1.566.32-.45.772-.8 1.355-1.047.584-.247 1.262-.371 2.033-.371.772 0 1.45.124 2.033.371.584.247 1.036.597 1.355 1.047.32.45.48.973.48 1.566v.273c0 .469-.149.909-.447 1.32s-.691.724-1.182.938c.577.261 1.04.64 1.389 1.137s.522 1.03.522 1.598v.188c0 .63-.171 1.184-.513 1.66-.343.477-.827.845-1.455 1.105-.627.261-1.355.391-2.184.391s-1.552-.13-2.18-.391zm3.36-1.36c.339-.146.601-.351.786-.613a1.54 1.54 0 00.277-.91v-.109c0-.349-.093-.655-.277-.918-.186-.263-.447-.468-.786-.613s-.731-.219-1.177-.219-.838.073-1.177.219-.601.352-.785.617a1.567 1.567 0 00-.278.922v.117c0 .344.093.646.278.906.185.261.446.462.785.605s.731.215 1.177.215.838-.073 1.177-.219zm-.16-5.121c.295-.138.524-.335.688-.59s.244-.55.244-.883v-.109c0-.317-.081-.599-.244-.844s-.393-.434-.688-.566-.634-.199-1.017-.199-.722.066-1.017.199-.523.321-.687.566a1.493 1.493 0 00-.245.852v.117c0 .328.081.618.245.871.163.253.392.448.687.586s.634.207 1.017.207.722-.069 1.017-.207z"/></g></g></svg>