<svg version="1.1" id="_x32_34_1_" xmlns="http://www.w3.org/2000/svg" x="0" y="0" viewBox="0 0 268.904 290.746" xml:space="preserve"><style>.st0{fill-rule:evenodd;clip-rule:evenodd;fill:#fff}.st1,.st3{fill:none;stroke-miterlimit:3}.st1{fill-rule:evenodd;clip-rule:evenodd;stroke-linecap:round;stroke-linejoin:round;stroke:#999}.st3{stroke:#000}.st4,.st5,.st7{fill-rule:evenodd;clip-rule:evenodd}.st5,.st7{fill:none;stroke:#000;stroke-miterlimit:3}.st7{stroke:#666;stroke-width:.6;stroke-miterlimit:22.9256}</style><g id="fon"><path id="fon_2_" class="st0" d="M.506 15.662H268.41v274.502L.506 290.002z"/></g><g id="mebel_3_"><path class="st1" d="M34.137 115.432v-3.778M11.465 115.432h22.672M34.137 115.432v-3.778M11.465 115.432h22.672M34.137 183.448v-22.672m0 0H11.465m0 0v22.672m0 0h22.672M34.137 160.776v-22.672M11.465 160.776v-22.672M34.137 160.776H11.465M34.137 138.104H11.465M32.058 115.81v21.916m0 0H13.543m0 0V115.81m0 0h18.515M34.137 115.432v22.673M11.465 115.432v22.673M34.137 115.432H11.465M34.137 138.104H11.465M34.137 160.776v-22.672M11.465 160.776v-22.672M34.137 160.776H11.465M34.137 138.104H11.465M32.058 161.154v21.916m0 0H13.543m0 0v-21.916m0 0h18.515M20.778 172.112h-5.299M15.479 172.112v1.096M20.778 172.112v1.096M20.778 180.967h-5.299M15.479 179.871v1.096M20.778 179.871v1.096M20.652 165.866a2.74 2.74 0 11-5.479 0 2.74 2.74 0 015.479 0zM30.12 167.138a3.967 3.967 0 11-7.934 0 3.967 3.967 0 017.934 0z"/><path class="st1" d="M28.419 167.138a2.267 2.267 0 11-4.534 0 2.267 2.267 0 014.534 0zM20.743 176.539a2.646 2.646 0 11-5.291 0 2.646 2.646 0 015.291 0zM30.09 177.657a3.4 3.4 0 11-6.801-.001 3.4 3.4 0 016.801.001zM34.137 160.776v22.672M11.465 160.776v22.672M34.137 160.776H11.465M34.137 183.448H11.465M35.648 94.144v14.359M35.648 94.144c0-.417.338-.756.755-.756M36.403 109.259a.755.755 0 01-.755-.755M35.648 94.144c0-.417.338-.756.755-.756M36.403 109.259a.755.755 0 01-.755-.755M56.808 111.654H34.137M56.808 88.982v22.672M56.808 111.654H34.137M56.808 88.982v22.672M45.132 91.877h-8.729m0 0l-.868.173m0 0l-.735.491m0 0l-.492.736m.001 0l-.172.868m0 0v14.359m0 0l.172.867m0 0l.492.735m-.001 0l.735.492m0 0l.868.173m0 0H54.54m.001 0l.868-.173m0 0l.736-.492m-.001 0l.491-.735m0 0l.172-.867m0 0V94.145m0 0l-.172-.868m0 0l-.491-.736m0 0l-.736-.491m.001 0l-.868-.173m0 0h-8.728M45.132 93.389h-8.729M36.403 109.259h18.138M55.297 108.504V94.145M54.541 93.389h-8.707M55.297 108.504a.755.755 0 01-.756.755M54.541 93.389c.417 0 .756.339.756.756M47.173 97.545a1.7 1.7 0 11-3.401 0 1.7 1.7 0 013.401 0zM45.812 97.416l-.1.24m0 0l-.241.099m0 0l-.24-.101m0 0l-.099-.24m0 0v-7.476m0 0l.099-.241m0 0l.241-.098m0 0l.24.098m0 0l.1.241m0 0v7.478M46.226 91.865h-.414m0 0v-1.927m0 0l-.1-.241m0 0l-.24-.099m0 0l-.241.099m0 0l-.099.241m0 0v1.927m0 0h-.415m0 0v-2.456m0 0h1.509m0 0v2.456M46.217 93.225h-.404m0 0v-1.322m0 0h.404m0 0v1.322M44.728 93.225v-1.322m0 0h.404m0 0v1.322m0 0h-.404M56.808 111.654h15.115M56.808 88.982h15.115M56.808 111.654V88.982M56.808 111.654H79.48m0 0V88.982m0 0H56.808m0 0v22.672M68.144 96.54v7.557M65.472 97.646l5.344 5.344M64.365 100.318h7.558M65.472 102.99l5.344-5.344M45.132 93.389h-8.729M35.648 94.144v14.359M36.403 109.259h18.138M55.297 108.504V94.145M54.541 93.389h-8.635M55.297 108.504a.755.755 0 01-.756.755M54.541 93.389c.417 0 .756.339.756.756"/><path class="st1" d="M47.173 97.545a1.7 1.7 0 11-3.401 0 1.7 1.7 0 013.401 0zM45.812 97.416l-.1.24m0 0l-.241.099m0 0l-.24-.101m0 0l-.099-.24m0 0v-7.476m0 0l.099-.241m0 0l.241-.098m0 0l.24.098m0 0l.1.241m0 0v7.478M46.226 91.865h-.414m0 0v-1.927m0 0l-.1-.241m0 0l-.24-.099m0 0l-.241.099m0 0l-.099.241m0 0v1.927m0 0h-.415m0 0v-2.456m0 0h1.509m0 0v2.456M46.217 93.225h-.404v-1.322m0 0h.404m0 0v1.322M44.728 93.225v-1.322m0 0h.404m0 0v1.322m0 0h-.404M34.137 138.104v-22.672M11.465 138.104v-22.672M34.137 138.104H11.465M34.137 115.432H11.465"/><g><path class="st1" d="M18.305 132.53l.103-.047m.104-.048l.103-.047m.102-.046l.103-.047m.104-.047l.103-.048m.103-.047l.103-.048m.103-.047l.103-.047m.102-.047l.103-.047m.104-.047l.103-.047m.103-.048l.104-.047m.103-.047l.103-.047m.103-.047l.103-.047m.103-.047l.103-.047m.103-.048l.103-.047m.103-.047l.104-.047m.103-.047l.103-.047m.103-.048l.103-.047m.103-.047l.103-.047M18.305 132.53v-.078m0-.113v-.114m0-.113v-.113m0-.114v-.078m0 0l.052-.042m.087-.071l.088-.071m.088-.072l.088-.071m.088-.072l.089-.071m.087-.072l.089-.071m.088-.071l.088-.072m.088-.071l.088-.072m.088-.071l.088-.072m.088-.071l.088-.071m.088-.072l.088-.072m.087-.071l.088-.071m.089-.072l.088-.071m.088-.071l.088-.072m.088-.072l.088-.071m.088-.071l.088-.072m.088-.071l.088-.071m.088-.072l.088-.072m.088-.071l.088-.071m.088-.072l.088-.072m.087-.071l.088-.071m.089-.072l.088-.071m.088-.071l.088-.072m.088-.072l.051-.042M29.035 129.925a3.411 3.411 0 11-6.822 0 3.411 3.411 0 016.822 0z"/><path class="st1" d="M28.513 129.925a2.89 2.89 0 11-5.78 0 2.89 2.89 0 015.78 0z"/><g><path class="st1" d="M29.035 123.617a2.58 2.58 0 11-5.16-.001 2.58 2.58 0 015.16.001z"/><path class="st1" d="M27.901 123.617a1.445 1.445 0 11-2.89 0 1.445 1.445 0 012.89 0zM27.83 133.994v-.963m0 0h1.205m0 0v-12.524m0 0H27.83m0 0v-.964M18.305 122.896l.103.047m.104.048l.103.047m.102.047l.103.047m.104.047l.103.047m.103.047l.103.048m.103.047l.103.047m.102.047l.103.047m.104.047l.103.047m.103.048l.104.047m.103.047l.103.047m.103.047l.103.047m.103.047l.103.048m.103.047l.103.047m.103.047l.104.047m.103.047l.103.047m.103.047l.103.048m.103.047l.103.048M18.305 122.896v.078m0 .113v.114m0 .113v.113m0 .114v.078m0 0l.052.042m.087.071l.088.071m.088.072l.088.072m.088.071l.089.071m.087.072l.089.071m.088.071l.088.072m.088.072l.088.071m.088.071l.088.072m.088.071l.088.071m.088.072l.088.072m.087.071l.088.071m.089.072l.088.071m.088.072l.088.071m.088.072l.088.071m.088.071l.088.072m.088.071l.088.072m.088.071l.088.072m.088.071l.088.071m.088.072l.088.071m.087.072l.088.071m.089.072l.088.072m.088.07l.088.073m.088.071l.051.042"/></g><path class="st1" d="M17.826 122.896v9.634m0 0h.479m0 0v-.723m0 0h-.238m0 0v-8.188m0 0h.238m0 0v-.723m0 0h-.479"/></g><g><path class="st1" d="M90.222 139.586l-4.109-4.109m0 0l-.426-.407m0 0l-.43-.371m0 0l-.424-.328m0 0l-.403-.276m0 0l-.017-.009m0 0l-.375-.216m0 0l-.332-.147m0 0l-.025-.008m0 0l-.281-.075m0 .001l-.028-.004m0-.001l-.22.002m0 0l-.03.002m0 .001l-.029.007m0-.001l-.027.013m0 0l-.154.078m0 0l-.024.018m0 0l-.012.01m0 0l-1.133 1.134m0 .001l-1.03-1.029m0-.001l-5.217 5.217m11.115 11.116l5.217-5.218m0 0l-1.029-1.029m0 0l1.134-1.134m0 0l.011-.011m0 0l.017-.025m0 0l.078-.154m0 0l.013-.027m0 0l.008-.029m.001 0l.002-.029m-.001 0l.001-.221m0 0l-.003-.028m.001 0l-.075-.281m-.001 0l-.008-.025m0 0l-.148-.332m0 0l-.214-.376m0 0l-.011-.016m0 0l-.276-.404m0 0l-.328-.423m0 0l-.371-.429m0 0l-.407-.427M81.075 135.569l9.057 9.057M81.198 135.692l.897-.898M90.007 144.502l.898-.898M86.134 148.622l4.665-4.664M77.078 139.565l4.664-4.663M85.084 136.5l4.117 4.117M82.095 134.794c.354-.354 1.691.409 2.988 1.706M89.2 140.616c1.296 1.296 2.06 2.634 1.705 2.988M53.624 167.968l4.108 4.108m0 0l.427.408m0 0l.43.371m0 0l.423.328m0 0l.404.275m0 0l.016.011m0 0l.376.215m0 0l.332.147m0 0l.024.008m0 0l.281.075m0 0l.029.003m0 0l.22-.001m0 0l.03-.002m0 0l.028-.008m0 0l.027-.012m0 0l.154-.078m0 0l.025-.018m0 0l.011-.011m0 0l1.134-1.133m0 0l1.029 1.029m0 0l5.219-5.218m-11.117-11.114l-5.216 5.217m0 0l1.029 1.029m0 0l-1.135 1.134m0 0l-.01.011m0 0l-.017.025m0 0l-.078.153m0 0l-.013.027m0 0l-.008.03m0 0l-.002.029m0 0l-.001.221m0 0l.003.027m0 0l.074.282m0 0l.009.025m0 0l.147.332m0 0l.215.375m0 0l.01.016m0 0l.276.404m0 0l.329.424m0 0l.371.429m0 0l.407.427M62.771 171.986l-9.057-9.057M62.648 171.862l-.898.898M53.838 163.052l-.897.897M57.711 158.933l-4.664 4.663M66.768 167.988l-4.664 4.665M58.762 171.055l-4.117-4.117M61.75 172.76c-.354.354-1.692-.409-2.988-1.705M54.645 166.938c-1.296-1.296-2.06-2.634-1.705-2.988M57.732 135.477l-4.108 4.109m0 0l-.408.427m0 0l-.371.429m0 .001l-.329.423m0-.001l-.275.404m0 0l-.01.016m0 .001l-.216.376m0-.001l-.146.332m0 0l-.009.025m0 .001l-.074.281m0-.001l-.003.028m0 .001l.001.221m0-.001l.002.029m0 .001l.008.029m0-.001l.012.027m0 0l.078.154m0 0l.018.024m0 0l.01.012m0 0l1.134 1.133m0 0l-1.029 1.03m0 0l5.217 5.217m11.115-11.114l-5.218-5.217m0 0l-1.028 1.029m0 0l-1.135-1.134m0-.001l-.01-.01m0 0l-.026-.018m0 .001l-.153-.078m0-.001l-.027-.013m0 .001l-.029-.007m0 0l-.029-.002m0 0l-.221-.002m0 0l-.028.004m0 0l-.281.075m0-.001l-.025.008m0 .001l-.332.147m0-.001l-.376.215m0 .001l-.015.01m0-.001l-.405.276m0 .001l-.423.328m0 0l-.429.371m0 0l-.427.407M53.715 144.625l9.057-9.057M53.838 144.502l-.897-.898M62.648 135.692l-.898-.898M66.768 139.565l-4.664-4.663M57.711 148.621l-4.664-4.663M54.645 140.616l4.117-4.117M52.94 143.604c-.354-.354.409-1.692 1.705-2.988M58.761 136.499c1.297-1.296 2.635-2.059 2.988-1.705M86.113 172.077l4.109-4.108m0 0l.408-.427m0-.001l.371-.43m0 0l.328-.424m0 .001l.275-.403m0 0l.011-.017m0 0l.215-.375m0 0l.147-.332m0 0l.008-.024m0 0l.075-.282m0-.001l.003-.028m0 .001l-.001-.22m0 0l-.002-.03m0 0l-.008-.029m0-.001l-.012-.027m0 .001l-.078-.154m0 0l-.018-.024m0 0l-.011-.012m0 0l-1.133-1.133m0 0l1.029-1.03m0-.001l-5.218-5.218m-11.116 11.116l5.219 5.218m0 0l1.029-1.029m0-.001l1.134 1.134m0 .001l.011.011m0 0l.025.017m0 0l.153.078m0 0l.027.013m0 0l.03.008m0 0l.029.002m0 0l.221.001m0 0l.027-.003m0 0l.281-.075m0-.001l.026-.008m0 .001l.332-.148m0 0l.375-.214m0 0l.016-.011m0-.001l.404-.276m0 .001l.424-.328m0 0l.429-.371m0 0l.426-.407M90.132 162.929l-9.057 9.057M90.007 163.052l.898.897M81.198 171.862l.897.898M77.078 167.988l4.664 4.665M86.134 158.932l4.665 4.664M89.201 166.938l-4.117 4.117M90.906 163.95c.354.354-.409 1.691-1.705 2.987M85.084 171.054c-1.296 1.296-2.634 2.06-2.988 1.705M87.037 153.777c0 8.348-6.767 15.114-15.114 15.114-8.348 0-15.115-6.766-15.115-15.114 0-8.347 6.767-15.114 15.115-15.114 8.347 0 15.114 6.767 15.114 15.114z"/></g><g><path class="st1" d="M13.354 199.655h1.7m0 0v48.82m0 0h-1.7m0 0v-48.82M47.362 224.065v24.41m0 0H23.556m0-24.41h23.806M47.362 248.475v9.598m0 0H13.354m0 0v-9.598m0 0h1.7m8.502 0h23.806M47.362 199.655v24.41m0 0H23.556m0-24.41h23.806M47.362 190.057v9.598m0 0H23.556m-8.502 0h-1.7m0 0v-9.598m0 0h34.008M15.054 224.065h8.502m0 0v29.209m0 0h-8.502m0 0v-29.209M15.054 224.065h8.502m0 0v-29.209m0 0h-8.502m0 0v29.209"/></g><g><path class="st1" d="M79.48 85.96H11.465M29.98 51.574a7.179 7.179 0 11-14.358 0 7.179 7.179 0 1114.358 0zM11.465 62.91v23.05m0 0H79.48m0 0V63.288m0 0H34.137m0 0v-.378m0 0H11.465M79.48 74.624v-.756m0 0H11.465m0 0v.756m0 0H79.48M65.731 83.529V64.902m0 0h-.755m0 0v18.627m0 0h.755M63.727 83.529V64.902m0 0h-.756m0 0v18.627m0 0h.756M61.722 83.529V64.902m0 0h-.755m0 0v18.627m0 0h.755M59.717 83.529V64.902m0 0h-.756m0 0v18.627m0 0h.756M55.472 83.393l2.241-18.491m0 0l-.75-.091m0 0l-2.241 18.491m0 0l.75.091M22.285 57.582l.449-1.233m0 0v-1.312m0 0l-.449-1.233m0 0l.342-1.474m-.001 0v-1.513m0 0l-.342-1.472m.001 0l.45-1.235m-.001 0v-1.314m0 0l-.45-1.235m.001 0l2.988 2.232m0 0v7.558m0 0l-2.988 2.231M25.534 55.35v-7.558m0 0h-.261m0 0v7.558m0 0h.261M26.056 55.35v-7.558m0 0h-.261m.001 0v7.558m0 0h.261M20.769 50.73l-.085.891m0 0l.226.021m0 0l.045-.476m0 0l1.143 1.383m0 0l.152-.126m0 0l-.53-.641m0 0l.081-.068m0 0l.611.74m0 0l.146-.12m0 0l-.61-.741m0 0l.097-.08m0 0l.496.602m0 0l.131-.108m0 0l-.497-.601m0 0l.097-.081m0 0l.343.415m0 0l.139-.115m0 0l-1.174-1.423M11.465 62.91V40.238m0 0h22.672m0 0V62.91m0 0H11.465"/></g><g><path class="st1" d="M132.717 201.881h1.02m0 0v44.369m0 0h-1.02m0 0v-44.369M133.736 211.582h.832m0 0l.566.152m0 0l.415.414m0 0l.153.567m0 0v22.699m0 0l-.153.567m0 0l-.415.415m0 0l-.566.152m0 0h-.832m0 0v-24.966M132.419 201.881h.298m0 0v44.369m0 0h-.298m0 0v-44.369M118.778 190.057h17.192m0 0v76.331m0 0h-17.192m0 0v-76.331"/></g><g><path class="st1" d="M251.786 242.81a3.78 3.78 0 11-7.558 0 3.78 3.78 0 017.558 0z"/><path class="st1" d="M249.14 242.81a1.134 1.134 0 11-2.267 0 1.134 1.134 0 012.267 0zM251.786 154.013a3.78 3.78 0 11-7.558 0 3.78 3.78 0 017.558 0z"/><path class="st1" d="M249.14 154.013a1.134 1.134 0 11-2.269 0 1.134 1.134 0 012.269 0zM178.102 232.42v-68.016m0 0h75.572m0 0v68.016m0 0h-75.572M176.213 230.53v-64.236m0 0l.144-.724m0 0l.41-.612m0 0l.612-.409m0 0l.724-.145m0 0v68.016m0 0l-.724-.145m0 0l-.612-.409m0 0l-.41-.612m0 0l-.144-.724M257.453 232.42v-68.016m0 0h-3.778m0 0v68.016m0 0h3.778M257.453 164.404v68.016m0 0h-1.889m0 0v-68.016m0 0h1.889M257.453 162.514v-17.003m0 0H238.56m0 0v17.003m0 0h18.893M257.453 234.308v17.004m0 0H238.56m0 0v-17.004m0 0h18.893M251.786 192.366v-25.694m0 0l-.111-.268m0 0l-.267-.11m0 0h-12.47m0 0l-.267.11m0 0l-.111.268m0 0v25.694m0 0l.111.268m0 0l.267.11m0 0h12.47m0 0l.267-.11m0 0l.111-.268M251.786 204.458v25.694m0 0l-.111.268m0 0l-.267.11m0 0h-12.47m0 0l-.267-.11m0 0l-.111-.268m0 0v-25.694m0 0l.111-.268m0 0l.267-.11m0 0h12.47m0 0l.267.11m0 0l.111.268M239.584 232.42v-1.89M239.584 204.08v-11.336M239.584 166.294v-1.89M234.574 232.42v-68.016m0 0h-18.686m0 0l14.908 68.016m0 0h3.778M248.867 246.49l-.86-3.68m0 0l-3.431-1.583m0 0l3.431 1.583m0 0l3.546-1.305M248.867 150.334l-.86 3.679m0 0l-3.431 1.584m0 0l3.431-1.584m0 0l3.546 1.306"/></g><g><path class="st1" d="M138.993 94.084h118.46M138.993 94.084v22.671m0 0h118.46m0 0V94.084m0 0h-118.46M257.453 105.797v-.756m0 0h-118.46m0 0v.756m0 0h118.46M147.092 96.076v18.627m0 0h.756m0 0V96.076m0 0h-.756M149.096 96.076v18.627m0 0h.756m0 0V96.076m0 0h-.756M151.101 96.076v18.627m0 0h.756m0 0V96.076m0 0h-.756M153.105 96.076v18.627m0 0h.756m0 0V96.076m0 0h-.756M157.351 96.212l-2.241 18.491m0 0l.75.091m0 0l2.241-18.491m.001 0l-.75-.091"/></g><g><path d="M256.174 91.06h0m-6.946 0h0m-6.948 0h0m-6.947 0h0m-6.947 0l2.617-2.617m-9.563 2.617l9.563-9.563m-16.511 9.563l16.511-16.511M207.545 91.06l23.458-23.458M200.599 91.06l30.404-30.404M193.652 91.06l34.007-34.008M186.705 91.06l34.008-34.008M179.758 91.06l34.008-34.008M172.811 91.06l34.008-34.008M165.864 91.06l34.008-34.008M158.917 91.06l34.008-34.008M151.97 91.06l35.579-35.579M145.024 91.06l42.525-42.525m-48.556 41.608l28.879-28.879m8.853-8.852l10.824-10.824m-48.556 41.608l25.464-25.463m11.618-11.618l5.499-5.499m-42.581 35.633l24.692-24.692m-24.692 17.745l25.512-25.51m-25.512 18.563l21.741-21.739m-21.741 14.793l14.793-14.793m-14.793 7.845l7.847-7.845m-7.847.898l.9-.898m91.11 18.101l-1.664-1.664m27.062 34.007h0m-25.398-25.397l-8.611-8.61m27.061 34.007h0m-18.45-18.449l-15.558-15.558m27.062 34.007h0m-11.504-11.503l-22.505-22.504M235.56 91.06h0m-4.557-4.556l-29.452-29.451m-14.002-14.002l-2.434-2.434m43.497 50.443l-34.008-34.008m-7.055-7.055l-9.381-9.381m43.498 50.444l-45.667-45.666m38.72 45.666l-37.971-37.97m-11.962-11.963l-.511-.511m43.498 50.444l-32.349-32.348m-11.301-11.3l-6.796-6.796m43.498 50.444L171.38 61.615m-7.819-7.818L150.38 40.616m43.498 50.444l-50.444-50.444m43.498 50.444l-47.939-47.938m40.992 47.938l-40.992-40.99m34.044 40.99l-34.044-34.044m27.098 34.044l-27.098-27.097m20.151 27.097l-20.151-20.149m13.203 20.149l-13.203-13.203m6.257 13.203l-6.257-6.256" fill-rule="evenodd" clip-rule="evenodd" fill="none" stroke="#999" stroke-width=".4" stroke-linecap="round" stroke-linejoin="round" stroke-miterlimit="3"/><path class="st1" d="M163.765 55.607l.468 1.645m0 0l.719 1.552m.001 0l.967 1.23m-.001 0l1.249.943m0 0l1.448.593m0 0l1.55.206m.001 0l1.551-.206m-.001 0l1.448-.593m0 0l1.248-.943m0 0l.968-1.23m.001 0l.719-1.552m-.001 0l.469-1.645m.001 0l.207-1.697m-.001 0l-.059-1.709m0 0l-1.223-11.585m.001 0H164.84m-.001 0l-1.222 11.585m0 0l-.06 1.709m0 0l.208 1.697M174.283 46.338h-4.116M170.167 46.338h-4.116M173.23 60.604a5.742 5.742 0 01-3.063.886M176.479 53.774c.165 2.592-1.03 5.107-3.248 6.83M174.283 46.338c1.506 2.252 2.267 4.827 2.195 7.437M163.855 53.774c-.07-2.609.689-5.185 2.195-7.437M167.103 60.604c-2.217-1.723-3.413-4.238-3.248-6.83M170.167 61.49a5.734 5.734 0 01-3.063-.886M165.519 40.616h9.295v.189h-9.295zM174.814 40.616h-9.295m0 0v.188m0 0h9.295m0 0v-.188M160.721 40.616h18.893M160.721 36.082h18.893M160.721 40.616v-4.534M179.614 40.616v-4.534M188.115 40.427h42.321m0 0l.401.166m0-.001l.166.401m0 .001v15.493m0 0l-.166.4m0 0l-.401.166m0 0h-42.321m0 0l-.4-.166m0 0l-.166-.4m0 0V40.994m0 0l.166-.401m0-.001l.4-.166M210.031 47.984a.751.751 0 01-.302.604v-1.209a.754.754 0 01.302.605zm-1.209.604a.755.755 0 010-1.208v1.208zM209.729 40.956h-.907m0 0v7.748m0 0l.257.301m0 0h.394m.001 0l.256-.301m-.001 0v-7.748M208.52 40.691h1.511v.265h-1.511zM208.521 40.956h1.511m-.001 0v-.265m0 0h-1.511m.001 0v.265"/><path class="st1" d="M208.142 40.427h2.267v.265h-2.267zM208.142 40.691h2.267m.001 0v-.265m0 0h-2.267m-.001 0v.265M206.008 42.316v-1.625m0 0h.094m0 0v-.132m0 0h.284m0 0v-.133m0 0h-1.89m0 0v.133m0 0h.283m0 0v.132m0 0h.095m0 0v1.625m0 0h.322m0 0v.416m0 0h-1.078m0 0v.49m0 0h2.646m0 0v-.49m0 0h-1.077m0 0v-.416m0 0h.321M212.545 42.316v-1.625m0 0h-.095m0 0v-.132m0 0h-.283m0 0v-.133m0 0h1.889m0 0v.133m0 0h-.283m0 0v.132m0 0h-.095m0 0v1.625m0 0h-.321m0 0v.416m0 0h1.077m0 0v.49m0 0h-2.645m0 0v-.49m0 0h1.077m0 0v-.416m0 0h-.321M205.195 42.732l.072.071M205.686 42.732l-.072.071M205.195 42.316h.491M204.874 40.691h1.134M206.101 40.559h-1.322M213.356 42.732l-.071.071M212.866 42.732l.071.071M213.356 42.316h-.49M213.678 40.691h-1.133M212.45 40.559h1.322M205.686 42.977c0 .136-.11.245-.246.245a.244.244 0 01-.245-.245c0-.136.109-.245.245-.245s.246.109.246.245zM213.356 42.977a.244.244 0 01-.245.245.244.244 0 01-.245-.245c0-.136.109-.245.245-.245s.245.109.245.245zM189.249 44.584h40.054M229.869 45.15v10.202M229.303 55.92h-40.054M188.683 55.352V45.15M229.303 44.584c.313 0 .566.254.566.566M229.869 55.352a.566.566 0 01-.566.567M189.249 55.92a.567.567 0 01-.566-.567M188.683 45.15c0-.312.254-.566.566-.566M210.031 47.984a.751.751 0 01-.302.604v-1.209a.754.754 0 01.302.605zm-1.209.604a.755.755 0 010-1.208v1.208zM189.249 44.584h19.573m.907 0h19.574M257.453 24.746V91.06m0 0h-26.45m0 0V24.746m0 0h26.45M245.173 33.814a.944.944 0 11-1.889 0 .944.944 0 011.889 0zM233.119 32.482l.08-.959m0 0l.239-.931m0 0l.39-.873m0 0l.528-.789m0 0l.653-.681m0 0l.756-.552m0 0l.834-.407m0 0l.891-.25m0 0l.919-.084m0 0h11.639m0 0l.918.084m0 0l.89.25m0 0l.836.407m0 0l.756.552m0 0l.651.681m0 0l.53.789m0 0l.389.873m0 0l.239.931m0 0l.081.959m0 0v44.763m0 0l-.169 2.015m0 0l-.501 1.953m0 0l-.819 1.834m0 0l-1.111 1.658m0 0l-1.369 1.429m0 0l-1.586 1.161m0 0l-1.756.855m0 0l-1.87.523m0 0l-1.929.176m0 0l-1.929-.176m0 0l-1.87-.523m0 0l-1.755-.855m0 0l-1.586-1.161m0 0l-1.369-1.429m0 0l-1.112-1.658m0 0l-.818-1.834m0 0l-.501-1.953m0 0l-.169-2.015m0 0V32.482"/></g></g><g id="walls"><path class="st3" d="M157.124 282.69v-16.249M157.124 290.246v-5.668M157.124 284.578v-1.889M240.253 282.69v-16.249M240.253 290.246v-5.668M240.253 284.578v-1.889M240.253 290.246h-83.129M240.253 266.441h-83.129M240.253 282.69h-3.778M236.475 282.69v1.889M236.475 284.578h3.778M185.464 284.578h1.89M187.353 284.578v-1.889M187.353 282.69h-1.89M236.475 283.634h-49.122M236.475 282.69h-49.122M187.353 284.578h49.122M185.464 282.69h-.944M184.519 282.69v.944M184.519 283.634h-.945M183.574 283.634v.944M183.574 284.578h1.89M157.124 284.578h3.778M160.902 284.578v-.944M160.902 283.634h-.944M159.958 283.634v-.944M159.958 282.69h-2.834M160.902 284.578h22.672M181.685 281.744h-18.894M184.519 281.744h-2.834M181.685 281.744v1.89M181.685 283.634h2.834M184.519 283.634v-1.89M159.958 283.634h2.834M162.792 283.634v-1.89M162.792 281.744h-2.834M159.958 281.744v1.89M162.792 283.634h18.894M181.685 281.744h-18.894M181.685 282.69h-18.894M240.253 284.578v-1.889M240.253 284.578v-1.889M240.253 290.246v-5.668M240.253 282.69v-16.249M157.124 284.578v-1.889M157.124 284.578v-1.889M157.124 290.246v-5.668M157.124 282.69v-16.249"/><g><path class="st3" d="M28.651 282.69v-16.249M28.651 290.246v-5.668M28.651 284.578v-1.889M111.78 282.69v-16.249M111.78 290.246v-5.668M111.78 284.578v-1.889M111.78 290.246H28.651M111.78 266.441H28.651M111.78 282.69h-3.778M108.002 282.69v1.889M108.002 284.578h3.778M56.99 284.578h1.89M58.88 284.578v-1.889M58.88 282.69h-1.891M108.002 283.634H58.88M108.002 282.69H58.88M58.88 284.578h49.121M56.99 282.69h-.945M56.045 282.69v.944M56.045 283.634h-.944M55.101 283.634v.944M55.101 284.578h1.889M28.651 284.578h3.778M32.429 284.578v-.944M32.429 283.634h-.945M31.484 283.634v-.944M31.484 282.69h-2.833M32.429 284.578h22.672M53.211 281.744H34.319M56.045 281.744h-2.833M53.211 281.744v1.89M53.211 283.634h2.834M56.045 283.634v-1.89M31.484 283.634h2.834M34.319 283.634v-1.89M34.319 281.744h-2.835M31.484 281.744v1.89M34.319 283.634h18.892M53.211 281.744H34.319M53.211 282.69H34.319M111.78 284.578v-1.889M111.78 284.578v-1.889M111.78 290.246v-5.668M111.78 282.69v-16.249M28.651 284.578v-1.889M28.651 284.578v-1.889M28.651 290.246v-5.668M28.651 282.69v-16.249"/></g><g><path class="st3" d="M52.597.175c-2.093 5.612-2.901 9.672-3.202 15.555"/><path class="st4" d="M52.636.071l-.6 1.387 36.208 15.658.6.025v-1.412z"/><path class="st5" d="M150.043 58.923c-3.787-1.59-6.973-2.096-11.057-2.272"/><path class="st4" d="M150.145 58.961l-1.388-.6-11.283 25.949v.453l1.512.001z"/><path class="st5" d="M151.55 150.573c-4.462 1.665-7.729 2.337-12.564 2.584"/><path class="st4" d="M151.644 150.538l-12.658-29.272h-1.512v.453l12.783 29.419z"/><path d="M268.404 290.246h-28.151V266.44h17.193V24.797H92.72v0h-4.33V17.24h.454v-1.511h179.559v274.517h.001zM49.396 17.24h.453v7.557H11.458V266.44H28.65v23.806H.5V15.729h48.896v1.511h0zm107.728 273.006V266.44H111.78v23.806h45.344z" fill-rule="evenodd" clip-rule="evenodd" stroke="#000" stroke-miterlimit="3"/><path class="st0" d="M138.985 121.266h-1.511v.453h-1.511V84.31h1.511v.453h1.511v4.838h118.46v3.023h-118.46v28.642zm88.989-96.023h3.022v15.426h-92.01v15.983h-1.511v.453h-1.511V24.797h3.022v12.848h21.35V24.797h3.022v12.848h64.616V25.243zm-92.01 127.461v113.737h3.022V153.157h-1.511v-.453h-1.511zM11.458 86.011h68.015v3.023H11.458v-3.023zm0-45.721v-4.157h18.515V24.797h4.156V40.29H11.458z"/><g><path class="st7" d="M14.044 36.071l-2.41 2.12M34.304 24.761l-4.16 3.67M21.464 36.071l-4.71 4.15M34.304 31.311l-4.16 3.66M28.894 36.071l-4.72 4.16M34.304 37.841l-2.71 2.39M16.804 85.951l-3.43 3.02M24.224 85.951l-3.43 3.02M31.644 85.951l-3.43 3.02M39.074 85.951l-3.43 3.02M46.494 85.951l-3.43 3.02M53.914 85.951l-3.43 3.02M61.334 85.951l-3.43 3.02M68.764 85.951l-3.43 3.02M138.254 24.731l-2.12 1.87M139.164 30.471l-3.03 2.67M76.184 85.951l-3.43 3.02M139.164 37.001l-3.03 2.67M145.934 37.581l-3.43 3.02M139.164 43.541l-3.03 2.67M163.534 28.611l-3.02 2.66M153.354 37.581l-3.43 3.02M139.164 50.081l-3.03 2.67M163.534 35.161l-6.18 5.44M168.204 37.581l-3.43 3.02M175.624 37.581l-3.43 3.02M183.044 37.581l-3.43 3.02M190.474 37.581l-3.43 3.02M137.494 84.251l-1.36 1.2M139.164 89.311l-3.03 2.67M197.894 37.581l-3.43 3.02M146.324 89.541l-3.42 3.02M205.314 37.581l-3.43 3.02M139.164 95.851l-3.03 2.67M153.754 89.541l-3.43 3.02M212.734 37.581l-3.43 3.02M139.164 102.391l-3.03 2.67M220.164 37.581l-3.43 3.02M161.174 89.541l-3.42 3.02M231.174 27.881l-3.03 2.67M139.164 108.931l-3.03 2.67M227.574 37.581l-3.42 3.02M168.594 89.541l-3.43 3.02M231.174 34.411l-3.03 2.67M139.164 115.471l-3.03 2.67M176.014 89.541l-3.43 3.02M183.434 89.541l-3.42 3.02M190.864 89.541l-3.43 3.02M198.284 89.541l-3.42 3.02M205.704 89.541l-3.42 3.02M213.134 89.541l-3.43 3.02M139.164 154.701l-3.03 2.67M220.544 89.541l-3.42 3.02M139.164 161.231l-3.03 2.67M227.974 89.541l-3.43 3.02M139.164 167.781l-3.03 2.67M235.394 89.541l-3.43 3.02M139.164 174.311l-3.03 2.67M242.814 89.541l-3.42 3.02M139.164 180.851l-3.03 2.67M250.244 89.541l-3.43 3.02M139.164 187.391l-3.03 2.67M257.624 89.571l-3.39 2.99M139.164 193.921l-3.03 2.67M139.164 200.471l-3.03 2.67M139.164 207.001l-3.03 2.67M139.164 213.541l-3.03 2.67M139.164 220.081l-3.03 2.67M139.164 226.621l-3.03 2.67M139.164 233.161l-3.03 2.67M139.164 239.691l-3.03 2.67M139.164 246.231l-3.03 2.67M139.164 252.771l-3.03 2.67M139.164 259.311l-3.03 2.67M139.164 265.851l-.6.53"/></g><path d="M138.985 121.266h-1.511v.453h-1.511V84.31h1.511v.453h1.511v4.838h118.46v3.023h-118.46v28.642h0zm88.989-96.023h3.022v15.426h-92.01v15.983h-1.511v.453h-1.511V24.797h3.022v12.848h21.35V24.797h3.022v12.848h64.616V25.243h0zm-92.01 127.461v113.737h3.022V153.157h-1.511v-.453h-1.511 0zM11.458 86.011h68.015v3.023H11.458v-3.023h0zm0-45.721v-4.157h18.515V24.797h4.156V40.29H11.458z" fill-rule="evenodd" clip-rule="evenodd" fill="none" stroke="#000" stroke-miterlimit="22.926"/></g></g><g id="sizes_3_"><path d="M60.423 127.416h-1.125V117.01l-2.086 1.305v-1.18l1.617-1.078h1.594v11.359zM63.118 127.244a1.946 1.946 0 01-.844-.84c-.193-.367-.289-.812-.289-1.332v-.477h1.125v.477c0 .442.117.786.352 1.031s.565.367.992.367c.432 0 .768-.122 1.008-.367.239-.245.359-.591.359-1.039v-2.984c0-.442-.112-.786-.336-1.031-.224-.245-.542-.367-.953-.367-.417 0-.74.118-.969.355-.229.237-.344.571-.344 1.004h-.984v-5.984h4.617v1.047H63.36v3.18c.125-.208.311-.371.559-.488.247-.117.506-.176.777-.176.474 0 .879.097 1.215.289s.592.473.77.84c.177.367.266.812.266 1.332v2.984c0 .521-.098.966-.293 1.336s-.479.651-.852.844c-.373.192-.822.289-1.348.289-.521-.001-.966-.098-1.336-.29zM68.439 126.291h1.125v1.125l-1.125 1.109v-2.234zM70.9 124.76l2.484-8.695h1.172l-2.391 8.602h4.633v1.008H70.9v-.915zm3.961-4.024h1.086v6.688h-1.086v-6.688z"/><g><path d="M240.391 264.275h-1.125v-10.406l-2.086 1.305v-1.18l1.617-1.078h1.594v11.359zM241.797 261.619l2.484-8.695h1.172l-2.391 8.602h4.633v1.008h-5.898v-.915zm3.961-4.024h1.086v6.688h-1.086v-6.688zM248.797 263.15h1.125v1.125l-1.125 1.109v-2.234zM254.156 264.275h-1.125v-10.406l-2.086 1.305v-1.18l1.617-1.078h1.594v11.359z"/></g><g><path d="M214.155 82.216l2.484-8.695h1.172l-2.391 8.602h4.633v1.008h-5.898v-.915zm3.961-4.024h1.086v6.688h-1.086v-6.688zM221.155 83.747h1.125v1.125l-1.125 1.109v-2.234zM224.667 84.716c-.394-.183-.692-.446-.898-.793s-.309-.765-.309-1.254v-.945h1.156v.867c0 .281.058.522.172.723s.282.353.504.457.485.156.793.156c.453 0 .805-.128 1.055-.383s.375-.612.375-1.07V80.88c0-.442-.112-.785-.336-1.027s-.536-.363-.938-.363h-.805v-1.047h.805c.344 0 .61-.099.801-.297s.285-.477.285-.836v-1.602c0-.401-.108-.71-.324-.926s-.524-.324-.926-.324c-.271 0-.501.05-.691.148s-.336.242-.438.43-.152.414-.152.68v.945h-1.148v-.945c0-.489.098-.907.293-1.254s.48-.61.855-.793.828-.273 1.359-.273c.729 0 1.294.203 1.695.609s.602.979.602 1.719v1.594c0 .276-.086.556-.258.84s-.414.546-.727.785c.37.151.657.397.863.738s.309.743.309 1.207v1.594c0 .531-.101.984-.301 1.359s-.492.66-.875.855-.843.293-1.379.293c-.551 0-1.023-.091-1.417-.273z"/></g><g><path d="M40.483 37.328a1.946 1.946 0 01-.844-.84c-.193-.367-.289-.812-.289-1.332v-.477h1.125v.477c0 .442.117.786.352 1.031s.565.367.992.367c.432 0 .768-.122 1.008-.367.239-.245.359-.591.359-1.039v-2.984c0-.442-.112-.786-.336-1.031-.224-.245-.542-.367-.953-.367-.417 0-.74.118-.969.355-.229.237-.344.571-.344 1.004H39.6V26.14h4.617v1.047h-3.492v3.18c.125-.208.311-.371.559-.488.247-.117.506-.176.777-.176.474 0 .879.097 1.215.289s.592.473.77.84c.177.367.266.812.266 1.332v2.984c0 .521-.098.966-.293 1.336s-.479.651-.852.844c-.373.192-.822.289-1.348.289-.521 0-.966-.097-1.336-.289zM45.803 36.375h1.125V37.5l-1.125 1.109v-2.234zM48.327 36.586l2.891-4.883a8.709 8.709 0 00.75-1.594c.177-.516.266-.969.266-1.359v-.016c0-.526-.113-.935-.34-1.227s-.546-.438-.957-.438c-.474 0-.841.191-1.102.574-.261.383-.391.923-.391 1.621v.008h-1.18v-.008c0-.683.1-1.267.301-1.754.2-.487.495-.856.883-1.109s.853-.379 1.395-.379 1.006.106 1.395.32c.388.214.682.524.883.934.2.409.301.899.301 1.473v.008c0 .489-.093 1.032-.277 1.629a7.972 7.972 0 01-.801 1.762l-2.617 4.305h3.68V37.5h-5.078v-.914z"/></g></g></svg>