<svg version="1.1" id="_x32_37_1_" xmlns="http://www.w3.org/2000/svg" x="0" y="0" viewBox="0 0 348.561 161.592" xml:space="preserve"><style>.st0{fill-rule:evenodd;clip-rule:evenodd;fill:#fff}.st1,.st3{fill:none;stroke-miterlimit:3}.st1{fill-rule:evenodd;clip-rule:evenodd;stroke-linecap:round;stroke-linejoin:round;stroke:#999}.st3{stroke:#000}.st4,.st5,.st7{fill-rule:evenodd;clip-rule:evenodd}.st5,.st7{fill:none;stroke:#000;stroke-miterlimit:3}.st7{stroke:#666;stroke-width:.6;stroke-miterlimit:22.9256}</style><g id="fon"><path id="fon_2_" class="st0" d="M.308.392h330.951v160.603L.308 160.9z"/></g><g id="mebel"><path class="st1" d="M42.081 11.459v1.89m0 0h48.82m0 0v-1.89m0 0h-48.82M42.081 49.245h24.41m0 0v-26.45m0 0h-24.41m0 0v26.45M66.491 49.245h24.41m0 0v-26.45m0 0h-24.41m0 0v26.45M90.9 49.245h9.598m.001 0V11.459m0 0H90.9m0 0v1.89m0 9.445v26.451M32.483 49.245h9.598m0 0V22.793m0-9.445v-1.889m0 0h-9.598m0 0v37.786M66.491 13.348v9.446m0 .001h29.208m0 0v-9.446m0-.001H66.491M66.491 13.348v9.446m0 .001H37.282m0 0v-9.446m0-.001h29.209M46.086 83.064V64.17m0 0h37.787m0 0v18.894m0 0H46.086"/><g><path class="st1" d="M34.947 150.134V135.02m0 0h68.574m0 0v15.114m0 0H34.947M91.3 145.254v1.02m0 0H46.931m0 0v-1.02m0 0H91.3M81.839 146.273v.832m0 0l-.152.567m0 0l-.415.415m0 0l-.567.152m0 0H58.006m0 0l-.566-.152m0 0l-.415-.415m-.001 0l-.152-.567m.001 0v-.832m0 0h24.966M91.3 144.956v.298m0 0H46.931m0 0v-.298m0 0H91.3"/><g><path class="st1" d="M323.816 129.163v20.972M323.816 127.651v1.512M323.816 150.134h-83.508M240.308 150.134v-20.971M240.308 129.163v20.972m0 0h83.508m0 0v-20.972m0 0h-83.508M323.816 139.932v-.756m0 0h-83.508m0 0v.756m0 0h83.508M246.894 130.212v18.626m0 0h.756m0 0v-18.626m0 0h-.756M248.899 130.212v18.626m0 0h.756m0 0v-18.626m0 0h-.756M250.903 130.212v18.626m0 0h.756m0 0v-18.626m0 0h-.756M252.908 130.212v18.626m0 0h.755m0 0v-18.626m0 0h-.755M257.154 130.347l-2.241 18.491m0 0l.75.091m0 0l2.241-18.491m0 0l-.75-.091"/></g><g><path class="st1" d="M237.285 150.134v-20.972m0 .001H114.102m0 0v20.972m0-.001h123.183M114.102 139.365v.756m0 0h123.183m0 0v-.756m0 0H114.102M220.399 149.086V130.46m0 0h-.756m0 0v18.626m0 0h.756M218.394 149.086V130.46m0 0h-.756m0 0v18.626m0 0h.756M216.389 149.086V130.46m0 0h-.755m0 0v18.626m0 0h.755M214.385 149.086V130.46m0 0h-.756m0 0v18.626m0 0h.756M210.139 148.951l2.241-18.491m0 0l-.75-.091m0 0l-2.241 18.491m0 0l.75.091"/></g></g><g><path class="st1" d="M108.434 11.459h113.358m0 0v74.25m0 0h-22.671m0 0V34.131m0 0h-90.687m0 0V11.459M221.792 85.709v-3.022M221.792 11.459v71.228M135.923 32.052h-21.916m0 0V13.537m0 0h21.916m0 0v18.516M124.965 20.772v-5.299M124.965 15.473h-1.096M124.965 20.772h-1.096M116.111 20.772v-5.299M117.207 15.473h-1.096M117.207 20.772h-1.096M133.95 17.907a2.74 2.74 0 11-5.479 0 2.74 2.74 0 015.479 0zM133.907 26.145a3.968 3.968 0 11-7.935 0 3.968 3.968 0 017.935 0z"/><path class="st1" d="M132.207 26.145a2.267 2.267 0 11-4.535.001 2.267 2.267 0 014.535-.001zM123.183 18.092a2.646 2.646 0 11-5.293 0 2.646 2.646 0 015.293 0zM122.821 26.683a3.4 3.4 0 11-6.803-.001 3.4 3.4 0 016.803.001zM141.497 34.131h-33.063M141.497 11.459h-33.063M141.497 34.131V11.458M108.434 34.131V11.458M201.954 42.065v19.271m0 0l.222.535m0 0l.534.221m0 0h17.382m0 0l.534-.221m0 0l.222-.535m0 0V42.065m0 0l-.222-.534m0 0l-.534-.221m0 0H202.71m0 0l-.534.221m0 0l-.222.534M199.121 40.365v22.672M221.792 40.365v22.672M199.121 40.365h22.671M199.121 63.037h22.671M203.844 43.955v15.492M204.6 60.203h11.714M217.069 59.447v-7.002m0-1.488v-7.002M216.314 43.199H204.6M203.844 43.955h.141a.14.14 0 10-.282 0 .14.14 0 00.282 0h-.141zM204.6 60.203a.756.756 0 01-.756-.756M217.069 59.447a.755.755 0 01-.755.756M216.314 43.199c.417 0 .755.339.755.756M203.844 43.955c0-.417.338-.756.756-.756M212.237 51.361l-.24.101m0 0l-.099.24m0 0l.1.24m-.001 0l.241.099m.001 0h7.476m-.001 0l.24-.099m0 0l.1-.241m.001 0l-.1-.24m-.001 0l-.24-.1m0 0h-7.478M217.787 50.947v.414m0 0h1.927m0 0l.24.1m0 0l.1.24m0 0l-.1.241m0 0l-.24.099m0 0h-1.927m0 0v.415m0 0h2.456m0 0v-1.509m0 0h-2.456M216.427 50.957v.404m0 0h1.322m0 0v-.404m0 0h-1.322M216.427 52.445h1.322m0 0v-.404m0 0h-1.322m0 0v.404M141.497 34.131h22.671M141.497 11.459h22.671M141.497 34.131V11.458M164.168 34.131V11.458M199.121 63.037v22.672m0 0h22.671m0 0V63.037m0 0h-22.671M214.235 74.373h-7.557M213.129 71.701l-5.344 5.344M210.456 70.595v7.556M207.785 71.701l5.343 5.344M153.087 25.618a3.41 3.41 0 11-6.822 0 3.41 3.41 0 016.822 0z"/><path class="st1" d="M152.566 25.618a2.89 2.89 0 11-5.78 0 2.89 2.89 0 015.78 0zM158.564 26.45a2.58 2.58 0 11-5.16-.001 2.58 2.58 0 015.16.001z"/><path class="st1" d="M157.429 26.45a1.445 1.445 0 11-2.89 0 1.445 1.445 0 012.89 0zM169.496 21.334l1.233.449m0 0h1.312m0 0l1.233-.449m0 0l1.473.342m0 0h1.513m0 0l1.473-.342m0 0l1.235.45m0 0h1.314m0 0l1.234-.45m0 0l-2.231 2.987m0 0h-7.558m0 0l-2.231-2.987M171.728 24.583h7.557m0 0v-.262m0 0h-7.557m0 0v.262M171.728 25.106h7.557m0 0v-.262m0 0h-7.557m0 0v.262M176.347 19.819l-.891-.086m.001 0l-.021.227m-.001 0l.477.045m0 0l-1.384 1.142m0 0l.126.152m0 0l.642-.53m0 0l.067.081m0 0l-.739.612m0 0l.12.146m0 0l.74-.611m0 0l.08.097m.001 0l-.601.496m-.001 0l.107.131m0 0l.602-.497m.001 0l.08.098m-.001 0l-.414.343m0 0l.115.139m0 0l1.422-1.174M164.168 11.459h22.672m0 0v22.672m0 0h-22.672m0 0V11.459M145.607 27.825h.963m0 0v1.204m0 0h12.524m0 0v-1.204m0 0h.964M147.07 18.298l.047.104m.049.103l.047.104m.046.102l.047.104m.048.103l.048.103m.045.103l.048.103m.048.103l.047.103m.046.103l.047.104m.048.102l.047.104m.048.102l.047.104m.046.101l.047.104m.047.104l.048.103m.047.104l.047.102m.048.104l.047.102m.047.103l.046.103m.047.104l.048.102m.047.104l.047.103m.048.103l.048.103M156.705 18.298l-.047.104m-.047.103l-.048.104m-.047.102l-.047.104m-.047.103l-.047.103m-.047.103l-.047.103m-.048.103l-.047.103m-.047.103l-.047.104m-.048.102l-.047.104m-.046.102l-.048.104m-.047.101l-.047.104m-.047.104l-.047.103m-.048.104l-.047.102m-.047.104l-.047.102m-.047.103l-.047.103m-.047.104l-.048.102m-.047.104l-.047.103m-.047.103l-.047.103M147.07 18.298h.078m.113 0h.114m.113 0h.114m.114 0h.078m-.001 0l.042.052m.072.089l.072.088m.07.087l.071.088m.073.088l.071.089m.071.088l.071.088m.073.088l.071.088m.071.088l.071.087m.072.088l.071.089m.071.088l.072.088m.072.087l.072.088m.07.089l.072.088m.072.087l.071.088m.071.089l.071.088m.073.088l.072.088m.07.088l.072.088m.072.088l.071.088m.071.088l.072.088m.072.088l.071.088m.071.087l.071.088m.071.089l.071.088m.073.087l.072.089m.07.088l.072.088m.071.088l.042.052M156.705 18.298h-.078m-.113 0h-.114m-.113 0h-.113m-.114 0h-.078m0 0l-.042.052m-.071.089l-.071.088m-.072.087l-.071.088m-.072.088l-.071.089m-.072.088l-.071.088m-.072.088l-.071.088m-.071.088l-.072.087m-.071.088l-.072.089m-.071.088l-.072.088m-.071.087l-.071.088m-.072.089l-.071.088m-.072.087l-.071.088m-.072.089l-.071.088m-.072.088l-.071.088m-.072.088l-.071.088m-.071.088l-.072.088m-.071.088l-.072.088m-.072.088l-.071.088m-.071.087l-.071.088m-.072.089l-.071.088m-.072.087l-.072.089m-.071.088l-.071.088m-.071.088l-.042.052M156.705 17.82h-9.634m0 0v.479m0 0h.722m0 0v-.238m0 0h8.189m0 0v.238m0 0h.723m0 0v-.479"/></g><g><path class="st1" d="M179.35 58.313l-4.109-4.109m0 0l-.426-.407m0 0l-.43-.371m0 0l-.424-.328m0 0l-.403-.276m0 0l-.017-.009m0 0l-.375-.216m0 0l-.332-.147m0 0l-.025-.008m0 0l-.281-.075m0 0l-.028-.004m0 0l-.22.002m0 0l-.03.002m0 0l-.029.007m0 0l-.027.013m0 0l-.154.078m0 0l-.024.018m0 0l-.012.01m0 0l-1.133 1.134m0 0l-1.03-1.029m0 0l-5.217 5.217m11.115 11.116l5.217-5.218m0 0l-1.029-1.029m0 0l1.134-1.134m0 0l.011-.011m0 0l.017-.025m0 0l.078-.154m0 0l.013-.027m0 0l.008-.029m0 0l.002-.029m0 0l.001-.221m0 0l-.003-.028m0 0l-.075-.281m0 0l-.008-.025m0 0l-.148-.332m0 0l-.214-.376m0 0l-.011-.016m0 0l-.276-.404m0 0l-.328-.423m0 0l-.371-.429m0 0l-.407-.427M170.203 54.296l9.057 9.057M170.326 54.419l.897-.898M179.135 63.228l.898-.897M175.262 67.349l4.665-4.664M166.206 58.292l4.664-4.664M174.212 55.226l4.117 4.117M171.223 53.521c.354-.354 1.691.409 2.988 1.706M178.328 59.342c1.296 1.296 2.06 2.634 1.705 2.988M142.752 86.695l4.108 4.108m0 0l.427.408m0 0l.43.371m0 0l.423.328m0 0l.404.275m0 0l.016.011m0 0l.376.215m0 0l.332.147m0 0l.024.008m0 0l.281.075m0 0l.029.003m0 0l.22-.001m0 0l.03-.002m0 0l.028-.008m0 0l.027-.012m0 0l.154-.078m0 0l.025-.018m0 0l.011-.011m0 0l1.134-1.133m0 0l1.029 1.029m0 0l5.219-5.218m-11.117-11.114l-5.216 5.217m0 0l1.029 1.029m0 0l-1.135 1.134m0 0l-.01.011m0 0l-.017.025m0 0l-.078.153m0 0l-.013.027m0 0l-.008.03m0 0l-.002.029m0 0l-.001.221m0 0l.003.027m0 0l.074.282m0 0l.009.025m0 0l.147.332m0 0l.215.375m0 0l.01.016m0 0l.276.404m0 0l.329.424m0 0l.371.429m0 0l.407.427M151.899 90.713l-9.057-9.057M151.776 90.588l-.898.898M142.966 81.779l-.897.897M146.838 77.659l-4.663 4.664M155.896 86.715l-4.664 4.665M147.89 89.782l-4.117-4.117M150.878 91.487c-.354.354-1.692-.409-2.988-1.705M143.773 85.665c-1.296-1.296-2.06-2.634-1.705-2.988M146.86 54.204l-4.108 4.109m0 0l-.408.427m0 0l-.371.429m0 0l-.329.423m0 0l-.275.404m0 0l-.01.016m0 0l-.216.376m0 0l-.146.332m0 0l-.009.025m0 0l-.074.281m0 0l-.003.028m0 0l.001.221m0 0l.002.029m0 0l.008.029m0 0l.012.027m0 0l.078.154m0 0l.018.024m0 0l.01.012m0 0l1.134 1.133m0 0l-1.029 1.03m0 0l5.217 5.217m11.115-11.115l-5.218-5.217m0 0l-1.028 1.029m0 0l-1.135-1.134m0 0l-.01-.01m0 0l-.026-.018m0 0l-.153-.078m0 0l-.027-.013m0 0l-.029-.007m0 0l-.029-.002m0 0l-.221-.002m0 0l-.028.004m0 0l-.281.075m0 0l-.025.008m0 0l-.332.147m0 0l-.376.215m0 0l-.015.01m0 0l-.405.276m0 0l-.423.328m0 0l-.429.371m0 0l-.427.407M142.842 63.352l9.057-9.057M142.966 63.228l-.897-.897M151.776 54.419l-.898-.898M155.896 58.292l-4.664-4.664M146.838 67.348l-4.663-4.663M143.773 59.343l4.117-4.117M142.068 62.331c-.354-.354.409-1.692 1.705-2.988M147.889 55.226c1.297-1.296 2.635-2.059 2.988-1.705M175.241 90.803l4.109-4.108m0 0l.408-.427m0 0l.371-.43m0 0l.328-.424m0 0l.275-.403m0 0l.011-.017m0 0l.215-.375m0 0l.147-.332m0 0l.008-.024m0 0l.075-.282m0 0l.003-.028m0 0l-.001-.22m0 0l-.002-.03m0 0l-.008-.029m0 0l-.012-.027m0 0l-.078-.154m0 0l-.018-.024m0 0l-.011-.012m0 0l-1.133-1.133m0 0l1.029-1.03m0 0l-5.218-5.218m-11.116 11.116l5.219 5.218m0-.001l1.029-1.029m0 0l1.134 1.134m0 0l.011.011m0 0l.025.017m0 0l.153.078m0 0l.027.013m0 0l.03.008m0 0l.029.002m0 0l.221.001m0 0l.027-.003m0 0l.281-.075m0 0l.026-.008m0 0l.332-.148m0 0l.375-.214m0 0l.016-.011m0 0l.404-.276m0 0l.424-.328m0 0l.429-.371m0 0l.426-.407M179.259 81.656l-9.057 9.057M179.135 81.779l.898.897M170.326 90.588l.897.898M166.206 86.715l4.664 4.665M175.262 77.659l4.665 4.664M178.329 85.665l-4.117 4.117M180.034 82.676c.354.354-.409 1.691-1.705 2.987M174.212 89.781c-1.296 1.296-2.634 2.06-2.988 1.705M176.165 72.503c0 8.348-6.767 15.114-15.114 15.114-8.348 0-15.115-6.766-15.115-15.114 0-8.347 6.767-15.114 15.115-15.114 8.347 0 15.114 6.768 15.114 15.114z"/></g><g><path d="M263.046 82.686l4.09-4.09m30.106-30.107l.189-.189m-41.333 34.386l11.038-11.038m23.159-23.159l4.992-4.992m-46.135 39.189l17.984-17.985m16.212-16.212l11.434-11.435m-52.578 45.632l24.932-24.932m9.265-9.265l10.615-10.615m-51.758 44.812l31.878-31.879m2.318-2.318l10.508-10.508m11.986-11.986l3.338-3.339m-66.975 60.03l47.216-47.217m10.137-10.137l4.992-4.992m-65.841 58.894l49.8-49.8m3.398-3.398l5.697-5.697m-58.895 51.948l51.947-51.948M224.815 65.34l45-45.001m-45 38.054l31.876-31.877m.375-.374l5.803-5.803m-38.054 31.107l24.874-24.873m7.433-7.433l.189-.189m-32.496 25.547l17.926-17.925m14.381-14.381l.189-.189m-32.496 25.549l10.979-10.979m-10.979 4.032l4.033-4.033m66.439-6.025l-.208-.208m-1.076 5.873l-5.872-5.873m-1.894 5.053l-5.052-5.053m14.102 21.049l-3.968-3.968M279.42 25.522l-5.183-5.183m21.204 28.15l-10.406-10.405m-9.807-9.808l-7.937-7.937m21.202 28.15L276.134 36.13m-.439-.44l-15.351-15.351m-3.033-3.032l-.189-.189m24.425 31.371l-24.424-24.424M274.6 48.489l-21.916-21.916m14.969 21.916l-21.916-21.916m21.399 28.347l-28.347-28.347m28.347 35.294l-35.293-35.294m35.293 42.241l-42.321-42.32m42.321 49.267l-42.321-42.322m42.299 49.247l-42.299-42.3m35.352 42.3l-35.352-35.353m28.405 35.353L224.815 54.28m21.459 28.406l-21.459-21.459m14.511 21.459l-14.511-14.512m7.565 14.512l-7.565-7.565m.617 7.565l-.617-.618" fill-rule="evenodd" clip-rule="evenodd" fill="none" stroke="#999" stroke-width=".4" stroke-linecap="round" stroke-linejoin="round" stroke-miterlimit="3"/><path class="st1" d="M301.9 82.686h-34.765M267.136 82.686V48.489M267.136 48.489H301.9M296.232 76.073a.945.945 0 11-1.89 0 .945.945 0 011.89 0zM288.916 66.117l-.372 1.396m0 0l-.793 1.209m0 0l-1.132.898m0 0l-1.358.496m0 0l-1.445.043m0 0l-1.385-.413m0 0l-1.184-.829m0 0l-.864-1.159m0 0l-.455-1.372m0 0V64.94m0 0l.455-1.372m0 0l.864-1.159m0 0l1.184-.828m0 0l1.385-.414m0 0l1.445.044m0 0l1.358.495m0 0l1.132.898m0 0l.793 1.209m0 0l.372 1.397m0 0h5.538m0 0l-.108-.456m0 0l-.037-.489m0 0l.037-.489m0 0l.108-.456m0 0l.172-.391m0 0l.225-.3m0 0l.261-.189m0 0l.281-.064m0 0h.402m0 0l.12.019m0 0l.278.064m0 0l.103.054m0 0l.251.181m0 0l.071.078m0 0l.204.275m0 0l.157.356m0 0l.052.196m0 0l.059.249m0 0l.688.02m0 0l.796.01m0 0v-1.729m0 0h.435m0 0v-2.872m0 0l.059-.159m0 0l.148-.084m0 0l.167.033m0 0l.105.134m0 0l.158.485m0 0l.315.727m0 0l.574 1.007m0 0l.257.729m0 0h.125m0 0v-.604m0 0h.983m0 0v2.569m0 0h-.878m0 0l-.01.024m0 0l-.027.039m0 0l-.035.032m0 0l-.04.025m0 0l-.673.279m0 0v.697m0 0h1.361m0 0v-1.059m0 0h.302m0 0v3.024m0 0h-.302m0 0v-1.058m0 0h-1.361m0 0v1.436m0 0h-.151m0 0v.416m0 0h.302m0 0v-.152m0 0h.529m0 0v-.604m0 0h.983m0 0v2.569m0 0h-.983m0 0v-.604m0 0h-.529m0 0v-.152m0 0h-.302m0 0v.152m0 0h-1.512m0 0v-2.571m0 0h-2.154m0 0v-.022m0 0v-.06m0 0v-.093m0 0v-.124m0 0v-.149m0 0v-.042m0 0h-7.504M300.237 63.774v.209m0 0l.34-.14m0 0l.053-.326m0 0l-.001-.008m0 0h-.241m0 0v-.151m0 0h-.302m0 0v.416m0 0h.151M300.086 62.3h.241m0 0l-.24-.676m0-.001l-.563-.988m0 .001l-.024-.053m-.001 0v1.567m0 0h.586m.001 0v.15M300.917 68.157h-.529M300.917 68.838h-.529M300.917 62.5v-.351M300.388 63.358v-.189M300.388 63.169v-.68M300.388 62.489v-.014M300.564 63.169h-.176M300.393 62.489h-.005M300.086 62.3v1.059M298.574 64.652v.558M299.5 62.149h-.491M298.008 64.719v.491M299.021 59.353l-.012-.076M301.124 63.503l-.002.047M301.092 63.333l.032.17M301.041 64.048l-.01.047M301.031 64.094l-.009.021M300.792 62.149l.161.453M300.953 62.602l.139.73M300.619 63.458l.011.06M299.021 59.353l.167.512M299.188 59.865l.312.718M300.936 62.559v.001M301.122 63.55l-.082.498M296.519 65.208l.001.002M297.05 65.21l.001-.002M299.689 63.774h.127M299.934 63.774h.103M299.817 63.774h.118M300.237 63.983v.523M300.48 62.736l.139.722M300.326 62.3l.154.437M299.603 64.454v.001M299.648 64.363l-.044.091M299.663 64.265l-.015.098M299.648 64.167l.014.099M299.603 64.076l.044.091M299.604 64.076h.141a.142.142 0 00-.141-.142.142.142 0 10.141.142h-.141zM297.107 63.921l.026.345M297.133 64.265l-.026.345M297.09 63.848l.017.072M297.03 64.932l-.051.195M297.107 64.61l-.077.321M299.436 63.896l-.062-.009M296.979 65.127l-.036.083M297.09 64.681l.688-.02M299.374 64.643l.062-.01M299.436 64.634l.058-.026M299.494 64.607l.049-.042M299.544 64.565l.038-.055M299.582 64.511l.021-.057M299.603 64.454l.003-.007M299.606 64.447l.008-.068M299.614 64.379v-.228M299.614 64.151l-.008-.068M299.606 64.083l-.003-.007M299.603 64.076l-.021-.057M299.582 64.019l-.038-.055M299.544 63.965l-.049-.042M299.494 63.923l-.058-.026M297.778 64.662l1.596-.019M298.574 63.878l.8.01M298.877 63.774v.107M298.877 64.649v.561M288.916 66.117h-5.343M288.916 65.21h-5.343M283.573 66.117v-.907M300.917 69.178v-1.361M300.388 69.026v-1.058M300.086 69.026v-1.058M300.086 67.552h-1.209M298.877 63.774h1.209M301.597 66.117v-.907M300.237 66.117h-3.817M294.454 65.21h5.783M298.877 67.552v-1.436M298.574 66.607v-.49M298.008 66.607v-.49M298.574 64.719h-1.493M286.238 66.117a1.889 1.889 0 110-.907M299.549 67.552a.34.34 0 11-.589 0"/><g><path class="st1" d="M280.295 25.272l-1.645.469m0 0l-1.552.718m0 0l-1.23.968m0 0l-.942 1.248m0 0l-.594 1.449m0 0l-.206 1.55m0 0l.206 1.551m0 0l.594 1.447m0 0l.942 1.249m0 0l1.23.967m0 0l1.552.72m0 0l1.645.468m0 0l1.698.208m0 0l1.709-.06m0 0l11.585-1.223m0 0V26.347m0 0l-11.585-1.223m0 0l-1.709-.059m0 0l-1.698.207M289.565 35.791v-4.116M289.565 31.675v-4.116M275.298 34.738a5.736 5.736 0 01-.886-3.063M282.128 37.986c-2.591.165-5.107-1.031-6.83-3.248M289.565 35.791c-2.252 1.506-4.828 2.266-7.437 2.195M282.128 25.363c2.609-.071 5.185.689 7.437 2.195M275.298 28.611c1.723-2.218 4.238-3.413 6.83-3.248M274.412 31.675a5.728 5.728 0 01.886-3.063M295.098 27.027h.189v9.295h-.189zM295.287 36.322v-9.295m0 0h-.189m0 0v9.295m0 0h.189M295.287 22.227v18.894M299.821 22.227v18.894M295.287 22.227h4.534M295.287 41.121h4.534"/></g><path class="st1" d="M301.9 82.686v-9.447M301.9 48.489v24.75M295.098 48.489h6.802"/><g><path class="st1" d="M225.382 11.459h31.174m0 0l.401.166m0 0l.165.401m0 0v13.981m0 0l-.165.4m0 0l-.401.166m0 0h-31.174m0 0l-.401-.166m0 0l-.165-.4m0 0V12.026m0 0l.165-.401m0 0l.401-.166M226.516 15.615h14m.906 0h14M255.989 16.182v8.69M255.422 25.44h-28.906M225.949 24.873v-8.69M255.422 15.615c.313 0 .567.254.567.567M255.989 24.873a.567.567 0 01-.567.567M226.516 25.44a.567.567 0 01-.567-.567M225.949 16.182c0-.313.254-.567.567-.567M241.725 18.603a.756.756 0 01-.303.606v-1.211a.755.755 0 01.303.605zm-1.209.605a.754.754 0 010-1.21v1.21zM241.423 11.988h-.907m0 0v7.748m0 0l.256.301m0 0h.395m0 0l.256-.301m0 0v-7.748M240.213 11.723h1.512v.264h-1.512zM240.213 11.988h1.512m0 0v-.265m0 0h-1.512m0 0v.265"/><path class="st1" d="M239.835 11.458h2.267v.266h-2.267zM239.835 11.724h2.268m0 0v-.265m0-.001h-2.268m0 0v.265M237.701 13.348v-1.625m0 .001h.095m-.001 0v-.134m0 0h.283m0 0v-.132m0 0h-1.89m.001 0v.132m0 0h.284m-.001 0v.133m0 .001h.094m0 0v1.625m0-.001h.322m0 0v.415m0 0h-1.078m0 0v.491m0 0h2.646m.001 0v-.491m0 0h-1.077m-.001 0v-.415m0 0h.321M244.237 13.348v-1.625m0 .001h-.095m.001 0v-.134m0 0h-.283m-.001 0v-.132m0 0h1.89m0 0v.132m0 0h-.284m0 0v.133m0 .001h-.094m0 0v1.625m0-.001h-.322m.001 0v.415m0 0h1.077m-.001 0v.491m0 0h-2.645m0 0v-.491m0 0h1.077m0 0v-.415m0 0h-.321M236.888 13.764l.072.072M237.379 13.764l-.072.072M236.888 13.348h.491M236.567 11.724h1.134M237.795 11.591h-1.323M245.05 13.764l-.072.072M244.559 13.764l.072.072M245.05 13.348h-.491M245.371 11.724h-1.134M244.143 11.591h1.323M237.379 14.009a.245.245 0 11-.491 0 .246.246 0 11.491 0zM245.05 14.009a.245.245 0 11-.491 0 .246.246 0 11.491 0zM224.816 11.459h32.307M257.122 20.528v-3.023M257.122 11.459v6.046"/></g></g></g><g id="walls"><path class="st3" d="M8.058 128.974h16.248M.501 128.974h5.667M6.169 128.974h1.889M8.058 45.844h16.248M.501 45.844h5.667M6.169 45.844h1.889M.501 45.844v83.13M24.306 45.844v83.13M8.058 45.844v3.779M8.058 49.623H6.169M6.169 49.623v-3.778M6.169 100.634v-1.889M6.169 98.745h1.889M8.058 98.745v1.89M7.113 49.623v49.122M8.058 49.623v49.122M6.169 98.745V49.623M8.058 100.634v.944M8.058 101.579h-.945M7.113 101.579v.945M7.113 102.524h-.944M6.169 102.524v-1.89M6.169 128.974v-3.778M6.169 125.195h.944M7.113 125.195v.945M7.113 126.14h.945M8.058 126.14v2.834M6.169 125.195v-22.671M9.002 104.413v18.894M9.002 101.579v2.834M9.002 104.413H7.113M7.113 104.413v-2.834M7.113 101.579h1.889M7.113 126.14v-2.833M7.113 123.307h1.889M9.002 123.307v2.833M9.002 126.14H7.113M7.113 123.307v-18.895M9.002 104.413v18.894M8.058 104.413v18.894M6.169 45.844h1.889M6.169 45.844h1.889M.501 45.844h5.667M8.058 45.844h16.248M6.169 128.974h1.889M6.169 128.974h1.889M.501 128.974h5.667M8.058 128.974h16.248"/><g><path class="st3" d="M323.763 11.459v18.704M348.386 91.866c-6.023-2.248-9.134-2.881-15.555-3.209"/><path class="st4" d="M348.489 91.896l-1.388-.601-15.657 36.209.003.601h1.384z"/><path class="st5" d="M339.974 63.171c-2.895 1.024-4.079 1.243-7.143 1.453"/><path class="st4" d="M340.079 63.126l-7.248-16.791h-1.511v.454l7.383 16.933z"/><path class="st5" d="M258.822 73.129c1.364 3.85 1.684 5.483 1.963 9.557"/><path class="st4" d="M258.785 73.027l-22.334 9.659-.001 1.511h.454l22.482-9.783z"/></g><path d="M323.762 11.459h0l-299.456-.001v34.387H.5V.5h332.331v45.835h-1.511v.454h-7.558v-35.33h0zm9.069 149.633H.5v-32.118h23.806v21.159h299.456v-22.482h7.558v.454h1.511v32.987h0zm-9.069-96.922h7.558v.454h1.511v24.032h-1.511v.453h-7.558V64.17z" fill-rule="evenodd" clip-rule="evenodd" stroke="#000" stroke-miterlimit="3"/><path class="st0" d="M323.762 82.686V85.709h-63.431v-1.512h.454v-1.51h41.061V48.488h-6.801V20.527H257.069v-9.069h3.023v6.046h34.953v.001h3.023v27.96h3.778V30.163h21.915v7.558h-12.469v35.518h12.469v9.447h.001zm-102.023 0V11.457h3.023v71.229l11.688.001v1.51h.454v1.512l-15.165-.001v-3.022zm18.516 67.447h-3.023v-20.971h3.023v20.971z"/><g><path class="st7" d="M222.695 11.2l-1.12.99M224.595 16.07l-3.02 2.66M224.595 22.61l-3.02 2.66M224.595 29.15l-3.02 2.66M224.595 35.69l-3.02 2.66M259.815 11.2l-2.91 2.56M224.595 42.23l-3.02 2.66M260.385 17.24l-3.44 3.03M224.595 48.77l-3.02 2.66M267.795 17.24l-3.44 3.03M224.595 55.3l-3.02 2.66M275.225 17.24l-3.44 3.03M224.595 61.84l-3.02 2.66M282.645 17.24l-3.44 3.03M224.595 68.38l-3.02 2.66M290.065 17.24l-3.44 3.03M224.595 74.92l-3.02 2.66M297.495 17.24l-3.44 3.03M224.595 81.46l-3.02 2.66M297.905 23.41l-3.02 2.67M230.915 82.43l-3.43 3.02M297.905 29.95l-3.02 2.66M236.615 83.94l-1.72 1.51M297.905 36.49l-3.02 2.66M305.385 29.9l-3.7 3.26M312.805 29.9l-11.12 9.79M297.905 43.02l-3.02 2.67M320.225 29.9l-8.58 7.56M311.125 37.92l-11.7 10.31M311.125 44.46l-9.44 8.31M323.595 33.47l-4.52 3.99M268.025 82.43l-3.43 3.02M311.125 51l-9.44 8.31M275.445 82.43l-3.43 3.02M311.125 57.54l-9.44 8.31M282.865 82.43l-3.42 3.02M311.125 64.07l-9.44 8.32M237.535 128.9l-.47.41M290.285 82.43l-3.43 3.02M311.125 70.61l-9.44 8.31M240.095 133.18l-3.03 2.67M297.705 82.43l-3.43 3.02M240.095 139.72l-3.03 2.67M315.855 72.98l-14.15 12.47M240.095 146.26l-3.03 2.67M323.285 72.98l-14.16 12.47M323.595 79.24l-7.04 6.21"/></g><path d="M323.762 82.686V85.709h-61.919v0h-1.512v-1.512h.454v-1.51h1.058v0h40.003V48.488h-6.801V20.527H257.069v-9.069h3.023v6.046h34.953v.001h3.023v27.96h3.778V37.72h0v-7.557h21.915v7.558h-12.469v35.518h12.469v9.447h.001zm-102.023 0V11.457h3.023v71.229l11.688.001v1.51h.454v1.512l-15.165-.001v-3.022h0zm18.516 67.447h-3.023v-20.971h3.023v20.971z" fill-rule="evenodd" clip-rule="evenodd" fill="none" stroke="#000" stroke-miterlimit="22.926"/></g><g id="sizes"><path d="M243.443 125.189l-.727-.348a2.857 2.857 0 01-1.168-1.008c-.294-.44-.48-.97-.559-1.59h1.625c.047.323.148.589.305.797s.358.363.605.465c.247.102.538.152.871.152.526 0 .935-.141 1.227-.422.292-.281.438-.677.438-1.188v-.344c0-.567-.138-1.007-.414-1.316-.276-.31-.667-.465-1.172-.465h-.805v-1.516h.805c.442 0 .786-.133 1.031-.398.245-.266.367-.641.367-1.125v-.352c0-.448-.129-.794-.387-1.039s-.624-.367-1.098-.367c-.271 0-.513.051-.727.152-.214.102-.395.258-.543.469s-.257.476-.324.793h-1.617c.104-.62.301-1.151.59-1.594s.655-.778 1.098-1.008c.442-.229.95-.344 1.523-.344.979 0 1.737.258 2.273.773.536.516.805 1.242.805 2.18v.188c0 .567-.154 1.063-.461 1.484-.308.422-.742.729-1.305.922.62.136 1.1.44 1.441.914.341.474.512 1.078.512 1.813v.188c0 .661-.128 1.227-.383 1.695a2.526 2.526 0 01-1.113 1.07c-.487.245-1.074.367-1.762.367l-.951.002zM249.763 123.478h1.594v1.594l-1.594 1.578v-3.172zM259.412 115.135l-2.938 9.938h-1.695l2.938-9.844h-2.891v1.633h-1.594v-3.148h6.18v1.421zM230.216 68.873l-.727-.348a2.857 2.857 0 01-1.168-1.008c-.294-.44-.48-.97-.559-1.59h1.625c.047.323.148.589.305.797s.358.363.605.465c.247.102.538.152.871.152.526 0 .935-.141 1.227-.422.292-.281.438-.677.438-1.188v-.344c0-.567-.138-1.007-.414-1.316-.276-.31-.667-.465-1.172-.465h-.805V62.09h.805c.442 0 .786-.133 1.031-.398.245-.266.367-.641.367-1.125v-.352c0-.448-.129-.794-.387-1.039s-.624-.367-1.098-.367c-.271 0-.513.051-.727.152-.214.102-.395.258-.543.469s-.257.476-.324.793h-1.617c.104-.62.301-1.151.59-1.594s.655-.778 1.098-1.008c.442-.229.95-.344 1.523-.344.979 0 1.737.258 2.273.773.536.516.805 1.242.805 2.18v.188c0 .567-.154 1.063-.461 1.484-.308.422-.742.729-1.305.922.62.136 1.1.44 1.441.914.341.474.512 1.078.512 1.813v.188c0 .661-.128 1.227-.383 1.695a2.526 2.526 0 01-1.113 1.07c-.487.245-1.074.367-1.762.367l-.951.002zM236.537 67.162h1.594v1.594l-1.594 1.578v-3.172zM242.302 68.873l-.727-.348a2.857 2.857 0 01-1.168-1.008c-.294-.44-.48-.97-.559-1.59h1.625c.047.323.148.589.305.797s.358.363.605.465c.247.102.538.152.871.152.526 0 .935-.141 1.227-.422.292-.281.438-.677.438-1.188v-.344c0-.567-.138-1.007-.414-1.316-.276-.31-.667-.465-1.172-.465h-.805V62.09h.805c.442 0 .786-.133 1.031-.398.245-.266.367-.641.367-1.125v-.352c0-.448-.129-.794-.387-1.039s-.624-.367-1.098-.367c-.271 0-.513.051-.727.152-.214.102-.395.258-.543.469s-.257.476-.324.793h-1.617c.104-.62.301-1.151.59-1.594s.655-.778 1.098-1.008c.442-.229.95-.344 1.523-.344.979 0 1.737.258 2.273.773.536.516.805 1.242.805 2.18v.188c0 .567-.154 1.063-.461 1.484-.308.422-.742.729-1.305.922.62.136 1.1.44 1.441.914.341.474.512 1.078.512 1.813v.188c0 .661-.128 1.227-.383 1.695a2.526 2.526 0 01-1.113 1.07c-.487.245-1.074.367-1.762.367l-.951.002z"/><g><path d="M117.998 125.072h-1.594v-9.625l-1.617.992v-1.648l1.617-1.078h1.594v11.359zM120.419 121.947l3.813-8.227h1.641l-3.719 8.133h5.57v1.477h-7.305v-1.383zm4.899-3.555h1.555v6.688h-1.555v-6.688zM129.521 123.478h1.594v1.594l-1.594 1.578v-3.172zM134.126 124.338c-.55-.567-.824-1.359-.824-2.375v-5.164c0-1.021.276-1.813.828-2.379.552-.565 1.356-.848 2.414-.848 1.063 0 1.868.281 2.418.844.549.563.824 1.356.824 2.383v5.164c0 1.021-.276 1.813-.828 2.379-.552.565-1.357.848-2.414.848-1.062-.001-1.868-.285-2.418-.852zm3.665-1.106c.268-.294.402-.718.402-1.27v-5.164c0-.552-.133-.976-.398-1.27s-.683-.441-1.25-.441c-.568 0-.984.147-1.25.441s-.398.718-.398 1.27v5.164c0 .552.134.976.402 1.27.268.294.684.441 1.246.441s.977-.147 1.246-.441z"/></g><g><path d="M201.915 100.155a2.758 2.758 0 01-1.086-.977c-.279-.427-.465-.94-.559-1.539v-.008h1.594v.008c.057.417.224.741.5.973.276.231.635.348 1.078.348.51 0 .905-.171 1.184-.512.278-.341.418-.821.418-1.441v-.953c0-.614-.14-1.093-.418-1.434-.279-.341-.673-.512-1.184-.512-.276 0-.542.078-.797.234a2.237 2.237 0 00-.672.656h-1.453v-5.984h5.789v1.516h-4.195v2.555a2.275 2.275 0 011.414-.508c.656 0 1.217.136 1.684.406.466.271.82.667 1.063 1.188s.363 1.148.363 1.883v.953c0 .734-.125 1.362-.375 1.883s-.615.918-1.094 1.191c-.479.273-1.055.41-1.727.41-.573 0-1.082-.112-1.527-.336zM208.825 98.78h1.594v1.594l-1.594 1.578V98.78zM214.122 100.1a2.86 2.86 0 01-1.207-1.105c-.284-.477-.426-1.03-.426-1.66v-.188c0-.567.142-1.102.426-1.602.284-.5.663-.878 1.137-1.133-.401-.219-.723-.535-.965-.949s-.363-.851-.363-1.309v-.273c0-.594.133-1.116.398-1.566s.641-.8 1.125-1.047 1.047-.371 1.688-.371 1.203.124 1.688.371.859.597 1.125 1.047.398.973.398 1.566v.273c0 .469-.124.909-.371 1.32a2.485 2.485 0 01-.98.938c.479.261.863.64 1.152 1.137s.434 1.03.434 1.598v.188c0 .63-.142 1.184-.426 1.66a2.854 2.854 0 01-1.207 1.105c-.521.261-1.125.391-1.813.391s-1.293-.13-1.813-.391zm2.789-1.359c.281-.146.499-.351.652-.613.153-.263.23-.566.23-.91v-.109c0-.349-.077-.655-.23-.918-.154-.263-.371-.468-.652-.613s-.607-.219-.977-.219-.695.073-.977.219-.499.352-.652.617c-.154.266-.23.573-.23.922v.117c0 .344.077.646.23.906.153.261.371.462.652.605s.606.215.977.215c.37 0 .695-.073.977-.219zm-.133-5.121c.245-.138.435-.335.57-.59.135-.255.203-.55.203-.883v-.109c0-.317-.068-.599-.203-.844a1.406 1.406 0 00-.57-.566 1.74 1.74 0 00-.844-.199 1.74 1.74 0 00-.844.199 1.4 1.4 0 00-.57.566 1.724 1.724 0 00-.203.852v.117c0 .328.067.618.203.871.135.253.325.448.57.586.245.138.526.207.844.207.317 0 .599-.069.844-.207z"/></g></g></svg>