<svg version="1.1" id="_x32_37" xmlns="http://www.w3.org/2000/svg" x="0" y="0" viewBox="0 0 348.565 181.051" xml:space="preserve"><style>.st0{fill-rule:evenodd;clip-rule:evenodd;fill:#fff}.st1,.st3{fill:none;stroke-miterlimit:3}.st1{fill-rule:evenodd;clip-rule:evenodd;stroke-linecap:round;stroke-linejoin:round;stroke:#999}.st3{stroke:#000}.st4,.st7{fill-rule:evenodd;clip-rule:evenodd}.st7{fill:none;stroke:#666;stroke-width:.6;stroke-miterlimit:22.9256}</style><g id="fon"><path id="fon_2_" class="st0" d="M.169.5h332.235v180.158L.169 180.551z"/></g><g id="mebel"><path class="st1" d="M221.309 146.922h-97.677m0 0v22.672m0 0h97.677m0 0v-22.672M221.309 169.594h-97.677M160.324 149h-21.916m0 0v18.516m0 0h21.916m0 0V149M149.366 160.28v5.299M149.366 165.579h-1.096M149.366 160.28h-1.096M140.512 160.28v5.299M141.608 165.579h-1.096M141.608 160.28h-1.096M158.351 163.145a2.74 2.74 0 11-5.48 0 2.74 2.74 0 015.48 0zM158.308 154.906a3.968 3.968 0 11-7.936 0 3.968 3.968 0 017.936 0z"/><path class="st1" d="M156.608 154.906a2.268 2.268 0 11-4.536 0 2.268 2.268 0 014.536 0zM147.584 162.961a2.645 2.645 0 11-5.29 0 2.645 2.645 0 015.29 0zM147.222 154.37a3.4 3.4 0 11-6.803-.001 3.4 3.4 0 016.803.001zM163.44 146.922h-28.148M163.44 169.594h-28.148M163.44 146.922v22.672M135.292 146.922v22.672M201.472 125.573v19.271m0 0l.221.534m-.001 0l.534.221m0 0h17.382m0 0l.534-.221m0 0l.222-.534m0 0v-19.271m0 0l-.222-.535m0 0l-.534-.221m0-.001h-17.382m0 0l-.534.221m0 .001l-.221.535M198.637 123.872v22.672M221.309 123.872v22.672M198.637 123.872h22.672M198.637 146.544h22.672M203.361 127.462v15.492M204.117 143.71h11.713M216.586 142.954v-7.002m0-1.488v-7.002M215.83 126.706h-11.714M203.361 127.462h.141a.14.14 0 00-.141-.141.142.142 0 00-.142.141c0 .078.064.142.142.142a.141.141 0 00.141-.142h-.141zM204.117 143.71a.756.756 0 01-.756-.756M216.586 142.954a.755.755 0 01-.755.756M215.83 126.706c.417 0 .755.338.755.755M203.361 127.462c0-.417.338-.755.756-.755M211.753 134.868l-.24.1m0 0l-.099.241m0 0l.1.24m0 0l.241.099m0 0h7.476m0 0l.24-.099m0 0l.1-.241m0 0l-.1-.24m0 0l-.24-.1m0 0h-7.478M217.304 134.454v.414m0 0h1.927m0 0l.241.1m0 0l.1.24m0 0l-.1.241m0 0l-.241.099m0 0h-1.927m0 0v.415m0 0h2.457m-.001 0v-1.509m0 0h-2.457M215.944 134.464v.404m0 0h1.322m0 0v-.404m0 0h-1.322M215.944 135.952h1.322m0 0v-.404m0 0h-1.322m0 0v.404M198.637 101.201v22.671m0-.001h22.672m0 0V101.2m0 .001h-22.672M213.752 112.536h-7.557M212.645 109.865l-5.344 5.343M209.973 108.758v7.558M207.302 109.865l5.343 5.343M198.637 146.922h-24.561M198.637 169.594h-24.561M198.637 146.922v22.672M174.076 146.922v22.672M191.98 155.057a3.411 3.411 0 11-6.822.002 3.411 3.411 0 016.822-.002z"/><path class="st1" d="M191.459 155.057a2.89 2.89 0 11-5.781 0 2.89 2.89 0 015.781 0zM184.84 154.225a2.58 2.58 0 11-5.16 0 2.58 2.58 0 015.16 0z"/><path class="st1" d="M183.705 154.225a1.444 1.444 0 11-2.889.001 1.444 1.444 0 012.889-.001zM192.637 152.85h-.963m0 0v-1.204m0 0H179.15m0 0v1.204m0 0h-.964M191.174 162.376l-.047-.104m-.048-.102l-.047-.104m-.047-.102l-.047-.104m-.047-.102l-.048-.104m-.047-.103l-.047-.103m-.047-.103l-.048-.103m-.046-.103l-.047-.104m-.048-.102l-.047-.103m-.047-.103l-.047-.104m-.047-.102l-.047-.104m-.047-.103l-.048-.103m-.047-.104l-.047-.102m-.047-.103l-.047-.103m-.048-.104l-.046-.102m-.048-.104l-.047-.102m-.047-.104l-.047-.103m-.047-.103l-.048-.103M181.54 162.376l.047-.104m.047-.102l.048-.104m.047-.102l.047-.104m.047-.102l.047-.104m.047-.103l.047-.103m.048-.103l.047-.103m.047-.103l.047-.104m.048-.102l.047-.103m.046-.103l.048-.104m.047-.102l.047-.104m.047-.103l.047-.103m.048-.104l.047-.102m.047-.103l.047-.103m.047-.104l.047-.102m.047-.104l.048-.102m.047-.104l.047-.103m.047-.103l.047-.103M191.174 162.376h-.078m-.113 0h-.114m-.113 0h-.114m-.113 0h-.078m0 0l-.042-.052m-.071-.088l-.072-.088m-.071-.087l-.071-.088m-.072-.088l-.071-.089m-.072-.088l-.071-.088m-.072-.088l-.071-.088m-.072-.088l-.071-.087m-.071-.088l-.072-.088m-.071-.089l-.072-.088m-.071-.088l-.072-.088m-.071-.088l-.072-.088m-.071-.087l-.071-.088m-.072-.089l-.071-.088m-.072-.088l-.072-.088m-.071-.088l-.072-.088m-.071-.088l-.071-.088m-.071-.088l-.072-.088m-.072-.088l-.071-.088m-.072-.088l-.071-.088m-.071-.088l-.071-.088m-.072-.087l-.072-.089m-.071-.088l-.072-.088m-.071-.088l-.042-.052M181.54 162.376h.078m.113 0h.114m.113 0h.113m.114 0h.078m0 0l.042-.052m.071-.088l.071-.088m.072-.087l.071-.088m.072-.088l.071-.089m.072-.088l.071-.088m.072-.088l.071-.088m.071-.088l.072-.087m.071-.088l.072-.088m.071-.089l.072-.088m.071-.088l.071-.088m.072-.088l.071-.088m.072-.087l.071-.088m.072-.089l.071-.088m.071-.088l.072-.088m.072-.088l.071-.088m.071-.088l.072-.088m.071-.088l.072-.088m.072-.088l.071-.088m.071-.088l.071-.088m.072-.088l.071-.088m.072-.087l.072-.089m.071-.088l.071-.088m.071-.088l.042-.052M181.54 162.854h9.634m0 0v-.479m0 0h-.722m0 0v.238m0 0h-8.189m0 0v-.238m0 0h-.723m0 0v.479"/><g><path class="st1" d="M120.609 86.615h-1.889m0 0v73.381m0 0h1.889m0 0V86.615M82.823 86.615v36.69m0 0h26.45m-.001 0v-36.69m0 0h-26.45M82.823 123.306v36.69m0 0h26.45m-.001 0v-36.69m0 0h-26.45M82.823 159.996v9.598m0 0h37.786m-.001 0v-9.598m0 0h-1.889m-9.447 0h-26.45M82.823 77.018v9.598m0-.001h26.45m9.447 0h1.889m-.001 0v-9.598m0 .001H82.823M118.719 123.306h-9.447m0 0v41.489m0 0h9.447m0 0v-41.489M118.719 123.306h-9.447m0 0V81.817m0 0h9.447m0 0v41.489M73.376 141.065H54.483m0 0v-37.786m0 0h18.893m0 0v37.786M118.719 123.306h-9.447m0 0v41.489m0 0h9.447m0 0v-41.489M118.719 164.795v-41.489M109.272 164.795h9.447M109.272 123.306v41.489M118.719 123.306h-9.447"/></g><path class="st1" d="M44.975 28.535l.761-.039m0 .001l.763-.111m0 0l.756-.156m0 0l.738-.174m0 0l.711-.164m0 0l.675-.127m0-.001l.629-.064m0 0l.484.023m0 .001l.378.006m0 0l.589.1m.001 0l.63.212m-.001-.001l.416.186m.001.001l.224.112m-.001 0l.423.227m0 0l.611.401m.001 0l.535.431m-.001 0l.102.1m0-.001l.325.329m0 0l.703.907m0 .001l.63.918m0 0l.576.959m0-.001l.495.97m0 .001l.374.882m0 0l.303.874m0 0l.175.805m0 0l.027.708m0 0l-.016.438m0 0l-.025.495m0 0l-.047.542m0 0l-.117.881m0 0l-.111.59m0-.001l-.172.619m0 .001l-.248.646m0 0l-.339.668m.001 0l-.444.688m-.001 0l-.38.552m0 0l-.347.463m.001-.001l-.359.419m-.001.001l-.416.418m.001 0l-.517.461m-.001 0l-.665.546m0 0l-.272.215m0 0l-.568.466m0 0l-1.081.858m0 0l-1.372 1.068m0 0l-1.444.985m0-.001l-1.154.774m.001.001l-.933.611m-.001-.001l-.726.468m0 0l-.598.354m0 .001l-.526.269m0 0l-.509.214m0-.001l-.547.188m0 0l-.642.194m.001.001l-.799.204m-.001-.001l-.746.117m0 .001l-.694.042m0-.001l-.644-.02m0 .001l-.595-.069m0-.001l-.475-.091m0 0l-.453-.074m0 0l-.537-.12m0 .001l-.48-.13m0-.001l-.42-.128m0 .001l-.67-.258m0 0l-.707-.418m0-.001l-.713-.524m0 0l-.763-.65m0 0l-.745-.757m0 .001l-.713-.83m.001 0l-.662-.871m-.001-.001l-.646-.939m0 .001l-.278-.537m0 0l-.245-.644m0-.001l-.193-.704m0 .001l-.083-.476m0-.001l-.039-.247m0 .001l-.048-.454m.001 0l-.007-.666m-.001 0l.087-.595m0 0l.235-.828m0 0l.254-.58m0 0l.327-.604m0 0l.374-.627m0 0l.39-.649m0 0l.378-.672m0 0l.339-.691m0 0l.269-.714m0-.001l.033-.138m0 .001l-.15.153m0-.001l-.412.451m0 0l-.673.808m0 .001l-.618.694m.001-.001l-.378.351m-.001 0l-.496.479m0 .001l-.439.116m.001-.001l-.32.081m-.001 0l-.236-.231m0 0l-.469-.543m.001 0l-.267-.374m-.001 0l-.251-.743m0 0l-.098-1.081m0-.001l.192-1.388m0 .001l.692-1.967m0-.001l1.09-1.868m0 0l1.803-2.096m0 .001l.182-.175m0 0l2.47-2.17m.001 0l2.821-1.695m-.001-.001l.194-.097m0 .001l2.542-1.075m0-.001l2.103-.463m0 0l2.051-.028m0 0l1.374.245m0 .001l.993.428m0 0l.626.469m0-.001l.27.373m0 .001l.372.615m0 0l.149.296m0 0l-.174.279m0 0l-.244.382m0 0l-1.05.573m0 0l-.849.376m0-.001l-1.255.531m0 .001l-.46.222m0 0l.126.01"/><g><path d="M313.543 145.598l1.286-1.286m-9.556 2.61l9.556-9.556m-16.503 9.556l16.503-16.503m-23.45 16.503l17.47-17.47m-24.417 17.47l16.85-16.85m12.062-12.062l1.485-1.485m-37.343 30.397l18.628-18.629m10.947-10.947l7.769-7.769m-44.292 37.345l23.166-23.166m6.738-6.738l12.795-12.795m-49.645 42.699l42.698-42.699m-47.951 41.005l41.004-41.005m-41.004 34.057l34.057-34.058m-34.057 27.111l27.11-27.111m-27.11 20.164l20.163-20.163m-20.163 13.216l13.216-13.217m-13.216 6.271l6.27-6.27m50.22.862l-.863-.863m.863 7.81l-7.809-7.81m6.9 13.848l-13.847-13.848m6.081 13.029l-13.028-13.028m21.703 28.65l-3.666-3.666m-11.94-11.941l-13.044-13.044m28.65 35.598l-9.949-9.95m-9.966-9.965l-15.682-15.682m34.429 41.375l-16.777-16.778m-2.477-2.476l-22.121-22.122m35.552 42.501l-42.499-42.501m35.751 42.7l-42.698-42.699m35.751 42.699l-35.804-35.805m28.857 35.805l-28.857-28.858m21.911 28.858l-21.911-21.911m14.964 21.911l-14.964-14.964m8.016 14.964l-8.016-8.016m1.07 8.016l-1.07-1.07" fill-rule="evenodd" clip-rule="evenodd" fill="none" stroke="#999" stroke-width=".4" stroke-linecap="round" stroke-linejoin="round" stroke-miterlimit="3"/><path class="st1" d="M299.838 117.092l-1.645.469m0 0l-1.552.719m0 0l-1.23.967m0 0l-.943 1.248m0 0l-.593 1.448m0 0l-.206 1.551m0 0l.206 1.551m0 0l.593 1.447m0 0l.943 1.249m0 0l1.23.968m0 0l1.552.718m0 0l1.645.469m0 0l1.698.207m0 0l1.709-.059m0 0l11.585-1.223m0 0v-10.654m0 0l-11.585-1.223m0 0l-1.709-.059m0 0l-1.698.207M309.108 127.61v-4.116M309.108 123.494v-4.117M294.841 126.557a5.743 5.743 0 01-.887-3.063M301.671 129.806c-2.591.165-5.107-1.031-6.83-3.249M309.108 127.61c-2.252 1.505-4.828 2.266-7.437 2.195M301.671 117.182c2.609-.07 5.185.69 7.437 2.195M294.841 120.43c1.723-2.217 4.238-3.413 6.83-3.248M293.954 123.494a5.744 5.744 0 01.887-3.064M314.641 118.846h.189v9.296h-.189zM314.83 128.142v-9.295m0 0h-.189m-.001 0v9.295m0 0h.189M314.83 114.047v18.893M319.364 114.047v18.893M314.83 114.047h4.533M314.83 132.94h4.533M258.339 104.223v65.371M231.888 110.836a.946.946 0 11-1.891-.001.946.946 0 011.891.001zM237.314 135.488l.372-1.397m0 0l.793-1.209m0 0l1.133-.897m0 0l1.357-.497m0 0l1.445-.042m0 0l1.385.413m0 0l1.185.828m0 0l.863 1.159m0 0l.455 1.372m0 0v1.446m0 0l-.455 1.372m0 0l-.863 1.159m0 0l-1.185.829m0 0l-1.385.413m0 0l-1.445-.043m0 0l-1.357-.496m0 0l-1.133-.898m0 0l-.793-1.208m0 0l-.372-1.397m0 0h-5.538m0 0l.108.455m0 0l.037.49m0 0l-.037.488m0 0l-.108.456m0 0l-.172.392m0 0l-.225.3m0 0l-.261.188m0 0l-.28.065m0 0h-.402m0 0l-.121-.02m0 0l-.277-.063m0 0l-.104-.055m0 0l-.251-.181m0 0l-.07-.078m0 0l-.205-.274m0 0l-.157-.357m0 0l-.052-.195m0 0l-.059-.25m0 0l-.688-.019m0 0l-.796-.01m0 0v1.728m0 0h-.434m0 0v2.872m0 0l-.059.16m0 0l-.148.083m0 0l-.167-.033m0 0l-.106-.134m0 0l-.157-.485m0 0l-.315-.726m0 0l-.574-1.008m0 0l-.258-.729m0 0h-.125m0 0v.605m0 0h-.982m0 0v-2.57m0 0h.877m0 0l.01-.023m0 0l.028-.039m0 0l.034-.032m0 0l.041-.026m0 0l.672-.278m0 0v-.697m0 0h-1.36m0 0v1.058m0 0h-.302m0 0v-3.023m0 0h.302m0 0v1.058m0 0h1.36m0 0v-1.436m0 0h.152m0 0v-.416m0 0h-.303m0 0v.152m0 0h-.529m0 0v.604m0 0h-.982m0 0v-2.57m0 0h.982m0 0v.605m0 0h.529m0 0v.151m0 0h.303m0 0v-.151m0 0h1.511m0 0v2.57m0 0h2.154m0 0v.023m0 0v.059m0 0v.093m0 0v.124m0 0v.149m0 0v.043m0 0h7.504M225.993 137.831v-.209m0 0l-.341.14m0 0l-.053.325m0 0l.002.008m0 0h.241m.001 0v.152m0 0h.302m0 0v-.416m0 0h-.151M226.145 139.304h-.24m0 0l.239.677m0 0l.563.987m0 0l.023.053m0 0v-1.566m0 0h-.585m0 0v-.151M225.313 133.447h.529M225.313 132.767h.529M225.313 139.104v.351M225.843 138.246v.189M225.843 138.435v.68M225.843 139.115v.014M225.666 138.435h.176M225.838 139.115h.005M226.145 139.304v-1.058M227.656 136.952v-.558M226.73 139.455h.492M228.223 136.886v-.491M227.21 142.251l.012.076M225.106 138.102l.002-.047M225.138 138.271l-.032-.169M225.19 137.557l.01-.047M225.2 137.51l.009-.02M225.438 139.455l-.16-.453M225.278 139.003l-.14-.732M225.611 138.146l-.011-.059M227.21 142.251l-.167-.512M227.042 141.739l-.312-.717M225.295 139.044h.108a.108.108 0 10-.216 0 .108.108 0 00.216 0h-.108zM225.108 138.055l.082-.498M229.711 136.397l-.001-.002M229.181 136.395l-.002.002M226.541 137.831h-.128M226.296 137.831h-.103M226.414 137.831h-.119M225.993 137.621v-.524M225.75 138.868l-.14-.722M225.905 139.304l-.154-.436M226.628 137.15h.108a.108.108 0 10-.216 0 .108.108 0 00.216 0h-.108zM226.583 137.241l.044-.091M226.568 137.339l.015-.098M226.583 137.437l-.015-.098M226.627 137.529l-.044-.091M226.628 137.529h.108a.108.108 0 10-.216 0 .108.108 0 00.216 0h-.108zM229.123 137.684l-.026-.345M229.097 137.339l.026-.345M229.14 137.755l-.017-.071M229.2 136.673l.052-.196M229.123 136.995l.076-.321M226.794 137.708l.062.009M229.251 136.478l.037-.083M229.14 136.923l-.687.019M226.856 136.962l-.062.008M226.794 136.97l-.058.026M226.737 136.997l-.05.042M226.687 137.039l-.038.055M226.649 137.094l-.021.056M226.627 137.15l-.002.007M226.625 137.158l-.008.068M226.617 137.226v.227M226.617 137.453l.007.068M226.625 137.521l.002.007M226.628 137.529l.021.056M226.649 137.585l.038.055M226.687 137.64l.05.042M226.737 137.682l.058.026M228.453 136.943l-1.596.019M227.656 137.727l-.8-.009M227.354 137.831v-.107M227.354 136.956v-.561M237.314 135.488h5.343M237.314 136.395h5.343M242.658 135.488v.907M225.313 132.427v1.36M225.843 132.578v1.058M226.145 132.578v1.058M226.145 134.052h1.209M227.354 137.831h-1.209M224.634 135.488v.907M225.993 135.488h3.816M231.777 136.395h-5.783M227.354 134.052v1.436M227.656 134.997v.491M228.223 134.997v.491M227.656 136.886h1.493M239.992 135.488a1.89 1.89 0 110 .907M226.682 134.052a.34.34 0 11.589 0M258.339 169.593h49.5m0 0v-22.672m0 0h-49.5m0 0v22.672M307.839 145.599v23.995M284.6 163.925h-25.695m0 0l-.401-.166m0 0l-.166-.4m0 0v-15.871m0 0l.166-.401m0 0l.401-.166m0 0H284.6m0 0l.401.166m0 0l.165.401m0 0v15.871m0 0l-.165.4m0 0l-.401.166M283.467 159.769h-11.025m-1.378 0H260.04M259.473 159.202v-10.58M260.04 148.055h23.426M284.033 148.622v10.58M260.04 159.769a.567.567 0 01-.567-.567M259.473 148.622c0-.313.253-.566.567-.566M283.467 148.055c.313 0 .567.253.567.566M284.033 159.202a.567.567 0 01-.567.567M272.509 156.265a.755.755 0 11-1.51.001.755.755 0 011.51-.001zM272.698 161.658l-.151-1.585m0 0l-.123-.359m0 0l-.251-2m0 0l-.14-.265m0 0l-.28-.105m0 0l-.28.105m0 0l-.139.265m0 0l-.25 2m0 0l-.124.359m0 0l-.151 1.585m0 0l.18.556m0 0l.472.342m0 0h.584m0 0l.472-.342m0 0l.181-.556M271.239 160.717v-.561M272.267 160.155v.562M272.267 160.717h-1.028M271.239 160.155a.514.514 0 111.028 0M271.083 159.714a.796.796 0 011.34 0M303.683 160.449a7.18 7.18 0 11-14.36 0 7.18 7.18 0 0114.36 0zM302.511 160.964l-1.233-.449m0 .001h-1.312m0 0l-1.234.449m0-.001l-1.473-.342m0 0h-1.512m0 0l-1.473.342m0 0l-1.235-.449m0 .001h-1.314m0 0l-1.235.449m0-.001l2.232-2.987m0 0h7.557m0 0l2.232 2.987M300.279 157.716h-7.557m0 0v.261m0 0h7.557m0 0v-.261M300.279 157.193h-7.557m0 0v.262m0 0h7.557m0 0v-.262M295.659 162.48l.891.085m.001 0l.022-.226m-.001 0l-.477-.046m0 0l1.383-1.141m0 0l-.126-.153m.001 0l-.642.53m0 0l-.067-.081m0 0l.74-.611m-.001 0l-.121-.146m0 0l-.74.61m.001 0l-.08-.097m0 0l.601-.496m0 0l-.108-.13m0 0l-.601.496m0 0l-.08-.098m-.001 0l.414-.342m.001 0l-.115-.139m-.001 0l-1.422 1.173M307.839 169.593h-22.672m0 0v-22.672m0 0h22.672m0 0v22.672M285.167 146.921h-26.828m0 0v22.672m0 0h26.828m0 0v-22.672"/><g><path class="st1" d="M167.665 82.605l-4.109-4.109m0 0l-.426-.407m0 0l-.43-.371m0-.001l-.424-.328m0 .001l-.403-.276m0 0l-.017-.009m0 0l-.375-.216m0 0l-.332-.147m0 0l-.025-.008m0 0l-.281-.075m0 0l-.028-.004m0 0l-.22.002m0 0l-.03.002m0 0l-.029.007m0-.001l-.027.013m0 .001l-.154.078m0 0l-.024.018m0 0l-.012.01m0 0l-1.133 1.134m0 0l-1.03-1.029m0 0l-5.217 5.217m11.115 11.116l5.217-5.218m0 0l-1.029-1.029m0 0l1.134-1.134m0 0l.011-.011m0-.001l.017-.025m0 .001l.078-.154m0 0l.013-.027m0 0l.008-.029m0-.001l.002-.029m0 .001l.001-.221m0-.001l-.003-.028m0 .001l-.075-.281m0-.001l-.008-.025m0 .001l-.148-.332m0 0l-.214-.376m0-.001l-.011-.016m0 .001l-.276-.404m0 0l-.328-.423m0 0l-.371-.429m0 0l-.407-.427M158.518 78.587l9.057 9.057M158.641 78.71l.897-.898M167.45 87.52l.898-.898M163.577 91.64l4.665-4.664M154.52 82.583l4.665-4.663M162.526 79.518l4.117 4.117M159.538 77.813c.354-.354 1.691.409 2.988 1.706M166.643 83.634c1.296 1.296 2.06 2.634 1.705 2.988M131.067 110.986l4.108 4.108m0 0l.427.408m-.001 0l.43.371m0 0l.423.328m0 0l.404.275m.001 0l.016.011m-.001.001l.376.215m.001-.001l.332.147m0 .001l.024.008m-.001-.001l.281.075m.001.001l.029.003m-.001-.001l.22-.001m0 .001l.03-.002m.001 0l.028-.008m0-.001l.027-.012m0 0l.154-.078m-.001 0l.025-.018m0 0l.011-.011m0 0l1.134-1.133m.001.001l1.029 1.029m0-.001l5.219-5.218m-11.117-11.114l-5.216 5.217m-.001 0l1.029 1.029m0 0l-1.135 1.134m0 0l-.01.011m.001 0l-.017.025m0 0l-.078.153m0 0l-.013.027m0 0l-.008.03m0 0l-.002.029m0 0l-.001.221m-.001 0l.003.027m.001 0l.074.282m0 0l.009.025m-.001 0l.147.332m0 0l.215.375m.001 0l.01.016m0 0l.276.404m-.001 0l.329.424m0 .001l.371.429m.001-.001l.407.427M140.214 115.004l-9.057-9.057M140.091 114.88l-.898.898M131.28 106.07l-.897.897M135.153 101.951l-4.663 4.664M144.211 111.007l-4.664 4.664M136.205 114.073l-4.117-4.117M139.192 115.779c-.354.354-1.692-.409-2.988-1.705M132.088 109.956c-1.296-1.296-2.06-2.634-1.705-2.988M135.175 78.496l-4.108 4.109m0 0l-.408.427m0 0l-.371.429m0 0l-.329.423m0 0l-.275.404m0 0l-.01.016m0 0l-.216.376m0 0l-.146.332m0 0l-.009.025m0 0l-.074.281m0 0l-.003.028m0 0l.001.221m0 0l.002.029m0 0l.008.029m0 0l.012.027m0 0l.078.154m0 0l.018.024m0 0l.01.012m0 0l1.134 1.133m0 0l-1.029 1.03m0 0l5.217 5.217m11.115-11.115l-5.218-5.217m0 0l-1.028 1.029m0 0l-1.135-1.134m0 0l-.01-.01m0 0l-.026-.018m0 0l-.153-.078m0 0l-.027-.013m0 0l-.029-.007m0 0l-.029-.002m0 0l-.221-.002m0 0l-.028.004m0 0l-.281.075m0 0l-.025.008m0 0l-.332.147m0 0l-.376.215m0 0l-.015.01m0 0l-.405.276m0 0l-.423.328m0 0l-.429.371m0 0l-.427.407M131.157 87.644l9.057-9.057M131.28 87.52l-.897-.898M140.091 78.71l-.898-.898M144.211 82.583l-4.664-4.663M135.153 91.64l-4.663-4.664M132.088 83.634l4.117-4.116M130.383 86.622c-.354-.354.409-1.692 1.705-2.988M136.204 79.517c1.297-1.296 2.635-2.059 2.988-1.705M163.556 115.095l4.109-4.108m0 0l.408-.427m0 0l.371-.43m0 0l.328-.424m0 0l.275-.403m0 0l.011-.017m0 0l.215-.375m0 0l.147-.332m0 0l.008-.024m0 0l.075-.282m0 0l.003-.028m0 0l-.001-.22m0 0l-.002-.03m0 0l-.008-.029m0 0l-.012-.027m0 0l-.078-.154m0 0l-.018-.024m0 0l-.011-.012m0 0l-1.133-1.133m0 0l1.029-1.03m0 0l-5.218-5.218m-11.116 11.115l5.219 5.218m0 0l1.029-1.029m0 0l1.134 1.134m0 0l.011.011m0 0l.025.017m0 0l.153.078m0 0l.027.013m0 0l.03.008m0 0l.029.002m0 0l.221.001m0 0l.027-.003m0 0l.281-.075m0 0l.026-.008m0 0l.332-.148m0 0l.375-.214m0 0l.016-.011m0 0l.404-.276m0 0l.424-.328m0 0l.429-.371m0 0l.426-.407M167.574 105.947l-9.057 9.057M167.45 106.07l.898.897M158.641 114.88l.897.898M154.52 111.007l4.665 4.664M163.577 101.95l4.665 4.665M166.644 109.956l-4.117 4.117M168.349 106.968c.354.354-.409 1.691-1.705 2.987M162.526 114.072c-1.296 1.296-2.634 2.06-2.988 1.705M164.479 96.795c0 8.348-6.767 15.114-15.114 15.114-8.348 0-15.115-6.766-15.115-15.114 0-8.347 6.767-15.114 15.115-15.114 8.348 0 15.114 6.767 15.114 15.114z"/></g><g><path class="st1" d="M221.309 11.458v51.956M198.637 28.462H66.386m0 0V11.458m0 0h132.251m0 0v17.004M221.309 11.458h-22.672m0 0v51.956m0 0h22.672m0 0V11.458M209.596 63.414h.755m-.001 0V11.458m0 0h-.755m.001 0v51.956M219.316 18.045H200.69m0 0v.756m0 0h18.626m0 0v-.756M219.316 20.049H200.69m0 0v.756m0 0h18.626m0 0v-.756M219.316 22.054H200.69m0 0v.755m0 0h18.626m0 0v-.755M219.316 24.059H200.69m0 0v.756m0 0h18.626m0 0v-.756M219.181 28.305l-18.491-2.241m0-.001l-.091.75m0 0l18.491 2.241m0 .001l.091-.75"/></g><g><path class="st1" d="M224.332 11.458h99.378M224.332 11.458V34.13m0 0h99.378m0 0V11.458m0 0h-99.378M323.71 23.172v-.756m0 0h-99.378m0 0v.756m0 0h99.378M233.186 13.451v18.626m0 0h.756m0 0V13.451m0 0h-.756M235.191 13.451v18.626m0 0h.755m0 0V13.451m0 0h-.755M237.195 13.451v18.626m0 0h.756m0 0V13.451m0 0h-.756M239.2 13.451v18.626m0 0h.755m0 0V13.451m0 0h-.755M243.446 13.586l-2.241 18.491m-.001 0l.75.091m.001 0l2.241-18.491m0 0l-.75-.091"/></g></g></g><g id="walls_1_"><path class="st3" d="M8.058 135.586h16.248M.501 135.586h5.667M6.169 135.586h1.889M8.058 52.456h16.248M.501 52.456h5.667M6.169 52.456h1.889M.501 52.456v83.13M24.306 52.456v83.13M8.058 52.456v3.779M8.058 56.235H6.169M6.169 56.235v-3.779M6.169 107.246v-1.889M6.169 105.357h1.889M8.058 105.357v1.889M7.113 56.235v49.122M8.058 56.235v49.122M6.169 105.357V56.235M8.058 107.246v.945M8.058 108.191h-.945M7.113 108.191v.945M7.113 109.135h-.944M6.169 109.135v-1.889M6.169 135.586v-3.779M6.169 131.807h.944M7.113 131.807v.945M7.113 132.752h.945M8.058 132.752v2.834M6.169 131.807v-22.671M9.002 111.025v18.893M9.002 108.191v2.834M9.002 111.025H7.113M7.113 111.025v-2.834M7.113 108.191h1.889M7.113 132.752v-2.834M7.113 129.918h1.889M9.002 129.918v2.834M9.002 132.752H7.113M7.113 129.918v-18.893M9.002 111.025v18.893M8.058 111.025v18.893M6.169 52.456h1.889M6.169 52.456h1.889M.501 52.456h5.667M8.058 52.456h16.248M6.169 135.586h1.889M6.169 135.586h1.889M.501 135.586h5.667M8.058 135.586h16.248"/><g><path class="st3" d="M348.39 77.356c-5.449 2.033-9.666 2.896-15.559 3.198"/><path class="st4" d="M348.489 77.313l-15.658-36.209h-1.379l-.008.6 15.657 36.209z"/><path d="M267.453 91.639c-1.287 3.637-1.699 5.786-1.957 9.561" fill-rule="evenodd" clip-rule="evenodd" fill="none" stroke="#000" stroke-miterlimit="3"/><path class="st4" d="M267.495 91.542l-.6 1.387 22.482 9.783h.453V101.2z"/></g><path d="M332.831 180.551H.5v-44.965h23.806v34.007h299.456V80.1h7.558v.453h1.511v99.998h0zm0-180.051v40.604h-1.511v.454h-7.558c0-13.702-.022-27.372-.022-41.058h9.091zM.5 52.456h23.806V.5H.5v51.956z" fill-rule="evenodd" clip-rule="evenodd" stroke="#000" stroke-miterlimit="3"/><path class="st0" d="M323.74 11.458h-99.356v51.956h-3.023V11.458H24.306V.5H323.74v10.958zm-8.857 134.141v-41.376h-25.506v-1.511h.453V101.2h33.932v3.023h-5.857v41.376h5.857v3.023h-12.847v20.971h-3.023v-23.994h6.991zm-48.934-41.376v-1.511h-.453V101.2l-44.135.001v68.392h3.023v-65.37h41.565zm-142.265 65.37h-3.023V68.137h3.023v101.456z"/><g><path class="st7" d="M26.598.507l-2.14 1.89M34.018.507l-9.56 8.43M41.448.507l-12.44 10.96M48.868.507l-12.44 10.96M56.298.507l-12.45 10.96M63.708.507l-12.44 10.96M71.128.507l-12.44 10.96M78.558.507l-12.44 10.96M85.978.507l-12.44 10.96M93.398.507l-12.44 10.96M100.828.507l-12.44 10.96M108.238.507l-12.44 10.96M115.668.507l-12.44 10.96M123.088.507l-12.44 10.96M130.518.507l-12.45 10.96M137.938.507l-12.44 10.96M145.358.507l-12.44 10.96M152.788.507l-12.45 10.96M160.198.507l-12.44 10.96M167.618.507l-12.44 10.96M175.048.507l-12.44 10.96M182.468.507l-12.44 10.96M189.888.507l-12.44 10.96M197.318.507l-12.44 10.96M123.838 71.767l-3.03 2.67M204.728.507l-12.44 10.96M123.838 78.307l-3.03 2.67M212.158.507l-12.44 10.96M123.838 84.847l-3.03 2.67M219.578.507l-12.44 10.96M123.838 91.387l-3.03 2.67M226.998.507l-12.44 10.96M123.838 97.927l-3.03 2.67M234.428.507l-12.92 11.38M123.838 104.467l-3.03 2.67M241.848.507l-12.44 10.96M224.538 15.757l-3.03 2.67M123.838 110.997l-3.03 2.67M249.268.507l-12.44 10.96M224.538 22.287l-3.03 2.67M224.538 28.827l-3.03 2.67M256.688.507l-12.44 10.96M123.838 117.537l-3.03 2.67M224.538 35.367l-3.03 2.67M264.108.507l-12.44 10.96M123.838 124.077l-3.03 2.67M224.538 41.907l-3.03 2.67M271.538.507l-12.44 10.96M123.838 130.617l-3.03 2.67M224.538 48.447l-3.03 2.67M278.958.507l-12.44 10.96M123.838 137.157l-3.03 2.67M224.538 54.987l-3.03 2.67M286.388.507l-12.45 10.96M123.838 143.697l-3.03 2.67M293.808.507l-12.44 10.96M224.538 61.527l-2.14 1.89M123.838 150.237l-3.03 2.67M301.228.507l-12.45 10.96M123.838 156.767l-3.03 2.67M308.648.507l-12.44 10.96M123.838 163.307l-3.03 2.67M316.068.507l-12.44 10.96M323.488.507l-12.44 10.96M323.888 6.697l-5.41 4.77M224.028 101.207l-2.52 2.22M224.538 107.287l-3.03 2.67M231.448 101.207l-3.43 3.02M224.538 113.827l-3.03 2.67M238.868 101.207l-3.43 3.02M224.538 120.367l-3.03 2.67M246.288 101.207l-3.43 3.02M224.538 126.907l-3.03 2.67M253.718 101.207l-3.43 3.02M224.538 133.447l-3.03 2.67M261.138 101.207l-3.43 3.02M266.098 103.377l-.96.85M224.538 139.987l-3.03 2.67M224.538 146.517l-3.03 2.67M224.538 153.057l-3.03 2.67M290.828 101.207l-.85.75M224.538 159.597l-3.03 2.67M224.538 166.137l-3.03 2.67M298.248 101.207l-3.43 3.02M305.668 101.207l-3.43 3.02M313.098 101.207l-3.43 3.02M320.518 101.207l-5.49 4.84M318.058 109.907l-3.03 2.67M318.058 116.447l-3.03 2.67M318.058 122.987l-3.03 2.67M318.058 129.527l-3.03 2.67M318.058 136.067l-3.03 2.67M314.648 145.607l-3.43 3.02M311.068 148.767l-3.03 2.66M318.058 142.607l-3.03 2.67M322.068 145.607l-3.43 3.02M311.068 155.297l-3.03 2.67M311.068 161.837l-3.03 2.67M311.068 168.377l-1.39 1.22"/></g><path d="M323.74 11.458h-99.356v51.956h-3.023V11.458H24.306V.5H323.74v10.958h0zm-8.857 134.141v-41.376h-25.506v-1.511h.453V101.2h33.932v3.023h-5.857v41.376h5.857v3.023h-12.847v20.971h-3.023v-23.994h6.991zm-48.934-41.376v-1.511h-.453V101.2l-44.135.001v68.392h3.023v-65.37h41.565zm-142.265 65.37h-3.023V68.137h3.023v101.456z" fill-rule="evenodd" clip-rule="evenodd" fill="none" stroke="#000" stroke-miterlimit="22.926"/></g><g id="sizes"><path d="M303.949 94.343a2.61 2.61 0 01-1.082-1.172c-.248-.513-.371-1.131-.371-1.855v-.008c0-.422.049-.864.148-1.328a7.673 7.673 0 01.532-1.597l.109-.223 2.469-4.891h1.719l-2.898 5.664.008-.281c.13-.245.32-.435.57-.57.25-.135.542-.203.875-.203.588 0 1.094.133 1.516.398s.742.652.961 1.16.328 1.119.328 1.832v.008c0 .729-.124 1.354-.371 1.875a2.62 2.62 0 01-1.086 1.188c-.477.271-1.048.406-1.715.406-.668-.001-1.238-.135-1.712-.403zm2.879-1.598c.273-.313.41-.758.41-1.336v-.008c0-.635-.144-1.126-.43-1.473-.287-.346-.695-.52-1.227-.52-.474 0-.841.175-1.102.523-.261.349-.391.841-.391 1.477v.008c0 .578.137 1.022.41 1.332.273.31.66.465 1.16.465.507.001.897-.156 1.17-.468zM310.785 93.034h1.594v1.594l-1.594 1.578v-3.172zM314.395 93.245l3.961-5.281c.229-.302.407-.616.535-.941.127-.325.191-.629.191-.91v-.016c0-.453-.133-.805-.398-1.055s-.644-.375-1.133-.375c-.464 0-.839.137-1.125.41-.287.273-.461.66-.523 1.16v.008h-1.648v-.008c.094-.651.285-1.207.574-1.668s.663-.813 1.121-1.055c.458-.242.987-.363 1.586-.363.677 0 1.255.116 1.734.348.479.232.844.569 1.094 1.012.25.443.375.977.375 1.602v.008c0 .401-.083.82-.25 1.258a5.417 5.417 0 01-.695 1.266l-3.289 4.469h4.297v1.516h-6.406v-1.385zM269.53 143.254l-.727-.348a2.857 2.857 0 01-1.168-1.008c-.294-.44-.48-.97-.559-1.59h1.625c.047.323.148.589.305.797.156.208.358.363.605.465.247.102.538.152.871.152.526 0 .935-.141 1.227-.422.292-.281.438-.677.438-1.188v-.344c0-.567-.138-1.006-.414-1.316-.276-.31-.667-.465-1.172-.465h-.805v-1.516h.805c.442 0 .786-.133 1.031-.398.245-.266.367-.641.367-1.125v-.352c0-.448-.129-.794-.387-1.039-.258-.245-.624-.367-1.098-.367-.271 0-.513.051-.727.152-.214.102-.395.258-.543.469s-.257.476-.324.793h-1.617c.104-.62.301-1.151.59-1.594a2.893 2.893 0 011.098-1.008c.442-.229.95-.344 1.523-.344.979 0 1.737.258 2.273.773.536.516.805 1.242.805 2.18v.188c0 .568-.154 1.063-.461 1.484-.308.422-.742.729-1.305.922.62.136 1.1.44 1.441.914.341.474.512 1.078.512 1.813v.188c0 .662-.128 1.227-.383 1.695a2.52 2.52 0 01-1.113 1.07c-.487.245-1.074.367-1.762.367l-.951.002zM275.85 141.543h1.594v1.594l-1.594 1.578v-3.172zM281.147 142.863a2.855 2.855 0 01-1.207-1.105c-.284-.477-.426-1.03-.426-1.66v-.188c0-.567.142-1.102.426-1.602.284-.5.663-.877 1.137-1.133-.401-.219-.723-.535-.965-.949s-.363-.85-.363-1.309v-.273c0-.594.133-1.116.398-1.566.266-.45.641-.799 1.125-1.047.484-.247 1.047-.371 1.688-.371s1.203.124 1.688.371c.484.248.859.597 1.125 1.047.266.451.398.973.398 1.566v.273c0 .469-.124.909-.371 1.32a2.478 2.478 0 01-.98.938c.479.261.863.64 1.152 1.137a3.13 3.13 0 01.434 1.598v.188c0 .63-.142 1.184-.426 1.66a2.854 2.854 0 01-1.207 1.105c-.521.261-1.125.391-1.813.391s-1.292-.13-1.813-.391zm2.789-1.359c.281-.146.499-.35.652-.613.153-.263.23-.566.23-.91v-.109c0-.349-.077-.655-.23-.918a1.582 1.582 0 00-.652-.613 2.09 2.09 0 00-.977-.219c-.37 0-.695.073-.977.219a1.573 1.573 0 00-.652.617c-.154.266-.23.573-.23.922v.117c0 .344.077.646.23.906.153.261.371.462.652.605.281.144.606.215.977.215.37 0 .696-.073.977-.219zm-.133-5.121c.245-.138.435-.334.57-.59.135-.255.203-.549.203-.883v-.109c0-.317-.068-.599-.203-.844a1.406 1.406 0 00-.57-.566 1.74 1.74 0 00-.844-.199 1.74 1.74 0 00-.844.199 1.406 1.406 0 00-.57.566 1.726 1.726 0 00-.203.852v.117c0 .328.067.619.203.871.135.253.325.448.57.586.245.138.526.207.844.207.318 0 .599-.069.844-.207z"/><g><path d="M205.434 76.567h-1.594v-9.625l-1.617.992v-1.648l1.617-1.078h1.594v11.359zM208.836 75.833c-.55-.567-.824-1.359-.824-2.375v-5.164c0-1.021.276-1.813.828-2.379.552-.565 1.356-.848 2.414-.848 1.063 0 1.868.281 2.418.844.549.563.824 1.357.824 2.383v5.164c0 1.021-.276 1.814-.828 2.379-.552.565-1.357.848-2.414.848-1.062-.001-1.868-.284-2.418-.852zm3.665-1.106c.268-.294.402-.717.402-1.27v-5.164c0-.552-.133-.975-.398-1.27-.266-.294-.683-.441-1.25-.441-.568 0-.984.147-1.25.441-.266.294-.398.718-.398 1.27v5.164c0 .552.134.976.402 1.27.268.294.684.441 1.246.441s.977-.146 1.246-.441zM216.684 74.974h1.594v1.594l-1.594 1.578v-3.172zM221.684 76.282a2.61 2.61 0 01-1.082-1.172c-.248-.513-.371-1.131-.371-1.855v-.008c0-.422.049-.864.148-1.328a7.673 7.673 0 01.532-1.597l.109-.223 2.469-4.891h1.719l-2.898 5.664.008-.281c.13-.245.32-.435.57-.57.25-.135.542-.203.875-.203.588 0 1.094.133 1.516.398s.742.652.961 1.16.328 1.119.328 1.832v.008c0 .729-.124 1.354-.371 1.875a2.62 2.62 0 01-1.086 1.188c-.477.271-1.048.406-1.715.406-.668-.001-1.238-.134-1.712-.403zm2.879-1.598c.273-.313.41-.758.41-1.336v-.008c0-.635-.144-1.126-.43-1.473-.287-.346-.695-.52-1.227-.52-.474 0-.841.175-1.102.523-.261.349-.391.841-.391 1.477v.008c0 .578.137 1.022.41 1.332.273.31.66.465 1.16.465.507.001.897-.155 1.17-.468z"/></g><g><path d="M99.758 70.849h-1.594v-9.625l-1.617.992v-1.648l1.617-1.078h1.594v11.359zM103.16 70.115c-.55-.567-.824-1.359-.824-2.375v-5.164c0-1.021.276-1.813.828-2.379.552-.565 1.356-.848 2.414-.848 1.063 0 1.868.281 2.418.844.549.563.824 1.357.824 2.383v5.164c0 1.021-.276 1.814-.828 2.379-.552.565-1.357.848-2.414.848-1.062 0-1.868-.284-2.418-.852zm3.664-1.105c.268-.294.402-.717.402-1.27v-5.164c0-.552-.133-.975-.398-1.27-.266-.294-.683-.441-1.25-.441-.568 0-.984.147-1.25.441-.266.294-.398.718-.398 1.27v5.164c0 .552.134.976.402 1.27.268.294.684.441 1.246.441s.978-.147 1.246-.441zM111.008 69.256h1.594v1.594l-1.594 1.578v-3.172zM118.813 65.209l-.008.281c-.13.24-.327.416-.59.527a2.372 2.372 0 01-.934.168c-.542 0-1.019-.138-1.43-.414-.412-.276-.73-.665-.957-1.168-.227-.502-.34-1.084-.34-1.746v-.008c0-.734.124-1.362.371-1.883a2.615 2.615 0 011.086-1.188c.477-.271 1.048-.406 1.715-.406s1.237.138 1.711.414c.474.276.834.677 1.082 1.203.247.526.371 1.159.371 1.898v.008c0 .406-.052.84-.156 1.301a8.052 8.052 0 01-.445 1.371l-.094.207c-.031.07-.065.14-.102.207l-2.422 4.867h-1.719l2.861-5.639zm.074-.985c.273-.338.41-.815.41-1.43v-.008c0-.599-.137-1.063-.41-1.391s-.66-.492-1.16-.492c-.505 0-.895.164-1.168.492s-.41.794-.41 1.398v.008c0 .615.137 1.09.41 1.426.273.336.663.504 1.168.504.5.001.886-.168 1.16-.507z"/></g></g></svg>