<svg version="1.1" id="_x32_39_1_" xmlns="http://www.w3.org/2000/svg" x="0" y="0" viewBox="0 0 347.684 422.549" xml:space="preserve"><style>.st0,.st1{fill-rule:evenodd;clip-rule:evenodd}.st0{fill:#fff}.st1{stroke:#999;stroke-linecap:round;stroke-linejoin:round}.st1,.st2,.st3{fill:none;stroke-miterlimit:3}.st2{fill-rule:evenodd;clip-rule:evenodd;stroke-width:.4;stroke-linecap:round;stroke-linejoin:round;stroke:#999}.st3{stroke:#000}.st4,.st5,.st7{fill-rule:evenodd;clip-rule:evenodd}.st5,.st7{fill:none;stroke:#000;stroke-miterlimit:3}.st7{stroke:#666;stroke-width:.6;stroke-miterlimit:22.9256}</style><g id="fon"><path id="fon_2_" class="st0" d="M.001-.088h332.04v422.637H.001z"/></g><g id="mebel"><path class="st1" d="M323.263 136.507h-70.661m0 0v-26.45m0 0h70.661m0 0v26.45M315.018 112.173l1.022.081m.001 0l.992.238m0 0l.93.389m-.001 0l.841.529m0 0l.726.653m0 0l.589.755m0 0l.433.835m.001 0l.266.892m0 0l.09.918m0 0v11.638m0 0l-.09.919m0 0l-.266.89m0 0l-.433.836m-.001 0l-.589.756m0 0l-.726.651m0 0l-.841.529m0 0l-.93.39m.001 0l-.992.239m0 0l-1.022.08m-.001 0h-47.695m0 0l-2.148-.169m.001 0l-2.082-.501m0 0l-1.953-.818m0 0l-1.766-1.111m0 0l-1.524-1.369m-.001 0l-1.236-1.586m.001 0l-.911-1.755m-.001 0l-.558-1.871m.001 0l-.188-1.929m0 0l.188-1.929m0 0l.558-1.87m-.001 0l.911-1.756m.001 0l1.236-1.586m-.001 0l1.524-1.369m.001 0l1.766-1.111m0 0l1.953-.818m0 0l2.082-.502m0 0l2.148-.168m-.001 0h47.695M315.138 123.282a.945.945 0 11-1.89-.001.945.945 0 011.89.001zM249.579 136.508h3.023M323.263 74.915v29.095m0 .001l-.167.401m0-.001l-.4.166m0 0h-13.981m0 0l-.401-.166m0 0l-.166-.401m-.001.001V74.915m0 0l.166-.401m.001 0l.401-.166m0 0h13.981m0 0l.4.166m0 0l.167.401M319.106 76.049V89.01m0 .907v12.961M318.539 103.444h-8.69M309.281 102.877V76.049M309.849 75.482h8.69M319.106 102.877a.566.566 0 01-.567.566M309.849 103.444a.566.566 0 01-.567-.566M309.281 76.049c0-.313.254-.567.567-.567M318.539 75.482c.313 0 .567.253.567.567M316.722 89.917a.755.755 0 01-1.208 0h1.208zm-1.208-.907a.757.757 0 011.209 0h-1.209zM322.733 89.916v-.906m0 0h-7.748m0 0l-.301.256m0 0v.395m0-.001l.301.256m0 0h7.748M322.733 88.707v1.511m0 .001h.265m0 0v-1.511m0-.001h-.265M322.998 88.33v2.267m0-.001h.265m0 0V88.33m0 0h-.265M321.373 86.195h1.625m0 0v.094m0 0h.132m0 0v.283m0 0h.133m0 0v-1.889m0 0h-.133m0 0v.284m0 0h-.132m0 0v.094m0 0h-1.625m0 0v.322m0 0h-.416m0 0v-1.078m0 0h-.491m0 0v2.645m0 0h.491m0 0v-1.076m0 0h.416m0 0v.321M321.373 92.731h1.625m0 0v-.094m0 0h.132m0 0v-.284m0 0h.133m0 0v1.89m0 0h-.133m0 0v-.283m0 0h-.132m0 0v-.095m0 0h-1.625m0 0v-.322m0 0h-.416m0 0v1.078m0 0h-.491m0 0v-2.645m0 0h.491m0 0v1.076m0 0h.416m0 0v-.321M320.958 85.382l-.072.072M320.958 85.873l-.072-.072M321.373 85.382v.491M322.998 85.061v1.134M323.13 86.289v-1.322M320.958 93.544l-.072-.072M320.958 93.053l-.072.072M321.373 93.544v-.491M322.998 93.865v-1.134M323.13 92.637v1.323M320.958 85.628a.246.246 0 11-.492 0 .246.246 0 01.492 0zM320.958 93.298a.246.246 0 11-.492 0 .246.246 0 01.492 0zM323.263 44.686v29.096m0 0l-.167.4m0 0l-.4.166m0 0h-13.981m0 0l-.401-.166m0 0l-.166-.4m-.001 0V44.686m0 0l.166-.401m.001 0l.401-.166m0 .001h13.981m0 0l.4.166m0-.001l.167.401M319.106 45.82v12.81-12.81zm0 12.81v.151-.151zm0 1.057v12.961-12.961zM318.539 73.215h-8.69M309.281 72.648V45.819M309.849 45.253h8.69M319.106 72.648a.566.566 0 01-.567.566M309.849 73.215a.566.566 0 01-.567-.566M309.281 45.82c0-.313.254-.566.567-.566M318.539 45.253c.313 0 .567.253.567.566M316.722 59.687a.755.755 0 01-1.209 0h1.209zm-1.208-.907a.755.755 0 011.208 0h-1.208zM322.733 59.687v-.907m0 0h-7.748m0 0l-.301.256m0 0v.395m0 0l.301.256m0 0h7.748M322.733 58.478v1.511m0 0h.265m0 0v-1.511m0 0h-.265M322.998 58.101v2.267m0-.001h.265m0 0V58.1m0 .001h-.265M321.373 55.966h1.625m0 0v.094m0 0h.132m0 0v.284m0 0h.133m0 0v-1.89m0 0h-.133m0 0v.284m0 0h-.132m0 0v.094m0 0h-1.625m0 0v.322m0 0h-.416m0 0v-1.078m0 0h-.491m0 0v2.645m0 0h.491m0 0v-1.076m0 0h.416m0 0v.321M321.373 62.502h1.625m0 0v-.094m0 0h.132m0 0v-.283m0 0h.133m0 0v1.889m0 0h-.133m0 0v-.284m0 0h-.132m0 0v-.094m0 0h-1.625m0 0v-.322m0 0h-.416m0 0v1.078m0 0h-.491m0 0v-2.645m0 0h.491m0 0v1.076m0 0h.416m0 0v-.321M320.958 55.153l-.072.072M320.958 55.644l-.072-.072M321.373 55.153v.491M322.998 54.832v1.134M323.13 56.06v-1.322M320.958 63.315l-.072-.072M320.958 62.824l-.072.072M321.373 63.315v-.491M322.998 63.636v-1.134M323.13 62.408v1.322M320.958 55.399a.246.246 0 11-.492 0 .246.246 0 01.492 0zM320.958 63.069a.246.246 0 11-.492 0 .246.246 0 01.492 0zM299.686 40.681c-.889.57-1.961.88-3.063.886M302.935 33.85c.166 2.591-1.031 5.107-3.248 6.83M290.311 33.85c-.07-2.609.689-5.184 2.195-7.437M293.56 40.681c-2.217-1.723-3.413-4.239-3.248-6.83M296.623 41.567a5.751 5.751 0 01-3.063-.886M291.975 20.692h9.295v.189h-9.295zM301.27 20.692h-9.295m.001 0v.188m0 0h9.295m-.001 0v-.188M287.177 20.692h18.893M287.177 16.158h18.893M287.177 20.692v-4.535M306.07 20.692v-4.535"/><path class="st2" d="M252.602 107.732h70.66m-70.66-11.336h55.546M252.602 85.06h55.546m-55.546-11.336h55.546m-55.546-11.336h55.546m-55.546-11.336h55.546m-25.317-11.335h9.236m9.112 0h22.083m-40.431-11.336h7.654m12.277 0h6.141m1.701 81.675v-5.479m0-60.457V34.107m-22.672 75.949V20.693m-22.671 89.363V41.17"/><path class="st1" d="M290.221 35.684l.469 1.645m0 0l.718 1.552m0 0l.968 1.229m0 0l1.248.944m0 0l1.448.593m0 0l1.551.206m0-.001l1.551-.206m0 .001l1.448-.593m0 0l1.248-.944m0 0l.968-1.229m0 0l.718-1.552m0 0l.469-1.645m0 0l.207-1.697m0 0l-.059-1.71m0-.001l-1.223-11.584m0 .001h-10.654m0 0l-1.223 11.584m0-.001l-.06 1.71m0 .001l.208 1.697M300.739 26.413h-4.116M296.623 26.413h-4.116M300.739 26.413c1.506 2.253 2.266 4.828 2.195 7.437M282.831 10.941V41.17M282.831 41.17h-30.229M252.602 41.17V10.941M277.163 17.554a.945.945 0 11-1.89 0 .945.945 0 011.89 0zM268.194 23.925l1.396.372m0 0l1.209.793m0 0l.898 1.132m0 0l.496 1.358m0 0l.043 1.445m0 0l-.413 1.385m0 0l-.829 1.184m0 0l-1.159.864m0 0l-1.372.455m0 0h-1.445m0 0l-1.372-.455m0 0l-1.16-.864m0 0l-.828-1.184m0 0l-.414-1.385m0 0l.044-1.445m0 0l.495-1.358m0 0l.899-1.132m0 0l1.208-.793m0 0l1.397-.372m0 0v-5.538m0 0l-.456.108m0 0l-.489.037m0 0l-.489-.037m0 0l-.455-.108m0 0l-.392-.172m0 0l-.3-.225m0 0l-.189-.261m0 0l-.064-.281m0 0v-.402m0 0l.019-.12m0 0l.064-.278m0 0l.055-.103m0 0l.181-.251m0 0l.078-.07m0 0l.274-.205m0 0l.357-.157m0 0l.195-.052m0 0l.25-.059m0 0l.019-.688m0 0l.01-.796m0 0h-1.729m0 0v-.435m0 0h-2.871m0 0l-.16-.059m0 0l-.083-.148m0 0l.033-.167m0 0l.133-.105m0 0l.486-.157m0 0l.726-.315m0 0l1.007-.574m0 0l.729-.258m0 0v-.125m0 0h-.604m0 0v-.982m0 0h2.57m0 0v.877m0 0l.023.01m0 0l.039.028m0 0l.032.034m0 0l.026.04m0 0l.278.673m0 0h.697m0 0v-1.36m0 0h-1.058m0 0v-.302m0 0h3.023m0 0v.302m0 0h-1.058m0 0v1.36m0 0h1.436m0 0v.152m0 0h.416m0 0v-.303m0 0h-.152m0 0v-.529m0 0h-.604m0 0v-.982m0 0h2.569m0 0v.982m0 0h-.604m0 0v.529m0 0h-.151m0 0v.303m0 0h.151m0 0v1.511m0 0h-2.57m0 0v2.154m0 0h-.023m0 0h-.059m0 0h-.094m0 0h-.124m0 0h-.149m0 0h-.042m0 0v7.504M265.851 12.604h.209m0 0l-.14-.341m0 0l-.325-.053m0 0l-.009.002m0 0v.241m0 0h-.151m0 0v.302m0 0h.416m0 0v-.151M264.378 12.755v-.241m0 0l-.677.24m0 0l-.988.563m-.001 0l-.052.023m.001 0h1.566m-.001 0v-.585m0 0h.151M270.234 11.924v.529M270.914 11.924v.529M264.577 11.924h-.351M265.436 12.453h-.189M265.246 12.453h-.68M264.566 12.453h-.014M265.246 12.277v.176M264.566 12.448v.005M264.378 12.755h1.057M266.729 14.266h.559M264.226 13.341v.491M266.796 14.833h.491M261.431 13.82l-.076.012M265.58 11.716l.046.002M265.41 11.748l.169-.032M266.124 11.8l.047.01M266.171 11.81l.02.009M264.226 12.048l.453-.161M264.679 11.888l.731-.139M265.535 12.221l.06-.011M261.431 13.82l.512-.167M261.942 13.653l.718-.312M264.637 11.904h.001M265.627 11.718l.498.082M267.285 16.321l.002-.001M267.287 15.791l-.002-.001M265.851 13.151v-.127M265.851 12.906v-.103M265.851 13.024v-.118M266.061 12.604h.523M264.814 12.36l.721-.139M264.378 12.515l.436-.155M266.531 13.237h.108a.108.108 0 00-.108-.108.108.108 0 10.108.108h-.108zM266.44 13.193l.091.044M266.342 13.178l.098.015M266.245 13.193l.098-.015M266.153 13.237l.091-.044M266.154 13.237h.108a.108.108 0 10-.216 0 .108.108 0 00.216 0h-.108zM265.997 15.733l.345-.025M266.342 15.708l.345.025M265.926 15.75l.071-.017M267.008 15.81l.196.052M266.687 15.733l.321.077M265.974 13.404l-.009.062M267.204 15.862l.083.037M266.758 15.75l-.019-.688M266.72 13.466l-.009-.062M266.711 13.404l-.026-.058M266.685 13.347l-.042-.05M266.643 13.297l-.055-.038M266.588 13.259l-.056-.021M266.531 13.238l-.007-.003M266.524 13.235l-.068-.008M266.456 13.227h-.228M266.229 13.227l-.068.008M266.161 13.235l-.007.003M266.153 13.238l-.056.021M266.097 13.259l-.055.038M266.042 13.297l-.042.05M266 13.347l-.026.058M266.739 15.062l-.019-1.595M265.955 14.266l.009-.799M265.851 13.964h.107M266.726 13.964h.561M268.194 23.925v5.343M267.287 23.925v5.343M268.194 29.267h-.907M271.254 11.924h-1.36M271.103 12.453h-1.058M271.103 12.755h-1.058M269.629 12.755v1.209M265.851 13.964v-1.209M268.194 11.244h-.907M268.194 12.604v3.816M267.287 18.387v-5.783M269.629 13.964h-1.436M268.684 14.266h-.491M268.684 14.833h-.491M266.796 14.266v1.493M268.194 26.602a1.889 1.889 0 11-.907 0M269.629 13.292a.34.34 0 01.34.589.344.344 0 01-.34 0M252.602 10.941l30.04.009M282.642 10.951v9.93"/><g><path class="st1" d="M184.587 10.921h22.672m0 0l42.352.021m0 0v23.542m0 0h-42.353m0 0l.001 47.8m0 0h-22.672m0 0V10.921M196.3 82.284h-.755m0 0V22.393m0 0l.755.755m0 0v59.136M186.579 57.222h18.626m.001 0v.756m0 0H186.58m-.001 0v-.756M186.579 59.227h18.626m.001 0v.756m0 0H186.58m-.001 0v-.756M186.579 61.231h18.626m.001 0v.755m0 0H186.58m-.001 0v-.755M186.579 63.236h18.626m.001 0v.756m0 0H186.58m-.001 0v-.756M186.715 67.482l18.491-2.241m0 0l.091.75m0 0l-18.491 2.241m0 0l-.091-.75M249.611 23.148v-.755m0 0h-54.066m0 0l.755.755m0 0h53.311M237.73 13.427v18.626m0 0h-.756m0 0V13.427m0 0h.756M235.725 13.427v18.626m0 0h-.756m0 0V13.427m0 0h.756M233.72 13.427v18.626m0 0h-.756m0 0V13.427m0 0h.756M231.716 13.427v18.626m0 0h-.756m0 0V13.427m0 0h.756M227.47 13.563l2.241 18.49m0 0l-.75.092m0 0l-2.241-18.491m0 0l.75-.091"/></g><g><path class="st1" d="M61.781 20.358a3.778 3.778 0 11-7.557 0 3.778 3.778 0 017.557 0z"/><path class="st1" d="M59.136 20.358a1.134 1.134 0 11-2.267-.001 1.134 1.134 0 012.267.001zM150.579 20.358a3.779 3.779 0 11-7.558-.002 3.779 3.779 0 017.558.002z"/><path class="st1" d="M147.934 20.358a1.134 1.134 0 11-2.267-.001 1.134 1.134 0 012.267.001zM136.221 90.257H68.205m0 0V14.684m0 0h68.016m0 0v75.573M134.332 92.146H70.095m0 0l-.723-.144m-.001 0l-.613-.409m.001 0l-.409-.613m0 0l-.144-.723m0 0h68.015m0 0l-.143.723m-.001 0l-.41.613m.001 0l-.613.409m-.001 0l-.723.144M136.221 10.906H68.205m0 0v3.778m0 0h68.016m0 0v-3.778M68.205 10.906h68.016m0 0v1.889m0 0H68.205m0 0v-1.889M66.316 10.906H49.312m0 0v18.893m0 0h17.004m0 0V10.906M138.11 10.906h17.004m0 0v18.893m0 0H138.11m0 0V10.906M96.167 16.573H70.473m0 0l-.267.111m0 0l-.111.267m0 0v12.47m0 0l.111.267m0 0l.267.111m0 0h25.694m0 0l.268-.111m0 0l.11-.267m0 0v-12.47m0 0l-.11-.267m0 0l-.268-.111M108.259 16.573h25.695m0 0l.267.111m0 0l.111.267m0 0v12.47m0 0l-.111.267m0 0l-.267.111m0 0h-25.695m0 0l-.267-.111m0 0l-.111-.267m0 0v-12.47m0 0l.111-.267m0 0l.267-.111M136.221 28.775h-1.889M107.881 28.775H96.545M70.095 28.775h-1.89M136.221 33.785H68.205m0 0v18.686m0 0l68.016-14.908m0 0v-3.778M54.323 21.218l3.679-.86m0 0l1.584-3.431m0 0l-1.584 3.431m0 0l1.306 3.546M150.48 21.218l-3.68-.86m0 0l-1.583-3.431m0 0l1.583 3.431m0 0l-1.305 3.546"/></g><g><path class="st2" d="M309.548 282.362l4.079-4.08m-11.026 4.08l11.026-11.026m-17.973 11.026l11.991-11.991m-18.938 11.991l11.371-11.371m12.062-12.062l1.487-1.487m-30.796 23.849l12.079-12.079m10.946-10.946l7.771-7.77m-30.796 23.848l9.671-9.671m6.735-6.735l8.827-8.827m-25.355 18.408l18.409-18.409m-25.084 18.137l24.557-24.557m-31.504 24.557l31.504-31.504m-38.451 31.504l38.451-38.451m-45.398 38.451l40.809-40.809m-43.4 36.453l36.453-36.453m-36.453 29.506l29.507-29.506m-29.507 22.559l22.559-22.559m-22.559 15.612l15.613-15.612m-15.613 8.665l8.666-8.665m-8.666 1.718l1.718-1.718m46.271 5.017l-5.017-5.017m18.053 25l-2.328-2.328m-10.708-10.708l-11.964-11.964m25 31.947l-9.275-9.275m-3.761-3.761l-18.911-18.911m24.964 31.911l-31.91-31.911m38.893 45.841l-2.297-2.297m-12.05-12.049l-31.494-31.494m45.841 52.787l-8.58-8.58m-10.638-10.638l-33.569-33.57m48.976 55.924l-11.693-11.693m-5.564-5.564l-38.666-38.666m48.976 55.923l-50.267-50.268m43.321 50.268l-13.092-13.091m-2.023-2.024l-28.206-28.205m36.374 43.32l-6.145-6.145m-8.97-8.97l-21.258-21.258m14.31 21.258l-14.311-14.311m7.364 14.311l-7.364-7.364m.462 7.408l-.462-.462"/><path class="st1" d="M298.635 258.012l-1.645.469m0 0l-1.552.718m0 0l-1.229.968m0 0l-.943 1.248m0 0l-.594 1.448m0 0l-.205 1.551m0 0l.205 1.551m0 0l.594 1.448m0 0l.943 1.248m0 0l1.229.968m0 0l1.552.718m0 0l1.645.469m0 0l1.698.207m0 0l1.709-.059m0 0l11.585-1.223m0 0v-10.654m0 0l-11.585-1.223m0 0l-1.709-.06m0 0l-1.698.208M307.905 268.53v-4.117M307.905 264.413v-4.115M293.639 267.477a5.746 5.746 0 01-.886-3.064M300.468 270.725c-2.591.166-5.106-1.031-6.83-3.248M307.905 268.53c-2.252 1.505-4.828 2.266-7.437 2.195M300.468 258.102c2.609-.07 5.185.689 7.437 2.195M293.639 261.35c1.723-2.217 4.238-3.413 6.83-3.248M292.753 264.413a5.742 5.742 0 01.886-3.063M313.438 259.765h.189v9.296h-.189zM313.627 269.061v-9.295m0 0h-.189m0 0v9.295m0 0h.189M313.627 254.967v18.893M318.161 254.967v18.893M313.627 254.967h4.534M313.627 273.86h4.534M282.265 282.362h-29.096m0 0l-.401-.166m0 0l-.166-.401m0 0v-13.981m0 0l.166-.4m0 0l.401-.167m0 0h29.096m0 0l.4.167m0 0l.166.4m0 0v13.981m0 0l-.166.401m0 0l-.4.166M281.131 278.205H268.17m-.907 0h-12.961M253.736 277.639v-8.691M254.302 268.381h26.829M281.697 268.948v8.691M254.302 278.205a.566.566 0 01-.566-.566M253.736 268.948c0-.313.253-.566.566-.566M281.131 268.381c.313 0 .566.253.566.566M281.697 277.639a.566.566 0 01-.566.566M268.473 275.217a.755.755 0 01-.303.605v-1.21a.755.755 0 01.303.605zm-1.21.604a.755.755 0 010-1.208v1.208zM267.263 281.833h.907m0 0v-7.748m0 0l-.256-.301m0 0h-.395m0 0l-.256.301m0 0v7.748M268.473 281.833h-1.512m0 0v.265m0 0h1.512m0 0v-.265M268.85 282.098h-2.267m0 0v.265m0 0h2.267m0 0v-.265M270.985 280.473v1.625m0 0h-.095m0 0v.132m0-.001h-.283m0 0v.133m0 .001h1.889m0 0v-.133m0-.001h-.283m0 0v-.132m0 .001h-.095m0 0v-1.625m0 0h-.321m0 0v-.416m0 0h1.077m0 0v-.491m0-.001h-2.645m0 0v.491m0 .001h1.077m0 0v.416m0 0h-.321M264.448 280.473v1.625m0 0h.094m0 0v.132m0-.001h.284m0 0v.133m0 .001h-1.89m0 0v-.133m0-.001h.284m0 0v-.132m0 .001h.094m0 0v-1.625m0 0h.322m0 0v-.416m0 0h-1.078m0 0v-.491m0-.001h2.646m0 0v.491m0 .001h-1.077m0 0v.416m0 0h.321M271.797 280.057l-.072-.072M271.306 280.057l.072-.072M271.797 280.473h-.491M272.119 282.098h-1.133M270.891 282.23h1.321M263.636 280.057l.072-.072M264.127 280.057l-.072-.072M263.636 280.473h.491M263.314 282.098h1.134M264.542 282.23h-1.322M271.797 279.812a.246.246 0 11-.492 0 .246.246 0 01.492 0zM264.127 279.812a.246.246 0 11-.492 0 .246.246 0 01.492 0zM300.591 249.11h22.672m0 0v-22.672m0 0h-22.672m0 0v22.672M323.263 226.438v22.484M313.438 248.921h3.023M323.263 248.921h-6.802M321.297 237.774a7.179 7.179 0 01-7.179 7.179 7.179 7.179 0 110-14.359 7.18 7.18 0 017.179 7.18zM314.634 231.767l-.449 1.233m0 0v1.312m0 0l.449 1.233m0 0l-.342 1.473m0-.001v1.513m0 .001l.342 1.473m0-.001l-.45 1.235m0 .001v1.314m0-.001l.45 1.234m0 .001l-2.987-2.231m0-.001v-7.558m0 0l2.987-2.231M311.385 233.998v7.557m0 0h.261m0 0v-7.557m0 0h-.261M310.862 233.998v7.557m0 0h.262m0 0v-7.557m0 0h-.262M316.15 238.618l.085-.891m-.001 0l-.226-.021m0 0l-.046.477m0 0l-1.142-1.384m0 0l-.152.126m0-.001l.53.642m0 .001l-.082.067m0 0l-.61-.74m.001 0l-.147.121m-.001 0l.611.74m0 0l-.097.08m0 0l-.497-.601m0 0l-.13.107m0 0l.497.602m0 0l-.098.08m0 0l-.342-.414m0-.001l-.14.115m0 .001l1.174 1.422M323.263 226.438v22.672m0 0h-22.672m0 0v-22.672m0 0h22.672"/><g><path class="st1" d="M252.602 139.53v22.672m0 0h70.661m0 0V139.53m0 0h-70.661M323.263 151.244v-.755m0-.001h-70.661m0 0v.755m0 .001h70.661M259.188 141.523v18.626m0 0h.756m0 0v-18.626m0 0h-.756M261.193 141.523v18.626m0 0h.756m0 0v-18.626m0 0h-.756M263.198 141.523v18.626m0 0h.755m0 0v-18.626m0 0h-.755M265.203 141.523v18.626m0 0h.756m0 0v-18.626m0 0h-.756M269.448 141.658l-2.241 18.491m0 0l.75.091m0 0l2.241-18.491m0 0l-.75-.091"/></g><g><path class="st1" d="M23.806 282.362v-16.626m0 0h162.481m0 0v16.626m0 0H23.806M171.21 275.97v1.02m0 0h-44.369m0 0v-1.02m0 0h44.369M161.749 276.99v.833m0 0l-.152.566m0 0l-.415.415m0 0l-.567.152m.001 0h-22.699m0 0l-.566-.152m-.001 0l-.415-.415m.001 0l-.152-.566m0 0v-.833m0 0h24.966M171.21 275.672v.297m0 0h-44.369m0 0v-.297m0 0h44.369"/><g><path class="st1" d="M23.806 139.53h153.979M177.785 139.53v22.672M103.724 160.123H81.808m0 0v-18.515m0 0h21.916m0 0v18.515M92.766 148.844v-5.299M92.766 143.545H91.67M92.766 148.844H91.67M83.912 148.844v-5.299M85.008 143.545h-1.096M85.008 148.844h-1.096M101.752 145.978a2.74 2.74 0 11-5.479 0 2.74 2.74 0 015.479 0zM101.708 154.217a3.967 3.967 0 11-7.934 0 3.967 3.967 0 017.934 0z"/><path class="st1" d="M100.008 154.217a2.267 2.267 0 11-4.535 0 2.267 2.267 0 014.535 0zM90.984 146.163a2.645 2.645 0 11-5.29 0 2.645 2.645 0 015.29 0zM90.622 154.754a3.4 3.4 0 11-6.803-.001 3.4 3.4 0 016.803.001zM105.991 162.202h-26.45M105.991 139.53h-26.45M105.991 162.202V139.53M79.541 162.202V139.53M132.253 159.368h19.271m0 0l.534-.221m0 0l.221-.534m0 0v-17.382m0 0l-.221-.535m0 0l-.534-.221m0 0h-19.271m0 0l-.535.221m0 0l-.221.535m0 0v17.382m0 0l.221.534m0 0l.535.221M128.663 162.202h26.451M128.663 139.53h26.451M128.663 162.202V139.53M155.114 162.202V139.53M134.142 157.478h15.492M150.39 156.723v-11.714M149.634 144.253h-7.002m-1.488 0h-7.002M133.386 145.009v11.714M134.142 157.478h.108a.108.108 0 00-.108-.108.108.108 0 10.108.108h-.108zM150.39 156.723a.756.756 0 01-.756.756M149.634 144.253c.417 0 .756.338.756.755M133.386 145.009c0-.417.338-.755.756-.755M134.142 157.478a.756.756 0 01-.756-.756M141.548 149.086l.101.24m0 0l.24.099m0 0l.241-.1m0 0l.099-.241m0 0v-7.476m0 0l-.1-.24m0 0l-.241-.1m0 0l-.24.1m0 0l-.1.24m0 0v7.478M141.134 143.535h.414m0 0v-1.927m0 0l.1-.24m0 0l.24-.1m0 0l.241.1m0 0l.1.24m0 0v1.927m0 0h.414m0 0v-2.456m0 0h-1.509m0 0v2.456M141.144 144.895h.404m0 0v-1.322m0 0h-.404m0 0v1.322M142.633 144.895v-1.322m0 0h-.404m0 0v1.322m0 0h.404M155.114 162.202h22.671m0 0V139.53m0 0h-22.671m0 0v22.672M166.449 147.087v7.557M163.777 148.194l5.344 5.344M162.671 150.865h7.557M163.777 153.538l5.344-5.344M23.806 162.202h22.671m0 0V139.53m0 0H23.806m0 0v22.672M105.991 162.202h22.672M105.991 139.53h22.672M105.991 162.202V139.53M128.663 162.202V139.53M46.478 162.202H69.15m-.001 0V139.53m0 0H46.478m0 0v22.672M69.149 162.202h10.392m0 0V139.53m0 0H69.149m0 0v22.672M117.582 153.689a3.412 3.412 0 11-6.823 0 3.412 3.412 0 016.823 0z"/><path class="st1" d="M117.061 153.689a2.89 2.89 0 11-5.78 0 2.89 2.89 0 015.78 0zM123.058 154.521a2.58 2.58 0 11-5.161-.001 2.58 2.58 0 015.161.001z"/><path class="st1" d="M121.924 154.521a1.445 1.445 0 11-2.89 0 1.445 1.445 0 012.89 0zM110.102 155.896h.964m0 0v1.205m0 0h12.524m0 0v-1.205m0 0h.963M121.199 146.37l-.047.103m-.047.103l-.047.103m-.047.103l-.047.103m-.047.104l-.048.103m-.047.103l-.047.103m-.047.103l-.047.103m-.047.103l-.047.103m-.048.103l-.047.103m-.047.103l-.047.103m-.047.103l-.047.103m-.047.104l-.048.103m-.047.103l-.047.103m-.047.103l-.047.103m-.048.103l-.046.103m-.047.103l-.048.103m-.047.104l-.047.103m-.047.103l-.047.103M121.199 146.37h-.078m-.112 0h-.114m-.113 0h-.114m-.113 0h-.078m0 0l-.042.051m-.071.089l-.072.088m-.071.087l-.071.088m-.072.088l-.071.089m-.072.087l-.071.088m-.072.088l-.071.089m-.072.088l-.071.087m-.071.088l-.072.089m-.072.088l-.072.087m-.07.088l-.072.089m-.071.088l-.071.088m-.072.087l-.071.088m-.072.089l-.071.088m-.072.087l-.072.088m-.071.089l-.071.088m-.072.088l-.071.087m-.071.089l-.072.088m-.072.088l-.071.087m-.071.089l-.072.088m-.071.088l-.071.088m-.072.087l-.072.089m-.071.088l-.072.088m-.071.087l-.042.052M121.199 145.892h-9.634m.001 0v.479m0 0h.722m0 0v-.238m0-.001h8.189m0 0v.238m0 .001h.723m-.001 0v-.479M111.565 146.37l.047.103m.048.103l.048.103m.046.103l.047.103m.048.104l.047.103m.046.103l.048.103m.047.103l.047.103m.048.103l.047.103m.047.103l.047.103m.046.103l.048.103m.047.103l.047.103m.047.104l.047.103m.049.103l.047.103m.047.103l.047.103m.048.103l.046.103m.046.103l.048.103m.047.104l.047.103m.048.103l.047.103M111.565 146.37h.078m.114 0h.114m.112 0h.114m.114 0h.078m0 0l.042.051m.07.089l.071.088m.072.087l.071.088m.072.088l.071.089m.072.087l.071.088m.072.088l.071.089m.073.088l.071.087m.071.088l.072.089m.07.088l.072.087m.072.088l.072.089m.071.088l.071.088m.072.087l.071.088m.071.089l.071.088m.073.087l.072.088m.07.089l.071.088m.072.088l.071.087m.071.089l.072.088m.072.088l.071.087m.071.089l.072.088m.071.088l.071.088m.072.087l.072.089m.071.088l.071.088m.072.087l.042.052"/><g><path class="st1" d="M114.645 202.255v1.889m0 0h73.381m-.001 0v-1.889m0 0h-73.381M114.645 240.041h36.69m0 0v-26.45m0 0h-36.69m0 0v26.45M151.334 240.041h36.691m0 0v-26.45m0 0h-36.691m0 0v26.45M188.025 240.041h9.598m0 0v-37.786m0 0h-9.598m0 0v1.889m0 9.447v26.45M105.047 240.041h9.598m0 0v-26.45m0-9.447v-1.889m0 0h-9.598m0 0v37.786M151.334 204.144v9.447m0 0h41.49m0 0v-9.447m0 0h-41.49M151.334 204.144v9.447m0 0h-41.489m0 0v-9.447m0 0h41.489M79.119 204.862l-4.109-4.109m.001 0l-.426-.407m0 0l-.43-.371m0 0l-.424-.328m0 0l-.403-.276m0 0l-.017-.009m0 0l-.375-.216m0 0l-.332-.147m0 0l-.025-.008m0 0l-.281-.075m0 0l-.028-.004m0 0l-.22.002m0 0l-.03.002m0 0l-.029.007m0 0l-.027.013m0 0l-.154.078m0 0l-.024.018m0 0l-.012.01m-.001 0l-1.133 1.134m0 0l-1.03-1.029m.001 0l-5.217 5.217m11.114 11.116l5.217-5.218m.001 0l-1.029-1.029m0 0l1.134-1.134m-.001 0l.011-.011m.001 0l.017-.025m0 0l.078-.154m0 0l.013-.027m0 0l.008-.029m0 0l.002-.029m0 0l.001-.221m0 0l-.003-.028m0 0l-.075-.281m0 0l-.008-.025m0 0l-.148-.332m0 0l-.214-.376m0 0l-.011-.016m0 0l-.276-.404m0 0l-.328-.423m0 0l-.371-.429m0 0l-.407-.427M69.972 200.844l9.057 9.057M70.095 200.968l.897-.898M78.905 209.777l.898-.898M75.032 213.898l4.664-4.665M65.975 204.841l4.664-4.664M73.981 201.775l4.117 4.117M70.993 200.07c.354-.354 1.691.409 2.988 1.706M78.097 205.891c1.296 1.296 2.06 2.634 1.705 2.988M42.521 233.243l4.108 4.108m0 .001l.427.408m0 0l.43.371m0 0l.423.328m0 0l.404.275m0 0l.016.011m0 0l.376.215m0-.001l.332.147m0 .001l.024.008m0 0l.281.075m0 0l.029.003m0-.001l.22-.001m0 .001l.03-.002m0 0l.028-.008m0-.001l.027-.012m0 .001l.154-.078m0 0l.025-.018m0-.001l.011-.011m0 .001L51 237.93m0 0l1.029 1.029m0 0l5.219-5.218m-11.117-11.114l-5.216 5.217m0-.001l1.029 1.029m0 0l-1.135 1.134m0 .001l-.01.011m0 0l-.017.025m0 0l-.078.153m0 0l-.013.027m0 0l-.008.03m0 0l-.002.029m0-.001l-.001.221m0 .001l.003.027m0 0l.074.282m0 0l.009.025m0 0l.147.332m0-.001l.215.375m0 0l.01.016m0 .001l.276.404m0 0l.329.424m0 0l.371.429m0 0l.407.427M51.668 237.261l-9.057-9.057M51.545 237.137l-.898.898M42.735 228.328l-.897.896M46.608 224.208l-4.663 4.664M55.665 233.264l-4.664 4.664M47.66 236.33l-4.117-4.117M50.647 238.036c-.354.354-1.692-.409-2.988-1.705M43.542 232.213c-1.296-1.296-2.06-2.634-1.705-2.988M46.629 200.753l-4.108 4.109m0 0l-.408.427m0 0l-.371.429m0 0l-.329.423m0 0l-.275.404m0 0l-.01.016m0 0l-.216.376m0 0l-.146.332m0 0l-.009.025m0 0l-.074.281m0 0l-.003.028m.001 0l.001.221m-.001 0l.002.029m0 0l.008.029m0 0l.012.027m0 0l.078.154m0 0l.018.024m0 0l.01.012m.001 0l1.134 1.133m-.001 0l-1.029 1.03m0 0l5.217 5.217m11.115-11.115l-5.218-5.217m0 0L51 200.176m0 0l-1.135-1.134m0 0l-.01-.01m0 0l-.026-.018m0 0l-.153-.078m0 0l-.027-.013m0 0l-.029-.007m0 0l-.029-.002m.001 0l-.221-.002m-.001 0l-.028.004m0 0l-.281.075m.001 0l-.025.008m0 0l-.332.147m-.001 0l-.376.215m0 0l-.015.01m0 0l-.405.276m0 0l-.423.328m0 0l-.429.371m.001 0l-.427.407M42.612 209.901l9.057-9.057M42.735 209.777l-.897-.898M51.545 200.968l-.898-.898M55.665 204.841l-4.664-4.664M46.608 213.897l-4.663-4.664M43.542 205.892l4.118-4.117M41.837 208.879c-.354-.354.409-1.692 1.705-2.988M47.659 201.774c1.297-1.296 2.635-2.059 2.988-1.705M75.01 237.352l4.109-4.108m0 0l.408-.427m0 0l.371-.43m0 0l.328-.424m0 0l.275-.403m0 0l.011-.017m0 0l.215-.375m0 0l.147-.332m0 0l.008-.024m0 0l.075-.282m0 0l.003-.028m0 0l-.001-.22m0 0l-.002-.03m0 0l-.008-.029m0 0l-.012-.027m0 0l-.078-.154m0 0l-.018-.024m0 0l-.011-.012m0 0l-1.133-1.133m0 0l1.029-1.03m0 0l-5.218-5.218M64.393 233.74l5.219 5.218m-.001 0l1.029-1.029m0 0l1.134 1.134m0 0l.011.011m0 0l.025.017m0 0l.153.078m0 0l.027.013m0 0l.03.008m0 0l.029.002m0 0l.221.001m0 0l.027-.003m0 0l.281-.075m0 0l.026-.008m0 0l.332-.148m0 0l.375-.214m0 0l.016-.011m0 0l.404-.276m0 0l.424-.328m0 0l.429-.371m0 0l.426-.407M79.029 228.205l-9.057 9.057M78.905 228.328l.898.896M70.095 237.137l.897.898M65.975 233.264l4.664 4.664M75.032 224.207l4.664 4.665M78.098 232.213l-4.117 4.117M79.803 229.225c.354.354-.409 1.691-1.705 2.987M73.981 236.329c-1.296 1.296-2.634 2.06-2.988 1.705M75.934 219.052c0 8.348-6.767 15.114-15.114 15.114-8.348 0-15.115-6.766-15.115-15.114 0-8.347 6.767-15.114 15.115-15.114 8.347 0 15.114 6.767 15.114 15.114z"/></g></g></g></g><g><path class="st1" d="M303.236 299.932a.945.945 0 11-1.89 0 .945.945 0 011.89 0zM282.149 306.304l1.397.372m0 0l1.208.793m0 0l.898 1.132m0-.001l.497 1.358m0 .001l.042 1.445m0 0l-.413 1.385m.001 0l-.829 1.184m-.001 0l-1.159.864m0 0l-1.372.455m0 0h-1.445m0 0l-1.372-.455m0 0l-1.16-.864m0 0l-.828-1.184m0 0l-.414-1.385m0 0l.044-1.445m0 0l.495-1.358m0-.001l.898-1.132m0 .001l1.209-.793m0 0l1.397-.372m0 0v-5.538m0 0l-.456.108m0 0l-.489.037m0 0l-.489-.037m.001 0l-.455-.108m-.001 0l-.392-.172m0 0l-.3-.225m0 0l-.189-.261m.001 0l-.064-.281m-.001 0v-.402m0 0l.019-.12m0 0l.064-.278m0 0l.055-.103m0 0l.181-.251m0 0l.078-.071m0 0l.274-.204m0 0l.357-.157m0 0l.195-.052m0 0l.25-.059m0 0l.02-.688m0 0l.009-.796m0 0h-1.729m0 0v-.435m0 0h-2.871m0 0l-.16-.059m0 0l-.083-.148m.001 0l.033-.167m-.001 0l.133-.105m0 0l.486-.157m0 0l.726-.315m0 0l1.007-.574m0-.001l.729-.258m0 .001v-.125m0 0h-.604m0 0v-.982m0 0h2.569m0 0v.877m0 0l.024.01m0 0l.039.028m0 0l.033.034m0 0l.025.04m0 0l.278.673m.001 0h.697m-.001 0v-1.36m0 0h-1.058m0 0v-.302m0 0h3.023m0 0v.302m0 0h-1.058m0 0v1.36m0 0h1.436m0 0v.151m0 0h.416m0 0v-.302m0 0h-.152m0 0v-.529m0 0h-.604m0 0v-.982m0 0h2.569m0 0v.982m0 0h-.604m0 0v.529m0 0h-.152m.001 0v.302m0 0h.152m-.001 0v1.512m0 0h-2.57m0 0v2.154m0 0h-.023m0 0h-.059m0 0h-.094m.001 0h-.123m-.001 0h-.15m0 0h-.042m0 0v7.504M279.807 294.983h.209m0 0l-.14-.341m0 0l-.325-.053m0 0l-.009.002m0 0v.241m0 0h-.151m0 0v.302m0 0h.416m0 0v-.151M278.333 295.134v-.24m0 0l-.677.239m0 0l-.988.564m0 0l-.052.023m0 0h1.566m0 0v-.586m0 0h.151M284.189 294.303v.529M284.87 294.303v.529M278.533 294.303h-.351M279.391 294.831h-.189M279.202 294.831h-.68M278.522 294.831h-.014M279.202 294.656v.176M278.522 294.827v.005M278.333 295.134h1.058M280.685 296.645h.558M278.182 295.72v.491M280.751 297.212h.491M275.386 296.199l-.076.012M279.535 294.095l.047.002M279.365 294.127l.17-.032M280.08 294.179l.047.01M280.127 294.189l.02.009M278.182 294.427l.453-.161M278.635 294.267l.73-.139M279.491 294.6l.06-.011M275.386 296.199l.512-.167M275.898 296.032l.718-.312M278.593 294.284h.108a.108.108 0 10-.216 0 .108.108 0 00.216 0h-.108zM279.582 294.097l.498.082M281.24 298.7l.002-.001M281.243 298.17l-.002-.002M279.807 295.53v-.127M279.807 295.285v-.103M279.807 295.403v-.118M280.016 294.983h.523M278.769 294.739l.722-.14M278.333 294.894l.436-.154M280.487 295.616h.108a.108.108 0 00-.108-.108.108.108 0 00-.108.108c0 .06.048.108.108.108s.108-.048.108-.108h-.108zM280.396 295.572l.09.044M280.298 295.557l.098.015M280.2 295.572l.098-.015M280.109 295.616l.091-.044M280.109 295.616h.108a.108.108 0 00-.108-.108.108.108 0 00-.108.108.108.108 0 00.216 0h-.108zM279.953 298.112l.345-.025M280.298 298.087l.345.025M279.882 298.129l.071-.017M280.964 298.189l.196.052M280.643 298.112l.321.077M279.929 295.783l-.009.062M281.16 298.241l.083.036M280.714 298.129l-.02-.688M280.676 295.845l-.009-.062M280.667 295.783l-.027-.058M280.64 295.726l-.042-.05M280.598 295.676l-.055-.038M280.543 295.638l-.056-.021M280.487 295.617l-.007-.003M280.479 295.614l-.068-.008M280.411 295.605h-.227M280.185 295.605l-.068.009M280.116 295.614l-.007.003M280.108 295.617l-.056.021M280.052 295.638l-.055.038M279.997 295.676l-.042.05M279.955 295.726l-.026.058M280.694 297.441l-.019-1.596M279.911 296.645l.009-.8M279.807 296.343h.107M280.682 296.343h.561M282.149 306.304v5.343M281.243 306.304v5.343M282.149 311.646h-.907M285.21 294.303h-1.36M285.059 294.831h-1.058M285.059 295.134h-1.058M283.585 295.134v1.209M279.807 296.343v-1.209M282.149 293.623h-.907M282.149 294.983v3.816M281.243 300.766v-5.783M283.585 296.343h-1.436M282.64 296.645h-.491M282.64 297.212h-.491M280.751 296.645v1.493M282.149 308.981a1.89 1.89 0 11-.907 0M283.585 295.671a.34.34 0 110 .589M323.263 411.591h-70.661m0 0v-26.45m0 0h70.661m0 0v26.45"/><path class="st2" d="M252.602 375.127h55.546m-55.546-11.335h55.546m-55.546-11.337h60.836m-60.836-11.335h41.732m-41.732-11.336h60.836m-2.834 25.128v-12.491m0-11.293v-9.091m-22.672 63.103v-63.103m-22.671 63.103v-63.103"/><path class="st1" d="M315.018 387.257l1.022.081m.001 0l.992.238m0 0l.93.39m-.001 0l.841.529m0 0l.726.652m0 0l.589.755m0 0l.433.836m.001 0l.266.891m0 0l.09.918m0 0v11.638m0 0l-.09.919m0 0l-.266.891m0 0l-.433.835m-.001 0l-.589.756m0 0l-.726.652m0 0l-.841.529m0 0l-.93.389m.001 0l-.992.239m0 0l-1.022.08m-.001 0h-47.695m0 0l-2.148-.168m.001 0l-2.082-.502m0 0l-1.953-.818m0 0l-1.766-1.111m0 0l-1.524-1.369m-.001 0l-1.236-1.586m.001 0l-.911-1.755m-.001 0l-.558-1.87m.001 0l-.188-1.93m0 0l.188-1.929m0 0l.558-1.87m-.001 0l.911-1.755m.001 0l1.236-1.587m-.001 0l1.524-1.369m.001 0l1.766-1.111m0 0l1.953-.818m0 0l2.082-.501m0 0l2.148-.169m-.001 0h47.695M315.138 398.366a.945.945 0 11-1.89-.001.945.945 0 011.89.001zM323.263 355.478v29.096m0 0l-.167.4m0 0l-.4.167m0 0h-13.981m0 0l-.401-.167m0 0l-.166-.4m-.001 0v-29.096m0 0l.166-.401m.001 0l.401-.165m0 0h13.981m0 0l.4.165m0 0l.167.401M319.106 356.612v12.96m0 .907v12.961M318.539 384.007h-8.69M309.281 383.44v-26.828M309.849 356.045h8.69M319.106 383.44a.567.567 0 01-.567.567M309.849 384.007a.567.567 0 01-.567-.567M309.281 356.612c0-.313.254-.567.567-.567M318.539 356.045c.313 0 .567.254.567.567M316.723 370.479a.754.754 0 01-1.21 0h1.21zm-1.209-.907a.755.755 0 011.207 0h-1.207zM322.733 370.48v-.907m0 0h-7.748m0 0l-.301.256m0 0v.395m0 0l.301.256m0 0h7.748M322.733 369.27v1.512m0 0h.265m0 0v-1.512m0 0h-.265M322.998 368.893v2.267m0-.001h.265m0 0v-2.267m0 .001h-.265M321.373 366.758h1.625m0 0v.095m0 0h.132m0 0v.283m0 0h.133m0 0v-1.889m0 0h-.133m0 0v.283m0 0h-.132m0 0v.095m0 0h-1.625m0 0v.321m0 0h-.416m0 0v-1.077m0 0h-.491m0 0v2.645m0 0h.491m0 0v-1.077m0 0h.416m0 0v.321M321.373 373.295h1.625m0 0v-.094m0 0h.132m0 0v-.284m0 0h.133m0 0v1.89m0 0h-.133m0 0v-.284m0 0h-.132m0 0v-.094m0 0h-1.625m0 0v-.322m0 0h-.416m0 0v1.077m0 0h-.491m0 0v-2.645m0 0h.491m0 0v1.077m0 0h.416m0 0v-.321M320.958 365.945l-.072.072M320.958 366.437l-.072-.072M321.373 365.945v.492M322.998 365.624v1.133M323.13 366.852v-1.322M320.958 374.107l-.072-.072M320.958 373.616l-.072.072M321.373 374.107v-.491M322.998 374.429v-1.134M323.13 373.201v1.322M320.958 366.191a.246.246 0 11-.492 0 .246.246 0 01.492 0zM320.958 373.862a.246.246 0 11-.492 0 .246.246 0 01.492 0zM298.635 330.373l-1.645.469m0-.001l-1.552.718m0 0l-1.229.968m0 0l-.943 1.248m0 .001l-.594 1.448m0-.001l-.205 1.551m0 .001l.205 1.551m0-.001l.594 1.447m0 .001l.943 1.249m0-.001l1.229.967m0 .001l1.552.719m0 0l1.645.469m0 0l1.698.207m0 0l1.709-.059m0 0l11.585-1.223m0-.001v-10.654m0 0l-11.585-1.223m0 .001l-1.709-.06m0-.001l-1.698.208M307.905 340.891v-4.117M307.905 336.774v-4.116M293.639 339.838a5.742 5.742 0 01-.886-3.063M300.468 343.086c-2.591.166-5.106-1.031-6.83-3.248M307.905 340.891c-2.252 1.505-4.828 2.265-7.437 2.195M300.468 330.463c2.609-.071 5.185.689 7.437 2.195M293.639 333.711c1.723-2.217 4.238-3.414 6.83-3.248M292.753 336.774a5.74 5.74 0 01.886-3.063M313.438 332.126h.189v9.296h-.189zM313.627 341.422v-9.295m0 0h-.189m0 0v9.295m0 0h.189M313.627 327.328v18.892M318.161 327.328v18.892M313.627 327.328h4.534M313.627 346.22h4.534M308.904 322.038h-56.302M313.438 354.912h9.825"/><g><path class="st1" d="M187.421 411.591v-71.794M187.421 411.591h22.672m0 0v-71.794m0 0h-22.672m0 0v71.794M199.134 339.797h-.755m0 0v71.794m0 0h.755m0 0v-71.794M189.414 405.005h18.626m-.001 0v-.756m0 0h-18.626m.001 0v.756M189.414 403h18.626m-.001 0v-.756m0 0h-18.626m.001 0V403M189.414 400.995h18.626m-.001 0v-.756m0 0h-18.626m.001 0v.756M189.414 398.991h18.626m-.001 0v-.756m0 0h-18.626m.001 0v.756M189.549 394.745l18.491 2.241m0 0l.091-.75m0 0l-18.491-2.241m0-.001l-.091.75"/><g><path class="st1" d="M61.592 402.145a3.778 3.778 0 11-7.556 0 3.778 3.778 0 017.556 0z"/><path class="st1" d="M58.947 402.145a1.133 1.133 0 11-2.267 0 1.133 1.133 0 012.267 0zM150.39 402.145a3.778 3.778 0 11-7.556 0 3.778 3.778 0 017.556 0z"/><path class="st1" d="M147.745 402.145a1.134 1.134 0 11-2.268-.002 1.134 1.134 0 012.268.002zM68.205 332.24h68.015m0 0v75.572m0 0H68.205m0 0V332.24M70.094 330.351h64.237m0 0l.722.144m0 0l.614.409m0 0l.409.613m0 0l.144.723m0 0H68.205m0 0l.143-.723m0 0l.41-.613m0 0l.613-.409m0 0l.723-.144M68.205 411.591h68.015m0 0v-3.779m0 0H68.205m0 0v3.779M136.22 411.591H68.205m0 0v-1.889m0 0h68.015m0 0v1.889M138.11 411.591h17.004m0 0v-18.893m0 0H138.11m0 0v18.893M66.316 411.591H49.312m0 0v-18.893m0 0h17.004m0 0v18.893M108.259 405.923h25.694m0 0l.267-.111m0 0l.111-.267m0 0v-12.469m0 0l-.111-.267m0 0l-.267-.111m0 0h-25.694m0 0l-.268.111m0 0l-.11.267m0 0v12.469m0 0l.11.267m0 0l.268.111M96.167 405.923H70.472m0 0l-.267-.111m0 0l-.111-.267m0 0v-12.469m0 0l.111-.267m0 0l.267-.111m0 0h25.695m0 0l.267.111m0 0l.11.267m0 0v12.469m0 0l-.11.267m0 0l-.267.111M68.205 393.721h1.889M96.544 393.721h11.336M134.331 393.721h1.889M68.205 388.712h68.015m0 0v-18.686m0 0l-68.015 14.907m0 0v3.779M54.134 403.005l3.68-.86m0 0l1.583-3.431m0 0l-1.583 3.431m0 0l1.306 3.546M150.291 403.005l-3.679-.86m0 0l-1.584-3.431m0 0l1.584 3.431m0 0l-1.306 3.546"/></g></g></g></g><g id="walls_1_"><path class="st3" d="M7.405 389.692h16.248M-.152 389.692h5.668M5.516 389.692h1.889M7.405 323.566h16.248M-.152 323.566h5.668M5.516 323.566h1.889M-.152 323.566v66.126M23.654 323.566v66.126M7.405 323.566v3.778M7.405 327.345H5.516M5.516 327.345v-3.778M5.516 361.353v-1.889M5.516 359.463h1.889M7.405 359.463v1.889M6.461 327.345v32.119M7.405 327.345v32.119M5.516 359.463v-32.119M7.405 361.353v.944M7.405 362.297H6.46M6.461 362.297v.945M6.461 363.242h-.944M5.516 363.242v-1.89M5.516 389.692v-3.778M5.516 385.914h.944M6.461 385.914v.944M6.461 386.858h.945M7.405 386.858v2.834M5.516 385.914v-22.672M8.35 365.131v18.893M8.35 362.297v2.834M8.35 365.131H6.461M6.461 365.131v-2.834M6.461 362.297H8.35M6.461 386.858v-2.834M6.461 384.024H8.35M8.35 384.024v2.834M8.35 386.858H6.461M6.461 384.024v-18.893M8.35 365.131v18.893M7.405 365.131v18.893M5.516 323.566h1.889M5.516 323.566h1.889M-.152 323.566h5.668M7.405 323.566h16.248M5.516 389.692h1.889M5.516 389.692h1.889M-.152 389.692h5.668M7.405 389.692h16.248"/><g><path class="st3" d="M7.405 255.551h16.248M-.152 255.551h5.668M5.516 255.551h1.889M7.405 172.421h16.248M-.152 172.421h5.668M5.516 172.421h1.889M-.152 172.421v83.13M23.654 172.421v83.13M7.405 172.421v3.779M7.405 176.2H5.516M5.516 176.2v-3.779M5.516 227.211v-1.889M5.516 225.322h1.889M7.405 225.322v1.889M6.461 176.2v49.123M7.405 176.2v49.123M5.516 225.322v-49.123M7.405 227.211v.944M7.405 228.156H6.46M6.461 228.156v.945M6.461 229.1h-.944M5.516 229.1v-1.889M5.516 255.551v-3.779M5.516 251.772h.944M6.461 251.772v.944M6.461 252.717h.945M7.405 252.717v2.834M5.516 251.772V229.1M8.35 230.99v18.893M8.35 228.156v2.834M8.35 230.99H6.461M6.461 230.99v-2.834M6.461 228.156H8.35M6.461 252.717v-2.833M6.461 249.883H8.35M8.35 249.883v2.833M8.35 252.717H6.461M6.461 249.883v-18.894M8.35 230.99v18.893M7.405 230.99v18.893M5.516 172.421h1.889M5.516 172.421h1.889M-.152 172.421h5.668M7.405 172.421h16.248M5.516 255.551h1.889M5.516 255.551h1.889M-.152 255.551h5.668M7.405 255.551h16.248"/></g><g><path class="st3" d="M7.405 98.738h16.248M-.152 98.738h5.668M5.516 98.738h1.889M7.405 32.612h16.248M-.152 32.612h5.668M5.516 32.612h1.889M-.152 32.612v66.126M23.654 32.612v66.126M7.405 32.612v3.778M7.405 36.39H5.516M5.516 36.39v-3.778M5.516 70.398v-1.889M5.516 68.509h1.889M7.405 68.509v1.889M6.461 36.39v32.119M7.405 36.39v32.119M5.516 68.509V36.39M7.405 70.398v.945M7.405 71.342H6.46M6.461 71.342v.946M6.461 72.288h-.944M5.516 72.288v-1.891M5.516 98.738V94.96M5.516 94.959h.944M6.461 94.959v.945M6.461 95.904h.945M7.405 95.904v2.833M5.516 94.959V72.287M8.35 74.177v18.892M8.35 71.342v2.835M8.35 74.177H6.461M6.461 74.177v-2.835M6.461 71.342H8.35M6.461 95.904V93.07M6.461 93.07H8.35M8.35 93.07v2.834M8.35 95.904H6.461M6.461 93.07V74.177M8.35 74.177v18.892M7.405 74.177v18.892M5.516 32.612h1.889M5.516 32.612h1.889M-.152 32.612h5.668M7.405 32.612h16.248M5.516 98.738h1.889M5.516 98.738h1.889M-.152 98.738h5.668M7.405 98.738h16.248"/></g><g><path class="st3" d="M347.745 210.016c-5.519 2.059-9.585 2.902-15.567 3.207"/><path class="st4" d="M347.837 209.982l-15.658-36.209h-1.512v.454l15.782 36.354z"/><path class="st5" d="M204.36 305.807c-1.817-4.869-2.355-7.468-2.62-12.658"/><path class="st4" d="M204.36 305.807l29.272-12.659v-1.512h-.453L203.76 304.42z"/><path class="st5" d="M264.992 351.278c-4.87-1.816-7.352-2.312-12.543-2.577"/><path class="st4" d="M265.108 351.32l-1.387-.6-12.783 29.418v.454h1.512z"/><path class="st5" d="M283.337 237.322c1.602-4.297 2.037-6.475 2.271-11.056"/><path class="st4" d="M283.299 237.425l.6-1.388-25.951-11.282h-.453v1.511z"/><path class="st5" d="M212.091 123.752c-1.93 3.648-2.735 8.007-2.588 12.583"/><path class="st4" d="M212.131 123.653l-.608 1.411 29.419 12.782h.453l-.001-1.511z"/><path class="st5" d="M263.507 79.678c-3.817 1.481-6.682 2.069-11.058 2.294"/><path class="st4" d="M263.608 79.662l-11.159-25.804-1.511-.001v.454l11.282 25.95z"/></g><path d="M23.653-.24v32.851H-.153V-.24h23.806zm308.525 174.013h-1.511v.454h-7.558c0-58.129-.023-116.298-.023-174.396l9.092.003v173.939h0zM155.149 10.739l-131.495-.041V-.24l131.496.02v10.959h-.001zm167.96 202.03h7.558v.453h1.511v209.566h-9.069l-.022-.412c.001-69.834.022-139.743.022-209.607h0zM-.153 422.789h23.806v-33.096H-.153v33.096h0zm155.302-129.641H23.653v30.418H-.153V255.55h23.806v26.64h131.496v10.958h0zM-.153 98.737h23.806v73.684H-.153V98.737z" fill-rule="evenodd" clip-rule="evenodd" stroke="#000" stroke-miterlimit="3"/><path class="st0" d="M323.086 293.148h-11.313v25.694h11.336v3.023h-6.801v29.851h6.801v3.023h-9.824v-32.874h-4.534v-3.023h-.001v-25.694h-56.301V348.7h-1.511v.454h-1.512v-56.006h-15.795v-1.512h-.453v-9.446h16.248v-58.947h8.522v1.512h-.453v1.511h-5.046v55.924h60.836v-33.441h9.824v3.023h-6.801v30.418h6.778v10.958zm-36.42-69.905h-1.51v1.512h.453v1.511h37.501v-3.023h-36.444zM184.434 82.111h-3.023V10.745l-26.262-.008V-.24c55.942 0 111.967.054 167.937.07v10.958l-11.313-.003v20.126h11.336v3.023H308.75V20.709h-26.261v-9.933l-30.04-.009v43.09h-1.511v.454h-1.512V10.766l-64.992-.02v71.365zM308.75 17.686v-6.9h.126v-.002l-23.364-.007v6.909h23.238zm14.338 404.691v-10.958H252.45V380.592h-1.511v-.454h-1.512v31.281h-62.158v-71.794h-3.023v71.794H23.653v10.958h197.055v.412h3.023v-.412h99.357zM195.014 159.006v-19.648h-14.359v19.648h14.359zm54.412-77.489v54.818h-8.031v1.511h-.453v1.512h8.484v22.671h3.023v-22.671h70.66v-3.023h-70.66V81.97h-1.511v-.453h-1.512zm-39.469 57.841h-11.919v22.671h-20.405v-22.671H23.653v-3.023h185.85v1.511h.454v1.512zm-54.808 153.79V282.19h47.044v9.446h-.453v1.512h-46.591z"/><g><path class="st7" d="M159.368-.276l-3.95 3.48M166.798-.276l-11.38 10.02M174.218-.276l-12.46 10.98M26.618 136.294l-2.69 2.37M181.638-.266l-12.46 10.97M34.028 136.294l-3.44 3.03M189.048-.266l-12.45 10.97M41.448 136.294l-3.44 3.03M196.468-.266l-14.78 13.02M184.708 16.634l-3.02 2.66M48.878 136.294l-3.44 3.03M203.898-.266l-12.47 10.98M184.708 23.174l-3.02 2.66M56.298 136.294l-3.44 3.03M211.308-.256l-12.45 10.97M184.708 29.714l-3.02 2.66M63.718 136.294l-3.44 3.03M218.728-.256l-12.45 10.97M184.708 36.254l-3.02 2.66M71.148 136.294l-3.44 3.03M226.148-.256l-12.45 10.97M184.708 42.794l-3.02 2.66M78.568 136.294l-3.44 3.03M233.568-.246l-12.45 10.97M184.708 49.324l-3.02 2.66M85.988 136.294l-3.44 3.03M240.988-.246l-12.45 10.97M184.708 55.864l-3.02 2.66M93.408 136.294l-3.44 3.03M248.398-.246l-12.44 10.97M184.708 62.404l-3.02 2.66M100.828 136.294l-3.44 3.03M255.818-.236l-12.44 10.96M184.708 68.944l-3.02 2.66M108.258 136.294l-3.44 3.03M263.238-.236l-13.54 11.93M252.718 15.574l-3.02 2.66M115.678 136.294l-3.44 3.03M184.708 75.484l-3.02 2.66M270.658-.236l-12.44 10.97M252.718 22.114l-3.02 2.66M184.708 82.024l-.05.05M123.108 136.294l-3.44 3.03M278.078-.226l-12.44 10.96M252.718 28.644l-3.02 2.66M130.518 136.294l-3.44 3.03M285.488-.226l-12.44 10.96M252.718 35.184l-3.02 2.66M137.938 136.294l-3.44 3.03M292.908-.216l-12.43 10.95M252.718 41.724l-3.02 2.66M145.368 136.294l-3.44 3.03M300.328-.216l-12.44 10.96M285.788 12.594l-3.03 2.67M152.788 136.294l-3.44 3.03M252.718 48.264l-3.02 2.66M307.748-.216l-12.44 10.96M287.468 17.654l-3.43 3.02M160.208 136.294l-3.43 3.03M315.168-.206l-12.43 10.95M294.888 17.654l-3.43 3.02M167.638 136.294l-3.44 3.03M322.588-.206l-13.56 11.95M302.318 17.654l-3.43 3.02M323.358 5.654l-5.78 5.09M175.058 136.294l-3.44 3.03M312.048 15.614l-5.74 5.06M182.478 136.294l-4.57 4.02M312.048 22.154l-3.02 2.66M189.898 136.294l-3.44 3.03M180.928 144.194l-3.02 2.66M251.608 81.934l-1.91 1.68M312.048 28.694l-3.02 2.66M252.718 87.494l-3.02 2.66M180.928 150.734l-3.02 2.66M197.318 136.294l-3.44 3.03M316.998 30.874l-3.43 3.02M323.378 31.784l-2.39 2.11M204.748 136.294l-3.44 3.03M180.928 157.274l-3.02 2.66M198.308 141.964l-3.02 2.66M252.718 94.034l-3.02 2.66M198.308 148.504l-3.02 2.66M186.428 158.974l-3.43 3.02M210.228 138.004l-1.5 1.32M252.718 100.574l-3.02 2.66M198.308 155.044l-3.02 2.66M193.848 158.974l-3.43 3.02M252.718 107.114l-3.02 2.66M198.308 161.574l-.47.42M252.718 113.644l-3.02 2.66M252.718 120.184l-3.02 2.66M252.718 126.724l-3.02 2.66M241.858 136.294l-.19.16M249.278 136.294l-3.44 3.03M252.718 133.264l-3.02 2.66M256.708 136.294l-3.44 3.03M252.718 139.804l-3.02 2.66M264.128 136.294l-3.44 3.03M252.718 146.344l-3.02 2.66M252.718 152.874l-3.02 2.66M271.538 136.294l-3.44 3.03M252.718 159.414l-2.93 2.58M278.968 136.294l-3.44 3.03M286.388 136.294l-3.44 3.03M293.808 136.294l-3.43 3.03M301.238 136.294l-3.44 3.03M308.658 136.294l-3.44 3.03M316.088 136.294l-3.44 3.03M323.378 136.404l-3.32 2.92M157.918 282.154l-2.5 2.2M165.348 282.154l-9.93 8.74M26.068 411.384l-2.14 1.89M172.768 282.154l-12.44 10.96M33.488 411.384l-9.56 8.43M180.188 282.154l-12.44 10.96M254.538 223.204l-4.84 4.26M40.918 411.384l-12.44 10.96M187.618 282.154l-12.44 10.96M252.718 231.344l-3.02 2.66M48.338 411.384l-12.44 10.96M195.038 282.154l-12.44 10.96M252.718 237.874l-3.02 2.66M55.758 411.384l-12.45 10.96M202.458 282.154l-12.45 10.96M252.718 244.414l-3.02 2.66M202.468 288.684l-5.03 4.43M63.178 411.384l-12.44 10.96M252.718 250.954l-3.02 2.66M70.598 411.384l-12.44 10.96M252.718 257.494l-3.02 2.66M291.648 223.204l-3.44 3.03M78.028 411.384l-12.44 10.96M252.718 264.034l-3.02 2.66M299.068 223.204l-3.44 3.03M85.448 411.384l-12.44 10.96M252.718 270.574l-3.02 2.66M306.488 223.204l-3.44 3.03M239.568 282.154l-6.12 5.39M92.868 411.384l-12.44 10.96M246.998 282.154l-12.44 10.96M313.918 223.204l-3.44 3.03M252.718 277.114l-3.02 2.66M100.298 411.384l-12.44 10.96M321.328 223.204l-3.44 3.03M254.408 282.154l-12.44 10.96M187.538 341.064l-3.02 2.66M107.708 411.384l-12.44 10.96M261.838 282.154l-12.44 10.96M115.138 411.384l-12.44 10.96M187.538 347.604l-3.02 2.66M252.718 296.724l-3.02 2.66M269.258 282.154l-12.44 10.96M122.558 411.384l-12.44 10.96M187.538 354.144l-3.02 2.66M252.718 303.264l-3.02 2.66M314.648 248.714l-1.09.96M276.688 282.154l-12.45 10.96M129.988 411.384l-12.45 10.96M187.538 360.684l-3.02 2.66M252.718 309.804l-3.02 2.66M322.068 248.714l-3.43 3.02M284.108 282.154l-12.44 10.96M316.578 253.554l-3.02 2.66M137.408 411.384l-12.44 10.96M187.538 367.224l-3.02 2.66M187.538 373.764l-3.02 2.66M316.578 260.084l-3.02 2.66M291.528 282.154l-12.44 10.96M252.718 316.344l-3.02 2.66M144.828 411.384l-12.44 10.96M187.538 380.294l-3.02 2.66M316.578 266.624l-3.02 2.66M298.948 282.154l-12.45 10.96M252.718 322.874l-3.02 2.66M152.248 411.384l-12.45 10.96M187.538 386.834l-3.02 2.66M316.578 273.164l-3.02 2.66M306.368 282.154l-12.44 10.96M252.718 329.414l-3.02 2.66M159.668 411.384l-12.44 10.96M187.538 393.374l-3.02 2.66M316.578 279.704l-15.23 13.41M252.718 335.954l-3.02 2.66M167.088 411.384l-12.44 10.96M187.538 399.914l-3.02 2.66M252.718 342.494l-3.02 2.66M321.218 282.154l-12.44 10.96M174.518 411.384l-12.44 10.96M187.538 406.454l-3.02 2.66M323.358 286.804l-7.16 6.31M312.048 296.764l-3.03 2.67M181.938 411.384l-12.44 10.96M312.048 303.304l-3.03 2.67M189.358 411.384l-12.44 10.96M312.048 309.854l-3.03 2.66M196.788 411.384l-12.44 10.96M312.048 316.384l-3.02 2.66M204.198 411.384l-12.44 10.96M316.718 318.804l-3.43 3.02M211.628 411.384l-12.44 10.96M316.578 325.464l-3.02 2.66M323.378 319.474l-2.66 2.35M252.718 381.724l-3.02 2.66M219.048 411.384l-12.44 10.96M252.718 388.264l-3.02 2.66M316.578 332.004l-3.02 2.66M226.468 411.384l-12.44 10.96M252.718 394.804l-3.02 2.66M316.578 338.544l-3.02 2.66M233.898 411.384l-12.418 11.019M252.718 401.344l-3.02 2.66M316.578 345.084l-3.02 2.66M241.318 411.384l-12.44 10.96M252.718 407.874l-3.02 2.66M316.578 351.624l-3.02 2.66M248.738 411.384l-12.44 10.96M323.378 352.174l-2.88 2.53M256.158 411.384l-12.44 10.96M263.578 411.384l-12.44 10.96M271.008 411.384l-12.44 10.96M278.428 411.384l-12.44 10.96M285.858 411.384l-12.45 10.96M293.268 411.384l-12.44 10.96M300.698 411.384l-12.45 10.96M308.118 411.384l-12.45 10.96M315.538 411.384l-12.44 10.96M322.958 411.384l-12.44 10.96M323.358 417.574l-5.41 4.77"/></g><path d="M323.086 293.148h-11.313v25.694h11.336v3.023h-6.801v29.851h6.801v3.023h-6.801v0h-3.023v-32.874h-4.534v-3.023h-.001v-25.694h-56.301V348.7h-1.511v.454h-1.512v-1.512 0-54.494h-15.795v-1.512h-.453v-9.446h16.248v-58.947h8.522v1.512h-.453v1.511h-1.058 0-3.988v55.924h60.836v-30.418h0v-3.023h9.824v3.023h-6.801v30.418h6.778v10.958h0zm-36.42-69.905h36.443v3.023h-37.501v-1.511h-.453v-1.512H286.666zM184.434 82.111h-3.023V10.745l-26.262-.008V-.24c55.942 0 111.967.054 167.937.07v10.958l-11.313-.003v20.126h11.336v3.023H308.75V20.709h-26.261v-9.933l-30.04-.009v43.09h-1.511v.454h-1.512V10.766l-64.992-.02v71.365h0zM308.75 17.686v-6.9h.126v-.002l-23.364-.007v6.909h23.238zm14.338 404.691h-99.356v.412h-3.023v-.412H23.653v-10.958h160.592v-71.794h3.023v71.794h62.158v-31.281h1.512v.454h1.511V411.419h70.638v10.958h.001zM195.014 159.006v-19.648h-14.359v19.648h14.359zm54.412-77.489v54.818h-8.031v1.511h-.453v1.512h8.484v22.671h3.023v-22.671h70.66v-3.023h-70.66V81.97h-1.511v-.453h-1.512 0zm-39.469 57.841v-1.512h-.454v-1.511H23.653v3.023h153.979v22.671h20.405v-22.671h11.92zm-54.808 153.79V282.19h47.044v9.446h-.453v1.512h-46.591z" fill-rule="evenodd" clip-rule="evenodd" fill="none" stroke="#000" stroke-miterlimit="22.926"/></g><g id="sizes"><path d="M155.012 55.842h-1.594v-9.625l-1.617.992V45.56l1.617-1.078h1.594v11.36zM157.434 52.717l3.813-8.227h1.641l-3.719 8.133h5.57V54.1h-7.305v-1.383zm4.899-3.555h1.555v6.688h-1.555v-6.688zM166.536 54.248h1.594v1.594l-1.594 1.578v-3.172zM171.141 55.107c-.55-.567-.824-1.359-.824-2.375v-5.164c0-1.021.276-1.813.828-2.379.552-.565 1.356-.848 2.414-.848 1.063 0 1.868.281 2.418.844.549.563.824 1.357.824 2.383v5.164c0 1.021-.276 1.814-.828 2.379-.552.565-1.357.848-2.414.848-1.062 0-1.868-.284-2.418-.852zm3.664-1.105c.268-.294.402-.717.402-1.27v-5.164c0-.552-.133-.975-.398-1.27-.266-.294-.683-.441-1.25-.441-.568 0-.984.147-1.25.441-.266.294-.398.718-.398 1.27v5.164c0 .552.134.976.402 1.27.268.294.684.441 1.246.441s.978-.147 1.246-.441z"/><g><path d="M194.931 94.831a2.75 2.75 0 01-1.086-.977c-.279-.427-.465-.94-.559-1.539v-.008h1.594v.008c.057.417.224.741.5.973.276.232.635.348 1.078.348.51 0 .905-.17 1.184-.512.278-.341.418-.821.418-1.441v-.953c0-.614-.14-1.092-.418-1.434-.279-.341-.673-.512-1.184-.512-.276 0-.542.078-.797.234a2.237 2.237 0 00-.672.656h-1.453V83.69h5.789v1.516h-4.195v2.555a2.275 2.275 0 011.414-.508c.656 0 1.217.136 1.684.406.466.271.82.667 1.063 1.188.242.521.363 1.148.363 1.883v.953c0 .734-.125 1.362-.375 1.883-.25.521-.615.918-1.094 1.191-.479.273-1.055.41-1.727.41-.573 0-1.081-.112-1.527-.336zM201.841 93.456h1.594v1.594l-1.594 1.578v-3.172zM205.466 91.925l3.813-8.227h1.641l-3.719 8.133h5.57v1.477h-7.305v-1.383zm4.899-3.555h1.555v6.688h-1.555V88.37z"/></g><g><path d="M259.959 53.631a2.75 2.75 0 01-1.086-.977c-.279-.427-.465-.94-.559-1.539v-.008h1.594v.008c.057.417.224.741.5.973.276.232.635.348 1.078.348.51 0 .905-.17 1.184-.512.278-.341.418-.821.418-1.441v-.953c0-.614-.14-1.092-.418-1.434-.279-.341-.673-.512-1.184-.512-.276 0-.542.078-.797.234a2.237 2.237 0 00-.672.656h-1.453V42.49h5.789v1.516h-4.195v2.555a2.275 2.275 0 011.414-.508c.656 0 1.217.136 1.684.406.466.271.82.667 1.063 1.188.242.521.363 1.148.363 1.883v.953c0 .734-.125 1.362-.375 1.883-.25.521-.615.918-1.094 1.191-.479.273-1.055.41-1.727.41-.573 0-1.082-.113-1.527-.336zM266.869 52.256h1.594v1.594l-1.594 1.578v-3.172zM272.166 53.576a2.855 2.855 0 01-1.207-1.105c-.284-.477-.426-1.03-.426-1.66v-.188c0-.567.142-1.102.426-1.602.284-.5.663-.877 1.137-1.133-.401-.219-.723-.535-.965-.949s-.363-.85-.363-1.309v-.273c0-.594.133-1.116.398-1.566.266-.45.641-.799 1.125-1.047.484-.247 1.047-.371 1.688-.371s1.203.124 1.688.371c.484.248.859.597 1.125 1.047.266.451.398.973.398 1.566v.273c0 .469-.124.909-.371 1.32a2.478 2.478 0 01-.98.938c.479.261.863.64 1.152 1.137a3.13 3.13 0 01.434 1.598v.188c0 .63-.142 1.184-.426 1.66a2.854 2.854 0 01-1.207 1.105c-.521.261-1.125.391-1.813.391s-1.292-.13-1.813-.391zm2.789-1.359c.281-.146.499-.35.652-.613.153-.263.23-.566.23-.91v-.109c0-.349-.077-.655-.23-.918a1.582 1.582 0 00-.652-.613 2.09 2.09 0 00-.977-.219c-.37 0-.695.073-.977.219a1.573 1.573 0 00-.652.617c-.154.266-.23.573-.23.922v.117c0 .344.077.646.23.906.153.261.371.462.652.605.281.144.606.215.977.215.37-.001.696-.073.977-.219zm-.133-5.122c.245-.138.435-.334.57-.59.135-.255.203-.549.203-.883v-.109c0-.317-.068-.599-.203-.844a1.406 1.406 0 00-.57-.566 1.74 1.74 0 00-.844-.199 1.74 1.74 0 00-.844.199 1.406 1.406 0 00-.57.566 1.726 1.726 0 00-.203.852v.117c0 .328.067.619.203.871.135.253.325.448.57.586.245.138.526.207.844.207.318 0 .599-.068.844-.207z"/></g><g><path d="M257.383 336.097a2.75 2.75 0 01-1.086-.977c-.279-.427-.465-.94-.559-1.539v-.008h1.594v.008c.057.417.224.741.5.973.276.232.635.348 1.078.348.51 0 .905-.17 1.184-.512.278-.341.418-.821.418-1.441v-.953c0-.614-.14-1.092-.418-1.434-.279-.341-.673-.512-1.184-.512-.276 0-.542.078-.797.234a2.237 2.237 0 00-.672.656h-1.453v-5.984h5.789v1.516h-4.195v2.555a2.275 2.275 0 011.414-.508c.656 0 1.217.136 1.684.406.466.271.82.667 1.063 1.188.242.521.363 1.148.363 1.883v.953c0 .734-.125 1.362-.375 1.883-.25.521-.615.918-1.094 1.191-.479.273-1.055.41-1.727.41-.573 0-1.082-.112-1.527-.336zM264.293 334.722h1.594v1.594l-1.594 1.578v-3.172zM270.059 336.433l-.727-.348a2.857 2.857 0 01-1.168-1.008c-.294-.44-.48-.97-.559-1.59h1.625c.047.323.148.589.305.797.156.208.358.363.605.465.247.102.538.152.871.152.526 0 .935-.141 1.227-.422.292-.281.438-.677.438-1.188v-.344c0-.567-.138-1.006-.414-1.316-.276-.31-.667-.465-1.172-.465h-.805v-1.516h.805c.442 0 .786-.133 1.031-.398.245-.266.367-.641.367-1.125v-.352c0-.448-.129-.794-.387-1.039-.258-.245-.624-.367-1.098-.367-.271 0-.513.051-.727.152-.214.102-.395.258-.543.469s-.257.476-.324.793h-1.617c.104-.62.301-1.151.59-1.594a2.893 2.893 0 011.098-1.008c.442-.229.95-.344 1.523-.344.979 0 1.737.258 2.273.773.536.516.805 1.242.805 2.18v.188c0 .568-.154 1.063-.461 1.484-.308.422-.742.729-1.305.922.62.136 1.1.44 1.441.914.341.474.512 1.078.512 1.813v.188c0 .662-.128 1.227-.383 1.695a2.52 2.52 0 01-1.113 1.07c-.487.245-1.074.367-1.762.367l-.951.002z"/><g><path d="M160.902 407.49h-1.594v-9.625l-1.617.992v-1.648l1.617-1.078h1.594v11.359zM165.465 407.608l-.727-.348a2.857 2.857 0 01-1.168-1.008c-.294-.44-.48-.97-.559-1.59h1.625c.047.323.148.589.305.797.156.208.358.363.605.465.247.102.538.152.871.152.526 0 .935-.141 1.227-.422.292-.281.438-.677.438-1.188v-.344c0-.567-.138-1.006-.414-1.316-.276-.31-.667-.465-1.172-.465h-.805v-1.516h.805c.442 0 .786-.133 1.031-.398.245-.266.367-.641.367-1.125v-.352c0-.448-.129-.794-.387-1.039-.258-.245-.624-.367-1.098-.367-.271 0-.513.051-.727.152-.214.102-.395.258-.543.469s-.257.476-.324.793h-1.617c.104-.62.301-1.151.59-1.594a2.893 2.893 0 011.098-1.008c.442-.229.95-.344 1.523-.344.979 0 1.737.258 2.273.773.536.516.805 1.242.805 2.18v.188c0 .568-.154 1.063-.461 1.484-.308.422-.742.729-1.305.922.62.136 1.1.44 1.441.914.341.474.512 1.078.512 1.813v.188c0 .662-.128 1.227-.383 1.695a2.52 2.52 0 01-1.113 1.07c-.487.245-1.074.367-1.762.367l-.951.002zM171.785 405.897h1.594v1.594l-1.594 1.578v-3.172zM175.41 404.365l3.813-8.227h1.641l-3.719 8.133h5.57v1.477h-7.305v-1.383zm4.898-3.554h1.555v6.688h-1.555v-6.688z"/></g><g><path d="M214.799 349.447l3.813-8.227h1.641l-3.719 8.133h5.57v1.477h-7.305v-1.383zm4.898-3.554h1.555v6.688h-1.555v-6.688zM223.9 350.979h1.594v1.594l-1.594 1.578v-3.172zM231.705 346.932l-.008.281c-.13.24-.327.416-.59.527a2.372 2.372 0 01-.934.168c-.542 0-1.019-.138-1.43-.414-.412-.276-.73-.665-.957-1.168-.227-.502-.34-1.084-.34-1.746v-.008c0-.734.124-1.362.371-1.883a2.615 2.615 0 011.086-1.188c.477-.271 1.048-.406 1.715-.406s1.237.138 1.711.414c.474.276.834.677 1.082 1.203.247.526.371 1.159.371 1.898v.008c0 .406-.052.84-.156 1.301a8.052 8.052 0 01-.445 1.371l-.094.207c-.031.07-.065.14-.102.207l-2.422 4.867h-1.719l2.861-5.639zm.074-.985c.273-.338.41-.815.41-1.43v-.008c0-.599-.137-1.063-.41-1.391s-.66-.492-1.16-.492c-.505 0-.895.164-1.168.492s-.41.794-.41 1.398v.008c0 .615.137 1.09.41 1.426s.663.504 1.168.504c.5.001.887-.168 1.16-.507z"/></g></g><g><path d="M178.797 175.86l3.961-5.281c.229-.302.407-.616.535-.941.127-.325.191-.629.191-.91v-.016c0-.453-.133-.805-.398-1.055s-.644-.375-1.133-.375c-.464 0-.839.137-1.125.41-.287.273-.461.66-.523 1.16v.008h-1.648v-.008c.094-.651.285-1.207.574-1.668s.663-.813 1.121-1.055c.458-.242.987-.363 1.586-.363.677 0 1.255.116 1.734.348.479.232.844.569 1.094 1.012.25.443.375.977.375 1.602v.008c0 .401-.083.82-.25 1.258a5.417 5.417 0 01-.695 1.266l-3.289 4.469h4.297v1.516h-6.406v-1.385zM189.976 177.243h-1.594v-9.625l-1.617.992v-1.648l1.617-1.078h1.594v11.359zM192.398 175.649h1.594v1.594l-1.594 1.578v-3.172zM197.695 176.969a2.855 2.855 0 01-1.207-1.105c-.284-.477-.426-1.03-.426-1.66v-.188c0-.567.142-1.102.426-1.602.284-.5.663-.877 1.137-1.133-.401-.219-.723-.535-.965-.949s-.363-.85-.363-1.309v-.273c0-.594.133-1.116.398-1.566.266-.45.641-.799 1.125-1.047.484-.247 1.047-.371 1.688-.371s1.203.124 1.688.371c.484.248.859.597 1.125 1.047.266.451.398.973.398 1.566v.273c0 .469-.124.909-.371 1.32a2.478 2.478 0 01-.98.938c.479.261.863.64 1.152 1.137a3.13 3.13 0 01.434 1.598v.188c0 .63-.142 1.184-.426 1.66a2.854 2.854 0 01-1.207 1.105c-.521.261-1.125.391-1.813.391s-1.292-.13-1.813-.391zm2.789-1.359c.281-.146.499-.35.652-.613.153-.263.23-.566.23-.91v-.109c0-.349-.077-.655-.23-.918a1.582 1.582 0 00-.652-.613 2.09 2.09 0 00-.977-.219c-.37 0-.695.073-.977.219a1.573 1.573 0 00-.652.617c-.154.266-.23.573-.23.922v.117c0 .344.077.646.23.906.153.261.371.462.652.605.281.144.606.215.977.215.37 0 .696-.073.977-.219zm-.133-5.121c.245-.138.435-.334.57-.59.135-.255.203-.549.203-.883v-.109c0-.317-.068-.599-.203-.844a1.406 1.406 0 00-.57-.566 1.74 1.74 0 00-.844-.199 1.74 1.74 0 00-.844.199 1.406 1.406 0 00-.57.566 1.726 1.726 0 00-.203.852v.117c0 .328.067.619.203.871.135.253.325.448.57.586.245.138.526.207.844.207.318 0 .599-.069.844-.207z"/><g><path d="M287.068 176.818l3.813-8.227h1.641l-3.719 8.133h5.57v1.477h-7.305v-1.383zm4.898-3.555h1.555v6.688h-1.555v-6.688zM296.17 178.349h1.594v1.594l-1.594 1.578v-3.172zM300.775 179.208c-.55-.567-.824-1.359-.824-2.375v-5.164c0-1.021.276-1.813.828-2.379.552-.565 1.356-.848 2.414-.848 1.063 0 1.868.281 2.418.844.549.563.824 1.357.824 2.383v5.164c0 1.021-.276 1.814-.828 2.379-.552.565-1.357.848-2.414.848-1.062 0-1.869-.284-2.418-.852zm3.664-1.105c.268-.294.402-.717.402-1.27v-5.164c0-.552-.133-.975-.398-1.27-.266-.294-.683-.441-1.25-.441-.568 0-.984.147-1.25.441-.266.294-.398.718-.398 1.27v5.164c0 .552.134.976.402 1.27.268.294.684.441 1.246.441s.978-.147 1.246-.441z"/></g></g></g></svg>