<svg version="1.1" id="_x32_42" xmlns="http://www.w3.org/2000/svg" x="0" y="0" viewBox="0 0 348.561 399.229" xml:space="preserve"><style>.st0,.st1,.st2{fill-rule:evenodd;clip-rule:evenodd;fill:#fff}.st1,.st2{fill:none;stroke:#999;stroke-linecap:round;stroke-linejoin:round;stroke-miterlimit:3}.st2{stroke-width:.4}.st3,.st5{fill:none;stroke:#000;stroke-miterlimit:3}.st5,.st6,.st7{fill-rule:evenodd;clip-rule:evenodd}.st7{fill:none;stroke:#666;stroke-width:.6;stroke-miterlimit:22.9256}</style><path class="st0" d="M304.562 391.966h43.482L346.732 8.633h-42.254V.386h-289v398.462l289.084-.488z" id="fon"/><g id="mebel"><g id="mebel_1_"><path class="st1" d="M223.788 302.996l-4.109-4.109m.001 0l-.426-.407m-.001 0l-.43-.371m0-.001l-.424-.328m0 0l-.403-.276m.001.001l-.017-.009m0 0l-.375-.216m0 0l-.332-.147m-.001 0l-.025-.008m0 0l-.281-.075m0 0l-.028-.004m0 0l-.22.002m0-.001l-.03.002m0 .001l-.029.007m0 0l-.027.013m.001 0l-.154.078m-.001 0l-.024.018m.001 0l-.012.01m-.001 0l-1.133 1.134m0 0l-1.03-1.029m.001-.001l-5.217 5.217m11.114 11.117l5.217-5.218m0 0l-1.029-1.029m0 0l1.134-1.134m0 0l.011-.011m0-.001l.017-.025m0 .001l.078-.154m0 0l.013-.027m0 0l.008-.029m.001 0l.002-.029m0 0l.001-.221m-.001 0l-.003-.028m.001 0l-.075-.281m-.001 0l-.008-.025m.001 0l-.148-.332m0 0l-.214-.376m0-.001l-.011-.016m-.001.001l-.276-.404m0 0l-.328-.423m0 0l-.371-.429m0 0l-.407-.427M214.641 298.978l9.057 9.057M214.764 299.102l.897-.899M223.573 307.911l.898-.898M219.7 312.031l4.665-4.664M210.644 302.974l4.664-4.663M218.65 299.909l4.117 4.117M215.661 298.204c.354-.354 1.691.409 2.988 1.706M222.766 304.025c1.296 1.296 2.06 2.634 1.705 2.988M187.19 331.377l4.108 4.108m0 .001l.427.408m0-.001l.43.371m0 0l.423.328m0 0l.404.275m0 0l.016.011m0 .001l.376.215m0-.001l.332.147m0 .001l.024.008m0-.001l.281.075m0 .001l.029.003m0-.001l.22-.001m0 .001l.03-.002m0 0l.028-.008m0-.001l.027-.012m0 0l.154-.078m0 0l.025-.018m0 0l.011-.011m0 .001l1.134-1.133m0 0l1.029 1.029m0-.001l5.219-5.218M190.8 320.76l-5.216 5.217m0 0l1.029 1.029m0 0l-1.135 1.134m0 0l-.01.011m0 0l-.017.025m0 0l-.078.153m0 0l-.013.027m0 0l-.008.03m0 .001l-.002.029m0-.001l-.001.221m0 .001l.003.027m0-.001l.074.282m0 0l.009.025m0 0l.147.332m0 0l.215.375m0 0l.01.016m0 .001l.276.404m0 0l.329.424m0 0l.371.429m0-.001l.407.427M196.337 335.395l-9.057-9.057M196.214 335.271l-.898.898M187.404 326.461l-.897.897M191.277 322.342l-4.664 4.664M200.334 331.398l-4.664 4.664M192.329 334.464l-4.117-4.117M195.316 336.17c-.354.354-1.692-.409-2.988-1.705M188.211 330.347c-1.296-1.296-2.06-2.634-1.705-2.988M191.298 298.887l-4.108 4.109m0 0l-.408.427m0 0l-.371.429m0 0l-.329.423m0 0l-.275.404m0 0l-.01.016m0 0l-.216.376m0 0l-.146.332m0 0l-.009.025m0 0l-.074.281m0 0l-.003.028m0 0l.001.221m0 0l.002.029m0 0l.008.029m0 0l.012.027m0 0l.078.154m0 0l.018.024m0 0l.01.012m0 0l1.134 1.133m0 0l-1.029 1.03m0 0l5.217 5.217m11.115-11.115l-5.218-5.217m0 0l-1.028 1.029m0 0l-1.135-1.134m0 0l-.01-.01m0 0l-.026-.018m0 0l-.153-.078m0 0l-.027-.013m0 0l-.029-.007m0 0l-.029-.002m0 0l-.221-.002m0 0l-.028.004m0 0l-.281.075m0 0l-.025.008m0 0l-.332.147m0 0l-.376.215m0 0l-.015.01m0 0l-.405.276m0 0l-.423.328m0 0l-.429.371m0 0l-.427.407M187.281 308.035l9.057-9.057M187.404 307.911l-.897-.898M196.214 299.102l-.898-.899M200.334 302.974l-4.664-4.663M191.277 312.031l-4.664-4.664M188.211 304.026l4.117-4.117M186.506 307.013c-.354-.354.409-1.692 1.705-2.988M192.327 299.908c1.297-1.296 2.635-2.059 2.988-1.705M219.679 335.486l4.109-4.108m0 0l.408-.427m0 0l.371-.43m0 0l.328-.424m0 0l.275-.403m0 0l.011-.017m0 0l.215-.375m0 0l.147-.332m0 0l.008-.024m0 0l.075-.282m0 0l.003-.028m0 0l-.001-.22m0 0l-.002-.03m0 0l-.008-.029m0 0l-.012-.027m0 0l-.078-.154m0 0l-.018-.024m0 0l-.011-.012m0 0l-1.133-1.133m0 0l1.029-1.03m0 0l-5.218-5.218m-11.116 11.115l5.219 5.218m0 0l1.029-1.029m0 0l1.134 1.134m0 0l.011.011m0 0l.025.017m0 0l.153.078m0 0l.027.013m0 0l.03.008m0 0l.029.002m0 0l.221.001m0 0l.027-.003m0 0l.281-.075m0 0l.026-.008m0 0l.332-.148m0 0l.375-.214m0 0l.016-.011m0 0l.404-.276m0 0l.424-.328m0 0l.429-.371m0 0l.426-.407M223.698 326.339l-9.057 9.056M223.573 326.461l.898.897M214.764 335.271l.897.898M210.644 331.398l4.664 4.664M219.7 322.341l4.665 4.665M222.767 330.347l-4.117 4.117M224.472 327.359c.354.354-.409 1.691-1.705 2.987M218.65 334.463c-1.296 1.296-2.634 2.06-2.988 1.705M220.603 317.186c0 8.348-6.767 15.114-15.114 15.114-8.348 0-15.115-6.766-15.115-15.114 0-8.347 6.767-15.114 15.115-15.114 8.347 0 15.114 6.767 15.114 15.114z"/><path class="st2" d="M90.432 238.818l1.631-1.631m-8.577 1.631l8.578-8.578m-15.526 8.578l15.526-15.525m-22.472 15.525l22.472-22.472m-29.42 22.472l29.419-29.419m-36.365 29.419l36.366-36.366m-43.313 36.366l43.313-43.313m-50.26 43.313l50.26-50.26M41.43 232.245l50.634-50.634M41.43 225.298l50.634-50.633M41.43 218.351l50.634-50.634M41.43 211.404l50.634-50.634M41.43 204.457l50.634-50.633M41.43 197.509l50.633-50.633M41.43 190.563l48.666-48.666M41.43 183.616l21.308-21.308m9.368-9.367l11.044-11.044m-41.72 34.772l18.224-18.224m11.789-11.788l4.76-4.76M41.43 169.722l17.798-17.798M41.43 162.775l18.617-18.617m-18.617 11.67l13.931-13.931m-13.931 6.984l6.984-6.985m-6.984.038l.037-.037m50.597.159l-.16-.159m.16 7.106l-7.107-7.106m7.107 14.053L78.01 141.897m14.054 21l-21.001-21m21.001 27.947l-20.318-20.318m20.318 27.265l-20.033-20.032m-12.042-12.042l-2.82-2.82m34.895 41.841l-22.329-22.329m-10.409-10.408l-9.104-9.104m41.842 48.788l-27.808-27.809m-4.668-4.667l-16.312-16.312m48.788 55.735L41.43 146.998m50.634 57.581L41.43 153.945m50.634 57.58L41.43 160.892m50.634 57.581L41.43 167.839m50.634 57.58L41.43 174.786m50.634 57.581L41.43 181.734m50.139 57.084L41.43 188.68m43.192 50.138L41.43 195.626m36.245 43.192L41.43 202.574m29.298 36.244L41.43 209.52m22.351 29.298L41.43 216.467m15.404 22.351L41.43 223.414m8.457 15.404l-8.457-8.457m1.51 8.457l-1.51-1.51M41.43 94.38h50.634M41.43 83.044h50.634M41.43 71.708h50.634M41.43 60.372h50.634M41.43 49.036h50.634M41.43 37.701h50.634M39.162 26.365h21.529m12.867 0h18.506m-12.092 79.256V15.879M57.3 105.621V15.879"/><path class="st1" d="M24.804 134.339h67.26m0 0v-28.717m0 0h-67.26m0 0v28.717M32.651 107.919l-.973.087m0 0l-.944.259m0 0l-.885.424m0 0l-.801.574m0 0l-.69.708m0 0l-.561.82m0 0l-.413.907m0 0l-.253.967m0 0l-.084.997m0 0v12.636m0 0l.084.997m0 0l.253.968m0 0l.413.907m0 0l.561.82m0 0l.69.708m0 0l.801.575m0 0l.885.422m0 0l.944.259m0 0l.973.088m0 0h45.4m0 0l2.044-.184m0 0l1.982-.543m0 0l1.86-.889m0 0l1.68-1.206m0 0l1.451-1.487m0 0l1.177-1.722m0 0l.867-1.905m0 0l.531-2.031m0 0l.179-2.095m0 0l-.179-2.094m0 0l-.531-2.031m0 0l-.867-1.906m0 0l-1.177-1.721m0 0l-1.451-1.487m0 0l-1.68-1.206m0 0l-1.86-.889m0 0l-1.982-.544m0 0l-2.044-.183m0 0h-45.4M34.818 119.98a.946.946 0 11-1.891-.001.946.946 0 011.891.001zM24.804 265.269h67.26m0 0v-26.45m0 0h-67.26m0 0v26.45M32.651 240.934l-.973.081m0 0l-.944.238m0 0l-.885.389m0 0l-.801.53m0 0l-.69.652m0 0l-.561.755m0 0l-.413.836m0 0l-.253.891m0 0l-.084.918m0 0v11.638m0 0l.084.919m0 0l.253.891m0 0l.413.835m0 .001l.561.756m0-.001l.69.652m0 0l.801.529m0 0l.885.389m0 0l.944.239m0 0l.973.08m0 0h45.4m0 0l2.044-.168m0 0l1.982-.502m0 0l1.86-.818m0 0l1.68-1.111m0 0l1.451-1.369m0 0l1.177-1.586m0 0l.867-1.755m0 0l.531-1.87m0 0l.179-1.93m0 0l-.179-1.929m0 0l-.531-1.87m0 0l-.867-1.755m0 0l-1.177-1.587m0 0l-1.451-1.369m0 0l-1.68-1.111m0 .001l-1.86-.818m0-.001l-1.982-.502m0 0l-2.044-.168m0 0h-45.4M34.818 252.043a.946.946 0 11-1.891-.001.946.946 0 011.891.001zM24.804 238.251V201.41m0 0l.166-.401m0 0l.4-.166m0 0h15.493m0 0l.401.166m0 0l.166.401m0 0v36.841m0 0l-.166.401m0 0l-.401.166m0 0H25.37m0 0l-.4-.166m0 0l-.166-.401M28.96 237.118v-34.575M29.528 201.977H39.73M40.296 202.543v34.575M39.73 237.685H29.528M28.96 202.543c0-.313.254-.566.567-.566M39.73 201.977c.312 0 .566.253.566.566M40.296 237.118a.567.567 0 01-.566.567M29.528 237.685a.567.567 0 01-.567-.567M33.116 219.831a.755.755 0 11-1.51 0 .755.755 0 011.51 0z"/><path class="st1" d="M25.334 219.377v.907h7.748l.301-.255v-.396l-.301-.256zM25.333 219.377v.907m0 0h7.748m0 0l.301-.256m0 0v-.395m0 0l-.301-.256m0 0h-7.748"/><path class="st1" d="M25.069 219.076h.265v1.51h-.265zM25.333 220.586v-1.511m0 0h-.265m0 0v1.511m0 0h.265"/><path class="st1" d="M24.804 218.698h.265v2.266h-.265zM25.069 220.964v-2.267m0 0h-.265m0 0v2.267m0 0h.265M26.694 223.099h-1.625v-.095h-.132v-.283h-.133v1.889h.133v-.283h.132v-.095h1.625v-.321h.416v1.077h.49v-2.645h-.49v1.077h-.416zM26.693 223.099h-1.624m0 0v-.094m0 0h-.133m0 0v-.284m0 0h-.132m0 0v1.89m0 0h.132m0 0v-.283m0 0h.133m0 0v-.095m0 0h1.624m0 0v-.322m0 0h.416m0 0v1.078m0 0h.491m0 0v-2.645m0 0h-.491m0 0v1.076m0 0h-.416m0 0v-.321M26.694 216.562v-.321h.416v1.076h.49v-2.645h-.49v1.077h-.416v-.321h-1.625v-.094h-.132v-.284h-.133v1.89h.133v-.284h.132v-.094zM26.693 216.562h-1.624m0 0v.094m0 0h-.133m0 0v.283m0 0h-.132m0 0v-1.889m0 0h.132m0 0v.284m0 0h.133m0 0v.094m0 0h1.624m0 0v.322m0 0h.416m0 0v-1.077m0 0h.491m0 0v2.644m0 0h-.491m0 0v-1.076m0 0h-.416m0 0v.321M27.109 223.911l.072-.071M27.109 223.42l.072.072M26.693 223.911v-.491M25.069 224.232v-1.133M24.936 223.005v1.323M27.109 215.75l.072.072M27.109 216.241l.072-.072M26.693 215.75v.491M25.069 215.428v1.135M24.936 216.656v-1.321"/><path class="st1" d="M27.6 223.666a.246.246 0 11-.49-.001.246.246 0 01.49.001zM27.6 215.995a.245.245 0 11-.491 0 .246.246 0 11.491 0zM59.211 156.888l.469 1.645m0 0l.718 1.552m0 0l.968 1.23m0 0l1.248.942m0 0l1.448.594m0 0l1.551.206m0 0l1.551-.206m0 0l1.447-.594m0 0l1.249-.942m0 0l.967-1.23m0 0l.719-1.552m0 0l.469-1.645m0 0l.207-1.698m0 0l-.059-1.709m0 0l-1.223-11.584m0 0H60.286m0 0l-1.223 11.584m0 0l-.059 1.709m0 0l.207 1.698M69.73 147.618h-4.116M65.614 147.618h-4.117M68.677 161.885a5.748 5.748 0 01-3.063.887M71.925 155.055c.165 2.591-1.031 5.107-3.248 6.83M69.73 147.618c1.505 2.252 2.266 4.828 2.195 7.437M59.301 155.055c-.069-2.609.69-5.185 2.195-7.437M62.549 161.885c-2.217-1.723-3.413-4.238-3.248-6.83M65.614 162.771a5.744 5.744 0 01-3.064-.887M60.965 141.896h9.295v.189h-9.295zM70.261 141.897h-9.296m0 0v.189m0 0h9.296m0 0v-.189M56.166 141.897H75.06M56.166 137.362H75.06M56.166 141.897v-4.535M75.06 141.897v-4.535M60.723 30.871l.469 1.645m0 0l.718 1.552m0 0l.967 1.229m0 0l1.249.943m0 0l1.448.594m0 0l1.55.205m0 0l1.552-.205m0 0l1.447-.594m0 0l1.248-.943m0 0l.968-1.229m0 0l.719-1.552m0 0l.469-1.645m0 0l.207-1.698m0 0l-.059-1.709m0 0l-1.223-11.585m0 0H61.798m0 0l-1.223 11.585m0 0l-.06 1.709m0 0l.208 1.698M71.242 21.601h-4.117M67.124 21.601h-4.116M70.189 35.868c-.89.57-1.962.881-3.064.886M73.436 29.038c.166 2.591-1.03 5.106-3.247 6.83M71.242 21.601c1.505 2.252 2.266 4.828 2.194 7.437M60.813 29.038c-.07-2.609.689-5.185 2.195-7.437M64.061 35.868c-2.217-1.723-3.413-4.238-3.248-6.83M67.124 36.754a5.74 5.74 0 01-3.063-.886M62.477 15.879h9.295v.189h-9.295zM71.773 15.879h-9.296m0 0v.189m0 0h9.296m0 0v-.189M57.678 15.879h18.894M57.678 11.345h18.894M57.678 15.879v-4.534M76.572 15.879v-4.534M41.43 105.622V36.473M24.804 105.622V36.473M41.43 36.473H24.804M41.43 105.622H24.804M39.918 97.025V79.644M39.918 79.644h-12.47M27.449 79.644v17.381M27.449 97.025h12.469M39.918 62.451V45.07M39.918 45.069h-12.47M27.449 45.069V62.45M27.449 62.451h12.469M31.375 88.334a1.134 1.134 0 11-2.269 0 1.134 1.134 0 012.269 0zM31.375 53.76a1.134 1.134 0 11-2.269 0 1.134 1.134 0 012.269 0z"/><path class="st1" d="M25.334 87.881v.906h7.748l.301-.255v-.396l-.301-.255zM25.333 87.881v.907m0 0h7.748m0 0l.301-.256m0 0v-.395m0 0l-.301-.256m0 0h-7.748"/><path class="st1" d="M25.069 87.578h.265v1.511h-.265zM25.333 89.09v-1.512m0 0h-.265m0 0v1.512m0 0h.265"/><path class="st1" d="M24.804 87.201h.265v2.267h-.265zM25.069 89.468v-2.267m0 0h-.265m0 0v2.267m0 0h.265M26.694 91.602h-1.625v-.094h-.132v-.283h-.133v1.889h.133v-.283h.132v-.095h1.625v-.321h.416v1.077h.49v-2.645h-.49v1.077h-.416zM26.693 91.603h-1.624m0 0v-.094m0 0h-.133m0 0v-.284m0 0h-.132m0 0v1.89m0 0h.132m0 0v-.284m0 0h.133m0 0v-.094m0 0h1.624m0 0v-.322m0 0h.416m0 0v1.078m0 0h.491m0 0v-2.645m0 0h-.491m0 0v1.076m0 0h-.416m0 0v-.321M26.694 85.065v-.321h.416v1.077h.49v-2.645h-.49v1.077h-.416v-.321h-1.625v-.095h-.132v-.283h-.133v1.889h.133v-.283h.132v-.095zM26.693 85.066h-1.624m0 0v.095m0 0h-.133m0 0v.283m0 0h-.132m0 0v-1.889m0 0h.132m0 0v.283m0 0h.133m0 0v.095m0 0h1.624m0 0v.321m0 0h.416m0 0v-1.077m0 0h.491m0 0v2.645m0 0h-.491m0 0v-1.077m0 0h-.416m0 0v.321M25.334 53.307v.906h7.748l.301-.255v-.395l-.301-.256zM25.333 53.306v.907m0 .001h7.748m0 0l.301-.256m0-.001v-.395m0 .001l-.301-.256m0-.001h-7.748"/><path class="st1" d="M25.069 53.004h.265v1.511h-.265zM25.333 54.516v-1.512m0 0h-.265m0 0v1.512m0 0h.265"/><path class="st1" d="M24.804 52.626h.265v2.267h-.265zM25.069 54.894v-2.268m0 0h-.265m0 0v2.268m0 0h.265M26.694 57.028h-1.625v-.094h-.132v-.284h-.133v1.889h.133v-.283h.132v-.094h1.625v-.322h.416v1.077h.49v-2.645h-.49v1.077h-.416zM26.693 57.029h-1.624m0 0v-.095m0-.001h-.133m0 0v-.283m0 .001h-.132m0 0v1.889m0 0h.132m0 0v-.283m0 0h.133m0 0v-.094m0-.001h1.624m0 0v-.322m0 0h.416m0 0v1.077m0 .001h.491m0 0v-2.645m0 0h-.491m0 0v1.077m0 0h-.416m0 0v-.321M26.694 50.491v-.32h.416v1.076h.49v-2.645h-.49v1.078h-.416v-.322h-1.625v-.095h-.132v-.282h-.133v1.889h.133v-.285h.132v-.094zM26.693 50.491h-1.624m0 0v.095m0 0h-.133m0 0v.283m0 .001h-.132m0 0v-1.89m0-.001h.132m0 0v.284m0 .001h.133m0 0v.094m0 0h1.624m0 0v.322m0 0h.416m0 0v-1.078m0 0h.491m0 0v2.646m0-.001h-.491m0 0V50.17m0 .001h-.416m0 0v.321M27.109 92.415l.072-.072M27.109 91.924l.072.072M26.693 92.415v-.491M25.069 92.736v-1.133M24.936 91.508v1.322M27.109 84.254l.072.072M27.109 84.744l.072-.071M26.693 84.254v.491M25.069 83.932v1.133M24.936 85.161v-1.324M27.109 57.841l.072-.072M27.109 57.35l.072.072M26.693 57.841v-.491M25.069 58.162v-1.134M24.936 56.934v1.323M27.109 49.679l.072.072M27.109 50.17l.072-.072M26.693 49.679v.491M25.069 49.358v1.134M24.936 50.586v-1.323M27.6 92.17a.245.245 0 11-.491 0 .246.246 0 11.491 0zM27.6 84.499a.244.244 0 01-.245.245.245.245 0 110-.491c.136 0 .245.11.245.246z"/><path class="st1" d="M27.6 57.595a.245.245 0 11-.491 0 .246.246 0 01.491 0zM27.6 49.924a.245.245 0 11-.491 0 .246.246 0 11.491 0zM140.052 387.885V349.91m0 0h22.672m0 0v15.303m0 0h1.89m0 0v22.672m0 0h-24.562M41.43 200.843H24.804m0 0V160.79m0 0H41.43m0 0v40.053M44.075 337.062h28.339v1.512H44.075zM87.529 337.062h28.34v1.512h-28.34zM162.724 327.238v-22.672m0 .001h-22.672m0 0v22.672m0-.001h22.672M147.61 315.903h7.557M148.716 318.574l5.344-5.344M151.388 319.681v-7.557M154.06 318.574l-5.344-5.344M159.89 348.209v-19.271m0 0l-.221-.534m0 0l-.535-.221m0 0h-17.382m0 0l-.534.221m0 0l-.221.534m0 0v19.271m0 0l.221.535m0 0l.534.221m0 0h17.382m0 0l.535-.221m0 0l.221-.535M162.724 349.91v-22.672M140.052 349.91v-22.672M162.724 349.91h-22.672M162.724 327.238h-22.672M158.001 346.32v-15.492M157.245 330.073h-11.714M144.776 330.827v7.002M144.776 339.318v7.002M145.531 347.076h11.715M158.001 346.32h.108a.108.108 0 10-.216 0 .108.108 0 00.216 0h-.108zM157.245 330.073c.417 0 .756.338.756.755M144.776 330.827c0-.417.338-.755.756-.755M145.531 347.076a.756.756 0 01-.756-.756M158.001 346.32a.757.757 0 01-.756.756M149.608 338.914l.24-.101m0 0l.099-.24m0 0l-.1-.24m0 0l-.24-.1m0 0h-7.477m0 0l-.24.101m0 0l-.099.24m0 0l.099.24m0 0l.24.1m0 0h7.478M144.058 339.328v-.414m0 0h-1.928m0 0l-.24-.1m0 0l-.1-.24m0 0l.1-.24m0 0l.24-.101m0 0h1.928m0 0v-.414m0 0h-2.456m0 0v1.509m0 0h2.456M145.417 339.319v-.404m0 0h-1.322m0 0v.404m0 0h1.322M145.417 337.83h-1.322m0 0v.403m0 0h1.322m0 0v-.403M190.402 367.291h21.916m0 0v18.516m0 0h-21.916m0 0v-18.516M201.359 378.572v5.299M201.359 383.87h1.097M201.359 378.572h1.097M210.213 378.572v5.299M209.118 383.87h1.095M209.118 378.572h1.095M197.853 381.438a2.74 2.74 0 11-5.479-.001 2.74 2.74 0 015.479.001zM200.352 373.198a3.968 3.968 0 11-7.935-.001 3.968 3.968 0 017.935.001z"/><path class="st1" d="M198.652 373.198a2.268 2.268 0 11-4.536-.002 2.268 2.268 0 014.536.002zM208.431 381.252a2.645 2.645 0 11-5.29 0 2.645 2.645 0 015.29 0zM210.305 372.661a3.4 3.4 0 11-6.803-.001 3.4 3.4 0 016.803.001zM187.285 365.213h28.148M187.285 387.885h28.148M187.285 365.213v22.672M215.434 365.213v22.672M187.283 365.211l-22.672.002M187.285 387.883l-22.671.002M187.283 365.211l.002 22.672M164.611 365.213l.003 22.672M271.02 387.885v-1.7m0 0h-45.988m0 0v1.7m0 0h45.988M271.02 353.877h-22.994m0 0v23.806m0 0h22.994m0 0v-23.806M248.026 353.877h-22.994m0 0v23.806m0 0h22.994m0 0v-23.806M225.032 353.877h-9.598m-.001 0v34.008m0 0h9.598m.001 0v-1.701m0-8.502v-23.805M280.618 353.877h-9.598m-.001 0v23.805m0 8.502v1.701m0 0h9.598m.001 0v-34.008M248.026 386.185v-8.502m0 0h-27.793m0 0v8.502m0 0h27.793M248.026 386.185v-8.502m0 0h27.793m0 0v8.502m0 0h-27.793M43.32 358.488a7.18 7.18 0 11-14.36 0 7.18 7.18 0 0114.36 0zM182.516 374.607a3.41 3.41 0 11-6.822 0 3.41 3.41 0 016.822 0z"/><path class="st1" d="M181.994 374.607a2.89 2.89 0 11-5.779.001 2.89 2.89 0 015.779-.001zM175.375 373.776a2.579 2.579 0 11-5.16 0 2.579 2.579 0 015.16 0z"/><path class="st1" d="M174.242 373.776a1.445 1.445 0 11-2.89 0 1.445 1.445 0 012.89 0zM170.902 19.473a3.778 3.778 0 11-7.557.001 3.778 3.778 0 017.557-.001z"/><path class="st1" d="M168.256 19.473a1.134 1.134 0 11-2.267.001 1.134 1.134 0 012.267-.001zM186.908 144.163a3.78 3.78 0 11-7.558 0 3.78 3.78 0 017.558 0z"/><path class="st1" d="M184.262 144.163a1.134 1.134 0 11-2.267 0 1.134 1.134 0 012.267 0zM275.705 144.163a3.778 3.778 0 11-7.557.001 3.778 3.778 0 017.557-.001z"/><path class="st1" d="M273.06 144.163a1.134 1.134 0 11-2.269 0 1.134 1.134 0 012.269 0zM142.886 91.263h.756m0 0V21.459m0 0l-.756.756m0 0v69.048M152.607 43.815h-18.626m0 0v.756m0 0h18.626m0 0v-.756M152.607 45.82h-18.626m0 0v.756m0 0h18.626m0 0v-.756M152.607 47.825h-18.626m0 0v.756m0 0h18.626m0 0v-.756M152.607 49.829h-18.626m0 0v.755m0 0h18.626m0 0v-.755M152.472 54.075l-18.491-2.242m0 0l-.091.751m0 0l18.491 2.241m0 0l.091-.75M261.535 210.29h-68.016m0 0v-71.794m0 0h68.016m0 0v71.794M259.646 212.179H195.41m0 0l-.724-.144m0 0l-.612-.409m0 0l-.41-.613m0 0l-.144-.723m0 0h68.016m0 0l-.144.723m0 0l-.41.613m0 0l-.613.409m0 0l-.723.144M261.535 134.717h-68.016m0 0v3.779m0 0h68.016m0 0v-3.779M193.52 134.717h68.016m0 0v1.889m0 0H193.52m0 0v-1.889M191.63 134.717h-17.004m0 0v18.893m0 0h17.004m0 0v-18.893M263.424 134.717h17.004m0 0v18.893m0 0h-17.004m0 0v-18.893M221.482 140.385h-25.695m0 0l-.267.111m0 0l-.11.267m0 0v12.47m0 0l.11.266m0 0l.267.111m0 0h25.695m0 0l.268-.111m0 0l.11-.266m0 0v-12.47m0 0l-.11-.267m0 0l-.268-.111M233.574 140.385h25.694m0 0l.267.111m0 0l.111.267m-.001 0v12.47m0 0l-.111.266m.001 0l-.267.111m0 0h-25.694m0 0l-.268-.111m0 0l-.11-.266m0 0v-12.47m0 0l.11-.267m0 0l.268-.111M261.535 152.587h-1.89M233.196 152.587H221.86M195.41 152.587h-1.891M261.535 157.596h-68.016m0 0v18.686m0 0l68.016-14.907m0 0v-3.779M160.456 134.717h-22.672m0 0v66.355m0 0h22.672m0 0v-66.355M148.743 201.073h.756m0 0v-66.355m0-.001h-.756m0 0v66.355M158.464 152.828h-18.626m0 0v.756m0 0h18.626m0 0v-.756M158.464 154.833h-18.626m0 0v.756m0 0h18.626m0 0v-.756M158.464 156.838h-18.626m0 0v.755m0 0h18.626m0 0v-.755M158.464 158.843h-18.626m0 0v.756m0 0h18.626m0 0v-.756M158.328 163.088l-18.49-2.241m0 0l-.092.75m0 0l18.491 2.241m0 0l.091-.75M24.804 268.291v21.728m0 0h67.26m0 0v-21.728m0 0h-67.26M92.064 280.006v-.756m0 0h-67.26m0 0v.756m0 0h67.26M31.391 270.284v18.626m0 0h.756m0 0v-18.626m0 0h-.756M33.396 270.284v18.626m0 0h.755m0 0v-18.626m0 0h-.755M35.4 270.284v18.626m0 0h.756m0 0v-18.626m0 0H35.4M37.405 270.284v18.626m0 0h.756m0 0v-18.626m0 0h-.756M41.651 270.42l-2.241 18.49m0 0l.75.091m0 0l2.241-18.49m0 0l-.75-.091M233.196 33.827v60.458m0 0h-71.794m0 0V33.827m0 0h71.794M235.085 35.504v56.893m0 0l-.145.722m0 0l-.409.613m0 0l-.613.41m0 0l-.723.144m0 0V33.827m0 0l.691.095m0 0l.601.353m0 0l.421.555m0 0l.177.674M157.622 33.827v60.458m0 0h3.779m0 0V33.827m0 0h-3.779M157.622 94.286V33.828m0 0h1.89m0 0v60.458m0 0h-1.89M157.622 33.827V11.345m0 0h18.894m0 0v22.482m0 0h-18.894M163.29 63.772v25.695m0 0l.111.267m0 0l.267.111m0 0h12.47m0 0l.267-.111m0 0l.111-.267m0 0V63.772m0 0l-.111-.267m0 0l-.267-.111m0 0h-12.47m0 0l-.267.111m0 0l-.111.267M163.29 61.79V36.095m0 0l.111-.267m0 0l.267-.111m0 0h12.47m0 0l.267.111m0 0l.111.267m0 0V61.79m0 0l-.111.267m0 0l-.267.11m0 0h-12.47m0 0l-.267-.11m0 0l-.111-.267M175.492 33.827v1.89M180.502 33.827v60.458m0 0h17.029m0 0L184.28 33.827m0 0h-3.778M280.618 265.835v15.115m0 0h-75.573m0 0v-15.115m0 0h75.573M225.841 270.716v-1.02m0 0h44.369m0 0v1.02m0 0h-44.369M235.302 269.697v-.832m0 0l.151-.567m0 0l.415-.415m0 0l.568-.152m0-.001h22.699m0 0l.566.152m0 .001l.415.415m0 0l.152.567m0 0v.832m0 0h-24.966M225.841 271.014v-.298m0 0h44.369m0 0v.298m0 0h-44.369M30.132 357.972l1.232.449m0 0h1.313m0 0l1.233-.449m0 0l1.474.342m0 0h1.512m0 0l1.473-.342m0 0l1.235.45m0 0h1.313m0 0l1.235-.45m0 0l-2.231 2.987m0 0h-7.558m0 0l-2.231-2.987M32.364 361.221h7.558m0 0v-.262m0 0h-7.558m0 0v.262M32.364 361.744h7.558m0 0v-.262m0 0h-7.558m0 0v.262M36.984 356.456l-.891-.085m0 0l-.022.226m0 0l.477.046m0 0l-1.383 1.142m0 0l.126.152m0 0l.641-.53m0 0l.068.081m0 0l-.74.612m0 0l.12.145m0 .001l.741-.61m0-.001l.08.097m0 0l-.602.496m0 0l.108.13m0 0l.601-.496m0 0l.08.098m0 0l-.414.342m0 0l.115.139m0 0l1.423-1.173M49.176 365.213v22.672m0 0h85.586m0 0v-22.672m0 0H49.176M134.762 376.927v-.756m0 0H49.176m0 0v.756m0 0h85.586M128.175 385.137V366.51m0 0h-.756m0 0v18.627m0 0h.756M126.171 385.137V366.51m0 0h-.756m0 0v18.627m0 0h.756M124.166 385.137V366.51m0 0h-.756m0 0v18.627m0 0h.756M122.161 385.137V366.51m0 0h-.756m0 0v18.627m0 0h.756M117.915 385.001l2.241-18.491m0 0l-.75-.091m0 0l-2.241 18.491m0 0l.75.091M24.804 369.748v-22.672m0 0h22.672m0 0v22.672m0 0H24.804M49.176 387.885h-1.7m0 0v-43.076m0 0h1.7m0 0v43.076M41.43 200.843H24.804m0 0V160.79m0 0H41.43m0 0v40.053M183.173 372.4h-.964m0 0v-1.204m0 0l-12.523.001m0 0v1.204m0 0h-.964M181.71 382.404l-9.634.001m0 0v-.478m0 0h.723m0 0v.238m0-.001l8.188-.001m0 .001v-.238m0 0h.723m0 0v.478M181.71 381.926l-.047-.104m-.048-.103l-.047-.103m-.047-.103l-.047-.103m-.047-.103l-.047-.104m-.047-.102l-.048-.104m-.047-.102l-.048-.104m-.046-.102l-.047-.104m-.047-.102l-.048-.104m-.047-.103l-.047-.103m-.048-.103l-.046-.103m-.047-.104l-.047-.102m-.048-.104l-.047-.102m-.047-.104l-.048-.102m-.047-.104l-.046-.103m-.048-.103l-.047-.103m-.047-.103l-.047-.103m-.048-.103l-.047-.103M172.076 381.927l.047-.104m.048-.103l.048-.103m.045-.103l.047-.103m.047-.103l.048-.103m.047-.103l.047-.104m.048-.102l.047-.104m.046-.102l.047-.104m.048-.103l.047-.103m.047-.103l.048-.103m.047-.103l.047-.104m.046-.103l.048-.102m.047-.104l.047-.103m.048-.103l.047-.103m.047-.103l.046-.103m.047-.104l.048-.102m.047-.103l.047-.103m.048-.104l.047-.103M181.71 381.926h-.078m-.113 0h-.114m-.113 0h-.113m-.114 0h-.078m0 0l-.042-.052m-.071-.088l-.071-.088m-.072-.087l-.072-.089m-.071-.088l-.071-.088m-.072-.088l-.071-.088m-.071-.088l-.072-.088m-.072-.088l-.071-.088m-.071-.088l-.072-.088m-.071-.088l-.072-.088m-.071-.088l-.072-.088m-.071-.088l-.071-.088m-.073-.088l-.071-.088m-.071-.088l-.071-.088m-.072-.088l-.072-.088m-.071-.088l-.072-.088m-.071-.088l-.071-.088m-.071-.088l-.072-.088m-.072-.088l-.071-.088m-.072-.088l-.071-.088m-.071-.088l-.072-.088m-.072-.088l-.071-.088m-.071-.088l-.072-.088m-.071-.088l-.042-.052M172.076 381.927h.078m.114 0h.114m.113 0h.113m.113 0h.078m.001 0l.042-.052m.07-.088l.071-.088m.073-.088l.071-.088m.071-.088l.071-.088m.073-.088l.071-.088m.071-.089l.072-.088m.07-.088l.071-.087m.071-.088l.073-.088m.071-.088l.071-.088m.072-.089l.071-.088m.072-.088l.07-.087m.073-.088l.071-.088m.071-.088l.072-.088m.071-.089l.072-.088m.071-.088l.072-.088m.072-.087l.071-.088m.071-.088l.071-.088m.073-.089l.071-.088m.071-.088l.071-.088m.071-.088l.072-.087m.072-.088l.071-.088m.071-.089l.072-.088m.072-.088l.042-.052M95.086 11.345v20.782m0 0h36.842m0 0v59.136m0 0H154.6m0 0V11.345m0 0H95.086M142.886 22.215l.756-.756m0 0H95.086m0 0v.756m0 0h47.8M106.775 12.494V31.12m0 0h.756m0 0V12.494m0 0h-.756M108.779 12.494V31.12m0 0h.756m0 0V12.494m0 0h-.756M110.783 12.494V31.12m0 0h.756m0 0V12.494m0 0h-.756M112.788 12.494V31.12m0 0h.756m0 0V12.494m0 0h-.756M117.034 12.629l-2.242 18.491m.001 0l.751.091m-.001 0l2.241-18.491m0 0l-.75-.091M166.263 15.794l.86 3.679m0 0l3.431 1.584m0 0l-3.431-1.584m0 0l-3.546 1.307M179.45 145.024l3.679-.86m-.001 0l1.584-3.431m0 0l-1.584 3.431m0 0l1.306 3.546M275.606 145.024l-3.68-.86m0 0l-1.583-3.431m0 0l1.583 3.431m0 0l-1.305 3.546"/></g></g><g id="walls_2_"><path class="st3" d="M348.052 8.625h-43.445m0 0v383.342m0 0h43.454m0 0l-.009-383.342M297.049 42.821h-16.247M304.607 42.821h-5.668M298.939 42.821h-1.89M297.049 108.947h-16.247M304.607 108.947h-5.668M298.939 108.947h-1.89M304.607 108.947V42.821M280.801 108.947V42.821M297.049 108.947v-3.778M297.049 105.169h1.891M298.939 105.169v3.778M298.939 71.161v1.89M298.939 73.05h-1.89M297.049 73.05v-1.889M297.995 105.169V73.051M297.049 105.169V73.051M298.939 73.05v32.119M297.049 71.161v-.944M297.049 70.216h.946M297.995 70.216v-.944M297.995 69.272h.944M298.939 69.272v1.889M298.939 42.821V46.6M298.939 46.6h-.944M297.995 46.6v-.945M297.995 45.655h-.945M297.049 45.655v-2.834M298.939 46.6v22.672M296.105 67.382V48.489M296.105 70.216v-2.833M296.105 67.382h1.89M297.995 67.382v2.834M297.995 70.216h-1.89M297.995 45.655v2.834M297.995 48.489h-1.89M296.105 48.489v-2.834M296.105 45.655h1.89M297.995 48.489v18.893M296.105 67.382V48.489M297.049 67.382V48.489M298.939 108.947h-1.89M298.939 108.947h-1.89M304.607 108.947h-5.668M297.049 108.947h-16.247M298.939 42.821h-1.89M298.939 42.821h-1.89M304.607 42.821h-5.668M297.049 42.821h-16.247"/><g><path class="st3" d="M297.049 171.295h-16.247M304.607 171.295h-5.668M298.939 171.295h-1.89M297.049 237.421h-16.247M304.607 237.421h-5.668M298.939 237.421h-1.89M304.607 237.421v-66.126M280.801 237.421v-66.126M297.049 237.421v-3.778M297.049 233.642h1.891M298.939 233.642v3.778M298.939 199.635v1.888M298.939 201.524h-1.89M297.049 201.524v-1.889M297.995 233.642v-32.119M297.049 233.642v-32.119M298.939 201.524v32.119M297.049 199.635v-.945M297.049 198.69h.946M297.995 198.69v-.945M297.995 197.745h.944M298.939 197.745v1.89M298.939 171.295v3.778M298.939 175.073h-.944M297.995 175.073v-.944M297.995 174.129h-.945M297.049 174.129v-2.834M298.939 175.073v22.672M296.105 195.856v-18.893M296.105 198.69v-2.834M296.105 195.856h1.89M297.995 195.856v2.834M297.995 198.69h-1.89M297.995 174.129v2.834M297.995 176.963h-1.89M296.105 176.963v-2.834M296.105 174.129h1.89M297.995 176.963v18.893M296.105 195.856v-18.893M297.049 195.856v-18.893M298.939 237.421h-1.89M298.939 237.421h-1.89M304.607 237.421h-5.668M297.049 237.421h-16.247M298.939 171.295h-1.89M298.939 171.295h-1.89M304.607 171.295h-5.668M297.049 171.295h-16.247"/></g><g><path class="st3" d="M297.049 282.764h-16.247M304.607 282.764h-5.668M298.939 282.764h-1.89M297.049 365.894h-16.247M304.607 365.894h-5.668M298.939 365.894h-1.89M304.607 365.894v-83.13M280.801 365.894v-83.13M297.049 365.894v-3.778M297.049 362.115h1.891M298.939 362.115v3.779M298.939 326.219v1.889M298.939 328.108h-1.89M297.049 328.108v-1.89M297.995 362.115v-34.007M297.049 362.115v-34.007M298.939 328.108v34.007M297.049 326.219v-.944M297.049 325.274h.946M297.995 325.274v-.945M297.995 324.329h.944M298.939 324.329v1.89M298.939 282.764v3.778M298.939 286.543h-.944M297.995 286.543v-.945M297.995 285.598h-.945M297.049 285.598v-2.833M296.105 285.598l-28.055 28.055M298.939 286.543v37.786M296.105 322.439v-34.007M296.105 325.274v-2.835M296.105 322.439h1.89M297.995 322.439v2.835M297.995 325.274h-1.89M297.995 285.598v2.834M297.995 288.433h-1.89M296.105 288.433v-2.834M296.105 285.598h1.89M297.995 288.433v34.007M296.105 322.439v-34.007M297.049 322.439v-34.007M296.105 325.274a39.68 39.68 0 01-28.055-11.621M298.939 365.894h-1.89M298.939 365.894h-1.89M304.607 365.894h-5.668M297.049 365.894h-16.247M298.939 282.764h-1.89M298.939 282.764h-1.89M304.607 282.764h-5.668M297.049 282.764h-16.247"/></g><path d="M304.608 398.729h-23.806v-32.835h23.806v32.835h0zm-279.808 0h-9.068v-60.911h1.51v-.453H24.8v61.364h0zm0-99.906h-7.558v-.454h-1.51l-.001-.302V.5H24.8v298.323h0zM196.308 11.458V.5h108.298v42.321H280.8V11.458h-84.492 0zm84.494 97.489h23.806v62.347h-23.806v-62.347h0zm23.805 173.817h-23.806v-16.815h-84.492v-10.958h84.492V237.42h23.806v45.344z" fill-rule="evenodd" clip-rule="evenodd" stroke="#000" stroke-miterlimit="3"/><path class="st0" d="M280.802 398.729H24.799v-10.731h11.336v-10.58H24.8v-3.022h14.357l.001 13.602h97.868V344.92h-28.718v-3.02h28.718v-37.22h3.022v83.319h140.754v10.73zm-146.07-196.032l1.511.001v-.453h1.511c0-22.469.018-44.944.027-67.414h143.021v-3.023H131.809v1.511h-.452v1.512h3.4c-.008 22.622-.022 45.246-.025 67.866zm-39.651-70.889l.001-46.402h-1.51v-.453H92.06v49.5H24.8v3.023h13.605v20.404H24.799v3.023h16.627l.001-18.893H92.06l.001 59.879h1.511v.453h1.511l-.001-67.559c.003.106 4.796.048 5.292.048v-1.512h-.453v-1.511h-4.84zm39.639 101.874l1.512.001v.453l1.511.001-.008 20.854h58.574v10.958h-61.597l.008-32.267zM24.799.5h171.51v10.958h-38.691v82.941h-25.694v-3.023h22.671V11.458H95.082l-.001 45.835h-1.51v.454h-1.512l.001-41.754H39.158v20.593H24.8v-3.023h11.335V11.458H24.799V.5zm14.359 10.958v1.512H92.06v-1.512H39.158zM24.8 341.9v3.021h26.828V341.9H24.8zm67.259-73.495h-67.26v-3.023h67.26l.001-35.381h1.511v-.453h1.511l-.001 60.583h-3.022v-21.726zm0-130.929v1.511H41.426v-1.511h50.633z"/><path class="st5" d="M.175 334.622c6.026 2.248 9.133 2.868 15.556 3.196"/><g><path class="st5" d="M106.149 83.131c-4.243 1.582-6.547 2.043-11.068 2.274"/><path class="st6" d="M106.241 83.097L95.082 57.293h-1.511v.454l11.282 25.95z"/><path class="st5" d="M81.005 204.153c3.992-1.479 6.874-2.05 11.055-2.265"/><path class="st6" d="M80.901 204.198l11.158 25.804 1.512-.001v-.453l-11.283-25.95z"/><g><path class="st5" d="M129.229 119.252c1.796 4.809 2.32 7.431 2.581 12.556"/><path class="st6" d="M129.191 119.149l-29.272 12.659v1.511h.453l29.419-12.782z"/><path class="st5" d="M150.303 231.562c-3.987 1.603-7.951 2.342-12.56 2.576"/><path class="st6" d="M150.402 231.522l-12.647-29.277h-1.512v.453l12.771 29.423z"/></g></g><path class="st6" d="M.073 334.578l1.387.601 15.782-36.356v-.454h-1.511z"/><g><path class="st7" d="M32.226.284l-7.32 6.45M39.646.284l-12.44 10.96M47.066.284l-12.44 10.96M54.496.284l-12.45 10.96M40.336 12.754l-4.1 3.61M39.256 20.234l-3.02 2.67M61.906.284l-12.44 10.96M47.756 12.754l-3.44 3.03M39.256 26.774l-3.02 2.67M31.796 33.354l-3.43 3.02M69.336.284l-12.45 10.96M55.176 12.754l-3.44 3.03M39.256 33.314l-3.47 3.06M76.756.284l-12.44 10.96M62.596 12.754l-3.43 3.03M84.176.284l-12.44 10.96M70.026 12.754l-3.44 3.03M91.606.284l-12.44 10.96M77.446 12.754l-3.44 3.03M99.026.284l-12.44 10.96M84.866 12.754l-3.44 3.03M106.446.284l-17.59 15.5M95.186 16.734l-3.02 2.67M113.866.284l-12.44 10.96M95.186 23.274l-3.02 2.67M121.286.284l-12.44 10.96M95.186 29.814l-3.02 2.67M128.716.284l-12.44 10.96M95.186 36.354l-3.02 2.67M136.136.284l-12.44 10.96M95.186 42.894l-3.02 2.66M143.556.284l-12.44 10.96M95.186 49.434l-3.02 2.66M150.986.284l-12.44 10.96M93.676 57.304l-.27.23M95.186 55.964l-1.27 1.12M158.396.284l-12.44 10.96M165.826.284l-12.45 10.96M157.716 13.964l-3.02 2.66M173.246.284l-12.44 10.96M157.716 20.504l-3.02 2.66M28.606 134.244l-3.43 3.02M180.666.284l-12.44 10.96M157.716 27.044l-3.02 2.66M92.216 84.744l-.05.05M36.026 134.244l-3.43 3.02M188.096.284l-12.44 10.96M157.716 33.584l-3.02 2.66M43.446 134.244l-4.94 4.35M95.186 88.664l-3.02 2.66M195.516.284l-12.44 10.96M196.416 6.024l-5.93 5.22M95.186 95.194l-3.02 2.67M45.716 138.774l-3.42 3.02M41.526 142.474l-3.02 2.66M50.866 134.244l-3.43 3.02M157.716 40.114l-3.02 2.66M95.186 101.734l-3.02 2.67M53.146 138.774l-3.43 3.02M31.706 157.664l-3.44 3.03M41.526 149.014l-3.02 2.66M58.286 134.244l-3.43 3.02M157.716 46.654l-3.02 2.66M95.186 108.274l-3.02 2.67M60.566 138.774l-3.43 3.02M41.526 155.554l-5.84 5.14M65.716 134.244l-3.43 3.02M157.716 53.194l-3.02 2.66M95.186 114.814l-3.02 2.67M67.996 138.774l-3.43 3.02M73.136 134.244l-3.43 3.02M157.716 59.734l-3.02 2.66M95.186 121.354l-3.02 2.67M75.416 138.774l-3.43 3.02M80.556 134.244l-3.43 3.02M157.716 66.274l-3.02 2.66M95.186 127.894l-3.02 2.66M82.836 138.774l-3.43 3.02M87.976 134.244l-3.42 3.02M136.886 91.164l-3.43 3.02M157.716 72.814l-3.02 2.66M144.306 91.164l-3.43 3.02M98.416 131.594l-6.44 5.67M90.266 138.774l-3.43 3.02M157.716 79.354l-3.02 2.66M151.726 91.164l-3.43 3.02M95.186 140.964l-3.02 2.67M157.716 85.884l-3.02 2.66M157.716 92.424l-2 1.76M95.186 147.504l-3.02 2.67M95.186 154.044l-3.02 2.67M95.186 160.594l-3.02 2.66M135.526 131.594l-3.43 3.02M95.186 167.134l-3.02 2.66M137.886 136.054l-3.03 2.67M142.946 131.594l-3.43 3.02M95.186 173.664l-3.02 2.66M137.886 142.584l-3.03 2.67M150.366 131.594l-3.43 3.02M95.186 180.204l-3.02 2.66M137.876 149.134l-3.03 2.67M157.786 131.594l-3.43 3.02M95.186 186.744l-3.02 2.66M137.876 155.674l-3.03 2.67M165.206 131.594l-3.42 3.02M95.186 193.284l-3.02 2.66M95.186 199.824l-2.11 1.85M172.636 131.594l-3.43 3.02M137.866 162.224l-3.02 2.66M28.416 265.174l-3.42 3.02M180.056 131.594l-3.43 3.02M137.866 168.764l-3.02 2.66M35.846 265.174l-3.43 3.02M187.486 131.594l-3.43 3.02M137.866 175.304l-3.02 2.66M43.256 265.174l-3.42 3.02M194.896 131.594l-3.43 3.02M137.866 181.834l-3.02 2.66M50.686 265.174l-3.43 3.02M202.316 131.594l-3.42 3.02M137.856 188.384l-3.02 2.66M58.106 265.174l-3.43 3.02M95.186 232.514l-3.02 2.66M209.746 131.594l-3.43 3.02M137.856 194.924l-3.02 2.66M217.166 131.594l-3.43 3.02M137.856 201.464l-.65.57M65.536 265.174l-3.43 3.02M95.186 239.054l-3.02 2.66M224.596 131.594l-3.43 3.02M72.956 265.174l-3.43 3.02M95.186 245.594l-3.02 2.66M232.016 131.594l-3.43 3.02M80.376 265.174l-3.43 3.02M95.186 252.134l-3.02 2.66M239.436 131.594l-3.43 3.02M87.796 265.174l-3.42 3.02M95.186 258.664l-3.02 2.66M246.856 131.594l-3.43 3.02M95.186 265.204l-3.4 2.99M254.276 131.594l-3.43 3.02M137.846 234.164l-3.02 2.66M95.186 271.744l-3.02 2.66M261.696 131.594l-3.42 3.02M95.186 278.284l-3.02 2.66M137.846 240.704l-3.02 2.66M269.126 131.594l-3.43 3.02M30.636 341.684l-3.43 3.02M95.186 284.824l-3.02 2.66M137.836 247.244l-3.02 2.66M276.546 131.594l-3.43 3.02M38.056 341.684l-3.43 3.02M137.836 253.784l-3.02 2.66M144.146 254.774l-9.33 8.21M45.486 341.684l-3.43 3.02M280.906 134.294l-.36.32M51.726 342.714l-2.26 1.99M151.556 254.774l-12.44 10.96M158.976 254.774l-12.44 10.96M30.856 374.184l-3.43 3.02M166.406 254.774l-12.45 10.96M38.276 374.184l-3.43 3.02M173.826 254.774l-12.44 10.96M39.256 379.864l-3.02 2.66M30.266 387.784l-5.36 4.72M181.246 254.774l-12.44 10.96M39.256 386.404l-13.75 12.11M188.676 254.774l-12.44 10.96M45.106 387.784l-12.18 10.73M139.686 304.464l-2.56 2.26M196.096 254.774l-12.44 10.96M140.146 310.594l-3.02 2.66M196.416 261.024l-5.35 4.71M52.526 387.784l-12.18 10.73M140.146 317.134l-3.02 2.66M112.276 341.684l-3.43 3.02M59.946 387.784l-12.18 10.73M119.706 341.684l-3.43 3.02M140.146 323.674l-3.02 2.66M67.366 387.784l-12.18 10.73M127.126 341.684l-3.43 3.02M140.146 330.214l-3.02 2.66M74.796 387.784l-12.18 10.73M134.546 341.684l-3.43 3.02M140.146 336.754l-3.02 2.66M82.216 387.784l-12.18 10.73M140.146 343.294l-3.02 2.66M89.646 387.784l-12.18 10.73M140.146 349.824l-3.02 2.66M97.056 387.784l-12.18 10.73M140.146 356.364l-3.02 2.66M104.476 387.784l-12.18 10.73M140.146 362.904l-3.02 2.66M111.906 387.784l-12.18 10.73M140.146 369.444l-3.02 2.66M119.326 387.784l-12.18 10.73M140.146 375.984l-3.02 2.66M126.756 387.784l-12.19 10.73M140.146 382.524l-3.02 2.66M134.176 387.784l-12.18 10.73M141.596 387.784l-12.18 10.73M149.016 387.784l-12.18 10.73M156.436 387.784l-12.18 10.73M163.856 387.784l-12.18 10.73M171.286 387.784l-12.18 10.73M178.706 387.784l-12.18 10.73M186.126 387.784l-12.18 10.73M193.546 387.784l-12.18 10.73M200.966 387.784l-12.18 10.73M208.396 387.784l-12.18 10.73M215.816 387.784l-12.18 10.73M223.236 387.784l-12.18 10.73M230.666 387.784l-12.18 10.73M238.076 387.784l-12.18 10.73M245.506 387.784l-12.19 10.73M252.926 387.784l-12.18 10.73M260.346 387.784l-12.18 10.73M267.776 387.784l-12.18 10.73M275.196 387.784l-12.18 10.73M280.906 389.294l-10.47 9.22M280.906 395.824l-3.05 2.69"/></g><path class="st5" d="M280.802 398.729H24.799v-10.731h11.336v-10.58H24.8v-3.022h14.357l.001 13.602h97.868V344.92h-28.718v-3.02h28.718v-37.22h3.022v83.319h140.754v10.73zm-146.07-196.032l1.511.001v-.453h1.511c0-22.469.018-44.944.027-67.414h143.021v-3.023H131.809v1.511h-.452v1.512h3.4c-.008 22.622-.022 45.246-.025 67.866zm-39.651-70.889l.001-46.402h-1.51v-.453H92.06v49.5H24.8v3.023h13.605v20.404H24.799v3.023h16.627l.001-18.893H92.06l.001 59.879h1.511v.453h1.511l-.001-67.559c.003.106 4.796.048 5.292.048v-1.512h-.453v-1.511h-4.84zm39.639 101.874l1.512.001v.453l1.511.001-.008 20.854h58.574v10.958h-61.597l.008-32.267zM24.799.5v10.958h11.336v22.105H24.8v3.023h14.358V15.993H92.06l-.001 41.754h1.512v-.454h1.51l.001-45.835h59.513v79.917h-22.671v3.023h25.694v-82.94h38.691V.5H24.799zm14.359 10.958H92.06v1.512H39.158v-1.512zM24.8 341.9h26.828v3.021H24.8V341.9zm67.259-73.495h-67.26v-3.023h67.26l.001-35.381h1.511v-.453h1.511l-.001 60.583h-3.022v-21.726zm0-130.929H41.426v1.511h50.633v-1.511z"/></g><g id="sizes"><path d="M166.635 361.086h-1.594v-9.625l-1.617.992v-1.648l1.617-1.078h1.594v11.359zM169.041 359.703l3.961-5.281c.229-.302.407-.616.535-.941s.191-.629.191-.91v-.016c0-.453-.133-.805-.398-1.055s-.644-.375-1.133-.375c-.464 0-.839.137-1.125.41s-.461.66-.523 1.16v.008H168.9v-.008c.094-.651.285-1.207.574-1.668s.663-.813 1.121-1.055.987-.363 1.586-.363c.677 0 1.255.116 1.734.348s.844.569 1.094 1.012.375.977.375 1.602v.008c0 .401-.083.82-.25 1.258s-.398.859-.695 1.266l-3.289 4.469h4.297v1.516h-6.406v-1.385zM177.322 359.492h1.594v1.594l-1.594 1.578v-3.172zM182.619 360.813c-.521-.261-.923-.629-1.207-1.105s-.426-1.03-.426-1.66v-.188c0-.567.142-1.102.426-1.602s.663-.878 1.137-1.133c-.401-.219-.723-.535-.965-.949s-.363-.851-.363-1.309v-.273c0-.594.133-1.116.398-1.566s.641-.8 1.125-1.047 1.047-.371 1.688-.371 1.203.124 1.688.371.859.597 1.125 1.047.398.973.398 1.566v.273c0 .469-.124.909-.371 1.32s-.574.724-.98.938c.479.261.863.64 1.152 1.137s.434 1.03.434 1.598v.188c0 .63-.142 1.184-.426 1.66s-.687.845-1.207 1.105-1.125.391-1.813.391-1.293-.131-1.813-.391zm2.789-1.36c.281-.146.499-.351.652-.613s.23-.566.23-.91v-.109c0-.349-.077-.655-.23-.918s-.371-.468-.652-.613-.606-.219-.977-.219-.695.073-.977.219-.499.352-.652.617-.23.573-.23.922v.117c0 .344.077.646.23.906s.371.462.652.605.606.215.977.215.696-.073.977-.219zm-.133-5.121c.245-.138.435-.335.57-.59s.203-.55.203-.883v-.109c0-.317-.067-.599-.203-.844s-.325-.434-.57-.566-.526-.199-.844-.199-.599.066-.844.199-.435.321-.57.566-.203.528-.203.852v.117c0 .328.067.618.203.871s.325.448.57.586.526.207.844.207.599-.069.844-.207zM146.342 250.748h-1.594v-9.625l-1.617.992v-1.648l1.617-1.078h1.594v11.359zM151.662 250.748h-1.594v-9.625l-1.617.992v-1.648l1.617-1.078h1.594v11.359zM154.084 249.154h1.594v1.594l-1.594 1.578v-3.172zM159.381 250.475c-.521-.261-.923-.629-1.207-1.105s-.426-1.03-.426-1.66v-.188c0-.567.142-1.102.426-1.602s.663-.878 1.137-1.133c-.401-.219-.723-.535-.965-.949s-.363-.851-.363-1.309v-.273c0-.594.133-1.116.398-1.566s.641-.8 1.125-1.047 1.047-.371 1.688-.371 1.203.124 1.688.371.859.597 1.125 1.047.398.973.398 1.566v.273c0 .469-.124.909-.371 1.32s-.574.724-.98.938c.479.261.863.64 1.152 1.137s.434 1.03.434 1.598v.188c0 .63-.142 1.184-.426 1.66s-.687.845-1.207 1.105-1.125.391-1.813.391-1.293-.131-1.813-.391zm2.789-1.36c.281-.146.499-.351.652-.613s.23-.566.23-.91v-.109c0-.349-.077-.655-.23-.918s-.371-.468-.652-.613-.606-.219-.977-.219-.695.073-.977.219-.499.352-.652.617-.23.573-.23.922v.117c0 .344.077.646.23.906s.371.462.652.605.606.215.977.215.696-.073.977-.219zm-.133-5.121c.245-.138.435-.335.57-.59s.203-.55.203-.883v-.109c0-.317-.067-.599-.203-.844s-.325-.434-.57-.566-.526-.199-.844-.199-.599.066-.844.199-.435.321-.57.566-.203.528-.203.852v.117c0 .328.067.618.203.871s.325.448.57.586.526.207.844.207.599-.069.844-.207z"/><g><path d="M135.839 107.024h-1.594v-9.625l-1.617.992v-1.648l1.617-1.078h1.594v11.359zM139.241 106.29c-.55-.567-.824-1.359-.824-2.375v-5.164c0-1.021.276-1.813.828-2.379.552-.565 1.356-.848 2.414-.848 1.063 0 1.868.281 2.418.844s.824 1.357.824 2.383v5.164c0 1.021-.276 1.814-.828 2.379-.552.565-1.356.848-2.414.848-1.062-.001-1.868-.284-2.418-.852zm3.664-1.106c.269-.294.402-.717.402-1.27V98.75c0-.552-.133-.975-.398-1.27-.266-.294-.683-.441-1.25-.441s-.984.147-1.25.441c-.266.294-.398.718-.398 1.27v5.164c0 .552.134.976.402 1.27.269.294.684.441 1.246.441s.978-.146 1.246-.441zM147.089 105.43h1.594v1.594l-1.594 1.578v-3.172zM153.612 107.024h-1.594v-9.625l-1.617.992v-1.648l1.617-1.078h1.594v11.359z"/></g><g><path d="M28.914 337.769l-.727-.348c-.485-.232-.874-.567-1.168-1.008s-.48-.97-.559-1.59h1.625c.047.323.148.589.305.797s.358.363.605.465.538.152.871.152c.526 0 .935-.141 1.227-.422s.438-.677.438-1.188v-.344c0-.567-.138-1.007-.414-1.316s-.667-.465-1.172-.465h-.805v-1.516h.805c.442 0 .786-.133 1.031-.398s.367-.641.367-1.125v-.352c0-.448-.129-.794-.387-1.039s-.624-.367-1.098-.367c-.271 0-.513.051-.727.152s-.395.258-.543.469-.257.476-.324.793h-1.617c.104-.62.301-1.151.59-1.594s.655-.778 1.098-1.008.95-.344 1.523-.344c.979 0 1.737.258 2.273.773s.805 1.242.805 2.18v.188c0 .567-.153 1.063-.461 1.484s-.742.729-1.305.922c.62.136 1.101.44 1.441.914s.512 1.078.512 1.813v.188c0 .661-.128 1.227-.383 1.695s-.626.825-1.113 1.07-1.074.367-1.762.367l-.951.002zM35.234 336.058h1.594v1.594l-1.594 1.578v-3.172zM38.859 334.526l3.813-8.227h1.641l-3.719 8.133h5.57v1.477h-7.305v-1.383zm4.899-3.554h1.555v6.688h-1.555v-6.688z"/></g><g><path d="M119.34 359.928l-.727-.348c-.485-.232-.874-.567-1.168-1.008s-.48-.97-.559-1.59h1.625c.047.323.148.589.305.797s.358.363.605.465.538.152.871.152c.526 0 .935-.141 1.227-.422s.438-.677.438-1.188v-.344c0-.567-.138-1.007-.414-1.316s-.667-.465-1.172-.465h-.805v-1.516h.805c.442 0 .786-.133 1.031-.398s.367-.641.367-1.125v-.352c0-.448-.129-.794-.387-1.039s-.624-.367-1.098-.367c-.271 0-.513.051-.727.152s-.395.258-.543.469-.257.476-.324.793h-1.617c.104-.62.301-1.151.59-1.594s.655-.778 1.098-1.008.95-.344 1.523-.344c.979 0 1.737.258 2.273.773s.805 1.242.805 2.18v.188c0 .567-.153 1.063-.461 1.484s-.742.729-1.305.922c.62.136 1.101.44 1.441.914s.512 1.078.512 1.813v.188c0 .661-.128 1.227-.383 1.695s-.626.825-1.113 1.07-1.074.367-1.762.367l-.951.002zM125.66 358.217h1.594v1.594l-1.594 1.578v-3.172zM130.265 359.076c-.55-.567-.824-1.359-.824-2.375v-5.164c0-1.021.276-1.813.828-2.379s1.356-.848 2.414-.848c1.063 0 1.868.281 2.418.844s.824 1.356.824 2.383v5.164c0 1.021-.276 1.813-.828 2.379s-1.356.848-2.414.848c-1.062 0-1.868-.284-2.418-.852zm3.665-1.105c.269-.294.402-.718.402-1.27v-5.164c0-.552-.133-.976-.398-1.27s-.683-.441-1.25-.441-.984.147-1.25.441-.398.718-.398 1.27v5.164c0 .552.134.976.402 1.27s.684.441 1.246.441.977-.147 1.246-.441z"/></g><g><path d="M72.768 101.272a2.75 2.75 0 01-1.086-.977c-.278-.427-.465-.94-.559-1.539v-.008h1.594v.008c.058.417.224.741.5.973.276.232.636.348 1.078.348.511 0 .905-.17 1.184-.512.278-.341.418-.821.418-1.441v-.954c0-.614-.14-1.092-.418-1.434-.278-.341-.673-.512-1.184-.512-.276 0-.542.078-.797.234s-.479.375-.672.656h-1.453V90.13h5.789v1.516h-4.195v2.555a2.275 2.275 0 011.414-.508c.656 0 1.218.136 1.684.406.466.271.82.667 1.063 1.188.242.521.363 1.148.363 1.883v.953c0 .734-.125 1.362-.375 1.883-.25.521-.614.918-1.094 1.191s-1.055.41-1.727.41c-.573.001-1.081-.112-1.527-.335zM79.679 99.897h1.594v1.594l-1.594 1.578v-3.172zM83.288 100.108l3.961-5.281c.229-.302.407-.616.535-.941.128-.325.191-.629.191-.91v-.016c0-.453-.133-.805-.398-1.055s-.644-.375-1.133-.375c-.464 0-.839.137-1.125.41s-.461.66-.523 1.16v.008h-1.648V93.1c.094-.651.285-1.207.574-1.668s.663-.813 1.121-1.055.987-.363 1.586-.363c.677 0 1.255.116 1.734.348.479.232.844.569 1.094 1.012.25.443.375.977.375 1.602v.008c0 .401-.083.82-.25 1.258s-.398.859-.695 1.266l-3.289 4.469h4.297v1.516h-6.406v-1.385z"/></g><g><path d="M109.062 48.817a2.75 2.75 0 01-1.086-.977c-.278-.427-.465-.94-.559-1.539v-.008h1.594v.008c.058.417.224.741.5.973.276.232.636.348 1.078.348.511 0 .905-.17 1.184-.512.278-.341.418-.821.418-1.441v-.953c0-.614-.14-1.092-.418-1.434-.278-.341-.673-.512-1.184-.512-.276 0-.542.078-.797.234s-.479.375-.672.656h-1.453v-5.984h5.789v1.516h-4.195v2.555a2.275 2.275 0 011.414-.508c.656 0 1.218.136 1.684.406.466.271.82.667 1.063 1.188.242.521.363 1.148.363 1.883v.953c0 .734-.125 1.362-.375 1.883-.25.521-.614.918-1.094 1.191s-1.055.41-1.727.41c-.573 0-1.082-.112-1.527-.336zM115.972 47.442h1.594v1.594l-1.594 1.578v-3.172zM120.577 48.302c-.55-.567-.824-1.359-.824-2.375v-5.164c0-1.021.276-1.813.828-2.379.552-.565 1.356-.848 2.414-.848 1.063 0 1.868.281 2.418.844s.824 1.357.824 2.383v5.164c0 1.021-.276 1.814-.828 2.379-.552.565-1.356.848-2.414.848-1.062-.001-1.868-.284-2.418-.852zm3.665-1.106c.269-.294.402-.717.402-1.27v-5.164c0-.552-.133-.975-.398-1.27-.266-.294-.683-.441-1.25-.441s-.984.147-1.25.441c-.266.294-.398.718-.398 1.27v5.164c0 .552.134.976.402 1.27.269.294.684.441 1.246.441s.977-.146 1.246-.441z"/></g><g><path d="M315.205 162.335h-1.594v-9.625l-1.617.992v-1.648l1.617-1.078h1.594v11.359zM318.607 161.6c-.55-.567-.824-1.359-.824-2.375v-5.164c0-1.021.276-1.813.828-2.379.552-.565 1.356-.848 2.414-.848 1.063 0 1.868.281 2.418.844s.824 1.357.824 2.383v5.164c0 1.021-.276 1.814-.828 2.379-.552.565-1.356.848-2.414.848-1.062 0-1.868-.284-2.418-.852zm3.664-1.105c.269-.294.402-.717.402-1.27v-5.164c0-.552-.133-.975-.398-1.27-.266-.294-.683-.441-1.25-.441s-.984.147-1.25.441c-.266.294-.398.718-.398 1.27v5.164c0 .552.134.976.402 1.27.269.294.684.441 1.246.441s.978-.147 1.246-.441zM326.455 160.741h1.594v1.594l-1.594 1.578v-3.172zM331.752 162.061c-.521-.26-.923-.629-1.207-1.105s-.426-1.03-.426-1.66v-.188c0-.567.142-1.102.426-1.602s.663-.877 1.137-1.133c-.401-.219-.723-.535-.965-.949s-.363-.85-.363-1.309v-.273c0-.594.133-1.116.398-1.566.266-.45.641-.799 1.125-1.047.484-.247 1.047-.371 1.688-.371s1.203.124 1.688.371c.484.248.859.597 1.125 1.047.266.451.398.973.398 1.566v.273c0 .469-.124.909-.371 1.32a2.472 2.472 0 01-.98.938c.479.261.863.64 1.152 1.137a3.13 3.13 0 01.434 1.598v.188c0 .63-.142 1.184-.426 1.66s-.687.845-1.207 1.105c-.521.261-1.125.391-1.813.391s-1.293-.13-1.813-.391zm2.789-1.359c.281-.146.499-.35.652-.613.153-.263.23-.566.23-.91v-.109c0-.349-.077-.655-.23-.918a1.576 1.576 0 00-.652-.613c-.281-.146-.606-.219-.977-.219s-.695.073-.977.219c-.281.146-.499.352-.652.617s-.23.573-.23.922v.117c0 .344.077.646.23.906.153.261.371.462.652.605.281.144.606.215.977.215s.696-.073.977-.219zm-.133-5.121c.245-.138.435-.334.57-.59.136-.255.203-.549.203-.883v-.109c0-.317-.067-.599-.203-.844s-.325-.434-.57-.566-.526-.199-.844-.199-.599.066-.844.199-.435.322-.57.566a1.726 1.726 0 00-.203.852v.117c0 .328.067.619.203.871.136.253.325.448.57.586.245.138.526.207.844.207s.599-.069.844-.207z"/></g><g><path d="M44.842 175.213a2.75 2.75 0 01-1.086-.977c-.278-.427-.465-.94-.559-1.539v-.008h1.594v.008c.058.417.224.741.5.973.276.232.636.348 1.078.348.511 0 .905-.17 1.184-.512.278-.341.418-.821.418-1.441v-.953c0-.614-.14-1.092-.418-1.434-.278-.341-.673-.512-1.184-.512-.276 0-.542.078-.797.234s-.479.375-.672.656h-1.453v-5.984h5.789v1.516h-4.195v2.555a2.275 2.275 0 011.414-.508c.656 0 1.218.136 1.684.406.466.271.82.667 1.063 1.188.242.521.363 1.148.363 1.883v.953c0 .734-.125 1.362-.375 1.883-.25.521-.614.918-1.094 1.191s-1.055.41-1.727.41c-.573 0-1.082-.112-1.527-.336zM51.752 173.838h1.594v1.594l-1.594 1.578v-3.172zM57.178 175.213a2.75 2.75 0 01-1.086-.977c-.278-.427-.465-.94-.559-1.539v-.008h1.594v.008c.058.417.224.741.5.973.276.232.636.348 1.078.348.511 0 .905-.17 1.184-.512.278-.341.418-.821.418-1.441v-.953c0-.614-.14-1.092-.418-1.434-.278-.341-.673-.512-1.184-.512-.276 0-.542.078-.797.234s-.479.375-.672.656h-1.453v-5.984h5.789v1.516h-4.195v2.555a2.275 2.275 0 011.414-.508c.656 0 1.218.136 1.684.406.466.271.82.667 1.063 1.188.242.521.363 1.148.363 1.883v.953c0 .734-.125 1.362-.375 1.883-.25.521-.614.918-1.094 1.191s-1.055.41-1.727.41c-.573 0-1.082-.112-1.527-.336z"/></g><g><path d="M117.269 336.269l3.961-5.281c.229-.302.407-.616.535-.941s.191-.629.191-.91v-.016c0-.453-.133-.805-.398-1.055s-.644-.375-1.133-.375c-.464 0-.839.137-1.125.41s-.461.66-.523 1.16v.008h-1.648v-.008c.094-.651.285-1.207.574-1.668s.663-.813 1.121-1.055.987-.363 1.586-.363c.677 0 1.255.116 1.734.348s.844.569 1.094 1.012.375.977.375 1.602v.008c0 .401-.083.82-.25 1.258s-.398.859-.695 1.266l-3.289 4.469h4.297v1.516h-6.406v-1.385zM125.551 336.058h1.594v1.594l-1.594 1.578v-3.172zM129.16 336.269l3.961-5.281c.229-.302.407-.616.535-.941s.191-.629.191-.91v-.016c0-.453-.133-.805-.398-1.055s-.644-.375-1.133-.375c-.464 0-.839.137-1.125.41s-.461.66-.523 1.16v.008h-1.648v-.008c.094-.651.285-1.207.574-1.668s.663-.813 1.121-1.055.987-.363 1.586-.363c.677 0 1.255.116 1.734.348s.844.569 1.094 1.012.375.977.375 1.602v.008c0 .401-.083.82-.25 1.258s-.398.859-.695 1.266l-3.289 4.469h4.297v1.516h-6.406v-1.385z"/></g><g><path d="M99.549 161.961l-.727-.348a2.857 2.857 0 01-1.168-1.008c-.294-.44-.48-.97-.559-1.59h1.625c.047.323.148.589.305.797.156.208.358.363.605.465s.538.152.871.152c.526 0 .935-.141 1.227-.422s.438-.677.438-1.188v-.344c0-.567-.138-1.006-.414-1.316-.276-.31-.667-.465-1.172-.465h-.805v-1.516h.805c.442 0 .786-.133 1.031-.398s.367-.641.367-1.125v-.352c0-.448-.129-.794-.387-1.039-.258-.245-.624-.367-1.098-.367-.271 0-.513.051-.727.152s-.395.258-.543.469-.257.476-.324.793h-1.617c.104-.62.301-1.151.59-1.594a2.893 2.893 0 011.098-1.008c.442-.229.95-.344 1.523-.344.979 0 1.737.258 2.273.773s.805 1.242.805 2.18v.188c0 .568-.153 1.063-.461 1.484s-.742.729-1.305.922c.62.136 1.101.44 1.441.914.341.474.512 1.078.512 1.813v.188c0 .662-.128 1.227-.383 1.695s-.626.826-1.113 1.07c-.487.245-1.074.367-1.762.367l-.951.002zM105.869 160.25h1.594v1.594l-1.594 1.578v-3.172zM109.494 158.719l3.813-8.227h1.641l-3.719 8.133h5.57v1.477h-7.305v-1.383zm4.898-3.555h1.555v6.688h-1.555v-6.688z"/></g></g></svg>