<svg xmlns="http://www.w3.org/2000/svg" viewBox="0 0 533.968 473.642"><style>.st0{fill-rule:evenodd;clip-rule:evenodd;fill:#fff}.st1{stroke-width:.4;stroke-miterlimit:3}.st1,.st2{fill-rule:evenodd;clip-rule:evenodd;fill:none;stroke:#999;stroke-linecap:round;stroke-linejoin:round}.st2,.st3{stroke-miterlimit:3}.st3,.st4,.st5{fill:none;stroke:#000}.st4{fill-rule:evenodd;clip-rule:evenodd;stroke-miterlimit:3}.st5{stroke-miterlimit:22.9256}.st5,.st7,.st8{fill-rule:evenodd;clip-rule:evenodd}.st8{fill:none;stroke:#666;stroke-width:.6;stroke-miterlimit:22.9256}</style><g id="_x32_44"><path class="st0" d="M527.771 359.702h5.752V15.91H322.771v100.042H.445v357.263h527.326z" id="fon"/><g id="mebel_1_"><g id="mebel"><path class="st1" d="M500.368 83.071l6.893-6.892m-13.839 6.892l13.839-13.839m-20.786 13.839l14.224-14.224m-21.171 14.224l13.721-13.721m12.056-12.056l1.956-1.956m-34.68 27.733l15.673-15.673m10.767-10.767l6.057-6.057M465.634 83.071l20.5-20.5m6.147-6.147l5.85-5.85m-39.444 32.497l32.497-32.497M451.74 83.071l32.497-32.497m-39.444 32.497l32.497-32.497m-39.443 32.497l32.496-32.497m-39.444 32.497l32.497-32.497m-39.444 32.497l32.497-32.497m-39.443 32.497l32.496-32.497m-39.444 32.497l32.966-32.966m-39.912 32.966l39.912-39.912m-45.91 38.963l42.883-42.883m-42.883 35.936l35.936-35.936m-35.936 28.989l28.989-28.989m-28.989 22.042l22.042-22.042m-22.042 15.096l15.096-15.096m-15.096 8.148l8.148-8.148m-8.148 1.201l1.201-1.201M507.261 54.941l-4.366-4.367M502.357 56.983l-6.409-6.409m11.313 18.261l-.615-.615M494.67 56.243l-5.669-5.669m18.26 25.208l-6.899-6.899m-11.276-11.277l-7.032-7.032m25.207 32.154L493.97 69.437m-7.722-7.722l-11.141-11.141m25.549 32.497L468.16 50.574m25.55 32.497l-32.497-32.497m25.55 32.497l-32.497-32.497m-11.241-11.241l-.233-.233m37.024 43.971l-32.497-32.497m-4.294-4.294l-7.041-7.041m36.884 43.832l-43.832-43.832m36.886 43.832l-43.833-43.832m36.886 43.832l-43.832-43.832m36.885 43.832l-43.832-43.832M445.081 83.071l-43.832-43.832m36.885 43.832l-41.02-41.021m34.073 41.021l-34.073-34.073m27.126 34.073l-27.126-27.126m20.179 27.126l-20.179-20.179m13.233 20.179l-13.233-13.232m6.285 13.232l-6.285-6.285M452.283 132.854h70.282m-70.282-11.336h70.282m-70.282-11.336h45.522m12.679 0h12.08m-36.841-11.335h12.685m11.472 0h12.684m-4.912 37.691V94.974m-22.672 41.564V94.974m-22.672 41.564v-35.33"/><path class="st2" d="M497.742 109.965l.469 1.645m0 0l.718 1.551m0 .001l.967 1.231m0-.001l1.249.942m0 0l1.448.594m0 0l1.55.206m0 .001l1.552-.206m0-.001l1.447-.594m0 0l1.248-.942m0 0l.968-1.231m0 .001l.719-1.551m0-.001l.469-1.645m0 0l.207-1.697m0 0l-.06-1.71m0 .001l-1.222-11.584m0-.001h-10.654m0 0l-1.223 11.584m0 .001l-.06 1.71m0-.001l.208 1.697M508.261 100.695h-4.117M504.144 100.695h-4.116M507.207 114.962a5.742 5.742 0 01-3.063.886M510.455 108.132c.165 2.592-1.031 5.106-3.248 6.83M508.261 100.695c1.505 2.253 2.265 4.828 2.194 7.437M497.832 108.132c-.07-2.609.689-5.185 2.195-7.437M501.08 114.962c-2.217-1.724-3.413-4.238-3.248-6.83M504.144 115.848a5.731 5.731 0 01-3.063-.886M499.497 94.973h9.294v.19h-9.294zM508.792 94.974h-9.296m0 0v.188m0 0h9.296m0 0v-.188M494.697 94.974h18.893M494.697 90.439h18.893M494.697 94.974v-4.535M513.59 94.974v-4.535M419.786 86.094h32.496M452.282 86.094v50.444M452.282 136.539h-32.496M427.343 92.707a.944.944 0 11-1.889 0 .944.944 0 011.889 0zM432.769 107.258l.372-1.396m0 0l.793-1.209m0 0l1.132-.898m0 0l1.358-.496m0 0l1.445-.043m0 0l1.385.413m0 0l1.185.828m0 0l.863 1.159m0 0l.455 1.372m0 0v1.447m0 0l-.455 1.371m0 0l-.863 1.159m0 0l-1.185.829m0 0l-1.385.413m0 0l-1.445-.043m0 0l-1.358-.496m0 0l-1.132-.897m0 0l-.793-1.209m0 0l-.372-1.397m0 0h-5.538m0 0l.109.455m0 0l.036.49m0 0l-.036.489m0 0l-.109.455m0 0l-.172.392m0 0l-.225.299m0 0l-.261.19m0 0l-.28.064m0 0h-.403m0 0l-.12-.019m0 0l-.277-.065m0 0l-.104-.053m0 0l-.251-.182m0 0l-.07-.078m0 0l-.205-.274m0 0l-.157-.357m0 0l-.052-.195m0 0l-.059-.25m0 0l-.688-.02m0 0l-.796-.009m0 0v1.729m0 0h-.435m0 0v2.872m0 0l-.058.159m0 0l-.149.083m0 0l-.166-.033m0 0l-.106-.134m0 0l-.157-.485m0 0l-.315-.726m0 0l-.574-1.008m0 0l-.258-.728m0 0h-.124m0 0v.604m0 0h-.983m0 0v-2.569m0 0h.877m0 0l.011-.024m0 0l.027-.039m0 0l.034-.033m0 0l.041-.024m0 0l.672-.279m0 0v-.697m0 0h-1.36m0 0v1.058m0 0h-.302m0 0V106.2m0 0h.302m0 0v1.058m0 0h1.36m0 0v-1.436m0 0h.152m0 0v-.416m0 0h-.303m0 0v.152m0 0h-.528m0 0v.604m0 0h-.983m0 0v-2.569m0 0h.983m0 0v.604m0 0h.528m0 0v.152m0 0h.303m0 0v-.152m0 0h1.511m0 0v2.57m0 0h2.154m0 0v.023m0 0v.059m0 0v.094m0 0v.124m0 0v.148m0 0v.043m0 0h7.504M421.448 109.601v-.209m0 0l-.341.14m0 0l-.052.325m0 0l.001.009m0 0h.241m0 0v.151m0 0h.302m0 0v-.416m0 0h-.151M421.6 111.075h-.24m0 0l.239.677m0 0l.563.987m0 0l.023.054m0 0v-1.567m0 0h-.585m0 0v-.151M420.769 105.218h.529M420.769 104.538h.529M420.769 110.875v.352M421.298 110.017v.188M421.298 110.206v.681M421.298 110.886v.014M421.121 110.206h.176M421.292 110.886h.005M421.6 111.075v-1.058M423.111 108.722v-.557M422.185 111.226h.491M423.678 108.657v-.491M422.665 114.022l.012.076M420.561 109.872l.002-.046M420.593 110.043l-.033-.171M420.644 109.328l.01-.047M420.654 109.281l.009-.02M420.893 111.226l-.161-.453M420.732 110.773l-.139-.73M421.065 109.916l-.009-.059M422.665 114.022l-.167-.513M422.497 113.509l-.312-.717M420.749 110.815h.108c0-.06-.048-.108-.108-.108s-.108.048-.108.108.048.108.108.108.108-.049.108-.108h-.108zM420.563 109.826l.081-.498M425.166 108.167l-.001-.002M424.635 108.166l-.001.002M421.996 109.601h-.127M421.751 109.601h-.103M421.868 109.601h-.118M421.448 109.392v-.523M421.205 110.639l-.14-.723M421.359 111.075l-.154-.436M422.082 108.921v-.001M422.038 109.012l.044-.091M422.022 109.11l.015-.098M422.038 109.207l-.015-.098M422.082 109.299l-.044-.092M422.082 109.299h.108a.108.108 0 10-.216 0 .108.108 0 00.216 0h-.108zM424.578 109.455l-.026-.345M424.552 109.11l.026-.345M424.595 109.526l-.017-.071M424.654 108.444l.052-.195M424.578 108.765l.076-.321M422.249 109.479l.062.009M424.706 108.249l.037-.083M424.595 108.694l-.688.02M422.311 108.732l-.062.009M422.249 108.741l-.058.026M422.191 108.767l-.049.042M422.142 108.809l-.038.056M422.103 108.865l-.021.056M422.082 108.921l-.003.008M422.079 108.928l-.008.068M422.071 108.997v.227M422.071 109.223l.008.068M422.079 109.291l.003.009M422.082 109.299l.021.057M422.103 109.356l.038.055M422.142 109.411l.049.042M422.191 109.453l.058.026M423.907 108.713l-1.596.019M423.111 109.498l-.8-.01M422.809 109.601v-.107M422.809 108.726v-.561M432.769 107.258h5.343M432.769 108.166h5.343M438.112 107.258v.907M420.769 104.198v1.36M421.298 104.349v1.058M421.6 104.349v1.058M421.6 105.823h1.209M422.809 109.601H421.6M420.088 107.258v.907M421.448 107.258h3.817M427.232 108.166h-5.783M422.809 105.823v1.436M423.111 106.767v.491M423.678 106.767v.491M423.111 108.657h1.493M435.447 107.258a1.89 1.89 0 110 .907M422.136 105.823a.34.34 0 11.589 0M452.849 86.094h32.308m0 0l.4.165m0 0l.166.401m0 0v13.982m0 0l-.166.4m0 0l-.4.166m0 0h-32.308m0 0l-.4-.166m0 0l-.166-.4m0 0V86.66m0 0l.166-.401m0 0l.4-.165M453.982 90.251h14.566m.908 0h14.566M484.59 90.817v8.691M484.023 100.075h-30.041M453.416 99.508v-8.691M484.023 90.251c.313 0 .567.254.567.566M484.59 99.508a.567.567 0 01-.567.566M453.982 100.075a.567.567 0 01-.567-.566M453.416 90.817c0-.312.254-.566.567-.566M469.758 93.239a.757.757 0 01-.302.605v-1.21a.753.753 0 01.302.605zm-1.209.604a.754.754 0 010-1.21v1.21zM469.456 86.623h-.907m0 0v7.749m0 0l.256.3m0 0h.395m0 0l.256-.3m0 0v-7.749M468.246 86.358h1.512v.265h-1.512zM468.247 86.623h1.512m0 0v-.264m0 0h-1.512m0 0v.264"/><path class="st2" d="M467.869 86.093h2.267v.265h-2.267zM467.869 86.359h2.267m0 0v-.265m0 0h-2.267m0 0v.265M465.734 87.983v-1.624m0 0h.095m0 0v-.133m0 0h.283m0 0v-.132m0 0h-1.889m0 0v.132m0 0h.283m0 0v.133m0 0h.095m0 0v1.624m0 0h.321m0 0v.416m0 0h-1.077m0 0v.491m0 0h2.645m0 0v-.491m0 0h-1.077m0 0v-.416m0 0h.321M472.271 87.983v-1.624m0 0h-.094m0 0v-.133m0 0h-.284m0 0v-.132m0 0h1.89m0 0v.132m0 0h-.284m0 0v.133m0 0h-.094m0 0v1.624m0 0h-.322m0 0v.416m0 0h1.077m0 0v.491m0 0h-2.645m0 0v-.491m0 0h1.077m0 0v-.416m0 0h-.321M464.922 88.399l.071.071M465.413 88.399l-.072.071M464.922 87.983h.491M464.601 86.359h1.133M465.829 86.226h-1.323M473.083 88.399l-.072.071M472.592 88.399l.072.071M473.083 87.983h-.491M473.405 86.359h-1.134M472.177 86.226h1.322M465.413 88.645a.246.246 0 11-.491-.001.246.246 0 01.491.001zM473.083 88.645a.246.246 0 11-.491-.001.246.246 0 01.491.001zM397.681 24.124h44.777m0 0l.401.166m0 .001l.166.4m0 0v13.982m0-.001l-.166.4m0 0l-.401.166m0 .001h-44.777m0 0l-.4-.166m0-.001l-.166-.4m0 0V24.691m0 0l.166-.4m0 0l.4-.166M398.815 28.281h20.801m.906 0h20.803M441.891 28.847v8.691M441.324 38.105h-42.51M398.248 37.539v-8.691M441.324 28.281c.313 0 .566.254.566.566M441.891 37.539a.566.566 0 01-.566.566M398.815 38.105a.567.567 0 01-.567-.566M398.248 28.847c0-.312.254-.566.567-.566M420.825 31.269a.754.754 0 01-.303.605v-1.211a.759.759 0 01.303.606zm-1.209.605a.755.755 0 010-1.21v1.21zM420.523 24.654h-.907m0 0v7.748m0 0l.256.301m-.001 0h.395m.001 0l.256-.301m0 0v-7.748M419.314 24.387h1.511v.265h-1.511zM419.314 24.654h1.512m0 0v-.265m0 0h-1.512m0 0v.265"/><path class="st2" d="M418.935 24.124h2.267v.264h-2.267zM418.936 24.389h2.268m0 0v-.265m0 0h-2.268m0 0v.265M416.801 26.013v-1.624m0 0h.094m0 0v-.133m0 0h.284m0 0v-.132m0 0h-1.89m0 0v.132m0 0h.284m0 0v.133m0 0h.094m0 0v1.624m0 0h.322m0 0v.416m0 0h-1.077m0 0v.491m0 0h2.645m0 0v-.491m0 0h-1.077m0 0v-.416m0 0h.321M423.338 26.013v-1.624m0 0h-.095m0 0v-.133m0 0h-.283m0 0v-.132m0 0h1.889m0 0v.132m0 0h-.283m0 0v.133m0 0h-.095m0 0v1.624m0 0h-.321m0 0v.416m0 0h1.077m0 0v.491m0 0h-2.645m0 0v-.491m0 0h1.077m0 0v-.416m0 0h-.321M415.988 26.429l.072.072M416.48 26.429l-.072.072M415.988 26.013h.491M415.667 24.389h1.134M416.895 24.257h-1.322M424.15 26.429l-.072.072M423.659 26.429l.072.072M424.15 26.013h-.491M424.471 24.389h-1.133M423.243 24.257h1.322M416.48 26.675a.246.246 0 11-.491-.001.246.246 0 01.491.001zM424.15 26.675a.245.245 0 11-.49 0 .245.245 0 01.49 0zM492.269 56.426l-1.645.468m.001 0l-1.552.719m0 0l-1.23.967m0 0l-.943 1.249m0 0l-.593 1.448m-.001 0l-.206 1.55m0 0l.206 1.551m0 0l.593 1.448m.001 0l.943 1.248m0 0l1.23.968m0 0l1.552.719m0 0l1.645.469m-.001 0l1.697.207m.001 0l1.71-.059m-.001 0l11.584-1.223m0 0V57.5m0 0l-11.584-1.222m0 0l-1.71-.06m.001 0l-1.697.208M501.54 66.944v-4.116M501.54 62.828v-4.116M487.273 65.891a5.743 5.743 0 01-.887-3.063M494.103 69.139c-2.591.165-5.107-1.031-6.83-3.248M501.54 66.944c-2.253 1.506-4.828 2.266-7.437 2.195M494.103 56.516c2.609-.07 5.185.689 7.437 2.195M487.273 59.764c1.723-2.217 4.238-3.413 6.83-3.248M486.386 62.828a5.74 5.74 0 01.887-3.063M507.073 58.18h.188v9.295h-.188zM507.261 67.475V58.18m0 0h-.188m0 0v9.295m0 0h.188M507.261 53.381v18.893M511.796 53.381v18.893M507.261 53.381h4.535M507.261 72.274h4.535M507.261 50.575h-64.236m0 0v-26.45m0 0h64.236m0 0v26.45M499.767 26.241l.93.08m0 0l.901.238m0 0l.846.39m0 0l.764.529m0 0l.66.653m0 0l.535.755m0 0l.394.835m0 0l.241.891m0 0l.083.919m0 0v11.638m0 0l-.083.919m0 0l-.241.89m0 0l-.394.836m0 0l-.535.755m0 0l-.66.652m0 0l-.764.529m0 0l-.846.39m0 0l-.901.239m0 0l-.93.08m0 0h-43.359m0 0l-1.953-.168m0 0l-1.892-.502m0 0l-1.776-.819m0 0l-1.605-1.11m0 0l-1.386-1.369m0 0l-1.124-1.587m0 0l-.828-1.755m0 0l-.507-1.87m0 0l-.171-1.93m0 0l.171-1.928m0 0l.507-1.87m0 0l.828-1.756m0 0l1.124-1.586m0 0l1.386-1.369m0 0l1.605-1.111m0 0l1.776-.818m0 0l1.892-.502m0 0l1.953-.168m0 0h43.359M499.137 37.349a.945.945 0 11-1.89 0 .945.945 0 011.89 0zM416.385 318.102a3.778 3.778 0 11-7.557 0 3.778 3.778 0 017.557 0z"/><path class="st2" d="M413.74 318.102a1.134 1.134 0 11-2.269 0 1.134 1.134 0 012.269 0zM416.385 229.304a3.778 3.778 0 11-7.557 0 3.778 3.778 0 017.557 0z"/><path class="st2" d="M413.74 229.304a1.134 1.134 0 11-2.267-.001 1.134 1.134 0 012.267.001zM482.511 307.711v-68.016m0-.001h-75.573m0 0v68.016m0 .001h75.573M484.4 305.821v-64.236m0 0l-.144-.724m0 0l-.41-.612m0 0l-.613-.409m0 0l-.722-.145m0 0v68.016m0 0l.722-.144m0 0l.613-.409m0 0l.41-.613m0 0l.144-.724M403.16 307.711v-68.016m0-.001h3.779m0 0v68.016m0 .001h-3.779M403.16 239.695v68.016m0 0h1.889m0 0v-68.016m0 0h-1.889M403.16 237.806v-17.004m0 0h18.893m0 0v17.004m0 0H403.16M403.16 309.6v17.003m0 0h18.893m0 0V309.6m0 0H403.16M408.828 267.657v-25.694m0 0l.111-.268m0 0l.267-.11m0 0h12.47m0 0l.267.11m0 0l.11.268m0 0v25.694m0 0l-.11.268m0 0l-.267.11m0 0h-12.47m0 0l-.267-.11m0 0l-.111-.268M408.828 279.749v25.695m0 0l.111.267m0 0l.267.11m0-.001h12.47m0 0l.267-.11m0 .001l.11-.267m0 0v-25.695m0 0l-.11-.267m0 0l-.267-.111m0 0h-12.47m0 0l-.267.111m0 0l-.111.267M421.029 307.711v-1.891M421.029 279.371v-11.336M421.029 241.585v-1.891M426.039 307.711v-68.016m0-.001h18.686m0 0l-14.907 68.016m0 .001h-3.779M478.732 159.218v-19.657m0 0h-81.618m0 0v19.657m0 0h81.618M397.114 149.008v.756m0 0h81.618m0 0v-.756m0 0h-81.618M472.145 158.729v-18.626m0 0h-.755m.001 0v18.626m0 0h.755M470.141 158.729v-18.626m0 0h-.756m0 0v18.626m0 0h.756M468.136 158.729v-18.626m0 0h-.755m0 0v18.626m0 0h.755M466.132 158.729v-18.626m0 0h-.756m0 0v18.626m0 0h.756M461.886 158.593l2.241-18.49m0 0l-.75-.092m0 0l-2.241 18.491m0 0l.75.091M480.622 215.89v-20.397m0 0h-83.507m0 0v9.061m0 0h6.045m0 0v11.336m0 0h77.462M403.16 204.924v.755m0 0h77.462m0 0v-.755m0 0H403.16M474.035 214.984v-18.626m0 0h-.756m0 0v18.626m0 0h.756M472.03 214.984v-18.626m0 0h-.756m0 0v18.626m0 0h.756M470.026 214.984v-18.626m0 0h-.756m0 0v18.626m0 0h.756M468.021 214.984v-18.626m0 0h-.755m0 0v18.626m0 0h.755M463.775 214.848l2.241-18.49m0 0l-.75-.091m0 0l-2.241 18.49m.001 0l.75.091M416.763 86.094h-22.672m0 0v50.444m0 0h22.672m0 0V86.094M405.049 136.539h.756m0 0V86.095m0 0h-.756m0 0v50.444M414.77 92.68h-18.626m0 0v.756m0 0h18.626m0 0v-.756M414.77 94.685h-18.626m0 0v.756m0 0h18.626m0 0v-.756M414.77 96.69h-18.626m0 0v.756m0 0h18.626m0 0v-.756M414.77 98.695h-18.626m0 0v.756m0 0h18.626m0 0v-.756M414.635 102.94l-18.491-2.241m0 0l-.091.751m0 0l18.491 2.241m0 0l.091-.751M413.467 321.781l-.86-3.679m0 0l-3.431-1.584m0 0l3.431 1.584m0 0l3.546-1.306M413.467 225.624l-.86 3.68m0 .001l-3.431 1.583m0-.001l3.431-1.583m0 .001l3.546 1.305M123.73 250.274h3.028m0 0v-.859m0 0V232.24m0 0v-.859m0 0h-3.028M130.185 231.381h-3.427m0 0v.859m0 0h3.224m0 0v-.058m0 0l-.196-.293m0 0l.087-.343m0 0l.312-.165M132.544 232.182l-.196-.293m0 .001l.087-.343m0 0l.312-.165m0 0h-2.562m0 0l-.312.165m0 0l-.087.343m0 0l.196.293m0-.001v17.291m0 0l-.196.293m0 .001l.087.343m0-.001l.312.165m0 0h2.562m0 0l-.312-.165m0 0l-.087-.343m0 .001l.196-.293m0-.001v-17.291M130.185 250.274l-.312-.165m0 0l-.087-.342m0 0l.196-.294m0 0v-.058m0 0h-3.224m0 0v.859m0 0h3.427M132.95 233.045v15.565m0 0l.227-1.004m0 0v-13.557m0 0l-.227-1.004M132.95 232.182l.196-.293m0 .001l-.086-.343m0 0l-.313-.165m0 0l-.312.165m0 0l-.087.343m0 0l.196.293m0-.001v17.291m0 0l-.196.293m0 .001l.087.343m0-.001l.312.165m0 0l.313-.165m0 0l.086-.343m0 .001l-.196-.293m0-.001v-17.291M123.73 272.191h3.028m0 0v-.859m0 0v-17.175m0 0v-.859m0 0h-3.028M130.185 253.298h-3.427m0 0v.859m0 0h3.224m0 0v-.058m0 0l-.196-.294m0 0l.087-.342m0 0l.312-.165M132.544 254.099l-.196-.294m0 0l.087-.342m0 0l.312-.165m0 0h-2.562m0 0l-.312.165m0 0l-.087.342m0 0l.196.294m0 0v17.291m0 0l-.196.293m0 0l.087.343m0 0l.312.165m0 0h2.562m0 0l-.312-.165m0 0l-.087-.343m0 0l.196-.293m0 0v-17.291M130.185 272.191l-.312-.165m0 0l-.087-.342m0 0l.196-.294m0 0v-.058m0 0h-3.224m0 0v.859m0 0h3.427M132.95 254.961v15.565m0 0l.227-1.004m0 0v-13.556m0 0l-.227-1.005M132.95 254.099l.196-.294m0 0l-.086-.342m0 0l-.313-.165m0 0l-.312.165m0 0l-.087.342m0 0l.196.294m0 0v17.291m0 0l-.196.293m0 0l.087.343m0 0l.312.165m0 0l.313-.165m0 0l.086-.343m0 0l-.196-.293m0 0v-17.291M89.723 250.274h-3.029m0 0v-.859m0 0V232.24m0 0v-.859m0 0h3.029M83.267 231.381h3.427m0 0v.859m0 0H83.47m0 0v-.058m0 0l.196-.293m0 0l-.087-.343m0 0l-.312-.165M80.908 232.182l.196-.293m0 .001l-.086-.343m0 0l-.313-.165m0 0h2.562m0 0l.312.165m0 0l.087.343m0 0l-.196.293m0-.001v17.291m0 0l.196.293m0 .001l-.087.343m0-.001l-.312.165m0 0h-2.562m0 0l.313-.165m0 0l.086-.343m0 .001l-.196-.293m0-.001v-17.291M83.267 250.274l.312-.165m0 0l.087-.342m0 0l-.196-.294m0 0v-.058m0 0h3.224m0 0v.859m0 0h-3.427M80.502 233.045v15.565m0 0l-.227-1.004m0 0v-13.557m0 0l.227-1.004M80.502 232.182l-.196-.293m0 .001l.087-.343m0 0l.312-.165m0 0l.313.165m0 0l.086.343m0 0l-.196.293m0-.001v17.291m0 0l.196.293m0 .001l-.086.343m0-.001l-.313.165m0 0l-.312-.165m0 0l-.087-.343m0 .001l.196-.293m0-.001v-17.291M89.723 272.191h-3.029m0 0v-.859m0 0v-17.175m0 0v-.859m0 0h3.029M83.267 253.298h3.427m0 0v.859m0 0H83.47m0 0v-.058m0 0l.196-.294m0 0l-.087-.342m0 0l-.312-.165M80.908 254.099l.196-.294m0 0l-.086-.342m0 0l-.313-.165m0 0h2.562m0 0l.312.165m0 0l.087.342m0 0l-.196.294m0 0v17.291m0 0l.196.293m0 0l-.087.343m0 0l-.312.165m0 0h-2.562m0 0l.313-.165m0 0l.086-.343m0 0l-.196-.293m0 0v-17.291M83.267 272.191l.312-.165m0 0l.087-.342m0 0l-.196-.294m0 0v-.058m0 0h3.224m0 0v.859m0 0h-3.427M80.502 254.961v15.565m0 0l-.227-1.004m0 0v-13.556m0 0l.227-1.005M80.502 254.099l-.196-.294m0 0l.087-.342m0 0l.312-.165m0 0l.313.165m0 0l.086.342m0 0l-.196.294m0 0v17.291m0 0l.196.293m0 0l-.086.343m0 0l-.313.165m0 0l-.312-.165m0 0l-.087-.343m0 0l.196-.293m0 0v-17.291M123.73 275.214h3.028m0 0v.859m0 0v17.175m0 0v.859m0 0h-3.028M130.185 294.107h-3.427m0 0v-.859m0 0h3.224m0 0v.058m0 0l-.196.294m0 0l.087.342m0 0l.312.165M132.544 293.306l-.196.294m0 0l.087.342m0 0l.312.165m0 0h-2.562m0 0l-.312-.165m0 0l-.087-.342m0 0l.196-.294m0 0v-17.291m0 0l-.196-.293m0 0l.087-.343m0 0l.312-.165m0 0h2.562m0 0l-.312.165m0 0l-.087.343m0 0l.196.293m0 0v17.291M130.185 275.214l-.312.165m0 0l-.087.343m0 0l.196.293m0 0v.058m0 0h-3.224m0 0v-.859m0 0h3.427M132.95 292.444v-15.565m0 0l.227 1.004m0 0v13.556m0 0l-.227 1.005M132.95 293.306l.196.294m0 0l-.086.342m0 0l-.313.165m0 0l-.312-.165m0 0l-.087-.342m0 0l.196-.294m0 0v-17.291m0 0l-.196-.293m0 0l.087-.343m0 0l.312-.165m0 0l.313.165m0 0l.086.343m0 0l-.196.293m0 0v17.291M89.723 275.214h-3.029m0 0v.859m0 0v17.175m0 0v.859m0 0h3.029M83.267 294.107h3.427m0 0v-.859m0 0H83.47m0 0v.058m0 0l.196.294m0 0l-.087.342m0 0l-.312.165M80.908 293.306l.196.294m0 0l-.086.342m0 0l-.313.165m0 0h2.562m0 0l.312-.165m0 0l.087-.342m0 0l-.196-.294m0 0v-17.291m0 0l.196-.293m0 0l-.087-.343m0 0l-.312-.165m0 0h-2.562m0 0l.313.165m0 0l.086.343m0 0l-.196.293m0 0v17.291M83.267 275.214l.312.165m0 0l.087.343m0 0l-.196.293m0 0v.058m0 0h3.224m0 0v-.859m0 0h-3.427M80.502 292.444v-15.565m0 0l-.227 1.004m0 0v13.556m0 0l.227 1.005M80.502 293.306l-.196.294m0 0l.087.342m0 0l.312.165m0 0l.313-.165m0 0l.086-.342m0 0l-.196-.294m0 0v-17.291m0 0l.196-.293m0 0l-.086-.343m0 0l-.313-.165m0 0l-.312.165m0 0l-.087.343m0 0l.196.293m0 0v17.291M89.723 302.42h34.007m0 0v-79.351m0 0H89.723m0 0v79.351M283.61 298.307h1.069m.001 0v13.707m0 0h-10.182m0-13.707h9.113M284.679 304.533h1.532m0 0v1.256m0 0h-1.532m0 0v-1.256M277.844 312.014l.504 1.428m0 0l.563 1.592m0 0l-1.402.418m0 0l-.71-2.01m0 0l-.505-1.428m0 0h1.55M276.294 298.307l.504-1.428m0 0l.71-2.01m0 0l1.403.418m0 0l-.563 1.592m0 0l-.504 1.428m0 0h-1.55M284.679 298.307v13.707M280.596 312.014v-13.707M89.723 302.42h34.008m0 0v-79.352m0 0H89.723m0 0v79.352M274.498 331.138h-20.405m0 0v-45.344m0 0h20.405m0 0v45.344M160.005 298.491h2.079m0 0V223.22m0 0h-2.079m0 0v75.271M201.57 298.491v-37.635m0 0h-29.095m0 0v37.635m0 0h29.095M201.57 260.856V223.22m0 0h-29.095m0 0v37.636m0 0h29.095M201.57 223.22v-9.598m0 0h-41.565m0 0v9.598m0 0h2.079m10.391 0h29.095M201.57 308.088v-9.598m0 0h-29.095m-10.392 0h-2.079m.001 0v9.598m0 0h41.565M162.083 260.856h10.391m.001 0v-42.435m0 0h-10.391m-.001 0v42.435M162.083 260.856h10.391m.001 0v42.434m0 0h-10.391m-.001 0v-42.434M239.902 242.669h1.02m.001 0v44.369m0 0h-1.02m-.001 0v-44.369M240.922 252.13h.833m0 0l.566.151m0 0l.415.415m0 0l.152.568m0 0v22.699m0 0l-.152.566m0 .001l-.415.415m0 0l-.566.153m0-.001h-.833m0 0V252.13M239.604 242.669h.298m.001 0v44.369m0 0h-.298m-.001 0v-44.369M228.021 228.313h15.114m-.001 0v68.839m0 0H228.02m.001 0v-68.839M254.093 207.577v22.672m0 0h80.296m0 0v-22.672m0 0h-80.296M334.389 219.291v-.756m0 0h-80.296m0 0v.756m0 0h80.296M260.68 209.57v18.626m0 0h.756m0 0V209.57m0 0h-.756M262.685 209.57v18.626m0 0h.755m0 0V209.57m0 0h-.755M264.689 209.57v18.626m0 0h.755m0 0V209.57m0 0h-.755M266.693 209.57v18.626m0 0h.756m0 0V209.57m0 0h-.756M270.939 209.705l-2.241 18.491m0 0l.75.091m0 0l2.241-18.49m.001 0l-.75-.092M248.425 148.063h-22.671m0 0v-22.671m0 0h22.671m0 0v22.671M237.089 132.949v7.558M239.761 134.055l-5.343 5.345M240.868 136.728h-7.557M239.761 139.4l-5.343-5.345M168.696 145.985h-21.917m0 0V127.47m0 0h21.917m0 0v18.515M157.738 134.706v-5.299M157.738 129.407h-1.096M157.738 134.706h-1.096M148.884 134.706v-5.299M149.98 129.407h-1.096M149.98 134.706h-1.096M166.724 131.839a2.74 2.74 0 11-5.479-.001 2.74 2.74 0 015.479.001zM166.68 140.079a3.968 3.968 0 11-7.935 0 3.968 3.968 0 017.935 0z"/><path class="st2" d="M164.98 140.079a2.267 2.267 0 11-4.535.001 2.267 2.267 0 014.535-.001zM155.956 132.025a2.646 2.646 0 11-5.291-.001 2.646 2.646 0 015.291.001z"/><circle class="st2" cx="152.193" cy="140.616" r="3.401"/><path class="st2" d="M180.41 148.063h-45.344M180.41 125.392h-45.344M180.41 148.063v-22.671M135.066 148.063v-22.671M204.782 145.229h19.271m0 0l.535-.221m0 0l.221-.534m0 0v-17.382m0 0l-.221-.534m0 0l-.535-.222m0 0h-19.271m0 0l-.535.222m0 0l-.22.534m0 0v17.382m0 0l.22.534m0 0l.535.221M203.082 148.063h22.672M203.082 125.392h22.672M203.082 148.063v-22.671M225.754 148.063v-22.671M206.672 143.34h15.491M222.919 142.585V130.87M222.164 130.115h-7.002m-1.489 0h-7.001M205.916 130.871v11.714M206.672 143.34h.108a.108.108 0 10-.216 0 .108.108 0 00.216 0h-.108zM222.919 142.585a.756.756 0 01-.755.756M222.164 130.115c.417 0 .755.339.755.756M205.916 130.871c0-.417.338-.756.756-.756M206.672 143.34a.757.757 0 01-.756-.756M214.077 134.948l.1.239m0 0l.241.1m0 0l.24-.101m0 0l.099-.24m0 0v-7.476m0 0l-.099-.24m0 0l-.241-.1m0 0l-.24.1m0 0l-.1.24m0 0v7.478M213.663 129.397h.414m0 0v-1.927m0 0l.1-.24m0 0l.24-.101m0 0l.241.101m0 0l.099.24m0 0v1.927m0 0h.415m0 0v-2.456m0 0h-1.509m0 0v2.456M213.673 130.757h.404m0 0v-1.322m0 0h-.404m0 0v1.322M215.162 130.757v-1.322m0 0h-.404m0 0v1.322m0 0h.404M89.723 148.063H67.051m0 0v-22.671m0 0h22.672m0 0v22.671M203.082 148.063H180.41M203.082 125.392H180.41M203.082 148.063v-22.671M180.41 148.063v-22.671M112.395 148.063H89.723m0 0v-22.671m0 0h22.672m0 0v22.671M135.066 148.063h-22.671m0 0v-22.671m0 0h22.671m0 0v22.671M287.534 136.728a7.179 7.179 0 11-14.358 0 7.179 7.179 0 1114.358 0zM198.314 139.55a3.411 3.411 0 11-6.822.002 3.411 3.411 0 016.822-.002z"/><path class="st2" d="M197.793 139.55a2.89 2.89 0 11-5.78.001 2.89 2.89 0 015.78-.001zM191.173 140.382a2.58 2.58 0 11-5.16 0 2.58 2.58 0 015.16 0z"/><circle class="st2" cx="188.594" cy="140.382" r="1.445"/><path class="st2" d="M291.69 125.392v22.671m0 0h37.408m0 0v-22.671m0 0H291.69M329.099 137.105v-.755m0 0h-37.408m0 0v.755m0 0h37.408M299.789 127.384v18.627m0 0h.756m0 0v-18.627m0 0h-.756M301.793 127.384v18.627m0 0h.756m0 0v-18.627m0 0h-.756M303.798 127.384v18.627m0 0h.756m0 0v-18.627m0 0h-.756M305.802 127.384v18.627m0 0h.756m0 0v-18.627m0 0h-.756M310.048 127.52l-2.242 18.491m0 0l.751.091m0 0l2.241-18.491m0 0l-.75-.091M274.347 136.211l1.233.449m0 0h1.312m0 0l1.233-.449m0 0l1.473.343m0 0h1.513m0 0l1.473-.343m0 0l1.235.45m0 0h1.314m0 0l1.234-.45m0 0l-2.231 2.987m0 0h-7.558m0 0l-2.231-2.987M276.578 139.461h7.557m0 0v-.262m0 0h-7.557m0 0v.262M276.578 139.984h7.557m0 0v-.262m0 0h-7.557m0 0v.262M281.198 134.696l-.891-.085m0 0l-.021.227m0 0l.476.045m0 0l-1.383 1.142m0 0l.126.152m0 0l.642-.53m0 0l.067.081m0 0l-.74.612m0 0l.121.146m0 0l.74-.611m0 0l.08.097m0 0l-.601.497m0 0l.107.13m0 0l.602-.497m0 0l.08.098m0 0l-.414.343m0 0l.115.139m0 0l1.422-1.174M269.019 148.063v-22.671m0 0h22.672m0 0v22.671m0 0h-22.672M198.971 141.757h-.963m0 0v1.205m0 0h-12.524m0 0v-1.205m0 0h-.964M197.507 132.232h-.078m-.113 0h-.114m-.113 0h-.113m-.114 0h-.078m0 0l-.042.051m-.071.088l-.072.089m-.071.087l-.071.088m-.072.088l-.071.088m-.072.088l-.071.088m-.072.088l-.071.089m-.071.088l-.072.087m-.071.088l-.072.088m-.071.088l-.072.088m-.071.088l-.072.088m-.071.089l-.072.088m-.071.087l-.071.088m-.072.088l-.071.088m-.072.089l-.071.088m-.072.088l-.071.088m-.071.088l-.072.087m-.071.088l-.072.088m-.072.088l-.071.088m-.071.089l-.072.088m-.071.088l-.072.088m-.071.087l-.072.088m-.071.088l-.072.089m-.071.088l-.042.051M187.873 132.232h.078m.113 0h.114m.113 0h.113m.114 0h.078m0 0l.042.051m.071.088l.072.089m.071.087l.071.088m.072.088l.071.088m.072.088l.071.088m.072.088l.071.089m.072.088l.071.087m.071.088l.072.088m.071.088l.072.088m.071.088l.072.088m.071.089l.072.088m.071.087l.071.088m.072.088l.071.088m.072.089l.071.088m.072.088l.071.088m.071.088l.072.087m.071.088l.072.088m.071.088l.072.088m.072.089l.071.088m.071.088l.071.088m.072.087l.072.088m.071.088l.072.089m.071.088l.042.051M187.873 131.753h9.634m0 0v.479m0 0h-.722m0 0v-.238m0 0h-8.189m0 0v.238m0 0h-.723m0 0v-.479M187.873 132.232l.047.103m.048.103l.047.103m.047.103l.047.104m.047.102l.048.104m.046.102l.048.104m.047.102l.047.104m.047.103l.047.103m.047.103l.048.103m.047.103l.047.103m.047.103l.047.103m.047.104l.048.102m.047.104l.047.103m.047.103l.047.103m.047.103l.047.103m.048.103l.047.103m.047.104l.047.102m.047.104l.048.102M197.507 132.232l-.047.103m-.048.103l-.047.103m-.047.103l-.047.104m-.047.102l-.048.104m-.046.102l-.047.104m-.048.102l-.047.104m-.047.103l-.047.103m-.048.103l-.047.103m-.047.103l-.047.103m-.047.103l-.047.103m-.047.104l-.047.102m-.048.104l-.046.103m-.048.103l-.047.103m-.047.103l-.047.103m-.048.103l-.047.103m-.047.104l-.047.102m-.047.104l-.048.102M394.091 265.164h-1.889m0 0v56.377m0 0h1.889m0 0v-56.377M356.305 265.164v28.187m0 0h26.45m0 0v-28.187m0 0h-26.45M356.305 293.351v28.189m0 0h26.45m0 0v-28.189m0 0h-26.45M356.305 321.541v9.598m0 0h37.787m0 0v-9.598m0 0h-1.89m-9.447 0h-26.451M356.305 255.565v9.599m0 0h26.451m9.446 0h1.89m0 0v-9.599m0 0h-37.787M392.202 293.351h-9.447m0 0v32.988m0 0h9.447m0 0v-32.988M392.202 293.351h-9.447m0 0v-32.986m0 0h9.447m0 0v32.986"/><g><path class="st2" d="M452.207 86.005v50.444M416.688 86.005h-22.672m0 0v50.444m0 0h22.672m0 0V86.005"/></g></g></g><g id="walls_1_"><path class="st3" d="M528.367 473.142h5.101m0-113.358h-5.101m0 0v113.358M.5 115.872v357.27m0 0h527.111m0 0V359.783m0 0H43.191m0 0V115.872m0 0H.5M422.187 352.226v-16.249M422.187 359.783v-5.668M422.187 354.115v-1.89M505.317 352.226v-16.249M505.317 359.783v-5.668M505.317 354.115v-1.89M505.317 359.783h-83.13M505.317 335.977h-83.13M505.317 352.226h-3.779M501.538 352.226v1.89M501.538 354.115h3.779M450.527 354.115h1.89M452.416 354.115v-1.89M452.416 352.226h-1.89M501.538 353.17h-49.122M501.538 352.226h-49.122M452.416 354.115h49.122M450.527 352.226h-.945M449.582 352.226v.944M449.582 353.17h-.944M448.638 353.17v.945M448.638 354.115h1.889M422.187 354.115h3.779M425.966 354.115v-.945M425.966 353.17h-.945M425.021 353.17v-.944M425.021 352.226h-2.834M425.966 354.115h22.672M446.748 351.28h-18.893M449.582 351.28h-2.834M446.748 351.28v1.89M446.748 353.17h2.834M449.582 353.17v-1.89M425.021 353.17h2.834M427.855 353.17v-1.89M427.855 351.28h-2.834M425.021 351.28v1.89M427.855 353.17h18.893M446.748 351.28h-18.893M446.748 352.226h-18.893M505.317 354.115v-1.89M505.317 354.115v-1.89M505.317 359.783v-5.668M505.317 352.226v-16.249M422.187 354.115v-1.89M422.187 354.115v-1.89M422.187 359.783v-5.668M422.187 352.226v-16.249"/><g><path class="st3" d="M310.718 352.226v-16.249M310.718 359.783v-5.668M310.718 354.115v-1.89M376.844 352.226v-16.249M376.844 359.783v-5.668M376.844 354.115v-1.89M376.844 359.783h-66.126M376.844 335.977h-66.126M376.844 352.226h-3.779M373.065 352.226v1.89M373.065 354.115h3.779M339.058 354.115h1.889M340.947 354.115v-1.89M340.947 352.226h-1.889M373.065 353.17h-32.118M373.065 352.226h-32.118M340.947 354.115h32.118M339.058 352.226h-.946M338.113 352.226v.944M338.113 353.17h-.945M337.168 353.17v.945M337.168 354.115h1.89M310.718 354.115h3.779M314.496 354.115v-.945M314.496 353.17h-.945M313.552 353.17v-.944M313.552 352.226h-2.834M314.496 354.115h22.671M335.279 351.28h-18.893M338.113 351.28h-2.834M335.279 351.28v1.89M335.279 353.17h2.834M338.113 353.17v-1.89M313.552 353.17h2.834M316.385 353.17v-1.89M316.385 351.28h-2.833M313.552 351.28v1.89M316.385 353.17h18.894M335.279 351.28h-18.893M335.279 352.226h-18.893M376.844 354.115v-1.89M376.844 354.115v-1.89M376.844 359.783v-5.668M376.844 352.226v-16.249M310.718 354.115v-1.89M310.718 354.115v-1.89M310.718 359.783v-5.668M310.718 352.226v-16.249"/></g><g><path class="st3" d="M218.141 352.226v-16.249M218.141 359.783v-5.668M218.141 354.115v-1.89M176.576 352.226v-16.249M176.576 359.783v-5.668M176.576 354.115v-1.89M176.576 359.783h41.565M176.576 335.977h41.565M176.576 352.226h3.779M180.355 352.226v1.89M180.355 354.115h-3.779M186.401 354.115h-1.89M184.511 354.115v-1.89M184.511 352.226h1.89M180.355 353.17h4.156M180.355 352.226h4.156M184.511 354.115h-4.156M186.401 352.226h.945M187.346 352.226v.944M187.346 353.17h.944M188.29 353.17v.945M188.29 354.115h-1.889M218.141 354.115h-3.779M214.363 354.115v-.945M214.363 353.17h.944M215.307 353.17v-.944M215.307 352.226h2.834M215.307 351.28l-19.772-19.771M214.363 354.115H188.29M190.179 351.28h22.294M187.346 351.28h2.833M190.179 351.28v1.89M190.179 353.17h-2.833M187.346 353.17v-1.89M215.307 353.17h-2.834M212.473 353.17v-1.89M212.473 351.28h2.834M215.307 351.28v1.89M212.473 353.17h-22.294M190.179 351.28h22.294M190.179 352.226h22.294M187.346 351.28a27.964 27.964 0 018.189-19.771M176.576 354.115v-1.89M176.576 354.115v-1.89M176.576 359.783v-5.668M176.576 352.226v-16.249M218.141 354.115v-1.89M218.141 354.115v-1.89M218.141 359.783v-5.668M218.141 352.226v-16.249"/></g><g><path class="st0" d="M48.859 354.114l1.889-1.889h-1.889zM50.748 352.225h4.723v1.889h-4.723z"/><path class="st0" d="M48.859 354.114h1.889v-1.889z"/><path class="st4" d="M50.748 204.67h16.248M43.191 204.67h5.667M48.858 204.67h1.89M43.191 204.67v155.113M66.996 204.67v131.308M50.748 204.67v4.724M50.748 209.394h-1.89M48.858 209.394v-4.724M48.858 352.226v-4.724M48.858 347.502h1.89M50.748 347.502v4.724M48.858 354.115v-1.89M50.748 209.394v138.107M48.858 347.502V209.394M48.858 204.67h1.89M48.858 204.67h1.89M43.191 204.67h5.667M50.748 204.67h16.248M131.233 352.226v-16.249M131.233 359.783v-5.668M131.233 354.115v-1.89M131.233 359.783H43.191M131.233 335.977H66.996M131.233 352.226h-4.724M126.509 352.226v1.89M126.509 354.115h4.724M50.748 354.115h4.723M55.471 354.115v-1.89M55.471 352.226h-4.723M48.858 354.115h1.89M126.509 352.226H55.471M55.471 354.115h71.038M131.233 354.115v-1.89M131.233 354.115v-1.89M131.233 359.783v-5.668M131.233 352.226v-16.249"/><g><path class="st5" d="M48.842 287.455h1.89v5.133h-1.89zM48.842 244.948h1.89v5.133h-1.89z"/></g></g><path d="M254.038 204.481H243.08v37.751h10.958v-37.751h0zm68.85-189.342l-.003 8.931h20.971v-8.931h-20.968 0zM176.463 359.802H131.12v-23.805h45.343v23.805h0zM533.468 24.061c-50.356.005-100.713.01-151.069.01v-6.802h.454v-1.511h1.058c49.86 0 99.709-.005 149.558-.01v8.313h-.001zm0 335.722l-28.264.019v-23.805h28.264v23.786h0zM66.883 204.689H43.078c0-29.902.076-59.751.103-89.573h23.805c-.026 29.846-.103 59.623-.103 89.573h0zm355.191 155.113h-45.343v-23.805h45.343v23.805h0zm-204.046-23.806h92.577v23.805h-92.577v-23.805h0zm185.077-131.515v131.496h-9.069V204.466c3.027 0 6.032.015 9.069.015z" fill-rule="evenodd" clip-rule="evenodd" stroke="#000" stroke-miterlimit="3"/><path class="st0" d="M322.885 24.071h9.182c-.004 41.312 0 82.617 0 123.92h-3.023v-22.654h-60.08v22.654l-20.594-.001v-22.653H66.996v-9.087h255.889V24.071zm-68.847 218.161H243.08v93.765h10.958v-93.765zm266.275-218.18h13.155v311.926l-11.071.019V139.489l-4.725-.001v-1.51h-.453v-1.512l5.178.001V94.9h-36.729v-8.88h-65.937v50.445h70.283v1.512h-.454v1.51h-92.501v20.716h-1.511v.453h-1.512v-24.191h22.672V86.02h-22.672V75.44h1.512v.454h1.511v7.104h110.148V24.071h3.023v10.562h12.167V24.071h-2.084v-.019zm2.084 67.826V86.02H488.69v5.857h33.707v.001zm0-8.88V37.655H510.23v45.344h12.167v-.001zM254.038 207.503h95.146v-1.511h.454v-1.512h-95.6v3.023zm11.903-82.167h-14.548v19.631h14.548v-19.631zM394.036 24.071v24.164h1.512v-.453h1.511V24.071h-3.023zm0 180.395h3.023v-12.372h-1.511v-.453h-1.512v12.839h-13.414v1.512h.454v1.511h12.96v-3.037zm9.069 14.373h77.462v-3.023h-77.462v3.023z"/><g><path class="st4" d="M379.738.177c2.263 5.971 2.902 9.49 3.227 15.862"/><path class="st7" d="M379.724.08l-35.868 15.482v1.707l36.468-15.801z"/></g><g><path class="st4" d="M351.761 220.047c-1.817-4.87-2.312-7.351-2.577-12.543"/><path class="st7" d="M351.796 220.149l29.28-12.645v-1.511h-.454l-29.405 12.78z"/><g><path class="st4" d="M409.628 189.513c-4.868 1.818-7.379 2.316-12.569 2.581"/><path class="st7" d="M409.718 189.474l-12.658-29.27h-1.512v.453l12.783 29.419z"/></g><g><path class="st4" d="M491.82 150.532c-1.566-4.228-2.029-6.541-2.261-11.044"/><path class="st7" d="M491.863 150.632l25.81-11.144-.001-1.51h-.453l-25.949 11.281z"/></g><g><path class="st4" d="M408.122 50.062c-4.296-1.604-6.483-2.046-11.062-2.282"/><path class="st7" d="M408.218 50.091l-1.387-.601-11.283 25.95v.454l1.512.001z"/></g></g><g><path class="st8" d="M67.058 116.27l-.31.27M74.478 116.27l-7.73 6.81M81.888 116.27l-10.32 9.09M89.318 116.27l-10.32 9.09M96.738 116.27l-10.32 9.09M104.158 116.27l-10.31 9.09M111.588 116.27l-10.32 9.09M119.008 116.27l-10.32 9.09M126.428 116.27l-10.32 9.09M133.848 116.27l-10.32 9.09M141.268 116.27l-10.32 9.09M148.698 116.27l-10.32 9.09M156.118 116.27l-10.32 9.09M163.548 116.27l-10.32 9.09M170.958 116.27l-10.32 9.09M178.378 116.27l-10.31 9.09M185.808 116.27l-10.32 9.09M193.228 116.27l-10.32 9.09M200.648 116.27l-10.31 9.09M208.078 116.27l-10.32 9.09M215.498 116.27l-10.32 9.09M327.558 24.09l-4.92 4.33M222.918 116.27l-10.32 9.09M331.818 26.88l-9.18 8.08M230.338 116.27l-10.32 9.09M331.818 33.41l-9.18 8.09M237.758 116.27l-10.31 9.09M331.818 39.95l-9.18 8.09M245.188 116.27l-10.32 9.09M331.818 46.49l-9.18 8.09M252.608 116.27l-10.32 9.09M331.818 53.03l-9.18 8.09M260.038 116.27l-11.91 10.49M331.818 59.57l-9.18 8.08M251.148 130.63l-3.02 2.66M267.448 116.27l-10.32 9.09M331.818 66.11l-9.18 8.09M251.148 137.17l-3.02 2.66M274.878 116.27l-10.32 9.09M331.818 72.65l-9.18 8.08M251.148 143.71l-3.02 2.66M282.298 116.27l-10.32 9.09M268.718 128.23l-3.02 2.66M331.818 79.18l-9.18 8.09M394.358 24.09l-.57.5M257.118 144.99l-3.43 3.02M289.718 116.27l-10.32 9.09M268.718 134.77l-3.02 2.66M331.818 85.72l-9.18 8.09M396.818 28.46l-3.03 2.67M264.538 144.99l-3.43 3.02M297.138 116.27l-10.32 9.09M268.718 141.31l-3.02 2.66M331.818 92.26l-9.18 8.09M396.818 35l-3.03 2.67M268.718 147.85l-.18.16M304.568 116.27l-10.32 9.09M331.818 98.8l-9.18 8.09M396.818 41.54l-3.03 2.67M311.988 116.27l-10.32 9.09M331.818 105.34l-9.18 8.09M319.408 116.27l-10.32 9.09M331.818 111.88l-15.31 13.48M331.818 118.41l-7.89 6.95M331.818 124.95l-3.02 2.66M331.818 131.49l-3.02 2.66M395.298 75.57l-1.51 1.33M331.818 138.03l-3.02 2.66M396.818 80.77l-3.03 2.67M256.358 204.5l-2.57 2.27M401.688 83.02l-3.43 3.02M331.818 144.57l-3.02 2.66M263.778 204.5l-3.44 3.03M409.118 83.02l-3.43 3.02M271.208 204.5l-3.44 3.03M416.528 83.02l-3.43 3.02M278.628 204.5l-3.44 3.03M423.948 83.02l-3.42 3.02M419.488 86.95l-3.03 2.67M243.198 242.25l-.36.32M286.048 204.5l-3.44 3.03M431.378 83.02l-3.43 3.02M419.488 93.49l-3.03 2.67M250.618 242.25l-7.78 6.85M293.468 204.5l-3.44 3.03M438.798 83.02l-3.42 3.02M419.488 100.03l-3.03 2.67M253.788 246l-10.95 9.65M300.898 204.5l-3.44 3.03M446.218 83.02l-3.42 3.02M419.488 106.57l-3.03 2.67M509.988 26.85l-3.03 2.67M253.788 252.54l-10.95 9.64M308.318 204.5l-3.44 3.03M453.648 83.02l-3.43 3.02M419.488 113.11l-3.03 2.67M509.988 33.39l-3.03 2.67M253.788 259.08l-10.95 9.64M315.738 204.5l-3.44 3.03M509.988 39.92l-3.03 2.67M527.988 24.07l-5.84 5.14M515.978 34.65l-3.44 3.03M419.488 119.65l-3.03 2.67M396.818 139.62l-3.03 2.67M400.368 136.49l-3.43 3.02M253.788 265.61l-10.95 9.65M323.158 204.5l-3.44 3.03M461.068 83.02l-3.43 3.02M509.988 46.46l-3.03 2.67M533.218 25.99l-13.27 11.69M419.488 126.18l-3.03 2.67M396.818 146.15l-3.03 2.67M253.788 272.15l-10.95 9.64M330.578 204.5l-3.44 3.03M407.788 136.49l-3.43 3.02M468.488 83.02l-3.43 3.02M509.988 53l-3.03 2.67M533.218 32.54l-11.07 9.75M419.488 132.72l-3.03 2.67M396.818 152.69l-3.03 2.67M253.788 278.69l-10.95 9.65M338.008 204.5l-3.44 3.03M415.218 136.49l-3.43 3.02M475.908 83.02l-3.43 3.02M509.988 59.54l-3.03 2.67M533.218 39.08l-11.07 9.75M422.638 136.49l-3.43 3.02M396.818 159.23l-1.13 1M395.298 160.57l-.12.11M345.428 204.5l-3.44 3.03M253.788 285.23l-10.95 9.65M483.328 83.02l-3.42 3.02M509.988 66.08l-3.03 2.67M533.218 45.61l-11.07 9.75M430.058 136.49l-3.43 3.02M253.788 291.77l-10.95 9.64M490.758 83.02l-5.34 4.7M509.988 72.61l-3.03 2.67M533.218 52.15l-11.07 9.75M488.448 91.59l-3.03 2.67M253.788 298.3l-10.95 9.65M437.478 136.49l-3.43 3.02M498.178 83.02l-3.43 3.02M509.988 79.16l-3.03 2.67M533.218 58.69l-11.07 9.76M495.518 91.9l-3.42 3.02M253.788 304.85l-10.95 9.64M444.908 136.49l-3.43 3.02M505.608 83.02l-3.43 3.02M513.018 83.02l-3.43 3.02M452.318 136.49l-3.42 3.02M253.788 311.38l-10.95 9.65M502.938 91.9l-3.43 3.02M533.218 65.23l-11.07 9.75M520.438 83.02l-3.42 3.02M459.748 136.49l-3.43 3.02M396.598 192.12l-2.81 2.47M382.538 204.5l-1.71 1.51M253.788 317.92l-10.95 9.65M510.358 91.9l-3.42 3.02M533.218 71.77l-11.07 9.75M517.788 91.9l-3.43 3.02M253.788 324.46l-10.95 9.64M396.818 198.46l-3.03 2.67M389.958 204.5l-3.44 3.03M467.168 136.49l-3.43 3.02M533.218 78.3l-11.07 9.76M474.598 136.49l-3.43 3.02M253.788 331l-5.7 5.02M533.218 84.85l-11.44 10.07M482.018 136.49l-3.43 3.02M533.218 91.38l-11.07 9.76M489.438 136.49l-3.43 3.02M533.218 97.92l-11.07 9.75M406.778 215.84l-3.43 3.02M533.218 104.46l-11.07 9.75M414.198 215.84l-3.43 3.02M533.218 110.99l-11.07 9.76M421.628 215.84l-3.43 3.02M533.218 117.54l-11.07 9.75M429.048 215.84l-3.43 3.02M519.128 136.49l-1.72 1.51M533.218 124.07l-11.07 9.76M436.468 215.84l-3.43 3.02M533.218 130.61l-11.07 9.75M443.888 215.84l-3.43 3.02M533.218 137.15l-11.07 9.75M451.318 215.84l-3.43 3.02M533.218 143.69l-11.07 9.76M458.738 215.84l-3.43 3.02M533.218 150.23l-11.07 9.75M466.158 215.84l-3.43 3.02M533.218 156.77l-11.07 9.75M473.578 215.84l-3.43 3.02M533.218 163.3l-11.07 9.75M480.318 216.44l-2.75 2.42M533.218 169.84l-11.07 9.75M533.218 176.38l-11.07 9.76M533.218 182.92l-11.07 9.75M533.218 189.46l-11.07 9.75M533.218 195.99l-11.07 9.76M533.218 202.54l-11.07 9.75M533.218 209.07l-11.07 9.76M533.218 215.61l-11.07 9.75M533.218 222.15l-11.07 9.75M533.218 228.69l-11.07 9.75M533.218 235.23l-11.07 9.75M533.218 241.77l-11.07 9.75M533.218 248.3l-11.07 9.75M533.218 254.84l-11.07 9.75M533.218 261.38l-11.07 9.76M533.218 267.92l-11.07 9.75M533.218 274.46l-11.07 9.75M533.218 280.99l-11.07 9.75M533.218 287.54l-11.07 9.75M533.218 294.07l-11.07 9.76M533.218 300.61l-11.07 9.75M533.218 307.15l-11.07 9.75M533.218 313.69l-11.07 9.75M533.218 320.23l-11.07 9.75M533.218 326.76l-10.51 9.26M533.218 333.3l-3.07 2.71"/></g><path class="st4" d="M322.885 24.071h9.182c-.004 41.312 0 82.617 0 123.92h-3.023v-22.654h-60.08v22.654l-20.594-.001v-22.653H66.996v-9.087h255.889V24.071zm-68.847 218.161H243.08v93.765h10.958v-93.765zm266.275-218.18h13.155v311.926l-11.071.019V139.489l-4.725-.001v-1.51h-.453v-1.512l5.178.001V94.9h-36.729v-8.88h-65.937v50.445h70.283v1.512h-.454v1.51h-92.501v20.716h-1.511v.453h-1.512v-24.191h22.672V86.02h-22.672V75.44h1.512v.454h1.511v7.104h110.148V24.071h3.023v10.562h12.167V24.071h-2.084v-.019zm2.084 67.826V86.02H488.69v5.857h33.707v.001zm0-8.88V37.655H510.23v45.344h12.167v-.001zM254.038 207.503h95.146v-1.511h.454v-1.512h-95.6v3.023zm11.903-82.167h-14.548v19.631h14.548v-19.631zM394.036 24.071h3.023v23.711h-1.511v.453h-1.512V24.071zm0 180.395h3.023v-12.372h-1.511v-.453h-1.512v12.839h-13.414v1.512h.454v1.511h12.96v-3.037zm9.069 14.373v-3.023h77.462v3.023h-77.462z"/></g><g id="sizes"><g id="sizes_1_"><path d="M76.323 166.046H74.73v-9.625l-1.617.992v-1.648l1.617-1.078h1.594v11.359zM80.886 166.164l-.727-.348a2.857 2.857 0 01-1.168-1.008c-.294-.44-.48-.97-.559-1.59h1.625c.047.323.148.589.305.797s.358.363.605.465c.247.102.538.152.871.152.526 0 .935-.141 1.227-.422.292-.281.438-.677.438-1.188v-.344c0-.567-.138-1.007-.414-1.316-.276-.31-.667-.465-1.172-.465h-.805v-1.516h.805c.442 0 .786-.133 1.031-.398.245-.266.367-.641.367-1.125v-.352c0-.448-.129-.794-.387-1.039s-.624-.367-1.098-.367c-.271 0-.513.051-.727.152-.214.102-.395.258-.543.469s-.257.476-.324.793H78.62c.104-.62.301-1.151.59-1.594s.655-.778 1.098-1.008c.442-.229.95-.344 1.523-.344.979 0 1.737.258 2.273.773.536.516.805 1.242.805 2.18v.188c0 .567-.154 1.063-.461 1.484-.308.422-.742.729-1.305.922.62.136 1.1.44 1.441.914.341.474.512 1.078.512 1.813v.188c0 .661-.128 1.227-.383 1.695a2.526 2.526 0 01-1.113 1.07c-.487.245-1.074.367-1.762.367l-.952.002zM87.206 164.453H88.8v1.594l-1.594 1.578v-3.172zM95.011 160.406l-.008.281c-.13.239-.327.415-.59.527a2.372 2.372 0 01-.934.168c-.542 0-1.019-.138-1.43-.414-.412-.276-.73-.665-.957-1.168s-.34-1.085-.34-1.746v-.008c0-.734.124-1.362.371-1.883.247-.521.609-.917 1.086-1.188s1.048-.406 1.715-.406 1.237.138 1.711.414c.474.276.834.677 1.082 1.203.247.526.371 1.159.371 1.898v.008c0 .406-.052.84-.156 1.301a8.052 8.052 0 01-.539 1.578c-.031.07-.065.14-.102.207l-2.422 4.867H92.15l2.861-5.639zm.074-.985c.273-.339.41-.815.41-1.43v-.008c0-.599-.137-1.063-.41-1.391s-.66-.492-1.16-.492c-.505 0-.895.164-1.168.492s-.41.794-.41 1.398v.01c0 .614.137 1.09.41 1.426s.663.504 1.168.504c.5-.001.887-.17 1.16-.509zM338.319 143.221a2.855 2.855 0 01-1.207-1.105c-.284-.477-.426-1.03-.426-1.66v-.188c0-.567.142-1.102.426-1.602.283-.5.662-.878 1.137-1.133-.401-.219-.723-.535-.965-.949s-.363-.851-.363-1.309v-.273c0-.594.133-1.116.398-1.566s.641-.8 1.125-1.047 1.047-.371 1.688-.371 1.203.124 1.688.371.859.597 1.125 1.047.398.973.398 1.566v.273c0 .469-.124.909-.371 1.32a2.485 2.485 0 01-.98.938c.479.261.863.64 1.152 1.137s.434 1.03.434 1.598v.188c0 .63-.143 1.184-.426 1.66a2.854 2.854 0 01-1.207 1.105c-.521.261-1.125.391-1.813.391s-1.292-.13-1.813-.391zm2.789-1.359c.281-.146.498-.351.652-.613.153-.263.23-.566.23-.91v-.109c0-.349-.077-.655-.23-.918-.154-.263-.371-.468-.652-.613s-.607-.219-.977-.219-.695.073-.977.219-.499.352-.652.617c-.154.266-.23.573-.23.922v.117c0 .344.076.646.23.906.153.261.371.462.652.605s.606.215.977.215c.37 0 .696-.074.977-.219zm-.133-5.121c.244-.138.435-.335.57-.59.135-.255.203-.55.203-.883v-.109c0-.317-.068-.599-.203-.844a1.406 1.406 0 00-.57-.566 1.74 1.74 0 00-.844-.199c-.318 0-.6.066-.844.199a1.394 1.394 0 00-.57.566 1.724 1.724 0 00-.203.852v.117c0 .328.067.618.203.871.135.253.325.448.57.586.244.138.525.207.844.207a1.7 1.7 0 00.844-.207zM345.647 141.901h1.594v1.594l-1.594 1.578v-3.172zM349.272 140.37l3.813-8.227h1.641l-3.719 8.133h5.57v1.477h-7.305v-1.383zm4.899-3.555h1.555v6.688h-1.555v-6.688zM217.973 327.45h-1.594v-9.625l-1.617.992v-1.648l1.617-1.078h1.594v11.359zM221.77 327.165c-.474-.269-.835-.659-1.082-1.172s-.371-1.132-.371-1.855v-.008c0-.422.05-.864.148-1.328a7.568 7.568 0 01.641-1.82l2.469-4.891h1.719l-2.898 5.664.008-.281c.13-.245.32-.435.57-.57s.542-.203.875-.203c.589 0 1.094.133 1.516.398s.742.652.961 1.16.328 1.118.328 1.832v.008c0 .729-.124 1.354-.371 1.875s-.609.917-1.086 1.188-1.048.406-1.715.406-1.238-.135-1.712-.403zm2.879-1.598c.273-.313.41-.758.41-1.336v-.008c0-.636-.144-1.126-.43-1.473s-.695-.52-1.227-.52c-.474 0-.841.175-1.102.523s-.391.841-.391 1.477v.008c0 .578.137 1.022.41 1.332s.66.465 1.16.465c.507.001.897-.156 1.17-.468zM228.606 325.856h1.594v1.594l-1.594 1.578v-3.172zM234.032 327.231c-.445-.224-.808-.55-1.086-.977s-.465-.94-.559-1.539v-.008h1.594v.008c.058.417.224.741.5.973s.636.348 1.078.348c.511 0 .905-.171 1.184-.512s.418-.821.418-1.441v-.953c0-.614-.14-1.093-.418-1.434s-.673-.512-1.184-.512c-.276 0-.542.078-.797.234s-.479.375-.672.656h-1.453v-5.984h5.789v1.516h-4.195v2.555a2.275 2.275 0 011.414-.508c.656 0 1.218.136 1.684.406s.82.667 1.063 1.188.363 1.148.363 1.883v.953c0 .734-.125 1.362-.375 1.883s-.614.918-1.094 1.191-1.055.41-1.727.41c-.573 0-1.082-.112-1.527-.336z"/><g><path d="M371.335 227.847h-1.594v-9.625l-1.617.992v-1.648l1.617-1.078h1.594v11.359zM373.741 226.464l3.961-5.281c.229-.302.407-.616.535-.941s.191-.629.191-.91v-.016c0-.453-.133-.805-.398-1.055s-.644-.375-1.133-.375c-.464 0-.839.137-1.125.41s-.461.66-.523 1.16v.008H373.6v-.008c.094-.651.285-1.207.574-1.668s.663-.813 1.121-1.055.987-.363 1.586-.363c.677 0 1.255.116 1.734.348s.844.569 1.094 1.012.375.977.375 1.602v.008c0 .401-.083.82-.25 1.258s-.398.859-.695 1.266l-3.289 4.469h4.297v1.516h-6.406v-1.385zM382.022 226.253h1.594v1.594l-1.594 1.578v-3.172zM391.671 217.91l-2.938 9.938h-1.695l2.938-9.844h-2.891v1.633h-1.594v-3.148h6.18v1.421z"/></g><g><path d="M499.103 329.818h-1.594v-9.625l-1.617.992v-1.648l1.617-1.078h1.594v11.359zM502.9 329.533c-.474-.269-.835-.659-1.082-1.172s-.371-1.132-.371-1.855v-.008c0-.422.05-.864.148-1.328a7.568 7.568 0 01.641-1.82l2.469-4.891h1.719l-2.898 5.664.008-.281c.13-.245.32-.435.57-.57s.542-.203.875-.203c.589 0 1.094.133 1.516.398s.742.652.961 1.16.328 1.118.328 1.832v.008c0 .729-.124 1.354-.371 1.875s-.609.917-1.086 1.188-1.048.406-1.715.406-1.238-.135-1.712-.403zm2.879-1.598c.273-.313.41-.758.41-1.336v-.008c0-.636-.144-1.126-.43-1.473s-.695-.52-1.227-.52c-.474 0-.841.175-1.102.523s-.391.841-.391 1.477v.008c0 .578.137 1.022.41 1.332s.66.465 1.16.465c.507.001.897-.155 1.17-.468zM509.736 328.224h1.594v1.594l-1.594 1.578v-3.172zM513.345 328.435l3.961-5.281c.229-.302.407-.616.535-.941s.191-.629.191-.91v-.016c0-.453-.133-.805-.398-1.055s-.644-.375-1.133-.375c-.464 0-.839.137-1.125.41s-.461.66-.523 1.16v.008h-1.648v-.008c.094-.651.285-1.207.574-1.668s.663-.813 1.121-1.055.987-.363 1.586-.363c.677 0 1.255.116 1.734.348s.844.569 1.094 1.012.375.977.375 1.602v.008c0 .401-.083.82-.25 1.258s-.398.859-.695 1.266l-3.289 4.469h4.297v1.516h-6.406v-1.385z"/></g><g><path d="M501.743 128.496l-.727-.348c-.485-.232-.874-.567-1.168-1.008s-.48-.97-.559-1.59h1.625c.047.323.148.589.305.797s.358.363.605.465.538.152.871.152c.526 0 .935-.141 1.227-.422s.438-.677.438-1.188v-.344c0-.567-.138-1.007-.414-1.316s-.667-.465-1.172-.465h-.805v-1.516h.805c.442 0 .786-.133 1.031-.398s.367-.641.367-1.125v-.352c0-.448-.129-.794-.387-1.039s-.624-.367-1.098-.367c-.271 0-.513.051-.727.152s-.395.258-.543.469-.257.476-.324.793h-1.617c.104-.62.301-1.151.59-1.594s.655-.778 1.098-1.008.95-.344 1.523-.344c.979 0 1.737.258 2.273.773s.805 1.242.805 2.18v.188c0 .567-.153 1.063-.461 1.484s-.742.729-1.305.922c.62.136 1.101.44 1.441.914s.512 1.078.512 1.813v.188c0 .661-.128 1.227-.383 1.695s-.626.825-1.113 1.07-1.074.367-1.762.367l-.951.002zM508.063 126.785h1.594v1.594l-1.594 1.578v-3.172zM511.673 126.996l3.961-5.281c.229-.302.407-.616.535-.941s.191-.629.191-.91v-.016c0-.453-.133-.805-.398-1.055s-.644-.375-1.133-.375c-.464 0-.839.137-1.125.41s-.461.66-.523 1.16v.008h-1.648v-.008c.094-.651.285-1.207.574-1.668.289-.461.663-.813 1.121-1.055s.987-.363 1.586-.363c.677 0 1.255.116 1.734.348s.844.569 1.094 1.012.375.977.375 1.602v.008c0 .401-.083.82-.25 1.258s-.398.859-.695 1.266l-3.289 4.469h4.297v1.516h-6.406v-1.385z"/></g><g><path d="M410.306 73.587l3.813-8.227h1.641l-3.719 8.133h5.57v1.477h-7.305v-1.383zm4.899-3.554h1.555v6.688h-1.555v-6.688zM419.408 75.119h1.594v1.594l-1.594 1.578v-3.172zM425.173 76.83l-.727-.348a2.857 2.857 0 01-1.168-1.008c-.295-.44-.48-.97-.559-1.59h1.625c.047.323.148.589.305.797s.357.363.605.465c.247.102.537.152.871.152.525 0 .935-.141 1.227-.422.291-.281.438-.677.438-1.188v-.344c0-.567-.139-1.007-.414-1.316-.276-.31-.667-.465-1.172-.465h-.804v-1.516h.805c.442 0 .786-.133 1.031-.398.244-.266.367-.641.367-1.125v-.352c0-.448-.129-.794-.387-1.039s-.624-.367-1.098-.367a1.68 1.68 0 00-.727.152c-.214.102-.395.258-.543.469s-.257.476-.324.793h-1.617c.104-.62.301-1.151.59-1.594s.654-.778 1.098-1.008c.442-.229.95-.344 1.523-.344.979 0 1.736.258 2.273.773.536.516.805 1.242.805 2.18v.188c0 .567-.154 1.063-.461 1.484-.308.422-.742.729-1.305.922.619.136 1.1.44 1.441.914.341.474.512 1.078.512 1.813v.188c0 .661-.128 1.227-.383 1.695a2.536 2.536 0 01-1.113 1.07c-.487.245-1.074.367-1.762.367l-.952.002z"/></g><g><path d="M272.103 415.13l3.813-8.227h1.641l-3.719 8.133h5.57v1.477h-7.305v-1.383zm4.899-3.554h1.555v6.688h-1.555v-6.688zM283.006 418.037c-.445-.224-.808-.55-1.086-.977s-.465-.94-.559-1.539v-.008h1.594v.008c.058.417.224.741.5.973s.636.348 1.078.348c.511 0 .905-.171 1.184-.512s.418-.821.418-1.441v-.953c0-.614-.14-1.093-.418-1.434s-.673-.512-1.184-.512c-.276 0-.542.078-.797.234s-.479.375-.672.656h-1.453v-5.984h5.789v1.516h-4.195v2.555a2.275 2.275 0 011.414-.508c.656 0 1.218.136 1.684.406s.82.667 1.063 1.188.363 1.148.363 1.883v.953c0 .734-.125 1.362-.375 1.883s-.614.918-1.094 1.191-1.055.41-1.727.41c-.573 0-1.082-.113-1.527-.336zM289.916 416.662h1.594v1.594l-1.594 1.578v-3.172zM293.541 415.13l3.813-8.227h1.641l-3.719 8.133h5.57v1.477h-7.305v-1.383zm4.898-3.554h1.555v6.688h-1.555v-6.688z"/></g></g></g></g></svg>