<svg xmlns="http://www.w3.org/2000/svg" viewBox="0 0 347.233 309.281"><style>.st0{fill-rule:evenodd;clip-rule:evenodd;fill:#fff}.st1{stroke-width:.4}.st1,.st2{fill-rule:evenodd;clip-rule:evenodd;fill:none;stroke:#999;stroke-linecap:round;stroke-linejoin:round;stroke-miterlimit:3}.st3,.st5{fill:none;stroke:#000;stroke-miterlimit:3}.st5,.st6,.st7{fill-rule:evenodd;clip-rule:evenodd}.st7{fill:none;stroke:#666;stroke-width:.6;stroke-miterlimit:22.9256}</style><g id="_x32_46"><path class="st0" d="M42.603 0v4.908H0v297.75h42.686v6.623h287.25V0z" id="fon"/><g id="mebel"><g id="mebel_1_"><path class="st1" d="M241.644 126.207h71.038m-71.038-11.336h54.018m13.979 0h3.04m-71.037-11.336h54.018m13.976 0h3.043m-71.037-11.336h71.038m-71.038-11.335h64.992m15.87 0h.001m-80.863-11.337h64.992m15.87 0h.001m-80.863-11.335h64.992M241.644 46.856h64.992M305.88 128.096v-12.828m0-12.13V37.409m-22.671 90.687V37.409m-22.672 90.687V37.409M288.34499999999997 298.323l2.988-2.988M281.398 298.323l9.935-9.935m14.627-14.626l2.376-2.376m-33.885 26.937l16.882-16.882m7.68-7.679l9.323-9.323m-40.831 33.884l23.828-23.828m.733-.733l11.135-11.135M260.557 298.323l34.974-34.973m12.004-12.003l.801-.801m-54.725 47.777l36.432-36.433m11.208-11.207l7.085-7.086m-61.673 54.726l.002-.001m1.78-1.78l38.854-38.854m7.51-7.51l13.527-13.527m-68.619 61.672l.001-.001m8.727-8.726l53.997-53.998m-69.672 62.725l.001-.001m15.674-15.673l47.051-47.051m-69.674 62.725l.001-.001m22.622-22.621l40.103-40.103M248.445 268.754l33.157-33.156m-33.157 26.209l26.209-26.21M245.036 258.269l22.672-22.672M241.644 254.714l19.117-19.117M241.644 247.768l12.17-12.17M241.644 240.82l5.223-5.223M308.336 242.419l-6.821-6.822m6.821 13.77l-13.768-13.769m8.31 15.257l-15.257-15.257m20.715 27.663l-1.063-1.063m-12.041-12.042l-14.558-14.558m27.662 34.609l-7.346-7.347m-11.108-11.107l-16.155-16.156M304.944 273.762l-10.463-10.463m-7.216-7.216l-20.485-20.486M297.998 273.762l-38.165-38.164m31.583 38.53l-38.529-38.53m55.449 62.396l-.07-.07m-16.933-16.933l-45.394-45.393M291.333 287.938l-49.689-49.689M291.333 294.885l-49.689-49.69m46.179 53.128l-39.379-39.379m-.674-.675l-6.126-6.126m39.233 46.18l-32.433-32.433M273.93 298.323l-25.486-25.485m18.539 25.485l-18.539-18.539M260.036 298.323l-11.591-11.591M253.089 298.323l-4.645-4.645M246.142 298.323l-.001-.001M239.196 298.323l-.001-.001M232.248 298.323l-.001-.001M225.301 298.323l-.001-.001m-6.328-6.328"/><path class="st2" d="M293.345 250.357l-1.645.469m0 0l-1.552.718m0 0l-1.23.967m0 0l-.942 1.249m0 0l-.594 1.448m0 0l-.206 1.551m0 0l.206 1.551m0 0l.594 1.447m0 0l.942 1.249m0 0l1.23.967m0 0l1.552.719m0 0l1.645.469m0 0l1.697.207m0 0l1.71-.059m0 0l11.585-1.223m0 0v-10.654m0 0l-11.585-1.223m0 0l-1.71-.06m0 0l-1.697.208M302.615 260.875v-4.116M302.615 256.759v-4.118M288.348 259.822a5.742 5.742 0 01-.886-3.063M295.178 263.07c-2.592.166-5.107-1.031-6.83-3.248M302.615 260.875c-2.252 1.505-4.828 2.266-7.437 2.195M295.178 250.447c2.609-.07 5.185.69 7.437 2.195M288.348 253.695c1.723-2.217 4.238-3.413 6.83-3.248M287.461 256.759a5.738 5.738 0 01.887-3.064M308.148 252.112h.188v9.294h-.188zM308.337 261.406v-9.295m0 0h-.189m0 0v9.295m0 0h.189M308.337 247.312v18.893M312.871 247.312v18.893M308.337 247.312h4.533M308.337 266.205h4.533M218.972 258.27h29.473M248.445 258.27v40.054M248.445 298.323h-29.473M226.529 264.883a.945.945 0 11-1.89-.001.945.945 0 011.89.001zM231.955 280.488l.372-1.396m0 0l.793-1.209m0 0l1.132-.898m0 0l1.358-.496m0 0l1.445-.043m0 0l1.385.413m0 0l1.184.829m0 0l.864 1.159m0 0l.455 1.372m0 0v1.445m0 0l-.455 1.372m0 0l-.864 1.16m0 0l-1.184.828m0 0l-1.385.414m0 0l-1.445-.043m0 0l-1.358-.496m0 0l-1.132-.898m0 0l-.793-1.209m0 0l-.372-1.397m0 0h-5.538m0 0l.108.456m0 0l.037.489m0 0l-.037.489m0 0l-.108.455m0 0l-.172.392m0 0l-.225.3m0 0l-.261.189m0 0l-.281.064m0 0h-.402m0 0l-.12-.019m0 0l-.277-.064m0 0l-.104-.055m0 0l-.251-.181m0 0l-.071-.078m0 0l-.204-.274m0 0l-.157-.357m0 0l-.052-.195m0 0l-.059-.25m0 0l-.688-.019m0 0l-.796-.01m0 0v1.729m0 0h-.435m0 0v2.871m0 0l-.059.16m0 0l-.148.084m0 0l-.167-.034m0 0l-.105-.133m0 0l-.157-.486m0 0l-.315-.725m0 0l-.574-1.008m0 0l-.258-.729m0 0h-.125m0 0v.605m0 0h-.982m0 0v-2.57m0 0h.877m0 0l.01-.024m0 0l.028-.039m0 0l.034-.032m0 0l.04-.026m0 0l.673-.278m0 0v-.697m0 0h-1.36m0 0v1.058m0 0h-.302m0 0v-3.023m0 0h.302m0 0v1.058m0 0h1.36m0 0v-1.436m0 0h.152m0 0v-.415m0 0h-.303m0 0v.151m0 0h-.529m0 0v.604m0 0h-.982m0 0v-2.569m0 0h.982m0 0v.604m0 0h.529m0 0v.151m0 0h.303m0 0v-.151m0 0h1.511m0 0v2.57m0 0h2.154m0 0v.023m0 0v.059m0 0v.094m0 0v.124m0 0v.149m0 0v.042m0 0h7.504M220.634 282.831v-.209m0 0l-.34.14m0 0l-.053.325m0 0l.001.009m0 0h.241m0 0v.151m0 0h.303m0 0v-.416m0 0h-.152M220.786 284.305h-.241m0 0l.24.677m0 0l.563.987m0 0l.023.053m0 0v-1.566m0 0h-.585m0 0v-.151M219.954 278.448h.529M219.954 277.768h.529M219.954 284.105v.351M220.483 283.246v.189M220.483 283.436v.68M220.483 284.115v.015M220.307 283.436h.176M220.478 284.115h.005M220.786 284.305v-1.059M222.297 281.952v-.557M221.371 284.456h.491M222.863 281.886v-.491M221.85 287.251l.012.076M219.747 283.102l.002-.047M219.779 283.272l-.032-.169M219.83 282.557l.01-.046M219.84 282.511l.008-.02M220.079 284.456l-.161-.453M219.918 284.003l-.139-.731M220.251 283.147l-.011-.06M221.85 287.251l-.167-.512M221.683 286.739l-.312-.718M219.935 284.045v-.001M219.749 283.055l.081-.498M224.352 281.397l-.002-.002M223.821 281.395l-.001.002M221.182 282.831h-.127M220.937 282.831h-.103M221.054 282.831h-.118M220.634 282.621v-.523M220.391 283.868l-.139-.721M220.545 284.305l-.154-.437M221.268 282.15h.108a.108.108 0 10-.216 0 .108.108 0 00.216 0h-.108zM221.223 282.242l.044-.091M221.208 282.34l.015-.098M221.223 282.438l-.015-.098M221.268 282.529l-.044-.091M223.764 282.684l-.026-.345M223.738 282.34l.026-.345M223.781 282.756l-.017-.071M223.84 281.674l.053-.196M223.764 281.995l.076-.321M221.435 282.708l.062.009M223.892 281.478l.037-.083M223.781 281.924l-.688.02M221.497 281.962l-.062.009M221.435 281.971l-.058.026M221.377 281.997l-.05.042M221.327 282.039l-.038.055M221.289 282.094l-.021.057M221.268 282.151l-.003.007M221.265 282.158l-.008.068M221.257 282.226v.227M221.257 282.453l.008.068M221.265 282.522l.003.007M221.268 282.529l.021.057M221.289 282.585l.038.055M221.327 282.64l.05.042M221.377 282.682l.058.026M223.093 281.943l-1.596.019M222.297 282.727l-.8-.01M221.994 282.831v-.107M221.994 281.956v-.561M231.955 280.488h5.343M231.955 281.395h5.343M237.298 280.488v.907M219.954 277.428v1.359M220.483 277.578v1.059M220.786 277.578v1.059M220.786 279.052h1.208M221.994 282.831h-1.208M219.274 280.488v.907M220.634 280.488h3.817M226.417 281.395h-5.783M221.994 279.052v1.436M222.297 279.997v.491M222.863 279.997v.491M222.297 281.886h1.493M234.633 280.488a1.889 1.889 0 110 .907M221.322 279.052a.34.34 0 11.589 0M306.636 37.409h-64.992m0 0v-26.45m0 0h64.992m0 0v26.45M299.053 13.075l.941.081m0-.001l.912.238m0 0l.855.39m0 0l.773.529m0 0l.668.652m0 0l.542.756m0 0l.398.835m0 0l.245.891m0 0l.082.918m0 .001v11.639m0-.001l-.082.918m0 0l-.245.891m0 0l-.398.835m0 0l-.542.756m0 0l-.668.652m0 0l-.773.529m0 0l-.855.389m0 0l-.912.239m0 .001l-.941.081m0-.001h-43.87m0 0l-1.975-.169m0 0l-1.915-.501m0 .001l-1.797-.819m0-.001l-1.624-1.111m0 0l-1.402-1.369m0 0l-1.137-1.586m0 .001l-.837-1.755m0-.001l-.514-1.87m0 0l-.172-1.93m0 .001l.172-1.929m0-.001l.514-1.87m0 .001l.837-1.755m0-.001l1.137-1.586m0 0l1.402-1.369m0 0l1.624-1.112m0 0l1.797-.818m0 0l1.915-.501m0 0l1.975-.169m0 .001h43.87M298.512 24.184a.944.944 0 11-1.889 0 .944.944 0 011.889 0zM322.506 37.976v29.096m0 0l-.167.4m0 0l-.4.166m0 0h-14.737m0 0l-.401-.166m0 0l-.166-.4m0 0V37.976m0 0l.166-.401m0 0l.401-.166m0 0h14.737m0 0l.4.166m0 0l.167.401M318.35 39.11v12.96m0 .906v12.961M317.783 66.504h-9.446M307.77 65.938V39.11M308.337 38.543h9.446M318.35 65.938a.566.566 0 01-.567.566M308.337 66.504a.566.566 0 01-.567-.566M307.77 39.11c0-.313.253-.567.567-.567M317.783 38.543c.313 0 .567.253.567.567M315.761 52.976a.754.754 0 01-1.21 0h1.21zm-1.211-.906a.755.755 0 011.21 0h-1.21zM321.977 52.977v-.907m0 0h-7.749m0 0l-.3.256m0 0v.395m0 0l.3.256m0 0h7.749M321.977 51.768v1.512m0 0h.265m0 0v-1.512m0 0h-.265M322.242 51.39v2.268m0 0h.265m0 0V51.39m0 0h-.265M320.617 49.255h1.625m0 0v.094m0 0h.132m0 0v.284m0 0h.133m0 0v-1.89m0 0h-.133m0 0v.284m0 0h-.132m0 0v.094m0 0h-1.625m0 0v.322m0 0h-.416m0 0v-1.078m0 0h-.491m0 0v2.645m0 0h.491m0 0v-1.076m0 0h.416m0 0v.321M320.617 55.792h1.625m0 0v-.095m0 0h.132m0 0v-.283m0 0h.133m0 0v1.889m0 0h-.133m0 0v-.283m0 0h-.132m0 0v-.095m0 0h-1.625m0 0v-.321m0 0h-.416m0 0v1.077m0 0h-.491m0 0v-2.645m0 0h.491m0 0v1.077m0 0h.416m0 0v-.321M320.201 48.443l-.072.072M320.201 48.934l-.072-.072M320.617 48.443v.491M322.242 48.121v1.134M322.374 49.349v-1.322M320.201 56.604l-.072-.072M320.201 56.113l-.072.072M320.617 56.604v-.491M322.242 56.926v-1.133M322.374 55.697v1.324M320.201 48.688a.246.246 0 11-.492 0 .246.246 0 01.492 0zM320.201 56.359a.246.246 0 11-.492 0 .246.246 0 01.492 0zM297.879 102.801l-1.645.469m0 0l-1.551.718m0 0l-1.23.968m0 0l-.943 1.248m0 0l-.594 1.448m0 0l-.205 1.551m0 0l.205 1.551m0 0l.594 1.447m0 0l.943 1.249m0 0l1.23.967m0 0l1.551.719m0 0l1.645.469m0 0l1.698.207m0 0l1.709-.059m0 0l11.585-1.223m0 0v-10.654m0 0l-11.585-1.223m0 0l-1.709-.06m0 0l-1.698.208M307.15 113.32v-4.117M307.15 109.203v-4.117M292.882 112.267a5.747 5.747 0 01-.887-3.064M299.712 115.514c-2.591.166-5.106-1.031-6.83-3.248M307.15 113.32c-2.253 1.505-4.828 2.266-7.437 2.195M299.712 102.891c2.609-.07 5.185.689 7.437 2.195M292.882 106.139c1.723-2.217 4.238-3.414 6.83-3.248M291.996 109.203a5.74 5.74 0 01.887-3.063M312.682 104.555h.189v9.295h-.189zM312.871 113.851v-9.296m0 0h-.189m0 0v9.296m0 0h.189M312.871 99.757v18.892M317.405 99.757v18.892M312.871 99.757h4.534M312.871 118.649h4.534M238.621 163.237h-22.672m0 0v-9.068m0 0h-95.411m0 0v-23.05m0 0h118.083m0 0v32.118M306.636 67.638h15.871m0 0v22.483m0 0h-15.871m0 0V67.638M241.644 258.27h-22.672m0 0v-22.672m0 0h22.672m0 0v22.672M308.337 274.329v23.427m0 0l-.167.402m-.001 0l-.4.166m0 0h-15.87m0 0l-.401-.166m.001 0l-.166-.402m-.001 0v-23.427m0 0l.166-.401m.001 0l.401-.165m-.001 0h15.87m0 0l.4.165m0 0l.167.401M304.18 275.463v9.891m0 1.378v9.892M303.613 297.19h-10.58M292.466 296.623v-21.161M293.033 274.896h10.58M304.18 296.623a.567.567 0 01-.567.566M293.033 297.19a.567.567 0 01-.567-.566M292.466 275.463c0-.313.254-.567.567-.567M303.613 274.896c.313 0 .567.254.567.567"/><circle class="st2" cx="300.676" cy="286.043" r=".756"/><path class="st2" d="M306.069 285.098l-1.585.151m0 0l-.359.124m0 0l-2.001.25m0 0l-.264.14m0 0l-.106.28m0 0l.106.28m0 0l.264.139m0 0l2.001.251m0 0l.359.123m0 0l1.585.152m0 0l.555-.181m0 0l.343-.472m0 0v-.584m0 0l-.343-.472m0 0l-.555-.181M305.128 286.557h-.562M304.566 285.528h.562M305.128 285.528v1.029M304.566 286.557a.514.514 0 110-1.028M304.125 286.713a.798.798 0 010-1.34M103.874 225.963v1.701m0 0h63.935m.001 0v-1.701m0 0h-63.935M103.874 259.97h31.967m.001 0v-23.805m0 0h-31.967m-.001 0v23.805M135.842 259.97h31.967m0 0v-23.805m0 0h-31.967m0 0v23.805M167.809 259.97h9.598m0 0v-34.008m0 0h-9.598m0 0v1.701m0 8.502v23.805M94.277 259.97h9.598m0 0v-23.805m0-8.502v-1.701m0 0h-9.598m0 0v34.008M135.842 227.663v8.502m0 0h36.766m0 0v-8.502m0 0h-36.766M135.842 227.663v8.502m0 0H99.076m0 0v-8.502m0 0h36.766M154.964 152.091h-21.916m0 0v-18.515m0 0h21.916m0 0v18.515M144.005 140.811v-5.299M144.005 135.511h-1.095M144.005 140.811h-1.095M135.151 140.811v-5.299M136.247 135.511h-1.096M136.247 140.811h-1.096M152.991 137.945a2.74 2.74 0 11-5.48 0 2.74 2.74 0 015.48 0zM152.948 146.184a3.968 3.968 0 11-7.935 0 3.968 3.968 0 017.935 0z"/><path class="st2" d="M151.248 146.184a2.268 2.268 0 11-4.536 0 2.268 2.268 0 014.536 0zM142.224 138.13a2.646 2.646 0 11-5.292-.002 2.646 2.646 0 015.292.002zM141.861 146.721a3.4 3.4 0 11-6.801 0 3.4 3.4 0 016.801 0zM158.08 154.169h-28.148M158.08 131.497h-28.148M158.08 154.169v-22.672M129.931 154.169v-22.672M212.359 151.335h-19.271m0 0l-.534-.221m0 0l-.221-.535m0 0v-17.381m0 0l.221-.535m0 0l.534-.221m0 0h19.271m0 0l.535.221m0 0l.221.535m0 0v17.381m0 0l-.221.535m0 0l-.535.221M214.06 154.169h-22.672M214.06 131.497h-22.672M214.06 154.169v-22.672M191.388 154.169v-22.672M210.47 149.445h-15.492M194.222 148.69v-11.714M194.978 136.22h7.002m1.488 0h7.002M211.225 136.976v11.714M210.47 149.445h.108a.108.108 0 10-.216 0 .108.108 0 00.216 0h-.108zM194.978 149.445a.756.756 0 01-.756-.755M194.222 136.976c0-.417.338-.756.756-.756M210.47 136.22c.417 0 .755.338.755.756M211.225 148.69a.755.755 0 01-.755.755M203.064 141.053l-.1.24m0 0l-.241.099m-.001 0l-.24-.1m.001 0l-.099-.241m-.001 0v-7.476m0 0l.099-.241m.001 0l.241-.099m0 0l.24.099m0 0l.1.241m0 0v7.478M203.478 135.502h-.415m0 0v-1.927m0 0l-.099-.241m0 0l-.24-.099m0 0l-.241.099m0 0l-.1.241m0 0v1.927m0 0h-.414m0 0v-2.456m0 0h1.509m0 0v2.456M203.468 136.863h-.404m0 0v-1.323m0-.001h.404m0 0v1.323M201.98 136.863v-1.323m0-.001h.404m-.001 0v1.323m0 .001h-.404M215.949 185.909v-22.672m0 0h22.672m0 0v22.672m0 0h-22.672M231.064 174.574h-7.558M229.957 177.245l-5.345-5.344M227.285 178.352v-7.557M224.613 177.245l5.344-5.344M191.388 154.169h-22.672M191.388 131.497h-22.672M191.388 154.169v-22.672M168.716 154.169v-22.672M186.62 145.656a3.41 3.41 0 11-6.822 0 3.41 3.41 0 016.822 0z"/><path class="st2" d="M186.099 145.656a2.89 2.89 0 11-5.78 0 2.89 2.89 0 015.78 0zM179.48 146.487a2.58 2.58 0 11-5.16 0 2.58 2.58 0 015.16 0z"/><path class="st2" d="M178.345 146.487a1.445 1.445 0 11-2.89 0 1.445 1.445 0 012.89 0zM237.487 247.01a7.179 7.179 0 01-7.179 7.179 7.179 7.179 0 110-14.359 7.18 7.18 0 017.179 7.18zM175.113 20.689a3.778 3.778 0 11-7.557 0 3.778 3.778 0 017.557 0z"/><path class="st2" d="M172.468 20.689a1.134 1.134 0 11-2.267-.001 1.134 1.134 0 012.267.001zM86.315 20.689a3.778 3.778 0 11-7.557 0 3.778 3.778 0 017.557 0z"/><path class="st2" d="M83.67 20.689a1.134 1.134 0 11-2.267-.001 1.134 1.134 0 012.267.001zM322.506 131.119v22.672m0 0h-80.863m0 0v-22.672m0 0h80.863M241.644 142.833v-.755m0 0h80.863m0 0v.755m0 0h-80.863M315.92 133.112v18.626m0 0h-.756m0 0v-18.626m0 0h.756M313.915 133.112v18.626m0 0h-.756m0 0v-18.626m0 0h.756M311.91 133.112v18.626m0 0h-.756m0 0v-18.626m0 0h.756M309.906 133.112v18.626m0 0h-.756m0 0v-18.626m0 0h.756M305.66 133.247l2.241 18.491m0 0l-.75.091m0 0l-2.241-18.491m0 0l.75-.091M238.621 128.096v-22.672m0 0H182.13m0 0v22.672m0 0h56.491M182.13 116.382v.756m0 0h56.491m0 0v-.756m0 0H182.13M232.034 126.103v-18.626m0 0h-.755m0 0v18.626m0 0h.755M230.029 126.103v-18.626m0 0h-.756m0 0v18.626m0 0h.756M228.025 126.103v-18.626m0 0h-.755m-.001 0v18.626m0 0h.755M226.02 126.103v-18.626m0 0h-.756m0 0v18.626m0 0h.756M221.774 125.968l2.241-18.491m0 0l-.75-.091m0 0l-2.241 18.491m0 0l.75.091M160.943 90.593H92.928m0 0V15.021m0 0h68.015m0 0v75.572M159.053 92.482H94.817m0 0l-.723-.144m0 .001l-.613-.41m0 0l-.41-.613m0-.001l-.143-.723m0 .001h68.015m0 0l-.144.723m0-.001l-.41.613m0 .001l-.613.41m0 0l-.723.144M160.943 11.242H92.928m0 0v3.779m0 0h68.015m0 0v-3.779M92.928 11.242h68.015m0 0v1.889m0 0H92.928m0 0v-1.889M91.038 11.242H74.034m0 0v18.893m0 0h17.004m0 0V11.242M162.832 11.242h17.004m0 0v18.893m0 0h-17.004m0 0V11.242M120.89 16.91H95.195m0 0l-.267.111m0 0l-.111.267m0 0v12.47m0 0l.111.267m0 0l.267.11m0 0h25.695m0 0l.267-.11m0 0l.11-.267m0 0v-12.47m0 0l-.11-.267m0 0l-.267-.111M132.981 16.91h25.694m0 0l.268.111m0 0l.11.267m0 0v12.47m0 0l-.11.267m0 0l-.268.11m0 0h-25.694m0 0l-.267-.11m0 0l-.111-.267m0 0v-12.47m0 0l.111-.267m0 0l.267-.111M160.943 29.111h-1.89M132.603 29.111h-11.336M94.817 29.111h-1.889M160.943 34.121H92.928m0 0v18.686m0 0l68.015-14.908m0 0v-3.778M182.13 10.959V33.63m0 0h56.491m0 0V10.959m0 0H182.13M238.621 22.672v-.756m0 0H182.13m0 0v.756m0 0h56.491M188.717 12.951v18.626m0 0h.756m0 0V12.951m0 0h-.756M190.721 12.951v18.626m0 0h.756m0 0V12.951m0 0h-.756M192.726 12.951v18.626m0 0h.756m0 0V12.951m0 0h-.756M194.73 12.951v18.626m0 0h.756m0 0V12.951m0 0h-.756M198.977 13.087l-2.241 18.49m-.001 0l.75.091m0 0l2.241-18.49m.001 0l-.75-.091M66.504 298.323v-15.115m0 .001h149.445m0 0v15.115m0-.001H66.504M157.229 293.443v1.02m0 0H112.86m0 0v-1.02m0 0h44.369M147.768 294.462v.832m0 0l-.152.567m0 0l-.414.415m0 0l-.567.152m0 0h-22.7m0 0l-.566-.152m0 0l-.415-.415m0 0l-.152-.567m0 0v-.832m0 0h24.966M157.229 293.145v.298m0 0H112.86m0 0v-.298m0 0h44.369M187.277 147.863h-.963m0 0v1.204m0 0H173.79m0 0v-1.204m0 0h-.964M185.814 138.337l-.047.103m-.048.103l-.047.103m-.048.103l-.047.103m-.046.103l-.048.104m-.046.103l-.048.103m-.047.103l-.047.103m-.048.103l-.047.103m-.046.103l-.048.103m-.047.103l-.047.103m-.047.103l-.047.103m-.048.104l-.047.103m-.047.103l-.047.103m-.047.103l-.047.103m-.047.103l-.047.103m-.048.103l-.047.103m-.048.103l-.047.103m-.046.104l-.048.103M176.18 138.337l.047.103m.047.103l.047.103m.047.103l.047.103m.048.103l.047.104m.047.103l.047.103m.048.103l.047.103m.046.103l.048.103m.047.103l.047.103m.047.103l.047.103m.048.103l.047.103m.047.104l.047.103m.047.103l.047.103m.048.103l.047.103m.047.103l.047.103m.047.103l.047.103m.048.103l.046.103m.048.104l.047.103M185.814 138.337h-.078m-.114 0h-.114m-.113 0h-.113m-.113 0h-.078m-.001 0l-.042.051m-.07.088l-.072.089m-.072.087l-.071.088m-.071.088l-.071.088m-.073.088l-.071.088m-.071.088l-.071.088m-.071.089l-.072.087m-.072.088l-.072.088m-.07.088l-.072.088m-.071.088l-.072.088m-.071.089l-.072.088m-.071.087l-.071.088m-.072.089l-.071.088m-.072.087l-.071.088m-.072.089l-.071.088m-.072.088l-.072.087m-.07.088l-.072.088m-.072.088l-.072.088m-.07.088l-.071.089m-.072.088l-.071.088m-.072.087l-.072.089m-.072.088l-.072.088m-.07.087l-.042.052M176.18 138.337h.078m.113 0h.114m.112 0h.114m.114 0h.077m0 0l.042.051m.072.088l.071.089m.072.087l.071.088m.072.088l.071.088m.071.088l.072.088m.071.088l.072.088m.071.089l.072.087m.071.088l.071.088m.072.088l.071.088m.072.088l.071.088m.072.089l.071.088m.072.087l.071.088m.071.089l.072.088m.071.087l.072.088m.071.089l.072.088m.071.088l.072.087m.071.088l.071.088m.072.088l.071.088m.072.088l.071.089m.072.088l.071.088m.072.087l.071.089m.071.088l.072.088m.071.087l.042.052M185.814 137.859l-9.634-.001m-.001 0v.478m0-.001h.722m0 0v-.237m0 0l8.189.001m0 .001v.238m0-.001h.723m.001 0v-.479M224.3 246.494l1.233.449m0 0h1.312m0 0l1.233-.449m0 0l1.473.342m0 0h1.513m0 0l1.473-.342m0 0l1.235.45m0 0h1.314m0 0l1.234-.45m0 0l-2.232 2.987m0 0h-7.557m0 0l-2.231-2.987M226.531 249.743h7.557m0 0v-.262m0 0h-7.557m0 0v.262M226.531 250.266h7.557m0 0v-.262m0 0h-7.557m0 0v.262M231.151 244.979l-.891-.085m0 0l-.022.226m0 0l.477.045m0 0l-1.383 1.143m0 0l.126.152m0 0l.642-.53m0 0l.067.081m0 0l-.74.611m0 0l.121.146m0 0l.74-.611m0 0l.08.098m0 0l-.601.496m0 0l.107.13m0 0l.602-.496m0 0l.08.097m0 0l-.414.343m0 0l.115.139m0 0l1.422-1.174M218.972 258.27v-22.672m0 0h22.672m0 0v22.672m0 0h-22.672M175.014 19.828l-3.68.86m0 0l-1.583 3.431m0 0l1.583-3.431m0 0l-1.306-3.546M78.857 19.828l3.679.86m0 0l1.584 3.431m0 0l-1.584-3.431m0 0l1.306-3.546M132.565 177.439l-4.109-4.109m0 0l-.426-.407m0 0l-.43-.371m0 0l-.424-.328m0 0l-.403-.276m0 0l-.017-.009m0 0l-.375-.216m0 0l-.332-.147m0 0l-.025-.008m0 0l-.281-.075m0 0l-.028-.004m0 0l-.22.002m0 0l-.03.002m0 0l-.029.007m0 0l-.027.013m0 0l-.154.078m0 0l-.024.018m0 0l-.012.01m0 0l-1.133 1.134m0 0l-1.03-1.029m0 0l-5.217 5.217m11.115 11.116l5.217-5.218m0 0l-1.029-1.029m0 0l1.134-1.134m0 0l.011-.011m0 0l.017-.025m0 0l.078-.154m0 0l.013-.027m0 0l.008-.029m0 0l.002-.029m0 0l.001-.221m0 0l-.003-.028m0 0l-.075-.281m0 0l-.008-.025m0 0l-.148-.332m0 0l-.214-.376m0 0l-.011-.016m0 0l-.276-.404m0 0l-.328-.423m0 0l-.371-.429m0 0l-.407-.427M123.418 173.422l9.057 9.057M123.541 173.545l.897-.898M132.35 182.354l.898-.897M128.477 186.475l4.665-4.664M119.42 177.418l4.665-4.664M127.426 174.352l4.118 4.117M124.438 172.647c.354-.354 1.691.409 2.988 1.706M131.543 178.468c1.296 1.296 2.06 2.634 1.705 2.988M95.967 205.821l4.108 4.108m0 0l.427.408m-.001 0l.43.371m.001 0l.423.328m-.001 0l.404.275m.001 0l.016.011m0 0l.376.215m0 0l.332.147m0 0l.024.008m0 0l.281.075m0 0l.029.003m0 0l.22-.001m0 0l.03-.002m0 0l.028-.008m0 0l.027-.012m0 0l.154-.078m-.001 0l.025-.018m0 0l.011-.011m.001 0l1.134-1.133m0 0l1.029 1.029m0 0l5.219-5.218m-11.117-11.114l-5.216 5.217m0 0l1.029 1.029m-.001 0l-1.135 1.134m.001 0l-.01.011m0 0l-.017.025m0 0l-.078.153m0 0l-.013.027m0 0l-.008.03m0 0l-.002.029m0 0l-.001.221m0 0l.003.027m0 0l.074.282m0 0l.009.025m-.001 0l.147.332m.001 0l.215.375m0 0l.01.016m0 0l.276.404m-.001 0l.329.424m.001 0l.371.429m0 0l.407.427M105.114 209.839l-9.057-9.057M104.991 209.714l-.898.898M96.18 200.905l-.896.897M100.053 196.785l-4.663 4.664M109.111 205.841l-4.664 4.665M101.105 208.908l-4.117-4.117M104.092 210.613c-.354.354-1.692-.409-2.988-1.705M96.988 204.791c-1.296-1.296-2.06-2.634-1.705-2.988M100.075 173.33l-4.108 4.109m0 0l-.408.427m0 0l-.371.429m0 0l-.329.423m0 0l-.275.404m0 0l-.01.016m0 0l-.216.376m0 0l-.146.332m0 0l-.009.025m0 0l-.074.281m0 0l-.003.028m0 0l.001.221m0 0l.002.029m0 0l.008.029m0 0l.012.027m0 0l.078.154m0 0l.018.024m0 0l.01.012m0 0l1.134 1.133m0 0l-1.029 1.03m0 0l5.217 5.217m11.115-11.115l-5.218-5.217m0 0l-1.028 1.029m0 0l-1.135-1.134m0 0l-.01-.01m0 0l-.026-.018m0 0l-.153-.078m0 0l-.027-.013m0 0l-.029-.007m0 0l-.029-.002m0 0l-.221-.002m0 0l-.028.004m0 0l-.281.075m0 0l-.025.008m0 0l-.332.147m0 0l-.376.215m0 0l-.015.01m0 0l-.405.276m0 0l-.423.328m0 0l-.429.371m0 0l-.427.407M96.057 182.478l9.057-9.057M96.18 182.354l-.896-.897M104.991 173.545l-.898-.898M109.111 177.418l-4.664-4.664M100.053 186.474l-4.663-4.663M96.988 178.469l4.117-4.117M95.283 181.457c-.354-.354.409-1.692 1.705-2.988M101.104 174.352c1.297-1.296 2.635-2.059 2.988-1.705M128.456 209.929l4.109-4.108m0 0l.408-.427m0 0l.371-.43m0 0l.328-.424m0 0l.275-.403m0 0l.011-.017m0 0l.215-.375m0 0l.147-.332m0 0l.008-.024m0 0l.075-.282m0 0l.003-.028m0 0l-.001-.22m0 0l-.002-.03m0 0l-.008-.029m0 0l-.012-.027m0 0l-.078-.154m0 0l-.018-.024m0 0l-.011-.012m0 0l-1.133-1.133m0 0l1.029-1.03m0 0l-5.218-5.218m-11.116 11.116l5.219 5.218m0-.001l1.029-1.029m0 0l1.134 1.134m0 0l.011.011m0 0l.025.017m0 0l.153.078m0 0l.027.013m0 0l.03.008m0 0l.029.002m0 0l.221.001m0 0l.027-.003m0 0l.281-.075m0 0l.026-.008m0 0l.332-.148m0 0l.375-.214m0 0l.016-.011m0 0l.404-.276m0 0l.424-.328m0 0l.429-.371m0 0l.426-.407M132.474 200.782l-9.057 9.057M132.35 200.905l.898.897M123.541 209.714l.897.898M119.42 205.841l4.665 4.665M128.477 196.785l4.665 4.664M131.544 204.791l-4.117 4.117M133.249 201.802c.354.354-.409 1.691-1.705 2.987M127.426 208.907c-1.296 1.296-2.634 2.06-2.988 1.705M129.38 191.629c0 8.348-6.767 15.114-15.114 15.114-8.348 0-15.115-6.766-15.115-15.114 0-8.347 6.767-15.114 15.115-15.114 8.347 0 15.114 6.768 15.114 15.114z"/></g></g><g id="walls_1_"><path class="st3" d="M0 4.913l.008 298.134m0 0h38.377m0 0l4.314-.047m0 0V4.913m0 0H0M50.256 264.316h16.248M42.699 264.316h5.667M48.366 264.316h1.89M50.256 181.186h16.248M42.699 181.186h5.667M48.366 181.186h1.89M42.699 181.186v83.13M66.504 181.186v83.13M50.256 181.186v3.779M50.256 184.965h-1.89M48.366 184.965v-3.779M48.366 220.861v-1.889M48.366 218.972h1.89M50.256 218.972v1.89M49.311 184.965v34.007M50.256 184.965v34.007M48.366 218.972v-34.007M50.256 220.861v.945M50.256 221.806h-.945M49.311 221.806v.945M49.311 222.751h-.945M48.366 222.751v-1.889M48.366 264.316v-3.78M48.366 260.537h.945M49.311 260.537v.945M49.311 261.482h.945M50.256 261.482v2.834M51.201 261.482l28.055-28.055M48.366 260.537v-37.786M51.201 224.64v34.008M51.201 221.806v2.834M51.201 224.64h-1.89M49.311 224.64v-2.834M49.311 221.806h1.89M49.311 261.482v-2.834M49.311 258.648h1.89M51.201 258.648v2.834M51.201 261.482h-1.89M49.311 258.648V224.64M51.201 224.64v34.008M50.256 224.64v34.008M51.201 221.806a39.676 39.676 0 0128.055 11.621M48.366 181.186h1.89M48.366 181.186h1.89M42.699 181.186h5.667M50.256 181.186h16.248M48.366 264.316h1.89M48.366 264.316h1.89M42.699 264.316h5.667M50.256 264.316h16.248"/><g><path class="st3" d="M50.256 107.503h16.248M42.699 107.503h5.667M48.366 107.503h1.89M50.256 41.377h16.248M42.699 41.377h5.667M48.366 41.377h1.89M42.699 41.377v66.126M66.504 41.377v66.126M50.256 41.377v3.779M50.256 45.156h-1.89M48.366 45.156v-3.78M48.366 79.163v-1.889M48.366 77.274h1.89M50.256 77.274v1.889M49.311 45.156v32.118M50.256 45.156v32.118M48.366 77.274V45.156M50.256 79.163v.945M50.256 80.108h-.945M49.311 80.108v.944M49.311 81.052h-.945M48.366 81.052v-1.889M48.366 107.503v-3.779M48.366 103.724h.945M49.311 103.724v.945M49.311 104.669h.945M50.256 104.669v2.834M48.366 103.724V81.052M51.201 82.942v18.893M51.201 80.108v2.834M51.201 82.942h-1.89M49.311 82.942v-2.834M49.311 80.108h1.89M49.311 104.669v-2.834M49.311 101.835h1.89M51.201 101.835v2.834M51.201 104.669h-1.89M49.311 101.835V82.942M51.201 82.942v18.893M50.256 82.942v18.893M48.366 41.377h1.89M48.366 41.377h1.89M42.699 41.377h5.667M50.256 41.377h16.248M48.366 107.503h1.89M48.366 107.503h1.89M42.699 107.503h5.667M50.256 107.503h16.248"/></g><path d="M322.506 212.926h7.558v.454h1.511v95.901h-9.069v-96.355h0zm-170.463 96.355H42.699v-44.966h23.805v34.007h85.539v10.959h0zM322.506 0v174.384h7.558v-.453h1.511V0h-9.069 0zM152.043 0H42.699v41.376h23.805V10.958h85.539V0h0zM42.699 107.502h23.805v73.684H42.699v-73.684z" fill-rule="evenodd" clip-rule="evenodd" stroke="#000" stroke-miterlimit="3"/><path class="st0" d="M322.506 0v10.958h-12.847v23.428h12.847v3.023h-15.87V10.958h-64.992v37.144h-1.512v.454h-1.511V10.958h-86.578V0h170.463zM152.043 309.281v-10.959h63.906v-65.747h38.466v1.511h.454v1.512h-35.897v62.724h89.364v-62.724h-22.482v-1.512h.453v-1.511h36.199v3.023h-11.147v62.724h11.112v10.959H152.043zM75.119 128.096v1.511h.454v1.512h-9.069v-3.023h8.615zm31.438 3.023h132.064v54.79h3.023v-54.79h80.862v-3.023h-6.801V93.144h6.801v-3.023h-9.824v37.975h-71.038V76.215h-1.512v-.453h-1.511v52.334H107.012v1.511h-.454v1.512z"/><path class="st5" d="M347.139 210.186c-5.668 2.116-9.621 2.89-15.564 3.194"/><path class="st6" d="M347.233 210.139l-15.658-36.208h-1.511v.453l15.781 36.355z"/><path class="st5" d="M257.035 219.917c-1.818 4.871-2.355 7.467-2.62 12.659"/><path class="st6" d="M257.035 219.917l-.6 1.387 29.419 12.782h.453l-.001-1.511z"/><g><path class="st5" d="M104.427 115.536c1.822 4.907 2.317 7.326 2.584 12.56"/><path class="st6" d="M104.391 115.438l-29.272 12.658v1.511h.454l29.418-12.782z"/></g><g><path class="st5" d="M252.706 73.948c-4.293 1.602-6.485 2.034-11.062 2.268"/><path class="st6" d="M252.802 73.906l-11.158-25.804h-1.512v.454l11.283 25.95z"/></g><g><path class="st7" d="M153.102.19l-.98.87M160.532.19l-8.41 7.41M167.952.19l-12.44 10.96M175.372.19l-12.45 10.96M182.792.19l-12.44 10.96M190.212.19l-12.44 10.96M197.642.19l-12.45 10.96M205.062.19l-12.44 10.96M212.482.19l-12.44 10.96M67.072 128.29l-.49.43M219.912.19l-12.44 10.96M74.492 128.29l-3.43 3.02M227.322.19l-12.44 10.96M234.752.19l-12.44 10.96M242.172.19l-12.44 10.96M249.592.19l-12.44 10.96M257.022.19l-12.44 10.96M241.722 13.67l-3.02 2.66M111.602 128.29l-3.43 3.02M241.722 20.21l-3.02 2.66M119.022 128.29l-3.42 3.02M264.442.19l-12.44 10.96M241.722 26.74l-3.02 2.66M126.442 128.29l-3.43 3.02M271.862.19l-12.45 10.96M241.722 33.28l-3.02 2.66M133.862 128.29l-3.43 3.02M279.282.19l-12.44 10.96M241.722 39.82l-3.02 2.66M141.292 128.29l-3.43 3.02M286.702.19l-12.44 10.96M148.712 128.29l-3.43 3.02M241.722 46.36l-2.72 2.39M294.132.19l-12.45 10.96M156.132 128.29l-3.42 3.02M301.552.19l-12.44 10.96M163.562 128.29l-3.43 3.02M308.972.19l-12.44 10.96M170.972 128.29l-3.43 3.02M316.392.19l-12.44 10.96M178.402 128.29l-3.43 3.02M322.592 1.27l-11.22 9.88M309.742 12.59l-3.02 2.66M322.592 7.81l-3.8 3.34M185.822 128.29l-3.43 3.02M241.722 79.05l-3.02 2.66M309.742 19.13l-3.02 2.66M241.722 85.59l-3.02 2.66M193.242 128.29l-3.43 3.02M309.742 25.67l-3.02 2.66M241.722 92.13l-3.02 2.66M200.672 128.29l-3.43 3.02M309.742 32.21l-3.02 2.66M241.722 98.67l-3.02 2.66M208.092 128.29l-3.43 3.02M314.472 34.58l-3.43 3.02M321.892 34.58l-3.43 3.02M215.512 128.29l-3.42 3.02M241.722 105.21l-3.02 2.66M222.932 128.29l-3.43 3.02M241.722 111.74l-3.02 2.66M230.352 128.29l-3.42 3.02M241.722 118.28l-3.02 2.66M237.782 128.29l-3.43 3.02M241.722 124.82l-3.02 2.66M241.722 131.36l-3.02 2.66M245.202 128.29l-3.43 3.02M241.722 137.9l-3.02 2.66M252.622 128.29l-3.42 3.02M241.722 144.44l-3.02 2.66M260.052 128.29l-3.43 3.02M241.722 150.97l-3.02 2.66M267.462 128.29l-3.43 3.02M318.002 90.31l-5.24 4.62M241.722 157.51l-3.02 2.66M274.892 128.29l-3.43 3.02M315.792 98.8l-3.03 2.66M322.592 92.81l-.61.53M241.722 164.05l-3.02 2.66M282.312 128.29l-3.43 3.02M315.792 105.34l-3.03 2.66M241.722 170.59l-3.02 2.66M289.732 128.29l-3.43 3.02M315.792 111.88l-3.03 2.66M241.722 177.13l-3.02 2.66M297.162 128.29l-3.43 3.02M315.792 118.42l-3.03 2.66M241.722 183.67l-2.76 2.43M304.582 128.29l-3.43 3.02M315.792 124.95l-3.03 2.67M312.002 128.29l-3.43 3.02M319.422 128.29l-3.43 3.02M219.052 236.33l-3.02 2.66M223.092 232.77l-3.43 3.02M219.052 242.87l-3.02 2.66M155.882 298.51l-3.76 3.32M230.512 232.77l-3.43 3.02M219.052 249.41l-3.02 2.66M163.312 298.51l-11.19 9.86M237.932 232.77l-3.42 3.02M219.052 255.94l-3.02 2.66M170.722 298.51l-12.44 10.96M245.352 232.77l-3.43 3.02M252.772 232.77l-3.42 3.02M178.152 298.51l-12.45 10.96M219.052 262.48l-3.02 2.66M185.572 298.51l-12.44 10.96M219.052 269.02l-3.02 2.66M192.992 298.51l-12.44 10.96M219.052 275.56l-3.02 2.66M200.422 298.51l-12.44 10.96M219.052 282.1l-3.02 2.66M207.842 298.51l-12.44 10.96M219.052 288.64l-3.02 2.66M289.882 232.77l-3.43 3.02M215.262 298.51l-12.45 10.96M219.052 295.17l-3.02 2.66M297.312 232.77l-3.43 3.02M222.682 298.51l-12.44 10.96M304.732 232.77l-3.43 3.02M230.102 298.51l-12.44 10.96M312.152 232.77l-3.73 3.29M237.532 298.51l-12.45 10.96M311.442 239.94l-3.02 2.66M319.582 232.77l-3.43 3.02M244.952 298.51l-12.44 10.96M311.442 246.48l-3.02 2.66M252.372 298.51l-12.44 10.96M311.442 253.02l-3.02 2.66M259.802 298.51l-12.44 10.96M311.442 259.55l-3.02 2.66M267.212 298.51l-12.44 10.96M311.442 266.09l-3.02 2.66M274.642 298.51l-12.44 10.96M311.442 272.63l-3.02 2.66M282.062 298.51l-12.44 10.96M311.442 279.17l-3.02 2.66M289.482 298.51l-12.44 10.96M311.442 285.71l-3.02 2.66M296.912 298.51l-12.44 10.96M311.442 292.25l-3.02 2.66M304.332 298.51l-12.44 10.96M311.752 298.51l-12.44 10.96M319.172 298.51l-12.44 10.96M322.552 302.07l-8.4 7.4M322.552 308.61l-.98.86"/></g><path class="st5" d="M322.506 0v10.958h-12.847v23.428h12.847v3.023h-15.87V10.958h-64.992v37.144h-1.512v.454h-1.511V10.958h-86.578V0h170.463zM152.043 309.281v-10.959h63.906v-65.747h38.466v1.511h.454v1.512h-35.897v62.724h89.364v-62.724h-22.482v-1.512h.453v-1.511h36.199v3.023h-11.147v62.724h11.112v10.959H152.043zM75.119 128.096v1.511h.454v1.512h-9.069v-3.023h8.615zm31.438 3.023h132.064v54.79h3.023v-54.79h80.862v-3.023h-6.801V93.144h6.801v-3.023h-9.824v37.975h-71.038V76.215h-1.512v-.453h-1.511v52.334H107.012v1.511h-.454v1.512z"/></g><g id="sizes"><path d="M215.321 101.304h-1.867V92.07l-1.5.758v-1.961l1.656-.922h1.711v11.359zM217.586 97.89l3.656-7.938h2.031l-3.563 7.844h5.336v1.766h-7.461V97.89zm4.743-3.266h1.844v6.688h-1.844v-6.688zM226.633 99.398h1.859v1.906l-1.859 1.578v-3.484zM230.297 99.648l3.93-5.203c.203-.266.36-.54.473-.824.111-.284.168-.548.168-.793v-.016c0-.38-.116-.674-.348-.883-.232-.208-.562-.313-.988-.313-.412 0-.744.126-.996.379-.253.253-.405.611-.457 1.074v.008h-1.922v-.007c.072-.682.255-1.266.547-1.75a2.95 2.95 0 011.156-1.109c.479-.255 1.031-.383 1.656-.383.692 0 1.283.116 1.773.348a2.5 2.5 0 011.121 1.012c.258.443.387.977.387 1.602v.008c0 .458-.088.923-.262 1.395a5.255 5.255 0 01-.723 1.324l-3.047 4h4.094v1.789h-6.563v-1.658zM249.446 123.693a2.655 2.655 0 01-1.109-1.172c-.256-.513-.383-1.131-.383-1.855v-.008c0-.417.051-.855.152-1.316a8.349 8.349 0 01.637-1.832l2.391-4.891h2.063l-2.813 5.664-.266-.281c.13-.245.32-.435.57-.57.25-.135.541-.203.875-.203.604 0 1.122.133 1.555.398.432.266.762.652.988 1.16s.34 1.119.34 1.832v.008c0 .729-.128 1.354-.383 1.875a2.67 2.67 0 01-1.113 1.188c-.487.271-1.072.406-1.754.406-.683-.001-1.266-.135-1.75-.403zm2.773-1.793c.239-.266.359-.646.359-1.141v-.008c0-.552-.123-.978-.367-1.277-.245-.299-.597-.449-1.055-.449-.428 0-.757.151-.988.453-.232.302-.348.729-.348 1.281v.008c0 .495.119.874.359 1.137.239.263.578.395 1.016.395.443-.001.784-.134 1.024-.399zM256.188 122.072h1.859v1.906l-1.859 1.578v-3.484zM260.872 123.244c-.565-.567-.848-1.359-.848-2.375v-5.164c0-1.021.283-1.813.852-2.379.567-.565 1.391-.848 2.469-.848 1.083 0 1.907.281 2.473.844.564.563.848 1.357.848 2.383v5.164c0 1.021-.284 1.814-.852 2.379-.568.565-1.391.848-2.469.848-1.085-.001-1.909-.285-2.473-.852zm3.574-1.379c.234-.294.352-.717.352-1.27v-4.617c0-.552-.117-.975-.352-1.27-.234-.294-.602-.441-1.102-.441s-.867.147-1.102.441c-.234.294-.352.718-.352 1.27v4.617c0 .552.117.976.352 1.27.234.294.602.441 1.102.441s.867-.147 1.102-.441z"/><g><path d="M20.495 116.269a2.909 2.909 0 01-1.234-1.105c-.292-.477-.438-1.03-.438-1.66v-.188c0-.567.149-1.102.449-1.602.299-.5.696-.877 1.191-1.133a2.602 2.602 0 01-1.02-.945 2.415 2.415 0 01-.387-1.305v-.281c0-.594.137-1.116.41-1.566.273-.45.657-.799 1.152-1.047.495-.247 1.07-.371 1.727-.371s1.231.124 1.727.371c.495.248.879.597 1.152 1.047.273.451.41.973.41 1.566v.281c0 .469-.132.908-.395 1.316-.263.409-.608.72-1.035.934.5.261.902.64 1.207 1.137.305.498.457 1.03.457 1.598v.188c0 .63-.146 1.184-.438 1.66a2.908 2.908 0 01-1.234 1.105c-.531.261-1.148.391-1.852.391s-1.318-.13-1.849-.391zm2.722-1.602c.252-.13.448-.315.586-.555.138-.239.207-.513.207-.82v-.109c0-.302-.069-.567-.207-.797a1.415 1.415 0 00-.582-.535 1.909 1.909 0 00-.875-.191c-.333 0-.625.064-.875.191-.25.128-.444.308-.582.539a1.537 1.537 0 00-.207.801v.117c0 .308.069.58.207.816.138.237.333.419.586.547.252.128.543.191.871.191s.618-.064.871-.195zm-.125-4.988c.216-.122.383-.297.5-.523s.176-.488.176-.785v-.109a1.5 1.5 0 00-.176-.734 1.204 1.204 0 00-.5-.492c-.216-.114-.465-.172-.746-.172s-.53.058-.746.172a1.204 1.204 0 00-.5.492 1.521 1.521 0 00-.176.742v.117c0 .292.059.55.176.773.117.224.284.397.5.52.216.123.465.184.746.184s.53-.062.746-.185zM27.729 114.636h1.859v1.906l-1.859 1.578v-3.484zM32.823 116.257a2.655 2.655 0 01-1.109-1.172c-.255-.513-.383-1.131-.383-1.855v-.008c0-.417.051-.855.152-1.316a8.349 8.349 0 01.637-1.832l2.391-4.891h2.063l-2.813 5.664-.266-.281c.13-.245.32-.435.57-.57.25-.135.542-.203.875-.203.604 0 1.122.133 1.555.398.432.266.762.652.988 1.16s.34 1.119.34 1.832v.008c0 .729-.128 1.354-.383 1.875a2.67 2.67 0 01-1.113 1.188c-.487.271-1.072.406-1.754.406-.683 0-1.266-.134-1.75-.403zm2.773-1.793c.239-.266.359-.646.359-1.141v-.008c0-.552-.123-.978-.367-1.277-.245-.299-.597-.449-1.055-.449-.427 0-.757.151-.988.453-.232.302-.348.729-.348 1.281v.008c0 .495.12.874.359 1.137s.578.395 1.016.395c.443 0 .784-.133 1.024-.399z"/></g><g><path d="M249.488 171.431a2.852 2.852 0 01-1.129-1.074c-.287-.471-.467-1.032-.539-1.684v-.008h1.867v.008c.047.417.192.741.438.973.244.232.564.348.961.348.442 0 .785-.146 1.027-.438.242-.291.363-.705.363-1.242v-.953c0-.531-.116-.942-.348-1.234-.232-.291-.559-.438-.98-.438-.292 0-.557.078-.793.234a1.589 1.589 0 00-.559.656h-1.727v-6.258h5.945v1.789h-4.078v2.281c.177-.161.396-.286.66-.375.263-.088.527-.133.793-.133.619 0 1.15.136 1.594.406.442.271.779.667 1.012 1.188.231.521.348 1.148.348 1.883v.953c0 .734-.129 1.362-.387 1.883a2.7 2.7 0 01-1.121 1.191c-.49.273-1.078.41-1.766.41a3.333 3.333 0 01-1.581-.366zM256.32 169.774h1.859v1.906l-1.859 1.578v-3.484zM261.414 171.395a2.65 2.65 0 01-1.109-1.172c-.256-.513-.383-1.131-.383-1.855v-.008c0-.416.051-.855.152-1.316a8.349 8.349 0 01.637-1.832l2.391-4.891h2.063l-2.813 5.664-.266-.281c.13-.244.32-.435.57-.57.25-.135.541-.203.875-.203.604 0 1.122.133 1.555.398.432.266.762.652.988 1.16s.34 1.119.34 1.832v.008c0 .729-.128 1.354-.383 1.875a2.67 2.67 0 01-1.113 1.188c-.487.271-1.072.406-1.754.406-.683 0-1.266-.134-1.75-.403zm2.773-1.793c.239-.266.359-.646.359-1.141v-.008c0-.552-.123-.978-.367-1.277-.245-.299-.597-.449-1.055-.449-.428 0-.757.151-.988.453-.232.303-.348.729-.348 1.281v.008c0 .495.119.874.359 1.137.239.264.578.395 1.016.395.443 0 .784-.133 1.024-.399z"/></g><g><path d="M197.555 165.764l3.656-7.938h2.031l-3.563 7.844h5.336v1.766h-7.461v-1.672zm4.742-3.266h1.844v6.688h-1.844v-6.688zM206.602 167.271h1.859v1.906l-1.859 1.578v-3.484zM213.336 169.178h-1.867v-9.234l-1.5.758v-1.961l1.656-.922h1.711v11.359z"/></g><g><path d="M191.8 279.088h-1.867v-9.234l-1.5.758v-1.961l1.656-.922h1.711v11.359zM195.89 278.838c-.466-.245-.843-.603-1.129-1.074s-.466-1.032-.539-1.684v-.008h1.867v.008c.047.417.192.741.438.973s.565.348.961.348c.442 0 .785-.146 1.027-.438s.363-.706.363-1.242v-.953c0-.531-.116-.942-.348-1.234s-.559-.438-.98-.438c-.292 0-.556.078-.793.234s-.423.375-.559.656h-1.727v-6.258h5.945v1.789h-4.078v2.281c.177-.161.397-.286.66-.375s.527-.133.793-.133c.62 0 1.151.136 1.594.406s.78.667 1.012 1.188.348 1.148.348 1.883v.953c0 .734-.129 1.362-.387 1.883s-.632.918-1.121 1.191-1.078.41-1.766.41a3.333 3.333 0 01-1.581-.366zM202.722 277.182h1.859v1.906l-1.859 1.578v-3.484zM207.816 278.803c-.484-.269-.854-.659-1.109-1.172s-.383-1.132-.383-1.855v-.008c0-.417.051-.855.152-1.316a8.32 8.32 0 01.532-1.609c.035-.075.069-.149.105-.223l2.391-4.891h2.063l-2.813 5.664-.266-.281c.13-.245.32-.435.57-.57s.542-.203.875-.203c.604 0 1.122.133 1.555.398s.762.652.988 1.16.34 1.118.34 1.832v.008c0 .729-.128 1.354-.383 1.875s-.626.917-1.113 1.188-1.071.406-1.754.406-1.266-.135-1.75-.403zm2.773-1.793c.239-.266.359-.646.359-1.141v-.008c0-.552-.122-.978-.367-1.277s-.597-.449-1.055-.449c-.427 0-.757.151-.988.453s-.348.729-.348 1.281v.008c0 .495.12.874.359 1.137s.578.395 1.016.395c.443-.001.785-.134 1.024-.399z"/></g><g><path d="M256.728 294.32l-.766-.359c-.511-.239-.918-.59-1.223-1.051s-.485-1.012-.543-1.652h1.914c.042.281.128.515.258.699s.3.324.508.418.45.141.727.141c.469 0 .831-.126 1.086-.379s.383-.61.383-1.074v-.305c0-.5-.113-.887-.34-1.16s-.551-.41-.973-.41h-.883v-1.781h.883c.359 0 .637-.118.832-.355s.293-.569.293-.996v-.273c0-.401-.105-.71-.316-.926s-.509-.324-.895-.324c-.234 0-.444.05-.629.148s-.343.249-.473.449-.224.446-.281.738h-1.906c.083-.656.274-1.222.574-1.695s.685-.833 1.156-1.078 1.004-.367 1.598-.367c.989 0 1.757.258 2.301.773s.816 1.242.816 2.18v.266c0 .547-.144 1.023-.43 1.43s-.692.706-1.219.898c.583.13 1.035.426 1.355.887s.48 1.048.48 1.762v.266c0 .661-.129 1.227-.387 1.695s-.634.825-1.129 1.07-1.089.367-1.781.367l-.99-.002zM262.915 292.297h1.859v1.906l-1.859 1.578v-3.484zM268.306 293.93c-.531-.261-.942-.629-1.234-1.105s-.438-1.03-.438-1.66v-.188c0-.567.149-1.102.449-1.602s.696-.878 1.191-1.133c-.422-.219-.762-.534-1.02-.945s-.387-.847-.387-1.305v-.281c0-.594.137-1.116.41-1.566s.657-.8 1.152-1.047 1.07-.371 1.727-.371 1.231.124 1.727.371.879.597 1.152 1.047.41.973.41 1.566v.281c0 .469-.132.907-.395 1.316s-.608.72-1.035.934c.5.261.902.64 1.207 1.137s.457 1.03.457 1.598v.188c0 .63-.146 1.184-.438 1.66s-.703.845-1.234 1.105-1.148.391-1.852.391-1.318-.131-1.849-.391zm2.723-1.602c.253-.13.448-.315.586-.555s.207-.513.207-.82v-.109c0-.302-.069-.567-.207-.797s-.332-.407-.582-.535-.542-.191-.875-.191-.625.063-.875.191-.444.308-.582.539-.207.499-.207.801v.117c0 .308.069.579.207.816s.333.419.586.547.543.191.871.191.618-.065.871-.195zm-.125-4.988c.216-.122.383-.297.5-.523s.176-.488.176-.785v-.109c0-.276-.059-.521-.176-.734s-.284-.378-.5-.492-.465-.172-.746-.172-.53.058-.746.172-.383.278-.5.492-.176.461-.176.742v.117c0 .292.059.55.176.773s.284.397.5.52.465.184.746.184.53-.063.746-.185z"/></g></g></g></svg>