<svg version="1.1" id="_x32_50" xmlns="http://www.w3.org/2000/svg" x="0" y="0" viewBox="0 0 350.474 386.88" xml:space="preserve"><style>.st0,.st1{fill-rule:evenodd;clip-rule:evenodd}.st0{fill:#fff}.st1{stroke-width:.4}.st1,.st2{fill:none;stroke:#999;stroke-linecap:round;stroke-linejoin:round;stroke-miterlimit:3}.st2,.st4,.st5,.st7{fill-rule:evenodd;clip-rule:evenodd}.st5,.st7{fill:none;stroke:#000;stroke-miterlimit:3}.st7{stroke:#666;stroke-width:.6;stroke-miterlimit:22.9256}</style><path class="st0" d="M349.865 133.862h-45.333V.554H16.199v385.71h288.333V238.862h45.333z" id="fon_1_"/><g id="mebel"><g id="mebel_8_"><path class="st1" d="M41.827 111.087h49.689M62.907 99.751h28.608M41.827 88.415h49.689M41.827 77.08h49.689m-49.69-11.337h49.689M41.826 54.408h49.689M41.826 43.072h49.689m-10.106 78.792V39.852m-22.672 82.012v-16.912m0-11.613V39.852M96.728 293.398l1.778-1.778m-8.725 1.778l8.725-8.725m-15.672 8.725l15.672-15.672m-22.619 15.672l22.619-22.619M68.94 293.398l29.566-29.566m-36.513 29.566l31.174-31.173m-38.12 31.173l31.173-31.173m-38.121 31.173l31.173-31.173m-35.555 28.609l13.935-13.935m7.789-7.79l8.694-8.694m-30.418 23.472l9.853-9.852m11.316-11.317l6.711-6.711m-27.88 20.934l8.505-8.505m12-12.001l.428-.428m-20.933 13.987l9.249-9.248m-9.249 2.3l7.039-7.039m-7.039.093l.093-.092m54.696 8.904l-2.687-2.687m2.687 9.634l-9.634-9.634M74.19 247.543l-.055-.055m24.371 31.318l-16.581-16.581m16.581 23.528l-23.528-23.528m-.843-.843l-5.374-5.375M98.506 292.7l-34.05-34.051m27.802 34.749l-26.981-26.981m20.034 26.981l-20.667-20.667m-11.708-11.708l-5.016-5.016m30.444 37.391l-16.975-16.975m-9.116-9.116l-8.556-8.556m27.701 34.647l-27.701-27.701m20.753 27.701l-20.754-20.754m13.808 20.754l-13.807-13.807m6.859 13.807l-6.859-6.859"/><path class="st2" d="M56.819 105.547l1.645-.469m0 0l1.551-.718m0 0l1.231-.967m0 0l.942-1.249m0 0l.594-1.448m0 0l.206-1.55m0 0l-.206-1.552m0 0l-.594-1.447m0 0l-.942-1.249m0 0l-1.231-.967m0 0l-1.551-.719m0 0l-1.645-.469m0 0l-1.698-.207m0 0l-1.709.059m0 0l-11.585 1.223m0 0v10.654m0 0l11.585 1.223m0 0l1.709.06m0 0l1.698-.208M47.548 95.029v4.117M47.548 99.146v4.116M61.815 96.082c.571.889.881 1.961.887 3.064M54.986 92.834c2.591-.165 5.106 1.031 6.829 3.248M47.548 95.029c2.253-1.505 4.828-2.266 7.437-2.195M54.986 105.457c-2.609.07-5.185-.69-7.437-2.195M61.815 102.209c-1.723 2.217-4.238 3.414-6.829 3.249M62.702 99.146a5.734 5.734 0 01-.887 3.063M41.827 94.498v9.295m0 0h.189m0 0v-9.295m0 0h-.189M41.827 108.592V89.698M37.293 108.592V89.698M41.827 108.592h-4.534M41.827 89.699h-4.534M25.957 71.798V40.42m0 0l.166-.401m0 0l.401-.166m0 0h14.737m0 0l.4.166m0 0l.166.401m-.001 0v31.378m0 0l-.166.401m.001 0l-.4.166m0 0H26.524m0 0l-.401-.166m0 0l-.166-.401M30.114 70.664V56.562m0-.907V41.553M30.68 40.986h9.446M40.694 41.553v29.112M40.127 71.231H30.68M30.114 41.553c0-.313.254-.567.566-.567M40.127 40.986c.313 0 .567.254.567.567M40.694 70.664a.567.567 0 01-.567.566M30.68 71.231a.567.567 0 01-.566-.566M33.912 56.562a.755.755 0 01-1.209 0h1.209zm-1.209-.907a.754.754 0 011.209 0h-1.209zM26.486 55.655v.907m0 0h7.748m0 0l.301-.256m0 0v-.395m0 0l-.301-.256m0 0h-7.748M26.486 56.864v-1.511m0 0h-.265m0 0v1.511m0 0h.265M26.221 57.242v-2.267m0 0h-.265m0 0v2.267m0 0h.265M27.846 59.377h-1.625m0 0v-.094m0 0h-.132m0 0v-.284m0 0h-.133m0 0v1.889m0 0h.133m0 0v-.283m0 0h.132m0 0v-.094m0 0h1.625m0 0v-.322m0 0h.416m0 0v1.077m0 0h.491m0 0v-2.644m0 0h-.491m0 0v1.076m0 0h-.416m0 0v-.321M27.846 52.84h-1.625m0 0v.094m0 0h-.132m0 0v.283m0 0h-.133m0 0v-1.889m0 0h.133m0 0v.283m0 0h.132m0 0v.095m0 0h1.625m0 0v.322m0 0h.416m0 0V50.95m0 0h.491m0 0v2.645m0 0h-.491m0 0v-1.076m0 0h-.416m0 0v.321M28.262 60.189l.071-.072M28.262 59.698l.071.072M27.846 60.189v-.491M26.221 60.511v-1.134M26.089 59.283v1.322M28.262 52.028l.071.072M28.262 52.519l.071-.072M27.846 52.028v.491M26.221 51.707v1.133M26.089 52.935v-1.323M28.753 59.944a.246.246 0 11-.492 0 .246.246 0 01.492 0zM28.753 52.273a.246.246 0 11-.492 0 .246.246 0 01.492 0zM25.957 39.852h65.56m0 0V9.623m0 0h-65.56m0 0v30.229M33.606 12.042l-.949.092m0 0l-.92.272m0 0l-.863.446m0 0l-.78.605m0 0l-.674.745m0 0l-.545.863m0 0l-.404.955m0 0l-.246 1.018m0 0l-.083 1.049m0 0v13.301m0 0l.083 1.05m0 0l.246 1.018m0 0l.404.955m0 0l.545.863m0 0l.674.746m0 0l.78.604m0 0l.863.445m0 0l.92.273m0 0l.949.092m0 0h44.252m0 0l1.992-.193m0 0l1.932-.573m0 0l1.812-.935m0 0l1.639-1.269m0 0l1.414-1.565m0 0l1.147-1.813m0 0l.845-2.005m0 0l.518-2.138m0 0l.174-2.205m0 0l-.174-2.204m0 0l-.518-2.138m0 0l-.845-2.006m0 0l-1.147-1.813m0 0l-1.414-1.565m0 0l-1.639-1.269m0 0l-1.812-.935m0 0l-1.932-.573m0 0l-1.992-.193m0 0H33.606M35.97 24.738a.945.945 0 11-1.89 0 .945.945 0 011.89 0zM52.429 270.808l.469 1.645m0 0l.718 1.552m0 .001l.967 1.229m0 0l1.249.944m0-.001l1.448.593m0 0l1.55.206m0 .001l1.552-.206m0-.001l1.447-.593m0 0l1.248-.944m0 .001l.968-1.229m0 0l.719-1.552m0-.001l.469-1.645m0 0l.207-1.698m0 .001l-.059-1.709m0 0l-1.223-11.585m0 0H53.504m0 0l-1.223 11.585m0 0l-.06 1.709m0 0l.208 1.698M62.948 261.538h-4.117M58.831 261.538h-4.117M61.895 275.805a5.75 5.75 0 01-3.064.887M65.143 268.975c.165 2.591-1.031 5.107-3.248 6.83M62.948 261.538c1.505 2.253 2.266 4.828 2.195 7.437M52.519 268.975c-.07-2.609.69-5.184 2.195-7.437M55.767 275.805c-2.217-1.723-3.413-4.238-3.248-6.83M58.831 276.692a5.743 5.743 0 01-3.063-.887M63.479 255.817h-9.296m0 0v.189m0 0h9.296m0 0v-.189M49.384 255.817h18.894M49.384 251.283h18.894M49.384 255.817v-4.534M68.278 255.817v-4.534M74.702 247.11H97.94m0 0l.401.166m0 0l.166.401m0 0v13.98m0 0l-.166.401m0 0l-.401.167m0 0H74.702m0 0l-.401-.167m0 0l-.166-.401m0 0v-13.98m0 0l.166-.401m0 0l.401-.166M75.835 251.266h10.032m.907 0h10.032M97.374 251.833v8.691M96.806 261.091H75.834M75.268 260.524v-8.691M96.806 251.266c.312 0 .567.254.567.567M97.374 260.524a.568.568 0 01-.567.567M75.835 261.091a.567.567 0 01-.566-.567M75.268 251.833c0-.313.254-.567.566-.567M87.077 254.255a.755.755 0 01-.303.605v-1.209a.752.752 0 01.303.604zm-1.21.605a.754.754 0 010-1.209v1.209zM86.774 247.639h-.907m0 0v7.748m0 0l.256.301m0 0h.395m0 0l.256-.3m0 0v-7.749M85.565 247.639h1.512m0 0v-.265m0 0h-1.512m0 0v.265M85.187 247.374h2.267m0 0v-.264m0 .001h-2.267m0 0v.264M83.052 249v-1.625m0-.001h.095m0 0v-.132m0 0h.283m0 0v-.132m0 .001h-1.89m0 0v.132m0-.001h.283m0 0v.132m0 0h.095m0 0V249m0 0h.322m0 0v.416m0-.001h-1.078m0 0v.491m0 0h2.645m0 0v-.491m0 0h-1.076m0 0V249m0 0h.321M89.589 249v-1.625m0-.001h-.095m0 0v-.132m0 0h-.283m0 0v-.132m0 .001H91.1m0 0v.132m0-.001h-.283m0 0v.132m0 0h-.094m0 0V249m0 0h-.322m.001 0v.416m0-.001h1.077m-.001 0v.491m0 0h-2.645m0 0v-.491m0 0h1.077m0 0V249m0 0h-.321M82.24 249.415l.071.072M82.731 249.415l-.072.072M82.24 249h.491M81.919 247.374h1.133M83.147 247.243h-1.323M90.402 249.415l-.072.072M89.911 249.415l.071.072M90.402 249h-.491M90.723 247.374h-1.134M89.495 247.243h1.322M82.731 249.661a.246.246 0 11-.492 0 .246.246 0 01.492 0zM90.402 249.661a.246.246 0 11-.492 0 .246.246 0 01.492 0zM25.957 318.92h66.882m-.001 0v-25.521m0 0H25.957m0 0v25.521M33.759 295.44l-.968.078m0 0l-.937.23m0 0l-.881.376m0 0l-.796.51m0 0l-.688.629m0 0l-.556.729m0 0l-.411.806m0 0l-.251.86m0 0l-.085.886m0 0v11.229m0 0l.085.887m0 0l.251.86m0 0l.411.806m0 0l.556.729m0 0l.688.629m0 0l.796.51m0 0l.881.376m0 0l.937.23m0 0l.968.078m0 0h45.146m0 0l2.032-.163m0 0l1.97-.483m0 0l1.85-.79m0 0l1.671-1.072m0 0l1.442-1.321m0 0l1.171-1.53m0 0l.863-1.694m0 0l.527-1.805m0 0l.178-1.861m0 0l-.178-1.861m0 0l-.527-1.805m0 0l-.863-1.694m0 0l-1.171-1.53m0 0l-1.442-1.322m0 0l-1.671-1.071m0 0l-1.85-.79m0 0l-1.97-.483m0 0l-2.032-.163m0 0H33.759M35.97 306.159a.945.945 0 11-1.89 0 .945.945 0 011.89 0zM25.957 244.087h30.231m0 0v-22.674m0 0h-7.559m-.001 0v-71.587m0 0h9.827m.001 0v-22.672m0 0H42.021m0 0v27.191m0 0H25.957m0 0v89.742M98.506 318.92h-5.668m0 0v-25.521m0 0h5.668m0 0v25.521M43.716 284.897h-17.76m0 0v8.501m0 0h17.76m0 0v-8.501M270.421 293.168l-4.684 3.438m0 0l-.483.338m0 0l-.481.302m-.001 0l-.468.26m0 0l-.441.211m0 0l-.017.008m0 0l-.405.155m.001 0l-.35.096m0 0l-.025.004m0 0l-.291.031m-.001 0l-.027-.001m.001 0l-.219-.034m-.001 0l-.028-.007m0 0l-.027-.012m0 0l-.025-.017m.001 0l-.14-.1m-.001 0l-.022-.021m.001 0l-.01-.012m-.001 0l-.949-1.293m0 0l-1.173.861m0 0L253 287.627m0 0l1.174-.86m.001 0l-.56-.763m-.001 0l4.856-3.564m10.222 0l4.135 5.634m0 0l-1.174.862m.001 0l.95 1.292m-.001 0l.008.013m0 0l.014.027m.001 0l.054.164m-.001 0l.009.028m.001 0l.003.03m0 0l-.002.03m-.001 0l-.033.217m0 0l-.007.028m0 0l-.118.266m0 0l-.011.024m0 0l-.196.305m.001 0l-.27.339m-.001 0l-.012.015m.001 0l-.334.357m0 0l-.388.368m0 0l-.432.369m0 0l-.468.36M260.77 295.752l10.325-7.579M260.911 295.649l.751 1.023M270.955 288.277l.751 1.023M266.887 282.44l4.766 6.494M254.173 286.765l7.154 9.748M264.874 295.44l4.693-3.445M264.874 295.439c-1.478 1.085-2.916 1.637-3.212 1.233M271.705 289.3c.296.403-.662 1.61-2.139 2.694M57.888 225.192l19.271.002m0 0l.535.222m0 0l.22.534m0 0l-.001 17.382m0 0l-.221.534m0 0l-.535.222m0 0l-19.271-.003m0 0l-.534-.221m0 0l-.222-.534m0 0l.002-17.382m0 0l.222-.534m0 0l.534-.222M56.188 221.413l22.672.002M56.186 244.085l22.672.002M56.188 221.413l-.002 22.672M78.86 221.415l-.002 22.672M59.778 227.082H75.27M76.025 227.839l-.001 11.714M75.268 240.309l-15.492-.002M59.02 239.551l.002-11.714M59.778 227.082h.108a.108.108 0 10-.216 0 .108.108 0 00.216 0h-.108zM75.27 227.083c.417 0 .755.338.755.756M76.024 239.553a.756.756 0 01-.756.756M59.776 240.307a.756.756 0 01-.756-.755M59.022 227.837c0-.417.338-.756.756-.756M67.183 235.475l.1-.24m0 0l.241-.099m0 0l.24.1m0 0l.099.241m0 0l-.001 7.476m0 0l-.1.24m0 0l-.24.1m0 0l-.24-.1m0 0l-.1-.24m0 0l.001-7.478M66.768 241.025h.414m0 0v1.927m0 0l.1.24m0 0l.24.101m0 0l.24-.101m0 0l.1-.24m0 0v-1.927m0 0h.415m0 0l-.001 2.456m0 0h-1.509m0 0l.001-2.456M66.778 239.665h.404m0 0v1.323m0 0h-.404m0 0v-1.323M68.266 239.665v1.322m0 0h-.404m0 0l.001-1.322m0 0h.403M48.628 194.589v22.672M25.957 194.589v22.672M48.628 194.589H25.956M48.628 217.261H25.956M46.55 163.509v21.916m0 0H28.035m0 0v-21.916m0 0H46.55M35.27 174.467h-5.299M29.971 174.467v1.096M35.27 174.467v1.096M35.27 183.321h-5.299M29.971 182.226v1.095M35.27 182.226v1.095M35.144 168.221a2.74 2.74 0 11-5.48 0 2.74 2.74 0 015.48 0zM44.612 169.493a3.968 3.968 0 11-7.937-.001 3.968 3.968 0 017.937.001z"/><path class="st2" d="M42.912 169.493a2.268 2.268 0 11-4.536-.002 2.268 2.268 0 014.536.002zM35.235 178.895a2.646 2.646 0 11-5.291-.001 2.646 2.646 0 015.291.001zM44.581 180.012a3.4 3.4 0 11-6.801 0 3.4 3.4 0 016.801 0zM48.628 154.345v40.244M25.957 154.345v40.244M48.628 154.345H25.956M48.628 194.589H25.956M78.86 221.415l22.672.002m0 0l-.002 22.672m0 0l-22.672-.002m0 0l.002-22.672M90.194 236.531l.001-7.557M87.523 235.424l5.344-5.343M86.417 232.752h7.556M87.523 230.081l5.343 5.343M58.456 149.827h22.672m0 0v-22.672m0 0H58.456m0 0v22.672M81.127 149.827h22.672m0 0v-22.672m0 0H81.127m0 0v22.672M42.645 202.769a3.41 3.41 0 11-6.822 0 3.41 3.41 0 016.822 0z"/><path class="st2" d="M42.124 202.769a2.89 2.89 0 11-5.78 0 2.89 2.89 0 015.78 0zM42.645 209.078a2.579 2.579 0 11-5.158 0 2.579 2.579 0 015.158 0z"/><path class="st2" d="M41.51 209.078a1.444 1.444 0 11-2.888.002 1.444 1.444 0 012.888-.002zM171.245 305.506h-22.671m0 0v69.905m0 0h22.671m0 0v-69.905M159.532 375.411h.756m0 0v-69.905m0 0h-.756m0 0v69.905M169.253 312.093h-18.626m-.001 0v.756m0 0h18.626m.001 0v-.756M169.253 314.097h-18.626m-.001 0v.756m0 0h18.626m.001 0v-.756M169.253 316.102h-18.626m-.001 0v.755m0 0h18.626m.001 0v-.755M169.253 318.106h-18.626m-.001 0v.756m0 0h18.626m.001 0v-.756M169.117 322.353l-18.49-2.242m0-.001l-.091.751m0 .001l18.49 2.241m0 0l.091-.75M258.532 85.196h-68.016m0 0V13.402m0 0h68.016m0 0v71.794M256.642 87.085h-64.236m0 0l-.724-.144m0 0l-.612-.409m0 0l-.409-.614m0 0l-.145-.723m0 0h68.016m0 0l-.145.723m0 0l-.409.614m0 0l-.612.409m0 0l-.724.144M258.532 9.623h-68.016m0 0v3.778m0 0h68.016m0 0V9.623M190.516 9.623h68.016m0 0v1.89m0 .001h-68.016m0 0v-1.89M188.627 9.623h-17.004m0 0v18.893m0 .001h17.004m0 0V9.623M260.421 9.623h17.004m-.001 0v18.893m0 .001H260.42m.001 0V9.623M218.478 15.292h-25.694m0 0l-.268.11m0 0l-.11.268m0-.001v12.469m0 0l.11.267m0 0l.268.111m0 .001h25.694m0 0l.268-.111m0-.001l.11-.267m0 0V15.669m0 0l-.11-.268m0 .001l-.268-.11M230.57 15.292h25.694m0 0l.268.11m0 0l.11.268m0-.001v12.469m0 0l-.11.267m0 0l-.268.111m0 .001H230.57m0 0l-.268-.111m0-.001l-.11-.267m0 0V15.669m0 0l.11-.268m0 .001l.268-.11M258.532 27.492h-1.89M230.192 27.492h-11.336M192.406 27.492h-1.89M258.532 32.502h-68.016m0 0v18.686m0 0l68.016-14.907m0 0v-3.779M148.952 20.204l-.756.756m0 0v56.317m0-.001h.756m0 0V20.204M139.23 70.69h18.626m0 0v-.756m0 0H139.23m0 0v.756M139.23 68.685h18.626m0 0v-.756m0 0H139.23m0 0v.756M139.23 66.681h18.626m0 0v-.755m0 0H139.23m0 0v.755M139.23 64.676h18.626m0 0v-.756m0 0H139.23m0 0v.756M139.366 60.43l18.49 2.242m0 0l.092-.751m0 0l-18.491-2.241m0 0l-.091.75M148.574 248.811v-15.114m0-.001h132.252m0 0v15.114m0 .001H148.574M256.302 243.93v1.02m0 0h-44.369m0 0v-1.02m0 0h44.369M246.841 244.95v.832m0 0l-.152.567m0 0l-.414.415m0 0l-.568.152m.001 0h-22.699m0 0l-.566-.152m-.001 0l-.415-.415m0 0l-.153-.567m0 0v-.832m0 0h24.967M256.302 243.632v.297m0 0h-44.369m0 0v-.297m0 0h44.369M41.441 198.7v.963m0 0h1.204m0 0v12.524m0 0h-1.204m0 0v.964M31.437 200.164v9.634m0 0h.478m0 0v-.723m0 0h-.238m0 0v-8.188m0 0h.238m0 0v-.723m0 0h-.478M31.915 200.164l.104.047m.102.047l.104.048m.103.046l.103.048m.103.047l.103.047m.103.047l.103.047m.103.048l.103.047m.103.047l.104.047m.102.047l.104.048m.101.046l.104.047m.103.048l.104.047m.102.047l.103.047m.105.048l.102.046m.104.048l.103.047m.103.047l.102.047m.104.047l.103.048m.103.047l.103.046m.103.048l.103.047M31.915 209.798l.104-.047m.102-.047l.104-.048m.103-.046l.103-.048m.103-.047l.103-.047m.103-.047l.103-.047m.103-.047l.103-.048m.103-.047l.104-.047m.102-.047l.104-.048m.101-.046l.104-.048m.103-.047l.104-.047m.102-.047l.103-.047m.105-.048l.102-.046m.104-.048l.103-.047m.103-.047l.102-.047m.104-.047l.103-.048m.103-.047l.103-.047m.103-.047l.103-.047M31.915 200.164v.078m0 .113v.114m0 .113v.113m0 .114v.078m0 0l.052.041m.088.072l.088.071m.087.072l.088.071m.089.072l.088.071m.088.071l.088.072m.088.071l.088.072m.087.071l.087.072m.09.071l.088.072m.088.071l.088.072m.088.071l.088.071m.088.072l.088.071m.087.072l.089.071m.088.072l.088.071m.088.071l.088.072m.088.071l.088.072m.087.071l.088.072m.089.071l.088.072m.088.072l.088.071m.088.071l.088.071m.089.072l.087.071m.088.072l.088.072m.088.071l.088.071m.088.071l.052.042M31.915 209.798v-.078m0-.113v-.114m0-.113v-.113m0-.114v-.078m0 0l.052-.041m.088-.071l.088-.072m.087-.072l.088-.071m.089-.072l.088-.071m.088-.072l.088-.071m.088-.072l.088-.071m.087-.071l.087-.072m.09-.071l.088-.072m.088-.071l.088-.072m.088-.071l.088-.071m.088-.072l.088-.071m.087-.072l.089-.071m.088-.072l.088-.071m.088-.072l.088-.071m.088-.072l.088-.071m.087-.071l.088-.072m.089-.071l.088-.072m.088-.071l.088-.072m.088-.071l.088-.071m.089-.072l.087-.071m.088-.072l.088-.071m.088-.072l.088-.071m.088-.072l.052-.041M94.539 9.623v22.672m0 0h43.077m0 0v44.981m0 0h22.672m0 0V9.623m0 0H94.539M148.196 20.959l.756-.756m0 0H94.539m0 0v.756m0 0h53.657M105.661 11.239v18.626m0 0h.755m0 0V11.239m0 0h-.755M107.665 11.239v18.626m0 0h.756m0 0V11.239m0 0h-.756M109.669 11.239v18.626m0 0h.756m0 0V11.239m0 0h-.756M111.674 11.239v18.626m0 0h.755m0 0V11.239m0 0h-.755M115.92 11.373l-2.242 18.491m.001 0l.751.091m-.001 0l2.241-18.491m0 0l-.75-.091M280.826 259.768h-52.901m0 0v22.672m0 0h52.901m0 0v-22.672M272.702 19.07a3.78 3.78 0 11-7.558 0 3.78 3.78 0 017.558 0z"/><path class="st2" d="M270.056 19.07a1.134 1.134 0 11-2.267 0 1.134 1.134 0 012.267 0zM183.904 19.07a3.78 3.78 0 11-7.558 0 3.78 3.78 0 017.558 0z"/><path class="st2" d="M181.258 19.07a1.134 1.134 0 11-2.267 0 1.134 1.134 0 012.267 0zM272.602 18.209l-3.68.86m0 0l-1.583 3.432m0 0l1.583-3.432m0 0l-1.305-3.546M176.446 18.209l3.679.86m0 0l1.584 3.432m0 0l-1.584-3.432m0 0l1.306-3.546M178.647 152.784l-4.109-4.109m0 0l-.426-.407m0 0l-.43-.371m0 0l-.424-.328m0 0l-.403-.276m0 0l-.017-.009m0 0l-.375-.216m0 0l-.332-.147m0 0l-.025-.008m0 0l-.281-.075m0 0l-.028-.004m0 0l-.22.002m0 0l-.03.002m0 0l-.029.007m0 0l-.027.013m0 0l-.154.078m0 0l-.024.018m0 0l-.012.01m0 0l-1.133 1.134m0 0l-1.03-1.029m0 0l-5.217 5.217m11.115 11.116l5.217-5.218m0 0l-1.029-1.029m0 0l1.134-1.134m0 0l.011-.011m0 0l.017-.025m0 0l.078-.154m0 0l.013-.027m0 0l.008-.029m0 0l.002-.029m0 0l.001-.221m0 0l-.003-.028m0 0l-.075-.281m0 0l-.008-.025m0 0l-.148-.332m0 0l-.214-.376m0 0l-.011-.016m0 0l-.276-.404m0 0l-.328-.423m0 0l-.371-.429m0 0l-.407-.427M169.499 148.766l9.057 9.057M169.623 148.89l.897-.898M178.432 157.699l.898-.898M174.559 161.819l4.664-4.664M165.502 152.763l4.665-4.664M173.508 149.697l4.117 4.117M170.52 147.992c.354-.354 1.691.409 2.988 1.706M177.624 153.813c1.296 1.296 2.06 2.634 1.705 2.988M142.048 181.165l4.108 4.108m0 .001l.427.408m0 0l.43.371m0 0l.423.328m0 0l.404.275m.001 0l.016.011m-.001 0l.376.215m.001-.001l.332.147m-.001.001l.024.008m0-.001l.281.075m.001.001l.029.003m-.001-.001l.22-.001m0 .001l.03-.002m0 0l.028-.008m0-.001l.027-.012m0 0l.154-.078m0 .001l.025-.018m0-.001l.011-.011m0 .001l1.134-1.133m0 0l1.029 1.029m0 0l5.219-5.218m-11.116-11.115l-5.216 5.217m-.001 0l1.029 1.029m0 0l-1.135 1.134m0 0l-.01.011m0 .001l-.017.025m0-.001l-.078.153m0 .001l-.013.027m0-.001l-.008.03m.001.001l-.002.029m0-.001l-.001.221m-.001.001l.003.027m.001-.001l.074.282m-.001.001l.009.025m0-.001l.147.332m0 0l.215.375m.001 0l.01.016m-.001.001l.276.404m0 0l.329.424m0 0l.371.429m0-.001l.407.427M151.196 185.183l-9.057-9.057M151.073 185.059l-.898.898M142.262 176.25l-.897.896M146.135 172.13l-4.663 4.664M155.192 181.186l-4.663 4.664M147.187 184.252l-4.117-4.117M150.174 185.958c-.354.354-1.692-.409-2.988-1.705M143.07 180.135c-1.296-1.296-2.06-2.634-1.705-2.988M146.157 148.675l-4.108 4.109m0 0l-.408.427m0 0l-.371.429m0 0l-.329.423m0 0l-.275.404m0 0l-.01.016m0 0l-.216.376m0 0l-.146.332m0 0l-.009.025m0 0l-.074.281m0 0l-.003.028m0 0l.001.221m0 0l.002.029m0 0l.008.029m0 0l.012.027m0 0l.078.154m0 0l.018.024m0 0l.01.012m0 0l1.134 1.133m0 0l-1.029 1.03m0 0l5.217 5.217m11.115-11.115l-5.218-5.217m0 0l-1.028 1.029m0 0l-1.135-1.134m0 0l-.01-.01m0 0l-.026-.018m0 0l-.153-.078m0 0l-.027-.013m0 0l-.029-.007m0 0l-.029-.002m0 0l-.221-.002m0 0l-.028.004m0 0l-.281.075m0 0l-.025.008m0 0l-.332.147m0 0l-.376.215m0 0l-.015.01m0 0l-.405.276m0 0l-.423.328m0 0l-.429.371m0 0l-.427.407M142.139 157.823l9.057-9.057M142.262 157.699l-.897-.898M151.073 148.89l-.898-.898M155.192 152.763l-4.663-4.664M146.135 161.819l-4.663-4.664M143.07 153.814l4.117-4.117M141.365 156.801c-.354-.354.409-1.692 1.705-2.988M147.186 149.696c1.297-1.296 2.635-2.059 2.988-1.705M174.538 185.274l4.109-4.108m0 0l.408-.427m0 0l.371-.43m0 0l.328-.424m0 0l.275-.403m-.001 0l.011-.017m.001 0l.215-.375m0 0l.147-.332m0 0l.008-.024m0 0l.075-.282m0 0l.003-.028m0 0l-.001-.22m0 0l-.002-.03m0 0l-.008-.029m0 0l-.012-.027m0 0l-.078-.154m0 0l-.018-.024m0 0l-.011-.012m0 0l-1.133-1.133m0 0l1.029-1.03m0 0l-5.218-5.218m-11.116 11.115l5.219 5.218m0 0l1.029-1.029m0 0l1.134 1.134m0 0l.011.011m0 0l.025.017m0 0l.153.078m0 0l.027.013m0 0l.03.008m0 0l.029.002m0 0l.221.001m0 0l.027-.003m0 0l.281-.075m0 0l.026-.008m0 0l.332-.148m0 0l.375-.214m0 0l.016-.011m0 0l.404-.276m0 0l.424-.328m0 0l.429-.371m0 0l.426-.407M178.556 176.127l-9.057 9.056M178.432 176.25l.898.896M169.623 185.059l.897.898M165.502 181.186l4.665 4.664M174.559 172.129l4.664 4.665M177.626 180.135l-4.117 4.117M179.331 177.147c.354.354-.409 1.691-1.705 2.987M173.508 184.251c-1.296 1.296-2.634 2.06-2.988 1.705M175.461 166.974c0 8.348-6.767 15.114-15.114 15.114-8.348 0-15.115-6.766-15.115-15.114 0-8.347 6.767-15.114 15.115-15.114 8.347 0 15.114 6.767 15.114 15.114zM206.602 126.965v1.71m0 .001h57.067m.001 0v-1.71m0-.001h-57.067M206.602 161.163h28.533m.001 0v-23.938m0 0h-28.533m-.001 0v23.938M235.136 161.163h28.534m0 0v-23.938m0 0h-28.534m0 0v23.938M263.67 161.163h9.221m0 0v-34.198m0 0h-9.221m0 0v1.711m0 8.548v23.938M197.382 161.163h9.221m0 0v-23.938m0-8.55v-1.711m0 .001h-9.221m0 0v34.198M235.136 128.675v8.55m0 0h33.144m.001 0v-8.55m0 0h-33.144M235.136 128.675v8.55m0 0h-33.144m0 0v-8.55m0 0h33.144M213.116 375.358v-1.895m0 0h48.886m.001 0v1.895m0 0h-48.886M213.15 337.476h24.584m0 0v26.517m0 0H213.15m0 0v-26.517M237.734 337.476h24.268m.001 0v26.517m0 0h-24.268m-.001 0v-26.517M262.003 337.476h9.598m0 0v37.883m0 0h-9.598m0 0v-1.895m0-9.471v-26.518M203.867 337.476h9.249m0 0v26.518m0 9.47v1.895m0 0h-9.249m0 0v-37.883M237.734 373.464v-9.471m0 0h29.046m0 0v9.471m0 0h-29.046M237.734 373.464v-9.471m0 0h-29.383m0 0v9.471m0 0h29.383"/></g></g><g id="walls_1_"><path d="M.195 366.169c5.068 2.141 10.158 3.212 15.56 3.198" fill="none" stroke="#000" stroke-miterlimit="3"/><path class="st4" d="M.096 366.126l1.388.6 15.783-36.355v-.453h-1.513z"/><path class="st5" d="M134.167 111.533c1.551 3.997 2.561 8.141 2.579 12.548"/><path class="st4" d="M134.126 111.422l-29.271 12.659v1.511h.452l29.42-12.783z"/><path class="st5" d="M105.588 66.49c-4.272 1.594-6.487 2.059-11.049 2.293"/><path class="st4" d="M105.698 66.474L94.539 40.67h-1.511v.454l11.283 25.949z"/><g><path class="st5" d="M87.444 289.071c3.926 1.464 6.813 2.056 11.062 2.274"/><path class="st4" d="M87.348 289.035l1.388.6 11.282-25.95v-.453h-1.512z"/><g><path class="st5" d="M164.157 294.809c-4.799 1.791-7.446 2.32-12.56 2.581"/><path class="st4" d="M164.254 294.767l-12.658-29.268h-1.511v.453l12.782 29.415z"/></g></g><g><path class="st5" d="M297.074 100.259h-16.248M304.63 100.259h-5.667M298.963 100.259h-1.889M297.074 34.133h-16.248M304.63 34.133h-5.667M298.963 34.133h-1.889M304.63 34.133v66.126M280.826 34.133v66.126M297.074 34.133v3.779M297.074 37.912h1.89M298.963 37.912v-3.779M298.963 71.919V70.03M298.963 70.03h-1.889M297.074 70.03v1.889M298.018 37.912V70.03M297.074 37.912V70.03M298.963 70.03V37.912M297.074 71.919v.945M297.074 72.864h.944M298.018 72.864v.944M298.018 73.809h.945M298.963 73.809V71.92M298.963 100.259V96.48M298.963 96.48h-.944M298.018 96.48v.945M298.018 97.425h-.944M297.074 97.425v2.834M298.963 96.48V73.808M296.128 75.698v18.893M296.128 72.864v2.834M296.128 75.698h1.891M298.018 75.698v-2.834M298.018 72.864h-1.89M298.018 97.425v-2.834M298.018 94.591h-1.89M296.128 94.591v2.834M296.128 97.425h1.891M298.018 94.591V75.698M296.128 75.698v18.893M297.074 75.698v18.893M298.963 34.133h-1.889M298.963 34.133h-1.889M304.63 34.133h-5.667M297.074 34.133h-16.248M298.963 100.259h-1.889M298.963 100.259h-1.889M304.63 100.259h-5.667M297.074 100.259h-16.248"/><g><path class="st5" d="M297.074 291.08h-16.248M304.63 291.08h-5.667M298.963 291.08h-1.889M297.074 357.206h-16.248M304.63 357.206h-5.667M298.963 357.206h-1.889M304.63 357.206V291.08M280.826 357.206V291.08M297.074 357.206v-3.779M297.074 353.427h1.89M298.963 353.427v3.779M298.963 319.42v1.889M298.963 321.309h-1.889M297.074 321.309v-1.889M298.018 353.427v-32.118M297.074 353.427v-32.118M298.963 321.309v32.118M297.074 319.42v-.945M297.074 318.475h.944M298.018 318.475v-.945M298.018 317.53h.945M298.963 317.53v1.89M298.963 291.08v3.778M298.963 294.858h-.944M298.018 294.858v-.944M298.018 293.914h-.944M297.074 293.914v-2.834M298.963 294.858v22.672M296.128 315.641v-18.893M296.128 318.475v-2.834M296.128 315.641h1.891M298.018 315.641v2.834M298.018 318.475h-1.89M298.018 293.914v2.834M298.018 296.748h-1.89M296.128 296.748v-2.834M296.128 293.914h1.891M298.018 296.748v18.893M296.128 315.641v-18.893M297.074 315.641v-18.893M298.963 357.206h-1.889M298.963 357.206h-1.889M304.63 357.206h-5.667M297.074 357.206h-16.248M298.963 291.08h-1.889M298.963 291.08h-1.889M304.63 291.08h-5.667M297.074 291.08h-16.248"/></g><g><path class="st5" d="M297.074 227.615h-16.248M304.63 227.615h-5.667M298.963 227.615h-1.889M297.074 144.485h-16.248M304.63 144.485h-5.667M298.963 144.485h-1.889M304.63 144.485v83.13M280.826 144.485v83.13M297.074 144.485v3.779M297.074 148.264h1.89M298.963 148.264v-3.78M298.963 184.16v-1.889M298.963 182.271h-1.889M297.074 182.271v1.889M298.018 148.264v34.007M297.074 148.264v34.007M298.963 182.271v-34.008M297.074 184.16v.946M297.074 185.105h.944M298.018 185.105v.944M298.018 186.05h.945M298.963 186.05v-1.889M298.963 227.615v-3.779M298.963 223.836h-.944M298.018 223.836v.944M298.018 224.781h-.944M297.074 224.781v2.834M296.128 224.781l-28.055-28.055M298.963 223.836v-37.787M296.128 187.939v34.008M296.128 185.105v2.834M296.128 187.939h1.891M298.018 187.939v-2.834M298.018 185.105h-1.89M298.018 224.781v-2.833M298.018 221.947h-1.89M296.128 221.947v2.833M296.128 224.781h1.891M298.018 221.947v-34.008M296.128 187.939v34.008M297.074 187.939v34.008M268.074 196.726a39.673 39.673 0 0128.055-11.621M298.963 144.485h-1.889M298.963 144.485h-1.889M304.63 144.485h-5.667M297.074 144.485h-16.248M298.963 227.615h-1.889M298.963 227.615h-1.889M304.63 227.615h-5.667M297.074 227.615h-16.248"/></g><g><path class="st5" d="M304.63 133.338h45.344m0 0V239.14m0 0H304.63m0 0V133.338M349.218 238.384H304.63m0 0V134.093m0 0h44.588m0 0v104.291"/></g></g><path class="st0" d="M158.586 386.318H25.956V375.36h145.288v-69.904h-22.671v-8.518h1.511v.453h1.511v5.042h22.672v72.927h106.558v10.958H158.586zm-57.057-67.448v-26.466h-3.023v26.467h-72.55v3.022h75.573v-3.023zm89.426-70.11v10.958h-39.358v4.724h-.001v1.058h-1.511v.453h-1.511v-1.511h.001V248.76h42.38zm0-248.26v9.073h-27.646v67.654h-3.022V9.573h-65.75l.001 31.098h-1.51v.454h-1.512V9.573H25.959V.5h164.996zM42.016 75.148v-3.023h-16.06v3.023h13.036v48.934H25.956v3.022h13.037l.004 24.168H25.956v3.023H42.02l-.005-27.191h63.291v-1.511h-.452v-1.511H94.536l.001-55.298h-1.51v-.453h-1.512v55.751h-49.5V75.148h.001zm238.809 51.956H136.292v-1.511h.454v-1.511h144.079v3.022zM74.134 252.933v3.023H43.716v28.89h-17.76v-3.023h14.738V247.06H25.956v-3.022h75.573v19.648h-1.512v-.453h-1.511V247.06H74.134v5.873zm-30.418 0h27.396v-5.873H43.716v5.873zm57.813 37.959h-1.512v.454h-1.511v1.058h3.023v-1.512z"/><path d="M304.632 386.318h-23.806l.002-29.21h23.805l-.001 29.21h0zm-278.676 0H15.755v-16.95h1.512v-.454h8.69v17.404h-.001zm-10.201-57.457v1.058h1.512v.453h8.69L25.959.501 15.755.502v328.359h0zM190.955.5v9.073h89.87v24.561h23.805V.5H190.955h0zm89.87 99.76h23.805l.002 44.395h-23.805l-.002-44.395h0zm0 127.356h23.805v63.465h-23.805v-31.363h-89.87V248.76h89.87v-21.144z" fill-rule="evenodd" clip-rule="evenodd" stroke="#000" stroke-miterlimit="3"/><g><path class="st7" d="M31.085.834l-5.02 4.42M38.505.834l-10.31 9.08M45.925.834l-10.31 9.08M53.345.834l-10.3 9.08M60.775.834l-10.31 9.08M68.195.834l-10.31 9.08M75.615.834l-10.31 9.08M83.035.834l-10.31 9.08M90.455.834l-10.31 9.08M97.885.834l-10.31 9.08M94.635 10.234l-3.02 2.66M105.305.834l-10.31 9.08M94.635 16.774l-3.02 2.66M31.415 72.464l-3.43 3.02M112.725.834l-10.3 9.08M94.635 23.314l-3.02 2.66M38.835 72.464l-3.43 3.02M120.155.834l-10.31 9.08M94.635 29.854l-3.02 2.66M42.115 76.114l-3.02 2.66M127.575.834l-10.31 9.08M42.115 82.654l-3.02 2.66M94.635 36.384l-3.02 2.66M134.985.834l-10.3 9.08M42.115 89.194l-3.02 2.66M142.415.834l-10.31 9.08M42.115 95.734l-3.02 2.66M149.835.834l-10.31 9.08M42.115 102.274l-3.02 2.66M157.265.834l-10.31 9.08M42.115 108.804l-3.02 2.66M164.685.834l-10.31 9.08M42.115 115.344l-3.02 2.66M31.825 124.414l-3.44 3.03M94.585 69.124l-2.97 2.62M172.105.834l-11.72 10.33M163.415 15.024l-3.03 2.67M42.115 121.884l-6.32 5.56M94.635 75.614l-3.02 2.66M179.525.834l-10.31 9.08M163.415 21.564l-3.03 2.67M46.665 124.414l-3.44 3.03M42.115 128.424l-3.02 2.66M94.635 82.154l-3.02 2.66M186.945.834l-10.31 9.08M191.055 3.754l-6.99 6.16M94.635 88.694l-3.02 2.66M42.115 134.954l-3.02 2.67M54.085 124.414l-3.44 3.03M163.415 28.104l-3.03 2.67M94.635 95.234l-3.02 2.66M42.125 141.494l-3.03 2.67M30.645 151.604l-3.44 3.03M61.505 124.414l-3.43 3.03M163.415 34.644l-3.03 2.67M94.635 101.774l-3.02 2.66M42.125 148.034l-3.03 2.66M38.065 151.604l-3.44 3.03M68.935 124.414l-3.44 3.03M163.415 41.184l-3.03 2.67M94.635 108.314l-3.02 2.66M42.125 154.564l-.08.07M76.355 124.414l-3.44 3.03M163.415 47.724l-3.03 2.67M94.635 114.844l-3.02 2.66M83.775 124.414l-3.44 3.03M163.415 54.254l-3.03 2.67M94.635 121.384l-3.02 2.66M91.195 124.414l-3.44 3.03M163.415 60.794l-3.03 2.67M98.615 124.414l-3.44 3.03M163.415 67.334l-3.03 2.67M163.415 73.874l-3.03 2.67M104.955 125.374l-2.35 2.07M143.145 124.424l-3.43 3.02M150.565 124.424l-3.43 3.02M157.985 124.424l-3.43 3.02M29.245 244.374l-3.19 2.81M165.415 124.424l-3.43 3.02M36.665 244.374l-3.42 3.02M172.835 124.424l-3.43 3.02M44.085 244.374l-3.43 3.02M180.255 124.424l-3.43 3.02M43.815 251.154l-3.02 2.66M51.505 244.374l-3.42 3.02M187.675 124.424l-3.43 3.02M43.815 257.694l-3.02 2.66M58.935 244.374l-3.43 3.02M48.835 253.274l-3.43 3.02M195.105 124.424l-3.44 3.02M43.815 264.234l-3.02 2.66M66.355 244.374l-3.43 3.02M56.255 253.274l-3.43 3.02M202.525 124.424l-3.43 3.02M43.815 270.774l-3.02 2.66M73.785 244.374l-3.43 3.02M63.675 253.274l-3.43 3.02M30.885 282.164l-3.43 3.02M209.955 124.414l-3.44 3.03M43.815 277.314l-3.02 2.66M38.305 282.164l-3.43 3.02M74.235 250.514l-3.02 2.66M71.095 253.274l-3.42 3.02M81.205 244.374l-3.43 3.02M217.375 124.414l-3.44 3.03M88.615 244.374l-3.43 3.02M43.815 283.844l-1.52 1.34M224.785 124.414l-3.43 3.03M96.045 244.374l-3.43 3.02M232.215 124.414l-3.44 3.03M101.635 245.984l-3.03 2.67M239.635 124.414l-3.43 3.03M101.635 252.524l-3.03 2.67M247.065 124.414l-3.44 3.03M33.365 319.204l-3.44 3.03M101.635 259.064l-3.03 2.67M254.485 124.414l-3.44 3.03M40.785 319.204l-3.43 3.03M261.905 124.414l-3.43 3.03M48.215 319.204l-3.44 3.03M269.335 124.414l-3.44 3.03M55.625 319.204l-3.43 3.03M276.745 124.414l-3.44 3.03M280.925 127.274l-.19.17M63.055 319.204l-3.44 3.03M150.065 249.094l-1.39 1.22M101.635 291.754l-1.12.99-1.91 1.68M70.475 319.204l-3.44 3.03M101.635 298.294l-3.03 2.67M157.485 249.094l-8.81 7.76M77.905 319.204l-3.44 3.03M101.635 304.834l-3.03 2.67M151.695 260.734l-3.02 2.66M164.915 249.094l-12.45 10.96M85.325 319.204l-3.44 3.03M28.625 375.694l-2.57 2.26M101.635 311.374l-3.03 2.67M172.335 249.094l-12.44 10.96M92.745 319.204l-3.44 3.03M179.745 249.094l-12.44 10.96M101.635 317.904l-4.91 4.33M36.035 375.694l-9.98 8.79M187.175 249.094l-12.44 10.96M43.465 375.694l-12.45 10.96M191.055 252.214l-8.9 7.84M50.885 375.694l-12.44 10.96M191.055 258.754l-1.48 1.3M58.305 375.694l-12.44 10.96M151.695 299.964l-3.02 2.66M65.735 375.694l-12.44 10.96M155.935 302.774l-3.43 3.02M73.155 375.694l-12.44 10.96M163.355 302.774l-3.43 3.02M80.575 375.694l-12.44 10.96M170.765 302.774l-3.42 3.02M87.995 375.694l-12.44 10.96M174.365 306.144l-3.02 2.66M95.415 375.694l-12.44 10.96M174.365 312.684l-3.02 2.66M102.845 375.694l-12.45 10.96M174.365 319.224l-3.02 2.66M110.265 375.694l-12.44 10.96M174.365 325.764l-3.02 2.66M117.685 375.694l-12.44 10.96M174.365 332.304l-3.02 2.66M125.115 375.694l-12.45 10.96M174.365 338.834l-3.02 2.66M132.525 375.694l-12.44 10.96M174.365 345.374l-3.02 2.66M139.945 375.694l-12.44 10.96M174.365 351.914l-3.02 2.66M147.375 375.694l-12.44 10.96M174.365 358.454l-3.02 2.66M154.795 375.694l-12.44 10.96M174.365 364.994l-3.02 2.66M162.225 375.694l-12.44 10.96M174.365 371.534l-3.02 2.66M169.645 375.694l-12.44 10.96M177.055 375.694l-12.44 10.96M184.485 375.694l-12.44 10.96M191.905 375.694l-12.44 10.96M199.325 375.694l-12.44 10.96M206.755 375.694l-12.44 10.96M214.175 375.694l-12.44 10.96M221.605 375.694l-12.44 10.96M229.015 375.694l-12.44 10.96M236.435 375.694l-12.44 10.96M243.865 375.694l-12.44 10.96M251.285 375.694l-12.44 10.96M258.715 375.694l-12.45 10.96M266.135 375.694l-12.44 10.96M273.545 375.694l-12.44 10.96M280.925 375.734l-12.39 10.92M280.925 382.274l-4.97 4.38"/></g><path d="M158.586 386.318H25.956V375.36h145.288v-69.904h-22.671v-8.518h1.511v.453h1.511v5.042h22.672v72.927h106.558v10.958H158.586h0zm-57.057-67.448v3.023H25.956v-3.022h72.55v-26.467h3.023v26.466h0zm89.426-70.11v10.958h-39.358v4.724h-.001v1.058h-1.511v.453h-1.511v-1.511h.001V248.76h42.38zm0-248.26v9.073h-27.646v67.654h-3.022V9.573h-65.75l.001 31.098h-1.51v.454h-1.512V9.573H25.959V.5h164.996zM42.016 75.148v48.934h49.5V68.331h1.512v.453h1.51l-.001 55.298h10.318v1.511h.452v1.511H42.016l.005 27.191H25.956v-3.023h13.041l-.004-24.168H25.956v-3.022h13.036V75.148H25.956v-3.023h16.059v3.023h.001zm238.809 51.956H136.292v-1.511h.454v-1.511h144.079v3.022h0zM74.134 252.933v3.023H43.716v28.89h-17.76v-3.023h14.738V247.06H25.956v-3.022h75.573v19.648h-1.512v-.453h-1.511V247.06H74.134v5.873h0zm-30.418 0h27.396v-5.873H43.716v5.873h0zm57.813 37.959h-1.512v.454h-1.511v1.058h3.023v-1.512z" fill-rule="evenodd" clip-rule="evenodd" fill="none" stroke="#000" stroke-miterlimit="22.926"/></g><g id="sizes"><path d="M152.49 229.604h-1.594v-9.625l-1.617.992v-1.648l1.617-1.078h1.594v11.359zM156.287 229.318c-.474-.269-.835-.659-1.082-1.172s-.371-1.132-.371-1.855v-.008c0-.422.05-.864.148-1.328a7.568 7.568 0 01.641-1.82l2.469-4.891h1.719l-2.898 5.664.008-.281c.13-.245.32-.435.57-.57s.542-.203.875-.203c.589 0 1.094.133 1.516.398s.742.652.961 1.16.328 1.118.328 1.832v.008c0 .729-.124 1.354-.371 1.875s-.609.917-1.086 1.188-1.048.406-1.715.406-1.238-.134-1.712-.403zm2.879-1.597c.273-.313.41-.758.41-1.336v-.008c0-.636-.144-1.126-.43-1.473s-.695-.52-1.227-.52c-.474 0-.841.175-1.102.523s-.391.841-.391 1.477v.008c0 .578.137 1.022.41 1.332s.66.465 1.16.465c.507.001.896-.156 1.17-.468zM163.123 228.01h1.594v1.594l-1.594 1.578v-3.172zM167.728 228.869c-.55-.567-.824-1.359-.824-2.375v-5.164c0-1.021.276-1.813.828-2.379s1.356-.848 2.414-.848c1.063 0 1.868.281 2.418.844s.824 1.356.824 2.383v5.164c0 1.021-.276 1.813-.828 2.379s-1.356.848-2.414.848c-1.062 0-1.868-.284-2.418-.852zm3.664-1.105c.269-.294.402-.718.402-1.27v-5.164c0-.552-.133-.976-.398-1.27s-.683-.441-1.25-.441-.984.147-1.25.441-.398.718-.398 1.27v5.164c0 .552.134.976.402 1.27s.684.441 1.246.441.978-.147 1.246-.441zM262.717 112.128l-.008.281c-.13.24-.327.416-.59.527a2.372 2.372 0 01-.934.168c-.542 0-1.019-.138-1.43-.414-.411-.276-.73-.665-.957-1.168-.227-.502-.34-1.084-.34-1.746v-.008c0-.734.124-1.362.371-1.883a2.615 2.615 0 011.086-1.188c.477-.271 1.048-.406 1.715-.406s1.237.138 1.711.414a2.66 2.66 0 011.082 1.203c.247.526.371 1.159.371 1.898v.008c0 .406-.052.84-.156 1.301s-.253.918-.445 1.371l-.094.207c-.031.07-.065.14-.102.207l-2.422 4.867h-1.719l2.861-5.639zm.074-.985c.273-.338.41-.815.41-1.43v-.008c0-.599-.137-1.063-.41-1.391s-.66-.492-1.16-.492c-.505 0-.895.164-1.168.492s-.41.794-.41 1.398v.008c0 .615.137 1.09.41 1.426s.663.504 1.168.504c.5.001.886-.168 1.16-.507zM266.748 116.174h1.594v1.594l-1.594 1.578v-3.172zM271.748 117.483a2.61 2.61 0 01-1.082-1.172c-.247-.513-.371-1.131-.371-1.855v-.008c0-.422.05-.864.148-1.328a7.673 7.673 0 01.532-1.597l.109-.223 2.469-4.891h1.719l-2.898 5.664.008-.281c.13-.245.32-.435.57-.57.25-.135.542-.203.875-.203.589 0 1.094.133 1.516.398s.742.652.961 1.16.328 1.119.328 1.832v.008c0 .729-.124 1.354-.371 1.875a2.615 2.615 0 01-1.086 1.188c-.477.271-1.048.406-1.715.406s-1.238-.134-1.712-.403zm2.879-1.598c.273-.313.41-.758.41-1.336v-.008c0-.635-.144-1.126-.43-1.473-.286-.346-.695-.52-1.227-.52-.474 0-.841.175-1.102.523-.261.349-.391.841-.391 1.477v.008c0 .578.137 1.022.41 1.332.273.31.66.465 1.16.465.507.001.896-.155 1.17-.468zM329.963 150.037l-.727-.348a2.857 2.857 0 01-1.168-1.008c-.294-.44-.48-.97-.559-1.59h1.625c.047.323.148.589.305.797.156.208.358.363.605.465s.538.152.871.152c.526 0 .935-.141 1.227-.422s.438-.677.438-1.188v-.344c0-.567-.138-1.006-.414-1.316-.276-.31-.667-.465-1.172-.465h-.805v-1.516h.805c.442 0 .786-.133 1.031-.398s.367-.641.367-1.125v-.352c0-.448-.129-.794-.387-1.039-.258-.245-.624-.367-1.098-.367-.271 0-.513.051-.727.152s-.395.258-.543.469-.257.476-.324.793h-1.617c.104-.62.301-1.151.59-1.594a2.893 2.893 0 011.098-1.008c.442-.229.95-.344 1.523-.344.979 0 1.737.258 2.273.773s.805 1.242.805 2.18v.188c0 .568-.153 1.063-.461 1.484s-.742.729-1.305.922c.62.136 1.101.44 1.441.914.341.474.512 1.078.512 1.813v.188c0 .662-.128 1.227-.383 1.695s-.626.826-1.113 1.07c-.487.245-1.074.367-1.762.367l-.951.002zM336.283 148.326h1.594v1.594l-1.594 1.578v-3.172zM345.932 139.983l-2.938 9.938h-1.695l2.938-9.844h-2.891v1.633h-1.594v-3.148h6.18v1.421z"/><g><path d="M68.761 114.643l3.813-8.227h1.641l-3.719 8.133h5.57v1.477h-7.305v-1.383zm4.898-3.554h1.555v6.688h-1.555v-6.688zM77.862 116.174h1.594v1.594l-1.594 1.578v-3.172zM82.862 117.483a2.61 2.61 0 01-1.082-1.172c-.247-.513-.371-1.131-.371-1.855v-.008c0-.422.05-.864.148-1.328a7.673 7.673 0 01.532-1.597l.109-.223 2.469-4.891h1.719l-2.898 5.664.008-.281c.13-.245.32-.435.57-.57.25-.135.542-.203.875-.203.589 0 1.094.133 1.516.398s.742.652.961 1.16.328 1.119.328 1.832v.008c0 .729-.124 1.354-.371 1.875a2.615 2.615 0 01-1.086 1.188c-.477.271-1.048.406-1.715.406s-1.238-.134-1.712-.403zm2.879-1.598c.273-.313.41-.758.41-1.336v-.008c0-.635-.144-1.126-.43-1.473-.286-.346-.695-.52-1.227-.52-.474 0-.841.175-1.102.523-.261.349-.391.841-.391 1.477v.008c0 .578.137 1.022.41 1.332.273.31.66.465 1.16.465.507.001.897-.155 1.17-.468z"/></g><g><path d="M185.573 365.674l-.008.281c-.13.24-.327.416-.59.527a2.372 2.372 0 01-.934.168c-.542 0-1.019-.138-1.43-.414-.411-.275-.73-.665-.957-1.168-.227-.502-.34-1.084-.34-1.746v-.008c0-.734.124-1.361.371-1.883a2.62 2.62 0 011.086-1.188c.477-.271 1.048-.406 1.715-.406s1.237.139 1.711.414c.474.276.835.678 1.082 1.203.247.526.371 1.159.371 1.898v.008c0 .406-.052.84-.156 1.301s-.253.918-.445 1.371l-.094.207c-.031.07-.065.14-.102.207l-2.422 4.867h-1.719l2.861-5.639zm.074-.984c.273-.338.41-.814.41-1.43v-.008c0-.599-.137-1.063-.41-1.391s-.66-.492-1.16-.492c-.505 0-.895.164-1.168.492s-.41.795-.41 1.398v.008c0 .615.137 1.09.41 1.426s.663.504 1.168.504c.5 0 .887-.169 1.16-.507zM189.604 369.721h1.594v1.594l-1.594 1.578v-3.172zM199.253 361.377l-2.938 9.938h-1.695l2.938-9.844h-2.891v1.633h-1.594v-3.148h6.18v1.421z"/></g><g><path d="M77.066 274.737l-.727-.348c-.485-.232-.874-.567-1.168-1.008s-.48-.97-.559-1.59h1.625c.047.323.148.589.305.797s.358.363.605.465.538.152.871.152c.526 0 .935-.141 1.227-.422s.438-.677.438-1.188v-.344c0-.567-.138-1.007-.414-1.316s-.667-.465-1.172-.465h-.805v-1.516h.805c.442 0 .786-.133 1.031-.398s.367-.641.367-1.125v-.352c0-.448-.129-.794-.387-1.039s-.624-.367-1.098-.367c-.271 0-.513.051-.727.152s-.395.258-.543.469-.257.476-.324.793h-1.617c.104-.62.301-1.151.59-1.594s.655-.778 1.098-1.008.95-.344 1.523-.344c.979 0 1.737.258 2.273.773s.805 1.242.805 2.18v.188c0 .567-.153 1.063-.461 1.484s-.742.729-1.305.922c.62.136 1.101.44 1.441.914s.512 1.078.512 1.813v.188c0 .661-.128 1.227-.383 1.695s-.626.825-1.113 1.07-1.074.367-1.762.367l-.951.002zM83.387 273.027h1.594v1.594l-1.594 1.578v-3.172zM87.992 273.886c-.55-.567-.824-1.359-.824-2.375v-5.164c0-1.021.276-1.813.828-2.379s1.356-.848 2.414-.848c1.063 0 1.868.281 2.418.844s.824 1.356.824 2.383v5.164c0 1.021-.276 1.813-.828 2.379s-1.356.848-2.414.848c-1.062-.001-1.868-.285-2.418-.852zm3.664-1.106c.269-.294.402-.718.402-1.27v-5.164c0-.552-.133-.976-.398-1.27s-.683-.441-1.25-.441-.984.147-1.25.441-.398.718-.398 1.27v5.164c0 .552.134.976.402 1.27s.684.441 1.246.441.978-.147 1.246-.441z"/></g><g><path d="M130.168 361.377l-2.937 9.938h-1.695l2.937-9.844h-2.891v1.633h-1.594v-3.148h6.18v1.421zM132.199 369.721h1.594v1.594l-1.594 1.578v-3.172zM141.848 361.377l-2.938 9.938h-1.695l2.938-9.844h-2.891v1.633h-1.594v-3.148h6.18v1.421z"/></g><g><path d="M140.163 91.227a2.75 2.75 0 01-1.086-.977c-.278-.427-.465-.94-.559-1.539v-.008h1.594v.008c.058.417.224.741.5.973.276.232.636.348 1.078.348.511 0 .905-.17 1.184-.512.278-.341.418-.821.418-1.441v-.953c0-.614-.14-1.092-.418-1.434-.278-.341-.673-.512-1.184-.512-.276 0-.542.078-.797.234s-.479.375-.672.656h-1.453v-5.984h5.789v1.516h-4.195v2.555a2.275 2.275 0 011.414-.508c.656 0 1.218.136 1.684.406.466.271.82.667 1.063 1.188.242.521.363 1.148.363 1.883v.953c0 .734-.125 1.362-.375 1.883-.25.521-.614.918-1.094 1.191s-1.055.41-1.727.41c-.573 0-1.082-.112-1.527-.336zM147.073 89.852h1.594v1.594l-1.594 1.578v-3.172zM151.679 90.712c-.55-.567-.824-1.359-.824-2.375v-5.164c0-1.021.276-1.813.828-2.379.552-.565 1.356-.848 2.414-.848 1.063 0 1.868.281 2.418.844s.824 1.357.824 2.383v5.164c0 1.021-.276 1.814-.828 2.379-.552.565-1.356.848-2.414.848-1.063-.001-1.869-.285-2.418-.852zm3.664-1.106c.269-.294.402-.717.402-1.27v-5.164c0-.552-.133-.975-.398-1.27-.266-.294-.683-.441-1.25-.441s-.984.147-1.25.441c-.266.294-.398.718-.398 1.27v5.164c0 .552.134.976.402 1.27.269.294.684.441 1.246.441s.977-.146 1.246-.441z"/></g></g></svg>