<svg version="1.1" id="_x32_49" xmlns="http://www.w3.org/2000/svg" x="0" y="0" viewBox="0 0 407.392 351.87" xml:space="preserve"><style>.st0,.st1{fill-rule:evenodd;clip-rule:evenodd}.st0{fill:#fff}.st1{stroke-width:.4}.st1,.st2{fill:none;stroke:#999;stroke-linecap:round;stroke-linejoin:round;stroke-miterlimit:3}.st2,.st4,.st5,.st6,.st8{fill-rule:evenodd;clip-rule:evenodd}.st5,.st6,.st8{fill:none;stroke:#000;stroke-miterlimit:3}.st6,.st8{stroke-miterlimit:22.9256}.st8{stroke:#666;stroke-width:.6}</style><path class="st0" d="M406.538 203.129h-45.125V.524H.254v335.73h361.159v-27.875h45.125z"/><g id="mebel"><g id="mebel_9_"><path class="st1" d="M128.138 304.816l.212-.212m-7.159.212l7.159-7.159m-9.516 2.569l9.517-9.517m-21.054 14.107l.345-.345m11.955-11.955l8.753-8.753m-28 21.053l6.629-6.629m11.354-11.354l10.017-10.017m-34.947 28l13.006-13.006m7.974-7.974l13.967-13.967m-37.786 30.839l37.786-37.786m-37.786 30.839l37.786-37.786m-37.786 30.84l37.786-37.787m-37.786 30.841l33.809-33.81m-33.809 26.862l26.863-26.863m-26.863 19.916l19.915-19.915m-19.915 12.969l12.969-12.969m-12.969 6.021l6.021-6.021m31.765 5.968l-5.969-5.968m5.969 12.916l-12.916-12.916m12.916 19.862l-19.862-19.862m19.862 26.809l-26.81-26.809m26.81 33.756l-33.757-33.756m33.757 40.703l-37.786-37.786m37.786 44.733l-37.786-37.786m37.786 44.733l-8.733-8.733m-8.071-8.072l-20.982-20.983m34.999 41.948l-6.525-6.525m-11.367-11.368l-17.107-17.108m28.053 35.001l-.242-.242m-11.937-11.937l-15.875-15.875m16.644 23.592L90.564 283.71m14.159 21.106l-14.159-14.159m7.212 14.159l-7.212-7.212m.264 7.212l-.264-.264M194.816 300.66l5.328-5.328m-12.275 5.328l12.275-12.275m-19.221 12.275l19.221-19.221m-26.169 19.221l26.169-26.169m-33.115 26.169l33.115-33.115m-40.062 33.115l40.062-40.062m-47.009 40.062l47.008-47.009m-52.555 45.609l52.556-52.557m-52.556 45.611l46.254-46.255m-46.254 39.308l39.308-39.308m-39.308 32.361l32.361-32.361m-32.361 25.414l2.743-2.743m3.714-3.715l18.956-18.956M143.3 268.814l.084-.084m10.661-10.661l12.009-12.01m-29.7 22.755l.084-.084m17.607-17.608l5.062-5.063m41.037 1.346l-1.346-1.346m1.346 8.293l-8.294-8.293m8.294 15.24l-15.24-15.24m15.24 22.187l-22.187-22.187m22.187 29.134l-29.134-29.134m29.134 36.081l-36.081-36.081m36.081 43.028l-43.028-43.028m43.028 49.975l-46.098-46.098m43.777 50.724l-43.777-43.777m36.83 43.777l-36.831-36.831m29.884 36.831L152 268.73m24.983 31.93l-29.395-29.396m-2.451-2.45l-.084-.084m24.983 31.93l-22.448-22.449m-9.398-9.397l-.084-.084m24.983 31.93l-15.501-15.502m8.554 15.502l-8.554-8.555m1.607 8.555l-1.607-1.607"/><path class="st2" d="M119.424 289.824l-.469-1.645m0 0l-.718-1.551m0 0l-.967-1.23m0 0l-1.248-.943m0 0l-1.449-.594m0 0l-1.55-.205m0 0l-1.552.205m0 0l-1.447.594m0 0l-1.248.943m0 0l-.968 1.23m0 0l-.719 1.551m0 0l-.469 1.645m0 0l-.207 1.698m0 0l.06 1.709m0 0l1.222 11.585m0 0h10.655m0 0l1.222-11.585m0 0l.06-1.709m0 0l-.208-1.698M108.907 299.095h4.116M113.023 299.095h4.116M109.959 284.828a5.742 5.742 0 013.063-.886M106.711 291.657c-.166-2.591 1.031-5.106 3.248-6.83M108.907 299.095c-1.506-2.253-2.266-4.828-2.195-7.437M119.335 291.657c.07 2.609-.689 5.185-2.195 7.437M116.086 284.828c2.217 1.723 3.413 4.238 3.248 6.83M113.023 283.941a5.737 5.737 0 013.063.886M108.375 304.816h9.295m0 0v-.189m0 0h-9.295m0 0v.189M122.469 304.816h-18.893M122.469 309.35h-18.893M122.469 304.816v4.534M103.577 304.816v4.534M131.374 327.11h68.771m-.001 0v-26.45m0 0h-68.771m.001 0v26.45M139.396 302.775l-.995.081m0 0l-.965.238m0 0l-.905.39m0 0l-.819.529m0 0l-.706.652m0 0l-.573.755m0 0l-.422.836m0 0l-.259.891m0 0l-.086.918m0 0v11.639m0 0l.086.918m0 0l.259.891m0 0l.422.835m0 0l.573.756m0 0l.706.652m0 0l.819.529m0 0l.905.389m0 0l.965.239m0 0l.995.08m0 0h46.421m0 0l2.09-.168m0 0l2.026-.501m0 0l1.901-.819m0 0l1.719-1.111m0 0l1.484-1.369m0 0l1.203-1.586m0 0l.885-1.755m0 0l.544-1.87m0 0l.183-1.93m0 0l-.183-1.929m0 0l-.544-1.87m0 0l-.885-1.755m0 0l-1.203-1.587m0 0l-1.484-1.369m0 0l-1.719-1.111m0 0l-1.901-.818m0 0l-2.026-.501m0 0l-2.09-.169m0 0h-46.421M141.386 313.885a.944.944 0 11-1.889 0 .944.944 0 011.889 0zM174.072 117.268v4.156M173.316 122.18h-40.054M132.506 121.424v-4.156M133.262 116.512h40.054M132.506 117.268V77.09M132.506 77.089h2.646M142.281 77.089h2.267M174.072 78.222v37.156M172.938 116.512h-28.391M143.414 115.378V78.223M144.547 77.089h28.391M134.018 78.222v37.156M135.152 116.512h7.129M143.414 115.378V78.223M142.281 77.089h-7.129M139.308 115.378V78.223M174.072 121.424a.757.757 0 01-.756.756M133.262 122.18a.756.756 0 01-.756-.756M132.506 117.268c0-.417.339-.756.756-.756M173.316 116.512c.417 0 .756.338.756.756M174.072 115.378c0 .626-.508 1.134-1.134 1.134M144.547 116.512a1.134 1.134 0 01-1.133-1.134M143.414 78.222c0-.625.507-1.133 1.133-1.133M172.938 77.089c.626 0 1.134.508 1.134 1.133M135.152 116.512a1.134 1.134 0 01-1.134-1.134M143.414 115.378c0 .626-.508 1.134-1.134 1.134M142.281 77.089c.626 0 1.134.508 1.134 1.133M134.018 78.222c0-.625.508-1.133 1.134-1.133M139.308 115.378c0 .626-.507 1.134-1.134 1.134M138.174 77.089c.627 0 1.134.508 1.134 1.133M189.186 75.956V38.802M188.052 37.669h-12.847M174.072 38.803v37.153M175.205 77.089h12.848M188.052 37.669c.626 0 1.134.507 1.134 1.133M174.072 38.803c0-.626.507-1.133 1.134-1.133M175.205 77.089a1.133 1.133 0 01-1.134-1.134M189.186 75.956c0 .626-.508 1.134-1.134 1.134M174.072 36.911v-4.156M173.316 31.999h-40.054M132.506 32.755v4.156M133.262 37.667h40.054M132.506 36.911v40.178M132.506 77.089h2.646M142.281 77.089h2.267M174.072 75.956V38.8M172.938 37.667h-28.391M143.414 38.801v37.155M144.547 77.089h28.391M134.018 75.956V38.8M135.152 37.667h7.129M143.414 38.801v37.155M142.281 77.089h-7.129M139.308 38.801v37.155M173.316 31.999c.417 0 .756.338.756.756M132.506 32.755c0-.417.339-.756.756-.756M133.262 37.667a.756.756 0 01-.756-.756M174.072 36.911a.757.757 0 01-.756.756M172.938 37.667c.626 0 1.134.507 1.134 1.134M143.414 38.801c0-.626.507-1.134 1.133-1.134M144.547 77.089a1.133 1.133 0 01-1.133-1.134M174.072 75.956c0 .626-.508 1.134-1.134 1.134M134.018 38.801c0-.626.508-1.134 1.134-1.134M142.281 37.667c.626 0 1.134.507 1.134 1.134M143.414 75.956c0 .626-.508 1.134-1.134 1.134M135.152 77.089a1.134 1.134 0 01-1.134-1.134M138.174 37.667c.627 0 1.134.507 1.134 1.134M139.308 75.956c0 .626-.507 1.134-1.134 1.134M154.045 268.73h-22.672m0 0v-22.671m0 0h22.672m0 0v22.671M90.564 274.02H75.45m0 0v30.796m0 0h15.114m0 0V274.02M75.45 273.454v-26.829m0-.001l.166-.4m-.001.001l.4-.166m0 0h13.981m.001 0l.401.166m0 0l.166.4m0-.001v26.829m0 .001l-.166.401m0 0l-.401.165m0 0H76.015m0 0l-.4-.165m0 0l-.166-.401M79.606 272.32v-11.591m0-1.379v-11.591M80.172 247.192h8.691M89.43 247.759v24.561M88.864 272.887h-8.691M79.606 247.759c0-.313.254-.567.566-.567M88.864 247.192c.312 0 .566.253.566.567M89.43 272.32a.567.567 0 01-.566.567M80.172 272.887a.567.567 0 01-.566-.567M83.35 260.039a.757.757 0 11-1.513-.001.757.757 0 011.513.001zM77.716 260.984l1.585-.151m0 0l.36-.124m0 0l2-.25m0 0l.265-.14m0 0l.105-.28m0 0l-.105-.279m0 0l-.265-.14m0 0l-2-.251m0 0l-.36-.123m0 0l-1.585-.151m0 0l-.555.181m0 0l-.343.471m0 0v.584m0 0l.343.473m0 0l.555.18M78.658 259.525h.561M79.219 260.553h-.562M78.658 260.553v-1.028M79.219 259.525a.515.515 0 110 1.028M79.661 259.369a.797.797 0 010 1.34M131.374 300.093v-30.796m0 0l.165-.4m0 0l.401-.167m-.001 0h15.099m0 0l.4.167m0 0l.166.4m0 0v30.796m0 0l-.166.4m0 0l-.4.167m0 0h-15.099m0 0l-.401-.167m.001 0l-.165-.4M135.53 298.959v-28.528M136.096 269.864h9.809M146.471 270.431v28.528M145.905 299.526h-9.809M135.53 270.431c0-.313.254-.567.566-.567M145.905 269.864c.313 0 .566.253.566.567M146.471 298.959a.566.566 0 01-.566.567M136.096 299.526a.566.566 0 01-.566-.567"/><circle class="st2" cx="138.822" cy="284.695" r=".756"/><path class="st2" d="M133.64 285.64l1.585-.151m0 0l.359-.124m0-.001l2-.25m0 0l.265-.14m0 .001l.106-.28m0 0l-.106-.28m0 0l-.265-.139m0 0l-2-.251m0 0l-.359-.123m0-.001l-1.585-.152m0 .001l-.556.181m0 0l-.342.472m0 0v.584m0 0l.342.472m0 0l.556.181M134.582 284.181h.561M135.143 285.209h-.562M134.582 285.209v-1.028M135.143 284.181a.515.515 0 110 1.028M135.584 284.025a.795.795 0 010 1.34M10.457 107.42h1.7m0 0V43.485m0 0h-1.7m0 0v63.935M44.464 107.42V75.453m0 0H20.659m0 0v31.967m0 0h23.805M44.464 75.453V43.486m0 0H20.659m0 0v31.967m0 0h23.805M44.464 43.486v-9.597m0 0H10.457m0 0v9.597m0 0h1.7m8.503 0h23.805M44.464 117.018v-9.598m0 0H20.659m-8.501 0h-1.7m-.001 0v9.598m0 0h34.007M12.158 75.453h8.502m0 0V38.687m0 0h-8.502m0 0v36.766M12.158 75.453h8.502m0 0v36.766m0 0h-8.502m0 0V75.453M245.296 167.288l-19.271.002m0 0l-.534.221m0 0l-.221.535m0 0l.002 17.382m0 0l.221.534m0 0l.534.221m0 0l19.271-.002m0 0l.534-.221m0 0l.222-.534m0 0l-.002-17.382m0 0l-.222-.535m0 0l-.534-.221M246.996 163.509l-22.672.002M246.999 186.181l-22.671.003M246.996 163.509L247 186.18M224.325 163.512l.003 22.672M243.408 169.178l-15.492.001M227.16 169.935v11.714M227.916 182.404l15.492-.001M244.164 181.647v-11.714M243.408 169.178h.108a.108.108 0 10-.216 0 .108.108 0 00.216 0h-.108zM227.16 169.935c0-.417.338-.756.756-.756M227.916 182.404a.756.756 0 01-.756-.755M244.164 181.647a.757.757 0 01-.756.756M243.408 169.178c.417 0 .756.338.756.755M236.002 177.571l-.101-.24m0 0l-.24-.099m0 0l-.24.1m0 0l-.1.241m0 0l.001 7.476m0 0l.1.24m0 0l.24.1m0 0l.241-.1m0 0l.1-.24m0 0l-.001-7.478M236.417 183.122h-.414m0 0v1.927m0 0l-.1.24m0 0l-.241.1m0-.001l-.24-.1m0 .001l-.1-.24m0 0v-1.927m0 0h-.414m0 0v2.456m0 0h1.509m0 0v-2.456M236.407 181.761h-.404m0 0l.001 1.323m0 0h.403m0 0v-1.323M234.918 181.761v1.323m0 0h.404m0 0v-1.323m0 0h-.404M269.669 163.507l-22.673.002M269.671 186.179l-22.672.002M269.669 163.507l.002 22.672M246.996 163.509L247 186.18M303.206 165.581l-21.916.002m-.001 0l.002 18.516m0 .001l21.916-.003m0-.001l-.002-18.515M292.248 176.862v5.299M292.248 182.161h-1.096M292.248 176.862h-1.096M283.394 176.864l.001 5.299M284.491 182.162h-1.096M284.491 176.863h-1.097M301.234 179.728a2.74 2.74 0 11-5.479 0 2.74 2.74 0 015.479 0zM301.19 171.489a3.968 3.968 0 11-7.935-.001 3.968 3.968 0 017.935.001z"/><path class="st2" d="M299.49 171.489a2.267 2.267 0 11-4.534 0 2.267 2.267 0 014.534 0zM290.467 179.544a2.646 2.646 0 11-5.292-.002 2.646 2.646 0 015.292.002zM290.104 170.953a3.4 3.4 0 11-6.803-.001 3.4 3.4 0 016.803.001zM314.826 163.502l-45.157.005M314.828 186.174l-45.157.005M314.826 163.502l.002 22.672M269.669 163.507l.002 22.672M224.325 163.512l-22.672.002m0 0l.003 22.672m-.001 0l22.672-.002m.001 0l-.003-22.672M212.991 178.627l-.001-7.558M215.663 177.52l-5.345-5.343M216.769 174.848l-7.558.001M215.661 172.177l-5.343 5.344M314.826 163.502l22.672-.002m0 0l.002 22.671m0 0l-22.672.003m0 0l-.002-22.672M149.888 257.394a7.179 7.179 0 11-14.358 0 7.179 7.179 0 1114.358 0zM264.902 172.902a3.412 3.412 0 11-6.823 0 3.412 3.412 0 016.823 0z"/><path class="st2" d="M264.38 172.902a2.89 2.89 0 11-5.78.001 2.89 2.89 0 015.78-.001zM257.761 172.071a2.58 2.58 0 11-5.16 0 2.58 2.58 0 015.16 0z"/><path class="st2" d="M256.626 172.071a1.444 1.444 0 11-2.888.002 1.444 1.444 0 012.888-.002zM237.584 51.292h1.02m.001 0v44.369m0 0h-1.02m-.001 0V51.292M238.604 60.753h.832m0 0l.566.152m0 0l.415.415m0 0l.153.567m0 0v22.699m0 0l-.153.566m0 0l-.415.415m0 0l-.566.152m0 0h-.832m0 0V60.753M237.286 51.292h.298m.001 0v44.369m0 0h-.298m-.001 0V51.292M250.588 251.537h68.016m0 0v71.794m0 0h-68.016m0 0v-71.794M252.478 249.648h64.236m0 0l.724.144m0 0l.613.409m0 0l.409.614m0 0l.144.722m0 0h-68.016m0 0l.145-.722m0 0l.409-.614m0 0l.613-.409m0 0l.723-.144M250.588 327.11h68.016m0 0v-3.779m0 0h-68.016m0 0v3.779M318.604 327.11h-68.016m0 0v-1.889m0 0h68.016m0 0v1.889M320.493 327.11h17.004m.001 0v-18.893m0 0h-17.004m-.001 0v18.893M248.7 327.11h-17.004m0 0v-18.893m0 0H248.7m0 0v18.893M290.642 321.442h25.694m0 0l.268-.111m0 0l.11-.267m0 0v-12.469m0 0l-.11-.267m0 0l-.268-.111m0 0h-25.694m0 0l-.267.111m0 0l-.111.267m0 0v12.469m0 0l.111.267m0 0l.267.111M278.551 321.442h-25.695m0 0l-.268-.111m0 0l-.11-.267m0 0v-12.469m0 0l.11-.267m0 0l.268-.111m0 0h25.695m0 0l.267.111m0 0l.11.267m0 0v12.469m0 0l-.11.267m0 0l-.267.111M250.588 309.24h1.89M278.928 309.24h11.336M316.714 309.24h1.89M250.588 304.231h68.016m0 0v-18.686m0 0l-68.016 14.907m0 0v3.779M203.166 327.11h22.672m0 0v-81.051m0 0h-22.672m0 0v81.051M214.502 246.059h-.755m0 0v81.051m0 0h.755m0 0v-81.051M204.782 320.523h18.627m0 0v-.756m0 0h-18.627m0 0v.756M204.782 318.518h18.627m0 0v-.756m0 0h-18.627m0 0v.756M204.782 316.514h18.627m0 0v-.755m0 0h-18.627m0 0v.755M204.782 314.509h18.627m0 0v-.756m0 0h-18.627m0 0v.756M204.917 310.264l18.491 2.241m.001 0l.091-.75m0 0l-18.491-2.241m-.001 0l-.091.75M83.384 172.186v-22.672m0 0H10.457m0 0v22.672m0 0h72.927M10.457 159.921v.756m0 0h72.927m0 0v-.756m0 0H10.457M78.687 169.642v-18.626m0 0h-.756m0 0v18.626m0 0h.756M76.682 169.642v-18.626m0 0h-.756m0 0v18.626m0 0h.756M74.678 169.642v-18.626m0 0h-.756m0 0v18.626m0 0h.756M72.673 169.642v-18.626m0 0h-.756m0 0v18.626m0 0h.756M68.427 169.507l2.241-18.491m0 0l-.75-.091m0 0l-2.241 18.491m0 0l.75.091M80.362 198.07v-22.861m0 0h-54.79m0 0v22.861m0 0h54.79M25.572 186.545v.756m0 0h54.79m0 0v-.756m0 0h-54.79M73.775 196.266V177.64m0 0h-.756m0 0v18.626m0 0h.756M71.77 196.266V177.64m0 0h-.756m0 0v18.626m0 0h.756M69.765 196.266V177.64m0 0h-.755m0 0v18.626m0 0h.755M67.761 196.266V177.64m0 0h-.756m0 0v18.626m0 0h.756M63.515 196.13l2.241-18.491m0 0l-.75-.091m0 0l-2.241 18.491m0 0l.75.091M142.193 263.402l.449-1.233m0 0v-1.312m0 0l-.449-1.234m0 0l.343-1.473m0 0v-1.512m0 0l-.343-1.473m0 0l.45-1.235m0 0v-1.314m0 0l-.45-1.235m0 0l2.987 2.232m0 0v7.558m0 0l-2.987 2.231M145.442 261.171v-7.558m0 0h-.262m0 0v7.558m0 0h.262M145.965 261.171v-7.558m0 0h-.262m0 0v7.558m0 0h.262M140.678 256.551l-.086.891m0 0l.227.021m0 0l.045-.476m0 0l1.142 1.383m0 0l.152-.126m0 0l-.53-.642m0 0l.081-.067m0 0l.612.74m0 0l.146-.121m0 0l-.611-.74m0 0l.097-.08m0 0l.497.601m0 0l.13-.107m0 0l-.497-.602m0 0l.098-.08m0 0l.343.414m0 0l.139-.115m0 0l-1.174-1.422M131.374 268.73v-22.671m0 0h22.672m-.001 0v22.671m0 0h-22.672M265.559 170.695h-.964m0 0v-1.204m0 0l-12.524.001m0 0l.001 1.204m0 0l-.964.001M264.096 180.7l-9.634.001m0 0l-.001-.478m0 0h.723m0 0l.001.237m0 0l8.188-.001m0 0v-.237m0 0h.723m0 0v.478M264.096 180.222l-.047-.104m-.048-.103l-.047-.103m-.047-.103l-.047-.103m-.047-.103l-.047-.103m-.048-.103l-.047-.103m-.047-.103l-.048-.103m-.046-.103l-.047-.104m-.047-.103l-.048-.103m-.047-.103l-.047-.103m-.048-.103l-.046-.103m-.047-.103l-.048-.103m-.047-.104l-.047-.102m-.048-.104l-.047-.103m-.047-.103l-.046-.103m-.047-.103l-.048-.103m-.047-.103l-.048-.103m-.047-.103l-.047-.103M254.461 180.223l.048-.104m.047-.103l.048-.103m.046-.103l.047-.103m.048-.103l.047-.103m.047-.104l.047-.103m.048-.102l.047-.103m.046-.103l.047-.104m.048-.103l.047-.104m.047-.102l.048-.103m.047-.104l.046-.103m.047-.103l.047-.102m.048-.105l.047-.103m.047-.102l.048-.103m.047-.103l.046-.103m.047-.103l.048-.103m.047-.104l.047-.103m.048-.102l.047-.103M264.096 180.222h-.078m-.113 0h-.114m-.113 0h-.113m-.114 0h-.078m0 0l-.042-.052m-.071-.088l-.071-.088m-.072-.088l-.072-.088m-.071-.088l-.071-.088m-.072-.088l-.071-.088m-.072-.088l-.071-.088m-.072-.088l-.071-.088m-.071-.088l-.072-.088m-.071-.088l-.072-.088m-.071-.088l-.072-.088m-.071-.088l-.071-.088m-.073-.088l-.071-.088m-.071-.088l-.071-.088m-.072-.088l-.071-.088m-.071-.088l-.073-.088m-.071-.088l-.071-.088m-.071-.088l-.073-.088m-.071-.088l-.071-.088m-.072-.088l-.071-.088m-.071-.088l-.071-.088m-.073-.088l-.071-.088m-.071-.088l-.072-.088m-.072-.088l-.041-.052M254.461 180.223h.078m.113 0h.115m.113 0h.113m.114 0h.077m0 0l.042-.052m.072-.088l.071-.088m.071-.088l.072-.088m.071-.088l.071-.088m.073-.089l.071-.088m.071-.088l.071-.088m.072-.088l.071-.088m.071-.087l.073-.088m.071-.088l.071-.088m.071-.088l.072-.088m.072-.088l.071-.088m.072-.088l.071-.088m.071-.088l.071-.088m.072-.089l.072-.088m.071-.088l.072-.088m.071-.088l.071-.088m.071-.087l.072-.088m.072-.089l.071-.087m.072-.088l.071-.088m.071-.09l.071-.087m.072-.087l.072-.088m.071-.089l.072-.088m.071-.088l.042-.052M242.464 122.18H227.35m0 0V31.999m0 0h15.114m0 0v90.181M178.793 172.564h22.859m0 0v-9.05m0 0h-22.859m0 0v9.05M332.774 317.664a3.78 3.78 0 11-7.558-.002 3.78 3.78 0 017.558.002z"/><path class="st2" d="M330.129 317.664a1.134 1.134 0 11-2.268-.002 1.134 1.134 0 012.268.002zM243.976 317.664a3.78 3.78 0 11-7.558-.002 3.78 3.78 0 017.558.002z"/><path class="st2" d="M241.331 317.664a1.133 1.133 0 11-2.267 0 1.133 1.133 0 012.267 0zM332.674 316.803l-3.679.86m0 0l-1.584 3.431m0 0l1.584-3.431m0 0l-1.306-3.546M236.518 316.803l3.68.86m0 0l1.584 3.431m0 0l-1.584-3.431m0 0l1.305-3.546M313.521 64.486h3.029m-.001 0v-.859m0 0V46.452m0 0v-.859m0 0h-3.029M319.976 45.593h-3.427m0 0v.859m0 0h3.224m0 0v-.058m0 0l-.196-.293m0 0l.087-.343m0 0l.312-.165M322.335 46.394l-.196-.293m0 0l.087-.343m0 0l.312-.165m0 0h-2.562m0 0l-.312.165m0 0l-.087.343m0 0l.196.293m0 0v17.291m0 0l-.196.293m0 0l.087.343m0 0l.312.165m0 0h2.562m0 0l-.312-.165m0 0l-.087-.343m0 0l.196-.293m0 0V46.394M319.976 64.486l-.312-.165m0 0l-.087-.342m0 0l.196-.294m0 0v-.058m0 0h-3.224m0 0v.859m0 0h3.427M322.741 47.257v15.565m0 0l.227-1.004m0 0V48.261m0 0l-.227-1.004M322.741 46.394l.196-.293m0 0l-.086-.343m0 0l-.313-.165m0 0l-.312.165m0 0l-.087.343m0 0l.196.293m0 0v17.291m0 0l-.196.293m0 0l.087.343m0 0l.312.165m0 0l.313-.165m0 0l.086-.343m0 0l-.196-.293m0 0V46.394M313.521 86.403h3.029m-.001 0v-.859m0-.001V68.369m0 0v-.859m0 0h-3.029M319.976 67.509h-3.427m0 0v.859m0 .001h3.224m0 0v-.058m0 0l-.196-.294m0 0l.087-.342m0-.001l.312-.165M322.335 68.311l-.196-.294m0 0l.087-.342m0 0l.312-.165m0 0h-2.562m0 0l-.312.165m0 0l-.087.342m0 0l.196.294m0 0v17.291m0 0l-.196.293m0 0l.087.343m0 0l.312.165m0 0h2.562m0 0l-.312-.165m0 0l-.087-.343m0 0l.196-.293m0 0V68.311M319.976 86.403l-.312-.165m0 0l-.087-.342m0 0l.196-.294m0 0v-.058m0-.001h-3.224m0 0v.859m0 .001h3.427M322.741 69.173v15.565m0 0l.227-1.004m0 0V70.178m0 0l-.227-1.005M322.741 68.311l.196-.294m0 0l-.086-.342m0 0l-.313-.165m0 0l-.312.165m0 0l-.087.342m0 0l.196.294m0 0v17.291m0 0l-.196.293m0 0l.087.343m0 0l.312.165m0 0l.313-.165m0 0l.086-.343m0 0l-.196-.293m0 0V68.311M279.514 64.486h-3.029m0 0v-.859m0 0V46.452m0 0v-.859m0 0h3.029M273.058 45.593h3.427m0 0v.859m0 0h-3.224m0 0v-.058m0 0l.196-.293m0 0l-.087-.343m0 0l-.312-.165M270.699 46.394l.196-.293m0 0l-.086-.343m0 0l-.313-.165m0 0h2.562m0 0l.312.165m0 0l.087.343m0 0l-.196.293m0 0v17.291m0 0l.196.293m0 0l-.087.343m0 0l-.312.165m0 0h-2.562m0 0l.313-.165m0 0l.086-.343m0 0l-.196-.293m0 0V46.394M273.058 64.486l.312-.165m0 0l.087-.342m0 0l-.196-.294m0 0v-.058m0 0h3.224m0 0v.859m0 0h-3.427M270.293 47.257v15.565m0 0l-.227-1.004m0 0V48.261m0 0l.227-1.004M270.293 46.394l-.196-.293m0 0l.087-.343m0 0l.312-.165m0 0l.313.165m0 0l.086.343m0 0l-.196.293m0 0v17.291m0 0l.196.293m0 0l-.086.343m0 0l-.313.165m0 0l-.312-.165m0 0l-.087-.343m0 0l.196-.293m0 0V46.394M279.514 86.403h-3.029m0 0v-.859m0-.001V68.369m0 0v-.859m0 0h3.029M273.058 67.509h3.427m0 0v.859m0 .001h-3.224m0 0v-.058m0 0l.196-.294m0 0l-.087-.342m0-.001l-.312-.165M270.699 68.311l.196-.294m0 0l-.086-.342m0 0l-.313-.165m0 0h2.562m0 0l.312.165m0 0l.087.342m0 0l-.196.294m0 0v17.291m0 0l.196.293m0 0l-.087.343m0 0l-.312.165m0 0h-2.562m0 0l.313-.165m0 0l.086-.343m0 0l-.196-.293m0 0V68.311M273.058 86.403l.312-.165m0 0l.087-.342m0 0l-.196-.294m0 0v-.058m0-.001h3.224m0 0v.859m0 .001h-3.427M270.293 69.173v15.565m0 0l-.227-1.004m0 0V70.178m0 0l.227-1.005M270.293 68.311l-.196-.294m0 0l.087-.342m0 0l.312-.165m0 0l.313.165m0 0l.086.342m0 0l-.196.294m0 0v17.291m0 0l.196.293m0 0l-.086.343m0 0l-.313.165m0 0l-.312-.165m0 0l-.087-.343m0 0l.196-.293m0 0V68.311M313.521 89.426h3.029m-.001 0v.859m0 0v17.175m0 0v.859m0 0h-3.029M319.976 108.319h-3.427m0 0v-.859m0 0h3.224m0 0v.058m0 0l-.196.294m0 0l.087.342m0 0l.312.165M322.335 107.518l-.196.294m0 0l.087.342m0 0l.312.165m0 0h-2.562m0 0l-.312-.165m0 0l-.087-.342m0 0l.196-.294m0 0V90.227m0 0l-.196-.293m0 0l.087-.343m0 0l.312-.165m0 0h2.562m0 0l-.312.165m0 0l-.087.343m0 0l.196.293m0 0v17.291M319.976 89.426l-.312.165m0 0l-.087.343m0 0l.196.293m0 0v.058m0 0h-3.224m0 0v-.859m0 0h3.427M322.741 106.656V91.091m0 0l.227 1.004m0 0v13.556m0-.001l-.227 1.005M322.741 107.518l.196.294m0 0l-.086.342m0 0l-.313.165m0 0l-.312-.165m0 0l-.087-.342m0 0l.196-.294m0 0V90.227m0 0l-.196-.293m0 0l.087-.343m0 0l.312-.165m0 0l.313.165m0 0l.086.343m0 0l-.196.293m0 0v17.291M279.514 89.426h-3.029m0 0v.859m0 0v17.175m0 0v.859m0 0h3.029M273.058 108.319h3.427m0 0v-.859m0 0h-3.224m0 0v.058m0 0l.196.294m0 0l-.087.342m0 0l-.312.165M270.699 107.518l.196.294m0 0l-.086.342m0 0l-.313.165m0 0h2.562m0 0l.312-.165m0 0l.087-.342m0 0l-.196-.294m0 0V90.227m0 0l.196-.293m0 0l-.087-.343m0 0l-.312-.165m0 0h-2.562m0 0l.313.165m0 0l.086.343m0 0l-.196.293m0 0v17.291M273.058 89.426l.312.165m0 0l.087.343m0 0l-.196.293m0 0v.058m0 0h3.224m0 0v-.859m0 0h-3.427M270.293 106.656V91.091m0 0l-.227 1.004m0 0v13.556m0-.001l.227 1.005M270.293 107.518l-.196.294m0 0l.087.342m0 0l.312.165m0 0l.313-.165m0 0l.086-.342m0 0l-.196-.294m0 0V90.227m0 0l.196-.293m0 0l-.086-.343m0 0l-.313-.165m0 0l-.312.165m0 0l-.087.343m0 0l.196.293m0 0v17.291M279.513 116.632h34.007m0 0V37.281m0 0h-34.007m0 0v79.351"/></g></g><g id="walls_1_"><path d="M55.721 351.696c2.223-5.978 2.872-9.187 3.197-15.557" fill="none" stroke="#000" stroke-miterlimit="3"/><path class="st4" d="M55.677 351.797l.601-1.387-36.356-15.782h-.453v1.511l.002.001h.451v.195z"/><path class="st5" d="M169.726 257.112c-1.604-4.295-2.052-6.514-2.286-11.093"/><path class="st4" d="M169.75 257.177l25.803-11.158-.001-1.512h-.453l-25.95 11.283z"/><path class="st5" d="M123.375 231.935c1.587 4.25 2.041 6.531 2.274 11.06"/><path class="st4" d="M123.339 231.837l-25.804 11.159.001 1.511h.454l25.95-11.282z"/><g><path class="st5" d="M93.313 182.442c-1.818 4.871-2.314 7.373-2.579 12.565"/><path class="st4" d="M93.354 182.349l-.601 1.387 29.419 12.783h.453v-1.512z"/></g><g><path class="st5" d="M238.647 231.925c-4.87 1.818-7.371 2.313-12.563 2.577"/><path class="st4" d="M238.743 231.883l-12.676-29.291-1.493.019v.453l12.781 29.419z"/></g><g><path class="st5" d="M353.991 215.223h-16.248M361.548 215.223h-5.667M355.881 215.223h-1.89M353.991 298.353h-16.248M361.548 298.353h-5.667M355.881 298.353h-1.89M361.548 298.353v-83.13M337.743 298.353v-83.13M353.991 298.353v-3.779M353.991 294.575h1.89M355.881 294.575v3.778M355.881 258.677v1.889M355.881 260.566h-1.89M353.991 260.566v-1.889M354.936 294.575v-34.009M353.991 294.575v-34.009M355.881 260.566v34.009M353.991 258.677v-.943M353.991 257.733h.944M354.936 257.733v-.945M354.936 256.788h.945M355.881 256.788v1.89M355.881 215.223v3.778M355.881 219.001h-.945M354.936 219.001v-.943M354.936 218.057h-.944M353.991 218.057v-2.834M353.046 218.057l-28.055 28.055M355.881 219.001v37.787M353.046 254.899v-34.007M353.046 257.733v-2.834M353.046 254.899h1.89M354.936 254.899v2.834M354.936 257.733h-1.89M354.936 218.057v2.834M354.936 220.891h-1.89M353.046 220.891v-2.834M353.046 218.057h1.89M354.936 220.891v34.007M353.046 254.899v-34.007M353.991 254.899v-34.007M353.046 257.733a39.68 39.68 0 01-28.055-11.621M355.881 298.353h-1.89M355.881 298.353h-1.89M361.548 298.353h-5.667M353.991 298.353h-16.248M355.881 215.223h-1.89M355.881 215.223h-1.89M361.548 215.223h-5.667M353.991 215.223h-16.248"/><g><path class="st5" d="M103.468 8.154v16.248M103.468.598v5.667M103.468 6.265v1.889M37.342 8.154v16.248M37.342.598v5.667M37.342 6.265v1.889M37.342.598h66.126M37.342 24.402h66.126M37.342 8.154h3.778M41.12 8.154V6.265M41.12 6.265h-3.778M75.128 6.265h-1.889M73.239 6.265v1.889M73.239 8.154h1.889M41.12 7.21h32.119M41.12 8.154h32.119M73.239 6.265H41.12M75.128 8.154h.944M76.072 8.154V7.21M76.072 7.21h.945M77.018 7.21v-.945M77.018 6.265h-1.89M103.468 6.265H99.69M99.69 6.265v.945M99.69 7.21h.944M100.634 7.21v.944M100.634 8.154h2.834M99.69 6.265H77.018M78.907 9.099H97.8M76.072 9.099h2.835M78.907 9.099v-1.89M78.907 7.21h-2.835M76.072 7.21V9.1M100.634 7.21H97.8M97.8 7.21V9.1M97.8 9.099h2.834M100.634 9.099v-1.89M97.8 7.21H78.907M78.907 9.099H97.8M78.907 8.154H97.8M37.342 6.265v1.889M37.342 6.265v1.889M37.342.598v5.667M37.342 8.154v16.248M103.468 6.265v1.889M103.468 6.265v1.889M103.468.598v5.667M103.468 8.154v16.248"/><g><path class="st5" d="M214.937 8.154v16.248M214.937.598v5.667M214.937 6.265v1.889M148.811 8.154v16.248M148.811.598v5.667M148.811 6.265v1.889M148.811.598h66.126M148.811 24.402h66.126M148.811 8.154h3.778M152.59 8.154V6.265M152.59 6.265h-3.778M186.598 6.265h-1.89M184.708 6.265v1.889M184.708 8.154h1.89M152.59 7.21h32.118M152.59 8.154h32.118M184.708 6.265H152.59M186.598 8.154h.944M187.542 8.154V7.21M187.542 7.21h.945M188.487 7.21v-.945M188.487 6.265h-1.89M214.937 6.265h-3.778M211.159 6.265v.945M211.159 7.21h.944M212.104 7.21v.944M212.104 8.154h2.833M211.159 6.265h-22.672M190.377 9.099h18.893M187.542 9.099h2.835M190.377 9.099v-1.89M190.377 7.21h-2.835M187.542 7.21V9.1M212.104 7.21h-2.834M209.27 7.21V9.1M209.27 9.099h2.834M212.104 9.099v-1.89M209.27 7.21h-18.893M190.377 9.099h18.893M190.377 8.154h18.893M148.811 6.265v1.889M148.811 6.265v1.889M148.811.598v5.667M148.811 8.154v16.248M214.937 6.265v1.889M214.937 6.265v1.889M214.937.598v5.667M214.937 8.154v16.248"/></g><g><path class="st5" d="M361.548 202.958h45.344m0 0V308.76m0 0h-45.344m0 0V202.958M406.136 308.005h-44.588m0 0V203.713m0 0h44.588m0 0v104.291"/></g><g><path class="st5" d="M353.992 155.612h-16.247M361.55 155.612h-5.668M355.882 155.612h-1.89M361.55 155.612V.5M337.744 155.612V24.305M353.992 155.612v-4.723M353.992 150.889h1.891M355.882 150.889v4.723M355.882 8.057v4.723M355.882 12.78h-1.89M353.992 12.78V8.057M355.882 6.168v1.889M353.992 150.889V12.78M355.882 12.78v138.109M355.882 155.612h-1.89M355.882 155.612h-1.89M361.55 155.612h-5.668M353.992 155.612h-16.247M260.283 8.057v16.249M260.283.5v5.668M260.283 6.168v1.889M260.283.5H361.55M260.283 24.306h77.462M260.283 8.057h4.723M265.006 8.057V6.168M265.006 6.168h-4.724M353.992 6.168h-4.723M349.27 6.168v1.889M349.27 8.057h4.723M355.882 6.168h-1.89M265.006 8.057h84.264M349.27 6.168h-84.264M260.283 6.168v1.889M260.283 6.168v1.889M260.283.5v5.668M260.283 8.057v16.249"/><g><path class="st6" d="M354.009 45.742h1.89v5.133h-1.89zM354.009 88.249h1.89v5.133h-1.89z"/></g></g></g></g><path class="st0" d="M201.901 186.147l45.972-.004v12.847l-21.788.002-.001 3.62h-1.51v.453h-1.512l.001-4.072-44.022.004-.001-12.849v-13.622h22.862v13.621h-.001zm-19.839.003l16.816-.002v-10.6h-16.816v10.602zM80.607 172.148h3.023v22.86h7.104v1.512h.453v1.511H80.608v-22.86H25.817v22.86H10.702v-3.023h12.092v-19.837H10.702v-3.023h69.905zm51.011 73.872v81.044c22.924-.001 45.849 0 68.773.001V246.02h-4.839v-1.512h-.453v-1.511h27.962v-8.947h1.512v.454h1.51l.001 11.516h-22.672v81.044l44.46.003v9.073H82.876v-9.073l30.605-.003V307.8H75.695v19.271h-3.023v-84.074l24.863.001v1.511h.454v1.512H75.694v58.758h52.9l.001-58.758h-3.401v-1.512h.453v-1.511l42.244-.001v1.511h-.452v1.512h-35.821zm-3.022 81.044l-.001-19.264h-12.092v19.264h12.093zm1.134-302.661h3.022v173.628h-10.58v-1.511h.453v-1.512h7.106V24.403z"/><path d="M.5.598h36.842v23.805h-26.64v302.668h9.22v9.069H.5V.598h0zM82.874 336.14h.002v-9.073l-24.413.004v7.558h.454v1.511h23.957zm164.998-9.073v9.073h113.676v-37.786h-23.805v28.717l-89.871-.004h0zm89.871-128.086l-89.87.009v-12.847l89.87-.01v-30.422h23.805v59.513h-23.805v-16.243h0zM260.281 24.403h-45.344V.598h45.344v23.805h0zM103.468.598h45.344v23.805h-45.344V.598z" fill-rule="evenodd" clip-rule="evenodd" stroke="#000" stroke-miterlimit="3"/><g><path class="st8" d="M132.667 25.764l-3.02 2.66M132.667 32.304l-3.02 2.66M132.667 38.834l-3.02 2.66M132.667 45.374l-3.02 2.66M132.667 51.914l-3.02 2.66M132.667 58.454l-3.02 2.66M132.667 64.994l-3.02 2.66M11.317 171.894l-.7.62M132.667 71.534l-3.02 2.66M18.737 171.894l-3.43 3.02M132.667 78.064l-3.02 2.66M26.157 171.894l-3.44 3.02M132.667 84.614l-3.02 2.66M25.737 178.804l-3.02 2.66M33.587 171.894l-3.43 3.02M132.667 91.144l-3.02 2.66M25.737 185.344l-3.02 2.66M15.057 194.754l-3.43 3.02M41.007 171.894l-3.43 3.02M132.667 97.684l-3.02 2.66M25.737 191.884l-3.02 2.66M22.477 194.754l-3.43 3.02M48.427 171.894l-3.43 3.02M132.667 104.224l-3.02 2.66M55.847 171.894l-3.43 3.02M63.267 171.894l-3.43 3.02M132.667 110.754l-3.02 2.66M70.697 171.894l-3.43 3.02M132.667 117.304l-3.02 2.66M78.117 171.894l-3.43 3.02M132.667 123.834l-3.02 2.66M83.547 173.644l-3.02 2.66M132.667 130.374l-3.02 2.66M83.547 180.184l-3.02 2.66M132.667 136.914l-3.02 2.66M83.547 186.724l-3.02 2.66M132.667 143.454l-3.02 2.66M83.547 193.264l-3.02 2.66M132.667 149.994l-3.02 2.66M89.277 194.754l-3.43 3.02M132.667 156.524l-3.02 2.66M132.667 163.064l-3.02 2.66M132.667 169.614l-3.02 2.66M132.667 176.144l-3.02 2.66M132.667 182.684l-3.02 2.66M126.377 194.754l-3.42 3.02M132.667 189.214l-3.02 2.66M132.667 195.754l-2.29 2.02M79.337 242.734l-3.44 3.03M75.617 246.014l-3.03 2.67M75.617 252.554l-3.03 2.67M86.757 242.734l-3.44 3.03M94.187 242.734l-3.44 3.03M75.617 259.094l-3.03 2.67M181.597 172.264l-2.64 2.32M75.617 265.624l-3.03 2.67M75.617 272.164l-3.03 2.67M189.017 172.264l-3.43 3.02M181.977 178.464l-3.02 2.66M75.617 278.704l-3.03 2.67M196.447 172.264l-3.43 3.02M181.977 185.004l-3.02 2.66M75.617 285.244l-3.03 2.67M201.817 174.074l-3.02 2.66M188.397 185.894l-9.44 8.31M75.617 291.784l-3.03 2.67M131.297 242.734l-3.44 3.03M201.817 180.604l-3.02 2.66M195.817 185.894l-14.58 12.84M75.617 298.324l-3.03 2.67M138.717 242.734l-3.44 3.03M203.257 185.884l-14.59 12.85M131.537 249.064l-3.02 2.66M75.987 304.524l-3.4 3M146.137 242.734l-3.44 3.03M210.667 185.884l-14.59 12.85M131.537 255.594l-3.02 2.66M75.617 311.394l-3.03 2.67M131.537 262.134l-3.02 2.66M218.087 185.884l-14.58 12.85M153.557 242.734l-3.44 3.03M83.417 304.524l-3.43 3.02M75.617 317.934l-3.03 2.67M131.537 268.674l-3.02 2.66M225.517 185.884l-14.59 12.85M160.977 242.734l-3.44 3.03M90.837 304.524l-3.43 3.02M75.617 324.474l-2.66 2.34M131.537 275.214l-3.02 2.66M167.807 243.264l-2.84 2.5M232.937 185.884l-14.58 12.85M98.267 304.524l-3.43 3.02M105.687 304.524l-3.43 3.02M240.357 185.884l-17.38 15.31M131.537 281.754l-3.02 2.66M87.817 326.804l-5.02 4.42M113.107 304.524l-3.43 3.02M247.787 185.884l-14.59 12.85M131.537 288.294l-3.02 2.66M247.787 192.424l-7.16 6.31M120.527 304.524l-3.42 3.02M95.237 326.804l-10.3 9.08M116.417 308.144l-3.02 2.67M131.537 294.834l-3.02 2.66M198.087 242.734l-2.62 2.31M127.947 304.524l-3.43 3.02M102.657 326.804l-10.31 9.08M116.417 314.684l-3.02 2.66M131.537 301.364l-3.02 2.66M116.417 321.224l-3.02 2.66M110.077 326.804l-10.3 9.08M205.517 242.734l-5.21 4.59M131.537 307.904l-3.02 2.66M223.087 233.794l-.11.1M117.507 326.804l-10.31 9.08M203.327 251.204l-3.02 2.66M212.937 242.734l-3.44 3.03M131.537 314.444l-3.02 2.66M124.927 326.804l-10.31 9.08M203.327 257.744l-3.02 2.66M225.997 237.764l-3.02 2.67M220.357 242.734l-3.44 3.03M131.537 320.984l-3.02 2.66M226.007 244.304l-1.66 1.46M203.327 264.274l-3.02 2.66M132.347 326.804l-10.31 9.08M203.327 270.814l-3.02 2.66M139.777 326.804l-10.31 9.08M147.187 326.804l-10.31 9.08M203.327 277.354l-3.02 2.66M154.617 326.804l-10.31 9.08M203.327 283.894l-3.02 2.66M162.037 326.804l-10.31 9.08M203.327 290.434l-3.02 2.66M169.457 326.804l-10.3 9.08M203.327 296.974l-3.02 2.66M176.887 326.804l-10.31 9.08M203.327 303.504l-3.02 2.66M184.307 326.804l-10.31 9.08M203.327 310.044l-3.02 2.66M191.717 326.804l-10.3 9.08M203.327 316.584l-3.02 2.66M199.147 326.804l-10.31 9.08M203.327 323.124l-3.02 2.66M206.567 326.804l-10.31 9.08M213.997 326.804l-10.31 9.08M221.417 326.804l-10.31 9.08M228.837 326.804l-10.31 9.08M236.267 326.804l-10.31 9.08M243.677 326.804l-10.31 9.08M247.787 329.724l-6.99 6.16"/></g><path class="st6" d="M201.901 186.147l45.972-.004v12.847l-21.788.002-.001 3.62h-1.51v.453h-1.512l.001-4.072-44.022.004-.001-12.849v-13.622h22.862v13.621h-.001zm-19.839.003v-10.602h16.816v10.6l-16.816.002zM80.607 172.148h3.023v22.86h7.104v1.512h.453v1.511H80.608v-22.86H25.817v22.86H10.702v-3.023h12.092v-19.837H10.702v-3.023h69.905zm51.011 73.872v81.044c22.924-.001 45.849 0 68.773.001V246.02h-4.839v-1.512h-.453v-1.511h27.962v-8.947h1.512v.454h1.51l.001 11.516h-22.672v81.044l44.46.003v9.073H82.876v-9.073l30.605-.003V307.8H75.695v19.271h-3.023v-84.074l24.863.001v1.511h.454v1.512H75.694v58.758h52.9l.001-58.758h-3.401v-1.512h.453v-1.511l42.244-.001v1.511h-.452v1.512h-35.821zm-3.022 81.044l-.001-19.264h-12.092v19.264h12.093zm1.134-302.661h3.022v173.628h-10.58v-1.511h.453v-1.512h7.106V24.403z"/></g><g id="sizes"><g id="sizes_9_"><path d="M19.035 143.159h-1.594v-9.625l-1.617.992v-1.648l1.617-1.078h1.594v11.359zM21.441 141.776l3.961-5.281c.229-.302.407-.616.535-.941.128-.325.191-.629.191-.91v-.016c0-.453-.133-.805-.398-1.055s-.644-.375-1.133-.375c-.464 0-.839.137-1.125.41s-.461.66-.523 1.16v.008h-1.648v-.008c.094-.651.285-1.207.574-1.668s.663-.813 1.121-1.055.987-.363 1.586-.363c.677 0 1.255.116 1.734.348.479.232.844.569 1.094 1.012.25.443.375.977.375 1.602v.008c0 .401-.083.82-.25 1.258s-.398.859-.695 1.266l-3.289 4.469h4.297v1.516h-6.406v-1.385zM29.723 141.565h1.594v1.594l-1.594 1.578v-3.172zM37.527 137.518l-.008.281c-.13.24-.327.416-.59.527a2.372 2.372 0 01-.934.168c-.542 0-1.019-.138-1.43-.414-.411-.276-.73-.665-.957-1.168-.227-.502-.34-1.084-.34-1.746v-.008c0-.734.124-1.362.371-1.883a2.615 2.615 0 011.086-1.188c.477-.271 1.048-.406 1.715-.406s1.237.138 1.711.414a2.66 2.66 0 011.082 1.203c.247.526.371 1.159.371 1.898v.008c0 .406-.052.84-.156 1.301s-.253.918-.445 1.371l-.094.207c-.031.07-.065.14-.102.207l-2.422 4.867h-1.719l2.861-5.639zm.075-.984c.273-.338.41-.815.41-1.43v-.008c0-.599-.137-1.063-.41-1.391s-.66-.492-1.16-.492c-.505 0-.895.164-1.168.492s-.41.794-.41 1.398v.008c0 .615.137 1.09.41 1.426s.663.504 1.168.504c.499.001.886-.168 1.16-.507zM312.163 214.069h-1.594v-9.625l-1.617.992v-1.648l1.617-1.078h1.594v11.359zM314.569 212.687l3.961-5.281c.229-.302.407-.615.535-.941.128-.325.191-.629.191-.91v-.016c0-.453-.133-.805-.398-1.055s-.644-.375-1.133-.375c-.464 0-.839.137-1.125.41s-.461.66-.523 1.16v.008h-1.648v-.008c.094-.65.285-1.207.574-1.668s.663-.813 1.121-1.055.987-.363 1.586-.363c.677 0 1.255.116 1.734.348.479.232.844.569 1.094 1.012.25.443.375.977.375 1.602v.008c0 .401-.083.82-.25 1.258s-.398.859-.695 1.266l-3.289 4.469h4.297v1.516h-6.406v-1.385zM322.851 212.476h1.594v1.594l-1.594 1.578v-3.172zM329.374 214.069h-1.594v-9.625l-1.618.992v-1.648l1.618-1.078h1.594v11.359z"/><g><path d="M206.732 44.782h-1.594v-9.625l-1.617.992v-1.648l1.617-1.078h1.594v11.359zM215.178 34.845l-2.938 9.938h-1.695l2.938-9.844h-2.891v1.633h-1.594v-3.148h6.18v1.421zM217.209 43.189h1.594v1.594l-1.594 1.578v-3.172zM225.014 39.142l-.008.281c-.13.24-.327.416-.59.527a2.372 2.372 0 01-.934.168c-.542 0-1.019-.138-1.43-.414-.411-.276-.73-.665-.957-1.168-.227-.502-.34-1.084-.34-1.746v-.008c0-.734.124-1.362.371-1.883a2.615 2.615 0 011.086-1.188c.477-.271 1.048-.406 1.715-.406s1.237.138 1.711.414a2.66 2.66 0 011.082 1.203c.247.526.371 1.159.371 1.898v.008c0 .406-.052.84-.156 1.301s-.253.918-.445 1.371l-.094.207c-.031.07-.065.14-.102.207l-2.422 4.867h-1.719l2.861-5.639zm.074-.985c.273-.338.41-.815.41-1.43v-.007c0-.599-.137-1.063-.41-1.391s-.66-.492-1.16-.492c-.505 0-.895.164-1.168.492s-.41.794-.41 1.398v.008c0 .615.137 1.09.41 1.426s.663.504 1.168.504c.5 0 .886-.169 1.16-.508z"/></g><g><path d="M16.691 214.125h-1.594V204.5l-1.617.992v-1.648l1.617-1.078h1.594v11.359zM22.012 214.125h-1.594V204.5l-1.617.992v-1.648l1.617-1.078h1.594v11.359zM24.434 212.531h1.594v1.594l-1.594 1.578v-3.172zM30.957 214.125h-1.594V204.5l-1.617.992v-1.648l1.617-1.078h1.594v11.359z"/></g><g><path d="M94.743 259.519l3.961-5.281c.229-.302.407-.615.535-.941.128-.325.191-.629.191-.91v-.016c0-.453-.133-.805-.398-1.055s-.644-.375-1.133-.375c-.464 0-.839.137-1.125.41s-.461.66-.523 1.16v.008h-1.648v-.008c.094-.65.285-1.207.574-1.668s.663-.813 1.121-1.055.987-.363 1.586-.363c.677 0 1.255.116 1.734.348.479.232.844.569 1.094 1.012.25.443.375.977.375 1.602v.008c0 .401-.083.82-.25 1.258s-.398.859-.695 1.266l-3.289 4.469h4.297v1.516h-6.406v-1.385zM103.024 259.308h1.594v1.594l-1.594 1.578v-3.172zM107.63 260.167c-.55-.567-.824-1.359-.824-2.375v-5.164c0-1.021.276-1.813.828-2.379.552-.564 1.356-.848 2.414-.848 1.063 0 1.868.281 2.418.844s.824 1.357.824 2.383v5.164c0 1.021-.276 1.814-.828 2.379-.552.565-1.356.848-2.414.848-1.063 0-1.868-.283-2.418-.852zm3.664-1.105c.269-.294.402-.717.402-1.27v-5.164c0-.552-.133-.975-.398-1.27-.266-.294-.683-.441-1.25-.441s-.984.147-1.25.441c-.266.295-.398.718-.398 1.27v5.164c0 .553.134.976.402 1.27.269.295.684.441 1.246.441s.977-.146 1.246-.441z"/></g><g><path d="M181.497 296.693l-.727-.348c-.485-.232-.874-.567-1.168-1.008s-.48-.97-.559-1.59h1.625c.047.323.148.589.305.797s.358.363.605.465.538.152.871.152c.526 0 .935-.141 1.227-.422s.438-.677.438-1.188v-.344c0-.567-.138-1.007-.414-1.316s-.667-.465-1.172-.465h-.805v-1.516h.805c.442 0 .786-.133 1.031-.398s.367-.641.367-1.125v-.352c0-.448-.129-.794-.387-1.039s-.624-.367-1.098-.367c-.271 0-.513.051-.727.152s-.395.258-.543.469-.257.476-.324.793h-1.617c.104-.62.301-1.151.59-1.594s.655-.778 1.098-1.008.95-.344 1.523-.344c.979 0 1.737.258 2.273.773s.805 1.242.805 2.18v.188c0 .567-.153 1.063-.461 1.484s-.742.729-1.305.922c.62.136 1.101.44 1.441.914s.512 1.078.512 1.813v.188c0 .661-.128 1.227-.383 1.695s-.626.825-1.113 1.07-1.074.367-1.762.367l-.951.002zM187.817 294.982h1.594v1.594l-1.594 1.578v-3.172zM192.817 296.29c-.474-.269-.835-.659-1.082-1.172s-.371-1.132-.371-1.855v-.008c0-.422.05-.864.148-1.328a7.568 7.568 0 01.641-1.82l2.469-4.891h1.719l-2.898 5.664.008-.281c.13-.245.32-.435.57-.57s.542-.203.875-.203c.589 0 1.094.133 1.516.398s.742.652.961 1.16.328 1.118.328 1.832v.008c0 .729-.124 1.354-.371 1.875s-.609.917-1.086 1.188-1.048.406-1.715.406-1.238-.134-1.712-.403zm2.879-1.597c.273-.313.41-.758.41-1.336v-.008c0-.636-.144-1.126-.43-1.473s-.695-.52-1.227-.52c-.474 0-.841.175-1.102.523s-.391.841-.391 1.477v.008c0 .578.137 1.022.41 1.332s.66.465 1.16.465c.507 0 .897-.156 1.17-.468z"/></g><g><path d="M184.425 157.806a2.61 2.61 0 01-1.082-1.172c-.247-.513-.371-1.131-.371-1.855v-.008c0-.422.05-.864.148-1.328a7.673 7.673 0 01.532-1.597l.109-.223 2.469-4.891h1.719l-2.898 5.664.008-.281c.13-.245.32-.435.57-.57.25-.135.542-.203.875-.203.589 0 1.094.133 1.516.398s.742.652.961 1.16.328 1.119.328 1.832v.008c0 .729-.124 1.354-.371 1.875a2.615 2.615 0 01-1.086 1.188c-.477.271-1.048.406-1.715.406s-1.239-.134-1.712-.403zm2.879-1.597c.273-.313.41-.758.41-1.336v-.008c0-.635-.144-1.126-.43-1.473-.286-.346-.695-.52-1.227-.52-.474 0-.841.175-1.102.523-.261.349-.391.841-.391 1.477v.008c0 .578.137 1.022.41 1.332.273.31.66.465 1.16.465.507 0 .896-.156 1.17-.468zM191.261 156.498h1.594v1.594l-1.594 1.578v-3.172zM195.866 157.357c-.55-.567-.824-1.359-.824-2.375v-5.164c0-1.021.276-1.813.828-2.379.552-.565 1.356-.848 2.414-.848 1.063 0 1.868.281 2.418.844s.824 1.357.824 2.383v5.164c0 1.021-.276 1.814-.828 2.379-.552.565-1.356.848-2.414.848-1.062 0-1.868-.284-2.418-.852zm3.664-1.105c.269-.294.402-.717.402-1.27v-5.164c0-.552-.133-.975-.398-1.27-.266-.294-.683-.441-1.25-.441s-.984.147-1.25.441c-.266.294-.398.718-.398 1.27v5.164c0 .552.134.976.402 1.27.269.294.684.441 1.246.441s.978-.147 1.246-.441z"/></g><g><path d="M385.016 222.101l-.727-.348c-.485-.232-.874-.567-1.168-1.008s-.48-.97-.559-1.59h1.625c.047.323.148.589.305.797s.358.363.605.465.538.152.871.152c.526 0 .935-.141 1.227-.422s.438-.677.438-1.188v-.344c0-.567-.138-1.007-.414-1.316s-.667-.465-1.172-.465h-.805v-1.516h.805c.442 0 .786-.133 1.031-.398s.367-.641.367-1.125v-.352c0-.448-.129-.794-.387-1.039s-.624-.367-1.098-.367c-.271 0-.513.051-.727.152s-.395.258-.543.469-.257.476-.324.793h-1.617c.104-.62.301-1.151.59-1.594s.655-.778 1.098-1.008.95-.344 1.523-.344c.979 0 1.737.258 2.273.773s.805 1.242.805 2.18v.188c0 .567-.153 1.063-.461 1.484s-.742.729-1.305.922c.62.136 1.101.44 1.441.914s.512 1.078.512 1.813v.188c0 .661-.128 1.227-.383 1.695s-.626.825-1.113 1.07-1.074.367-1.762.367l-.951.002zM391.336 220.39h1.594v1.594l-1.594 1.578v-3.172zM400.985 212.046l-2.938 9.938h-1.695l2.938-9.844h-2.891v1.633h-1.594v-3.148h6.18v1.421z"/></g></g></g></svg>