<svg xmlns="http://www.w3.org/2000/svg" viewBox="0 0 350.778 310.281"><style>.st0,.st1{fill-rule:evenodd;clip-rule:evenodd}.st0{fill:#fff}.st1{stroke-width:.4}.st1,.st2{fill:none;stroke:#999;stroke-linecap:round;stroke-linejoin:round;stroke-miterlimit:3}.st2,.st4,.st5,.st7{fill-rule:evenodd;clip-rule:evenodd}.st5,.st7{fill:none}.st5{stroke-linecap:round;stroke-linejoin:round;stroke:#000;stroke-miterlimit:3}.st7{stroke:#666;stroke-width:.6;stroke-miterlimit:22.9256}</style><g id="_x32_56"><path class="st0" d="M45.936.5v169.325H.915v105.166h45.021v34.79h288.479V.5z" id="fon_1_"/><g id="mebel"><g id="mebel_2_"><path class="st1" d="M291.491 298.823l2.987-2.987m-9.934 2.987l9.934-9.934m14.627-14.627l2.376-2.376m-33.884 26.937l16.881-16.881m7.68-7.68l9.323-9.323m-40.831 33.884l23.828-23.828m.733-.733l11.135-11.135m-42.644 35.696l34.974-34.974m12.004-12.003l.802-.802m-54.725 47.779l36.432-36.433m11.207-11.207l7.085-7.085m-57.624 50.677l36.588-36.588m7.51-7.51l13.527-13.527m-57.625 50.679l51.73-51.732M253.857 280.882l44.784-44.785M253.857 273.935l37.836-37.837m-37.836 30.89l30.89-30.89m-30.89 23.942l23.943-23.943m-23.943 16.996l16.996-16.996m-16.996 10.049l10.049-10.049m-10.049 3.102l3.102-3.102M311.482 242.919l-6.821-6.822m6.821 13.769l-13.768-13.769m8.309 15.258l-15.256-15.257m20.715 27.662l-1.063-1.063m-12.042-12.042l-14.557-14.558m27.662 34.609l-7.346-7.346m-11.109-11.108l-16.155-16.155m31.218 38.165l-10.464-10.464m-7.215-7.216l-20.485-20.485m31.217 38.165l-38.164-38.165m31.582 38.531l-38.529-38.53m55.45 62.396l-.07-.07m-16.934-16.933l-40.621-40.621M294.478 288.438l-40.621-40.621m40.621 47.567l-40.621-40.622m37.112 44.061l-37.112-37.113m30.166 37.113l-30.166-30.166m23.219 30.166l-23.219-23.219m16.272 23.219l-16.272-16.272m9.324 16.272l-9.324-9.325m2.378 9.325l-2.378-2.378m-25.41 2.378M244.789 126.706h71.038m-71.038-11.335h54.019m13.976 0h3.043m-71.038-11.336h54.017m13.983 0h3.038m-71.038-11.336h71.038m-71.038-11.336h64.992m-64.992-11.336h64.992m-64.992-11.336h64.992m-64.992-11.336h64.992m-.756 81.241v-12.828m0-12.13V37.909m-22.672 90.687V37.909m-22.671 90.687V37.909"/><path class="st2" d="M296.49 250.856l-1.645.469m0 0l-1.552.718m0 0l-1.23.968m0 0l-.943 1.248m0 0l-.593 1.448m0 0l-.206 1.551m0 0l.206 1.551m0 0l.593 1.448m0 0l.943 1.248m0 0l1.23.968m0 0l1.552.718m0 0l1.645.469m0 0l1.698.207m0 0l1.709-.059m0 0l11.585-1.223m0 0v-10.654m0 0l-11.585-1.223m0 0l-1.709-.06m0 0l-1.698.208M305.76 261.375v-4.117M305.76 257.258v-4.116M291.494 260.322a5.743 5.743 0 01-.887-3.063M298.323 263.57c-2.591.165-5.107-1.031-6.83-3.249M305.76 261.375c-2.252 1.505-4.828 2.266-7.437 2.195M298.323 250.947c2.609-.07 5.185.689 7.437 2.195M291.494 254.195c1.723-2.217 4.238-3.413 6.83-3.248M290.607 257.258a5.743 5.743 0 01.887-3.063M311.482 261.906v-9.295m0 0h-.189m0 0v9.295m0 0h.189M311.482 247.812v18.893M316.016 247.812v18.893M311.482 247.812h4.534M311.482 266.705h4.534M224.384 264.816h29.474M253.858 264.816v34.007M253.858 298.823h-29.474M231.942 271.428a.945.945 0 11-1.89 0 .945.945 0 011.89 0zM237.367 287.033l.372-1.396m0 0l.793-1.209m.001 0l1.132-.898m-.001 0l1.358-.496m0 0l1.445-.043m.001 0l1.385.413m0 0l1.185.829m-.001 0l.863 1.159m.001 0l.455 1.372m0 0v1.446m0 0l-.455 1.372m0 0l-.863 1.159m-.001 0l-1.185.828m.001 0l-1.385.414m0 0l-1.445-.044m-.001.001l-1.358-.495m0-.001l-1.132-.898m.001 0l-.793-1.209m-.001 0l-.372-1.397m0 0h-5.538m0 0l.108.456m.001.001l.037.489m0-.001l-.037.489m0 .001l-.108.456m-.001-.001l-.172.391m0 0l-.225.3m.001 0l-.261.189m0 0l-.28.064m-.001.001h-.403m0 0l-.12-.019m0-.001l-.277-.064m.001 0l-.104-.054m-.001 0l-.251-.181m.001.001l-.07-.078m0 0l-.205-.275m-.001-.001l-.157-.356m.001 0l-.052-.196m-.001 0l-.059-.249m.001 0l-.688-.02m0 0l-.796-.01m0 0v1.729m0 0h-.435m-.001 0v2.872m0 0l-.058.159m.001 0l-.149.083m0 0l-.167-.032m0 0l-.105-.134m-.001 0l-.157-.485m.001 0l-.315-.727m0 0l-.574-1.008m-.001 0l-.258-.728m.001 0h-.125m0 0v.604m0 0h-.982m0 0v-2.569m0 0h.877m0 0l.01-.024m-.001.001l.028-.039m.001-.001l.034-.032m0 0l.041-.025m-.001 0l.672-.279m0 .001v-.697m0-.001h-1.36m0 0V289m0 0h-.302m.001 0v-3.024m0-.001h.302m-.001 0v1.058m0 0h1.36m0 0v-1.436m0 0h.152m.001 0v-.416m0 0h-.303m-.001 0v.152m0 0h-.529m.001 0v.604m0 .001h-.982m0 0v-2.569m0-.001h.982m0 0v.604m0 .001h.529m-.001 0v.152m0-.001h.303m.001 0v-.152m0 .001h1.511m0 0v2.571m0-.001h2.154m0 0v.022m0 0v.06m0 0v.093m0 0v.124m0 0v.149m0 0v.042m0 0h7.504M226.047 289.376v-.209m0 0l-.341.14m0 0l-.053.326m0 0l.002.008m0 0h.241m0 0v.151m0 0h.302m0 0v-.416m0 0h-.151M226.198 290.85h-.241m0 0l.24.677m0 0l.563.988m0 0l.023.053m0 0v-1.567m0 0h-.585m0 0v-.151M225.367 284.993h.528M225.367 284.314h.528M225.367 290.651v.351M225.896 289.792v.189M225.896 289.982v.68M225.896 290.661v.014M225.719 289.982h.176M225.89 290.661h.005M226.198 290.85v-1.058M227.709 288.498v-.558M226.783 291.001h.491M228.276 288.432v-.491M227.263 293.797l.012.076M225.159 289.648l.002-.047M225.191 289.818l-.032-.17M225.243 289.103l.01-.047M225.253 289.056l.009-.02M225.491 291.001l-.161-.453M225.33 290.548l-.139-.73M225.664 289.693l-.011-.06M227.263 293.797l-.167-.512M227.096 293.285l-.313-.718M225.347 290.591v-.001M225.161 289.601l.082-.498M229.764 287.943l-.001-.002M229.234 287.941l-.001.002M226.594 289.376h-.127M226.349 289.376h-.103M226.467 289.376h-.118M226.047 289.167v-.523M225.804 290.414l-.14-.722M225.957 290.85l-.154-.436M226.636 288.787l.044-.091M226.621 288.885l.015-.098M226.636 288.984l-.016-.099M226.68 289.074l-.044-.091M226.68 289.074h.108a.108.108 0 00-.108-.108c-.06 0-.108.048-.108.108s.048.108.108.108.108-.048.108-.108h-.108zM229.177 289.23l-.026-.345M229.151 288.885l.026-.345M229.194 289.302l-.017-.072M229.253 288.219l.052-.195M229.177 288.54l.075-.321M226.848 289.254l.062.009M229.305 288.023l.036-.082M229.194 288.469l-.688.02M226.91 288.507l-.062.01M226.848 288.517l-.059.026M226.789 288.543l-.049.042M226.74 288.585l-.039.055M226.702 288.64l-.021.056M226.681 288.696l-.002.007M226.678 288.703l-.008.068M226.67 288.772V289M226.67 288.999l.008.068M226.678 289.068l.002.007M226.681 289.074l.021.058M226.702 289.131l.038.055M226.74 289.186l.049.042M226.789 289.228l.058.026M228.505 288.488l-1.596.02M227.709 289.273l-.8-.01M227.407 289.376v-.107M227.407 288.501v-.561M237.367 287.033h5.344M237.367 287.941h5.344M242.711 287.033v.907M225.367 283.973v1.36M225.896 284.124v1.058M226.198 284.124v1.058M226.198 285.598h1.209M227.407 289.376h-1.209M224.686 287.033v.907M226.047 287.033h3.816M231.829 287.941h-5.783M227.407 285.598v1.436M227.709 286.543v.49M228.276 286.543v.49M227.709 288.432h1.493M240.045 287.033a1.888 1.888 0 113.668.907 1.89 1.89 0 01-3.668 0M226.735 285.598a.34.34 0 01.125-.464.339.339 0 01.464.464M309.781 37.909h-64.993m0 0v-26.45m0-.001h64.993m0 0v26.45M302.198 13.575l.941.081m0-.001l.912.238m0 0l.855.389m.001 0l.773.529m0 0l.668.653m0 0l.541.755m0 0l.399.835m0 0l.245.892m0 0l.083.918m-.001.001v11.638m0-.001l-.083.919m.001 0l-.245.89m0 .001l-.399.836m0-.001l-.541.756m0 0l-.668.651m0 0l-.773.53m0 0l-.855.389m-.001 0l-.912.239m0 .001l-.941.08m0-.001h-43.87m.001 0l-1.975-.169m-.001.001l-1.915-.501m.001-.001l-1.797-.818m-.001 0l-1.624-1.111m0 0l-1.402-1.369m0 0l-1.137-1.586m.001.001l-.838-1.755m0-.001l-.512-1.871m0 0l-.173-1.929m-.001.001l.173-1.929m.001-.001l.512-1.87m0 .001l.838-1.755m0-.001l1.137-1.587m-.001 0l1.402-1.369m0 0l1.624-1.111m0 0l1.797-.818m.001 0l1.915-.501m-.001 0l1.975-.169m.001.001h43.87M301.657 24.684a.944.944 0 11-1.889 0 .944.944 0 011.889 0zM325.652 38.476v29.095m0 0l-.167.401m0 0l-.4.166m0 0h-14.737m0 0l-.401-.166m0 0l-.166-.401m0 0V38.476m0 0l.166-.401m0 0l.401-.166m0 0h14.737m0 0l.4.166m0 0l.167.401M321.495 39.609V52.57m0 .907v12.961M320.928 67.004h-9.446M310.915 66.437V39.609M311.482 39.042h9.446M321.495 66.437a.567.567 0 01-.567.567M311.482 67.004a.567.567 0 01-.567-.567M310.915 39.609c0-.313.254-.567.567-.567M320.928 39.042c.313 0 .567.254.567.567M318.905 53.477a.757.757 0 01-1.21 0h1.21zm-1.209-.907a.757.757 0 011.21 0h-1.21zM325.122 53.477v-.907m0 0h-7.748m.001 0l-.301.256m-.001 0v.395m0 0l.301.256m.001 0h7.748M325.122 52.268v1.511m0 0h.265m0 0v-1.511m0 0h-.265M325.387 51.89v2.267m0 0h.265m0 0V51.89m0 0h-.265M323.762 49.755h1.625m0 0v.095m0-.001h.132m0 0v.283m0 .001h.133m0 0v-1.889m0 0h-.133m0 0v.283m0 0h-.132m0 0v.095m0-.001h-1.625m0 0v.321m0 .001h-.416m0 0v-1.077m0 0h-.491m0 0v2.645m0 0h.491m0 0v-1.077m0 0h.416m0 0v.321M323.762 56.292h1.625m0 0v-.094m0 0h.132m0 0v-.283m0 0h.133m0 0v1.889m0 0h-.133m0 0v-.284m0 0h-.132m0 0v-.094m0 0h-1.625m0 0v-.322m0 0h-.416m0 0v1.078m0 0h-.491m0 0v-2.645m0 0h.491m0 0v1.076m0 0h.416m0 0v-.321M323.347 48.943l-.072.072M323.347 49.433l-.072-.072M323.762 48.943v.491M325.387 48.621v1.133M325.519 49.849v-1.323M323.347 57.104l-.072-.072M323.347 56.613l-.072.072M323.762 57.104v-.491M325.387 57.426v-1.134M325.519 56.197v1.323M323.347 49.188a.246.246 0 11-.491-.001.246.246 0 01.491.001zM323.347 56.859a.246.246 0 11-.492 0 .246.246 0 01.492 0zM301.024 103.301l-1.645.469m0 0l-1.552.718m0 0l-1.229.967m0 0l-.943 1.249m0 0l-.594 1.448m0 0l-.205 1.55m0 0l.205 1.552m0 0l.594 1.447m0 0l.943 1.249m0 0l1.229.967m0 0l1.552.719m0 0l1.645.469m0 0l1.698.207m0 0l1.709-.059m0 0l11.585-1.223m0 0v-10.654m0 0l-11.585-1.223m0 0l-1.709-.06m0 0l-1.698.208M310.294 113.82v-4.118M310.294 109.702v-4.116M296.028 112.766a5.743 5.743 0 01-.886-3.064M302.857 116.014c-2.591.165-5.106-1.031-6.83-3.248M310.294 113.82c-2.252 1.505-4.828 2.265-7.437 2.195M302.857 103.391c2.609-.07 5.185.69 7.437 2.195M296.028 106.639c1.723-2.217 4.238-3.414 6.83-3.249M295.142 109.703a5.737 5.737 0 01.886-3.063M316.016 114.351v-9.296m0 0h-.189m0 0v9.296m0 0h.189M316.016 100.256v18.894M320.55 100.256v18.894M316.016 100.256h4.534M316.016 119.149h4.534M241.766 163.738h-22.672m0 0v-9.069m0-.001h-95.41m0 0v-23.05m0 0h118.082m0 0v32.119M253.858 264.816h-29.474m0 0v-28.718m0 0h29.474m0 0v28.718M309.781 68.138h15.871m0 0V90.62m0 0h-15.871m0 0V68.138M311.482 274.829v23.427m0 0l-.166.402m0 0l-.401.166m0 0h-15.87m0 0l-.401-.166m0 0l-.166-.402m0 0v-23.427m0 0l.166-.401m0 0l.401-.166m0 0h15.87m0 0l.401.166m0 0l.166.401M307.325 275.963v9.891m0 1.378v9.892M306.758 297.69h-10.58M295.611 297.123v-21.161M296.178 275.396h10.58M307.325 297.123a.567.567 0 01-.567.566M296.178 297.69a.567.567 0 01-.567-.566M295.611 275.963c0-.313.254-.567.567-.567M306.758 275.396c.313 0 .567.254.567.567"/><circle class="st2" cx="303.822" cy="286.542" r=".756"/><path class="st2" d="M309.215 285.598l-1.585.151m0 0l-.36.123m0 0l-2 .251m0 0l-.264.14m0 0l-.106.279m0 0l.106.281m0 0l.264.139m0 0l2 .25m0 0l.36.124m0 0l1.585.152m0 0l.555-.181m0 0l.343-.473m0 0v-.583m0 0l-.343-.472m0 0l-.555-.181M308.273 287.057h-.562M307.711 286.029h.562M308.273 286.029v1.028M307.711 287.057a.514.514 0 010-1.028M307.27 287.212a.797.797 0 010-1.34M107.02 226.462v1.701m0 0h63.935m0 0v-1.701m0 0H107.02M107.02 260.47h31.967m0 0v-23.805m0 0H107.02m0 0v23.805M138.987 260.47h31.967m0 0v-23.805m0 0h-31.967m0 0v23.805M170.954 260.47h9.598m0 0v-34.008m0 0h-9.598m0 0v1.701m0 8.502v23.805M97.422 260.47h9.598m0 0v-23.805m0-8.502v-1.701m0 0h-9.598m0 0v34.008M138.987 228.163v8.502m0 0h36.766m0 0v-8.502m0 0h-36.766M138.987 228.163v8.502m0 0h-36.766m0 0v-8.502m0 0h36.766M158.109 152.59h-21.916m0 0v-18.515m0 0h21.916m0 0v18.515M147.151 141.31v-5.299M147.151 136.011h-1.096M147.151 141.31h-1.096M138.297 141.31v-5.299M139.393 136.011h-1.097M139.393 141.31h-1.097M156.136 138.445a2.74 2.74 0 11-5.479-.001 2.74 2.74 0 015.479.001zM156.094 146.684a3.968 3.968 0 11-7.936 0 3.968 3.968 0 017.936 0z"/><path class="st2" d="M154.393 146.684a2.268 2.268 0 11-4.536 0 2.268 2.268 0 014.536 0z"/><circle class="st2" cx="142.724" cy="138.63" r="2.645"/><path class="st2" d="M145.007 147.221a3.4 3.4 0 11-6.801 0 3.4 3.4 0 116.801 0zM161.225 154.668h-28.148M161.225 131.996h-28.148M161.225 154.668v-22.672M133.077 154.668v-22.672M215.504 151.835h-19.271m0 0l-.534-.222m0 0l-.221-.534m0 0v-17.382m0 0l.221-.534m0 0l.534-.221m0 0h19.271m0 0l.535.221m0 0l.221.534m0 0v17.382m0 0l-.221.534m0 0l-.535.222M217.205 154.668h-22.672M217.205 131.996h-22.672M217.205 154.668v-22.672M194.533 154.668v-22.672M213.615 149.946h-15.492M197.367 149.19v-11.714M198.123 136.72h15.492M214.371 137.476v11.714M213.615 149.946h.108a.108.108 0 10-.216 0 .108.108 0 00.216 0h-.108zM198.123 149.946a.757.757 0 01-.756-.756M197.367 137.476c0-.417.338-.756.756-.756M213.615 136.72c.417 0 .756.338.756.756M214.371 149.19a.756.756 0 01-.756.756M206.209 141.553l-.1.24m0-.001l-.241.099m0 0l-.24-.1m0 .001l-.099-.24m0-.001v-7.477m0 0l.099-.24m0 0l.241-.1m0 0l.24.1m0 0l.1.24m0 0v7.478M206.623 136.002h-.415m0 0v-1.927m0 0l-.099-.24m0 0l-.24-.101m0 0l-.241.101m0 0l-.1.24m0 0v1.927m0 0h-.414m0 0v-2.456m0 0h1.509m0 0v2.456M206.613 137.363h-.404m0 0v-1.323m0-.001h.404m0 0v1.323M205.124 137.363v-1.323m0-.001h.404m0 0v1.323m0 .001h-.404M219.094 186.409v-22.671m0 0h22.672m0 0v22.671m0 0h-22.672M234.209 175.073h-7.557M233.102 177.745l-5.344-5.344M230.43 178.852v-7.558M227.758 177.745l5.344-5.344M194.533 154.668h-22.672M194.533 131.996h-22.672M194.533 154.668v-22.672M171.861 154.668v-22.672M189.765 146.155a3.412 3.412 0 11-6.824 0 3.412 3.412 0 016.824 0z"/><path class="st2" d="M189.244 146.155a2.891 2.891 0 11-5.782 0 2.891 2.891 0 015.782 0zM182.625 146.987a2.58 2.58 0 11-5.16 0 2.58 2.58 0 015.16 0z"/><path class="st2" d="M181.49 146.987a1.445 1.445 0 11-2.89 0 1.445 1.445 0 012.89 0zM242.899 249.701a7.179 7.179 0 11-14.358 0 7.179 7.179 0 0114.358 0zM244.788 131.618v22.672m0 0h80.863m0 0v-22.672m0 0h-80.863M325.652 143.333v-.756m0 0h-80.863m0 0v.756m0 0h80.863M251.375 133.611v18.626m0 0h.756m0 0v-18.626m0 0h-.756M253.38 133.611v18.626m0 0h.756m0 0v-18.626m0 0h-.756M255.385 133.611v18.626m0 0h.755m0 0v-18.626m0 0h-.755M257.389 133.611v18.626m0 0h.756m0 0v-18.626m0 0h-.756M261.635 133.747l-2.241 18.491m0 0l.75.091m0 0l2.241-18.491m0 0l-.75-.091M96.073 11.742h68.015m0 0v1.889m0 0H96.073m0 0v-1.889M160.374 293.943v1.02m0 0h-44.369m0 0v-1.02m0 0h44.369M150.913 294.962v.832m0 0l-.151.567m0 0l-.415.415m0 0l-.567.152m0 0h-22.7m0 0l-.566-.152m0 0l-.415-.415m0 0l-.152-.567m0 0v-.832m0 0h24.966M160.374 293.645v.298m0 0h-44.369m0 0v-.298m0 0h44.369M69.649 298.823v-15.115m0 0h151.712m0 0v15.115m0 0H69.649M190.422 148.363h-.963m0 0v1.205m0 0h-12.524m0 0v-1.205m0 0h-.964M188.959 138.837l-.047.103m-.048.104l-.047.103m-.047.103l-.047.103m-.047.103l-.047.103m-.047.102l-.047.103m-.048.104l-.047.103m-.047.103l-.047.103m-.048.102l-.047.103m-.046.104l-.048.103m-.047.104l-.047.102m-.047.104l-.047.103m-.048.103l-.046.103m-.048.103l-.047.103m-.047.102l-.047.104m-.048.103l-.047.104m-.047.103l-.047.103m-.047.103l-.047.103M179.324 138.837l.048.103m.047.104l.047.103m.048.103l.047.103m.047.103l.048.103m.045.102l.048.103m.047.104l.047.103m.048.103l.047.103m.047.102l.047.103m.048.104l.047.103m.046.104l.047.102m.048.104l.048.103m.047.103l.047.103m.047.103l.047.103m.048.102l.046.104m.047.103l.047.104m.048.103l.047.103m.047.103l.048.103M188.959 138.837h-.078m-.113 0h-.114m-.113 0h-.113m-.114 0h-.078m0 0l-.042.051m-.071.089l-.071.088m-.072.087l-.071.089m-.072.088l-.071.088m-.072.087l-.071.088m-.072.088l-.071.089m-.071.088l-.072.088m-.071.088l-.072.088m-.071.088l-.072.087m-.071.087l-.071.089m-.072.089l-.071.088m-.072.088l-.071.088m-.072.088l-.071.088m-.072.087l-.071.088m-.072.088l-.071.088m-.071.089l-.072.088m-.071.088l-.072.088m-.071.088l-.072.088m-.071.088l-.071.088m-.072.088l-.071.088m-.072.088l-.072.088m-.071.088l-.072.088m-.071.087l-.041.052M179.324 138.837h.078m.114 0h.114m.113 0h.114m.113 0h.078m0 0l.042.051m.07.089l.072.088m.072.087l.071.089m.071.088l.071.088m.073.087l.071.088m.071.088l.071.089m.073.088l.071.088m.071.088l.071.088m.071.088l.072.087m.072.087l.072.089m.071.089l.072.088m.071.088l.071.088m.071.088l.071.088m.073.087l.071.088m.071.088l.071.088m.073.089l.071.088m.07.088l.072.088m.072.088l.071.088m.073.088l.071.088m.071.088l.072.088m.07.088l.072.088m.072.088l.072.088m.07.087l.042.052M235.204 255.709l.449-1.233m0 0v-1.313m0 0l-.449-1.233m0 0l.342-1.473m.001 0v-1.513m0 0l-.342-1.473m-.001 0l.45-1.234m.001 0v-1.314m0 0l-.45-1.235m-.001 0l2.987 2.232m.001 0v7.558m0 0l-2.987 2.231M238.453 253.478v-7.558m0 0h-.262m.001 0v7.558m0 0h.262M238.977 253.478v-7.558m0 0h-.262m0 0v7.558m0 0h.262M233.689 248.857l-.085.891m0 .001l.226.021m0 0l.046-.476m0 0l1.142 1.383m0 0l.152-.126m0 0l-.53-.642m0 0l.081-.067m0 0l.611.74m0-.001l.146-.121m0 .001l-.61-.74m0 0l.097-.08m0 0l.497.601m0 0l.13-.107m0 0l-.497-.602m0 0l.098-.08m0 0l.342.414m0 0l.14-.115m0-.001l-1.174-1.422M247.056 261.037h-22.672m0 0v-22.672m0 0h22.672m0 0v22.672M253.858 264.816h-29.474m0 0v-28.718m0 0h29.474m0 0v28.718M179.324 138.359h9.634m.001 0v.478m0 0h-.722m0 0v-.237m0 0h-8.189m0 0v.237m0 0h-.723m-.001 0v-.478M241.766 128.596v-22.672m0 0h-56.491m0 0v22.672m0 0h56.491M185.275 116.882v.756m0 0h56.491m0 0v-.756m0 0h-56.491M235.179 126.603v-18.626m0 0h-.755m0 0v18.626m0 0h.755M233.174 126.603v-18.626m0 0h-.756m0 0v18.626m0 0h.756M231.17 126.603v-18.626m0 0h-.755m0 0v18.626m0 0h.755M229.165 126.603v-18.626m0 0h-.756m.001 0v18.626m0 0h.756M224.919 126.467l2.242-18.491m0 0l-.751-.091m0 0l-2.241 18.492m0 .001l.75.09M164.088 91.093H96.073m0 0V15.521m0 0h68.015m0 0v75.572M162.199 92.982H97.962m0 0l-.723-.144m0 0l-.613-.409m0 0l-.409-.613m0 0l-.144-.723m0 0h68.015m0 0l-.144.723m0 0l-.409.613m0 0l-.613.409m0 0l-.723.144M164.088 11.742H96.073m0 0v3.779m0 0h68.015m0 0v-3.779M96.073 11.742h68.015m0 0v1.889m0 0H96.073m0 0v-1.889M94.183 11.742H77.179m0 0v18.893m0 0h17.004m0 0V11.742M165.977 11.742h17.004m0 0v18.893m0 0h-17.004m0 0V11.742M124.034 17.41H98.341m0 0l-.268.111m-.001-.001l-.11.267m0 0v12.47m0 0l.11.267m0 0l.268.111m.001 0h25.694m-.001 0l.268-.111m.001 0l.11-.267m0 0v-12.47m0 0l-.11-.267m0 0l-.268-.111M136.126 17.41h25.695m0 0l.267.111m0-.001l.111.267m0 0v12.47m0 0l-.111.267m0 0l-.267.111m0 0h-25.695m0 0l-.267-.111m0 0l-.11-.267m0 0v-12.47m0 0l.11-.267m0 0l.267-.111M164.088 29.611h-1.889M135.749 29.611h-11.336M97.962 29.611h-1.889M164.088 34.621H96.073m0 0v18.686m0 0L164.088 38.4m0 0v-3.779M185.275 11.458V34.13m0 0h56.491m0 0V11.458m0 0h-56.491M241.766 23.172v-.755m0 0h-56.491m0 0v.755m0 0h56.491M191.862 13.451v18.626m0 0h.756m0 0V13.451m0 0h-.756M193.867 13.451v18.626m0 0h.756m-.001 0V13.451m0 0h-.756M195.871 13.451v18.626m0 0h.756m0 0V13.451m0 0h-.756M197.876 13.451v18.626m0 0h.756m0 0V13.451m0 0h-.756M202.122 13.587l-2.241 18.491m0 0l.75.091m0 0l2.241-18.491m0 0l-.75-.091M178.258 21.188a3.78 3.78 0 11-7.558 0 3.78 3.78 0 017.558 0z"/><path class="st2" d="M175.613 21.188a1.134 1.134 0 11-2.269 0 1.134 1.134 0 012.269 0zM89.46 21.188a3.78 3.78 0 11-7.558 0 3.78 3.78 0 017.558 0z"/><path class="st2" d="M86.815 21.188a1.134 1.134 0 11-2.267 0 1.134 1.134 0 012.267 0zM178.159 20.328l-3.68.86m0 0l-1.583 3.431m0 0l1.583-3.431m0 0l-1.306-3.546M82.002 20.328l3.679.86m0 0l1.584 3.431m0 0l-1.584-3.431m0 0l1.306-3.546M135.711 177.939l-4.109-4.109m0 0l-.426-.407m0 0l-.43-.371m0 0l-.424-.328m0 0l-.403-.276m0 0l-.017-.009m0 0l-.375-.216m0 0l-.332-.147m0 0l-.025-.008m0 0l-.281-.075m0 0l-.028-.004m0 0l-.22.002m0 0l-.03.002m0 0l-.029.007m0 0l-.027.013m0 0l-.154.078m0 0l-.024.018m0 0l-.012.01m0 0l-1.133 1.134m0 0l-1.03-1.029m0 0l-5.217 5.217m11.114 11.116l5.217-5.218m.001 0l-1.029-1.029m0 0l1.134-1.134m0 0l.011-.011m0 0l.017-.025m0 0l.078-.154m0 0l.013-.027m0 0l.008-.029m0 0l.002-.029m0 0l.001-.221m0 0l-.003-.028m0 0l-.075-.281m0 0l-.008-.025m0 0l-.148-.332m0 0l-.214-.376m0 0l-.011-.016m0 0l-.276-.404m0 0l-.328-.423m0 0l-.371-.429m0 0l-.407-.427M126.563 173.921l9.057 9.057M126.686 174.045l.897-.898M135.496 182.854l.898-.898M131.623 186.975l4.664-4.664M122.566 177.918l4.664-4.664M130.572 174.852l4.117 4.117M127.584 173.147c.354-.354 1.691.409 2.988 1.706M134.688 178.968c1.296 1.296 2.06 2.634 1.705 2.988M99.112 206.32l4.108 4.108m0 .001l.427.408m0 0l.43.371m0 0l.423.328m0 0l.404.275m0 0l.016.011m0 0l.376.215m0 0l.332.147m0 0l.024.008m0 0l.281.075m0 0l.029.003m0 0l.22-.001m0 0l.03-.002m0 0l.028-.008m0-.001l.027-.012m0 .001l.154-.078m0 0l.025-.018m0-.001l.011-.011m0 .001l1.134-1.133m0 0l1.029 1.029m0 0l5.219-5.218m-11.117-11.114l-5.216 5.217m0 0l1.029 1.029m0-.001l-1.135 1.134m0 .001l-.01.011m0 0l-.017.025m0 0l-.078.153m0 0l-.013.027m0 0l-.008.03m0 0l-.002.029m0 0l-.001.221m0 0l.003.027m0 0l.074.282m0 0l.009.025m0 0l.147.332m0-.001l.215.375m0 .001l.01.016m0 0l.276.404m0 0l.329.424m0 0l.371.429m0 0l.407.427M108.26 210.338l-9.057-9.057M108.137 210.214l-.898.898M99.326 201.405l-.897.896M103.199 197.285l-4.663 4.664M112.256 206.341l-4.664 4.664M104.251 209.407l-4.117-4.117M107.238 211.113c-.354.354-1.692-.409-2.988-1.705M100.134 205.29c-1.296-1.296-2.06-2.634-1.705-2.988M103.22 173.83l-4.108 4.109m0 0l-.408.427m.001 0l-.371.429m0 0l-.329.423m0 0l-.275.404m-.001 0l-.01.016m.001 0l-.216.376m0 0l-.146.332m0 0l-.009.025m-.001 0l-.074.281m0 0l-.003.028m.001 0l.001.221m0 0l.002.029m-.001 0l.008.029m.001 0l.012.027m0 0l.078.154m0 0l.018.024m-.001 0l.01.012m.001 0l1.134 1.133m0 0l-1.029 1.03m0 0l5.217 5.217m11.115-11.115l-5.218-5.217m0 0l-1.028 1.029m-.001 0l-1.135-1.134m0 0l-.01-.01m.001 0l-.026-.018m-.001 0l-.153-.078m0 0l-.027-.013m0 0l-.029-.007m.001 0l-.029-.002m0 0l-.221-.002m0 0l-.028.004m-.001 0l-.281.075m.001 0l-.025.008m0 0l-.332.147m-.001 0l-.376.215m.001 0l-.015.01m0 0l-.405.276m-.001 0l-.423.328m.001 0l-.429.371m0 0l-.427.407M99.203 182.978l9.057-9.057M99.326 182.854l-.897-.898M108.137 174.045l-.898-.898M112.256 177.918l-4.664-4.664M103.199 186.974l-4.663-4.663M100.134 178.969l4.117-4.117M98.428 181.956c-.354-.354.409-1.692 1.705-2.988M104.25 174.851c1.297-1.296 2.635-2.059 2.988-1.705M131.601 210.429l4.109-4.108m0 0l.408-.427m0 0l.371-.43m0 0l.328-.424m0 0l.275-.403m0 0l.011-.017m0 0l.215-.375m0 0l.147-.332m0 0l.008-.024m0 0l.075-.282m0 0l.003-.028m0 0l-.001-.22m0 0l-.002-.03m0 0l-.008-.029m0 0l-.012-.027m.001 0l-.078-.154m-.001 0l-.018-.024m0 0l-.011-.012m0 0l-1.133-1.133m0 0l1.029-1.03m0 0l-5.218-5.218m-11.115 11.115l5.219 5.218m-.001 0l1.029-1.029m0 0l1.134 1.134m0 0l.011.011m0 0l.025.017m0 0l.153.078m0 0l.027.013m0 0l.03.008m0 0l.029.002m.001 0l.221.001m-.001 0l.027-.003m.001 0l.281-.075m-.001 0l.026-.008m0 0l.332-.148m0 0l.375-.214m0 0l.016-.011m0 0l.404-.276m0 0l.424-.328m0 0l.429-.371m0 0l.426-.407M135.62 201.282l-9.057 9.057M135.496 201.405l.898.896M126.686 210.214l.897.898M122.566 206.341l4.664 4.664M131.623 197.285l4.664 4.664M134.689 205.29l-4.117 4.117M136.394 202.302c.354.354-.409 1.691-1.705 2.987M130.572 209.407c-1.296 1.296-2.634 2.06-2.988 1.705M132.525 192.129c0 8.348-6.767 15.114-15.114 15.114-8.348 0-15.115-6.766-15.115-15.114 0-8.347 6.767-15.114 15.115-15.114 8.347 0 15.114 6.767 15.114 15.114z"/></g></g><g id="walls_1_"><path d="M350.278 210.682c-6.022 2.248-9.138 2.87-15.557 3.198" fill="none" stroke="#000" stroke-linecap="round" stroke-linejoin="round" stroke-miterlimit="3"/><path class="st4" d="M350.378 210.638L334.72 174.43h-1.511v.453l15.782 36.355z"/><path class="st5" d="M260.155 220.519c-2.287 4.755-2.734 7.233-2.595 12.556"/><path class="st4" d="M260.18 220.416l-.6 1.387 29.419 12.782h.453v-1.511z"/><path class="st5" d="M107.562 116.035c1.817 4.87 2.329 7.369 2.595 12.56"/><path class="st4" d="M107.536 115.937l-29.272 12.658v1.511h.454l29.418-12.782z"/><g><path class="st5" d="M255.852 74.447c-4.294 1.602-6.487 2.034-11.064 2.268"/><path class="st4" d="M255.948 74.405l-11.159-25.804h-1.512v.454l11.283 25.95z"/></g><g><path class="st5" d="M53.401 108.001h16.248M45.844 108.001h5.668M51.512 108.001h1.889M53.401 41.875h16.248M45.844 41.875h5.668M51.512 41.875h1.889M45.844 41.875v66.126M69.649 41.875v66.126M53.401 41.875v3.779M53.401 45.654h-1.889M51.512 45.654v-3.779M51.512 79.662v-1.889M51.512 77.773h1.889M53.401 77.773v1.889M52.456 45.654v32.119M53.401 45.654v32.119M51.512 77.773V45.654M53.401 79.662v.944M53.401 80.606h-.945M52.456 80.606v.945M52.456 81.551h-.944M51.512 81.551v-1.889M51.512 108.001v-3.778M51.512 104.223h.944M52.456 104.223v.944M52.456 105.167h.945M53.401 105.167v2.834M51.512 104.223V81.551M54.346 83.441v18.893M54.346 80.606v2.834M54.346 83.441h-1.89M52.456 83.441v-2.834M52.456 80.606h1.89M52.456 105.167v-2.833M52.456 102.334h1.89M54.346 102.334v2.833M54.346 105.167h-1.89M52.456 102.334V83.441M54.346 83.441v18.893M53.401 83.441v18.893M51.512 41.875h1.889M51.512 41.875h1.889M45.844 41.875h5.668M53.401 41.875h16.248M51.512 108.001h1.889M51.512 108.001h1.889M45.844 108.001h5.668M53.401 108.001h16.248"/><g><path class="st5" d="M53.401 263.931h16.248M45.844 263.931h5.668M51.512 263.931h1.889M53.401 180.801h16.248M45.844 180.801h5.668M51.512 180.801h1.889M45.844 180.801v83.13M69.649 180.801v83.13M53.401 180.801v3.779M53.401 184.579h-1.889M51.512 184.579v-3.778M51.512 220.476v-1.889M51.512 218.587h1.889M53.401 218.587v1.889M52.456 184.579v34.008M53.401 184.579v34.008M51.512 218.587V184.58M53.401 220.476v.945M53.401 221.421h-.945M52.456 221.421v.945M52.456 222.365h-.944M51.512 222.365v-1.889M51.512 263.931v-3.779M51.512 260.152h.944M52.456 260.152v.945M52.456 261.097h.945M53.401 261.097v2.834M54.346 261.097l28.055-28.055M51.512 260.152v-37.786M54.346 224.255v34.008M54.346 221.421v2.834M54.346 224.255h-1.89M52.456 224.255v-2.834M52.456 221.421h1.89M52.456 261.097v-2.834M52.456 258.263h1.89M54.346 258.263v2.834M54.346 261.097h-1.89M52.456 258.263v-34.008M54.346 224.255v34.008M53.401 224.255v34.008M54.346 221.421a39.676 39.676 0 0128.055 11.621M51.512 180.801h1.889M51.512 180.801h1.889M45.844 180.801h5.668M53.401 180.801h16.248M51.512 263.931h1.889M51.512 263.931h1.889M45.844 263.931h5.668M53.401 263.931h16.248"/></g><g><path class="st5" d="M45.844 169.42H.5m0 0v105.802m0 0h45.344m0 0V169.42M1.256 274.466h44.588m0 0v-104.29m0 0H1.256m0 0v104.29"/></g></g><path class="st0" d="M161.154 298.823v10.958h164.497v-10.958h-11.147v-62.725h11.148v-3.023h-36.2v1.511h-.453v1.512h22.483v62.725h-87.098v-62.725h33.63v-1.512h-.454v-1.511h-36.199v65.748h-60.207zm80.612-170.227V76.262h1.511v.453h1.512v51.881h71.038V90.621h9.825v3.023h-6.802v34.952h6.802v3.023h-80.863v54.79h-3.023v-54.79H109.703v-1.512h.453v-1.511h131.61zm-164.56 0h1.058v1.511h.454v1.512h-9.07v-3.023h7.558zM161.154.5v10.958h80.612v37.598h1.511v-.454h1.512V11.458h64.992v26.451h15.871v-3.023h-12.848V11.458h12.847V.5H161.154z"/><path d="M69.649.5h91.506v10.958H69.649v30.418H45.844V.5h23.805zm265.07 173.931h-1.511v.453h-7.557V.5h9.068v173.931h0zm0 135.35V213.88h-1.511v-.454h-7.557v96.355h9.068zm-288.875 0v-45.85h23.805v34.892h91.506v10.958H45.844h0zm0-201.779h23.805v72.799H45.844v-72.799z" fill-rule="evenodd" clip-rule="evenodd" stroke="#000" stroke-linecap="round" stroke-linejoin="round" stroke-miterlimit="3"/><g><path class="st7" d="M162.697.497l-1.5 1.32M170.117.497l-8.92 7.86M177.537.497l-12.44 10.96M184.967.497l-12.44 10.96M192.387.497l-12.44 10.96M199.807.497l-12.44 10.96M207.227.497l-12.44 10.96M214.647.497l-12.44 10.96M222.077.497l-12.45 10.96M76.657 128.597l-3.43 3.02M229.497.497l-12.44 10.96M236.917.497l-12.44 10.96M244.347.497l-12.45 10.96M251.767.497l-12.44 10.96M244.827 13.147l-3.02 2.66M113.767 128.597l-3.43 3.02M259.188.497l-12.451 10.96M244.827 19.687l-3.02 2.66M121.187 128.597l-3.43 3.02M266.607.497l-12.44 10.96M244.827 26.217l-3.02 2.66M128.617 128.597l-3.43 3.02M274.027.497l-12.44 10.96M244.827 32.767l-3.02 2.66M136.037 128.597l-3.43 3.02M281.457.497l-12.44 10.96M244.827 39.297l-3.02 2.67M143.457 128.597l-3.42 3.02M288.878.497l-12.44 10.96M150.887 128.597l-3.43 3.02M244.827 45.837l-3.02 2.66M296.297.497l-12.44 10.96M158.297 128.597l-3.43 3.02M303.717.497l-12.44 10.96M165.727 128.597l-3.43 3.02M311.137.497l-12.44 10.96M173.147 128.597l-3.43 3.02M318.568.497l-12.451 10.96M180.567 128.597l-3.42 3.02M325.688.757l-12.141 10.7M312.848 12.077l-3.03 2.66M325.688 7.297l-4.721 4.16M187.997 128.597l-3.43 3.02M244.827 78.537l-3.02 2.66M312.848 18.617l-3.03 2.66M195.417 128.597l-3.43 3.02M244.827 85.077l-3.02 2.66M312.848 25.157l-3.03 2.66M202.847 128.597l-3.43 3.02M244.827 91.617l-3.02 2.66M312.848 31.697l-3.03 2.66M210.257 128.597l-3.43 3.02M244.827 98.147l-3.02 2.66M316.637 34.887l-3.43 3.02M324.057 34.887l-3.42 3.02M244.827 104.687l-3.02 2.66M217.677 128.597l-3.42 3.02M244.827 111.227l-3.02 2.66M225.107 128.597l-3.43 3.02M244.827 117.767l-3.02 2.66M232.527 128.597l-3.43 3.02M244.827 124.307l-3.02 2.66M239.947 128.597l-3.42 3.02M247.377 128.597l-5.57 4.91M244.827 137.377l-3.02 2.66M254.787 128.597l-3.42 3.02M244.827 143.917l-3.02 2.66M262.217 128.597l-3.429 3.02M244.827 150.457l-3.02 2.66M269.637 128.597l-3.43 3.02M320.177 90.617l-4.31 3.79M244.827 156.997l-3.02 2.66M277.057 128.597l-3.42 3.02M318.887 98.287l-3.02 2.66M325.688 92.297l-1.53 1.35M244.827 163.537l-3.02 2.66M284.487 128.597l-3.43 3.02M318.887 104.827l-3.02 2.66M244.827 170.077l-3.02 2.66M291.908 128.597l-3.431 3.02M318.887 111.367l-3.02 2.66M244.827 176.607l-3.02 2.66M299.327 128.597l-3.43 3.02M318.887 117.907l-3.02 2.66M244.827 183.147l-3.02 2.66M306.747 128.597l-3.429 3.02M318.887 124.437l-3.02 2.66M314.167 128.597l-3.43 3.02M321.598 128.597l-3.431 3.02M325.688 131.527l-.101.09M225.267 233.077l-3.87 3.41M224.427 240.347l-3.03 2.67M232.677 233.077l-3.43 3.02M224.427 246.887l-3.03 2.67M165.467 298.827l-4.27 3.76M240.097 233.077l-3.42 3.02M224.427 253.427l-3.03 2.67M172.887 298.827l-11.69 10.3M247.527 233.077l-3.43 3.02M254.947 233.077l-3.43 3.02M180.307 298.827l-12.43 10.95M224.427 259.967l-3.03 2.67M187.737 298.827l-12.43 10.95M224.427 266.507l-3.03 2.67M195.157 298.827l-12.43 10.95M224.427 273.047l-3.03 2.67M202.577 298.827l-12.43 10.95M224.427 279.577l-3.03 2.67M209.997 298.827l-12.43 10.95M224.427 286.117l-3.03 2.67M292.057 233.077l-3.019 2.66M217.417 298.827l-12.43 10.95M224.427 292.657l-3.03 2.67M224.847 298.827l-12.43 10.95M299.477 233.077l-3.42 3.02M232.267 298.827l-12.43 10.95M306.908 233.077l-3.431 3.02M239.688 298.827l-12.431 10.95M314.327 233.077l-3.43 3.02M314.547 239.417l-3.03 2.67M321.747 233.077l-3.429 3.02M247.107 298.827l-12.43 10.95M314.547 245.957l-3.03 2.67M254.527 298.827l-12.43 10.95M314.547 252.497l-3.03 2.67M261.957 298.827l-12.43 10.95M314.547 259.037l-3.03 2.67M269.378 298.827l-12.431 10.95M314.547 265.577l-3.03 2.67M276.797 298.827l-12.43 10.95M314.547 272.117l-3.03 2.67M284.227 298.827l-12.43 10.95M314.547 278.657l-3.03 2.67M291.647 298.827l-12.43 10.95M314.547 285.187l-3.03 2.67M299.068 298.827l-12.431 10.95M314.547 291.727l-3.03 2.67M306.487 298.827l-12.43 10.95M314.547 298.267l-13.07 11.51M321.337 298.827l-12.429 10.95M325.688 301.527l-9.361 8.25M325.688 308.067l-1.941 1.71"/></g><path d="M161.154 298.823v10.958h164.497v-10.958h-11.147v-62.725h11.148v-3.023h-36.2v1.511h-.453v1.512h22.483v62.725h-87.098v-62.725h33.63v-1.512h-.454v-1.511h-36.199v65.748h-60.207 0zm80.612-170.227V76.262h1.511v.453h1.512v51.881h71.038V90.621h9.825v3.023h-6.802v34.952h6.802v3.023h-80.863v54.79h-3.023v-54.79H109.703v-1.512h.453v-1.511h131.61zm-164.56 0h1.058v1.511h.454v1.512h-9.07v-3.023h7.558zM161.154.5v10.958h80.612v37.598h1.511v-.454h1.512V11.458h64.992v26.451h15.871v-3.023h-12.848V11.458h12.847V.5H161.154z" fill-rule="evenodd" clip-rule="evenodd" fill="none" stroke="#000" stroke-linecap="round" stroke-linejoin="round" stroke-miterlimit="22.926"/></g><g id="sizes"><path d="M157.962 123.505h-1.594v-9.625l-1.617.992v-1.648l1.617-1.078h1.594v11.359zM160.384 120.38l3.813-8.227h1.641l-3.719 8.133h5.57v1.477h-7.305v-1.383zm4.899-3.555h1.555v6.688h-1.555v-6.688zM169.486 121.911h1.594v1.594l-1.594 1.578v-3.172zM173.111 120.38l3.813-8.227h1.641l-3.719 8.133h5.57v1.477h-7.305v-1.383zm4.898-3.555h1.555v6.688h-1.555v-6.688zM195.052 279.614h-1.594v-9.625l-1.617.992v-1.648l1.617-1.078h1.594v11.359zM199.275 279.395a2.75 2.75 0 01-1.086-.977c-.278-.427-.465-.939-.559-1.539v-.008h1.594v.008c.058.417.224.741.5.973.276.232.636.348 1.078.348.511 0 .905-.17 1.184-.512.278-.341.418-.821.418-1.441v-.953c0-.614-.14-1.092-.418-1.434-.278-.341-.673-.512-1.184-.512-.276 0-.542.078-.797.234s-.479.375-.672.656h-1.453v-5.984h5.789v1.516h-4.195v2.555a2.275 2.275 0 011.414-.508c.656 0 1.218.136 1.684.406.466.271.82.667 1.063 1.188.242.521.363 1.148.363 1.883v.953c0 .734-.125 1.362-.375 1.883-.25.521-.614.918-1.094 1.191s-1.055.41-1.727.41c-.573 0-1.082-.112-1.527-.336zM206.185 278.02h1.594v1.594l-1.594 1.578v-3.172zM211.482 279.341c-.521-.26-.923-.629-1.207-1.105s-.426-1.029-.426-1.66v-.188c0-.567.142-1.102.426-1.602s.663-.877 1.137-1.133c-.401-.219-.723-.535-.965-.949s-.363-.85-.363-1.309v-.273c0-.594.133-1.115.398-1.566.266-.45.641-.799 1.125-1.047.484-.247 1.047-.371 1.688-.371s1.203.124 1.688.371c.484.248.859.597 1.125 1.047.266.451.398.973.398 1.566v.273c0 .469-.124.909-.371 1.32a2.465 2.465 0 01-.98.938c.479.261.863.64 1.152 1.137a3.13 3.13 0 01.434 1.598v.188c0 .631-.142 1.184-.426 1.66s-.687.846-1.207 1.105c-.521.261-1.125.391-1.813.391s-1.293-.131-1.813-.391zm2.789-1.36c.281-.146.499-.35.652-.613.153-.263.23-.566.23-.91v-.109c0-.349-.077-.654-.23-.918a1.576 1.576 0 00-.652-.613c-.281-.146-.606-.219-.977-.219s-.695.073-.977.219c-.281.146-.499.352-.652.617s-.23.573-.23.922v.117c0 .344.077.646.23.906.153.261.371.463.652.605.281.144.606.215.977.215s.696-.072.977-.219zm-.133-5.121c.245-.138.435-.334.57-.59.136-.255.203-.549.203-.883v-.109c0-.317-.067-.599-.203-.844-.136-.244-.325-.434-.57-.566s-.526-.199-.844-.199-.599.066-.844.199-.435.322-.57.566a1.726 1.726 0 00-.203.852v.117c0 .328.067.619.203.871.136.253.325.448.57.586.245.139.526.207.844.207s.599-.068.844-.207z"/><g><path d="M272.794 291.351l-.727-.348a2.857 2.857 0 01-1.168-1.008c-.295-.44-.48-.97-.559-1.59h1.625c.047.323.148.589.305.797s.357.363.605.465c.247.102.537.152.871.152.525 0 .935-.141 1.227-.422.291-.281.438-.677.438-1.188v-.344c0-.567-.139-1.007-.414-1.316-.276-.31-.667-.465-1.172-.465h-.805v-1.516h.805c.442 0 .786-.133 1.031-.398.244-.266.367-.641.367-1.125v-.352c0-.448-.129-.794-.387-1.039s-.624-.367-1.098-.367a1.68 1.68 0 00-.727.152c-.214.102-.395.258-.543.469s-.257.476-.324.793h-1.617c.104-.62.301-1.151.59-1.594s.654-.778 1.098-1.008c.442-.229.95-.344 1.523-.344.979 0 1.736.258 2.273.773.536.516.805 1.242.805 2.18v.188c0 .567-.154 1.063-.461 1.484-.308.422-.742.729-1.305.922.619.136 1.1.44 1.441.914.341.474.512 1.078.512 1.813v.188c0 .661-.128 1.227-.383 1.695a2.536 2.536 0 01-1.113 1.07c-.487.245-1.074.367-1.762.367l-.951.002zM279.115 289.641h1.594v1.594l-1.594 1.578v-3.172zM284.411 290.961a2.855 2.855 0 01-1.207-1.105c-.284-.477-.426-1.03-.426-1.66v-.188c0-.567.142-1.102.426-1.602.283-.5.662-.878 1.137-1.133-.401-.219-.723-.535-.965-.949s-.363-.851-.363-1.309v-.273c0-.594.133-1.116.398-1.566s.641-.8 1.125-1.047 1.047-.371 1.688-.371 1.203.124 1.688.371.859.597 1.125 1.047.398.973.398 1.566v.273c0 .469-.124.909-.371 1.32a2.485 2.485 0 01-.98.938c.479.261.863.64 1.152 1.137s.434 1.03.434 1.598v.188c0 .63-.143 1.184-.426 1.66a2.854 2.854 0 01-1.207 1.105c-.521.261-1.125.391-1.813.391s-1.292-.13-1.813-.391zm2.79-1.36c.281-.146.498-.351.652-.613.153-.263.23-.566.23-.91v-.109c0-.349-.077-.655-.23-.918-.154-.263-.371-.468-.652-.613s-.607-.219-.977-.219-.695.073-.977.219-.499.352-.652.617c-.154.266-.23.573-.23.922v.117c0 .344.076.646.23.906.153.261.371.462.652.605s.606.215.977.215c.369 0 .695-.073.977-.219zm-.133-5.121c.244-.138.435-.335.57-.59.135-.255.203-.55.203-.883v-.109c0-.317-.068-.599-.203-.844a1.406 1.406 0 00-.57-.566 1.74 1.74 0 00-.844-.199c-.318 0-.6.066-.844.199a1.394 1.394 0 00-.57.566 1.724 1.724 0 00-.203.852v.117c0 .328.067.618.203.871.135.253.325.448.57.586.244.138.525.207.844.207.317 0 .599-.069.844-.207z"/></g><g><path d="M256.024 122.22a2.604 2.604 0 01-1.082-1.172c-.248-.513-.371-1.131-.371-1.855v-.008c0-.422.049-.864.148-1.328a7.673 7.673 0 01.532-1.597l.109-.223 2.469-4.891h1.719l-2.898 5.664.008-.281c.13-.245.32-.435.57-.57.25-.135.541-.203.875-.203.588 0 1.094.133 1.516.398s.742.652.961 1.16.328 1.119.328 1.832v.008c0 .729-.124 1.354-.371 1.875a2.62 2.62 0 01-1.086 1.188c-.477.271-1.049.406-1.715.406-.668-.001-1.239-.135-1.712-.403zm2.879-1.598c.273-.313.41-.758.41-1.336v-.008c0-.635-.144-1.126-.43-1.473-.287-.346-.695-.52-1.227-.52-.475 0-.842.175-1.102.523-.261.349-.391.841-.391 1.477v.008c0 .578.137 1.022.41 1.332.273.31.66.465 1.16.465.507.001.896-.156 1.17-.468zM262.86 120.911h1.594v1.594l-1.594 1.578v-3.172zM267.465 121.77c-.55-.567-.824-1.359-.824-2.375v-5.164c0-1.021.275-1.813.828-2.379.552-.565 1.356-.848 2.414-.848 1.063 0 1.868.281 2.418.844.549.563.824 1.357.824 2.383v5.164c0 1.021-.276 1.814-.828 2.379-.553.565-1.357.848-2.414.848-1.062 0-1.869-.284-2.418-.852zm3.664-1.105c.268-.294.402-.717.402-1.27v-5.164c0-.552-.133-.975-.398-1.27-.266-.294-.683-.441-1.25-.441-.568 0-.984.147-1.25.441-.266.294-.398.718-.398 1.27v5.164c0 .552.134.976.402 1.27.268.294.684.441 1.246.441s.978-.147 1.246-.441z"/></g><g><path d="M7.432 184.073l-.727-.348a2.857 2.857 0 01-1.168-1.008c-.294-.439-.48-.97-.559-1.59h1.625c.047.323.148.589.305.797.156.209.358.363.605.465.247.102.538.152.871.152.526 0 .935-.141 1.227-.422.292-.281.438-.677.438-1.188v-.344c0-.567-.138-1.006-.414-1.316-.276-.31-.667-.465-1.172-.465h-.804v-1.516h.805c.442 0 .786-.133 1.031-.398.245-.266.367-.641.367-1.125v-.352c0-.447-.129-.794-.387-1.039-.258-.244-.624-.367-1.098-.367-.271 0-.513.051-.727.152-.214.102-.395.258-.543.469s-.257.476-.324.793H5.167c.104-.619.301-1.15.59-1.594a2.893 2.893 0 011.098-1.008c.442-.229.95-.344 1.523-.344.979 0 1.737.258 2.273.773.536.516.805 1.242.805 2.18v.188c0 .568-.154 1.063-.461 1.484-.308.422-.742.729-1.305.922.62.136 1.1.44 1.441.914.341.475.512 1.078.512 1.813v.188c0 .662-.128 1.227-.383 1.695a2.52 2.52 0 01-1.113 1.07c-.487.245-1.074.367-1.762.367l-.953.002zM13.753 182.362h1.594v1.594l-1.594 1.578v-3.172zM19.05 183.683a2.855 2.855 0 01-1.207-1.105c-.284-.477-.426-1.029-.426-1.66v-.188c0-.567.142-1.102.426-1.602.284-.5.663-.877 1.137-1.133-.401-.219-.723-.535-.965-.949s-.363-.85-.363-1.309v-.273c0-.594.133-1.115.398-1.566.266-.45.641-.799 1.125-1.047.484-.247 1.047-.371 1.688-.371s1.203.124 1.688.371c.484.248.859.597 1.125 1.047.266.451.398.973.398 1.566v.273c0 .469-.124.909-.371 1.32a2.472 2.472 0 01-.98.938c.479.261.863.64 1.152 1.137a3.13 3.13 0 01.434 1.598v.188c0 .631-.142 1.184-.426 1.66a2.848 2.848 0 01-1.207 1.105c-.521.261-1.125.391-1.813.391s-1.293-.131-1.813-.391zm2.789-1.36c.281-.146.499-.35.652-.613.153-.263.23-.566.23-.91v-.109c0-.349-.077-.654-.23-.918a1.582 1.582 0 00-.652-.613 2.09 2.09 0 00-.977-.219c-.37 0-.695.073-.977.219a1.573 1.573 0 00-.652.617c-.154.266-.23.573-.23.922v.117c0 .344.077.646.23.906.153.261.371.463.652.605.281.144.606.215.977.215.37 0 .695-.072.977-.219zm-.133-5.121c.245-.138.435-.334.57-.59.135-.255.203-.549.203-.883v-.109c0-.317-.068-.599-.203-.844a1.412 1.412 0 00-.57-.566 1.74 1.74 0 00-.844-.199 1.74 1.74 0 00-.844.199 1.406 1.406 0 00-.57.566 1.726 1.726 0 00-.203.852v.117c0 .328.067.619.203.871.135.253.325.448.57.586.245.139.526.207.844.207.317 0 .599-.068.844-.207z"/></g><g><path d="M252.204 168.382a2.75 2.75 0 01-1.086-.977c-.279-.427-.465-.939-.559-1.539v-.008h1.594v.008c.057.417.224.741.5.973.275.232.635.348 1.078.348.51 0 .904-.17 1.184-.512.278-.341.418-.821.418-1.441v-.953c0-.614-.14-1.092-.418-1.434-.279-.341-.674-.512-1.184-.512-.276 0-.542.078-.797.234a2.225 2.225 0 00-.672.656h-1.453v-5.984h5.789v1.516h-4.195v2.555a2.262 2.262 0 011.414-.508c.656 0 1.217.136 1.684.406.466.271.82.667 1.063 1.188.242.521.363 1.148.363 1.883v.953c0 .734-.125 1.362-.375 1.883-.25.521-.615.918-1.094 1.191-.479.273-1.055.41-1.727.41-.572 0-1.081-.113-1.527-.336zM259.115 167.007h1.594v1.594l-1.594 1.578v-3.172zM264.115 168.315a2.599 2.599 0 01-1.082-1.172c-.248-.513-.371-1.131-.371-1.855v-.008c0-.422.049-.864.148-1.328a7.673 7.673 0 01.532-1.597l.109-.223 2.469-4.891h1.719l-2.898 5.664.008-.281c.13-.244.32-.435.57-.57.25-.135.541-.203.875-.203.588 0 1.094.133 1.516.398s.742.652.961 1.16.328 1.119.328 1.832v.008c0 .729-.124 1.354-.371 1.875a2.62 2.62 0 01-1.086 1.188c-.477.271-1.049.406-1.715.406-.668 0-1.239-.134-1.712-.403zm2.878-1.597c.273-.313.41-.758.41-1.336v-.008c0-.635-.144-1.126-.43-1.473-.287-.346-.695-.52-1.227-.52-.475 0-.842.175-1.102.523-.261.35-.391.842-.391 1.477v.008c0 .578.137 1.022.41 1.332.273.311.66.465 1.16.465.507 0 .897-.156 1.17-.468z"/></g><g><path d="M197.571 165.856l3.813-8.227h1.641l-3.719 8.133h5.57v1.477h-7.305v-1.383zm4.898-3.554h1.555v6.688h-1.555v-6.688zM206.672 167.388h1.594v1.594l-1.594 1.578v-3.172zM213.196 168.981h-1.594v-9.625l-1.617.992V158.7l1.617-1.078h1.594v11.359z"/></g></g></g></svg>