<svg version="1.1" id="_x32_58" xmlns="http://www.w3.org/2000/svg" x="0" y="0" viewBox="0 0 665.299 352.195" xml:space="preserve"><style>.st0,.st1{fill-rule:evenodd;clip-rule:evenodd}.st0{fill:#fff}.st1{stroke-width:.4}.st1,.st2{fill:none;stroke:#999;stroke-linecap:round;stroke-linejoin:round;stroke-miterlimit:3}.st2,.st4,.st5,.st6,.st8{fill-rule:evenodd;clip-rule:evenodd}.st5,.st6,.st8{fill:none}.st5{stroke:#000;stroke-linecap:round;stroke-linejoin:round;stroke-miterlimit:3}.st6,.st8{stroke-miterlimit:22.9256}.st6{stroke-linecap:round;stroke-linejoin:round;stroke:#000}.st8{stroke:#666;stroke-width:.6}</style><path class="st0" d="M45.727.437v202.396H1.061V308.5h44.666v26.333h619.572V.437z" id="fon_1_"/><g id="mebel_1_"><g id="mebel"><path class="st1" d="M263.249 319.409h.191m-.191-11.336h26.162m11.224 0h9.452m-46.838-11.336h25.256m13.036 0h8.549m-76.892-11.336h76.895m-76.891-11.335h76.895m-76.89-11.336h76.894m-76.892-11.336h.002m30.23 0h46.663m-16.919 59.569v-.189m0-20.837V242.57m-22.673 68.393V242.57m-22.672 53.192v-38.077M463.378 311.719l2.598-2.598m-9.545 2.598l9.394-9.394m-16.34 9.394l8.574-8.573m-15.522 8.573l8.36-8.36m12.027-12.026l3.053-3.053m-30.386 23.439l10.762-10.761m10.288-10.289l9.336-9.336m-37.333 30.386l16.44-16.44m4.208-4.208l16.685-16.684m-44.281 37.332l44.28-44.28m-51.226 44.28l47.233-47.233m-54.386 47.44l47.439-47.439m-47.439 40.491l40.492-40.492m-40.492 33.545l33.545-33.545m-33.545 26.598l26.598-26.598m-26.598 19.652l19.651-19.651m-19.651 12.703l12.704-12.704m-12.704 5.757l5.757-5.757m52.623 3.69l-3.691-3.69m3.691 10.637l-10.638-10.637m10.638 17.584l-17.584-17.584m17.584 24.531l-24.532-24.531m19.714 26.66l-26.66-26.66m31.478 38.425l-.544-.545M453.466 290.4l-25.914-25.914m38.425 45.371l-6.827-6.827m-11.294-11.293l-27.251-27.25m40.285 47.232l-8.13-8.129m-7.787-7.789l-31.315-31.315m40.285 47.233l-46.346-46.346m39.4 46.346l-39.4-39.4m32.453 39.4l-32.453-32.454m25.506 32.454l-25.506-25.506m18.559 25.506l-18.56-18.56m11.613 18.56l-11.612-11.612m4.665 11.612l-4.666-4.665"/><path class="st2" d="M204.504 86.737h4.156M209.416 85.981V45.927M208.66 45.171h-4.156M203.748 45.927v40.054M204.504 45.171H171.63M171.63 45.171v2.646M171.63 54.946v2.267M172.763 86.737h29.852M203.748 85.603V57.212M202.615 56.079h-29.852M171.63 57.212v28.391M172.763 46.683h29.852M203.748 47.817v7.129M202.615 56.079h-29.852M171.63 54.946v-7.129M202.615 51.973h-29.852M209.416 85.981a.756.756 0 01-.756.756M208.66 45.171c.417 0 .756.339.756.756M203.748 45.927c0-.417.338-.756.756-.756M204.504 86.737a.756.756 0 01-.756-.756M203.748 85.603c0 .626-.508 1.134-1.133 1.134M202.615 56.079c.625 0 1.133.508 1.133 1.133M171.63 57.212c0-.625.507-1.133 1.133-1.133M172.763 86.737a1.134 1.134 0 01-1.133-1.134M202.615 46.683c.625 0 1.133.508 1.133 1.134M203.748 54.946c0 .626-.508 1.133-1.133 1.133M172.763 56.079a1.133 1.133 0 01-1.133-1.133M171.63 47.817c0-.626.507-1.134 1.133-1.134M203.748 50.84c0 .626-.508 1.133-1.133 1.133M172.763 51.973a1.133 1.133 0 01-1.133-1.133M171.63 45.171h-37.786M171.63 45.171v2.646M133.844 45.171v2.646M171.63 54.946v2.267M133.844 54.946v2.267M134.977 86.737h35.519M171.63 85.603V57.212M170.496 56.079h-35.519M133.844 57.212v28.391M134.977 46.683h35.519M171.63 47.817v7.129M170.496 56.079h-35.519M133.844 54.946v-7.129M170.496 51.973h-35.519M171.63 85.603c0 .626-.508 1.134-1.134 1.134M170.496 56.079c.626 0 1.134.508 1.134 1.133M133.844 57.212c0-.625.507-1.133 1.133-1.133M134.977 86.737a1.134 1.134 0 01-1.133-1.134M170.496 46.683c.626 0 1.134.508 1.134 1.134M171.63 54.946c0 .626-.508 1.133-1.134 1.133M134.977 56.079a1.133 1.133 0 01-1.133-1.133M133.844 47.817c0-.626.507-1.134 1.133-1.134M171.63 50.84c0 .626-.508 1.133-1.134 1.133M134.977 51.973a1.133 1.133 0 01-1.133-1.133M100.969 86.737h-4.156M96.057 85.981V45.927M96.813 45.171h4.156M101.725 45.927v40.054M100.969 45.171h32.875M133.844 45.171v2.646M133.844 54.946v2.267M132.71 86.737h-29.852M101.725 85.603V57.212M102.858 56.079h29.852M133.844 57.212v28.391M132.71 46.683h-29.852M101.725 47.817v7.129M102.858 56.079h29.852M133.844 54.946v-7.129M102.858 51.973h29.852M96.813 86.737a.756.756 0 01-.756-.756M96.057 45.927c0-.417.338-.756.756-.756M100.969 45.171c.417 0 .756.339.756.756M101.725 85.981a.756.756 0 01-.756.756M102.858 86.737a1.134 1.134 0 01-1.133-1.134M101.725 57.212c0-.625.508-1.133 1.133-1.133M132.71 56.079c.626 0 1.134.508 1.134 1.133M133.844 85.603c0 .626-.508 1.134-1.134 1.134M101.725 47.817c0-.626.508-1.134 1.133-1.134M102.858 56.079a1.133 1.133 0 01-1.133-1.133M133.844 54.946c0 .626-.508 1.133-1.134 1.133M132.71 46.683c.626 0 1.134.508 1.134 1.134M102.858 51.973a1.133 1.133 0 01-1.133-1.133M133.844 50.84c0 .626-.508 1.133-1.134 1.133M172.763 101.851h29.849M203.745 100.718V87.87M202.612 86.737h-29.849M171.63 87.87v12.848M203.745 100.718c0 .625-.507 1.133-1.134 1.133M202.612 86.737c.626 0 1.134.507 1.134 1.133M171.63 87.87c0-.626.507-1.133 1.133-1.133M172.763 101.851a1.133 1.133 0 01-1.133-1.133M233.779 242.57h29.096m0 0l.401.166m0 0l.165.401m0 0v13.98m0 0l-.165.401m0 0l-.401.167m0 0h-29.096m0 0l-.401-.167m0 0l-.166-.401m0 0v-13.98m0 0l.166-.401m0 0l.401-.166M234.912 246.726h12.96m.908 0h12.961M262.308 247.293v8.691M261.741 256.551h-26.828M234.345 255.984v-8.691M261.741 246.726c.313 0 .567.254.567.567M262.308 255.984a.567.567 0 01-.567.567M234.912 256.551a.567.567 0 01-.567-.567M234.345 247.293c0-.313.253-.567.567-.567M249.083 249.715a.755.755 0 01-.303.605v-1.21a.757.757 0 01.303.605zm-1.21.604a.755.755 0 010-1.208v1.208zM248.78 243.099h-.907m0 0v7.748m0 0l.256.301m0 0h.395m0 0l.256-.301m0 0v-7.748M247.571 243.099h1.512m0 0v-.265m0 0h-1.512m0 0v.265M247.193 242.834h2.267m0 0v-.264m0 0h-2.267m0 0v.264M245.058 244.46v-1.625m0-.001h.094m0 0v-.132m0 0h.284m0 0v-.132m0 0h-1.89m0 0v.132m0 0h.284m0 0v.132m0 0h.094m0 0v1.625m0 .001h.322m0 0v.416m0-.001h-1.077m0 0v.491m0 0h2.644m0 0v-.491m0 0h-1.076m0 0v-.416m0 .001h.321M251.595 244.46v-1.625m0-.001h-.095m0 0v-.132m0 0h-.283m.001 0v-.132m0 0h1.889m0 0v.132m0 0h-.283m0 0v.132m0 0h-.095m0 0v1.625m0 .001h-.322m0 0v.416m0-.001h1.078m0 0v.491m0 0h-2.645m0 0v-.491m0 0h1.076m-.001 0v-.416m0 .001h-.321M244.245 244.875l.072.072M244.737 244.875l-.072.072M244.245 244.46h.491M243.924 242.834h1.134M245.152 242.703h-1.322M252.407 244.875l-.071.072M251.916 244.875l.072.072M252.407 244.46h-.491M252.728 242.834h-1.134M251.5 242.703h1.323M244.737 245.12a.246.246 0 11-.492 0 .246.246 0 01.492 0zM252.407 245.12a.246.246 0 11-.491 0 .246.246 0 01.491 0zM301.425 295.783l-.469-1.645m0 0l-.718-1.552m0 0l-.968-1.229m0 0l-1.248-.943m0 0l-1.448-.594m0-.001l-1.551-.206m0 .001l-1.551.206m0-.001l-1.448.594m0 .001l-1.248.943m0 0l-.967 1.229m0 0l-.719 1.552m0 0l-.469 1.645m0 0l-.207 1.698m0 0l.059 1.709m0 0l1.223 11.585m0 0h10.654m0 0l1.223-11.585m0 0l.06-1.709m0 0l-.208-1.698M290.906 305.053h4.117M295.023 305.053h4.116M291.959 290.786a5.746 5.746 0 013.064-.886M288.711 297.616c-.166-2.591 1.031-5.106 3.248-6.83M290.906 305.053c-1.505-2.253-2.266-4.828-2.195-7.437M301.334 297.616c.07 2.609-.689 5.185-2.195 7.437M298.086 290.786c2.217 1.723 3.414 4.238 3.248 6.83M295.023 289.9a5.74 5.74 0 013.063.886M290.375 310.774h9.295m0 0v-.189m0 0h-9.295m0 0v.189M304.469 310.774h-18.893M304.469 315.309h-18.893M304.469 310.774v4.535M285.576 310.774v4.535M233.186 325.965v-30.203M233.186 295.762h30.063M263.25 295.762v30.203M240.743 319.352a.945.945 0 11-1.89 0 .945.945 0 011.89 0zM247.823 312.981l-1.396-.372m0 0l-1.209-.793m0 0l-.898-1.132m0 0l-.496-1.358m0 0l-.043-1.445m0 0l.413-1.385m0 0l.829-1.184m0 0l1.159-.864m0 0l1.372-.455m0 0h1.445m0 0l1.372.455m0 0l1.16.864m0 0l.828 1.184m0 0l.414 1.385m0 0l-.044 1.445m0 0l-.495 1.358m0 0l-.898 1.132m0 0l-1.209.793m0 0l-1.397.372m0 0v5.538m0 0l.456-.108m0 0l.489-.037m0 0l.489.037m0 0l.455.108m0 0l.392.172m0 0l.3.225m0 0l.189.261m0 0l.064.281m0 0v.402m0 0l-.019.12m0 0l-.064.278m0 0l-.054.103m0 0l-.182.251m0 0l-.078.07m0 0l-.274.205m0 0l-.357.157m0 0l-.195.052m0 0l-.25.059m0 0l-.019.688m0 0l-.01.796m0 0h1.729m0 0v.435m0 0h2.871m0 0l.16.059m0 0l.083.148m0 0l-.033.166m0 0l-.133.106m0 0l-.486.157m0 0l-.725.315m0 0l-1.008.574m0 0l-.729.258m0 0v.125m0 0h.604m0 0v.982m0 0h-2.569m0 0v-.877m0 0l-.024-.01m0 0l-.039-.028m0 0l-.032-.034m0 0l-.026-.04m0 0l-.278-.673m0 0h-.697m0 0v1.36m0 0h1.058m0 0v.302m0 0h-3.023m0 0v-.302m0 0h1.058m0 0v-1.36m0 0h-1.436m0 0v-.151m0 0h-.416m0 0v.302m0 0h.152m0 0v.529m0 0h.604m0 0v.982m0 0h-2.569m0 0v-.982m0 0h.604m0 0v-.529m0 0h.152m0 0v-.302m0 0h-.152m0 0v-1.512m0 0h2.57m0 0v-2.154m0 0h.023m0 0h.059m0 0h.094m0 0h.124m0 0h.149m0 0h.042m0 0v-7.504M250.166 324.302h-.209m0 0l.14.341m0 0l.325.053m0 0l.009-.002m0 0v-.241m0 0h.151m0 0v-.302m0 0h-.416m0 0v.151M251.64 324.151v.24m0 0l.677-.239m0 0l.988-.564m0 0l.052-.023m0 0h-1.566m0 0v.586m0 0h-.151M245.783 324.982v-.529M245.102 324.982v-.529M251.44 324.982h.351M250.582 324.453h.188M250.77 324.453h.681M251.451 324.453h.014M250.77 324.629v-.176M251.451 324.458v-.005M251.64 324.151h-1.059M249.287 322.64h-.557M251.791 323.565v-.491M249.221 322.073h-.491M254.587 323.086l.076-.012M250.437 325.19l-.047-.002M250.607 325.158l-.17.032M249.892 325.106l-.046-.01M249.846 325.096l-.02-.009M251.791 324.858l-.453.161M251.338 325.018l-.73.139M250.482 324.685l-.06.011M254.587 323.086l-.512.167M254.075 323.253l-.718.312M251.38 325.001h-.001M250.39 325.188l-.498-.082M248.732 320.585l-.002.001M248.73 321.115l.002.002M250.166 323.755v.127M250.166 324v.103M250.166 323.882V324M249.956 324.302h-.523M251.204 324.546l-.722.139M251.64 324.391l-.436.155M249.486 323.669h.108a.108.108 0 00-.108-.108.108.108 0 10.108.108h-.108zM249.577 323.713l-.091-.044M249.675 323.728l-.098-.015M249.773 323.713l-.098.015M249.864 323.669l-.091.044M249.864 323.669h.108a.108.108 0 00-.216 0 .108.108 0 00.216 0h-.108zM250.019 321.172l-.345.026M249.675 321.198l-.345-.025M250.091 321.156l-.071.017M249.009 321.096l-.195-.051M249.33 321.172l-.321-.076M250.044 323.502l.009-.062M248.814 321.045l-.084-.037M249.259 321.156l.02.687M249.297 323.44l.009.062M249.306 323.502l.026.058M249.333 323.559l.041.051M249.374 323.609l.055.038M249.429 323.647l.056.021M249.486 323.668l.007.003M249.493 323.671l.068.008M249.561 323.68h.227M249.788 323.68l.069-.008M249.857 323.671l.007-.003M249.864 323.668l.056-.021M249.92 323.647l.055-.038M249.975 323.609l.042-.05M250.017 323.559l.026-.057M249.278 321.843l.019 1.597M250.062 322.64l-.009.8M250.166 322.942h-.107M249.291 322.942h-.561M247.823 312.981v-5.343M248.73 312.981v-5.343M247.823 307.639h.907M244.763 324.982h1.36M244.914 324.453h1.058M244.914 324.151h1.058M246.388 324.151v-1.209M250.166 322.942v1.209M247.823 325.663h.907M247.823 324.302v-3.816M248.73 318.519v5.783M246.388 322.942h1.436M247.332 322.64h.491M247.332 322.073h.491M249.221 322.64v-1.493M247.823 310.304a1.89 1.89 0 11.907 0M246.388 323.614a.34.34 0 110-.589M450.985 290.581l-1.645.469m0-.001l-1.552.718m0 0l-1.229.967m0 0l-.944 1.249m0 .001l-.593 1.448m0-.001l-.206 1.551m0 0l.206 1.551m0 .001l.593 1.447m0 0l.944 1.249m0-.001l1.229.967m0 0l1.552.719m0 .001l1.645.469m0-.001l1.698.207m0 .001l1.709-.059m0-.001l11.585-1.223m0 .001v-10.654m0-.001l-11.585-1.223m0 .001l-1.709-.06m0-.001l-1.698.208M460.255 301.099v-4.117M460.255 296.982v-4.117M445.988 300.046a5.742 5.742 0 01-.886-3.063M452.818 303.294c-2.591.165-5.107-1.031-6.83-3.249M460.255 301.099c-2.253 1.505-4.828 2.266-7.437 2.195M452.818 290.67c2.609-.07 5.185.69 7.437 2.195M445.988 293.919c1.723-2.217 4.238-3.413 6.83-3.249M445.102 296.982a5.742 5.742 0 01.886-3.063M465.977 301.63v-9.295m0 0h-.189m0 0v9.295m0 0h.189M465.977 287.536v18.893M470.511 287.536v18.893M465.977 287.536h4.534M465.977 306.429h4.534M437.259 326.833h-29.095m0 0l-.401-.166m0 0l-.166-.401m0 .001v-13.98m0-.001l.166-.401m0 0l.401-.166m0 0h29.095m0 0l.401.166m0 0l.166.401m0 0v13.98m0 .001l-.166.401m0-.001l-.401.166M436.125 322.677h-26.829M408.73 322.11v-8.691M409.297 312.852h26.829M436.692 313.419v8.691M409.297 322.677a.568.568 0 01-.567-.567M408.73 313.419c0-.313.254-.567.567-.567M436.125 312.852c.313 0 .567.254.567.567M436.692 322.11a.567.567 0 01-.567.567M423.467 319.689a.756.756 0 11-1.512 0 .756.756 0 011.512 0zM422.258 326.304h.907m0 0v-7.748m0 0l-.256-.301m0 0h-.395m0 0l-.256.301m0 0v7.748M423.467 326.304h-1.511m0 0v.265m0 0h1.511m0 0v-.265M423.845 326.569h-2.267m0 0v.264m0 0h2.267m0 0v-.264M425.98 324.944v1.625m0 0h-.095m0 0v.132m0 0h-.283m0 0v.132m0 0h1.889m0 0v-.132m0 0h-.283m0 0v-.132m0 0h-.095m0 0v-1.625m0 0h-.321m0 0v-.416m0 0h1.077m0 0v-.491m0 0h-2.645m0 0v.491m0 0h1.077m0 0v.416m0 0h-.321M419.442 324.944v1.625m0 0h.095m0 0v.132m0 0h.283m0 0v.132m0 0h-1.889m0 0v-.132m0 0h.283m0 0v-.132m0 0h.095m0 0v-1.625m0 0h.321m0 0v-.416m0 0h-1.077m0 0v-.491m0 0h2.645m0 0v.491m0 0h-1.077m0 0v.416m0 0h.321M426.792 324.529l-.072-.072M426.301 324.529l.072-.072M426.792 324.944h-.492M427.113 326.569h-1.133M425.885 326.701h1.323M418.63 324.529l.072-.072M419.122 324.529l-.072-.072M418.63 324.944h.492M418.309 326.569h1.133M419.537 326.701h-1.322M426.792 324.283a.246.246 0 01-.492 0 .246.246 0 01.492 0zM419.122 324.283a.246.246 0 01-.492 0 .246.246 0 01.492 0zM459.742 311.719h-21.917m0 0v15.303m0 0h21.917m0 0v-15.303M378.501 126.566v19.271m0 0l.222.534m0 0l.534.222m0 0h17.382m0 0l.534-.222m0 0l.222-.534m0 0v-19.271m0 0l-.222-.535m0 0l-.534-.221m0 0h-17.382m0 0l-.534.221m0 0l-.222.535M374.723 124.866v22.672M397.394 124.866v22.672M374.723 124.866h22.672M374.723 147.538h22.672M380.39 128.456v15.491M381.146 144.704h11.714M393.616 143.947v-15.491M392.86 127.7h-11.714M380.391 128.456h.108a.108.108 0 10-.216 0 .108.108 0 00.216 0h-.108zM381.146 144.704a.756.756 0 01-.756-.756M393.616 143.947a.756.756 0 01-.755.756M392.86 127.7c.417 0 .755.339.755.756M380.39 128.456c0-.417.338-.756.756-.756M388.783 135.862l-.24.1m0 0l-.099.241m0 0l.1.24m0 0l.241.099m0 0h7.476m0 0l.24-.1m0 0l.1-.24m0 0l-.1-.24m0 0l-.24-.1m0 0h-7.478M394.334 135.447v.415m0 0h1.927m0 0l.24.099m0 0l.1.24m0 0l-.1.241m0 0l-.24.1m0 0h-1.927m0 0v.414m0 0h2.456m0 0v-1.509m0 0h-2.456M392.973 135.458v.404m0-.001h1.322m0 0v-.404m0 .001h-1.322M392.973 136.946h1.322m0 0v-.404m0 0h-1.322m0 0v.404M374.723 102.194v22.672M397.394 102.194v22.672M374.723 102.194h22.672M374.723 124.866h22.672M376.801 63.652v21.917m0 0h18.515m0 0V63.652m0 0h-18.515M388.081 74.61h5.299M393.38 74.61v1.096M388.081 74.61v1.096M388.081 83.464h5.299M393.38 82.368v1.096M388.081 82.368v1.096M393.686 68.364a2.74 2.74 0 11-5.479-.001 2.74 2.74 0 015.479.001zM386.675 69.635a3.967 3.967 0 11-7.934 0 3.967 3.967 0 017.934 0z"/><path class="st2" d="M384.975 69.635a2.267 2.267 0 11-4.535 0 2.267 2.267 0 014.535 0z"/><circle class="st2" cx="390.761" cy="79.037" r="2.645"/><path class="st2" d="M385.571 80.155a3.4 3.4 0 11-6.802 0 3.4 3.4 0 016.802 0zM374.723 47.026v55.168M397.394 47.026v55.168M374.723 47.026h22.672M374.723 102.194h22.672M374.723 147.538v22.672m0-.001h22.672m0 0v-22.672m0 .001h-22.672M389.837 158.873h-7.558M388.73 156.201l-5.344 5.345M386.059 155.095v7.557M383.387 156.201l5.343 5.345M374.723 47.026V24.354m0 0h22.672m0 0v22.672m0 0h-22.672M387.529 110.373a3.411 3.411 0 11-6.822 0 3.411 3.411 0 016.822 0z"/><path class="st2" d="M387.008 110.373a2.89 2.89 0 11-5.78 0 2.89 2.89 0 015.78 0zM385.865 116.682a2.58 2.58 0 11-5.161-.001 2.58 2.58 0 015.161.001z"/><path class="st2" d="M384.731 116.682a1.444 1.444 0 11-2.889.001 1.444 1.444 0 012.889-.001zM90.381 325.913h68.015m0 0v-3.778m0 0H90.381m0 0v3.778M96.805 185.324V170.21m0 0h94.466m-.001 0v15.114m0 0H96.805M167.692 180.443v1.02m0 0h-44.37m0 0v-1.02m0 0h44.37M158.23 181.463v.832m0 0l-.152.567m0 0l-.414.415m0 0l-.567.152m0 0h-22.7m0 0l-.566-.152m.001 0l-.415-.415m0 0l-.152-.567m-.001 0v-.832m0 0h24.966M167.692 180.145v.298m0 0h-44.37m0 0v-.298m0 0h44.37M125.027 120.919v-18.894m0 0h37.903m0 0v18.894m0 0h-37.903M180.312 303.262v22.672m0 0h49.851m0 0v-22.672m0 0h-49.851M230.163 314.976v-.756m0 0h-49.851m0 0v.756m0 0h49.851M186.899 305.255v18.626m0 0h.756m0 0v-18.626m0 0h-.756M188.903 305.255v18.626m0 0h.756m0 0v-18.626m0 0h-.756M190.908 305.255v18.626m0 0h.755m0 0v-18.626m0 0h-.755M192.913 305.255v18.626m0 0h.756m0 0v-18.626m0 0h-.756M197.159 305.391l-2.241 18.491m0 0l.75.091m0 0l2.241-18.492m0 0l-.75-.09M197.316 239.547h-17.004m0 0v63.715m0 0h17.004m0 0v-63.715M335.803 239.547H313.13m0 0l-.027 86.433m.001 0l13.253.004m0 0v1.038m0 0h9.446m0 0v-87.475M324.089 325.984h.756m0 0v-86.437m0 0h-.756m0 0v86.437M333.81 246.134h-18.626m0 0v.756m0 0h18.626m0 0v-.756M333.81 248.139h-18.626m0 0v.755m0 0h18.626m0 0v-.755M333.81 250.143h-18.626m0 0v.756m0 0h18.626m0 0v-.756M333.81 252.148h-18.626m0 0v.756m0 0h18.626m0 0v-.756M333.674 256.394l-18.491-2.242m0 0l-.091.751m0 0l18.492 2.241m0 0l.09-.75M90.381 246.562h68.015m0 0v75.573m0 0H90.381m0 0v-75.573M92.27 244.673h64.237m0 0l.723.144m0 0l.613.409m0 0l.409.614m0 0l.144.722m0 0H90.381m0 0l.144-.722m0 0l.409-.614m0 0l.613-.409m0 0l.723-.144M90.381 325.913h68.015m0 0v-3.778m0 0H90.381m0 0v3.778M158.396 325.913H90.381m0 0v-1.889m0 0h68.015m0 0v1.889M160.285 325.913h17.004m0 0V307.02m0 0h-17.004m0 0v18.893M88.491 325.913H71.487m0 0V307.02m0 0h17.004m0 0v18.893M130.434 320.246h25.695m0 0l.267-.111m0 0l.111-.267m0 0v-12.47m0-.001l-.111-.267m0 0l-.267-.111m0 .001h-25.695m0 0l-.267.111m0-.001l-.11.267m0 0v12.47m0 .001l.11.267m0 0l.267.111M118.343 320.246H92.648m0 0l-.267-.111m0 0l-.111-.267m0 0v-12.47m0-.001l.111-.267m0 0l.267-.111m0 .001h25.695m0 0l.267.111m0-.001l.11.267m0 0v12.47m0 .001l-.11.267m0 0l-.267.111M90.381 308.043h1.889M118.72 308.043h11.336M156.507 308.043h1.889M90.381 303.034h68.015m0 0v-18.686m0 0l-68.015 14.908m0 0v3.778M451.618 120.61V52.594m0 0h75.573m0 0v68.016m0 0h-75.573M449.728 118.721V54.484m0 0l.144-.723m0 0l.409-.613m0 0l.613-.409m0-.001l.723-.144m0 .001v68.015m0 0l-.723-.144m0 0l-.613-.41m0 0l-.409-.612m0 0l-.144-.723M530.969 120.61V52.594m0 0h-3.778m0 0v68.016m0 0h3.778M530.969 52.594v68.016m0 0h-1.89m0 0V52.594m0 0h1.89M530.969 50.705V33.701m0 0h-18.894m0 0v17.004m0 0h18.894M530.969 122.499v17.003m0 0h-18.894m0 0v-17.003m0 0h18.894M525.301 80.556V54.862m0 0l-.11-.268m0 0l-.268-.11m0 0h-12.47m0 0l-.266.11m0 0l-.112.268m0 0v25.694m0 0l.112.267m0 0l.266.111m0 0h12.47m0 0l.268-.111m0 0l.11-.267M525.301 92.648v25.695m0 0l-.11.267m0 0l-.268.111m0 0h-12.47m0 0l-.266-.111m0 0l-.112-.267m0 0V92.648m0 0l.112-.268m0 0l.266-.11m0 0h12.47m0 0l.268.11m0 0l.11.268M513.099 120.61v-1.889M513.099 92.27V80.934M513.099 54.484v-1.89M508.09 120.61V52.594m0 0h-18.686m0 0l14.908 68.016m0 0h3.778M530.969 217.253h-22.672m0 0V141.77m0 0h22.672m0 0v75.483M519.633 141.77h.756m0 0v75.483m0 0h-.756m0 0V141.77M529.354 210.666h-18.627m0 0v-.756m0 0h18.627m0 0v.756M529.354 208.662h-18.627m0 0v-.756m0 0h18.627m0 0v.756M529.354 206.658h-18.627m0 0v-.756m0 0h18.627m0 0v.756M529.354 204.653h-18.627m0 0v-.756m0 0h18.627m0 0v.756M529.219 200.407l-18.491 2.241m0 0l-.091-.75m0 0l18.491-2.241m0-.001l.091.75M381.911 106.304v.964m0 0h-1.205m0 0v12.524m0 0h1.205m0 0v.963M391.915 107.768v9.634m0 0h-.479m0 0v-.722m0 0h.238m0 0v-8.189m0 0h-.238m0 0v-.723m0 0h.479M391.436 107.768l-.103.048m-.103.047l-.104.047m-.103.047l-.103.047m-.103.047l-.103.048m-.103.046l-.103.048m-.103.047l-.103.047m-.103.047l-.103.047m-.103.048l-.103.047m-.102.047l-.103.047m-.105.047l-.102.047m-.103.047l-.103.048m-.104.047l-.103.047m-.103.047l-.103.047m-.103.048l-.104.046m-.102.047l-.104.048m-.103.047l-.103.047m-.103.047l-.103.048M391.436 117.402l-.103-.047m-.103-.047l-.104-.047m-.103-.047l-.103-.047m-.103-.048l-.103-.047m-.103-.047l-.103-.047m-.103-.047l-.103-.048m-.103-.046l-.103-.047m-.103-.048l-.103-.047m-.102-.047l-.103-.047m-.105-.048l-.102-.047m-.103-.047l-.103-.047m-.104-.047l-.103-.047m-.103-.047l-.103-.047m-.103-.048l-.104-.047m-.102-.047l-.104-.047m-.103-.047l-.103-.047m-.103-.048l-.103-.047M391.436 107.768v.078m0 .113v.114m0 .113v.114m0 .113v.078m0 0l-.052.042m-.088.071l-.088.072m-.086.071l-.089.071m-.089.072l-.088.071m-.087.072l-.089.071m-.088.072l-.088.071m-.087.072l-.088.071m-.088.071l-.088.072m-.089.071l-.087.072m-.089.071l-.088.072m-.088.071l-.088.072m-.088.071l-.088.071m-.088.072l-.088.071m-.088.072l-.088.071m-.088.072l-.088.072m-.087.071l-.088.071m-.088.071l-.088.072m-.089.072l-.088.071m-.088.072l-.088.071m-.088.071l-.088.071m-.088.072l-.088.072m-.088.071l-.088.072m-.088.071l-.051.042M391.436 117.402v-.077m0-.114v-.113m0-.113v-.114m0-.114v-.077m0 0l-.052-.042m-.088-.071l-.088-.072m-.086-.072l-.089-.071m-.089-.071l-.088-.072m-.087-.071l-.089-.072m-.088-.071l-.088-.072m-.087-.071l-.088-.072m-.088-.071l-.088-.071m-.089-.072l-.087-.071m-.089-.072l-.088-.071m-.088-.072l-.088-.071m-.088-.072l-.088-.071m-.088-.071l-.088-.072m-.088-.071l-.088-.072m-.088-.071l-.088-.072m-.087-.071l-.088-.071m-.088-.072l-.088-.071m-.089-.072l-.088-.071m-.088-.072l-.088-.071m-.088-.072l-.088-.071m-.088-.071l-.088-.072m-.088-.071l-.088-.072m-.088-.071l-.051-.042M478.635 319.087h22.672m0 0v-54.601m0 0h-22.672m0 0v54.601M489.971 264.486h-.755m0 0v54.601m0 0h.755m0 0v-54.601M480.25 312.5h18.626m0 0v-.756m0 0H480.25m0 0v.756M480.25 310.496h18.626m0 0v-.756m0 0H480.25m0 0v.756M480.25 308.492h18.626m0 0v-.756m0 0H480.25m0 0v.756M480.25 306.487h18.626m0 0v-.756m0 0H480.25m0 0v.756M480.385 302.241l18.491 2.241m0 0l.091-.75m0 0l-18.491-2.241m0 0l-.091.75M437.826 311.719h21.917m0 0v15.303m0 0h-21.917m0 0v-15.303M83.768 316.467a3.78 3.78 0 11-7.558 0 3.78 3.78 0 017.558 0z"/><path class="st2" d="M81.123 316.467a1.134 1.134 0 11-2.267 0 1.134 1.134 0 012.267 0zM172.566 316.467a3.78 3.78 0 11-7.558 0 3.78 3.78 0 017.558 0z"/><path class="st2" d="M169.921 316.467a1.134 1.134 0 11-2.267 0 1.134 1.134 0 012.267 0zM525.301 42.203a3.778 3.778 0 11-7.557.001 3.778 3.778 0 017.557-.001z"/><path class="st2" d="M522.656 42.203a1.134 1.134 0 11-2.269 0 1.134 1.134 0 012.269 0zM525.301 131.001a3.778 3.778 0 11-7.557.001 3.778 3.778 0 017.557-.001z"/><path class="st2" d="M522.656 131.001a1.134 1.134 0 11-2.269 0 1.134 1.134 0 012.269 0zM76.31 317.327l3.679-.86m0 0l1.584-3.431m0 0l-1.584 3.431m0 0l1.307 3.545M172.467 317.327l-3.68-.86m0 0l-1.583-3.431m0 0l1.583 3.431m0 0l-1.306 3.545M520.662 38.524l.86 3.679m0 0l3.431 1.584m0 0l-3.431-1.584m0 0l-3.546 1.306M520.662 134.68l.86-3.679m0 0l3.431-1.584m0 0l-3.431 1.584m0 0l-3.546-1.306M317.665 75.745h3.029m0 0v-.859m0 0V57.711m0 0v-.859m0 0h-3.029M324.121 56.852h-3.427m0 0v.859m0 0h3.224m0 0v-.058m0 0l-.196-.293m0 0l.087-.343m0 0l.312-.165M326.48 57.653l-.196-.293m0 0l.087-.343m0 0l.312-.165m0 0h-2.562m0 0l-.312.165m0 0l-.087.343m0 0l.196.293m0 0v17.291m0 0l-.196.293m0 0l.087.343m0 0l.312.165m0 0h2.562m0 0l-.312-.165m0 0l-.087-.343m0 0l.196-.293m0 0V57.653M324.121 75.745l-.312-.165m0 0l-.087-.342m0 0l.196-.294m0 0v-.058m0 0h-3.224m0 0v.859m0 0h3.427M326.886 58.516v15.565m0 0l.227-1.004m0 0V59.52m0 0l-.227-1.004M326.886 57.653l.196-.293m-.001 0l-.086-.343m.001 0l-.313-.165m0 0l-.312.165m0 0l-.087.343m0 0l.196.293m0 0v17.291m0 0l-.196.293m0 0l.087.343m0 0l.312.165m0 0l.313-.165m0 0l.086-.343m-.001 0l-.196-.293m.001 0V57.653M317.665 97.661h3.029m0 0v-.859m0 0V79.627m0 0v-.859m0 .001h-3.029M324.121 78.768h-3.427m0 0v.859m0 0h3.224m0 0v-.058m0 0l-.196-.294m0 0l.087-.342m0 0l.312-.165M326.48 79.57l-.196-.294m0 0l.087-.342m0 0l.312-.165m0 0h-2.562m0 0l-.312.165m0 0l-.087.342m0 0l.196.294m0 0v17.291m0 0l-.196.293m0 0l.087.343m0-.001l.312.165m0 .001h2.562m0 0l-.312-.165m0-.001l-.087-.343m0 .001l.196-.293m0 0V79.57M324.121 97.661l-.312-.165m0 0l-.087-.342m0 0l.196-.294m0 0v-.058m0 0h-3.224m0 0v.859m0 0h3.427M326.886 80.432v15.565m0 0l.227-1.004m0 0V81.437m0 0l-.227-1.005M326.886 79.57l.196-.294m-.001 0l-.086-.342m.001 0l-.313-.165m0 0l-.312.165m0 0l-.087.342m0 0l.196.294m0 0v17.291m0 0l-.196.293m0 0l.087.343m0-.001l.312.165m0 .001l.313-.165m0-.001l.086-.343m-.001.001l-.196-.293m.001 0V79.57M283.658 75.745h-3.029m.001 0v-.859m0 0V57.711m0 0v-.859m0 0h3.029M277.202 56.852h3.427m.001 0v.859m0 0h-3.224m-.001 0v-.058m0 0l.196-.293m.001 0l-.087-.343m0 0l-.312-.165M274.844 57.653l.196-.293m0 0l-.086-.343m-.001 0l-.313-.165m.001 0h2.562m-.001 0l.312.165m.001 0l.087.343m0 0l-.196.293m-.001 0v17.291m0 0l.196.293m.001 0l-.087.343m0 0l-.312.165m-.001 0h-2.562m.001 0l.313-.165m-.001 0l.086-.343m.001 0l-.196-.293m0 0V57.653M277.202 75.745l.312-.165m.001 0l.087-.342m0 0l-.196-.294m-.001 0v-.058m0 0h3.224m.001 0v.859m0 0h-3.427M274.438 58.516v15.565m0 0l-.227-1.004m0 0V59.52m0 0l.227-1.004M274.438 57.653l-.196-.293m0 0l.087-.343m0 0l.312-.165m0 0l.313.165m0 0l.086.343m0 0l-.196.293m0 0v17.291m0 0l.196.293m0 0l-.086.343m0 0l-.313.165m0 0l-.312-.165m0 0l-.087-.343m0 0l.196-.293m0 0V57.653M283.658 97.661h-3.029m.001 0v-.859m0 0V79.627m0 0v-.859m0 .001h3.029M277.202 78.768h3.427m.001 0v.859m0 0h-3.224m-.001 0v-.058m0 0l.196-.294m.001 0l-.087-.342m0 0l-.312-.165M274.844 79.57l.196-.294m0 0l-.086-.342m-.001 0l-.313-.165m.001 0h2.562m-.001 0l.312.165m.001 0l.087.342m0 0l-.196.294m-.001 0v17.291m0 0l.196.293m.001 0l-.087.343m0-.001l-.312.165m-.001.001h-2.562m.001 0l.313-.165m-.001-.001l.086-.343m.001.001l-.196-.293m0 0V79.57M277.202 97.661l.312-.165m.001 0l.087-.342m0 0l-.196-.294m-.001 0v-.058m0 0h3.224m.001 0v.859m0 0h-3.427M274.438 80.432v15.565m0 0l-.227-1.004m0 0V81.437m0 0l.227-1.005M274.438 79.57l-.196-.294m0 0l.087-.342m0 0l.312-.165m0 0l.313.165m0 0l.086.342m0 0l-.196.294m0 0v17.291m0 0l.196.293m0 0l-.086.343m0-.001l-.313.165m0 .001l-.312-.165m0-.001l-.087-.343m0 .001l.196-.293m0 0V79.57M317.665 100.685h3.029m0 0v.859m0 0v17.175m0 0v.859m0 0h-3.029M324.121 119.578h-3.427m0 0v-.859m0 0h3.224m0 0v.058m0 0l-.196.294m0 0l.087.342m0 0l.312.165M326.48 118.777l-.196.294m0 0l.087.342m0-.001l.312.165m0 0h-2.562m0 0l-.312-.165m0 0l-.087-.342m0 .001l.196-.294m0 0v-17.291m0 0l-.196-.293m0-.001l.087-.343m0 .001l.312-.165m0 0h2.562m0 0l-.312.165m0 0l-.087.343m0-.001l.196.293m0 .001v17.291M324.121 100.685l-.312.165m0 0l-.087.343m0 0l.196.293m0 0v.058m0 0h-3.224m0 0v-.859m0 0h3.427M326.886 117.914v-15.565m0 0l.227 1.004m0 0v13.556m0 0l-.227 1.005M326.886 118.777l.196.294m-.001 0l-.086.342m.001-.001l-.313.165m0 0l-.312-.165m0 0l-.087-.342m0 .001l.196-.294m0 0v-17.291m0 0l-.196-.293m0-.001l.087-.343m0 .001l.312-.165m0 0l.313.165m0 0l.086.343m-.001-.001l-.196.293m.001.001v17.291M283.658 100.685h-3.029m.001 0v.859m0 0v17.175m0 0v.859m0 0h3.029M277.202 119.578h3.427m.001 0v-.859m0 0h-3.224m-.001 0v.058m0 0l.196.294m.001 0l-.087.342m0 0l-.312.165M274.844 118.777l.196.294m0 0l-.086.342m-.001-.001l-.313.165m.001 0h2.562m-.001 0l.312-.165m.001 0l.087-.342m0 .001l-.196-.294m-.001 0v-17.291m0 0l.196-.293m.001-.001l-.087-.343m0 .001l-.312-.165m-.001 0h-2.562m.001 0l.313.165m-.001 0l.086.343m.001-.001l-.196.293m0 .001v17.291M277.202 100.685l.312.165m.001 0l.087.343m0 0l-.196.293m-.001 0v.058m0 0h3.224m.001 0v-.859m0 0h-3.427M274.438 117.914v-15.565m0 0l-.227 1.004m0 0v13.556m0 0l.227 1.005M274.438 118.777l-.196.294m0 0l.087.342m0-.001l.312.165m0 0l.313-.165m0 0l.086-.342m0 .001l-.196-.294m0 0v-17.291m0 0l.196-.293m0-.001l-.086-.343m0 .001l-.313-.165m0 0l-.312.165m0 0l-.087.343m0-.001l.196.293m0 .001v17.291M283.658 127.89h34.007m0 0V48.539m0 0h-34.007m0 0v79.351"/><g><path class="st2" d="M575.746 120.61V52.594m0 0h75.572m0 0v68.016m0 0h-75.572M573.856 118.721V54.484m0 0l.144-.723m0 0l.41-.613m0 0l.612-.409m0-.001l.724-.144m.001.001v68.015m0 0l-.724-.144m-.001 0l-.612-.41m0 0l-.41-.612m0 0l-.144-.723M655.096 120.61V52.594m0 0h-3.778m.001 0v68.016m0 0h3.778M655.096 50.705V33.701m0 0h-18.893m.001 0v17.004m0 0h18.893M655.096 122.499v17.003m0 0h-18.893m.001 0v-17.003m0 0h18.893M649.429 80.556V54.862m0 0l-.11-.268m0 0l-.268-.11m0 0h-12.469m0 0l-.267.11m0 0l-.111.268m0 0v25.694m0 0l.111.267m0 0l.267.111m0 0h12.469m0 0l.268-.111m0 0l.11-.267M649.429 92.648v25.695m0 0l-.11.267m0 0l-.268.111m0 0h-12.469m0 0l-.267-.111m0 0l-.111-.267m0 0V92.648m0 0l.111-.268m0 0l.267-.11m0 0h12.469m0 0l.268.11m0 0l.11.268M637.227 120.61v-1.889M637.227 92.27V80.934M637.227 54.484v-1.89M632.218 120.61V52.594m0 0h-18.686m0 0l14.908 68.016m0 0h3.778M649.429 42.203a3.778 3.778 0 11-7.557.001 3.778 3.778 0 017.557-.001z"/><path class="st2" d="M646.784 42.203a1.134 1.134 0 11-2.269 0 1.134 1.134 0 012.269 0zM649.429 131.001a3.778 3.778 0 11-7.557.001 3.778 3.778 0 017.557-.001z"/><path class="st2" d="M646.784 131.001a1.134 1.134 0 11-2.269 0 1.134 1.134 0 012.269 0zM644.79 38.524l.86 3.679m0 0l3.431 1.584m0 0l-3.431-1.584m0 0l-3.546 1.306M644.79 134.68l.86-3.679m0 0l3.431-1.584m0 0l-3.431 1.584m0 0l-3.546-1.306"/></g><g><path class="st1" d="M642.662 285.268l2.421-2.421m-9.368 2.421l9.368-9.368m-16.315 9.368l11.551-11.551m-18.498 11.551l10.801-10.801m11.96-11.96l.501-.501m-30.209 23.262l12.12-12.12m11.305-11.304l6.784-6.784m-37.156 30.208l16.158-16.158m7.829-7.829l10.776-10.776m-41.711 34.763l34.763-34.763m-41.709 34.763l35.936-35.935m-42.883 35.935l42.883-42.882m-49.831 42.882l49.831-49.83m15.035-15.034l.079-.079m-66.503 59.554l51.389-51.389m-51.389 44.443l51.389-51.389m-51.389 44.443l45.71-45.711m-45.71 38.763l38.763-38.763m-38.763 31.817l31.816-31.817m-31.816 24.869l24.87-24.869m-24.87 17.923l17.923-17.923m-17.923 10.975l10.975-10.975m-10.975 4.029l4.028-4.029m47.361 3.485l-3.485-3.485m3.485 10.432l-10.432-10.432m25.546 32.492l-2.262-2.262m-12.852-12.852l-17.379-17.378m32.493 39.439l-9.21-9.209m-5.904-5.905l-24.326-24.325m34.854 41.8l-41.801-41.8m46.387 53.333l-.356-.356m-11.941-11.941l-41.037-41.036m53.334 60.28l-6.641-6.64m-11.339-11.34l-42.301-42.3m58.045 64.992l-10.781-10.781m-7.962-7.963L578.58 221m57.32 64.268l-57.32-57.32m50.373 57.32l-50.374-50.374m43.428 50.374l-43.427-43.426m36.479 43.426l-36.48-36.48m29.533 36.48l-29.532-29.532m22.586 29.532l-22.586-22.586m15.638 22.586L578.58 269.63m8.692 15.638l-8.692-8.692m1.745 8.692l-1.746-1.746"/><path class="st2" d="M630.092 261.485l-1.645.468m0 0l-1.551.719m0 0l-1.231.967m0 0l-.942 1.249m0 0l-.594 1.448m0 0l-.206 1.551m0 0l.206 1.551m0 0l.594 1.447m0 0l.942 1.249m0 0l1.231.967m0 0l1.551.719m0 0l1.645.469m0 0l1.698.207m0 0l1.709-.059m0 0l11.585-1.223m0 0V262.56m0 0l-11.585-1.223m0 0l-1.709-.06m0 0l-1.698.208M639.362 272.003v-4.116M639.362 267.887v-4.117M625.096 270.951a5.743 5.743 0 01-.887-3.063M631.925 274.199c-2.591.165-5.106-1.031-6.829-3.248M639.362 272.003c-2.253 1.505-4.828 2.266-7.437 2.195M631.925 261.575c2.609-.07 5.185.69 7.437 2.195M625.096 264.823c1.723-2.217 4.238-3.413 6.829-3.248M624.209 267.887a5.735 5.735 0 01.887-3.064M645.084 272.535v-9.295m0 0h-.189m0 0v9.295m0 0h.189M645.084 258.44v18.893M649.618 258.44v18.893M645.084 258.44h4.534M645.084 277.333h4.534M645.084 220.843v29.095m0 0l-.167.401m0 0l-.4.166m0 0h-13.981m0 0l-.401-.166m0 0l-.166-.401m0 0v-29.095m0 0l.166-.401m0 0l.401-.166m0 0h13.981m0 0l.4.166m0 0l.167.401M640.927 221.977v12.96m0 .907v12.961M640.36 249.371h-8.691M631.102 248.805v-26.828M631.669 221.41h8.691M640.927 248.805a.566.566 0 01-.566.566M631.669 249.371a.567.567 0 01-.566-.566M631.102 221.977c0-.313.254-.567.566-.567M640.36 221.41c.313 0 .566.254.566.567M638.543 235.844a.756.756 0 01-1.21 0h1.21zm-1.209-.907a.755.755 0 011.209 0h-1.209zM644.555 235.844v-.907m0 0h-7.748m-.001 0l-.301.256m.001 0v.395m0 0l.301.256m-.001 0h7.748M644.555 234.635v1.511m0 0h.265m-.001 0v-1.511m0 0h-.265M644.819 234.257v2.267m0 0h.265m0 0v-2.267m0 0h-.265M643.194 232.122h1.625m0 0v.095m0 0h.132m0 0v.283m0 0h.133m0 0v-1.889m0 0h-.133m0 0v.283m0 0h-.132m0 0v.095m0 0h-1.625m0 0v.321m0 0h-.416m0 0v-1.077m0 0h-.491m0 0v2.645m0 0h.491m0 0v-1.077m0 0h.416m0 0v.321M643.194 238.659h1.625m0 0v-.094m0 0h.132m0 0v-.284m0 0h.133m0 0v1.889m0 0h-.133m0 0v-.283m0 0h-.132m0 0v-.095m0 0h-1.625m0 0v-.321m0 0h-.416m0 0v1.077m0 0h-.491m0 0v-2.645m0 0h.491m0 0v1.077m0 0h.416m0 0v-.321M642.778 231.31l-.071.072M642.778 231.801l-.071-.072M643.194 231.31v.491M644.819 230.989v1.133M644.951 232.217v-1.323M642.778 239.472l-.071-.072M642.778 238.98l-.071.072M643.194 239.472v-.491M644.819 239.792v-1.132M644.951 238.565v1.322M642.778 231.556a.246.246 0 11-.491 0 .246.246 0 01.491 0zM642.778 239.226a.245.245 0 11-.491 0 .246.246 0 11.491 0zM655.096 311.719h-76.518m.001 0v-26.451m0 0h76.518m-.001 0v26.451M646.17 287.385l1.107.08m0 0l1.074.239m0 0l1.007.389m0 0l.911.53m0 0l.786.652m0 0l.637.755m0 0l.47.836m0 0l.287.891m0 0l.097.918m0 0v11.638m0 0l-.097.919m0 0l-.287.891m0 0l-.47.835m0 0l-.637.756m0 0l-.786.651m0 0l-.911.53m0 0l-1.007.389m0 0l-1.074.239m0 0l-1.107.08m0 0h-51.649m0 0l-2.326-.169m0 0l-2.254-.501m0 0l-2.116-.818m0 0l-1.912-1.111m0 0l-1.65-1.369m0 0l-1.338-1.586m0 0l-.987-1.755m0 0l-.604-1.871m0 0l-.204-1.929m0 0l.204-1.929m0 0l.604-1.87m0 0l.987-1.756m0 0l1.338-1.586m0 0l1.65-1.369m0 0l1.912-1.111m0 0l2.116-.818m0 0l2.254-.502m0 0l2.326-.168m0 0h51.649M646.973 298.493a.945.945 0 11-1.89 0 .945.945 0 011.89 0zM571.4 305.56a7.18 7.18 0 11-14.36 0 7.18 7.18 0 0114.36 0zM655.096 217.253v-22.672m0 0h-70.471m0 0v22.672m0 0h70.471M584.626 205.917v.756m0 0h70.471m0 0v-.756m0 0h-70.471M648.511 215.638v-18.626m0 0h-.756m0 0v18.626m0 0h.756M646.506 215.638v-18.626m0 0h-.756m0 0v18.626m0 0h.756M644.501 215.638v-18.626m0 0h-.756m0 0v18.626m0 0h.756M642.496 215.638v-18.626m0 0h-.756m0 0v18.626m0 0h.756M638.25 215.503l2.241-18.491m0 0l-.75-.091m0 0l-2.241 18.491m0 0l.75.091M558.213 305.044l1.233.449m0 0h1.313m0 0l1.232-.449m0 0l1.474.342m0 0h1.513m0 0l1.472-.342m0 0l1.235.45m0 0h1.314m0 0l1.235-.45m0 0l-2.232 2.987m0 0h-7.558m0 0l-2.231-2.987M560.444 308.293h7.558m0 0v-.261m0 0h-7.558m0 0v.261M560.444 308.816h7.558m0 0v-.262m0 0h-7.558m0 0v.262M565.064 303.529l-.891-.085m.001 0l-.022.226m-.001 0l.477.046m0 0l-1.383 1.142m0 0l.126.152m0 0l.641-.53m.001 0l.068.081m0 0l-.74.611m-.001 0l.121.147m0 0l.74-.611m0 0l.081.097m0 0l-.602.496m0 0l.108.131m0 0l.6-.497m0 0l.081.098m0 0l-.415.342m0 0l.116.14m0 0l1.422-1.174M552.885 296.415h22.672m0 0v22.672m0 0h-22.672m0 0v-22.672"/></g></g></g><g id="walls_2_"><path d="M351.607 351.695c-2.115-5.671-2.898-9.61-3.203-15.556" fill="none" stroke="#000" stroke-linecap="round" stroke-linejoin="round" stroke-miterlimit="3"/><path class="st4" d="M351.645 351.797l35.632-15.409v-.248h.573l.003-.001v-1.511h-.454l-36.354 15.782z"/><path class="st5" d="M243.559 267.305c-4.294-1.604-6.482-2.042-11.059-2.277"/><path class="st4" d="M243.658 267.341l-1.387-.601-11.291 25.946v.454h1.511z"/><path class="st5" d="M282.865 230.854c4.811 1.795 7.43 2.321 12.558 2.583"/><path class="st4" d="M282.764 230.816l1.387.6 12.783-29.417v-.455h-1.512z"/><path class="st5" d="M441.97 204.746c1.8 4.81 2.323 7.429 2.585 12.556"/><path class="st4" d="M441.935 204.643l-29.271 12.659v1.511h.453l29.418-12.782z"/><g><path class="st5" d="M567.418 204.75c1.817 4.87 2.332 7.36 2.598 12.551"/><path class="st4" d="M567.396 204.643l-29.272 12.659v1.511h.454l29.418-12.782z"/></g><g><path class="st5" d="M544.166 275.587c-1.604-4.298-2.03-6.471-2.263-11.052"/><path class="st4" d="M544.202 275.687l25.813-11.153v-1.511h-.453l-25.951 11.283z"/></g><g><path class="st5" d="M438.463 275.584c1.589-3.904 2.4-7.619 2.314-11.049"/><path class="st4" d="M438.432 275.685l.635-1.379-25.95-11.283h-.453l.003 1.532z"/></g><g><path class="st5" d="M588.628 251.063c-4.177 1.56-6.301 1.984-10.753 2.212"/><path class="st4" d="M588.727 251.023l-10.852-25.106h-1.511v.453l10.982 25.256z"/></g><g><path class="st5" d="M45.844 202.959H.5m0 0v105.802m0 0h45.344m0 0V202.959M1.256 308.005h44.588m0 0V203.714m0 0H1.256m0 0v104.291"/><g><path class="st5" d="M53.401 214.295h16.248M45.844 214.295h5.668M51.512 214.295h1.889M53.401 297.424h16.248M45.844 297.424h5.668M51.512 297.424h1.889M45.844 297.424v-83.128M69.649 297.424v-83.128M53.401 297.424v-3.779M53.401 293.646h-1.889M51.512 293.646v3.779M51.512 257.749v1.889M51.512 259.638h1.889M53.401 259.638v-1.889M52.456 293.646v-34.008M53.401 293.646v-34.008M51.512 259.638v34.007M53.401 257.749v-.945M53.401 256.804h-.945M52.456 256.804v-.944M52.456 255.86h-.944M51.512 255.86v1.889M51.512 214.295v3.778M51.512 218.073h.944M52.456 218.073v-.945M52.456 217.128h.945M53.401 217.128v-2.832M54.346 217.128l28.055 28.056M51.512 218.073v37.787M54.346 253.97v-34.007M54.346 256.804v-2.834M54.346 253.97h-1.89M52.456 253.97v2.834M52.456 256.804h1.89M52.456 217.128v2.834M52.456 219.963h1.89M54.346 219.963v-2.834M54.346 217.128h-1.89M52.456 219.963v34.007M54.346 253.97v-34.007M53.401 253.97v-34.007M82.401 245.184a39.677 39.677 0 01-28.055 11.621M51.512 297.424h1.889M51.512 297.424h1.889M45.844 297.424h5.668M53.401 297.424h16.248M51.512 214.295h1.889M51.512 214.295h1.889M45.844 214.295h5.668M53.401 214.295h16.248"/><g><path class="st5" d="M192.455 8.154v16.248M192.455.598v5.667M192.455 6.265v1.889M258.581 8.154v16.248M258.581.598v5.667M258.581 6.265v1.889M258.581.598h-66.126M258.581 24.402h-66.126M258.581 8.154h-3.779M254.802 8.154V6.265M254.802 6.265h3.779M220.794 6.265h1.89M222.684 6.265v1.889M222.684 8.154h-1.89M254.802 7.21h-32.118M254.802 8.154h-32.118M222.684 6.265h32.118M220.794 8.154h-.944M219.85 8.154V7.21M219.85 7.21h-.945M218.905 7.21v-.945M218.905 6.265h1.889M192.455 6.265h3.778M196.233 6.265v.945M196.233 7.21h-.945M195.288 7.21v.944M195.288 8.154h-2.833M196.233 6.265h22.672M217.016 9.1h-18.893M219.85 9.1h-2.834M217.016 9.1V7.21M217.016 7.21h2.834M219.85 7.21V9.1M195.288 7.21h2.834M198.123 7.21V9.1M198.123 9.1h-2.834M195.288 9.1V7.21M198.123 7.21h18.893M217.016 9.1h-18.893M217.016 8.154h-18.893M258.581 6.265v1.889M258.581 6.265v1.889M258.581.598v5.667M258.581 8.154v16.248M192.455 6.265v1.889M192.455 6.265v1.889M192.455.598v5.667M192.455 8.154v16.248"/><g><path class="st5" d="M303.924 8.154v16.248M303.924.598v5.667M303.924 6.265v1.889M370.267 8.154v16.248M370.267.598v5.667M370.267 6.265v1.889M370.267.598h-66.343M370.267 24.402h-66.343M370.267 8.154h-3.779M366.488 8.154V6.265M366.488 6.265h3.779M332.264 6.265h1.89M334.154 6.265v1.889M334.154 8.154h-1.891M366.488 7.21h-32.334M366.488 8.154h-32.334M334.154 6.265h32.334M332.264 8.154h-.945M331.319 8.154V7.21M331.319 7.21h-.944M330.375 7.21v-.945M330.375 6.265h1.889M303.924 6.265h3.779M307.703 6.265v.945M307.703 7.21h-.945M306.758 7.21v.944M306.758 8.154h-2.834M307.703 6.265h22.672M328.486 9.1h-18.894M331.319 9.1h-2.833M328.486 9.1V7.21M328.486 7.21h2.833M331.319 7.21V9.1M306.758 7.21h2.834M309.592 7.21V9.1M309.592 9.1h-2.834M306.758 9.1V7.21M309.592 7.21h18.894M328.486 9.1h-18.894M328.486 8.154h-18.894M370.267 6.265v1.889M370.267 6.265v1.889M370.267.598v5.667M370.267 8.154v16.248M303.924 6.265v1.889M303.924 6.265v1.889M303.924.598v5.667M303.924 8.154v16.248"/></g><g><path class="st5" d="M424.841 8.154v16.248M424.841.598v5.667M424.841 6.265v1.889M507.97 8.154v16.248M507.97.598v5.667M507.97 6.265v1.889M507.97.598h-83.129M507.97 24.402h-83.129M507.97 8.154h-3.778M504.192 8.154V6.265M504.192 6.265h3.778M453.18 6.265h1.89M455.07 6.265v1.889M455.07 8.154h-1.89M504.192 7.21H455.07M504.192 8.154H455.07M455.07 6.265h49.122M453.18 8.154h-.944M452.236 8.154V7.21M452.236 7.21h-.945M451.291 7.21v-.945M451.291 6.265h1.889M424.841 6.265h3.777M428.619 6.265v.945M428.619 7.21h-.945M427.674 7.21v.944M427.674 8.154h-2.833M428.619 6.265h22.672M449.402 9.1h-18.893M452.236 9.1h-2.834M449.402 9.1V7.21M449.402 7.21h2.834M452.236 7.21V9.1M427.674 7.21h2.834M430.509 7.21V9.1M430.509 9.1h-2.834M427.674 9.1V7.21M430.509 7.21h18.893M449.402 9.1h-18.893M449.402 8.154h-18.893M507.97 6.265v1.889M507.97 6.265v1.889M507.97.598v5.667M507.97 8.154v16.248M424.841 6.265v1.889M424.841 6.265v1.889M424.841.598v5.667M424.841 8.154v16.248"/></g><g><path class="st5" d="M636.444 8.154v16.248M636.444.598v5.667M636.444 6.265v1.889M553.314 8.154v16.248M553.314.598v5.667M553.314 6.265v1.889M553.314.598h83.13M553.314 24.402h83.13M553.314 8.154h3.778M557.092 8.154V6.265M557.092 6.265h-3.778M608.104 6.265h-1.89M606.214 6.265v1.889M606.214 8.154h1.89M557.092 7.21h49.122M557.092 8.154h49.122M606.214 6.265h-49.122M608.104 8.154h.944M609.048 8.154V7.21M609.048 7.21h.945M609.994 7.21v-.945M609.994 6.265h-1.89M636.444 6.265h-3.778M632.665 6.265v.945M632.665 7.21h.944M633.61 7.21v.944M633.61 8.154h2.834M632.665 6.265h-22.672M611.883 9.1h18.893M609.048 9.1h2.835M611.883 9.1V7.21M611.883 7.21h-2.835M609.048 7.21V9.1M633.61 7.21h-2.834M630.776 7.21V9.1M630.776 9.1h2.834M633.61 9.1V7.21M630.776 7.21h-18.893M611.883 9.1h18.893M611.883 8.154h18.893M553.314 6.265v1.889M553.314 6.265v1.889M553.314.598v5.667M553.314 8.154v16.248M636.444 6.265v1.889M636.444 6.265v1.889M636.444.598v5.667M636.444 8.154v16.248"/></g><g><path class="st5" d="M147.113.5H45.846M147.113 24.306H69.651M147.113 8.057h-4.723M142.39 8.057V6.168M142.39 6.168h4.723M53.403 6.168h4.723M58.126 6.168v1.889M58.126 8.057h-4.723M51.513 6.168h1.89M142.39 8.057H58.126M58.126 6.168h84.264M147.113 6.168v1.889M147.113 6.168v1.889M147.113.5v5.668M147.113 8.057v16.249M53.403 155.612h16.248M45.846 155.612h5.667M51.513 155.612h1.89M45.846 155.612V.5M69.651 155.612V24.305M53.403 155.612v-4.723M53.403 150.889h-1.89M51.513 150.889v4.723M51.513 8.057v4.723M51.513 12.78h1.89M53.403 12.78V8.057M51.513 6.168v1.889M53.403 150.889V12.78M51.513 155.612h1.89M51.513 155.612h1.89M45.846 155.612h5.667M53.403 155.612h16.248M147.113 8.057v16.249M147.113.5v5.668M147.113 6.168v1.889M51.513 12.78v138.109"/><g><path class="st6" d="M51.513 67.243h1.89v5.133h-1.89zM51.513 109.75h1.89v5.133h-1.89z"/></g></g></g></g></g><path class="st0" d="M232.509 239.596h-3.025c-.002 8.628-.007 17.259-.007 25.885h1.511v-.453h1.512c0-7.467.004-14.94.006-22.409h76.896l-.021 68.204h-46.833l-.004 15.191-30.063.001.01-32.874h-1.511v-.454h-1.512l-.01 33.317-49.851-.008v-86.4h-3.023v86.399l-15.43-.006v10.151h164.497v-10.106l-13.252-.001.027-86.437h-13.981v-6.612h-1.511v.453h-1.512v6.159h-62.913zm-80.062-40.619V186.13h145.998V202h-1.511v-.454h-1.512v-2.569H152.447zM265.57 313.846h15.115v12.182l-15.118-.003.003-12.179zm305.503-52.334h3.778v-8.691h1.512v.454h1.51v58.493h76.518v3.023h-16.627v12.28h-3.022v-12.28h-56.869v12.28h-3.022v-4.912H477.93v4.912h-3.023v-12.28H462.06v12.28h-3.023v-15.303h6.234v-47.233h-24.495v-1.511h-.454v-1.512h102.033v1.512h-.453v1.511H477.93v54.601h96.922v-54.601h-4.837v-1.511h-.453v-1.512h1.511zm-261.695 64.521l-25.669-.004v-12.182h25.671l-.004 12.182h.002v.004zm97.514-64.521h6.225v1.512h-.453v1.511h-5.772v-3.023zm61.403 50.256h6.612v-47.233h-6.612v47.233zm61.969-94.465v-192.9h3.023v192.899h4.837v1.512h.454v1.511h-94.476v-1.511h.453v-1.512h85.709v.001zm113.925 65.181v3.023h10.202v-3.023h-7.18v-62.159h7.18v-3.023h-84.377v1.512h-.453v1.511h5.29v6.046h1.512v-.453h1.51v-5.593h66.316v62.159zm-237.297-62.159v-3.023h5.772v1.512h.453v1.511h-6.225zm-10.202-21.348h-22.672V170.26l22.672-.001v3.023h-19.649v12.848h19.649v12.847z"/><path d="M396.69 261.512h10.202v65.559h247.5V24.403h-17.948V.598h28.15V336.14h-276.74v-1.511h-.454v-7.558h9.291v-65.559h-.001zm-71.039 74.628v-10.106h9.069v1.037h14.138v7.558h-.453v1.511h-22.754 0zM45.844 297.425h23.805v28.529l91.505.029v10.156H45.844v-38.714h0zm0-141.714h23.805v30.418h82.798v12.847H69.649v15.319H45.844v-58.584h0zM424.84 24.403V.598h-54.573v23.805h26.423v195.922h10.202V24.403h17.948zM258.581.598h45.343v23.805h-45.343V.598h0zm-111.47 0h45.344v23.805h-45.344V.598h0zm360.859 0v23.805h45.344V.598H507.97z" fill-rule="evenodd" clip-rule="evenodd" stroke="#000" stroke-linecap="round" stroke-linejoin="round" stroke-miterlimit="3"/><g><path class="st8" d="M159.432 185.924l-7.1 6.26M166.852 185.924l-14.52 12.79M174.272 185.924l-14.59 12.85M181.702 185.924l-14.59 12.85M189.122 185.924l-14.59 12.85M196.542 185.924l-14.58 12.85M203.962 185.924l-14.58 12.85M211.382 185.924l-14.59 12.85M218.812 185.924l-14.59 12.85M226.232 185.924l-14.59 12.85M233.652 185.924l-14.59 12.85M179.492 240.174l-3.03 2.67M241.072 185.924l-14.58 12.85M179.492 246.714l-3.03 2.67M248.502 185.924l-14.59 12.85M179.492 253.254l-3.03 2.67M255.922 185.924l-14.58 12.85M179.492 259.784l-3.03 2.67M263.342 185.924l-14.59 12.85M179.492 266.324l-3.03 2.67M270.762 185.924l-14.59 12.85M179.492 272.864l-3.03 2.67M278.182 185.924l-14.58 12.85M179.492 279.404l-3.03 2.67M285.612 185.924l-14.59 12.85M179.492 285.944l-3.03 2.67M232.332 239.394l-2.97 2.62M293.032 185.924l-14.59 12.85M179.492 292.484l-3.03 2.67M239.762 239.394l-3.43 3.02M232.392 245.884l-3.03 2.67M298.322 187.804l-12.45 10.97M179.492 299.014l-3.03 2.67M247.172 239.394l-3.43 3.02M232.392 252.424l-3.03 2.66M298.322 194.334l-5.04 4.44M298.322 200.884l-1.04.91M254.602 239.394l-3.43 3.02M232.382 258.964l-3.02 2.66M179.492 305.554l-3.03 2.67M163.952 325.784l-2.92 2.58M262.022 239.394l-3.43 3.02M179.492 312.094l-3.03 2.67M171.372 325.794l-10.34 9.1M269.442 239.394l-3.42 3.02M179.492 318.634l-3.03 2.67M179.492 325.174l-12.21 10.76M276.872 239.394l-3.43 3.02M186.212 325.794l-11.51 10.14M284.292 239.394l-3.43 3.02M533.172 26.684l-3.03 2.67M298.322 233.574l-3.02 2.66M193.632 325.794l-11.51 10.14M230.932 292.934l-1.58 1.39M291.712 239.394l-3.43 3.02M533.172 33.224l-3.03 2.67M377.842 170.054l-3.94 3.47M201.052 325.794l-11.51 10.14M299.132 239.394l-3.43 3.02M232.372 298.204l-3.02 2.66M385.272 170.054l-3.43 3.02M376.922 177.404l-3.02 2.66M533.172 39.764l-3.03 2.67M208.472 325.804l-11.51 10.13M306.552 239.394l-3.43 3.02M232.372 304.744l-3.02 2.66M376.922 183.944l-3.02 2.66M392.692 170.054l-3.43 3.02M533.172 46.294l-3.03 2.67M215.892 325.804l-11.5 10.13M312.312 240.864l-3.03 2.67M232.362 311.284l-3.02 2.66M382.102 185.924l-8.2 7.22M533.172 52.844l-3.03 2.67M223.312 325.804l-11.5 10.13M312.312 247.404l-3.03 2.67M232.362 317.834l-3.02 2.66M389.522 185.924l-14.59 12.85M533.172 59.384l-3.03 2.66M232.362 324.374l-13.13 11.56M312.302 253.944l-3.02 2.67M533.172 65.914l-3.03 2.67M396.572 186.254l-14.21 12.52M238.152 325.814l-11.49 10.12M312.302 260.484l-3.03 2.67M533.172 72.454l-3.03 2.67M396.572 192.784l-6.8 5.99M245.562 325.814l-11.49 10.12M262.802 310.624l-.37.33M312.302 267.024l-3.03 2.67M533.172 78.994l-3.03 2.67M265.452 314.834l-3.02 2.66M270.232 310.624l-3.43 3.02M252.992 325.814l-11.49 10.12M312.302 273.564l-3.03 2.67M533.172 85.534l-3.03 2.67M265.452 321.374l-3.03 2.67M277.652 310.624l-3.43 3.02M260.412 325.814l-11.49 10.12M312.302 280.104l-3.03 2.67M533.172 92.074l-3.03 2.67M285.072 310.624l-4.5 3.97M267.822 325.824l-11.48 10.11M312.292 286.654l-3.02 2.66M533.172 98.604l-3.03 2.67M283.592 318.474l-3.02 2.66M292.502 310.624l-3.43 3.02M275.242 325.824l-11.47 10.11M312.292 293.184l-3.03 2.67M533.172 105.154l-3.03 2.67M299.922 310.624l-3.42 3.02M283.592 325.014l-12.4 10.92M312.292 299.734l-3.03 2.67M533.172 111.684l-3.03 2.67M412.542 217.954l-2.47 2.17M307.342 310.624l-3.43 3.02M290.082 325.824l-11.47 10.11M312.292 306.264l-3.03 2.67M533.172 118.224l-3.03 2.67M297.502 325.834l-11.47 10.1M312.282 312.814l-3.02 2.66M533.172 124.764l-3.03 2.67M304.922 325.834l-11.47 10.1M312.282 319.344l-3.02 2.67M533.172 131.294l-3.03 2.67M312.342 325.834l-11.46 10.1M533.172 137.844l-3.03 2.67M319.772 325.834l-11.47 10.1M533.172 144.384l-3.03 2.67M450.632 217.094l-3.44 3.03M325.532 327.294l-9.81 8.64M533.172 150.914l-3.03 2.67M325.532 333.834l-2.38 2.1M407.862 261.304l-1.09.96M458.052 217.094l-3.44 3.03M533.172 157.454l-3.03 2.67M412.542 263.714l-.7.62M465.472 217.094l-3.44 3.03M533.172 163.994l-3.03 2.67M472.892 217.094l-3.44 3.03M533.172 170.534l-3.03 2.67M480.322 217.094l-3.44 3.03M533.172 177.074l-3.03 2.67M487.742 217.094l-3.44 3.03M533.172 183.604l-3.03 2.67M444.972 261.304l-3.44 3.03M495.162 217.094l-3.44 3.03M533.172 190.144l-3.03 2.67M452.392 261.304l-3.43 3.03M502.582 217.094l-3.44 3.03M533.172 196.684l-3.03 2.67M459.822 261.304l-3.44 3.03M510.002 217.094l-3.44 3.03M533.172 203.224l-3.03 2.67M467.242 261.304l-3.44 3.03M517.432 217.094l-3.44 3.03M533.172 209.764l-3.03 2.67M468.172 267.024l-3.02 2.66M474.662 261.304l-3.44 3.03M524.852 217.094l-3.44 3.03M533.172 216.304l-4.34 3.82M477.812 265.064l-3.02 2.66M482.082 261.304l-3.44 3.03M468.172 273.564l-3.02 2.66M477.812 271.614l-3.02 2.66M538.002 218.584l-1.74 1.54M489.512 261.304l-3.44 3.03M468.172 280.104l-3.02 2.66M468.172 286.644l-3.02 2.66M496.932 261.304l-3.44 3.03M477.812 278.144l-3.02 2.67M468.172 293.174l-3.02 2.66M504.352 261.304l-3.44 3.03M477.812 284.684l-3.02 2.66M468.172 299.714l-3.02 2.66M511.772 261.304l-3.44 3.03M477.812 291.224l-3.02 2.66M468.172 306.254l-3.02 2.66M519.202 261.304l-3.44 3.03M477.812 297.764l-3.02 2.66M462.142 311.564l-3.22 2.84M469.572 311.564l-3.43 3.02M461.942 318.284l-3.02 2.66M526.622 261.304l-3.44 3.03M576.812 217.094l-3.44 3.03M477.812 304.304l-3.02 2.66M477.812 310.844l-4.25 3.74M584.232 217.094l-3.44 3.03M577.752 222.804l-3.02 2.66M534.042 261.304l-3.44 3.03M461.942 324.824l-2.32 2.04M477.812 317.374l-3.02 2.66M591.652 217.094l-3.44 3.03M541.462 261.304l-3.44 3.03M483.462 318.934l-3.42 3.02M599.072 217.094l-3.44 3.03M477.812 323.914l-3.02 2.66M490.892 318.934l-3.43 3.02M606.492 217.094l-3.44 3.03M498.312 318.934l-3.43 3.02M613.922 217.094l-3.44 3.03M505.732 318.934l-3.43 3.02M571.152 261.304l-1.71 1.51M577.752 255.494l-3.02 2.66M621.342 217.094l-3.44 3.03M513.152 318.934l-3.43 3.02M628.762 217.094l-3.44 3.03M577.752 262.024l-3.02 2.66M520.582 318.934l-3.43 3.02M636.192 217.094l-3.44 3.03M577.752 268.574l-3.02 2.66M577.752 275.114l-3.02 2.66M643.612 217.094l-3.44 3.03M528.002 318.934l-3.43 3.02M577.752 281.644l-3.02 2.66M651.022 217.094l-3.43 3.03M647.092 220.564l-3.02 2.66M535.422 318.934l-3.43 3.02M577.752 288.184l-3.02 2.66M647.092 227.094l-3.02 2.66M542.842 318.934l-3.43 3.02M577.752 294.714l-3.02 2.67M647.092 233.634l-3.02 2.66M550.262 318.934l-3.43 3.02M577.752 301.264l-3.02 2.66M647.092 240.174l-3.02 2.67M557.692 318.934l-3.43 3.02M577.752 307.804l-3.02 2.66M647.092 246.714l-3.02 2.66M565.112 318.934l-3.43 3.02M580.902 311.564l-6.17 5.43M647.092 253.254l-3.02 2.66M572.532 318.934l-3.43 3.02M588.322 311.564l-3.43 3.02M647.092 259.794l-3.02 2.66M577.752 320.874l-3.02 2.66M595.742 311.564l-3.43 3.02M647.092 266.334l-3.02 2.66M603.162 311.564l-3.42 3.02M647.092 272.874l-3.02 2.66M610.592 311.564l-3.43 3.02M647.092 279.404l-3.02 2.66M618.012 311.564l-3.43 3.02M651.252 282.284l-3.43 3.02M625.442 311.564l-3.43 3.02M632.862 311.564l-3.43 3.02M640.272 311.564l-5.65 4.98M647.702 311.564l-3.43 3.02M637.642 320.424l-3.02 2.66M654.272 312.314l-2.58 2.27"/></g><path class="st6" d="M232.509 239.596h-3.025c-.002 8.628-.007 17.259-.007 25.885h1.511v-.453h1.512c0-7.467.004-14.94.006-22.409h76.896l-.021 68.204h-46.833l-.004 15.191-30.063.001.01-32.874h-1.511v-.454h-1.512l-.01 33.317-49.851-.008v-86.4h-3.023v86.399l-15.43-.006v10.151h164.497v-10.106l-13.252-.001.027-86.437h-13.981v-6.612h-1.511v.453h-1.512v6.159h-62.913zm-80.062-40.619V186.13h145.998V202h-1.511v-.454h-1.512v-2.569H152.447zM265.57 313.846h15.115v12.182l-15.118-.003.003-12.179zm305.503-52.334h3.778v-8.691h1.512v.454h1.51v58.493h76.518v3.023h-16.627v12.28h-3.022v-12.28h-56.869v12.28h-3.022v-4.912H477.93v4.912h-3.023v-12.28H462.06v12.28h-3.023v-15.303h6.234v-47.233h-24.495v-1.511h-.454v-1.512h102.033v1.512h-.453v1.511H477.93v54.601h96.922v-54.601h-4.837v-1.511h-.453v-1.512h1.511zm-261.695 64.521v-.004h-.002l.004-12.182h-25.671v12.182l25.669.004zm97.514-64.521h6.225v1.512h-.453v1.511h-5.772v-3.023zm61.403 50.256h6.612v-47.233h-6.612v47.233zm61.969-94.465v-192.9h3.023v192.899h4.837v1.512h.454v1.511h-94.476v-1.511h.453v-1.512h85.709v.001zm113.925 65.181v-62.159h-66.316v5.593h-1.51v.453h-1.512v-6.046h-5.29v-1.511h.453v-1.512h84.377v3.023h-7.18v62.159h7.18v3.023h-10.202v-3.023zm-237.297-62.159v-3.023h5.772v1.512h.453v1.511h-6.225zm-10.202-21.348h-22.672V170.26l22.672-.001v3.023h-19.649v12.848h19.649v12.847z"/></g><g id="sizes_1_"><path d="M274.266 180.107l-.727-.348a2.857 2.857 0 01-1.168-1.008c-.295-.44-.48-.97-.559-1.59h1.625c.047.323.148.589.305.797s.357.363.605.465c.247.102.537.152.871.152.525 0 .935-.141 1.227-.422.291-.281.438-.677.438-1.188v-.344c0-.567-.139-1.006-.414-1.316-.276-.31-.667-.465-1.172-.465h-.805v-1.516h.805c.442 0 .786-.133 1.031-.398.244-.266.367-.641.367-1.125v-.352c0-.448-.129-.794-.387-1.039-.258-.245-.624-.367-1.098-.367a1.68 1.68 0 00-.727.152c-.214.102-.395.258-.543.469s-.257.476-.324.793H272c.104-.62.301-1.151.59-1.594a2.886 2.886 0 011.098-1.008c.442-.229.95-.344 1.523-.344.979 0 1.736.258 2.273.773.536.516.805 1.242.805 2.18v.188c0 .568-.154 1.063-.461 1.484-.308.422-.742.729-1.305.922.619.136 1.1.44 1.441.914.341.474.512 1.078.512 1.813v.188c0 .661-.128 1.227-.383 1.695a2.536 2.536 0 01-1.113 1.07c-.487.245-1.074.367-1.762.367l-.952.002zM286.61 170.052l-2.938 9.938h-1.695l2.938-9.844h-2.891v1.633h-1.594v-3.148h6.18v1.421zM288.641 178.396h1.594v1.594l-1.594 1.578v-3.172zM296.445 174.349l-.008.281c-.131.24-.327.416-.59.527a2.375 2.375 0 01-.934.168c-.542 0-1.019-.138-1.43-.414-.412-.276-.73-.665-.957-1.168-.227-.502-.34-1.084-.34-1.746v-.008c0-.734.123-1.362.371-1.883a2.615 2.615 0 011.086-1.188c.477-.271 1.048-.406 1.715-.406.666 0 1.236.138 1.711.414.474.276.834.677 1.082 1.203.247.526.371 1.159.371 1.898v.008c0 .406-.053.84-.156 1.301a8.052 8.052 0 01-.445 1.371l-.094.207c-.031.07-.065.14-.102.207l-2.422 4.867h-1.719l2.861-5.639zm.075-.984c.273-.338.41-.815.41-1.43v-.008c0-.599-.137-1.063-.41-1.391s-.66-.492-1.16-.492c-.506 0-.895.164-1.168.492s-.41.794-.41 1.398v.008c0 .615.137 1.09.41 1.426s.662.504 1.168.504c.5.001.886-.168 1.16-.507zM84.836 213.816h-1.594v-9.625l-1.617.992v-1.648l1.617-1.078h1.594v11.359zM88.633 213.531a2.604 2.604 0 01-1.082-1.172c-.248-.513-.371-1.131-.371-1.855v-.008c0-.422.049-.864.148-1.328a7.673 7.673 0 01.532-1.597l.109-.223 2.469-4.891h1.719l-2.898 5.664.008-.281c.13-.244.32-.435.57-.57.25-.135.542-.203.875-.203.588 0 1.094.133 1.516.398s.742.652.961 1.16.328 1.119.328 1.832v.008c0 .729-.124 1.354-.371 1.875a2.62 2.62 0 01-1.086 1.188c-.477.271-1.048.406-1.715.406-.669-.001-1.239-.135-1.712-.403zm2.878-1.598c.273-.313.41-.758.41-1.336v-.008c0-.635-.144-1.126-.43-1.473-.287-.346-.695-.52-1.227-.52-.474 0-.841.175-1.102.523-.261.35-.391.842-.391 1.477v.008c0 .578.137 1.022.41 1.332.273.311.66.465 1.16.465.507.001.897-.155 1.17-.468zM95.468 212.222h1.594v1.594l-1.594 1.578v-3.172zM100.468 213.531a2.604 2.604 0 01-1.082-1.172c-.248-.513-.371-1.131-.371-1.855v-.008c0-.422.049-.864.148-1.328a7.673 7.673 0 01.532-1.597l.109-.223 2.469-4.891h1.719l-2.898 5.664.008-.281c.13-.244.32-.435.57-.57.25-.135.542-.203.875-.203.588 0 1.094.133 1.516.398s.742.652.961 1.16.328 1.119.328 1.832v.008c0 .729-.124 1.354-.371 1.875a2.62 2.62 0 01-1.086 1.188c-.477.271-1.048.406-1.715.406-.668-.001-1.238-.135-1.712-.403zm2.879-1.598c.273-.313.41-.758.41-1.336v-.008c0-.635-.144-1.126-.43-1.473-.287-.346-.695-.52-1.227-.52-.474 0-.841.175-1.102.523-.261.35-.391.842-.391 1.477v.008c0 .578.137 1.022.41 1.332.273.311.66.465 1.16.465.507.001.897-.155 1.17-.468zM291.701 255.539l-.727-.348a2.85 2.85 0 01-1.168-1.008c-.295-.439-.48-.97-.559-1.59h1.625c.047.323.148.589.305.797.156.209.357.363.605.465.246.102.537.152.871.152.525 0 .934-.141 1.227-.422.291-.281.438-.677.438-1.188v-.344c0-.567-.139-1.006-.414-1.316-.277-.31-.668-.465-1.172-.465h-.805v-1.516h.805c.441 0 .785-.133 1.031-.398.244-.266.367-.641.367-1.125v-.352c0-.447-.129-.794-.387-1.039-.258-.244-.625-.367-1.098-.367a1.68 1.68 0 00-.727.152c-.215.102-.395.258-.543.469s-.258.476-.324.793h-1.617c.104-.619.301-1.15.59-1.594a2.886 2.886 0 011.098-1.008c.441-.229.949-.344 1.523-.344.979 0 1.736.258 2.273.773.535.516.805 1.242.805 2.18v.188c0 .568-.154 1.063-.461 1.484-.309.422-.742.729-1.305.922.619.136 1.1.44 1.441.914.34.475.512 1.078.512 1.813v.188c0 .662-.129 1.227-.383 1.695a2.53 2.53 0 01-1.113 1.07c-.488.245-1.074.367-1.762.367l-.951.002zM298.022 253.828h1.594v1.594L298.022 257v-3.172zM303.319 255.148a2.849 2.849 0 01-1.207-1.105c-.285-.477-.426-1.029-.426-1.66v-.188c0-.567.141-1.102.426-1.602.283-.5.662-.877 1.137-1.133-.402-.219-.723-.535-.965-.949s-.363-.85-.363-1.309v-.273c0-.594.133-1.115.398-1.566.266-.45.641-.799 1.125-1.047.484-.247 1.047-.371 1.688-.371s1.203.124 1.688.371c.484.248.859.597 1.125 1.047.266.451.398.973.398 1.566v.273c0 .469-.125.909-.371 1.32a2.472 2.472 0 01-.98.938c.479.261.863.64 1.152 1.137a3.13 3.13 0 01.434 1.598v.188c0 .631-.143 1.184-.426 1.66a2.86 2.86 0 01-1.207 1.105c-.521.261-1.125.391-1.813.391s-1.294-.13-1.813-.391zm2.789-1.359c.281-.146.498-.35.652-.613.152-.263.23-.566.23-.91v-.109c0-.349-.078-.654-.23-.918a1.582 1.582 0 00-.652-.613 2.09 2.09 0 00-.977-.219 2.09 2.09 0 00-.977.219c-.281.146-.5.352-.652.617-.154.266-.23.573-.23.922v.117c0 .344.076.646.23.906.152.261.371.463.652.605.281.144.605.215.977.215.369-.001.695-.073.977-.219zm-.133-5.121c.244-.138.434-.334.57-.59.135-.255.203-.549.203-.883v-.109c0-.317-.068-.599-.203-.844a1.418 1.418 0 00-.57-.566 1.745 1.745 0 00-.844-.199c-.318 0-.6.066-.844.199a1.394 1.394 0 00-.57.566 1.716 1.716 0 00-.203.852v.117c0 .328.066.619.203.871.135.253.324.448.57.586.244.139.525.207.844.207.316 0 .598-.069.844-.207z"/><g><path d="M475.91 210.896h-1.594v-9.625l-1.617.992v-1.648l1.617-1.078h1.594v11.359zM479.707 210.611a2.61 2.61 0 01-1.082-1.172c-.247-.513-.371-1.131-.371-1.855v-.008c0-.422.05-.864.148-1.328a7.756 7.756 0 01.532-1.597l.109-.223 2.469-4.891h1.719l-2.898 5.664.008-.281c.131-.244.32-.435.57-.57.25-.135.542-.203.875-.203.589 0 1.094.133 1.516.398s.742.652.961 1.16.328 1.119.328 1.832v.008c0 .729-.123 1.354-.371 1.875a2.615 2.615 0 01-1.086 1.188c-.477.271-1.048.406-1.715.406-.667-.001-1.237-.134-1.712-.403zm2.879-1.598c.273-.313.41-.758.41-1.336v-.008c0-.635-.143-1.126-.43-1.473-.286-.346-.695-.52-1.227-.52-.474 0-.841.175-1.102.523-.26.35-.391.842-.391 1.477v.008c0 .578.137 1.022.41 1.332.273.311.66.465 1.16.465.508.001.897-.155 1.17-.468zM486.543 209.302h1.594v1.594l-1.594 1.578v-3.172zM491.969 210.677a2.757 2.757 0 01-1.086-.977c-.278-.427-.465-.939-.559-1.539v-.008h1.594v.008c.058.417.225.741.5.973.276.232.636.348 1.078.348.511 0 .905-.17 1.184-.512.279-.341.418-.821.418-1.441v-.953c0-.614-.139-1.092-.418-1.434-.278-.341-.673-.512-1.184-.512-.275 0-.541.078-.797.234a2.237 2.237 0 00-.672.656h-1.453v-5.984h5.789v1.516h-4.195v2.555c.198-.161.42-.286.664-.375.245-.088.495-.133.75-.133.656 0 1.218.136 1.684.406a2.6 2.6 0 011.063 1.188c.242.521.363 1.148.363 1.883v.953c0 .734-.125 1.362-.375 1.883-.25.521-.615.918-1.094 1.191s-1.055.41-1.727.41c-.572 0-1.082-.112-1.527-.336z"/></g><g><path d="M630.412 168.984h-1.594v-9.625l-1.617.992v-1.648l1.617-1.078h1.594v11.359zM634.209 168.699a2.62 2.62 0 01-1.082-1.172c-.246-.513-.371-1.131-.371-1.855v-.008c0-.422.051-.864.148-1.328a7.756 7.756 0 01.532-1.597c.037-.075.074-.149.109-.223l2.469-4.891h1.719l-2.898 5.664.008-.281c.131-.245.32-.435.57-.57.25-.135.543-.203.875-.203.59 0 1.094.133 1.516.398s.742.652.961 1.16.328 1.119.328 1.832v.008c0 .729-.123 1.354-.371 1.875a2.61 2.61 0 01-1.086 1.188c-.477.271-1.047.406-1.715.406-.667-.001-1.237-.135-1.712-.403zm2.879-1.598c.273-.313.41-.758.41-1.336v-.008c0-.635-.143-1.126-.43-1.473-.285-.346-.695-.52-1.227-.52-.473 0-.84.175-1.102.523-.26.349-.391.841-.391 1.477v.008c0 .578.137 1.022.41 1.332.273.31.66.465 1.16.465.508.001.897-.155 1.17-.468zM641.045 167.39h1.594v1.594l-1.594 1.578v-3.172zM646.471 168.765a2.757 2.757 0 01-1.086-.977c-.277-.427-.465-.94-.559-1.539v-.008h1.594v.008c.059.417.225.741.5.973.277.232.637.348 1.078.348.512 0 .906-.17 1.184-.512.279-.341.418-.821.418-1.441v-.953c0-.614-.139-1.092-.418-1.434-.277-.341-.672-.512-1.184-.512-.275 0-.541.078-.797.234a2.248 2.248 0 00-.672.656h-1.453v-5.984h5.789v1.516h-4.195v2.555c.199-.161.42-.286.664-.375.246-.088.496-.133.75-.133.656 0 1.219.136 1.684.406a2.6 2.6 0 011.063 1.188c.242.521.363 1.148.363 1.883v.953c0 .734-.125 1.362-.375 1.883-.25.521-.613.918-1.094 1.191-.479.273-1.055.41-1.727.41-.572 0-1.082-.112-1.527-.336z"/></g><g><path d="M378.424 279.81a2.86 2.86 0 01-1.207-1.105c-.283-.477-.426-1.03-.426-1.66v-.188c0-.567.143-1.102.426-1.602.284-.5.663-.878 1.137-1.133-.4-.219-.723-.535-.965-.949s-.363-.851-.363-1.309v-.273c0-.594.133-1.116.398-1.566s.641-.8 1.125-1.047 1.047-.371 1.688-.371 1.203.124 1.688.371.859.597 1.125 1.047.398.973.398 1.566v.273c0 .469-.123.909-.371 1.32a2.479 2.479 0 01-.98.938c.479.261.863.64 1.152 1.137s.434 1.03.434 1.598v.188c0 .63-.142 1.184-.426 1.66a2.842 2.842 0 01-1.207 1.105c-.521.261-1.125.391-1.813.391s-1.292-.13-1.813-.391zm2.789-1.359c.281-.146.499-.351.652-.613.154-.263.23-.566.23-.91v-.109c0-.349-.076-.655-.23-.918-.153-.263-.371-.468-.652-.613s-.606-.219-.977-.219c-.369 0-.695.073-.977.219s-.498.352-.652.617c-.153.266-.23.573-.23.922v.117c0 .344.077.646.23.906.154.261.371.462.652.605s.607.215.977.215a2.1 2.1 0 00.977-.219zm-.133-5.121c.245-.138.436-.335.57-.59a1.85 1.85 0 00.203-.883v-.109c0-.317-.067-.599-.203-.844a1.394 1.394 0 00-.57-.566 1.734 1.734 0 00-.844-.199c-.317 0-.599.066-.844.199a1.406 1.406 0 00-.57.566 1.734 1.734 0 00-.203.852v.117c0 .328.068.618.203.871.136.253.326.448.57.586.245.138.526.207.844.207.319 0 .6-.07.844-.207zM385.752 278.49h1.594v1.594l-1.594 1.578v-3.172zM390.358 279.349c-.549-.567-.824-1.359-.824-2.375v-5.164c0-1.021.276-1.813.828-2.379.553-.565 1.357-.848 2.414-.848 1.063 0 1.869.281 2.418.844.55.563.824 1.356.824 2.383v5.164c0 1.021-.275 1.813-.828 2.379-.552.565-1.356.848-2.414.848-1.063 0-1.869-.284-2.418-.852zm3.664-1.105c.269-.294.402-.718.402-1.27v-5.164c0-.552-.133-.976-.398-1.27s-.682-.441-1.25-.441c-.567 0-.984.147-1.25.441s-.398.718-.398 1.27v5.164c0 .552.135.976.402 1.27.269.294.684.441 1.246.441s.978-.147 1.246-.441z"/></g><g><path d="M487.834 231.194l3.813-8.227h1.641l-3.719 8.133h5.57v1.477h-7.305v-1.383zm4.899-3.555h1.555v6.688h-1.555v-6.688zM496.936 232.725h1.594v1.594l-1.594 1.578v-3.172zM504.74 228.678l-.008.281a1.18 1.18 0 01-.59.527 2.375 2.375 0 01-.934.168c-.543 0-1.02-.138-1.43-.414-.412-.276-.73-.665-.957-1.168s-.34-1.085-.34-1.746v-.008c0-.734.123-1.362.371-1.883.246-.521.609-.917 1.086-1.188s1.047-.406 1.715-.406c.666 0 1.236.138 1.711.414.473.276.834.677 1.082 1.203.246.526.371 1.159.371 1.898v.008c0 .406-.053.84-.156 1.301a8.233 8.233 0 01-.445 1.371l-.094.207c-.031.07-.066.14-.102.207l-2.422 4.867h-1.719l2.861-5.639zm.075-.984c.273-.339.41-.815.41-1.43v-.008c0-.599-.137-1.063-.41-1.391s-.66-.492-1.16-.492c-.506 0-.895.164-1.168.492s-.41.794-.41 1.398v.008c0 .614.137 1.09.41 1.426s.662.504 1.168.504c.499.001.886-.168 1.16-.507z"/></g><g><path d="M414.754 303.558l3.961-5.281a3.97 3.97 0 00.535-.941c.127-.325.191-.629.191-.91v-.016c0-.453-.133-.805-.398-1.055s-.645-.375-1.133-.375c-.465 0-.84.137-1.125.41-.287.273-.461.66-.523 1.16v.008h-1.648v-.008c.094-.65.285-1.207.574-1.668s.662-.813 1.121-1.055c.457-.242.986-.363 1.586-.363.676 0 1.254.116 1.734.348.479.232.844.569 1.094 1.012.25.443.375.977.375 1.602v.008c0 .401-.084.82-.25 1.258a5.454 5.454 0 01-.695 1.266l-3.289 4.469h4.297v1.516h-6.406v-1.385zM423.035 303.347h1.594v1.594l-1.594 1.578v-3.172zM426.66 301.816l3.813-8.227h1.641l-3.719 8.133h5.57v1.477h-7.305v-1.383zm4.899-3.555h1.555v6.688h-1.555v-6.688z"/></g><g><path d="M532.99 315.046l-.727-.348a2.863 2.863 0 01-1.168-1.008c-.293-.44-.48-.97-.559-1.59h1.625c.047.323.148.589.305.797s.359.363.605.465c.248.102.539.152.871.152.527 0 .936-.141 1.227-.422.293-.281.438-.677.438-1.188v-.344c0-.567-.137-1.007-.414-1.316-.275-.31-.666-.465-1.172-.465h-.805v-1.516h.805c.443 0 .787-.133 1.031-.398.246-.266.367-.641.367-1.125v-.352c0-.448-.129-.794-.387-1.039s-.623-.367-1.098-.367c-.27 0-.512.051-.727.152-.213.102-.395.258-.543.469s-.256.476-.324.793h-1.617c.105-.62.301-1.151.59-1.594s.656-.778 1.098-1.008c.443-.229.951-.344 1.523-.344.98 0 1.738.258 2.273.773.537.516.805 1.242.805 2.18v.188c0 .567-.152 1.063-.461 1.484-.307.422-.742.729-1.305.922.621.136 1.102.44 1.441.914.342.474.512 1.078.512 1.813v.188c0 .661-.127 1.227-.383 1.695a2.516 2.516 0 01-1.113 1.07c-.486.245-1.074.367-1.762.367l-.951.002zM539.311 313.335h1.594v1.594l-1.594 1.578v-3.172zM547.115 309.288l-.008.281a1.164 1.164 0 01-.59.527 2.368 2.368 0 01-.934.168 2.51 2.51 0 01-1.43-.414c-.41-.276-.73-.665-.957-1.168s-.34-1.085-.34-1.746v-.008c0-.734.125-1.362.371-1.883.248-.521.609-.917 1.086-1.188s1.049-.406 1.715-.406c.668 0 1.238.138 1.711.414.475.276.836.677 1.082 1.203.248.526.371 1.159.371 1.898v.008c0 .406-.051.84-.156 1.301a7.965 7.965 0 01-.539 1.578c-.031.07-.064.14-.102.207l-2.422 4.867h-1.719l2.861-5.639zm.075-.985c.273-.339.41-.815.41-1.43v-.008c0-.599-.137-1.063-.41-1.391s-.66-.492-1.16-.492c-.504 0-.895.164-1.168.492s-.41.794-.41 1.398v.008c0 .614.137 1.09.41 1.426s.664.504 1.168.504c.499.001.886-.168 1.16-.507z"/></g><g><path d="M609.147 229.194l3.813-8.227h1.641l-3.719 8.133h5.57v1.477h-7.305v-1.383zm4.898-3.555h1.555v6.688h-1.555v-6.688zM618.248 230.725h1.594v1.594l-1.594 1.578v-3.172zM624.772 232.319h-1.594v-9.625l-1.617.992v-1.648l1.617-1.078h1.594v11.359z"/></g><g><path d="M8.137 218.559l-.727-.348a2.857 2.857 0 01-1.168-1.008c-.294-.44-.48-.97-.559-1.59h1.625c.047.323.148.589.305.797s.358.363.605.465c.247.102.538.152.871.152.526 0 .935-.141 1.227-.422.292-.281.438-.677.438-1.188v-.344c0-.567-.138-1.007-.414-1.316-.276-.31-.667-.465-1.172-.465h-.805v-1.516h.805c.442 0 .786-.133 1.031-.398.245-.266.367-.641.367-1.125v-.352c0-.448-.129-.794-.387-1.039s-.624-.367-1.098-.367c-.271 0-.513.051-.727.152-.214.102-.395.258-.543.469s-.257.476-.324.793H5.871c.104-.62.301-1.151.59-1.594s.655-.778 1.098-1.008c.442-.229.95-.344 1.523-.344.979 0 1.737.258 2.273.773.536.516.805 1.242.805 2.18v.188c0 .567-.154 1.063-.461 1.484-.308.422-.742.729-1.305.922.62.136 1.1.44 1.441.914.341.474.512 1.078.512 1.813v.188c0 .661-.128 1.227-.383 1.695a2.526 2.526 0 01-1.113 1.07c-.487.245-1.074.367-1.762.367l-.952.002zM14.457 216.848h1.594v1.594l-1.594 1.578v-3.172zM19.754 218.169a2.86 2.86 0 01-1.207-1.105c-.284-.477-.426-1.03-.426-1.66v-.188c0-.567.142-1.102.426-1.602.284-.5.663-.878 1.137-1.133-.401-.219-.723-.535-.965-.949s-.363-.851-.363-1.309v-.273c0-.594.133-1.116.398-1.566s.641-.8 1.125-1.047 1.047-.371 1.688-.371 1.203.124 1.688.371.859.597 1.125 1.047.398.973.398 1.566v.273c0 .469-.124.909-.371 1.32a2.485 2.485 0 01-.98.938c.479.261.863.64 1.152 1.137s.434 1.03.434 1.598v.188c0 .63-.142 1.184-.426 1.66a2.854 2.854 0 01-1.207 1.105c-.521.261-1.125.391-1.813.391s-1.292-.131-1.813-.391zm2.789-1.36c.281-.146.499-.351.652-.613.153-.263.23-.566.23-.91v-.109c0-.349-.077-.655-.23-.918-.154-.263-.371-.468-.652-.613s-.607-.219-.977-.219-.695.073-.977.219-.499.352-.652.617c-.154.266-.23.573-.23.922v.117c0 .344.077.646.23.906.153.261.371.462.652.605s.606.215.977.215c.37 0 .696-.073.977-.219zm-.133-5.121c.245-.138.435-.335.57-.59.135-.255.203-.55.203-.883v-.109c0-.317-.068-.599-.203-.844a1.406 1.406 0 00-.57-.566 1.74 1.74 0 00-.844-.199 1.74 1.74 0 00-.844.199 1.4 1.4 0 00-.57.566 1.724 1.724 0 00-.203.852v.117c0 .328.067.618.203.871.135.253.325.448.57.586.245.138.526.207.844.207.318 0 .599-.069.844-.207z"/></g></g></svg>