<svg version="1.1" id="_x32_53" xmlns="http://www.w3.org/2000/svg" x="0" y="0" viewBox="0 0 489.39 402.045" xml:space="preserve"><style>.st0,.st1{fill-rule:evenodd;clip-rule:evenodd}.st0{fill:#fff}.st1{stroke-width:.4}.st1,.st2{fill:none;stroke:#999;stroke-linecap:round;stroke-linejoin:round;stroke-miterlimit:3}.st2,.st4,.st5,.st6,.st8{fill-rule:evenodd;clip-rule:evenodd}.st5,.st6,.st8{fill:none;stroke:#000;stroke-miterlimit:3}.st6,.st8{stroke-miterlimit:22.9256}.st8{stroke:#666;stroke-width:.6}</style><path class="st0" d="M210.368 130.936V15.769H.501v343.917h289.242v41.5h90.25v-41.5h109.011v-228.75z" id="fon_1_"/><g id="mebel"><g id="mebel_5_"><path class="st1" d="M23.929 136.995h55.924m-55.924-11.336h55.924m-63.86-11.335h63.86m-44.306-11.337h44.306m-63.86-11.335h63.86m-20.028 53.365V83.631m-22.671 61.386v-45.92m0-.459V83.631M103.902 80.607l4.29-4.29m-11.237 4.29l11.237-11.237M90.007 80.607l18.185-18.184M83.061 80.607l25.131-25.131M76.114 80.607l32.078-32.078M69.167 80.607l39.025-39.024M62.22 80.607l41.391-41.392M55.273 80.607l41.392-41.392M48.326 80.607l41.392-41.392M41.38 80.607l41.391-41.392M39.926 75.113l35.898-35.897M39.926 68.167L59.924 48.17m.21-.212l9.189-9.189M39.926 61.22l12.48-12.48m9.811-9.811l7.056-7.056M39.926 54.272l9.716-9.716m11.912-11.911l4.009-4.009M39.926 47.326l9.576-9.576m-9.576 2.628l10.396-10.396M39.926 33.43l4.795-4.795m63.471 12.227l-1.647-1.647m1.647 8.594l-8.594-8.594m8.594 15.541L92.651 39.215m15.541 22.489L85.703 39.215m22.489 29.435L78.757 39.215m-9.484-9.484l-1.095-1.095m40.014 46.961L71.81 39.215m-2.537-2.537l-8.042-8.042m45.024 51.971L61.939 36.29m37.369 44.317l-37.089-37.09M50.166 31.463l-2.828-2.828m45.023 51.972L59.924 48.169M49.503 37.748l-9.113-9.113m45.025 51.972L54.459 49.651m-4.706-4.705l-9.827-9.827m38.541 45.488L39.926 42.065M71.52 80.607L39.926 49.013m24.648 31.594L39.926 55.959m17.701 24.648L39.926 62.906m10.753 17.701L39.926 69.853m3.807 10.754L39.926 76.8"/><path class="st2" d="M69.839 24.101h37.787m0 0l.401.166m0 0l.166.4m0 0v13.981m0 0l-.166.401m0 0l-.401.166m0 0H69.839m0 0l-.4-.166m0 0l-.166-.401m0 0V24.667m0 0l.166-.4m0 0l.4-.166M107.059 28.824v8.691M106.492 38.082h-35.52M70.406 37.515v-8.691M106.492 28.258c.312 0 .566.254.566.566M107.059 37.515a.567.567 0 01-.566.566M70.973 38.082a.567.567 0 01-.566-.566M70.406 28.824c0-.312.254-.566.566-.566M89.488 31.246a.755.755 0 01-.303.605v-1.21a.754.754 0 01.303.605zm-1.21.604a.754.754 0 010-1.21v1.21zM89.186 24.629h-.907m-.001 0v7.749m0 .001l.256.301m.001 0h.395m0 0l.256-.301m0 0V24.63M87.977 24.629h1.512m0 0v-.265m0 0h-1.512m0 0v.265M87.599 24.365h2.268m0 0v-.264m0 0h-2.268m0 0v.264M85.464 25.99v-1.625m0 0h.095m0 0v-.132m0 0h.283m0 0v-.132m0 0h-1.89m0 0v.132m0 0h.283m0 0v.132m0 0h.095m0 0v1.625m0 0h.322m0 0v.416m0 0h-1.078m0 0v.491m0 0h2.646m0 0v-.491m0 0h-1.077m0 0v-.416m0 0h.321M92.001 25.99v-1.625m0 0h-.095m0 0v-.132m0 0h-.283m0 0v-.132m0 0h1.89m0 0v.132m0 0h-.284m0 0v.132m0 0h-.094m0 0v1.625m0 0h-.322m0 0v.416m0 0h1.078m0 0v.491m0 0h-2.646m0 0v-.491m0 0h1.077m0 0v-.416m0 0h-.321M84.651 26.406l.072.071M85.143 26.406l-.072.071M84.651 25.99h.492M84.33 24.365h1.134M85.559 24.233h-1.323M92.814 26.406l-.072.071M92.322 26.406l.071.071M92.814 25.99h-.492M93.135 24.365h-1.134M91.906 24.233h1.322M85.143 26.651a.246.246 0 11-.491 0 .246.246 0 01.491 0zM92.814 26.651a.246.246 0 11-.492 0 .246.246 0 01.492 0zM49.401 43.627l.469 1.646m0-.001l.718 1.551m0 .001l.967 1.23m0 0l1.249.942m0 0l1.449.594m0 0l1.55.206m0-.001l1.551-.206m0 .001l1.447-.594m0 0l1.249-.942m.001 0l.967-1.23m-.001 0l.719-1.551m0-.001l.469-1.646m0 .001l.208-1.697m0 0l-.06-1.709m0 0L61.13 28.636m.001 0H50.476m0 0l-1.223 11.585m0 0l-.059 1.709m0 0l.207 1.697M59.92 34.356h-4.116M55.804 34.356h-4.117M58.867 48.624a5.755 5.755 0 01-3.063.887M62.115 41.794c.165 2.592-1.031 5.107-3.248 6.83M59.92 34.356c1.506 2.254 2.266 4.828 2.195 7.437M49.491 41.794c-.069-2.609.69-5.185 2.195-7.437M52.74 48.624c-2.218-1.724-3.413-4.238-3.249-6.83M55.804 49.51a5.738 5.738 0 01-3.063-.887M60.451 28.635h-9.296m0 0v.188m0 0h9.296m0 0v-.188M46.357 28.635H65.25M46.357 24.101H65.25M46.357 28.635v-4.534M65.25 28.635v-4.534M79.852 145.017V83.63m0 0h28.34m.001 0v61.387m0 0h-28.34M105.925 137.855l-.086.889m0 0l-.256.861m0 0l-.417.808m0 0l-.567.73m0 0l-.698.631m0 0l-.81.512m0 0l-.895.377m0 0l-.955.23m0 0l-.984.078m0 0h-12.47m0 0l-.983-.078m0 0l-.954-.23m0 0l-.896-.377m0 0l-.809-.512m0 0l-.699-.631m0 0l-.567-.73m0 0l-.417-.808m0 0l-.256-.861m0 0l-.086-.889m0 0V96.418m0 0l.181-1.865m0 0l.536-1.808m0 0l.877-1.698m0 0l1.19-1.533m0 0l1.467-1.325m0 0l1.7-1.073m0 0l1.88-.792m0 0l2.005-.485m0 0l2.067-.163m0 0l2.066.163m0 0l2.005.485m0 0l1.88.792m0 0l1.699 1.073m0 0l1.468 1.325m0 0l1.189 1.533m0 0l.877 1.698m0 0l.537 1.808m0 0l.181 1.865m0 0v41.437M94.967 135.948a.945.945 0 11-1.89 0 .945.945 0 011.89 0zM11.459 38.287h28.467M39.926 38.287v42.32M39.926 80.607H11.459M19.017 44.899a.945.945 0 11-1.89 0 .945.945 0 011.89 0zM24.443 59.451l.372-1.396m-.001 0l.793-1.209m.001 0l1.133-.898m0 0l1.357-.496m0 0l1.446-.043m-.001 0l1.384.413m.001 0l1.185.829m0 0l.863 1.159m-.001 0l.455 1.372m.001 0v1.446m0 0L32.975 62m0 0l-.863 1.159m.001 0l-1.185.828m0 0l-1.384.414m-.001 0l-1.446-.044m.001 0l-1.357-.495m0 0l-1.133-.898m0 0l-.793-1.209m-.001 0l-.372-1.397m.001 0h-5.537m0 0l.107.455m-.001 0l.037.49m.001 0l-.037.489m-.001 0l-.107.455m.001 0l-.173.392m-.001 0l-.225.3m.001 0l-.26.189m-.001 0l-.282.064m0 0h-.402m0 0l-.12-.019m.001 0l-.277-.064m0 0l-.104-.054m0 0l-.251-.182m-.001 0l-.07-.077m0 0l-.204-.275m.001 0l-.158-.356m-.001 0l-.051-.196m0 0l-.06-.25m.001 0l-.688-.019m0 0l-.797-.01m.001 0v1.729m0 0h-.434m0 0v2.872m0 0l-.059.159m-.001 0l-.149.083m.001 0l-.167-.033m0 0l-.105-.133m.001 0l-.158-.486m-.001 0l-.315-.726m0 0l-.574-1.007m0 0l-.258-.729m.001 0h-.125m0 0v.604m0 0h-.982m0 0v-2.569m0 0h.878m-.001 0l.009-.024m.001 0l.028-.039m0 0l.035-.033m-.001 0l.04-.024m0 0l.673-.279m0 0v-.697m0 0h-1.361m0 0v1.058m0 0h-.301m0 0v-3.023m0 0h.302m-.001 0v1.058m0 0h1.361m0 0v-1.436m0 0h.151m0 0v-.416m0 0h-.303m0 0v.152m0 0h-.529m.001 0v.604m0 0h-.982m0 0v-2.569m0 0h.982m0 0v.604m0 0h.529m-.001 0v.152m0 0h.303m0 0v-.152m0 0h1.511m.001 0v2.57m0 0h2.154m-.001 0v.023m0 0v.06m0 0v.093m0 0v.124m0 0v.149m0 0v.042m0 0h7.504M13.122 61.794v-.209m0-.001l-.341.14m0 0l-.053.326m0 0l.001.008m0 .001h.242m0 0v.151m0-.001h.302m0 0v-.416m0 .001h-.151M13.273 63.268h-.241m.001 0l.239.676m-.001 0l.564.988m.001 0l.023.053m0 0v-1.567m0 0h-.585m-.001 0v-.15M12.442 57.411h.528M12.442 56.73h.528M12.442 63.067v.352M12.971 62.209v.19M12.971 62.399v.68M12.971 63.079v.014M12.795 62.399h.176M12.966 63.079h.005M13.273 63.268v-1.059M14.784 60.915v-.557M13.859 63.418h.492M15.352 60.849v-.491M14.338 66.215l.013.076M12.234 62.065l.002-.047M12.267 62.235l-.032-.17M12.318 61.52l.01-.047M12.328 61.473l.009-.02M12.567 63.418l-.161-.453M12.405 62.965l-.139-.729M12.739 62.11l-.011-.06M14.338 66.215l-.167-.514M14.171 65.702l-.312-.717M12.423 63.008v-.001M12.236 62.018l.082-.498M16.84 60.36l-.002-.002M16.309 60.358l-.001.002M13.669 61.794h-.127M13.424 61.794h-.103M13.542 61.794h-.118M13.122 61.584v-.523M12.878 62.832l-.139-.722M13.032 63.268l-.154-.437M13.755 61.114l.001-.001M13.711 61.205l.044-.091M13.696 61.302l.015-.098M13.711 61.4l-.015-.098M13.755 61.492l-.044-.092M13.755 61.492h.001M16.252 61.647l-.026-.345M16.226 61.302l.026-.345M16.269 61.718l-.017-.071M16.328 60.636l.052-.195M16.252 60.958l.076-.321M13.922 61.671l.062.01M16.38 60.441l.036-.083M16.269 60.886l-.687.02M13.984 60.925l-.062.009M13.922 60.934l-.058.026M13.864 60.961l-.05.042M13.815 61.003l-.038.054M13.776 61.057l-.021.056M13.756 61.114l-.003.007M13.753 61.121l-.008.068M13.745 61.189v.227M13.745 61.416l.008.068M13.753 61.484l.003.008M13.756 61.492l.021.057M13.776 61.548l.038.055M13.815 61.603l.049.042M13.864 61.645l.058.026M15.581 60.906l-1.597.019M14.784 61.69l-.8-.01M14.482 61.794v-.107M14.482 60.919v-.561M24.443 59.451h5.343M24.443 60.358h5.343M29.785 59.451v.907M12.442 56.39v1.36M12.971 56.542V57.6M13.273 56.542V57.6M13.273 58.015h1.209M14.482 61.794h-1.209M11.762 59.451v.907M13.122 59.451h3.816M18.905 60.358h-5.783M14.482 58.015v1.436M14.784 58.96v.491M15.352 58.96v.491M14.784 60.849h1.493M27.12 59.451a1.89 1.89 0 110 .907M13.81 58.015a.34.34 0 11.589 0M30.985 105.32l1.645-.469m0 0l1.552-.718m0 0l1.23-.968m0 0l.942-1.248m0 0l.594-1.449m0 0l.206-1.55m.001 0l-.206-1.551m-.001 0l-.594-1.448m0 0l-.942-1.248m0 0l-1.23-.967m0 0l-1.552-.719m0 0l-1.645-.469m0 0l-1.698-.208m.001 0l-1.709.06m0 0l-11.585 1.223m-.001 0v10.654m0 0l11.585 1.222m.001 0l1.709.06m0 0l1.698-.207M21.715 94.801v4.116M21.715 98.918v4.117M35.982 95.854c.571.889.881 1.961.887 3.063M29.152 92.606c2.592-.165 5.106 1.031 6.829 3.248M21.715 94.801c2.253-1.506 4.828-2.266 7.437-2.195M29.152 105.229c-2.609.07-5.185-.689-7.437-2.194M35.982 101.981c-1.723 2.217-4.238 3.413-6.829 3.248M36.868 98.918a5.73 5.73 0 01-.887 3.063M15.993 94.27v9.295m0 0h.189m0 0V94.27m0 0h-.189M15.993 108.364V89.471M11.459 108.364V89.471M15.993 108.364h-4.534M15.993 89.471h-4.534M11.459 144.45v-27.584m0 0l.166-.4m0 0l.401-.166m0 0h11.336m0 0l.401.166m0 0l.166.4m0 0v27.584m0 0l-.166.401m0 0l-.401.166m0 0H12.026m0 0l-.401-.166m0 0l-.166-.401M15.616 143.317V118M16.183 117.433h6.046M22.795 118v25.317M22.229 143.883h-6.046M15.616 118c0-.312.253-.566.566-.566M22.229 117.433c.312 0 .566.254.566.566M22.795 143.317a.567.567 0 01-.566.566M16.183 143.883a.566.566 0 01-.566-.566M18.639 130.658a.756.756 0 11-1.512 0 .756.756 0 011.512 0zM11.989 130.205v.907m0 0h7.748m-.001 0l.301-.256m.001 0v-.395m0 0l-.301-.256m-.001 0h-7.748M11.989 131.414v-1.511m0 0h-.265m-.001 0v1.511m0 0h.265M11.724 131.792v-2.268m0 0h-.265m0 0v2.268m0 0h.265M13.349 133.926h-1.625m0 0v-.094m0 0h-.132m0 0v-.284m0 0h-.133m0 0v1.89m0 0h.133m0 0v-.283m0 0h.132m0 0v-.095m0 0h1.625m0 0v-.322m0 0h.416m0 0v1.078m0 0h.49m0 0v-2.646m0 0h-.49m0 0v1.077m0 0h-.416m0 0v-.321M13.349 127.389h-1.625m0 0v.095m0 0h-.132m0 0v.283m0 0h-.133m0 0v-1.889m0 0h.133m0 0v.283m0 0h.132m0 0v.095m0 0h1.625m0 0v.321m0 0h.416m0 0V125.5m0 0h.49m0 0v2.645m0 0h-.49m0 0v-1.076m0 0h-.416m0 0v.32M13.765 134.739l.071-.071M13.765 134.248l.071.072M13.349 134.739v-.491M11.724 135.06v-1.134M11.592 133.833v1.322M13.765 126.577l.071.072M13.765 127.069l.071-.072M13.349 126.577v.492M11.724 126.256v1.133M11.592 127.484v-1.322M14.255 134.494a.244.244 0 01-.245.245.244.244 0 01-.245-.245.245.245 0 11.49 0zM14.255 126.823a.245.245 0 11-.49 0 .245.245 0 11.49 0zM408.404 250.252h-3.028m0 0v-.859m0-.001v-17.175m0 .001v-.86m0 0h3.028m0 0v.86m0 0v17.175m0-.001v.859M401.948 231.358h3.428m0 0v.859m0 0h-3.225m0 0v-.057m0 0l.197-.294m0 0l-.087-.343m0 0l-.313-.165M399.59 232.16l.196-.294m0 0l-.086-.343m0 0l-.313-.165m0 0h2.561m0 0l.314.165m0 0l.087.343m0 0l-.197.294m0 0v17.29m0 0l.197.294m0 0l-.087.343m0 0l-.314.165m0 0h-2.561m0 0l.313-.165m0 0l.086-.343m0 0l-.196-.294m0 0v-17.29M401.948 250.252l.313-.165m0 0l.087-.343m0-.001l-.197-.294m0 0v-.057m0 0h3.225m0 0v.859m0 .001h-3.428M399.185 233.022v15.565m0 0l-.227-1.004m0 0v-13.556m0 0l.227-1.005M399.185 232.16l-.196-.294m0 0l.086-.343m0 0l.312-.165m0 0l.314.165m0 0l.086.343m-.001 0l-.197.294m0 0v17.29m0 0l.197.294m0 0l-.086.343m.001 0l-.314.165m0 0l-.312-.165m0 0l-.086-.343m0 0l.196-.294m0 0v-17.29M408.404 272.167h-3.028m0 0v-.858m0 .001v-17.176m0-.001v-.859m0 .001h3.028m0 0v.859m0-.001v17.176m0 .001v.858M401.948 253.275h3.428m0 0v.858m0 0h-3.225m0 0v-.057m0 0l.197-.294m0 0l-.087-.343m0 0l-.313-.164M399.59 254.076l.196-.294m0 0l-.086-.343m0 0l-.313-.164m0 0h2.561m0 0l.314.164m0 0l.087.343m0 0l-.197.294m0 0v17.291m0 0l.197.294m0 0l-.087.342m0 0l-.314.165m0 0h-2.561m0 0l.313-.165m0 0l.086-.342m0 0l-.196-.294m0 0v-17.291M401.948 272.167l.313-.165m0 0l.087-.342m0 .001l-.197-.294m0 0v-.057m0 0h3.225m0 0v.858m0-.001h-3.428M399.185 254.938v15.566m0 0l-.227-1.004m0 0v-13.557m0 0l.227-1.005M399.185 254.076l-.196-.294m0 0l.086-.343m0 0l.312-.164m0 0l.314.164m0 0l.086.343m-.001 0l-.197.294m0 0v17.291m0 0l.197.294m0 0l-.086.342m.001 0l-.314.165m0 0l-.312-.165m0 0l-.086-.342m0 0l.196-.294m0 0v-17.291M442.412 250.252h3.028m0 0v-.859m0-.001v-17.175m0 .001v-.86m0 0h-3.028m0 0v.86m0 0v17.175m0-.001v.859M448.867 231.358h-3.427m0 0v.859m0 0h3.225m0 0v-.057m0 0l-.197-.294m0 0l.087-.343m0 0l.312-.165M451.227 232.16l-.196-.294m0 0l.086-.343m0 0l.312-.165m0 0h-2.561m0 0l-.313.165m0 0l-.087.343m0 0l.197.294m0 0v17.29m0 0l-.197.294m0 0l.087.343m0 0l.313.165m0 0h2.561m0 0l-.312-.165m0 0l-.086-.343m0 0l.196-.294m0 0v-17.29M448.867 250.252l-.312-.165m0 0l-.087-.343m0-.001l.197-.294m0 0v-.057m0 0h-3.225m0 0v.859m0 .001h3.427M451.632 233.022v15.565m0 0l.227-1.004m0 0v-13.556m0 0l-.227-1.005M451.632 232.16l.196-.294m0 0l-.087-.343m0 0l-.312-.165m0 0l-.313.165m0 0l-.086.343m0 0l.197.294m0 0v17.29m0 0l-.197.294m0 0l.086.343m0 0l.313.165m0 0l.312-.165m0 0l.087-.343m0 0l-.196-.294m0 0v-17.29M442.412 272.167h3.028m0 0v-.858m0 .001v-17.176m0-.001v-.859m0 .001h-3.028m0 0v.859m0-.001v17.176m0 .001v.858M448.867 253.275h-3.427m0 0v.858m0 0h3.225m0 0v-.057m0 0l-.197-.294m0 0l.087-.343m0 0l.312-.164M451.227 254.076l-.196-.294m0 0l.086-.343m0 0l.312-.164m0 0h-2.561m0 0l-.313.164m0 0l-.087.343m0 0l.197.294m0 0v17.291m0 0l-.197.294m0 0l.087.342m0 0l.313.165m0 0h2.561m0 0l-.312-.165m0 0l-.086-.342m0 0l.196-.294m0 0v-17.291M448.867 272.167l-.312-.165m0 0l-.087-.342m0 .001l.197-.294m0 0v-.057m0 0h-3.225m0 0v.858m0-.001h3.427M451.632 254.938v15.566m0 0l.227-1.004m0 0v-13.557m0 0l-.227-1.005M451.632 254.076l.196-.294m0 0l-.087-.343m0 0l-.312-.164m0 0l-.313.164m0 0l-.086.343m0 0l.197.294m0 0v17.291m0 0l-.197.294m0 0l.086.342m0 0l.313.165m0 0l.312-.165m0 0l.087-.342m0 0l-.196-.294m0 0v-17.291M408.404 275.191h-3.028m0 0v.859m0 0v17.175m0 0v.86m0 0h3.028m0 0v-.86m0 0V276.05m0 0v-.859M401.948 294.085h3.428m0 0v-.859m0-.001h-3.225m0 0v.057m0 0l.197.294m0 .001l-.087.343m0 0l-.313.165M399.59 293.283l.196.294m0 0l-.086.343m0 0l-.313.165m0 0h2.561m0 0l.314-.165m0 0l.087-.343m0 0l-.197-.294m0 0v-17.29m0 0l.197-.294m0 0l-.087-.343m0 0l-.314-.165m0 0h-2.561m0 0l.313.165m0 0l.086.343m0 0l-.196.294m0 0v17.29M401.948 275.191l.313.165m0 0l.087.343m0 0l-.197.294m0 0v.057m0 0h3.225m0 0v-.859m0 0h-3.428M399.185 292.42v-15.565m0 .001l-.227 1.004m0-.001v13.556m0 .001l.227 1.005M399.185 293.283l-.196.294m0 0l.086.343m0 0l.312.165m0 0l.314-.165m0 0l.086-.343m-.001 0l-.197-.294m0 0v-17.29m0 0l.197-.294m0 0l-.086-.343m.001 0l-.314-.165m0 0l-.312.165m0 0l-.086.343m0 0l.196.294m0 0v17.29M442.412 275.191h3.028m0 0v.859m0 0v17.175m0 0v.86m0 0h-3.028m0 0v-.86m0 0V276.05m0 0v-.859M448.867 294.085h-3.427m0 0v-.859m0-.001h3.225m0 0v.057m0 0l-.197.294m0 .001l.087.343m0 0l.312.165M451.227 293.283l-.196.294m0 0l.086.343m0 0l.312.165m0 0h-2.561m0 0l-.313-.165m0 0l-.087-.343m0 0l.197-.294m0 0v-17.29m0 0l-.197-.294m0 0l.087-.343m0 0l.313-.165m0 0h2.561m0 0l-.312.165m0 0l-.086.343m0 0l.196.294m0 0v17.29M448.867 275.191l-.312.165m0 0l-.087.343m0 0l.197.294m0 0v.057m0 0h-3.225m0 0v-.859m0 0h3.427M451.632 292.42v-15.565m0 .001l.227 1.004m0-.001v13.556m0 .001l-.227 1.005M451.632 293.283l.196.294m0 0l-.087.343m0 0l-.312.165m0 0l-.313-.165m0 0l-.086-.343m0 0l.197-.294m0 0v-17.29m0 0l-.197-.294m0 0l.086-.343m0 0l.313-.165m0 0l.312.165m0 0l.087.343m0 0l-.196.294m0 0v17.29M442.412 302.397h-34.008m0 0v-79.352m0 0h34.008m0 0v79.352M200.013 166.366v-24.167m0 0h62.348m0 0V165.8m0 0h15.87m0 0v.566m0 0h-78.218M65.25 28.635H46.356m0 0v-4.534m0 0H65.25m0 0v4.534M39.926 38.287h-5.795m0 0v-9.651m0 0h5.795m0 0v9.651M289.189 164.871h22.672m0 0v-22.672m0 0h-22.672m0 0v22.672M300.525 149.756v7.558M297.853 150.863l5.343 5.344M296.746 153.535h7.557M297.853 156.207l5.343-5.344M332.832 162.037h-19.271m0 0l-.535-.222m0 0l-.221-.534m0 0v-17.382m0 0l.221-.534m0 0l.535-.222m0 0h19.271m0 0l.534.222m0 0l.221.534m0 0v17.382m0 0l-.221.534m0 0l-.534.222M334.532 164.871H311.86M334.532 164.871v-22.672M311.86 164.871v-22.672M330.943 160.147H315.45M314.694 159.391v-11.713M315.45 146.922h15.492M331.698 147.678v11.713M330.943 160.147h.108a.108.108 0 10-.216 0 .108.108 0 00.216 0h-.108zM315.45 160.147a.755.755 0 01-.756-.756M314.694 147.678c0-.418.338-.756.756-.756M330.943 146.922c.417 0 .756.338.756.756M331.698 159.391a.756.756 0 01-.756.756M323.536 151.755l-.1.24m0-.001l-.241.099m0 .001l-.24-.1m0-.001l-.099-.241m0 .001v-7.476m0-.001l.1-.24m0 0l.24-.099m0 0l.24.099m0 0l.1.24m0 0v7.478M323.95 146.204h-.414m0 0v-1.927m0 0l-.1-.24m0 0l-.24-.1m0 0l-.24.1m0 0l-.1.24m0 0v1.927m0 0h-.415m0 0v-2.456m0 0h1.509m0 0v2.456M323.94 147.565h-.404m0 0v-1.323m0 0h.404m0 0v1.323M322.452 147.565v-1.323m0 0h.404m0 0v1.323m0 0h-.404M357.204 164.871h-22.672M357.204 164.871v-22.672M334.532 164.871v-22.672M384.222 162.793h21.916m0 0v-18.516m0-.001h-21.916m0 0v18.516M395.179 151.512v-5.299M395.179 146.213h1.096M395.179 151.512h1.096M404.033 151.512v-5.299M402.937 146.213h1.097M402.937 151.512h1.097M391.673 148.647a2.74 2.74 0 11-5.479-.001 2.74 2.74 0 015.479.001zM394.172 156.886a3.969 3.969 0 11-7.937-.001 3.969 3.969 0 017.937.001z"/><path class="st2" d="M392.472 156.886a2.268 2.268 0 11-4.536-.002 2.268 2.268 0 014.536.002zM402.251 148.832a2.646 2.646 0 11-5.291 0 2.646 2.646 0 015.291 0zM404.125 157.422a3.4 3.4 0 11-6.802 0 3.4 3.4 0 016.802 0zM357.204 164.871h85.884M357.204 164.871v-22.672M443.088 164.871v-22.672M443.088 164.871h21.996m0 0v-22.672m0 0h-21.996m0 0v22.672M379.687 309.803h-2.078m-.001 0v-94.164m0 0h2.078m.001 0v94.164M338.122 309.803v-47.082m0 0h29.096m0 0v47.082m0 0h-29.096M338.122 262.721v-47.082m0 0h29.096m0 0v47.082m0 0h-29.096M338.122 215.639v-9.598m0 0h41.564m0 0v9.598m0 0h-2.078m-10.39 0h-29.095M338.122 319.401v-9.598m0 0h29.095m10.391 0h2.078m0 0v9.598m0 0h-41.564M377.608 262.721h-10.391m.001 0V210.84m0 0h10.391m-.001 0v51.881M377.608 262.721h-10.391m.001 0v51.881m0 0h10.391m-.001 0v-51.881M260.396 153.535a7.18 7.18 0 11-14.361-.001 7.18 7.18 0 0114.361.001zM352.437 156.358a3.411 3.411 0 11-6.822 0 3.411 3.411 0 016.822 0z"/><path class="st2" d="M351.915 156.358a2.89 2.89 0 11-5.78 0 2.89 2.89 0 015.78 0zM345.296 157.19a2.58 2.58 0 11-5.16-.001 2.58 2.58 0 015.16.001z"/><path class="st2" d="M344.161 157.19a1.444 1.444 0 11-2.892 0 1.444 1.444 0 012.892 0zM85.143 234.02v68.015m0 0H15.239m0 0V234.02m0 0h69.904M87.032 235.909v64.237m0 0l-.145.723m0 0l-.409.612m0 0l-.613.41m0 0l-.723.144m0 0V234.02m0 0l.723.144m0 0l.613.409m0 0l.409.613m0 0l.145.723M11.459 234.02v68.015m0 0h3.779m0 0V234.02m0 0h-3.779M11.459 302.035V234.02m0 0h1.89m0 0v68.015m0 0h-1.89M11.459 303.925v17.004m0-.001h18.894m0 0v-17.004m0 .001H11.459M11.459 232.13v-17.004m0 0h18.894m0 0v17.004m0 0H11.459M17.127 274.073v25.695m0 0l.111.267m0 0l.267.111m0 0h12.47m0 0l.266-.111m0 0l.112-.267m0 0v-25.695m0 0l-.112-.267m0 0l-.266-.111m0 0h-12.47m0 0l-.267.111m0 0l-.111.267M17.127 261.981v-25.694m0 0l.111-.268m0 0l.267-.11m0 0h12.47m0 0l.266.11m0 0l.112.268m0 0v25.694m0 0l-.112.268m0 0l-.266.11m0 0h-12.47m0 0l-.267-.11m0 0l-.111-.268M29.329 234.02v1.889M29.329 262.359v11.336M29.329 300.146v1.889M34.338 234.02v68.015m0 0h18.687m0 0L38.117 234.02m0 0h-3.779M278.231 205.286h-22.672m0 0v42.142m0 0h22.672m0 0v-42.142M266.517 247.427h.756m0 0v-42.142m0 0h-.756m0 0v42.142M276.237 214.534h-18.626m0 0v.756m0 0h18.626m0 0v-.756M276.237 216.539h-18.626m0 0v.755m0 0h18.626m0 0v-.755M276.237 218.544h-18.626m0 0v.755m0-.001h18.626m0 0v-.755M276.237 220.547h-18.626m0 0v.756m0 0h18.626m0 0v-.756M276.103 224.793l-18.491-2.241m0 .001l-.091.75m0 0l18.491 2.241m0-.001l.091-.75M294.825 306.99h-1.02m0 0v-44.369m0 0h1.02m0 0v44.369M293.806 297.529h-.833m0 0l-.566-.152m0 0l-.415-.414m0 0l-.152-.568m0 0v-22.699m0 0l.152-.566m0 0l.415-.415m0 0l.566-.152m0 0h.833m0 0v24.966M295.123 306.99h-.298m0 0v-44.369m0 0h.298m0 0v44.369M34.131 148.04H11.459m0 0v67.087m0 0h22.672m0 0V148.04M22.417 215.126h.756m0 0v-67.087m0 0h-.756m0 0v67.087M32.139 156.893H13.512m0 0v.756m0 0h18.627m0 0v-.756M32.139 158.898H13.512m0 0v.756m0 0h18.627m0 0v-.756M32.139 160.903H13.512m0 0v.756m0 0h18.627m0 0v-.756M32.139 162.908H13.512m0 0v.756m0 0h18.627m0 0v-.756M32.003 167.153l-18.491-2.241m0 0l-.091.751m0 0l18.491 2.241m0 0l.091-.751M247.208 153.019l1.233.448m0 0h1.312m0 0l1.233-.448m0 0l1.474.342m0 0h1.512m0 0l1.473-.342m0 0l1.235.45m0 0h1.313m0 0l1.235-.45m0 0l-2.231 2.987m0 0h-7.558m0 0l-2.231-2.987M249.439 156.268h7.558m0 0v-.262m0 0h-7.558m0 0v.262M249.439 156.791h7.558m0 0v-.262m0 0h-7.558m0 0v.262M254.06 151.504l-.892-.085m0 0l-.021.226m0 0l.477.046m0-.001l-1.383 1.142m0 .001l.126.152m-.001-.001l.641-.53m.001.001l.068.081m0-.001l-.74.612m0 0l.12.145m-.001.001l.741-.61m.001 0l.08.097m0 0l-.602.496m0 0l.108.13m0-.001l.601-.496m0 .001l.08.098m-.001-.001l-.414.342m.001.001l.115.139m0-.001l1.422-1.173M262.36 142.199v22.672m0 0h-22.672m.001 0v-22.672m0 0h22.672M278.231 296.169h-22.672m0 0v39.858m0 0h22.672m0 0v-39.858M266.517 336.027h.756m0 0v-39.858m0 0h-.756m0 0v39.858M276.237 303.133h-18.626m0 0v.756m0 0h18.626m0 0v-.756M276.237 305.137h-18.626m0 0v.756m0 0h18.626m0 0v-.756M276.237 307.142h-18.626m0 0v.755m0 0h18.626m0 0v-.755M276.237 309.147h-18.626m0 0v.755m0 0h18.626m0 0v-.755M276.103 313.392l-18.491-2.241m0 0l-.091.75m0 0l18.491 2.242m0 0l.091-.751M278.231 247.427h-22.672m0 0v48.741m0 0h22.672m0 0v-48.741M211.727 234.02v68.015m0 0h-69.904m0 0V234.02m0 0h69.904M213.616 235.909v64.237m0 0l-.145.723m0 0l-.409.612m0 0l-.613.41m0 0l-.723.144m0 0V234.02m0 0l.723.144m0 0l.613.409m0 0l.409.613m0 0l.145.723M138.044 234.02v68.015m0 0h3.778m0 0V234.02m0 0h-3.778M138.044 302.035V234.02m0 0h1.889m0 0v68.015m0 0h-1.889M138.044 303.925v17.004m0-.001h18.893m0 0v-17.004m0 .001h-18.893M138.044 232.13v-17.004m0 0h18.893m0 0v17.004m0 0h-18.893M143.712 274.073v25.695m0 0l.11.267m0 0l.267.111m0 0h12.47m0 0l.267-.111m0 0l.111-.267m0 0v-25.695m0 0l-.111-.267m0 0l-.267-.111m0 0h-12.47m0 0l-.267.111m0 0l-.11.267M143.712 261.981v-25.694m0 0l.11-.268m0 0l.267-.11m0 0h12.47m0 0l.267.11m0 0l.111.268m0 0v25.694m0 0l-.111.268m0 0l-.267.11m0 0h-12.47m0 0l-.267-.11m0 0l-.11-.268M155.913 234.02v1.889M155.913 262.359v11.336M155.913 300.146v1.889M160.923 234.02v68.015m0 0h18.686m0 0l-14.908-68.015m0 0h-3.778M239.689 153.913v-.756m0 0h-39.676m0 0v.756m0 0h39.676M206.6 144.192v18.626m0 0h.756m0 0v-18.626m0 0h-.756M208.605 144.192v18.626m0 0h.756m0 0v-18.626m0 0h-.756M210.608 144.192v18.626m0 0h.756m0 0v-18.626m0 0h-.756M212.613 144.192v18.626m0 0h.756m0 0v-18.626m0 0h-.756M216.859 144.327l-2.241 18.491m0 0l.75.091m0 0l2.241-18.49m0 0l-.75-.092M353.094 158.565h-.964m0 0v1.204m0 0h-12.524m0 0v-1.204m0 0h-.963M351.63 149.039l-.048.104m-.047.102l-.047.104m-.047.103l-.047.103m-.047.102l-.047.104m-.048.103l-.047.103m-.047.103l-.048.103m-.046.103l-.047.104m-.047.102l-.048.104m-.047.102l-.047.104m-.047.102l-.047.104m-.047.104l-.048.102m-.047.104l-.047.102m-.047.104l-.048.102m-.047.104l-.046.102m-.047.104l-.048.103m-.047.103l-.047.103m-.048.103l-.047.103M341.996 149.039l.047.104m.047.102l.047.104m.047.103l.047.103m.047.102l.048.104m.047.103l.047.103m.048.103l.047.103m.046.103l.047.104m.048.102l.047.104m.047.102l.048.104m.047.102l.047.104m.046.104l.047.102m.048.104l.047.102m.047.104l.048.102m.047.104l.046.102m.048.104l.047.103m.047.103l.048.103m.047.103l.047.103M351.63 149.039h-.078m-.113 0h-.114m-.113 0h-.113m-.114 0h-.078m0 0l-.042.052m-.071.088l-.072.088m-.071.087l-.072.088m-.071.088l-.071.088m-.072.089l-.071.088m-.072.088l-.071.088m-.072.088l-.071.087m-.071.089l-.072.088m-.071.088l-.072.088m-.071.088l-.072.088m-.071.088l-.071.088m-.073.087l-.071.089m-.071.088l-.071.088m-.072.088l-.071.088m-.071.088l-.073.088m-.071.088l-.071.088m-.071.088l-.072.088m-.071.088l-.071.088m-.073.088l-.071.088m-.071.088l-.071.088m-.072.088l-.072.088m-.071.088l-.072.088m-.071.088l-.042.052M341.996 149.039h.077m.113 0h.114m.113 0h.114m.114 0h.077m0 0l.043.052m.071.088l.071.088m.072.087l.071.088m.071.088l.071.088m.073.089l.071.088m.071.088l.072.088m.071.088l.071.087m.071.089l.073.088m.071.088l.071.088m.072.088l.071.088m.072.088l.071.088m.072.087l.071.089m.071.088l.072.088m.071.088l.072.088m.071.088l.072.088m.071.088l.071.088m.072.088l.071.088m.072.088l.071.088m.072.088l.071.088m.071.088l.072.088m.072.088l.071.088m.071.088l.072.088m.071.088l.042.052M341.996 148.561h9.634m0 0v.478m0 0h-.723m0 0v-.238m0 0h-8.189m0 0v.238m0 0h-.722m0 0v-.478M289.189 239.861h15.114m0 0v96.166m0 0h-15.114m0 0v-96.166M304.303 239.861h-15.114m0 0v-37.598m0 0h15.114m0 0v37.598M111.215 145.017h24.562m0 0V80.198m0 0h-24.562m0 0v64.819M123.873 80.198h-.755m0 0v64.819m0 0h.755m0 0V80.198M114.152 138.43h18.626m0 0v-.756m0 0h-18.626m0 0v.756M114.152 136.425h18.626m0 0v-.756m0 0h-18.626m0 0v.756M114.152 134.421h18.626m0 0v-.755m0 0h-18.626m0 0v.755M114.152 132.417h18.626m0 0v-.756m0 0h-18.626m0 0v.756M114.288 128.171l18.49 2.241m0 0l.092-.75m0 0l-18.491-2.241m0 0l-.091.75M151.269 223.666a3.778 3.778 0 11-7.557.001 3.778 3.778 0 017.557-.001z"/><path class="st2" d="M148.624 223.666a1.134 1.134 0 11-2.267 0 1.134 1.134 0 012.267 0zM151.269 312.463a3.778 3.778 0 11-7.557.001 3.778 3.778 0 017.557-.001z"/><path class="st2" d="M148.624 312.463a1.134 1.134 0 11-2.267 0 1.134 1.134 0 012.267 0zM24.685 223.666a3.778 3.778 0 11-7.557.001 3.778 3.778 0 017.557-.001z"/><path class="st2" d="M22.04 223.666a1.134 1.134 0 11-2.268 0 1.134 1.134 0 012.268 0zM24.685 312.463a3.778 3.778 0 11-7.557.001 3.778 3.778 0 017.557-.001z"/><path class="st2" d="M22.04 312.463a1.134 1.134 0 11-2.268 0 1.134 1.134 0 012.268 0zM146.63 219.987l.86 3.679m0 0l3.431 1.584m0 0l-3.431-1.584m0 0l-3.546 1.306M146.63 316.143l.86-3.68m0 0l3.431-1.583m0 0l-3.431 1.583m0 0l-3.546-1.305M20.046 219.987l.859 3.679m0 0l3.432 1.584m0 0l-3.432-1.584m0 0l-3.545 1.306M20.046 316.143l.859-3.68m0 0l3.432-1.583m0 0l-3.432 1.583m0 0l-3.545-1.305"/></g></g><g id="walls_1_"><path d="M185.628.177c2.251 5.965 2.893 9.191 3.217 15.553" fill="none" stroke="#000" stroke-miterlimit="3"/><path class="st4" d="M185.606.072L149.397 15.73v1.512h.453L186.206 1.46z"/><path class="st5" d="M122.274 42.483c-3.749-1.647-7.034-2.336-11.06-2.268"/><path class="st4" d="M122.373 42.525l-1.388-.6-11.281 25.95v.454h1.51z"/><path class="st5" d="M218.075 217.785c-1.928-4.951-2.466-7.746-2.577-12.562"/><path class="st4" d="M218.117 217.881l29.272-12.655v-1.512h-.453l-29.421 12.779z"/><path class="st5" d="M49.864 134.195c-1.429 3.849-2 6.733-2.207 10.765"/><path class="st4" d="M49.906 134.101l-.602 1.387 25.257 10.982h.453v-1.511z"/><g><path class="st5" d="M120.198 184.403c4.811 1.784 7.429 2.314 12.554 2.575"/><path class="st4" d="M120.094 184.358l1.388.6 12.781-29.418v-.454h-1.511z"/></g><g><path class="st5" d="M355.502 352.217V335.97M355.502 359.774v-5.668M355.502 354.106v-1.889M313.938 352.217V335.97M313.938 359.774v-5.668M313.938 354.106v-1.889M313.938 359.774h41.564M313.938 335.97h41.564M313.938 352.217h2.834M316.772 352.217v.945M316.772 353.162h.945M317.717 353.162v.944M317.717 354.106h-3.779M347.568 354.106h-1.89M345.678 354.106v-.944M345.678 353.162h.945M346.623 353.162v-.944M346.623 352.217h.944M316.772 351.272l21.107-21.107M345.678 354.106h-27.961M319.606 351.272h24.184M316.772 351.272h2.834M319.606 351.272v1.89M319.606 353.162h-2.834M316.772 353.162v-1.89M346.623 353.162h-2.834M343.789 353.162v-1.89M343.789 351.272h2.834M346.623 351.272v1.89M343.789 353.162h-24.184M319.606 351.272h24.184M319.606 352.217h24.184M347.568 352.217h1.89M349.457 352.217v1.889M349.457 354.106h-1.89M355.502 354.106h-3.778M351.724 354.106v-1.889M351.724 352.217h3.778M349.457 353.162h2.267M349.457 352.217h2.267M351.724 354.106h-2.267M337.879 330.165a29.846 29.846 0 018.744 21.107M313.938 354.106v-1.889M313.938 354.106v-1.889M313.938 359.774v-5.668M313.938 352.217V335.97M355.502 354.106v-1.889M355.502 354.106v-1.889M355.502 359.774v-5.668M355.502 352.217V335.97"/><g><path class="st5" d="M221.362 352.217V335.97M221.362 359.774v-5.668M221.362 354.106v-1.889M155.236 352.217V335.97M155.236 359.774v-5.668M155.236 354.106v-1.889M155.236 359.774h66.126M155.236 335.97h66.126M155.236 352.217h3.778M159.014 352.217v1.889M159.014 354.106h-3.778M193.022 354.106h-1.89M191.132 354.106v-1.889M191.132 352.217h1.89M159.014 353.162h32.118M159.014 352.217h32.118M191.132 354.106h-32.118M193.022 352.217h.944M193.966 352.217v.945M193.966 353.162h.944M194.91 353.162v.944M194.91 354.106h-1.889M221.362 354.106h-3.779M217.582 354.106v-.944M217.582 353.162h.945M218.528 353.162v-.944M218.528 352.217h2.834M217.582 354.106H194.91M196.8 351.272h18.894M193.966 351.272h2.834M196.8 351.272v1.89M196.8 353.162h-2.834M193.966 353.162v-1.89M218.528 353.162h-2.834M215.694 353.162v-1.89M215.694 351.272h2.834M218.528 351.272v1.89M215.694 353.162h-18.895M196.8 351.272h18.894M196.8 352.217h18.894M155.236 354.106v-1.889M155.236 354.106v-1.889M155.236 359.774v-5.668M155.236 352.217V335.97M221.362 354.106v-1.889M221.362 354.106v-1.889M221.362 359.774v-5.668M221.362 352.217V335.97"/></g><g><path class="st5" d="M26.762 352.217V335.97M26.762 359.774v-5.668M26.762 354.106v-1.889M109.892 352.217V335.97M109.892 359.774v-5.668M109.892 354.106v-1.889M109.892 359.774h-83.13M109.892 335.97h-83.13M109.892 352.217h-3.778M106.113 352.217v1.889M106.113 354.106h3.778M55.102 354.106h1.89M56.991 354.106v-1.889M56.991 352.217h-1.89M106.113 353.162H56.991M106.113 352.217H56.991M56.991 354.106h49.122M55.102 352.217h-.944M54.158 352.217v.945M54.158 353.162h-.946M53.212 353.162v.944M53.212 354.106h1.89M26.762 354.106h3.778M30.54 354.106v-.944M30.54 353.162h-.944M29.596 353.162v-.944M29.596 352.217h-2.834M30.54 354.106h22.672M51.322 351.272H32.43M54.158 351.272h-2.836M51.322 351.272v1.89M51.322 353.162h2.836M54.158 353.162v-1.89M29.596 353.162h2.834M32.43 353.162v-1.89M32.43 351.272h-2.834M29.596 351.272v1.89M32.43 353.162h18.893M51.322 351.272H32.43M51.322 352.217H32.43M109.892 354.106v-1.889M109.892 354.106v-1.889M109.892 359.774v-5.668M109.892 352.217V335.97M26.762 354.106v-1.889M26.762 354.106v-1.889M26.762 359.774v-5.668M26.762 352.217V335.97"/></g><g><path class="st5" d="M379.308 400.789h-89.175m0 0v-41.015m0 0h89.175m0 0v41.015M380.064 401.545h-90.687m0 0v-41.771m0 0h90.687m0 0v41.771"/></g><g><path class="st5" d="M400.848 352.12v-16.248M400.848 359.677v-5.667M400.848 354.01v-1.891M400.848 359.677h88.042M400.848 335.872h64.236M400.848 352.12h4.723M405.571 352.12v1.89M405.571 354.01h-4.723M481.332 354.01h-4.723M476.61 354.01v-1.891M476.61 352.12h4.723M483.222 354.01h-1.89M405.571 352.12h71.039M476.61 354.01h-71.039M400.848 354.01v-1.891M400.848 354.01v-1.891M400.848 359.677v-5.667M400.848 352.12v-16.248M481.332 204.564h-16.247M488.89 204.564h-5.668M483.222 204.564h-1.89M488.89 204.564v155.113M465.084 204.564v131.308M481.332 204.564v4.724M481.332 209.288h1.891M483.222 209.288v-4.724M483.222 352.12v-4.724M483.222 347.396h-1.89M481.332 347.396v4.724M483.222 354.01v-1.891M481.332 209.288v138.108M483.222 347.396V209.288M483.222 204.564h-1.89M483.222 204.564h-1.89M488.89 204.564h-5.668M481.332 204.564h-16.247"/><path class="st6" d="M481.332 287.349h1.889v5.133h-1.889zM481.332 244.842h1.889v5.133h-1.889z"/></g></g><path class="st0" d="M.5 139.482V24.043h10.958v11.164h19.65V24.045h3.022v1.512h32.119v-1.513h3.023v4.536H34.13v9.651H11.458v42.32h96.733V67.877h1.512v.454h1.51v76.631h-3.022v-61.39H15.992v32.671h-4.534v28.717l36.199.001v1.51h.454v1.512l-36.653-.001V335.97H.5V139.482zm219.161-8.297h245.422v10.958H289.188v24.167h-10.959l-.001-2.268h-13.601l-.001-21.899h-64.614V23.99h10.202v11.974h.002v3.022h-.002v92.199h9.447zm47.987 10.957v18.877h10.581v-18.877h-10.581zm21.54 104.764h-10.959v89.063h10.959v-89.063zM11.458 113.221h1.512V83.572h-1.512v29.649zm96.733-89.178V40.67h1.512v-.453h1.51V24.044h-3.022v-.001zm24.561 178.147l.001-15.212h1.511v-.453h1.512v15.665h-3.024zm5.29 0c25.97.001 51.94.01 77.909.01v1.512h-.454v1.51c-25.819 0-51.637-.004-77.455-.006v-3.026zm140.187 3.039v-3.023c-10.431-.001-20.862-.003-31.294-.003v1.512h.453v1.511l30.841.003zM75.014 144.961v1.51h-.453v1.512h58.191l.001 7.104h1.511v.454h1.512v-10.58H75.014z"/><path d="M.5 359.775V335.97h26.262v23.806H.5v-.001zm0-335.731v-8.313h148.897v1.512h.453v6.801H.5h0zm209.714-8.314v8.26c-7.316 0-14.499.055-21.823.055v-6.801h.454v-1.512l21.369-.002h0zm-72.172 189.486V335.97h17.193v23.806h-45.344V335.97h19.083V202.19h9.068v3.026h0zm140.187.013v41.677h10.959v-44.699l-10.959-.001v3.023h0zm210.659-.566h-23.805v-73.478h23.805v73.478h0zM355.502 335.97h45.344v23.806h-45.344V335.97h0zm-134.141 0h92.576v23.806h-92.576V335.97z" fill-rule="evenodd" clip-rule="evenodd" stroke="#000" stroke-miterlimit="3"/><g><path class="st8" d="M3.396 23.745l-2.9 2.55M10.816 23.745l-10.32 9.09M11.456 29.715l-10.96 9.66M12.996 34.905l-12.5 11.01M33.086 23.745l-1.98 1.74M11.456 42.795l-10.96 9.66M20.416 34.905l-3.44 3.03M27.836 34.905l-3.44 3.03M11.456 49.335l-10.96 9.65M38.786 25.255l-3.44 3.03M34.126 29.365l-3.02 2.66M11.456 55.875l-10.96 9.66M34.126 35.905l-2.3 2.03M46.216 25.255l-3.44 3.03M11.456 62.415l-10.96 9.65M53.636 25.255l-3.44 3.03M11.456 68.945l-10.96 9.66M61.056 25.255l-3.44 3.03M11.456 75.485l-10.96 9.66M69.276 24.555l-4.24 3.73M13.466 80.255L.496 91.675M15.996 84.565l-3.03 2.67M20.896 80.255l-3.43 3.02M11.456 88.565l-10.96 9.66M15.996 91.105l-3.03 2.67M28.316 80.255l-3.43 3.02M11.456 95.105l-10.96 9.66M15.996 97.645l-3.03 2.67M35.736 80.255l-3.43 3.02M11.456 101.645l-10.96 9.65M15.996 104.175l-3.03 2.67M43.156 80.255l-3.43 3.02M11.456 108.175l-10.96 9.66M50.576 80.255l-3.42 3.02M15.996 110.725l-15.5 13.65M111.216 26.835l-3.02 2.66M111.216 33.375l-3.02 2.66M11.456 121.255l-10.96 9.66M58.006 80.255l-3.43 3.02M65.426 80.255l-3.43 3.02M11.456 127.795l-10.96 9.66M72.846 80.255l-3.43 3.02M11.456 134.335l-10.96 9.65M80.276 80.255l-3.43 3.02M11.456 140.875l-10.96 9.66M87.696 80.255l-3.43 3.02M14.576 144.665l-14.08 12.4M95.106 80.255l-3.42 3.02M11.456 153.945l-10.96 9.66M21.996 144.665l-3.43 3.02M109.506 67.575l-1.31 1.15M111.216 72.605l-3.02 2.66M29.416 144.665l-3.43 3.02M11.456 160.485l-10.96 9.66M102.536 80.255l-3.43 3.02M111.216 79.145l-4.69 4.13M11.456 167.025l-10.96 9.65M36.836 144.665l-3.43 3.02M111.216 85.685l-3.02 2.66M44.266 144.665l-3.43 3.02M11.456 173.565l-10.96 9.66M111.216 92.225l-3.02 2.66M11.456 180.105l-10.96 9.65M111.216 98.765l-3.02 2.66M11.456 186.645l-10.96 9.65M111.216 105.295l-3.02 2.66M11.456 193.175l-10.96 9.66M203.846 23.695l-3.83 3.38M111.216 111.835l-3.02 2.66M11.456 199.725l-10.96 9.65M210.216 24.625l-10.2 8.99M111.216 118.375l-3.02 2.66M81.376 144.665l-3.43 3.02M11.456 206.255l-10.96 9.66M210.216 31.165l-10.2 8.99M88.796 144.665l-3.43 3.02M111.216 124.915l-3.02 2.66M11.456 212.795l-10.96 9.66M210.216 37.705l-10.2 8.98M96.216 144.665l-3.43 3.02M111.216 131.455l-3.02 2.66M11.456 219.335l-10.96 9.65M210.216 44.245l-10.2 8.98M103.636 144.665l-3.42 3.02M111.216 137.995l-3.02 2.66M11.456 225.875l-10.96 9.65M210.216 50.785l-10.2 8.98M111.216 144.535l-.15.13-3.43 3.02M11.456 232.415l-10.96 9.65M210.216 57.325l-10.2 8.98M118.486 144.665l-3.43 3.02M11.456 238.945l-10.96 9.66M210.216 63.855l-10.2 8.99M125.906 144.665l-3.43 3.02M11.456 245.485l-10.96 9.66M210.216 70.395l-10.2 8.99M133.326 144.665l-3.43 3.02M11.456 252.025l-10.96 9.65M210.216 76.935l-10.2 8.98M11.456 258.565l-10.96 9.66M135.776 149.055l-3.02 2.66M210.216 83.475l-10.2 8.99M11.456 265.105l-10.96 9.65M210.216 90.015l-10.2 8.98M11.456 271.645l-10.96 9.65M210.216 96.555l-10.2 8.98M11.456 278.175l-10.96 9.66M210.216 103.085l-10.2 8.99M11.456 284.725l-10.96 9.65M210.216 109.625l-10.2 8.99M11.456 291.255l-10.96 9.66M210.216 116.165l-10.2 8.99M11.456 297.795l-10.96 9.66M135.776 188.275l-3.02 2.67M210.216 122.705l-10.2 8.98M11.456 304.335l-10.96 9.65M210.216 129.245l-10.2 8.98M135.776 194.815l-3.02 2.66M11.456 310.865l-10.96 9.66M135.776 201.355l-.61.54M215.776 130.885l-12.44 10.96M11.456 317.415l-10.96 9.65M142.586 201.895l-3.42 3.02M223.196 130.885l-12.44 10.96M11.456 323.945l-10.96 9.66M230.616 130.885l-12.44 10.96M150.006 201.895l-3.43 3.02M157.426 201.895l-3.43 3.02M238.036 130.885l-12.44 10.96M11.456 330.485l-5.89 5.19M164.846 201.895l-3.43 3.02M245.466 130.885l-12.45 10.96M172.276 201.895l-3.43 3.02M252.886 130.885l-12.44 10.96M179.696 201.905l-3.43 3.01M260.306 130.885l-12.44 10.96M187.116 201.905l-3.43 3.02M267.736 130.885l-12.45 10.96M194.536 201.905l-3.43 3.02M275.146 130.885l-12.44 10.96M267.646 144.035l-3.02 2.66M201.956 201.905l-3.43 3.02M282.566 130.885l-12.44 10.96M267.646 150.575l-3.02 2.66M209.376 201.905l-3.43 3.02M289.996 130.885l-12.44 10.96M267.646 157.115l-3.02 2.66M297.416 130.885l-19.19 16.91M215.956 202.645l-2.59 2.28M289.186 144.675l-10.96 9.66M270.966 160.725l-3.43 3.02M304.846 130.885l-12.45 10.96M289.186 151.215l-14.22 12.53M312.266 130.885l-12.44 10.96M289.186 157.755l-9.38 8.26M319.686 130.885l-12.44 10.96M327.106 130.885l-12.44 10.96M289.186 164.295l-1.96 1.72M334.526 130.885l-12.44 10.96M253.906 201.905l-3.43 3.02M261.326 201.905l-3.43 3.02M341.956 130.885l-12.45 10.96M268.756 201.905l-3.43 3.03M349.376 130.885l-12.44 10.96M356.796 130.885l-12.44 10.96M276.176 201.905l-3.43 3.03M364.226 130.885l-12.44 10.96M371.636 130.885l-12.44 10.96M379.066 130.885l-12.45 10.96M386.486 130.885l-12.44 10.96M393.906 130.885l-12.44 10.96M401.336 130.885l-12.44 10.96M408.756 130.885l-12.44 10.96M416.176 130.885l-12.44 10.96M284.816 246.605l-6.59 5.8M289.186 249.295l-10.96 9.65M423.596 130.885l-12.44 10.96M289.186 255.825l-10.96 9.66M431.016 130.885l-12.44 10.96M289.186 262.365l-10.96 9.66M438.446 130.885l-12.44 10.96M289.186 268.905l-10.96 9.66M445.866 130.885l-12.44 10.96M289.186 275.445l-10.96 9.66M453.296 130.885l-12.45 10.96M289.186 281.985l-10.96 9.65M460.716 130.885l-12.44 10.96M289.186 288.515l-10.96 9.66M465.086 133.565l-9.4 8.28M289.186 295.055l-10.96 9.66M465.086 140.105l-1.98 1.74M289.186 301.595l-10.96 9.66M289.186 308.135l-10.96 9.66M289.186 314.675l-10.96 9.65M289.186 321.215l-10.96 9.65M289.186 327.755l-8.99 7.92M289.186 334.295l-1.57 1.38"/></g><path class="st6" d="M.5 139.482V24.043h10.958v11.164h19.65V24.045h3.022v1.512h32.119v-1.513h3.023v4.536H34.13v9.651H11.458v42.32h96.733V67.877h1.512v.454h1.51v76.631h-3.022v-61.39H15.992v32.671h-4.534v28.717l36.199.001v1.51h.454v1.512l-36.653-.001V335.97H.5V139.482zm219.161-8.297h245.422v10.958H289.188v24.167h-10.959l-.001-2.268h-13.601l-.001-21.899h-64.614V23.99h10.202v11.974h.002v3.022h-.002v92.199h9.447zm47.987 10.957v18.877h10.581v-18.877h-10.581zm21.54 104.764h-10.959v89.063h10.959v-89.063zM11.458 113.221V83.572h1.512v29.648h-1.512v.001zm96.733-89.178h3.022v16.173h-1.51v.453h-1.512V24.043zm24.561 178.147l.001-15.212h1.511v-.453h1.512v15.665h-3.024zm5.29 0c25.97.001 51.94.01 77.909.01v1.512h-.454v1.51c-25.819 0-51.637-.004-77.455-.006v-3.026zm140.187 3.039v-3.023c-10.431-.001-20.862-.003-31.294-.003v1.512h.453v1.511l30.841.003zM75.014 144.961v1.51h-.453v1.512h58.191l.001 7.104h1.511v.454h1.512v-10.58H75.014z"/></g><g id="sizes"><path d="M143.995 198.171h-1.867v-9.234l-1.5.758v-1.961l1.656-.922h1.711v11.359zM148.479 198.289l-.766-.359c-.511-.239-.918-.59-1.223-1.051s-.485-1.012-.543-1.652h1.914c.042.281.128.515.258.699s.3.324.508.418.45.141.727.141c.469 0 .831-.126 1.086-.379s.383-.61.383-1.074v-.305c0-.5-.113-.887-.34-1.16s-.551-.41-.973-.41h-.883v-1.781h.883c.359 0 .637-.118.832-.355s.293-.569.293-.996v-.273c0-.401-.105-.71-.316-.926s-.509-.324-.895-.324c-.234 0-.444.05-.629.148s-.343.249-.473.449-.224.446-.281.738h-1.906c.083-.656.274-1.222.574-1.695s.685-.833 1.156-1.078 1.004-.367 1.598-.367c.989 0 1.757.258 2.301.773s.816 1.242.816 2.18v.266c0 .547-.144 1.023-.43 1.43s-.692.706-1.219.898c.583.13 1.035.426 1.355.887s.48 1.048.48 1.762v.266c0 .661-.129 1.227-.387 1.695s-.634.825-1.129 1.07-1.089.367-1.781.367l-.99-.002zM154.667 196.265h1.859v1.906l-1.859 1.578v-3.484zM161.401 198.171h-1.867v-9.234l-1.5.758v-1.961l1.656-.922h1.711v11.359zM409.323 216.428l3.93-5.203c.203-.266.36-.54.473-.824s.168-.548.168-.793v-.016c0-.38-.116-.675-.348-.883s-.562-.313-.988-.313c-.411 0-.743.126-.996.379s-.405.61-.457 1.074v.008h-1.922v-.008c.073-.683.255-1.266.547-1.75s.677-.854 1.156-1.109 1.031-.383 1.656-.383c.692 0 1.284.116 1.773.348s.863.569 1.121 1.012.387.977.387 1.602v.008c0 .458-.087.923-.262 1.395s-.415.913-.723 1.324l-3.047 4h4.094v1.789h-6.563v-1.657zM417.605 214.67l3.656-7.938h2.031l-3.563 7.844h5.336v1.766h-7.461v-1.672zm4.742-3.266h1.844v6.688h-1.844v-6.688zM426.652 216.178h1.859v1.906l-1.859 1.578v-3.484zM432.55 218.201l-.766-.359c-.511-.239-.918-.59-1.223-1.051s-.485-1.012-.543-1.652h1.914c.042.281.128.515.258.699s.3.324.508.418.45.141.727.141c.469 0 .831-.126 1.086-.379s.383-.61.383-1.074v-.305c0-.5-.113-.887-.34-1.16s-.551-.41-.973-.41h-.883v-1.781h.883c.359 0 .637-.118.832-.355s.293-.569.293-.996v-.273c0-.401-.105-.71-.316-.926s-.509-.324-.895-.324c-.234 0-.444.05-.629.148s-.343.249-.473.449-.224.446-.281.738h-1.906c.083-.656.274-1.222.574-1.695s.685-.833 1.156-1.078 1.004-.367 1.598-.367c.989 0 1.757.258 2.301.773s.816 1.242.816 2.18v.266c0 .547-.144 1.023-.43 1.43s-.692.706-1.219.898c.583.13 1.035.426 1.355.887s.48 1.048.48 1.762v.266c0 .661-.129 1.227-.387 1.695s-.634.825-1.129 1.07-1.089.367-1.781.367l-.99-.002z"/><g><path d="M231.886 331.932h-1.867v-9.234l-1.5.758v-1.961l1.656-.922h1.711v11.359zM234.136 330.275l3.93-5.203c.203-.266.36-.54.473-.824s.168-.548.168-.793v-.016c0-.38-.116-.675-.348-.883s-.562-.313-.988-.313c-.411 0-.743.126-.996.379s-.405.61-.457 1.074v.008h-1.922v-.008c.073-.683.255-1.266.547-1.75s.677-.854 1.156-1.109 1.031-.383 1.656-.383c.692 0 1.284.116 1.773.348s.863.569 1.121 1.012.387.977.387 1.602v.008c0 .458-.087.923-.262 1.395s-.415.913-.723 1.324l-3.047 4h4.094v1.789h-6.563v-1.657zM242.363 330.025h1.859v1.906l-1.859 1.578v-3.484zM250.105 326.291l.188.281c-.13.239-.327.415-.59.527s-.574.168-.934.168c-.558 0-1.047-.138-1.469-.414s-.75-.665-.984-1.168-.352-1.085-.352-1.746v-.008c0-.734.128-1.362.383-1.883s.626-.917 1.113-1.188 1.071-.406 1.754-.406 1.266.138 1.75.414.854.677 1.109 1.203.383 1.159.383 1.898v.008c0 .396-.054.819-.16 1.27s-.259.915-.457 1.395c-.026.073-.055.145-.086.215l-.094.207-2.227 4.867h-1.992l2.665-5.64zm.125-1.184c.239-.289.359-.699.359-1.23v-.008c0-.516-.12-.913-.359-1.191s-.578-.418-1.016-.418c-.442 0-.784.141-1.023.422s-.359.68-.359 1.195v.008c0 .531.12.94.359 1.227s.581.43 1.023.43c.438-.001.777-.146 1.016-.435z"/></g><g><path d="M103.291 163.344h-1.867v-9.234l-1.5.758v-1.961l1.656-.922h1.711v11.359zM107.381 163.094c-.466-.245-.843-.603-1.129-1.074s-.466-1.032-.539-1.684v-.008h1.867v.008c.047.417.192.741.438.973s.565.348.961.348c.442 0 .785-.146 1.027-.438s.363-.706.363-1.242v-.953c0-.531-.116-.942-.348-1.234s-.559-.438-.98-.438c-.292 0-.556.078-.793.234s-.423.375-.559.656h-1.727v-6.258h5.945v1.789h-4.078v2.281c.177-.161.397-.286.66-.375s.527-.133.793-.133c.62 0 1.151.136 1.594.406s.78.667 1.012 1.188.348 1.148.348 1.883v.953c0 .734-.129 1.362-.387 1.883s-.632.918-1.121 1.191-1.078.41-1.766.41c-.588.001-1.116-.121-1.581-.366zM114.213 161.438h1.859v1.906l-1.859 1.578v-3.484zM119.306 163.059c-.484-.269-.854-.659-1.109-1.172s-.383-1.132-.383-1.855v-.008c0-.417.051-.855.152-1.316a8.32 8.32 0 01.532-1.609c.035-.075.069-.149.105-.223l2.391-4.891h2.063l-2.813 5.664-.266-.281c.13-.245.32-.435.57-.57s.542-.203.875-.203c.604 0 1.122.133 1.555.398s.762.652.988 1.16.34 1.118.34 1.832v.008c0 .729-.128 1.354-.383 1.875s-.626.917-1.113 1.188-1.071.406-1.754.406-1.265-.134-1.75-.403zm2.774-1.793c.239-.266.359-.646.359-1.141v-.008c0-.552-.122-.978-.367-1.277s-.597-.449-1.055-.449c-.427 0-.757.151-.988.453s-.348.729-.348 1.281v.008c0 .495.12.874.359 1.137s.578.395 1.016.395c.443 0 .785-.133 1.024-.399z"/></g><g><path d="M61.182 94.258l3.656-7.938h2.031l-3.563 7.844h5.336v1.766h-7.461v-1.672zm4.743-3.265h1.844v6.688h-1.844v-6.688zM70.229 95.766h1.859v1.906l-1.859 1.578v-3.484zM76.964 97.672h-1.867v-9.234l-1.5.758v-1.961l1.656-.922h1.711v11.359z"/></g><g><path d="M88.197 74.502l-.766-.359c-.511-.239-.918-.59-1.223-1.051s-.485-1.012-.543-1.652h1.914c.042.281.128.515.258.699s.3.324.508.418.45.141.727.141c.469 0 .831-.126 1.086-.379s.383-.61.383-1.074v-.305c0-.5-.113-.887-.34-1.16s-.551-.41-.973-.41h-.883v-1.781h.883c.359 0 .637-.118.832-.355s.293-.569.293-.996v-.273c0-.401-.105-.71-.316-.926s-.509-.324-.895-.324c-.234 0-.444.05-.629.148s-.343.249-.473.449-.224.446-.281.738h-1.906c.083-.656.274-1.222.574-1.695s.685-.833 1.156-1.078 1.004-.367 1.598-.367c.989 0 1.757.258 2.301.773s.816 1.242.816 2.18v.266c0 .547-.144 1.023-.43 1.43s-.692.706-1.219.898c.583.13 1.035.426 1.355.887s.48 1.048.48 1.762v.266c0 .661-.129 1.227-.387 1.695s-.634.825-1.129 1.07-1.089.367-1.781.367l-.99-.002zM94.385 72.479h1.859v1.906l-1.859 1.578v-3.484zM99.888 74.135c-.466-.245-.843-.603-1.129-1.074s-.466-1.032-.539-1.684v-.007h1.867v.008c.047.417.192.741.438.973s.565.348.961.348c.442 0 .785-.146 1.027-.438s.363-.706.363-1.242v-.953c0-.531-.116-.942-.348-1.234s-.559-.438-.98-.438c-.292 0-.556.078-.793.234s-.423.375-.559.656H98.47v-6.258h5.945v1.789h-4.078v2.281c.177-.161.397-.286.66-.375s.527-.133.793-.133c.62 0 1.151.136 1.594.406s.78.667 1.012 1.188.348 1.148.348 1.883v.953c0 .734-.129 1.362-.387 1.883s-.632.918-1.121 1.191-1.078.41-1.766.41c-.588 0-1.116-.122-1.582-.367z"/></g><g><path d="M355.822 395.107l3.93-5.203c.203-.266.36-.54.473-.824s.168-.548.168-.793v-.016c0-.38-.116-.675-.348-.883s-.562-.313-.988-.313c-.411 0-.743.126-.996.379s-.405.61-.457 1.074v.008h-1.922v-.008c.073-.683.255-1.266.547-1.75s.677-.854 1.156-1.109 1.031-.383 1.656-.383c.692 0 1.284.116 1.773.348s.863.569 1.121 1.012.387.977.387 1.602v.008c0 .458-.087.923-.262 1.395s-.415.913-.723 1.324l-3.047 4h4.094v1.789h-6.563v-1.657zM364.049 394.857h1.859v1.906l-1.859 1.578v-3.484zM369.439 396.49c-.531-.261-.942-.629-1.234-1.105s-.438-1.03-.438-1.66v-.188c0-.567.149-1.102.449-1.602s.696-.878 1.191-1.133c-.422-.219-.762-.534-1.02-.945s-.387-.847-.387-1.305v-.281c0-.594.137-1.116.41-1.566s.657-.8 1.152-1.047 1.07-.371 1.727-.371 1.231.124 1.727.371.879.597 1.152 1.047.41.973.41 1.566v.281c0 .469-.132.907-.395 1.316s-.608.72-1.035.934c.5.261.902.64 1.207 1.137s.457 1.03.457 1.598v.188c0 .63-.146 1.184-.438 1.66s-.703.845-1.234 1.105-1.148.391-1.852.391-1.318-.13-1.849-.391zm2.723-1.601c.253-.13.448-.315.586-.555s.207-.513.207-.82v-.109c0-.302-.069-.567-.207-.797s-.332-.407-.582-.535-.542-.191-.875-.191-.625.063-.875.191-.444.308-.582.539-.207.499-.207.801v.117c0 .308.069.579.207.816s.333.419.586.547.543.191.871.191.618-.065.871-.195zm-.125-4.989c.216-.122.383-.297.5-.523s.176-.488.176-.785v-.109c0-.276-.059-.521-.176-.734s-.284-.378-.5-.492-.465-.172-.746-.172-.53.058-.746.172-.383.278-.5.492-.176.461-.176.742v.117c0 .292.059.55.176.773s.284.397.5.52.465.184.746.184.53-.063.746-.185z"/></g></g></svg>