<svg version="1.1" id="_x33_11" xmlns="http://www.w3.org/2000/svg" x="0" y="0" viewBox="0 0 350.775 407.936" xml:space="preserve"><style>.st0,.st1{fill-rule:evenodd;clip-rule:evenodd}.st0{fill:#fff}.st1{stroke:#999;stroke-width:.4}.st1,.st2,.st4{fill:none;stroke-linecap:round;stroke-linejoin:round;stroke-miterlimit:3}.st2{fill-rule:evenodd;clip-rule:evenodd;stroke:#999}.st4{stroke:#000}.st4,.st5,.st6{fill-rule:evenodd;clip-rule:evenodd}.st6{fill:none;stroke:#666;stroke-width:.6;stroke-miterlimit:22.9256}</style><path class="st0" d="M349.702 144.394h-45.167V.602H16.868v407.093l287.667.241V249.061h45.167z"/><g id="mebel"><path class="st1" d="M125.566 70.579l.002-.002m-6.951.004l.004-.004m-6.954.007l.007-.007m-6.956.01l.01-.01m-6.96.012l2.622-2.622m-9.572 2.625l9.572-9.572m-16.521 9.574l16.521-16.521M76.92 70.597l23.47-23.471M69.97 70.6l30.42-30.42M63.02 70.602l37.371-37.37M56.072 70.605l38.569-38.57M49.122 70.607l38.572-38.573M42.172 70.61l38.575-38.575M35.223 70.612L48.436 57.4m6.706-6.707L73.8 32.035M33.923 64.964l7.885-7.885m10.937-10.937l14.107-14.107M33.923 58.017l1.602-1.602m12.062-12.062l12.319-12.318M33.923 51.071l.089-.089m6.016-6.016l12.931-12.931M33.923 44.123l12.088-12.088m-12.088 5.142l5.142-5.142M100.39 37.461l-5.426-5.426m31.597 38.543l-.002-.001m-26.169-26.17L88.018 32.035m31.6 38.546l-.004-.004M100.39 51.354L81.071 32.035m31.602 38.548l-.006-.006M100.39 58.301L74.124 32.035m31.605 38.551l-.009-.009m-5.33-5.329L67.177 32.035m31.608 38.554L60.23 32.035M91.838 70.591L53.282 32.035M84.895 70.594L46.337 32.035M77.95 70.597L39.39 32.035m31.617 38.564l-16.65-16.65m-9.494-9.494l-10.94-10.938m30.138 37.085L50.394 56.934M38.579 45.119l-4.656-4.656m23.196 30.141L43.803 57.289M34.012 47.5l-.089-.089m16.25 23.196L36.034 56.469m-2.022-2.022l-.089-.089m9.306 16.252l-9.306-9.305m2.362 9.307l-2.361-2.362M105.241 378.346h36.463M41.003 367.01h100.7m-82.152-11.335h82.152m-100.7-11.337h100.7m-5.006 38.732v-47.234m-22.672 47.234v-47.234M91.354 371.734v-35.898M68.682 371.734v-35.898M46.009 371.734V359.88m0-12.19v-11.854"/><path class="st2" d="M41.759 32.035h58.631m0 0V11.457m0 0H41.759m0 0v20.578M49.005 57.331l1.645-.469m-.001 0l1.551-.719m.001 0l1.231-.967m-.001 0l.942-1.248m0 0l.594-1.448m0 0l.206-1.551m.001 0l-.206-1.551m-.001 0l-.594-1.448m0 0l-.942-1.248m0 0l-1.231-.968m.001 0l-1.551-.718m-.001 0l-1.645-.469m.001 0l-1.698-.208m0 0l-1.709.059m0 0l-11.584 1.224m0 0v10.654m0 0l11.584 1.223m0 0l1.709.059m0 0l1.698-.207M39.734 46.812v4.116M39.734 50.928v4.117M54.001 47.865c.571.889.881 1.961.887 3.063M47.171 44.617c2.591-.165 5.106 1.031 6.829 3.248M39.734 46.812c2.253-1.506 4.828-2.266 7.437-2.195M47.171 57.24c-2.609.071-5.185-.689-7.437-2.195M54.001 53.992c-1.723 2.217-4.238 3.413-6.829 3.248M54.887 50.928A5.735 5.735 0 0154 53.992M34.012 46.281h.189v9.295h-.189zM34.013 46.281v9.295m0 0h.188m0 0v-9.295m0 0h-.188M34.013 60.375V41.482M29.478 60.375V41.482M34.013 60.375h-4.535M34.013 41.482h-4.535M53.728 360.187l1.645-.469m0 0l1.551-.718m0 0l1.23-.967m0 0l.943-1.249m0 0l.594-1.448m0 0l.205-1.55m0 0l-.205-1.551m0 0l-.594-1.448m0 0l-.943-1.248m0 0l-1.23-.968m0 0l-1.551-.719m0 0l-1.645-.469m0 0l-1.698-.207m0 0l-1.709.059m0 0l-11.585 1.223m0 0v10.655m0 0l11.585 1.222m0 0l1.709.06m0 0l1.698-.208M44.457 349.669v4.117M44.457 353.786v4.116M58.724 350.722c.57.889.881 1.961.887 3.063M51.894 347.473c2.592-.164 5.107 1.031 6.83 3.249M44.457 349.669c2.253-1.505 4.827-2.265 7.437-2.195M51.894 360.098c-2.609.07-5.184-.689-7.437-2.195M58.724 356.849c-1.723 2.217-4.238 3.413-6.83 3.248M59.611 353.786a5.743 5.743 0 01-.887 3.063M38.735 349.137h.19v9.296h-.19zM38.736 349.138v9.295m0 0h.189m0 0v-9.295m0 0h-.189M38.736 363.232v-18.894M34.202 363.232v-18.894M38.736 363.232h-4.534M38.736 344.339h-4.534M38.736 371.734h66.504m0 0v26.45m0 0H38.736m0 0v-26.45M46.495 396.069l-.962-.081m0 0l-.934-.238m0 0l-.875-.39m0 0l-.792-.529m0 0l-.682-.653m0 0l-.554-.755m0 0l-.409-.835m0 0l-.25-.891m0 0l-.084-.919m0 0V379.14m0 0l.084-.919m0 0l.25-.89m0 0l.409-.836m0 0l.554-.755m0 0l.682-.652m0 0l.792-.529m0 0l.875-.39m0 0l.934-.239m0 0l.962-.08m0 0h44.89m0 0l2.021.169m0 0l1.96.501m0 0l1.839.819m0 0l1.661 1.111m0 0l1.435 1.369m0 0l1.164 1.586m0 0l.856 1.755m0 0l.526 1.87m0 0l.176 1.93m0 0l-.176 1.928m0 0l-.526 1.87m0 0l-.856 1.756m0 0l-1.164 1.586m0 0l-1.435 1.369m0 0l-1.661 1.112m0 0l-1.839.818m0 0l-1.96.501m0 0l-2.021.169m0 0h-44.89M48.75 384.96a.945.945 0 11-1.89-.001.945.945 0 011.89.001zM130.619 70.577H100.39M100.39 70.577v-59.12M100.39 11.458h30.229M124.951 63.965a.944.944 0 11-1.888.002.944.944 0 011.888-.002zM117.636 44.5l-.372 1.397m0 0l-.793 1.208m0 0l-1.133.898m0 0l-1.357.497m0 0l-1.446.042m0 0l-1.384-.413m0 0l-1.185-.829m0 0l-.863-1.158m0 0l-.455-1.372m0 0v-1.446m0 0l.455-1.372m0 0l.863-1.16m0 0l1.185-.828m0 0l1.384-.413m0 0l1.446.043m0 0l1.357.496m0 0l1.133.898m0 0l.793 1.209m0 0l.372 1.396m0 0h5.538m0 0l-.108-.455m0 0l-.037-.49m0 0l.037-.488m0 0l.108-.456m0 0l.172-.392m0 0l.225-.3m0 0l.26-.188m0 0l.281-.065m0 0h.403m0 0l.12.02m0 0l.277.063m0 0l.104.055m0 0l.251.181m0 0l.07.078m0 0l.205.274m0 0l.157.357m0 0l.051.195m0 0l.06.25m0 0l.688.02m0 0l.796.009m0 0v-1.728m0 0h.435m0 0v-2.872m0 0l.058-.16m0 0l.149-.083m0 0l.167.033m0 0l.104.133m0 0l.158.486m0 0l.315.726m0 0l.573 1.007m0 0l.259.73m0 0h.125m0 0v-.605m0 0h.981m0 0v2.569m0 0h-.877m0 0l-.009.024m0 0l-.028.039m0 0l-.035.032m0 0l-.04.026m0 0l-.673.278m0 0v.697m0 0h1.361m0 0v-1.058m0 0h.301m0 0v3.023m0 0h-.301m0 0V44.5m0 0h-1.361m0 0v1.436m0 0h-.151m0 0v.416m0 0h.303m0 0V46.2m0 0h.529m0 0v-.604m0 0h.981m0 0v2.57m0 0h-.981m0 0v-.605m0 0h-.529m0 0v-.151m0 0h-.303m0 0v.151m0 0h-1.511m0 0v-2.57m0 0h-2.154m0 0v-.023m0 0v-.059m0 0v-.093m0 0v-.124m0 0v-.15m0 0V44.5m0 0h-7.504M128.957 42.157v.209m0 0l.341-.139m0 0l.053-.326m0 0l-.001-.008m-.001.001h-.242m.001 0v-.152m0-.001h-.302m-.001 0v.416m0 0h.151M128.805 40.684h.241m0 0l-.24-.676m0 0l-.563-.988m0 0l-.023-.053m0 0v1.566m0 0h.585m0 0v.151M129.637 46.541h-.529M129.637 47.221h-.529M129.637 40.884v-.351M129.108 41.742v-.189M129.108 41.553v-.68M129.108 40.873v-.014M129.284 41.553h-.176M129.113 40.873h-.005M128.805 40.684v1.058M127.294 43.036v.558M128.22 40.533h-.491M126.727 43.102v.491M127.741 37.737l-.012-.076M129.844 41.886l-.002.047M129.812 41.717l.032.169M129.761 42.432l-.011.045M129.751 42.478l-.01.02M129.512 40.533l.161.453M129.673 40.986l.139.731M129.339 41.842l.011.059M127.741 37.737l.167.512M127.908 38.249l.312.717M129.656 40.943v.001M129.842 41.933l-.081.498M125.239 43.591l.002.002M125.77 43.593l.001-.002M128.41 42.157h.127M128.655 42.157h.103M128.537 42.157h.118M128.957 42.367v.523M129.2 41.12l.14.722M129.046 40.684l.153.436M128.324 42.838h-.001M128.368 42.747l-.044.091M128.382 42.649l-.015.098M128.368 42.551l.015.098M128.324 42.46l.044.091M128.324 42.46h-.001M125.827 42.304l.026.345M125.853 42.649l-.026.345M125.81 42.233l.017.071M125.751 43.315l-.053.196M125.827 42.993l-.076.322M128.156 42.28l-.062-.009M125.699 43.51l-.036.083M125.81 43.065l.688-.019M128.094 43.027l.062-.009M128.156 43.017l.059-.026M128.214 42.991l.049-.042M128.263 42.949l.039-.055M128.302 42.894l.021-.056M128.323 42.838l.003-.007M128.326 42.831l.008-.068M128.334 42.762v-.226M128.334 42.536l-.008-.07M128.326 42.466l-.003-.006M128.323 42.459l-.021-.056M128.302 42.403l-.039-.055M128.263 42.348l-.049-.041M128.214 42.307l-.059-.027M126.499 43.046l1.596-.019M127.294 42.261l.801.01M127.596 42.157v.107M127.596 43.032v.561M117.636 44.5h-5.344M117.636 43.593h-5.344M112.293 44.5v-.907M129.637 47.561V46.2M129.108 47.41v-1.058M128.805 47.41v-1.058M128.805 45.936h-1.209M127.596 42.157h1.209M130.317 44.5v-.907M128.957 44.5h-3.816M123.174 43.593h5.782M127.596 45.936V44.5M127.294 44.991v-.49M126.727 44.991v-.49M127.294 43.102h-1.493M114.959 44.5a1.888 1.888 0 01-2.288 1.38 1.889 1.889 0 112.288-2.287M128.269 45.936a.34.34 0 11-.59 0M89.747 15.061H52.339m0 0l-.402.166m.001 0l-.166.401m-.001 0v13.808m0 0l.166.4m.001 0l.402.166m-.001 0h37.408m0 0l.4-.166m0 0l.166-.4m.001 0V15.628m0 0l-.166-.401m-.001 0l-.4-.166M88.614 19.217H71.893m-1.699 0H53.472M52.906 19.784v8.519M53.472 28.869h35.142M89.181 28.303v-8.519M52.906 19.784c0-.313.254-.567.566-.567M53.472 28.869a.566.566 0 01-.566-.566M89.181 28.303a.566.566 0 01-.567.566M88.614 19.217c.313 0 .567.254.567.567"/><circle class="st2" cx="71.043" cy="22.159" r=".756"/><path class="st2" d="M72.014 18.169l-.113.217m0 0l-.027 2.438m0 0v1.795m0 0h-1.662m0 0v-1.795m0 0l-.027-2.438m0 0l-.113-.217m0 0l-.159-.417m0 0l-.057-.658m0 0l.296-.59m0 0l.561-.346m0 0h.66m0 0l.562.346m0 0l.296.59m0 0l-.058.658m0 0l-.159.417M70.817 20.162v-1.349M71.27 20.162v-1.349M71.27 20.162h-.453M72.083 17.798a1.04 1.04 0 11-2.077 0 1.04 1.04 0 012.077 0zM70.005 17.741a1.04 1.04 0 112.075 0M26.266 139.933h23.809m0 0v22.674m0 0h-1.137m0 0v79.141m0 0h9.827m0 0v22.672m0 0H38.736m0 0v-16.625m0 0h-12.47m0 0V139.933M141.136 398.184h-35.33m0 0l-.4-.166m0 0l-.166-.4m0 0v-13.981m0 0l.166-.401m0 0l.4-.166m0 0h35.33m0 0l.401.166m0 0l.166.401m0 0v13.981m0 0l-.166.4m0 0l-.401.166M140.003 394.028H124.16m-1.377 0H106.94M106.374 393.462v-8.691M106.94 384.204h33.063M140.57 384.77v8.691M106.94 394.028a.567.567 0 01-.566-.566M106.374 384.77c0-.312.254-.566.566-.566M140.003 384.204c.312 0 .566.254.566.566M140.57 393.462a.567.567 0 01-.566.566"/><circle class="st2" cx="123.472" cy="391.04" r=".756"/><path class="st2" d="M124.417 395.918l-.151-1.585m0 0l-.123-.36m-.001 0l-.251-2m.001 0l-.14-.265m0 0l-.279-.105m0 0l-.281.105m-.001 0l-.139.265m.001 0l-.25 2m0 0l-.124.36m0 0l-.152 1.585m-.001 0l.181.555m.001 0l.473.343m0 0h.584m0 0l.471-.343m-.001 0l.181-.555M122.958 394.976v-.562M123.986 394.414v.562M123.986 394.976h-1.028M122.958 394.414a.515.515 0 011.028 0M122.802 393.972a.795.795 0 011.34 0M211.381 137.459v1.7m0 0h52.599m0 0v-1.7m0 0h-52.599M211.381 171.467h26.3m0 0v-23.805m0 0h-26.3m0 0v23.805M237.681 171.467h26.299m0 0v-23.805m0 0h-26.299m0 0v23.805M263.98 171.467h9.598m0 0V137.46m0 0h-9.598m0 0v1.699m0 8.502v23.806M201.784 171.467h9.598m0 0v-23.806m0-8.502v-1.699m0 0h-9.598m0 0v34.007M237.681 139.16v8.502m0 0h31.098m0 0v-8.502m0 0h-31.098M237.681 139.16v8.502m0 0h-31.099m0 0v-8.502m0 0h31.099M192.299 11.458v1.889m0 0h73.381m0 0v-1.889m0 0h-73.381M192.299 49.244h36.69m0 0v-26.45m0 0h-36.69m0 0v26.45M228.99 49.244h36.69m0 0v-26.45m0 0h-36.69m0 0v26.45M265.68 49.244h9.598m0 0V11.458m0 0h-9.598m0 0v1.889m0 9.447v26.45M182.702 49.244h9.598m0 0v-26.45m0-9.447v-1.889m0 0h-9.598m0 0v37.786M228.99 13.347v9.447m0 0h41.489m0 0v-9.447m0 0H228.99M228.99 13.347v9.447m0 0h-41.489m0 0v-9.447m0 0h41.489M51.774 158.829l19.271-.002m0 0l.535-.222m0 0l.22-.534m0 0l-.001-17.382m0 0l-.221-.534m0 0l-.534-.222m0 0l-19.272.003m0 0l-.534.221m0 0l-.221.535m0 0l.002 17.382m0 0l.221.534m0 0l.534.221M50.075 162.608l22.672-.003M50.072 139.936l22.672-.002M50.075 162.608l-.003-22.672M72.747 162.605l-.003-22.672M53.664 156.94l15.492-.002M69.912 156.182l-.002-11.714M69.154 143.713l-7.002.001m-1.488-.001l-7.002.001M52.907 144.47l.001 11.714M53.664 156.94h.108a.109.109 0 00-.108-.108.108.108 0 10.108.108h-.108zM69.912 156.182a.756.756 0 01-.756.755M69.154 143.713c.418 0 .756.338.756.756M52.907 144.47a.755.755 0 01.755-.756M53.664 156.94a.755.755 0 01-.756-.756M61.069 148.546l.101.241m0 0l.24.098m0 0l.24-.1m0 0l.099-.24m0 0l-.001-7.477m0 0l-.1-.24m0 0l-.24-.099m0 0l-.24.099m0 0l-.1.24m0 0l.001 7.478M60.654 142.996h.414m0 0v-1.928m0 0l.1-.24m0 0l.24-.1m0 0l.24.1m0 0l.1.24m0 0l.001 1.928m0 0h.414m0 0v-2.457m0 0h-1.509m0 0v2.457M60.664 144.356h.404m0 0v-1.323m0 0h-.404m0 0v1.323M62.153 144.356l-.001-1.323m0 0h-.403m0 0v1.323m0 0h.404M46.86 220.51v-21.916m0 0H28.345m0 0v21.916m0 0H46.86M35.581 209.551h-5.299M30.282 209.551v-1.095M35.581 209.551v-1.095M35.581 200.697h-5.299M30.282 201.793v-1.096M35.581 201.793v-1.096M35.454 215.798a2.74 2.74 0 11-5.479 0 2.74 2.74 0 015.479 0zM44.922 214.526a3.968 3.968 0 11-7.936 0 3.968 3.968 0 017.936 0z"/><path class="st2" d="M43.22 214.526a2.267 2.267 0 11-4.533 0 2.267 2.267 0 114.533 0zM35.545 205.124a2.646 2.646 0 11-5.291 0 2.646 2.646 0 015.291 0zM44.891 204.007a3.401 3.401 0 01-6.802 0 3.401 3.401 0 016.802 0zM48.938 229.673v-40.244M26.266 229.673v-40.244M48.938 229.673H26.266M48.938 189.428H26.266M72.747 162.605l22.671-.002m0 0l-.002-22.672m0 0l-22.672.002m0 0l.003 22.672M84.08 147.489l.002 7.558M81.409 148.596l5.345 5.345M80.302 151.268h7.557M81.409 153.94l5.344-5.344M58.765 241.749h22.672m0 0v22.672m0 0H58.765m0 0v-22.672M48.938 166.757v22.671M26.266 166.757v22.671M48.938 166.757H26.266M48.938 189.428H26.266M43.838 174.936a3.412 3.412 0 11-6.823-.001 3.412 3.412 0 016.823.001z"/><path class="st2" d="M43.316 174.936a2.89 2.89 0 11-5.78 0 2.89 2.89 0 015.78 0zM43.838 181.245a2.58 2.58 0 11-5.16-.001 2.58 2.58 0 015.16.001z"/><path class="st2" d="M42.703 181.245a1.445 1.445 0 11-2.89 0 1.445 1.445 0 012.89 0zM77.281 253.086a7.18 7.18 0 11-14.36-.001 7.18 7.18 0 0114.36.001zM174.389 388.738a3.778 3.778 0 11-7.56 0 3.778 3.778 0 017.56 0z"/><path class="st2" d="M171.744 388.738a1.134 1.134 0 11-2.268 0 1.134 1.134 0 012.268 0zM263.187 388.738a3.778 3.778 0 11-7.557 0 3.778 3.778 0 017.557 0z"/><path class="st2" d="M260.542 388.738a1.134 1.134 0 11-2.269 0 1.134 1.134 0 012.269 0zM156.314 11.458h-22.672m0 0v60.458m0 0h22.672m0 0V11.458M144.6 71.916h.756m0 0V11.458m0 0h-.756m0 0v60.458M154.321 18.045h-18.626m0 0v.755m0 0h18.626m0 0v-.755M154.321 20.049h-18.626m0 0v.756m0 0h18.626m0 0v-.756M154.321 22.054h-18.626m0 0v.756m0 0h18.626m0 0v-.756M154.321 24.058h-18.626m0 0v.756m0 0h18.626m0 0v-.756M154.186 28.305l-18.491-2.241m0-.001l-.091.75m0 0l18.491 2.241m0 .001l.091-.75M203.295 279.536v-15.115m0 0h77.84m0 0v15.115m0 0h-77.84M263.792 274.655v1.02m0 0h-44.369m0 0v-1.02m0 0h44.369M254.33 275.674v.832m0 .001l-.151.567m0 0l-.415.414m0-.001l-.567.153m0 .001h-22.699m0 0l-.566-.153m0-.001l-.416-.414m0 .001l-.152-.567m0 0v-.832m0-.001h24.966M263.792 274.357v.298m0 0h-44.369m0 0v-.298m0 0h44.369M60.652 267.444H38.736m0 0v65.37m0 0h21.916m0 0v-65.37M50.45 332.814h.756m0 0v-65.37m0 0h-.756m0 0v65.37M59.414 274.031H40.789m0 0v.756m0 0h18.626m-.001 0v-.756M59.414 276.036H40.789m0 0v.756m0 0h18.626m-.001 0v-.756M59.414 278.04H40.789m0 0v.756m0 0h18.626m-.001 0v-.756M59.414 280.045H40.789m0 0v.756m0 0h18.626m-.001 0v-.756M59.28 284.291l-18.491-2.241m0 0l-.091.75m0 0l18.491 2.241m0 0l.091-.75M96.738 267.444H60.652m0 0v11.336m0 0h36.086m0 0v-11.336M26.266 115.204v21.704m0 0h69.149m0 0v-21.704m0 0H26.266M95.416 125.95v-.756m0 0h-69.15m0 0v.756m0 0h69.149M32.853 116.229v18.626m0 0h.756m0 0v-18.626m0 0h-.756M34.858 116.229v18.626m0 0h.756m0 0v-18.626m0 0h-.756M36.863 116.229v18.626m0 0h.756m0 0v-18.626m0 0h-.756M38.867 116.229v18.626m0 0h.756m0 0v-18.626m0 0h-.756M43.113 116.364l-2.241 18.491m0 0l.75.091m0 0l2.242-18.491m0 0l-.751-.091M144.726 279.536v-15.115m0 0h58.569m0 0v15.115m0 0h-58.569M210.853 128.39v-17.004m0 0h45.344m0 0v17.004m0 0h-45.344M249.017 318.834h-68.016m0 0v75.572m0 0h68.016m0 0v-75.572M247.128 316.944h-64.236m-.001 0l-.724.144m0 0l-.612.41m0 0l-.41.612m.001 0l-.144.724m0 0h68.016m-.001 0l-.145-.724m.001 0l-.409-.612m0 0l-.613-.41m-.001 0l-.723-.144M249.017 398.184h-68.016m0 0v-3.778m0 0h68.016m0 0v3.778M181.002 398.184h68.016m-.001 0v-1.889m0 0h-68.016m.001 0v1.889M179.112 398.184h-17.003m0 0v-18.893m0 0h17.003m0 0v18.893M250.906 398.184h17.004m0 0v-18.893m0 0h-17.004m0 0v18.893M208.964 392.516H183.27m0 0l-.268-.11m-.001 0l-.11-.268m0 0v-12.469m0 0l.11-.267m0 0l.268-.111m.001 0h25.694m0 0l.267.111m-.001 0l.111.267m0 0v12.469m0 0l-.111.268m0 0l-.267.11M221.055 392.516h25.694m0 0l.268-.11m0 0l.11-.268m0 0v-12.469m0 0l-.11-.267m0 0l-.268-.111m0 0h-25.694m0 0l-.268.111m0 0l-.11.267m0 0v12.469m0 0l.11.268m0 0l.268.11M249.017 380.315h-1.89M220.677 380.315h-11.336M182.891 380.315h-1.89M249.017 375.305h-68.016m0 0v-18.686m0 0l68.016 14.908m0 0v3.778M42.632 170.867v.963m0 .001h1.205m0 0v12.525m0-.001h-1.205m0 0v.963M33.107 172.331l.103.047m.103.047l.103.048m.103.047l.104.047m.102.047l.103.048m.103.046l.104.048m.102.047l.104.047m.102.047l.104.047m.103.047l.103.048m.103.046l.103.048m.103.047l.103.047m.104.047l.102.048m.104.047l.103.046m.103.048l.103.047m.103.047l.103.047m.103.047l.103.048m.104.047l.102.047m.104.047l.102.047M33.107 181.965l.103-.047m.103-.047l.103-.047m.103-.047l.104-.048m.102-.047l.103-.047m.103-.047l.104-.047m.102-.048l.104-.047m.102-.047l.104-.047m.103-.047l.103-.047m.103-.047l.103-.047m.103-.048l.103-.047m.104-.047l.102-.047m.104-.048l.103-.046m.103-.047l.103-.048m.103-.047l.103-.047m.103-.047l.103-.047m.104-.048l.102-.046m.104-.048l.102-.047M33.107 172.331v.078m0 .113v.114m0 .113v.113m0 .114v.078m0 0l.051.042m.088.071l.089.072m.087.071l.088.071m.088.072l.088.071m.088.072l.088.071m.088.072l.089.071m.088.071l.087.072m.088.071l.088.072m.088.071l.088.072m.088.071l.088.072m.089.071l.088.072m.087.071l.088.071m.088.072l.088.071m.088.072l.088.071m.089.072l.088.071m.088.071l.087.072m.088.071l.088.072m.088.072l.088.071m.088.071l.089.071m.088.072l.088.071m.087.072l.088.072m.088.071l.089.071m.088.072l.051.041M33.107 181.965v-.078m0-.113v-.113m0-.113v-.114m0-.114v-.078m0 0l.051-.041m.088-.072l.089-.071m.087-.072l.088-.071m.088-.072l.088-.071m.088-.071l.088-.072m.088-.071l.089-.072m.088-.071l.087-.072m.088-.071l.088-.072m.088-.071l.088-.071m.088-.072l.088-.071m.089-.072l.088-.071m.087-.072l.088-.071m.088-.072l.088-.071m.088-.071l.088-.072m.089-.071l.088-.072m.088-.071l.087-.072m.088-.071l.088-.071m.088-.072l.088-.071m.088-.072l.089-.071m.088-.072l.088-.071m.087-.072l.088-.072m.088-.071l.089-.071m.088-.071l.051-.042M32.629 181.965v-9.634m0 0h.479m0 0v.723m0 0h-.239m0 0v8.188m0 0h.239m0 0v.723m0 0h-.479M76.109 252.569l-1.233.449m0 0h-1.312m0 0l-1.233-.449m0 0l-1.474.343m0 0h-1.512m0 0l-1.473-.343m0 0l-1.235.45m0 0h-1.313m0 0l-1.236-.45m0 0l2.232 2.987m0 0h7.558m0 0l2.231-2.987M73.877 255.818h-7.558m0 0v-.262m0 0h7.558m0 0v.262M73.877 256.342h-7.558m0 0v-.262m0 0h7.558m0 0v.262M69.257 251.054l.891-.085m0-.001l.022.227m0 .001l-.477.045m0-.001l1.383 1.142m.001 0l-.126.152m-.001 0l-.642-.53m0 .001l-.067.082m0-.001l.74.611m0 0l-.12.146m0 0l-.741-.61m0 0l-.08.096m0 0l.602.497m0 0l-.108.13m0 0l-.601-.496m0 0l-.08.097m0 0l.414.343m0 0l-.115.139m0 0l-1.423-1.174M81.437 241.749H58.765m0 0v22.672m0 0h22.672m0 0v-22.672M96.738 278.78H60.652m0 0v-11.336m0 0h36.086m0 0v11.336M96.738 332.814H60.652m0 0v-11.336m0 0h36.086m0 0v11.336M166.931 389.599l3.68-.86m0-.001l1.583-3.431m0 0l-1.583 3.431m0 0l1.305 3.546M263.087 389.599l-3.68-.86m.001-.001l-1.583-3.431m-.001 0l1.583 3.431m.001 0l-1.305 3.546M179.81 190.355l-4.109-4.109m.001 0l-.426-.407m0 0l-.43-.371m0 0l-.424-.328m-.001 0l-.403-.276m.001 0l-.017-.009m0 0l-.375-.216m0 0l-.332-.147m-.001 0l-.025-.008m0 0l-.281-.075m.001 0l-.028-.004m-.001 0l-.22.002m.001 0l-.03.002m-.001 0l-.029.007m.001 0l-.027.013m0 0l-.154.078m-.001 0l-.024.018m.001 0l-.012.01m-.001 0l-1.133 1.134m0 0l-1.03-1.029m.001 0l-5.217 5.217m11.114 11.116l5.217-5.218m.001 0l-1.029-1.029m0 0l1.134-1.134m-.001 0l.011-.011m0 0l.017-.025m0 0l.078-.154m0 0l.013-.027m0 0l.008-.029m.001 0l.002-.029m0 0l.001-.221m-.001 0l-.003-.028m.001 0l-.075-.281m0 0l-.008-.025m0 0l-.148-.332m0 0l-.214-.376m0 0l-.011-.016m0 0l-.276-.404m-.001 0l-.328-.423m.001 0l-.371-.429m-.001 0l-.407-.427M170.663 186.337l9.057 9.057M170.786 186.461l.897-.898M179.596 195.27l.898-.897M175.723 199.391l4.664-4.664M166.666 190.334l4.664-4.664M174.672 187.268l4.117 4.117M171.683 185.563c.354-.354 1.691.409 2.988 1.706M178.788 191.384c1.296 1.296 2.06 2.634 1.705 2.988M143.212 218.737l4.108 4.108m0 0l.427.408m0 0l.43.371m0 0l.423.328m0 0l.404.275m0 0l.016.011m0 0l.376.215m0 0l.332.147m0 0l.024.008m0 0l.281.075m0 0l.029.003m0 0l.22-.001m0 0l.03-.002m0 0l.028-.008m0 0l.027-.012m0 0l.154-.078m0 0l.025-.018m0 0l.011-.011m0 0l1.134-1.133m0 0l1.029 1.029m0 0l5.219-5.218m-11.117-11.114l-5.216 5.217m0 0l1.029 1.029m0 0L141.5 215.5m0 0l-.01.011m0 0l-.017.025m0 0l-.078.153m0 0l-.013.027m0 0l-.008.03m0 0l-.002.029m0 0l-.001.221m0 0l.003.027m0 0l.074.282m0 0l.009.025m0 0l.147.332m0 0l.215.375m0 0l.01.016m0 0l.276.404m0 0l.329.424m0 0l.371.429m0 0l.407.427M152.359 222.754l-9.057-9.057M152.236 222.63l-.898.898M143.426 213.821l-.897.897M147.299 209.701l-4.664 4.664M156.356 218.757l-4.664 4.664M148.351 221.823l-4.117-4.117M151.338 223.529c-.354.354-1.692-.409-2.988-1.705M144.233 217.706c-1.296-1.296-2.06-2.634-1.705-2.988M147.32 186.246l-4.108 4.109m0 0l-.408.427m0 0l-.371.429m0 0l-.329.423m0 0l-.275.404m0 0l-.01.016m0 0l-.216.376m0 0l-.146.332m0 0l-.009.025m0 0l-.074.281m0 0l-.003.028m0 0l.001.221m0 0l.002.029m0 0l.008.029m0 0l.012.027m0 0l.078.154m0 0l.018.024m0 0l.01.012m0 0l1.134 1.133m0 0l-1.029 1.03m0 0l5.217 5.217m11.115-11.115l-5.218-5.217m0 0l-1.028 1.029m0 0l-1.135-1.134m0 0l-.01-.01m0 0l-.026-.018m0 0l-.153-.078m0 0l-.027-.013m0 0l-.029-.007m0 0l-.029-.002m0 0l-.221-.002m0 0l-.028.004m0 0l-.281.075m0 0l-.025.008m0 0l-.332.147m0 0l-.376.215m0 0l-.015.01m0 0l-.405.276m0 0l-.423.328m0 0l-.429.371m0 0l-.427.407M143.303 195.394l9.057-9.057M143.426 195.27l-.897-.897M152.236 186.461l-.898-.898M156.356 190.334l-4.664-4.664M147.299 199.39l-4.664-4.663M144.233 191.385l4.117-4.117M142.528 194.373c-.354-.354.409-1.692 1.705-2.988M148.35 187.267c1.297-1.296 2.635-2.059 2.988-1.705M175.701 222.845l4.109-4.108m0 0l.408-.427m0 0l.371-.43m0 0l.328-.424m0 0l.275-.403m0 0l.011-.017m0 0l.215-.375m0 0l.147-.332m0 0l.008-.024m0 0l.075-.282m0 0l.003-.028m0 0l-.001-.22m0 0l-.002-.03m0 0l-.008-.029m0 0l-.012-.027m0 0l-.078-.154m0 0l-.018-.024m0 0l-.011-.012m0 0l-1.133-1.133m0 0l1.029-1.03m0 0l-5.218-5.218m-11.115 11.115l5.219 5.218m-.001 0l1.029-1.029m0 0l1.134 1.134m0 0l.011.011m0 0l.025.017m0 0l.153.078m0 0l.027.013m0 0l.03.008m0 0l.029.002m0 0l.221.001m0 0l.027-.003m0 0l.281-.075m0 0l.026-.008m0 0l.332-.148m0 0l.375-.214m0 0l.016-.011m0 0l.404-.276m0 0l.424-.328m0 0l.429-.371m0 0l.426-.407M179.72 213.698l-9.057 9.057M179.596 213.821l.898.897M170.786 222.63l.897.898M166.666 218.757l4.664 4.664M175.723 209.701l4.664 4.664M178.789 217.706l-4.117 4.117M180.494 214.718c.354.354-.409 1.691-1.705 2.987M174.672 221.823c-1.296 1.296-2.634 2.06-2.988 1.705M176.625 204.545c0 8.348-6.767 15.114-15.114 15.114-8.348 0-15.115-6.766-15.115-15.114 0-8.347 6.767-15.114 15.115-15.114 8.347 0 15.114 6.767 15.114 15.114z"/></g><g id="walls_1_"><path d="M304.931 407.253H189.906v-9.068h91.22v-47.422h23.805v56.49h0zm-288.876 0V114.146h1.512v-.454h8.69v293.561H16.055h0zM189.86 137.459v-9.069h91.266v-17.57h23.805v44.415h-23.805v-17.776H189.86h0zM26.257.5v74.65h-8.69v-.453h-1.512V.5h10.202zm254.727 0h23.947v44.194h-23.805V11.458h-.142V.5h0zm.142 237.864h23.805v46.273h-23.805v-46.273z" fill-rule="evenodd" clip-rule="evenodd" stroke="#000" stroke-linecap="round" stroke-linejoin="round" stroke-miterlimit="3"/><path class="st0" d="M35.704 286.92h-9.447v-3.022h9.447v-33.08h-9.447v-3.023h12.469v16.626h66.693v1.512h-.453v1.511h-66.24v65.37h66.693v1.512h-.453v1.51l-66.24-.001v62.349h102.968v-62.349l-8.615.001v-1.51h-.453v-1.512h12.09v65.371h45.19v9.068H26.257v-9.068h9.447V286.92zm245.28-275.462V.5H26.257v10.958h12.47v17.554h-12.47v3.023h4.634v38.58l-4.634.001v3.023c13.246-.002 26.492-.003 39.738-.015v-1.511h-.454v-1.512l-31.627.012V32.035h7.836V11.458h88.861l-.001 59.119c-12.319.005-24.638.014-36.956.014v1.512h-.453v1.511c12.466 0 24.941-.009 37.409-.014v16.626h1.511v-.453h1.511l.001-78.315h147.351zM133.632 121.664h-1.511v-.453h-1.511v16.248h59.25v-9.069h-56.228v-6.726zm8.062 160.894h139.432v-3.022H144.717v-15.115h-8.313v1.512h.454v1.511h4.837l-.001 15.114zM95.406 139.931H26.257v-3.023h69.149v3.023z"/><path class="st4" d="M.5 110.944c6.026 2.246 9.131 2.873 15.554 3.202"/><path class="st5" d="M.397 110.905l1.387.6L17.567 75.15v-.453h-1.513z"/><path class="st4" d="M67.802 59.544c-1.623 3.972-2.033 6.547-2.261 11.057"/><path class="st5" d="M67.846 59.442l-.599 1.388 25.954 11.273h.453l.001-1.512z"/><g><path class="st4" d="M146.202 92.356c-4.871-1.818-7.378-2.318-12.569-2.583"/><path class="st5" d="M146.291 92.393l-1.387-.6-12.783 29.418v.453h1.512z"/></g><g><path class="st4" d="M130.781 346.879c1.604-4.297 2.064-6.463 2.299-11.042"/><path class="st5" d="M130.741 346.978l.601-1.382-25.923-11.27h-.453l-.001 1.511z"/><g><path class="st4" d="M134.272 280.012c1.816-4.868 2.32-7.378 2.586-12.567"/><path class="st5" d="M134.238 280.102l.6-1.388-29.419-12.781h-.453v1.511z"/></g></g><g><path class="st4" d="M297.374 44.694h-16.248M304.932 44.694h-5.669M299.263 44.694h-1.889M297.374 110.82h-16.248M304.932 110.82h-5.669M299.263 110.82h-1.889M304.932 110.82V44.694M281.126 110.82V44.694M297.374 110.82v-3.779M297.374 107.041h1.89M299.263 107.041v3.779M299.263 73.034v1.889M299.263 74.923h-1.889M297.374 74.923v-1.889M298.318 107.041V74.923M297.374 107.041V74.923M299.263 74.923v32.118M297.374 73.034v-.945M297.374 72.089h.944M298.318 72.089v-.944M298.318 71.144h.945M299.263 71.144v1.89M299.263 44.694v3.779M299.263 48.472h-.944M298.318 48.472v-.944M298.318 47.528h-.944M297.374 47.528v-2.834M299.263 48.472v22.673M296.43 69.255V50.362M296.43 72.089v-2.834M296.43 69.255h1.889M298.318 69.255v2.834M298.318 72.089h-1.889M298.318 47.528v2.834M298.318 50.362h-1.889M296.43 50.362v-2.834M296.43 47.528h1.889M298.318 50.362v18.893M296.43 69.255V50.362M297.374 69.255V50.362M299.263 110.82h-1.889M299.263 110.82h-1.889M304.932 110.82h-5.669M297.374 110.82h-16.248M299.263 44.694h-1.889M299.263 44.694h-1.889M304.932 44.694h-5.669M297.374 44.694h-16.248"/><g><path class="st4" d="M297.374 284.638h-16.248M304.932 284.638h-5.669M299.263 284.638h-1.889M297.374 350.763h-16.248M304.932 350.763h-5.669M299.263 350.763h-1.889M304.932 350.763v-66.125M281.126 350.763v-66.125M297.374 350.763v-3.779M297.374 346.984h1.89M299.263 346.984v3.778M299.263 312.976v1.89M299.263 314.866h-1.889M297.374 314.866v-1.89M298.318 346.984v-32.118M297.374 346.984v-32.118M299.263 314.866v32.118M297.374 312.976v-.944M297.374 312.032h.944M298.318 312.032v-.944M298.318 311.088h.945M299.263 311.088v1.889M299.263 284.638v3.778M299.263 288.416h-.944M298.318 288.416v-.945M298.318 287.47h-.944M297.374 287.47v-2.832M299.263 288.416v22.672M296.43 309.198v-18.894M296.43 312.032v-2.834M296.43 309.198h1.889M298.318 309.198v2.834M298.318 312.032h-1.889M298.318 287.47v2.834M298.318 290.304h-1.889M296.43 290.304v-2.834M296.43 287.47h1.889M298.318 290.304v18.894M296.43 309.198v-18.894M297.374 309.198v-18.894M299.263 350.763h-1.889M299.263 350.763h-1.889M304.932 350.763h-5.669M297.374 350.763h-16.248M299.263 284.638h-1.889M299.263 284.638h-1.889M304.932 284.638h-5.669M297.374 284.638h-16.248"/></g><g><path class="st4" d="M297.374 238.364h-16.248M304.932 238.364h-5.669M299.263 238.364h-1.889M297.374 155.235h-16.248M304.932 155.235h-5.669M299.263 155.235h-1.889M304.932 155.235v83.129M281.126 155.235v83.129M297.374 155.235v3.779M297.374 159.013h1.89M299.263 159.013v-3.778M299.263 194.91v-1.889M299.263 193.021h-1.889M297.374 193.021v1.889M298.318 159.013v34.008M297.374 159.013v34.008M299.263 193.021v-34.008M297.374 194.91v.945M297.374 195.855h.944M298.318 195.855v.944M298.318 196.799h.945M299.263 196.799v-1.89M299.263 238.364v-3.778M299.263 234.586h-.944M298.318 234.586v.945M298.318 235.531h-.944M297.374 235.531v2.833M296.43 235.531l-28.055-28.056M299.263 234.586V196.8M296.43 198.688v34.008M296.43 195.855v2.833M296.43 198.688h1.889M298.318 198.688v-2.833M298.318 195.855h-1.889M298.318 235.531v-2.835M298.318 232.696h-1.889M296.43 232.696v2.835M296.43 235.531h1.889M298.318 232.696v-34.008M296.43 198.688v34.008M297.374 198.688v34.008M268.375 207.475a39.673 39.673 0 0128.055-11.62M299.263 155.235h-1.889M299.263 155.235h-1.889M304.932 155.235h-5.669M297.374 155.235h-16.248M299.263 238.364h-1.889M299.263 238.364h-1.889M304.932 238.364h-5.669M297.374 238.364h-16.248"/></g><g><path class="st4" d="M304.932 143.898h45.343m0 0V249.7m0 0h-45.343m0 0V143.898M349.52 248.945h-44.588m-.001 0V144.654m0 0h44.588m.001 0v104.291"/></g></g><g><path class="st6" d="M28.919.404l-2.57 2.26M36.329.404l-9.98 8.79M43.759.404l-12.45 10.96M51.179.404l-12.44 10.96M58.599.404l-12.44 10.96M41.849 15.164l-3.03 2.67M33.659 28.914l-3.44 3.03M66.019.404l-12.44 10.96M41.849 21.704l-3.03 2.67M73.449.404l-12.44 10.96M41.849 28.244l-4.2 3.7M34.009 35.144l-3.02 2.66M80.859.404l-12.44 10.96M34.009 41.684l-3.02 2.66M88.289.404l-12.44 10.96M34.009 48.224l-3.02 2.66M95.709.404l-12.44 10.96M34.009 54.764l-3.02 2.66M103.139.404l-12.45 10.96M34.009 61.304l-3.02 2.66M30.959 70.524l-3.43 3.02M110.559.404l-12.44 10.96M34.009 67.844l-3.02 2.66M117.979.404l-12.44 10.96M38.379 70.524l-3.43 3.02M125.399.404l-12.44 10.96M45.809 70.514l-3.43 3.03M132.819.404l-12.44 10.96M53.229 70.514l-3.42 3.02M140.239.404l-12.44 10.96M60.669 70.504l-3.44 3.03M66.089 72.274l-1.44 1.26M147.669.404l-12.44 10.96M133.729 12.684l-3.02 2.66M155.089.404l-12.44 10.96M133.729 19.224l-3.02 2.66M162.509.404l-12.44 10.96M133.729 25.764l-3.02 2.66M169.939.404l-12.44 10.96M133.729 32.304l-3.02 2.66M97.789 70.494l-3.44 3.03M177.349.404l-12.44 10.96M133.729 38.834l-3.02 2.66M29.929 136.814l-3.43 3.02M133.729 45.374l-3.02 2.66M184.779.404l-12.44 10.96M105.209 70.494l-3.43 3.03M37.349 136.814l-3.42 3.02M133.729 51.914l-3.02 2.66M192.199.404l-12.44 10.96M112.639 70.484l-3.43 3.03M44.779 136.814l-3.43 3.02M133.729 58.454l-3.02 2.66M199.619.404l-12.44 10.96M120.069 70.484l-3.43 3.03M52.199 136.814l-3.43 3.02M133.729 64.994l-3.02 2.66M207.049.404l-12.44 10.96M127.499 70.484l-3.43 3.02M133.729 71.534l-3.02 2.66M59.619 136.814l-3.43 3.02M214.469.404l-12.44 10.96M133.729 78.064l-3.02 2.66M67.039 136.814l-3.43 3.02M221.889.404l-12.44 10.96M74.459 136.814l-3.43 3.02M133.729 84.604l-3.02 2.66M229.309.404l-12.44 10.96M81.889 136.814l-3.43 3.02M236.729.404l-12.44 10.96M89.309 136.814l-3.43 3.02M244.159.404l-12.44 10.96M95.499 137.904l-2.19 1.93M251.579.404l-12.44 10.96M259.009.404l-12.45 10.96M266.429.404l-12.44 10.96M133.729 123.834l-3.02 2.66M273.839.404l-12.44 10.96M136.089 128.294l-5.38 4.74M281.079.564l-12.25 10.8M281.079 7.104l-4.83 4.26M143.509 128.294l-10.29 9.07M150.939 128.294l-10.3 9.07M158.359 128.294l-10.3 9.07M30.229 247.704l-3.43 3.02M165.779 128.294l-10.29 9.07M37.649 247.704l-3.43 3.02M173.199 128.294l-10.3 9.07M38.819 253.214l-3.02 2.66M180.619 128.294l-10.29 9.07M38.819 259.754l-3.02 2.66M188.049 128.294l-10.3 9.07M189.959 133.144l-4.79 4.22M41.049 264.324l-5.25 4.63M38.819 272.834l-3.02 2.66M26.369 283.804l-.02.01M48.479 264.324l-3.44 3.03M33.789 283.804l-3.43 3.02M38.819 279.374l-3.02 2.66M55.899 264.324l-3.44 3.03M38.819 285.914l-3.02 2.66M63.319 264.324l-3.44 3.03M38.819 292.444l-3.02 2.66M70.739 264.324l-3.44 3.03M38.819 298.984l-3.02 2.66M78.159 264.324l-3.44 3.03M38.819 305.524l-3.02 2.66M85.589 264.324l-3.44 3.03M38.819 312.064l-3.02 2.66M93.009 264.324l-3.44 3.03M38.819 318.604l-3.02 2.66M100.429 264.324l-3.44 3.03M105.059 266.784l-.64.57M38.819 325.134l-3.02 2.67M38.819 331.674l-3.02 2.66M45.049 332.724l-3.43 3.02M38.819 338.214l-3.02 2.66M52.469 332.724l-3.42 3.02M38.819 344.754l-3.02 2.66M137.539 264.324l-1.04.92M59.899 332.724l-3.43 3.02M38.819 351.294l-3.02 2.66M38.819 357.834l-3.02 2.66M67.319 332.724l-3.43 3.02M144.809 264.464l-3.28 2.89M38.819 364.374l-3.02 2.66M74.739 332.724l-3.42 3.02M144.809 271.004l-3.02 2.66M38.819 370.904l-3.02 2.66M82.159 332.724l-3.43 3.02M144.809 277.534l-3.02 2.66M38.819 377.444l-3.02 2.66M89.579 332.724l-3.43 3.02M150.059 279.444l-3.42 3.02M38.819 383.984l-3.02 2.66M97.009 332.724l-3.43 3.02M157.489 279.444l-3.43 3.02M38.819 390.524l-3.02 2.66M30.229 398.094l-3.88 3.41M104.429 332.724l-3.43 3.02M164.909 279.444l-3.43 3.02M38.819 397.064l-11.47 10.1M172.339 279.444l-3.43 3.02M45.069 398.094l-10.3 9.07M179.759 279.444l-3.43 3.02M52.489 398.094l-10.29 9.07M187.179 279.444l-3.43 3.02M59.909 398.094l-10.29 9.07M134.119 332.724l-1.4 1.23M194.599 279.444l-3.43 3.02M67.329 398.094l-10.29 9.07M141.539 332.724l-3.43 3.02M202.019 279.444l-3.43 3.02M74.759 398.094l-10.3 9.07M144.809 336.384l-3.02 2.66M209.439 279.444l-3.42 3.02M82.179 398.094l-10.3 9.07M144.809 342.924l-3.02 2.66M216.869 279.444l-3.43 3.02M89.599 398.094l-10.29 9.07M144.809 349.464l-3.02 2.66M224.289 279.444l-3.43 3.02M97.029 398.094l-10.3 9.07M144.809 356.004l-3.02 2.66M231.719 279.444l-3.43 3.02M104.439 398.094l-10.29 9.07M144.809 362.534l-3.02 2.66M239.129 279.444l-3.43 3.02M111.869 398.094l-10.3 9.07M144.809 369.074l-3.02 2.66M246.549 279.444l-3.42 3.02M119.289 398.094l-10.3 9.07M144.809 375.614l-3.02 2.66M253.979 279.444l-3.43 3.02M126.709 398.094l-10.29 9.07M144.809 382.154l-3.02 2.66M261.399 279.444l-3.43 3.02M134.139 398.094l-10.3 9.07M144.809 388.694l-3.02 2.66M268.829 279.444l-3.43 3.02M141.559 398.094l-10.3 9.07M144.809 395.234l-3.02 2.66M276.249 279.444l-3.43 3.02M281.219 281.604l-.98.86M148.979 398.094l-10.29 9.07M156.399 398.094l-10.29 9.07M163.819 398.094l-10.29 9.07M171.249 398.094l-10.3 9.07M178.669 398.094l-10.3 9.07M186.089 398.094l-10.29 9.07M189.999 401.194l-6.78 5.97"/></g><path class="st4" d="M35.704 286.92h-9.447v-3.022h9.447v-33.08h-9.447v-3.023h12.469v16.626h66.693v1.512h-.453v1.511h-66.24v65.37h66.693v1.512h-.453v1.51l-66.24-.001v62.349h102.968v-62.349l-8.615.001v-1.51h-.453v-1.512h12.09v65.371h45.19v9.068H26.257v-9.068h9.447V286.92zm245.28-275.462V.5H26.257v10.958h12.47v17.554h-12.47v3.023h4.634v38.58l-4.634.001v3.023c13.246-.002 26.492-.003 39.738-.015v-1.511h-.454v-1.512l-31.627.012V32.035h7.836V11.458h88.861l-.001 59.119c-12.319.005-24.638.014-36.956.014v1.512h-.453v1.511c12.466 0 24.941-.009 37.409-.014v16.626h1.511v-.453h1.511l.001-78.315h147.351zM133.632 121.664h-1.511v-.453h-1.511v16.248h59.25v-9.069h-56.228v-6.726zm8.062 160.894h139.432v-3.022H144.717v-15.115h-8.313v1.512h.454v1.511h4.837l-.001 15.114zM95.406 139.931H26.257v-3.023h69.149v3.023z"/></g><g id="sizes"><path d="M161.094 26.78H159.5v-9.625l-1.617.992v-1.648l1.617-1.078h1.594V26.78zM163.5 25.397l3.961-5.281c.229-.302.407-.616.535-.941.128-.325.191-.629.191-.91v-.016c0-.453-.133-.805-.398-1.055s-.644-.375-1.133-.375c-.464 0-.839.137-1.125.41s-.461.66-.523 1.16v.008h-1.648v-.007c.094-.651.285-1.207.574-1.668s.663-.812 1.121-1.055.987-.363 1.586-.363c.677 0 1.255.116 1.734.348.479.232.844.569 1.094 1.012.25.443.375.977.375 1.602v.008c0 .401-.083.82-.25 1.258s-.398.859-.695 1.266l-3.289 4.469h4.297v1.516H163.5v-1.386zM171.782 25.187h1.594v1.594l-1.594 1.578v-3.172zM176.387 26.046c-.55-.567-.824-1.359-.824-2.375v-5.164c0-1.021.276-1.813.828-2.379.552-.565 1.356-.848 2.414-.848 1.063 0 1.868.281 2.418.844s.824 1.357.824 2.383v5.164c0 1.021-.276 1.814-.828 2.379-.552.565-1.356.848-2.414.848-1.063-.001-1.868-.284-2.418-.852zm3.664-1.106c.269-.294.402-.717.402-1.27v-5.164c0-.552-.133-.975-.398-1.27-.266-.294-.683-.441-1.25-.441s-.984.147-1.25.441c-.266.294-.398.718-.398 1.27v5.164c0 .552.134.976.402 1.27.269.294.684.441 1.246.441s.978-.146 1.246-.441zM52.866 177.459a2.75 2.75 0 01-1.086-.977c-.278-.427-.465-.94-.559-1.539v-.008h1.594v.008c.058.417.224.741.5.973.276.232.636.348 1.078.348.511 0 .905-.17 1.184-.512.278-.341.418-.821.418-1.441v-.953c0-.614-.14-1.092-.418-1.434-.278-.341-.673-.512-1.184-.512-.276 0-.542.078-.797.234s-.479.375-.672.656h-1.453v-5.984h5.789v1.516h-4.195v2.555a2.275 2.275 0 011.414-.508c.656 0 1.218.136 1.684.406.466.271.82.667 1.063 1.188.242.521.363 1.148.363 1.883v.953c0 .734-.125 1.362-.375 1.883-.25.521-.614.918-1.094 1.191s-1.055.41-1.727.41c-.572 0-1.081-.112-1.527-.336zM59.777 176.084h1.594v1.594l-1.594 1.578v-3.172zM65.202 177.459a2.75 2.75 0 01-1.086-.977c-.278-.427-.465-.94-.559-1.539v-.008h1.594v.008c.058.417.224.741.5.973.276.232.636.348 1.078.348.511 0 .905-.17 1.184-.512.278-.341.418-.821.418-1.441v-.953c0-.614-.14-1.092-.418-1.434-.278-.341-.673-.512-1.184-.512-.276 0-.542.078-.797.234s-.479.375-.672.656h-1.453v-5.984h5.789v1.516h-4.195v2.555a2.275 2.275 0 011.414-.508c.656 0 1.218.136 1.684.406.466.271.82.667 1.063 1.188.242.521.363 1.148.363 1.883v.953c0 .734-.125 1.362-.375 1.883-.25.521-.614.918-1.094 1.191s-1.055.41-1.727.41c-.572 0-1.081-.112-1.527-.336zM152.217 153.066h-1.594v-9.625l-1.617.992v-1.648l1.617-1.078h1.594v11.359zM156.311 152.792c-.521-.26-.923-.629-1.207-1.105s-.426-1.03-.426-1.66v-.188c0-.567.142-1.102.426-1.602s.663-.877 1.137-1.133c-.401-.219-.723-.535-.965-.949s-.363-.85-.363-1.309v-.273c0-.594.133-1.116.398-1.566.266-.45.641-.799 1.125-1.047.484-.247 1.047-.371 1.688-.371s1.203.124 1.688.371c.484.248.859.597 1.125 1.047.266.451.398.973.398 1.566v.273c0 .469-.124.909-.371 1.32a2.472 2.472 0 01-.98.938c.479.261.863.64 1.152 1.137a3.13 3.13 0 01.434 1.598v.188c0 .63-.142 1.184-.426 1.66s-.687.845-1.207 1.105c-.521.261-1.125.391-1.813.391s-1.293-.13-1.813-.391zm2.789-1.359c.281-.146.499-.35.652-.613.153-.263.23-.566.23-.91v-.11c0-.349-.077-.655-.23-.918a1.576 1.576 0 00-.652-.613c-.281-.146-.606-.219-.977-.219s-.695.073-.977.219c-.281.146-.499.352-.652.617s-.23.573-.23.922v.117c0 .344.077.646.23.906.153.261.371.462.652.605.281.144.606.215.977.215s.696-.072.977-.218zm-.133-5.121c.245-.138.435-.334.57-.59.136-.255.203-.549.203-.883v-.109c0-.317-.067-.599-.203-.844s-.325-.434-.57-.566-.526-.199-.844-.199-.599.066-.844.199-.435.322-.57.566a1.726 1.726 0 00-.203.852v.117c0 .328.067.619.203.871.136.253.325.448.57.586.245.138.526.207.844.207s.599-.069.844-.207zM163.639 151.472h1.594v1.594l-1.594 1.578v-3.172zM169.065 152.847a2.75 2.75 0 01-1.086-.977c-.278-.427-.465-.94-.559-1.539v-.008h1.594v.008c.058.417.224.741.5.973.276.232.636.348 1.078.348.511 0 .905-.17 1.184-.512.278-.341.418-.821.418-1.441v-.953c0-.614-.14-1.092-.418-1.434-.278-.341-.673-.512-1.184-.512-.276 0-.542.078-.797.234s-.479.375-.672.656h-1.453v-5.984h5.789v1.516h-4.195v2.555a2.275 2.275 0 011.414-.508c.656 0 1.218.136 1.684.406.466.271.82.667 1.063 1.188.242.521.363 1.148.363 1.883v.953c0 .734-.125 1.362-.375 1.883-.25.521-.614.918-1.094 1.191s-1.055.41-1.727.41c-.573 0-1.082-.112-1.527-.336z"/><g><path d="M255.348 297.354h-1.594v-9.625l-1.617.992v-1.648l1.617-1.078h1.594v11.359zM260.668 297.354h-1.594v-9.625l-1.617.992v-1.648l1.617-1.078h1.594v11.359zM263.09 295.76h1.594v1.594l-1.594 1.578v-3.172zM267.696 296.62c-.55-.567-.824-1.359-.824-2.375v-5.164c0-1.021.276-1.813.828-2.379s1.356-.848 2.414-.848c1.063 0 1.868.281 2.418.844s.824 1.356.824 2.383v5.164c0 1.021-.276 1.813-.828 2.379s-1.356.848-2.414.848c-1.063-.001-1.869-.285-2.418-.852zm3.664-1.106c.269-.294.402-.718.402-1.27v-5.164c0-.552-.133-.976-.398-1.27s-.683-.441-1.25-.441-.984.147-1.25.441-.398.718-.398 1.27v5.164c0 .552.134.976.402 1.27s.684.441 1.246.441.977-.147 1.246-.441z"/></g><g><path d="M67.175 312.007l3.813-8.227h1.641l-3.719 8.133h5.57v1.477h-7.305v-1.383zm4.899-3.554h1.555v6.688h-1.555v-6.688zM76.277 313.539h1.594v1.594l-1.594 1.578v-3.172zM81.277 314.847c-.474-.269-.835-.659-1.082-1.172s-.371-1.132-.371-1.855v-.008c0-.422.05-.864.148-1.328a7.568 7.568 0 01.641-1.82l2.469-4.891H84.8l-2.898 5.664.008-.281c.13-.245.32-.435.57-.57s.542-.203.875-.203c.589 0 1.094.133 1.516.398s.742.652.961 1.16.328 1.118.328 1.832v.008c0 .729-.124 1.354-.371 1.875s-.609.917-1.086 1.188-1.048.406-1.715.406-1.238-.134-1.711-.403zm2.879-1.597c.273-.313.41-.758.41-1.336v-.008c0-.636-.144-1.126-.43-1.473s-.695-.52-1.227-.52c-.474 0-.841.175-1.102.523s-.391.841-.391 1.477v.008c0 .578.137 1.022.41 1.332s.66.465 1.16.465c.506 0 .896-.156 1.17-.468z"/></g><g><path d="M108.944 32.941l-.727-.348a2.857 2.857 0 01-1.168-1.008c-.294-.44-.48-.97-.559-1.59h1.625c.047.323.148.589.305.797.156.208.358.363.605.465s.538.152.871.152c.526 0 .935-.141 1.227-.422s.438-.677.438-1.188v-.344c0-.567-.138-1.006-.414-1.316-.276-.31-.667-.465-1.172-.465h-.805V26.16h.805c.442 0 .786-.133 1.031-.398s.367-.641.367-1.125v-.352c0-.448-.129-.794-.387-1.039-.258-.245-.624-.367-1.098-.367-.271 0-.513.051-.727.152s-.395.258-.543.469-.257.476-.324.793h-1.617c.104-.62.301-1.151.59-1.594a2.893 2.893 0 011.098-1.008c.442-.229.95-.344 1.523-.344.979 0 1.737.258 2.273.773s.805 1.242.805 2.18v.188c0 .568-.153 1.063-.461 1.484s-.742.729-1.305.922c.62.136 1.101.44 1.441.914.341.474.512 1.078.512 1.813v.188c0 .662-.128 1.227-.383 1.695s-.626.826-1.113 1.07c-.487.245-1.074.367-1.762.367h-.951zM115.264 31.23h1.594v1.594l-1.594 1.578V31.23zM124.913 22.886l-2.938 9.938h-1.695l2.938-9.844h-2.891v1.633h-1.594v-3.148h6.18v1.421z"/></g><g><path d="M329.231 159.551l-.727-.348a2.857 2.857 0 01-1.168-1.008c-.294-.44-.48-.97-.559-1.59h1.625c.047.323.148.589.305.797.156.208.358.363.605.465s.538.152.871.152c.526 0 .935-.141 1.227-.422s.438-.677.438-1.188v-.344c0-.567-.138-1.006-.414-1.316-.276-.31-.667-.465-1.172-.465h-.805v-1.516h.805c.442 0 .786-.133 1.031-.398s.367-.641.367-1.125v-.352c0-.448-.129-.794-.387-1.039-.258-.245-.624-.367-1.098-.367-.271 0-.513.051-.727.152s-.395.258-.543.469-.257.476-.324.793h-1.617c.104-.62.301-1.151.59-1.594a2.893 2.893 0 011.098-1.008c.442-.229.95-.344 1.523-.344.979 0 1.737.258 2.273.773s.805 1.242.805 2.18v.188c0 .568-.153 1.063-.461 1.484s-.742.729-1.305.922c.62.136 1.101.44 1.441.914.341.474.512 1.078.512 1.813v.188c0 .662-.128 1.227-.383 1.695s-.626.826-1.113 1.07c-.487.245-1.074.367-1.762.367l-.951.002zM335.551 157.84h1.594v1.594l-1.594 1.578v-3.172zM345.199 149.496l-2.938 9.938h-1.695l2.938-9.844h-2.891v1.633h-1.594v-3.148h6.18v1.421z"/></g><g><path d="M30.22 107.992l3.813-8.227h1.641l-3.719 8.133h5.57v1.477H30.22v-1.383zm4.898-3.555h1.555v6.688h-1.555v-6.688zM39.322 109.523h1.594v1.594l-1.594 1.578v-3.172zM44.618 110.843c-.521-.26-.923-.629-1.207-1.105s-.426-1.03-.426-1.66v-.188c0-.567.142-1.102.426-1.602s.663-.877 1.137-1.133c-.401-.219-.723-.535-.965-.949s-.363-.85-.363-1.309v-.273c0-.594.133-1.116.398-1.566.266-.45.641-.799 1.125-1.047.484-.247 1.047-.371 1.688-.371s1.203.124 1.688.371c.484.248.859.597 1.125 1.047.266.451.398.973.398 1.566v.273c0 .469-.124.909-.371 1.32a2.472 2.472 0 01-.98.938c.479.261.863.64 1.152 1.137a3.13 3.13 0 01.434 1.598v.188c0 .63-.142 1.184-.426 1.66s-.687.845-1.207 1.105c-.521.261-1.125.391-1.813.391s-1.292-.13-1.813-.391zm2.79-1.359c.281-.146.499-.35.652-.613.153-.263.23-.566.23-.91v-.109c0-.349-.077-.655-.23-.918a1.576 1.576 0 00-.652-.613c-.281-.146-.606-.219-.977-.219s-.695.073-.977.219c-.281.146-.499.352-.652.617s-.23.573-.23.922v.117c0 .344.077.646.23.906.153.261.371.462.652.605.281.144.606.215.977.215s.695-.073.977-.219zm-.133-5.121c.245-.138.435-.334.57-.59.136-.255.203-.549.203-.883v-.109c0-.317-.067-.599-.203-.844s-.325-.434-.57-.566-.526-.199-.844-.199-.599.066-.844.199-.435.322-.57.566a1.726 1.726 0 00-.203.852v.117c0 .328.067.619.203.871.136.253.325.448.57.586.245.138.526.207.844.207s.599-.069.844-.207z"/></g><g><path d="M118.504 375.857l3.813-8.227h1.641l-3.719 8.133h5.57v1.477h-7.305v-1.383zm4.899-3.555h1.555v6.688h-1.555v-6.688zM127.606 377.388h1.594v1.594l-1.594 1.578v-3.172zM131.231 375.857l3.813-8.227h1.641l-3.719 8.133h5.57v1.477h-7.305v-1.383zm4.898-3.555h1.555v6.688h-1.555v-6.688z"/></g></g></svg>