<svg version="1.1" id="_x33_15" xmlns="http://www.w3.org/2000/svg" x="0" y="0" viewBox="0 0 350.776 294.355" xml:space="preserve"><style>.st0{fill-rule:evenodd;clip-rule:evenodd;fill:#fff}.st2,.st4{fill:none;stroke-linecap:round;stroke-linejoin:round;stroke-miterlimit:3}.st2{fill-rule:evenodd;clip-rule:evenodd;stroke:#999}.st4{stroke:#000}.st4,.st5,.st6{fill-rule:evenodd;clip-rule:evenodd}.st6{fill:none;stroke:#666;stroke-width:.6;stroke-miterlimit:22.9256}</style><path class="st0" d="M45.891.615v160.75H.849V266.24h45.042v27.035h288.5V.615z" id="fon"/><g id="mebel"><path d="M310.353 131.627l.235-.235m-7.181.235l7.045-7.045m-13.993 7.045l13.992-13.992m-20.938 13.992l20.939-20.939m-27.887 20.939l27.886-27.886m2.342-2.342l3.892-3.892m-41.066 34.12l41.066-41.068m-48.012 41.068l46.147-46.148m-53.095 46.148l45.327-45.328m-49.123 42.178l42.484-42.485m11.832-11.833l4.441-4.44m-58.757 51.811l38.474-38.474m9.56-9.56l10.723-10.723m4.261-4.261h0m-63.018 56.071L314 58.511m-56.071 49.125l49.124-49.125m-49.124 42.179l42.178-42.179m-42.178 35.231l35.23-35.231m-35.23 28.284l28.283-28.284m-28.283 21.338l21.337-21.338m-21.337 14.39l14.389-14.39m-14.389 7.444l7.443-7.444m-7.443.496l.495-.496m65.441.001h0m-6.947 0h0m-.232 6.715l-6.716-6.715m6.716 13.662l-13.662-13.663m8.639 15.587l-15.586-15.587m20.609 27.557l-.711-.711m-11.99-11.991L289.13 58.511m36.436 43.383l-.049-.049m-.395-.395l-.051-.051m-8.385-8.384l-6.994-6.994m-11.243-11.243l-16.267-16.267m34.504 41.45L303.275 86.55m-7.614-7.614l-20.424-20.425m35.94 42.888l-42.888-42.888m42.162 49.109l-49.109-49.109m49.109 56.056l-52.522-52.522m52.522 59.469l-52.522-52.522m52.522 59.469l-52.522-52.522m48.741 55.688l-48.741-48.742m41.794 48.742l-41.794-41.796m34.847 41.796l-34.847-34.848m27.9 34.848l-27.9-27.9m20.954 27.9l-20.954-20.955m14.006 20.955l-14.006-14.007m7.06 14.007l-7.06-7.061m.113 7.061l-.113-.113" fill-rule="evenodd" clip-rule="evenodd" fill="none" stroke="#999" stroke-width=".4" stroke-linecap="round" stroke-linejoin="round" stroke-miterlimit="3"/><path class="st2" d="M301.694 73.553l-1.645.469m0 0l-1.551.719m.001 0l-1.23.967m0 0l-.943 1.249m0 0l-.594 1.447m-.001 0l-.205 1.551m.001 0l.205 1.551m-.001 0l.594 1.447m.001 0l.943 1.249m0 0l1.23.967m0 0l1.551.719m-.001 0l1.645.469m0 0l1.698.207m.001 0l1.709-.059m0 0l11.585-1.223m0 0V74.628m0 0l-11.585-1.223m0 0l-1.709-.06m0 0l-1.698.208M310.965 84.072v-4.117M310.965 79.955v-4.116M296.698 83.018a5.752 5.752 0 01-.887-3.063M303.528 86.266c-2.591.166-5.106-1.031-6.83-3.248M310.965 84.072c-2.252 1.505-4.828 2.265-7.437 2.195M303.528 73.643c2.61-.07 5.185.689 7.437 2.195M296.698 76.891c1.723-2.217 4.238-3.413 6.83-3.248M295.811 79.955a5.743 5.743 0 01.887-3.063M316.498 75.308h.189v9.295h-.189zM316.686 84.603v-9.295m0 0h-.189m0 0v9.295m0 0h.189M316.686 70.508v18.894M321.221 70.508v18.894M316.686 70.508h4.534M316.686 89.402h4.534M325.566 101.966v29.095m0-.001l-.166.401m0 0l-.401.166m0 .001h-13.981m0 0l-.401-.166m0-.001l-.166-.401m0 0v-29.095m0 .001l.166-.401m0-.001l.401-.166m0 .001h13.981m0 0l.401.166m0-.001l.166.401M321.409 103.099v12.961m0 .907v12.961M320.842 130.494h-8.689M311.585 129.927v-26.829M312.152 102.533h8.69M321.409 129.927a.566.566 0 01-.567.566M312.152 130.494a.566.566 0 01-.567-.566M311.585 103.099c0-.313.253-.566.567-.566M320.842 102.533c.313 0 .567.253.567.566M319.026 116.967a.754.754 0 01-1.208 0h1.208zm-1.209-.907a.754.754 0 011.209 0h-1.209zM325.037 116.967v-.907m0-.001h-7.748m0 0l-.301.256m0 0v.395m0 .001l.301.256m0 0h7.748M325.037 115.758v1.511m0-.001h.265m0 0v-1.511m0 .001h-.265M325.302 115.38v2.267m0 0h.265m0 0v-2.267m0 0h-.265M323.677 113.245h1.625m0 0v.094m0 0h.132m0 0v.284m0 0h.132m0 0v-1.89m0 0h-.132m0 0v.283m0 0h-.132m0 0v.095m0 0h-1.625m0 0v.322m0 0h-.416m0 0v-1.077m0 0h-.491m0 0v2.645m0 0h.491m0 0v-1.077m0 0h.416m0 0v.321M323.677 119.782h1.625m0 0v-.095m0 0h.132m0 0v-.283m0 0h.132m0 0v1.889m0 0h-.132m0 0v-.283m0 0h-.132m0 0v-.095m0 0h-1.625m0 0v-.321m0 0h-.416m0 0v1.077m0 0h-.491m0 0v-2.645m0 0h.491m0 0v1.077m0 0h.416m0 0v-.321M323.261 112.432l-.072.072M323.261 112.923l-.072-.072M323.677 112.432v.491M325.302 112.111v1.134M325.434 113.339v-1.323M323.261 120.594l-.072-.072M323.261 120.103l-.072.072M323.677 120.594v-.492M325.302 120.915v-1.133M325.434 119.687v1.322M323.261 112.678a.246.246 0 11-.492 0 .246.246 0 01.492 0zM323.261 120.348a.246.246 0 11-.492 0 .246.246 0 01.492 0zM325.566 58.511h-67.638m0 0V28.282m0 0h67.638m0 0v30.229M317.675 30.7l.979.092m0 0l.949.273m0 0l.89.445m0 0l.805.605m0 0l.695.745m0 0l.563.863m0 0l.415.955m0 0l.255 1.018m0 0l.085 1.05m0 0v13.301m0 0l-.085 1.049m0 0l-.255 1.019m0 .001l-.415.955m0-.001l-.563.863m0 0l-.695.745m0 0l-.805.605m0 .001l-.89.445m0 0l-.949.273m0 0l-.979.092m0-.001H272.02m0 0l-2.056-.193m0 0l-1.993-.573m0 0l-1.87-.936m0 0l-1.69-1.269m0 0l-1.459-1.565m0 0l-1.183-1.813m0 0l-.872-2.005m0 0l-.534-2.138m0 0l-.18-2.205m0 0l.18-2.204m0 0l.534-2.138m0 0l.872-2.006m0 .001l1.183-1.812m0-.001l1.459-1.566m0 0l1.69-1.269m0 0l1.87-.935m0 .001l1.993-.573m0-.001l2.056-.193m0 0h45.655M317.442 43.397a.945.945 0 11-1.89 0 .945.945 0 011.89 0zM302.894 28.282h-44.966m0 0v-16.74m0 0h44.966m0 0v16.74M142.831 197.376v1.89m0 0h59.4m0 0v-1.89m0 0h-59.4M142.831 235.162h29.7m0 0v-26.45m0 0h-29.7m0 0v26.45M172.532 235.162h29.7m0 0v-26.45m0 0h-29.7m0 0v26.45M202.232 235.162h9.598m0 0v-37.786m0 0h-9.598m0 0v1.889m0 9.447v26.45M133.234 235.162h9.598m0 0v-26.45m0-9.447v-1.889m0 0h-9.598m0 0v37.786M172.532 199.265v9.446m0 0h34.499m0 0v-9.446m0 0h-34.499M172.532 199.265v9.446m0 0h-34.499m-.001 0v-9.446m0 0h34.499M99.887 155.244H77.971m0 0v-18.515m0 0h21.916m0 0v18.515M88.929 143.964v-5.299M88.929 138.665h-1.096M88.929 143.964h-1.096M80.076 143.964v-5.299M81.171 138.665h-1.096M81.171 143.964h-1.096M97.915 141.098a2.74 2.74 0 11-5.48 0 2.74 2.74 0 015.48 0zM97.872 149.338a3.968 3.968 0 11-7.935 0 3.968 3.968 0 017.935 0z"/><path class="st2" d="M96.172 149.338a2.268 2.268 0 11-4.536 0 2.268 2.268 0 014.536 0zM87.148 141.284a2.646 2.646 0 11-5.292-.002 2.646 2.646 0 015.292.002zM86.785 149.875a3.4 3.4 0 11-6.803-.001 3.4 3.4 0 016.803.001zM108.295 157.323H69.564M108.295 134.651H69.564M108.295 157.323V134.65M134.556 154.488h19.271m0 0l.534-.221m0 0l.222-.534m0 0v-17.382m0 0l-.222-.534m0 0l-.534-.222m0 0h-19.271m0 0l-.534.222m.001 0l-.222.534m-.001 0v17.382m0 0l.222.534m.001 0l.534.221M130.967 157.323h26.45M130.967 134.651h26.45M130.967 157.323V134.65M157.417 157.323V134.65M136.446 152.599h15.493M152.694 151.843V140.13M151.938 139.374h-7.003m-1.487 0h-7.002M135.69 140.13v11.714M136.446 152.599h.108a.108.108 0 10-.216 0 .108.108 0 00.216 0h-.108zM152.694 151.843a.755.755 0 01-.755.755M151.938 139.374c.417 0 .755.338.755.756M135.69 140.13c0-.417.338-.756.755-.756M136.446 152.599a.755.755 0 01-.755-.755M143.852 144.207l.1.24m0 0l.241.099m0 0l.24-.1m0 0l.099-.241m0 0v-7.476m0 0l-.099-.24m0 0l-.241-.1m0 0l-.24.1m0 0l-.1.24m0 0v7.478M143.437 138.656h.415m0 0v-1.927m0 0l.099-.24m0 0l.241-.1m0 0l.24.1m0 0l.1.24m0 0v1.927m0 0h.414m0 0V136.2m0 0h-1.509m0 0v2.456M143.447 140.016h.404m0 0v-1.323m0 0h-.404m0 0v1.323M144.936 140.016v-1.323m0 0h-.404m0 0v1.323m0 0h.404M157.417 157.323h22.672m0 0V134.65m0 0h-22.672m0 0v22.672M168.753 142.208v7.558M166.081 143.315l5.344 5.344M164.974 145.986h7.557M166.081 148.658l5.344-5.343M108.295 157.323h22.672M108.295 134.651h22.672M108.295 157.323V134.65M130.967 157.323V134.65M200.493 157.323h11.336M200.493 134.651h11.336M200.493 157.323V134.65M211.829 157.323V134.65M119.886 148.81a3.41 3.41 0 11-6.822 0 3.41 3.41 0 016.822 0z"/><path class="st2" d="M119.364 148.81a2.89 2.89 0 11-5.78 0 2.89 2.89 0 015.78 0zM125.362 149.641a2.58 2.58 0 11-5.16 0 2.58 2.58 0 015.16 0z"/><path class="st2" d="M124.227 149.641a1.444 1.444 0 11-2.889.001 1.444 1.444 0 012.889-.001zM322.354 148.254a7.18 7.18 0 11-7.179-7.18 7.179 7.179 0 017.179 7.18zM89.78 20.932a3.778 3.778 0 11-7.557 0 3.778 3.778 0 017.557 0z"/><path class="st2" d="M87.135 20.932a1.134 1.134 0 11-2.269 0 1.134 1.134 0 012.269 0zM178.578 20.932a3.778 3.778 0 11-7.557 0 3.778 3.778 0 017.557 0z"/><path class="st2" d="M175.932 20.932a1.134 1.134 0 11-2.267.001 1.134 1.134 0 012.267-.001zM164.408 11.485H96.393m0 0v3.779m0 .001h68.015m0 0v-3.779M69.564 282.962v-16.626m0 0H211.83m0 0v16.626m0 0H69.564M195.242 276.57v1.02m0-.001h-44.37m-.001 0v-1.02m0 .001h44.37M185.78 277.589v.832m0 0l-.152.567m0 .001l-.414.414m0-.001l-.567.153m0 .001h-22.7m0 0l-.566-.153m0-.001l-.415-.414m0 .001l-.152-.567m0-.001v-.832m0 0h24.966M195.242 276.272v.298m0 0h-44.37m-.001 0v-.298m0 0h44.37M249.615 260.29v22.671m0 0h75.951m0 0V260.29m0 0h-75.951M325.566 272.004v-.756m0 0h-75.951m0 0v.756m0 0h75.951M256.202 262.283v18.626m0 0h.756m0 0v-18.626m0 0h-.756M258.207 262.283v18.626m0 0h.756m0 0v-18.626m0 0h-.756M260.212 262.283v18.626m0 0h.756m0 0v-18.626m0 0h-.756M262.216 262.283v18.626m0 0h.756m0 0v-18.626m0 0h-.756M266.462 262.418l-2.242 18.491m0 0l.751.091m0 0l2.241-18.491m0 0l-.75-.091M164.408 90.836H96.393m0 0V15.265m0 0h68.015m0 0v75.572M162.518 92.726H98.282m0 0l-.723-.144m0 0l-.613-.41m0 0l-.41-.613m0 0l-.143-.723m0 0h68.015m0 0l-.144.723m0 0l-.41.613m0 0l-.613.41m0 0l-.723.144M94.503 11.485H77.499m0 0v18.893m0 .001h17.004m0 0V11.485M166.297 11.485h17.004m0 0v18.893m0 .001h-17.004m0 0V11.485M124.354 17.154H98.66m0 0l-.268.111m0-.001l-.11.267m0 0V30m0 0l.11.268m0 .001l.268.11m0 0h25.694m0 0l.267-.11m0 0l.111-.269m0 0V17.531m0 0l-.111-.267m0 0l-.267-.111M136.446 17.154h25.694m0 0l.268.111m0-.001l.11.267m0 0V30m0 0l-.11.268m0 .001l-.268.11m0 0h-25.694m0 0l-.267-.11m0 0l-.111-.269m0 0V17.531m0 0l.111-.267m0 0l.267-.111M164.408 29.355h-1.89M136.068 29.355h-11.336M98.282 29.355h-1.889M164.408 34.364H96.393m0 0V53.05m0 0l68.015-14.907m0 .001v-3.779M243.192 23.254l.755-.755m0 0h-56.112m0 0v.755m0 0h55.357M194.422 13.533v18.626m0 0h.756m0 0V13.533m0 0h-.756M196.426 13.533v18.626m0 0h.756m0 0V13.533m0 0h-.756M198.431 13.533v18.626m0 0h.755m0 0V13.533m0 0h-.755M200.435 13.533v18.626m0 0h.756m0 0V13.533m0 0h-.756M204.682 13.669l-2.241 18.49m-.001 0l.75.092m0 0l2.241-18.491m.001 0l-.75-.091M254.906 11.54h-67.071m0 0v22.672m0 0h44.399m0 0v58.514m0 0h22.672m0 0V11.54M243.192 92.726h.755m0 0V22.498m0 0l-.755.755m0 0v69.473M252.913 83.176h-18.626m0 0v-.756m0 0h18.626m0 0v.755M252.913 81.171h-18.626m0 0v-.756m0 0h18.626m0 0v.756M252.913 79.166h-18.626m0 0v-.755m0 0h18.626m0 0v.755M252.913 77.162h-18.626m0 0v-.755m0 0h18.626m0 0v.755M252.778 72.916l-18.491 2.242m0 0l-.091-.751m0 0l18.491-2.241m0 0l.091.75M112.406 151.017h.963m0 0v1.204m0 0h12.524m0 0v-1.204m0 0h.964M123.503 141.49l-.047.104m-.047.103l-.047.103m-.047.103l-.047.103m-.048.104l-.047.103m-.047.102l-.047.103m-.047.103l-.048.103m-.046.104l-.048.103m-.047.103l-.047.102m-.047.105l-.047.103m-.048.102l-.047.103m-.047.103l-.047.103m-.047.103l-.047.104m-.047.103l-.048.104m-.047.102l-.047.103m-.047.104l-.047.103m-.047.102l-.047.103m-.048.103l-.047.103M123.503 141.49h-.078m-.113 0h-.113m-.113 0h-.114m-.114 0h-.077m0 0l-.042.052m-.071.088l-.072.088m-.072.089l-.071.088m-.072.088l-.071.088m-.071.086l-.072.088m-.071.089l-.072.088m-.071.088l-.072.088m-.071.088l-.071.088m-.072.088l-.071.087m-.072.089l-.071.088m-.072.088l-.071.088m-.072.089l-.071.088m-.071.088l-.072.088m-.071.086l-.072.089m-.071.088l-.072.088m-.071.088l-.072.088m-.071.088l-.071.088m-.072.088l-.071.088m-.072.088l-.071.088m-.072.088l-.071.088m-.071.089l-.072.088m-.071.088l-.072.088m-.071.087l-.042.052M113.869 141.49l.047.104m.048.103l.047.103m.047.103l.047.103m.047.104l.048.103m.046.102l.048.103m.047.103l.047.103m.047.104l.047.103m.047.103l.048.102m.047.105l.047.103m.047.102l.047.103m.047.103l.048.103m.047.103l.047.104m.047.103l.047.104m.047.102l.047.103m.048.104l.047.103m.047.102l.047.103m.047.103l.048.103M113.869 141.49h.078m.113 0h.114m.113 0h.114m.113 0h.078m0 0l.042.052m.071.088l.072.088m.071.089l.071.088m.072.088l.071.088m.072.086l.071.088m.072.089l.071.088m.071.088l.072.088m.072.088l.071.088m.071.088l.072.087m.071.089l.072.088m.071.088l.072.088m.071.089l.071.088m.072.088l.071.088m.072.086l.071.089m.072.088l.071.088m.071.088l.072.088m.071.088l.072.088m.072.088l.071.088m.072.088l.071.088m.071.088l.071.088m.072.089l.072.088m.071.088l.072.088m.071.087l.042.052M315.691 142.246l-.449 1.233m0 0v1.312m0 0l.449 1.233m0 0l-.342 1.474m0 0v1.512m0 0l.342 1.473m0 0l-.45 1.235m0 0v1.314m0 0l.45 1.235m0 0l-2.987-2.232m0 0v-7.558m0 0l2.987-2.231M312.442 144.477v7.557m0 0h.262m0 0v-7.557m0 0h-.262M311.919 144.477v7.557m0 0h.262m0 0v-7.557m0 0h-.262M317.206 149.098l.085-.891m0-.001l-.226-.022m0 0l-.046.477m0 .001l-1.142-1.383m0 0l-.152.126m0-.001l.53.642m0 0l-.081.067m0 0l-.611-.74m0 0l-.147.121m0 .001l.612.74m0-.001l-.098.08m0 0l-.496-.601m0 0l-.131.107m0 .001l.497.601m0-.001l-.097.081m0 .001l-.343-.415m0 0l-.14.116m0-.001l1.174 1.422M325.566 136.918v22.672m0 0h-22.672m0 0v-22.672m0 0h22.672M291.936 190.763h1.889m0 0V134.65m0 0h-1.889m0 0v56.113M211.829 282.962h37.786m0 0v-22.671m0 0h-37.786m0 0v22.671M302.894 190.763h22.672m0 0v-31.174m0 0h-22.672m0 0v31.174M82.322 21.793l3.679-.86m0 0l1.584-3.431m0 0l-1.584 3.431m0 0l1.306 3.545M178.479 21.793l-3.68-.86m0 0l-1.583-3.431m0 0l1.583 3.431m0 0l-1.306 3.545M113.869 141.013h9.634m0 0v.478m0-.001h-.722m0 0v-.237m0 0h-8.189m0 0v.237m0 0h-.723m0 0v-.478M164.408 15.264H96.393m0 0v-1.889m0 0h68.015m0 0v1.889M124.305 200.265l-4.109-4.109m0 0l-.426-.407m0 0l-.43-.371m0 0l-.424-.328m0 0l-.403-.276m0 0l-.017-.009m0 0l-.375-.216m0 0l-.332-.147m0 0l-.025-.008m0 0l-.281-.075m0 0l-.028-.004m0 0l-.22.002m0 0l-.03.002m0 0l-.029.007m0 0l-.027.013m0 0l-.154.078m0 0l-.024.018m0 0l-.012.01m0 0l-1.133 1.134m0 0l-1.03-1.029m0 0l-5.217 5.217m11.115 11.116l5.217-5.218m0 0l-1.029-1.029m0 0l1.134-1.134m0 0l.011-.011m0 0l.017-.025m0 0l.078-.154m0 0l.013-.027m0 0l.008-.029m0 0l.002-.029m0 0l.001-.221m0 0l-.003-.028m0 0l-.075-.281m0 0l-.008-.025m0 0l-.148-.332m0 0l-.214-.376m0 0l-.011-.016m0 0l-.276-.404m0 0l-.328-.423m0 0l-.371-.429m0 0l-.407-.427M115.158 196.248l9.057 9.057M115.281 196.371l.897-.898M124.09 205.18l.898-.897M120.217 209.301l4.665-4.664M111.161 200.244l4.664-4.664M119.166 197.178l4.118 4.117M116.178 195.473c.354-.354 1.691.409 2.988 1.706M123.283 201.294c1.296 1.296 2.06 2.634 1.705 2.988M87.707 228.647l4.108 4.108m0 0l.427.408m0 0l.43.371m0 0l.423.328m0 0l.404.275m0 0l.016.011m0 0l.376.215m0 0l.332.147m0 0l.024.008m0 0l.281.075m0 0l.029.003m0 0l.22-.001m0 0l.03-.002m0 0l.028-.008m0 0l.027-.012m0 0l.154-.078m0 0l.025-.018m0 0l.011-.011m0 0l1.134-1.133m0 0l1.029 1.029m0 0l5.218-5.218M91.317 218.03l-5.216 5.217m0 0l1.029 1.029m0 0l-1.135 1.134m0 0l-.01.011m0 0l-.017.025m0 0l-.078.153m0 0l-.013.027m0 0l-.008.03m0 0l-.002.029m0 0l-.001.221m0 0l.003.027m0 0l.074.282m0 0l.009.025m0 0l.147.332m0 0l.215.375m0 0l.01.016m0 0l.276.404m0 0l.329.424m0 0l.371.429m0 0l.407.427M96.854 232.665l-9.057-9.057M96.731 232.54l-.898.898M87.92 223.731l-.896.897M91.793 219.611l-4.663 4.664M100.851 228.667l-4.664 4.665M92.845 231.734l-4.117-4.117M95.833 233.439c-.354.354-1.692-.409-2.988-1.705M88.728 227.617c-1.296-1.296-2.06-2.634-1.705-2.988M91.815 196.156l-4.108 4.109m0 0l-.408.427m0 0l-.371.429m0 0l-.329.423m0 0l-.275.404m0 0l-.01.016m0 0l-.216.376m0 0l-.146.332m0 0l-.009.025m0 0l-.074.281m0 0l-.003.028m0 0l.001.221m0 0l.002.029m0 0l.008.029m0 0l.012.027m0 0l.078.154m0 0l.018.024m0 0l.01.012m0 0l1.134 1.133m0 0l-1.029 1.03m0 0l5.217 5.217m11.115-11.115l-5.218-5.217m0 0l-1.028 1.029m0 0l-1.135-1.134m0 0l-.01-.01m0 0l-.026-.018m0 0l-.153-.078m0 0l-.027-.013m0 0l-.029-.007m0 0l-.029-.002m0 0l-.221-.002m0 0l-.028.004m0 0l-.281.075m0 0l-.025.008m0 0l-.332.147m0 0l-.376.215m0 0l-.015.01m0 0l-.405.276m0 0l-.423.328m0 0l-.429.371m0 0l-.427.407M87.797 205.304l9.057-9.057M87.92 205.18l-.896-.897M96.731 196.371l-.898-.898M100.851 200.244l-4.664-4.664M91.793 209.3l-4.663-4.663M88.728 201.295l4.117-4.117M87.023 204.283c-.354-.354.409-1.692 1.705-2.988M92.844 197.178c1.297-1.296 2.635-2.059 2.988-1.705M120.196 232.755l4.109-4.108m0 0l.408-.427m0 0l.371-.43m0 0l.328-.424m0 0l.275-.403m0 0l.011-.017m0 0l.215-.375m0 0l.147-.332m0 0l.008-.024m0 0l.075-.282m0 0l.003-.028m0 0l-.001-.22m0 0l-.002-.03m0 0l-.008-.029m0 0l-.012-.027m0 0l-.078-.154m0 0l-.018-.024m0 0l-.011-.012m0 0l-1.133-1.133m0 0l1.029-1.03m0 0l-5.218-5.218m-11.116 11.116l5.218 5.218m.001-.001l1.029-1.029m0 0l1.134 1.134m0 0l.011.011m0 0l.025.017m0 0l.153.078m0 0l.027.013m0 0l.03.008m0 0l.029.002m0 0l.221.001m0 0l.027-.003m0 0l.281-.075m0 0l.026-.008m0 0l.332-.148m0 0l.375-.214m0 0l.016-.011m0 0l.404-.276m0 0l.424-.328m0 0l.429-.371m0 0l.426-.407M124.214 223.608l-9.057 9.057M124.09 223.731l.898.897M115.281 232.54l.897.898M111.161 228.667l4.664 4.665M120.217 219.611l4.665 4.664M123.284 227.617l-4.117 4.117M124.989 224.628c.354.354-.409 1.691-1.705 2.987M119.166 231.733c-1.296 1.296-2.634 2.06-2.988 1.705M121.12 214.455c0 8.348-6.767 15.114-15.114 15.114-8.348 0-15.115-6.766-15.115-15.114 0-8.347 6.767-15.114 15.115-15.114 8.347 0 15.114 6.767 15.114 15.114z"/></g><g id="walls_1_"><path d="M45.844.5L334.72.54v206.784l-.001 1.058h-1.511v.454h-7.557l.001-197.34-.001.002-256.003-.08v21.9H45.844V.5h0zm0 254.829h23.805v27.568h93v10.953l-116.805.005v-38.526h0zm279.807-7.951l.001 46.477h9.068l-.001-46.024h-1.511v-.453h-7.557 0zM45.844 99.444v72.755h23.805V99.444H45.844z" fill-rule="evenodd" clip-rule="evenodd" stroke="#000" stroke-linecap="round" stroke-linejoin="round" stroke-miterlimit="3"/><path class="st4" d="M217.44 119.002c-1.817 4.87-2.313 7.37-2.578 12.561"/><path class="st5" d="M217.482 118.904l-.6 1.388 29.418 12.782h.454v-1.511z"/><path class="st4" d="M350.276 244.628c-6.022 2.248-9.136 2.876-15.556 3.203"/><path class="st5" d="M350.378 244.59l-15.658-36.208h-1.511v.454l15.782 36.354z"/><path class="st4" d="M288.674 120.503c1.252 3.666 2.149 6.919 2.29 11.06"/><path class="st5" d="M288.654 120.404l-25.804 11.159.001 1.511h.453l25.899-11.26z"/><path class="st0" d="M247.812 131.563h7.179V11.451l-92.342-.005V.516l163.003.023v10.912h-19.649v13.743h19.649v3.023H302.98V11.451h-44.966v120.112h4.837v1.511h.453v1.512H246.3v-1.512h.454v-1.511h1.058zm43.55 0h-.398v1.511h-.454v1.512h35.142v-3.023h-34.29zM162.649 282.897v10.953l163.003.005v-10.93l-36.432-.009v-.003l-126.571-.016zm17.525-128.663v3.023h20.405v-22.671h14.737v-1.512h-.454v-1.511H69.649v3.023h110.525v19.648zm17.382 0v-19.648h-14.359v19.648h14.359zm128.096 39.487h-33.63v-3.023h33.63v3.023zM319.606 61.28h6.046v-3.023h-9.069v43.266h9.069V98.5h-6.046V61.28z"/><g><path class="st4" d="M53.401 99.445h16.248M45.844 99.445h5.668M51.512 99.445h1.889M53.401 33.319h16.248M45.844 33.319h5.668M51.512 33.319h1.889M45.844 33.319v66.126M69.649 33.319v66.126M53.401 33.319v3.778M53.401 37.097h-1.889M51.512 37.097v-3.778M51.512 71.105v-1.89M51.512 69.215h1.889M53.401 69.215v1.89M52.457 37.097v32.118M53.401 37.097v32.118M51.512 69.215V37.097M53.401 71.105v.945M53.401 72.05h-.944M52.457 72.05v.943M52.457 72.994h-.945M51.512 72.994v-1.889M51.512 99.445v-3.779M51.512 95.666h.945M52.457 95.666v.945M52.457 96.611h.944M53.401 96.611v2.834M51.512 95.666V72.994M54.346 74.883v18.894M54.346 72.05v2.832M54.346 74.883h-1.889M52.457 74.883V72.05M52.457 72.05h1.889M52.457 96.611v-2.834M52.457 93.777h1.889M54.346 93.777v2.834M54.346 96.611h-1.889M52.457 93.777V74.882M54.346 74.883v18.894M53.401 74.883v18.894M51.512 33.319h1.889M51.512 33.319h1.889M45.844 33.319h5.668M53.401 33.319h16.248M51.512 99.445h1.889M51.512 99.445h1.889M45.844 99.445h5.668M53.401 99.445h16.248"/><g><path class="st4" d="M53.401 172.199h16.248M45.844 172.199h5.668M51.512 172.199h1.889M53.401 255.329h16.248M45.844 255.329h5.668M51.512 255.329h1.889M45.844 255.329v-83.13M69.649 255.329v-83.13M53.401 255.329v-3.779M53.401 251.55h-1.889M51.512 251.55v3.779M51.512 215.653v1.889M51.512 217.542h1.889M53.401 217.542v-1.889M52.457 251.55v-34.008M53.401 251.55v-34.008M51.512 217.542v34.008M53.401 215.653v-.945M53.401 214.708h-.944M52.457 214.708v-.944M52.457 213.764h-.945M51.512 213.764v1.889M51.512 172.199v3.779M51.512 175.978h.945M52.457 175.978v-.945M52.457 175.033h.944M53.401 175.033v-2.834M54.346 175.033l28.055 28.055M51.512 175.978v37.786M54.346 211.875v-34.008M54.346 214.708v-2.833M54.346 211.875h-1.889M52.457 211.875v2.833M52.457 214.708h1.889M52.457 175.033v2.834M52.457 177.867h1.889M54.346 177.867v-2.834M54.346 175.033h-1.889M52.457 177.867v34.008M54.346 211.875v-34.008M53.401 211.875v-34.008M82.4 203.088a39.673 39.673 0 01-28.055 11.621M51.512 255.329h1.889M51.512 255.329h1.889M45.844 255.329h5.668M53.401 255.329h16.248M51.512 172.199h1.889M51.512 172.199h1.889M45.844 172.199h5.668M53.401 172.199h16.248"/></g><path class="st4" d="M45.844 160.863H.5m0 0v105.802m0 0h45.344m0 0V160.863M1.256 265.909h44.588m0 0v-104.29m0 0H1.256m0 0v104.29"/></g><g><path class="st6" d="M164.028.564l-1.4 1.23M171.448.564l-8.82 7.77M178.868.564l-12.4 10.93M186.288.564l-12.4 10.93M193.718.574l-12.4 10.92M201.128.574l-12.4 10.92M208.548.574l-12.4 10.92M215.968.574l-12.4 10.92M223.398.574l-12.4 10.93M74.648 131.614l-3.43 3.02M230.818.574l-12.4 10.93M82.068 131.614l-3.43 3.02M238.238.574l-12.4 10.93M89.488 131.614l-3.42 3.02M245.648.584l-12.39 10.92M96.908 131.614l-3.43 3.02M253.078.584l-12.4 10.92M104.328 131.614l-3.43 3.02M260.498.584l-12.4 10.92M111.758 131.614l-3.43 3.02M267.918.584l-12.95 11.41M119.178 131.614l-3.43 3.02M275.338.584l-12.39 10.92M257.988 15.874l-3.02 2.66M126.598 131.614l-3.43 3.02M282.768.584l-12.4 10.92M257.988 22.414l-3.02 2.66M134.028 131.614l-3.43 3.02M290.188.584l-12.39 10.92M257.988 28.954l-3.02 2.66M141.448 131.614l-3.43 3.02M297.598.584l-12.39 10.92M257.988 35.484l-3.02 2.66M148.858 131.614l-3.42 3.02M305.018.594l-12.39 10.91M257.988 42.024l-3.02 2.66M156.288 131.614l-3.43 3.02M312.438.594l-12.38 10.91M257.988 48.564l-3.02 2.66M163.708 131.614l-3.43 3.02M305.978 12.824l-3.02 2.66M319.868.594l-12.39 10.91M257.988 55.104l-3.02 2.66M171.138 131.614l-3.43 3.02M305.978 19.364l-3.02 2.66M325.628 2.054l-10.73 9.45M257.988 61.644l-3.02 2.66M178.558 131.614l-3.43 3.02M306.728 25.244l-3.43 3.02M257.988 68.184l-3.02 2.66M325.628 8.594l-3.3 2.91M185.978 131.614l-5.83 5.14M314.148 25.244l-3.43 3.02M257.988 74.714l-3.02 2.66M183.178 140.614l-3.03 2.67M193.398 131.614l-3.43 3.02M321.568 25.244l-3.43 3.02M257.988 81.254l-3.02 2.66M183.178 147.154l-3.03 2.67M200.818 131.614l-3.43 3.02M257.988 87.794l-3.02 2.66M325.628 28.204l-.06.06M200.558 138.384l-3.03 2.67M183.178 153.694l-3.03 2.67M208.248 131.614l-3.43 3.02M257.988 94.334l-3.02 2.66M214.838 132.344l-2.6 2.29M189.928 154.284l-3.42 3.02M200.558 144.924l-3.03 2.67M257.988 100.874l-3.02 2.66M197.358 154.284l-3.43 3.02M200.558 151.464l-3.03 2.67M257.988 107.414l-3.02 2.66M257.988 113.944l-3.02 2.66M321.148 58.304l-4.59 4.05M319.578 66.224l-3.02 2.66M257.988 120.484l-3.02 2.66M325.628 60.894l-.49.44M319.578 72.764l-3.02 2.66M257.988 127.024l-3.02 2.66M252.778 131.614l-3.43 3.02M260.198 131.614l-3.43 3.02M319.578 79.304l-3.02 2.66M319.578 85.844l-3.02 2.66M319.578 92.384l-3.02 2.66M319.998 98.554l-3.43 3.02M325.628 100.124l-1.64 1.45M297.308 131.614l-3.43 3.02M304.738 131.614l-3.43 3.02M312.158 131.614l-3.43 3.02M319.578 131.614l-3.43 3.02M325.628 132.824l-2.05 1.81M170.058 282.944l-7.43 6.54M177.478 282.944l-12.44 10.96M184.898 282.944l-12.44 10.96M192.318 282.944l-12.43 10.96M199.748 282.954l-12.44 10.95M207.158 282.954l-12.43 10.95M214.578 282.954l-12.43 10.95M221.998 282.954l-12.43 10.95M229.428 282.954l-12.43 10.95M236.848 282.954l-12.43 10.95M244.268 282.954l-12.43 10.95M251.698 282.954l-12.43 10.95M259.098 282.964l-12.42 10.94M266.528 282.964l-12.42 10.94M273.948 282.964l-12.42 10.94M281.368 282.964l-12.42 10.94M288.788 282.964l-12.41 10.94M296.218 282.964l-12.42 10.94M303.638 282.964l-12.42 10.94M311.048 282.974l-12.41 10.93M318.468 282.974l-12.41 10.93M325.628 283.204l-12.14 10.7M325.628 289.744l-4.72 4.16"/></g><path class="st4" d="M247.812 131.563h7.179V11.451l-92.342-.005V.516l163.003.023v10.912h-19.649v13.743h19.649v3.023H302.98V11.451h-44.966v120.112h4.837v1.511h.453v1.512H246.3v-1.512h.454v-1.511h1.058zm43.55 0h34.29v3.023H290.51v-1.512h.454v-1.511h.398zM162.649 282.897v10.953l163.003.005v-10.93l-36.432-.009v-.003l-126.571-.016zm17.525-128.663v-19.648H69.649v-3.023h145.213v1.511h.454v1.512h-14.737v22.671h-20.405v-3.023zm17.382 0v-19.648h-14.359v19.648h14.359zm128.096 39.487h-33.63v-3.023h33.63v3.023zM319.606 61.28V98.5h6.046v3.023h-9.069V58.257h9.069v3.023h-6.046z"/></g><g id="sizes"><path d="M206.98 47h-1.594v-9.625l-1.617.992v-1.648l1.617-1.078h1.594V47zM211.203 46.781a2.75 2.75 0 01-1.086-.977c-.279-.427-.465-.94-.559-1.539v-.008h1.594v.008c.057.417.224.741.5.973.275.232.635.348 1.078.348.51 0 .904-.17 1.184-.512.278-.341.418-.821.418-1.441v-.953c0-.614-.14-1.092-.418-1.434-.279-.341-.674-.512-1.184-.512-.276 0-.542.078-.797.234a2.225 2.225 0 00-.672.656h-1.453V35.64h5.789v1.516h-4.195v2.555a2.262 2.262 0 011.414-.508c.656 0 1.217.136 1.684.406.466.271.82.667 1.063 1.188.242.521.363 1.148.363 1.883v.953c0 .734-.125 1.362-.375 1.883-.25.521-.615.918-1.094 1.191-.479.273-1.055.41-1.727.41-.573 0-1.082-.112-1.527-.336zM218.113 45.406h1.594V47l-1.594 1.578v-3.172zM227.761 37.062L224.824 47h-1.695l2.938-9.844h-2.891v1.633h-1.594V35.64h6.18v1.422zM181.06 170.999l3.961-5.281c.229-.302.407-.616.535-.941s.191-.629.191-.91v-.016c0-.453-.133-.805-.398-1.055s-.644-.375-1.133-.375c-.464 0-.839.137-1.125.41s-.461.66-.523 1.16v.008h-1.648v-.008c.094-.651.285-1.207.574-1.668s.663-.813 1.121-1.055.987-.363 1.586-.363c.677 0 1.255.116 1.734.348s.844.569 1.094 1.012.375.977.375 1.602v.008c0 .401-.083.82-.25 1.258s-.398.859-.695 1.266l-3.289 4.469h4.297v1.516h-6.406v-1.385zM189.326 170.999l3.961-5.281c.229-.302.407-.616.535-.941s.191-.629.191-.91v-.016c0-.453-.133-.805-.398-1.055s-.644-.375-1.133-.375c-.464 0-.839.137-1.125.41s-.461.66-.523 1.16v.008h-1.648v-.008c.094-.651.285-1.207.574-1.668s.663-.813 1.121-1.055.987-.363 1.586-.363c.677 0 1.255.116 1.734.348s.844.569 1.094 1.012.375.977.375 1.602v.008c0 .401-.083.82-.25 1.258s-.398.859-.695 1.266l-3.289 4.469h4.297v1.516h-6.406v-1.385zM197.607 170.788h1.594v1.594l-1.594 1.578v-3.172zM203.373 172.499l-.727-.348c-.485-.232-.874-.567-1.168-1.008s-.48-.97-.559-1.59h1.625c.047.323.148.589.305.797s.358.363.605.465.538.152.871.152c.526 0 .935-.141 1.227-.422s.438-.677.438-1.188v-.344c0-.567-.138-1.007-.414-1.316s-.667-.465-1.172-.465h-.805v-1.516h.805c.442 0 .786-.133 1.031-.398s.367-.641.367-1.125v-.352c0-.448-.129-.794-.387-1.039s-.624-.367-1.098-.367c-.271 0-.513.051-.727.152s-.395.258-.543.469-.257.476-.324.793h-1.617c.104-.62.301-1.151.59-1.594s.655-.778 1.098-1.008.95-.344 1.523-.344c.979 0 1.737.258 2.273.773s.805 1.242.805 2.18v.188c0 .567-.153 1.063-.461 1.484s-.742.729-1.305.922c.62.136 1.101.44 1.441.914s.512 1.078.512 1.813v.188c0 .661-.128 1.227-.383 1.695s-.626.825-1.113 1.07-1.074.367-1.762.367l-.951.002z"/><g><path d="M263.474 71.087a2.75 2.75 0 01-1.086-.977c-.278-.427-.465-.94-.559-1.539v-.008h1.594v.008c.058.417.224.741.5.973.276.232.636.348 1.078.348.511 0 .905-.17 1.184-.512.278-.341.418-.821.418-1.441v-.953c0-.614-.14-1.092-.418-1.434-.278-.341-.673-.512-1.184-.512-.276 0-.542.078-.797.234s-.479.375-.672.656h-1.453v-5.984h5.789v1.516h-4.195v2.555a2.275 2.275 0 011.414-.508c.656 0 1.218.136 1.684.406.466.271.82.667 1.063 1.188.242.521.363 1.148.363 1.883v.953c0 .734-.125 1.362-.375 1.883-.25.521-.614.918-1.094 1.191s-1.055.41-1.727.41c-.573 0-1.082-.113-1.527-.336zM270.384 69.712h1.594v1.594l-1.594 1.578v-3.172zM273.994 69.923l3.961-5.281c.229-.302.407-.616.535-.941.128-.325.191-.629.191-.91v-.016c0-.453-.133-.805-.398-1.055s-.644-.375-1.133-.375c-.464 0-.839.137-1.125.41s-.461.66-.523 1.16v.008h-1.648v-.008c.094-.651.285-1.207.574-1.668s.663-.813 1.121-1.055.987-.363 1.586-.363c.677 0 1.255.116 1.734.348.479.232.844.569 1.094 1.012.25.443.375.977.375 1.602v.008c0 .401-.083.82-.25 1.258a5.417 5.417 0 01-.695 1.266l-3.289 4.469h4.297v1.516h-6.406v-1.385z"/></g><g><path d="M292.924 205.72l3.813-8.227h1.641l-3.719 8.133h5.57v1.477h-7.305v-1.383zm4.899-3.554h1.555v6.688h-1.555v-6.688zM302.026 207.252h1.594v1.594l-1.594 1.578v-3.172zM305.651 205.72l3.813-8.227h1.641l-3.719 8.133h5.57v1.477h-7.305v-1.383zm4.898-3.554h1.555v6.688h-1.555v-6.688z"/></g><g><path d="M7.304 177.584l-.727-.348a2.857 2.857 0 01-1.168-1.008c-.294-.439-.48-.97-.559-1.59h1.625c.047.323.148.589.305.797.156.209.358.363.605.465.247.102.538.152.871.152.526 0 .935-.141 1.227-.422.292-.281.438-.677.438-1.188v-.344c0-.567-.138-1.006-.414-1.316-.276-.31-.667-.465-1.172-.465h-.804v-1.516h.805c.442 0 .786-.133 1.031-.398.245-.266.367-.641.367-1.125v-.352c0-.447-.129-.794-.387-1.039-.258-.244-.624-.367-1.098-.367-.271 0-.513.051-.727.152-.214.102-.395.258-.543.469s-.257.476-.324.793H5.039c.104-.619.301-1.15.59-1.594a2.893 2.893 0 011.098-1.008c.442-.229.95-.344 1.523-.344.979 0 1.737.258 2.273.773.536.516.805 1.242.805 2.18v.188c0 .568-.154 1.063-.461 1.484-.308.422-.742.729-1.305.922.62.136 1.1.44 1.441.914.341.475.512 1.078.512 1.813v.188c0 .662-.128 1.227-.383 1.695a2.52 2.52 0 01-1.113 1.07c-.487.245-1.074.367-1.762.367l-.953.002zM13.624 175.873h1.594v1.594l-1.594 1.578v-3.172zM18.921 177.193a2.855 2.855 0 01-1.207-1.105c-.284-.477-.426-1.029-.426-1.66v-.188c0-.567.142-1.102.426-1.602.284-.5.663-.877 1.137-1.133-.401-.219-.723-.535-.965-.949s-.363-.85-.363-1.309v-.273c0-.594.133-1.115.398-1.566.266-.45.641-.799 1.125-1.047.484-.247 1.047-.371 1.688-.371s1.203.124 1.688.371c.484.248.859.597 1.125 1.047.266.451.398.973.398 1.566v.273c0 .469-.124.909-.371 1.32a2.472 2.472 0 01-.98.938c.479.261.863.64 1.152 1.137a3.13 3.13 0 01.434 1.598v.188c0 .631-.142 1.184-.426 1.66a2.848 2.848 0 01-1.207 1.105c-.521.261-1.125.391-1.813.391s-1.292-.13-1.813-.391zm2.789-1.359c.281-.146.499-.35.652-.613.153-.263.23-.566.23-.91v-.109c0-.349-.077-.654-.23-.918a1.582 1.582 0 00-.652-.613 2.09 2.09 0 00-.977-.219c-.37 0-.695.073-.977.219a1.573 1.573 0 00-.652.617c-.154.266-.23.573-.23.922v.117c0 .344.077.646.23.906.153.261.371.463.652.605.281.144.606.215.977.215.37-.001.696-.073.977-.219zm-.132-5.121c.245-.138.435-.334.57-.59.135-.255.203-.549.203-.883v-.109c0-.317-.068-.599-.203-.844a1.412 1.412 0 00-.57-.566 1.74 1.74 0 00-.844-.199 1.74 1.74 0 00-.844.199 1.406 1.406 0 00-.57.566 1.726 1.726 0 00-.203.852v.117c0 .328.067.619.203.871.135.253.325.448.57.586.245.139.526.207.844.207.317 0 .598-.069.844-.207z"/></g></g></svg>