<svg version="1.1" id="_x33_34_1_" xmlns="http://www.w3.org/2000/svg" x="0" y="0" viewBox="0 0 302.794 522.868" xml:space="preserve"><style>.st0,.st1{fill-rule:evenodd;clip-rule:evenodd}.st0{fill:#fff}.st1{stroke:#999;stroke-width:.4}.st1,.st2,.st4{fill:none;stroke-linecap:round;stroke-linejoin:round;stroke-miterlimit:3}.st2{fill-rule:evenodd;clip-rule:evenodd;stroke:#999}.st4{stroke:#000}.st4,.st5,.st6{fill-rule:evenodd;clip-rule:evenodd}.st6{fill:none;stroke:#666;stroke-width:.6;stroke-miterlimit:22.9256}</style><path class="st0" d="M261.513 515.576h40.831V5.139H261.7V.469H16.388v521.93h245.125z"/><g id="mebel_2_"><path class="st1" d="M86.407 284.873l4.569-4.569m-11.515 4.569l11.515-11.516m-18.463 11.516l18.463-18.463m-25.41 18.463l25.41-25.41m-32.356 25.41l32.356-32.357M56.968 279.578l34.007-34.008M56.968 272.631l34.007-34.007m-34.007 27.06l34.007-34.008m-35.221 28.275l35.221-35.221m-42.168 35.221l38.617-38.617m-45.57 38.622l38.622-38.622M41.854 253.01l11.101-11.101m9.329-9.329l11.247-11.247M41.854 246.063l4.818-4.818m11.781-11.781l8.131-8.131M51.955 229.015l7.682-7.682m-15.449 8.502l8.502-8.502m-10.836 3.889l3.889-3.888M90.975 222.321l-.988-.988m.988 7.935l-7.935-7.935m7.935 14.882l-14.882-14.882m14.882 21.829l-21.828-21.829m21.828 28.775L62.2 221.333m28.775 35.723l-35.723-35.723m35.723 42.669L62.94 235.967m-7.08-7.08l-7.553-7.553m42.668 49.615l-30.593-30.593m-11.063-11.063l-7.465-7.465m49.121 56.068l-35.88-35.88m-12.059-12.059l-1.181-1.181m49.12 56.067L47.46 241.328m36.599 43.545l-42.204-42.204m35.257 42.204L56.968 264.73m-4.779-4.779l-10.334-10.334m28.311 35.256l-13.198-13.197m-11.726-11.725l-3.387-3.387m21.363 28.309l-6.251-6.25m-14.589 6.25l-.032-.031m-.461-.46l-.031-.031M35.808 186.381h55.167M56.78 175.045h34.196m-55.168-11.336h55.167m-30.983-11.335h30.984m-30.984-11.337h30.984M80.962 191.86v-53.263M58.291 191.86v-34.197"/><path class="st2" d="M27.118 221.333h63.858m0 0v-26.45m0 .001H27.118m0 0v26.45M34.568 196.999l-.925.08m0 .001l-.895.239m0 0l-.841.389m0-.001l-.76.529m0 0l-.656.652m0 0l-.531.756m0 0l-.393.835m0 0l-.24.892m0 0l-.081.918m0 0v11.638m0 .001l.081.919m0 0l.24.89m0-.001l.393.836m0 .001l.531.756m0 0l.656.651m0-.001l.76.529m0 0l.841.39m0 0l.895.239m0 0l.925.08m0 .001h43.104m0 0l1.941-.169m0-.001l1.882-.501m0 0l1.765-.818m0 0l1.596-1.111m0 0l1.377-1.369m0 0l1.117-1.586m0 0l.823-1.755m0 0l.505-1.871m0 .001l.169-1.929m0-.001l-.169-1.929m0 0l-.505-1.87m0 0l-.823-1.756m0 .001l-1.117-1.586m0 0l-1.377-1.369m0-.001l-1.596-1.111m0 .001l-1.765-.819m0-.001l-1.882-.501m0 0l-1.941-.168m0 0H34.568M37.13 208.108a.945.945 0 11-1.89 0 .945.945 0 011.89 0zM60.558 123.656h29.851m0 0l.401.166m0 0l.166.4m0 0v13.809m0 0l-.166.4m0 0l-.401.166m0 0H60.558m0 0l-.4-.166m0 0l-.166-.4m0 0v-13.809m0 0l.166-.4m0 0l.4-.166M61.692 127.812h13.339m.905 0h13.34M89.842 128.379v8.518M89.276 137.464H61.692M61.125 136.897v-8.518M89.276 127.812c.312 0 .566.254.566.567M89.842 136.897a.567.567 0 01-.566.567M61.692 137.464a.566.566 0 01-.566-.567M61.125 128.379c0-.313.253-.567.566-.567M76.24 130.754c0 .247-.12.467-.304.605v-1.211a.757.757 0 01.304.606zm-1.209.604a.753.753 0 010-1.209v1.209zM75.937 124.185h-.906m0 0v7.749m0 0l.255.3m0 0h.395m0 0l.256-.3m0 0v-7.749M74.728 124.185h1.512m0 0v-.264m0 0h-1.512m0 0v.264M74.35 123.921h2.268m0 0v-.265m0 0H74.35m0 0v.265M72.215 125.545v-1.625m0 0h.095m0 0v-.132m0 0h.283m0 0v-.132m0 0h-1.89m0 0v.132m0 0h.283m0 0v.132m0 0h.095m0 0v1.625m0 0h.322m0 0v.416m0 0h-1.078m0 0v.491m0 0h2.646m0 0v-.491m0 0h-1.077m0 0v-.416m0 0h.321M78.752 125.545v-1.625m0 0h-.095m0 0v-.132m0 0h-.283m0 0v-.132m0 0h1.89m0 0v.132m0 0h-.284m0 0v.132m0 0h-.094m0 0v1.625m0 0h-.322m0 0v.416m0 0h1.077m0 0v.491m0 0h-2.645m0 0v-.491m0 0h1.077m0 0v-.416m0 0h-.321M71.403 125.961l.072.072M71.894 125.961l-.072.072M71.403 125.545h.491M71.082 123.921h1.133M72.31 123.788h-1.323M79.565 125.961l-.072.072M79.074 125.961l.07.072M79.565 125.545h-.491M79.886 123.921h-1.134M78.657 123.788h1.322M71.894 126.206a.246.246 0 11-.492 0 .246.246 0 01.492 0zM79.565 126.206a.246.246 0 11-.492 0 .246.246 0 01.492 0zM56.845 241.811l1.646-.469m0 0l1.551-.718m0 0l1.23-.968m0 0l.943-1.249m0 0l.594-1.447m0 0l.205-1.551m0 0l-.205-1.551m0 0l-.594-1.447m0 0l-.943-1.249m0 0l-1.23-.967m0 0l-1.551-.719m0 0l-1.646-.469m0 0l-1.697-.207m0 0l-1.709.059m0 0l-11.585 1.223m0 0v10.654m0 0l11.585 1.223m0 0l1.709.06m0 0l1.697-.208M47.575 231.292v4.117M47.575 235.409v4.116M61.842 232.346c.57.889.881 1.961.887 3.063M55.012 229.097c2.592-.166 5.107 1.031 6.83 3.248M47.575 231.292c2.254-1.505 4.828-2.266 7.437-2.195M55.012 241.721c-2.609.07-5.184-.689-7.437-2.195M61.842 238.472c-1.723 2.217-4.238 3.413-6.83 3.248M62.729 235.409a5.74 5.74 0 01-.887 3.063M41.854 230.761h.188v9.295h-.188zM41.854 230.761v9.295m0 0h.188m0 0v-9.295m0 0h-.188M41.854 244.855v-18.893M37.32 244.855v-18.893M41.854 244.855H37.32M41.854 225.963H37.32M50.611 181.447l1.645-.469m0 0l1.551-.718m0 0l1.231-.967m0 0l.942-1.249m0 0l.594-1.448m0 0l.206-1.551m0 0l-.206-1.551m0 0l-.594-1.447m0 0l-.942-1.249m0 0l-1.231-.967m0 0l-1.551-.719m0 0l-1.645-.469m0 0l-1.698-.207m0 0l-1.709.059m0 0l-11.584 1.223m0 0v10.654m0 0l11.584 1.223m0 0l1.709.06m0 0l1.698-.208M41.34 170.929v4.116M41.34 175.045v4.117M55.608 171.982c.57.889.88 1.961.886 3.063M48.778 168.734c2.591-.166 5.106 1.031 6.83 3.248M41.34 170.929c2.253-1.506 4.828-2.266 7.437-2.195M48.778 181.357c-2.609.07-5.185-.69-7.437-2.195M55.608 178.109c-1.724 2.217-4.239 3.413-6.83 3.249M56.494 175.045a5.742 5.742 0 01-.886 3.063M35.62 170.397h.188v9.296h-.188zM35.62 170.398v9.295m0 0h.188m-.001 0v-9.295m0 0h-.187M35.62 184.492v-18.894M31.084 184.492v-18.894M35.62 184.492h-4.536M35.62 165.599h-4.536M27.118 123.656v34.008M27.118 157.664H59.99M59.99 157.664l.002-34.008M34.674 130.268a.945.945 0 11-1.89 0 .945.945 0 011.89 0zM42.729 136.64l-1.396.372m0-.001l-1.209.793m0 .001l-.898 1.132m0-.001l-.496 1.358m0 .001l-.043 1.445m0 0l.413 1.385m0 0l.828 1.184m0 0l1.159.864m0 0l1.372.455m0 0h1.447m0 0l1.372-.455m0 0l1.158-.864m0 0l.829-1.184m0 0l.413-1.385m0 0l-.043-1.445m0 0l-.496-1.358m0-.001l-.897-1.132m0 .001l-1.209-.793m0-.001l-1.397-.372m0 .001v-5.538m0-.001l.455.108m0 0l.49.037m0 .001l.489-.037m0-.001l.456-.108m0 0l.391-.172m0 0l.3-.225m0 .001l.189-.261m0 0l.064-.281m0 0v-.402m0-.001l-.019-.12m0 0l-.064-.278m0 0l-.054-.103m0 .001l-.182-.251m0 0l-.078-.071m0-.001l-.274-.204m0 0l-.357-.157m0 .001l-.195-.052m0-.001l-.25-.059m0 .001l-.02-.688m0 0l-.009-.796m0 0h1.729m0 0v-.435m0-.001h2.872m0 0l.159-.058m0 .001l.083-.149m0 0l-.033-.167m0 0l-.133-.105m0-.001l-.486-.158m0 .001l-.726-.315m0 0l-1.007-.573m0-.001l-.729-.259m0 .001v-.124m0-.001h.604m0 0v-.982m0 .001h-2.569m0 0v.877m0 0l-.063.038m0 0l-.032.034m0 0l-.025.04m0 0l-.279.673m0 0h-.697m0 0v-1.36m0-.001h1.058m0 0v-.302m0 .001h-3.023m0 0v.302m0-.001h1.058m0 0v1.36m0 .001h-1.436m0 0v.151m0 0h-.416m0 0v-.302m0-.001h.152m0 0v-.529m0 0h.604m0 0v-.982m0 .001h-2.569m0 0v.982m0-.001h.604m0 0v.529m0 0h.152m0 0v.302m0 .001h-.152m0 0v1.512m0 0h2.57m0 0v2.153m0 0h.083m0 0h.093m0 0h.124m0 0h.149m0 0h.042m0 0v7.505M45.072 125.319h-.209m0 0l.14-.341m-.001 0l.326-.053m.001 0l.008.001m0 0v.242m0 0h.151m0 0v.302m0 0h-.416m0 0v-.151M46.545 125.47v-.24m0-.001l.677.239m0 .001l.987.563m0 0l.054.024m0 0h-1.567m0 0v-.586m0 0h-.151M40.689 124.638v.529M40.008 124.638v.529M46.346 124.638h.351M45.488 125.168h.188M45.676 125.168h.681M46.357 125.168h.014M45.676 124.992v.176M46.357 125.163v.004M46.545 125.47h-1.058M44.194 126.981h-.558M46.697 126.056v.49M44.127 127.548h-.491M49.493 126.535l.076.012M45.343 124.43l-.047.002M45.513 124.463l-.17-.033M44.798 124.515l-.047.01M44.751 124.525l-.02.009M46.697 124.763l-.453-.16M46.244 124.602l-.73-.139M45.387 124.936l-.059-.012M49.493 126.535l-.512-.167M48.981 126.368l-.718-.312M46.286 124.619h-.001M45.296 124.432l-.498.083M43.638 129.036l-.002-.002M43.636 128.506l.002-.002M45.072 125.866v-.128M45.072 125.621v-.103M45.072 125.738v-.117M44.863 125.319h-.524M46.11 125.075l-.723-.14M46.545 125.229l-.436-.154M44.392 125.952h-.001M44.483 125.908l-.091.044M44.58 125.893l-.098.015M44.678 125.908l-.098-.015M44.77 125.952l-.092-.044M44.77 125.952h.108a.108.108 0 00-.108-.108c-.059 0-.108.049-.108.108s.049.108.108.108c.06 0 .108-.049.108-.108h-.108zM44.925 128.448l-.345-.026M44.58 128.422l-.345.026M44.997 128.465l-.072-.017M43.915 128.525l-.195.051M44.236 128.448l-.321.077M44.949 126.119l.01.062M43.719 128.576l-.083.037M44.164 128.465l.02-.688M44.203 126.182l.009-.062M44.211 126.119l.027-.058M44.239 126.061l.042-.05M44.281 126.012l.055-.038M44.335 125.974l.056-.021M44.392 125.952l.007-.002M44.399 125.949l.068-.007M44.467 125.941h.227M44.694 125.941l.068.008M44.762 125.949l.008.003M44.77 125.953l.057.021M44.826 125.974l.055.038M44.881 126.012l.042.05M44.923 126.061l.026.058M44.184 127.777l.019-1.596M44.968 126.981l-.01-.8M45.072 126.679h-.107M44.197 126.679h-.561M42.729 136.64v5.343M43.636 136.64v5.343M42.729 141.982h.907M39.668 124.638h1.36M39.82 125.168h1.058M39.82 125.47h1.058M41.293 125.47v1.209M45.072 126.679v-1.209M42.729 123.958h.907M42.729 125.319v3.816M43.636 131.101v-5.782M41.293 126.679h1.436M42.238 126.981h.491M42.238 127.548h.491M44.127 126.981v1.493M43.636 139.317a1.889 1.889 0 11-.907 0M41.293 126.596a.34.34 0 110-.589M41.854 260.517v23.789m0 0l.166.401m0 .001l.4.166m0-.001h13.982m0 0l.4-.166m0 .001l.166-.401m0-.001v-23.789m0 0l-.166-.401m0 0l-.4-.166m0 .001H42.42m0 0l-.4.166m0-.001l-.166.401M46.01 261.651v10.308m0 .906v10.308M46.577 283.74h8.691M55.834 283.173v-21.522M55.268 261.084h-8.691M46.577 283.74a.567.567 0 01-.566-.567M55.834 283.173a.567.567 0 01-.566.567M55.268 261.084c.312 0 .566.254.566.567M46.01 261.651c0-.313.254-.567.566-.567M49.604 272.865a.754.754 0 01-1.21 0h1.21zm-1.211-.906a.755.755 0 011.21 0h-1.21zM42.383 272.865v-.906m0 0h7.748m0 0l.301.256m0 0v.394m0 0l-.301.256m0 0h-7.748M42.383 271.656v1.512m0 0h-.265m0 0v-1.512m0 0h.265M42.119 271.278v2.268m0 0h-.265m-.001 0v-2.268m0 0h.265M43.744 269.143h-1.625m0 0v.095m0 .001h-.133m0 0v.283m0-.001h-.132m-.001 0v-1.889m0 0h.132m.001 0v.283m0 0h.133m0 0v.094m0 0h1.625m0 0v.322m0 0h.415m0 0v-1.077m0 0h.491m0 0v2.645m0 0h-.491m0 0v-1.077m0 0h-.415m0 0v.321M43.744 275.681h-1.625m0 0v-.095m0 0h-.133m0 0v-.283m0-.001h-.132m-.001 0v1.889m0 0h.132m.001 0v-.283m0 .001h.133m0 0v-.094m0-.001h1.625m0 0v-.322m0 0h.415m0 0v1.077m0 .001h.491m0 0v-2.645m0 0h-.491m0 0v1.077m0-.001h-.415m0 0v-.321M44.159 268.331l.072.072M44.159 268.822l.072-.072M43.744 268.331v.491M42.119 268.01v1.134M41.986 269.238v-1.323M44.159 276.493l.072-.072M44.159 276.002l.072.072M43.744 276.493v-.491M42.119 276.814v-1.134M41.986 275.586v1.323M44.65 268.576a.245.245 0 11-.491 0c0-.135.11-.246.246-.246a.246.246 0 01.245.246zM44.65 276.248a.246.246 0 11-.245-.246.244.244 0 01.245.246zM27.118 387.231h23.807m0 0v22.672m0 0H49.79m0 0v78.768m0 0h23.809m-.001 0v22.672m0 0H41.853m0 0v-22.672m0 0H27.118m0 0v-101.44M225.125 251.201v-1.7m0 0h-48.82m0 0v1.7m0 0h48.82M225.125 217.193h-24.41m0 0v23.806m0 0h24.41m0 0v-23.806M200.715 217.193h-24.41m0 0v23.806m0 0h24.41m0 0v-23.806M176.305 217.193h-9.598m0 0v34.008m0 0h9.598m0 0V249.5m0-8.502v-23.805M234.722 217.193h-9.597m0 0v23.805m0 8.502v1.701m0 0h9.597m0 0v-34.008M200.715 249.5v-8.502m0 0h-29.209m0 0v8.502m0 0h29.209M200.715 249.5v-8.502m0 0h29.208m0 0v8.502m0 0h-29.208M149.696 256.491v1.889m0 0h73.381m0 0v-1.889m0 0h-73.381M149.696 294.277h36.69m0 0v-26.45m0 0h-36.69m0 0v26.45M186.386 294.277h36.69m0 0v-26.45m0 0h-36.69m0 0v26.45M223.077 294.277h9.598m-.001 0v-37.786m0 0h-9.598m.001 0v1.89m0 9.445v26.45M140.098 294.277h9.598m0 0v-26.45m0-9.447v-1.89m0 .001h-9.598m0 0v37.786M186.386 258.38v9.447m0 0h41.489m0 0v-9.447m0 0h-41.489M186.386 258.38v9.447m0 0h-41.489m0 0v-9.447m0 0h41.489M52.627 406.124l19.271-.002m0 0l.535-.222m0 .001l.22-.534m0-.001l-.002-17.382m0 0l-.221-.534m0 0l-.533-.221m0 .001l-19.272.002m0 0l-.534.221m0-.001l-.222.534m0 0l.002 17.382m0 0l.222.535m0 0l.534.221M50.927 409.903l22.672-.002M50.924 387.231l22.672-.002M50.927 409.903l-.003-22.672M73.599 409.901l-.003-22.672M54.516 404.235l15.492-.001M70.764 403.477l-.001-11.714M70.007 391.008l-7.003.001m-1.488 0l-7.001.001M53.759 391.765l.001 11.714M54.516 404.235h.108a.108.108 0 10-.216 0 .108.108 0 00.216 0h-.108zM70.764 403.477a.756.756 0 01-.756.756M70.007 391.008c.418 0 .756.338.756.756M53.759 391.765c0-.417.339-.755.756-.755M54.516 404.235a.756.756 0 01-.756-.755M61.921 395.841l.101.24m0 0l.24.099m0 0l.24-.1m0 0l.1-.24m0 0l-.001-7.477m0 0l-.1-.24m0 0l-.24-.099m0 0l-.241.099m0 0l-.099.24m0 0v7.478M61.506 390.291h.415m0 0v-1.927m0 0l.099-.241m0 0l.241-.099m0 0l.24.099m0 0l.1.241m0 0v1.927m0 0h.415m0 0l-.001-2.456m0 0h-1.509m0 0v2.456M61.517 391.651h.404m0 0v-1.323m0 0h-.404m0 0v1.323M63.005 391.651v-1.323m0 0h-.404m0 0v1.323m0 0h.404M47.71 472.24v-21.916m0 0H29.195m0 0v21.916m0 0H47.71M36.431 461.282h-5.299M31.132 461.282v-1.096M36.431 461.282v-1.096M36.431 452.428h-5.299M31.132 453.524v-1.097M36.431 453.524v-1.097M36.305 467.528a2.74 2.74 0 11-5.48-.002 2.74 2.74 0 015.48.002zM45.772 466.257a3.968 3.968 0 11-7.936 0 3.968 3.968 0 017.936 0z"/><path class="st2" d="M44.072 466.257a2.267 2.267 0 11-4.534.002 2.267 2.267 0 014.534-.002zM36.395 456.855a2.645 2.645 0 11-5.29 0 2.645 2.645 0 015.29 0zM45.741 455.737a3.4 3.4 0 11-6.801 0 3.4 3.4 0 016.801 0zM49.789 481.404V441.16M27.118 481.404V441.16M49.789 481.404H27.117M49.789 441.16H27.117M73.599 409.901l22.672-.002m0 0l-.003-22.672m0 0l-22.672.002m0 0l.003 22.672M84.933 394.785l.001 7.557M82.261 395.892l5.345 5.343M81.155 398.564l7.558-.001M82.262 401.236l5.344-5.344M49.789 418.488v22.672M27.118 418.488v22.672M49.789 418.488H27.117M49.789 441.16H27.117M44.688 426.667a3.412 3.412 0 11-6.824 0 3.412 3.412 0 016.824 0z"/><path class="st2" d="M44.166 426.667a2.891 2.891 0 11-5.782 0 2.891 2.891 0 015.782 0zM44.688 432.975a2.58 2.58 0 11-5.16 0 2.58 2.58 0 015.16 0z"/><path class="st2" d="M43.553 432.975a1.444 1.444 0 11-2.889.001 1.444 1.444 0 012.889-.001zM92.115 500.008a7.18 7.18 0 11-14.36-.001 7.18 7.18 0 0114.36.001zM131.974 19.768a3.778 3.778 0 11-7.557.001 3.778 3.778 0 017.557-.001z"/><path class="st2" d="M129.33 19.768a1.134 1.134 0 11-2.269 0 1.134 1.134 0 012.269 0zM220.772 19.768a3.778 3.778 0 11-7.557.001 3.778 3.778 0 017.557-.001z"/><path class="st2" d="M218.127 19.768a1.134 1.134 0 11-2.269 0 1.134 1.134 0 012.269 0zM149.166 378.163v-15.115m0-.001h80.266m0 0v15.115m0 .001h-80.266M214.356 373.282v1.02m0 0h-44.369m0 0v-1.02m0 0h44.369M204.895 374.302v.832m0 0l-.152.567m0-.001l-.415.414m0 .001l-.567.153m0 0h-22.699m0 0l-.567-.153m0 0l-.414-.414m0-.001l-.153-.567m0 .001v-.832m0 0h24.967M214.356 372.984v.297m0 0h-44.369m0 0v-.297m0 0h44.369M27.118 358.179v19.984m0 0h69.148m0 0v-19.984m0 0H27.118M96.266 368.739v-.756m0 0H27.118m0 0v.756m0 0h69.148M33.703 359.017v18.626m0 0h.756m0 0v-18.626m0 0h-.756M35.708 359.017v18.626m0 0h.756m0 0v-18.626m0 0h-.756M37.713 359.017v18.626m0 0h.756m0 0v-18.626m0 0h-.756M39.718 359.017v18.626m0 0h.755m0 0v-18.626m0 0h-.755M43.963 359.153l-2.241 18.491m0 0l.75.091m0 0l2.241-18.491m0 0l-.75-.091M27.118 287.896v22.672m0 0h66.881m-.001 0v-22.672m0 0h-66.88M93.998 299.61v-.756m0 0H27.117m0 0v.756m0 0h66.881M33.703 289.89v18.626m0-.001h.756m0 0V289.89m0 0h-.756M35.708 289.89v18.626m0-.001h.756m0 0V289.89m0 0h-.756M37.713 289.89v18.626m0-.001h.756m0 0V289.89m0 0h-.756M39.718 289.89v18.626m0-.001h.755m0 0V289.89m0 0h-.755M43.963 290.025l-2.241 18.491m0 0l.75.091m0 0l2.241-18.491m0 0l-.75-.091M143.121 134.63v22.672m0 0h95.41m0 0V134.63m0 0h-95.41M238.532 146.344v-.756m0 0h-95.41m-.001 0v.756m0 0h95.41M149.707 136.623v18.626m0 0h.756m0 0v-18.626m0 0h-.756M151.712 136.623v18.626m0 0h.756m0 0v-18.626m0 0h-.756M153.717 136.623v18.626m0 0h.756m0 0v-18.626m0 0h-.756M155.721 136.623v18.626m0 0h.756m0 0v-18.626m0 0h-.756M159.967 136.758l-2.241 18.491m0 0l.75.091m0 0l2.241-18.491m0 0l-.75-.091M206.602 90.782h-68.016m0 0V15.209m0 0h68.016m0 0v75.573M204.713 92.671h-64.237m0 0l-.723-.144m0 0l-.613-.409m0 0l-.409-.614m0 0l-.145-.722m0 0h68.016m0 0l-.144.722m0 0l-.409.614m0 0l-.613.409m0 0l-.723.144M206.602 11.431h-68.016m0 0v3.779m0 0h68.016m0 0v-3.779M138.586 11.431h68.016m0 0v1.89m0 0h-68.016m0 0v-1.89M136.698 11.431h-17.004m0 0v18.893m0 0h17.004m0 0V11.431M208.492 11.431h17.004m-.001 0v18.893m0 0h-17.004m.001 0V11.431M166.548 17.099h-25.694m0 0l-.268.111m0 0l-.11.267m0-.001v12.47m0 .001l.11.267m0 0l.268.11m0 0h25.694m0 0l.268-.11m0 0l.11-.267m0 0v-12.47m0-.001l-.11-.267m0 .001l-.268-.111M178.64 17.099h25.694m0 0l.268.111m0 0l.111.267m0-.001v12.47m0 .001l-.111.267m0 0l-.268.11m0 0H178.64m0 0l-.267-.11m0 0l-.111-.267m0 0v-12.47m0-.001l.111-.267m0 .001l.267-.111M206.602 29.3h-1.889M178.262 29.3h-11.336M140.476 29.3h-1.89M206.602 34.31h-68.016m0 0v18.686m0 0l68.016-14.908m0 0V34.31M38.831 30.135h-.756m0 0v90.498m0 0h.756m0 0V30.135M29.11 111.779h18.626m0 0v-.756m0 0H29.11m0 0v.756M29.11 109.775h18.626m0 0v-.756m0 0H29.11m0 0v.756M29.11 107.77h18.626m0 0v-.756m0 0H29.11m0 0v.756M29.11 105.765h18.626m0 0v-.756m0 0H29.11m0 0v.756M29.246 101.519l18.49 2.241m-.001 0l.091-.75m0 0l-18.49-2.241m.001 0l-.091.75M119.694 23.145v-.756m0 0H43.745m0 0v.756m0 0h75.949M50.331 13.424V32.05m0 0h.755m0 0V13.424m0 0h-.755M52.336 13.424V32.05m0 0h.755m0 0V13.424m0 0h-.755M54.34 13.424V32.05m0 0h.756m0 0V13.424m0 0h-.756M56.345 13.424V32.05m0 0h.756m0 0V13.424m0 0h-.756M60.591 13.559L58.35 32.05m0 0l.75.091m0 0l2.241-18.491m0 0l-.75-.091M43.483 422.599v.963m0-.001h1.205m0 0v12.524m0 .001h-1.205m0 0v.964M33.957 424.062l.103.047m.103.047l.103.048m.103.046l.104.048m.102.048l.104.047m.102.046l.104.047m.102.048l.104.047m.102.046l.104.048m.103.048l.103.047m.103.046l.103.048m.103.047l.104.047m.103.047l.102.047m.104.047l.103.047m.103.047l.103.048m.103.047l.103.047m.104.047l.102.047m.103.047l.103.048m.104.048l.103.047M33.957 433.696l.103-.047m.103-.048l.103-.047m.103-.047l.104-.047m.102-.047l.104-.047m.102-.047l.104-.047m.102-.048l.104-.047m.102-.047l.104-.047m.103-.047l.103-.048m.103-.047l.103-.047m.103-.047l.104-.047m.103-.047l.102-.047m.104-.048l.103-.046m.103-.048l.103-.047m.103-.047l.103-.047m.104-.047l.102-.048m.103-.047l.103-.047m.104-.047l.103-.047M33.957 424.062v.078m0 .113v.113m0 .114v.113m0 .115v.078m0-.001l.051.042m.088.071l.089.071m.087.072l.088.071m.088.072l.088.071m.088.072l.088.071m.089.071l.088.072m.088.071l.087.072m.088.072l.088.072m.088.07l.088.071m.089.073l.088.071m.088.071l.088.071m.087.073l.088.071m.088.071l.088.071m.089.073l.088.071m.088.07l.088.072m.088.071l.087.072m.088.071l.088.072m.088.071l.089.071m.088.072l.088.071m.088.072l.088.071m.087.072l.088.071m.088.072l.089.071m.088.072l.051.041M33.957 433.696v-.078m0-.113v-.114m0-.113v-.113m0-.114v-.078m0 0l.051-.042m.088-.071l.089-.071m.087-.072l.088-.071m.088-.072l.088-.071m.088-.072l.088-.071m.089-.071l.088-.072m.088-.071l.087-.072m.088-.071l.088-.072m.088-.071l.088-.072m.089-.071l.088-.072m.088-.071l.088-.071m.087-.072l.088-.071m.088-.072l.088-.071m.089-.072l.088-.071m.088-.071l.088-.072m.088-.071l.087-.072m.088-.071l.088-.072m.088-.072l.089-.071m.088-.071l.088-.072m.088-.071l.088-.071m.087-.072l.088-.072m.088-.071l.089-.071m.088-.072l.051-.042M33.479 433.696v-9.634m0 0h.479m0 0v.723m0 0h-.238m0 0v8.188m0 0h.238m0 0v.723m0 0h-.479M90.943 499.491l-1.233.449m0 0h-1.313m0 0l-1.232-.449m0 0l-1.474.343m0 0h-1.512m0 0l-1.473-.343m0 0l-1.235.45m0 0h-1.314m0 0l-1.235-.45m0 0l2.233 2.988m0 0h7.557m0 0l2.231-2.988M88.711 502.74h-7.557m0 0v-.261m0 0h7.557m0 0v.261M88.711 503.264h-7.557m0 0v-.262m0 0h7.557m0 0v.262M84.091 497.976l.892-.085m0 0l.021.226m0 0l-.477.046m0 0l1.383 1.141m0 0l-.126.153m0 0l-.641-.53m0 0l-.068.081m0 0l.74.611m0 0l-.121.146m0 .001l-.74-.61m0 0l-.08.097m0-.001l.602.496m0 .001l-.108.13m0-.001l-.601-.496m0 0l-.081.098m0 0l.415.342m0 .001l-.116.139m0-.001l-1.422-1.173M96.271 488.672H73.599m0 0v22.672m0 0h22.672m0 0v-22.672M124.516 20.628l3.68-.86m0 0l1.584-3.431m0 0l-1.584 3.431m0 0l1.305 3.546M220.672 20.628l-3.679-.86m0 0l-1.584-3.431m0 0l1.584 3.431m0 0l-1.306 3.546M200.002 414.437h3.028m0 0v-.859m0 0v-17.175m0 0v-.859m0 0h-3.028M206.457 395.544h-3.427m0 0v.859m0 0h3.224m0 0v-.058m0 0l-.196-.294m0 0l.087-.342m0 0l.312-.165M208.816 396.345l-.197-.294m0 0l.087-.342m0 0l.313-.165m0 0h-2.562m0 0l-.312.165m0 0l-.087.342m0 0l.196.294m0 0v17.291m0 0l-.196.293m0 0l.087.343m0 0l.312.165m0 0h2.562m0 0l-.313-.165m0 0l-.087-.343m0 0l.197-.293m0 0v-17.291M206.457 414.437l-.312-.165m0 0l-.087-.343m0 0l.196-.293m0 0v-.058m0 0h-3.224m0 0v.859m0 0h3.427M209.222 412.773l.227-1.004v-13.557l-.227-1.005zM209.222 397.207v15.565m0 0l.227-1.004m0 0v-13.556m0 0l-.227-1.005M209.222 396.345l.196-.294m0 0l-.087-.342m0 0l-.312-.165m0 0l-.313.165m0 0l-.087.342m0 0l.197.294m0 0v17.291m0 0l-.197.293m0 0l.087.343m0 0l.313.165m0 0l.312-.165m0 0l.087-.343m0 0l-.196-.293m0 0v-17.291M200.002 436.353h3.028m0 0v-.859m0 0v-17.175m0 0v-.859m0 0h-3.028M206.457 417.46h-3.427m0 0v.859m0 0h3.224m0 0v-.058m0 0l-.196-.293m0 0l.087-.343m0 0l.312-.165M208.816 418.262l-.197-.293m0-.001l.087-.343m0 0l.313-.165m0 0h-2.562m0 0l-.312.165m0 0l-.087.343m0 0l.196.293m0 .001v17.291m0 0l-.196.293m0-.001l.087.343m0 0l.312.165m0 0h2.562m0 0l-.313-.165m0 0l-.087-.343m0 0l.197-.293m0 .001v-17.291M206.457 436.353l-.312-.165m0 0l-.087-.342m0 0l.196-.294m0 0v-.058m0 0h-3.224m0 0v.859m0 0h3.427M209.222 434.69l.227-1.005v-13.556l-.227-1.004zM209.222 419.124v15.565m0 0l.227-1.004m0 0v-13.557m0 0l-.227-1.004M209.222 418.262l.196-.293m0-.001l-.087-.343m0 0l-.312-.165m0 0l-.313.165m0 0l-.087.343m0 0l.197.293m0 .001v17.291m0 0l-.197.293m0-.001l.087.343m0 0l.313.165m0 0l.312-.165m0 0l.087-.343m0 0l-.196-.293m0 .001v-17.291M165.994 414.437h-3.028m-.001 0v-.859m0 0v-17.175m0 0v-.859m0 0h3.028M159.539 395.544h3.427m0 0v.859m0 0h-3.224m0 0v-.058m0 0l.196-.294m0 0l-.087-.342m0 0l-.312-.165M157.18 396.345l.197-.294m0 0l-.087-.342m0 0l-.313-.165m-.001 0h2.562m.001 0l.313.165m0 0l.087.342m0 0l-.197.294m0 0v17.291m0 0l.197.293m0 0l-.087.343m0 0l-.313.165m0 0h-2.562m-.001 0l.313-.165m.001 0l.087-.343m0 0l-.197-.293m0 0v-17.291M159.539 414.437l.312-.165m0 0l.087-.343m0 0l-.196-.293m0 0v-.058m0 0h3.224m0 0v.859m0 0h-3.427M156.548 398.212v13.557l.227 1.004v-15.565zM156.774 397.207v15.565m0 0l-.227-1.004m0 0v-13.556m0 0l.227-1.005M156.774 396.345l-.196-.294m0 0l.086-.342m0 0l.313-.165m0 0l.312.165m0 0l.087.342m0 0l-.197.294m0 0v17.291m0 0l.197.293m0 0l-.087.343m0 0l-.312.165m0 0l-.313-.165m0 0l-.086-.343m0 0l.196-.293m0 0v-17.291M165.994 436.353h-3.028m-.001 0v-.859m0 0v-17.175m0 0v-.859m0 0h3.028M159.539 417.46h3.427m0 0v.859m0 0h-3.224m0 0v-.058m0 0l.196-.293m0 0l-.087-.343m0 0l-.312-.165M157.18 418.262l.197-.293m0-.001l-.087-.343m0 0l-.313-.165m-.001 0h2.562m.001 0l.313.165m0 0l.087.343m0 0l-.197.293m0 .001v17.291m0 0l.197.293m0-.001l-.087.343m0 0l-.313.165m0 0h-2.562m-.001 0l.313-.165m.001 0l.087-.343m0 0l-.197-.293m0 .001v-17.291M159.539 436.353l.312-.165m0 0l.087-.342m0 0l-.196-.294m0 0v-.058m0 0h3.224m0 0v.859m0 0h-3.427M156.548 420.128v13.557l.227 1.004v-15.564zM156.774 419.124v15.565m0 0l-.227-1.004m0 0v-13.557m0 0l.227-1.004M156.774 418.262l-.196-.293m0-.001l.086-.343m0 0l.313-.165m0 0l.312.165m0 0l.087.343m0 0l-.197.293m0 .001v17.291m0 0l.197.293m0-.001l-.087.343m0 0l-.312.165m0 0l-.313-.165m0 0l-.086-.343m0 0l.196-.293m0 .001v-17.291M200.002 439.377h3.028m0 0v.859m0 0v17.175m0 0v.859m0 0h-3.028M206.457 458.27h-3.427m0 0v-.859m0 0h3.224m0 0v.058m0 0l-.196.293m0 0l.087.343m0 0l.312.165M208.816 457.468l-.197.293m0 0l.087.343m0 0l.313.165m0 0h-2.562m0 0l-.312-.165m0 0l-.087-.343m0 0l.196-.293m0 0v-17.291m0 0l-.196-.293m0 .001l.087-.343m0 0l.312-.165m0 0h2.562m0 0l-.313.165m0 0l-.087.343m0 0l.197.293m0-.001v17.291M206.457 439.377l-.312.165m0 0l-.087.342m0 0l.196.294m0 0v.058m0 0h-3.224m0 0v-.859m0 0h3.427M209.222 456.606l.227-1.003v-13.558l-.227-1.005zM209.222 456.606v-15.565m0 0l.227 1.004m0 0v13.557m0 0l-.227 1.004M209.222 457.468l.196.293m0 0l-.087.343m0 0l-.312.165m0 0l-.313-.165m0 0l-.087-.343m0 0l.197-.293m0 0v-17.291m0 0l-.197-.293m0 .001l.087-.343m0 0l.313-.165m0 0l.312.165m0 0l.087.343m0 0l-.196.293m0-.001v17.291M165.994 439.377h-3.028m-.001 0v.859m0 0v17.175m0 0v.859m0 0h3.028M159.539 458.27h3.427m0 0v-.859m0 0h-3.224m0 0v.058m0 0l.196.293m0 0l-.087.343m0 0l-.312.165M157.18 457.468l.197.293m0 0l-.087.343m0 0l-.313.165m-.001 0h2.562m.001 0l.313-.165m0 0l.087-.343m0 0l-.197-.293m0 0v-17.291m0 0l.197-.293m0 .001l-.087-.343m0 0l-.313-.165m0 0h-2.562m-.001 0l.313.165m.001 0l.087.343m0 0l-.197.293m0-.001v17.291M159.539 439.377l.312.165m0 0l.087.342m0 0l-.196.294m0 0v.058m0 0h3.224m0 0v-.859m0 0h-3.427M156.548 442.045v13.557l.227 1.004V441.04zM156.774 456.606v-15.565m0 0l-.227 1.004m0 0v13.557m0 0l.227 1.004M156.774 457.468l-.196.293m0 0l.086.343m0 0l.313.165m0 0l.312-.165m0 0l.087-.343m0 0l-.197-.293m0 0v-17.291m0 0l.197-.293m0 .001l-.087-.343m0 0l-.312-.165m0 0l-.313.165m0 0l-.086.343m0 0l.196.293m0-.001v17.291M165.995 466.582h34.007m-.001 0v-79.351m0 0h-34.007m.001 0v79.351"/></g><g id="walls"><path d="M261.485 522.368H237.68v-24.27h23.805v24.27h0zm-235.219 0H16.063v-165.18h1.512v-.454h8.691v165.634h0zM26.266.5v317.691h-8.691v-.453h-1.512V.5h10.203zM237.68.538V.5h23.805v28.953H237.68V.538h0zm0 134.158h-41.309v-10.959h41.309v-11.154h23.805v54.404H237.68v-32.291h0zm-41.308 243.532h41.308v-16.642h23.805v53.381H237.68v-27.67h-41.308v-9.069h0zm65.113-99.772H237.68v-45.343h23.805v45.343z" fill-rule="evenodd" clip-rule="evenodd" stroke="#000" stroke-linecap="round" stroke-linejoin="round" stroke-miterlimit="3"/><path class="st0" d="M97.304 522.368H26.266v-10.959H37.94v-19.671H26.227v-3.023h14.736v22.694H237.68v10.959H97.304zm-7.181-330.442l.001-21.463h1.512v-.453h1.511v16.626h7.559v1.511h-.455v1.512h-7.104v52.124h-1.511v-.453h-1.512v-46.381H26.266v-3.023h5.668v-31.174h-5.668v-3.023h8.821l-.132 34.197h55.168zm52.147 61.607h95.41v3.023h-98.433v-30.623h1.512v.453h1.511v27.147zm54.101-129.796v10.959H142.27l-.001 59.799h-1.511v.454h-1.512v-5.29h-7.104v-1.512h-.454v-1.511h7.558v-62.899h57.125zM237.68.5v10.996H42.891l.003 18.705H26.267v-3.023H39.87l-.003-15.682h-13.61V.5H237.68zM93.147 270.521v17.441h-66.88v-3.023h63.857v-15.476h1.512v-.453h1.511v1.511zm0-146.799v19.837h-1.511v-.453h-1.512v-19.384H26.267v-3.023h66.88v3.023zM37.979 251.061H26.266v3.023h11.713v30.854h3.023V221.21H26.266v3.023h11.713v26.828zm158.393 127.167v9.069h-47.25v-9.069h47.25zm-100.5 9.069H26.267v-9.069h69.606v9.069z"/><path class="st4" d="M.5 353.987c6.065 2.237 9.097 2.87 15.563 3.2"/><path class="st5" d="M.406 353.946l1.388.6 15.781-36.355v-.453h-1.512z"/><path class="st4" d="M79.061 243.603c4.235-1.58 6.55-2.042 11.064-2.273"/><path class="st5" d="M78.957 243.641l11.175 25.834 1.504-.012v-.453l-11.291-25.969z"/><path class="st4" d="M154.835 223.808c-4.871 1.817-7.372 2.315-12.565 2.58"/><path class="st5" d="M154.928 223.767l-12.658-29.272h-1.512v.454l12.783 29.418z"/><g><path class="st4" d="M79.367 168.26c4.118 1.528 6.37 1.979 10.757 2.204"/><path class="st5" d="M79.266 168.216l1.387.6 10.983-25.257v-.453h-1.513z"/><g><path class="st4" d="M129.567 202.216c1.786-4.81 2.314-7.433 2.576-12.557"/><path class="st5" d="M129.523 202.317l.601-1.387-29.418-12.783h-.455v1.512z"/></g></g><path class="st4" d="M302.294 5.278h-40.809m0 0v33.063m0 0v64.615m0 0v63.858m0 0v64.615m0 0v46.855m0 0v81.619m0 0v63.858m0 0v64.615m0 0v27.206m0 0h40.809m0 0V5.278"/><g><path class="st4" d="M253.928 278.457H237.68M261.486 278.457h-5.669M255.817 278.457h-1.889M253.928 361.586H237.68M261.486 361.586h-5.669M255.817 361.586h-1.889M261.486 361.586v-83.129M237.68 361.586v-83.129M253.928 361.586v-3.777M253.928 357.808h1.889M255.817 357.808v3.778M255.817 321.911v1.889M255.817 323.8h-1.889M253.928 323.8v-1.889M254.872 357.808V323.8M253.928 357.808V323.8M255.817 323.8v34.008M253.928 321.911v-.945M253.928 320.966h.944M254.872 320.966v-.944M254.872 320.022h.944M255.817 320.022v1.889M255.817 278.457v3.778M255.817 282.235h-.944M254.872 282.235v-.945M254.872 281.291h-.944M253.928 281.291v-2.833M252.984 281.291l-28.056 28.055M255.817 282.235v37.787M252.984 318.132v-34.007M252.984 320.966v-2.834M252.984 318.132h1.889M254.872 318.132v2.834M254.872 320.966h-1.889M254.872 281.291v2.834M254.872 284.125h-1.889M252.984 284.125v-2.834M252.984 281.291h1.889M254.872 284.125v34.007M252.984 318.132v-34.007M253.928 318.132v-34.007M252.984 320.966a39.679 39.679 0 01-28.056-11.621M255.817 361.586h-1.889M255.817 361.586h-1.889M261.486 361.586h-5.669M253.928 361.586H237.68M255.817 278.457h-1.889M255.817 278.457h-1.889M261.486 278.457h-5.669M253.928 278.457H237.68"/><g><path class="st4" d="M253.928 166.988H237.68M261.486 166.988h-5.669M255.817 166.988h-1.889M253.928 233.113H237.68M261.486 233.113h-5.669M255.817 233.113h-1.889M261.486 233.113v-66.126M237.68 233.113v-66.126M253.928 233.113v-3.778M253.928 229.335h1.889M255.817 229.335v3.778M255.817 195.327v1.889M255.817 197.216h-1.889M253.928 197.216v-1.889M254.872 229.335v-32.119M253.928 229.335v-32.119M255.817 197.216v32.119M253.928 195.327v-.945M253.928 194.382h.944M254.872 194.382v-.944M254.872 193.438h.944M255.817 193.438v1.889M255.817 166.988v3.778M255.817 170.766h-.944M254.872 170.766v-.945M254.872 169.821h-.944M253.928 169.821v-2.834M255.817 170.766v22.672M252.984 191.548v-18.893M252.984 194.382v-2.834M252.984 191.548h1.889M254.872 191.548v2.834M254.872 194.382h-1.889M254.872 169.821v2.834M254.872 172.655h-1.889M252.984 172.655v-2.834M252.984 169.821h1.889M254.872 172.655v18.893M252.984 191.548v-18.893M253.928 191.548v-18.893M255.817 233.113h-1.889M255.817 233.113h-1.889M261.486 233.113h-5.669M253.928 233.113H237.68M255.817 166.988h-1.889M255.817 166.988h-1.889M261.486 166.988h-5.669M253.928 166.988H237.68"/><g><path class="st4" d="M253.928 112.583H237.68M261.486 112.583h-5.669M255.817 112.583h-1.889M253.928 29.453H237.68M261.486 29.453h-5.669M255.817 29.453h-1.889M261.486 29.453v83.13M237.68 29.453v83.13M253.928 29.453v3.779M253.928 33.232h1.889M255.817 33.232v-3.779M255.817 69.129V67.24M255.817 67.24h-1.889M253.928 67.24v1.889M254.872 33.232V67.24M253.928 33.232V67.24M255.817 67.24V33.232M253.928 69.129v.944M253.928 70.073h.944M254.872 70.073v.945M254.872 71.018h.944M255.817 71.018v-1.889M255.817 112.583v-3.779M255.817 108.804h-.944M254.872 108.804v.945M254.872 109.749h-.944M253.928 109.749v2.834M255.817 108.804V71.018M252.984 72.908v34.007M252.984 70.073v2.834M252.984 72.908h1.889M254.872 72.908v-2.834M254.872 70.073h-1.889M254.872 109.749v-2.834M254.872 106.915h-1.889M252.984 106.915v2.834M252.984 109.749h1.889M254.872 106.915V72.908M252.984 72.908v34.007M253.928 72.908v34.007M255.817 29.453h-1.889M255.817 29.453h-1.889M261.486 29.453h-5.669M253.928 29.453H237.68M255.817 112.583h-1.889M255.817 112.583h-1.889M261.486 112.583h-5.669M253.928 112.583H237.68"/></g></g><g><path class="st4" d="M253.928 498.097H237.68M261.486 498.097h-5.669M255.817 498.097h-1.889M253.928 414.968H237.68M261.486 414.968h-5.669M255.817 414.968h-1.889M261.486 414.968v83.129M237.68 414.968v83.129M253.928 414.968v3.779M253.928 418.746h1.889M255.817 418.746v-3.778M255.817 454.643v-1.889M255.817 452.754h-1.889M253.928 452.754v1.889M254.872 418.746v34.009M253.928 418.746v34.009M255.817 452.754v-34.008M253.928 454.643v.945M253.928 455.588h.944M254.872 455.588v.944M254.872 456.533h.944M255.817 456.533v-1.89M255.817 498.097v-3.778M255.817 494.319h-.944M254.872 494.319v.945M254.872 495.264h-.944M253.928 495.264v2.833M255.817 494.319v-37.786M252.984 458.422v34.008M252.984 455.588v2.834M252.984 458.422h1.889M254.872 458.422v-2.834M254.872 455.588h-1.889M254.872 495.264v-2.834M254.872 492.43h-1.889M252.984 492.43v2.834M252.984 495.264h1.889M254.872 492.43v-34.008M252.984 458.422v34.008M253.928 458.422v34.008M255.817 414.968h-1.889M255.817 414.968h-1.889M261.486 414.968h-5.669M253.928 414.968H237.68M255.817 498.097h-1.889M255.817 498.097h-1.889M261.486 498.097h-5.669M253.928 498.097H237.68"/></g></g><g><path class="st6" d="M27.258.28l-1.3 1.15M34.678.28l-8.72 7.68M42.098.28l-12.49 11M49.528.28l-12.49 11M26.658 26.96l-.69.61M56.948.28l-12.49 11M42.588 12.93l-3.02 2.66M42.588 19.46l-3.02 2.67M64.368.28l-12.49 11M34.078 26.96l-3.42 3.02M42.598 26l-4.52 3.98M71.788.28l-12.48 11M79.208.28l-12.49 11M86.628.28l-12.48 11M94.058.28l-12.49 11M101.478.28l-12.48 11M108.898.28l-12.48 11M116.328.28l-12.49 11M123.738.28l-12.48 11M131.168.28l-12.49 11M138.588.28l-12.49 11M146.018.28l-12.49 11M153.438.28l-12.49 11M160.858.28l-12.49 11M31.838 120.48l-3.44 3.03M168.288.28l-12.49 11M39.248 120.48l-3.44 3.03M175.698.28l-12.49 11M46.678 120.48l-3.44 3.03M183.118.28l-12.48 11M54.098 120.48l-3.44 3.03M190.548.28l-12.49 11M61.518 120.48l-3.44 3.03M197.968.28l-12.48 11M68.948 120.48l-3.44 3.03M26.908 157.51l-.94.83M205.398.28l-12.49 11M76.368 120.48l-3.44 3.03M34.328 157.51l-3.44 3.03M212.818.28l-12.49 11M83.788 120.48l-3.44 3.03M34.768 163.66l-3.13 2.76M220.228.28l-12.48 11M91.208 120.48l-3.44 3.03M34.738 170.22l-3.1 2.74M227.658.28l-12.49 11M92.848 125.57l-3.02 2.67M34.718 176.79l-3.08 2.71M235.078.28l-12.49 11M237.378 4.8l-7.36 6.48M34.688 183.35l-3.05 2.69M92.848 132.11l-3.02 2.67M92.848 138.65l-3.02 2.67M34.668 189.91l-5.48 4.82M40.038 191.71l-3.42 3.02M47.458 191.71l-3.43 3.02M54.878 191.71l-3.42 3.02M139.718 123.52l-.77.67M29.068 220.99l-3.1 2.73M62.308 191.71l-3.43 3.02M36.488 220.99l-3.44 3.03M147.138 123.52l-8.19 7.21M92.848 171.34l-3.02 2.67M69.728 191.71l-3.43 3.02M40.698 223.82l-3.02 2.66M154.558 123.52l-12.44 10.96M92.848 177.88l-3.02 2.67M77.158 191.71l-3.43 3.02M141.968 134.61l-3.02 2.66M40.698 230.36l-3.02 2.66M161.988 123.52l-12.45 10.96M92.848 184.42l-3.02 2.66M84.578 191.71l-3.43 3.02M141.968 141.15l-3.02 2.66M40.698 236.9l-3.02 2.66M169.408 123.52l-12.44 10.96M92.848 190.96l-4.28 3.77M98.008 186.42l-3.43 3.02M141.968 147.69l-3.02 2.66M40.698 243.43l-3.02 2.66M32.288 250.84l-3.44 3.03M176.818 123.52l-12.44 10.96M92.848 197.49l-3.02 2.67M141.968 154.22l-3.02 2.66M40.698 249.97l-4.42 3.9M184.248 123.52l-12.44 10.96M92.848 204.03l-3.02 2.67M141.968 160.76l-3.02 2.66M40.698 256.51l-3.02 2.66M191.668 123.52l-12.44 10.96M92.848 210.57l-3.02 2.67M141.968 167.3l-3.02 2.66M40.698 263.05l-3.02 2.66M196.068 126.19l-9.41 8.29M92.848 217.11l-3.02 2.67M141.968 173.84l-3.02 2.66M141.968 180.38l-3.02 2.66M135.118 186.42l-3.28 2.89M92.848 223.65l-3.02 2.66M196.068 132.72l-1.99 1.76M40.698 269.59l-3.02 2.66M141.968 186.92l-3.02 2.66M92.848 230.19l-3.02 2.66M30.948 284.72l-3.44 3.03M40.698 276.13l-3.02 2.66M141.968 193.45l-.94.83M92.848 236.72l-3.02 2.67M34.928 287.75l3.44-3.03 2.33-2.06M45.788 284.72l-3.44 3.03M53.208 284.72l-3.43 3.03M60.638 284.72l-3.44 3.03M68.058 284.72l-3.44 3.03M141.948 226.17l-3 2.64M92.848 269.42l-3.02 2.66M75.478 284.72l-3.44 3.03M141.968 232.69l-3.02 2.66M82.908 284.72l-3.44 3.03M92.848 275.96l-3.02 2.66M141.968 239.22l-3.02 2.66M92.848 282.49l-5.97 5.26M141.968 245.76l-3.02 2.66M141.968 252.3l-3.02 2.66M148.238 253.32l-3.43 3.02M155.658 253.32l-3.42 3.02M163.088 253.32l-3.43 3.02M170.498 253.32l-3.43 3.02M28.958 378.01l-2.99 2.63M177.928 253.32l-3.43 3.02M36.378 378.01l-10.29 9.07M185.348 253.32l-3.43 3.02M43.798 378.01l-10.29 9.07M192.768 253.32l-3.43 3.02M51.228 378.01l-10.3 9.07M200.198 253.32l-3.43 3.02M58.648 378.01l-10.29 9.07M207.618 253.32l-3.43 3.02M66.078 378.01l-10.3 9.07M215.038 253.32l-3.42 3.02M73.498 378.01l-10.3 9.07M222.458 253.32l-3.43 3.02M80.908 378.01l-10.29 9.07M229.878 253.32l-3.43 3.02M88.338 378.01l-10.3 9.07M237.308 253.32l-3.43 3.02M95.568 378.18l-10.1 8.9M95.568 384.72l-2.68 2.36M155.138 378.01l-6.32 5.57M29.708 488.5l-3.42 3.02M37.138 488.5l-3.43 3.02M162.568 378.01l-10.3 9.07M40.668 491.92l-3.03 2.67M169.978 378.01l-10.3 9.07M40.668 498.46l-3.03 2.67M26.218 511.19l-.25.22M177.398 378.01l-10.29 9.07M40.668 505l-3.03 2.67M33.638 511.19l-7.67 6.76M184.828 378.01l-10.3 9.07M41.068 511.19l-12.44 10.96M192.248 378.01l-10.29 9.07M196.068 381.19l-6.69 5.89M48.488 511.19l-12.44 10.96M55.908 511.19l-12.44 10.96M63.338 511.19l-12.44 10.96M70.758 511.19l-12.45 10.96M78.178 511.19l-12.44 10.96M85.598 511.19l-12.44 10.96M93.018 511.19l-12.44 10.96M100.448 511.19l-12.45 10.96M107.868 511.19l-12.44 10.96M115.288 511.19l-12.44 10.96M122.708 511.19l-12.44 10.96M130.128 511.19l-12.44 10.96M137.558 511.19l-12.44 10.96M144.978 511.19l-12.44 10.96M152.398 511.19l-12.44 10.96M159.818 511.19l-12.44 10.96M167.248 511.19l-12.45 10.96M174.668 511.19l-12.44 10.96M182.088 511.19l-12.44 10.96M189.508 511.19l-12.44 10.96M196.938 511.19l-12.44 10.96M204.358 511.19l-12.44 10.96M211.778 511.19l-12.44 10.96M219.198 511.19l-12.44 10.96M226.618 511.19l-12.44 10.96M234.048 511.19l-12.44 10.96M237.378 514.79l-8.35 7.36M237.378 521.33l-.93.82"/></g><path d="M97.304 522.368H26.266v-10.959H37.94v-19.671H26.227v-3.023h14.736v22.694H237.68v10.959H97.304h0zm-7.181-330.442h0l.001-21.463h1.512v-.453h1.511v16.626h7.559v1.511h-.455v1.512h-7.104v52.124h-1.511v-.453h-1.512v-46.381H26.266v-3.023h5.668v-31.174h-5.668v-3.023h8.821l-.132 34.197h55.168zm52.147 61.607h95.41v3.023h-98.433v-30.623h1.512v.453h1.511v27.147h0zm54.101-129.796v10.959H142.27l-.001 59.799h-1.511v.454h-1.512v-5.29h-7.104v-1.512h-.454v-1.511h7.558v-62.899h57.125zM237.68.5v10.996H42.891l.003 18.705H26.267v-3.023H39.87l-.003-15.682h-13.61V.5H237.68zM93.147 270.521v17.441h-66.88v-3.023h63.857v-15.476h1.512v-.453h1.511v1.511h0zm0-146.799v19.837h-1.511v-.453h-1.512v-19.384H26.267v-3.023h66.88v3.023h0zM37.979 251.061H26.266v3.023h11.713v30.854h3.023V221.21H26.266v3.023h11.713v26.828h0zm158.393 127.167v9.069h-47.25v-9.069h47.25zm-100.5 9.069H26.267v-9.069h69.606v9.069z" fill-rule="evenodd" clip-rule="evenodd" fill="none" stroke="#000" stroke-linecap="round" stroke-linejoin="round" stroke-miterlimit="22.926"/></g><g id="sizes_2_"><path d="M188.883 308.356h-1.594v-9.625l-1.617.992v-1.648l1.617-1.078h1.594v11.359zM191.305 305.231l3.813-8.227h1.641l-3.719 8.133h5.57v1.477h-7.305v-1.383zm4.898-3.555h1.555v6.688h-1.555v-6.688zM200.406 306.762H202v1.594l-1.594 1.578v-3.172zM205.703 308.082c-.521-.261-.923-.629-1.207-1.105s-.426-1.03-.426-1.66v-.188c0-.567.142-1.102.426-1.602s.663-.878 1.137-1.133c-.401-.219-.723-.535-.965-.949s-.363-.851-.363-1.309v-.273c0-.594.133-1.116.398-1.566s.641-.8 1.125-1.047 1.047-.371 1.688-.371 1.203.124 1.688.371.859.597 1.125 1.047.398.973.398 1.566v.273c0 .469-.124.909-.371 1.32s-.574.724-.98.938c.479.261.863.64 1.152 1.137s.434 1.03.434 1.598v.188c0 .63-.142 1.184-.426 1.66s-.687.845-1.207 1.105-1.125.391-1.813.391-1.292-.13-1.813-.391zm2.789-1.359c.281-.146.499-.351.652-.613s.23-.566.23-.91v-.109c0-.349-.077-.655-.23-.918s-.371-.468-.652-.613-.606-.219-.977-.219-.695.073-.977.219-.499.352-.652.617-.23.573-.23.922v.117c0 .344.077.646.23.906s.371.462.652.605.606.215.977.215.696-.074.977-.219zm-.132-5.121c.245-.138.435-.335.57-.59s.203-.55.203-.883v-.109c0-.317-.067-.599-.203-.844s-.325-.434-.57-.566-.526-.199-.844-.199-.599.066-.844.199-.435.321-.57.566-.203.528-.203.852v.117c0 .328.067.618.203.871s.325.448.57.586.526.207.844.207.599-.07.844-.207zM75.609 114.253h-1.594v-9.625l-1.617.992v-1.648l1.617-1.078h1.594v11.359zM79.702 113.98c-.521-.26-.923-.629-1.207-1.105s-.426-1.03-.426-1.66v-.188c0-.567.142-1.102.426-1.602s.663-.877 1.137-1.133c-.401-.219-.723-.535-.965-.949s-.363-.85-.363-1.309v-.273c0-.594.133-1.116.398-1.566.266-.45.641-.799 1.125-1.047.484-.247 1.047-.371 1.688-.371s1.203.124 1.688.371c.484.248.859.597 1.125 1.047.266.451.398.973.398 1.566v.273c0 .469-.124.909-.371 1.32a2.472 2.472 0 01-.98.938c.479.261.863.64 1.152 1.137a3.13 3.13 0 01.434 1.598v.188c0 .63-.142 1.184-.426 1.66s-.687.845-1.207 1.105c-.521.261-1.125.391-1.813.391s-1.292-.131-1.813-.391zm2.789-1.36c.281-.146.499-.35.652-.613.153-.263.23-.566.23-.91v-.109c0-.349-.077-.655-.23-.918a1.576 1.576 0 00-.652-.613c-.281-.146-.606-.219-.977-.219s-.695.073-.977.219c-.281.146-.499.352-.652.617s-.23.573-.23.922v.117c0 .344.077.646.23.906.153.261.371.462.652.605.281.144.606.215.977.215s.696-.073.977-.219zm-.132-5.121c.245-.138.435-.334.57-.59.136-.255.203-.549.203-.883v-.109c0-.317-.067-.599-.203-.844s-.325-.434-.57-.566-.526-.199-.844-.199-.599.066-.844.199-.435.322-.57.566a1.726 1.726 0 00-.203.852v.117c0 .328.067.619.203.871.136.253.325.448.57.586.245.138.526.207.844.207s.599-.069.844-.207zM87.031 112.659h1.594v1.594l-1.594 1.578v-3.172zM93.554 114.253H91.96v-9.625l-1.617.992v-1.648l1.617-1.078h1.594v11.359zM175.347 485.341h-1.594v-9.625l-1.617.992v-1.648l1.617-1.078h1.594v11.359zM177.753 483.958l3.961-5.281c.229-.302.407-.616.535-.941s.191-.629.191-.91v-.016c0-.453-.133-.805-.398-1.055s-.644-.375-1.133-.375c-.464 0-.839.137-1.125.41s-.461.66-.523 1.16v.008h-1.648v-.008c.094-.651.285-1.207.574-1.668s.663-.813 1.121-1.055.987-.363 1.586-.363c.677 0 1.255.116 1.734.348s.844.569 1.094 1.012.375.977.375 1.602v.008c0 .401-.083.82-.25 1.258s-.398.859-.695 1.266l-3.289 4.469h4.297v1.516h-6.406v-1.385zM186.034 483.747h1.594v1.594l-1.594 1.578v-3.172zM195.683 475.404l-2.938 9.938h-1.695l2.938-9.844h-2.891v1.633h-1.594v-3.148h6.18v1.421z"/><g><path d="M30.946 322.469l3.813-8.227H36.4l-3.719 8.133h5.57v1.477h-7.305v-1.383zm4.898-3.555h1.555v6.688h-1.555v-6.688zM40.047 324h1.594v1.594l-1.594 1.578V324zM43.656 324.211l3.961-5.281c.229-.302.407-.616.535-.941s.191-.629.191-.91v-.016c0-.453-.133-.805-.398-1.055s-.644-.375-1.133-.375c-.464 0-.839.137-1.125.41s-.461.66-.523 1.16v.008h-1.648v-.008c.094-.651.285-1.207.574-1.668s.663-.813 1.121-1.055.987-.363 1.586-.363c.677 0 1.255.116 1.734.348s.844.569 1.094 1.012.375.976.375 1.601v.008c0 .401-.083.82-.25 1.258s-.398.859-.695 1.266l-3.289 4.469h4.297v1.516h-6.406v-1.384z"/></g><g><path d="M272.545 458.029h-1.594v-9.625l-1.617.992v-1.648l1.617-1.078h1.594v11.359zM274.967 454.904l3.813-8.227h1.641l-3.719 8.133h5.57v1.477h-7.305v-1.383zm4.898-3.554h1.555v6.688h-1.555v-6.688zM284.069 456.436h1.594v1.594l-1.594 1.578v-3.172zM289.834 458.147l-.727-.348c-.485-.232-.874-.567-1.168-1.008s-.48-.97-.559-1.59h1.625c.047.323.148.589.305.797s.358.363.605.465.538.152.871.152c.526 0 .935-.141 1.227-.422s.438-.677.438-1.188v-.344c0-.567-.138-1.007-.414-1.316s-.667-.465-1.172-.465h-.805v-1.516h.805c.442 0 .786-.133 1.031-.398s.367-.641.367-1.125v-.352c0-.448-.129-.794-.387-1.039s-.624-.367-1.098-.367c-.271 0-.513.051-.727.152s-.395.258-.543.469-.257.476-.324.793h-1.617c.104-.62.301-1.151.59-1.594s.655-.778 1.098-1.008.95-.344 1.523-.344c.979 0 1.737.258 2.273.773s.805 1.242.805 2.18v.188c0 .567-.153 1.063-.461 1.484s-.742.729-1.305.922c.62.136 1.101.44 1.441.914s.512 1.078.512 1.813v.188c0 .661-.128 1.227-.383 1.695s-.626.825-1.113 1.07-1.074.367-1.762.367l-.951.002z"/></g><g><path d="M67.823 185.07l3.961-5.281c.229-.302.407-.616.535-.941.128-.325.191-.629.191-.91v-.016c0-.453-.133-.805-.398-1.055s-.644-.375-1.133-.375c-.464 0-.839.137-1.125.41s-.461.66-.523 1.16v.008h-1.648v-.008c.094-.651.285-1.207.574-1.668s.663-.813 1.121-1.055.987-.363 1.586-.363c.677 0 1.255.116 1.734.348.479.232.844.569 1.094 1.012.25.443.375.977.375 1.602v.008c0 .401-.083.82-.25 1.258s-.398.859-.695 1.266l-3.289 4.469h4.297v1.516h-6.406v-1.385zM76.105 184.859h1.594v1.594l-1.594 1.578v-3.172zM81.402 186.179c-.521-.26-.923-.629-1.207-1.105s-.426-1.03-.426-1.66v-.188c0-.567.142-1.102.426-1.602s.663-.877 1.137-1.133c-.401-.219-.723-.535-.965-.949s-.363-.85-.363-1.309v-.273c0-.594.133-1.116.398-1.566.266-.45.641-.799 1.125-1.047.484-.247 1.047-.371 1.688-.371s1.203.124 1.688.371c.484.248.859.597 1.125 1.047.266.451.398.973.398 1.566v.273c0 .469-.124.909-.371 1.32a2.472 2.472 0 01-.98.938c.479.261.863.64 1.152 1.137a3.13 3.13 0 01.434 1.598v.188c0 .63-.142 1.184-.426 1.66s-.687.845-1.207 1.105c-.521.261-1.125.391-1.813.391s-1.293-.13-1.813-.391zm2.789-1.359c.281-.146.499-.35.652-.613.153-.263.23-.566.23-.91v-.109c0-.349-.077-.655-.23-.918a1.576 1.576 0 00-.652-.613c-.281-.146-.606-.219-.977-.219s-.695.073-.977.219c-.281.146-.499.352-.652.617s-.23.573-.23.922v.117c0 .344.077.646.23.906.153.261.371.462.652.605.281.144.606.215.977.215s.695-.074.977-.219zm-.133-5.122c.245-.138.435-.334.57-.59.136-.255.203-.549.203-.883v-.109c0-.317-.067-.599-.203-.844s-.325-.434-.57-.566-.526-.199-.844-.199-.599.066-.844.199-.435.322-.57.566a1.726 1.726 0 00-.203.852v.117c0 .328.067.619.203.871.136.253.325.448.57.586.245.138.526.207.844.207s.599-.068.844-.207z"/></g><g><path d="M69.778 280.854l-.727-.348a2.857 2.857 0 01-1.168-1.008c-.294-.439-.48-.97-.559-1.59h1.625c.047.323.148.589.305.797.156.209.358.363.605.465s.538.152.871.152c.526 0 .935-.141 1.227-.422s.438-.677.438-1.188v-.344c0-.567-.138-1.006-.414-1.316-.276-.31-.667-.465-1.172-.465h-.805v-1.516h.805c.442 0 .786-.133 1.031-.398s.367-.641.367-1.125v-.352c0-.447-.129-.794-.387-1.039-.258-.244-.624-.367-1.098-.367-.271 0-.513.051-.727.152s-.395.258-.543.469-.257.476-.324.793h-1.617c.104-.619.301-1.15.59-1.594a2.893 2.893 0 011.098-1.008c.442-.229.95-.344 1.523-.344.979 0 1.737.258 2.273.773s.805 1.242.805 2.18v.188c0 .568-.153 1.063-.461 1.484s-.742.729-1.305.922c.62.136 1.101.44 1.441.914.341.475.512 1.078.512 1.813v.188c0 .662-.128 1.227-.383 1.695s-.626.826-1.113 1.07c-.487.245-1.074.367-1.762.367l-.951.002zM76.098 279.143h1.594v1.594l-1.594 1.578v-3.172zM79.723 277.612l3.813-8.227h1.641l-3.719 8.133h5.57v1.477h-7.305v-1.383zm4.898-3.555h1.555v6.688h-1.555v-6.688z"/></g><g><path d="M153.198 237.132l-2.938 9.938h-1.695l2.938-9.844h-2.891v1.633h-1.594v-3.148h6.18v1.421zM155.229 245.475h1.594v1.594l-1.594 1.578v-3.172zM163.033 241.428l-.008.281c-.13.24-.327.416-.59.527a2.372 2.372 0 01-.934.168c-.542 0-1.019-.138-1.43-.414-.411-.276-.73-.665-.957-1.168-.227-.502-.34-1.084-.34-1.746v-.008c0-.734.124-1.362.371-1.883a2.615 2.615 0 011.086-1.188c.477-.271 1.048-.406 1.715-.406s1.237.138 1.711.414a2.66 2.66 0 011.082 1.203c.247.526.371 1.159.371 1.898v.008c0 .406-.052.84-.156 1.301s-.253.918-.445 1.371l-.094.207c-.031.07-.065.14-.102.207l-2.422 4.867h-1.719l2.861-5.639zm.075-.984c.273-.338.41-.815.41-1.43v-.008c0-.599-.137-1.063-.41-1.391s-.66-.492-1.16-.492c-.505 0-.895.164-1.168.492s-.41.794-.41 1.398v.008c0 .615.137 1.09.41 1.426s.663.504 1.168.504c.5.001.886-.168 1.16-.507z"/></g><g><path d="M58.101 427.689a2.75 2.75 0 01-1.086-.977c-.278-.427-.465-.939-.559-1.539v-.008h1.594v.008c.058.417.224.741.5.973.276.232.636.348 1.078.348.511 0 .905-.17 1.184-.512.278-.341.418-.821.418-1.441v-.953c0-.614-.14-1.092-.418-1.434-.278-.341-.673-.512-1.184-.512-.276 0-.542.078-.797.234s-.479.375-.672.656h-1.453v-5.984h5.789v1.516H58.3v2.555a2.275 2.275 0 011.414-.508c.656 0 1.218.136 1.684.406.466.271.82.667 1.063 1.188.242.521.363 1.148.363 1.883v.953c0 .734-.125 1.362-.375 1.883-.25.521-.614.918-1.094 1.191s-1.055.41-1.727.41c-.573 0-1.082-.113-1.527-.336zM65.011 426.314h1.594v1.594l-1.594 1.578v-3.172zM68.636 424.782l3.813-8.227h1.641l-3.719 8.133h5.57v1.477h-7.305v-1.383zm4.898-3.554h1.555v6.688h-1.555v-6.688z"/></g></g></svg>