<svg version="1.1" id="_x33_35_1_" xmlns="http://www.w3.org/2000/svg" x="0" y="0" viewBox="0 0 487.899 479.157" xml:space="preserve"><style>.st0,.st1{fill-rule:evenodd;clip-rule:evenodd}.st0{fill:#fff}.st1{stroke:#999;stroke-width:.4}.st1,.st2,.st4{fill:none;stroke-linecap:round;stroke-linejoin:round;stroke-miterlimit:3}.st2{fill-rule:evenodd;clip-rule:evenodd;stroke:#999}.st4{stroke:#000}.st4,.st5,.st6,.st7{fill-rule:evenodd;clip-rule:evenodd}.st6,.st7{fill:none;stroke-miterlimit:22.9256}.st6{stroke-linecap:round;stroke-linejoin:round;stroke:#000}.st7{stroke:#666;stroke-width:.6}</style><path class="st0" d="M487.277 188.596v-41h.489V5.037H446.86V.108H201.534v138.238H.134V370.98h5.643v107.633h482.149V188.596z"/><g id="mebel_5_"><path class="st1" d="M88.306 206.422l2.11-2.11m-9.06 2.114l9.06-9.062m-16.011 9.066l16.012-16.013m-22.964 16.017l22.964-22.963m-29.916 22.967l29.915-29.914m-36.865 29.918l36.866-36.865m-43.816 36.869l43.816-43.816m-49.182 42.235l43.788-43.788m-43.788 36.841l36.841-36.841M41.235 190.97l29.894-29.893m-29.894 22.946l11.889-11.888m8.314-8.314l4.985-4.985m-25.188 18.241l8.16-8.16m11.442-11.442l5.585-5.585m-25.187 18.239l7.06-7.06M41.235 163.183l7.862-7.862M41.236 156.235l4.982-4.982m44.198 13.796l-3.973-3.973m3.973 10.92l-10.919-10.919M90.416 178.943L72.55 161.077m-6.127-6.127l-3.697-3.697m27.69 34.637L60.7 156.175M90.416 192.837L61.439 163.86M49.46 151.881l-.628-.628m41.584 48.531l-30.347-30.347m-11.272-11.272l-6.912-6.912m48.222 55.168l-34.154-34.154m-7.707-7.706l-7.01-7.01m41.926 48.874l-41.927-41.929m34.985 41.933l-34.985-34.985m28.043 34.989L41.235 178.39m21.099 28.047l-21.099-21.099m14.155 21.103l-14.155-14.156m7.214 14.16l-7.214-7.214m.272 7.218l-.271-.271M228.337 67.935h51.389m-51.389-11.337h51.389m-51.389-11.336h51.389m-51.389-11.335h21.533m10.211 0h19.645m-44.965-11.336h14.151m12.129 0h18.685m-11.335 48.556V15.601m-22.672 55.546V15.601"/><path class="st2" d="M248.575 30.592l.469 1.645m0 0l.718 1.552m0 0l.967 1.23m0 0l1.249.942m0 0l1.448.595m0 0l1.55.205m0 0l1.552-.205m0 0l1.447-.595m0 0l1.248-.942m0 0l.968-1.23m0 0l.719-1.552m0 0l.469-1.645m0 0l.207-1.697m0 0l-.059-1.709m0 0l-1.223-11.585m0 0h-10.655m0 0l-1.222 11.585m0 0l-.06 1.709m0 0l.208 1.697M259.093 21.322l-4.117-.001M254.976 21.321h-4.116M258.04 35.589a5.742 5.742 0 01-3.063.886M261.288 28.759c.166 2.592-1.031 5.107-3.248 6.83M259.093 21.322c1.505 2.252 2.265 4.827 2.194 7.437M248.664 28.759c-.07-2.609.689-5.185 2.195-7.437M251.913 35.589c-2.217-1.723-3.413-4.238-3.248-6.83M254.977 36.475a5.73 5.73 0 01-3.064-.886M250.328 15.6h9.296v.189h-9.296zM259.625 15.601h-9.296m-.001 0v.188m0 0h9.296m.001 0v-.188M245.53 15.601h18.894M245.53 11.066h18.894M245.53 15.601v-4.534M264.423 15.601v-4.534M11.037 206.469h30.199M41.236 206.469v-44.636M41.236 161.833H11.037M18.593 199.855a.944.944 0 11-1.889 0 .944.944 0 011.889 0zM24.02 184.363l.372 1.396m0-.001l.792 1.209m0 0l1.133.899m0 0l1.357.495m0 0l1.446.044m0 0l1.384-.414m0 0l1.185-.828m0 0l.864-1.159m0 0l.455-1.372m0 0v-1.446m0 0l-.455-1.372m0 0l-.864-1.159m0 0l-1.185-.829m0 .001l-1.384-.413m0-.001l-1.445.043m0 0l-1.358.496m0 0l-1.133.897m0 .001l-.792 1.209m0 0l-.372 1.397m0-.001h-5.538m0 0l.108-.455m0 0l.036-.49m0 0l-.036-.489m0 0l-.108-.455m0 0l-.172-.392m0 0l-.225-.299m0 0l-.261-.19m0 0l-.281-.064m0 0h-.402m0 0l-.12.019m0 0l-.278.064m0 0l-.104.054m0 0l-.251.182m0 .001l-.07.078m0-.001l-.204.274m0 0l-.157.357m0 0l-.052.195m0 0l-.06.25m0 0l-.687.02m0 0l-.796.009m0 0v-1.729m0 0h-.435m0 0v-2.871m0 0l-.059-.16m0 0l-.148-.083m0 0l-.167.033m0 0l-.105.134m0 0l-.158.485m0 0l-.315.726m0 0l-.573 1.008m0 0l-.259.728m0 0h-.124m0 0v-.604m0 0h-.982m0 0v2.569m0 0h.877m0 0l.038.063m0 0l.034.033m0 0l.04.025m0 0l.673.278m0 0v.697m0 0h-1.361m0 0v-1.058m0 .001h-.301m0 0v3.024m0-.001h.301m0 0v-1.059m0 .001h1.361m0 0v1.437m0-.001h.151m0 0v.415m0 0h-.303m0 0v-.152m0 0h-.528m0 0v-.604m0 0h-.982m0 0v2.569m0 0h.982m0 0v-.604m0 0h.528m0 0v-.152m0 0h.303m0 0v.152m0 0h1.512m0 0v-2.57m0 0h2.153m0 0v-.082m0 0v-.094m0 0v-.123m0 0v-.149m0 0v-.043m0 .001h7.505M12.699 182.02v.21m0 0l-.341-.141m0 0l-.053-.325m0 0l.002-.009m0 0h.241m0 0v-.151m0 0h.302m0 0v.416m0 0h-.151M12.85 180.546h-.24m0 0l.239-.677m0 0l.563-.987m0 0l.024-.053m0 0v1.566m0 0h-.586m0 0v.151M12.019 186.403h.528M12.019 187.083h.528M12.019 180.746v-.352M12.547 181.604v-.188M12.547 181.415v-.681M12.547 180.734v-.013M12.372 181.415h.175M12.542 180.734h.005M12.85 180.546v1.058M14.362 182.899v.557M13.436 180.395h.491M14.928 182.965v.49M13.914 177.6l.013-.076M11.811 181.748l.002.048M11.843 181.578l-.032.17M11.895 182.293l.01.047M11.905 182.34l.009.02M12.143 180.395l-.16.453M11.983 180.848l-.14.73M12.316 181.704l-.011.06M13.914 177.6l-.167.512M13.747 178.111l-.312.718M12 180.806v.001M11.813 181.796l.082.497M16.417 183.453l-.002.002M15.886 183.455l-.002-.002M13.247 182.02h-.129M13.001 182.02h-.104M13.119 182.02h-.117M12.699 182.23v.523M12.455 180.982l-.14.723M12.61 180.546l-.154.436M13.332 182.7h.108a.108.108 0 10-.216 0 .108.108 0 00.216 0h-.108zM13.288 182.608l.044.093M13.273 182.511l.015.098M13.288 182.413l-.015.098M13.332 182.322l-.045.091M13.332 182.322v-.001M15.829 182.166l-.026.345M15.802 182.511l.026.345M15.845 182.095l-.017.071M15.905 183.177l.052.195M15.829 182.856l.076.32M13.499 182.142l.062-.009M15.957 183.372l.035.083M15.845 182.927l-.687-.02M13.561 182.889l-.062-.009M13.499 182.88l-.057-.026M13.442 182.854l-.05-.042M13.392 182.812l-.038-.055M13.354 182.757l-.021-.057M13.332 182.7l-.002-.008M13.33 182.693l-.008-.068M13.322 182.624v-.227M13.322 182.398l.008-.069M13.33 182.329l.002-.007M13.332 182.321l.021-.056M13.354 182.266l.038-.055M13.392 182.211l.05-.043M13.442 182.168l.058-.026M15.158 182.907l-1.597-.019M14.362 182.123l-.801.01M14.059 182.02v.106M14.059 182.895v.561M24.02 184.363h5.343M24.02 183.455h5.343M29.363 184.363v-.908M12.019 187.423v-1.36M12.547 187.272v-1.058M12.85 187.272v-1.058M12.85 185.799h1.209M14.059 182.02H12.85M11.338 184.363v-.908M12.699 184.363h3.816M18.482 183.455h-5.783M14.059 185.799v-1.437M14.362 184.854v-.491M14.928 184.854v-.491M14.362 182.965h1.493M26.698 183.455a1.889 1.889 0 110 .907M13.976 185.799a.34.34 0 11-.589 0M48.452 166.245l.469 1.645m0 0l.718 1.551m0 0l.968 1.23m0 0l1.248.943m0 0l1.449.594m-.001 0l1.55.206m.001 0l1.551-.206m0 0l1.447-.594m0 0l1.249-.943m0 0l.967-1.23m-.001 0l.72-1.551m0 0l.468-1.645m0 0l.208-1.698m.001 0l-.06-1.709m-.001 0l-1.223-11.584m.001 0H49.527m0 0l-1.223 11.584m-.001 0l-.059 1.709m0 0l.207 1.698M58.97 156.975h-4.116M54.854 156.975h-4.116M57.917 171.241a5.746 5.746 0 01-3.063.887M61.165 164.412c.165 2.591-1.031 5.106-3.248 6.829M58.97 156.975c1.506 2.253 2.266 4.828 2.195 7.437M48.542 164.412c-.071-2.609.689-5.185 2.195-7.437M51.79 171.241c-2.217-1.723-3.413-4.238-3.248-6.829M54.854 172.128a5.73 5.73 0 01-3.063-.887M50.206 151.253h9.295v.189h-9.295zM59.501 151.254h-9.295m0 0v.188m0 0h9.295m0 0v-.188M45.408 151.254h18.893M45.408 146.719h18.893M45.408 151.254v-4.535M64.3 151.254v-4.535M66.99 146.719h22.86m0 0l.401.166m0 0l.167.4m0 0v13.226m0 0l-.167.401m0 0l-.401.166m0 0H66.99m0 0l-.401-.166m0 0l-.166-.401m0 0v-13.226m0 0l.166-.4m0 0l.401-.166M68.124 150.875h20.592M89.284 151.443v7.934M88.716 159.945H68.123M67.556 159.377v-7.935M88.716 150.875c.313 0 .567.254.567.567M89.284 159.377a.567.567 0 01-.567.567M68.124 159.945a.567.567 0 01-.567-.567M67.556 151.443c0-.313.254-.567.567-.567M79.175 153.658a.755.755 0 11-1.51 0 .755.755 0 011.51 0z"/><path class="st2" d="M77.966 147.249v7.747l.256.301h.396l.255-.301v-7.747zM78.873 147.248h-.907m.001 0v7.748m0 0l.256.301m0 0h.395m0 0l.256-.301m-.001 0v-7.748M77.664 146.983h1.51v.265h-1.51zM77.664 147.248h1.511m.001 0v-.265m0 0h-1.511m-.001 0v.265"/><path class="st2" d="M77.286 146.719h2.266v.265h-2.266zM77.287 146.983h2.267m-.001 0v-.265m0 0h-2.267m.001 0v.265M75.151 148.609v-1.626h.095v-.133h.283v-.132H73.64v.132h.283v.133h.095v1.626h.321v.414h-1.077v.491h2.645v-.491h-1.076v-.414zM75.151 148.609v-1.625m0-.001h.095m0 0v-.132m0 .001h.283m0 0v-.133m0-.001H73.64m0 0v.133m0 .001h.283m0 0v.132m0-.001h.095m0 0v1.625m0 .001h.321m0 0v.415m0-.001h-1.077m0 0v.492m0 .001h2.645m0 0v-.492m0-.001h-1.076m0 0v-.415m0 .001h.32M81.688 148.609h.321v.414h-1.077v.491h2.646v-.491H82.5v-.414h.322v-1.626h.095v-.133h.283v-.132h-1.89v.132h.284v.133h.094zM81.688 148.609v-1.625m0-.001h-.094m0 0v-.132m0 .001h-.283m0 0v-.133m0-.001H83.2m0 0v.133m0 .001h-.283m0 0v.132m0-.001h-.095m0 0v1.625m0 .001H82.5m0 0v.415m0-.001h1.078m0 0v.492m0 .001h-2.645m0 0v-.492m0-.001h1.076m0 0v-.415m0 .001h-.321M74.339 149.023l.071.073M74.83 149.023l-.072.073M74.339 148.609h.491M74.018 146.983h1.133M75.246 146.852h-1.322M82.5 149.023l-.071.073M82.009 149.023l.072.073M82.5 148.609h-.491M82.822 146.983h-1.134M81.594 146.852h1.322"/><path class="st2" d="M74.83 149.27a.246.246 0 11-.492 0 .246.246 0 01.492 0zM82.5 149.27a.245.245 0 11-.491 0 .246.246 0 11.491 0zM211.711 71.146h68.015m.001 0v26.45m0 0h-68.015m-.001 0v-26.45M219.646 95.48l-.984-.08m0 0l-.954-.238m0 .001l-.896-.391m0-.001l-.81-.528m0 .001l-.698-.653m0 0l-.566-.755m0-.001L214.32 92m0 .001l-.256-.891m0 0l-.086-.919m0-.001V78.552m0 0l.086-.919m0 0l.256-.89m0 0l.418-.836m0 .001l.566-.755m0 0l.698-.652m0 0l.81-.53m0 0l.896-.388m0-.001l.954-.24m0 0l.984-.08m0 0h45.91m0 0l2.068.169m0 0l2.003.501m0 .001l1.881.819m0 0l1.7 1.11m0 0l1.466 1.369m0-.001l1.191 1.586m0 .001l.877 1.756m0 0l.536 1.87m0-.001l.181 1.929m0 0l-.181 1.929m0 0l-.536 1.87m0 .001l-.877 1.755m0 0l-1.191 1.587m0-.001l-1.466 1.369m0 .001l-1.7 1.111m0 0l-1.881.818m0 0l-2.003.501m0 0l-2.068.169m0-.001h-45.91M221.724 84.371a.945.945 0 11-1.89 0 .945.945 0 011.89 0zM228.338 71.146V26.937M211.711 71.146V26.937M228.338 26.937h-16.627M228.338 71.146h-16.627M226.826 68.785V51.403M226.826 51.403h-12.47M214.356 51.403v3.532m0 2.646v2.059m0 .907v2.058m0 2.647v3.534M214.356 68.785h12.47M226.826 46.68V29.298M226.826 29.298h-12.47M214.356 29.298v3.533m0 2.645v2.06m0 .907v2.058m0 2.646v3.533M214.356 46.68h12.47M218.188 60.547a1.133 1.133 0 01-2.079 0h2.079zm-2.079-.907a1.135 1.135 0 012.077 0h-2.077zM218.187 38.443a1.133 1.133 0 01-2.078 0h2.078zm-2.078-.907a1.134 1.134 0 012.079 0h-2.079zM212.24 59.641v.906m0 0h7.748m0 0l.302-.256m0 0v-.394m0 0l-.302-.256m0 0h-7.748M212.24 60.85v-1.512m0 0h-.265m0 0v1.512m0 0h.265M211.975 61.228V58.96m0 0h-.264m0 0v2.268m0 0h.264M213.6 63.362h-1.625m0 0v-.095m0 0h-.132m0 0v-.283m0 0h-.132m0 0v1.89m0 0h.132m0 0v-.284m0 0h.132m0 0v-.094m0 0h1.625m0 0v-.322m0 0h.416m0 0v1.078m0 0h.491m0 0v-2.646m0 0h-.491m0 0v1.077m0 0h-.416m0 0v-.321M213.6 56.825h-1.625m0 0v.095m0 0h-.132m0 0v.283m0 0h-.132m0 0v-1.889m0 0h.132m0 0v.283m0 0h.132m0 0v.094m0 0h1.625m0 0v.322m0 0h.416m0 0v-1.078m0 0h.491m0 0v2.646m0 0h-.491m0 0v-1.077m0 0h-.416m0 0v.321M212.24 37.535v.907m0 0h7.748m0 0l.302-.256m0 0v-.395m0 0l-.302-.256m0 0h-7.748M212.24 38.744v-1.511m0 0h-.265m0 0v1.511m0 0h.265M211.975 39.122v-2.267m0 0h-.264m0 0v2.267m0 0h.264M213.6 41.258h-1.625m0 0v-.095m0 0h-.132m0 0v-.283m0 0h-.132m0 0v1.889m0 0h.132m0 0v-.283m0 0h.132m0 0v-.095m0 0h1.625m0 0v-.321m0 0h.416m0 0v1.077m0 0h.491m0 0v-2.645m0 0h-.491m0 0v1.077m0 0h-.416m0 0v-.321M213.6 34.721h-1.625m0 0v.094m0 0h-.132m0 0v.283m0 0h-.132m0 0v-1.889m0 0h.132m0 0v.283m0 0h.132m0 0v.095m0 0h1.625m0 0v.322m0 0h.416m0 0v-1.078m0 0h.491m0 0v2.646m0 0h-.491m0 0V34.4m0 0h-.416m0 0v.321M214.016 64.175l.071-.072M214.016 63.684l.071.072M213.6 64.175v-.491M211.975 64.496v-1.134M211.843 63.268v1.322M214.016 56.013l.071.072M214.016 56.504l.071-.071M213.6 56.013v.491M211.975 55.691v1.135M211.843 56.92v-1.322M214.016 42.07l.071-.072M214.016 41.579l.071.071M213.6 42.07v-.491M211.975 42.391v-1.133M211.843 41.163v1.322M214.016 33.908l.071.071M214.016 34.4l.071-.073M213.6 33.908v.491M211.975 33.587v1.134M211.843 34.814v-1.321M214.507 63.93a.246.246 0 11-.491-.001.246.246 0 01.491.001zM214.507 56.259c0 .136-.11.245-.246.245a.244.244 0 01-.245-.245.245.245 0 11.491 0zM214.507 41.824a.246.246 0 11-.492 0 .246.246 0 01.492 0zM214.507 34.153a.246.246 0 11-.492 0 .246.246 0 01.492 0zM346.839 324.95l-.156-.746m0 0l-.228-.737m0 0l-.27-.722m0 0l-.286-.702m0 0l-.272-.677m0 0l-.23-.647m0 0l-.161-.613m0 0l-.051-.481m0 0l-.053-.374m0 0l.008-.598m0 0l.111-.655m0 0l.12-.44m0 0l.076-.238m0 0l.159-.454m0 0l.302-.665m0 0l.343-.596m0 0l.083-.115m0 0l.275-.372m0 0l.788-.835m0 0l.808-.764m0 0l.86-.718m0 0l.88-.639m0 0l.815-.505m0 0l.817-.435m0 0l.767-.297m0 0l.695-.137m0 0l.437-.052m0 0l.491-.052m0 0l.544-.037m0 0l.889-.02m0 0l.599.017m0 0l.639.075m0 0l.677.146m0 0l.712.231m0 0l.748.333m0 0l.604.29m0 0l.512.271m0 0l.469.29m0 0l.477.346m0 0l.534.44m0 0l.643.572m0 0l.255.236m0 0l.549.489m0 0l1.014.936m0 0l1.267 1.189m0 0l1.196 1.275m0 0l.943 1.021m0 0l.748.826m0 0l.575.646m0 0l.442.536m0 0l.347.477m0 0l.29.471m0 0l.271.512m0 0l.29.603m0 0l.325.758m0 0l.231.719m0 0l.148.68m0 0l.08.639m0 0l.025.599m0 0l-.017.483m0 0l-.003.458m0 0l-.035.55m0 0l-.054.494m0 0l-.062.435m0 0l-.151.702m0 0l-.304.764m0 0l-.407.784m0 0l-.525.854m0 0l-.632.854m0 0l-.71.832m0 0l-.758.789m0 0l-.828.783m0 0l-.489.357m0 0l-.596.342m0 0l-.667.3m0 0l-.457.155m0 0l-.239.077m0 0l-.441.118m0 0l-.657.11m0 0l-.6.006m0 0l-.855-.105m0 0l-.613-.161m0 0l-.647-.229m0 0l-.677-.273m0 0l-.702-.285m0 0l-.722-.27m0 0l-.736-.227m0 0l-.746-.156m0 0l-.141-.011m0 0l.174.124m0 0l.51.338m0 0l.901.54m0 0l.781.503m0 0l.406.319m0 0l.549.417m0 0l.184.415m0 0l.129.303m0 0l-.192.27m0 0l-.464.547m0 0l-.329.322m0 0l-.696.363m0 0l-1.052.263m0 0l-1.402.025m0 0l-2.05-.379m0 0l-2.013-.789m0 0l-2.35-1.457m0 0l-.202-.152m0 0l-2.524-2.106m0 0l-2.112-2.525m0 0l-.125-.177m0 0l-1.456-2.345m0 0l-.782-2.005m0 0l-.346-2.023m0 0l.032-1.394m0 0l.268-1.048m0 0l.367-.691m0 0l.326-.325m0 0l.55-.463m0 0l.27-.192m0 0l.302.129m0 0l.416.182m0 0l.729.949m0 0l.502.78m0 0l.718 1.158m0 0l.291.42m0 0l-.01-.126M409.727 324.95l.156-.746m0 0l.228-.737m0 0l.27-.722m0 0l.286-.702m0 0l.272-.677m0 0l.23-.647m0 0l.161-.613m0 0l.051-.481m0 0l.053-.374m0 0l-.008-.598m0 0l-.111-.655m0 0l-.12-.44m0 0l-.075-.238m0 0l-.16-.454m0 0l-.301-.665m0 0l-.343-.596m0 0l-.084-.115m0 0l-.275-.372m0 0l-.787-.835m0 0l-.809-.764m0 0l-.86-.718m0 0l-.88-.639m0 0l-.815-.505m0 0l-.816-.435m0 0l-.768-.297m0 0l-.695-.137m0 0l-.437-.052m0 0l-.491-.052m0 0l-.543-.037m0 0l-.89-.02m0 0l-.599.017m0 0l-.639.075m0 0l-.676.146m0 0l-.713.231m0 0l-.748.333m0 0l-.604.29m0 0l-.511.271m0 0l-.47.29m0 0l-.477.346m0 0l-.534.44m0 0l-.643.572m0 0l-.255.236m0 0l-.549.489m0 0l-1.013.936m0 0l-1.268 1.189m0 0l-1.196 1.275m0 0l-.942 1.021m0 0l-.749.826m0 0l-.575.646m0 0l-.441.536m0 0l-.348.477m0 0l-.29.471m0 0l-.271.512m0 0l-.29.603m0 0l-.325.758m0 0l-.231.719m0 0l-.148.68m0 0l-.08.639m0 0l-.024.599m0 0l.016.483m0 0l.003.458m0 0l.035.55m0 0l.054.494m0 0l.062.435m0 0l.151.702m0 0l.304.764m0 0l.408.784m0 0l.524.854m0 0l.633.854m0 0l.709.832m0 0l.759.789m0 0l.827.783m0 0l.489.357m0 0l.596.342m0 0l.667.3m0 0l.457.155m0 0l.239.077m0 0l.441.118m0 0l.657.11m0 0l.6.006m0 0l.855-.105m0 0l.613-.161m0 0l.647-.229m0 0l.677-.273m0 0l.702-.285m0 0l.722-.27m0 0l.736-.227m0 0l.746-.156m0 0l.142-.011m0 0l-.174.124m0 0l-.511.338m0 0l-.901.54m0 0l-.781.503m0 0l-.406.319m0 0l-.549.417m0 0l-.183.415m0 0l-.13.303m0 0l.193.27m0 0l.463.547m0 0l.329.322m0 0l.696.363m0 0l1.052.263m0 0l1.402.025m0 0l2.051-.379m0 0l2.013-.789m0 0l2.349-1.457m0 0l.202-.152m0 0l2.524-2.106m0 0l2.113-2.525m0 0l.125-.177m0 0l1.455-2.345m0 0l.782-2.005m0 0l.346-2.023m0 0l-.031-1.394m0 0l-.269-1.048m0 0l-.367-.691m0 0l-.326-.325m0 0l-.55-.463m0 0l-.27-.192m0 0l-.302.129m0 0l-.416.182m0 0l-.729.949m0 0l-.502.78m0 0l-.718 1.158m0 0l-.291.42m0 0l.01-.126M41.236 161.833h-7.498m0 0v-15.114m0 0h7.498m0 0v15.114M66.422 151.254H41.235m0 0v-4.535m0 0h25.187m0 0v4.535M307.688 229.093v-22.672m0 0h-22.672m0 0v22.672m0 0h22.672M292.574 217.758h7.558M293.68 220.429l5.344-5.344M296.352 221.536v-7.558M299.024 220.429l-5.344-5.344M304.854 253.465v19.271m0 0l-.221.535m0 0l-.535.221m0 0h-17.381m0 0l-.535-.221m0 0l-.221-.535m0 0v-19.271m0 0l.221-.534m0 0l.535-.221m0 0h17.381m0 0l.535.221m0 0l.221.534M307.688 251.765v22.672M285.016 251.765v22.672M307.688 251.765h-22.672M307.688 274.436h-22.672M302.965 255.355v15.492M302.21 271.603h-11.715M289.74 270.847v-7.002m0-1.488v-7.002M290.496 254.599h11.714M302.965 255.354h.108a.108.108 0 10-.216 0 .108.108 0 00.216 0h-.108zM302.965 270.847a.756.756 0 01-.756.756M290.496 271.603a.756.756 0 01-.756-.756M289.74 255.355c0-.417.339-.756.756-.756M302.21 254.599c.417 0 .756.339.756.756M294.572 262.761l.24.101m0 0l.1.24m0 0l-.101.24m0 0l-.24.099m0 0h-7.477m0 0l-.24-.099m0 0l-.099-.241m0 0l.099-.24m0 0l.24-.1m0 0h7.478M289.022 262.347v.414m0 0h-1.928m0 0l-.24.1m0 0l-.1.24m0 0l.1.241m0 0l.24.099m0 0h1.928m0 0v.415m0 0h-2.456m0 0v-1.509m0 0h2.456M290.382 262.357v.404m0 0h-1.323m0 0v-.404m0 0h1.323M290.382 263.845h-1.323m0 0v-.404m0 0h1.323m0 0v.404M287.094 319.593v21.916m0 0h18.516m0 0v-21.916m0 0h-18.516M298.375 330.551h5.299M303.673 330.551v1.096M298.375 330.551v1.096M298.375 339.405h5.299M303.673 338.31v1.096M298.375 338.31v1.096M303.98 324.305a2.74 2.74 0 11-5.479.001 2.74 2.74 0 015.479-.001zM296.968 325.576a3.968 3.968 0 11-7.936 0 3.968 3.968 0 017.936 0z"/><path class="st2" d="M295.268 325.576a2.268 2.268 0 11-4.536 0 2.268 2.268 0 014.536 0zM303.701 334.978a2.646 2.646 0 11-5.291-.001 2.646 2.646 0 015.291.001zM295.865 336.096a3.4 3.4 0 11-6.802 0 3.401 3.401 0 016.802 0zM285.016 297.108v50.067M307.688 297.108v50.067M285.016 297.108h22.672M285.016 347.176h22.672M238.144 238.32h-1.89m0 0v71.491m0 0h1.89m0 0V238.32M200.358 238.32v35.745m0 0h26.45m0 0V238.32m0 0h-26.45M200.358 274.065v35.746m0 0h26.45m0 0v-35.746m0 0h-26.45M200.358 309.812v9.598m0-.001h37.786m0 0v-9.598m0 .001h-1.889m-9.447 0h-26.45M200.358 228.722v9.599m0 0h26.45m9.446 0h1.889m.001 0v-9.599m0 0h-37.786M236.254 274.065h-9.446m.001 0v40.545m0 .001h9.446m-.001 0v-40.545M236.254 274.065h-9.446m.001 0v-40.544m0 0h9.446m-.001 0v40.544M307.688 251.765v-22.672m0 0h-22.672m0 0v22.672m0 0h22.672M292.574 240.429h7.558M293.68 243.101l5.344-5.344M296.352 244.208v-7.558M299.024 243.101l-5.344-5.344M307.688 274.436v22.672M285.016 274.436v22.672M307.688 274.436h-22.672M307.688 297.108h-22.672M230.587 126.319a7.179 7.179 0 01-14.358 0 7.179 7.179 0 1114.358 0zM302.587 282.615a3.411 3.411 0 11-6.822.002 3.411 3.411 0 016.822-.002z"/><path class="st2" d="M302.066 282.615a2.89 2.89 0 11-5.781 0 2.89 2.89 0 015.781 0zM302.587 288.924a2.579 2.579 0 11-5.158.002 2.579 2.579 0 015.158-.002z"/><path class="st2" d="M301.453 288.924a1.444 1.444 0 11-2.889.001 1.444 1.444 0 012.889-.001zM385.034 314.258a7.18 7.18 0 11-7.179-7.18 7.18 7.18 0 017.179 7.18zM314.112 19.403a3.78 3.78 0 11-7.558-.002 3.78 3.78 0 017.558.002z"/><path class="st2" d="M311.467 19.403a1.134 1.134 0 11-2.269 0 1.134 1.134 0 012.269 0zM402.91 19.403a3.78 3.78 0 11-7.558-.002 3.78 3.78 0 017.558.002z"/><path class="st2" d="M400.264 19.403a1.134 1.134 0 11-2.267.001 1.134 1.134 0 012.267-.001zM25.4 247.986a3.778 3.778 0 11-7.557 0 3.778 3.778 0 017.557 0z"/><path class="st2" d="M22.755 247.986a1.134 1.134 0 11-2.269 0 1.134 1.134 0 012.269 0zM25.4 336.784a3.778 3.778 0 11-7.557 0 3.778 3.778 0 017.557 0z"/><path class="st2" d="M22.755 336.784a1.134 1.134 0 11-2.269 0 1.134 1.134 0 012.269 0zM281.994 206.421h-22.672m0 0V261.4m0 0h22.672m0 0v-54.979M139.539 206.421h15.114m0 0v112.988m0 0h-15.114m0 0V206.421M144.42 307.188h-1.021m0 0v-44.369m0 0h1.021m0 0v44.369M143.4 297.727h-.832m0 0l-.566-.152m0 0l-.415-.415m0-.001l-.153-.567m0 .001v-22.699m0 0l.153-.566m0 0l.415-.415m0 0l.566-.153m0 0h.832m0 0v24.967M144.717 307.188h-.297m0 0v-44.369m0 0h.297m0 0v44.369M192.876 268.357h-22.118m0 0v41.015m0-.001h22.118m0 0v-41.015M90.417 232.116v-22.672m0 0H11.065m0 0v22.672m0 0h79.352M11.066 220.78v.756m0 0h79.352m0 0v-.756m0 0H11.066M75.895 230.84v-18.626m0 0h-.756m0 0v18.626m0 0h.756M73.89 230.84v-18.626m0 0h-.755m0 0v18.626m0 0h.755M71.886 230.84v-18.626m0 0h-.756m0 0v18.626m0 0h.756M69.881 230.84v-18.626m0 0h-.756m0 0v18.626m0 0h.756M65.635 230.704l2.241-18.49m0 0l-.75-.091m0 0l-2.241 18.49m0 0l.75.091M93.44 146.719v22.672m0 0h45.344m0 0v-22.672m0 0H93.44M138.784 158.055v-.756m0 0H93.44m0 0v.756m0 0h45.344M98.636 147.995v18.626m0 0h.756m0 0v-18.626m0 0h-.756M100.641 147.995v18.626m0 0h.756m0 0v-18.626m0 0h-.756M102.645 147.995v18.626m0 0h.756m0 0v-18.626m0 0h-.756M104.65 147.995v18.626m0 0h.756m0 0v-18.626m0 0h-.756M108.896 148.131l-2.241 18.49m0 0l.75.091m0 0l2.241-18.49m0 0l-.75-.091M423.126 137.65v-22.672m0 .001H320.725m0 0v22.672m0-.001h102.401M320.724 125.937v.756m0-.001h102.401m0 0v-.756m0 .001H320.724M416.161 135.657v-18.626m0 0h-.756m0 0v18.626m0 0h.756M414.156 135.657v-18.626m0 0h-.755m0 0v18.626m0 0h.755M412.152 135.657v-18.626m0 0h-.756m0 0v18.626m0 0h.756M410.147 135.657v-18.626m0 0h-.756m0 0v18.626m0 0h.756M405.901 135.521l2.241-18.49m0 .001l-.75-.091m0 0l-2.241 18.49m0-.001l.75.091M90.417 258.378v68.015m0 0H14.844m0 0v-68.015m0 0h75.573M92.306 260.267v64.237m0 0l-.144.723m0 0l-.409.613m0 0l-.613.409m0 0l-.723.144m0 0v-68.015m0 0l.723.144m0 0l.613.409m0 0l.409.613m0 0l.144.723M11.066 258.378v68.015m0 0h3.778m0 0v-68.015m0 0h-3.778M11.066 326.393v-68.015m0 0h1.89m0 0v68.015m0 0h-1.89M11.066 328.282v17.004m0 0h18.893m0 0v-17.004m0 0H11.066M11.066 256.488v-17.004m0 0h18.893m0 0v17.004m0 0H11.066M16.734 298.432v25.694m0 0l.11.267m0 0l.268.111m0 0h12.469m0 0l.267-.111m0 0l.111-.267m0 0v-25.694m0 0l-.111-.268m0 0l-.267-.111m0 0H17.112m0 0l-.268.111m0 0l-.11.268M16.734 286.339v-25.694m0 0l.11-.268m0 0l.268-.11m0 0h12.469m0 0l.267.11m0 0l.111.268m0 0v25.694m0 0l-.111.268m0 0l-.267.11m0 0H17.112m0 0l-.268-.11m0 0l-.11-.268M28.935 258.378v1.889M28.935 286.717v11.336M28.935 324.504v1.889M33.945 258.378v68.015m0 0h18.686m0 0l-14.908-68.015m0 0h-3.778M388.74 90.417h-68.016m0 0V14.845m0 0h68.016m0 0v75.572M386.85 92.307h-64.236m0 0l-.723-.144m0 0l-.613-.41m0 0l-.409-.612m0 0l-.145-.724m0 0h68.016m0 0l-.144.724m0 0l-.41.612m0 0l-.612.41m0 0l-.724.144M388.74 11.066h-68.016m0 0v3.778m0 0h68.016m0 0v-3.778M320.724 11.066h68.016m0 0v1.889m0 0h-68.016m0 0v-1.889M318.835 11.066h-17.004m0 0V29.96m0 0h17.004m0 0V11.066M390.63 11.066h17.004m-.001 0V29.96m0 0H390.63m0 0V11.066M348.686 16.735h-25.694m0 0l-.268.11m0 0l-.11.268m0-.001v12.469m0 0l.11.267m0 0l.268.111m0 .001h25.694m0 0l.268-.111m0-.001l.11-.267m0 0V17.112m0 0l-.11-.268m0 .001l-.268-.11M360.778 16.735h25.694m0 0l.268.11m0 0l.11.268m0-.001v12.469m0 0l-.11.267m0 0l-.268.111m0 .001h-25.694m0 0l-.268-.111m0-.001l-.11-.267m0 0V17.112m0 0l.11-.268m0 .001l.268-.11M388.74 28.936h-1.89M360.4 28.936h-11.336M322.614 28.936h-1.89M388.74 33.945h-68.016m0 0v18.686m0 0l68.016-14.908m0 0v-3.778M222.714 120.311l-.448 1.232m0 0v1.313m0 0l.448 1.233m0 0l-.342 1.473m0 0v1.513m0 0l.342 1.472m0 0l-.45 1.235m0 0v1.314m0 0l.45 1.235m0 0l-2.987-2.232m0 0v-7.558m0 0l2.987-2.23M219.465 122.541v7.558m0 0h.262m0 0v-7.558m0 0h-.262M218.943 122.541v7.558m0 0h.261m0 0v-7.558m0 0h-.261M224.23 127.161l.085-.891m0 0l-.226-.021m0 0l-.046.477m0 0l-1.142-1.383m0 0l-.151.126m0 0l.529.641m0 0l-.081.068m0 0l-.611-.741m0 0l-.146.121m0 0l.61.74m0 0l-.097.081m0 0l-.496-.602m0 0l-.13.108m0 0l.496.601m0 0l-.098.08m0 0l-.342-.414m0 0l-.139.115m0 0l1.173 1.422M234.383 114.394v23.257m0 0h-22.672m0 0v-23.257m0 0h22.672M211.711 114.394v-13.773m0 0h22.672m.001 0v13.773m0 0h-22.672M301.382 278.547v.964m0 0h1.204m0 0v12.523m0 0h-1.204m0 0v.964M291.856 280.011l.104.048m.103.047l.103.047m.103.046l.103.048m.103.047l.103.047m.103.048l.104.047m.102.047l.104.047m.103.046l.103.048m.102.047l.104.047m.103.048l.103.047m.103.047l.103.047m.104.047l.103.047m.103.048l.102.047m.104.047l.103.047m.103.048l.103.046m.103.047l.103.048m.104.047l.102.047m.104.047l.102.048M291.856 289.645l.104-.047m.103-.047l.103-.048m.103-.046l.103-.047m.103-.047l.103-.048m.103-.047l.104-.047m.102-.048l.104-.047m.103-.046l.103-.048m.102-.047l.104-.047m.103-.047l.103-.048m.103-.047l.103-.047m.104-.047l.103-.047m.103-.047l.102-.047m.104-.048l.103-.047m.103-.047l.103-.047m.103-.048l.103-.047m.104-.047l.102-.047m.104-.048l.102-.047M291.856 280.011v.078m0 .113v.114m0 .113v.113m0 .114v.078m0 0l.052.042m.088.071l.089.071m.086.072l.089.072m.088.071l.088.071m.088.072l.088.071m.088.071l.088.072m.088.072l.088.071m.088.071l.088.072m.088.071l.088.071m.088.072l.088.072m.089.071l.087.071m.088.072l.088.072m.088.071l.088.071m.088.072l.088.071m.088.071l.088.072m.088.072l.088.071m.088.071l.088.072m.088.071l.088.071m.088.072l.089.072m.088.071l.087.071m.088.072l.088.071m.088.072l.088.072m.088.071l.052.042M291.856 289.645v-.078m0-.113v-.114m0-.113v-.113m0-.115v-.078m0 .001l.052-.042m.088-.071l.089-.071m.086-.073l.089-.071m.088-.071l.088-.072m.088-.072l.088-.071m.088-.071l.088-.072m.088-.07l.088-.071m.088-.072l.088-.072m.088-.071l.088-.071m.088-.073l.088-.072m.089-.07l.087-.071m.088-.073l.088-.071m.088-.07l.088-.072m.088-.072l.088-.071m.088-.071l.088-.072m.088-.071l.088-.071m.088-.072l.088-.072m.088-.072l.088-.071m.088-.071l.089-.071m.088-.072l.087-.071m.088-.072l.088-.071m.088-.071l.088-.072m.088-.071l.052-.043M291.378 289.645v-9.634m0-.001h.478m.001 0v.723m0 .001h-.237m-.001 0v8.188m0 0h.237m.001 0v.723m0 0h-.478M259.322 233.911h22.672m0 0v-27.49m0 0h-22.672m0 0v27.49M281.994 283.317h-22.672m0 0v54.979m0-.001h22.672m0 0v-54.979M259.322 310.806h22.672m0 0v-27.489m0 0h-22.672m0 0v27.489M306.654 20.264l3.68-.86m0 0l1.583-3.431m0 0l-1.583 3.431m0 0l1.305 3.546M402.81 20.264l-3.679-.86m0 0l-1.584-3.431m0 0l1.584 3.431m0 0l-1.306 3.546M20.761 244.307l.86 3.68m0 0l3.431 1.583m0 0l-3.431-1.583m0 0l-3.546 1.306M20.761 340.463l.86-3.679m0 0l3.431-1.584m0 0l-3.431 1.584m0 0l-3.546-1.306M384.596 205.284h3.028m0 0v-.859m0-.001V187.25m0 0v-.859m0-.001h-3.028M391.051 186.39h-3.427m0 0v.859m0 .001h3.224m0 0v-.058m0-.001l-.196-.294m0 .001l.087-.342m0-.001l.312-.165M393.41 187.192l-.197-.294m0 0l.087-.342m0 0l.313-.165m0 0h-2.562m0 0l-.312.165m0 0l-.087.342m0 0l.196.294m0 0v17.291m0 0l-.196.293m0 0l.087.343m0 0l.312.165m0 0h2.562m0 0l-.313-.165m0 0l-.087-.343m0 0l.197-.293m0 0v-17.291M391.051 205.284l-.312-.165m0 0l-.087-.343m0 0l.196-.293m0-.001v-.058m0 0h-3.224m0 0v.859m0 .001h3.427M393.816 203.62l.227-1.004v-13.557l-.227-1.005zM393.816 188.054v15.565m0 0l.227-1.004m0 0v-13.556m0 0l-.227-1.005M393.816 187.192l.196-.294m0 0l-.087-.342m0 0l-.312-.165m0 0l-.313.165m0 0l-.087.342m0 0l.197.294m0 0v17.291m0 0l-.197.293m0 0l.087.343m0 0l.313.165m0 0l.312-.165m0 0l.087-.343m0 0l-.196-.293m0 0v-17.291M384.596 227.2h3.028m0 0v-.859m0 0v-17.175m0 0v-.859m0 0h-3.028M391.051 208.307h-3.427m0 0v.859m0 0h3.224m0 0v-.058m0 0l-.196-.293m0 0l.087-.343m0 0l.312-.165M393.41 209.108l-.197-.293m0 0l.087-.343m0 0l.313-.165m0 0h-2.562m0 0l-.312.165m0 0l-.087.343m0 0l.196.293m0 0v17.291m0 0l-.196.293m0 0l.087.343m0 0l.312.165m0 0h2.562m0 0l-.313-.165m0 0l-.087-.343m0 0l.197-.293m0 0v-17.291M391.051 227.2l-.312-.165m0 0l-.087-.342m0 0l.196-.294m0 0v-.058m0 0h-3.224m0 0v.859m0 0h3.427M393.816 225.537l.227-1.006v-13.556l-.227-1.004zM393.816 209.971v15.565m0 0l.227-1.004m0 0v-13.557m0 0l-.227-1.004M393.816 209.108l.196-.293m0 0l-.087-.343m0 0l-.312-.165m0 0l-.313.165m0 0l-.087.343m0 0l.197.293m0 0v17.291m0 0l-.197.293m0 0l.087.343m0 0l.313.165m0 0l.312-.165m0 0l.087-.343m0 0l-.196-.293m0 0v-17.291M350.588 205.284h-3.028m-.001 0v-.859m0-.001V187.25m0 0v-.859m0-.001h3.028M344.133 186.39h3.427m0 0v.859m0 .001h-3.224m0 0v-.058m0-.001l.196-.294m0 .001l-.087-.342m0-.001l-.312-.165M341.774 187.192l.197-.294m0 0l-.087-.342m0 0l-.313-.165m-.001 0h2.562m.001 0l.313.165m-.001 0l.087.342m0 0l-.197.294m0 0v17.291m0 0l.197.293m0 0l-.087.343m0 0l-.313.165m.001 0h-2.562m-.001 0l.313-.165m.001 0l.087-.343m0 0l-.197-.293m0 0v-17.291M344.133 205.284l.312-.165m0 0l.087-.343m0 0l-.196-.293m0-.001v-.058m0 0h3.224m0 0v.859m0 .001h-3.427M341.141 189.059v13.557l.227 1.004v-15.565zM341.368 188.054v15.565m0 0l-.227-1.004m0 0v-13.556m0 0l.227-1.005M341.368 187.192l-.196-.294m0 0l.086-.342m0 0l.313-.165m0 0l.312.165m0 0l.087.342m0 0l-.197.294m0 0v17.291m0 0l.197.293m0 0l-.087.343m0 0l-.312.165m0 0l-.313-.165m0 0l-.086-.343m0 0l.196-.293m0 0v-17.291M350.588 227.2h-3.028m-.001 0v-.859m0 0v-17.175m0 0v-.859m0 0h3.028M344.133 208.307h3.427m0 0v.859m0 0h-3.224m0 0v-.058m0 0l.196-.293m0 0l-.087-.343m0 0l-.312-.165M341.774 209.108l.197-.293m0 0l-.087-.343m0 0l-.313-.165m-.001 0h2.562m.001 0l.313.165m-.001 0l.087.343m0 0l-.197.293m0 0v17.291m0 0l.197.293m0 0l-.087.343m0 0l-.313.165m.001 0h-2.562m-.001 0l.313-.165m.001 0l.087-.343m0 0l-.197-.293m0 0v-17.291M344.133 227.2l.312-.165m0 0l.087-.342m0 0l-.196-.294m0 0v-.058m0 0h3.224m0 0v.859m0 0h-3.427M341.141 210.975v13.556l.227 1.005v-15.565zM341.368 209.971v15.565m0 0l-.227-1.004m0 0v-13.557m0 0l.227-1.004M341.368 209.108l-.196-.293m0 0l.086-.343m0 0l.313-.165m0 0l.312.165m0 0l.087.343m0 0l-.197.293m0 0v17.291m0 0l.197.293m0 0l-.087.343m0 0l-.312.165m0 0l-.313-.165m0 0l-.086-.343m0 0l.196-.293m0 0v-17.291M384.596 230.223h3.028m0 0v.859m0 .001v17.175m0-.001v.859m0 .001h-3.028M391.051 249.117h-3.427m0 0v-.859m0 0h3.224m0 0v.058m0 0l-.196.293m0 0l.087.343m0 0l.312.165M393.41 248.315l-.197.293m0 0l.087.343m0 0l.313.165m0 0h-2.562m0 0l-.312-.165m0 0l-.087-.343m0 0l.196-.293m0 0v-17.291m0 0l-.196-.293m0 0l.087-.343m0 0l.312-.165m0 0h2.562m0 0l-.313.165m0 0l-.087.343m0 0l.197.293m0 0v17.291M391.051 230.223l-.312.165m0 .001l-.087.342m0-.001l.196.294m0 0v.058m0 .001h-3.224m0 0v-.859m0-.001h3.427M393.816 247.452l.227-1.003v-13.558l-.227-1.004zM393.816 247.453v-15.565m0 0l.227 1.004m0 0v13.557m0 0l-.227 1.004M393.816 248.315l.196.293m0 0l-.087.343m0 0l-.312.165m0 0l-.313-.165m0 0l-.087-.343m0 0l.197-.293m0 0v-17.291m0 0l-.197-.293m0 0l.087-.343m0 0l.313-.165m0 0l.312.165m0 0l.087.343m0 0l-.196.293m0 0v17.291M350.588 230.223h-3.028m-.001 0v.859m0 .001v17.175m0-.001v.859m0 .001h3.028M344.133 249.117h3.427m0 0v-.859m0 0h-3.224m0 0v.058m0 0l.196.293m0 0l-.087.343m0 0l-.312.165M341.774 248.315l.197.293m0 0l-.087.343m0 0l-.313.165m-.001 0h2.562m.001 0l.313-.165m-.001 0l.087-.343m0 0l-.197-.293m0 0v-17.291m0 0l.197-.293m0 0l-.087-.343m0 0l-.313-.165m.001 0h-2.562m-.001 0l.313.165m.001 0l.087.343m0 0l-.197.293m0 0v17.291M344.133 230.223l.312.165m0 .001l.087.342m0-.001l-.196.294m0 0v.058m0 .001h3.224m0 0v-.859m0-.001h-3.427M341.141 232.891v13.558l.227 1.003v-15.565zM341.368 247.453v-15.565m0 0l-.227 1.004m0 0v13.557m0 0l.227 1.004M341.368 248.315l-.196.293m0 0l.086.343m0 0l.313.165m0 0l.312-.165m0 0l.087-.343m0 0l-.197-.293m0 0v-17.291m0 0l.197-.293m0 0l-.087-.343m0 0l-.312-.165m0 0l-.313.165m0 0l-.086.343m0 0l.196.293m0 0v17.291M350.588 257.429h34.007m0 0v-79.351m0 0h-34.007m0 0v79.351"/></g><g id="walls"><path d="M139.565 347.174h28.528v23.806h-56.679v-23.806h19.082V206.421h9.069v140.753h0zM.134 370.98v-23.806h28.15v23.806H.134h0zm0-224.261v-8.313H149.86v0h1.058v1.511h.454v6.802H.134h0zM446.956.108h0v23.994h-23.805V.108h23.805zM211.737 11.066V137.65h22.671v9.068h-42.981v-8.313h10.107V.108h10.203v10.958h0zm-20.311 135.653v-8.313h-1.059v1.511h-.453v6.802h1.512zm231.725 0H275.924v-.007H380.726v-9.061h42.426v-30.418h23.805v106.746h-23.805v-67.26h-.001zm-66.126 200.456h30.606v23.806h-30.606v-23.806h0zm-122.805 0h81.24v23.806h-81.24v-23.806z" fill-rule="evenodd" clip-rule="evenodd" stroke="#000" stroke-linecap="round" stroke-linejoin="round" stroke-miterlimit="3"/><path class="st0" d="M.134 209.444v-62.725h10.958v12.092H30.74v-12.092h3.023v15.114H11.092v44.588h79.35l.001-4.218h1.511v-.453h1.512v4.671h3.779v1.512h-.453v1.511h-3.326v22.672h-3.023v-22.672h-79.35v137.73H.134v-137.73zm281.87 70.849h.015v-73.872h3.022v140.754h-3.022v-63.859h-22.673V261.4h22.658v3.022h-19.635v15.871h19.635zM221.94 146.719v-.007h-10.205v-9.069h22.673v9.069h-9.446v13.611H207.58v-13.604h3.023v10.58h11.337v-10.58zm60.834-78.24v36.222h-1.512v.454h-1.511v-4.535h-68.015v-3.022h68.015V67.422h1.51v-.453h1.513v1.51zm-47.988-44.566v3.023h-23.049v-3.022h20.026V11.066h-20.026V.108h211.414v10.958H282.775v28.696h-1.513v-.454h-1.51V15.6h-44.966v8.313zm147.013 113.73v9.069H275.924v-9.069h3.828v-1.505h1.511v.453h1.512v1.051h99.024v.001zm-251.303 71.801h-1.814v-1.511h-.453v-1.512h2.267v3.023zm-40.053-62.725v27.372h1.511v.453h1.512l.001-27.825h-3.024zM234.786 11.066v1.512h44.966v-1.512h-44.966z"/><path class="st4" d="M99.372 222.002c-1.818-4.868-2.317-7.368-2.582-12.557"/><path class="st5" d="M99.409 222.103l29.273-12.658v-1.512h-.453L98.81 220.715z"/><path class="st4" d="M79.39 176.361c4.297-1.604 6.473-2.036 11.053-2.27"/><path class="st5" d="M79.284 176.399l11.158 25.805 1.511-.001v-.453L80.672 175.8z"/><path class="st4" d="M154.117 122.846c-2.407 5.451-2.856 8.87-3.197 15.561"/><path class="st5" d="M154.159 122.748l-.599 1.387 36.354 15.782h.453l.001-1.512z"/><g><path class="st5" d="M295.433 107.321l-1.388-.602-12.783 29.419v.454l1.513-.001z"/><path class="st4" d="M268.69 65.148c4.12 1.536 6.528 2.042 11.061 2.273"/><path class="st5" d="M268.592 65.112l1.389.601 11.281-25.951v-.454l-1.511-.001z"/></g><g><path class="st4" d="M29.039 370.981H5.989m0 0v108.068m0 0h481.776m.001 0V5.037m0 0h-40.809m0 0V23.93m0 0v81.618m0 0v265.433m0 0H233.464m0 0H168.85m-.001 0h-58.192m0 0H29.039M234.219 363.424v-16.248M234.219 370.981v-5.668M234.219 365.313v-1.889M168.093 363.424v-16.248M168.093 370.981v-5.668M168.093 365.313v-1.889M168.093 370.981h66.126M168.093 347.176h66.126M168.093 363.424h3.778M171.871 363.424v1.889M171.871 365.313h-3.778M199.267 365.313h-1.89M197.377 365.313v-1.889M197.377 363.424h1.89M171.871 364.368h25.507M171.871 363.424h25.507M197.377 365.313h-25.506M199.267 363.424h.944M200.211 363.424v.944M200.211 364.368h.945M201.157 364.368v.944M201.157 365.313h-1.89M234.219 365.313h-3.778M230.441 365.313v-.944M230.441 364.368h.944M231.385 364.368v-.944M231.385 363.424h2.834M231.385 362.479l-22.043-22.043M230.441 365.313h-29.284M203.045 362.479h25.506M200.211 362.479h2.834M203.045 362.479v1.89M203.045 364.368h-2.834M200.211 364.368v-1.89M231.385 364.368h-2.834M228.551 364.368v-1.89M228.551 362.479h2.834M231.385 362.479v1.89M228.551 364.368h-25.506M203.045 362.479h25.506M203.045 363.424h25.506M200.211 362.479a31.176 31.176 0 019.131-22.043M168.093 365.313v-1.889M168.093 365.313v-1.889M168.093 370.981v-5.668M168.093 363.424v-16.248M234.219 365.313v-1.889M234.219 365.313v-1.889M234.219 370.981v-5.668M234.219 363.424v-16.248"/><g><path class="st4" d="M28.284 363.424v-16.248M28.284 370.981v-5.668M28.284 365.313v-1.889M111.414 363.424v-16.248M111.414 370.981v-5.668M111.414 365.313v-1.889M111.414 370.981h-83.13M111.414 347.176h-83.13M111.414 363.424h-3.778M107.635 363.424v1.889M107.635 365.313h3.778M56.624 365.313h1.889M58.513 365.313v-1.889M58.513 363.424h-1.89M107.635 364.368H58.513M107.635 363.424H58.513M58.513 365.313h49.122M56.624 363.424h-.945M55.679 363.424v.944M55.679 364.368h-.944M54.735 364.368v.944M54.735 365.313h1.889M28.284 365.313h3.779M32.063 365.313v-.944M32.063 364.368h-.945M31.118 364.368v-.944M31.118 363.424h-2.834M32.063 365.313h22.672M52.845 362.479H33.951M55.679 362.479h-2.834M52.845 362.479v1.89M52.845 364.368h2.834M55.679 364.368v-1.89M31.118 364.368h2.834M33.952 364.368v-1.89M33.952 362.479h-2.835M31.118 362.479v1.89M33.952 364.368h18.894M52.845 362.479H33.951M52.845 363.424H33.951M111.414 365.313v-1.889M111.414 365.313v-1.889M111.414 370.981v-5.668M111.414 363.424v-16.248M28.284 365.313v-1.889M28.284 365.313v-1.889M28.284 370.981v-5.668M28.284 363.424v-16.248"/></g><g><path class="st4" d="M357.025 363.424v-16.248M357.025 370.981v-5.668M357.025 365.313v-1.889M315.459 363.424v-16.248M315.459 370.981v-5.668M315.459 365.313v-1.889M315.459 370.981h41.566M315.459 347.176h41.566M315.459 363.424h3.779M319.239 363.424v1.889M319.239 365.313h-3.779M328.685 365.313h-1.89M326.795 365.313v-1.889M326.795 363.424h1.89M319.239 364.368h7.557M319.239 363.424h7.557M326.795 365.313h-7.557M328.685 363.424h.944M329.629 363.424v.944M329.629 364.368h.945M330.575 364.368v.944M330.575 365.313h-1.89M357.025 365.313h-3.778M353.247 365.313v-.944M353.247 364.368h.944M354.191 364.368v-.944M354.191 363.424h2.834M353.247 365.313h-22.672M332.463 362.479h18.894M329.629 362.479h2.834M332.463 362.479v1.89M332.463 364.368h-2.834M329.629 364.368v-1.89M354.191 364.368h-2.834M351.357 364.368v-1.89M351.357 362.479h2.834M354.191 362.479v1.89M351.357 364.368h-18.894M332.463 362.479h18.894M332.463 363.424h18.894M315.459 365.313v-1.889M315.459 365.313v-1.889M315.459 370.981v-5.668M315.459 363.424v-16.248M357.025 365.313v-1.889M357.025 365.313v-1.889M357.025 370.981v-5.668M357.025 363.424v-16.248"/><g><path class="st4" d="M439.399 107.233h-16.248M446.957 107.233h-5.669M441.288 107.233h-1.889M446.957 107.233V24.102M423.151 107.233V24.102M439.399 107.233v-3.78M441.288 103.453v3.779M441.288 107.233h-1.889M441.288 107.233h-1.889M446.957 107.233h-5.669M439.399 107.233h-16.248M439.399 24.103h-16.248M446.957 24.103h-5.669M441.288 24.103h-1.889M439.399 103.453h1.889M441.288 67.557v1.89M441.288 69.447h-1.889M439.399 69.447v-1.891M440.343 103.453V69.446M439.399 103.453V69.446M441.288 69.447v34.006M439.399 67.557v-.944M439.399 66.613h.944M440.343 66.613v-.944M440.343 65.668h.944M441.288 65.668v1.889M441.288 24.103v3.778M441.288 27.881h-.944M440.343 27.881v-.944M440.343 26.937h-.944M439.399 26.937v-2.834M438.455 26.937l-28.057 28.055M441.288 27.881v37.787M438.455 63.778V29.77M438.455 66.613v-2.835M438.455 63.778h1.889M440.343 63.778v2.835M440.343 66.613h-1.889M440.343 26.937v2.834M440.343 29.771h-1.889M438.455 29.771v-2.834M438.455 26.937h1.889M440.343 29.771v34.008M438.455 63.778V29.77M439.399 63.778V29.77M438.455 66.613a39.683 39.683 0 01-28.056-11.621M441.288 24.103h-1.889M441.288 24.103h-1.889M446.957 24.103h-5.669M439.399 24.103h-16.248"/><g><path class="st4" d="M387.631 363.424v-16.248M387.631 370.981v-5.668M387.631 365.313v-1.889M387.631 370.981h59.325M387.631 347.176h35.52M387.631 363.424h4.724M392.355 363.424v1.889M392.355 365.313h-4.724M439.399 365.313h-4.724M434.675 365.313v-1.889M434.675 363.424h4.724M441.288 365.313h-1.889M392.355 363.424h42.32M434.675 365.313h-42.32M387.631 365.313v-1.889M387.631 365.313v-1.889M387.631 370.981v-5.668M387.631 363.424v-16.248M439.399 213.979h-16.248M446.957 213.979h-5.669M441.288 213.979h-1.889M446.957 213.979v157.002M423.151 213.979v133.197M439.399 213.979v4.724M439.399 218.702h1.889M441.288 218.702v-4.724M441.288 363.424V358.7M441.288 358.7h-1.889M439.399 358.7v4.724M441.288 365.313v-1.889M439.399 218.702V358.7M441.288 358.7V218.702M441.288 213.979h-1.889M441.288 213.979h-1.889M446.957 213.979h-5.669M439.399 213.979h-16.248"/></g></g></g></g><g><path class="st6" d="M439.442 260.032h1.89v5.133h-1.89zM439.442 302.539h1.89v5.133h-1.89z"/></g><g><path class="st7" d="M1.188 146.91l-.89.78M8.618 146.91l-8.32 7.33M11.258 151.12l-10.96 9.66M11.258 157.66l-10.96 9.65M11.258 164.19l-10.96 9.66M17.148 159l-3.42 3.02M33.928 150.76l-3.02 2.67M11.258 170.74l-10.96 9.65M24.578 159l-3.43 3.02M212.148.3l-.25.22M33.928 157.3l-5.35 4.72M11.258 177.27l-10.96 9.66M219.578.3l-7.68 6.76M11.258 183.81l-10.96 9.66M226.998.3l-12.44 10.96M11.258 190.35L.298 200M234.428.3l-12.45 10.96M11.258 196.89l-10.96 9.66M241.838.3l-12.44 10.96M214.808 24.11l-2.91 2.57M11.258 203.43l-10.96 9.65M222.228 24.11l-3.42 3.02M249.258.3l-12.44 10.96M235.108 12.77l-3.18 2.8M11.258 209.96l-10.96 9.66M15.068 206.61l-3.44 3.03M234.948 19.45l-3.02 2.66M229.658 24.11l-3.43 3.02M256.688.3l-12.45 10.96M242.528 12.77l-3.43 3.02M11.258 216.5l-10.96 9.66M22.488 206.61l-3.44 3.03M234.948 25.99l-1.3 1.14M264.108.3l-12.44 10.96M249.948 12.77l-3.43 3.02M93.628 150.48l-3.02 2.66M11.258 223.04l-10.96 9.65M29.908 206.61l-3.44 3.03M257.378 12.77l-3.43 3.02M271.528.3l-12.44 10.96M11.258 229.58l-10.96 9.66M93.628 157.02l-3.02 2.66M37.338 206.61l-3.44 3.03M264.798 12.77l-3.43 3.02M278.958.3l-12.44 10.96M11.258 236.12l-10.96 9.66M93.628 163.56l-3.02 2.66M44.758 206.61l-3.44 3.03M272.218 12.77l-3.43 3.02M286.368.3l-12.44 10.96M93.628 170.09l-3.02 2.66M11.258 242.66l-10.96 9.65M52.178 206.61l-3.44 3.03M279.638 12.77l-3.43 3.02M293.788.3l-13.87 12.22M11.258 249.19l-10.96 9.66M59.598 206.61l-3.44 3.03M282.938 16.4l-3.02 2.66M301.218.3l-12.44 10.96M11.258 255.74l-10.96 9.65M67.028 206.61l-3.44 3.03M282.938 22.94l-3.02 2.66M308.638.3l-12.44 10.96M11.258 262.27l-10.96 9.66M74.448 206.61l-3.44 3.03M282.938 29.48l-3.02 2.66M316.068.3l-12.45 10.96M11.258 268.81l-10.96 9.66M81.868 206.61l-3.44 3.03M282.938 36.02l-3.02 2.66M323.488.3l-12.44 10.96M212.818 97.79l-.92.81M93.628 202.79l-3.02 2.66M11.258 275.35L.298 285M89.288 206.61l-3.44 3.03M220.248 97.79l-3.43 3.02M330.908.3l-12.44 10.96M11.258 281.89l-10.96 9.66M96.718 206.61l-6.11 5.38M227.658 97.79l-3.43 3.02M338.328.3l-12.44 10.96M11.258 288.43l-10.96 9.65M93.628 215.86l-3.02 2.66M235.088 97.79l-3.43 3.02M345.748.3l-12.44 10.96M11.258 294.96l-10.96 9.66M93.628 222.4l-3.02 2.66M242.508 97.79l-3.43 3.02M353.178.3l-12.45 10.96M93.628 228.94l-3.02 2.66M11.258 301.5l-10.96 9.66M249.928 97.79l-3.43 3.02M282.938 68.71l-3.02 2.66M360.598.3l-12.44 10.96M11.258 308.04l-10.96 9.65M282.938 75.25l-3.02 2.66M257.358 97.79l-3.43 3.02M368.018.3l-12.44 10.96M130.658 209.4l-.27.24M11.258 314.58l-10.96 9.66M219.328 137.83l-7.43 6.54M375.448.3l-12.44 10.96M264.778 97.79l-3.43 3.02M282.938 81.79l-3.02 2.66M209.018 146.91l-1.27 1.12M11.258 321.12l-10.96 9.66M210.768 151.9l-3.02 2.66M282.938 88.32l-3.02 2.66M272.188 97.79l-3.42 3.02M382.858.3l-12.44 10.96M226.738 137.83l-10.29 9.07M11.258 327.66l-10.96 9.65M211.848 157.49l-3.43 3.02M282.938 94.86l-3.02 2.66M279.618 97.79l-3.43 3.02M390.278.3l-12.44 10.96M234.158 137.83l-12.05 10.62M11.258 334.19l-10.96 9.66M219.268 157.49l-3.42 3.02M397.708.3l-12.44 10.96M282.938 101.4l-3.02 2.66M234.578 144.01l-3.28 2.89M225.128 152.33l-3.02 2.66M11.258 340.74l-7.53 6.63M405.128.3l-12.44 10.96M225.128 158.87l-1.86 1.64M11.258 347.27l-.11.1M412.558.3l-12.45 10.96M419.978.3l-12.44 10.96M423.318 3.9l-8.36 7.36M423.318 10.43l-.94.83M280.398 136.33l-.48.43M278.698 137.83l-2.61 2.3M286.118 137.83l-10.03 8.84M293.548 137.83l-10.3 9.07M300.968 137.83l-10.3 9.07M308.388 137.83l-10.29 9.07M315.818 137.83l-10.3 9.07M323.228 137.83l-10.29 9.07M330.648 137.83l-10.29 9.07M338.078 137.83l-10.3 9.07M345.498 137.83l-10.29 9.07M352.928 137.83l-10.3 9.07M282.268 206.61l-.08.07M360.348 137.83l-10.3 9.07M285.208 210.55l-3.02 2.66M367.758 137.83l-10.29 9.07M285.208 217.1l-3.02 2.66M375.188 137.83l-10.3 9.07M285.208 223.63l-3.02 2.66M381.968 138.4l-9.65 8.5M381.968 144.93l-2.23 1.97M285.208 230.17l-3.02 2.66M285.208 236.71l-3.02 2.66M264.398 261.59l-4.89 4.3M285.208 243.25l-3.02 2.66M285.208 249.79l-3.02 2.66M262.538 269.76l-3.03 2.67M271.818 261.59l-3.43 3.02M285.208 256.33l-3.02 2.66M279.228 261.59l-3.42 3.02M262.538 276.3l-3.03 2.67M285.208 262.86l-3.02 2.66M265.208 280.48l-3.44 3.03M285.208 269.41l-3.02 2.66M272.638 280.48l-3.44 3.03M285.208 275.94l-3.02 2.66M280.058 280.48l-3.44 3.03M285.208 282.48l-3.02 2.66M285.208 289.02l-3.02 2.66M285.208 295.55l-3.02 2.66M285.208 302.1l-3.02 2.66M285.208 308.64l-3.02 2.66M285.208 315.17l-3.02 2.66M285.208 321.71l-3.02 2.66M285.208 328.25l-3.02 2.66M285.208 334.79l-3.02 2.66M285.208 341.33l-3.02 2.66"/></g><path class="st6" d="M.134 209.444v-62.725h10.958v12.092H30.74v-12.092h3.023v15.114H11.092v44.588h79.35l.001-4.218h1.511v-.453h1.512v4.671h3.779v1.512h-.453v1.511h-3.326v22.672h-3.023v-22.672h-79.35v137.73H.134v-137.73zm281.87 70.849h.015v-73.872h3.022v140.754h-3.022v-63.859h-22.673V261.4h22.658v3.022h-19.635v15.871h19.635zM221.94 146.719v-.007h-10.205v-9.069h22.673v9.069h-9.446v13.611H207.58v-13.604h3.023v10.58h11.337v-10.58zm60.834-78.24v36.222h-1.512v.454h-1.511v-4.535h-68.015v-3.022h68.015V67.422h1.51v-.453h1.513v1.51zm-47.988-44.566v3.023h-23.049v-3.022h20.026V11.066h-20.026V.108h211.414v10.958H282.775v28.696h-1.513v-.454h-1.51V15.6h-44.966v8.313zm147.013 113.73v9.069H275.924v-9.069h3.828v-1.505h1.511v.453h1.512v1.051h99.024v.001zm-251.303 71.801h-1.814v-1.511h-.453v-1.512h2.267v3.023zm-40.053-62.725h3.023l-.001 27.825h-1.512v-.453h-1.511l.001-27.372zM234.786 11.066v1.512h44.966v-1.512h-44.966z"/></g><g id="sizes_5_"><path d="M107.682 341.12h-1.594v-9.625l-1.617.992v-1.648l1.617-1.078h1.594v11.359zM113.002 341.12h-1.594v-9.625l-1.617.992v-1.648l1.617-1.078h1.594v11.359zM115.424 339.527h1.594v1.594l-1.594 1.578v-3.172zM119.033 339.737l3.961-5.281c.229-.302.407-.616.535-.941s.191-.629.191-.91v-.016c0-.453-.133-.805-.398-1.055s-.644-.375-1.133-.375c-.464 0-.839.137-1.125.41s-.461.66-.523 1.16v.008h-1.648v-.008c.094-.651.285-1.207.574-1.668s.663-.813 1.121-1.055.987-.363 1.586-.363c.677 0 1.255.116 1.734.348s.844.569 1.094 1.012.375.977.375 1.602v.008c0 .401-.083.82-.25 1.258s-.398.859-.695 1.266l-3.289 4.469h4.297v1.516h-6.406v-1.385zM207.311 219.915h-1.594v-9.625l-1.617.992v-1.648l1.617-1.078h1.594v11.359zM211.873 220.032l-.727-.348c-.485-.232-.874-.567-1.168-1.008s-.48-.97-.559-1.59h1.625c.047.323.148.589.305.797s.358.363.605.465.538.152.871.152c.526 0 .935-.141 1.227-.422s.438-.677.438-1.188v-.344c0-.567-.138-1.007-.414-1.316s-.667-.465-1.172-.465h-.804v-1.516h.805c.442 0 .786-.133 1.031-.398s.367-.641.367-1.125v-.352c0-.448-.129-.794-.387-1.039s-.624-.367-1.098-.367c-.271 0-.513.051-.727.152s-.395.258-.543.469-.257.476-.324.793h-1.617c.104-.62.301-1.151.59-1.594s.655-.778 1.098-1.008.95-.344 1.523-.344c.979 0 1.737.258 2.273.773s.805 1.242.805 2.18v.188c0 .567-.153 1.063-.461 1.484s-.742.729-1.305.922c.62.136 1.101.44 1.441.914s.512 1.078.512 1.813v.188c0 .661-.128 1.227-.383 1.695s-.626.825-1.113 1.07-1.074.367-1.762.367l-.952.002zM218.193 218.321h1.594v1.594l-1.594 1.578v-3.172zM223.193 219.63c-.474-.269-.835-.659-1.082-1.172s-.371-1.132-.371-1.855v-.008c0-.422.05-.864.148-1.328a7.568 7.568 0 01.641-1.82l2.469-4.891h1.719l-2.898 5.664.008-.281c.13-.245.32-.435.57-.57s.542-.203.875-.203c.589 0 1.094.133 1.516.398s.742.652.961 1.16.328 1.118.328 1.832v.008c0 .729-.124 1.354-.371 1.875s-.609.917-1.086 1.188-1.048.406-1.715.406-1.238-.135-1.712-.403zm2.879-1.598c.273-.313.41-.758.41-1.336v-.008c0-.636-.144-1.126-.43-1.473s-.695-.52-1.227-.52c-.474 0-.841.175-1.102.523s-.391.841-.391 1.477v.008c0 .578.137 1.022.41 1.332s.66.465 1.16.465c.507.001.897-.156 1.17-.468zM215.379 165.412l-2.938 9.938h-1.695l2.938-9.844h-2.891v1.633h-1.594v-3.148h6.18v1.421zM217.41 173.756h1.594v1.594l-1.594 1.578v-3.172zM227.059 165.412l-2.938 9.938h-1.695l2.938-9.844h-2.891v1.633h-1.594v-3.148h6.18v1.421z"/><g><path d="M49.748 202.422l-.727-.348c-.485-.232-.874-.567-1.168-1.008s-.48-.97-.559-1.59h1.625c.047.323.148.589.305.797s.358.363.605.465.538.152.871.152c.526 0 .935-.141 1.227-.422s.438-.677.438-1.188v-.344c0-.567-.138-1.007-.414-1.316s-.667-.465-1.172-.465h-.805v-1.516h.805c.442 0 .786-.133 1.031-.398s.367-.641.367-1.125v-.352c0-.448-.129-.794-.387-1.039s-.624-.367-1.098-.367c-.271 0-.513.051-.727.152s-.395.258-.543.469-.257.476-.324.793h-1.617c.104-.62.301-1.151.59-1.594s.655-.778 1.098-1.008.95-.344 1.523-.344c.979 0 1.737.258 2.273.773s.805 1.242.805 2.18v.188c0 .567-.153 1.063-.461 1.484s-.742.729-1.305.922c.62.136 1.101.44 1.441.914s.512 1.078.512 1.813v.188c0 .661-.128 1.227-.383 1.695s-.626.825-1.113 1.07-1.074.367-1.762.367l-.951.002zM56.068 200.711h1.594v1.594l-1.594 1.578v-3.172zM62.592 202.304h-1.594v-9.625l-1.617.992v-1.648l1.617-1.078h1.594v11.359z"/></g><g><path d="M398.074 109.861h-1.594v-9.625l-1.617.992V99.58l1.617-1.078h1.594v11.359zM400.481 108.478l3.961-5.281c.229-.302.407-.616.535-.941s.191-.629.191-.91v-.016c0-.453-.133-.805-.398-1.055s-.644-.375-1.133-.375c-.464 0-.839.137-1.125.41s-.461.66-.523 1.16v.008h-1.648v-.008c.094-.651.285-1.207.574-1.668s.663-.813 1.121-1.055.987-.363 1.586-.363c.677 0 1.255.116 1.734.348s.844.569 1.094 1.012.375.977.375 1.602v.008c0 .401-.083.82-.25 1.258s-.398.859-.695 1.266l-3.289 4.469h4.297v1.516h-6.406v-1.385zM408.762 108.267h1.594v1.594l-1.594 1.578v-3.172zM418.41 99.923l-2.938 9.938h-1.695l2.938-9.844h-2.891v1.633h-1.594v-3.148h6.18v1.421z"/></g><g><path d="M235.945 58.44l-.727-.348c-.485-.232-.874-.567-1.168-1.008s-.48-.97-.559-1.59h1.625c.047.323.148.589.305.797s.358.363.605.465.538.152.871.152c.526 0 .935-.141 1.227-.422s.438-.677.438-1.188v-.344c0-.567-.138-1.007-.414-1.316s-.667-.465-1.172-.465h-.805v-1.516h.805c.442 0 .786-.133 1.031-.398s.367-.641.367-1.125v-.352c0-.448-.129-.794-.387-1.039s-.624-.367-1.098-.367c-.271 0-.513.051-.727.152s-.395.258-.543.469-.257.476-.324.793h-1.617c.104-.62.301-1.151.59-1.594s.655-.778 1.098-1.008.95-.344 1.523-.344c.979 0 1.737.258 2.273.773s.805 1.242.805 2.18v.188c0 .567-.153 1.063-.461 1.484s-.742.729-1.305.922c.62.136 1.101.44 1.441.914s.512 1.078.512 1.813v.188c0 .661-.128 1.227-.383 1.695s-.626.825-1.113 1.07-1.074.367-1.762.367l-.951.002zM242.266 56.729h1.594v1.594l-1.594 1.578v-3.172zM250.07 52.682l-.008.281c-.13.239-.327.415-.59.527s-.574.168-.934.168c-.542 0-1.019-.138-1.43-.414s-.73-.665-.957-1.168-.34-1.085-.34-1.746v-.008c0-.734.124-1.362.371-1.883s.609-.917 1.086-1.188 1.048-.406 1.715-.406 1.237.138 1.711.414.835.677 1.082 1.203.371 1.159.371 1.898v.008c0 .406-.052.84-.156 1.301a8.052 8.052 0 01-.539 1.578c-.031.07-.065.14-.102.207l-2.422 4.867h-1.719l2.861-5.639zm.075-.984c.273-.339.41-.815.41-1.43v-.008c0-.599-.137-1.063-.41-1.391s-.66-.492-1.16-.492c-.505 0-.895.164-1.168.492s-.41.794-.41 1.398v.008c0 .614.137 1.09.41 1.426s.663.504 1.168.504c.499.001.886-.168 1.16-.507z"/></g><g><path d="M312.901 339.019c-.521-.261-.923-.629-1.207-1.105s-.426-1.03-.426-1.66v-.188c0-.567.142-1.102.426-1.602s.663-.878 1.137-1.133c-.401-.219-.723-.535-.965-.949s-.363-.851-.363-1.309v-.273c0-.594.133-1.116.398-1.566s.641-.8 1.125-1.047 1.047-.371 1.688-.371 1.203.124 1.688.371.859.597 1.125 1.047.398.973.398 1.566v.273c0 .469-.124.909-.371 1.32s-.574.724-.98.938c.479.261.863.64 1.152 1.137s.434 1.03.434 1.598v.188c0 .63-.142 1.184-.426 1.66s-.687.845-1.207 1.105-1.125.391-1.813.391-1.293-.131-1.813-.391zm2.789-1.36c.281-.146.499-.351.652-.613s.23-.566.23-.91v-.109c0-.349-.077-.655-.23-.918s-.371-.468-.652-.613-.606-.219-.977-.219-.695.073-.977.219-.499.352-.652.617-.23.573-.23.922v.117c0 .344.077.646.23.906s.371.462.652.605.606.215.977.215.695-.073.977-.219zm-.133-5.121c.245-.138.435-.335.57-.59s.203-.55.203-.883v-.109c0-.317-.067-.599-.203-.844s-.325-.434-.57-.566-.526-.199-.844-.199-.599.066-.844.199-.435.321-.57.566-.203.528-.203.852v.117c0 .328.067.618.203.871s.325.448.57.586.526.207.844.207.599-.069.844-.207zM320.229 337.698h1.594v1.594l-1.594 1.578v-3.172zM325.994 339.409l-.727-.348c-.485-.232-.874-.567-1.168-1.008s-.48-.97-.559-1.59h1.625c.047.323.148.589.305.797s.358.363.605.465.538.152.871.152c.526 0 .935-.141 1.227-.422s.438-.677.438-1.188v-.344c0-.567-.138-1.007-.414-1.316s-.667-.465-1.172-.465h-.805v-1.516h.805c.442 0 .786-.133 1.031-.398s.367-.641.367-1.125v-.352c0-.448-.129-.794-.387-1.039s-.624-.367-1.098-.367c-.271 0-.513.051-.727.152s-.395.258-.543.469-.257.476-.324.793h-1.617c.104-.62.301-1.151.59-1.594s.655-.778 1.098-1.008.95-.344 1.523-.344c.979 0 1.737.258 2.273.773s.805 1.242.805 2.18v.188c0 .567-.153 1.063-.461 1.484s-.742.729-1.305.922c.62.136 1.101.44 1.441.914s.512 1.078.512 1.813v.188c0 .661-.128 1.227-.383 1.695s-.626.825-1.113 1.07-1.074.367-1.762.367l-.951.002z"/></g><g><path d="M227.539 437.119l3.813-8.227h1.641l-3.719 8.133h5.57v1.477h-7.305v-1.383zm4.899-3.554h1.555v6.688h-1.555v-6.688zM238.442 440.026c-.445-.224-.808-.55-1.086-.977s-.465-.94-.559-1.539v-.008h1.594v.008c.058.417.224.741.5.973s.636.348 1.078.348c.511 0 .905-.171 1.184-.512s.418-.821.418-1.441v-.953c0-.614-.14-1.093-.418-1.434s-.673-.512-1.184-.512c-.276 0-.542.078-.797.234s-.479.375-.672.656h-1.453v-5.984h5.789v1.516h-4.195v2.555a2.275 2.275 0 011.414-.508c.656 0 1.218.136 1.684.406s.82.667 1.063 1.188.363 1.148.363 1.883v.953c0 .734-.125 1.362-.375 1.883s-.614.918-1.094 1.191-1.055.41-1.727.41c-.573-.001-1.082-.113-1.527-.336zM245.352 438.651h1.594v1.594l-1.594 1.578v-3.172zM255 430.307l-2.938 9.938h-1.695l2.938-9.844h-2.891v1.633h-1.594v-3.148H255v1.421z"/></g><g><path d="M240.732 117.057h-1.594v-9.625l-1.617.992v-1.648l1.617-1.078h1.594v11.359zM243.153 115.464h1.594v1.594l-1.594 1.578v-3.172zM252.802 107.12l-2.938 9.938h-1.695l2.938-9.844h-2.891v1.633h-1.594v-3.148h6.18v1.421z"/></g><g><path d="M359.695 173.95h-1.594v-9.625l-1.617.992v-1.648l1.617-1.078h1.594v11.359zM365.016 173.95h-1.594v-9.625l-1.617.992v-1.648l1.617-1.078h1.594v11.359zM367.438 172.356h1.594v1.594l-1.594 1.578v-3.172zM373.961 173.95h-1.594v-9.625l-1.617.992v-1.648l1.617-1.078h1.594v11.359z"/></g></g></svg>