<svg version="1.1" id="_x33_37_1_" xmlns="http://www.w3.org/2000/svg" x="0" y="0" viewBox="0 0 302.036 310.281" xml:space="preserve"><style>.st0{fill-rule:evenodd;clip-rule:evenodd;fill:#fff}.st2,.st4{fill:none;stroke-linecap:round;stroke-linejoin:round;stroke-miterlimit:3}.st2{fill-rule:evenodd;clip-rule:evenodd;stroke:#999}.st4{stroke:#000}.st4,.st5,.st6{fill-rule:evenodd;clip-rule:evenodd}.st6{fill:none;stroke:#666;stroke-width:.6;stroke-miterlimit:22.9256}</style><path class="st0" d="M40.683 5.399H.377L.291 302.816h40.142v7.029h245L285.349.893 40.683.562z"/><g id="mebel_4_"><path d="M250.517 75.693l3.715-3.715-3.715 3.715h0zm-6.948 0l10.663-10.662-10.663 10.662h0zm23.257-23.256l5.543-5.543-5.543 5.543h0zm-30.203 23.256l17.609-17.609-17.609 17.609h0zm23.256-23.256l7.337-7.337-7.337 7.337h0zm-30.203 23.256l29.871-29.871-29.871 29.871h0zm41.877-41.877l.816-.816-.816.816h0zm-48.824 41.877l31.338-31.338-31.338 31.338h0zm42.541-42.541l6.581-6.581-6.581 6.581h0zm-49.488 42.541l35.548-35.548-35.548 35.548h0zm43.043-43.043l6.079-6.079-6.079 6.079h0zm-46.158 39.211l45.29-45.29-45.29 45.29h0zm0-6.947l38.343-38.343-38.343 38.343h0zm0-6.947l31.397-31.397-31.397 31.397h0zm0-6.947l24.449-24.449-24.449 24.449h0zm0-6.947L230.17 26.57l-17.503 17.503h0zm32.366-32.365l.13-.13m-32.496 25.548l10.555-10.555-10.555 10.555h0zm0-6.947l3.609-3.608-3.609 3.608h0zm59.702.072l-3.68-3.68 3.68 3.68h0zm-3.685 3.262l-6.942-6.942 6.942 6.942h0zm-7.766-.82l-6.122-6.122 6.122 6.122h0zm11.451 18.399l-5.912-5.912 5.912 5.912h0zM254.94 33.663l-7.092-7.092 7.092 7.092h0zm11.828 18.774l-6.636-6.636 6.636 6.636h0zm-15.18-15.18l-10.686-10.686 10.686 10.686h0zm8.233 15.18l-25.866-25.866 25.866 25.866h0zm-5.589 1.358l-27.224-27.224 27.224 27.224h0zm0 6.947l-34.171-34.171 34.171 34.171h0zm0 6.947L213.03 26.486l41.202 41.203h0zm-41.481-41.481l-.085-.084.085.084h0zm41.481 48.428l-41.565-41.565 41.565 41.565h0zm-5.89 1.057l-35.675-35.674 35.675 35.674h0zm-6.947 0l-28.728-28.727 28.728 28.727h0zm-6.947 0l-21.781-21.781 21.781 21.781h0zm-6.946 0l-14.835-14.835 14.835 14.835h0zm-6.947 0l-7.888-7.887 7.888 7.887h0zm-6.948 0l-.94-.94.94.94z" fill-rule="evenodd" clip-rule="evenodd" fill="none" stroke="#999" stroke-width=".4" stroke-linecap="round" stroke-linejoin="round" stroke-miterlimit="3"/><path class="st2" d="M212.668 11.456v64.237m0 0h-26.451m0 0V11.456m0 0h26.451M188.333 18.951l.081-.93m0 0l.238-.901m0 0l.39-.846m0 0l.529-.764m0 0l.652-.66m0 0l.755-.535m0 0l.836-.394m0 0l.891-.242m0 0l.919-.082m0 0h11.638m0 0l.918.082m0 0l.891.242m0 0l.836.394m0 0l.755.535m0 0l.652.66m0 0l.529.764m0 0l.389.846m0 0l.239.901m0 0l.081.93m0 0V62.31m0 0l-.169 1.953m0 0l-.502 1.893m0 0l-.818 1.775m0 0l-1.11 1.605m0 0l-1.37 1.386m0 0l-1.586 1.124m0 0l-1.755.828m0 0l-1.871.507m0 0l-1.929.171m0 0l-1.928-.171m0 0l-1.871-.507m0 0l-1.755-.828m0 0l-1.586-1.124m0 0l-1.37-1.386m0 0l-1.11-1.605m0 0l-.819-1.775m-.001 0l-.501-1.893m.001 0l-.169-1.953m0 0V18.951M200.387 20.525a.945.945 0 11-1.89-.001.945.945 0 011.89.001zM213.234 11.456h31.363m0 0l.4.166m0 0l.167.401m0 0v13.981m0 0l-.167.401m0 0l-.4.166m0 0h-31.363m0 0l-.401-.166m0 0l-.165-.401m0 0V12.023m0 0l.165-.401m0 0l.401-.166M214.368 15.613h14.094m.906 0h14.095M244.03 16.179v8.691M243.463 25.437h-29.095M213.801 24.871V16.18M243.463 15.613c.313 0 .567.254.567.566M244.03 24.871a.566.566 0 01-.567.566M214.368 25.437a.566.566 0 01-.567-.566M213.801 16.179c0-.312.254-.566.567-.566M229.671 18.601a.755.755 0 01-.303.605v-1.21a.755.755 0 01.303.605zm-1.209.605a.754.754 0 010-1.21v1.21zM229.369 11.985h-.907m0 0v7.749m0 0l.256.3m0 0h.395m0 0l.256-.3m0 0v-7.749M228.16 11.985h1.511m0 0v-.264m0 0h-1.511m0 0v.264M227.782 11.721h2.267m0 0v-.265m0 0h-2.267m0 0v.265M225.647 13.346v-1.625m0 0h.094m0 0v-.132m0 0h.284m0 0v-.133m0 0h-1.89m0 0v.133m0 0h.283m0 0v.132m0 0h.095m0 0v1.625m0 0h.322m0 0v.416m0 0h-1.078m0 0v.491m0 0h2.645m0 0v-.491m0 0h-1.076m0 0v-.416m0 0h.321M232.184 13.346v-1.625m0 0h-.094m0 0v-.132m0 0h-.283m-.001 0v-.133m0 0h1.889m.001 0v.133m0 0h-.284m0 0v.132m0 0h-.094m0 0v1.625m0 0h-.322m0 0v.416m0 0h1.078m0 0v.491m0 0h-2.645m0 0v-.491m0 0h1.076m0 0v-.416m0 0h-.321M224.834 13.761l.072.072M225.326 13.761l-.072.072M224.834 13.346h.492M224.513 11.721h1.134M225.741 11.588h-1.323M232.996 13.761l-.072.072M232.505 13.761l.072.072M232.996 13.346h-.491M233.317 11.721h-1.133M232.089 11.588h1.322M225.326 14.007a.246.246 0 11-.492 0 .246.246 0 01.492 0zM232.996 14.007a.246.246 0 11-.492 0 .246.246 0 01.492 0zM257.378 32.828l-1.645.468m0 0l-1.552.719m0 0l-1.23.967m0 0l-.943 1.249m0 0l-.593 1.448m0 0l-.206 1.55m0 0l.206 1.552m0 0l.593 1.447m0 0l.943 1.248m0 0l1.23.968m0 0l1.552.719m0-.001l1.645.469m0 .001l1.698.207m0 0l1.709-.059m0 0l11.585-1.223m0 0V33.903m0 0l-11.585-1.223m0 0l-1.709-.06m0 0l-1.698.208M266.649 43.346v-4.117M266.649 39.229v-4.116M252.381 42.293a5.744 5.744 0 01-.887-3.064M259.211 45.541c-2.591.166-5.107-1.031-6.83-3.248M266.649 43.346c-2.253 1.505-4.828 2.266-7.437 2.195M259.211 32.917c2.609-.07 5.184.689 7.437 2.195M252.381 36.166c1.723-2.217 4.238-3.413 6.83-3.248M251.495 39.229a5.743 5.743 0 01.887-3.063M272.18 34.582h.189v9.295h-.189zM272.37 43.877v-9.295m0 0h-.189m0 0v9.295m0 0h.189M272.37 29.783v18.893M276.904 29.783v18.893M272.37 29.783h4.534M272.37 48.676h4.534M254.232 52.437h22.672m0 0v23.256m0-.001h-22.672m0 0V52.437M276.904 52.437h-4.534m0 0V26.571m0 0h4.534m0 0v25.866M245.164 26.571h15.87m0 0V11.456m0 0h-15.87m0 0v15.115M81.889 163.357v1.89m0 0h73.381m0 0v-1.89m0 0H81.889M81.889 201.143h36.691m0 0v-26.451m0 .001H81.889m0 0v26.451M118.58 201.143h36.69m0 0v-26.451m0 .001h-36.69m0 0v26.451M155.27 201.143h9.598m0 0v-37.787m0 .001h-9.598m0 0v1.889m0 9.447v26.451M72.291 201.143h9.598m0 0v-26.451m0-9.446v-1.889m0 0h-9.598m0 0v37.787M118.58 165.247v9.446m0 0h41.489m0 0v-9.446m0 0H118.58M118.58 165.247v9.446m0 0H77.09m0 0v-9.446m0 0h41.49M257.066 189.997v19.271m0 0l.222.535m0 0l.534.22m0 0h17.382m0 0l.534-.22m0 0l.222-.535m0 0v-19.271m0 0l-.222-.535m0 0l-.534-.221m0 0h-17.382m0 0l-.534.221m0 0l-.222.535M254.232 188.296v22.672M276.904 188.296v22.672M254.232 188.296h22.672M254.232 210.968h22.672M258.955 191.886v15.493M259.711 208.134h11.714M272.181 207.378v-7.003m0-1.487v-7.002M271.425 191.13h-11.714M258.955 191.886h.108a.108.108 0 10-.216 0 .108.108 0 00.216 0h-.108zM259.711 208.134a.756.756 0 01-.756-.755M272.181 207.378a.755.755 0 01-.756.755M271.425 191.13c.417 0 .756.338.756.755M258.955 191.886c0-.417.338-.755.756-.755M267.348 199.292l-.24.1m0 0l-.099.241m0 0l.1.24m0 0l.24.099m0 0h7.477m0 0l.24-.099m0 0l.099-.241m0 0l-.099-.24m0 0l-.24-.1m0 0h-7.478M272.899 198.877v.415m0 0h1.927m0 0l.24.099m-.001 0l.1.241m.001.001l-.1.24m-.001-.001l-.24.1m.001.001h-1.927m0 0v.414m0 0h2.456m0 0v-1.509m0-.001h-2.456M271.538 198.888v.404m0 0h1.323m0 0v-.404m0 0h-1.323M271.538 200.377h1.323m0 0v-.404m0 0h-1.323m0 0v.404M274.826 252.535v21.916m0 0H256.31m0 0v-21.916m0 0h18.516M263.546 263.493h-5.299M258.247 263.493v1.096M263.546 263.493v1.096M263.546 272.347h-5.299M258.247 271.252v1.095M263.546 271.252v1.095M263.42 257.247a2.74 2.74 0 11-5.48 0 2.74 2.74 0 015.48 0zM272.887 258.518a3.967 3.967 0 11-7.934 0 3.967 3.967 0 017.934 0z"/><path class="st2" d="M271.187 258.518a2.267 2.267 0 11-4.535 0 2.267 2.267 0 014.535 0zM263.51 267.92a2.646 2.646 0 01-5.29 0 2.645 2.645 0 115.29 0zM272.857 269.038a3.4 3.4 0 11-6.801-.001 3.4 3.4 0 016.801.001zM276.904 233.639v42.888M254.232 233.639v42.888M276.904 233.639h-22.672M276.904 276.527h-22.672M254.232 188.296v-22.671m0 0h22.672m0 0v22.671m0 0h-22.672M269.347 176.96h-7.557M268.24 179.632l-5.344-5.343M265.568 180.739v-7.557M262.896 179.632l5.344-5.343M254.232 210.968v22.672M276.904 210.968v22.672M254.232 210.968h22.672M254.232 233.639h22.672M273.109 64.361a7.18 7.18 0 11-14.36-.001 7.18 7.18 0 0114.36.001zM266.156 219.147a3.412 3.412 0 11-6.823 0 3.412 3.412 0 016.823 0z"/><path class="st2" d="M265.635 219.147a2.89 2.89 0 11-5.78 0 2.89 2.89 0 015.78 0zM264.493 225.456a2.58 2.58 0 11-5.16 0 2.58 2.58 0 015.16 0z"/><path class="st2" d="M263.358 225.456a1.444 1.444 0 11-2.889.001 1.444 1.444 0 012.889-.001zM80.037 20.077a3.778 3.778 0 11-7.557.001 3.778 3.778 0 017.557-.001z"/><path class="st2" d="M77.392 20.077a1.133 1.133 0 11-2.265 0 1.133 1.133 0 012.265 0zM168.835 20.077a3.778 3.778 0 11-7.557.001 3.778 3.778 0 017.557-.001z"/><path class="st2" d="M166.19 20.077a1.133 1.133 0 11-2.265 0 1.133 1.133 0 012.265 0zM235.339 137.663v22.672m0 0h41.565m0 0v-22.672m0 0h-41.565M276.904 149.376v-.755m0 0h-41.565m0 0v.755m0 0h41.565M241.926 139.656v18.626m0-.001h.755m0 0v-18.626m0 .001h-.755M243.93 139.656v18.626m0-.001h.756m0 0v-18.626m0 .001h-.756M245.935 139.656v18.626m0-.001h.755m0 0v-18.626m0 .001h-.755M247.94 139.656v18.626m0-.001h.756m0 0v-18.626m0 .001h-.756M252.185 139.791l-2.241 18.491m0 0l.75.091m0 0l2.241-18.491m0 0l-.75-.091M154.665 91.091H86.65m0 0V15.518m0 0h68.015m0 0v75.573M152.776 92.98H88.539m0 0l-.723-.144m0 0l-.613-.409m0 0l-.409-.613m0 0l-.144-.723m0 0h68.015m0 0l-.144.723m0 0l-.409.613m0 0l-.613.409m0 0l-.723.144M154.665 11.74H86.65m0 0v3.778m0 0h68.015m0 0V11.74M86.65 11.74h68.015m0 0v1.889m0 0H86.65m0 0V11.74M84.761 11.74H67.757m0 0v18.893m0 0h17.004m0 0V11.74M156.555 11.74h17.003m0 0v18.893m0 0h-17.003m0 0V11.74M114.612 17.408H88.917m0 0l-.267.11m0 0l-.111.267m0 0v12.47m0 0l.111.267m0 0l.267.111m0 0h25.695m0 0l.267-.111m0 0l.111-.267m0 0v-12.47m0 0l-.111-.267m0 0l-.267-.11M126.703 17.408h25.695m0 0l.267.11m0 0l.111.267m0 0v12.47m0 0l-.111.267m0 0l-.267.111m0 0h-25.695m0 0l-.267-.111m0 0l-.111-.267m0 0v-12.47m0 0l.111-.267m0 0l.267-.11M154.665 29.609h-1.889M126.325 29.609H114.99M88.539 29.609H86.65M154.665 34.619H86.65m0 0v18.686m0 0l68.015-14.908m0 0v-3.778M79.092 298.821v-15.114m0 0h123.184m0 0v15.114m0 0H79.092M139.588 293.94v1.02m0 0H95.219m0 0v-1.02m0 0h44.369M130.127 294.96v.833m0 0l-.152.566m.001 0l-.414.415m-.001 0l-.568.153m.001 0h-22.699m0 0l-.566-.153m0 0l-.415-.415m0 0l-.152-.566m0 0v-.833m0 0h24.966M139.588 293.642v.298m0 0H95.219m0 0v-.298m0 0h44.369M265.236 58.353l-.449 1.233m0 0v1.312m0 0l.449 1.233m0 0l-.342 1.473m0 0v1.513m0 0l.342 1.473m0 0l-.45 1.235m0 0v1.314m0 0l.45 1.234m0 0l-2.987-2.231m0 0v-7.558m0 0l2.987-2.231M261.987 60.585v7.557m0 0h.262m0 0v-7.557m0 0h-.262M261.463 60.585v7.557m0 0h.262m0 0v-7.557m0 0h-.262M266.751 65.204l.085-.891m0 0l-.226-.022m0 0l-.045.477m0 0l-1.143-1.383m0 0l-.152.126m0 0l.53.642m0 0l-.081.067m0 0l-.611-.74m0 0l-.146.121m0 0l.611.74m0 0l-.098.08m0 0l-.496-.601m0 0l-.13.107m0 0l.496.602m0 0l-.097.08m0 0l-.343-.414m0 0l-.139.115m0 0l1.174 1.422M276.904 52.437v23.256m0-.001h-22.672m0 0V52.437m0 0h22.672M100.064 238.268v-18.893m0 .001h37.786m0 0v18.893m0-.001h-37.786M64.356 137.663v22.672m0 0h118.838m0 0v-22.672m0 0H64.356M183.194 149.376v-.755m0 0H64.356m0 0v.755m0 0h118.838M72.832 139.656v18.626m0-.001h.755m0 0v-18.626m0 .001h-.755M74.837 139.656v18.626m0-.001h.756m0 0v-18.626m0 .001h-.756M76.842 139.656v18.626m0-.001h.756m0 0v-18.626m0 .001h-.756M78.846 139.656v18.626m0-.001h.756m0 0v-18.626m0 .001h-.756M83.092 139.791l-2.241 18.491m0 0l.75.091m0 0l2.241-18.491m0 0l-.75-.091M260.538 215.079v.963m0 0h-1.204m0 0v12.524m0 0h1.204m0 0v.964M270.064 216.543l-.104.047m-.103.047l-.103.047m-.103.047l-.103.047m-.103.048l-.103.047m-.103.047l-.103.047m-.103.048l-.103.047m-.103.046l-.103.048m-.103.047l-.103.047m-.104.047l-.102.047m-.104.048l-.103.047m-.103.047l-.103.047m-.103.047l-.103.047m-.104.047l-.103.048m-.103.047l-.103.047m-.103.047l-.103.047m-.103.047l-.103.046m-.103.048l-.103.047M270.064 226.176l-.104-.048m-.103-.047l-.103-.047m-.103-.047l-.103-.047m-.103-.047l-.103-.048m-.103-.046l-.103-.048m-.103-.047l-.103-.047m-.103-.047l-.103-.047m-.103-.047l-.103-.048m-.104-.047l-.102-.047m-.104-.047l-.103-.047m-.103-.047l-.103-.048m-.103-.047l-.103-.047m-.104-.047l-.103-.047m-.103-.046l-.103-.047m-.103-.049l-.103-.047m-.103-.047l-.103-.047m-.103-.047l-.103-.048M270.064 216.543v.078m0 .112v.113m0 .114v.114m0 .114v.077m0 0l-.052.042m-.088.072l-.088.071m-.088.071l-.088.071m-.088.073l-.088.071m-.088.071l-.088.072m-.088.07l-.088.072m-.088.072l-.088.072m-.088.071l-.088.071m-.088.072l-.088.071m-.088.071l-.088.071m-.088.073l-.088.071m-.088.071l-.088.071m-.088.072l-.088.072m-.088.071l-.088.072m-.088.071l-.088.072m-.088.07l-.088.072m-.088.072l-.088.071m-.088.072l-.088.071m-.088.072l-.088.071m-.088.072l-.088.071m-.088.072l-.088.071m-.088.071l-.088.072m-.088.07l-.052.042M270.064 226.176v-.078m0-.113v-.114m0-.113v-.113m0-.114v-.078m0 0l-.052-.042m-.088-.071l-.088-.072m-.088-.071l-.088-.071m-.088-.072l-.088-.071m-.088-.072l-.088-.071m-.088-.072l-.088-.071m-.088-.072l-.088-.071m-.088-.071l-.088-.072m-.088-.071l-.088-.072m-.088-.071l-.088-.072m-.088-.07l-.088-.071m-.088-.073l-.088-.071m-.088-.072l-.088-.071m-.088-.072l-.088-.071m-.088-.072l-.088-.071m-.088-.071l-.088-.072m-.088-.071l-.088-.072m-.088-.071l-.088-.072m-.088-.072l-.088-.071m-.088-.071l-.088-.071m-.088-.072l-.088-.072m-.088-.071l-.088-.072m-.088-.071l-.052-.042M270.542 226.176v-9.634m0 0h-.478m0 0v.722m0 0h.237m0 0v8.189m0 0h-.237m0 0v.723m0 0h.478M202.276 276.527h60.458m0 0v22.294m0 0h-60.458m0 0v-22.294M72.579 20.937l3.68-.86m0 0l1.583-3.431m0 0l-1.583 3.431m0 0l1.306 3.546M168.736 20.937l-3.679-.86m0 0l-1.584-3.431m0 0l1.584 3.431m0 0l-1.306 3.546M220.575 221.882l-4.109-4.109m0 0l-.426-.407m0 0l-.43-.371m0 0l-.424-.328m0 0l-.403-.276m0 0l-.017-.009m0 0l-.375-.216m0 0l-.332-.147m0 0l-.025-.008m0 0l-.281-.075m0 0l-.028-.004m0 0l-.22.002m0 0l-.03.002m0 0l-.029.007m0 0l-.027.013m0 0l-.154.078m0 0l-.024.018m0 0l-.012.01m0 0l-1.133 1.134m0 0l-1.03-1.029m0 0l-5.217 5.217m11.114 11.116l5.217-5.218m.001 0l-1.029-1.029m0 0l1.134-1.134m0 0l.011-.011m0 0l.017-.025m0 0l.078-.154m0 0l.013-.027m0 0l.008-.029m0 0l.002-.029m0 0l.001-.221m0 0l-.003-.028m0 0l-.075-.281m0 0l-.008-.025m0 0l-.148-.332m0 0l-.214-.376m0 0l-.011-.016m0 0l-.276-.404m0 0l-.328-.423m0 0l-.371-.429m0 0l-.407-.427M211.427 217.865l9.057 9.056M211.55 217.988l.898-.898M220.36 226.797l.898-.897M216.487 230.918l4.664-4.664M207.43 221.861l4.665-4.664M215.436 218.795l4.117 4.117M212.448 217.09c.354-.354 1.691.409 2.988 1.706M219.552 222.911c1.296 1.296 2.06 2.634 1.705 2.988M183.976 250.264l4.108 4.108m0 0l.427.408m0 0l.43.371m0 0l.423.328m0 0l.404.275m0 0l.016.011m0 0l.376.215m0 0l.332.147m0 0l.024.008m0 0l.281.075m0 0l.029.003m0 0l.22-.001m0 0l.03-.002m0 0l.028-.008m0 0l.027-.012m0 0l.154-.078m0 0l.025-.018m0 0l.011-.011m0 0l1.134-1.133m0 0l1.029 1.029m0 0l5.219-5.218m-11.116-11.114l-5.216 5.217m-.001 0l1.029 1.029m0 0l-1.135 1.134m0 0l-.01.011m0 0l-.017.025m0 0l-.078.153m0 0l-.013.027m0 0l-.008.03m0 0l-.002.029m0 0l-.001.221m0 0l.003.027m0 0l.074.282m0 0l.009.025m0 0l.147.332m0 0l.215.375m0 0l.01.016m0 0l.276.404m0 0l.329.424m0 0l.371.429m0 0l.407.427M193.124 254.281l-9.057-9.056M193.001 254.157l-.898.898M184.19 245.348l-.897.897M188.063 241.228l-4.663 4.664M197.12 250.284l-4.663 4.664M189.115 253.35l-4.117-4.116M192.102 255.056c-.354.354-1.692-.409-2.988-1.705M184.998 249.234c-1.296-1.296-2.06-2.634-1.705-2.988M188.085 217.773l-4.108 4.109m0 0l-.408.427m0 0l-.371.429m0 0l-.329.423m0 0l-.275.404m0 0l-.01.016m0 0l-.216.376m0 0l-.146.332m0 0l-.009.025m0 0l-.074.281m0 0l-.003.028m0 0l.001.221m0 0l.002.029m0 0l.008.029m0 0l.012.027m0 0l.078.154m0 0l.018.024m0 0l.01.012m0 0l1.134 1.133m0 0l-1.029 1.03m0 0l5.217 5.217m11.115-11.115l-5.218-5.217m0 0l-1.028 1.029m0 0l-1.135-1.134m0 0l-.01-.01m0 0l-.026-.018m0 0l-.153-.078m0 0l-.027-.013m0 0l-.029-.007m0 0l-.029-.002m0 0l-.221-.002m0 0l-.028.004m0 0l-.281.075m0 0l-.025.008m0 0l-.332.147m0 0l-.376.215m0 0l-.015.01m0 0l-.405.276m0 0l-.423.328m0 0l-.429.371m0 0l-.427.407M184.067 226.921l9.057-9.057M184.19 226.797l-.897-.897M193.001 217.988l-.898-.898M197.12 221.861l-4.663-4.664M188.063 230.917l-4.663-4.663M184.998 222.912l4.117-4.117M183.293 225.9c-.354-.354.409-1.692 1.705-2.988M189.114 218.794c1.297-1.296 2.635-2.059 2.988-1.705M216.465 254.372l4.109-4.108m0 0l.408-.427m0 0l.371-.43m0 0l.328-.424m0 0l.275-.403m0 0l.011-.017m0 0l.215-.375m.001 0l.147-.332m-.001 0l.008-.024m.001 0l.075-.282m-.001 0l.003-.028m.001 0l-.001-.22m-.001 0l-.002-.03m0 0l-.008-.029m.001 0l-.012-.027m0 0l-.078-.154m-.001 0l-.018-.024m.001 0l-.011-.012m-.001 0l-1.133-1.133m0 0l1.029-1.03m0 0l-5.218-5.218m-11.115 11.115l5.219 5.218m0 0l1.029-1.029m0 0l1.134 1.134m0 0l.011.011m-.001 0l.025.017m.001 0l.153.078m-.001 0l.027.013m.001 0l.03.008m-.001 0l.029.002m.001 0l.221.001m-.001 0l.027-.003m.001 0l.281-.075m0 0l.026-.008m0 0l.332-.148m0 0l.375-.214m0 0l.016-.011m-.001 0l.404-.276m0 0l.424-.328m0 0l.429-.371m.001 0l.426-.407M220.484 245.225l-9.057 9.057M220.36 245.348l.898.897M211.55 254.157l.898.898M207.43 250.284l4.665 4.664M216.487 241.228l4.664 4.664M219.553 249.234l-4.117 4.116M221.258 246.245c.354.354-.409 1.691-1.705 2.987M215.436 253.35c-1.296 1.296-2.634 2.06-2.988 1.705M217.389 236.072c0 8.348-6.767 15.114-15.114 15.114-8.348 0-15.115-6.766-15.115-15.114 0-8.347 6.767-15.114 15.115-15.114 8.347 0 15.114 6.767 15.114 15.114z"/></g><g id="walls"><path d="M276.907 309.781V128.218h7.557v.453h1.512v181.11h-9.069 0zM40.553.5h66.744v10.958H64.359v30.418H40.553V.5h0zm236.354 0h9.069v88.722h-1.512v.454h-7.557V.5h0zm-169.61 309.281H40.553v-44.966h23.806v34.008h42.938v10.958h0zM40.553 108.002h23.806v73.685H40.553v-73.685z" fill-rule="evenodd" clip-rule="evenodd" stroke="#000" stroke-linecap="round" stroke-linejoin="round" stroke-miterlimit="3"/><path class="st0" d="M107.297 11.458V.5h169.61v10.958H264.06V23.55h12.847v3.023h-15.87V11.458H186.22v64.237h32.023v1.511h.454v1.512H186.22v17.937h-1.512v-.453h-1.511V11.458h-75.9zM64.359 163.359v-3.023h118.838v-31.487h1.511v-.453h1.512v31.94h6.953v1.512h-.453v1.511H64.359zm42.938 146.422v-10.958h155.44V276.34h14.17v3.023H265.76v19.46h11.147v10.958h-169.61zM247.414 75.695h-1.058v1.511h-.453v1.512h31.004v-3.023h-29.493zm-21.744 84.641h6.649v-22.672h3.023v22.672h41.565v3.023H225.67v-3.023zm-.001 0h-1.512v1.512h.454v1.511h1.058v-3.023z"/><path class="st4" d="M301.536 125.467c-6.022 2.248-9.141 2.877-15.561 3.205"/><path class="st5" d="M301.633 125.431l-15.657-36.209h-1.512v.454l15.782 36.355z"/><path class="st4" d="M195.325 175.915c-1.845-4.862-2.341-7.366-2.606-12.556"/><path class="st5" d="M195.339 176.018l29.272-12.659.001-1.511h-.454l-29.419 12.782z"/><path class="st4" d="M170.321 98.853c4.935-1.843 7.615-2.382 12.876-2.652"/><path class="st5" d="M170.238 98.884l12.958 29.965h1.512v-.453l-13.083-30.112z"/><g><path class="st4" d="M220.523 64.635c-1.592 4.239-2.048 6.541-2.281 11.061"/><path class="st5" d="M220.553 64.536l-.6 1.388 25.95 11.282h.453v-1.511z"/></g><path class="st4" d="M.5 5.429v297.567m0 0h40.054m0 0v-39.864m0 0v-81.619m0-.001v-75.194m0 0V41.704m0 0V5.429m0 0H.5"/><g><path class="st4" d="M48.111 108.003h16.248M40.554 108.003h5.666M46.221 108.003h1.89M48.111 41.876h16.248M40.554 41.876h5.666M46.221 41.876h1.89M40.554 41.876v66.126M64.359 41.876v66.126M48.111 41.876v3.779M48.111 45.655h-1.89M46.221 45.655v-3.779M46.221 79.663v-1.89M46.221 77.773h1.89M48.111 77.773v1.89M47.166 45.655v32.118M48.111 45.655v32.118M46.221 77.773V45.655M48.111 79.663v.944M48.111 80.607h-.945M47.166 80.607v.945M47.166 81.552h-.945M46.221 81.552v-1.889M46.221 108.003v-3.779M46.221 104.224h.945M47.166 104.224v.944M47.166 105.168h.945M48.111 105.168v2.834M46.221 104.224V81.552M49.056 83.441v18.894M49.056 80.607v2.834M49.056 83.441h-1.89M47.166 83.441v-2.834M47.166 80.607h1.89M47.166 105.168v-2.833M47.166 102.335h1.89M49.056 102.335v2.833M49.056 105.168h-1.89M47.166 102.335V83.441M49.056 83.441v18.894M48.111 83.441v18.894M46.221 41.876h1.89M46.221 41.876h1.89M40.554 41.876h5.666M48.111 41.876h16.248M46.221 108.003h1.89M46.221 108.003h1.89M40.554 108.003h5.666M48.111 108.003h16.248"/><g><path class="st4" d="M48.111 264.816h16.248M40.554 264.816h5.666M46.221 264.816h1.89M48.111 181.686h16.248M40.554 181.686h5.666M46.221 181.686h1.89M40.554 181.686v83.13M64.359 181.686v83.13M48.111 181.686v3.778M48.111 185.464h-1.89M46.221 185.464v-3.778M46.221 221.361v-1.889M46.221 219.472h1.89M48.111 219.472v1.889M47.166 185.464v34.008M48.111 185.464v34.008M46.221 219.472v-34.008M48.111 221.361v.945M48.111 222.307h-.945M47.166 222.307v.943M47.166 223.251h-.945M46.221 223.251v-1.89M46.221 264.816v-3.779M46.221 261.037h.945M47.166 261.037v.944M47.166 261.981h.945M48.111 261.981v2.834M49.056 261.981l28.054-28.055M46.221 261.037v-37.786M49.056 225.14v34.008M49.056 222.307v2.832M49.056 225.14h-1.89M47.166 225.14v-2.833M47.166 222.307h1.89M47.166 261.981v-2.833M47.166 259.148h1.89M49.056 259.148v2.833M49.056 261.981h-1.89M47.166 259.148V225.14M49.056 225.14v34.008M48.111 225.14v34.008M49.056 222.307a39.68 39.68 0 0128.055 11.62M46.221 181.686h1.89M46.221 181.686h1.89M40.554 181.686h5.666M48.111 181.686h16.248M46.221 264.816h1.89M46.221 264.816h1.89M40.554 264.816h5.666M48.111 264.816h16.248"/></g></g><g><path class="st6" d="M109.938.28l-2.73 2.41M117.368.28l-10.16 8.95M124.778.28l-12.44 10.96M132.198.28l-12.44 10.96M139.628.28l-12.44 10.96M147.048.28l-12.44 10.96M154.478.28l-12.45 10.96M161.898.28l-12.44 10.96M169.308.28l-12.44 10.96M176.738.28l-12.45 10.96M184.158.28l-12.44 10.96M191.578.28l-12.44 10.96M199.008.28l-12.45 10.96M186.128 11.62l-3.02 2.66M206.428.28l-12.44 10.96M186.128 18.16l-3.02 2.66M213.848.28l-12.44 10.96M186.128 24.7l-3.02 2.66M221.268.28l-12.44 10.96M186.128 31.23l-3.02 2.67M228.688.28l-12.44 10.96M186.128 37.77l-3.02 2.67M236.108.28l-12.44 10.96M186.128 44.31l-3.02 2.66M243.538.28l-12.44 10.96M186.128 50.85l-3.02 2.66M69.518 160.12l-3.43 3.02M250.958.28l-12.44 10.96M186.128 57.39l-3.02 2.66M76.938 160.12l-3.43 3.02M258.388.28l-12.45 10.96M186.128 63.93l-3.02 2.66M84.358 160.12l-3.43 3.02M265.798.28l-12.44 10.96M186.128 70.46l-3.02 2.67M91.778 160.12l-3.43 3.02M273.228.28l-12.45 10.96M187.858 75.48l-4.75 4.19M99.198 160.12l-3.43 3.02M195.278 75.48l-3.43 3.02M276.818 3.65l-8.61 7.59M263.968 14.97l-3.02 2.66M186.128 83.54l-3.02 2.66M276.818 10.19l-1.19 1.05M106.628 160.12l-3.43 3.02M186.128 90.08l-3.02 2.66M263.968 21.51l-3.02 2.66M202.708 75.48l-3.43 3.02M114.048 160.12l-3.43 3.02M269.328 23.33l-3.44 3.03M210.128 75.48l-3.43 3.02M276.748 23.33l-3.44 3.03M217.548 75.48l-3.42 3.02M121.468 160.12l-3.42 3.02M128.888 160.12l-3.43 3.02M136.308 160.12l-3.43 3.02M143.728 160.12l-3.42 3.02M247.238 75.48l-.97.85M186.128 129.31l-3.02 2.66M151.158 160.12l-3.43 3.02M254.658 75.48l-3.43 3.02M158.578 160.12l-3.43 3.02M186.128 135.85l-3.02 2.66M262.088 75.48l-3.43 3.02M166.008 160.12l-3.43 3.02M186.128 142.39l-3.02 2.66M186.128 148.93l-3.02 2.66M173.428 160.12l-3.43 3.02M269.508 75.48l-3.43 3.02M276.818 75.57l-3.32 2.93M180.848 160.12l-3.43 3.02M186.128 155.46l-3.02 2.67M188.268 160.12l-3.43 3.02M192.628 162.82l-.37.32M235.248 138.35l-3.02 2.66M235.248 144.89l-3.02 2.66M225.378 160.12l-1.31 1.15M235.248 151.42l-3.02 2.66M235.248 157.96l-5.88 5.18M240.218 160.12l-3.42 3.02M247.648 160.12l-3.43 3.02M255.068 160.12l-3.43 3.02M262.498 160.12l-3.43 3.02M112.708 298.61l-5.5 4.85M269.918 160.12l-3.43 3.02M276.818 160.57l-2.91 2.57M120.118 298.61l-12.43 10.95M127.548 298.61l-12.43 10.95M134.968 298.61l-12.43 10.95M142.398 298.61l-12.44 10.95M149.818 298.61l-12.43 10.95M157.238 298.61l-12.43 10.95M164.658 298.61l-12.43 10.95M172.078 298.61l-12.43 10.95M179.498 298.61l-12.43 10.95M186.928 298.61l-12.43 10.95M194.348 298.61l-12.43 10.95M201.778 298.61l-12.43 10.95M209.188 298.61l-12.43 10.95M216.618 298.61l-12.44 10.95M224.038 298.61l-12.43 10.95M231.458 298.61l-12.43 10.95M264.408 276.12l-1.76 1.55M238.878 298.61l-12.43 10.95M246.308 298.61l-12.43 10.95M271.838 276.12l-3.44 3.03M265.668 281.55l-3.02 2.66M276.818 278.27l-1 .88M253.728 298.61l-12.43 10.95M265.668 288.09l-3.02 2.66M261.148 298.61l-12.43 10.95M265.668 294.63l-3.02 2.66M268.568 298.61l-12.43 10.95M275.988 298.61l-12.43 10.95M276.818 304.42l-5.83 5.14"/></g><path d="M107.297 11.458V.5h169.61v10.958H264.06V23.55h12.847v3.023h-15.87V11.458H186.22v64.237h32.023v1.511h.454v1.512H186.22v17.937h-1.512v-.453h-1.511V11.458h-75.9 0zM64.359 163.359v-3.023h118.838v-31.487h1.511v-.453h1.512v31.94h6.953v1.512h-.453v1.511H64.359h0zm42.938 146.422v-10.958h155.44V276.34h14.17v3.023H265.76v19.46h11.147v10.958h-169.61 0zM247.414 75.695h29.493v3.023h-31.004v-1.512h.453v-1.511h1.058zm-21.744 84.641h6.649v-22.672h3.023v22.672h41.565v3.023H225.67v-3.023h0zm-.001 0h-1.512v1.512h.454v1.511h1.058v-3.023z" fill-rule="evenodd" clip-rule="evenodd" fill="none" stroke="#000" stroke-linecap="round" stroke-linejoin="round" stroke-miterlimit="22.926"/></g><g id="sizes_3_"><path d="M72.515 133.546h-1.594v-9.625l-1.617.992v-1.648l1.617-1.078h1.594v11.359zM74.921 132.163l3.961-5.281c.229-.302.407-.616.535-.941.127-.325.191-.629.191-.91v-.016c0-.453-.133-.805-.398-1.055s-.644-.375-1.133-.375c-.464 0-.839.137-1.125.41-.287.273-.461.66-.523 1.16v.008h-1.648v-.008c.094-.651.285-1.207.574-1.668s.663-.813 1.121-1.055c.458-.242.987-.363 1.586-.363.677 0 1.255.116 1.734.348.479.232.844.569 1.094 1.012.25.443.375.977.375 1.602v.008c0 .401-.083.82-.25 1.258a5.417 5.417 0 01-.695 1.266l-3.289 4.469h4.297v1.516h-6.406v-1.385zM83.203 131.952h1.594v1.594l-1.594 1.578v-3.172zM88.628 133.327a2.75 2.75 0 01-1.086-.977c-.279-.427-.465-.94-.559-1.539v-.008h1.594v.008c.057.417.224.741.5.973.276.232.635.348 1.078.348.51 0 .905-.17 1.184-.512.278-.341.418-.821.418-1.441v-.953c0-.614-.14-1.092-.418-1.434-.279-.341-.673-.512-1.184-.512-.276 0-.542.078-.797.234a2.237 2.237 0 00-.672.656h-1.453v-5.984h5.789v1.516h-4.195v2.555a2.275 2.275 0 011.414-.508c.656 0 1.217.136 1.684.406.466.271.82.667 1.063 1.188.242.521.363 1.148.363 1.883v.953c0 .734-.125 1.362-.375 1.883-.25.521-.615.918-1.094 1.191-.479.273-1.055.41-1.727.41-.572 0-1.081-.112-1.527-.336zM256.382 90.607l3.813-8.227h1.641l-3.719 8.133h5.57v1.477h-7.305v-1.383zm4.898-3.555h1.555v6.688h-1.555v-6.688zM265.483 92.138h1.594v1.594l-1.594 1.578v-3.172zM270.78 93.458a2.849 2.849 0 01-1.207-1.105c-.284-.477-.426-1.03-.426-1.66v-.188c0-.567.142-1.102.426-1.602.283-.5.662-.877 1.137-1.133-.401-.219-.723-.535-.965-.949s-.363-.85-.363-1.309v-.273c0-.594.133-1.116.398-1.566.266-.45.641-.799 1.125-1.047.484-.247 1.047-.371 1.688-.371s1.203.124 1.688.371c.484.248.859.597 1.125 1.047.266.451.398.973.398 1.566v.273c0 .469-.124.909-.371 1.32a2.478 2.478 0 01-.98.938c.479.261.863.64 1.152 1.137a3.13 3.13 0 01.434 1.598v.188c0 .63-.143 1.184-.426 1.66a2.854 2.854 0 01-1.207 1.105c-.521.261-1.125.391-1.813.391s-1.292-.13-1.813-.391zm2.789-1.359c.281-.146.498-.35.652-.613.153-.263.23-.566.23-.91v-.109c0-.349-.077-.655-.23-.918a1.582 1.582 0 00-.652-.613 2.09 2.09 0 00-.977-.219c-.37 0-.695.073-.977.219a1.573 1.573 0 00-.652.617c-.154.266-.23.573-.23.922v.117c0 .344.076.646.23.906.153.261.371.462.652.605.281.144.606.215.977.215.37 0 .696-.073.977-.219zm-.132-5.121c.244-.138.435-.334.57-.59.135-.255.203-.549.203-.883v-.109c0-.317-.068-.599-.203-.844a1.406 1.406 0 00-.57-.566 1.74 1.74 0 00-.844-.199c-.318 0-.6.066-.844.199a1.4 1.4 0 00-.57.566 1.726 1.726 0 00-.203.852v.117c0 .328.067.619.203.871.135.253.325.448.57.586.244.138.525.207.844.207.317 0 .598-.069.844-.207z"/><g><path d="M234.934 63.298l-.727-.348a2.857 2.857 0 01-1.168-1.008c-.294-.44-.48-.97-.559-1.59h1.625c.047.323.148.589.305.797.156.208.358.363.605.465s.538.152.871.152c.526 0 .935-.141 1.227-.422s.438-.677.438-1.188v-.344c0-.567-.138-1.006-.414-1.316-.276-.31-.667-.465-1.172-.465h-.805v-1.516h.805c.442 0 .786-.133 1.031-.398s.367-.641.367-1.125v-.352c0-.448-.129-.794-.387-1.039-.258-.245-.624-.367-1.098-.367-.271 0-.513.051-.727.152s-.395.258-.543.469-.257.476-.324.793h-1.617c.104-.62.301-1.151.59-1.594a2.893 2.893 0 011.098-1.008c.442-.229.95-.344 1.523-.344.979 0 1.737.258 2.273.773s.805 1.242.805 2.18v.188c0 .568-.153 1.063-.461 1.484s-.742.729-1.305.922c.62.136 1.101.44 1.441.914.341.474.512 1.078.512 1.813v.188c0 .662-.128 1.227-.383 1.695s-.626.826-1.113 1.07c-.487.245-1.074.367-1.762.367l-.951.002zM241.254 61.587h1.594v1.594l-1.594 1.578v-3.172zM246.551 62.907c-.521-.26-.923-.629-1.207-1.105s-.426-1.03-.426-1.66v-.188c0-.567.142-1.102.426-1.602s.663-.877 1.137-1.133c-.401-.219-.723-.535-.965-.949s-.363-.85-.363-1.309v-.273c0-.594.133-1.116.398-1.566.266-.45.641-.799 1.125-1.047.484-.247 1.047-.371 1.688-.371s1.203.124 1.688.371c.484.248.859.597 1.125 1.047.266.451.398.973.398 1.566v.273c0 .469-.124.909-.371 1.32a2.472 2.472 0 01-.98.938c.479.261.863.64 1.152 1.137a3.13 3.13 0 01.434 1.598v.188c0 .63-.142 1.184-.426 1.66s-.687.845-1.207 1.105c-.521.261-1.125.391-1.813.391s-1.293-.13-1.813-.391zm2.789-1.359c.281-.146.499-.35.652-.613.153-.263.23-.566.23-.91v-.109c0-.349-.077-.655-.23-.918a1.576 1.576 0 00-.652-.613c-.281-.146-.606-.219-.977-.219s-.695.073-.977.219c-.281.146-.499.352-.652.617s-.23.573-.23.922v.117c0 .344.077.646.23.906.153.261.371.462.652.605.281.144.606.215.977.215s.696-.073.977-.219zm-.133-5.121c.245-.138.435-.334.57-.59.136-.255.203-.549.203-.883v-.109c0-.317-.067-.599-.203-.844s-.325-.434-.57-.566-.526-.199-.844-.199-.599.066-.844.199-.435.322-.57.566a1.726 1.726 0 00-.203.852v.117c0 .328.067.619.203.871.136.253.325.448.57.586.245.138.526.207.844.207s.599-.069.844-.207z"/></g><g><path d="M141.727 233.125h-1.594V223.5l-1.617.992v-1.648l1.617-1.078h1.594v11.359zM144.133 231.742l3.961-5.281c.229-.302.407-.616.535-.941.127-.325.191-.629.191-.91v-.016c0-.453-.133-.805-.398-1.055s-.644-.375-1.133-.375c-.464 0-.839.137-1.125.41-.287.273-.461.66-.523 1.16v.008h-1.648v-.008c.094-.651.285-1.207.574-1.668s.663-.813 1.121-1.055c.458-.242.987-.363 1.586-.363.677 0 1.255.116 1.734.348.479.232.844.569 1.094 1.012.25.443.375.977.375 1.602v.008c0 .401-.083.82-.25 1.258a5.417 5.417 0 01-.695 1.266l-3.289 4.469h4.297v1.516h-6.406v-1.385zM152.415 231.531h1.594v1.594l-1.594 1.578v-3.172zM157.711 232.851a2.855 2.855 0 01-1.207-1.105c-.284-.477-.426-1.03-.426-1.66v-.188c0-.567.142-1.102.426-1.602.284-.5.663-.877 1.137-1.133-.401-.219-.723-.535-.965-.949s-.363-.85-.363-1.309v-.273c0-.594.133-1.116.398-1.566.266-.45.641-.799 1.125-1.047.484-.247 1.047-.371 1.688-.371s1.203.124 1.688.371c.484.248.859.597 1.125 1.047.266.451.398.973.398 1.566v.273c0 .469-.124.909-.371 1.32a2.478 2.478 0 01-.98.938c.479.261.863.64 1.152 1.137a3.13 3.13 0 01.434 1.598v.188c0 .63-.142 1.184-.426 1.66a2.854 2.854 0 01-1.207 1.105c-.521.261-1.125.391-1.813.391s-1.292-.13-1.813-.391zm2.79-1.359c.281-.146.499-.35.652-.613.153-.263.23-.566.23-.91v-.109c0-.349-.077-.655-.23-.918a1.582 1.582 0 00-.652-.613 2.09 2.09 0 00-.977-.219c-.37 0-.695.073-.977.219a1.573 1.573 0 00-.652.617c-.154.266-.23.573-.23.922v.117c0 .344.077.646.23.906.153.261.371.462.652.605.281.144.606.215.977.215.37 0 .695-.073.977-.219zm-.133-5.121c.245-.138.435-.334.57-.59.135-.255.203-.549.203-.883v-.109c0-.317-.068-.599-.203-.844a1.406 1.406 0 00-.57-.566 1.74 1.74 0 00-.844-.199 1.74 1.74 0 00-.844.199 1.406 1.406 0 00-.57.566 1.726 1.726 0 00-.203.852v.117c0 .328.067.619.203.871.135.253.325.448.57.586.245.138.526.207.844.207.317 0 .599-.069.844-.207z"/></g><g><path d="M16.15 85.103a2.855 2.855 0 01-1.207-1.105c-.284-.477-.426-1.03-.426-1.66v-.188c0-.567.142-1.102.426-1.602.284-.5.663-.877 1.137-1.133-.401-.219-.723-.535-.965-.949s-.363-.85-.363-1.309v-.273c0-.594.133-1.116.398-1.566.266-.45.641-.799 1.125-1.047.484-.247 1.047-.371 1.688-.371s1.203.124 1.688.371c.484.248.859.597 1.125 1.047.266.451.398.973.398 1.566v.273c0 .469-.124.909-.371 1.32a2.478 2.478 0 01-.98.938c.479.261.863.64 1.152 1.137a3.13 3.13 0 01.434 1.598v.188c0 .63-.142 1.184-.426 1.66a2.854 2.854 0 01-1.207 1.105c-.521.261-1.125.391-1.813.391s-1.292-.13-1.813-.391zm2.789-1.36c.281-.146.499-.35.652-.613.153-.263.23-.566.23-.91v-.109c0-.349-.077-.655-.23-.918a1.582 1.582 0 00-.652-.613 2.09 2.09 0 00-.977-.219c-.37 0-.695.073-.977.219a1.573 1.573 0 00-.652.617c-.154.266-.23.573-.23.922v.117c0 .344.077.646.23.906.153.261.371.462.652.605.281.144.606.215.977.215s.696-.073.977-.219zm-.132-5.121c.245-.138.435-.334.57-.59.135-.255.203-.549.203-.883v-.109c0-.317-.068-.599-.203-.844a1.406 1.406 0 00-.57-.566 1.74 1.74 0 00-.844-.199 1.74 1.74 0 00-.844.199 1.406 1.406 0 00-.57.566 1.726 1.726 0 00-.203.852v.117c0 .328.067.619.203.871.135.253.325.448.57.586.245.138.526.207.844.207.317 0 .599-.069.844-.207zM23.479 83.782h1.594v1.594l-1.594 1.578v-3.172zM28.479 85.091a2.61 2.61 0 01-1.082-1.172c-.248-.513-.371-1.131-.371-1.855v-.008c0-.422.049-.864.148-1.328a7.673 7.673 0 01.532-1.597l.109-.223 2.469-4.891h1.719l-2.898 5.664.008-.281c.13-.245.32-.435.57-.57.25-.135.542-.203.875-.203.588 0 1.094.133 1.516.398s.742.652.961 1.16.328 1.119.328 1.832v.008c0 .729-.124 1.354-.371 1.875a2.62 2.62 0 01-1.086 1.188c-.477.271-1.048.406-1.715.406-.668-.001-1.239-.134-1.712-.403zm2.878-1.598c.273-.313.41-.758.41-1.336v-.007c0-.635-.144-1.126-.43-1.473-.287-.346-.695-.52-1.227-.52-.474 0-.841.175-1.102.523-.261.349-.391.841-.391 1.477v.008c0 .578.137 1.022.41 1.332.273.31.66.465 1.16.465.507 0 .897-.156 1.17-.469z"/></g></g></svg>