<svg version="1.1" id="_x33_40" xmlns="http://www.w3.org/2000/svg" x="0" y="0" viewBox="0 0 359.404 462.56" xml:space="preserve"><style>.st0,.st1{fill-rule:evenodd;clip-rule:evenodd}.st0{fill:#fff}.st1{stroke:#999;stroke-width:.4}.st1,.st2,.st3{fill:none;stroke-linecap:round;stroke-linejoin:round;stroke-miterlimit:3}.st2{fill-rule:evenodd;clip-rule:evenodd;stroke:#999}.st3{stroke:#000}.st3,.st4,.st5,.st6{fill-rule:evenodd;clip-rule:evenodd}.st5,.st6{fill:none;stroke-miterlimit:22.9256}.st5{stroke-linecap:round;stroke-linejoin:round;stroke:#000}.st6{stroke:#666;stroke-width:.6}</style><path class="st0" d="M358.648 202.662h-40.375V.412H.482v335h72.541v126.784h245.25V308.412h40.375z" id="fon"/><g id="mebel"><g id="mebel_4_"><path class="st1" d="M86.948 235.079l2.349-2.349M80 235.079l9.297-9.296m-31.358 24.41l3.395-3.395m11.72-11.719l16.243-16.243m-38.304 31.357l10.34-10.341m4.774-4.773l23.19-23.191m-45.252 38.305l45.252-45.252m-48.381 41.434l48.381-48.381m-48.381 41.435l47.048-47.049m-47.048 40.103l40.102-40.102m-40.102 33.154l33.155-33.155m-34.539 27.591l27.59-27.591m-34.537 27.591l27.59-27.591m-34.536 27.591l7.217-7.217m8.348-8.347L53.23 192.38m-34.538 27.591l.007-.007m1.638-1.638l6.175-6.175m11.453-11.453l8.318-8.318m-34.538 27.591l.004-.004M32.1 199.616l7.236-7.236m-14.989 8.042l8.042-8.042m-12.052 5.105l5.105-5.105m63.855 6.434l-6.434-6.434m6.434 13.381L75.916 192.38m13.381 20.328L68.969 192.38m20.328 27.274L62.022 192.38m27.275 34.222L55.076 192.38m34.221 41.168L48.128 192.38m35.751 42.699L41.182 192.38M76.933 235.079L34.235 192.38m35.751 42.699l-28.538-28.538m-6.861-6.861l-7.3-7.299M63.039 235.079l-24.054-24.054m-10.988-10.988l-7.656-7.656m40.993 47.939l-27.557-27.557M21.713 200.7l-1.376-1.376m40.997 47.943l-20.418-20.418m-6.878-6.878l-7.855-7.855m31.13 38.077l-16.397-16.397m-13.825-13.825l-6.754-6.754m30.029 36.976l-9.45-9.45m-20.772-20.772l-.007-.007m23.282 30.229l-2.503-2.503m-27.718-27.719l-.005-.005M91.376 430.435h53.09m-53.09-11.336h53.09m-33.318-11.336h33.318m-53.09-11.336h53.09m-13.321 39.675V386.98m-22.671 49.122V417.26m0-11.439V386.98"/><path class="st2" d="M35.328 212.574l1.645-.469m0 0l1.552-.718m.001 0l1.23-.968m0 0l.943-1.248m-.001 0l.593-1.448m0 0l.206-1.551m0 0l-.206-1.551m0 0l-.593-1.448m0 0l-.943-1.248m.001 0l-1.23-.968m0 0l-1.552-.718m-.001 0l-1.645-.469m0 0l-1.697-.207m.001 0l-1.709.059m0 0l-11.585 1.223m-.001 0v10.654m0 0l11.585 1.223m.001 0l1.709.06m0 0l1.697-.208M26.058 202.056v4.116M26.058 206.172v4.116M40.326 203.109c.57.889.881 1.961.886 3.063M33.496 199.861c2.592-.166 5.107 1.031 6.83 3.248M26.058 202.056c2.253-1.506 4.828-2.266 7.437-2.195M33.496 212.484c-2.609.07-5.185-.689-7.437-2.195M40.326 209.236c-1.723 2.217-4.238 3.414-6.83 3.248M41.211 206.172a5.734 5.734 0 01-.886 3.063M20.337 201.523h.189v9.297h-.189zM20.337 201.525v9.295m0 0h.188m0 0v-9.295m0 0h-.188M20.337 215.619v-18.893M15.803 215.619v-18.893M20.337 215.619h-4.534M20.337 196.725h-4.534M106.367 417.943l1.645-.469m0 0l1.551-.718m.001 0l1.23-.968m0 0l.943-1.248m0 0l.594-1.448m-.001 0l.205-1.551m0 0l-.205-1.551m0 0l-.594-1.447m.001 0l-.943-1.249m0 0l-1.23-.967m0 0l-1.551-.719m-.001 0l-1.645-.469m0 0l-1.698-.207m.001 0l-1.709.059m0 0l-11.585 1.223m0 0v10.654m0 0l11.585 1.223m0 0l1.709.059m0 0l1.698-.207M97.096 407.424v4.116M97.096 411.541v4.117M111.364 408.477c.57.889.881 1.961.887 3.063M104.533 405.229c2.592-.165 5.107 1.031 6.83 3.248M97.096 407.424c2.254-1.505 4.828-2.266 7.437-2.195M104.533 417.852c-2.609.07-5.184-.69-7.437-2.195M111.364 414.605c-1.723 2.217-4.238 3.413-6.83 3.248M112.251 411.541a5.744 5.744 0 01-.887 3.064M91.376 406.893h.188v9.295h-.188zM91.375 406.893v9.295m0 0h.188m0 0v-9.295m0 0h-.188M91.375 420.987v-18.893M86.841 420.987v-18.893M91.375 420.987h-4.534M91.375 402.094h-4.534M143.898 451.216h-32.874m0 0l-.4-.166m0 0l-.166-.401m0 0v-13.98m0 0l.166-.401m0 0l.4-.166m0 0h32.874m0 0l.401.166m0 0l.166.401m0 0v13.98m0 0l-.166.401m0 0l-.401.166M142.765 447.06h-14.85m-.907 0h-14.85M111.591 446.493v-8.691M112.158 437.235h30.607M143.331 437.802v8.691M112.158 447.06a.566.566 0 01-.566-.567M111.591 437.802c0-.313.253-.567.566-.567M142.765 437.235c.312 0 .566.254.566.567M143.331 446.493a.567.567 0 01-.566.567M128.217 444.072a.755.755 0 01-.303.605v-1.209a.752.752 0 01.303.604zm-1.209.605a.755.755 0 010-1.21v1.21zM127.008 450.687h.906m0 0v-7.748m0 0l-.256-.301m0 0h-.394m0 0l-.256.301m0 0v7.748M128.217 450.687h-1.512m0 0v.264m0 .001h1.512m0 0v-.264M128.595 450.952h-2.268m0 0v.265m0 0h2.268m0 0v-.265M130.73 449.327v1.625m0 0h-.095m0 0v.132m0 0h-.283m0 0v.132m0 0h1.889m0 0v-.132m0 0h-.283m0 0v-.132m0 0h-.094m0 0v-1.625m0 0h-.322m0 0v-.416m0 0h1.077m0 0v-.491m0 0h-2.645m0 0v.491m0 0h1.077m0 0v.416m0 0h-.321M124.193 449.327v1.625m0 0h.095m0 0v.132m0 0h.283m0 0v.132m0 0h-1.89m0 0v-.132m0 0h.284m0 0v-.132m0 0h.094m0 0v-1.625m0 0h.322m0 0v-.416m0 0h-1.078m0 0v-.491m0 0h2.646m0 0v.491m0 0h-1.077m0 0v.416m0 0h.321M131.542 448.912l-.072-.072M131.051 448.912l.071-.072M131.542 449.327h-.491M131.864 450.952h-1.134M130.635 451.084h1.322M123.38 448.912l.072-.072M123.871 448.912l-.072-.072M123.38 449.327h.491M123.059 450.952h1.134M124.288 451.084h-1.323M131.542 448.666a.246.246 0 11-.49 0 .246.246 0 01.49 0zM123.871 448.666c0 .135-.11.246-.245.246a.246.246 0 010-.492c.135 0 .245.11.245.246zM170.915 451.216v-64.237m0 0h-26.45m0 0v64.237m0 0h26.45M146.58 443.722l.081.93m0 0l.238.901m.001 0l.39.846m-.001 0l.529.763m.001 0l.653.661m-.001 0l.755.535m0 0l.835.394m0 0l.891.241m0 0l.919.082m0 0h11.638m0 0l.919-.082m0 0l.89-.241m0 0l.836-.394m0 0l.755-.535m0 0l.652-.661m.001 0l.529-.763m-.001 0l.39-.846m.001 0l.239-.901m-.001 0l.08-.93m0 0v-43.36m0 0l-.169-1.952m0 0l-.501-1.893m0 0l-.819-1.775m0 0l-1.11-1.606m0 0l-1.369-1.385m0 0l-1.587-1.124m0 0l-1.755-.828m0 0l-1.87-.508m0 0l-1.93-.17m0 0l-1.928.17m0 0l-1.87.508m0 0l-1.755.828m.001 0l-1.587 1.124m-.001 0l-1.369 1.385m0 0l-1.111 1.606m0 0l-.818 1.775m0 0l-.501 1.893m0 0l-.17 1.952m0 0v43.36M158.635 442.147a.945.945 0 11-1.89 0 .945.945 0 011.89 0zM10.687 250.193h30.229M40.916 250.193v-30.222M40.916 219.971H10.687M18.245 243.58a.945.945 0 11-1.89 0 .945.945 0 011.89 0zM23.67 236l.372 1.396m0 0l.793 1.209m0 0l1.133.898m0 0l1.357.496m0 0l1.445.043m0 .001l1.385-.413m0 0l1.185-.829m0-.001l.863-1.159m0 0l.455-1.371m0 0v-1.446m0 .001l-.455-1.372m0 0l-.863-1.16m0-.001l-1.185-.828m0 0l-1.385-.414m0 0l-1.445.044m0 0l-1.357.496m0 0l-1.133.897m0 0l-.793 1.209m0 0l-.372 1.397m0 .001h-5.538m0 0l.108-.456m0-.001l.037-.489m0 0l-.037-.489m0 0l-.108-.455m0 .001l-.172-.392m0-.001l-.225-.3m0 .001l-.26-.189m0 0l-.282-.064m0-.001h-.402m0 0l-.12.019m0 0l-.277.064m0 .001l-.104.055m0-.001l-.251.181m0 0l-.07.078m0 .001l-.205.274m0-.001l-.157.357m0 .001l-.051.195m0-.001l-.06.25m0 0l-.688.019m0 0l-.796.01m0 .001v-1.729m0-.001h-.435m0 0v-2.871m0 0l-.058-.16m0 0l-.149-.083m0 .001l-.167.033m0-.001l-.105.133m0 0l-.157.486m0 .001l-.316.726m0-.001l-.573 1.007m0 0l-.258.729m0 0h-.125m0 0v-.604m0 0h-.982m0 0v2.569m0 0h.877m0 0l.038.063m0 .001l.034.032m0-.001l.041.026m0 0l.672.278m0 0v.697m0 .001h-1.36m0 0v-1.058m0-.001h-.302m0 0v3.023m0 .001h.302m0 0V236m0 0h1.36m0 0v1.436m0 0h.151m0 0v.416m0 0h-.302m0 0v-.152m0 .001h-.529m0 0v-.604m0-.001h-.982m0 0v2.569m0 .001h.982m0 0v-.604m0-.001h.529m0 0v-.152m0 .001h.302m0 0v.152m0-.001h1.512m0 0v-2.57m0 .001h2.154m0 0v-.082m0-.001v-.094m0 .001v-.124m0-.001v-.149m0 .001V236m0 0h7.504M12.349 233.658v.209m0 0l-.34-.14m0 0l-.053-.325m0 0l.001-.009m0 0h.242m0 0v-.151m0 0h.301m0 0v.416m0 0h-.151M12.5 232.184h-.24m0 0l.239-.677m0 0l.563-.988m0 0l.024-.052m0 0v1.566m0 0H12.5m0 0v.151M11.669 238.041h.529M11.669 238.721h.529M11.669 232.384v-.352M12.199 233.242v-.189M12.199 233.053v-.68M12.199 232.373v-.015M12.022 233.053h.177M12.194 232.373h.005M12.5 232.184v1.058M14.012 234.536v.557M13.086 232.033h.491M14.579 234.603v.491M13.566 229.237l.012-.076M11.462 233.386l.002.047M11.494 233.216l-.032.17M11.545 233.931l.01.047M11.555 233.978l.009.02M11.794 232.033l-.161.453M11.633 232.486l-.139.73M11.967 233.342l-.011.06M13.566 229.237l-.167.513M13.399 229.749l-.312.718M11.65 232.443h.108a.108.108 0 10-.216 0 .108.108 0 00.216 0h-.108zM11.464 233.434l.081.498M16.067 235.091l-.001.002M15.536 235.093v-.002M12.897 233.658h-.127M12.652 233.658h-.103M12.77 233.658h-.118M12.349 233.867v.523M12.106 232.62l-.139.722M12.26 232.184l-.154.436M12.983 234.337l.001.001M12.939 234.247l.044.091M12.923 234.149l.016.098M12.939 234.051l-.016.098M12.983 233.96l-.044.091M12.983 233.96h.001M15.479 233.804l-.025.345M15.454 234.149l.025.345M15.496 233.733l-.018.071M15.556 234.815l.052.196M15.479 234.494l.077.321M13.15 233.78l.062-.009M15.608 235.011l.036.083M15.496 234.565l-.688-.019M13.212 234.527l-.062-.009M13.15 234.518l-.058-.027M13.092 234.491l-.05-.042M13.042 234.449l-.038-.055M13.004 234.395l-.021-.056M12.983 234.337l-.002-.007M12.981 234.33l-.008-.068M12.973 234.262v-.227M12.973 234.036l.008-.068M12.981 233.967l.002-.007M12.984 233.959l.021-.057M13.004 233.903l.038-.055M13.042 233.848l.05-.042M13.092 233.806l.058-.026M14.808 234.546l-1.596-.019M14.012 233.762l-.8.009M13.709 233.658v.107M13.709 234.533v.561M23.67 236h5.343M23.67 235.093h5.343M29.013 236v-.906M11.669 239.061v-1.36M12.199 238.91v-1.058M12.5 238.91v-1.058M12.5 237.436h1.209M13.709 233.658H12.5M10.99 236v-.906M12.349 236h3.817M18.132 235.093h-5.783M13.709 237.436V236M14.012 236.492v-.491M14.579 236.492v-.491M14.012 234.603h1.493M26.348 235.093a1.888 1.888 0 110 .907M13.626 237.436a.34.34 0 01-.589.34.344.344 0 010-.34M242.255 99.608v3.028m0 0h.859m0 0h17.176m0 0h.859m0 0v-3.028M261.149 106.063v-3.427m0 0h-.858m0 0v3.224m0 0h.057m0 0l.293-.196m0 0l.343.087m0 0l.165.312M260.348 108.422l.293-.197m0 0l.343.087m0 0l.165.313m0 0v-2.562m0 0l-.165-.313m0 0l-.343-.086m0 0l-.293.196m0 0h-17.291m0 0l-.294-.196m0 0l-.343.086m0 0l-.165.313m0 0v2.562m0 0l.165-.313m0 0l.343-.087m0 0l.294.197m0 0h17.291M242.255 106.063l.165-.312m0 0l.343-.087m0 0l.294.196m0 0h.057m0 0v-3.224m0 0h-.859m0 0v3.427M243.919 108.827l1.005.227h13.557l1.003-.227zM259.485 108.828H243.92m0 0l1.004.227m0 0h13.557m0 0l1.004-.227M260.348 108.828l.293.196m0 0l.343-.086m0 0l.165-.313m0 0l-.165-.312m0 0l-.343-.087m0 0l-.293.197m0 0h-17.291m0 0l-.294-.197m0 0l-.343.087m0 0l-.165.312m0 0l.165.313m0 0l.343.086m0 0l.294-.196m0 0h17.291M242.255 65.6v-3.028m0 0h.859m0 0h17.176m0 0h.859m0 0V65.6M261.149 59.145v3.427m0 0h-.858m0 0v-3.224m0-.001h.057m0 0l.293.196m0 .001l.343-.086m0-.001l.165-.313M260.348 56.786l.293.196m0 0l.343-.086m0 0l.165-.313m0 0v2.562m0 0l-.165.313m0 0l-.343.086m0 0l-.293-.196m0 0h-17.291m0 0l-.294.196m0 0l-.343-.086m0 0l-.165-.313m0 0v-2.562m0 0l.165.313m0 0l.343.086m0 0l.294-.196m0 0h17.291M242.255 59.145l.165.313m0-.001l.343.086m0 .001l.294-.196m0-.001h.057m0 0v3.224m0 .001h-.859m0 0v-3.427M244.924 56.154l-1.004.227h15.564l-1.003-.227zM259.485 56.38H243.92m0 0l1.004-.227m0 0h13.557m0 0l1.004.227M260.348 56.38l.293-.196m0 0l.343.086m0 0l.165.313m0 0l-.165.312m0 0l-.343.087m0 0l-.293-.197m0 0h-17.291m0 0l-.294.197m0 0l-.343-.087m0 0l-.165-.312m0 0l.165-.313m0 0l.343-.086m0 0l.294.196m0 0h17.291M232.44 99.608v3.028m0 0h-.858m0 0h-17.176m0 0h-.859m0 0v-3.028M213.547 106.063v-3.427m0 0h.858m0 0v3.224m0 0h-.057m0 0l-.294-.196m0 0l-.343.087m0 0l-.164.312M214.348 108.422l-.294-.197m0 0l-.343.087m0 0l-.164.313m0 0v-2.562m0 0l.164-.313m0 0l.343-.086m0 0l.294.196m0 0h17.291m0 0l.293-.196m0 0l.343.086m0 0l.165.313m0 0v2.562m0 0l-.165-.313m0 0l-.343-.087m0 0l-.293.197m0 0h-17.291M232.44 106.063l-.165-.312m0 0l-.343-.087m0 0l-.293.196m0 0h-.057m0 0v-3.224m0 0h.858m0 0v3.427M215.21 108.827l1.005.227h13.557l1.004-.227zM215.21 108.828h15.565m0 0l-1.003.227m0 0h-13.557m0 0l-1.005-.227M214.348 108.828l-.294.196m0 0l-.343-.086m0 0l-.164-.313m0 0l.164-.312m0 0l.343-.087m0 0l.294.197m0 0h17.291m0 0l.293-.197m0 0l.343.087m0 0l.165.312m0 0l-.165.313m0 0l-.343.086m0 0l-.293-.196m0 0h-17.291M232.44 65.6v-3.028m0 0h-.858m0 0h-17.176m0 0h-.859m0 0V65.6M213.547 59.145v3.427m0 0h.858m0 0v-3.224m0-.001h-.057m0 0l-.294.196m0 .001l-.343-.086m0-.001l-.164-.313M214.348 56.786l-.294.196m0 0l-.343-.086m0 0l-.164-.313m0 0v2.562m0 0l.164.313m0 0l.343.086m0 0l.294-.196m0 0h17.291m0 0l.293.196m0 0l.343-.086m0 0l.165-.313m0 0v-2.562m0 0l-.165.313m0 0l-.343.086m0 0l-.293-.196m0 0h-17.291M232.44 59.145l-.165.313m0-.001l-.343.086m0 .001l-.293-.196m0-.001h-.057m0 0v3.224m0 .001h.858m0 0v-3.427M216.215 56.154l-1.005.227h15.565l-1.003-.227zM215.21 56.38h15.565m0 0l-1.003-.227m0 0h-13.557m0 0l-1.005.227M214.348 56.38l-.294-.196m0 0l-.343.086m0 0l-.164.313m0 0l.164.312m0 0l.343.087m0 0l.294-.197m0 0h17.291m0 0l.293.197m0 0l.343-.087m0 0l.165-.312m0 0l-.165-.313m0 0l-.343-.086m0 0l-.293.196m0 0h-17.291M205.283 65.6v34.008m0 0h63.48m0 0V65.6m0 0h-63.48M182.251 163.489H201.9m0 0v7.18m0 0h-19.649m0 0v-7.18M110.457 436.102H91.375m0 0v15.114m0 0h19.082m0 0v-15.114M88.731 250.193H61.902m0 0l-.4-.166m0 0l-.167-.401m0 0v-13.981m0 0l.167-.401m0 0l.4-.165m0 0h26.829m0 0l.4.165m0 0l.166.401m0 0v13.981m0 0l-.166.401m0 0l-.4.166M87.596 246.037H76.005m-1.378 0H63.035M62.469 245.47v-8.691M63.035 236.212h24.561M88.163 236.779v8.691M63.035 246.037a.566.566 0 01-.566-.566M62.469 236.779c0-.313.254-.567.566-.567M87.596 236.212c.313 0 .567.254.567.567M88.163 245.47a.566.566 0 01-.567.566M76.072 243.048a.755.755 0 11-1.51.001.755.755 0 011.51-.001zM76.261 247.926l-.151-1.585m0 0l-.124-.36m0 0l-.25-2m0 0l-.14-.264m0 0l-.28-.106m0 0l-.28.106m0 0l-.139.264m0 0l-.251 2m0 0l-.123.36m0 0l-.152 1.585m0 0l.181.555m0 0l.472.343m0 0h.584m0 0l.472-.343m0 0l.181-.555M74.802 246.985v-.562M75.83 246.423v.562M75.83 246.985h-1.027M74.802 246.423a.514.514 0 111.027 0M74.646 245.981a.798.798 0 011.34 0M159.579 163.489h-23.428m0 0v22.661m0 0h23.428m0 0v-22.661M147.866 178.597v-7.553M150.536 177.49l-5.34-5.341M151.643 174.82h-7.554M150.536 172.149l-5.34 5.341M229.339 165.371h-19.271m0 0l-.534.221m0 0l-.221.534m0 0v17.382m0 0l.221.535m0 0l.534.221m0 0h19.271m0 0l.534-.221m0 0l.222-.535m0 0v-17.382m0 0l-.222-.534m0 0l-.534-.221M235.908 163.474h-34.007M235.908 186.161h-34.007M235.908 163.474v22.687M201.901 163.474v22.687M227.451 167.26h-15.494M211.203 168.016v11.713M211.957 180.485h7.002m1.49 0h7.002M228.207 179.729v-11.713M227.451 167.26h.108a.108.108 0 10-.216 0 .108.108 0 00.216 0h-.108zM211.203 168.016c0-.417.338-.756.755-.756M211.957 180.485a.755.755 0 01-.755-.756M228.207 179.729a.757.757 0 01-.756.756M227.451 167.26c.417 0 .756.338.756.756M220.044 175.653l-.101-.24m0 0l-.24-.099m0 0l-.24.1m0 0l-.1.241m0 0v7.476m0 0l.1.24m0 0l.241.099m0 0l.24-.099m0 0l.1-.24m0 0v-7.478M220.458 181.204h-.414m0 0v1.927m0 0l-.1.24m0 0l-.24.1m0 0l-.241-.1m0 0l-.1-.24m0 0v-1.927m0 0h-.414m0 0v2.456m0-.001h1.509m0 0v-2.456M220.449 179.843h-.404m0 0v1.322m0 0h.404m0 0v-1.322M218.96 179.843v1.322m0 0h.403m0 0v-1.322m0 0h-.403M10.702 117.221h1.89m-.001 0V43.84m0 0h-1.89m.001 0v73.381M48.488 117.221V80.53m0 0h-26.45m0 0v36.691m0 0h26.45M48.488 80.53V43.84m0 0h-26.45m0 0v36.69m0 0h26.45M48.488 43.839v-9.598m0 0H10.702m0 0v9.598m0 0h1.888m9.447 0h26.451M48.488 126.818v-9.597m0 0H22.037m-9.447 0h-1.888m0 0v9.597m0 0h37.786M12.591 80.53h9.446m0 0V39.041m0 0h-9.446m0 0V80.53M12.591 80.53h9.446m0 0v41.489m0 0h-9.446m0 0V80.53M258.579 163.489h-22.672M258.579 186.161h-22.672M258.579 163.489v22.672M235.908 163.489v22.672M182.251 163.489h-22.672M182.251 186.161h-22.672M182.251 163.489v22.672M159.579 163.489v22.672M294.287 163.489h-35.708M294.287 186.15h-35.708M258.579 163.489v22.661M155.029 210.938a7.18 7.18 0 11-14.36 0 7.18 7.18 0 0114.36 0zM253.812 172.884a3.412 3.412 0 11-6.823 0 3.412 3.412 0 016.823 0z"/><path class="st2" d="M253.29 172.884a2.89 2.89 0 11-5.78 0 2.89 2.89 0 015.78 0zM246.671 172.053a2.58 2.58 0 11-5.16 0 2.58 2.58 0 015.16 0z"/><path class="st2" d="M245.538 172.053a1.445 1.445 0 11-2.89 0 1.445 1.445 0 012.89 0zM206.751 316.344a3.78 3.78 0 11-7.558 0 3.78 3.78 0 017.558 0z"/><path class="st2" d="M204.105 316.344a1.134 1.134 0 11-2.267-.001 1.134 1.134 0 012.267.001zM289.565 316.344a3.78 3.78 0 11-7.558 0 3.78 3.78 0 017.558 0z"/><path class="st2" d="M286.919 316.344a1.134 1.134 0 11-2.267-.001 1.134 1.134 0 012.267.001zM191.32 440.661a3.778 3.778 0 11-7.557.001 3.778 3.778 0 017.557-.001z"/><path class="st2" d="M188.675 440.661a1.134 1.134 0 11-2.267-.001 1.134 1.134 0 012.267.001zM280.117 440.661a3.778 3.778 0 11-3.778-3.779 3.778 3.778 0 013.778 3.779z"/><path class="st2" d="M277.473 440.661a1.134 1.134 0 11-2.267-.001 1.134 1.134 0 012.267.001zM151.259 126.483h-15.114m0 0V32.017m0 0h15.114m0 0v94.466M146.378 55.596h1.02m0 0v44.369m0 0h-1.02m0 0V55.596M147.398 65.057h.833m0 0l.566.152m0 0l.415.414m0 0l.153.567m0 0v22.7m0 0l-.153.566m0 0l-.415.415m0 0l-.566.152m0 0h-.833m0 0V65.057M146.08 55.596h.298m.001 0v44.369m0 0h-.298m-.001 0V55.596M210.503 251.327h68.015m0 0v71.794m0 0h-68.015m0 0v-71.794M212.392 249.437h64.237m0 0l.723.144m0 0l.613.409m0 0l.409.614m0 0l.144.722m0 0h-68.015m0 0l.144-.722m0 0l.409-.614m0 0l.613-.409m0 0l.723-.144M210.503 326.899h68.015m0 0v-3.779m0 0h-68.015m0 0v3.779M278.518 326.899h-68.015m0 0v-1.889m0 0h68.015m0 0v1.889M278.518 326.899h15.77m0 0v-18.893m0 0h-15.77m0 0v18.893M210.503 326.899H195.44m0 0v-18.893m0 0h15.063m0 0v18.893M250.557 321.231h25.694m0 0l.268-.111m0 0l.11-.267m0 0v-12.469m0 0l-.11-.268m0 .001l-.268-.11m0 0h-25.694m0 0l-.268.11m0 0l-.11.268m0-.001v12.469m0 0l.11.267m0 0l.268.111M238.465 321.231H212.77m0 0l-.267-.111m0 0l-.111-.267m0 0v-12.469m0 0l.111-.268m0 .001l.267-.11m0 0h25.695m0 0l.267.11m0 0l.111.268m0-.001v12.469m0 0l-.111.267m0 0l-.267.111M210.503 309.03h1.889M238.843 309.03h11.336M276.629 309.03h1.889M210.503 304.02h68.015m0 0v-18.686m0 .001l-68.015 14.907m0-.001v3.779M292.399 221.669v-22.671m0 0h-89.365m0 0v22.671m0 0h89.365M203.034 210.333v.756m0 0h89.365m-.001 0v-.756m0 0h-89.365M285.812 220.054v-18.626m0 0h-.756m0 0v18.626m0 0h.756M283.807 220.054v-18.626m0 0h-.756m0 0v18.626m0 0h.756M281.802 220.054v-18.626m0 0h-.756m0 0v18.626m0 0h.756M279.797 220.054v-18.626m0 0h-.755m0 0v18.626m0 0h.755M275.552 219.919l2.241-18.491m0 0l-.75-.091m0 0l-2.242 18.491m0 0l.751.091M197.932 375.644h68.016m0 0v71.794m0 0h-68.016m0 0v-71.794M199.822 373.754h64.237m0 0l.723.144m0 0l.613.41m0 0l.409.613m0 0l.144.723m0 0h-68.016m0 0l.145-.723m-.001 0l.409-.613m.001 0l.613-.41m0 0l.723-.144M197.932 451.216h68.016m0 0v-3.778m0 0h-68.016m0 0v3.778M265.948 451.216h-68.016m0 0v-1.889m0 0h68.016m0 0v1.889M267.837 451.216h17.004m0 0v-18.893m0 0h-17.004m0 0v18.893M196.043 451.216h-17.004m0 0v-18.893m0 0h17.004m0 0v18.893M237.986 445.548h25.695m0 0l.267-.11m0 0l.111-.268m0 0v-12.469m0 0l-.111-.268m0 0l-.267-.11m0 0h-25.695m0 0l-.267.11m0 0l-.111.268m0 0v12.469m0 0l.111.268m0 0l.267.11M225.895 445.548H200.2m0 0l-.267-.11m0 0l-.111-.268m0 0v-12.469m0 0l.111-.268m0 0l.267-.11m0 0h25.695m0 0l.267.11m0 0l.11.268m0 0v12.469m0 0l-.11.268m0 0l-.267.11M197.932 433.347h1.89M226.272 433.347h11.336M264.059 433.347h1.889M197.932 428.337h68.016m0 0v-18.686m0 0l-68.016 14.908m0 0v3.778M82.255 99.015V61.229m0 0H63.362m0 0v37.786m0 0h18.893M92.32 189.357v-15.87m0 0H25.816m0 0v15.87m0 0H92.32M82.873 383.957h22.672m0 0v-47.8m0 0H82.873m0 0v47.8M94.209 336.157h-.756m0 0v47.8m0 0h.756m0 0v-47.8M84.489 375.098h18.626m0 0v-.756m0 0H84.489m0 0v.756M84.489 373.094h18.626m0 0v-.756m0 0H84.489m0 0v.756M84.489 371.089h18.626m0 0v-.755m0 0H84.489m0 0v.755M84.489 369.084h18.626m0 0v-.756m0 0H84.489m0 0v.756M84.623 364.838l18.491 2.241m0 0l.091-.75m0 0l-18.49-2.241m0 0l-.092.75M203.034 221.669v-22.671m0 0h-41.187m0 0v22.671m0 0h41.187M147.155 204.93l-.449 1.233m0 0v1.312m0 0l.449 1.233m0 0l-.342 1.474m.001 0v1.512m0 0l.342 1.473m-.001 0l-.45 1.235m.001 0v1.314m0 0l.45 1.235m-.001 0l-2.987-2.232m.001 0v-7.558m0 0l2.987-2.231M143.907 207.162v7.557m0 0h.262m0 0v-7.557m0 0h-.262M143.384 207.162v7.557m0 0h.261m0 0v-7.557m0 0h-.261M148.671 211.782l.085-.891m0 0l-.226-.022m0 0l-.046.477m0 0l-1.142-1.383m0 0l-.152.126m0 0l.53.642m0 0l-.081.067m0 0l-.611-.74m0 0l-.146.121m0 0l.61.74m0 0l-.097.08m0 0l-.496-.601m0 0l-.131.107m0 0l.497.602m0 0l-.098.08m0 0l-.342-.415m0 0l-.139.116m0 0l1.173 1.422M158.824 199.014v23.256m0 0h-22.672m0 0v-23.256m0 0h22.672M64.358 327.088h27.206m0 0v-14.737m0 0H64.358m0 0v14.737M10.702 253.216v18.704m0 0H92.32m0 0v-18.704m0 0H10.702M92.32 262.834v-.755m0 0H10.702m0 0v.755m0 0H92.32M23.347 253.768v17.316m0 0h.703m0 0v-17.316m0 0h-.703M25.211 253.768v17.316m0 0h.702m0 0v-17.316m0 0h-.702M27.075 253.768v17.316m0 0h.702m0 0v-17.316m0 0h-.702M28.938 253.768v17.316m0 0h.703m0 0v-17.316m0 0h-.703M32.885 253.894l-2.083 17.19m0 0l.697.085m0 0l2.083-17.191m0 0l-.697-.084M136.152 268.898h22.672m0 0V222.27m0 0h-22.672m0 0v46.627M147.488 222.27h-.755m0 0v46.627m0 0h.755m0 0V222.27M156.393 260.61h-18.626m0 0v-.756m0 0h18.626m0 0v.756M156.393 258.606h-18.626m0 0v-.756m0 0h18.626m0 0v.756M156.393 256.601h-18.626m0 0v-.755m0 0h18.626m0 0v.755M156.393 254.597h-18.626m0 0v-.756m0 0h18.626m0 0v.756M156.258 250.35l-18.491 2.241m0 .001l-.091-.75m0-.001l18.491-2.241m0 .001l.091.75M254.469 170.677h-.963m0 0v-1.204m0 0h-12.524m0 0v1.204m0 0h-.964M253.005 180.682h-9.634m0 0v-.479m0 0h.723m0 0v.238m0 0h8.188m0 0v-.238m0 0h.723m0 0v.479M253.005 180.203l-.047-.103m-.048-.103l-.047-.103m-.046-.103l-.047-.104m-.048-.103l-.047-.103m-.047-.103l-.048-.103m-.047-.103l-.047-.103m-.046-.103l-.048-.103m-.047-.103l-.047-.103m-.047-.103l-.048-.103m-.047-.103l-.047-.103m-.047-.104l-.047-.103m-.047-.103l-.048-.103m-.047-.103l-.047-.103m-.047-.103l-.047-.103m-.047-.103l-.047-.104m-.048-.102l-.047-.104m-.047-.103l-.048-.103M243.372 180.203l.047-.103m.048-.103l.047-.103m.046-.103l.047-.104m.047-.103l.047-.103m.048-.103l.048-.103m.047-.103l.047-.103m.046-.103l.047-.103m.047-.103l.047-.103m.048-.103l.047-.103m.048-.103l.047-.103m.046-.104l.047-.103m.047-.103l.048-.103m.047-.103l.047-.103m.048-.103l.046-.103m.047-.103l.047-.104m.049-.102l.047-.104m.046-.103l.048-.103M253.005 180.203h-.078m-.113 0h-.114m-.113 0h-.113m-.114 0h-.078m0 0l-.042-.051m-.071-.088l-.071-.088m-.072-.088l-.071-.088m-.072-.088l-.071-.088m-.072-.088l-.071-.088m-.071-.088l-.072-.088m-.071-.089l-.072-.087m-.071-.088l-.072-.088m-.071-.089l-.071-.087m-.072-.088l-.071-.088m-.072-.088l-.071-.089m-.072-.087l-.071-.088m-.071-.088l-.072-.089m-.072-.087l-.071-.088m-.071-.088l-.072-.089m-.072-.088l-.071-.088m-.071-.087l-.072-.089m-.071-.088l-.071-.087m-.072-.088l-.072-.088m-.071-.089l-.071-.088m-.072-.088l-.071-.088m-.071-.088l-.072-.088m-.072-.087l-.041-.052M243.372 180.203h.078m.113 0h.114m.112 0h.113m.114 0h.078m0 0l.042-.051m.072-.088l.071-.088m.071-.088l.071-.088m.071-.088l.072-.088m.072-.088l.071-.088m.071-.088l.072-.088m.072-.089l.071-.087m.071-.088l.072-.088m.072-.089l.072-.087m.07-.088l.072-.088m.072-.088l.071-.089m.071-.087l.071-.088m.073-.088l.071-.089m.071-.087l.071-.088m.071-.088l.073-.089m.071-.088l.071-.088m.072-.087l.072-.089m.07-.088l.071-.087m.073-.088l.071-.088m.071-.089l.071-.088m.073-.088l.071-.088m.071-.088l.073-.088m.071-.087l.042-.052M110.457 436.102H91.375m0 0v15.114m0 0h19.082m0 0v-15.114M199.292 317.204l3.679-.86m0 0l1.584-3.431m0 0l-1.584 3.431m0 0l1.306 3.546M289.465 317.204l-3.68-.86m0 0l-1.583-3.431m0 0l1.583 3.431m0 0l-1.305 3.546M183.862 441.521l3.68-.86m0 0l1.584-3.431m0 0l-1.584 3.431m0 0l1.306 3.546M280.019 441.521l-3.68-.86m0 0l-1.584-3.431m0 0l1.584 3.431m0 0l-1.306 3.546"/></g></g><g id="walls_2_"><path class="st0" d="M99.499 462.06H82.865v-10.996h5.678v-64.198h-5.669v-3.023h28.528v1.511h-.453v1.512H91.564v64.198h79.415v-64.198h-32.673v-1.512h-.453v-1.511h36.148v67.221h120.287v10.996H99.499zm59.325-263.16v-.017h-22.672v-12.847h46.1l-.001-15.481h19.648v15.481h51.204v12.847h-91.257v90.644h-1.511v.453h-1.511v-18.174h-22.672v-3.023h22.672V198.9zm94.155 127.999v8.993l-98.992.088-.001-1.512-.453.001-.007-7.558 5.298-.004v-6.34h1.511v.453h1.511v5.884l91.133-.005zm-67.705-140.863h13.604v-12.458h-13.604v12.458zm-92.954 42.71h-1.512v.453h-1.511l-.001 20.88H10.702v3.023H92.32v-24.356zm-71.794-11.919h-.001l.001 3.023-9.824.004v-3.023l6.801-.003v-24.562h-6.801v-3.023h12.091v-12.847H10.702v-3.023h15.114v3.023h-.002v12.847h66.505l.001 12.297h-1.512v-.454h-1.511l-.001-8.82h-68.77v24.561zm91.442 110.121v-11.687H94.586v11.703l17.382-.016zm-20.404.018v-14.728h23.428v14.708l7.549-.007.007 7.557-.454.001.002 1.511-39.222.035v-9.069l8.69-.008z"/><path class="st3" d="M174.249 292.077c-4.812-1.796-7.273-2.287-12.402-2.55"/><path class="st4" d="M174.347 292.114l-1.388-.601-12.623 29.052v.454l1.511.001z"/><path class="st3" d="M55.72 351.601c2.249-6.022 2.868-9.14 3.197-15.559"/><path class="st4" d="M55.677 351.7l.6-1.387-36.355-15.782h-.453l-.001 1.511z"/><path class="st3" d="M124.684 348.565c-1.792-4.812-2.322-7.429-2.588-12.557"/><path class="st4" d="M124.727 348.664l29.26-12.685-.001-1.512h-.453l-29.408 12.81z"/><g><path class="st3" d="M113.155 397.63c-1.561-4.178-1.978-6.312-2.206-10.765"/><path class="st4" d="M113.196 397.724l25.11-10.859v-1.511h-.453l-25.257 10.983z"/></g><g><path class="st3" d="M78.234 226.931c4.238 1.57 6.549 2.038 11.063 2.267"/><path class="st4" d="M78.139 226.89l1.387.6 11.283-25.95v-.455l-1.512.001z"/></g><g><path class="st3" d="M310.536 426.73h-16.248M318.093 426.73h-5.668M312.426 426.73h-1.891M310.536 360.604h-16.248M318.093 360.604h-5.668M312.426 360.604h-1.891M318.093 360.604v66.126M294.288 360.604v66.126M310.536 360.604v3.779M310.536 364.383h1.89M312.426 364.383v-3.78M312.426 398.39v-1.889M312.426 396.501h-1.891M310.536 396.501v1.889M311.481 364.383V396.5M310.536 364.383V396.5M312.426 396.501v-32.118M310.536 398.39v.945M310.536 399.335h.945M311.481 399.335v.945M311.481 400.279h.944M312.426 400.279v-1.89M312.426 426.73v-3.779M312.426 422.951h-.944M311.481 422.951v.945M311.481 423.896h-.945M310.536 423.896v2.834M312.426 422.951V400.28M309.591 402.169v18.893M309.591 399.335v2.834M309.591 402.169h1.891M311.481 402.169v-2.834M311.481 399.335h-1.89M311.481 423.896v-2.834M311.481 421.062h-1.89M309.591 421.062v2.834M309.591 423.896h1.891M311.481 421.062v-18.893M309.591 402.169v18.893M310.536 402.169v18.893M312.426 360.604h-1.891M312.426 360.604h-1.891M318.093 360.604h-5.668M310.536 360.604h-16.248M312.426 426.73h-1.891M312.426 426.73h-1.891M318.093 426.73h-5.668M310.536 426.73h-16.248"/><g><path class="st3" d="M310.536 215.126h-16.248M318.093 215.126h-5.668M312.426 215.126h-1.891M310.536 298.256h-16.248M318.093 298.256h-5.668M312.426 298.256h-1.891M318.093 298.256v-83.13M294.288 298.256v-83.13M310.536 298.256v-3.778M310.536 294.478h1.89M312.426 294.478v3.778M312.426 258.581v1.889M312.426 260.47h-1.891M310.536 260.47v-1.889M311.481 294.478V260.47M310.536 294.478V260.47M312.426 260.47v34.008M310.536 258.581v-.945M310.536 257.636h.945M311.481 257.636v-.944M311.481 256.692h.944M312.426 256.692v1.889M312.426 215.126v3.779M312.426 218.905h-.944M311.481 218.905v-.944M311.481 217.961h-.945M310.536 217.961v-2.834M309.591 217.961l-28.055 28.055M312.426 218.905v37.787M309.591 254.802v-34.008M309.591 257.636v-2.834M309.591 254.802h1.891M311.481 254.802v2.834M311.481 257.636h-1.89M311.481 217.961v2.833M311.481 220.794h-1.89M309.591 220.794v-2.833M309.591 217.961h1.891M311.481 220.794v34.008M309.591 254.802v-34.008M310.536 254.802v-34.008M309.591 257.636a39.676 39.676 0 01-28.055-11.621M312.426 298.256h-1.891M312.426 298.256h-1.891M318.093 298.256h-5.668M310.536 298.256h-16.248M312.426 215.126h-1.891M312.426 215.126h-1.891M318.093 215.126h-5.668M310.536 215.126h-16.248"/></g><g><path class="st3" d="M103.467 8.058v16.248M103.467.5v5.668M103.467 6.168v1.89M37.342 8.058v16.248M37.342.5v5.668M37.342 6.168v1.89M37.342.5h66.125M37.342 24.306h66.125M37.342 8.058h3.778M41.12 8.058v-1.89M41.12 6.168h-3.778M75.128 6.168h-1.89M73.238 6.168v1.89M73.238 8.058h1.89M41.12 7.113h32.118M41.12 8.058h32.118M73.238 6.168H41.12M75.128 8.058h.944M76.072 8.058v-.945M76.072 7.113h.944M77.016 7.113v-.945M77.016 6.168h-1.889M103.467 6.168h-3.779M99.688 6.168v.945M99.688 7.113h.945M100.634 7.113v.945M100.634 8.058h2.833M99.688 6.168H77.016M78.906 9.002H97.8M76.072 9.002h2.834M78.906 9.002V7.113M78.906 7.113h-2.834M76.072 7.113v1.889M100.634 7.113h-2.835M97.799 7.113v1.889M97.799 9.002h2.835M100.634 9.002V7.113M97.799 7.113H78.905M78.906 9.002H97.8M78.906 8.058H97.8M37.342 6.168v1.89M37.342 6.168v1.89M37.342.5v5.668M37.342 8.058v16.248M103.467 6.168v1.89M103.467 6.168v1.89M103.467.5v5.668M103.467 8.058v16.248"/></g><g><path class="st3" d="M214.936 8.058v16.248M214.936.5v5.668M214.936 6.168v1.89M148.811 8.058v16.248M148.811.5v5.668M148.811 6.168v1.89M148.811.5h66.125M148.811 24.306h66.125M148.811 8.058h3.778M152.589 8.058v-1.89M152.589 6.168h-3.778M186.597 6.168h-1.89M184.708 6.168v1.89M184.708 8.058h1.89M152.589 7.113h32.118M152.589 8.058h32.118M184.708 6.168H152.59M186.597 8.058h.944M187.542 8.058v-.945M187.542 7.113h.944M188.486 7.113v-.945M188.486 6.168h-1.889M214.936 6.168h-3.778M211.158 6.168v.945M211.158 7.113h.944M212.102 7.113v.945M212.102 8.058h2.834M211.158 6.168h-22.672M190.376 9.002h18.894M187.542 9.002h2.834M190.376 9.002V7.113M190.376 7.113h-2.834M187.542 7.113v1.889M212.102 7.113h-2.833M209.269 7.113v1.889M209.269 9.002h2.833M212.102 9.002V7.113M209.269 7.113h-18.894M190.376 9.002h18.894M190.376 8.058h18.894M148.811 6.168v1.89M148.811 6.168v1.89M148.811.5v5.668M148.811 8.058v16.248M214.936 6.168v1.89M214.936 6.168v1.89M214.936.5v5.668M214.936 8.058v16.248"/></g><g><path class="st3" d="M310.536 155.613h-16.248M318.093 155.613h-5.668M312.426 155.613h-1.891M318.093 155.613V.5M294.288 155.613V24.306M310.536 155.613v-4.723M310.536 150.89h1.89M312.426 150.89v4.723M312.426 8.058v4.723M312.426 12.781h-1.891M310.536 12.781V8.058M312.426 6.168v1.89M310.536 150.89V12.781M312.426 12.781V150.89M312.426 155.613h-1.891M312.426 155.613h-1.891M318.093 155.613h-5.668M310.536 155.613h-16.248M258.769 8.058v16.248M258.769.5v5.668M258.769 6.168v1.89M258.769.5h59.324M258.769 24.306h35.519M258.769 8.058h4.723M263.492 8.058v-1.89M263.492 6.168h-4.723M310.536 6.168h-4.723M305.813 6.168v1.89M305.813 8.058h4.723M312.426 6.168h-1.891M263.492 8.058h42.321M305.813 6.168h-42.321M258.769 6.168v1.89M258.769 6.168v1.89M258.769.5v5.668M258.769 8.058v16.248"/></g><path class="st3" d="M318.093 202.85h40.81m.001 0v105.802m0 0h-40.81m-.001 0V202.85M357.674 307.897h-39.581m0 0V203.606m0 0h39.581m0 0v104.291"/><g><path class="st5" d="M310.579 64.345h1.89v5.133h-1.89zM310.579 106.852h1.89v5.133h-1.89z"/></g></g><g><path class="st6" d="M13.452 173.2l-2.73 2.4M20.872 173.2l-3.43 3.02M25.842 175.36l-3.03 2.67M17.702 189.07l-3.43 3.02M25.842 181.9l-3.03 2.67M25.842 188.44l-4.15 3.65M20.552 193.1l-3.03 2.66M32.542 189.07l-3.43 3.02M20.552 199.63l-3.03 2.67M39.962 189.07l-3.43 3.02M20.552 206.17l-3.03 2.67M16.072 216.65l-3.43 3.03M47.382 189.07l-3.42 3.02M20.552 212.71l-3.03 2.67M20.552 219.25l-.47.42M54.812 189.07l-3.43 3.02M62.232 189.07l-3.43 3.02M69.652 189.07l-3.42 3.02M77.072 189.07l-3.43 3.02M15.442 249.9l-3.44 3.03M84.492 189.07l-3.42 3.02M22.872 249.9l-3.44 3.03M91.922 189.07l-3.43 3.02M92.342 195.24l-3.02 2.66M30.292 249.9l-3.44 3.03M37.712 249.9l-3.44 3.03M45.132 249.9l-3.44 3.03M52.562 249.9l-3.44 3.03M59.972 249.9l-3.43 3.03M140.092 185.86l-3.92 3.46M91.612 228.57l-2.29 2.02M67.402 249.9l-3.44 3.03M147.522 185.86l-11.35 10M74.822 249.9l-3.44 3.03M92.342 234.47l-3.02 2.66M154.942 185.86l-14.58 12.85M82.252 249.9l-3.44 3.03M92.342 241.01l-3.02 2.66M162.362 185.86l-14.58 12.85M92.342 247.55l-6.11 5.38M169.792 185.86l-14.59 12.85M187.362 170.38l-5.09 4.48M177.202 185.86l-14.58 12.85M161.872 199.37l-3.03 2.67M194.782 170.38l-3.43 3.02M185.302 178.73l-3.03 2.67M185.302 185.27l-15.26 13.44M161.872 205.91l-3.03 2.67M201.922 170.63l-3.15 2.77M192.052 185.86l-14.59 12.85M161.872 212.45l-3.03 2.67M201.922 177.17l-3.02 2.66M201.922 183.71l-17.03 15M161.872 218.99l-3.03 2.67M206.902 185.86l-14.59 12.85M161.872 225.53l-3.03 2.66M214.322 185.86l-14.59 12.85M161.872 232.07l-3.03 2.66M221.742 185.86l-14.59 12.85M161.872 238.6l-3.03 2.67M229.162 185.86l-14.59 12.85M161.872 245.14l-3.03 2.67M236.582 185.86l-14.58 12.85M161.872 251.68l-3.03 2.67M142.652 268.61l-3.43 3.02M93.332 312.06l-1.74 1.53M244.012 185.86l-14.59 12.85M161.872 258.22l-3.03 2.67M94.612 317.47l-3.02 2.66M100.752 312.06l-3.44 3.03M84.022 326.8l-1.12.98M150.072 268.61l-3.43 3.02M251.432 185.86l-14.59 12.85M161.872 264.76l-3.03 2.67M94.612 324.01l-3.02 2.66M91.452 326.79l-8.55 7.53M108.172 312.06l-3.44 3.03M157.502 268.61l-3.43 3.02M161.872 271.3l-3.03 2.66M115.012 312.58l-3.02 2.66M98.882 326.79l-10.3 9.07M253.122 190.91l-8.85 7.8M253.122 197.45l-1.43 1.26M106.312 326.78l-10.3 9.08M115.012 319.12l-3.02 2.66M161.872 277.84l-3.03 2.66M161.872 284.37l-3.02 2.66M115.012 325.65l-11.58 10.2M121.172 326.76l-10.31 9.08M122.572 332.07l-4.27 3.76M86.262 383.67l-3.37 2.97M161.872 323.6l-3.03 2.67M158.312 326.73l-4.76 4.2M93.682 383.67l-5.12 4.51M101.102 383.67l-3.43 3.02M91.592 392.05l-3.03 2.67M165.742 326.73l-10.3 9.07M91.592 398.59l-3.03 2.67M108.532 383.67l-3.43 3.02M173.162 326.73l-10.29 9.06M91.592 405.13l-3.03 2.67M180.592 326.73l-10.28 9.06M91.592 411.67l-3.03 2.67M188.012 326.73l-10.27 9.05M91.592 418.21l-3.03 2.67M195.442 326.73l-10.28 9.04M91.592 424.75l-3.03 2.67M138.222 383.67l-.35.31M202.862 326.73l-10.26 9.04M145.632 383.67l-3.42 3.02M91.592 431.28l-3.03 2.67M210.282 326.72l-10.26 9.04M153.062 383.67l-3.43 3.02M91.592 437.82l-3.03 2.67M217.702 326.72l-10.25 9.04M160.482 383.67l-3.43 3.02M84.182 450.89l-1.29 1.13M91.592 444.36l-3.03 2.67M225.132 326.72l-10.25 9.03M167.912 383.67l-3.43 3.02M91.592 450.89l-8.7 7.67M232.552 326.72l-10.24 9.02M174.022 384.82l-3.02 2.66M99.022 450.89l-12.47 10.99M239.972 326.72l-10.23 9.02M174.022 391.36l-3.02 2.66M106.452 450.89l-12.48 10.99M247.402 326.72l-10.23 9.01M174.022 397.89l-3.02 2.66M113.862 450.89l-12.47 10.99M253.002 328.32l-8.41 7.41M253.002 334.86l-.98.86M121.282 450.89l-12.47 10.99M174.022 404.43l-3.02 2.66M128.712 450.89l-12.48 10.99M174.022 410.97l-3.02 2.66M136.132 450.89l-12.47 10.99M174.022 417.51l-3.02 2.66M143.552 450.89l-12.47 10.99M174.022 424.05l-3.02 2.66M150.982 450.89l-12.48 10.99M174.022 430.59l-3.02 2.66M158.392 450.89l-12.47 10.99M174.022 437.12l-3.02 2.66M165.822 450.89l-12.48 10.99M174.022 443.66l-3.02 2.66M174.022 450.2l-13.25 11.68M180.672 450.89l-12.48 10.99M188.092 450.89l-12.48 10.99M195.512 450.89l-12.47 10.99M202.942 450.89l-12.48 10.99M210.352 450.89l-12.48 10.99M217.772 450.89l-12.47 10.99M225.202 450.89l-12.48 10.99M232.622 450.89l-12.47 10.99M240.042 450.89l-12.47 10.99M247.472 450.89l-12.48 10.99M254.882 450.89l-12.47 10.99M262.312 450.89l-12.48 10.99M269.732 450.89l-12.47 10.99M277.152 450.89l-12.47 10.99M284.582 450.89l-12.48 10.99M292.002 450.89l-12.47 10.99M294.312 455.4l-7.36 6.48"/></g><path class="st5" d="M99.499 462.06H82.865v-10.996h5.678v-64.198h-5.669v-3.023h28.528v1.511h-.453v1.512H91.564v64.198h79.415v-64.198h-32.673v-1.512h-.453v-1.511h36.148v67.221h120.287v10.996H99.499zm59.325-263.16v-.017h-22.672v-12.847h46.1l-.001-15.481h19.648v15.481h51.204v12.847h-91.257v90.644h-1.511v.453h-1.511v-18.174h-22.672v-3.023h22.672V198.9zm94.155 127.999v8.993l-98.992.088-.001-1.512-.453.001-.007-7.558 5.298-.004v-6.34h1.511v.453h1.511v5.884l91.133-.005zm-67.705-140.863h13.604v-12.458h-13.604v12.458zm-92.954 42.71h-1.512v.453h-1.511l-.001 20.88H10.702v3.023H92.32v-24.356zm-71.794-11.919h-.001l.001 3.023-9.824.004v-3.023l6.801-.003v-24.562h-6.801v-3.023h12.091v-12.847H10.702v-3.023h15.114v3.023h-.002v12.847h66.505l.001 12.297h-1.512v-.454h-1.511l-.001-8.82h-68.77v24.561zm91.442 110.121v-11.687H94.586v11.703l17.382-.016zm-20.404.018v-14.728h23.428v14.708l7.549-.007.007 7.557-.454.001.002 1.511-39.222.035v-9.069l8.69-.008z"/><path d="M318.093 462.06H72.671V336.038l-.001.004H58.916v-1.512h-.453v-7.557l24.411-.013v124.141h211.414V426.73h23.805v35.33h0zm-23.805-163.803v28.529l-41.309.037v9.068l41.309-.035v24.748h23.805v-62.347h-23.805 0zM10.702 24.306h26.639V.501H.5v335.591c6.356 0 12.659-.048 18.969-.048v-1.512h.453v-7.557h-9.221V24.306h.001zm242.4 161.73h41.186v-30.423h23.805v59.514h-23.805v-16.244h-41.186v-12.847h0zm5.667-161.73h-43.832V.501h43.832v23.805h0zM103.467.501h45.344v23.805h-45.344V.501z" fill-rule="evenodd" clip-rule="evenodd" stroke="#000" stroke-linecap="round" stroke-linejoin="round" stroke-miterlimit="3"/><g><path class="st0" d="M99.614 462.01H82.98v-10.996h5.678v-64.198h-5.669v-3.023h28.528v1.511h-.453v1.512H91.679v64.198h79.415v-64.198H138.42v-1.512h-.453v-1.511h36.148v67.221h120.287v10.996H99.614zm59.324-263.16v-.017h-22.672v-12.847h46.1l-.001-15.481h19.648v15.481h51.204v12.847H161.96v90.644h-1.511v.453h-1.511v-18.174h-22.672v-3.023h22.672V198.85zm94.156 127.999v8.993l-98.992.088-.001-1.512-.453.001-.007-7.558 5.298-.004v-6.34h1.511v.453h1.511v5.884l91.133-.005zm-67.705-140.863h13.604v-12.458h-13.604v12.458zm-92.954 42.71h-1.512v.453h-1.511l-.001 20.88H10.817v3.023h81.618v-24.356zm-71.794-11.919h-.001l.001 3.023-9.824.004v-3.023l6.801-.003v-24.562h-6.801v-3.023h12.091v-12.847H10.817v-3.023h15.114v3.023h-.002v12.847h66.505l.001 12.297h-1.512v-.454h-1.511l-.001-8.82h-68.77v24.561zm91.442 110.121v-11.687H94.701v11.703l17.382-.016zm-20.404.018v-14.728h23.428v14.708l7.549-.007.007 7.557-.454.001.002 1.511-39.222.035v-9.069l8.69-.008z"/><path class="st6" d="M13.543 173.325l-2.73 2.4M20.963 173.325l-3.43 3.02M25.933 175.485l-3.03 2.67M17.793 189.195l-3.43 3.02M25.933 182.025l-3.03 2.67M25.933 188.565l-4.15 3.65M20.643 193.225l-3.03 2.66M32.633 189.195l-3.43 3.02M20.643 199.755l-3.03 2.67M40.053 189.195l-3.43 3.02M20.643 206.295l-3.03 2.67M16.163 216.775l-3.43 3.03M47.473 189.195l-3.42 3.02M20.643 212.835l-3.03 2.67M20.643 219.375l-.47.42M54.903 189.195l-3.43 3.02M62.323 189.195l-3.43 3.02M69.743 189.195l-3.42 3.02M77.163 189.195l-3.43 3.02M15.533 250.025l-3.44 3.03M84.583 189.195l-3.42 3.02M22.963 250.025l-3.44 3.03M92.013 189.195l-3.43 3.02M92.433 195.365l-3.02 2.66M30.383 250.025l-3.44 3.03M37.803 250.025l-3.44 3.03M45.223 250.025l-3.44 3.03M52.653 250.025l-3.44 3.03M60.063 250.025l-3.43 3.03M140.183 185.985l-3.92 3.46M91.703 228.695l-2.29 2.02M67.493 250.025l-3.44 3.03M147.613 185.985l-11.35 10M74.913 250.025l-3.44 3.03M92.433 234.595l-3.02 2.66M155.033 185.985l-14.58 12.85M82.343 250.025l-3.44 3.03M92.433 241.135l-3.02 2.66M162.453 185.985l-14.58 12.85M92.433 247.675l-6.11 5.38M169.883 185.985l-14.59 12.85M187.453 170.505l-5.09 4.48M177.293 185.985l-14.58 12.85M161.963 199.495l-3.03 2.67M194.873 170.505l-3.43 3.02M185.393 178.855l-3.03 2.67M185.393 185.395l-15.26 13.44M161.963 206.035l-3.03 2.67M202.013 170.755l-3.15 2.77M192.143 185.985l-14.59 12.85M161.963 212.575l-3.03 2.67M202.013 177.295l-3.02 2.66M202.013 183.835l-17.03 15M161.963 219.115l-3.03 2.67M206.993 185.985l-14.59 12.85M161.963 225.655l-3.03 2.66M214.413 185.985l-14.59 12.85M161.963 232.195l-3.03 2.66M221.833 185.985l-14.59 12.85M161.963 238.725l-3.03 2.67M229.253 185.985l-14.59 12.85M161.963 245.265l-3.03 2.67M236.673 185.985l-14.58 12.85M161.963 251.805l-3.03 2.67M142.743 268.735l-3.43 3.02M93.423 312.185l-1.74 1.53M244.103 185.985l-14.59 12.85M161.963 258.345l-3.03 2.67M94.703 317.595l-3.02 2.66M100.843 312.185l-3.44 3.03M84.113 326.925l-1.12.98M150.163 268.735l-3.43 3.02M251.523 185.985l-14.59 12.85M161.963 264.885l-3.03 2.67M94.703 324.135l-3.02 2.66M91.543 326.915l-8.55 7.53M108.263 312.185l-3.44 3.03M157.593 268.735l-3.43 3.02M161.963 271.425l-3.03 2.66M115.103 312.705l-3.02 2.66M98.973 326.915l-10.3 9.07M253.213 191.035l-8.85 7.8M253.213 197.575l-1.43 1.26M106.403 326.905l-10.3 9.08M115.103 319.245l-3.02 2.66M161.963 277.965l-3.03 2.66M161.963 284.495l-3.02 2.66M115.103 325.775l-11.58 10.2M121.263 326.885l-10.31 9.08M122.663 332.195l-4.27 3.76M86.353 383.795l-3.37 2.97M161.963 323.725l-3.03 2.67M158.403 326.855l-4.76 4.2M93.773 383.795l-5.12 4.51M101.193 383.795l-3.43 3.02M91.683 392.175l-3.03 2.67M165.833 326.855l-10.3 9.07M91.683 398.715l-3.03 2.67M108.623 383.795l-3.43 3.02M173.253 326.855l-10.29 9.06M91.683 405.255l-3.03 2.67M180.683 326.855l-10.28 9.06M91.683 411.795l-3.03 2.67M188.103 326.855l-10.27 9.05M91.683 418.335l-3.03 2.67M195.533 326.855l-10.28 9.04M91.683 424.875l-3.03 2.67M138.313 383.795l-.35.31M202.953 326.855l-10.26 9.04M145.723 383.795l-3.42 3.02M91.683 431.405l-3.03 2.67M210.373 326.845l-10.26 9.04M153.153 383.795l-3.43 3.02M91.683 437.945l-3.03 2.67M217.793 326.845l-10.25 9.04M160.573 383.795l-3.43 3.02M84.273 451.015l-1.29 1.13M91.683 444.485l-3.03 2.67M225.223 326.845l-10.25 9.03M168.003 383.795l-3.43 3.02M91.683 451.015l-8.7 7.67M232.643 326.845l-10.24 9.02M174.113 384.945l-3.02 2.66M99.113 451.015l-12.47 10.99M240.063 326.845l-10.23 9.02M174.113 391.485l-3.02 2.66M106.543 451.015l-12.48 10.99M247.493 326.845l-10.23 9.01M174.113 398.015l-3.02 2.66M113.953 451.015l-12.47 10.99M253.093 328.445l-8.41 7.41M253.093 334.985l-.98.86M121.373 451.015l-12.47 10.99M174.113 404.555l-3.02 2.66M128.803 451.015l-12.48 10.99M174.113 411.095l-3.02 2.66M136.223 451.015l-12.47 10.99M174.113 417.635l-3.02 2.66M143.643 451.015l-12.47 10.99M174.113 424.175l-3.02 2.66M151.073 451.015l-12.48 10.99M174.113 430.715l-3.02 2.66M158.483 451.015l-12.47 10.99M174.113 437.245l-3.02 2.66M165.913 451.015l-12.48 10.99M174.113 443.785l-3.02 2.66M174.113 450.325l-13.25 11.68M180.763 451.015l-12.48 10.99M188.183 451.015l-12.48 10.99M195.603 451.015l-12.47 10.99M203.033 451.015l-12.48 10.99M210.443 451.015l-12.48 10.99M217.863 451.015l-12.47 10.99M225.293 451.015l-12.48 10.99M232.713 451.015l-12.47 10.99M240.133 451.015l-12.47 10.99M247.563 451.015l-12.48 10.99M254.973 451.015l-12.47 10.99M262.403 451.015l-12.48 10.99M269.823 451.015l-12.47 10.99M277.243 451.015l-12.47 10.99M284.673 451.015l-12.48 10.99M292.093 451.015l-12.47 10.99M294.403 455.525l-7.36 6.48"/><path d="M99.614 462.01H82.98v-10.996h5.678v-64.198h-5.669v-3.023h28.528v1.511h-.453v1.512H91.679v64.198h79.415v-64.198H138.42v-1.512h-.453v-1.511h36.148v67.221h120.287v10.996H99.614h0zm59.324-263.16v-.017h-22.672v-12.847h46.1l-.001-15.481h19.648v15.481h51.204v12.847H161.96v90.644h-1.511v.453h-1.511v-18.174h-22.672v-3.023h22.672V198.85h0zm94.156 127.999v8.993l-98.992.088-.001-1.512-.453.001-.007-7.558 5.298-.004v-6.34h1.511v.453h1.511v5.884l91.133-.005h0zm-67.705-140.863h13.604v-12.458h-13.604v12.458h0zm-92.954 42.71h-1.512v.453h-1.511l-.001 20.88H10.817v3.023h81.618v-24.356h0zm-71.794-11.919h-.001l.001 3.023-9.824.004v-3.023l6.801-.003v-24.562h-6.801v-3.023h12.091v-12.847H10.817v-3.023h15.114v3.023h-.002v12.847h66.505l.001 12.297h-1.512v-.454h-1.511l-.001-8.82h-68.77v24.561h0zm91.442 110.121v-11.687H94.701v11.703l17.382-.016h0zm-20.404.018v-14.728h23.428v14.708l7.549-.007.007 7.557-.454.001.002 1.511-39.222.035v-9.069l8.69-.008z" fill-rule="evenodd" clip-rule="evenodd" fill="none" stroke="#020203" stroke-width=".567" stroke-miterlimit="22.926"/></g></g><g id="sizes_1_"><g id="sizes"><path d="M337.68 220.007l-.727-.348a2.857 2.857 0 01-1.168-1.008c-.294-.44-.48-.97-.559-1.59h1.625c.047.323.148.589.305.797.156.208.358.363.605.465s.538.152.871.152c.526 0 .935-.141 1.227-.422s.438-.677.438-1.188v-.344c0-.567-.138-1.006-.414-1.316-.276-.31-.667-.465-1.172-.465h-.805v-1.516h.805c.442 0 .786-.133 1.031-.398s.367-.641.367-1.125v-.352c0-.448-.129-.794-.387-1.039-.258-.245-.624-.367-1.098-.367-.271 0-.513.051-.727.152s-.395.258-.543.469-.257.476-.324.793h-1.617c.104-.62.301-1.151.59-1.594a2.893 2.893 0 011.098-1.008c.442-.229.95-.344 1.523-.344.979 0 1.737.258 2.273.773s.805 1.242.805 2.18v.188c0 .568-.153 1.063-.461 1.484s-.742.729-1.305.922c.62.136 1.101.44 1.441.914.341.474.512 1.078.512 1.813v.188c0 .662-.128 1.227-.383 1.695s-.626.826-1.113 1.07c-.487.245-1.074.367-1.762.367l-.951.002zM344.001 218.296h1.594v1.594l-1.594 1.578v-3.172zM353.649 209.952l-2.938 9.938h-1.695l2.938-9.844h-2.891v1.633h-1.594v-3.148h6.18v1.421zM171.854 322.909h-1.594v-9.625l-1.617.992v-1.648l1.617-1.078h1.594v11.359zM174.261 321.526l3.961-5.281c.229-.302.407-.615.535-.941.128-.325.191-.629.191-.91v-.016c0-.453-.133-.805-.398-1.055s-.644-.375-1.133-.375c-.464 0-.839.137-1.125.41s-.461.66-.523 1.16v.008h-1.648v-.008c.094-.65.285-1.207.574-1.668s.663-.813 1.121-1.055.987-.363 1.586-.363c.677 0 1.255.116 1.734.348.479.232.844.569 1.094 1.012.25.443.375.977.375 1.602v.008c0 .401-.083.82-.25 1.258s-.398.859-.695 1.266l-3.289 4.469h4.297v1.516h-6.406v-1.385zM182.542 321.315h1.594v1.594l-1.594 1.578v-3.172zM188.307 323.026l-.727-.348a2.857 2.857 0 01-1.168-1.008c-.294-.439-.48-.97-.559-1.59h1.625c.047.323.148.589.305.797.156.209.358.363.605.465s.538.152.871.152c.526 0 .935-.141 1.227-.422s.438-.677.438-1.188v-.344c0-.567-.138-1.006-.414-1.316-.276-.31-.667-.465-1.172-.465h-.805v-1.516h.805c.442 0 .786-.133 1.031-.398s.367-.641.367-1.125v-.352c0-.447-.129-.794-.387-1.039-.258-.244-.624-.367-1.098-.367-.271 0-.513.051-.727.152s-.395.258-.543.469-.257.476-.324.793h-1.617c.104-.619.301-1.15.59-1.594a2.893 2.893 0 011.098-1.008c.442-.229.95-.344 1.523-.344.979 0 1.737.258 2.273.773s.805 1.242.805 2.18v.188c0 .568-.153 1.063-.461 1.484s-.742.729-1.305.922c.62.136 1.101.44 1.441.914.341.475.512 1.078.512 1.813v.188c0 .662-.128 1.227-.383 1.695s-.626.826-1.113 1.07c-.487.245-1.074.367-1.762.367l-.951.002zM155.586 377.582h-1.594v-9.625l-1.617.992v-1.648l1.617-1.078h1.594v11.359zM157.992 376.199l3.961-5.281c.229-.302.407-.616.535-.941s.191-.629.191-.91v-.016c0-.453-.133-.805-.398-1.055s-.644-.375-1.133-.375c-.464 0-.839.137-1.125.41s-.461.66-.523 1.16v.008h-1.648v-.008c.094-.651.285-1.207.574-1.668s.663-.813 1.121-1.055.987-.363 1.586-.363c.677 0 1.255.116 1.734.348s.844.569 1.094 1.012.375.977.375 1.602v.008c0 .401-.083.82-.25 1.258s-.398.859-.695 1.266l-3.289 4.469h4.297v1.516h-6.406v-1.385zM166.273 375.988h1.594v1.594l-1.594 1.578v-3.172zM171.273 377.297c-.474-.269-.835-.659-1.082-1.172s-.371-1.132-.371-1.855v-.008c0-.422.05-.864.148-1.328a7.568 7.568 0 01.641-1.82l2.469-4.891h1.719l-2.898 5.664.008-.281c.13-.245.32-.435.57-.57s.542-.203.875-.203c.589 0 1.094.133 1.516.398s.742.652.961 1.16.328 1.118.328 1.832v.008c0 .729-.124 1.354-.371 1.875s-.609.917-1.086 1.188-1.048.406-1.715.406-1.238-.135-1.712-.403zm2.879-1.598c.273-.313.41-.758.41-1.336v-.008c0-.636-.144-1.126-.43-1.473s-.695-.52-1.227-.52c-.474 0-.841.175-1.102.523s-.391.841-.391 1.477v.008c0 .578.137 1.022.41 1.332s.66.465 1.16.465c.507.001.897-.156 1.17-.468z"/><g><path d="M17.714 167.113H16.12v-9.625l-1.617.992v-1.648l1.617-1.078h1.594v11.359zM24.315 161.472l-.008.281c-.13.24-.327.416-.59.527a2.372 2.372 0 01-.934.168c-.542 0-1.019-.138-1.43-.414-.411-.276-.73-.665-.957-1.168-.227-.502-.34-1.084-.34-1.746v-.008c0-.734.124-1.362.371-1.883a2.615 2.615 0 011.086-1.188c.477-.271 1.048-.406 1.715-.406s1.237.138 1.711.414a2.66 2.66 0 011.082 1.203c.247.526.371 1.159.371 1.898v.008c0 .406-.052.84-.156 1.301s-.253.918-.445 1.371l-.094.207c-.031.07-.065.14-.102.207l-2.422 4.867h-1.719l2.861-5.639zm.074-.984c.273-.338.41-.815.41-1.43v-.008c0-.599-.137-1.063-.41-1.391s-.66-.492-1.16-.492c-.505 0-.895.164-1.168.492s-.41.794-.41 1.398v.008c0 .615.137 1.09.41 1.426s.663.504 1.168.504c.5 0 .887-.169 1.16-.507zM28.346 165.519h1.594v1.594l-1.594 1.578v-3.172zM33.346 166.827a2.61 2.61 0 01-1.082-1.172c-.247-.513-.371-1.131-.371-1.855v-.008c0-.422.05-.864.148-1.328a7.673 7.673 0 01.532-1.597l.109-.223 2.469-4.891h1.719l-2.898 5.664.008-.281c.13-.245.32-.435.57-.57.25-.135.542-.203.875-.203.589 0 1.094.133 1.516.398s.742.652.961 1.16.328 1.119.328 1.832v.008c0 .729-.124 1.354-.371 1.875a2.615 2.615 0 01-1.086 1.188c-.477.271-1.048.406-1.715.406s-1.238-.134-1.712-.403zm2.879-1.597c.273-.313.41-.758.41-1.336v-.008c0-.635-.144-1.126-.43-1.473-.286-.346-.695-.52-1.227-.52-.474 0-.841.175-1.102.523-.261.349-.391.841-.391 1.477v.008c0 .578.137 1.022.41 1.332.273.31.66.465 1.16.465.507 0 .897-.156 1.17-.468z"/></g><g><path d="M99.678 300.337l-.008.281c-.13.24-.327.416-.59.527a2.372 2.372 0 01-.934.168c-.542 0-1.019-.138-1.43-.414-.411-.275-.73-.665-.957-1.168-.227-.502-.34-1.084-.34-1.746v-.008c0-.734.124-1.361.371-1.883a2.62 2.62 0 011.086-1.188c.477-.271 1.048-.406 1.715-.406s1.237.139 1.711.414c.474.276.835.678 1.082 1.203.247.526.371 1.159.371 1.898v.008c0 .406-.052.84-.156 1.301s-.253.918-.445 1.371l-.094.207c-.031.07-.065.14-.102.207l-2.422 4.867h-1.719l2.861-5.639zm.075-.985c.273-.338.41-.814.41-1.43v-.008c0-.599-.137-1.063-.41-1.391s-.66-.492-1.16-.492c-.505 0-.895.164-1.168.492s-.41.795-.41 1.398v.008c0 .615.137 1.09.41 1.426s.663.504 1.168.504c.5.001.886-.168 1.16-.507zM103.71 304.384h1.594v1.594l-1.594 1.578v-3.172zM108.71 305.692a2.604 2.604 0 01-1.082-1.172c-.247-.513-.371-1.131-.371-1.855v-.008c0-.422.05-.864.148-1.328a7.673 7.673 0 01.532-1.597l.109-.223 2.469-4.891h1.719l-2.898 5.664.008-.281c.13-.244.32-.435.57-.57.25-.135.542-.203.875-.203.589 0 1.094.133 1.516.398s.742.652.961 1.16.328 1.119.328 1.832v.008c0 .729-.124 1.354-.371 1.875a2.615 2.615 0 01-1.086 1.188c-.477.271-1.048.406-1.715.406s-1.239-.134-1.712-.403zm2.879-1.598c.273-.313.41-.758.41-1.336v-.008c0-.635-.144-1.126-.43-1.473-.286-.346-.695-.52-1.227-.52-.474 0-.841.175-1.102.523-.261.35-.391.842-.391 1.477v.008c0 .578.137 1.022.41 1.332.273.311.66.465 1.16.465.507.001.896-.155 1.17-.468z"/></g><g><path d="M228.036 46.848h-1.594v-9.625l-1.617.992v-1.648l1.617-1.078h1.594v11.359zM230.442 45.465l3.961-5.281c.229-.302.407-.616.535-.941.128-.325.191-.629.191-.91v-.016c0-.453-.133-.805-.398-1.055s-.644-.375-1.133-.375c-.464 0-.839.137-1.125.41s-.461.66-.523 1.16v.008h-1.648v-.008c.094-.651.285-1.207.574-1.668s.663-.813 1.121-1.055.987-.363 1.586-.363c.677 0 1.255.116 1.734.348.479.232.844.569 1.094 1.012.25.443.375.977.375 1.602v.008c0 .401-.083.82-.25 1.258s-.398.859-.695 1.266l-3.289 4.469h4.297v1.516h-6.406v-1.385zM238.723 45.254h1.594v1.594l-1.594 1.578v-3.172zM244.02 46.574c-.521-.26-.923-.629-1.207-1.105s-.426-1.03-.426-1.66v-.188c0-.567.142-1.102.426-1.602s.663-.877 1.137-1.133c-.401-.219-.723-.535-.965-.949s-.363-.85-.363-1.309v-.273c0-.594.133-1.116.398-1.566.266-.45.641-.799 1.125-1.047.484-.247 1.047-.371 1.688-.371s1.203.124 1.688.371c.484.248.859.597 1.125 1.047.266.451.398.973.398 1.566v.273c0 .469-.124.909-.371 1.32a2.472 2.472 0 01-.98.938c.479.261.863.64 1.152 1.137a3.13 3.13 0 01.434 1.598v.188c0 .63-.142 1.184-.426 1.66s-.687.845-1.207 1.105c-.521.261-1.125.391-1.813.391s-1.292-.13-1.813-.391zm2.789-1.359c.281-.146.499-.35.652-.613.153-.263.23-.566.23-.91v-.109c0-.349-.077-.655-.23-.918a1.576 1.576 0 00-.652-.613c-.281-.146-.606-.219-.977-.219s-.695.073-.977.219c-.281.146-.499.352-.652.617s-.23.573-.23.922v.117c0 .344.077.646.23.906.153.261.371.462.652.605.281.144.606.215.977.215s.696-.073.977-.219zm-.132-5.121c.245-.138.435-.334.57-.59.136-.255.203-.549.203-.883v-.109c0-.317-.067-.599-.203-.844s-.325-.434-.57-.566-.526-.199-.844-.199-.599.066-.844.199-.435.322-.57.566a1.726 1.726 0 00-.203.852v.117c0 .328.067.619.203.871.136.253.325.448.57.586.245.138.526.207.844.207s.598-.069.844-.207z"/></g><g><path d="M70.917 205.277l-.727-.348a2.857 2.857 0 01-1.168-1.008c-.294-.44-.48-.97-.559-1.59h1.625c.047.323.148.589.305.797.156.208.358.363.605.465s.538.152.871.152c.526 0 .935-.141 1.227-.422s.438-.677.438-1.188v-.344c0-.567-.138-1.006-.414-1.316-.276-.31-.667-.465-1.172-.465h-.805v-1.516h.805c.442 0 .786-.133 1.031-.398s.367-.641.367-1.125v-.352c0-.448-.129-.794-.387-1.039-.258-.245-.624-.367-1.098-.367-.271 0-.513.051-.727.152s-.395.258-.543.469-.257.476-.324.793H68.65c.104-.62.301-1.151.59-1.594a2.893 2.893 0 011.098-1.008c.442-.229.95-.344 1.523-.344.979 0 1.737.258 2.273.773s.805 1.242.805 2.18v.188c0 .568-.153 1.063-.461 1.484s-.742.729-1.305.922c.62.136 1.101.44 1.441.914.341.474.512 1.078.512 1.813v.188c0 .662-.128 1.227-.383 1.695s-.626.826-1.113 1.07c-.487.245-1.074.367-1.762.367l-.951.002zM77.237 203.566h1.594v1.594l-1.594 1.578v-3.172zM81.843 204.426c-.55-.567-.824-1.359-.824-2.375v-5.164c0-1.021.276-1.813.828-2.379.552-.565 1.356-.848 2.414-.848 1.063 0 1.868.281 2.418.844s.824 1.357.824 2.383v5.164c0 1.021-.276 1.814-.828 2.379-.552.565-1.356.848-2.414.848-1.063-.001-1.869-.285-2.418-.852zm3.664-1.106c.269-.294.402-.717.402-1.27v-5.164c0-.552-.133-.975-.398-1.27-.266-.294-.683-.441-1.25-.441s-.984.147-1.25.441c-.266.294-.398.718-.398 1.27v5.164c0 .552.134.976.402 1.27.269.294.684.441 1.246.441s.977-.146 1.246-.441z"/></g><g><path d="M122.95 416.998l-.727-.348c-.485-.232-.874-.567-1.168-1.008s-.48-.97-.559-1.59h1.625c.047.323.148.589.305.797s.358.363.605.465.538.152.871.152c.526 0 .935-.141 1.227-.422s.438-.677.438-1.188v-.344c0-.567-.138-1.007-.414-1.316s-.667-.465-1.172-.465h-.805v-1.516h.805c.442 0 .786-.133 1.031-.398s.367-.641.367-1.125v-.352c0-.448-.129-.794-.387-1.039s-.624-.367-1.098-.367c-.271 0-.513.051-.727.152s-.395.258-.543.469-.257.476-.324.793h-1.617c.104-.62.301-1.151.59-1.594s.655-.778 1.098-1.008.95-.344 1.523-.344c.979 0 1.737.258 2.273.773s.805 1.242.805 2.18v.188c0 .567-.153 1.063-.461 1.484s-.742.729-1.305.922c.62.136 1.101.44 1.441.914s.512 1.078.512 1.813v.188c0 .661-.128 1.227-.383 1.695s-.626.825-1.113 1.07-1.074.367-1.762.367l-.951.002zM129.271 415.287h1.594v1.594l-1.594 1.578v-3.172zM134.271 416.595c-.474-.269-.835-.659-1.082-1.172s-.371-1.132-.371-1.855v-.008c0-.422.05-.864.148-1.328a7.568 7.568 0 01.641-1.82l2.469-4.891h1.719l-2.898 5.664.008-.281c.13-.245.32-.435.57-.57s.542-.203.875-.203c.589 0 1.094.133 1.516.398s.742.652.961 1.16.328 1.118.328 1.832v.008c0 .729-.124 1.354-.371 1.875s-.609.917-1.086 1.188-1.048.406-1.715.406-1.239-.134-1.712-.403zm2.879-1.597c.273-.313.41-.758.41-1.336v-.008c0-.636-.144-1.126-.43-1.473s-.695-.52-1.227-.52c-.474 0-.841.175-1.102.523s-.391.841-.391 1.477v.008c0 .578.137 1.022.41 1.332s.66.465 1.16.465c.507.001.896-.156 1.17-.468z"/></g></g></g></svg>