<svg version="1.1" id="_x33_45" xmlns="http://www.w3.org/2000/svg" x="0" y="0" viewBox="0 0 303.268 293.277" xml:space="preserve"><style>.st0{fill-rule:evenodd;clip-rule:evenodd;fill:#fff}.st2,.st3{fill:none;stroke-linecap:round;stroke-linejoin:round;stroke-miterlimit:3}.st2{fill-rule:evenodd;clip-rule:evenodd;stroke:#999}.st3{stroke:#000}.st3,.st4,.st6{fill-rule:evenodd;clip-rule:evenodd}.st6{fill:none;stroke:#666;stroke-width:.6;stroke-miterlimit:22.9256}</style><path class="st0" d="M41.462.422V159.51H.295v105.375h41.167v27.912h245.666V.422z" id="fon"/><g id="mebel"><g id="mebel_2_"><path d="M262.924 130.462l.236-.236m-7.183.236l7.045-7.045m-13.992 7.045l13.992-13.992m-20.939 13.992l20.939-20.939m-27.886 20.939l27.886-27.886m2.343-2.343l3.892-3.892m-41.068 34.121l41.068-41.068m-48.015 41.068l48.015-48.015m-54.961 48.015l49.236-49.236M210.5 127.311l45.413-45.414m12.065-12.065l1.279-1.279M210.5 120.364l40.169-40.17m11.025-11.025l7.563-7.563M210.5 113.417l37.659-37.659m6.971-6.971l11.442-11.442M210.5 106.47l49.125-49.125M210.5 99.523l42.178-42.178M210.5 92.576l35.232-35.231M210.5 85.629l28.284-28.284M210.5 78.682l21.337-21.337M210.5 71.735l14.39-14.39m-14.39 7.444l7.444-7.444m-7.444.496l.496-.496m58.261 6.716l-6.716-6.716m5.552 12.5l-12.499-12.499m4.732 11.678l-11.679-11.679m20.61 27.557l-3.872-3.872m-11.912-11.912L241.7 57.345m36.437 43.383l-.05-.05m-.395-.394l-.051-.05m-8.384-8.385l-10.156-10.156m-9.857-9.857l-14.49-14.491m34.503 41.45l-18.651-18.651m-1.272-1.271l-21.527-21.528m35.94 42.888l-42.888-42.888m42.163 49.11l-49.109-49.11m49.109 56.057L210.5 60.879m52.522 59.47L210.5 67.826m52.522 59.47L210.5 74.773m48.742 55.689L210.5 81.719m41.796 48.743L210.5 88.667m34.848 41.795L210.5 95.613m27.901 34.849L210.5 102.56m20.955 27.902L210.5 109.507m14.008 20.955L210.5 116.454m7.061 14.008l-7.061-7.061m.114 7.061l-.114-.114" fill-rule="evenodd" clip-rule="evenodd" fill="none" stroke="#999" stroke-width=".4" stroke-linecap="round" stroke-linejoin="round" stroke-miterlimit="3"/><path class="st2" d="M254.266 68.892l-1.645.469m0 .001l-1.552.718m0 0l-1.229.968m0 0l-.943 1.248m0-.001l-.594 1.448m0 0l-.206 1.551m0 0l.206 1.551m0 .001l.594 1.447m0-.001l.943 1.249m0 0l1.229.967m0 0l1.552.719m0 0l1.645.469m0 0l1.698.207m0 0l1.709-.059m0 0l11.585-1.223m0 0V69.968m0 0l-11.585-1.223m0-.001l-1.709-.06m0 0l-1.698.208M263.536 79.411v-4.117M263.536 75.294v-4.117M249.269 78.358a5.734 5.734 0 01-.886-3.063M256.099 81.606c-2.591.166-5.106-1.031-6.83-3.248M263.536 79.411c-2.253 1.505-4.828 2.266-7.437 2.195M256.099 68.983c2.609-.07 5.185.689 7.437 2.195M249.269 72.231c1.723-2.217 4.238-3.413 6.83-3.248M248.383 75.294a5.734 5.734 0 01.886-3.063M269.068 70.646h.189v9.296h-.189zM269.257 79.942v-9.295m0 0h-.189m0 0v9.295m0 0h.189M269.257 65.847v18.894M273.792 65.847v18.894M269.257 65.847h4.534M269.257 84.741h4.534M278.137 100.8v29.095m0 0l-.167.401m0 0l-.4.166m0 0h-13.981m0 0l-.401-.166m0 0l-.166-.401m0 0V100.8m0 0l.166-.401m0 0l.401-.166m0 0h13.981m0 0l.4.166m0 0l.167.401M273.981 101.934v12.961m0 .906v12.961M273.414 129.329h-8.69M264.156 128.762v-26.828M264.723 101.367h8.69M273.981 128.762a.567.567 0 01-.567.567M264.723 129.329a.567.567 0 01-.567-.567M264.156 101.934c0-.312.254-.567.567-.567M273.414 101.367c.313 0 .567.254.567.567M271.597 115.801a.754.754 0 01-1.209 0h1.209zm-1.208-.907a.755.755 0 011.209 0h-1.209zM277.608 115.801v-.907m0 0h-7.749m0 0l-.3.256m0 0v.395m0 0l.3.256m0 0h7.749M277.608 114.592v1.511m0 0h.264m0 0v-1.511m0 0h-.264M277.873 114.214v2.267m0 0h.265m0 0v-2.267m0 0h-.265M276.248 112.079h1.625m0 0v.095m0 0h.132m0 0v.283m0 0h.132m0 0v-1.889m0 0h-.132m0 0v.283m0 0h-.132m0 0v.095m0 0h-1.625m0 0v.321m0 0h-.416m0 0v-1.077m0 0h-.491m0 0v2.645m0 0h.491m0 0v-1.077m0 0h.416m0 0v.321M276.248 118.617h1.625m0 0v-.095m0 0h.132m0 0v-.283m0 0h.132m0 0v1.889m0 0h-.132m0 0v-.283m0 0h-.132m0 0v-.095m0 0h-1.625m0 0v-.321m0 0h-.416m0 0v1.077m0 0h-.491m0 0v-2.645m0 0h.491m0 0v1.077m0 0h.416m0 0v-.321M275.832 111.267l-.072.072M275.832 111.758l-.072-.072M276.248 111.267v.491M277.873 110.946v1.133M278.005 112.174v-1.322M275.832 119.429l-.072-.072M275.832 118.937l-.072.072M276.248 119.429v-.491M277.873 119.75v-1.133M278.005 118.522v1.323M275.832 111.513a.246.246 0 11-.492 0 .246.246 0 01.492 0zM275.832 119.183a.246.246 0 11-.492 0 .246.246 0 01.492 0zM278.137 57.346h-67.638m0 0V27.117m0 0h67.638m0 0v30.229M270.246 29.535l.979.092m0 0l.949.273m0 0l.89.445m0 0l.805.605m0 0l.694.745m0 0l.564.863m0 0l.415.956m0 0l.255 1.017m0 0l.085 1.05m0 0v13.301m0 0l-.085 1.049m0 0l-.255 1.019m0 0l-.415.955m0 0l-.564.863m0 0l-.694.745m0 0l-.805.605m0 0l-.89.445m0 0l-.949.273m0 0l-.979.092m0 0h-45.655m0 0l-2.055-.193m0 0l-1.994-.573m0 0l-1.87-.936m0 0l-1.69-1.269m0 0l-1.459-1.565m0 0l-1.183-1.813m0 0l-.872-2.005m0 0l-.534-2.138m0 0l-.18-2.205m0 0l.18-2.204m0 0l.534-2.138m0 0l.872-2.006m0 0l1.183-1.813m0 0l1.459-1.564m0 0l1.69-1.27m0 0l1.87-.935m0 0l1.994-.573m0 0l2.055-.193m0 0h45.655M270.013 42.231a.945.945 0 11-1.89 0 .945.945 0 011.89 0zM255.465 27.117h-44.966m0 0V9.52m0 0h44.966m0 0v17.597M197.879 281.797v-1.701m0 0h-54.677m0 0v1.701m0 0h54.677M197.879 247.789h-27.338m0 0v23.805m0 0h27.338m0 0v-23.805M170.541 247.789h-27.338m0 0v23.805m0 0h27.338m0 0v-23.805M143.202 247.789h-9.598m0 0v34.008m0 0h9.598m0 0v-1.701m0-8.502v-23.805M207.477 247.789h-9.598m0 0v23.805m0 8.502v1.701m0 0h9.598m0 0v-34.008M170.541 280.096v-8.502m0 0h-32.137m0 0v8.502m0 0h32.137M170.541 280.096v-8.502m0 0h32.137m0 0v8.502m0 0h-32.137M93.738 158.424h15.117m0 0v-22.672m0 0H93.738m0 0v22.672M90.622 156.346H68.706m0 0V137.83m0 0h21.916m0 0v18.516M79.664 145.066v-5.298M79.664 139.767h-1.096M79.664 145.066h-1.096M70.81 145.066v-5.298M71.905 139.767h-1.096M71.905 145.066h-1.096M88.649 142.2a2.74 2.74 0 11-5.479.001 2.74 2.74 0 015.479-.001zM88.606 150.439a3.968 3.968 0 11-7.935 0 3.968 3.968 0 017.935 0z"/><path class="st2" d="M86.906 150.439a2.268 2.268 0 11-4.536 0 2.268 2.268 0 014.536 0zM77.881 142.386a2.645 2.645 0 11-5.29 0 2.645 2.645 0 015.29 0zM77.52 150.976a3.4 3.4 0 11-6.802 0 3.4 3.4 0 016.802 0zM93.738 158.424H65.589M93.738 135.752H65.589M93.738 158.424v-22.672M65.589 158.424v-22.672M112.444 155.59h19.271m0 0l.534-.222m0 0l.221-.534m0 0v-17.382m0 0l-.221-.534m0 0l-.534-.221m0 0h-19.271m0 0l-.535.221m0 0l-.221.534m0 0v17.382m0 0l.221.534m0 0l.535.222M108.855 158.424h26.449M108.855 135.752h26.449M108.855 158.424v-22.672M135.305 158.424v-22.672M114.333 153.701h15.493M130.582 152.945v-11.714M129.826 140.476h-7.001M121.335 140.476h-7.002M113.578 141.231v11.714M114.334 153.701h.108a.108.108 0 10-.216 0 .108.108 0 00.216 0h-.108zM130.582 152.945a.756.756 0 01-.756.756M129.826 140.476c.417 0 .756.338.756.755M113.578 141.231c0-.417.338-.755.755-.755M114.333 153.701a.756.756 0 01-.755-.756M121.74 145.308l.1.241m0 0l.241.098m0 0l.24-.1m0 0l.099-.24m0 0v-7.477m0 0l-.099-.24m0 0l-.241-.099m0 0l-.24.099m0 0l-.1.24m0 0v7.478M121.325 139.758h.415m0 0v-1.927m0 0l.099-.24m0 0l.24-.1m0 0l.241.1m0 0l.1.24m0 0v1.927m0 0h.414m0 0v-2.456m0 0h-1.509m0 0v2.456M121.336 141.118h.404m-.001 0v-1.323m0 0h-.404m.001 0v1.323M122.824 141.118v-1.323m0 0h-.404m0 0v1.323m0 0h.404M135.305 175.428v25.505m0 0h22.672m0 0v-25.505m0 0h-22.672M150.42 188.181h-7.558M149.313 185.509l-5.345 5.344M146.641 184.402v7.557M143.969 185.509l5.344 5.344M135.305 158.424v17.004M157.977 158.424v17.004M135.305 158.424h22.672M135.305 175.428h22.672M185.173 191.756l-.994-.821M184.18 190.934l-.923-1.345M184.18 190.934l-2.03.263M187.06 190.957l-.686-1.591M187.839 186.958l-1.193 1.028M186.645 187.986l-2.012 1.201M186.975 185.019l-2.006 2.061M186.975 185.019l-3.178-1.018M186.17 187.892l-2.289-1.43M183.88 186.463l-1.903-.654M184.623 182.294l-1.231 2.402M186.124 181.498l-3.414-.129M182.71 181.369l-.962.375M181.747 181.744l-.129-.694M181.618 181.05l-.333-3.47M181.285 177.58l-.958.485M180.327 178.065l-.507-1.763M179.821 176.303l-.653.398M179.169 176.701l-.944-.726M178.226 175.976l-1.464 1.118M176.762 177.094l-1.101-1.527M175.661 175.567l-1.455 2.106M174.206 177.673l-.368-.37M173.838 177.304l-.649 1.853M173.189 179.157l-3.401-1.947M169.788 177.21l-.199.676M169.589 177.886l-.698.056M186.124 181.498l.718.035M168.891 177.942l.411 3.652M186.374 189.366l-.727-.784M168.821 186.839l.417-1.411M165.301 184.329l1.276-.084M180.327 178.065l-1.312 1.086M176.762 177.094l.78 1.491M179.169 176.701l-.834.978M181.747 181.744l-1.372 1.488M183.392 184.696l-1.657.236M187.06 190.957l-1.887.799M185.173 191.756l.725 2.685M185.899 194.44l-3.333.018M182.567 194.458l-.003 3.406M182.564 197.864l-1.397-.467M181.167 197.397l-.079.708M181.088 198.104L178 196.256M178 196.257l-.845-1.951M177.156 194.306l-.558.902M176.598 195.209l.452 1.32M177.049 196.529l-2.291 3.319M174.759 199.848l-1.679-2.642M173.08 197.206l.312-2.02M173.392 195.186l.798-.497M174.189 194.689l-.953-1.792M173.237 192.897l-.593.971M172.643 193.868l.301 1.196M172.944 195.064l-.834 1.349M172.11 196.413l-3.35 1.475M168.76 197.888l-.011-2.571M168.749 195.316l3.253-.778M168.372 195.397l.045-1.049M168.417 194.348l.462-1.677M168.879 192.671l.89-1.626M169.77 191.045l1.427.216M171.196 191.262l1.266-.537M172.462 190.725l.764-2.032M173.226 188.693l-.813-1.384M172.413 187.309l-1.896-.074M170.517 187.235l-1.557 1.068M168.96 188.304l-1.887 2.049M167.073 190.353l2.696.692M168.879 192.671l-2.089-.123M166.79 192.549l-1.966-.409M164.824 192.14l1.978-2.667M166.802 189.473l1.075-.76M167.877 188.712l.823-.144M169.889 187.156l-1.068-.317M168.821 186.839l-.937 1.046M167.884 187.885l-2.01-.619M165.875 187.265l-2.128-2.269M163.746 184.996l1.555-.667M165.301 184.329l-.527-.766M164.774 183.563l1.638-.377M166.411 183.186l1.493-.095M167.904 183.091l-.609-1.711M167.294 181.38l2.685.287M169.978 181.667l2.131.439M172.109 182.106l1.661.889M173.77 182.995l.535 1.318M174.304 184.312l-.466 1.29M167.86 182.992l.803 1.794M168.664 184.786l.574.642M169.238 185.428l1.328.893M170.567 186.32l1.773.049M172.339 186.369l1.381-.309M176.598 195.209l-1.203 1.64M175.394 196.849l-1.205-2.16M173.237 192.897l.603-1.505M177.156 194.306l.374-1.455M182.203 195.448l-2.065-.631M180.138 194.817l-1.364-.608M178.774 194.208l-.96-1.183M177.814 193.025l.284-1.204M182.106 192.471l-.538-1.18M172.003 194.538l.739-.831M186.843 181.533l-.453.781M186.39 182.313l-.997 2.199M187.839 186.958l-1.717-1.062M182.567 194.465l-.461-1.995M170.729 190.61a5.668 5.668 0 1110.551-3.427M274.342 145.41a7.179 7.179 0 11-14.358 0 7.179 7.179 0 1114.358 0zM147.229 164.714a3.412 3.412 0 11-6.823 0 3.412 3.412 0 016.823 0z"/><path class="st2" d="M146.708 164.714a2.89 2.89 0 11-5.78.001 2.89 2.89 0 015.78-.001zM145.566 171.022a2.58 2.58 0 11-5.16 0 2.58 2.58 0 015.16 0z"/><path class="st2" d="M144.431 171.022a1.444 1.444 0 11-2.889.001 1.444 1.444 0 012.889-.001zM94.874 17.852a3.78 3.78 0 11-7.558 0 3.78 3.78 0 017.558 0z"/><path class="st2" d="M92.229 17.852a1.134 1.134 0 11-2.267 0 1.134 1.134 0 012.267 0zM183.671 17.852a3.78 3.78 0 11-7.558 0 3.78 3.78 0 017.558 0z"/><path class="st2" d="M181.026 17.852a1.134 1.134 0 11-2.269 0 1.134 1.134 0 012.269 0zM266.469 139.401l-.449 1.233m0 0v1.312m0 0l.449 1.234m0 0l-.342 1.473m0 0v1.512m0 0l.342 1.473m0 0l-.45 1.235m0 0v1.314m0 0l.45 1.235m0 0l-2.988-2.232m0 0v-7.558m0 0l2.988-2.231M263.22 141.633v7.558m0 0h.261m0 0v-7.558m0 0h-.261M262.697 141.633v7.558m0 0h.261m0 0v-7.558m0 0h-.261M267.985 146.253l.085-.891m-.001 0l-.226-.022m0 0l-.045.477m0 0l-1.143-1.383m0 0l-.152.126m0 0l.53.642m0 0l-.081.067m0 0l-.611-.74m0 0l-.146.121m0 0l.61.74m0 0l-.097.08m0 0l-.496-.601m0 0l-.131.107m0 0l.497.601m.001 0l-.098.081m-.001 0l-.342-.414m0 0l-.139.115m0 0l1.173 1.422M278.137 133.485v23.256m0 0h-22.672m0 0v-23.256m0 0h22.672M207.477 203.956v7.558m0 0h-72.172m0 0v-7.558m0 0h72.172M146.981 208.838v-1.02m0 0h44.369m0 0v1.02m0 0h-44.369M156.442 207.818v-.833m0 0l.152-.566m0 0l.415-.415m0 0l.566-.152m0 0h22.7m0 0l.566.152m0 0l.415.415m0 0l.152.566m0 0v.833m0 0h-24.966M146.981 209.135v-.297m0 0h44.369m0 0v.297m0 0h-44.369M213.9 259.125v22.672m0 0h64.237m0 0v-22.672m0 0H213.9M278.137 270.838v-.755m0 0H213.9m0 0v.755m0 0h64.237M220.487 261.118v18.626m0 0h.755m0 0v-18.626m0 0h-.755M222.492 261.118v18.626m0 0h.756m0 0v-18.626m0 0h-.756M224.496 261.118v18.626m0 0h.756m0 0v-18.626m0 0h-.756M226.501 261.118v18.626m0 0h.756m0 0v-18.626m0 0h-.756M230.747 261.253l-2.242 18.491m0 0l.751.091m0 0l2.241-18.491m0 0l-.75-.091M169.502 88.867h-68.015m-.001 0V13.294m0 0h68.015m.001 0v75.573M167.612 90.756h-64.237m.001 0l-.723-.144m-.001 0l-.613-.409m.001 0l-.409-.613m-.001 0l-.144-.723m0 0h68.015m0 0l-.143.723m0 0l-.41.613m.001 0l-.613.409m-.001 0l-.723.144M169.502 9.516h-68.015m-.001 0v3.778m0 0h68.015m.001 0V9.516M101.486 9.516h68.015m0 0v1.889m0 0h-68.015m0 0V9.516M99.597 9.516H82.593m0 0v18.893m0 0h17.004m0 0V9.516M171.391 9.516h17.004m0 0v18.893m0 0h-17.004m0 0V9.516M129.448 15.184h-25.695m0 0l-.267.11m0-.001l-.111.268m0 .001V28.03m0 0l.111.267m0 0l.267.111m0 .001h25.695m0 0l.267-.111m0-.001l.11-.267m0 0V15.562m0 0l-.11-.268m0-.001l-.267-.11M141.539 15.184h25.695m.001 0l.267.11m0-.001l.111.268m0 .001V28.03m0 0l-.111.267m0 0l-.267.111m0 .001H141.54m-.001 0l-.267-.111m.001-.001l-.11-.267m-.001 0V15.562m0 0l.11-.268m.001-.001l.267-.11M169.502 27.385h-1.889M141.162 27.385h-11.336M103.376 27.385h-1.89M169.502 32.394h-68.015m-.001 0V51.08m0 0l68.015-14.908m.001 0v-3.778M65.589 107.791v22.671m0 0h96.355m0 0v-22.671m0 0H65.589M161.944 119.504v-.756m0 0H65.589m0 0v.756m0 0h96.355M72.176 109.784v18.626m0 0h.756m0 0v-18.626m0 0h-.756M74.181 109.784v18.626m0 0h.756m0 0v-18.626m0 0h-.756M76.185 109.784v18.626m0 0h.756m0 0v-18.626m0 0h-.756M78.189 109.784v18.626m0 0h.756m0 0v-18.626m0 0h-.756M82.436 109.919l-2.241 18.491m0 0l.75.091m0 0l2.241-18.491m0 0l-.75-.091M255.465 192.621v-35.879m0 0h22.672m0 0v35.879m0 0h-22.672M141.61 160.645v.963m0 .001h-1.204m0 0v12.524m0 0h1.204m0 0v.964M151.137 162.109l-.103.047m-.104.048l-.102.047m-.104.046l-.103.048m-.103.047l-.103.047m-.103.047l-.103.047m-.103.048l-.103.047m-.103.047l-.103.047m-.103.047l-.103.047m-.103.047l-.104.048m-.102.047l-.104.047m-.103.047l-.103.047m-.103.047l-.103.047m-.103.048l-.103.047m-.104.047l-.102.047m-.104.047l-.103.047m-.103.048l-.103.047m-.103.047l-.103.047M151.137 171.743l-.103-.047m-.104-.047l-.102-.048m-.104-.047l-.103-.047m-.103-.047l-.103-.047m-.103-.047l-.103-.048m-.103-.047l-.103-.047m-.103-.047l-.103-.047m-.103-.047l-.103-.048m-.103-.046l-.104-.048m-.102-.047l-.104-.047m-.103-.047l-.103-.047m-.103-.047l-.103-.048m-.103-.047l-.103-.047m-.104-.048l-.102-.046m-.104-.047l-.103-.048m-.103-.047l-.103-.047m-.103-.047l-.103-.047M151.137 162.109v.078m0 .113v.114m0 .113v.113m0 .114v.078m0 0l-.052.041m-.088.072l-.088.071m-.087.072l-.089.071m-.088.072l-.088.071m-.087.072l-.088.071m-.089.071l-.088.072m-.088.071l-.087.072m-.089.071l-.088.072m-.088.071l-.087.071m-.089.072l-.088.071m-.088.072l-.088.071m-.088.072l-.088.071m-.088.072l-.088.071m-.088.072l-.088.071m-.088.071l-.088.072m-.088.071l-.088.072m-.088.071l-.088.072m-.088.071l-.088.071m-.088.072l-.088.071m-.088.072l-.088.071m-.088.072l-.088.071m-.088.071l-.088.072m-.088.072l-.052.041M151.137 171.743v-.078m0-.113v-.114m0-.113v-.113m0-.114v-.078m0 0l-.052-.042m-.088-.071l-.088-.071m-.087-.072l-.089-.071m-.088-.072l-.088-.071m-.087-.072l-.088-.071m-.089-.071l-.088-.072m-.088-.072l-.087-.071m-.089-.071l-.088-.072m-.088-.071l-.087-.072m-.089-.071l-.088-.072m-.088-.071l-.088-.071m-.088-.072l-.088-.071m-.088-.072l-.088-.071m-.088-.072l-.088-.071m-.088-.071l-.088-.072m-.088-.071l-.088-.072m-.088-.071l-.088-.072m-.088-.071l-.088-.072m-.088-.071l-.088-.071m-.088-.072l-.088-.071m-.088-.072l-.088-.071m-.088-.072l-.088-.071m-.088-.072l-.052-.042M151.615 171.743v-9.634m0 0h-.478m0 0v.723m0 0h.237m0 0v8.188m0 0h-.237m0 0v.723m0 0h.478M87.416 18.713l3.679-.86m0 0l1.584-3.431m0 0l-1.584 3.431m0 0l1.307 3.546M183.572 18.713l-3.68-.86m0 0l-1.583-3.431m0 0l1.583 3.431m0 0l-1.306 3.546M116.305 223.882l-4.109-4.109m0 0l-.426-.407m0 0l-.43-.371m0 0l-.424-.328m0 0l-.403-.276m0 0l-.017-.009m0 0l-.375-.216m0 0l-.332-.147m0 0l-.025-.008m0 0l-.281-.075m0 0l-.028-.004m0 0l-.22.002m0 0l-.03.002m0 0l-.029.007m0 0l-.027.013m0 0l-.154.078m0 0l-.024.018m0 0l-.012.01m0 0l-1.133 1.134m0 0l-1.03-1.029m0 0l-5.217 5.217m11.114 11.116l5.217-5.218m.001 0l-1.029-1.029m0 0l1.134-1.134m0 0l.011-.011m0 0l.017-.025m0 0l.078-.154m0 0l.013-.027m0 0l.008-.029m0 0l.002-.029m0 0l.001-.221m0 0l-.003-.028m0 0l-.075-.281m0 0l-.008-.025m0 0l-.148-.332m0 0l-.214-.376m0 0l-.011-.016m0 0l-.276-.404m0 0l-.328-.423m0 0l-.371-.429m0 0l-.407-.427M107.157 219.864l9.057 9.057M107.28 219.988l.897-.898M116.09 228.797l.898-.897M112.217 232.918l4.664-4.664M103.16 223.861l4.664-4.664M111.166 220.795l4.117 4.117M108.178 219.09c.354-.354 1.691.409 2.988 1.706M115.282 224.911c1.296 1.296 2.06 2.634 1.705 2.988M79.706 252.264l4.108 4.108m0 0l.427.408m0 0l.43.371m0 0l.423.328m0 0l.404.275m0 0l.016.011m0 0l.376.215m0 0l.332.147m0 0l.024.008m0 0l.281.075m0 0l.029.003m0 0l.22-.001m0 0l.03-.002m0 0l.028-.008m0 0l.027-.012m0 0l.154-.078m0 0l.025-.018m0 0l.011-.011m0 0l1.134-1.133m0 0l1.029 1.029m0 0l5.219-5.218m-11.117-11.114l-5.216 5.217m0 0l1.029 1.029m0 0l-1.135 1.134m0 0l-.01.011m0 0l-.017.025m0 0l-.078.153m0 0l-.013.027m0 0l-.008.03m0 0l-.002.029m0 0l-.001.221m0 0l.003.027m0 0l.074.282m0 0l.009.025m0 0l.147.332m0 0l.215.375m0 0l.01.016m0 0l.276.404m0 0l.329.424m0 0l.371.429m0 0l.407.427M88.854 256.281l-9.057-9.057M88.731 256.157l-.898.898M79.92 247.348l-.897.897M83.793 243.228l-4.663 4.664M92.85 252.284l-4.664 4.664M84.845 255.351l-4.117-4.117M87.832 257.056c-.354.354-1.692-.409-2.988-1.705M80.728 251.234c-1.296-1.296-2.06-2.634-1.705-2.988M83.814 219.773l-4.108 4.109m0 0l-.408.427m.001 0l-.371.429m0 0l-.329.423m-.001 0l-.275.404m0 0l-.01.016m.001 0l-.216.376m0 0l-.146.332m0 0l-.009.025m-.001 0l-.074.281m.001 0l-.003.028m0 0l.001.221m0 0l.002.029m0 0l.008.029m-.001 0l.012.027m.001 0l.078.154m0 0l.018.024m-.001 0l.01.012m.001 0l1.134 1.133m0 0l-1.029 1.03m0 0l5.217 5.217m11.115-11.115l-5.218-5.217m0 0l-1.028 1.029m-.001 0l-1.135-1.134m0 0l-.01-.01m.001 0l-.026-.018m-.001 0l-.153-.078m0 0l-.027-.013m0 0l-.029-.007m.001 0l-.029-.002m0 0l-.221-.002m0 0l-.028.004m0 0l-.281.075m0 0l-.025.008m0 0l-.332.147m-.001 0l-.376.215m.001 0l-.015.01m0 0l-.405.276m-.001 0l-.423.328m.001 0l-.429.371m0 0l-.427.407M79.797 228.921l9.057-9.057M79.92 228.797l-.897-.897M88.731 219.988l-.898-.898M92.85 223.861l-4.664-4.664M83.793 232.917l-4.663-4.663M80.728 224.912l4.117-4.117M79.022 227.9c-.354-.354.409-1.692 1.705-2.988M84.844 220.795c1.297-1.296 2.635-2.059 2.988-1.705M112.195 256.372l4.109-4.108m0 0l.408-.427m0 0l.371-.43m0 0l.328-.424m0 0l.275-.403m0 0l.011-.017m0 0l.215-.375m0 0l.147-.332m0 0l.008-.024m0 0l.075-.282m0 0l.003-.028m0 0l-.001-.22m0 0l-.002-.03m0 0l-.008-.029m0 0l-.012-.027m0 0l-.078-.154m0 0l-.018-.024m0 0l-.011-.012m0 0l-1.133-1.133m0 0l1.029-1.03m0 0l-5.218-5.218m-11.115 11.116l5.219 5.218m-.001-.001l1.029-1.029m0 0l1.134 1.134m0 0l.011.011m0 0l.025.017m0 0l.153.078m0 0l.027.013m0 0l.03.008m0 0l.029.002m0 0l.221.001m0 0l.027-.003m0 0l.281-.075m0 0l.026-.008m0 0l.332-.148m0 0l.375-.214m0 0l.016-.011m0 0l.404-.276m0 0l.424-.328m0 0l.429-.371m0 0l.426-.407M116.214 247.225l-9.057 9.057M116.09 247.348l.898.897M107.28 256.157l.897.898M103.16 252.284l4.664 4.664M112.217 243.228l4.664 4.664M115.283 251.234l-4.117 4.117M116.988 248.245c.354.354-.409 1.691-1.705 2.987M111.166 255.35c-1.296 1.296-2.634 2.06-2.988 1.705M113.119 238.072c0 8.348-6.767 15.114-15.114 15.114-8.348 0-15.115-6.766-15.115-15.114 0-8.347 6.767-15.114 15.115-15.114 8.347 0 15.114 6.767 15.114 15.114z"/></g></g><g id="walls_1_"><path class="st0" d="M278.134.5v9.069h-19.649v14.548h19.649v3.023h-22.672V9.569h-44.966v120.916h4.837v1.512h.453v1.511h-17.003v-1.511h.453v-1.512h8.237V9.569h-98.949V.5h169.61zm0 129.985h-34.688v1.512h-.453v1.511h35.141v-3.023zm0 151.334v10.958h-169.61v-10.958h169.61zm0-86.152h-22.672v-3.023h22.672v3.023zm-110.336-62.159v-1.511h-.454v-1.512H65.586v3.023h69.716v24.939h22.671v42.51h-22.671v3.023h72.171v-3.023h-46.477v-67.449h6.802zm-9.825 21.916v-21.916h-19.649v21.916h19.649zm114.115-95.032h6.046v-3.023h-9.069v42.887h9.069v-3.023h-6.046V60.392z"/><path class="st3" d="M302.768 243.553c-6.023 2.248-9.145 2.873-15.565 3.201"/><path class="st4" d="M302.861 243.512l-15.658-36.208h-1.512v.454l15.783 36.355z"/><path class="st3" d="M169.927 117.928c-1.818 4.869-2.317 7.366-2.582 12.556"/><path class="st4" d="M169.964 117.827l-.6 1.387 29.468 12.782h.405l-.001-1.512z"/><path class="st3" d="M241.171 119.418c1.583 4.24 2.044 6.548 2.276 11.067"/><path class="st4" d="M241.137 119.326l-25.803 11.158v1.512h.453l25.95-11.283z"/><path d="M287.203 292.777v-46.025h-1.511v-.453h-7.557v46.478h9.068zM278.134.5h9.069v206.804h-1.511v.454h-7.557L278.134.5h0zM41.78.5h66.743v9.069H65.587v22.672H41.78V.5h0zm66.744 281.319H65.587V255.18H41.78v37.597h66.743v-10.958h.001zM41.78 98.367h23.806v73.683H41.78V98.367z" fill-rule="evenodd" clip-rule="evenodd" stroke="#000" stroke-linecap="round" stroke-linejoin="round" stroke-miterlimit="3"/><g><path class="st3" d="M49.339 98.366h16.248M41.781 98.366h5.668M47.449 98.366h1.889M49.339 32.24h16.248M41.781 32.24h5.668M47.449 32.24h1.889M41.781 32.24v66.126M65.586 32.24v66.126M49.339 32.24v3.779M49.339 36.019H47.45M47.449 36.019V32.24M47.449 70.027v-1.889M47.449 68.137h1.889M49.339 68.137v1.889M48.394 36.019v32.118M49.339 36.019v32.118M47.449 68.137V36.02M49.339 70.027v.945M49.339 70.972h-.945M48.394 70.972v.943M48.394 71.916h-.944M47.449 71.916v-1.889M47.449 98.366v-3.778M47.449 94.588h.944M48.394 94.588v.945M48.394 95.533h.945M49.339 95.533v2.833M47.449 94.588V71.916M50.283 73.805v18.894M50.283 70.972v2.833M50.283 73.805h-1.889M48.394 73.805v-2.833M48.394 70.972h1.889M48.394 95.533v-2.834M48.394 92.699h1.889M50.283 92.699v2.834M50.283 95.533h-1.889M48.394 92.699V73.805M50.283 73.805v18.894M49.339 73.805v18.894M47.449 32.24h1.889M47.449 32.24h1.889M41.781 32.24h5.668M49.339 32.24h16.248M47.449 98.366h1.889M47.449 98.366h1.889M41.781 98.366h5.668M49.339 98.366h16.248"/><g><path class="st3" d="M49.339 172.05h16.248M41.781 172.05h5.668M47.449 172.05h1.889M49.339 255.18h16.248M41.781 255.18h5.668M47.449 255.18h1.889M41.781 255.18v-83.131M65.586 255.18v-83.131M49.339 255.18v-3.778M49.339 251.401H47.45M47.449 251.401v3.778M47.449 215.504v1.89M47.449 217.393h1.889M49.339 217.393v-1.89M48.394 251.401v-34.008M49.339 251.401v-34.008M47.449 217.393v34.008M49.339 215.504v-.944M49.339 214.559h-.945M48.394 214.559v-.945M48.394 213.615h-.944M47.449 213.615v1.889M47.449 172.05v3.779M47.449 175.829h.944M48.394 175.829v-.946M48.394 174.884h.945M49.339 174.884v-2.834M50.283 174.884l28.055 28.055M47.449 175.829v37.785M50.283 211.725v-34.007M50.283 214.559v-2.834M50.283 211.725h-1.889M48.394 211.725v2.834M48.394 214.559h1.889M48.394 174.884v2.834M48.394 177.718h1.889M50.283 177.718v-2.834M50.283 174.884h-1.889M48.394 177.718v34.008M50.283 211.725v-34.007M49.339 211.725v-34.007M78.338 202.938a39.675 39.675 0 01-28.055 11.621M47.449 255.18h1.889M47.449 255.18h1.889M41.781 255.18h5.668M49.339 255.18h16.248M47.449 172.05h1.889M47.449 172.05h1.889M41.781 172.05h5.668M49.339 172.05h16.248"/></g><g><path class="st3" d="M41.781 159.773H.5m0 0v105.802m0 0h41.281m0 0V159.773M1.255 264.82h40.526m0 0V160.529m0 0H1.255m0 0V264.82"/></g></g><g><path class="st6" d="M111.355.296l-2.91 2.56M118.775.296l-10.3 9.07M126.195.296l-10.29 9.07M133.625.296l-10.3 9.07M141.045.296l-10.3 9.07M148.465.296l-10.29 9.07M155.895.296l-10.3 9.07M163.305.296l-10.29 9.07M170.735.296l-10.3 9.07M178.155.296l-10.3 9.07M185.585.296l-10.3 9.07M193.005.296l-10.3 9.07M200.425.296l-10.29 9.07M207.845.296l-10.3 9.07M215.265.296l-10.3 9.07M67.705 130.286l-2.2 1.94M210.415 11.106l-3.02 2.66M75.125 130.286l-3.43 3.02M222.695.296l-10.3 9.07M210.415 17.646l-3.02 2.66M82.555 130.286l-3.43 3.02M230.115.296l-10.3 9.07M210.415 24.186l-3.02 2.66M89.975 130.286l-3.43 3.02M237.535.296l-10.29 9.07M210.415 30.726l-3.02 2.66M97.395 130.286l-3.43 3.02M244.955.296l-10.29 9.07M210.415 37.266l-3.02 2.66M104.815 130.286l-3.43 3.02M252.375.296l-10.29 9.07M210.415 43.796l-3.02 2.66M112.235 130.286l-3.43 3.02M259.805.296l-10.3 9.07M210.415 50.336l-3.02 2.66M119.655 130.286l-3.42 3.02M267.225.296l-11.85 10.44M258.405 14.606l-3.03 2.67M127.085 130.286l-3.43 3.02M210.415 56.876l-3.02 2.66M274.645.296l-10.3 9.07M278.055 3.836l-6.28 5.53M210.415 63.416l-3.02 2.66M134.505 130.286l-3.43 3.02M258.405 21.146l-3.03 2.66M210.415 69.956l-3.02 2.66M141.935 130.286l-3.43 3.02M138.245 133.536l-3.03 2.67M262.685 23.916l-3.43 3.02M210.415 76.496l-3.02 2.66M149.355 130.286l-3.43 3.02M138.245 140.076l-3.03 2.67M270.105 23.916l-3.43 3.02M277.515 23.916l-3.42 3.02M138.245 146.606l-3.03 2.67M156.765 130.286l-3.42 3.02M210.415 83.026l-3.02 2.66M138.245 153.146l-3.03 2.67M164.195 130.286l-6.3 5.55M210.415 89.566l-3.02 2.66M143.305 155.226l-3.43 3.02M160.915 139.716l-3.02 2.66M210.415 96.106l-3.02 2.66M150.725 155.226l-3.42 3.02M160.915 146.256l-3.02 2.66M210.415 102.646l-3.02 2.66M269.465 57.166l-.48.43M160.915 152.796l-6.19 5.45M210.415 109.186l-3.02 2.66M276.895 57.166l-3.44 3.03M160.915 159.336l-3.02 2.66M272.005 61.466l-3.02 2.66M210.415 115.726l-3.02 2.66M210.415 122.256l-3.02 2.67M201.305 130.286l-2.6 2.29M160.915 165.866l-3.02 2.66M272.005 68.006l-3.02 2.66M210.415 128.796l-5.12 4.51M160.915 172.406l-3.02 2.66M272.005 74.546l-3.02 2.66M160.915 178.946l-3.02 2.66M136.155 200.756l-.94.83M215.255 131.076l-2.53 2.23M272.005 81.086l-3.02 2.66M143.575 200.756l-3.43 3.02M160.915 185.486l-3.02 2.66M272.005 87.626l-3.02 2.66M151.005 200.756l-3.43 3.02M160.915 192.026l-3.02 2.66M272.005 94.156l-3.02 2.67M276.165 97.036l-3.43 3.02M160.915 198.566l-5.92 5.21M245.845 130.286l-2.94 2.59M165.845 200.756l-3.42 3.02M253.265 130.286l-3.43 3.02M173.265 200.756l-3.43 3.02M260.685 130.286l-3.43 3.02M180.685 200.756l-3.43 3.02M268.105 130.286l-3.42 3.02M188.115 200.756l-3.43 3.02M275.535 130.286l-3.43 3.02M195.535 200.756l-3.43 3.02M111.165 281.616l-2.72 2.4M202.955 200.756l-3.42 3.02M207.395 203.386l-.44.39M118.595 281.616l-10.15 8.94M126.005 281.616l-12.44 10.96M133.435 281.616l-12.45 10.96M140.855 281.616l-12.44 10.96M148.275 281.616l-12.44 10.96M256.925 192.446l-1.55 1.36M155.705 281.616l-12.45 10.96M163.125 281.616l-12.44 10.96M264.345 192.446l-3.42 3.02M170.545 281.616l-12.44 10.96M271.775 192.446l-3.43 3.02M278.055 193.446l-2.3 2.02M177.965 281.616l-12.44 10.96M185.385 281.616l-12.44 10.96M192.815 281.616l-12.45 10.96M200.235 281.616l-12.44 10.96M207.655 281.616l-12.44 10.96M215.085 281.616l-12.45 10.96M222.495 281.616l-12.44 10.96M229.925 281.616l-12.45 10.96M237.345 281.616l-12.44 10.96M244.765 281.616l-12.44 10.96M252.195 281.616l-12.45 10.96M259.615 281.616l-12.44 10.96M267.035 281.616l-12.45 10.96M274.455 281.616l-12.44 10.96M278.055 284.986l-8.62 7.59M278.055 291.526l-1.2 1.05"/></g><path d="M278.134.5v9.069h-19.649v14.548h19.649v3.023h-22.672V9.569h-44.966v120.916h4.837v1.512h.453v1.511h-17.003v-1.511h.453v-1.512h8.237V9.569h-98.949V.5h169.61zm0 129.985v3.023h-35.141v-1.511h.453v-1.512h34.688zm0 151.334v10.958h-169.61v-10.958h169.61zm0-86.152h-22.672v-3.023h22.672v3.023h0zm-110.336-62.159v-1.511h-.454v-1.512H65.586v3.023h69.716v24.939h22.671v42.51h-22.671v3.023h72.171v-3.023h-46.477v-67.449h6.802zm-9.825 21.916v-21.916h-19.649v21.916h19.649zm114.115-95.032v36.841h6.046v3.023h-9.069V57.369h9.069v3.023h-6.046z" fill-rule="evenodd" clip-rule="evenodd" fill="none" stroke="#000" stroke-linecap="round" stroke-linejoin="round" stroke-miterlimit="22.926"/></g><g id="sizes"><g id="sizes_3_"><path d="M8.408 176.789l-.727-.348a2.857 2.857 0 01-1.168-1.008c-.295-.44-.48-.97-.559-1.59H7.58c.047.323.148.589.305.797.156.208.357.363.605.465.247.102.537.152.871.152.525 0 .935-.141 1.227-.422.291-.281.438-.677.438-1.188v-.344c0-.567-.139-1.007-.414-1.316-.276-.31-.667-.465-1.172-.465h-.805v-1.516h.805c.442 0 .786-.133 1.031-.398.244-.266.367-.641.367-1.125v-.352c0-.448-.129-.794-.387-1.039s-.624-.367-1.098-.367a1.68 1.68 0 00-.727.152 1.389 1.389 0 00-.543.469 2.14 2.14 0 00-.324.793H6.143c.104-.62.301-1.151.59-1.594s.654-.778 1.098-1.008c.442-.229.95-.344 1.523-.344.979 0 1.736.258 2.273.773.536.516.805 1.242.805 2.18v.188c0 .567-.154 1.063-.461 1.484-.308.422-.742.729-1.305.922.619.136 1.1.44 1.441.914.341.474.512 1.078.512 1.813v.188c0 .661-.128 1.227-.383 1.695a2.536 2.536 0 01-1.113 1.07c-.487.245-1.074.367-1.762.367l-.953.002zM14.729 175.078h1.594v1.594l-1.594 1.578v-3.172zM20.026 176.398a2.855 2.855 0 01-1.207-1.105c-.284-.477-.426-1.03-.426-1.66v-.188c0-.567.142-1.102.426-1.602.283-.5.662-.878 1.137-1.133-.401-.219-.723-.535-.965-.949s-.363-.851-.363-1.309v-.273c0-.594.133-1.116.398-1.566s.641-.8 1.125-1.047 1.047-.371 1.688-.371 1.203.124 1.688.371.859.597 1.125 1.047.398.973.398 1.566v.273c0 .469-.124.909-.371 1.32a2.485 2.485 0 01-.98.938c.479.261.863.64 1.152 1.137s.434 1.03.434 1.598v.188c0 .63-.143 1.184-.426 1.66a2.854 2.854 0 01-1.207 1.105c-.521.261-1.125.391-1.813.391s-1.293-.13-1.813-.391zm2.789-1.359c.281-.146.498-.351.652-.613.153-.263.23-.566.23-.91v-.109c0-.349-.077-.655-.23-.918-.154-.263-.371-.468-.652-.613s-.607-.219-.977-.219-.695.073-.977.219-.499.352-.652.617c-.154.266-.23.573-.23.922v.117c0 .344.076.646.23.906.153.261.371.462.652.605s.606.215.977.215c.369-.001.695-.074.977-.219zm-.133-5.122c.244-.138.435-.335.57-.59.135-.255.203-.55.203-.883v-.109c0-.317-.068-.599-.203-.844a1.406 1.406 0 00-.57-.566 1.74 1.74 0 00-.844-.199c-.318 0-.6.066-.844.199a1.394 1.394 0 00-.57.566 1.724 1.724 0 00-.203.852v.117c0 .328.067.618.203.871.135.253.325.448.57.586.244.138.525.207.844.207.317 0 .599-.069.844-.207zM112.783 175.925c-.521-.26-.923-.629-1.207-1.105s-.426-1.029-.426-1.66v-.188c0-.567.142-1.102.426-1.602s.663-.877 1.137-1.133c-.401-.219-.723-.535-.965-.949s-.363-.85-.363-1.309v-.273c0-.594.133-1.115.398-1.566.266-.45.641-.799 1.125-1.047.484-.247 1.047-.371 1.688-.371s1.203.124 1.688.371c.484.248.859.597 1.125 1.047.266.451.398.973.398 1.566v.273c0 .469-.124.909-.371 1.32a2.465 2.465 0 01-.98.938c.479.261.863.64 1.152 1.137a3.13 3.13 0 01.434 1.598v.188c0 .631-.142 1.184-.426 1.66s-.687.846-1.207 1.105c-.521.261-1.125.391-1.813.391s-1.292-.13-1.813-.391zm2.789-1.359c.281-.146.499-.35.652-.613.153-.263.23-.566.23-.91v-.109c0-.349-.077-.654-.23-.918a1.576 1.576 0 00-.652-.613c-.281-.146-.606-.219-.977-.219s-.695.073-.977.219c-.281.146-.499.352-.652.617s-.23.573-.23.922v.117c0 .344.077.646.23.906.153.261.371.463.652.605.281.144.606.215.977.215s.696-.073.977-.219zm-.132-5.121c.245-.138.435-.334.57-.59.136-.255.203-.549.203-.883v-.109c0-.317-.067-.599-.203-.844-.136-.244-.325-.434-.57-.566s-.526-.199-.844-.199-.599.066-.844.199-.435.322-.57.566a1.726 1.726 0 00-.203.852v.117c0 .328.067.619.203.871.136.253.325.448.57.586.245.139.526.207.844.207s.599-.069.844-.207zM120.112 174.605h1.594v1.594l-1.594 1.578v-3.172zM125.877 176.316l-.727-.348a2.857 2.857 0 01-1.168-1.008c-.294-.439-.48-.97-.559-1.59h1.625c.047.323.148.589.305.797.156.209.358.363.605.465s.538.152.871.152c.526 0 .935-.141 1.227-.422.292-.281.438-.677.438-1.188v-.344c0-.567-.138-1.006-.414-1.316-.276-.31-.667-.465-1.172-.465h-.805v-1.516h.805c.442 0 .786-.133 1.031-.398.245-.266.367-.641.367-1.125v-.352c0-.447-.129-.794-.387-1.039-.258-.244-.624-.367-1.098-.367-.271 0-.513.051-.727.152s-.395.258-.543.469-.257.476-.324.793h-1.617c.104-.619.301-1.15.59-1.594a2.893 2.893 0 011.098-1.008c.442-.229.95-.344 1.523-.344.979 0 1.737.258 2.273.773s.805 1.242.805 2.18v.188c0 .568-.153 1.063-.461 1.484s-.742.729-1.305.922c.62.136 1.101.44 1.441.914.341.475.512 1.078.512 1.813v.188c0 .662-.128 1.227-.383 1.695s-.626.826-1.113 1.07c-.487.245-1.074.367-1.762.367l-.951.002zM182.051 44.18h-1.594v-9.625l-1.617.992v-1.648l1.617-1.078h1.594V44.18zM187.371 44.18h-1.594v-9.625l-1.617.992v-1.648l1.617-1.078h1.594V44.18zM189.793 42.586h1.594v1.594l-1.594 1.578v-3.172zM197.598 38.539l-.008.281c-.131.24-.327.416-.59.527a2.375 2.375 0 01-.934.168c-.542 0-1.019-.138-1.43-.414-.412-.276-.73-.665-.957-1.168-.227-.502-.34-1.084-.34-1.746v-.007c0-.734.123-1.362.371-1.883a2.615 2.615 0 011.086-1.188c.477-.271 1.048-.406 1.715-.406.666 0 1.236.138 1.711.414.474.276.834.677 1.082 1.203.247.526.371 1.159.371 1.898v.008c0 .406-.053.84-.156 1.301a8.052 8.052 0 01-.445 1.371l-.094.207c-.031.07-.065.14-.102.207l-2.422 4.867h-1.719l2.861-5.64zm.074-.984c.273-.338.41-.815.41-1.43v-.008c0-.599-.137-1.063-.41-1.391s-.66-.492-1.16-.492c-.506 0-.895.164-1.168.492s-.41.794-.41 1.398v.008c0 .615.137 1.09.41 1.426s.662.504 1.168.504c.5 0 .887-.168 1.16-.507z"/><g><path d="M254.541 251.899l3.813-8.227h1.641l-3.719 8.133h5.57v1.477h-7.305v-1.383zm4.899-3.555h1.555v6.688h-1.555v-6.688zM263.643 253.43h1.594v1.594l-1.594 1.578v-3.172zM267.268 251.899l3.813-8.227h1.641l-3.719 8.133h5.57v1.477h-7.305v-1.383zm4.898-3.555h1.555v6.688h-1.555v-6.688z"/></g><g><path d="M245.244 126.147a2.75 2.75 0 01-1.086-.977c-.278-.427-.465-.94-.559-1.539v-.008h1.594v.008c.058.417.224.741.5.973.276.232.636.348 1.078.348.511 0 .905-.17 1.184-.512.278-.341.418-.821.418-1.441v-.953c0-.614-.14-1.092-.418-1.434-.278-.341-.673-.512-1.184-.512-.276 0-.542.078-.797.234s-.479.375-.672.656h-1.453v-5.984h5.789v1.516h-4.195v2.555a2.275 2.275 0 011.414-.508c.656 0 1.218.136 1.684.406.466.271.82.667 1.063 1.188.242.521.363 1.148.363 1.883v.953c0 .734-.125 1.362-.375 1.883-.25.521-.614.918-1.094 1.191s-1.055.41-1.727.41c-.573 0-1.081-.112-1.527-.336zM252.155 124.772h1.594v1.594l-1.594 1.578v-3.172zM257.92 126.483l-.727-.348a2.857 2.857 0 01-1.168-1.008c-.294-.44-.48-.97-.559-1.59h1.625c.047.323.148.589.305.797.156.208.358.363.605.465s.538.152.871.152c.526 0 .935-.141 1.227-.422s.438-.677.438-1.188v-.344c0-.567-.138-1.006-.414-1.316-.276-.31-.667-.465-1.172-.465h-.805V119.7h.805c.442 0 .786-.133 1.031-.398s.367-.641.367-1.125v-.352c0-.448-.129-.794-.387-1.039-.258-.245-.624-.367-1.098-.367-.271 0-.513.051-.727.152s-.395.258-.543.469-.257.476-.324.793h-1.617c.104-.62.301-1.151.59-1.594a2.893 2.893 0 011.098-1.008c.442-.229.95-.344 1.523-.344.979 0 1.737.258 2.273.773s.805 1.242.805 2.18v.188c0 .568-.153 1.063-.461 1.484s-.742.729-1.305.922c.62.136 1.101.44 1.441.914.341.474.512 1.078.512 1.813v.188c0 .662-.128 1.227-.383 1.695s-.626.826-1.113 1.07c-.487.245-1.074.367-1.762.367l-.951.002z"/></g><g><path d="M193.231 243.804l-.727-.348c-.485-.232-.874-.567-1.168-1.008s-.48-.97-.559-1.59h1.625c.047.323.148.589.305.797s.358.363.605.465.538.152.871.152c.526 0 .935-.141 1.227-.422s.438-.677.438-1.188v-.344c0-.567-.138-1.007-.414-1.316s-.667-.465-1.172-.465h-.805v-1.516h.805c.442 0 .786-.133 1.031-.398s.367-.641.367-1.125v-.352c0-.448-.129-.794-.387-1.039s-.624-.367-1.098-.367c-.271 0-.513.051-.727.152s-.395.258-.543.469-.257.476-.324.793h-1.617c.104-.62.301-1.151.59-1.594s.655-.778 1.098-1.008.95-.344 1.523-.344c.979 0 1.737.258 2.273.773s.805 1.242.805 2.18v.188c0 .567-.153 1.063-.461 1.484s-.742.729-1.305.922c.62.136 1.101.44 1.441.914s.512 1.078.512 1.813v.188c0 .661-.128 1.227-.383 1.695s-.626.825-1.113 1.07-1.074.367-1.762.367l-.951.002zM199.551 242.093h1.594v1.594l-1.594 1.578v-3.172zM207.356 238.046l-.008.281c-.13.239-.327.415-.59.527s-.574.168-.934.168c-.542 0-1.019-.138-1.43-.414s-.73-.665-.957-1.168-.34-1.085-.34-1.746v-.008c0-.734.124-1.362.371-1.883s.609-.917 1.086-1.188 1.048-.406 1.715-.406 1.237.138 1.711.414.835.677 1.082 1.203.371 1.159.371 1.898v.008c0 .406-.052.84-.156 1.301a8.052 8.052 0 01-.539 1.578c-.031.07-.065.14-.102.207l-2.422 4.867h-1.719l2.861-5.639zm.074-.984c.273-.339.41-.815.41-1.43v-.008c0-.599-.137-1.063-.41-1.391s-.66-.492-1.16-.492c-.505 0-.895.164-1.168.492s-.41.794-.41 1.398v.008c0 .614.137 1.09.41 1.426s.663.504 1.168.504c.5.001.886-.168 1.16-.507z"/></g><g><path d="M192.09 194.705l3.813-8.227h1.641l-3.719 8.133h5.57v1.477h-7.305v-1.383zm4.898-3.555h1.555v6.688h-1.555v-6.688zM201.192 196.236h1.594v1.594l-1.594 1.578v-3.172zM206.488 197.556c-.521-.26-.923-.629-1.207-1.105s-.426-1.029-.426-1.66v-.188c0-.567.142-1.102.426-1.602s.663-.877 1.137-1.133c-.401-.219-.723-.535-.965-.949s-.363-.85-.363-1.309v-.273c0-.594.133-1.115.398-1.566.266-.45.641-.799 1.125-1.047.484-.247 1.047-.371 1.688-.371s1.203.124 1.688.371c.484.248.859.597 1.125 1.047.266.451.398.973.398 1.566v.273c0 .469-.124.909-.371 1.32a2.465 2.465 0 01-.98.938c.479.261.863.64 1.152 1.137a3.13 3.13 0 01.434 1.598v.188c0 .631-.142 1.184-.426 1.66s-.687.846-1.207 1.105c-.521.261-1.125.391-1.813.391s-1.292-.13-1.813-.391zm2.79-1.359c.281-.146.499-.35.652-.613.153-.263.23-.566.23-.91v-.109c0-.349-.077-.654-.23-.918a1.576 1.576 0 00-.652-.613c-.281-.146-.606-.219-.977-.219s-.695.073-.977.219c-.281.146-.499.352-.652.617s-.23.573-.23.922v.117c0 .344.077.646.23.906.153.261.371.463.652.605.281.144.606.215.977.215s.695-.073.977-.219zm-.133-5.121c.245-.138.435-.334.57-.59.136-.255.203-.549.203-.883v-.109c0-.317-.067-.599-.203-.844-.136-.244-.325-.434-.57-.566s-.526-.199-.844-.199-.599.066-.844.199-.435.322-.57.566a1.726 1.726 0 00-.203.852v.117c0 .328.067.619.203.871.136.253.325.448.57.586.245.139.526.207.844.207s.599-.069.844-.207z"/></g></g></g></svg>