<svg version="1.1" id="_x33_41" xmlns="http://www.w3.org/2000/svg" x="0" y="0" viewBox="0 0 302.322 522.868" xml:space="preserve"><style>.st0,.st1{fill-rule:evenodd;clip-rule:evenodd}.st0{fill:#fff}.st1{stroke:#999}.st1,.st2,.st4{fill:none;stroke-linecap:round;stroke-linejoin:round;stroke-miterlimit:3}.st2{fill-rule:evenodd;clip-rule:evenodd;stroke-width:.4;stroke:#999}.st4{stroke:#000}.st4,.st5,.st7{fill-rule:evenodd;clip-rule:evenodd}.st7{fill:none;stroke:gray;stroke-width:.6;stroke-miterlimit:22.9256}</style><path class="st0" d="M301.05 265.834h-39.666L261.678.289 15.977.469l.157 521.698h245.25V372h39.666z" id="fon_1_"/><g id="mebel_1_"><g id="mebel_2_"><path class="st1" d="M26.149 386.347h23.808m0 0v22.672m0 .001h-1.136m0 0v78.768m0 0H72.63m0 0v22.672m0 0H40.885m0 0v-22.672m0 0H26.149m0 0v-101.44M51.659 405.24l19.271-.002m0 0l.535-.221m0 0l.221-.534m0 0l-.002-17.382m0 0l-.221-.535m0 0l-.534-.221m0 0l-19.272.002m0 0l-.534.221m0 0l-.222.535m0 0l.002 17.382m0 0l.222.534m0 0l.534.221M49.96 409.019l22.671-.002M49.957 386.347l22.672-.002M49.96 409.019l-.003-22.672M72.63 409.017l-.002-22.672M53.548 403.35l15.492-.001M69.797 402.594l-.002-11.715M69.04 390.124l-7.002.001m-1.489 0l-7.002.001M52.791 390.881l.002 11.714M53.548 403.35h.108a.108.108 0 00-.108-.108.108.108 0 10.108.108h-.108zM69.797 402.594a.757.757 0 01-.756.756M69.04 390.124c.417 0 .755.338.755.756M52.791 390.881c0-.417.339-.755.756-.755M53.548 403.35a.756.756 0 01-.756-.755M60.954 394.957l.1.24m0 0l.241.099m0 0l.24-.1m0 0l.099-.24m0 0v-7.477m0 0l-.101-.24m0 0l-.24-.1m0 0l-.24.1m0 0l-.1.24m0 0l.001 7.478M60.539 389.407h.414m0 0v-1.927m0 0l.1-.24m0 0l.24-.101m0 0l.24.1m0 0l.101.241m0 0v1.927m0 0h.414m0 0v-2.457m0 0l-1.51.001m0 0l.001 2.456M60.549 390.768h.404m-.001 0v-1.323m0 0h-.404m.001 0v1.323M62.038 390.768l-.001-1.323m0 0h-.403m0 0v1.323m0 0h.404M46.743 471.356V449.44m0 0H28.227m0 0v21.916m0 0h18.516M35.462 460.398h-5.299M30.164 460.398v-1.096M35.462 460.398v-1.096M35.462 451.544h-5.299M30.164 452.639v-1.096M35.462 452.639v-1.096M35.337 466.644a2.74 2.74 0 11-5.479-.001 2.74 2.74 0 015.479.001zM44.803 465.373a3.967 3.967 0 11-7.935 0 3.969 3.969 0 017.935 0z"/><path class="st1" d="M43.103 465.373a2.267 2.267 0 11-4.535.001 2.267 2.267 0 014.535-.001zM35.427 455.971a2.646 2.646 0 11-5.291-.001 2.646 2.646 0 015.291.001zM44.774 454.853a3.4 3.4 0 11-6.803-.001 3.4 3.4 0 016.803.001zM48.821 480.52v-40.244M26.149 480.52v-40.244M48.821 480.52H26.149M48.821 440.276H26.149M72.63 409.017l22.672-.002m0 0l-.002-22.672m0 0l-22.672.002m0 0l.002 22.672M83.965 393.901v7.557M81.294 395.008l5.343 5.343M80.187 397.68h7.558M81.294 400.352l5.343-5.344M48.821 417.604v22.672M26.149 417.604v22.672M48.821 417.604H26.149M48.821 440.276H26.149M43.719 425.783a3.412 3.412 0 11-6.823 0 3.412 3.412 0 016.823 0z"/><path class="st1" d="M43.198 425.783a2.891 2.891 0 11-5.782 0 2.891 2.891 0 015.782 0zM43.719 432.092a2.579 2.579 0 11-5.158.002 2.579 2.579 0 015.158-.002z"/><path class="st1" d="M42.585 432.092a1.444 1.444 0 11-2.888.002 1.444 1.444 0 012.888-.002zM91.146 499.124a7.18 7.18 0 11-14.36 0 7.18 7.18 0 0114.36 0zM42.515 421.714v.963m0 0h1.204m0 0v12.525m0 0h-1.204m0 0v.963M32.989 423.178l.104.047m.102.047l.104.048m.102.047l.104.047m.103.047l.103.048m.103.046l.103.048m.103.047l.103.047m.103.047l.103.047m.103.048l.104.047m.102.047l.104.047m.102.047l.104.047m.103.047l.103.048m.104.047l.102.047m.104.047l.102.047m.104.048l.102.046m.104.048l.102.047m.104.047l.103.047m.103.047l.103.047M32.989 432.812l.104-.047m.102-.048l.104-.047m.102-.047l.104-.047m.103-.047l.103-.047m.103-.047l.103-.048m.103-.047l.103-.047m.103-.047l.103-.047m.103-.048l.104-.047m.102-.046l.104-.048m.102-.047l.104-.047m.103-.047l.103-.047m.104-.048l.102-.047m.104-.047l.102-.047m.104-.048l.102-.046m.104-.047l.102-.048m.104-.047l.103-.047m.103-.047l.103-.047M32.989 423.178v.078m0 .113v.114m0 .113v.114m0 .113v.078m0 0l.052.042m.088.071l.088.072m.087.071l.088.071m.089.072l.088.071m.088.072l.088.071m.088.072l.088.071m.088.072l.087.071m.088.071l.088.072m.089.071l.088.072m.088.071l.088.072m.088.071l.088.072m.087.071l.089.071m.088.072l.088.071m.088.072l.088.072m.088.071l.088.071m.088.072l.088.071m.088.071l.088.072m.088.072l.088.071m.088.071l.088.072m.088.071l.088.071m.088.072l.088.072m.088.071l.088.071m.088.072l.052.042M32.989 432.812v-.078m0-.113v-.114m0-.113v-.113m0-.114v-.078m0 0l.052-.042m.088-.071l.088-.071m.087-.072l.088-.071m.089-.072l.088-.071m.088-.072l.088-.071m.088-.072l.088-.071m.088-.072l.087-.071m.088-.071l.088-.072m.089-.071l.088-.072m.088-.071l.088-.072m.088-.071l.088-.071m.087-.072l.089-.071m.088-.072l.088-.071m.088-.072l.088-.071m.088-.072l.088-.071m.088-.072l.088-.071m.088-.071l.088-.072m.088-.072l.088-.071m.088-.071l.088-.072m.088-.071l.088-.071m.088-.072l.088-.072m.088-.071l.088-.071m.088-.072l.052-.042M32.51 432.812v-9.634m0 0h.479m0 0v.722m0 0h-.238m0 0v8.189m0 0h.238m0 0v.723m0 0h-.479M89.975 498.608l-1.233.448m0 0h-1.313m0 0l-1.233-.448m0 0l-1.473.342m0 0H83.21m0 0l-1.473-.342m0 0l-1.235.449m0 0h-1.313m0 0l-1.235-.449m0 0l2.232 2.986m0 0h7.558m0 0l2.231-2.986M87.744 501.856h-7.558m0 0v-.262m0 0h7.558m0 0v.262M87.744 502.38h-7.558m0 0v-.262m0 0h7.558m0 0v.262M83.124 497.093l.891-.085m0-.001l.021.226m0 .001l-.476.045m0-.001l1.382 1.142m0 .001l-.125.152m0-.001l-.642-.529m0 .001l-.068.081m0 0l.741.611m0-.001l-.121.146m0 0l-.74-.611m0 .001l-.081.097m0 0l.602.497m0-.001l-.108.13m0 .001l-.601-.496m0-.001l-.08.097m0 0l.414.343m0 0l-.115.139m0 .001l-1.422-1.174M95.302 487.788H72.63m0 0v22.672m0 0h22.672m0 0v-22.672M199.035 413.553h3.028m0 0v-.858m0 0v-17.176m0 0v-.86m0 0h-3.028M205.49 394.659h-3.427m0 0v.859m0 0h3.224m0 0v-.057m0 0l-.196-.294m0 0l.087-.343m0 0l.312-.165M207.849 395.461l-.196-.294m0 0l.087-.343m0 0l.312-.165m0 0h-2.562m0 0l-.312.165m0 0l-.087.343m0 0l.196.294m0 0v17.291m0 0l-.196.293m0 0l.087.343m0 0l.312.165m0 0h2.562m0 0l-.312-.165m0 0l-.087-.343m0 0l.196-.293m0 0v-17.291M205.49 413.553l-.312-.165m0 0l-.087-.342m0 0l.196-.294m0 0v-.057m0 0h-3.224m0 0v.858m0 0h3.427M208.255 411.889l.226-1.005v-13.556l-.226-1.005zM208.254 396.323v15.566m0 0l.227-1.005m0 0v-13.556m0 0l-.227-1.005M208.254 395.461l.197-.294m0 0l-.087-.343m0 0l-.312-.165m0 0l-.313.165m0 0l-.087.343m0 0l.197.294m0 0v17.291m0 0l-.197.293m0 0l.087.343m0 0l.313.165m0 0l.312-.165m0 0l.087-.343m0 0l-.197-.293m0 0v-17.291M199.035 435.469h3.028m0 0v-.859m0 0v-17.175m0 0v-.859m0 0h-3.028M205.49 416.576h-3.427m0 0v.859m0 0h3.224m0 0v-.058m0 0l-.196-.294m0 0l.087-.342m0 0l.312-.165M207.849 417.377l-.196-.294m0 .001l.087-.342m0 0l.312-.165m0 0h-2.562m0 0l-.312.165m0 0l-.087.342m0 0l.196.294m0-.001v17.291m0 .001l-.196.293m0 0l.087.343m0 0l.312.165m0 0h2.562m0 0l-.312-.165m0 0l-.087-.343m0 0l.196-.293m0 0v-17.291M205.49 435.469l-.312-.165m0 0l-.087-.342m0 0l.196-.294m0 0v-.058m0 0h-3.224m0 0v.859m0 0h3.427M208.255 433.806l.226-1.005v-13.556l-.226-1.005zM208.254 418.24v15.566m0 0l.227-1.005m0 0v-13.556m0 0l-.227-1.005M208.254 417.377l.197-.294m0 .001l-.087-.342m0 0l-.312-.165m0 0l-.313.165m0 0l-.087.342m0 0l.197.294m0-.001v17.291m0 .001l-.197.293m0 0l.087.343m0 0l.313.165m0 0l.312-.165m0 0l.087-.343m0 0l-.197-.293m0 0v-17.291M165.026 413.553h-3.028m.001 0v-.858m0 0v-17.176m0 0v-.86m0 0h3.028M158.571 394.659h3.427m.001 0v.859m0 0h-3.224m-.001 0v-.057m0 0l.196-.294m.001 0l-.087-.343m0 0l-.312-.165M156.212 395.461l.196-.294m.001 0l-.086-.343m-.001 0l-.313-.165m0 0h2.562m0 0l.312.165m.001 0l.087.343m0 0l-.196.294m0 0v17.291m0 0l.196.293m0 0l-.087.343m0 0l-.312.165m-.001 0h-2.562m0 0l.313-.165m0 0l.086-.343m.001 0l-.196-.293m-.001 0v-17.291M158.571 413.553l.312-.165m.001 0l.087-.342m0 0l-.196-.294m-.001 0v-.057m0 0h3.224m.001 0v.858m0 0h-3.427M155.58 397.328v13.556l.227 1.005v-15.566zM155.807 396.323v15.566m0 0l-.227-1.005m0 0v-13.556m0 0l.227-1.005M155.807 395.461l-.196-.294m0 0l.086-.343m0 0l.313-.165m0 0l.313.165m0 0l.086.343m0 0l-.196.294m0 0v17.291m0 0l.196.293m0 0l-.086.343m0 0l-.313.165m0 0l-.313-.165m0 0l-.086-.343m0 0l.196-.293m0 0v-17.291M165.026 435.469h-3.028m.001 0v-.859m0 0v-17.175m0 0v-.859m0 0h3.028M158.571 416.576l.313.165.087.343-.197.295v.055h3.224v-.858zM158.571 416.576h3.427m.001 0v.859m0 0h-3.224m-.001 0v-.058m0 0l.196-.294m.001 0l-.087-.342m0 0l-.312-.165M156.212 417.377l.196-.294m.001.001l-.086-.342m-.001 0l-.313-.165m0 0h2.562m0 0l.312.165m.001 0l.087.342m0 0l-.196.294m0-.001v17.291m0 .001l.196.293m0 0l-.087.343m0 0l-.312.165m-.001 0h-2.562m0 0l.313-.165m0 0l.086-.343m.001 0l-.196-.293m-.001 0v-17.291M158.571 435.469l.312-.165m.001 0l.087-.342m0 0l-.196-.294m-.001 0v-.058m0 0h3.224m.001 0v.859m0 0h-3.427M155.58 419.245v13.556l.227 1.005V418.24zM155.807 418.24v15.566m0 0l-.227-1.005m0 0v-13.556m0 0l.227-1.005M155.807 417.377l-.196-.294m0 .001l.086-.342m0 0l.313-.165m0 0l.313.165m0 0l.086.342m0 0l-.196.294m0-.001v17.291m0 .001l.196.293m0 0l-.086.343m0 0l-.313.165m0 0l-.313-.165m0 0l-.086-.343m0 0l.196-.293m0 0v-17.291M199.035 438.493h3.028m0 0v.859m0 0v17.176m0 0v.858m0 0h-3.028M205.49 457.386h-3.427m0 0v-.858m0 0h3.224m0 0v.057m0 0l-.196.294m0 0l.087.342m0 0l.312.165M207.849 456.585l-.196.294m0 0l.087.342m0 0l.312.165m0 0h-2.562m0 0l-.312-.165m0 0l-.087-.342m0 0l.196-.294m0 0v-17.291m0 0l-.196-.294m0 0l.087-.343m0 0l.312-.165m0 0h2.562m0 0l-.312.165m0 0l-.087.343m0 0l.196.293m0 .001v17.291M205.49 438.493l-.312.165m0 0l-.087.342m0 0l.196.294m0 0v.058m0 0h-3.224m0 0v-.859m0 0h3.427M208.255 455.722l.226-1.005v-13.556l-.226-1.005zM208.254 455.722v-15.566m0 0l.227 1.005m0 0v13.556m0 0l-.227 1.005M208.254 456.585l.197.294m0 0l-.087.342m0 0l-.312.165m0 0l-.313-.165m0 0l-.087-.342m0 0l.197-.294m0 0v-17.291m0 0l-.197-.294m0 0l.087-.343m0 0l.313-.165m0 0l.312.165m0 0l.087.343m0 0l-.197.293m0 .001v17.291M165.026 438.493h-3.028m.001 0v.859m0 0v17.176m0 0v.858m0 0h3.028M158.571 457.386h3.427m.001 0v-.858m0 0h-3.224m-.001 0v.057m0 0l.196.294m.001 0l-.087.342m0 0l-.312.165M156.212 456.585l.196.294m.001 0l-.086.342m-.001 0l-.313.165m0 0h2.562m0 0l.312-.165m.001 0l.087-.342m0 0l-.196-.294m0 0v-17.291m0 0l.196-.293m0-.001l-.087-.343m0 0l-.312-.165m-.001 0h-2.562m0 0l.313.165m0 0l.086.343m.001 0l-.196.293m-.001.001v17.291M158.571 438.493l.312.165m.001 0l.087.342m0 0l-.196.294m-.001 0v.058m0 0h3.224m.001 0v-.859m0 0h-3.427M155.58 441.161v13.556l.227 1.005v-15.565zM155.807 455.722v-15.566m0 0l-.227 1.005m0 0v13.556m0 0l.227 1.005M155.807 456.585l-.196.294m0 0l.086.342m0 0l.313.165m0 0l.313-.165m0 0l.086-.342m0 0l-.196-.294m0 0v-17.291m0 0l.196-.293m0-.001l-.086-.343m0 0l-.313-.165m0 0l-.313.165m0 0l-.086.343m0 0l.196.293m0 .001v17.291M165.027 465.698h34.007m0 0v-79.351m0 0h-34.007m0 0v79.351"/><g id="mebel"><path class="st2" d="M85.439 283.99l4.568-4.568m-11.515 4.568l11.515-11.516M71.544 283.99l18.463-18.462M64.598 283.99l25.409-25.409M57.651 283.99l32.356-32.356M56 278.693l34.007-34.007M56 271.746l34.007-34.006M56 264.799l34.007-34.007m-35.221 28.275l35.222-35.222m-42.169 35.222l38.618-38.617m-45.572 38.623l38.624-38.624m-38.624 31.677l11.102-11.102m9.329-9.328l11.246-11.246m-31.677 24.729l4.819-4.819m11.78-11.78l8.131-8.131m-14.629 7.682l7.682-7.682M43.219 228.951l8.502-8.502m-10.836 3.889l3.889-3.889M90.007 221.437l-.988-.988m.988 7.935l-7.935-7.934m7.935 14.881L75.126 220.45m14.881 21.828L68.179 220.45m21.828 28.774L61.232 220.45m28.775 35.721L54.285 220.45m35.722 42.668l-28.035-28.035m-7.081-7.081l-7.553-7.553m42.669 49.616l-30.594-30.593m-11.062-11.063l-7.466-7.466m49.122 56.069l-35.88-35.879m-12.06-12.06l-1.182-1.182m49.122 56.068l-43.516-43.515M83.09 283.99l-42.205-42.205m35.259 42.205L56 263.847m-4.78-4.78l-10.335-10.335m28.312 35.258L56 270.793m-11.726-11.726l-3.389-3.389m21.366 28.312L56 277.739m-14.59 6.251l-.03-.03m-.464-.463l-.031-.031M34.839 185.497h55.168m-34.196-11.336h34.196m-55.168-11.336h55.168m-30.984-11.336h30.984m-30.984-11.335h30.984M79.994 190.975v-53.262m-22.672 53.262v-34.196"/><path class="st1" d="M26.149 220.45h63.859m0 0v-26.451m0 0H26.149m0 0v26.451M33.599 196.115l-.924.081m0 0l-.896.238m0 0l-.841.39m0 0l-.76.529m0 0l-.656.652m0 0l-.531.756m0 0l-.393.835m0 0l-.24.891m0 0l-.08.918m0 0v11.639m0 0l.08.918m0 0l.24.891m0 0l.393.836m0 0l.531.755m0 0l.656.652m0 0l.76.529m0 0l.841.389m0 0l.896.239m0 0l.924.081m0 0h43.104m0 0l1.941-.169m0 0l1.882-.502m0 0l1.765-.818m0 0l1.596-1.11m0 0l1.377-1.37m0 0l1.117-1.586m0 0l.824-1.755m0 0l.504-1.87m0 0l.17-1.93m0 0l-.17-1.928m0 0l-.504-1.871m0 0l-.824-1.755m0 0l-1.117-1.586m0 0l-1.377-1.37m0 0l-1.596-1.111m0 0l-1.765-.818m0 0l-1.882-.501m0 0l-1.941-.169m0 0H33.599M36.163 207.224a.945.945 0 11-1.89 0 .945.945 0 011.89 0zM59.59 122.772h29.851m.001 0l.401.166m-.001 0l.166.4m0 0v13.809m0 0l-.166.4m0 0l-.401.166m.001 0H59.59m0 0l-.401-.166m0 0l-.166-.4m0 0v-13.809m0 0l.166-.4m0 0l.401-.166M60.723 126.929h13.339m.907 0h13.338M88.874 127.496v8.517M88.307 136.58H60.723M60.157 136.013v-8.517M88.307 126.929c.313 0 .566.254.566.567M88.874 136.013a.566.566 0 01-.566.566M60.723 136.58a.567.567 0 01-.566-.566M60.157 127.496c0-.313.254-.567.566-.567M75.271 129.87a.755.755 0 01-.302.604v-1.208a.754.754 0 01.302.604zm-1.209.604a.754.754 0 010-1.21v1.21zM74.969 123.301h-.907m0 0v7.748m0 0l.256.301m0 0h.395m0 0l.255-.301m0 0l.001-7.748M73.759 123.301h1.512m0 0v-.265m0 0h-1.512m0 0v.265M73.381 123.036h2.268m0 0v-.264m0 0h-2.268m0 0v.264M71.247 124.661v-1.625m0 0h.095m0 0v-.132m0 .001h.283m0 0v-.132m0-.001h-1.89m0 0v.132m0 .001h.284m0 0v.132m0-.001h.094m0 0v1.625m0 0h.322m0 0v.416m0 .001h-1.077m0 0v.491m0 0h2.645m0 0v-.491m0 0h-1.077m0 0v-.416m0-.001h.321M77.784 124.661v-1.625m0 0h-.095m0 0v-.132m0 .001h-.283m0 0v-.132m0-.001h1.89m0 0v.132m0 .001h-.283m0 0v.132m0-.001h-.095m0 0v1.625m0 0h-.322m0 0v.416m0 .001h1.078m0 0v.491m0 0h-2.646m0 0v-.491m0 0h1.077m0 0v-.416m0-.001h-.321M70.434 125.077l.072.072M70.925 125.077l-.071.072M70.434 124.661h.491M70.113 123.036h1.134M71.341 122.905h-1.322M78.596 125.077l-.072.072M78.105 125.077l.072.072M78.596 124.661h-.491M78.918 123.036h-1.135M77.689 122.905h1.323M70.925 125.322a.245.245 0 11-.491 0c0-.135.11-.246.246-.246s.245.112.245.246zM78.596 125.322a.245.245 0 11-.491 0c0-.135.11-.246.246-.246s.245.112.245.246zM55.878 240.926l1.645-.468m0 0l1.551-.719m-.001.001l1.23-.967m.001 0l.943-1.249m-.001-.001l.594-1.448m.001.001l.205-1.55m0 0l-.205-1.552m0 0l-.594-1.447m-.001-.001l-.943-1.248m.001.001l-1.23-.968m-.001 0l-1.551-.719m.001-.001l-1.645-.469m0 .001l-1.697-.207m0-.001l-1.71.059m-.001.001l-11.585 1.223m0 0v10.654m0 0l11.585 1.223m0 0l1.71.06m.001-.001l1.697-.208M46.607 230.408v4.118M46.607 234.525v4.116M60.874 231.461c.57.889.881 1.961.887 3.064M54.044 228.213c2.591-.165 5.106 1.031 6.829 3.248M46.607 230.408c2.253-1.505 4.828-2.266 7.437-2.195M54.044 240.837c-2.609.07-5.185-.689-7.437-2.195M60.874 237.589c-1.723 2.217-4.238 3.413-6.829 3.248M61.76 234.525a5.743 5.743 0 01-.887 3.063M40.885 229.878h.189v9.295h-.189zM40.885 229.878v9.295m0 0h.189m0 0v-9.295m0 0h-.189M40.885 243.971v-18.893M36.351 243.971v-18.893M40.885 243.971h-4.534M40.885 225.078h-4.534M49.643 180.563l1.645-.469m0 0l1.551-.718m0 0l1.23-.968m0 0l.943-1.248m0 0l.594-1.448m0 0l.205-1.551m0 0l-.205-1.551m0 0l-.594-1.447m0 0l-.943-1.249m0 0l-1.23-.967m0 0l-1.551-.719m0 0l-1.645-.469m0 0l-1.698-.207m0 0l-1.709.059m0 0l-11.585 1.223m0 0v10.654m0 0l11.585 1.223m0 0l1.709.059m0 0l1.698-.207M40.372 170.045v4.117M40.372 174.161v4.116M54.639 171.098c.57.889.881 1.961.887 3.063M47.809 167.85c2.592-.165 5.107 1.031 6.83 3.249M40.372 170.045c2.254-1.505 4.828-2.265 7.437-2.195M47.809 180.473c-2.609.07-5.184-.69-7.437-2.196M54.639 177.225c-1.723 2.217-4.238 3.414-6.83 3.249M55.526 174.161a5.743 5.743 0 01-.887 3.063M34.651 169.515h.188v9.294h-.188zM34.651 169.513v9.295m0 .001h.188m0 0v-9.295m0-.001h-.188M34.651 183.608v-18.894M30.117 183.608v-18.894M34.651 183.608h-4.534M34.651 164.715h-4.534M26.149 122.772v34.008M26.149 156.78h32.874M59.023 156.78v-34.008M33.707 129.385a.944.944 0 11-1.889 0 .944.944 0 011.889 0zM41.76 135.756l-1.396.372m0 0l-1.209.793m0 0l-.898 1.132m0 0l-.496 1.358m0 0l-.043 1.445m0 0l.413 1.385m0 0l.829 1.184m0 0l1.159.864m0 0l1.372.455m0 0h1.446m0 0l1.372-.455m0 0l1.159-.864m0 0l.829-1.184m0 0l.413-1.385m0 0l-.044-1.445m0 0l-.495-1.358m0 0l-.898-1.132m0 0l-1.208-.793m0 0l-1.398-.372m0 0v-5.538m0 0l.456.108m0 0l.489.037m0 0l.489-.037m0 0l.456-.108m0 0l.391-.172m0 0l.3-.225m0 0l.189-.261m0 0l.064-.281m0 0v-.402m0 0l-.019-.12m0 0l-.064-.278m0 0l-.054-.103m0 0l-.181-.251m0 0l-.078-.071m0 0l-.275-.204m0 0l-.356-.157m0 0l-.195-.052m0 0l-.25-.059m0 0l-.02-.688m0 0l-.01-.796m0 0h1.73m0 0v-.435m0 0H48.6m0 0l.159-.059m0 0l.084-.148m0 0l-.033-.167m0 0l-.134-.105m0 0l-.485-.158m0 0l-.726-.315m0 0l-1.008-.573m0 0l-.728-.259m0 0v-.124m0 0h.603m0 0v-.982m0 0h-2.569m0 0v.877m0 0l-.063.038m0 0l-.032.034m0 0l-.025.04m0 0l-.279.673m0 0h-.697m0 0v-1.36m0 0h1.059m0 0v-.302m0 0h-3.024m0 0v.302m0 0h1.058m0 0v1.36m0 0h-1.436m0 0v.151m0 0h-.415m0 0v-.302m0 0h.152m0 0v-.529m0 0h.604m0 0v-.982m0 0h-2.57m0 0v.982m0 0h.604m0 0v.529m0 0h.152m0 0v.302m0 0h-.152m0 0v1.512m0 0h2.571m0 0v2.154m0 0h.082m0 0h.094m0 0h.123m0 0h.149m0 0h.042m0 0v7.504M44.104 124.434h-.21m0 0l.14-.341m0 0l.326-.053m0 0l.008.002m0 0v.241m0 0h.151m0 0v.302m0 0h-.415m0 0v-.151M45.578 124.586v-.24m0 0l.677.239m0 0l.987.563m0 0l.053.024m0 0h-1.566m0 0v-.586m0 0h-.151M39.72 123.755v.529M39.041 123.755v.529M45.378 123.755h.352M44.519 124.284h.189M44.709 124.284h.68M45.388 124.284h.015M44.709 124.107v.176M45.388 124.278v.005M45.578 124.586h-1.059M43.225 126.097h-.558M45.729 125.172v.491M43.159 126.664h-.491M48.524 125.651l.076.012M44.375 123.547l-.047.002M44.544 123.579l-.169-.032M43.831 123.631l-.047.01M43.784 123.64l-.021.009M45.729 123.879l-.453-.16M45.276 123.719l-.731-.14M44.419 124.051l-.059-.01M48.524 125.651l-.512-.167M48.012 125.483l-.718-.312M45.318 123.735h-.001M44.328 123.549l-.497.082M42.67 128.152l-.002-.001M42.668 127.621h.002M44.104 124.982v-.127M44.104 124.737v-.104M44.104 124.855v-.118M43.894 124.434h-.523M45.141 124.191l-.722-.14M45.578 124.346l-.437-.155M43.423 125.068h.108a.108.108 0 10-.216 0 .108.108 0 00.216 0h-.108zM43.514 125.024l-.091.044M43.612 125.009l-.098.015M43.71 125.024l-.098-.015M43.801 125.068l-.091-.044M43.801 125.068h.001M43.958 127.564l-.346-.026M43.612 127.538l-.344.026M44.029 127.581l-.071-.017M42.947 127.641l-.196.051M43.268 127.564l-.321.077M43.981 125.235l.01.062M42.751 127.692l-.083.037M43.196 127.581l.02-.688M43.235 125.297l.009-.062M43.244 125.235l.026-.058M43.27 125.177l.042-.049M43.312 125.128l.055-.038M43.367 125.09l.057-.021M43.423 125.068l.007-.003M43.43 125.065l.068-.008M43.499 125.057h.228M43.726 125.057l.068.008M43.794 125.065l.007.003M43.802 125.069l.056.021M43.858 125.09l.055.038M43.913 125.128l.042.049M43.955 125.177l.026.058M43.216 126.893l.019-1.596M44 126.097l-.009-.799M44.104 125.795h-.107M43.229 125.795h-.562M41.76 135.756v5.343M42.668 135.756v5.343M41.76 141.098h.907M38.7 123.755h1.361M38.851 124.284h1.059M38.851 124.586h1.059M40.325 124.586v1.209M44.104 125.795v-1.209M41.76 123.075h.907M41.76 124.434v3.817M42.668 130.218v-5.784M40.325 125.795h1.436M41.27 126.097h.49M41.27 126.664h.49M43.159 126.097v1.493M42.668 138.434a1.888 1.888 0 11-.907 3.668 1.889 1.889 0 010-3.668M40.325 125.712a.34.34 0 110-.589M40.885 259.633v23.79m0 0l.166.4m0 0l.401.166m0 0h13.981m0 0l.4-.166m0 0l.167-.4m0 0v-23.79m0 0l-.167-.401m0 0l-.4-.165m0 0H41.452m0 0l-.401.165m0 0l-.166.401M45.043 260.767v10.307m0 .907v10.308M45.609 282.856h8.69M54.867 282.289v-21.522M54.299 260.2h-8.69M45.609 282.856a.566.566 0 01-.566-.567M54.867 282.289a.567.567 0 01-.567.567M54.299 260.2c.313 0 .567.254.567.567M45.043 260.767c0-.313.253-.567.566-.567M48.635 271.981a.755.755 0 01-1.21 0h1.21zm-1.21-.907a.755.755 0 011.209 0h-1.209zM41.415 271.982v-.907m0 0h7.748m0 0l.301.256m0 0v.395m0 0l-.301.256m0 0h-7.748M41.415 270.772v1.512m0 0h-.265m0 0v-1.512m0 0h.265M41.15 270.394v2.267m0 0h-.265m0 0v-2.267m0 0h.265M42.775 268.26H41.15m0 0v.095m0-.001h-.132m0 0v.283m0 .001h-.133m0 0v-1.889m0 0h.133m0 0v.283m0 0h.132m0 0v.095m0-.001h1.625m0 0v.321m0 .001h.416m0 0v-1.077m0-.001h.491m0 0v2.645m0 .001h-.491m0 0v-1.077m0 0h-.416m0 0v.321M42.775 274.797H41.15m0 0v-.094m0 0h-.132m0 0v-.284m0 0h-.133m0 0v1.89m0 0h.133m0 0v-.284m0 0h.132m0 0v-.094m0 0h1.625m0 0v-.322m0 0h.416m0 0v1.077m0 0h.491m0 0v-2.645m0 0h-.491m0 0v1.077m0 0h-.416m0 0v-.321M43.191 267.447l.071.072M43.191 267.938l.071-.072M42.775 267.447v.491M41.15 267.126v1.133M41.018 268.354v-1.323M43.191 275.609l.071-.072M43.191 275.118l.071.072M42.775 275.609v-.491M41.15 275.93v-1.134M41.018 274.702v1.322M43.682 267.693a.246.246 0 11-.492 0 .246.246 0 01.492 0zM43.682 275.363a.246.246 0 11-.492 0 .246.246 0 01.492 0zM224.157 250.317v-1.7m0 0h-48.82m0 0v1.7m0 0h48.82M224.157 216.309h-24.41m0 0v23.805m0 0h24.41m0 0v-23.805M199.747 216.309h-24.41m0 0v23.805m0 0h24.41m0 0v-23.805M175.336 216.309h-9.598m.001 0v34.007m0 0h9.598m-.001 0v-1.7m0-8.501V216.31M233.754 216.309h-9.598m.001 0v23.805m0 8.503v1.7m0-.001h9.598m-.001 0v-34.007M199.747 248.617v-8.502m0 0h-29.209m0 0v8.502m0 0h29.209M199.747 248.617v-8.502m0 0h29.209m0 0v8.502m0 0h-29.209M148.727 255.607v1.889m0 0h73.382m0 0v-1.889m0 0h-73.382M148.727 293.393h36.691m0 0v-26.45m0 0h-36.691m0 0v26.45M185.418 293.393h36.69m.001 0v-26.45m0 0h-36.69m-.001 0v26.45M222.109 293.393h9.598m0 0v-37.786m0 0h-9.598m0 0v1.889m0 9.447v26.45M139.13 293.393h9.597m0 0v-26.45m0-9.447v-1.889m0 0h-9.597m0 0v37.786M185.418 257.496v9.447m0 0h41.489m0 0v-9.447m0 0h-41.489M185.418 257.496v9.447m0 0H143.93m0 0v-9.447m0 0h41.489M131.006 18.884a3.78 3.78 0 11-7.558 0 3.78 3.78 0 017.558 0z"/><path class="st1" d="M128.361 18.884a1.134 1.134 0 11-2.269 0 1.134 1.134 0 012.269 0zM219.803 18.884a3.778 3.778 0 11-7.557.001 3.778 3.778 0 017.557-.001z"/><path class="st1" d="M217.159 18.884a1.134 1.134 0 11-2.269 0 1.134 1.134 0 012.269 0zM148.199 377.279v-15.115m0 0h80.266m0 0v15.115m0 0h-80.266M213.387 372.398v1.02m0 0h-44.369m0 0v-1.02m0 0h44.369M203.926 373.417v.833m0 0l-.152.566m0 0l-.414.415m0 0l-.568.152m0 0h-22.698m0 0l-.567-.152m0 0l-.415-.415m0 0l-.152-.566m0 0v-.833m0 0h24.966M213.387 372.101v.297m0 0h-44.369m0 0v-.297m0 0h44.369M26.149 357.295v19.983m0 0h69.149m0 0v-19.983m0 0H26.149M95.298 367.855v-.756m0 0H26.149m0 0v.756m0 0h69.149M32.736 358.134v18.626m0 0h.755m0 0v-18.626m0 0h-.755M34.741 358.134v18.626m0 0h.755m0 0v-18.626m0 0h-.755M36.745 358.134v18.626m0 0h.756m0 0v-18.626m0 0h-.756M38.75 358.134v18.626m0 0h.756m0 0v-18.626m0 0h-.756M42.996 358.269l-2.241 18.491m0 0l.75.091m0 0l2.241-18.491m0 0l-.75-.091M26.149 287.013v22.672m0-.001h66.882m0 0v-22.672m0 .001H26.149M93.031 298.726v-.756m0 0H26.149m0 0v.756m0 0h66.882M32.736 289.005v18.626m0 0h.755m0 0v-18.626m0 0h-.755M34.741 289.005v18.626m0 0h.755m0 0v-18.626m0 0h-.755M36.745 289.005v18.626m0 0h.756m0 0v-18.626m0 0h-.756M38.75 289.005v18.626m0 0h.756m0 0v-18.626m0 0h-.756M42.996 289.141l-2.241 18.491m0 0l.75.091m0 0l2.241-18.491m0 0l-.75-.091M142.153 133.746v22.672m0 0h95.41m0 0v-22.672m0 0h-95.41M237.563 145.46v-.756m0 0h-95.41m0 0v.756m0 0h95.41M148.74 135.739v18.626m0 0h.756m0 0v-18.626m0 0h-.756M150.745 135.739v18.626m0 0h.755m0 0v-18.626m0 0h-.755M152.749 135.739v18.626m0 0h.756m0 0v-18.626m0 0h-.756M154.753 135.739v18.626m0 0h.756m0 0v-18.626m0 0h-.756M158.999 135.874l-2.241 18.491m.001 0l.75.091m0 0l2.241-18.491m0 0l-.75-.091M205.634 89.898h-68.016m0 0V14.325m0 0h68.016m0 0v75.573M203.745 91.788h-64.236m0 0l-.724-.144m0 0l-.612-.409m0-.001l-.41-.614m0 0l-.144-.722m0 0h68.016m0 0l-.145.722m0 0l-.409.614m0 0l-.613.409m0 .001l-.723.144M205.634 10.547h-68.016m0 0v3.778m0 0h68.016m0 0v-3.778M137.619 10.547h68.016m0 0v1.889m0 0h-68.016m0 0v-1.889M135.729 10.547h-17.004m0 0V29.44m0 0h17.004m0 0V10.547M207.523 10.547h17.004m0 0V29.44m0 0h-17.004m0 0V10.547M165.581 16.215h-25.695m0 0l-.267.111m0 0l-.11.267m0 0v12.47m0 0l.11.267m0 0l.267.11m0 0h25.695m0 0l.267-.11m0 0l.111-.267m0 0v-12.47m0 0l-.111-.267m0 0l-.267-.111M177.672 16.215h25.694m0 0l.267.111m.001 0l.111.267m-.001 0v12.47m0 0l-.111.267m.001 0l-.267.11m-.001 0h-25.694m0 0l-.268-.11m.001 0l-.111-.267m-.001 0v-12.47m0 0l.111-.267m.001 0l.268-.111M205.634 28.416h-1.89M177.293 28.416h-11.334M139.508 28.416h-1.89M205.634 33.426h-68.016m0 0v18.686m0 0l68.016-14.907m0 0v-3.779M37.863 33.288h-.756m0 0v86.462m0 0h.756m0 0V33.288M28.142 110.895h18.626m0 0v-.756m0 0H28.142m0 0v.756M28.142 108.891h18.626m0 0v-.756m0 0H28.142m0 0v.756M28.142 106.886h18.626m0 0v-.755m0 0H28.142m0 0v.755M28.142 104.882h18.626m0 0v-.756m0 0H28.142m0 0v.756M28.277 100.636l18.491 2.241m0 0l.091-.75m0 0l-18.491-2.241m0 0l-.091.75M118.725 22.26v-.756m0 0H42.776m0 0v.756m0 0h75.949M49.363 12.54v18.626m0 0h.756m0 0V12.54m0 0h-.756M51.368 12.54v18.626m0 0h.756m0 0V12.54m0 0h-.756M53.372 12.54v18.626m0 0h.756m0 0V12.54m0 0h-.756M55.376 12.54v18.626m0 0h.756m0 0V12.54m0 0h-.756M59.623 12.675l-2.241 18.491m0 0l.75.091m0 0l2.241-18.491m0 0l-.75-.091M123.549 19.744l3.679-.86m-.001 0l1.584-3.431m0 0l-1.584 3.431m0 0l1.306 3.545M219.705 19.744l-3.68-.86m0 0l-1.583-3.431m0 0l1.583 3.431m0 0l-1.305 3.545M26.149 119.75h22.672m0 0V33.288m0 0H26.149m0 0v86.462M118.725 33.219V10.547m0 0H42.776m0 0v22.672m0 0h75.949"/></g></g></g><g id="walls_3_"><path class="st0" d="M26.265 522.368v-10.959H37.94v-19.671H26.226v-3.023h14.736v22.694h196.716v10.959H26.265zm63.857-330.442l.001-21.463h1.512v-.453h1.511v16.626h7.559v1.511h-.455v1.512h-7.104v52.124h-1.511v-.453h-1.512v-46.381H26.265v-3.023h5.668v-31.174h-5.668v-3.023h8.821l-.132 34.197h55.168zm147.557 64.63h-98.433v-30.623h1.512v.453h1.511l.001 27.146h95.41v3.024h-.001zM196.37 123.737v10.959h-54.102l-.001 59.799h-1.511v.454h-1.512v-5.29h-7.104v-1.512h-.454v-1.511h7.558v-62.899h57.126zM237.679.5v10.996H42.89l.003 18.705H26.266v-3.023h13.603l-.002-15.682H26.256V.5h211.423zM93.146 287.962h-66.88v-3.023h63.857v-15.476h1.512v-.453h1.511v18.952zm0-144.403h-1.511v-.453h-1.512v-19.384H26.266v-3.023h66.88v22.86zM37.978 284.938h3.023V221.21H26.265v3.023h11.713v26.828H26.265v3.023h11.713v30.854zm158.393 93.29v9.069h-47.25v-9.069h47.25zm-100.5 9.069H26.266v-9.069h69.605v9.069z"/><path d="M26.265 522.368v-10.959H37.94v-19.671H26.226v-3.023h14.736v22.694h196.716v10.959H26.265h0zm63.857-330.442h0l.001-21.463h1.512v-.453h1.511v16.626h7.559v1.511h-.455v1.512h-7.104v52.124h-1.511v-.453h-1.512v-46.381H26.265v-3.023h5.668v-31.174h-5.668v-3.023h8.821l-.132 34.197h55.168zm147.557 64.63h-98.433v-30.623h1.512v.453h1.511l.001 27.146h95.41v3.024h-.001zM196.37 123.737v10.959h-54.102l-.001 59.799h-1.511v.454h-1.512v-5.29h-7.104v-1.512h-.454v-1.511h7.558v-62.899h57.126zM237.679.5v10.996H42.89l.003 18.705H26.266v-3.023h13.603l-.002-15.682H26.256V.5h211.423zM93.146 287.962h-66.88v-3.023h63.857v-15.476h1.512v-.453h1.511v18.952h0zm0-144.403h-1.511v-.453h-1.512v-19.384H26.266v-3.023h66.88v22.86h0zM37.978 284.938h3.023V221.21H26.265v3.023h11.713v26.828H26.265v3.023h11.713v30.854h0zm158.393 93.29v9.069h-47.25v-9.069h47.25zm-100.5 9.069H26.266v-9.069h69.605v9.069z" fill-rule="evenodd" clip-rule="evenodd" fill="none" stroke="#000" stroke-linecap="round" stroke-linejoin="round" stroke-miterlimit="22.926"/><path class="st4" d="M154.824 223.793c-4.87 1.817-7.364 2.329-12.555 2.594"/><path class="st5" d="M154.927 223.767l-12.658-29.272h-1.512v.454l12.783 29.418z"/><path class="st4" d="M79.362 168.258c4.179 1.56 6.307 1.978 10.762 2.205"/><path class="st5" d="M79.265 168.216l1.388.6 10.982-25.257v-.453h-1.512z"/><g><path class="st4" d="M129.565 202.219c1.825-4.89 2.319-7.515 2.577-12.561"/><path class="st5" d="M129.523 202.317l.6-1.387-29.418-12.783h-.454v1.511z"/></g><g><path class="st4" d="M79.05 243.599c4.297-1.604 6.493-2.037 11.074-2.27"/><path class="st5" d="M78.957 243.639l11.166 25.823 1.512.001v-.453l-11.291-25.97z"/><g><path class="st4" d="M.5 353.987c5.967 2.218 9.204 2.875 15.563 3.2"/><path class="st5" d="M.405 353.946l1.388.6 15.782-36.355v-.454h-1.513z"/></g></g><path d="M237.679 134.695H196.37v-10.958h41.309v-11.155h23.805v54.405h-23.805v-32.292h0zm23.805 387.673h-23.805v-24.271h23.805v24.271h0zm-235.219 0H16.062V357.186h1.513v-.453h8.69v165.635h0zM261.484.5H16.061v317.237h1.513v.454h8.69V11.496h211.414v17.957h23.805V.5h.001zm0 386.797v27.67h-23.805v-27.67h-41.308v-9.069h41.308v-16.642h23.805v25.711h0zm-.001-108.841h-23.805v-45.343h23.805v45.343z" fill-rule="evenodd" clip-rule="evenodd" stroke="#000" stroke-linecap="round" stroke-linejoin="round" stroke-miterlimit="3"/><g><path class="st4" d="M253.927 166.986h-16.248M261.485 166.986h-5.669M255.817 166.986h-1.89M253.927 233.113h-16.248M261.485 233.113h-5.669M255.817 233.113h-1.89M261.485 233.113v-66.126M237.679 233.113v-66.126M253.927 233.113v-3.78M253.927 229.334h1.89M255.817 229.334v3.779M255.817 195.327v1.889M255.817 197.216h-1.89M253.927 197.216v-1.889M254.872 229.334v-32.118M253.927 229.334v-32.118M255.817 197.216v32.118M253.927 195.327v-.945M253.927 194.382h.945M254.872 194.382v-.944M254.872 193.437h.944M255.817 193.437v1.889M255.817 166.986v3.779M255.817 170.766h-.944M254.872 170.766v-.946M254.872 169.821h-.945M253.927 169.821v-2.834M255.817 170.766v22.672M252.983 191.548v-18.893M252.983 194.382v-2.834M252.983 191.548h1.89M254.872 191.548v2.834M254.872 194.382h-1.89M254.872 169.821v2.834M254.872 172.654h-1.89M252.983 172.654v-2.833M252.983 169.821h1.89M254.872 172.654v18.894M252.983 191.548v-18.893M253.927 191.548v-18.893M255.817 233.113h-1.89M255.817 233.113h-1.89M261.485 233.113h-5.669M253.927 233.113h-16.248M255.817 166.986h-1.89M255.817 166.986h-1.89M261.485 166.986h-5.669M253.927 166.986h-16.248"/><g><path class="st4" d="M253.927 278.456h-16.248M261.485 278.456h-5.669M255.817 278.456h-1.89M253.927 361.586h-16.248M261.485 361.586h-5.669M255.817 361.586h-1.89M261.485 361.586v-83.13M237.679 361.586v-83.13M253.927 361.586v-3.778M253.927 357.808h1.89M255.817 357.808v3.778M255.817 321.91v1.889M255.817 323.8h-1.89M253.927 323.8v-1.889M254.872 357.808v-34.009M253.927 357.808v-34.009M255.817 323.8v34.008M253.927 321.91v-.945M253.927 320.966h.945M254.872 320.966v-.944M254.872 320.021h.944M255.817 320.021v1.889M255.817 278.456v3.779M255.817 282.235h-.944M254.872 282.235v-.944M254.872 281.29h-.945M253.927 281.29v-2.833M252.983 281.29l-28.055 28.055M255.817 282.235v37.787M252.983 318.132v-34.007M252.983 320.966v-2.834M252.983 318.132h1.89M254.872 318.132v2.834M254.872 320.966h-1.89M254.872 281.29v2.834M254.872 284.124h-1.89M252.983 284.124v-2.834M252.983 281.29h1.89M254.872 284.124v34.007M252.983 318.132v-34.007M253.927 318.132v-34.007M252.983 320.966a39.676 39.676 0 01-28.055-11.621M255.817 361.586h-1.89M255.817 361.586h-1.89M261.485 361.586h-5.669M253.927 361.586h-16.248M255.817 278.456h-1.89M255.817 278.456h-1.89M261.485 278.456h-5.669M253.927 278.456h-16.248"/></g><g><path class="st4" d="M253.927 112.582h-16.248M261.485 112.582h-5.669M255.817 112.582h-1.89M253.927 29.452h-16.248M261.485 29.452h-5.669M255.817 29.452h-1.89M261.485 29.452v83.13M237.679 29.452v83.13M253.927 29.452v3.78M253.927 33.231h1.89M255.817 33.231v-3.779M255.817 69.128v-1.889M255.817 67.239h-1.89M253.927 67.239v1.889M254.872 33.231v34.007M253.927 33.231v34.007M255.817 67.239V33.232M253.927 69.128v.945M253.927 70.073h.945M254.872 70.073v.945M254.872 71.017h.944M255.817 71.017v-1.89M255.817 112.582v-3.779M255.817 108.803h-.944M254.872 108.803v.946M254.872 109.748h-.945M253.927 109.748v2.834M255.817 108.803V71.018M252.983 72.907v34.007M252.983 70.073v2.834M252.983 72.907h1.89M254.872 72.907v-2.834M254.872 70.073h-1.89M254.872 109.748v-2.834M254.872 106.914h-1.89M252.983 106.914v2.834M252.983 109.748h1.89M254.872 106.914V72.906M252.983 72.907v34.007M253.927 72.907v34.007M255.817 29.452h-1.89M255.817 29.452h-1.89M261.485 29.452h-5.669M253.927 29.452h-16.248M255.817 112.582h-1.89M255.817 112.582h-1.89M261.485 112.582h-5.669M253.927 112.582h-16.248"/></g><g><path class="st4" d="M253.927 498.096h-16.248M261.485 498.096h-5.669M255.817 498.096h-1.89M253.927 414.967h-16.248M261.485 414.967h-5.669M255.817 414.967h-1.89M261.485 414.967v83.129M237.679 414.967v83.129M253.927 414.967v3.779M253.927 418.746h1.89M255.817 418.746v-3.779M255.817 454.642v-1.888M255.817 452.754h-1.89M253.927 452.754v1.889M254.872 418.746v34.008M253.927 418.746v34.008M255.817 452.754v-34.008M253.927 454.642v.945M253.927 455.588h.945M254.872 455.588v.944M254.872 456.532h.944M255.817 456.532v-1.89M255.817 498.096v-3.777M255.817 494.318h-.944M254.872 494.318v.944M254.872 495.262h-.945M253.927 495.262v2.834M252.983 495.262l-28.055-28.054M255.817 494.318v-37.786M252.983 458.421v34.009M252.983 455.588v2.833M252.983 458.421h1.89M254.872 458.421v-2.833M254.872 455.588h-1.89M254.872 495.262v-2.832M254.872 492.43h-1.89M252.983 492.43v2.832M252.983 495.262h1.89M254.872 492.43v-34.009M252.983 458.421v34.009M253.927 458.421v34.009M224.928 467.208a39.676 39.676 0 0128.055-11.62M255.817 414.967h-1.89M255.817 414.967h-1.89M261.485 414.967h-5.669M253.927 414.967h-16.248M255.817 498.096h-1.89M255.817 498.096h-1.89M261.485 498.096h-5.669M253.927 498.096h-16.248"/></g><g><path class="st4" d="M261.485 266.18h40.337m0 0v105.802m0 0h-40.337m0 0V266.18M301.066 371.227h-39.581m0 0V266.935m0 0h39.581m0 0v104.291M261.485 522.368v-24.272"/></g></g></g><g id="walls_2"><path class="st0" d="M26.265 522.368v-10.959H37.94v-19.671H26.226v-3.023h14.736v22.694h196.716v10.959H26.265zm63.857-330.442l.001-21.463h1.512v-.453h1.511v16.626h7.559v1.511h-.455v1.512h-7.104v52.124h-1.511v-.453h-1.512v-46.381H26.265v-3.023h5.668v-31.174h-5.668v-3.023h8.821l-.132 34.197h55.168zm147.557 64.63h-98.433v-30.623h1.512v.453h1.511l.001 27.146h95.41v3.024h-.001zM196.37 123.737v10.959h-54.102l-.001 59.799h-1.511v.454h-1.512v-5.29h-7.104v-1.512h-.454v-1.511h7.558v-62.899h57.126zM237.679.5v10.996H42.89l.003 18.705H26.266v-3.023h13.603l-.002-15.682H26.256V.5h211.423zM93.146 287.962h-66.88v-3.023h63.857v-15.476h1.512v-.453h1.511v18.952zm0-144.403h-1.511v-.453h-1.512v-19.384H26.266v-3.023h66.88v22.86zM37.978 284.938h3.023V221.21H26.265v3.023h11.713v26.828H26.265v3.023h11.713v30.854zm158.393 93.29v9.069h-47.25v-9.069h47.25zm-100.5 9.069H26.266v-9.069h69.605v9.069z"/><path class="st7" d="M27.55.497l-1.29 1.14M34.97.497l-8.71 7.67M42.39.497l-12.48 11M49.82.497l-12.49 11M42.89 13.137l-3.02 2.66M26.96 27.177l-.69.6M57.24.497l-12.48 11M34.38 27.177l-3.43 3.02M42.89 19.677l-3.02 2.66M64.66.497l-12.48 11M42.89 26.217l-4.52 3.98M72.09.497l-12.49 11M79.5.497l-12.48 11M86.93.497l-12.49 11M94.35.497l-12.49 11M101.77.497l-12.48 11M109.2.497l-12.49 11M116.62.497l-12.49 11M124.04.497l-12.49 11M131.46.497l-12.49 11M138.88.497l-12.48 11M146.31.497l-12.49 11M153.73.497l-12.49 11M161.15.497l-12.48 11M32.13 120.697l-3.44 3.03M168.58.497l-12.49 11M39.55 120.697l-3.44 3.03M175.99.497l-12.48 11M46.97 120.697l-3.44 3.03M183.42.497l-12.49 11M54.39 120.697l-3.44 3.03M190.84.497l-12.49 11M61.82 120.697l-3.44 3.03M198.26.497l-12.48 11M69.24 120.697l-3.44 3.03M27.2 157.727l-.94.83M205.69.497l-12.49 11M76.66 120.697l-3.44 3.03M34.63 157.727l-3.44 3.03M213.11.497l-12.49 11M84.08 120.697l-3.44 3.03M35.06 163.877l-3.13 2.76M220.52.497l-12.48 11M91.5 120.697l-3.44 3.03M35.04 170.437l-3.11 2.74M227.95.497l-12.49 11M93.15 125.787l-3.03 2.67M35.01 176.997l-3.08 2.72M235.37.497l-12.48 11M237.68 5.007l-7.37 6.49M34.98 183.567l-3.05 2.69M93.15 132.327l-3.03 2.67M93.15 138.867l-3.03 2.67M34.96 190.127l-5.47 4.82M40.34 191.927l-3.43 3.02M47.75 191.927l-3.43 3.02M55.18 191.927l-3.43 3.02M140.01 123.737l-.76.67M29.36 221.207l-3.1 2.73M62.6 191.927l-3.43 3.02M70.02 191.927l-3.42 3.02M36.79 221.207l-3.44 3.03M93.15 171.557l-3.03 2.67M147.43 123.737l-8.18 7.21M93.15 178.097l-3.03 2.67M41 224.037l-3.02 2.66M77.45 191.927l-3.43 3.02M154.86 123.737l-12.45 10.96M142.27 134.827l-3.02 2.66M93.15 184.637l-3.03 2.66M41 230.577l-3.02 2.66M84.87 191.927l-3.43 3.02M162.28 123.737l-12.44 10.96M142.27 141.357l-3.02 2.67M93.15 191.177l-4.28 3.77M41 237.117l-3.02 2.66M98.3 186.637l-3.43 3.02M169.7 123.737l-12.44 10.96M142.27 147.897l-3.02 2.67M93.15 197.707l-3.03 2.67M32.59 251.057l-3.44 3.03M41 243.647l-3.02 2.66M177.12 123.737l-12.45 10.96M142.27 154.437l-3.02 2.66M93.15 204.247l-3.03 2.67M41 250.187l-4.43 3.9M184.54 123.737l-12.44 10.96M142.27 160.977l-3.02 2.66M93.15 210.787l-3.03 2.67M41 256.727l-3.02 2.66M191.96 123.737l-12.44 10.96M142.27 167.517l-3.02 2.66M93.15 217.327l-3.03 2.67M41 263.267l-3.02 2.66M196.37 126.397l-9.42 8.3M142.27 174.057l-3.02 2.66M196.37 132.937l-2 1.76M93.15 223.867l-3.03 2.66M41 269.807l-3.02 2.66M135.41 186.637l-3.27 2.88M142.27 180.587l-3.02 2.67M93.15 230.407l-3.03 2.66M31.24 284.937l-3.44 3.03M41 276.347l-3.02 2.66M142.27 187.127l-3.02 2.67M142.27 193.667l-.95.83M93.15 236.937l-3.03 2.67M35.22 287.967l3.44-3.03 2.34-2.06M46.08 284.937l-3.44 3.03M53.51 284.937l-3.44 3.03M60.93 284.937l-3.44 3.03M68.36 284.937l-3.44 3.03M142.24 226.387l-2.99 2.64M93.15 269.637l-3.03 2.66M75.78 284.937l-3.44 3.03M142.27 232.897l-3.02 2.67M83.2 284.937l-3.44 3.03M93.15 276.177l-3.03 2.66M93.15 282.707l-5.97 5.26M142.27 239.437l-3.02 2.66M142.27 245.977l-3.02 2.66M142.27 252.517l-3.02 2.66M148.53 253.537l-3.43 3.02M155.96 253.537l-3.43 3.02M163.38 253.537l-3.43 3.02M29.25 378.227l-2.98 2.62M170.79 253.537l-3.43 3.02M36.67 378.227l-10.29 9.07M178.22 253.537l-3.43 3.02M44.1 378.227l-10.3 9.07M185.64 253.537l-3.43 3.02M51.52 378.227l-10.3 9.07M193.06 253.537l-3.42 3.02M58.94 378.227l-10.29 9.07M200.49 253.537l-3.43 3.02M66.37 378.227l-10.3 9.07M207.91 253.537l-3.43 3.02M73.79 378.227l-10.29 9.07M215.34 253.537l-3.43 3.02M81.21 378.227l-10.3 9.07M222.75 253.537l-3.43 3.02M88.63 378.227l-10.3 9.07M230.17 253.537l-3.42 3.02M237.6 253.537l-3.43 3.02M95.87 378.387l-10.11 8.91M95.87 384.927l-2.69 2.37M155.43 378.227l-6.31 5.56M30.01 488.717l-3.43 3.02M37.43 488.717l-3.43 3.02M162.86 378.227l-10.3 9.07M40.96 492.147l-3.02 2.66M170.27 378.227l-10.29 9.07M40.96 498.677l-3.02 2.66M26.51 511.407l-.25.22M177.7 378.227l-10.3 9.07M33.94 511.407l-7.68 6.76M40.96 505.217l-3.02 2.66M185.12 378.227l-10.3 9.07M41.36 511.407l-12.44 10.96M192.54 378.227l-10.29 9.07M196.37 381.397l-6.7 5.9M48.79 511.407l-12.45 10.96M56.21 511.407l-12.44 10.96M63.63 511.407l-12.44 10.96M71.05 511.407l-12.45 10.96M78.47 511.407l-12.44 10.96M85.89 511.407l-12.44 10.96M93.32 511.407l-12.44 10.96M100.74 511.407l-12.44 10.96M108.16 511.407l-12.44 10.96M115.58 511.407l-12.44 10.96M123 511.407l-12.44 10.96M130.43 511.407l-12.45 10.96M137.85 511.407l-12.44 10.96M145.27 511.407l-12.44 10.96M152.7 511.407l-12.44 10.96M160.11 511.407l-12.44 10.96M167.54 511.407l-12.45 10.96M174.96 511.407l-12.44 10.96M182.38 511.407l-12.44 10.96M189.81 511.407l-12.44 10.96M197.23 511.407l-12.44 10.96M204.65 511.407l-12.44 10.96M212.07 511.407l-12.44 10.96M219.49 511.407l-12.44 10.96M226.92 511.407l-12.45 10.96M234.34 511.407l-12.44 10.96M237.68 515.007l-8.36 7.36M237.68 521.547l-.93.82"/><path d="M26.265 522.368v-10.959H37.94v-19.671H26.226v-3.023h14.736v22.694h196.716v10.959H26.265h0zm63.857-330.442h0l.001-21.463h1.512v-.453h1.511v16.626h7.559v1.511h-.455v1.512h-7.104v52.124h-1.511v-.453h-1.512v-46.381H26.265v-3.023h5.668v-31.174h-5.668v-3.023h8.821l-.132 34.197h55.168zm147.557 64.63h-98.433v-30.623h1.512v.453h1.511l.001 27.146h95.41v3.024h-.001zM196.37 123.737v10.959h-54.102l-.001 59.799h-1.511v.454h-1.512v-5.29h-7.104v-1.512h-.454v-1.511h7.558v-62.899h57.126zM237.679.5v10.996H42.89l.003 18.705H26.266v-3.023h13.603l-.002-15.682H26.256V.5h211.423zM93.146 287.962h-66.88v-3.023h63.857v-15.476h1.512v-.453h1.511v18.952h0zm0-144.403h-1.511v-.453h-1.512v-19.384H26.266v-3.023h66.88v22.86h0zM37.978 284.938h3.023V221.21H26.265v3.023h11.713v26.828H26.265v3.023h11.713v30.854h0zm158.393 93.29v9.069h-47.25v-9.069h47.25zm-100.5 9.069H26.266v-9.069h69.605v9.069z" fill-rule="evenodd" clip-rule="evenodd" fill="none" stroke="#040406" stroke-width=".567" stroke-miterlimit="22.926"/></g><g id="sizes_1_"><path d="M174.158 483.47h-1.594v-9.625l-1.617.992v-1.648l1.617-1.078h1.594v11.359zM176.564 482.087l3.961-5.281c.229-.302.407-.616.535-.941s.191-.629.191-.91v-.016c0-.453-.133-.805-.398-1.055s-.644-.375-1.133-.375c-.464 0-.839.137-1.125.41s-.461.66-.523 1.16v.008h-1.648v-.008c.094-.651.285-1.207.574-1.668s.663-.813 1.121-1.055.987-.363 1.586-.363c.677 0 1.255.116 1.734.348s.844.569 1.094 1.012.375.977.375 1.602v.008c0 .401-.083.82-.25 1.258s-.398.859-.695 1.266l-3.289 4.469h4.297v1.516h-6.406v-1.385zM184.846 481.876h1.594v1.594l-1.594 1.578v-3.172zM194.494 473.533l-2.938 9.938h-1.695l2.938-9.844h-2.891v1.633h-1.594v-3.148h6.18v1.421zM52.796 422.499a2.75 2.75 0 01-1.086-.977c-.278-.427-.465-.94-.559-1.539v-.008h1.594v.008c.058.417.224.741.5.973.276.232.636.348 1.078.348.511 0 .905-.17 1.184-.512.278-.341.418-.821.418-1.441v-.953c0-.614-.14-1.092-.418-1.434-.278-.341-.673-.512-1.184-.512-.276 0-.542.078-.797.234s-.479.375-.672.656h-1.453v-5.984h5.789v1.516h-4.195v2.555a2.275 2.275 0 011.414-.508c.656 0 1.218.136 1.684.406.466.271.82.667 1.063 1.188.242.521.363 1.148.363 1.883v.953c0 .734-.125 1.362-.375 1.883-.25.521-.614.918-1.094 1.191s-1.055.41-1.727.41c-.573 0-1.082-.112-1.527-.336zM59.706 421.124H61.3v1.594l-1.594 1.578v-3.172zM63.331 419.593l3.813-8.227h1.641l-3.719 8.133h5.57v1.477h-7.305v-1.383zm4.898-3.555h1.555v6.688h-1.555v-6.688zM279.956 281.277l-.727-.348a2.857 2.857 0 01-1.168-1.008c-.294-.44-.48-.97-.559-1.59h1.625c.047.323.148.589.305.797.156.208.358.363.605.465s.538.152.871.152c.526 0 .935-.141 1.227-.422s.438-.677.438-1.188v-.344c0-.567-.138-1.006-.414-1.316-.276-.31-.667-.465-1.172-.465h-.805v-1.516h.805c.442 0 .786-.133 1.031-.398s.367-.641.367-1.125v-.352c0-.448-.129-.794-.387-1.039-.258-.245-.624-.367-1.098-.367-.271 0-.513.051-.727.152s-.395.258-.543.469-.257.476-.324.793h-1.617c.104-.62.301-1.151.59-1.594a2.893 2.893 0 011.098-1.008c.442-.229.95-.344 1.523-.344.979 0 1.737.258 2.273.773s.805 1.242.805 2.18v.188c0 .568-.153 1.063-.461 1.484s-.742.729-1.305.922c.62.136 1.101.44 1.441.914.341.474.512 1.078.512 1.813v.188c0 .662-.128 1.227-.383 1.695s-.626.826-1.113 1.07c-.487.245-1.074.367-1.762.367l-.951.002zM286.276 279.566h1.594v1.594l-1.594 1.578v-3.172zM295.925 271.223l-2.938 9.938h-1.695l2.938-9.844h-2.891v1.633h-1.594v-3.148h6.18v1.421z"/><g><path d="M144.527 307.091h-1.594v-9.625l-1.617.992v-1.648l1.617-1.078h1.594v11.359zM146.949 303.966l3.813-8.227h1.641l-3.719 8.133h5.57v1.477h-7.305v-1.383zm4.899-3.555h1.555v6.688h-1.555v-6.688zM156.051 305.497h1.594v1.594l-1.594 1.578v-3.172zM161.348 306.817c-.521-.26-.923-.629-1.207-1.105s-.426-1.03-.426-1.66v-.188c0-.567.142-1.102.426-1.602s.663-.877 1.137-1.133c-.401-.219-.723-.535-.965-.949s-.363-.85-.363-1.309v-.273c0-.594.133-1.116.398-1.566.266-.45.641-.799 1.125-1.047.484-.247 1.047-.371 1.688-.371s1.203.124 1.688.371c.484.248.859.597 1.125 1.047.266.451.398.973.398 1.566v.273c0 .469-.124.909-.371 1.32a2.472 2.472 0 01-.98.938c.479.261.863.64 1.152 1.137a3.13 3.13 0 01.434 1.598v.188c0 .63-.142 1.184-.426 1.66s-.687.845-1.207 1.105c-.521.261-1.125.391-1.813.391s-1.293-.13-1.813-.391zm2.789-1.359c.281-.146.499-.35.652-.613.153-.263.23-.566.23-.91v-.109c0-.349-.077-.655-.23-.918a1.576 1.576 0 00-.652-.613c-.281-.146-.606-.219-.977-.219s-.695.073-.977.219c-.281.146-.499.352-.652.617s-.23.573-.23.922v.117c0 .344.077.646.23.906.153.261.371.462.652.605.281.144.606.215.977.215s.695-.073.977-.219zm-.133-5.121c.245-.138.435-.334.57-.59.136-.255.203-.549.203-.883v-.109c0-.317-.067-.599-.203-.844s-.325-.434-.57-.566-.526-.199-.844-.199-.599.066-.844.199-.435.322-.57.566a1.726 1.726 0 00-.203.852v.117c0 .328.067.619.203.871.136.253.325.448.57.586.245.138.526.207.844.207s.599-.069.844-.207z"/></g><g><path d="M74.678 113.382h-1.594v-9.625l-1.617.992v-1.648l1.617-1.078h1.594v11.359zM78.771 113.108c-.521-.26-.923-.629-1.207-1.105s-.426-1.03-.426-1.66v-.188c0-.567.142-1.102.426-1.602s.663-.877 1.137-1.133c-.401-.219-.723-.535-.965-.949s-.363-.85-.363-1.309v-.273c0-.594.133-1.116.398-1.566.266-.45.641-.799 1.125-1.047.484-.247 1.047-.371 1.688-.371s1.203.124 1.688.371c.484.248.859.597 1.125 1.047.266.451.398.973.398 1.566v.273c0 .469-.124.909-.371 1.32a2.472 2.472 0 01-.98.938c.479.261.863.64 1.152 1.137a3.13 3.13 0 01.434 1.598v.188c0 .63-.142 1.184-.426 1.66s-.687.845-1.207 1.105c-.521.261-1.125.391-1.813.391s-1.292-.13-1.813-.391zm2.789-1.359c.281-.146.499-.35.652-.613.153-.263.23-.566.23-.91v-.109c0-.349-.077-.655-.23-.918a1.576 1.576 0 00-.652-.613c-.281-.146-.606-.219-.977-.219s-.695.073-.977.219c-.281.146-.499.352-.652.617s-.23.573-.23.922v.117c0 .344.077.646.23.906.153.261.371.462.652.605.281.144.606.215.977.215s.696-.073.977-.219zm-.132-5.121c.245-.138.435-.334.57-.59.136-.255.203-.549.203-.883v-.109c0-.317-.067-.599-.203-.844s-.325-.434-.57-.566-.526-.199-.844-.199-.599.066-.844.199-.435.322-.57.566a1.726 1.726 0 00-.203.852v.117c0 .328.067.619.203.871.136.253.325.448.57.586.245.138.526.207.844.207s.599-.069.844-.207zM86.1 111.788h1.594v1.594L86.1 114.96v-3.172zM92.623 113.382h-1.594v-9.625l-1.617.992v-1.648l1.617-1.078h1.594v11.359z"/></g><g><path d="M28.665 321.597l3.813-8.227h1.641l-3.719 8.133h5.57v1.477h-7.305v-1.383zm4.898-3.555h1.555v6.688h-1.555v-6.688zM37.767 323.128h1.594v1.594l-1.594 1.578v-3.172zM41.376 323.339l3.961-5.281c.229-.302.407-.616.535-.941.128-.325.191-.629.191-.91v-.016c0-.453-.133-.805-.398-1.055s-.644-.375-1.133-.375c-.464 0-.839.137-1.125.41s-.461.66-.523 1.16v.008h-1.648v-.008c.094-.651.285-1.207.574-1.668s.663-.813 1.121-1.055.987-.363 1.586-.363c.677 0 1.255.116 1.734.348.479.232.844.569 1.094 1.012.25.443.375.977.375 1.602v.008c0 .401-.083.82-.25 1.258s-.398.859-.695 1.266l-3.289 4.469h4.297v1.516h-6.406v-1.385z"/></g><g><path d="M66.807 185.223l3.961-5.281c.229-.302.407-.616.535-.941.128-.325.191-.629.191-.91v-.016c0-.453-.133-.805-.398-1.055s-.644-.375-1.133-.375c-.464 0-.839.137-1.125.41s-.461.66-.523 1.16v.008h-1.648v-.008c.094-.651.285-1.207.574-1.668s.663-.813 1.121-1.055.987-.363 1.586-.363c.677 0 1.255.116 1.734.348.479.232.844.569 1.094 1.012.25.443.375.977.375 1.602v.008c0 .401-.083.82-.25 1.258s-.398.859-.695 1.266l-3.289 4.469h4.297v1.516h-6.406v-1.385zM75.088 185.012h1.594v1.594l-1.594 1.578v-3.172zM80.385 186.332c-.521-.26-.923-.629-1.207-1.105s-.426-1.03-.426-1.66v-.188c0-.567.142-1.102.426-1.602s.663-.877 1.137-1.133c-.401-.219-.723-.535-.965-.949s-.363-.85-.363-1.309v-.273c0-.594.133-1.116.398-1.566.266-.45.641-.799 1.125-1.047.484-.247 1.047-.371 1.688-.371s1.203.124 1.688.371c.484.248.859.597 1.125 1.047.266.451.398.973.398 1.566v.273c0 .469-.124.909-.371 1.32a2.472 2.472 0 01-.98.938c.479.261.863.64 1.152 1.137a3.13 3.13 0 01.434 1.598v.188c0 .63-.142 1.184-.426 1.66s-.687.845-1.207 1.105c-.521.261-1.125.391-1.813.391s-1.293-.13-1.813-.391zm2.789-1.359c.281-.146.499-.35.652-.613.153-.263.23-.566.23-.91v-.109c0-.349-.077-.655-.23-.918a1.576 1.576 0 00-.652-.613c-.281-.146-.606-.219-.977-.219s-.695.073-.977.219c-.281.146-.499.352-.652.617s-.23.573-.23.922v.117c0 .344.077.646.23.906.153.261.371.462.652.605.281.144.606.215.977.215s.696-.073.977-.219zm-.133-5.121c.245-.138.435-.334.57-.59.136-.255.203-.549.203-.883v-.109c0-.317-.067-.599-.203-.844s-.325-.434-.57-.566-.526-.199-.844-.199-.599.066-.844.199-.435.322-.57.566a1.726 1.726 0 00-.203.852v.117c0 .328.067.619.203.871.136.253.325.448.57.586.245.138.526.207.844.207s.599-.069.844-.207z"/></g><g><path d="M68.957 281.007l-.727-.348a2.857 2.857 0 01-1.168-1.008c-.294-.44-.48-.97-.559-1.59h1.625c.047.323.148.589.305.797.156.208.358.363.605.465s.538.152.871.152c.526 0 .935-.141 1.227-.422s.438-.677.438-1.188v-.344c0-.567-.138-1.006-.414-1.316-.276-.31-.667-.465-1.172-.465h-.805v-1.516h.805c.442 0 .786-.133 1.031-.398s.367-.641.367-1.125v-.352c0-.448-.129-.794-.387-1.039-.258-.245-.624-.367-1.098-.367-.271 0-.513.051-.727.152s-.395.258-.543.469-.257.476-.324.793H66.69c.104-.62.301-1.151.59-1.594a2.893 2.893 0 011.098-1.008c.442-.229.95-.344 1.523-.344.979 0 1.737.258 2.273.773s.805 1.242.805 2.18v.188c0 .568-.153 1.063-.461 1.484s-.742.729-1.305.922c.62.136 1.101.44 1.441.914.341.474.512 1.078.512 1.813v.188c0 .662-.128 1.227-.383 1.695s-.626.826-1.113 1.07c-.487.245-1.074.367-1.762.367l-.951.002zM75.277 279.296h1.594v1.594l-1.594 1.578v-3.172zM78.902 277.765l3.813-8.227h1.641l-3.719 8.133h5.57v1.477h-7.305v-1.383zm4.899-3.555h1.555v6.688h-1.555v-6.688z"/></g><g><path d="M150.462 237.205l-2.938 9.938h-1.695l2.938-9.844h-2.891v1.633h-1.594v-3.148h6.18v1.421zM152.493 245.549h1.594v1.594l-1.594 1.578v-3.172zM160.298 241.502l-.008.281c-.13.24-.327.416-.59.527a2.372 2.372 0 01-.934.168c-.542 0-1.019-.138-1.43-.414-.411-.276-.73-.665-.957-1.168-.227-.502-.34-1.084-.34-1.746v-.008c0-.734.124-1.362.371-1.883a2.615 2.615 0 011.086-1.188c.477-.271 1.048-.406 1.715-.406s1.237.138 1.711.414a2.66 2.66 0 011.082 1.203c.247.526.371 1.159.371 1.898v.008c0 .406-.052.84-.156 1.301s-.253.918-.445 1.371l-.094.207c-.031.07-.065.14-.102.207l-2.422 4.867h-1.719l2.861-5.639zm.074-.984c.273-.338.41-.815.41-1.43v-.008c0-.599-.137-1.063-.41-1.391s-.66-.492-1.16-.492c-.505 0-.895.164-1.168.492s-.41.794-.41 1.398v.008c0 .615.137 1.09.41 1.426s.663.504 1.168.504c.5 0 .887-.169 1.16-.507z"/></g></g></svg>