<svg version="1.1" id="_x33_44" xmlns="http://www.w3.org/2000/svg" x="0" y="0" viewBox="0 0 303.27 310.282" xml:space="preserve"><style>.st0{fill-rule:evenodd;clip-rule:evenodd;fill:#fff}.st2,.st3{fill:none;stroke-linecap:round;stroke-linejoin:round;stroke-miterlimit:3}.st2{fill-rule:evenodd;clip-rule:evenodd;stroke:#999}.st3{stroke:#000}.st3,.st4,.st6{fill-rule:evenodd;clip-rule:evenodd}.st6{fill:none;stroke:#666;stroke-width:.6;stroke-miterlimit:22.9256}</style><path class="st0" d="M41.897.807v168.881H.564v105.333h41.333v34.453h245.167V.807z" id="fon"/><g id="mebel"><g id="mebel_1_"><path d="M251.685 75.725l3.716-3.716m-10.663 3.716l10.663-10.663m12.595-12.594l5.542-5.542m-35.746 28.799l17.609-17.609m5.648-5.648l7.336-7.336m-37.54 30.593l29.871-29.871m12.006-12.006l.816-.816m-49.64 42.693l31.339-31.339m11.201-11.201l6.582-6.582m-56.069 49.122L252.5 40.177m7.493-7.494l6.08-6.08m-52.237 45.29l45.29-45.29m-45.29 38.343l38.342-38.343m-38.342 31.396l31.396-31.396m-31.396 24.449l24.449-24.449m-24.449 17.503l17.502-17.503m14.863-14.863l.131-.131m-32.496 25.55l10.555-10.555m-10.555 3.608l3.608-3.608m56.094 3.679l-3.68-3.68m-.004 6.943l-6.943-6.942m-.823 6.122l-6.123-6.123m17.573 24.52l-5.911-5.91M256.11 33.695l-7.092-7.092m18.918 25.865l-6.634-6.634m-8.545-8.545l-10.686-10.685m18.918 25.864l-25.865-25.865m20.277 27.224l-27.224-27.223m27.224 34.17L221.23 26.603m34.171 41.118L214.2 26.519m-.28-.279l-.084-.084m41.565 48.512l-41.565-41.565m35.675 42.622L213.836 40.05m28.728 35.675l-28.728-28.729m21.781 28.729l-21.781-21.781m14.834 21.781l-14.834-14.834m7.887 14.834l-7.887-7.887m.94 7.887l-.94-.94" fill-rule="evenodd" clip-rule="evenodd" fill="none" stroke="#999" stroke-width=".4" stroke-linecap="round" stroke-linejoin="round" stroke-miterlimit="3"/><path class="st2" d="M213.836 11.488v64.237m0 0h-26.45m0 0V11.488m0 0h26.45M189.502 18.983l.081-.93m0 0l.238-.901m0 0l.389-.846m0 0l.53-.764m0 0l.652-.66m-.001 0l.755-.535m.001 0l.836-.394m0 0l.891-.242m-.001 0l.918-.081m.001 0h11.638m0 0l.919.081m0 0l.891.242m-.001 0l.835.394m.001 0l.756.535m0 0l.652.66m0 0l.529.764m-.001 0l.389.846m.001 0l.239.901m0 0l.08.93m0 0v43.359m0 0l-.168 1.953m-.001 0l-.502 1.892m0 0l-.818 1.776m.001 0l-1.11 1.605m0 0l-1.37 1.386m0 0l-1.586 1.124m0 0l-1.755.828m0 0l-1.87.507m0 0l-1.93.171m0 0l-1.929-.171m0 0l-1.87-.507m0 0l-1.755-.828m0 0l-1.587-1.124m0 0l-1.369-1.386m0 0l-1.11-1.605m0 0l-.819-1.776m0 0l-.501-1.892m0 0l-.169-1.953m0 0V18.983M201.555 20.557a.945.945 0 11-1.89 0 .945.945 0 011.89 0zM214.403 11.488h31.362m0 0l.401.167m0 0l.166.4m0 0v13.981m0 0l-.166.401m0 0l-.401.166m0 0h-31.362m0 0l-.401-.166m0 0l-.166-.401m0 0V12.055m0 0l.166-.4m0 0l.401-.167M215.536 15.645h14.095m.906 0h14.095M245.199 16.212v8.691M244.632 25.469h-29.096M214.969 24.903v-8.691M244.632 15.645c.313 0 .567.253.567.567M245.199 24.903a.567.567 0 01-.567.566M215.536 25.469a.568.568 0 01-.567-.566M214.969 16.212c0-.313.254-.567.567-.567M230.84 18.633a.755.755 0 01-.303.605v-1.21a.755.755 0 01.303.605zm-1.209.605a.755.755 0 010-1.21v1.21zM230.538 12.018h-.907m0 0v7.748m0 0l.256.301m0 0h.395m0 0l.256-.301m0 0v-7.748M229.328 12.018h1.512m0 0v-.265m0 0h-1.512m0 0v.265M228.951 11.753h2.267m0 0v-.265m0 0h-2.267m0 0v.265M226.815 13.378v-1.625m0-.001h.095m0 0v-.132m0 0h.283m.001 0v-.132m0 .001h-1.889m0 0v.132m0-.001h.283m0 0v.132m0 0h.094m0 0v1.625m0 .001h.322m0 0v.416m0-.001h-1.077m-.001 0v.491m0 0h2.645m0 0v-.491m0 0h-1.077m.001 0v-.416m0 .001h.321M233.352 13.378v-1.625m0-.001h-.095m0 0v-.132m0 0h-.283m.001 0v-.132m0 .001h1.89m-.001 0v.132m0-.001h-.284m.001 0v.132m0 0h-.094m0 0v1.625m0 .001h-.322m0 0v.416m0-.001h1.078m0 0v.491m0 0h-2.645m0 0v-.491m0 0h1.076m0 0v-.416m0 .001h-.321M226.003 13.793l.072.072M226.494 13.793l-.072.072M226.003 13.378h.491M225.682 11.753h1.134M226.91 11.621h-1.323M234.165 13.793l-.072.072M233.674 13.793l.072.072M234.165 13.378h-.491M234.486 11.753h-1.134M233.258 11.621h1.323M226.494 14.039c0 .135-.11.246-.245.246a.246.246 0 010-.492c.135 0 .245.11.245.246zM234.165 14.039c0 .135-.11.246-.246.246a.246.246 0 010-.492c.136 0 .246.11.246.246zM258.547 32.86l-1.645.469m0-.001l-1.552.718m0 0l-1.23.968m0 0l-.943 1.248m0 .001l-.593 1.448m0-.001l-.206 1.551m0 .001l.206 1.551m0-.001l.593 1.447m0 0l.943 1.249m0 0l1.23.968m0 0l1.552.718m0 0l1.645.469m0 0l1.697.207m0 .001l1.71-.059m0-.001l11.584-1.223m0 0V33.934m0 0l-11.584-1.223m0 .001l-1.71-.06m0-.001l-1.697.208M267.817 43.378v-4.117M267.817 39.261v-4.116M253.55 42.325a5.743 5.743 0 01-.887-3.063M260.379 45.573c-2.591.165-5.106-1.031-6.829-3.248M267.817 43.378c-2.252 1.505-4.828 2.265-7.437 2.195M260.379 32.95c2.61-.07 5.185.689 7.437 2.195M253.55 36.198c1.723-2.217 4.238-3.413 6.829-3.248M252.664 39.261a5.743 5.743 0 01.887-3.063M273.35 34.613h.189v9.296h-.189zM273.538 43.909v-9.295m0 0h-.189m0 0v9.295m0 0h.189M273.538 29.815v18.893M278.073 29.815v18.893M273.538 29.815h4.535M273.538 48.708h4.535M255.401 52.469h22.672m0 0v23.256m0 0h-22.672m0 0V52.469M278.073 52.469h-4.535m0 0V26.603m0 0h4.535m0 0v25.866M246.332 26.603h15.87m0 0V11.488m0 0h-15.87m0 0v15.115M83.058 163.39v1.889m0 0h73.381m0 0v-1.889m0 0H83.058M83.058 201.175h36.69m0 0v-26.45m0 0h-36.69m0 0v26.45M119.748 201.175h36.69m0 0v-26.45m0 0h-36.69m0 0v26.45M156.439 201.175h9.598m0 0v-37.786m0 0h-9.598m0 0v1.889m0 9.447v26.45M73.46 201.175h9.598m0 0v-26.45m0-9.447v-1.889m0 0H73.46m0 0v37.786M119.748 165.279v9.446m0 0h41.489m0 0v-9.446m0 0h-41.489M119.748 165.279v9.446m0 0H78.259m0 0v-9.446m0 0h41.489M258.235 190.029V209.3m0 0l.221.534m0 0l.535.221m0 0h17.382m0 0l.534-.221m0 0l.221-.534m0 0v-19.271m0 0l-.221-.535m0 0l-.534-.221m0 0h-17.382m0 0l-.535.221m0 0l-.221.535M255.401 188.329V211M278.073 188.329V211M255.401 188.329h22.672M255.401 211h22.672M260.124 191.918v15.493M260.88 208.166h11.714M273.349 207.411v-7.002m0-1.489v-7.002M272.594 191.162H260.88M260.124 191.918h.108c0-.06-.048-.108-.108-.108s-.108.048-.108.108a.108.108 0 00.216 0h-.108zM260.88 208.166a.756.756 0 01-.756-.755M273.349 207.411a.755.755 0 01-.755.755M272.594 191.162c.417 0 .755.338.755.756M260.124 191.918c0-.417.338-.756.756-.756M268.517 199.324l-.24.101m0 0l-.099.24m0 0l.1.241m0 0l.24.099m0 0h7.477m0 0l.24-.1m0 0l.099-.241m0 0l-.099-.24m0 0l-.24-.1m0 0h-7.478M274.068 198.91v.414m0 0h1.927m0 0l.24.1m-.001 0l.1.24m0 0l-.1.241m0 0l-.24.1m.001 0h-1.927m0 0v.414m0 0h2.456m0 0v-1.509m0 0h-2.456M272.707 198.92v.404m0 0h1.323m0 0v-.404m0 0h-1.323M272.707 200.409h1.323m0 0v-.404m0 0h-1.323m0 0v.404M275.995 252.567v21.916m0 0h-18.516m0 0v-21.916m0 0h18.516M264.715 263.525h-5.299M259.416 263.525v1.096M264.715 263.525v1.096M264.715 272.379h-5.299M259.416 271.283v1.096M264.715 271.283v1.096M264.589 257.279a2.74 2.74 0 11-5.479-.001 2.74 2.74 0 015.479.001zM274.056 258.55a3.968 3.968 0 11-7.936 0 3.968 3.968 0 017.936 0z"/><path class="st2" d="M272.355 258.55a2.267 2.267 0 11-4.534 0 2.267 2.267 0 014.534 0zM264.679 267.952a2.646 2.646 0 11-5.291 0 2.646 2.646 0 015.291 0zM274.026 269.07a3.401 3.401 0 11-6.803 0 3.401 3.401 0 016.803 0zM278.073 233.672v42.887M255.401 233.672v42.887M278.073 233.672h-22.672M278.073 276.559h-22.672M255.401 188.329v-22.672m0 0h22.672m0 0v22.672m0 0h-22.672M270.516 176.992h-7.558M269.409 179.664l-5.344-5.343M266.737 180.771v-7.557M264.065 179.664l5.344-5.343M255.401 211v22.672M278.073 211v22.672M255.401 211h22.672M255.401 233.672h22.672M274.277 64.393a7.179 7.179 0 11-14.358 0 7.179 7.179 0 1114.358 0zM267.325 219.179a3.411 3.411 0 11-6.822 0 3.411 3.411 0 016.822 0z"/><path class="st2" d="M266.804 219.179a2.89 2.89 0 11-5.78 0 2.89 2.89 0 015.78 0zM265.662 225.488a2.58 2.58 0 11-5.16 0 2.58 2.58 0 015.16 0z"/><path class="st2" d="M264.527 225.488a1.445 1.445 0 11-2.89 0 1.445 1.445 0 012.89 0zM81.206 20.109a3.778 3.778 0 11-7.557.001 3.778 3.778 0 017.557-.001z"/><path class="st2" d="M78.561 20.109a1.134 1.134 0 11-2.267 0 1.134 1.134 0 012.267 0zM170.004 20.109a3.78 3.78 0 11-7.558 0 3.78 3.78 0 017.558 0z"/><path class="st2" d="M167.359 20.109a1.134 1.134 0 11-2.267 0 1.134 1.134 0 012.267 0zM236.508 137.695v22.671m0 0h41.565m0 0v-22.671m0 0h-41.565M278.073 149.408v-.755m0 0h-41.565m0 0v.755m0 0h41.565M243.095 139.688v18.626m0 0h.755m0 0v-18.626m0 0h-.755M245.099 139.688v18.626m0 0h.756m0 0v-18.626m0 0h-.756M247.104 139.688v18.626m0 0h.756m0 0v-18.626m0 0h-.756M249.109 139.688v18.626m0 0h.755m-.001 0v-18.626m0 0h-.755M253.355 139.823l-2.242 18.491m0 0l.751.091m0 0l2.241-18.491m0 0l-.75-.091M155.834 91.123H87.818m0 0V15.55m0 0h68.016m0 0v75.573M153.944 93.012H89.708m0 0l-.723-.144m0 0l-.613-.409m.001 0l-.41-.613m-.001 0l-.144-.723m0 0h68.016m.001 0l-.144.723m0 0l-.41.613m-.001 0l-.612.409m0 0l-.724.144M155.834 11.772H87.818m0 0v3.778m0 0h68.016m0 0v-3.778M87.819 11.772h68.016m0 0v1.889m0 0H87.819m0 0v-1.889M85.929 11.772H68.926m0 0v18.893m0 0h17.003m0 0V11.772M157.723 11.772h17.004m0 0v18.893m0 0h-17.004m0 0V11.772M115.781 17.44H90.086m0 0l-.267.111m0 0l-.111.267m0 0v12.469m0 0l.111.267m0 0l.267.111m0 0h25.695m0 0l.267-.111m0 0l.111-.267m0 0V17.818m0 0l-.111-.267m0 0l-.267-.111M127.872 17.44h25.695m0 0l.267.111m0 0l.11.267m0 0v12.469m0 0l-.11.267m0 0l-.267.111m0 0h-25.695m0 0l-.267-.111m0 0l-.111-.267m0 0V17.818m0 0l.111-.267m0 0l.267-.111M155.834 29.642h-1.89M127.494 29.642h-11.335M89.708 29.642h-1.89M155.834 34.651H87.818m0 0v18.686m0 0l68.016-14.908m0 0v-3.778M80.261 298.853v-15.114m0 0h123.184m0 0v15.114m0 0H80.261M140.757 293.972v1.02m0 0H96.388m0 0v-1.02m0 0h44.369M131.296 294.992v.833m0 0l-.152.566m0 0l-.415.415m0 0l-.567.153m.001 0h-22.699m0 0l-.566-.153m-.001 0l-.415-.415m.001 0l-.152-.566m0 0v-.833m0 0h24.966M140.757 293.674v.298m0 0H96.388m0 0v-.298m0 0h44.369M266.405 58.385l-.449 1.233m0 0v1.312m0 0l.449 1.234m0 0l-.342 1.473m0 0v1.512m0 0l.342 1.474m0 0l-.45 1.234m0 0v1.314m0 0l.45 1.235m0 0l-2.988-2.232m0 0v-7.557m0 0l2.988-2.232M263.156 60.617v7.557m0 0h.261m0 0v-7.557m0 0h-.261M262.633 60.617v7.557m0 0h.261m0 0v-7.557m0 0h-.261M267.92 65.236l.085-.891m0 0l-.226-.022m0 0l-.045.477m0 0l-1.143-1.383m0 0l-.152.126m0 0l.53.642m0 0l-.081.067m0 0l-.611-.74m0 0l-.146.121m0 0l.61.74m0 0l-.097.08m0 0l-.496-.601m0 0l-.131.107m0 0l.497.602m0 0l-.098.08m0 0l-.342-.414m0 0l-.139.115m0 0l1.173 1.422M278.073 52.469v23.256m0 0h-22.672m0 0V52.469m0 0h22.672M101.233 238.301v-18.893m0 0h37.786m0 0v18.893m0 0h-37.786M65.524 137.695v22.671m0 0h118.838m0 0v-22.671m0 0H65.524M184.363 149.408v-.755m0 0H65.525m0 0v.755m0 0h118.838M74.001 139.688v18.626m0 0h.755m0 0v-18.626m0 0h-.755M76.006 139.688v18.626m0 0h.756m0 0v-18.626m0 0h-.756M78.01 139.688v18.626m0 0h.755m0 0v-18.626m0 0h-.755M80.015 139.688v18.626m0 0h.756m0 0v-18.626m0 0h-.756M84.261 139.823l-2.242 18.491m0 0l.751.091m0 0l2.241-18.491m0 0l-.75-.091M261.707 215.111v.963m0 0h-1.204m0 0v12.524m0 0h1.204m0 0v.964M271.232 216.575l-.103.047m-.102.047l-.103.047m-.103.047l-.104.048m-.103.047l-.104.047m-.102.047l-.103.047m-.104.047l-.103.048m-.102.046l-.103.048m-.103.047l-.103.047m-.104.047l-.103.047m-.103.048l-.103.047m-.104.047l-.103.047m-.103.047l-.103.047m-.102.047l-.103.048m-.103.047l-.103.047m-.104.047l-.103.047m-.103.047l-.103.048m-.104.047l-.103.047M271.232 226.208l-.103-.048m-.102-.047l-.103-.047m-.103-.046l-.104-.047m-.103-.047l-.104-.048m-.102-.047l-.103-.048m-.104-.047l-.103-.047m-.102-.046l-.103-.047m-.103-.047l-.103-.048m-.104-.047l-.103-.047m-.103-.048l-.103-.047m-.104-.046l-.103-.048m-.103-.047l-.103-.047m-.102-.047l-.103-.047m-.103-.048l-.103-.046m-.104-.047l-.103-.048m-.103-.047l-.103-.047m-.104-.047l-.103-.048M271.232 216.575v.077m0 .114v.113m0 .113v.114m0 .114v.077m0 0l-.051.042m-.088.071l-.088.072m-.088.072l-.088.071m-.088.072l-.088.071m-.088.071l-.088.072m-.088.071l-.088.072m-.089.071l-.087.072m-.087.071l-.088.071m-.09.072l-.087.071m-.087.072l-.088.071m-.09.072l-.088.071m-.087.072l-.088.071m-.088.071l-.089.072m-.087.071l-.088.072m-.088.071l-.089.072m-.088.071l-.087.072m-.087.071l-.089.071m-.089.072l-.087.071m-.087.072l-.089.071m-.089.072l-.088.071m-.087.071l-.088.072m-.088.071l-.088.072m-.088.071l-.052.042M271.232 226.208v-.078m0-.112v-.114m0-.113v-.114m0-.113v-.078m0 0l-.051-.042m-.088-.071l-.088-.071m-.088-.072l-.088-.071m-.088-.073l-.088-.071m-.088-.071l-.088-.071m-.088-.073l-.088-.071m-.089-.071l-.087-.071m-.087-.071l-.088-.072m-.09-.072l-.087-.072m-.087-.07l-.088-.072m-.09-.072l-.088-.071m-.087-.071l-.088-.071m-.088-.073l-.089-.071m-.087-.071l-.088-.071m-.088-.072l-.089-.072m-.088-.071l-.087-.071m-.087-.071l-.089-.072m-.089-.072l-.087-.071m-.087-.072l-.089-.071m-.089-.071l-.088-.071m-.087-.073l-.088-.072m-.088-.07l-.088-.072m-.088-.072l-.052-.042M271.711 226.208v-9.634m0 .001h-.479m0 0v.722m0 0h.238m0 0v8.189m0 0h-.238m0 0v.723m0-.001h.479M203.445 276.559h60.458m0 0v22.294m0 0h-60.458m0 0v-22.294M246.332 26.603h15.87m0 0V11.488m0 0h-15.87m0 0v15.115M73.748 20.969l3.679-.86m0 0l1.584-3.431m0 0l-1.584 3.431m0 0l1.306 3.546M169.904 20.969l-3.679-.86m0 0l-1.584-3.431m0 0l1.584 3.431m0 0l-1.306 3.546M221.744 221.914l-4.109-4.109m0 0l-.426-.407m0 0l-.43-.371m0 0l-.424-.328m0 0l-.403-.276m0 0l-.017-.009m0 0l-.375-.216m0 0l-.332-.147m0 0l-.025-.008m0 0l-.281-.075m0 0l-.028-.004m0 0l-.22.002m0 0l-.03.002m0 0l-.029.007m0 0l-.027.013m0 0l-.154.078m0 0l-.024.018m0 0l-.012.01m0 0l-1.133 1.134m0 0l-1.03-1.029m0 0l-5.217 5.217m11.114 11.116l5.217-5.218m.001 0l-1.029-1.029m0 0l1.134-1.134m0 0l.011-.011m0 0l.017-.025m0 0l.078-.154m0 0l.013-.027m0 0l.008-.029m0 0l.002-.029m0 0l.001-.221m0 0l-.003-.028m0 0l-.075-.281m0 0l-.008-.025m0 0l-.148-.332m0 0l-.214-.376m0 0l-.011-.016m0 0l-.276-.404m0 0l-.328-.423m0 0l-.371-.429m0 0l-.407-.427M212.596 217.896l9.057 9.057M212.719 218.02l.898-.898M221.529 226.829l.898-.898M217.656 230.95l4.664-4.664M208.599 221.893l4.665-4.664M216.605 218.827l4.117 4.117M213.617 217.122c.354-.354 1.691.409 2.988 1.706M220.721 222.943c1.296 1.296 2.06 2.634 1.705 2.988M185.145 250.296l4.108 4.108m0 0l.427.408m0 0l.43.371m0 0l.423.328m0 0l.404.275m0 0l.016.011m0 0l.376.215m0 0l.332.147m0 0l.024.008m0 0l.281.075m0 0l.029.003m0 0l.22-.001m0 0l.03-.002m0 0l.028-.008m0 0l.027-.012m0 0l.154-.078m0 0l.025-.018m0 0l.011-.011m0 0l1.134-1.133m0 0l1.029 1.029m0 0l5.219-5.218m-11.116-11.114l-5.216 5.217m-.001 0l1.029 1.029m0 0l-1.135 1.134m0 0l-.01.011m0 0l-.017.025m0 0l-.078.153m0 0l-.013.027m0 0l-.008.03m0 0l-.002.029m0 0l-.001.221m0 0l.003.027m0 0l.074.282m0 0l.009.025m0 0l.147.332m0 0l.215.375m0 0l.01.016m0 0l.276.404m0 0l.329.424m0 0l.371.429m0 0l.407.427M194.293 254.313l-9.057-9.057M194.17 254.189l-.898.898M185.359 245.38l-.897.897M189.232 241.26l-4.663 4.664M198.289 250.316l-4.664 4.664M190.284 253.382l-4.117-4.117M193.271 255.088c-.354.354-1.692-.409-2.988-1.705M186.167 249.265c-1.296-1.296-2.06-2.634-1.705-2.988M189.254 217.805l-4.108 4.109m0 0l-.408.427m0 0l-.371.429m0 0l-.329.423m0 0l-.275.404m0 0l-.01.016m0 0l-.216.376m0 0l-.146.332m0 0l-.009.025m0 0l-.074.281m0 0l-.003.028m0 0l.001.221m0 0l.002.029m0 0l.008.029m0 0l.012.027m0 0l.078.154m0 0l.018.024m0 0l.01.012m0 0l1.134 1.133m0 0l-1.029 1.03m0 0l5.217 5.217m11.115-11.115l-5.218-5.217m0 0l-1.028 1.029m0 0l-1.135-1.134m0 0l-.01-.01m0 0l-.026-.018m0 0l-.153-.078m0 0l-.027-.013m0 0l-.029-.007m0 0l-.029-.002m0 0l-.221-.002m0 0l-.028.004m0 0l-.281.075m0 0l-.025.008m0 0l-.332.147m0 0l-.376.215m0 0l-.015.01m0 0l-.405.276m0 0l-.423.328m0 0l-.429.371m0 0l-.427.407M185.236 226.953l9.057-9.057M185.359 226.829l-.897-.898M194.17 218.02l-.898-.898M198.289 221.893l-4.664-4.664M189.232 230.949l-4.663-4.663M186.167 222.944l4.117-4.117M184.462 225.931c-.354-.354.409-1.692 1.705-2.988M190.283 218.826c1.297-1.296 2.635-2.059 2.988-1.705M217.634 254.404l4.109-4.108m0 0l.408-.427m0 0l.371-.43m0 0l.328-.424m0 0l.275-.403m0 0l.011-.017m0 0l.215-.375m.001 0l.147-.332m-.001 0l.008-.024m.001 0l.075-.282m-.001 0l.003-.028m.001 0l-.001-.22m-.001 0l-.002-.03m0 0l-.008-.029m0 0l-.012-.027m.001 0l-.078-.154m-.001 0l-.018-.024m0 0l-.011-.012m0 0l-1.133-1.133m0 0l1.029-1.03m0 0l-5.218-5.218m-11.115 11.115l5.219 5.218m-.001 0l1.029-1.029m0 0l1.134 1.134m.001 0l.011.011m-.001 0l.025.017m.001 0l.153.078m-.001 0l.027.013m.001 0l.03.008m-.001 0l.029.002m.001 0l.221.001m-.001 0l.027-.003m.001 0l.281-.075m0 0l.026-.008m0 0l.332-.148m0 0l.375-.214m0 0l.016-.011m-.001 0l.404-.276m0 0l.424-.328m0 0l.429-.371m.001 0l.426-.407M221.653 245.257l-9.057 9.057M221.529 245.38l.898.897M212.719 254.189l.898.898M208.599 250.316l4.665 4.664M217.656 241.26l4.664 4.664M220.722 249.265l-4.117 4.117M222.427 246.277c.354.354-.409 1.691-1.705 2.987M216.605 253.382c-1.296 1.296-2.634 2.06-2.988 1.705M218.558 236.104c0 8.348-6.767 15.114-15.114 15.114-8.348 0-15.115-6.766-15.115-15.114 0-8.347 6.767-15.114 15.115-15.114 8.347 0 15.114 6.767 15.114 15.114z"/></g></g><g id="walls_1_"><path class="st0" d="M278.134.501v10.958h-12.847v12.092h12.847v3.023h-15.87V11.458h-74.817v64.237h32.023v1.511h.454v1.512h-32.477v17.937h-1.512v-.453h-1.511V11.458h-75.9V.501h169.61zm-51.66 159.836H233.546v-22.672h3.023v22.672h41.565v3.023H225.839v-1.511h-.454v-1.512h1.089zm-39.027-30.429v30.429h6.953v1.512h-.453v1.511H65.586v-3.023h118.838V128.85h1.511v-.453h1.512v1.511zm68.015 179.874H108.524v-10.958h155.44v-22.483h14.17v3.023h-11.147v19.46h11.147v10.958h-22.672zm-6.821-234.086h-1.058v1.511h-.453v1.512h31.004v-3.023h-29.493z"/><path class="st3" d="M171.558 98.843c4.984-1.861 7.553-2.369 12.866-2.641"/><path class="st4" d="M171.466 98.883l12.958 29.966h1.512v-.453l-13.083-30.112z"/><path class="st3" d="M302.77 125.465c-5.969 2.228-9.205 2.883-15.567 3.207"/><path class="st4" d="M302.861 125.431l-15.658-36.208-1.512-.001v.454l15.783 36.354z"/><path class="st3" d="M221.746 64.627c-1.557 4.178-2.04 6.467-2.275 11.068"/><path class="st4" d="M221.78 64.536l-.599 1.387 25.95 11.283h.453v-1.511z"/><g><path class="st3" d="M196.33 176.132c-1.751-4.696-2.294-7.27-2.558-12.443"/><path class="st4" d="M196.369 176.234l-.675-1.559 29.172-12.684h.51l-.001 1.698z"/></g><path d="M278.135 309.782V128.218h7.557v.453h1.511v181.111h-9.068 0zM41.78.5h66.743v10.958H65.587v30.418H41.78V.5h0zm236.355 0h9.068v88.722h-1.511v.454h-7.557V.5h0zM108.524 309.781l-66.743.001v-44.967h23.806v34.008h42.937v10.958h0zM41.78 108.002h23.806v73.683H41.78v-73.683z" fill-rule="evenodd" clip-rule="evenodd" stroke="#000" stroke-linecap="round" stroke-linejoin="round" stroke-miterlimit="3"/><g><path class="st3" d="M49.339 108.003h16.248M41.781 108.003h5.668M47.449 108.003h1.889M49.339 41.877h16.248M41.781 41.877h5.668M47.449 41.877h1.889M41.781 41.877v66.126M65.586 41.877v66.126M49.339 41.877v3.778M49.339 45.655H47.45M47.449 45.655v-3.778M47.449 79.663v-1.89M47.449 77.773h1.889M49.339 77.773v1.89M48.394 45.655v32.118M49.339 45.655v32.118M47.449 77.773V45.655M49.339 79.663v.944M49.339 80.607h-.945M48.394 80.607v.945M48.394 81.552h-.944M47.449 81.552v-1.889M47.449 108.003v-3.779M47.449 104.224h.944M48.394 104.224v.945M48.394 105.169h.945M49.339 105.169v2.834M47.449 104.224V81.552M50.283 83.441v18.893M50.283 80.607v2.834M50.283 83.441h-1.889M48.394 83.441v-2.834M48.394 80.607h1.889M48.394 105.169v-2.834M48.394 102.334h1.889M50.283 102.334v2.834M50.283 105.169h-1.889M48.394 102.334V83.441M50.283 83.441v18.893M49.339 83.441v18.893M47.449 41.877h1.889M47.449 41.877h1.889M41.781 41.877h5.668M49.339 41.877h16.248M47.449 108.003h1.889M47.449 108.003h1.889M41.781 108.003h5.668M49.339 108.003h16.248"/><g><path class="st3" d="M49.339 264.815h16.248M41.781 264.815h5.668M47.449 264.815h1.889M49.339 181.686h16.248M41.781 181.686h5.668M47.449 181.686h1.889M41.781 181.686v83.129M65.586 181.686v83.129M49.339 181.686v3.778M49.339 185.464H47.45M47.449 185.464v-3.778M47.449 221.361v-1.889M47.449 219.472h1.889M49.339 219.472v1.889M48.394 185.464v34.008M49.339 185.464v34.008M47.449 219.472v-34.008M49.339 221.361v.945M49.339 222.306h-.945M48.394 222.306v.945M48.394 223.251h-.944M47.449 223.251v-1.89M47.449 264.815v-3.778M47.449 261.037h.944M48.394 261.037v.945M48.394 261.982h.945M49.339 261.982v2.833M50.283 261.982l28.055-28.055M47.449 261.037v-37.786M50.283 225.14v34.007M50.283 222.306v2.834M50.283 225.14h-1.889M48.394 225.14v-2.834M48.394 222.306h1.889M48.394 261.982v-2.834M48.394 259.147h1.889M50.283 259.147v2.834M50.283 261.982h-1.889M48.394 259.147V225.14M50.283 225.14v34.007M49.339 225.14v34.007M50.283 222.306a39.675 39.675 0 0128.055 11.621M47.449 181.686h1.889M47.449 181.686h1.889M41.781 181.686h5.668M49.339 181.686h16.248M47.449 264.815h1.889M47.449 264.815h1.889M41.781 264.815h5.668M49.339 264.815h16.248"/></g><g><path class="st3" d="M41.781 169.41H.5m0 0v105.801m0 0h41.281m0 0V169.41M1.255 274.455h40.526m0 0v-104.29m0 0H1.255m0 0v104.29"/></g></g><g><path class="st6" d="M111.42.564l-2.73 2.41M118.85.564l-10.16 8.95M126.26.564l-12.44 10.96M133.69.564l-12.45 10.96M141.11.564l-12.44 10.96M148.53.564l-12.44 10.96M155.96.564l-12.45 10.96M163.38.564l-12.44 10.96M170.79.564l-12.44 10.96M178.22.564l-12.44 10.96M185.64.564l-12.44 10.96M193.06.564l-12.44 10.96M187.62 11.904l-3.03 2.66M200.49.564l-12.44 10.96M187.62 18.444l-3.03 2.66M207.91.564l-12.44 10.96M187.62 24.984l-3.03 2.66M215.34.564l-12.45 10.96M187.62 31.514l-3.03 2.67M222.75.564l-12.44 10.96M187.62 38.054l-3.03 2.67M230.18.564l-12.45 10.96M187.62 44.594l-3.03 2.66M237.6.564l-12.44 10.96M187.62 51.134l-3.03 2.66M245.02.564l-12.44 10.96M187.62 57.674l-3.03 2.66M71 160.404l-3.43 3.02M252.45.564L240 11.524M187.62 64.214l-3.03 2.66M78.42 160.404l-3.43 3.02M259.87.564l-12.44 10.96M187.62 70.744l-3.03 2.67M85.84 160.404l-3.43 3.02M267.29.564l-12.45 10.96M189.34 75.764l-4.75 4.19M93.26 160.404l-3.43 3.02M274.71.564l-12.44 10.96M265.46 15.254l-3.03 2.66M100.68 160.404l-3.42 3.02M196.76 75.764l-3.42 3.02M187.62 83.824l-3.03 2.66M278.3 3.934l-8.61 7.59M278.3 10.474l-1.19 1.05M204.19 75.764l-3.43 3.02M187.62 90.364l-3.03 2.66M108.11 160.404l-3.43 3.02M265.46 21.794l-3.03 2.66M211.61 75.764l-3.43 3.02M115.53 160.404l-3.43 3.02M270.81 23.614l-3.44 3.03M278.24 23.614l-3.44 3.03M219.04 75.764l-3.43 3.02M122.96 160.404l-3.43 3.02M130.37 160.404l-3.43 3.02M137.79 160.404l-3.42 3.02M145.22 160.404l-3.43 3.02M248.72 75.764l-.97.86M187.62 129.594l-3.03 2.66M152.64 160.404l-3.43 3.02M187.62 136.134l-3.03 2.66M160.06 160.404l-3.42 3.02M256.15 75.764l-3.43 3.02M187.62 142.674l-3.03 2.66M167.49 160.404l-3.43 3.02M263.57 75.764l-3.43 3.02M270.99 75.764l-3.42 3.02M174.91 160.404l-3.43 3.02M187.62 149.214l-3.03 2.66M278.3 75.864l-3.32 2.92M182.33 160.404l-3.43 3.02M187.62 155.744l-3.03 2.67M189.75 160.404l-3.43 3.02M194.12 163.094l-.37.33M236.74 138.634l-3.02 2.66M236.74 145.174l-3.02 2.66M226.86 160.404l-1.3 1.15M236.74 151.704l-3.02 2.66M236.74 158.244l-5.88 5.18M241.71 160.404l-3.43 3.02M249.13 160.404l-3.43 3.02M256.55 160.404l-3.42 3.02M263.98 160.404l-3.43 3.02M114.19 298.894l-5.5 4.85M271.4 160.404l-3.43 3.02M278.3 160.864l-2.91 2.56M121.61 298.894l-12.43 10.95M129.03 298.894l-12.43 10.95M136.45 298.894l-12.43 10.95M143.88 298.894l-12.43 10.95M151.3 298.894l-12.43 10.95M158.72 298.894l-12.43 10.95M166.14 298.894l-12.43 10.95M173.56 298.894l-12.43 10.95M180.99 298.894l-12.43 10.95M188.41 298.894l-12.43 10.95M195.83 298.894l-12.43 10.95M203.26 298.894l-12.43 10.95M210.67 298.894l-12.43 10.95M218.1 298.894l-12.43 10.95M225.52 298.894l-12.43 10.95M232.94 298.894l-12.43 10.95M265.9 276.404l-1.77 1.56M240.37 298.894l-12.43 10.95M267.16 281.834l-3.03 2.67M273.32 276.404l-3.44 3.03M247.79 298.894l-12.43 10.95M278.3 278.554l-.99.88M255.22 298.894l-12.44 10.95M267.16 288.374l-3.03 2.67M267.16 294.904l-3.03 2.67M262.63 298.894l-12.43 10.95M270.06 298.894l-12.44 10.95M277.48 298.894l-12.43 10.95M278.3 304.704l-5.83 5.14"/></g><path d="M278.134.501v10.958h-12.847v12.092h12.847v3.023h-15.87V11.458h-74.817v64.237h32.023v1.511h.454v1.512h-32.477v17.937h-1.512v-.453h-1.511V11.458h-75.9V.501h169.61zm-51.66 159.836H233.546v-22.672h3.023v22.672h41.565v3.023H226.897h0v0h-1.058v-1.511h-.454v-1.512h1.089zm-39.027-30.429v30.429h6.953v1.512h-.453v1.511H65.586v-3.023h118.838V128.85h1.511v-.453h1.512v1.511h0zm68.015 179.874H108.524v-10.958h155.44v-22.483h14.17v3.023h-11.147v19.46h11.147v10.958h-22.672 0zm-6.821-234.086h29.493v3.023H247.13v-1.512h.453v-1.511h1.058z" fill-rule="evenodd" clip-rule="evenodd" fill="none" stroke="#000" stroke-linecap="round" stroke-linejoin="round" stroke-miterlimit="22.926"/></g><g id="sizes"><path d="M7.073 186.607l-.727-.348a2.857 2.857 0 01-1.168-1.008c-.294-.439-.48-.97-.559-1.59h1.625c.047.323.148.589.305.797.156.209.358.363.605.465s.538.152.871.152c.526 0 .935-.141 1.227-.422s.438-.677.438-1.188v-.344c0-.567-.138-1.006-.414-1.316-.276-.31-.667-.465-1.172-.465h-.805v-1.516h.805c.442 0 .786-.133 1.031-.398s.367-.641.367-1.125v-.352c0-.447-.129-.794-.387-1.039-.258-.244-.624-.367-1.098-.367-.271 0-.513.051-.727.152s-.395.258-.543.469-.257.476-.324.793H4.807c.104-.619.301-1.15.59-1.594a2.893 2.893 0 011.098-1.008c.442-.229.95-.344 1.523-.344.979 0 1.737.258 2.273.773s.805 1.242.805 2.18v.188c0 .568-.153 1.063-.461 1.484s-.742.729-1.305.922c.62.136 1.101.44 1.441.914.341.475.512 1.078.512 1.813v.188c0 .662-.128 1.227-.383 1.695s-.626.826-1.113 1.07c-.487.245-1.074.367-1.762.367l-.952.002zM13.393 184.896h1.594v1.594l-1.594 1.578v-3.172zM18.69 186.216c-.521-.26-.923-.629-1.207-1.105s-.426-1.029-.426-1.66v-.188c0-.567.142-1.102.426-1.602s.663-.877 1.137-1.133c-.401-.219-.723-.535-.965-.949s-.363-.85-.363-1.309v-.273c0-.594.133-1.115.398-1.566.266-.45.641-.799 1.125-1.047.484-.247 1.047-.371 1.688-.371s1.203.124 1.688.371c.484.248.859.597 1.125 1.047.266.451.398.973.398 1.566v.273c0 .469-.124.909-.371 1.32a2.465 2.465 0 01-.98.938c.479.261.863.64 1.152 1.137a3.13 3.13 0 01.434 1.598v.188c0 .631-.142 1.184-.426 1.66s-.687.846-1.207 1.105c-.521.261-1.125.391-1.813.391s-1.293-.13-1.813-.391zm2.789-1.359c.281-.146.499-.35.652-.613.153-.263.23-.566.23-.91v-.109c0-.349-.077-.654-.23-.918a1.576 1.576 0 00-.652-.613c-.281-.146-.606-.219-.977-.219s-.695.073-.977.219c-.281.146-.499.352-.652.617s-.23.573-.23.922v.117c0 .344.077.646.23.906.153.261.371.463.652.605.281.144.606.215.977.215s.696-.072.977-.219zm-.133-5.121c.245-.138.435-.334.57-.59.136-.255.203-.549.203-.883v-.109c0-.317-.067-.599-.203-.844-.136-.244-.325-.434-.57-.566s-.526-.199-.844-.199-.599.066-.844.199-.435.322-.57.566a1.726 1.726 0 00-.203.852v.117c0 .328.067.619.203.871.136.253.325.448.57.586.245.139.526.207.844.207s.599-.068.844-.207zM72.691 133.591h-1.594v-9.625l-1.617.992v-1.648l1.617-1.078h1.594v11.359zM75.097 132.208l3.961-5.281c.229-.302.407-.616.535-.941.127-.325.191-.629.191-.91v-.016c0-.453-.133-.805-.398-1.055s-.644-.375-1.133-.375c-.464 0-.839.137-1.125.41-.287.273-.461.66-.523 1.16v.008h-1.648v-.008c.094-.651.285-1.207.574-1.668s.662-.813 1.121-1.055c.458-.242.986-.363 1.586-.363.677 0 1.255.116 1.734.348.479.232.844.569 1.094 1.012.25.443.375.977.375 1.602v.008c0 .401-.084.82-.25 1.258a5.417 5.417 0 01-.695 1.266l-3.289 4.469h4.297v1.516h-6.406v-1.385zM83.378 131.997h1.594v1.594l-1.594 1.578v-3.172zM88.804 133.372a2.75 2.75 0 01-1.086-.977c-.279-.427-.465-.94-.559-1.539v-.008h1.594v.008c.057.417.224.741.5.973.275.232.635.348 1.078.348.51 0 .904-.17 1.184-.512.278-.341.418-.821.418-1.441v-.953c0-.614-.14-1.092-.418-1.434-.279-.341-.674-.512-1.184-.512-.276 0-.542.078-.797.234a2.225 2.225 0 00-.672.656h-1.453v-5.984h5.789v1.516h-4.195v2.555a2.262 2.262 0 011.414-.508c.656 0 1.217.136 1.684.406.466.271.82.667 1.063 1.188.242.521.363 1.148.363 1.883v.953c0 .734-.125 1.362-.375 1.883-.25.521-.615.918-1.094 1.191-.479.273-1.055.41-1.727.41-.573 0-1.082-.112-1.527-.336z"/><g><path d="M251.667 90.946l3.813-8.227h1.641l-3.719 8.133h5.57v1.477h-7.305v-1.383zm4.899-3.555h1.555v6.688h-1.555v-6.688zM260.769 92.477h1.594v1.594l-1.594 1.578v-3.172zM266.066 93.797c-.521-.26-.923-.629-1.207-1.105s-.426-1.03-.426-1.66v-.188c0-.567.142-1.102.426-1.602s.663-.877 1.137-1.133c-.401-.219-.723-.535-.965-.949s-.363-.85-.363-1.309v-.273c0-.594.133-1.116.398-1.566.266-.45.641-.799 1.125-1.047.484-.247 1.047-.371 1.688-.371s1.203.124 1.688.371c.484.248.859.597 1.125 1.047.266.451.398.973.398 1.566v.273c0 .469-.124.909-.371 1.32a2.472 2.472 0 01-.98.938c.479.261.863.64 1.152 1.137a3.13 3.13 0 01.434 1.598v.188c0 .63-.142 1.184-.426 1.66s-.687.845-1.207 1.105c-.521.261-1.125.391-1.813.391s-1.293-.13-1.813-.391zm2.789-1.359c.281-.146.499-.35.652-.613.153-.263.23-.566.23-.91v-.109c0-.349-.077-.655-.23-.918a1.576 1.576 0 00-.652-.613c-.281-.146-.606-.219-.977-.219s-.695.073-.977.219c-.281.146-.499.352-.652.617s-.23.573-.23.922v.117c0 .344.077.646.23.906.153.261.371.462.652.605.281.144.606.215.977.215s.696-.073.977-.219zm-.133-5.121c.245-.138.435-.334.57-.59.136-.255.203-.549.203-.883v-.109c0-.317-.067-.599-.203-.844s-.325-.434-.57-.566-.526-.199-.844-.199-.599.066-.844.199-.435.322-.57.566a1.726 1.726 0 00-.203.852v.117c0 .328.067.619.203.871.136.253.325.448.57.586.245.138.526.207.844.207s.599-.069.844-.207z"/></g><g><path d="M235.14 65.355l-.727-.348a2.857 2.857 0 01-1.168-1.008c-.294-.44-.48-.97-.559-1.59h1.625c.047.323.148.589.305.797.156.208.358.363.605.465s.538.152.871.152c.526 0 .935-.141 1.227-.422s.438-.677.438-1.188v-.344c0-.567-.138-1.006-.414-1.316-.276-.31-.667-.465-1.172-.465h-.805v-1.516h.805c.442 0 .786-.133 1.031-.398s.367-.641.367-1.125v-.352c0-.448-.129-.794-.387-1.039-.258-.245-.624-.367-1.098-.367-.271 0-.513.051-.727.152s-.395.258-.543.469-.257.476-.324.793h-1.617c.104-.62.301-1.151.59-1.594a2.893 2.893 0 011.098-1.008c.442-.229.95-.344 1.523-.344.979 0 1.737.258 2.273.773s.805 1.242.805 2.18v.188c0 .568-.153 1.063-.461 1.484s-.742.729-1.305.922c.62.136 1.101.44 1.441.914.341.474.512 1.078.512 1.813v.188c0 .662-.128 1.227-.383 1.695a2.52 2.52 0 01-1.113 1.07c-.487.245-1.074.367-1.762.367l-.951.002zM241.46 63.644h1.594v1.594l-1.594 1.578v-3.172zM246.757 64.964a2.855 2.855 0 01-1.207-1.105c-.284-.477-.426-1.03-.426-1.66v-.188c0-.567.142-1.102.426-1.602s.663-.877 1.137-1.133c-.401-.219-.723-.535-.965-.949s-.363-.85-.363-1.309v-.273c0-.594.133-1.116.398-1.566.266-.45.641-.799 1.125-1.047.484-.247 1.047-.371 1.688-.371s1.203.124 1.688.371c.484.248.859.597 1.125 1.047.266.451.398.973.398 1.566v.273c0 .469-.124.909-.371 1.32a2.472 2.472 0 01-.98.938c.479.261.863.64 1.152 1.137a3.13 3.13 0 01.434 1.598v.188c0 .63-.142 1.184-.426 1.66a2.854 2.854 0 01-1.207 1.105c-.521.261-1.125.391-1.813.391s-1.292-.13-1.813-.391zm2.789-1.359c.281-.146.499-.35.652-.613.153-.263.23-.566.23-.91v-.109c0-.349-.077-.655-.23-.918a1.576 1.576 0 00-.652-.613c-.281-.146-.606-.219-.977-.219s-.695.073-.977.219c-.281.146-.499.352-.652.617s-.23.573-.23.922v.117c0 .344.077.646.23.906.153.261.371.462.652.605.281.144.606.215.977.215s.696-.073.977-.219zm-.133-5.121c.245-.138.435-.334.57-.59.136-.255.203-.549.203-.883v-.109c0-.317-.067-.599-.203-.844s-.325-.434-.57-.566-.526-.199-.844-.199-.599.066-.844.199-.435.322-.57.566a1.726 1.726 0 00-.203.852v.117c0 .328.067.619.203.871.136.253.325.448.57.586.245.138.526.207.844.207s.599-.069.844-.207z"/></g><g><path d="M147.798 232.839h-1.594v-9.625l-1.617.992v-1.648l1.617-1.078h1.594v11.359zM150.204 231.456l3.961-5.281c.229-.302.407-.616.535-.941.127-.325.191-.629.191-.91v-.016c0-.453-.133-.805-.398-1.055s-.644-.375-1.133-.375c-.464 0-.839.137-1.125.41-.287.273-.461.66-.523 1.16v.008h-1.648v-.008c.094-.651.285-1.207.574-1.668s.662-.813 1.121-1.055c.458-.242.986-.363 1.586-.363.677 0 1.255.116 1.734.348.479.231.844.569 1.094 1.012s.375.977.375 1.602v.008c0 .401-.084.82-.25 1.258a5.417 5.417 0 01-.695 1.266l-3.289 4.469h4.297v1.516h-6.406v-1.385zM158.486 231.245h1.594v1.594l-1.594 1.578v-3.172zM163.783 232.565a2.855 2.855 0 01-1.207-1.105c-.284-.477-.426-1.03-.426-1.66v-.188c0-.567.142-1.102.426-1.602.283-.5.662-.878 1.137-1.133-.401-.219-.723-.535-.965-.949s-.363-.851-.363-1.309v-.273c0-.594.133-1.116.398-1.566s.641-.8 1.125-1.047 1.047-.371 1.688-.371 1.203.124 1.688.371.859.597 1.125 1.047.398.973.398 1.566v.273c0 .469-.124.909-.371 1.32a2.485 2.485 0 01-.98.938c.479.261.863.64 1.152 1.137s.434 1.03.434 1.598v.188c0 .63-.143 1.184-.426 1.66a2.854 2.854 0 01-1.207 1.105c-.521.261-1.125.391-1.813.391s-1.293-.13-1.813-.391zm2.789-1.359c.281-.146.498-.351.652-.613.153-.263.23-.566.23-.91v-.109c0-.349-.077-.655-.23-.918-.154-.263-.371-.468-.652-.613s-.607-.219-.977-.219-.695.073-.977.219-.499.352-.652.617c-.154.266-.23.573-.23.922v.117c0 .344.076.646.23.906.153.261.371.462.652.605s.606.215.977.215c.369-.001.695-.074.977-.219zm-.133-5.121c.244-.138.435-.335.57-.59.135-.255.203-.55.203-.883v-.109c0-.317-.068-.599-.203-.844a1.406 1.406 0 00-.57-.566 1.74 1.74 0 00-.844-.199c-.318 0-.6.066-.844.199a1.394 1.394 0 00-.57.566 1.724 1.724 0 00-.203.852v.117c0 .328.067.618.203.871.135.253.325.448.57.586.244.138.525.207.844.207.317 0 .599-.07.844-.207z"/></g></g></svg>