<svg version="1.1" id="_x33_46" xmlns="http://www.w3.org/2000/svg" x="0" y="0" viewBox="0 0 617.577 352.104" xml:space="preserve"><style>.st0,.st1{fill-rule:evenodd;clip-rule:evenodd}.st0{fill:#fff}.st1{stroke:#999;stroke-width:.4}.st1,.st2,.st4{fill:none;stroke-linecap:round;stroke-linejoin:round;stroke-miterlimit:3}.st2{fill-rule:evenodd;clip-rule:evenodd;stroke:#999}.st4{stroke:#000}.st4,.st5,.st7,.st8{fill-rule:evenodd;clip-rule:evenodd}.st7,.st8{fill:none;stroke-miterlimit:22.9256}.st7{stroke-linecap:round;stroke-linejoin:round;stroke:#000}.st8{stroke:#666;stroke-width:.6}</style><path class="st0" d="M41.759.409v202.584H.509v104.875h41.25v28.062h575.125V.409z" id="fon_1_"/><g id="mebel"><g id="mebel_3_"><path class="st1" d="M594.474 285.22l2.423-2.423m-9.369 2.423l9.369-9.369m-16.315 9.369l11.574-11.574m4.552-4.553l.189-.189m-23.263 16.316l10.807-10.807m11.936-11.936l.52-.52m-30.209 23.263l12.061-12.061m11.346-11.346l6.803-6.803m-37.158 30.21l15.992-15.992m7.989-7.989l10.782-10.782m-41.71 34.763l34.763-34.763m-41.709 34.763l35.937-35.936M538.9 285.22l42.884-42.884m-49.123 42.175l49.122-49.122m14.962-14.962l.152-.152m-64.236 57.289l49.122-49.122m-49.122 42.175l49.122-49.122m-49.122 42.175l43.443-43.443m-43.443 36.496l36.495-36.495m-36.495 29.548l29.549-29.549m-29.549 22.603l22.602-22.603m-22.602 15.656l15.655-15.655m-15.655 8.708l8.708-8.709m-8.708 1.762l1.761-1.761m47.361 3.485l-3.485-3.485m3.485 10.432l-10.432-10.432m25.546 32.492l-2.264-2.264m-12.85-12.85l-17.379-17.379m32.493 39.44l-9.211-9.211m-5.903-5.902l-24.327-24.326m39.441 46.386l-.189-.189m-4.376-4.376l-41.822-41.822m46.387 53.334l-.377-.377m-11.914-11.914l-41.042-41.042m53.333 60.28l-6.66-6.66m-11.381-11.38l-42.241-42.24m58.047 64.992l-10.788-10.788m-8.123-8.123l-43.09-43.089m55.054 62l-55.054-55.054m48.107 55.054l-48.107-48.106m41.16 48.106l-41.16-41.16m34.213 41.16l-34.212-34.212m27.265 34.212l-27.266-27.266m20.319 27.266l-20.318-20.319m13.371 20.319l-13.372-13.372m6.425 13.372l-6.424-6.424M415.192 311.671l2.599-2.599m-9.546 2.599l9.394-9.394m-16.341 9.394l8.574-8.574m-15.521 8.574l8.36-8.36m12.027-12.027l3.053-3.053m-30.387 23.439l10.762-10.762m10.289-10.287l9.336-9.336m-37.334 30.385l16.441-16.441m4.206-4.206l16.686-16.686m-44.28 37.333l44.28-44.279m-51.226 44.279l47.233-47.232m-54.386 47.439l47.439-47.439m-47.439 40.492l40.492-40.492m-40.492 33.545l33.545-33.545m-33.545 26.598l26.598-26.598m-26.598 19.651l19.651-19.651m-19.651 12.704l12.704-12.704m-12.704 5.757l5.757-5.757m52.623 3.69l-3.691-3.69m3.691 10.637l-10.638-10.637m10.638 17.584l-17.584-17.584m17.584 24.531l-24.531-24.531m19.714 26.66l-26.661-26.66m31.478 38.425l-.545-.545m-11.967-11.967l-25.913-25.913m38.425 45.371l-6.828-6.828m-11.293-11.293l-27.251-27.25m40.286 47.233l-8.131-8.131m-7.787-7.787l-31.315-31.315m40.285 47.233l-46.347-46.347m39.401 46.347L359.41 272.27m32.455 39.401l-32.454-32.454m25.506 32.453l-25.507-25.506m18.56 25.506l-18.559-18.559m11.612 18.559l-11.612-11.612m4.665 11.612l-4.665-4.665M222.006 319.361h.058m-.055-11.336h21.811m11.264 0h13.626m-46.697-11.336h20.944m12.991 0h12.766m-46.697-11.336h46.701m-76.892-11.336h76.895m-76.891-11.336h76.895m-76.892-11.336h42.89m17.086 38.945v-32.655m-22.672 53.28v-68.393m-22.672 40.294v-40.294"/><path class="st2" d="M235.29 242.522h32.875m0 0l.4.166m0 0l.166.4m0 0v13.982m0 0l-.166.4m0 0l-.4.166m0 0H235.29m0 0l-.401-.166m0 0l-.165-.4m0 0v-13.982m0 0l.165-.4m0 0l.401-.166M236.424 246.678h14.85m.907 0h14.851M267.597 247.245v8.691M267.031 256.502h-30.607M235.857 255.936v-8.691M267.031 246.678c.313 0 .566.254.566.567M267.597 255.936a.565.565 0 01-.566.566M236.424 256.502a.566.566 0 01-.567-.566M235.857 247.245c0-.313.254-.567.567-.567M252.483 249.666a.757.757 0 01-.302.605v-1.21a.757.757 0 01.302.605zm-1.208.606a.756.756 0 010-1.21v1.21zM252.181 243.051h-.907m0 0v7.748m0 0l.256.301m0 0h.395m0 0l.256-.301m0 0v-7.748M250.971 243.051h1.512m0 0v-.264m0 0h-1.512m0 0v.264M250.593 242.786h2.268m0 0v-.265m0 .001h-2.268m0 0v.265M248.459 244.411v-1.625m0 0h.095m0 0v-.132m0 0h.283m0 0v-.132m0 0h-1.889m0 0v.132m0 0h.283m0 0v.132m0 0h.095m0 0v1.625m0 0h.321m0 0v.416m0 0h-1.077m0 0v.491m0 0h2.645m0 0v-.491m0 0h-1.077m0 0v-.416m0 0h.321M254.996 244.411v-1.625m0 0h-.094m0 0v-.132m0 0h-.284m0 0v-.132m0 0h1.89m0 0v.132m0 0h-.284m0 0v.132m0 0h-.094m0 0v1.625m0 0h-.322m0 0v.416m0 0h1.078m0 0v.491m0 0h-2.646m0 0v-.491m0 0h1.077m0 0v-.416m0 0h-.321M247.647 244.826l.072.072M248.138 244.826l-.072.072M247.647 244.411h.491M247.325 242.786h1.133M248.554 242.654h-1.322M255.808 244.826l-.072.072M255.317 244.826l.072.072M255.808 244.411h-.491M256.129 242.786h-1.133M254.902 242.654h1.322M248.138 245.072a.246.246 0 11-.491-.001.246.246 0 01.491.001zM255.808 245.072a.246.246 0 11-.491-.001.246.246 0 01.491.001zM255.854 295.923l-.469-1.645m0 0l-.718-1.551m0 0l-.968-1.231m0 0l-1.248-.942m0 0l-1.448-.594m0 0l-1.551-.206m0 0l-1.551.206m0 0l-1.447.594m0 0l-1.249.942m0 0l-.967 1.231m0 0l-.719 1.551m0 0l-.469 1.645m0 0l-.207 1.698m0 0l.059 1.709m0 0l1.223 11.585m0 0h10.654m0 0l1.223-11.585m0 0l.06-1.709m0 0l-.208-1.698M245.336 305.194h4.116M249.452 305.194h4.118M246.389 290.927a5.742 5.742 0 013.063-.886M243.141 297.756c-.165-2.591 1.031-5.106 3.248-6.83M245.336 305.194c-1.505-2.253-2.266-4.828-2.195-7.437M255.764 297.756c.071 2.609-.689 5.185-2.195 7.437M252.516 290.927c2.217 1.723 3.413 4.238 3.248 6.83M249.452 290.04a5.743 5.743 0 013.064.886M244.804 310.726h9.296v.189h-9.296zM244.805 310.915h9.295m0 0v-.189m0 0h-9.295m0 0v.189M258.899 310.915h-18.894M258.899 315.449h-18.894M258.899 310.915v4.534M240.006 310.915v4.534M191.788 282.811l30.229.01M222.017 282.821l-.014 44.21M222.004 327.031l-30.229-.01M199.344 289.426a.946.946 0 11-1.891-.001.946.946 0 011.891.001zM204.764 304.921l.373-1.396m0 0l.793-1.209m0 0l1.133-.898m0 0l1.358-.495m.001 0l1.445-.043m-.001 0l1.384.414m.001 0l1.185.829m-.001 0l.863 1.159m0 0l.454 1.372m0 0v1.446m0 0l-.455 1.372m0 0l-.864 1.158m0 0l-1.185.829m.001 0l-1.385.413m0 0l-1.445-.044m-.001 0l-1.358-.496m0 0l-1.132-.898m0 0l-.792-1.209m0 0l-.372-1.397m0 0l-5.538-.002m.001 0l.108.456m0 0l.037.489m-.001 0l-.037.489m.001 0l-.109.455m-.001 0l-.172.392m0 0l-.224.3m0 0l-.262.188m0 0l-.28.065m0 0h-.403m0 0l-.12-.02m0 0l-.277-.063m0 0l-.104-.055m0 0l-.251-.182m0 0l-.07-.077m0 0l-.205-.274m0 0l-.157-.357m0 0l-.051-.196m.001 0l-.06-.25m-.001 0l-.688-.019m0 0l-.796-.01m.001 0v1.728m0 0h-.435m-.001 0l-.001 2.872m.001 0l-.058.16m-.001 0l-.149.083m0 0l-.166-.034m.001 0l-.106-.132m-.001 0l-.157-.486m0 0l-.315-.726m.001 0l-.573-1.008m-.001 0l-.258-.729m0 0h-.125m0 0v.605m0 0l-.982-.001m0 0l.001-2.569m0 0h.877m0 0l.01-.023m0 0l.028-.039m0 0l.034-.033m0 0l.04-.026m0 0l.673-.277m0 0v-.698m0 0h-1.36m0 0l-.001 1.058m0 0h-.301m0 0v-3.023m0 0h.302m0 0v1.058m0 0l1.361.001m0 0v-1.436m0 0h.151m0 0v-.416m0 0h-.302m0 0v.151m0 0h-.529m0 0v.604m0 0h-.983m0 0l.001-2.569m0 0h.982m0 0v.605m0 0h.529m0 0v.151m0 0h.303m0 0v-.151m0 0h1.511m0 0l-.001 2.57m0 0l2.154.001m0 0v.023m0 0v.059m0 0v.093m0 0v.124m0 0v.149m0 0v.043m0 0l7.504.002M193.443 307.26v-.21m0 0l-.341.14m0 0l-.053.326m0 0l.002.008m0 0h.241m0 0v.152m0 0h.302m0 0v-.416m0 0h-.151M193.594 308.734h-.241m0 0l.24.677m0 0l.563.988m0 0l.023.052m0 0v-1.566m0 0h-.585m0 0v-.151M192.764 302.877h.529M192.765 302.197h.529M192.762 308.534v.351M193.292 307.676v.189M193.292 307.865v.679M193.292 308.545v.014M193.116 307.865h.176M193.287 308.545h.004M193.594 308.734v-1.058M195.106 306.382v-.558M194.179 308.885h.491M195.673 306.316v-.491M194.658 311.681l.012.076M192.555 307.531l.002-.046M192.587 307.701l-.032-.17M192.639 306.986l.01-.046M192.649 306.94l.009-.02M192.887 308.885l-.161-.453M192.726 308.432l-.139-.731M193.06 307.576l-.011-.061M194.658 311.681l-.167-.512M194.491 311.169l-.312-.718M192.744 308.474h.108a.108.108 0 10-.216 0 .108.108 0 00.216 0h-.108zM192.557 307.484l.082-.498M197.161 305.827l-.002-.002M196.631 305.825l-.002.002M193.991 307.26h-.128M193.745 307.26h-.103M193.863 307.26h-.118M193.443 307.05v-.523M193.199 308.298l-.139-.723M193.353 308.734l-.154-.436M194.077 306.581v-.002M194.033 306.671l.044-.091M194.017 306.769l.015-.098M194.033 306.867l-.015-.098M194.077 306.958l-.045-.091M194.077 306.958h.108a.108.108 0 10-.216 0 .108.108 0 00.216 0h-.108zM196.573 307.115l-.026-.345M196.547 306.77l.026-.345M196.59 307.186l-.017-.071M196.65 306.104l.051-.196M196.574 306.425l.076-.321M194.244 307.138l.062.009M196.701 305.908l.037-.083M196.59 306.354l-.688.019M194.306 306.392l-.062.009M194.244 306.4l-.058.026M194.186 306.427l-.05.042M194.137 306.469l-.038.055M194.098 306.523l-.021.056M194.077 306.581l-.002.006M194.075 306.587l-.008.068M194.066 306.656v.227M194.066 306.882l.008.069M194.075 306.951l.002.007M194.077 306.958l.021.057M194.098 307.015l.038.055M194.137 307.07l.05.042M194.186 307.111l.058.027M195.902 306.373l-1.596.019M195.106 307.157l-.8-.01M194.804 307.261v-.108M194.804 306.386v-.561M204.764 304.921l5.343.001M204.764 305.828l5.343.001M210.108 304.922v.907M192.765 301.857v1.36M193.294 302.008v1.058M193.596 302.008v1.058M193.595 303.482h1.209M194.804 307.261h-1.209M192.084 304.917v.907M193.444 304.917l3.816.001M199.226 305.826l-5.783-.002M194.805 303.482v1.436M195.107 304.427v.491M195.674 304.427v.491M195.106 306.316h1.493M207.442 304.922a1.89 1.89 0 110 .907M194.133 303.482a.34.34 0 11.589 0M196.745 86.651h4.157M201.658 85.895V45.841M200.902 45.085h-4.156M195.99 45.841v40.054M196.745 45.085h-32.874M163.871 45.085v2.645M163.871 54.859v2.267M165.005 86.651h29.852M195.99 85.517V57.126M194.856 55.993h-29.852M163.871 57.126v28.391M165.005 46.597h29.852M195.99 47.73v7.129M194.856 55.993h-29.852M163.871 54.859V47.73M194.856 51.887h-29.852M201.658 85.895a.756.756 0 01-.756.756M200.902 45.085c.417 0 .756.339.756.756M195.99 45.841c0-.417.338-.756.756-.756M196.745 86.651a.757.757 0 01-.756-.756M195.99 85.517c0 .626-.507 1.134-1.133 1.134M194.856 55.993c.626 0 1.133.507 1.133 1.133M163.871 57.126c0-.626.507-1.133 1.133-1.133M165.005 86.651a1.134 1.134 0 01-1.133-1.134M194.856 46.597c.626 0 1.133.507 1.133 1.133M195.99 54.859c0 .626-.507 1.134-1.133 1.134M165.005 55.993a1.134 1.134 0 01-1.133-1.134M163.871 47.73c0-.626.507-1.133 1.133-1.133M195.99 50.753c0 .626-.507 1.134-1.133 1.134M165.005 51.887a1.134 1.134 0 01-1.133-1.134M163.871 45.085h-37.786M163.871 45.085v2.645M126.085 45.085v2.645M163.871 54.859v2.267M126.085 54.859v2.267M127.219 86.651h35.519M163.871 85.517V57.126M162.738 55.993h-35.519M126.085 57.126v28.391M127.219 46.597h35.519M163.871 47.73v7.129M162.738 55.993h-35.519M126.085 54.859V47.73M162.738 51.887h-35.519M163.871 85.517c0 .626-.508 1.134-1.134 1.134M162.738 55.993c.626 0 1.134.507 1.134 1.133M126.085 57.126c0-.626.507-1.133 1.133-1.133M127.219 86.651a1.134 1.134 0 01-1.133-1.134M162.738 46.597c.626 0 1.134.507 1.134 1.133M163.871 54.859c0 .626-.508 1.134-1.134 1.134M127.219 55.993a1.134 1.134 0 01-1.133-1.134M126.085 47.73c0-.626.507-1.133 1.133-1.133M163.871 50.753c0 .626-.508 1.134-1.134 1.134M127.219 51.887a1.134 1.134 0 01-1.133-1.134M93.211 86.651h-4.156M88.299 85.895V45.841M89.054 45.085h4.156M93.966 45.841v40.054M93.211 45.085h32.875M126.085 45.085v2.645M126.085 54.859v2.267M124.951 86.651H95.1M93.966 85.517V57.126M95.1 55.993h29.851M126.085 57.126v28.391M124.951 46.597H95.1M93.966 47.73v7.129M95.1 55.993h29.851M126.085 54.859V47.73M95.1 51.887h29.851M89.054 86.651a.757.757 0 01-.756-.756M88.299 45.841c0-.417.338-.756.756-.756M93.211 45.085c.417 0 .756.339.756.756M93.966 85.895a.756.756 0 01-.756.756M95.1 86.651a1.134 1.134 0 01-1.134-1.134M93.966 57.126c0-.626.508-1.133 1.134-1.133M124.951 55.993c.626 0 1.134.507 1.134 1.133M126.085 85.517c0 .626-.508 1.134-1.134 1.134M93.966 47.73c0-.626.508-1.133 1.134-1.133M95.1 55.993a1.134 1.134 0 01-1.134-1.134M126.085 54.859c0 .626-.508 1.134-1.134 1.134M124.951 46.597c.626 0 1.134.507 1.134 1.133M95.1 51.887a1.134 1.134 0 01-1.134-1.134M126.085 50.753c0 .626-.508 1.134-1.134 1.134M165.005 101.765h29.849M195.987 100.631V87.784M194.853 86.651h-29.849M163.871 87.784v12.847M195.987 100.631c0 .626-.507 1.134-1.134 1.134M194.853 86.651c.626 0 1.134.507 1.134 1.133M163.871 87.784c0-.626.507-1.133 1.133-1.133M165.005 101.765a1.134 1.134 0 01-1.133-1.134M402.799 290.532l-1.645.469m0 0l-1.552.718m0 0l-1.23.968m0 0l-.943 1.248m0 0l-.593 1.448m0 0l-.206 1.551m0 0l.206 1.551m0 0l.593 1.447m0 0l.943 1.249m0 0l1.23.967m0 0l1.552.719m0 0l1.645.469m0 0l1.697.207m0 0l1.71-.059m0 0l11.585-1.223m0 0v-10.654m0 0l-11.585-1.223m0 0l-1.71-.06m0 0l-1.697.208M412.069 301.05v-4.116M412.069 296.934v-4.117M397.803 299.997a5.743 5.743 0 01-.887-3.063M404.631 303.245c-2.591.165-5.106-1.031-6.829-3.248M412.069 301.05c-2.253 1.506-4.828 2.266-7.437 2.195M404.631 290.622c2.609-.07 5.185.689 7.437 2.195M397.803 293.87c1.723-2.217 4.238-3.414 6.829-3.248M396.916 296.934a5.732 5.732 0 01.887-3.063M417.601 292.286h.189v9.296h-.189zM417.791 301.581v-9.295m0 0h-.189m0 0v9.295m0 0h.189M417.791 287.488v18.893M422.325 287.488v18.893M417.791 287.488h4.534M417.791 306.381h4.534M581.717 261.437l-1.645.468m-.001 0l-1.551.719m.001 0l-1.23.967m0 0l-.943 1.249m-.001 0l-.594 1.448m.001 0l-.205 1.55m-.001 0l.205 1.552m.001 0l.594 1.447m-.001 0l.943 1.249m.001 0l1.23.967m0 0l1.551.719m-.001 0l1.645.468m.001 0l1.698.208m0 0l1.709-.059m0 0l11.585-1.223m-.001 0v-10.654m0 0l-11.585-1.223m.001 0l-1.709-.06m0 0l-1.698.208M590.987 271.955v-4.117M590.987 267.838v-4.116M576.721 270.902a5.752 5.752 0 01-.887-3.063M583.549 274.15c-2.591.165-5.106-1.031-6.829-3.249M590.987 271.955c-2.253 1.505-4.828 2.266-7.437 2.195M583.549 261.527c2.609-.07 5.185.69 7.437 2.195M576.721 264.775c1.723-2.217 4.238-3.413 6.829-3.248M575.834 267.838a5.743 5.743 0 01.887-3.063M596.519 263.191h.19v9.295h-.19zM596.709 272.486v-9.295m0 0h-.189m0 0v9.295m0 0h.189M596.709 258.392v18.893M601.243 258.392v18.893M596.709 258.392h4.534M596.709 277.285h4.534M596.897 220.794v29.096m0 0l-.166.401m0 0l-.4.166m0 0h-13.982m0 0l-.4-.166m0 0l-.166-.401m0 0v-29.096m0 0l.166-.4m0 0l.4-.166m0 0h13.982m0 0l.4.166m0 0l.166.4M592.741 221.928v12.961m0 .906v12.962M592.175 249.323h-8.691M582.917 248.757v-26.829M583.483 221.361h8.691M592.741 248.757a.566.566 0 01-.566.566M583.483 249.323a.566.566 0 01-.566-.566M582.917 221.928c0-.313.254-.567.566-.567M592.175 221.361c.312 0 .566.254.566.567M590.358 235.795a.755.755 0 01-1.21 0h1.21zm-1.21-.906a.757.757 0 011.21 0h-1.21zM596.368 235.796v-.907m0 0h-7.748m0 0l-.301.256m0 0v.395m0 0l.301.256m0 0h7.748M596.368 234.587v1.511m0 0h.265m0 0v-1.511m0 0h-.265M596.633 234.209v2.267m0 0h.265m0 0v-2.267m0 0h-.265M595.008 232.074h1.625m0 0v.095m0 0h.133m0 0v.283m0-.001h.132m0 0v-1.889m0 0h-.132m0 0v.283m0 .001h-.133m0 0v.095m0 0h-1.625m0 0v.321m0-.001h-.415m0 0v-1.077m0 .001h-.491m0 0v2.645m0 0h.491m0 0v-1.077m0-.001h.415m0 0v.321M595.008 238.611h1.625m0 0v-.094m0 0h.133m0 0v-.284m0 0h.132m0 0v1.89m0 0h-.132m0 0v-.284m0 0h-.133m0 0v-.094m0 0h-1.625m0 0v-.322m0 0h-.415m0 0v1.077m0 0h-.491m0 0v-2.645m0 0h.491m0 0v1.077m0 0h.415m0 0v-.321M594.592 231.261l-.072.072M594.592 231.752l-.072-.072M595.008 231.261v.491M596.633 230.94v1.133M596.765 232.168v-1.322M594.592 239.423l-.072-.072M594.592 238.932l-.072.072M595.008 239.423v-.491M596.633 239.744v-1.134M596.765 238.516v1.323M594.592 231.507a.246.246 0 11-.492 0 .246.246 0 01.492 0zM594.592 239.178a.246.246 0 11-.492 0 .246.246 0 01.492 0zM606.911 311.671h-74.25m0 0V285.22m0 0h74.25m0 0v26.451M598.249 287.336l1.074.08m0 0l1.042.239m0 0l.977.39m0 0l.884.529m0 0l.762.652m0 0l.619.755m0 0l.456.835m0 0l.279.891m0 0l.094.919m0 0v11.638m0 0l-.094.919m0 0l-.279.89m0 0l-.456.836m0 0l-.619.756m0 0l-.762.651m0 0l-.884.53m0 0l-.977.389m0 0l-1.042.239m0 0l-1.074.08m0 0H548.13m0 0l-2.257-.168m0 0l-2.187-.502m0 0l-2.053-.818m0 0l-1.856-1.111m0 0l-1.601-1.369m0 0L536.877 304m0 0l-.957-1.755m0 0l-.587-1.871m0 0l-.197-1.929m0 0l.197-1.929m0 0l.587-1.87m0 0l.957-1.755m0 0l1.299-1.587m0 0l1.601-1.369m0 0l1.856-1.111m0 0l2.053-.818m0 0l2.187-.501m0 0l2.257-.169m0 0h50.119M598.787 298.445a.945.945 0 11-1.89 0 .945.945 0 011.89 0zM389.072 326.785h-29.095m.001 0l-.401-.166m-.001 0l-.166-.401m.001 0v-13.981m0 0l.166-.401m-.001 0l.401-.165m.001 0h29.095m-.001 0l.401.165m0 0l.166.401m.001 0v13.981m0 0l-.166.401m-.001 0l-.401.166M387.939 322.628h-12.96m-.907 0h-12.961M360.544 322.062v-8.691M361.111 312.804h26.828M388.506 313.371v8.691M361.111 322.628a.566.566 0 01-.567-.566M360.544 313.371c0-.313.254-.567.567-.567M387.939 312.804c.313 0 .567.254.567.567M388.506 322.062a.566.566 0 01-.567.566M375.281 319.64a.754.754 0 01-.302.605v-1.209a.754.754 0 01.302.604zm-1.209.605a.754.754 0 010-1.21v1.21zM374.072 326.256h.907m0 0v-7.749m0 0l-.257-.3m0 0h-.394m0 0l-.256.3m0 0v7.749M373.769 326.255h1.512v.266h-1.512zM375.281 326.256h-1.512m0 0v.264m0 0h1.512m0 0v-.264M373.391 326.521h2.267v.264h-2.267zM375.658 326.52h-2.267m0 0v.265m0 0h2.267m0 0v-.265M377.794 324.896v1.625m0 0h-.095m0 0v.132m0 0h-.283m0 0v.132m0 0h1.889m0 0v-.132m0 0h-.283m0 0v-.132m0 0h-.094m0 0v-1.625m0 0h-.322m0 0v-.416m0 0h1.077m0 0v-.491m0 0h-2.645m0 0v.491m0 0h1.077m0 0v.416m0 0h-.321M371.257 324.896v1.625m0 0h.095m0 0v.132m0 0h.283m-.001 0v.132m0 0h-1.889m0 0v-.132m0 0h.283m.001 0v-.132m0 0h.095m0 0v-1.625m0 0h.321m0 0v-.416m0 0h-1.077m0 0v-.491m0 0h2.645m0 0v.491m0 0h-1.077m-.001 0v.416m0 0h.321M378.606 324.48l-.072-.072M378.115 324.48l.072-.072M378.606 324.896h-.491M378.927 326.52h-1.133M377.699 326.653h1.323M370.444 324.48l.072-.072M370.935 324.48l-.072-.072M370.444 324.896h.491M370.123 326.52h1.133M371.351 326.653h-1.323M378.606 324.235a.246.246 0 11-.491-.001.246.246 0 01.491.001zM370.935 324.235a.246.246 0 11-.491-.001.246.246 0 01.491.001zM389.639 311.671h21.917m.001 0v15.303m0 0H389.64m-.001 0v-15.303M330.315 126.518v19.271m0 0l.221.534m0 0l.534.221m0 0h17.382m0 0l.535-.221m0 0l.221-.534m0 0v-19.271m0 0l-.221-.534m0 0l-.535-.222m0 0H331.07m0 0l-.534.222m0 0l-.221.534M326.536 124.817v22.672M349.208 124.817v22.672M326.536 124.817h22.672M326.536 147.489h22.672M332.204 128.407V143.9M332.96 144.655h11.714M345.429 143.9v-7.002m0-1.489v-7.002M344.674 127.651H332.96M332.205 128.407h.108c0-.06-.048-.108-.108-.108s-.108.048-.108.108a.108.108 0 00.216 0h-.108zM332.96 144.655a.756.756 0 01-.756-.755M345.429 143.9a.755.755 0 01-.755.755M344.674 127.651c.417 0 .755.338.755.756M332.204 128.407c0-.417.338-.756.756-.756M340.597 135.813l-.24.1m0 0l-.1.241m.001 0l.101.24m-.001 0l.24.099m.001 0h7.476m-.001 0l.241-.099m0 0l.099-.241m0 0l-.099-.241m0 0l-.241-.099m0 0h-7.477M346.148 135.399v.415m0 0h1.927m0 0l.24.099m0 0l.1.24m0 0l-.1.241m0 0l-.24.1m0 0h-1.927m0 0v.414m0 0h2.456m0 0v-1.509m0 0h-2.456M344.787 135.409v.404m0 0h1.322m0 0v-.404m0 0h-1.322M344.787 136.897h1.322m0 0v-.404m0 0h-1.322m0 0v.404M326.536 102.145v22.672M349.208 102.145v22.672M326.536 102.145h22.672M326.536 124.817h22.672M328.615 63.604V85.52m0 0h18.515m0 0V63.604m0 0h-18.515M339.895 74.561h5.299M345.193 74.561v1.096M339.895 74.561v1.096M339.895 83.415h5.299M345.193 82.32v1.096M339.895 82.32v1.096M345.5 68.315a2.74 2.74 0 11-5.48 0 2.74 2.74 0 015.48 0zM338.489 69.587a3.968 3.968 0 11-7.935-.001 3.968 3.968 0 017.935.001z"/><path class="st2" d="M336.788 69.587a2.267 2.267 0 11-4.534 0 2.267 2.267 0 014.534 0zM345.22 78.989a2.645 2.645 0 11-5.29 0 2.645 2.645 0 015.29 0zM337.385 80.106a3.4 3.4 0 11-6.802 0 3.4 3.4 0 016.802 0zM326.536 46.978v55.167M349.208 46.978v55.167M326.536 46.978h22.672M326.536 102.145h22.672M326.536 147.489v22.672m0 0h22.672m0 0v-22.672m0 0h-22.672M341.651 158.825h-7.557M340.545 156.153l-5.344 5.344M337.872 155.046v7.558M335.201 156.153l5.343 5.344M326.536 46.978V24.306m0 0h22.672m0 0v22.672m0 0h-22.672M339.343 110.325a3.411 3.411 0 11-6.822 0 3.411 3.411 0 016.822 0z"/><path class="st2" d="M338.821 110.325a2.89 2.89 0 11-5.78 0 2.89 2.89 0 015.78 0zM337.679 116.633a2.58 2.58 0 11-5.16 0 2.58 2.58 0 015.16 0z"/><path class="st2" d="M336.545 116.633a1.445 1.445 0 11-2.89 0 1.445 1.445 0 012.89 0zM523.215 315.638a7.18 7.18 0 11-14.361-.001 7.18 7.18 0 0114.361.001zM79.792 316.418a3.778 3.778 0 11-7.557 0 3.778 3.778 0 017.557 0z"/><path class="st2" d="M77.147 316.418a1.134 1.134 0 11-2.267.001 1.134 1.134 0 012.267-.001zM168.59 316.418a3.778 3.778 0 11-7.557 0 3.778 3.778 0 017.557 0z"/><path class="st2" d="M165.945 316.418a1.134 1.134 0 11-2.267.001 1.134 1.134 0 012.267-.001zM478.225 42.155a3.78 3.78 0 11-7.558 0 3.78 3.78 0 017.558 0z"/><path class="st2" d="M475.579 42.155a1.134 1.134 0 11-2.267 0 1.134 1.134 0 012.267 0zM478.225 130.952a3.78 3.78 0 11-7.558 0 3.78 3.78 0 017.558 0z"/><path class="st2" d="M475.579 130.952a1.133 1.133 0 11-2.266 0 1.133 1.133 0 012.266 0zM500.14 42.155a3.78 3.78 0 11-7.558 0 3.78 3.78 0 017.558 0z"/><path class="st2" d="M497.495 42.155a1.134 1.134 0 11-2.267 0 1.134 1.134 0 012.267 0zM500.14 130.952a3.78 3.78 0 11-7.558 0 3.78 3.78 0 017.558 0z"/><path class="st2" d="M497.495 130.952a1.133 1.133 0 11-2.266 0 1.133 1.133 0 012.266 0zM294.427 239.499h-22.672m0 0v87.475m0 0h22.672m0 0v-87.475M282.713 325.936h.756m0 0v-86.437m0 0h-.756m0 0v86.437M292.434 246.085h-18.626m0 0v.756m0 0h18.626m0 0v-.756M292.434 248.09h-18.626m0 0v.756m0 0h18.626m0 0v-.756M292.434 250.095h-18.626m0 0v.756m0 0h18.626m0 0v-.756M292.434 252.1h-18.626m0 0v.755m0-.001h18.626m0 0v-.754M292.299 256.345l-18.491-2.241m-.001 0l-.091.75m0 0l18.491 2.241m.001 0l.091-.75M86.405 247.623h68.015m0 0v75.573m0 0H86.405m0 0v-75.573M88.294 245.734h64.237m0 0l.723.144m0 0l.613.409m0 0l.409.613m0 0l.144.723m0 0H86.405m0 0l.144-.723m0 0l.41-.613m0 0l.612-.409m0 0l.723-.144M86.405 326.974h68.015m0 0v-3.778m0 0H86.405m0 0v3.778M154.42 326.974H86.405m0 0v-1.889m0 0h68.015m0 0v1.889M156.309 326.974h17.004m0 0v-18.893m0 0h-17.004m0 0v18.893M84.515 326.974H67.511m0 0v-18.893m0 0h17.004m0 0v18.893M126.458 321.306h25.694m0 0l.268-.111m0 0l.11-.267m0 0v-12.469m0 0l-.11-.267m0 0l-.268-.111m0 0h-25.694m0 0l-.268.111m0 0l-.11.267m0 0v12.469m0 0l.11.267m0 0l.268.111M114.366 321.306H88.671m0 0l-.267-.111m0 0l-.111-.267m.001 0v-12.469m0 0l.111-.267m-.001 0l.267-.111m0 0h25.695m0 0l.267.111m0 0l.111.267m0 0v12.469m0 0l-.111.267m0 0l-.267.111M86.405 309.104h1.889M114.744 309.104h11.336M152.531 309.104h1.889M86.405 304.095h68.015m0 0v-18.686m0 0l-68.015 14.907m0 0v3.779M84.516 186.031v-15.115m0 0h94.466m0 0v15.115m0 0H84.516M155.403 181.15v1.02m0 0h-44.369m0 0v-1.02m0 0h44.369M145.942 182.17v.832m0 0l-.152.567m0 0l-.414.414m0 0l-.567.153m0 0h-22.7m0 0l-.566-.153m0 0l-.415-.414m0 0l-.152-.567m0 0v-.832m0 0h24.966M155.403 180.852v.298m0 0h-44.369m0 0v-.298m0 0h44.369M93.089 126.67v-18.893m0 0h37.903m0 0v18.893m0 0H93.089M67.512 198.878v22.672m0 0h86.908m0 0v-22.672m0 0H67.512M154.42 210.592v-.756m0 0H67.512m0 0v.756m0 0h86.908M74.098 200.872v18.626m0-.001h.755m0 0v-18.626m0 .001h-.755M76.103 200.872v18.626m0-.001h.756m0 0v-18.626m0 .001h-.756M78.108 200.872v18.626m0-.001h.755m0 0v-18.626m0 .001h-.755M80.112 200.872v18.626m0-.001h.756m0 0v-18.626m0 .001h-.756M84.358 201.007l-2.242 18.491m0 0l.751.091m0 0l2.241-18.491m0 0l-.75-.091M333.725 106.256v.963m0 0h-1.204m-.001 0v12.524m0 0h1.204m.001 0v.964M343.729 107.72v9.634m0 0h-.479m0 0v-.723m0 0h.238m0 0v-8.189m0 0h-.238m0 0v-.722m0 0h.479M343.25 107.72l-.103.047m-.103.047l-.103.048m-.103.046l-.104.047m-.102.048l-.104.047m-.103.047l-.103.047m-.103.048l-.103.047m-.103.047l-.103.047m-.103.047l-.103.047m-.103.047l-.103.047m-.103.048l-.103.047m-.104.047l-.103.047m-.103.047l-.103.047m-.103.048l-.103.047m-.103.047l-.103.047m-.103.047l-.104.047m-.102.048l-.104.046m-.103.048l-.103.047M343.25 117.354l-.103-.047m-.103-.048l-.103-.047m-.103-.046l-.104-.048m-.102-.047l-.104-.047m-.103-.047l-.103-.048m-.103-.047l-.103-.047m-.103-.047l-.103-.047m-.103-.047l-.103-.048m-.103-.046l-.103-.048m-.103-.047l-.103-.047m-.104-.047l-.103-.047m-.103-.048l-.103-.047m-.103-.047l-.103-.047m-.103-.047l-.103-.047m-.103-.047l-.104-.048m-.102-.047l-.104-.047m-.103-.047l-.103-.048M343.25 107.72v.078m0 .113v.114m0 .113v.113m0 .114v.077m0 0l-.051.042m-.088.072l-.089.071m-.087.072l-.089.071m-.087.072l-.089.071m-.087.071l-.088.072m-.088.071l-.088.072m-.089.071l-.087.072m-.088.071l-.088.072m-.089.071l-.087.071m-.088.072l-.088.071m-.089.072l-.088.071m-.088.072l-.087.071m-.089.071l-.088.072m-.087.071l-.088.072m-.088.071l-.089.072m-.088.071l-.088.072m-.088.071l-.088.072m-.088.071l-.087.071m-.088.072l-.089.071m-.088.072l-.088.071m-.087.072l-.089.071m-.088.071l-.088.072m-.087.071l-.052.042M343.25 117.354v-.078m0-.113v-.114m0-.113v-.113m0-.114v-.078m0 0l-.051-.042m-.088-.071l-.089-.071m-.087-.072l-.089-.071m-.087-.072l-.089-.071m-.087-.072l-.088-.071m-.088-.072l-.088-.071m-.089-.072l-.087-.071m-.088-.071l-.088-.072m-.089-.071l-.087-.072m-.088-.071l-.088-.072m-.089-.071l-.088-.071m-.088-.072l-.087-.071m-.089-.072l-.088-.071m-.087-.072l-.088-.071m-.088-.072l-.089-.071m-.088-.071l-.088-.072m-.088-.071l-.088-.072m-.088-.071l-.087-.072m-.088-.071l-.089-.071m-.088-.072l-.088-.071m-.087-.072l-.089-.072m-.088-.071l-.088-.072m-.087-.071l-.052-.041M403.431 120.561V52.546m0 0h75.572m0 0v68.015m0 0h-75.572M401.542 118.672V54.436m0 0l.144-.723m0 0l.409-.613m0 0l.614-.41m0 0l.722-.143m0 0v68.014m0 0l-.722-.143m0 0l-.614-.41m0 0l-.409-.613m0 0l-.144-.723M482.783 120.561V52.546m0 0h-3.779m0 0v68.015m0 0h3.779M482.783 52.546v68.015m0 0h-1.89m0 0V52.546m0 0h1.89M482.783 50.657V33.653m0 0h-18.894m0 0v17.004m0 0h18.894M482.783 122.451v17.004m0-.001h-18.894m0 0V122.45m0 .001h18.894M477.115 80.508V54.813m0 0l-.11-.267m0 0l-.268-.11m0 0h-12.47m0 0l-.266.11m0 0l-.112.267m0 0v25.695m0 0l.112.267m0 0l.266.111m0 0h12.47m0 0l.268-.111m0 0l.11-.267M477.115 92.599v25.695m0 0l-.11.267m0 0l-.268.111m0 0h-12.47m0 0l-.266-.111m0 0l-.112-.267m0 0V92.599m0 0l.112-.267m0 0l.266-.11m0 0h12.47m0 0l.268.11m0 0l.11.267M464.914 120.561v-1.889M464.914 92.222V80.886M464.914 54.435v-1.889M459.904 120.561V52.546m0 0h-18.686m0 0l14.907 68.015m0 0h3.779M606.911 217.205v-22.672m0 0h-70.472m0 0v22.672m0 0h70.472M536.439 205.869v.755m0 0h70.472m0 0v-.755m0 0h-70.472M600.324 215.59v-18.626m0 0h-.756m0 0v18.626m0 0h.756M598.319 215.59v-18.626m0 0h-.755m0 0v18.626m0 0h.755M596.315 215.59v-18.626m0 0h-.756m0 0v18.626m0 0h.756M594.31 215.59v-18.626m0 0h-.756m0 0v18.626m0 0h.756M590.064 215.454l2.241-18.491m0 0l-.75-.091m0 0l-2.241 18.491m0 0l.75.091M430.449 326.974h22.672m0 0v-62.536m0 0h-22.672m0 0v62.536M441.785 264.438h-.756m0 0v62.536m0 0h.756m0 0v-62.536M432.064 312.641h18.626m0 0v-.755m0 0h-18.626m0 0v.755M432.064 310.637h18.626m0 0v-.756m0 0h-18.626m0 0v.756M432.064 308.632h18.626m0 0v-.756m0 0h-18.626m0 0v.756M432.064 306.627h18.626m0 0v-.756m0 0h-18.626m0 0v.756M432.2 302.381l18.491 2.241m-.001 0l.091-.75m0 0l-18.492-2.241m0 0l-.09.75M565.157 120.561V52.546m0 0h-75.572m0 0v68.015m0 0h75.572M567.047 118.672V54.436m0 0l-.145-.723m0 0l-.409-.613m0 0l-.613-.41m0 0l-.723-.143m0 0v68.014m0 0l.723-.143m0 0l.613-.41m0 0l.409-.613m0 0l.145-.723M485.806 120.561V52.546m0 0h3.779m-.001 0v68.015m0 0h-3.779M485.806 50.657V33.653m0 0H504.7m-.001 0v17.004m0 0h-18.894M485.806 122.451v17.004m0-.001H504.7m-.001 0V122.45m0 .001h-18.894M491.473 80.508V54.813m0 0l.111-.267m.001 0l.267-.11m0 0h12.47m-.001 0l.267.11m0 0l.111.267m0 0v25.695m0 0l-.111.267m0 0l-.267.111m0 0h-12.47m.001 0l-.267-.111m0 0l-.111-.267M491.473 92.599v25.695m0 0l.111.267m.001 0l.267.111m0 0h12.47m-.001 0l.267-.111m0 0l.111-.267m0 0V92.599m0 0l-.111-.267m0 0l-.267-.11m0 0h-12.47m.001 0l-.267.11m0 0l-.111.267M503.675 120.561v-1.889M503.675 92.222V80.886M503.675 54.435v-1.889M508.685 120.561V52.546m0 0h18.686m0 0l-14.908 68.015m0 0h-3.778M510.027 315.122l1.232.449m0 0h1.313m0 0l1.233-.449m0 0l1.473.342m0 0h1.513m0 0l1.473-.342m0 0l1.235.45m0 0h1.313m0 0l1.235-.45m0 0l-2.231 2.987m0 0h-7.558m0 0l-2.231-2.987M512.258 318.372h7.558m0 0v-.262m0-.001h-7.558m0 0v.262M512.258 318.894h7.558m0 0v-.262m0 0h-7.558m0 0v.262M516.878 313.607l-.891-.085m0 0l-.021.226m0 0l.477.046m0 0l-1.383 1.142m0 0l.126.152m0 0l.641-.53m0 0l.068.081m0 0l-.74.611m0 0l.12.147m0 0l.741-.611m0 0l.08.097m0 0l-.602.496m0 0l.108.131m0 0l.601-.497m0 0l.08.098m0 0l-.414.342m0 0l.115.14m0 0l1.422-1.174M504.699 304.302h22.672m0 0v22.672m0 0h-22.672m0 0v-22.672M389.639 311.671h21.917m.001 0v15.303m0 0H389.64m-.001 0v-15.303M482.783 217.205v-22.672m0 0h-70.472m0 0v22.672m0 0h70.472M412.311 205.869v.755m0 0h70.472m0 0v-.755m0 0h-70.472M476.196 215.59v-18.626m0 0h-.756m0 0v18.626m0 0h.756M474.191 215.59v-18.626m0 0h-.756m0 0v18.626m0 0h.756M472.187 215.59v-18.626m0 0h-.756m0 0v18.626m0 0h.756M470.182 215.59v-18.626m0 0h-.756m0 0v18.626m0 0h.756M465.936 215.454l2.241-18.491m0 0l-.75-.091m0 0l-2.241 18.491m0 0l.75.091M72.334 317.279l3.68-.86m0 0l1.583-3.431m0 0l-1.583 3.431m0 0l1.306 3.546M168.49 317.279l-3.679-.86m0 0l-1.584-3.431m0 0l1.584 3.431m0 0l-1.307 3.546M473.585 38.475l.86 3.68m0 0l3.432 1.583m0 0l-3.432-1.583m0 0l-3.545 1.306M473.585 134.632l.86-3.679m0 0l3.432-1.584m0 0l-3.432 1.584m0 0l-3.545-1.306M495.502 38.475l.859 3.68m0 0l3.432 1.583m0 0l-3.432-1.583m0 0l-3.546 1.306M495.502 134.632l.859-3.679m0 0l3.432-1.584m0 0l-3.432 1.584m0 0l-3.546-1.306M487.695 52.546v68.015m0 0h-1.89m0 0V52.546m0 0h1.89M269.479 75.697h3.028m0 0v-.858m0 0V57.663m0 0v-.86m0 0h-3.028M275.935 56.803h-3.427m-.001 0v.859m0 0h3.224m.001 0v-.057m0 0l-.196-.294m-.001 0l.087-.343m0 0l.312-.165M278.293 57.605l-.196-.294m0 0l.087-.343m0 0l.312-.165m.001 0h-2.562m-.001 0l-.312.165m0 0l-.087.343m0 0l.196.294m0 0v17.291m0 0l-.196.293m0 0l.087.343m0 0l.312.165m0 0h2.562m.001 0l-.312-.165m-.001 0l-.087-.343m0 0l.196-.293m0 0V57.605M275.935 75.697l-.312-.165m-.001 0l-.087-.342m0 0l.196-.294m.001 0v-.057m0 0h-3.224m-.001 0v.858m0 0h3.427M278.699 74.033l.226-1.005V59.472l-.226-1.005zM278.699 58.467v15.566m0 0l.227-1.005m0 0V59.472m0 0l-.227-1.005M278.699 57.605l.197-.294m0 0l-.087-.343m0 0l-.312-.165m0 0l-.313.165m0 0l-.087.343m0 0l.197.294m0 0v17.291m0 0l-.197.293m0 0l.087.343m0 0l.313.165m0 0l.312-.165m0 0l.087-.343m0 0l-.197-.293m0 0V57.605M269.479 97.613h3.028m0 0v-.859m0 0V79.579m0 0v-.859m0 0h-3.028M275.935 78.72h-3.427m-.001 0v.859m0 0h3.224m.001 0v-.058m0 0l-.196-.294m-.001 0l.087-.342m0 0l.312-.165M278.293 79.521l-.196-.294m0 0l.087-.342m0 0l.312-.165m.001 0h-2.562m-.001 0l-.312.165m0 0l-.087.342m0 0l.196.294m0 0v17.291m0 0l-.196.293m0 0l.087.343m0 0l.312.165m0 0h2.562m.001 0l-.312-.165m-.001 0l-.087-.343m0 0l.196-.293m0 0V79.521M275.935 97.613l-.312-.165m-.001 0l-.087-.342m0 0l.196-.294m.001 0v-.058m0 0h-3.224m-.001 0v.859m0 0h3.427M278.699 95.95l.226-1.005V81.389l-.226-1.005zM278.699 80.384V95.95m0 0l.227-1.005m0 0V81.389m0 0l-.227-1.005M278.699 79.521l.197-.294m0 0l-.087-.342m0 0l-.312-.165m0 0l-.313.165m0 0l-.087.342m0 0l.197.294m0 0v17.291m0 0l-.197.293m0 0l.087.343m0 0l.313.165m0 0l.312-.165m0 0l.087-.343m0 0l-.197-.293m0 0V79.521M235.471 75.697h-3.028m0 0v-.858m0 0V57.663m0 0v-.86m0 0h3.028M229.016 56.803h3.427m0 0v.859m0 0h-3.224m0 0v-.057m0 0l.196-.294m0 0l-.087-.343m0 0l-.312-.165M226.657 57.605l.196-.294m0 0l-.086-.343m0 0l-.313-.165m0 0h2.562m0 0l.312.165m0 0l.087.343m0 0l-.196.294m0 0v17.291m0 0l.196.293m0 0l-.087.343m0 0l-.312.165m0 0h-2.562m0 0l.313-.165m0 0l.086-.343m0 0l-.196-.293m0 0V57.605M229.016 75.697l.312-.165m0 0l.087-.342m0 0l-.196-.294m0 0v-.057m0 0h3.224m0 0v.858m0 0h-3.427M226.025 59.472v13.556l.226 1.005V58.467zM226.251 58.467v15.566m0 0l-.227-1.005m0 0V59.472m0 0l.227-1.005M226.251 57.605l-.196-.294m0 0l.086-.343m0 0l.313-.165m0 0l.313.165m0 0l.086.343m.001 0l-.196.294m-.001 0v17.291m0 0l.196.293m.001 0l-.086.343m-.001 0l-.313.165m0 0l-.313-.165m0 0l-.086-.343m0 0l.196-.293m0 0V57.605M235.471 97.613h-3.028m0 0v-.859m0 0V79.579m0 0v-.859m0 0h3.028M229.016 78.72h3.427m0 0v.859m0 0h-3.224m0 0v-.058m0 0l.196-.294m0 0l-.087-.342m0 0l-.312-.165M226.657 79.521l.196-.294m0 0l-.086-.342m0 0l-.313-.165m0 0h2.562m0 0l.312.165m0 0l.087.342m0 0l-.196.294m0 0v17.291m0 0l.196.293m0 0l-.087.343m0 0l-.312.165m0 0h-2.562m0 0l.313-.165m0 0l.086-.343m0 0l-.196-.293m0 0V79.521M229.016 97.613l.312-.165m0 0l.087-.342m0 0l-.196-.294m0 0v-.058m0 0h3.224m0 0v.859m0 0h-3.427M226.025 81.389v13.556l.226 1.005V80.384zM226.251 80.384V95.95m0 0l-.227-1.005m0 0V81.389m0 0l.227-1.005M226.251 79.521l-.196-.294m0 0l.086-.342m0 0l.313-.165m0 0l.313.165m0 0l.086.342m.001 0l-.196.294m-.001 0v17.291m0 0l.196.293m.001 0l-.086.343m-.001 0l-.313.165m0 0l-.313-.165m0 0l-.086-.343m0 0l.196-.293m0 0V79.521M269.479 100.636h3.028m0 0v.859m0 0v17.176m0 .001v.858m0-.001h-3.028M275.935 119.53h-3.427m-.001 0v-.858m0 0h3.224m.001 0v.057m0 0l-.196.294m-.001 0l.087.342m0 0l.312.165M278.293 118.728l-.196.294m0 0l.087.342m0 0l.312.165m.001 0h-2.562m-.001 0l-.312-.165m0 0l-.087-.342m0 0l.196-.294m0 0v-17.291m0 0l-.196-.293m0 0l.087-.343m0 0l.312-.165m0 0h2.562m.001 0l-.312.165m-.001 0l-.087.343m0 0l.196.293m0 0v17.291M275.935 100.636l-.312.165m-.001 0l-.087.342m0 .001l.196.294m.001 0v.058m0-.001h-3.224m-.001 0v-.859m0 0h3.427M278.699 117.865l.226-1.004v-13.556l-.226-1.005zM278.699 117.866V102.3m0 0l.227 1.005m0 0v13.556m0 0l-.227 1.005M278.699 118.728l.197.294m0 0l-.087.342m0 0l-.312.165m0 0l-.313-.165m0 0l-.087-.342m0 0l.197-.294m0 0v-17.291m0 0l-.197-.293m0 0l.087-.343m0 0l.313-.165m0 0l.312.165m0 0l.087.343m0 0l-.197.293m0 0v17.291M235.471 100.636h-3.028m0 0v.859m0 0v17.176m0 .001v.858m0-.001h3.028M229.016 119.53h3.427m0 0v-.858m0 0h-3.224m0 0v.057m0 0l.196.294m0 0l-.087.342m0 0l-.312.165M226.657 118.728l.196.294m0 0l-.086.342m0 0l-.313.165m0 0h2.562m0 0l.312-.165m0 0l.087-.342m0 0l-.196-.294m0 0v-17.291m0 0l.196-.293m0 0l-.087-.343m0 0l-.312-.165m0 0h-2.562m0 0l.313.165m0 0l.086.343m0 0l-.196.293m0 0v17.291M229.016 100.636l.312.165m0 0l.087.342m0 .001l-.196.294m0 0v.058m0-.001h3.224m0 0v-.859m0 0h-3.427M226.025 103.304v13.557l.226 1.004V102.3zM226.251 117.866V102.3m0 0l-.227 1.005m0 0v13.556m0 0l.227 1.005M226.251 118.728l-.196.294m0 0l.086.342m0 0l.313.165m0 0l.313-.165m0 0l.086-.342m.001 0l-.196-.294m-.001 0v-17.291m0 0l.196-.293m.001 0l-.086-.343m-.001 0l-.313-.165m0 0l-.313.165m0 0l-.086.343m0 0l.196.293m0 0v17.291M235.472 127.842h34.007m0 0V48.491m0 0h-34.007m0 0v79.351"/></g></g><path fill-rule="evenodd" clip-rule="evenodd" fill="none" stroke="gray" stroke-width=".6" stroke-linecap="round" stroke-linejoin="round" stroke-miterlimit="22.926" d="M360.197 264.712l3.844-3.344"/><g id="walls_1_"><path class="st0" d="M326.5 170.161h22.672v3.023h-19.649v12.848h19.649v12.847H326.5v-28.718zm195.544 50.068v-1.511h.454v-1.512l84.377-.001v3.023h-7.18v61.97h7.18v3.023h-10.203v-64.993h-64.048v4.27h-1.51v.453h-1.512v-4.723l-7.558.001zm7.558 41.186h-7.558v1.512h.454v1.511h7.104v62.536h3.022v-12.28h54.602v12.28h3.023v-12.28h16.626v-3.023h-74.251v-59.044h-1.51v-.454h-1.512v9.242zm-99.19 3.023v62.536h-3.022v-12.28h-12.848v12.28h-3.022v-15.303h6.234v-47.233h-23.437v-3.023h100.558v1.512h-.453v1.511h-64.01zm-205.413 54.24l-.001 8.296h20.262v-13.036h-20.261.001l-.001 3.725v1.015zm-3.022-4.74V310.915h46.696l.02-68.393h-76.9l-.003 7.557h-1.511v-.454h-1.511l.003-10.126h59.132v-6.159h1.511v-.453h1.512v6.612h20.79l-.026 87.475h6.442v9.069h-169.61v-9.069h80.223v-.001h-.002l.016-49.235h1.511v-.453h1.511l-.014 45.939v3.75h30.206l.004-13.036zm26.306 13.036l20.386-.001.004-13.035h-20.39v13.036zM108.524 186.032v12.847h139.381v2.569h1.511v.454h1.512v-15.87H108.524zM482.747 24.306h3.023v192.899l4.837.001v1.512h.453v1.511h-94.476v-1.511h.454v-1.512l85.709-.001V24.306zM364.088 220.228h-4.714v-3.023l5.772.001v1.512h.453v1.511l-1.511-.001zm63.302 91.443v-47.233h-6.613v47.233h6.613zm-34.584-50.256v1.512h.453v1.511h1.058v-3.023h-1.511z"/><path class="st4" d="M304.086 351.604c-2.248-6.024-2.872-9.14-3.199-15.562"/><path transform="rotate(-23.384 321.96 343.193)" class="st5" d="M302.208 342.422h39.449v1.511h-39.449z"/><path class="st4" d="M177.701 251.891c3.92-1.571 6.552-2.039 11.069-2.267"/><path class="st5" d="M177.61 251.931l11.151 25.807h1.511v-.453l-11.274-25.954z"/><path class="st4" d="M235.344 230.762c4.495 1.669 7.854 2.338 12.562 2.578"/><path class="st5" d="M235.247 230.72l1.387.6 12.782-29.418v-.454h-1.51z"/><g><path class="st4" d="M394.431 204.656c1.839 4.804 2.345 7.42 2.607 12.549"/><path class="st5" d="M394.418 204.547l-29.271 12.658-.001 1.511h.454l29.418-12.782z"/><g><path class="st4" d="M519.896 204.655c1.832 4.806 2.34 7.419 2.602 12.55"/><path class="st5" d="M519.878 204.547l-29.271 12.658v1.511h.453l29.419-12.782z"/><g><path class="st4" d="M543.69 250.353c-4.237 1.582-6.549 2.042-11.064 2.274"/><path class="st5" d="M543.79 250.316l-11.165-25.818h-1.511v.453l11.288 25.965z"/><g><path class="st4" d="M496.684 275.479c-1.6-4.29-2.027-6.469-2.262-11.042"/><path class="st5" d="M496.729 275.582l25.77-11.144-.001-1.512h-.453l-25.917 11.268z"/></g></g></g><g><path class="st4" d="M390.99 275.492c1.578-4.234 2.039-6.542 2.27-11.054"/><path class="st5" d="M390.95 275.596l.6-1.387-25.951-11.283h-.453l.001 1.512z"/></g></g><path d="M278.134 336.043v-9.069h21.694v9.069h-21.694 0zm-169.61 0H41.78v-38.715h23.806v29.646h42.937v9.069h.001zM41.78 155.613h23.806v30.418h42.937v12.848H65.587v15.319H41.78v-58.585h0zM606.875 24.306h-17.948V.501h28.15v335.591h-10.202v-.049h-247.5v-9.069h247.5V24.306h0zM460.454.501v23.805h45.344V.501h-45.344 0zm-83.13 23.805V.501H322.75v23.805h26.423v195.922h10.202V24.306h17.949zM211.063.501h45.344v23.805h-45.344V.501h0zm-113.624 0h47.499v23.805H97.439V.501h0zm251.733 260.914h10.202v74.628h-17.98v-9.069h7.778v-65.559h0zm-7.778 65.559h-1.512v7.557h.454v1.512h1.058v-9.069h0zm-40.054 0h-1.511v9.069h1.058v-1.512h.453v-7.557z" fill-rule="evenodd" clip-rule="evenodd" stroke="#000" stroke-linecap="round" stroke-linejoin="round" stroke-miterlimit="3"/><g><path class="st4" d="M49.339 214.198h16.248M41.781 214.198h5.668M47.449 214.198h1.889M49.339 297.327h16.248M41.781 297.327h5.668M47.449 297.327h1.889M41.781 297.327v-83.129M65.586 297.327v-83.129M49.339 297.327v-3.778M49.339 293.549H47.45M47.449 293.549v3.778M47.449 257.652v1.889M47.449 259.541h1.889M49.339 259.541v-1.889M48.394 293.549v-34.008M49.339 293.549v-34.008M47.449 259.541v34.008M49.339 257.652v-.945M49.339 256.707h-.945M48.394 256.707v-.945M48.394 255.762h-.944M47.449 255.762v1.891M47.449 214.198v3.778M47.449 217.976h.944M48.394 217.976v-.945M48.394 217.031h.945M49.339 217.031v-2.832M50.283 217.031l28.055 28.056M47.449 217.976v37.786M50.283 253.873v-34.008M50.283 256.707v-2.834M50.283 253.873h-1.889M48.394 253.873v2.834M48.394 256.707h1.889M48.394 217.031v2.835M48.394 219.866h1.889M50.283 219.866v-2.835M50.283 217.031h-1.889M48.394 219.866v34.007M50.283 253.873v-34.008M49.339 253.873v-34.008M78.338 245.087a39.675 39.675 0 01-28.055 11.621M47.449 297.327h1.889M47.449 297.327h1.889M41.781 297.327h5.668M49.339 297.327h16.248M47.449 214.198h1.889M47.449 214.198h1.889M41.781 214.198h5.668M49.339 214.198h16.248"/><g><path class="st4" d="M144.938 8.058v16.248M144.938.5v5.668M144.938 6.168v1.89M211.064 8.058v16.248M211.064.5v5.668M211.064 6.168v1.89M211.064.5h-66.126M211.064 24.306h-66.126M211.064 8.058h-3.778M207.285 8.058v-1.89M207.285 6.168h3.778M173.278 6.168h1.889M175.167 6.168v1.89M175.167 8.058h-1.889M207.285 7.113h-32.119M207.285 8.058h-32.119M175.167 6.168h32.119M173.278 8.058h-.946M172.333 8.058v-.945M172.333 7.113h-.945M171.388 7.113v-.945M171.388 6.168h1.89M144.938 6.168h3.779M148.716 6.168v.945M148.716 7.113h-.945M147.772 7.113v.945M147.772 8.058h-2.834M148.716 6.168h22.671M169.499 9.002h-18.893M172.333 9.002h-2.834M169.499 9.002V7.113M169.499 7.113h2.834M172.333 7.113v1.889M147.772 7.113h2.834M150.605 7.113v1.889M150.605 9.002h-2.834M147.772 9.002V7.113M150.605 7.113h18.893M169.499 9.002h-18.893M169.499 8.058h-18.893M211.064 6.168v1.89M211.064 6.168v1.89M211.064.5v5.668M211.064 8.058v16.248M144.938 6.168v1.89M144.938 6.168v1.89M144.938.5v5.668M144.938 8.058v16.248"/></g><g><path class="st4" d="M256.407 8.058v16.248M256.407.5v5.668M256.407 6.168v1.89M322.75 8.058v16.248M322.75.5v5.668M322.75 6.168v1.89M322.75.5h-66.343M322.75 24.306h-66.343M322.75 8.058h-3.779M318.971 8.058v-1.89M318.971 6.168h3.779M284.747 6.168h1.889M286.637 6.168v1.89M286.637 8.058h-1.89M318.971 7.113h-32.334M318.971 8.058h-32.334M286.637 6.168h32.333M284.747 8.058h-.945M283.802 8.058v-.945M283.802 7.113h-.944M282.858 7.113v-.945M282.858 6.168h1.889M256.407 6.168h3.778M260.186 6.168v.945M260.186 7.113h-.944M259.241 7.113v.945M259.241 8.058h-2.834M260.186 6.168h22.672M280.968 9.002h-18.893M283.802 9.002h-2.833M280.968 9.002V7.113M280.968 7.113h2.833M283.802 7.113v1.889M259.241 7.113h2.834M262.075 7.113v1.889M262.075 9.002h-2.834M259.241 9.002V7.113M262.075 7.113h18.893M280.968 9.002h-18.893M280.968 8.058h-18.893M322.75 6.168v1.89M322.75 6.168v1.89M322.75.5v5.668M322.75 8.058v16.248M256.407 6.168v1.89M256.407 6.168v1.89M256.407.5v5.668M256.407 8.058v16.248"/></g><g><path class="st4" d="M377.323 8.058v16.248M377.323.5v5.668M377.323 6.168v1.89M460.453 8.058v16.248M460.453.5v5.668M460.453 6.168v1.89M460.453.5h-83.13M460.453 24.306h-83.13M460.453 8.058h-3.778M456.675 8.058v-1.89M456.675 6.168h3.778M405.663 6.168h1.889M407.552 6.168v1.89M407.552 8.058h-1.889M456.675 7.113h-49.123M456.675 8.058h-49.123M407.552 6.168h49.123M405.663 8.058h-.945M404.718 8.058v-.945M404.718 7.113h-.945M403.774 7.113v-.945M403.774 6.168h1.89M377.323 6.168h3.778M381.102 6.168v.945M381.102 7.113h-.944M380.157 7.113v.945M380.157 8.058h-2.834M381.102 6.168h22.672M401.884 9.002h-18.893M404.718 9.002h-2.834M401.884 9.002V7.113M401.884 7.113h2.834M404.718 7.113v1.889M380.157 7.113h2.834M382.991 7.113v1.889M382.991 9.002h-2.834M380.157 9.002V7.113M382.991 7.113h18.893M401.884 9.002h-18.893M401.884 8.058h-18.893M460.453 6.168v1.89M460.453 6.168v1.89M460.453.5v5.668M460.453 8.058v16.248M377.323 6.168v1.89M377.323 6.168v1.89M377.323.5v5.668M377.323 8.058v16.248"/></g><g><path class="st4" d="M588.927 8.058v16.248M588.927.5v5.668M588.927 6.168v1.89M505.797 8.058v16.248M505.797.5v5.668M505.797 6.168v1.89M505.797.5h83.13M505.797 24.306h83.13M505.797 8.058h3.778M509.575 8.058v-1.89M509.575 6.168h-3.778M560.587 6.168h-1.89M558.697 6.168v1.89M558.697 8.058h1.89M509.575 7.113h49.122M509.575 8.058h49.122M558.697 6.168h-49.122M560.587 8.058h.944M561.531 8.058v-.945M561.531 7.113h.944M562.476 7.113v-.945M562.476 6.168h-1.889M588.927 6.168h-3.779M585.148 6.168v.945M585.148 7.113h.945M586.093 7.113v.945M586.093 8.058h2.834M585.148 6.168h-22.672M564.365 9.002h18.894M561.531 9.002h2.834M564.365 9.002V7.113M564.365 7.113h-2.834M561.531 7.113v1.889M586.093 7.113h-2.834M583.259 7.113v1.889M583.259 9.002h2.834M586.093 9.002V7.113M583.259 7.113h-18.894M564.365 9.002h18.894M564.365 8.058h18.894M505.797 6.168v1.89M505.797 6.168v1.89M505.797.5v5.668M505.797 8.058v16.248M588.927 6.168v1.89M588.927 6.168v1.89M588.927.5v5.668M588.927 8.058v16.248"/></g><g><path class="st4" d="M49.339 155.613h16.248M41.781 155.613h5.668M47.449 155.613h1.889M41.781 155.613V.5M65.586 155.613V24.306M49.339 155.613v-4.723M49.339 150.89H47.45M47.449 150.89v4.723M47.449 8.058v4.723M47.449 12.781h1.889M49.339 12.781V8.058M47.449 6.168v1.89M49.339 150.89V12.781M47.449 12.781V150.89M47.449 155.613h1.889M47.449 155.613h1.889M41.781 155.613h5.668M49.339 155.613h16.248M97.439 8.058v16.248M97.439.5v5.668M97.439 6.168v1.89M97.439.5H41.781M97.439 24.306H65.586M97.439 8.058h-4.723M92.716 8.058v-1.89M92.716 6.168h4.723M49.339 6.168h4.723M54.062 6.168v1.89M54.062 8.058h-4.723M47.449 6.168h1.889M92.716 8.058H54.062M54.062 6.168h38.654M97.439 6.168v1.89M97.439 6.168v1.89M97.439.5v5.668M97.439 8.058v16.248"/></g><g><path class="st4" d="M41.781 202.85H.5m0 0v105.802m0 0h41.281m0 0V202.85M1.255 307.897h40.526m0 0V203.606m0 0H1.255m0 0v104.291"/></g><g><path class="st7" d="M47.449 64.345h1.89v5.133h-1.89zM47.449 106.852h1.89v5.133h-1.89z"/></g></g><path class="st7" d="M365.419 264.737h-9.125v-3.375h9.125z"/><g><path class="st8" d="M115.608 186.132l-7.03 6.2M123.038 186.132l-14.46 12.74M130.458 186.132l-14.58 12.85M137.888 186.132l-14.59 12.85M145.308 186.132l-14.59 12.85M152.728 186.132l-14.59 12.85M160.148 186.132l-14.59 12.85M167.568 186.132l-14.58 12.85M174.988 186.132l-14.58 12.85M182.418 186.132l-14.59 12.85M189.838 186.132l-14.58 12.85M197.268 186.132l-14.59 12.85M204.688 186.132l-14.59 12.85M212.098 186.132l-14.58 12.85M219.528 186.132l-14.59 12.85M226.948 186.132l-14.58 12.85M234.378 186.132l-14.59 12.85M241.798 186.132l-14.59 12.85M249.218 186.132l-14.59 12.85M195.938 239.602l-3.43 3.02M191.848 243.202l-3.02 2.66M250.988 191.112l-8.94 7.87M250.988 197.652l-3.03 2.66M191.848 249.742l-.5.44M203.358 239.602l-3.42 3.02M111.488 327.072l-2.91 2.57M210.788 239.602l-3.43 3.02M118.918 327.072l-10.3 9.07M218.208 239.602l-3.43 3.02M126.338 327.072l-10.3 9.07M225.628 239.602l-3.43 3.02M133.758 327.072l-10.29 9.07M189.648 277.842l-.83.73M233.058 239.602l-3.43 3.02M484.768 24.402l-1.96 1.72M141.188 327.072l-10.3 9.07M240.478 239.602l-3.43 3.02M191.838 282.452l-3.02 2.66M485.828 30.002l-3.02 2.66M326.608 170.262l-.05.04M250.988 236.872l-3.02 2.67M148.598 327.072l-10.29 9.07M247.898 239.602l-3.43 3.02M191.838 288.982l-3.03 2.67M485.828 36.542l-3.02 2.66M191.838 295.522l-3.03 2.67M255.318 239.602l-3.43 3.02M156.028 327.072l-10.3 9.07M334.028 170.262l-3.43 3.02M329.578 174.182l-3.02 2.66M485.828 43.082l-3.02 2.66M191.828 302.072l-3.02 2.66M262.748 239.602l-3.43 3.02M163.448 327.072l-10.29 9.07M341.458 170.262l-3.43 3.02M329.578 180.722l-3.02 2.66M485.828 49.622l-3.02 2.66M348.878 170.262l-3.43 3.02M191.828 308.612l-3.02 2.66M270.168 239.602l-3.43 3.02M170.868 327.072l-10.29 9.07M330.868 186.132l-4.31 3.79M485.828 56.162l-3.02 2.66M191.828 315.152l-3.03 2.66M271.778 244.722l-3.03 2.67M178.298 327.072l-10.3 9.07M338.288 186.132l-11.73 10.33M485.828 62.692l-3.02 2.66M191.828 321.692l-3.03 2.67M271.778 251.262l-3.03 2.67M185.718 327.072l-10.3 9.07M345.708 186.132l-14.59 12.85M485.828 69.232l-3.02 2.66M271.768 257.802l-3.03 2.67M193.138 327.072l-10.3 9.07M349.228 189.572l-10.69 9.41M485.828 75.772l-3.02 2.66M349.228 196.102l-3.26 2.88M200.558 327.072l-10.3 9.07M271.768 264.342l-3.03 2.67M485.828 82.312l-3.02 2.66M207.978 327.072l-10.29 9.07M226.208 311.012l-4.17 3.68M271.768 270.882l-3.03 2.67M485.828 88.852l-3.02 2.66M215.408 327.072l-10.3 9.07M233.638 311.012l-3.44 3.03M271.768 277.422l-3.03 2.67M225.058 318.572l-3.03 2.66M485.828 95.382l-3.02 2.66M225.058 325.102l-12.53 11.04M271.758 283.962l-3.02 2.67M241.058 311.012l-3.44 3.03M485.828 101.932l-3.02 2.66M230.248 327.072l-10.29 9.07M271.758 290.502l-3.02 2.67M248.488 311.012l-3.44 3.03M485.828 108.472l-3.02 2.66M362.278 217.302l-2.85 2.51M237.678 327.072l-10.3 9.07M255.908 311.012l-3.44 3.03M271.758 297.052l-3.03 2.66M248.338 317.682l-3.02 2.66M485.828 115.002l-3.02 2.66M245.088 327.072l-10.29 9.07M263.318 311.012l-3.44 3.03M271.758 303.582l-3.03 2.67M248.338 324.212l-3.02 2.66M485.828 121.542l-3.02 2.66M252.508 327.072l-10.29 9.07M271.758 310.122l-4.45 3.92M485.828 128.082l-3.02 2.66M259.938 327.072l-10.29 9.07M271.748 316.662l-3.02 2.67M485.828 134.622l-3.02 2.66M267.358 327.072l-10.29 9.07M271.748 323.202l-3.02 2.67M485.828 141.162l-3.02 2.66M399.388 217.302l-2.75 2.43M274.788 327.072l-10.3 9.07M406.818 217.302l-3.44 3.03M278.188 330.612l-6.28 5.53M485.828 147.692l-3.02 2.66M414.228 217.302l-3.44 3.03M364.048 261.512l-3.43 3.02M485.828 154.232l-3.02 2.66M421.658 217.302l-3.44 3.03M485.828 160.772l-3.02 2.66M429.078 217.302l-3.44 3.03M485.828 167.312l-3.02 2.66M436.498 217.302l-3.44 3.03M485.828 173.852l-3.02 2.66M443.918 217.302l-3.43 3.03M393.738 261.512l-.87.77M485.828 180.382l-3.02 2.66M451.348 217.302l-3.44 3.03M401.168 261.512l-3.44 3.03M485.828 186.932l-3.02 2.66M458.768 217.302l-3.44 3.03M408.578 261.512l-3.44 3.03M485.828 193.462l-3.02 2.66M466.188 217.302l-3.44 3.03M415.998 261.512l-3.43 3.03M485.828 200.002l-3.02 2.66M473.608 217.302l-3.44 3.03M423.428 261.512l-5.62 4.95M485.828 206.542l-3.02 2.66M481.038 217.302l-3.44 3.03M430.848 261.512l-3.44 3.03M420.838 270.332l-3.03 2.67M485.828 213.082l-3.02 2.66M488.458 217.302l-3.44 3.03M430.468 268.392l-3.02 2.66M438.278 261.512l-3.44 3.03M420.838 276.872l-3.03 2.67M430.468 274.922l-3.02 2.66M445.698 261.512l-3.44 3.03M420.838 283.412l-3.03 2.67M430.468 281.462l-3.02 2.66M453.118 261.512l-3.44 3.03M420.838 289.952l-3.03 2.67M430.468 288.002l-3.02 2.66M460.538 261.512l-3.44 3.03M420.838 296.482l-3.03 2.67M430.468 294.542l-3.02 2.66M467.958 261.512l-3.44 3.03M420.838 303.022l-3.03 2.67M525.568 217.302l-3.44 3.03M420.838 309.562l-5.94 5.23M475.388 261.512l-3.44 3.03M430.468 301.082l-3.02 2.66M414.598 315.062l-3.02 2.66M425.748 311.772l-3.42 3.02M482.808 261.512l-3.44 3.03M430.468 307.612l-3.02 2.67M414.598 321.602l-3.02 2.66M532.988 217.302l-3.44 3.03M430.468 314.152l-3.02 2.66M490.228 261.512l-3.44 3.03M532.678 224.112l-.55.49M540.408 217.302l-3.44 3.03M430.468 320.702l-3.02 2.66M494.478 264.312l-.26.23M547.838 217.302l-3.44 3.03M555.258 217.302l-3.44 3.03M562.678 217.302l-3.44 3.03M530.408 252.272l-.75.66M570.098 217.302l-3.44 3.03M532.678 256.812l-3.02 2.66M527.338 261.512l-3.44 3.03M577.528 217.302l-3.44 3.03M532.678 263.352l-3.02 2.66M584.948 217.302l-3.44 3.03M532.678 269.892l-3.02 2.66M592.368 217.302l-3.44 3.03M532.678 276.422l-3.02 2.66M599.788 217.302l-3.44 3.03M606.938 217.542l-3.17 2.79M532.678 282.962l-3.02 2.66M599.758 223.862l-3.03 2.67M532.678 289.502l-3.02 2.66M599.758 230.412l-3.03 2.67M532.678 296.042l-3.02 2.66M599.758 236.952l-3.03 2.66M532.678 302.582l-3.02 2.66M599.758 243.482l-3.03 2.67M532.678 309.112l-3.02 2.66M599.758 250.022l-3.03 2.67M532.678 315.662l-3.02 2.66M537.088 311.772l-3.42 3.02M599.758 256.572l-3.03 2.67M544.508 311.772l-3.42 3.02M532.678 322.192l-3.02 2.66M599.758 263.102l-3.03 2.67M551.938 311.772l-3.43 3.02M599.758 269.642l-3.03 2.67M559.358 311.772l-3.43 3.02M599.758 276.182l-3.03 2.67M599.758 282.722l-3.03 2.67M566.778 311.772l-3.43 3.02M599.758 289.262l-3.03 2.67M574.198 311.772l-3.42 3.02M599.758 295.802l-3.03 2.67M581.628 311.772l-3.43 3.02M599.758 302.332l-3.03 2.67M589.048 311.772l-3.43 3.02M599.758 308.872l-3.03 2.67M596.468 311.772l-3.43 3.02M590.308 317.202l-3.02 2.66M603.888 311.772l-3.43 3.02M590.308 323.732l-3.02 2.66"/></g><path class="st7" d="M326.5 170.161h22.672v3.023h-19.649v12.848h19.649v12.847H326.5v-28.718zm195.544 50.068v-1.511h.454v-1.512l84.377-.001v3.023h-7.18v61.97h7.18v3.023h-10.203v-64.993h-64.048v4.27h-1.51v.453h-1.512v-4.723l-7.558.001zm7.558 41.186v-9.242h1.512v.454h1.51v59.044h74.251v3.023h-16.626v12.28h-3.023v-12.28h-54.602v12.28h-3.022v-62.536h-7.104v-1.511h-.454v-1.512h7.558zm-99.19 3.023v62.536h-3.022v-12.28h-12.848v12.28h-3.022v-15.303h6.234v-47.233h-23.437v-3.023h100.558v1.512h-.453v1.511h-64.01zm-205.413 54.24l-.001 8.296h20.262v-13.036h-20.261.001l-.001 3.725v1.015zm-3.022-4.74V310.915h46.696l.02-68.393h-76.9l-.003 7.557h-1.511v-.454h-1.511l.003-10.126h59.132v-6.159h1.511v-.453h1.512v6.612h20.79l-.026 87.475h6.442v9.069h-169.61v-9.069h80.223v-.001h-.002l.016-49.235h1.511v-.453h1.511l-.014 45.939v3.75h30.206l.004-13.036zm26.306 13.036l20.386-.001.004-13.035h-20.39v13.036zM108.524 186.032v12.847h139.381v2.569h1.511v.454h1.512v-15.87H108.524zM482.747 24.306h3.023v192.899l4.837.001v1.512h.453v1.511h-94.476v-1.511h.454v-1.512l85.709-.001V24.306zM364.088 220.228h-4.714v-3.023l5.772.001v1.512h.453v1.511l-1.511-.001zm63.302 91.443v-47.233h-6.613v47.233h6.613zm-34.584-50.256v1.512h.453v1.511h1.058v-3.023h-1.511z"/></g><g id="sizes"><path d="M7.441 218.881l-.727-.348a2.857 2.857 0 01-1.168-1.008c-.294-.44-.48-.97-.559-1.59h1.625c.047.323.148.589.305.797s.358.363.605.465c.247.102.538.152.871.152.526 0 .935-.141 1.227-.422.292-.281.438-.677.438-1.188v-.344c0-.567-.138-1.007-.414-1.316-.276-.31-.667-.465-1.172-.465h-.805V212.1h.805c.442 0 .786-.133 1.031-.398.245-.266.367-.641.367-1.125v-.352c0-.448-.129-.794-.387-1.039s-.624-.367-1.098-.367c-.271 0-.513.051-.727.152-.214.102-.395.258-.543.469s-.257.476-.324.793H5.175c.104-.62.301-1.151.59-1.594s.655-.778 1.098-1.008c.442-.229.95-.344 1.523-.344.979 0 1.737.258 2.273.773.536.516.805 1.242.805 2.18v.188c0 .567-.154 1.063-.461 1.484-.308.422-.742.729-1.305.922.62.136 1.1.44 1.441.914.341.474.512 1.078.512 1.813v.188c0 .661-.128 1.227-.383 1.695a2.526 2.526 0 01-1.113 1.07c-.487.245-1.074.367-1.762.367h-.952zM13.761 217.171h1.594v1.594l-1.594 1.578v-3.172zM19.058 218.491a2.86 2.86 0 01-1.207-1.105c-.284-.477-.426-1.03-.426-1.66v-.188c0-.567.142-1.102.426-1.602.284-.5.663-.878 1.137-1.133-.401-.219-.723-.535-.965-.949s-.363-.851-.363-1.309v-.273c0-.594.133-1.116.398-1.566s.641-.8 1.125-1.047 1.047-.371 1.688-.371 1.203.124 1.688.371.859.597 1.125 1.047.398.973.398 1.566v.273c0 .469-.124.909-.371 1.32a2.485 2.485 0 01-.98.938c.479.261.863.64 1.152 1.137s.434 1.03.434 1.598v.188c0 .63-.142 1.184-.426 1.66a2.854 2.854 0 01-1.207 1.105c-.521.261-1.125.391-1.813.391s-1.292-.13-1.813-.391zm2.789-1.36c.281-.146.499-.351.652-.613.153-.263.23-.566.23-.91v-.109c0-.349-.077-.655-.23-.918-.154-.263-.371-.468-.652-.613s-.607-.219-.977-.219-.695.073-.977.219-.499.352-.652.617c-.154.266-.23.573-.23.922v.117c0 .344.077.646.23.906.153.261.371.462.652.605s.606.215.977.215c.37 0 .696-.073.977-.219zm-.133-5.121c.245-.138.435-.335.57-.59.135-.255.203-.55.203-.883v-.109c0-.317-.068-.599-.203-.844a1.406 1.406 0 00-.57-.566 1.74 1.74 0 00-.844-.199 1.74 1.74 0 00-.844.199 1.4 1.4 0 00-.57.566 1.724 1.724 0 00-.203.852v.117c0 .328.067.618.203.871.135.253.325.448.57.586.245.138.526.207.844.207.318 0 .599-.069.844-.207zM161.465 213.646h-1.594v-9.625l-1.617.992v-1.648l1.617-1.078h1.594v11.359zM166.028 213.763l-.727-.348a2.857 2.857 0 01-1.168-1.008c-.295-.439-.48-.97-.559-1.59h1.625c.047.323.148.589.305.797.156.209.357.363.605.465.247.102.537.152.871.152.525 0 .935-.141 1.227-.422.291-.281.438-.677.438-1.188v-.344c0-.567-.139-1.006-.414-1.316-.276-.31-.667-.465-1.172-.465h-.805v-1.516h.805c.442 0 .786-.133 1.031-.398.244-.266.367-.641.367-1.125v-.352c0-.447-.129-.794-.387-1.039-.258-.244-.624-.367-1.098-.367a1.68 1.68 0 00-.727.152c-.214.102-.395.258-.543.469s-.257.476-.324.793h-1.617c.104-.619.301-1.15.59-1.594a2.886 2.886 0 011.098-1.008c.442-.229.95-.344 1.523-.344.979 0 1.736.258 2.273.773.536.516.805 1.242.805 2.18v.188c0 .568-.154 1.063-.461 1.484-.308.422-.742.729-1.305.922.619.136 1.1.44 1.441.914.341.475.512 1.078.512 1.813v.188c0 .662-.128 1.227-.383 1.695a2.53 2.53 0 01-1.113 1.07c-.487.245-1.074.367-1.762.367l-.951.002zM172.348 212.052h1.594v1.594l-1.594 1.578v-3.172zM175.958 212.263l3.961-5.281c.229-.302.407-.615.535-.941.127-.325.191-.629.191-.91v-.016c0-.453-.133-.805-.398-1.055s-.644-.375-1.133-.375c-.464 0-.839.137-1.125.41-.287.273-.461.66-.523 1.16v.008h-1.648v-.008c.094-.65.285-1.207.574-1.668s.662-.813 1.121-1.055c.458-.242.986-.363 1.586-.363.677 0 1.255.116 1.734.348.479.232.844.569 1.094 1.012.25.443.375.977.375 1.602v.008c0 .401-.084.82-.25 1.258a5.417 5.417 0 01-.695 1.266l-3.289 4.469h4.297v1.516h-6.406v-1.385zM217.471 257.344l-.727-.348a2.857 2.857 0 01-1.168-1.008c-.294-.439-.48-.97-.559-1.59h1.625c.047.323.148.589.305.797.156.209.358.363.605.465s.538.152.871.152c.526 0 .935-.141 1.227-.422s.438-.677.438-1.188v-.344c0-.567-.138-1.006-.414-1.316-.276-.31-.667-.465-1.172-.465h-.805v-1.516h.805c.442 0 .786-.133 1.031-.398s.367-.641.367-1.125v-.352c0-.447-.129-.794-.387-1.039-.258-.244-.624-.367-1.098-.367-.271 0-.513.051-.727.152s-.395.258-.543.469-.257.476-.324.793h-1.617c.104-.619.301-1.15.59-1.594a2.893 2.893 0 011.098-1.008c.442-.229.95-.344 1.523-.344.979 0 1.737.258 2.273.773s.805 1.242.805 2.18v.188c0 .568-.153 1.063-.461 1.484s-.742.729-1.305.922c.62.136 1.101.44 1.441.914.341.475.512 1.078.512 1.813v.188c0 .662-.128 1.227-.383 1.695s-.626.826-1.113 1.07c-.487.245-1.074.367-1.762.367l-.951.002zM223.792 255.633h1.594v1.594l-1.594 1.578v-3.172zM229.088 256.954c-.521-.26-.923-.629-1.207-1.105s-.426-1.029-.426-1.66v-.188c0-.567.142-1.102.426-1.602s.663-.877 1.137-1.133c-.401-.219-.723-.535-.965-.949s-.363-.85-.363-1.309v-.273c0-.594.133-1.115.398-1.566.266-.45.641-.799 1.125-1.047.484-.247 1.047-.371 1.688-.371s1.203.124 1.688.371c.484.248.859.597 1.125 1.047.266.451.398.973.398 1.566v.273c0 .469-.124.909-.371 1.32a2.465 2.465 0 01-.98.938c.479.261.863.64 1.152 1.137a3.13 3.13 0 01.434 1.598v.188c0 .631-.142 1.184-.426 1.66s-.687.846-1.207 1.105c-.521.261-1.125.391-1.813.391s-1.292-.131-1.813-.391zm2.789-1.36c.281-.146.499-.35.652-.613.153-.263.23-.566.23-.91v-.109c0-.349-.077-.654-.23-.918a1.576 1.576 0 00-.652-.613c-.281-.146-.606-.219-.977-.219s-.695.073-.977.219c-.281.146-.499.352-.652.617s-.23.573-.23.922v.117c0 .344.077.646.23.906.153.261.371.463.652.605.281.144.606.215.977.215s.696-.072.977-.219zm-.132-5.121c.245-.138.435-.334.57-.59.136-.255.203-.549.203-.883v-.109c0-.317-.067-.599-.203-.844-.136-.244-.325-.434-.57-.566s-.526-.199-.844-.199-.599.066-.844.199-.435.322-.57.566a1.726 1.726 0 00-.203.852v.117c0 .328.067.619.203.871.136.253.325.448.57.586.245.139.526.207.844.207s.599-.068.844-.207z"/><g><path d="M457.802 188.163h-1.594v-9.625l-1.617.992v-1.648l1.617-1.078h1.594v11.359zM461.599 187.878a2.604 2.604 0 01-1.082-1.172c-.247-.513-.371-1.131-.371-1.855v-.008c0-.422.05-.864.148-1.328a7.673 7.673 0 01.532-1.597l.109-.223 2.469-4.89h1.719l-2.898 5.664.008-.281c.13-.244.32-.435.57-.57.25-.135.542-.203.875-.203.589 0 1.094.133 1.516.398s.742.652.961 1.16.328 1.119.328 1.832v.008c0 .729-.124 1.354-.371 1.875a2.615 2.615 0 01-1.086 1.188c-.477.271-1.048.406-1.715.406s-1.238-.136-1.712-.404zm2.879-1.598c.273-.313.41-.758.41-1.336v-.008c0-.635-.144-1.126-.43-1.473-.286-.346-.695-.52-1.227-.52-.474 0-.841.175-1.102.523-.261.35-.391.842-.391 1.477v.008c0 .578.137 1.022.41 1.332.273.311.66.465 1.16.465.507.001.897-.156 1.17-.468zM468.435 186.569h1.594v1.594l-1.594 1.578v-3.172zM473.861 187.944a2.75 2.75 0 01-1.086-.977c-.278-.427-.465-.939-.559-1.539v-.008h1.594v.008c.058.417.224.741.5.973.276.232.636.348 1.078.348.511 0 .905-.17 1.184-.512.278-.341.418-.821.418-1.441v-.953c0-.614-.14-1.092-.418-1.434-.278-.341-.673-.512-1.184-.512-.276 0-.542.078-.797.234s-.479.375-.672.656h-1.453v-5.984h5.789v1.515h-4.195v2.555a2.275 2.275 0 011.414-.508c.656 0 1.218.136 1.684.406.466.271.82.667 1.063 1.188.242.521.363 1.148.363 1.883v.953c0 .734-.125 1.362-.375 1.883-.25.521-.614.918-1.094 1.191s-1.055.41-1.727.41c-.573.001-1.082-.111-1.527-.335z"/></g><g><path d="M581.342 188.163h-1.594v-9.625l-1.617.992v-1.648l1.617-1.078h1.594v11.359zM585.139 187.878a2.604 2.604 0 01-1.082-1.172c-.247-.513-.371-1.131-.371-1.855v-.008c0-.422.05-.864.148-1.328a7.673 7.673 0 01.532-1.597l.109-.223 2.469-4.89h1.719l-2.898 5.664.008-.281c.13-.244.32-.435.57-.57.25-.135.542-.203.875-.203.589 0 1.094.133 1.516.398s.742.652.961 1.16.328 1.119.328 1.832v.008c0 .729-.124 1.354-.371 1.875a2.615 2.615 0 01-1.086 1.188c-.477.271-1.048.406-1.715.406s-1.238-.136-1.712-.404zm2.879-1.598c.273-.313.41-.758.41-1.336v-.008c0-.635-.144-1.126-.43-1.473-.286-.346-.695-.52-1.227-.52-.474 0-.841.175-1.102.523-.261.35-.391.842-.391 1.477v.008c0 .578.137 1.022.41 1.332.273.311.66.465 1.16.465.507.001.897-.156 1.17-.468zM591.975 186.569h1.594v1.594l-1.594 1.578v-3.172zM597.401 187.944a2.75 2.75 0 01-1.086-.977c-.278-.427-.465-.939-.559-1.539v-.008h1.594v.008c.058.417.224.741.5.973.276.232.636.348 1.078.348.511 0 .905-.17 1.184-.512.278-.341.418-.821.418-1.441v-.953c0-.614-.14-1.092-.418-1.434-.278-.341-.673-.512-1.184-.512-.276 0-.542.078-.797.234s-.479.375-.672.656h-1.453v-5.984h5.789v1.515H597.6v2.555a2.275 2.275 0 011.414-.508c.656 0 1.218.136 1.684.406.466.271.82.667 1.063 1.188.242.521.363 1.148.363 1.883v.953c0 .734-.125 1.362-.375 1.883-.25.521-.614.918-1.094 1.191s-1.055.41-1.727.41c-.573.001-1.082-.111-1.527-.335z"/></g><g><path d="M332.116 312.931l-2.938 9.938h-1.695l2.938-9.844h-2.891v1.633h-1.594v-3.148h6.18v1.421zM334.147 321.275h1.594v1.594l-1.594 1.578v-3.172zM339.147 322.584c-.474-.269-.835-.659-1.082-1.172s-.371-1.132-.371-1.855v-.008c0-.422.05-.864.148-1.328a7.568 7.568 0 01.641-1.82l2.469-4.891h1.719l-2.898 5.664.008-.281c.13-.245.32-.435.57-.57s.542-.203.875-.203c.589 0 1.094.133 1.516.398s.742.652.961 1.16.328 1.118.328 1.832v.008c0 .729-.124 1.354-.371 1.875s-.609.917-1.086 1.188-1.048.406-1.715.406-1.238-.135-1.712-.403zm2.879-1.598c.273-.313.41-.758.41-1.336v-.008c0-.636-.144-1.126-.43-1.473s-.695-.52-1.227-.52c-.474 0-.841.175-1.102.523s-.391.841-.391 1.477v.008c0 .578.137 1.022.41 1.332s.66.465 1.16.465c.507.001.896-.156 1.17-.468z"/></g><g><path d="M455.75 229.87l3.813-8.227h1.641l-3.719 8.133h5.57v1.477h-7.305v-1.383zm4.898-3.555h1.555v6.688h-1.555v-6.688zM464.851 231.401h1.594v1.594l-1.594 1.578v-3.172zM472.656 227.354l-.008.281c-.13.24-.327.416-.59.527a2.372 2.372 0 01-.934.168c-.542 0-1.019-.138-1.43-.414-.411-.275-.73-.665-.957-1.168-.227-.502-.34-1.084-.34-1.746v-.008c0-.734.124-1.361.371-1.883a2.62 2.62 0 011.086-1.188c.477-.271 1.048-.406 1.715-.406s1.237.139 1.711.414c.474.276.835.678 1.082 1.203.247.526.371 1.159.371 1.898v.008c0 .406-.052.84-.156 1.301s-.253.918-.445 1.371l-.094.207c-.031.07-.065.14-.102.207l-2.422 4.867h-1.719l2.861-5.639zm.074-.984c.273-.338.41-.814.41-1.43v-.008c0-.599-.137-1.063-.41-1.391s-.66-.492-1.16-.492c-.505 0-.895.164-1.168.492s-.41.795-.41 1.398v.008c0 .615.137 1.09.41 1.426s.663.504 1.168.504c.5.001.887-.168 1.16-.507z"/></g><g><path d="M361.799 306.186l3.961-5.281c.229-.302.407-.616.535-.941s.191-.629.191-.91v-.016c0-.453-.133-.805-.398-1.055s-.644-.375-1.133-.375c-.464 0-.839.137-1.125.41s-.461.66-.523 1.16v.008h-1.648v-.008c.094-.651.285-1.207.574-1.668s.663-.813 1.121-1.055.987-.363 1.586-.363c.677 0 1.255.116 1.734.348s.844.569 1.094 1.012.375.977.375 1.602v.008c0 .401-.083.82-.25 1.258s-.398.859-.695 1.266l-3.289 4.469h4.297v1.516H361.8v-1.385zM370.081 305.975h1.594v1.594l-1.594 1.578v-3.172zM373.706 304.444l3.813-8.227h1.641l-3.719 8.133h5.57v1.477h-7.305v-1.383zm4.898-3.555h1.555v6.688h-1.555v-6.688z"/></g><g><path d="M488.785 322.986l-.727-.348c-.485-.232-.874-.567-1.168-1.008s-.48-.97-.559-1.59h1.625c.047.323.148.589.305.797s.358.363.605.465.538.152.871.152c.526 0 .935-.141 1.227-.422s.438-.677.438-1.188v-.344c0-.567-.138-1.007-.414-1.316s-.667-.465-1.172-.465h-.805v-1.516h.805c.442 0 .786-.133 1.031-.398s.367-.641.367-1.125v-.352c0-.448-.129-.794-.387-1.039s-.624-.367-1.098-.367c-.271 0-.513.051-.727.152s-.395.258-.543.469-.257.476-.324.793h-1.617c.104-.62.301-1.151.59-1.594s.655-.778 1.098-1.008.95-.344 1.523-.344c.979 0 1.737.258 2.273.773s.805 1.242.805 2.18v.188c0 .567-.153 1.063-.461 1.484s-.742.729-1.305.922c.62.136 1.101.44 1.441.914s.512 1.078.512 1.813v.188c0 .661-.128 1.227-.383 1.695s-.626.825-1.113 1.07-1.074.367-1.762.367l-.951.002zM495.105 321.275h1.594v1.594l-1.594 1.578v-3.172zM502.91 317.228l-.008.281c-.13.239-.327.415-.59.527s-.574.168-.934.168c-.542 0-1.019-.138-1.43-.414s-.73-.665-.957-1.168-.34-1.085-.34-1.746v-.008c0-.734.124-1.362.371-1.883s.609-.917 1.086-1.188 1.048-.406 1.715-.406 1.237.138 1.711.414.835.677 1.082 1.203.371 1.159.371 1.898v.008c0 .406-.052.84-.156 1.301a8.052 8.052 0 01-.539 1.578c-.031.07-.065.14-.102.207l-2.422 4.867h-1.719l2.861-5.639zm.074-.984c.273-.339.41-.815.41-1.43v-.008c0-.599-.137-1.063-.41-1.391s-.66-.492-1.16-.492c-.505 0-.895.164-1.168.492s-.41.794-.41 1.398v.008c0 .614.137 1.09.41 1.426s.663.504 1.168.504c.5.001.886-.168 1.16-.507z"/></g><g><path d="M552.543 230.251l3.813-8.227h1.641l-3.719 8.133h5.57v1.477h-7.305v-1.383zm4.899-3.555h1.555v6.688h-1.555v-6.688zM561.645 231.782h1.594v1.594l-1.594 1.578v-3.172zM568.168 233.376h-1.594v-9.625l-1.617.992v-1.648l1.617-1.078h1.594v11.359z"/></g></g></svg>