<svg version="1.1" id="_x33_82" xmlns="http://www.w3.org/2000/svg" x="0" y="0" viewBox="0 0 488.895 712.327" xml:space="preserve"><style>.st0,.st1{fill-rule:evenodd;clip-rule:evenodd}.st0{fill:#fff}.st1{stroke:#999;stroke-width:.4}.st1,.st2,.st3{fill:none;stroke-linecap:round;stroke-linejoin:round;stroke-miterlimit:3}.st2{fill-rule:evenodd;clip-rule:evenodd;stroke:#999}.st3{stroke:#000}.st4,.st5,.st7,.st8{fill-rule:evenodd;clip-rule:evenodd}.st5,.st7,.st8{fill:none}.st5{stroke:#000;stroke-linecap:round;stroke-linejoin:round;stroke-miterlimit:3}.st7,.st8{stroke-miterlimit:22.9256}.st7{stroke-linecap:round;stroke-linejoin:round;stroke:#000}.st8{stroke:#666;stroke-width:.6}</style><path class="st0" d="M488.232 317.299V195.966h-41V.466H.464v334.167h201.768v377.131h245v-25.465h41V511.133h-41V317.299z" id="fon"/><g id="mebel_1_"><g id="mebel"><path class="st1" d="M54.211 317.363h.189m-29.378-11.335h8.292m12.793 0h49.57m-84.259-11.336h84.259m-84.259-11.336h84.259m-84.259-11.335h84.259m-2.451 39.839v-50.962M70.554 311.86v-50.962m-22.672 55.449v-55.449m-22.671 55.449v-55.449M270.35 423.896l4.817-4.817m-11.764 4.817l11.765-11.765m-18.712 11.765l18.712-18.712m-25.659 18.712l25.658-25.658m-32.605 25.658l32.605-32.605m-39.552 32.605l39.553-39.552m-46.5 39.552l46.5-46.499m-53.448 46.499l2.172-2.172m.641-.641l50.634-50.633m-60.393 53.446l2.173-2.172m7.586-7.587l11.833-11.833m8.828-8.827l29.974-29.973m-50.635 43.686l5.533-5.534m11.611-11.609l33.491-33.491M235.517 389.259l39.65-39.65m-47.416 40.47l47.417-47.417m-50.635 43.687l50.634-50.633m-50.634 43.686l11.43-11.43m3.686-3.685l34.101-34.101m-49.217 42.269l4.483-4.483m10.633-10.632l27.154-27.154M239.649 350.393l20.206-20.206M239.649 343.446l13.26-13.26M239.649 336.499l6.313-6.313M275.167 331.796l-1.61-1.609m1.61 8.556l-8.557-8.557m8.557 15.504l-15.504-15.503m15.504 22.45l-22.45-22.451m22.45 29.398l-29.398-29.397m29.398 36.344l-35.519-35.519m35.519 42.465l-35.519-35.519m35.519 42.467l-35.519-35.519m-14.669-14.67l-.05-.05m50.238 57.186l-35.519-35.518M275.167 394.318L239.649 358.8m35.518 42.466l-35.519-35.518M275.167 408.212l-40.24-40.24m40.24 47.187l-47.187-47.186M275.167 422.106l-50.634-50.633m45.478 52.423l-25.132-25.132m-9.492-9.491l-10.854-10.854m38.531 45.477l-22.146-22.146m-11.815-11.814l-4.57-4.57m31.584 38.53l-21.79-21.79M249.169 423.896l-22.609-22.61M242.222 423.896l-17.689-17.689m10.743 17.689l-10.742-10.742m3.794 10.742l-3.795-3.795m-3.151 3.795l-2.172-2.172m-4.775 2.172l-2.172-2.172M240.781 571.074h34.386m-34.386-11.336h34.386m-34.386-11.336h34.386m-34.386-11.336h34.386m-34.386-11.336h34.386m-49.499-11.336h49.5m-31.474-11.336h31.474m-49.5-11.336h6.813m9.426 0h33.261m-49.5-11.335h49.5m-8.881 95.032V479.82m-22.672 95.599v-72.325m0-10.651V479.82"/><path class="st2" d="M239.525 402.147l1.646-.469m0 .001l1.551-.718m0 0l1.23-.967m0 0l.943-1.249m0 0l.594-1.448m0 0l.205-1.551m0 0l-.205-1.551m0 0l-.594-1.447m0-.001l-.943-1.249m0 .001l-1.23-.967m0 0l-1.551-.719m0 0l-1.646-.469m0 0l-1.697-.207m0-.001l-1.709.059m0 .001l-11.585 1.223m0 0v10.654m0 0l11.585 1.223m0 0l1.709.06m0-.001l1.697-.208M230.255 391.629v4.116M230.255 395.746v4.117M244.522 392.682c.57.889.881 1.961.887 3.063M237.692 389.434c2.592-.165 5.107 1.031 6.83 3.248M230.255 391.629c2.252-1.505 4.827-2.266 7.437-2.195M237.692 402.058c-2.609.07-5.185-.69-7.437-2.195M244.522 398.81c-1.723 2.217-4.238 3.413-6.83 3.248M245.409 395.746a5.747 5.747 0 01-.887 3.064M224.533 391.098h.188v9.295h-.188zM224.534 391.098v9.295m0 0h.189m0 0v-9.295m0 0h-.189M224.534 405.192v-18.893M219.999 405.192v-18.893M224.534 405.192H220M224.534 386.299H220M224.534 367.406v-36.653m0 .001l.166-.401m0-.001l.4-.166m0 0h13.982m0 0l.4.166m0 0l.166.401m0 .001v36.653m0-.001l-.166.4m0 0l-.4.166m0 0H225.1m0 0l-.4-.166m0 0l-.166-.4M228.69 366.272v-16.739m0-.907v-16.74M229.257 331.32h8.69M238.514 331.887v34.386M237.948 366.839h-8.69M228.69 331.887c0-.312.254-.566.567-.566M237.948 331.32c.312 0 .566.254.566.566M238.514 366.272a.566.566 0 01-.566.566M229.257 366.839a.566.566 0 01-.567-.566M232.283 349.534a.755.755 0 01-1.208 0h1.208zm-1.21-.908a.755.755 0 011.21 0h-1.21zM225.063 348.626v.907m0 0h7.748m0 0l.301-.256m0 0v-.395m0 0l-.301-.256m0 0h-7.748M225.063 349.835v-1.512m0 0h-.265m0 0v1.512m0 0h.265M224.798 350.213v-2.267m0 0h-.265m0 0v2.267m0 0h.265M226.422 352.348h-1.624m0 0v-.094m0 0h-.132m0 0v-.284m0 0h-.133m0 0v1.889m0 0h.133m0 0v-.283m0 0h.132m0 0v-.095m0 0h1.624m0 0v-.321m0 0h.416m0 0v1.077m0 0h.491m0 0v-2.645m0 0h-.491m0 0v1.077m0 0h-.416m0 0v-.321M226.422 345.811h-1.624m0 0v.095m0 0h-.132m0 0v.283m0 0h-.133m0 0V344.3m0 0h.133m0 0v.283m0 0h.132m0 0v.095m0 0h1.624m0 0v.321m0 0h.416m0 0v-1.077m0 0h.491m0 0v2.645m0 0h-.491m0 0v-1.077m0 0h-.416m0 0v.321M226.838 353.161l.072-.072M226.838 352.67l.072.072M226.422 353.161v-.491M224.798 353.482v-1.133M224.666 352.254v1.322M226.838 344.999l.072.072M226.838 345.49l.072-.072M226.422 344.999v.491M224.798 344.678v1.133M224.666 345.906v-1.323M227.33 352.915a.246.246 0 11-.491 0 .246.246 0 01.491 0zM227.33 345.244a.246.246 0 11-.491 0 .246.246 0 01.491 0zM240.659 504.171l1.645-.469m0 0l1.551-.718m0 0l1.231-.968m0 0l.942-1.248m0 0l.594-1.448m0 0l.206-1.551m0 0l-.206-1.551m0 0l-.594-1.448m0 0l-.942-1.248m0 0l-1.231-.968m0 0l-1.551-.718m0 0l-1.645-.469m0 0l-1.697-.208m0 0l-1.71.06m0 0l-11.584 1.223m0 0v10.654m0 0l11.584 1.223m0 0l1.71.059m0 0l1.697-.207M231.388 493.652v4.117M231.388 497.769v4.117M245.656 494.705c.57.889.88 1.961.886 3.063M238.826 491.457c2.591-.165 5.106 1.031 6.83 3.248M231.388 493.652c2.253-1.506 4.828-2.266 7.437-2.195M238.826 504.081c-2.609.07-5.185-.69-7.437-2.195M245.656 500.832c-1.724 2.217-4.239 3.414-6.83 3.249M246.541 497.769a5.737 5.737 0 01-.886 3.063M225.667 493.121h.188v9.295h-.188zM225.668 493.121v9.295m0 0h.188m0 0v-9.295m0 0h-.188M225.668 507.215v-18.893M221.133 507.215v-18.893M225.668 507.215h-4.534M225.668 488.322h-4.534M275.168 423.897h-63.104m0 0v26.451m0 0h63.104m0 0v-26.451M267.805 448.231l.913-.081m0 0l.886-.238m0 0l.83-.389m0 0l.751-.53m0 0l.648-.652m0 0l.526-.755m0 0l.387-.836m0 0l.238-.891m0 0l.08-.918m0 0v-11.638m0 0l-.08-.919m0 0l-.238-.891m0 0l-.387-.835m0 0l-.526-.756m0 0l-.648-.652m0 0l-.751-.529m0 0l-.83-.389m0 0l-.886-.239m0 0l-.913-.08m0 0H225.21m0 0l-1.918.168m0 0l-1.858.502m0 0l-1.745.818m0 0l-1.577 1.11m0 0l-1.361 1.37m0 0l-1.104 1.586m0 0l-.814 1.755m0 0l-.498 1.871m0 0l-.168 1.929m0 0l.168 1.929m0 0l.498 1.87m0 0l.814 1.756m0 0l1.104 1.586m0 0l1.361 1.369m0 0l1.577 1.11m0 0l1.745.819m0 0l1.858.502m0 0l1.918.168m0 0h42.595M267.043 437.122a.946.946 0 11-1.891-.001.946.946 0 011.891.001zM129.69 326.975v-66.077M129.69 260.898H95.677M95.677 260.898v66.077M124.022 320.362a.944.944 0 11-1.889 0 .944.944 0 011.889 0zM112.648 313.991l1.396-.372m0 0l1.209-.793m0 0l.898-1.132m0 0l.496-1.358m0 0l.043-1.445m0 0l-.413-1.385m0 0l-.829-1.184m0 0l-1.158-.864m0 0l-1.372-.455m0 0h-1.447m0 0l-1.372.455m0 0l-1.159.864m0 0l-.828 1.184m0 0l-.413 1.385m0 0l.043 1.445m0 0l.496 1.358m0 0l.897 1.132m0 0l1.209.793m0 0l1.397.372m0 0v5.538m0 0l-.455-.108m0 0l-.49-.037m0 0l-.489.037m0 0l-.456.108m0 0l-.391.172m0 0l-.299.225m0 0l-.19.261m0 0l-.064.281m0 0v.402m0 0l.019.12m0 0l.064.278m0 0l.054.103m0 0l.182.251m0 0l.078.07m0 0l.274.205m0 0l.356.157m0 0l.196.052m0 0l.25.059m0 0l.019.688m0 0l.01.796m0 0h-1.729m0 0v.435m0 0h-2.872m0 0l-.159.058m0 0l-.083.149m0 0l.033.167m0 0l.133.105m0 0l.485.157m0 0l.727.315m0 0l1.007.574m0 0l.729.258m0 0v.125m0 0h-.604m0 0v.982m0 0h2.569m0 0v-.877m0 0l.063-.038m0 0l.032-.034m0 0l.025-.04m0 0l.279-.673m0 0h.697m0 0v1.36m0 0h-1.058m0 0v.302m0 0h3.023m0 0v-.302m0 0h-1.058m0 0v-1.36m0 0h1.436m0 0v-.152m0 0h.416m0 0v.303m0 0h-.152m0 0v.529m0 0h-.604m0 0v.982m0 0h2.569m0 0v-.982m0 0h-.604m0 0v-.529m0 0h-.152m0 0v-.302m0 0h.152m0 0v-1.512m0 0h-2.57m0 0v-2.154m0 0h-.083m0 0h-.093m0 0h-.124m0 0h-.149m0 0h-.042m0 0v-7.504M110.305 325.312h.209m0 0l-.14.341m0 0l-.326.053m0 0l-.008-.002m0 0v-.241m0 0h-.151m0 0v-.302m0 0h.416m0 0v.151M108.831 325.161v.241m0 0l-.677-.24m.001 0l-.987-.563m-.001 0l-.054-.023m0 0h1.567m0 0v.585m0 0h.151M114.688 325.992v-.529M115.369 325.992v-.529M109.031 325.992h-.351M109.889 325.464h-.188M109.701 325.464h-.681M109.02 325.464h-.014M109.701 325.639v-.176M109.02 325.468v-.004M108.831 325.161h1.058M111.183 323.65h.558M108.68 324.575v-.491M111.249 323.083h.491M105.884 324.096l-.076-.012M110.034 326.2l.047-.002M109.864 326.168l.17.032M110.578 326.116l.047-.01M110.625 326.107l.02-.009M108.68 325.868l.453.161M109.133 326.028l.73.139M109.989 325.695l.06.011M105.884 324.096l.513.167M106.397 324.263l.717.312M109.09 326.012h.001M110.08 326.198l.498-.082M111.739 321.595l.002.001M111.741 322.125l-.002.002M110.305 324.765v.127M110.305 325.01v.103M110.305 324.892v.118M110.514 325.312h.523M109.267 325.556l.722.139M108.831 325.401l.436.154M110.985 324.679h.001M110.894 324.723l.091-.044M110.796 324.738l.098-.015M110.699 324.723l.098.015M110.607 324.679l.092.044M110.607 324.679h.108a.108.108 0 10-.216 0 .108.108 0 00.216 0h-.108zM110.451 322.183l.346.025M110.796 322.208l.345-.025M110.38 322.166l.071.017M111.462 322.106l.195-.052M111.141 322.183l.321-.077M110.427 324.512l-.009-.062M111.658 322.054l.083-.036M111.212 322.166l-.02.688M111.174 324.45l-.01.062M111.164 324.512l-.025.058M111.139 324.569l-.043.05M111.096 324.619l-.055.038M111.041 324.657l-.056.021M110.985 324.678l-.007.003M110.978 324.681l-.068.008M110.91 324.689h-.228M110.683 324.689l-.068-.008M110.615 324.681l-.008-.003M110.607 324.678l-.057-.021M110.55 324.657l-.055-.038M110.496 324.619l-.042-.05M110.454 324.569l-.026-.058M111.193 322.854l-.019 1.595M110.409 323.65l.01.799M110.305 323.952h.107M111.18 323.952h.561M112.648 313.991v-5.343M111.741 313.991v-5.343M112.648 308.648h-.907M115.709 325.992h-1.36M115.557 325.464h-1.058M115.557 325.161h-1.058M114.083 325.161v-1.209M110.305 323.952v1.209M112.648 326.672h-.907M112.648 325.312v-3.816M111.741 319.529v5.783M114.083 323.952h-1.436M113.139 323.65h-.491M113.139 323.083h-.491M111.249 323.65v-1.493M111.741 311.314a1.89 1.89 0 11.907 0M114.083 324.035a.34.34 0 110 .589M95.111 326.975H54.967m0 0l-.4-.166m0 0l-.166-.401m0 0v-13.981m0 0l.166-.4m0 0l.4-.166m0 0h40.144m0 0l.4.166m0 0l.166.4m0 0v13.981m0 0l-.166.401m0 0l-.4.166M93.977 322.818H75.493m-.908 0H56.101M55.534 322.252v-8.692M56.101 312.994h37.876M94.543 313.561v8.691M56.101 322.818a.567.567 0 01-.566-.567M55.534 313.561c0-.313.254-.567.566-.567M93.977 312.994c.312 0 .566.254.566.567M94.543 322.252a.567.567 0 01-.566.567M75.794 319.83a.754.754 0 01-.301.604v-1.208a.754.754 0 01.301.604zm-1.209.605a.757.757 0 010-1.209v1.209zM74.585 326.446h.907m0 0v-7.749m0 0l-.256-.3m0 0h-.395m0 0l-.256.3m0 0v7.749M75.794 326.446h-1.511m0 0v.264m0 0h1.511m0 0v-.264M76.172 326.71h-2.267m0 0v.265m0 0h2.267m0 0v-.265M78.307 325.086v1.625m0-.001h-.094m0 0v.132m0 .001h-.284m0 0v.132m0 0h1.89m0 0v-.132m0 0h-.283m0 0v-.132m0-.001h-.095m0 0v-1.625m0 .001h-.322m0 0v-.416m0-.001h1.078m0 0v-.491m0 .001h-2.645m0 0v.491m0-.001h1.076m0 0v.416m0 .001h-.321M71.771 325.086v1.625m0-.001h.094m0 0v.132m0 .001h.284m0 0v.132m0 0h-1.89m0 0v-.132m0 0h.283m0 0v-.132m0-.001h.095m0 0v-1.625m0 .001h.322m0 0v-.416m0-.001h-1.078m0 0v-.491m0 .001h2.645m0 0v.491m0-.001H71.45m0 0v.416m0 .001h.321M79.12 324.67l-.071-.072M78.628 324.67l.072-.072M79.12 325.086h-.491M79.441 326.71h-1.134M78.213 326.842h1.322M70.959 324.67l.07-.072M71.45 324.67l-.072-.072M70.959 325.086h.491M70.637 326.71h1.134M71.865 326.842h-1.322M79.12 324.424a.245.245 0 11-.491 0 .246.246 0 01.491 0zM71.45 324.424a.246.246 0 11-.492 0 .246.246 0 01.492 0zM46.114 301.167l-.47-1.645m0 0l-.717-1.552m0 0l-.968-1.229m0 0l-1.248-.943m0-.001l-1.449-.594m0 .001l-1.55-.205m0 0l-1.551.205m0 0l-1.448.594m0-.001l-1.248.943m0 .001l-.968 1.229m0 0l-.718 1.552m0 0l-.47 1.645m0 0l-.207 1.698m0 0l.06 1.709m0 0l1.223 11.585m0 0h10.654m0 0l1.222-11.585m0 0l.06-1.709m0 0l-.207-1.698M35.595 310.437h4.116M39.711 310.437h4.116M36.648 296.17a5.742 5.742 0 013.063-.886M33.4 303c-.165-2.592 1.031-5.107 3.248-6.83M35.595 310.437c-1.506-2.253-2.266-4.828-2.195-7.437M46.023 303c.07 2.609-.689 5.184-2.195 7.437M42.775 296.17c2.217 1.723 3.413 4.238 3.248 6.83M39.711 295.284a5.74 5.74 0 013.063.886M35.063 315.969h9.295v.189h-9.295zM35.064 316.158h9.295m0 0v-.188m0 0h-9.295m0 0v.188M49.158 316.158H30.265M49.158 320.693H30.265M49.158 316.158v4.535M30.265 316.158v4.535M403.313 76.269h-28.391M373.789 75.136V46.745M374.922 45.612h28.391M404.447 46.745v28.391M413.843 36.216h-38.921M373.789 37.349v7.129M374.922 45.612h29.524M404.447 45.612v29.524M405.581 76.269h7.128M413.843 75.136v-38.92M374.922 41.506h33.631M408.553 41.506v33.63M373.789 34.704h41.565M415.354 34.704v41.565M373.789 34.704v2.645M412.709 76.269h2.645M405.581 76.269h-2.268M373.789 44.478v2.267M404.447 45.612l9.396-9.396M374.922 76.269a1.134 1.134 0 01-1.133-1.134M373.789 46.745c0-.626.508-1.133 1.133-1.133M403.313 45.612c.627 0 1.134.507 1.134 1.133M404.447 75.136c0 .626-.507 1.134-1.134 1.134M373.789 37.349c0-.626.508-1.133 1.133-1.133M374.922 45.612a1.134 1.134 0 01-1.133-1.134M405.581 76.269a1.134 1.134 0 01-1.134-1.134M413.843 75.136c0 .626-.508 1.134-1.134 1.134M374.922 41.506a1.134 1.134 0 01-1.133-1.134M409.686 76.269a1.134 1.134 0 01-1.133-1.134M336.003 34.704h37.786M336.003 34.704v2.645M373.789 34.704v2.645M336.003 44.478v2.267M373.789 44.478v2.267M372.656 76.269h-35.519M336.003 75.136V46.745M337.137 45.612h35.519M373.789 46.745v28.391M372.656 36.216h-35.519M336.003 37.349v7.129M337.137 45.612h35.519M373.789 44.478v-7.129M337.137 41.506h35.519M337.137 76.269a1.134 1.134 0 01-1.134-1.134M336.003 46.745c0-.626.507-1.133 1.134-1.133M372.656 45.612c.626 0 1.134.507 1.134 1.133M373.789 75.136c0 .626-.508 1.134-1.134 1.134M336.003 37.349c0-.626.507-1.133 1.134-1.133M337.137 45.612a1.134 1.134 0 01-1.134-1.134M373.789 44.478c0 .626-.508 1.134-1.134 1.134M372.656 36.216c.626 0 1.134.507 1.134 1.133M337.137 41.506a1.134 1.134 0 01-1.134-1.134M373.789 40.372c0 .626-.508 1.134-1.134 1.134M303.129 76.269h-4.157M298.217 75.514V35.46M298.972 34.704h4.157M303.884 35.46v40.054M303.129 34.704h32.874M336.003 34.704v2.645M336.003 44.478v2.267M334.869 76.269h-29.851M303.884 75.136V46.745M305.018 45.612h29.852M336.003 46.745v28.391M334.869 36.216h-29.851M303.884 37.349v7.129M305.018 45.612h29.852M336.003 44.478v-7.129M305.018 41.506h29.852M298.972 76.269a.756.756 0 01-.755-.756M298.217 35.46c0-.417.338-.756.755-.756M303.129 34.704c.417 0 .755.338.755.756M303.884 75.514a.756.756 0 01-.755.756M305.018 76.269a1.134 1.134 0 01-1.134-1.134M303.884 46.745c0-.626.508-1.133 1.134-1.133M334.869 45.612c.626 0 1.134.507 1.134 1.133M336.003 75.136c0 .626-.508 1.134-1.134 1.134M303.884 37.349c0-.626.508-1.133 1.134-1.133M305.018 45.612a1.134 1.134 0 01-1.134-1.134M336.003 44.478c0 .626-.508 1.134-1.134 1.134M334.869 36.216c.626 0 1.134.507 1.134 1.133M305.018 41.506a1.134 1.134 0 01-1.134-1.134M336.003 40.372c0 .626-.508 1.134-1.134 1.134M415.354 76.269v37.787M415.354 76.269h-2.645M415.354 114.056h-2.645M405.581 76.269h-2.268M405.581 114.056h-2.268M373.789 112.922V77.403M374.922 76.269h28.391M404.447 77.403v35.519M403.313 114.056h-28.391M413.843 112.922V77.403M412.709 76.269h-7.129M404.447 77.403v35.519M405.581 114.056h7.128M408.553 77.403v35.519M373.789 77.403c0-.626.508-1.133 1.133-1.133M403.313 76.269c.627 0 1.134.507 1.134 1.133M404.447 112.922c0 .626-.507 1.134-1.134 1.134M374.922 114.056a1.134 1.134 0 01-1.133-1.134M412.709 76.269c.626 0 1.134.507 1.134 1.133M404.447 77.403c0-.626.508-1.133 1.134-1.133M405.581 114.056a1.134 1.134 0 01-1.134-1.134M413.843 112.922c0 .626-.508 1.134-1.134 1.134M408.553 77.403c0-.626.507-1.133 1.133-1.133M409.686 114.056a1.134 1.134 0 01-1.133-1.134M225.668 564.084v-29.096m0 0l.166-.401m-.001 0l.4-.166m0 0h13.982m.001 0l.4.166m0 0l.166.401m-.001 0v29.096m0 0l-.166.4m.001 0l-.4.166m0 0h-13.982m-.001 0l-.4-.166m0 0l-.166-.4M229.824 562.95v-12.96m0-.907v-12.961M230.39 535.555h8.691M239.648 536.122v26.829M239.081 563.517h-8.691M229.824 536.122c0-.313.254-.566.566-.566M239.081 535.555c.312 0 .566.253.566.566M239.648 562.95a.566.566 0 01-.566.566M230.39 563.517a.566.566 0 01-.566-.566M233.417 549.99a.755.755 0 01-1.21 0h1.21zm-1.21-.907a.755.755 0 011.208 0h-1.208zM226.196 549.083v.907m0 0h7.748m0 0l.302-.256m0 0v-.395m0 0l-.302-.256m0 0h-7.748M226.196 550.292v-1.512m0 0h-.264m0 0v1.512m0 0h.264M225.932 550.67v-2.268m0 0h-.265m0 0v2.268m0 0h.265M227.556 552.804h-1.624m0 0v-.094m0 0h-.133m0 0v-.283m0 0h-.132m0 0v1.889m0 0h.132m0 0v-.284m0 0h.133m0 0v-.094m0 0h1.624m0 0v-.322m0 0h.416m0 0v1.078m0 0h.491m0 0v-2.645m0 0h-.491m0 0v1.076m0 0h-.416m0 0v-.321M227.556 546.268h-1.624m0 0v.094m0 0h-.133m0 0v.284m0 0h-.132m0 0v-1.89m0 0h.132m0 0v.284m0 0h.133m0 0v.094m0 0h1.624m0 0v.322m0 0h.416m0 0v-1.078m0 0h.491m0 0v2.646m0 0h-.491m0 0v-1.077m0 0h-.416m0 0v.321M227.972 553.617l.071-.072M227.972 553.125l.071.073M227.556 553.617v-.491M225.932 553.938v-1.134M225.799 552.71v1.322M227.972 545.455l.071.072M227.972 545.946l.071-.071M227.556 545.455v.491M225.932 545.134v1.134M225.799 546.362v-1.322M228.463 553.371a.246.246 0 11-.492 0 .246.246 0 01.492 0zM228.463 545.701a.246.246 0 11-.492 0 .246.246 0 01.492 0zM275.168 453.37h-63.104m0 0v26.45m0 0h63.104m0 0v-26.45M267.805 477.704l.913-.08m0 0l.886-.239m0 0l.83-.389m0 0l.751-.529m0 0l.648-.653m0 0l.526-.755m0 0l.387-.835m0 0l.238-.891m0 0l.08-.919m0 0v-11.638m0 0l-.08-.919m0 0l-.238-.89m0 0l-.387-.836m0 0l-.526-.756m0 0l-.648-.651m0 0l-.751-.53m0 0l-.83-.389m0 0l-.886-.239m0 0l-.913-.08m0 0H225.21m0 0l-1.918.169m0 0l-1.858.501m0 0l-1.745.818m0 0l-1.577 1.111m0 0l-1.361 1.369m0 0l-1.104 1.586m0 0l-.814 1.756m0 0l-.498 1.87m0 0l-.168 1.929m0 0l.168 1.929m0 0l.498 1.87m0 0l.814 1.755m0 0l1.104 1.587m0 0l1.361 1.369m0 0l1.577 1.111m0 0l1.745.818m0 0l1.858.502m0 0l1.918.168m0 0h42.595M267.043 466.595a.945.945 0 11-1.89-.003.945.945 0 011.89.003zM384.438 267.179l7.081-1.618m0 0l.715-.181m0 0l.679-.207m0 0l.629-.23m0 0l.56-.244m0 0l.021-.011m0 0l.478-.254m0 0l.376-.254m0 0l.025-.021m0 0l.266-.248m0 0l.023-.027m0 0l.145-.234m0 0l.018-.033m0 0l.01-.036m0 0l.005-.037m0 0l.02-.214m0 0l-.002-.038m0 0l-.004-.019m0 0l-.446-1.954m0 0l1.773-.405m0 0l-3.366-14.735m0 0l-1.774.405m0 0l-.262-1.152m0 0l-15.609 3.565m0 0l.263 1.152m0 0l-1.773.405m0 0l3.366 14.735m0 0l1.773-.405m0 0l.447 1.954m0 0l.004.019m0 0l.016.035m0 0l.109.185m0 0l.021.031m0 0l.025.028m0 0l.031.021m0 0l.232.148m0 0l.032.015m0 0l.348.108m0 0l.03.008m0 0l.45.065m0 0l.541.022m0 0h.024m0 0l.61-.023m0 0l.666-.067m0 0l.702-.107m0 0l.722-.147M394.773 260.167l-15.607 3.565M394.56 260.216l.354 1.547M379.378 263.684l.354 1.547M376.062 250.147l3.366 14.735M391.67 246.581l3.365 14.736M391.122 263.792l-7.095 1.621M394.914 261.763c.14.61-1.559 1.519-3.791 2.029M384.028 265.412c-2.233.51-4.156.429-4.296-.181M354.801 267.179l-7.081-1.618m0 0l-.715-.181m0 0l-.679-.207m0 0l-.629-.23m0 0l-.559-.244m0 0l-.021-.011m0 0l-.478-.254m0 0l-.377-.254m0 0l-.024-.021m0 0l-.267-.248m0 0l-.022-.027m0 0l-.145-.234m0 0l-.018-.033m0 0l-.011-.036m0 0l-.004-.037m0 0l-.02-.214m0 0l.002-.038m0 0l.004-.019m0 0l.446-1.954m0 0l-1.773-.405m0 0l3.365-14.735m0 0l1.775.405m0 0l.262-1.152m0 0l15.609 3.565m0 0l-.264 1.152m0 0l1.774.405m0 0l-3.366 14.735m0 0l-1.773-.405m0 0l-.447 1.954m0 0l-.005.019m0 0l-.015.035m0 0l-.11.185m0 0l-.021.031m0 0l-.025.028m0 0l-.03.021m0 0l-.233.148m0 0l-.031.015m0 0l-.348.108m0 0l-.031.008m0 0l-.449.065m0 0l-.541.022m0 0h-.025m0 0l-.61-.023m0 0l-.666-.067m0 0l-.701-.107m0 0l-.723-.147M344.466 260.167l15.608 3.565M344.679 260.216l-.354 1.547M359.862 263.684l-.354 1.547M363.178 250.147l-3.366 14.735M347.57 246.581l-3.366 14.736M348.118 263.792l7.094 1.621M348.118 263.792c-2.233-.51-3.932-1.418-3.792-2.029M359.508 265.231c-.14.61-2.063.692-4.296.181M415.026 454.077l-1.617-7.081m0 0l-.181-.714m0 0l-.208-.679m0 0l-.229-.629m0 0l-.244-.56m0 0l-.011-.021m0 0l-.254-.478m0 0l-.255-.377m0 0l-.021-.024m0 0l-.248-.267m0 0l-.027-.022m0 0l-.234-.145m0 0l-.033-.018m0 0l-.036-.01m0 0l-.037-.005m0 0l-.214-.019m0 0l-.038.002m0 0l-.019.003m0 0l-1.953.446m0 0l-.406-1.773m0 0l-14.735 3.366m0 0l.405 1.774m0 0l-1.152.263m0 0l3.565 15.608m0 0l1.153-.264m0 0l.405 1.774m0 0l14.734-3.366m0 0l-.405-1.773m0 0l1.955-.447m0 0l.018-.005m0 0l.035-.015m0 0l.185-.11m0 0l.032-.02m0 0l.027-.026m0 0l.022-.03m0 0l.148-.233m0 0l.015-.031m0 0l.108-.347m0 0l.007-.032m0 0l.065-.449m0 0l.022-.541m0 0v-.024m0 0l-.023-.611m0 0l-.066-.666m0 0l-.108-.701m0 0l-.147-.723M408.014 443.743l3.565 15.608M408.063 443.956l1.547-.353M411.532 459.138l1.547-.354M397.994 462.454l14.735-3.366M394.428 446.846l14.735-3.366M411.639 447.394l1.62 7.095M409.61 443.602c.61-.139 1.52 1.558 2.029 3.792M413.259 454.488c.511 2.233.429 4.157-.181 4.296M416.563 493.897l-1.618 7.081m0 0l-.181.714m0 0l-.208.679m0 0l-.229.629m0 0l-.244.56m0 0l-.011.021m0 0l-.254.478m0 0l-.254.377m0 0l-.021.025m0 0l-.248.266m0 0l-.028.022m0 0l-.233.146m0 0l-.034.017m0 0l-.035.011m0 0l-.037.005m0 0l-.215.018m0 0l-.038-.002m0 0l-.018-.003m0 0l-1.954-.446m0 0l-.406 1.774m0 0l-14.735-3.367m0 0l.405-1.773m0 0l-1.151-.263m0 0l3.565-15.608m0 0l1.152.263m0 0l.405-1.774m0 0l14.734 3.366m0 0l-.404 1.774m0 0l1.954.446m0 0l.019.005m0 0l.035.015m0 0l.184.11m0 0l.032.02m0 0l.027.026m0 0l.023.03m0 0l.147.233m0 0l.015.031m0 0l.108.348m0 0l.008.031m0 0l.064.45m0 0l.023.541m0 0v.023m0 0l-.024.611m0 0l-.065.666m0 0l-.109.701m0 0l-.146.723M409.55 504.232l3.565-15.608M409.599 504.019l1.548.354M413.068 488.837l1.547.353M399.531 485.52l14.734 3.366M395.965 501.128l14.734 3.366M413.175 500.581l1.621-7.095M413.175 500.581c-.51 2.233-1.419 3.931-2.028 3.792M414.615 489.19c.61.139.691 2.063.181 4.296M206.018 182.064h102.968m0 0v-21.161m0 0H206.018m0 0v21.161M369.444 160.904h54.034m0 0v21.161m0 0h-54.034m0 0v-21.161M369.049 201.866l.044-.216M369.093 201.65l.124-.184M369.217 201.466l.185-.123M369.402 201.343l.218-.042M359.318 209.693l-.194-.106M359.124 209.586l-.138-.173M358.986 209.413l-.061-.212M358.925 209.2l.026-.219M358.951 208.982l.108-.193M359.06 208.789l.175-.137M359.235 208.653l.214-.061M359.449 208.593l.219.025M359.383 209.717l-.066-.024M359.318 209.693l-1.339-.43M357.979 209.263l-.073-.143M357.906 209.12l.282-.86M358.188 208.26l.145-.072M358.332 208.188l1.336.43M361.404 208.272l.359-.578M369.025 202.533l.024-.667M369.049 201.866v-1.394M369.049 200.472l.114-.113M369.164 200.358h.455M370.19 201.866l-.043-.216M370.147 201.65l-.124-.184M370.023 201.466l-.185-.123M369.838 201.343l-.219-.042M379.922 209.693l.194-.106M380.117 209.586l.138-.173M380.254 209.413l.061-.212M380.315 209.2l-.026-.219M380.288 208.982l-.108-.193M380.18 208.789l-.175-.137M380.005 208.653l-.215-.061M379.79 208.593l-.218.025M379.856 209.717l.067-.024M379.922 209.693l1.338-.43M381.26 209.263l.073-.143M381.334 209.12l-.282-.86M381.051 208.26l-.144-.072M380.908 208.188l-1.336.43M377.857 208.306l-.233-.375M377.624 207.932l-.34-.162M370.214 202.518l-.024-.652M370.19 201.866v-1.394M370.19 200.472l-.113-.113M370.077 200.358h-.457M359.147 211.505l.037-.679m0 0l.329-1.826m0 .001l.493-1.221m0-.001l.583-.428m0 .001l.582.428m0-.001l.494 1.221m0 .001l.329 1.826m0-.001l.037.679M380.093 211.505l-.037-.679m0 0l-.329-1.826m0 .001l-.494-1.221m0-.001l-.582-.428m0 .001l-.583.428m0-.001l-.493 1.221m0 .001l-.33 1.826m0-.001l-.037.679M363.694 204.397l.977-.294M361.411 205.638l-.301.412M362.153 205.041l-.742.597M363.694 204.397l-1.541.644M368.213 202.561l1.406-.069M369.62 206.601l-2.154.09M367.466 206.691l-2.084.3M365.382 206.991l-1.945.538M363.437 207.529l-1.475.291M361.962 207.82l-.673-.442M361.29 207.378l-.193-.669M361.097 206.708l-.033-.397M361.064 206.311l.046-.261M361.11 206.05v-.461M361.11 205.589l.301-.412M361.411 205.177l1.178-1.108M362.589 204.069l.959-.418M363.548 203.651l1.198-.442M364.747 203.209l1.819-.413M366.567 202.796l1.646-.235M375.546 204.397l-.906-.272M377.829 205.638l.301.412M377.086 205.041l.742.597M375.546 204.397l1.54.644M371.027 202.561l-1.407-.069M369.62 206.601l2.153.09M371.774 206.691l2.084.3M373.858 206.991l1.945.538M375.803 207.529l1.475.291M377.278 207.82l.672-.442M377.95 207.378l.192-.669M378.142 206.708l.033-.397M378.175 206.311l-.046-.261M378.129 206.05v-.461M378.129 205.589l-.301-.412M377.829 205.177l-1.179-1.108M376.65 204.069l-.959-.418M375.691 203.651l-1.198-.442M374.493 203.209l-1.819-.413M372.673 202.796l-1.646-.235M367.325 202.971l-.757.126m0 0l-.75.163m0 0l-1.109.267m0 0l-.104.139m0 0l.009.272m0 0l.181.732m0 0l.235.492m0 0l.315.152m0 0l.922-.223m0 0l.662-.143m0 0l.667-.112m0 0l.672-.08m0 0l.675-.048m0 0l.677-.016m0 0l.677.016m0 0l.674.048m0 0l.673.08m0 0l.667.112m0 0l.662.143m0 0l.923.223m0 0l.315-.152m0 0l.235-.492m0 0l.18-.732m0 0l.01-.272m0 0l-.105-.139m0 0l-1.108-.267m0 0l-.75-.163m0 0l-.757-.126m0 0l-.763-.091m0 0l-.765-.054m0 0l-.768-.019m0 0l-.768.019m0 0l-.765.054m0 0l-.762.091M346.948 211.505v20.405m0 .001h45.344m0 0v-20.405m0-.001h-45.344M401.262 369.584l-.108.195M401.154 369.779l-.173.138M400.981 369.917l-.212.06M400.769 369.977l-.22-.026M400.549 369.95l-.192-.108M400.357 369.842l-.136-.175M400.221 369.667l-.061-.214M400.16 369.453l.027-.221M393.434 359.853l-.217-.043M393.217 359.809l-.183-.124M393.034 359.686l-.122-.186M392.912 359.5l-.043-.218M401.262 369.584l-.432 1.338M400.831 370.922l-.144.074M400.688 370.996l-.859-.282M399.829 370.714l-.073-.144M399.755 370.57l.432-1.338M399.819 367.485l-.552-.343M394.088 359.876l-.654-.023M393.434 359.853h-1.395M392.039 359.853l-.113-.114M391.926 359.738v-.456M401.262 348.98l-.108-.195M401.154 348.785l-.173-.138M400.981 348.647l-.212-.06M400.769 348.587l-.22.026M400.549 348.613l-.192.109M400.357 348.722l-.136.175M400.221 348.897l-.061.214M400.16 349.111l.027.221M393.434 358.712l-.217.043M393.217 358.755l-.183.124M393.034 358.879l-.122.185M392.912 359.064l-.043.219M401.262 348.98l-.432-1.339M400.831 347.642l-.144-.073M400.688 347.568l-.859.282M399.829 347.85l-.073.144M399.755 347.994l.432 1.338M399.873 351.046l-.607.377M394.088 358.688l-.654.024M393.434 358.712h-1.395M392.039 358.712l-.113.114M391.926 358.826v.457M403.073 369.755l-.678-.037m0 0l-1.827-.329m0 0l-1.22-.494m0 0l-.429-.582m0 0l.429-.582m0 0l1.22-.493m0 0l1.827-.33m0 0l.678-.037M403.073 348.809l-.678.036m0 .001l-1.827.33m0 0l-1.22.493m0-.001l-.429.582m0 0l.429.583m0 .001l1.22.493m0 0l1.827.329m0 0l.678.037M394.129 360.689l-.069-1.407M398.168 359.282l.091 2.153M398.259 361.436l.3 2.084M398.559 363.52l.538 1.945M399.097 365.465l.291 1.475M399.388 366.939l-.441.673M398.947 367.612l-.671.192M398.276 367.804l-.397.034M397.878 367.838l-.261-.046M397.618 367.792h-.46M397.158 367.792l-.413-.301M396.745 367.491l-1.108-1.178M395.637 366.312l-.418-.959M395.219 365.353l-.442-1.198M394.777 364.155l-.412-1.819M394.365 362.336l-.235-1.647M394.129 357.875l-.069 1.407M398.168 359.282l.091-2.154M398.259 357.129l.3-2.085M398.559 355.044l.538-1.945M399.097 353.099l.291-1.475M399.388 351.624l-.441-.672M398.947 350.952l-.671-.192M398.276 350.76l-.397-.034M397.878 350.726l-.261.046M397.618 350.772h-.46M397.158 350.772l-.413.301M396.745 351.073l-1.108 1.179M395.637 352.252l-.418.958M395.219 353.211l-.442 1.198M394.777 354.409l-.412 1.819M394.365 356.228l-.235 1.647M394.539 361.578l.126.757m0 0l.163.75m0 0l.267 1.108m0 0l.139.105m0 0l.272-.01m.001 0l.732-.18m-.001 0l.492-.236m.001 0l.152-.313m-.001 0l-.224-.924m.001 0l-.142-.661m0 0l-.112-.668m0 0l-.08-.672m0 0l-.048-.675m-.001 0l-.016-.676m.001 0l.016-.677m-.001 0l.048-.675m.001 0l.08-.673m0 0l.112-.667m0 0l.142-.661m0 0l.224-.924m-.001 0l-.152-.314m.001 0l-.492-.236m-.001 0l-.732-.179m.001 0l-.272-.01m-.001 0l-.139.104m0 0l-.267 1.109m0 0l-.163.75m0 0l-.126.757m0 0l-.091.762m0 0l-.055.766m0 0l-.018.768m0 0l.018.767m0 0l.055.766m0 0l.091.762M403.074 381.954h20.404m0 0v-45.343m0 0h-20.404m0 0v45.343M240.782 534.421h-15.114m0 0v-10.769m0 .001h15.114m0 0v10.769M240.782 564.651h-15.114m0 0v10.769m0-.001h15.114m0 0V564.65M158.786 135.776v19.271m0 0l-.222.534m0 0l-.534.221m0 .001h-17.382m-.001 0l-.534-.221m0-.001l-.222-.534m0 0v-19.271m0 0l.222-.535m0 .001l.534-.221m0-.001h17.382m.001 0l.534.221m0 .001l.222.535M162.564 134.076v22.672M139.892 134.076v22.672M162.564 134.076h-22.672M162.564 156.748h-22.672M156.896 137.666v15.492M156.14 153.914h-11.714M143.671 153.158v-7.003m0-1.488v-7.001M144.426 136.91h11.714M156.896 137.666h.108a.108.108 0 10-.216 0 .108.108 0 00.216 0h-.108zM156.896 153.158a.756.756 0 01-.756.756M144.426 153.914a.755.755 0 01-.755-.756M143.671 137.666c0-.417.338-.756.755-.756M156.14 136.91c.418 0 .756.338.756.756M148.503 145.071l.24.101m0 0l.099.24m0 0l-.1.24m0 0l-.241.099m0 0h-7.476m0 0l-.24-.099m0 0l-.099-.241m0 0l.099-.24m0 0l.24-.1m0 0h7.478M142.953 144.657v.414m0 0h-1.927m0 0l-.24.1m0 0l-.1.24m-.001 0l.1.241m.001 0l.24.099m0 0h1.927m0 0v.415m0 0h-2.456m0 0v-1.509m0 0h2.456M144.313 144.667v.404m0 0h-1.322m0 0v-.404m0 0h1.322M144.313 146.156h-1.322m0 0v-.404m0 0h1.322m0 0v.404M162.564 111.404v22.672M139.892 111.404v22.672M162.564 111.404h-22.672M162.564 134.076h-22.672M160.486 68.233v21.916m0 0H141.97m0 0V68.233m0 0h18.516M149.206 79.191h-5.3M143.907 79.191v1.095M149.206 79.191v1.095M149.206 88.045h-5.3M143.907 86.949v1.096M149.206 86.949v1.096M149.079 72.945a2.74 2.74 0 11-5.479 0 2.74 2.74 0 015.479 0zM158.547 74.216a3.968 3.968 0 11-7.936 0 3.968 3.968 0 017.936 0z"/><path class="st2" d="M156.846 74.216a2.268 2.268 0 11-4.536 0 2.268 2.268 0 014.536 0zM149.17 83.618a2.646 2.646 0 11-5.291-.001 2.646 2.646 0 015.291.001zM158.517 84.736a3.4 3.4 0 11-6.801 0 3.4 3.4 0 016.801 0zM162.564 46.979v64.424M139.892 46.979v64.424M162.564 46.979h-22.672M162.564 111.404h-22.672M162.564 156.748v22.671m0 0h-22.672m0 0v-22.671m0 0h22.672M147.45 168.084h7.557M148.556 165.412l5.344 5.344M151.228 164.305v7.558M153.9 165.412l-5.344 5.344M162.564 46.979V24.306m0 0h-22.672m0 0v22.672m0 .001h22.672M323.723 502.534h1.699m0 0v-67.146m0 0h-1.699m0 0v67.146M357.73 502.534v-33.573m0 0h-23.806m0 0v33.573m0 0h23.806M357.73 468.961v-33.573m0 0h-23.806m0 0v33.573m0 0h23.806M357.73 435.388v-9.598m0 0h-34.007m0 0v9.598m0 0h1.699m8.502 0h23.806M357.73 512.132v-9.598m0 0h-23.806m-8.502 0h-1.699m0 0v9.598m0 0h34.007M325.422 468.961h8.502m0 0v-38.372m0 0h-8.502m0 0v38.372M325.422 468.961h8.502m0 0v38.372m0 0h-8.502m0 0v-38.372M156.58 119.583a3.41 3.41 0 11-6.822 0 3.41 3.41 0 016.822 0z"/><path class="st2" d="M156.059 119.583a2.89 2.89 0 11-5.78 0 2.89 2.89 0 015.78 0zM156.58 125.892a2.579 2.579 0 11-5.158 0 2.579 2.579 0 015.158 0z"/><path class="st2" d="M155.446 125.892a1.444 1.444 0 11-2.888.002 1.444 1.444 0 012.888-.002z"/><circle class="st2" cx="222.855" cy="316.189" r="7.179"/><path class="st2" d="M24.644 130.953a3.778 3.778 0 11-7.558 0 3.78 3.78 0 017.558 0z"/><path class="st2" d="M21.999 130.953a1.133 1.133 0 11-2.265 0 1.133 1.133 0 012.265 0zM24.644 42.155a3.778 3.778 0 11-7.558 0 3.78 3.78 0 017.558 0z"/><path class="st2" d="M21.999 42.155a1.134 1.134 0 11-2.267.001 1.134 1.134 0 012.267-.001zM315.787 691.423a3.778 3.778 0 11-7.557.001 3.778 3.778 0 017.557-.001z"/><path class="st2" d="M313.142 691.423a1.134 1.134 0 11-2.267 0 1.134 1.134 0 012.267 0zM404.585 691.423a3.779 3.779 0 11-7.558 0 3.779 3.779 0 017.558 0z"/><path class="st2" d="M401.94 691.423a1.134 1.134 0 11-2.267.001 1.134 1.134 0 012.267-.001zM360.136 157.918v1.02m0 0l-44.369.001m0 0v-1.02m0 0l44.369-.001M350.675 158.938v.833m0 0l-.151.566m0 0l-.415.415m0 0l-.568.152m0 0h-22.699m0 0l-.566-.152m0 0l-.415-.415m0 0l-.152-.566m0 0v-.833m0 0h24.966M360.136 157.621v.297m0 0l-44.369.001m0 0v-.298m0 0h44.369M90.77 120.562V52.547m0 0H15.198m0 0v68.015m0 0H90.77M92.659 118.672V54.436m0 0l-.144-.723m0 0l-.41-.613m.001 0l-.613-.41m-.001 0l-.723-.143m.001 0v68.014m0 0l.723-.143m-.001.001l.613-.41m.001-.001l.41-.613m-.001 0l.144-.723M11.418 120.562V52.547m0 0h3.779m0 0v68.015m0 0h-3.779M11.418 52.547v68.015m0 0h1.89m0 0V52.547m0 0h-1.89M11.418 50.657V33.653m0 0h18.894m0 0v17.004m0 0H11.418M11.418 122.451v17.004m0 0h18.894m0 0v-17.004m0 0H11.418M17.086 80.508V54.814m0 0l.111-.268m0 0l.267-.11m0 0h12.47m0 0l.267.11m0 0l.111.268m0 0v25.694m0 0l-.111.267m0 0l-.267.111m0 0h-12.47m0 0l-.267-.111m0 0l-.111-.267M17.086 92.6v25.694m0 0l.111.268m0 0l.267.11m0 0h12.47m0 0l.267-.11m0 0l.111-.268m0 0V92.6m0 0l-.111-.267m0 0l-.267-.111m0 0h-12.47m0 0l-.267.111m0 0l-.111.267M29.288 120.562v-1.889M29.288 92.222V80.886M29.288 54.436v-1.889M34.298 120.562V52.547m0 0h18.686m0 0l-14.908 68.015m0 0h-3.778M320.7 207.759v-22.672m0 0H209.042m0 0v22.672m0 0H320.7M209.042 196.423v.756m0 0H320.7m-.001 0v-.756m0 0H209.042M314.113 206.144v-18.626m0 0h-.756m0 0v18.626m0 0h.756M312.108 206.144v-18.626m0 0h-.756m0 0v18.626m0 0h.756M310.104 206.144v-18.626m0 0h-.756m0 0v18.626m0 0h.756M308.099 206.144v-18.626m0 0h-.756m0 0v18.626m0 0h.756M303.853 206.008l2.241-18.491m0 .001l-.75-.091m0-.001l-2.241 18.492m0 0l.75.09M423.478 576.931v-21.155m0 0h-99.755m0 0v21.155m0 0h99.755M323.723 566v.706m0 .001h99.755m0 0V566m0 0h-99.755M417.332 575.071v-17.38m0 0h-.705m0 0v17.38m0 0h.705M415.461 575.071v-17.38m0 0h-.705m0 0v17.38m0 0h.705M413.59 575.071v-17.38m0 0h-.704m0 0v17.38m0 0h.704M411.72 575.071v-17.38m0 0h-.705m0 0v17.38m0 0h.705M407.758 574.945l2.092-17.254m0 0l-.7-.085m0 0l-2.092 17.255m0 0l.7.084M11.418 257.875H34.09m0 0V141.633m0 0H11.418m0 0v116.242M22.754 141.633h-.756m0 0v116.242m0 0h.756m0 0V141.633M13.034 251.288H31.66m0 0v-.756m0 0H13.034m0 0v.756M13.034 249.283H31.66m0 0v-.756m0 0H13.034m0 0v.756M13.034 247.279H31.66m0 0v-.755m0 0H13.034m0 0v.755M13.034 245.274H31.66m0 0v-.756m0 0H13.034m0 0v.756M13.169 241.028l18.49 2.241m0 0l.091-.75m0 .001l-18.49-2.241m0-.001l-.091.75M107.018 219.473h22.672m0 0v-77.84m0 0h-22.672m0 0v77.84M118.354 141.633h-.756m0 0v77.84m0 0h.756m0 0v-77.84M108.633 212.886h18.626m0 0v-.756m0 0h-18.626m0 0v.756M108.633 210.882h18.626m0 0v-.755m0 0h-18.626m0 0v.755M108.633 208.877h18.626m0 0v-.756m0 0h-18.626m0 0v.756M108.633 206.872h18.626m0 0v-.756m0 0h-18.626m0 0v.756M108.769 202.626l18.49 2.242m0 0l.091-.751m0 0l-18.49-2.241m0 0l-.091.75M60.542 214.183h18.893m-.001 0v-37.786m0 0H60.542m0 0v37.786M155.376 115.514v.964m0 0h1.204m0 0v12.524m0 0h-1.204m0 0v.963M145.373 116.978v9.634m0 0h.478m-.001 0v-.722m0 0h-.238m0 0v-8.189m0 0h.238m0 0v-.723m0 0h-.478M145.85 116.978l.104.047m.102.047l.104.048m.103.047l.103.047m.103.047l.103.048m.103.046l.103.048m.103.047l.103.047m.103.047l.104.047m.102.047l.104.048m.102.047l.104.047m.102.047l.104.047m.103.047l.103.048m.104.047l.102.046m.104.048l.102.047m.104.047l.102.047m.104.048l.102.047m.104.047l.103.047m.103.047l.103.047M145.85 126.612l.104-.047m.102-.048l.104-.047m.103-.047l.103-.047m.103-.047l.103-.047m.103-.047l.103-.048m.103-.047l.103-.047m.103-.047l.104-.047m.102-.048l.104-.047m.102-.047l.104-.047m.102-.047l.104-.047m.103-.047l.103-.047m.104-.048l.102-.047m.104-.047l.102-.047m.104-.048l.102-.046m.104-.048l.102-.047m.104-.047l.103-.047m.103-.047l.103-.048M145.85 116.978v.078m0 .113v.114m0 .113v.113m0 .114v.078m0 0l.052.042m.088.071l.088.072m.087.071l.088.071m.089.072l.088.071m.088.072l.088.071m.088.072l.088.071m.088.071l.087.072m.088.072l.089.071m.088.071l.088.072m.088.071l.088.072m.088.071l.088.072m.087.071l.089.071m.088.072l.088.071m.088.072l.088.071m.088.072l.088.071m.088.071l.087.072m.089.071l.088.072m.088.072l.088.071m.088.071l.088.072m.088.071l.088.071m.088.072l.088.072m.088.071l.088.071m.088.072l.052.042M145.85 126.612v-.078m0-.113v-.114m0-.113v-.113m0-.114v-.078m0 0l.052-.042m.088-.071l.088-.072m.087-.071l.088-.072m.089-.071l.088-.071m.088-.072l.088-.071m.088-.072l.088-.071m.088-.072l.087-.071m.088-.071l.089-.072m.088-.071l.088-.072m.088-.071l.088-.072m.088-.071l.088-.072m.087-.071l.089-.072m.088-.071l.088-.071m.088-.072l.088-.071m.088-.072l.088-.071m.088-.072l.087-.071m.089-.071l.088-.072m.088-.072l.088-.071m.088-.071l.088-.072m.088-.071l.088-.072m.088-.071l.088-.072m.088-.071l.088-.072m.088-.071l.052-.042M322.4 621.519h68.016m0 0v75.573m0 0H322.4m0 0v-75.573M324.289 619.629h64.236m0 0l.724.144m0 0l.612.409m0 0l.41.614m0 0l.144.722m0 0H322.4m0 0l.145-.722m-.001 0l.409-.614m0 0l.613-.409m0 0l.723-.144M322.4 700.87h68.016m0 0v-3.779m0 0H322.4m0 0v3.779M390.415 700.87H322.4m0 0v-1.89m0 0h68.016m-.001 0v1.89M392.305 700.87h17.004m0 0v-18.893m0 0h-17.004m0 0v18.893M320.51 700.87h-17.004m0 0v-18.893m0 0h17.004m0 0v18.893M362.454 695.202h25.694m-.001 0l.268-.111m.001 0l.11-.267m0 0v-12.469m0 0l-.11-.268m0 0l-.268-.11m-.001 0h-25.694m.001 0l-.268.11m0 0l-.11.268m0 0v12.469m0 0l.11.267m0 0l.268.111M350.362 695.202h-25.694m0 0l-.268-.111m0 0l-.11-.267m0 0v-12.469m0 0l.11-.268m0 0l.268-.11m0 0h25.694m0 0l.268.11m0 0l.11.268m0 0v12.469m0 0l-.11.267m0 0l-.268.111M322.4 683h1.89M350.74 683h11.336M388.526 683h1.89M322.4 677.991h68.016m0 0v-18.686m0 0L322.4 674.212m0 0v3.779M223.4 689.899l.756-.756m0 0v-98.231m0 0l-.756-.756m0 0v99.743M216.846 315.496l1.233-.449m0 0h1.313m0 0l1.233.449m0 0l1.473-.342m0 0h1.513m0 0l1.473.342m0 0l1.235-.45m0 0h1.313m0 0l1.235.45m0 0l-2.232-2.987m0 0h-7.557m0 0l-2.232 2.987M219.078 312.247h7.557m.001 0v.262m0 0h-7.557m-.001 0v-.262M219.078 311.724h7.557m.001 0v.262m0 0h-7.557m-.001 0v-.262M223.698 317.011l-.891.085m0 0l-.021-.226m0 0l.476-.045m0 0l-1.382-1.142m0 0l.125-.153m0 0l.642.53m0 0l.068-.081m0 0l-.741-.611m0 0l.121-.146m0 0l.74.61m0 0l.081-.097m0 0l-.602-.496m0 0l.108-.13m0 0l.601.496m0 0l.08-.097m0 0l-.414-.343m0 0l.115-.139m0 0l1.422 1.174M210.93 327.164h23.257m0 0v-22.672m0 0H210.93m0 0v22.672M234.187 327.164v-22.672m0 0h18.309m0 0v-47.044m0 0h22.671m0 0v69.716m0 0h-40.98M263.454 315.45l.756.756m0 0h-30.023m0 0v-.756m0 0h29.267M240.774 325.171v-18.626m0 0h.756m0 0v18.626m0 0h-.756M242.778 325.171v-18.626m0 0h.756m0 0v18.626m0 0h-.756M244.783 325.171v-18.626m0 0h.756m0 0v18.626m0 0h-.756M246.788 325.171v-18.626m0 0h.756m0 0v18.626m0 0h-.756M251.034 325.036l-2.241-18.491m0 0l.75-.091m0 0l2.241 18.491m0 0l-.75.091M263.454 257.448h.756m0 0v58.758m0 0l-.756-.756m0 0v-58.002M139.892 200.206h22.672m0 0v7.553m0 0h-22.672m0 0v-7.553M323.723 333.588h99.755m0 0v-14.737m0 0h-99.755m0 0v14.737M240.782 564.651h-15.114m0 0v10.769m0-.001h15.114m0 0V564.65M240.782 523.653h-15.114m0 0v10.769m0-.001h15.114m0 0v-10.769M278.19 625.298h-19.555m0 0v30.594m0-.001h19.555m0 0v-30.594M207.53 326.975h-18.326m0 0v-72.55m0 0h18.326m0 0v72.55M278.19 602.625v-24.183m0 .001h-66.126m0 0v122.428m0 0h66.126m0 0v-22.307m0 0h-43.454m0 0v-75.938m0-.001h43.454M223.4 590.156l.756.756m0 0h54.034m0 0v-.756m0 0H223.4M274.453 581.59v18.626m0 0h-.756m0 0V581.59m0 0h.756M272.449 581.59v18.626m0 0h-.756m0 0V581.59m0 0h.756M270.444 581.59v18.626m0 0h-.756m0 0V581.59m0 0h.756M268.439 581.59v18.626m0 0h-.756m0 0V581.59m0 0h.756M264.193 581.725l2.241 18.491m0 0l-.75.091m0 0l-2.241-18.491m0 0l.75-.091M223.4 689.899l.756-.756m0 0h54.034m0 0v.756m0 0H223.4M242.678 698.466V679.84m0 0h.756m0 0v18.626m0 0h-.756M244.682 698.466V679.84m0 0h.756m0 0v18.626m0 0h-.756M246.687 698.466V679.84m0 0h.756m0 0v18.626m0 0h-.756M248.692 698.466V679.84m0 0h.756m0 0v18.626m0 0h-.756M252.938 698.33l-2.242-18.49m0 0l.751-.092m0 0l2.241 18.491m0 0l-.75.091M21.726 134.632l-.86-3.679m0 0l-3.431-1.584m0 0l3.431 1.584m0 0l3.546-1.306M21.726 38.476l-.86 3.68m0 0l-3.431 1.583m0 0l3.431-1.583m0 0l3.546 1.306M308.33 692.284l3.679-.86m0 0l1.584-3.431m0 0l-1.584 3.431m0 0l1.306 3.546M404.486 692.284l-3.679-.86m0 0l-1.584-3.431m0 0l1.584 3.431m0 0l-1.306 3.546M328.568 178.313l-1.187-.744m0 0l-.942-.938m0 0l-.4-.614m0 0l-.294-.711m0 0l-.15-.932m0 0l.088-.942m0 0l.339-.957m0 0l.596-.812m0 0l1.138-.78m0 0l1.182-.733m0 0l.755-.846m0 0l.451-1.042m0 0l.127-.948m0 0l-.044-.839m0 0l-.164-.829M330.063 165.646l.865.568m0 0l.764.688m0 0l.7.937m0 .001l.38.906m0 0l.152.955m0 0l-.09.956m0 0l-.345.908m0 0l-.294.467M332.195 172.031l.415-.108m0 0l.426-.44m0 0l.246-.516m0 0l.051-.245M333.333 170.723l.772.986m-.001 0l.382 1.036m.001 0l.127 1.11m0 0l-.069 1.235m-.001 0l-.156.587m0 0l-.274.542m0 0l-.825.845m0 0l-1.317.86m0 0l-1.629.754M330.343 178.677l.597-.599m0 0l.862-1.21m0 0l.228-.458m0 0l.109-.49m0 0l-.14-.638m0 0l-.378-.579m0 0l-.697-.548m0 .001l-.169-.427m0-.001l-.014-.474m0 0l.151-.714m0 0l.606-.832M331.499 171.708l-.592.11m-.001 0l-.778.375m.001 0l-.664.566m-.001 0l-.371.435m0 0l-.267.499m.001 0l-.099.469m-.001 0l.029.79m.001 0l.358.997M329.115 175.949l-.618-.601m0 0l-.292-.845m0 0l-.027-.712m0 0l.06-.281M328.238 173.51l-.693.452m0 0l-.47.527m0 0l-.22.651m0 0l.071.505m0 0l.212.476m0 0l.905 1.386m0 0l.525.806M349.795 162.793h-37.787m0 0v-1.889m0 0h37.787m0 0v1.889"/><g><path class="st2" d="M249.662 74.184h3.028m0 0v-.858m0 0V56.15m0 0v-.86m0 0h-3.028M256.117 55.29h-3.427m0 0v.859m0 0h3.224m0 0v-.057m0 0l-.196-.294m0 0l.087-.343m0 0l.312-.165M258.476 56.092l-.196-.294m0 0l.087-.343m0 0l.312-.165m0 0h-2.562m0 0l-.312.165m0 0l-.087.343m0 0l.196.294m0 0v17.291m0 0l-.196.293m0 0l.087.343m0 0l.312.165m0 0h2.562m0 0l-.312-.165m0 0l-.087-.343m0 0l.196-.293m0 0V56.092M256.117 74.184l-.312-.165m0 0l-.087-.342m0 0l.196-.294m0 0v-.057m0 0h-3.224m0 0v.858m0 0h3.427M258.882 72.52l.226-1.005V57.959l-.226-1.005zM258.881 56.954V72.52m0 0l.227-1.005m0 0V57.959m0 0l-.227-1.005M258.881 56.092l.197-.294m0 0l-.087-.343m0 0l-.312-.165m0 0l-.313.165m0 0l-.087.343m0 0l.197.294m0 0v17.291m0 0l-.197.293m0 0l.087.343m0 0l.313.165m0 0l.312-.165m0 0l.087-.343m0 0l-.197-.293m0 0V56.092M249.662 96.1h3.028m0 0v-.859m0 0V78.066m0 0v-.859m0 0h-3.028M256.117 77.207h-3.427m0 0v.859m0 0h3.224m0 0v-.058m0 0l-.196-.294m0 0l.087-.342m0 0l.312-.165M258.476 78.009l-.196-.294m0 0l.087-.342m0 0l.312-.165m0 0h-2.562m0 0l-.312.165m0 0l-.087.342m0 0l.196.294m0 0V95.3m0 0l-.196.293m0 0l.087.343m0 0l.312.165m0 0h2.562m0 0l-.312-.165m0 0l-.087-.343m0 0l.196-.293m0 0V78.009M256.117 96.1l-.312-.165m0 0l-.087-.342m0 .001l.196-.294m0-.001v-.058m0 0h-3.224m0 0v.859m0 0h3.427M258.882 94.437l.226-1.005V79.876l-.226-1.005zM258.881 78.871v15.566m0 0l.227-1.005m0 0V79.876m0 0l-.227-1.005M258.881 78.009l.197-.294m0 0l-.087-.342m0 0l-.312-.165m0 0l-.313.165m0 0l-.087.342m0 0l.197.294m0 0V95.3m0 0l-.197.293m0 0l.087.343m0 0l.313.165m0 0l.312-.165m0 0l.087-.343m0 0l-.197-.293m0 0V78.009M215.654 74.184h-3.028m0 0v-.858m0 0V56.15m0 0v-.86m0 0h3.028M209.199 55.29h3.427m0 0v.859m0 0h-3.224m0 0v-.057m0 0l.196-.294m0 0l-.087-.343m0 0l-.312-.165M206.84 56.092l.196-.294m0 0l-.086-.343m0 0l-.313-.165m0 0h2.562m0 0l.312.165m0 0l.087.343m0 0l-.196.294m0 0v17.291m0 0l.196.293m0 0l-.087.343m0 0l-.312.165m0 0h-2.562m0 0l.313-.165m0 0l.086-.343m0 0l-.196-.293m0 0V56.092M209.199 74.184l.312-.165m0 0l.087-.342m0 0l-.196-.294m0 0v-.057m0 0h3.224m0 0v.858m0 0h-3.427M206.207 57.959v13.556l.227 1.005V56.954zM206.434 56.954V72.52m0 0l-.227-1.005m0 0V57.959m0 0l.227-1.005M206.434 56.092l-.196-.294m0 0l.086-.343m0 0l.313-.165m0 0l.313.165m0 0l.086.343m0 0l-.196.294m0 0v17.291m0 0l.196.293m0 0l-.086.343m0 0l-.313.165m0 0l-.313-.165m0 0l-.086-.343m0 0l.196-.293m0 0V56.092M215.654 96.1h-3.028m0 0v-.859m0 0V78.066m0 0v-.859m0 0h3.028M209.198 77.207l.313.165.087.343-.197.295v.055h3.224v-.858zM209.199 77.207h3.427m0 0v.859m0 0h-3.224m0 0v-.058m0 0l.196-.294m0 0l-.087-.342m0 0l-.312-.165M206.84 78.009l.196-.294m0 0l-.086-.342m0 0l-.313-.165m0 0h2.562m0 0l.312.165m0 0l.087.342m0 0l-.196.294m0 0V95.3m0 0l.196.293m0 0l-.087.343m0 0l-.312.165m0 0h-2.562m0 0l.313-.165m0 0l.086-.343m0 0l-.196-.293m0 0V78.009M209.199 96.1l.312-.165m0 0l.087-.342m0 .001l-.196-.294m0-.001v-.058m0 0h3.224m0 0v.859m0 0h-3.427M206.207 79.876v13.556l.227 1.005V78.871zM206.434 78.871v15.566m0 0l-.227-1.005m0 0V79.876m0 0l.227-1.005M206.434 78.009l-.196-.294m0 0l.086-.342m0 0l.313-.165m0 0l.313.165m0 0l.086.342m0 0l-.196.294m0 0V95.3m0 0l.196.293m0 0l-.086.343m0 0l-.313.165m0 0l-.313-.165m0 0l-.086-.343m0 0l.196-.293m0 0V78.009M249.662 99.124h3.028m0 0v.859m0 0v17.176m0 0v.858m0 0h-3.028M256.117 118.017h-3.427m0 0v-.858m0 0h3.224m0 0v.057m0 0l-.196.294m0 0l.087.342m0 0l.312.165M258.476 117.216l-.196.294m0 0l.087.342m0 0l.312.165m0 0h-2.562m0 0l-.312-.165m0 0l-.087-.342m0 0l.196-.294m0 0V99.925m0 0l-.196-.293m0-.001l.087-.343m0 0l.312-.165m0 .001h2.562m0 0l-.312.165m0-.001l-.087.343m0 0l.196.293m0 .001v17.291M256.117 99.124l-.312.165m0 0l-.087.342m0 0l.196.294m0 0v.058m0 0h-3.224m0 0v-.859m0 0h3.427M258.882 116.353l.226-1.005v-13.556l-.226-1.005zM258.881 116.353v-15.566m0 0l.227 1.005m0 0v13.556m0 0l-.227 1.005M258.881 117.216l.197.294m0 0l-.087.342m0 0l-.312.165m0 0l-.313-.165m0 0l-.087-.342m0 0l.197-.294m0 0V99.925m0 0l-.197-.293m0-.001l.087-.343m0 0l.313-.165m0 .001l.312.165m0-.001l.087.343m0 0l-.197.293m0 .001v17.291M215.654 99.124h-3.028m0 0v.859m0 0v17.176m0 0v.858m0 0h3.028M209.199 118.017h3.427m0 0v-.858m0 0h-3.224m0 0v.057m0 0l.196.294m0 0l-.087.342m0 0l-.312.165M206.84 117.216l.196.294m0 0l-.086.342m0 0l-.313.165m0 0h2.562m0 0l.312-.165m0 0l.087-.342m0 0l-.196-.294m0 0V99.925m0 0l.196-.293m0-.001l-.087-.343m0 0l-.312-.165m0 .001h-2.562m0 0l.313.165m0-.001l.086.343m0 0l-.196.293m0 .001v17.291M209.199 99.124l.312.165m0 0l.087.342m0 0l-.196.294m0 0v.058m0 0h3.224m0 0v-.859m0 0h-3.427M206.207 101.792v13.556l.227 1.005v-15.565zM206.434 116.353v-15.566m0 0l-.227 1.005m0 0v13.556m0 0l.227 1.005M206.434 117.216l-.196.294m0 0l.086.342m0 0l.313.165m0 0l.313-.165m0 0l.086-.342m0 0l-.196-.294m0 0V99.925m0 0l.196-.293m0-.001l-.086-.343m0 0l-.313-.165m0 .001l-.313.165m0-.001l-.086.343m0 0l.196.293m0 .001v17.291M215.654 126.329h34.007m0 0v-79.35m0 0h-34.007m0 0v79.351"/></g></g></g><g id="walls_2_"><path class="st3" d="M262.647 538.055c4.759-1.776 7.323-2.31 12.56-2.577M184.97 351.613c2.249-6.027 2.85-9.146 3.178-15.571"/><path class="st4" d="M184.908 351.7l.6-1.387-36.356-15.782h-.453v1.512z"/><path class="st5" d="M117.171 223.728c4.813-1.796 7.43-2.321 12.559-2.583"/><path class="st4" d="M117.072 223.765l12.658 29.272h1.512v-.453l-12.783-29.419z"/><path class="st5" d="M82.002 271.954c1.692-4.463 2.43-7.495 2.271-11.057"/><path class="st4" d="M81.963 272.055l.601-1.387-25.95-11.283h-.454l-.001 1.512z"/><g><path class="st5" d="M336.321 277.141c-4.245-1.744-8.939-2.439-12.559-2.576"/><path class="st4" d="M336.421 277.184l-1.389-.6-12.781 29.418v.454h1.511z"/><g><path class="st5" d="M336.328 370.759c-4.872 1.817-7.372 2.314-12.566 2.58"/><path class="st4" d="M336.421 370.718l-12.645-29.275-1.525.003v.453l12.781 29.419z"/><path class="st5" d="M262.639 370.757c4.871 1.818 7.376 2.315 12.568 2.581"/><path class="st4" d="M262.549 370.718l1.387.6 12.782-29.419v-.453h-1.511z"/><path transform="rotate(-23.384 269.586 552.445)" class="st4" d="M268.816 536.488h1.511v31.892h-1.511z"/><g><path class="st5" d="M313.986 514.862c1.638-4.411 2.334-7.787 2.577-12.56"/><path class="st4" d="M313.944 514.961l.601-1.388-29.418-12.782h-.454v1.511z"/></g></g><g><path class="st5" d="M240.965 270.005c1.818-4.868 2.312-7.368 2.577-12.557"/><path class="st4" d="M240.929 270.106l.593-1.388-29.418-12.782h-.454v1.511z"/></g></g><path d="M423.518 553.694h23.806v45.248h-23.806v-45.248h0zM.5 336.043c0 .002 135.87 0 148.199 0v-1.512h.453v-7.557h-9.22v-74.39h-8.69v.453h-1.512v73.937H.5v9.069h0zM11.458 24.306h34.429V.5H.5v23.806h10.958zm176.236 302.668v7.557h.454v1.512h13.754v375.784h10.202V326.974h-24.41 0zm259.63 384.853v-29.755h-23.806v29.755h23.806zm-23.806-557.154h23.806v59.513h-23.806v-59.513h0zm0 142.643h23.806v62.347h-23.806v-62.347h0zm0 128.473h23.806v86.34h-23.806v-86.34h0zM129.73 220.088V24.306h-15.87V.5h52.711v23.806h-26.639v197.293h-8.69v-.453h-1.512v-1.058h0zM232.697.5h45.345v23.806h-45.345V.5h0zm154.83 23.806h-43.359V.5h43.359v23.806z" fill-rule="evenodd" clip-rule="evenodd" stroke="#000" stroke-linecap="round" stroke-linejoin="round" stroke-miterlimit="3"/><path class="st0" d="M423.518 700.869v10.958H212.104v-10.958h211.414zM159.58 197.178V182.44h-19.648v-3.023h22.671c0 6.927-.001 13.856.001 20.783l-22.672.004v-3.023l19.648-.003zM.5 24.306h10.958v233.568h45.156v1.511h-.454v1.512H11.458v44.728h13.603v10.532H54.44v10.817h-3.023v-7.794H25.061v7.794h-3.023v-18.327h-10.58v18.327H.5V24.306zm320.239 160.78l-111.658-.001v22.673h-3.023v-25.695h90.12v-18.672c28.863 0 57.359.157 86.153.157v18.515h41.187v3.022h-99.756v89.479h-1.51v.454h-1.513v-89.932zm-45.532 383.342l.001-1.058h1.51v-.453h1.512v1.511h-.001v6.991h.001v3.023h-66.127v-3.023h10.581v-10.203h-10.58v-3.023h10.58v-79.351h-10.58v-3.023h13.604l-.001 95.6h49.5v-6.991zm0-238.242v1.511h.001v9.749h1.51v.453h1.512v-10.202h-.001l.001-77.273h-35.141v1.512h.453v1.511h31.665v69.716h-63.104v3.023h9.448v90.687h-9.447v3.023h12.47l-.001-3.023v-90.687h50.634zm-64.615-3.212v-69.527h1.058v-1.511h.454v-1.512h-4.534v72.55h3.022zm10.958 18.494h-9.446v-3.023h9.446v3.023zm102.212-37.954v26.072h99.756v3.023h-99.756v4.837h-1.51v.453h-1.513v-35.897h1.513v.454h1.51v1.058zm-45.532 65.37h-1.512v.454h-1.51v1.058h-.001v75.95h-63.104v3.023h63.105v82.11h1.51v.453h1.512v-33.63h6.443v-1.511h.454v-1.512h-6.897v-45.91h-.001v-78.973h.001v-1.512zm37.881 126.395v1.512h.453v1.511h1.059v-3.023h-1.512zm4.628 3.023h-3.116v-3.023h3.116V372.884h1.513v.454h1.51V576.93h99.756v3.023H320.74l-.001-77.651zm58.569-320.239v-15.492H340.01v15.492h39.298zM299.2 166.571v15.492h37.788v-15.492H299.2zM83.82 257.874v1.511h.453v1.512h45.456v-3.023H83.82z"/><g><path class="st5" d="M439.767 214.186h-16.249M447.324 214.186h-5.668M441.656 214.186h-1.889M439.767 297.316h-16.249M447.324 297.316h-5.668M441.656 297.316h-1.889M447.324 297.316v-83.13M423.518 297.316v-83.13M439.767 297.316v-3.779M439.767 293.537h1.889M441.656 293.537v3.779M441.656 257.64v1.89M441.656 259.53h-1.889M439.767 259.53v-1.89M440.711 293.537V259.53M439.767 293.537V259.53M441.656 259.53v34.007M439.767 257.64v-.944M439.767 256.696h.944M440.711 256.696v-.945M440.711 255.751h.944M441.656 255.751v1.889M441.656 214.186v3.779M441.656 217.965h-.944M440.711 217.965v-.945M440.711 217.02h-.944M439.767 217.02v-2.834M438.822 217.02l-28.055 28.055M441.656 217.965v37.786M438.822 253.862v-34.008M438.822 256.696v-2.834M438.822 253.862h1.89M440.711 253.862v2.834M440.711 256.696h-1.89M440.711 217.02v2.834M440.711 219.854h-1.89M438.822 219.854v-2.834M438.822 217.02h1.89M440.711 219.854v34.008M438.822 253.862v-34.008M439.767 253.862v-34.008M438.822 256.696a39.676 39.676 0 01-28.055-11.621M441.656 297.316h-1.889M441.656 297.316h-1.889M447.324 297.316h-5.668M439.767 297.316h-16.249M441.656 214.186h-1.889M441.656 214.186h-1.889M447.324 214.186h-5.668M439.767 214.186h-16.249"/><g><path class="st5" d="M439.767 425.79h-16.249M447.324 425.79h-5.668M441.656 425.79h-1.889M439.767 359.664h-16.249M447.324 359.664h-5.668M441.656 359.664h-1.889M447.324 359.664v66.126M423.518 359.664v66.126M439.767 359.664v3.778M439.767 363.442h1.889M441.656 363.442v-3.778M441.656 397.45v-1.889M441.656 395.561h-1.889M439.767 395.561v1.889M440.711 363.442v32.119M439.767 363.442v32.119M441.656 395.561v-32.119M439.767 397.45v.944M439.767 398.394h.944M440.711 398.394v.945M440.711 399.339h.944M441.656 399.339v-1.889M441.656 425.79v-3.779M441.656 422.011h-.944M440.711 422.011v.945M440.711 422.956h-.944M439.767 422.956v2.834M441.656 422.011v-22.672M438.822 401.228v18.894M438.822 398.394v2.834M438.822 401.228h1.89M440.711 401.228v-2.834M440.711 398.394h-1.89M440.711 422.956v-2.834M440.711 420.122h-1.89M438.822 420.122v2.834M438.822 422.956h1.89M440.711 420.122v-18.894M438.822 401.228v18.894M439.767 401.228v18.894M441.656 359.664h-1.889M441.656 359.664h-1.889M447.324 359.664h-5.668M439.767 359.664h-16.249M441.656 425.79h-1.889M441.656 425.79h-1.889M447.324 425.79h-5.668M439.767 425.79h-16.249"/><g><path class="st5" d="M439.767 598.942h-16.249M447.324 598.942h-5.668M441.656 598.942h-1.889M439.767 682.071h-16.249M447.324 682.071h-5.668M441.656 682.071h-1.889M447.324 682.071v-83.128M423.518 682.071v-83.128M439.767 682.071v-3.777M439.767 678.293h1.889M441.656 678.293v3.778M441.656 642.396v1.889M441.656 644.285h-1.889M439.767 644.285v-1.889M440.711 678.293v-34.008M439.767 678.293v-34.008M441.656 644.285v34.009M439.767 642.396v-.945M439.767 641.452h.944M440.711 641.452v-.945M440.711 640.507h.944M441.656 640.507v1.89M441.656 598.942v3.778M441.656 602.72h-.944M440.711 602.72v-.945M440.711 601.776h-.944M439.767 601.776v-2.833M438.822 641.452l-28.055-28.055M441.656 602.72v37.787M438.822 638.618v-34.007M438.822 641.452v-2.834M438.822 638.618h1.89M440.711 638.618v2.834M440.711 641.452h-1.89M440.711 601.776v2.834M440.711 604.61h-1.89M438.822 604.61v-2.834M438.822 601.776h1.89M440.711 604.61v34.007M438.822 638.618v-34.007M439.767 638.618v-34.007M410.767 613.397a39.673 39.673 0 0128.055-11.621M441.656 682.071h-1.889M441.656 682.071h-1.889M447.324 682.071h-5.668M439.767 682.071h-16.249M441.656 598.942h-1.889M441.656 598.942h-1.889M447.324 598.942h-5.668M439.767 598.942h-16.249"/></g><g><path class="st5" d="M439.767 553.694h-16.249M447.324 553.694h-5.668M441.656 553.694h-1.889M439.767 512.129h-16.249M447.324 512.129h-5.668M441.656 512.129h-1.889M447.324 512.129v41.565M423.518 512.129v41.565M439.767 512.129v3.778M439.767 515.907h1.889M441.656 515.907v-3.778M441.656 531.022v-1.889M441.656 529.133h-1.889M439.767 529.133v1.889M440.711 515.907v13.227M439.767 515.907v13.227M441.656 529.133v-13.226M439.767 531.022v.945M439.767 531.967h.944M440.711 531.967v.944M440.711 532.911h.944M441.656 532.911v-1.889M441.656 553.694v-3.779M441.656 549.915h-.944M440.711 549.915v.945M440.711 550.86h-.944M439.767 550.86v2.834M441.656 549.915v-17.004M438.822 534.801v13.225M438.822 531.967v2.833M438.822 534.801h1.89M440.711 534.801v-2.833M440.711 531.967h-1.89M440.711 550.86v-2.834M440.711 548.026h-1.89M438.822 548.026v2.834M438.822 550.86h1.89M440.711 548.026V534.8M438.822 534.801v13.225M439.767 534.801v13.225M441.656 512.129h-1.889M441.656 512.129h-1.889M447.324 512.129h-5.668M439.767 512.129h-16.249M441.656 553.694h-1.889M441.656 553.694h-1.889M447.324 553.694h-5.668M439.767 553.694h-16.249"/></g></g><g><path class="st5" d="M113.86 8.057v16.248M113.86.5v5.668M113.86 6.168v1.889M45.887 8.057v16.248M45.887.5v5.668M45.887 6.168v1.889M45.887.5h67.973M45.887 24.306h67.973M45.887 8.057h3.778M49.666 8.057V6.168M49.666 6.168h-3.779M85.521 6.168h-1.89M83.631 6.168v1.889M83.631 8.057h1.89M49.666 7.113h33.965M49.666 8.057h33.965M83.631 6.168H49.665M85.521 8.057h.944M86.465 8.057v-.944M86.465 7.113h.944M87.41 7.113v-.945M87.41 6.168h-1.889M113.86 6.168h-3.778M110.081 6.168v.945M110.081 7.113h.944M111.026 7.113v.944M111.026 8.057h2.834M110.081 6.168H87.409M89.299 9.002h18.893M86.465 9.002h2.834M89.299 9.002V7.113M89.299 7.113h-2.834M86.465 7.113v1.889M111.026 7.113h-2.834M108.192 7.113v1.889M108.192 9.002h2.834M111.026 9.002V7.113M108.192 7.113H89.299M89.299 9.002h18.893M89.299 8.057h18.893M45.887 6.168v1.889M45.887 6.168v1.889M45.887.5v5.668M45.887 8.057v16.248M113.86 6.168v1.889M113.86 6.168v1.889M113.86.5v5.668M113.86 8.057v16.248"/><g><path class="st5" d="M232.698 8.057v16.248M232.698.5v5.668M232.698 6.168v1.889M166.572 8.057v16.248M166.572.5v5.668M166.572 6.168v1.889M166.572.5h66.126M166.572 24.306h66.126M166.572 8.057h3.778M170.35 8.057V6.168M170.35 6.168h-3.778M204.358 6.168h-1.89M202.468 6.168v1.889M202.468 8.057h1.89M170.35 7.113h32.118M170.35 8.057h32.118M202.468 6.168H170.35M204.358 8.057h.944M205.302 8.057v-.944M205.302 7.113h.945M206.247 7.113v-.945M206.247 6.168h-1.89M232.698 6.168h-3.778M228.919 6.168v.945M228.919 7.113h.944M229.864 7.113v.944M229.864 8.057h2.834M228.919 6.168h-22.672M208.136 9.002h18.894M205.302 9.002h2.834M208.136 9.002V7.113M208.136 7.113h-2.834M205.302 7.113v1.889M229.864 7.113h-2.834M227.03 7.113v1.889M227.03 9.002h2.834M229.864 9.002V7.113M227.03 7.113h-18.894M208.136 9.002h18.894M208.136 8.057h18.894M166.572 6.168v1.889M166.572 6.168v1.889M166.572.5v5.668M166.572 8.057v16.248M232.698 6.168v1.889M232.698 6.168v1.889M232.698.5v5.668M232.698 8.057v16.248"/></g><g><path class="st5" d="M344.167 8.057v16.248M344.167.5v5.668M344.167 6.168v1.889M278.041 8.057v16.248M278.041.5v5.668M278.041 6.168v1.889M278.041.5h66.126M278.041 24.306h66.126M278.041 8.057h3.778M281.82 8.057V6.168M281.82 6.168h-3.778M315.828 6.168h-1.89M313.938 6.168v1.889M313.938 8.057h1.89M281.82 7.113h32.118M281.82 8.057h32.118M313.938 6.168H281.82M315.828 8.057h.944M316.772 8.057v-.944M316.772 7.113h.944M317.716 7.113v-.945M317.716 6.168h-1.889M344.167 6.168h-3.779M340.388 6.168v.945M340.388 7.113h.945M341.333 7.113v.944M341.333 8.057h2.834M340.388 6.168h-22.672M319.606 9.002H338.5M316.772 9.002h2.834M319.606 9.002V7.113M319.606 7.113h-2.834M316.772 7.113v1.889M341.333 7.113h-2.834M338.499 7.113v1.889M338.499 9.002h2.834M341.333 9.002V7.113M338.499 7.113h-18.894M319.606 9.002H338.5M319.606 8.057H338.5M278.041 6.168v1.889M278.041 6.168v1.889M278.041.5v5.668M278.041 8.057v16.248M344.167 6.168v1.889M344.167 6.168v1.889M344.167.5v5.668M344.167 8.057v16.248"/></g><g><path class="st5" d="M439.767 154.673h-16.249M447.324 154.673h-5.668M441.656 154.673h-1.889M447.324 154.673V.5M423.518 154.673V24.305M439.767 154.673v-4.724M439.767 149.95h1.889M441.656 149.95v4.723M441.656 8.057v4.724M441.656 12.781h-1.889M439.767 12.781V8.057M441.656 6.168v1.889M439.767 149.95V12.781M441.656 12.781v137.168M441.656 154.673h-1.889M441.656 154.673h-1.889M447.324 154.673h-5.668M439.767 154.673h-16.249M387.527 8.057v16.248M387.527.5v5.668M387.527 6.168v1.889M387.527.5h59.797M387.527 24.306h35.991M387.527 8.057h4.724M392.25 8.057V6.168M392.25 6.168h-4.724M439.767 6.168h-4.724M435.043 6.168v1.889M435.043 8.057h4.724M441.656 6.168h-1.889M392.25 8.057h42.793M435.043 6.168H392.25M387.527 6.168v1.889M387.527 6.168v1.889M387.527.5v5.668M387.527 8.057v16.248"/></g></g><g><path class="st5" d="M447.324 196.233h41.071m0 0V317.15m0 0h-41.071m0 0V196.233M486.433 315.261h-39.109m0 0V198.123m0 0h39.109m0 0v117.138"/><g><path class="st5" d="M447.324 598.942v-45.248M447.324 510.993h40.998m0 0v175.329m0 0h-40.998m0 0V510.993M486.905 684.432h-39.581m0 0V512.915m0 0h39.581m0 0v171.517"/></g></g><g><path class="st7" d="M439.81 64.345h1.89v5.133h-1.89zM439.81 106.852h1.89v5.133h-1.89z"/></g></g><g><path class="st8" d="M2.039 24.179l-1.67 1.47M9.449 24.179l-9.08 8M11.329 29.059l-10.96 9.66M11.329 35.599l-10.96 9.66M11.329 42.149l-10.96 9.65M11.329 48.679l-10.96 9.66M11.329 55.219l-10.96 9.65M11.329 61.759l-10.96 9.65M11.329 68.289l-10.96 9.66M11.329 74.839l-10.96 9.65M11.329 81.369l-10.96 9.66M11.329 87.909l-10.96 9.66M11.329 94.449l-10.96 9.65M11.329 100.989l-10.96 9.66M11.329 107.529l-10.96 9.65M11.329 114.059l-10.96 9.66M11.329 120.599l-10.96 9.66M11.329 127.139l-10.96 9.66M11.329 133.679l-10.96 9.66M11.329 140.219l-10.96 9.65M11.329 146.759l-10.96 9.65M11.329 153.289l-10.96 9.66M11.329 159.839l-10.96 9.65M11.329 166.369l-10.96 9.66M11.329 172.909l-10.96 9.65M11.329 179.449l-10.96 9.65M11.329 185.989l-10.96 9.66M11.329 192.529l-10.96 9.65M11.329 199.059l-10.96 9.66M11.329 205.599l-10.96 9.66M11.329 212.139l-10.96 9.65M11.329 218.679l-10.96 9.66M11.329 225.219l-10.96 9.65M11.329 231.749l-10.96 9.66M11.329 238.289l-10.96 9.66M11.329 244.829l-10.96 9.66M11.329 251.369l-10.96 9.66M11.509 257.749l-11.14 9.81M11.329 264.449l-10.96 9.65M18.929 257.749l-3.43 3.02M11.329 270.989l-10.96 9.66M26.359 257.749l-3.43 3.02M11.329 277.519l-10.96 9.66M33.779 257.749l-3.43 3.02M11.329 284.059l-10.96 9.66M41.199 257.749l-3.43 3.02M11.329 290.599l-10.96 9.66M48.619 257.749l-3.43 3.02M11.329 297.139l-10.96 9.65M56.039 257.749l-3.43 3.02M145.109 179.289l-3.44 3.03M11.329 303.679l-10.96 9.66M152.539 179.289l-3.44 3.03M11.329 310.219l-10.96 9.65M159.959 179.289l-3.44 3.03M16.689 305.499l-3.43 3.02M11.329 316.749l-10.96 9.66M162.469 183.609l-3.02 2.66M147.209 197.059l-3.43 3.02M24.099 305.499l-3.42 3.02M24.929 311.309l-3.02 2.66M85.729 257.749l-1.71 1.51M154.629 197.049l-3.43 3.03M162.469 190.149l-3.02 2.66M11.329 323.289l-4.04 3.56M26.999 316.029l-5.09 4.48M162.469 196.689l-3.84 3.39M93.159 257.749l-3.43 3.02M34.419 316.029l-3.44 3.03M100.579 257.749l-3.43 3.02M24.929 324.389l-2.79 2.46M41.839 316.029l-3.44 3.03M107.999 257.749l-3.43 3.02M49.259 316.029l-3.43 3.03M115.419 257.749l-3.43 3.02M54.309 318.129l-3.03 2.67M208.909 181.939l-2.98 2.62M122.849 257.749l-3.43 3.02M216.329 181.939l-3.43 3.02M208.949 188.439l-3.02 2.66M129.599 258.339l-2.76 2.43M54.309 324.659l-2.48 2.19M223.749 181.939l-3.43 3.02M208.949 194.979l-3.02 2.66M231.169 181.939l-3.43 3.02M208.949 201.509l-3.02 2.66M238.589 181.939l-3.43 3.02M246.019 181.939l-3.43 3.02M253.439 181.939l-3.43 3.02M260.859 181.939l-3.43 3.02M268.279 181.939l-3.43 3.02M275.709 181.939l-3.43 3.02M296.899 163.269l-.85.75M283.119 181.939l-3.42 3.02M304.309 163.279l-3.6 3.17M299.069 167.889l-3.02 2.66M290.549 181.939l-3.43 3.02M311.719 163.279l-3.59 3.17M299.069 174.429l-3.02 2.66M208.409 254.299l-.97.85M210.459 259.029l-3.02 2.66M319.139 163.289l-3.58 3.16M299.069 180.969l-4.53 3.99M210.459 265.569l-3.02 2.66M326.539 163.309l-3.56 3.14M305.389 181.939l-3.43 3.02M210.459 272.109l-3.02 2.66M333.939 163.339l-3.54 3.11M312.819 181.939l-3.43 3.02M210.459 278.639l-3.02 2.66M341.329 163.349l-4.47 3.94M320.229 181.939l-3.43 3.02M210.459 285.179l-3.02 2.66M339.879 171.169l-3.02 2.66M348.739 163.369l-3.5 3.08M323.629 185.489l-3.02 2.66M327.659 181.939l-3.43 3.02M210.459 291.719l-3.02 2.66M339.879 177.709l-3.02 2.66M356.139 163.389l-3.48 3.06M323.629 192.029l-3.02 2.66M335.079 181.939l-3.43 3.02M210.459 298.259l-3.02 2.66M363.549 163.399l-3.46 3.05M323.629 198.569l-3.02 2.66M342.499 181.939l-3.42 3.02M210.459 304.799l-3.02 2.66M370.959 163.409l-3.45 3.04M323.629 205.109l-3.02 2.66M349.929 181.939l-3.43 3.02M210.459 311.339l-3.02 2.66M275.209 254.299l-.14.12M378.379 163.419l-3.44 3.03M323.629 211.649l-3.02 2.66M357.349 181.939l-3.43 3.02M278.099 258.289l-3.03 2.67M210.459 317.879l-3.02 2.66M379.179 169.249l3.02-2.66M323.629 218.189l-3.02 2.66M364.779 181.939l-3.43 3.02M278.099 264.829l-3.03 2.66M382.199 173.119l-3.02 2.66M323.629 224.719l-3.02 2.66M372.189 181.939l-3.43 3.02M210.459 324.409l-2.77 2.44M278.099 271.369l-3.03 2.66M382.199 179.659l-6.01 5.3M323.629 231.259l-3.02 2.66M214.899 327.039l-2.93 2.58M222.319 327.039l-3.42 3.02M278.099 277.909l-3.03 2.66M323.629 237.799l-3.02 2.66M387.039 181.939l-3.43 3.02M394.459 181.939l-3.43 3.02M278.099 284.449l-3.03 2.66M224.439 331.719l-3.02 2.66M229.749 327.039l-3.43 3.02M323.629 244.339l-3.02 2.66M212.399 342.319l-.43.38M401.879 181.939l-3.42 3.02M278.099 290.979l-3.03 2.67M224.439 338.249l-3.02 2.66M219.819 342.319l-3.43 3.02M237.169 327.039l-3.43 3.02M323.629 250.879l-3.02 2.66M409.309 181.939l-3.43 3.02M278.099 297.519l-3.03 2.67M224.439 344.789l-3.02 2.66M244.589 327.039l-3.43 3.02M323.629 257.419l-3.02 2.66M416.719 181.939l-3.43 3.02M278.099 304.059l-3.03 2.66M224.439 351.329l-3.02 2.66M252.009 327.039l-3.43 3.02M323.629 263.949l-3.02 2.66M423.389 182.609l-2.67 2.35M323.629 270.489l-3.02 2.66M259.429 327.039l-3.43 3.02M224.439 357.869l-3.02 2.66M278.099 310.599l-3.03 2.66M278.099 317.139l-3.03 2.66M224.439 364.409l-3.02 2.66M266.859 327.039l-3.43 3.02M278.099 323.679l-3.03 2.66M224.439 370.949l-3.02 2.66M274.279 327.039l-3.43 3.02M278.099 330.209l-3.02 2.66M224.439 377.479l-3.02 2.66M224.439 384.019l-3.02 2.66M278.099 336.749l-3.03 2.67M224.439 390.559l-3.02 2.66M224.439 397.099l-3.02 2.66M323.629 309.719l-3.02 2.66M224.439 403.639l-3.02 2.66M323.629 316.259l-3.02 2.66M323.629 322.799l-3.02 2.66M224.439 410.179l-3.02 2.66M212.439 420.749l-.47.41M323.629 329.339l-3.02 2.66M219.859 420.749l-3.43 3.02M224.439 416.719l-3.02 2.66M326.369 333.459l-5.76 5.08M278.099 375.979l-3.03 2.67M224.439 423.249l-.59.52M333.799 333.459l-3.43 3.02M278.099 382.519l-3.03 2.67M341.209 333.459l-3.43 3.02M278.099 389.059l-3.03 2.66M348.629 333.459l-3.42 3.02M278.099 395.599l-3.03 2.66M216.089 450.219l-3.43 3.02M356.059 333.459l-3.43 3.02M223.519 450.219l-3.43 3.02M278.099 402.139l-3.03 2.66M363.479 333.459l-3.43 3.02M230.939 450.219l-3.43 3.02M278.099 408.679l-3.03 2.66M370.909 333.459l-3.43 3.02M323.629 375.109l-3.02 2.66M238.359 450.219l-3.43 3.02M278.099 415.209l-3.03 2.67M378.329 333.459l-3.43 3.02M245.779 450.219l-3.42 3.02M323.629 381.649l-3.02 2.66M278.099 421.749l-3.03 2.67M212.329 479.689l-.36.32M385.739 333.459l-3.42 3.02M253.199 450.219l-3.43 3.02M219.749 479.689l-3.44 3.03M323.629 388.179l-3.02 2.66M278.099 428.289l-3.03 2.66M393.169 333.459l-3.43 3.02M260.619 450.219l-3.42 3.02M225.569 481.099l-3.02 2.66M323.629 394.719l-3.02 2.66M278.099 434.829l-3.03 2.66M400.589 333.459l-3.43 3.02M268.049 450.219l-3.43 3.02M225.569 487.639l-3.02 2.66M323.629 401.259l-3.02 2.66M278.099 441.369l-3.03 2.66M408.019 333.459l-3.43 3.02M225.569 494.179l-3.02 2.66M323.629 407.799l-3.02 2.66M278.099 447.909l-6.06 5.33M415.439 333.459l-3.43 3.02M225.569 500.719l-3.02 2.66M323.629 414.339l-3.02 2.66M278.099 454.449l-3.02 2.66M278.099 460.979l-3.02 2.66M323.629 420.879l-3.02 2.66M225.569 507.259l-3.02 2.66M422.859 333.459l-3.43 3.02M278.099 467.519l-3.02 2.67M323.629 427.419l-3.02 2.66M225.569 513.799l-3.02 2.66M278.099 474.059l-3.02 2.66M323.629 433.949l-3.02 2.66M225.569 520.329l-3.02 2.66M278.099 480.599l-3.02 2.66M323.629 440.489l-3.02 2.66M225.569 526.869l-3.02 2.66M278.099 487.139l-3.02 2.66M323.629 447.029l-3.02 2.66M225.569 533.409l-3.02 2.66M278.099 493.679l-3.03 2.66M323.629 453.569l-3.02 2.66M225.569 539.949l-3.02 2.66M279.309 499.149l-4.24 3.73M323.629 460.109l-3.02 2.66M225.569 546.489l-3.02 2.66M225.569 553.029l-3.02 2.66M323.629 466.649l-3.02 2.66M284.539 501.079l-1.25 1.1M278.099 506.749l-3.03 2.67M215.299 562.069l-3.33 2.94M225.569 559.559l-6.28 5.53M323.629 473.179l-3.02 2.66M278.099 513.289l-3.03 2.66M225.569 566.099l-3.02 2.66M323.629 479.719l-3.02 2.66M278.099 519.829l-3.03 2.66M215.139 575.289l-3.17 2.79M225.569 572.639l-6.45 5.68M323.629 486.259l-3.02 2.66M278.099 526.369l-3.03 2.66M229.989 575.289l-3.44 3.03M278.099 532.909l-2.78 2.44M323.629 492.799l-3.02 2.66M316.419 499.149l-.44.39M237.409 575.289l-3.44 3.03M323.629 499.339l-3.23 2.84M244.829 575.289l-3.44 3.03M323.629 505.879l-3.02 2.66M252.249 575.289l-3.44 3.03M323.629 512.409l-3.02 2.66M259.669 575.289l-3.44 3.03M323.629 518.949l-3.02 2.66M267.089 575.289l-3.43 3.03M276.219 567.249l-1.15 1.01M276.739 566.789l-.16.14M323.629 525.489l-3.02 2.66M323.629 532.029l-3.02 2.66M274.519 575.289l-3.44 3.03M278.099 572.139l-3.03 2.66M323.629 538.569l-3.02 2.66M323.629 545.109l-3.02 2.66M323.629 551.649l-3.02 2.66M323.629 558.179l-3.02 2.66M323.629 564.719l-3.02 2.66M323.629 571.259l-3.02 2.66M324.749 576.809l-3.43 3.02M332.169 576.809l-3.43 3.02M339.599 576.809l-3.43 3.02M347.009 576.809l-3.43 3.02M354.439 576.809l-3.43 3.02M213.749 700.739l-1.78 1.57M221.179 700.739l-9.21 8.11M361.859 576.809l-3.43 3.02M228.599 700.739l-12.44 10.96M369.279 576.809l-3.42 3.02M236.029 700.739l-12.45 10.96M376.709 576.809l-3.43 3.02M243.449 700.739l-12.45 10.96M384.129 576.809l-3.43 3.02M250.869 700.739l-12.44 10.96M391.549 576.809l-3.42 3.02M258.289 700.739l-12.45 10.96M398.969 576.809l-3.43 3.02M265.709 700.739l-12.44 10.96M406.389 576.809l-3.43 3.02M273.129 700.739l-12.44 10.96M413.819 576.809l-3.43 3.02M421.239 576.809l-3.43 3.02M280.559 700.739l-12.44 10.96M287.979 700.739l-12.44 10.96M295.399 700.739l-12.44 10.96M302.819 700.739l-12.44 10.96M310.239 700.739l-12.44 10.96M317.669 700.739l-12.44 10.96M325.089 700.739l-12.44 10.96M332.509 700.739l-12.44 10.96M339.939 700.739l-12.44 10.96M347.349 700.739l-12.44 10.96M354.779 700.739l-12.45 10.96M362.199 700.739l-12.44 10.96M369.619 700.739l-12.44 10.96M377.049 700.739l-12.44 10.96M384.469 700.739l-12.44 10.96M391.889 700.739l-12.44 10.96M399.309 700.739l-12.44 10.96M406.729 700.739l-12.44 10.96M414.159 700.739l-12.44 10.96M421.579 700.739l-12.44 10.96M423.389 705.689l-6.83 6.01"/></g><path class="st7" d="M423.518 700.869v10.958H212.104v-10.958h211.414zM159.58 197.178V182.44h-19.648v-3.023h22.671c0 6.927-.001 13.856.001 20.783l-22.672.004v-3.023l19.648-.003zM.5 24.306h10.958v233.568h45.156v1.511h-.454v1.512H11.458v44.728h13.603v10.532H54.44v10.817h-3.023v-7.794H25.061v7.794h-3.023v-18.327h-10.58v18.327H.5V24.306zm320.239 160.78l-111.658-.001v22.673h-3.023v-25.695h90.12v-18.672c28.863 0 57.359.157 86.153.157v18.515h41.187v3.022h-99.756v89.479h-1.51v.454h-1.513v-89.932zm-45.532 383.342l.001-1.058h1.51v-.453h1.512v1.511h-.001v6.991h.001v3.023h-66.127v-3.023h10.581v-10.203h-10.58v-3.023h10.58v-79.351h-10.58v-3.023h13.604l-.001 95.6h49.5v-6.991zm0-238.242h-50.634v90.687l.001 3.023h-12.47v-3.023h9.447v-90.687h-9.448v-3.023h63.104v-69.716h-31.665v-1.511h-.453v-1.512h35.141l-.001 77.273h.001v10.202h-1.512v-.453h-1.51v-9.749h-.001v-1.511zm-64.615-3.212h-3.022v-72.55h4.534v1.512h-.454v1.511h-1.058v69.527zm10.958 18.494h-9.446v-3.023h9.446v3.023zm102.212-37.954v26.072h99.756v3.023h-99.756v4.837h-1.51v.453h-1.513v-35.897h1.513v.454h1.51v1.058zm-45.532 65.37h-1.512v.454h-1.51v1.058h-.001v75.95h-63.104v3.023h63.105v82.11h1.51v.453h1.512v-33.63h6.443v-1.511h.454v-1.512h-6.897v-45.91h-.001v-78.973h.001v-1.512zm37.881 126.395v1.512h.453v1.511h1.059v-3.023h-1.512zm4.628 3.023h-3.116v-3.023h3.116V372.884h1.513v.454h1.51V576.93h99.756v3.023H320.74l-.001-77.651zm58.569-320.239v-15.492H340.01v15.492h39.298zM299.2 166.571v15.492h37.788v-15.492H299.2zM83.82 257.874v1.511h.453v1.512h45.456v-3.023H83.82z"/></g><g id="sizes_1_"><path d="M393.986 155.06l-.727-.348a2.857 2.857 0 01-1.168-1.008c-.294-.44-.48-.97-.559-1.59h1.625c.047.323.148.589.305.797.156.208.358.363.605.465s.538.152.871.152c.526 0 .935-.141 1.227-.422s.438-.677.438-1.188v-.344c0-.567-.138-1.006-.414-1.316-.276-.31-.667-.465-1.172-.465h-.805v-1.516h.805c.442 0 .786-.133 1.031-.398s.367-.641.367-1.125v-.352c0-.448-.129-.794-.387-1.039-.258-.245-.624-.367-1.098-.367-.271 0-.513.051-.727.152s-.395.258-.543.469-.257.476-.324.793h-1.617c.104-.62.301-1.151.59-1.594a2.893 2.893 0 011.098-1.008c.442-.229.95-.344 1.523-.344.979 0 1.737.258 2.273.773s.805 1.242.805 2.18v.188c0 .568-.153 1.063-.461 1.484s-.742.729-1.305.922c.62.136 1.101.44 1.441.914.341.474.512 1.078.512 1.813v.188c0 .662-.128 1.227-.383 1.695s-.626.826-1.113 1.07c-.487.245-1.074.367-1.762.367l-.951.002zM401.286 154.208c-.55-.567-.824-1.359-.824-2.375v-5.164c0-1.021.276-1.813.828-2.379.552-.565 1.356-.848 2.414-.848 1.063 0 1.868.281 2.418.844s.824 1.357.824 2.383v5.164c0 1.021-.276 1.814-.828 2.379-.552.565-1.356.848-2.414.848-1.062 0-1.868-.284-2.418-.852zm3.664-1.105c.269-.294.402-.717.402-1.27v-5.164c0-.552-.133-.975-.398-1.27-.266-.294-.683-.441-1.25-.441s-.984.147-1.25.441c-.266.294-.398.718-.398 1.27v5.164c0 .552.134.976.402 1.27.269.294.684.441 1.246.441s.978-.147 1.246-.441zM409.134 153.349h1.594v1.594l-1.594 1.578v-3.172zM412.743 153.56l3.961-5.281c.229-.302.407-.616.535-.941.128-.325.191-.629.191-.91v-.016c0-.453-.133-.805-.398-1.055s-.644-.375-1.133-.375c-.464 0-.839.137-1.125.41s-.461.66-.523 1.16v.008h-1.648v-.008c.094-.651.285-1.207.574-1.668s.663-.813 1.121-1.055.987-.363 1.586-.363c.677 0 1.255.116 1.734.348.479.232.844.569 1.094 1.012.25.443.375.977.375 1.602v.008c0 .401-.083.82-.25 1.258s-.398.859-.695 1.266l-3.289 4.469h4.297v1.516h-6.406v-1.385zM61.568 168.298h-1.594v-9.625l-1.617.992v-1.648l1.617-1.078h1.594v11.359zM68.169 162.658l-.008.281c-.13.24-.327.416-.59.527a2.372 2.372 0 01-.934.168c-.542 0-1.019-.138-1.43-.414-.411-.276-.73-.665-.957-1.168-.227-.502-.34-1.084-.34-1.746v-.008c0-.734.124-1.362.371-1.883a2.615 2.615 0 011.086-1.188c.477-.271 1.048-.406 1.715-.406s1.237.138 1.711.414a2.66 2.66 0 011.082 1.203c.247.526.371 1.159.371 1.898v.008c0 .406-.052.84-.156 1.301s-.253.918-.445 1.371l-.094.207c-.031.07-.065.14-.102.207l-2.422 4.867H65.31l2.859-5.639zm.074-.985c.273-.338.41-.815.41-1.43v-.008c0-.599-.137-1.063-.41-1.391s-.66-.492-1.16-.492c-.505 0-.895.164-1.168.492s-.41.794-.41 1.398v.008c0 .615.137 1.09.41 1.426s.663.504 1.168.504c.5.001.887-.168 1.16-.507zM72.2 166.705h1.594v1.594l-1.594 1.578v-3.172zM77.626 168.08a2.75 2.75 0 01-1.086-.977c-.278-.427-.465-.94-.559-1.539v-.008h1.594v.008c.058.417.224.741.5.973.276.232.636.348 1.078.348.511 0 .905-.17 1.184-.512.278-.341.418-.821.418-1.441v-.953c0-.614-.14-1.092-.418-1.434-.278-.341-.673-.512-1.184-.512-.276 0-.542.078-.797.234s-.479.375-.672.656h-1.453v-5.984h5.789v1.516h-4.195v2.555a2.275 2.275 0 011.414-.508c.656 0 1.218.136 1.684.406.466.271.82.667 1.063 1.188.242.521.363 1.148.363 1.883v.953c0 .734-.125 1.362-.375 1.883-.25.521-.614.918-1.094 1.191s-1.055.41-1.727.41c-.573-.001-1.082-.113-1.527-.336zM465.28 530.487c-.445-.224-.808-.55-1.086-.977s-.465-.94-.559-1.539v-.008h1.594v.008c.058.417.224.741.5.973s.636.348 1.078.348c.511 0 .905-.171 1.184-.512s.418-.821.418-1.441v-.953c0-.614-.14-1.093-.418-1.434s-.673-.512-1.184-.512c-.276 0-.542.078-.797.234s-.479.375-.672.656h-1.453v-5.984h5.789v1.516h-4.195v2.555a2.275 2.275 0 011.414-.508c.656 0 1.218.136 1.684.406s.82.667 1.063 1.188.363 1.148.363 1.883v.953c0 .734-.125 1.362-.375 1.883s-.614.918-1.094 1.191-1.055.41-1.727.41c-.572 0-1.081-.112-1.527-.336zM472.191 529.112h1.594v1.594l-1.594 1.578v-3.172zM475.8 529.323l3.961-5.281c.229-.302.407-.616.535-.941s.191-.629.191-.91v-.016c0-.453-.133-.805-.398-1.055s-.644-.375-1.133-.375c-.464 0-.839.137-1.125.41s-.461.66-.523 1.16v.008h-1.648v-.008c.094-.651.285-1.207.574-1.668s.663-.813 1.121-1.055.987-.363 1.586-.363c.677 0 1.255.116 1.734.348s.844.569 1.094 1.012.375.977.375 1.602v.008c0 .401-.083.82-.25 1.258s-.398.859-.695 1.266l-3.289 4.469h4.297v1.516H475.8v-1.385zM17.346 274.506l3.813-8.227H22.8l-3.719 8.133h5.57v1.477h-7.305v-1.383zm4.898-3.554h1.555v6.688h-1.555v-6.688zM26.447 276.038h1.594v1.594l-1.594 1.578v-3.172zM34.252 271.991l-.008.281c-.13.24-.327.416-.59.527a2.372 2.372 0 01-.934.168c-.542 0-1.019-.138-1.43-.414-.411-.276-.73-.665-.957-1.168-.227-.502-.34-1.084-.34-1.746v-.008c0-.734.124-1.362.371-1.883a2.615 2.615 0 011.086-1.188c.477-.271 1.048-.406 1.715-.406s1.237.138 1.711.414a2.66 2.66 0 011.082 1.203c.247.526.371 1.159.371 1.898v.008c0 .406-.052.84-.156 1.301s-.253.918-.445 1.371l-.094.207c-.031.07-.065.14-.102.207l-2.422 4.867h-1.719l2.861-5.639zm.074-.985c.273-.338.41-.815.41-1.43v-.008c0-.599-.137-1.063-.41-1.391s-.66-.492-1.16-.492c-.505 0-.895.164-1.168.492-.273.328-.41.794-.41 1.398v.008c0 .615.137 1.09.41 1.426.273.336.663.504 1.168.504.5.001.887-.168 1.16-.507z"/><g><path d="M147.648 319.405a2.61 2.61 0 01-1.082-1.172c-.247-.513-.371-1.131-.371-1.855v-.008c0-.422.05-.864.148-1.328a7.673 7.673 0 01.532-1.597l.109-.223 2.469-4.891h1.719l-2.898 5.664.008-.281c.13-.245.32-.435.57-.57.25-.135.542-.203.875-.203.589 0 1.094.133 1.516.398s.742.652.961 1.16.328 1.119.328 1.832v.008c0 .729-.124 1.354-.371 1.875a2.615 2.615 0 01-1.086 1.188c-.477.271-1.048.406-1.715.406s-1.239-.134-1.712-.403zm2.879-1.597c.273-.313.41-.758.41-1.336v-.008c0-.635-.144-1.126-.43-1.473-.286-.346-.695-.52-1.227-.52-.474 0-.841.175-1.102.523-.261.349-.391.841-.391 1.477v.008c0 .578.137 1.022.41 1.332.273.31.66.465 1.16.465.506 0 .896-.156 1.17-.468zM154.484 318.097h1.594v1.594l-1.594 1.578v-3.172zM158.109 316.565l3.813-8.227h1.641l-3.719 8.133h5.57v1.477h-7.305v-1.383zm4.898-3.554h1.555v6.688h-1.555v-6.688z"/></g><g><path d="M219.932 300.508l-.727-.348a2.857 2.857 0 01-1.168-1.008c-.294-.44-.48-.97-.559-1.59h1.625c.047.323.148.589.305.797.156.208.358.363.605.465s.538.152.871.152c.526 0 .935-.141 1.227-.422s.438-.677.438-1.188v-.344c0-.567-.138-1.006-.414-1.316-.276-.31-.667-.465-1.172-.465h-.805v-1.516h.805c.442 0 .786-.133 1.031-.398s.367-.641.367-1.125v-.352c0-.448-.129-.794-.387-1.039-.258-.245-.624-.367-1.098-.367-.271 0-.513.051-.727.152s-.395.258-.543.469-.257.476-.324.793h-1.617c.104-.62.301-1.151.59-1.594a2.893 2.893 0 011.098-1.008c.442-.229.95-.344 1.523-.344.979 0 1.737.258 2.273.773s.805 1.242.805 2.18v.188c0 .568-.153 1.063-.461 1.484s-.742.729-1.305.922c.62.136 1.101.44 1.441.914.341.474.512 1.078.512 1.813v.188c0 .662-.128 1.227-.383 1.695s-.626.826-1.113 1.07c-.487.245-1.074.367-1.762.367l-.951.002zM226.252 298.797h1.594v1.594l-1.594 1.578v-3.172zM229.861 299.008l3.961-5.281c.229-.302.407-.616.535-.941.128-.325.191-.629.191-.91v-.016c0-.453-.133-.805-.398-1.055s-.644-.375-1.133-.375c-.464 0-.839.137-1.125.41s-.461.66-.523 1.16v.008h-1.648V292c.094-.651.285-1.207.574-1.668s.663-.813 1.121-1.055.987-.363 1.586-.363c.677 0 1.255.116 1.734.348.479.232.844.569 1.094 1.012.25.443.375.977.375 1.602v.008c0 .401-.083.82-.25 1.258s-.398.859-.695 1.266l-3.289 4.469h4.297v1.516h-6.406v-1.385z"/></g><g><path d="M193.133 246.319h-1.594v-9.625l-1.617.992v-1.648l1.617-1.078h1.594v11.359zM195.539 244.936l3.961-5.281c.229-.302.407-.616.535-.941.128-.325.191-.629.191-.91v-.016c0-.453-.133-.805-.398-1.055s-.644-.375-1.133-.375c-.464 0-.839.137-1.125.41s-.461.66-.523 1.16v.008h-1.648v-.008c.094-.651.285-1.207.574-1.668s.663-.813 1.121-1.055.987-.363 1.586-.363c.677 0 1.255.116 1.734.348.479.232.844.569 1.094 1.012.25.443.375.977.375 1.602v.008c0 .401-.083.82-.25 1.258s-.398.859-.695 1.266l-3.289 4.469h4.297v1.516h-6.406v-1.385zM203.82 244.726h1.594v1.594l-1.594 1.578v-3.172zM209.246 246.101a2.75 2.75 0 01-1.086-.977c-.278-.427-.465-.94-.559-1.539v-.008h1.594v.008c.058.417.224.741.5.973.276.232.636.348 1.078.348.511 0 .905-.17 1.184-.512.278-.341.418-.821.418-1.441V242c0-.614-.14-1.092-.418-1.434-.278-.341-.673-.512-1.184-.512-.276 0-.542.078-.797.234s-.479.375-.672.656h-1.453v-5.984h5.789v1.516h-4.195v2.555a2.275 2.275 0 011.414-.508c.656 0 1.218.136 1.684.406.466.271.82.667 1.063 1.188.242.521.363 1.148.363 1.883v.953c0 .734-.125 1.362-.375 1.883-.25.521-.614.918-1.094 1.191s-1.055.41-1.727.41c-.573-.001-1.081-.113-1.527-.336z"/></g><g><path d="M334.52 314.746h-1.594v-9.625l-1.617.992v-1.648l1.617-1.078h1.594v11.359zM337.922 314.012c-.55-.567-.824-1.359-.824-2.375v-5.164c0-1.021.276-1.813.828-2.379.552-.565 1.356-.848 2.414-.848 1.063 0 1.868.281 2.418.844s.824 1.357.824 2.383v5.164c0 1.021-.276 1.814-.828 2.379-.552.565-1.356.848-2.414.848-1.063-.001-1.868-.284-2.418-.852zm3.664-1.106c.269-.294.402-.717.402-1.27v-5.164c0-.552-.133-.975-.398-1.27-.266-.294-.683-.441-1.25-.441s-.984.147-1.25.441c-.266.294-.398.718-.398 1.27v5.164c0 .552.134.976.402 1.27.269.294.684.441 1.246.441s.978-.146 1.246-.441zM345.77 313.152h1.594v1.594l-1.594 1.578v-3.172zM351.195 314.527a2.75 2.75 0 01-1.086-.977c-.278-.427-.465-.94-.559-1.539v-.008h1.594v.008c.058.417.224.741.5.973.276.232.636.348 1.078.348.511 0 .905-.17 1.184-.512.278-.341.418-.821.418-1.441v-.953c0-.614-.14-1.092-.418-1.434-.278-.341-.673-.512-1.184-.512-.276 0-.542.078-.797.234s-.479.375-.672.656H349.8v-5.984h5.789v1.516h-4.195v2.555a2.275 2.275 0 011.414-.508c.656 0 1.218.136 1.684.406.466.271.82.667 1.063 1.188.242.521.363 1.148.363 1.883v.953c0 .734-.125 1.362-.375 1.883-.25.521-.614.918-1.094 1.191s-1.055.41-1.727.41c-.572 0-1.081-.112-1.527-.336z"/></g><g><path d="M338.623 416.686h-1.594v-9.625l-1.617.992v-1.648l1.617-1.078h1.594v11.359zM342.42 416.4a2.604 2.604 0 01-1.082-1.172c-.247-.513-.371-1.131-.371-1.855v-.008c0-.422.05-.864.148-1.328a7.673 7.673 0 01.532-1.597l.109-.223 2.469-4.891h1.719l-2.898 5.664.008-.281c.13-.244.32-.435.57-.57.25-.135.542-.203.875-.203.589 0 1.094.133 1.516.398s.742.652.961 1.16.328 1.119.328 1.832v.008c0 .729-.124 1.354-.371 1.875a2.615 2.615 0 01-1.086 1.188c-.477.271-1.048.406-1.715.406s-1.238-.134-1.712-.403zm2.879-1.597c.273-.313.41-.758.41-1.336v-.008c0-.635-.144-1.126-.43-1.473-.286-.346-.695-.52-1.227-.52-.474 0-.841.175-1.102.523-.261.35-.391.842-.391 1.477v.008c0 .578.137 1.022.41 1.332.273.311.66.465 1.16.465.507 0 .897-.156 1.17-.468zM349.256 415.092h1.594v1.594l-1.594 1.578v-3.172zM355.779 416.686h-1.594v-9.625l-1.617.992v-1.648l1.617-1.078h1.594v11.359z"/></g><g><path d="M256.166 614.013l3.961-5.281c.229-.302.407-.616.535-.941s.191-.629.191-.91v-.016c0-.453-.133-.805-.398-1.055s-.644-.375-1.133-.375c-.464 0-.839.137-1.125.41s-.461.66-.523 1.16v.008h-1.648v-.008c.094-.651.285-1.207.574-1.668s.663-.813 1.121-1.055.987-.363 1.586-.363c.677 0 1.255.116 1.734.348s.844.569 1.094 1.012.375.977.375 1.602v.008c0 .401-.083.82-.25 1.258s-.398.859-.695 1.266l-3.289 4.469h4.297v1.516h-6.406v-1.385zM265.428 614.661c-.55-.567-.824-1.359-.824-2.375v-5.164c0-1.021.276-1.813.828-2.379s1.356-.848 2.414-.848c1.063 0 1.868.281 2.418.844s.824 1.356.824 2.383v5.164c0 1.021-.276 1.813-.828 2.379s-1.356.848-2.414.848c-1.063 0-1.868-.284-2.418-.852zm3.664-1.105c.269-.294.402-.718.402-1.27v-5.164c0-.552-.133-.976-.398-1.27s-.683-.441-1.25-.441-.984.147-1.25.441-.398.718-.398 1.27v5.164c0 .552.134.976.402 1.27s.684.441 1.246.441.977-.147 1.246-.441zM273.276 613.802h1.594v1.594l-1.594 1.578v-3.172zM282.924 605.458l-2.938 9.938h-1.695l2.938-9.844h-2.891v1.633h-1.594v-3.148h6.18v1.421z"/></g><g><path d="M242.765 567.198l3.813-8.227h1.641l-3.719 8.133h5.57v1.477h-7.305v-1.383zm4.898-3.554h1.555v6.688h-1.555v-6.688zM251.866 568.729h1.594v1.594l-1.594 1.578v-3.172zM257.292 570.104a2.75 2.75 0 01-1.086-.977c-.278-.427-.465-.939-.559-1.539v-.008h1.594v.008c.058.417.224.741.5.973.276.232.636.348 1.078.348.511 0 .905-.17 1.184-.512.278-.341.418-.821.418-1.441v-.953c0-.614-.14-1.092-.418-1.434-.278-.341-.673-.512-1.184-.512-.276 0-.542.078-.797.234s-.479.375-.672.656h-1.453v-5.984h5.789v1.516h-4.195v2.555a2.275 2.275 0 011.414-.508c.656 0 1.218.136 1.684.406.466.271.82.667 1.063 1.188.242.521.363 1.148.363 1.883v.953c0 .734-.125 1.362-.375 1.883-.25.521-.614.918-1.094 1.191s-1.055.41-1.727.41c-.573 0-1.082-.112-1.527-.336z"/></g><g><path d="M249.636 341.35l3.813-8.227h1.641l-3.719 8.133h5.57v1.477h-7.305v-1.383zm4.898-3.555h1.555v6.688h-1.555v-6.688zM258.737 342.881h1.594v1.594l-1.594 1.578v-3.172zM264.503 344.592l-.727-.348a2.857 2.857 0 01-1.168-1.008c-.294-.44-.48-.97-.559-1.59h1.625c.047.323.148.589.305.797.156.208.358.363.605.465s.538.152.871.152c.526 0 .935-.141 1.227-.422s.438-.677.438-1.188v-.344c0-.567-.138-1.006-.414-1.316-.276-.31-.667-.465-1.172-.465h-.805v-1.516h.805c.442 0 .786-.133 1.031-.398s.367-.641.367-1.125v-.352c0-.448-.129-.794-.387-1.039-.258-.245-.624-.367-1.098-.367-.271 0-.513.051-.727.152s-.395.258-.543.469-.257.476-.324.793h-1.617c.104-.62.301-1.151.59-1.594a2.893 2.893 0 011.098-1.008c.442-.229.95-.344 1.523-.344.979 0 1.737.258 2.273.773s.805 1.242.805 2.18v.188c0 .568-.153 1.063-.461 1.484s-.742.729-1.305.922c.62.136 1.101.44 1.441.914.341.474.512 1.078.512 1.813v.188c0 .662-.128 1.227-.383 1.695s-.626.826-1.113 1.07c-.487.245-1.074.367-1.762.367l-.951.002z"/></g><g><path d="M462.973 212.527l3.961-5.281c.229-.302.407-.616.535-.941.128-.325.191-.629.191-.91v-.016c0-.453-.133-.805-.398-1.055s-.644-.375-1.133-.375c-.464 0-.839.137-1.125.41s-.461.66-.523 1.16v.008h-1.648v-.008c.094-.651.285-1.207.574-1.668s.663-.813 1.121-1.055.987-.363 1.586-.363c.677 0 1.255.116 1.734.348.479.232.844.569 1.094 1.012.25.443.375.977.375 1.602v.008c0 .401-.083.82-.25 1.258s-.398.859-.695 1.266l-3.289 4.469h4.297v1.516h-6.406v-1.385zM471.254 212.316h1.594v1.594l-1.594 1.578v-3.172zM476.68 213.691a2.75 2.75 0 01-1.086-.977c-.278-.427-.465-.94-.559-1.539v-.008h1.594v.008c.058.417.224.741.5.973.276.232.636.348 1.078.348.511 0 .905-.17 1.184-.512.278-.341.418-.821.418-1.441v-.953c0-.614-.14-1.092-.418-1.434-.278-.341-.673-.512-1.184-.512-.276 0-.542.078-.797.234s-.479.375-.672.656h-1.453v-5.984h5.789v1.516h-4.195v2.555a2.275 2.275 0 011.414-.508c.656 0 1.218.136 1.684.406.466.271.82.667 1.063 1.188.242.521.363 1.148.363 1.883v.953c0 .734-.125 1.362-.375 1.883-.25.521-.614.918-1.094 1.191s-1.055.41-1.727.41c-.573 0-1.082-.112-1.527-.336z"/></g></g></svg>