<svg version="1.1" id="_x33_84" xmlns="http://www.w3.org/2000/svg" x="0" y="0" viewBox="0 0 488.442 725.552" xml:space="preserve"><style>.st0,.st1{fill-rule:evenodd;clip-rule:evenodd}.st0{fill:#fff}.st1{stroke:#999;stroke-width:.4}.st1,.st2,.st4{fill:none;stroke-linecap:round;stroke-linejoin:round;stroke-miterlimit:3}.st2{fill-rule:evenodd;clip-rule:evenodd;stroke:#999}.st4{stroke:#000}.st4,.st5,.st6,.st7{fill-rule:evenodd;clip-rule:evenodd}.st6,.st7{fill:none;stroke-miterlimit:22.9256}.st6{stroke-linecap:round;stroke-linejoin:round;stroke:#000}.st7{stroke:#666;stroke-width:.6}</style><path class="st0" d="M284.555 493.548V.214H40.972v39H.388v254.751h40.584v40.583H.388v120.833h40.584v270.083h446.916V493.548z" id="fon"/><g id="mebel_1_"><g id="mebel"><path class="st1" d="M369.261 552.129h92.624m-92.624-11.336h72.995M369.261 529.457h92.624m-92.624-11.335h92.624m-34.622-11.336h34.622m-18.326 50.917v-15.771m0-10.213v-30.507m-22.672 56.491v-41.377m-22.672 41.377v-41.377m-22.671 41.377v-41.377m-22.672-15.113M325.269 557.703l6.211-6.212m-13.158 6.212l13.164-13.164m-20.111 13.164l20.117-20.117m-27.063 20.117l27.068-27.069m-34.016 27.069l34.022-34.022m-40.968 34.022l40.974-40.976m-47.921 40.976l41.376-41.377m-48.323 41.377l41.375-41.377m-48.322 41.377l41.376-41.377m-43.029 36.082l36.081-36.081m-36.081 29.134l14.248-14.248m6.782-6.782l10.144-10.144m-31.174 24.228l9.73-9.73m10.961-10.961l7.731-7.731m-28.422 21.474l7.964-7.964m12.064-12.063l1.447-1.447m-21.475 14.527l8.595-8.594m-8.595 1.648l7.581-7.581m-7.581.633l.634-.633m62.831 9.843l-3.61-3.609m3.604 10.552l-10.552-10.552m10.547 17.492l-17.493-17.493m-14.717-14.717l-.07-.07m32.274 39.222l-24.434-24.434m24.428 31.375l-31.375-31.375m-.894-.894l-5.34-5.341m37.603 44.551l-43.444-43.444m39.557 46.504l-38.737-38.737m31.79 38.737l-31.867-31.867m-11.918-11.918l-3.825-3.825m40.663 47.61l-27.619-27.619m-9.882-9.882l-8.154-8.154m38.708 45.655l-27.528-27.528m-1.674-1.675l-9.506-9.506m31.761 38.709l-31.761-31.762m24.814 31.762l-24.814-24.814m17.867 24.814l-17.867-17.867m10.92 17.867l-10.92-10.921m3.974 10.921l-3.974-3.974M209.284 318.28h53.467m-53.467-11.336h32.903m-32.903-11.336h53.467m-53.467-11.336h68.204m-68.204-11.336h40.143m17.584 0h10.476M209.284 261.6h34.815m28.241 0h5.147m-68.203-11.336h33.446m30.979 0h3.778m-68.203-11.336h34.814m28.242 0h5.147m-68.203-11.335h40.141m17.588 0h10.474m-68.203-11.336h68.204m-68.204-11.336h53.467m-53.467-11.336h53.467m-53.467-11.336h53.467m3.307 105.377v-13.608m0-47.509v-13.511M243.386 323.239v-14.51m0-8.578v-41.939m0-15.898V177.29m-22.673 145.949V177.29"/><path class="st2" d="M247.76 298.039l-1.645.469m0 0l-1.552.718m0 0l-1.23.968m0 0l-.943 1.248m0 0l-.593 1.448m0 0l-.206 1.55m0 0l.206 1.552m0 0l.593 1.447m0-.001l.943 1.249m0 .001l1.23.967m0 0l1.552.719m0 0l1.645.469m0 0l1.697.207m0 0l1.71-.059m0 0l11.584-1.223m0 0v-10.654m0 0l-11.584-1.223m0 0l-1.71-.059m0 0l-1.697.207M257.03 308.557v-4.117M257.03 304.44v-4.116M242.762 307.505a5.757 5.757 0 01-.886-3.064M249.593 310.752c-2.591.165-5.107-1.031-6.83-3.248M257.03 308.557c-2.253 1.505-4.828 2.266-7.437 2.195M249.593 298.128c2.609-.07 5.184.69 7.437 2.195M242.762 301.377c1.723-2.217 4.239-3.413 6.83-3.248M241.876 304.44a5.751 5.751 0 01.886-3.063M262.562 299.794h.189v9.294h-.189zM262.751 309.089v-9.296m0-.001h-.188m0 0v9.296m0 .001h.188M262.751 294.994v18.894M267.286 294.994v18.894M262.751 294.994h4.535M262.751 313.887h4.535M277.488 177.856v34.575m0 0l-.166.401m0 0l-.401.166m0 0h-13.603m0 0l-.401-.166m0 0l-.166-.401m0 0v-34.575m0 0l.166-.4m0 0l.401-.166m0 0h13.603m0 0l.401.166m0 0l.166.4M273.331 178.99v15.701m0 .905v15.702M272.764 211.864h-8.313M263.885 211.298v-32.309M264.451 178.423h8.314M273.331 211.298a.566.566 0 01-.567.566M264.451 211.864a.566.566 0 01-.567-.566M263.885 178.99c0-.313.254-.566.567-.566M272.764 178.423c.313 0 .567.253.567.566M271.051 195.596a.754.754 0 01-1.21 0h1.21zm-1.209-.906a.755.755 0 011.209 0h-1.209zM276.959 195.597v-.907m0 0h-7.748m0 0l-.301.256m0 0v.395m0 0l.301.256m0 0h7.748M276.959 194.388v1.512m0 0h.265m0 0v-1.512m0 0h-.265M277.224 194.01v2.267m0 0h.264m-.001 0v-2.267m0 0h-.264M275.598 191.875h1.625m.001 0v.095m0 0h.132m-.001 0v.283m0 0h.132m0 0v-1.889m0 0h-.132m0 0v.283m0 0h-.132m.001 0v.094m0 0h-1.625m-.001 0v.322m0 0h-.416m.001 0v-1.077m0 0h-.491m-.001 0v2.644m0 0h.491m.001 0v-1.076m0 0h.416m-.001 0v.321M275.598 198.412h1.625m.001 0v-.095m0 0h.132m-.001 0v-.282m0 0h.132m0 0v1.889m0 0h-.132m0 0v-.284m0 0h-.132m.001 0v-.094m0 0h-1.625m-.001 0v-.322m0 0h-.416m.001 0v1.077m0 0h-.491m-.001 0v-2.644m0 0h.491m.001 0v1.076m0 0h.416m-.001 0v-.321M275.183 191.062l-.072.072M275.183 191.554l-.072-.072M275.598 191.062v.492M277.224 190.741v1.134M277.355 191.97v-1.323M275.183 199.225l-.072-.072M275.183 198.734l-.072.072M275.598 199.225v-.491M277.224 199.546v-1.134M277.355 198.317v1.323M275.183 191.308a.246.246 0 11-.491 0 .246.246 0 01.491 0zM275.183 198.979a.246.246 0 11-.491 0 .246.246 0 01.491 0zM384.376 501.212h42.321m0 0l.4.166m0 0l.166.401m0 .001v13.981m0-.001l-.166.4m0 .001l-.4.166m0-.001h-42.321m0 0l-.401-.166m0 .001l-.166-.4m0-.001v-13.98m0 0l.166-.401m0-.001l.401-.166M385.509 505.369h19.574m.906 0h19.574M426.13 505.936v8.69M425.563 515.194h-40.054M384.942 514.626v-8.689M425.563 505.369c.313 0 .567.254.567.567M426.13 514.626a.567.567 0 01-.567.567M385.509 515.194a.567.567 0 01-.567-.567M384.942 505.936c0-.313.254-.567.567-.567M406.292 508.357a.754.754 0 01-.303.605v-1.21a.755.755 0 01.303.605zm-1.209.605a.754.754 0 010-1.21v1.21zM405.99 501.742h-.907m-.001 0v7.748m0 0l.256.301m0 0h.395m.001 0l.256-.301m0 0v-7.748M404.78 501.742h1.512m0 0v-.265m0 0h-1.512m0 0v.265M404.403 501.477h2.267m0 0v-.265m0 0h-2.267m0 0v.265M402.267 503.102v-1.625m0 0h.094m.001 0v-.132m0 0h.284m0 0v-.133m0 0h-1.889m0 0v.133m0 0h.283m-.001 0v.132m0 0h.094m.001 0v1.625m0 0h.322m0 0v.416m0 0h-1.077m-.001 0v.49m0 0h2.645m0 0v-.49m0 0h-1.077m.001 0v-.416m0 0h.321M408.805 503.102v-1.625m0 0h-.095m-.001 0v-.132m0 0h-.283m.001 0v-.133m0 0h1.889m0 0v.133m0 0h-.283m0 0v.132m0 0h-.095m0 0v1.625m0 0h-.321m0 0v.416m0 0h1.077m0 0v.49m0 0h-2.645m0 0v-.49m0 0h1.077m0 0v-.416m0 0h-.321M401.455 503.518l.072.071M401.946 503.518l-.072.071M401.455 503.102h.491M401.134 501.477h1.134M402.362 501.345h-1.322M409.617 503.518l-.072.071M409.126 503.518l.072.071M409.617 503.102h-.491M409.938 501.477h-1.133M408.71 501.345h1.323M401.946 503.763a.245.245 0 11-.492 0 .245.245 0 01.492 0zM409.617 503.763a.245.245 0 11-.49 0 .245.245 0 01.49 0zM446.894 530.424l-1.645.469m0 0l-1.552.718m-.001 0l-1.23.967m0 0l-.943 1.249m.001 0l-.593 1.448m0 0l-.206 1.551m-.001 0l.206 1.551m.001 0l.593 1.447m0 0l.943 1.248m-.001 0l1.23.968m0 0l1.552.719m.001 0l1.645.469m0 0l1.698.207m-.001 0l1.709-.059m0 0l11.584-1.223m.001 0v-10.654m0 0l-11.584-1.223m-.001 0l-1.709-.059m0 0l-1.698.207M456.164 540.943v-4.116M456.164 536.827v-4.117M441.897 539.889a5.743 5.743 0 01-.887-3.063M448.726 543.138c-2.592.165-5.107-1.032-6.83-3.249M456.164 540.943c-2.253 1.505-4.829 2.265-7.437 2.195M448.726 530.514c2.609-.07 5.185.69 7.437 2.195M441.897 533.762c1.723-2.217 4.238-3.413 6.83-3.248M441.01 536.827a5.735 5.735 0 01.887-3.064M461.696 532.179h.188v9.295h-.188zM461.885 541.474v-9.296m0 0h-.188m0 0v9.296m0 0h.188M461.885 527.38v18.894M466.419 527.38v18.894M461.885 527.38h4.534M461.885 546.273h4.534M334.498 557.704h34.763M369.261 557.704v-56.491M369.261 501.212h-34.763M342.055 551.09a.946.946 0 11-1.891-.001.946.946 0 011.891.001zM347.481 529.504l.372 1.397m0-.001l.793 1.208m0 .001l1.132.899m0-.001l1.358.495m0 0l1.445.044m0 .001l1.385-.414m0-.001l1.184-.828m0 0l.864-1.159m0 0l.455-1.372m0 0v-1.446m0 0l-.455-1.372m0 0l-.864-1.159m0 0l-1.184-.829m0 .001l-1.385-.413m0-.001l-1.445.043m0 0l-1.358.496m0 0l-1.132.897m0 .001l-.793 1.209m0 0l-.372 1.397m0-.001h-5.538m0 0l.108-.455m0 0l.037-.49m0 0l-.037-.489m0 0l-.108-.455m0 0l-.172-.392m0 0l-.225-.299m0 0l-.261-.19m0 0l-.281-.064m0 0h-.402m0 0l-.12.019m0 0l-.278.064m0 0l-.103.054m0 .001l-.251.182m0 0l-.07.078m0-.001l-.205.274m0 0l-.157.357m0 0l-.052.195m0 0l-.059.25m0 .001l-.688.02m0-.001l-.796.009m0 0v-1.729m0 .001h-.435m0 0v-2.871m0-.001l-.058-.16m0 0l-.149-.083m0 0l-.167.033m0 0l-.105.134m0 0l-.158.485m0 0l-.315.726m0 0l-.573 1.008m0 0l-.259.728m0 .001h-.124m0 0v-.604m0 0h-.982m0 0v2.569m0 0h.877m0 0l.038.063m0-.001l.034.033m0 0l.04.025m0 0l.673.278m0 0v.697m0 0h-1.36m0 0v-1.058m0 .001h-.302m0 0v3.023m0-.001h.302m0 0v-1.058m0 .001h1.36m0 0v1.437m0-.001h.151m0 0v.415m0 0h-.302m0 0v-.152m0 0h-.529m0 0v-.604m0 0h-.982m0 0v2.569m0 0h.982m0 0v-.604m0 0h.529m0 0v-.151m0 .001h.302m0 0v.151m0-.001h1.512m0 0v-2.57m0 0h2.154m0 0v-.082m0 .001v-.094m0-.001v-.123m0 0v-.15m0 0v-.042m0 .001h7.504M336.16 527.161v.21m0 0l-.341-.141m0 0l-.053-.325m0 0l.002-.009m0 0h.241m.001 0v-.151m0 0h.302m-.001 0v.416m0 0h-.151M336.311 525.687h-.24m0 0l.239-.677m0 0l.563-.987m0 0l.024-.053m0 0v1.566m0 0h-.586m0 0v.151M335.48 531.544h.529M335.48 532.224h.529M335.48 525.887v-.352M336.009 526.745v-.188M336.009 526.556v-.681M336.009 525.875v-.013M335.833 526.556h.176M336.004 525.875h.005M336.311 525.687v1.058M337.823 528.039v.557M336.897 525.536h.491M338.39 528.106v.49M337.376 522.741l.012-.076M335.273 526.889l.002.048M335.305 526.719l-.032.17M335.356 527.434l.01.047M335.367 527.481l.008.02M335.604 525.536l-.16.453M335.444 525.989l-.139.73M335.777 526.845l-.011.06M337.376 522.741l-.167.512M337.209 523.253l-.312.718M335.461 525.947v.001M335.275 526.937l.082.497M339.878 528.594l-.002.002M339.348 528.596l-.002-.002M336.708 527.161h-.128M336.463 527.161h-.103M336.58 527.161h-.117M336.16 527.371v.523M335.917 526.123l-.14.723M336.071 525.687l-.154.436M336.794 527.84v.001M336.749 527.749l.044.091M336.734 527.652l.015.098M336.749 527.554l-.015.098M336.794 527.463l-.044.091M339.29 527.307l-.026.345M339.264 527.652l.026.345M339.307 527.236l-.017.071M339.367 528.318l.051.195M339.29 527.997l.077.321M336.961 527.283l.062-.009M339.418 528.513l.037.083M339.307 528.068l-.688-.02M337.023 528.03l-.062-.009M336.961 528.021l-.058-.026M336.903 527.995l-.05-.042M336.853 527.953l-.038-.055M336.815 527.898l-.021-.057M336.794 527.84l-.002-.007M336.791 527.834l-.008-.068M336.783 527.765v-.227M336.783 527.539l.008-.069M336.791 527.47l.002-.007M336.794 527.463l.021-.057M336.815 527.407l.038-.055M336.853 527.352l.05-.042M336.903 527.31l.058-.027M338.619 528.048l-1.596-.019M337.823 527.264l-.8.01M337.521 527.161v.107M337.521 528.036v.561M347.481 529.504h5.343M347.481 528.596h5.343M352.824 529.504v-.908M335.48 532.564v-1.36M336.009 532.414v-1.059M336.311 532.414v-1.059M336.311 530.94h1.209M337.521 527.161h-1.209M334.8 529.504v-.908M336.16 529.504h3.816M341.943 528.596h-5.783M337.521 530.94v-1.437M337.823 529.995v-.491M338.39 529.995v-.491M337.823 528.106h1.493M350.159 528.596a1.889 1.889 0 110 .907M337.437 530.94a.34.34 0 11-.589 0M299.782 501.212h31.174m0 0l.4.166m0 0l.167.401m0 .001v13.981m0-.001l-.167.4m0 .001l-.4.166m0-.001h-31.174m0 0l-.401-.166m0 .001l-.166-.4m-.001-.001v-13.98m0 0l.166-.401m.001-.001l.401-.166M300.915 505.369h13.999m.907 0h14.001M330.388 505.936v8.69M329.822 515.194h-28.907M300.349 514.626v-8.689M329.822 505.369c.312 0 .566.254.566.567M330.388 514.626a.567.567 0 01-.566.567M300.915 515.194a.567.567 0 01-.567-.567M300.349 505.936c0-.313.253-.567.567-.567M316.124 508.357a.754.754 0 01-.303.605v-1.21a.755.755 0 01.303.605zm-1.21.604a.755.755 0 010-1.208v1.208zM315.822 501.742h-.907m0 0v7.748m0 0l.256.301m0 0h.395m0 0l.256-.301m0 0v-7.748M314.613 501.742h1.512m0 0v-.265m0 0h-1.512m0 0v.265M314.235 501.477h2.267m0 0v-.265m0 0h-2.267m0 0v.265M312.1 503.102v-1.625m0 0h.094m0 0v-.132m0 0h.284m0 0v-.133m0 0h-1.889m0 0v.133m0 0h.283m0 0v.132m0 0h.094m0 0v1.625m0 0h.322m0 0v.416m0 0h-1.077m0 0v.49m0 0h2.645m0 0v-.49m0 0h-1.077m0 0v-.416m0 0h.321M318.637 503.102v-1.625m0 0h-.095m0 0v-.132m0 0h-.283m0 0v-.133m0 0h1.889m0 0v.133m0 0h-.283m0 0v.132m0 0h-.095m0 0v1.625m0 0h-.321m0 0v.416m0 0h1.077m0 0v.49m0 0h-2.645m0 0v-.49m0 0h1.077m0 0v-.416m0 0h-.321M311.287 503.518l.072.071M311.779 503.518l-.072.071M311.287 503.102h.491M310.966 501.477h1.134M312.194 501.345h-1.322M319.449 503.518l-.072.071M318.958 503.518l.072.071M319.449 503.102h-.491M319.77 501.477h-1.133M318.542 501.345h1.323M311.779 503.763a.245.245 0 11-.49 0 .245.245 0 01.49 0zM319.449 503.763a.245.245 0 11-.492 0 .245.245 0 01.492 0zM276.187 525.083l.469 1.646m0 .001l.718 1.551m0 0l.968 1.23m0 0l1.248.943m0-.001l1.448.594m0 .001l1.551.205m0-.001l1.551-.205m0 .001l1.448-.594m0-.001l1.248-.943m0 .001l.968-1.23m0 0l.718-1.551m0 0l.469-1.646m0-.001l.207-1.697m0 .001l-.059-1.709m0 0l-1.223-11.585m0-.001h-10.654m0 0l-1.223 11.585m0 .001l-.059 1.709m0 0l.207 1.697M286.705 515.814h-4.117M282.589 515.814h-4.116M285.652 530.081a5.752 5.752 0 01-3.063.887M288.901 523.251c.165 2.592-1.031 5.107-3.249 6.83M286.705 515.814c1.505 2.253 2.266 4.827 2.195 7.437M276.277 523.251c-.07-2.609.689-5.184 2.195-7.437M279.525 530.081c-2.217-1.723-3.413-4.238-3.248-6.83M282.589 530.967a5.743 5.743 0 01-3.063-.887M277.942 510.093h9.295v.188h-9.295zM287.237 510.092h-9.295m0 0v.189m0 0h9.295m0 0v-.189M273.142 510.092h18.893M273.142 505.558h18.893M273.142 510.092v-4.534M292.035 510.092v-4.534M109.713 348.373v-1.394M109.713 346.979l.114-.113M109.827 346.866h.457M110.854 348.373v-1.394M110.854 346.979l-.114-.113M110.74 346.866h-.456M95.465 405.662l-7.081-1.617m0 0l-.714-.182m0 0l-.679-.207m0 0l-.629-.229m0 0l-.56-.245m0 0l-.021-.011m0 0l-.478-.254m0 0l-.377-.254m0 0l-.024-.021m0 0l-.267-.248m0 0l-.022-.027m0 0l-.145-.234m0 0l-.018-.033m0 0l-.011-.036m0 0l-.004-.037m0 0l-.019-.214m0 0l.001-.038m0 0l.004-.018m0 0l.446-1.955m0 0l-1.774-.406m0 0l3.367-14.734m0 0l1.773.405m0 0l.263-1.152m0 0l15.609 3.565m0 0l-.264 1.153m0 0l1.774.405m0 0l-3.366 14.734m0 0l-1.774-.405m0 0l-.446 1.954m0 0l-.005.019m0 0l-.015.035m0 0l-.11.185m0 0l-.02.032m0 0l-.026.026m0 0l-.03.023m0 0l-.233.147m0 0l-.031.016m0 0l-.348.107m0 0l-.031.008m0 0l-.45.065m0 0l-.54.022m0 0h-.024m0 0l-.611-.023m0 0l-.666-.066m0 0l-.701-.108m0 0l-.723-.147M85.13 398.65l15.608 3.565M85.343 398.699l-.353 1.547M100.525 402.166l-.354 1.548M103.842 388.63l-3.366 14.734M88.233 385.064l-3.366 14.735M88.781 402.275l7.094 1.62M88.781 402.274c-2.233-.51-3.931-1.418-3.792-2.028M100.172 403.714c-.139.61-2.063.691-4.296.182M123.514 403.767l7.081-1.618m0 0l.714-.181m0 0l.679-.208m0 0l.629-.229m0 0l.56-.244m0 0l.021-.011m0 0l.478-.254m0 0l.377-.254m0 0l.024-.022m0 0l.267-.248m0 0l.022-.027m0 0l.146-.234m0 0l.017-.033m0 0l.011-.036m0 0l.004-.037m0 0l.019-.214m0 0l-.001-.038m0 0l-.004-.018m0 0l-.446-1.954m0 0l1.774-.406m0 0l-3.366-14.735m0 0l-1.774.405m0 0l-.263-1.151m0 0l-15.608 3.565m0 0l.263 1.152m0 0l-1.774.405m0 0l3.366 14.735m0 0l1.774-.405m0 0l.446 1.954m0 0l.005.019m0 0l.015.035m0 0l.11.184m0 0l.02.032m0 0l.026.027m0 0l.03.022m0 0l.233.148m0 0l.032.015m0 0l.347.108m0 0l.031.008m0 0l.45.065m0 0l.541.021m0 0l.023.001m0 0l.611-.024m0 0l.666-.065m0 0l.701-.109m0 0l.723-.146M133.849 396.754l-15.608 3.565M133.636 396.803l.354 1.547M118.453 400.272l.354 1.547M115.137 386.735l3.366 14.734M130.745 383.169l3.366 14.734M130.198 400.379L123.103 402M133.989 398.35c.14.61-1.558 1.519-3.792 2.029M123.103 401.999c-2.234.51-4.157.429-4.297-.182M87.612 358.012v20.405m0 0h45.343m0 0v-20.405m0 0H87.612M64.94 311.526v22.671m0 0h45.344m0 0v-22.671m0 0H64.94M273.709 250.263l-.185-4.028m0 0l-.552-3.994m0 0l-.915-3.928m0 0l-1.27-3.827m0 0l-1.615-3.695m0 0l-1.388-2.221m0 0l-1.686-2.003m0 0l-1.952-1.746m0 0l-1.325-.897m0 0l-1.458-.66m0 0l-1.55-.403m0 0l-1.594-.136m0 0l-1.595.136m0 0l-1.549.403m0 0l-1.458.66m0 0l-1.326.897m0 0l-1.952 1.746m0 0l-1.686 2.003m0 0l-1.387 2.221m0 0l-1.615 3.695m0 0l-1.271 3.827m0 0l-.915 3.928m0 0l-.552 3.994m0 0l-.184 4.028m0 0l.184 4.028m0 0l.552 3.994m0 0l.915 3.928m0 0l1.271 3.827m0 0l1.615 3.695m0 0l1.387 2.221m0 0l1.686 2.003m0 0l1.952 1.745m0 0l1.326.897m0 0l1.458.661m0 0l1.549.403m0 0l1.595.136m0 0l1.594-.136m0 0l1.55-.403m0 0l1.458-.661m0 0l1.325-.897m0 0l1.952-1.745m0 0l1.686-2.003m0 0l1.388-2.221m0 0l1.615-3.695m0 0l1.27-3.827m0 0l.915-3.928m0 0l.552-3.994m0 0l.185-4.028M383.809 516.327h-14.548m0 0v-15.114m0 0h14.548m0 0v15.114M223.437 83.556H200.63m0 0v28.851m0 0h22.807m0 0V83.556M80.016 177.195v1.7m0 0h63.935m.001 0v-1.7m0 0H80.016M80.016 211.203h31.967m.001 0v-23.805m0 0H80.016m0 0v23.805M111.984 211.203h31.967m0 0v-23.805m0 0h-31.967m0 0v23.805M143.951 211.203h9.598m0 0v-34.007m0 0h-9.598m0 0v1.7m0 8.502v23.805M70.419 211.203h9.598m0 0v-23.805m0-8.502v-1.7m0 0h-9.598m0 0v34.007M111.984 178.896v8.502m0-.001h36.766m0 0v-8.502m0 .001h-36.766M111.984 178.896v8.502m0-.001H75.218m0 0v-8.502m0 .001h36.766M331.354 619.256h-1.899m0 0v72.814m0 0h1.899m0 0v-72.814M293.379 619.256v36.408m0 0h26.583m0 0v-36.408m0 0h-26.583M293.379 655.665v36.406m0-.001h26.583m0 0v-36.406m0 .001h-26.583M293.379 692.071v9.598m0 0h37.975m0 0v-9.598m0 0h-1.898m-9.494 0H293.38M293.379 609.66v9.597m0 0h26.582m9.495 0h1.898m0 0v-9.597m0 0h-37.975M329.456 655.665h-9.494m-.001 0v41.205m0-.001h9.494m.001 0v-41.205M329.456 655.665h-9.494m-.001 0v-41.207m0 0h9.494m.001 0v41.207M80.016 177.195v1.7m0 0h63.935m.001 0v-1.7m0 0H80.016M80.016 211.203h31.967m.001 0v-23.805m0 0H80.016m0 0v23.805M111.984 211.203h31.967m0 0v-23.805m0 0h-31.967m0 0v23.805M111.984 178.896v8.502m0-.001h36.766m0 0v-8.502m0 .001h-36.766M111.984 178.896v8.502m0-.001H75.218m0 0v-8.502m0 .001h36.766M140.512 498.756h22.672m0 0v-22.672m0 0h-22.672m0 0v22.672M151.849 483.642v7.557M149.177 484.748l5.344 5.345M148.07 487.42h7.557M149.177 490.092l5.344-5.344M115.957 496.489h19.271m0 0l.535-.221m0 0l.22-.535m0 0v-17.381m0 0l-.22-.535m0 0l-.535-.221m0 0h-19.271m0 0l-.535.221m0 0l-.221.535m0 0v17.381m0 0l.221.535m0 0l.535.221M110.672 498.756h29.84M110.672 476.085h29.84M110.672 498.756v-22.672M140.512 498.756v-22.672M117.846 494.6h15.492M134.094 493.844V482.13M133.338 481.375h-7.002m-1.488 0h-7.002M117.091 482.13v11.715M117.846 494.6h.108c0-.059-.049-.108-.108-.108s-.108.049-.108.108a.108.108 0 00.216 0h-.108zM134.094 493.844a.755.755 0 01-.756.756M133.338 481.375c.417 0 .756.339.756.756M117.091 482.13c0-.417.338-.756.755-.756M117.846 494.6a.755.755 0 01-.755-.756M125.252 486.207l.1.24m0 .001l.241.099m0-.001l.24-.101m0 .001l.099-.24m0-.001v-7.476m0 .001l-.099-.241m0 0l-.241-.099m0-.001l-.24.099m0 .001l-.1.241m0 0v7.478M124.838 480.657h.415m0 0v-1.927m0 0l.099-.241m0 0l.24-.1m0 0l.241.1m0 0l.1.241m0 0v1.927m0 0h.414m0 0v-2.456m0 0h-1.509m0 0v2.456M124.848 482.017h.404m0 0v-1.322m0 0h-.404m0 0v1.322M126.336 482.017v-1.322m0 0h-.404m0 0v1.322m0 0h.404M227.799 339.109a7.179 7.179 0 11-14.358 0 7.179 7.179 0 1114.358 0zM272.192 250.263c0 13.719-6.256 24.84-13.973 24.84-7.717 0-13.973-11.121-13.973-24.84s6.256-24.84 13.973-24.84c7.717 0 13.973 11.121 13.973 24.84z"/><path class="st2" d="M260.297 255.701a2.078 2.078 0 11-4.157 0 2.08 2.08 0 014.157 0zM106.516 485.229a7.18 7.18 0 11-7.179-7.18 7.18 7.18 0 017.179 7.18zM250.47 339.109a7.18 7.18 0 11-7.179-7.179 7.178 7.178 0 017.179 7.179zM471.331 691.278a3.778 3.778 0 11-7.557 0 3.778 3.778 0 017.557 0z"/><path class="st2" d="M468.686 691.278a1.134 1.134 0 11-2.267-.001 1.134 1.134 0 012.267.001zM471.331 602.48a3.778 3.778 0 11-7.557 0 3.778 3.778 0 017.557 0z"/><path class="st2" d="M468.686 602.48a1.134 1.134 0 11-2.269 0 1.134 1.134 0 012.269 0zM84.396 21.327a3.778 3.778 0 11-7.557.001 3.778 3.778 0 017.557-.001z"/><path class="st2" d="M81.751 21.327a1.134 1.134 0 11-2.267.001 1.134 1.134 0 012.267-.001zM173.194 21.327a3.78 3.78 0 11-7.558 0 3.78 3.78 0 017.558 0z"/><path class="st2" d="M170.549 21.327a1.134 1.134 0 11-2.267 0 1.134 1.134 0 012.267 0zM198.729 599.646h15.114m0 0l.001 52.9m0 0h-15.115m0 0v-52.9M201.753 646.907h-1.02m0 0l-.001-44.369m0 0h1.021m0 0v44.369M200.733 637.446h-.832m0 0l-.567-.152m0 0l-.415-.414m0 0l-.152-.568m0 0v-22.699m0 0l.152-.566m0 0l.415-.415m0 0l.566-.153m0 0h.833m0 0v24.967M202.051 646.907h-.298m0 0v-44.369m0 0h.298m0 0v44.369M397.648 612.871v68.016m0 0h75.572m0 0v-68.016m0 0h-75.572M395.759 614.76v64.236m0 0l.144.724m0 0l.41.612m0 0l.613.41m0 0l.723.144m0 0V612.87m0 0l-.723.145m0 0l-.613.409m0 0l-.41.613m0 0l-.144.723M476.999 612.871v68.016m0 0h-3.778m0 0v-68.016m0 0h3.778M476.999 680.886V612.87m0 0h-1.889m0 0v68.016m0 0h1.889M476.999 682.776v17.004m0 0h-18.893m0 0v-17.004m0 0h18.893M476.999 610.982v-17.004m0 0h-18.893m0 0v17.004m0 0h18.893M471.331 652.924v25.695m0 0l-.11.267m0 0l-.268.11m0 0h-12.469m0 0l-.267-.11m0 0l-.111-.267m0 0v-25.695m0 0l.111-.267m0 0l.267-.111m0 0h12.469m0 0l.268.111m0 0l.11.267M471.331 640.833v-25.694m0-.001l-.11-.267m0 0l-.268-.111m0 .001h-12.469m0 0l-.267.111m0-.001l-.111.267m0 0v25.694m0 .001l.111.268m0 0l.267.11m0 0h12.469m0 0l.268-.11m0 0l.11-.268M459.13 612.871v1.89M459.13 641.21v11.336M459.13 678.997v1.89M454.12 612.871v68.016m0 0h-18.686m0 0l14.908-68.016m0 0h3.778M265.018 476.085h-24.184m0 0v84.642m0 0h24.184m0 0v-84.642M252.549 560.726h.756m0 0v-84.642m0 0h-.756m0 0v84.642M262.27 482.671h-18.626m0 0v.756m0 0h18.626m0 0v-.756M262.27 484.676h-18.626m0 0v.756m0 0h18.626m0 0v-.756M262.27 486.68h-18.626m0 0v.756m0 0h18.626m0 0v-.756M262.27 488.685h-18.626m0 0v.756m0 0h18.626m0 0v-.756M262.134 492.931l-18.491-2.241m0 0l-.091.75m0 0l18.491 2.241m0 0l.091-.75M277.488 11.88h-22.671m0 0v162.387m0 0h22.671m0 0V11.88M265.774 174.267h.756m0 0V11.88m0 0h-.756m0 0v162.387M275.495 18.467h-18.626m0 0v.756m0 0h18.626m0 0v-.756M275.495 20.471h-18.626m0 0v.756m0 0h18.626m0 0v-.756M275.495 22.476h-18.626m0 0v.756m0 0h18.626m0 0v-.756M275.495 24.48h-18.626m0 0v.756m0 0h18.626m0 0v-.756M275.36 28.726l-18.491-2.241m0 .001l-.091.75m0 0l18.491 2.241m0 0l.091-.75M159.024 91.231H91.009m0 0V15.659m0 0h68.015m0 0v75.572M157.135 93.121H92.898m0 0l-.723-.144m0 0l-.613-.41m0 0l-.409-.613m0 0l-.144-.723m0 0h68.015m0 0l-.143.723m0 0l-.41.613m0 0l-.613.41m0 0l-.723.144M159.024 11.88H91.009m0 0v3.779m0 0h68.015m0 0V11.88M91.009 11.88h68.015m0 0v1.889m0 0H91.009m0 0V11.88M89.12 11.88H72.117m0 0v18.893m0 0H89.12m0 0V11.88M160.914 11.88h17.003m0 0v18.893m0 0h-17.003m0 0V11.88M118.971 17.548H93.276m0 0l-.267.111m0 0l-.111.267m0 0v12.47m0 0l.111.267m0 0l.267.11m0 0h25.695m0 0l.267-.11m0 0l.111-.267m0 0v-12.47m0 0l-.111-.267m0 0l-.267-.111M131.062 17.548h25.695m0 0l.267.111m0 0l.111.267m0 0v12.47m0 0l-.111.267m0 0l-.267.11m0 0h-25.695m0 0l-.267-.11m0 0l-.111-.267m0 0v-12.47m0 0l.111-.267m0 0l.267-.111M159.024 29.75h-1.889M130.685 29.75h-11.336M92.898 29.75h-1.889M159.024 34.759H91.009m0 0v18.686m0 0l68.015-14.908m0 0v-3.778M79.677 174.267v-15.115m0 0h75.572m0 0v15.115m0 0H79.677M140.172 169.386v1.02m0 0H95.803m0 0v-1.02m0 0h44.369M130.711 170.405v.833m0 0l-.152.566m0 0l-.415.415m0 0l-.567.152m0 0h-22.699m0 0l-.566-.152m0 0l-.415-.415m0 0l-.152-.566m0 0v-.833m0 0h24.966M140.172 169.089v.297m0-.001H95.803m0 0v-.297m0 .001h44.369M277.488 473.062V450.39m0 0h-36.653m0 0v22.672m0 0h36.653M240.835 461.348v.756m0 0h36.653m0 0v-.756m0 0h-36.653M270.901 471.069v-18.626m0 0h-.755m0 0v18.626m0 0h.755M268.896 471.069v-18.626m0 0h-.756m0 0v18.626m0 0h.756M266.892 471.069v-18.626m0 0h-.756m0 0v18.626m0 0h.756M264.887 471.069v-18.626m0 0h-.755m0 0v18.626m0 0h.755M260.641 470.933l2.242-18.49m0 0l-.751-.091m0 0l-2.241 18.49m0 0l.75.091M277.488 327.774h-22.861m0 0v63.67m0 0h22.861m0 0v-63.67M265.774 391.444h.756m0 0v-63.67m0 0h-.756m0 0v63.67M275.495 334.36h-18.626m0 0v.756m0 0h18.626m0 0v-.756M275.495 336.365h-18.626m0 0v.756m0 0h18.626m0 0v-.756M275.495 338.37h-18.626m0 0v.756m0 0h18.626m0 0v-.756M275.495 340.375h-18.626m0 0v.755m0-.001h18.626m0 0v-.755M275.36 344.62l-18.491-2.241m0 0l-.091.75m0 0l18.491 2.242m0 0l.091-.751M254.627 327.774v22.672m0 0h-22.672m0 0v-22.672m0 0h22.672M214.611 338.594l1.233.448m0 0h1.313m0 0l1.233-.448m0 0l1.473.342m0 0h1.513m0 0l1.473-.342m0 0l1.234.449m0 0h1.314m0 0l1.235-.449m0 0l-2.232 2.986m0 0h-7.558m0 0l-2.231-2.986M216.843 341.842h7.558m0 0v-.262m0 0h-7.558m0 0v.262M216.843 342.366h7.558m0 0v-.262m0 0h-7.558m0 0v.262M221.463 337.079l-.891-.085m0 0l-.021.226m0 0l.476.045m0 0l-1.383 1.142m0 0l.126.152m0 0l.642-.53m0 0l.067.082m0-.001l-.74.611m0 .001l.121.146m0 0l.74-.611m0 0l.08.097m0 0l-.601.497m0 0l.107.13m0 0l.602-.497m0 0l.08.098m0 0l-.414.343m0 0l.115.139m0 0l1.422-1.174M231.955 327.774v22.672m0 0h-22.671m0 0v-22.672m0 0h22.671M160.161 334.197v-22.671m0 0h-49.877m0 0v22.671m0 0h49.877M110.284 322.483v.756m0 0h49.877m0 0v-.756m0 0h-49.877M151.307 332.204v-18.625m0 0h-.756m0 0v18.625m0 0h.756M149.302 332.204v-18.625m0 0h-.755m.001 0v18.625m0 0h.755M147.298 332.204v-18.625m0 0h-.756m0 0v18.625m0 0h.756M145.293 332.204v-18.625m0 0h-.755m0 0v18.625m0 0h.755M141.048 332.069l2.241-18.49m0 0l-.75-.092m0 0l-2.241 18.491m0 0l.75.091M144.669 473.062v-22.294m0 0H64.94m0 0v22.294m0 0h79.729M64.94 461.348v.756m0 0h79.729m0 0v-.756m0 0H64.94M138.46 471.069v-18.626m0 0h-.755m0 0v18.626m0 0h.755M136.456 471.069v-18.626m0 0h-.756m0 0v18.626m0 0h.756M134.451 471.069v-18.626m0 0h-.755m0 0v18.626m0 0h.755M132.446 471.069v-18.626m0 0h-.755m0 0v18.626m0 0h.755M128.2 470.933l2.242-18.49m0 0l-.751-.091m0 0l-2.241 18.49m0 0l.75.091M334.377 701.669h22.672m0 0V612.87m0 0h-22.672m0 0v88.798M345.713 612.871h-.756m0 0v88.798m0 0h.756m0 0v-88.798M335.654 687.147h18.626m0 0v-.756m0 0h-18.626m0 0v.756M335.654 685.142h18.626m0 0v-.755m0 0h-18.626m0 0v.755M335.654 683.138h18.626m0 0v-.756m0 0h-18.626m0 0v.756M335.654 681.133h18.626m0 0v-.756m0 0h-18.626m0 0v.756M335.789 676.887l18.491 2.241m0 0l.091-.75m0 0l-18.491-2.241m0 0l-.091.75M93.328 484.714l1.233.449m0 0h1.313m0 0l1.233-.449m0 0l1.473.342m0-.001h1.513m0 0l1.473-.342m0 .001l1.234.45m0-.001h1.314m0 0l1.235-.45m0 .001l-2.232 2.987m0-.001h-7.558m0 0l-2.231-2.987M95.56 487.962h7.558m-.001 0v-.262m0 0H95.56m0 0v.262M95.56 488.485h7.558m-.001 0v-.261m0 0H95.56m0 0v.261M100.18 483.198l-.891-.085m0 0l-.021.226m0 0l.476.046m0 0l-1.383 1.142m0 0l.126.152m0 0l.642-.53m-.001 0l.067.081m.001 0l-.74.611m-.001 0l.121.146m.001 0l.74-.61m0 0l.08.097m0 0l-.601.496m0 0l.107.131m-.001 0l.602-.497m.001 0l.08.098m0 0l-.414.342m0 0l.115.14m-.001 0l1.422-1.174M88 476.085h22.671m0 0v22.672m0 0H88m0 0v-22.672M237.283 338.594l1.233.448m0 0h1.312m0 0l1.234-.448m0 0l1.473.342m0 0h1.512m0 0l1.473-.342m0 0l1.235.449m0 0h1.314m0 0l1.235-.449m0 0l-2.232 2.986m0 0h-7.558m0 0l-2.231-2.986M239.515 341.842h7.558m0 0v-.262m0 0h-7.558m0 0v.262M239.515 342.366h7.558m0 0v-.262m0 0h-7.558m0 0v.262M244.135 337.079l-.891-.085m0 0l-.021.226m0 0l.476.045m0 0l-1.383 1.142m0 0l.126.152m0 0l.642-.53m0 0l.067.082m0-.001l-.74.611m0 .001l.121.146m0 0l.74-.611m0 0l.08.097m0 0l-.601.497m0 0l.107.13m0 0l.602-.497m0 0l.08.098m0 0l-.414.343m0 0l.115.139m0 0l1.422-1.174M200.765 83.556h22.671m0 0V42.109m0 0h-22.671m0 0v41.447M212.479 42.109h-.756m0 0v41.447m0 0h.756m0 0V42.109M202.758 76.969h18.626m0 0v-.755m0 0h-18.626m0 0v.755M202.758 74.965h18.626m0 0v-.756m0 0h-18.626m0 0v.756M202.758 72.96h18.626m0 0v-.756m0 0h-18.626m0 0v.756M202.758 70.956h18.626m0 0v-.755m0 0h-18.626m0 0v.755M202.893 66.71l18.491 2.242m0 0l.091-.751m0 0l-18.491-2.241m0 0l-.091.75M468.413 694.957l-.86-3.679m0 0l-3.431-1.584m0 0l3.431 1.584m0 0l3.546-1.306M468.413 598.8l-.86 3.68m0 0l-3.431 1.583m0 0l3.431-1.583m0 0l3.546 1.305M76.938 22.187l3.68-.86m0 0l1.583-3.431m0 0l-1.583 3.431m0 0l1.305 3.546M173.095 22.187l-3.679-.86m-.001 0l-1.584-3.431m0 0l1.584 3.431m0 0l-1.306 3.546M190.629 615.794l-.743 1.187m0 0l-.939.942m0 0l-.614.4m0 0l-.711.294m0 0l-.933.15m0-.001l-.941-.088m0 .001l-.957-.339m0 0l-.812-.596m0-.001l-.78-1.138m0 .001l-.733-1.182m0 0l-.846-.755m0-.001l-1.042-.451m0 0l-.949-.127m0 0l-.838.044m0 0l-.829.164M177.963 614.298l.568-.866m0 0l.688-.763m0 0l.937-.7m0 0l.906-.38m0 0l.955-.151m0 0l.956.089m0 0l.907.344m0 0l.468.295M184.348 612.167l-.108-.415m0 0l-.44-.426m0 0l-.516-.246m0 0l-.245-.052M183.039 611.028l.986-.771m0 0l1.036-.382m0 0l1.11-.126m0 0l1.235.068m0 0l.587.156m0 0l.542.274m0 0l.846.825m0 0l.858 1.317m0 0l.755 1.629M190.994 614.018l-.6-.597m0 0l-1.209-.862m0 0l-.458-.228m-.001 0l-.49-.109m.001 0l-.638.14m0 0l-.579.378m-.001 0l-.548.697m.001 0l-.427.169m0 0l-.474.014m0 0l-.714-.151m0 0l-.832-.606M184.024 612.863l.111.592m0 0l.374.777m0 0l.566.665m0 0l.435.371m0 0l.499.268m0 0l.469.098m0 0l.79-.029m0 0l.997-.358M188.266 615.247l-.601.618m-.001 0l-.846.292m0 0l-.711.027m.001 0l-.281-.06M185.826 616.123l.452.693m0 .001l.527.47m0 0l.651.22m0-.001l.505-.071m0 .001l.475-.212m0 0l1.387-.905m0-.001l.806-.525M174.169 601.535v22.906m0 0h-1.889m0 0v-22.906m0 0h1.889M198.729 601.535v22.906m0 0h-1.89m0 0v-22.906m0 0h1.89M198.73 599.646v1.889m0 0h-26.45m0 0v-1.889m0 0h26.45M85.728 545.122v-21.916m0 0H67.212m0 0v21.916m0 0h18.516M74.448 534.164h-5.299M69.149 534.164v-1.097M74.448 534.164v-1.097M74.448 525.309h-5.299M69.149 526.405v-1.096M74.448 526.405v-1.096M74.322 540.41a2.74 2.74 0 11-5.479-.001 2.74 2.74 0 015.479.001zM83.789 539.138a3.968 3.968 0 11-7.936 0 3.968 3.968 0 017.936 0z"/><path class="st2" d="M82.089 539.138a2.267 2.267 0 11-4.535 0 2.267 2.267 0 014.535 0zM74.413 529.736a2.646 2.646 0 11-5.292 0 2.646 2.646 0 015.292 0zM83.759 528.619a3.4 3.4 0 11-6.803-.001 3.4 3.4 0 016.803.001zM88 567.532v-91.447M64.94 567.532v-91.447M88 567.532H64.939M88 476.085H64.939M77.31 307.446l-.195-.107M77.115 307.338l-.138-.172M76.977 307.166l-.06-.213M76.917 306.954l.026-.22M76.943 306.734l.108-.192M77.052 306.542l.175-.138M77.227 306.405l.214-.06M77.441 306.345l.221.026M87.041 299.619l.043-.217M87.085 299.402l.124-.183M87.208 299.219l.185-.123M87.394 299.096l.218-.043M77.31 307.446l-1.339-.431M75.971 307.015l-.073-.143M75.898 306.873l.282-.859M76.18 306.013l.144-.073M76.324 305.94l1.338.432M87.019 300.235l.022-.616M87.041 299.619v-1.395M87.041 298.224l.114-.112M87.155 298.112h.457M97.914 307.446l.194-.107M98.108 307.338l.138-.172M98.246 307.166l.061-.213M98.306 306.954l-.025-.22M98.28 306.734l-.108-.192M98.172 306.542l-.175-.138M97.997 306.405l-.214-.06M97.783 306.345l-.222.026M88.182 299.619l-.043-.217M88.138 299.402l-.123-.183M88.015 299.219l-.185-.123M87.83 299.096l-.218-.043M97.914 307.446l1.338-.431M99.252 307.015l.074-.143M99.325 306.873l-.281-.859M99.043 306.013l-.144-.073M98.9 305.94l-1.338.432M95.848 306.058l-.371-.597M88.204 300.24l-.022-.621M88.182 299.619v-1.395M88.182 298.224l-.114-.112M88.068 298.112h-.457M77.06 310.734l.116-2.154m0 0l.329-1.827m-.001 0l.494-1.221m0 0l.582-.428m0 0l.582.428m.001 0l.494 1.221m-.001 0l.329 1.827m0 0l.116 2.154m0 0l-.042.791m-2.957 0l-.042-.791M98.164 310.734l-.116-2.154m0 0l-.33-1.827m0 0l-.493-1.221m0 0l-.582-.428m0 0l-.582.428m0 0l-.494 1.221m0 0l-.329 1.827m0 0l-.116 2.154m0 0l.043.791m2.957 0l.042-.791M81.685 302.15l.963-.29M79.403 303.39l-.301.413M80.144 302.793l-.742.597M81.685 302.15l-1.541.644M86.205 300.314l1.407-.069M87.612 304.353l-2.154.091M85.458 304.444l-2.084.3M83.374 304.744l-1.945.538M81.429 305.282l-1.475.291M79.955 305.573l-.674-.441M79.282 305.131l-.193-.671M79.089 304.46l-.034-.396M79.055 304.063l.047-.26M79.102 303.803v-.462M79.102 303.341l.301-.412M79.403 302.929l1.179-1.107M80.581 301.822l.959-.418M81.54 301.404l1.198-.442M82.739 300.961l1.819-.413M84.558 300.548l1.647-.234M93.538 302.15l-.962-.29M95.82 303.39l.301.413M95.079 302.793l.741.597M93.538 302.15l1.541.644M89.018 300.314l-1.406-.069M87.612 304.353l2.154.091M89.766 304.444l2.083.3M91.849 304.744l1.945.538M93.795 305.282l1.474.291M95.269 305.573l.673-.441M95.942 305.131l.192-.671M96.134 304.46l.033-.396M96.167 304.063l-.046-.26M96.121 303.803v-.462M96.121 303.341l-.301-.412M95.82 302.929l-1.178-1.107M94.642 301.822l-.959-.418M93.683 301.404l-1.198-.442M92.485 300.961l-1.819-.413M90.665 300.548l-1.647-.234M85.316 300.723l-.757.127m0 0l-.75.162m0 0l-1.109.268m0 0l-.104.138m0 0l.01.273m0 0l.18.732m0 0l.235.492m0 0l.314.152m0 0l.924-.223m0 0l.661-.143m0 0l.667-.113m0 0l.672-.079m0 0l.676-.048m0 0l.676-.016m0 0l.677.016m0 0l.675.048m0 0l.672.079m0 0l.668.113m0 0l.661.143m0 0l.924.223m0 0l.314-.152m0 0l.235-.492m0 0l.18-.732m0 0l.01-.273m0 0l-.104-.138m0 0l-1.109-.268m0 0l-.75-.162m0 0l-.757-.127m0 0l-.762-.09m0 0l-.766-.055m0 0l-.768-.018m0 0l-.767.018m0 0l-.766.055m0 0l-.762.09M79.356 306.058l.371-.597M87.612 358.012v20.405m0 0h45.344m0 0v-20.405m0 0H87.612"/><g><path class="st2" d="M99.981 353.932l-.194-.107M99.787 353.825l-.138-.173M99.649 353.652l-.06-.212M99.589 353.44l.026-.22M99.615 353.22l.108-.192M99.723 353.028l.175-.137M99.898 352.891l.214-.06M100.113 352.831l.22.026M109.713 346.105l.043-.217M109.757 345.888l.124-.183M109.88 345.705l.185-.123M110.065 345.582l.218-.042M99.981 353.932l-1.338-.431M98.643 353.501l-.073-.143M98.569 353.359l.282-.859M98.852 352.499l.144-.073M98.995 352.426l1.338.432M109.691 346.721l.022-.616M109.713 346.105v-1.395M109.713 344.71l.114-.112M109.827 344.598h.457M120.586 353.932l.194-.107M120.78 353.825l.138-.173M120.918 353.652l.061-.212M120.978 353.44l-.026-.22M120.952 353.22l-.108-.192M120.844 353.028l-.175-.137M120.668 352.891l-.214-.06M120.454 352.831l-.221.026M110.854 346.105l-.043-.217M110.81 345.888l-.124-.183M110.687 345.705l-.185-.123M110.502 345.582l-.218-.042M120.586 353.932l1.338-.431M121.924 353.501l.074-.143M121.997 353.359l-.282-.859M121.715 352.499l-.144-.073M121.571 352.426l-1.338.432M118.52 352.544l-.371-.597M110.876 346.726l-.022-.621M110.854 346.105v-1.395M110.854 344.71l-.114-.112M110.74 344.598h-.457M99.731 357.22l.116-2.154m0 0l.329-1.827m0 0l.494-1.221m0 0l.582-.428m0 0l.582.428m0 0l.494 1.221m0 0l.329 1.827m0 0l.116 2.154m0 0l-.043.791m-2.956 0l-.042-.791M120.836 357.22l-.116-2.154m0 0l-.33-1.827m0 0l-.493-1.221m0 0l-.582-.428m0 0l-.582.428m0 0l-.494 1.221m0 0l-.329 1.827m0 0l-.116 2.154m0 0l.043.791m2.956 0l.043-.791M104.357 348.636l.963-.29M102.074 349.876l-.301.413M102.816 349.28l-.742.597M104.357 348.636l-1.541.644M108.877 346.8l1.407-.069M110.283 350.839l-2.153.091M108.13 350.93l-2.084.3M106.046 351.23l-1.945.538M104.101 351.768l-1.475.291M102.626 352.059l-.673-.441M101.953 351.618l-.192-.671M101.761 350.947l-.034-.397M101.727 350.549l.046-.26M101.774 350.29v-.462M101.774 349.828l.301-.412M102.074 349.415l1.179-1.107M103.253 348.308l.959-.418M104.212 347.89l1.198-.442M105.411 347.448l1.819-.413M107.23 347.035l1.647-.234M116.21 348.636l-.962-.29M118.492 349.876l.301.413M117.75 349.28l.742.597M116.21 348.636l1.54.644M111.69 346.8l-1.407-.069M110.283 350.839l2.154.091M112.437 350.93l2.084.3M114.521 351.23l1.945.538M116.467 351.768l1.474.291M117.941 352.059l.673-.441M118.613 351.618l.193-.671M118.806 350.947l.033-.397M118.839 350.549l-.046-.26M118.793 350.29v-.462M118.793 349.828l-.301-.412M118.492 349.415l-1.178-1.107M117.314 348.308l-.959-.418M116.355 347.89l-1.198-.442M115.157 347.448l-1.819-.413M113.337 347.035l-1.647-.234M107.988 347.209l-.757.127m0 0l-.75.162m0 0l-1.109.268m0 0l-.104.138m0 0l.01.273m0 0l.18.732m0 0l.235.492m0 0l.314.152m0 0l.924-.223m0 0l.661-.143m0 0l.667-.113m0 0l.672-.079m0 0l.676-.048m0 0l.676-.016m0 0l.677.016m0 0l.675.048m0 0l.672.079m0 0l.668.113m0 0l.661.143m0 0l.924.223m0 0l.314-.152m0 0l.235-.492m0 0l.18-.732m0 0l.01-.273m0 0l-.104-.138m0 0l-1.109-.268m0 0l-.75-.162m0 0l-.757-.127m0 0l-.762-.09m0 0l-.766-.055m0 0l-.768-.018m0 0l-.767.018m0 0l-.766.055m0 0l-.762.09M102.028 352.544l.371-.597"/></g><g><path class="st2" d="M122.763 617.215h3.028m0 0v-.858m0 0v-17.176m0 0v-.86m0 0h-3.028M129.218 598.321h-3.427m0 0v.859m0 .001h3.224m.001 0v-.057m0-.001l-.196-.294m-.001 0l.087-.343m0 0l.312-.165M131.577 599.123l-.196-.294m0 0l.087-.343m0 0l.312-.165m0 0h-2.562m0 0l-.312.165m0 0l-.087.343m0 0l.196.294m0 0v17.291m0 0l-.196.293m0 0l.087.343m0 0l.312.165m0 0h2.562m0 0l-.312-.165m0 0l-.087-.343m0 0l.196-.293m0 0v-17.291M129.218 617.215l-.312-.165m0 0l-.087-.342m0 0l.196-.294m.001 0v-.057m0 0h-3.224m-.001 0v.858m0 0h3.427M131.983 615.551l.226-1.005V600.99l-.226-1.005zM131.983 599.986v15.566m0-.001l.227-1.005m0 .001V600.99m0 0l-.227-1.005M131.983 599.123l.197-.294m0 0l-.087-.343m0 0l-.312-.165m0 0l-.313.165m-.001 0l-.087.343m.001 0l.197.294m0 0v17.291m0 0l-.197.293m0 0l.087.343m-.001 0l.313.165m.001 0l.312-.165m0 0l.087-.343m0 0l-.197-.293m0 0v-17.291M122.763 639.131h3.028m0 0v-.859m0 .001v-17.175m0-.001v-.859m0 .001h-3.028M129.218 620.239h-3.427m0 0v.859m0-.001h3.224m.001 0v-.058m0 0l-.196-.294m-.001 0l.087-.342m0 .001l.312-.165M131.577 621.04l-.196-.294m0 0l.087-.342m0 0l.312-.165m0 0h-2.562m0 0l-.312.165m0 0l-.087.342m0 0l.196.294m0 0v17.291m0 0l-.196.293m0 0l.087.343m0 0l.312.165m0 0h2.562m0 0l-.312-.165m0 0l-.087-.343m0 0l.196-.293m0 0V621.04M129.218 639.131l-.312-.165m0 0l-.087-.342m0 .001l.196-.294m.001-.001v-.058m0 .001h-3.224m-.001 0v.859m0-.001h3.427M131.983 637.468l.226-1.005v-13.556l-.226-1.005zM131.983 621.902v15.566m0 0l.227-1.005m0 0v-13.556m0 0l-.227-1.005M131.983 621.04l.197-.294m0 0l-.087-.342m0 0l-.312-.165m0 0l-.313.165m-.001 0l-.087.342m.001 0l.197.294m0 0v17.291m0 0l-.197.293m0 0l.087.343m-.001 0l.313.165m.001 0l.312-.165m0 0l.087-.343m0 0l-.197-.293m0 0V621.04M88.755 617.215h-3.028m0 0v-.858m0 0v-17.176m0 0v-.86m0 0h3.028M82.3 598.321h3.427m0 0v.859m0 .001h-3.224m0 0v-.057m0-.001l.196-.294m0 0l-.087-.343m0 0l-.312-.165M79.941 599.123l.196-.294m0 0l-.086-.343m0 0l-.313-.165m0 0H82.3m0 0l.312.165m0 0l.087.343m0 0l-.196.294m0 0v17.291m0 0l.196.293m0 0l-.087.343m0 0l-.312.165m0 0h-2.562m0 0l.313-.165m0 0l.086-.343m0 0l-.196-.293m0 0v-17.291M82.3 617.215l.312-.165m0 0l.087-.342m0 0l-.196-.294m0 0v-.057m0 0h3.224m0 0v.858m0 0H82.3M79.309 600.99v13.556l.226 1.005v-15.566zM79.535 599.986v15.566m0-.001l-.227-1.005m0 .001V600.99m0 0l.227-1.005M79.535 599.123l-.196-.294m0 0l.086-.343m0 0l.313-.165m0 0l.313.165m0 0l.086.343m0 0l-.196.294m0 0v17.291m0 0l.196.293m0 0l-.086.343m0 0l-.313.165m0 0l-.313-.165m0 0l-.086-.343m0 0l.196-.293m0 0v-17.291M88.755 639.131h-3.028m0 0v-.859m0 .001v-17.175m0-.001v-.859m0 .001h3.028M82.3 620.238l.313.166.087.342-.197.295v.056h3.224v-.859zM82.3 620.239h3.427m0 0v.859m0-.001h-3.224m0 0v-.058m0 0l.196-.294m0 0l-.087-.342m0 .001l-.312-.165M79.941 621.04l.196-.294m0 0l-.086-.342m0 0l-.313-.165m0 0H82.3m0 0l.312.165m0 0l.087.342m0 0l-.196.294m0 0v17.291m0 0l.196.293m0 0l-.087.343m0 0l-.312.165m0 0h-2.562m0 0l.313-.165m0 0l.086-.343m0 0l-.196-.293m0 0V621.04M82.3 639.131l.312-.165m0 0l.087-.342m0 .001l-.196-.294m0-.001v-.058m0 .001h3.224m0 0v.859m0-.001H82.3M79.309 622.907v13.556l.226 1.005v-15.566zM79.535 621.902v15.566m0 0l-.227-1.005m0 0v-13.556m0 0l.227-1.005M79.535 621.04l-.196-.294m0 0l.086-.342m0 0l.313-.165m0 0l.313.165m0 0l.086.342m0 0l-.196.294m0 0v17.291m0 0l.196.293m0 0l-.086.343m0 0l-.313.165m0 0l-.313-.165m0 0l-.086-.343m0 0l.196-.293m0 0V621.04M122.763 642.155h3.028m0 0v.859m0 0v17.176m0 0v.858m0 0h-3.028M129.218 661.048h-3.427m0 0v-.858m0 0h3.224m.001 0v.057m0 0l-.196.294m-.001 0l.087.342m0 0l.312.165M131.577 660.247l-.196.294m0 0l.087.342m0 0l.312.165m0 0h-2.562m0 0l-.312-.165m0 0l-.087-.342m0 0l.196-.294m0 0v-17.291m0 0l-.196-.293m0 0l.087-.343m0 0l.312-.165m0 0h2.562m0 0l-.312.165m0 0l-.087.343m0 0l.196.293m0 0v17.291M129.218 642.155l-.312.165m0 0l-.087.342m0 0l.196.294m.001 0v.058m0 0h-3.224m-.001 0v-.859m0 0h3.427M131.983 659.384l.226-1.005v-13.556l-.226-1.005zM131.983 659.384v-15.566m0 .001l.227 1.005m0-.001v13.556m0 0l-.227 1.005M131.983 660.247l.197.294m0 0l-.087.342m0 0l-.312.165m0 0l-.313-.165m-.001 0l-.087-.342m.001 0l.197-.294m0 0v-17.291m0 0l-.197-.293m0 0l.087-.343m-.001 0l.313-.165m.001 0l.312.165m0 0l.087.343m0 0l-.197.293m0 0v17.291M88.755 642.155h-3.028m0 0v.859m0 0v17.176m0 0v.858m0 0h3.028M82.3 661.048h3.427m0 0v-.858m0 0h-3.224m0 0v.057m0 0l.196.294m0 0l-.087.342m0 0l-.312.165M79.941 660.247l.196.294m0 0l-.086.342m0 0l-.313.165m0 0H82.3m0 0l.312-.165m0 0l.087-.342m0 0l-.196-.294m0 0v-17.291m0 0l.196-.293m0 0l-.087-.343m0 0l-.312-.165m0 0h-2.562m0 0l.313.165m0 0l.086.343m0 0l-.196.293m0 0v17.291M82.3 642.155l.312.165m0 0l.087.342m0 0l-.196.294m0 0v.058m0 0h3.224m0 0v-.859m0 0H82.3M79.309 644.823v13.556l.226 1.005v-15.565zM79.535 659.384v-15.566m0 .001l-.227 1.005m0-.001v13.556m0 0l.227 1.005M79.535 660.247l-.196.294m0 0l.086.342m0 0l.313.165m0 0l.313-.165m0 0l.086-.342m0 0l-.196-.294m0 0v-17.291m0 0l.196-.293m0 0l-.086-.343m0 0l-.313-.165m0 0l-.313.165m0 0l-.086.343m0 0l.196.293m0 0v17.291M88.756 669.36h34.007m0 0v-79.35m0 0H88.756m0 0v79.351"/></g></g></g><g id="walls_2_"><path d="M487.942 492.477v8.313H277.473v-60.647h7.557v.454h1.512v51.88h201.4zm0 208.77v23.805h-28.15v-23.805h28.15zM277.473 400.09V.5h9.069v400.648h-1.512v.453h-7.557v-1.511h0zM64.925 40.364H41.12V.5h23.805v39.864h0zm311.738 684.688h-56.679v-23.805h56.679v23.805h0zm-122.806 0H130.579v-23.805h123.278v23.805h0zM41.12 435.803h23.805V567.11H41.12V435.803h0zm0-145.293h23.805v62.162H41.12V290.51h0zm0-167.016h23.805v83.886H41.12v-83.886z" fill-rule="evenodd" clip-rule="evenodd" stroke="#000" stroke-linecap="round" stroke-linejoin="round" stroke-miterlimit="3"/><path class="st4" d="M393.98 546.206c-1.627 4.364-2.041 6.439-2.279 11.075"/><path class="st5" d="M394.011 546.122l-.601 1.388 25.951 11.281h.453l.001-1.51z"/><path class="st4" d="M298.6 546.122c-1.601 4.295-2.075 6.581-2.31 11.159"/><path class="st5" d="M298.6 546.122l-.6 1.388 25.918 11.276.486.005-.032-1.515z"/><path class="st4" d="M347.027 596.338c-5.265 1.659-7.18 2.313-12.579 2.583"/><path class="st5" d="M347.113 596.312l-12.638-29.282-1.511-.002v.454l12.696 29.287z"/><g><path class="st4" d="M147.612 417.329c4.8-1.796 7.419-2.317 12.536-2.578"/><path class="st5" d="M147.488 417.371l12.659 29.271h1.511v-.453l-12.783-29.418z"/><g><path class="st4" d="M302.104 404.353c-5.972-2.227-9.198-2.879-15.562-3.204"/><path class="st5" d="M302.2 404.388l-1.387-.601-15.782 36.395v.415h1.511z"/><g><path class="st4" d="M221.833 359.144c-4.868-1.816-7.375-2.319-12.564-2.584"/><path class="st5" d="M221.928 359.179l-1.387-.6-12.784 29.418v.454h1.513z"/></g><g><path class="st4" d="M147.585 251.264c4.816-1.797 7.43-2.322 12.562-2.584"/><path class="st5" d="M147.488 251.3l12.659 29.272h1.511v-.454L148.875 250.7z"/><g><path class="st4" d="M243.732 187.926c1.602-4.295 2.032-6.481 2.266-11.059"/><path class="st5" d="M243.688 188.026l.6-1.388-25.95-11.282h-.454v1.511z"/><g><path class="st4" d="M170.209 161.318c-1.695 4.544-2.337 7.764-2.58 12.526"/><path class="st5" d="M170.247 161.23l-.6 1.388 29.326 12.738h.453l.001-1.512z"/></g></g></g></g></g><path class="st0" d="M172.265 599.223l26.45.001v52.9h-26.45v-52.901zm74.79-425.379h30.418v3.023h-31.476v-1.511h-.453v-1.512h1.511zM476.984 500.79h10.958v200.457h-10.958V560.303l-57.623.001v-1.512h.453v-1.51l42.056-.001V500.79h3.023v10.58h12.091v-10.58zm0 56.491v-42.888h-12.091v42.888h12.091zM277.473.5v10.958H64.925V.5h212.548zm53.953 597.965l-.086 102.782h3.023l.085-102.326-1.511-.002.001-.453-1.512-.001zM168.082 176.867v-1.511h-.454v-1.512H64.925v3.023h95.222v70.755h3.023v-70.755h4.912zm-7.936 159.931H64.925v-3.022h95.221V281.63h3.023v132.063h.001v1.511h-1.512v-.453h-1.511v-1.058h-.001v-76.895zM296.177 509.67h3.023v-8.879h-3.023v5.858h-28.151v-16.627h9.447v-3.023h-9.447v-11.337h9.447v-3.022H240.82v3.022h24.184v84.642l31.74.001v-1.512h-.453v-1.51l-28.265-.001V509.67h28.151zm95.978 50.633v-1.512h-.453v-1.51h-57.218l.046-56.492h-3.022l-.048 56.491-7.056.001v1.51h-.454v1.512l7.508-.001-.006 7.178 1.511.002.001-.454 1.511.002.005-6.727h57.675zM209.269 324.328V176.867h8.615v-1.511h.454v-1.512h-18.913v1.512h-.453v1.511h7.274v180.147h1.511v-.453h1.512v-29.21h68.204v-3.023h-11.714v-11.714h11.714v-3.022h-11.714v-19.366h11.714v-3.023h-14.737v37.125h-53.467zm0 64.123h-1.512v-.454h-1.511v6.046h71.227v-3.022h-68.204v-2.57zm-64.614 60.383h15.492l.001-2.192h1.511v-.453h1.512l-.001 26.45h-3.023v-20.782h-12.594v20.783h15.618v3.022H64.925v-3.022h79.604c0-7.935-.013-15.871.004-23.806h.122zM163.17 281.63v-1.512h-1.512v.454h-1.511v1.058h3.023zm0-32.497v-1.511h-3.023v1.058h1.511v.453h1.512zm32.522 353.113h-20.404v46.856h20.404v-46.856z"/><g><path class="st6" d="M46.788 614.103h1.89v5.133h-1.89zM46.788 656.61h1.89v5.133h-1.89z"/><g><path class="st4" d="M48.678 123.494h16.247M41.12 123.494h5.668M46.788 123.494h1.889M48.678 40.364h16.247M41.12 40.364h5.668M46.788 40.364h1.889M41.12 40.364v83.129M64.925 40.364v83.129M48.678 40.364v3.779M48.678 44.143h-1.889M46.788 44.143v-3.779M46.788 80.04v-1.889M46.788 78.151h1.889M48.678 78.151v1.889M47.733 44.143v34.008M48.678 44.143v34.008M46.788 78.151V44.143M48.678 80.04v.944M48.678 80.984h-.946M47.733 80.984v.945M47.733 81.929h-.944M46.788 81.929V80.04M46.788 123.494v-3.778M46.788 119.715h.944M47.733 119.715v.946M47.733 120.66h.945M48.678 120.66v2.833M49.622 120.66l28.055-28.055M46.788 119.715V81.929M49.622 83.818v34.007M49.622 80.984v2.834M49.622 83.818h-1.889M47.733 83.818v-2.834M47.733 80.984h1.889M47.733 120.66v-2.834M47.733 117.826h1.889M49.622 117.826v2.834M49.622 120.66h-1.889M47.733 117.826V83.819M49.622 83.818v34.007M48.678 83.818v34.007M49.622 80.984a39.673 39.673 0 0128.055 11.621M46.788 40.364h1.889M46.788 40.364h1.889M41.12 40.364h5.668M48.678 40.364h16.247M46.788 123.494h1.889M46.788 123.494h1.889M41.12 123.494h5.668M48.678 123.494h16.247"/><g><path class="st4" d="M48.678 290.509h16.247M41.12 290.509h5.668M46.788 290.509h1.889M48.678 207.38h16.247M41.12 207.38h5.668M46.788 207.38h1.889M41.12 207.38v83.129M64.925 207.38v83.129M48.678 207.38v3.779M48.678 211.158h-1.889M46.788 211.158v-3.778M46.788 247.055v-1.889M46.788 245.166h1.889M48.678 245.166v1.889M47.733 211.158v34.009M48.678 211.158v34.009M46.788 245.166v-34.008M48.678 247.055v.944M48.678 248h-.946M47.733 248v.945M47.733 248.945h-.944M46.788 248.945v-1.89M46.788 290.509v-3.778M46.788 286.731h.944M47.733 286.731v.944M47.733 287.675h.945M48.678 287.675v2.834M49.622 287.675l28.055-28.054M46.788 286.731v-37.787M49.622 250.834v34.008M49.622 248v2.834M49.622 250.834h-1.889M47.733 250.834V248M47.733 248h1.889M47.733 287.675v-2.833M47.733 284.842h1.889M49.622 284.842v2.833M49.622 287.675h-1.889M47.733 284.842v-34.009M49.622 250.834v34.008M48.678 250.834v34.008M49.622 248a39.677 39.677 0 0128.055 11.621M46.788 207.38h1.889M46.788 207.38h1.889M41.12 207.38h5.668M48.678 207.38h16.247M46.788 290.509h1.889M46.788 290.509h1.889M41.12 290.509h5.668M48.678 290.509h16.247"/></g><g><path class="st4" d="M48.678 435.802h16.247M41.12 435.802h5.668M46.788 435.802h1.889M48.678 352.672h16.247M41.12 352.672h5.668M46.788 352.672h1.889M41.12 352.672v83.131M64.925 352.672v83.131M48.678 352.672v3.778M48.678 356.451h-1.889M46.788 356.451v-3.778M46.788 392.348v-1.89M46.788 390.459h1.889M48.678 390.459v1.89M47.733 356.451v34.008M48.678 356.451v34.008M46.788 390.459v-34.008M48.678 392.348v.944M48.678 393.293h-.946M47.733 393.293v.945M47.733 394.238h-.944M46.788 394.238v-1.89M46.788 435.802v-3.778M46.788 432.024h.944M47.733 432.024v.944M47.733 432.968h.945M48.678 432.968v2.834M49.622 432.968l28.055-28.054M46.788 432.024v-37.786M49.622 396.127v34.007M49.622 393.293v2.834M49.622 396.127h-1.889M47.733 396.127v-2.834M47.733 393.293h1.889M47.733 432.968v-2.834M47.733 430.134h1.889M49.622 430.134v2.834M49.622 432.968h-1.889M47.733 430.134v-34.008M49.622 396.127v34.007M48.678 396.127v34.007M49.622 393.293a39.677 39.677 0 0128.055 11.621M46.788 352.672h1.889M46.788 352.672h1.889M41.12 352.672h5.668M48.678 352.672h16.247M46.788 435.802h1.889M46.788 435.802h1.889M41.12 435.802h5.668M48.678 435.802h16.247"/></g><g><path class="st4" d="M376.663 717.495v-16.248M376.663 725.051v-5.667M376.663 719.384v-1.89M459.792 717.495v-16.248M459.792 725.051v-5.667M459.792 719.384v-1.89M459.792 725.051h-83.13M459.792 701.247h-83.13M459.792 717.495h-3.778M456.014 717.495v1.89M456.014 719.384h3.778M405.002 719.384h1.889M406.891 719.384v-1.89M406.891 717.495h-1.888M456.014 718.439h-49.123M456.014 717.495h-49.123M406.891 719.384h49.123M405.002 717.495h-.944M404.058 717.495v.944M404.058 718.439h-.945M403.113 718.439v.945M403.113 719.384h1.889M376.663 719.384h3.778M380.441 719.384v-.944M380.441 718.439h-.945M379.496 718.439v-.944M379.496 717.495h-2.833M380.441 719.384h22.672M401.224 716.55H382.33M404.058 716.55h-2.834M401.224 716.55v1.89M401.224 718.439h2.833M404.058 718.439v-1.89M379.496 718.439h2.834M382.33 718.439v-1.89M382.33 716.55h-2.834M379.496 716.55v1.89M382.33 718.439h18.893M401.224 716.55H382.33M401.224 717.495H382.33M459.792 719.384v-1.89M459.792 719.384v-1.89M459.792 725.051v-5.667M459.792 717.495v-16.248M376.663 719.384v-1.89M376.663 719.384v-1.89M376.663 725.051v-5.667M376.663 717.495v-16.248"/></g><g><path class="st4" d="M253.857 717.495v-16.248M253.857 725.051v-5.667M253.857 719.384v-1.89M319.983 717.495v-16.248M319.983 725.051v-5.667M319.983 719.384v-1.89M319.983 725.051h-66.125M319.983 701.247h-66.125M319.983 717.495h-3.778M316.204 717.495v1.89M316.204 719.384h3.778M282.197 719.384h1.89M284.086 719.384v-1.89M284.086 717.495h-1.89M316.204 718.439h-32.118M316.204 717.495h-32.118M284.086 719.384h32.118M282.197 717.495h-.944M281.252 717.495v.944M281.252 718.439h-.945M280.308 718.439v.945M280.308 719.384h1.889M253.857 719.384h3.779M257.636 719.384v-.944M257.636 718.439h-.945M256.691 718.439v-.944M256.691 717.495h-2.833M257.636 719.384h22.671M278.418 716.55h-18.893M281.252 716.55h-2.834M278.418 716.55v1.89M278.418 718.439h2.834M281.252 718.439v-1.89M256.691 718.439h2.834M259.525 718.439v-1.89M259.525 716.55h-2.834M256.691 716.55v1.89M259.525 718.439h18.893M278.418 716.55h-18.893M278.418 717.495h-18.893M319.983 719.384v-1.89M319.983 719.384v-1.89M319.983 725.051v-5.667M319.983 717.495v-16.248M253.857 719.384v-1.89M253.857 719.384v-1.89M253.857 725.051v-5.667M253.857 717.495v-16.248"/></g><g><path class="st4" d="M48.678 567.11h16.247M41.12 567.11h5.668M46.788 567.11h1.889M41.12 567.11v157.941M64.925 567.11v134.137M48.678 567.11v4.723M48.678 571.833h-1.889M46.788 571.833v-4.723M46.788 717.495v-4.724M46.788 712.771h1.889M48.678 712.771v4.724M46.788 719.384v-1.89M48.678 571.833v140.938M46.788 712.771V571.833M46.788 567.11h1.889M46.788 567.11h1.889M41.12 567.11h5.668M48.678 567.11h16.247M130.579 717.495v-16.248M130.579 725.051v-5.667M130.579 719.384v-1.89M130.579 725.051H41.12M130.579 701.247H64.925M130.579 717.495h-4.724M125.856 717.495v1.89M125.856 719.384h4.724M48.678 719.384h4.723M53.401 719.384v-1.89M53.401 717.495h-4.724M46.788 719.384h1.889M125.856 717.495H53.401M53.401 719.384h72.455M130.579 719.384v-1.89M130.579 719.384v-1.89M130.579 725.051v-5.667M130.579 717.495v-16.248"/></g><g><path class="st4" d="M41.12 123.494v83.886M41.12 39.231H.5m0 0v254.68m0-.001h40.62m0 0V39.231M2.389 292.021H41.12m0 0V41.12m0 0H2.389m0 0v250.901"/><g><path class="st4" d="M41.12 334.719H.5m0 0v120.916m0 0h40.62m0 0V334.719M2.389 453.747H41.12m0 0V336.609m0 0H2.389m0 0v117.138"/></g></g></g></g><g><path class="st7" d="M68.298.29l-3.16 2.78M75.718.29l-10.58 9.32M83.138.29l-12.45 10.96M90.558.29l-12.44 10.96M97.978.29l-12.44 10.96M105.408.29l-12.44 10.96M112.828.29l-12.44 10.96M120.248.29l-12.44 10.96M127.668.29l-12.44 10.96M135.088.29l-12.44 10.96M142.518.29l-12.44 10.96M149.938.29l-12.44 10.96M157.368.29l-12.45 10.96M164.788.29l-12.44 10.96M172.208.29l-12.44 10.96M179.628.29l-12.45 10.96M187.048.29l-12.44 10.96M194.468.29l-12.44 10.96M201.898.29l-12.44 10.96M209.318.29l-12.44 10.96M216.738.29l-12.44 10.96M224.158.29l-12.44 10.96M231.578.29l-12.44 10.96M239.008.29l-12.44 10.96M246.428.29l-12.44 10.96M253.858.29l-12.45 10.96M261.278.29l-12.44 10.96M71.918 173.64l-3.43 3.02M268.698.29l-12.44 10.96M79.328 173.64l-3.42 3.02M276.118.29l-12.44 10.96M277.688 5.44l-6.59 5.81M86.758 173.64l-3.43 3.02M94.178 173.64l-3.43 3.02M101.598 173.64l-3.42 3.02M109.028 173.64l-3.43 3.02M116.448 173.64l-3.43 3.02M123.868 173.64l-3.43 3.02M131.288 173.64l-3.43 3.02M138.708 173.64l-3.43 3.02M146.138 173.64l-3.43 3.02M153.558 173.64l-3.43 3.02M160.988 173.64l-3.43 3.02M167.848 174.13l-2.87 2.53M163.388 178.06l-3.02 2.66M163.388 184.59l-3.02 2.66M163.388 191.13l-3.02 2.66M163.388 197.67l-3.02 2.66M163.388 204.21l-3.02 2.66M205.518 173.64l-3.43 3.02M163.388 210.75l-3.02 2.66M209.488 176.68l-3.03 2.67M212.938 173.64l-3.43 3.02M163.388 217.29l-3.02 2.66M218.098 175.63l-1.17 1.03M209.488 183.21l-3.03 2.67M163.388 223.82l-3.02 2.66M209.488 189.75l-3.03 2.67M163.388 230.36l-3.02 2.66M209.488 196.29l-3.03 2.67M163.388 236.9l-3.02 2.66M163.388 243.44l-3.02 2.66M209.488 202.83l-3.03 2.67M250.048 173.64l-3.43 3.02M68.498 333.57l-3.36 2.96M209.488 209.37l-3.03 2.67M209.488 215.91l-3.03 2.67M257.468 173.64l-3.42 3.02M75.928 333.57l-3.43 3.02M209.488 222.44l-3.03 2.67M264.888 173.64l-3.43 3.02M83.338 333.57l-3.43 3.02M209.488 228.98l-3.03 2.67M272.308 173.64l-3.42 3.02M90.768 333.57l-3.43 3.02M277.688 175.44l-1.38 1.22M209.488 235.52l-3.03 2.67M98.188 333.57l-3.43 3.02M209.488 242.06l-3.03 2.67M163.388 282.67l-3.03 2.67M105.608 333.57l-3.43 3.02M209.488 248.6l-3.03 2.67M113.038 333.57l-3.43 3.02M163.388 289.21l-3.03 2.67M209.488 255.14l-3.03 2.67M120.458 333.57l-3.43 3.02M163.388 295.75l-3.03 2.67M209.488 261.68l-3.03 2.67M127.878 333.57l-3.42 3.02M163.388 302.29l-3.03 2.67M209.488 268.21l-3.03 2.67M135.298 333.57l-3.43 3.02M163.388 308.82l-3.03 2.67M209.488 274.75l-3.03 2.67M142.718 333.57l-3.43 3.02M163.388 315.36l-3.03 2.67M209.488 281.29l-3.03 2.67M150.138 333.57l-3.42 3.02M163.388 321.9l-3.03 2.67M209.488 287.83l-3.03 2.67M157.568 333.57l-3.43 3.02M163.388 328.44l-3.03 2.67M209.488 294.37l-3.03 2.67M163.388 334.98l-3.03 2.67M209.488 300.91l-3.03 2.67M163.388 341.52l-3.03 2.67M209.488 307.44l-3.03 2.67M163.388 348.05l-3.03 2.67M209.488 313.98l-3.03 2.67M163.388 354.59l-3.03 2.67M209.488 320.52l-3.03 2.67M163.388 361.13l-3.03 2.67M212.828 324.12l-6.37 5.61M163.388 367.67l-3.03 2.67M209.488 333.6l-3.03 2.67M220.248 324.12l-3.43 3.02M163.388 374.21l-3.03 2.67M265.978 290.38l-3.03 2.67M269.808 287l-3.42 3.02M209.488 340.14l-3.03 2.67M227.678 324.12l-3.43 3.02M163.388 380.75l-3.03 2.67M277.228 287l-3.43 3.02M66.728 472.43l-1.59 1.4M209.488 346.67l-3.03 2.67M265.978 296.91l-3.03 2.67M235.088 324.12l-3.43 3.02M163.388 387.28l-3.03 2.67M242.518 324.12l-3.43 3.02M265.978 303.45l-3.03 2.67M209.488 353.21l-3.03 2.67M74.158 472.43l-3.44 3.03M163.388 393.82l-3.03 2.67M249.938 324.12l-3.43 3.02M266.658 309.39l-3.71 3.27M81.578 472.43l-3.44 3.03M163.388 400.36l-3.03 2.67M274.078 309.39l-3.43 3.02M257.358 324.12l-3.43 3.02M265.978 316.53l-3.03 2.67M88.998 472.43l-3.44 3.03M163.388 406.9l-3.03 2.67M265.978 323.07l-4.62 4.07M163.388 413.44l-1.51 1.33M96.428 472.43l-3.44 3.03M272.208 324.12l-3.43 3.02M103.848 472.43l-3.44 3.03M277.688 325.83l-1.49 1.31M207.358 387.79l-.9.79M111.278 472.43l-3.44 3.03M211.338 390.81l-3.44 3.03M145.708 448.63l-.96.84M118.688 472.43l-3.44 3.03M218.768 390.81l-3.44 3.03M126.108 472.43l-3.44 3.03M153.128 448.63l-3.43 3.02M147.768 453.35l-3.03 2.67M226.188 390.81l-3.44 3.03M133.538 472.43l-3.44 3.03M163.388 446.13l-6.26 5.52M147.768 459.89l-3.03 2.67M233.608 390.81l-3.44 3.03M140.958 472.43l-3.44 3.03M163.388 452.67l-3.03 2.67M147.768 466.43l-3.02 2.66M241.038 390.81l-3.44 3.03M148.378 472.43l-3.43 3.03M163.388 459.21l-3.03 2.67M248.458 390.81l-3.44 3.03M155.808 472.43l-3.44 3.03M163.388 465.75l-3.03 2.67M159.778 475.46l3.44-3.03.17-.15M255.878 390.81l-3.44 3.03M263.298 390.81l-3.44 3.03M270.718 390.81l-3.44 3.03M277.688 391.21l-2.98 2.63M244.868 472.43l-3.42 3.02M252.298 472.43l-3.43 3.02M259.708 472.43l-3.42 3.02M267.138 472.43l-3.43 3.02M274.558 472.43l-3.43 3.02M268.238 478l-3.02 2.66M268.238 484.54l-3.02 2.66M268.238 491.08l-3.02 2.66M273.108 486.79l-3.43 3.02M268.238 497.62l-3.02 2.66M277.688 489.29l-.59.52M268.238 504.16l-3.02 2.66M273.058 506.44l-3.42 3.02M268.238 510.69l-3.02 2.66M280.488 506.44l-3.43 3.02M175.388 599.02l-2.91 2.57M268.238 517.23l-3.02 2.66M287.908 506.44l-3.43 3.02M175.508 605.45l-3.03 2.67M182.808 599.02l-3.42 3.02M268.238 523.77l-3.02 2.66M295.328 506.44l-3.43 3.02M175.508 611.99l-3.03 2.67M190.238 599.02l-3.43 3.02M268.238 530.31l-3.02 2.66M299.418 502.84l-3.03 2.67M268.238 536.85l-3.02 2.66M197.658 599.02l-3.43 3.02M175.508 618.53l-3.03 2.67M299.418 509.38l-.09.08M268.238 543.39l-3.02 2.66M198.928 604.44l-3.02 2.66M175.508 625.07l-3.03 2.67M268.238 549.92l-3.02 2.66M198.928 610.98l-3.02 2.66M175.508 631.61l-3.03 2.67M268.238 556.46l-3.02 2.66M198.928 617.52l-3.02 2.66M175.508 638.15l-3.03 2.67M274.968 557.07l-3.44 3.03M198.928 624.05l-3.02 2.66M175.508 644.68l-3.03 2.67M334.748 504.41l-3.03 2.66M282.388 557.07l-3.44 3.03M198.928 630.59l-3.02 2.66M178.148 648.9l-3.43 3.02M334.738 510.95l-3.02 2.67M289.818 557.07l-3.44 3.03M198.928 637.13l-3.02 2.66M185.568 648.9l-3.43 3.02M334.738 517.5l-3.03 2.66M192.998 648.9l-3.43 3.02M198.928 643.67l-3.02 2.66M296.508 557.71l-2.71 2.39M334.728 524.04l-3.02 2.66M198.928 650.21l-1.95 1.71M334.718 530.59l-3.02 2.66M334.718 537.13l-3.02 2.66M334.708 543.67l-3.02 2.66M334.708 550.21l-3.03 2.67M326.918 557.07l-2.75 2.43M334.698 556.76l-3.79 3.34M334.698 563.3l-3.03 2.67M341.768 557.07l-3.44 3.03M349.188 557.07l-3.44 3.03M356.618 557.07l-3.44 3.03M364.038 557.07l-3.44 3.03M371.458 557.07l-3.44 3.03M332.118 598.26l-.48.43M378.878 557.07l-3.44 3.03M334.668 602.56l-3.04 2.67M386.298 557.07l-3.44 3.03M392.018 558.58l-1.73 1.52M334.658 609.11l-3.03 2.67M465.108 500.73l-3.02 2.66M334.658 615.65l-3.04 2.67M465.108 507.27l-3.02 2.66M334.648 622.19l-3.03 2.67M468.108 511.16l-6.02 5.3M480.118 500.58l-2.92 2.57M334.638 628.73l-3.03 2.67M475.528 511.16l-3.44 3.03M465.108 520.34l-3.02 2.66M487.538 500.58l-10.34 9.11M423.418 557.07l-3.44 3.03M334.638 635.28l-3.03 2.67M465.108 526.88l-3.02 2.66M488.158 506.57l-10.96 9.66M334.628 641.82l-3.03 2.67M430.838 557.07l-3.44 3.03M465.108 533.42l-3.02 2.66M488.158 513.11l-10.96 9.66M334.628 648.37l-3.03 2.66M438.258 557.07l-3.44 3.03M465.108 539.96l-3.02 2.66M488.158 519.65l-10.96 9.66M334.618 654.91l-3.03 2.66M445.678 557.07l-3.44 3.03M465.108 546.5l-3.02 2.66M488.158 526.19l-10.96 9.66M334.608 661.46l-3.02 2.66M453.108 557.07l-3.44 3.03M488.158 532.73l-10.96 9.66M460.528 557.07l-3.44 3.03M334.608 668l-3.03 2.66M465.108 553.04l-3.02 2.66M488.158 539.27l-10.96 9.65M334.598 674.54l-3.02 2.66M467.948 557.07l-3.44 3.03M488.158 545.8l-10.96 9.66M334.598 681.08l-3.03 2.67M475.368 557.07l-3.44 3.03M334.588 687.63l-3.02 2.66M488.158 552.34l-10.96 9.66M334.588 694.17l-3.03 2.67M488.158 558.88l-10.96 9.66M334.578 700.72l-.37.32M488.158 565.42l-10.96 9.66M488.158 571.96l-10.96 9.66M488.158 578.49l-10.96 9.66M488.158 585.04l-10.96 9.65M488.158 591.58l-10.96 9.65M488.158 598.11l-10.96 9.66M488.158 604.65l-10.96 9.66M488.158 611.19l-10.96 9.66M488.158 617.73l-10.96 9.65M488.158 624.27l-10.96 9.65M488.158 630.8l-10.96 9.66M488.158 637.34l-10.96 9.66M488.158 643.89l-10.96 9.65M488.158 650.42l-10.96 9.66M488.158 656.96l-10.96 9.66M488.158 663.5l-10.96 9.65M488.158 670.04l-10.96 9.65M488.158 676.58l-10.96 9.65M488.158 683.11l-10.96 9.66M488.158 689.65l-10.96 9.66M488.158 696.19l-5.51 4.85"/></g><path class="st6" d="M172.265 599.223l26.45.001v52.9h-26.45v-52.901zm74.79-425.379h30.418v3.023h-31.476v-1.511h-.453v-1.512h1.511zM476.984 500.79h10.958v200.457h-10.958V560.303l-57.623.001v-1.512h.453v-1.51l42.056-.001V500.79h3.023v10.58h12.091v-10.58zm0 56.491v-42.888h-12.091v42.888h12.091zM277.473.5v10.958H64.925V.5h212.548zm53.953 597.965l-.086 102.782h3.023l.085-102.326-1.511-.002.001-.453-1.512-.001zM168.082 176.867v-1.511h-.454v-1.512H64.925v3.023h95.222v70.755h3.023v-70.755h4.912zm-7.936 159.931H64.925v-3.022h95.221V281.63h3.023v132.063h.001v1.511h-1.512v-.453h-1.511v-1.058h-.001v-76.895zM296.177 509.67h-28.151v47.611l28.265.001v1.51h.453v1.512l-31.74-.001v-84.642H240.82v-3.022h36.653v3.022h-9.447v11.337h9.447v3.023h-9.447v16.627h28.151v-5.858h3.023v8.879l-3.023.001zm95.978 50.633v-1.512h-.453v-1.51h-57.218l.046-56.492h-3.022l-.048 56.491-7.056.001v1.51h-.454v1.512l7.508-.001-.006 7.178 1.511.002.001-.454 1.511.002.005-6.727h57.675zM209.269 324.328h53.467v-37.125h14.737v3.023h-11.714v19.366h11.714v3.022h-11.714v11.714h11.714v3.023h-68.204v29.21h-1.512v.453h-1.511V176.867h-7.274v-1.511h.453v-1.512h18.913v1.512h-.454v1.511h-8.615v147.461zm0 64.123h-1.512v-.454h-1.511v6.046h71.227v-3.022h-68.204v-2.57zm-64.614 60.383h15.492l.001-2.192h1.511v-.453h1.512l-.001 26.45h-3.023v-20.782h-12.594v20.783h15.618v3.022H64.925v-3.022h79.604c0-7.935-.013-15.871.004-23.806h.122zM163.17 281.63v-1.512h-1.512v.454h-1.511v1.058h3.023zm0-32.497v-1.511h-3.023v1.058h1.511v.453h1.512zm32.522 353.113h-20.404v46.856h20.404v-46.856z"/></g><g id="sizes_1_"><path d="M175.242 671.437l-.727-.348a2.857 2.857 0 01-1.168-1.008c-.295-.44-.48-.97-.559-1.59h1.625c.047.323.148.589.305.797s.357.363.605.465c.247.102.537.152.871.152.525 0 .935-.141 1.227-.422.291-.281.438-.677.438-1.188v-.344c0-.567-.139-1.007-.414-1.316-.276-.31-.667-.465-1.172-.465h-.805v-1.516h.805c.442 0 .786-.133 1.031-.398.244-.266.367-.641.367-1.125v-.352c0-.448-.129-.794-.387-1.039s-.624-.367-1.098-.367a1.68 1.68 0 00-.727.152c-.214.102-.395.258-.543.469s-.257.476-.324.793h-1.617c.104-.62.301-1.151.59-1.594s.654-.778 1.098-1.008c.442-.229.95-.344 1.523-.344.979 0 1.736.258 2.273.773.536.516.805 1.242.805 2.18v.188c0 .567-.154 1.063-.461 1.484-.308.422-.742.729-1.305.922.619.136 1.1.44 1.441.914.341.474.512 1.078.512 1.813v.188c0 .661-.128 1.227-.383 1.695a2.536 2.536 0 01-1.113 1.07c-.487.245-1.074.367-1.762.367l-.951.002zM187.586 661.382l-2.938 9.938h-1.695l2.938-9.844H183v1.633h-1.594v-3.148h6.18v1.421zM189.617 669.726h1.594v1.594l-1.594 1.578v-3.172zM196.14 671.32h-1.594v-9.625l-1.617.992v-1.648l1.617-1.078h1.594v11.359zM452.472 576.735h-1.594v-9.625l-1.617.992v-1.648l1.617-1.078h1.594v11.359zM457.035 576.852l-.727-.348c-.485-.232-.874-.567-1.168-1.008s-.48-.97-.559-1.59h1.625c.047.323.148.589.305.797s.358.363.605.465.538.152.871.152c.526 0 .935-.141 1.227-.422s.438-.677.438-1.188v-.344c0-.567-.138-1.007-.414-1.316s-.667-.465-1.172-.465h-.805v-1.516h.805c.442 0 .786-.133 1.031-.398s.367-.641.367-1.125v-.352c0-.448-.129-.794-.387-1.039s-.624-.367-1.098-.367c-.271 0-.513.051-.727.152s-.395.258-.543.469-.257.476-.324.793h-1.617c.104-.62.301-1.151.59-1.594s.655-.778 1.098-1.008.95-.344 1.523-.344c.979 0 1.737.258 2.273.773s.805 1.242.805 2.18v.188c0 .567-.153 1.063-.461 1.484s-.742.729-1.305.922c.62.136 1.101.44 1.441.914s.512 1.078.512 1.813v.188c0 .661-.128 1.227-.383 1.695s-.626.825-1.113 1.07-1.074.367-1.762.367l-.951.002zM463.355 575.141h1.594v1.594l-1.594 1.578v-3.172zM473.004 566.797l-2.938 9.938h-1.695l2.938-9.844h-2.891v1.633h-1.594v-3.148h6.18v1.421zM199.827 129.801l3.961-5.281c.229-.302.407-.616.535-.941.127-.325.191-.629.191-.91v-.016c0-.453-.133-.805-.398-1.055s-.644-.375-1.133-.375c-.464 0-.839.137-1.125.41-.287.273-.461.66-.523 1.16v.008h-1.648v-.008c.094-.651.285-1.207.574-1.668s.662-.813 1.121-1.055c.458-.242.986-.363 1.586-.363.677 0 1.255.116 1.734.348.479.232.844.569 1.094 1.012.25.443.375.977.375 1.602v.008c0 .401-.084.82-.25 1.258a5.417 5.417 0 01-.695 1.266l-3.289 4.469h4.297v1.516h-6.406v-1.385zM208.108 128.059l3.813-8.227h1.641l-3.719 8.133h5.57v1.477h-7.305v-1.383zm4.899-3.555h1.555v6.688h-1.555v-6.688zM217.21 129.59h1.594v1.594l-1.594 1.578v-3.172zM222.975 131.301l-.727-.348a2.857 2.857 0 01-1.168-1.008c-.295-.44-.48-.97-.559-1.59h1.625c.047.323.148.589.305.797.156.208.357.363.605.465.247.102.537.152.871.152.525 0 .935-.141 1.227-.422.291-.281.438-.677.438-1.188v-.344c0-.567-.139-1.006-.414-1.316-.276-.31-.667-.465-1.172-.465h-.805v-1.516h.805c.442 0 .786-.133 1.031-.398.244-.266.367-.641.367-1.125v-.352c0-.448-.129-.794-.387-1.039-.258-.245-.624-.367-1.098-.367a1.68 1.68 0 00-.727.152c-.214.102-.395.258-.543.469s-.257.476-.324.793h-1.617c.104-.62.301-1.151.59-1.594a2.886 2.886 0 011.098-1.008c.442-.229.95-.344 1.523-.344.979 0 1.736.258 2.273.773.536.516.805 1.242.805 2.18v.188c0 .568-.154 1.063-.461 1.484-.308.422-.742.729-1.305.922.619.136 1.1.44 1.441.914.341.474.512 1.078.512 1.813v.188c0 .662-.128 1.227-.383 1.695a2.53 2.53 0 01-1.113 1.07c-.487.245-1.074.367-1.762.367l-.951.002zM134.72 305.164h-1.594v-9.625l-1.617.992v-1.648l1.617-1.078h1.594v11.359zM138.122 304.429c-.55-.567-.824-1.359-.824-2.375v-5.164c0-1.021.275-1.813.828-2.379.552-.565 1.356-.848 2.414-.848 1.063 0 1.868.281 2.418.844.549.563.824 1.356.824 2.383v5.164c0 1.021-.276 1.813-.828 2.379-.553.565-1.357.848-2.414.848-1.063 0-1.869-.284-2.418-.852zm3.664-1.105c.268-.294.402-.718.402-1.27v-5.164c0-.552-.133-.976-.398-1.27s-.683-.441-1.25-.441c-.568 0-.984.147-1.25.441s-.398.718-.398 1.27v5.164c0 .552.134.976.402 1.27.268.294.684.441 1.246.441s.977-.147 1.246-.441zM145.97 303.57h1.594v1.594l-1.594 1.578v-3.172zM150.97 304.879a2.609 2.609 0 01-1.082-1.172c-.248-.513-.371-1.132-.371-1.855v-.008c0-.422.049-.864.148-1.328a7.648 7.648 0 01.641-1.82l2.469-4.891h1.719l-2.898 5.664.008-.281c.13-.245.32-.435.57-.57s.541-.203.875-.203c.588 0 1.094.133 1.516.398s.742.652.961 1.16.328 1.118.328 1.832v.008c0 .729-.124 1.354-.371 1.875-.248.521-.609.917-1.086 1.188s-1.049.406-1.715.406c-.669-.001-1.239-.135-1.712-.403zm2.878-1.598c.273-.313.41-.758.41-1.336v-.008c0-.636-.144-1.126-.43-1.473-.287-.347-.695-.52-1.227-.52-.475 0-.842.175-1.102.523-.261.349-.391.841-.391 1.477v.008c0 .578.137 1.022.41 1.332s.66.465 1.16.465c.507.001.897-.156 1.17-.468z"/><g><path d="M232.761 385.952l-.727-.348a2.857 2.857 0 01-1.168-1.008c-.295-.44-.48-.97-.559-1.59h1.625c.047.323.148.589.305.797s.357.363.605.465c.247.102.537.152.871.152.525 0 .935-.141 1.227-.422.291-.281.438-.677.438-1.188v-.344c0-.567-.139-1.007-.414-1.316-.276-.31-.667-.465-1.172-.465h-.805v-1.516h.805c.442 0 .786-.133 1.031-.398.244-.266.367-.641.367-1.125v-.352c0-.448-.129-.794-.387-1.039s-.624-.367-1.098-.367a1.68 1.68 0 00-.727.152c-.214.102-.395.258-.543.469s-.257.476-.324.793h-1.617c.104-.62.301-1.151.59-1.594s.654-.778 1.098-1.008c.442-.229.95-.344 1.523-.344.979 0 1.736.258 2.273.773.536.516.805 1.242.805 2.18v.188c0 .567-.154 1.063-.461 1.484-.308.422-.742.729-1.305.922.619.136 1.1.44 1.441.914.341.474.512 1.078.512 1.813v.188c0 .661-.128 1.227-.383 1.695a2.536 2.536 0 01-1.113 1.07c-.487.245-1.074.367-1.762.367l-.951.002zM239.081 384.241h1.594v1.594l-1.594 1.578v-3.172zM243.686 385.1c-.55-.567-.824-1.359-.824-2.375v-5.164c0-1.021.275-1.813.828-2.379.552-.565 1.356-.848 2.414-.848 1.063 0 1.868.281 2.418.844.549.563.824 1.356.824 2.383v5.164c0 1.021-.276 1.813-.828 2.379-.553.565-1.357.848-2.414.848-1.062 0-1.869-.284-2.418-.852zm3.664-1.105c.268-.294.402-.718.402-1.27v-5.164c0-.552-.133-.976-.398-1.27s-.683-.441-1.25-.441c-.568 0-.984.147-1.25.441s-.398.718-.398 1.27v5.164c0 .552.134.976.402 1.27.268.294.684.441 1.246.441s.978-.147 1.246-.441z"/></g><g><path d="M442.497 514.445c-.445-.224-.808-.55-1.086-.977s-.465-.94-.559-1.539v-.008h1.594v.008c.058.417.224.741.5.973s.636.348 1.078.348c.512 0 .906-.171 1.184-.512.279-.341.418-.821.418-1.441v-.953c0-.614-.139-1.093-.418-1.434-.277-.341-.672-.512-1.184-.512-.275 0-.541.078-.797.234a2.237 2.237 0 00-.672.656h-1.453v-5.984h5.789v1.516h-4.195v2.555c.198-.161.42-.286.664-.375.245-.089.496-.133.75-.133.656 0 1.219.136 1.684.406.467.271.82.667 1.063 1.188s.363 1.148.363 1.883v.953c0 .734-.125 1.362-.375 1.883s-.613.918-1.094 1.191c-.479.273-1.055.41-1.727.41-.572 0-1.082-.112-1.527-.336zM449.407 513.07h1.594v1.594l-1.594 1.578v-3.172zM455.93 514.664h-1.594v-9.625l-1.617.992v-1.648l1.617-1.078h1.594v11.359z"/></g><g><path d="M12.463 47.391l-2.938 9.938H7.83l2.938-9.844H7.877v1.633H6.283V45.97h6.18v1.421zM14.494 55.735h1.594v1.594l-1.594 1.578v-3.172zM19.92 57.11a2.75 2.75 0 01-1.086-.977c-.279-.427-.465-.94-.559-1.539v-.008h1.594v.008c.057.417.224.741.5.973.276.232.635.348 1.078.348.51 0 .905-.17 1.184-.512.278-.341.418-.821.418-1.441v-.953c0-.614-.14-1.092-.418-1.434-.279-.341-.673-.512-1.184-.512-.276 0-.542.078-.797.234a2.237 2.237 0 00-.672.656h-1.453v-5.984h5.789v1.516h-4.195v2.555a2.275 2.275 0 011.414-.508c.656 0 1.217.136 1.684.406.466.271.82.667 1.063 1.188.242.521.363 1.148.363 1.883v.953c0 .734-.125 1.362-.375 1.883-.25.521-.615.918-1.094 1.191-.479.273-1.055.41-1.727.41-.573-.001-1.081-.113-1.527-.336z"/></g><g><path d="M217.915 461.688l3.813-8.227h1.641l-3.719 8.133h5.57v1.477h-7.305v-1.383zm4.898-3.555h1.555v6.688h-1.555v-6.688zM227.016 463.219h1.594v1.594l-1.594 1.578v-3.172zM231.622 464.079c-.55-.567-.824-1.359-.824-2.375v-5.164c0-1.021.276-1.813.828-2.379s1.356-.848 2.414-.848c1.063 0 1.868.281 2.418.844s.824 1.356.824 2.383v5.164c0 1.021-.276 1.813-.828 2.379s-1.356.848-2.414.848c-1.063-.001-1.868-.285-2.418-.852zm3.664-1.106c.269-.294.402-.718.402-1.27v-5.164c0-.552-.133-.976-.398-1.27s-.683-.441-1.25-.441-.984.147-1.25.441-.398.718-.398 1.27v5.164c0 .552.134.976.402 1.27s.684.441 1.246.441.977-.147 1.246-.441z"/></g><g><path d="M177.528 339.748a2.855 2.855 0 01-1.207-1.105c-.284-.477-.426-1.03-.426-1.66v-.188c0-.567.142-1.102.426-1.602.283-.5.662-.878 1.137-1.133-.401-.219-.723-.535-.965-.949s-.363-.851-.363-1.309v-.273c0-.594.133-1.116.398-1.566s.641-.8 1.125-1.047 1.047-.371 1.688-.371 1.203.124 1.688.371.859.597 1.125 1.047.398.973.398 1.566v.273c0 .469-.124.909-.371 1.32a2.485 2.485 0 01-.98.938c.479.261.863.64 1.152 1.137s.434 1.03.434 1.598v.188c0 .63-.143 1.184-.426 1.66a2.854 2.854 0 01-1.207 1.105c-.521.261-1.125.391-1.813.391s-1.292-.131-1.813-.391zm2.789-1.36c.281-.146.498-.351.652-.613.153-.263.23-.566.23-.91v-.109c0-.349-.077-.655-.23-.918-.154-.263-.371-.468-.652-.613s-.607-.219-.977-.219-.695.073-.977.219-.499.352-.652.617c-.154.266-.23.573-.23.922v.117c0 .344.076.646.23.906.153.261.371.462.652.605s.606.215.977.215c.37 0 .696-.073.977-.219zm-.133-5.121c.244-.138.435-.335.57-.59.135-.255.203-.55.203-.883v-.109c0-.317-.068-.599-.203-.844a1.406 1.406 0 00-.57-.566 1.74 1.74 0 00-.844-.199c-.318 0-.6.066-.844.199a1.394 1.394 0 00-.57.566 1.724 1.724 0 00-.203.852v.117c0 .328.067.618.203.871.135.253.325.448.57.586.244.138.525.207.844.207.318 0 .599-.069.844-.207zM184.856 338.427h1.594v1.594l-1.594 1.578v-3.172zM194.505 330.084l-2.938 9.938h-1.695l2.938-9.844h-2.891v1.633h-1.594v-3.148h6.18v1.421z"/></g><g><path d="M77.383 438.768l-.008.281c-.13.239-.327.415-.59.527a2.372 2.372 0 01-.934.168c-.542 0-1.019-.138-1.43-.414-.412-.276-.73-.665-.957-1.168s-.34-1.085-.34-1.746v-.008c0-.734.124-1.362.371-1.883.247-.521.609-.917 1.086-1.188s1.048-.406 1.715-.406 1.237.138 1.711.414c.474.276.834.677 1.082 1.203.247.526.371 1.159.371 1.898v.008c0 .406-.052.84-.156 1.301a8.052 8.052 0 01-.539 1.578c-.031.07-.065.14-.102.207l-2.422 4.867h-1.719l2.861-5.639zm.074-.984c.273-.339.41-.815.41-1.43v-.008c0-.599-.137-1.063-.41-1.391s-.66-.492-1.16-.492c-.505 0-.895.164-1.168.492s-.41.794-.41 1.398v.008c0 .614.137 1.09.41 1.426s.663.504 1.168.504c.5.001.887-.168 1.16-.507zM81.414 442.815h1.594v1.594l-1.594 1.578v-3.172zM86.02 443.674c-.55-.567-.824-1.359-.824-2.375v-5.164c0-1.021.275-1.813.828-2.379.552-.565 1.356-.848 2.414-.848 1.063 0 1.868.281 2.418.844.549.563.824 1.356.824 2.383v5.164c0 1.021-.276 1.813-.828 2.379-.553.565-1.357.848-2.414.848-1.062 0-1.869-.284-2.418-.852zm3.664-1.105c.268-.294.402-.718.402-1.27v-5.164c0-.552-.133-.976-.398-1.27s-.683-.441-1.25-.441c-.568 0-.984.147-1.25.441s-.398.718-.398 1.27v5.164c0 .552.134.976.402 1.27.268.294.684.441 1.246.441s.978-.147 1.246-.441z"/></g><g><path d="M270.602 552.224l3.961-5.281c.229-.302.407-.616.535-.941s.191-.629.191-.91v-.016c0-.453-.133-.805-.398-1.055s-.644-.375-1.133-.375c-.464 0-.839.137-1.125.41s-.461.66-.523 1.16v.008h-1.648v-.008c.094-.651.285-1.207.574-1.668s.663-.813 1.121-1.055.987-.363 1.586-.363c.677 0 1.255.116 1.734.348s.844.569 1.094 1.012.375.977.375 1.602v.008c0 .401-.083.82-.25 1.258s-.398.859-.695 1.266l-3.289 4.469h4.297v1.516h-6.406v-1.385zM278.884 552.013h1.594v1.594l-1.594 1.578v-3.172zM284.649 553.724l-.727-.348c-.485-.232-.874-.567-1.168-1.008s-.48-.97-.559-1.59h1.625c.047.323.148.589.305.797s.358.363.605.465.538.152.871.152c.526 0 .935-.141 1.227-.422s.438-.677.438-1.188v-.344c0-.567-.138-1.007-.414-1.316s-.667-.465-1.172-.465h-.805v-1.516h.805c.442 0 .786-.133 1.031-.398s.367-.641.367-1.125v-.352c0-.448-.129-.794-.387-1.039s-.624-.367-1.098-.367c-.271 0-.513.051-.727.152s-.395.258-.543.469-.257.476-.324.793h-1.617c.104-.62.301-1.151.59-1.594s.655-.778 1.098-1.008.95-.344 1.523-.344c.979 0 1.737.258 2.273.773s.805 1.242.805 2.18v.188c0 .567-.153 1.063-.461 1.484s-.742.729-1.305.922c.62.136 1.101.44 1.441.914s.512 1.078.512 1.813v.188c0 .661-.128 1.227-.383 1.695s-.626.825-1.113 1.07-1.074.367-1.762.367l-.951.002z"/></g><g><path d="M215.002 318.853c-.474-.269-.835-.659-1.082-1.172s-.371-1.132-.371-1.855v-.008c0-.422.05-.864.148-1.328a7.568 7.568 0 01.641-1.82l2.469-4.891h1.719l-2.898 5.664.008-.281c.13-.245.32-.435.57-.57s.542-.203.875-.203c.589 0 1.094.133 1.516.398s.742.652.961 1.16.328 1.118.328 1.832v.008c0 .729-.124 1.354-.371 1.875s-.609.917-1.086 1.188-1.048.406-1.715.406-1.239-.134-1.712-.403zm2.879-1.597c.273-.313.41-.758.41-1.336v-.008c0-.636-.144-1.126-.43-1.473s-.695-.52-1.227-.52c-.474 0-.841.175-1.102.523s-.391.841-.391 1.477v.008c0 .578.137 1.022.41 1.332s.66.465 1.16.465c.507 0 .896-.156 1.17-.468zM221.838 317.545h1.594v1.594l-1.594 1.578v-3.172zM226.838 318.853c-.474-.269-.835-.659-1.082-1.172s-.371-1.132-.371-1.855v-.008c0-.422.05-.864.148-1.328a7.568 7.568 0 01.641-1.82l2.469-4.891h1.719l-2.898 5.664.008-.281c.13-.245.32-.435.57-.57s.542-.203.875-.203c.589 0 1.094.133 1.516.398s.742.652.961 1.16.328 1.118.328 1.832v.008c0 .729-.124 1.354-.371 1.875s-.609.917-1.086 1.188-1.048.406-1.715.406-1.239-.134-1.712-.403zm2.879-1.597c.273-.313.41-.758.41-1.336v-.008c0-.636-.144-1.126-.43-1.473s-.695-.52-1.227-.52c-.474 0-.841.175-1.102.523s-.391.841-.391 1.477v.008c0 .578.137 1.022.41 1.332s.66.465 1.16.465c.507 0 .896-.156 1.17-.468z"/></g><g><path d="M6.412 350.429l3.961-5.281c.229-.302.407-.616.535-.941.127-.325.191-.629.191-.91v-.016c0-.453-.133-.805-.398-1.055s-.644-.375-1.133-.375c-.464 0-.839.137-1.125.41-.287.273-.461.66-.523 1.16v.008H6.271v-.008c.094-.651.285-1.207.574-1.668s.663-.813 1.121-1.055c.458-.242.987-.363 1.586-.363.677 0 1.255.116 1.734.348.479.231.844.569 1.094 1.012s.375.977.375 1.602v.008c0 .401-.083.82-.25 1.258a5.417 5.417 0 01-.695 1.266l-3.289 4.469h4.297v1.516H6.412v-1.385zM14.693 350.218h1.594v1.594l-1.594 1.578v-3.172zM20.119 351.593a2.758 2.758 0 01-1.086-.977c-.279-.427-.465-.94-.559-1.539v-.008h1.594v.008c.057.417.224.741.5.973.276.231.635.348 1.078.348.51 0 .905-.171 1.184-.512.278-.341.418-.821.418-1.441v-.953c0-.614-.14-1.093-.418-1.434-.279-.341-.673-.512-1.184-.512-.276 0-.542.078-.797.234a2.237 2.237 0 00-.672.656h-1.453v-5.984h5.789v1.516h-4.195v2.555a2.275 2.275 0 011.414-.508c.656 0 1.217.136 1.684.406.466.271.82.667 1.063 1.188s.363 1.148.363 1.883v.953c0 .734-.125 1.362-.375 1.883s-.615.918-1.094 1.191c-.479.273-1.055.41-1.727.41-.573 0-1.082-.112-1.527-.336z"/></g></g></svg>