<svg version="1.1" id="_x33_87" xmlns="http://www.w3.org/2000/svg" x="0" y="0" viewBox="0 0 488.822 632.976" xml:space="preserve"><style>.st0,.st1{fill-rule:evenodd;clip-rule:evenodd}.st0{fill:#fff}.st1{stroke:#999;stroke-width:.4}.st1,.st2,.st4{fill:none;stroke-linecap:round;stroke-linejoin:round;stroke-miterlimit:3}.st2{fill-rule:evenodd;clip-rule:evenodd;stroke:#999}.st4{stroke:#000}.st4,.st5,.st6,.st7{fill-rule:evenodd;clip-rule:evenodd}.st6,.st7{fill:none;stroke-miterlimit:22.9256}.st6{stroke-linecap:round;stroke-linejoin:round;stroke:#000}.st7{stroke:#666;stroke-width:.6}</style><path class="st0" d="M488.154 235.488V25.863h-40.75V.483L202.529.601v399.887H.869v232.211l446.535-.216V379.988h40.5V259.113h-40.5v-23.625z"/><g id="mebel_1_"><g id="mebel"><path class="st1" d="M225.46 126.975h49.5m-49.5-11.337h49.5m-29.514-11.335h29.513M225.46 92.967h49.5m-49.5-11.336h49.5m-49.5-11.336h49.499M225.46 58.959h49.499M225.46 47.623h49.499m-8.88 87.194V37.891m-22.672 96.926v-28.682m0-10.652V37.891M150.264 599.49h47.555m37.809 0h12.691m-78.515-11.336h19.393m55.052 0h4.07m-98.055-11.336h48.171m36.576 0h13.308m-98.055-11.336h98.055m-98.055-11.335h98.055m-98.055-11.338h98.055m-98.055-11.335h98.055m-11.052 77.178v-10.08m0-20.568v-48.892m-22.672 79.54v-4.971m0-30.785v-43.783m-22.671 79.539v-13.719m0-13.29v-51.018m-22.672 78.027v-18.667m0-5.322v-54.038M135.528 524.2h49.499m-49.499-11.336h49.499m-49.499-11.335h30.686m-30.686-11.336h33.652m-33.652-11.337h33.652m-33.652-11.336h.566m32.496 0h.59m-.023-11.336h.023m-1.722 69.906v-14.337m0-11.002v-33.23m-22.672 58.569v-58.57"/><path class="st2" d="M410.172 144.04l6.543-3.153m0 0l.656-.336m0 0l.615-.354m0 0l.562-.364m0 0l.491-.363m0 0l.019-.015m0 0l.41-.354m0 0l.31-.332m0 0l.02-.025m0 0l.204-.301m0 0l.016-.032m0 0l.089-.261m0 0l.009-.036m0 0l.003-.037m0 0l-.003-.037m0 0l-.029-.213m0 0l-.011-.037m0 0l-.008-.018m0 0l-.87-1.805m0 0l1.639-.79m0 0l-6.562-13.616m0 0l-1.639.791m0 0l-.514-1.064m0 0l-14.422 6.951m0 0l.513 1.064m0 0l-1.639.79m0 0l6.563 13.615m0 0l1.639-.79m0 0l.871 1.807m0 0l.008.016m0 0l.023.031m0 0l.148.156m0 0l.028.026m0 0l.03.021m0 0l.034.015m0 0l.26.092m0 0l.034.007m0 0l.363.028m0 0l.033.001m0 0l.453-.036m0 0l.532-.101m0 0l.022-.004m0 0l.591-.159m0 0l.634-.213m0 0l.66-.26m0 0l.672-.305M418.686 134.903l-14.423 6.952M418.489 134.998l.689 1.43M404.46 141.76l.688 1.43M398.212 129.302l6.563 13.614M412.634 122.35l6.563 13.615M415.934 139.25l-6.556 3.16M419.178 136.428c.271.564-1.181 1.828-3.245 2.823M409.377 142.41c-2.063.995-3.957 1.344-4.229.78M381.279 150.64h-7.263m0 0l-.737-.017m0 0l-.708-.052m0 0l-.664-.083m0 0l-.601-.114m0 0l-.023-.005m0 0l-.522-.142m0 0l-.424-.164m0 0l-.029-.014m0 0l-.314-.183m0 0l-.028-.021m0 0l-.194-.197m0 0l-.024-.028m0 0l-.019-.032m0 0l-.013-.035m0 0l-.066-.205m0 0l-.007-.037m0 0l-.001-.019m0 0v-2.005m0 0h-1.819m0 0v-15.114m0 0h1.819m0 0v-1.182m0 0h16.011m0 0v1.182m0 0h1.819m0 0v15.114m0 0h-1.819m0 0v2.005m0 0l-.001.019m0 0l-.007.037m0 0l-.066.205m0 0l-.013.035m0 0l-.018.032m0 0l-.025.028m0 0l-.194.197m0 0l-.028.021m0 0l-.314.183m0 0l-.029.014m0 0l-.424.164m0 0l-.523.142m0 0l-.022.005m0 0l-.601.114m0 0l-.664.083m0 0l-.708.052m0 0l-.737.017M369.642 146.106h16.011M369.861 146.106v1.587M385.434 146.106v1.587M385.653 132.171v15.114M369.642 132.171v15.114M374.008 148.827h7.278M374.008 148.827c-2.29 0-4.147-.508-4.147-1.134M385.434 147.693c0 .626-1.856 1.134-4.147 1.134M240.451 107.212l1.645-.469m0 0l1.551-.718m0 0l1.231-.968m0 0l.942-1.248m0 0l.594-1.448m0 0l.206-1.551m0 0l-.206-1.551m0 0l-.594-1.447m0 0l-.942-1.249m0 0l-1.231-.968m0 0l-1.551-.718m0 0l-1.645-.469m0 0l-1.697-.207m0 0l-1.71.059m0 0l-11.584 1.223m0 0v10.654m0 0l11.584 1.223m0 0l1.71.06m0 0l1.697-.208M231.18 96.693v4.117M231.18 100.81v4.117M245.448 97.746c.57.889.88 1.961.886 3.063M238.618 94.498c2.591-.165 5.106 1.031 6.83 3.248M231.18 96.693c2.253-1.505 4.828-2.265 7.437-2.195M238.618 107.121c-2.609.07-5.185-.689-7.437-2.195M245.448 103.873c-1.724 2.217-4.239 3.413-6.83 3.248M246.333 100.81a5.737 5.737 0 01-.886 3.063M225.459 96.162h.188v9.295h-.188zM225.46 96.162v9.296m0 0h.188m0 0v-9.296m0 0h-.188M225.46 110.256V91.363M220.925 110.256V91.363M225.46 110.256h-4.534M225.46 91.363h-4.534M211.856 71.332V38.364m0 0l.166-.401m0 0l.401-.166m0 0h12.469m0 0l.401.166m0 0l.167.401m0 0v32.968m0 0l-.167.401m0 0l-.401.166m0 0h-12.469m0 0l-.401-.166m0 0l-.166-.401M216.013 70.198V55.301m0-.907V39.497M216.579 38.93h7.18M224.326 39.497v30.701M223.758 70.765h-7.179M216.013 39.497c0-.313.253-.567.566-.567M223.758 38.93c.313 0 .567.254.567.567M224.326 70.198a.568.568 0 01-.567.567M216.579 70.765a.566.566 0 01-.566-.567M219.193 55.301a.755.755 0 01-1.21 0h1.21zm-1.209-.907a.754.754 0 011.208 0h-1.208zM212.385 54.394v.907m0 0h7.748m0 0l.301-.256m0 0v-.395m0 0l-.301-.256m0 0h-7.748M212.385 55.603v-1.511m0 0h-.265m0 0v1.511m0 0h.265M212.121 55.981v-2.267m0 0h-.265m0 0v2.267m0 0h.265M213.746 58.116h-1.625m0 0v-.094m0 0h-.133m0 0v-.283m0 0h-.132m0 0v1.889m0 0h.132m0 0v-.284m0 0h.133m0 0v-.094m0 0h1.625m0 0v-.322m0 0h.416m0 0v1.078m0 0h.49m0 0v-2.645m0 0h-.49m0 0v1.076m0 0h-.416m0 0v-.321M213.746 51.579h-1.625m0 0v.094m0 0h-.133m0 0v.284m0 0h-.132m0 0v-1.89m0 0h.132m0 0v.283m0 0h.133m0 0v.095m0 0h1.625m0 0v.322m0 0h.416m0 0v-1.078m0 0h.49m0 0v2.646m0 0h-.49m0 0v-1.077m0 0h-.416m0 0v.321M214.162 58.928l.071-.072M214.162 58.437l.071.072M213.746 58.928v-.491M212.121 59.25v-1.134M211.988 58.022v1.322M214.162 50.767l.071.072M214.162 51.258l.071-.072M213.746 50.767v.491M212.121 50.445v1.135M211.988 51.673V50.35M214.652 58.683a.245.245 0 11-.49 0 .245.245 0 11.49 0zM214.652 51.012a.245.245 0 11-.49.002.245.245 0 01.49-.002zM274.96 11.441h-63.104m0 0v26.45m0-.001h63.104m0 0V11.44M267.597 35.775l.913-.08m0-.001l.886-.238m0 .001l.83-.39m0 0l.751-.529m0 0l.648-.653m0 0l.526-.755m0 0l.387-.835m0 0l.238-.891m0 0l.08-.919m0 0V18.846m0 0l-.08-.919m0 .001l-.238-.89m0 0l-.387-.836m0-.001l-.526-.755m0 .001l-.648-.652m0 0l-.751-.529m0 0l-.83-.39m0 0l-.886-.239m0 0l-.913-.08m0 0h-42.595m0 0l-1.918.169m0 0l-1.858.501m0 0l-1.745.819m0 0l-1.577 1.11m0 0l-1.361 1.369m0 0l-1.104 1.586m0 0l-.814 1.756m0 0l-.498 1.87m0 0l-.168 1.93m0 0l.168 1.928m0 0l.498 1.871m0 0l.814 1.755m0 0l1.104 1.586m0-.001l1.361 1.369m0 .001l1.577 1.111m0 0l1.745.819m0 0l1.858.501m0 0l1.918.168m0 0h42.595M266.835 24.666a.945.945 0 11-1.89-.003.945.945 0 011.89.003zM202.41 529.112h45.91M248.32 529.112v-76.327M248.32 452.785h-45.91M209.966 522.5a.944.944 0 11-1.889 0 .944.944 0 011.889 0zM215.393 485.604l.372 1.396m0 0l.792 1.209m0 0l1.133.899m0 0l1.358.495m0 0l1.445.044m0 0l1.384-.414m0 0l1.185-.828m0 0l.864-1.159m0 0l.454-1.372m0 0v-1.446m0 0l-.454-1.372m0 0l-.864-1.159m0 0l-1.185-.828m0 0l-1.384-.414m0 0l-1.445.043m0 0l-1.358.496m0 0l-1.133.897m0 0l-.792 1.209m0 0l-.372 1.397m0 0h-5.538m0 0l.108-.455m0 0l.037-.49m0 0l-.037-.488m0 0l-.108-.456m0 0l-.172-.392m0 0l-.225-.299m0 0l-.261-.189m0 0l-.281-.064m0 0h-.402m0 0l-.12.018m0 0l-.277.065m0 0l-.104.054m0 0l-.251.181m0 0l-.07.078m0 0l-.205.274m0 0l-.157.357m0 0l-.051.195m0 0l-.061.25m0 0l-.687.02m0 0l-.796.01m0 0v-1.729m0 0h-.435m0 0v-2.872m0 0l-.058-.16m0 0l-.149-.083m0 0l-.167.033m0 0l-.105.134m0 0l-.157.485m0 0l-.316.726m0 0l-.573 1.008m0 0l-.259.729m0 0h-.124m0 0v-.605m0 0h-.982m0 0v2.57m0 0h.877m0 0l.038.062m0 0l.034.033m0 0l.04.025m0 0l.673.278m0 0v.697m0 0h-1.361m0 0v-1.058m0 0h-.301m0 0v3.024m0 0h.301m0 0v-1.059m0 0h1.361m0 0v1.436m0 0h.151m0 0v.416m0 0h-.302m0 0v-.152m0 0h-.529m0 0v-.604m0 0h-.982m0 0v2.57m0 0h.982m0 0v-.605m0 0h.529m0 0v-.151m0 0h.302m0 0v.151m0 0h1.512m0 0v-2.57m0 0h2.153m0 0v-.082m0 0v-.094m0 0v-.124m0 0v-.148m0 0v-.043m0 0h7.505M204.072 483.261v.21m0 0l-.341-.141m0 0l-.053-.325m0 0l.002-.009m0 0h.242m0 0v-.151m0 0h.301m0 0v.416m0 0h-.151M204.223 481.787h-.24m0 0l.239-.677m0 0l.563-.987m0 0l.024-.053m0 0v1.567m0 0h-.586m0 0v.15M203.392 487.645h.529M203.392 488.324h.529M203.392 481.988v-.352M203.921 482.845v-.188M203.921 482.657v-.68M203.921 481.977v-.015M203.745 482.657h.177M203.915 481.977h.006M204.223 481.787v1.058M205.735 484.14v.557M204.809 481.637h.491M206.301 484.206v.49M205.289 478.84l.011-.075M203.184 482.991l.002.046M203.216 482.82l-.032.171M203.268 483.534l.01.048M203.278 483.581l.009.021M203.516 481.637l-.16.452M203.356 482.089l-.14.731M203.689 482.945l-.011.06M205.289 478.84l-.169.513M205.12 479.353l-.311.718M203.373 482.047v.001M203.186 483.037l.082.497M207.79 484.694l-.002.002M207.259 484.696l-.002-.002M204.62 483.261h-.129M204.374 483.261h-.104M204.492 483.261h-.117M204.072 483.471v.523M203.829 482.223l-.14.723M203.983 481.787l-.154.436M204.705 483.941h.108a.108.108 0 10-.216 0 .108.108 0 00.216 0h-.108zM204.661 483.85l.044.092M204.646 483.752l.015.098M204.661 483.654l-.015.098M204.705 483.564l-.045.091M204.705 483.564v-.001M207.202 483.408l-.025.344M207.176 483.752l.025.345M207.218 483.336l-.017.071M207.279 484.418l.051.195M207.202 484.097l.076.321M204.872 483.384l.062-.01M207.329 484.614l.038.082M207.218 484.168l-.687-.02M204.935 484.13l-.062-.009M204.872 484.121l-.057-.026M204.815 484.095l-.05-.042M204.765 484.053l-.038-.055M204.727 483.998l-.021-.057M204.705 483.941l-.003-.007M204.703 483.934l-.008-.068M204.695 483.865v-.226M204.695 483.639l.008-.068M204.703 483.57l.002-.007M204.705 483.563l.021-.056M204.727 483.507l.038-.056M204.765 483.451l.05-.041M204.815 483.41l.058-.026M206.531 484.149l-1.596-.02M205.735 483.366l-.8.008M205.432 483.261v.107M205.432 484.136v.561M215.393 485.604h5.343M215.393 484.696h5.343M220.736 485.604v-.907M203.392 488.664v-1.36M203.921 488.514v-1.059M204.223 488.514v-1.059M204.223 487.039h1.209M205.432 483.261h-1.209M202.711 485.604v-.907M204.072 485.604h3.816M209.855 484.696h-5.783M205.432 487.039v-1.436M205.735 486.095v-.491M206.301 486.095v-.491M205.735 484.206h1.493M218.07 484.696a1.89 1.89 0 110 .907M205.349 487.039a.34.34 0 11-.589 0M199.386 491.421h-30.205M169.181 491.421v-38.637M169.181 452.785h30.205M193.718 484.809a.944.944 0 11-1.889 0 .944.944 0 011.889 0zM186.403 469.316l-.372 1.396m0 0l-.792 1.208m0-.001l-1.133.899m0 .001l-1.357.496m0 0l-1.446.043m0 0l-1.384-.413m0 0l-1.185-.829m0 0l-.864-1.159m0 0l-.454-1.372m0 0v-1.446m0 0l.454-1.372m0 0l.864-1.159m0 0l1.185-.828m0 0l1.384-.414m0-.001l1.446.044m0 .001l1.357.495m0 0l1.133.898m0 0l.792 1.209m0 0l.372 1.397m0 0h5.538m0 0l-.108-.456m0 0l-.036-.489m0 0l.036-.489m0-.001l.108-.456m0 .001l.173-.391m0 0l.224-.3m0 0l.261-.189m0 0l.281-.064m0 0h.402m0 0l.12.019m0 0l.278.064m0 0l.104.054m0 0l.251.181m0 0l.07.078m0 0l.204.275m0 0l.157.356m0 0l.052.195m0 0l.06.25m0-.001l.687.02m0 .001l.796.01m0 0v-1.729m0 0h.435m0 0v-2.872m0 0l.059-.159m0 0l.148-.084m0 0l.167.034m0 0l.105.133m0 0l.157.485m0 0l.316.727m0 0l.573 1.007m0 0l.259.729m0 0h.124m0 0v-.605m0-.001h.982m0 0v2.57m0 .001h-.877m0 0l-.01.024m0 0l-.028.039m0 0l-.034.032m0 0l-.04.025m0-.001l-.673.279m0 .001v.697m0 0h1.361m0 0v-1.059m0 0h.301m0 0v3.024m0 0h-.301m0 0v-1.058m0 0h-1.361m0 0v1.436m0 0h-.151m0 0v.415m0 0h.303m0 0v-.151m0 0h.528m0 0v-.605m0 0h.982m0 0v2.57m0-.001h-.982m0 0v-.604m0 .001h-.528m0 0v-.152m0 0h-.303m0 0v.152m0 0h-1.512m0 0v-2.571m0 0h-2.153m0 0v-.022m0 0v-.06m0 0v-.093m0-.001v-.124m0 .001v-.149m0 0v-.042m0 0h-7.505M197.724 466.973v.209m0 0l.341-.14m0 0l.053-.326m0 0l-.002-.008m0 0h-.241m0 0v-.151m0 0h-.302m0 0v.416m0 0h.151M197.573 465.498h.241m0 0l-.24-.676m0 0l-.563-.988m0 0l-.024-.053m0 0v1.567m0 0h.586m0 0v.15M198.404 471.356h-.528M198.404 472.035h-.528M198.404 465.698v-.351M197.875 466.557v-.189M197.875 466.367v-.679M197.875 465.688v-.015M198.051 466.367h-.176M197.88 465.688h-.005M197.573 465.498v1.059M196.061 467.851v.558M196.987 465.348h-.491M195.495 467.917v.491M196.508 462.552l-.013-.076M198.612 466.702l-.002.046M198.579 466.531l.033.171M198.528 467.246l-.01.046M198.518 467.292l-.009.021M198.28 465.348l.16.453M198.44 465.801l.14.73M198.107 466.656l.011.06M196.508 462.552l.167.512M196.675 463.064l.312.718M198.423 465.758v.001M198.61 466.748l-.082.498M194.006 468.406l.002.003M194.536 468.409l.002-.003M197.176 466.973h.128M197.421 466.973h.104M197.304 466.973h.117M197.724 467.182v.523M197.967 465.935l.14.722M197.814 465.498l.153.437M197.09 467.652h.108a.108.108 0 10-.216 0 .108.108 0 00.216 0h-.108zM197.135 467.562l-.045.091M197.15 467.464l-.015.098M197.135 467.365l.015.099M197.09 467.275l.045.091M197.09 467.275v-.002M194.594 467.119l.026.345M194.621 467.464l-.026.345M194.578 467.047l.017.072M194.518 468.129l-.052.196M194.594 467.809l-.076.32M196.923 467.095l-.062-.009M194.466 468.325l-.037.084M194.578 467.88l.687-.02M196.862 467.842l.062-.01M196.923 467.832l.059-.026M196.982 467.806l.049-.042M197.031 467.764l.038-.055M197.069 467.709l.021-.057M197.09 467.652l.003-.006M197.093 467.646l.008-.068M197.101 467.577v-.227M197.101 467.35l-.008-.068M197.093 467.281l-.003-.007M197.09 467.273l-.021-.055M197.069 467.218l-.038-.055M197.031 467.163l-.049-.042M196.982 467.121l-.059-.026M195.265 467.861l1.597-.019M196.061 467.077l.801.009M196.364 466.973v.107M196.364 467.848v.561M186.403 469.316h-5.343M186.403 468.409h-5.343M181.06 469.316v-.907M198.404 472.376v-1.36M197.875 472.225v-1.059M197.573 472.225v-1.059M197.573 470.751h-1.209M196.364 466.973h1.209M199.084 469.316v-.907M197.724 469.316h-3.816M191.941 468.409h5.783M196.364 470.751v-1.436M196.061 469.806v-.49M195.495 469.806v-.49M196.061 467.917h-1.493M183.726 469.316a1.89 1.89 0 110-.907M197.037 470.751a.34.34 0 11-.59 0M136.094 452.785h32.496m0 0l.401.166m0-.001l.166.401m0 0v13.603m0 0l-.166.4m0 0l-.401.166m0 0h-32.496m0 0l-.4-.166m0 0l-.166-.4m0 0v-13.603m0 0l.166-.401m0 0l.4-.166M137.228 456.941h14.661m.907 0h14.661M168.024 457.508v8.313M167.457 466.388h-30.229M136.661 465.82v-8.312M167.457 456.941c.312 0 .566.254.566.567M168.024 465.82a.567.567 0 01-.566.567M137.228 466.388a.567.567 0 01-.566-.567M136.661 457.508c0-.313.254-.567.566-.567M153.098 459.826a.757.757 0 01-.302.604v-1.209a.755.755 0 01.302.605zm-.302.605v-1.209 1.209zm-.907 0a.757.757 0 010-1.21v1.21zM152.796 453.314h-.907m0 0v7.748m0 0l.256.301m0 0h.395m0 0l.256-.301m0 0v-7.748M151.587 453.314h1.511m0 0v-.265m0 0h-1.511m0 0v.265M151.209 453.049h2.267m.001 0v-.265m0 0h-2.267m-.001 0v.265M149.074 454.674v-1.625m0 0h.095m0 0v-.133m0 0h.283m0 0v-.132m0 0h-1.889m0 0v.132m0 0h.283m0 0v.133m0 0h.095m0 0v1.625m0 0h.321m0 0v.415m0 0h-1.077m0 0v.491m0 0h2.645m0 0v-.491m0 0h-1.076m0 0v-.415m0 0h.32M155.611 454.674v-1.625m0 0h-.094m0 0v-.133m0 0h-.283m0 0v-.132m0 0h1.889m0 0v.132m0 0h-.283m0 0v.133m0 0h-.095m0 0v1.625m0 0h-.322m0 0v.415m0 0h1.078m0 0v.491m0 0h-2.645m0 0v-.491m0 0h1.076m0 0v-.415m0 0h-.321M148.262 455.089l.071.072M148.753 455.089l-.072.072M148.262 454.674h.491M147.941 453.049h1.133M149.169 452.916h-1.323M156.423 455.089l-.071.072M155.932 455.089l.072.072M156.423 454.674h-.491M156.745 453.049h-1.134M155.517 452.916h1.322M148.753 455.335c0 .136-.11.245-.246.245a.244.244 0 01-.245-.245.245.245 0 11.491 0zM156.423 455.335a.244.244 0 01-.245.245.245.245 0 110-.491c.136 0 .245.11.245.246zM170.037 499.85l-1.646.469m0 0l-1.551.718m0 0l-1.23.968m-.001 0l-.943 1.248m.001 0l-.594 1.449m0 0l-.205 1.55m0 0l.205 1.551m0 0l.594 1.447m0 0l.943 1.249m-.001 0l1.23.968m.001 0l1.551.719m0 0l1.646.468m0 0l1.697.208m0 0l1.709-.06m-.001 0l11.585-1.223m.001 0v-10.654m0 0l-11.585-1.223m-.001 0l-1.709-.059m.001 0l-1.697.207M179.306 510.368v-4.116M179.306 506.252v-4.116M165.039 509.316a5.752 5.752 0 01-.887-3.063M171.869 512.564c-2.592.165-5.107-1.031-6.83-3.248M179.306 510.368c-2.253 1.506-4.828 2.266-7.437 2.195M171.869 499.941c2.608-.07 5.184.689 7.437 2.195M165.039 503.189c1.723-2.217 4.238-3.413 6.83-3.248M164.153 506.252a5.738 5.738 0 01.887-3.063M184.838 501.604h.19v9.296h-.19zM185.028 510.9v-9.295m0-.001h-.188m0 0v9.295m0 .001h.188M185.028 496.805v18.894M189.562 496.805v18.894M185.028 496.805h4.534M185.028 515.698h4.534M163.692 593.733l1.649-.456m0 0l1.558-.706m0-.001l1.237-.957m0 .001l.953-1.24m0 0l.606-1.444m0 0l.218-1.549m0 0l-.194-1.552m0 0l-.582-1.453m0 0l-.932-1.256m0 0l-1.222-.977m0 0l-1.546-.731m0 0l-1.641-.483m0 0l-1.696-.22m0 0l-1.71.045m0-.001l-11.594 1.128m0 .001l-.086 10.654m0 0l11.575 1.318m0 0l1.708.072m0-.001l1.699-.193M154.507 583.139l-.033 4.117M154.474 587.256l-.033 4.116M168.765 584.308a5.74 5.74 0 01.861 3.07M161.962 581.004c2.593-.145 5.099 1.072 6.803 3.304M154.507 583.139c2.266-1.487 4.847-2.227 7.455-2.135M161.86 593.627c-2.609.049-5.179-.731-7.419-2.256M168.716 590.434c-1.741 2.203-4.267 3.379-6.856 3.193M169.627 587.378a5.757 5.757 0 01-.911 3.057M148.716 591.857h.189l.075-9.294h-.189zM148.79 582.562l-.075 9.295m.001 0l.188.002m-.001 0l.076-9.296m0 0l-.189-.001M148.676 596.656l.153-18.893M144.142 596.618l.153-18.892M148.676 596.656l-4.534-.038M148.829 577.763l-4.534-.036M135.528 568.6v-38.92m0 0l.166-.401m0 0l.4-.166m0 0h13.604m0 0l.4.166m0 0l.166.401m0 0v38.92m0 0l-.166.4m0 0l-.4.166m0 0h-13.604m0 0l-.4-.166m0 0l-.166-.4M139.684 567.466v-17.873m0-.907v-17.873M140.251 530.246h8.313M149.131 530.813v36.653M148.564 568.032h-8.313M139.684 530.813c0-.312.254-.566.567-.566M148.564 530.246c.313 0 .567.254.567.566M149.131 567.466a.567.567 0 01-.567.566M140.251 568.032a.567.567 0 01-.567-.566M143.174 549.593a.757.757 0 01-1.21 0h1.21zm-1.209-.907a.757.757 0 011.21 0h-1.21zM136.057 548.686v.907m0 0h7.748m0 0l.301-.256m0 0v-.395m0 0l-.301-.256m0 0h-7.748M136.057 549.895v-1.511m0 0h-.265m0 0v1.511m0 0h.265M135.792 550.274v-2.268m0 0h-.265m0 0v2.268m0 0h.265M137.417 552.408h-1.625m0 0v-.095m0 0h-.133m0 0v-.283m0 0h-.132m0 0v1.889m0 0h.132m0 0v-.283m0 0h.133m0 0v-.095m0 0h1.625m0 0v-.321m0 0h.415m0 0v1.077m0 0h.491m0 0v-2.645m0 0h-.491m0 0v1.076m0 0h-.415m0 0v-.32M137.417 545.871h-1.625m0 0v.094m0 0h-.133m0 0v.284m0 0h-.132m0 0v-1.89m0 0h.132m0 0v.283m0 0h.133m0 0v.095m0 0h1.625m0 0v.322m0 0h.415m0 0v-1.078m0 0h.491m0 0v2.646m0 0h-.491m0 0v-1.077m0 0h-.415m0 0v.321M137.832 553.221l.072-.072M137.832 552.729l.072.072M137.417 553.221v-.492M135.792 553.541v-1.133M135.659 552.314v1.322M137.832 545.059l.072.071M137.832 545.55l.072-.072M137.417 545.059v.491M135.792 544.738v1.133M135.659 545.965v-1.322M138.324 552.975a.245.245 0 11-.491 0 .246.246 0 11.491 0zM138.324 545.304a.245.245 0 11-.491 0c0-.136.11-.245.246-.245s.245.109.245.245zM225.46 153.333h49.5m0 0v-18.515m0 0h-49.5m0 0v18.515M225.46 280.101h9.068m-.001 0v46.855m0 0h-9.068m.001 0v-46.855M216.723 603.778l4.028-.185m0 .001l3.994-.552m0-.001l3.928-.914m0 .001l3.827-1.271m0 0l3.696-1.615m0 0l2.219-1.388m0-.001l2.004-1.686m0 0l1.746-1.952m0 .001l.897-1.325m0 0l.66-1.459m0 0l.403-1.549m0-.001l.136-1.594m0 .001l-.136-1.595m0-.001l-.403-1.549m0 .001l-.66-1.459m0 0l-.897-1.325m0-.001l-1.746-1.951m0 .001l-2.004-1.687m0-.001l-2.219-1.387m0 0l-3.696-1.616m0 0l-3.827-1.27m0 .001l-3.928-.914m0 0l-3.994-.553m0-.001l-4.028-.184m0 .001l-4.028.184m0-.001l-3.994.553m0 .001l-3.928.914m0 0l-3.827 1.27m0-.001l-3.695 1.616m0 0l-2.22 1.387m0 0l-2.004 1.687m0 .001l-1.745 1.951m0-.001l-.898 1.325m0 .001l-.659 1.459m0 0l-.404 1.549m0-.001l-.136 1.595m0 .001l.136 1.594m0-.001l.404 1.549m0 .001l.659 1.459m0 0l.898 1.325m0 0l1.745 1.952m0-.001l2.004 1.686m0 0l2.22 1.388m0 .001l3.695 1.615m0 0l3.827 1.271m0 0l3.928.914m0-.001l3.994.552m0 .001l4.028.185M257.2 179.028h22.672m0 0v-22.672m0-.001H257.2m0 0v22.672M232.26 274.817v-19.271m0 0l-.221-.535m0 0l-.534-.221m0 0h-17.382m0 0l-.535.221m0 0l-.221.535m0 0v19.271m0 0l.221.534m0 0l.535.222m0 0h17.382m0 0l.534-.222m0 0l.221-.534M234.528 280.101v-29.84M211.856 280.101v-29.84M234.528 280.101h-22.672M234.528 250.261h-22.672M230.371 272.927v-15.492M229.616 256.679h-11.714M217.146 257.435v7.002m0 1.488v7.002M217.902 273.683h11.714M230.371 272.927h.108a.108.108 0 00-.108-.108.108.108 0 10.108.108h-.108zM229.616 256.679c.417 0 .756.339.756.756M217.146 257.435c0-.417.338-.756.756-.756M217.902 273.683a.755.755 0 01-.756-.756M230.371 272.927a.756.756 0 01-.756.756M221.979 265.521l.24-.1m0 0l.099-.241m0 0l-.101-.24m0 0l-.24-.099m0 0h-7.476m0 0l-.241.1m0 0l-.098.24m0 0l.098.24m0 0l.241.1m0 0h7.478M216.428 265.936v-.415m0 0h-1.927m0 0l-.241-.1m0 0l-.099-.24m0 0l.099-.24m0 0l.241-.1m0 0h1.927m0 0v-.415m0 0h-2.456m0 0v1.51m0 0h2.456M217.788 265.925v-.404m0 0h-1.322m.001 0v.404m0 0h1.322M217.788 264.437h-1.322m.001 0v.404m0 0h1.322m-.001 0v-.404M279.871 304.285H257.2m0 0v22.672m0-.001h22.672m-.001 0v-22.672M268.535 319.398v-7.556M271.207 318.292l-5.344-5.344M272.314 315.62h-7.557M271.207 312.948l-5.344 5.345M332.734 282.358v1.89m0-.001h73.382m0 0v-1.89m0 .001h-73.382M332.734 320.145h36.691m0 0v-26.451m0 0h-36.691m0 0v26.451M369.425 320.145h36.69m0 0v-26.451m0 0h-36.69m0 0v26.451M406.116 320.145h9.598m0 0v-37.787m0 0h-9.598m0 0v1.889m0 9.447v26.451M323.137 320.145h9.597m0 0v-26.452m0-9.447v-1.888m0 0h-9.597m0 0v37.787M369.425 284.247v9.446m0 0h41.489m0 0v-9.446m0 0h-41.489M369.425 284.247v9.446m0 0h-41.49m0 0v-9.446m0 0h41.49M387.86 442.727l-6.946-6.946M380.914 434.177l2.802-2.803M383.715 431.374l-1.603-1.603M382.113 429.772l17.634-17.635M399.747 412.137l1.603 1.604M401.35 413.74l1.473-1.472M404.426 412.268l6.946 6.947M409.77 420.818l-6.947-6.947M402.449 428.139l-6.947-6.947M383.715 431.374l17.635-17.634M387.86 442.727l6.947 6.947M396.411 449.674l2.802-2.803M399.212 446.871l1.604 1.604M400.816 448.475l17.634-17.634M418.45 430.841l-1.603-1.604M416.847 429.237l1.473-1.473M418.32 426.161l-6.947-6.946M409.77 420.818l6.946 6.946M402.449 428.139l6.947 6.946M399.212 446.871l17.635-17.634M380.914 435.781a1.134 1.134 0 010-1.604M402.823 412.268a1.134 1.134 0 011.604 0M402.823 413.87a1.135 1.135 0 010-1.603M395.501 421.191a1.136 1.136 0 010-1.604M396.411 449.674a1.136 1.136 0 01-1.604 0M418.32 426.161a1.136 1.136 0 010 1.604M418.32 427.765a1.136 1.136 0 01-1.604 0M410.998 435.085a1.133 1.133 0 01-1.603 0M257.2 304.285h-22.672m0 0v22.672m0-.001H257.2m0 0v-22.672M245.864 319.398v-7.556M248.536 318.292l-5.345-5.344M249.642 315.62h-7.557M248.536 312.948l-5.345 5.345M234.528 179.028H257.2m0 0v-22.672m0-.001h-22.672m0 0v22.672M228.18 238.925a7.18 7.18 0 11-14.361-.001 7.18 7.18 0 0114.361.001zM241.564 588.288c0 7.717-11.121 13.973-24.841 13.973-13.719 0-24.841-6.256-24.841-13.973 0-7.717 11.122-13.973 24.841-13.973 13.72 0 24.841 6.256 24.841 13.973z"/><path class="st2" d="M213.364 588.288a2.079 2.079 0 11-4.158-.002 2.079 2.079 0 014.158.002z"/><path class="st2" d="M241.564 588.288c0 7.717-11.121 13.973-24.841 13.973-13.719 0-24.841-6.256-24.841-13.973 0-7.717 11.122-13.973 24.841-13.973 13.72 0 24.841 6.256 24.841 13.973zM315.579 20.887a3.778 3.778 0 11-7.557.001 3.778 3.778 0 017.557-.001z"/><path class="st2" d="M312.934 20.887a1.134 1.134 0 11-2.267 0 1.134 1.134 0 012.267 0zM404.377 20.887a3.779 3.779 0 11-7.558 0 3.779 3.779 0 017.558 0z"/><path class="st2" d="M401.732 20.887a1.134 1.134 0 11-2.267.001 1.134 1.134 0 012.267-.001zM321.247 555.752a3.78 3.78 0 11-7.558-.002 3.78 3.78 0 017.558.002z"/><path class="st2" d="M318.603 555.752a1.134 1.134 0 11-2.269 0 1.134 1.134 0 012.269 0zM321.247 466.954a3.78 3.78 0 11-7.558-.002 3.78 3.78 0 017.558.002z"/><path class="st2" d="M318.603 466.954a1.134 1.134 0 11-2.269 0 1.134 1.134 0 012.269 0zM24.436 598.262a3.78 3.78 0 11-7.558-.002 3.78 3.78 0 017.558.002z"/><path class="st2" d="M21.791 598.262a1.133 1.133 0 11-2.265 0 1.133 1.133 0 012.265 0zM24.436 509.464a3.78 3.78 0 11-7.558-.002 3.78 3.78 0 017.558.002z"/><path class="st2" d="M21.791 509.464a1.134 1.134 0 11-2.267.001 1.134 1.134 0 012.267-.001zM327.765 386.281h-48.271m0 0v18.894m0-.001h48.271m0 0V386.28M423.27 386.281h-27.489m0 0v18.894m0-.001h27.489m0 0V386.28M391.371 383.295v1.02m0 0h-44.37m0 0v-1.02m0 0h44.37M381.909 384.315v.832m0 0l-.151.567m0 0l-.415.415m0 0l-.568.152m0 0h-22.698m0 0l-.567-.152m0 0l-.415-.415m0 0l-.152-.566m0 0v-.833m0 0h24.966M391.371 382.997v.298m0 0h-44.37m0 0v-.297m0 0l44.37-.001M11.21 408.196h22.672m0 0v58.569m0 .001H11.21m0 0v-58.569M22.924 466.766h-.756m0 0v-58.569m0 0h.756m0 0v58.569M12.865 412.223h18.626m0 0v.756m0 0H12.865m0 0v-.756M12.865 414.228h18.626m0 0v.756m0 0H12.865m0 0v-.756M12.865 416.233h18.626m0 0v.756m0 0H12.865m0 0v-.756M12.865 418.236h18.626m0 0v.756m0 0H12.865m0 0v-.756M13 422.483l18.49-2.241m0 0l.092.75m.001 0l-18.491 2.241m-.001 0l-.091-.75M90.562 519.855v68.016m0 0H14.99m0 0v-68.016m0 0h75.572M92.451 521.744v64.236m0 0l-.144.724m0 0l-.41.612m.001 0l-.613.41m-.001 0l-.723.144m.001 0v-68.016m0 0l.723.145m-.001 0l.613.409m.001 0l.41.613m-.001 0l.144.723M11.21 519.855v68.016m0 0h3.779m0 0v-68.016m0 0H11.21M11.21 587.87v-68.016m0 0h1.89m0 0v68.016m0 0h-1.89M11.21 589.76v17.004m0 0h18.894m0 0V589.76m0 0H11.21M11.21 517.966v-17.004m0 0h18.894m0 0v17.004m0 0H11.21M16.878 559.908v25.695m0 .001l.111.267m0-.001l.267.11m0 0h12.47m0 0l.267-.11m0 0l.111-.267m0 .001v-25.695m0-.001l-.111-.267m0 0l-.267-.111m0 0h-12.47m0 0l-.267.111m0 0l-.111.267M16.878 547.817v-25.694m0-.001l.111-.267m0 .001l.267-.111m0 0h12.47m0 0l.267.111m0 0l.111.267m0-.001v25.694m0 .001l-.111.268m0 0l-.267.11m0 0h-12.47m0 0l-.267-.11m0 0l-.111-.268M29.08 519.855v1.89M29.08 548.194v11.336M29.08 585.981v1.89M34.09 519.855v68.016m0 0h18.686m0 0l-14.908-68.016m0 0H34.09M322.192 90.792h68.016m0 0V15.219m0 0h-68.016m0 0v75.573M324.081 92.681h64.236m0 0l.724-.144m0 0l.612-.41m0 0l.41-.613m0 0l.144-.723m0 .001h-68.016m.001 0l.145.723m-.001-.001l.409.613m0 0l.613.41m0 0l.723.144M322.192 11.441h68.016m0 0v3.778m0 0h-68.016m0 0v-3.778M390.207 11.441h-68.016m.001 0v1.889m0 0h68.016m-.001 0v-1.889M392.097 11.441h17.004m0 0v18.893m0 0h-17.004m0 0V11.441M320.302 11.441h-17.004m0 0v18.893m0 0h17.004m0 0V11.441M362.246 17.109h25.694m-.001 0l.268.111m.001 0l.11.267m0 0v12.469m0 0l-.11.267m0-.001l-.268.111m-.001.001h-25.694m.001 0l-.268-.111m0-.001l-.11-.267m0 .001V17.487m0 0l.11-.267m0 0l.268-.111M350.154 17.109H324.46m0 0l-.268.111m0 0l-.11.267m0 0v12.469m0 0l.11.267m0-.001l.268.111m0 .001h25.694m0 0l.268-.111m0-.001l.11-.267m0 .001V17.487m0 0l-.11-.267m0 0l-.268-.111M322.192 29.31h1.89M350.532 29.31h11.336M388.318 29.31h1.89M322.192 34.319h68.016m0 0v18.686m0 0l-68.016-14.908m0 0v-3.778M220.485 244.933l.448-1.233m0 0v-1.313m0 0l-.448-1.232m0 0l.342-1.474m0 0v-1.512m0 0l-.342-1.473m0 0l.45-1.235m0 0v-1.314m0 0l-.45-1.235m0 0l2.987 2.232m0 0v7.558m0 0l-2.987 2.231M223.734 242.701v-7.558m0 .001h-.262m0 0v7.558m0-.001h.262M224.256 242.701v-7.558m0 .001h-.261m0 0v7.558m0-.001h.261M218.969 238.081l-.085.891m0 0l.226.022m0 0l.046-.477m0 0l1.142 1.383m0 0l.152-.126m0 0l-.53-.641m0 0l.081-.068m0 0l.611.74m0 0l.146-.121m0 0l-.61-.74m0 0l.097-.08m0 0l.496.602m0 0l.131-.108m0 0l-.497-.601m0 0l.098-.081m0 0l.342.415m0 0l.139-.116m0 0l-1.173-1.422M211.856 250.261v-22.672m0 0h22.672m0 0v22.672m0 0h-22.672M233.394 329.979h-21.538m0 0v75.195m0 0h21.538m0 0v-75.195M222.814 405.174h.756m0 0v-75.195m0 0h-.756m0 0v75.195M232.535 338.455h-18.626m0 0v.756m0 0h18.626m0 0v-.756M232.535 340.459h-18.626m0 0v.756m0 0h18.626m0 0v-.756M232.535 342.464h-18.626m0 0v.756m0 0h18.626m0 0v-.756M232.535 344.469h-18.626m0 0v.756m0 0h18.626m0 0v-.756M232.4 348.715l-18.491-2.241m0 0l-.091.75m0 0l18.491 2.241m0 0l.091-.75M303.488 452.785h-52.145m0 0v22.011m0 0h29.473m0 0v94.182m0-.001h22.672m0 0V452.785M291.774 568.978h.756m0 0V463.743m0 0l-.756.756m0 0v104.479M301.494 481.76h-18.626m.001 0v.756m0 0h18.626m-.001 0v-.756M301.494 483.764h-18.626m.001 0v.756m0 0h18.626m-.001 0v-.756M301.494 485.769h-18.626m.001 0v.756m0 0h18.626m-.001 0v-.756M301.494 487.774h-18.626m.001 0v.756m0 0h18.626m-.001 0v-.756M301.36 492.02l-18.491-2.242m0 0l-.091.751m0 0l18.491 2.241m0 0l.091-.75M291.774 464.498l.756-.756m0 0h-41.187m0 0v.756m0 0h40.431M387.373 477.346v68.015m0 0H311.8m0 0v-68.015m0 0h75.573M389.263 479.235v64.237m0 0l-.145.723m0-.001l-.409.613m0 .001l-.613.409m0 0l-.723.144m0 0v-68.015m0 0l.723.144m0 0l.613.409m0 0l.409.613m0 0l.145.723M308.022 477.346v68.015m0 0h3.778m0 0v-68.015m0 0h-3.778M308.022 545.361v-68.015m0 0h1.89m0 0v68.015m0 0h-1.89M308.022 547.25v17.004m0 0h18.894m0 0V547.25m0 0h-18.894M308.022 475.456v-17.004m0 0h18.894m0 0v17.004m0 0h-18.894M313.69 517.398v25.695m0 .001l.111.267m0 0l.267.111m0 0h12.47m0 0l.266-.111m0 0l.112-.267m0 0v-25.695m0-.001l-.112-.267m0 .001l-.266-.11m0-.001h-12.47m0 0l-.267.11m0 .001l-.111.267M313.69 505.307v-25.694m0 0l.111-.267m0 0l.267-.111m0 0h12.47m0 0l.266.111m0 0l.112.267m0 0v25.694m0 0l-.112.268m0 0l-.266.111m0 0h-12.47m0 0l-.267-.111m0 0l-.111-.268M325.892 477.346v1.889M325.892 505.686v11.336M325.892 543.472v1.889M330.901 477.346v68.015m0 0h18.687m0 0l-14.909-68.015m0 0h-3.778M11.21 489.438v-22.672m0 0h78.218m0 0v22.672m0 0H11.21M89.428 478.102v.755m0 0H11.21m0 0v-.755m0 0h78.218M65.399 468.908v18.627m0 0h-.756m0 0v-18.627m0 0h.756M63.394 468.908v18.627m0 0h-.756m0 0v-18.627m0 0h.756M61.389 468.908v18.627m0 0h-.756m0 0v-18.627m0 0h.756M59.385 468.908v18.627m0 0h-.756m0 0v-18.627m0 0h.756M55.139 469.044l2.241 18.491m0 0l-.75.091m0 0l-2.242-18.491m0 0l.751-.091M308.122 21.747l3.679-.86m0 0l1.584-3.431m0 0l-1.584 3.431m0 0l1.306 3.546M404.278 21.747l-3.679-.86m0 0l-1.584-3.431m0 0l1.584 3.431m0 0l-1.306 3.546M318.329 559.432l-.859-3.68m0 0l-3.431-1.584m0 0l3.431 1.584m0 0l3.545-1.306M318.329 463.275l-.859 3.68m0 0l-3.431 1.584m0 0l3.431-1.584m0 0l3.545 1.305M21.518 601.941l-.86-3.679m0 0l-3.431-1.584m0 0l3.431 1.584m0 0l3.546-1.306M21.518 505.784l-.86 3.68m0 0l-3.431 1.583m0 .001l3.431-1.583m0-.001l3.546 1.305M347.187 401.97l-1.187-.743m0 0l-.942-.94m0 0l-.4-.613m0 0l-.293-.711m0 0l-.151-.932m0 0l.089-.942m0 0l.339-.957m0 0l.596-.812m0 0l1.138-.78m0 0l1.182-.733m0 0l.755-.846m0 0l.45-1.042m0 0l.127-.948m0 0l-.043-.84m0 0l-.164-.828M348.683 389.303l.865.568m0 0l.763.689m0 0l.701.936m0 0l.38.906m0 0l.151.956m0 0l-.089.955m0 0l-.345.908m0 0l-.295.467M350.814 395.688l.415-.108m0 0l.426-.44m0 0l.246-.516m0 0l.052-.244M351.953 394.38l.771.985m0 0l.382 1.036m0 0l.127 1.11m0 0l-.068 1.235m0 0l-.156.587m-.001 0l-.275.543m0 0l-.824.845m0 0l-1.318.859m.001 0l-1.629.754M348.962 402.334l.597-.6m0 0l.863-1.209m0 0l.227-.459m0 0l.11-.489m0 0l-.141-.638m0 0l-.378-.579m0 0l-.697-.548m0 0l-.169-.426m0 0l-.014-.476m0 0l.151-.713m0 0l.606-.832M350.118 395.365l-.592.11m0 0l-.777.374m0 .001l-.665.567m0-.001l-.371.434m0 0l-.267.499m0 0l-.099.469m0 0l.03.791m0 0l.358.996M347.735 399.606l-.618-.601m0 0l-.293-.845m0 0l-.026-.711m0 0l.059-.281M346.857 397.167l-.693.451m0 0l-.469.528m0 0l-.221.65m0 0l.071.506m0 0l.213.475m0 0l.904 1.386m0 0l.525.807M330.789 386.281h37.786v1.89h-37.786zM330.789 386.281h37.786m0 0v1.89m0-.001h-37.786m0 0v-1.89M232.45 214.266V192.35m0 0h-18.516m0 0v21.916m0 0h18.516M221.169 203.308h-5.299M215.871 203.308v-1.096M221.169 203.308v-1.096M221.169 194.454h-5.299M215.871 195.55v-1.096M221.169 195.55v-1.096M221.043 209.554a2.739 2.739 0 11-5.479 0 2.739 2.739 0 115.479 0zM230.511 208.283a3.968 3.968 0 11-7.937-.001 3.968 3.968 0 017.937.001z"/><path class="st2" d="M228.81 208.283a2.267 2.267 0 11-4.534 0 2.267 2.267 0 014.534 0zM221.134 198.881a2.646 2.646 0 11-5.288 0 2.646 2.646 0 015.288 0zM230.481 197.764a3.4 3.4 0 11-6.802-.002 3.4 3.4 0 016.802.002zM234.528 227.589v-48.562M211.856 227.589v-48.562M234.528 227.589h-22.672M234.528 179.028h-22.672M384.92 208.865h3.028m.001 0v-.858m0 0v-17.176m0 0v-.86m0 0h-3.028M391.376 189.971h-3.427m0 0v.859m0 0h3.224m0 0v-.057m0 0l-.196-.294m0 0l.087-.343m0 0l.312-.165M393.734 190.773l-.196-.294m0 0l.087-.343m.001 0l.312-.165m0 0h-2.562m-.001 0l-.312.165m.001 0l-.087.343m0 0l.196.294m-.001 0v17.291m0 0l-.196.293m.001 0l.087.343m0 0l.312.165m-.001 0h2.562m.001 0l-.312-.165m0 0l-.087-.343m-.001 0l.196-.293m0 0v-17.291M391.376 208.865l-.312-.165m0 0l-.087-.342m0 0l.196-.294m0 0v-.057m0 0h-3.224m0 0v.858m0 0h3.427M394.141 207.201l.225-1.005V192.64l-.225-1.005zM394.14 191.635v15.566m0 0l.227-1.005m0 0V192.64m0 0l-.227-1.005M394.14 190.773l.197-.294m0 0l-.087-.343m0 0l-.312-.165m0 0l-.313.165m0 0l-.087.343m0 0l.197.294m0 0v17.291m0 0l-.197.293m0 0l.087.343m0 0l.313.165m0 0l.312-.165m0 0l.087-.343m0 0l-.197-.293m0 0v-17.291M384.92 230.781h3.028m.001 0v-.859m0 0v-17.175m0 0v-.859m0 0h-3.028M391.376 211.888h-3.427m0 0v.859m0 0h3.224m0 0v-.058m0 0l-.196-.294m0 0l.087-.342m0 0l.312-.165M393.734 212.689l-.196-.294m0 0l.087-.342m.001 0l.312-.165m0 0h-2.562m-.001 0l-.312.165m.001 0l-.087.342m0 0l.196.294m-.001 0v17.291m0 0l-.196.293m.001 0l.087.343m0 0l.312.165m-.001 0h2.562m.001 0l-.312-.165m0 0l-.087-.343m-.001 0l.196-.293m0 0v-17.291M391.376 230.781l-.312-.165m0 0l-.087-.342m0 0l.196-.294m0 0v-.058m0 0h-3.224m0 0v.859m0 0h3.427M394.141 229.118l.225-1.005v-13.556l-.225-1.005zM394.14 213.552v15.566m0 0l.227-1.005m0 0v-13.556m0 0l-.227-1.005M394.14 212.689l.197-.294m0 0l-.087-.342m0 0l-.312-.165m0 0l-.313.165m0 0l-.087.342m0 0l.197.294m0 0v17.291m0 0l-.197.293m0 0l.087.343m0 0l.313.165m0 0l.312-.165m0 0l.087-.343m0 0l-.197-.293m0 0v-17.291M350.912 208.865h-3.028m0 0v-.858m0 0v-17.176m0 0v-.86m0 0h3.028M344.457 189.971h3.427m0 0v.859m0 0h-3.224m0 0v-.057m0 0l.196-.294m0 0l-.087-.343m0 0l-.312-.165M342.098 190.773l.196-.294m0 0l-.086-.343m0 0l-.313-.165m0 0h2.562m0 0l.312.165m0 0l.087.343m0 0l-.196.294m0 0v17.291m0 0l.196.293m0 0l-.087.343m0 0l-.312.165m0 0h-2.562m0 0l.313-.165m0 0l.086-.343m0 0l-.196-.293m0 0v-17.291M344.457 208.865l.312-.165m0 0l.087-.342m0 0l-.196-.294m0 0v-.057m0 0h3.224m0 0v.858m0 0h-3.427M341.466 192.64v13.556l.226 1.005v-15.566zM341.693 191.635v15.566m0 0l-.227-1.005m-.001 0V192.64m0 0l.227-1.005M341.693 190.773l-.196-.294m-.001 0l.086-.343m.001 0l.313-.165m-.001 0l.313.165m0 0l.086.343m.001 0l-.196.294m-.001 0v17.291m0 0l.196.293m.001 0l-.086.343m-.001 0l-.313.165m0 0l-.313-.165m.001 0l-.086-.343m-.001 0l.196-.293m.001 0v-17.291M350.912 230.781h-3.028m0 0v-.859m0 0v-17.175m0 0v-.859m0 0h3.028M344.457 211.887l.313.166.087.343-.197.294v.056h3.224v-.859zM344.457 211.888h3.427m0 0v.859m0 0h-3.224m0 0v-.058m0 0l.196-.294m0 0l-.087-.342m0 0l-.312-.165M342.098 212.689l.196-.294m0 0l-.086-.342m0 0l-.313-.165m0 0h2.562m0 0l.312.165m0 0l.087.342m0 0l-.196.294m0 0v17.291m0 0l.196.293m0 0l-.087.343m0 0l-.312.165m0 0h-2.562m0 0l.313-.165m0 0l.086-.343m0 0l-.196-.293m0 0v-17.291M344.457 230.781l.312-.165m0 0l.087-.342m0 0l-.196-.294m0 0v-.058m0 0h3.224m0 0v.859m0 0h-3.427M341.466 214.557v13.556l.226 1.005v-15.566zM341.693 213.552v15.566m0 0l-.227-1.005m-.001 0v-13.556m0 0l.227-1.005M341.693 212.689l-.196-.294m-.001 0l.086-.342m.001 0l.313-.165m-.001 0l.313.165m0 0l.086.342m.001 0l-.196.294m-.001 0v17.291m0 0l.196.293m.001 0l-.086.343m-.001 0l-.313.165m0 0l-.313-.165m.001 0l-.086-.343m-.001 0l.196-.293m.001 0v-17.291M384.92 233.804h3.028m.001 0v.859m0 0v17.176m0 .001v.858m0-.001h-3.028M391.376 252.698h-3.427m0 0v-.858m0 0h3.224m0 0v.057m0 0l-.196.294m0 0l.087.342m0 0l.312.165M393.734 251.896l-.196.294m0 0l.087.342m.001 0l.312.165m0 0h-2.562m-.001 0l-.312-.165m.001 0l-.087-.342m0 0l.196-.294m-.001 0v-17.291m0 0l-.196-.293m.001 0l.087-.343m0 0l.312-.165m-.001 0h2.562m.001 0l-.312.165m0 0l-.087.343m-.001 0l.196.293m0 0v17.291M391.376 233.804l-.312.165m0 0l-.087.342m0 .001l.196.294m0-.001v.058m0 0h-3.224m0 0v-.859m0 0h3.427M394.141 251.033l.225-1.004v-13.556l-.225-1.006zM394.14 251.034v-15.566m0 0l.227 1.005m0 0v13.556m0 0l-.227 1.005M394.14 251.896l.197.294m0 0l-.087.342m0 0l-.312.165m0 0l-.313-.165m0 0l-.087-.342m0 0l.197-.294m0 0v-17.291m0 0l-.197-.293m0 0l.087-.343m0 0l.313-.165m0 0l.312.165m0 0l.087.343m0 0l-.197.293m0 0v17.291M350.912 233.804h-3.028m0 0v.859m0 0v17.176m0 .001v.858m0-.001h3.028M344.457 252.698h3.427m0 0v-.858m0 0h-3.224m0 0v.057m0 0l.196.294m0 0l-.087.342m0 0l-.312.165M342.098 251.896l.196.294m0 0l-.086.342m0 0l-.313.165m0 0h2.562m0 0l.312-.165m0 0l.087-.342m0 0l-.196-.294m0 0v-17.291m0 0l.196-.293m0 0l-.087-.343m0 0l-.312-.165m0 0h-2.562m0 0l.313.165m0 0l.086.343m0 0l-.196.293m0 0v17.291M344.457 233.804l.312.165m0 0l.087.342m0 .001l-.196.294m0-.001v.058m0 0h3.224m0 0v-.859m0 0h-3.427M341.466 236.472v13.557l.226 1.004v-15.565zM341.693 251.034v-15.566m0 0l-.227 1.005m-.001 0v13.556m0 0l.227 1.005M341.693 251.896l-.196.294m-.001 0l.086.342m.001 0l.313.165m-.001 0l.313-.165m0 0l.086-.342m.001 0l-.196-.294m-.001 0v-17.291m0 0l.196-.293m.001 0l-.086-.343m-.001 0l-.313-.165m0 0l-.313.165m.001 0l-.086.343m-.001 0l.196.293m.001 0v17.291M350.913 261.01h34.007m0 0v-79.351m0 0h-34.007m0 0v79.351"/></g></g><g id="walls_2_"><path d="M423.518 231.19h23.806v45.339h-23.806V231.19h0zM201.902 399.901V.5h10.202v407.714h-21.821v-6.801h.453v-1.512h11.166zM.5 632.476v-23.805h28.152v23.805H.5h0zm0-224.262v-8.313h150.788v1.512h.452v6.801H.5h0zm423.018-381.07h23.806V.5h-23.806v26.644h0zM168.461 632.476h-56.68v-23.805h56.68v23.805h0zm66.126-23.805h81.24v23.805h-81.24v-23.805h0zm122.805 0h30.607v23.805h-30.607v-23.805h0zm66.126-249.012h23.806v115.814h-23.806V359.659h0zm0-249.385h23.806v54.79h-23.806v-54.79z" fill-rule="evenodd" clip-rule="evenodd" stroke="#000" stroke-linecap="round" stroke-linejoin="round" stroke-miterlimit="3"/><path class="st4" d="M313.875 140.784c1.813 4.815 2.332 7.432 2.595 12.566"/><path class="st5" d="M313.85 140.692l-29.272 12.658v1.512h.453l29.42-12.783z"/><path class="st4" d="M264.15 55.499c4.296-1.602 6.477-2.033 11.057-2.266"/><path class="st5" d="M264.048 55.543l11.159 25.803h1.511v-.453l-11.282-25.95z"/><path class="st4" d="M295.323 442.365c-4.872 1.819-7.366 2.312-12.559 2.577M187.515 384.352c2.248 6.027 2.892 9.125 3.22 15.55"/><path class="st5" d="M187.495 384.243l-36.207 15.658v1.512h.452l36.355-15.782z"/><g><path class="st4" d="M121.69 501.243c4.296 1.602 6.484 2.034 11.062 2.269"/><path class="st5" d="M121.594 501.202l1.388.6 11.282-25.95v-.453l-1.512-.001z"/><g><path class="st4" d="M120.186 442.74c4.872 1.818 7.374 2.315 12.566 2.581"/><path class="st5" d="M120.094 442.7l1.442.531 12.731-29.459-.003-.343h-1.512zM295.423 442.322l-12.659-29.271h-1.511v.453l12.781 29.419z"/><path class="st4" d="M237.507 558.868c3.105 1.378 7.284 2.188 11.061 2.268"/><path class="st5" d="M237.41 558.826l1.386.6 11.283-25.95v-.453l-1.518.004z"/></g></g><path class="st0" d="M.5 408.214h10.958v200.457H.5V408.214zM423.518.5v10.958H278.229v40.717h.001v1.512h-1.512v-.454h-1.51v-1.058h-.001V11.458h-63.103V.5h211.414zm-105.99 152.85h105.99v3.023H316.016v-1.511h.454v-1.512h1.058zM135.776 526.108v-23.05h-1.512v.454h-1.511l-.001 105.159h3.023v-36.464h10.203v36.464h3.023v-39.488l-13.226.001.001-40.053h66.882l.001-76.329h45.91v80.221h1.511v.453h1.512v-80.674h52.145v116.193h3.023V449.78h-23.995l-.001-4.838h-1.51v-.453h-1.512l.001 5.291H135.776l-.001-3.402h.001v-1.511h-1.512v.453h-1.511l-.001 1.058.001 29.021h1.511v.453h1.512v-23.05h63.859v38.636h-14.359v34.67h-49.5zm63.859-31.648v14.266h-11.336V494.46h11.336zm0 17.289v14.359h-11.336v-14.359h11.336zm26.072-228.606v43.831h54.411v3.023h-68.015v-3.023h10.581v-43.831h-10.58v-3.023h13.603v3.023zm25.884 279.051v46.477h-3.023v-47.535h1.511v-.454h1.512v1.512zm-39.487-157.003h21.538v3.022h-21.538v-3.022zm-79.351 7.18v1.058h1.511v.453h1.512v-5.668h-3.023v4.157zm146.989-7.179l-.001 8.312h1.512v-.453h1.51l.001-4.837h140.754v-3.022h-18.421v-21.161h-43.832v21.161h-81.523zm84.546-15.871h37.786v15.871h-37.786v-15.871zM222.684 118.965h-10.58v-3.023h10.58V74.939h-10.58v-3.023h13.603l-.001 81.434h49.5V82.404h.001v-1.058h1.51v-.453h1.512v1.511h-.001v70.946h6.349v1.512h.453v1.511h-72.927v-3.023h10.58v-34.385z"/><g><path class="st4" d="M357.392 624.919v-16.248M357.392 632.476v-5.668M357.392 626.808v-1.889M315.828 624.919v-16.248M315.828 632.476v-5.668M315.828 626.808v-1.889M315.828 632.476h41.563M315.828 608.671h41.563M315.828 624.919h3.778M319.606 624.919v1.89M319.606 626.808h-3.778M329.052 626.808h-1.889M327.163 626.808v-1.889M327.163 624.919h1.889M319.606 625.863h7.558M319.606 624.919h7.558M327.163 626.808h-7.558M329.052 624.919h.945M329.997 624.919v.944M329.997 625.863h.944M330.942 625.863v.945M330.942 626.808h-1.89M357.392 626.808h-3.778M353.614 626.808v-.944M353.614 625.863h.944M354.558 625.863v-.944M354.558 624.919h2.834M353.614 626.808h-22.672M332.832 623.974h18.892M329.997 623.974h2.835M332.832 623.974v1.89M332.832 625.863h-2.835M329.997 625.863v-1.89M354.558 625.863h-2.834M351.724 625.863v-1.89M351.724 623.974h2.834M354.558 623.974v1.89M351.724 625.863h-18.893M332.832 623.974h18.892M332.832 624.919h18.892M315.828 626.808v-1.889M315.828 626.808v-1.889M315.828 632.476v-5.668M315.828 624.919v-16.248M357.392 626.808v-1.889M357.392 626.808v-1.889M357.392 632.476v-5.668M357.392 624.919v-16.248"/><g><path class="st4" d="M234.587 624.919v-16.248M234.587 632.476v-5.668M234.587 626.808v-1.889M168.46 624.919v-16.248M168.46 632.476v-5.668M168.46 626.808v-1.889M168.46 632.476h66.127M168.46 608.671h66.127M168.46 624.919h3.779M172.24 624.919v1.89M172.24 626.808h-3.779M206.247 626.808h-1.89M204.358 626.808v-1.889M204.358 624.919h1.89M172.24 625.863h32.118M172.24 624.919h32.118M204.358 626.808H172.24M206.247 624.919h.945M207.192 624.919v.944M207.192 625.863h.944M208.136 625.863v.945M208.136 626.808h-1.889M234.587 626.808h-3.779M230.808 626.808v-.944M230.808 625.863h.945M231.753 625.863v-.944M231.753 624.919h2.834M230.808 626.808h-22.672M210.026 623.974h18.894M207.192 623.974h2.834M210.026 623.974v1.89M210.026 625.863h-2.834M207.192 625.863v-1.89M231.753 625.863h-2.834M228.919 625.863v-1.89M228.919 623.974h2.834M231.753 623.974v1.89M228.919 625.863h-18.894M210.026 623.974h18.894M210.026 624.919h18.894M168.46 626.808v-1.889M168.46 626.808v-1.889M168.46 632.476v-5.668M168.46 624.919v-16.248M234.587 626.808v-1.889M234.587 626.808v-1.889M234.587 632.476v-5.668M234.587 624.919v-16.248"/></g><g><path class="st4" d="M28.652 624.919v-16.248M28.652 632.476v-5.668M28.652 626.808v-1.889M111.782 624.919v-16.248M111.782 632.476v-5.668M111.782 626.808v-1.889M111.782 632.476h-83.13M111.782 608.671h-83.13M111.782 624.919h-3.778M108.003 624.919v1.89M108.003 626.808h3.778M56.992 626.808h1.889M58.88 626.808v-1.889M58.88 624.919h-1.889M108.003 625.863H58.88M108.003 624.919H58.88M58.88 626.808h49.123M56.992 624.919h-.945M56.046 624.919v.944M56.046 625.863h-.944M55.102 625.863v.945M55.102 626.808h1.89M28.652 626.808h3.778M32.43 626.808v-.944M32.43 625.863h-.944M31.486 625.863v-.944M31.486 624.919h-2.834M32.43 626.808h22.672M53.212 623.974H34.319M56.046 623.974h-2.834M53.212 623.974v1.89M53.212 625.863h2.834M56.046 625.863v-1.89M31.486 625.863h2.834M34.32 625.863v-1.89M34.32 623.974h-2.834M31.486 623.974v1.89M34.32 625.863h18.893M53.212 623.974H34.319M53.212 624.919H34.319M111.782 626.808v-1.889M111.782 626.808v-1.889M111.782 632.476v-5.668M111.782 624.919v-16.248M28.652 626.808v-1.889M28.652 626.808v-1.889M28.652 632.476v-5.668M28.652 624.919v-16.248"/></g><g><path class="st4" d="M387.999 624.919v-16.248M387.999 632.476v-5.668M387.999 626.808v-1.889M387.999 632.476h59.324M387.999 608.671h35.519M387.999 624.919h4.724M392.723 624.919v1.89M392.723 626.808h-4.724M439.767 626.808h-4.724M435.043 626.808v-1.889M435.043 624.919h4.724M441.656 626.808h-1.889M392.723 624.919h42.32M435.043 626.808h-42.32M387.999 626.808v-1.889M387.999 626.808v-1.889M387.999 632.476v-5.668M387.999 624.919v-16.248M439.767 475.474h-16.249M447.324 475.474h-5.668M441.656 475.474h-1.889M447.324 475.474v157.002M423.518 475.474v133.197M439.767 475.474v4.724M439.767 480.197h1.889M441.656 480.197v-4.724M441.656 624.919v-4.724M441.656 620.195h-1.889M439.767 620.195v4.724M441.656 626.808v-1.889M439.767 480.197v139.998M441.656 620.195V480.198M441.656 475.474h-1.889M441.656 475.474h-1.889M447.324 475.474h-5.668M439.767 475.474h-16.249"/></g><g><path class="st4" d="M439.767 165.064h-16.249M447.324 165.064h-5.668M441.656 165.064h-1.889M439.767 231.191h-16.249M447.324 231.191h-5.668M441.656 231.191h-1.889M447.324 231.191v-66.127M423.518 231.191v-66.127M439.767 231.191v-3.778M439.767 227.412h1.889M441.656 227.412v3.778M441.656 200.017v1.89M441.656 201.906h-1.889M439.767 201.906v-1.89M440.711 227.412v-25.506M439.767 227.412v-25.506M441.656 201.906v25.506M439.767 200.017v-.944M439.767 199.072h.944M440.711 199.072v-.945M440.711 198.127h.944M441.656 198.127v1.89M441.656 165.064v3.779M441.656 168.843h-.944M440.711 168.843v-.944M440.711 167.899h-.944M439.767 167.899v-2.835M441.656 168.843v29.284M438.822 196.238v-25.506M438.822 199.072v-2.834M438.822 196.238h1.89M440.711 196.238v2.834M440.711 199.072h-1.89M440.711 167.899v2.833M440.711 170.732h-1.89M438.822 170.732v-2.833M438.822 167.899h1.89M440.711 170.732v25.507M438.822 196.238v-25.506M439.767 196.238v-25.506M441.656 231.191h-1.889M441.656 231.191h-1.889M447.324 231.191h-5.668M439.767 231.191h-16.249M441.656 165.064h-1.889M441.656 165.064h-1.889M447.324 165.064h-5.668M439.767 165.064h-16.249"/><g><path class="st4" d="M439.767 359.659h-16.249M447.324 359.659h-5.668M441.656 359.659h-1.889M439.767 276.529h-16.249M447.324 276.529h-5.668M441.656 276.529h-1.889M447.324 276.529v83.13M423.518 276.529v83.13M439.767 276.529v3.778M439.767 280.308h1.889M441.656 280.308v-3.778M441.656 316.205v-1.89M441.656 314.315h-1.889M439.767 314.315v1.891M440.711 280.308v34.008M439.767 280.308v34.008M441.656 314.315v-34.007M439.767 316.205v.944M439.767 317.15h.944M440.711 317.15v.943M440.711 318.094h.944M441.656 318.094v-1.889M441.656 359.659v-3.779M441.656 355.88h-.944M440.711 355.88v.945M440.711 356.825h-.944M439.767 356.825v2.834M438.822 356.825l-28.055-28.055M441.656 355.88v-37.786M438.822 319.984v34.007M438.822 317.15v2.834M438.822 319.984h1.89M440.711 319.984v-2.834M440.711 317.15h-1.89M440.711 356.825v-2.834M440.711 353.991h-1.89M438.822 353.991v2.834M438.822 356.825h1.89M440.711 353.991v-34.008M438.822 319.984v34.007M439.767 319.984v34.007M410.767 328.771a39.677 39.677 0 0128.055-11.621M441.656 276.529h-1.889M441.656 276.529h-1.889M447.324 276.529h-5.668M439.767 276.529h-16.249M441.656 359.659h-1.889M441.656 359.659h-1.889M447.324 359.659h-5.668M439.767 359.659h-16.249"/></g><g><path class="st4" d="M439.767 110.274h-16.249M447.324 110.274h-5.668M441.656 110.274h-1.889M439.767 27.145h-16.249M447.324 27.145h-5.668M441.656 27.145h-1.889M447.324 27.145v83.129M423.518 27.145v83.129M439.767 27.145v3.778M439.767 30.923h1.889M441.656 30.923v-3.778M441.656 66.82v-1.889M441.656 64.931h-1.889M439.767 64.931v1.889M440.711 30.923v34.008M439.767 30.923v34.008M441.656 64.931V30.923M439.767 66.82v.945M439.767 67.765h.944M440.711 67.765v.944M440.711 68.709h.944M441.656 68.709V66.82M441.656 110.274v-3.778M441.656 106.496h-.944M440.711 106.496v.944M440.711 107.44h-.944M439.767 107.44v2.834M438.822 67.765L410.767 95.82M441.656 106.496V68.709M438.822 70.599v34.008M438.822 67.765v2.834M438.822 70.599h1.89M440.711 70.599v-2.834M440.711 67.765h-1.89M440.711 107.44v-2.833M440.711 104.606h-1.89M438.822 104.606v2.834M438.822 107.44h1.89M440.711 104.606V70.599M438.822 70.599v34.008M439.767 70.599v34.008M438.822 107.44a39.676 39.676 0 01-28.055-11.621M441.656 27.145h-1.889M441.656 27.145h-1.889M447.324 27.145h-5.668M439.767 27.145h-16.249M441.656 110.274h-1.889M441.656 110.274h-1.889M447.324 110.274h-5.668M439.767 110.274h-16.249"/></g><g><path class="st4" d="M447.324 165.064v-54.79M447.324 25.973h40.998m0 0v209.369m0 0h-40.998m0 0V25.973M486.905 233.453h-39.581m0 0V27.895m0 0h39.581m0 0v205.558"/></g><g><path class="st4" d="M447.324 259.148h40.998m0 0v120.916m0 0h-40.998m0 0V259.148M486.433 378.16h-39.109m0 0V261.037m0 0h39.109m0 0V378.16"/></g></g><g><path class="st6" d="M439.81 521.528h1.89v5.133h-1.89zM439.81 564.035h1.89v5.133h-1.89z"/></g></g><g><path class="st7" d="M214.036.488l-1.78 1.57M221.466.488l-9.21 8.11M228.886.488l-12.44 10.96M236.306.488l-12.44 10.96M243.726.488l-12.44 10.96M251.146.488l-12.44 10.96M258.576.488l-12.45 10.96M265.996.488l-12.44 10.96M273.416.488l-12.44 10.96M280.846.488l-12.45 10.96M288.266.488l-12.91 11.37M278.376 15.728l-3.02 2.66M295.676.488l-12.44 10.96M214.606 71.908l-2.35 2.07M278.376 22.268l-3.02 2.66M303.106.488l-12.44 10.96M222.026 71.908l-3.42 3.02M278.376 28.808l-3.02 2.66M310.526.488l-12.44 10.96M225.856 75.078l-3.02 2.66M278.376 35.348l-3.02 2.66M317.956.488l-12.44 10.96M225.856 81.618l-3.02 2.66M278.376 41.888l-3.02 2.66M325.376.488l-12.44 10.96M225.856 88.158l-3.02 2.66M332.796.488l-12.44 10.96M278.376 48.428l-3.02 2.66M225.856 94.698l-3.02 2.66M340.216.488l-12.44 10.96M225.856 101.228l-3.02 2.66M347.636.488l-12.44 10.96M225.856 107.768l-3.02 2.66M216.586 115.938l-3.43 3.02M355.066.488l-12.45 10.96M225.856 114.308l-5.28 4.65M362.486.488l-12.44 10.96M225.856 120.848l-3.02 2.66M369.906.488l-12.44 10.96M278.376 81.118l-3.02 2.66M225.856 127.388l-3.02 2.66M377.336.488l-12.45 10.96M225.856 133.928l-3.02 2.66M278.376 87.658l-3.02 2.66M384.756.488l-12.44 10.96M225.856 140.468l-3.02 2.66M278.376 94.198l-3.02 2.66M392.166.488l-12.44 10.96M225.856 146.998l-3.02 2.66M278.376 100.728l-3.02 2.66M218.656 153.338l-3.44 3.03M399.596.488l-12.44 10.96M226.086 153.338l-3.44 3.03M278.376 107.278l-3.02 2.66M407.016.488l-12.44 10.96M233.506 153.338l-3.44 3.03M278.376 113.808l-3.02 2.66M414.446.488l-12.44 10.96M240.926 153.338l-3.44 3.03M278.376 120.348l-3.02 2.66M421.866.488l-12.44 10.96M248.356 153.338l-3.44 3.03M278.376 126.888l-3.02 2.66M423.666 5.448l-6.82 6M255.776 153.338l-3.44 3.03M278.376 133.428l-3.02 2.66M263.196 153.338l-3.44 3.03M278.376 139.968l-3.02 2.66M270.616 153.338l-3.44 3.03M278.376 146.498l-3.02 2.67M278.376 153.038l-3.78 3.33M284.726 153.988l-2.7 2.38M3.566 408.208l-2.92 2.57M10.986 408.208l-10.34 9.11M11.606 414.198l-10.96 9.65M11.606 420.738l-10.96 9.65M322.576 153.338l-3.44 3.03M11.606 427.278l-10.96 9.65M11.606 433.818l-10.96 9.65M329.996 153.338l-3.44 3.03M11.606 440.358l-10.96 9.65M337.416 153.338l-3.43 3.03M11.606 446.888l-10.96 9.66M344.846 153.338l-3.44 3.03M11.606 453.438l-10.96 9.65M352.266 153.338l-3.44 3.03M11.606 459.968l-10.96 9.66M215.776 280.108l-3.44 3.03M359.686 153.338l-3.44 3.03M223.196 280.108l-3.43 3.03M11.606 466.508l-10.96 9.65M367.106 153.338l-3.44 3.03M225.856 284.308l-3.02 2.66M11.606 473.048l-10.96 9.65M374.526 153.338l-3.44 3.03M225.856 290.848l-3.02 2.66M11.606 479.578l-10.96 9.66M381.956 153.338l-3.44 3.03M225.856 297.388l-3.02 2.66M11.606 486.128l-10.96 9.65M389.376 153.338l-3.44 3.03M225.856 303.928l-3.02 2.66M11.606 492.668l-10.96 9.65M396.806 153.338l-3.44 3.03M225.856 310.458l-3.02 2.66M11.606 499.198l-10.96 9.65M404.216 153.338l-3.44 3.03M225.856 316.998l-3.02 2.66M214.536 326.968l-2.28 2.01M11.606 505.738l-10.96 9.65M411.636 153.338l-3.44 3.03M221.966 326.968l-3.43 3.02M225.856 323.538l-3.02 2.66M11.606 512.278l-10.96 9.65M419.066 153.338l-3.44 3.03M423.666 155.828l-.62.54M11.606 518.818l-10.96 9.65M135.926 409.298l-3.02 2.66M229.386 326.968l-3.43 3.02M11.606 525.358l-10.96 9.65M236.806 326.968l-3.42 3.02M11.606 531.888l-10.96 9.66M244.236 326.968l-3.43 3.02M11.606 538.438l-10.96 9.65M251.656 326.968l-3.43 3.02M11.606 544.968l-10.96 9.66M259.076 326.968l-3.43 3.02M11.606 551.508l-10.96 9.65M266.496 326.968l-3.43 3.02M11.606 558.048l-10.96 9.65M135.926 448.528l-3.02 2.66M273.916 326.968l-3.43 3.02M280.266 327.918l-2.35 2.07M11.606 564.578l-10.96 9.66M141.946 449.768l-3.44 3.03M135.926 455.068l-3.02 2.66M11.606 571.128l-10.96 9.65M149.366 449.768l-3.44 3.03M135.926 461.608l-3.02 2.66M11.606 577.658l-10.96 9.66M156.786 449.768l-3.44 3.03M135.926 468.148l-3.02 2.66M11.606 584.198l-10.96 9.65M135.926 474.678l-1.33 1.17M164.206 449.768l-3.44 3.03M11.606 590.738l-10.96 9.65M171.626 449.768l-3.44 3.03M11.606 597.278l-10.96 9.66M179.056 449.768l-3.44 3.03M11.606 603.818l-5.5 4.84M186.476 449.768l-3.44 3.03M193.896 449.768l-3.44 3.03M201.326 449.768l-3.44 3.03M135.926 507.378l-3.02 2.66M135.926 513.908l-3.02 2.66M202.806 454.998l-3.02 2.66M208.736 449.768l-3.44 3.03M135.926 520.448l-3.02 2.66M202.806 461.538l-3.02 2.66M216.166 449.768l-3.44 3.03M136.936 526.098l-4.03 3.55M202.806 468.078l-3.02 2.66M223.586 449.768l-3.44 3.03M281.616 405.188l-1.72 1.51M144.356 526.098l-3.42 3.02M202.806 474.608l-3.02 2.66M135.926 533.528l-3.02 2.66M231.006 449.768l-3.44 3.03M238.436 449.768l-3.44 3.03M135.926 540.068l-3.02 2.66M202.806 481.148l-3.02 2.66M191.136 491.428l-5.71 5.03M151.786 526.098l-3.43 3.02M282.916 410.578l-3.02 2.66M289.036 405.188l-3.43 3.02M245.856 449.768l-3.44 3.03M135.926 546.608l-3.02 2.66M188.446 500.348l-3.02 2.66M202.806 487.698l-3.02 2.66M198.566 491.428l-3.43 3.02M159.206 526.098l-3.42 3.02M296.466 405.188l-3.43 3.02M253.276 449.768l-4.56 4.02M135.926 553.148l-3.02 2.66M188.446 506.878l-3.02 2.66M202.806 494.228l-3.02 2.66M166.636 526.098l-3.43 3.02M303.886 405.188l-3.43 3.02M260.696 449.768l-3.44 3.03M174.046 526.098l-3.43 3.02M202.806 500.768l-3.02 2.66M188.446 511.738h11.34v14.36h-11.34zM188.446 513.418l-3.02 2.66M193.776 508.718l-3.43 3.02M135.926 559.678l-3.02 2.66M251.746 457.648l-3.03 2.67M311.306 405.188l-3.43 3.02M268.116 449.768l-3.44 3.03M181.466 526.098l-3.42 3.02M202.806 507.308l-5.03 4.43M188.446 519.948l-3.02 2.67M135.926 566.218l-3.02 2.66M251.746 464.188l-3.03 2.67M318.726 405.188l-3.43 3.02M275.546 449.768l-3.44 3.03M188.896 526.098l-3.43 3.02M202.806 513.838l-3.02 2.66M135.926 572.758l-3.02 2.66M139.986 569.178l-3.43 3.02M251.746 470.728l-3.03 2.67M281.406 444.598l-1.51 1.33M326.146 405.188l-3.43 3.02M282.966 449.768l-3.44 3.03M196.316 526.098l-3.42 3.02M202.806 520.388l-3.02 2.66M135.926 579.298l-3.02 2.66M147.416 569.178l-3.43 3.02M251.746 477.268l-3.03 2.67M333.576 405.188l-3.43 3.02M365.026 384.018l-3.61 3.18M290.386 449.768l-3.44 3.03M149.156 574.188l-3.03 2.66M135.926 585.838l-3.02 2.66M202.806 526.918l-2.49 2.2M251.746 483.808l-3.03 2.67M340.996 405.188l-3.43 3.02M364.436 391.078l-3.02 2.66M297.816 449.768l-3.44 3.03M149.156 580.718l-3.03 2.67M135.926 592.378l-3.02 2.66M251.746 490.348l-3.03 2.67M348.416 405.188l-3.43 3.02M372.456 384.018l-6.01 5.29M364.436 397.608l-3.02 2.66M305.226 449.768l-3.44 3.03M149.156 587.258l-3.03 2.67M135.926 598.908l-3.02 2.66M251.746 496.878l-3.03 2.67M355.836 405.188l-3.43 3.02M379.866 384.018l-6.01 5.29M364.436 404.148l-4.6 4.06M251.746 503.428l-3.03 2.66M135.926 605.448l-3.02 2.67M149.156 593.798l-3.03 2.67M306.906 454.828l-3.02 2.66M387.296 384.018l-6.01 5.29M370.686 405.188l-3.43 3.02M251.746 509.958l-3.03 2.67M149.156 600.338l-3.03 2.67M306.906 461.368l-3.02 2.66M394.716 384.018l-6.01 5.29M378.106 405.188l-3.43 3.02M251.746 516.498l-3.03 2.67M149.156 606.878l-2.03 1.78M306.906 467.908l-3.02 2.66M402.136 384.018l-6 5.29M385.526 405.188l-3.43 3.02M251.746 523.038l-3.03 2.67M306.906 474.448l-3.02 2.66M405.246 387.818l-3.02 2.66M392.956 405.188l-3.43 3.02M251.746 529.578l-3.03 2.67M306.906 480.988l-3.02 2.66M405.246 394.358l-3.02 2.66M400.376 405.188l-3.43 3.02M306.906 487.528l-3.02 2.66M405.246 400.898l-3.02 2.66M306.906 494.058l-3.02 2.66M407.796 405.188l-3.43 3.02M306.906 500.598l-3.02 2.66M415.216 405.188l-3.43 3.02M422.636 405.188l-3.43 3.02M306.906 507.138l-3.02 2.66M251.746 562.268l-3.03 2.67M306.906 513.678l-3.02 2.66M251.746 568.808l-3.03 2.67M306.906 520.218l-3.02 2.66M251.746 575.348l-3.03 2.67M306.906 526.758l-3.02 2.66M251.746 581.878l-3.03 2.67M306.906 533.288l-3.02 2.66M251.746 588.428l-3.03 2.67M306.906 539.828l-3.02 2.66M251.746 594.958l-3.03 2.67M306.906 546.368l-3.02 2.66M251.746 601.498l-3.03 2.67M306.906 552.908l-3.02 2.66M251.746 608.038l-.7.62M306.906 559.448l-3.02 2.66M306.906 565.988l-3.02 2.66"/></g><path class="st6" d="M.5 408.214h10.958v200.457H.5V408.214zM423.518.5v10.958H278.229v40.717h.001v1.512h-1.512v-.454h-1.51v-1.058h-.001V11.458h-63.103V.5h211.414zm-105.99 152.85h105.99v3.023H316.016v-1.511h.454v-1.512h1.058zM135.776 526.108v-23.05h-1.512v.454h-1.511l-.001 105.159h3.023v-36.464h10.203v36.464h3.023v-39.488l-13.226.001.001-40.053h66.882l.001-76.329h45.91v80.221h1.511v.453h1.512v-80.674h52.145v116.193h3.023V449.78h-23.995l-.001-4.838h-1.51v-.453h-1.512l.001 5.291H135.776l-.001-3.402h.001v-1.511h-1.512v.453h-1.511l-.001 1.058.001 29.021h1.511v.453h1.512v-23.05h63.859v38.636h-14.359v34.67h-49.5zm63.859-31.648h-11.336v14.266h11.336V494.46zm0 17.289h-11.336v14.359h11.336v-14.359zm26.072-228.606v43.831h54.411v3.023h-68.015v-3.023h10.581v-43.831h-10.58v-3.023h13.603v3.023zm25.884 279.051v46.477h-3.023v-47.535h1.511v-.454h1.512v1.512zm-39.487-157.003h21.538v3.022h-21.538v-3.022zm-79.351 7.18v1.058h1.511v.453h1.512v-5.668h-3.023v4.157zm146.989-7.179l-.001 8.312h1.512v-.453h1.51l.001-4.837h140.754v-3.022h-18.421v-21.161h-43.832v21.161h-81.523zm84.546-15.871h37.786v15.871h-37.786v-15.871zM222.684 118.965h-10.58v-3.023h10.58V74.939h-10.58v-3.023h13.603l-.001 81.434h49.5V82.404h.001v-1.058h1.51v-.453h1.512v1.511h-.001v70.946h6.349v1.512h.453v1.511h-72.927v-3.023h10.58v-34.385z"/></g><g id="sizes_1_"><g id="sizes"><path d="M311.513 582.583l3.961-5.281c.229-.302.407-.616.535-.941s.191-.629.191-.91v-.016c0-.453-.133-.805-.398-1.055s-.644-.375-1.133-.375c-.464 0-.839.137-1.125.41s-.461.66-.523 1.16v.008h-1.648v-.008c.094-.651.285-1.207.574-1.668s.663-.813 1.121-1.055.987-.363 1.586-.363c.677 0 1.255.116 1.734.348s.844.569 1.094 1.012.375.977.375 1.602v.008c0 .401-.083.82-.25 1.258s-.398.859-.695 1.266l-3.289 4.469h4.297v1.516h-6.406v-1.385zM319.778 582.583l3.961-5.281c.229-.302.407-.616.535-.941s.191-.629.191-.91v-.016c0-.453-.133-.805-.398-1.055s-.644-.375-1.133-.375c-.464 0-.839.137-1.125.41s-.461.66-.523 1.16v.008h-1.648v-.008c.094-.651.285-1.207.574-1.668s.663-.813 1.121-1.055.987-.363 1.586-.363c.677 0 1.255.116 1.734.348s.844.569 1.094 1.012.375.977.375 1.602v.008c0 .401-.083.82-.25 1.258s-.398.859-.695 1.266l-3.289 4.469h4.297v1.516h-6.406v-1.385zM328.059 582.372h1.594v1.594l-1.594 1.578v-3.172zM332.665 583.231c-.55-.567-.824-1.359-.824-2.375v-5.164c0-1.021.276-1.813.828-2.379s1.356-.848 2.414-.848c1.063 0 1.868.281 2.418.844s.824 1.356.824 2.383v5.164c0 1.021-.276 1.813-.828 2.379s-1.356.848-2.414.848c-1.063 0-1.868-.284-2.418-.852zm3.664-1.105c.269-.294.402-.718.402-1.27v-5.164c0-.552-.133-.976-.398-1.27s-.683-.441-1.25-.441-.984.147-1.25.441-.398.718-.398 1.27v5.164c0 .552.134.976.402 1.27s.684.441 1.246.441.977-.147 1.246-.441zM68.787 507.215h-1.594v-9.625l-1.617.992v-1.648l1.617-1.078h1.594v11.359zM72.584 506.929c-.474-.269-.835-.659-1.082-1.172s-.371-1.132-.371-1.855v-.008c0-.422.05-.864.148-1.328a7.568 7.568 0 01.641-1.82l2.469-4.891h1.719l-2.898 5.664.008-.281c.13-.245.32-.435.57-.57s.542-.203.875-.203c.589 0 1.094.133 1.516.398s.742.652.961 1.16.328 1.118.328 1.832v.008c0 .729-.124 1.354-.371 1.875s-.609.917-1.086 1.188-1.048.406-1.715.406-1.238-.134-1.712-.403zm2.879-1.597c.273-.313.41-.758.41-1.336v-.008c0-.636-.144-1.126-.43-1.473s-.695-.52-1.227-.52c-.474 0-.841.175-1.102.523s-.391.841-.391 1.477v.008c0 .578.137 1.022.41 1.332s.66.465 1.16.465c.507.001.896-.156 1.17-.468zM79.42 505.621h1.594v1.594l-1.594 1.578v-3.172zM89.068 497.277l-2.938 9.938h-1.695l2.938-9.844h-2.891v1.633h-1.594v-3.148h6.18v1.421zM356.413 276.4l3.961-5.281c.229-.302.407-.616.535-.941s.191-.629.191-.91v-.016c0-.453-.133-.805-.398-1.055s-.644-.375-1.133-.375c-.464 0-.839.137-1.125.41s-.461.66-.523 1.16v.008h-1.648v-.008c.094-.651.285-1.207.574-1.668s.663-.813 1.121-1.055.987-.363 1.586-.363c.677 0 1.255.116 1.734.348s.844.569 1.094 1.012.375.977.375 1.602v.008c0 .401-.083.82-.25 1.258s-.398.859-.695 1.266l-3.289 4.469h4.297v1.516h-6.406V276.4zM366.495 277.564c-.445-.224-.808-.55-1.086-.977s-.465-.94-.559-1.539v-.008h1.594v.008c.058.417.224.741.5.973s.636.348 1.078.348c.511 0 .905-.171 1.184-.512s.418-.821.418-1.441v-.953c0-.614-.14-1.093-.418-1.434s-.673-.512-1.184-.512c-.276 0-.542.078-.797.234s-.479.375-.672.656H365.1v-5.984h5.789v1.516h-4.195v2.555a2.275 2.275 0 011.414-.508c.656 0 1.218.136 1.684.406s.82.667 1.063 1.188.363 1.148.363 1.883v.953c0 .734-.125 1.362-.375 1.883s-.614.918-1.094 1.191-1.055.41-1.727.41c-.573 0-1.082-.113-1.527-.336zM373.405 276.189h1.594v1.594l-1.594 1.578v-3.172zM379.929 277.782h-1.594v-9.625l-1.617.992v-1.648l1.617-1.078h1.594v11.359z"/><g><path d="M139.349 518.61l3.961-5.281c.229-.302.407-.616.535-.941s.191-.629.191-.91v-.016c0-.453-.133-.805-.398-1.055s-.644-.375-1.133-.375c-.464 0-.839.137-1.125.41s-.461.66-.523 1.16v.008h-1.648v-.008c.094-.651.285-1.207.574-1.668s.663-.813 1.121-1.055.987-.363 1.586-.363c.677 0 1.255.116 1.734.348s.844.569 1.094 1.012.375.977.375 1.602v.008c0 .401-.083.82-.25 1.258s-.398.859-.695 1.266l-3.289 4.469h4.297v1.516h-6.406v-1.385zM147.63 518.399h1.594v1.594l-1.594 1.578v-3.172zM152.927 519.719c-.521-.261-.923-.629-1.207-1.105s-.426-1.03-.426-1.66v-.188c0-.567.142-1.102.426-1.602s.663-.878 1.137-1.133c-.401-.219-.723-.535-.965-.949s-.363-.851-.363-1.309v-.273c0-.594.133-1.116.398-1.566s.641-.8 1.125-1.047 1.047-.371 1.688-.371 1.203.124 1.688.371.859.597 1.125 1.047.398.973.398 1.566v.273c0 .469-.124.909-.371 1.32s-.574.724-.98.938c.479.261.863.64 1.152 1.137s.434 1.03.434 1.598v.188c0 .63-.142 1.184-.426 1.66s-.687.845-1.207 1.105-1.125.391-1.813.391-1.293-.13-1.813-.391zm2.789-1.359c.281-.146.499-.351.652-.613s.23-.566.23-.91v-.109c0-.349-.077-.655-.23-.918s-.371-.468-.652-.613-.606-.219-.977-.219-.695.073-.977.219-.499.352-.652.617-.23.573-.23.922v.117c0 .344.077.646.23.906s.371.462.652.605.606.215.977.215.695-.073.977-.219zm-.133-5.121c.245-.138.435-.335.57-.59s.203-.55.203-.883v-.109c0-.317-.067-.599-.203-.844s-.325-.434-.57-.566-.526-.199-.844-.199-.599.066-.844.199-.435.321-.57.566-.203.528-.203.852v.117c0 .328.067.618.203.871s.325.448.57.586.526.207.844.207.599-.069.844-.207z"/></g><g><path d="M221.998 416.029l-2.938 9.938h-1.695l2.938-9.844h-2.891v1.633h-1.594v-3.148h6.18v1.421zM224.029 424.373h1.594v1.594l-1.594 1.578v-3.172zM231.834 420.326l-.008.281c-.13.239-.327.415-.59.527s-.574.168-.934.168c-.542 0-1.019-.138-1.43-.414s-.73-.665-.957-1.168-.34-1.085-.34-1.746v-.008c0-.734.124-1.362.371-1.883s.609-.917 1.086-1.188 1.048-.406 1.715-.406 1.237.138 1.711.414.835.677 1.082 1.203.371 1.159.371 1.898v.008c0 .406-.052.84-.156 1.301a8.052 8.052 0 01-.539 1.578c-.031.07-.065.14-.102.207l-2.422 4.867h-1.719l2.861-5.639zm.074-.984c.273-.339.41-.815.41-1.43v-.008c0-.599-.137-1.063-.41-1.391s-.66-.492-1.16-.492c-.505 0-.895.164-1.168.492s-.41.794-.41 1.398v.008c0 .614.137 1.09.41 1.426s.663.504 1.168.504c.5 0 .887-.169 1.16-.507z"/></g><g><path d="M328.978 109.446h-1.594v-9.625l-1.617.992v-1.648l1.617-1.078h1.594v11.359zM331.4 106.321l3.813-8.227h1.641l-3.719 8.133h5.57v1.477H331.4v-1.383zm4.899-3.555h1.555v6.688h-1.555v-6.688zM340.502 107.852h1.594v1.594l-1.594 1.578v-3.172zM345.502 109.161a2.61 2.61 0 01-1.082-1.172c-.247-.513-.371-1.131-.371-1.855v-.008c0-.422.05-.864.148-1.328a7.673 7.673 0 01.532-1.597l.109-.223 2.469-4.891h1.719l-2.898 5.664.008-.281c.13-.245.32-.435.57-.57.25-.135.542-.203.875-.203.589 0 1.094.133 1.516.398s.742.652.961 1.16.328 1.119.328 1.832v.008c0 .729-.124 1.354-.371 1.875a2.615 2.615 0 01-1.086 1.188c-.477.271-1.048.406-1.715.406s-1.239-.135-1.712-.403zm2.879-1.598c.273-.313.41-.758.41-1.336v-.008c0-.635-.144-1.126-.43-1.473-.286-.346-.695-.52-1.227-.52-.474 0-.841.175-1.102.523-.261.349-.391.841-.391 1.477v.008c0 .578.137 1.022.41 1.332.273.31.66.465 1.16.465.507.001.896-.155 1.17-.468z"/></g><g><path d="M253.344 130.466a2.75 2.75 0 01-1.086-.977c-.278-.427-.465-.94-.559-1.539v-.008h1.594v.008c.058.417.224.741.5.973.276.232.636.348 1.078.348.511 0 .905-.17 1.184-.512.278-.341.418-.821.418-1.441v-.953c0-.614-.14-1.092-.418-1.434-.278-.341-.673-.512-1.184-.512-.276 0-.542.078-.797.234s-.479.375-.672.656h-1.453v-5.984h5.789v1.516h-4.195v2.555a2.275 2.275 0 011.414-.508c.656 0 1.218.136 1.684.406.466.271.82.667 1.063 1.188.242.521.363 1.148.363 1.883v.953c0 .734-.125 1.362-.375 1.883-.25.521-.614.918-1.094 1.191s-1.055.41-1.727.41c-.573 0-1.082-.113-1.527-.336zM260.254 129.091h1.594v1.594l-1.594 1.578v-3.172zM265.68 130.466a2.75 2.75 0 01-1.086-.977c-.278-.427-.465-.94-.559-1.539v-.008h1.594v.008c.058.417.224.741.5.973.276.232.636.348 1.078.348.511 0 .905-.17 1.184-.512.278-.341.418-.821.418-1.441v-.953c0-.614-.14-1.092-.418-1.434-.278-.341-.673-.512-1.184-.512-.276 0-.542.078-.797.234s-.479.375-.672.656h-1.453v-5.984h5.789v1.516h-4.195v2.555a2.275 2.275 0 011.414-.508c.656 0 1.218.136 1.684.406.466.271.82.667 1.063 1.188.242.521.363 1.148.363 1.883v.953c0 .734-.125 1.362-.375 1.883-.25.521-.614.918-1.094 1.191s-1.055.41-1.727.41c-.573 0-1.082-.113-1.527-.336z"/></g><g><path d="M465.627 45.329a2.61 2.61 0 01-1.082-1.172c-.247-.513-.371-1.131-.371-1.855v-.008c0-.422.05-.864.148-1.328a7.673 7.673 0 01.532-1.597l.109-.223 2.469-4.891h1.719l-2.898 5.664.008-.281c.13-.245.32-.435.57-.57.25-.135.542-.203.875-.203.589 0 1.094.133 1.516.398s.742.652.961 1.16.328 1.119.328 1.832v.008c0 .729-.124 1.354-.371 1.875a2.615 2.615 0 01-1.086 1.188c-.477.271-1.048.406-1.715.406s-1.239-.134-1.712-.403zm2.879-1.597c.273-.313.41-.758.41-1.336v-.008c0-.635-.144-1.126-.43-1.473-.286-.346-.695-.52-1.227-.52-.474 0-.841.175-1.102.523-.261.349-.391.841-.391 1.477v.008c0 .578.137 1.022.41 1.332.273.31.66.465 1.16.465.507 0 .896-.156 1.17-.468zM472.463 44.021h1.594v1.594l-1.594 1.578v-3.172zM476.072 44.232l3.961-5.281c.229-.302.407-.616.535-.941.128-.325.191-.629.191-.91v-.016c0-.453-.133-.805-.398-1.055s-.644-.375-1.133-.375c-.464 0-.839.137-1.125.41s-.461.66-.523 1.16v.008h-1.648v-.008c.094-.651.285-1.207.574-1.668s.663-.813 1.121-1.055.987-.363 1.586-.363c.677 0 1.255.116 1.734.348.479.232.844.569 1.094 1.012.25.443.375.977.375 1.602v.008c0 .401-.083.82-.25 1.258s-.398.859-.695 1.266l-3.289 4.469h4.297v1.516h-6.406v-1.385z"/></g><g><path d="M463.758 277.375l3.961-5.281c.229-.302.407-.616.535-.941s.191-.629.191-.91v-.016c0-.453-.133-.805-.398-1.055s-.644-.375-1.133-.375c-.464 0-.839.137-1.125.41s-.461.66-.523 1.16v.008h-1.648v-.008c.094-.651.285-1.207.574-1.668s.663-.813 1.121-1.055.987-.363 1.586-.363c.677 0 1.255.116 1.734.348s.844.569 1.094 1.012.375.977.375 1.602v.008c0 .401-.083.82-.25 1.258s-.398.859-.695 1.266l-3.289 4.469h4.297v1.516h-6.406v-1.385zM472.039 277.164h1.594v1.594l-1.594 1.578v-3.172zM477.465 278.539c-.445-.224-.808-.55-1.086-.977s-.465-.94-.559-1.539v-.008h1.594v.008c.058.417.224.741.5.973s.636.348 1.078.348c.511 0 .905-.171 1.184-.512s.418-.821.418-1.441v-.953c0-.614-.14-1.093-.418-1.434s-.673-.512-1.184-.512c-.276 0-.542.078-.797.234s-.479.375-.672.656h-1.453v-5.984h5.789v1.516h-4.195v2.555a2.275 2.275 0 011.414-.508c.656 0 1.218.136 1.684.406s.82.667 1.063 1.188.363 1.148.363 1.883v.953c0 .734-.125 1.362-.375 1.883s-.614.918-1.094 1.191-1.055.41-1.727.41c-.573 0-1.082-.112-1.527-.336z"/></g><g><path d="M186.488 546.62c-.521-.261-.923-.629-1.207-1.105s-.426-1.03-.426-1.66v-.188c0-.567.142-1.102.426-1.602s.663-.878 1.137-1.133c-.401-.219-.723-.535-.965-.949s-.363-.851-.363-1.309v-.273c0-.594.133-1.116.398-1.566s.641-.8 1.125-1.047 1.047-.371 1.688-.371 1.203.124 1.688.371.859.597 1.125 1.047.398.973.398 1.566v.273c0 .469-.124.909-.371 1.32s-.574.724-.98.938c.479.261.863.64 1.152 1.137s.434 1.03.434 1.598v.188c0 .63-.142 1.184-.426 1.66s-.687.845-1.207 1.105-1.125.391-1.813.391-1.292-.13-1.813-.391zm2.789-1.36c.281-.146.499-.351.652-.613s.23-.566.23-.91v-.109c0-.349-.077-.655-.23-.918s-.371-.468-.652-.613-.606-.219-.977-.219-.695.073-.977.219-.499.352-.652.617-.23.573-.23.922v.117c0 .344.077.646.23.906s.371.462.652.605.606.215.977.215.696-.073.977-.219zm-.133-5.121c.245-.138.435-.335.57-.59s.203-.55.203-.883v-.109c0-.317-.067-.599-.203-.844s-.325-.434-.57-.566-.526-.199-.844-.199-.599.066-.844.199-.435.321-.57.566-.203.528-.203.852v.117c0 .328.067.618.203.871s.325.448.57.586.526.207.844.207.599-.069.844-.207zM193.816 545.3h1.594v1.594l-1.594 1.578V545.3zM198.422 546.159c-.55-.567-.824-1.359-.824-2.375v-5.164c0-1.021.276-1.813.828-2.379s1.356-.848 2.414-.848c1.063 0 1.868.281 2.418.844s.824 1.356.824 2.383v5.164c0 1.021-.276 1.813-.828 2.379s-1.356.848-2.414.848c-1.063-.001-1.868-.285-2.418-.852zm3.664-1.106c.269-.294.402-.718.402-1.27v-5.164c0-.552-.133-.976-.398-1.27s-.683-.441-1.25-.441-.984.147-1.25.441-.398.718-.398 1.27v5.164c0 .552.134.976.402 1.27s.684.441 1.246.441.977-.147 1.246-.441z"/></g><g><path d="M266.486 184.824l-2.938 9.938h-1.695l2.938-9.844H261.9v1.633h-1.594v-3.148h6.18v1.421zM268.517 193.167h1.594v1.594l-1.594 1.578v-3.172zM278.166 184.824l-2.938 9.938h-1.695l2.938-9.844h-2.891v1.633h-1.594v-3.148h6.18v1.421z"/></g></g></g></svg>