<svg version="1.1" id="_x33_88" xmlns="http://www.w3.org/2000/svg" x="0" y="0" viewBox="0 0 488.442 725.552" xml:space="preserve"><style>.st0,.st1{fill-rule:evenodd;clip-rule:evenodd}.st0{fill:#fff}.st1{stroke:#999;stroke-width:.4}.st1,.st2,.st4{fill:none;stroke-linecap:round;stroke-linejoin:round;stroke-miterlimit:3}.st2{fill-rule:evenodd;clip-rule:evenodd;stroke:#999}.st4{stroke:#000}.st4,.st5,.st6,.st7{fill-rule:evenodd;clip-rule:evenodd}.st6,.st7{fill:none;stroke-miterlimit:22.9256}.st6{stroke-linecap:round;stroke-linejoin:round;stroke:#000}.st7{stroke:#666;stroke-width:.6}</style><path class="st0" d="M285.53 493.215V.317L40.946.442v38.939H.679v254.5H40.78v40.834H.679v120.75H40.78v270.062l446.983-.227V493.215z" id="fon"/><g id="walls_3_"><g id="walls_2_"><path class="st1" d="M369.309 552.128h92.624m-92.624-11.336h72.995M369.309 529.456h92.624m-92.624-11.335h92.624m-34.622-11.336h34.622m-18.326 50.917v-15.771m0-10.213v-30.507m-22.672 56.491v-41.377m-22.672 41.377v-41.377m-22.671 41.377v-41.377m-22.672-15.113M325.317 557.702l6.211-6.212m-13.158 6.212l13.164-13.164m-20.111 13.164l20.117-20.117m-27.063 20.117l27.068-27.069m-34.016 27.069l34.022-34.022m-40.968 34.022l40.974-40.976m-47.921 40.976l41.376-41.376m-48.323 41.376l41.375-41.376m-48.322 41.376l41.376-41.376m-43.029 36.081l36.081-36.081m-36.081 29.134l14.248-14.248m6.782-6.782l10.144-10.144m-31.174 24.228l9.73-9.73m10.961-10.961l7.731-7.731m-28.422 21.474l7.964-7.964m12.064-12.063l1.447-1.447m-21.475 14.527l8.595-8.594m-8.595 1.648l7.581-7.581m-7.581.633l.634-.633m62.831 9.843l-3.61-3.609m3.604 10.552l-10.552-10.552m10.547 17.492l-17.493-17.493m-14.717-14.717l-.07-.07m32.274 39.222l-24.434-24.434m24.428 31.375l-31.375-31.375m-.893-.894l-5.34-5.34m37.602 44.55l-43.444-43.444m39.557 46.504l-38.737-38.737m31.79 38.737l-31.867-31.867m-11.918-11.918l-3.825-3.825m40.663 47.61l-27.619-27.619m-9.882-9.882l-8.154-8.154m38.708 45.655l-27.528-27.528m-1.674-1.675l-9.506-9.506m31.761 38.709l-31.761-31.762m24.814 31.762l-24.814-24.814m17.867 24.814l-17.867-17.867m10.92 17.867l-10.92-10.921m3.974 10.921l-3.974-3.974M209.332 318.279h53.467m-53.467-11.336h32.903m-32.903-11.336h53.467m-53.467-11.336h68.204m-68.204-11.336h40.143m17.585 0h10.476m-68.204-11.336h34.815m28.241 0h5.147m-68.203-11.336h33.446m30.98 0h3.778m-68.204-11.336h34.814m28.242 0h5.147m-68.203-11.335h40.141m17.589 0h10.474m-68.204-11.336h68.204m-68.204-11.336h53.467m-53.467-11.336h53.467m-53.467-11.336h53.467m3.307 105.377v-13.608m0-47.509v-13.51M243.434 323.238v-14.51m0-8.578v-41.939m0-15.898v-65.025m-22.672 145.95V177.289"/><path class="st2" d="M247.808 298.038l-1.645.469m0 0l-1.552.718m0 0l-1.23.968m0 0l-.943 1.248m0 0l-.593 1.448m0 0l-.206 1.55m0 0l.206 1.552m0 0l.593 1.447m0-.001l.943 1.249m0 .001l1.23.967m0 0l1.552.719m0 0l1.645.469m0 0l1.697.207m0 0l1.71-.059m0 0l11.584-1.223m0 0v-10.654m0 0l-11.584-1.223m0 0l-1.71-.059m0 0l-1.697.207M257.078 308.556v-4.117M257.078 304.439v-4.116M242.811 307.504a5.757 5.757 0 01-.886-3.064M249.641 310.751c-2.591.165-5.107-1.031-6.83-3.248M257.078 308.556c-2.253 1.505-4.828 2.266-7.437 2.195M249.641 298.127c2.609-.07 5.184.69 7.437 2.195M242.811 301.376c1.723-2.217 4.239-3.413 6.83-3.248M241.924 304.439a5.751 5.751 0 01.886-3.063M262.61 299.793h.189v9.294h-.189zM262.799 309.088v-9.296m0-.001h-.188m0 0v9.296m0 .001h.188M262.799 294.993v18.894M267.334 294.993v18.894M262.799 294.993h4.535M262.799 313.886h4.535M277.536 177.855v34.575m0 0l-.166.401m0 0l-.401.166m0 0h-13.603m0 0l-.401-.166m0 0l-.166-.401m0 0v-34.575m0 0l.166-.4m0 0l.401-.166m0 0h13.603m0 0l.401.166m0 0l.166.4M273.379 178.989v15.701m0 .905v15.702M272.812 211.863H264.5M263.933 211.297v-32.309M264.5 178.422h8.313M273.379 211.297a.566.566 0 01-.567.566M264.5 211.863a.566.566 0 01-.567-.566M263.933 178.989c0-.313.254-.566.567-.566M272.812 178.422c.313 0 .567.253.567.566M271.099 195.595a.754.754 0 01-1.21 0h1.21zm-1.209-.906a.755.755 0 011.209 0h-1.209zM277.007 195.596v-.907m0 0h-7.748m0 0l-.301.256m0 0v.395m0 0l.301.256m0 0h7.748M277.007 194.387v1.512m0 0h.265m0 0v-1.512m0 0h-.265M277.272 194.009v2.267m0 0h.264m0 0v-2.267m0 0h-.264M275.647 191.874h1.625m0 0v.095m0 0h.132m-.001 0v.283m0 0h.132m.001 0v-1.889m0 0h-.132m-.001 0v.283m0 0h-.132m.001 0v.094m0 0h-1.625m0 0v.322m0 0h-.416m0 0v-1.077m0 0h-.491m-.001 0v2.644m0 0h.491m.001 0v-1.076m0 0h.416m0 0v.321M275.647 198.411h1.625m0 0v-.095m0 0h.132m-.001 0v-.282m0 0h.132m.001 0v1.889m0 0h-.132m-.001 0v-.284m0 0h-.132m.001 0v-.094m0 0h-1.625m0 0v-.322m0 0h-.416m0 0v1.077m0 0h-.491m-.001 0v-2.644m0 0h.491m.001 0v1.076m0 0h.416m0 0v-.321M275.231 191.061l-.072.072M275.231 191.553l-.072-.072M275.647 191.061v.492M277.272 190.74v1.134M277.403 191.969v-1.323M275.231 199.224l-.072-.072M275.231 198.733l-.072.072M275.647 199.224v-.491M277.272 199.545v-1.134M277.403 198.316v1.323M275.231 191.307a.246.246 0 11-.491 0 .246.246 0 01.491 0zM275.231 198.978a.246.246 0 11-.491 0 .246.246 0 01.491 0zM384.424 501.211h42.321m0 0l.4.166m0 0l.166.401m0 .001v13.981m0-.001l-.166.4m0 .001l-.4.166m0-.001h-42.321m0 0l-.401-.166m0 .001l-.166-.4m0-.001v-13.981m0 .001l.166-.401m0-.001l.401-.166M385.557 505.368h19.574m.906 0h19.574M426.178 505.935v8.69M425.611 515.193h-40.054M384.99 514.625v-8.689M425.611 505.368c.313 0 .567.254.567.567M426.178 514.625a.567.567 0 01-.567.567M385.557 515.193a.567.567 0 01-.567-.567M384.99 505.935c0-.313.254-.567.567-.567M406.34 508.356a.754.754 0 01-.303.605v-1.21a.755.755 0 01.303.605zm-1.209.605a.754.754 0 010-1.21v1.21zM406.038 501.741h-.907m0 0v7.748m0 0l.256.301m0 0h.395m0 0l.256-.301m0 0v-7.748M404.828 501.741h1.512m0 0v-.265m0 0h-1.512m0 0v.265M404.451 501.476h2.267m0 0v-.265m0 0h-2.267m0 0v.265M402.316 503.101v-1.625m0 0h.094m0 0v-.132m0 0h.284m0 0v-.133m0 0h-1.889m0 0v.133m0 0h.283m0 0v.132m0 0h.094m0 0v1.625m0 0h.322m0 0v.416m0 0h-1.077m0 0v.49m0 0h2.645m0 0v-.49m0 0h-1.077m0 0v-.416m0 0h.321M408.853 503.101v-1.625m0 0h-.095m0 0v-.132m0 0h-.283m0 0v-.133m0 0h1.889m0 0v.133m0 0h-.283m0 0v.132m0 0h-.095m0 0v1.625m0 0h-.321m0 0v.416m0 0h1.077m0 0v.49m0 0h-2.645m0 0v-.49m0 0h1.077m0 0v-.416m0 0h-.321M401.503 503.517l.072.071M401.994 503.517l-.072.071M401.503 503.101h.491M401.182 501.476h1.134M402.41 501.344h-1.322M409.665 503.517l-.072.071M409.174 503.517l.072.071M409.665 503.101h-.491M409.986 501.476h-1.133M408.758 501.344h1.323M401.994 503.762a.245.245 0 11-.492 0 .245.245 0 01.492 0zM409.665 503.762a.245.245 0 11-.49 0 .245.245 0 01.49 0zM446.942 530.423l-1.645.469m0 0l-1.552.718m-.001 0l-1.23.967m0 0l-.943 1.249m.001 0l-.593 1.448m0 0l-.206 1.551m0 0l.206 1.551m0 0l.593 1.447m0 0l.943 1.248m-.001 0l1.23.968m0 0l1.552.719m.001 0l1.645.469m0 0l1.698.207m0 0l1.709-.059m0 0l11.584-1.223m0 0v-10.654m0 0l-11.584-1.223m0 0l-1.709-.059m0 0l-1.698.207M456.212 540.942v-4.116M456.212 536.826v-4.117M441.945 539.888a5.743 5.743 0 01-.887-3.063M448.775 543.137c-2.592.165-5.107-1.032-6.83-3.249M456.212 540.942c-2.253 1.505-4.829 2.265-7.437 2.195M448.775 530.513c2.609-.07 5.185.69 7.437 2.195M441.945 533.761c1.723-2.217 4.238-3.413 6.83-3.248M441.058 536.826a5.735 5.735 0 01.887-3.064M461.744 532.178h.188v9.295h-.188zM461.933 541.473v-9.296m0 0h-.188m0 0v9.296m0 0h.188M461.933 527.379v18.894M466.467 527.379v18.894M461.933 527.379h4.534M461.933 546.272h4.534M334.546 557.703h34.763M369.309 557.703v-56.491M369.309 501.211h-34.763M342.103 551.089a.946.946 0 11-1.891-.001.946.946 0 011.891.001zM347.529 529.503l.372 1.397m0-.001l.793 1.208m0 .001l1.132.899m0-.001l1.358.495m0 0l1.445.044m0 .001l1.385-.414m0-.001l1.184-.828m0 0l.864-1.159m0 0l.455-1.372m0 0v-1.446m0 0l-.455-1.372m0 0l-.864-1.159m0 0l-1.184-.829m0 .001l-1.385-.413m0-.001l-1.445.043m0 0l-1.358.496m0 0l-1.132.897m0 .001l-.793 1.209m0 0l-.372 1.397m0-.001h-5.538m0 0l.108-.455m0 0l.037-.49m0 0l-.037-.489m0 0l-.108-.455m0 0l-.172-.392m0 0l-.225-.299m0 0l-.261-.19m0 0l-.281-.064m0 0h-.402m0 0l-.12.019m0 0l-.278.064m0 0l-.103.054m0 .001l-.251.182m0 0l-.07.078m0-.001l-.205.274m0 0l-.157.357m0 0l-.052.195m0 0l-.059.25m0 .001l-.688.02m0-.001l-.796.009m0 0v-1.729m0 .001h-.435m0 0v-2.871m0-.001l-.058-.16m0 0l-.149-.083m0 0l-.167.033m0 0l-.105.134m0 0l-.158.485m0 0l-.315.726m0 0l-.573 1.008m0 0l-.259.728m0 .001h-.124m0 0v-.604m0 0h-.982m0 0v2.569m0 0h.877m0 0l.038.063m0-.001l.034.033m0 0l.04.025m0 0l.673.278m0 0v.697m0 0h-1.36m0 0v-1.058m0 .001h-.302m0 0v3.023m0-.001h.302m0 0v-1.058m0 .001h1.36m0 0v1.437m0-.001h.151m0 0v.415m0 0h-.302m0 0v-.152m0 0h-.529m0 0v-.604m0 0h-.982m0 0v2.569m0 0h.982m0 0v-.604m0 0h.529m0 0v-.151m0 .001h.302m0 0v.151m0-.001h1.512m0 0v-2.57m0 0h2.154m0 0v-.082m0 .001v-.094m0-.001v-.123m0 0v-.15m0 0v-.042m0 .001h7.504M336.208 527.16v.21m0 0l-.341-.141m0 0l-.053-.325m0 0l.002-.009m0 0h.241m.001 0v-.151m0 0h.302m0 0v.416m0 0h-.151M336.36 525.686h-.24m-.001 0l.239-.677m0 0l.563-.987m0 0l.024-.053m0 0v1.566m0 0h-.586m.001 0v.151M335.528 531.543h.529M335.528 532.223h.529M335.528 525.886v-.352M336.057 526.744v-.188M336.057 526.555v-.681M336.057 525.874v-.013M335.881 526.555h.176M336.052 525.874h.005M336.36 525.686v1.058M337.871 528.038v.557M336.945 525.535h.491M338.438 528.105v.49M337.425 522.74l.011-.076M335.321 526.888l.002.048M335.353 526.718l-.032.17M335.404 527.433l.01.047M335.415 527.48l.009.02M335.653 525.535l-.161.453M335.492 525.988l-.139.73M335.825 526.844l-.011.06M337.425 522.74l-.167.512M337.258 523.252l-.313.718M335.509 525.946v.001M335.323 526.936l.082.497M339.926 528.593l-.002.002M339.396 528.595l-.002-.002M336.756 527.16h-.128M336.511 527.16h-.103M336.628 527.16h-.117M336.208 527.37v.523M335.965 526.122l-.14.723M336.119 525.686l-.154.436M336.842 527.839v.001M336.797 527.748l.044.091M336.782 527.651l.015.098M336.797 527.553l-.015.098M336.842 527.462l-.044.091M339.338 527.306l-.026.345M339.312 527.651l.026.345M339.355 527.235l-.017.071M339.415 528.317l.051.195M339.338 527.996l.077.321M337.009 527.282l.062-.009M339.466 528.512l.037.083M339.355 528.067l-.688-.02M337.071 528.029l-.062-.009M337.009 528.02l-.058-.026M336.951 527.994l-.05-.042M336.902 527.952l-.038-.055M336.863 527.897l-.021-.057M336.842 527.839l-.002-.007M336.839 527.833l-.007-.068M336.831 527.764v-.227M336.831 527.538l.008-.069M336.839 527.469l.002-.007M336.842 527.462l.021-.057M336.863 527.406l.038-.055M336.902 527.351l.049-.042M336.951 527.309l.058-.027M338.667 528.047l-1.596-.019M337.871 527.263l-.8.01M337.569 527.16v.107M337.569 528.035v.561M347.529 529.503h5.343M347.529 528.595h5.343M352.872 529.503v-.908M335.528 532.563v-1.36M336.057 532.413v-1.059M336.36 532.413v-1.059M336.36 530.939h1.209M337.569 527.16h-1.209M334.848 529.503v-.908M336.208 529.503h3.816M341.991 528.595h-5.783M337.569 530.939v-1.437M337.871 529.994v-.491M338.438 529.994v-.491M337.871 528.105h1.493M350.207 528.595a1.889 1.889 0 110 .907M337.485 530.939a.34.34 0 11-.589 0M299.83 501.211h31.174m0 0l.4.166m0 0l.167.401m0 .001v13.981m0-.001l-.167.4m0 .001l-.4.166m0-.001H299.83m0 0l-.401-.166m0 .001l-.166-.4m0-.001v-13.981m0 .001l.166-.401m0-.001l.401-.166M300.963 505.368h13.999m.908 0h14.001M330.437 505.935v8.69M329.87 515.193h-28.907M300.397 514.625v-8.689M329.87 505.368c.312 0 .566.254.566.567M330.437 514.625a.567.567 0 01-.566.567M300.963 515.193a.567.567 0 01-.567-.567M300.397 505.935c0-.313.253-.567.567-.567M316.172 508.356a.754.754 0 01-.303.605v-1.21a.752.752 0 01.303.605zm-1.209.604a.755.755 0 010-1.208v1.208zM315.87 501.741h-.907m0 0v7.748m0 0l.256.301m0 0h.395m0 0l.256-.301m0 0v-7.748M314.661 501.741h1.512m0 0v-.265m0 0h-1.512m0 0v.265M314.283 501.476h2.267m0 0v-.265m0 0h-2.267m0 0v.265M312.148 503.101v-1.625m0 0h.094m0 0v-.132m0 0h.284m0 0v-.133m0 0h-1.889m0 0v.133m0 0h.283m0 0v.132m0 0h.094m0 0v1.625m0 0h.322m0 0v.416m0 0h-1.077m0 0v.49m0 0h2.645m0 0v-.49m0 0h-1.077m0 0v-.416m0 0h.321M318.685 503.101v-1.625m0 0h-.095m0 0v-.132m0 0h-.283m0 0v-.133m0 0h1.889m0 0v.133m0 0h-.283m0 0v.132m0 0h-.095m0 0v1.625m0 0h-.321m0 0v.416m0 0h1.077m0 0v.49m0 0h-2.645m0 0v-.49m0 0h1.077m0 0v-.416m0 0h-.321M311.336 503.517l.072.071M311.827 503.517l-.072.071M311.336 503.101h.491M311.014 501.476h1.134M312.242 501.344h-1.322M319.497 503.517l-.072.071M319.006 503.517l.072.071M319.497 503.101h-.491M319.819 501.476h-1.133M318.591 501.344h1.322M311.827 503.762a.245.245 0 11-.49 0 .245.245 0 01.49 0zM319.497 503.762a.245.245 0 11-.492 0 .245.245 0 01.492 0zM276.235 525.082l.469 1.646m0 .001l.718 1.551m0 0l.968 1.23m0 0l1.248.943m0-.001l1.448.594m0 .001l1.551.205m0-.001l1.551-.205m0 .001l1.448-.594m0-.001l1.248-.943m0 .001l.968-1.23m0 0l.718-1.551m0 0l.469-1.646m0-.001l.207-1.697m0 .001l-.059-1.709m0 0l-1.223-11.585m0-.001H277.31m0 0l-1.223 11.585m0 .001l-.059 1.709m0 0l.207 1.697M286.754 515.813h-4.118M282.637 515.813h-4.116M285.7 530.08a5.752 5.752 0 01-3.063.887M288.949 523.25c.165 2.592-1.031 5.107-3.249 6.83M286.754 515.813c1.505 2.253 2.266 4.827 2.195 7.437M276.325 523.25c-.07-2.609.689-5.184 2.195-7.437M279.573 530.08c-2.217-1.723-3.413-4.238-3.248-6.83M282.637 530.966a5.743 5.743 0 01-3.063-.887M277.99 510.092h9.295v.188h-9.295zM287.285 510.091h-9.295m0 0v.189m0 0h9.295m0 0v-.189M273.191 510.091h18.893M273.191 505.557h18.893M273.191 510.091v-4.534M292.084 510.091v-4.534M109.761 348.372v-1.394M109.761 346.978l.114-.113M109.875 346.865h.457M110.902 348.372v-1.394M110.902 346.978l-.114-.113M110.788 346.865h-.456M95.513 405.661l-7.081-1.617m0 0l-.714-.182m0 0l-.679-.207m0 0l-.629-.229m0 0l-.56-.245m0 0l-.021-.011m0 0l-.478-.254m0 0l-.377-.254m0 0l-.024-.021m0 0l-.267-.248m0 0l-.022-.027m0 0l-.145-.234m0 0l-.018-.033m0 0l-.011-.036m0 0l-.004-.037m0 0l-.019-.214m0 0l.001-.038m0 0l.004-.018m0 0l.446-1.955m0 0l-1.774-.406m0 0l3.367-14.734m0 0l1.773.405m0 0l.263-1.152m0 0l15.609 3.565m0 0l-.264 1.153m0 0l1.774.405m0 0l-3.366 14.734m0 0l-1.774-.405m0 0l-.446 1.954m0 0l-.005.019m0 0l-.015.035m0 0l-.11.185m0 0l-.02.032m0 0l-.026.026m0 0l-.03.023m0 0l-.233.147m0 0l-.031.016m0 0l-.348.107m0 0l-.031.008m0 0l-.45.065m0 0l-.54.022m0 0h-.024m0 0l-.611-.023m0 0l-.666-.066m0 0l-.701-.108m0 0l-.723-.147M85.178 398.649l15.608 3.565M85.391 398.698l-.353 1.547M100.573 402.165l-.354 1.548M103.89 388.629l-3.366 14.734M88.281 385.063l-3.366 14.735M88.829 402.274l7.094 1.62M88.829 402.273c-2.233-.51-3.931-1.418-3.792-2.028M100.22 403.713c-.139.61-2.063.691-4.296.182M123.562 403.766l7.081-1.618m0 0l.714-.181m0 0l.679-.208m0 0l.629-.229m0 0l.56-.244m0 0l.021-.011m0 0l.478-.254m0 0l.377-.254m0 0l.024-.022m0 0l.267-.248m0 0l.022-.027m0 0l.146-.234m0 0l.017-.033m0 0l.011-.036m0 0l.004-.037m0 0l.019-.214m0 0l-.001-.038m0 0l-.004-.018m0 0l-.446-1.954m0 0l1.774-.406m0 0l-3.366-14.735m0 0l-1.774.405m0 0l-.263-1.151m0 0l-15.608 3.565m0 0l.263 1.152m0 0l-1.774.405m0 0l3.366 14.735m0 0l1.774-.405m0 0l.446 1.954m0 0l.005.019m0 0l.015.035m0 0l.11.184m0 0l.02.032m0 0l.026.027m0 0l.03.022m0 0l.233.148m0 0l.032.015m0 0l.347.108m0 0l.031.008m0 0l.45.065m0 0l.541.021m0 0l.023.001m0 0l.611-.024m0 0l.666-.065m0 0l.701-.109m0 0l.723-.146M133.897 396.753l-15.608 3.565M133.684 396.802l.354 1.547M118.501 400.271l.354 1.547M115.185 386.734l3.366 14.734M130.794 383.168l3.365 14.734M130.246 400.378l-7.095 1.621M134.037 398.349c.14.61-1.558 1.519-3.792 2.029M123.151 401.998c-2.234.51-4.157.429-4.297-.182M87.66 358.011v20.405m0 0h45.343m0 0v-20.405m0 0H87.66M64.988 311.525v22.671m0 0h45.344m0 0v-22.671m0 0H64.988M273.758 250.262l-.185-4.028m-.001 0l-.552-3.994m.001 0l-.915-3.928m-.001 0l-1.27-3.827m.001 0l-1.615-3.695m-.001 0l-1.388-2.221m.001 0l-1.686-2.003m0 0l-1.952-1.746m0 0l-1.325-.897m-.001 0l-1.458-.66m.001 0l-1.55-.403m0 0l-1.594-.136m-.001 0l-1.595.136m.001 0l-1.549.403m-.001 0l-1.458.66m.001 0l-1.326.897m0 0l-1.952 1.746m0 0l-1.686 2.003m0 0l-1.387 2.221m0 0l-1.615 3.695m-.001 0l-1.271 3.827m.001 0l-.915 3.928m0 0l-.552 3.994m-.001 0l-.184 4.028m0 0l.184 4.028m0 0l.552 3.994m.001 0l.915 3.928m0 0l1.271 3.827m-.001 0l1.615 3.695m.001 0l1.387 2.221m0 0l1.686 2.003m0 0l1.952 1.745m0 0l1.326.897m0 0l1.458.661m-.001 0l1.549.403m.001 0l1.595.136m-.001 0l1.594-.136m.001 0l1.55-.403m0 0l1.458-.661m-.001 0l1.325-.897m.001 0l1.952-1.745m0 0l1.686-2.003m0 0l1.388-2.221m-.001 0l1.615-3.695m.001 0l1.27-3.827m-.001 0l.915-3.928m.001 0l.552-3.994m-.001 0l.185-4.028M383.857 516.326h-14.548m0 0v-15.114m0 0h14.548m0 0v15.114M223.485 83.555h-22.807m0 0v28.851m0 0h22.807m0 0V83.555M80.064 177.194v1.7m0 0H144m0 0v-1.7m0 0H80.064M80.064 211.202h31.967m.001 0v-23.805m0 0H80.064m0 0v23.805M112.032 211.202h31.967m0 0v-23.805m0 0h-31.967m0 0v23.805M143.999 211.202h9.598m0 0v-34.007m0 0h-9.598m0 0v1.7m0 8.502v23.805M70.467 211.202h9.598m0 0v-23.805m0-8.502v-1.7m0 0h-9.598m0 0v34.007M112.032 178.895v8.502m0-.001h36.766m0 0v-8.502m0 .001h-36.766M112.032 178.895v8.502m0-.001H75.266m0 0v-8.502m0 .001h36.766M331.403 619.255h-1.899m-.001 0v72.814m0 0h1.899m.001 0v-72.814M293.427 619.255v36.408m0 0h26.583m0 0v-36.408m0 0h-26.583M293.427 655.664v36.406m0-.001h26.583m0 0v-36.406m0 .001h-26.583M293.427 692.07v9.598m0 0h37.975m0 0v-9.598m0 0h-1.898m-9.494 0h-26.582M293.427 609.659v9.597m0 0h26.582m9.495 0h1.898m0 0v-9.597m0 0h-37.975M329.504 655.664h-9.494m0 0v41.205m0-.001h9.494m0 0v-41.205M329.504 655.664h-9.494m0 0v-41.207m0 0h9.494m0 0v41.207M80.064 177.194v1.7m0 0H144m0 0v-1.7m0 0H80.064M80.064 211.202h31.967m.001 0v-23.805m0 0H80.064m0 0v23.805M112.032 211.202h31.967m0 0v-23.805m0 0h-31.967m0 0v23.805M112.032 178.895v8.502m0-.001h36.766m0 0v-8.502m0 .001h-36.766M112.032 178.895v8.502m0-.001H75.266m0 0v-8.502m0 .001h36.766M140.56 498.755h22.672m0 0v-22.672m0 0H140.56m0 0v22.672M151.897 483.641v7.557M149.225 484.747l5.344 5.345M148.118 487.419h7.557M149.225 490.091l5.344-5.344M116.005 496.488h19.271m0 0l.535-.221m0 0l.22-.535m0 0v-17.381m0 0l-.22-.535m0 0l-.535-.221m0 0h-19.271m0 0l-.535.221m0 0l-.221.535m0 0v17.381m0 0l.221.535m0 0l.535.221M110.72 498.755h29.84M110.72 476.084h29.84M110.72 498.755v-22.672M140.56 498.755v-22.672M117.894 494.599h15.492M134.142 493.843v-11.714M133.386 481.374h-7.002m-1.488 0h-7.002M117.139 482.129v11.715M117.895 494.599h.108a.108.108 0 10-.216 0 .108.108 0 00.216 0h-.108zM134.142 493.843a.755.755 0 01-.756.756M133.386 481.374c.417 0 .756.339.756.756M117.139 482.129c0-.417.338-.756.755-.756M117.894 494.599a.755.755 0 01-.755-.756M125.3 486.206l.1.24m0 .001l.241.099m0-.001l.24-.101m0 .001l.099-.24m0-.001v-7.476m0 .001l-.099-.241m0 0l-.241-.099m0-.001l-.24.099m0 .001l-.1.241m0 0v7.478M124.886 480.656h.415m0 0v-1.927m0 0l.099-.241m0 0l.24-.1m0 0l.241.1m0 0l.1.241m0 0v1.927m0 0h.414m0 0V478.2m0 0h-1.509m0 0v2.456M124.896 482.016h.404m0 0v-1.322m0 0h-.404m0 0v1.322M126.384 482.016v-1.322m0 0h-.404m0 0v1.322m0 0h.404M227.847 339.108a7.179 7.179 0 11-14.358 0 7.179 7.179 0 1114.358 0zM272.24 250.262c0 13.719-6.256 24.84-13.973 24.84-7.717 0-13.973-11.121-13.973-24.84s6.256-24.84 13.973-24.84c7.717 0 13.973 11.121 13.973 24.84z"/><path class="st2" d="M260.345 255.7a2.078 2.078 0 11-4.157 0 2.08 2.08 0 014.157 0zM106.564 485.228a7.18 7.18 0 11-7.179-7.18 7.18 7.18 0 017.179 7.18zM250.519 339.108a7.18 7.18 0 11-7.179-7.179 7.179 7.179 0 017.179 7.179zM471.379 691.277a3.778 3.778 0 11-7.557 0 3.778 3.778 0 017.557 0z"/><path class="st2" d="M468.734 691.277a1.134 1.134 0 11-2.267-.001 1.134 1.134 0 012.267.001zM471.379 602.479a3.778 3.778 0 11-7.557 0 3.778 3.778 0 017.557 0z"/><path class="st2" d="M468.734 602.479a1.134 1.134 0 11-2.269 0 1.134 1.134 0 012.269 0zM84.445 21.326a3.778 3.778 0 11-7.557.001 3.778 3.778 0 017.557-.001z"/><path class="st2" d="M81.8 21.326a1.134 1.134 0 11-2.267.001 1.134 1.134 0 012.267-.001zM173.242 21.326a3.78 3.78 0 11-7.558 0 3.78 3.78 0 017.558 0z"/><path class="st2" d="M170.597 21.326a1.134 1.134 0 11-2.267 0 1.134 1.134 0 012.267 0zM198.777 599.645h15.114m.001 0l.001 52.9m-.001 0h-15.115m0 0v-52.9M201.801 646.906h-1.02m0 0l-.001-44.369m0 0h1.021m0 0v44.369M200.781 637.445h-.832m0 0l-.567-.152m0 0l-.415-.414m0 0l-.152-.568m0 0v-22.699m0 0l.152-.566m0 0l.415-.415m0 0l.566-.153m0 0h.833m0 0v24.967M202.099 646.906h-.298m0 0v-44.369m0 0h.298m0 0v44.369M397.696 612.87v68.016m0 0h75.572m0 0V612.87m0 0h-75.572M395.807 614.759v64.236m0 0l.144.724m0 0l.41.612m0 0l.613.41m0 0l.723.144m0 0v-68.016m0 0l-.723.145m0 0l-.613.409m0 0l-.41.613m0 0l-.144.723M477.047 612.87v68.016m0 0h-3.778m0 0V612.87m0 0h3.778M477.047 680.885v-68.016m0 0h-1.889m0 0v68.016m0 0h1.889M477.047 682.775v17.004m0 0h-18.893m0 0v-17.004m0 0h18.893M477.047 610.981v-17.004m0 0h-18.893m0 0v17.004m0 0h18.893M471.379 652.923v25.695m0 0l-.11.267m0 0l-.268.11m0 0h-12.469m0 0l-.267-.11m0 0l-.111-.267m0 0v-25.695m0 0l.111-.267m0 0l.267-.111m0 0h12.469m0 0l.268.111m0 0l.11.267M471.379 640.832v-25.694m0-.001l-.11-.267m0 0l-.268-.111m0 .001h-12.469m0 0l-.267.111m0-.001l-.111.267m0 0v25.694m0 .001l.111.268m0 0l.267.11m0 0h12.469m0 0l.268-.11m0 0l.11-.268M459.178 612.87v1.89M459.178 641.209v11.336M459.178 678.996v1.89M454.168 612.87v68.016m0 0h-18.686m0 0l14.908-68.016m0 0h3.778M265.067 476.084h-24.184m-.001 0v84.642m0 0h24.184m.001 0v-84.642M252.597 560.725h.756m0 0v-84.642m0 0h-.756m0 0v84.642M262.318 482.67h-18.626m0 0v.756m0 0h18.626m0 0v-.756M262.318 484.675h-18.626m0 0v.756m0 0h18.626m0 0v-.756M262.318 486.679h-18.626m0 0v.756m0 0h18.626m0 0v-.756M262.318 488.684h-18.626m0 0v.756m0 0h18.626m0 0v-.756M262.182 492.93l-18.491-2.241m0 0l-.091.75m0 0l18.491 2.241m0 0l.091-.75M277.536 11.879h-22.671m0 0v162.387m0 0h22.671m0 0V11.879M265.822 174.266h.756m0 0V11.879m0 0h-.756m0 0v162.387M275.543 18.466h-18.626m0 0v.756m0 0h18.626m0 0v-.756M275.543 20.47h-18.626m0 0v.756m0 0h18.626m0 0v-.756M275.543 22.475h-18.626m0 0v.756m0 0h18.626m0 0v-.756M275.543 24.479h-18.626m0 0v.756m0 0h18.626m0 0v-.756M275.408 28.725l-18.491-2.241m0 .001l-.091.75m0 0l18.491 2.241m0 0l.091-.75M159.072 91.23H91.057m0 0V15.658m0 0h68.015m0 0V91.23M157.183 93.12H92.946m0 0l-.723-.144m0 0l-.613-.41m0 0l-.409-.613m0 0l-.144-.723m0 0h68.015m0 0l-.143.723m0 0l-.41.613m0 0l-.613.41m0 0l-.723.144M159.072 11.879H91.057m0 0v3.779m0 0h68.015m0 0v-3.779M91.057 11.879h68.015m0 0v1.889m0 0H91.057m0 0v-1.889M89.168 11.879H72.165m0 0v18.893m0 0h17.003m0 0V11.879M160.962 11.879h17.003m0 0v18.893m0 0h-17.003m0 0V11.879M119.019 17.547H93.324m0 0l-.267.111m0 0l-.111.267m0 0v12.47m0 0l.111.267m0 0l.267.11m0 0h25.695m0 0l.267-.11m0 0l.111-.267m0 0v-12.47m0 0l-.111-.267m0 0l-.267-.111M131.111 17.547h25.695m-.001 0l.267.111m0 0l.111.267m.001 0v12.47m0 0l-.111.267m-.001 0l-.267.11m0 0H131.11m.001 0l-.267-.11m-.001 0l-.111-.267m0 0v-12.47m0 0l.111-.267m0 0l.267-.111M159.072 29.749h-1.889M130.733 29.749h-11.336M92.946 29.749h-1.889M159.072 34.758H91.057m0 0v18.686m0 0l68.015-14.908m0 0v-3.778M79.725 174.266v-15.115m0 0h75.572m0 0v15.115m0 0H79.725M140.22 169.385v1.02m0 0H95.851m0 0v-1.02m0 0h44.369M130.759 170.404v.833m0 0l-.152.566m0 0l-.415.415m0 0l-.567.152m0 0h-22.699m0 0l-.566-.152m0 0l-.415-.415m0 0l-.152-.566m0 0v-.833m0 0h24.966M140.22 169.088v.297m0-.001H95.851m0 0v-.297m0 .001h44.369M277.536 473.061v-22.672m0 0h-36.653m0 0v22.672m0 0h36.653M240.883 461.347v.756m0 0h36.653m0 0v-.756m0 0h-36.653M270.949 471.068v-18.626m0 0h-.755m0 0v18.626m0 0h.755M268.945 471.068v-18.626m0 0h-.756m0 0v18.626m0 0h.756M266.94 471.068v-18.626m0 0h-.756m0 0v18.626m0 0h.756M264.935 471.068v-18.626m0 0h-.755m0 0v18.626m0 0h.755M260.689 470.932l2.242-18.49m0 0l-.751-.091m0 0l-2.241 18.49m0 0l.75.091M277.536 327.773h-22.861m0 0v63.67m0 0h22.861m0 0v-63.67M265.822 391.443h.756m0 0v-63.67m0 0h-.756m0 0v63.67M275.543 334.359h-18.626m0 0v.756m0 0h18.626m0 0v-.756M275.543 336.364h-18.626m0 0v.756m0 0h18.626m0 0v-.756M275.543 338.369h-18.626m0 0v.756m0 0h18.626m0 0v-.756M275.543 340.374h-18.626m0 0v.755m0-.001h18.626m0 0v-.755M275.408 344.619l-18.491-2.241m0 0l-.091.75m0 0l18.491 2.242m0 0l.091-.751M254.675 327.773v22.672m0 0h-22.672m0 0v-22.672m0 0h22.672M214.659 338.593l1.233.448m0 0h1.313m0 0l1.233-.448m0 0l1.473.342m0 0h1.513m0 0l1.473-.342m0 0l1.234.449m0 0h1.314m0 0l1.235-.449m0 0l-2.232 2.986m0 0h-7.558m0 0l-2.231-2.986M216.891 341.841h7.558m0 0v-.262m0 0h-7.558m0 0v.262M216.891 342.365h7.558m0 0v-.262m0 0h-7.558m0 0v.262M221.511 337.078l-.891-.085m0 0l-.021.226m0 0l.476.045m0 0l-1.383 1.142m0 0l.126.152m0 0l.642-.53m0 0l.067.082m0-.001l-.74.611m0 .001l.121.146m0 0l.74-.611m0 0l.08.097m0 0l-.601.497m0 0l.107.13m0 0l.602-.497m0 0l.08.098m0 0l-.414.343m0 0l.115.139m0 0l1.422-1.174M232.003 327.773v22.672m0 0h-22.671m0 0v-22.672m0 0h22.671M160.209 334.196v-22.671m0 0h-49.877m0 0v22.671m0 0h49.877M110.332 322.482v.756m0 0h49.877m0 0v-.756m0 0h-49.877M151.356 332.203v-18.625m0 0h-.756m0 0v18.625m0 0h.756M149.351 332.203v-18.625m0 0h-.755m0 0v18.625m0 0h.755M147.346 332.203v-18.625m0 0h-.756m0 0v18.625m0 0h.756M145.342 332.203v-18.625m0 0h-.755m-.001 0v18.625m0 0h.755M141.096 332.068l2.241-18.49m0 0l-.75-.092m0 0l-2.241 18.491m0 0l.75.091M144.717 473.061v-22.294m0 0H64.988m0 0v22.294m0 0h79.729M64.988 461.347v.756m0 0h79.729m0 0v-.756m0 0H64.988M138.508 471.068v-18.626m0 0h-.755m0 0v18.626m0 0h.755M136.504 471.068v-18.626m0 0h-.756m0 0v18.626m0 0h.756M134.499 471.068v-18.626m0 0h-.755m0 0v18.626m0 0h.755M132.494 471.068v-18.626m0 0h-.755m0 0v18.626m0 0h.755M128.248 470.932l2.242-18.49m0 0l-.751-.091m0 0l-2.241 18.49m0 0l.75.091M334.425 701.668h22.672m0 0V612.87m0-.001h-22.672m0 0v88.798M345.761 612.87h-.756m0 0v88.798m0 0h.756m0 0V612.87M335.702 687.146h18.626m0 0v-.756m0 0h-18.626m0 0v.756M335.702 685.141h18.626m0 0v-.755m0 0h-18.626m0 0v.755M335.702 683.137h18.626m0 0v-.756m0 0h-18.626m0 0v.756M335.702 681.132h18.626m0 0v-.756m0 0h-18.626m0 0v.756M335.837 676.886l18.491 2.241m0 0l.091-.75m0 0l-18.491-2.241m0 0l-.091.75M93.376 484.713l1.233.449m0 0h1.313m0 0l1.233-.449m0 0l1.473.342m0-.001h1.513m0 0l1.473-.342m0 .001l1.234.45m0-.001h1.314m0 0l1.235-.45m0 .001l-2.232 2.987m0-.001h-7.558m0 0l-2.231-2.987M95.608 487.961h7.558m-.001 0v-.262m0 0h-7.558m.001 0v.262M95.608 488.484h7.558m-.001 0v-.261m0 0h-7.558m.001 0v.261M100.228 483.197l-.891-.085m0 0l-.021.226m0 0l.476.046m0 0l-1.383 1.142m0 0l.126.152m0 0l.642-.53m0 0l.067.081m0 0l-.74.611m0 0l.121.146m0 0l.74-.61m0 0l.08.097m0 0l-.601.496m0 0l.107.131m0 0l.602-.497m0 0l.08.098m0 0l-.414.342m0 0l.115.14m0 0l1.422-1.174M88.049 476.084h22.671m-.001 0v22.672m0 0h-22.67m0 0v-22.672M237.331 338.593l1.233.448m0 0h1.312m0 0l1.234-.448m0 0l1.473.342m0 0h1.512m0 0l1.473-.342m0 0l1.235.449m0 0h1.314m0 0l1.235-.449m0 0l-2.232 2.986m0 0h-7.558m0 0l-2.231-2.986M239.563 341.841h7.558m0 0v-.262m0 0h-7.558m0 0v.262M239.563 342.365h7.558m0 0v-.262m0 0h-7.558m0 0v.262M244.183 337.078l-.891-.085m0 0l-.021.226m0 0l.476.045m0 0l-1.383 1.142m0 0l.126.152m0 0l.642-.53m0 0l.067.082m0-.001l-.74.611m0 .001l.121.146m0 0l.74-.611m0 0l.08.097m0 0l-.601.497m0 0l.107.13m0 0l.602-.497m0 0l.08.098m0 0l-.414.343m0 0l.115.139m0 0l1.422-1.174M200.814 83.555h22.671m0 0V42.108m0 0h-22.671m0 0v41.447M212.527 42.108h-.756m0 0v41.447m0 0h.756m0 0V42.108M202.806 76.968h18.626m0 0v-.755m0 0h-18.626m0 0v.755M202.806 74.964h18.626m0 0v-.756m0 0h-18.626m0 0v.756M202.806 72.959h18.626m0 0v-.756m0 0h-18.626m0 0v.756M202.806 70.955h18.626m0 0V70.2m0 0h-18.626m0 0v.755M202.942 66.709l18.491 2.242m0 0l.091-.751m0 0l-18.491-2.241m0 0l-.091.75M468.461 694.956l-.86-3.679m0 0l-3.431-1.584m0 0l3.431 1.584m0 0l3.546-1.306M468.461 598.799l-.86 3.68m0 0l-3.431 1.583m0 0l3.431-1.583m0 0l3.546 1.305M76.986 22.186l3.68-.86m.001 0l1.583-3.431m-.001 0l-1.583 3.431m.001 0l1.305 3.546M173.143 22.186l-3.679-.86m0 0l-1.584-3.431m0 0l1.584 3.431m0 0l-1.306 3.546M190.677 615.793l-.743 1.187m0 0l-.939.942m0 0l-.614.4m0 0l-.711.294m0 0l-.933.15m0-.001l-.941-.088m0 .001l-.957-.339m0 0l-.812-.596m0-.001l-.78-1.138m0 .001l-.733-1.182m0 0l-.846-.755m0-.001l-1.042-.451m0 0l-.949-.127m0 0l-.838.044m0 0l-.829.164M178.011 614.297l.568-.866m0 0l.688-.763m0 0l.937-.7m0 0l.906-.38m0 0l.955-.151m0 0l.956.089m0 0l.907.344m0 0l.468.295M184.396 612.166l-.108-.415m0 0l-.44-.426m0 0l-.516-.246m0 0l-.245-.052M183.087 611.027l.986-.771m0 0l1.036-.382m0 0l1.11-.126m0 0l1.235.068m0 0l.587.156m0 0l.542.274m0 0l.846.825m0 0l.858 1.317m0 0l.755 1.629M191.042 614.017l-.6-.597m0 0l-1.209-.862m0 0l-.458-.228m0 0l-.49-.109m0 0l-.638.14m0 0l-.579.378m0 0l-.548.697m0 0l-.427.169m0 0l-.474.014m0 0l-.714-.151m0 0l-.832-.606M184.072 612.862l.111.592m0 0l.374.777m0 0l.566.665m0 0l.435.371m0 0l.499.268m0 0l.469.098m0 0l.79-.029m0 0l.997-.358M188.314 615.246l-.601.618m-.001 0l-.846.292m.001 0l-.711.027m0 0l-.281-.06M185.874 616.122l.452.693m0 .001l.527.47m0 0l.651.22m0-.001l.505-.071m0 .001l.475-.212m0 0l1.387-.905m0-.001l.806-.525M174.217 601.534v22.906m0 0h-1.889m0 0v-22.906m0 0h1.889M198.777 601.534v22.906m0 0h-1.89m0 0v-22.906m0 0h1.89M198.778 599.645v1.889m0 0h-26.45m0 0v-1.889m0 0h26.45M85.776 545.121v-21.916m0 0H67.26m0 0v21.916m0 0h18.516M74.496 534.163h-5.299M69.197 534.163v-1.097M74.496 534.163v-1.097M74.496 525.308h-5.299M69.197 526.404v-1.096M74.496 526.404v-1.096M74.37 540.409a2.74 2.74 0 11-5.479-.001 2.74 2.74 0 015.479.001zM83.837 539.137a3.968 3.968 0 11-7.936 0 3.968 3.968 0 017.936 0z"/><path class="st2" d="M82.137 539.137a2.267 2.267 0 11-4.535 0 2.267 2.267 0 014.535 0zM74.461 529.735a2.646 2.646 0 11-5.292 0 2.646 2.646 0 015.292 0zM83.807 528.618a3.4 3.4 0 11-6.803-.001 3.4 3.4 0 016.803.001zM88.049 567.531v-91.447M64.988 567.531v-91.447M88.049 567.531H64.988M88.049 476.084H64.988M77.358 307.445l-.194-.107M77.163 307.337l-.138-.172M77.025 307.165l-.06-.213M76.965 306.953l.026-.22M76.991 306.733l.108-.192M77.1 306.541l.175-.138M77.275 306.404l.214-.06M77.489 306.344l.221.026M87.09 299.618l.042-.217M87.133 299.401l.124-.183M87.257 299.218l.184-.123M87.442 299.095l.218-.043M77.358 307.445l-1.339-.431M76.019 307.014l-.073-.143M75.946 306.872l.282-.859M76.228 306.012l.144-.073M76.372 305.939l1.338.432M87.067 300.234l.022-.616M87.09 299.618v-1.395M87.09 298.223l.114-.112M87.203 298.111h.457M97.962 307.445l.194-.107M98.156 307.337l.138-.172M98.294 307.165l.061-.213M98.354 306.953l-.025-.22M98.328 306.733l-.108-.192M98.22 306.541l-.175-.138M98.045 306.404l-.214-.06M97.831 306.344l-.221.026M88.23 299.618l-.043-.217M88.187 299.401l-.124-.183M88.063 299.218l-.185-.123M87.878 299.095l-.218-.043M97.962 307.445l1.338-.431M99.3 307.014l.074-.143M99.374 306.872l-.282-.859M99.091 306.012l-.144-.073M98.948 305.939l-1.338.432M95.896 306.057l-.371-.597M88.252 300.239l-.022-.621M88.23 299.618v-1.395M88.23 298.223l-.114-.112M88.116 298.111h-.457M77.108 310.733l.116-2.154m0 0l.329-1.827m-.001 0l.494-1.221m.001 0l.582-.428m-.001 0l.582.428m.001 0l.494 1.221m-.001 0l.329 1.827m.001 0l.116 2.154m0 0l-.042.791m-2.958 0l-.043-.791M98.212 310.733l-.116-2.154m0 0l-.33-1.827m0 0l-.493-1.221m0 0l-.582-.428m0 0l-.582.428m0 0l-.494 1.221m0 0l-.329 1.827m0 0l-.116 2.154m0 0l.043.791m2.957 0l.042-.791M81.733 302.149l.963-.29M79.451 303.389l-.301.413M80.192 302.792l-.741.597M81.733 302.149l-1.541.644M86.253 300.313l1.407-.069M87.66 304.352l-2.154.091M85.506 304.443l-2.084.3M83.422 304.743l-1.945.538M81.477 305.281l-1.475.291M80.003 305.572l-.674-.441M79.33 305.13l-.192-.671M79.137 304.459l-.034-.396M79.104 304.062l.046-.26M79.15 303.802v-.462M79.15 303.34l.301-.412M79.451 302.928l1.179-1.107M80.629 301.821l.959-.418M81.588 301.403l1.199-.442M82.787 300.96l1.819-.413M84.606 300.547l1.647-.234M93.587 302.149l-.963-.29M95.868 303.389l.301.413M95.127 302.792l.741.597M93.587 302.149l1.54.644M89.066 300.313l-1.406-.069M87.66 304.352l2.154.091M89.814 304.443l2.083.3M91.897 304.743l1.946.538M93.843 305.281l1.474.291M95.317 305.572l.673-.441M95.99 305.13l.192-.671M96.182 304.459l.033-.396M96.215 304.062l-.045-.26M96.17 303.802v-.462M96.17 303.34l-.302-.412M95.868 302.928l-1.178-1.107M94.69 301.821l-.959-.418M93.731 301.403l-1.198-.442M92.533 300.96l-1.819-.413M90.713 300.547l-1.647-.234M85.364 300.722l-.757.127m0 0l-.75.162m0 0l-1.109.268m0 0l-.104.138m0 0l.01.273m0 0l.18.732m0 0l.235.492m0 0l.314.152m0 0l.924-.223m0 0l.661-.143m0 0l.667-.113m0 0l.672-.079m0 0l.676-.048m0 0l.676-.016m0 0l.677.016m0 0l.675.048m0 0l.672.079m0 0l.668.113m0 0l.661.143m0 0l.924.223m0 0l.314-.152m0 0l.235-.492m0 0l.18-.732m0 0l.01-.273m0 0l-.104-.138m0 0l-1.109-.268m0 0l-.75-.162m0 0l-.757-.127m0 0l-.762-.09m0 0l-.766-.055m0 0l-.768-.018m0 0l-.767.018m0 0l-.766.055m0 0l-.762.09M79.404 306.057l.371-.597M87.66 358.011v20.405m0 0h45.344m0 0v-20.405m0 0H87.66"/><g><path class="st2" d="M100.029 353.931l-.194-.107M99.835 353.824l-.138-.173M99.697 353.651l-.06-.212M99.637 353.439l.026-.22M99.663 353.219l.108-.192M99.772 353.027l.174-.137M99.946 352.89l.214-.06M100.161 352.83l.221.026M109.761 346.104l.043-.217M109.805 345.887l.124-.183M109.928 345.704l.185-.123M110.113 345.581l.218-.042M100.029 353.931l-1.338-.431M98.691 353.5l-.073-.143M98.618 353.358l.282-.859M98.9 352.498l.144-.073M99.044 352.425l1.338.432M109.739 346.72l.022-.616M109.761 346.104v-1.395M109.761 344.709l.114-.112M109.875 344.597h.457M120.634 353.931l.194-.107M120.828 353.824l.138-.173M120.966 353.651l.061-.212M121.026 353.439l-.026-.22M121 353.219l-.108-.192M120.892 353.027l-.175-.137M120.716 352.89l-.214-.06M120.502 352.83l-.221.026M110.902 346.104l-.043-.217M110.858 345.887l-.123-.183M110.735 345.704l-.185-.123M110.55 345.581l-.218-.042M120.634 353.931l1.338-.431M121.972 353.5l.074-.143M122.045 353.358l-.281-.859M121.763 352.498l-.144-.073M121.62 352.425l-1.338.432M118.568 352.543l-.371-.597M110.924 346.725l-.022-.621M110.902 346.104v-1.395M110.902 344.709l-.114-.112M110.788 344.597h-.457M99.779 357.219l.116-2.154m0 0l.329-1.827m0 0l.494-1.221m0 0l.582-.428m0 0l.582.428m0 0l.494 1.221m0 0l.329 1.827m0 0l.116 2.154m0 0l-.043.791m-2.956 0l-.043-.791M120.884 357.219l-.116-2.154m0 0l-.33-1.827m0 0l-.493-1.221m0 0l-.582-.428m0 0l-.582.428m0 0l-.494 1.221m0 0l-.329 1.827m0 0l-.116 2.154m0 0l.043.791m2.956 0l.042-.791M104.405 348.635l.963-.29M102.123 349.875l-.301.413M102.864 349.279l-.742.597M104.405 348.635l-1.541.644M108.925 346.799l1.407-.069M110.331 350.838l-2.153.091M108.178 350.929l-2.084.3M106.094 351.229l-1.945.538M104.149 351.767l-1.475.291M102.674 352.058l-.673-.441M102.002 351.617l-.193-.671M101.809 350.946l-.034-.397M101.775 350.548l.047-.26M101.822 350.289v-.462M101.822 349.827l.301-.412M102.123 349.414l1.178-1.107M103.301 348.307l.959-.418M104.26 347.889l1.198-.442M105.459 347.447l1.819-.413M107.278 347.034l1.647-.234M116.258 348.635l-.962-.29M118.54 349.875l.301.413M117.798 349.279l.742.597M116.258 348.635l1.54.644M111.738 346.799l-1.407-.069M110.331 350.838l2.154.091M112.485 350.929l2.084.3M114.569 351.229l1.945.538M116.515 351.767l1.474.291M117.989 352.058l.673-.441M118.662 351.617l.192-.671M118.854 350.946l.033-.397M118.887 350.548l-.046-.26M118.841 350.289v-.462M118.841 349.827l-.301-.412M118.54 349.414l-1.178-1.107M117.362 348.307l-.959-.418M116.403 347.889l-1.198-.442M115.205 347.447l-1.819-.413M113.385 347.034l-1.647-.234M108.036 347.208l-.757.127m0 0l-.75.162m0 0l-1.109.268m0 0l-.104.138m0 0l.01.273m0 0l.18.732m0 0l.235.492m0 0l.314.152m0 0l.924-.223m0 0l.661-.143m0 0l.667-.113m0 0l.672-.079m0 0l.676-.048m0 0l.676-.016m0 0l.677.016m0 0l.675.048m0 0l.672.079m0 0l.668.113m0 0l.661.143m0 0l.924.223m0 0l.314-.152m0 0l.235-.492m0 0l.18-.732m0 0l.01-.273m0 0l-.104-.138m0 0l-1.109-.268m0 0l-.75-.162m0 0l-.757-.127m0 0l-.762-.09m0 0l-.766-.055m0 0l-.768-.018m0 0l-.767.018m0 0l-.766.055m0 0l-.762.09M102.076 352.543l.371-.597"/></g><g><path class="st2" d="M122.811 617.214h3.028m0 0v-.858m0 0V599.18m0 0v-.86m0 0h-3.028M129.267 598.32h-3.427m-.001 0v.859m0 .001h3.224m.001 0v-.057m0-.001l-.196-.294m-.001 0l.087-.343m0 0l.312-.165M131.625 599.122l-.196-.294m0 0l.087-.343m0 0l.312-.165m.001 0h-2.562m-.001 0l-.312.165m0 0l-.087.343m0 0l.196.294m0 0v17.291m0 0l-.196.293m0 0l.087.343m0 0l.312.165m0 0h2.562m.001 0l-.312-.165m-.001 0l-.087-.343m0 0l.196-.293m0 0v-17.291M129.267 617.214l-.312-.165m-.001 0l-.087-.342m0 0l.196-.294m.001 0v-.057m0 0h-3.224m-.001 0v.858m0 0h3.427M132.031 615.55l.226-1.005v-13.556l-.226-1.005zM132.031 599.985v15.566m0-.001l.227-1.005m0 .001V600.99m0-.001l-.227-1.005M132.031 599.122l.197-.294m0 0l-.087-.343m0 0l-.312-.165m0 0l-.313.165m0 0l-.087.343m0 0l.197.294m0 0v17.291m0 0l-.197.293m0 0l.087.343m0 0l.313.165m0 0l.312-.165m0 0l.087-.343m0 0l-.197-.293m0 0v-17.291M122.811 639.13h3.028m0 0v-.859m0 .001v-17.175m0-.001v-.859m0 .001h-3.028M129.267 620.238h-3.427m-.001 0v.859m0-.001h3.224m.001 0v-.058m0 0l-.196-.294m-.001 0l.087-.342m0 .001l.312-.165M131.625 621.039l-.196-.294m0 0l.087-.342m0 0l.312-.165m.001 0h-2.562m-.001 0l-.312.165m0 0l-.087.342m0 0l.196.294m0 0v17.291m0 0l-.196.293m0 0l.087.343m0 0l.312.165m0 0h2.562m.001 0l-.312-.165m-.001 0l-.087-.343m0 0l.196-.293m0 0v-17.291M129.267 639.13l-.312-.165m-.001 0l-.087-.342m0 .001l.196-.294m.001-.001v-.058m0 .001h-3.224m-.001 0v.859m0-.001h3.427M132.031 637.467l.226-1.005v-13.556l-.226-1.005zM132.031 621.901v15.566m0 0l.227-1.005m0 0v-13.556m0 0l-.227-1.005M132.031 621.039l.197-.294m0 0l-.087-.342m0 0l-.312-.165m0 0l-.313.165m0 0l-.087.342m0 0l.197.294m0 0v17.291m0 0l-.197.293m0 0l.087.343m0 0l.313.165m0 0l.312-.165m0 0l.087-.343m0 0l-.197-.293m0 0v-17.291M88.803 617.214h-3.028m0 0v-.858m0 0V599.18m0 0v-.86m0 0h3.028M82.348 598.32h3.427m0 0v.859m0 .001h-3.224m0 0v-.057m0-.001l.196-.294m0 0l-.087-.343m0 0l-.312-.165M79.989 599.122l.196-.294m0 0l-.086-.343m0 0l-.313-.165m0 0h2.562m0 0l.312.165m0 0l.087.343m0 0l-.196.294m0 0v17.291m0 0l.196.293m0 0l-.087.343m0 0l-.312.165m0 0h-2.562m0 0l.313-.165m0 0l.086-.343m0 0l-.196-.293m0 0v-17.291M82.348 617.214l.312-.165m0 0l.087-.342m0 0l-.196-.294m0 0v-.057m0 0h3.224m0 0v.858m0 0h-3.427M79.357 600.989v13.556l.226 1.005v-15.566zM79.583 599.985v15.566m0-.001l-.227-1.005m0 .001V600.99m0-.001l.227-1.005M79.583 599.122l-.196-.294m0 0l.086-.343m0 0l.313-.165m0 0l.313.165m0 0l.086.343m.001 0l-.196.294m-.001 0v17.291m0 0l.196.293m.001 0l-.086.343m-.001 0l-.313.165m0 0l-.313-.165m0 0l-.086-.343m0 0l.196-.293m0 0v-17.291M88.803 639.13h-3.028m0 0v-.859m0 .001v-17.175m0-.001v-.859m0 .001h3.028M82.348 620.237l.313.166.087.342-.197.295v.056h3.224v-.859zM82.348 620.238h3.427m0 0v.859m0-.001h-3.224m0 0v-.058m0 0l.196-.294m0 0l-.087-.342m0 .001l-.312-.165M79.989 621.039l.196-.294m0 0l-.086-.342m0 0l-.313-.165m0 0h2.562m0 0l.312.165m0 0l.087.342m0 0l-.196.294m0 0v17.291m0 0l.196.293m0 0l-.087.343m0 0l-.312.165m0 0h-2.562m0 0l.313-.165m0 0l.086-.343m0 0l-.196-.293m0 0v-17.291M82.348 639.13l.312-.165m0 0l.087-.342m0 .001l-.196-.294m0-.001v-.058m0 .001h3.224m0 0v.859m0-.001h-3.427M79.357 622.906v13.556l.226 1.005v-15.566zM79.583 621.901v15.566m0 0l-.227-1.005m0 0v-13.556m0 0l.227-1.005M79.583 621.039l-.196-.294m0 0l.086-.342m0 0l.313-.165m0 0l.313.165m0 0l.086.342m.001 0l-.196.294m-.001 0v17.291m0 0l.196.293m.001 0l-.086.343m-.001 0l-.313.165m0 0l-.313-.165m0 0l-.086-.343m0 0l.196-.293m0 0v-17.291M122.811 642.154h3.028m0 0v.859m0 0v17.176m0 0v.858m0 0h-3.028M129.267 661.047h-3.427m-.001 0v-.858m0 0h3.224m.001 0v.057m0 0l-.196.294m-.001 0l.087.342m0 0l.312.165M131.625 660.246l-.196.294m0 0l.087.342m0 0l.312.165m.001 0h-2.562m-.001 0l-.312-.165m0 0l-.087-.342m0 0l.196-.294m0 0v-17.291m0 0l-.196-.293m0 0l.087-.343m0 0l.312-.165m0 0h2.562m.001 0l-.312.165m-.001 0l-.087.343m0 0l.196.293m0 0v17.291M129.267 642.154l-.312.165m-.001 0l-.087.342m0 0l.196.294m.001 0v.058m0 0h-3.224m-.001 0v-.859m0 0h3.427M132.031 659.383l.226-1.005v-13.556l-.226-1.005zM132.031 659.383v-15.566m0 .001l.227 1.005m0-.001v13.556m0 0l-.227 1.005M132.031 660.246l.197.294m0 0l-.087.342m0 0l-.312.165m0 0l-.313-.165m0 0l-.087-.342m0 0l.197-.294m0 0v-17.291m0 0l-.197-.293m0 0l.087-.343m0 0l.313-.165m0 0l.312.165m0 0l.087.343m0 0l-.197.293m0 0v17.291M88.803 642.154h-3.028m0 0v.859m0 0v17.176m0 0v.858m0 0h3.028M82.348 661.047h3.427m0 0v-.858m0 0h-3.224m0 0v.057m0 0l.196.294m0 0l-.087.342m0 0l-.312.165M79.989 660.246l.196.294m0 0l-.086.342m0 0l-.313.165m0 0h2.562m0 0l.312-.165m0 0l.087-.342m0 0l-.196-.294m0 0v-17.291m0 0l.196-.293m0 0l-.087-.343m0 0l-.312-.165m0 0h-2.562m0 0l.313.165m0 0l.086.343m0 0l-.196.293m0 0v17.291M82.348 642.154l.312.165m0 0l.087.342m0 0l-.196.294m0 0v.058m0 0h3.224m0 0v-.859m0 0h-3.427M79.357 644.822v13.556l.226 1.005v-15.565zM79.583 659.383v-15.566m0 .001l-.227 1.005m0-.001v13.556m0 0l.227 1.005M79.583 660.246l-.196.294m0 0l.086.342m0 0l.313.165m0 0l.313-.165m0 0l.086-.342m.001 0l-.196-.294m-.001 0v-17.291m0 0l.196-.293m.001 0l-.086-.343m-.001 0l-.313-.165m0 0l-.313.165m0 0l-.086.343m0 0l.196.293m0 0v17.291M88.804 669.359h34.007m0 0v-79.351m0 .001H88.804m0 0v79.351"/></g></g></g><g id="walls_4_"><path d="M277.473 400.09V.5h9.069v400.648h-1.512v.453h-7.557v-1.511h0zM41.12.5h23.805v39.864H41.12V.5h0zm245.422 441.155v-1.058h-1.512v-.454h-7.557v60.647h210.469v-8.313h-201.4v-50.822h0zm190.442 259.592h-17.192v23.805h28.15v-23.805h-10.958 0zm-100.321 23.805h-56.679v-23.805h56.679v23.805h0zm-122.806 0H130.579v-23.805h123.278v23.805h0zM41.12 435.803h23.805V567.11H41.12V435.803h0zm0-145.293h23.805v62.162H41.12V290.51h0zm0-167.016h23.805v83.886H41.12v-83.886z" fill-rule="evenodd" clip-rule="evenodd" stroke="#000" stroke-linecap="round" stroke-linejoin="round" stroke-miterlimit="3"/><path class="st4" d="M393.98 546.206c-1.627 4.364-2.041 6.439-2.279 11.075"/><path class="st5" d="M394.011 546.122l-.601 1.388 25.951 11.281h.453l.001-1.51z"/><path class="st4" d="M298.6 546.122c-1.601 4.295-2.075 6.581-2.31 11.159"/><path class="st5" d="M298.6 546.122l-.6 1.388 25.918 11.276.486.005-.032-1.515z"/><path class="st4" d="M347.027 596.338c-5.265 1.659-7.18 2.313-12.579 2.583"/><path class="st5" d="M347.113 596.312l-12.638-29.282-1.511-.002v.454l12.696 29.287z"/><g><path class="st4" d="M147.612 417.329c4.8-1.796 7.419-2.317 12.536-2.578"/><path class="st5" d="M147.488 417.371l12.659 29.271h1.511v-.453l-12.783-29.418z"/><g><path class="st4" d="M302.104 404.353c-5.972-2.227-9.198-2.879-15.562-3.204"/><path class="st5" d="M302.2 404.388l-1.387-.601-15.782 36.395v.415h1.511z"/><g><path class="st4" d="M221.833 359.144c-4.868-1.816-7.375-2.319-12.564-2.584"/><path class="st5" d="M221.928 359.179l-1.387-.6-12.784 29.418v.454h1.513z"/></g><g><path class="st4" d="M147.585 251.264c4.816-1.797 7.43-2.322 12.562-2.584"/><path class="st5" d="M147.488 251.3l12.659 29.272h1.511v-.454L148.875 250.7z"/><g><path class="st4" d="M243.732 187.926c1.602-4.295 2.032-6.481 2.266-11.059"/><path class="st5" d="M243.688 188.026l.6-1.388-25.95-11.282h-.454v1.511z"/><g><path class="st4" d="M170.209 161.318c-1.695 4.544-2.337 7.764-2.58 12.526"/><path class="st5" d="M170.247 161.23l-.6 1.388 29.326 12.738h.453l.001-1.512z"/></g></g></g></g></g><path class="st0" d="M476.984 500.79h10.958v200.457h-10.958V560.303l-57.623.001v-1.512h.453v-1.51l42.056-.001V500.79h3.023v10.58h12.091v-10.58zM64.925 475.662v-3.022h79.604c0-7.935-.013-15.871.004-23.806h15.613l.001-2.192h1.511v-.453h1.512v29.473H64.925zm95.221-3.022v-20.783h-12.594v20.783h12.594zm12.119 126.583l26.45.001v52.9h-26.45v-52.901zm3.023 24.886h20.404v-21.863h-20.404v21.863zm20.404 3.023h-20.404v21.97h20.404v-21.97zm281.292-69.851v-42.888h-12.091v42.888h12.091zM277.473.5v10.958H64.925V.5h212.548zM163.17 176.867h4.912v-1.511h-.454v-1.512H64.925v3.023h95.222v71.813h1.511v.453h1.512v-72.266zm-.001 104.763v132.063h.001v1.511h-1.512v-.453h-1.511v-1.058h-.001v-76.895H64.925v-3.022h95.221V281.63h.001v-1.058h1.511v-.454h1.512l-.001 1.512zm83.886-107.786h30.418v3.023h-31.476v-1.511h-.453v-1.512h1.511zm84.371 424.621l-.086 102.782h3.023l.085-102.326-1.511-.002.001-.453-1.512-.001zm-63.4-88.795H299.2v-8.879h-3.023v5.858h-28.151v-16.627h9.447v-3.023h-9.447v-11.337h9.447v-3.022H240.82v3.022h24.184v84.642l31.74.001v-1.512h-.453v-1.51l-28.265-.001V509.67zm124.129 50.633v-1.512h-.453v-1.51h-57.218l.046-56.492h-3.022l-.048 56.491-7.056.001v1.51h-.454v1.512l7.508-.001-.006 7.178 1.511.002.001-.454 1.511.002.005-6.727h57.675zM209.269 324.328V176.867h8.615v-1.511h.454v-1.512h-18.913v1.512h-.453v1.511h7.274v180.147h1.511v-.453h1.512v-29.21h68.204v-3.023h-11.714v-11.714h11.714v-3.022h-11.714v-19.366h11.714v-3.023h-14.737v37.125h-53.467zm0 64.123h-1.512v-.454h-1.511v6.046h71.227v-3.022h-68.204v-2.57z"/><g><path class="st6" d="M46.788 614.103h1.89v5.133h-1.89zM46.788 656.61h1.89v5.133h-1.89z"/><g><path class="st4" d="M48.678 123.494h16.247M41.12 123.494h5.668M46.788 123.494h1.889M48.678 40.364h16.247M41.12 40.364h5.668M46.788 40.364h1.889M41.12 40.364v83.129M64.925 40.364v83.129M48.678 40.364v3.779M48.678 44.143h-1.889M46.788 44.143v-3.779M46.788 80.04v-1.889M46.788 78.151h1.889M48.678 78.151v1.889M47.733 44.143v34.008M48.678 44.143v34.008M46.788 78.151V44.143M48.678 80.04v.944M48.678 80.984h-.946M47.733 80.984v.945M47.733 81.929h-.944M46.788 81.929V80.04M46.788 123.494v-3.778M46.788 119.715h.944M47.733 119.715v.946M47.733 120.66h.945M48.678 120.66v2.833M49.622 120.66l28.055-28.055M46.788 119.715V81.929M49.622 83.818v34.007M49.622 80.984v2.834M49.622 83.818h-1.889M47.733 83.818v-2.834M47.733 80.984h1.889M47.733 120.66v-2.834M47.733 117.826h1.889M49.622 117.826v2.834M49.622 120.66h-1.889M47.733 117.826V83.819M49.622 83.818v34.007M48.678 83.818v34.007M49.622 80.984a39.673 39.673 0 0128.055 11.621M46.788 40.364h1.889M46.788 40.364h1.889M41.12 40.364h5.668M48.678 40.364h16.247M46.788 123.494h1.889M46.788 123.494h1.889M41.12 123.494h5.668M48.678 123.494h16.247"/><g><path class="st4" d="M48.678 290.509h16.247M41.12 290.509h5.668M46.788 290.509h1.889M48.678 207.38h16.247M41.12 207.38h5.668M46.788 207.38h1.889M41.12 207.38v83.129M64.925 207.38v83.129M48.678 207.38v3.779M48.678 211.158h-1.889M46.788 211.158v-3.778M46.788 247.055v-1.889M46.788 245.166h1.889M48.678 245.166v1.889M47.733 211.158v34.009M48.678 211.158v34.009M46.788 245.166v-34.008M48.678 247.055v.944M48.678 248h-.946M47.733 248v.945M47.733 248.945h-.944M46.788 248.945v-1.89M46.788 290.509v-3.778M46.788 286.731h.944M47.733 286.731v.944M47.733 287.675h.945M48.678 287.675v2.834M49.622 287.675l28.055-28.054M46.788 286.731v-37.787M49.622 250.834v34.008M49.622 248v2.834M49.622 250.834h-1.889M47.733 250.834V248M47.733 248h1.889M47.733 287.675v-2.833M47.733 284.842h1.889M49.622 284.842v2.833M49.622 287.675h-1.889M47.733 284.842v-34.009M49.622 250.834v34.008M48.678 250.834v34.008M49.622 248a39.677 39.677 0 0128.055 11.621M46.788 207.38h1.889M46.788 207.38h1.889M41.12 207.38h5.668M48.678 207.38h16.247M46.788 290.509h1.889M46.788 290.509h1.889M41.12 290.509h5.668M48.678 290.509h16.247"/></g><g><path class="st4" d="M48.678 435.802h16.247M41.12 435.802h5.668M46.788 435.802h1.889M48.678 352.672h16.247M41.12 352.672h5.668M46.788 352.672h1.889M41.12 352.672v83.131M64.925 352.672v83.131M48.678 352.672v3.778M48.678 356.451h-1.889M46.788 356.451v-3.778M46.788 392.348v-1.89M46.788 390.459h1.889M48.678 390.459v1.89M47.733 356.451v34.008M48.678 356.451v34.008M46.788 390.459v-34.008M48.678 392.348v.944M48.678 393.293h-.946M47.733 393.293v.945M47.733 394.238h-.944M46.788 394.238v-1.89M46.788 435.802v-3.778M46.788 432.024h.944M47.733 432.024v.944M47.733 432.968h.945M48.678 432.968v2.834M49.622 432.968l28.055-28.054M46.788 432.024v-37.786M49.622 396.127v34.007M49.622 393.293v2.834M49.622 396.127h-1.889M47.733 396.127v-2.834M47.733 393.293h1.889M47.733 432.968v-2.834M47.733 430.134h1.889M49.622 430.134v2.834M49.622 432.968h-1.889M47.733 430.134v-34.008M49.622 396.127v34.007M48.678 396.127v34.007M49.622 393.293a39.677 39.677 0 0128.055 11.621M46.788 352.672h1.889M46.788 352.672h1.889M41.12 352.672h5.668M48.678 352.672h16.247M46.788 435.802h1.889M46.788 435.802h1.889M41.12 435.802h5.668M48.678 435.802h16.247"/></g><g><path class="st4" d="M376.663 717.495v-16.248M376.663 725.051v-5.667M376.663 719.384v-1.89M459.792 717.495v-16.248M459.792 725.051v-5.667M459.792 719.384v-1.89M459.792 725.051h-83.13M459.792 701.247h-83.13M459.792 717.495h-3.778M456.014 717.495v1.89M456.014 719.384h3.778M405.002 719.384h1.889M406.891 719.384v-1.89M406.891 717.495h-1.888M456.014 718.439h-49.123M456.014 717.495h-49.123M406.891 719.384h49.123M405.002 717.495h-.944M404.058 717.495v.944M404.058 718.439h-.945M403.113 718.439v.945M403.113 719.384h1.889M376.663 719.384h3.778M380.441 719.384v-.944M380.441 718.439h-.945M379.496 718.439v-.944M379.496 717.495h-2.833M380.441 719.384h22.672M401.224 716.55H382.33M404.058 716.55h-2.834M401.224 716.55v1.89M401.224 718.439h2.833M404.058 718.439v-1.89M379.496 718.439h2.834M382.33 718.439v-1.89M382.33 716.55h-2.834M379.496 716.55v1.89M382.33 718.439h18.893M401.224 716.55H382.33M401.224 717.495H382.33M459.792 719.384v-1.89M459.792 719.384v-1.89M459.792 725.051v-5.667M459.792 717.495v-16.248M376.663 719.384v-1.89M376.663 719.384v-1.89M376.663 725.051v-5.667M376.663 717.495v-16.248"/></g><g><path class="st4" d="M253.857 717.495v-16.248M253.857 725.051v-5.667M253.857 719.384v-1.89M319.983 717.495v-16.248M319.983 725.051v-5.667M319.983 719.384v-1.89M319.983 725.051h-66.125M319.983 701.247h-66.125M319.983 717.495h-3.778M316.204 717.495v1.89M316.204 719.384h3.778M282.197 719.384h1.89M284.086 719.384v-1.89M284.086 717.495h-1.89M316.204 718.439h-32.118M316.204 717.495h-32.118M284.086 719.384h32.118M282.197 717.495h-.944M281.252 717.495v.944M281.252 718.439h-.945M280.308 718.439v.945M280.308 719.384h1.889M253.857 719.384h3.779M257.636 719.384v-.944M257.636 718.439h-.945M256.691 718.439v-.944M256.691 717.495h-2.833M257.636 719.384h22.671M278.418 716.55h-18.893M281.252 716.55h-2.834M278.418 716.55v1.89M278.418 718.439h2.834M281.252 718.439v-1.89M256.691 718.439h2.834M259.525 718.439v-1.89M259.525 716.55h-2.834M256.691 716.55v1.89M259.525 718.439h18.893M278.418 716.55h-18.893M278.418 717.495h-18.893M319.983 719.384v-1.89M319.983 719.384v-1.89M319.983 725.051v-5.667M319.983 717.495v-16.248M253.857 719.384v-1.89M253.857 719.384v-1.89M253.857 725.051v-5.667M253.857 717.495v-16.248"/></g><g><path class="st4" d="M48.678 567.11h16.247M41.12 567.11h5.668M46.788 567.11h1.889M41.12 567.11v157.941M64.925 567.11v134.137M48.678 567.11v4.723M48.678 571.833h-1.889M46.788 571.833v-4.723M46.788 717.495v-4.724M46.788 712.771h1.889M48.678 712.771v4.724M46.788 719.384v-1.89M48.678 571.833v140.938M46.788 712.771V571.833M46.788 567.11h1.889M46.788 567.11h1.889M41.12 567.11h5.668M48.678 567.11h16.247M130.579 717.495v-16.248M130.579 725.051v-5.667M130.579 719.384v-1.89M130.579 725.051H41.12M130.579 701.247H64.925M130.579 717.495h-4.724M125.856 717.495v1.89M125.856 719.384h4.724M48.678 719.384h4.723M53.401 719.384v-1.89M53.401 717.495h-4.724M46.788 719.384h1.889M125.856 717.495H53.401M53.401 719.384h72.455M130.579 719.384v-1.89M130.579 719.384v-1.89M130.579 725.051v-5.667M130.579 717.495v-16.248"/></g><g><path class="st4" d="M41.12 123.494v83.886M41.12 39.231H.5m0 0v254.68m0-.001h40.62m0 0V39.231M2.389 292.021H41.12m0 0V41.12m0 0H2.389m0 0v250.901"/><g><path class="st4" d="M41.12 334.719H.5m0 0v120.916m0 0h40.62m0 0V334.719M2.389 453.747H41.12m0 0V336.609m0 0H2.389m0 0v117.138"/></g></g></g></g><g><path class="st7" d="M68.067.828l-3.15 2.77M75.487.828l-10.57 9.31M82.907.828l-12.44 10.96M90.327.828l-12.44 10.96M97.747.828l-12.44 10.96M105.177.828l-12.44 10.96M112.597.828l-12.44 10.96M120.027.828l-12.45 10.96M127.437.828l-12.44 10.96M134.857.828l-12.44 10.96M142.287.828l-12.44 10.96M149.707.828l-12.44 10.96M157.137.828l-12.45 10.96M164.557.828l-12.44 10.96M171.977.828l-12.44 10.96M179.397.828l-12.44 10.96M186.817.828l-12.44 10.96M194.237.828l-12.44 10.96M201.667.828l-12.44 10.96M209.087.828l-12.44 10.96M216.517.828l-12.45 10.96M223.927.828l-12.44 10.96M231.347.828l-12.44 10.96M238.777.828l-12.44 10.96M246.197.828l-12.44 10.96M253.627.828l-12.45 10.96M261.047.828l-12.44 10.96M71.677 174.178l-3.43 3.02M268.457.828l-12.44 10.96M79.097 174.178l-3.42 3.02M275.887.828l-12.44 10.96M277.467 5.978l-6.6 5.81M86.527 174.178l-3.43 3.02M93.947 174.178l-3.43 3.02M101.377 174.178l-3.43 3.02M108.797 174.178l-3.43 3.02M116.217 174.178l-3.42 3.02M123.637 174.178l-3.43 3.02M131.057 174.178l-3.43 3.02M138.477 174.178l-3.42 3.02M145.907 174.178l-3.43 3.02M153.327 174.178l-3.43 3.02M160.757 174.178l-3.43 3.02M167.617 174.668l-2.88 2.53M163.157 178.598l-3.02 2.66M163.157 185.138l-3.02 2.66M163.157 191.668l-3.02 2.66M163.157 198.208l-3.02 2.66M163.157 204.748l-3.02 2.66M205.287 174.178l-3.43 3.02M163.157 211.288l-3.02 2.66M209.257 177.218l-3.02 2.66M212.707 174.178l-3.42 3.02M163.157 217.828l-3.02 2.66M217.877 176.158l-1.18 1.04M209.257 183.758l-3.02 2.66M163.157 224.368l-3.02 2.66M209.257 190.298l-3.02 2.66M163.157 230.908l-3.02 2.66M209.257 196.828l-3.02 2.66M163.157 237.438l-3.02 2.66M163.157 243.978l-3.02 2.66M209.257 203.368l-3.02 2.66M249.817 174.178l-3.43 3.02M68.267 334.108l-3.35 2.95M209.257 209.908l-3.02 2.66M75.697 334.108l-3.43 3.02M257.247 174.178l-3.43 3.02M209.257 216.448l-3.02 2.66M83.107 334.108l-3.43 3.02M264.657 174.178l-3.43 3.02M209.257 222.988l-3.02 2.66M90.537 334.108l-3.43 3.02M272.087 174.178l-3.43 3.02M209.257 229.528l-3.02 2.66M277.467 175.978l-1.39 1.22M97.957 334.108l-3.43 3.02M209.257 236.058l-3.02 2.66M105.377 334.108l-3.43 3.02M163.157 283.208l-3.02 2.66M209.257 242.598l-3.02 2.66M163.157 289.748l-3.02 2.66M112.807 334.108l-3.43 3.02M209.257 249.138l-3.02 2.66M209.257 255.678l-3.02 2.66M120.227 334.108l-3.43 3.02M163.157 296.288l-3.02 2.66M209.257 262.218l-3.02 2.66M127.657 334.108l-3.43 3.02M163.157 302.828l-3.02 2.66M209.257 268.758l-3.02 2.66M135.067 334.108l-3.43 3.02M163.157 309.368l-3.02 2.66M209.257 275.288l-3.02 2.66M142.487 334.108l-3.43 3.02M163.157 315.898l-3.02 2.66M209.257 281.828l-3.02 2.66M149.917 334.108l-3.43 3.02M163.157 322.438l-3.02 2.66M209.257 288.368l-3.02 2.66M157.337 334.108l-3.43 3.02M163.157 328.978l-3.02 2.66M209.257 294.908l-3.02 2.66M163.157 335.518l-3.02 2.66M209.257 301.448l-3.02 2.66M163.157 342.058l-3.02 2.66M209.257 307.988l-3.02 2.66M163.157 348.598l-3.02 2.66M209.257 314.528l-3.02 2.66M163.157 355.138l-3.02 2.66M209.257 321.058l-3.02 2.66M163.157 361.668l-3.02 2.66M212.597 324.658l-6.36 5.6M163.157 368.208l-3.02 2.66M220.017 324.658l-3.42 3.02M209.257 334.138l-3.02 2.66M163.157 374.748l-3.02 2.66M265.747 290.918l-3.02 2.66M269.587 287.538l-3.43 3.02M209.257 340.678l-3.02 2.66M163.157 381.288l-3.02 2.66M227.447 324.658l-3.43 3.02M276.997 287.538l-3.43 3.02M234.857 324.658l-3.42 3.02M163.157 387.828l-3.02 2.66M66.497 472.968l-1.58 1.4M209.257 347.218l-3.02 2.66M265.747 297.448l-3.02 2.66M242.287 324.658l-3.43 3.02M209.257 353.758l-3.02 2.66M73.927 472.968l-3.44 3.03M163.157 394.368l-3.02 2.66M265.747 303.988l-3.02 2.66M249.707 324.658l-3.43 3.02M81.347 472.968l-3.44 3.03M163.157 400.898l-3.02 2.66M266.427 309.928l-3.7 3.26M273.847 309.928l-3.42 3.02M257.127 324.658l-3.42 3.02M88.777 472.968l-3.44 3.03M163.157 407.438l-3.02 2.66M265.747 317.068l-3.02 2.66M96.197 472.968l-3.44 3.03M163.157 413.978l-1.51 1.33M265.747 323.608l-4.62 4.07M103.617 472.968l-3.44 3.03M271.977 324.658l-3.43 3.02M277.467 326.368l-1.49 1.31M111.047 472.968l-3.44 3.03M207.127 388.328l-.89.78M118.457 472.968l-3.44 3.03M145.477 449.168l-.96.85M211.117 391.348l-3.44 3.03M147.537 453.888l-3.02 2.66M152.897 449.168l-3.43 3.02M125.877 472.968l-3.44 3.03M218.537 391.348l-3.44 3.03M147.537 460.428l-3.02 2.66M163.157 446.668l-6.26 5.52M133.307 472.968l-3.44 3.03M225.957 391.348l-3.44 3.03M140.727 472.968l-3.44 3.03M163.157 453.208l-3.02 2.66M233.387 391.348l-3.44 3.03M147.537 466.968l-3.02 2.66M148.157 472.968l-3.44 3.03M240.807 391.348l-3.44 3.03M163.157 459.748l-3.02 2.66M155.577 472.968l-3.44 3.03M248.227 391.348l-3.44 3.03M163.157 466.288l-3.02 2.66M163.157 472.828l-3.6 3.17M255.647 391.348l-3.44 3.03M263.067 391.348l-3.44 3.03M270.487 391.348l-3.43 3.03M277.467 391.748l-2.99 2.63M244.647 472.968l-3.43 3.02M252.067 472.968l-3.43 3.02M259.487 472.968l-3.43 3.02M266.907 472.968l-3.43 3.02M274.327 472.968l-3.43 3.02M268.017 478.528l-3.02 2.66M268.017 485.068l-3.02 2.66M272.877 487.328l-3.43 3.02M268.017 491.608l-3.02 2.66M277.467 489.828l-.6.52M268.017 498.148l-3.02 2.66M268.017 504.678l-3.02 2.66M272.837 506.978l-3.43 3.02M268.017 511.218l-3.02 2.66M175.157 599.558l-2.9 2.56M280.257 506.978l-3.43 3.02M268.017 517.758l-3.02 2.66M175.277 605.998l-3.02 2.66M182.587 599.558l-3.43 3.02M287.677 506.978l-3.43 3.02M268.017 524.298l-3.02 2.66M299.187 503.378l-3.02 2.66M175.277 612.538l-3.02 2.66M190.007 599.558l-3.43 3.02M295.107 506.978l-3.43 3.02M268.017 530.838l-3.02 2.66M268.017 537.378l-3.02 2.66M197.427 599.558l-3.42 3.02M175.277 619.078l-3.02 2.66M299.187 509.918l-.09.08M176.617 624.438l-4.36 3.84M198.707 604.978l-3.03 2.67M268.017 543.918l-3.02 2.66M184.027 624.438l-3.43 3.02M175.277 632.148l-3.02 2.66M198.707 611.508l-3.03 2.67M268.017 550.448l-3.02 2.66M191.447 624.438l-3.42 3.02M175.277 638.688l-3.02 2.66M198.707 618.048l-3.03 2.67M268.017 556.988l-3.02 2.66M334.517 504.948l-3.03 2.66M175.277 645.228l-3.02 2.66M198.707 624.588l-3.26 2.87M274.737 557.608l-3.44 3.03M177.927 649.428l-3.44 3.03M198.707 631.128l-3.03 2.67M334.507 511.498l-3.02 2.66M282.157 557.608l-3.44 3.03M185.357 649.428l-3.44 3.03M198.707 637.668l-3.03 2.67M334.507 518.038l-3.03 2.66M289.587 557.608l-3.44 3.03M192.777 649.428l-3.44 3.03M198.707 644.208l-3.03 2.67M296.277 558.258l-2.71 2.38M334.497 524.578l-3.02 2.67M198.707 650.738l-1.95 1.72M334.497 531.118l-3.03 2.67M334.487 537.668l-3.02 2.66M334.487 544.208l-3.03 2.66M326.697 557.608l-2.76 2.43M334.477 550.748l-3.03 2.67M334.477 557.288l-3.8 3.35M334.467 563.838l-3.03 2.67M341.547 557.608l-3.44 3.03M348.967 557.608l-3.44 3.03M356.387 557.608l-3.44 3.03M363.797 557.608l-3.43 3.03M371.227 557.608l-3.44 3.03M331.897 598.798l-.48.42M378.647 557.608l-3.44 3.03M334.437 603.098l-3.03 2.66M386.077 557.608l-3.44 3.03M391.777 559.118l-1.72 1.52M334.427 609.638l-3.02 2.67M464.887 501.258l-3.03 2.67M334.427 616.178l-3.03 2.67M464.887 507.798l-3.03 2.67M334.417 622.728l-3.02 2.67M467.877 511.698l-6.02 5.3M479.887 501.118l-2.91 2.56M334.407 629.268l-3.02 2.67M464.887 520.868l-3.03 2.67M487.307 501.118l-10.33 9.1M475.297 511.698l-3.44 3.03M423.187 557.608l-3.44 3.03M334.407 635.818l-3.02 2.66M430.607 557.608l-3.44 3.03M487.927 507.108l-10.95 9.65M464.887 527.408l-3.03 2.67M334.397 642.358l-3.02 2.66M438.027 557.608l-3.44 3.03M487.927 513.648l-10.95 9.65M464.887 533.948l-3.03 2.67M334.397 648.898l-3.03 2.66M445.457 557.608l-3.44 3.03M487.927 520.188l-10.95 9.65M464.887 540.488l-3.03 2.67M334.387 655.448l-3.02 2.66M452.877 557.608l-3.44 3.03M487.927 526.728l-10.95 9.65M464.887 547.028l-3.03 2.67M334.377 661.988l-3.02 2.66M464.887 553.558l-3.03 2.67M487.927 533.268l-10.95 9.64M334.377 668.528l-3.02 2.66M460.287 557.608l-3.43 3.03M487.927 539.798l-10.95 9.65M334.367 675.078l-3.02 2.66M467.717 557.608l-3.44 3.03M487.927 546.348l-10.95 9.64M334.367 681.618l-3.02 2.66M475.137 557.608l-3.44 3.03M334.357 688.168l-3.02 2.66M487.927 552.878l-10.95 9.65M334.357 694.708l-3.03 2.66M487.927 559.418l-10.95 9.65M334.347 701.248l-.37.33M487.927 565.958l-10.95 9.65M487.927 572.498l-10.95 9.65M487.927 579.038l-10.95 9.64M487.927 585.578l-10.95 9.64M487.927 592.108l-10.95 9.65M487.927 598.648l-10.95 9.65M487.927 605.188l-10.95 9.65M487.927 611.728l-10.95 9.65M487.927 618.268l-10.95 9.64M487.927 624.798l-10.95 9.65M487.927 631.348l-10.95 9.64M487.927 637.878l-10.95 9.65M487.927 644.418l-10.95 9.65M487.927 650.958l-10.95 9.65M487.927 657.498l-10.95 9.65M487.927 664.038l-10.95 9.64M487.927 670.568l-10.95 9.65M487.927 677.108l-10.95 9.65M487.927 683.648l-10.95 9.65M487.927 690.188l-10.95 9.65M487.927 696.728l-5.5 4.85"/></g><path class="st6" d="M476.984 500.79h10.958v200.457h-10.958V560.303l-57.623.001v-1.512h.453v-1.51l42.056-.001V500.79h3.023v10.58h12.091v-10.58zM64.925 475.662v-3.022h79.604c0-7.935-.013-15.871.004-23.806h15.613l.001-2.192h1.511v-.453h1.512v29.473H64.925zm95.221-3.022v-20.783h-12.594v20.783h12.594zm12.119 126.583l26.45.001v52.9h-26.45v-52.901zm3.023 24.886h20.404v-21.863h-20.404v21.863zm20.404 3.023h-20.404v21.97h20.404v-21.97zm281.292-69.851v-42.888h-12.091v42.888h12.091zM277.473.5v10.958H64.925V.5h212.548zM163.17 176.867h4.912v-1.511h-.454v-1.512H64.925v3.023h95.222v71.813h1.511v.453h1.512v-72.266zm-.001 104.763v132.063h.001v1.511h-1.512v-.453h-1.511v-1.058h-.001v-76.895H64.925v-3.022h95.221V281.63h.001v-1.058h1.511v-.454h1.512l-.001 1.512zm83.886-107.786h30.418v3.023h-31.476v-1.511h-.453v-1.512h1.511zm84.371 424.621l-.086 102.782h3.023l.085-102.326-1.511-.002.001-.453-1.512-.001zm-63.4-88.795v47.611l28.265.001v1.51h.453v1.512l-31.74-.001v-84.642H240.82v-3.022h36.653v3.022h-9.447v11.337h9.447v3.023h-9.447v16.627h28.151v-5.858h3.023v8.879l-31.174.001zm124.129 50.633v-1.512h-.453v-1.51h-57.218l.046-56.492h-3.022l-.048 56.491-7.056.001v1.51h-.454v1.512l7.508-.001-.006 7.178 1.511.002.001-.454 1.511.002.005-6.727h57.675zM209.269 324.328h53.467v-37.125h14.737v3.023h-11.714v19.366h11.714v3.022h-11.714v11.714h11.714v3.023h-68.204v29.21h-1.512v.453h-1.511V176.867h-7.274v-1.511h.453v-1.512h18.913v1.512h-.454v1.511h-8.615v147.461zm0 64.123h-1.512v-.454h-1.511v6.046h71.227v-3.022h-68.204v-2.57z"/></g><g id="sizes_1_"><g id="sizes"><path d="M177.159 666.422l-.682-.325a2.692 2.692 0 01-1.095-.945c-.276-.412-.45-.909-.523-1.49h1.523c.044.303.139.552.285.747s.336.341.568.436c.231.096.504.143.816.143.493 0 .876-.131 1.149-.395s.41-.635.41-1.113v-.322c0-.532-.129-.944-.388-1.234-.259-.291-.625-.436-1.099-.436h-.755v-1.422h.755c.415 0 .737-.124.967-.373s.344-.601.344-1.055v-.33c0-.419-.12-.744-.362-.974-.241-.229-.585-.345-1.029-.345-.254 0-.48.048-.681.144a1.3 1.3 0 00-.509.439c-.14.197-.241.445-.305.743h-1.516c.098-.581.282-1.079.553-1.494a2.712 2.712 0 011.029-.945c.415-.214.891-.322 1.428-.322.918 0 1.629.242 2.132.726s.754 1.165.754 2.044v.176c0 .532-.144.996-.432 1.391-.288.396-.696.685-1.224.865.581.127 1.031.412 1.352.856.319.444.479 1.011.479 1.699v.176c0 .62-.119 1.149-.358 1.589s-.588.774-1.044 1.004c-.457.229-1.007.344-1.651.344l-.891-.002zM188.731 656.996l-2.754 9.316h-1.59l2.754-9.229h-2.71v1.531h-1.494v-2.952h5.794v1.334zM190.635 664.818h1.494v1.494l-1.494 1.479v-2.973zM196.75 666.312h-1.494v-9.023l-1.516.93v-1.545l1.516-1.011h1.494v10.649zM6.378 350.495l3.713-4.951c.215-.282.382-.577.501-.882.12-.306.18-.59.18-.854v-.015c0-.425-.125-.754-.374-.988s-.603-.352-1.062-.352c-.435 0-.786.128-1.055.384-.269.257-.432.619-.491 1.088v.007H6.246v-.007c.088-.61.268-1.132.538-1.563a2.736 2.736 0 011.051-.989c.43-.227.925-.341 1.487-.341.635 0 1.177.109 1.626.326.449.218.791.534 1.025.949s.352.915.352 1.501v.007c0 .377-.078.77-.234 1.18s-.374.806-.652 1.187l-3.083 4.189h4.028v1.421H6.378v-1.297zM14.141 350.298h1.494v1.494l-1.494 1.479v-2.973zM19.228 351.587a2.587 2.587 0 01-1.019-.916c-.261-.399-.436-.881-.523-1.442v-.007h1.494v.007c.054.391.21.694.469.912.259.217.596.325 1.011.325.479 0 .848-.159 1.109-.479.261-.319.392-.77.392-1.351v-.895c0-.575-.131-1.023-.392-1.344-.261-.319-.631-.479-1.109-.479-.259 0-.508.073-.747.22s-.449.352-.63.615h-1.362v-5.61h5.427v1.421h-3.933v2.395c.186-.15.393-.268.623-.352.229-.082.464-.124.703-.124.615 0 1.141.127 1.579.381.437.254.769.625.996 1.113.227.488.34 1.077.34 1.765v.895c0 .688-.117 1.276-.352 1.765s-.576.86-1.025 1.117c-.449.256-.989.384-1.619.384-.537-.002-1.015-.106-1.432-.316zM451.163 583.511h-1.494v-9.023l-1.517.93v-1.545l1.517-1.011h1.494v10.649zM455.441 583.621l-.682-.325a2.705 2.705 0 01-1.095-.945c-.275-.412-.45-.909-.523-1.49h1.523c.044.303.14.552.286.747s.335.341.567.436c.231.096.504.143.816.143.493 0 .876-.131 1.149-.395s.41-.635.41-1.113v-.322c0-.532-.129-.944-.388-1.234-.259-.291-.625-.436-1.099-.436h-.754v-1.422h.754c.415 0 .737-.124.967-.373s.344-.601.344-1.055v-.33c0-.419-.12-.744-.362-.974-.241-.229-.585-.345-1.028-.345-.255 0-.481.048-.682.144a1.3 1.3 0 00-.509.439c-.14.197-.241.445-.304.743h-1.517c.098-.581.282-1.079.553-1.494a2.712 2.712 0 011.029-.945c.415-.214.891-.322 1.429-.322.917 0 1.628.242 2.131.726s.754 1.165.754 2.044v.176c0 .532-.144.996-.432 1.391-.288.396-.695.685-1.223.865.58.127 1.031.412 1.351.856.32.444.479 1.011.479 1.699v.176c0 .62-.119 1.149-.358 1.589s-.587.774-1.044 1.004c-.456.229-1.007.344-1.651.344l-.891-.002zM461.366 582.017h1.494v1.494l-1.494 1.479v-2.973zM470.411 574.195l-2.754 9.316h-1.59l2.754-9.229h-2.71v1.531h-1.494v-2.952h5.794v1.334zM200.522 125.855l3.714-4.951c.215-.283.382-.577.501-.882.12-.305.18-.59.18-.854v-.015c0-.425-.124-.754-.373-.989s-.604-.352-1.063-.352c-.435 0-.786.128-1.055.384-.269.257-.432.619-.49 1.088v.007h-1.546v-.007c.088-.61.268-1.132.538-1.563a2.731 2.731 0 011.052-.989c.43-.227.925-.34 1.486-.34.635 0 1.177.109 1.626.326.449.218.791.534 1.025.949s.352.916.352 1.501v.007c0 .376-.078.769-.234 1.179s-.373.806-.651 1.187l-3.084 4.189h4.028v1.421h-6.006v-1.296zM208.285 124.222l3.574-7.712h1.538l-3.486 7.625h5.223v1.384h-6.849v-1.297zm4.593-3.333h1.457v6.27h-1.457v-6.27zM216.819 125.657h1.494v1.494l-1.494 1.479v-2.973zM222.224 127.261l-.682-.326a2.684 2.684 0 01-1.095-.945c-.276-.412-.45-.909-.523-1.49h1.523c.044.303.139.552.285.747s.336.341.568.436c.231.096.504.143.816.143.493 0 .876-.132 1.149-.396s.41-.635.41-1.113v-.322c0-.532-.129-.943-.388-1.234s-.625-.436-1.099-.436h-.755v-1.421h.755c.415 0 .737-.125.967-.374s.344-.601.344-1.055v-.33c0-.42-.12-.745-.362-.974-.241-.229-.585-.344-1.029-.344-.254 0-.48.047-.681.143a1.3 1.3 0 00-.509.439c-.14.197-.241.445-.305.743H220.1c.098-.581.282-1.079.553-1.494.271-.415.614-.73 1.029-.945s.891-.322 1.428-.322c.918 0 1.629.242 2.132.725s.754 1.165.754 2.043v.176c0 .532-.144.996-.432 1.392s-.696.684-1.224.864c.581.127 1.031.413 1.352.857.319.444.479 1.011.479 1.699v.176c0 .62-.119 1.15-.358 1.589s-.588.774-1.044 1.003c-.457.229-1.007.344-1.651.344l-.894.002z"/><g><path d="M134.68 305.132h-1.494v-9.023l-1.516.93v-1.545l1.516-1.011h1.494v10.649zM137.869 304.443c-.515-.532-.772-1.274-.772-2.227v-4.841c0-.957.259-1.701.776-2.23.518-.53 1.272-.795 2.264-.795.996 0 1.751.264 2.267.791.515.527.772 1.272.772 2.234v4.841c0 .957-.259 1.7-.776 2.23-.518.529-1.271.794-2.263.794-.996.001-1.752-.265-2.268-.797zm3.436-1.036c.251-.276.377-.673.377-1.19v-4.841c0-.518-.124-.915-.373-1.19-.249-.276-.64-.414-1.172-.414s-.923.138-1.172.414c-.249.275-.374.673-.374 1.19v4.841c0 .518.126.914.377 1.19.252.275.642.414 1.169.414s.916-.139 1.168-.414zM145.227 303.637h1.494v1.494l-1.494 1.479v-2.973zM149.914 304.864a2.451 2.451 0 01-1.015-1.099c-.231-.48-.348-1.061-.348-1.739v-.008c0-.395.047-.81.14-1.244a7.315 7.315 0 01.498-1.498 8.14 8.14 0 01.103-.209l2.314-4.585h1.611l-2.718 5.31.008-.264c.122-.229.3-.407.534-.534s.508-.19.82-.19c.552 0 1.025.125 1.421.373.396.25.696.612.901 1.088.205.477.308 1.049.308 1.718v.007c0 .685-.116 1.271-.349 1.758a2.44 2.44 0 01-1.018 1.113c-.447.255-.982.381-1.607.381s-1.158-.126-1.603-.378zm2.7-1.498c.256-.293.385-.71.385-1.252v-.008c0-.595-.135-1.056-.403-1.38-.269-.325-.651-.487-1.149-.487-.444 0-.789.164-1.033.49-.244.328-.366.789-.366 1.385v.008c0 .541.128.958.385 1.248.256.291.619.436 1.088.436.472-.001.836-.147 1.093-.44z"/></g><g><path d="M237.733 385.912l-.682-.325a2.692 2.692 0 01-1.095-.945c-.276-.412-.45-.909-.523-1.49h1.523c.044.303.139.552.285.747s.336.341.568.436c.231.096.504.143.816.143.493 0 .876-.131 1.149-.395s.41-.635.41-1.113v-.322c0-.532-.129-.944-.388-1.234-.259-.291-.625-.436-1.099-.436h-.755v-1.422h.755c.415 0 .737-.124.967-.373s.344-.601.344-1.055v-.33c0-.419-.12-.744-.362-.974-.241-.229-.585-.345-1.029-.345-.254 0-.48.048-.681.144a1.3 1.3 0 00-.509.439c-.14.197-.241.445-.305.743h-1.516c.098-.581.282-1.079.553-1.494a2.712 2.712 0 011.029-.945c.415-.214.891-.322 1.428-.322.918 0 1.629.242 2.132.726s.754 1.165.754 2.044v.176c0 .532-.144.996-.432 1.391-.288.396-.696.685-1.224.865.581.127 1.031.412 1.352.856.319.444.479 1.011.479 1.699v.176c0 .62-.119 1.149-.358 1.589s-.588.774-1.044 1.004c-.457.229-1.007.344-1.651.344l-.891-.002zM243.658 384.308h1.494v1.494l-1.494 1.479v-2.973zM247.975 385.114c-.515-.532-.772-1.274-.772-2.227v-4.841c0-.957.259-1.701.776-2.23.518-.53 1.272-.795 2.264-.795.996 0 1.751.264 2.267.791.515.527.772 1.272.772 2.234v4.841c0 .957-.259 1.7-.776 2.23-.518.529-1.271.794-2.263.794-.997.001-1.752-.265-2.268-.797zm3.435-1.036c.251-.276.377-.673.377-1.19v-4.841c0-.518-.124-.915-.373-1.19-.249-.276-.64-.414-1.172-.414s-.923.138-1.172.414c-.249.275-.374.673-.374 1.19v4.841c0 .518.126.914.377 1.19.252.275.642.414 1.169.414s.917-.139 1.168-.414z"/></g><g><path d="M442.184 514.984a2.587 2.587 0 01-1.019-.916c-.261-.399-.436-.881-.523-1.442v-.007h1.494v.007c.054.391.21.694.469.912.259.217.596.325 1.011.325.479 0 .849-.159 1.109-.479.262-.319.393-.77.393-1.351v-.895c0-.575-.131-1.023-.393-1.344-.261-.319-.631-.479-1.109-.479-.259 0-.508.073-.747.22s-.449.352-.63.615h-1.362v-5.61h5.427v1.421h-3.933v2.395c.186-.15.394-.268.623-.352.229-.082.464-.124.703-.124.615 0 1.141.127 1.578.381.437.254.769.625.996 1.113.227.488.341 1.077.341 1.765v.895c0 .688-.117 1.276-.352 1.765s-.577.86-1.025 1.117c-.45.256-.989.384-1.619.384-.538-.002-1.015-.106-1.432-.316zM448.662 513.695h1.494v1.494l-1.494 1.479v-2.973zM454.779 515.189h-1.494v-9.023l-1.517.93v-1.545l1.517-1.011h1.494v10.649z"/></g><g><path d="M212.055 457.937l3.574-7.713h1.538l-3.486 7.625h5.223v1.385h-6.849v-1.297zm4.593-3.332h1.457v6.27h-1.457v-6.27zM220.588 459.373h1.494v1.494l-1.494 1.479v-2.973zM224.906 460.178c-.516-.532-.772-1.274-.772-2.227v-4.841c0-.957.259-1.701.776-2.23.518-.53 1.271-.795 2.263-.795.996 0 1.752.264 2.268.791.515.527.772 1.272.772 2.234v4.841c0 .957-.259 1.7-.776 2.23-.518.529-1.272.794-2.264.794-.997.001-1.753-.264-2.267-.797zm3.435-1.036c.251-.276.377-.673.377-1.19v-4.841c0-.518-.125-.915-.374-1.19-.249-.276-.64-.414-1.172-.414s-.923.138-1.172.414c-.249.275-.373.673-.373 1.19v4.841c0 .518.125.914.377 1.19.251.275.641.414 1.168.414s.917-.138 1.169-.414z"/></g><g><path d="M184.731 335.395a2.678 2.678 0 01-1.132-1.037c-.267-.446-.399-.965-.399-1.557v-.176c0-.531.133-1.032.399-1.501a2.673 2.673 0 011.065-1.062 2.323 2.323 0 01-.904-.891 2.394 2.394 0 01-.341-1.227v-.256c0-.557.125-1.047.374-1.469.249-.423.601-.75 1.055-.981.454-.232.981-.349 1.582-.349s1.128.116 1.582.349c.454.231.806.559 1.055.981.249.422.373.912.373 1.469v.256c0 .439-.116.853-.348 1.238a2.315 2.315 0 01-.919.879c.449.244.81.599 1.08 1.065.271.466.406.966.406 1.497v.176c0 .592-.133 1.11-.398 1.557-.267.447-.644.793-1.132 1.037s-1.055.365-1.699.365-1.211-.119-1.699-.363zm2.614-1.275c.264-.136.468-.328.612-.574.144-.247.216-.531.216-.854v-.103c0-.327-.072-.614-.216-.86-.145-.247-.349-.438-.612-.575s-.568-.205-.915-.205-.652.068-.916.205-.468.329-.611.579a1.681 1.681 0 00-.216.863v.11c0 .322.071.605.216.85.144.244.348.434.611.567.264.135.569.201.916.201s.651-.067.915-.204zm-.124-4.801c.229-.129.407-.313.534-.553s.19-.515.19-.828v-.102c0-.298-.063-.562-.19-.791s-.305-.407-.534-.531c-.229-.125-.493-.188-.791-.188s-.562.063-.791.188c-.229.124-.408.302-.535.531s-.19.495-.19.798v.11c0 .307.063.579.19.816.127.236.306.42.535.549.229.13.493.194.791.194s.562-.063.791-.193zM191.601 334.157h1.494v1.494l-1.494 1.479v-2.973zM200.646 326.335l-2.754 9.316h-1.589l2.754-9.229h-2.71v1.531h-1.494v-2.952h5.793v1.334z"/></g><g><path d="M142.507 346.307l-.008.264c-.122.225-.307.39-.553.494a2.224 2.224 0 01-.875.157c-.508 0-.955-.129-1.341-.388s-.685-.624-.897-1.095c-.212-.472-.318-1.017-.318-1.637v-.008c0-.688.116-1.276.348-1.766a2.461 2.461 0 011.019-1.113c.446-.253.982-.381 1.607-.381s1.16.13 1.604.389.782.635 1.014 1.128c.232.493.349 1.087.349 1.78v.007c0 .381-.049.787-.146 1.22a7.52 7.52 0 01-.418 1.285l-.088.194a2.897 2.897 0 01-.095.194l-2.271 4.563h-1.611l2.68-5.287zm.07-.923c.256-.317.385-.764.385-1.34v-.008c0-.562-.129-.996-.385-1.304-.257-.308-.619-.462-1.088-.462-.474 0-.839.154-1.095.462-.257.308-.385.745-.385 1.312v.007c0 .576.128 1.021.385 1.337.256.314.621.473 1.095.473.468 0 .831-.159 1.088-.477zM146.286 350.101h1.494v1.494l-1.494 1.479v-2.973zM150.604 350.907c-.516-.532-.772-1.274-.772-2.227v-4.841c0-.957.259-1.701.776-2.23.518-.53 1.271-.795 2.263-.795.996 0 1.752.264 2.268.791.515.527.772 1.272.772 2.234v4.841c0 .957-.259 1.7-.776 2.23-.518.529-1.272.794-2.264.794-.997.001-1.753-.265-2.267-.797zm3.435-1.036c.251-.276.377-.673.377-1.19v-4.841c0-.518-.125-.915-.374-1.19-.249-.276-.64-.414-1.172-.414s-.923.138-1.172.414c-.249.275-.373.673-.373 1.19v4.841c0 .518.125.914.377 1.19.251.275.641.414 1.168.414s.917-.139 1.169-.414z"/></g><g><path d="M272.826 551.277l3.714-4.951c.215-.282.382-.577.501-.882.12-.306.18-.59.18-.854v-.015c0-.425-.124-.754-.373-.988s-.604-.352-1.063-.352c-.435 0-.786.128-1.055.384-.269.257-.432.619-.49 1.088v.007h-1.546v-.007c.088-.61.268-1.132.538-1.563a2.731 2.731 0 011.052-.989c.43-.227.925-.341 1.486-.341.635 0 1.177.109 1.626.326.449.218.791.534 1.025.949s.352.915.352 1.501v.007c0 .377-.078.77-.234 1.18s-.373.806-.651 1.187l-3.084 4.189h4.028v1.421h-6.006v-1.297zM280.589 551.08h1.494v1.494l-1.494 1.479v-2.973zM285.994 552.683l-.681-.325a2.7 2.7 0 01-1.096-.945c-.275-.412-.45-.909-.523-1.49h1.523c.044.303.14.552.286.747s.335.341.567.436c.231.096.504.143.816.143.493 0 .877-.131 1.15-.395s.41-.635.41-1.113v-.322c0-.532-.13-.944-.389-1.234-.259-.291-.625-.436-1.099-.436h-.754v-1.422h.754c.415 0 .737-.124.967-.373s.345-.601.345-1.055v-.33c0-.419-.121-.744-.363-.974-.241-.229-.584-.345-1.028-.345-.254 0-.481.048-.682.144a1.3 1.3 0 00-.509.439c-.14.197-.24.445-.304.743h-1.517c.098-.581.282-1.079.553-1.494a2.712 2.712 0 011.029-.945c.415-.214.892-.322 1.429-.322.918 0 1.628.242 2.131.726s.755 1.165.755 2.044v.176c0 .532-.145.996-.433 1.391-.288.396-.695.685-1.223.865.581.127 1.031.412 1.351.856.32.444.48 1.011.48 1.699v.176c0 .62-.12 1.149-.359 1.589s-.587.774-1.044 1.004c-.456.229-1.007.344-1.651.344l-.891-.002z"/></g><g><path d="M216.089 318.839a2.446 2.446 0 01-1.015-1.099c-.232-.48-.348-1.061-.348-1.739v-.008c0-.395.046-.81.139-1.244a7.319 7.319 0 01.498-1.498 8.14 8.14 0 01.103-.209l2.314-4.585h1.611l-2.717 5.31.007-.264c.122-.229.301-.407.535-.534s.508-.19.82-.19c.552 0 1.025.125 1.421.373.396.25.695.612.9 1.088.205.477.308 1.049.308 1.718v.007c0 .685-.116 1.271-.348 1.758-.232.489-.571.86-1.018 1.113-.447.255-.983.381-1.608.381s-1.157-.127-1.602-.378zm2.699-1.499c.256-.293.384-.71.384-1.252v-.008c0-.595-.134-1.056-.402-1.38-.269-.325-.652-.487-1.15-.487-.444 0-.788.164-1.032.49-.244.328-.366.789-.366 1.385v.008c0 .541.128.958.385 1.248.256.291.618.436 1.087.436.472 0 .838-.147 1.094-.44zM222.497 317.612h1.494v1.494l-1.494 1.479v-2.973zM227.185 318.839a2.451 2.451 0 01-1.015-1.099c-.231-.48-.348-1.061-.348-1.739v-.008c0-.395.047-.81.14-1.244a7.315 7.315 0 01.498-1.498 8.14 8.14 0 01.103-.209l2.314-4.585h1.611l-2.718 5.31.008-.264c.122-.229.3-.407.534-.534s.508-.19.82-.19c.552 0 1.025.125 1.421.373.396.25.696.612.901 1.088.205.477.308 1.049.308 1.718v.007c0 .685-.116 1.271-.349 1.758a2.44 2.44 0 01-1.018 1.113c-.447.255-.982.381-1.607.381s-1.159-.127-1.603-.378zm2.699-1.499c.256-.293.385-.71.385-1.252v-.008c0-.595-.135-1.056-.403-1.38-.269-.325-.651-.487-1.149-.487-.444 0-.789.164-1.033.49-.244.328-.366.789-.366 1.385v.008c0 .541.128.958.385 1.248.256.291.619.436 1.088.436.472 0 .836-.147 1.093-.44z"/></g><g><path d="M12.052 46.967l-2.754 9.316h-1.59l2.754-9.229h-2.71v1.531H6.258v-2.952h5.793v1.334zM13.956 54.789h1.494v1.494l-1.494 1.479v-2.973zM19.043 56.078c-.418-.21-.757-.515-1.019-.916s-.436-.881-.523-1.443v-.007h1.494v.007c.054.391.21.695.469.912s.596.326 1.011.326c.479 0 .848-.16 1.109-.48.261-.319.392-.77.392-1.351v-.894c0-.576-.131-1.024-.392-1.344-.261-.319-.631-.479-1.109-.479-.259 0-.508.073-.747.22s-.449.352-.63.615h-1.362v-5.61h5.427v1.421H19.23v2.395a2.126 2.126 0 011.326-.477c.615 0 1.141.127 1.579.381.437.254.769.625.996 1.113.227.488.34 1.077.34 1.765v.894c0 .688-.117 1.277-.352 1.765s-.576.86-1.025 1.117c-.449.256-.989.384-1.619.384-.538.001-1.015-.104-1.432-.314z"/></g></g></g></svg>