<svg xmlns="http://www.w3.org/2000/svg" viewBox="0 0 346.25 339.72"><defs><pattern id="_Новый_узор_4" width="9.82" height="9.82" x="0" y="0" patternTransform="matrix(1.05 0 0 1.03 -423.01 1068.27)" patternUnits="userSpaceOnUse"><g fill="none"><path d="M0 0h9.82v9.82H0z"/><g fill-rule="evenodd" stroke-linecap="round" stroke-width=".25" clip-path="url(#clippath)"><path stroke="#e6e6e6" stroke-linejoin="round" d="m14.73 19.65-4.91-4.92 4.91-4.91 4.91 4.91-4.91 4.92zM4.91 19.65 0 14.73l4.91-4.91 4.91 4.91-4.91 4.92zM-4.91 19.65l-4.91-4.92 4.91-4.91L0 14.73l-4.91 4.92z"/><path stroke="#e6e6e6" stroke-linejoin="round" d="M14.73 9.82 9.82 4.91 14.73 0l4.91 4.91-4.91 4.91z"/><path stroke="#999" stroke-miterlimit="3" d="M4.91 9.82 0 4.91 4.91 0l4.91 4.91-4.91 4.91z"/><path stroke="#e6e6e6" stroke-linejoin="round" d="m-4.91 9.82-4.91-4.91L-4.91 0 0 4.91l-4.91 4.91zM14.73 0 9.82-4.91l4.91-4.91 4.91 4.91L14.73 0zM4.91 0 0-4.91l4.91-4.91 4.91 4.91L4.91 0zM-4.91 0l-4.91-4.91 4.91-4.91L0-4.91-4.91 0z"/></g></g></pattern><pattern id="_Новый_узор_2" width="22.92" height="23.17" x="0" y="0" patternTransform="matrix(.7 0 0 .67 -3180.51 -2037.33)" patternUnits="userSpaceOnUse"><g fill="none"><path d="M0 0h22.92v23.17H0z"/><path stroke="#b5b5b5" stroke-miterlimit="10" stroke-width=".25" d="M22.69 17.61v11.12H.23V17.61h22.46m.11-.11H.12v11.34H22.8V17.5ZM22.69 6.03v11.12H.23V6.03h22.46m.11-.11H.12v11.34H22.8V5.92ZM22.69-5.56V5.56H.23V-5.56h22.46m.11-.11H.12V5.67H22.8V-5.67Z"/></g></pattern><clipPath id="clippath"><path fill="none" d="M0 0h9.82v9.82H0z"/></clipPath></defs><g id="Flats"><path id="fl26" fill="#fff" fill-rule="evenodd" d="m322.44 124.87 11.58-34.28-4.28-23.44V29.6l3-14.52-26.33-4.05-36.99 5.48h-53.98l-23.2-3.39-19.52 8.64-52.39 13.06-24.42 1.22-27.26-.81-52.38-13.07-11.49-4.74v254.09h70.63v60.67h137.11v-39.73h52.24l.77 1.18 35.77-1.18h5.11v-.17l14.42-.48-7.32-27.54 9.46-53.66 7.16-18.8-16.5-25.49 8.81-41.44z"/></g><g id="Grid"><path fill="url(#_Новый_узор_4)" d="M7.8 209.87h89.48v48.43H7.8z"/><path fill="url(#_Новый_узор_2)" fill-rule="evenodd" d="M325.72 110.6H239.4v68.81h63.38v-9.69h10.12l12.82-59.12z"/></g><g id="Mebel"><g fill="none" stroke="#6a6a6a" stroke-linecap="round" stroke-linejoin="round" stroke-width=".25"><path d="M86.31 108.44c1.36 0 2.46 1.1 2.46 2.46s-1.1 2.46-2.46 2.46-2.46-1.1-2.46-2.46 1.1-2.46 2.46-2.46Z"/><path d="M86.31 110.16c.41 0 .74.33.74.74s-.33.74-.74.74-.74-.33-.74-.74.33-.74.74-.74ZM86.31 50.66c1.36 0 2.46 1.1 2.46 2.46s-1.1 2.46-2.46 2.46-2.46-1.1-2.46-2.46 1.1-2.46 2.46-2.46Z"/><path d="M86.31 52.38c.41 0 .74.33.74.74s-.33.74-.74.74-.74-.33-.74-.74.33-.74.74-.74ZM40.82 104.13V59.88m0 0H90m0 0v44.26m0 0H40.82M39.59 102.9V61.11m0 0 .09-.47m0 0 .27-.4m0 0 .4-.27m0 0 .47-.09m0 0v44.26m0 0-.47-.09m0 0-.4-.27m0 0-.27-.4m0 0-.09-.47M92.46 104.13V59.88m0 0H90m0 0v44.26m0 0h2.46M92.46 59.88v44.26m0 0h-1.23m0 0V59.88m0 0h1.23M92.46 58.65V47.59m0 0H80.17m0 0v11.06m0 0h12.29M92.46 105.36v11.06m0 0H80.17m0 0v-11.06m0 0h12.29M88.77 78.07V61.35m0 0-.07-.17m0 0-.17-.07m0 0h-8.11m0 0-.17.07m0 0-.07.17m0 0v16.72m0 0 .07.17m0 0 .17.07m0 0h8.11m0 0 .17-.07m0 0 .07-.17M88.77 85.94v16.72m0 0-.07.17m0 0-.17.07m0 0h-8.11m0 0-.17-.07m0 0-.07-.17m0 0V85.94m0 0 .07-.17m0 0 .17-.07m0 0h8.11m0 0 .17.07m0 0 .07.17M80.83 104.13v-1.23M80.83 85.69v-7.37M80.83 61.11v-1.23M77.57 104.13V59.88m0 0H65.41m0 0 9.7 44.26m0 0h2.46M86.87 113.29l-.56-2.39m0 0-2.23-1.03m0 0 2.23 1.03m0 0 2.31-.85M86.87 50.72l-.56 2.39m0 0-2.23 1.03m0 0 2.23-1.03m0 0 2.31.85"/></g><g fill="none" stroke="#6a6a6a" stroke-linecap="round" stroke-linejoin="round" stroke-width=".25"><path d="M16.51 103.92V60.09m0 0H7.85m0 0v43.82m0 0h8.66M16.07 103.92V60.09M16.51 82.01h-.44M16.51 103.92h-.44M11.43 69.3h-.58m0 0v25.41m0 0h.58m0 0V69.3M10.84 70.1l-1.95-.41m0 0 .08-.39m0 0 1.87.39m0 0v.41M10.84 74.86h-.48m0 0-.32.09m0 0-.24.24m0 0-.09.33m0 0v13m0 0 .09.32m0 0 .24.24m0 0 .32.09m0 0h.48m0 0v-14.3M11.63 70.1l1.95-.41m0 0-.08-.39m0 0-1.87.39m0 0v.41M10.84 93.91l-1.95.41m0 0 .08.39m0 0 1.87-.39m0 0v-.41M11.6 93.91l1.95.41m0 0-.08.39m0 0-1.87-.39m0 0v-.41M11.6 69.3h-.17m0 0v25.41m0 0h.17m0 0V69.3"/></g><g fill="none" stroke="#6a6a6a" stroke-linecap="round" stroke-linejoin="round" stroke-width=".25"><path d="M161.35 317.68v13.7m0 0h45.34m0 0v-13.7m0 0h-45.34M206.69 324.63v.44m0 0h-45.34m0 0v-.44m0 0h45.34M165.89 330.23v-10.72m0 0h.46m0 0v10.72m0 0h-.46M167.12 330.23v-10.72m0 0h.46m0 0v10.72m0 0h-.46M168.34 330.23v-10.72m0 0h.46m0 0v10.72m0 0h-.46M169.56 330.23v-10.72m0 0h.46m0 0v10.72m0 0h-.46M172.16 330.15l-1.37-10.64m0 0 .46-.05m0 0 1.37 10.64m0 0-.46.05"/></g><g fill="none" stroke="#6a6a6a" stroke-linecap="round" stroke-linejoin="round" stroke-width=".25"><path d="M186.49 125.68v16.36m0 0h-46.52m0 0v-16.36m0 0h46.52M139.96 133.99v.52m0 0h46.52m0 0v-.52m0 0h-46.52M181.07 140.67v-12.8m0 0h-.55m0 0v12.8m0 0h.55M179.6 140.67v-12.8m0 0h-.55m0 0v12.8m0 0h.55M178.14 140.67v-12.8m0 0h-.55m0 0v12.8m0 0h.55M176.68 140.67v-12.8m0 0h-.55m0 0v12.8m0 0h.55M173.58 140.58l1.63-12.71m0 0-.55-.06m0 0-1.63 12.71m0 0 .55.06"/></g><g fill="none" stroke="#6a6a6a" stroke-linecap="round" stroke-linejoin="round" stroke-width=".25"><path d="M206.69 291.49h-11.54m0 0v26.18m0 0h11.54m0 0v-26.18M200.83 317.68h-.37m0 0V291.5m0 0h.37m0 0v26.18M196.12 295.32h9.03m0 0v.39m0 0h-9.03m0 0v-.39M196.12 296.35h9.03m0 0v.39m0 0h-9.03m0 0v-.39M196.12 297.38h9.03m0 0v.39m0 0h-9.03m0 0v-.39M196.12 298.41h9.03m0 0v.39m0 0h-9.03m0 0v-.39M196.18 300.6l8.96-1.15m0 0 .04.39m0 0-8.96 1.15m0 0-.04-.39"/></g><g fill="none" stroke="#6a6a6a" stroke-linecap="round" stroke-linejoin="round" stroke-width=".25"><path d="M81.49 317.68v13.7m0 0h77.03m0 0v-13.7m0 0H81.49M158.52 324.63v.44m0 0H81.49m0 0v-.44m0 0h77.03M86.03 330.23v-10.72m0 0h.46m0 0v10.72m0 0h-.46M87.25 330.23v-10.72m0 0h.46m0 0v10.72m0 0h-.46M88.48 330.23v-10.72m0 0h.46m0 0v10.72m0 0h-.46M89.7 330.23v-10.72m0 0h.46m0 0v10.72m0 0h-.46M92.29 330.15l-1.37-10.64m0 0 .46-.05m0 0 1.37 10.64m0 0-.46.05"/></g><g fill="none" stroke="#6a6a6a" stroke-linecap="round" stroke-linejoin="round" stroke-width=".25"><path d="M251.25 101.62c0 1.36-1.1 2.46-2.46 2.46s-2.46-1.1-2.46-2.46 1.1-2.46 2.46-2.46 2.46 1.1 2.46 2.46Z"/><path d="M249.53 101.62c0 .41-.33.74-.74.74s-.74-.33-.74-.74.33-.74.74-.74.74.33.74.74ZM309.03 101.62c0 1.36-1.1 2.46-2.46 2.46s-2.46-1.1-2.46-2.46 1.1-2.46 2.46-2.46 2.46 1.1 2.46 2.46Z"/><path d="M307.31 101.62c0 .41-.33.74-.74.74s-.74-.33-.74-.74.33-.74.74-.74.74.33.74.74ZM255.55 56.13h44.26m0 0v49.18m0 0h-44.26m0 0V56.13M256.78 54.9h41.8m0 0 .47.09m0 0 .4.27m0 0 .27.4m0 0 .09.47m0 0h-44.26m0 0 .09-.47m0 0 .27-.4m0 0 .4-.27m0 0 .47-.09M255.55 107.77h44.26m0 0v-2.46m0 0h-44.26m0 0v2.46M299.81 107.77h-44.26m0 0v-1.23m0 0h44.26m0 0v1.23M301.04 107.77h11.06m0 0V95.48m0 0h-11.06m0 0v12.29M254.32 107.77h-11.06m0 0V95.48m0 0h11.06m0 0v12.29M281.61 104.08h16.72m0 0 .17-.07m0 0 .07-.17m0 0v-8.11m0 0-.07-.17m0 0-.17-.07m0 0h-16.72m0 0-.17.07m0 0-.07.17m0 0v8.11m0 0 .07.17m0 0 .17.07M273.75 104.08h-16.72m0 0-.17-.07m0 0-.07-.17m0 0v-8.11m0 0 .07-.17m0 0 .17-.07m0 0h16.72m0 0 .17.07m0 0 .07.17m0 0v8.11m0 0-.07.17m0 0-.17.07M255.55 96.14h1.23M273.99 96.14h7.38M298.58 96.14h1.23M255.55 92.88h44.26m0 0V80.72m0 0-44.26 9.7m0 0v2.46M246.39 102.18l2.39-.56m0 0 1.03-2.23m0 0-1.03 2.23m0 0 .85 2.31M308.96 102.18l-2.39-.56m0 0-1.03-2.23m0 0 1.03 2.23m0 0-.85 2.31"/></g><g fill="none" stroke="#6a6a6a" stroke-linecap="round" stroke-linejoin="round" stroke-width=".25"><path d="M123.47 72.92v4.39m0 0v.45m0 0-.03.43m0 0-.05.4m0 0-.07.36m0 0h0m0 .01-.08.32m0 0-.1.26m0 0v.02m0 0-.11.19m0 0v.02m-.01 0-.12.12m0 0h-.02m0 .01h-.02m0 .01h-.02m0 0-.12.04m0 0h-.02m0 0h-.01m0 0h-1.21m0 0v1.1m0 0h-4.16m0-11.88h4.16m0 0v1.1m0 0h1.21m0 0h.01m0 0h.02m0 0 .12.04m0 0h.02m0 0h.02m0 .01h.02m0 .01.12.12m0 0v.02m.01 0 .11.19m0 0v.02m0 0 .1.26m0 0 .09.32m0 0h0m0 .01.07.36m0 0 .05.4m0 0 .03.43m0 0v.45M120.73 79.96v-9.68M120.73 79.83h.96M120.73 70.41h.96M117.29 70.28h4.16M117.29 79.96h4.16M122.38 77.32v-4.4M121.69 79.83c.38 0 .68-1.12.68-2.51M122.38 72.92c0-1.39-.31-2.51-.69-2.51M101.14 98.92V56.34h16.08v42.58z"/></g><g fill="none" stroke="#6a6a6a" stroke-linecap="round" stroke-linejoin="round" stroke-width=".25"><path d="M161.89 50.26h24.6m0 0v54.93m0 0h-24.6m0 0V50.26M163.26 48.89h21.85m0 0 .53.1m0 0 .45.3m0 0 .3.45m0 0 .1.53m0 0h-24.6m0 0 .1-.53m0 0 .3-.45m0 0 .45-.3m0 0 .53-.1M161.89 107.93h24.6m0 0v-2.75m0 0h-24.6m0 0v2.75M186.49 107.93h-24.6m0 0v-1.37m0 0h24.6m0 0v1.37M183.48 103.81h-18.67m0 0-.19-.08m0 0-.08-.19m0 0v-9.06m0 0 .08-.19m0 0 .19-.08m0 0h18.67m0 0 .19.08m0 0 .08.19m0 0v9.06m0 0-.08.19m0 0-.19.08M161.89 94.94h2.64M183.75 94.94h2.7M161.89 91.3h24.6m0 0V77.72m0 0-24.6 10.83m0 0v2.75"/></g><g fill="none" stroke="#6a6a6a" stroke-linecap="round" stroke-linejoin="round" stroke-width=".25"><path d="M189.85 271.69h-16.42m0 0v16.97m0 0h16.42m0 0v-16.97M181.64 282.91v-5.47M183.58 282.11l-3.87-3.87M184.38 280.18h-5.47M183.58 278.24l-3.87 3.87"/></g><path fill="none" stroke="#6a6a6a" stroke-linecap="round" stroke-linejoin="round" stroke-width=".25" d="M205.64 274.02h-13.96m0 0-.39.16m0 0-.16.39m0 0v12.59m0 0 .16.39m0 0 .39.16m0 0h13.96m0 0 .39-.16m0 0 .16-.39m0 0v-12.59m0 0-.16-.39m0 0-.39-.16M204.27 275.39h-11.22M192.51 275.93v8.49M193.05 284.96h11.22M204.82 284.42v-8.49"/><path fill="#999" fill-rule="evenodd" d="M204.27 275.39h.08s-.03-.08-.08-.08-.08.03-.08.08.03.08.08.08.08-.03.08-.08h-.08Z"/><path fill="none" stroke="#6a6a6a" stroke-linecap="round" stroke-linejoin="round" stroke-width=".25" d="M192.51 275.93c0-.3.25-.55.55-.55M193.05 284.96c-.3 0-.55-.24-.55-.55M204.82 284.42c0 .3-.24.55-.55.55M204.27 275.39c.3 0 .55.24.55.55M198.91 281.46l-.07-.17m0 0-.17-.07m0 0-.17.07m0 0-.07.17m0 0v5.41m0 0 .07.17m0 0 .17.07m0 0 .17-.07m0 0 .07-.17m0 0v-5.42M199.21 285.48h-.3m0 0v1.4m0 0-.07.17m0 0-.17.07m0 0-.17-.07m0 0-.07-.17m0 0v-1.4m0 0h-.3m0 0v1.78m0 0h1.09m0 0v-1.78M199.2 284.5h-.29m0 0v.96m0 0h.29m0 0v-.96M198.12 284.5v.96m0 0h.29m0 0v-.96m0 0h-.29M173.43 271.69h71.22m0 0v16.97m0 0h-71.22m0 0v-16.97"/><g fill="none" stroke="#6a6a6a" stroke-linecap="round" stroke-linejoin="round" stroke-width=".25"><path d="M242.2 273.47h-15.87m0 0v13.41m0 0h15.87m0 0v-13.41M234.26 281.64v3.84M234.26 285.48h-.79M234.26 281.64h-.79M227.85 281.64v3.84M228.65 285.48h-.8M228.65 281.64h-.8M240.77 283.72c0 1.1-.89 1.98-1.98 1.98s-1.98-.89-1.98-1.98.89-1.98 1.98-1.98 1.98.89 1.98 1.98ZM240.74 277.75c0 1.59-1.29 2.87-2.87 2.87s-2.87-1.29-2.87-2.87 1.29-2.87 2.87-2.87 2.87 1.29 2.87 2.87Z"/><path d="M239.51 277.75c0 .91-.74 1.64-1.64 1.64s-1.64-.74-1.64-1.64a1.641 1.641 0 0 1 3.28 0ZM232.97 283.58a1.92 1.92 0 1 1-3.841-.001 1.92 1.92 0 0 1 3.841.001ZM232.71 277.36c0 1.36-1.1 2.46-2.46 2.46s-2.46-1.1-2.46-2.46 1.1-2.46 2.46-2.46 2.46 1.1 2.46 2.46Z"/></g><g fill="none" stroke="#6a6a6a" stroke-linecap="round" stroke-linejoin="round" stroke-width=".25"><path d="M211.26 281.76c0-1.36 1.11-2.47 2.47-2.47s2.47 1.11 2.47 2.47-1.11 2.47-2.47 2.47-2.47-1.11-2.47-2.47Z"/><path d="M211.63 281.76a2.09 2.09 0 1 1 4.178-.002 2.09 2.09 0 0 1-4.178.002ZM216.43 282.37c0-1.03.84-1.87 1.87-1.87s1.87.84 1.87 1.87-.84 1.87-1.87 1.87-1.87-.84-1.87-1.87Z"/><path d="M217.25 282.37a1.05 1.05 0 1 1 2.1 0 1.05 1.05 0 0 1-2.1 0ZM210.78 283.36h.7m0 0v.87m0 0h9.07m0 0v-.87m0 0h.7M211.84 276.12h6.98m0 0v.35m0 0h-.52m0 0v-.17m0 0h-5.93m0 0v.17m0 0h-.52m0 0v-.35M211.84 276.46l.03.08m.1.22.03.07m.1.22.03.07m.1.22.03.07m.1.22.03.07m.1.22.03.07m.1.22.03.07m.1.22.03.07m.1.22.03.08M218.82 276.46l-.03.08m-.1.22-.03.07m-.1.22-.03.07m-.1.22-.03.07m-.1.22-.03.07m-.1.22-.03.07m-.1.22-.03.07m-.1.22-.03.07m-.1.22-.03.08M211.84 276.46h.06m.08 0h.08m.08 0h.08m.08 0h.06m0 0 .03.04m.16.19.05.06m.16.19.05.06m.16.19.05.06m.16.19.05.06m.16.19.05.06m.16.19.05.06m.15.19.05.06m.16.19.05.06m.16.19.05.06m.16.19.05.06m.16.19.03.04M218.82 276.46h-.06m-.08 0h-.08m-.08 0h-.08m-.08 0h-.06m0 0-.03.04m-.16.19-.05.06m-.15.19-.05.06m-.16.19-.05.06m-.15.19-.05.06m-.16.19-.05.06m-.16.19-.05.06m-.15.19-.05.06m-.16.19-.05.06m-.15.19-.05.06m-.16.19-.05.06m-.16.19-.03.04M224.22 271.69H207.8m0 0v16.97m0 0h16.42m0 0v-16.97"/></g><g fill="none" stroke="#6a6a6a" stroke-linecap="round" stroke-linejoin="round" stroke-width=".25"><path d="M301.98 204.83h-43.82m0 0v-8.66m0 0h43.82m0 0v8.66M301.98 204.4h-43.82M280.07 204.83v-.43M301.98 204.83v-.43M265.61 199.75v-.58m0 0h25.41m0 0v.58m0 0h-25.41M266.41 199.17l-.41-1.95m0 0-.39.08m0 0 .39 1.87m0 0h.41M271.17 199.17v-.48m0 0 .09-.32m0 0 .24-.24m0 0 .33-.09m0 0h13m0 0 .32.09m0 0 .24.24m0 0 .09.32m0 0v.48m0 0h-14.3M266.41 199.96l-.41 1.95m0 0-.39-.08m0 0 .39-1.87m0 0h.41M290.22 199.17l.41-1.95m0 0 .39.08m0 0-.39 1.87m0 0h-.41M290.22 199.92l.41 1.95m0 0 .39-.08m0 0-.39-1.87m0 0h-.41M265.61 199.92v-.17m0 0h25.41m0 0v.17m0 0h-25.41"/></g><path fill="none" stroke="#6a6a6a" stroke-linecap="round" stroke-linejoin="round" stroke-width=".25" d="M297.1 215.7v16.88h-34.06V215.7z"/><g fill="none" stroke="#6a6a6a" stroke-linecap="round" stroke-linejoin="round" stroke-width=".25"><path d="M310.16 264.32h2.42M313.02 264.76v23.28M312.58 288.48h-2.42M309.72 288.04v-23.29M310.16 288.48h-19.11M291.05 288.48v-1.54M291.05 282.8v-1.32M291.71 264.32h17.36M309.72 264.97v16.51M309.07 282.14h-17.36M291.05 281.48v-16.51M291.71 287.6h17.36M309.72 286.94v-4.14M309.07 282.14h-17.36M291.05 282.8v4.14M309.07 284.52h-17.36M312.58 264.32c.24 0 .44.2.44.44M313.02 288.04c0 .24-.2.44-.44.44M310.16 288.48c-.24 0-.44-.2-.44-.44M309.72 264.76c0-.24.2-.44.44-.44M309.07 264.32c.36 0 .66.3.66.66M309.72 281.48c0 .36-.29.66-.66.66M291.71 282.14a.66.66 0 0 1-.66-.66M291.05 264.97c0-.36.3-.66.66-.66M309.72 286.94c0 .36-.29.66-.66.66"/><path d="M309.07 282.14c.36 0 .66.29.66.66M291.05 282.8c0-.36.3-.66.66-.66M291.71 287.6a.66.66 0 0 1-.66-.66M309.07 284.52c.36 0 .66.29.66.66M291.05 285.18c0-.36.3-.66.66-.66M291.05 288.48h-21.96M291.05 288.48v-1.54M269.09 288.48v-1.54M291.05 282.8v-1.32M269.09 282.8v-1.32M269.75 264.32h20.65M291.05 264.97v16.51M290.4 282.14h-20.65M269.09 281.48v-16.51M269.75 287.6h20.65M291.05 286.94v-4.14M290.4 282.14h-20.65M269.09 282.8v4.14M290.4 284.52h-20.65M290.4 264.32c.36 0 .66.3.66.66M291.05 281.48c0 .36-.3.66-.66.66M269.75 282.14a.66.66 0 0 1-.66-.66M269.09 264.97c0-.36.3-.66.66-.66"/><path d="M291.05 286.94c0 .36-.3.66-.66.66M290.4 282.14c.36 0 .66.29.66.66M269.09 282.8c0-.36.3-.66.66-.66M269.75 287.6a.66.66 0 0 1-.66-.66M290.4 284.52c.36 0 .66.29.66.66M269.09 285.18c0-.36.3-.66.66-.66M249.98 264.32h-2.42M247.12 264.76v23.28M247.56 288.48h2.42M250.42 288.04v-23.29M249.98 288.48h19.11M269.09 288.48v-1.54M269.09 282.8v-1.32M268.43 264.32h-17.35M250.42 264.97v16.51M251.08 282.14h17.35M269.09 281.48v-16.51M268.43 287.6h-17.35M250.42 286.94v-4.14M251.08 282.14h17.35M269.09 282.8v4.14M251.08 284.52h17.35M247.12 264.76c0-.24.2-.44.44-.44M247.56 288.48c-.24 0-.44-.2-.44-.44M250.42 288.04c0 .24-.2.44-.44.44M249.98 264.32c.24 0 .44.2.44.44M250.42 264.97c0-.36.3-.66.66-.66M251.08 282.14a.66.66 0 0 1-.66-.66M269.09 281.48c0 .36-.29.66-.66.66M268.43 264.32c.36 0 .66.3.66.66M251.08 287.6a.66.66 0 0 1-.66-.66M250.42 282.8c0-.36.3-.66.66-.66"/><path d="M268.43 282.14c.36 0 .66.29.66.66M269.09 286.94c0 .36-.29.66-.66.66M250.42 285.18c0-.36.3-.66.66-.66M268.43 284.52c.36 0 .66.29.66.66M309.06 264.32h-17.35"/></g><g fill="none" stroke="#6a6a6a" stroke-linecap="round" stroke-linejoin="round" stroke-width=".25"><path d="m233.6 220.15-3.99-3.99m0 0-.41-.4m0 0-.42-.36m0 0-.41-.32m0 0-.39-.27m0 0h-.02m0 0-.36-.21m0 0-.32-.14m0 0h-.02m0 0-.27-.07m0 0h-.03m0 0h-.21m0 0h-.03m0 0h-.03m0 0h-.03m0 .01-.15.08m0 0-.02.02m0 0h-.01m0 0-1.1 1.1m0 0-1-1m0 0-5.07 5.07m10.8 10.8 5.07-5.07m0 0-1-1m0 0 1.1-1.1m0 0h.01m0-.01.02-.02m0 0 .08-.15m0 0v-.03m.01 0v-.03m0 0v-.03m0 0v-.21m0 0v-.03m0 0-.07-.27m0 0v-.02m0 0-.14-.32m0 0-.21-.37m0 0v-.02m-.01 0-.27-.39m0 0-.32-.41m0 0-.36-.42m0 0-.4-.41M224.71 216.24l8.8 8.8M224.83 216.36l.87-.87M233.39 224.92l.87-.87M229.63 228.93l4.53-4.54M220.83 220.13l4.53-4.53M228.61 217.15l4 4M225.7 215.49c.34-.34 1.64.4 2.9 1.66M232.61 221.15c1.26 1.26 2 2.56 1.66 2.9M198.04 247.72l3.99 3.99m0 0 .41.4m0 0 .42.36m0 0 .41.32m0 0 .39.27m0 0h.02m0 .01.37.21m0 0 .32.14m0 0h.02m0 0 .27.07m0 0h.03m0 0h.21m0 0h.03m0 0h.03m0 0h.03m0-.01.15-.08m0 0 .02-.02m0 0h.01m0-.01 1.1-1.1m0 0 1 1m0 0 5.07-5.07m-10.8-10.8-5.07 5.07m0 0 1 1m0 0-1.1 1.1m0 0h0m0 .01-.02.02m0 0-.08.15m0 0v.03m-.01 0v.03m0 0v.03m0 0v.21m0 0v.03m0 0 .07.27m0 0v.02m0 0 .14.32m0 0 .21.36m0 0v.02m0 0 .27.39m0 0 .32.41m0 0 .36.42m0 0 .4.41M206.93 251.63l-8.8-8.8M206.81 251.51l-.87.87M198.25 242.95l-.87.87M202.01 238.94l-4.53 4.54M210.81 247.74l-4.53 4.54M203.03 250.72l-4-4M205.94 252.38c-.34.34-1.64-.4-2.9-1.66M199.03 246.72c-1.26-1.26-2-2.56-1.66-2.9M202.03 216.15l-3.99 3.99m0 0-.4.41m0 0-.36.42m0 0-.32.41m0 0-.27.39m0 0v.02m0 0-.21.37m0 0-.14.32m0 0v.02m0 0-.07.27m0 0v.03m0 0v.21m0 0v.03m0 0v.03m0 0v.03m.01 0 .08.15m0 0 .02.02m0 0h0m0 .01 1.1 1.1m0 0-1 1m0 0 5.07 5.07m10.8-10.8-5.07-5.07m0 0-1 1m0 0-1.1-1.1m0 0h0m0 0-.03-.02m0 0-.15-.08m0 0h-.03m0-.01h-.03m0 0h-.03m0 0h-.21m0 0h-.03m0 0-.27.07m0 0h-.02m0 0-.32.14m0 0-.37.21m0 0h-.01m0 0-.39.27m0 0-.41.32m0 0-.42.36m0 0-.41.4M198.13 225.04l8.8-8.8M198.25 224.92l-.87-.87M206.81 216.36l-.87-.87M210.81 220.13l-4.53-4.53M202.01 228.93l-4.53-4.54M199.03 221.15l4-4M197.38 224.05c-.34-.34.4-1.64 1.66-2.9M203.03 217.15c1.26-1.26 2.56-2 2.9-1.66M229.61 251.72l3.99-3.99m0 0 .4-.41m0 0 .36-.42m0 0 .32-.41m0 0 .27-.39m0 0v-.02m.01 0 .21-.36m0 0 .14-.32m0 0v-.02m0 0 .07-.27m0 0v-.03m0 0v-.21m0 0v-.03m0 0v-.03m0 0v-.03m-.01 0-.08-.15m0 0-.02-.02m0 0h-.01m0-.01-1.1-1.1m0 0 1-1m0 0-5.07-5.07m-10.8 10.8 5.07 5.07m0 0 1-1m0 0 1.1 1.1m0 0h.01m0 .01.02.02m0 0 .15.08m0 0h.03m0 .01h.03m0 0h.03m0 0h.21m0 0h.03m0 0 .27-.07m0 0h.03m0 0 .32-.14m0 0 .36-.21m0 0h.02m0-.01.39-.27m0 0 .41-.32m0 0 .42-.36m0 0 .41-.4M233.51 242.83l-8.8 8.8M233.39 242.95l.87.87M224.83 251.51l.87.87M220.83 247.74l4.53 4.54M229.63 238.94l4.53 4.54M232.61 246.72l-4 4M234.26 243.82c.34.34-.4 1.64-1.66 2.9M228.61 250.72c-1.26 1.26-2.56 2-2.9 1.66M230.51 233.93c0 8.11-6.58 14.69-14.69 14.69s-14.69-6.57-14.69-14.69 6.58-14.69 14.69-14.69 14.69 6.58 14.69 14.69Z"/></g><g fill="#fff" stroke="#6a6a6a" stroke-linecap="round" stroke-linejoin="round" stroke-width=".25"><path d="m48.26 248.58-.04 1.24-.89 8.42h-7.74l-.89-8.42-.04-1.24.15-1.23.34-1.2.52-1.13.71-.89.9-.68 1.05-.44 1.13-.15 1.13.15 1.05.44.91.68.7.89.52 1.13.34 1.2.15 1.23zM40.47 254.08h2.99M43.46 254.08h2.99"/><path d="M43.46 243.07c-.8 0-1.58.23-2.23.64M41.24 243.72c-1.61 1.25-2.48 3.08-2.36 4.96M38.88 248.68c-.05 1.9.5 3.77 1.59 5.4M46.45 254.08c1.09-1.64 1.65-3.51 1.59-5.4M48.05 248.68c.12-1.88-.75-3.71-2.36-4.96M45.69 243.72c-.65-.41-1.42-.64-2.23-.64"/></g><g fill="#fff" stroke="#6a6a6a" stroke-linecap="round" stroke-linejoin="round" stroke-width=".25"><path d="m280.62 169.8-.04 1.24-.89 8.42h-7.74l-.89-8.42-.04-1.24.15-1.23.34-1.2.52-1.12.7-.9.91-.68 1.05-.43 1.13-.15 1.13.15 1.05.43.91.68.7.9.52 1.12.34 1.2.15 1.23zM272.83 175.31h2.99M275.82 175.31h3"/><path d="M275.82 164.3c-.8 0-1.58.23-2.23.64M273.6 164.94c-1.61 1.25-2.48 3.08-2.36 4.96M271.24 169.9c-.05 1.9.5 3.77 1.59 5.4M278.82 175.31c1.09-1.64 1.65-3.51 1.59-5.4M280.41 169.9c.12-1.88-.75-3.71-2.36-4.96M278.05 164.94c-.65-.41-1.42-.64-2.23-.64"/></g><g fill="#fff" stroke="#6a6a6a" stroke-linecap="round" stroke-linejoin="round" stroke-width=".25"><path d="M7.8 258.32v-48.46h20.81v48.46zM28.61 258.32v-48.46m0 0H7.8m0 0v48.46m0 0h20.81M9.46 252.37l.06.74m0 0 .19.72m0 0 .31.67m0 0 .42.61m0 0 .51.52m0 0 .59.43m0 0 .66.31m0 0 .7.19m0 0 .72.06m0 0h9.16m0 0 .72-.06m0 0 .7-.19m0 0 .66-.31m0 0 .59-.43m0 0 .51-.52m0 0 .42-.61m0 0 .31-.67m0 0 .19-.72m0 0 .06-.74m0 0v-31.89m0 0-.13-1.55m0 0-.39-1.5m0 0-.64-1.41m0 0-.87-1.27m0 0-1.08-1.1m0 0-1.25-.89m0 0-1.38-.66m0 0-1.47-.4m0 0-1.52-.14m0 0-1.52.14m0 0-1.47.4m0 0-1.38.66m0 0-1.25.89m0 0-1.08 1.1m0 0-.87 1.27m0 0-.64 1.41m0 0-.39 1.5m0 0-.13 1.55m0 0v31.89"/><path d="M18.21 252.02c.4 0 .73-.33.73-.73s-.33-.73-.73-.73-.73.33-.73.73.33.73.73.73Z"/></g><g fill="#fff" stroke="#6a6a6a" stroke-linecap="round" stroke-linejoin="round" stroke-width=".25"><path d="M58.94 247.45h16.18l.29.12.11.28v9.78l-.11.28-.29.11H58.94l-.29-.11-.11-.28v-9.78l.11-.28.29-.12zM74.32 255.12h-6.97m-.64 0h-6.97M59.34 254.72v-6.08M59.74 248.24h14.58M74.72 248.64v6.08"/><path d="M59.34 254.72c0 .22.18.4.4.4M59.74 248.24c-.22 0-.4.18-.4.4M74.72 248.64c0-.22-.18-.4-.4-.4M74.32 255.12c.22 0 .4-.18.4-.4M67.35 253.45a.526.526 0 0 0 0-.84v.85Zm-.64-.85a.526.526 0 0 0 0 .84v-.85ZM66.71 257.65h.64m0 0v-5.42m0 0-.18-.21m0 0h-.28m0 0-.18.21m0 0v5.42M69.34 256.7v1.14m0 0h-.07m0 0v.09m0 0h-.2m0 0v.09m0 0h1.34m0 0v-.09m0 0h-.2m0 0v-.09m0 0h-.07m0 0v-1.14m0 0h-.23m0 0v-.29m0 0h.76m0 0v-.34m0 0H68.8m0 0v.34m0 0h.76m0 0v.29m0 0h-.23M64.72 256.7v1.14m0 0h.07m0 0v.09m0 0h.2m0 0v.09m0 0h-1.34m0 0v-.09m0 0h.2m0 0v-.09m0 0h.07m0 0v-1.14m0 0h.23m0 0v-.29m0 0h-.76m0 0v-.34m0 0h1.87m0 0v.34m0 0h-.76m0 0v.29m0 0h.23M69.92 256.41l-.05-.05M69.57 256.41l.05-.05M69.92 256.7h-.35M64.14 256.41l.05-.05M64.49 256.41l-.05-.05M64.14 256.7h.35M69.75 256.41c.1 0 .17-.08.17-.17s-.08-.17-.17-.17-.17.08-.17.17.08.17.17.17ZM64.32 256.41c.1 0 .17-.08.17-.17s-.08-.17-.17-.17-.17.08-.17.17.08.17.17.17Z"/></g><g fill="#fff" stroke="#6a6a6a" stroke-linecap="round" stroke-linejoin="round" stroke-width=".25"><path d="M249.97 142.91v16.19l-.12.28-.28.12h-9.78l-.28-.12-.11-.28v-16.19l.11-.28.28-.12h9.78l.28.12.12.28zM242.31 158.29v-6.97m0-.64v-6.97M242.7 143.31h6.08M249.18 143.71v14.58M248.78 158.69h-6.08"/><path d="M242.7 143.31c-.22 0-.4.18-.4.4M249.18 143.71c0-.22-.18-.4-.4-.4M248.78 158.69c.22 0 .4-.18.4-.4M242.31 158.29c0 .22.18.4.4.4M243.97 151.32a.526.526 0 0 0 .84 0h-.85Zm.85-.64a.526.526 0 0 0-.84 0h.85ZM239.77 150.68v.64m0 0h5.42m0 0 .21-.18m0 0v-.28m0 0-.21-.18m0 0h-5.42M240.72 153.31h-1.14m0 0v-.07m0 0h-.09m0 0v-.2m0 0h-.09m0 0v1.34m0 0h.09m0 0v-.2m0 0h.09m0 0v-.07m0 0h1.14m0 0v-.23m0 0h.29m0 0v.76m0 0h.34m0 0v-1.87m0 0h-.34m0 0v.76m0 0h-.29m0 0v-.23M240.72 148.69h-1.14m0 0v.07m0 0h-.09m0 0v.2m0 0h-.09m0 0v-1.34m0 0h.09m0 0v.2m0 0h.09m0 0v.07m0 0h1.14m0 0v.23m0 0h.29m0 0v-.76m0 0h.34m0 0v1.87m0 0h-.34m0 0v-.76m0 0h-.29m0 0v.23M241.01 153.89l.05-.05M241.01 153.54l.05.05M240.72 153.89v-.35M241.01 148.11l.05.05M241.01 148.46l.05-.05M240.72 148.11v.35M241.01 153.72c0 .1.08.17.17.17s.17-.08.17-.17-.08-.17-.17-.17-.17.08-.17.17ZM241.01 148.28c0 .1.08.17.17.17s.17-.08.17-.17-.08-.17-.17-.17-.17.08-.17.17Z"/></g><g fill="#fff" stroke="#6a6a6a" stroke-linecap="round" stroke-linejoin="round" stroke-width=".25"><path d="M239.4 176.22v-16.19m0 0 .12-.28m0 0 .28-.12m0 0h9.78m0 0 .28.12m0 0 .12.28m0 0v16.19m0 0-.12.28m0 0-.28.12m0 0h-9.78m0 0-.28-.12m0 0-.12-.28M249.97 160.04v16.18l-.12.28-.28.12h-9.78l-.28-.12-.11-.28v-16.18l.11-.29.28-.12h9.78l.28.12.12.29zM242.31 175.41v-6.97m0-.64v-6.97M242.7 160.43h6.08M249.18 160.83v14.59M248.78 175.82h-6.08"/><path d="M242.7 160.43c-.22 0-.4.18-.4.4M249.18 160.83c0-.22-.18-.4-.4-.4M248.78 175.82c.22 0 .4-.18.4-.4M242.31 175.41c0 .22.18.4.4.4M243.97 168.45a.526.526 0 0 0 .84 0h-.85Zm.85-.64a.526.526 0 0 0-.84 0h.85ZM239.77 167.8v.64m0 0h5.42m0 0 .21-.18m0 0v-.28m0 0-.21-.18m0 0h-5.42M240.72 170.44h-1.14m0 0v-.07m0 0h-.09m0 0v-.2m0 0h-.09m0 0v1.34m0 0h.09m0 0v-.2m0 0h.09m0 0v-.07m0 0h1.14m0 0v-.23m0 0h.29m0 0v.76m0 0h.34m0 0v-1.87m0 0h-.34m0 0v.76m0 0h-.29m0 0v-.23M240.72 165.81h-1.14m0 0v.07m0 0h-.09m0 0v.2m0 0h-.09m0 0v-1.34m0 0h.09m0 0v.2m0 0h.09m0 0v.07m0 0h1.14m0 0v.23m0 0h.29m0 0v-.76m0 0h.34m0 0v1.87m0 0h-.34m0 0v-.76m0 0h-.29m0 0v.23M241.01 171.01l.05-.05M241.01 170.67l.05.05M240.72 171.01v-.34M241.01 165.24l.05.05M241.01 165.58l.05-.05M240.72 165.24v.34M241.01 170.84c0 .1.08.17.17.17s.17-.08.17-.17-.08-.17-.17-.17-.17.08-.17.17ZM241.01 165.41c0 .1.08.17.17.17s.17-.08.17-.17-.08-.17-.17-.17-.17.08-.17.17Z"/></g><g fill="#fff" stroke="#6a6a6a" stroke-linecap="round" stroke-linejoin="round" stroke-width=".25"><path d="M80.55 241.51h16.73v16.73H80.55z"/><path d="M94.21 249.87c0 2.93-2.37 5.3-5.3 5.3s-5.3-2.37-5.3-5.3 2.37-5.3 5.3-5.3 5.3 2.37 5.3 5.3ZM93.35 249.49l-.91.33m0 0h-.97m0 0-.91-.33m0 0-1.09.25m0 0h-1.12m0 0-1.09-.25m0 0-.91.33m0 0h-.97m0 0-.91-.33m0 0 1.65 2.2m0 0h5.58m0 0 1.65-2.2M91.7 251.89h-5.58m0 0v-.19m0 0h5.58m0 0v.19M91.7 252.28h-5.58m0 0v-.19m0 0h5.58m0 0v.19M88.29 248.38l.66-.06m0 0 .02.17m0 0-.35.03m0 0 1.02.84m0 0-.09.11m0 0-.47-.39m0 0-.05.06m0 0 .55.45m0 0-.09.11m0 0-.55-.45m0 0-.06.07m0 0 .44.37m0 0-.08.1m0 0-.44-.37m0 0-.06.07m0 0 .31.25m0 0-.09.1m0 0-1.05-.87M80.55 258.24h16.73"/></g><g fill="#fff" stroke="#666565" stroke-linecap="round" stroke-linejoin="round" stroke-width=".22"><ellipse cx="302.4" cy="139.53" rx="13.75" ry="24.44"/><ellipse cx="302.4" cy="139.53" rx="12.28" ry="21.83"/><path d="M302.4 136.58a1.83 1.83 0 1 0-.002-3.662 1.83 1.83 0 0 0 .002 3.662Z"/></g><path fill="none" stroke="#6a6a6a" stroke-dasharray="0 0 3 3" stroke-linecap="round" stroke-linejoin="round" stroke-width=".25" d="M173.43 271.69v-75.65"/><g fill="none" stroke="#6a6a6a" stroke-linecap="round" stroke-linejoin="round" stroke-width=".25"><path d="M7.88 193.34h14.78m0 0v-34.9m0 0H7.88m0 0v34.9M15.39 158.44h.47m0 0v34.9m0 0h-.47m0 0v-34.9M21.42 188.43H9.86m0 0v-.5m0 0h11.56m0 0v.5M21.42 187.1H9.86m0 0v-.5m0 0h11.56m0 0v.5M21.42 185.78H9.86m0 0v-.5m0 0h11.56m0 0v.5M21.42 184.46H9.86m0 0v-.5m0 0h11.56m0 0v.5M21.34 181.66l-11.48 1.48m0 0-.06-.49m0 0 11.48-1.48m0 0 .06.49"/></g><g fill="none" stroke="#6a6a6a" stroke-linecap="round" stroke-linejoin="round" stroke-width=".25"><path d="M62.05 125.3v16.74m0 0H7.8m0 0V125.3m0 0h54.25M7.8 133.8v.53m0 0h54.25m0 0v-.53m0 0H7.8M56.14 140.64v-13.1m0 0h-.6m0 0v13.1m0 0h.6M54.55 140.64v-13.1m0 0h-.6m0 0v13.1m0 0h.6M52.96 140.64v-13.1m0 0h-.6m0 0v13.1m0 0h.6M51.37 140.64v-13.1m0 0h-.6m0 0v13.1m0 0h.6M47.99 140.54l1.78-13m0 0-.6-.06m0 0-1.78 13m0 0 .6.06"/></g><g fill="none" stroke="#6a6a6a" stroke-linecap="round" stroke-linejoin="round" stroke-width=".25"><path d="M59.27 144.88v13.56m0 0H7.86m0 0v-13.56m0 0h51.41M7.86 151.76v.43m0 0h51.41m0 0v-.43m0 0H7.86M54.62 157.3v-10.61m0 0h-.47m0 0v10.61m0 0h.47M53.36 157.3v-10.61m0 0h-.47m0 0v10.61m0 0h.47M52.11 157.3v-10.61m0 0h-.47m0 0v10.61m0 0h.47M50.85 157.3v-10.61m0 0h-.47m0 0v10.61m0 0h.47M48.2 157.23l1.4-10.53m0 0-.47-.05m0 0-1.4 10.53m0 0 .47.05"/></g><g fill="none" stroke="#6a6a6a" stroke-linecap="round" stroke-linejoin="round" stroke-width=".25"><path d="M59.27 193.37v13.66m0 0H7.86m0 0v-13.66m0 0h51.41M7.86 200.31v.43m0 0h51.41m0 0v-.43m0 0H7.86M54.62 205.89V195.2m0 0h-.47m0 0v10.69m0 0h.47M53.36 205.89V195.2m0 0h-.47m0 0v10.69m0 0h.47M52.11 205.89V195.2m0 0h-.47m0 0v10.69m0 0h.47M50.85 205.89V195.2m0 0h-.47m0 0v10.69m0 0h.47M48.2 205.81l1.4-10.61m0 0-.47-.05m0 0-1.4 10.61m0 0 .47.05"/></g><g fill="none" stroke="#6a6a6a" stroke-linecap="round" stroke-linejoin="round" stroke-width=".25"><path d="M236.65 134.88h-14.04m0 0v41.34m0 0h14.04m0 0v-41.34M229.52 176.22h-.45m0 0v-41.34m0 0h.45m0 0v41.34M223.79 139.53h10.98m0 0v.47m0 0h-10.98m0 0v-.47M223.79 140.78h10.98m0 0v.47m0 0h-10.98m0 0v-.47M223.79 142.04h10.98m0 0v.47m0 0h-10.98m0 0v-.47M223.79 143.29h10.98m0 0v.47m0 0h-10.98m0 0v-.47M223.87 145.95l10.91-1.4m0 0 .05.47m0 0-10.91 1.4m0 0-.05-.47"/></g><g fill="none" stroke="#6a6a6a" stroke-linecap="round" stroke-linejoin="round" stroke-width=".25"><path d="M136.88 176.32v18.05m0 0h99.78m0 0v-18.05m0 0h-99.78M236.65 183.36v.44m0 0h-99.78m0 0v-.44m0 0h99.78M141.95 189.01v-10.84m0 0h.52m0 0v10.84m0 0h-.52M143.32 189.01v-10.84m0 0h.52m0 0v10.84m0 0h-.52M144.69 189.01v-10.84m0 0h.52m0 0v10.84m0 0h-.52M146.06 189.01v-10.84m0 0h.52m0 0v10.84m0 0h-.52M148.96 188.93l-1.53-10.76m0 0 .51-.05m0 0 1.53 10.76m0 0-.51.05"/></g></g><g id="Walls_Inside" fill="#2d2d2c"><path d="M80.77 339.71v-8.34H214.4v8.34z"/><path d="M206.69 288.66h8.34v51.06h-8.34z"/><path d="M207.58 297v-8.34H327.6V297zM158.52 317.68h2.83v19.2h-2.83zM97.28 207.04h2.83v76.03h-2.83zM134.05 196.18v-2.83h82.09v2.83zM90.3 144.87v-2.83h14.97v2.83zM59.21 143.46h2.83v20.09h-2.83zM59.21 188.36h2.83v20.09h-2.83z"/><path d="M5.98 144.88v-2.83h59.55v2.83zM93.85 209.87v-2.83h6.26v2.83zM5.6 209.87v-2.83h67.73v2.83zM130.04 144.88v-2.83h59.28v2.83zM134.04 172.87h2.83v21.5h-2.83zM236.56 134.4h2.83v56.71h-2.83zM220.06 110.6v-2.83h109.83v2.83z"/><path d="M236.56 108.14h2.83v6.05h-2.83zM186.49 13.85h2.83v131.02h-2.83z"/><path fill-rule="evenodd" d="M7.8 269.37H0V1.17l7.8 5.09v263.11z"/><path d="M134.04 142.5h2.83v5.93h-2.83zM158.52 291.49v-2.83h52.8v2.83z"/><path d="M158.52 271.69h2.83v18.99h-2.83z"/><path d="M158.52 274.53v-2.83h14.92v2.83zM79.83 272.54v-2.83h19.11v2.83z"/><path d="M170.6 271.69h2.83v18.99h-2.83zM75.85 283.07v-2.83h24.26v2.83zM2.36 260.28v-1.98h96.33v1.98zM237.97 181.35v-1.98h66.8v1.98z"/></g><g id="Walls_Outside"><path fill="none" stroke="#000" stroke-linecap="round" stroke-linejoin="round" stroke-width=".22" d="m18.93 11.48-2.66 10.68M20.23 6.26l-.97 3.91M19.26 10.17l-.33 1.31M71.31 24.54l-2.66 10.69M72.61 19.33l-.97 3.9M71.64 23.24l-.33 1.3"/><path fill="none" stroke="#000" stroke-linecap="round" stroke-linejoin="round" stroke-width=".25" d="M72.61 19.33 20.23 6.26M68.65 35.23 16.27 22.16M71.31 24.54l-2.99-.75M68.32 23.79l.33-1.3M68.65 22.49l2.99.75M41.71 15.77l1.49.38M43.2 16.15l-.32 1.3M42.88 17.45l-1.5-.37M68.48 23.14 43.04 16.8M68.32 23.79l-25.44-6.34M43.2 16.15l25.45 6.34M41.38 17.08l-.75-.19M40.63 16.89l.17-.65M40.8 16.24l-.75-.19M40.05 16.05l.16-.65M40.21 15.4l1.5.37M19.26 10.17l2.34.59M21.61 10.76l-.17.65M21.44 11.41l-.58-.15M20.86 11.26l-.17.66M20.69 11.92l-1.76-.44M21.6 10.76l18.61 4.64M38.23 16.98l-14.97-3.73M40.47 17.54l-2.24-.56M38.23 16.98l.32-1.3M38.55 15.68l2.25.56M40.8 16.24l-.33 1.3M20.86 11.26l1.76.44M22.62 11.7l-.33 1.31M22.29 13.01l-1.76-.44M20.53 12.57l.33-1.3M22.62 11.7l15.93 3.98M38.23 16.98l-15.94-3.97M38.39 16.33l-15.94-3.97"/><path fill="none" stroke="#000" stroke-linecap="round" stroke-linejoin="round" stroke-width=".22" d="m71.64 23.24-.33 1.3M71.64 23.24l-.33 1.3M72.61 19.33l-.97 3.9M71.31 24.54l-2.66 10.69M19.26 10.17l-.33 1.31M19.26 10.17l-.33 1.31M20.23 6.26l-.97 3.91M18.93 11.48l-2.66 10.68M72.61 19.33l-3.96 15.9"/><path fill="#2d2d2c" fill-rule="evenodd" d="M4.14 19.14 1 18.36 0 1.17l20.23 5.09-3.96 15.9-8.31-2.07-3.82-.95z"/><path fill="#2d2d2c" d="m68.649 35.226 3.965-15.903 26.207 6.534-3.965 15.904z"/><path fill="none" stroke="#000" stroke-linecap="round" stroke-linejoin="round" stroke-width=".22" d="M215.44 5.5v11.01M215.44.13v4.02M215.44 4.16V5.5M269.42 5.5v11.01M269.42.13v4.02M269.42 4.16V5.5"/><path fill="none" stroke="#000" stroke-linecap="round" stroke-linejoin="round" stroke-width=".25" d="M269.42.13 215.44.12M269.42 16.51h-53.98M269.42 5.5h-3.08M266.34 5.5V4.16M266.34 4.16h3.08M238.57 4.16h1.55M240.12 4.16V5.5M240.12 5.5h-1.55M266.34 4.83h-26.22M266.34 5.5h-26.22M240.12 4.16h26.22M238.57 5.5h-.77M237.8 5.5v-.67M237.8 4.83h-.77M237.03 4.83v-.67M237.03 4.16h1.54M215.44 4.16h2.42M217.86 4.16v.67M217.86 4.83h-.61M217.25 4.83v.67M217.25 5.5h-1.81M217.86 4.16h19.17M235.49 6.17h-15.43M237.8 6.17h-2.31M235.49 6.17V4.83M235.49 4.83h2.31M237.8 4.83v1.34M217.25 4.83h1.82M219.07 4.83v1.34M219.07 6.17h-1.82M217.25 6.17V4.83M219.07 4.83h16.42M235.49 6.17h-16.42M235.49 5.5h-16.42"/><path fill="none" stroke="#000" stroke-linecap="round" stroke-linejoin="round" stroke-width=".22" d="M269.42 4.16V5.5M269.42 4.16V5.5M269.42.13v4.02M269.42 5.5v11.01M215.44 4.16V5.5M215.44 4.16V5.5M215.44.13v4.02M215.44 5.5v11.01M269.42.13v16.38"/><path fill="#2d2d2c" fill-rule="evenodd" d="M201.38 16.51h-9.64V.12h23.7v16.39h-14.06z"/><path fill="#2d2d2c" d="M269.42.12h30.1v16.39h-30.1z"/><path fill="none" stroke="#000" stroke-linecap="round" stroke-linejoin="round" stroke-width=".22" d="m117.67 24.13 2.66 10.69M116.37 18.92l.97 3.91M117.34 22.83l.33 1.3M170.05 11.07l2.67 10.69M168.75 5.86l.98 3.91M169.73 9.77l.32 1.3"/><path fill="none" stroke="#000" stroke-linecap="round" stroke-linejoin="round" stroke-width=".25" d="m168.75 5.86-52.38 13.06M172.72 21.76l-52.39 13.06M170.05 11.07l-2.99.75M167.06 11.82l-.33-1.31M166.73 10.51l3-.74M139.79 17.23l1.5-.37M141.29 16.86l.33 1.3M141.62 18.16l-1.5.37M166.9 11.17l-25.45 6.34M167.06 11.82l-25.44 6.34M141.29 16.86l25.44-6.35M140.12 18.53l-.75.19M139.37 18.72l-.16-.65M139.21 18.07l-.75.19M138.46 18.26l-.16-.66M138.3 17.6l1.49-.37M117.34 22.83l2.35-.59M119.69 22.24l.17.65M119.86 22.89l-.59.15M119.27 23.04l.16.65M119.43 23.69l-1.76.44M119.69 22.24l18.61-4.64M137.29 19.93l-14.97 3.73M139.53 19.37l-2.24.56M137.29 19.93l-.33-1.3M136.96 18.63l2.25-.56M139.21 18.07l.32 1.3M119.27 23.04l1.76-.44M121.03 22.6l.32 1.3M121.35 23.9l-1.76.44M119.59 24.34l-.32-1.3M121.03 22.6l15.93-3.97M137.29 19.93l-15.94 3.97M137.13 19.28l-15.94 3.97"/><path fill="none" stroke="#000" stroke-linecap="round" stroke-linejoin="round" stroke-width=".22" d="m169.73 9.77.32 1.3M169.73 9.77l.32 1.3M168.75 5.86l.98 3.91M170.05 11.07l2.67 10.69M117.34 22.83l.33 1.3M117.34 22.83l.33 1.3M116.37 18.92l.97 3.91M117.67 24.13l2.66 10.69M168.75 5.86l3.97 15.9"/><path fill="#2d2d2c" fill-rule="evenodd" d="m104.99 38.64-10.52 2.63-3.96-15.9 25.86-6.45 3.96 15.9-10.52 2.62-4.82 1.2z"/><path fill="#2d2d2c" d="M168.754 5.86 191.741.129l3.965 15.903-22.987 5.73z"/><path fill="none" stroke="#000" stroke-linecap="round" stroke-linejoin="round" stroke-width=".22" d="m333.21 127.16-10.77-2.29M338.47 128.28l-3.95-.84M334.52 127.44l-1.31-.28M324.4 168.6l-10.77-2.29M329.66 169.72l-3.94-.84M325.72 168.88l-1.32-.28"/><path fill="none" stroke="#000" stroke-linecap="round" stroke-linejoin="round" stroke-width=".25" d="m329.66 169.72 8.81-41.44M313.63 166.31l8.81-41.44M324.4 168.6l.51-2.36M324.91 166.24l1.31.27M326.22 166.51l-.5 2.37M330.75 145.2l-.25 1.19M330.5 146.39l-1.32-.28M329.18 146.11l.26-1.19M325.56 166.38l4.28-20.13M324.91 166.24l4.27-20.13M330.5 146.39l-4.28 20.12M329.44 144.92l.12-.59M329.56 144.33l.66.14M330.22 144.47l.12-.59M330.34 143.88l.66.14M331 144.02l-.25 1.18M334.52 127.44l-.5 2.37M334.02 129.81l-.66-.14M333.36 129.67l.13-.59M333.49 129.08l-.66-.14M332.83 128.94l.38-1.78M334.02 129.81 331 144.02M329.28 142.42l2.52-11.84M328.9 144.19l.38-1.77M329.28 142.42l1.32.28M330.6 142.7l-.38 1.77M330.22 144.47l-1.32-.28M333.49 129.08l-.38 1.78M333.11 130.86l-1.31-.28M331.8 130.58l.38-1.78M332.18 128.8l1.31.28M333.11 130.86l-2.51 11.84M329.28 142.42l2.52-11.84M329.94 142.56l2.51-11.84"/><path fill="none" stroke="#000" stroke-linecap="round" stroke-linejoin="round" stroke-width=".22" d="m325.72 168.88-1.32-.28M325.72 168.88l-1.32-.28M329.66 169.72l-3.94-.84M324.4 168.6l-10.77-2.29M334.52 127.44l-1.31-.28M334.52 127.44l-1.31-.28M338.47 128.28l-3.95-.84M333.21 127.16l-10.77-2.29M329.66 169.72l-16.03-3.41"/><path fill="#2d2d2c" fill-rule="evenodd" d="m326.98 103.5 3.11-14.65 16.03 3.4-7.65 36.03-16.03-3.41 3.11-14.65 1.43-6.72z"/><path fill="#2d2d2c" d="m310.445 181.282 3.184-14.975 16.031 3.408-3.183 14.975z"/><path fill="none" stroke="#000" stroke-linecap="round" stroke-linejoin="round" stroke-width=".22" d="M340.75 29.6h-11.01M346.12 29.6h-4.03M342.09 29.6h-1.34M340.75 67.15h-11.01M346.12 67.15h-4.03M342.09 67.15h-1.34"/><path fill="none" stroke="#000" stroke-linecap="round" stroke-linejoin="round" stroke-width=".25" d="M346.12 67.15V29.6M329.74 67.15V29.6M340.75 67.15v-2.42M340.75 64.73h1.34M342.09 64.73v2.42M342.09 47.76v1.21M342.09 48.97h-1.34M340.75 48.97v-1.21M341.42 64.73V48.97M340.75 64.73V48.97M342.09 48.97v15.76M340.75 47.76v-.61M340.75 47.15h.67M341.42 47.15v-.6M341.42 46.55h.67M342.09 46.55v1.21M342.09 29.6v2.42M342.09 32.02h-.67M341.42 32.02v-.6M341.42 31.42h-.67M340.75 31.42V29.6M342.09 32.02v14.53M340.08 45.34V33.23M340.08 47.15v-1.81M340.08 45.34h1.34M341.42 45.34v1.81M341.42 47.15h-1.34M341.42 31.42v1.81M341.42 33.23h-1.34M340.08 33.23v-1.81M340.08 31.42h1.34M341.42 33.23v12.11M340.08 45.34V33.23M340.75 45.34V33.23"/><path fill="none" stroke="#000" stroke-linecap="round" stroke-linejoin="round" stroke-width=".22" d="M342.09 67.15h-1.34M342.09 67.15h-1.34M346.12 67.15h-4.03M340.75 67.15h-11.01M342.09 29.6h-1.34M342.09 29.6h-1.34M346.12 29.6h-4.03M340.75 29.6h-11.01M346.12 67.15h-16.38"/><path fill="#2d2d2c" fill-rule="evenodd" d="M329.74 17.75V9.62h16.38V29.6h-16.38V17.75z"/><path fill="#2d2d2c" d="M329.74 67.15h16.39v25.1h-16.39z"/><path fill="none" stroke="#000" stroke-linecap="round" stroke-linejoin="round" stroke-width=".22" d="m333.82 212.51-10.85-1.91M339.11 213.45l-3.97-.7M335.14 212.75l-1.32-.24M324.36 266.17l-10.85-1.91M329.65 267.11l-3.97-.7M325.68 266.41l-1.32-.24"/><path fill="none" stroke="#000" stroke-linecap="round" stroke-linejoin="round" stroke-width=".25" d="m329.65 267.11 9.46-53.66M313.51 264.26l9.46-53.66M324.36 266.17l.44-2.51M324.8 263.66l1.32.24M326.12 263.9l-.44 2.51M330.1 241.33l-.22 1.25M329.88 242.58l-1.32-.23M328.56 242.35l.22-1.26M325.46 263.78l3.76-21.32M324.8 263.66l3.76-21.31M329.88 242.58l-3.76 21.32M328.78 241.09l.11-.62M328.89 240.47l.66.11M329.55 240.58l.11-.62M329.66 239.96l.66.11M330.32 240.07l-.22 1.26M335.14 212.75l-.54 3.06M334.6 215.81l-.66-.11M333.94 215.7l.13-.77M334.07 214.93l-.66-.12M333.41 214.81l.41-2.3M334.6 215.81l-4.28 24.26M329.64 232.33l2.71-15.33M328.23 240.35l.33-1.88M328.56 238.47l1.32.23M329.88 238.7l-.33 1.88M329.55 240.58l-1.32-.23M334.07 214.93l-.4 2.3M333.67 217.23l-1.32-.23M332.35 217l.4-2.3M332.75 214.7l1.32.23M333.67 217.23l-3.79 21.47M328.56 238.47l3.79-21.47M329.24 238.59l3.77-21.48"/><path fill="none" stroke="#000" stroke-linecap="round" stroke-linejoin="round" stroke-width=".22" d="m325.68 266.41-1.32-.24M325.68 266.41l-1.32-.24M329.65 267.11l-3.97-.7M324.36 266.17l-10.85-1.91M335.14 212.75l-1.32-.24M335.14 212.75l-1.32-.24M339.11 213.45l-3.97-.7M333.82 212.51l-10.85-1.91M329.65 267.11l-16.14-2.85"/><path fill="#2d2d2c" fill-rule="evenodd" d="m324.85 199.97 1.28-7.28 16.14 2.85-3.16 17.91-16.14-2.85 1.29-7.28.59-3.35z"/><path fill="#2d2d2c" d="m313.003 267.109.502-2.846 16.141 2.846-.502 2.846zM294.63.12h51.49v16.39h-51.49zM325.88 179.41h16.39v16.13h-16.39zM326.61 275.91H343V297h-16.39z"/><path fill="#2d2d2c" d="M313.02 267.11h16.75V297h-16.75zM302.78 169.72h27.85V191h-27.85zM92.44 28.29h8.7v116.59h-8.7z"/><path fill="#2d2d2c" d="M215.03 196.18v-8.7h114.54v8.7zM75.41 266.87h6.08v17.1h-6.08zM75.41 314.21h6.08v25.47h-6.08z"/><path fill="#2d2d2c" d="M0 273.2v-6.33h81.49v6.33z"/></g><g id="Doors"><path fill="none" stroke="#000" stroke-linecap="round" stroke-linejoin="round" stroke-width=".29" d="M66.15 286.42c4.7-1.72 7.11-2.19 12.11-2.45"/><path fill="#2d2d2c" fill-rule="evenodd" d="m65.38 286.46 1.34-.57 12.32 27.89v.43h-1.45l-12.21-27.75z"/><path fill="none" stroke="#000" stroke-linecap="round" stroke-linejoin="round" stroke-width=".29" d="M128.04 133.77c1.41 3.85 1.8 5.82 2 9.92"/><path fill="#2d2d2c" fill-rule="evenodd" d="m128 133.15.47 1.09-22.85 10.1h-.35v-1.2l22.73-9.99z"/><path fill="none" stroke="#000" stroke-linecap="round" stroke-linejoin="round" stroke-width=".29" d="M74.98 216.68c-1.17-3.19-1.49-4.83-1.66-8.23"/><path fill="#2d2d2c" fill-rule="evenodd" d="m75.01 217.19-.39-.91 18.94-8.36h.3v.98l-18.85 8.29z"/><path fill="none" stroke="#000" stroke-linecap="round" stroke-linejoin="round" stroke-width=".29" d="M67.54 133.77c-1.41 3.85-1.8 5.82-2 9.92"/><path fill="#2d2d2c" fill-rule="evenodd" d="m67.57 133.15-.47 1.09 22.85 10.1h.35v-1.2l-22.73-9.99z"/><path fill="none" stroke="#000" stroke-linecap="round" stroke-linejoin="round" stroke-width=".29" d="M145.89 170.9c-3.8 1.39-5.74 1.77-9.79 1.98"/><path fill="#2d2d2c" fill-rule="evenodd" d="m146.51 170.87-1.09.46-9.96-22.55v-.35h1.18l9.87 22.44z"/><path fill="none" stroke="#000" stroke-linecap="round" stroke-linejoin="round" stroke-width=".29" d="M246.07 132.76c-3.14 1.15-4.75 1.47-8.09 1.63"/><path fill="#2d2d2c" fill-rule="evenodd" d="m246.58 132.74-.89.38-8.24-18.64v-.29h.98l8.15 18.55z"/><path fill="none" stroke="#000" stroke-linecap="round" stroke-linejoin="round" stroke-width=".29" d="M71.2 165.59c-3.92-1.44-5.93-1.83-10.11-2.04"/><path fill="#2d2d2c" fill-rule="evenodd" d="m71.83 165.62-1.12-.47-10.28 23.27v.36h1.22l10.18-23.16z"/></g><g id="Sizes"><path d="M41.63 114.19h-.9v-5.41l-.91.56v-.93l.91-.61h.9v6.39ZM42.98 113.41l2.23-2.97c.13-.17.23-.35.3-.53.07-.18.11-.35.11-.51 0-.26-.07-.46-.22-.6s-.36-.21-.64-.21c-.26 0-.47.08-.63.23-.16.15-.26.37-.29.65s-.93 0-.93 0c.05-.37.16-.68.32-.94.16-.26.37-.46.63-.59.26-.14.55-.2.89-.2.38 0 .71.07.98.2s.47.32.62.57.21.55.21.9c0 .23-.05.47-.14.71s-.22.48-.39.71l-1.85 2.51h2.42v.85H43v-.78ZM47.64 113.3h.9v.9l-.9.89v-1.78ZM50.23 113.78c-.31-.32-.46-.76-.46-1.34v-2.9c0-.57.16-1.02.47-1.34.31-.32.76-.48 1.36-.48s1.05.16 1.36.47c.31.32.46.76.46 1.34v2.9c0 .57-.16 1.02-.47 1.34-.31.32-.76.48-1.36.48s-1.05-.16-1.36-.48Zm2.06-.62c.15-.17.23-.4.23-.71v-2.9c0-.31-.07-.55-.22-.71-.15-.17-.38-.25-.7-.25s-.55.08-.7.25c-.15.17-.22.4-.22.71v2.9c0 .31.08.55.23.71.15.17.38.25.7.25s.55-.08.7-.25ZM55.44 114.06c-.27-.13-.49-.32-.66-.57a1.97 1.97 0 0 1-.31-.89h.91c.03.18.08.33.17.45s.2.2.34.26.3.09.49.09c.3 0 .53-.08.69-.24s.25-.38.25-.67v-.19c0-.32-.08-.57-.23-.74-.16-.17-.38-.26-.66-.26h-.45v-.85h.45c.25 0 .44-.07.58-.22s.21-.36.21-.63v-.2c0-.25-.07-.45-.22-.58-.15-.14-.35-.21-.62-.21-.15 0-.29.03-.41.09s-.22.15-.31.26c-.08.12-.14.27-.18.45h-.91c.06-.35.17-.65.33-.9s.37-.44.62-.57.54-.19.86-.19c.55 0 .98.15 1.28.44s.45.7.45 1.23v.11c0 .32-.09.6-.26.83s-.42.41-.73.52c.35.08.62.25.81.51.19.27.29.61.29 1.02v.11c0 .37-.07.69-.22.95s-.35.46-.63.6c-.27.14-.6.21-.99.21-.36 0-.67-.07-.94-.2ZM134.69 114.19h-.9v-5.41l-.91.56v-.93l.91-.61h.9v6.39ZM136.04 113.41l2.23-2.97c.13-.17.23-.35.3-.53.07-.18.11-.35.11-.51 0-.26-.07-.46-.22-.6s-.36-.21-.64-.21c-.26 0-.47.08-.63.23-.16.15-.26.37-.29.65s-.93 0-.93 0c.05-.37.16-.68.32-.94.16-.26.37-.46.63-.59.26-.14.55-.2.89-.2.38 0 .71.07.98.2s.47.32.62.57.21.55.21.9c0 .23-.05.47-.14.71s-.22.48-.39.71l-1.85 2.51h2.42v.85h-3.6v-.78ZM140.7 113.3h.9v.9l-.9.89v-1.78ZM142.73 113.41l2.23-2.97c.13-.17.23-.35.3-.53.07-.18.11-.35.11-.51 0-.26-.07-.46-.22-.6s-.36-.21-.64-.21c-.26 0-.47.08-.63.23-.16.15-.26.37-.29.65s-.93 0-.93 0c.05-.37.16-.68.32-.94.16-.26.37-.46.63-.59.26-.14.55-.2.89-.2.38 0 .71.07.98.2s.47.32.62.57.21.55.21.9c0 .23-.05.47-.14.71s-.22.48-.39.71l-1.85 2.51h2.42v.85h-3.6v-.78ZM147.39 112.43l2.14-4.63h.92l-2.09 4.57h3.13v.83h-4.11v-.78Zm2.76-2h.87v3.76h-.87v-3.76ZM264.78 47.58h-.9v-5.41l-.91.56v-.93l.91-.61h.9v6.39ZM267.16 47.46a1.61 1.61 0 0 1-.61-.55c-.16-.24-.26-.53-.31-.87s.9 0 .9 0c.03.24.13.42.28.55.16.13.36.2.61.2.29 0 .51-.1.67-.29.16-.19.24-.46.24-.81v-.54c0-.35-.08-.61-.24-.81-.16-.19-.38-.29-.67-.29-.16 0-.3.04-.45.13s-.27.21-.38.37h-.82v-3.37h3.26v.85h-2.36v1.44c.11-.09.24-.16.37-.21s.28-.07.42-.07c.37 0 .68.08.95.23.26.15.46.38.6.67.14.29.21.65.21 1.06v.54c0 .41-.07.77-.21 1.06s-.35.52-.62.67c-.27.15-.59.23-.97.23-.32 0-.61-.06-.86-.19ZM271.04 46.69h.9v.9l-.9.89V46.7ZM275.43 44.41v.16c-.08.13-.19.23-.34.3-.15.06-.32.09-.53.09-.3 0-.57-.08-.8-.23s-.41-.37-.54-.66c-.13-.28-.19-.61-.19-.98 0-.42.07-.77.21-1.06.14-.29.34-.52.61-.67.27-.15.59-.23.96-.23s.7.08.96.23.47.38.61.68c.14.3.21.65.21 1.07 0 .23-.03.48-.09.74s-.14.52-.25.77c-.02.04-.04.08-.05.12l-.06.12-1.36 2.74h-.97l1.61-3.17Zm.04-.55c.15-.19.23-.46.23-.8s-.08-.6-.23-.79c-.15-.18-.37-.28-.65-.28s-.5.09-.66.28c-.15.18-.23.45-.23.79 0 .35.08.62.23.81.15.19.37.28.66.28s.5-.1.65-.29ZM277.7 45.82l2.14-4.63h.92l-2.09 4.57h3.13v.83h-4.11v-.78Zm2.76-2h.87v3.76h-.87v-3.76ZM268.22 131.33l-1.65 5.59h-.95l1.65-5.54h-1.63v.92h-.9v-1.77h3.48v.8ZM269.36 136.02h.9v.9l-.9.89v-1.78ZM271.4 135.16l2.14-4.63h.92l-2.09 4.57h3.13v.83h-4.11v-.78Zm2.76-2h.87v3.76h-.87v-3.76ZM278.87 133.74v.16c-.08.13-.19.23-.34.3-.15.06-.32.09-.53.09-.3 0-.57-.08-.8-.23s-.41-.37-.54-.66c-.13-.28-.19-.61-.19-.98 0-.42.07-.77.21-1.06.14-.29.34-.52.61-.67.27-.15.59-.23.96-.23s.7.08.96.23.47.38.61.68c.14.3.21.65.21 1.07 0 .23-.03.48-.09.74s-.14.52-.25.77c-.02.04-.04.08-.05.12l-.06.12-1.36 2.74h-.97l1.61-3.17Zm.04-.55c.15-.19.23-.46.23-.8s-.08-.6-.23-.79c-.15-.18-.37-.28-.65-.28s-.5.09-.66.28c-.15.18-.23.45-.23.79 0 .35.08.62.23.81.15.19.37.28.66.28s.5-.1.65-.29ZM264.98 247.79h-.9v-5.41l-.91.56v-.93l.91-.61h.9v6.39ZM269.73 242.2l-1.65 5.59h-.95l1.65-5.54h-1.63v.92h-.9v-1.77h3.48v.8ZM270.87 246.89h.9v.9l-.9.89v-1.78ZM272.9 247.01l2.23-2.97c.13-.17.23-.35.3-.53.07-.18.11-.35.11-.51 0-.26-.07-.46-.22-.6s-.36-.21-.64-.21c-.26 0-.47.08-.63.23-.16.15-.26.37-.29.65s-.93 0-.93 0c.05-.37.16-.68.32-.94.16-.26.37-.46.63-.59.26-.14.55-.2.89-.2.38 0 .71.07.98.2s.47.32.62.57.21.55.21.9c0 .23-.05.47-.14.71s-.22.48-.39.71l-1.85 2.51h2.42v.85h-3.6v-.78ZM278.5 247.63c-.29-.15-.52-.35-.68-.62a1.79 1.79 0 0 1-.24-.93v-.11c0-.32.08-.62.24-.9.16-.28.37-.49.64-.64-.23-.12-.41-.3-.54-.53-.14-.23-.2-.48-.2-.74v-.15c0-.33.07-.63.22-.88s.36-.45.63-.59c.27-.14.59-.21.95-.21s.68.07.95.21c.27.14.48.34.63.59.15.25.22.55.22.88v.15c0 .26-.07.51-.21.74a1.4 1.4 0 0 1-.55.53c.27.15.49.36.65.64.16.28.24.58.24.9v.11c0 .35-.08.67-.24.93-.16.27-.39.48-.68.62s-.63.22-1.02.22-.73-.07-1.02-.22Zm1.57-.76c.16-.08.28-.2.37-.35.09-.15.13-.32.13-.51v-.06c0-.2-.04-.37-.13-.52-.09-.15-.21-.26-.37-.34s-.34-.12-.55-.12-.39.04-.55.12-.28.2-.37.35a.98.98 0 0 0-.13.52v.07c0 .19.04.36.13.51.09.15.21.26.37.34s.34.12.55.12.39-.04.55-.12Zm-.08-2.88c.14-.08.25-.19.32-.33s.11-.31.11-.5v-.06c0-.18-.04-.34-.11-.47s-.18-.24-.32-.32c-.14-.07-.3-.11-.47-.11s-.34.04-.47.11c-.14.08-.24.18-.32.32s-.11.3-.11.48v.07c0 .18.04.35.11.49.08.14.18.25.32.33s.3.12.47.12.34-.04.47-.12ZM198.19 158.38l-1.65 5.59h-.95l1.65-5.54h-1.63v.92h-.9v-1.77h3.48v.8ZM199.34 163.07h.9v.9l-.9.89v-1.78ZM202.32 163.81c-.29-.15-.52-.35-.68-.62a1.79 1.79 0 0 1-.24-.93v-.11c0-.32.08-.62.24-.9.16-.28.37-.49.64-.64-.23-.12-.41-.3-.54-.53-.14-.23-.21-.48-.21-.74v-.15c0-.33.08-.63.22-.88.15-.25.36-.45.63-.59.27-.14.59-.21.95-.21s.68.07.95.21c.27.14.48.34.63.59.15.25.22.55.22.88v.15c0 .26-.07.51-.21.74a1.4 1.4 0 0 1-.55.53c.27.15.49.36.65.64.16.28.24.58.24.9v.11c0 .35-.08.67-.24.93-.16.27-.39.48-.68.62s-.63.22-1.02.22-.73-.07-1.02-.22Zm1.57-.76c.16-.08.28-.2.37-.35.09-.15.13-.32.13-.51v-.06c0-.2-.04-.37-.13-.52-.09-.15-.21-.26-.37-.34s-.34-.12-.55-.12-.39.04-.55.12-.28.2-.37.35a.98.98 0 0 0-.13.52v.07c0 .19.04.36.13.51.09.15.21.26.37.34s.34.12.55.12.39-.04.55-.12Zm-.07-2.88c.14-.08.24-.19.32-.33s.11-.31.11-.5v-.06c0-.18-.04-.34-.11-.47s-.18-.24-.32-.32c-.14-.07-.3-.11-.47-.11s-.34.04-.47.11c-.14.08-.25.18-.32.32s-.11.3-.11.48v.07c0 .18.04.35.11.49.08.14.18.25.32.33s.3.12.47.12.34-.04.47-.12ZM208.07 163.97h-.9v-5.41l-.91.56v-.93l.91-.61h.9v6.39ZM47.94 227.9c-.27-.15-.47-.37-.61-.66-.14-.29-.21-.64-.21-1.04a3.99 3.99 0 0 1 .32-1.52c.02-.04.04-.09.06-.13l.06-.12 1.39-2.75h.97l-1.63 3.19v-.16c.08-.14.18-.24.33-.32s.3-.11.49-.11c.33 0 .62.07.85.22s.42.37.54.65c.12.29.18.63.18 1.03 0 .41-.07.77-.21 1.06-.14.29-.34.52-.61.67-.27.15-.59.23-.96.23s-.7-.08-.96-.23Zm1.62-.9c.15-.18.23-.43.23-.75 0-.36-.08-.64-.24-.83-.16-.19-.39-.29-.69-.29-.27 0-.47.1-.62.29s-.22.47-.22.83c0 .33.08.58.23.75.15.17.37.26.65.26s.5-.09.66-.26ZM51.79 227.16h.9v.9l-.9.89v-1.78ZM53.83 226.3l2.14-4.63h.92l-2.09 4.57h3.13v.83h-4.11v-.78Zm2.76-2h.87v3.76h-.87v-3.76ZM62.34 222.47l-1.65 5.59h-.95l1.65-5.54h-1.63v.92h-.9v-1.77h3.48v.8ZM117.61 305.6h-.9v-5.41l-.91.56v-.93l.91-.61h.9v6.39ZM122.36 300.02l-1.65 5.59h-.95l1.65-5.54h-1.63v.92h-.9v-1.77h3.48v.8ZM123.5 304.71h.9v.9l-.9.89v-1.78ZM126.55 305.48a1.61 1.61 0 0 1-.61-.55c-.16-.24-.26-.53-.31-.87s.9 0 .9 0c.03.24.13.42.28.55.16.13.36.2.61.2.29 0 .51-.1.67-.29.16-.19.24-.46.24-.81v-.54c0-.35-.08-.61-.24-.81-.16-.19-.38-.29-.67-.29-.16 0-.3.04-.45.13s-.27.21-.38.37h-.82v-3.37h3.26v.85h-2.36v1.44c.11-.09.24-.16.37-.21s.28-.07.42-.07c.37 0 .68.08.95.23.26.15.46.38.6.67.14.29.21.65.21 1.06v.54c0 .41-.07.77-.21 1.06s-.35.52-.62.67c-.27.15-.59.23-.97.23-.32 0-.61-.06-.86-.19ZM130.44 303.85l2.14-4.63h.92l-2.09 4.57h3.13v.83h-4.11v-.78Zm2.75-2h.88v3.76h-.88v-3.76ZM169.47 304.83l2.23-2.97c.13-.17.23-.35.3-.53.07-.18.11-.35.11-.51 0-.26-.07-.46-.22-.6s-.36-.21-.64-.21c-.26 0-.47.08-.63.23-.16.15-.26.37-.29.65s-.93 0-.93 0c.05-.37.16-.68.32-.94.16-.26.37-.46.63-.59.26-.14.55-.2.89-.2.38 0 .71.07.98.2s.47.32.62.57.21.55.21.9c0 .23-.05.47-.14.71s-.22.48-.39.71l-1.85 2.51h2.42v.85h-3.6v-.78ZM174.13 304.71h.9v.9l-.9.89v-1.78ZM176.96 305.47c-.27-.13-.49-.32-.66-.57a1.97 1.97 0 0 1-.31-.89h.91c.03.18.08.33.17.45s.2.2.34.26.3.09.49.09c.3 0 .53-.08.69-.24s.25-.38.25-.67v-.19c0-.32-.08-.57-.23-.74-.16-.17-.38-.26-.66-.26h-.45v-.85h.45c.25 0 .44-.07.58-.22s.21-.36.21-.63v-.2c0-.25-.07-.45-.22-.58-.15-.14-.35-.21-.62-.21-.15 0-.29.03-.41.09s-.22.15-.31.26c-.08.12-.14.27-.18.45h-.91c.06-.35.17-.65.33-.9s.37-.44.62-.57.54-.19.86-.19c.55 0 .98.15 1.28.44s.45.7.45 1.23v.11c0 .32-.09.6-.26.83s-.42.41-.73.52c.35.08.62.25.81.51.19.27.29.61.29 1.02v.11c0 .37-.07.69-.22.95s-.35.46-.63.6c-.27.14-.6.21-.99.21-.36 0-.67-.07-.94-.2ZM182.56 305.6h-.9v-5.41l-.91.56v-.93l.91-.61h.9v6.39ZM32.01 181.97c-.27-.13-.49-.32-.66-.57a1.97 1.97 0 0 1-.31-.89h.91c.03.18.08.33.17.45s.2.2.34.26.3.09.49.09c.3 0 .53-.08.69-.24s.25-.38.25-.67v-.19c0-.32-.08-.57-.23-.74-.16-.17-.38-.26-.66-.26h-.45v-.85H33c.25 0 .44-.07.58-.22s.21-.36.21-.63v-.2c0-.25-.07-.45-.22-.58-.15-.14-.35-.21-.62-.21-.15 0-.29.03-.41.09s-.22.15-.31.26c-.08.12-.14.27-.18.45h-.91c.06-.35.17-.65.33-.9s.37-.44.62-.57.53-.19.86-.19c.55 0 .98.15 1.28.44s.45.7.45 1.23v.11c0 .32-.09.6-.26.83s-.42.41-.73.52c.35.08.62.25.81.51.19.27.29.61.29 1.02v.11c0 .37-.07.69-.21.95s-.35.46-.63.6c-.27.14-.6.21-.99.21-.36 0-.67-.07-.95-.2ZM35.97 181.2h.9v.9l-.9.89v-1.78ZM40.36 178.93v.16c-.08.13-.19.23-.34.3-.15.06-.32.09-.52.09-.3 0-.57-.08-.8-.23s-.41-.37-.54-.66c-.13-.28-.19-.61-.19-.98 0-.42.07-.77.21-1.06.14-.29.34-.52.61-.67.27-.15.59-.23.96-.23s.7.08.96.23.47.38.61.68c.14.3.21.65.21 1.07 0 .23-.03.48-.09.74s-.14.52-.25.77c-.02.04-.04.08-.05.12l-.06.12-1.36 2.74h-.97l1.61-3.17Zm.04-.55c.15-.19.23-.46.23-.8s-.08-.6-.23-.79c-.15-.18-.37-.28-.65-.28s-.5.09-.66.28c-.15.18-.23.45-.23.79 0 .35.08.62.23.81.15.19.37.28.66.28s.5-.1.65-.29ZM44.98 178.93v.16c-.08.13-.19.23-.34.3-.15.06-.32.09-.53.09-.3 0-.57-.08-.8-.23s-.41-.37-.54-.66c-.13-.28-.19-.61-.19-.98 0-.42.07-.77.21-1.06.14-.29.34-.52.61-.67.27-.15.59-.23.96-.23s.7.08.96.23.47.38.61.68c.14.3.21.65.21 1.07 0 .23-.03.48-.09.74s-.14.52-.25.77c-.02.04-.04.08-.05.12l-.06.12-1.36 2.74h-.97l1.61-3.17Zm.04-.55c.15-.19.23-.46.23-.8s-.08-.6-.23-.79c-.15-.18-.37-.28-.65-.28s-.5.09-.66.28c-.15.18-.23.45-.23.79 0 .35.08.62.23.81.15.19.37.28.66.28s.5-.1.65-.29Z"/></g></svg>