<svg xmlns="http://www.w3.org/2000/svg" viewBox="0 0 271.47 367.75"><defs><pattern id="_Новый_узор_4" width="9.82" height="9.82" x="0" y="0" patternTransform="matrix(1.05 0 0 1.03 478.39 567.47)" patternUnits="userSpaceOnUse"><g fill="none"><path d="M0 0h9.82v9.82H0z"/><g fill-rule="evenodd" stroke-linecap="round" stroke-width=".25" clip-path="url(#clippath)"><path stroke="#e6e6e6" stroke-linejoin="round" d="m14.73 19.65-4.91-4.92 4.91-4.91 4.91 4.91-4.91 4.92zM4.91 19.65 0 14.73l4.91-4.91 4.91 4.91-4.91 4.92zM-4.91 19.65l-4.91-4.92 4.91-4.91L0 14.73l-4.91 4.92z"/><path stroke="#e6e6e6" stroke-linejoin="round" d="M14.73 9.82 9.82 4.91 14.73 0l4.91 4.91-4.91 4.91z"/><path stroke="#999" stroke-miterlimit="3" d="M4.91 9.82 0 4.91 4.91 0l4.91 4.91-4.91 4.91z"/><path stroke="#e6e6e6" stroke-linejoin="round" d="m-4.91 9.82-4.91-4.91L-4.91 0 0 4.91l-4.91 4.91zM14.73 0 9.82-4.91l4.91-4.91 4.91 4.91L14.73 0zM4.91 0 0-4.91l4.91-4.91 4.91 4.91L4.91 0zM-4.91 0l-4.91-4.91 4.91-4.91L0-4.91-4.91 0z"/></g></g></pattern><pattern id="_Новый_узор_2" width="22.92" height="23.17" x="0" y="0" patternTransform="matrix(.7 0 0 .67 -2279.11 -2538.13)" patternUnits="userSpaceOnUse"><g fill="none"><path d="M0 0h22.92v23.17H0z"/><path stroke="#b5b5b5" stroke-miterlimit="10" stroke-width=".25" d="M22.69 17.61v11.12H.23V17.61h22.46m.11-.11H.12v11.34H22.8V17.5ZM22.69 6.03v11.12H.23V6.03h22.46m.11-.11H.12v11.34H22.8V5.92ZM22.69-5.56V5.56H.23V-5.56h22.46m.11-.11H.12V5.67H22.8V-5.67Z"/></g></pattern><clipPath id="clippath"><path fill="none" d="M0 0h9.82v9.82H0z"/></clipPath></defs><g id="Flats"><path id="fl43" fill="#fff" d="M260.62 309.05V57.64h1.67v-38.5h-1.67V5.64H99.27l-1.85-1.33h-84l4.8 9.84 9.14 51.57-16.64 28.75 7.5 13.18 9.14 51.57-17.35 31.1 8.57 16.58 9.15 51.43-21.62 73 4.94 34.96 251.2-.01v-56.81l-1.63-.42z"/></g><g id="Grid"><path fill="url(#_Новый_узор_4)" d="M187.28 62.7h67.31v49.74h-67.31z"/><path fill="url(#_Новый_узор_2)" fill-rule="evenodd" d="M243.38 131.61v-9.42h-56.1v47.61h60.43v-38.19h-4.33z"/></g><g id="Mebel"><g fill="none" stroke="#6a6a6a" stroke-linecap="round" stroke-linejoin="round" stroke-width=".25"><path d="M140.38 60.07h-15.33m0 0V7.08m0 0h15.33m0 0v52.99M132.6 7.08h-.49m0 0v52.99m0 0h.49m0 0V7.08M126.34 55.3h12m0 0v-.49m0 0h-12m0 0v.49M126.34 54.01h12m0 0v-.49m0 0h-12m0 0v.49M126.34 52.72h12m0 0v-.48m0 0h-12m0 0v.48M126.34 51.44h12m0 0v-.49m0 0h-12m0 0v.49M126.42 48.71l11.91 1.44m0 0 .06-.48m0 0-11.91-1.44m0 0-.06.48"/></g><g fill="none" stroke="#6a6a6a" stroke-linecap="round" stroke-linejoin="round" stroke-width=".25"><path d="M143.22 7.01v17.21m0 0h110.65m0 0V7.01m0 0H143.22M253.87 15.75v.55m0 0H143.22m0 0v-.55m0 0h110.65M148.58 22.78V9.31m0 0h.54m0 0v13.47m0 0h-.54M150.02 22.78V9.31m0 0h.54m0 0v13.47m0 0h-.54M151.46 22.78V9.31m0 0h.54m0 0v13.47m0 0h-.54M152.91 22.78V9.31m0 0h.54m0 0v13.47m0 0h-.54M155.97 22.68l-1.61-13.37m0 0 .54-.07m0 0 1.61 13.37m0 0-.54.07"/></g><g fill="none" stroke="#6a6a6a" stroke-linecap="round" stroke-linejoin="round" stroke-width=".25"><path d="M152.95 213.6h-11.59m0 0v-40.97m0 0h11.59m0 0v40.97M147.06 172.63h-.37m0 0v40.97m0 0h.37m0 0v-40.97M142.33 208.6h9.07m0 0v-.51m0 0h-9.07m0 0v.51M142.33 207.25h9.07m0 0v-.51m0 0h-9.07m0 0v.51M142.33 205.9h9.07m0 0v-.51m0 0h-9.07m0 0v.51M142.33 204.55h9.07m0 0v-.51m0 0h-9.07m0 0v.51M142.4 201.69l9 1.51m0 0 .04-.5m0 0-9-1.51m0 0-.04.5"/></g><g fill="none" stroke="#6a6a6a" stroke-linecap="round" stroke-linejoin="round" stroke-width=".25"><path d="M212.06 200.53v15.22m0 0h27.17m0 0v-15.22m0 0h-27.17M239.24 208.26v.48m0 0h-27.17m0 0v-.48m0 0h27.17M216.54 214.47v-11.91m0 0h.49m0 0v11.91m0 0h-.49M217.83 214.47v-11.91m0 0h.49m0 0v11.91m0 0h-.49M219.12 214.47v-11.91m0 0h.48m0 0v11.91m0 0h-.48M220.4 214.47v-11.91m0 0h.49m0 0v11.91m0 0h-.49M223.13 214.39l-1.44-11.83m0 0 .48-.06m0 0 1.44 11.83m0 0-.48.06"/></g><g fill="none" stroke="#6a6a6a" stroke-linecap="round" stroke-linejoin="round" stroke-width=".25"><path d="M153.75 283.28v-43.82m0 0h-8.66m0 0v43.82m0 0h8.66M153.32 283.28v-43.82M153.75 261.37h-.43M153.75 283.28h-.43M148.67 246.9h-.58m0 0v25.41m0 0h.58m0 0V246.9M148.09 247.71l-1.95-.41m0 0 .08-.39m0 0 1.87.39m0 0v.41M148.09 252.46h-.48m0 0-.32.09m0 0-.24.24m0 0-.09.33m0 0v13m0 0 .09.32m0 0 .24.24m0 0 .32.09m0 0h.48m0 0v-14.3M148.88 247.71l1.95-.41m0 0-.08-.39m0 0-1.87.39m0 0v.41M148.09 271.51l-1.95.41m0 0 .08.39m0 0 1.87-.39m0 0v-.41M148.84 271.51l1.95.41m0 0-.08.39m0 0-1.87-.39m0 0v-.41M148.84 246.9h-.17m0 0v25.41m0 0h.17m0 0V246.9"/></g><g fill="none" stroke="#6a6a6a" stroke-linecap="round" stroke-linejoin="round" stroke-width=".25"><path d="M129.87 277.79v-43.82m0 0h8.66m0 0v43.82m0 0h-8.66M130.3 277.79v-43.82M129.87 255.88h.43M129.87 277.79h.43M134.95 241.42h.58m0 0v25.41m0 0h-.58m0 0v-25.41M135.53 242.22l1.95-.41m0 0-.08-.39m0 0-1.87.39m0 0v.41M135.53 246.97h.48m0 0 .32.09m0 0 .24.24m0 0 .09.33m0 0v13m0 0-.09.32m0 0-.24.24m0 0-.32.09m0 0h-.48m0 0v-14.3M134.75 242.22l-1.95-.41m0 0 .08-.39m0 0 1.87.39m0 0v.41M135.53 266.02l1.95.41m0 0-.08.39m0 0-1.87-.39m0 0v-.41M134.78 266.02l-1.95.41m0 0 .08.39m0 0 1.87-.39m0 0v-.41M134.78 241.42h.17m0 0v25.41m0 0h-.17m0 0v-25.41"/></g><g fill="none" stroke="#6a6a6a" stroke-linecap="round" stroke-linejoin="round" stroke-width=".25"><path d="M248.45 285.23c1.36 0 2.46 1.1 2.46 2.46s-1.1 2.46-2.46 2.46-2.46-1.1-2.46-2.46 1.1-2.46 2.46-2.46Z"/><path d="M248.45 286.95c.41 0 .74.33.74.74s-.33.74-.74.74-.74-.33-.74-.74.33-.74.74-.74ZM248.45 227.45c1.36 0 2.46 1.1 2.46 2.46s-1.1 2.46-2.46 2.46-2.46-1.1-2.46-2.46 1.1-2.46 2.46-2.46Z"/><path d="M248.45 229.17c.41 0 .74.33.74.74s-.33.74-.74.74-.74-.33-.74-.74.33-.74.74-.74ZM202.96 280.93v-44.26m0 0h49.18m0 0v44.26m0 0h-49.18M201.73 279.7v-41.8m0 0 .09-.47m0 0 .27-.4m0 0 .4-.27m0 0 .47-.09m0 0v44.26m0 0-.47-.09m0 0-.4-.27m0 0-.27-.4m0 0-.09-.47M254.59 280.93v-44.26m0 0h-2.46m0 0v44.26m0 0h2.46M254.59 236.67v44.26m0 0h-1.23m0 0v-44.26m0 0h1.23M254.59 235.44v-11.06m0 0H242.3m0 0v11.06m0 0h12.29M254.59 282.16v11.06m0 0H242.3m0 0v-11.06m0 0h12.29M250.91 254.87v-16.72m0 0-.07-.17m0 0-.17-.07m0 0h-8.11m0 0-.17.07m0 0-.07.17m0 0v16.72m0 0 .07.17m0 0 .17.07m0 0h8.11m0 0 .17-.07m0 0 .07-.17M250.91 262.73v16.72m0 0-.07.17m0 0-.17.07m0 0h-8.11m0 0-.17-.07m0 0-.07-.17m0 0v-16.72m0 0 .07-.17m0 0 .17-.07m0 0h8.11m0 0 .17.07m0 0 .07.17M242.97 280.93v-1.23M242.97 262.49v-7.38M242.97 237.9v-1.23M239.71 280.93v-44.26m0 0h-12.16m0 0 9.7 44.26m0 0h2.46M249.01 290.09l-.56-2.39m0 0-2.23-1.03m0 0 2.23 1.03m0 0 2.31-.85M249.01 227.52l-.56 2.39m0 0-2.23 1.03m0 0 2.23-1.03m0 0 2.31.85"/></g><g fill="none" stroke="#6a6a6a" stroke-linecap="round" stroke-linejoin="round" stroke-width=".25"><path d="M37.5 31.68V7.08m0 0h54.93m0 0v24.6m0 0H37.5M36.13 30.31V8.46m0 0 .1-.53m0 0 .3-.45m0 0 .45-.3m0 0 .53-.1m0 0v24.6m0 0-.53-.1m0 0-.45-.3m0 0-.3-.45m0 0-.1-.53M95.17 31.68V7.08m0 0h-2.75m0 0v24.6m0 0h2.75M95.17 7.08v24.6m0 0H93.8m0 0V7.08m0 0h1.37M91.05 10.09v18.68m0 0-.08.19m0 0-.19.08m0 0h-9.06m0 0-.19-.08m0 0-.08-.19m0 0V10.09m0 0 .08-.19m0 0 .19-.08m0 0h9.06m0 0 .19.08m0 0 .08.19M82.18 31.68v-2.64M82.18 9.82v-2.7M78.54 31.68V7.08m0 0H64.96m0 0 10.83 24.6m0 0h2.75"/></g><g fill="none" stroke="#6a6a6a" stroke-linecap="round" stroke-linejoin="round" stroke-width=".25"><path d="M67.23 70.96h4.39m0 0h.45m0 0 .43.03m0 0 .4.05m0 0 .36.07m0 0h.01m0 0 .32.08m0 0 .26.1m0 0h.02m0 0 .19.11m0 0h.02m0 .01.12.12m0 0v.02m.01 0v.02m.01 0v.02m0 0 .04.12m0 0v.02m0 0h0m0 .01v1.21m0 0h1.1m0 0v4.16m-11.88 0v-4.16m0 0h1.1m0 0v-1.21m0 0h0m0-.01v-.02m0 0 .04-.12m0 0v-.02m0 0v-.02m.01 0v-.02m.01 0 .12-.12m0 0h.02m0-.01.19-.11m0 0h.02m0 0 .26-.1m0 0 .32-.09m0 0h.01m0 0 .36-.07m0 0 .4-.05m0 0 .43-.03m0 0h.45M74.26 73.7h-9.68M74.13 73.7v-.96M64.72 73.7v-.96M64.58 77.14v-4.15M74.26 77.14v-4.15M71.62 72.05h-4.4M74.13 72.74c0-.38-1.12-.68-2.51-.68M67.22 72.05c-1.38 0-2.51.31-2.51.69M94.62 93.29H43.83V77.21h50.79z"/></g><g fill="none" stroke="#6a6a6a" stroke-linecap="round" stroke-linejoin="round" stroke-width=".25"><path d="M107.35 117.75H90.83m0 0v-15.56m0 0h16.52m0 0v15.56M99.21 107.45v5.02M100.99 108.19l-3.56 3.55M101.72 109.96H96.7M100.99 111.74l-3.56-3.55"/></g><path fill="none" stroke="#6a6a6a" stroke-linecap="round" stroke-linejoin="round" stroke-width=".25" d="M87.14 115.61h-12.8m0 0-.36-.15m0 0-.15-.35m0 0v-11.55m0 0 .15-.35m0 0 .36-.15m0 0h12.8m0 0 .35.15m0 0 .15.35m0 0v11.55m0 0-.15.35m0 0-.35.15M85.88 114.36H75.59M75.09 113.86v-7.79M75.59 105.57h10.29M86.39 106.07v7.79"/><path fill="#999" fill-rule="evenodd" d="M85.88 114.36h.07s-.03.07-.07.07-.07-.03-.07-.07.03-.07.07-.07.07.03.07.07h-.07Z"/><path fill="none" stroke="#6a6a6a" stroke-linecap="round" stroke-linejoin="round" stroke-width=".25" d="M75.09 113.86c0 .28.23.5.5.5M75.59 105.57c-.28 0-.5.22-.5.5M86.39 106.07c0-.28-.22-.5-.5-.5M85.88 114.36c.28 0 .5-.22.5-.5M80.96 108.78l-.07.16m0 0-.16.07m0 0-.16-.07m0 0-.07-.16m0 0v-4.97m0 0 .07-.16m0 0 .16-.07m0 0 .16.07m0 0 .07.16m0 0v4.97M81.24 105.09h-.27m0 0v-1.28m0 0-.07-.16m0 0-.16-.07m0 0-.16.07m0 0-.07.16m0 0v1.28m0 0h-.28m0 0v-1.63m0 0h1m0 0v1.63M81.23 106h-.27m0 0v-.88m0 0h.27m0 0v.88M80.24 106v-.88m0 0h.27m0 0v.88m0 0h-.27M20.05 117.75h87.33m0 0v-15.56m0 0H8.3"/><g fill="none" stroke="#6a6a6a" stroke-linecap="round" stroke-linejoin="round" stroke-width=".25"><path d="M39.89 116.11H25.33m0 0v-12.3m0 0h14.56m0 0v12.3M32.61 108.62v-3.52M32.61 105.1h-.72M32.61 108.62h-.72M26.73 108.62v-3.52M27.46 105.1h-.73M27.46 108.62h-.73M38.58 106.72c0-1.01-.82-1.82-1.82-1.82s-1.82.82-1.82 1.82.82 1.82 1.82 1.82 1.82-.81 1.82-1.82ZM38.56 112.19c0-1.46-1.18-2.64-2.64-2.64s-2.64 1.18-2.64 2.64 1.18 2.64 2.64 2.64 2.64-1.18 2.64-2.64Z"/><path d="M37.43 112.19c0-.83-.67-1.51-1.51-1.51s-1.51.67-1.51 1.51.67 1.51 1.51 1.51 1.51-.67 1.51-1.51ZM31.43 106.84c0-.97-.79-1.76-1.76-1.76s-1.76.79-1.76 1.76.79 1.76 1.76 1.76 1.76-.79 1.76-1.76ZM31.19 112.55c0-1.25-1.01-2.26-2.26-2.26s-2.26 1.01-2.26 2.26 1.01 2.26 2.26 2.26 2.26-1.01 2.26-2.26Z"/></g><g fill="none" stroke="#6a6a6a" stroke-linecap="round" stroke-linejoin="round" stroke-width=".25"><path d="M60.58 111.42c0-1.25-1.01-2.27-2.27-2.27s-2.27 1.01-2.27 2.27 1.01 2.27 2.27 2.27 2.27-1.01 2.27-2.27Z"/><path d="M60.24 111.42a1.92 1.92 0 1 0-3.841.001 1.92 1.92 0 0 0 3.841-.001ZM55.84 111.97a1.71 1.71 0 1 0-3.418-.002 1.71 1.71 0 0 0 3.418.002Z"/><path d="M55.08 111.97a.96.96 0 1 0-1.92 0 .96.96 0 0 0 1.92 0ZM61.02 112.89h-.64m0 0v.8m0 0h-8.32m0 0v-.8m0 0h-.64M60.05 106.24h-6.4m0 0v.32m0 0h.48m0 0v-.16m0 0h5.44m0 0v.16m0 0h.48m0 0v-.32M60.05 106.56l-.03.07m-.09.21-.03.07m-.09.21-.03.07m-.09.21-.03.07m-.09.21-.03.07m-.09.21-.03.07m-.09.21-.03.07m-.09.21-.03.07m-.09.21-.03.07M53.65 106.56l.03.07m.09.21.03.07m.09.21.03.07m.09.21.03.07m.09.21.03.07m.09.21.03.07m.09.21.03.07m.09.21.03.07m.09.21.03.07M60.05 106.56H60m-.08 0h-.08m-.08 0h-.08m-.08 0h-.05m0 0-.03.03m-.14.18-.05.06m-.14.17-.05.06m-.14.18-.05.06m-.14.18-.05.06m-.14.18-.05.06m-.14.18-.05.06m-.14.18-.05.06m-.14.18-.05.06m-.14.18-.05.06m-.14.18-.05.06m-.14.18-.03.03M53.65 106.56h.05m.08 0h.08m.08 0h.08m.08 0h.05m0 0 .03.03m.14.18.05.06m.14.17.05.06m.14.18.05.06m.14.18.05.06m.14.18.05.06m.14.18.05.06m.14.18.05.06m.14.18.05.06m.14.18.05.06m.14.18.05.06m.14.18.03.03M63.75 117.75H48.69m0 0v-15.56m0 0h15.06m0 0v15.56"/></g><path fill="none" stroke="#6a6a6a" stroke-linecap="round" stroke-linejoin="round" stroke-width=".25" d="M83.12 272.91H66.24v-34.06h16.88z"/><g fill="none" stroke="#6a6a6a" stroke-linecap="round" stroke-linejoin="round" stroke-width=".25"><path d="M54.19 294.74v2.41M53.75 297.59H30.47M30.03 297.15v-2.41M30.47 294.3h23.28M30.03 294.74v-19.11M30.03 275.63h1.54M35.71 275.63h1.32M54.19 276.29v17.35M53.54 294.3H37.03M36.37 293.64v-17.35M37.03 275.63h16.5M30.91 276.29v17.35M31.57 294.3h4.14M36.37 293.64v-17.35M35.71 275.63h-4.14M33.99 293.64v-17.35M54.19 297.15c0 .24-.2.44-.44.44M30.47 297.59c-.24 0-.44-.2-.44-.44M30.03 294.74c0-.24.2-.44.44-.44M53.75 294.3c.24 0 .44.2.44.44M54.19 293.64c0 .36-.3.66-.66.66M37.03 294.3a.66.66 0 0 1-.66-.66M36.37 276.29c0-.36.29-.66.66-.66M53.54 275.63c.36 0 .66.3.66.66M31.57 294.3a.66.66 0 0 1-.66-.66M36.37 293.64c0 .36-.29.66-.66.66M35.71 275.63c.36 0 .66.3.66.66M30.91 276.29c0-.36.29-.66.66-.66M33.99 293.64c0 .36-.29.66-.66.66M33.33 275.63c.36 0 .66.3.66.66M30.03 275.63v-21.97M30.03 275.63h1.54M30.03 253.66h1.54M35.71 275.63h1.32M35.71 253.66h1.32M54.19 254.32v20.65M53.54 275.63H37.03M36.37 274.97v-20.65M37.03 253.66h16.5M30.91 254.32v20.65M31.57 275.63h4.14M36.37 274.97v-20.65M35.71 253.66h-4.14M33.99 274.97v-20.65"/><path d="M54.19 274.97c0 .36-.3.66-.66.66M37.03 275.63c-.36 0-.66-.3-.66-.66M36.37 254.32c0-.36.29-.66.66-.66M53.54 253.66c.36 0 .66.3.66.66M31.57 275.63c-.36 0-.66-.3-.66-.66M36.37 274.97c0 .36-.29.66-.66.66M35.71 253.66c.36 0 .66.3.66.66M30.91 254.32c0-.36.29-.66.66-.66M33.99 274.97c0 .36-.29.66-.66.66M33.33 253.66c.36 0 .66.3.66.66M54.19 234.55v-2.41M53.75 231.7H30.47M30.03 232.14v2.41M30.47 234.99h23.28M30.03 234.55v19.11M30.03 253.66h1.54M35.71 253.66h1.32M54.19 253v-17.35M53.54 234.99H37.03M36.37 235.65V253M37.03 253.66h16.5M30.91 253v-17.35M31.57 234.99h4.14M36.37 235.65V253M35.71 253.66h-4.14M33.99 235.65V253M53.75 231.7c.24 0 .44.2.44.44M30.03 232.14c0-.24.2-.44.44-.44M30.47 234.99c-.24 0-.44-.2-.44-.44M54.19 234.55c0 .24-.2.44-.44.44M53.54 234.99c.36 0 .66.3.66.66M36.37 235.65c0-.36.29-.66.66-.66M37.03 253.66a.66.66 0 0 1-.66-.66M54.19 253c0 .36-.3.66-.66.66M30.91 235.65c0-.36.29-.66.66-.66M35.71 234.99c.36 0 .66.3.66.66M36.37 253c0 .36-.29.66-.66.66M31.57 253.66a.66.66 0 0 1-.66-.66M33.33 234.99c.36 0 .66.3.66.66M33.99 253c0 .36-.29.66-.66.66M62.98 276.29v17.35M62.32 294.3h-7.47M54.19 293.64v-17.35M54.85 275.63h7.47M62.98 293.64c0 .36-.29.66-.66.66M54.85 294.3c-.36 0-.66-.3-.66-.66M54.19 276.29c0-.36.29-.66.66-.66M62.32 275.63c.36 0 .66.3.66.66"/></g><path fill="none" stroke="#6a6a6a" stroke-linecap="round" stroke-linejoin="round" stroke-width=".25" d="M62.23 160.68v-2.22m0 0h-.63m0 0H49m0 0h-.63m0 0v2.22M48.37 155.94v2.51m0 0H49m0 0v-2.37m0 0h-.04m0 0-.22.14m0 0-.25-.06m0 0-.12-.23M48.96 154.21l-.22.14m0 0-.25-.06m0 0-.12-.23m0 0v1.88m0 0 .12.23m0 0 .25.06m0 0 .22-.14m0 0h12.69m0 0 .22.14m0 0 .25-.06m0 0 .12-.23m0 0v-1.88m0 0-.12.23m0 0-.25.06m0 0-.22-.14m0 0H48.96M62.23 155.95l-.12.23m0 0-.25.06m0 0-.22-.14m0 0h-.04m0 0v2.37m0 0h.63m0 0v-2.51"/><path fill="#fff" fill-rule="evenodd" d="m61.01 153.92-.74-.17h-9.95l-.73.17h11.42z"/><path fill="none" stroke="#6a6a6a" stroke-linecap="round" stroke-linejoin="round" stroke-width=".25" d="M49.59 153.92h11.42m0 0-.74-.17m0 0h-9.95m0 0-.74.17M48.96 153.92l-.22-.14m0 0-.25.06m0 0-.12.23m0 0 .12.23m0 0 .25.06m0 0 .22-.15m0 0h12.69m0 0 .22.15m0 0 .25-.06m0 0 .12-.23m0 0-.12-.23m0 0-.25-.06m0 0-.22.14m0 0H48.96M78.32 160.68v-2.22m0 0h-.63m0 0h-12.6m0 0h-.63m0 0v2.22M64.45 155.94v2.51m0 0h.63m0 0v-2.37m0 0h-.04m0 0-.21.14m0 0-.25-.06m0 0-.12-.23M65.04 154.21l-.22.14m0 0-.25-.06m0 0-.12-.23m0 0v1.88m0 0 .12.23m0 0 .25.06m0 0 .22-.14m0 0h12.69m0 0 .22.14m0 0 .25-.06m0 0 .12-.23m0 0v-1.88m0 0-.12.23m0 0-.25.06m0 0-.22-.14m0 0H65.04M78.32 155.95l-.12.23m0 0-.25.06m0 0-.22-.14m0 0h-.04m0 0v2.37m0 0h.63m0 0v-2.51"/><path fill="#fff" fill-rule="evenodd" d="m77.09 153.92-.73-.17h-9.95l-.74.17h11.42z"/><path fill="none" stroke="#6a6a6a" stroke-linecap="round" stroke-linejoin="round" stroke-width=".25" d="M65.67 153.92h11.42m0 0-.74-.17m0 0H66.4m0 0-.74.17M65.04 153.92l-.22-.14m0 0-.25.06m0 0-.12.23m0 0 .12.23m0 0 .25.06m0 0 .22-.15m0 0h12.69m0 0 .22.15m0 0 .25-.06m0 0 .12-.23m0 0-.12-.23m0 0-.25-.06m0 0-.22.14m0 0H65.04M62.23 185.64v2.22m0 0h-.63m0 0H49m0 0h-.63m0 0v-2.22M48.96 192.11l-.22-.14m0 0-.25.06m0 0-.12.23m0 0v-1.88m0 0 .12-.23m0 0 .25-.06m0 0 .22.14m0 0h12.69m0 0 .22-.14m0 0 .25.06m0 0 .12.23m0 0v1.88m0 0-.12-.23m0 0-.25-.06m0 0-.22.14m0 0H48.96M62.23 190.38l-.12-.23m0 0-.25-.06m0 0-.22.14m0 0h-.04m0 0v-2.37m0 0h.63m0 0v2.52"/><path fill="#fff" fill-rule="evenodd" d="M50.32 192.57h9.95l.74-.16H49.59l.73.16z"/><path fill="none" stroke="#6a6a6a" stroke-linecap="round" stroke-linejoin="round" stroke-width=".25" d="M49.59 192.41h11.42m0 0-.74.17m0 0h-9.95m0 0-.74-.17M48.96 192.41l-.22.14m0 0-.25-.06m0 0-.12-.23m0 0 .12-.23m0 0 .25-.06m0 0 .22.14m0 0h12.69m0 0 .22-.14m0 0 .25.06m0 0 .12.23m0 0-.12.23m0 0-.25.06m0 0-.22-.14m0 0H48.96M78.32 185.64v2.22m0 0h-.63m0 0h-12.6m0 0h-.63m0 0v-2.22M64.45 190.38v-2.52m0 0h.63m0 0v2.37m0 0h-.04m0 0-.21-.14m0 0-.25.06m0 0-.12.23M65.04 192.11l-.22-.14m0 0-.25.06m0 0-.12.23m0 0v-1.88m0 0 .12-.23m0 0 .25-.06m0 0 .22.14m0 0h12.69m0 0 .22-.14m0 0 .25.06m0 0 .12.23m0 0v1.88m0 0-.12-.23m0 0-.25-.06m0 0-.22.14m0 0H65.04M78.32 190.38l-.12-.23m0 0-.25-.06m0 0-.22.14m0 0h-.04m0 0v-2.37m0 0h.63m0 0v2.52"/><path fill="#fff" fill-rule="evenodd" d="M66.41 192.57h9.95l.73-.16H65.67l.74.16z"/><path fill="none" stroke="#6a6a6a" stroke-linecap="round" stroke-linejoin="round" stroke-width=".25" d="M65.67 192.41h11.42m0 0-.74.17m0 0H66.4m0 0-.74-.17M65.04 192.41l-.22.14m0 0-.25-.06m0 0-.12-.23m0 0 .12-.23m0 0 .25-.06m0 0 .22.14m0 0h12.69m0 0 .22-.14m0 0 .25.06m0 0 .12.23m0 0-.12.23m0 0-.25.06m0 0-.22-.14m0 0H65.04M80.53 160.68v-2.22m0 0h.63m0 0h12.6m0 0h.63m0 0v2.22M94.4 155.94v2.51m0 0h-.63m0 0v-2.37m0 0h.04m0 0 .22.14m0 0 .25-.06m0 0 .12-.23M93.81 154.21l.22.14m0 0 .25-.06m0 0 .12-.23m0 0v1.88m0 0-.12.23m0 0-.25.06m0 0-.22-.14m0 0H81.12m0 0-.21.14m0 0-.25-.06m0 0-.12-.23m0 0v-1.88m0 0 .12.23m0 0 .25.06m0 0 .21-.14m0 0h12.69M80.53 155.95l.12.23m0 0 .25.06m0 0 .22-.14m0 0h.04m0 0v2.37m0 0h-.63m0 0v-2.51"/><path fill="#fff" fill-rule="evenodd" d="m93.18 153.92-.74-.17h-9.95l-.74.17h11.43z"/><path fill="none" stroke="#6a6a6a" stroke-linecap="round" stroke-linejoin="round" stroke-width=".25" d="M93.18 153.92H81.76m0 0 .74-.17m0 0h9.95m0 0 .74.17M93.81 153.92l.22-.14m0 0 .25.06m0 0 .12.23m0 0-.12.23m0 0-.25.06m0 0-.22-.15m0 0H81.12m0 0-.21.15m0 0-.25-.06m0 0-.12-.23m0 0 .12-.23m0 0 .25-.06m0 0 .21.14m0 0h12.69M80.53 185.64v2.22m0 0h.63m0 0h12.6m0 0h.63m0 0v-2.22M94.4 190.38v-2.52m0 0h-.63m0 0v2.37m0 0h.04m0 0 .22-.14m0 0 .25.06m0 0 .12.23M93.81 192.11l.22-.14m0 0 .25.06m0 0 .12.23m0 0v-1.88m0 0-.12-.23m0 0-.25-.06m0 0-.22.14m0 0H81.12m0 0-.21-.14m0 0-.25.06m0 0-.12.23m0 0v1.88m0 0 .12-.23m0 0 .25-.06m0 0 .21.14m0 0h12.69M80.53 190.38l.12-.23m0 0 .25-.06m0 0 .22.14m0 0h.04m0 0v-2.37m0 0h-.63m0 0v2.52"/><path fill="#fff" fill-rule="evenodd" d="M82.49 192.57h9.95l.74-.16H81.76l.73.16z"/><path fill="none" stroke="#6a6a6a" stroke-linecap="round" stroke-linejoin="round" stroke-width=".25" d="M93.18 192.41H81.76m0 0 .74.17m0 0h9.95m0 0 .74-.17M93.81 192.41l.22.14m0 0 .25-.06m0 0 .12-.23m0 0-.12-.23m0 0-.25-.06m0 0-.22.14m0 0H81.12m0 0-.21-.14m0 0-.25.06m0 0-.12.23m0 0 .12.23m0 0 .25.06m0 0 .21-.14m0 0h12.69M100.44 185.64v-24.96m0 0H42.21m0 0v24.96m0 0h58.23M48.37 190.38v-2.52m0 0H49m0 0v2.37m0 0h-.04m0 0-.22-.14m0 0-.25.06m0 0-.12.23"/><g fill="#fff" stroke="#6a6a6a" stroke-linecap="round" stroke-linejoin="round" stroke-width=".25"><path d="M234.3 62.55h20.32v49.8H234.3zM252.99 68.36l-.06-.72m0 0-.18-.7m0 0-.3-.66m0 0-.41-.59m0 0-.5-.51m0 0-.58-.42m0 0-.64-.31m0 0-.68-.19m0 0-.71-.06m0 0h-8.94m0 0-.71.06m0 0-.68.19m0 0-.64.31m0 0-.58.42m0 0-.5.51m0 0-.41.59m0 0-.3.66m0 0-.18.7m0 0-.06.72m0 0v33.62m0 0 .13 1.51m0 0 .39 1.47m0 0 .63 1.38m0 0 .85 1.24m0 0 1.05 1.07m0 0 1.22.87m0 0 1.35.64m0 0 1.44.39m0 0 1.48.13m0 0 1.48-.13m0 0 1.44-.39m0 0 1.35-.64m0 0 1.22-.87m0 0 1.05-1.07m0 0 .85-1.24m0 0 .63-1.38m0 0 .39-1.47m0 0 .13-1.51m0 0V68.36"/><path d="M244.46 68.71c-.39 0-.72.32-.72.72s.32.72.72.72.72-.32.72-.72-.32-.72-.72-.72Z"/></g><g fill="#fff" stroke="#6a6a6a" stroke-linecap="round" stroke-linejoin="round" stroke-width=".25"><path d="M187.28 122.19h21.11v47.58h-21.11zM206.7 127.75l-.06-.69m0 0-.19-.67m0 0-.31-.63m0 0-.42-.57m0 0-.52-.49m0 0-.6-.4m0 0-.67-.29m0 0-.71-.18m0 0-.73-.06m0 0h-9.29m0 0-.73.06m0 0-.71.18m0 0-.67.29m0 0-.6.4m0 0-.52.49m0 0-.42.57m0 0-.31.63m0 0-.19.67m0 0-.06.69m0 0v32.12m0 0 .13 1.45m0 0 .4 1.4m0 0 .65 1.32m0 0 .89 1.19m0 0 1.09 1.03m0 0 1.27.83m0 0 1.4.61m0 0 1.49.38m0 0 1.54.13m0 0 1.54-.13m0 0 1.49-.38m0 0 1.4-.61m0 0 1.27-.83m0 0 1.09-1.03m0 0 .89-1.19m0 0 .65-1.32m0 0 .4-1.4m0 0 .13-1.45m0 0v-32.12"/><path d="M197.84 128.08c-.41 0-.74.31-.74.68s.33.68.74.68.74-.31.74-.68-.33-.68-.74-.68Z"/></g><g fill="#fff" stroke="#6a6a6a" stroke-linecap="round" stroke-linejoin="round" stroke-width=".25"><path d="m228.9 102.99-.04 1.24-.89 8.42h-7.74l-.89-8.42-.04-1.24.15-1.23.34-1.2.52-1.12.7-.9.91-.68 1.05-.43 1.13-.15 1.13.15 1.05.43.91.68.7.9.52 1.12.34 1.2.15 1.23zM227.09 108.49h-2.99M224.1 108.49h-2.99"/><path d="M224.1 97.48c.8 0 1.58.23 2.23.64M226.33 98.12c1.61 1.25 2.48 3.08 2.36 4.96M228.69 103.09c.05 1.9-.5 3.77-1.59 5.4M221.11 108.49c-1.09-1.64-1.65-3.51-1.59-5.4"/><path d="M219.52 103.09c-.12-1.88.75-3.71 2.36-4.96M221.88 98.12c.65-.41 1.42-.64 2.23-.64"/></g><g fill="#fff" stroke="#6a6a6a" stroke-linecap="round" stroke-linejoin="round" stroke-width=".25"><path d="M247.87 150.44v7.74l-8.42.89-1.24.04-1.23-.15-1.2-.34-1.12-.52-.9-.71-.68-.9-.43-1.05-.15-1.13.15-1.13.43-1.05.68-.91.9-.7 1.12-.52 1.2-.34 1.23-.15 1.24.04 8.42.89zM243.72 157.3v-2.99M243.72 154.31v-2.99"/><path d="M232.71 154.31c0 .8.23 1.58.64 2.23M233.35 156.53c1.25 1.61 3.08 2.48 4.96 2.36M238.31 158.89c1.9.05 3.77-.5 5.4-1.59M243.72 151.32c-1.64-1.09-3.51-1.65-5.4-1.59M238.31 149.72c-1.88-.12-3.71.75-4.96 2.36M233.35 152.08c-.41.65-.64 1.42-.64 2.23"/></g><g fill="#fff" stroke="#6a6a6a" stroke-linecap="round" stroke-linejoin="round" stroke-width=".25"><path d="M209.11 63v10.16l-.12.29-.29.12h-16.61l-.29-.12-.12-.29V63l.12-.29.29-.12h16.61l.29.12.12.29zM192.91 65.61h7.15m.66 0h7.15M208.29 66.02v6.31M207.87 72.74h-14.96M192.5 72.33v-6.31"/><path d="M208.29 66.02c0-.23-.18-.41-.41-.41M207.87 72.74c.23 0 .41-.18.41-.41M192.5 72.33c0 .23.18.41.41.41M192.91 65.61c-.23 0-.41.18-.41.41M200.06 67.34c-.13.1-.22.26-.22.44s.09.34.22.44v-.88Zm.66.88c.13-.1.22-.26.22-.44s-.09-.34-.22-.44v.88ZM200.72 62.97h-.66m0 0v5.63m0 0 .19.22m0 0h.29m0 0 .19-.22m0 0v-5.63M198.02 63.96v-1.18m0 0h.07m0 0v-.1m0 0h.21m0 0v-.1m0 0h-1.37m0 0v.1m0 0h.21m0 0v.1m0 0h.07m0 0v1.18m0 0h.23m0 0v.3m0 0h-.78m0 0v.36m0 0h1.92m0 0v-.36m0 0h-.78m0 0v-.3m0 0h.23M202.77 63.96v-1.18m0 0h-.07m0 0v-.1m0 0h-.21m0 0v-.1m0 0h1.37m0 0v.1m0 0h-.21m0 0v.1m0 0h-.07m0 0v1.18m0 0h-.23m0 0v.3m0 0h.78m0 0v.36m0 0h-1.92m0 0v-.36m0 0h.78m0 0v-.3m0 0h-.23M197.43 64.26l.05.05M197.79 64.26l-.06.05M197.43 63.96h.36M203.36 64.26l-.05.05M203 64.26l.05.05M203.36 63.96H203M197.61 64.26c-.1 0-.18.08-.18.18s.08.18.18.18.18-.08.18-.18-.08-.18-.18-.18ZM203.18 64.26c-.1 0-.18.08-.18.18s.08.18.18.18.18-.08.18-.18-.08-.18-.18-.18Z"/></g><g fill="#fff" stroke="#6a6a6a" stroke-linecap="round" stroke-linejoin="round" stroke-width=".25"><path d="M225.94 122.69v10.16l-.13.29-.29.12h-16.61l-.29-.12-.12-.29v-10.16l.12-.29.29-.12h16.61l.29.12.13.29zM209.74 125.3h7.15m.66 0h7.15M225.11 125.71v6.32M224.7 132.44h-14.96M209.33 132.03v-6.32"/><path d="M225.11 125.71c0-.23-.18-.41-.41-.41M224.7 132.44c.23 0 .41-.18.41-.41M209.33 132.03c0 .23.18.41.41.41M209.74 125.3c-.23 0-.41.18-.41.41M216.89 127.03c-.13.1-.22.26-.22.44s.09.34.22.44v-.88Zm.66.88c.13-.1.22-.26.22-.44s-.09-.34-.22-.44v.88ZM217.55 122.67h-.66m0 0v5.63m0 0 .19.22m0 0h.29m0 0 .19-.22m0 0v-5.63M214.85 123.65v-1.18m0 0h.07m0 0v-.1m0 0h.21m0 0v-.1m0 0h-1.37m0 0v.1m0 0h.21m0 0v.1m0 0h.07m0 0v1.18m0 0h.23m0 0v.3m0 0h-.78m0 0v.36m0 0h1.92m0 0v-.36m0 0h-.78m0 0v-.3m0 0h.23M219.6 123.65v-1.18m0 0h-.07m0 0v-.1m0 0h-.21m0 0v-.1m0 0h1.37m0 0v.1m0 0h-.21m0 0v.1m0 0h-.07m0 0v1.18m0 0h-.23m0 0v.3m0 0h.78m0 0v.36m0 0h-1.92m0 0v-.36m0 0h.78m0 0v-.3m0 0h-.23M214.26 123.96l.05.05M214.61 123.96l-.05.05M214.26 123.65h.35M220.19 123.96l-.06.05M219.83 123.96l.05.05M220.19 123.65h-.36M214.44 123.96c-.1 0-.18.08-.18.18s.08.18.18.18.18-.08.18-.18-.08-.18-.18-.18ZM220.01 123.96c-.1 0-.18.08-.18.18s.08.18.18.18.18-.08.18-.18-.08-.18-.18-.18Z"/></g><g fill="#fff" stroke="#6a6a6a" stroke-linecap="round" stroke-linejoin="round" stroke-width=".25"><path d="M243.38 122.69v10.16l-.12.29-.3.12h-16.61l-.29-.12-.12-.29v-10.16l.12-.29.29-.12h16.61l.3.12.12.29zM227.18 125.3h7.15m.66 0h7.15M242.56 125.71v6.32M242.14 132.44h-14.96M226.77 132.03v-6.32"/><path d="M242.56 125.71c0-.23-.18-.41-.41-.41M242.14 132.44c.23 0 .41-.18.41-.41M226.77 132.03c0 .23.18.41.41.41M227.18 125.3c-.23 0-.41.18-.41.41M234.33 127.03c-.13.1-.22.26-.22.44s.09.34.22.44v-.88Zm.66.88c.13-.1.22-.26.22-.44s-.09-.34-.22-.44v.88ZM234.99 122.67h-.66m0 0v5.63m0 0 .19.22m0 0h.29m0 0 .19-.22m0 0v-5.63M232.29 123.65v-1.18m0 0h.07m0 0v-.1m0 0h.21m0 0v-.1m0 0h-1.37m0 0v.1m0 0h.21m0 0v.1m0 0h.07m0 0v1.18m0 0h.23m0 0v.3m0 0h-.78m0 0v.36m0 0h1.92m0 0v-.36m0 0h-.78m0 0v-.3m0 0h.23M237.04 123.65v-1.18m0 0h-.07m0 0v-.1m0 0h-.21m0 0v-.1m0 0h1.37m0 0v.1m0 0h-.21m0 0v.1m0 0h-.07m0 0v1.18m0 0h-.23m0 0v.3m0 0h.78m0 0v.36m0 0h-1.92m0 0v-.36m0 0h.78m0 0v-.3m0 0h-.23M231.7 123.96l.05.05M232.05 123.96l-.05.05M231.7 123.65h.35M237.63 123.96l-.05.05M237.27 123.96l.05.05M237.63 123.65h-.36M231.88 123.96c-.1 0-.18.08-.18.18s.08.18.18.18.18-.08.18-.18-.08-.18-.18-.18ZM237.45 123.96c-.1 0-.18.08-.18.18s.08.18.18.18.18-.08.18-.18-.08-.18-.18-.18Z"/></g><g fill="#fff" stroke="#6a6a6a" stroke-linecap="round" stroke-linejoin="round" stroke-width=".25"><path d="M211.65 62.53h13.8v13.79h-13.8z"/><path d="M222.92 69.42c0 2.41-1.96 4.37-4.37 4.37s-4.37-1.96-4.37-4.37 1.95-4.37 4.37-4.37 4.37 1.96 4.37 4.37ZM222.21 69.1l-.75.27m0 0h-.8m0 0-.75-.27m0 0-.9.21m0 0h-.92m0 0-.9-.21m0 0-.75.27m0 0h-.8m0 0-.75-.27m0 0 1.36 1.82m0 0h4.6m0 0 1.36-1.82M220.85 71.08h-4.6m0 0v-.16m0 0h4.6m0 0v.16M220.85 71.4h-4.6m0 0v-.16m0 0h4.6m0 0v.16M218.04 68.18l.54-.05m0 0v.14m.01 0-.29.03m0 0 .84.69m0 0-.08.09m0 0-.39-.32m0 0-.04.05m0 0 .45.37m0 0-.07.09m0 0-.45-.37m0 0-.05.06m0 0 .37.3m0 0-.07.08m0 0-.37-.3m0 0-.05.06m0 0 .25.21m0 0-.07.08m0 0-.87-.71"/></g><path fill="none" stroke="#6a6a6a" stroke-dasharray="0 0 3 3" stroke-linecap="round" stroke-linejoin="round" stroke-width=".25" d="M143.22 96.5v74.71"/><g fill="none" stroke="#6a6a6a" stroke-linecap="round" stroke-linejoin="round" stroke-width=".25"><path d="M254.59 172.63h-15.33m0 0v43.12m0 0h15.33m0 0v-43.12M246.81 215.75h-.49m0 0v-43.12m0 0h.49m0 0v43.12M240.55 177.41h12m0 0v.49m0 0h-12m0 0v-.49M240.55 178.69h12m0 0v.49m0 0h-12m0 0v-.49M240.55 179.98h12m0 0v.48m0 0h-12m0 0v-.48M240.55 181.26h12m0 0v.49m0 0h-12m0 0v-.49M240.63 183.99l11.91-1.44m0 0 .06.48m0 0-11.91 1.44m0 0-.06-.48"/></g></g><g id="Walls_Inside" fill="#2d2d2c"><path d="M10.3 7.01V0h248.67v7.01zM235.53 172.63v-2.83h22.68v2.83zM180.22 172.64v-2.83h34.47v2.83zM138.53 172.63v-2.83h18.71v2.83zM186.1 122.19v-2.83h57.95v2.83zM122.97 96.5v-2.83h20.25v2.83zM184.44 62.55v-2.83h71.6v2.83zM243.38 115.28v-2.83h14.83v2.83zM243.39 131.61v-2.83h14.83v2.83zM211.87 218.59v-2.83h45v2.83z"/><path d="M138.53 171.21h2.83v73.78h-2.83zM184.45 98.75h2.83v72.46h-2.83zM184.45 60.63h2.83V77.9h-2.83zM140.38 88.99h2.83v7.51h-2.83zM140.38 5.46h2.83V66.1h-2.83zM243.38 112.44h2.83v17.27h-2.83zM107.38 117.92v-2.83h12.63v2.83z"/><path d="M107.38 98.75h2.83v17.27h-2.83zM117.17 98.75H120v17.27h-2.83zM261.38 308.25h2.83v58.04h-2.83zM254.59 61.71h7.74v239.85h-7.74zM185.86 114.43v-1.98h65.69v1.98zM247.71 130.57h1.98v41.26h-1.98z"/></g><g id="Walls_Outside"><path fill="none" stroke="#000" stroke-linecap="round" stroke-linejoin="round" stroke-width=".22" d="m16.56 67.64 10.85-1.92M11.27 68.57l3.97-.7M15.24 67.87l1.32-.23M7.42 16.06l10.84-1.91M2.13 17l3.96-.7M6.09 16.3l1.33-.24"/><path fill="none" stroke="#000" stroke-linecap="round" stroke-linejoin="round" stroke-width=".25" d="m2.13 17 9.14 51.57M18.26 14.15l9.15 51.57M7.42 16.06l.42 2.39M7.84 18.45l-1.32.23M6.52 18.68l-.43-2.38M10.3 40.14l-.21-1.19M10.09 38.95l1.32-.24M11.41 38.71l.21 1.19M7.18 18.56l3.57 20.27M7.84 18.45l3.57 20.26M10.09 38.95 6.52 18.68M11.62 39.9l.11.6M11.73 40.5l-.67.12M11.06 40.62l.11.59M11.17 41.21l-.66.12M10.51 41.33l-.21-1.19M15.24 67.87l-.44-2.48M14.8 65.39l.66-.12M15.46 65.27l.11.62M15.57 65.89l.66-.12M16.23 65.77l.33 1.87M14.8 65.39 9.86 37.62M12.89 43.26l3.68 20.53M12.39 40.38l.31 1.79M12.7 42.17l-1.32.24M11.38 42.41l-.32-1.79M11.06 40.62l1.33-.24M15.57 65.89l-.33-1.86M15.24 64.03l1.33-.24M16.57 63.79l.32 1.87M16.89 65.66l-1.32.23M15.24 64.03l-3.86-21.62M12.7 42.17l3.87 21.62M12.03 42.29l3.88 21.62"/><path fill="none" stroke="#000" stroke-linecap="round" stroke-linejoin="round" stroke-width=".22" d="m6.09 16.3 1.33-.24M6.09 16.3l1.33-.24M2.13 17l3.96-.7M7.42 16.06l10.84-1.91M15.24 67.87l1.32-.23M15.24 67.87l1.32-.23M11.27 68.57l3.97-.7M16.56 67.64l10.85-1.92M2.13 17l16.13-2.85"/><path fill="#2d2d2c" fill-rule="evenodd" d="m27.74 67.58.22 1.28-16.14 2.84-.55-3.13 16.14-2.85.22 1.28.11.58z"/><path fill="#2d2d2c" d="m.001 4.945 16.141-2.846 2.126 12.054-16.141 2.846z"/><path fill="none" stroke="#000" stroke-linecap="round" stroke-linejoin="round" stroke-width=".22" d="m16.56 161.14 10.85-1.92M11.27 162.07l3.97-.7M15.24 161.37l1.32-.23M7.42 109.56l10.84-1.91M2.13 110.5l3.96-.7M6.09 109.8l1.33-.24"/><path fill="none" stroke="#000" stroke-linecap="round" stroke-linejoin="round" stroke-width=".25" d="m2.13 110.5 9.14 51.57M18.26 107.65l9.15 51.57M7.42 109.56l.42 2.39M7.84 111.95l-1.32.23M6.52 112.18l-.43-2.38M10.3 133.64l-.21-1.19M10.09 132.45l1.32-.24M11.41 132.21l.21 1.19M7.18 112.06l3.57 20.27M7.84 111.95l3.57 20.26M10.09 132.45l-3.57-20.27M11.62 133.4l.11.6M11.73 134l-.67.12M11.06 134.12l.11.59M11.17 134.71l-.66.12M10.51 134.83l-.21-1.19M15.24 161.37l-.44-2.48M14.8 158.89l.66-.12M15.46 158.77l.11.62M15.57 159.39l.66-.12M16.23 159.27l.33 1.87M14.8 158.89l-4.94-27.77M12.89 136.76l3.68 20.53M12.39 133.88l.31 1.79M12.7 135.67l-1.32.24M11.38 135.91l-.32-1.79M11.06 134.12l1.33-.24M15.57 159.39l-.33-1.86M15.24 157.53l1.33-.24M16.57 157.29l.32 1.87M16.89 159.16l-1.32.23M15.24 157.53l-3.86-21.62M12.7 135.67l3.87 21.62M12.03 135.79l3.88 21.62"/><path fill="none" stroke="#000" stroke-linecap="round" stroke-linejoin="round" stroke-width=".22" d="m6.09 109.8 1.33-.24M6.09 109.8l1.33-.24M2.13 110.5l3.96-.7M7.42 109.56l10.84-1.91M15.24 161.37l1.32-.23M15.24 161.37l1.32-.23M11.27 162.07l3.97-.7M16.56 161.14l10.85-1.92M2.13 110.5l16.13-2.85"/><path fill="#2d2d2c" fill-rule="evenodd" d="m27.74 161.08.22 1.28-16.14 2.84-.55-3.13 16.14-2.85.22 1.28.11.58z"/><path fill="#2d2d2c" d="m-.003 98.444 16.141-2.846 2.126 12.054-16.141 2.846z"/><path fill="none" stroke="#000" stroke-linecap="round" stroke-linejoin="round" stroke-width=".22" d="m16.92 260.39 10.85-1.92M11.63 261.32l3.97-.7M15.6 260.62l1.32-.23M7.78 208.81l10.85-1.91M2.49 209.75l3.97-.7M6.46 209.05l1.32-.24"/><path fill="none" stroke="#000" stroke-linecap="round" stroke-linejoin="round" stroke-width=".25" d="m2.49 209.75 9.14 51.57M18.63 206.9l9.14 51.57M7.78 208.81l.42 2.39M8.2 211.2l-1.32.23M6.88 211.43l-.42-2.38M10.66 232.89l-.21-1.19M10.45 231.7l1.32-.24M11.77 231.46l.21 1.19M7.54 211.31l3.57 20.27M8.2 211.2l3.57 20.26M10.45 231.7l-3.57-20.27M11.98 232.65l.11.6M12.09 233.25l-.66.12M11.43 233.37l.1.59M11.53 233.96l-.66.12M10.87 234.08l-.21-1.19M15.6 260.62l-.44-2.48M15.16 258.14l.67-.12M15.83 258.02l.1.62M15.93 258.64l.67-.12M16.6 258.52l.32 1.87M15.16 258.14l-4.94-27.77M13.26 236.01l3.67 20.53M12.75 233.13l.32 1.79M13.07 234.92l-1.33.24M11.74 235.16l-.31-1.79M11.43 233.37l1.32-.24M15.93 258.64l-.32-1.86M15.61 256.78l1.32-.24M16.93 256.54l.33 1.87M17.26 258.41l-1.32.23M15.61 256.78l-3.87-21.62M13.07 234.92l3.86 21.62M12.39 235.04l3.88 21.62"/><path fill="none" stroke="#000" stroke-linecap="round" stroke-linejoin="round" stroke-width=".22" d="m6.46 209.05 1.32-.24M6.46 209.05l1.32-.24M2.49 209.75l3.97-.7M7.78 208.81l10.85-1.91M15.6 260.62l1.32-.23M15.6 260.62l1.32-.23M11.63 261.32l3.97-.7M16.92 260.39l10.85-1.92M2.49 209.75l16.14-2.85"/><path fill="#2d2d2c" fill-rule="evenodd" d="m29.09 265.95.9 5.12-16.14 2.84-2.22-12.59 16.14-2.85.9 5.12.42 2.36z"/><path fill="#2d2d2c" d="m-.002 195.637 16.141-2.846 2.488 14.112-16.14 2.846z"/><g fill="none" stroke="#000" stroke-linecap="round" stroke-linejoin="round"><path stroke-width=".22" d="M113.72 305.28v-7.57M113.72 309.2v-4.03M113.72 305.17v-1.34M132.49 303.94v-6.23M132.49 309.2v-4.03M132.49 305.17v-1.34"/><path stroke-width=".25" d="M132.49 309.2h-18.77M132.49 297.71h-18.77M132.49 303.83h-2.72M129.77 303.83v1.34M129.77 305.17h2.72M116.44 303.83h-2.72M113.72 303.83v1.34M113.72 305.17h2.72M115.08 305.17h1.35M116.43 305.17v-1.34M129.77 304.5h-13.34M129.77 303.83h-13.34M116.43 305.17h13.34M113.72 305.17h1.36M113.72 305.17h0"/><path stroke-width=".22" d="M132.49 305.17v-1.34M132.49 305.17v-1.34M132.49 309.2v-4.03M132.49 303.94v-6.23M113.72 305.17v-1.34M113.72 305.17v-1.34M113.72 309.2v-4.03M113.72 305.28v-7.57M132.49 309.2v-11.49"/></g><g fill="none" stroke="#000" stroke-linecap="round" stroke-linejoin="round"><path stroke-width=".22" d="M49.52 305.28v-7.56M49.52 309.2v-4.03M49.52 305.17v-1.34M71.4 303.94v-6.22M71.4 309.2v-4.03M71.4 305.17v-1.34"/><path stroke-width=".25" d="M71.4 309.2H49.52M71.4 297.72H49.52M71.4 303.83h-3.2M68.2 303.83v1.34M68.2 305.17h3.2M52.72 303.83h-3.2M49.52 303.83v1.34M49.52 305.17h3.2M51.12 305.17h1.6M52.72 305.17v-1.34M68.2 304.5H52.72M68.2 303.83H52.72M52.72 305.17H68.2M49.52 305.17h1.6M49.52 305.17h0"/><path stroke-width=".22" d="M71.4 305.17v-1.34M71.4 305.17v-1.34M71.4 309.2v-4.03M71.4 303.94v-6.22M49.52 305.17v-1.34M49.52 305.17v-1.34M49.52 309.2v-4.03M49.52 305.28v-7.56M71.4 309.2v-11.49"/></g><path fill="none" stroke="#000" stroke-linecap="round" stroke-linejoin="round" stroke-width=".25" d="M85.09 298.57c.85 2.31 1.08 3.5 1.2 5.97"/><path fill="#2d2d2c" fill-rule="evenodd" d="m85.07 298.2.28.66-13.74 6.07h-.21v-.72l13.67-6.01z"/><path fill="none" stroke="#000" stroke-linecap="round" stroke-linejoin="round" stroke-width=".25" d="M88.51 293.22c-1.56 4.26-1.99 6.45-2.22 10.99"/><path fill="#2d2d2c" fill-rule="evenodd" d="m88.54 292.53-.51 1.22 25.3 11.18h.38l.01-1.33-25.18-11.07z"/><g fill="none" stroke="#000" stroke-linecap="round" stroke-linejoin="round"><path stroke-width=".22" d="M9.7 367.63v-1.34M78.67 367.63v-1.34"/><path stroke-width=".25" d="M78.67 366.29h-3.16M75.51 366.29v1.34M75.51 367.63h3.16M12.87 366.29H9.7M9.7 366.29v1.34M9.7 367.63h3.17M11.29 367.63h1.58M12.87 367.63v-1.34M75.51 366.96H12.87M75.51 366.29H12.87M12.87 367.63h62.64M9.7 367.63h1.59M9.7 367.63h0"/><path stroke-width=".22" d="M78.67 367.63v-1.34M78.67 367.63v-1.34M9.7 367.63v-1.34M9.7 367.63v-1.34"/></g><g fill="none" stroke="#000" stroke-linecap="round" stroke-linejoin="round"><path stroke-width=".22" d="M103.03 367.63v-1.34M146.92 367.63v-1.34"/><path stroke-width=".25" d="M146.92 366.29h-3.16M143.76 366.29v1.34M143.76 367.63h3.16M106.2 366.29h-3.17M103.03 366.29v1.34M103.03 367.63h3.17M104.62 367.63h1.58M106.2 367.63v-1.34M143.76 366.96H106.2M143.76 366.29H106.2M106.2 367.63h37.55M103.03 367.63h1.59M103.03 367.63h0"/><path stroke-width=".22" d="M146.92 367.63v-1.34M146.92 367.63v-1.34M103.03 367.63v-1.34M103.03 367.63v-1.34"/></g><g fill="none" stroke="#000" stroke-linecap="round" stroke-linejoin="round"><path stroke-width=".22" d="M171.28 367.63v-1.34M215.17 367.63v-1.34"/><path stroke-width=".25" d="M215.17 366.29H212M212 366.29v1.34M212 367.63h3.17M174.45 366.29h-3.17M171.28 366.29v1.34M171.28 367.63h3.17M172.87 367.63h1.58M174.45 367.63v-1.34M212 366.96h-37.55M212 366.29h-37.55M174.45 367.63H212M171.28 367.63h1.59M171.28 367.63h0"/><path stroke-width=".22" d="M215.17 367.63v-1.34M215.17 367.63v-1.34M171.28 367.63v-1.34M171.28 367.63v-1.34"/></g><g fill="none" stroke="#000" stroke-linecap="round" stroke-linejoin="round" stroke-width=".25"><path d="M103.03 366.96H78.68M103.03 366.29H78.68M78.67 367.63h24.36"/></g><g fill="none" stroke="#000" stroke-linecap="round" stroke-linejoin="round" stroke-width=".25"><path d="M171.28 366.96h-24.36M171.28 366.29h-24.36M146.92 367.63h24.36"/></g><g fill="none" stroke="#000" stroke-linecap="round" stroke-linejoin="round"><path stroke-width=".22" d="M239.53 367.63v-1.34M264.22 367.63v-1.34"/><path stroke-width=".25" d="M264.22 366.29h-3.36M260.86 366.29v1.34M260.86 367.63h3.36M242.89 366.29h-3.36M239.53 366.29v1.34M239.53 367.63h3.36M241.21 367.63h1.68M242.89 367.63v-1.34M260.86 366.96h-17.97M260.86 366.29h-17.97M242.89 367.63h17.97M239.53 367.63h1.68M239.53 367.63h0"/><path stroke-width=".22" d="M264.22 367.63v-1.34M264.22 367.63v-1.34M239.53 367.63v-1.34M239.53 367.63v-1.34"/></g><g fill="none" stroke="#000" stroke-linecap="round" stroke-linejoin="round" stroke-width=".25"><path d="M239.53 366.96h-24.36M239.53 366.29h-24.36M215.17 367.63h24.36"/></g><g fill="none" stroke="#000" stroke-linecap="round" stroke-linejoin="round"><path stroke-width=".22" d="m4.87 331.92 1.33-.19M9.7 366.29l1.33-.19"/><path stroke-width=".25" d="m11.03 366.1-.21-1.51M10.82 364.59l-1.33.19M9.49 364.78l.21 1.51M6.49 333.78l-.29-2.05M6.2 331.73l-1.33.19M4.87 331.92l.29 2.04M5.01 332.94l.15 1.02M5.16 333.96l1.33-.18M10.15 364.69l-4.33-30.82M10.82 364.59l-4.33-30.81M5.16 333.96l4.33 30.82M4.87 331.92l.14 1.02M4.87 331.92h0"/><path stroke-width=".22" d="m9.7 366.29 1.33-.19M9.7 366.29l1.33-.19M4.87 331.92l1.33-.19M4.87 331.92l1.33-.19"/></g><g fill="none" stroke="#000" stroke-linecap="round" stroke-linejoin="round"><path stroke-width=".22" d="M222.33 305.28v-7.57M222.33 309.2v-4.03M222.33 305.17v-1.34M248.19 303.94v-6.23M248.19 309.2v-4.03M248.19 305.17v-1.34"/><path stroke-width=".25" d="M248.19 309.2h-25.86M248.19 297.71h-25.86M248.19 303.83h-2.72M245.47 303.83v1.34M245.47 305.17h2.72M225.05 303.83h-2.72M222.33 303.83v1.34M222.33 305.17h2.72M223.69 305.17h1.36M225.05 305.17v-1.34M245.47 304.5h-20.42M245.47 303.83h-20.42M225.05 305.17h20.42M222.33 305.17h1.36M222.33 305.17h0"/><path stroke-width=".22" d="M248.19 305.17v-1.34M248.19 305.17v-1.34M248.19 309.2v-4.03M248.19 303.94v-6.23M222.33 305.17v-1.34M222.33 305.17v-1.34M222.33 309.2v-4.03M222.33 305.28v-7.57M248.19 309.2v-11.49"/></g><g fill="none" stroke="#000" stroke-linecap="round" stroke-linejoin="round"><path stroke-width=".22" d="M155.02 305.28v-7.56M155.02 309.2v-4.03M155.02 305.17v-1.34M180.01 303.94v-6.22M180.01 309.2v-4.03M180.01 305.17v-1.34"/><path stroke-width=".25" d="M180.01 309.2h-24.99M180.01 297.72h-24.99M180.01 303.83h-3.19M176.82 303.83v1.34M176.82 305.17h3.19M158.22 303.83h-3.2M155.02 303.83v1.34M155.02 305.17h3.2M156.62 305.17h1.6M158.22 305.17v-1.34M176.82 304.5h-18.6M176.82 303.83h-18.6M158.22 305.17h18.6M155.02 305.17h1.6M155.02 305.17h0"/><path stroke-width=".22" d="M180.01 305.17v-1.34M180.01 305.17v-1.34M180.01 309.2v-4.03M180.01 303.94v-6.22M155.02 305.17v-1.34M155.02 305.17v-1.34M155.02 309.2v-4.03M155.02 305.28v-7.56M180.01 309.2v-11.49"/></g><path fill="none" stroke="#000" stroke-linecap="round" stroke-linejoin="round" stroke-width=".25" d="M193.7 298.57c.85 2.31 1.08 3.5 1.2 5.97"/><path fill="#2d2d2c" fill-rule="evenodd" d="m193.68 298.2.28.66-13.74 6.07h-.21v-.72l13.67-6.01z"/><path fill="none" stroke="#000" stroke-linecap="round" stroke-linejoin="round" stroke-width=".25" d="M197.12 293.22c-1.56 4.26-1.99 6.45-2.22 10.99"/><path fill="#2d2d2c" fill-rule="evenodd" d="m197.16 292.53-.52 1.22 25.3 11.18h.39v-1.33l-25.17-11.07zM11.27 195.64h16.69l.02-33.28-16.71-.29v33.57zM11.27 102.14h16.69l.02-33.28-16.71-.29v33.57zM13.22 300.83h16.75l.02-29.76-16.77-3.61v33.37z"/><path fill="#2d2d2c" fill-rule="evenodd" d="M49.52 309.2v-11.47l-33.37-.01v11.48h33.37zM155.02 309.2v-11.47l-22.53-.01v11.48h22.53zM264.22 309.2v-11.47l-16.03-.01v11.48h16.03z"/><path fill="#2d2d2c" d="M0 178.26h16.39v17.37H0zM0 85.1h16.39v13.35H0zM0 0h16.39v4.94H0z"/><path fill="#2d2d2c" fill-rule="evenodd" d="m0 303.68 4.73 28.28 20.99-3.61v-38.89H0v14.22z"/><path fill="#2d2d2c" d="M138.53 239.58h6.57v62.43h-6.57zM254.59 195.58h6.57v106.43h-6.57zM21.07 102.13v-8.47h106.07v8.47zM253.87 0h8.47v24.44h-8.47zM254.59 55.32h7.74v9.65h-7.74z"/></g><g id="Doors"><path fill="none" stroke="#000" stroke-linecap="round" stroke-linejoin="round" stroke-width=".29" d="M177.51 79.59c3.24-1.19 4.9-1.51 8.35-1.69"/><path fill="#2d2d2c" fill-rule="evenodd" d="m176.99 79.62.92-.4 8.5 19.24v.29h-1.01l-8.41-19.13z"/><path fill="none" stroke="#000" stroke-linecap="round" stroke-linejoin="round" stroke-width=".29" d="M216.37 180.11c-1.19-3.24-1.51-4.9-1.69-8.35"/><path fill="#2d2d2c" fill-rule="evenodd" d="m216.4 180.63-.39-.92 19.23-8.5h.3v1.01l-19.14 8.41z"/><path fill="none" stroke="#000" stroke-linecap="round" stroke-linejoin="round" stroke-width=".29" d="M178.36 181.02c1.31-3.57 1.67-5.4 1.86-9.2"/><path fill="#2d2d2c" fill-rule="evenodd" d="m178.33 181.6.43-1.02-21.19-9.37h-.33v1.11l21.09 9.28z"/><path fill="none" stroke="#000" stroke-linecap="round" stroke-linejoin="round" stroke-width=".29" d="M133.19 67.95c3.55-1.3 5.38-1.66 9.17-1.85"/><path fill="#2d2d2c" fill-rule="evenodd" d="m132.62 67.98 1.01-.43 9.33 21.11v.33h-1.1l-9.24-21.01z"/><path fill="none" stroke="#000" stroke-linecap="round" stroke-linejoin="round" stroke-width=".29" d="M270.69 26.94c-4.8-1.76-7.26-2.24-12.37-2.5"/><path fill="#2d2d2c" fill-rule="evenodd" d="m271.47 26.98-1.37-.58-12.58 28.48v.44h1.49l12.46-28.34z"/></g><g id="Sizes"><path d="M137.13 343.19c-.29-.15-.52-.35-.68-.62a1.79 1.79 0 0 1-.24-.93v-.11c0-.32.08-.62.24-.9.16-.28.37-.49.64-.64-.23-.12-.41-.3-.54-.53-.14-.23-.2-.48-.2-.74v-.15c0-.33.07-.63.22-.88s.36-.45.63-.59c.27-.14.59-.21.95-.21s.68.07.95.21c.27.14.48.34.63.59.15.25.22.55.22.88v.15c0 .26-.07.51-.21.74a1.4 1.4 0 0 1-.55.53c.27.15.49.36.65.64.16.28.24.58.24.9v.11c0 .35-.08.67-.24.93-.16.27-.39.48-.68.62s-.63.22-1.02.22-.73-.07-1.02-.22Zm1.57-.76c.16-.08.28-.2.37-.35.09-.15.13-.32.13-.51v-.06c0-.2-.04-.37-.13-.52-.09-.15-.21-.26-.37-.34s-.34-.12-.55-.12-.39.04-.55.12-.28.2-.37.35a.98.98 0 0 0-.13.52v.07c0 .19.04.36.13.51.09.15.21.26.37.34.16.08.34.12.55.12s.39-.04.55-.12Zm-.07-2.88c.14-.08.24-.19.32-.33s.11-.31.11-.5v-.06c0-.18-.04-.34-.11-.47s-.18-.24-.32-.32c-.14-.07-.3-.11-.47-.11s-.34.04-.47.11c-.14.08-.24.18-.32.32s-.11.3-.11.48v.07c0 .18.04.35.11.49.08.14.18.25.32.33.14.08.3.12.47.12s.34-.04.47-.12ZM141.25 342.44h.9v.9l-.9.89v-1.78ZM146.68 337.75l-1.65 5.59h-.95l1.65-5.54h-1.63v.92h-.9v-1.77h3.48v.8ZM147.81 342.56l2.23-2.97c.13-.17.23-.35.3-.53.07-.18.11-.35.11-.51 0-.26-.07-.46-.22-.6s-.36-.21-.64-.21c-.26 0-.47.08-.63.23-.16.15-.26.37-.29.65s-.93 0-.93 0c.05-.37.16-.68.32-.94.16-.26.37-.46.63-.59.26-.14.56-.2.89-.2.38 0 .71.07.98.2s.47.32.62.57.21.55.21.9c0 .23-.05.47-.14.71s-.22.48-.39.71l-1.85 2.51h2.42v.85h-3.6v-.78ZM197.17 95.08l2.14-4.63h.92l-2.09 4.57h3.13v.83h-4.11v-.78Zm2.76-2h.87v3.76h-.87v-3.76ZM202.29 95.94h.9v.9l-.9.89v-1.78ZM207.72 91.25l-1.65 5.59h-.95l1.65-5.54h-1.63v.92h-.9v-1.77h3.48v.8ZM209.87 96.71a1.61 1.61 0 0 1-.61-.55c-.16-.24-.26-.53-.31-.87s.9 0 .9 0c.03.24.13.42.28.55.16.13.36.2.61.2.29 0 .51-.1.67-.29.16-.19.23-.46.23-.81v-.54c0-.35-.08-.61-.23-.81-.16-.19-.38-.29-.67-.29-.16 0-.3.04-.45.13s-.27.21-.38.37h-.82v-3.37h3.26v.85h-2.36v1.44c.11-.09.24-.16.37-.21s.28-.08.42-.08c.37 0 .68.08.95.23s.46.38.6.67c.14.29.2.65.2 1.06v.54c0 .41-.07.77-.21 1.06s-.35.52-.62.67c-.27.15-.59.23-.97.23-.32 0-.61-.06-.86-.19ZM217 149.8c-.27-.13-.49-.32-.66-.57a1.97 1.97 0 0 1-.31-.89h.91c.03.18.08.33.17.45s.2.2.34.26.3.08.49.08c.3 0 .53-.08.69-.24s.25-.38.25-.67v-.19c0-.32-.08-.57-.23-.74-.16-.17-.38-.26-.66-.26h-.45v-.85h.45c.25 0 .44-.07.58-.22s.21-.36.21-.63v-.2c0-.25-.07-.45-.22-.58-.15-.14-.35-.21-.62-.21-.15 0-.29.03-.41.09s-.22.15-.31.26c-.08.12-.14.27-.18.45h-.91c.06-.35.17-.65.33-.9s.37-.44.62-.57.53-.19.86-.19c.55 0 .98.15 1.28.44s.45.7.45 1.23v.11c0 .32-.09.6-.26.83s-.42.41-.73.52c.35.08.62.25.81.51.19.27.29.61.29 1.02v.11c0 .37-.07.69-.22.95s-.35.46-.63.6c-.27.14-.6.21-.99.21-.36 0-.67-.07-.94-.2ZM220.96 149.03h.9v.9l-.9.89v-1.78ZM225.35 146.75v.16c-.08.13-.19.23-.34.3-.15.06-.32.09-.52.09-.3 0-.57-.08-.8-.23s-.41-.37-.54-.66c-.13-.28-.19-.61-.19-.98 0-.42.07-.77.21-1.06.14-.29.34-.52.61-.67.27-.15.59-.23.96-.23s.7.08.96.23.47.38.61.68c.14.3.21.65.21 1.07 0 .23-.03.48-.09.74s-.14.52-.25.77c-.02.04-.04.08-.05.12l-.06.12-1.36 2.74h-.97l1.61-3.17Zm.04-.55c.15-.19.23-.46.23-.8s-.08-.6-.23-.79c-.15-.18-.37-.28-.65-.28s-.5.09-.66.28c-.15.18-.23.45-.23.79 0 .35.08.62.23.81.15.19.37.28.66.28s.5-.09.65-.29ZM228.39 149.77c-.27-.15-.47-.37-.61-.66-.14-.29-.21-.64-.21-1.04a3.99 3.99 0 0 1 .32-1.52c.02-.04.04-.09.06-.13l.06-.12 1.39-2.75h.97l-1.63 3.19v-.16c.08-.14.18-.24.33-.32s.3-.11.49-.11c.33 0 .62.07.85.22s.42.37.54.65c.12.29.18.63.18 1.03 0 .41-.07.77-.21 1.06-.14.29-.34.52-.61.67-.27.15-.59.23-.96.23s-.7-.08-.96-.23Zm1.62-.9c.15-.18.23-.43.23-.75 0-.36-.08-.64-.24-.83-.16-.19-.39-.29-.69-.29-.27 0-.47.1-.62.29s-.22.47-.22.83c0 .33.08.58.23.75.15.17.37.26.65.26s.5-.09.66-.26ZM217.02 196.37c-.27-.15-.47-.37-.61-.66-.14-.29-.21-.64-.21-1.04a3.99 3.99 0 0 1 .32-1.52c.02-.04.04-.09.06-.13l.06-.12 1.39-2.75h.97l-1.63 3.19v-.16c.08-.14.18-.24.33-.32s.3-.11.49-.11c.33 0 .62.07.85.22s.42.37.54.65c.12.29.18.63.18 1.03 0 .41-.07.77-.21 1.06-.14.29-.34.52-.61.67-.27.15-.59.23-.96.23s-.7-.08-.96-.23Zm1.62-.9c.15-.18.23-.43.23-.75 0-.36-.08-.64-.24-.83-.16-.19-.39-.29-.69-.29-.27 0-.47.1-.62.29s-.22.47-.22.83c0 .33.08.58.23.75.15.17.37.26.65.26s.5-.09.66-.26ZM220.87 195.64h.9v.9l-.9.89v-1.78ZM223.7 196.4c-.27-.13-.49-.32-.66-.57a1.97 1.97 0 0 1-.31-.89h.91c.03.18.08.33.17.45s.2.2.34.26.3.08.49.08c.3 0 .53-.08.69-.24s.25-.38.25-.67v-.19c0-.32-.08-.57-.23-.74-.16-.17-.38-.26-.66-.26h-.45v-.85h.45c.25 0 .44-.07.58-.22s.21-.36.21-.63v-.2c0-.25-.07-.45-.22-.58-.15-.14-.35-.21-.62-.21-.15 0-.29.03-.41.09s-.22.15-.31.26c-.08.12-.14.27-.18.45h-.91c.06-.35.17-.65.33-.9s.37-.44.62-.57.53-.19.86-.19c.55 0 .98.15 1.28.44s.45.7.45 1.23v.11c0 .32-.09.6-.26.83s-.42.41-.73.52c.35.08.62.25.81.51.19.27.29.61.29 1.02v.11c0 .37-.07.69-.22.95s-.35.46-.63.6c-.27.14-.6.21-.99.21-.36 0-.67-.07-.94-.2ZM231.05 190.94l-1.65 5.59h-.95l1.65-5.54h-1.63v.92h-.9v-1.77h3.48v.8ZM171.68 263.12h-.9v-5.41l-.91.56v-.93l.91-.61h.9v6.39ZM174.67 263.12h-.9v-5.41l-.91.56v-.93l.91-.61h.9v6.39ZM176.03 262.22h.9v.9l-.9.89v-1.78ZM178.07 261.36l2.14-4.63h.92l-2.09 4.58h3.13v.83h-4.11v-.78Zm2.76-2h.87v3.76h-.87v-3.76ZM185.54 259.94v.16c-.08.13-.19.23-.34.3-.15.06-.32.09-.52.09-.3 0-.57-.08-.8-.23s-.41-.37-.54-.66c-.13-.28-.19-.61-.19-.98 0-.42.07-.77.21-1.06.14-.29.34-.52.61-.67.27-.15.59-.23.96-.23s.7.08.96.23.47.38.61.68c.14.3.21.65.21 1.07 0 .23-.03.48-.09.74s-.14.52-.25.77c-.02.04-.04.08-.05.12l-.06.12-1.36 2.74h-.97l1.61-3.17Zm.04-.55c.15-.19.23-.46.23-.8s-.08-.6-.23-.79c-.15-.18-.37-.28-.65-.28s-.5.09-.66.28c-.15.18-.23.45-.23.79 0 .35.08.62.23.81.15.19.37.28.66.28s.5-.09.65-.29ZM220.5 37.67l-1.65 5.59h-.95l1.65-5.54h-1.63v.92h-.9v-1.77h3.48v.8ZM221.65 42.36h.9v.9l-.9.89v-1.78ZM223.68 42.48l2.23-2.97c.13-.17.23-.35.3-.53.07-.18.11-.35.11-.51 0-.26-.07-.46-.22-.6s-.36-.21-.64-.21c-.26 0-.47.08-.63.23-.16.15-.26.37-.29.65s-.93 0-.93 0c.05-.37.16-.68.32-.94.16-.26.37-.46.63-.59.26-.14.56-.2.89-.2.38 0 .71.07.98.2s.47.32.62.57.21.55.21.9c0 .23-.05.47-.14.71s-.22.48-.39.71l-1.85 2.51h2.42v.85h-3.6v-.78ZM229.96 43.26h-.9v-5.41l-.91.56v-.93l.91-.61h.9v6.39ZM154.84 80.8a1.61 1.61 0 0 1-.61-.55c-.16-.24-.26-.53-.31-.87s.9 0 .9 0c.03.24.13.42.28.55.16.13.36.2.61.2.29 0 .51-.1.67-.29.16-.19.23-.46.23-.81v-.54c0-.35-.08-.61-.23-.81-.16-.19-.38-.29-.67-.29-.16 0-.3.04-.45.13s-.27.21-.38.37h-.82v-3.37h3.26v.85h-2.36v1.44c.11-.09.24-.16.37-.21s.28-.08.42-.08c.37 0 .68.08.95.23s.46.38.6.67c.14.29.2.65.2 1.06v.54c0 .41-.07.77-.21 1.06s-.35.52-.62.67c-.27.15-.59.23-.97.23-.32 0-.61-.06-.86-.19ZM158.73 80.02h.9v.9l-.9.89v-1.78ZM161.54 80.76c-.27-.15-.47-.37-.61-.66-.14-.29-.21-.64-.21-1.04a3.99 3.99 0 0 1 .32-1.52c.02-.04.04-.09.06-.13l.06-.12 1.39-2.75h.97l-1.63 3.19v-.16c.08-.14.18-.25.33-.32s.3-.11.49-.11c.33 0 .62.08.85.22s.42.37.54.65c.12.29.18.63.18 1.03 0 .42-.07.77-.21 1.06-.14.29-.34.52-.61.67-.27.15-.59.23-.96.23s-.7-.08-.96-.23Zm1.62-.9c.15-.18.23-.43.23-.75 0-.36-.08-.64-.24-.83-.16-.19-.39-.29-.69-.29-.27 0-.47.1-.62.29s-.22.47-.22.83c0 .33.08.58.23.75.15.17.37.26.65.26s.5-.09.66-.26ZM165.39 79.16l2.14-4.63h.92l-2.09 4.57h3.13v.83h-4.11v-.78Zm2.76-2h.87v3.76h-.87v-3.76ZM66.46 53.53h-.9v-5.41l-.91.56v-.93l.91-.61h.9v6.39ZM67.81 52.75l2.23-2.97c.13-.17.23-.35.3-.53.07-.18.11-.35.11-.51 0-.26-.07-.46-.22-.6s-.36-.21-.64-.21c-.26 0-.47.08-.63.23-.16.15-.26.37-.29.65s-.93 0-.93 0c.05-.37.16-.68.32-.94.16-.26.37-.46.63-.59.26-.14.56-.2.89-.2.38 0 .71.07.98.2s.47.32.62.57.21.55.21.9c0 .23-.05.47-.14.71s-.22.48-.39.71l-1.85 2.51h2.42v.85h-3.6v-.78ZM72.47 52.63h.9v.9l-.9.89v-1.78ZM75.28 53.37c-.27-.15-.47-.37-.61-.66-.14-.29-.21-.64-.21-1.04a3.99 3.99 0 0 1 .32-1.52c.02-.04.04-.09.06-.13l.06-.12 1.39-2.75h.97l-1.63 3.19v-.16c.08-.14.18-.25.33-.32s.3-.11.49-.11c.33 0 .62.08.85.22s.42.37.54.65c.12.29.18.63.18 1.03 0 .42-.07.77-.21 1.06-.14.29-.34.52-.61.67-.27.15-.59.23-.96.23s-.7-.08-.96-.23Zm1.62-.9c.15-.18.23-.43.23-.75 0-.36-.08-.64-.24-.83-.16-.19-.39-.29-.69-.29-.27 0-.47.1-.62.29s-.22.47-.22.83c0 .33.08.58.23.75.15.17.37.26.65.26s.5-.09.66-.26ZM79.13 51.77l2.14-4.63h.92l-2.09 4.57h3.13v.83h-4.11v-.78Zm2.76-2h.87v3.76h-.87v-3.76ZM64.93 139.17l2.23-2.97c.13-.17.23-.35.3-.53.07-.18.11-.35.11-.51 0-.26-.07-.46-.22-.6s-.36-.21-.64-.21c-.26 0-.47.08-.63.23-.16.15-.26.37-.29.65s-.93 0-.93 0c.05-.37.16-.68.32-.94.16-.26.37-.46.63-.59.26-.14.56-.21.89-.21.38 0 .71.07.98.2s.47.32.62.57.21.55.21.9c0 .23-.05.47-.14.71s-.22.48-.39.71l-1.85 2.51h2.42v.85h-3.6v-.78ZM71.94 136.78v.16c-.08.13-.19.23-.34.3-.15.06-.32.09-.52.09-.3 0-.57-.08-.8-.23s-.41-.37-.54-.66c-.13-.28-.19-.61-.19-.98 0-.42.07-.77.21-1.06.14-.29.34-.52.61-.67.27-.15.59-.23.96-.23s.7.08.96.23.47.38.61.68c.14.3.21.65.21 1.07 0 .23-.03.48-.09.74s-.14.52-.25.77c-.02.04-.04.08-.05.12l-.06.12-1.36 2.74h-.97l1.61-3.17Zm.04-.55c.15-.19.23-.46.23-.8s-.08-.6-.23-.79c-.15-.18-.37-.28-.65-.28s-.5.09-.66.28c-.15.18-.23.45-.23.79 0 .35.08.62.23.81.15.19.37.28.66.28s.5-.09.65-.29ZM74.21 139.06h.9v.9l-.9.89v-1.78ZM77.88 139.95h-.9v-5.41l-.91.56v-.93l.91-.61h.9v6.39ZM80.25 139.83a1.61 1.61 0 0 1-.61-.55c-.16-.24-.26-.53-.31-.87s.9 0 .9 0c.03.24.13.42.28.55.16.13.36.2.61.2.29 0 .51-.1.67-.29.16-.19.23-.46.23-.81v-.54c0-.35-.08-.61-.23-.81-.16-.19-.38-.29-.67-.29-.16 0-.3.04-.45.13s-.27.21-.38.37h-.82v-3.37h3.26v.85h-2.36v1.44c.11-.09.24-.16.37-.21s.28-.07.42-.07c.37 0 .68.08.95.23s.46.38.6.67c.14.29.2.65.2 1.06v.54c0 .41-.07.77-.21 1.06s-.35.52-.62.67c-.27.15-.59.23-.97.23-.32 0-.61-.06-.86-.19Z"/></g></svg>