<svg xmlns="http://www.w3.org/2000/svg" viewBox="0 0 286.46 280.21"><defs><pattern id="_Новый_узор_4" width="9.82" height="9.82" x="0" y="0" patternTransform="matrix(1.05 0 0 1.03 123.54 1071.03)" patternUnits="userSpaceOnUse"><g fill="none"><path d="M0 0h9.82v9.82H0z"/><g fill-rule="evenodd" stroke-linecap="round" stroke-width=".25" clip-path="url(#clippath)"><path stroke="#e6e6e6" stroke-linejoin="round" d="m14.73 19.65-4.91-4.92 4.91-4.91 4.91 4.91-4.91 4.92zM4.91 19.65 0 14.73l4.91-4.91 4.91 4.91-4.91 4.92zM-4.91 19.65l-4.91-4.92 4.91-4.91L0 14.73l-4.91 4.92z"/><path stroke="#e6e6e6" stroke-linejoin="round" d="M14.73 9.82 9.82 4.91 14.73 0l4.91 4.91-4.91 4.91z"/><path stroke="#999" stroke-miterlimit="3" d="M4.91 9.82 0 4.91 4.91 0l4.91 4.91-4.91 4.91z"/><path stroke="#e6e6e6" stroke-linejoin="round" d="m-4.91 9.82-4.91-4.91L-4.91 0 0 4.91l-4.91 4.91zM14.73 0 9.82-4.91l4.91-4.91 4.91 4.91L14.73 0zM4.91 0 0-4.91l4.91-4.91 4.91 4.91L4.91 0zM-4.91 0l-4.91-4.91 4.91-4.91L0-4.91-4.91 0z"/></g></g></pattern><pattern id="_Новый_узор_2" width="22.92" height="23.17" x="0" y="0" patternTransform="matrix(.7 0 0 .67 -2625.5 -2038.2)" patternUnits="userSpaceOnUse"><g fill="none"><path d="M0 0h22.92v23.17H0z"/><path stroke="#b5b5b5" stroke-miterlimit="10" stroke-width=".25" d="M22.69 17.61v11.12H.23V17.61h22.46m.11-.11H.12v11.34H22.8V17.5ZM22.69 6.03v11.12H.23V6.03h22.46m.11-.11H.12v11.34H22.8V5.92ZM22.69-5.56V5.56H.23V-5.56h22.46m.11-.11H.12V5.67H22.8V-5.67Z"/></g></pattern><clipPath id="clippath"><path fill="none" d="M0 0h9.82v9.82H0z"/></clipPath></defs><g id="Flats"><path id="fl57" fill="#fff" fill-rule="evenodd" d="M280.12 45.79V9.92l-18.56 11.34-52.38 13.06-47.59-.47-52.38-13.06-14.59-8.24-18.73 8.71-52.38 13.06-19.95 3.11 1.09 8.36H2.66v225.95h176.21v-10.28h104.67V45.79h-3.42z"/></g><g id="Grid"><path fill="url(#_Новый_узор_4)" d="M80.28 197.66h50.65v59.76H80.28z"/><path fill="url(#_Новый_узор_2)" d="M7.61 197.66h59.54v55.73H7.61z"/></g><g id="Mebel"><g fill="none" stroke="#6a6a6a" stroke-linecap="round" stroke-linejoin="round" stroke-width=".25"><path d="M134.94 139.65v17.44m0 0h50.81m0 0v-17.44m0 0h-50.81M185.75 148.51v.55m0 0h-50.81m0 0v-.55m0 0h50.81M140.73 155.63v-13.64m0 0h.59m0 0v13.64m0 0h-.59M142.29 155.63v-13.64m0 0h.59m0 0v13.64m0 0h-.59M143.85 155.63v-13.64m0 0h.59m0 0v13.64m0 0h-.59M145.41 155.63v-13.64m0 0h.59m0 0v13.64m0 0h-.59M148.72 155.53l-1.75-13.55m0 0 .58-.07m0 0 1.75 13.55m0 0-.58.07"/></g><g fill="none" stroke="#6a6a6a" stroke-linecap="round" stroke-linejoin="round" stroke-width=".25"><path d="M60.35 144.52v14.13m0 0H22.42m0 0v-14.13m0 0h37.93M22.42 151.7v.45m0 0h37.93m0 0v-.45m0 0H22.42M55.66 157.47v-11.06m0 0h-.48m0 0v11.06m0 0h.48M54.4 157.47v-11.06m0 0h-.48m0 0v11.06m0 0h.48M53.13 157.47v-11.06m0 0h-.48m0 0v11.06m0 0h.48M51.87 157.47v-11.06m0 0h-.48m0 0v11.06m0 0h.48M49.19 157.39l1.41-10.97m0 0-.47-.05m0 0-1.41 10.97m0 0 .47.05"/></g><g fill="none" stroke="#6a6a6a" stroke-linecap="round" stroke-linejoin="round" stroke-width=".25"><path d="M22.45 194.82H7.61m0 0v-50.3m0 0h14.83m0 0v50.3M14.91 144.53h-.47m0 0v50.3m0 0h.47m0 0v-50.3M8.86 189.9h11.61m0 0v-.5m0 0H8.86m0 0v.5M8.86 188.57h11.61m0 0v-.5m0 0H8.86m0 0v.5M8.86 187.24h11.61m0 0v-.5m0 0H8.86m0 0v.5M8.86 185.91h11.61m0 0v-.5m0 0H8.86m0 0v.5M8.94 183.1l11.52 1.48m0 0 .06-.5m0 0L9 182.6m0 0-.06.5"/></g><g fill="none" stroke="#6a6a6a" stroke-linecap="round" stroke-linejoin="round" stroke-width=".25"><path d="M194.35 243.95h-17.33m0 0v-29.02m0 0h17.33m0 0v29.02M185.55 214.93H185m0 0v29.02m0 0h.55m0 0v-29.02M178.47 238.39h13.56m0 0v-.59m0 0h-13.56m0 0v.59M178.47 236.84h13.56m0 0v-.59m0 0h-13.56m0 0v.59M178.47 235.29h13.56m0 0v-.58m0 0h-13.56m0 0v.58M178.47 233.74h13.56m0 0v-.59m0 0h-13.56m0 0v.59M178.57 230.45l13.46 1.73m0 0 .07-.58m0 0-13.46-1.73m0 0-.07.58"/></g><g fill="none" stroke="#6a6a6a" stroke-linecap="round" stroke-linejoin="round" stroke-width=".25"><path d="M191.13 206.3c0 3.02-2.45 5.47-5.47 5.47s-5.47-2.45-5.47-5.47 2.45-5.47 5.47-5.47 5.47 2.45 5.47 5.47ZM190.24 205.91l-.94.34m0 0h-1m0 0-.94-.34m0 0-1.12.26m0 0h-1.15m0 0-1.12-.26m0 0-.94.34m0 0h-1m0 0-.94-.34m0 0 1.7 2.28m0 0h5.76m0 0 1.7-2.28M188.54 208.38h-5.76m0 0v-.2m0 0h5.76m0 0v.2M188.54 208.78h-5.76m0 0v-.2m0 0h5.76m0 0v.2M185.01 204.75l.68-.06m0 0 .02.17m0 0-.36.03m0 0 1.05.87m0 0-.1.12m0 0-.49-.4m0 0-.05.06m0 0 .56.47m0 0-.09.11m0 0-.56-.47m0 0-.06.07m0 0 .46.38m0 0-.08.1m0 0-.46-.38m0 0-.06.07m0 0 .32.26m0 0-.09.11m0 0-1.08-.89M194.3 197.66h-17.28m0 0v17.28m0 0h17.28m0 0v-17.28"/></g><g fill="none" stroke="#6a6a6a" stroke-linecap="round" stroke-linejoin="round" stroke-width=".25"><path d="M13.76 107.35c-1.36 0-2.46 1.1-2.46 2.46s1.1 2.46 2.46 2.46 2.46-1.1 2.46-2.46-1.1-2.46-2.46-2.46Z"/><path d="M13.76 109.07c-.41 0-.74.33-.74.74s.33.74.74.74.74-.33.74-.74-.33-.74-.74-.74ZM13.76 49.57c-1.36 0-2.46 1.1-2.46 2.46s1.1 2.46 2.46 2.46 2.46-1.1 2.46-2.46-1.1-2.46-2.46-2.46Z"/><path d="M13.76 51.29c-.41 0-.74.33-.74.74s.33.74.74.74.74-.33.74-.74-.33-.74-.74-.74ZM59.25 103.05V58.79m0 0H10.07m0 0v44.26m0 0h49.18M60.48 101.82v-41.8m0 0-.09-.47m0 0-.27-.4m0 0-.4-.27m0 0-.47-.09m0 0v44.26m0 0 .47-.09m0 0 .4-.27m0 0 .27-.4m0 0 .09-.47M7.61 103.05V58.79m0 0h2.46m0 0v44.26m0 0H7.61M7.61 58.79v44.26m0 0h1.23m0 0V58.79m0 0H7.61M7.61 57.56V46.5m0 0H19.9m0 0v11.06m0 0H7.61M7.61 104.28v11.06m0 0H19.9m0 0v-11.06m0 0H7.61M11.3 76.98V60.26m0 0 .07-.17m0 0 .17-.07m0 0h8.11m0 0 .17.07m0 0 .07.17m0 0v16.72m0 0-.07.17m0 0-.17.07m0 0h-8.1m0 0-.17-.07m0 0-.07-.17M11.3 84.85v16.72m0 0 .07.17m0 0 .17.07m0 0h8.11m0 0 .17-.07m0 0 .07-.17m0 0V84.85m0 0-.07-.17m0 0-.17-.07m0 0h-8.1m0 0-.17.07m0 0-.07.17M19.24 103.05v-1.23M19.24 84.61v-7.38M19.24 60.02v-1.23M22.5 103.05V58.79m0 0h12.16m0 0-9.7 44.26m0 0H22.5M13.2 112.2l.56-2.39m0 0 2.23-1.03m0 0-2.23 1.03m0 0-2.31-.85M13.2 49.63l.56 2.39m0 0 2.23 1.03m0 0-2.23-1.03m0 0-2.31.85"/></g><g fill="none" stroke="#6a6a6a" stroke-linecap="round" stroke-linejoin="round" stroke-width=".25"><path d="M84.11 102.83V59.01m0 0h8.66m0 0v43.82m0 0h-8.66M84.55 102.83V59.01M84.11 80.92h.44M84.11 102.83h.44M89.19 68.21h.58m0 0v25.41m0 0h-.58m0 0V68.21M89.78 69.02l1.95-.41m0 0-.08-.39m0 0-1.87.39m0 0v.41M89.78 73.77h.48m0 0 .32.09m0 0 .24.24m0 0 .09.33m0 0v13m0 0-.09.32m0 0-.24.24m0 0-.32.09m0 0h-.48m0 0v-14.3M88.99 69.02l-1.95-.41m0 0 .08-.39m0 0 1.87.39m0 0v.41M89.78 92.82l1.95.41m0 0-.08.39m0 0-1.87-.39m0 0v-.41M89.02 92.82l-1.95.41m0 0 .08.39m0 0 1.87-.39m0 0v-.41M89.02 68.21h.17m0 0v25.41m0 0h-.17m0 0V68.21"/></g><g fill="none" stroke="#6a6a6a" stroke-linecap="round" stroke-linejoin="round" stroke-width=".25"><path d="M163.72 76.22v4.39m0 0v.45m0 0 .03.43m0 0 .05.4m0 0 .07.36m0 0h0m0 .01.08.32m0 0 .1.26m0 0v.02m0 0 .11.19m0 0v.02m.01 0 .12.12m0 0h.02m0 .01h.02m0 .01h.02m0 0 .12.04m0 0h.02m0 0h.01m0 0h1.21m0 0v1.1m0 0h4.16m0-11.88h-4.16m0 0v1.1m0 0h-1.21m0 0h-.01m0 0h-.02m0 0-.12.04m0 0h-.02m0 0h-.02m0 .01h-.02m0 .01-.12.12m0 0v.02m-.01 0-.11.19m0 0v.02m0 0-.1.26m0 0-.09.32m0 0h0m0 .01-.07.36m0 0-.05.4m0 0-.03.43m0 0v.45M166.46 83.25v-9.68M166.46 83.12h-.96M166.46 73.7h-.96M169.91 73.57h-4.16M169.91 83.25h-4.16M164.82 80.61v-4.4M165.5 83.12c-.38 0-.68-1.12-.68-2.51M164.82 76.21c0-1.39.31-2.51.69-2.51M169.97 102.21V59.63h16.08v42.58z"/></g><g fill="none" stroke="#6a6a6a" stroke-linecap="round" stroke-linejoin="round" stroke-width=".25"><path d="M100.92 52.77h24.6m0 0v54.93m0 0h-24.6m0 0V52.77M102.3 51.39h21.85m0 0 .53.1m0 0 .45.3m0 0 .3.45m0 0 .1.53m0 0h-24.6m0 0 .1-.53m0 0 .3-.45m0 0 .45-.3m0 0 .53-.1M100.92 110.44h24.6m0 0v-2.75m0 0h-24.6m0 0v2.75M125.52 110.44h-24.6m0 0v-1.37m0 0h24.6m0 0v1.37M122.51 106.32h-18.67m0 0-.19-.08m0 0-.08-.19m0 0v-9.06m0 0 .08-.19m0 0 .19-.08m0 0h18.67m0 0 .19.08m0 0 .08.19m0 0v9.06m0 0-.08.19m0 0-.19.08M100.92 97.45h2.64M122.79 97.45h2.7M100.92 93.81h24.6m0 0V80.23m0 0-24.6 10.83m0 0v2.75"/></g><g fill="none" stroke="#6a6a6a" stroke-linecap="round" stroke-linejoin="round" stroke-width=".25"><path d="M255.28 100.23V81.14m0 0h15.85m0 0v19.09m0 0h-15.85M255.28 81.14V62.05m0 0h15.85m0 0v19.09m0 0h-15.85M255.28 62.06v-6.39m0 0h22.65m0 0v6.39m0 0h-1.13m-5.66 0h-15.85M255.28 106.62v-6.39m0 0h15.85m5.66 0h1.13m0 0v6.39m0 0h-22.65M276.79 81.14h-5.66m0 0V58.86m0 0h5.66m0 0v22.28M276.79 81.14h-5.66m0 0v22.28m0 0h5.66m0 0V81.14"/></g><g fill="none" stroke="#6a6a6a" stroke-linecap="round" stroke-linejoin="round" stroke-width=".25"><path d="M197.24 103.05V59.23m0 0h-8.66m0 0v43.82m0 0h8.66M196.81 103.05V59.23M197.24 81.14h-.43M197.24 103.05h-.43M192.16 68.44h-.58m0 0v25.41m0 0h.58m0 0V68.44M191.58 69.24l-1.95-.41m0 0 .08-.39m0 0 1.87.39m0 0v.41M191.58 73.99h-.48m0 0-.32.09m0 0-.24.24m0 0-.09.33m0 0v13m0 0 .09.32m0 0 .24.24m0 0 .32.09m0 0h.48m0 0V74M192.37 69.24l1.95-.41m0 0-.08-.39m0 0-1.87.39m0 0v.41M191.58 93.04l-1.95.41m0 0 .08.39m0 0 1.87-.39m0 0v-.41M192.33 93.04l1.95.41m0 0-.08.39m0 0-1.87-.39m0 0v-.41M192.33 68.44h-.17m0 0v25.41m0 0h.17m0 0V68.44"/></g><path fill="none" stroke="#6a6a6a" stroke-linecap="round" stroke-linejoin="round" stroke-width=".25" d="M243.84 96.46h-15.17V65.84h15.17z"/><g fill="#fff" stroke="#6a6a6a" stroke-linecap="round" stroke-linejoin="round" stroke-width=".25"><path d="M15.86 232.5h51.29v20.92H15.86zM61.17 251.75l.74-.06m0 0 .72-.19m0 0 .68-.31m0 0 .61-.42m0 0 .53-.52m0 0 .43-.6m0 0 .31-.66m0 0 .19-.7m0 0 .06-.73m0 0v-9.21m0 0-.06-.73m0 0-.19-.7m0 0-.31-.66m0 0-.43-.6m0 0-.53-.52m0 0-.61-.42m0 0-.68-.31m0 0-.72-.19m0 0-.74-.06m0 0H26.55m0 0-1.56.13m0 0-1.51.4m0 0-1.42.65m0 0-1.28.88m0 0-1.11 1.08m0 0-.9 1.26m0 0-.66 1.39m0 0-.4 1.48m0 0-.14 1.53m0 0 .14 1.53m0 0 .4 1.48m0 0 .66 1.39m0 0 .9 1.26m0 0 1.11 1.08m0 0 1.28.88m0 0 1.42.65m0 0 1.51.4m0 0 1.56.13m0 0h34.62"/><path d="M60.81 242.96c0-.41-.33-.74-.74-.74s-.74.33-.74.74.33.74.74.74.74-.33.74-.74ZM80.28 236.74h50.7v20.68h-50.7zM86.19 255.77l-.73-.06m0 0-.71-.19m0 0-.67-.3m0 0-.6-.41m0 0-.52-.51m0 0-.42-.59m0 0-.31-.65m0 0-.19-.7m0 0-.06-.72m0 0v-9.1m0 0 .06-.72m0 0 .19-.7m0 0 .31-.65m0 0 .42-.59m0 0 .52-.51m0 0 .6-.41m0 0 .67-.3m0 0 .71-.19m0 0 .73-.06m0 0h34.22m0 0 1.54.13m0 0 1.49.39m0 0 1.4.64m0 0 1.27.87m0 0 1.09 1.07m0 0 .89 1.24m0 0 .65 1.37m0 0 .4 1.46m0 0 .13 1.51m0 0-.13 1.51m0 0-.4 1.46m0 0-.65 1.37m0 0-.89 1.24m0 0-1.09 1.07m0 0-1.27.87m0 0-1.4.64m0 0-1.49.39m0 0-1.54.13m0 0H86.19"/><path d="M86.54 247.08c0-.4.33-.73.73-.73.4 0 .73.33.73.73s-.33.73-.73.73-.73-.33-.73-.73ZM67.77 203.94v7.74l-8.42.89-1.24.04-1.24-.15-1.19-.34-1.13-.52-.89-.7-.69-.91-.43-1.05-.15-1.13.15-1.13.43-1.05.69-.9.89-.71 1.13-.52 1.19-.34 1.24-.15 1.24.04 8.42.89zM63.61 210.8v-2.99M63.61 207.81v-2.99"/><path d="M52.6 207.81c0 .8.23 1.58.64 2.23M53.24 210.04c1.25 1.61 3.08 2.48 4.96 2.36M58.2 212.4c1.9.05 3.77-.5 5.4-1.59M63.61 204.82c-1.64-1.09-3.51-1.65-5.4-1.59M58.2 203.22c-1.88-.12-3.71.75-4.96 2.36M53.24 205.58c-.41.65-.64 1.42-.64 2.23M80.28 213.26V221l8.42.89 1.24.04 1.23-.15 1.2-.34 1.12-.52.9-.7.68-.91.43-1.05.15-1.13-.15-1.13-.43-1.05-.68-.91-.9-.7-1.12-.52-1.2-.34-1.23-.15-1.24.04-8.42.89zM84.43 220.12v-2.99M84.43 217.13v-2.99"/><path d="M95.44 217.13c0 .8-.23 1.58-.64 2.23M94.8 219.36c-1.25 1.61-3.08 2.48-4.96 2.36M89.84 221.72c-1.9.05-3.77-.5-5.4-1.59M84.43 214.14c1.64-1.09 3.51-1.65 5.4-1.59M89.84 212.55c1.88-.12 3.71.75 4.96 2.36"/><path d="M94.8 214.91c.41.65.64 1.42.64 2.23M18.56 198.04v15.29l-.12.27-.29.11H8.02l-.29-.11-.12-.27v-15.29l.12-.27.29-.11h10.13l.29.11.12.27zM10.63 198.8v6.59m0 .61v6.59M11.04 212.95h6.3M17.75 212.57V198.8M17.34 198.42h-6.3"/><path d="M11.04 212.95c-.23 0-.41-.17-.41-.38M17.75 212.57c0 .21-.18.38-.41.38M17.34 198.42c.23 0 .41.17.41.38M10.63 198.8c0-.21.18-.38.41-.38M12.36 205.38c.1-.12.26-.2.44-.2s.34.08.44.2h-.88Zm.88.61c-.1.12-.26.2-.44.2s-.34-.08-.44-.2h.88ZM8 205.99v-.61m0 0h5.61m0 0 .22.17m0 0v.26m0 0-.22.17m0 0H8M8.99 203.5H7.81m0 0v.06m0 0h-.1m0 0v.19m0 0h-.1m0 0v-1.26m0 0h.1m0 0v.19m0 0h.1m0 0v.06m0 0h1.18m0 0v.22m0 0h.3m0 0v-.72m0 0h.36m0 0v1.77m0 0h-.36m0 0v-.72m0 0h-.3m0 0v.21M8.99 207.87H7.81m0 0v-.06m0 0h-.1m0 0v-.19m0 0h-.1m0 0v1.26m0 0h.1m0 0v-.19m0 0h.1m0 0v-.06m0 0h1.18m0 0v-.22m0 0h.3m0 0v.72m0 0h.36m0 0v-1.77m0 0h-.36m0 0v.72m0 0h-.3m0 0v-.21M9.29 202.96l.05.04M9.29 203.28l.05-.04M8.99 202.96v.32M9.29 208.42l.05-.05M9.29 208.09l.05.05M8.99 208.42v-.33M9.29 203.12c0-.09.08-.16.18-.16s.18.07.18.16-.08.16-.18.16-.18-.07-.18-.16ZM9.29 208.25c0-.09.08-.16.18-.16s.18.07.18.16-.08.16-.18.16-.18-.07-.18-.16ZM120.03 204.59v15.29l.12.27.29.11h10.13l.29-.11.12-.27v-15.29l-.12-.27-.29-.11h-10.13l-.29.11-.12.27zM127.96 205.34v6.59m0 .61v6.59M127.55 219.5h-6.3M120.84 219.12v-13.78M121.25 204.96h6.3"/><path d="M127.55 219.5c.23 0 .41-.17.41-.38M120.84 219.12c0 .21.18.38.41.38M121.25 204.96c-.23 0-.41.17-.41.38M127.96 205.34c0-.21-.18-.38-.41-.38M126.23 211.93c-.1-.12-.26-.2-.44-.2s-.34.08-.44.2h.88Zm-.88.61c.1.12.26.2.44.2s.34-.08.44-.2h-.88ZM130.59 212.54v-.61m0 0h-5.61m0 0-.22.17m0 0v.26m0 0 .22.17m0 0h5.61M129.6 210.05h1.18m0 0v.06m0 0h.1m0 0v.19m0 0h.1m0 0v-1.26m0 0h-.1m0 0v.19m0 0h-.1m0 0v.06m0 0h-1.18m0 0v.22m0 0h-.3m0 0v-.72m0 0h-.36m0 0v1.77m0 0h.36m0 0v-.72m0 0h.3m0 0v.21M129.6 214.42h1.18m0 0v-.06m0 0h.1m0 0v-.19m0 0h.1m0 0v1.26m0 0h-.1m0 0v-.19m0 0h-.1m0 0v-.06m0 0h-1.18m0 0v-.22m0 0h-.3m0 0v.72m0 0h-.36m0 0v-1.77m0 0h.36m0 0v.72m0 0h.3m0 0v-.21M129.3 209.5l-.05.05M129.3 209.83l-.05-.05M129.6 209.5v.33M129.3 214.96l-.05-.05M129.3 214.63l-.05.05M129.6 214.96v-.33M129.3 209.67c0-.09-.08-.16-.18-.16s-.18.07-.18.16.08.16.18.16.18-.07.18-.16ZM129.3 214.8c0-.09-.08-.16-.18-.16s-.18.07-.18.16.08.16.18.16.18-.07.18-.16ZM18.56 214.09v15.29l-.12.27-.29.11H8.02l-.29-.11-.12-.27v-15.29l.12-.27.29-.11h10.13l.29.11.12.27zM10.63 214.85v6.59m0 .61v6.59M11.04 229h6.3M17.75 228.62v-13.77M17.34 214.47h-6.3"/><path d="M11.04 229c-.23 0-.41-.17-.41-.38M17.75 228.62c0 .21-.18.38-.41.38M17.34 214.47c.23 0 .41.17.41.38M10.63 214.85c0-.21.18-.38.41-.38M12.36 221.43c.1-.12.26-.2.44-.2s.34.08.44.2h-.88Zm.88.61c-.1.12-.26.2-.44.2s-.34-.08-.44-.2h.88ZM8 222.04v-.61m0 0h5.61m0 0 .22.17m0 0v.26m0 0-.22.17m0 0H8M8.99 219.55H7.81m0 0v.06m0 0h-.1m0 0v.19m0 0h-.1m0 0v-1.26m0 0h.1m0 0v.19m0 0h.1m0 0v.06m0 0h1.18m0 0v.22m0 0h.3m0 0v-.72m0 0h.36m0 0v1.77m0 0h-.36m0 0v-.72m0 0h-.3m0 0v.21M8.99 223.92H7.81m0 0v-.06m0 0h-.1m0 0v-.19m0 0h-.1m0 0v1.26m0 0h.1m0 0v-.19m0 0h.1m0 0v-.06m0 0h1.18m0 0v-.22m0 0h.3m0 0v.72m0 0h.36m0 0v-1.77m0 0h-.36m0 0v.72m0 0h-.3m0 0v-.21M9.29 219.01l.05.04M9.29 219.33l.05-.04M8.99 219.01v.32M9.29 224.47l.05-.05M9.29 224.14l.05.05M8.99 224.47v-.33M9.29 219.17c0-.09.08-.16.18-.16s.18.07.18.16-.08.16-.18.16-.18-.07-.18-.16ZM9.29 224.3c0-.09.08-.16.18-.16s.18.07.18.16-.08.16-.18.16-.18-.07-.18-.16Z"/></g><g fill="none" stroke="#6a6a6a" stroke-linecap="round" stroke-linejoin="round" stroke-width=".25"><path d="m255.3 136.57-3.99-3.99m0 0-.41-.4m0 0-.42-.36m0 0-.41-.32m0 0-.39-.27m0 0h-.02m0 0-.36-.21m0 0-.32-.14m0 0h-.02m0 0-.27-.07m0 0h-.03m0 0h-.21m0 0h-.03m0 0h-.03m0 0h-.03m0 .01-.15.08m0 0-.02.02m0 0h-.01m0 0-1.1 1.1m0 0-1-1m0 0-5.07 5.07m10.8 10.8 5.07-5.07m0 0-1-1m0 0 1.1-1.1m0 0h.01m0-.01.02-.02m0 0 .08-.15m0 0v-.03m.01 0v-.03m0 0v-.03m0 0v-.21m0 0v-.03m0 0-.07-.27m0 0v-.02m0 0-.14-.32m0 0-.21-.37m0 0v-.02m-.01 0-.27-.39m0 0-.32-.41m0 0-.36-.42m0 0-.4-.41M246.41 132.67l8.8 8.8M246.53 132.79l.87-.88M255.09 141.34l.87-.87M251.32 145.35l4.54-4.53M242.52 136.55l4.54-4.53M250.3 133.57l4 4M247.4 131.91c.34-.34 1.64.4 2.9 1.66M254.3 137.57c1.26 1.26 2 2.56 1.66 2.9M219.74 164.15l3.99 3.99m0 0 .41.4m0 0 .42.36m0 0 .41.32m0 0 .39.27m0 0h.02m0 .01.37.21m0 0 .32.14m0 0h.02m0 0 .27.07m0 0h.03m0 0h.21m0 0h.03m0 0h.03m0 0h.03m0-.01.15-.08m0 0 .02-.02m0 0h.01m0-.01 1.1-1.1m0 0 1 1m0 0 5.07-5.07m-10.8-10.8-5.07 5.07m0 0 1 1m0 0-1.1 1.1m0 0h0m0 .01-.02.02m0 0-.08.15m0 0v.03m-.01 0v.03m0 0v.03m0 0v.21m0 0v.03m0 0 .07.27m0 0v.02m0 0 .14.32m0 0 .21.36m0 0v.02m0 0 .27.39m0 0 .32.41m0 0 .36.42m0 0 .4.41M228.62 168.05l-8.8-8.8M228.5 167.93l-.87.87M219.94 159.37l-.87.87M223.71 155.37l-4.53 4.53M232.51 164.17l-4.54 4.53M224.73 167.14l-4-4M227.63 168.8c-.34.34-1.64-.4-2.9-1.66M220.73 163.14c-1.26-1.26-2-2.56-1.66-2.9M223.73 132.58l-3.99 3.99m0 0-.4.41m0 0-.36.42m0 0-.32.41m0 0-.27.39m0 0v.02m0 0-.21.37m0 0-.14.32m0 0v.02m0 0-.07.27m0 0v.03m0 0v.21m0 0v.03m0 0v.03m0 0v.03m.01 0 .08.15m0 0 .02.02m0 0h0m0 .01 1.1 1.1m0 0-1 1m0 0 5.07 5.07m10.8-10.8-5.07-5.07m0 0-1 1m0 0-1.1-1.1m0 0h0m0 0-.03-.02m0 0-.15-.08m0 0h-.03m0-.01h-.03m0 0h-.03m0 0h-.21m0 0h-.03m0 0-.27.07m0 0h-.02m0 0-.32.14m0 0-.37.21m0 0h-.01m0 0-.39.27m0 0-.41.32m0 0-.42.36m0 0-.41.4M219.82 141.46l8.8-8.8M219.94 141.34l-.87-.87M228.5 132.79l-.87-.88M232.51 136.55l-4.54-4.53M223.71 145.35l-4.53-4.53M220.73 137.57l4-4M219.07 140.47c-.34-.34.4-1.64 1.66-2.9M224.73 133.57c1.26-1.26 2.56-2 2.9-1.66M251.3 168.14l3.99-3.99m0 0 .4-.41m0 0 .36-.42m0 0 .32-.41m0 0 .27-.39m0 0v-.02m.01 0 .21-.36m0 0 .14-.32m0 0v-.02m0 0 .07-.27m0 0v-.03m0 0v-.21m0 0v-.03m0 0v-.03m0 0v-.03m-.01 0-.08-.15m0 0-.02-.02m0 0h-.01m0-.01-1.1-1.1m0 0 1-1m0 0-5.07-5.07m-10.8 10.8 5.07 5.07m0 0 1-1m0 0 1.1 1.1m0 0h.01m0 .01.02.02m0 0 .15.08m0 0h.03m0 .01h.03m0 0h.03m0 0h.21m0 0h.03m0 0 .27-.07m0 0h.03m0 0 .32-.14m0 0 .36-.21m0 0h.02m0-.01.39-.27m0 0 .41-.32m0 0 .42-.36m0 0 .41-.4M255.21 159.25l-8.8 8.8M255.09 159.37l.87.87M246.53 167.93l.87.87M242.52 164.17l4.54 4.53M251.32 155.37l4.54 4.53M254.3 163.14l-4 4M255.96 160.24c.34.34-.4 1.64-1.66 2.9M250.3 167.14c-1.26 1.26-2.56 2-2.9 1.66M252.2 150.36c0 8.11-6.58 14.69-14.69 14.69s-14.69-6.57-14.69-14.69 6.58-14.69 14.69-14.69 14.69 6.58 14.69 14.69Z"/></g><g fill="none" stroke="#6a6a6a" stroke-linecap="round" stroke-linejoin="round" stroke-width=".25"><path d="M212.25 210.39h-15.06m0 0v-15.56m0 0h15.06m0 0v15.56M204.72 200.1v5.02M206.49 200.83l-3.55 3.55M207.23 202.61h-5.03M206.49 204.38l-3.55-3.55"/></g><path fill="none" stroke="#6a6a6a" stroke-linecap="round" stroke-linejoin="round" stroke-width=".25" d="M258.58 241.33h-12.8m0 0-.36.15m0 0-.15.35m0 0v11.55m0 0 .15.35m0 0 .36.15m0 0h12.8m0 0 .35-.15m0 0 .15-.35m0 0v-11.55m0 0-.15-.35m0 0-.35-.15M257.32 242.59h-10.29M246.53 243.09v7.78M247.03 251.37h10.29M257.82 250.87v-7.78"/><path fill="#999" fill-rule="evenodd" d="M257.32 242.59h.07s-.03-.07-.07-.07-.07.03-.07.07.03.07.07.07.07-.03.07-.07h-.07Z"/><path fill="none" stroke="#6a6a6a" stroke-linecap="round" stroke-linejoin="round" stroke-width=".25" d="M246.53 243.09c0-.28.23-.5.5-.5M247.03 251.37c-.28 0-.5-.22-.5-.5M257.82 250.87c0 .28-.22.5-.5.5M257.32 242.59c.28 0 .5.22.5.5M252.4 248.16l-.07-.16m0 0-.16-.07m0 0-.16.07m0 0-.07.16m0 0v4.97m0 0 .07.16m0 0 .16.07m0 0 .16-.07m0 0 .07-.16m0 0v-4.97M252.68 251.85h-.27m0 0v1.28m0 0-.07.16m0 0-.16.07m0 0-.16-.07m0 0-.07-.16m0 0v-1.28m0 0h-.27m0 0v1.63m0 0h1m0 0v-1.63M252.67 250.94h-.27m0 0v.88m0 0h.27m0 0v-.88M251.68 250.94v.88m0 0h.27m0 0v-.88m0 0h-.27M197.19 239.2h80.67m0 0v15.56m0 0h-80.67m0 0V239.2"/><g fill="none" stroke="#6a6a6a" stroke-linecap="round" stroke-linejoin="round" stroke-width=".25"><path d="M263.91 219.92v14.56m0 0h12.3m0 0v-14.56m0 0h-12.3M271.4 227.2h3.52M274.92 227.2v.73M271.4 227.2v.73M271.4 233.08h3.52M274.92 232.35v.73M271.4 232.35v.73M273.3 221.23c1.01 0 1.82.82 1.82 1.82s-.82 1.82-1.82 1.82-1.82-.82-1.82-1.82.81-1.82 1.82-1.82ZM267.83 221.26c1.46 0 2.64 1.18 2.64 2.64s-1.18 2.64-2.64 2.64-2.64-1.18-2.64-2.64 1.18-2.64 2.64-2.64Z"/><path d="M267.83 222.39c.83 0 1.51.67 1.51 1.51s-.67 1.51-1.51 1.51-1.51-.67-1.51-1.51.67-1.51 1.51-1.51ZM273.18 228.38c.97 0 1.76.79 1.76 1.76s-.79 1.76-1.76 1.76-1.76-.79-1.76-1.76.79-1.76 1.76-1.76ZM267.47 228.62c1.25 0 2.26 1.01 2.26 2.26s-1.01 2.26-2.26 2.26-2.26-1.01-2.26-2.26 1.01-2.26 2.26-2.26Z"/></g><g fill="none" stroke="#6a6a6a" stroke-linecap="round" stroke-linejoin="round" stroke-width=".25"><path d="M221.39 248.48c0-1.29 1.05-2.34 2.34-2.34s2.34 1.05 2.34 2.34-1.05 2.34-2.34 2.34-2.34-1.05-2.34-2.34Z"/><path d="M221.75 248.48c0-1.1.89-1.98 1.98-1.98s1.98.89 1.98 1.98-.89 1.98-1.98 1.98-1.98-.89-1.98-1.98ZM226.3 249.06c0-.98.79-1.77 1.77-1.77s1.77.79 1.77 1.77-.79 1.77-1.77 1.77-1.77-.79-1.77-1.77Z"/><path d="M227.07 249.06c0-.55.44-.99.99-.99s.99.44.99.99-.44.99-.99.99-.99-.44-.99-.99ZM220.94 250h.66m0 0v.83m0 0h8.6m0 0V250m0 0h.66M221.95 243.13h6.61m0 0v.33m0 0h-.5m0 0v-.16m0 0h-5.62m0 0v.16m0 0h-.5m0 0v-.33M221.95 243.46l.03.07m.1.21.03.07m.1.21.03.07m.1.21.03.07m.1.21.03.07m.1.21.03.07m.1.21.03.07m.1.21.03.07m.1.21.03.07M228.56 243.46l-.03.07m-.1.21-.03.07m-.1.21-.03.07m-.1.21-.03.07m-.1.21-.03.07m-.1.21-.03.07m-.1.21-.03.07m-.1.21-.03.07m-.1.21-.03.07M221.95 243.46h.05m.08 0h.08m.08 0h.08m.08 0h.05m0 0 .03.04m.15.18.05.06m.15.18.05.06m.15.18.05.06m.15.18.05.06m.15.18.05.06m.15.18.05.06m.15.18.05.06m.15.18.05.06m.15.18.05.06m.15.18.05.06m.15.18.03.04M228.56 243.46h-.05m-.08 0h-.08m-.08 0h-.08m-.08 0h-.05m0 0-.03.04m-.15.18-.05.06m-.15.18-.05.06m-.15.18-.05.06m-.15.18-.05.06m-.15.18-.05.06m-.15.18-.05.06m-.15.18-.05.06m-.15.18-.05.06m-.15.18-.05.06m-.15.18-.05.06m-.15.18-.03.04M233.94 254.76V239.2m0 0h-16.08m0 0v15.56m0 0h16.08"/></g><path fill="none" stroke="#6a6a6a" stroke-linecap="round" stroke-linejoin="round" stroke-width=".25" d="M212.24 194.82v59.93h-15.06v-59.93zM277.85 194.83v59.93h-15.06v-59.93z"/><path fill="none" stroke="#6a6a6a" stroke-dasharray="0 0 3 3" stroke-linecap="round" stroke-linejoin="round" stroke-width=".25" d="M212.24 194.82h50.55"/></g><g id="Walls_Inside" fill="#2d2d2c"><path d="M0 23.32h7.61V268.2H0zM277.76 144.01h8.7v112.33h-8.7z"/><path d="M169.08 261.85v-7.01h117.38v7.01z"/><path d="M169.08 267.24v-7.01h9.83v7.01zM0 144.52v-2.83h60.35v2.83zM92.11 140.03h2.83v26.4h-2.83zM77.44 196.24h2.83v69.85h-2.83zM130.98 196.24h2.83v69.85h-2.83zM194.35 196.24h2.83v61.65h-2.83zM169.08 243.95h2.83v13.94h-2.83z"/><path d="M169.08 246.79v-2.83h26.99v2.83zM177.04 197.66v-2.83h20.14v2.83zM93.08 159.93v-2.83h13.54v2.83zM118.2 197.66v-2.83h15.61v2.83zM55.71 256.25v-2.83h22.9v2.83zM48.75 197.66v-2.83h48.53v2.83zM5.91 197.66v-2.83h21.9v2.83zM131.38 159.93v-2.83h57.2v2.83z"/><path d="M185.75 37.01h2.83v121h-2.83zM92.11 191.17h2.83v5.08h-2.83zM55.7 253.42h2.83v13.13H55.7z"/><path d="M6.3 255.4v-1.98h50.29v1.98zM67.15 196.24h1.98v57.66h-1.98zM78.86 259.41v-1.98h52.81v1.98z"/></g><g id="Walls_Outside"><path fill="none" stroke="#000" stroke-linecap="round" stroke-linejoin="round" stroke-width=".22" d="m111.92 10.13-2.66 10.68M113.22 4.91l-.97 3.91M112.25 8.82l-.33 1.31M164.3 23.19l-2.66 10.69M165.6 17.98l-.97 3.91M164.63 21.89l-.33 1.3"/><path fill="none" stroke="#000" stroke-linecap="round" stroke-linejoin="round" stroke-width=".25" d="M165.6 17.98 113.22 4.91M161.64 33.88l-52.38-13.07M164.3 23.19l-2.99-.75M161.31 22.44l.33-1.3M161.64 21.14l2.99.75M134.7 14.42l1.49.38M136.19 14.8l-.32 1.3M135.87 16.1l-1.5-.37M161.47 21.79l-25.44-6.34M161.31 22.44l-25.44-6.34M136.19 14.8l25.45 6.34M134.37 15.73l-.75-.19M133.62 15.54l.17-.65M133.79 14.89l-.75-.19M133.04 14.7l.16-.65M133.2 14.05l1.5.37M112.25 8.82l2.35.59M114.6 9.41l-.17.65M114.43 10.06l-.58-.14M113.85 9.92l-.17.65M113.68 10.57l-1.76-.44M114.6 9.41l18.6 4.64M131.22 15.63l-14.97-3.73M133.46 16.19l-2.24-.56M131.22 15.63l.32-1.3M131.54 14.33l2.25.56M133.79 14.89l-.33 1.3M113.85 9.92l1.76.43M115.61 10.35l-.33 1.31M115.28 11.66l-1.76-.44M113.52 11.22l.33-1.3M115.61 10.35l15.93 3.98M131.22 15.63l-15.94-3.97M131.38 14.98l-15.93-3.97"/><path fill="none" stroke="#000" stroke-linecap="round" stroke-linejoin="round" stroke-width=".22" d="m164.63 21.89-.33 1.3M164.63 21.89l-.33 1.3M165.6 17.98l-.97 3.91M164.3 23.19l-2.66 10.69M112.25 8.82l-.33 1.31M112.25 8.82l-.33 1.31M113.22 4.91l-.97 3.91M111.92 10.13l-2.66 10.68M165.6 17.98l-3.96 15.9"/><path fill="#2d2d2c" fill-rule="evenodd" d="m97.57 17.9-8-2L93.53 0l19.69 4.91-3.96 15.9-8.01-1.99-3.68-.92z"/><path fill="#2d2d2c" d="m161.639 33.87 3.965-15.903 24.723 6.164-3.965 15.903z"/><path fill="none" stroke="#000" stroke-linecap="round" stroke-linejoin="round" stroke-width=".22" d="m20.89 23.65 2.67 10.69M19.59 18.44l.98 3.91M20.57 22.35l.32 1.3M73.27 10.59l2.67 10.69M71.97 5.38l.98 3.91M72.95 9.29l.32 1.3"/><path fill="none" stroke="#000" stroke-linecap="round" stroke-linejoin="round" stroke-width=".25" d="M71.97 5.38 19.59 18.44M75.94 21.28 23.56 34.34M73.27 10.59l-2.99.75M70.28 11.34l-.32-1.3M69.96 10.04l2.99-.75M43.02 16.75l1.49-.37M44.51 16.38l.33 1.3M44.84 17.68l-1.5.38M70.12 10.69l-25.45 6.34M70.28 11.34l-25.44 6.34M44.51 16.38l25.45-6.34M43.34 18.06l-.75.18M42.59 18.24l-.16-.65M42.43 17.59l-.75.19M41.68 17.78l-.16-.65M41.52 17.13l1.5-.38M20.57 22.35l2.34-.59M22.91 21.76l.17.66M23.08 22.42l-.59.14M22.49 22.56l.16.65M22.65 23.21l-1.76.44M22.91 21.76l18.61-4.63M40.51 19.45l-14.97 3.74M42.75 18.89l-2.24.56M40.51 19.45l-.32-1.3M40.18 18.15l2.25-.56M42.43 17.59l.32 1.3M22.49 22.56l1.76-.44M24.25 22.12l.33 1.31M24.58 23.43l-1.77.44M22.82 23.87l-.33-1.31M24.25 22.12l15.93-3.97M40.51 19.45l-15.93 3.98M40.35 18.8l-15.94 3.97"/><path fill="none" stroke="#000" stroke-linecap="round" stroke-linejoin="round" stroke-width=".22" d="m72.95 9.29.32 1.3M72.95 9.29l.32 1.3M71.97 5.38l.98 3.91M73.27 10.59l2.67 10.69M20.57 22.35l.32 1.3M20.57 22.35l.32 1.3M19.59 18.44l.98 3.91M20.89 23.65l2.67 10.69M71.97 5.38l3.97 15.9"/><path fill="#2d2d2c" fill-rule="evenodd" d="m11.95 37.23-7.96 1.99-3.96-15.9 19.56-4.88 3.96 15.9-7.95 1.98-3.65.91z"/><path fill="#2d2d2c" d="M71.976 5.385 93.546.007 97.51 15.91l-21.57 5.378z"/><path fill="none" stroke="#000" stroke-linecap="round" stroke-linejoin="round" stroke-width=".22" d="m206.56 23.65 2.66 10.69M205.26 18.44l.97 3.91M206.23 22.35l.33 1.3M258.94 10.59l2.66 10.69M257.64 5.38l.98 3.91M258.62 9.29l.32 1.3"/><path fill="none" stroke="#000" stroke-linecap="round" stroke-linejoin="round" stroke-width=".25" d="m257.64 5.38-52.38 13.06M261.6 21.28l-52.38 13.06M258.94 10.59l-2.99.75M255.95 11.34l-.33-1.3M255.62 10.04l3-.75M228.68 16.75l1.5-.37M230.18 16.38l.32 1.3M230.5 17.68l-1.49.38M255.78 10.69l-25.44 6.34M255.95 11.34l-25.45 6.34M230.18 16.38l25.44-6.34M229.01 18.06l-.75.18M228.26 18.24l-.16-.65M228.1 17.59l-.75.19M227.35 17.78l-.16-.65M227.19 17.13l1.49-.38M206.23 22.35l2.35-.59M208.58 21.76l.16.66M208.74 22.42l-.58.14M208.16 22.56l.16.65M208.32 23.21l-1.76.44M208.58 21.76l18.61-4.63M226.18 19.45l-14.97 3.74M228.42 18.89l-2.24.56M226.18 19.45l-.33-1.3M225.85 18.15l2.25-.56M228.1 17.59l.32 1.3M208.16 22.56l1.76-.44M209.92 22.12l.32 1.31M210.24 23.43l-1.76.44M208.48 23.87l-.32-1.31M209.92 22.12l15.93-3.97M226.18 19.45l-15.94 3.98M226.01 18.8l-15.93 3.97"/><path fill="none" stroke="#000" stroke-linecap="round" stroke-linejoin="round" stroke-width=".22" d="m258.62 9.29.32 1.3M258.62 9.29l.32 1.3M257.64 5.38l.98 3.91M258.94 10.59l2.66 10.69M206.23 22.35l.33 1.3M206.23 22.35l.33 1.3M205.26 18.44l.97 3.91M206.56 23.65l2.66 10.69M257.64 5.38l3.96 15.9"/><path fill="#2d2d2c" fill-rule="evenodd" d="m195.66 37.72-9.3 2.32-3.96-15.9 22.86-5.7 3.96 15.9-9.29 2.32-4.27 1.06z"/><path fill="#2d2d2c" d="m257.637 5.375 20.978-5.23 3.965 15.903-20.978 5.23zM92.11 14.03h8.7v129.98h-8.7z"/><path fill="#2d2d2c" d="M277.76 14.03h8.7v129.98h-8.7zM0 271.77v-6.33h135.16v6.33zM163.87 272.34v-6.33h15.04v6.33z"/><path fill="#2d2d2c" fill-rule="evenodd" d="M286.46 2.11 278.62.15l-3.97 15.9 8.38 2.09 3.43.86V2.11z"/></g><g id="Doors"><path fill="none" stroke="#000" stroke-linecap="round" stroke-linejoin="round" stroke-width=".29" d="M137.48 279.49c-1.64-4.46-2.08-6.75-2.32-11.5"/><path fill="#2d2d2c" fill-rule="evenodd" d="m137.52 280.21-.54-1.27 26.48-11.71h.41v1.39l-26.35 11.59z"/><path fill="none" stroke="#000" stroke-linecap="round" stroke-linejoin="round" stroke-width=".29" d="M129.38 148.59c1.41 3.85 1.8 5.82 2 9.92"/><path fill="#2d2d2c" fill-rule="evenodd" d="m129.35 147.97.46 1.09-22.84 10.1h-.35l-.01-1.2 22.74-9.99z"/><path fill="none" stroke="#000" stroke-linecap="round" stroke-linejoin="round" stroke-width=".29" d="M29.51 204.63c-1.19-3.25-1.52-4.92-1.69-8.39"/><path fill="#2d2d2c" fill-rule="evenodd" d="m29.53 205.15-.39-.92 19.31-8.53h.3v1l-19.22 8.45z"/><path fill="none" stroke="#000" stroke-linecap="round" stroke-linejoin="round" stroke-width=".29" d="M116.52 204.63c1.19-3.25 1.52-4.92 1.69-8.39"/><path fill="#2d2d2c" fill-rule="evenodd" d="m116.49 205.15.4-.92-19.31-8.53h-.3v1l19.21 8.45z"/><path fill="none" stroke="#000" stroke-linecap="round" stroke-linejoin="round" stroke-width=".29" d="M84.1 168.4c3.85-1.41 5.82-1.8 9.92-2"/><path fill="#2d2d2c" fill-rule="evenodd" d="m83.48 168.43 1.1-.46 10.09 22.84v.36h-1.19l-10-22.74z"/></g><g id="Sizes"><path d="M42.07 112.26h-.9v-5.41l-.91.56v-.93l.91-.61h.9v6.39ZM43.43 111.48l2.23-2.97c.13-.17.23-.35.3-.53.07-.18.11-.35.11-.51 0-.26-.07-.46-.22-.6s-.36-.21-.64-.21c-.26 0-.47.08-.63.23-.16.15-.26.37-.29.65s-.93 0-.93 0c.05-.37.16-.68.32-.94.16-.26.37-.46.63-.59.26-.14.55-.2.89-.2.38 0 .71.07.98.2s.47.32.62.57.21.55.21.9c0 .23-.05.47-.14.71s-.22.48-.39.71l-1.85 2.51h2.42v.85h-3.6v-.78ZM48.09 111.36h.9v.9l-.9.89v-1.78ZM51.76 112.26h-.9v-5.41l-.91.56v-.93l.91-.61h.9v6.39ZM55.47 109.08v.16c-.08.13-.19.23-.34.3-.15.06-.32.09-.53.09-.3 0-.57-.08-.8-.23s-.41-.37-.54-.66c-.13-.28-.19-.61-.19-.98 0-.42.07-.77.21-1.06.14-.29.34-.52.61-.67.27-.15.59-.23.96-.23s.7.08.96.23.47.38.61.68c.14.3.21.65.21 1.07 0 .23-.03.48-.09.74s-.14.52-.25.77c-.02.04-.04.08-.05.12l-.06.12-1.36 2.74h-.97l1.61-3.17Zm.04-.55c.15-.19.23-.46.23-.8s-.08-.6-.23-.79c-.15-.18-.37-.28-.65-.28s-.5.09-.66.28c-.15.18-.23.45-.23.79 0 .35.08.62.23.81.15.19.37.28.66.28s.5-.1.65-.29ZM135.56 113.33h-.9v-5.41l-.91.56v-.93l.91-.61h.9v6.39ZM137.72 113.2c-.27-.13-.49-.32-.66-.57a1.97 1.97 0 0 1-.31-.89h.91c.03.18.08.33.17.45s.2.2.34.26.3.09.49.09c.3 0 .53-.08.69-.24s.25-.38.25-.67v-.19c0-.32-.08-.57-.23-.74-.16-.17-.38-.26-.66-.26h-.45v-.85h.45c.25 0 .44-.07.58-.22s.21-.36.21-.63v-.2c0-.25-.07-.45-.22-.58-.15-.14-.35-.21-.62-.21-.15 0-.29.03-.41.09s-.22.15-.31.26c-.08.12-.14.27-.18.45h-.91c.06-.35.17-.65.33-.9s.37-.44.62-.57.53-.19.86-.19c.55 0 .98.15 1.28.44s.45.7.45 1.23v.11c0 .32-.09.6-.26.83s-.42.41-.73.52c.35.08.62.25.81.51.19.27.29.61.29 1.02v.11c0 .37-.07.69-.21.95s-.35.46-.63.6c-.27.14-.6.21-.99.21-.36 0-.67-.07-.95-.2ZM141.69 112.44h.9v.9l-.9.89v-1.78ZM146.08 110.16v.16c-.08.13-.19.23-.34.3-.15.06-.32.09-.52.09-.3 0-.57-.08-.8-.23s-.41-.37-.54-.66c-.13-.28-.19-.61-.19-.98 0-.42.07-.77.21-1.06.14-.29.34-.52.61-.67.27-.15.59-.23.96-.23s.7.08.96.23.47.38.61.68c.14.3.21.65.21 1.07 0 .23-.03.48-.09.74s-.14.52-.25.77c-.02.04-.04.08-.05.12l-.06.12-1.36 2.74h-.97l1.61-3.17Zm.04-.55c.15-.19.23-.46.23-.8s-.08-.6-.23-.79c-.15-.18-.37-.28-.65-.28s-.5.09-.66.28c-.15.18-.23.45-.23.79 0 .35.08.62.23.81.15.19.37.28.66.28s.5-.1.65-.29ZM149.97 113.33h-.9v-5.41l-.91.56v-.93l.91-.61h.9v6.39ZM229.59 48.14h-.9v-5.41l-.91.56v-.93l.91-.61h.9v6.39ZM231.9 47.98c-.29-.15-.52-.35-.68-.62a1.79 1.79 0 0 1-.24-.93v-.11c0-.32.08-.62.24-.9.16-.28.37-.49.64-.64-.23-.12-.41-.3-.54-.53-.14-.23-.2-.48-.2-.74v-.15c0-.33.07-.63.22-.88s.36-.45.63-.59c.27-.14.59-.21.95-.21s.68.07.95.21c.27.14.48.34.63.59.15.25.22.55.22.88v.15c0 .26-.07.51-.21.74a1.4 1.4 0 0 1-.55.53c.27.15.49.36.65.64.16.28.24.58.24.9v.11c0 .35-.08.67-.24.93-.16.27-.39.48-.68.62s-.63.22-1.02.22-.73-.07-1.02-.22Zm1.57-.76c.16-.08.28-.2.37-.35.09-.15.13-.32.13-.51v-.06c0-.2-.04-.37-.13-.52-.09-.15-.21-.26-.37-.34s-.34-.12-.55-.12-.39.04-.55.12-.28.2-.37.35a.98.98 0 0 0-.13.52v.07c0 .19.04.36.13.51.09.15.21.26.37.34s.34.12.55.12.39-.04.55-.12Zm-.08-2.88c.14-.08.25-.19.32-.33s.11-.31.11-.5v-.06c0-.18-.04-.34-.11-.47s-.18-.24-.32-.32c-.14-.07-.3-.11-.47-.11s-.34.04-.47.11c-.14.08-.24.18-.32.32s-.11.3-.11.48v.07c0 .18.04.35.11.49.08.14.18.25.32.33s.3.12.47.12.34-.04.47-.12ZM236.02 47.24h.9v.9l-.9.89v-1.78ZM238.83 47.98c-.27-.15-.47-.37-.61-.66-.14-.29-.21-.64-.21-1.04a3.99 3.99 0 0 1 .32-1.52c.02-.04.04-.09.06-.13l.06-.12 1.39-2.75h.97l-1.63 3.19v-.16c.08-.14.18-.24.33-.32s.3-.11.49-.11c.33 0 .62.07.85.22s.42.37.54.65c.12.29.18.63.18 1.03 0 .41-.07.77-.21 1.06-.14.29-.34.52-.61.67-.27.15-.59.23-.96.23s-.7-.08-.96-.23Zm1.62-.9c.15-.18.23-.43.23-.75 0-.36-.08-.64-.24-.83-.16-.19-.39-.29-.69-.29-.27 0-.47.1-.62.29s-.22.47-.22.83c0 .33.08.58.23.75.15.17.37.26.65.26s.5-.09.66-.26ZM246.06 42.55l-1.65 5.59h-.95l1.65-5.54h-1.63v.92h-.9v-1.77h3.48v.8ZM226.54 227.04c-.27-.15-.47-.37-.61-.66-.14-.29-.21-.64-.21-1.04a3.99 3.99 0 0 1 .32-1.52c.02-.04.04-.09.06-.13l.06-.12 1.39-2.75h.97l-1.63 3.19v-.16c.08-.14.18-.24.33-.32s.3-.11.49-.11c.33 0 .62.07.85.22s.42.37.54.65c.12.29.18.63.18 1.03 0 .41-.07.77-.21 1.06-.14.29-.34.52-.61.67-.27.15-.59.23-.96.23s-.7-.08-.96-.23Zm1.62-.9c.15-.18.23-.43.23-.75 0-.36-.08-.64-.24-.83-.16-.19-.39-.29-.69-.29-.27 0-.47.1-.62.29s-.22.47-.22.83c0 .33.08.58.23.75.15.17.37.26.65.26s.5-.09.66-.26ZM230.39 226.3h.9v.9l-.9.89v-1.78ZM232.98 226.79c-.31-.32-.46-.76-.46-1.34v-2.9c0-.57.16-1.02.47-1.34.31-.32.76-.48 1.36-.48s1.05.16 1.36.47c.31.32.46.76.46 1.34v2.9c0 .57-.16 1.02-.47 1.34-.31.32-.76.48-1.36.48s-1.05-.16-1.36-.48Zm2.06-.62c.15-.17.23-.4.23-.71v-2.9c0-.31-.07-.55-.22-.71-.15-.17-.38-.25-.7-.25s-.55.08-.7.25c-.15.17-.22.4-.22.71v2.9c0 .31.08.55.23.71.15.17.38.25.7.25s.55-.08.7-.25ZM239.02 227.2h-.9v-5.41l-.91.56v-.93l.91-.61h.9v6.39ZM149.94 227.05c-.29-.15-.52-.35-.68-.62a1.79 1.79 0 0 1-.24-.93v-.11c0-.32.08-.62.24-.9.16-.28.37-.49.64-.64-.23-.12-.41-.3-.54-.53-.14-.23-.21-.48-.21-.74v-.15c0-.33.08-.63.22-.88.15-.25.36-.45.63-.59.27-.14.59-.21.95-.21s.68.07.95.21c.27.14.48.34.63.59.15.25.22.55.22.88v.15c0 .26-.07.51-.21.74a1.4 1.4 0 0 1-.55.53c.27.15.49.36.65.64.16.28.24.58.24.9v.11c0 .35-.08.67-.24.93-.16.27-.39.48-.68.62s-.63.22-1.02.22-.73-.07-1.02-.22Zm1.57-.76c.16-.08.28-.2.37-.35.09-.15.13-.32.13-.51v-.06c0-.2-.04-.37-.13-.52-.09-.15-.21-.26-.37-.34s-.34-.12-.55-.12-.39.04-.55.12-.28.2-.37.35a.98.98 0 0 0-.13.52v.07c0 .19.04.36.13.51.09.15.21.26.37.34s.34.12.55.12.39-.04.55-.12Zm-.07-2.88c.14-.08.24-.19.32-.33s.11-.31.11-.5v-.06c0-.18-.04-.34-.11-.47s-.18-.24-.32-.32c-.14-.07-.3-.11-.47-.11s-.34.04-.47.11c-.14.08-.25.18-.32.32s-.11.3-.11.48v.07c0 .18.04.35.11.49.08.14.18.25.32.33s.3.12.47.12.34-.04.47-.12ZM154.06 226.3h.9v.9l-.9.89v-1.78ZM156.87 227.04c-.27-.15-.47-.37-.61-.66-.14-.29-.21-.64-.21-1.04a3.99 3.99 0 0 1 .32-1.52c.02-.04.04-.09.06-.13l.06-.12 1.39-2.75h.97l-1.63 3.19v-.16c.08-.14.18-.24.33-.32s.3-.11.49-.11c.33 0 .62.07.85.22s.42.37.54.65c.12.29.18.63.18 1.03 0 .41-.07.77-.21 1.06-.14.29-.34.52-.61.67-.27.15-.59.23-.96.23s-.7-.08-.96-.23Zm1.62-.9c.15-.18.23-.43.23-.75 0-.36-.08-.64-.24-.83-.16-.19-.39-.29-.69-.29-.27 0-.47.1-.62.29s-.22.47-.22.83c0 .33.08.58.23.75.15.17.37.26.65.26s.5-.09.66-.26ZM160.72 225.44l2.14-4.63h.92l-2.09 4.57h3.13v.83h-4.11v-.78Zm2.76-2h.87v3.76h-.87v-3.76ZM34.61 180.29a1.61 1.61 0 0 1-.61-.55c-.16-.24-.26-.53-.31-.87s.9 0 .9 0c.03.24.13.42.28.55.16.13.36.2.61.2.29 0 .51-.1.67-.29.16-.19.23-.46.23-.81v-.54c0-.35-.08-.61-.23-.81-.16-.19-.38-.29-.67-.29-.16 0-.3.04-.45.13s-.27.21-.38.37h-.82v-3.37h3.26v.85h-2.36v1.44c.11-.09.24-.16.37-.21s.28-.07.42-.07c.37 0 .68.08.95.23s.46.38.6.67c.14.29.2.65.2 1.06v.54c0 .41-.07.77-.21 1.06s-.35.52-.62.67c-.27.15-.59.23-.97.23-.32 0-.61-.06-.86-.19ZM38.5 179.52h.9v.9l-.9.89v-1.78ZM40.54 178.66l2.14-4.63h.92l-2.09 4.57h3.13v.83h-4.11v-.78Zm2.75-2h.88v3.76h-.88v-3.76ZM46.67 180.29a1.61 1.61 0 0 1-.61-.55c-.16-.24-.26-.53-.31-.87s.9 0 .9 0c.03.24.12.42.28.55.15.13.36.2.61.2.29 0 .51-.1.67-.29s.24-.46.24-.81v-.54c0-.35-.08-.61-.24-.81s-.38-.29-.67-.29c-.15 0-.3.04-.45.13-.14.09-.27.21-.38.37h-.82v-3.37h3.26v.85h-2.36v1.44c.11-.09.24-.16.37-.21s.28-.07.42-.07c.37 0 .68.08.95.23.26.15.46.38.6.67s.2.65.2 1.06v.54c0 .41-.07.77-.21 1.06s-.35.52-.62.67c-.27.15-.59.23-.97.23-.32 0-.61-.06-.86-.19ZM99.48 225.44l2.14-4.63h.92l-2.09 4.57h3.13v.83h-4.11v-.78Zm2.76-2h.87v3.76h-.87v-3.76ZM104.6 226.3h.9v.9l-.9.89v-1.78ZM106.63 226.42l2.23-2.97c.13-.17.23-.35.3-.53.07-.18.11-.35.11-.51 0-.26-.08-.46-.22-.6s-.36-.21-.64-.21c-.26 0-.47.08-.63.23-.16.15-.26.37-.29.65s-.93 0-.93 0c.05-.37.16-.68.32-.94.16-.26.37-.46.63-.59.26-.14.56-.2.89-.2.38 0 .71.07.98.2s.47.32.62.57.21.55.21.9c0 .23-.05.47-.14.71s-.22.48-.39.71l-1.85 2.51h2.42v.85h-3.6v-.78ZM114.68 221.61l-1.65 5.59h-.95l1.65-5.54h-1.63v.92h-.9v-1.77h3.48v.8ZM34.83 227.08a1.61 1.61 0 0 1-.61-.55c-.16-.24-.26-.53-.31-.87s.9 0 .9 0c.03.24.13.42.28.55.16.13.36.2.61.2.29 0 .51-.1.67-.29.16-.19.23-.46.23-.81v-.54c0-.35-.08-.61-.23-.81-.16-.19-.38-.29-.67-.29-.16 0-.3.04-.45.13s-.27.21-.38.37h-.82v-3.37h3.26v.85h-2.36v1.44c.11-.09.24-.16.37-.21s.28-.07.42-.07c.37 0 .68.08.95.23s.46.38.6.67c.14.29.2.65.2 1.06v.54c0 .41-.07.77-.21 1.06s-.35.52-.62.67c-.27.15-.59.23-.97.23-.32 0-.61-.06-.86-.19ZM38.72 226.3h.9v.9l-.9.89v-1.78ZM41.53 227.04c-.27-.15-.47-.37-.61-.66-.14-.29-.21-.64-.21-1.04a3.99 3.99 0 0 1 .32-1.52c.02-.04.04-.09.06-.13l.06-.12 1.39-2.75h.97l-1.63 3.19v-.16c.08-.14.18-.24.33-.32s.3-.11.49-.11c.33 0 .62.07.85.22s.42.37.54.65c.12.29.18.63.18 1.03 0 .41-.07.77-.21 1.06-.14.29-.34.52-.61.67-.27.15-.59.23-.96.23s-.7-.08-.96-.23Zm1.62-.9c.15-.18.23-.43.23-.75 0-.36-.08-.64-.24-.83-.16-.19-.39-.29-.69-.29-.27 0-.47.1-.62.29s-.22.47-.22.83c0 .33.08.58.23.75.15.17.37.26.65.26s.5-.09.66-.26ZM45.93 226.79c-.31-.32-.46-.76-.46-1.34v-2.9c0-.57.16-1.02.47-1.34.31-.32.76-.48 1.36-.48s1.05.16 1.36.47c.31.32.46.76.46 1.34v2.9c0 .57-.16 1.02-.47 1.34-.31.32-.76.48-1.36.48s-1.05-.16-1.36-.48Zm2.06-.62c.15-.17.23-.4.23-.71v-2.9c0-.31-.07-.55-.22-.71-.15-.17-.38-.25-.7-.25s-.55.08-.7.25c-.15.17-.22.4-.22.71v2.9c0 .31.08.55.23.71.15.17.38.25.7.25s.55-.08.7-.25Z"/></g></svg>