<svg xmlns="http://www.w3.org/2000/svg" viewBox="0 0 304.48 339.59"><defs><pattern id="_Новый_узор_4" width="9.82" height="9.82" x="0" y="0" patternTransform="matrix(1.05 0 0 1.03 -473.24 1071.76)" patternUnits="userSpaceOnUse"><g fill="none"><path d="M0 0h9.82v9.82H0z"/><g fill-rule="evenodd" stroke-linecap="round" stroke-width=".25" clip-path="url(#clippath)"><path stroke="#e6e6e6" stroke-linejoin="round" d="m14.73 19.65-4.91-4.92 4.91-4.91 4.91 4.91-4.91 4.92zM4.91 19.65 0 14.73l4.91-4.91 4.91 4.91-4.91 4.92zM-4.91 19.65l-4.91-4.92 4.91-4.91L0 14.73l-4.91 4.92z"/><path stroke="#e6e6e6" stroke-linejoin="round" d="M14.73 9.82 9.82 4.91 14.73 0l4.91 4.91-4.91 4.91z"/><path stroke="#999" stroke-miterlimit="3" d="M4.91 9.82 0 4.91 4.91 0l4.91 4.91-4.91 4.91z"/><path stroke="#e6e6e6" stroke-linejoin="round" d="m-4.91 9.82-4.91-4.91L-4.91 0 0 4.91l-4.91 4.91zM14.73 0 9.82-4.91l4.91-4.91 4.91 4.91L14.73 0zM4.91 0 0-4.91l4.91-4.91 4.91 4.91L4.91 0zM-4.91 0l-4.91-4.91 4.91-4.91L0-4.91-4.91 0z"/></g></g></pattern><pattern id="_Новый_узор_2" width="22.92" height="23.17" x="0" y="0" patternTransform="matrix(.7 0 0 .67 -3222.28 -2037.46)" patternUnits="userSpaceOnUse"><g fill="none"><path d="M0 0h22.92v23.17H0z"/><path stroke="#b5b5b5" stroke-miterlimit="10" stroke-width=".25" d="M22.69 17.61v11.12H.23V17.61h22.46m.11-.11H.12v11.34H22.8V17.5ZM22.69 6.03v11.12H.23V6.03h22.46m.11-.11H.12v11.34H22.8V5.92ZM22.69-5.56V5.56H.23V-5.56h22.46m.11-.11H.12V5.67H22.8V-5.67Z"/></g></pattern><clipPath id="clippath"><path fill="none" d="M0 0h9.82v9.82H0z"/></clipPath></defs><g id="Flats"><path id="fl59" fill="#fff" d="m280.81 124.73 11.9-35.09L287.92 67V29.46l3.5-15.33-26.33-4.05-35.32 12.04-52.6 12.14-53.79.31-52.61-12.15-12.47-7.68V190.72H33.59v1.45H5.34v78.39h28.25v60.67H171.2V291.5h52.24l.77 1.18 35.77-1.18h5.11v-.17l14.42-.48-7.82-26.74 9.47-53.66 7.65-19.6-17-24.62 9-41.5z"/></g><g id="Grid"><path fill="url(#_Новый_узор_4)" d="M7.01 194.25h48.5v63.93H7.01z"/><path fill="url(#_Новый_узор_2)" fill-rule="evenodd" d="M283.95 110.48h-86.32v68.81h63.38v-9.69h10.12l12.82-59.12z"/></g><g id="Mebel"><g fill="none" stroke="#6a6a6a" stroke-linecap="round" stroke-linejoin="round" stroke-width=".25"><path d="M119.58 317.55v13.7m0 0h45.34m0 0v-13.7m0 0h-45.34M164.92 324.51v.44m0 0h-45.34m0 0v-.44m0 0h45.34M124.12 330.1v-10.72m0 0h.46m0 0v10.72m0 0h-.46M125.35 330.1v-10.72m0 0h.46m0 0v10.72m0 0h-.46M126.57 330.1v-10.72m0 0h.46m0 0v10.72m0 0h-.46M127.79 330.1v-10.72m0 0h.46m0 0v10.72m0 0h-.46M130.39 330.03l-1.37-10.64m0 0 .46-.05m0 0 1.37 10.64m0 0-.46.05"/></g><g fill="none" stroke="#6a6a6a" stroke-linecap="round" stroke-linejoin="round" stroke-width=".25"><path d="M144.72 125.56v16.36m0 0H98.2m0 0v-16.36m0 0h46.52M98.19 133.87v.52m0 0h46.52m0 0v-.52m0 0H98.19M139.3 140.55v-12.8m0 0h-.55m0 0v12.8m0 0h.55M137.83 140.55v-12.8m0 0h-.55m0 0v12.8m0 0h.55M136.37 140.55v-12.8m0 0h-.55m0 0v12.8m0 0h.55M134.91 140.55v-12.8m0 0h-.55m0 0v12.8m0 0h.55M131.81 140.45l1.63-12.71m0 0-.55-.06m0 0-1.63 12.71m0 0 .55.06"/></g><g fill="none" stroke="#6a6a6a" stroke-linecap="round" stroke-linejoin="round" stroke-width=".25"><path d="M164.92 291.37h-11.54m0 0v26.18m0 0h11.54m0 0v-26.18M159.06 317.55h-.37m0 0v-26.18m0 0h.37m0 0v26.18M154.35 295.19h9.03m0 0v.39m0 0h-9.03m0 0v-.39M154.35 296.23h9.03m0 0v.39m0 0h-9.03m0 0v-.39M154.35 297.26h9.03m0 0v.39m0 0h-9.03m0 0v-.39M154.35 298.29h9.03m0 0v.39m0 0h-9.03m0 0v-.39M154.41 300.47l8.96-1.15m0 0 .04.39m0 0-8.96 1.15m0 0-.04-.39"/></g><g fill="none" stroke="#6a6a6a" stroke-linecap="round" stroke-linejoin="round" stroke-width=".25"><path d="M39.72 317.55v13.7m0 0h77.03m0 0v-13.7m0 0H39.72M116.75 324.51v.44m0 0H39.72m0 0v-.44m0 0h77.03M44.26 330.1v-10.72m0 0h.46m0 0v10.72m0 0h-.46M45.48 330.1v-10.72m0 0h.46m0 0v10.72m0 0h-.46M46.71 330.1v-10.72m0 0h.46m0 0v10.72m0 0h-.46M47.93 330.1v-10.72m0 0h.46m0 0v10.72m0 0h-.46M50.52 330.03l-1.37-10.64m0 0 .46-.05m0 0 1.37 10.64m0 0-.46.05"/></g><g fill="none" stroke="#6a6a6a" stroke-linecap="round" stroke-linejoin="round" stroke-width=".25"><path d="M209.48 101.5c0 1.36-1.1 2.46-2.46 2.46s-2.46-1.1-2.46-2.46 1.1-2.46 2.46-2.46 2.46 1.1 2.46 2.46Z"/><path d="M207.76 101.5c0 .41-.33.74-.74.74s-.74-.33-.74-.74.33-.74.74-.74.74.33.74.74ZM267.26 101.5c0 1.36-1.1 2.46-2.46 2.46s-2.46-1.1-2.46-2.46 1.1-2.46 2.46-2.46 2.46 1.1 2.46 2.46Z"/><path d="M265.54 101.5c0 .41-.33.74-.74.74s-.74-.33-.74-.74.33-.74.74-.74.74.33.74.74ZM213.78 56.01h44.26m0 0v49.18m0 0h-44.26m0 0V56.01M215.01 54.78h41.8m0 0 .47.09m0 0 .4.27m0 0 .27.4m0 0 .09.47m0 0h-44.26m0 0 .09-.47m0 0 .27-.4m0 0 .4-.27m0 0 .47-.09M213.78 107.64h44.26m0 0v-2.46m0 0h-44.26m0 0v2.46M258.04 107.64h-44.26m0 0v-1.23m0 0h44.26m0 0v1.23M259.27 107.64h11.06m0 0V95.35m0 0h-11.06m0 0v12.29M212.55 107.64h-11.06m0 0V95.35m0 0h11.06m0 0v12.29M239.84 103.96h16.72m0 0 .17-.07m0 0 .07-.17m0 0v-8.11m0 0-.07-.17m0 0-.17-.07m0 0h-16.72m0 0-.17.07m0 0-.07.17m0 0v8.11m0 0 .07.17m0 0 .17.07M231.98 103.96h-16.72m0 0-.17-.07m0 0-.07-.17m0 0v-8.11m0 0 .07-.17m0 0 .17-.07m0 0h16.72m0 0 .17.07m0 0 .07.17m0 0v8.11m0 0-.07.17m0 0-.17.07M213.78 96.01h1.23M232.22 96.01h7.38M256.81 96.01h1.23M213.78 92.76h44.26m0 0V80.6m0 0-44.26 9.7m0 0v2.46M204.62 102.06l2.39-.56m0 0 1.03-2.23m0 0-1.03 2.23m0 0 .85 2.31M267.19 102.06l-2.39-.56m0 0-1.03-2.23m0 0 1.03 2.23m0 0-.85 2.31"/></g><g fill="none" stroke="#6a6a6a" stroke-linecap="round" stroke-linejoin="round" stroke-width=".25"><path d="M81.7 72.8v4.39m0 0v.45m0 0-.03.43m0 0-.05.4m0 0-.07.36m0 0h0m0 .01-.08.32m0 0-.1.26m0 0v.02m0 0-.11.19m0 0v.02m-.01 0-.12.12m0 0h-.02m0 .01h-.02m0 .01h-.02m0 0-.12.04m0 0h-.02m0 0h-.01m0 0h-1.21m0 0v1.1m0 0h-4.16m0-11.88h4.16m0 0v1.1m0 0h1.21m0 0h.01m0 0h.02m0 0 .12.04m0 0h.02m0 0h.02m0 .01h.02m0 .01.12.12m0 0v.02m.01 0 .11.19m0 0v.02m0 0 .1.26m0 0 .09.32m0 0h0m0 .01.07.36m0 0 .05.4m0 0 .03.43m0 0v.45M78.96 79.83v-9.68M78.96 79.7h.96M78.96 70.29h.96M75.52 70.15h4.16M75.52 79.83h4.16M80.61 77.19v-4.4M79.92 79.7c.38 0 .68-1.12.68-2.51M80.61 72.8c0-1.39-.31-2.51-.69-2.51M59.38 98.79V56.21h16.08v42.58z"/></g><g fill="none" stroke="#6a6a6a" stroke-linecap="round" stroke-linejoin="round" stroke-width=".25"><path d="M120.12 50.13h24.6m0 0v54.93m0 0h-24.6m0 0V50.13M121.49 48.76h21.85m0 0 .53.1m0 0 .45.3m0 0 .3.45m0 0 .1.53m0 0h-24.6m0 0 .1-.53m0 0 .3-.45m0 0 .45-.3m0 0 .53-.1M120.12 107.81h24.6m0 0v-2.75m0 0h-24.6m0 0v2.75M144.72 107.81h-24.6m0 0v-1.37m0 0h24.6m0 0v1.37M141.71 103.69h-18.67m0 0-.19-.08m0 0-.08-.19m0 0v-9.06m0 0 .08-.19m0 0 .19-.08m0 0h18.67m0 0 .19.08m0 0 .08.19m0 0v9.06m0 0-.08.19m0 0-.19.08M120.12 94.82h2.64M141.98 94.82h2.7M120.12 91.18h24.6m0 0V77.6m0 0-24.6 10.83m0 0v2.75"/></g><g fill="none" stroke="#6a6a6a" stroke-linecap="round" stroke-linejoin="round" stroke-width=".25"><path d="M148.08 271.57h-16.42m0 0v16.97m0 0h16.42m0 0v-16.97M139.87 282.79v-5.48M141.81 281.99l-3.87-3.87M142.61 280.05h-5.47M141.81 278.12l-3.87 3.87"/></g><path fill="none" stroke="#6a6a6a" stroke-linecap="round" stroke-linejoin="round" stroke-width=".25" d="M163.87 273.89h-13.96m0 0-.39.16m0 0-.16.39m0 0v12.59m0 0 .16.39m0 0 .39.16m0 0h13.96m0 0 .39-.16m0 0 .16-.39m0 0v-12.59m0 0-.16-.39m0 0-.39-.16M162.5 275.26h-11.22M150.74 275.81v8.48M151.28 284.84h11.22M163.05 284.29v-8.48"/><path fill="#999" fill-rule="evenodd" d="M162.5 275.26h.08s-.03-.08-.08-.08-.08.03-.08.08.03.08.08.08.08-.03.08-.08h-.08Z"/><path fill="none" stroke="#6a6a6a" stroke-linecap="round" stroke-linejoin="round" stroke-width=".25" d="M150.74 275.81c0-.3.25-.55.55-.55M151.28 284.84c-.3 0-.55-.24-.55-.55M163.05 284.29c0 .3-.24.55-.55.55M162.5 275.26c.3 0 .55.24.55.55M157.14 281.34l-.07-.17m0 0-.17-.07m0 0-.17.07m0 0-.07.17m0 0v5.41m0 0 .07.17m0 0 .17.07m0 0 .17-.07m0 0 .07-.17m0 0v-5.42M157.44 285.36h-.3m0 0v1.4m0 0-.07.17m0 0-.17.07m0 0-.17-.07m0 0-.07-.17m0 0v-1.4m0 0h-.3m0 0v1.78m0 0h1.09m0 0v-1.78M157.43 284.37h-.29m0 0v.96m0 0h.29m0 0v-.96M156.35 284.37v.96m0 0h.29m0 0v-.96m0 0h-.29M131.66 271.57h71.22m0 0v16.97m0 0h-71.22m0 0v-16.97"/><g fill="none" stroke="#6a6a6a" stroke-linecap="round" stroke-linejoin="round" stroke-width=".25"><path d="M200.43 273.35h-15.87m0 0v13.41m0 0h15.87m0 0v-13.41M192.49 281.52v3.83M192.49 285.35h-.79M192.49 281.52h-.79M186.08 281.52v3.83M186.88 285.35h-.8M186.88 281.52h-.8M199 283.59c0 1.1-.89 1.98-1.98 1.98s-1.98-.89-1.98-1.98.89-1.98 1.98-1.98 1.98.89 1.98 1.98ZM198.97 277.62c0 1.59-1.29 2.87-2.87 2.87s-2.87-1.29-2.87-2.87 1.29-2.87 2.87-2.87 2.87 1.29 2.87 2.87Z"/><path d="M197.74 277.62c0 .91-.74 1.64-1.64 1.64s-1.64-.74-1.64-1.64a1.641 1.641 0 0 1 3.28 0ZM191.2 283.46a1.92 1.92 0 1 1-3.841-.001 1.92 1.92 0 0 1 3.841.001ZM190.94 277.24c0 1.36-1.1 2.46-2.46 2.46s-2.46-1.1-2.46-2.46 1.1-2.46 2.46-2.46 2.46 1.1 2.46 2.46Z"/></g><g fill="none" stroke="#6a6a6a" stroke-linecap="round" stroke-linejoin="round" stroke-width=".25"><path d="M169.49 281.64c0-1.36 1.11-2.47 2.47-2.47s2.47 1.11 2.47 2.47-1.11 2.47-2.47 2.47-2.47-1.11-2.47-2.47Z"/><path d="M169.86 281.64a2.09 2.09 0 1 1 4.178-.002 2.09 2.09 0 0 1-4.178.002ZM174.66 282.24c0-1.03.84-1.87 1.87-1.87s1.87.84 1.87 1.87-.84 1.87-1.87 1.87-1.87-.84-1.87-1.87Z"/><path d="M175.48 282.24a1.05 1.05 0 1 1 2.1 0 1.05 1.05 0 0 1-2.1 0ZM169.01 283.24h.7m0 0v.87m0 0h9.07m0 0v-.87m0 0h.7M170.07 275.99h6.98m0 0v.35m0 0h-.52m0 0v-.17m0 0h-5.93m0 0v.17m0 0h-.52m0 0v-.35M170.07 276.34l.03.08m.1.22.03.07m.1.22.03.07m.1.22.03.07m.1.22.03.07m.1.22.03.07m.1.22.03.07m.1.22.03.07m.1.22.03.08M177.05 276.34l-.03.08m-.1.22-.03.07m-.1.22-.03.07m-.1.22-.03.07m-.1.22-.03.07m-.1.22-.03.07m-.1.22-.03.07m-.1.22-.03.07m-.1.22-.03.08M170.07 276.34h.06m.08 0h.08m.08 0h.08m.08 0h.06m0 0 .03.04m.16.19.05.06m.16.19.05.06m.16.19.05.06m.16.19.05.06m.16.19.05.06m.16.19.05.06m.15.19.05.06m.16.19.05.06m.16.19.05.06m.16.19.05.06m.16.19.03.04M177.05 276.34h-.06m-.08 0h-.08m-.08 0h-.08m-.08 0h-.06m0 0-.03.04m-.16.19-.05.06m-.15.19-.05.06m-.16.19-.05.06m-.15.19-.05.06m-.16.19-.05.06m-.16.19-.05.06m-.15.19-.05.06m-.16.19-.05.06m-.15.19-.05.06m-.16.19-.05.06m-.16.19-.03.04M182.45 271.57h-16.42m0 0v16.97m0 0h16.42m0 0v-16.97"/></g><g fill="none" stroke="#6a6a6a" stroke-linecap="round" stroke-linejoin="round" stroke-width=".25"><path d="M260.21 204.71h-43.82m0 0v-8.66m0 0h43.82m0 0v8.66M260.21 204.28h-43.82M238.3 204.71v-.43M260.21 204.71v-.43M223.84 199.63v-.58m0 0h25.41m0 0v.58m0 0h-25.41M224.64 199.05l-.41-1.95m0 0-.39.08m0 0 .39 1.87m0 0h.41M229.4 199.05v-.48m0 0 .09-.32m0 0 .24-.24m0 0 .33-.09m0 0h13m0 0 .32.09m0 0 .24.24m0 0 .09.32m0 0v.48m0 0h-14.3M224.64 199.83l-.41 1.95m0 0-.39-.08m0 0 .39-1.87m0 0h.41M248.45 199.05l.41-1.95m0 0 .39.08m0 0-.39 1.87m0 0h-.41M248.45 199.8l.41 1.95m0 0 .39-.08m0 0-.39-1.87m0 0h-.41M223.84 199.8v-.17m0 0h25.41m0 0v.17m0 0h-25.41"/></g><path fill="none" stroke="#6a6a6a" stroke-linecap="round" stroke-linejoin="round" stroke-width=".25" d="M255.33 215.57v16.88h-34.06v-16.88z"/><g fill="none" stroke="#6a6a6a" stroke-linecap="round" stroke-linejoin="round" stroke-width=".25"><path d="M268.39 264.19h2.42M271.25 264.63v23.28M270.81 288.35h-2.42M267.95 287.91v-23.28M268.39 288.35h-19.11M249.28 288.35v-1.53M249.28 282.67v-1.32M249.94 264.19h17.36M267.95 264.85v16.5M267.3 282.01h-17.36M249.28 281.35v-16.5M249.94 287.47h17.36M267.95 286.82v-4.15M267.3 282.01h-17.36M249.28 282.67v4.15M267.3 284.4h-17.36M270.81 264.19c.24 0 .44.2.44.44M271.25 287.91c0 .24-.2.44-.44.44M268.39 288.35c-.24 0-.44-.2-.44-.44M267.95 264.63c0-.24.2-.44.44-.44M267.3 264.19c.36 0 .66.3.66.66M267.95 281.35c0 .36-.29.66-.66.66M249.94 282.01a.66.66 0 0 1-.66-.66M249.28 264.85c0-.36.3-.66.66-.66M267.95 286.82c0 .36-.29.66-.66.66"/><path d="M267.3 282.01c.36 0 .66.29.66.66M249.28 282.67c0-.36.3-.66.66-.66M249.94 287.47a.66.66 0 0 1-.66-.66M267.3 284.4c.36 0 .66.29.66.66M249.28 285.06c0-.36.3-.66.66-.66M249.28 288.35h-21.96M249.28 288.35v-1.53M227.32 288.35v-1.53M249.28 282.67v-1.32M227.32 282.67v-1.32M227.98 264.19h20.65M249.28 264.85v16.5M248.63 282.01h-20.65M227.32 281.35v-16.5M227.98 287.47h20.65M249.28 286.82v-4.15M248.63 282.01h-20.65M227.32 282.67v4.15M248.63 284.4h-20.65M248.63 264.19c.36 0 .66.3.66.66M249.28 281.35c0 .36-.3.66-.66.66M227.98 282.01a.66.66 0 0 1-.66-.66M227.32 264.85c0-.36.3-.66.66-.66"/><path d="M249.28 286.82c0 .36-.3.66-.66.66M248.63 282.01c.36 0 .66.29.66.66M227.32 282.67c0-.36.3-.66.66-.66M227.98 287.47a.66.66 0 0 1-.66-.66M248.63 284.4c.36 0 .66.29.66.66M227.32 285.06c0-.36.3-.66.66-.66M208.21 264.19h-2.42M205.35 264.63v23.28M205.79 288.35h2.42M208.65 287.91v-23.28M208.21 288.35h19.11M227.32 288.35v-1.53M227.32 282.67v-1.32M226.66 264.19h-17.35M208.65 264.85v16.5M209.31 282.01h17.35M227.32 281.35v-16.5M226.66 287.47h-17.35M208.65 286.82v-4.15M209.31 282.01h17.35M227.32 282.67v4.15M209.31 284.4h17.35M205.35 264.63c0-.24.2-.44.44-.44M205.79 288.35c-.24 0-.44-.2-.44-.44M208.65 287.91c0 .24-.2.44-.44.44M208.21 264.19c.24 0 .44.2.44.44M208.65 264.85c0-.36.3-.66.66-.66M209.31 282.01a.66.66 0 0 1-.66-.66M227.32 281.35c0 .36-.29.66-.66.66M226.66 264.19c.36 0 .66.3.66.66M209.31 287.47a.66.66 0 0 1-.66-.66M208.65 282.67c0-.36.3-.66.66-.66"/><path d="M226.66 282.01c.36 0 .66.29.66.66M227.32 286.82c0 .36-.29.66-.66.66M208.65 285.06c0-.36.3-.66.66-.66M226.66 284.4c.36 0 .66.29.66.66M267.29 264.19h-17.35"/></g><g fill="#fff" stroke="#6a6a6a" stroke-linecap="round" stroke-linejoin="round" stroke-width=".25"><path d="m47.66 248.5-.04 1.24-.89 8.42h-7.74l-.89-8.42-.04-1.24.15-1.23.34-1.2.52-1.13.71-.89.9-.68 1.05-.44 1.13-.15 1.13.15 1.05.44.91.68.7.89.52 1.13.34 1.2.15 1.23zM39.87 254h2.99M42.86 254h2.99"/><path d="M42.86 242.99c-.8 0-1.58.23-2.23.64M40.63 243.64c-1.61 1.25-2.48 3.08-2.36 4.96M38.27 248.6c-.05 1.9.5 3.77 1.59 5.4M45.85 254c1.09-1.64 1.65-3.51 1.59-5.4M47.45 248.6c.12-1.88-.75-3.71-2.36-4.96M45.09 243.64c-.65-.41-1.42-.64-2.23-.64"/></g><g fill="#fff" stroke="#6a6a6a" stroke-linecap="round" stroke-linejoin="round" stroke-width=".25"><path d="m238.85 169.68-.04 1.24-.89 8.42h-7.74l-.89-8.42-.04-1.24.15-1.23.34-1.2.52-1.12.7-.9.91-.68 1.05-.43 1.13-.15 1.13.15 1.05.43.91.68.7.9.52 1.12.34 1.2.15 1.23zM231.06 175.18h2.99M234.05 175.18h3"/><path d="M234.05 164.17c-.8 0-1.58.23-2.23.64M231.83 164.82c-1.61 1.25-2.48 3.08-2.36 4.96M229.47 169.78c-.05 1.9.5 3.77 1.59 5.4M237.05 175.18c1.09-1.64 1.65-3.51 1.59-5.4M238.64 169.78c.12-1.88-.75-3.71-2.36-4.96M236.28 164.82c-.65-.41-1.42-.64-2.23-.64"/></g><g fill="#fff" stroke="#6a6a6a" stroke-linecap="round" stroke-linejoin="round" stroke-width=".25"><path d="M7.01 194.25h48.46v20.81H7.01zM7.01 215.06h48.47m0 0v-20.81m0 0H7.01m0 0v20.81M12.96 195.91l-.74.06m0 0-.72.19m0 0-.67.31m0 0-.61.42m0 0-.52.51m0 0-.43.59m0 0-.31.66m0 0-.19.7m0 0-.06.72m0 0v9.16m0 0 .06.72m0 0 .19.7m0 0 .31.66m0 0 .43.59m0 0 .52.51m0 0 .61.42m0 0 .67.31m0 0 .72.19m0 0 .74.06m0 0h31.89m0 0 1.55-.13m0 0 1.5-.39m0 0 1.41-.64m0 0 1.27-.87m0 0 1.1-1.08m0 0 .89-1.25m0 0 .66-1.38m0 0 .4-1.47m0 0 .14-1.52m0 0-.14-1.52m0 0-.4-1.47m0 0-.66-1.38m0 0-.89-1.25m0 0-1.1-1.08m0 0-1.27-.87m0 0-1.41-.64m0 0-1.5-.39m0 0-1.55-.13m0 0H12.96"/><path d="M13.31 204.66c0 .4.33.73.73.73s.73-.33.73-.73-.33-.73-.73-.73-.73.33-.73.73Z"/></g><g fill="#fff" stroke="#6a6a6a" stroke-linecap="round" stroke-linejoin="round" stroke-width=".25"><path d="M17.59 218.87v16.18l-.12.29-.28.11H7.41l-.28-.11-.11-.29v-16.18l.11-.29.28-.11h9.78l.28.11.12.29zM9.92 234.24v-6.97m0-.64v-6.97M10.32 219.26h6.08M16.8 219.66v14.58M16.4 234.65h-6.08"/><path d="M10.32 219.26c-.22 0-.4.18-.4.4M16.8 219.66c0-.22-.18-.4-.4-.4M16.4 234.65c.22 0 .4-.18.4-.4M9.92 234.24c0 .22.18.4.4.4M11.59 227.28a.526.526 0 0 0 .84 0h-.85Zm.85-.64a.526.526 0 0 0-.84 0h.85ZM7.39 226.63v.64m0 0h5.42m0 0 .21-.18m0 0v-.28m0 0-.21-.18m0 0H7.39M8.34 229.27H7.2m0 0v-.07m0 0h-.09m0 0v-.2m0 0h-.09m0 0v1.34m0 0h.09m0 0v-.2m0 0h.09m0 0v-.07m0 0h1.14m0 0v-.23m0 0h.29m0 0v.76m0 0h.34m0 0v-1.87m0 0h-.34m0 0v.76m0 0h-.29m0 0v-.23M8.34 224.64H7.2m0 0v.07m0 0h-.09m0 0v.2m0 0h-.09m0 0v-1.34m0 0h.09m0 0v.2m0 0h.09m0 0v.07m0 0h1.14m0 0v.23m0 0h.29m0 0v-.76m0 0h.34m0 0v1.87m0 0h-.34m0 0v-.76m0 0h-.29m0 0v.23M8.63 229.84l.05-.05M8.63 229.5l.05.05M8.34 229.84v-.34M8.63 224.07l.05.05M8.63 224.41l.05-.05M8.34 224.07v.34M8.63 229.67c0 .1.08.17.17.17s.17-.08.17-.17-.08-.17-.17-.17-.17.08-.17.17ZM8.63 224.24c0 .1.08.17.17.17s.17-.08.17-.17-.08-.17-.17-.17-.17.08-.17.17Z"/></g><g fill="#fff" stroke="#6a6a6a" stroke-linecap="round" stroke-linejoin="round" stroke-width=".25"><path d="M208.2 142.78v16.19l-.12.28-.28.12h-9.78l-.28-.12-.11-.28v-16.19l.11-.28.28-.12h9.78l.28.12.12.28zM200.54 158.17v-6.97m0-.64v-6.97M200.93 143.18h6.08M207.41 143.59v14.58M207.01 158.57h-6.08"/><path d="M200.93 143.18c-.22 0-.4.18-.4.4M207.41 143.59c0-.22-.18-.4-.4-.4M207.01 158.57c.22 0 .4-.18.4-.4M200.54 158.17c0 .22.18.4.4.4M202.2 151.2a.526.526 0 0 0 .84 0h-.85Zm.85-.64a.526.526 0 0 0-.84 0h.85ZM198 150.55v.64m0 0h5.42m0 0 .21-.18m0 0v-.28m0 0-.21-.18m0 0H198M198.95 153.19h-1.14m0 0v-.07m0 0h-.09m0 0v-.2m0 0h-.09m0 0v1.34m0 0h.09m0 0v-.2m0 0h.09m0 0v-.07m0 0h1.14m0 0v-.23m0 0h.29m0 0v.76m0 0h.34m0 0v-1.87m0 0h-.34m0 0v.76m0 0h-.29m0 0v-.23M198.95 148.56h-1.14m0 0v.07m0 0h-.09m0 0v.2m0 0h-.09m0 0v-1.34m0 0h.09m0 0v.2m0 0h.09m0 0v.07m0 0h1.14m0 0v.23m0 0h.29m0 0v-.76m0 0h.34m0 0v1.87m0 0h-.34m0 0v-.76m0 0h-.29m0 0v.23M199.24 153.76l.05-.05M199.24 153.42l.05.05M198.95 153.76v-.34M199.24 147.99l.05.05M199.24 148.33l.05-.05M198.95 147.99v.34M199.24 153.59c0 .1.08.17.17.17s.17-.08.17-.17-.08-.17-.17-.17-.17.08-.17.17ZM199.24 148.16c0 .1.08.17.17.17s.17-.08.17-.17-.08-.17-.17-.17-.17.08-.17.17Z"/></g><g fill="#fff" stroke="#6a6a6a" stroke-linecap="round" stroke-linejoin="round" stroke-width=".25"><path d="M197.63 176.09V159.9m0 0 .12-.28m0 0 .28-.12m0 0h9.78m0 0 .28.12m0 0 .12.28m0 0v16.19m0 0-.12.28m0 0-.28.12m0 0h-9.78m0 0-.28-.12m0 0-.12-.28M208.2 159.91v16.18l-.12.28-.28.12h-9.78l-.28-.12-.11-.28v-16.18l.11-.29.28-.12h9.78l.28.12.12.29zM200.54 175.29v-6.97m0-.64v-6.97M200.93 160.31h6.08M207.41 160.71v14.58M207.01 175.69h-6.08"/><path d="M200.93 160.31c-.22 0-.4.18-.4.4M207.41 160.71c0-.22-.18-.4-.4-.4M207.01 175.69c.22 0 .4-.18.4-.4M200.54 175.29c0 .22.18.4.4.4M202.2 168.32a.526.526 0 0 0 .84 0h-.85Zm.85-.64a.526.526 0 0 0-.84 0h.85ZM198 167.68v.64m0 0h5.42m0 0 .21-.18m0 0v-.28m0 0-.21-.18m0 0H198M198.95 170.31h-1.14m0 0v-.07m0 0h-.09m0 0v-.2m0 0h-.09m0 0v1.34m0 0h.09m0 0v-.2m0 0h.09m0 0v-.07m0 0h1.14m0 0v-.23m0 0h.29m0 0v.76m0 0h.34m0 0v-1.87m0 0h-.34m0 0v.76m0 0h-.29m0 0v-.23M198.95 165.69h-1.14m0 0v.07m0 0h-.09m0 0v.2m0 0h-.09m0 0v-1.34m0 0h.09m0 0v.2m0 0h.09m0 0v.07m0 0h1.14m0 0v.23m0 0h.29m0 0v-.76m0 0h.34m0 0v1.87m0 0h-.34m0 0v-.76m0 0h-.29m0 0v.23M199.24 170.89l.05-.05M199.24 170.54l.05.05M198.95 170.89v-.35M199.24 165.11l.05.05M199.24 165.46l.05-.05M198.95 165.11v.35M199.24 170.72c0 .1.08.17.17.17s.17-.08.17-.17-.08-.17-.17-.17-.17.08-.17.17ZM199.24 165.29c0 .1.08.17.17.17s.17-.08.17-.17-.08-.17-.17-.17-.17.08-.17.17Z"/></g><g fill="#fff" stroke="#6a6a6a" stroke-linecap="round" stroke-linejoin="round" stroke-width=".25"><path d="M7.01 241.38h16.73v16.73H7.01z"/><path d="M20.68 249.75c0 2.93-2.37 5.3-5.3 5.3s-5.3-2.37-5.3-5.3 2.37-5.3 5.3-5.3 5.3 2.37 5.3 5.3ZM19.81 249.37l-.91.33m0 0h-.97m0 0-.91-.33m0 0-1.09.25m0 0h-1.12m0 0-1.09-.25m0 0-.91.33m0 0h-.97m0 0-.91-.33m0 0 1.65 2.2m0 0h5.58m0 0 1.65-2.2M18.17 251.76h-5.58m0 0v-.19m0 0h5.58m0 0v.19M18.17 252.15h-5.58m0 0v-.19m0 0h5.58m0 0v.19M14.76 248.25l.66-.06m0 0 .02.17m0 0-.35.03m0 0 1.02.84m0 0-.09.11m0 0-.47-.39m0 0-.05.06m0 0 .55.45m0 0-.09.11m0 0-.55-.45m0 0-.06.07m0 0 .44.37m0 0-.08.1m0 0-.44-.37m0 0-.06.07m0 0 .31.25m0 0-.09.1m0 0-1.05-.87M7.01 258.11h16.73"/></g><g fill="none" stroke="#6a6a6a" stroke-linecap="round" stroke-linejoin="round" stroke-width=".25"><path d="m191.83 220.02-3.99-3.99m0 0-.41-.4m0 0-.42-.36m0 0-.41-.32m0 0-.39-.27m0 0h-.02m0 0-.36-.21m0 0-.32-.14m0 0h-.02m0 0-.27-.07m0 0h-.03m0 0h-.21m0 0h-.03m0 0h-.03m0 0h-.03m0 .01-.15.08m0 0-.02.02m0 0h-.01m0 0-1.1 1.1m0 0-1-1m0 0-5.07 5.07m10.8 10.8 5.07-5.07m0 0-1-1m0 0 1.1-1.1m0 0h.01m0-.01.02-.02m0 0 .08-.15m0 0v-.03m.01 0v-.03m0 0v-.03m0 0v-.21m0 0v-.03m0 0-.07-.27m0 0v-.02m0 0-.14-.32m0 0-.21-.37m0 0v-.02m-.01 0-.27-.39m0 0-.32-.41m0 0-.36-.42m0 0-.4-.41M182.94 216.12l8.8 8.8M183.06 216.24l.87-.87M191.62 224.8l.87-.87M187.86 228.8l4.53-4.53M179.06 220l4.53-4.53M186.84 217.02l4 4M183.93 215.37c.34-.34 1.64.4 2.9 1.66M190.84 221.02c1.26 1.26 2 2.56 1.66 2.9M156.27 247.6l3.99 3.99m0 0 .41.4m0 0 .42.36m0 0 .41.32m0 0 .39.27m0 0h.02m0 .01.37.21m0 0 .32.14m0 0h.02m0 0 .27.07m0 0h.03m0 0h.21m0 0h.03m0 0h.03m0 0h.03m0-.01.15-.08m0 0 .02-.02m0 0h.01m0-.01 1.1-1.1m0 0 1 1m0 0 5.07-5.07m-10.8-10.8-5.07 5.07m0 0 1 1m0 0-1.1 1.1m0 0h0m0 .01-.02.02m0 0-.08.15m0 0v.03m-.01 0v.03m0 0v.03m0 0v.21m0 0v.03m0 0 .07.27m0 0v.02m0 0 .14.32m0 0 .21.36m0 0v.02m0 0 .27.39m0 0 .32.41m0 0 .36.42m0 0 .4.41M165.16 251.5l-8.8-8.8M165.04 251.38l-.87.88M156.48 242.82l-.87.87M160.24 238.82l-4.53 4.53M169.04 247.62l-4.53 4.53M161.26 250.6l-4-4M164.17 252.26c-.34.34-1.64-.4-2.9-1.66M157.26 246.6c-1.26-1.26-2-2.56-1.66-2.9M160.26 216.03l-3.99 3.99m0 0-.4.41m0 0-.36.42m0 0-.32.41m0 0-.27.39m0 0v.02m0 0-.21.37m0 0-.14.32m0 0v.02m0 0-.07.27m0 0v.03m0 0v.21m0 0v.03m0 0v.03m0 0v.03m.01 0 .08.15m0 0 .02.02m0 0h0m0 .01 1.1 1.1m0 0-1 1m0 0 5.07 5.07m10.8-10.8-5.07-5.07m0 0-1 1m0 0-1.1-1.1m0 0h0m0 0-.03-.02m0 0-.15-.08m0 0h-.03m0-.01h-.03m0 0h-.03m0 0h-.21m0 0h-.03m0 0-.27.07m0 0h-.02m0 0-.32.14m0 0-.37.21m0 0h-.01m0 0-.39.27m0 0-.41.32m0 0-.42.36m0 0-.41.4M156.36 224.92l8.8-8.8M156.48 224.8l-.87-.87M165.04 216.24l-.87-.87M169.04 220l-4.53-4.53M160.24 228.8l-4.53-4.53M157.26 221.02l4-4M155.61 223.93c-.34-.34.4-1.64 1.66-2.9M161.26 217.02c1.26-1.26 2.56-2 2.9-1.66M187.84 251.59l3.99-3.99m0 0 .4-.41m0 0 .36-.42m0 0 .32-.41m0 0 .27-.39m0 0v-.02m.01 0 .21-.36m0 0 .14-.32m0 0v-.02m0 0 .07-.27m0 0v-.03m0 0v-.21m0 0v-.03m0 0v-.03m0 0v-.03m-.01 0-.08-.15m0 0-.02-.02m0 0h-.01m0-.01-1.1-1.1m0 0 1-1m0 0-5.07-5.07m-10.8 10.8 5.07 5.07m0 0 1-1m0 0 1.1 1.1m0 0h.01m0 .01.02.02m0 0 .15.08m0 0h.03m0 .01h.03m0 0h.03m0 0h.21m0 0h.03m0 0 .27-.07m0 0h.03m0 0 .32-.14m0 0 .36-.21m0 0h.02m0-.01.39-.27m0 0 .41-.32m0 0 .42-.36m0 0 .41-.4M191.74 242.7l-8.8 8.8M191.62 242.82l.87.87M183.06 251.38l.87.88M179.06 247.62l4.53 4.53M187.86 238.82l4.53 4.53M190.84 246.6l-4 4M192.49 243.69c.34.34-.4 1.64-1.66 2.9M186.84 250.6c-1.26 1.26-2.56 2-2.9 1.66M188.74 233.81c0 8.11-6.58 14.69-14.69 14.69s-14.69-6.57-14.69-14.69 6.58-14.69 14.69-14.69 14.69 6.58 14.69 14.69Z"/></g><g fill="#fff" stroke="#666565" stroke-linecap="round" stroke-linejoin="round" stroke-width=".22"><ellipse cx="260.63" cy="139.41" rx="13.75" ry="24.44"/><ellipse cx="260.63" cy="139.41" rx="12.28" ry="21.83"/><path d="M260.63 136.45a1.83 1.83 0 1 0-.002-3.662 1.83 1.83 0 0 0 .002 3.662Z"/></g><path fill="none" stroke="#6a6a6a" stroke-dasharray="0 0 3 3" stroke-linecap="round" stroke-linejoin="round" stroke-width=".25" d="M131.66 271.57v-75.66"/><g fill="none" stroke="#6a6a6a" stroke-linecap="round" stroke-linejoin="round" stroke-width=".25"><path d="M194.88 135.82h-14.04m0 0v41.34m0 0h14.04m0 0v-41.34M187.75 177.16h-.45m0 0v-41.34m0 0h.45m0 0v41.34M182.02 140.48H193m0 0v.47m0 0h-10.98m0 0v-.47M182.02 141.73H193m0 0v.47m0 0h-10.98m0 0v-.47M182.02 142.99H193m0 0v.47m0 0h-10.98m0 0v-.47M182.02 144.24H193m0 0v.47m0 0h-10.98m0 0v-.47M182.1 146.9l10.91-1.4m0 0 .05.47m0 0-10.91 1.4m0 0-.05-.47"/></g><g fill="none" stroke="#6a6a6a" stroke-linecap="round" stroke-linejoin="round" stroke-width=".25"><path d="M95.11 177.27v18.05m0 0h99.78m0 0v-18.05m0 0H95.11M194.88 184.3v.44m0 0H95.11m0 0v-.44m0 0h99.78M100.18 189.96v-10.84m0 0h.52m0 0v10.84m0 0h-.52M101.55 189.96v-10.84m0 0h.52m0 0v10.84m0 0h-.52M102.92 189.96v-10.84m0 0h.52m0 0v10.84m0 0h-.52M104.29 189.96v-10.84m0 0h.52m0 0v10.84m0 0h-.52M107.19 189.88l-1.53-10.76m0 0 .51-.05m0 0 1.53 10.76m0 0-.51.05"/></g></g><g id="Walls_Inside" fill="#2d2d2c"><path d="M39 339.59v-8.34h133.63v8.34z"/><path d="M164.92 288.53h8.34v51.06h-8.34z"/><path d="M165.81 296.87v-8.34h120.02v8.34zM50.67 144.75h7.68v49.5h-7.68zM0 187.35h7.01v83.23H0z"/><path d="M1.46 194.25v-7.01h55.7v7.01zM116.75 317.55h2.83v19.2h-2.83zM55.51 240.37h2.83v42.58h-2.83z"/><path d="M55.51 189.04h2.83v30.4h-2.83zM92.27 196.05v-2.83h82.09v2.83zM50.67 144.75v-2.83H63.5v2.83zM88.27 144.75v-2.83h59.28v2.83z"/><path d="M92.27 172.75h2.83v21.5h-2.83zM194.79 134.27h2.83v56.71h-2.83z"/><path d="M196.21 181.22v-1.98h66.8v1.98zM178.3 110.48v-2.83h109.83v2.83z"/><path d="M194.79 108.02h2.83v6.05h-2.83zM144.72 35.92h2.83v108.83h-2.83zM4.31 260.15v-1.98h52.62v1.98zM92.27 142.38h2.83v5.93h-2.83zM116.75 291.37v-2.83h52.8v2.83z"/><path d="M116.75 271.57h2.83v18.72h-2.83z"/><path d="M116.75 274.4v-2.83h14.92v2.83zM38.06 269.58v-2.83h19.11v2.83z"/><path d="M128.83 271.57h2.83v18.72h-2.83zM34.08 282.95v-2.83h24.26v2.83z"/></g><g id="Walls_Outside"><path fill="none" stroke="#000" stroke-linecap="round" stroke-linejoin="round" stroke-width=".22" d="m73.3 11.71-2.48 10.74M74.51 6.48l-.91 3.93M73.6 10.41l-.3 1.3M125.9 23.86l-2.48 10.73M127.11 18.62l-.91 3.93M126.2 22.55l-.3 1.31"/><path fill="none" stroke="#000" stroke-linecap="round" stroke-linejoin="round" stroke-width=".25" d="M127.11 18.62 74.51 6.48M123.42 34.59l-52.6-12.14M125.9 23.86l-3.01-.69M122.89 23.17l.31-1.31M123.2 21.86l3 .69M96.14 15.61l1.51.35M97.65 15.96l-.31 1.31M97.34 17.27l-1.5-.35M123.04 22.51l-25.54-5.9M122.89 23.17l-25.55-5.9M97.65 15.96l25.55 5.9M95.84 16.92l-.75-.17M95.09 16.75l.15-.66M95.24 16.09l-.75-.17M94.49 15.92l.15-.66M94.64 15.26l1.5.35M73.6 10.41l2.36.54M75.96 10.95l-.15.65M75.81 11.6l-.59-.13M75.22 11.47l-.15.65M75.07 12.12l-1.77-.41M75.96 10.95l18.68 4.31M92.68 16.88l-15.02-3.47M94.94 17.4l-2.26-.52M92.68 16.88l.31-1.31M92.99 15.57l2.25.52M95.24 16.09l-.3 1.31M75.22 11.47l1.77.41M76.99 11.88l-.31 1.31M76.68 13.19l-1.76-.41M74.92 12.78l.3-1.31M76.99 11.88l16 3.69M92.68 16.88l-16-3.69M92.84 16.23l-16-3.7"/><path fill="none" stroke="#000" stroke-linecap="round" stroke-linejoin="round" stroke-width=".22" d="m126.2 22.55-.3 1.31M126.2 22.55l-.3 1.31M127.11 18.62l-.91 3.93M125.9 23.86l-2.48 10.73M73.6 10.41l-.3 1.3M73.6 10.41l-.3 1.3M74.51 6.48l-.91 3.93M73.3 11.71l-2.48 10.74M127.11 18.62l-3.69 15.97"/><path fill="#2d2d2c" d="m123.422 34.586 3.687-15.97 26.23 6.056-3.687 15.97z"/><path fill="#2d2d2c" fill-rule="evenodd" d="M50.67.98v16.81l5.78 1.34 4.52 1.04 9.85 2.28 3.69-15.97L50.67.98z"/><path fill="none" stroke="#000" stroke-linecap="round" stroke-linejoin="round" stroke-width=".22" d="m174.74 23.55 2.47 10.73M173.53 18.32l.9 3.92M174.43 22.24l.31 1.31M227.34 11.41l2.48 10.73M226.13 6.17l.91 3.93M227.04 10.1l.3 1.31"/><path fill="none" stroke="#000" stroke-linecap="round" stroke-linejoin="round" stroke-width=".25" d="m226.13 6.17-52.6 12.15M229.82 22.14l-52.61 12.14M227.34 11.41l-3.01.69M224.33 12.1l-.3-1.31M224.03 10.79l3.01-.69M196.98 17.04l1.5-.35M198.48 16.69l.3 1.31M198.78 18l-1.5.35M224.18 11.45l-25.55 5.9M224.33 12.1 198.78 18M198.48 16.69l25.55-5.9M197.28 18.35l-.75.17M196.53 18.52l-.15-.65M196.38 17.87l-.75.17M195.63 18.04l-.15-.65M195.48 17.39l1.5-.35M174.43 22.24l2.36-.54M176.79 21.7l.15.65M176.94 22.35l-.58.14M176.35 22.49l.16.65M176.51 23.14l-1.77.41M176.79 21.7l18.69-4.31M194.43 19.7l-15.03 3.46M196.68 19.17l-2.25.53M194.43 19.7l-.31-1.31M194.12 18.39l2.26-.52M196.38 17.87l.3 1.3M176.35 22.49l1.77-.41M178.12 22.08l.31 1.31M178.43 23.39l-1.77.41M176.66 23.8l-.31-1.31M178.12 22.08l16-3.69M194.43 19.7l-16 3.69M194.27 19.04l-16 3.69"/><path fill="none" stroke="#000" stroke-linecap="round" stroke-linejoin="round" stroke-width=".22" d="m227.04 10.1.3 1.31M227.04 10.1l.3 1.31M226.13 6.17l.91 3.93M227.34 11.41l2.48 10.73M174.43 22.24l.31 1.31M174.43 22.24l.31 1.31M173.53 18.32l.9 3.92M174.74 23.55l2.47 10.73M226.13 6.17l3.69 15.97"/><path fill="#2d2d2c" fill-rule="evenodd" d="m160.86 38.06-11.21 2.59-3.69-15.97 27.57-6.36 3.68 15.96L166 36.87l-5.14 1.19z"/><path fill="#2d2d2c" d="M226.124 6.173 252.861 0l3.687 15.97-26.737 6.173z"/><path fill="none" stroke="#000" stroke-linecap="round" stroke-linejoin="round" stroke-width=".22" d="m291.44 127.04-10.77-2.29M296.7 128.16l-3.95-.84M292.75 127.32l-1.31-.28M282.63 168.48l-10.77-2.29M287.89 169.6l-3.94-.84M283.95 168.76l-1.32-.28"/><path fill="none" stroke="#000" stroke-linecap="round" stroke-linejoin="round" stroke-width=".25" d="m287.89 169.6 8.81-41.44M271.86 166.19l8.81-41.44M282.63 168.48l.51-2.37M283.14 166.11l1.31.28M284.45 166.39l-.5 2.37M288.98 145.08l-.25 1.18M288.73 146.26l-1.32-.28M287.41 145.98l.26-1.18M283.79 166.25l4.28-20.13M283.14 166.11l4.27-20.13M288.73 146.26l-4.28 20.13M287.67 144.8l.12-.59M287.79 144.21l.66.14M288.45 144.35l.12-.59M288.57 143.76l.66.13M289.23 143.89l-.25 1.19M292.75 127.32l-.5 2.37M292.25 129.69l-.66-.14M291.59 129.55l.13-.59M291.72 128.96l-.66-.14M291.06 128.82l.38-1.78M292.25 129.69l-3.02 14.2M287.51 142.29l2.52-11.84M287.13 144.07l.38-1.78M287.51 142.29l1.32.28M288.83 142.57l-.38 1.78M288.45 144.35l-1.32-.28M291.72 128.96l-.38 1.77M291.34 130.73l-1.31-.28M290.03 130.45l.38-1.77M290.41 128.68l1.31.28M291.34 130.73l-2.51 11.84M287.51 142.29l2.52-11.84M288.17 142.43l2.52-11.84"/><path fill="none" stroke="#000" stroke-linecap="round" stroke-linejoin="round" stroke-width=".22" d="m283.95 168.76-1.32-.28M283.95 168.76l-1.32-.28M287.89 169.6l-3.94-.84M282.63 168.48l-10.77-2.29M292.75 127.32l-1.31-.28M292.75 127.32l-1.31-.28M296.7 128.16l-3.95-.84M291.44 127.04l-10.77-2.29M287.89 169.6l-16.03-3.41"/><path fill="#2d2d2c" fill-rule="evenodd" d="m285.21 103.37 3.11-14.65 16.03 3.41-7.65 36.03-16.03-3.41 3.11-14.65 1.43-6.73z"/><path fill="#2d2d2c" d="m268.684 181.165 3.183-14.976 16.032 3.408-3.184 14.975z"/><path fill="none" stroke="#000" stroke-linecap="round" stroke-linejoin="round" stroke-width=".22" d="M298.98 29.48h-11.01M304.35 29.48h-4.03M300.32 29.48h-1.34M298.98 67.02h-11.01M304.35 67.02h-4.03M300.32 67.02h-1.34"/><path fill="none" stroke="#000" stroke-linecap="round" stroke-linejoin="round" stroke-width=".25" d="M304.35 67.02V29.48M287.97 67.02V29.48M298.98 67.02V64.6M298.98 64.6h1.34M300.32 64.6v2.42M300.32 47.64v1.21M300.32 48.85h-1.34M298.98 48.85v-1.21M299.65 64.6V48.85M298.98 64.6V48.85M300.32 48.85V64.6M298.98 47.64v-.61M298.98 47.03h.67M299.65 47.03v-.61M299.65 46.42h.67M300.32 46.42v1.22M300.32 29.48v2.42M300.32 31.9h-.67M299.65 31.9v-.61M299.65 31.29h-.67M298.98 31.29v-1.81M300.32 31.9v14.52M298.31 45.21v-12.1M298.31 47.03v-1.82M298.31 45.21h1.34M299.65 45.21v1.82M299.65 47.03h-1.34M299.65 31.29v1.82M299.65 33.11h-1.34M298.31 33.11v-1.82M298.31 31.29h1.34M299.65 33.11v12.1M298.31 45.21v-12.1M298.98 45.21v-12.1"/><path fill="none" stroke="#000" stroke-linecap="round" stroke-linejoin="round" stroke-width=".22" d="M300.32 67.02h-1.34M300.32 67.02h-1.34M304.35 67.02h-4.03M298.98 67.02h-11.01M300.32 29.48h-1.34M300.32 29.48h-1.34M304.35 29.48h-4.03M298.98 29.48h-11.01M304.35 67.02h-16.38"/><path fill="#2d2d2c" fill-rule="evenodd" d="M287.97 17.62V9.5h16.38v19.98h-16.38V17.62z"/><path fill="#2d2d2c" d="M287.97 67.02h16.39v25.1h-16.39z"/><path fill="none" stroke="#000" stroke-linecap="round" stroke-linejoin="round" stroke-width=".22" d="m292.05 212.39-10.85-1.91M297.34 213.32l-3.97-.7M293.37 212.62l-1.32-.23M282.59 266.05l-10.85-1.91M287.88 266.98l-3.97-.7M283.91 266.28l-1.32-.23"/><path fill="none" stroke="#000" stroke-linecap="round" stroke-linejoin="round" stroke-width=".25" d="m287.88 266.98 9.46-53.66M271.74 264.14l9.46-53.66M282.59 266.05l.44-2.51M283.03 263.54l1.32.23M284.35 263.77l-.44 2.51M288.33 241.2l-.22 1.26M288.11 242.46l-1.32-.24M286.79 242.22l.22-1.25M283.69 263.66l3.76-21.32M283.03 263.54l3.76-21.32M288.11 242.46l-3.76 21.31M287.01 240.97l.11-.63M287.12 240.34l.66.12M287.78 240.46l.11-.63M287.89 239.83l.66.12M288.55 239.95l-.22 1.25M293.37 212.62l-.54 3.07M292.83 215.69l-.66-.12M292.17 215.57l.13-.76M292.3 214.81l-.66-.12M291.64 214.69l.41-2.3M292.83 215.69l-4.28 24.26M287.87 232.2l2.71-15.33M286.46 240.22l.33-1.88M286.79 238.34l1.32.24M288.11 238.58l-.33 1.88M287.78 240.46l-1.32-.24M292.3 214.81l-.4 2.3M291.9 217.11l-1.32-.24M290.58 216.87l.4-2.3M290.98 214.57l1.32.24M291.9 217.11l-3.79 21.47M286.79 238.34l3.79-21.47M287.47 238.47l3.77-21.48"/><path fill="none" stroke="#000" stroke-linecap="round" stroke-linejoin="round" stroke-width=".22" d="m283.91 266.28-1.32-.23M283.91 266.28l-1.32-.23M287.88 266.98l-3.97-.7M282.59 266.05l-10.85-1.91M293.37 212.62l-1.32-.23M293.37 212.62l-1.32-.23M297.34 213.32l-3.97-.7M292.05 212.39l-10.85-1.91M287.88 266.98l-16.14-2.84"/><path fill="#2d2d2c" fill-rule="evenodd" d="m283.08 199.85 1.28-7.28 16.14 2.84-3.16 17.91-16.14-2.84 1.29-7.29.59-3.34z"/><path fill="#2d2d2c" d="m271.242 266.984.502-2.847 16.14 2.847-.501 2.846zM252.86 0h51.49v16.39h-51.49zM284.11 179.29h16.39v16.13h-16.39zM284.84 275.79h16.39v21.09h-16.39z"/><path fill="#2d2d2c" d="M271.25 266.98H288v29.89h-16.75zM261.01 169.6h27.85v21.28h-27.85zM50.67 14.77h8.7v129.98h-8.7z"/><path fill="#2d2d2c" d="M173.25 196.05v-8.7h114.54v8.7zM33.64 266.75h6.08v17.1h-6.08zM33.64 314.08h6.08v25.51h-6.08z"/><path fill="#2d2d2c" d="M0 273.09v-6.33h39.72v6.33z"/></g><g id="Doors"><path fill="none" stroke="#000" stroke-linecap="round" stroke-linejoin="round" stroke-width=".29" d="M24.38 286.3c4.7-1.72 7.11-2.19 12.11-2.45"/><path fill="#2d2d2c" fill-rule="evenodd" d="m23.61 286.33 1.34-.57 12.33 27.89v.43h-1.46l-12.21-27.75z"/><path fill="none" stroke="#000" stroke-linecap="round" stroke-linejoin="round" stroke-width=".29" d="M86.27 133.65c1.41 3.85 1.8 5.82 2 9.92"/><path fill="#2d2d2c" fill-rule="evenodd" d="m86.23 133.02.47 1.1-22.85 10.09h-.35v-1.19l22.73-10z"/><path fill="none" stroke="#000" stroke-linecap="round" stroke-linejoin="round" stroke-width=".29" d="M104.12 170.77c-3.8 1.39-5.74 1.77-9.79 1.98"/><path fill="#2d2d2c" fill-rule="evenodd" d="m104.74 170.74-1.09.46-9.96-22.55v-.34h1.18l9.87 22.43z"/><path fill="none" stroke="#000" stroke-linecap="round" stroke-linejoin="round" stroke-width=".29" d="M204.3 132.64c-3.14 1.15-4.75 1.47-8.09 1.63"/><path fill="#2d2d2c" fill-rule="evenodd" d="m204.81 132.61-.89.38-8.24-18.63v-.29h.98l8.15 18.54z"/><path fill="none" stroke="#000" stroke-linecap="round" stroke-linejoin="round" stroke-width=".29" d="M48.78 238.68c3.25 1.19 4.92 1.52 8.39 1.69"/><path fill="#2d2d2c" fill-rule="evenodd" d="m48.26 238.66.92.39 8.53-19.31v-.3h-1l-8.45 19.22z"/></g><g id="Sizes"><path d="M93.98 114.07h-.9v-5.41l-.91.56v-.93l.91-.61h.9v6.39ZM95.33 113.29l2.23-2.97c.13-.17.23-.35.3-.53.07-.18.11-.35.11-.51 0-.26-.07-.46-.22-.6s-.36-.21-.64-.21c-.26 0-.47.08-.63.23-.16.15-.26.37-.29.65s-.93 0-.93 0c.05-.37.16-.68.32-.94.16-.26.37-.46.63-.59.26-.14.55-.2.89-.2.38 0 .71.07.98.2s.47.32.62.57.21.55.21.9c0 .23-.05.47-.14.71s-.22.48-.39.71l-1.85 2.51h2.42v.85h-3.6v-.78ZM99.99 113.17h.9v.9l-.9.89v-1.78ZM102.02 113.29l2.23-2.97c.13-.17.23-.35.3-.53.07-.18.11-.35.11-.51 0-.26-.07-.46-.22-.6s-.36-.21-.64-.21c-.26 0-.47.08-.63.23-.16.15-.26.37-.29.65s-.93 0-.93 0c.05-.37.16-.68.32-.94.16-.26.37-.46.63-.59.26-.14.55-.2.89-.2.38 0 .71.07.98.2s.47.32.62.57.21.55.21.9c0 .23-.05.47-.14.71s-.22.48-.39.71l-1.85 2.51h2.42v.85h-3.6v-.78ZM108.31 114.07h-.9v-5.41l-.91.56v-.93l.91-.61h.9v6.39ZM222.89 47.46h-.9v-5.41l-.91.56v-.93l.91-.61h.9v6.39ZM224.25 45.7l2.14-4.63h.92l-2.09 4.57h3.13v.83h-4.11v-.78Zm2.76-2h.87v3.76h-.87V43.7ZM229.37 46.56h.9v.9l-.9.89v-1.78ZM231.41 45.7l2.14-4.63h.92l-2.09 4.57h3.13v.83h-4.11v-.78Zm2.75-2h.88v3.76h-.88V43.7ZM236.52 46.68l2.23-2.97c.13-.17.23-.35.3-.53.07-.18.11-.35.11-.51 0-.26-.07-.46-.22-.6s-.36-.21-.64-.21c-.26 0-.47.08-.63.23-.16.15-.26.37-.29.65s-.93 0-.93 0c.05-.37.16-.68.32-.94.16-.26.37-.46.63-.59.26-.14.55-.2.89-.2.38 0 .71.07.98.2s.47.32.62.57.21.55.21.9c0 .23-.05.47-.14.71s-.22.48-.39.71l-1.85 2.51h2.42v.85h-3.6v-.78ZM226.45 131.2l-1.65 5.59h-.95l1.65-5.54h-1.63v.92h-.9v-1.77h3.48v.8ZM227.59 135.89h.9v.9l-.9.89v-1.78ZM229.63 135.03l2.14-4.63h.92l-2.09 4.57h3.13v.83h-4.11v-.78Zm2.76-2h.87v3.76h-.87v-3.76ZM237.1 133.62v.16c-.08.13-.19.23-.34.3-.15.06-.32.09-.53.09-.3 0-.57-.08-.8-.23s-.41-.37-.54-.66c-.13-.28-.19-.61-.19-.98 0-.42.07-.77.21-1.06.14-.29.34-.52.61-.67.27-.15.59-.23.96-.23s.7.08.96.23.47.38.61.68c.14.3.21.65.21 1.07 0 .23-.03.48-.09.74s-.14.52-.25.77c-.02.04-.04.08-.05.12l-.06.12-1.36 2.74h-.97l1.61-3.17Zm.04-.55c.15-.19.23-.46.23-.8s-.08-.6-.23-.79c-.15-.18-.37-.28-.65-.28s-.5.09-.66.28c-.15.18-.23.45-.23.79 0 .35.08.62.23.81.15.19.37.28.66.28s.5-.1.65-.29ZM223.21 247.66h-.9v-5.41l-.91.56v-.93l.91-.61h.9v6.39ZM227.96 242.07l-1.65 5.59h-.95l1.65-5.54h-1.63v.92h-.9v-1.77h3.48v.8ZM229.1 246.77h.9v.9l-.9.89v-1.78ZM231.13 246.88l2.23-2.97c.13-.17.23-.35.3-.53.07-.18.11-.35.11-.51 0-.26-.07-.46-.22-.6s-.36-.21-.64-.21c-.26 0-.47.08-.63.23-.16.15-.26.37-.29.65s-.93 0-.93 0c.05-.37.16-.68.32-.94.16-.26.37-.46.63-.59.26-.14.55-.2.89-.2.38 0 .71.07.98.2s.47.32.62.57.21.55.21.9c0 .23-.05.47-.14.71s-.22.48-.39.71l-1.85 2.51h2.42v.85h-3.6v-.78ZM236.73 247.51c-.29-.15-.52-.35-.68-.62a1.79 1.79 0 0 1-.24-.93v-.11c0-.32.08-.62.24-.9.16-.28.37-.49.64-.64-.23-.12-.41-.3-.54-.53-.14-.23-.2-.48-.2-.74v-.15c0-.33.07-.63.22-.88s.36-.45.63-.59c.27-.14.59-.21.95-.21s.68.07.95.21c.27.14.48.34.63.59.15.25.22.55.22.88v.15c0 .26-.07.51-.21.74a1.4 1.4 0 0 1-.55.53c.27.15.49.36.65.64.16.28.24.58.24.9v.11c0 .35-.08.67-.24.93-.16.27-.39.48-.68.62s-.63.22-1.02.22-.73-.07-1.02-.22Zm1.57-.76c.16-.08.28-.2.37-.35.09-.15.13-.32.13-.51v-.06c0-.2-.04-.37-.13-.52-.09-.15-.21-.26-.37-.34s-.34-.12-.55-.12-.39.04-.55.12-.28.2-.37.35a.98.98 0 0 0-.13.52v.07c0 .19.04.36.13.51.09.15.21.26.37.34s.34.12.55.12.39-.04.55-.12Zm-.08-2.88c.14-.08.25-.19.32-.33s.11-.31.11-.5v-.06c0-.18-.04-.34-.11-.47s-.18-.24-.32-.32c-.14-.07-.3-.11-.47-.11s-.34.04-.47.11c-.14.08-.24.18-.32.32s-.11.3-.11.48v.07c0 .18.04.35.11.49.08.14.18.25.32.33s.3.12.47.12.34-.04.47-.12ZM156.42 158.25l-1.65 5.59h-.95l1.65-5.54h-1.63v.92h-.9v-1.77h3.48v.8ZM157.57 162.95h.9v.9l-.9.89v-1.78ZM160.55 163.69c-.29-.15-.52-.35-.68-.62a1.79 1.79 0 0 1-.24-.93v-.11c0-.32.08-.62.24-.9.16-.28.37-.49.64-.64-.23-.12-.41-.3-.54-.53-.14-.23-.21-.48-.21-.74v-.15c0-.33.08-.63.22-.88.15-.25.36-.45.63-.59.27-.14.59-.21.95-.21s.68.07.95.21c.27.14.48.34.63.59.15.25.22.55.22.88v.15c0 .26-.07.51-.21.74a1.4 1.4 0 0 1-.55.53c.27.15.49.36.65.64.16.28.24.58.24.9v.11c0 .35-.08.67-.24.93-.16.27-.39.48-.68.62s-.63.22-1.02.22-.73-.07-1.02-.22Zm1.57-.76c.16-.08.28-.2.37-.35.09-.15.13-.32.13-.51v-.06c0-.2-.04-.37-.13-.52-.09-.15-.21-.26-.37-.34s-.34-.12-.55-.12-.39.04-.55.12-.28.2-.37.35a.98.98 0 0 0-.13.52v.07c0 .19.04.36.13.51.09.15.21.26.37.34s.34.12.55.12.39-.04.55-.12Zm-.07-2.88c.14-.08.24-.19.32-.33s.11-.31.11-.5v-.06c0-.18-.04-.34-.11-.47s-.18-.24-.32-.32c-.14-.07-.3-.11-.47-.11s-.34.04-.47.11c-.14.08-.25.18-.32.32s-.11.3-.11.48v.07c0 .18.04.35.11.49.08.14.18.25.32.33s.3.12.47.12.34-.04.47-.12ZM166.3 163.84h-.9v-5.41l-.91.56v-.93l.91-.61h.9v6.39ZM25.42 226.18l2.14-4.63h.92l-2.09 4.57h3.13v.83h-4.11v-.78Zm2.76-2h.87v3.76h-.87v-3.76ZM30.54 227.04h.9v.9l-.9.89v-1.78ZM33.38 227.81c-.27-.13-.49-.32-.66-.57a1.97 1.97 0 0 1-.31-.89h.91c.03.18.08.33.17.45s.2.2.34.26.3.09.49.09c.3 0 .53-.08.69-.24s.25-.38.25-.67v-.19c0-.32-.08-.57-.23-.74-.16-.17-.38-.26-.66-.26h-.45v-.85h.45c.25 0 .44-.07.58-.22s.21-.36.21-.63v-.2c0-.25-.07-.45-.22-.58-.15-.14-.35-.21-.62-.21-.15 0-.29.03-.41.09s-.22.15-.31.26c-.08.12-.14.27-.18.45h-.91c.06-.35.17-.65.33-.9s.37-.44.62-.57.53-.19.86-.19c.55 0 .98.15 1.28.44s.45.7.45 1.23v.11c0 .32-.09.6-.26.83s-.42.41-.73.52c.35.08.62.25.81.51.19.27.29.61.29 1.02v.11c0 .37-.07.69-.21.95s-.35.46-.63.6c-.27.14-.6.21-.99.21-.36 0-.67-.07-.95-.2ZM38.28 227.78c-.29-.15-.52-.35-.68-.62a1.79 1.79 0 0 1-.24-.93v-.11c0-.32.08-.62.24-.9.16-.28.37-.49.64-.64-.23-.12-.41-.3-.54-.53-.14-.23-.2-.48-.2-.74v-.15c0-.33.07-.63.22-.88s.36-.45.63-.59c.27-.14.59-.21.95-.21s.68.07.95.21c.27.14.48.34.63.59.15.25.22.55.22.88v.15c0 .26-.07.51-.21.74a1.4 1.4 0 0 1-.55.53c.27.15.49.36.65.64.16.28.24.58.24.9v.11c0 .35-.08.67-.24.93-.16.27-.39.48-.68.62s-.63.22-1.02.22-.73-.07-1.02-.22Zm1.57-.76c.16-.08.28-.2.37-.35.09-.15.13-.32.13-.51v-.06c0-.2-.04-.37-.13-.52-.09-.15-.21-.26-.37-.34s-.34-.12-.55-.12-.39.04-.55.12-.28.2-.37.35a.98.98 0 0 0-.13.52v.07c0 .19.04.36.13.51.09.15.21.26.37.34s.34.12.55.12.39-.04.55-.12Zm-.08-2.88c.14-.08.25-.19.32-.33s.11-.31.11-.5v-.06c0-.18-.04-.34-.11-.47s-.18-.24-.32-.32c-.14-.07-.3-.11-.47-.11s-.34.04-.47.11c-.14.08-.24.18-.32.32s-.11.3-.11.48v.07c0 .18.04.35.11.49.08.14.18.25.32.33s.3.12.47.12.34-.04.47-.12ZM75.8 305.48h-.9v-5.41l-.91.56v-.93l.91-.61h.9v6.39ZM77.16 303.72l2.14-4.63h.92l-2.09 4.57h3.13v.83h-4.11v-.78Zm2.75-2h.88v3.76h-.88v-3.76ZM82.28 304.58h.9v.9l-.9.89v-1.78ZM85.33 305.36a1.61 1.61 0 0 1-.61-.55c-.16-.24-.26-.53-.31-.87s.9 0 .9 0c.03.24.13.42.28.55.16.13.36.2.61.2.29 0 .51-.1.67-.29.16-.19.24-.46.24-.81v-.54c0-.35-.08-.61-.24-.81-.16-.19-.38-.29-.67-.29-.16 0-.3.04-.45.13s-.27.21-.38.37h-.82v-3.37h3.26v.85h-2.36v1.44c.11-.09.24-.16.37-.21s.28-.07.42-.07c.37 0 .68.08.95.23.26.15.46.38.6.67.14.29.21.65.21 1.06v.54c0 .41-.07.77-.21 1.06s-.35.52-.62.67c-.27.15-.59.23-.97.23-.32 0-.61-.06-.86-.19ZM91.57 302.31v.16c-.08.13-.19.23-.34.3-.15.06-.32.09-.53.09-.3 0-.57-.08-.8-.23s-.41-.37-.54-.66c-.13-.28-.19-.61-.19-.98 0-.42.07-.77.21-1.06.14-.29.34-.52.61-.67.27-.15.59-.23.96-.23s.7.08.96.23.47.38.61.68c.14.3.21.65.21 1.07 0 .23-.03.48-.09.74s-.14.52-.25.77c-.02.04-.04.08-.05.12l-.06.12-1.36 2.74h-.97l1.61-3.17Zm.04-.55c.15-.19.23-.46.23-.8s-.08-.6-.23-.79c-.15-.18-.37-.28-.65-.28s-.5.09-.66.28c-.15.18-.23.45-.23.79 0 .35.08.62.23.81.15.19.37.28.66.28s.5-.1.65-.29ZM127.7 304.7l2.23-2.97c.13-.17.23-.35.3-.53.07-.18.11-.35.11-.51 0-.26-.07-.46-.22-.6s-.36-.21-.64-.21c-.26 0-.47.08-.63.23-.16.15-.26.37-.29.65s-.93 0-.93 0c.05-.37.16-.68.32-.94.16-.26.37-.46.63-.59.26-.14.55-.2.89-.2.38 0 .71.07.98.2s.47.32.62.57.21.55.21.9c0 .23-.05.47-.14.71s-.22.48-.39.71l-1.85 2.51h2.42v.85h-3.6v-.78ZM132.36 304.58h.9v.9l-.9.89v-1.78ZM135.19 305.35c-.27-.13-.49-.32-.66-.57a1.97 1.97 0 0 1-.31-.89h.91c.03.18.08.33.17.45s.2.2.34.26.3.09.49.09c.3 0 .53-.08.69-.24s.25-.38.25-.67v-.19c0-.32-.08-.57-.23-.74-.16-.17-.38-.26-.66-.26h-.45v-.85h.45c.25 0 .44-.07.58-.22s.21-.36.21-.63v-.2c0-.25-.07-.45-.22-.58-.15-.14-.35-.21-.62-.21-.15 0-.29.03-.41.09s-.22.15-.31.26c-.08.12-.14.27-.18.45h-.91c.06-.35.17-.65.33-.9s.37-.44.62-.57.54-.19.86-.19c.55 0 .98.15 1.28.44s.45.7.45 1.23v.11c0 .32-.09.6-.26.83s-.42.41-.73.52c.35.08.62.25.81.51.19.27.29.61.29 1.02v.11c0 .37-.07.69-.22.95s-.35.46-.63.6c-.27.14-.6.21-.99.21-.36 0-.67-.07-.94-.2ZM140.79 305.48h-.9v-5.41l-.91.56v-.93l.91-.61h.9v6.39Z"/></g></svg>