<svg xmlns="http://www.w3.org/2000/svg" viewBox="0 0 198.2 318.2"><defs><clipPath id="clippath"><path fill="none" d="M0 0h9.82v9.82H0z"/></clipPath><pattern id="_Новый_узор_4" width="9.82" height="9.82" x="0" y="0" patternTransform="matrix(1.05 0 0 1.03 35.5 517.92)" patternUnits="userSpaceOnUse"><g fill="none"><path d="M0 0h9.82v9.82H0z"/><g fill-rule="evenodd" stroke-linecap="round" stroke-width=".25" clip-path="url(#clippath)"><path stroke="#e6e6e6" stroke-linejoin="round" d="m14.73 19.65-4.91-4.92 4.91-4.91 4.91 4.91-4.91 4.92zM4.91 19.65 0 14.73l4.91-4.91 4.91 4.91-4.91 4.92zM-4.91 19.65l-4.91-4.92 4.91-4.91L0 14.73l-4.91 4.92z"/><path stroke="#e6e6e6" stroke-linejoin="round" d="M14.73 9.82 9.82 4.91 14.73 0l4.91 4.91-4.91 4.91z"/><path stroke="#999" stroke-miterlimit="3" d="M4.91 9.82 0 4.91 4.91 0l4.91 4.91-4.91 4.91z"/><path stroke="#e6e6e6" stroke-linejoin="round" d="m-4.91 9.82-4.91-4.91L-4.91 0 0 4.91l-4.91 4.91zM14.73 0 9.82-4.91l4.91-4.91 4.91 4.91L14.73 0zM4.91 0 0-4.91l4.91-4.91 4.91 4.91L4.91 0zM-4.91 0l-4.91-4.91 4.91-4.91L0-4.91-4.91 0z"/></g></g></pattern></defs><g id="Flats"><path id="fl74" fill="#fff" d="M194.2 7.65H3.99v309.04h181.77v-57.08h8.44V7.65z"/></g><path id="Grid" fill="url(#_Новый_узор_4)" d="M168.87 26.78v-4.96H104.6v53.9h87.03V26.78h-22.76z"/><g id="Mebel"><g fill="none" stroke="#6a6a6a" stroke-linecap="round" stroke-linejoin="round" stroke-width=".25"><path d="M40.91 26.78V15.72m0 0H17.9m0 0v11.06m0 0h23.01M17.9 21.16v-.35m0 0h23.01m0 0v.35m0 0H17.9M36.47 16.65v8.65m0 0h-.45m0 0v-8.65m0 0h.45M35.27 16.65v8.65m0 0h-.45m0 0v-8.65m0 0h.45M34.08 16.65v8.65m0 0h-.45m0 0v-8.65m0 0h.45M32.88 16.65v8.65m0 0h-.45m0 0v-8.65m0 0h.45M30.35 16.71l1.34 8.59m0 0-.45.04m0 0-1.34-8.59m0 0 .45-.04"/></g><g fill="none" stroke="#6a6a6a" stroke-linecap="round" stroke-linejoin="round" stroke-width=".25"><path d="M176.29 78.56h15.33m0 0v58.78m0 0h-15.33m0 0V78.56M184.08 137.34h.49m0 0V78.56m0 0h-.49m0 0v58.78M190.34 83.33h-12m0 0v.49m0 0h12m0 0v-.49M190.34 84.62h-12m0 0v.49m0 0h12m0 0v-.49M190.34 85.9h-12m0 0v.48m0 0h12m0 0v-.48M190.34 87.19h-12m0 0v.49m0 0h12m0 0v-.49M190.26 89.92l-11.91-1.44m0 0-.06.48m0 0 11.91 1.44m0 0 .06-.48"/></g><g fill="none" stroke="#6a6a6a" stroke-linecap="round" stroke-linejoin="round" stroke-width=".25"><path d="M142.42 93.78V78.56m0 0h33.88m0 0v15.22m0 0h-33.88M176.29 86.05v-.48m0 0h-33.88m0 0v.48m0 0h33.88M146.9 79.83v11.91m0 0h.49m0 0V79.83m0 0h-.49M148.18 79.83v11.91m0 0h.49m0 0V79.83m0 0h-.49M149.47 79.83v11.91m0 0h.48m0 0V79.83m0 0h-.48M150.76 79.83v11.91m0 0h.49m0 0V79.83m0 0h-.49M153.48 79.92l-1.44 11.83m0 0 .48.06m0 0 1.44-11.83m0 0-.48-.06"/></g><g fill="none" stroke="#6a6a6a" stroke-linecap="round" stroke-linejoin="round" stroke-width=".25"><path d="M142.42 122.11v15.22m0 0h33.88m0 0v-15.22m0 0h-33.88M176.29 129.85v.48m0 0h-33.88m0 0v-.48m0 0h33.88M146.9 136.06v-11.91m0 0h.49m0 0v11.91m0 0h-.49M148.18 136.06v-11.91m0 0h.49m0 0v11.91m0 0h-.49M149.47 136.06v-11.91m0 0h.48m0 0v11.91m0 0h-.48M150.76 136.06v-11.91m0 0h.49m0 0v11.91m0 0h-.49M153.48 135.98l-1.44-11.83m0 0 .48-.06m0 0 1.44 11.83m0 0-.48.06"/></g><g fill="none" stroke="#6a6a6a" stroke-linecap="round" stroke-linejoin="round" stroke-width=".25"><path d="M9.77 66.92c0 3.05 2.47 5.53 5.53 5.53s5.53-2.47 5.53-5.53-2.47-5.53-5.53-5.53-5.53 2.47-5.53 5.53ZM10.67 66.53l.95.35m0 0h1.01m0 0 .95-.35m0 0 1.13.26m0 0h1.16m0 0 1.13-.26m0 0 .95.35m0 0h1.01m0 0 .95-.35m0 0-1.72 2.3m0 0h-5.82m0 0-1.72-2.3M12.39 69.03h5.82m0 0v-.2m0 0h-5.82m0 0v.2M12.39 69.43h5.82m0 0v-.2m0 0h-5.82m0 0v.2M15.94 65.36l-.69-.07m0 0-.02.17m0 0 .37.03m0 0-1.06.88m0 0 .1.12m0 0 .49-.41m0 0 .05.06m0 0-.57.47m0 0 .09.11m0 0 .57-.47m0 0 .06.07m0 0-.46.38m0 0 .08.1m0 0 .46-.38m0 0 .06.07m0 0-.32.26m0 0 .09.11m0 0 1.09-.9M6.57 58.2h17.45m0 0v17.45m0 0H6.57m0 0V58.2"/></g><g fill="none" stroke="#6a6a6a" stroke-linecap="round" stroke-linejoin="round" stroke-width=".25"><path d="M93.08 230.08v-43.82m0 0h8.66m0 0v43.82m0 0h-8.66M93.52 230.08v-43.82M93.08 208.17h.44M93.08 230.08h.44M98.16 193.71h.58m0 0v25.41m0 0h-.58m0 0v-25.41M98.75 194.51l1.95-.41m0 0-.08-.39m0 0-1.87.39m0 0v.41M98.75 199.26h.48m0 0 .32.09m0 0 .24.24m0 0 .09.33m0 0v13m0 0-.09.32m0 0-.24.24m0 0-.32.09m0 0h-.48m0 0v-14.3M97.96 194.51l-1.95-.41m0 0 .08-.39m0 0 1.87.39m0 0v.41M98.75 218.31l1.95.41m0 0-.08.39m0 0-1.87-.39m0 0v-.41M97.99 218.31l-1.95.41m0 0 .08.39m0 0 1.87-.39m0 0v-.41M97.99 193.71h.17m0 0v25.41m0 0h-.17m0 0v-25.41"/></g><g fill="none" stroke="#6a6a6a" stroke-linecap="round" stroke-linejoin="round" stroke-width=".25"><path d="M113.25 230.08v-43.82m0 0h-8.66m0 0v43.82m0 0h8.66M112.82 230.08v-43.82M113.25 208.17h-.43M113.25 230.08h-.43M108.17 193.71h-.58m0 0v25.41m0 0h.58m0 0v-25.41M107.59 194.51l-1.95-.41m0 0 .08-.39m0 0 1.87.39m0 0v.41M107.59 199.26h-.48m0 0-.32.09m0 0-.24.24m0 0-.09.33m0 0v13m0 0 .09.32m0 0 .24.24m0 0 .32.09m0 0h.48m0 0v-14.3M108.38 194.51l1.95-.41m0 0-.08-.39m0 0-1.87.39m0 0v.41M107.59 218.31l-1.95.41m0 0 .08.39m0 0 1.87-.39m0 0v-.41M108.34 218.31l1.95.41m0 0-.08.39m0 0-1.87-.39m0 0v-.41M108.34 193.71h-.17m0 0v25.41m0 0h.17m0 0v-25.41"/></g><g fill="none" stroke="#6a6a6a" stroke-linecap="round" stroke-linejoin="round" stroke-width=".25"><path d="m52.07 136.66 3.99-3.99m0 0 .41-.4m0 0 .42-.36m0 0 .41-.32m0 0 .39-.27m0 0h.02m0 0 .36-.21m0 0 .32-.14m0 0h.02m0 0 .27-.07m0 0h.03m0 0h.21m0 0h.03m0 0h.03m0 0h.03m0 .01.15.08m0 0 .02.02m0 0h.01m0 0 1.1 1.1m0 0 1-1m0 0 5.07 5.07m-10.8 10.8-5.07-5.07m0 0 1-1m0 0-1.1-1.1m0 0h-.01m0-.01-.02-.02m0 0-.08-.15m0 0v-.03m-.01 0v-.03m0 0v-.03m0 0v-.21m0 0v-.03m0 0 .07-.27m0 0v-.02m0 0 .14-.32m0 0 .21-.37m0 0v-.02m.01 0 .27-.39m0 0 .32-.41m0 0 .36-.42m0 0 .4-.41M60.95 132.76l-8.8 8.8M60.83 132.88l-.87-.87M52.27 141.44l-.87-.87M56.04 145.44l-4.53-4.53M64.84 136.64l-4.53-4.53M57.06 133.66l-4 4M59.96 132.01c-.34-.34-1.64.4-2.9 1.66M53.06 137.66c-1.26 1.26-2 2.56-1.66 2.9M87.63 164.24l-3.99 3.99m0 0-.41.4m0 0-.42.36m0 0-.41.32m0 0-.39.27m0 0h-.02m0 .01-.37.21m0 0-.32.14m0 0h-.02m0 0-.27.07m0 0h-.03m0 0h-.21m0 0h-.03m0 0h-.03m0 0h-.03m0-.01-.15-.08m0 0-.02-.02m0 0h-.01m0-.01-1.1-1.1m0 0-1 1m0 0-5.07-5.07m10.8-10.8 5.07 5.07m0 0-1 1m0 0 1.1 1.1m0 0h0m0 .01.02.02m0 0 .08.15m0 0v.03m.01 0v.03m0 0v.03m0 0v.21m0 0v.03m0 0-.07.27m0 0v.02m0 0-.14.32m0 0-.21.36m0 0v.02m0 0-.27.39m0 0-.32.41m0 0-.36.42m0 0-.4.41M78.74 168.14l8.8-8.8M78.86 168.02l.87.87M87.42 159.46l.87.87M83.66 155.46l4.53 4.53M74.85 164.26l4.54 4.53M82.63 167.24l4-4M79.73 168.89c.34.34 1.64-.4 2.9-1.66M86.63 163.24c1.26-1.26 2-2.56 1.66-2.9M83.63 132.67l3.99 3.99m0 0 .4.41m0 0 .36.42m0 0 .32.41m0 0 .27.39m0 0v.02m0 0 .21.37m0 0 .14.32m0 0v.02m0 0 .07.27m0 0v.03m0 0v.21m0 0v.03m0 0v.03m0 0v.03m-.01 0-.08.15m0 0-.02.02m0 0h0m0 .01-1.1 1.1m0 0 1 1m0 0-5.07 5.07m-10.8-10.8 5.07-5.07m0 0 1 1m0 0 1.1-1.1m0 0h0m0 0 .03-.02m0 0 .15-.08m0 0h.03m0-.01h.03m0 0h.03m0 0h.21m0 0h.03m0 0 .27.07m0 0h.02m0 0 .32.14m0 0 .37.21m0 0h.01m0 0 .39.27m0 0 .41.32m0 0 .42.36m0 0 .41.4M87.54 141.56l-8.8-8.8M87.42 141.44l.87-.87M78.86 132.88l.87-.87M74.85 136.64l4.54-4.53M83.66 145.44l4.53-4.53M86.63 137.66l-4-4M88.29 140.57c.34-.34-.4-1.64-1.66-2.9M82.63 133.66c-1.26-1.26-2.56-2-2.9-1.66M56.06 168.23l-3.99-3.99m0 0-.4-.41m0 0-.36-.42m0 0-.32-.41m0 0-.27-.39m0 0v-.02m-.01 0-.21-.36m0 0-.14-.32m0 0v-.02m0 0-.07-.27m0 0v-.03m0 0v-.21m0 0v-.03m0 0v-.03m0 0v-.03m.01 0 .08-.15m0 0 .02-.02m0 0h.01m0-.01 1.1-1.1m0 0-1-1m0 0 5.07-5.07m10.8 10.8-5.07 5.07m0 0-1-1m0 0-1.1 1.1m0 0h-.01m0 .01-.02.02m0 0-.15.08m0 0H59m0 .01h-.03m0 0h-.03m0 0h-.21m0 0h-.03m0 0-.27-.07m0 0h-.03m0 0-.32-.14m0 0-.36-.21m0 0h-.02m0-.01-.39-.27m0 0-.41-.32m0 0-.42-.36m0 0-.41-.4M52.15 159.34l8.8 8.8M52.27 159.46l-.87.87M60.83 168.02l-.87.87M64.84 164.26l-4.53 4.53M56.04 155.46l-4.53 4.53M53.06 163.24l4 4M51.4 160.33c-.34.34.4 1.64 1.66 2.9M57.06 167.24c1.26 1.26 2.56 2 2.9 1.66M55.16 150.45c0 8.11 6.58 14.69 14.69 14.69s14.69-6.57 14.69-14.69-6.58-14.69-14.69-14.69-14.69 6.58-14.69 14.69Z"/></g><g fill="none" stroke="#6a6a6a" stroke-linecap="round" stroke-linejoin="round" stroke-width=".25"><path d="M185.48 234.6c1.36 0 2.46 1.1 2.46 2.46s-1.1 2.46-2.46 2.46-2.46-1.1-2.46-2.46 1.1-2.46 2.46-2.46Z"/><path d="M185.48 236.32c.41 0 .74.33.74.74s-.33.74-.74.74-.74-.33-.74-.74.33-.74.74-.74ZM185.48 176.82c1.36 0 2.46 1.1 2.46 2.46s-1.1 2.46-2.46 2.46-2.46-1.1-2.46-2.46 1.1-2.46 2.46-2.46Z"/><path d="M185.48 178.54c.41 0 .74.33.74.74s-.33.74-.74.74-.74-.33-.74-.74.33-.74.74-.74ZM139.99 230.3v-44.26m0 0h49.18m0 0v44.26m0 0h-49.18M138.76 229.07v-41.8m0 0 .09-.47m0 0 .27-.4m0 0 .4-.27m0 0 .47-.09m0 0v44.26m0 0-.47-.09m0 0-.4-.27m0 0-.27-.4m0 0-.09-.47M191.63 230.3v-44.26m0 0h-2.46m0 0v44.26m0 0h2.46M191.63 186.04v44.26m0 0h-1.23m0 0v-44.26m0 0h1.23M191.63 184.81v-11.06m0 0h-12.29m0 0v11.06m0 0h12.29M191.63 231.53v11.06m0 0h-12.29m0 0v-11.06m0 0h12.29M187.94 204.23v-16.72m0 0-.07-.17m0 0-.17-.07m0 0h-8.11m0 0-.17.07m0 0-.07.17m0 0v16.72m0 0 .07.17m0 0 .17.07m0 0h8.11m0 0 .17-.07m0 0 .07-.17M187.94 212.1v16.72m0 0-.07.17m0 0-.17.07m0 0h-8.11m0 0-.17-.07m0 0-.07-.17m0 0V212.1m0 0 .07-.17m0 0 .17-.07m0 0h8.11m0 0 .17.07m0 0 .07.17M180 230.3v-1.23M180 211.86v-7.38M180 187.27v-1.23M176.74 230.3v-44.26m0 0h-12.16m0 0 9.7 44.26m0 0h2.46M186.04 239.45l-.56-2.39m0 0-2.23-1.03m0 0 2.23 1.03m0 0 2.31-.85M186.04 176.88l-.56 2.39m0 0-2.23 1.03m0 0 2.23-1.03m0 0 2.31.85"/></g><g fill="none" stroke="#6a6a6a" stroke-linecap="round" stroke-linejoin="round" stroke-width=".25"><path d="M168.18 162.5h-4.39m0 0h-.45m0 0-.43-.03m0 0-.4-.05m0 0-.36-.07m0 0h-.01m0 0-.32-.08m0 0-.26-.1m0 0h-.02m0 0-.19-.11m0 0h-.02m0-.01-.12-.12m0 0v-.02m-.01 0v-.02m-.01 0v-.02m0 0-.04-.12m0 0v-.02m0 0h0m0-.01v-1.21m0 0h-1.1m0 0v-4.16m11.88 0v4.16m0 0h-1.1m0 0v1.21m0 0h0m0 .01v.02m0 0-.04.12m0 0v.02m0 0v.02m-.01 0v.02m-.01 0-.12.12m0 0h-.02m0 .01-.19.11m0 0h-.02m0 0-.26.1m0 0-.32.09m0 0h-.01m0 0-.36.07m0 0-.4.05m0 0-.43.03m0 0h-.45M161.14 159.76h9.68M161.27 159.76v.96M170.69 159.76v.96M170.82 156.32v4.15M161.14 156.32v4.15M163.78 161.41h4.4M161.27 160.72c0 .38 1.12.68 2.51.68M168.18 161.41c1.39 0 2.51-.31 2.51-.69M140.79 140.17h50.79v16.08h-50.79z"/></g><g fill="none" stroke="#6a6a6a" stroke-linecap="round" stroke-linejoin="round" stroke-width=".25"><path d="M28.18 93.62V78.56m0 0h15.56m0 0v15.06m0 0H28.18M38.48 86.09h-5.02M37.74 87.86l-3.55-3.55M35.97 88.6v-5.02M34.19 87.86l3.55-3.55"/></g><path fill="none" stroke="#6a6a6a" stroke-linecap="round" stroke-linejoin="round" stroke-width=".25" d="M20.13 135.68v-12.8m0 0-.15-.36m0 0-.35-.15m0 0H8.08m0 0-.35.15m0 0-.15.36m0 0v12.8m0 0 .15.35m0 0 .35.15m0 0h11.55m0 0 .35-.15m0 0 .15-.35M18.88 134.42v-10.29M18.38 123.63h-7.79M10.09 124.13v10.29M10.59 134.92h7.79"/><path fill="#999" fill-rule="evenodd" d="M18.88 134.42v.07s.07-.03.07-.07-.03-.07-.07-.07-.07.03-.07.07.03.07.07.07v-.07Z"/><path fill="none" stroke="#6a6a6a" stroke-linecap="round" stroke-linejoin="round" stroke-width=".25" d="M18.38 123.63c.28 0 .5.23.5.5M10.09 124.13c0-.28.22-.5.5-.5M10.59 134.92c-.28 0-.5-.22-.5-.5M18.88 134.42c0 .28-.22.5-.5.5M13.3 129.5l.16-.07m0 0 .07-.16m0 0-.07-.16m0 0-.16-.07m0 0H8.33m0 0-.16.07m0 0-.07.16m0 0 .07.16m0 0 .16.07m0 0h4.97M9.62 129.78v-.27m0 0H8.34m0 0-.16-.07m0 0-.07-.16m0 0 .07-.16m0 0 .16-.07m0 0h1.28m0 0v-.27m0 0H7.99m0 0v1m0 0h1.63M10.52 129.77v-.27m0 0h-.88m0 0v.27m0 0h.88M10.52 128.78h-.88m0 0v.27m0 0h.88m0 0v-.27M22.27 78.56v91.82m0 0H6.7m0 0V78.56m0 0h15.56"/><g fill="none" stroke="#6a6a6a" stroke-linecap="round" stroke-linejoin="round" stroke-width=".25"><path d="M20.64 167.18v-14.56m0 0H8.34m0 0v14.56m0 0h12.3M13.14 159.9H9.62M9.62 159.9v-.73M13.14 159.9v-.73M13.14 154.02H9.62M9.62 154.74v-.72M13.14 154.74v-.72M11.24 165.87c-1.01 0-1.82-.82-1.82-1.82s.82-1.82 1.82-1.82 1.82.82 1.82 1.82-.81 1.82-1.82 1.82ZM16.71 165.84c-1.46 0-2.64-1.18-2.64-2.64s1.18-2.64 2.64-2.64 2.64 1.18 2.64 2.64-1.18 2.64-2.64 2.64Z"/><path d="M16.71 164.71c-.83 0-1.51-.67-1.51-1.51s.67-1.51 1.51-1.51 1.51.67 1.51 1.51-.67 1.51-1.51 1.51ZM11.36 158.71c-.97 0-1.76-.79-1.76-1.76s.79-1.76 1.76-1.76 1.76.79 1.76 1.76-.79 1.76-1.76 1.76ZM17.07 158.47c-1.25 0-2.26-1.01-2.26-2.26s1.01-2.26 2.26-2.26 2.26 1.01 2.26 2.26-1.01 2.26-2.26 2.26Z"/></g><g fill="none" stroke="#6a6a6a" stroke-linecap="round" stroke-linejoin="round" stroke-width=".25"><path d="M16.18 106.56c-1.25 0-2.27 1.01-2.27 2.27s1.01 2.27 2.27 2.27 2.27-1.01 2.27-2.27-1.01-2.27-2.27-2.27Z"/><path d="M16.18 106.9a1.92 1.92 0 1 0 .001 3.841 1.92 1.92 0 0 0-.001-3.841ZM16.74 111.3a1.71 1.71 0 1 0-.002 3.418 1.71 1.71 0 0 0 .002-3.418Z"/><path d="M16.74 112.05a.96.96 0 1 0 0 1.92.96.96 0 0 0 0-1.92ZM17.65 106.12v.64m0 0h.8m0 0v8.32m0 0h-.8m0 0v.64M11 107.09v6.4m0 0h.32m0 0v-.48m0 0h-.16m0 0v-5.44m0 0h.16m0 0v-.48m0 0H11M11.32 107.09l.07.03m.21.09.07.03m.21.09.07.03m.21.09.07.03m.21.09.07.03m.21.09.07.03m.21.09.07.03m.21.09.07.03m.21.09.07.03M11.32 113.49l.07-.03m.21-.09.07-.03m.21-.09.07-.03m.21-.09.07-.03m.21-.09.07-.03m.21-.09.07-.03m.21-.09.07-.03m.21-.09.07-.03m.21-.09.07-.03M11.32 107.09v.05m0 .08v.08m0 .08v.08m0 .08v.05m0 0 .03.03m.18.14.06.05m.17.14.06.05m.18.14.06.05m.18.14.06.05m.18.14.06.05m.18.14.06.05m.18.14.06.05m.18.14.06.05m.18.14.06.05m.18.14.06.05m.18.14.03.03M11.32 113.49v-.05m0-.07v-.08m0-.08v-.07m0-.08v-.05m0 0 .03-.03m.18-.14.06-.05m.17-.14.06-.05m.18-.14.06-.05m.18-.14.06-.05m.18-.14.06-.05m.18-.14.06-.05m.18-.14.06-.05m.18-.14.06-.05m.18-.14.06-.05m.18-.14.06-.05m.18-.14.03-.03M22.26 118.7H7.2m0 0v-15.56m0 0h15.06m0 0v15.56"/></g><path fill="none" stroke="#6a6a6a" stroke-linecap="round" stroke-linejoin="round" stroke-width=".25" d="M28.19 93.61H6.72V78.55h21.47zM43.23 191.14h16.88v34.06H43.23z"/><g fill="none" stroke="#6a6a6a" stroke-linecap="round" stroke-linejoin="round" stroke-width=".25"><path d="M30.87 245.3v2.42M30.43 248.16H7.14M6.7 247.72v-2.42M7.14 244.87h23.29M6.7 245.3v-19.11M6.7 226.19h1.54M12.39 226.19h1.31M30.87 226.85v17.36M30.21 244.87H13.7M13.04 244.21v-17.36M13.7 226.19h16.51M7.58 226.85v17.36M8.24 244.87h4.15M13.04 244.21v-17.36M12.39 226.19H8.24M10.66 244.21v-17.36M30.87 247.72c0 .24-.2.44-.44.44M7.14 248.16c-.24 0-.44-.2-.44-.44M6.7 245.3c0-.24.2-.44.44-.44M30.43 244.87c.24 0 .44.2.44.44M30.87 244.21c0 .36-.3.66-.66.66M13.7 244.87a.66.66 0 0 1-.66-.66M13.04 226.85c0-.36.29-.66.66-.66M30.21 226.19c.36 0 .66.3.66.66M8.24 244.87a.66.66 0 0 1-.66-.66M13.04 244.21c0 .36-.29.66-.66.66"/><path d="M12.39 226.19c.36 0 .66.3.66.66M7.58 226.85c0-.36.29-.66.66-.66M10.66 244.21c0 .36-.29.66-.66.66M10 226.19c.36 0 .66.3.66.66M6.7 226.19v-21.96M6.7 226.19h1.54M6.7 204.23h1.54M12.39 226.19h1.31M12.39 204.23h1.31M30.87 204.89v20.65M30.21 226.19H13.7M13.04 225.54v-20.65M13.7 204.23h16.51M7.58 204.89v20.65M8.24 226.19h4.15M13.04 225.54v-20.65M12.39 204.23H8.24M10.66 225.54v-20.65M30.87 225.54c0 .36-.3.66-.66.66M13.7 226.19c-.36 0-.66-.3-.66-.66M13.04 204.89c0-.36.29-.66.66-.66M30.21 204.23c.36 0 .66.3.66.66M8.24 226.19c-.36 0-.66-.3-.66-.66"/><path d="M13.04 225.54c0 .36-.29.66-.66.66M12.39 204.23c.36 0 .66.3.66.66M7.58 204.89c0-.36.29-.66.66-.66M10.66 225.54c0 .36-.29.66-.66.66M10 204.23c.36 0 .66.3.66.66M30.87 185.12v-2.42M30.43 182.26H7.14M6.7 182.7v2.42M7.14 185.56h23.29M6.7 185.12v19.11M6.7 204.23h1.54M12.39 204.23h1.31M30.87 203.57v-17.35M30.21 185.56H13.7M13.04 186.22v17.35M13.7 204.23h16.51M7.58 203.57v-17.35M8.24 185.56h4.15M13.04 186.22v17.35M12.39 204.23H8.24M10.66 186.22v17.35M30.43 182.26c.24 0 .44.2.44.44M6.7 182.7c0-.24.2-.44.44-.44M7.14 185.56c-.24 0-.44-.2-.44-.44M30.87 185.12c0 .24-.2.44-.44.44M30.21 185.56c.36 0 .66.3.66.66M13.04 186.22c0-.36.29-.66.66-.66M13.7 204.23a.66.66 0 0 1-.66-.66M30.87 203.57c0 .36-.3.66-.66.66M7.58 186.22c0-.36.29-.66.66-.66"/><path d="M12.39 185.56c.36 0 .66.3.66.66M13.04 203.57c0 .36-.29.66-.66.66M8.24 204.23a.66.66 0 0 1-.66-.66M10 185.56c.36 0 .66.3.66.66M10.66 203.57c0 .36-.29.66-.66.66M39.65 226.85v17.36M38.99 244.86h-7.46M30.87 244.21v-17.36M31.52 226.19h7.47M39.65 244.21c0 .36-.29.66-.66.66M31.52 244.86c-.36 0-.66-.3-.66-.66M30.87 226.85c0-.36.29-.66.66-.66M38.99 226.19c.36 0 .66.3.66.66"/></g><g fill="#fff" stroke="#6a6a6a" stroke-linecap="round" stroke-linejoin="round" stroke-width=".25"><path d="M168.86 26.78h22.77v48.94h-22.77zM170.68 33.34l.07-.81m0 0 .21-.79m0 0 .34-.74m0 0 .46-.67m0 0 .56-.58m0 0 .65-.47m0 0 .72-.34m0 0 .77-.21m0 0 .79-.07m0 0h10.02m0 0 .79.07m0 0 .77.21m0 0 .72.34m0 0 .65.47m0 0 .56.58m0 0 .45.67m0 0 .34.74m0 0 .21.79m0 0 .07.81m0 0V64m0 0-.15 1.71m0 0-.43 1.66m0 0-.7 1.55m0 0-.96 1.41m0 0-1.18 1.21m0 0-1.37.98m0 0-1.51.73m0 0-1.61.44m0 0-1.66.15m0 0-1.66-.15m0 0-1.61-.44m0 0-1.51-.73m0 0-1.37-.98m0 0-1.18-1.21m0 0-.96-1.41m0 0-.7-1.55m0 0-.43-1.66m0 0-.15-1.71m0 0V33.34"/><path d="M180.24 33.73c.44 0 .8.36.8.81s-.36.81-.8.81-.8-.36-.8-.81.36-.81.8-.81Z"/></g><g fill="#fff" stroke="#6a6a6a" stroke-linecap="round" stroke-linejoin="round" stroke-width=".25"><path d="m107.87 31.66.15 1.23.34 1.2.52 1.12.7.9.91.68 1.05.43 1.13.15 1.13-.15 1.05-.43.91-.68.7-.9.52-1.12.34-1.2.15-1.23-.04-1.24-.89-8.42h-7.74l-.89 8.42-.04 1.24zM109.68 26.15h2.99M112.67 26.15h3"/><path d="M112.67 37.16c-.8 0-1.58-.23-2.23-.64M110.45 36.52c-1.61-1.25-2.48-3.08-2.36-4.96M108.09 31.56c-.05-1.9.5-3.77 1.59-5.4M115.66 26.15c1.09 1.64 1.65 3.51 1.59 5.4M117.26 31.56c.12 1.88-.75 3.71-2.36 4.96M114.9 36.52c-.65.41-1.42.64-2.23.64"/></g><g fill="#fff" stroke="#6a6a6a" stroke-linecap="round" stroke-linejoin="round" stroke-width=".25"><path d="M151.43 22.19v10.16l.12.29.29.12h16.61l.29-.12.12-.29V22.19l-.12-.29-.29-.12h-16.61l-.29.12-.12.29zM167.63 24.8h-7.15m-.66 0h-7.15M152.25 25.21v6.32M152.66 31.94h14.97M168.04 31.53v-6.32"/><path d="M152.25 25.21c0-.23.18-.41.41-.41M152.66 31.94c-.23 0-.41-.18-.41-.41M168.04 31.53c0 .23-.18.41-.41.41M167.63 24.8c.23 0 .41.18.41.41M160.47 26.54c.13.1.22.26.22.44s-.09.34-.22.44v-.88Zm-.66.88c-.13-.1-.22-.26-.22-.44s.09-.34.22-.44v.88ZM159.82 22.17h.66m0 0v5.63m0 0-.19.22m0 0H160m0 0-.19-.22m0 0v-5.63M162.52 23.16v-1.18m0 0h-.07m0 0v-.1m0 0h-.21m0 0v-.1m0 0h1.37m0 0v.1m0 0h-.21m0 0v.1m0 0h-.07m0 0v1.18m0 0h-.23m0 0v.3m0 0h.78m0 0v.36m0 0h-1.92m0 0v-.36m0 0h.78m0 0v-.3m0 0h-.23M157.77 23.16v-1.18m0 0h.07m0 0v-.1m0 0h.21m0 0v-.1m0 0h-1.37m0 0v.1m0 0h.21m0 0v.1m0 0h.07m0 0v1.18m0 0h.23m0 0v.3m0 0h-.78m0 0v.36m0 0h1.92m0 0v-.36m0 0h-.78m0 0v-.3m0 0h.23M163.11 23.46l-.05.05M162.75 23.46l.06.05M163.11 23.16h-.36M157.18 23.46l.05.05M157.54 23.46l-.06.05M157.18 23.16h.36M162.93 23.46c.1 0 .18.08.18.18s-.08.18-.18.18-.18-.08-.18-.18.08-.18.18-.18ZM157.36 23.46c.1 0 .18.08.18.18s-.08.18-.18.18-.18-.08-.18-.18.08-.18.18-.18Z"/></g><g fill="#fff" stroke="#6a6a6a" stroke-linecap="round" stroke-linejoin="round" stroke-width=".25"><path d="M133.99 22.19v10.16l.12.29.29.12h16.61l.29-.12.12-.29V22.19l-.12-.29-.29-.12H134.4l-.29.12-.12.29zM150.19 24.8h-7.15m-.66 0h-7.15M134.81 25.21v6.32M135.22 31.94h14.97M150.6 31.53v-6.32"/><path d="M134.81 25.21c0-.23.18-.41.41-.41M135.22 31.94c-.23 0-.41-.18-.41-.41M150.6 31.53c0 .23-.18.41-.41.41M150.18 24.8c.23 0 .41.18.41.41M143.03 26.54c.13.1.22.26.22.44s-.09.34-.22.44v-.88Zm-.66.88c-.13-.1-.22-.26-.22-.44s.09-.34.22-.44v.88ZM142.37 22.17h.66m0 0v5.63m0 0-.19.22m0 0h-.29m0 0-.19-.22m0 0v-5.63M145.08 23.16v-1.18m0 0h-.07m0 0v-.1m0 0h-.21m0 0v-.1m0 0h1.37m0 0v.1m0 0h-.21m0 0v.1m0 0h-.07m0 0v1.18m0 0h-.23m0 0v.3m0 0h.78m0 0v.36m0 0h-1.92m0 0v-.36m0 0h.78m0 0v-.3m0 0h-.23M140.33 23.16v-1.18m0 0h.07m0 0v-.1m0 0h.21m0 0v-.1m0 0h-1.37m0 0v.1m0 0h.21m0 0v.1m0 0h.07m0 0v1.18m0 0h.23m0 0v.3m0 0h-.78m0 0v.36m0 0h1.92m0 0v-.36m0 0h-.78m0 0v-.3m0 0h.23M145.67 23.46l-.05.05M145.31 23.46l.05.05M145.67 23.16h-.36M139.74 23.46l.05.05M140.1 23.46l-.06.05M139.74 23.16h.36M145.49 23.46c.1 0 .18.08.18.18s-.08.18-.18.18-.18-.08-.18-.18.08-.18.18-.18ZM139.92 23.46c.1 0 .18.08.18.18s-.08.18-.18.18-.18-.08-.18-.18.08-.18.18-.18Z"/></g><path fill="none" stroke="#6a6a6a" stroke-dasharray="0 0 3 3" stroke-linecap="round" stroke-linejoin="round" stroke-width=".25" d="M22.27 170.37h21.48V93.62"/><g fill="none" stroke="#6a6a6a" stroke-linecap="round" stroke-linejoin="round" stroke-width=".25"><path d="M6.59 26.78h17.43m0 0V58.2m0 0H6.59m0 0V26.78M15.44 58.2h.55m0 0V26.78m0 0h-.55m0 0V58.2M22.56 31.99H8.92m0 0v.53m0 0h13.64m0 0v-.53M22.56 33.39H8.92m0 0v.53m0 0h13.64m0 0v-.53M22.56 34.79H8.92m0 0v.53m0 0h13.64m0 0v-.53M22.56 36.2H8.92m0 0v.53m0 0h13.64m0 0v-.53M22.46 39.17 8.92 37.6m0 0-.07.52m0 0 13.54 1.57m0 0 .07-.53"/></g></g><g id="Walls_Inside" fill="#2d2d2c"><path d="M0 13.15h6.57v132.88H0zM191.63 13.15h6.57v132.88h-6.57z"/><path d="M3.29 78.56v-2.83h39.04v2.83zM102.5 78.55v-2.83h90.6v2.83zM139.58 140.17v-2.83h53.52v2.83zM101.76 14.78h2.83v35.69h-2.83z"/><path d="M103.18 21.82v-1.7h66.71v1.7zM40.91 14.78h2.83v19.24h-2.83zM40.91 53.89h2.83v24.66h-2.83zM101.76 70.34h2.83v12.83h-2.83zM101.76 107.67h2.83v144.34h-2.83zM139.58 77.28h2.83v16.5h-2.83zM139.58 122.11h2.83v18.06h-2.83z"/><path d="M168.87 14.78h2.83v11.67h-2.83z"/><path d="M168.87 26.78v-2.83h23.92v2.83zM15.07 14.78h2.83v11.67h-2.83z"/><path d="M2.58 26.78v-2.83H17.9v2.83zM184.92 258.69h2.83v58.04h-2.83zM1.87 258.69H4.7v58.04H1.87z"/></g><g id="Walls_Outside"><g fill="none" stroke="#000" stroke-linecap="round" stroke-linejoin="round"><path stroke-width=".22" d="M95.75 318.07v-1.34M139.98 318.07v-1.34"/><path stroke-width=".25" d="M139.98 316.73h-3.17M136.81 316.73v1.34M136.81 318.07h3.17M98.92 316.73h-3.17M95.75 316.73v1.34M95.75 318.07h3.17M97.33 318.07h1.59M98.92 318.07v-1.34M136.81 317.4H98.92M136.81 316.73H98.92M98.92 318.07h37.89M95.75 318.07h1.59M95.75 318.07h0"/><path stroke-width=".22" d="M139.98 318.07v-1.34M139.98 318.07v-1.34M95.75 318.07v-1.34M95.75 318.07v-1.34"/></g><g fill="none" stroke="#000" stroke-linecap="round" stroke-linejoin="round"><path stroke-width=".22" d="M164.55 318.07v-1.34M187.75 318.07v-1.34"/><path stroke-width=".25" d="M187.75 316.73h-3.37M184.38 316.73v1.34M184.38 318.07h3.37M167.92 316.73h-3.37M164.55 316.73v1.34M164.55 318.07h3.37M166.23 318.07h1.69M167.92 318.07v-1.34M184.38 317.4h-16.46M184.38 316.73h-16.46M167.92 318.07h16.46M164.55 318.07h1.68M164.55 318.07h0"/><path stroke-width=".22" d="M187.75 318.07v-1.34M187.75 318.07v-1.34M164.55 318.07v-1.34M164.55 318.07v-1.34"/></g><g fill="none" stroke="#000" stroke-linecap="round" stroke-linejoin="round"><path stroke-width=".22" d="M1.87 318.07v-1.34M72.03 318.07v-1.34"/><path stroke-width=".25" d="M72.03 316.73h-3.25M68.79 316.73v1.34M68.79 318.07h3.24M5.11 316.73H1.87M1.87 316.73v1.34M1.87 318.07h3.24M3.49 318.07h1.62M5.11 318.07v-1.34M68.79 317.4H5.11M68.79 316.73H5.11M5.11 318.07h63.67M1.87 318.07h1.62M1.87 318.07h0"/><path stroke-width=".22" d="M72.03 318.07v-1.34M72.03 318.07v-1.34M1.87 318.07v-1.34M1.87 318.07v-1.34"/></g><g fill="none" stroke="#000" stroke-linecap="round" stroke-linejoin="round" stroke-width=".25"><path d="M95.75 317.4H72.03M95.75 316.73H72.03M72.03 318.07h23.72"/></g><g fill="none" stroke="#000" stroke-linecap="round" stroke-linejoin="round" stroke-width=".25"><path d="M164.55 317.4h-24.57M164.55 316.73h-24.57M139.98 318.07h24.57"/></g><g fill="none" stroke="#000" stroke-linecap="round" stroke-linejoin="round"><path stroke-width=".22" d="M74.19 255.73v-7.57M74.19 259.65v-4.03M74.19 255.62v-1.34M92.25 254.39v-6.23M92.25 259.65v-4.03M92.25 255.62v-1.34"/><path stroke-width=".25" d="M92.25 259.65H74.19M92.25 248.16H74.19M92.25 254.28h-2.72M89.53 254.28v1.34M89.53 255.62h2.72M76.91 254.28h-2.72M74.19 254.28v1.34M74.19 255.62h2.72M75.55 255.62h1.35M76.9 255.62v-1.34M89.53 254.95H76.91M89.53 254.28H76.91M76.9 255.62h12.63M74.19 255.62h1.36M74.19 255.62h0"/><path stroke-width=".22" d="M92.25 255.62v-1.34M92.25 255.62v-1.34M92.25 259.65v-4.03M92.25 254.39v-6.23M74.19 255.62v-1.34M74.19 255.62v-1.34M74.19 259.65v-4.03M74.19 255.73v-7.57M92.25 259.65v-11.49"/></g><g fill="none" stroke="#000" stroke-linecap="round" stroke-linejoin="round"><path stroke-width=".22" d="M14.58 255.73v-7.57M14.58 259.65v-4.03M14.58 255.62v-1.34M31.87 254.39v-6.23M31.87 259.65v-4.03M31.87 255.62v-1.34"/><path stroke-width=".25" d="M31.87 259.65H14.58M31.87 248.16H14.58M31.87 254.28h-3.2M28.67 254.28v1.34M28.67 255.62h3.2M17.77 254.28h-3.19M14.58 254.28v1.34M14.58 255.62h3.19M16.18 255.62h1.59M17.77 255.62v-1.34M28.67 254.95h-10.9M28.67 254.28h-10.9M17.77 255.62h10.9M14.58 255.62h1.6M14.58 255.62h0"/><path stroke-width=".22" d="M31.87 255.62v-1.34M31.87 255.62v-1.34M31.87 259.65v-4.03M31.87 254.39v-6.23M14.58 255.62v-1.34M14.58 255.62v-1.34M14.58 259.65v-4.03M14.58 255.73v-7.57M31.87 259.65v-11.49"/></g><path fill="none" stroke="#000" stroke-linecap="round" stroke-linejoin="round" stroke-width=".25" d="M45.56 249.02c.85 2.31 1.08 3.5 1.2 5.97"/><path fill="#2d2d2c" fill-rule="evenodd" d="m45.54 248.64.28.66-13.74 6.07h-.21v-.72l13.67-6.01z"/><path fill="none" stroke="#000" stroke-linecap="round" stroke-linejoin="round" stroke-width=".25" d="M48.98 243.67c-1.56 4.26-1.99 6.45-2.22 10.99"/><path fill="#2d2d2c" fill-rule="evenodd" d="m49.01 242.98-.51 1.21 25.3 11.18h.39v-1.32l-25.18-11.07z"/><g fill="none" stroke="#000" stroke-linecap="round" stroke-linejoin="round"><path stroke-width=".22" d="M170.51 255.73v-7.57M170.51 259.65v-4.03M170.51 255.62v-1.34M183.17 254.39v-6.23M183.17 259.65v-4.03M183.17 255.62v-1.34"/><path stroke-width=".25" d="M183.17 259.65h-12.66M183.17 248.16h-12.66M183.17 254.28h-2.72M180.45 254.28v1.34M180.45 255.62h2.72M173.23 254.28h-2.72M170.51 254.28v1.34M170.51 255.62h2.72M171.87 255.62h1.36M173.23 255.62v-1.34M180.45 254.95h-7.22M180.45 254.28h-7.22M173.23 255.62h7.22M170.51 255.62h1.36M170.51 255.62h0"/><path stroke-width=".22" d="M183.17 255.62v-1.34M183.17 255.62v-1.34M183.17 259.65v-4.03M183.17 254.39v-6.23M170.51 255.62v-1.34M170.51 255.62v-1.34M170.51 259.65v-4.03M170.51 255.73v-7.57M183.17 259.65v-11.49"/></g><g fill="none" stroke="#000" stroke-linecap="round" stroke-linejoin="round"><path stroke-width=".22" d="M112.75 255.73v-7.57M112.75 259.65v-4.03M112.75 255.62v-1.34M128.19 254.39v-6.23M128.19 259.65v-4.03M128.19 255.62v-1.34"/><path stroke-width=".25" d="M128.19 259.65h-15.44M128.19 248.16h-15.44M128.19 254.28h-3.2M124.99 254.28v1.34M124.99 255.62h3.2M115.95 254.28h-3.2M112.75 254.28v1.34M112.75 255.62h3.2M114.35 255.62h1.6M115.95 255.62v-1.34M124.99 254.95h-9.04M124.99 254.28h-9.04M115.95 255.62h9.04M112.75 255.62h1.6M112.75 255.62h0"/><path stroke-width=".22" d="M128.19 255.62v-1.34M128.19 255.62v-1.34M128.19 259.65v-4.03M128.19 254.39v-6.23M112.75 255.62v-1.34M112.75 255.62v-1.34M112.75 259.65v-4.03M112.75 255.73v-7.57M128.19 259.65v-11.49"/></g><path fill="none" stroke="#000" stroke-linecap="round" stroke-linejoin="round" stroke-width=".25" d="M141.88 249.02c.85 2.31 1.08 3.5 1.2 5.97"/><path fill="#2d2d2c" fill-rule="evenodd" d="m141.86 248.64.28.66-13.74 6.07h-.21v-.72l13.67-6.01z"/><path fill="none" stroke="#000" stroke-linecap="round" stroke-linejoin="round" stroke-width=".25" d="M145.3 243.67c-1.56 4.26-1.99 6.45-2.22 10.99"/><path fill="#2d2d2c" fill-rule="evenodd" d="m145.33 242.98-.51 1.21 25.3 11.18h.39v-1.32l-25.18-11.07zM14.58 259.65v-11.48L0 248.16v11.49h14.58zM112.75 259.65v-11.48l-20.5-.01v11.49h20.5zM198.19 259.65v-11.48l-15.02-.01v11.49h15.02z"/><path fill="#2d2d2c" d="M191.63 146.03h6.57v106.43h-6.57zM0 146.03h6.57v106.43H0zM0 7.69h43.75v7.96H0zM74.15 7.69h124.04v7.96H74.15z"/></g><g id="Doors"><path fill="none" stroke="#000" stroke-linecap="round" stroke-linejoin="round" stroke-width=".29" d="M111.66 52.07c-3.09-1.13-4.67-1.44-7.96-1.61"/><path fill="#2d2d2c" fill-rule="evenodd" d="m112.16 52.1-.88-.38-8.1 18.33v.29h.96l8.02-18.24z"/><path fill="none" stroke="#000" stroke-linecap="round" stroke-linejoin="round" stroke-width=".29" d="M51.17 35.63c-3.09-1.13-4.67-1.44-7.96-1.61"/><path fill="#2d2d2c" fill-rule="evenodd" d="m51.67 35.65-.88-.37-8.1 18.33v.28h.96l8.02-18.24z"/><path fill="none" stroke="#000" stroke-linecap="round" stroke-linejoin="round" stroke-width=".29" d="M113.63 105.69c-3.81 1.4-5.76 1.78-9.82 1.98"/><path fill="#2d2d2c" fill-rule="evenodd" d="m114.25 105.66-1.08.46-9.99-22.6v-.35h1.18l9.89 22.49z"/><path fill="none" stroke="#000" stroke-linecap="round" stroke-linejoin="round" stroke-width=".29" d="M46.21.78c-1.76 4.8-2.24 7.26-2.5 12.37"/><path fill="#2d2d2c" fill-rule="evenodd" d="m46.25 0-.58 1.37 28.48 12.58h.44v-1.49L46.25 0z"/></g><g id="Sizes"><path d="M96.83 293.63c-.27-.15-.47-.37-.61-.66-.14-.29-.21-.64-.21-1.04a3.99 3.99 0 0 1 .32-1.52c.02-.04.04-.09.06-.13l.06-.12 1.39-2.75h.97l-1.63 3.19v-.16c.08-.14.18-.25.33-.32s.3-.11.49-.11c.33 0 .62.08.85.22s.42.37.54.65c.12.29.18.63.18 1.03 0 .42-.07.77-.21 1.06-.14.29-.34.52-.61.67-.27.15-.59.23-.96.23s-.7-.08-.96-.23Zm1.62-.9c.15-.18.23-.43.23-.75 0-.36-.08-.64-.24-.83-.16-.19-.39-.29-.69-.29-.27 0-.47.1-.62.29s-.22.47-.22.83c0 .33.08.58.23.75.15.17.37.26.65.26s.5-.09.66-.26ZM100.67 292.89h.9v.9l-.9.89v-1.78ZM102.71 292.03l2.14-4.63h.92l-2.09 4.57h3.13v.83h-4.11v-.78Zm2.76-2h.87v3.76h-.87v-3.76ZM107.82 293.01l2.23-2.97c.13-.17.23-.35.3-.53.07-.18.11-.35.11-.51 0-.26-.08-.46-.22-.6s-.36-.21-.64-.21c-.26 0-.47.08-.63.23-.16.15-.26.37-.29.65s-.93 0-.93 0c.05-.37.16-.68.32-.94.16-.26.37-.46.63-.59.26-.14.56-.2.89-.2.38 0 .71.07.98.2s.47.32.62.57.21.55.21.9c0 .23-.05.47-.14.71s-.22.48-.39.71l-1.85 2.51h2.42v.85h-3.6v-.78ZM135.71 47.12c-.27-.15-.47-.37-.61-.66-.14-.29-.21-.64-.21-1.04a3.99 3.99 0 0 1 .32-1.52c.02-.04.04-.09.06-.13l.06-.12 1.39-2.75h.97l-1.63 3.19v-.16c.08-.14.18-.25.33-.32s.3-.11.49-.11c.33 0 .62.08.85.22s.42.37.54.65c.12.29.18.63.18 1.03 0 .42-.07.77-.21 1.06-.14.29-.34.52-.61.67-.27.15-.59.23-.96.23s-.7-.08-.96-.23Zm1.62-.9c.15-.18.23-.43.23-.75 0-.36-.08-.64-.24-.83-.16-.19-.39-.29-.69-.29-.27 0-.47.1-.62.29s-.22.47-.22.83c0 .33.08.58.23.75.15.17.37.26.65.26s.5-.09.66-.26ZM139.55 46.39h.9v.9l-.9.89V46.4ZM141.58 46.5l2.23-2.97c.13-.17.23-.35.3-.53.07-.18.11-.35.11-.51 0-.26-.07-.46-.22-.6s-.36-.21-.64-.21c-.26 0-.47.08-.63.23-.16.15-.26.37-.29.65s-.93 0-.93 0c.05-.37.16-.68.32-.94.16-.26.37-.46.63-.59.26-.14.55-.2.89-.2.38 0 .71.07.98.2s.47.32.62.57.21.55.21.9c0 .23-.05.47-.14.71s-.22.48-.39.71l-1.85 2.51h2.42v.85h-3.6v-.78ZM147.25 47.16a1.61 1.61 0 0 1-.61-.55c-.16-.24-.26-.53-.31-.87s.9 0 .9 0c.03.24.13.42.28.55.16.13.36.2.61.2.29 0 .51-.1.67-.29.16-.19.24-.46.24-.81v-.54c0-.35-.08-.61-.24-.81-.16-.19-.38-.29-.67-.29-.16 0-.3.04-.45.13s-.27.21-.38.37h-.82v-3.37h3.26v.85h-2.36v1.44c.11-.09.24-.16.37-.21s.28-.08.42-.08c.37 0 .68.08.95.23.26.15.46.38.6.67.14.29.21.65.21 1.06v.54c0 .41-.07.77-.21 1.06s-.35.52-.62.67c-.27.15-.59.23-.97.23-.32 0-.61-.06-.86-.19ZM63.18 45.52l2.14-4.63h.92l-2.09 4.57h3.13v.83h-4.11v-.78Zm2.76-2h.87v3.76h-.87v-3.76ZM68.3 46.39h.9v.9l-.9.89V46.4ZM71.36 47.16a1.61 1.61 0 0 1-.61-.55c-.16-.24-.26-.53-.31-.87s.9 0 .9 0c.03.24.13.42.28.55.16.13.36.2.61.2.29 0 .51-.1.67-.29.16-.19.23-.46.23-.81v-.54c0-.35-.08-.61-.23-.81-.16-.19-.38-.29-.67-.29-.16 0-.3.04-.45.13s-.27.21-.38.37h-.82v-3.37h3.26v.85h-2.36v1.44c.11-.09.24-.16.37-.21s.28-.08.42-.08c.37 0 .68.08.95.23.26.15.46.38.6.67.14.29.2.65.2 1.06v.54c0 .41-.07.77-.21 1.06s-.35.52-.62.67c-.27.15-.59.23-.97.23-.32 0-.61-.06-.86-.19ZM75.23 46.5l2.23-2.97c.13-.17.23-.35.3-.53.07-.18.11-.35.11-.51 0-.26-.07-.46-.22-.6s-.36-.21-.64-.21c-.26 0-.47.08-.63.23-.16.15-.26.37-.29.65s-.93 0-.93 0c.05-.37.16-.68.32-.94.16-.26.37-.46.63-.59.26-.14.55-.2.89-.2.38 0 .71.07.98.2s.47.32.62.57.21.55.21.9c0 .23-.05.47-.14.71s-.22.48-.39.71l-1.85 2.51h2.42v.85h-3.6v-.78ZM26.29 46.5l2.23-2.97c.13-.17.23-.35.3-.53.07-.18.11-.35.11-.51 0-.26-.08-.46-.22-.6s-.36-.21-.64-.21c-.26 0-.47.08-.63.23-.16.15-.26.37-.29.65s-.93 0-.93 0c.05-.37.16-.68.32-.94.16-.26.37-.46.63-.59.26-.14.56-.2.89-.2.38 0 .71.07.98.2s.47.32.62.57.21.55.21.9c0 .23-.05.47-.14.71s-.22.48-.39.71l-1.85 2.51h2.42v.85h-3.6v-.78ZM30.95 46.39h.9v.9l-.9.89V46.4ZM32.99 45.52l2.14-4.63h.92l-2.09 4.57h3.13v.83h-4.11v-.78Zm2.75-2h.88v3.76h-.88v-3.76ZM38.1 45.52l2.14-4.63h.92l-2.09 4.57h3.13v.83h-4.11v-.78Zm2.76-2h.87v3.76h-.87v-3.76ZM150.63 109.19c-.27-.15-.47-.37-.61-.66-.14-.29-.21-.64-.21-1.04a3.99 3.99 0 0 1 .32-1.52c.02-.04.04-.09.06-.13l.06-.12 1.39-2.75h.97l-1.63 3.19V106c.08-.14.18-.24.33-.32s.3-.11.49-.11c.33 0 .62.07.85.22s.42.37.54.65c.12.29.18.63.18 1.03 0 .41-.07.77-.21 1.06-.14.29-.34.52-.61.67-.27.15-.59.23-.96.23s-.7-.08-.96-.23Zm1.62-.9c.15-.18.23-.43.23-.75 0-.36-.08-.64-.24-.83-.16-.19-.39-.29-.69-.29-.27 0-.47.1-.62.29s-.22.47-.22.83c0 .33.08.58.23.75.15.17.37.26.65.26s.5-.09.66-.26ZM154.48 108.45h.9v.9l-.9.89v-1.78ZM156.52 107.59l2.14-4.63h.92l-2.09 4.58h3.13v.83h-4.11v-.78Zm2.75-2h.88v3.76h-.88v-3.76ZM163.27 109.35h-.9v-5.41l-.91.56v-.93l.91-.61h.9v6.39ZM25.86 119.1l2.14-4.63h.92l-2.09 4.57h3.13v.83h-4.11v-.78Zm2.75-2h.88v3.76h-.88v-3.76ZM30.98 119.96h.9v.9l-.9.89v-1.78ZM33.01 120.08l2.23-2.97c.13-.17.23-.35.3-.53.07-.18.11-.35.11-.51 0-.26-.07-.46-.22-.6s-.36-.21-.64-.21c-.26 0-.47.08-.63.23-.16.15-.26.37-.29.65s-.93 0-.93 0c.05-.37.16-.68.32-.94.16-.26.37-.46.63-.59.26-.14.55-.2.89-.2.38 0 .71.07.98.2s.47.32.62.57.21.55.21.9c0 .23-.05.47-.14.71s-.22.48-.39.71l-1.85 2.51h2.42v.85h-3.6v-.78ZM41.05 115.27l-1.65 5.59h-.95l1.65-5.54h-1.63v.92h-.9v-1.77h3.48v.8ZM68.77 213.56h-.9v-5.41l-.91.56v-.93l.91-.61h.9v6.39ZM70.91 213.4c-.27-.15-.47-.37-.61-.66-.14-.29-.21-.64-.21-1.04a3.99 3.99 0 0 1 .32-1.52c.02-.04.04-.09.06-.13l.06-.12 1.39-2.75h.97l-1.63 3.19v-.16c.08-.14.18-.24.33-.32s.3-.11.49-.11c.33 0 .62.07.85.22s.42.37.54.65c.12.29.18.63.18 1.03 0 .41-.07.77-.21 1.06-.14.29-.34.52-.61.67-.27.15-.59.23-.96.23s-.7-.08-.96-.23Zm1.62-.9c.15-.18.23-.43.23-.75 0-.36-.08-.64-.24-.83-.16-.19-.39-.29-.69-.29-.27 0-.47.1-.62.29s-.22.47-.22.83c0 .33.08.58.23.75.15.17.37.26.65.26s.5-.09.66-.26ZM74.75 212.66h.9v.9l-.9.89v-1.78ZM77.59 213.43c-.27-.13-.49-.32-.66-.57a1.97 1.97 0 0 1-.31-.89h.91c.03.18.08.33.17.45s.2.2.34.26.3.08.49.08c.3 0 .53-.08.69-.24s.25-.38.25-.67v-.19c0-.32-.08-.57-.23-.74-.16-.17-.38-.26-.66-.26h-.45v-.85h.45c.25 0 .44-.07.58-.22s.21-.36.21-.63v-.2c0-.25-.07-.45-.22-.58-.15-.14-.35-.21-.62-.21-.15 0-.29.03-.41.09s-.22.15-.31.26c-.08.12-.14.27-.18.45h-.91c.06-.35.17-.65.33-.9s.37-.44.62-.57.53-.19.86-.19c.55 0 .98.15 1.28.44s.45.7.45 1.23v.11c0 .32-.09.6-.26.83s-.42.41-.73.52c.35.08.62.25.81.51.19.27.29.61.29 1.02v.11c0 .37-.07.69-.21.95s-.35.46-.63.6c-.27.14-.6.21-.99.21-.36 0-.67-.07-.95-.2ZM82.56 213.44a1.61 1.61 0 0 1-.61-.55c-.16-.24-.26-.53-.31-.87s.9 0 .9 0c.03.24.13.42.28.55.16.13.36.2.61.2.29 0 .51-.1.67-.29.16-.19.24-.46.24-.81v-.54c0-.35-.08-.61-.24-.81-.16-.19-.38-.29-.67-.29-.16 0-.3.04-.45.13s-.27.21-.38.37h-.82v-3.37h3.26v.85h-2.36v1.44c.11-.09.24-.16.37-.21s.28-.07.42-.07c.37 0 .68.08.95.23.26.15.46.38.6.67.14.29.21.65.21 1.06v.54c0 .41-.07.77-.21 1.06s-.35.52-.62.67c-.27.15-.59.23-.97.23-.32 0-.61-.06-.86-.19ZM120.53 172.17h-.9v-5.41l-.91.56v-.93l.91-.61h.9v6.39ZM121.89 171.39l2.23-2.97c.13-.17.23-.35.3-.53.07-.18.11-.35.11-.51 0-.26-.07-.46-.22-.6s-.36-.21-.64-.21c-.26 0-.47.08-.63.23-.16.15-.26.37-.29.65s-.93 0-.93 0c.05-.37.16-.68.32-.94.16-.26.37-.46.63-.59.26-.14.55-.21.89-.21.38 0 .71.07.98.2s.47.32.62.57.21.55.21.9c0 .23-.05.47-.14.71s-.22.48-.39.71l-1.85 2.51h2.42v.85h-3.6v-.78ZM126.55 171.27h.9v.9l-.9.89v-1.78ZM129.14 171.75c-.31-.32-.46-.76-.46-1.34v-2.91c0-.57.16-1.02.47-1.34.31-.32.76-.48 1.36-.48s1.05.16 1.36.47c.31.32.46.76.46 1.34v2.91c0 .57-.16 1.02-.47 1.34-.31.32-.76.48-1.36.48s-1.05-.16-1.36-.48Zm2.06-.62c.15-.17.23-.4.23-.71v-2.91c0-.31-.07-.55-.22-.71-.15-.17-.38-.25-.7-.25s-.55.08-.7.25c-.15.17-.22.4-.22.71v2.91c0 .31.08.55.23.71.15.17.38.25.7.25s.55-.08.7-.25ZM134.49 172.01c-.29-.15-.52-.35-.68-.62a1.79 1.79 0 0 1-.24-.93v-.11c0-.32.08-.62.24-.9.16-.28.37-.49.64-.64-.23-.12-.41-.3-.54-.53-.14-.23-.2-.48-.2-.74v-.15c0-.33.07-.63.22-.88s.36-.45.63-.59c.27-.14.59-.21.95-.21s.68.07.95.21c.27.14.48.34.63.59.15.25.22.55.22.88v.15c0 .26-.07.51-.21.74a1.4 1.4 0 0 1-.55.53c.27.15.49.36.65.64.16.28.24.58.24.9v.11c0 .35-.08.67-.24.93-.16.27-.39.47-.68.62s-.63.22-1.02.22-.73-.07-1.02-.22Zm1.57-.76c.16-.08.28-.2.37-.34.09-.15.13-.32.13-.51v-.06c0-.2-.04-.37-.13-.52-.09-.15-.21-.26-.37-.34s-.34-.12-.55-.12-.39.04-.55.12-.28.2-.37.35a.98.98 0 0 0-.13.52v.07c0 .19.04.36.13.51.09.15.21.26.37.34.16.08.34.12.55.12s.39-.04.55-.12Zm-.08-2.88c.14-.08.25-.19.32-.33s.11-.31.11-.5v-.06c0-.18-.04-.34-.11-.47s-.18-.24-.32-.32c-.14-.07-.3-.11-.47-.11s-.34.04-.47.11c-.14.08-.24.18-.32.32s-.11.3-.11.48v.07c0 .18.04.35.11.49.08.14.18.25.32.33.14.08.3.12.47.12s.34-.04.47-.12Z"/></g></svg>