<svg xmlns="http://www.w3.org/2000/svg" viewBox="0 0 336.95 241.47"><defs><pattern id="_Новый_узор_2" width="22.92" height="23.17" x="0" y="0" patternTransform="matrix(.7 0 0 .67 -2279.11 -2319.28)" patternUnits="userSpaceOnUse"><g fill="none"><path d="M0 0h22.92v23.17H0z"/><path stroke="#b5b5b5" stroke-miterlimit="10" stroke-width=".25" d="M22.69 17.61v11.12H.23V17.61h22.46m.11-.11H.12v11.34H22.8V17.5ZM22.69 6.03v11.12H.23V6.03h22.46m.11-.11H.12v11.34H22.8V5.92ZM22.69-5.56V5.56H.23V-5.56h22.46m.11-.11H.12V5.67H22.8V-5.67Z"/></g></pattern><pattern id="_Новый_узор_4" width="9.82" height="9.82" x="0" y="0" patternTransform="matrix(1.05 0 0 1.03 469.92 789.95)" patternUnits="userSpaceOnUse"><g fill="none"><path d="M0 0h9.82v9.82H0z"/><g fill-rule="evenodd" stroke-linecap="round" stroke-width=".25" clip-path="url(#clippath)"><path stroke="#e6e6e6" stroke-linejoin="round" d="m14.73 19.65-4.91-4.92 4.91-4.91 4.91 4.91-4.91 4.92zM4.91 19.65 0 14.73l4.91-4.91 4.91 4.91-4.91 4.92zM-4.91 19.65l-4.91-4.92 4.91-4.91L0 14.73l-4.91 4.92z"/><path stroke="#e6e6e6" stroke-linejoin="round" d="M14.73 9.82 9.82 4.91 14.73 0l4.91 4.91-4.91 4.91z"/><path stroke="#999" stroke-miterlimit="3" d="M4.91 9.82 0 4.91 4.91 0l4.91 4.91-4.91 4.91z"/><path stroke="#e6e6e6" stroke-linejoin="round" d="m-4.91 9.82-4.91-4.91L-4.91 0 0 4.91l-4.91 4.91zM14.73 0 9.82-4.91l4.91-4.91 4.91 4.91L14.73 0zM4.91 0 0-4.91l4.91-4.91 4.91 4.91L4.91 0zM-4.91 0l-4.91-4.91 4.91-4.91L0-4.91-4.91 0z"/></g></g></pattern><clipPath id="clippath"><path fill="none" d="M0 0h9.82v9.82H0z"/></clipPath></defs><g id="Flats"><path id="fl110" fill="#fff" fill-rule="evenodd" d="M262.29 163.14V1.83H50.08v1.66h-9.82L13.25.15l5.63 20.12 8.61 60.87-14.36 31.94 5.72 17.67 8.61 60.87s-8.03 27.63-8.61 29.31c-.57 1.68 31.23 2.73 31.23 2.73h212.21v9.14h69.66v-69.66h-69.66Z"/></g><g id="Grid"><path fill="url(#_Новый_узор_2)" fill-rule="evenodd" d="M253.87 7.01h-48.25V23.1h-.07v65.58h.07v25.91h38.26V88.68h4.23V28.62h5.76V7.01z"/><path fill="url(#_Новый_узор_4)" d="M248.11 137.63h-4.23v-20.2h-43.5v53.36H248.11v-33.16z"/></g><g id="Mebel"><g fill="none" stroke="#6a6a6a" stroke-linecap="round" stroke-linejoin="round" stroke-width=".25"><path d="M330.62 225.81h-15.97m0 0v-58.62m0 0h15.97m0 0v58.62M322.51 167.19H322m0 0v58.62m0 0h.51m0 0v-58.62M315.98 220.84h12.5m0 0v-.51m0 0h-12.5m0 0v.51M315.98 219.5h12.5m0 0v-.51m0 0h-12.5m0 0v.51M315.98 218.16h12.5m0 0v-.5m0 0h-12.5m0 0v.5M315.98 216.82h12.5m0 0v-.51m0 0h-12.5m0 0v.51M316.07 213.98l12.41 1.5m0 0 .06-.5m0 0-12.41-1.5m0 0-.06.5"/></g><g fill="none" stroke="#6a6a6a" stroke-linecap="round" stroke-linejoin="round" stroke-width=".25"><path d="M202.7 56.82h-13.58m0 0V20.59m0 0h13.58m0 0v36.23M195.81 20.59h-.43m0 0v36.23m0 0h.43m0 0V20.59M190.27 52.59h10.62m0 0v-.43m0 0h-10.62m0 0v.43M190.27 51.45h10.62m0 0v-.43m0 0h-10.62m0 0v.43M190.27 50.31h10.62m0 0v-.43m0 0h-10.62m0 0v.43M190.27 49.17h10.62m0 0v-.43m0 0h-10.62m0 0v.43M190.34 46.76l10.54 1.27m0 0 .05-.43m0 0-10.54-1.27m0 0-.05.43"/></g><g fill="none" stroke="#6a6a6a" stroke-linecap="round" stroke-linejoin="round" stroke-width=".25"><path d="M202.7 7.01v13.58m0 0h-44.4m0 0V7.01m0 0h44.4M158.3 13.91v.43m0 0h44.4m0 0v-.43m0 0h-44.4M198.48 19.45V8.83m0 0h-.43m0 0v10.62m0 0h.43M197.34 19.45V8.83m0 0h-.43m0 0v10.62m0 0h.43M196.2 19.45V8.83m0 0h-.43m0 0v10.62m0 0h.43M195.06 19.45V8.83m0 0h-.43m0 0v10.62m0 0h.43M192.65 19.37l1.27-10.54m0 0-.43-.05m0 0-1.27 10.54m0 0 .43.05"/></g><g fill="none" stroke="#6a6a6a" stroke-linecap="round" stroke-linejoin="round" stroke-width=".25"><path d="M171.91 56.82h-13.58m0 0V20.59m0 0h13.58m0 0v36.23M165.01 20.59h-.43m0 0v36.23m0 0h.43m0 0V20.59M159.47 52.59h10.62m0 0v-.43m0 0h-10.62m0 0v.43M159.47 51.45h10.62m0 0v-.43m0 0h-10.62m0 0v.43M159.47 50.31h10.62m0 0v-.43m0 0h-10.62m0 0v.43M159.47 49.17h10.62m0 0v-.43m0 0h-10.62m0 0v.43M159.55 46.76l10.54 1.27m0 0 .05-.43m0 0-10.54-1.27m0 0-.05.43"/></g><g fill="none" stroke="#6a6a6a" stroke-linecap="round" stroke-linejoin="round" stroke-width=".25"><path d="M158.3 84.52h13.58m0 0v30.05m0 0H158.3m0 0V84.52M165.2 114.57h.43m0 0V84.52m0 0h-.43m0 0v30.05M170.74 88.74h-10.62m0 0v.43m0 0h10.62m0 0v-.43M170.74 89.88h-10.62m0 0v.43m0 0h10.62m0 0v-.43M170.74 91.02h-10.62m0 0v.43m0 0h10.62m0 0v-.43M170.74 92.16h-10.62m0 0v.43m0 0h10.62m0 0v-.43M170.66 94.57l-10.54-1.27m0 0-.05.43m0 0L170.61 95m0 0 .05-.43"/></g><g fill="none" stroke="#6a6a6a" stroke-linecap="round" stroke-linejoin="round" stroke-width=".25"><path d="M189.1 84.52h13.58m0 0v30.1m0 0H189.1m0 0v-30.1M195.99 114.61h.43m0 0v-30.1m0 0h-.43m0 0v30.1M201.54 88.74h-10.62m0 0v.43m0 0h10.62m0 0v-.43M201.54 89.88h-10.62m0 0v.43m0 0h10.62m0 0v-.43M201.54 91.02h-10.62m0 0v.43m0 0h10.62m0 0v-.43M201.54 92.16h-10.62m0 0v.43m0 0h10.62m0 0v-.43M201.46 94.57l-10.54-1.27m0 0-.05.43m0 0L201.41 95m0 0 .05-.43"/></g><g fill="none" stroke="#6a6a6a" stroke-linecap="round" stroke-linejoin="round" stroke-width=".25"><path d="M103.32 100.73H59.5m0 0v8.66m0 0h43.82m0 0v-8.66M103.32 101.16H59.5M81.41 100.73v.43M103.32 100.73v.43M66.95 105.81v.58m0 0h25.41m0 0v-.58m0 0H66.95M67.75 106.39l-.41 1.95m0 0-.39-.08m0 0 .39-1.87m0 0h.41M72.5 106.39v.48m0 0 .09.32m0 0 .24.24m0 0 .33.09m0 0h13m0 0 .32-.09m0 0 .24-.24m0 0 .09-.32m0 0v-.48m0 0h-14.3M67.75 105.6l-.41-1.95m0 0-.39.08m0 0 .39 1.87m0 0h.41M91.55 106.39l.41 1.95m0 0 .39-.08m0 0-.39-1.87m0 0h-.41M91.55 105.64l.41-1.95m0 0 .39.08m0 0-.39 1.87m0 0h-.41M66.95 105.64v.17m0 0h25.41m0 0v-.17m0 0H66.95"/></g><g fill="none" stroke="#6a6a6a" stroke-linecap="round" stroke-linejoin="round" stroke-width=".25"><path d="M99.87 210.17H56.04m0 0v8.66m0 0h43.82m0 0v-8.66M99.87 210.6H56.04M77.95 210.17v.43M99.87 210.17v.43M65.25 215.25v.58m0 0h25.41m0 0v-.58m0 0H65.25M66.05 215.83l-.41 1.95m0 0-.39-.08m0 0 .39-1.87m0 0h.41M70.81 215.83v.48m0 0 .09.32m0 0 .24.24m0 0 .33.09m0 0h13m0 0 .32-.09m0 0 .24-.24m0 0 .09-.32m0 0v-.48m0 0h-14.3M66.05 215.04l-.41-1.95m0 0-.39.08m0 0 .39 1.87m0 0h.41M89.86 215.83l.41 1.95m0 0 .39-.08m0 0-.39-1.87m0 0h-.41M89.86 215.08l.41-1.95m0 0 .39.08m0 0-.39 1.87m0 0h-.41M65.25 215.08v.17m0 0h25.41m0 0v-.17m0 0H65.25"/></g><g fill="none" stroke="#6a6a6a" stroke-linecap="round" stroke-linejoin="round" stroke-width=".25"><path d="m147.33 158.83-3.53-3.53m0 0-.37-.35m0 0-.37-.32m0 0-.36-.28m0 0-.35-.24m0 0h-.01m0 0-.32-.19m0 0-.29-.13m0 0h-.02m0 0-.24-.06m0 0h-.02m0 0h-.19m0 0h-.03m0 0h-.02m0 0h-.02m0 .01-.13.07m0 0-.02.02m0 0h-.01m0 0-.97.97m0 0-.88-.88m0 0-4.48 4.48m9.55 9.55 4.48-4.48m0 0-.88-.88m0 0 .97-.97m0 0h0m0 0v-.02m.01 0 .07-.13m0 0v-.02m.01 0v-.02m0 0v-.03m0 0v-.19m0 0v-.02m0 0-.06-.24m0 0v-.02m0 0-.13-.29m0 0-.18-.32m0 0h0m0-.01-.24-.35m0 0-.28-.36m0 0-.32-.37m0 0-.35-.37M139.47 155.38l7.78 7.78M139.58 155.49l.77-.77M147.14 163.06l.78-.77M143.82 166.6l4-4.01M136.04 158.82l4-4.01M142.91 156.18l3.54 3.54M140.35 154.72c.3-.3 1.45.35 2.57 1.47M146.45 159.72c1.11 1.11 1.77 2.26 1.46 2.57M115.89 183.22l3.53 3.53m0 0 .37.35m0 0 .37.32m0 0 .36.28m0 0 .35.24m0 0h.01m0 0 .32.18m0 0 .29.13m0 0h.02m0 0 .24.06m0 0h.02m0 0h.19m0 0h.03m0 0h.02m0 0h.02m0-.01.13-.07m0 0 .02-.02m0 0h0m0 0 .97-.97m0 0 .88.88m0 0 4.48-4.48m-9.55-9.55-4.48 4.48m0 0 .88.88m0 0-.98.97m0 0h0m0 0v.02m-.01 0-.07.13m0 0v.02m-.01 0v.03m0 0v.02m0 0v.19m0 0v.02m0 0 .06.24m0 0v.02m0 0 .13.29m0 0 .18.32m0 0h0m0 .01.24.35m0 0 .28.36m0 0 .32.37m0 0 .35.37M123.74 186.67l-7.78-7.78M123.64 186.56l-.77.78M116.07 179l-.77.77M119.4 175.46l-4.01 4M127.18 183.24l-4.01 4M120.3 185.87l-3.54-3.54M122.87 187.34c-.3.3-1.45-.35-2.57-1.46M116.76 182.33c-1.11-1.11-1.77-2.26-1.46-2.57M119.42 155.3l-3.53 3.53m0 0-.35.37m0 0-.32.37m0 0-.28.36m0 0-.24.35m0 0h0m0 .01-.19.32m0 0-.13.29m0 0v.02m0 0-.06.24m0 0v.02m0 0v.19m0 0v.03m0 0v.02m0 0v.02m.01 0 .07.13m0 0 .02.02m0 0h0m0 .01.97.97m0 0-.88.88m0 0 4.48 4.48m9.55-9.55-4.48-4.48m0 0-.88.88m0 0-.98-.97m0 0h0m0 0-.02-.02m0 0-.13-.07m0 0h-.02m0-.01h-.02m0 0h-.02m0 0h-.19m0 0h-.02m0 0-.24.06m0 0h-.02m0 0-.29.13m0 0-.32.18m0 0h-.01m0 0-.35.24m0 0-.36.28m0 0-.37.32m0 0-.37.35M115.96 163.16l7.78-7.78M116.07 163.06l-.77-.77M123.64 155.49l-.77-.77M127.18 158.82l-4.01-4.01M119.4 166.6l-4.01-4.01M116.76 159.72l3.54-3.54M115.3 162.29c-.3-.3.35-1.45 1.46-2.57M120.3 156.18c1.11-1.11 2.26-1.77 2.57-1.46M143.8 186.75l3.53-3.53m0 0 .35-.37m0 0 .32-.37m0 0 .28-.36m0 0 .24-.35m0 0h0m0-.01.18-.32m0 0 .13-.29m0 0v-.02m0 0 .06-.24m0 0v-.02m0 0v-.19m0 0v-.03m0 0v-.02m0 0v-.02m-.01 0-.07-.13m0 0-.02-.02m0 0h0m0-.01-.97-.97m0 0 .88-.88m0 0-4.48-4.48m-9.55 9.55 4.48 4.48m0 0 .88-.88m0 0 .97.97m0 0h0m0 0h.02m0 .01.13.07m0 0h.02m0 .01h.03m0 0h.03m0 0h.19m0 0h.02m0 0 .24-.06m0 0h.02m0 0 .29-.13m0 0 .32-.18m0 0h.01m0 0 .35-.24m0 0 .36-.28m0 0 .37-.32m0 0 .37-.35M147.25 178.89l-7.78 7.78M147.14 179l.78.77M139.58 186.56l.77.78M136.04 183.24l4 4M143.82 175.46l4 4M146.45 182.33l-3.54 3.54M147.92 179.77c.3.3-.35 1.45-1.46 2.57M142.91 185.87c-1.11 1.11-2.26 1.77-2.57 1.46M144.59 171.03c0 7.17-5.81 12.99-12.99 12.99s-12.99-5.81-12.99-12.99 5.81-12.98 12.99-12.98 12.99 5.81 12.99 12.98Z"/></g><g fill="none" stroke="#6a6a6a" stroke-linecap="round" stroke-linejoin="round" stroke-width=".25"><path d="M54.98 13.16c0-1.36-1.1-2.46-2.46-2.46s-2.46 1.1-2.46 2.46 1.1 2.46 2.46 2.46 2.46-1.1 2.46-2.46Z"/><path d="M53.26 13.16c0-.41-.33-.74-.74-.74s-.74.33-.74.74.33.74.74.74.74-.33.74-.74ZM112.76 13.16c0-1.36-1.1-2.46-2.46-2.46s-2.46 1.1-2.46 2.46 1.1 2.46 2.46 2.46 2.46-1.1 2.46-2.46Z"/><path d="M111.04 13.16c0-.41-.33-.74-.74-.74s-.74.33-.74.74.33.74.74.74.74-.33.74-.74ZM59.28 58.65h44.26m0 0V9.47m0 0H59.28m0 0v49.18M60.51 59.87h41.8m0 0 .47-.09m0 0 .4-.27m0 0 .27-.4m0 0 .09-.47m0 0H59.28m0 0 .09.47m0 0 .27.4m0 0 .4.27m0 0 .47.09M59.28 7.01h44.26m0 0v2.46m0 0H59.28m0 0V7.01M103.54 7.01H59.28m0 0v1.23m0 0h44.26m0 0V7.01M104.77 7.01h11.06m0 0V19.3m0 0h-11.06m0 0V7.01M58.05 7.01H46.99m0 0V19.3m0 0h11.06m0 0V7.01M85.34 10.7h16.72m0 0 .17.07m0 0 .07.17m0 0v8.11m0 0-.07.17m0 0-.17.07m0 0H85.34m0 0-.17-.07m0 0-.07-.17m0 0v-8.11m0 0 .07-.17m0 0 .17-.07M77.48 10.7H60.76m0 0-.17.07m0 0-.07.17m0 0v8.11m0 0 .07.17m0 0 .17.07m0 0h16.72m0 0 .17-.07m0 0 .07-.17m0 0v-8.11m0 0-.07-.17m0 0-.17-.07M59.28 18.64h1.23M77.72 18.64h7.38M102.31 18.64h1.23M59.28 21.9h44.26m0 0v12.16m0 0-44.26-9.7m0 0V21.9M50.12 12.6l2.39.56m0 0 1.03 2.23m0 0-1.03-2.23m0 0 .85-2.31M112.69 12.6l-2.39.56m0 0-1.03 2.23m0 0 1.03-2.23m0 0-.85-2.31"/></g><g fill="none" stroke="#6a6a6a" stroke-linecap="round" stroke-linejoin="round" stroke-width=".25"><path d="M197.84 173.63v-15.06m0 0h-15.56m0 0v15.06m0 0h15.56M187.55 166.1h5.02M188.28 167.87l3.55-3.55M190.06 168.61v-5.02M191.83 167.87l-3.55-3.55"/></g><path fill="none" stroke="#6a6a6a" stroke-linecap="round" stroke-linejoin="round" stroke-width=".25" d="M184.41 149.47v-12.8m0 0 .15-.36m0 0 .35-.15m0 0h11.55m0 0 .35.15m0 0 .15.36m0 0v12.8m0 0-.15.35m0 0-.35.15m0 0h-11.55m0 0-.35-.15m0 0-.15-.35M185.66 148.21v-10.29M186.16 137.42h7.79M194.45 137.92v10.29M193.95 148.72h-7.79"/><path fill="#999" fill-rule="evenodd" d="M185.66 148.21v.07s-.07-.03-.07-.07.03-.07.07-.07.07.03.07.07-.03.07-.07.07v-.07Z"/><path fill="none" stroke="#6a6a6a" stroke-linecap="round" stroke-linejoin="round" stroke-width=".25" d="M186.16 137.42c-.28 0-.5.23-.5.5M194.45 137.92c0-.28-.22-.5-.5-.5M193.95 148.72c.28 0 .5-.22.5-.5M185.66 148.21c0 .28.22.5.5.5M191.24 143.29l-.16-.07m0 0-.07-.16m0 0 .07-.16m0 0 .16-.07m0 0h4.97m0 0 .16.07m0 0 .07.16m0 0-.07.16m0 0-.16.07m0 0h-4.97M194.93 143.57v-.28m0 0h1.28m0 0 .16-.07m0 0 .07-.16m0 0-.07-.16m0 0-.16-.07m0 0h-1.28m0 0v-.27m0 0h1.63m0 0v1m0 0h-1.63M194.02 143.56v-.27m0 0h.88m0 0v.27m0 0h-.88M194.02 142.57h.88m0 0v.27m0 0h-.88m0 0v-.27M182.27 117.42v56.2m0 0h15.56m0 0v-56.2m0 0h-15.56"/><g fill="none" stroke="#6a6a6a" stroke-linecap="round" stroke-linejoin="round" stroke-width=".25"><path d="M161.6 131.86h14.56m0 0v-12.3m0 0H161.6m0 0v12.3M168.88 124.37v-3.52M168.88 120.85h.73M168.88 124.37h.73M174.76 124.37v-3.52M174.03 120.85h.73M174.03 124.37h.73M162.91 122.47c0-1.01.82-1.82 1.82-1.82s1.82.82 1.82 1.82-.82 1.82-1.82 1.82-1.82-.81-1.82-1.82ZM162.94 127.94c0-1.46 1.18-2.64 2.64-2.64s2.64 1.18 2.64 2.64-1.18 2.64-2.64 2.64-2.64-1.18-2.64-2.64Z"/><path d="M164.07 127.94c0-.83.67-1.51 1.51-1.51s1.51.67 1.51 1.51-.67 1.51-1.51 1.51-1.51-.67-1.51-1.51ZM170.06 122.59c0-.97.79-1.76 1.76-1.76s1.76.79 1.76 1.76-.79 1.76-1.76 1.76-1.76-.79-1.76-1.76Z"/><circle cx="172.56" cy="128.3" r="2.26"/></g><path fill="none" stroke="#6a6a6a" stroke-linecap="round" stroke-linejoin="round" stroke-width=".25" d="M155.47 117.42h42.36v15.06h-42.36z"/><g fill="none" stroke="#6a6a6a" stroke-linecap="round" stroke-linejoin="round" stroke-width=".25"><path d="M35.54 141.91h-2.42M32.69 141.47v-23.29M33.12 117.75h2.42M35.98 118.18v23.29M35.54 117.75h19.11M54.65 117.75v1.53M54.65 123.43v1.31M53.99 141.91H36.64M35.98 141.25v-16.5M36.64 124.09h17.35M54.65 124.74v16.51M53.99 118.62H36.64M35.98 119.28v4.15M36.64 124.09h17.35M54.65 123.43v-4.15M36.64 121.7h17.35M33.12 141.91c-.24 0-.44-.2-.44-.44M32.69 118.18c0-.24.2-.44.44-.44M35.54 117.75c.24 0 .44.2.44.44M35.98 141.47c0 .24-.2.44-.44.44M36.64 141.91c-.36 0-.66-.3-.66-.66M35.98 124.74c0-.36.29-.66.66-.66M53.99 124.09c.36 0 .66.29.66.66M54.65 141.25c0 .36-.3.66-.66.66M35.98 119.28c0-.36.29-.66.66-.66"/><path d="M36.64 124.09a.66.66 0 0 1-.66-.66M54.65 123.43c0 .36-.3.66-.66.66M53.99 118.62c.36 0 .66.29.66.66M36.64 121.7a.66.66 0 0 1-.66-.66M54.65 121.04c0 .36-.3.66-.66.66M54.65 117.75h21.97M54.65 117.75v1.53M76.62 117.75v1.53M54.65 123.43v1.31M76.62 123.43v1.31M75.96 141.91H55.31M54.65 141.25v-16.5M55.31 124.09h20.65M76.62 124.74v16.51M75.96 118.62H55.31M54.65 119.28v4.15M55.31 124.09h20.65M76.62 123.43v-4.15M55.31 121.7h20.65M55.31 141.91c-.36 0-.66-.3-.66-.66M54.65 124.74c0-.36.3-.66.66-.66M75.96 124.09c.36 0 .66.29.66.66M76.62 141.25c0 .36-.3.66-.66.66M54.65 119.28c0-.36.3-.66.66-.66"/><path d="M55.31 124.09a.66.66 0 0 1-.66-.66M76.62 123.43c0 .36-.3.66-.66.66M75.96 118.62c.36 0 .66.29.66.66M55.31 121.7a.66.66 0 0 1-.66-.66M76.62 121.04c0 .36-.3.66-.66.66M95.73 141.91h2.41M98.58 141.47v-23.29M98.14 117.75h-2.41M95.29 118.18v23.29M95.73 117.75H76.62M76.62 117.75v1.53M76.62 123.43v1.31M77.28 141.91h17.35M95.29 141.25v-16.5M94.63 124.09H77.28M76.62 124.74v16.51M77.28 118.62h17.35M95.29 119.28v4.15M94.63 124.09H77.28M76.62 123.43v-4.15M94.63 121.7H77.28M98.58 141.47c0 .24-.2.44-.44.44M98.14 117.75c.24 0 .44.2.44.44M95.29 118.18c0-.24.2-.44.44-.44M95.73 141.91c-.24 0-.44-.2-.44-.44M95.29 141.25c0 .36-.3.66-.66.66M94.63 124.09c.36 0 .66.29.66.66M76.62 124.74c0-.36.29-.66.66-.66M77.28 141.91c-.36 0-.66-.3-.66-.66M94.63 118.62c.36 0 .66.29.66.66M95.29 123.43c0 .36-.3.66-.66.66"/><path d="M77.28 124.09a.66.66 0 0 1-.66-.66M76.62 119.28c0-.36.29-.66.66-.66M95.29 121.04c0 .36-.3.66-.66.66M77.28 121.7a.66.66 0 0 1-.66-.66M53.99 150.69H36.64M35.98 150.03v-7.46M36.64 141.91h17.35M54.65 142.57v7.46M36.64 150.69a.66.66 0 0 1-.66-.66M35.98 142.57c0-.36.3-.66.66-.66M53.99 141.91c.36 0 .66.29.66.66M54.65 150.03c0 .36-.3.66-.66.66"/></g><path fill="none" stroke="#6a6a6a" stroke-linecap="round" stroke-linejoin="round" stroke-width=".25" d="M62.54 166.6v-16.87H96.6v16.87z"/><path fill="#fff" stroke="#6a6a6a" stroke-linecap="round" stroke-linejoin="round" stroke-width=".25" d="M227.59 117.42h16.29v16.47h-16.29z"/><g fill="none" stroke="#6a6a6a" stroke-linecap="round" stroke-linejoin="round" stroke-width=".25"><path d="M240.95 125.66c0 2.88-2.33 5.21-5.21 5.21s-5.21-2.34-5.21-5.21 2.33-5.21 5.21-5.21 5.21 2.33 5.21 5.21ZM240.1 125.29l-.9.33m0 0h-.95m0 0-.9-.33m0 0-1.07.25m0 0h-1.1m0 0-1.07-.25m0 0-.9.33m0 0h-.95m0 0-.9-.33m0 0 1.62 2.17m0 0h5.49m0 0 1.62-2.17M238.48 127.64h-5.49m0 0v-.19m0 0h5.49m0 0v.19M238.48 128.02h-5.49m0 0v-.19m0 0h5.49m0 0v.19M235.12 124.18l.65-.06m0 0 .02.16m0 0-.35.03m0 0 1 .83m0 0-.09.11m0 0-.47-.38m0 0-.05.06m0 0 .54.44m0 0-.09.11m0 0-.54-.44m0 0-.06.07m0 0 .44.36m0 0-.08.09m0 0-.44-.36m0 0-.06.07m0 0 .3.25m0 0-.08.1m0 0-1.03-.85"/></g><g stroke="#6a6a6a" stroke-linecap="round" stroke-linejoin="round" stroke-width=".25"><path fill="#fff" d="M205.62 7.01h48.25V26.5h-48.25z"/><path fill="none" d="m248.3 24.94.69-.06m0 0 .67-.18m0 0 .63-.29m0 0 .57-.39m0 0 .49-.48m0 0 .4-.56m0 0 .29-.62m0 0 .18-.66m0 0 .06-.68m0 0v-8.56m0 0-.06-.68m0 0-.18-.66m0 0-.29-.62m0 0-.4-.56m0 0-.49-.48m0 0-.57-.39m0 0-.63-.29m0 0-.67-.18m0 0-.69-.06m0 0h-32.73m0 0-1.45.12m0 0-1.41.37m0 0-1.32.6m0 0-1.19.82m0 0-1.03 1.01m0 0-.84 1.17m0 0-.62 1.29m0 0-.38 1.38m0 0-.13 1.42m0 0 .13 1.42m0 0 .38 1.38m0 0 .62 1.29m0 0 .84 1.17m0 0 1.03 1.01m0 0 1.19.82m0 0 1.32.6m0 0 1.41.37m0 0 1.45.12m0 0h32.73M247.97 16.75c0-.38-.31-.69-.69-.69s-.69.31-.69.69.31.69.69.69.69-.31.69-.69Z"/></g><g fill="#fff" stroke="#6a6a6a" stroke-linecap="round" stroke-linejoin="round" stroke-width=".25"><path d="M248.11 149.05v7.74l-8.42.89-1.24.04-1.23-.15-1.2-.34-1.13-.52-.89-.71-.68-.9-.44-1.05-.14-1.13.14-1.13.44-1.05.68-.91.89-.7 1.13-.52 1.2-.34 1.23-.15 1.24.04 8.42.89zM243.95 155.91v-2.99M243.95 152.92v-2.99"/><path d="M232.95 152.92c0 .8.23 1.58.64 2.23M233.59 155.15c1.25 1.61 3.08 2.48 4.96 2.36M238.55 157.51c1.9.05 3.77-.5 5.4-1.59M243.95 149.93c-1.64-1.09-3.51-1.65-5.4-1.59"/><path d="M238.55 148.34c-1.88-.12-3.71.75-4.96 2.36M233.59 150.7c-.41.65-.64 1.42-.64 2.23"/></g><g stroke="#6a6a6a" stroke-linecap="round" stroke-linejoin="round" stroke-width=".25"><path fill="#fff" d="M248.21 41.59v7.74l-8.41.89-1.25.04-1.23-.15-1.19-.34-1.13-.52-.89-.71-.69-.9-.43-1.05-.15-1.13.15-1.13.43-1.05.69-.91.89-.7 1.13-.52 1.19-.34 1.23-.15 1.25.04 8.41.89z"/><path fill="none" d="M244.06 48.45v-2.99M244.06 45.46v-3M233.05 45.46c0 .8.23 1.58.64 2.23M233.69 47.68c1.25 1.61 3.08 2.48 4.96 2.36M238.65 50.04c1.9.05 3.77-.5 5.4-1.59M244.06 42.47c-1.64-1.09-3.51-1.65-5.4-1.59M238.65 40.87c-1.88-.12-3.71.75-4.96 2.36M233.69 43.23c-.41.65-.64 1.42-.64 2.23"/></g><g fill="#fff" stroke="#6a6a6a" stroke-linecap="round" stroke-linejoin="round" stroke-width=".25"><path d="M211.35 144.62v16.61l-.12.29-.29.12h-10.16l-.29-.12-.12-.29v-16.61l.12-.29.29-.12h10.16l.29.12.12.29zM203.39 145.45v7.15m0 .66v7.15M203.8 160.82h6.31M210.53 160.41v-14.96M210.11 145.03h-6.31"/><path d="M203.8 160.82c-.23 0-.41-.18-.41-.41M210.53 160.41c0 .23-.18.41-.41.41M210.11 145.03c.23 0 .41.18.41.41M203.39 145.45c0-.23.18-.41.41-.41M205.12 152.6c.1-.13.26-.22.44-.22s.34.09.44.22h-.88Zm.88.66c-.1.13-.26.22-.44.22s-.34-.09-.44-.22h.88ZM200.75 153.26v-.66m0 0h5.63m0 0 .22.19m0 0v.29m0 0-.22.19m0 0h-5.63M201.74 150.55h-1.18m0 0v.07m0 0h-.1m0 0v.21m0 0h-.1m0 0v-1.37m0 0h.1m0 0v.21m0 0h.1m0 0v.07m0 0h1.18m0 0v.23m0 0h.3m0 0v-.78m0 0h.36m0 0v1.92m0 0h-.36m0 0v-.78m0 0h-.3m0 0v.23M201.74 155.3h-1.18m0 0v-.07m0 0h-.1m0 0v-.21m0 0h-.1m0 0v1.37m0 0h.1m0 0v-.21m0 0h.1m0 0v-.07m0 0h1.18m0 0v-.23m0 0h.3m0 0v.78m0 0h.36m0 0v-1.92m0 0h-.36m0 0v.78m0 0h-.3m0 0v-.23M202.04 149.96l.06.05M202.04 150.32l.06-.05M201.74 149.96v.36M202.04 155.89l.06-.05M202.04 155.54l.06.05M201.74 155.89v-.35M202.04 150.14c0-.1.08-.18.18-.18s.18.08.18.18-.08.18-.18.18-.18-.08-.18-.18ZM202.04 155.71c0-.1.08-.18.18-.18s.18.08.18.18-.08.18-.18.18-.18-.08-.18-.18Z"/></g><g stroke="#6a6a6a" stroke-linecap="round" stroke-linejoin="round" stroke-width=".25"><path fill="#fff" d="M248.11 71.66v16.61l-.12.29-.3.12h-10.15l-.29-.12-.12-.29V71.66l.12-.29.29-.12h10.15l.3.12.12.29z"/><path fill="none" d="M245.09 72.49v7.15m0 .66v7.15M244.68 87.86h-6.32M237.95 87.45V72.49M238.36 72.08h6.32M244.68 87.86c.23 0 .41-.18.41-.41M237.95 87.45c0 .23.18.41.41.41M238.36 72.08c-.23 0-.41.18-.41.41M245.09 72.49c0-.23-.18-.41-.41-.41M243.36 79.64c-.1-.13-.26-.22-.44-.22s-.34.09-.44.22h.88Zm-.88.66c.1.13.26.22.44.22s.34-.09.44-.22h-.88ZM247.73 80.3v-.66m0 0h-5.63m0 0-.22.19m0 0v.29m0 0 .22.19m0 0h5.63M246.74 77.59h1.18m0 0v.07m0 0h.1m0 0v.21m0 0h.1m0 0V76.5m0 0h-.1m0 0v.21m0 0h-.1m0 0v.07m0 0h-1.18m0 0v.23m0 0h-.3m0 0v-.78m0 0h-.36m0 0v1.92m0 0h.36m0 0v-.78m0 0h.3m0 0v.23M246.74 82.34h1.18m0 0v-.07m0 0h.1m0 0v-.21m0 0h.1m0 0v1.37m0 0h-.1m0 0v-.21m0 0h-.1m0 0v-.07m0 0h-1.18m0 0v-.23m0 0h-.3m0 0v.78m0 0h-.36m0 0v-1.92m0 0h.36m0 0v.78m0 0h.3m0 0v-.23M246.43 77l-.05.06M246.43 77.36l-.05-.05M246.74 77v.36M246.43 82.93l-.05-.05M246.43 82.58l-.05.05M246.74 82.93v-.35M246.43 77.18c0-.1-.08-.18-.18-.18s-.18.08-.18.18.08.18.18.18.18-.08.18-.18ZM246.43 82.76c0-.1-.08-.18-.18-.18s-.18.08-.18.18.08.18.18.18.18-.08.18-.18Z"/></g><g stroke="#6a6a6a" stroke-linecap="round" stroke-linejoin="round" stroke-width=".25"><path fill="#fff" d="M248.11 54.22v16.61l-.12.29-.3.13h-10.15l-.29-.13-.12-.29V54.22l.12-.29.29-.12h10.15l.3.12.12.29z"/><path fill="none" d="M245.09 55.05v7.15m0 .66v7.15M244.68 70.42h-6.32M237.95 70.01V55.05M238.36 54.64h6.32M244.68 70.42c.23 0 .41-.18.41-.41M237.95 70.01c0 .23.18.41.41.41M238.36 54.64c-.23 0-.41.18-.41.41M245.09 55.05c0-.23-.18-.41-.41-.41M243.36 62.2c-.1-.13-.26-.22-.44-.22s-.34.09-.44.22h.88Zm-.88.66c.1.13.26.22.44.22s.34-.09.44-.22h-.88ZM247.73 62.86v-.66m0 0h-5.63m0 0-.22.19m0 0v.29m0 0 .22.19m0 0h5.63M246.74 60.16h1.18m0 0v.07m0 0h.1m0 0v.21m0 0h.1m0 0v-1.37m0 0h-.1m0 0v.21m0 0h-.1m0 0v.07m0 0h-1.18m0 0v.23m0 0h-.3m0 0v-.78m0 0h-.36m0 0v1.92m0 0h.36m0 0v-.78m0 0h.3m0 0v.23M246.74 64.91h1.18m0 0v-.07m0 0h.1m0 0v-.21m0 0h.1m0 0V66m0 0h-.1m0 0v-.21m0 0h-.1m0 0v-.07m0 0h-1.18m0 0v-.23m0 0h-.3m0 0v.78m0 0h-.36m0 0v-1.92m0 0h.36m0 0v.78m0 0h.3m0 0v-.23M246.43 59.57l-.05.05M246.43 59.92l-.05-.05M246.74 59.57v.35M246.43 65.5l-.05-.06M246.43 65.14l-.05.05M246.74 65.5v-.36M246.43 59.74c0-.1-.08-.18-.18-.18s-.18.08-.18.18.08.18.18.18.18-.08.18-.18ZM246.43 65.32c0-.1-.08-.18-.18-.18s-.18.08-.18.18.08.18.18.18.18-.08.18-.18Z"/></g><path fill="#fff" stroke="#6a6a6a" stroke-linecap="round" stroke-linejoin="round" stroke-width=".25" d="M205.55 88.76h38.33v25.78h-38.33z"/><path fill="none" stroke="#6a6a6a" stroke-linecap="round" stroke-linejoin="round" stroke-width=".22" d="M241.96 112.9c0 .28-.23.51-.51.51s-.51-.23-.51-.51.23-.51.51-.51.51.23.51.51ZM224 107.55l.75-.2m0 0 .65-.43m0 0 .48-.61m0 0 .27-.73m0 0 .02-.78m0 0-.22-.75m0 0-.45-.64m0 0-.62-.47m0 0-.74-.24m0 0h-.78m0 0-.74.24m0 0-.62.47m0 0-.45.64m0 0-.22.75m0 0 .02.78m0 0 .27.73m0 0 .48.61m0 0 .65.43m0 0 .75.2m0 0v2.98m0 0-.25-.06m0 0-.26-.02m0 0-.26.02m0 0-.25.06m0 0-.21.09m0 0-.16.12m0 0-.1.14m0 0-.03.15m0 0v.22m0 0v.06m.01 0 .03.15m0 0 .03.06m0 0 .1.14m0 0 .04.04m0 0 .15.11m0 0 .19.08m0 0 .1.03m0 0 .13.03m0 0v.37m.01 0v.43m0 0h-.93m0 0v.23m0 0h-1.55m0 0-.09.03m0 0-.04.08m0 0 .02.09m0 0 .07.06m0 0 .26.08m0 0 .39.17m0 0 .54.31m0 0 .39.14m0 0v.07m0 0h-.33m0 0v.53m0 0h1.38m0 0v-.47m0 0 .03-.02m0 0 .02-.02m0 0v-.02m.01 0 .15-.36m0 0h.38m0 0v.73m0 0h-.57m0 0v.16m0 0h1.63m0 0v-.16m0 0h-.57m0 0v-.73m0 0h.77m0 0v-.08m0 0h.22m0 0v.16m0 0h-.08m0 0v.28m0 0h-.33m0 0v.53m0 0h1.38m0 0v-.53m0 0h-.33m0 0v-.28m0 0h-.08m0 0v-.16m0 0h.08m0 0v-.81m0 0h-1.38m0 0v-1.16m0 0h-.04m0 0h-.05m0 0h-.07m0 0h-.08m0 0h-.02m0 0v-4.04M222.74 113.65h.11m0 0-.08.18m0 0-.18.03m0 0h0m0 0v-.13m0 0h-.08m0 0v-.16m0 0h.22m0 0v.08M221.94 113.57v.13m0 0-.36-.13m0 0-.53-.3m0 0h-.03m0-.01h.84m0 0v.32m0 0h.08M225.1 114.01v-.28M225.46 114.01v-.28M222.05 114.01h-.19M222.51 113.73h-.1M222.41 113.73h-.36M222.04 113.73h0M222.41 113.82v-.09M222.04 113.73h0M221.94 113.57h.57M223.21 112.75h.3M221.86 113.25v-.26M223.25 112.45h.26M220.36 112.99h-.04M222.59 114.13l.03-.01M222.5 114.11l.09.02M222.88 114.08h.03M222.91 114.08l.01-.01M221.86 113.95l.25.08M222.11 114.03l.39.08M222.57 113.85l.03.01M220.36 112.99l.27.09M220.63 113.08l.39.17M222.08 114.02h0M222.62 114.12l.26-.04M223.51 111.65h0M223.51 111.93h0M222.74 113.35v.07M222.74 113.49v.05M222.74 113.42v.06M222.85 113.65h.28M222.18 113.78l.39.07M221.94 113.7l.24.08"/><path fill="#999" fill-rule="evenodd" d="M223.1 113.31h.06s-.03-.06-.06-.06-.06.03-.06.06.03.06.06.06.06-.03.06-.06h-.06Z"/><path fill="none" stroke="#6a6a6a" stroke-linecap="round" stroke-linejoin="round" stroke-width=".22" d="m223.05 113.33.05-.02M223 113.34l.05-.01M222.95 113.33l.05.01M222.9 113.31l.05.02"/><path fill="#999" fill-rule="evenodd" d="M222.9 113.31h.06s-.03-.06-.06-.06-.06.03-.06.06.03.06.06.06.06-.03.06-.06h-.06Z"/><path fill="none" stroke="#6a6a6a" stroke-linecap="round" stroke-linejoin="round" stroke-width=".22" d="m222.82 111.96.18.02M223 111.98l.19-.02M222.78 111.95l.04.01M223.36 111.92l.11-.03M223.19 111.96l.17-.04M222.8 113.22v-.04M223.47 111.89l.04-.02M223.23 111.95l-.01.37M223.21 113.18l-.01.04M223.2 113.22l-.01.03M223.19 113.25l-.03.02M223.16 113.27l-.03.03M223.13 113.3l-.03.01M223.1 113.31h0M223.1 113.31h-.04M223.06 113.31h-.12M222.94 113.31h-.04M222.9 113.31h0M222.9 113.31l-.03-.01M222.87 113.3l-.03-.03M222.84 113.27l-.02-.02M222.82 113.25l-.02-.03M223.22 112.32l-.01.86M222.79 112.75l.01.43M222.74 112.92h.05M223.21 112.92h.3M224 107.55v-2.88M223.51 107.55v-2.88M224 104.67h-.49M225.65 114.01h-.73M225.57 113.73H225M225.57 113.57H225M224.77 113.57v-.65M222.74 112.92v.65M224 113.65v-2.06M223.51 110.53v3.12M224.77 112.92H224M224.26 112.75H224M224.26 112.45H224M223.25 112.75v-.8M223.51 106.11c-.55-.13-.88-.69-.74-1.23.14-.55.69-.88 1.23-.74.55.14.88.69.74 1.23-.09.37-.38.65-.74.74M224.77 112.96c.09-.05.2-.02.25.07.05.09.02.2-.07.25-.06.03-.13.03-.18 0"/><path fill="none" stroke="#6a6a6a" stroke-dasharray="0 0 3 3" stroke-linecap="round" stroke-linejoin="round" stroke-width=".25" d="M151.38 117.43v56.2h30.89"/></g><g id="Walls_Inside" fill="#2d2d2c"><path d="M.92 7.01V0h258.04v7.01zM27.53 225.86v-7.01h231.43v7.01z"/><path d="M255.8 232.82v-7.01h27.46v7.01zM314.14 232.82v-7.01h22.81v7.01zM197.55 115.52h2.83v58.11h-2.83z"/><path d="M151.39 117.42v-2.83h103.6v2.83zM197.55 173.63v-2.83h17.21v2.83z"/><path d="M243.88 88.68h2.83v48.94h-2.83zM248.11 136h1.98v35.91h-1.98zM248.11 28.62h1.98v61.87h-1.98z"/><path d="M248.11 30.61v-1.98h9.62v1.98zM202.78 84.38h2.83v31.63h-2.83zM155.47 84.38h2.83v31.63h-2.83zM155.47 5.75h2.83v51.1h-2.83zM202.79 3.51h2.83v60.24h-2.83zM243.89 137.63v-2.83h17.21v2.83zM243.89 91.52v-2.83h17.21v2.83zM232.02 173.62v-2.83h21.84v2.83z"/></g><g id="Walls_Outside"><path fill="none" stroke="#000" stroke-linecap="round" stroke-linejoin="round" stroke-width=".22" d="m16.62 82.7 10.91-1.54M11.3 83.44l3.99-.56M15.29 82.88l1.33-.18M8.02 21.82l10.91-1.53M2.7 22.57l3.99-.56M6.69 22.01l1.33-.19"/><path fill="none" stroke="#000" stroke-linecap="round" stroke-linejoin="round" stroke-width=".25" d="m2.7 22.57 8.6 60.87M18.93 20.29l8.6 60.87M8.02 21.82l.34 2.4M8.36 24.22l-1.33.18M7.03 24.4l-.34-2.39M10.06 45.98l-.17-1.2M9.89 44.78l1.33-.19M11.22 44.59l.17 1.2M7.69 24.31l2.86 20.38M8.36 24.22l2.86 20.37M9.89 44.78 7.03 24.41M11.39 45.79l.08.6M11.47 46.39l-.66.1M10.81 46.49l.08.6M10.89 47.09l-.66.09M10.23 47.18l-.17-1.2M15.29 82.88l-.41-2.93M14.88 79.95l.67-.09M15.55 79.86l.1.73M15.65 80.59l.67-.09M16.32 80.5l.3 2.2M14.88 79.95l-4.65-32.77M13.21 53.97l3.46 24.24M12.14 46.3l.25 1.8M12.39 48.1l-1.33.18M11.06 48.28l-.25-1.79M10.81 46.49l1.33-.19M15.65 80.59l-.31-2.2M15.34 78.39l1.33-.18M16.67 78.21l.31 2.19M16.98 80.4l-1.33.19M15.34 78.39l-4.28-30.11M12.39 48.1l4.28 30.11M11.7 48.19l4.31 30.11"/><path fill="none" stroke="#000" stroke-linecap="round" stroke-linejoin="round" stroke-width=".22" d="m6.69 22.01 1.33-.19M6.69 22.01l1.33-.19M2.7 22.57l3.99-.56M8.02 21.82l10.91-1.53M15.29 82.88l1.33-.18M15.29 82.88l1.33-.18M11.3 83.44l3.99-.56M16.62 82.7l10.91-1.54M2.7 22.57l16.23-2.28"/><path fill="#2d2d2c" fill-rule="evenodd" d="m27.79 83.04.19 1.28-16.23 2.28-.45-3.16 16.23-2.28.18 1.29.08.59z"/><path fill="#2d2d2c" d="m.005 3.372 16.231-2.28 2.697 19.19-16.23 2.282z"/><path fill="none" stroke="#000" stroke-linecap="round" stroke-linejoin="round" stroke-width=".22" d="m16.59 193.17 10.91-1.53M11.27 193.92l3.99-.56M15.26 193.36l1.33-.19M7.99 132.3l10.9-1.54M2.66 133.04l4-.56M6.66 132.48l1.33-.18"/><path fill="none" stroke="#000" stroke-linecap="round" stroke-linejoin="round" stroke-width=".25" d="m2.66 133.04 8.61 60.88M18.89 130.76l8.61 60.88M7.99 132.3l.33 2.39M8.32 134.69l-1.33.19M6.99 134.88l-.33-2.4M10.03 156.46l-.17-1.2M9.86 155.26l1.33-.19M11.19 155.07l.16 1.2M7.66 134.79l2.86 20.37M8.32 134.69l2.87 20.38M9.86 155.26l-2.87-20.38M11.35 156.27l.09.6M11.44 156.87l-.67.09M10.77 156.96l.09.6M10.86 157.56l-.67.09M10.19 157.65l-.17-1.19M15.26 193.36l-.41-2.93M14.85 190.43l.66-.1M15.51 190.33l.11.74M15.62 191.07l.66-.1M16.28 190.97l.31 2.2M14.85 190.43l-4.66-32.78M13.18 164.44l3.46 24.24M12.1 156.78l.26 1.79M12.36 158.57l-1.33.19M11.03 158.76l-.26-1.8M10.77 156.96l1.33-.18M15.62 191.07l-.31-2.2M15.31 188.87l1.33-.19M16.64 188.68l.31 2.2M16.95 190.88l-1.33.19M15.31 188.87l-4.28-30.11M12.36 158.57l4.28 30.11M11.67 158.67l4.3 30.1"/><path fill="none" stroke="#000" stroke-linecap="round" stroke-linejoin="round" stroke-width=".22" d="m6.66 132.48 1.33-.18M6.66 132.48l1.33-.18M2.66 133.04l4-.56M7.99 132.3l10.9-1.54M15.26 193.36l1.33-.19M15.26 193.36l1.33-.19M11.27 193.92l3.99-.56M16.59 193.17l10.91-1.53M2.66 133.04l16.23-2.28"/><path fill="#2d2d2c" fill-rule="evenodd" d="m27.78 193.61.19 1.36-16.23 2.28-.47-3.33 16.23-2.28.19 1.35.09.62z"/><path fill="#2d2d2c" d="m-.006 114.088 16.23-2.281 2.664 18.953-16.23 2.282z"/><path fill="#2d2d2c" fill-rule="evenodd" d="M11.27 225.86h16.69l.02-30.89-16.71-1.05v31.94zM11.27 117.75h16.69l.02-33.43-16.68-.88-.03 34.31z"/><path fill="#2d2d2c" d="M0 210.57h16.39v15.3H0zM0 100.23h16.39v13.85H0zM0 0h16.39v3.38H0zM21.07 117.74v-8.47h106.07v8.47zM253.87.15h8.47v173.48h-8.47zM253.87 206.1h8.47v26.72h-8.47z"/><path fill="#2d2d2c" d="M258.1 167.1v-6.33h77.53v6.33z"/><path fill="#2d2d2c" d="M330.62 160.77h6.33v72.05h-6.33z"/></g><g id="Doors"><path fill="none" stroke="#000" stroke-linecap="round" stroke-linejoin="round" stroke-width=".29" d="M216.15 165.95c-.98 2.68-1.25 4.06-1.4 6.92"/><path fill="#2d2d2c" fill-rule="evenodd" d="m216.17 165.52-.32.76 15.93 7.04h.24v-.83l-15.85-6.97z"/><path fill="none" stroke="#000" stroke-linecap="round" stroke-linejoin="round" stroke-width=".29" d="M129.09 105.79c-1.38 3.77-1.76 5.7-1.96 9.71"/><path fill="#2d2d2c" fill-rule="evenodd" d="m129.13 105.18-.46 1.08 22.37 9.88h.34v-1.17l-22.25-9.79z"/><path fill="none" stroke="#000" stroke-linecap="round" stroke-linejoin="round" stroke-width=".29" d="M212.47 65.41c-3.2-1.18-4.85-1.5-8.27-1.67"/><path fill="#2d2d2c" fill-rule="evenodd" d="m212.99 65.44-.92-.39-8.41 19.03v.3h1l8.33-18.94z"/><path fill="none" stroke="#000" stroke-linecap="round" stroke-linejoin="round" stroke-width=".29" d="M285.76 240.69c-1.76-4.8-2.24-7.26-2.5-12.37"/><path fill="#2d2d2c" fill-rule="evenodd" d="m285.8 241.47-.59-1.37 28.49-12.58h.44v1.49l-28.34 12.46z"/></g><g id="Sizes"><path d="M216.75 150.97c-.27-.13-.49-.32-.66-.57a1.97 1.97 0 0 1-.31-.89h.91c.03.18.08.33.17.45s.2.2.34.26.3.08.49.08c.3 0 .53-.08.69-.24s.25-.38.25-.67v-.19c0-.32-.08-.57-.23-.74-.16-.17-.38-.26-.66-.26h-.45v-.85h.45c.25 0 .44-.07.58-.22s.21-.36.21-.63v-.2c0-.25-.07-.45-.22-.58-.15-.14-.35-.21-.62-.21-.15 0-.29.03-.41.09s-.22.15-.31.26c-.08.12-.14.27-.18.45h-.91c.06-.35.17-.65.33-.9s.37-.44.62-.57.53-.19.86-.19c.55 0 .98.15 1.28.44s.45.7.45 1.23v.11c0 .32-.09.6-.26.83s-.42.41-.73.52c.35.08.62.25.81.51.19.27.29.61.29 1.02v.11c0 .37-.07.69-.22.95s-.35.46-.63.6c-.27.14-.6.21-.99.21-.36 0-.67-.07-.94-.2ZM220.71 150.21h.9v.9l-.9.89v-1.78ZM222.75 149.34l2.14-4.63h.92l-2.09 4.58h3.13v.83h-4.11v-.78Zm2.76-2h.87v3.76h-.87v-3.76ZM230.22 147.93v.16c-.08.13-.19.23-.34.3-.15.06-.32.09-.52.09-.3 0-.57-.08-.8-.23s-.41-.37-.54-.66c-.13-.28-.19-.61-.19-.98 0-.42.07-.77.21-1.06.14-.29.34-.52.61-.67.27-.15.59-.23.96-.23s.7.08.96.23.47.38.61.68c.14.3.21.65.21 1.07 0 .23-.03.48-.09.74s-.14.52-.25.77c-.02.04-.04.08-.05.12l-.06.12-1.36 2.74h-.97l1.61-3.17Zm.04-.55c.15-.19.23-.46.23-.8s-.08-.6-.23-.79c-.15-.18-.37-.28-.65-.28s-.5.09-.66.28c-.15.18-.23.45-.23.79 0 .35.08.62.23.81.15.19.37.28.66.28s.5-.09.65-.29ZM160.41 150.97c-.27-.13-.49-.32-.66-.57a1.97 1.97 0 0 1-.31-.89h.91c.03.18.08.33.17.45s.2.2.34.26.3.08.49.08c.3 0 .53-.08.69-.24s.25-.38.25-.67v-.19c0-.32-.08-.57-.23-.74-.16-.17-.38-.26-.66-.26h-.45v-.85h.45c.25 0 .44-.07.58-.22s.21-.36.21-.63v-.2c0-.25-.07-.45-.22-.58-.15-.14-.35-.21-.62-.21-.15 0-.29.03-.41.09s-.22.15-.31.26c-.08.12-.14.27-.18.45h-.91c.06-.35.17-.65.33-.9s.37-.44.62-.57.53-.19.86-.19c.55 0 .98.15 1.28.44s.45.7.45 1.23v.11c0 .32-.09.6-.26.83s-.42.41-.73.52c.35.08.62.25.81.51.19.27.29.61.29 1.02v.11c0 .37-.07.69-.22.95s-.35.46-.63.6c-.27.14-.6.21-.99.21-.36 0-.67-.07-.94-.2ZM164.38 150.21h.9v.9l-.9.89v-1.78ZM166.41 150.32l2.23-2.97c.13-.17.23-.35.3-.53.07-.18.11-.35.11-.51 0-.26-.07-.46-.22-.6s-.36-.21-.64-.21c-.26 0-.47.08-.63.23-.16.15-.26.37-.29.65s-.93 0-.93 0c.05-.37.16-.68.32-.94.16-.26.37-.46.63-.59.26-.14.56-.21.89-.21.38 0 .71.07.98.2s.47.32.62.57.21.55.21.9c0 .23-.05.47-.14.71s-.22.48-.39.71l-1.85 2.51h2.42v.85h-3.6v-.78ZM171.84 150.94c-.27-.15-.47-.37-.61-.66-.14-.29-.21-.64-.21-1.04a3.99 3.99 0 0 1 .32-1.52c.02-.04.04-.09.06-.13l.06-.12 1.39-2.75h.97l-1.63 3.19v-.16c.08-.14.18-.24.33-.32s.3-.11.49-.11c.33 0 .62.07.85.22s.42.37.54.65c.12.29.18.63.18 1.03 0 .41-.07.77-.21 1.06-.14.29-.34.52-.61.67-.27.15-.59.23-.96.23s-.7-.08-.96-.23Zm1.62-.9c.15-.18.23-.43.23-.75 0-.36-.08-.64-.24-.83-.16-.19-.39-.29-.69-.29-.27 0-.47.1-.62.29s-.22.47-.22.83c0 .33.08.58.23.75.15.17.37.26.65.26s.5-.09.66-.26ZM66.75 74.1h-.9v-5.41l-.91.56v-.93l.91-.61h.9v6.39ZM71.51 68.51l-1.65 5.59h-.95l1.65-5.54h-1.63v.92h-.9v-1.77h3.48v.8ZM72.65 73.21h.9v.9l-.9.89v-1.78ZM74.68 73.32l2.23-2.97c.13-.17.23-.35.3-.53.07-.18.11-.35.11-.51 0-.26-.07-.46-.22-.6s-.36-.21-.64-.21c-.26 0-.47.08-.63.23-.16.15-.26.37-.29.65s-.93 0-.93 0c.05-.37.16-.68.32-.94.16-.26.37-.46.63-.59.26-.14.56-.2.89-.2.38 0 .71.07.98.2s.47.32.62.57.21.55.21.9c0 .23-.05.47-.14.71s-.22.48-.39.71l-1.85 2.51h2.42v.85h-3.6v-.78ZM80.11 73.94c-.27-.15-.47-.37-.61-.66-.14-.29-.21-.64-.21-1.04a3.99 3.99 0 0 1 .32-1.52c.02-.04.04-.09.06-.13l.06-.12 1.39-2.75h.97l-1.63 3.19v-.16c.08-.14.18-.24.33-.32s.3-.11.49-.11c.33 0 .62.07.85.22s.42.37.54.65c.12.29.18.63.18 1.03 0 .41-.07.77-.21 1.06-.14.29-.34.52-.61.67-.27.15-.59.23-.96.23s-.7-.08-.96-.23Zm1.62-.9c.15-.18.23-.43.23-.75 0-.36-.08-.64-.24-.83-.16-.19-.39-.29-.69-.29-.27 0-.47.1-.62.29s-.22.47-.22.83c0 .33.08.58.23.75.15.17.37.26.65.26s.5-.09.66-.26ZM172.69 73.98a1.61 1.61 0 0 1-.61-.55c-.16-.24-.26-.53-.31-.87s.9 0 .9 0c.03.24.13.42.28.55.16.13.36.2.61.2.29 0 .51-.1.67-.29.16-.19.23-.46.23-.81v-.54c0-.35-.08-.61-.23-.81-.16-.19-.38-.29-.67-.29-.16 0-.3.04-.45.13s-.27.21-.38.37h-.82V67.7h3.26v.85h-2.36v1.44c.11-.09.24-.16.37-.21s.28-.07.42-.07c.37 0 .68.08.95.23s.46.38.6.67c.14.29.2.65.2 1.06v.54c0 .41-.07.77-.21 1.06s-.35.52-.62.67c-.27.15-.59.23-.97.23-.32 0-.61-.06-.86-.19ZM176.57 73.21h.9v.9l-.9.89v-1.78ZM180.96 70.93v.16c-.08.13-.19.23-.34.3s-.32.09-.52.09c-.3 0-.57-.08-.8-.23s-.41-.37-.54-.66c-.13-.28-.19-.61-.19-.98 0-.42.07-.77.21-1.06.14-.29.34-.52.61-.67.27-.15.59-.23.96-.23s.7.08.96.23.47.38.61.68c.14.3.21.65.21 1.07 0 .23-.03.48-.09.74s-.14.52-.25.77c-.02.04-.04.08-.05.12l-.06.12-1.36 2.74h-.97l1.61-3.17Zm.04-.55c.15-.19.23-.46.23-.8s-.08-.6-.23-.79c-.15-.18-.37-.28-.65-.28s-.5.09-.66.28c-.15.18-.23.45-.23.79 0 .35.08.62.23.81.15.19.37.28.66.28s.5-.1.65-.29ZM184.24 73.98a1.61 1.61 0 0 1-.61-.55c-.16-.24-.26-.53-.31-.87s.9 0 .9 0c.03.24.13.42.28.55.16.13.36.2.61.2.29 0 .51-.1.67-.29.16-.19.23-.46.23-.81v-.54c0-.35-.08-.61-.23-.81-.16-.19-.38-.29-.67-.29-.16 0-.3.04-.45.13s-.27.21-.38.37h-.82V67.7h3.26v.85h-2.36v1.44c.11-.09.24-.16.37-.21s.28-.07.42-.07c.37 0 .68.08.95.23s.46.38.6.67c.14.29.2.65.2 1.06v.54c0 .41-.07.77-.21 1.06s-.35.52-.62.67c-.27.15-.59.23-.97.23-.32 0-.61-.06-.86-.19ZM215.96 73.94c-.27-.15-.47-.37-.61-.66-.14-.29-.21-.64-.21-1.04a3.99 3.99 0 0 1 .32-1.52c.02-.04.04-.09.06-.13l.06-.12 1.39-2.75h.97l-1.63 3.19v-.16c.08-.14.18-.24.33-.32s.3-.11.49-.11c.33 0 .62.07.85.22s.42.37.54.65c.12.29.18.63.18 1.03 0 .41-.07.77-.21 1.06-.14.29-.34.52-.61.67-.27.15-.59.23-.96.23s-.7-.08-.96-.23Zm1.62-.9c.15-.18.23-.43.23-.75 0-.36-.08-.64-.24-.83-.16-.19-.39-.29-.69-.29-.27 0-.47.1-.62.29s-.22.47-.22.83c0 .33.08.58.23.75.15.17.37.26.65.26s.5-.09.66-.26ZM219.81 73.21h.9v.9l-.9.89v-1.78ZM221.84 73.32l2.23-2.97c.13-.17.23-.35.3-.53.07-.18.11-.35.11-.51 0-.26-.07-.46-.22-.6s-.36-.21-.64-.21c-.26 0-.47.08-.63.23-.16.15-.26.37-.29.65s-.93 0-.93 0c.05-.37.16-.68.32-.94.16-.26.37-.46.63-.59.26-.14.56-.2.89-.2.38 0 .71.07.98.2s.47.32.62.57.21.55.21.9c0 .23-.05.47-.14.71s-.22.48-.39.71l-1.85 2.51h2.42v.85h-3.6v-.78ZM227.27 73.94c-.27-.15-.47-.37-.61-.66-.14-.29-.21-.64-.21-1.04a3.99 3.99 0 0 1 .32-1.52c.02-.04.04-.09.06-.13l.06-.12 1.39-2.75h.97l-1.63 3.19v-.16c.08-.14.18-.24.33-.32s.3-.11.49-.11c.33 0 .62.07.85.22s.42.37.54.65c.12.29.18.63.18 1.03 0 .41-.07.77-.21 1.06-.14.29-.34.52-.61.67-.27.15-.59.23-.96.23s-.7-.08-.96-.23Zm1.62-.9c.15-.18.23-.43.23-.75 0-.36-.08-.64-.24-.83-.16-.19-.39-.29-.69-.29-.27 0-.47.1-.62.29s-.22.47-.22.83c0 .33.08.58.23.75.15.17.37.26.65.26s.5-.09.66-.26ZM66.49 192.4h-.9v-5.41l-.91.56v-.93l.91-.61h.9v6.39ZM70.2 189.23v.16c-.08.13-.19.23-.34.3-.15.06-.32.09-.52.09-.3 0-.57-.08-.8-.23s-.41-.37-.54-.66c-.13-.28-.19-.61-.19-.98 0-.42.07-.77.21-1.06.14-.29.34-.52.61-.67.27-.15.59-.23.96-.23s.7.08.96.23.47.38.61.68c.14.3.21.65.21 1.07 0 .23-.03.48-.09.74s-.14.52-.25.77c-.02.04-.04.08-.05.12l-.06.12-1.36 2.74h-.97l1.61-3.17Zm.04-.55c.15-.19.23-.46.23-.8s-.08-.6-.23-.79c-.15-.18-.37-.28-.65-.28s-.5.09-.66.28c-.15.18-.23.45-.23.79 0 .35.08.62.23.81.15.19.37.28.66.28s.5-.1.65-.29ZM72.47 191.51h.9v.9l-.9.89v-1.78ZM74.5 191.63l2.23-2.97c.13-.17.23-.35.3-.53.07-.18.11-.35.11-.51 0-.26-.07-.46-.22-.6s-.36-.21-.64-.21c-.26 0-.47.08-.63.23-.16.15-.26.37-.29.65s-.93 0-.93 0c.05-.37.16-.68.32-.94.16-.26.37-.46.63-.59.26-.14.56-.2.89-.2.38 0 .71.07.98.2s.47.32.62.57.21.55.21.9c0 .23-.05.47-.14.71s-.22.48-.39.71l-1.85 2.51h2.42v.85h-3.6v-.78ZM80.1 192.25c-.29-.15-.52-.35-.68-.62a1.79 1.79 0 0 1-.24-.93v-.11c0-.32.08-.62.24-.9.16-.28.37-.49.64-.64-.23-.12-.41-.3-.54-.53-.14-.23-.2-.48-.2-.74v-.15c0-.33.07-.63.22-.88s.36-.45.63-.59c.27-.14.59-.21.95-.21s.68.07.95.21c.27.14.48.34.63.59.15.25.22.55.22.88v.15c0 .26-.07.51-.21.74a1.4 1.4 0 0 1-.55.53c.27.15.49.36.65.64.16.28.24.58.24.9v.11c0 .35-.08.67-.24.93-.16.27-.39.48-.68.62s-.63.22-1.02.22-.73-.07-1.02-.22Zm1.57-.76c.16-.08.28-.2.37-.35.09-.15.13-.32.13-.51v-.06c0-.2-.04-.37-.13-.52-.09-.15-.21-.26-.37-.34s-.34-.12-.55-.12-.39.04-.55.12-.28.2-.37.35a.98.98 0 0 0-.13.52v.07c0 .19.04.36.13.51.09.15.21.26.37.34.16.08.34.12.55.12s.39-.04.55-.12Zm-.07-2.88c.14-.08.24-.19.32-.33s.11-.31.11-.5v-.06c0-.18-.04-.34-.11-.47s-.18-.24-.32-.32c-.14-.07-.3-.11-.47-.11s-.34.04-.47.11c-.14.08-.24.18-.32.32s-.11.3-.11.48v.07c0 .18.04.35.11.49.08.14.18.25.32.33.14.08.3.12.47.12s.34-.04.47-.12ZM288.95 199.28c-.29-.15-.52-.35-.68-.62a1.79 1.79 0 0 1-.24-.93v-.11c0-.32.08-.62.24-.9.16-.28.37-.49.64-.64-.23-.12-.41-.3-.54-.53-.14-.23-.2-.48-.2-.74v-.15c0-.33.07-.63.22-.88s.36-.45.63-.59c.27-.14.59-.21.95-.21s.68.07.95.21c.27.14.48.34.63.59.15.25.22.55.22.88v.15c0 .26-.07.51-.21.74a1.4 1.4 0 0 1-.55.53c.27.15.49.36.65.64.16.28.24.58.24.9v.11c0 .35-.08.67-.24.93-.16.27-.39.48-.68.62s-.63.22-1.02.22-.73-.07-1.02-.22Zm1.57-.76c.16-.08.28-.2.37-.35.09-.15.13-.32.13-.51v-.06c0-.2-.04-.37-.13-.52-.09-.15-.21-.26-.37-.34s-.34-.12-.55-.12-.39.04-.55.12-.28.2-.37.35a.98.98 0 0 0-.13.52v.07c0 .19.04.36.13.51.09.15.21.26.37.34.16.08.34.12.55.12s.39-.04.55-.12Zm-.07-2.88c.14-.08.24-.19.32-.33s.11-.31.11-.5v-.06c0-.18-.04-.34-.11-.47s-.18-.24-.32-.32c-.14-.07-.3-.11-.47-.11s-.34.04-.47.11c-.14.08-.24.18-.32.32s-.11.3-.11.48v.07c0 .18.04.35.11.49.08.14.18.25.32.33.14.08.3.12.47.12s.34-.04.47-.12ZM293.08 198.54h.9v.9l-.9.89v-1.78ZM296.13 199.31a1.61 1.61 0 0 1-.61-.55c-.16-.24-.26-.53-.31-.87s.9 0 .9 0c.03.24.13.42.28.55.16.13.36.2.61.2.29 0 .51-.1.67-.29.16-.19.23-.46.23-.81V197c0-.35-.08-.61-.23-.81-.16-.19-.38-.29-.67-.29-.16 0-.3.04-.45.13s-.27.21-.38.37h-.82v-3.37h3.26v.85h-2.36v1.44c.11-.09.24-.16.37-.21s.28-.08.42-.08c.37 0 .68.08.95.23s.46.38.6.67c.14.29.2.65.2 1.06v.54c0 .41-.07.77-.21 1.06s-.35.52-.62.67c-.27.15-.59.23-.97.23-.32 0-.61-.06-.86-.19ZM301.03 199.31a1.61 1.61 0 0 1-.61-.55c-.16-.24-.26-.53-.31-.87s.9 0 .9 0c.03.24.13.42.28.55.16.13.36.2.61.2.29 0 .51-.1.67-.29.16-.19.23-.46.23-.81V197c0-.35-.08-.61-.23-.81-.16-.19-.38-.29-.67-.29-.16 0-.3.04-.45.13s-.27.21-.38.37h-.82v-3.37h3.26v.85h-2.36v1.44c.11-.09.24-.16.37-.21s.28-.08.42-.08c.37 0 .68.08.95.23s.46.38.6.67c.14.29.2.65.2 1.06v.54c0 .41-.07.77-.21 1.06s-.35.52-.62.67c-.27.15-.59.23-.97.23-.32 0-.61-.06-.86-.19Z"/></g></svg>