<svg xmlns="http://www.w3.org/2000/svg" viewBox="0 0 285.1 281.89"><defs><pattern id="_Новый_узор_4" width="9.82" height="9.82" x="0" y="0" patternTransform="matrix(1.05 0 0 1.03 -157.66 1072.71)" patternUnits="userSpaceOnUse"><g fill="none"><path d="M0 0h9.82v9.82H0z"/><g fill-rule="evenodd" stroke-linecap="round" stroke-width=".25" clip-path="url(#clippath)"><path stroke="#e6e6e6" stroke-linejoin="round" d="m14.73 19.65-4.91-4.92 4.91-4.91 4.91 4.91-4.91 4.92zM4.91 19.65 0 14.73l4.91-4.91 4.91 4.91-4.91 4.92zM-4.91 19.65l-4.91-4.92 4.91-4.91L0 14.73l-4.91 4.92z"/><path stroke="#e6e6e6" stroke-linejoin="round" d="M14.73 9.82 9.82 4.91 14.73 0l4.91 4.91-4.91 4.91z"/><path stroke="#999" stroke-miterlimit="3" d="M4.91 9.82 0 4.91 4.91 0l4.91 4.91-4.91 4.91z"/><path stroke="#e6e6e6" stroke-linejoin="round" d="m-4.91 9.82-4.91-4.91L-4.91 0 0 4.91l-4.91 4.91zM14.73 0 9.82-4.91l4.91-4.91 4.91 4.91L14.73 0zM4.91 0 0-4.91l4.91-4.91 4.91 4.91L4.91 0zM-4.91 0l-4.91-4.91 4.91-4.91L0-4.91-4.91 0z"/></g></g></pattern><pattern id="_Новый_узор_2" width="22.92" height="23.17" x="0" y="0" patternTransform="matrix(.7 0 0 .67 -2903.26 -2036.51)" patternUnits="userSpaceOnUse"><g fill="none"><path d="M0 0h22.92v23.17H0z"/><path stroke="#b5b5b5" stroke-miterlimit="10" stroke-width=".25" d="M22.69 17.61v11.12H.23V17.61h22.46m.11-.11H.12v11.34H22.8V17.5ZM22.69 6.03v11.12H.23V6.03h22.46m.11-.11H.12v11.34H22.8V5.92ZM22.69-5.56V5.56H.23V-5.56h22.46m.11-.11H.12V5.67H22.8V-5.67Z"/></g></pattern><clipPath id="clippath"><path fill="none" d="M0 0h9.82v9.82H0z"/></clipPath></defs><g id="Flats"><path id="fl166" fill="#fff" fill-rule="evenodd" d="M280.89 273.35V14.93l-.7-.44-17.96 8.07-52.38 13.06-24.65 2.64-25.15-2.23-52.38-13.06-18.16-9.78-12.19 9.37-52.38 13.06-19.6-.44V263.51h112.58l.32 10.5 162.65-.66z"/></g><g id="Grid"><path fill="url(#_Новый_узор_4)" d="M167.76 194.4h52v61.14h-52z"/><path fill="url(#_Новый_узор_2)" d="M228.82 194.4h48.43v73.3h-48.43z"/></g><g id="Mebel"><g fill="none" stroke="#6a6a6a" stroke-linecap="round" stroke-linejoin="round" stroke-width=".25"><path d="M110.49 245.81H96.45m0 0V211.3m0 0h14.04m0 0v34.51M103.36 211.3h-.45m0 0v34.51m0 0h.45m0 0V211.3M97.62 241.31h10.99m0 0v-.47m0 0H97.62m0 0v.47M97.62 240.05h10.99m0 0v-.47m0 0H97.62m0 0v.47M97.62 238.8h10.99m0 0v-.47m0 0H97.62m0 0v.47M97.62 237.54h10.99m0 0v-.47m0 0H97.62m0 0v.47M97.7 234.88l10.91 1.41m0 0 .05-.47m0 0-10.91-1.41m0 0-.05.47"/></g><g fill="none" stroke="#6a6a6a" stroke-linecap="round" stroke-linejoin="round" stroke-width=".25"><path d="M227.04 120.89v14.38m0 0h50.21m0 0v-14.38m0 0h-50.21M277.25 128.2v.46m0 0h-50.21m0 0v-.46m0 0h50.21M231.81 134.07v-11.25m0 0h.49m0 0v11.25m0 0h-.49M233.1 134.07v-11.25m0 0h.49m0 0v11.25m0 0h-.49M234.39 134.07v-11.25m0 0h.48m0 0v11.25m0 0h-.48M235.68 134.07v-11.25m0 0h.49m0 0v11.25m0 0h-.49M238.4 133.99l-1.44-11.17m0 0 .48-.05m0 0 1.44 11.17m0 0-.48.06"/></g><g fill="none" stroke="#6a6a6a" stroke-linecap="round" stroke-linejoin="round" stroke-width=".25"><path d="M188.82 153.88h-14.38m0 0v-43.76m0 0h14.38m0 0v43.76M181.52 110.12h-.46m0 0v43.76m0 0h.46m0 0v-43.76M175.64 149.1h11.25m0 0v-.49m0 0h-11.25m0 0v.49M175.64 147.81h11.25m0 0v-.49m0 0h-11.25m0 0v.49M175.64 146.52h11.25m0 0v-.48m0 0h-11.25m0 0v.48M175.64 145.24h11.25m0 0v-.49m0 0h-11.25m0 0v.49M175.73 142.51l11.17 1.44m0 0 .05-.48m0 0-11.17-1.44m0 0-.05.48"/></g><g fill="none" stroke="#6a6a6a" stroke-linecap="round" stroke-linejoin="round" stroke-width=".25"><path d="M227.27 138.14v16.36m0 0h36.4m0 0v-16.36m0 0h-36.4M263.67 146.45v.52m0 0h-36.41m0 0v-.52m0 0h36.41M232.7 153.13v-12.8m0 0h.55m0 0v12.8m0 0h-.55M234.16 153.13v-12.8m0 0h.55m0 0v12.8m0 0h-.55M235.63 153.13v-12.8m0 0h.55m0 0v12.8m0 0h-.55M237.09 153.13v-12.8m0 0h.55m0 0v12.8m0 0h-.55M240.2 153.03l-1.64-12.71m0 0 .55-.06m0 0 1.64 12.71m0 0-.55.06"/></g><g fill="none" stroke="#6a6a6a" stroke-linecap="round" stroke-linejoin="round" stroke-width=".25"><path d="M277.25 191.56h-13.56m0 0v-53.45m0 0h13.56m0 0v53.45M270.36 138.11h-.43m0 0v53.45m0 0h.43m0 0v-53.45M264.82 186.91h10.61m0 0v-.47m0 0h-10.61m0 0v.47M264.82 185.65h10.61m0 0v-.47m0 0h-10.61m0 0v.47M264.82 184.4h10.61m0 0v-.47m0 0h-10.61m0 0v.47M264.82 183.14h10.61m0 0v-.47m0 0h-10.61m0 0v.47M264.9 180.49l10.53 1.4m0 0 .05-.47m0 0-10.53-1.4m0 0-.05.47"/></g><g fill="none" stroke="#6a6a6a" stroke-linecap="round" stroke-linejoin="round" stroke-width=".25"><path d="M110.19 202.85c0 2.96-2.38 5.36-5.33 5.36s-5.33-2.4-5.33-5.36 2.38-5.35 5.33-5.35 5.33 2.4 5.33 5.35ZM109.32 202.47l-.91.33m0 0h-.97m0 0-.91-.33m0 0-1.09.26m0 0h-1.12m0 0-1.09-.26m0 0-.92.34m0 0h-.98m0 0-.92-.34m0 0 1.66 2.23m0 0h5.61m0 0 1.66-2.23M107.66 204.89h-5.61m0 0v-.19m0 0h5.61m0 0v.19M107.66 205.28h-5.61m0 0v-.2m0 0h5.61m0 0v.2M104.23 201.34l.66-.06m0 0 .02.17m0 0-.35.03m0 0 1.03.85m0 0-.09.11m0 0-.48-.4m0 0-.05.06m0 0 .55.46m0 0-.09.11m0 0-.55-.46m0 0-.06.07m0 0 .45.37m0 0-.08.1m0 0-.45-.37m0 0-.06.07m0 0 .31.26m0 0-.09.1m0 0-1.06-.88M113.27 194.4H96.45m0 0v16.91m0 0h16.82m0 0V194.4M96.45 194.4v16.91m0 0"/></g><g fill="none" stroke="#6a6a6a" stroke-linecap="round" stroke-linejoin="round" stroke-width=".25"><path d="M213.38 69.68v4.39m0 0v.45m-.01 0-.03.43m0 0-.05.4m0 0-.07.36m0 0h0m0 .01-.08.32m0 0-.1.26m0 0v.02m0 0-.11.19m0 0v.02m-.01 0-.12.12m0 0h-.02m0 .01h-.02m0 .01h-.02m0 0-.12.04m0 0h-.02m0 0h-.01m0 0h-1.21m0 0v1.1m0 0h-4.16m0-11.88h4.16m0 0v1.1m0 0h1.21m0 0h.01m0 0h.02m0 0 .12.04m0 0h.02m0 0h.02m0 .01h.02m0 .01.12.12m0 0v.02m.01 0 .11.19m0 0v.02m0 0 .1.26m0 0 .09.32m0 0h0m0 .01.07.36m0 0 .05.4m0 0 .03.43m0 0v.45M210.63 76.72v-9.68M210.63 76.59h.96M210.63 67.17h.96M207.19 67.04h4.16M207.19 76.72h4.16M212.28 74.08v-4.4M211.59 76.59c.38 0 .68-1.12.68-2.51M212.28 69.68c0-1.39-.31-2.51-.69-2.51M191.04 95.68V53.1h16.08v42.58z"/></g><g fill="none" stroke="#6a6a6a" stroke-linecap="round" stroke-linejoin="round" stroke-width=".25"><path d="M162.85 69.68v4.39m0 0v.45m.01 0 .03.43m0 0 .05.4m0 0 .07.36m0 0h0m0 .01.08.32m0 0 .1.26m0 0v.02m0 0 .11.19m0 0v.02m.01 0 .12.12m0 0h.02m0 .01h.02m0 .01h.02m0 0 .12.04m0 0h.02m0 0h.01m0 0h1.21m0 0v1.1m0 0h4.16m0-11.88h-4.16m0 0v1.1m0 0h-1.21m0 0h-.01m0 0h-.02m0 0-.12.04m0 0h-.02m0 0h-.02m0 .01h-.02m0 .01-.12.12m0 0v.02m-.01 0-.11.19m0 0v.02m0 0-.1.26m0 0-.09.32m0 0h0m0 .01-.07.36m0 0-.05.4m0 0-.03.43m0 0v.45M165.59 76.72v-9.68M165.59 76.59h-.96M165.59 67.17h-.96M169.03 67.04h-4.15M169.03 76.72h-4.15M163.95 74.08v-4.4M164.63 76.59c-.38 0-.68-1.12-.68-2.51M163.95 69.68c0-1.39.31-2.51.69-2.51M169.09 95.67V53.09h16.08v42.58z"/></g><g fill="none" stroke="#6a6a6a" stroke-linecap="round" stroke-linejoin="round" stroke-width=".25"><path d="M252.65 54.68h24.6m0 0v54.93m0 0h-24.6m0 0V54.68M254.03 53.31h21.85m0 0 .53.1m0 0 .45.3m0 0 .3.45m0 0 .1.53m0 0h-24.6m0 0 .1-.53m0 0 .3-.45m0 0 .45-.3m0 0 .53-.1M252.65 112.35h24.6m0 0v-2.75m0 0h-24.6m0 0v2.75M277.25 112.35h-24.6m0 0v-1.37m0 0h24.6m0 0v1.37M274.24 108.23h-18.67m0 0-.19-.08m0 0-.08-.19m0 0V98.9m0 0 .08-.19m0 0 .19-.08m0 0h18.67m0 0 .19.08m0 0 .08.19m0 0v9.06m0 0-.08.19m0 0-.19.08M252.65 99.36h2.64M274.52 99.36h2.7M252.65 95.72h24.6m0 0V82.14m0 0-24.6 10.83m0 0v2.75"/></g><g fill="none" stroke="#6a6a6a" stroke-linecap="round" stroke-linejoin="round" stroke-width=".25"><path d="M96.45 54.68h24.6m0 0v54.93m0 0h-24.6m0 0V54.68M97.82 53.31h21.85m0 0 .53.1m0 0 .45.3m0 0 .3.45m0 0 .1.53m0 0h-24.6m0 0 .1-.53m0 0 .3-.45m0 0 .45-.3m0 0 .53-.1M96.45 112.35h24.6m0 0v-2.75m0 0h-24.6m0 0v2.75M121.05 112.35h-24.6m0 0v-1.37m0 0h24.6m0 0v1.37M118.04 108.23H99.37m0 0-.19-.08m0 0-.08-.19m0 0V98.9m0 0 .08-.19m0 0 .19-.08m0 0h18.67m0 0 .19.08m0 0 .08.19m0 0v9.06m0 0-.08.19m0 0-.19.08M96.45 99.36h2.64M118.31 99.36h2.7M96.45 95.72h24.6m0 0V82.14m0 0-24.6 10.83m0 0v2.75"/></g><g fill="none" stroke="#6a6a6a" stroke-linecap="round" stroke-linejoin="round" stroke-width=".25"><path d="M29.17 101.92V82.83m0 0H13.32m0 0v19.09m0 0h15.85M29.17 82.83V63.74m0 0H13.32m0 0v19.09m0 0h15.85M29.17 63.74v-6.39m0 0H6.52m0 0v6.39m0 0h1.13m5.66 0h15.85M29.17 108.31v-6.39m0 0H13.32m-5.66 0H6.53m0 0v6.39m0 0h22.64M7.66 82.83h5.66m0 0V60.55m0 0H7.66m0 0v22.28M7.66 82.83h5.66m0 0v22.28m0 0H7.66m0 0V82.83"/></g><g fill="none" stroke="#6a6a6a" stroke-linecap="round" stroke-linejoin="round" stroke-width=".25"><path d="M85.02 104.74V60.92m0 0h8.66m0 0v43.82m0 0h-8.66M85.46 104.74V60.92M85.02 82.83h.44M85.02 104.74h.44M90.1 70.12h.58m0 0v25.41m0 0h-.58m0 0V70.12M90.69 70.93l1.95-.41m0 0-.08-.39m0 0-1.87.39m0 0v.41M90.69 75.68h.48m0 0 .32.09m0 0 .24.24m0 0 .09.33m0 0v13m0 0-.09.32m0 0-.24.24m0 0-.32.09m0 0h-.48m0 0v-14.3M89.9 70.93l-1.95-.41m0 0 .08-.39m0 0 1.87.39m0 0v.41M90.69 94.73l1.95.41m0 0-.08.39m0 0-1.87-.39m0 0v-.41M89.93 94.73l-1.95.41m0 0 .08.39m0 0 1.87-.39m0 0v-.41M89.93 70.12h.17m0 0v25.41m0 0h-.17m0 0V70.12"/></g><path fill="none" stroke="#6a6a6a" stroke-linecap="round" stroke-linejoin="round" stroke-width=".25" d="M42.79 67.52h15.17v30.62H42.79z"/><g fill="#fff" stroke="#6a6a6a" stroke-linecap="round" stroke-linejoin="round" stroke-width=".25"><path d="m243.53 220.99-.43-1.05-.68-.91-.9-.7-1.12-.53-1.2-.34-1.23-.15-1.24.05-8.42.88v7.74l8.42.89 1.24.05 1.23-.15 1.2-.35 1.12-.52.9-.7.68-.91.43-1.05.15-1.13-.15-1.12Zm-.7 3.35c-1.25 1.61-3.08 2.48-4.96 2.36-1.9.05-3.77-.5-5.4-1.59v-5.99c1.63-1.09 3.5-1.64 5.4-1.59 1.88-.12 3.71.75 4.96 2.36.42.64.64 1.42.65 2.22 0 .81-.23 1.58-.65 2.23Z"/><path d="M243.48 222.11c0 .81-.23 1.58-.65 2.23-1.25 1.61-3.08 2.48-4.96 2.36-1.9.05-3.77-.5-5.4-1.59v-5.99c1.63-1.09 3.5-1.64 5.4-1.59 1.88-.12 3.71.75 4.96 2.36.42.64.64 1.42.65 2.22Z"/></g><g fill="#fff" stroke="#6a6a6a" stroke-linecap="round" stroke-linejoin="round" stroke-width=".25"><path d="M180.98 255.59h7.74l.89-8.42.04-1.24-.15-1.24-.34-1.19-.52-1.13-.71-.89-.9-.69-1.05-.43-1.13-.15-1.13.15-1.05.43-.91.69-.7.89-.52 1.13-.34 1.19-.15 1.24.04 1.24.89 8.42zM181.85 251.43h3M184.85 251.43h2.99"/><path d="M184.85 240.42c-.8 0-1.58.23-2.23.64M182.62 241.06c-1.61 1.25-2.48 3.08-2.36 4.96M180.26 246.03c-.05 1.9.5 3.77 1.59 5.4M187.84 251.43c1.09-1.64 1.65-3.51 1.59-5.4M189.43 246.03c.12-1.88-.75-3.71-2.36-4.96"/><path d="M187.07 241.06c-.65-.41-1.42-.64-2.23-.64"/></g><g fill="#fff" stroke="#6a6a6a" stroke-linecap="round" stroke-linejoin="round" stroke-width=".25"><path d="M277.25 246.69v21.01h-48.43v-21.01h48.43Zm-46.57 12.04.41 1.48.66 1.4.9 1.26 1.12 1.09 1.28.88 1.43.65 1.51.4 1.57.14h31.69l.74-.07.72-.18.68-.31.61-.42.54-.52.43-.61.31-.66.19-.71.07-.73v-9.24l-.07-.73-.19-.71-.31-.66-.43-.61-.54-.52-.61-.42-.68-.31-.72-.18-.74-.07h-31.69l-1.57.14-1.51.4-1.43.65-1.28.88-1.12 1.09-.9 1.26-.66 1.4-.41 1.48-.14 1.54.14 1.53Z"/><path d="m230.68 255.66.41-1.48.66-1.4.9-1.26 1.12-1.09 1.28-.88 1.43-.65 1.51-.4 1.57-.14h31.69l.74.07.72.18.68.31.61.42.54.52.43.61.31.66.19.71.07.73v9.24l-.07.73-.19.71-.31.66-.43.61-.54.52-.61.42-.68.31-.72.18-.74.07h-31.69l-1.57-.14-1.51-.4-1.43-.65-1.28-.88-1.12-1.09-.9-1.26-.66-1.4-.41-1.48-.14-1.53.14-1.54Zm39.47 2.27c.41 0 .74-.32.74-.73s-.33-.74-.74-.74-.74.32-.74.74.32.73.74.73Z"/><path d="M269.41 257.2c0 .41.32.73.74.73s.74-.32.74-.73-.33-.74-.74-.74-.74.32-.74.74Z"/></g><g fill="#fff" stroke="#6a6a6a" stroke-linecap="round" stroke-linejoin="round" stroke-width=".25"><path d="M196.88 194.44h22.88v49.16h-22.88zM198.71 200.48l.07-.75m0 0 .21-.73m0 0 .34-.68m0 0 .46-.62m0 0 .56-.53m0 0 .65-.43m0 0 .72-.32m0 0 .77-.19m0 0 .79-.07m0 0h10.07m0 0 .79.07m0 0 .77.19m0 0 .72.32m0 0 .65.43m0 0 .56.53m0 0 .46.62m0 0 .34.68m0 0 .21.73m0 0 .07.75m0 0v32.34m0 0-.15 1.57m0 0-.43 1.52m0 0-.71 1.43m0 0-.96 1.29m0 0-1.18 1.12m0 0-1.37.9m0 0-1.52.67m0 0-1.62.41m0 0-1.67.14m0 0-1.67-.14m0 0-1.62-.41m0 0-1.52-.67m0 0-1.37-.9m0 0-1.18-1.12m0 0-.96-1.29m0 0-.71-1.43m0 0-.43-1.52m0 0-.15-1.57m0 0v-32.34"/><path d="M208.32 200.83c.44 0 .81.33.81.74s-.36.74-.81.74-.81-.33-.81-.74.36-.74.81-.74Z"/></g><g fill="#fff" stroke="#6a6a6a" stroke-linecap="round" stroke-linejoin="round" stroke-width=".25"><path d="M176.13 204.97h16.19l.28-.11.12-.28v-9.78l-.12-.28-.28-.12h-16.19l-.28.12-.12.28v9.78l.12.28.28.11zM191.52 197.3h-6.97m-.64 0h-6.97M176.54 197.7v6.08M176.94 204.18h14.58M191.92 203.78v-6.08"/><path d="M176.54 197.7c0-.22.18-.4.4-.4M176.94 204.18c-.22 0-.4-.18-.4-.4M191.92 203.78c0 .22-.18.4-.4.4M191.52 197.3c.22 0 .4.18.4.4M184.55 198.97a.526.526 0 0 1 0 .84v-.85Zm-.64.85a.526.526 0 0 1 0-.84v.85ZM183.91 194.77h.64m0 0v5.42m0 0-.18.21m0 0h-.28m0 0-.18-.21m0 0v-5.42M186.54 195.72v-1.14m0 0h-.07m0 0v-.09m0 0h-.2m0 0v-.09m0 0h1.34m0 0v.09m0 0h-.2m0 0v.09m0 0h-.07m0 0v1.14m0 0h-.23m0 0v.29m0 0h.76m0 0v.34m0 0H186m0 0v-.34m0 0h.76m0 0v-.29m0 0h-.23M181.91 195.72v-1.14m0 0h.07m0 0v-.09m0 0h.2m0 0v-.09m0 0h-1.34m0 0v.09m0 0h.2m0 0v.09m0 0h.07m0 0v1.14m0 0h.23m0 0v.29m0 0h-.76m0 0v.34m0 0h1.87m0 0v-.34m0 0h-.76m0 0v-.29m0 0h.23M187.12 196.01l-.05.05M186.77 196.01l.05.05M187.12 195.72h-.35M181.34 196.01l.05.05M181.69 196.01l-.05.05M181.34 195.72h.35M186.94 196.01c.1 0 .17.08.17.17s-.08.17-.17.17-.17-.08-.17-.17.08-.17.17-.17ZM181.51 196.01c.1 0 .17.08.17.17s-.08.17-.17.17-.17-.08-.17-.17.08-.17.17-.17Z"/></g><g fill="#fff" stroke="#6a6a6a" stroke-linecap="round" stroke-linejoin="round" stroke-width=".25"><path d="M275.61 226.48v-.27h1.36v-.08h.11v-.24h.11v-5.6l-.14-.34-.34-.14h-11.63l-.34.14-.14.34v19.26l.14.33.34.14h11.63l.34-.14.14-.33v-5.61h-.11v-.23h-.11v-.08h-1.36v-.28h-.34v.91h-.41v-2.23h.41v.91h.34v-.27h1.36v-.08h.11v-.24h.11v-4.87h-.11v-.24h-.11v-.08h-1.36v-.27h-.34v.91h-.41v-2.23h.41v.91h.34Zm1.14 3.06v.76h-3.02v8.29c0 .27-.21.48-.48.48h-7.23c-.26 0-.47-.21-.47-.48v-17.35c0-.26.21-.47.47-.47h7.23c.27 0 .48.21.48.47v8.3h3.02Z"/><path d="M276.75 229.54v.76h-6.45l-.25-.22v-.33l.25-.21h6.45z"/><path d="M270.05 229.75v.33l.25.22h.44c.11.15.29.25.5.25s.39-.1.5-.25h1.99v8.29l-.48.48h-7.23l-.47-.48v-17.35l.47-.47h7.23l.48.47v8.3h-1.99a.611.611 0 0 0-1 0h-.44l-.25.21Z"/><path d="m273.73 221.24-.48-.47c.27 0 .48.21.48.47ZM266.02 220.77l-.47.47c0-.26.21-.47.47-.47ZM266.02 239.07c-.26 0-.47-.21-.47-.48l.47.48ZM273.73 238.59c0 .27-.21.48-.48.48l.48-.48ZM270.74 230.3c.11.15.29.25.5.25s.39-.1.5-.25h-1Zm.5-1.02c-.21 0-.39.1-.5.26h1a.611.611 0 0 0-.5-.26ZM277.19 232.35v1.59h-.11v-.23h-.11v-.08h-1.36v-.96h1.36v-.08h.11v-.24h.11zM275.27 232.03v.91l-.06.06s-.09-.06-.15-.06c-.11 0-.2.09-.2.21v-1.12h.41Z"/><path d="M275.27 233.35v.91h-.41v-1.11c0 .11.09.21.2.21.06 0 .11-.02.15-.06l.06.05ZM275.61 232.94v.41h-.34l-.06-.05h0s.06-.1.06-.15c0-.06-.02-.11-.06-.15l.06-.06h.34Z"/><path d="M275.27 233.15s-.02.1-.06.14h0a.18.18 0 0 1-.15.07c-.11 0-.2-.1-.2-.21 0-.12.09-.21.2-.21a.204.204 0 0 1 .21.21ZM275.27 226.89v.91h-.41v-1.11c0 .11.09.2.2.2.06 0 .11-.02.15-.06l.06.06ZM277.19 225.89v1.59h-.11v-.24h-.11v-.08h-1.36v-.95h1.36v-.08h.11v-.24h.11z"/><path d="M275.61 226.48v.41h-.34l-.06-.06s.06-.09.06-.14c0-.06-.02-.11-.06-.15l.06-.06h.34ZM275.27 225.57v.91l-.06.06s-.09-.06-.15-.06c-.11 0-.2.09-.2.21v-1.12h.41Z"/><path d="M275.27 226.69s-.02.11-.06.14c-.04.04-.09.06-.15.06a.2.2 0 0 1-.2-.2c0-.12.09-.21.2-.21a.204.204 0 0 1 .21.21Z"/></g><g fill="#fff" stroke="#6a6a6a" stroke-linecap="round" stroke-linejoin="round" stroke-width=".25"><path d="M275.61 206.2v-.27h1.36v-.08h.11v-.24h.11v-5.6l-.14-.34-.34-.14h-11.63l-.34.14-.14.34v19.26l.14.33.34.14h11.63l.34-.14.14-.33v-5.61h-.11v-.23h-.11v-.08h-1.36v-.28h-.34v.91h-.41v-2.23h.41v.91h.34v-.27h1.36v-.08h.11v-.24h.11v-4.87h-.11v-.24h-.11v-.08h-1.36v-.27h-.34v.91h-.41v-2.23h.41v.91h.34Zm1.14 3.06v.76h-3.02v8.29c0 .27-.21.48-.48.48h-7.23c-.26 0-.47-.21-.47-.48v-17.35c0-.26.21-.47.47-.47h7.23c.27 0 .48.21.48.47v8.3h3.02Z"/><path d="M276.75 209.26v.76h-6.45l-.25-.22v-.33l.25-.21h6.45z"/><path d="M270.05 209.47v.33l.25.22h.44c.11.15.29.25.5.25s.39-.1.5-.25h1.99v8.29l-.48.48h-7.23l-.47-.48v-17.35l.47-.47h7.23l.48.47v8.3h-1.99a.611.611 0 0 0-1 0h-.44l-.25.21Z"/><path d="m273.73 200.96-.48-.47c.27 0 .48.21.48.47ZM266.02 200.49l-.47.47c0-.26.21-.47.47-.47ZM266.02 218.79c-.26 0-.47-.21-.47-.48l.47.48ZM273.73 218.31c0 .27-.21.48-.48.48l.48-.48ZM270.74 210.02c.11.15.29.25.5.25s.39-.1.5-.25h-1Zm.5-1.02c-.21 0-.39.1-.5.26h1a.611.611 0 0 0-.5-.26ZM277.19 212.07v1.59h-.11v-.23h-.11v-.08h-1.36v-.96h1.36v-.08h.11v-.24h.11zM275.27 211.75v.91l-.06.06s-.09-.06-.15-.06c-.11 0-.2.09-.2.21v-1.12h.41Z"/><path d="M275.27 213.07v.91h-.41v-1.11c0 .11.09.21.2.21.06 0 .11-.02.15-.06l.06.05ZM275.61 212.66v.41h-.34l-.06-.05h0s.06-.1.06-.15c0-.06-.02-.11-.06-.15l.06-.06h.34Z"/><path d="M275.27 212.87s-.02.1-.06.14h0a.18.18 0 0 1-.15.07c-.11 0-.2-.1-.2-.21 0-.12.09-.21.2-.21a.204.204 0 0 1 .21.21ZM275.27 206.61v.91h-.41v-1.11c0 .11.09.2.2.2.06 0 .11-.02.15-.06l.06.06ZM277.19 205.61v1.59h-.11v-.24h-.11v-.08h-1.36v-.95h1.36v-.08h.11v-.24h.11z"/><path d="M275.61 206.2v.41h-.34l-.06-.06s.06-.09.06-.14c0-.06-.02-.11-.06-.15l.06-.06h.34ZM275.27 205.29v.91l-.06.06s-.09-.06-.15-.06c-.11 0-.2.09-.2.21v-1.12h.41Z"/><path d="M275.27 206.41s-.02.11-.06.14c-.04.04-.09.06-.15.06a.2.2 0 0 1-.2-.2c0-.12.09-.21.2-.21a.204.204 0 0 1 .21.21Z"/></g><g fill="none" stroke="#6a6a6a" stroke-linecap="round" stroke-linejoin="round" stroke-width=".25"><path d="m69.6 133.51-3.99-3.99m0 0-.41-.4m0 0-.42-.36m0 0-.41-.32m0 0-.39-.27m0 0h-.02m0 0-.36-.21m0 0-.32-.14m0 0h-.02m0 0-.27-.07m0 0h-.03m0 0h-.21m0 0h-.03m0 0h-.03m0 0h-.03m0 .01-.15.08m0 0-.02.02m0 0h-.01m0 0-1.1 1.1m0 0-1-1m0 0-5.07 5.07m10.8 10.8 5.07-5.07m0 0-1-1m0 0 1.1-1.1m0 0h.01m0-.01.02-.02m0 0 .08-.15m0 0v-.03m.01 0v-.03m0 0v-.03m0 0v-.21m0 0v-.03m0 0-.07-.27m0 0v-.02m0 0-.14-.32m0 0-.21-.37m0 0v-.02m-.01 0-.27-.39m0 0-.32-.41m0 0-.36-.42m0 0-.4-.41M60.71 129.6l8.8 8.8M60.83 129.72l.88-.87M69.39 138.28l.88-.87M65.63 142.28l4.53-4.53M56.83 133.48l4.53-4.53M64.61 130.51l4 4M61.71 128.85c.34-.34 1.64.4 2.9 1.66M68.61 134.51c1.26 1.26 2 2.56 1.66 2.9M34.04 161.08l3.99 3.99m0 0 .41.4m0 0 .42.36m0 0 .41.32m0 0 .39.27m0 0h.02m0 .01.37.21m0 0 .32.14m0 0h.02m0 0 .27.07m0 0h.03m0 0h.21m0 0h.03m0 0h.03m0 0h.03m0-.01.15-.08m0 0 .02-.02m0 0h.01m0-.01 1.1-1.1m0 0 1 1m0 0 5.07-5.07m-10.8-10.8-5.07 5.07m0 0 1 1m0 0-1.1 1.1m0 0h0m0 .01-.02.02m0 0-.08.15m0 0v.03m-.01 0v.03m0 0v.03m0 0v.21m0 0v.03m0 0 .07.27m0 0v.02m0 0 .14.32m0 0 .21.36m0 0v.02m0 0 .27.39m0 0 .32.41m0 0 .36.42m0 0 .4.41M42.93 164.99l-8.8-8.8M42.81 164.87l-.87.87M34.25 156.31l-.87.87M38.01 152.3l-4.53 4.53M46.81 161.1l-4.53 4.53M39.04 164.08l-4-4M41.94 165.74c-.34.34-1.64-.4-2.9-1.66M35.03 160.08c-1.26-1.26-2-2.56-1.66-2.9M38.03 129.51l-3.99 3.99m0 0-.4.41m0 0-.36.42m0 0-.32.41m0 0-.27.39m0 0v.02m0 0-.21.37m0 0-.14.32m0 0v.02m0 0-.07.27m0 0v.03m0 0v.21m0 0v.03m0 0v.03m0 0v.03m.01 0 .08.15m0 0 .02.02m0 0h0m0 .01 1.1 1.1m0 0-1 1m0 0 5.07 5.07m10.8-10.8-5.07-5.07m0 0-1 1m0 0-1.1-1.1m0 0h0m0 0-.03-.02m0 0-.15-.08m0 0h-.03m0-.01h-.03m0 0h-.03m0 0h-.21m0 0h-.03m0 0-.27.07m0 0h-.02m0 0-.32.14m0 0-.37.21m0 0h-.01m0 0-.39.27m0 0-.41.32m0 0-.42.36m0 0-.41.4M34.13 138.4l8.8-8.8M34.25 138.28l-.87-.87M42.81 129.72l-.87-.87M46.81 133.48l-4.53-4.53M38.01 142.28l-4.53-4.53M35.03 134.51l4.01-4M33.38 137.41c-.34-.34.4-1.64 1.66-2.9M39.03 130.51c1.26-1.26 2.56-2 2.9-1.66M65.61 165.07l3.99-3.99m0 0 .4-.41m0 0 .36-.42m0 0 .32-.41m0 0 .27-.39m0 0v-.02m.01 0 .21-.36m0 0 .14-.32m0 0v-.02m0 0 .07-.27m0 0v-.03m0 0v-.21m0 0v-.03m0 0v-.03m0 0v-.03m-.01 0-.08-.15m0 0-.02-.02m0 0h-.01m0-.01-1.1-1.1m0 0 1-1m0 0-5.07-5.07m-10.8 10.8 5.07 5.07m0 0 1-1m0 0 1.1 1.1m0 0h.01m0 .01.02.02m0 0 .15.08m0 0h.03m0 .01h.03m0 0h.03m0 0h.21m0 0h.03m0 0 .27-.07m0 0h.03m0 0 .32-.14m0 0 .36-.21m0 0h.02m0-.01.39-.27m0 0 .41-.32m0 0 .42-.36m0 0 .41-.4M69.51 156.19l-8.8 8.8M69.39 156.31l.88.87M60.83 164.87l.88.87M56.83 161.1l4.53 4.53M65.63 152.3l4.53 4.53M68.61 160.08l-4 4M70.27 157.18c.34.34-.4 1.64-1.66 2.9M64.61 164.08c-1.26 1.26-2.56 2-2.9 1.66M66.51 147.29c0 8.11-6.58 14.69-14.69 14.69s-14.69-6.57-14.69-14.69 6.58-14.69 14.69-14.69 14.69 6.58 14.69 14.69Z"/></g><g fill="none" stroke="#6a6a6a" stroke-linecap="round" stroke-linejoin="round" stroke-width=".25"><path d="M78.47 207.2h15.14m0 0v-15.56m0 0H78.47m0 0v15.56M86.04 196.91v5.02M84.26 197.64l3.57 3.55M83.52 199.42h5.05M84.26 201.19l3.57-3.55"/></g><path fill="none" stroke="#6a6a6a" stroke-linecap="round" stroke-linejoin="round" stroke-width=".25" d="M57.69 243.09h12.87m0 0 .36.15m0 0 .15.35m0 0v11.55m0 0-.15.35m0 0-.36.15m0 0H57.69m0 0-.36-.15m0 0-.15-.35m0 0v-11.55m0 0 .15-.35m0 0 .36-.15M58.95 244.35h10.34M69.8 244.85v7.78M69.29 253.14H58.95M58.44 252.63v-7.78"/><path fill="#999" fill-rule="evenodd" d="M58.95 244.35h-.07s.03-.07.07-.07.07.03.07.07-.03.07-.07.07-.07-.03-.07-.07h.07Z"/><path fill="none" stroke="#6a6a6a" stroke-linecap="round" stroke-linejoin="round" stroke-width=".25" d="M69.8 244.85c0-.28-.23-.5-.5-.5M69.29 253.14c.28 0 .5-.22.5-.5M58.44 252.63c0 .28.23.5.5.5M58.95 244.35c-.28 0-.5.22-.5.5M63.89 249.93l.07-.16m0 0 .16-.07m0 0 .16.07m0 0 .07.16m0 0v4.97m0 0-.07.16m0 0-.16.07m0 0-.16-.07m0 0-.07-.16m0 0v-4.97M63.62 253.61h.28m0 0v1.28m0 0 .07.16m0 0 .16.07m0 0 .16-.07m0 0 .07-.16m0 0v-1.28m0 0h.28m0 0v1.63m0 0h-1.01m0 0v-1.63M63.62 252.71h.27m0 0v.88m0 0h-.27m0 0v-.88M64.62 252.71v.88m0 0h-.27m0 0v-.88m0 0h.27M93.61 240.96H6.53m0 0v15.56m-.79 0h87.87m0 0v-15.56"/><g fill="none" stroke="#6a6a6a" stroke-linecap="round" stroke-linejoin="round" stroke-width=".25"><path d="M19.77 221.61v14.56m0 0H7.4m0 0v-14.56m0 0h12.37M12.23 228.89H8.7M8.7 228.89v.72M12.23 228.89v.72M12.23 234.77H8.7M8.7 234.04v.73M12.23 234.04v.73M10.32 222.92c-1.01 0-1.83.82-1.83 1.82s.82 1.82 1.83 1.82 1.83-.82 1.83-1.82-.82-1.82-1.83-1.82ZM15.82 222.94c-1.46 0-2.65 1.18-2.65 2.64s1.19 2.64 2.65 2.64 2.65-1.18 2.65-2.64-1.19-2.64-2.65-2.64Z"/><path d="M15.82 224.07c-.84 0-1.51.67-1.51 1.51s.68 1.51 1.51 1.51 1.51-.67 1.51-1.51-.68-1.51-1.51-1.51ZM10.44 230.07c-.98 0-1.77.79-1.77 1.76s.79 1.76 1.77 1.76 1.77-.79 1.77-1.76-.79-1.76-1.77-1.76ZM16.18 230.31c-1.25 0-2.27 1.01-2.27 2.26s1.02 2.26 2.27 2.26 2.27-1.01 2.27-2.26-1.02-2.26-2.27-2.26Z"/></g><g fill="none" stroke="#6a6a6a" stroke-linecap="round" stroke-linejoin="round" stroke-width=".25"><path d="M29.29 250.25c0-1.29 1.05-2.34 2.35-2.34s2.35 1.05 2.35 2.34-1.05 2.34-2.35 2.34-2.35-1.05-2.35-2.34Z"/><path d="M29.65 250.25c0-1.1.89-1.98 1.99-1.98s1.99.89 1.99 1.98-.89 1.98-1.99 1.98-1.99-.89-1.99-1.98ZM34.22 250.82c0-.98.8-1.77 1.78-1.77s1.78.79 1.78 1.77-.8 1.77-1.78 1.77-1.78-.79-1.78-1.77Z"/><path d="M35 250.82c0-.55.45-.99 1-.99s1 .44 1 .99-.45.99-1 .99-1-.44-1-.99ZM28.83 251.76h.67m0 0v.83m0 0h8.64m0 0v-.83m0 0h.66M29.85 244.9h6.65m0 0v.33m0 0H36m0 0v-.16m0 0h-5.65m0 0v.16m0 0h-.5m0 0v-.33M29.85 245.22l.03.07m.1.21.03.07m.1.21.03.07m.1.21.03.07m.1.21.03.07m.1.21.03.07m.1.21.03.07m.1.21.03.07m.1.21.03.07M36.49 245.22l-.03.07m-.1.21-.03.07m-.1.21-.03.07m-.1.21-.03.07m-.1.21-.03.07m-.1.21-.03.07m-.1.21-.03.07m-.1.21-.03.07m-.1.21-.03.07M29.85 245.22h.05m.08 0h.08m.08 0h.08m.08 0h.05m0 0 .03.04m.15.18.05.06m.15.18.05.06m.15.18.05.06m.15.18.05.06m.15.18.05.06m.15.18.05.06m.15.18.05.06m.15.18.05.06m.15.18.05.06m.15.18.05.06m.15.18.03.04M36.49 245.22h-.05m-.08 0h-.08m-.08 0h-.08m-.08 0h-.05m0 0-.03.04m-.15.18-.05.06m-.15.18-.05.06m-.15.18-.05.06m-.15.18-.05.06m-.15.18-.05.06m-.15.18-.05.06m-.15.18-.05.06m-.15.18-.05.06m-.15.18-.05.06m-.15.18-.05.06m-.15.18-.03.04M41.91 256.53v-15.56m0 0H25.74m0 0v15.56m0 0h16.17"/></g><path fill="none" stroke="#6a6a6a" stroke-linecap="round" stroke-linejoin="round" stroke-width=".25" d="M93.61 191.64v64.88H78.47v-64.88zM44.6 191.64H6.53v64.87h15.14v-47.98H44.6v-16.89z"/><g fill="none" stroke="#6a6a6a" stroke-linecap="round" stroke-linejoin="round" stroke-width=".25"><path d="M35.6 185.4h-4.41m0 0h-.45m0 .01-.43.03m0 0-.4.05m0 0-.36.07m0 0h-.01m0 0-.32.08m0 0-.26.1m0 0h-.02m0 0-.19.11m0 0h-.02m0 .01-.12.12m0 0v.02m-.01 0v.02m-.01 0v.02m0 0-.04.12m0 0v.02m0 0h0m0 .01v1.21m0 0h-1.11m0 0v4.16m11.94 0v-4.16m0 0h-1.11m0 0v-1.21m0 0h0m0-.01v-.02m0 0-.04-.12m0 0v-.02m0 0V186m-.01 0v-.02m-.01 0-.12-.12m0 0h-.02m0-.01-.19-.11m0 0h-.02m0 0-.26-.1m0 0-.32-.09m0 0h-.01m0 0-.37-.07m0 0-.4-.05m0 0-.43-.03m0 0h-.45M28.52 188.14h9.73M28.66 188.14v-.96M38.12 188.14v-.96M38.25 191.58v-4.16M28.52 191.58v-4.16M31.18 186.49h4.42M28.66 187.18c0-.38 1.13-.68 2.52-.68M35.6 186.49c1.39 0 2.52.31 2.52.69"/></g><path fill="none" stroke="#6a6a6a" stroke-dasharray="0 0 3 3" stroke-linecap="round" stroke-linejoin="round" stroke-width=".25" d="M44.6 191.64h33.88"/></g><g id="Walls_Inside" fill="#2d2d2c"><path d="M0 109.2h6.52v154.33H0z"/><path d="M0 263.54v-7.01h125.41v7.01zM256.76 194.4v-2.83h27.49v2.83zM164.93 194.4v-2.83H237v2.83zM93.62 194.39v-2.83h36.9v2.83zM227.04 138.11v-2.83h54.11v2.83zM93.62 156.71v-2.83h20.33v2.83zM138.71 156.72v-2.83h52.95v2.83z"/><path d="M188.82 106.26h2.83v50.45h-2.83zM93.61 15.81h2.83v139.48h-2.83zM93.61 193.62h2.83v67.5h-2.83zM164.92 187.65h2.83v24.68h-2.83zM164.92 155.29h2.83v8.1h-2.83zM164.92 233.16h2.83v37.04h-2.83zM219.76 192.98h2.83v78.97h-2.83z"/><path fill-rule="evenodd" d="M285.05 270.19h-7.8V4.45l7.8-4.45v270.19z"/><path d="M107.65 245.74h2.83v15.33h-2.83zM127.68 234.76h2.83v34.5h-2.83zM127.68 192.43h2.83v17.25h-2.83zM117.91 257.89h7.51v13.97h-7.51z"/><path d="M94.47 248.58v-2.83h16.02v2.83zM201.91 270.87h-2.83v-15.33h2.83z"/><path d="M165.7 258.37v-2.83h55.48v2.83zM226.84 193.01h1.98v76.18h-1.98z"/></g><g id="Walls_Outside"><path fill="none" stroke="#000" stroke-linecap="round" stroke-linejoin="round" stroke-width=".22" d="m110.31 12.3-2.66 10.69M111.61 7.09l-.97 3.91M110.64 11l-.33 1.3M162.7 25.36l-2.67 10.69M164 20.15l-.98 3.91M163.02 24.06l-.32 1.3"/><path fill="none" stroke="#000" stroke-linecap="round" stroke-linejoin="round" stroke-width=".25" d="M164 20.15 111.61 7.09M160.03 36.05l-52.38-13.06M162.7 25.36l-3-.74M159.7 24.62l.33-1.31M160.03 23.31l2.99.75M133.09 16.6l1.5.37M134.59 16.97l-.33 1.3M134.26 18.27l-1.5-.37M159.87 23.97l-25.45-6.35M159.7 24.62l-25.44-6.35M134.59 16.97l25.44 6.34M132.76 17.9l-.74-.19M132.02 17.71l.16-.65M132.18 17.06l-.75-.19M131.43 16.87l.16-.65M131.59 16.22l1.5.38M110.64 11l2.35.58M112.99 11.58l-.16.66M112.83 12.24l-.59-.15M112.24 12.09l-.16.65M112.08 12.74l-1.77-.44M112.99 11.58l18.6 4.64M129.61 17.8l-14.97-3.73M131.85 18.36l-2.24-.56M129.61 17.8l.32-1.3M129.93 16.5l2.25.56M132.18 17.06l-.33 1.3M112.24 12.09l1.76.44M114 12.53l-.32 1.3M113.68 13.83l-1.77-.44M111.91 13.39l.33-1.3M114 12.53l15.93 3.97M129.61 17.8l-15.93-3.97M129.77 17.15l-15.93-3.97"/><path fill="none" stroke="#000" stroke-linecap="round" stroke-linejoin="round" stroke-width=".22" d="m163.02 24.06-.32 1.3M163.02 24.06l-.32 1.3M164 20.15l-.98 3.91M162.7 25.36l-2.67 10.69M110.64 11l-.33 1.3M110.64 11l-.33 1.3M111.61 7.09l-.97 3.91M110.31 12.3l-2.66 10.69M164 20.15l-3.97 15.9"/><path fill="#2d2d2c" fill-rule="evenodd" d="m95.81 20.04-8.11-2.03 3.96-15.9 19.95 4.98-3.96 15.9-8.11-2.02-3.73-.93z"/><path fill="#2d2d2c" d="m160.021 36.049 3.965-15.903 26.208 6.534-3.965 15.903z"/><path fill="none" stroke="#000" stroke-linecap="round" stroke-linejoin="round" stroke-width=".22" d="m22.25 24.96 2.67 10.68M20.96 19.74l.97 3.91M21.93 23.65l.32 1.31M74.64 11.9l2.66 10.68M73.34 6.68l.97 3.91M74.31 10.59l.33 1.31"/><path fill="none" stroke="#000" stroke-linecap="round" stroke-linejoin="round" stroke-width=".25" d="M73.34 6.68 20.96 19.74M77.3 22.58 24.92 35.64M74.64 11.9l-3 .74M71.64 12.64l-.32-1.3M71.32 11.34l2.99-.75M44.38 18.06l1.5-.38M45.88 17.68l.32 1.31M46.2 18.99l-1.5.37M71.48 11.99l-25.44 6.34M71.64 12.64 46.2 18.99M45.88 17.68l25.44-6.34M44.7 19.36l-.74.19M43.96 19.55l-.17-.66M43.79 18.89l-.74.19M43.05 19.08l-.17-.65M42.88 18.43l1.5-.37M21.93 23.65l2.35-.58M24.28 23.07l.16.65M24.44 23.72l-.59.14M23.85 23.86l.17.66M24.02 24.52l-1.77.44M24.28 23.07l18.6-4.64M41.87 20.76l-14.96 3.73M44.12 20.2l-2.25.56M41.87 20.76l-.32-1.31M41.55 19.45l2.24-.56M43.79 18.89l.33 1.31M23.85 23.86l1.77-.43M25.62 23.43l.32 1.3M25.94 24.73l-1.76.44M24.18 25.17l-.33-1.31M25.62 23.43l15.93-3.98M41.87 20.76l-15.93 3.97M41.71 20.1l-15.93 3.98"/><path fill="none" stroke="#000" stroke-linecap="round" stroke-linejoin="round" stroke-width=".22" d="m74.31 10.59.33 1.31M74.31 10.59l.33 1.31M73.34 6.68l.97 3.91M74.64 11.9l2.66 10.68M21.93 23.65l.32 1.31M21.93 23.65l.32 1.31M20.96 19.74l.97 3.91M22.25 24.96l2.67 10.68M73.34 6.68l3.96 15.9"/><path fill="#2d2d2c" fill-rule="evenodd" d="m12.49 38.74-8.52 2.13L0 24.97l20.95-5.23 3.97 15.9-8.52 2.13-3.91.97z"/><path fill="#2d2d2c" d="m73.335 6.673 18.32-4.568 3.964 15.904L77.3 22.576z"/><path fill="none" stroke="#000" stroke-linecap="round" stroke-linejoin="round" stroke-width=".22" d="m207.17 24.96 2.66 10.68M205.87 19.74l.97 3.91M206.84 23.65l.33 1.31M259.55 11.9l2.67 10.68M258.25 6.68l.98 3.91M259.23 10.59l.32 1.31"/><path fill="none" stroke="#000" stroke-linecap="round" stroke-linejoin="round" stroke-width=".25" d="m258.25 6.68-52.38 13.06M262.22 22.58l-52.39 13.06M259.55 11.9l-2.99.74M256.56 12.64l-.33-1.3M256.23 11.34l3-.75M229.29 18.06l1.5-.38M230.79 17.68l.33 1.31M231.12 18.99l-1.5.37M256.4 11.99l-25.45 6.34M256.56 12.64l-25.44 6.35M230.79 17.68l25.44-6.34M229.62 19.36l-.75.19M228.87 19.55l-.16-.66M228.71 18.89l-.75.19M227.96 19.08l-.16-.65M227.8 18.43l1.49-.37M206.84 23.65l2.35-.58M209.19 23.07l.17.65M209.36 23.72l-.59.14M208.77 23.86l.16.66M208.93 24.52l-1.76.44M209.19 23.07l18.61-4.64M226.79 20.76l-14.97 3.73M229.03 20.2l-2.24.56M226.79 20.76l-.33-1.31M226.46 19.45l2.25-.56M228.71 18.89l.32 1.31M208.77 23.86l1.76-.43M210.53 23.43l.33 1.3M210.86 24.73l-1.77.44M209.09 25.17l-.32-1.31M210.53 23.43l15.93-3.98M226.79 20.76l-15.93 3.97M226.63 20.1l-15.94 3.98"/><path fill="none" stroke="#000" stroke-linecap="round" stroke-linejoin="round" stroke-width=".22" d="m259.23 10.59.32 1.31M259.23 10.59l.32 1.31M258.25 6.68l.98 3.91M259.55 11.9l2.67 10.68M206.84 23.65l.33 1.31M206.84 23.65l.33 1.31M205.87 19.74l.97 3.91M207.17 24.96l2.66 10.68M258.25 6.68l3.97 15.9"/><path fill="#2d2d2c" fill-rule="evenodd" d="m196.5 38.97-9.13 2.27-3.97-15.9 22.47-5.6 3.96 15.9-9.13 2.28-4.2 1.05zM262.22 22.58l-3.97-15.9L285.05 0v16.89l-22.83 5.69z"/><path fill="#2d2d2c" d="M0 24.95h6.52v84.25H0zM184.39 31.37h7.27v78.75h-7.27zM118.05 274.04v-6.33h13.4v6.33zM160.17 274.03v-6.33H285.1v6.33z"/></g><g id="Doors"><path fill="none" stroke="#000" stroke-linecap="round" stroke-linejoin="round" stroke-width=".29" d="M133.78 281.17c-1.64-4.46-2.08-6.75-2.32-11.5"/><path fill="#2d2d2c" fill-rule="evenodd" d="m133.81 281.89-.54-1.27 26.49-11.7h.41v1.38l-26.36 11.59z"/><path fill="none" stroke="#000" stroke-linecap="round" stroke-linejoin="round" stroke-width=".29" d="M136.71 145.5c1.41 3.85 1.8 5.82 2 9.92"/><path fill="#2d2d2c" fill-rule="evenodd" d="m136.67 144.87.47 1.1-22.85 10.09h-.35v-1.19l22.73-10z"/><path fill="none" stroke="#000" stroke-linecap="round" stroke-linejoin="round" stroke-width=".29" d="M238.59 185.46c-1.13 3.07-1.44 4.65-1.6 7.92"/><path fill="#2d2d2c" fill-rule="evenodd" d="m238.61 184.96-.37.88 18.24 8.05h.28v-.95l-18.15-7.98z"/><path fill="none" stroke="#000" stroke-linecap="round" stroke-linejoin="round" stroke-width=".29" d="M176.05 165.35c-3.77-1.38-5.7-1.76-9.72-1.96"/><path fill="#2d2d2c" fill-rule="evenodd" d="m176.66 165.38-1.07-.45-9.89 22.38v.34h1.17l9.79-22.27z"/><path fill="none" stroke="#000" stroke-linecap="round" stroke-linejoin="round" stroke-width=".29" d="M174.59 214.01c-3.24-1.19-4.9-1.51-8.35-1.69"/><path fill="#2d2d2c" fill-rule="evenodd" d="m175.11 214.04-.92-.39-8.49 19.21v.3h1l8.41-19.12z"/></g><g id="Sizes"><path d="M135.17 115.02h-.9v-5.41l-.91.56v-.93l.91-.61h.9v6.39ZM137.32 114.89c-.27-.13-.49-.32-.66-.57a1.97 1.97 0 0 1-.31-.89h.91c.03.18.08.33.17.45s.2.2.34.26.3.09.49.09c.3 0 .53-.08.69-.24s.25-.38.25-.67v-.19c0-.32-.08-.57-.23-.74-.16-.17-.38-.26-.66-.26h-.45v-.85h.45c.25 0 .44-.07.58-.22s.21-.36.21-.63v-.2c0-.25-.07-.45-.22-.58-.15-.14-.35-.21-.62-.21-.15 0-.29.03-.41.09s-.22.15-.31.26c-.08.12-.14.27-.18.45h-.91c.06-.35.17-.65.33-.9s.37-.44.62-.57.53-.19.86-.19c.55 0 .98.15 1.28.44s.45.7.45 1.23v.11c0 .32-.09.6-.26.83s-.42.41-.73.52c.35.08.62.25.81.51.19.27.29.61.29 1.02v.11c0 .37-.07.69-.21.95s-.35.46-.63.6c-.27.14-.6.21-.99.21-.36 0-.67-.07-.95-.2ZM141.29 114.12h.9v.9l-.9.89v-1.78ZM144.27 114.86c-.29-.15-.52-.35-.68-.62a1.79 1.79 0 0 1-.24-.93v-.11c0-.32.08-.62.24-.9.16-.28.37-.49.64-.64-.23-.12-.41-.3-.54-.53-.14-.23-.2-.48-.2-.74v-.15c0-.33.07-.63.22-.88s.36-.45.63-.59c.27-.14.59-.21.95-.21s.68.07.95.21c.27.14.48.34.63.59.15.25.22.55.22.88v.15c0 .26-.07.51-.21.74a1.4 1.4 0 0 1-.55.53c.27.15.49.36.65.64.16.28.24.58.24.9v.11c0 .35-.08.67-.24.93-.16.27-.39.48-.68.62s-.63.22-1.02.22-.73-.07-1.02-.22Zm1.57-.76c.16-.08.28-.2.37-.35.09-.15.13-.32.13-.51v-.06c0-.2-.04-.37-.13-.52-.09-.15-.21-.26-.37-.34s-.34-.12-.55-.12-.39.04-.55.12-.28.2-.37.35a.98.98 0 0 0-.13.52v.07c0 .19.04.36.13.51.09.15.21.26.37.34s.34.12.55.12.39-.04.55-.12Zm-.08-2.88c.14-.08.25-.19.32-.33s.11-.31.11-.5v-.06c0-.18-.04-.34-.11-.47s-.18-.24-.32-.32c-.14-.07-.3-.11-.47-.11s-.34.04-.47.11c-.14.08-.24.18-.32.32s-.11.3-.11.48v.07c0 .18.04.35.11.49.08.14.18.25.32.33s.3.12.47.12.34-.04.47-.12ZM150.02 115.02h-.9v-5.41l-.91.56v-.93l.91-.61h.9v6.39ZM217.53 115.02h-.9v-5.41l-.91.56v-.93l.91-.61h.9v6.39ZM220.53 115.02h-.9v-5.41l-.91.56v-.93l.91-.61h.9v6.39ZM221.89 114.12h.9v.9l-.9.89v-1.78ZM224.94 114.89a1.61 1.61 0 0 1-.61-.55c-.16-.24-.26-.53-.31-.87s.9 0 .9 0c.03.24.13.42.28.55.16.13.36.2.61.2.29 0 .51-.1.67-.29.16-.19.24-.46.24-.81v-.54c0-.35-.08-.61-.24-.81-.16-.19-.38-.29-.67-.29-.16 0-.3.04-.45.13s-.27.21-.38.37h-.82v-3.37h3.26v.85h-2.36v1.44c.11-.09.24-.16.37-.21s.28-.07.42-.07c.37 0 .68.08.95.23.26.15.46.38.6.67.14.29.21.65.21 1.06v.54c0 .41-.07.77-.21 1.06s-.35.52-.62.67c-.27.15-.59.23-.97.23-.32 0-.61-.06-.86-.19ZM230.46 115.02h-.9v-5.41l-.91.56v-.93l.91-.61h.9v6.39ZM48.91 49.82h-.9v-5.41l-.91.56v-.93l.91-.61h.9v6.39ZM53.66 44.23l-1.65 5.59h-.95l1.65-5.54h-1.63v.92h-.9v-1.77h3.48v.8ZM54.8 48.92h.9v.9l-.9.89v-1.78ZM57.61 49.66c-.27-.15-.47-.37-.61-.66-.14-.29-.21-.64-.21-1.04a3.99 3.99 0 0 1 .32-1.52c.02-.04.04-.09.06-.13l.06-.12 1.39-2.75h.97l-1.63 3.19v-.16c.08-.14.18-.24.33-.32s.3-.11.49-.11c.33 0 .62.07.85.22s.42.37.54.65c.12.29.18.63.18 1.03 0 .41-.07.77-.21 1.06-.14.29-.34.52-.61.67-.27.15-.59.23-.96.23s-.7-.08-.96-.23Zm1.62-.9c.15-.18.23-.43.23-.75 0-.36-.08-.64-.24-.83-.16-.19-.39-.29-.69-.29-.27 0-.47.1-.62.29s-.22.47-.22.83c0 .33.08.58.23.75.15.17.37.26.65.26s.5-.09.66-.26ZM63.09 49.82h-.9v-5.41l-.91.56v-.93l.91-.61h.9v6.39ZM46.94 228.72c-.27-.15-.47-.37-.61-.66-.14-.29-.21-.64-.21-1.04a3.99 3.99 0 0 1 .32-1.52c.02-.04.04-.09.06-.13l.06-.12 1.39-2.75h.97l-1.63 3.19v-.16c.08-.14.18-.24.33-.32s.3-.11.49-.11c.33 0 .62.07.85.22s.42.37.54.65c.12.29.18.63.18 1.03 0 .41-.07.77-.21 1.06-.14.29-.34.52-.61.67-.27.15-.59.23-.96.23s-.7-.08-.96-.23Zm1.62-.9c.15-.18.23-.43.23-.75 0-.36-.08-.64-.24-.83-.16-.19-.39-.29-.69-.29-.27 0-.47.1-.62.29s-.22.47-.22.83c0 .33.08.58.23.75.15.17.37.26.65.26s.5-.09.66-.26ZM50.79 227.99h.9v.9l-.9.89V228ZM55.18 225.71v.16c-.08.13-.19.23-.34.3-.15.06-.32.09-.52.09-.3 0-.57-.08-.8-.23s-.41-.37-.54-.66c-.13-.28-.19-.61-.19-.98 0-.42.07-.77.21-1.06.14-.29.34-.52.61-.67.27-.15.59-.23.96-.23s.7.08.96.23.47.38.61.68c.14.3.21.65.21 1.07 0 .23-.03.48-.09.74s-.14.52-.25.77c-.02.04-.04.08-.05.12l-.06.12-1.36 2.74h-.97l1.61-3.17Zm.04-.55c.15-.19.23-.46.23-.8s-.08-.6-.23-.79c-.15-.18-.37-.28-.65-.28s-.5.09-.66.28c-.15.18-.23.45-.23.79 0 .35.08.62.23.81.15.19.37.28.66.28s.5-.1.65-.29ZM57.44 227.13l2.14-4.63h.92l-2.09 4.57h3.13v.83h-4.11v-.78Zm2.75-2h.88v3.76h-.88v-3.76ZM139.02 228.72c-.27-.15-.47-.37-.61-.66-.14-.29-.21-.64-.21-1.04a3.99 3.99 0 0 1 .32-1.52c.02-.04.04-.09.06-.13l.06-.12 1.39-2.75h.97l-1.63 3.19v-.16c.08-.14.18-.24.33-.32s.3-.11.49-.11c.33 0 .62.07.85.22s.42.37.54.65c.12.29.18.63.18 1.03 0 .41-.07.77-.21 1.06-.14.29-.34.52-.61.67-.27.15-.59.23-.96.23s-.7-.08-.96-.23Zm1.62-.9c.15-.18.23-.43.23-.75 0-.36-.08-.64-.24-.83-.16-.19-.39-.29-.69-.29-.27 0-.47.1-.62.29s-.22.47-.22.83c0 .33.08.58.23.75.15.17.37.26.65.26s.5-.09.66-.26ZM142.86 227.99h.9v.9l-.9.89V228ZM144.9 227.13l2.14-4.63h.92l-2.09 4.57H149v.83h-4.11v-.78Zm2.76-2h.87v3.76h-.87v-3.76ZM150.57 228.47c-.31-.32-.46-.76-.46-1.34v-2.9c0-.57.16-1.02.47-1.34.31-.32.76-.48 1.36-.48s1.05.16 1.36.47c.31.32.46.76.46 1.34v2.9c0 .57-.16 1.02-.47 1.34-.31.32-.76.48-1.36.48s-1.05-.16-1.36-.48Zm2.06-.62c.15-.17.23-.4.23-.71v-2.9c0-.31-.08-.55-.22-.71-.15-.17-.38-.25-.7-.25s-.55.08-.7.25c-.15.17-.22.4-.22.71v2.9c0 .31.08.55.23.71.15.17.38.25.7.25s.55-.08.7-.25ZM113.06 228.11l2.23-2.97c.13-.17.23-.35.3-.53.07-.18.11-.35.11-.51 0-.26-.08-.46-.22-.6s-.36-.21-.64-.21c-.26 0-.47.08-.63.23-.16.15-.26.37-.29.65s-.93 0-.93 0c.05-.37.16-.68.32-.94.16-.26.37-.46.63-.59.26-.14.56-.2.89-.2.38 0 .71.07.98.2s.47.32.62.57.21.55.21.9c0 .23-.05.47-.14.71s-.22.48-.39.71l-1.85 2.51h2.42v.85h-3.6v-.78ZM117.72 227.99h.9v.9l-.9.89V228ZM119.75 228.11l2.23-2.97c.13-.17.23-.35.3-.53.07-.18.11-.35.11-.51 0-.26-.08-.46-.22-.6s-.36-.21-.64-.21c-.26 0-.47.08-.63.23-.16.15-.26.37-.29.65s-.93 0-.93 0c.05-.37.16-.68.32-.94.16-.26.37-.46.63-.59.26-.14.56-.2.89-.2.38 0 .71.07.98.2s.47.32.62.57.21.55.21.9c0 .23-.05.47-.14.71s-.22.48-.39.71l-1.85 2.51h2.42v.85h-3.6v-.78ZM126.04 228.89h-.9v-5.41l-.91.56v-.93l.91-.61h.9v6.39ZM176.25 227.13l2.14-4.63h.92l-2.09 4.57h3.13v.83h-4.11v-.78Zm2.76-2h.87v3.76h-.87v-3.76ZM181.37 227.99h.9v.9l-.9.89V228ZM184.21 228.76c-.27-.13-.49-.32-.66-.57a1.97 1.97 0 0 1-.31-.89h.91c.03.18.08.33.17.45s.2.2.34.26.3.09.49.09c.3 0 .53-.08.69-.24s.25-.38.25-.67V227c0-.32-.08-.57-.23-.74-.16-.17-.38-.26-.66-.26h-.45v-.85h.45c.25 0 .44-.07.58-.22s.21-.36.21-.63v-.2c0-.25-.07-.45-.22-.58-.15-.14-.35-.21-.62-.21-.15 0-.29.03-.41.09s-.22.15-.31.26c-.08.12-.14.27-.18.45h-.91c.06-.35.17-.65.33-.9s.37-.44.62-.57.53-.19.86-.19c.55 0 .98.15 1.28.44s.45.7.45 1.23v.11c0 .32-.09.6-.26.83s-.42.41-.73.52c.35.08.62.25.81.51.19.27.29.61.29 1.02v.11c0 .37-.07.69-.21.95s-.35.46-.63.6c-.27.14-.6.21-.99.21-.36 0-.67-.07-.95-.2ZM191.56 223.3l-1.65 5.59h-.95l1.65-5.54h-1.63v.92h-.9v-1.77h3.48v.8ZM241.1 211.1a1.61 1.61 0 0 1-.61-.55c-.16-.24-.26-.53-.31-.87s.9 0 .9 0c.03.24.13.42.28.55.16.13.36.2.61.2.29 0 .51-.1.67-.29.16-.19.23-.46.23-.81v-.54c0-.35-.08-.61-.23-.81-.16-.19-.38-.29-.67-.29-.16 0-.3.04-.45.13s-.27.21-.38.37h-.82v-3.37h3.26v.85h-2.36v1.44c.11-.09.24-.16.37-.21s.28-.07.42-.07c.37 0 .68.08.95.23.26.15.46.38.6.67.14.29.2.65.2 1.06v.54c0 .41-.07.77-.21 1.06s-.35.52-.62.67c-.27.15-.59.23-.97.23-.32 0-.61-.06-.86-.19ZM244.99 210.33h.9v.9l-.9.89v-1.78ZM247.58 210.81c-.31-.32-.46-.76-.46-1.34v-2.9c0-.57.16-1.02.47-1.34.31-.32.76-.48 1.36-.48s1.05.16 1.36.47c.31.32.46.76.46 1.34v2.9c0 .57-.16 1.02-.47 1.34-.31.32-.76.48-1.36.48s-1.05-.16-1.36-.48Zm2.06-.62c.15-.17.23-.4.23-.71v-2.9c0-.31-.07-.55-.22-.71-.15-.17-.38-.25-.7-.25s-.55.08-.7.25c-.15.17-.22.4-.22.71v2.9c0 .31.08.55.23.71.15.17.38.25.7.25s.55-.08.7-.25ZM251.99 209.47l2.14-4.63h.92l-2.09 4.57h3.13v.83h-4.11v-.78Zm2.76-2h.87v3.76h-.87v-3.76ZM241.29 177.35c-.27-.15-.47-.37-.61-.66-.14-.29-.21-.64-.21-1.04a3.99 3.99 0 0 1 .32-1.52c.02-.04.04-.09.06-.13l.06-.12 1.39-2.75h.97l-1.63 3.19v-.16c.08-.14.18-.24.33-.32s.3-.11.49-.11c.33 0 .62.07.85.22s.42.37.54.65c.12.29.18.63.18 1.03 0 .41-.07.77-.21 1.06-.14.29-.34.52-.61.67-.27.15-.59.23-.96.23s-.7-.08-.96-.23Zm1.62-.9c.15-.18.23-.43.23-.75 0-.36-.08-.64-.24-.83-.16-.19-.39-.29-.69-.29-.27 0-.47.1-.62.29s-.22.47-.22.83c0 .33.08.58.23.75.15.17.37.26.65.26s.5-.09.66-.26ZM245.13 176.62h.9v.9l-.9.89v-1.78ZM249.52 174.34v.16c-.08.13-.19.23-.34.3-.15.06-.32.09-.53.09-.3 0-.57-.08-.8-.23s-.41-.37-.54-.66c-.13-.28-.19-.61-.19-.98 0-.42.07-.77.21-1.06.14-.29.34-.52.61-.67.27-.15.59-.23.96-.23s.7.08.96.23.47.38.61.68c.14.3.21.65.21 1.07 0 .23-.03.48-.09.74s-.14.52-.25.77c-.02.04-.04.08-.05.12l-.06.12-1.36 2.74h-.97l1.61-3.17Zm.04-.55c.15-.19.23-.46.23-.8s-.08-.6-.23-.79c-.15-.18-.37-.28-.65-.28s-.5.09-.66.28c-.15.18-.23.45-.23.79 0 .35.08.62.23.81.15.19.37.28.66.28s.5-.1.65-.29ZM252.8 177.39a1.61 1.61 0 0 1-.61-.55c-.16-.24-.26-.53-.31-.87s.9 0 .9 0c.03.24.13.42.28.55.16.13.36.2.61.2.29 0 .51-.1.67-.29.16-.19.24-.46.24-.81v-.54c0-.35-.08-.61-.24-.81-.16-.19-.38-.29-.67-.29-.16 0-.3.04-.45.13s-.27.21-.38.37h-.82v-3.37h3.26v.85h-2.36v1.44c.11-.09.24-.16.37-.21s.28-.07.42-.07c.37 0 .68.08.95.23.26.15.46.38.6.67.14.29.21.65.21 1.06v.54c0 .41-.07.77-.21 1.06s-.35.52-.62.67c-.27.15-.59.23-.97.23-.32 0-.61-.06-.86-.19Z"/></g></svg>