<svg xmlns="http://www.w3.org/2000/svg" viewBox="0 0 198.2 264.16"><defs><clipPath id="clippath"><path fill="none" d="M0 0h9.82v9.82H0z"/></clipPath><pattern id="_Новый_узор_4" width="9.82" height="9.82" x="0" y="0" patternTransform="matrix(1.05 0 0 1.03 27.04 521.54)" patternUnits="userSpaceOnUse"><g fill="none"><path d="M0 0h9.82v9.82H0z"/><g fill-rule="evenodd" stroke-linecap="round" stroke-width=".25" clip-path="url(#clippath)"><path stroke="#e6e6e6" stroke-linejoin="round" d="m14.73 19.65-4.91-4.92 4.91-4.91 4.91 4.91-4.91 4.92zM4.91 19.65 0 14.73l4.91-4.91 4.91 4.91-4.91 4.92zM-4.91 19.65l-4.91-4.92 4.91-4.91L0 14.73l-4.91 4.92z"/><path stroke="#e6e6e6" stroke-linejoin="round" d="M14.73 9.82 9.82 4.91 14.73 0l4.91 4.91-4.91 4.91z"/><path stroke="#999" stroke-miterlimit="3" d="M4.91 9.82 0 4.91 4.91 0l4.91 4.91-4.91 4.91z"/><path stroke="#e6e6e6" stroke-linejoin="round" d="m-4.91 9.82-4.91-4.91L-4.91 0 0 4.91l-4.91 4.91zM14.73 0 9.82-4.91l4.91-4.91 4.91 4.91L14.73 0zM4.91 0 0-4.91l4.91-4.91 4.91 4.91L4.91 0zM-4.91 0l-4.91-4.91 4.91-4.91L0-4.91-4.91 0z"/></g></g></pattern></defs><g id="Flats"><path id="fl170" fill="#fff" d="M194.22 7.63H4.01L3.3 262.65h.75-.04 181.77l.67-53.28 8.48-5.55-.71-196.19z"/></g><path id="Grid" fill="url(#_Новый_узор_4)" d="M168.87 26.78v-3.97H104.6v52.91h87.03V26.78h-22.76z"/><g id="Mebel"><g fill="none" stroke="#6a6a6a" stroke-linecap="round" stroke-linejoin="round" stroke-width=".25"><path d="M20.86 66.85c0 3.05-2.47 5.53-5.53 5.53S9.8 69.91 9.8 66.85s2.47-5.53 5.53-5.53 5.53 2.47 5.53 5.53ZM19.96 66.46l-.95.35m0 0H18m0 0-.95-.35m0 0-1.13.26m0 0h-1.16m0 0-1.13-.26m0 0-.95.35m0 0h-1.01m0 0-.95-.35m0 0 1.72 2.3m0 0h5.82m0 0 1.72-2.3M18.24 68.96h-5.82m0 0v-.2m0 0h5.82m0 0v.2M18.24 69.36h-5.82m0 0v-.2m0 0h5.82m0 0v.2M14.68 65.29l.69-.07m0 0 .02.17m0 0-.37.03m0 0 1.06.88m0 0-.1.12m0 0-.49-.41m0 0-.05.06m0 0 .57.47m0 0-.09.11m0 0-.57-.47m0 0-.06.07m0 0 .46.38m0 0-.08.1m0 0-.46-.38m0 0-.06.07m0 0 .32.26m0 0-.09.11m0 0-1.09-.9M24.06 58.13H6.61m0 0v17.45m0 0h17.45m0 0V58.13"/></g><g fill="none" stroke="#6a6a6a" stroke-linecap="round" stroke-linejoin="round" stroke-width=".25"><path d="M40.88 26.71V15.65m0 0H17.87m0 0v11.06m0 0h23.01M17.87 21.09v-.35m0 0h23.01m0 0v.35m0 0H17.87M36.44 16.58v8.65m0 0h-.45m0 0v-8.65m0 0h.45M35.24 16.58v8.65m0 0h-.45m0 0v-8.65m0 0h.45M34.04 16.58v8.65m0 0h-.45m0 0v-8.65m0 0h.45M32.84 16.58v8.65m0 0h-.45m0 0v-8.65m0 0h.45M30.31 16.64l1.34 8.59m0 0-.45.04m0 0-1.34-8.59m0 0 .45-.04"/></g><g fill="none" stroke="#6a6a6a" stroke-linecap="round" stroke-linejoin="round" stroke-width=".25"><path d="M6.62 26.71h17.43m0 0v31.42m0 0H6.62m0 0V26.71M15.47 58.13h.55m0 0V26.71m0 0h-.55m0 0v31.42M22.59 31.92H8.95m0 0v.53m0 0h13.64m0 0v-.53M22.59 33.32H8.95m0 0v.53m0 0h13.64m0 0v-.53M22.59 34.72H8.95m0 0v.53m0 0h13.64m0 0v-.53M22.59 36.13H8.95m0 0v.53m0 0h13.64m0 0v-.53M22.49 39.1 8.95 37.53m0 0-.07.52m0 0 13.54 1.57m0 0 .07-.53"/></g><path fill="none" stroke="#6a6a6a" stroke-dasharray="0 0 3 3" stroke-linecap="round" stroke-linejoin="round" stroke-width=".25" d="M43.75 93.38v53.22H22.58"/><g fill="#fff" stroke="#6a6a6a" stroke-linecap="round" stroke-linejoin="round" stroke-width=".25"><path d="M168.86 26.78h22.77v48.94h-22.77zM170.68 33.34l.07-.81m0 0 .21-.79m0 0 .34-.74m0 0 .46-.67m0 0 .56-.58m0 0 .65-.47m0 0 .72-.34m0 0 .77-.21m0 0 .79-.07m0 0h10.02m0 0 .79.07m0 0 .77.21m0 0 .72.34m0 0 .65.47m0 0 .56.58m0 0 .45.67m0 0 .34.74m0 0 .21.79m0 0 .07.81m0 0V64m0 0-.15 1.71m0 0-.43 1.66m0 0-.7 1.55m0 0-.96 1.41m0 0-1.18 1.21m0 0-1.37.98m0 0-1.51.73m0 0-1.61.44m0 0-1.66.15m0 0-1.66-.15m0 0-1.61-.44m0 0-1.51-.73m0 0-1.37-.98m0 0-1.18-1.21m0 0-.96-1.41m0 0-.7-1.55m0 0-.43-1.66m0 0-.15-1.71m0 0V33.34"/><path d="M180.24 33.73c.44 0 .8.36.8.81s-.36.81-.8.81-.8-.36-.8-.81.36-.81.8-.81Z"/></g><g fill="#fff" stroke="#6a6a6a" stroke-linecap="round" stroke-linejoin="round" stroke-width=".25"><path d="m107.87 31.66.15 1.23.34 1.2.52 1.12.7.9.91.68 1.05.43 1.13.15 1.13-.15 1.05-.43.91-.68.7-.9.52-1.12.34-1.2.15-1.23-.04-1.24-.89-8.42h-7.74l-.89 8.42-.04 1.24zM109.68 26.15h2.99M112.67 26.15h3"/><path d="M112.67 37.16c-.8 0-1.58-.23-2.23-.64M110.45 36.52c-1.61-1.25-2.48-3.08-2.36-4.96M108.09 31.56c-.05-1.9.5-3.77 1.59-5.4M115.66 26.15c1.09 1.64 1.65 3.51 1.59 5.4M117.26 31.56c.12 1.88-.75 3.71-2.36 4.96M114.9 36.52c-.65.41-1.42.64-2.23.64"/></g><g fill="#fff" stroke="#6a6a6a" stroke-linecap="round" stroke-linejoin="round" stroke-width=".25"><path d="M151.43 22.19v10.16l.12.29.29.12h16.61l.29-.12.12-.29V22.19l-.12-.29-.29-.12h-16.61l-.29.12-.12.29zM167.63 24.8h-7.15m-.66 0h-7.15M152.25 25.21v6.32M152.66 31.94h14.97M168.04 31.53v-6.32"/><path d="M152.25 25.21c0-.23.18-.41.41-.41M152.66 31.94c-.23 0-.41-.18-.41-.41M168.04 31.53c0 .23-.18.41-.41.41M167.63 24.8c.23 0 .41.18.41.41M160.47 26.54c.13.1.22.26.22.44s-.09.34-.22.44v-.88Zm-.66.88c-.13-.1-.22-.26-.22-.44s.09-.34.22-.44v.88ZM159.82 22.17h.66m0 0v5.63m0 0-.19.22m0 0H160m0 0-.19-.22m0 0v-5.63M162.52 23.16v-1.18m0 0h-.07m0 0v-.1m0 0h-.21m0 0v-.1m0 0h1.37m0 0v.1m0 0h-.21m0 0v.1m0 0h-.07m0 0v1.18m0 0h-.23m0 0v.3m0 0h.78m0 0v.36m0 0h-1.92m0 0v-.36m0 0h.78m0 0v-.3m0 0h-.23M157.77 23.16v-1.18m0 0h.07m0 0v-.1m0 0h.21m0 0v-.1m0 0h-1.37m0 0v.1m0 0h.21m0 0v.1m0 0h.07m0 0v1.18m0 0h.23m0 0v.3m0 0h-.78m0 0v.36m0 0h1.92m0 0v-.36m0 0h-.78m0 0v-.3m0 0h.23M163.11 23.46l-.05.05M162.75 23.46l.06.05M163.11 23.16h-.36M157.18 23.46l.05.05M157.54 23.46l-.06.05M157.18 23.16h.36M162.93 23.46c.1 0 .18.08.18.18s-.08.18-.18.18-.18-.08-.18-.18.08-.18.18-.18ZM157.36 23.46c.1 0 .18.08.18.18s-.08.18-.18.18-.18-.08-.18-.18.08-.18.18-.18Z"/></g><g fill="#fff" stroke="#6a6a6a" stroke-linecap="round" stroke-linejoin="round" stroke-width=".25"><path d="M133.99 22.19v10.16l.12.29.29.12h16.61l.29-.12.12-.29V22.19l-.12-.29-.29-.12H134.4l-.29.12-.12.29zM150.19 24.8h-7.15m-.66 0h-7.15M134.81 25.21v6.32M135.22 31.94h14.97M150.6 31.53v-6.32"/><path d="M134.81 25.21c0-.23.18-.41.41-.41M135.22 31.94c-.23 0-.41-.18-.41-.41M150.6 31.53c0 .23-.18.41-.41.41M150.19 24.8c.23 0 .41.18.41.41M143.03 26.54c.13.1.22.26.22.44s-.09.34-.22.44v-.88Zm-.66.88c-.13-.1-.22-.26-.22-.44s.09-.34.22-.44v.88ZM142.37 22.17h.66m0 0v5.63m0 0-.19.22m0 0h-.29m0 0-.19-.22m0 0v-5.63M145.08 23.16v-1.18m0 0h-.07m0 0v-.1m0 0h-.21m0 0v-.1m0 0h1.37m0 0v.1m0 0h-.21m0 0v.1m0 0h-.07m0 0v1.18m0 0h-.23m0 0v.3m0 0h.78m0 0v.36m0 0h-1.92m0 0v-.36m0 0h.78m0 0v-.3m0 0h-.23M140.33 23.16v-1.18m0 0h.07m0 0v-.1m0 0h.21m0 0v-.1m0 0h-1.37m0 0v.1m0 0h.21m0 0v.1m0 0h.07m0 0v1.18m0 0h.23m0 0v.3m0 0h-.78m0 0v.36m0 0h1.92m0 0v-.36m0 0h-.78m0 0v-.3m0 0h.23M145.67 23.46l-.05.05M145.31 23.46l.05.05M145.67 23.16h-.36M139.74 23.46l.05.05M140.1 23.46l-.06.05M139.74 23.16h.36M145.49 23.46c.1 0 .18.08.18.18s-.08.18-.18.18-.18-.08-.18-.18.08-.18.18-.18ZM139.92 23.46c.1 0 .18.08.18.18s-.08.18-.18.18-.18-.08-.18-.18.08-.18.18-.18Z"/></g><g fill="none" stroke="#6a6a6a" stroke-linecap="round" stroke-linejoin="round" stroke-width=".25"><path d="M185.48 174.41c1.36 0 2.46 1.1 2.46 2.46s-1.1 2.46-2.46 2.46-2.46-1.1-2.46-2.46 1.1-2.46 2.46-2.46Z"/><path d="M185.48 176.13c.41 0 .74.33.74.74s-.33.74-.74.74-.74-.33-.74-.74.33-.74.74-.74ZM185.48 116.63c1.36 0 2.46 1.1 2.46 2.46s-1.1 2.46-2.46 2.46-2.46-1.1-2.46-2.46 1.1-2.46 2.46-2.46Z"/><path d="M185.48 118.35c.41 0 .74.33.74.74s-.33.74-.74.74-.74-.33-.74-.74.33-.74.74-.74ZM139.99 170.11v-44.26m0 0h49.18m0 0v44.26m0 0h-49.18M138.76 168.88v-41.8m0 0 .09-.47m0 0 .27-.4m0 0 .4-.27m0 0 .47-.09m0 0v44.26m0 0-.47-.09m0 0-.4-.27m0 0-.27-.4m0 0-.09-.47M191.63 170.11v-44.26m0 0h-2.46m0 0v44.26m0 0h2.46M191.63 125.85v44.26m0 0h-1.23m0 0v-44.26m0 0h1.23M191.63 124.62v-11.06m0 0h-12.29m0 0v11.06m0 0h12.29M191.63 171.34v11.06m0 0h-12.29m0 0v-11.06m0 0h12.29M187.94 144.05v-16.72m0 0-.07-.17m0 0-.17-.07m0 0h-8.11m0 0-.17.07m0 0-.07.17m0 0v16.72m0 0 .07.17m0 0 .17.07m0 0h8.11m0 0 .17-.07m0 0 .07-.17M187.94 151.91v16.72m0 0-.07.17m0 0-.17.07m0 0h-8.11m0 0-.17-.07m0 0-.07-.17m0 0v-16.72m0 0 .07-.17m0 0 .17-.07m0 0h8.11m0 0 .17.07m0 0 .07.17M180 170.11v-1.23M180 151.67v-7.38M180 127.08v-1.23M176.74 170.11v-44.26m0 0h-12.16m0 0 9.7 44.26m0 0h2.46M186.04 179.27l-.56-2.39m0 0-2.23-1.03m0 0 2.23 1.03m0 0 2.31-.85M186.04 116.7l-.56 2.39m0 0-2.23 1.03m0 0 2.23-1.03m0 0 2.31.85"/></g><g fill="none" stroke="#6a6a6a" stroke-linecap="round" stroke-linejoin="round" stroke-width=".25"><path d="M142.78 93.78V78.56m0 0h48.84m0 0v15.22m0 0h-48.84M191.63 86.05v-.48m0 0h-48.84m0 0v.48m0 0h48.84M147.55 79.83v11.91m0 0h.49m0 0V79.83m0 0h-.49M148.84 79.83v11.91m0 0h.49m0 0V79.83m0 0h-.49M150.13 79.83v11.91m0 0h.48m0 0V79.83m0 0h-.48M151.41 79.83v11.91m0 0h.49m0 0V79.83m0 0h-.49M154.14 79.92l-1.44 11.83m0 0 .48.06m0 0 1.44-11.83m0 0-.48-.06"/></g><g fill="none" stroke="#6a6a6a" stroke-linecap="round" stroke-linejoin="round" stroke-width=".25"><path d="M24.47 184.91v-15.2m0 0H11.85m0 0v15.2m0 0h12.62M24.47 169.71v-15.2m0 0H11.85m0 0v15.2m0 0h12.62M24.47 154.51v-5.09m0 0H6.44m0 0v5.09m0 0h.9m4.51 0h12.62M24.47 190v-5.09m0 0H11.85m-4.51 0h-.9m0 0V190m0 0h18.03M7.34 169.71h4.51m0 0v-17.74m0 0H7.34m0 0v17.74M7.34 169.71h4.51m0 0v17.74m0 0H7.34m0 0v-17.74"/></g><g fill="none" stroke="#6a6a6a" stroke-linecap="round" stroke-linejoin="round" stroke-width=".25"><path d="M93.27 191.62V147.8m0 0h8.66m0 0v43.82m0 0h-8.66M93.7 191.62V147.8M93.27 169.71h.43M93.27 191.62h.43M98.35 157h.58m0 0v25.41m0 0h-.58m0 0V157M98.93 157.81l1.95-.41m0 0-.08-.39m0 0-1.87.39m0 0v.41M98.93 162.56h.48m0 0 .32.09m0 0 .24.24m0 0 .09.33m0 0v13m0 0-.09.32m0 0-.24.24m0 0-.32.09m0 0h-.48m0 0v-14.3M98.15 157.81l-1.95-.41m0 0 .08-.39m0 0 1.87.39m0 0v.41M98.93 181.61l1.95.41m0 0-.08.39m0 0-1.87-.39m0 0v-.41M98.18 181.61l-1.95.41m0 0 .08.39m0 0 1.87-.39m0 0v-.41M98.18 157h.17m0 0v25.41m0 0h-.17m0 0V157"/></g><g fill="none" stroke="#6a6a6a" stroke-linecap="round" stroke-linejoin="round" stroke-width=".25"><path d="M112.78 169.89v-43.82m0 0h-8.66m0 0v43.82m0 0h8.66M112.35 169.89v-43.82M112.78 147.98h-.43M112.78 169.89h-.43M107.7 135.27h-.58m0 0v25.41m0 0h.58m0 0v-25.41M107.12 136.08l-1.95-.41m0 0 .08-.39m0 0 1.87.39m0 0v.41M107.12 140.83h-.48m0 0-.32.09m0 0-.24.24m0 0-.09.33m0 0v13m0 0 .09.32m0 0 .24.24m0 0 .32.09m0 0h.48m0 0v-14.3M107.9 136.08l1.95-.41m0 0-.08-.39m0 0-1.87.39m0 0v.41M107.12 159.88l-1.95.41m0 0 .08.39m0 0 1.87-.39m0 0v-.41M107.87 159.88l1.95.41m0 0-.08.39m0 0-1.87-.39m0 0v-.41M107.87 135.27h-.17m0 0v25.41m0 0h.17m0 0v-25.41"/></g><g fill="none" stroke="#6a6a6a" stroke-linecap="round" stroke-linejoin="round" stroke-width=".25"><path d="M43.75 93.67V78.61m0 0H28.19m0 0v15.06m0 0h15.56M33.45 86.14h5.03M34.19 87.92l3.55-3.55M35.97 88.65v-5.02M37.74 87.92l-3.55-3.55"/></g><path fill="none" stroke="#6a6a6a" stroke-linecap="round" stroke-linejoin="round" stroke-width=".25" d="M20.01 110.04v-12.8m0 0-.15-.36m0 0-.35-.15m0 0H7.96m0 0-.35.15m0 0-.15.36m0 0v12.8m0 0 .15.35m0 0 .35.15m0 0h11.55m0 0 .35-.15m0 0 .15-.35M18.76 108.79V98.5M18.26 97.99h-7.79M9.97 98.5v10.29M10.47 109.29h7.79"/><path fill="#999" fill-rule="evenodd" d="M18.76 108.79v.07s.07-.03.07-.07-.03-.07-.07-.07-.07.03-.07.07.03.07.07.07v-.07Z"/><path fill="none" stroke="#6a6a6a" stroke-linecap="round" stroke-linejoin="round" stroke-width=".25" d="M18.26 97.99c.28 0 .5.23.5.5M9.97 98.5c0-.28.22-.5.5-.5M10.47 109.29c-.28 0-.5-.22-.5-.5M18.76 108.79c0 .28-.22.5-.5.5M13.18 103.87l.16-.07m0 0 .07-.16m0 0-.07-.16m0 0-.16-.07m0 0H8.21m0 0-.16.07m0 0-.07.16m0 0 .07.16m0 0 .16.07m0 0h4.97M9.5 104.14v-.27m0 0H8.22m0 0-.16-.07m0 0-.07-.16m0 0 .07-.16m0 0 .16-.07m0 0H9.5m0 0v-.28m0 0H7.87m0 0v1m0 0H9.5M10.4 104.14v-.27m0 0h-.88m0 0v.27m0 0h.88M10.4 103.15h-.88m0 0v.27m0 0h.88m0 0v-.27M22.15 78.61v67.98m0 0H6.58m0 0V78.61m0 0h15.56M6.58 78.61v15.06m0 0h37.17m0 0V78.61m0 0H6.58"/><g fill="none" stroke="#6a6a6a" stroke-linecap="round" stroke-linejoin="round" stroke-width=".25"><path d="M20.52 145.52v-14.56m0 0H8.22m0 0v14.56m0 0h12.3M13.02 138.24H9.5M9.5 138.24v-.73M13.02 138.24v-.73M13.02 132.36H9.5M9.5 133.09v-.73M13.02 133.09v-.73M11.12 144.21c-1.01 0-1.82-.82-1.82-1.82s.82-1.82 1.82-1.82 1.82.82 1.82 1.82-.81 1.82-1.82 1.82ZM16.59 144.18c-1.46 0-2.64-1.18-2.64-2.64s1.18-2.64 2.64-2.64 2.64 1.18 2.64 2.64-1.18 2.64-2.64 2.64Z"/><path d="M16.59 143.05c-.83 0-1.51-.67-1.51-1.51s.67-1.51 1.51-1.51 1.51.67 1.51 1.51-.67 1.51-1.51 1.51ZM11.24 137.06c-.97 0-1.76-.79-1.76-1.76s.79-1.76 1.76-1.76 1.76.79 1.76 1.76-.79 1.76-1.76 1.76ZM16.95 136.82c-1.25 0-2.26-1.01-2.26-2.26s1.01-2.26 2.26-2.26 2.26 1.01 2.26 2.26-1.01 2.26-2.26 2.26Z"/></g><g fill="none" stroke="#6a6a6a" stroke-linecap="round" stroke-linejoin="round" stroke-width=".25"><path d="M10 121.81c0-1.25 1.01-2.27 2.27-2.27s2.27 1.01 2.27 2.27-1.01 2.27-2.27 2.27-2.27-1.01-2.27-2.27Z"/><path d="M10.35 121.81a1.92 1.92 0 1 1 3.841.001 1.92 1.92 0 0 1-3.841-.001ZM14.75 122.36a1.71 1.71 0 1 1 3.418-.002 1.71 1.71 0 0 1-3.418.002Z"/><path d="M15.5 122.36a.96.96 0 1 1 1.92 0 .96.96 0 0 1-1.92 0ZM9.57 123.27h.64m0 0v.8m0 0h8.32m0 0v-.8m0 0h.64M10.54 116.63h6.4m0 0v.32m0 0h-.48m0 0v-.16m0 0h-5.44m0 0v.16m0 0h-.48m0 0v-.32M10.54 116.94l.03.07m.09.21.03.07m.09.21.03.07m.09.21.03.07m.09.21.03.07m.09.21.03.07m.09.21.03.07m.09.21.03.07m.09.21.03.07M16.94 116.94l-.03.07m-.09.21-.03.07m-.09.21-.03.07m-.09.21-.03.07m-.09.21-.03.07m-.09.21-.03.07m-.09.21-.03.07m-.09.21-.03.07m-.09.21-.03.07M10.54 116.94h.05m.08 0h.08m.08 0h.08m.08 0h.05m0 0 .03.03m.14.18.05.06m.14.17.05.06m.14.18.05.06m.14.18.05.06m.14.18.05.06m.14.18.05.06m.14.18.05.06m.14.18.05.06m.14.18.05.06m.14.18.05.06m.14.18.03.03M16.94 116.94h-.05m-.08 0h-.08m-.08 0h-.08m-.08 0h-.05m0 0-.03.03m-.14.18-.05.06m-.14.17-.05.06m-.14.18-.05.06m-.14.18-.05.06m-.14.18-.05.06m-.14.18-.05.06m-.14.18-.05.06m-.14.18-.05.06m-.14.18-.05.06m-.14.18-.05.06m-.14.18-.03.03M22.15 127.88v-15.06m0 0H6.58m0 0v15.06m0 0h15.56"/></g><g fill="none" stroke="#6a6a6a" stroke-linecap="round" stroke-linejoin="round" stroke-width=".25"><path d="m87.93 112.56-3.63-3.63m0 0-.38-.36m0 0-.38-.33m0 0-.37-.29m0 0-.36-.24m0 0h-.01m0 0-.33-.19m0 0-.29-.13m0 0h-.02m0 0-.25-.07m0 0h-.02m0 0h-.19m0 0h-.03m0 0h-.03m0 0h-.02m0 .01-.14.07m0 0-.02.02m0 0h-.01m0 0-1 1m0 0-.91-.91m0 0-4.61 4.61m9.82 9.82 4.61-4.61m0 0-.91-.91m0 0 1-1m0 0h0m0 0 .02-.02m0 0 .07-.14m0 0v-.02m.01 0v-.03m0 0v-.03m0 0v-.2m0 0v-.02m0 0-.07-.25m0 0v-.02m0 0-.13-.29m0 0-.19-.33m0 0h0m0-.01-.24-.36m0 0-.29-.37m0 0-.33-.38m0 0-.36-.38M79.85 109.01l8 8M79.95 109.12l.8-.79M87.74 116.9l.79-.79M84.32 120.54l4.11-4.12M76.32 112.54l4.11-4.12M83.39 109.84l3.63 3.63M80.75 108.33c.31-.31 1.49.36 2.64 1.51M87.02 113.47c1.14 1.14 1.82 2.33 1.51 2.64M55.6 137.63l3.63 3.63m0 0 .38.36m0 0 .38.33m0 0 .37.29m0 0 .36.24m0 0h.01m0 0 .33.19m0 0 .29.13m0 0h.02m0 0 .25.07m0 0h.03m0 0h.19m0 0h.03m0 0h.02m0 0h.02m0-.01.14-.07m0 0 .02-.02m0 0h0m0 0 1-1m0 0 .91.91m0 0 4.61-4.61m-9.82-9.82-4.61 4.61m0 0 .91.91m0 0-1 1m0 0h0m0 0-.02.02m0 0-.07.14m0 0v.02m-.01 0v.03m0 0v.03m0 0v.2m0 0v.02m0 0 .07.25m0 0v.02m0 0 .13.29m0 0 .19.33m0 0h0m0 .01.24.36m0 0 .29.37m0 0 .33.38m0 0 .36.38M63.68 141.18l-8-8M63.57 141.07l-.79.79M55.79 133.29l-.8.79M59.21 129.65l-4.12 4.12M67.21 137.65l-4.12 4.12M60.14 140.36l-3.64-3.64M62.78 141.86c-.31.31-1.49-.36-2.64-1.51M56.5 136.72c-1.14-1.14-1.82-2.33-1.51-2.64M59.23 108.93l-3.63 3.63m0 0-.36.38m0 0-.33.38m0 0-.29.37m0 0-.24.36m0 0h0m0 .01-.19.33m0 0-.13.29m0 0v.02m0 0-.07.25m0 0v.02m0 0v.2m0 0v.03m0 0v.03m0 0v.02m.01 0 .07.14m0 0 .02.02m0 0h0m0 .01 1 1m0 0-.91.91m0 0 4.61 4.61m9.82-9.82L64 107.51m0 0-.91.91m0 0-1-1m0 0h0m0 0-.02-.02m0 0-.14-.07m0 0h-.02m0-.01h-.03m0 0h-.03m0 0h-.2m0 0h-.02m0 0-.25.07m0 0h-.02m0 0-.29.13m0 0-.33.19m0 0h-.01m0 0-.36.24m0 0-.37.29m0 0-.38.33m0 0-.38.36M55.68 117.01l8-8M55.79 116.9l-.8-.79M63.57 109.12l-.79-.79M67.21 112.54l-4.12-4.12M59.21 120.54l-4.12-4.12M56.5 113.47l3.64-3.64M54.99 116.11c-.31-.31.36-1.49 1.51-2.64M60.14 109.83c1.15-1.14 2.33-1.82 2.64-1.51M84.3 141.26l3.63-3.63m0 0 .36-.38m0 0 .33-.38m0 0 .29-.37m0 0 .24-.36m0 0h0m0-.01.19-.33m0 0 .13-.29m0 0v-.02m0 0 .07-.25m0 0v-.02m0 0v-.19m0 0V135m0 0v-.03m0 0v-.02m-.01 0-.07-.14m0 0-.02-.02m0 0h0m0-.01-1-1m0 0 .91-.91m0 0-4.61-4.61m-9.82 9.82 4.61 4.61m0 0 .91-.91m0 0 1 1m0 0h0m0 0h.02m0 .01.14.07m0 0h.02m0 .01h.03m0 0h.03m0 0h.2m0 0h.02m0 0 .25-.07m0 0h.02m0 0 .29-.13m0 0 .33-.19m0 0h.01m0 0 .36-.24m0 0 .37-.29m0 0 .38-.33m0 0 .38-.36M87.85 133.18l-8 8M87.74 133.29l.79.79M79.95 141.07l.8.79M76.32 137.65l4.11 4.12M84.32 129.65l4.11 4.12M87.02 136.72l-3.63 3.64M88.53 134.08c.31.31-.36 1.49-1.51 2.64M83.39 140.36c-1.14 1.14-2.33 1.82-2.64 1.51M85.11 125.1c0 7.37-5.98 13.35-13.35 13.35s-13.35-5.98-13.35-13.35 5.98-13.35 13.35-13.35 13.35 5.98 13.35 13.35Z"/></g><path fill="none" stroke="#6a6a6a" stroke-linecap="round" stroke-linejoin="round" stroke-width=".25" d="M37.12 157.46h12.14v24.5H37.12z"/></g><g id="Walls_Inside" fill="#2d2d2c"><path d="M0 13.15h6.57v132.88H0zM191.63 13.15h6.57v132.88h-6.57z"/><path d="M103.82 78.56v-2.83h92.1v2.83zM3.29 78.56v-2.83h39.04v2.83zM101.76 14.78h2.83v35.69h-2.83zM40.91 14.78h2.83v33.16h-2.83z"/><path d="M40.91 70.34h2.83v8.22h-2.83zM101.76 70.34h2.83v12.83h-2.83zM101.76 107.67h2.83v92.02h-2.83zM168.87 14.78h2.83v11.67h-2.83z"/><path d="M168.87 26.78v-2.83h23.92v2.83zM15.07 14.78h2.83v11.67h-2.83z"/><path d="M1.75 26.78v-2.83H17.9v2.83zM184.92 199.19h3.4v63.48h-3.4zM1.69 206.44h3.37v56.25H1.69zM103.48 22.8v-1.98h67.28v1.98z"/></g><g id="Walls_Outside"><g fill="none" stroke="#000" stroke-linecap="round" stroke-linejoin="round" stroke-width=".25"><path d="M140.07 263.37h-19.86M140.07 262.69h-19.86M120.21 264.04h19.86"/></g><g fill="none" stroke="#000" stroke-linecap="round" stroke-linejoin="round" stroke-width=".25"><path d="M70.29 263.37H50.52M70.29 262.69H50.52M50.52 264.04h19.77"/></g><g fill="none" stroke="#000" stroke-linecap="round" stroke-linejoin="round"><path stroke-width=".22" d="M140.07 264.04v-1.35"/><path stroke-width=".25" d="M186.74 262.69v1.35M186.74 264.04h1.58v-1.35h-1.58M141.92 262.69h-1.85M140.07 262.69v1.35M140.07 264.04h1.85M140.84 264.04h1.08M141.92 264.04v-1.35M186.74 263.37h-44.82M186.74 262.69h-44.82M141.92 264.04h44.82M140.07 264.04h.77M140.07 264.04h0"/><path stroke-width=".22" d="M140.07 264.04v-1.35M140.07 264.04v-1.35"/></g><g fill="none" stroke="#000" stroke-linecap="round" stroke-linejoin="round"><path stroke-width=".22" d="M70.29 264.04v-1.35"/><path stroke-width=".25" d="M118.68 262.69v1.35M118.68 264.04h1.53v-1.35h-1.53M72.07 262.69h-1.78M70.29 262.69v1.35M70.29 264.04h1.78M71.04 264.04h1.03M72.07 264.04v-1.35M118.68 263.37H72.07M118.68 262.69H72.07M72.07 264.04h46.61M70.29 264.04h.75M70.29 264.04h0"/><path stroke-width=".22" d="M70.29 264.04v-1.35M70.29 264.04v-1.35"/></g><g fill="none" stroke="#000" stroke-linecap="round" stroke-linejoin="round"><path stroke-width=".22" d="M1.69 264.04v-1.35"/><path stroke-width=".25" d="M48.95 262.69v1.35M48.95 264.04h1.57v-1.35h-1.57M3.53 262.69H1.69M1.69 262.69v1.35M1.69 264.04h1.84M2.47 264.04h1.06M3.53 264.04v-1.35M48.95 263.37H3.53M48.95 262.69H3.53M3.53 264.04h45.42M1.69 264.04h.78M1.69 264.04h0"/><path stroke-width=".22" d="M1.69 264.04v-1.35M1.69 264.04v-1.35"/></g><g fill="none" stroke="#000" stroke-linecap="round" stroke-linejoin="round"><path stroke-width=".22" d="M74.19 201.94v-7.57M74.19 205.86v-4.03M74.19 201.83v-1.34M92.25 200.6v-6.23M92.25 205.86v-4.03M92.25 201.83v-1.34"/><path stroke-width=".25" d="M92.25 205.86H74.19M92.25 194.37H74.19M92.25 200.49h-2.72M89.53 200.49v1.34M89.53 201.83h2.72M76.91 200.49h-2.72M74.19 200.49v1.34M74.19 201.83h2.72M75.55 201.83h1.35M76.91 201.83v-1.34M89.53 201.16H76.91M89.53 200.49H76.91M76.91 201.83h12.62M74.19 201.83h1.36M74.19 201.83h0"/><path stroke-width=".22" d="M92.25 201.83v-1.34M92.25 201.83v-1.34M92.25 205.86v-4.03M92.25 200.6v-6.23M74.19 201.83v-1.34M74.19 201.83v-1.34M74.19 205.86v-4.03M74.19 201.94v-7.57M92.25 205.86v-11.49"/></g><g fill="none" stroke="#000" stroke-linecap="round" stroke-linejoin="round"><path stroke-width=".22" d="M14.58 201.94v-7.57M14.58 205.86v-4.03M14.58 201.83v-1.34M31.87 200.6v-6.23M31.87 205.86v-4.03M31.87 201.83v-1.34"/><path stroke-width=".25" d="M31.87 205.86H14.58M31.87 194.37H14.58M31.87 200.49h-3.2M28.67 200.49v1.34M28.67 201.83h3.2M17.77 200.49h-3.19M14.58 200.49v1.34M14.58 201.83h3.19M16.18 201.83h1.59M17.77 201.83v-1.34M28.67 201.16h-10.9M28.67 200.49h-10.9M17.77 201.83h10.9M14.58 201.83h1.6M14.58 201.83h0"/><path stroke-width=".22" d="M31.87 201.83v-1.34M31.87 201.83v-1.34M31.87 205.86v-4.03M31.87 200.6v-6.23M14.58 201.83v-1.34M14.58 201.83v-1.34M14.58 205.86v-4.03M14.58 201.94v-7.57M31.87 205.86v-11.49"/></g><path fill="none" stroke="#000" stroke-linecap="round" stroke-linejoin="round" stroke-width=".25" d="M45.56 195.23c.85 2.31 1.08 3.5 1.2 5.97"/><path fill="#2d2d2c" fill-rule="evenodd" d="m45.54 194.85.28.66-13.74 6.07h-.21v-.71l13.67-6.02z"/><path fill="none" stroke="#000" stroke-linecap="round" stroke-linejoin="round" stroke-width=".25" d="M48.98 189.88c-1.56 4.26-1.99 6.45-2.22 10.99"/><path fill="#2d2d2c" fill-rule="evenodd" d="m49.01 189.19-.51 1.22 25.3 11.17h.39v-1.32l-25.18-11.07z"/><g fill="none" stroke="#000" stroke-linecap="round" stroke-linejoin="round"><path stroke-width=".22" d="M170.51 201.94v-7.57M170.51 205.86v-4.03M170.51 201.83v-1.34M183.17 200.6v-6.23M183.17 205.86v-4.03M183.17 201.83v-1.34"/><path stroke-width=".25" d="M183.17 205.86h-12.66M183.17 194.37h-12.66M183.17 200.49h-2.72M180.45 200.49v1.34M180.45 201.83h2.72M173.23 200.49h-2.72M170.51 200.49v1.34M170.51 201.83h2.72M171.87 201.83h1.36M173.23 201.83v-1.34M180.45 201.16h-7.22M180.45 200.49h-7.22M173.23 201.83h7.22M170.51 201.83h1.36M170.51 201.83h0"/><path stroke-width=".22" d="M183.17 201.83v-1.34M183.17 201.83v-1.34M183.17 205.86v-4.03M183.17 200.6v-6.23M170.51 201.83v-1.34M170.51 201.83v-1.34M170.51 205.86v-4.03M170.51 201.94v-7.57M183.17 205.86v-11.49"/></g><g fill="none" stroke="#000" stroke-linecap="round" stroke-linejoin="round"><path stroke-width=".22" d="M114.45 201.94v-7.57M114.45 205.86v-4.03M114.45 201.83v-1.34M128.19 200.6v-6.23M128.19 205.86v-4.03M128.19 201.83v-1.34"/><path stroke-width=".25" d="M128.19 205.86h-13.74M128.19 194.37h-13.74M128.19 200.49h-3.2M124.99 200.49v1.34M124.99 201.83h3.2M117.65 200.49h-3.2M114.45 200.49v1.34M114.45 201.83h3.2M116.05 201.83h1.6M117.65 201.83v-1.34M124.99 201.16h-7.34M124.99 200.49h-7.34M117.65 201.83h7.34M114.45 201.83h1.6M114.45 201.83h0"/><path stroke-width=".22" d="M128.19 201.83v-1.34M128.19 201.83v-1.34M128.19 205.86v-4.03M128.19 200.6v-6.23M114.45 201.83v-1.34M114.45 201.83v-1.34M114.45 205.86v-4.03M114.45 201.94v-7.57M128.19 205.86v-11.49"/></g><path fill="none" stroke="#000" stroke-linecap="round" stroke-linejoin="round" stroke-width=".25" d="M141.88 195.23c.85 2.31 1.08 3.5 1.2 5.97"/><path fill="#2d2d2c" fill-rule="evenodd" d="m141.86 194.85.28.66-13.74 6.07h-.21v-.71l13.67-6.02z"/><path fill="none" stroke="#000" stroke-linecap="round" stroke-linejoin="round" stroke-width=".25" d="M145.3 189.88c-1.56 4.26-1.99 6.45-2.22 10.99"/><path fill="#2d2d2c" fill-rule="evenodd" d="m145.33 189.19-.51 1.22 25.3 11.17h.39v-1.32l-25.18-11.07zM14.58 210.03v-15.64L0 194.37v15.66h14.58zM114.45 210.03v-15.64l-22.2-.02v15.66h22.2zM198.2 210.03v-15.64l-15.03-.02v15.66h15.03z"/><path fill="#2d2d2c" d="M191.63 146.03h6.57v55.8h-6.57zM0 146.03h6.57v55.8H0zM0 7.69h43.75v7.96H0zM74.15 7.69h124.04v7.96H74.15z"/></g><g id="Doors"><path fill="none" stroke="#000" stroke-linecap="round" stroke-linejoin="round" stroke-width=".29" d="M111.66 52.07c-3.09-1.13-4.67-1.44-7.96-1.61"/><path fill="#2d2d2c" fill-rule="evenodd" d="m112.16 52.1-.88-.38-8.1 18.33v.29h.96l8.02-18.24z"/><path fill="none" stroke="#000" stroke-linecap="round" stroke-linejoin="round" stroke-width=".29" d="M50.87 49.75c-3.48-1.28-5.26-1.63-8.97-1.81"/><path fill="#2d2d2c" fill-rule="evenodd" d="m51.43 49.78-.99-.42-9.13 20.66v.32h1.08l9.04-20.56z"/><path fill="none" stroke="#000" stroke-linecap="round" stroke-linejoin="round" stroke-width=".29" d="M113.63 105.69c-3.81 1.4-5.76 1.78-9.82 1.98"/><path fill="#2d2d2c" fill-rule="evenodd" d="m114.25 105.66-1.08.46-9.99-22.6v-.35h1.18l9.89 22.49z"/><path fill="none" stroke="#000" stroke-linecap="round" stroke-linejoin="round" stroke-width=".29" d="M46.21.78c-1.76 4.8-2.24 7.26-2.5 12.37"/><path fill="#2d2d2c" fill-rule="evenodd" d="m46.25 0-.58 1.37 28.48 12.58h.44v-1.49L46.25 0z"/></g><g id="Sizes"><path d="M135.68 47.12c-.27-.15-.47-.37-.61-.66-.14-.29-.21-.64-.21-1.04a3.99 3.99 0 0 1 .32-1.52c.02-.04.04-.09.06-.13l.06-.12 1.39-2.75h.97l-1.63 3.19v-.16c.08-.14.18-.25.33-.32s.3-.11.49-.11c.33 0 .62.08.85.22s.42.37.54.65c.12.29.18.63.18 1.03 0 .42-.07.77-.21 1.06-.14.29-.34.52-.61.67-.27.15-.59.23-.96.23s-.7-.08-.96-.23Zm1.62-.9c.15-.18.23-.43.23-.75 0-.36-.08-.64-.24-.83-.16-.19-.39-.29-.69-.29-.27 0-.47.1-.62.29s-.22.47-.22.83c0 .33.08.58.23.75.15.17.37.26.65.26s.5-.09.66-.26ZM139.52 46.39h.9v.9l-.9.89V46.4ZM141.55 46.5l2.23-2.97c.13-.17.23-.35.3-.53.07-.18.11-.35.11-.51 0-.26-.07-.46-.22-.6s-.36-.21-.64-.21c-.26 0-.47.08-.63.23-.16.15-.26.37-.29.65s-.93 0-.93 0c.05-.37.16-.68.32-.94.16-.26.37-.46.63-.59.26-.14.55-.2.89-.2.38 0 .71.07.98.2s.47.32.62.57.21.55.21.9c0 .23-.05.47-.14.71s-.22.48-.39.71l-1.85 2.51h2.42v.85h-3.6v-.78ZM146.76 46.87c-.31-.32-.46-.76-.46-1.34v-2.9c0-.57.16-1.02.47-1.34.31-.32.76-.48 1.36-.48s1.05.16 1.36.47c.31.32.46.76.46 1.34v2.9c0 .57-.16 1.02-.47 1.34-.31.32-.76.48-1.36.48s-1.05-.16-1.36-.48Zm2.06-.62c.15-.17.23-.4.23-.71v-2.9c0-.31-.07-.55-.22-.71-.15-.17-.38-.25-.7-.25s-.55.08-.7.25c-.15.17-.22.4-.22.71v2.9c0 .31.08.55.23.71.15.17.38.25.7.25s.55-.08.7-.25ZM63.24 45.52l2.14-4.63h.92l-2.09 4.57h3.13v.83h-4.11v-.78Zm2.75-2h.88v3.76h-.88v-3.76ZM68.36 46.39h.9v.9l-.9.89V46.4ZM71.41 47.16a1.61 1.61 0 0 1-.61-.55c-.16-.24-.26-.53-.31-.87s.9 0 .9 0c.03.24.13.42.28.55.16.13.36.2.61.2.29 0 .51-.1.67-.29.16-.19.24-.46.24-.81v-.54c0-.35-.08-.61-.24-.81-.16-.19-.38-.29-.67-.29-.16 0-.3.04-.45.13s-.27.21-.38.37h-.82v-3.37h3.26v.85h-2.36v1.44c.11-.09.24-.16.37-.21s.28-.08.42-.08c.37 0 .68.08.95.23.26.15.46.38.6.67.14.29.21.65.21 1.06v.54c0 .41-.07.77-.21 1.06s-.35.52-.62.67c-.27.15-.59.23-.97.23-.32 0-.61-.06-.86-.19ZM78.69 41.69l-1.65 5.59h-.95l1.65-5.54h-1.63v.92h-.9v-1.77h3.48v.8ZM26.05 120.08l2.23-2.97c.13-.17.23-.35.3-.53.07-.18.11-.35.11-.51 0-.26-.07-.46-.22-.6s-.36-.21-.64-.21c-.26 0-.47.08-.63.23-.16.15-.26.37-.29.65s-.93 0-.93 0c.05-.37.16-.68.32-.94.16-.26.37-.46.63-.59.26-.14.55-.2.89-.2.38 0 .71.07.98.2s.47.32.62.57.21.55.21.9c0 .23-.05.47-.14.71s-.22.48-.39.71l-1.85 2.51h2.42v.85h-3.6v-.78ZM30.71 119.96h.9v.9l-.9.89v-1.78ZM35.1 117.69v.16c-.08.13-.19.23-.34.3-.15.06-.32.09-.52.09-.3 0-.57-.08-.8-.23s-.41-.37-.54-.66c-.13-.28-.19-.61-.19-.98 0-.42.07-.77.21-1.06.14-.29.34-.52.61-.67.27-.15.59-.23.96-.23s.7.08.96.23.47.38.61.68c.14.3.21.65.21 1.07 0 .23-.03.48-.09.74s-.14.52-.25.77c-.02.04-.04.08-.05.12l-.06.12-1.36 2.74h-.97l1.61-3.17Zm.04-.55c.15-.19.23-.46.23-.8s-.08-.6-.23-.79c-.15-.18-.37-.28-.65-.28s-.5.09-.66.28c-.15.18-.23.45-.23.79 0 .35.08.62.23.81.15.19.37.28.66.28s.5-.1.65-.29ZM38.14 120.7c-.27-.15-.47-.37-.61-.66-.14-.29-.21-.64-.21-1.04a3.99 3.99 0 0 1 .32-1.52c.02-.04.04-.09.06-.13l.06-.12 1.39-2.75h.97l-1.63 3.19v-.16c.08-.14.18-.25.33-.32s.3-.11.49-.11c.33 0 .62.08.85.22s.42.37.54.65c.12.29.18.63.18 1.03 0 .42-.07.77-.21 1.06-.14.29-.34.52-.61.67-.27.15-.59.23-.96.23s-.7-.08-.96-.23Zm1.62-.9c.15-.18.23-.43.23-.75 0-.36-.08-.64-.24-.83-.16-.19-.39-.29-.69-.29-.27 0-.47.1-.62.29s-.22.47-.22.83c0 .33.08.58.23.75.15.17.37.26.65.26s.5-.09.66-.26ZM90.37 231.45c-.27-.15-.47-.37-.61-.66-.14-.29-.21-.64-.21-1.04a3.99 3.99 0 0 1 .32-1.52c.02-.04.04-.09.06-.13l.06-.12 1.39-2.75h.97l-1.63 3.19v-.16c.08-.14.18-.24.33-.32s.3-.11.49-.11c.33 0 .62.07.85.22s.42.37.54.65c.12.29.18.63.18 1.03 0 .41-.07.77-.21 1.06-.14.29-.34.52-.61.67-.27.15-.59.23-.96.23s-.7-.08-.96-.23Zm1.62-.9c.15-.18.23-.43.23-.75 0-.36-.08-.64-.24-.83-.16-.19-.39-.29-.69-.29-.27 0-.47.1-.62.29s-.22.47-.22.83c0 .33.08.58.23.75.15.17.37.26.65.26s.5-.09.66-.26ZM94.22 230.72h.9v.9l-.9.89v-1.78ZM96.26 229.86l2.14-4.63h.92l-2.09 4.58h3.13v.83h-4.11v-.78Zm2.75-2h.88v3.76h-.88v-3.76ZM101.37 230.84l2.23-2.97c.13-.17.23-.35.3-.53.07-.18.11-.35.11-.51 0-.26-.07-.46-.22-.6s-.36-.21-.64-.21c-.26 0-.47.08-.63.23-.16.15-.26.37-.29.65s-.93 0-.93 0c.05-.37.16-.68.32-.94.16-.26.37-.46.63-.59.26-.14.55-.21.89-.21.38 0 .71.07.98.2s.47.32.62.57.21.55.21.9c0 .23-.05.47-.14.71s-.22.48-.39.71l-1.85 2.51h2.42v.85h-3.6v-.78ZM140.16 183.79h-.9v-5.41l-.91.56v-.93l.91-.61h.9v6.39ZM142.31 183.66c-.27-.13-.49-.32-.66-.57a1.97 1.97 0 0 1-.31-.89h.91c.03.18.08.33.17.45s.2.2.34.26.3.08.49.08c.3 0 .53-.08.69-.24s.25-.38.25-.67v-.19c0-.32-.08-.57-.23-.74-.16-.17-.38-.26-.66-.26h-.45v-.85h.45c.25 0 .44-.07.58-.22s.21-.36.21-.63v-.2c0-.25-.07-.45-.22-.58-.15-.14-.35-.21-.62-.21-.15 0-.29.03-.41.09s-.22.15-.31.26c-.08.12-.14.27-.18.45h-.91c.06-.35.17-.65.33-.9s.37-.44.62-.57.53-.19.86-.19c.55 0 .98.15 1.28.44s.45.7.45 1.23v.11c0 .32-.09.6-.26.83s-.42.41-.73.52c.35.08.62.25.81.51.19.27.29.61.29 1.02v.11c0 .37-.07.69-.21.95s-.35.46-.63.6c-.27.14-.6.21-.99.21-.36 0-.67-.07-.95-.2ZM146.28 182.89h.9v.9l-.9.89v-1.78ZM148.31 183.01l2.23-2.97c.13-.17.23-.35.3-.53.07-.18.11-.35.11-.51 0-.26-.07-.46-.22-.6s-.36-.21-.64-.21c-.26 0-.47.08-.63.23-.16.15-.26.37-.29.65s-.93 0-.93 0c.05-.37.16-.68.32-.94.16-.26.37-.46.63-.59.26-.14.55-.21.89-.21.38 0 .71.07.98.2s.47.32.62.57.21.55.21.9c0 .23-.05.47-.14.71s-.22.48-.39.71l-1.85 2.51h2.42v.85h-3.6V183ZM153.76 183.66c-.27-.13-.49-.32-.66-.57a1.97 1.97 0 0 1-.31-.89h.91c.03.18.08.33.17.45s.2.2.34.26.3.08.49.08c.3 0 .53-.08.69-.24s.25-.38.25-.67v-.19c0-.32-.08-.57-.23-.74-.16-.17-.38-.26-.66-.26h-.45v-.85h.45c.25 0 .44-.07.58-.22s.21-.36.21-.63v-.2c0-.25-.07-.45-.22-.58-.15-.14-.35-.21-.62-.21-.15 0-.29.03-.41.09s-.22.15-.31.26c-.08.12-.14.27-.18.45h-.91c.06-.35.17-.65.33-.9s.37-.44.62-.57.54-.19.86-.19c.55 0 .98.15 1.28.44s.45.7.45 1.23v.11c0 .32-.09.6-.26.83s-.42.41-.73.52c.35.08.62.25.81.51.19.27.29.61.29 1.02v.11c0 .37-.07.69-.22.95s-.35.46-.63.6c-.27.14-.6.21-.99.21-.36 0-.67-.07-.94-.2ZM58.58 183.79h-.9v-5.41l-.91.56v-.93l.91-.61h.9v6.39ZM61.57 183.79h-.9v-5.41l-.91.56v-.93l.91-.61h.9v6.39ZM62.93 182.89h.9v.9l-.9.89v-1.78ZM65.75 183.63c-.27-.15-.47-.37-.61-.66-.14-.29-.21-.64-.21-1.04a3.99 3.99 0 0 1 .32-1.52c.02-.04.04-.09.06-.13l.06-.12 1.39-2.75h.97l-1.63 3.19v-.16c.08-.14.18-.24.33-.32s.3-.11.49-.11c.33 0 .62.07.85.22s.42.37.54.65c.12.29.18.63.18 1.03 0 .41-.07.77-.21 1.06-.14.29-.34.52-.61.67-.27.15-.59.23-.96.23s-.7-.08-.96-.23Zm1.62-.9c.15-.18.23-.43.23-.75 0-.36-.08-.64-.24-.83-.16-.19-.39-.29-.69-.29-.27 0-.47.1-.62.29s-.22.47-.22.83c0 .33.08.58.23.75.15.17.37.26.65.26s.5-.09.66-.26ZM70.6 183.66a1.61 1.61 0 0 1-.61-.55c-.16-.24-.26-.53-.31-.87s.9 0 .9 0c.03.24.13.42.28.55.16.13.36.2.61.2.29 0 .51-.1.67-.29.16-.19.23-.46.23-.81v-.54c0-.35-.08-.61-.23-.81-.16-.19-.38-.29-.67-.29-.16 0-.3.04-.45.13s-.27.21-.38.37h-.82v-3.37h3.26v.85h-2.36v1.44c.11-.09.24-.16.37-.21s.28-.07.42-.07c.37 0 .68.08.95.23.26.15.46.38.6.67.14.29.2.65.2 1.06v.54c0 .41-.07.77-.21 1.06s-.35.52-.62.67c-.27.15-.59.23-.97.23-.32 0-.61-.06-.86-.19ZM27.52 60.02l2.23-2.97c.13-.17.23-.35.3-.53.07-.18.11-.35.11-.51 0-.26-.07-.46-.22-.6s-.36-.21-.64-.21c-.26 0-.47.08-.63.23-.16.15-.26.37-.29.65s-.93 0-.93 0c.05-.37.16-.68.32-.94.16-.26.37-.46.63-.59.26-.14.55-.2.89-.2.38 0 .71.07.98.2s.47.32.62.57.21.55.21.9c0 .23-.05.47-.14.71s-.22.48-.39.71l-1.85 2.51h2.42v.85h-3.6v-.78ZM32.18 59.9h.9v.9l-.9.89v-1.78ZM35.01 60.67c-.27-.13-.49-.32-.66-.57a1.97 1.97 0 0 1-.31-.89h.91c.03.18.08.33.17.45s.2.2.34.26.3.09.49.09c.3 0 .53-.08.69-.24s.25-.38.25-.67v-.19c0-.32-.08-.57-.23-.74-.16-.17-.38-.26-.66-.26h-.45v-.85H36c.25 0 .44-.08.58-.22s.21-.36.21-.63v-.2c0-.25-.07-.45-.22-.58-.15-.14-.35-.21-.62-.21-.15 0-.29.03-.41.08-.12.06-.22.15-.31.26-.08.12-.14.27-.18.45h-.91c.06-.35.17-.65.33-.9s.37-.44.62-.57.54-.19.86-.19c.55 0 .98.14 1.28.43s.45.7.45 1.23v.11c0 .32-.09.6-.26.83s-.42.41-.73.52c.35.08.62.25.81.51.19.27.29.61.29 1.02v.11c0 .37-.07.69-.22.95s-.35.46-.63.6c-.27.14-.6.21-.99.21-.36 0-.67-.07-.94-.2ZM38.97 59.04l2.14-4.63h.92l-2.09 4.57h3.13v.83h-4.11v-.78Zm2.75-2h.88v3.76h-.88v-3.76Z"/></g></svg>