<svg xmlns="http://www.w3.org/2000/svg" viewBox="0 0 277.42 399.69"><defs><pattern id="_Новый_узор_4" width="9.82" height="9.82" x="0" y="0" patternTransform="matrix(1.05 0 0 1.03 470.19 1064.26)" patternUnits="userSpaceOnUse"><g fill="none"><path d="M0 0h9.82v9.82H0z"/><g fill-rule="evenodd" stroke-linecap="round" stroke-width=".25" clip-path="url(#clippath)"><path stroke="#e6e6e6" stroke-linejoin="round" d="m14.73 19.65-4.91-4.92 4.91-4.91 4.91 4.91-4.91 4.92zM4.91 19.65 0 14.73l4.91-4.91 4.91 4.91-4.91 4.92zM-4.91 19.65l-4.91-4.92 4.91-4.91L0 14.73l-4.91 4.92z"/><path stroke="#e6e6e6" stroke-linejoin="round" d="M14.73 9.82 9.82 4.91 14.73 0l4.91 4.91-4.91 4.91z"/><path stroke="#999" stroke-miterlimit="3" d="M4.91 9.82 0 4.91 4.91 0l4.91 4.91-4.91 4.91z"/><path stroke="#e6e6e6" stroke-linejoin="round" d="m-4.91 9.82-4.91-4.91L-4.91 0 0 4.91l-4.91 4.91zM14.73 0 9.82-4.91l4.91-4.91 4.91 4.91L14.73 0zM4.91 0 0-4.91l4.91-4.91 4.91 4.91L4.91 0zM-4.91 0l-4.91-4.91 4.91-4.91L0-4.91-4.91 0z"/></g></g></pattern><pattern id="_Новый_узор_2" width="22.92" height="23.17" x="0" y="0" patternTransform="matrix(.7 0 0 .67 -2274.32 -2037.33)" patternUnits="userSpaceOnUse"><g fill="none"><path d="M0 0h22.92v23.17H0z"/><path stroke="#b5b5b5" stroke-miterlimit="10" stroke-width=".25" d="M22.69 17.61v11.12H.23V17.61h22.46m.11-.11H.12v11.34H22.8V17.5ZM22.69 6.03v11.12H.23V6.03h22.46m.11-.11H.12v11.34H22.8V5.92ZM22.69-5.56V5.56H.23V-5.56h22.46m.11-.11H.12V5.67H22.8V-5.67Z"/></g></pattern><clipPath id="clippath"><path fill="none" d="M0 0h9.82v9.82H0z"/></clipPath></defs><g id="Flats"><path id="fl227" fill="#fff" d="m263.58 266.29-.19-226.22-30.39-5.3-52.6-12.15-23.93-8.06-25.05 1.95H77.44l-60.89-.04V92.1l6.02 26.06 9.53 41.28v36.68l-10.64.06 10.79 55.64-16.86 28.66 8.36 21.71 8.61 60.87.44 32.93h234.36V272.58l-3.58-6.29z"/></g><g id="Grid"><path fill="url(#_Новый_узор_4)" d="M192.17 190.57h67.26v45.44h-67.26z"/><path fill="url(#_Новый_узор_2)" fill-rule="evenodd" d="M258.66 332.29h-66.49v50.25h56.5v-3.04h9.99v-47.21z"/></g><g id="Mebel"><g fill="none" stroke="#6a6a6a" stroke-linecap="round" stroke-linejoin="round" stroke-width=".25"><path d="M125.73 332.29h-15.97m0 0v45.35m0 0h15.97m0 0v-45.35M117.62 377.64h-.51m0 0v-45.35m0 0h.51m0 0v45.35M111.09 337.26h12.5m0 0v.51m0 0h-12.5m0 0v-.51M111.09 338.61h12.5m0 0v.51m0 0h-12.5m0 0v-.51M111.09 339.95h12.5m0 0v.5m0 0h-12.5m0 0v-.5M111.09 341.29h12.5m0 0v.51m0 0h-12.5m0 0v-.51M111.18 344.12l12.41-1.5m0 0 .06.5m0 0-12.41 1.5m0 0-.06-.5"/></g><g fill="none" stroke="#6a6a6a" stroke-linecap="round" stroke-linejoin="round" stroke-width=".25"><path d="M189.51 377.64v13.58m0 0h-79.75m0 0v-13.58m0 0h79.75M109.76 384.54v.43m0 0h79.75m0 0v-.43m0 0h-79.75M185.28 390.08v-10.62m0 0h-.43m0 0v10.62m0 0h.43M184.14 390.08v-10.62m0 0h-.43m0 0v10.62m0 0h.43M183 390.08v-10.62m0 0h-.43m0 0v10.62m0 0h.43M181.86 390.08v-10.62m0 0h-.43m0 0v10.62m0 0h.43M179.45 390l1.27-10.54m0 0-.43-.05m0 0-1.27 10.54m0 0 .43.05"/></g><g fill="none" stroke="#6a6a6a" stroke-linecap="round" stroke-linejoin="round" stroke-width=".25"><path d="M109.78 190.57v14.24m0 0h38.62m0 0v-14.24m0 0h-38.62M148.4 197.8v.45m0 0h-38.62m0 0v-.45m0 0h38.62M114.2 203.61v-11.14m0 0h.45m0 0v11.14m0 0h-.45M115.39 203.61v-11.14m0 0h.45m0 0v11.14m0 0h-.45M116.58 203.61v-11.14m0 0h.45m0 0v11.14m0 0h-.45M117.77 203.61v-11.14m0 0h.45m0 0v11.14m0 0h-.45M120.29 203.53l-1.33-11.06m0 0 .45-.05m0 0 1.33 11.06m0 0-.45.05"/></g><g fill="none" stroke="#6a6a6a" stroke-linecap="round" stroke-linejoin="round" stroke-width=".25"><path d="M91.76 297.61H47.93m0 0v-8.66m0 0h43.82m0 0v8.66M91.76 297.18H47.93M69.85 297.61v-.43M91.76 297.61v-.43M55.38 292.53v-.58m0 0h25.41m0 0v.58m0 0H55.38M56.19 291.94l-.41-1.95m0 0-.39.08m0 0 .39 1.87m0 0h.41M60.94 291.94v-.48m0 0 .09-.32m0 0 .24-.24m0 0 .33-.09m0 0h13m0 0 .32.09m0 0 .24.24m0 0 .09.32m0 0v.48m0 0h-14.3M56.19 292.73l-.41 1.95m0 0-.39-.08m0 0 .39-1.87m0 0h.41M79.99 291.94l.41-1.95m0 0 .39.08m0 0-.39 1.87m0 0h-.41M79.99 292.7l.41 1.95m0 0 .39-.08m0 0-.39-1.87m0 0h-.41M55.38 292.7v-.17m0 0h25.41m0 0v.17m0 0H55.38"/></g><g fill="none" stroke="#6a6a6a" stroke-linecap="round" stroke-linejoin="round" stroke-width=".25"><path d="M43.41 385.18c0 1.36-1.1 2.46-2.46 2.46s-2.46-1.1-2.46-2.46 1.1-2.46 2.46-2.46 2.46 1.1 2.46 2.46Z"/><path d="M41.69 385.18c0 .41-.33.74-.74.74s-.74-.33-.74-.74.33-.74.74-.74.74.33.74.74ZM101.19 385.18c0 1.36-1.1 2.46-2.46 2.46s-2.46-1.1-2.46-2.46 1.1-2.46 2.46-2.46 2.46 1.1 2.46 2.46Z"/><path d="M99.47 385.18c0 .41-.33.74-.74.74s-.74-.33-.74-.74.33-.74.74-.74.74.33.74.74ZM47.72 339.69h44.26m0 0v49.18m0 0H47.72m0 0v-49.18M48.95 338.46h41.8m0 0 .47.09m0 0 .4.27m0 0 .27.4m0 0 .09.47m0 0H47.72m0 0 .09-.47m0 0 .27-.4m0 0 .4-.27m0 0 .47-.09M47.72 391.32h44.26m0 0v-2.46m0 0H47.72m0 0v2.46M91.97 391.32H47.72m0 0v-1.23m0 0h44.26m0 0v1.23M93.2 391.32h11.06m0 0v-12.29m0 0H93.2m0 0v12.29M46.49 391.32H35.43m0 0v-12.29m0 0h11.06m0 0v12.29M73.78 387.64H90.5m0 0 .17-.07m0 0 .07-.17m0 0v-8.11m0 0-.07-.17m0 0-.17-.07m0 0H73.78m0 0-.17.07m0 0-.07.17m0 0v8.11m0 0 .07.17m0 0 .17.07M65.91 387.64H49.19m0 0-.17-.07m0 0-.07-.17m0 0v-8.11m0 0 .07-.17m0 0 .17-.07m0 0h16.72m0 0 .17.07m0 0 .07.17m0 0v8.11m0 0-.07.17m0 0-.17.07M47.72 379.7h1.23M66.16 379.7h7.37M90.74 379.7h1.23M47.72 376.44h44.26m0 0v-12.16m0 0-44.26 9.7m0 0v2.46M38.56 385.74l2.39-.56m0 0 1.03-2.23m0 0-1.03 2.23m0 0 .85 2.31M101.13 385.74l-2.39-.56m0 0-1.03-2.23m0 0 1.03 2.23m0 0-.85 2.31"/></g><g fill="none" stroke="#6a6a6a" stroke-linecap="round" stroke-linejoin="round" stroke-width=".25"><path d="M117.42 179.08H73.6m0 0v8.66m0 0h43.82m0 0v-8.66M117.42 179.51H73.6M95.51 179.08v.43M117.42 179.08v.43M81.05 184.16v.58m0 0h25.41m0 0v-.58m0 0H81.05M81.86 184.74l-.41 1.95m0 0-.39-.08m0 0 .39-1.87m0 0h.41M86.61 184.74v.48m0 0 .09.32m0 0 .24.24m0 0 .33.09m0 0h13m0 0 .32-.09m0 0 .24-.24m0 0 .09-.32m0 0v-.48m0 0h-14.3M81.86 183.95l-.41-1.95m0 0-.39.08m0 0 .39 1.87m0 0h.41M105.66 184.74l.41 1.95m0 0 .39-.08m0 0-.39-1.87m0 0h-.41M105.66 183.99l.41-1.95m0 0 .39.08m0 0-.39 1.87m0 0h-.41M81.05 183.99v.17m0 0h25.41m0 0v-.17m0 0H81.05"/></g><g fill="none" stroke="#6a6a6a" stroke-linecap="round" stroke-linejoin="round" stroke-width=".25"><path d="M129.17 151.07v-13.62m0 0h15.48m0 0v13.62m0 0h-15.48M129.17 137.45v-4.56m0 0h22.11m0 0v4.56m0 0h-1.11m-5.53 0h-15.48M129.17 155.64v-4.56m0 0h15.48m5.53 0h1.11m0 0v4.56m0 0h-22.11M150.17 153.2h-5.53m0 0v-17.87m0 0h5.53m0 0v17.87M151.28 151.07h-1.11m0 0v-13.62m0 0h1.11m0 0v13.62"/></g><g fill="none" stroke="#6a6a6a" stroke-linecap="round" stroke-linejoin="round" stroke-width=".25"><path d="M62.28 151.07v-13.62m0 0H46.8m0 0v13.62m0 0h15.48M62.28 137.45v-4.56m0 0H40.17m0 0v4.56m0 0h1.11m5.53 0h15.48M62.28 155.64v-4.56m0 0H46.8m-5.53 0h-1.11m0 0v4.56m0 0h22.11M41.27 153.2h5.53m0 0v-17.87m0 0h-5.53m0 0v17.87M40.17 151.07h1.11m0 0v-13.62m0 0h-1.11m0 0v13.62"/></g><path fill="none" stroke="#6a6a6a" stroke-linecap="round" stroke-linejoin="round" stroke-width=".25" d="M78.48 152.7v-16.87h34.06v16.87z"/><g fill="none" stroke="#6a6a6a" stroke-linecap="round" stroke-linejoin="round" stroke-width=".25"><path d="M125.61 126.49h2.41M128.46 126.06v-23.29M128.02 102.33h-2.41M125.17 102.77v23.29M125.61 102.33H106.5M106.5 102.33v1.54M106.5 108.01v1.32M107.15 126.49h17.36M125.17 125.84v-16.51M124.51 108.67h-17.36M106.5 109.33v16.51M107.15 103.21h17.36M125.17 103.87v4.14M124.51 108.67h-17.36M106.5 108.01v-4.14M124.51 106.29h-17.36M128.02 126.49c.24 0 .44-.2.44-.44M128.46 102.77c0-.24-.2-.44-.44-.44M125.61 102.33c-.24 0-.44.2-.44.44M125.17 126.06c0 .24.2.44.44.44M124.51 126.49c.36 0 .66-.3.66-.66M125.17 109.33a.66.66 0 0 0-.66-.66M107.15 108.67a.66.66 0 0 0-.66.66M106.5 125.84c0 .36.3.66.66.66M125.17 103.87a.66.66 0 0 0-.66-.66M124.51 108.67c.36 0 .66-.29.66-.66M106.5 108.01c0 .36.3.66.66.66M107.15 103.21a.66.66 0 0 0-.66.66M124.51 106.29c.36 0 .66-.29.66-.66M106.5 105.63c0 .36.3.66.66.66M106.5 102.33H84.53M106.5 102.33v1.54M84.53 102.33v1.54M106.5 108.01v1.32M84.53 108.01v1.32M85.19 126.49h20.65M106.5 125.84v-16.51M105.84 108.67H85.19M84.53 109.33v16.51M85.19 103.21h20.65M106.5 103.87v4.14M105.84 108.67H85.19M84.53 108.01v-4.14M105.84 106.29H85.19M105.84 126.49c.36 0 .66-.3.66-.66"/><path d="M106.5 109.33c0-.36-.3-.66-.66-.66M85.19 108.67a.66.66 0 0 0-.66.66M84.53 125.84c0 .36.3.66.66.66M106.5 103.87c0-.36-.3-.66-.66-.66M105.84 108.67c.36 0 .66-.29.66-.66M84.53 108.01c0 .36.3.66.66.66M85.19 103.21a.66.66 0 0 0-.66.66M105.84 106.29c.36 0 .66-.29.66-.66M84.53 105.63c0 .36.3.66.66.66M65.42 126.49H63M62.57 126.06v-23.29M63 102.33h2.42M65.86 102.77v23.29M65.42 102.33h19.11M84.53 102.33v1.54M84.53 108.01v1.32M83.87 126.49H66.52M65.86 125.84v-16.51M66.52 108.67h17.35M84.53 109.33v16.51M83.87 103.21H66.52M65.86 103.87v4.14M66.52 108.67h17.35M84.53 108.01v-4.14M66.52 106.29h17.35M62.57 126.06c0 .24.2.44.44.44M63 102.33c-.24 0-.44.2-.44.44M65.86 102.77c0-.24-.2-.44-.44-.44M65.42 126.49c.24 0 .44-.2.44-.44M65.86 125.84c0 .36.3.66.66.66M66.52 108.67a.66.66 0 0 0-.66.66M84.53 109.33a.66.66 0 0 0-.66-.66M83.87 126.49c.36 0 .66-.3.66-.66M66.52 103.21a.66.66 0 0 0-.66.66M65.86 108.01c0 .36.3.66.66.66M83.87 108.67c.36 0 .66-.29.66-.66M84.53 103.87a.66.66 0 0 0-.66-.66M65.86 105.63c0 .36.3.66.66.66M83.87 106.29c.36 0 .66-.29.66-.66M124.51 126.49h-17.36"/></g><path fill="none" stroke="#6a6a6a" stroke-linecap="round" stroke-linejoin="round" stroke-width=".25" d="M86.42 50.21v-2.22m0 0h-.63m0 0h-12.6m0 0h-.63m0 0v2.22M72.55 45.47v2.51m0 0h.63m0 0v-2.37m0 0h-.04m0 0-.22.14m0 0-.25-.06m0 0-.12-.23M73.14 43.74l-.22.14m0 0-.25-.06m0 0-.12-.23m0 0v1.88m0 0 .12.23m0 0 .25.06m0 0 .22-.14m0 0h12.69m0 0 .22.14m0 0 .25-.06m0 0 .12-.23m0 0v-1.88m0 0-.12.23m0 0-.25.06m0 0-.22-.14m0 0H73.14M86.42 45.47l-.12.23m0 0-.25.06m0 0-.22-.14m0 0h-.04m0 0v2.37m0 0h.63m0 0v-2.51"/><path fill="#fff" fill-rule="evenodd" d="m85.2 43.44-.74-.16h-9.95l-.74.16H85.2z"/><path fill="none" stroke="#6a6a6a" stroke-linecap="round" stroke-linejoin="round" stroke-width=".25" d="M73.77 43.44h11.42m0 0-.74-.17m0 0H74.5m0 0-.74.17M73.14 43.44l-.22-.14m0 0-.25.06m0 0-.12.23m0 0 .12.23m0 0 .25.06m0 0 .22-.15m0 0h12.69m0 0 .22.15m0 0 .25-.06m0 0 .12-.23m0 0-.12-.23m0 0-.25-.06m0 0-.22.14m0 0H73.14M102.5 50.21v-2.22m0 0h-.63m0 0h-12.6m0 0h-.63m0 0v2.22M88.64 45.47v2.51m0 0h.63m0 0v-2.37m0 0h-.04m0 0-.22.14m0 0-.25-.06m0 0-.12-.23M89.22 43.74l-.22.14m0 0-.25-.06m0 0-.12-.23m0 0v1.88m0 0 .12.23m0 0 .25.06m0 0 .22-.14m0 0h12.69m0 0 .22.14m0 0 .25-.06m0 0 .12-.23m0 0v-1.88m0 0-.12.23m0 0-.25.06m0 0-.22-.14m0 0H89.22M102.5 45.47l-.12.23m0 0-.25.06m0 0-.22-.14m0 0h-.04m0 0v2.37m0 0h.63m0 0v-2.51"/><path fill="#fff" fill-rule="evenodd" d="m101.28 43.44-.74-.16H90.6l-.74.16h11.42z"/><path fill="none" stroke="#6a6a6a" stroke-linecap="round" stroke-linejoin="round" stroke-width=".25" d="M89.86 43.44h11.42m0 0-.74-.17m0 0h-9.95m0 0-.74.17M89.22 43.44 89 43.3m0 0-.25.06m0 0-.12.23m0 0 .12.23m0 0 .25.06m0 0 .22-.15m0 0h12.69m0 0 .22.15m0 0 .25-.06m0 0 .12-.23m0 0-.12-.23m0 0-.25-.06m0 0-.22.14m0 0H89.22M86.42 75.17v2.22m0 0h-.63m0 0h-12.6m0 0h-.63m0 0v-2.22M73.14 81.64l-.22-.14m0 0-.25.06m0 0-.12.23m0 0v-1.88m0 0 .12-.23m0 0 .25-.06m0 0 .22.14m0 0h12.69m0 0 .22-.14m0 0 .25.06m0 0 .12.23m0 0v1.88m0 0-.12-.23m0 0-.25-.06m0 0-.22.14m0 0H73.14M86.42 79.9l-.12-.23m0 0-.25-.06m0 0-.22.14m0 0h-.04m0 0v-2.37m0 0h.63m0 0v2.52"/><path fill="#fff" fill-rule="evenodd" d="M74.51 82.1h9.95l.74-.17H73.77l.74.17z"/><path fill="none" stroke="#6a6a6a" stroke-linecap="round" stroke-linejoin="round" stroke-width=".25" d="M73.77 81.93h11.42m0 0-.74.17m0 0H74.5m0 0-.74-.17M73.14 81.93l-.22.14m0 0-.25-.06m0 0-.12-.23m0 0 .12-.23m0 0 .25-.06m0 0 .22.14m0 0h12.69m0 0 .22-.14m0 0 .25.06m0 0 .12.23m0 0-.12.23m0 0-.25.06m0 0-.22-.14m0 0H73.14M102.5 75.17v2.22m0 0h-.63m0 0h-12.6m0 0h-.63m0 0v-2.22M88.64 79.9v-2.52m0 0h.63m0 0v2.37m0 0h-.04m0 0-.22-.14m0 0-.25.06m0 0-.12.23M89.22 81.64 89 81.5m0 0-.25.06m0 0-.12.23m0 0v-1.88m0 0 .12-.23m0 0 .25-.06m0 0 .22.14m0 0h12.69m0 0 .22-.14m0 0 .25.06m0 0 .12.23m0 0v1.88m0 0-.12-.23m0 0-.25-.06m0 0-.22.14m0 0H89.22M102.5 79.9l-.12-.23m0 0-.25-.06m0 0-.22.14m0 0h-.04m0 0v-2.37m0 0h.63m0 0v2.52"/><path fill="#fff" fill-rule="evenodd" d="M90.59 82.1h9.95l.74-.17H89.86l.73.17z"/><path fill="none" stroke="#6a6a6a" stroke-linecap="round" stroke-linejoin="round" stroke-width=".25" d="M89.86 81.93h11.42m0 0-.74.17m0 0h-9.95m0 0-.74-.17M89.22 81.93l-.22.14m0 0-.25-.06m0 0-.12-.23m0 0 .12-.23m0 0 .25-.06m0 0 .22.14m0 0h12.69m0 0 .22-.14m0 0 .25.06m0 0 .12.23m0 0-.12.23m0 0-.25.06m0 0-.22-.14m0 0H89.22M104.72 50.21v-2.22m0 0h.63m0 0h12.6m0 0h.63m0 0v2.22M118.58 45.47v2.51m0 0h-.63m0 0v-2.37m0 0h.04m0 0 .22.14m0 0 .25-.06m0 0 .12-.23M118 43.74l.22.14m0 0 .25-.06m0 0 .12-.23m0 0v1.88m0 0-.12.23m0 0-.25.06m0 0-.22-.14m0 0h-12.69m0 0-.22.14m0 0-.25-.06m0 0-.12-.23m0 0v-1.88m0 0 .12.23m0 0 .25.06m0 0 .22-.14m0 0H118M104.72 45.47l.12.23m0 0 .25.06m0 0 .22-.14m0 0h.04m0 0v2.37m0 0h-.63m0 0v-2.51"/><path fill="#fff" fill-rule="evenodd" d="m117.36 43.44-.73-.16h-9.95l-.74.16h11.42z"/><path fill="none" stroke="#6a6a6a" stroke-linecap="round" stroke-linejoin="round" stroke-width=".25" d="M117.36 43.44h-11.42m0 0 .74-.17m0 0h9.95m0 0 .74.17M118 43.44l.22-.14m0 0 .25.06m0 0 .12.23m0 0-.12.23m0 0-.25.06m0 0-.22-.15m0 0h-12.69m0 0-.22.15m0 0-.25-.06m0 0-.12-.23m0 0 .12-.23m0 0 .25-.06m0 0 .22.14m0 0H118M104.72 75.17v2.22m0 0h.63m0 0h12.6m0 0h.63m0 0v-2.22M118.58 79.9v-2.52m0 0h-.63m0 0v2.37m0 0h.04m0 0 .22-.14m0 0 .25.06m0 0 .12.23M118 81.64l.22-.14m0 0 .25.06m0 0 .12.23m0 0v-1.88m0 0-.12-.23m0 0-.25-.06m0 0-.22.14m0 0h-12.69m0 0-.22-.14m0 0-.25.06m0 0-.12.23m0 0v1.88m0 0 .12-.23m0 0 .25-.06m0 0 .22.14m0 0H118M104.72 79.9l.12-.23m0 0 .25-.06m0 0 .22.14m0 0h.04m0 0v-2.37m0 0h-.63m0 0v2.52"/><path fill="#fff" fill-rule="evenodd" d="M106.68 82.1h9.95l.73-.17h-11.42l.74.17z"/><path fill="none" stroke="#6a6a6a" stroke-linecap="round" stroke-linejoin="round" stroke-width=".25" d="M117.36 81.93h-11.42m0 0 .74.17m0 0h9.95m0 0 .74-.17M118 81.93l.22.14m0 0 .25-.06m0 0 .12-.23m0 0-.12-.23m0 0-.25-.06m0 0-.22.14m0 0h-12.69m0 0-.22-.14m0 0-.25.06m0 0-.12.23m0 0 .12.23m0 0 .25.06m0 0 .22-.14m0 0H118M124.63 75.17V50.21m0 0H66.4m0 0v24.96m0 0h58.23M72.55 79.9v-2.52m0 0h.63m0 0v2.37m0 0h-.04m0 0-.22-.14m0 0-.25.06m0 0-.12.23"/><g fill="none" stroke="#6a6a6a" stroke-linecap="round" stroke-linejoin="round" stroke-width=".25"><path d="M242.63 129.85v-16.73m0 0h16.76m0 0v16.73m0 0h-16.76M253.71 121.48h-5.4M252.92 123.45l-3.82-3.94M251.01 124.27v-5.58M249.1 123.45l3.82-3.94"/></g><path fill="none" stroke="#6a6a6a" stroke-linecap="round" stroke-linejoin="round" stroke-width=".25" d="M246.38 86.85v-12.8m0 0 .14-.36m0 0 .34-.15m0 0h11.19m0 0 .34.15m0 0 .14.36m0 0v12.8m0 0-.14.35m0 0-.34.15m0 0h-11.19m0 0-.34-.15m0 0-.14-.35M247.6 85.6V75.31M248.08 74.81h7.54M256.11 75.31V85.6M255.62 86.1h-7.54"/><path fill="#999" fill-rule="evenodd" d="M247.6 85.6v.07s-.07-.03-.07-.07.03-.07.07-.07.07.03.07.07-.03.07-.07.07v-.07Z"/><path fill="none" stroke="#6a6a6a" stroke-linecap="round" stroke-linejoin="round" stroke-width=".25" d="M248.08 74.81a.5.5 0 0 0-.49.5M256.11 75.31c0-.28-.22-.5-.49-.5M255.62 86.1c.27 0 .49-.22.49-.5M247.6 85.6c0 .28.22.5.49.5M253 80.68l-.15-.07m0 0-.06-.16m0 0 .06-.16m0 0 .16-.07m0 0h4.81m0 0 .15.07m0 0 .06.16m0 0-.06.16m0 0-.15.07m0 0h-4.81M256.57 80.95v-.27m0 0h1.24m0 0 .15-.07m0 0 .06-.16m0 0-.06-.16m0 0-.15-.07m0 0h-1.24m0 0v-.27m0 0h1.58m0 0v1m0 0h-1.58M255.69 80.95v-.27m0 0h.85m0 0v.27m0 0h-.85M255.69 79.96h.85m0 0v.27m0 0h-.85m0 0v-.27M242.58 32.75v97.1m0 0h16.81m0 0v-97.1m0 0h-16.81"/><g fill="none" stroke="#6a6a6a" stroke-linecap="round" stroke-linejoin="round" stroke-width=".25"><path d="M245.26 63V48.44m0 0h12.3m0 0V63m0 0h-12.3M252.76 55.72h3.52M256.28 55.72v-.73M252.76 55.72v-.73M252.76 49.84h3.52M256.28 50.56v-.72M252.76 50.56v-.72M254.66 61.69c1.01 0 1.82-.82 1.82-1.82s-.82-1.82-1.82-1.82-1.82.82-1.82 1.82.81 1.82 1.82 1.82ZM249.19 61.66c1.46 0 2.64-1.18 2.64-2.64s-1.18-2.64-2.64-2.64-2.64 1.18-2.64 2.64 1.18 2.64 2.64 2.64Z"/><path d="M249.19 60.53c.83 0 1.51-.67 1.51-1.51s-.67-1.51-1.51-1.51-1.51.67-1.51 1.51.67 1.51 1.51 1.51ZM254.54 54.53c.97 0 1.76-.79 1.76-1.76s-.79-1.76-1.76-1.76-1.76.79-1.76 1.76.79 1.76 1.76 1.76ZM248.83 54.29c1.25 0 2.26-1.01 2.26-2.26s-1.01-2.26-2.26-2.26-2.26 1.01-2.26 2.26 1.01 2.26 2.26 2.26Z"/></g><g fill="none" stroke="#6a6a6a" stroke-linecap="round" stroke-linejoin="round" stroke-width=".25"><path d="M246.26 106.37c0-1.4 1.1-2.53 2.45-2.53s2.45 1.13 2.45 2.53-1.1 2.53-2.45 2.53-2.45-1.13-2.45-2.53Z"/><path d="M246.63 106.37c0-1.18.93-2.14 2.08-2.14s2.08.96 2.08 2.14-.93 2.14-2.08 2.14-2.08-.96-2.08-2.14ZM251.39 106.99c0-1.06.83-1.91 1.85-1.91s1.85.86 1.85 1.91-.83 1.91-1.85 1.91-1.85-.86-1.85-1.91Z"/><path d="M252.2 106.99c0-.59.46-1.07 1.04-1.07s1.04.48 1.04 1.07-.47 1.07-1.04 1.07-1.04-.48-1.04-1.07ZM245.79 108.01h.69m0 0v.89m0 0h9m0 0v-.89m0 0h.69M246.84 100.6h6.92m0 0v.35m0 0h-.52m0 0v-.18m0 0h-5.88m0 0v.18m0 0h-.52m0 0v-.35M246.84 100.95l.03.08m.1.23.03.08m.1.23.03.08m.1.23.03.08m.1.23.03.08m.1.23.03.08m.1.23.03.08m.1.23.03.08m.1.23.03.08M253.76 100.95l-.03.08m-.1.23-.03.08m-.1.23-.03.08m-.1.23-.03.08m-.1.23-.03.08m-.1.23-.03.08m-.1.23-.03.08m-.1.23-.03.08m-.1.23-.03.08M246.84 100.95h.06m.08 0h.08m.08 0h.08m.08 0h.06m0 0 .03.04m.15.2.05.07m.15.19.05.07m.15.2.05.07m.15.2.05.07m.15.2.05.07m.15.2.05.07m.15.2.05.07m.15.2.05.07m.15.2.05.07m.15.2.05.07m.15.2.03.04M253.76 100.95h-.06m-.08 0h-.08m-.08 0h-.08m-.08 0h-.06m0 0-.03.04m-.15.2-.05.07m-.15.19-.05.07m-.15.2-.05.07m-.15.2-.05.07m-.15.2-.05.07m-.15.2-.05.07m-.15.2-.05.07m-.15.2-.05.07m-.15.2-.05.07m-.15.2-.05.07m-.15.2-.03.04M259.39 113.15v-16.8m0 0h-16.83m0 0v16.8m0 0h16.83"/></g><g fill="none" stroke="#6a6a6a" stroke-linecap="round" stroke-linejoin="round" stroke-width=".25"><path d="M56.86 218.53h4.39m0 0h.45m0 0 .43-.03m0 0 .4-.05m0 0 .36-.07m0 0h.01m0 0 .32-.08m0 0 .26-.1m0 0h.02m0 0 .19-.11m0 0h.02m0-.01.12-.12m0 0v-.02m.01 0v-.02m.01 0v-.02m0 0 .04-.12m0 0v-.02m0 0h0m0-.01v-1.21m0 0h1.1m0 0v-4.16m-11.88 0v4.16m0 0h1.1m0 0v1.21m0 0h0m0 .01v.02m0 0 .04.12m0 0v.02m0 0v.02m.01 0v.02m.01 0 .12.12m0 0h.02m0 .01.19.11m0 0h.02m0 0 .26.1m0 0 .32.09m0 0h.01m0 0 .36.07m0 0 .4.05m0 0 .43.03m0 0h.45M63.9 215.79h-9.68M63.77 215.79v.96M54.35 215.79v.96M54.22 212.35v4.16M63.9 212.35v4.16M61.26 217.44h-4.4M63.77 216.75c0 .38-1.12.68-2.51.68M56.86 217.44c-1.39 0-2.51-.31-2.51-.69M82.86 212.29H40.28v-16.08h42.58z"/></g><g fill="none" stroke="#6a6a6a" stroke-linecap="round" stroke-linejoin="round" stroke-width=".25"><path d="M63.61 286.17v-24.6m0 0h54.93m0 0v24.6m0 0H63.61M62.23 284.8v-21.85m0 0 .1-.53m0 0 .3-.45m0 0 .45-.3m0 0 .53-.1m0 0v24.6m0 0-.53-.1m0 0-.45-.3m0 0-.3-.45m0 0-.1-.53M121.28 286.17v-24.6m0 0h-2.75m0 0v24.6m0 0h2.75M121.28 261.57v24.6m0 0h-1.37m0 0v-24.6m0 0h1.37M117.16 264.58v18.67m0 0-.08.19m0 0-.19.08m0 0h-9.06m0 0-.19-.08m0 0-.08-.19m0 0v-18.67m0 0 .08-.19m0 0 .19-.08m0 0h9.06m0 0 .19.08m0 0 .08.19M108.29 286.17v-2.64M108.29 264.31v-2.7M104.65 286.17v-24.6m0 0H91.07m0 0 10.83 24.6m0 0h2.75"/></g><path fill="none" stroke="#6a6a6a" stroke-linecap="round" stroke-linejoin="round" stroke-width=".25" d="M200.42 80.05h-2.22m0 0v-.63m0 0v-12.6m0 0v-.63m0 0h2.22M193.95 66.77l.14-.22m0 0-.06-.25m0 0-.23-.12m0 0h1.88m0 0 .23.12m0 0 .06.25m0 0-.14.22m0 0v12.69m0 0 .14.22m0 0-.06.25m0 0-.23.12m0 0h-1.88m0 0 .23-.12m0 0 .06-.25m0 0-.14-.22m0 0V66.77M195.68 80.05l.23-.12m0 0 .06-.25m0 0-.14-.22m0 0v-.04m0 0h2.37m0 0v.63m0 0h-2.52"/><path fill="#fff" fill-rule="evenodd" d="M193.49 68.14v9.95l.17.74V67.41l-.17.73z"/><path fill="none" stroke="#6a6a6a" stroke-linecap="round" stroke-linejoin="round" stroke-width=".25" d="M193.66 67.41v11.42m0 0-.17-.74m0 0v-9.95m0 0 .17-.74M193.66 66.77l-.14-.22m0 0 .06-.25m0 0 .23-.12m0 0 .23.12m0 0 .06.25m0 0-.14.22m0 0v12.69m0 0 .14.22m0 0-.06.25m0 0-.23.12m0 0-.23-.12m0 0-.06-.25m0 0 .14-.22m0 0V66.77M200.42 96.13h-2.22m0 0v-.63m0 0V82.9m0 0v-.63m0 0h2.22M195.68 82.27h2.52m0 0v.63m0 0h-2.37m0 0v-.04m0 0 .14-.22m0 0-.06-.25m0 0-.23-.12M193.95 82.86l.14-.21m0 0-.06-.25m0 0-.23-.12m0 0h1.88m0 0 .23.12m0 0 .06.25m0 0-.14.21m0 0v12.69m0 0 .14.22m0 0-.06.25m0 0-.23.12m0 0h-1.88m0 0 .23-.12m0 0 .06-.25m0 0-.14-.22m0 0V82.86M195.68 96.13l.23-.12m0 0 .06-.25m0 0-.14-.22m0 0v-.04m0 0h2.37m0 0v.63m0 0h-2.52"/><path fill="#fff" fill-rule="evenodd" d="M193.49 84.23v9.95l.17.73V83.49l-.17.74z"/><path fill="none" stroke="#6a6a6a" stroke-linecap="round" stroke-linejoin="round" stroke-width=".25" d="M193.66 83.49v11.42m0 0-.17-.74m0 0v-9.95m0 0 .17-.74M193.66 82.86l-.14-.21m0 0 .06-.25m0 0 .23-.12m0 0 .23.12m0 0 .06.25m0 0-.14.21m0 0v12.69m0 0 .14.22m0 0-.06.25m0 0-.23.12m0 0-.23-.12m0 0-.06-.25m0 0 .14-.22m0 0V82.86M200.42 98.35h-2.22m0 0v.63m0 0v12.6m0 0v.63m0 0h2.22M195.68 112.22h2.52m0 0v-.63m0 0h-2.37m0 0v.04m0 0 .14.22m0 0-.06.25m0 0-.23.12M193.95 111.63l.14.22m0 0-.06.25m0 0-.23.12m0 0h1.88m0 0 .23-.12m0 0 .06-.25m0 0-.14-.22m0 0V98.94m0 0 .14-.21m0 0-.06-.25m0 0-.23-.12m0 0h-1.88m0 0 .23.12m0 0 .06.25m0 0-.14.21m0 0v12.69M195.68 98.35l.23.12m0 0 .06.25m0 0-.14.22m0 0v.04m0 0h2.37m0 0v-.63m0 0h-2.52"/><path fill="#fff" fill-rule="evenodd" d="M193.49 100.31v9.95l.17.74V99.57l-.17.74z"/><path fill="none" stroke="#6a6a6a" stroke-linecap="round" stroke-linejoin="round" stroke-width=".25" d="M193.66 111V99.58m0 0-.17.74m0 0v9.95m0 0 .17.74M193.66 111.63l-.14.22m0 0 .06.25m0 0 .23.12m0 0 .23-.12m0 0 .06-.25m0 0-.14-.22m0 0V98.94m0 0 .14-.21m0 0-.06-.25m0 0-.23-.12m0 0-.23.12m0 0-.06.25m0 0 .14.21m0 0v12.69M200.42 118.26h24.96m0 0V60.03m0 0h-24.96m0 0v58.23M195.69 66.19h2.52m0 0v.63m0 0h-2.37m0 0v-.04m0 0 .14-.22m0 0-.06-.25m0 0-.23-.12"/><g fill="#fff"><path stroke="#6a6a6a" stroke-linecap="round" stroke-linejoin="round" stroke-width=".25" d="M259.36 236.01h-27.61v-45.44h27.61z"/><path stroke="#6a6a6a" stroke-linecap="round" stroke-linejoin="round" stroke-width=".25" d="M231.75 190.57h27.61v45.44h-27.61z"/><path stroke="#6a6a6a" stroke-linecap="round" stroke-linejoin="round" stroke-width=".25" d="M256.78 234.09c-.28 0-.51-.23-.51-.51s.23-.51.51-.51.51.23.51.51-.23.51-.51.51ZM246.49 229.02l.75-.2m0 0 .65-.43m0 0 .48-.61m0 0 .27-.73m0 0 .02-.78m0 0-.22-.75m0 0-.45-.64m0 0-.63-.47m0 0-.74-.25m0 0h-.78m0 0-.74.25m0 0-.63.47m0 0-.45.64m0 0-.22.75m0 0 .02.78m0 0 .27.73m0 0 .48.61m0 0 .65.43m0 0 .75.2m0 0V232m0 0-.25-.06m0 0-.26-.02m0 0-.26.02m0 0-.25.06m0 0-.21.09m0 0-.16.12m0 0-.1.14m0 0-.04.15m0 0v.22m0 0v.06m.01 0 .03.15m0 0 .03.06m0 0 .1.14m0 0 .04.04m0 0 .15.11m0 0 .19.08m0 0 .11.03m0 0 .13.03m0 0v.37m.01 0v.43m0 0h-.93m0 0v.23m0 0h-1.55m0 0-.09.03m0 0-.04.08m0 0 .02.09m0 0 .07.06m0 0 .26.08m0 0 .39.17m0 0 .54.31m0 0 .39.14m0 0v.07m0 0h-.33m0 0v.53m0 0h1.39m0 0v-.47m0 0 .03-.02m0 0 .02-.02m0 0v-.02m.01 0 .15-.36m0 0h.38m0 0v.73m0 0h-.57m0 0v.16m0 0h1.63m0 0v-.16m0 0h-.57m0 0v-.73m0 0h.78m0 0v-.08m0 0h.22m0 0v.16m0 0h-.08m0 0v.29m0 0h-.33m0 0v.53m0 0h1.39m0 0v-.53m0 0h-.33m0 0v-.29m0 0h-.08m0 0v-.16m0 0h.08m0 0v-.81m0 0h-1.39m0 0v-1.16m0 0h-.04m0 0h-.05m0 0h-.07m0 0h-.08m0 0h-.02m0 0v-4.04M245.22 235.12h.11m0 0-.08.18m0 0-.18.03m0 0h0m0 0v-.13m0 0h-.08m0 0v-.16m0 0h.22m0 0v.08M244.42 235.03v.13m0 0-.37-.13m0 0-.53-.3m0 0h-.03m0-.01h.85m0 0v.32m0 0h.08M247.59 235.48v-.28M247.95 235.48v-.28M244.53 235.48h-.19M245 235.2h-.11M244.89 235.2h-.36M244.53 235.2h-.01M244.89 235.29v-.09M244.53 235.2h0M244.42 235.03h.58M245.7 234.22h.3M244.34 234.72v-.27M245.73 233.92h.27M242.83 234.46l-.04-.01M245.07 235.59h.03M244.98 235.58l.09.01M245.37 235.55l.02-.01M245.39 235.54h.01M244.34 235.42l.25.08M244.59 235.5l.39.08M245.05 235.32l.03.01M242.83 234.46l.28.09M243.11 234.55l.39.17M244.56 235.49h.01M245.1 235.59l.27-.04M246 233.11h0M246 233.4h-.01M245.22 234.82v.07M245.22 234.95v.06M245.22 234.89v.06M245.33 235.12h.29M244.66 235.25l.39.07M244.42 235.16l.24.09"/><path fill-rule="evenodd" d="M245.59 234.77h.06s-.03-.06-.06-.06-.06.03-.06.06.03.06.06.06.06-.03.06-.06h-.06Z"/><path stroke="#6a6a6a" stroke-linecap="round" stroke-linejoin="round" stroke-width=".25" d="m245.54 234.8.05-.02M245.49 234.81l.05-.01M245.43 234.8l.06.01M245.38 234.77l.05.03"/><path fill-rule="evenodd" d="M245.38 234.77h.06s-.03-.06-.06-.06-.06.03-.06.06.03.06.06.06.06-.03.06-.06h-.06Z"/><path stroke="#6a6a6a" stroke-linecap="round" stroke-linejoin="round" stroke-width=".25" d="m245.3 233.43.19.01M245.49 233.44l.18-.01M245.26 233.42l.04.01M245.85 233.39l.1-.03M245.67 233.43l.18-.04M245.29 234.68l-.01-.03M245.95 233.36l.05-.02M245.71 233.42l-.01.37M245.69 234.65v.03M245.69 234.68l-.02.04M245.67 234.72l-.02.02M245.65 234.74l-.03.02M245.62 234.76l-.03.01M245.59 234.77l-.01.01M245.58 234.78h-.03M245.55 234.78h-.13M245.42 234.78h-.03M245.39 234.78l-.01-.01M245.38 234.77l-.03-.01M245.35 234.76l-.03-.02M245.32 234.74l-.02-.02M245.3 234.72l-.01-.04M245.7 233.79l-.01.86M245.28 234.22v.43M245.22 234.38h.06M245.69 234.38h.31M246.49 229.02v-2.88M246 229.02v-2.88M246.49 226.14H246M248.14 235.48h-.74M248.06 235.2h-.57M248.06 235.03h-.57M247.26 235.03v-.65M245.22 234.38v.65M246.49 235.12v-2.06M246 232v3.12M247.26 234.38h-.77M246.75 234.22h-.26M246.75 233.92h-.26M245.73 234.22v-.8M246 227.57a1.02 1.02 0 0 1-.75-1.23c.14-.55.69-.88 1.24-.74s.88.69.75 1.23c-.09.37-.38.65-.75.74M247.26 234.43c.09-.05.2-.02.25.07.05.09.02.2-.07.25-.06.03-.13.03-.18 0"/></g><g fill="#fff" stroke="#6a6a6a" stroke-linecap="round" stroke-linejoin="round" stroke-width=".25"><path d="m213.79 373.2-.04 1.24-.89 8.42h-7.74l-.89-8.42-.04-1.24.15-1.23.34-1.2.52-1.13.7-.89.91-.68 1.05-.44 1.13-.15 1.13.15 1.05.44.91.68.7.89.52 1.13.34 1.2.15 1.23zM211.99 378.7h-3M208.99 378.7H206"/><path d="M208.99 367.69c.8 0 1.58.23 2.23.64M211.22 368.34c1.61 1.25 2.48 3.08 2.36 4.96M213.58 373.3c.05 1.9-.5 3.77-1.59 5.4M206 378.7c-1.09-1.64-1.65-3.51-1.59-5.4M204.41 373.3c-.12-1.88.75-3.71 2.36-4.96M206.77 368.34c.65-.41 1.42-.64 2.23-.64M222.55 226.36l-.04 1.24-.89 8.42h-7.74l-.89-8.42-.04-1.24.15-1.23.34-1.2.52-1.13.7-.89.91-.68 1.05-.44 1.13-.15 1.13.15 1.05.44.91.68.7.89.52 1.13.34 1.2.15 1.23zM220.74 231.86h-2.99M217.75 231.86h-2.99"/><path d="M217.75 220.85c.8 0 1.58.23 2.23.64M219.98 221.5c1.61 1.25 2.48 3.08 2.36 4.96M222.34 226.46c.05 1.9-.5 3.77-1.59 5.4M214.76 231.86c-1.09-1.64-1.65-3.51-1.59-5.4M213.17 226.46c-.12-1.88.75-3.71 2.36-4.96M215.53 221.5c.65-.41 1.42-.64 2.23-.64M211.68 332.52v9.4l-.12.27-.27.11h-15.38l-.27-.11-.11-.27v-9.4l.11-.27.27-.11h15.38l.27.11.12.27zM196.68 334.94h6.62m.61 0h6.62M210.91 335.32v5.84M210.53 341.54h-13.85M196.3 341.16v-5.84"/><path d="M210.91 335.32a.38.38 0 0 0-.38-.38M210.53 341.54c.21 0 .38-.17.38-.38M196.3 341.16c0 .21.17.38.38.38M196.68 334.94a.38.38 0 0 0-.38.38M203.3 336.54c-.12.09-.2.24-.2.41s.08.31.2.41v-.81Zm.61.81c.12-.09.2-.24.2-.41s-.08-.31-.2-.41v.81ZM203.91 332.5h-.61m0 0v5.21m0 0 .17.2m0 0h.27m0 0 .17-.2m0 0v-5.21M201.41 333.41v-1.09m0 0h.06m0 0v-.09m0 0h.19m0 0v-.09m0 0h-1.27m0 0v.09m0 0h.19m0 0v.09m0 0h.06m0 0v1.09m0 0h.22m0 0v.28m0 0h-.73m0 0v.33m0 0h1.78m0 0v-.33m0 0h-.72m0 0v-.28m0 0h.22M205.8 333.41v-1.09m0 0h-.06m0 0v-.09m0 0h-.19m0 0v-.09m0 0h1.27m0 0v.09m0 0h-.19m0 0v.09m0 0h-.06m0 0v1.09m0 0h-.22m0 0v.28m0 0h.72m0 0v.33m0 0h-1.78m0 0v-.33m0 0h.72m0 0v-.28m0 0h-.22M200.86 333.69l.05.05M201.19 333.69l-.05.05M200.86 333.41h.33M206.35 333.69l-.05.05M206.02 333.69l.05.05M206.35 333.41h-.33M201.03 333.69c-.09 0-.17.07-.17.17s.07.16.17.16.17-.07.17-.16-.07-.17-.17-.17ZM206.18 333.69c-.09 0-.16.07-.16.17s.07.16.16.16.17-.07.17-.16-.07-.17-.17-.17ZM225.83 190.95v9.4l-.12.27-.27.11h-15.38l-.27-.11-.11-.27v-9.4l.11-.27.27-.11h15.38l.27.11.12.27zM210.83 193.37h6.62m.61 0h6.62M225.06 193.75v5.84M224.68 199.97h-13.85M210.45 199.59v-5.84"/><path d="M225.06 193.75a.38.38 0 0 0-.38-.38M224.68 199.97c.21 0 .38-.17.38-.38M210.45 199.59c0 .21.17.38.38.38M210.83 193.37a.38.38 0 0 0-.38.38M217.45 194.97c-.12.09-.2.24-.2.41s.08.31.2.41v-.81Zm.61.81c.12-.09.2-.24.2-.41s-.08-.31-.2-.41v.81ZM218.06 190.93h-.61m0 0v5.21m0 0 .17.2m0 0h.27m0 0 .17-.2m0 0v-5.21M215.56 191.84v-1.09m0 0h.06m0 0v-.09m0 0h.19m0 0v-.09m0 0h-1.27m0 0v.09m0 0h.19m0 0v.09m0 0h.06m0 0v1.09m0 0h.22m0 0v.28m0 0h-.73m0 0v.33m0 0h1.78m0 0v-.33m0 0h-.72m0 0v-.28m0 0h.22M219.95 191.84v-1.09m0 0h-.06m0 0v-.09m0 0h-.19m0 0v-.09m0 0h1.27m0 0v.09m0 0h-.19m0 0v.09m0 0h-.06m0 0v1.09m0 0h-.22m0 0v.28m0 0h.72m0 0v.33m0 0h-1.78m0 0v-.33m0 0h.72m0 0v-.28m0 0h-.22M215.01 192.12l.05.05M215.34 192.12l-.05.05M215.01 191.84h.33M220.5 192.12l-.05.05M220.17 192.12l.05.05M220.5 191.84h-.33M215.17 192.12c-.09 0-.17.07-.17.17s.07.16.17.16.17-.07.17-.16-.07-.17-.17-.17ZM220.33 192.12c-.09 0-.16.07-.16.17s.07.16.16.16.17-.07.17-.16-.07-.17-.17-.17ZM227.81 332.52v9.4l-.11.27-.27.11h-15.37l-.27-.11-.11-.27v-9.4l.11-.27.27-.11h15.37l.27.11.11.27zM212.82 334.94h6.62m.61 0h6.62M227.05 335.32v5.84M226.67 341.54h-13.85M212.44 341.16v-5.84"/><path d="M227.05 335.32a.38.38 0 0 0-.38-.38M226.67 341.54c.21 0 .38-.17.38-.38M212.44 341.16c0 .21.17.38.38.38M212.82 334.94a.38.38 0 0 0-.38.38M219.44 336.54c-.12.09-.2.24-.2.41s.08.31.2.41v-.81Zm.61.81c.12-.09.2-.24.2-.41s-.08-.31-.2-.41v.81ZM220.05 332.5h-.61m0 0v5.21m0 0 .17.2m0 0h.27m0 0 .17-.2m0 0v-5.21M217.55 333.41v-1.09m0 0h.06m0 0v-.09m0 0h.19m0 0v-.09m0 0h-1.27m0 0v.09m0 0h.19m0 0v.09m0 0h.06m0 0v1.09m0 0h.22m0 0v.28m0 0h-.73m0 0v.33m0 0h1.78m0 0v-.33m0 0h-.72m0 0v-.28m0 0h.22M221.95 333.41v-1.09m0 0h-.06m0 0v-.09m0 0h-.19m0 0v-.09m0 0h1.27m0 0v.09m0 0h-.19m0 0v.09m0 0h-.06m0 0v1.09m0 0h-.22m0 0v.28m0 0h.72m0 0v.33m0 0h-1.78m0 0v-.33m0 0h.72m0 0v-.28m0 0h-.22M217 333.69l.05.05M217.33 333.69l-.05.05M217 333.41h.33M222.49 333.69l-.05.05M222.16 333.69l.05.05M222.49 333.41h-.33M217.17 333.69c-.09 0-.17.07-.17.17s.07.16.17.16.17-.07.17-.16-.07-.17-.17-.17ZM222.33 333.69c-.09 0-.16.07-.16.17s.07.16.16.16.17-.07.17-.16-.07-.17-.17-.17ZM237.56 381.18v-48.89h21.09v48.89m0 0h-21.09M256.97 375.48l-.06.71m0 0-.19.69m0 0-.31.64m0 0-.42.58m0 0-.52.5m0 0-.6.41m0 0-.67.3m0 0-.71.18m0 0-.73.06m0 0h-9.28m0 0-.73-.06m0 0-.71-.18m0 0-.67-.3m0 0-.6-.41m0 0-.52-.5m0 0-.42-.58m0 0-.31-.64m0 0-.19-.69m0 0-.06-.71m0 0v-33m0 0 .13-1.49m0 0 .4-1.44m0 0 .65-1.35m0 0 .89-1.22m0 0 1.09-1.06m0 0 1.26-.86m0 0 1.4-.63m0 0 1.49-.39m0 0 1.54-.13m0 0 1.54.13m0 0 1.49.39m0 0 1.4.63m0 0 1.27.86m0 0 1.09 1.06m0 0 .89 1.22m0 0 .65 1.35m0 0 .4 1.44m0 0 .13 1.49m0 0v33"/><path d="M248.11 375.14c-.41 0-.74-.31-.74-.7s.33-.7.74-.7.74.31.74.7-.33.7-.74.7Z"/></g><g fill="none" stroke="#6a6a6a" stroke-linecap="round" stroke-linejoin="round" stroke-width=".25"><path d="M189.33 280.4v14.1m0 0h69.61m0 0v-10.79m-13.12-3.31h-56.49M258.94 287.56v.45m0 0h-69.61m0 0v-.45m0 0h69.61M193.92 293.32v-11.03m0 0h.47m0 0v11.03m0 0h-.47M195.16 293.32v-11.03m0 0h.47m0 0v11.03m0 0h-.47M196.4 293.32v-11.03m0 0h.47m0 0v11.03m0 0h-.47M197.63 293.32v-11.03m0 0h.47m0 0v11.03m0 0h-.47M200.25 293.24l-1.38-10.95m0 0 .46-.05m0 0 1.38 10.95m0 0-.46.05"/></g><g fill="none" stroke="#6a6a6a" stroke-linecap="round" stroke-linejoin="round" stroke-width=".25"><path d="M242.16 253.59c0 2.81-2.33 5.08-5.2 5.08s-5.2-2.27-5.2-5.08 2.33-5.08 5.2-5.08 5.2 2.27 5.2 5.08ZM241.31 253.22l-.89.32m0 0h-.95m0 0-.89-.32m0 0-1.07.24m0 0h-1.1m0 0-1.07-.24m0 0-.9.32m0 0h-.95m0 0-.89-.32m0 0 1.62 2.11m0 0h5.48m0 0 1.62-2.11M239.69 255.52h-5.48m0 0v-.18m0 0h5.48m0 0v.18M239.69 255.89h-5.48m0 0v-.19m0 0h5.48m0 0v.19M236.34 252.15l.65-.06m0 0 .02.16m0 0-.35.03m0 0 1 .81m0 0-.09.11m0 0-.46-.37m0 0-.05.06m0 0 .54.43m0 0-.09.1m0 0-.54-.43m0 0-.06.07m0 0 .44.35m0 0-.08.09m0 0-.44-.35m0 0-.06.07m0 0 .3.24m0 0-.08.1m0 0-1.03-.83M245.17 245.57h-16.44m0 0v16.04m0 0h16.44m0 0v-16.04M245.17 261.61h-16.44m0 0v15.96m0 0h16.44m0 0v-15.96"/></g><path fill="none" stroke="#6a6a6a" stroke-dasharray="0 0 3 3" stroke-linecap="round" stroke-linejoin="round" stroke-width=".25" d="M200.42 188.1V27.21"/></g><g id="Walls_Inside" fill="#2d2d2c"><path d="M259.42 108.87h7.25v160.87h-7.25zM109.76 399.69v-8.47h150.02v8.47z"/><path d="M248.67 381.56h2.83v18.12h-2.83zM189.51 373.46h2.83v24.49h-2.83zM189.51 329.96h2.83v22.87h-2.83z"/><path d="M248.68 382.34v-2.83h17.21v2.83zM106.92 332.29h2.83v62.42h-2.83zM148.39 332.29v-2.83h115.94v2.83zM189.51 384.52v-1.98h60.58v1.98zM191.3 238v-1.98h70.19V238zM245.17 284.28v-2.83h14.9v2.83z"/><path d="M245.17 243.54H248v40.17h-2.83zM189.33 272.58h2.83v7.82h-2.83zM189.33 222.62h2.83v25.44h-2.83zM189.33 187.73h2.83v14.41h-2.83zM242.49 145.38v-2.83h16.93v2.83zM242.49 132.78v-2.83h16.93v2.83z"/><path d="M242.5 129.94h2.83v15.4h-2.83zM106.67 190.57v-2.83h44.56v2.83zM189.34 190.57v-2.83h73.09v2.83zM189.83 245.57v-2.83h72.82v2.83zM189.33 280.4v-2.83h56.84v2.83zM27.27 288.95v-2.83h121.99v2.83z"/><path d="M148.4 187.73h2.83v27.77h-2.83zM148.4 238.46h2.83v59.45h-2.83zM148.4 320.86h2.83v11.43h-2.83zM258.66 244.56h2.83v26.06h-2.83z"/></g><g id="Walls_Outside"><path fill="none" stroke="#000" stroke-linecap="round" stroke-linejoin="round" stroke-width=".22" d="m21.33 161.96 10.73-2.48M16.09 163.16l3.93-.9M20.02 162.26l1.31-.3M11.8 120.68l10.73-2.48M6.56 121.89l3.93-.91M10.49 120.98l1.31-.3"/><path fill="none" stroke="#000" stroke-linecap="round" stroke-linejoin="round" stroke-width=".25" d="m6.56 121.89 9.53 41.27M22.53 118.2l9.53 41.28M11.8 120.68l.54 2.36M12.34 123.04l-1.31.3M11.03 123.34l-.54-2.36M15.93 144.57l-.27-1.18M15.66 143.39l1.31-.3M16.97 143.09l.27 1.17M11.69 123.19l4.63 20.05M12.34 123.04l4.63 20.05M15.66 143.39l-4.63-20.05M17.24 144.26l.14.59M17.38 144.85l-.66.16M16.72 145.01l.14.59M16.86 145.6l-.65.15M16.21 145.75l-.28-1.18M20.02 162.26l-.55-2.36M19.47 159.9l.66-.15M20.13 159.75l.13.59M20.26 160.34l.66-.15M20.92 160.19l.41 1.77M19.47 159.9l-3.26-14.15M18.44 146.47l2.72 11.8M18.03 144.7l.41 1.77M18.44 146.47l-1.31.3M17.13 146.77l-.41-1.76M16.72 145.01l1.31-.31M20.26 160.34l-.4-1.77M19.86 158.57l1.3-.3M21.16 158.27l.41 1.77M21.57 160.04l-1.31.3M19.86 158.57l-2.73-11.8M18.44 146.47l2.72 11.8M17.79 146.62l2.72 11.8"/><path fill="none" stroke="#000" stroke-linecap="round" stroke-linejoin="round" stroke-width=".22" d="m10.49 120.98 1.31-.3M10.49 120.98l1.31-.3M6.56 121.89l3.93-.91M11.8 120.68l10.73-2.48M20.02 162.26l1.31-.3M20.02 162.26l1.31-.3M16.09 163.16l3.93-.9M21.33 161.96l10.73-2.48M6.56 121.89l15.97-3.69"/><path fill="#2d2d2c" fill-rule="evenodd" d="m32.48 161.3.29 1.25-15.97 3.69-.71-3.08 15.97-3.68.29 1.25.13.57z"/><path fill="#2d2d2c" d="m.12 94.013 15.97-3.687 6.436 27.877-15.97 3.687z"/><path fill="none" stroke="#000" stroke-linecap="round" stroke-linejoin="round" stroke-width=".22" d="m182.88 11.89-2.48 10.73M184.09 6.66l-.91 3.92M183.18 10.58l-.3 1.31M235.48 24.04 233 34.77M236.69 18.8l-.91 3.93M235.78 22.73l-.3 1.31"/><path fill="none" stroke="#000" stroke-linecap="round" stroke-linejoin="round" stroke-width=".25" d="m236.69 18.8-52.6-12.14M233 34.77l-52.6-12.15M235.48 24.04l-3-.7M232.48 23.34l.3-1.31M232.78 22.03l3 .7M205.73 15.79l1.5.35M207.23 16.14l-.3 1.3M206.93 17.44l-1.51-.34M232.63 22.69l-25.55-5.9M232.48 23.34l-25.55-5.9M207.23 16.14l25.55 5.89M205.42 17.1l-.75-.18M204.67 16.92l.15-.65M204.82 16.27l-.75-.17M204.07 16.1l.15-.66M204.22 15.44l1.51.35M183.18 10.58l2.36.55M185.54 11.13l-.15.65M185.39 11.78l-.59-.13M184.8 11.65l-.15.65M184.65 12.3l-1.77-.41M185.54 11.13l18.68 4.31M202.27 17.06l-15.03-3.47M204.52 17.58l-2.25-.52M202.27 17.06l.3-1.31M202.57 15.75l2.25.52M204.82 16.27l-.3 1.31M184.8 11.65l1.77.4M186.57 12.05l-.3 1.31M186.27 13.36l-1.77-.41M184.5 12.95l.3-1.3M186.57 12.05l16 3.7M202.27 17.06l-16-3.7M202.42 16.4l-16-3.69"/><path fill="none" stroke="#000" stroke-linecap="round" stroke-linejoin="round" stroke-width=".22" d="m235.78 22.73-.3 1.31M235.78 22.73l-.3 1.31M236.69 18.8l-.91 3.93M235.48 24.04 233 34.77M183.18 10.58l-.3 1.31M183.18 10.58l-.3 1.31M184.09 6.66l-.91 3.92M182.88 11.89l-2.48 10.73M236.69 18.8 233 34.77"/><path fill="#2d2d2c" fill-rule="evenodd" d="m163.62 18.75-11.51-2.66L155.8.13l28.29 6.53-3.69 15.96-11.5-2.65-5.28-1.22z"/><path fill="#2d2d2c" d="m232.993 34.771 3.687-15.97 30.439 7.028-3.687 15.97z"/><path fill="none" stroke="#000" stroke-linecap="round" stroke-linejoin="round" stroke-width=".22" d="M77.44 5.5v11.01M77.44.13v4.02M77.44 4.16V5.5M131.42 5.5v11.01M131.42.13v4.02M131.42 4.16V5.5"/><path fill="none" stroke="#000" stroke-linecap="round" stroke-linejoin="round" stroke-width=".25" d="M131.42.13 77.44.12M131.42 16.51H77.44M131.42 5.5h-3.08M128.34 5.5V4.16M128.34 4.16h3.08M100.58 4.16h1.54M102.12 4.16V5.5M102.12 5.5h-1.54M128.34 4.83h-26.22M128.34 5.5h-26.22M102.12 4.16h26.22M100.58 5.5h-.78M99.8 5.5v-.67M99.8 4.83h-.77M99.03 4.83v-.67M99.03 4.16h1.55M77.44 4.16h2.42M79.86 4.16v.67M79.86 4.83h-.61M79.25 4.83v.67M79.25 5.5h-1.81M79.86 4.16h19.17M97.49 6.17H82.07M99.8 6.17h-2.31M97.49 6.17V4.83M97.49 4.83h2.31M99.8 4.83v1.34M79.25 4.83h1.82M81.07 4.83v1.34M81.07 6.17h-1.82M79.25 6.17V4.83M81.07 4.83h16.42M97.49 6.17H81.07M97.49 5.5H81.07"/><path fill="none" stroke="#000" stroke-linecap="round" stroke-linejoin="round" stroke-width=".22" d="M131.42 4.16V5.5M131.42 4.16V5.5M131.42.13v4.02M131.42 5.5v11.01M77.44 4.16V5.5M77.44 4.16V5.5M77.44.13v4.02M77.44 5.5v11.01M131.42.13v16.38"/><path fill="#2d2d2c" fill-rule="evenodd" d="M60.57 16.51H49.01V.12h28.43v16.39H60.57z"/><path fill="#2d2d2c" d="M131.42.12h24.38v16.39h-24.38z"/><path fill="none" stroke="#000" stroke-linecap="round" stroke-linejoin="round" stroke-width=".22" d="M5.5 63.6h11.01M.13 63.6h4.02M4.16 63.6H5.5M5.5 26.05h11.01M.12 26.05h4.03M4.16 26.05H5.5"/><path fill="none" stroke="#000" stroke-linecap="round" stroke-linejoin="round" stroke-width=".25" d="M.12 26.05.13 63.6M16.51 26.05V63.6M5.5 26.05v2.42M5.5 28.47H4.16M4.16 28.47v-2.42M4.16 45.44v-1.21M4.16 44.23H5.5M5.5 44.23v1.21M4.83 28.47v15.76M5.5 28.47v15.76M4.16 44.23V28.47M5.5 45.44v.61M5.5 46.05h-.67M4.83 46.05v.6M4.83 46.65h-.67M4.16 46.65v-1.21M4.16 63.6v-2.42M4.16 61.18h.67M4.83 61.18v.6M4.83 61.78h.67M5.5 61.78v1.82M4.16 61.18V46.65M6.17 47.86v12.11M6.17 46.05v1.81M6.17 47.86H4.83M4.83 47.86v-1.81M4.83 46.05h1.34M4.83 61.78v-1.81M4.83 59.97h1.34M6.17 59.97v1.81M6.17 61.78H4.83M4.83 59.97V47.86M6.17 47.86v12.11M5.5 47.86v12.11"/><path fill="none" stroke="#000" stroke-linecap="round" stroke-linejoin="round" stroke-width=".22" d="M4.16 26.05H5.5M4.16 26.05H5.5M.12 26.05h4.03M5.5 26.05h11.01M4.16 63.6H5.5M4.16 63.6H5.5M.13 63.6h4.02M5.5 63.6h11.01M.12 26.05h16.39"/><path fill="#2d2d2c" fill-rule="evenodd" d="M16.51 81.64v12.37H.12V63.6h16.39v18.04z"/><path fill="#2d2d2c" d="M.12.12h16.39v25.93H.12z"/><path fill="none" stroke="#000" stroke-linecap="round" stroke-linejoin="round" stroke-width=".22" d="m21.4 253.96 10.81-2.1M16.13 254.99l3.95-.77M20.08 254.22l1.32-.26M11.52 203.12l10.81-2.1M6.24 204.14l3.96-.77M10.2 203.37l1.32-.25"/><path fill="none" stroke="#000" stroke-linecap="round" stroke-linejoin="round" stroke-width=".25" d="m6.24 204.14 9.89 50.85M22.33 201.02l9.88 50.84M11.52 203.12l.46 2.37M11.98 205.49l-1.32.26M10.66 205.75l-.46-2.38M14.82 227.14l-.23-1.19M14.59 225.95l1.32-.26M15.91 225.69l.23 1.19M11.32 205.62l3.93 20.2M11.98 205.49l3.93 20.2M14.59 225.95l-3.93-20.2M16.14 226.88l.11.6M16.25 227.48l-.66.12M15.59 227.6l.12.6M15.71 228.2l-.66.13M15.05 228.33l-.23-1.19M20.08 254.22l-.56-2.91M19.52 251.31l.66-.13M20.18 251.18l.14.73M20.32 251.91l.66-.13M20.98 251.78l.42 2.18M19.52 251.31l-4.47-22.98M18.39 234.95l2.82 14.52M16.91 227.35l.35 1.78M17.26 229.13l-1.32.26M15.94 229.39l-.35-1.79M15.59 227.6l1.32-.25M20.32 251.91l-.43-2.18M19.89 249.73l1.32-.26M21.21 249.47l.43 2.18M21.64 251.65l-1.32.26M19.89 249.73l-3.95-20.34M17.26 229.13l3.95 20.34M16.57 229.26l3.98 20.34"/><path fill="none" stroke="#000" stroke-linecap="round" stroke-linejoin="round" stroke-width=".22" d="m10.2 203.37 1.32-.25M10.2 203.37l1.32-.25M6.24 204.14l3.96-.77M11.52 203.12l10.81-2.1M20.08 254.22l1.32-.26M20.08 254.22l1.32-.26M16.13 254.99l3.95-.77M21.4 253.96l10.81-2.1M6.24 204.14l16.09-3.12"/><path fill="#2d2d2c" fill-rule="evenodd" d="m32.54 253.55.23 1.15-16.09 3.13-.55-2.84 16.08-3.13.23 1.16.1.53z"/><path fill="#2d2d2c" d="m4.797 196.672 16.089-3.127 1.452 7.47-16.09 3.127z"/><path fill="none" stroke="#000" stroke-linecap="round" stroke-linejoin="round" stroke-width=".22" d="m21.42 364.64 10.9-1.54M16.1 365.38l3.99-.56M20.09 364.82l1.33-.18M12.81 303.76l10.91-1.53M7.49 304.51l3.99-.56M11.48 303.95l1.33-.19"/><path fill="none" stroke="#000" stroke-linecap="round" stroke-linejoin="round" stroke-width=".25" d="m7.49 304.51 8.61 60.87M23.72 302.23l8.6 60.87M12.81 303.76l.34 2.4M13.15 306.16l-1.33.19M11.82 306.35l-.34-2.4M14.85 327.92l-.17-1.2M14.68 326.72l1.33-.18M16.01 326.54l.17 1.19M12.48 306.25l2.87 20.38M13.15 306.16l2.86 20.38M14.68 326.72l-2.86-20.37M16.18 327.73l.08.6M16.26 328.33l-.66.1M15.6 328.43l.08.6M15.68 329.03l-.66.09M15.02 329.12l-.17-1.2M20.09 364.82l-.42-2.93M19.67 361.89l.67-.09M20.34 361.8l.1.73M20.44 362.53l.67-.09M21.11 362.44l.31 2.2M19.67 361.89l-4.65-32.77M18.01 335.91l3.45 24.24M16.93 328.24l.25 1.8M17.18 330.04l-1.33.19M15.85 330.23l-.25-1.8M15.6 328.43l1.33-.19M20.44 362.53l-.31-2.2M20.13 360.33l1.33-.18M21.46 360.15l.31 2.2M21.77 362.35l-1.33.18M20.13 360.33l-4.28-30.1M17.18 330.04l4.28 30.11M16.49 330.13l4.31 30.11"/><path fill="none" stroke="#000" stroke-linecap="round" stroke-linejoin="round" stroke-width=".22" d="m11.48 303.95 1.33-.19M11.48 303.95l1.33-.19M7.49 304.51l3.99-.56M12.81 303.76l10.91-1.53M20.09 364.82l1.33-.18M20.09 364.82l1.33-.18M16.1 365.38l3.99-.56M21.42 364.64l10.9-1.54M7.49 304.51l16.23-2.28"/><path fill="#2d2d2c" fill-rule="evenodd" d="m32.59 364.98.18 1.28-16.23 2.28-.45-3.16 16.23-2.28.18 1.29.09.59z"/><path fill="#2d2d2c" d="m4.787 285.312 16.23-2.281 2.698 19.191-16.23 2.281zM.12.12h57.79v16.39H.12z"/><path fill="#2d2d2c" fill-rule="evenodd" d="M16.06 399.69h16.69l.02-33.43-16.67-.88-.04 34.31zM16.06 288.95h16.69l.02-34.25-16.67.29-.04 33.96zM16.06 196.2h16.69l.02-33.65-16.67.61-.04 33.04z"/><path fill="#2d2d2c" d="M4.79 382.17h16.39v17.51H4.79zM4.79 270.02h16.39v15.3H4.79zM4.79 177.35h16.39v19.32H4.79zM259.42 34.62h7.25v74.25h-7.25zM25.86 399.69v-8.47h83.9v8.47zM258.66 328.54h8.47v71.15h-8.47z"/><path fill="#2d2d2c" d="M258.66 25.83h8.47v272.08h-8.47zM25.86 196.21v-8.47h83.92v8.47z"/></g><g id="Doors"><path fill="none" stroke="#000" stroke-linecap="round" stroke-linejoin="round" stroke-width=".29" d="M276.65 300.38c-4.76-1.75-7.2-2.22-12.27-2.48"/><path fill="#2d2d2c" fill-rule="evenodd" d="m277.42 300.42-1.36-.58-12.48 28.26v.44h1.47l12.37-28.12z"/><path fill="none" stroke="#000" stroke-linecap="round" stroke-linejoin="round" stroke-width=".29" d="M198.78 220.97c-3.18 1.17-4.81 1.49-8.21 1.66"/><path fill="#2d2d2c" fill-rule="evenodd" d="m199.3 220.94-.91.39-8.34-18.9v-.29h.98l8.27 18.8z"/><path fill="none" stroke="#000" stroke-linecap="round" stroke-linejoin="round" stroke-width=".29" d="M140.48 236.6c3.57 1.31 5.4 1.67 9.2 1.86"/><path fill="#2d2d2c" fill-rule="evenodd" d="m139.9 236.57 1.02.43 9.36-21.17v-.33h-1.11l-9.27 21.07z"/><path fill="none" stroke="#000" stroke-linecap="round" stroke-linejoin="round" stroke-width=".29" d="M140.48 319c3.57 1.31 5.4 1.67 9.2 1.86"/><path fill="#2d2d2c" fill-rule="evenodd" d="m139.9 318.98 1.02.43 9.36-21.18v-.33h-1.11l-9.27 21.08z"/><path fill="none" stroke="#000" stroke-linecap="round" stroke-linejoin="round" stroke-width=".29" d="M200.26 270.6c-3.79 1.39-5.74 1.77-9.79 1.98"/><path fill="#2d2d2c" fill-rule="evenodd" d="m200.87 270.57-1.08.46-9.96-22.53v-.35h1.18l9.86 22.42z"/><path fill="none" stroke="#000" stroke-linecap="round" stroke-linejoin="round" stroke-width=".29" d="M182.45 354.49c3.2-1.18 4.85-1.5 8.27-1.67"/><path fill="#2d2d2c" fill-rule="evenodd" d="m181.93 354.52.91-.39 8.41 19.04v.29h-.99l-8.33-18.94z"/></g><g id="Sizes"><path d="m206.81 309.71 2.14-4.63h.92l-2.09 4.57h3.13v.83h-4.11v-.78Zm2.76-2h.87v3.76h-.87v-3.76ZM211.93 310.57h.9v.9l-.9.89v-1.78ZM213.96 310.69l2.23-2.97c.13-.17.23-.35.3-.53.07-.18.11-.35.11-.51 0-.26-.07-.46-.22-.6s-.36-.21-.64-.21c-.26 0-.47.08-.63.23-.16.15-.26.37-.29.65s-.93 0-.93 0c.05-.37.16-.68.32-.94.16-.26.37-.46.63-.59.26-.14.56-.2.89-.2.38 0 .71.07.98.2s.47.32.62.57.21.55.21.9c0 .23-.05.47-.14.71s-.22.48-.39.71l-1.85 2.51h2.42v.85h-3.6v-.78ZM218.62 309.71l2.14-4.63h.92l-2.09 4.57h3.13v.83h-4.11v-.78Zm2.76-2h.87v3.76h-.87v-3.76ZM208.11 262.97l2.23-2.97c.13-.17.23-.35.3-.53.07-.18.11-.35.11-.51 0-.26-.07-.46-.22-.6s-.36-.21-.64-.21c-.26 0-.47.08-.63.23-.16.15-.26.37-.29.65s-.93 0-.93 0c.05-.37.16-.68.32-.94.16-.26.37-.46.63-.59.26-.14.56-.2.89-.2.38 0 .71.07.98.2s.47.32.62.57.21.55.21.9c0 .23-.05.47-.14.71s-.22.48-.39.71l-1.85 2.51h2.42v.85h-3.6v-.78ZM212.77 262.86h.9v.9l-.9.89v-1.78ZM216.44 263.75h-.9v-5.41l-.91.56v-.93l.91-.61h.9v6.39ZM218.58 263.59c-.27-.15-.47-.37-.61-.66-.14-.29-.21-.64-.21-1.04a3.99 3.99 0 0 1 .32-1.52c.02-.04.04-.09.06-.13l.06-.12 1.39-2.75h.97l-1.63 3.19v-.16c.08-.14.18-.24.33-.32s.3-.11.49-.11c.33 0 .62.07.85.22s.42.37.54.65c.12.29.18.63.18 1.03 0 .41-.07.77-.21 1.06-.14.29-.34.52-.61.67-.27.15-.59.23-.96.23s-.7-.08-.96-.23Zm1.62-.9c.15-.18.23-.43.23-.75 0-.36-.08-.64-.24-.83-.16-.19-.39-.29-.69-.29-.27 0-.47.1-.62.29s-.22.47-.22.83c0 .33.08.58.23.75.15.17.37.26.65.26s.5-.09.66-.26ZM206.68 213.89l2.14-4.63h.92l-2.09 4.57h3.13v.83h-4.11v-.78Zm2.76-2h.87v3.76h-.87v-3.76ZM211.8 214.75h.9v.9l-.9.89v-1.78ZM214.86 215.52a1.61 1.61 0 0 1-.61-.55c-.16-.24-.26-.53-.31-.87s.9 0 .9 0c.03.24.13.42.28.55.16.13.36.2.61.2.29 0 .51-.1.67-.29.16-.19.23-.46.23-.81v-.54c0-.35-.08-.61-.23-.81-.16-.19-.38-.29-.67-.29-.16 0-.3.04-.45.13s-.27.21-.38.37h-.82v-3.37h3.26v.85h-2.36v1.44c.11-.09.24-.16.37-.21s.28-.07.42-.07c.37 0 .68.08.95.23s.46.38.6.67c.14.29.2.65.2 1.06v.54c0 .41-.07.77-.21 1.06s-.35.52-.62.67c-.27.15-.59.23-.97.23-.32 0-.61-.06-.86-.19ZM218.74 213.89l2.14-4.63h.92l-2.09 4.57h3.13v.83h-4.11v-.78Zm2.76-2h.87v3.76h-.87v-3.76ZM161.91 236.28c-.27-.15-.47-.37-.61-.66-.14-.29-.21-.64-.21-1.04a3.99 3.99 0 0 1 .32-1.52c.02-.04.04-.09.06-.13l.06-.12 1.39-2.75h.97l-1.63 3.19v-.16c.08-.14.18-.24.33-.32s.3-.11.49-.11c.33 0 .62.07.85.22s.42.37.54.65c.12.29.18.63.18 1.03 0 .41-.07.77-.21 1.06-.14.29-.34.52-.61.67-.27.15-.59.23-.96.23s-.7-.08-.96-.23Zm1.62-.9c.15-.18.23-.43.23-.75 0-.36-.08-.64-.24-.83-.16-.19-.39-.29-.69-.29-.27 0-.47.1-.62.29s-.22.47-.22.83c0 .33.08.58.23.75.15.17.37.26.65.26s.5-.09.66-.26ZM165.75 235.54h.9v.9l-.9.89v-1.78ZM171.18 230.85l-1.65 5.59h-.95l1.65-5.54h-1.63v.92h-.9v-1.77h3.48v.8ZM173.12 236.31c-.27-.13-.49-.32-.66-.57a1.97 1.97 0 0 1-.31-.89h.91c.03.18.08.33.17.45s.2.2.34.26.3.09.49.09c.3 0 .53-.08.69-.24s.25-.38.25-.67v-.19c0-.32-.08-.57-.23-.74-.16-.17-.38-.26-.66-.26h-.45v-.85h.45c.25 0 .44-.07.58-.22s.21-.36.21-.63v-.2c0-.25-.07-.45-.22-.58-.15-.14-.35-.21-.62-.21-.15 0-.29.03-.41.09s-.22.15-.31.26c-.08.12-.14.27-.18.45h-.91c.06-.35.17-.65.33-.9s.37-.44.62-.57.53-.19.86-.19c.55 0 .98.15 1.28.44s.45.7.45 1.23v.11c0 .32-.09.6-.26.83s-.42.41-.73.52c.35.08.62.25.81.51.19.27.29.61.29 1.02v.11c0 .37-.07.69-.22.95s-.35.46-.63.6c-.27.14-.6.21-.99.21-.36 0-.67-.07-.94-.2ZM89.22 94.78c-.27-.13-.49-.32-.66-.57a1.97 1.97 0 0 1-.31-.89h.91c.03.18.08.33.17.45s.2.2.34.26.3.09.49.09c.3 0 .53-.08.69-.24s.25-.38.25-.67v-.19c0-.32-.08-.57-.23-.74-.16-.17-.38-.26-.66-.26h-.45v-.85h.45c.25 0 .44-.07.58-.22s.21-.36.21-.63v-.2c0-.25-.07-.45-.22-.58-.15-.14-.35-.21-.62-.21-.15 0-.29.03-.41.09s-.22.15-.31.26c-.08.12-.14.27-.18.45h-.91c.06-.35.17-.65.33-.9s.37-.44.62-.57.53-.19.86-.19c.55 0 .98.15 1.28.44s.45.7.45 1.23v.11c0 .32-.09.6-.26.83s-.42.41-.73.52c.35.08.62.25.81.51.19.27.29.61.29 1.02v.11c0 .37-.07.69-.22.95s-.35.46-.63.6c-.27.14-.6.21-.99.21-.36 0-.67-.07-.94-.2ZM94.12 94.76c-.29-.15-.52-.35-.68-.62a1.79 1.79 0 0 1-.24-.93v-.11c0-.32.08-.62.24-.9.16-.28.37-.49.64-.64-.23-.12-.41-.3-.54-.53-.14-.23-.2-.48-.2-.74v-.15c0-.33.07-.63.22-.88s.36-.45.63-.59c.27-.14.59-.21.95-.21s.68.07.95.21c.27.14.48.34.63.59.15.25.22.55.22.88v.15c0 .26-.07.51-.21.74a1.4 1.4 0 0 1-.55.53c.27.15.49.36.65.64.16.28.24.58.24.9v.11c0 .35-.08.67-.24.93-.16.27-.39.48-.68.62s-.63.22-1.02.22-.73-.07-1.02-.22Zm1.57-.76c.16-.08.28-.2.37-.35.09-.15.13-.32.13-.51v-.06c0-.2-.04-.37-.13-.52-.09-.15-.21-.26-.37-.34s-.34-.12-.55-.12-.39.04-.55.12-.28.2-.37.35a.98.98 0 0 0-.13.52v.07c0 .19.04.36.13.51.09.15.21.26.37.34s.34.12.55.12.39-.04.55-.12Zm-.07-2.88c.14-.08.24-.19.32-.33s.11-.31.11-.5v-.06c0-.18-.04-.34-.11-.47s-.18-.24-.32-.32c-.14-.07-.3-.11-.47-.11s-.34.04-.47.11c-.14.08-.24.18-.32.32s-.11.3-.11.48v.07c0 .18.04.35.11.49.08.14.18.25.32.33s.3.12.47.12.34-.04.47-.12ZM98.25 94.02h.9v.9l-.9.89v-1.78ZM100.28 94.14l2.23-2.97c.13-.17.23-.35.3-.53.07-.18.11-.35.11-.51 0-.26-.07-.46-.22-.6s-.36-.21-.64-.21c-.26 0-.47.08-.63.23-.16.15-.26.37-.29.65s-.93 0-.93 0c.05-.37.16-.68.32-.94.16-.26.37-.46.63-.59.26-.14.56-.2.89-.2.38 0 .71.07.98.2s.47.32.62.57.21.55.21.9c0 .23-.05.47-.14.71s-.22.48-.39.71l-1.85 2.51h2.42v.85h-3.6v-.78ZM105.71 94.75c-.27-.15-.47-.37-.61-.66-.14-.29-.21-.64-.21-1.04a3.99 3.99 0 0 1 .32-1.52c.02-.04.04-.09.06-.13l.06-.12 1.39-2.75h.97l-1.63 3.19v-.16c.08-.14.18-.24.33-.32s.3-.11.49-.11c.33 0 .62.07.85.22s.42.37.54.65c.12.29.18.63.18 1.03 0 .41-.07.77-.21 1.06-.14.29-.34.52-.61.67-.27.15-.59.23-.96.23s-.7-.08-.96-.23Zm1.62-.9c.15-.18.23-.43.23-.75 0-.36-.08-.64-.24-.83-.16-.19-.39-.29-.69-.29-.27 0-.47.1-.62.29s-.22.47-.22.83c0 .33.08.58.23.75.15.17.37.26.65.26s.5-.09.66-.26ZM71.48 236.44h-.9v-5.41l-.91.56v-.93l.91-.61h.9v6.39ZM73.63 236.31c-.27-.13-.49-.32-.66-.57a1.97 1.97 0 0 1-.31-.89h.91c.03.18.08.33.17.45s.2.2.34.26.3.09.49.09c.3 0 .53-.08.69-.24s.25-.38.25-.67v-.19c0-.32-.08-.57-.23-.74-.16-.17-.38-.26-.66-.26h-.45v-.85h.45c.25 0 .44-.07.58-.22s.21-.36.21-.63v-.2c0-.25-.07-.45-.22-.58-.15-.14-.35-.21-.62-.21-.15 0-.29.03-.41.09s-.22.15-.31.26c-.08.12-.14.27-.18.45h-.91c.06-.35.17-.65.33-.9s.37-.44.62-.57.53-.19.86-.19c.55 0 .98.15 1.28.44s.45.7.45 1.23v.11c0 .32-.09.6-.26.83s-.42.41-.73.52c.35.08.62.25.81.51.19.27.29.61.29 1.02v.11c0 .37-.07.69-.22.95s-.35.46-.63.6c-.27.14-.6.21-.99.21-.36 0-.67-.07-.94-.2ZM77.6 235.54h.9v.9l-.9.89v-1.78ZM83.03 230.85l-1.65 5.59h-.95l1.65-5.54h-1.63v.92h-.9v-1.77h3.48v.8ZM84.16 235.66l2.23-2.97c.13-.17.23-.35.3-.53.07-.18.11-.35.11-.51 0-.26-.07-.46-.22-.6s-.36-.21-.64-.21c-.26 0-.47.08-.63.23-.16.15-.26.37-.29.65s-.93 0-.93 0c.05-.37.16-.68.32-.94.16-.26.37-.46.63-.59.26-.14.56-.2.89-.2.38 0 .71.07.98.2s.47.32.62.57.21.55.21.9c0 .23-.05.47-.14.71s-.22.48-.39.71l-1.85 2.51h2.42v.85h-3.6v-.78ZM71.43 322.54h-.9v-5.41l-.91.56v-.93l.91-.61h.9v6.39ZM72.79 321.77l2.23-2.97c.13-.17.23-.35.3-.53.07-.18.11-.35.11-.51 0-.26-.07-.46-.22-.6s-.36-.21-.64-.21c-.26 0-.47.08-.63.23-.16.15-.26.37-.29.65s-.93 0-.93 0c.05-.37.16-.68.32-.94.16-.26.37-.46.63-.59.26-.14.56-.2.89-.2.38 0 .71.07.98.2s.47.32.62.57.21.55.21.9c0 .23-.05.47-.14.71s-.22.48-.39.71l-1.85 2.51h2.42v.85h-3.6v-.78ZM77.44 321.65h.9v.9l-.9.89v-1.78ZM81.83 319.37v.16c-.08.13-.19.23-.34.3s-.32.09-.52.09c-.3 0-.57-.08-.8-.23s-.41-.37-.54-.66c-.13-.28-.19-.61-.19-.98 0-.42.07-.77.21-1.06.14-.29.34-.52.61-.67.27-.15.59-.23.96-.23s.7.08.96.23.47.38.61.68c.14.3.21.65.21 1.07 0 .23-.03.48-.09.74s-.14.52-.25.77c-.02.04-.04.08-.05.12l-.06.12-1.36 2.74h-.97l1.61-3.17Zm.04-.55c.15-.19.23-.46.23-.8s-.08-.6-.23-.79c-.15-.18-.37-.28-.65-.28s-.5.09-.66.28c-.15.18-.23.45-.23.79 0 .35.08.62.23.81.15.19.37.28.66.28s.5-.1.65-.29ZM84.9 322.41c-.27-.13-.49-.32-.66-.57a1.97 1.97 0 0 1-.31-.89h.91c.03.18.08.33.17.45s.2.2.34.26.3.09.49.09c.3 0 .53-.08.69-.24s.25-.38.25-.67v-.19c0-.32-.08-.57-.23-.74-.16-.17-.38-.26-.66-.26h-.45v-.85h.45c.25 0 .44-.07.58-.22s.21-.36.21-.63v-.2c0-.25-.07-.45-.22-.58-.15-.14-.35-.21-.62-.21-.15 0-.29.03-.41.09s-.22.15-.31.26c-.08.12-.14.27-.18.45h-.91c.06-.35.17-.65.33-.9s.37-.44.62-.57.53-.19.86-.19c.55 0 .98.15 1.28.44s.45.7.45 1.23v.11c0 .32-.09.6-.26.83s-.42.41-.73.52c.35.08.62.25.81.51.19.27.29.61.29 1.02v.11c0 .37-.07.69-.22.95s-.35.46-.63.6c-.27.14-.6.21-.99.21-.36 0-.67-.07-.94-.2ZM206.71 360l2.14-4.63h.92l-2.09 4.57h3.13v.83h-4.11v-.78Zm2.76-2h.87v3.76h-.87V358ZM211.83 360.86h.9v.9l-.9.89v-1.78ZM214.81 361.6c-.29-.15-.52-.35-.68-.62a1.79 1.79 0 0 1-.24-.93v-.11c0-.32.08-.62.24-.9.16-.28.37-.49.64-.64-.23-.12-.41-.3-.54-.53-.14-.23-.2-.48-.2-.74v-.15c0-.33.07-.63.22-.88s.36-.45.63-.59c.27-.14.59-.21.95-.21s.68.07.95.21c.27.14.48.34.63.59.15.25.22.55.22.88v.15c0 .26-.07.51-.21.74a1.4 1.4 0 0 1-.55.53c.27.15.49.36.65.64.16.28.24.58.24.9v.11c0 .35-.08.67-.24.93-.16.27-.39.48-.68.62s-.63.22-1.02.22-.73-.07-1.02-.22Zm1.57-.76c.16-.08.28-.2.37-.35.09-.15.13-.32.13-.51v-.06c0-.2-.04-.37-.13-.52-.09-.15-.21-.26-.37-.34s-.34-.12-.55-.12-.39.04-.55.12-.28.2-.37.35a.98.98 0 0 0-.13.52v.07c0 .19.04.36.13.51.09.15.21.26.37.34s.34.12.55.12.39-.04.55-.12Zm-.07-2.88c.14-.08.24-.19.32-.33s.11-.31.11-.5v-.06c0-.18-.04-.34-.11-.47s-.18-.24-.32-.32c-.14-.07-.3-.11-.47-.11s-.34.04-.47.11c-.14.08-.24.18-.32.32s-.11.3-.11.48v.07c0 .18.04.35.11.49.08.14.18.25.32.33s.3.12.47.12.34-.04.47-.12ZM219.95 361.63a1.61 1.61 0 0 1-.61-.55c-.16-.24-.26-.53-.31-.87s.9 0 .9 0c.03.24.13.42.28.55.16.13.36.2.61.2.29 0 .51-.1.67-.29.16-.19.23-.46.23-.81v-.54c0-.35-.08-.61-.23-.81-.16-.19-.38-.29-.67-.29-.16 0-.3.04-.45.13s-.27.21-.38.37h-.82v-3.37h3.26v.85h-2.36v1.44c.11-.09.24-.16.37-.21s.28-.07.42-.07c.37 0 .68.08.95.23s.46.38.6.67c.14.29.2.65.2 1.06v.54c0 .41-.07.77-.21 1.06s-.35.52-.62.67c-.27.15-.59.23-.97.23-.32 0-.61-.06-.86-.19ZM145.81 361.63a1.61 1.61 0 0 1-.61-.55c-.16-.24-.26-.53-.31-.87s.9 0 .9 0c.03.24.13.42.28.55.16.13.36.2.61.2.29 0 .51-.1.67-.29.16-.19.23-.46.23-.81v-.54c0-.35-.08-.61-.23-.81-.16-.19-.38-.29-.67-.29-.16 0-.3.04-.45.13s-.27.21-.38.37h-.82v-3.37h3.26v.85h-2.36v1.44c.11-.09.24-.16.37-.21s.28-.07.42-.07c.37 0 .68.08.95.23s.46.38.6.67c.14.29.2.65.2 1.06v.54c0 .41-.07.77-.21 1.06s-.35.52-.62.67c-.27.15-.59.23-.97.23-.32 0-.61-.06-.86-.19ZM149.69 360.86h.9v.9l-.9.89v-1.78ZM155.12 356.16l-1.65 5.59h-.95l1.65-5.54h-1.63v.92h-.9v-1.77h3.48v.8ZM158.61 358.58v.16c-.08.13-.19.23-.34.3s-.32.09-.52.09c-.3 0-.57-.08-.8-.23s-.41-.37-.54-.66c-.13-.28-.19-.61-.19-.98 0-.42.07-.77.21-1.06.14-.29.34-.52.61-.67.27-.15.59-.23.96-.23s.7.08.96.23.47.38.61.68c.14.3.21.65.21 1.07 0 .23-.03.48-.09.74s-.14.52-.25.77c-.02.04-.04.08-.05.12l-.06.12-1.36 2.74H157l1.61-3.17Zm.04-.55c.15-.19.23-.46.23-.8s-.08-.6-.23-.79c-.15-.18-.37-.28-.65-.28s-.5.09-.66.28c-.15.18-.23.45-.23.79 0 .35.08.62.23.81.15.19.37.28.66.28s.5-.1.65-.29ZM219.91 135.83h-.9v-5.41l-.91.56v-.93l.91-.61h.9v6.39ZM222.9 135.83h-.9v-5.41l-.91.56v-.93l.91-.61h.9v6.39ZM224.26 134.93h.9v.9l-.9.89v-1.78ZM227.93 135.83h-.9v-5.41l-.91.56v-.93l.91-.61h.9v6.39ZM229.28 135.05l2.23-2.97c.13-.17.23-.35.3-.53.07-.18.11-.35.11-.51 0-.26-.07-.46-.22-.6s-.36-.21-.64-.21c-.26 0-.47.08-.63.23-.16.15-.26.37-.29.65s-.93 0-.93 0c.05-.37.16-.68.32-.94.16-.26.37-.46.63-.59.26-.14.56-.2.89-.2.38 0 .71.07.98.2s.47.32.62.57.21.55.21.9c0 .23-.05.47-.14.71s-.22.48-.39.71l-1.85 2.51h2.42v.85h-3.6v-.78Z"/></g></svg>