<svg xmlns="http://www.w3.org/2000/svg" viewBox="0 0 286.46 279.49"><defs><pattern id="_Новый_узор_2" width="22.92" height="23.17" x="0" y="0" patternTransform="matrix(.7 0 0 .67 -2625.5 -2038.2)" patternUnits="userSpaceOnUse"><g fill="none"><path d="M0 0h22.92v23.17H0z"/><path stroke="#b5b5b5" stroke-miterlimit="10" stroke-width=".25" d="M22.69 17.61v11.12H.23V17.61h22.46m.11-.11H.12v11.34H22.8V17.5ZM22.69 6.03v11.12H.23V6.03h22.46m.11-.11H.12v11.34H22.8V5.92ZM22.69-5.56V5.56H.23V-5.56h22.46m.11-.11H.12V5.67H22.8V-5.67Z"/></g></pattern><pattern id="_Новый_узор_4" width="9.82" height="9.82" x="0" y="0" patternTransform="matrix(1.05 0 0 1.03 119.01 1063.39)" patternUnits="userSpaceOnUse"><g fill="none"><path d="M0 0h9.82v9.82H0z"/><g fill-rule="evenodd" stroke-linecap="round" stroke-width=".25" clip-path="url(#clippath)"><path stroke="#e6e6e6" stroke-linejoin="round" d="m14.73 19.65-4.91-4.92 4.91-4.91 4.91 4.91-4.91 4.92zM4.91 19.65 0 14.73l4.91-4.91 4.91 4.91-4.91 4.92zM-4.91 19.65l-4.91-4.92 4.91-4.91L0 14.73l-4.91 4.92z"/><path stroke="#e6e6e6" stroke-linejoin="round" d="M14.73 9.82 9.82 4.91 14.73 0l4.91 4.91-4.91 4.91z"/><path stroke="#999" stroke-miterlimit="3" d="M4.91 9.82 0 4.91 4.91 0l4.91 4.91-4.91 4.91z"/><path stroke="#e6e6e6" stroke-linejoin="round" d="m-4.91 9.82-4.91-4.91L-4.91 0 0 4.91l-4.91 4.91zM14.73 0 9.82-4.91l4.91-4.91 4.91 4.91L14.73 0zM4.91 0 0-4.91l4.91-4.91 4.91 4.91L4.91 0zM-4.91 0l-4.91-4.91 4.91-4.91L0-4.91-4.91 0z"/></g></g></pattern><clipPath id="clippath"><path fill="none" d="M0 0h9.82v9.82H0z"/></clipPath></defs><g id="Flats"><path id="fl255" fill="#fff" fill-rule="evenodd" d="M280.17 45.81V9.94L261.6 21.28l-52.38 13.06-47.58-.46-52.38-13.07-14.59-8.23-18.73 8.7-52.39 13.06L3.6 37.45l1.1 8.36H2.71v225.95h176.2v-10.28h104.67V45.81h-3.41z"/></g><g id="Grid"><path fill="url(#_Новый_узор_2)" d="M7.61 188.99H55.7v76.44H7.61z"/><path fill="url(#_Новый_узор_4)" d="M182.18 192.99h-48.37V264.7h35.27v-20.75h13.1v-50.96z"/></g><g id="Mebel"><g fill="none" stroke="#6a6a6a" stroke-linecap="round" stroke-linejoin="round" stroke-width=".25"><path d="M81.98 253.35H64.65m0 0v-47.09m0 0h17.33m0 0v47.09M73.18 206.26h-.55m0 0v47.09m0 0h.55m0 0v-47.09M66.1 247.79h13.56m0 0v-.59m0 0H66.1m0 0v.59M66.1 246.24h13.56m0 0v-.59m0 0H66.1m0 0v.59M66.1 244.69h13.56m0 0v-.58m0 0H66.1m0 0v.58M66.1 243.14h13.56m0 0v-.59m0 0H66.1m0 0v.59M66.2 239.85l13.46 1.73m0 0 .07-.58m0 0-13.46-1.73m0 0-.07.58"/></g><g fill="none" stroke="#6a6a6a" stroke-linecap="round" stroke-linejoin="round" stroke-width=".25"><path d="M78.76 197.63c0 3.02-2.45 5.47-5.47 5.47s-5.47-2.45-5.47-5.47 2.45-5.47 5.47-5.47 5.47 2.45 5.47 5.47ZM77.87 197.24l-.94.34m0 0h-1m0 0-.94-.34m0 0-1.12.26m0 0h-1.15m0 0-1.12-.26m0 0-.94.34m0 0h-1m0 0-.94-.34m0 0 1.7 2.28m0 0h5.76m0 0 1.7-2.28M76.17 199.71h-5.76m0 0v-.2m0 0h5.76m0 0v.2M76.17 200.11h-5.76m0 0v-.2m0 0h5.76m0 0v.2M72.65 196.08l.68-.06m0 0 .02.17m0 0-.36.03m0 0 1.05.87m0 0-.1.12m0 0-.49-.4m0 0-.05.06m0 0 .56.47m0 0-.09.11m0 0-.56-.47m0 0-.06.07m0 0 .46.38m0 0-.08.1m0 0-.46-.38m0 0-.06.07m0 0 .32.26m0 0-.09.11m0 0-1.08-.89M81.93 188.99H64.65m0 0v17.28m0 0h17.28m0 0v-17.28"/></g><g fill="none" stroke="#6a6a6a" stroke-linecap="round" stroke-linejoin="round" stroke-width=".25"><path d="M13.76 107.35c-1.36 0-2.46 1.1-2.46 2.46s1.1 2.46 2.46 2.46 2.46-1.1 2.46-2.46-1.1-2.46-2.46-2.46Z"/><path d="M13.76 109.07c-.41 0-.74.33-.74.74s.33.74.74.74.74-.33.74-.74-.33-.74-.74-.74ZM13.76 49.57c-1.36 0-2.46 1.1-2.46 2.46s1.1 2.46 2.46 2.46 2.46-1.1 2.46-2.46-1.1-2.46-2.46-2.46Z"/><path d="M13.76 51.29c-.41 0-.74.33-.74.74s.33.74.74.74.74-.33.74-.74-.33-.74-.74-.74ZM59.25 103.05V58.79m0 0H10.07m0 0v44.26m0 0h49.18M60.48 101.82v-41.8m0 0-.09-.47m0 0-.27-.4m0 0-.4-.27m0 0-.47-.09m0 0v44.26m0 0 .47-.09m0 0 .4-.27m0 0 .27-.4m0 0 .09-.47M7.61 103.05V58.79m0 0h2.46m0 0v44.26m0 0H7.61M7.61 58.79v44.26m0 0h1.23m0 0V58.79m0 0H7.61M7.61 57.56V46.5m0 0H19.9m0 0v11.06m0 0H7.61M7.61 104.28v11.06m0 0H19.9m0 0v-11.06m0 0H7.61M11.3 76.98V60.26m0 0 .07-.17m0 0 .17-.07m0 0h8.11m0 0 .17.07m0 0 .07.17m0 0v16.72m0 0-.07.17m0 0-.17.07m0 0h-8.1m0 0-.17-.07m0 0-.07-.17M11.3 84.85v16.72m0 0 .07.17m0 0 .17.07m0 0h8.11m0 0 .17-.07m0 0 .07-.17m0 0V84.85m0 0-.07-.17m0 0-.17-.07m0 0h-8.1m0 0-.17.07m0 0-.07.17M19.24 103.05v-1.23M19.24 84.61v-7.38M19.24 60.02v-1.23M22.5 103.05V58.79m0 0h12.16m0 0-9.7 44.26m0 0H22.5M13.2 112.2l.56-2.39m0 0 2.23-1.03m0 0-2.23 1.03m0 0-2.31-.85M13.2 49.63l.56 2.39m0 0 2.23 1.03m0 0-2.23-1.03m0 0-2.31.85"/></g><g fill="none" stroke="#6a6a6a" stroke-linecap="round" stroke-linejoin="round" stroke-width=".25"><path d="M83.45 102.67V58.85m0 0h8.66m0 0v43.82m0 0h-8.66M83.88 102.67V58.85M83.45 80.76h.43M83.45 102.67h.43M88.53 68.06h.58m0 0v25.41m0 0h-.58m0 0V68.06M89.11 68.86l1.95-.41m0 0-.08-.39m0 0-1.87.39m0 0v.41M89.11 73.61h.48m0 0 .32.09m0 0 .24.24m0 0 .09.33m0 0v13m0 0-.09.32m0 0-.24.24m0 0-.32.09m0 0h-.48m0 0v-14.3M88.33 68.86l-1.95-.41m0 0 .08-.39m0 0 1.87.39m0 0v.41M89.11 92.66l1.95.41m0 0-.08.39m0 0-1.87-.39m0 0v-.41M88.36 92.66l-1.95.41m0 0 .08.39m0 0 1.87-.39m0 0v-.41M88.36 68.06h.17m0 0v25.41m0 0h-.17m0 0V68.06"/></g><g fill="#fff" stroke="#6a6a6a" stroke-linecap="round" stroke-linejoin="round" stroke-width=".25"><path d="M7.33 244.28H55.7v21.23H7.33zM13.4 263.81l-.75-.06m0 0-.73-.19m0 0-.69-.31m0 0-.62-.43m0 0-.53-.52m0 0-.43-.61m0 0-.32-.67m0 0-.2-.71m0 0-.07-.74m0 0v-9.34m0 0 .07-.74m0 0 .2-.71m0 0 .32-.67m0 0 .43-.61m0 0 .53-.52m0 0 .62-.42m0 0 .69-.31m0 0 .73-.19m0 0 .75-.06m0 0h31.46m0 0 1.58.14m0 0 1.53.4m0 0 1.44.66m0 0 1.3.89m0 0 1.12 1.1m0 0 .91 1.27m0 0 .67 1.41m0 0 .41 1.5m0 0 .14 1.55m0 0-.14 1.55m0 0-.41 1.5m0 0-.67 1.41m0 0-.91 1.27m0 0-1.12 1.1m0 0-1.3.89m0 0-1.44.66m0 0-1.53.4m0 0-1.58.14m0 0H13.4"/><path d="M13.76 254.89a.749.749 0 1 1 1.5 0c0 .41-.33.75-.75.75s-.75-.33-.75-.75ZM133.81 221.33h19.12v43.57h-19.12zM151.41 259.43l-.06.68m0 0-.17.66m0 0-.28.62m0 0-.38.56m0 0-.47.48m0 0-.55.39m0 0-.6.29m0 0-.64.18m0 0-.66.06m0 0h-8.42m0 0-.66-.06m0 0-.64-.18m0 0-.6-.29m0 0-.55-.39m0 0-.47-.48m0 0-.38-.56m0 0-.28-.62m0 0-.17-.66m0 0-.06-.68m0 0V231.1m0 0 .12-1.43m0 0 .36-1.38m0 0 .59-1.3m0 0 .8-1.17m0 0 .99-1.01m0 0 1.15-.82m0 0 1.27-.6m0 0 1.35-.37m0 0 1.4-.12m0 0 1.39.12m0 0 1.35.37m0 0 1.27.6m0 0 1.15.82m0 0 .99 1.01m0 0 .8 1.17m0 0 .59 1.3m0 0 .36 1.38m0 0 .12 1.43m0 0v28.33"/><path d="M143.37 259.11a.67.67 0 1 1 0-1.34.67.67 0 0 1 0 1.34ZM55.97 214.32v7.74l-8.42.89-1.24.04-1.23-.15-1.2-.34-1.12-.52-.9-.7-.68-.91-.43-1.05-.15-1.13.15-1.13.43-1.05.68-.91.9-.7 1.12-.52 1.2-.34 1.23-.15 1.24.04 8.42.89zM51.81 221.18v-2.99M51.81 218.19v-2.99"/><path d="M40.8 218.19c0 .8.23 1.58.64 2.23M41.45 220.42c1.25 1.61 3.08 2.48 4.96 2.36"/><path d="M46.41 222.78c1.9.05 3.77-.5 5.4-1.59M51.81 215.2c-1.64-1.09-3.51-1.65-5.4-1.59M46.41 213.61c-1.88-.12-3.71.75-4.96 2.36M41.45 215.97c-.41.65-.64 1.42-.64 2.23M182.5 211.03v7.74l-8.42.89-1.24.04-1.23-.15-1.2-.34-1.12-.52-.9-.7-.68-.91-.43-1.05-.15-1.13.15-1.13.43-1.05.68-.91.9-.7 1.12-.52 1.2-.34 1.23-.15 1.24.04 8.42.89zM178.34 217.89v-2.99M178.34 214.9v-3"/><path d="M167.33 214.9c0 .8.23 1.58.64 2.23M167.98 217.12c1.25 1.61 3.08 2.48 4.96 2.36M172.94 219.48c1.9.05 3.77-.5 5.4-1.59M178.34 211.9c-1.64-1.09-3.51-1.65-5.4-1.59M172.94 210.31c-1.88-.12-3.71.75-4.96 2.36M167.98 212.67c-.41.65-.64 1.42-.64 2.23M18.56 201.39v15.29l-.12.27-.29.11H8.02l-.29-.11-.12-.27v-15.29l.12-.27.29-.11h10.13l.29.11.12.27zM10.63 202.14v6.59m0 .61v6.59M11.04 216.3h6.29M17.74 215.92v-13.78M17.33 201.76h-6.29"/><path d="M11.04 216.3c-.23 0-.41-.17-.41-.38M17.74 215.92c0 .21-.18.38-.41.38M17.33 201.76c.23 0 .41.17.41.38M10.63 202.14c0-.21.18-.38.41-.38M12.35 208.73c.1-.12.26-.2.44-.2s.34.08.44.2h-.88Zm.88.61c-.1.12-.26.2-.44.2s-.34-.08-.44-.2h.88ZM8 209.33v-.61m0 0h5.61m0 0 .22.17m0 0v.26m0 0-.22.17m0 0H8M8.98 206.84H7.8m0 0v.06m0 0h-.1m0 0v.19m0 0h-.1m0 0v-1.26m0 0h.1m0 0v.19m0 0h.1m0 0v.06m0 0h1.18m0 0v.22m0 0h.3m0 0v-.72m0 0h.36m0 0v1.77m0 0h-.36m0 0v-.72m0 0h-.3m0 0v.21M8.98 211.22H7.8m0 0v-.06m0 0h-.1m0 0v-.19m0 0h-.1m0 0v1.26m0 0h.1m0 0v-.19m0 0h.1m0 0v-.06m0 0h1.18m0 0v-.22m0 0h.3m0 0v.72m0 0h.36m0 0v-1.77m0 0h-.36m0 0v.72m0 0h-.3m0 0v-.21M9.28 206.3l.06.05M9.28 206.63l.06-.05M8.98 206.3v.33M9.28 211.76l.06-.05M9.28 211.43l.06.05M8.98 211.76v-.33M9.28 206.47c0-.09.08-.16.18-.16s.18.07.18.16-.08.16-.18.16-.18-.07-.18-.16ZM9.28 211.6c0-.09.08-.16.18-.16s.18.07.18.16-.08.16-.18.16-.18-.07-.18-.16ZM18.56 217.44v15.29l-.12.27-.29.11H8.02l-.29-.11-.12-.27v-15.29l.12-.27.29-.11h10.13l.29.11.12.27zM10.63 218.19v6.59m0 .61v6.59M11.04 232.35h6.29M17.74 231.97v-13.78M17.33 217.81h-6.29"/><path d="M11.04 232.35c-.23 0-.41-.17-.41-.38M17.74 231.97c0 .21-.18.38-.41.38M17.33 217.81c.23 0 .41.17.41.38M10.63 218.19c0-.21.18-.38.41-.38M12.35 224.78c.1-.12.26-.2.44-.2s.34.08.44.2h-.88Zm.88.61c-.1.12-.26.2-.44.2s-.34-.08-.44-.2h.88ZM8 225.38v-.61m0 0h5.61m0 0 .22.17m0 0v.26m0 0-.22.17m0 0H8M8.98 222.89H7.8m0 0v.06m0 0h-.1m0 0v.19m0 0h-.1m0 0v-1.26m0 0h.1m0 0v.19m0 0h.1m0 0v.06m0 0h1.18m0 0v.22m0 0h.3m0 0v-.72m0 0h.36m0 0v1.77m0 0h-.36m0 0v-.72m0 0h-.3m0 0v.21M8.98 227.27H7.8m0 0v-.06m0 0h-.1m0 0v-.19m0 0h-.1m0 0v1.26m0 0h.1m0 0v-.19m0 0h.1m0 0v-.06m0 0h1.18m0 0v-.22m0 0h.3m0 0v.72m0 0h.36m0 0v-1.77m0 0h-.36m0 0v.72m0 0h-.3m0 0v-.21M9.28 222.35l.06.05M9.28 222.68l.06-.05M8.98 222.35v.33M9.28 227.81l.06-.05M9.28 227.48l.06.05M8.98 227.81v-.33M9.28 222.52c0-.09.08-.16.18-.16s.18.07.18.16-.08.16-.18.16-.18-.07-.18-.16ZM9.28 227.65c0-.09.08-.16.18-.16s.18.07.18.16-.08.16-.18.16-.18-.07-.18-.16ZM153.36 253.61h15.29l.27.12.11.29v10.13l-.11.29-.27.12h-15.29l-.27-.12-.11-.29v-10.13l.11-.29.27-.12zM154.12 261.54h6.59m.61 0h6.59M168.28 261.13v-6.29M167.9 254.43h-13.78M153.74 254.84v6.29"/><path d="M168.28 261.13c0 .23-.17.41-.38.41M167.9 254.43c.21 0 .38.18.38.41M153.74 254.84c0-.23.17-.41.38-.41M154.12 261.54c-.21 0-.38-.18-.38-.41M160.7 259.82c-.12-.1-.2-.26-.2-.44s.08-.34.2-.44v.88Zm.61-.88c.12.1.2.26.2.44s-.08.34-.2.44v-.88ZM161.31 264.17h-.61m0 0v-5.61m0 0 .17-.22m0 0h.26m0 0 .17.22m0 0v5.61M158.82 263.19v1.18m0 0h.06m0 0v.1m0 0h.19m0 0v.1m0 0h-1.26m0 0v-.1m0 0h.19m0 0v-.1m0 0h.06m0 0v-1.18m0 0h.22m0 0v-.3m0 0h-.72m0 0v-.36m0 0h1.77m0 0v.36m0 0h-.72m0 0v.3m0 0h.21M163.19 263.19v1.18m0 0h-.06m0 0v.1m0 0h-.19m0 0v.1m0 0h1.26m0 0v-.1m0 0h-.19m0 0v-.1m0 0h-.06m0 0v-1.18m0 0h-.22m0 0v-.3m0 0h.72m0 0v-.36m0 0h-1.77m0 0v.36m0 0h.72m0 0v.3m0 0h-.21M158.28 262.88l.05-.05M158.61 262.88l-.05-.05M158.28 263.19h.33M163.74 262.88l-.05-.05M163.41 262.88l.05-.05M163.74 263.19h-.33M158.44 262.88c-.09 0-.16-.08-.16-.18s.07-.18.16-.18.16.08.16.18-.07.18-.16.18ZM163.57 262.88c-.09 0-.16-.08-.16-.18s.07-.18.16-.18.16.08.16.18-.07.18-.16.18Z"/></g><g fill="none" stroke="#6a6a6a" stroke-linecap="round" stroke-linejoin="round" stroke-width=".25"><path d="M205.7 205.79h-15.06m0 0v-15.56m0 0h15.06m0 0v15.56M198.17 195.5v5.02M199.95 196.23l-3.55 3.55M200.68 198.01h-5.02M199.95 199.78l-3.55-3.55"/></g><path fill="none" stroke="#6a6a6a" stroke-linecap="round" stroke-linejoin="round" stroke-width=".25" d="M258.58 241.33h-12.8m0 0-.36.15m0 0-.15.35m0 0v11.55m0 0 .15.35m0 0 .36.15m0 0h12.8m0 0 .35-.15m0 0 .15-.35m0 0v-11.55m0 0-.15-.35m0 0-.35-.15M257.32 242.59h-10.29M246.53 243.09v7.78M247.03 251.37h10.29M257.82 250.87v-7.78"/><path fill="#999" fill-rule="evenodd" d="M257.32 242.59h.07s-.03-.07-.07-.07-.07.03-.07.07.03.07.07.07.07-.03.07-.07h-.07Z"/><path fill="none" stroke="#6a6a6a" stroke-linecap="round" stroke-linejoin="round" stroke-width=".25" d="M246.53 243.09c0-.28.23-.5.5-.5M247.03 251.37c-.28 0-.5-.22-.5-.5M257.82 250.87c0 .28-.22.5-.5.5M257.32 242.59c.28 0 .5.22.5.5M252.4 248.16l-.07-.16m0 0-.16-.07m0 0-.16.07m0 0-.07.16m0 0v4.97m0 0 .07.16m0 0 .16.07m0 0 .16-.07m0 0 .07-.16m0 0v-4.97M252.68 251.85h-.27m0 0v1.28m0 0-.07.16m0 0-.16.07m0 0-.16-.07m0 0-.07-.16m0 0v-1.28m0 0h-.27m0 0v1.63m0 0h1m0 0v-1.63M252.67 250.94h-.27m0 0v.88m0 0h.27m0 0v-.88M251.68 250.94v.88m0 0h.27m0 0v-.88m0 0h-.27M190.64 239.2h87.21m0 0v15.56m0 0h-87.21m0 0V239.2"/><g fill="none" stroke="#6a6a6a" stroke-linecap="round" stroke-linejoin="round" stroke-width=".25"><path d="M263.91 219.92v14.56m0 0h12.3m0 0v-14.56m0 0h-12.3M271.4 227.2h3.52M274.92 227.2v.73M271.4 227.2v.73M271.4 233.08h3.52M274.92 232.35v.73M271.4 232.35v.73M273.3 221.23c1.01 0 1.82.82 1.82 1.82s-.82 1.82-1.82 1.82-1.82-.82-1.82-1.82.81-1.82 1.82-1.82ZM267.83 221.26c1.46 0 2.64 1.18 2.64 2.64s-1.18 2.64-2.64 2.64-2.64-1.18-2.64-2.64 1.18-2.64 2.64-2.64Z"/><path d="M267.83 222.39c.83 0 1.51.67 1.51 1.51s-.67 1.51-1.51 1.51-1.51-.67-1.51-1.51.67-1.51 1.51-1.51ZM273.18 228.38c.97 0 1.76.79 1.76 1.76s-.79 1.76-1.76 1.76-1.76-.79-1.76-1.76.79-1.76 1.76-1.76ZM267.47 228.62c1.25 0 2.26 1.01 2.26 2.26s-1.01 2.26-2.26 2.26-2.26-1.01-2.26-2.26 1.01-2.26 2.26-2.26Z"/></g><g fill="none" stroke="#6a6a6a" stroke-linecap="round" stroke-linejoin="round" stroke-width=".25"><path d="M214.85 248.48c0-1.29 1.05-2.34 2.34-2.34s2.34 1.05 2.34 2.34-1.05 2.34-2.34 2.34-2.34-1.05-2.34-2.34Z"/><path d="M215.21 248.48c0-1.1.89-1.98 1.98-1.98s1.98.89 1.98 1.98-.89 1.98-1.98 1.98-1.98-.89-1.98-1.98ZM219.75 249.06c0-.98.79-1.77 1.77-1.77s1.77.79 1.77 1.77-.79 1.77-1.77 1.77-1.77-.79-1.77-1.77Z"/><path d="M220.53 249.06c0-.55.44-.99.99-.99s.99.44.99.99-.44.99-.99.99-.99-.44-.99-.99ZM214.4 250h.66m0 0v.83m0 0h8.6m0 0V250m0 0h.66M215.4 243.13h6.61m0 0v.33m0 0h-.5m0 0v-.16m0 0h-5.62m0 0v.16m0 0h-.5m0 0v-.33M215.4 243.46l.03.07m.1.21.03.07m.1.21.03.07m.1.21.03.07m.1.21.03.07m.1.21.03.07m.1.21.03.07m.1.21.03.07m.1.21.03.07M222.02 243.46l-.03.07m-.1.21-.03.07m-.1.21-.03.07m-.1.21-.03.07m-.1.21-.03.07m-.1.21-.03.07m-.1.21-.03.07m-.1.21-.03.07m-.1.21-.03.07M215.4 243.46h.05m.08 0h.08m.08 0h.08m.08 0h.05m0 0 .03.04m.15.18.05.06m.15.18.05.06m.15.18.05.06m.15.18.05.06m.15.18.05.06m.15.18.05.06m.15.18.05.06m.15.18.05.06m.15.18.05.06m.15.18.05.06m.15.18.03.04M222.02 243.46h-.05m-.08 0h-.08m-.08 0h-.08m-.08 0h-.05m0 0-.03.04m-.15.18-.05.06m-.15.18-.05.06m-.15.18-.05.06m-.15.18-.05.06m-.15.18-.05.06m-.15.18-.05.06m-.15.18-.05.06m-.15.18-.05.06m-.15.18-.05.06m-.15.18-.05.06m-.15.18-.03.04M227.4 254.76V239.2m0 0h-16.08m0 0v15.56m0 0h16.08"/></g><path fill="none" stroke="#6a6a6a" stroke-linecap="round" stroke-linejoin="round" stroke-width=".25" d="M205.7 190.23v64.52h-15.06v-64.52zM277.85 190.23v64.52h-15.06v-64.52z"/><path fill="none" stroke="#6a6a6a" stroke-dasharray="0 0 3 3" stroke-linecap="round" stroke-linejoin="round" stroke-width=".25" d="M205.7 190.23h57.09"/><path fill="none" stroke="#6a6a6a" stroke-linecap="round" stroke-linejoin="round" stroke-width=".25" d="M68.83 253.29h23.23v12.14H68.83z"/><g fill="none" stroke="#6a6a6a" stroke-linecap="round" stroke-linejoin="round" stroke-width=".25"><path d="M24.84 186.16H7.6m0 0v-46.13m0 0h17.24m0 0v46.13M16.08 140.03h-.55m0 0v46.13m0 0h.55m0 0v-46.13M9.04 180.54h13.49m0 0v-.57m0 0H9.04m0 0v.57M9.04 179.03h13.49m0 0v-.57m0 0H9.04m0 0v.57M9.04 177.52h13.49m0 0v-.57m0 0H9.04m0 0v.57M9.04 176h13.49m0 0v-.57m0 0H9.04m0 0v.57M9.14 172.8l13.4 1.69m0 0 .07-.57m0 0-13.4-1.69m0 0-.07.57"/></g><g fill="none" stroke="#6a6a6a" stroke-linecap="round" stroke-linejoin="round" stroke-width=".25"><path d="M54.29 140.03v17.25m0 0H24.84m0 0v-17.25m0 0h29.45M24.84 148.79v.55m0 0h29.45m0 0v-.55m0 0H24.84M48.68 155.83v-13.49m0 0h-.57m0 0v13.49m0 0h.57M47.17 155.83v-13.49m0 0h-.57m0 0v13.49m0 0h.57M45.65 155.83v-13.49m0 0h-.57m0 0v13.49m0 0h.57M44.14 155.83v-13.49m0 0h-.57m0 0v13.49m0 0h.57M40.93 155.74l1.69-13.4m0 0-.57-.07m0 0-1.69 13.4m0 0 .57.07"/></g><g fill="none" stroke="#6a6a6a" stroke-linecap="round" stroke-linejoin="round" stroke-width=".25"><path d="M145.4 136.66v15.85m0 0H94.94m0 0v-15.85m0 0h50.46M94.94 144.71v.5m0 0h50.46m0 0v-.5m0 0H94.94M140.14 151.18v-12.4m0 0h-.54m0 0v12.4m0 0h.54M138.72 151.18v-12.4m0 0h-.54m0 0v12.4m0 0h.54M137.3 151.18v-12.4m0 0h-.53m0 0v12.4m0 0h.53M135.88 151.18v-12.4m0 0h-.54m0 0v12.4m0 0h.54M132.87 151.09l1.59-12.31m0 0-.53-.06m0 0-1.59 12.31m0 0 .53.06"/></g><g fill="none" stroke="#6a6a6a" stroke-linecap="round" stroke-linejoin="round" stroke-width=".25"><path d="M165.24 76.06v4.39m0 0v.45m.01 0 .03.43m0 0 .05.4m0 0 .07.36m0 0h0m0 .01.08.32m0 0 .1.26m0 0v.02m0 0 .11.19m0 0v.02m.01 0 .12.12m0 0h.02m0 .01h.02m0 .01h.02m0 0 .12.04m0 0h.02m0 0h.01m0 0h1.21m0 0v1.1m0 0h4.16m0-11.88h-4.16m0 0v1.1m0 0h-1.21m0 0h-.01m0 0H166m0 0-.12.04m0 0h-.02m0 0h-.02m0 .01h-.02m0 .01-.12.12m0 0v.02m-.01 0-.11.19m0 0v.02m0 0-.1.26m0 0-.09.32m0 0h0m0 .01-.07.36m0 0-.05.4m0 0-.03.43m0 0v.45M167.98 83.1v-9.68M167.98 82.96l-.96.01M167.98 73.55h-.96M171.43 73.42h-4.16M171.43 83.1h-4.16M166.34 80.46v-4.4M167.02 82.96c-.38 0-.68-1.12-.68-2.51M166.34 76.06c0-1.39.31-2.51.69-2.51M171.49 102.05V59.47h16.08v42.58z"/></g><g fill="none" stroke="#6a6a6a" stroke-linecap="round" stroke-linejoin="round" stroke-width=".25"><path d="M125.41 51.09h-24.6m0 0v54.93m0 0h24.6m0 0V51.09M124.04 49.72h-21.85m0 0-.53.1m0 0-.45.3m0 0-.3.45m0 0-.1.53m0 0h24.6m0 0-.1-.53m0 0-.3-.45m0 0-.45-.3m0 0-.53-.1M125.41 108.76h-24.6m0 0v-2.75m0 0h24.6m0 0v2.75M100.81 108.76h24.6m0 0v-1.37m0 0h-24.6m0 0v1.37M103.82 104.64h18.67m0 0 .19-.08m0 0 .08-.19m0 0v-9.06m0 0-.08-.19m0 0-.19-.08m0 0h-18.67m0 0-.19.08m0 0-.08.19m0 0v9.06m0 0 .08.19m0 0 .19.08M125.41 95.78h-2.64M103.55 95.78h-2.7M125.41 92.14h-24.6m0 0V78.56m0 0 24.6 10.83m0 0v2.75"/></g><g fill="none" stroke="#6a6a6a" stroke-linecap="round" stroke-linejoin="round" stroke-width=".25"><path d="M199.64 102.67V58.85m0 0h-8.66m0 0v43.82m0 0h8.66M199.21 102.67V58.85M199.64 80.76h-.43M199.64 102.67h-.43M194.56 68.06h-.58m0 0v25.41m0 0h.58m0 0V68.06M193.98 68.86l-1.95-.41m0 0 .08-.39m0 0 1.87.39m0 0v.41M193.98 73.61h-.48m0 0-.32.09m0 0-.24.24m0 0-.09.33m0 0v13m0 0 .09.32m0 0 .24.24m0 0 .32.09m0 0h.48m0 0v-14.3M194.77 68.86l1.95-.41m0 0-.08-.39m0 0-1.87.39m0 0v.41M193.98 92.66l-1.95.41m0 0 .08.39m0 0 1.87-.39m0 0v-.41M194.73 92.66l1.95.41m0 0-.08.39m0 0-1.87-.39m0 0v-.41M194.73 68.06h-.17m0 0v25.41m0 0h.17m0 0V68.06"/></g><g fill="none" stroke="#6a6a6a" stroke-linecap="round" stroke-linejoin="round" stroke-width=".25"><path d="m271.99 137.99-3.57-3.57m0 0-.37-.35m0 0-.37-.32m0 0-.37-.28m0 0-.35-.24m0 0h-.01m0 0-.33-.19m0 0-.29-.13m0 0h-.02m0 0-.24-.07m0 0h-.02m0 0h-.19m0 0h-.03m0 0h-.03m0 0h-.02m0 .01-.13.07m0 0-.02.02m0 0h-.01m0 0-.98.99m0 0-.89-.89m0 0-4.53 4.53m9.66 9.66 4.53-4.53m0 0-.89-.89m0 0 .99-.99m0 0h0m0 0v-.02m.01 0 .07-.13m0 0v-.02m.01 0v-.03m0 0v-.03m0 0v-.19m0 0v-.02m0 0-.07-.24m0 0v-.02m0 0-.13-.29m0 0-.19-.33m0 0h0m0-.01-.24-.35m0 0-.28-.37m0 0-.32-.37m0 0-.35-.37M264.05 134.5l7.87 7.87M264.15 134.61l.78-.79M271.81 142.26l.78-.78M268.44 145.84l4.06-4.05M260.57 137.97l4.06-4.05M267.53 135.31l3.58 3.57M264.93 133.83c.31-.31 1.47.36 2.6 1.48M271.11 138.88c1.13 1.13 1.79 2.29 1.48 2.6M240.19 162.65l3.57 3.57m0 0 .37.35m0 0 .37.32m0 0 .37.29m0 0 .35.24m0 0h.01m0 0 .33.19m0 0 .29.13m0 0h.02m0 0 .24.07m0 0h.03m0 0h.19m0 0h.03m0 0h.02m0 0h.02m0-.01.13-.07m0 0 .02-.02m0 0h0m0 0 .99-.98m0 0 .89.89m0 0 4.53-4.53m-9.66-9.66-4.53 4.53m0 0 .89.89m0 0-.99.99m0 0h0m0 0v.02m-.01 0-.07.13m0 0v.02m-.01 0v.03m0 0v.03m0 0v.19m0 0v.02m0 0 .06.25m0 0v.02m0 0 .13.29m0 0 .19.33m0 0h0m0 .01.24.35m0 0 .29.37m0 0 .32.37m0 0 .35.37M248.14 166.14l-7.87-7.87M248.04 166.03l-.78.78M240.38 158.38l-.78.78M243.74 154.8l-4.05 4.05M251.61 162.67l-4.05 4.05M244.66 165.33l-3.58-3.58M247.25 166.81c-.31.31-1.47-.36-2.6-1.48M241.08 161.75c-1.13-1.13-1.79-2.29-1.48-2.6M243.76 134.42l-3.57 3.57m0 0-.35.37m0 0-.32.37m0 0-.29.37m0 0-.24.35m0 0h0m0 .01-.19.33m0 0-.13.29m0 0v.02m0 0-.06.24m0 0v.02m0 0v.19m0 0v.03m0 0v.03m0 0v.02m.01 0 .07.13m0 0 .02.02m0 0h0m0 .01.99.98m0 0-.89.89m0 0 4.53 4.53m9.66-9.66-4.53-4.53m0 0-.89.89m0 0-.99-.99m0 0h0m0 0-.02-.02m0 0-.13-.07m0 0h-.02m0-.01h-.03m0 0h-.03m0 0h-.19m0 0h-.02m0 0-.24.07m0 0h-.02m0 0-.29.13m0 0-.33.19m0 0h-.01m0 0-.35.24m0 0-.37.29m0 0-.37.32m0 0-.37.35M240.27 142.37l7.87-7.87M240.38 142.26l-.78-.78M248.04 134.61l-.78-.79M251.61 137.97l-4.05-4.05M243.74 145.84l-4.05-4.05M241.08 138.88l3.58-3.57M239.6 141.48c-.31-.31.36-1.47 1.48-2.6M244.66 135.31c1.13-1.13 2.29-1.79 2.6-1.48M268.42 166.22l3.57-3.57m0 0 .35-.37m0 0 .32-.37m0 0 .28-.37m0 0 .24-.35m0 0h0m0-.01.19-.33m0 0 .13-.29m0 0v-.02m0 0 .07-.24m0 0v-.02m0 0v-.19m0 0v-.03m0 0v-.03m0 0v-.02m-.01 0-.07-.13m0 0-.02-.02m0 0h0m0-.01-.98-.98m0 0 .89-.89m0 0-4.53-4.53m-9.66 9.66 4.53 4.53m0 0 .89-.89m0 0 .99.99m0 0h0m0 0h.02m0 .01.13.07m0 0h.02m0 .01h.03m0 0h.03m0 0h.19m0 0h.02m0 0 .24-.07m0 0h.02m0 0 .29-.13m0 0 .33-.19m0 0h.01m0 0 .35-.24m0 0 .37-.28m0 0 .37-.32m0 0 .37-.35M271.92 158.27l-7.87 7.87M271.81 158.38l.78.78M264.15 166.03l.78.78M260.57 162.67l4.06 4.05M268.44 154.8l4.06 4.05M271.11 161.75l-3.58 3.58M272.59 159.16c.31.31-.36 1.47-1.48 2.6M267.53 165.33c-1.13 1.13-2.29 1.79-2.6 1.48M269.23 150.32c0 7.25-5.88 13.13-13.13 13.13s-13.13-5.88-13.13-13.13 5.88-13.13 13.13-13.13 13.13 5.88 13.13 13.13Z"/></g><path fill="none" stroke="#6a6a6a" stroke-linecap="round" stroke-linejoin="round" stroke-width=".25" d="M248.13 97.79h-16.87V63.73h16.87z"/><g fill="none" stroke="#6a6a6a" stroke-linecap="round" stroke-linejoin="round" stroke-width=".25"><path d="M253.55 50.67v-2.42M253.99 47.81h23.28M277.71 48.25v2.42M277.27 51.11h-23.28M277.71 50.67v19.11M277.71 69.78h-1.54M272.03 69.78h-1.32M253.55 69.12V51.77M254.21 51.11h16.5M271.37 51.77v17.35M270.71 69.78h-16.5M276.83 69.12V51.77M276.17 51.11h-4.14M271.37 51.77v17.35M272.03 69.78h4.14M273.76 51.77v17.35M253.55 48.25c0-.24.2-.44.44-.44M277.27 47.81c.24 0 .44.2.44.44M277.71 50.67c0 .24-.2.44-.44.44M253.99 51.11c-.24 0-.44-.2-.44-.44M253.55 51.77c0-.36.3-.66.66-.66M270.71 51.11c.36 0 .66.29.66.66M271.37 69.12c0 .36-.29.66-.66.66M254.21 69.78c-.36 0-.66-.3-.66-.66M276.17 51.11c.36 0 .66.29.66.66M271.37 51.77c0-.36.29-.66.66-.66"/><path d="M272.03 69.78c-.36 0-.66-.3-.66-.66M276.83 69.12c0 .36-.29.66-.66.66M273.76 51.77c0-.36.29-.66.66-.66M274.42 69.78c-.36 0-.66-.3-.66-.66M277.71 69.78v21.96M277.71 69.78h-1.54M277.71 91.74h-1.54M272.03 69.78h-1.32M272.03 91.74h-1.32M253.55 91.09V70.44M254.21 69.78h16.5M271.37 70.44v20.65M270.71 91.74h-16.5M276.83 91.09V70.44M276.17 69.78h-4.14M271.37 70.44v20.65M272.03 91.74h4.14M273.76 70.44v20.65M253.55 70.44c0-.36.3-.66.66-.66M270.71 69.78c.36 0 .66.3.66.66M271.37 91.09c0 .36-.29.66-.66.66M254.21 91.74c-.36 0-.66-.3-.66-.66M276.17 69.78c.36 0 .66.3.66.66M271.37 70.44c0-.36.29-.66.66-.66"/><path d="M272.03 91.74c-.36 0-.66-.3-.66-.66M276.83 91.09c0 .36-.29.66-.66.66M273.76 70.44c0-.36.29-.66.66-.66M274.42 91.74c-.36 0-.66-.3-.66-.66M253.55 110.85v2.42M253.99 113.71h23.28M277.71 113.27v-2.42M277.27 110.41h-23.28M277.71 110.85V91.74M277.71 91.74h-1.54M272.03 91.74h-1.32M253.55 92.4v17.36M254.21 110.41h16.5M271.37 109.76V92.4M270.71 91.74h-16.5M276.83 92.4v17.36M276.17 110.41h-4.14M271.37 109.76V92.4M272.03 91.74h4.14M273.76 109.76V92.4M253.99 113.71c-.24 0-.44-.2-.44-.44M277.71 113.27c0 .24-.2.44-.44.44M277.27 110.41c.24 0 .44.2.44.44M253.55 110.85c0-.24.2-.44.44-.44M254.21 110.41c-.36 0-.66-.3-.66-.66M271.37 109.76c0 .36-.29.66-.66.66M270.71 91.74c.36 0 .66.29.66.66M253.55 92.4c0-.36.3-.66.66-.66M276.83 109.76c0 .36-.29.66-.66.66"/><path d="M272.03 110.41c-.36 0-.66-.3-.66-.66M271.37 92.4c0-.36.29-.66.66-.66M276.17 91.74c.36 0 .66.29.66.66M274.42 110.41c-.36 0-.66-.3-.66-.66M273.76 92.4c0-.36.29-.66.66-.66M253.55 51.77v17.35"/></g></g><g id="Walls_Inside" fill="#2d2d2c"><path d="M0 23.32h7.61v244.87H0zM277.76 108.14h8.7v148.21h-8.7z"/><path d="M169.09 261.85v-7.01h117.33v7.01z"/><path d="M169.08 267.24v-7.01h9.83v7.01zM1.66 140.03v-2.83h52.63v2.83zM92.11 102.01h2.83v57.14h-2.83zM61.82 187.57h2.83v67.26h-2.83zM92.11 184.15h2.83v16.95h-2.83zM92.11 236.89h2.83v30.7h-2.83zM130.98 191.79h2.83v74.31h-2.83zM187.81 191.58h2.83v63.98h-2.83zM169.08 243.95h2.83v13.94h-2.83z"/><path d="M169.09 246.78v-2.83h20.14v2.83zM175.61 192.99v-2.83h15.03v2.83zM130.97 192.99v-2.83h22.85v2.83zM92.83 155.35v-2.83h58.7v2.83zM50.45 189v-2.83h44.21V189zM55.7 256.26v-2.83h12.88v2.83zM4.48 189.01v-2.83h25.03v2.83zM176.3 155.34v-2.83h14.95v2.83z"/><path d="M188.04 34.34h3.21v121h-3.21zM55.7 253.42h2.83v13.13H55.7zM66.28 253.42h2.83v13.13h-2.83z"/><path d="M55.7 187.83h1.9v67.73h-1.9zM182.18 191.79h1.9v53.58h-1.9z"/></g><g id="Walls_Outside"><path fill="none" stroke="#000" stroke-linecap="round" stroke-linejoin="round" stroke-width=".22" d="m111.92 10.13-2.66 10.68M113.22 4.91l-.97 3.91M112.25 8.82l-.33 1.31M164.3 23.19l-2.66 10.69M165.6 17.98l-.97 3.91M164.63 21.89l-.33 1.3"/><path fill="none" stroke="#000" stroke-linecap="round" stroke-linejoin="round" stroke-width=".25" d="M165.6 17.98 113.22 4.91M161.64 33.88l-52.38-13.07M164.3 23.19l-2.99-.75M161.31 22.44l.33-1.3M161.64 21.14l2.99.75M134.7 14.42l1.49.38M136.19 14.8l-.32 1.3M135.87 16.1l-1.5-.37M161.47 21.79l-25.44-6.34M161.31 22.44l-25.44-6.34M136.19 14.8l25.45 6.34M134.37 15.73l-.75-.19M133.62 15.54l.17-.65M133.79 14.89l-.75-.19M133.04 14.7l.16-.65M133.2 14.05l1.5.37M112.25 8.82l2.35.59M114.6 9.41l-.17.65M114.43 10.06l-.58-.14M113.85 9.92l-.17.65M113.68 10.57l-1.76-.44M114.6 9.41l18.6 4.64M131.22 15.63l-14.97-3.73M133.46 16.19l-2.24-.56M131.22 15.63l.32-1.3M131.54 14.33l2.25.56M133.79 14.89l-.33 1.3M113.85 9.92l1.76.43M115.61 10.35l-.33 1.31M115.28 11.66l-1.76-.44M113.52 11.22l.33-1.3M115.61 10.35l15.93 3.98M131.22 15.63l-15.94-3.97M131.38 14.98l-15.93-3.97"/><path fill="none" stroke="#000" stroke-linecap="round" stroke-linejoin="round" stroke-width=".22" d="m164.63 21.89-.33 1.3M164.63 21.89l-.33 1.3M165.6 17.98l-.97 3.91M164.3 23.19l-2.66 10.69M112.25 8.82l-.33 1.31M112.25 8.82l-.33 1.31M113.22 4.91l-.97 3.91M111.92 10.13l-2.66 10.68M165.6 17.98l-3.96 15.9"/><path fill="#2d2d2c" fill-rule="evenodd" d="m97.57 17.9-8-2L93.53 0l19.69 4.91-3.96 15.9-8.01-1.99-3.68-.92z"/><path fill="#2d2d2c" d="m161.639 33.87 3.965-15.903 24.723 6.164-3.965 15.903z"/><path fill="none" stroke="#000" stroke-linecap="round" stroke-linejoin="round" stroke-width=".22" d="m20.89 23.65 2.67 10.69M19.59 18.44l.98 3.91M20.57 22.35l.32 1.3M73.27 10.59l2.67 10.69M71.97 5.38l.98 3.91M72.95 9.29l.32 1.3"/><path fill="none" stroke="#000" stroke-linecap="round" stroke-linejoin="round" stroke-width=".25" d="M71.97 5.38 19.59 18.44M75.94 21.28 23.56 34.34M73.27 10.59l-2.99.75M70.28 11.34l-.32-1.3M69.96 10.04l2.99-.75M43.02 16.75l1.49-.37M44.51 16.38l.33 1.3M44.84 17.68l-1.5.38M70.12 10.69l-25.45 6.34M70.28 11.34l-25.44 6.34M44.51 16.38l25.45-6.34M43.34 18.06l-.75.18M42.59 18.24l-.16-.65M42.43 17.59l-.75.19M41.68 17.78l-.16-.65M41.52 17.13l1.5-.38M20.57 22.35l2.34-.59M22.91 21.76l.17.66M23.08 22.42l-.59.14M22.49 22.56l.16.65M22.65 23.21l-1.76.44M22.91 21.76l18.61-4.63M40.51 19.45l-14.97 3.74M42.75 18.89l-2.24.56M40.51 19.45l-.32-1.3M40.18 18.15l2.25-.56M42.43 17.59l.32 1.3M22.49 22.56l1.76-.44M24.25 22.12l.33 1.31M24.58 23.43l-1.77.44M22.82 23.87l-.33-1.31M24.25 22.12l15.93-3.97M40.51 19.45l-15.93 3.98M40.35 18.8l-15.94 3.97"/><path fill="none" stroke="#000" stroke-linecap="round" stroke-linejoin="round" stroke-width=".22" d="m72.95 9.29.32 1.3M72.95 9.29l.32 1.3M71.97 5.38l.98 3.91M73.27 10.59l2.67 10.69M20.57 22.35l.32 1.3M20.57 22.35l.32 1.3M19.59 18.44l.98 3.91M20.89 23.65l2.67 10.69M71.97 5.38l3.97 15.9"/><path fill="#2d2d2c" fill-rule="evenodd" d="m11.05 37.46-8.57 2.13L0 23.32l19.59-4.88 3.96 15.9-8.57 2.14-3.93.98z"/><path fill="#2d2d2c" d="M71.976 5.385 93.546.007 97.51 15.91l-21.57 5.378z"/><path fill="none" stroke="#000" stroke-linecap="round" stroke-linejoin="round" stroke-width=".22" d="m206.56 23.65 2.66 10.69M205.26 18.44l.97 3.91M206.23 22.35l.33 1.3M258.94 10.59l2.66 10.69M257.64 5.38l.98 3.91M258.62 9.29l.32 1.3"/><path fill="none" stroke="#000" stroke-linecap="round" stroke-linejoin="round" stroke-width=".25" d="m257.64 5.38-52.38 13.06M261.6 21.28l-52.38 13.06M258.94 10.59l-2.99.75M255.95 11.34l-.33-1.3M255.62 10.04l3-.75M228.68 16.75l1.5-.37M230.18 16.38l.32 1.3M230.5 17.68l-1.49.38M255.78 10.69l-25.44 6.34M255.95 11.34l-25.45 6.34M230.18 16.38l25.44-6.34M229.01 18.06l-.75.18M228.26 18.24l-.16-.65M228.1 17.59l-.75.19M227.35 17.78l-.16-.65M227.19 17.13l1.49-.38M206.23 22.35l2.35-.59M208.58 21.76l.16.66M208.74 22.42l-.58.14M208.16 22.56l.16.65M208.32 23.21l-1.76.44M208.58 21.76l18.61-4.63M226.18 19.45l-14.97 3.74M228.42 18.89l-2.24.56M226.18 19.45l-.33-1.3M225.85 18.15l2.25-.56M228.1 17.59l.32 1.3M208.16 22.56l1.76-.44M209.92 22.12l.32 1.31M210.24 23.43l-1.76.44M208.48 23.87l-.32-1.31M209.92 22.12l15.93-3.97M226.18 19.45l-15.94 3.98M226.01 18.8l-15.93 3.97"/><path fill="none" stroke="#000" stroke-linecap="round" stroke-linejoin="round" stroke-width=".22" d="m258.62 9.29.32 1.3M258.62 9.29l.32 1.3M257.64 5.38l.98 3.91M258.94 10.59l2.66 10.69M206.23 22.35l.33 1.3M206.23 22.35l.33 1.3M205.26 18.44l.97 3.91M206.56 23.65l2.66 10.69M257.64 5.38l3.96 15.9"/><path fill="#2d2d2c" fill-rule="evenodd" d="m195.66 37.72-9.3 2.32-3.96-15.9 22.86-5.7 3.96 15.9-9.29 2.32-4.27 1.06z"/><path fill="#2d2d2c" d="m257.637 5.375 20.978-5.23 3.965 15.903-20.978 5.23zM92.11 14.03h8.7v94.73h-8.7z"/><path fill="#2d2d2c" d="M277.76 14.03h8.7v94.11h-8.7zM0 271.77v-6.33h103.68v6.33zM130.97 272.35v-7.64h47.94v7.64z"/><path fill="#2d2d2c" fill-rule="evenodd" d="M286.46 2.11 278.62.15l-3.97 15.9 8.38 2.09 3.43.86V2.11z"/></g><g id="Doors"><path fill="none" stroke="#000" stroke-linecap="round" stroke-linejoin="round" stroke-width=".29" d="M128.6 278.8c1.54-4.21 1.97-6.37 2.19-10.86"/><path fill="#2d2d2c" fill-rule="evenodd" d="m128.57 279.49.51-1.2-25.01-11.06h-.39v1.31l24.89 10.95z"/><path fill="none" stroke="#000" stroke-linecap="round" stroke-linejoin="round" stroke-width=".29" d="M174.3 144.01c1.41 3.85 1.8 5.82 2 9.92"/><path fill="#2d2d2c" fill-rule="evenodd" d="m174.27 143.38.46 1.1-22.84 10.09h-.35v-1.19l22.73-10z"/><path fill="none" stroke="#000" stroke-linecap="round" stroke-linejoin="round" stroke-width=".29" d="M173.85 183.06c1.24 3.38 1.58 5.12 1.76 8.73"/><path fill="#2d2d2c" fill-rule="evenodd" d="m173.82 182.51.41.97-20.1 8.88h-.31v-1.05l20-8.8z"/><path fill="none" stroke="#000" stroke-linecap="round" stroke-linejoin="round" stroke-width=".29" d="M48.75 179.19c1.19 3.25 1.52 4.92 1.69 8.39"/><path fill="#2d2d2c" fill-rule="evenodd" d="m48.73 178.66.39.93-19.31 8.53h-.3v-1.01l19.22-8.45z"/><path fill="none" stroke="#000" stroke-linecap="round" stroke-linejoin="round" stroke-width=".29" d="M84.09 161.38c3.85-1.41 5.82-1.8 9.92-2"/><path fill="#2d2d2c" fill-rule="evenodd" d="m83.47 161.41 1.1-.46 10.09 22.84v.36h-1.19l-10-22.74z"/></g><g id="Sizes"><path d="M42.09 120.62h-.9v-5.41l-.91.56v-.93l.91-.61h.9v6.39ZM45.08 120.62h-.9v-5.41l-.91.56v-.93l.91-.61h.9v6.39ZM46.44 119.73h.9v.9l-.9.89v-1.78ZM50.83 117.45v.16c-.08.13-.19.23-.34.3-.15.06-.32.09-.53.09-.3 0-.57-.08-.8-.23s-.41-.37-.54-.66c-.13-.28-.19-.61-.19-.98 0-.42.07-.77.21-1.06.14-.29.34-.52.61-.67.27-.15.59-.23.96-.23s.7.08.96.23.47.38.61.68c.14.3.21.65.21 1.07 0 .23-.03.48-.09.74s-.14.52-.25.77c-.02.04-.04.08-.05.12l-.06.12-1.36 2.74h-.97l1.61-3.17Zm.04-.55c.15-.19.23-.46.23-.8s-.08-.6-.23-.79c-.15-.18-.37-.28-.65-.28s-.5.09-.66.28c-.15.18-.23.45-.23.79 0 .35.08.62.23.81.15.19.37.28.66.28s.5-.1.65-.29ZM55.45 117.45v.16c-.08.13-.19.23-.34.3-.15.06-.32.09-.52.09-.3 0-.57-.08-.8-.23s-.41-.37-.54-.66c-.13-.28-.19-.61-.19-.98 0-.42.07-.77.21-1.06.14-.29.34-.52.61-.67.27-.15.59-.23.96-.23s.7.08.96.23.47.38.61.68c.14.3.21.65.21 1.07 0 .23-.03.48-.09.74s-.14.52-.25.77c-.02.04-.04.08-.05.12l-.06.12-1.36 2.74h-.97l1.61-3.17Zm.04-.55c.15-.19.23-.46.23-.8s-.08-.6-.23-.79c-.15-.18-.37-.28-.65-.28s-.5.09-.66.28c-.15.18-.23.45-.23.79 0 .35.08.62.23.81.15.19.37.28.66.28s.5-.1.65-.29ZM134.14 120.62h-.9v-5.41l-.91.56v-.93l.91-.61h.9v6.39ZM135.5 118.86l2.14-4.63h.92l-2.09 4.57h3.13v.83h-4.11v-.78Zm2.76-2h.87v3.76h-.87v-3.76ZM140.62 119.73h.9v.9l-.9.89v-1.78ZM143.21 120.21c-.31-.32-.46-.76-.46-1.34v-2.9c0-.57.16-1.02.47-1.34.31-.32.76-.48 1.36-.48s1.05.16 1.36.47c.31.32.46.76.46 1.34v2.9c0 .57-.16 1.02-.47 1.34-.31.32-.76.48-1.36.48s-1.05-.16-1.36-.48Zm2.06-.62c.15-.17.23-.4.23-.71v-2.9c0-.31-.08-.55-.22-.71-.15-.17-.38-.25-.7-.25s-.55.08-.7.25c-.15.17-.22.4-.22.71v2.9c0 .31.08.55.23.71.15.17.38.25.7.25s.55-.08.7-.25ZM148.18 120.21c-.31-.32-.46-.76-.46-1.34v-2.9c0-.57.16-1.02.47-1.34.31-.32.76-.48 1.36-.48s1.05.16 1.36.47c.31.32.46.76.46 1.34v2.9c0 .57-.16 1.02-.47 1.34-.31.32-.76.48-1.36.48s-1.05-.16-1.36-.48Zm2.06-.62c.15-.17.23-.4.23-.71v-2.9c0-.31-.08-.55-.22-.71-.15-.17-.38-.25-.7-.25s-.55.08-.7.25c-.15.17-.22.4-.22.71v2.9c0 .31.08.55.23.71.15.17.38.25.7.25s.55-.08.7-.25ZM226.34 48.14h-.9v-5.41l-.91.56v-.93l.91-.61h.9v6.39ZM231.09 42.55l-1.65 5.59h-.95l1.65-5.54h-1.63v.92h-.9v-1.77h3.48v.8ZM232.23 47.24h.9v.9l-.9.89v-1.78ZM235.21 47.98c-.29-.15-.52-.35-.68-.62a1.79 1.79 0 0 1-.24-.93v-.11c0-.32.08-.62.24-.9.16-.28.37-.49.64-.64-.23-.12-.41-.3-.54-.53-.14-.23-.21-.48-.21-.74v-.15c0-.33.08-.63.22-.88.15-.25.36-.45.63-.59.27-.14.59-.21.95-.21s.68.07.95.21c.27.14.48.34.63.59.15.25.22.55.22.88v.15c0 .26-.07.51-.21.74a1.4 1.4 0 0 1-.55.53c.27.15.49.36.65.64.16.28.24.58.24.9v.11c0 .35-.08.67-.24.93-.16.27-.39.48-.68.62s-.63.22-1.02.22-.73-.07-1.02-.22Zm1.57-.76c.16-.08.28-.2.37-.35.09-.15.13-.32.13-.51v-.06c0-.2-.04-.37-.13-.52-.09-.15-.21-.26-.37-.34s-.34-.12-.55-.12-.39.04-.55.12-.28.2-.37.35a.98.98 0 0 0-.13.52v.07c0 .19.04.36.13.51.09.15.21.26.37.34s.34.12.55.12.39-.04.55-.12Zm-.07-2.88c.14-.08.24-.19.32-.33s.11-.31.11-.5v-.06c0-.18-.04-.34-.11-.47s-.18-.24-.32-.32c-.14-.07-.3-.11-.47-.11s-.34.04-.47.11c-.14.08-.25.18-.32.32s-.11.3-.11.48v.07c0 .18.04.35.11.49.08.14.18.25.32.33s.3.12.47.12.34-.04.47-.12ZM240.27 47.98c-.29-.15-.52-.35-.68-.62a1.79 1.79 0 0 1-.24-.93v-.11c0-.32.08-.62.24-.9.16-.28.37-.49.64-.64-.23-.12-.41-.3-.54-.53-.14-.23-.21-.48-.21-.74v-.15c0-.33.08-.63.22-.88.15-.25.36-.45.63-.59.27-.14.59-.21.95-.21s.68.07.95.21c.27.14.48.34.63.59.15.25.22.55.22.88v.15c0 .26-.07.51-.21.74a1.4 1.4 0 0 1-.55.53c.27.15.49.36.65.64.16.28.24.58.24.9v.11c0 .35-.08.67-.24.93-.16.27-.39.48-.68.62s-.63.22-1.02.22-.73-.07-1.02-.22Zm1.57-.76c.16-.08.28-.2.37-.35.09-.15.13-.32.13-.51v-.06c0-.2-.04-.37-.13-.52-.09-.15-.21-.26-.37-.34s-.34-.12-.55-.12-.39.04-.55.12-.28.2-.37.35a.98.98 0 0 0-.13.52v.07c0 .19.04.36.13.51.09.15.21.26.37.34s.34.12.55.12.39-.04.55-.12Zm-.07-2.88c.14-.08.24-.19.32-.33s.11-.31.11-.5v-.06c0-.18-.04-.34-.11-.47s-.18-.24-.32-.32c-.14-.07-.3-.11-.47-.11s-.34.04-.47.11c-.14.08-.25.18-.32.32s-.11.3-.11.48v.07c0 .18.04.35.11.49.08.14.18.25.32.33s.3.12.47.12.34-.04.47-.12ZM227.64 227.04c-.27-.15-.47-.37-.61-.66-.14-.29-.21-.64-.21-1.04a3.99 3.99 0 0 1 .32-1.52c.02-.04.04-.09.06-.13l.06-.12 1.39-2.75h.97l-1.63 3.19v-.16c.08-.14.18-.24.33-.32s.3-.11.49-.11c.33 0 .62.07.85.22s.42.37.54.65c.12.29.18.63.18 1.03 0 .41-.07.77-.21 1.06-.14.29-.34.52-.61.67-.27.15-.59.23-.96.23s-.7-.08-.96-.23Zm1.62-.9c.15-.18.23-.43.23-.75 0-.36-.08-.64-.24-.83-.16-.19-.39-.29-.69-.29-.27 0-.47.1-.62.29s-.22.47-.22.83c0 .33.08.58.23.75.15.17.37.26.65.26s.5-.09.66-.26ZM231.49 226.3h.9v.9l-.9.89v-1.78ZM235.88 224.03v.16c-.08.13-.19.23-.34.3-.15.06-.32.09-.53.09-.3 0-.57-.08-.8-.23s-.41-.37-.54-.66c-.13-.28-.19-.61-.19-.98 0-.42.07-.77.21-1.06.14-.29.34-.52.61-.67.27-.15.59-.23.96-.23s.7.08.96.23.47.38.61.68c.14.3.21.65.21 1.07 0 .23-.03.48-.09.74s-.14.52-.25.77c-.02.04-.04.08-.05.12l-.06.12-1.36 2.74h-.97l1.61-3.17Zm.04-.55c.15-.19.23-.46.23-.8s-.08-.6-.23-.79c-.15-.18-.37-.28-.65-.28s-.5.09-.66.28c-.15.18-.23.45-.23.79 0 .35.08.62.23.81.15.19.37.28.66.28s.5-.1.65-.29ZM240.5 224.03v.16c-.08.13-.19.23-.34.3-.15.06-.32.09-.52.09-.3 0-.57-.08-.8-.23s-.41-.37-.54-.66c-.13-.28-.19-.61-.19-.98 0-.42.07-.77.21-1.06.14-.29.34-.52.61-.67.27-.15.59-.23.96-.23s.7.08.96.23.47.38.61.68c.14.3.21.65.21 1.07 0 .23-.03.48-.09.74s-.14.52-.25.77c-.02.04-.04.08-.05.12l-.06.12-1.36 2.74h-.97l1.61-3.17Zm.04-.55c.15-.19.23-.46.23-.8s-.08-.6-.23-.79c-.15-.18-.37-.28-.65-.28s-.5.09-.66.28c-.15.18-.23.45-.23.79 0 .35.08.62.23.81.15.19.37.28.66.28s.5-.1.65-.29ZM146.68 207.11l2.14-4.63h.92l-2.09 4.57h3.13v.83h-4.11v-.78Zm2.75-2h.88v3.76h-.88v-3.76ZM151.79 207.97h.9v.9l-.9.89v-1.78ZM153.83 207.11l2.14-4.63h.92l-2.09 4.57h3.13v.83h-4.11v-.78Zm2.76-2h.87v3.76h-.87v-3.76ZM160.58 208.87h-.9v-5.41l-.91.56v-.93l.91-.61h.9v6.39ZM33.88 173.16l2.14-4.63h.92l-2.09 4.57h3.13v.83h-4.11v-.78Zm2.76-2h.87v3.76h-.87v-3.76ZM39 174.02h.9v.9l-.9.89v-1.78ZM43.39 171.74v.16c-.08.13-.19.23-.34.3s-.32.09-.52.09c-.3 0-.57-.08-.8-.23s-.41-.37-.54-.66c-.13-.28-.19-.61-.19-.98 0-.42.07-.77.21-1.06.14-.29.34-.52.61-.67.27-.15.59-.23.96-.23s.7.08.96.23c.27.16.47.38.61.68.14.3.21.65.21 1.07 0 .23-.03.48-.09.74s-.14.52-.25.77c-.02.04-.04.08-.05.12l-.06.12-1.36 2.74h-.97l1.61-3.17Zm.04-.55c.15-.19.23-.46.23-.8s-.08-.6-.23-.79c-.15-.18-.37-.28-.65-.28s-.5.09-.66.28c-.15.18-.23.45-.23.79 0 .35.08.62.23.81.15.19.37.28.66.28s.5-.1.65-.29ZM48.01 171.74v.16c-.08.13-.19.23-.34.3-.15.06-.32.09-.52.09-.3 0-.57-.08-.8-.23-.23-.16-.41-.37-.54-.66-.13-.28-.19-.61-.19-.98 0-.42.07-.77.21-1.06s.34-.52.61-.67.59-.23.96-.23.7.08.96.23.47.38.61.68.21.65.21 1.07c0 .23-.03.48-.09.74s-.14.52-.25.77c-.02.04-.04.08-.05.12l-.06.12-1.36 2.74h-.97l1.61-3.17Zm.04-.55c.15-.19.23-.46.23-.8s-.08-.6-.23-.79-.37-.28-.65-.28-.5.09-.66.28c-.15.18-.23.45-.23.79 0 .35.08.62.23.81.15.19.37.28.66.28s.5-.1.65-.29ZM109.06 249.16l-1.65 5.59h-.95l1.65-5.54h-1.63v.92h-.9v-1.77h3.48v.8ZM110.2 253.85h.9v.9l-.9.89v-1.78ZM113.26 254.63a1.61 1.61 0 0 1-.61-.55c-.16-.24-.26-.53-.31-.87s.9 0 .9 0c.03.24.13.42.28.55.16.13.36.2.61.2.29 0 .51-.1.67-.29.16-.19.24-.46.24-.81v-.54c0-.35-.08-.61-.24-.81-.16-.19-.38-.29-.67-.29-.16 0-.3.04-.45.13s-.27.21-.38.37h-.82v-3.37h3.26v.85h-2.36v1.44c.11-.09.24-.16.37-.21s.28-.07.42-.07c.37 0 .68.08.95.23.26.15.46.38.6.67.14.29.21.65.21 1.06v.54c0 .41-.07.77-.21 1.06s-.35.52-.62.67c-.27.15-.59.23-.97.23-.32 0-.61-.06-.86-.19ZM120.53 249.16l-1.65 5.59h-.95l1.65-5.54h-1.63v.92h-.9v-1.77h3.48v.8ZM84.61 226.42l2.23-2.97c.13-.17.23-.35.3-.53.07-.18.11-.35.11-.51 0-.26-.07-.46-.22-.6s-.36-.21-.64-.21c-.26 0-.47.08-.63.23-.16.15-.26.37-.29.65s-.93 0-.93 0c.05-.37.16-.68.32-.94.16-.26.37-.46.63-.59.26-.14.55-.2.89-.2.38 0 .71.07.98.2s.47.32.62.57.21.55.21.9c0 .23-.05.47-.14.71s-.22.48-.39.71l-1.85 2.51h2.42v.85h-3.6v-.78ZM89.27 226.3h.9v.9l-.9.89v-1.78ZM92.32 227.08a1.61 1.61 0 0 1-.61-.55c-.16-.24-.26-.53-.31-.87s.9 0 .9 0c.03.24.13.42.28.55.16.13.36.2.61.2.29 0 .51-.1.67-.29.16-.19.24-.46.24-.81v-.54c0-.35-.08-.61-.24-.81-.16-.19-.38-.29-.67-.29-.16 0-.3.04-.45.13s-.27.21-.38.37h-.82v-3.37h3.26v.85h-2.36v1.44c.11-.09.24-.16.37-.21s.28-.07.42-.07c.37 0 .68.08.95.23.26.15.46.38.6.67.14.29.21.65.21 1.06v.54c0 .41-.07.77-.21 1.06s-.35.52-.62.67c-.27.15-.59.23-.97.23-.32 0-.61-.06-.86-.19ZM99.6 221.61l-1.65 5.59H97l1.65-5.54h-1.63v.92h-.9v-1.77h3.48v.8ZM25.24 227.08a1.61 1.61 0 0 1-.61-.55c-.16-.24-.26-.53-.31-.87s.9 0 .9 0c.03.24.13.42.28.55.16.13.36.2.61.2.29 0 .51-.1.67-.29.16-.19.23-.46.23-.81v-.54c0-.35-.08-.61-.23-.81-.16-.19-.38-.29-.67-.29-.16 0-.3.04-.45.13s-.27.21-.38.37h-.82v-3.37h3.26v.85h-2.36v1.44c.11-.09.24-.16.37-.21s.28-.07.42-.07c.37 0 .68.08.95.23s.46.38.6.67c.14.29.2.65.2 1.06v.54c0 .41-.07.77-.21 1.06s-.35.52-.62.67c-.27.15-.59.23-.97.23-.32 0-.61-.06-.86-.19ZM29.13 226.3h.9v.9l-.9.89v-1.78ZM32.79 227.2h-.9v-5.41l-.91.56v-.93l.91-.61h.9v6.39ZM34.93 227.04c-.27-.15-.47-.37-.61-.66-.14-.29-.21-.64-.21-1.04a3.99 3.99 0 0 1 .32-1.52c.02-.04.04-.09.06-.13l.06-.12 1.39-2.75h.97l-1.63 3.19v-.16c.08-.14.18-.24.33-.32s.3-.11.49-.11c.33 0 .62.07.85.22s.42.37.54.65c.12.29.18.63.18 1.03 0 .41-.07.77-.21 1.06-.14.29-.34.52-.61.67-.27.15-.59.23-.96.23s-.7-.08-.96-.23Zm1.62-.9c.15-.18.23-.43.23-.75 0-.36-.08-.64-.24-.83-.16-.19-.39-.29-.69-.29-.27 0-.47.1-.62.29s-.22.47-.22.83c0 .33.08.58.23.75.15.17.37.26.65.26s.5-.09.66-.26Z"/></g></svg>