<svg xmlns="http://www.w3.org/2000/svg" viewBox="0 0 358.79 399.56"><defs><pattern id="_Новый_узор_4" width="9.82" height="9.82" x="0" y="0" patternTransform="matrix(1.05 0 0 1.03 470.19 1064.13)" patternUnits="userSpaceOnUse"><g fill="none"><path d="M0 0h9.82v9.82H0z"/><g fill-rule="evenodd" stroke-linecap="round" stroke-width=".25" clip-path="url(#clippath)"><path stroke="#e6e6e6" stroke-linejoin="round" d="m14.73 19.65-4.91-4.92 4.91-4.91 4.91 4.91-4.91 4.92zM4.91 19.65 0 14.73l4.91-4.91 4.91 4.91-4.91 4.92zM-4.91 19.65l-4.91-4.92 4.91-4.91L0 14.73l-4.91 4.92z"/><path stroke="#e6e6e6" stroke-linejoin="round" d="M14.73 9.82 9.82 4.91 14.73 0l4.91 4.91-4.91 4.91z"/><path stroke="#999" stroke-miterlimit="3" d="M4.91 9.82 0 4.91 4.91 0l4.91 4.91-4.91 4.91z"/><path stroke="#e6e6e6" stroke-linejoin="round" d="m-4.91 9.82-4.91-4.91L-4.91 0 0 4.91l-4.91 4.91zM14.73 0 9.82-4.91l4.91-4.91 4.91 4.91L14.73 0zM4.91 0 0-4.91l4.91-4.91 4.91 4.91L4.91 0zM-4.91 0l-4.91-4.91 4.91-4.91L0-4.91-4.91 0z"/></g></g></pattern><pattern id="_Новый_узор_2" width="22.92" height="23.17" x="0" y="0" patternTransform="matrix(.7 0 0 .67 -2274.32 -2037.46)" patternUnits="userSpaceOnUse"><g fill="none"><path d="M0 0h22.92v23.17H0z"/><path stroke="#b5b5b5" stroke-miterlimit="10" stroke-width=".25" d="M22.69 17.61v11.12H.23V17.61h22.46m.11-.11H.12v11.34H22.8V17.5ZM22.69 6.03v11.12H.23V6.03h22.46m.11-.11H.12v11.34H22.8V5.92ZM22.69-5.56V5.56H.23V-5.56h22.46m.11-.11H.12V5.67H22.8V-5.67Z"/></g></pattern><clipPath id="clippath"><path fill="none" d="M0 0h9.82v9.82H0z"/></clipPath></defs><g id="Flats"><path id="fl290" fill="#fff" fill-rule="evenodd" d="m354.98 35.08-26.75-1.09-52.21-13.02-13.93-9.81-22.48 10.57L187 33.88l-60.33-1.14-52.84-12.2-17.99-4.15H16.51v75.62l6.02 26.06 9.53 41.29v36.68l-10.64.05 10.79 55.64-16.86 28.67 8.37 21.7 8.6 60.88.45 32.92h234.36V272.5h87.85V35.08z"/></g><g id="Grid"><path fill="url(#_Новый_узор_4)" d="M191.43 190.44h51.49v67.88h-51.49z"/><path fill="url(#_Новый_узор_2)" fill-rule="evenodd" d="M248.61 282.47v-14.3h-57.18v53.18h56.41v6.75h10.82v-45.63h-10.05z"/></g><g id="Mebel"><g fill="none" stroke="#6a6a6a" stroke-linecap="round" stroke-linejoin="round" stroke-width=".25"><path d="M188.59 377.52v13.58m0 0h-66.34m0 0v-13.58m0 0h66.34M122.25 384.41v.43m0 0h66.34m0 0v-.43m0 0h-66.34M184.36 389.96v-10.62m0 0h-.43m0 0v10.62m0 0h.43M183.23 389.96v-10.62m0 0h-.43m0 0v10.62m0 0h.43M182.09 389.96v-10.62m0 0h-.43m0 0v10.62m0 0h.43M180.95 389.96v-10.62m0 0h-.43m0 0v10.62m0 0h.43M178.53 389.88l1.27-10.54m0 0-.43-.05m0 0-1.27 10.54m0 0 .43.05"/></g><g fill="none" stroke="#6a6a6a" stroke-linecap="round" stroke-linejoin="round" stroke-width=".25"><path d="M113.38 196.08v14.24m0 0H152m0 0v-14.24m0 0h-38.62M152.01 203.31v.45m0 0h-38.62m0 0v-.45m0 0h38.62M117.8 209.12v-11.14m0 0h.45m0 0v11.14m0 0h-.45M118.99 209.12v-11.14m0 0h.45m0 0v11.14m0 0h-.45M120.18 209.12v-11.14m0 0h.45m0 0v11.14m0 0h-.45M121.37 209.12v-11.14m0 0h.45m0 0v11.14m0 0h-.45M123.89 209.04l-1.33-11.06m0 0 .45-.05m0 0 1.33 11.06m0 0-.45.05"/></g><g fill="none" stroke="#6a6a6a" stroke-linecap="round" stroke-linejoin="round" stroke-width=".25"><path d="M106.44 294.86H62.62m0 0v-8.66m0 0h43.82m0 0v8.66M106.44 294.43H62.62M84.53 294.86v-.43M106.44 294.86v-.43M70.07 289.78v-.58m0 0h25.41m0 0v.58m0 0H70.07M70.87 289.2l-.41-1.95m0 0-.39.08m0 0 .39 1.87m0 0h.41M75.63 289.2v-.48m0 0 .09-.32m0 0 .24-.24m0 0 .33-.09m0 0h13m0 0 .32.09m0 0 .24.24m0 0 .09.32m0 0v.48m0 0h-14.3M70.87 289.98l-.41 1.95m0 0-.39-.08m0 0 .39-1.87m0 0h.41M94.68 289.2l.41-1.95m0 0 .39.08m0 0-.39 1.87m0 0h-.41M94.68 289.95l.41 1.95m0 0 .39-.08m0 0-.39-1.87m0 0h-.41M70.07 289.95v-.17m0 0h25.41m0 0v.17m0 0H70.07"/></g><g fill="none" stroke="#6a6a6a" stroke-linecap="round" stroke-linejoin="round" stroke-width=".25"><path d="M58.1 385.05c0 1.36-1.1 2.46-2.46 2.46s-2.46-1.1-2.46-2.46 1.1-2.46 2.46-2.46 2.46 1.1 2.46 2.46Z"/><path d="M56.38 385.05c0 .41-.33.74-.74.74s-.74-.33-.74-.74.33-.74.74-.74.74.33.74.74ZM115.88 385.05c0 1.36-1.1 2.46-2.46 2.46s-2.46-1.1-2.46-2.46 1.1-2.46 2.46-2.46 2.46 1.1 2.46 2.46Z"/><path d="M114.16 385.05c0 .41-.33.74-.74.74s-.74-.33-.74-.74.33-.74.74-.74.74.33.74.74ZM62.4 339.56h44.26m0 0v49.18m0 0H62.4m0 0v-49.18M63.63 338.33h41.8m0 0 .47.09m0 0 .4.27m0 0 .27.4m0 0 .09.47m0 0H62.4m0 0 .09-.47m0 0 .27-.4m0 0 .4-.27m0 0 .47-.09M62.4 391.2h44.26m0 0v-2.46m0 0H62.4m0 0v2.46M106.66 391.2H62.4m0 0v-1.23m0 0h44.26m0 0v1.23M107.89 391.2h11.06m0 0v-12.29m0 0h-11.06m0 0v12.29M61.17 391.2H50.11m0 0v-12.29m0 0h11.06m0 0v12.29M88.46 387.51h16.72m0 0 .17-.07m0 0 .07-.17m0 0v-8.11m0 0-.07-.17m0 0-.17-.07m0 0H88.46m0 0-.17.07m0 0-.07.17m0 0v8.11m0 0 .07.17m0 0 .17.07M80.6 387.51H63.88m0 0-.17-.07m0 0-.07-.17m0 0v-8.11m0 0 .07-.17m0 0 .17-.07m0 0H80.6m0 0 .17.07m0 0 .07.17m0 0v8.11m0 0-.07.17m0 0-.17.07M62.4 379.57h1.23M80.84 379.57h7.38M105.43 379.57h1.23M62.4 376.31h44.26m0 0v-12.16m0 0-44.26 9.7m0 0v2.46M53.25 385.61l2.39-.56m0 0 1.03-2.23m0 0-1.03 2.23m0 0 .85 2.31M115.82 385.61l-2.39-.56m0 0-1.03-2.23m0 0 1.03 2.23m0 0-.85 2.31"/></g><g fill="none" stroke="#6a6a6a" stroke-linecap="round" stroke-linejoin="round" stroke-width=".25"><path d="M117.42 178.95H73.6m0 0v8.66m0 0h43.82m0 0v-8.66M117.42 179.39H73.6M95.51 178.95v.44M117.42 178.95v.44M81.05 184.03v.58m0 0h25.41m0 0v-.58m0 0H81.05M81.86 184.62l-.41 1.95m0 0-.39-.08m0 0 .39-1.87m0 0h.41M86.61 184.62v.48m0 0 .09.32m0 0 .24.24m0 0 .33.09m0 0h13m0 0 .32-.09m0 0 .24-.24m0 0 .09-.32m0 0v-.48m0 0h-14.3M81.86 183.83l-.41-1.95m0 0-.39.08m0 0 .39 1.87m0 0h.41M105.66 184.62l.41 1.95m0 0 .39-.08m0 0-.39-1.87m0 0h-.41M105.66 183.86l.41-1.95m0 0 .39.08m0 0-.39 1.87m0 0h-.41M81.05 183.86v.17m0 0h25.41m0 0v-.17m0 0H81.05"/></g><g fill="none" stroke="#6a6a6a" stroke-linecap="round" stroke-linejoin="round" stroke-width=".25"><path d="M129.17 150.95v-13.62m0 0h15.48m0 0v13.62m0 0h-15.48M129.17 137.33v-4.56m0 0h22.11m0 0v4.56m0 0h-1.11m-5.53 0h-15.48M129.17 155.52v-4.56m0 0h15.48m5.53 0h1.11m0 0v4.56m0 0h-22.11M150.17 153.07h-5.53m0 0V135.2m0 0h5.53m0 0v17.87M151.28 150.95h-1.11m0 0v-13.62m0 0h1.11m0 0v13.62"/></g><g fill="none" stroke="#6a6a6a" stroke-linecap="round" stroke-linejoin="round" stroke-width=".25"><path d="M62.28 150.95v-13.62m0 0H46.8m0 0v13.62m0 0h15.48M62.28 137.33v-4.56m0 0H40.17m0 0v4.56m0 0h1.11m5.53 0h15.48M62.28 155.52v-4.56m0 0H46.8m-5.53 0h-1.11m0 0v4.56m0 0h22.11M41.27 153.07h5.53m0 0V135.2m0 0h-5.53m0 0v17.87M40.17 150.95h1.11m0 0v-13.62m0 0h-1.11m0 0v13.62"/></g><path fill="none" stroke="#6a6a6a" stroke-linecap="round" stroke-linejoin="round" stroke-width=".25" d="M78.48 152.57V135.7h34.06v16.87z"/><g fill="none" stroke="#6a6a6a" stroke-linecap="round" stroke-linejoin="round" stroke-width=".25"><path d="M125.61 126.37h2.41M128.46 125.93v-23.28M128.02 102.21h-2.41M125.17 102.65v23.28M125.61 102.21H106.5M106.5 102.21v1.54M106.5 107.89v1.32M107.15 126.37h17.36M125.17 125.71v-16.5M124.51 108.55h-17.36M106.5 109.21v16.5M107.15 103.09h17.36M125.17 103.75v4.14M124.51 108.55h-17.36M106.5 107.89v-4.14M124.51 106.16h-17.36M128.02 126.37c.24 0 .44-.2.44-.44M128.46 102.65c0-.24-.2-.44-.44-.44M125.61 102.21c-.24 0-.44.2-.44.44M125.17 125.93c0 .24.2.44.44.44M124.51 126.37c.36 0 .66-.3.66-.66M125.17 109.21a.66.66 0 0 0-.66-.66M107.15 108.55a.66.66 0 0 0-.66.66M106.5 125.71c0 .36.3.66.66.66M125.17 103.75a.66.66 0 0 0-.66-.66M124.51 108.55c.36 0 .66-.29.66-.66M106.5 107.89c0 .36.3.66.66.66M107.15 103.09a.66.66 0 0 0-.66.66M124.51 106.16c.36 0 .66-.29.66-.66M106.5 105.5c0 .36.3.66.66.66M106.5 102.21H84.53M106.5 102.21v1.54M84.53 102.21v1.54M106.5 107.89v1.32M84.53 107.89v1.32M85.19 126.37h20.65M106.5 125.71v-16.5M105.84 108.55H85.19M84.53 109.21v16.5M85.19 103.09h20.65M106.5 103.75v4.14M105.84 108.55H85.19M84.53 107.89v-4.14M105.84 106.16H85.19M105.84 126.37c.36 0 .66-.3.66-.66"/><path d="M106.5 109.21c0-.36-.3-.66-.66-.66M85.19 108.55a.66.66 0 0 0-.66.66M84.53 125.71c0 .36.3.66.66.66M106.5 103.75c0-.36-.3-.66-.66-.66M105.84 108.55c.36 0 .66-.29.66-.66M84.53 107.89c0 .36.3.66.66.66M85.19 103.09a.66.66 0 0 0-.66.66M105.84 106.16c.36 0 .66-.29.66-.66M84.53 105.5c0 .36.3.66.66.66M65.42 126.37H63M62.57 125.93v-23.28M63 102.21h2.42M65.86 102.65v23.28M65.42 102.21h19.11M84.53 102.21v1.54M84.53 107.89v1.32M83.87 126.37H66.52M65.86 125.71v-16.5M66.52 108.55h17.35M84.53 109.21v16.5M83.87 103.09H66.52M65.86 103.75v4.14M66.52 108.55h17.35M84.53 107.89v-4.14M66.52 106.16h17.35M62.57 125.93c0 .24.2.44.44.44M63 102.21c-.24 0-.44.2-.44.44M65.86 102.65c0-.24-.2-.44-.44-.44M65.42 126.37c.24 0 .44-.2.44-.44M65.86 125.71c0 .36.3.66.66.66M66.52 108.55a.66.66 0 0 0-.66.66M84.53 109.21a.66.66 0 0 0-.66-.66M83.87 126.37c.36 0 .66-.3.66-.66M66.52 103.09a.66.66 0 0 0-.66.66M65.86 107.89c0 .36.3.66.66.66M83.87 108.55c.36 0 .66-.29.66-.66M84.53 103.75a.66.66 0 0 0-.66-.66M65.86 105.5c0 .36.3.66.66.66M83.87 106.16c.36 0 .66-.29.66-.66M124.51 126.37h-17.36"/></g><path fill="none" stroke="#6a6a6a" stroke-linecap="round" stroke-linejoin="round" stroke-width=".25" d="M86.42 50.09v-2.22m0 0h-.63m0 0h-12.6m0 0h-.63m0 0v2.22M72.55 45.35v2.51m0 0h.63m0 0v-2.37m0 0h-.04m0 0-.22.14m0 0-.25-.06m0 0-.12-.23M73.14 43.62l-.22.14m0 0-.25-.06m0 0-.12-.23m0 0v1.88m0 0 .12.23m0 0 .25.06m0 0 .22-.14m0 0h12.69m0 0 .22.14m0 0 .25-.06m0 0 .12-.23m0 0v-1.88m0 0-.12.23m0 0-.25.06m0 0-.22-.14m0 0H73.14M86.42 45.35l-.12.23m0 0-.25.06m0 0-.22-.14m0 0h-.04m0 0v2.37m0 0h.63m0 0v-2.51"/><path fill="#fff" fill-rule="evenodd" d="m85.2 43.32-.74-.17h-9.95l-.74.17H85.2z"/><path fill="none" stroke="#6a6a6a" stroke-linecap="round" stroke-linejoin="round" stroke-width=".25" d="M73.77 43.32h11.42m0 0-.74-.17m0 0H74.5m0 0-.74.17M73.14 43.32l-.22-.14m0 0-.25.06m0 0-.12.23m0 0 .12.23m0 0 .25.06m0 0 .22-.15m0 0h12.69m0 0 .22.15m0 0 .25-.06m0 0 .12-.23m0 0-.12-.23m0 0-.25-.06m0 0-.22.14m0 0H73.14M102.5 50.09v-2.22m0 0h-.63m0 0h-12.6m0 0h-.63m0 0v2.22M88.64 45.35v2.51m0 0h.63m0 0v-2.37m0 0h-.04m0 0-.22.14m0 0-.25-.06m0 0-.12-.23M89.22 43.62l-.22.14m0 0-.25-.06m0 0-.12-.23m0 0v1.88m0 0 .12.23m0 0 .25.06m0 0 .22-.14m0 0h12.69m0 0 .22.14m0 0 .25-.06m0 0 .12-.23m0 0v-1.88m0 0-.12.23m0 0-.25.06m0 0-.22-.14m0 0H89.22M102.5 45.35l-.12.23m0 0-.25.06m0 0-.22-.14m0 0h-.04m0 0v2.37m0 0h.63m0 0v-2.51"/><path fill="#fff" fill-rule="evenodd" d="m101.28 43.32-.74-.17H90.6l-.74.17h11.42z"/><path fill="none" stroke="#6a6a6a" stroke-linecap="round" stroke-linejoin="round" stroke-width=".25" d="M89.86 43.32h11.42m0 0-.74-.17m0 0h-9.95m0 0-.74.17M89.22 43.32l-.22-.14m0 0-.25.06m0 0-.12.23m0 0 .12.23m0 0 .25.06m0 0 .22-.15m0 0h12.69m0 0 .22.15m0 0 .25-.06m0 0 .12-.23m0 0-.12-.23m0 0-.25-.06m0 0-.22.14m0 0H89.22M86.42 75.04v2.22m0 0h-.63m0 0h-12.6m0 0h-.63m0 0v-2.22M73.14 81.51l-.22-.14m0 0-.25.06m0 0-.12.23m0 0v-1.88m0 0 .12-.23m0 0 .25-.06m0 0 .22.14m0 0h12.69m0 0 .22-.14m0 0 .25.06m0 0 .12.23m0 0v1.88m0 0-.12-.23m0 0-.25-.06m0 0-.22.14m0 0H73.14M86.42 79.78l-.12-.23m0 0-.25-.06m0 0-.22.14m0 0h-.04m0 0v-2.37m0 0h.63m0 0v2.52"/><path fill="#fff" fill-rule="evenodd" d="M74.51 81.98h9.95l.74-.17H73.77l.74.17z"/><path fill="none" stroke="#6a6a6a" stroke-linecap="round" stroke-linejoin="round" stroke-width=".25" d="M73.77 81.81h11.42m0 0-.74.17m0 0H74.5m0 0-.74-.17M73.14 81.81l-.22.14m0 0-.25-.06m0 0-.12-.23m0 0 .12-.23m0 0 .25-.06m0 0 .22.14m0 0h12.69m0 0 .22-.14m0 0 .25.06m0 0 .12.23m0 0-.12.23m0 0-.25.06m0 0-.22-.14m0 0H73.14M102.5 75.04v2.22m0 0h-.63m0 0h-12.6m0 0h-.63m0 0v-2.22M88.64 79.78v-2.52m0 0h.63m0 0v2.37m0 0h-.04m0 0-.22-.14m0 0-.25.06m0 0-.12.23M89.22 81.51l-.22-.14m0 0-.25.06m0 0-.12.23m0 0v-1.88m0 0 .12-.23m0 0 .25-.06m0 0 .22.14m0 0h12.69m0 0 .22-.14m0 0 .25.06m0 0 .12.23m0 0v1.88m0 0-.12-.23m0 0-.25-.06m0 0-.22.14m0 0H89.22M102.5 79.78l-.12-.23m0 0-.25-.06m0 0-.22.14m0 0h-.04m0 0v-2.37m0 0h.63m0 0v2.52"/><path fill="#fff" fill-rule="evenodd" d="M90.59 81.98h9.95l.74-.17H89.86l.73.17z"/><path fill="none" stroke="#6a6a6a" stroke-linecap="round" stroke-linejoin="round" stroke-width=".25" d="M89.86 81.81h11.42m0 0-.74.17m0 0h-9.95m0 0-.74-.17M89.22 81.81l-.22.14m0 0-.25-.06m0 0-.12-.23m0 0 .12-.23m0 0 .25-.06m0 0 .22.14m0 0h12.69m0 0 .22-.14m0 0 .25.06m0 0 .12.23m0 0-.12.23m0 0-.25.06m0 0-.22-.14m0 0H89.22M104.72 50.09v-2.22m0 0h.63m0 0h12.6m0 0h.63m0 0v2.22M118.58 45.35v2.51m0 0h-.63m0 0v-2.37m0 0h.04m0 0 .22.14m0 0 .25-.06m0 0 .12-.23M118 43.62l.22.14m0 0 .25-.06m0 0 .12-.23m0 0v1.88m0 0-.12.23m0 0-.25.06m0 0-.22-.14m0 0h-12.69m0 0-.22.14m0 0-.25-.06m0 0-.12-.23m0 0v-1.88m0 0 .12.23m0 0 .25.06m0 0 .22-.14m0 0H118M104.72 45.35l.12.23m0 0 .25.06m0 0 .22-.14m0 0h.04m0 0v2.37m0 0h-.63m0 0v-2.51"/><path fill="#fff" fill-rule="evenodd" d="m117.36 43.32-.73-.17h-9.95l-.74.17h11.42z"/><path fill="none" stroke="#6a6a6a" stroke-linecap="round" stroke-linejoin="round" stroke-width=".25" d="M117.36 43.32h-11.42m0 0 .74-.17m0 0h9.95m0 0 .74.17M118 43.32l.22-.14m0 0 .25.06m0 0 .12.23m0 0-.12.23m0 0-.25.06m0 0-.22-.15m0 0h-12.69m0 0-.22.15m0 0-.25-.06m0 0-.12-.23m0 0 .12-.23m0 0 .25-.06m0 0 .22.14m0 0H118M104.72 75.04v2.22m0 0h.63m0 0h12.6m0 0h.63m0 0v-2.22M118.58 79.78v-2.52m0 0h-.63m0 0v2.37m0 0h.04m0 0 .22-.14m0 0 .25.06m0 0 .12.23M118 81.51l.22-.14m0 0 .25.06m0 0 .12.23m0 0v-1.88m0 0-.12-.23m0 0-.25-.06m0 0-.22.14m0 0h-12.69m0 0-.22-.14m0 0-.25.06m0 0-.12.23m0 0v1.88m0 0 .12-.23m0 0 .25-.06m0 0 .22.14m0 0H118M104.72 79.78l.12-.23m0 0 .25-.06m0 0 .22.14m0 0h.04m0 0v-2.37m0 0h-.63m0 0v2.52"/><path fill="#fff" fill-rule="evenodd" d="M106.68 81.98h9.95l.73-.17h-11.42l.74.17z"/><path fill="none" stroke="#6a6a6a" stroke-linecap="round" stroke-linejoin="round" stroke-width=".25" d="M117.36 81.81h-11.42m0 0 .74.17m0 0h9.95m0 0 .74-.17M118 81.81l.22.14m0 0 .25-.06m0 0 .12-.23m0 0-.12-.23m0 0-.25-.06m0 0-.22.14m0 0h-12.69m0 0-.22-.14m0 0-.25.06m0 0-.12.23m0 0 .12.23m0 0 .25.06m0 0 .22-.14m0 0H118M124.63 75.04V50.08m0 0H66.4m0 0v24.96m0 0h58.23M72.55 79.78v-2.52m0 0h.63m0 0v2.37m0 0h-.04m0 0-.22-.14m0 0-.25.06m0 0-.12.23"/><g fill="none" stroke="#6a6a6a" stroke-linecap="round" stroke-linejoin="round" stroke-width=".25"><path d="M242.63 129.73V113m0 0h16.76m0 0v16.73m0 0h-16.76M253.71 121.36h-5.4M252.92 123.33l-3.82-3.94M251.01 124.15v-5.58M249.1 123.33l3.82-3.94"/></g><path fill="none" stroke="#6a6a6a" stroke-linecap="round" stroke-linejoin="round" stroke-width=".25" d="M246.38 86.73v-12.8m0 0 .14-.36m0 0 .34-.15m0 0h11.19m0 0 .34.15m0 0 .14.36m0 0v12.8m0 0-.14.35m0 0-.34.15m0 0h-11.19m0 0-.34-.15m0 0-.14-.35M247.6 85.47V75.18M248.08 74.68h7.54M256.11 75.18v10.29M255.62 85.97h-7.54"/><path fill="#999" fill-rule="evenodd" d="M247.6 85.47v.07s-.07-.03-.07-.07.03-.07.07-.07.07.03.07.07-.03.07-.07.07v-.07Z"/><path fill="none" stroke="#6a6a6a" stroke-linecap="round" stroke-linejoin="round" stroke-width=".25" d="M248.08 74.68a.5.5 0 0 0-.49.5M256.11 75.18c0-.28-.22-.5-.49-.5M255.62 85.97c.27 0 .49-.22.49-.5M247.6 85.47c0 .28.22.5.49.5M253 80.55l-.15-.07m0 0-.06-.16m0 0 .06-.16m0 0 .16-.07m0 0h4.81m0 0 .15.07m0 0 .06.16m0 0-.06.16m0 0-.15.07m0 0h-4.81M256.57 80.83v-.27m0 0h1.24m0 0 .15-.07m0 0 .06-.16m0 0-.06-.16m0 0-.15-.07m0 0h-1.24m0 0v-.27m0 0h1.58m0 0v1m0 0h-1.58M255.69 80.82v-.27m0 0h.85m0 0v.27m0 0h-.85M255.69 79.83h.85m0 0v.27m0 0h-.85m0 0v-.27M242.58 32.62v97.1m0 0h16.81m0 0v-97.1m0 0h-16.81"/><g fill="none" stroke="#6a6a6a" stroke-linecap="round" stroke-linejoin="round" stroke-width=".25"><path d="M245.26 62.87V48.31m0 0h12.3m0 0v14.56m0 0h-12.3M252.76 55.59h3.52M256.28 55.59v-.72M252.76 55.59v-.72M252.76 49.71h3.52M256.28 50.44v-.73M252.76 50.44v-.73M254.66 61.56c1.01 0 1.82-.82 1.82-1.82s-.82-1.82-1.82-1.82-1.82.82-1.82 1.82.81 1.82 1.82 1.82ZM249.19 61.53c1.46 0 2.64-1.18 2.64-2.64s-1.18-2.64-2.64-2.64-2.64 1.18-2.64 2.64 1.18 2.64 2.64 2.64Z"/><path d="M249.19 60.4c.83 0 1.51-.67 1.51-1.51s-.67-1.51-1.51-1.51-1.51.67-1.51 1.51.67 1.51 1.51 1.51ZM254.54 54.41c.97 0 1.76-.79 1.76-1.76s-.79-1.76-1.76-1.76-1.76.79-1.76 1.76.79 1.76 1.76 1.76ZM248.83 54.17c1.25 0 2.26-1.01 2.26-2.26s-1.01-2.26-2.26-2.26-2.26 1.01-2.26 2.26 1.01 2.26 2.26 2.26Z"/></g><g fill="none" stroke="#6a6a6a" stroke-linecap="round" stroke-linejoin="round" stroke-width=".25"><path d="M246.26 106.25c0-1.4 1.1-2.53 2.45-2.53s2.45 1.13 2.45 2.53-1.1 2.53-2.45 2.53-2.45-1.13-2.45-2.53Z"/><path d="M246.63 106.25c0-1.18.93-2.14 2.08-2.14s2.08.96 2.08 2.14-.93 2.14-2.08 2.14-2.08-.96-2.08-2.14ZM251.39 106.87c0-1.06.83-1.91 1.85-1.91s1.85.86 1.85 1.91-.83 1.91-1.85 1.91-1.85-.86-1.85-1.91Z"/><path d="M252.2 106.87c0-.59.46-1.07 1.04-1.07s1.04.48 1.04 1.07-.47 1.07-1.04 1.07-1.04-.48-1.04-1.07ZM245.79 107.89h.69m0 0v.89m0 0h9m0 0v-.89m0 0h.69M246.84 100.47h6.92m0 0v.35m0 0h-.52m0 0v-.18m0 0h-5.88m0 0v.18m0 0h-.52m0 0v-.35M246.84 100.83l.03.08m.1.23.03.08m.1.23.03.08m.1.23.03.08m.1.23.03.08m.1.23.03.08m.1.23.03.08m.1.23.03.08m.1.23.03.08M253.76 100.83l-.03.08m-.1.23-.03.08m-.1.23-.03.08m-.1.23-.03.08m-.1.23-.03.08m-.1.23-.03.08m-.1.23-.03.08m-.1.23-.03.08m-.1.23-.03.08M246.84 100.83h.06m.08 0h.08m.08 0h.08m.08 0h.06m0 0 .03.04m.15.2.05.07m.15.19.05.07m.15.2.05.07m.15.2.05.07m.15.2.05.07m.15.2.05.07m.15.2.05.07m.15.2.05.07m.15.2.05.07m.15.2.05.07m.15.2.03.04M253.76 100.83h-.06m-.08 0h-.08m-.08 0h-.08m-.08 0h-.06m0 0-.03.04m-.15.2-.05.07m-.15.19-.05.07m-.15.2-.05.07m-.15.2-.05.07m-.15.2-.05.07m-.15.2-.05.07m-.15.2-.05.07m-.15.2-.05.07m-.15.2-.05.07m-.15.2-.05.07m-.15.2-.03.04M259.39 113.03v-16.8m0 0h-16.83m0 0v16.8m0 0h16.83"/></g><g fill="none" stroke="#6a6a6a" stroke-linecap="round" stroke-linejoin="round" stroke-width=".25"><path d="M56.86 218.41h4.39m0 0h.45m0 0 .43-.03m0 0 .4-.05m0 0 .36-.07m0 0h.01m0 0 .32-.08m0 0 .26-.1m0 0h.02m0 0 .19-.11m0 0h.02m0-.01.12-.12m0 0v-.02m.01 0v-.02m.01 0v-.02m0 0 .04-.12m0 0v-.02m0 0h0m0-.01v-1.21m0 0h1.1m0 0v-4.16m-11.88 0v4.16m0 0h1.1m0 0v1.21m0 0h0m0 .01v.02m0 0 .04.12m0 0v.02m0 0v.02m.01 0v.02m.01 0 .12.12m0 0h.02m0 .01.19.11m0 0h.02m0 0 .26.1m0 0 .32.09m0 0h.01m0 0 .36.07m0 0 .4.05m0 0 .43.03m0 0h.45M63.9 215.67h-9.68M63.77 215.67v.96M54.35 215.67v.96M54.22 212.22v4.16M63.9 212.22v4.16M61.26 217.31h-4.4M63.77 216.63c0 .38-1.12.68-2.51.68M56.86 217.31c-1.39 0-2.51-.31-2.51-.69M82.86 212.16H40.28v-16.08h42.58z"/></g><g fill="none" stroke="#6a6a6a" stroke-linecap="round" stroke-linejoin="round" stroke-width=".25"><path d="M62.31 283.31v-24.6m0 0h54.93m0 0v24.6m0 0H62.31M60.94 281.94v-21.85m0 0 .1-.53m0 0 .3-.45m0 0 .45-.3m0 0 .53-.1m0 0v24.6m0 0-.53-.1m0 0-.45-.3m0 0-.3-.45m0 0-.1-.53M119.98 283.31v-24.6m0 0h-2.75m0 0v24.6m0 0h2.75M119.98 258.71v24.6m0 0h-1.37m0 0v-24.6m0 0h1.37M115.87 261.72v18.67m0 0-.08.19m0 0-.19.08m0 0h-9.06m0 0-.19-.08m0 0-.08-.19m0 0v-18.67m0 0 .08-.19m0 0 .19-.08m0 0h9.06m0 0 .19.08m0 0 .08.19M107 283.31v-2.64M107 261.45v-2.7M103.36 283.31v-24.6m0 0H89.78m0 0 10.83 24.6m0 0h2.75"/></g><path fill="none" stroke="#6a6a6a" stroke-linecap="round" stroke-linejoin="round" stroke-width=".25" d="M200.42 79.93h-2.22m0 0v-.63m0 0V66.7m0 0v-.63m0 0h2.22M193.95 66.65l.14-.22m0 0-.06-.25m0 0-.23-.12m0 0h1.88m0 0 .23.12m0 0 .06.25m0 0-.14.22m0 0v12.69m0 0 .14.22m0 0-.06.25m0 0-.23.12m0 0h-1.88m0 0 .23-.12m0 0 .06-.25m0 0-.14-.22m0 0V66.65M195.68 79.93l.23-.12m0 0 .06-.25m0 0-.14-.22m0 0v-.04m0 0h2.37m0 0v.63m0 0h-2.52"/><path fill="#fff" fill-rule="evenodd" d="M193.49 68.02v9.95l.17.73V67.28l-.17.74z"/><path fill="none" stroke="#6a6a6a" stroke-linecap="round" stroke-linejoin="round" stroke-width=".25" d="M193.66 67.28V78.7m0 0-.17-.74m0 0v-9.95m0 0 .17-.74M193.66 66.65l-.14-.22m0 0 .06-.25m0 0 .23-.12m0 0 .23.12m0 0 .06.25m0 0-.14.22m0 0v12.69m0 0 .14.22m0 0-.06.25m0 0-.23.12m0 0-.23-.12m0 0-.06-.25m0 0 .14-.22m0 0V66.65M200.42 96.01h-2.22m0 0v-.63m0 0v-12.6m0 0v-.63m0 0h2.22M195.68 82.14h2.52m0 0v.63m0 0h-2.37m0 0v-.04m0 0 .14-.22m0 0-.06-.25m0 0-.23-.12M193.95 82.73l.14-.21m0 0-.06-.25m0 0-.23-.12m0 0h1.88m0 0 .23.12m0 0 .06.25m0 0-.14.21m0 0v12.69m0 0 .14.22m0 0-.06.25m0 0-.23.12m0 0h-1.88m0 0 .23-.12m0 0 .06-.25m0 0-.14-.22m0 0V82.73M195.68 96.01l.23-.12m0 0 .06-.25m0 0-.14-.22m0 0v-.04m0 0h2.37m0 0v.63m0 0h-2.52"/><path fill="#fff" fill-rule="evenodd" d="M193.49 84.1v9.95l.17.74V83.37l-.17.73z"/><path fill="none" stroke="#6a6a6a" stroke-linecap="round" stroke-linejoin="round" stroke-width=".25" d="M193.66 83.37v11.42m0 0-.17-.74m0 0V84.1m0 0 .17-.74M193.66 82.73l-.14-.21m0 0 .06-.25m0 0 .23-.12m0 0 .23.12m0 0 .06.25m0 0-.14.21m0 0v12.69m0 0 .14.22m0 0-.06.25m0 0-.23.12m0 0-.23-.12m0 0-.06-.25m0 0 .14-.22m0 0V82.73M200.42 98.23h-2.22m0 0v.63m0 0v12.6m0 0v.63m0 0h2.22M195.68 112.09h2.52m0 0v-.63m0 0h-2.37m0 0v.04m0 0 .14.22m0 0-.06.25m0 0-.23.12M193.95 111.5l.14.22m0 0-.06.25m0 0-.23.12m0 0h1.88m0 0 .23-.12m0 0 .06-.25m0 0-.14-.22m0 0V98.81m0 0 .14-.21m0 0-.06-.25m0 0-.23-.12m0 0h-1.88m0 0 .23.12m0 0 .06.25m0 0-.14.21m0 0v12.69M195.68 98.23l.23.12m0 0 .06.25m0 0-.14.22m0 0v.04m0 0h2.37m0 0v-.63m0 0h-2.52"/><path fill="#fff" fill-rule="evenodd" d="M193.49 100.19v9.95l.17.73V99.45l-.17.74z"/><path fill="none" stroke="#6a6a6a" stroke-linecap="round" stroke-linejoin="round" stroke-width=".25" d="M193.66 110.87V99.45m0 0-.17.74m0 0v9.95m0 0 .17.74M193.66 111.5l-.14.22m0 0 .06.25m0 0 .23.12m0 0 .23-.12m0 0 .06-.25m0 0-.14-.22m0 0V98.81m0 0 .14-.21m0 0-.06-.25m0 0-.23-.12m0 0-.23.12m0 0-.06.25m0 0 .14.21m0 0v12.69M200.42 118.14h24.96m0 0V59.91m0 0h-24.96m0 0v58.23M195.69 66.06h2.52m0 0v.63m0 0h-2.37m0 0v-.04m0 0 .14-.22m0 0-.06-.25m0 0-.23-.12"/><g fill="none" stroke="#6a6a6a" stroke-linecap="round" stroke-linejoin="round" stroke-width=".25"><path d="M191.43 330.97v14.19m0 0h67.29m0 0v-14.19m0 0h-67.29M258.72 338.18v.45m0 0h-67.29m0 0v-.45m0 0h67.29M196.05 343.97v-11.11m0 0h.47m0 0v11.11m0 0h-.47M197.29 343.97v-11.11m0 0h.47m0 0v11.11m0 0h-.47M198.54 343.97v-11.11m0 0h.47m0 0v11.11m0 0h-.47M199.78 343.97v-11.11m0 0h.47m0 0v11.11m0 0h-.47M202.42 343.89l-1.39-11.02m0 0 .47-.05m0 0 1.39 11.02m0 0-.47.05"/></g><g fill="none" stroke="#6a6a6a" stroke-linecap="round" stroke-linejoin="round" stroke-width=".25"><path d="M191.43 379.69v11.41m0 0h57.25m0 0v-11.41m0 0h-57.25M248.67 385.48v.36m0 0h-57.25m0 0v-.36m0 0h57.25M195.14 390.14v-8.92m0 0h.38m0 0v8.92m0 0h-.38M196.14 390.14v-8.92m0 0h.38m0 0v8.92m0 0h-.38M197.14 390.14v-8.92m0 0h.38m0 0v8.92m0 0h-.38M198.14 390.14v-8.92m0 0h.38m0 0v8.92m0 0h-.38M200.26 390.07l-1.12-8.86m0 0 .37-.04m0 0 1.12 8.86m0 0-.37.04"/></g><g fill="none" stroke="#6a6a6a" stroke-linecap="round" stroke-linejoin="round" stroke-width=".25"><path d="M244.3 379.69h14.42m0 0v-34.53m0 0H244.3m0 0v34.53M251.62 345.16h.46m0 0v34.53m0 0h-.46m0 0v-34.53M257.51 374.99h-11.28m0 0v-.48m0 0h11.28m0 0v.48M257.51 373.73h-11.28m0 0v-.48m0 0h11.28m0 0v.48M257.51 372.47h-11.28m0 0v-.48m0 0h11.28m0 0v.48M257.51 371.2h-11.28m0 0v-.48m0 0h11.28m0 0v.48M257.43 368.52l-11.2 1.41m0 0-.06-.47m0 0 11.2-1.41m0 0 .06.47"/></g><g fill="#fff" stroke="#6a6a6a" stroke-linecap="round" stroke-linejoin="round" stroke-width=".25"><path d="m220.58 312.25-.04 1.24-.89 8.42h-7.74l-.89-8.42-.04-1.24.15-1.23.34-1.2.52-1.13.7-.89.91-.68 1.05-.44 1.13-.15 1.13.15 1.05.44.91.68.7.89.52 1.13.34 1.2.15 1.23zM218.77 317.75h-2.99M215.78 317.75h-2.99"/><path d="M215.78 306.74c.8 0 1.58.23 2.23.64M218 307.39c1.61 1.25 2.48 3.08 2.36 4.96M220.36 312.35c.05 1.9-.5 3.77-1.59 5.4M212.79 317.75c-1.09-1.64-1.65-3.51-1.59-5.4M211.19 312.35c-.12-1.88.75-3.71 2.36-4.96M213.55 307.39c.65-.41 1.42-.64 2.23-.64M214.7 248.95l-.04 1.24-.89 8.42h-7.74l-.89-8.42-.04-1.24.15-1.23.34-1.2.52-1.13.7-.89.91-.68 1.05-.44 1.13-.15 1.13.15 1.05.44.91.68.7.89.52 1.13.34 1.2.15 1.23zM212.89 254.45h-2.99M209.9 254.45h-2.99"/><path d="M209.9 243.44c.8 0 1.58.23 2.23.64M212.13 244.08c1.61 1.25 2.48 3.08 2.36 4.96"/><path d="M214.49 249.04c.05 1.9-.5 3.77-1.59 5.4M206.91 254.45c-1.09-1.64-1.65-3.51-1.59-5.4M205.32 249.04c-.12-1.88.75-3.71 2.36-4.96M207.68 244.08c.65-.41 1.42-.64 2.23-.64M258.44 305.24h-9.4l-.27-.12-.11-.27v-15.38l.11-.26.27-.11h9.4l.27.11.11.26v15.38l-.11.27-.27.12zM256.02 290.24v6.62m0 .61v6.62M255.64 304.47h-5.84M249.42 304.09v-13.85M249.8 289.86h5.84"/><path d="M255.64 304.47c.21 0 .38-.17.38-.38M249.42 304.09c0 .21.17.38.38.38M249.8 289.86a.38.38 0 0 0-.38.38M256.02 290.24a.38.38 0 0 0-.38-.38M254.42 296.86c-.09-.12-.24-.2-.41-.2s-.31.08-.41.2h.81Zm-.81.61c.09.12.24.2.41.2s.31-.08.41-.2h-.81ZM258.46 297.47v-.61m0 0h-5.21m0 0-.2.17m0 0v.27m0 0 .2.17m0 0h5.21M257.55 294.97h1.09m0 0v.06m0 0h.09m0 0v.19m0 0h.09m0 0v-1.27m0 0h-.09m0 0v.19m0 0h-.09m0 0v.06m0 0h-1.09m0 0v.22m0 0h-.28m0 0v-.73m0 0h-.33m0 0v1.78m0 0h.33m0 0v-.72m0 0h.28m0 0v.22M257.55 299.36h1.09m0 0v-.06m0 0h.09m0 0v-.19m0 0h.09m0 0v1.27m0 0h-.09m0 0v-.19m0 0h-.09m0 0v-.06m0 0h-1.09m0 0v-.22m0 0h-.28m0 0v.72m0 0h-.33m0 0v-1.78m0 0h.33m0 0v.72m0 0h.28m0 0v-.22M257.27 294.42l-.05.05M257.27 294.75l-.05-.05M257.55 294.42v.33M257.27 299.91l-.05-.05M257.27 299.58l-.05.05M257.55 299.91v-.33M257.27 294.59c0-.09-.07-.17-.17-.17s-.16.07-.16.17.07.17.16.17.17-.07.17-.17ZM257.27 299.75c0-.09-.07-.16-.17-.16s-.16.07-.16.16.07.17.16.17.17-.07.17-.17ZM242.45 235.32h-9.41l-.27-.12-.11-.27v-15.37l.11-.27.27-.11h9.41l.27.11.11.27v15.37l-.11.27-.27.12zM240.03 220.32v6.62m0 .61v6.62M239.65 234.55h-5.85M233.42 234.17v-13.85M233.8 219.94h5.85"/><path d="M239.65 234.55c.21 0 .38-.17.38-.38M233.42 234.17c0 .21.17.38.38.38M233.8 219.94a.38.38 0 0 0-.38.38M240.03 220.32a.38.38 0 0 0-.38-.38M238.43 226.94c-.09-.12-.24-.2-.41-.2s-.31.08-.41.2h.81Zm-.81.61c.09.12.24.2.41.2s.31-.08.41-.2h-.81ZM242.47 227.55v-.61m0 0h-5.21m0 0-.2.17m0 0v.27m0 0 .2.17m0 0h5.21M241.56 225.05h1.09m0 0v.06m0 0h.09m0 0v.19m0 0h.09m0 0v-1.27m0 0h-.09m0 0v.19m0 0h-.09m0 0v.06m0 0h-1.09m0 0v.22m0 0h-.28m0 0v-.73m0 0h-.33m0 0v1.78m0 0h.33m0 0v-.72m0 0h.28m0 0v.22M241.56 229.45h1.09m0 0v-.06m0 0h.09m0 0v-.19m0 0h.09m0 0v1.27m0 0h-.09m0 0v-.19m0 0h-.09m0 0v-.06m0 0h-1.09m0 0V230m0 0h-.28m0 0v.72m0 0h-.33m0 0v-1.78m0 0h.33m0 0v.72m0 0h.28m0 0v-.22M241.28 224.5l-.05.05M241.28 224.83l-.05-.05M241.56 224.5v.33M241.28 229.99l-.05-.05M241.28 229.66l-.05.05M241.56 229.99v-.33M241.28 224.67c0-.09-.07-.17-.17-.17s-.16.07-.16.17.07.17.16.17.17-.07.17-.17ZM241.28 229.83c0-.09-.07-.16-.17-.16s-.16.07-.16.16.07.17.16.17.17-.07.17-.17ZM258.44 321.37l-9.4.01-.27-.12-.11-.26v-15.38l.11-.27.27-.11h9.4l.27.11.11.27V321l-.11.26-.27.11zM256.02 306.38V313m0 .61v6.62M255.64 320.61h-5.84M249.42 320.23v-13.85M249.8 306h5.84"/><path d="M255.64 320.61c.21 0 .38-.17.38-.38M249.42 320.23c0 .21.17.38.38.38M249.8 306a.38.38 0 0 0-.38.38M256.02 306.38a.38.38 0 0 0-.38-.38M254.42 313c-.09-.12-.24-.2-.41-.2s-.31.08-.41.2h.81Zm-.81.61c.09.12.24.2.41.2s.31-.08.41-.2h-.81ZM258.46 313.61V313m0 0h-5.21m0 0-.2.17m0 0v.27m0 0 .2.17m0 0h5.21M257.55 311.11h1.09m0 0v.06m0 0h.09m0 0v.19m0 0h.09m0 0v-1.27m0 0h-.09m0 0v.19m0 0h-.09m0 0v.06m0 0h-1.09m0 0v.22m0 0h-.28m0 0v-.73m0 0h-.33m0 0v1.78m0 0h.33m0 0v-.72m0 0h.28m0 0v.22M257.55 315.51h1.09m0 0v-.06m0 0h.09m0 0v-.19m0 0h.09m0 0v1.27m0 0h-.09m0 0v-.19m0 0h-.09m0 0v-.06m0 0h-1.09m0 0v-.22m0 0h-.28m0 0v.72m0 0h-.33m0 0V315m0 0h.33m0 0v.72m0 0h.28m0 0v-.22M257.27 310.56l-.05.05M257.27 310.89l-.05-.04M257.55 310.56v.33M257.27 316.05l-.05-.05M257.27 315.72l-.05.05M257.55 316.05v-.33M257.27 310.73c0-.09-.07-.17-.17-.17s-.16.07-.16.17.07.17.16.17.17-.07.17-.17ZM257.27 315.89c0-.09-.07-.16-.17-.16s-.16.07-.16.16.07.17.16.17.17-.07.17-.17ZM248.61 268.17h-48.89v21.09h48.89m0 0v-21.09M242.9 287.57l.71-.06m0 0 .69-.19m0 0 .64-.31m0 0 .58-.42m0 0 .5-.52m0 0 .41-.6m0 0 .3-.67m0 0 .18-.71m0 0 .06-.73m0 0v-9.28m0 0-.06-.73m0 0-.18-.71m0 0-.3-.67m0 0-.41-.6m0 0-.5-.52m0 0-.58-.42m0 0-.64-.31m0 0-.69-.19m0 0-.71-.06m0 0h-33m0 0-1.49.13m0 0-1.44.4m0 0-1.35.65m0 0-1.22.89m0 0-1.06 1.09m0 0-.86 1.26m0 0-.63 1.4m0 0-.39 1.49m0 0-.13 1.54m0 0 .13 1.54m0 0 .39 1.49m0 0 .63 1.4m0 0 .86 1.27m0 0 1.06 1.09m0 0 1.22.89m0 0 1.35.65m0 0 1.44.4m0 0 1.49.13m0 0h33"/><path d="M242.56 278.71c0-.41-.31-.74-.7-.74s-.7.33-.7.74.31.74.7.74.7-.33.7-.74ZM243.02 190.44h-51.59v22.26h51.59m0 0v-22.26M237 210.92l.75-.07m0 0 .72-.2m0 0 .68-.33m0 0 .61-.45m0 0 .53-.55m0 0 .43-.64m0 0 .32-.7m0 0 .19-.75m0 0 .07-.77m0 0v-9.79m0 0-.07-.77m0 0-.19-.75m0 0-.32-.7m0 0-.43-.64m0 0-.53-.55m0 0-.61-.44m0 0-.68-.33m0 0-.72-.2m0 0-.75-.07m0 0h-34.82m0 0-1.57.14m0 0-1.52.42m0 0-1.43.69m0 0-1.29.94m0 0-1.11 1.15m0 0-.9 1.33m0 0-.67 1.48m0 0-.41 1.57m0 0-.14 1.62m0 0 .14 1.62m0 0 .41 1.57m0 0 .67 1.48m0 0 .9 1.33m0 0 1.11 1.15m0 0 1.29.93m0 0 1.43.69m0 0 1.52.42m0 0 1.57.14m0 0H237"/><path d="M236.64 201.57c0-.43-.33-.78-.74-.78s-.74.35-.74.78.33.78.74.78.74-.35.74-.78Z"/></g><g fill="none" stroke="#6a6a6a" stroke-linecap="round" stroke-linejoin="round" stroke-width=".25"><path d="M281.84 190.46v13.11m0 0h-36.01m0 0v-13.11m0 0h36.01M245.84 197.11v.42m0 0h36.01m0 0v-.42m0 0h-36.01M277.58 202.47v-10.25m0 0h-.43m0 0v10.25m0 0h.43M276.43 202.47v-10.25m0 0H276m0 0v10.25m0 0h.43M275.28 202.47v-10.25m0 0h-.43m0 0v10.25m0 0h.43M274.13 202.47v-10.25m0 0h-.43m0 0v10.25m0 0h.43M271.69 202.39l1.29-10.18m0 0-.43-.05m0 0-1.29 10.18m0 0 .43.05"/></g><g fill="none" stroke="#6a6a6a" stroke-linecap="round" stroke-linejoin="round" stroke-width=".25"><path d="M281.88 251.3v14.1m0 0h-36.12m0 0v-14.1m0 0h36.12M245.75 258.47v.45m0 0h36.12m0 0v-.45m0 0h-36.12M277.29 264.22v-11.03m0 0h-.47m0 0v11.03m0 0h.47M276.05 264.22v-11.03m0 0h-.47m0 0v11.03m0 0h.47M274.81 264.22v-11.03m0 0h-.47m0 0v11.03m0 0h.47M273.57 264.22v-11.03m0 0h-.47m0 0v11.03m0 0h.47M270.95 264.14l1.38-10.95m0 0-.46-.05m0 0-1.38 10.95m0 0 .46.05"/></g><g fill="none" stroke="#6a6a6a" stroke-linecap="round" stroke-linejoin="round" stroke-width=".25"><path d="M259.18 211.64c0 2.81-2.33 5.08-5.2 5.08s-5.2-2.27-5.2-5.08 2.33-5.08 5.2-5.08 5.2 2.27 5.2 5.08ZM258.33 211.27l-.89.32m0 0h-.95m0 0-.89-.32m0 0-1.07.24m0 0h-1.1m0 0-1.07-.24m0 0-.9.32m0 0h-.95m0 0-.89-.32m0 0 1.62 2.11m0 0h5.48m0 0 1.62-2.11M256.71 213.57h-5.48m0 0v-.18m0 0h5.48m0 0v.18M256.71 213.94h-5.48m0 0v-.19m0 0h5.48m0 0v.19M253.36 210.2l.65-.06m0 0 .02.16m0 0-.35.03m0 0 1 .81m0 0-.09.11m0 0-.46-.37m0 0-.05.06m0 0 .54.43m0 0-.09.1m0 0-.54-.43m0 0-.06.07m0 0 .44.35m0 0-.08.09m0 0-.44-.35m0 0-.06.07m0 0 .3.24m0 0-.08.1m0 0-1.03-.83M262.19 203.62h-16.44m0 0v16.04m0 0h16.44m0 0v-16.04M262.19 219.66h-16.44m0 0v31.47m0 0h16.44m0 0v-31.47"/></g><g fill="none" stroke="#6a6a6a" stroke-linecap="round" stroke-linejoin="round" stroke-width=".25"><path d="M334.36 254.16h16.81m0 0v-54.63m0 0h-16.81m0 0v54.63M342.9 199.53h.53m0 0v54.63m0 0h-.53m0 0v-54.63M349.77 248.57h-13.15m0 0V248m0 0h13.15m0 0v.57M349.77 247.07h-13.15m0 0v-.57m0 0h13.15m0 0v.57M349.77 245.56h-13.15m0 0v-.57m0 0h13.15m0 0v.57M349.77 244.06h-13.15m0 0v-.57m0 0h13.15m0 0v.57M349.67 240.87l-13.06 1.68m0 0-.06-.56m0 0 13.06-1.68m0 0 .06.56"/></g><g fill="none" stroke="#6a6a6a" stroke-linecap="round" stroke-linejoin="round" stroke-width=".25"><path d="M334.36 199.48h16.81m0 0v-54.22m0 0h-16.81m0 0v54.22M342.9 145.26h.53m0 0v54.22m0 0h-.53m0 0v-54.22M349.77 193.89h-13.15m0 0v-.57m0 0h13.15m0 0v.57M349.77 192.39h-13.15m0 0v-.57m0 0h13.15m0 0v.57M349.77 190.88h-13.15m0 0v-.57m0 0h13.15m0 0v.57M349.77 189.38h-13.15m0 0v-.57m0 0h13.15m0 0v.57M349.67 186.19l-13.06 1.68m0 0-.06-.56m0 0 13.06-1.68m0 0 .06.56"/></g><g fill="none" stroke="#6a6a6a" stroke-linecap="round" stroke-linejoin="round" stroke-width=".25"><path d="M299.99 125.18v17.25m0 0h51.15m0 0v-17.25m0 0h-51.15M351.14 133.94v.55m0 0h-51.15m0 0v-.55m0 0h51.15M305.61 140.98v-13.49m0 0h.57m0 0v13.49m0 0h-.57M307.12 140.98v-13.49m0 0h.57m0 0v13.49m0 0h-.57M308.63 140.98v-13.49m0 0h.57m0 0v13.49m0 0h-.57M310.14 140.98v-13.49m0 0h.57m0 0v13.49m0 0h-.57M313.35 140.88l-1.69-13.4m0 0 .57-.07m0 0 1.69 13.4m0 0-.57.07"/></g><g fill="none" stroke="#6a6a6a" stroke-linecap="round" stroke-linejoin="round" stroke-width=".25"><path d="M287.68 75.11v4.39m0 0v.45m-.01 0-.03.43m0 0-.05.4m0 0-.07.36m0 0h0m0 .01-.08.32m0 0-.1.26m0 0v.02m0 0-.11.19m0 0v.02m-.01 0-.12.12m0 0h-.02m0 .01h-.02m0 .01h-.02m0 0-.12.04m0 0h-.02m0 0h-.01m0 0h-1.21m0 0v1.1m0 0h-4.16m0-11.88h4.16m0 0v1.1m0 0h1.21m0 0h.01m0 0h.02m0 0 .12.04m0 0h.02m0 0h.02m0 .01h.02m0 .01.12.12m0 0v.02m.01 0 .11.19m0 0v.02m0 0 .1.26m0 0 .09.32m0 0h0m0 .01.07.36m0 0 .05.4m0 0 .03.43m0 0v.45M284.94 82.14v-9.68M284.94 82.01h.96M284.94 72.6h.96M281.5 72.46h4.16M281.5 82.14h4.16M286.59 79.5v-4.4M285.9 82.01c.38 0 .69-1.12.69-2.51M286.59 75.1c0-1.39-.31-2.51-.69-2.51M265.36 101.1V58.52h16.08v42.58z"/></g><g fill="none" stroke="#6a6a6a" stroke-linecap="round" stroke-linejoin="round" stroke-width=".25"><path d="M326.58 53.68h24.6m0 0v54.93m0 0h-24.6m0 0V53.68M327.95 52.3h21.85m0 0 .53.1m0 0 .45.3m0 0 .3.45m0 0 .1.53m0 0h-24.6m0 0 .1-.53m0 0 .3-.45m0 0 .45-.3m0 0 .53-.1M326.58 111.35h24.6m0 0v-2.75m0 0h-24.6m0 0v2.75M351.17 111.35h-24.6m0 0v-1.37m0 0h24.6m0 0v1.37M348.17 107.23H329.5m0 0-.19-.08m0 0-.08-.19m0 0V97.9m0 0 .08-.19m0 0 .19-.08m0 0h18.67m0 0 .19.08m0 0 .08.19m0 0v9.06m0 0-.08.19m0 0-.19.08M326.58 98.36h2.64M348.44 98.36h2.7M326.58 94.72h24.6m0 0V81.14m0 0-24.6 10.83m0 0v2.75"/></g><path fill="none" stroke="#6a6a6a" stroke-dasharray="0 0 3 3" stroke-linecap="round" stroke-linejoin="round" stroke-width=".25" d="M200.42 30.78v114.48h42.08"/></g><g id="Walls_Inside" fill="#2d2d2c"><path d="M351.18 30.11h7.61v238.82h-7.61zM248.67 379.69h2.83v16.22h-2.83z"/><path d="M109.09 391.09h151.83v8.47H109.09z"/><path d="M188.59 370.19h2.83v25.13h-2.83zM188.59 313.69h2.83v37.98h-2.83zM188.59 238.33h2.83v55.83h-2.83zM188.59 187.61h2.83v29.24h-2.83zM152.01 187.61h2.83v39.62h-2.83zM152.01 250.92h2.83v33.24h-2.83zM248.67 382.52v-2.83h17.21v2.83zM242.92 187.75h2.83v79h-2.83zM281.84 243.42h2.83v23.33h-2.83zM281.84 187.61h2.83V218h-2.83zM292.5 145.26v-2.83h62.85v2.83zM242.49 145.26v-2.83h28.41v2.83zM242.49 132.65v-2.83h16.93v2.83z"/><path d="M242.5 129.82h2.83v15.4h-2.83zM259.43 106.33h2.83v38.89h-2.83zM334.02 257v-2.83h20.96V257z"/><path d="M334.02 254.16h2.83v13.13h-2.83zM264.26 279.63v2.83h-15.65v-2.83z"/><path d="M248.61 266.17h2.83v16.3h-2.83zM109.59 196.08v-8.47h45.25v8.47zM190.57 190.44v-2.83h94.11v2.83z"/><path d="M190.56 268.17v-2.83h68.09v2.83zM184.17 286.21v-2.83h5.54v2.83zM190.01 330.93v-2.83h72.21v2.83zM190 323.24v-1.9h57.83v1.9zM190 260.21v-1.9h54.46v1.9z"/><path d="M245.94 321.35h1.9v7.9h-1.9zM28.02 286.19v-2.83h131.61v2.83z"/></g><g id="Walls_Outside"><path fill="none" stroke="#000" stroke-linecap="round" stroke-linejoin="round" stroke-width=".22" d="m21.33 161.83 10.73-2.48M16.09 163.04l3.93-.91M20.02 162.13l1.31-.3M11.8 120.55l10.73-2.48M6.56 121.76l3.93-.91M10.49 120.85l1.31-.3"/><path fill="none" stroke="#000" stroke-linecap="round" stroke-linejoin="round" stroke-width=".25" d="m6.56 121.76 9.53 41.28M22.53 118.07l9.53 41.28M11.8 120.55l.54 2.36M12.34 122.91l-1.31.3M11.03 123.21l-.54-2.36M15.93 144.44l-.27-1.18M15.66 143.26l1.31-.3M16.97 142.96l.27 1.18M11.69 123.06l4.63 20.05M12.34 122.91l4.63 20.05M15.66 143.26l-4.63-20.05M17.24 144.14l.14.59M17.38 144.73l-.66.15M16.72 144.88l.14.59M16.86 145.47l-.65.15M16.21 145.62l-.28-1.18M20.02 162.13l-.55-2.35M19.47 159.77l.66-.15M20.13 159.62l.13.59M20.26 160.21l.66-.15M20.92 160.06l.41 1.77M19.47 159.77l-3.26-14.15M18.44 146.35l2.72 11.79M18.03 144.58l.41 1.77M18.44 146.35l-1.31.3M17.13 146.65l-.41-1.77M16.72 144.88l1.31-.3M20.26 160.21l-.4-1.77M19.86 158.44l1.3-.3M21.16 158.14l.41 1.77M21.57 159.91l-1.31.3M19.86 158.44l-2.73-11.79M18.44 146.35l2.72 11.79M17.79 146.5l2.72 11.79"/><path fill="none" stroke="#000" stroke-linecap="round" stroke-linejoin="round" stroke-width=".22" d="m10.49 120.85 1.31-.3M10.49 120.85l1.31-.3M6.56 121.76l3.93-.91M11.8 120.55l10.73-2.48M20.02 162.13l1.31-.3M20.02 162.13l1.31-.3M16.09 163.04l3.93-.91M21.33 161.83l10.73-2.48M6.56 121.76l15.97-3.69"/><path fill="#2d2d2c" fill-rule="evenodd" d="m32.48 161.18.29 1.25-15.97 3.68-.71-3.07 15.97-3.69.29 1.25.13.58z"/><path fill="#2d2d2c" d="m.121 93.876 15.97-3.687 6.436 27.877-15.97 3.687z"/><path fill="none" stroke="#000" stroke-linecap="round" stroke-linejoin="round" stroke-width=".22" d="M76.54 9.86 74.07 20.6M77.75 4.63l-.9 3.93M76.85 8.56l-.31 1.3M129.15 22.01l-2.48 10.73M130.36 16.77l-.91 3.93M129.45 20.7l-.3 1.31"/><path fill="none" stroke="#000" stroke-linecap="round" stroke-linejoin="round" stroke-width=".25" d="M130.36 16.77 77.75 4.63M126.67 32.74 74.07 20.6M129.15 22.01l-3.01-.7M126.14 21.31l.3-1.3M126.44 20.01l3.01.69M99.39 13.76l1.5.35M100.89 14.11l-.3 1.31M100.59 15.42l-1.5-.35M126.29 20.66l-25.55-5.9M126.14 21.31l-25.55-5.89M100.89 14.11l25.55 5.9M99.09 15.07l-.75-.17M98.34 14.9l.15-.66M98.49 14.24l-.75-.17M97.74 14.07l.15-.66M97.89 13.41l1.5.35M76.85 8.56l2.36.54M79.21 9.1l-.16.65M79.05 9.75l-.58-.13M78.47 9.62l-.16.65M78.31 10.27l-1.77-.41M79.21 9.1l18.68 4.31M95.93 15.03 80.9 11.56M98.19 15.55l-2.26-.52M95.93 15.03l.3-1.31M96.23 13.72l2.26.52M98.49 14.24l-.3 1.31M78.47 9.62l1.76.41M80.23 10.03l-.3 1.3M79.93 11.34l-1.77-.41M78.16 10.93l.31-1.31M80.23 10.03l16 3.69M95.93 15.03l-16-3.7M96.08 14.37l-16-3.69"/><path fill="none" stroke="#000" stroke-linecap="round" stroke-linejoin="round" stroke-width=".22" d="m129.45 20.7-.3 1.31M129.45 20.7l-.3 1.31M130.36 16.77l-.91 3.93M129.15 22.01l-2.48 10.73M76.85 8.56l-.31 1.3M76.85 8.56l-.31 1.3M77.75 4.63l-.9 3.93M76.54 9.86 74.07 20.6M130.36 16.77l-3.69 15.97"/><path fill="#2d2d2c" fill-rule="evenodd" d="m62.3 17.88-8.07-1.86L57.91.05l19.84 4.58-3.68 15.97L66 18.73l-3.7-.85z"/><path fill="#2d2d2c" d="m126.665 32.732 3.687-15.97 32.632 7.534-3.687 15.97z"/><path fill="none" stroke="#000" stroke-linecap="round" stroke-linejoin="round" stroke-width=".22" d="M184.53 23.15 187 33.88M183.32 17.91l.9 3.93M184.22 21.84l.31 1.31M237.13 11l2.48 10.73M235.92 5.77l.91 3.92M236.83 9.69l.3 1.31"/><path fill="none" stroke="#000" stroke-linecap="round" stroke-linejoin="round" stroke-width=".25" d="m235.92 5.77-52.6 12.14M239.61 21.73 187 33.88M237.13 11l-3.01.7M234.12 11.7l-.3-1.31M233.82 10.39l3.01-.7M206.77 16.63l1.5-.34M208.27 16.29l.3 1.3M208.57 17.59l-1.5.35M233.97 11.04l-25.55 5.9M234.12 11.7l-25.55 5.89M208.27 16.29l25.55-5.9M207.07 17.94l-.75.17M206.32 18.11l-.15-.65M206.17 17.46l-.75.17M205.42 17.63l-.16-.65M205.26 16.98l1.51-.35M184.22 21.84l2.36-.55M186.58 21.29l.15.66M186.73 21.95l-.59.13M186.14 22.08l.16.66M186.3 22.74l-1.77.41M186.58 21.29l18.69-4.31M204.22 19.29l-15.03 3.47M206.47 18.77l-2.25.52M204.22 19.29l-.31-1.31M203.91 17.98l2.26-.52M206.17 17.46l.3 1.31M186.14 22.08l1.77-.41M187.91 21.67l.31 1.31M188.22 22.98l-1.77.41M186.45 23.39l-.31-1.31M187.91 21.67l16-3.69M204.22 19.29l-16 3.69M204.06 18.64l-16 3.69"/><path fill="none" stroke="#000" stroke-linecap="round" stroke-linejoin="round" stroke-width=".22" d="m236.83 9.69.3 1.31M236.83 9.69l.3 1.31M235.92 5.77l.91 3.92M237.13 11l2.48 10.73M184.22 21.84l.31 1.31M184.22 21.84l.31 1.31M183.32 17.91l.9 3.93M184.53 23.15 187 33.88M235.92 5.77l3.69 15.96"/><path fill="#2d2d2c" fill-rule="evenodd" d="m170.57 37.67-11.27 2.6-3.68-15.97 27.7-6.39L187 33.88l-11.26 2.6-5.17 1.19z"/><path fill="#2d2d2c" d="m235.913 5.767 24.32-5.615 3.687 15.97-24.32 5.615z"/><path fill="none" stroke="#000" stroke-linecap="round" stroke-linejoin="round" stroke-width=".22" d="m278.68 10.29-2.66 10.68M279.98 5.07l-.97 3.91M279.01 8.98l-.33 1.31M331.06 23.35l-2.66 10.68M332.36 18.13l-.97 3.91M331.39 22.04l-.33 1.31"/><path fill="none" stroke="#000" stroke-linecap="round" stroke-linejoin="round" stroke-width=".25" d="M332.36 18.13 279.98 5.07M328.4 34.03l-52.38-13.06M331.06 23.35l-2.99-.75M328.07 22.6l.32-1.3M328.39 21.3l3 .74M301.46 14.58l1.49.37M302.95 14.95l-.32 1.31M302.63 16.26l-1.5-.38M328.23 21.95l-25.44-6.34M328.07 22.6l-25.44-6.34M302.95 14.95l25.44 6.35M301.13 15.88l-.75-.18M300.38 15.7l.16-.65M300.54 15.05l-.74-.19M299.8 14.86l.16-.65M299.96 14.21l1.5.37M279.01 8.98l2.34.59M281.35 9.57l-.16.65M281.19 10.22l-.58-.15M280.6 10.07l-.16.66M280.44 10.73l-1.76-.44M281.35 9.57l18.61 4.64M297.97 15.79l-14.96-3.73M300.22 16.35l-2.25-.56M297.97 15.79l.33-1.3M298.3 14.49l2.24.56M300.54 15.05l-.32 1.3M280.6 10.07l1.77.44M282.37 10.51l-.33 1.31M282.04 11.82l-1.76-.44M280.28 11.38l.32-1.31M282.37 10.51l15.93 3.98M297.97 15.79l-15.93-3.97M298.14 15.14l-15.94-3.97"/><path fill="none" stroke="#000" stroke-linecap="round" stroke-linejoin="round" stroke-width=".22" d="m331.39 22.04-.33 1.31M331.39 22.04l-.33 1.31M332.36 18.13l-.97 3.91M331.06 23.35l-2.66 10.68M279.01 8.98l-.33 1.31M279.01 8.98l-.33 1.31M279.98 5.07l-.97 3.91M278.68 10.29l-2.66 10.68M332.36 18.13l-3.96 15.9"/><path fill="#2d2d2c" fill-rule="evenodd" d="m264.3 18.05-8.02-2 3.96-15.9 19.74 4.92-3.96 15.9-8.03-2-3.69-.92z"/><path fill="#2d2d2c" d="m328.398 34.03 3.966-15.904 25.256 6.298-3.965 15.903z"/><path fill="none" stroke="#000" stroke-linecap="round" stroke-linejoin="round" stroke-width=".22" d="M5.5 63.47h11.01M.13 63.47h4.02M4.16 63.47H5.5M5.5 25.93h11.01M.12 25.93h4.03M4.16 25.93H5.5"/><path fill="none" stroke="#000" stroke-linecap="round" stroke-linejoin="round" stroke-width=".25" d="m.12 25.93.01 37.54M16.51 25.93v37.54M5.5 25.93v2.42M5.5 28.35H4.16M4.16 28.35v-2.42M4.16 45.32v-1.21M4.16 44.11H5.5M5.5 44.11v1.21M4.83 28.35v15.76M5.5 28.35v15.76M4.16 44.11V28.35M5.5 45.32v.6M5.5 45.92h-.67M4.83 45.92v.61M4.83 46.53h-.67M4.16 46.53v-1.21M4.16 63.47v-2.42M4.16 61.05h.67M4.83 61.05v.61M4.83 61.66h.67M5.5 61.66v1.81M4.16 61.05V46.53M6.17 47.74v12.1M6.17 45.92v1.82M6.17 47.74H4.83M4.83 47.74v-1.82M4.83 45.92h1.34M4.83 61.66v-1.82M4.83 59.84h1.34M6.17 59.84v1.82M6.17 61.66H4.83M4.83 59.84v-12.1M6.17 47.74v12.1M5.5 47.74v12.1"/><path fill="none" stroke="#000" stroke-linecap="round" stroke-linejoin="round" stroke-width=".22" d="M4.16 25.93H5.5M4.16 25.93H5.5M.12 25.93h4.03M5.5 25.93h11.01M4.16 63.47H5.5M4.16 63.47H5.5M.13 63.47h4.02M5.5 63.47h11.01M.12 25.93h16.39"/><path fill="#2d2d2c" fill-rule="evenodd" d="M16.51 81.52v12.36H.12V63.47h16.39V81.52z"/><path fill="#2d2d2c" d="M.12 0h16.39v25.93H.12z"/><path fill="none" stroke="#000" stroke-linecap="round" stroke-linejoin="round" stroke-width=".22" d="m21.4 253.84 10.81-2.11M16.13 254.86l3.95-.77M20.08 254.09l1.32-.25M11.52 202.99l10.81-2.1M6.24 204.02l3.96-.77M10.2 203.25l1.32-.26"/><path fill="none" stroke="#000" stroke-linecap="round" stroke-linejoin="round" stroke-width=".25" d="m6.24 204.02 9.89 50.84M22.33 200.89l9.88 50.84M11.52 202.99l.46 2.38M11.98 205.37l-1.32.26M10.66 205.63l-.46-2.38M14.82 227.01l-.23-1.18M14.59 225.82l1.32-.25M15.91 225.57l.23 1.19M11.32 205.5l3.93 20.2M11.98 205.37l3.93 20.2M14.59 225.82l-3.93-20.19M16.14 226.76l.11.59M16.25 227.35l-.66.13M15.59 227.48l.12.59M15.71 228.07l-.66.13M15.05 228.2l-.23-1.19M20.08 254.09l-.56-2.9M19.52 251.19l.66-.13M20.18 251.06l.14.72M20.32 251.78l.66-.12M20.98 251.66l.42 2.18M19.52 251.19l-4.47-22.99M18.39 234.82l2.82 14.53M16.91 227.22l.35 1.79M17.26 229.01l-1.32.25M15.94 229.26l-.35-1.78M15.59 227.48l1.32-.26M20.32 251.78l-.43-2.17M19.89 249.61l1.32-.26M21.21 249.35l.43 2.18M21.64 251.53l-1.32.25M19.89 249.61l-3.95-20.35M17.26 229.01l3.95 20.34M16.57 229.13l3.98 20.35"/><path fill="none" stroke="#000" stroke-linecap="round" stroke-linejoin="round" stroke-width=".22" d="m10.2 203.25 1.32-.26M10.2 203.25l1.32-.26M6.24 204.02l3.96-.77M11.52 202.99l10.81-2.1M20.08 254.09l1.32-.25M20.08 254.09l1.32-.25M16.13 254.86l3.95-.77M21.4 253.84l10.81-2.11M6.24 204.02l16.09-3.13"/><path fill="#2d2d2c" fill-rule="evenodd" d="m32.54 253.42.23 1.16-16.09 3.13-.55-2.85 16.08-3.13.23 1.16.1.53z"/><path fill="#2d2d2c" d="m4.794 196.554 16.089-3.127 1.452 7.47-16.09 3.127z"/><path fill="none" stroke="#000" stroke-linecap="round" stroke-linejoin="round" stroke-width=".22" d="m21.42 364.51 10.9-1.53M16.1 365.26l3.99-.56M20.09 364.7l1.33-.19M12.81 303.64l10.91-1.54M7.49 304.39l3.99-.57M11.48 303.82l1.33-.18"/><path fill="none" stroke="#000" stroke-linecap="round" stroke-linejoin="round" stroke-width=".25" d="m7.49 304.39 8.61 60.87M23.72 302.1l8.6 60.88M12.81 303.64l.34 2.4M13.15 306.03l-1.33.19M11.82 306.22l-.34-2.4M14.85 327.8l-.17-1.2M14.68 326.6l1.33-.19M16.01 326.41l.17 1.2M12.48 306.13l2.87 20.38M13.15 306.03l2.86 20.38M14.68 326.6l-2.86-20.38M16.18 327.61l.08.6M16.26 328.21l-.66.09M15.6 328.3l.08.6M15.68 328.9l-.66.1M15.02 329l-.17-1.2M20.09 364.7l-.42-2.93M19.67 361.77l.67-.09M20.34 361.68l.1.73M20.44 362.41l.67-.1M21.11 362.31l.31 2.2M19.67 361.77 15.02 329M18.01 335.78l3.45 24.24M16.93 328.12l.25 1.79M17.18 329.91l-1.33.19M15.85 330.1l-.25-1.8M15.6 328.3l1.33-.18M20.44 362.41l-.31-2.2M20.13 360.21l1.33-.19M21.46 360.02l.31 2.2M21.77 362.22l-1.33.19M20.13 360.21l-4.28-30.11M17.18 329.91l4.28 30.11M16.49 330.01l4.31 30.11"/><path fill="none" stroke="#000" stroke-linecap="round" stroke-linejoin="round" stroke-width=".22" d="m11.48 303.82 1.33-.18M11.48 303.82l1.33-.18M7.49 304.39l3.99-.57M12.81 303.64l10.91-1.54M20.09 364.7l1.33-.19M20.09 364.7l1.33-.19M16.1 365.26l3.99-.56M21.42 364.51l10.9-1.53M7.49 304.39l16.23-2.29"/><path fill="#2d2d2c" fill-rule="evenodd" d="m32.59 364.85.18 1.29-16.23 2.28-.45-3.16 16.23-2.28.18 1.28.09.59z"/><path fill="#2d2d2c" d="m4.79 285.193 16.231-2.28 2.697 19.19-16.23 2.282zM.12 0h57.79v16.39H.12z"/><path fill="#2d2d2c" fill-rule="evenodd" d="M16.06 399.56h16.69l.02-33.42-16.67-.88-.04 34.3zM16.06 286.25h16.69l.02-31.67-16.67.26-.04 31.41zM16.06 196.08h16.69l.02-33.65-16.67.61-.04 33.04z"/><path fill="#2d2d2c" d="M4.79 382.05h16.39v17.51H4.79zM4.79 269.89h16.39v15.3H4.79zM4.79 177.23h16.39v19.32H4.79zM259.42 14.77h8.7v93.65h-8.7zM25.86 399.56v-8.47h83.23v8.47zM258.66 265.33h8.47v134.23h-8.47zM323.51 272.5v-6.33h35.28v6.33z"/><path fill="#2d2d2c" d="M258.66 272.5v-7.17h36.14v7.17zM25.86 196.08v-8.47h83.73v8.47z"/><path fill="#2d2d2c" fill-rule="evenodd" d="m358.79 22.16-9.1 2.27 3.96 15.9 5.14-1.28V22.16z"/></g><g id="Doors"><path fill="none" stroke="#000" stroke-linecap="round" stroke-linejoin="round" stroke-width=".29" d="M321.19 280.22c1.64-4.46 2.08-6.75 2.32-11.5"/><path fill="#2d2d2c" fill-rule="evenodd" d="m321.15 280.95.54-1.28-26.49-11.7h-.41v1.38l26.36 11.6z"/><path fill="none" stroke="#000" stroke-linecap="round" stroke-linejoin="round" stroke-width=".29" d="M161.61 294.63c-1.4-3.81-1.78-5.77-1.99-9.83"/><path fill="#2d2d2c" fill-rule="evenodd" d="m161.65 295.24-.47-1.08 22.65-10.01h.34v1.19l-22.52 9.9z"/><path fill="none" stroke="#000" stroke-linecap="round" stroke-linejoin="round" stroke-width=".29" d="M198.34 295.75c-3.03-1.11-4.59-1.42-7.82-1.58"/><path fill="#2d2d2c" fill-rule="evenodd" d="m198.83 295.77-.87-.37-7.95 18.01v.28h.94l7.88-17.92z"/><path fill="none" stroke="#000" stroke-linecap="round" stroke-linejoin="round" stroke-width=".29" d="M199.18 236.6c-3.34 1.22-5.05 1.56-8.61 1.74"/><path fill="#2d2d2c" fill-rule="evenodd" d="m199.72 236.57-.95.4-8.76-19.82v-.3h1.03l8.68 19.72z"/><path fill="none" stroke="#000" stroke-linecap="round" stroke-linejoin="round" stroke-width=".29" d="M143.73 249c3.68 1.35 5.57 1.72 9.49 1.92"/><path fill="#2d2d2c" fill-rule="evenodd" d="m143.13 248.97 1.05.45 9.66-21.86v-.33h-1.14l-9.57 21.74z"/><path fill="none" stroke="#000" stroke-linecap="round" stroke-linejoin="round" stroke-width=".29" d="M290.75 134.63c1.23 3.35 1.57 5.07 1.75 8.65"/><path fill="#2d2d2c" fill-rule="evenodd" d="m290.72 134.09.41.95-19.92 8.8h-.3v-1.04l19.81-8.71z"/><path fill="none" stroke="#000" stroke-linecap="round" stroke-linejoin="round" stroke-width=".29" d="M197.95 368.78c-2.89 1.06-4.37 1.35-7.46 1.51"/><path fill="#2d2d2c" fill-rule="evenodd" d="m198.42 368.76-.83.35-7.58-17.17v-.27h.9l7.51 17.09z"/></g><g id="Sizes"><path d="M303.98 227.94h-.9v-5.41l-.91.56v-.93l.91-.61h.9v6.39ZM306.97 227.94h-.9v-5.41l-.91.56v-.93l.91-.61h.9v6.39ZM308.33 227.04h.9v.9l-.9.89v-1.78ZM312.72 224.76v.16c-.08.13-.19.23-.34.3s-.32.09-.52.09c-.3 0-.57-.08-.8-.23s-.41-.37-.54-.66c-.13-.28-.19-.61-.19-.98 0-.42.07-.77.21-1.06.14-.29.34-.52.61-.67.27-.15.59-.23.96-.23s.7.08.96.23.47.38.61.68c.14.3.21.65.21 1.07 0 .23-.03.48-.09.74s-.14.52-.25.77c-.02.04-.04.08-.05.12l-.06.12-1.36 2.74h-.97l1.61-3.17Zm.04-.55c.15-.19.23-.46.23-.8s-.08-.6-.23-.79c-.15-.18-.37-.28-.65-.28s-.5.09-.66.28c-.15.18-.23.45-.23.79 0 .35.08.62.23.81.15.19.37.28.66.28s.5-.1.65-.29ZM314.99 226.18l2.14-4.63h.92l-2.09 4.57h3.13v.83h-4.11v-.78Zm2.76-2h.87v3.76h-.87v-3.76ZM265.2 227.81c-.27-.13-.49-.32-.66-.57a1.97 1.97 0 0 1-.31-.89h.91c.03.18.08.33.17.45s.2.2.34.26.3.09.49.09c.3 0 .53-.08.69-.24s.25-.38.25-.67v-.19c0-.32-.08-.57-.23-.74-.16-.17-.38-.26-.66-.26h-.45v-.85h.45c.25 0 .44-.07.58-.22s.21-.36.21-.63v-.2c0-.25-.07-.45-.22-.58-.15-.14-.35-.21-.62-.21-.15 0-.29.03-.41.09s-.22.15-.31.26c-.08.12-.14.27-.18.45h-.91c.06-.35.17-.65.33-.9s.37-.44.62-.57.53-.19.86-.19c.55 0 .98.15 1.28.44s.45.7.45 1.23v.11c0 .32-.09.6-.26.83s-.42.41-.73.52c.35.08.62.25.81.51.19.27.29.61.29 1.02v.11c0 .37-.07.69-.22.95s-.35.46-.63.6c-.27.14-.6.21-.99.21-.36 0-.67-.07-.94-.2ZM269.17 227.04h.9v.9l-.9.89v-1.78ZM271.21 226.18l2.14-4.63h.92l-2.09 4.57h3.13v.83h-4.11v-.78Zm2.76-2h.87v3.76h-.87v-3.76ZM277.1 227.78c-.27-.15-.47-.37-.61-.66-.14-.29-.21-.64-.21-1.04a3.99 3.99 0 0 1 .32-1.52c.02-.04.04-.09.06-.13l.06-.12 1.39-2.75h.97l-1.63 3.19v-.16c.08-.14.18-.24.33-.32s.3-.11.49-.11c.33 0 .62.07.85.22s.42.37.54.65c.12.29.18.63.18 1.03 0 .41-.07.77-.21 1.06-.14.29-.34.52-.61.67-.27.15-.59.23-.96.23s-.7-.08-.96-.23Zm1.62-.9c.15-.18.23-.43.23-.75 0-.36-.08-.64-.24-.83-.16-.19-.39-.29-.69-.29-.27 0-.47.1-.62.29s-.22.47-.22.83c0 .33.08.58.23.75.15.17.37.26.65.26s.5-.09.66-.26ZM206.85 302.33l2.14-4.63h.92l-2.09 4.57h3.13v.83h-4.11v-.78Zm2.76-2h.87v3.76h-.87v-3.76ZM211.97 303.2h.9v.9l-.9.89v-1.78ZM214.95 303.94c-.29-.15-.52-.35-.68-.62a1.79 1.79 0 0 1-.24-.93v-.11c0-.32.08-.62.24-.9.16-.28.37-.49.64-.64-.23-.12-.41-.3-.54-.53-.14-.23-.2-.48-.2-.74v-.15c0-.33.07-.63.22-.88s.36-.45.63-.59c.27-.14.59-.21.95-.21s.68.07.95.21c.27.14.48.34.63.59.15.25.22.55.22.88v.15c0 .26-.07.51-.21.74a1.4 1.4 0 0 1-.55.53c.27.15.49.36.65.64.16.28.24.58.24.9v.11c0 .35-.08.67-.24.93-.16.27-.39.48-.68.62s-.63.22-1.02.22-.73-.07-1.02-.22Zm1.57-.76c.16-.08.28-.2.37-.35.09-.15.13-.32.13-.51v-.06c0-.2-.04-.37-.13-.52-.09-.15-.21-.26-.37-.34s-.34-.12-.55-.12-.39.04-.55.12-.28.2-.37.35a.98.98 0 0 0-.13.52v.07c0 .19.04.36.13.51.09.15.21.26.37.34s.34.12.55.12.39-.04.55-.12Zm-.07-2.88c.14-.08.24-.19.32-.33s.11-.31.11-.5v-.06c0-.18-.04-.34-.11-.47s-.18-.24-.32-.32c-.14-.07-.3-.11-.47-.11s-.34.04-.47.11c-.14.08-.24.18-.32.32s-.11.3-.11.48v.07c0 .18.04.35.11.49.08.14.18.25.32.33s.3.12.47.12.34-.04.47-.12ZM221.43 300.92v.16c-.08.13-.19.23-.34.3s-.32.09-.52.09c-.3 0-.57-.08-.8-.23s-.41-.37-.54-.66c-.13-.28-.19-.61-.19-.98 0-.42.07-.77.21-1.06.14-.29.34-.52.61-.67.27-.15.59-.23.96-.23s.7.08.96.23.47.38.61.68c.14.3.21.65.21 1.07 0 .23-.03.48-.09.74s-.14.52-.25.77c-.02.04-.04.08-.05.12l-.06.12-1.36 2.74h-.97l1.61-3.17Zm.04-.55c.15-.19.23-.46.23-.8s-.08-.6-.23-.79c-.15-.18-.37-.28-.65-.28s-.5.09-.66.28c-.15.18-.23.45-.23.79 0 .35.08.62.23.81.15.19.37.28.66.28s.5-.1.65-.29ZM206.78 226.18l2.14-4.63h.92l-2.09 4.57h3.13v.83h-4.11v-.78Zm2.76-2h.87v3.76h-.87v-3.76ZM211.9 227.04h.9v.9l-.9.89v-1.78ZM214.88 227.78c-.29-.15-.52-.35-.68-.62a1.79 1.79 0 0 1-.24-.93v-.11c0-.32.08-.62.24-.9.16-.28.37-.49.64-.64-.23-.12-.41-.3-.54-.53-.14-.23-.2-.48-.2-.74v-.15c0-.33.07-.63.22-.88s.36-.45.63-.59c.27-.14.59-.21.95-.21s.68.07.95.21c.27.14.48.34.63.59.15.25.22.55.22.88v.15c0 .26-.07.51-.21.74a1.4 1.4 0 0 1-.55.53c.27.15.49.36.65.64.16.28.24.58.24.9v.11c0 .35-.08.67-.24.93-.16.27-.39.48-.68.62s-.63.22-1.02.22-.73-.07-1.02-.22Zm1.57-.76c.16-.08.28-.2.37-.35.09-.15.13-.32.13-.51v-.06c0-.2-.04-.37-.13-.52-.09-.15-.21-.26-.37-.34s-.34-.12-.55-.12-.39.04-.55.12-.28.2-.37.35a.98.98 0 0 0-.13.52v.07c0 .19.04.36.13.51.09.15.21.26.37.34s.34.12.55.12.39-.04.55-.12Zm-.07-2.88c.14-.08.24-.19.32-.33s.11-.31.11-.5v-.06c0-.18-.04-.34-.11-.47s-.18-.24-.32-.32c-.14-.07-.3-.11-.47-.11s-.34.04-.47.11c-.14.08-.24.18-.32.32s-.11.3-.11.48v.07c0 .18.04.35.11.49.08.14.18.25.32.33s.3.12.47.12.34-.04.47-.12ZM219.8 227.81c-.27-.13-.49-.32-.66-.57a1.97 1.97 0 0 1-.31-.89h.91c.03.18.08.33.17.45s.2.2.34.26.3.09.49.09c.3 0 .53-.08.69-.24s.25-.38.25-.67v-.19c0-.32-.08-.57-.23-.74-.16-.17-.38-.26-.66-.26h-.45v-.85h.45c.25 0 .44-.07.58-.22s.21-.36.21-.63v-.2c0-.25-.07-.45-.22-.58-.15-.14-.35-.21-.62-.21-.15 0-.29.03-.41.09s-.22.15-.31.26c-.08.12-.14.27-.18.45h-.91c.06-.35.17-.65.33-.9s.37-.44.62-.57.53-.19.86-.19c.55 0 .98.15 1.28.44s.45.7.45 1.23v.11c0 .32-.09.6-.26.83s-.42.41-.73.52c.35.08.62.25.81.51.19.27.29.61.29 1.02v.11c0 .37-.07.69-.22.95s-.35.46-.63.6c-.27.14-.6.21-.99.21-.36 0-.67-.07-.94-.2ZM161.55 234.55l2.14-4.63h.92l-2.09 4.57h3.13v.83h-4.11v-.78Zm2.76-2h.87v3.76h-.87v-3.76ZM166.67 235.42h.9v.9l-.9.89v-1.78ZM170.34 236.31h-.9v-5.41l-.91.56v-.93l.91-.61h.9v6.39ZM172.25 235.9c-.31-.32-.46-.76-.46-1.34v-2.9c0-.57.16-1.02.47-1.34.31-.32.76-.48 1.36-.48s1.05.16 1.36.47.46.76.46 1.34v2.9c0 .57-.16 1.02-.47 1.34-.31.32-.76.48-1.36.48s-1.05-.16-1.36-.48Zm2.06-.62c.15-.17.23-.4.23-.71v-2.9c0-.31-.07-.55-.22-.71-.15-.17-.38-.25-.7-.25s-.55.08-.7.25c-.15.17-.22.4-.22.71v2.9c0 .31.08.55.23.71.15.17.38.25.7.25s.55-.08.7-.25ZM89.17 94.66c-.27-.13-.49-.32-.66-.57a1.97 1.97 0 0 1-.31-.89h.91c.03.18.08.33.17.45s.2.2.34.26.3.09.49.09c.3 0 .53-.08.69-.24s.25-.38.25-.67v-.19c0-.32-.08-.57-.23-.74-.16-.17-.38-.26-.66-.26h-.45v-.85h.45c.25 0 .44-.07.58-.22s.21-.36.21-.63V90c0-.25-.07-.45-.22-.58-.15-.14-.35-.21-.62-.21-.15 0-.29.03-.41.09s-.22.15-.31.26c-.08.12-.14.27-.18.45h-.91c.06-.35.17-.65.33-.9s.37-.44.62-.57.53-.19.86-.19c.55 0 .98.15 1.28.44s.45.7.45 1.23v.11c0 .32-.09.6-.26.83s-.42.41-.73.52c.35.08.62.25.81.51.19.27.29.61.29 1.02v.11c0 .37-.07.69-.22.95s-.35.46-.63.6c-.27.14-.6.21-.99.21-.36 0-.67-.07-.94-.2ZM94.07 94.64c-.29-.15-.52-.35-.68-.62a1.79 1.79 0 0 1-.24-.93v-.11c0-.32.08-.62.24-.9.16-.28.37-.49.64-.64-.23-.12-.41-.3-.54-.53-.14-.23-.2-.48-.2-.74v-.15c0-.33.07-.63.22-.88s.36-.45.63-.59c.27-.14.59-.21.95-.21s.68.07.95.21c.27.14.48.34.63.59.15.25.22.55.22.88v.15c0 .26-.07.51-.21.74a1.4 1.4 0 0 1-.55.53c.27.15.49.36.65.64.16.28.24.58.24.9v.11c0 .35-.08.67-.24.93-.16.27-.39.48-.68.62s-.63.22-1.02.22-.73-.07-1.02-.22Zm1.57-.76c.16-.08.28-.2.37-.35.09-.15.13-.32.13-.51v-.06c0-.2-.04-.37-.13-.52-.09-.15-.21-.26-.37-.34s-.34-.12-.55-.12-.39.04-.55.12-.28.2-.37.35a.98.98 0 0 0-.13.52v.07c0 .19.04.36.13.51.09.15.21.26.37.34s.34.12.55.12.39-.04.55-.12ZM95.57 91c.14-.08.24-.19.32-.33s.11-.31.11-.5v-.06c0-.18-.04-.34-.11-.47s-.18-.24-.32-.32c-.14-.07-.3-.11-.47-.11s-.34.04-.47.11c-.14.08-.24.18-.32.32s-.11.3-.11.48v.07c0 .18.04.35.11.49.08.14.18.25.32.33s.3.12.47.12.34-.04.47-.12ZM98.19 93.89h.9v.9l-.9.89V93.9ZM101.03 94.66c-.27-.13-.49-.32-.66-.57a1.97 1.97 0 0 1-.31-.89h.91c.03.18.08.33.17.45s.2.2.34.26.3.09.49.09c.3 0 .53-.08.69-.24s.25-.38.25-.67v-.19c0-.32-.08-.57-.23-.74-.16-.17-.38-.26-.66-.26h-.45v-.85h.45c.25 0 .44-.07.58-.22s.21-.36.21-.63V90c0-.25-.07-.45-.22-.58-.15-.14-.35-.21-.62-.21-.15 0-.29.03-.41.09s-.22.15-.31.26c-.08.12-.14.27-.18.45h-.91c.06-.35.17-.65.33-.9s.37-.44.62-.57.53-.19.86-.19c.55 0 .98.15 1.28.44s.45.7.45 1.23v.11c0 .32-.09.6-.26.83s-.42.41-.73.52c.35.08.62.25.81.51.19.27.29.61.29 1.02v.11c0 .37-.07.69-.22.95s-.35.46-.63.6c-.27.14-.6.21-.99.21-.36 0-.67-.07-.94-.2ZM107.34 91.62v.16c-.08.13-.19.23-.34.3s-.32.09-.52.09c-.3 0-.57-.08-.8-.23s-.41-.37-.54-.66c-.13-.28-.19-.61-.19-.98 0-.42.07-.77.21-1.06.14-.29.34-.52.61-.67.27-.15.59-.23.96-.23s.7.08.96.23.47.38.61.68c.14.3.21.65.21 1.07 0 .23-.03.48-.09.74s-.14.52-.25.77c-.02.04-.04.08-.05.12l-.06.12-1.36 2.74h-.97l1.61-3.17Zm.04-.55c.15-.19.23-.46.23-.8s-.08-.6-.23-.79c-.15-.18-.37-.28-.65-.28s-.5.09-.66.28c-.15.18-.23.45-.23.79 0 .35.08.62.23.81.15.19.37.28.66.28s.5-.1.65-.29ZM72.26 236.31h-.9v-5.41l-.91.56v-.93l.91-.61h.9v6.39ZM74.42 236.18c-.27-.13-.49-.32-.66-.57a1.97 1.97 0 0 1-.31-.89h.91c.03.18.08.33.17.45s.2.2.34.26.3.09.49.09c.3 0 .53-.08.69-.24s.25-.38.25-.67v-.19c0-.32-.08-.57-.23-.74-.16-.17-.38-.26-.66-.26h-.45v-.85h.45c.25 0 .44-.07.58-.22s.21-.36.21-.63v-.2c0-.25-.07-.45-.22-.58-.15-.14-.35-.21-.62-.21-.15 0-.29.03-.41.09s-.22.15-.31.26c-.08.12-.14.27-.18.45h-.91c.06-.35.17-.65.33-.9s.37-.44.62-.57.53-.19.86-.19c.55 0 .98.15 1.28.44s.45.7.45 1.23v.11c0 .32-.09.6-.26.83s-.42.41-.73.52c.35.08.62.25.81.51.19.27.29.61.29 1.02v.11c0 .37-.07.69-.22.95s-.35.46-.63.6c-.27.14-.6.21-.99.21-.36 0-.67-.07-.94-.2ZM78.38 235.42h.9v.9l-.9.89v-1.78ZM82.77 233.14v.16c-.08.13-.19.23-.34.3s-.32.09-.52.09c-.3 0-.57-.08-.8-.23s-.41-.37-.54-.66c-.13-.28-.19-.61-.19-.98 0-.42.07-.77.21-1.06.14-.29.34-.52.61-.67.27-.15.59-.23.96-.23s.7.08.96.23.47.38.61.68c.14.3.21.65.21 1.07 0 .23-.03.48-.09.74s-.14.52-.25.77c-.02.04-.04.08-.05.12l-.06.12-1.36 2.74h-.97l1.61-3.17Zm.04-.55c.15-.19.23-.46.23-.8s-.08-.6-.23-.79c-.15-.18-.37-.28-.65-.28s-.5.09-.66.28c-.15.18-.23.45-.23.79 0 .35.08.62.23.81.15.19.37.28.66.28s.5-.1.65-.29ZM86.67 236.31h-.9v-5.41l-.91.56v-.93l.91-.61h.9v6.39ZM303.13 121.36h-.9v-5.41l-.91.56v-.93l.91-.61h.9v6.39ZM304.49 120.58l2.23-2.97c.13-.17.23-.35.3-.53.07-.18.11-.35.11-.51 0-.26-.07-.46-.22-.6s-.36-.21-.64-.21c-.26 0-.47.08-.63.23-.16.15-.26.37-.29.65s-.93 0-.93 0c.05-.37.16-.68.32-.94.16-.26.37-.46.63-.59.26-.14.56-.21.89-.21.38 0 .71.07.98.2s.47.32.62.57.21.55.21.9c0 .23-.05.47-.14.71s-.22.48-.39.71l-1.85 2.51h2.42v.85h-3.6v-.78ZM309.14 120.46h.9v.9l-.9.89v-1.78ZM311.17 120.58l2.23-2.97c.13-.17.23-.35.3-.53.07-.18.11-.35.11-.51 0-.26-.07-.46-.22-.6s-.36-.21-.64-.21c-.26 0-.47.08-.63.23-.16.15-.26.37-.29.65s-.93 0-.93 0c.05-.37.16-.68.32-.94.16-.26.37-.46.63-.59.26-.14.56-.21.89-.21.38 0 .71.07.98.2s.47.32.62.57.21.55.21.9c0 .23-.05.47-.14.71s-.22.48-.39.71l-1.85 2.51h2.42v.85h-3.6v-.78ZM315.83 119.6l2.14-4.63h.92l-2.09 4.58h3.13v.83h-4.11v-.78Zm2.76-2h.87v3.76h-.87v-3.76ZM69.85 321.64l2.23-2.97c.13-.17.23-.35.3-.53.07-.18.11-.35.11-.51 0-.26-.07-.46-.22-.6s-.36-.21-.64-.21c-.26 0-.47.08-.63.23-.16.15-.26.37-.29.65s-.93 0-.93 0c.05-.37.16-.68.32-.94.16-.26.37-.46.63-.59.26-.14.56-.2.89-.2.38 0 .71.07.98.2s.47.32.62.57.21.55.21.9c0 .23-.05.47-.14.71s-.22.48-.39.71l-1.85 2.51h2.42v.85h-3.6v-.78ZM76.14 322.42h-.9v-5.41l-.91.56v-.93l.91-.61h.9v6.39ZM77.5 321.52h.9v.9l-.9.89v-1.78ZM79.53 321.64l2.23-2.97c.13-.17.23-.35.3-.53.07-.18.11-.35.11-.51 0-.26-.07-.46-.22-.6s-.36-.21-.64-.21c-.26 0-.47.08-.63.23-.16.15-.26.37-.29.65s-.93 0-.93 0c.05-.37.16-.68.32-.94.16-.26.37-.46.63-.59.26-.14.56-.2.89-.2.38 0 .71.07.98.2s.47.32.62.57.21.55.21.9c0 .23-.05.47-.14.71s-.22.48-.39.71l-1.85 2.51h2.42v.85h-3.6v-.78ZM84.96 322.26c-.27-.15-.47-.37-.61-.66-.14-.29-.21-.64-.21-1.04a3.99 3.99 0 0 1 .32-1.52c.02-.04.04-.09.06-.13l.06-.12 1.39-2.75h.97l-1.63 3.19v-.16c.08-.14.18-.24.33-.32s.3-.11.49-.11c.33 0 .62.07.85.22s.42.37.54.65c.12.29.18.63.18 1.03 0 .41-.07.77-.21 1.06-.14.29-.34.52-.61.67-.27.15-.59.23-.96.23s-.7-.08-.96-.23Zm1.62-.9c.15-.18.23-.43.23-.75 0-.36-.08-.64-.24-.83-.16-.19-.39-.29-.69-.29-.27 0-.47.1-.62.29s-.22.47-.22.83c0 .33.08.58.23.75.15.17.37.26.65.26s.5-.09.66-.26ZM217.27 359.87l2.14-4.63h.92l-2.09 4.57h3.13v.83h-4.11v-.78Zm2.76-2h.87v3.76h-.87v-3.76ZM222.39 360.73h.9v.9l-.9.89v-1.78ZM226.78 358.46v.16c-.08.13-.19.23-.34.3s-.32.09-.52.09c-.3 0-.57-.08-.8-.23s-.41-.37-.54-.66c-.13-.28-.19-.61-.19-.98 0-.42.07-.77.21-1.06.14-.29.34-.52.61-.67.27-.15.59-.23.96-.23s.7.08.96.23.47.38.61.68c.14.3.21.65.21 1.07 0 .23-.03.48-.09.74s-.14.52-.25.77c-.02.04-.04.08-.05.12l-.06.12-1.36 2.74h-.97l1.61-3.17Zm.04-.55c.15-.19.23-.46.23-.8s-.08-.6-.23-.79c-.15-.18-.37-.28-.65-.28s-.5.09-.66.28c-.15.18-.23.45-.23.79 0 .35.08.62.23.81.15.19.37.28.66.28s.5-.1.65-.29ZM230.06 361.51a1.61 1.61 0 0 1-.61-.55c-.16-.24-.26-.53-.31-.87s.9 0 .9 0c.03.24.13.42.28.55.16.13.36.2.61.2.29 0 .51-.1.67-.29.16-.19.23-.46.23-.81v-.54c0-.35-.08-.61-.23-.81-.16-.19-.38-.29-.67-.29-.16 0-.3.04-.45.13s-.27.21-.38.37h-.82v-3.37h3.26v.85h-2.36v1.44c.11-.09.24-.16.37-.21s.28-.07.42-.07c.37 0 .68.08.95.23s.46.38.6.67c.14.29.2.65.2 1.06v.54c0 .41-.07.77-.21 1.06s-.35.52-.62.67c-.27.15-.59.23-.97.23-.32 0-.61-.06-.86-.19ZM218.81 135.55c-.29-.15-.52-.35-.68-.62a1.79 1.79 0 0 1-.24-.93v-.11c0-.32.08-.62.24-.9.16-.28.37-.49.64-.64-.23-.12-.41-.3-.54-.53-.14-.23-.2-.48-.2-.74v-.15c0-.33.07-.63.22-.88s.36-.45.63-.59c.27-.14.59-.21.95-.21s.68.07.95.21c.27.14.48.34.63.59.15.25.22.55.22.88v.15c0 .26-.07.51-.21.74a1.4 1.4 0 0 1-.55.53c.27.15.49.36.65.64.16.28.24.58.24.9v.11c0 .35-.08.67-.24.93-.16.27-.39.48-.68.62s-.63.22-1.02.22-.73-.07-1.02-.22Zm1.57-.76c.16-.08.28-.2.37-.35.09-.15.13-.32.13-.51v-.06c0-.2-.04-.37-.13-.52-.09-.15-.21-.26-.37-.34s-.34-.12-.55-.12-.39.04-.55.12-.28.2-.37.35a.98.98 0 0 0-.13.52v.07c0 .19.04.36.13.51.09.15.21.26.37.34s.34.12.55.12.39-.04.55-.12Zm-.07-2.88c.14-.08.24-.19.32-.33s.11-.31.11-.5v-.06c0-.18-.04-.34-.11-.47s-.18-.24-.32-.32c-.14-.07-.3-.11-.47-.11s-.34.04-.47.11c-.14.08-.24.18-.32.32s-.11.3-.11.48v.07c0 .18.04.35.11.49.08.14.18.25.32.33s.3.12.47.12.34-.04.47-.12ZM222.93 134.81h.9v.9l-.9.89v-1.78ZM225.74 135.54c-.27-.15-.47-.37-.61-.66-.14-.29-.21-.64-.21-1.04a3.99 3.99 0 0 1 .32-1.52c.02-.04.04-.09.06-.13l.06-.12 1.39-2.75h.97l-1.63 3.19v-.16c.08-.14.18-.24.33-.32s.3-.11.49-.11c.33 0 .62.07.85.22s.42.37.54.65c.12.29.18.63.18 1.03 0 .41-.07.77-.21 1.06-.14.29-.34.52-.61.67-.27.15-.59.23-.96.23s-.7-.08-.96-.23Zm1.62-.9c.15-.18.23-.43.23-.75 0-.36-.08-.64-.24-.83-.16-.19-.39-.29-.69-.29-.27 0-.47.1-.62.29s-.22.47-.22.83c0 .33.08.58.23.75.15.17.37.26.65.26s.5-.09.66-.26ZM230.39 135.57c-.27-.13-.49-.32-.66-.57a1.97 1.97 0 0 1-.31-.89h.91c.03.18.08.33.17.45s.2.2.34.26.3.09.49.09c.3 0 .53-.08.69-.24s.25-.38.25-.67v-.19c0-.32-.08-.57-.23-.74-.16-.17-.38-.26-.66-.26h-.45v-.85h.45c.25 0 .44-.07.58-.22s.21-.36.21-.63v-.2c0-.25-.07-.45-.22-.58-.15-.14-.35-.21-.62-.21-.15 0-.29.03-.41.09s-.22.15-.31.26c-.08.12-.14.27-.18.45h-.91c.06-.35.17-.65.33-.9s.37-.44.62-.57.53-.19.86-.19c.55 0 .98.15 1.28.44s.45.7.45 1.23v.11c0 .32-.09.6-.26.83s-.42.41-.73.52c.35.08.62.25.81.51.19.27.29.61.29 1.02v.11c0 .37-.07.69-.22.95s-.35.46-.63.6c-.27.14-.6.21-.99.21-.36 0-.67-.07-.94-.2Z"/></g></svg>