<svg xmlns="http://www.w3.org/2000/svg" viewBox="0 0 194.87 266.82"><defs><clipPath id="clippath"><path fill="none" d="M0 0h9.82v9.82H0z"/></clipPath><pattern id="_Новый_узор_4" width="9.82" height="9.82" x="0" y="0" patternTransform="matrix(1.05 0 0 1.03 210.8 513.91)" patternUnits="userSpaceOnUse"><g fill="none"><path d="M0 0h9.82v9.82H0z"/><g fill-rule="evenodd" stroke-linecap="round" stroke-width=".25" clip-path="url(#clippath)"><path stroke="#e6e6e6" stroke-linejoin="round" d="m14.73 19.65-4.91-4.92 4.91-4.91 4.91 4.91-4.91 4.92zM4.91 19.65 0 14.73l4.91-4.91 4.91 4.91-4.91 4.92zM-4.91 19.65l-4.91-4.92 4.91-4.91L0 14.73l-4.91 4.92z"/><path stroke="#e6e6e6" stroke-linejoin="round" d="M14.73 9.82 9.82 4.91 14.73 0l4.91 4.91-4.91 4.91z"/><path stroke="#999" stroke-miterlimit="3" d="M4.91 9.82 0 4.91 4.91 0l4.91 4.91-4.91 4.91z"/><path stroke="#e6e6e6" stroke-linejoin="round" d="m-4.91 9.82-4.91-4.91L-4.91 0 0 4.91l-4.91 4.91zM14.73 0 9.82-4.91l4.91-4.91 4.91 4.91L14.73 0zM4.91 0 0-4.91l4.91-4.91 4.91 4.91L4.91 0zM-4.91 0l-4.91-4.91 4.91-4.91L0-4.91-4.91 0z"/></g></g></pattern></defs><g id="Flats"><path id="fl297" fill="#fff" d="M192.99 7.69H5.07v201.25H9v56.41h182.83v-56.41h1.16V7.69z"/></g><path id="Grid" fill="url(#_Новый_узор_4)" d="M94.96 26.45v-4.09H28.62v4.09H6.57v49.27H95V26.45h-.04z"/><g id="Mebel"><g fill="#fff" stroke="#6a6a6a" stroke-linecap="round" stroke-linejoin="round" stroke-width=".25"><path d="M6.57 26.78h23.74V75.7H6.57zM28.41 33.62l-.07-.85m0 0-.21-.82m0 0-.35-.77m0 0-.48-.7m0 0-.59-.6m0 0-.68-.49m0 0-.75-.36m0 0-.8-.22m0 0-.82-.07m0 0H13.22m0 0-.82.07m0 0-.8.22m0 0-.75.36m0 0-.68.49m0 0-.59.6m0 0-.47.7m0 0-.35.77m0 0-.22.82m0 0-.07.85m0 0v29.85m0 0 .15 1.78m0 0 .45 1.73m0 0 .73 1.62m0 0 1 1.47m0 0 1.23 1.27m0 0 1.42 1.03m0 0 1.58.76m0 0 1.68.46m0 0 1.73.16m0 0 1.73-.16m0 0 1.68-.46m0 0 1.58-.76m0 0 1.42-1.03m0 0 1.23-1.27m0 0 1-1.47m0 0 .73-1.62m0 0 .45-1.73m0 0 .15-1.78m0 0V33.62"/><path d="M18.44 34.03c-.46 0-.84.38-.84.84s.38.84.84.84.84-.38.84-.84-.37-.84-.84-.84ZM87.12 31.66l-.15 1.23-.34 1.2-.52 1.12-.7.9-.91.68-1.05.43-1.13.15-1.13-.15-1.05-.43-.91-.68-.7-.9-.52-1.12-.34-1.2-.15-1.23.04-1.24.89-8.42h7.74l.89 8.42.04 1.24zM85.31 26.15h-2.99M82.32 26.15h-2.99"/><path d="M82.32 37.16c.8 0 1.58-.23 2.23-.64M84.54 36.52c1.61-1.25 2.48-3.08 2.36-4.96M86.9 31.56c.05-1.9-.5-3.77-1.59-5.4M79.33 26.15c-1.09 1.64-1.65 3.51-1.59 5.4M77.73 31.56c-.12 1.88.75 3.71 2.36 4.96M80.09 36.52c.65.41 1.42.64 2.23.64M47.8 22.49v10.16l-.12.29-.29.12H30.78l-.29-.12-.12-.29V22.49l.12-.29.29-.12h16.61l.29.12.12.29zM31.6 25.1h7.15m.66 0h7.15M46.97 25.51v6.32M46.56 32.24H31.6M31.19 31.83v-6.32"/><path d="M46.97 25.51c0-.23-.18-.41-.41-.41M46.56 32.24c.23 0 .41-.18.41-.41M31.19 31.83c0 .23.18.41.41.41M31.6 25.1c-.23 0-.41.18-.41.41M38.75 26.83c-.13.1-.22.26-.22.44s.09.34.22.44v-.88Zm.66.88c.13-.1.22-.26.22-.44s-.09-.34-.22-.44v.88ZM39.41 22.47h-.66m0 0v5.63m0 0 .19.22m0 0h.29m0 0 .19-.22m0 0v-5.63M36.71 23.46v-1.18m0 0h.07m0 0v-.1m0 0h.21m0 0v-.1m0 0h-1.37m0 0v.1m0 0h.21m0 0v.1m0 0h.07m0 0v1.18m0 0h.23m0 0v.3m0 0h-.78m0 0v.36m0 0h1.92m0 0v-.36m0 0h-.78m0 0v-.3m0 0h.23M41.46 23.46v-1.18m0 0h-.07m0 0v-.1m0 0h-.21m0 0v-.1m0 0h1.37m0 0v.1m0 0h-.21m0 0v.1m0 0h-.07m0 0v1.18m0 0h-.23m0 0v.3m0 0h.78m0 0v.36m0 0H40.9m0 0v-.36m0 0h.78m0 0v-.3m0 0h-.23M36.12 23.76l.05.05M36.47 23.76l-.05.05M36.12 23.46h.35M42.05 23.76l-.06.05M41.69 23.76l.05.05M42.05 23.46h-.36M36.29 23.76c-.1 0-.18.08-.18.18s.08.18.18.18.18-.08.18-.18-.08-.18-.18-.18ZM41.87 23.76c-.1 0-.18.08-.18.18s.08.18.18.18.18-.08.18-.18-.08-.18-.18-.18ZM65.24 22.49v10.16l-.12.29-.29.12H48.22l-.29-.12-.12-.29V22.49l.12-.29.29-.12h16.61l.29.12.12.29zM49.04 25.1h7.15m.66 0H64M64.41 25.51v6.32M64 32.24H49.04M48.63 31.83v-6.32"/><path d="M64.41 25.51c0-.23-.18-.41-.41-.41M64 32.24c.23 0 .41-.18.41-.41M48.63 31.83c0 .23.18.41.41.41M49.04 25.1c-.23 0-.41.18-.41.41M56.19 26.83c-.13.1-.22.26-.22.44s.09.34.22.44v-.88Zm.66.88c.13-.1.22-.26.22-.44s-.09-.34-.22-.44v.88ZM56.85 22.47h-.66m0 0v5.63m0 0 .19.22m0 0h.29m0 0 .19-.22m0 0v-5.63M54.15 23.46v-1.18m0 0h.07m0 0v-.1m0 0h.21m0 0v-.1m0 0h-1.37m0 0v.1m0 0h.21m0 0v.1m0 0h.07m0 0v1.18m0 0h.23m0 0v.3m0 0h-.78m0 0v.36m0 0h1.92m0 0v-.36m0 0h-.78m0 0v-.3m0 0h.23M58.9 23.46v-1.18m0 0h-.07m0 0v-.1m0 0h-.21m0 0v-.1m0 0h1.37m0 0v.1m0 0h-.21m0 0v.1m0 0h-.07m0 0v1.18m0 0h-.23m0 0v.3m0 0h.78m0 0v.36m0 0h-1.92m0 0v-.36m0 0h.78m0 0v-.3m0 0h-.23M53.56 23.76l.05.05M53.91 23.76l-.05.05M53.56 23.46h.35M59.49 23.76l-.06.05M59.13 23.76l.05.05M59.49 23.46h-.36M53.74 23.76c-.1 0-.18.08-.18.18s.08.18.18.18.18-.08.18-.18-.08-.18-.18-.18ZM59.31 23.76c-.1 0-.18.08-.18.18s.08.18.18.18.18-.08.18-.18-.08-.18-.18-.18Z"/></g><g fill="none" stroke="#6a6a6a" stroke-linecap="round" stroke-linejoin="round" stroke-width=".25"><path d="M55.41 93.78V78.56m0 0H6.57m0 0v15.22m0 0h48.84M6.57 86.05v-.48m0 0h48.84m0 0v.48m0 0H6.57M50.64 79.83v11.91m0 0h-.49m0 0V79.83m0 0h.49M49.35 79.83v11.91m0 0h-.49m0 0V79.83m0 0h.49M48.07 79.83v11.91m0 0h-.48m0 0V79.83m0 0h.48M46.78 79.83v11.91m0 0h-.49m0 0V79.83m0 0h.49M44.06 79.92l1.44 11.83m0 0-.48.06m0 0-1.44-11.83m0 0 .48-.06"/></g><g fill="none" stroke="#6a6a6a" stroke-linecap="round" stroke-linejoin="round" stroke-width=".25"><path d="M105.61 191.62V147.8m0 0h-8.66m0 0v43.82m0 0h8.66M105.18 191.62V147.8M105.61 169.71h-.43M105.61 191.62h-.43M100.54 155.25h-.58m0 0v25.41m0 0h.58m0 0v-25.41M99.95 156.05l-1.95-.41m0 0 .08-.39m0 0 1.87.39m0 0v.41M99.95 160.8h-.48m0 0-.32.09m0 0-.24.24m0 0-.09.33m0 0v13m0 0 .09.32m0 0 .24.24m0 0 .32.09m0 0h.48m0 0v-14.3M100.74 156.05l1.95-.41m0 0-.08-.39m0 0-1.87.39m0 0v.41M99.95 179.85l-1.95.41m0 0 .08.39m0 0 1.87-.39m0 0v-.41M100.71 179.85l1.95.41m0 0-.08.39m0 0-1.87-.39m0 0v-.41M100.71 155.25h-.17m0 0v25.41m0 0h.17m0 0v-25.41"/></g><g fill="none" stroke="#6a6a6a" stroke-linecap="round" stroke-linejoin="round" stroke-width=".25"><path d="M85.45 169.84v-43.82m0 0h8.66m0 0v43.82m0 0h-8.66M85.88 169.84v-43.82M85.45 147.93h.43M85.45 169.84h.43M90.53 133.47h.58m0 0v25.41m0 0h-.58m0 0v-25.41M91.11 134.27l1.95-.41m0 0-.08-.39m0 0-1.87.39m0 0v.41M91.11 139.03h.48m0 0 .32.09m0 0 .24.24m0 0 .09.33m0 0v13m0 0-.09.32m0 0-.24.24m0 0-.32.09m0 0h-.48m0 0v-14.3M90.33 134.27l-1.95-.41m0 0 .08-.39m0 0 1.87.39m0 0v.41M91.11 158.08l1.95.41m0 0-.08.39m0 0-1.87-.39m0 0v-.41M90.36 158.08l-1.95.41m0 0 .08.39m0 0 1.87-.39m0 0v-.41M90.36 133.47h.17m0 0v25.41m0 0h-.17m0 0v-25.41"/></g><g fill="none" stroke="#6a6a6a" stroke-linecap="round" stroke-linejoin="round" stroke-width=".25"><path d="M12.72 174.36c-1.36 0-2.46 1.1-2.46 2.46s1.1 2.46 2.46 2.46 2.46-1.1 2.46-2.46-1.1-2.46-2.46-2.46Z"/><path d="M12.72 176.08c-.41 0-.74.33-.74.74s.33.74.74.74.74-.33.74-.74-.33-.74-.74-.74ZM12.72 116.58c-1.36 0-2.46 1.1-2.46 2.46s1.1 2.46 2.46 2.46 2.46-1.1 2.46-2.46-1.1-2.46-2.46-2.46Z"/><path d="M12.72 118.3c-.41 0-.74.33-.74.74s.33.74.74.74.74-.33.74-.74-.33-.74-.74-.74ZM58.2 170.06V125.8m0 0H9.03m0 0v44.26m0 0H58.2M59.43 168.83v-41.8m0 0-.09-.47m0 0-.27-.4m0 0-.4-.27m0 0-.47-.09m0 0v44.26m0 0 .47-.09m0 0 .4-.27m0 0 .27-.4m0 0 .09-.47M6.57 170.06V125.8m0 0h2.46m0 0v44.26m0 0H6.57M6.57 125.8v44.26m0 0H7.8m0 0V125.8m0 0H6.57M6.57 124.57v-11.06m0 0h12.29m0 0v11.06m0 0H6.57M6.57 171.29v11.06m0 0h12.29m0 0v-11.06m0 0H6.57M10.26 144v-16.72m0 0 .07-.17m0 0 .17-.07m0 0h8.11m0 0 .17.07m0 0 .07.17m0 0V144m0 0-.07.17m0 0-.17.07m0 0H10.5m0 0-.17-.07m0 0-.07-.17M10.26 151.86v16.72m0 0 .07.17m0 0 .17.07m0 0h8.11m0 0 .17-.07m0 0 .07-.17m0 0v-16.72m0 0-.07-.17m0 0-.17-.07m0 0H10.5m0 0-.17.07m0 0-.07.17M18.2 170.06v-1.23M18.2 151.62v-7.38M18.2 127.03v-1.23M21.46 170.06V125.8m0 0h12.16m0 0-9.7 44.26m0 0h-2.46M12.16 179.22l.56-2.39m0 0 2.23-1.03m0 0-2.23 1.03m0 0-2.31-.85M12.16 116.65l.56 2.39m0 0 2.23 1.03m0 0-2.23-1.03m0 0-2.31.85"/></g><g fill="none" stroke="#6a6a6a" stroke-linecap="round" stroke-linejoin="round" stroke-width=".25"><path d="M153.98 93.62V78.56m0 0h-15.56m0 0v15.06m0 0h15.56M143.69 86.09h5.02M144.42 87.86l3.55-3.55M146.2 88.6v-5.02M147.97 87.86l-3.55-3.55"/></g><path fill="none" stroke="#6a6a6a" stroke-linecap="round" stroke-linejoin="round" stroke-width=".25" d="M174.86 112.15v-12.8m0 0 .15-.36m0 0 .35-.15m0 0h11.55m0 0 .35.15m0 0 .15.36m0 0v12.8m0 0-.15.35m0 0-.35.15m0 0h-11.55m0 0-.35-.15m0 0-.15-.35M176.11 110.9v-10.29M176.62 100.1h7.78M184.9 100.61v10.29M184.4 111.4h-7.78"/><path fill="#999" fill-rule="evenodd" d="M176.11 110.9v.07s-.07-.03-.07-.07.03-.07.07-.07.07.03.07.07-.03.07-.07.07v-.07Z"/><path fill="none" stroke="#6a6a6a" stroke-linecap="round" stroke-linejoin="round" stroke-width=".25" d="M176.62 100.1c-.28 0-.5.23-.5.5M184.9 100.61c0-.28-.22-.5-.5-.5M184.4 111.4c.28 0 .5-.22.5-.5M176.11 110.9c0 .28.22.5.5.5M181.69 105.98l-.16-.07m0 0-.07-.16m0 0 .07-.16m0 0 .16-.07m0 0h4.97m0 0 .16.07m0 0 .07.16m0 0-.07.16m0 0-.16.07m0 0h-4.97M185.38 106.25v-.27m0 0h1.28m0 0 .16-.07m0 0 .07-.16m0 0-.07-.16m0 0-.16-.07m0 0h-1.28m0 0v-.27m0 0h1.63m0 0v1m0 0h-1.63M184.47 106.25v-.27m0 0h.88m0 0v.27m0 0h-.88M184.47 105.26h.88m0 0v.27m0 0h-.88m0 0v-.27M172.72 78.56v62.57m0 0h15.56m0 0V78.56m0 0h-15.56"/><g fill="none" stroke="#6a6a6a" stroke-linecap="round" stroke-linejoin="round" stroke-width=".25"><path d="M174.36 133.07v-14.56m0 0h12.3m0 0v14.56m0 0h-12.3M181.85 125.79h3.52M185.37 125.79v-.73M181.85 125.79v-.73M181.85 119.91h3.52M185.37 120.64v-.73M181.85 120.64v-.73M183.75 131.76c1.01 0 1.82-.82 1.82-1.82s-.82-1.82-1.82-1.82-1.82.82-1.82 1.82.81 1.82 1.82 1.82ZM178.28 131.73c1.46 0 2.64-1.18 2.64-2.64s-1.18-2.64-2.64-2.64-2.64 1.18-2.64 2.64 1.18 2.64 2.64 2.64Z"/><path d="M178.28 130.6c.83 0 1.51-.67 1.51-1.51s-.67-1.51-1.51-1.51-1.51.67-1.51 1.51.67 1.51 1.51 1.51ZM183.63 124.61c.97 0 1.76-.79 1.76-1.76s-.79-1.76-1.76-1.76-1.76.79-1.76 1.76.79 1.76 1.76 1.76ZM177.92 124.37c1.25 0 2.26-1.01 2.26-2.26s-1.01-2.26-2.26-2.26-2.26 1.01-2.26 2.26 1.01 2.26 2.26 2.26Z"/></g><g fill="none" stroke="#6a6a6a" stroke-linecap="round" stroke-linejoin="round" stroke-width=".25"><path d="M157.44 87.54c0-1.25 1.01-2.27 2.27-2.27s2.27 1.01 2.27 2.27-1.01 2.27-2.27 2.27-2.27-1.01-2.27-2.27Z"/><path d="M157.79 87.54a1.92 1.92 0 1 1 3.841.001 1.92 1.92 0 0 1-3.841-.001ZM162.19 88.1a1.71 1.71 0 1 1 3.418-.002 1.71 1.71 0 0 1-3.418.002Z"/><path d="M162.94 88.1a.96.96 0 1 1 1.92 0 .96.96 0 0 1-1.92 0ZM157 89.01h.64m0 0v.8m0 0h8.32m0 0v-.8m0 0h.64M157.98 82.37h6.4m0 0v.32m0 0h-.48m0 0v-.16m0 0h-5.44m0 0v.16m0 0h-.48m0 0v-.32M157.98 82.68l.03.07m.09.21.03.07m.09.21.03.07m.09.21.03.07m.09.21.03.07m.09.21.03.07m.09.21.03.07m.09.21.03.07m.09.21.03.07M164.38 82.68l-.03.07m-.09.21-.03.07m-.09.21-.03.07m-.09.21-.03.07m-.09.21-.03.07m-.09.21-.03.07m-.09.21-.03.07m-.09.21-.03.07m-.09.21-.03.07M157.98 82.68h.05m.08 0h.08m.07 0h.08m.08 0h.05m0 0 .03.03m.14.18.05.06m.14.17.05.06m.14.18.05.06m.14.18.05.06m.14.18.05.06m.14.18.05.06m.14.18.05.06m.14.18.05.06m.14.18.05.06m.14.18.05.06m.14.18.03.03M164.38 82.68h-.05m-.07 0h-.08m-.08 0h-.07m-.08 0h-.05m0 0-.03.03m-.14.18-.05.06m-.14.17-.05.06m-.14.18-.05.06m-.14.18-.05.06m-.14.18-.05.06m-.14.18-.05.06m-.14.18-.05.06m-.14.18-.05.06m-.14.18-.05.06m-.14.18-.05.06m-.14.18-.03.03M169.59 93.62V78.56m0 0h-15.56m0 0v15.06m0 0h15.56"/></g><path fill="none" stroke="#6a6a6a" stroke-linecap="round" stroke-linejoin="round" stroke-width=".25" d="M169.59 78.56h18.69v15.06h-18.69z"/><g fill="none" stroke="#6a6a6a" stroke-linecap="round" stroke-linejoin="round" stroke-width=".25"><path d="M170.25 184.91v-15.2m0 0h12.62m0 0v15.2m0 0h-12.62M170.25 169.71v-15.2m0 0h12.62m0 0v15.2m0 0h-12.62M170.25 154.51v-5.09m0 0h18.04m0 0v5.09m0 0h-.9m-4.51 0h-12.62M170.25 190v-5.09m0 0h12.62m4.51 0h.9m0 0V190m0 0h-18.04M187.39 169.71h-4.51m0 0v-17.74m0 0h4.51m0 0v17.74M187.39 169.71h-4.51m0 0v17.74m0 0h4.51m0 0v-17.74"/></g><g fill="none" stroke="#6a6a6a" stroke-linecap="round" stroke-linejoin="round" stroke-width=".25"><path d="m139.83 112.56-3.63-3.63m0 0-.38-.36m0 0-.38-.33m0 0-.37-.29m0 0-.36-.24m0 0h-.01m0 0-.33-.19m0 0-.29-.13m0 0h-.02m0 0-.25-.07m0 0h-.02m0 0h-.19m0 0h-.03m0 0h-.03m0 0h-.02m0 .01-.14.07m0 0-.02.02m0 0h-.01m0 0-1 1m0 0-.91-.91m0 0-4.61 4.61m9.82 9.82 4.61-4.61m0 0-.91-.91m0 0 1-1m0 0h0m0 0 .02-.02m0 0 .07-.14m0 0v-.02m.01 0v-.03m0 0v-.03m0 0v-.2m0 0v-.02m0 0-.07-.25m0 0v-.02m0 0-.13-.29m0 0-.19-.33m0 0h0m0-.01-.24-.36m0 0-.29-.37m0 0-.33-.38m0 0-.36-.38M131.75 109.01l8 8M131.86 109.12l.8-.79M139.64 116.9l.8-.79M136.22 120.54l4.12-4.12M128.22 112.54l4.12-4.12M135.3 109.84l3.63 3.63M132.66 108.33c.31-.31 1.49.36 2.64 1.51M138.93 113.47c1.14 1.14 1.82 2.33 1.51 2.64M107.51 137.63l3.63 3.63m0 0 .38.36m0 0 .38.33m0 0 .37.29m0 0 .36.24m0 0h.01m0 0 .33.19m0 0 .29.13m0 0h.02m0 0 .25.07m0 0h.03m0 0h.19m0 0h.03m0 0h.02m0 0h.02m0-.01.14-.07m0 0 .02-.02m0 0h0m0 0 1-1m0 0 .91.91m0 0 4.61-4.61m-9.82-9.82-4.61 4.61m0 0 .91.91m0 0-1 1m0 0h0m0 0-.02.02m0 0-.07.14m0 0v.02m-.01 0v.03m0 0v.03m0 0v.2m0 0v.02m0 0 .07.25m0 0v.02m0 0 .13.29m0 0 .19.33m0 0h0m0 .01.24.36m0 0 .29.37m0 0 .33.38m0 0 .36.38M115.59 141.18l-8-8M115.48 141.07l-.8.79M107.7 133.29l-.8.79M111.12 129.65l-4.12 4.12M119.12 137.65l-4.12 4.12M112.05 140.36l-3.64-3.64M114.68 141.86c-.31.31-1.49-.36-2.64-1.51M108.41 136.72c-1.14-1.14-1.82-2.33-1.51-2.64M111.14 108.93l-3.63 3.63m0 0-.36.38m0 0-.33.38m0 0-.29.37m0 0-.24.36m0 0h0m0 .01-.19.33m0 0-.13.29m0 0v.02m0 0-.07.25m0 0v.02m0 0v.19m0 0v.03m0 0v.03m0 0v.02m.01 0 .07.14m0 0 .02.02m0 0h0m0 .01 1 1m0 0-.91.91m0 0 4.61 4.61m9.82-9.82-4.61-4.61m0 0-.91.91m0 0-1-1m0 0h0m0 0-.02-.02m0 0-.14-.07m0 0h-.02m0-.01h-.03m0 0h-.03m0 0h-.2m0 0h-.02m0 0-.25.07m0 0h-.02m0 0-.29.13m0 0-.33.19m0 0h-.01m0 0-.36.24m0 0-.37.29m0 0-.38.33m0 0-.38.36M107.59 117.01l8-8M107.7 116.9l-.8-.79M115.48 109.12l-.8-.79M119.12 112.54l-4.12-4.12M111.12 120.54l-4.12-4.12M108.41 113.47l3.64-3.64M106.9 116.11c-.31-.31.36-1.49 1.51-2.64M112.04 109.83c1.15-1.14 2.33-1.82 2.64-1.51M136.2 141.26l3.63-3.63m0 0 .36-.38m0 0 .33-.38m0 0 .29-.37m0 0 .24-.36m0 0h0m0-.01.19-.33m0 0 .13-.29m0 0v-.02m0 0 .07-.25m0 0v-.02m0 0v-.19m0 0V135m0 0v-.03m0 0v-.02m-.01 0-.07-.14m0 0-.02-.02m0 0h0m0-.01-1-1m0 0 .91-.91m0 0-4.61-4.61m-9.82 9.82 4.61 4.61m0 0 .91-.91m0 0 1 1m0 0h0m0 0h.02m0 .01.14.07m0 0h.02m0 .01h.03m0 0h.03m0 0h.2m0 0h.02m0 0 .25-.07m0 0h.02m0 0 .29-.13m0 0 .33-.19m0 0h.01m0 0 .36-.24m0 0 .37-.29m0 0 .38-.33m0 0 .38-.36M139.75 133.18l-8 8M139.64 133.29l.8.79M131.86 141.07l.8.79M128.22 137.65l4.12 4.12M136.22 129.65l4.12 4.12M138.93 136.72l-3.63 3.64M140.44 134.08c.31.31-.36 1.49-1.51 2.64M135.3 140.36c-1.14 1.14-2.33 1.82-2.64 1.51M137.02 125.1c0 7.37-5.98 13.35-13.35 13.35s-13.35-5.98-13.35-13.35 5.98-13.35 13.35-13.35 13.35 5.98 13.35 13.35Z"/></g><path fill="none" stroke="#6a6a6a" stroke-linecap="round" stroke-linejoin="round" stroke-width=".25" d="M157.75 181.95h-12.14v-24.5h12.14z"/><path fill="none" stroke="#6a6a6a" stroke-dasharray="0 0 3 3" stroke-linecap="round" stroke-linejoin="round" stroke-width=".25" d="M138.42 139.45v1.68h34.3M138.42 93.62v16.86"/><g fill="none" stroke="#6a6a6a" stroke-linecap="round" stroke-linejoin="round" stroke-width=".25"><path d="M170.98 26.81h17.43m0 0v31.42m0 0h-17.43m0 0V26.81M179.83 58.23h.55m0 0V26.81m0 0h-.55m0 0v31.42M186.95 32.01h-13.64m0 0v.53m0 0h13.64m0 0v-.53M186.95 33.41h-13.64m0 0v.53m0 0h13.64m0 0v-.53M186.95 34.82h-13.64m0 0v.53m0 0h13.64m0 0v-.53M186.95 36.22h-13.64m0 0v.53m0 0h13.64m0 0v-.53M186.85 39.19l-13.54-1.57m0 0-.07.52m0 0 13.54 1.57m0 0 .07-.53"/></g><g fill="none" stroke="#6a6a6a" stroke-linecap="round" stroke-linejoin="round" stroke-width=".25"><path d="M138.7 26.87V15.81m0 0h32.23m0 0v11.06m0 0H138.7M170.94 21.25v-.35m0 0h-32.23m0 0v.35m0 0h32.23M143.15 16.74v8.65m0 0h.45m0 0v-8.65m0 0h-.45M144.34 16.74v8.65m0 0h.45m0 0v-8.65m0 0h-.45M145.54 16.74v8.65m0 0h.45m0 0v-8.65m0 0h-.45M146.74 16.74v8.65m0 0h.45m0 0v-8.65m0 0h-.45M149.27 16.8l-1.34 8.59m0 0 .45.04m0 0 1.34-8.59m0 0-.45-.04"/></g><g fill="none" stroke="#6a6a6a" stroke-linecap="round" stroke-linejoin="round" stroke-width=".25"><path d="M185.21 66.95c0 3.05-2.47 5.53-5.53 5.53s-5.53-2.47-5.53-5.53 2.47-5.53 5.53-5.53 5.53 2.47 5.53 5.53ZM184.3 66.55l-.95.35m0 0h-1.01m0 0-.95-.35m0 0-1.13.26m0 0h-1.16m0 0-1.13-.26m0 0-.95.35m0 0h-1.01m0 0-.95-.35m0 0 1.72 2.3m0 0h5.82m0 0 1.72-2.3M182.59 69.05h-5.82m0 0v-.2m0 0h5.82m0 0v.2M182.59 69.46h-5.82m0 0v-.2m0 0h5.82m0 0v.2M179.03 65.39l.69-.07m0 0 .02.17m0 0-.37.03m0 0 1.06.88m0 0-.1.12m0 0-.49-.41m0 0-.05.06m0 0 .57.47m0 0-.09.11m0 0-.57-.47m0 0-.06.07m0 0 .46.38m0 0-.08.1m0 0-.46-.38m0 0-.06.07m0 0 .32.26m0 0-.09.11m0 0-1.09-.9M188.4 58.23h-17.45m0 0v17.45m0 0h17.45m0 0V58.23"/></g></g><g id="Walls_Inside" fill="#2d2d2c"><path d="M188.29 13.15h6.57v132.88h-6.57z"/><path d="M137.29 78.56v-2.83h56.09v2.83zM2.92 78.56v-2.83h94.12v2.83zM135.87 14.78h2.83v33.18h-2.83zM94.8 14.78h2.83v33.96H94.8z"/><path d="M94.8 69.59h2.83v12.38H94.8zM6.79 203.19h2.83v62.16H6.79zM190.42 203.19h2.83v62.16h-2.83zM94.21 104.57h2.83v99.7h-2.83zM135.71 70.44h2.83v8.11h-2.83zM170.94 14.78h2.83v11.67h-2.83z"/><path d="M170.94 26.78v-2.83h20.63v2.83zM0 13.15h6.57v132.88H0zM25.78 14.78h2.83v11.67h-2.83z"/><path d="M3.63 26.78v-2.83h24.99v2.83zM27.2 22.36v-1.75h68.48v1.75z"/></g><g id="Walls_Outside"><g fill="none" stroke="#000" stroke-linecap="round" stroke-linejoin="round"><path stroke-width=".22" d="M100.26 266.69v-1.34M145 266.69v-1.34"/><path stroke-width=".25" d="M145 265.35h-3.17M141.83 265.35v1.34M141.83 266.69H145M103.43 265.35h-3.17M100.26 265.35v1.34M100.26 266.69h3.17M101.84 266.69h1.59M103.43 266.69v-1.34M141.83 266.02h-38.4M141.83 265.35h-38.4M103.43 266.69h38.4M100.26 266.69h1.58M100.26 266.69h0"/><path stroke-width=".22" d="M145 266.69v-1.34M145 266.69v-1.34M100.26 266.69v-1.34M100.26 266.69v-1.34"/></g><g fill="none" stroke="#000" stroke-linecap="round" stroke-linejoin="round"><path stroke-width=".22" d="M6.79 266.69v-1.34M75.9 266.69v-1.34"/><path stroke-width=".25" d="M75.9 265.35h-3.24M72.66 265.35v1.34M72.66 266.69h3.24M10.02 265.35H6.79M6.79 265.35v1.34M6.79 266.69h3.23M8.41 266.69h1.61M10.02 266.69v-1.34M72.66 266.02H10.02M72.66 265.35H10.02M10.02 266.69h62.64M6.79 266.69h1.62M6.79 266.69h0"/><path stroke-width=".22" d="M75.9 266.69v-1.34M75.9 266.69v-1.34M6.79 266.69v-1.34M6.79 266.69v-1.34"/></g><g fill="none" stroke="#000" stroke-linecap="round" stroke-linejoin="round"><path stroke-width=".22" d="M169.36 266.69v-1.34M193.25 266.69v-1.34"/><path stroke-width=".25" d="M193.25 265.35h-3.37M189.88 265.35v1.34M189.88 266.69h3.37M172.72 265.35h-3.36M169.36 265.35v1.34M169.36 266.69h3.37M171.04 266.69h1.68M172.72 266.69v-1.34M189.88 266.02h-17.16M189.88 265.35h-17.16M172.72 266.69h17.16M169.36 266.69h1.68M169.36 266.69h0"/><path stroke-width=".22" d="M193.25 266.69v-1.34M193.25 266.69v-1.34M169.36 266.69v-1.34M169.36 266.69v-1.34"/></g><g fill="none" stroke="#000" stroke-linecap="round" stroke-linejoin="round" stroke-width=".25"><path d="M100.26 266.02H75.9M100.26 265.35H75.9M75.9 266.69h24.36"/></g><g fill="none" stroke="#000" stroke-linecap="round" stroke-linejoin="round" stroke-width=".25"><path d="M169.36 266.02H145M169.36 265.35H145M145 266.69h24.36"/></g><g fill="none" stroke="#000" stroke-linecap="round" stroke-linejoin="round"><path stroke-width=".22" d="M72.96 205.01v-7.56M72.96 208.94v-4.03M72.96 204.91v-1.35M87.24 203.67v-6.22M87.24 208.94v-4.03M87.24 204.91v-1.35"/><path stroke-width=".25" d="M87.24 208.94H72.96M87.24 197.45H72.96M87.24 203.56h-2.71M84.53 203.56v1.35M84.53 204.91h2.71M75.67 203.56h-2.71M72.96 203.56v1.35M72.96 204.91h2.71M74.31 204.91h1.36M75.67 204.91v-1.35M84.53 204.23h-8.86M84.53 203.56h-8.86M75.67 204.91h8.86M72.96 204.91h1.36M72.96 204.91h0"/><path stroke-width=".22" d="M87.24 204.91v-1.35M87.24 204.91v-1.35M87.24 208.94v-4.03M87.24 203.67v-6.22M72.96 204.91v-1.35M72.96 204.91v-1.35M72.96 208.94v-4.03M72.96 205.01v-7.56M87.24 208.94v-11.49"/></g><g fill="none" stroke="#000" stroke-linecap="round" stroke-linejoin="round"><path stroke-width=".22" d="M16.54 205.01v-7.56M16.54 208.94v-4.03M16.54 204.91v-1.35M30.64 203.67v-6.22M30.64 208.94v-4.03M30.64 204.91v-1.35"/><path stroke-width=".25" d="M30.64 208.94h-14.1M30.64 197.45h-14.1M30.64 203.56h-3.2M27.44 203.56v1.35M27.44 204.91h3.2M19.74 203.56h-3.2M16.54 203.56v1.35M16.54 204.91h3.2M18.14 204.91h1.6M19.74 204.91v-1.35M27.44 204.23h-7.7M27.44 203.56h-7.7M19.74 204.91h7.7M16.54 204.91h1.6M16.54 204.91h0"/><path stroke-width=".22" d="M30.64 204.91v-1.35M30.64 204.91v-1.35M30.64 208.94v-4.03M30.64 203.67v-6.22M16.54 204.91v-1.35M16.54 204.91v-1.35M16.54 208.94v-4.03M16.54 205.01v-7.56M30.64 208.94v-11.49"/></g><path fill="none" stroke="#000" stroke-linecap="round" stroke-linejoin="round" stroke-width=".25" d="M44.32 198.3c.85 2.31 1.08 3.5 1.2 5.97"/><path fill="#2d2d2c" fill-rule="evenodd" d="m44.31 197.93.28.66-13.74 6.07h-.21v-.72l13.67-6.01z"/><path fill="none" stroke="#000" stroke-linecap="round" stroke-linejoin="round" stroke-width=".25" d="M47.75 192.95c-1.56 4.26-1.99 6.45-2.22 10.99"/><path fill="#2d2d2c" fill-rule="evenodd" d="m47.78 192.26-.51 1.22 25.29 11.18h.39l.01-1.33-25.18-11.07z"/><g fill="none" stroke="#000" stroke-linecap="round" stroke-linejoin="round"><path stroke-width=".22" d="M165.99 205.01v-7.56M165.99 208.94v-4.03M165.99 204.91v-1.35M180.28 203.67v-6.22M180.28 208.94v-4.03M180.28 204.91v-1.35"/><path stroke-width=".25" d="M180.28 208.94h-14.29M180.28 197.45h-14.29M180.28 203.56h-2.72M177.56 203.56v1.35M177.56 204.91h2.72M168.71 203.56h-2.72M165.99 203.56v1.35M165.99 204.91h2.72M167.35 204.91h1.36M168.71 204.91v-1.35M177.56 204.23h-8.85M177.56 203.56h-8.85M168.71 204.91h8.85M165.99 204.91h1.36M165.99 204.91h0"/><path stroke-width=".22" d="M180.28 204.91v-1.35M180.28 204.91v-1.35M180.28 208.94v-4.03M180.28 203.67v-6.22M165.99 204.91v-1.35M165.99 204.91v-1.35M165.99 208.94v-4.03M165.99 205.01v-7.56M180.28 208.94v-11.49"/></g><g fill="none" stroke="#000" stroke-linecap="round" stroke-linejoin="round"><path stroke-width=".22" d="M109.58 205.01v-7.56M109.58 208.94v-4.03M109.58 204.91v-1.35M123.67 203.67v-6.22M123.67 208.94v-4.03M123.67 204.91v-1.35"/><path stroke-width=".25" d="M123.67 208.94h-14.09M123.67 197.45h-14.09M123.67 203.56h-3.19M120.48 203.56v1.35M120.48 204.91h3.19M112.77 203.56h-3.19M109.58 203.56v1.35M109.58 204.91h3.19M111.17 204.91h1.6M112.77 204.91v-1.35M120.48 204.23h-7.71M120.48 203.56h-7.71M112.77 204.91h7.71M109.58 204.91h1.59M109.58 204.91h0"/><path stroke-width=".22" d="M123.67 204.91v-1.35M123.67 204.91v-1.35M123.67 208.94v-4.03M123.67 203.67v-6.22M109.58 204.91v-1.35M109.58 204.91v-1.35M109.58 208.94v-4.03M109.58 205.01v-7.56M123.67 208.94v-11.49"/></g><path fill="none" stroke="#000" stroke-linecap="round" stroke-linejoin="round" stroke-width=".25" d="M137.36 198.3c.85 2.31 1.08 3.5 1.2 5.97"/><path fill="#2d2d2c" fill-rule="evenodd" d="m137.34 197.93.28.66-13.74 6.07h-.21v-.72l13.67-6.01z"/><path fill="none" stroke="#000" stroke-linecap="round" stroke-linejoin="round" stroke-width=".25" d="M140.78 192.95c-1.56 4.26-1.99 6.45-2.22 10.99"/><path fill="#2d2d2c" fill-rule="evenodd" d="m140.82 192.26-.52 1.22 25.3 11.18h.39v-1.33l-25.17-11.07zM16.54 208.94v-11.48L0 197.45v11.49h16.54zM109.58 208.94v-11.48l-22.34-.01v11.49h22.34zM194.87 208.94v-11.48l-14.46-.01v11.49h14.46z"/><path fill="#2d2d2c" d="M188.29 146.03h6.57v57.91h-6.57zM0 146.03h6.57v52.19H0zM0 7.69h104.86v7.96H0zM135.74 7.69h59.12v7.96h-59.12z"/></g><g id="Doors"><path fill="none" stroke="#000" stroke-linecap="round" stroke-linejoin="round" stroke-width=".29" d="M146.14 49.76c-3.5-1.28-5.29-1.63-9.02-1.82"/><path fill="#2d2d2c" fill-rule="evenodd" d="m146.71 49.79-1-.43-9.17 20.76v.32h1.08l9.09-20.65z"/><path fill="none" stroke="#000" stroke-linecap="round" stroke-linejoin="round" stroke-width=".29" d="M87.32 50.43c3.24-1.19 4.9-1.51 8.35-1.69"/><path fill="#2d2d2c" fill-rule="evenodd" d="m86.8 50.45.92-.39 8.5 19.23v.3h-1.01L86.8 50.45z"/><path fill="none" stroke="#000" stroke-linecap="round" stroke-linejoin="round" stroke-width=".29" d="M86.97 102.74c3.51 1.29 5.31 1.64 9.05 1.83"/><path fill="#2d2d2c" fill-rule="evenodd" d="m86.4 102.71 1 .43 9.21-20.85v-.32h-1.09l-9.12 20.74z"/><path fill="none" stroke="#000" stroke-linecap="round" stroke-linejoin="round" stroke-width=".29" d="M107.36.78c-1.76 4.8-2.24 7.26-2.5 12.37"/><path fill="#2d2d2c" fill-rule="evenodd" d="m107.4 0-.58 1.37 28.48 12.58h.44v-1.49L107.4 0z"/></g><g id="Sizes"><path d="M148.03 47.15c-.27-.13-.49-.32-.66-.57a1.97 1.97 0 0 1-.31-.89h.91c.03.18.08.33.17.45s.2.2.34.26.3.09.49.09c.3 0 .53-.08.69-.24s.25-.38.25-.67v-.19c0-.32-.08-.57-.23-.74-.16-.17-.38-.26-.66-.26h-.45v-.85h.45c.25 0 .44-.08.58-.22s.21-.36.21-.63v-.2c0-.25-.07-.45-.22-.58-.15-.14-.35-.21-.62-.21-.15 0-.29.03-.41.08-.12.06-.22.15-.31.26-.08.12-.14.27-.18.45h-.91c.06-.35.17-.65.33-.9s.37-.44.62-.57.53-.19.86-.19c.55 0 .98.14 1.28.43s.45.7.45 1.23v.11c0 .32-.09.6-.26.83s-.42.41-.73.52c.35.08.62.25.81.51.19.27.29.61.29 1.02v.11c0 .37-.07.69-.21.95s-.35.46-.63.6c-.27.14-.6.21-.99.21-.36 0-.67-.07-.95-.2ZM152 46.39h.9v.9l-.9.89V46.4ZM154.04 45.52l2.14-4.63h.92l-2.09 4.57h3.13v.83h-4.11v-.78Zm2.76-2h.87v3.76h-.87v-3.76ZM159.95 47.15c-.27-.13-.49-.32-.66-.57a1.97 1.97 0 0 1-.31-.89h.91c.03.18.08.33.17.45s.2.2.34.26.3.09.49.09c.3 0 .53-.08.69-.24s.25-.38.25-.67v-.19c0-.32-.08-.57-.23-.74-.16-.17-.38-.26-.66-.26h-.45v-.85h.45c.25 0 .44-.08.58-.22s.21-.36.21-.63v-.2c0-.25-.07-.45-.22-.58-.15-.14-.35-.21-.62-.21-.15 0-.29.03-.41.08-.12.06-.22.15-.31.26-.08.12-.14.27-.18.45h-.91c.06-.35.17-.65.33-.9s.37-.44.62-.57.53-.19.86-.19c.55 0 .98.14 1.28.43s.45.7.45 1.23v.11c0 .32-.09.6-.26.83s-.42.41-.73.52c.35.08.62.25.81.51.19.27.29.61.29 1.02v.11c0 .37-.07.69-.21.95s-.35.46-.63.6c-.27.14-.6.21-.99.21-.36 0-.67-.07-.95-.2ZM108.2 46.5l2.23-2.97c.13-.17.23-.35.3-.53.07-.18.11-.35.11-.51 0-.26-.07-.46-.22-.6s-.36-.21-.64-.21c-.26 0-.47.08-.63.23-.16.15-.26.37-.29.65s-.93 0-.93 0c.05-.37.16-.68.32-.94.16-.26.37-.46.63-.59.26-.14.56-.2.89-.2.38 0 .71.07.98.2s.47.32.62.57.21.55.21.9c0 .23-.05.47-.14.71s-.22.48-.39.71l-1.85 2.51h2.42v.85h-3.6v-.78ZM112.86 46.39h.9v.9l-.9.89V46.4ZM117.25 44.11v.16c-.08.13-.19.23-.34.3-.15.06-.32.09-.52.09-.3 0-.57-.08-.8-.23s-.41-.37-.54-.66c-.13-.28-.19-.61-.19-.98 0-.42.07-.77.21-1.06.14-.29.34-.52.61-.67.27-.15.59-.23.96-.23s.7.08.96.23.47.38.61.68c.14.3.21.65.21 1.07 0 .23-.03.48-.09.74s-.14.52-.25.77c-.02.04-.04.08-.05.12l-.06.12-1.36 2.74h-.97l1.61-3.17Zm.04-.55c.15-.19.23-.46.23-.8s-.08-.6-.23-.79c-.15-.18-.37-.28-.65-.28s-.5.09-.66.28c-.15.18-.23.45-.23.79 0 .35.08.62.23.81.15.19.37.28.66.28s.5-.1.65-.29ZM121.87 44.11v.16c-.08.13-.19.23-.34.3-.15.06-.32.09-.52.09-.3 0-.57-.08-.8-.23s-.41-.37-.54-.66c-.13-.28-.19-.61-.19-.98 0-.42.07-.77.21-1.06.14-.29.34-.52.61-.67.27-.15.59-.23.96-.23s.7.08.96.23.47.38.61.68c.14.3.21.65.21 1.07 0 .23-.03.48-.09.74s-.14.52-.25.77c-.02.04-.04.08-.05.12l-.06.12-1.36 2.74h-.97l1.61-3.17Zm.04-.55c.15-.19.23-.46.23-.8s-.08-.6-.23-.79c-.15-.18-.37-.28-.65-.28s-.5.09-.66.28c-.15.18-.23.45-.23.79 0 .35.08.62.23.81.15.19.37.28.66.28s.5-.1.65-.29ZM49.24 47.12c-.27-.15-.47-.37-.61-.66-.14-.29-.21-.64-.21-1.04a3.99 3.99 0 0 1 .32-1.52c.02-.04.04-.09.06-.13l.06-.12 1.39-2.75h.97l-1.63 3.19v-.16c.08-.14.18-.25.33-.32s.3-.11.49-.11c.33 0 .62.08.85.22s.42.37.54.65c.12.29.18.63.18 1.03 0 .42-.07.77-.21 1.06-.14.29-.34.52-.61.67-.27.15-.59.23-.96.23s-.7-.08-.96-.23Zm1.62-.9c.15-.18.23-.43.23-.75 0-.36-.08-.64-.24-.83-.16-.19-.39-.29-.69-.29-.27 0-.47.1-.62.29s-.22.47-.22.83c0 .33.08.58.23.75.15.17.37.26.65.26s.5-.09.66-.26ZM53.08 46.39h.9v.9l-.9.89V46.4ZM55.92 47.15c-.27-.13-.49-.32-.66-.57a1.97 1.97 0 0 1-.31-.89h.91c.03.18.08.33.17.45s.2.2.34.26.3.09.49.09c.3 0 .53-.08.69-.24s.25-.38.25-.67v-.19c0-.32-.08-.57-.23-.74-.16-.17-.38-.26-.66-.26h-.45v-.85h.45c.25 0 .44-.08.58-.22s.21-.36.21-.63v-.2c0-.25-.07-.45-.22-.58-.15-.14-.35-.21-.62-.21-.15 0-.29.03-.41.08-.12.06-.22.15-.31.26-.08.12-.14.27-.18.45h-.91c.06-.35.17-.65.33-.9s.37-.44.62-.57.53-.19.86-.19c.55 0 .98.14 1.28.43s.45.7.45 1.23v.11c0 .32-.09.6-.26.83s-.42.41-.73.52c.35.08.62.25.81.51.19.27.29.61.29 1.02v.11c0 .37-.07.69-.22.95s-.35.46-.63.6c-.27.14-.6.21-.99.21-.36 0-.67-.07-.94-.2ZM60.43 46.87c-.31-.32-.46-.76-.46-1.34v-2.9c0-.57.16-1.02.47-1.34.31-.32.76-.48 1.36-.48s1.05.16 1.36.47.46.76.46 1.34v2.9c0 .57-.16 1.02-.47 1.34-.31.32-.76.48-1.36.48s-1.05-.16-1.36-.48Zm2.06-.62c.15-.17.23-.4.23-.71v-2.9c0-.31-.07-.55-.22-.71-.15-.17-.38-.25-.7-.25s-.55.08-.7.25c-.15.17-.22.4-.22.71v2.9c0 .31.08.55.23.71.15.17.38.25.7.25s.55-.08.7-.25ZM147.88 120.73c-.27-.13-.49-.32-.66-.57a1.97 1.97 0 0 1-.31-.89h.91c.03.18.08.33.17.45s.2.2.34.26.3.09.49.09c.3 0 .53-.08.69-.24s.25-.38.25-.67v-.19c0-.32-.08-.57-.23-.74-.16-.17-.38-.26-.66-.26h-.45v-.85h.45c.25 0 .44-.08.58-.22s.21-.36.21-.63v-.2c0-.25-.07-.45-.22-.58-.15-.14-.35-.21-.62-.21-.15 0-.29.03-.41.08-.12.06-.22.15-.31.26-.08.12-.14.27-.18.45h-.91c.06-.35.17-.65.33-.9s.37-.44.62-.57.53-.19.86-.19c.55 0 .98.14 1.28.43s.45.7.45 1.23v.11c0 .32-.09.6-.26.83s-.42.41-.73.52c.35.08.62.25.81.51.19.27.29.61.29 1.02v.11c0 .37-.07.69-.21.95s-.35.46-.63.6c-.27.14-.6.21-.99.21-.36 0-.67-.07-.95-.2ZM151.85 119.96h.9v.9l-.9.89v-1.78ZM154.83 120.71c-.29-.15-.52-.35-.68-.62a1.79 1.79 0 0 1-.24-.93v-.11c0-.32.08-.62.24-.9.16-.28.37-.49.64-.64-.23-.12-.41-.3-.54-.53-.14-.23-.2-.48-.2-.74v-.15c0-.33.07-.63.22-.88s.36-.45.63-.59c.27-.14.59-.21.95-.21s.68.07.95.21c.27.14.48.34.63.59.15.25.22.55.22.88v.15c0 .26-.07.51-.21.74a1.4 1.4 0 0 1-.55.53c.27.15.49.36.65.64.16.28.24.58.24.9v.11c0 .35-.08.67-.24.93-.16.27-.39.48-.68.62s-.63.22-1.02.22-.73-.07-1.02-.22Zm1.57-.76c.16-.08.28-.2.37-.35.09-.15.13-.32.13-.51v-.06c0-.2-.04-.37-.13-.52-.09-.15-.21-.26-.37-.34s-.34-.12-.55-.12-.39.04-.55.12-.28.2-.37.35a.98.98 0 0 0-.13.52v.07c0 .19.04.36.13.51.09.15.21.26.37.34.16.08.34.12.55.12s.39-.04.55-.12Zm-.08-2.88c.14-.08.25-.19.32-.33s.11-.31.11-.5v-.06c0-.18-.04-.34-.11-.47s-.18-.24-.32-.32c-.14-.07-.3-.11-.47-.11s-.34.04-.47.11c-.14.08-.24.18-.32.32s-.11.3-.11.48v.07c0 .18.04.35.11.49.08.14.18.25.32.33.14.08.3.12.47.12s.34-.04.47-.12ZM158.95 119.1l2.14-4.63h.92l-2.09 4.57h3.13v.83h-4.11v-.78Zm2.76-2h.87v3.76h-.87v-3.76ZM94.44 231.45c-.27-.15-.47-.37-.61-.66-.14-.29-.21-.64-.21-1.04a3.99 3.99 0 0 1 .32-1.52c.02-.04.04-.09.06-.13l.06-.12 1.39-2.75h.97l-1.63 3.19v-.16c.08-.14.18-.24.33-.32s.3-.11.49-.11c.33 0 .62.07.85.22s.42.37.54.65c.12.29.18.63.18 1.03 0 .41-.07.77-.21 1.06-.14.29-.34.52-.61.67-.27.15-.59.23-.96.23s-.7-.08-.96-.23Zm1.62-.9c.15-.18.23-.43.23-.75 0-.36-.08-.64-.24-.83-.16-.19-.39-.29-.69-.29-.27 0-.47.1-.62.29s-.22.47-.22.83c0 .33.08.58.23.75.15.17.37.26.65.26s.5-.09.66-.26ZM98.29 230.72h.9v.9l-.9.89v-1.78ZM100.33 229.86l2.14-4.63h.92l-2.09 4.58h3.13v.83h-4.11v-.78Zm2.76-2h.87v3.76h-.87v-3.76ZM106.24 231.48c-.27-.13-.49-.32-.66-.57a1.97 1.97 0 0 1-.31-.89h.91c.03.18.08.33.17.45s.2.2.34.26.3.08.49.08c.3 0 .53-.08.69-.24s.25-.38.25-.67v-.19c0-.32-.08-.57-.23-.74-.16-.17-.38-.26-.66-.26h-.45v-.85h.45c.25 0 .44-.07.58-.22s.21-.36.21-.63v-.2c0-.25-.07-.45-.22-.58-.15-.14-.35-.21-.62-.21-.15 0-.29.03-.41.09s-.22.15-.31.26c-.08.12-.14.27-.18.45h-.91c.06-.35.17-.65.33-.9s.37-.44.62-.57.53-.19.86-.19c.55 0 .98.15 1.28.44s.45.7.45 1.23v.11c0 .32-.09.6-.26.83s-.42.41-.73.52c.35.08.62.25.81.51.19.27.29.61.29 1.02v.11c0 .37-.07.69-.22.95s-.35.46-.63.6c-.27.14-.6.21-.99.21-.36 0-.67-.07-.94-.2ZM52 183.79h-.9v-5.41l-.91.56v-.93l.91-.61h.9v6.39ZM54.15 183.66c-.27-.13-.49-.32-.66-.57a1.97 1.97 0 0 1-.31-.89h.91c.03.18.08.33.17.45s.2.2.34.26.3.08.49.08c.3 0 .53-.08.69-.24s.25-.38.25-.67v-.19c0-.32-.08-.57-.23-.74-.16-.17-.38-.26-.66-.26h-.45v-.85h.45c.25 0 .44-.07.58-.22s.21-.36.21-.63v-.2c0-.25-.07-.45-.22-.58-.15-.14-.35-.21-.62-.21-.15 0-.29.03-.41.09s-.22.15-.31.26c-.08.12-.14.27-.18.45h-.91c.06-.35.17-.65.33-.9s.37-.44.62-.57.53-.19.86-.19c.55 0 .98.15 1.28.44s.45.7.45 1.23v.11c0 .32-.09.6-.26.83s-.42.41-.73.52c.35.08.62.25.81.51.19.27.29.61.29 1.02v.11c0 .37-.07.69-.22.95s-.35.46-.63.6c-.27.14-.6.21-.99.21-.36 0-.67-.07-.94-.2ZM58.12 182.89h.9v.9l-.9.89v-1.78ZM60.16 182.03l2.14-4.63h.92l-2.09 4.58h3.13v.83h-4.11v-.78Zm2.76-2h.87v3.76h-.87v-3.76ZM68.66 178.2l-1.65 5.59h-.95l1.65-5.54h-1.63v.92h-.9v-1.77h3.48v.8ZM121.61 183.79h-.9v-5.41l-.91.56v-.93l.91-.61h.9v6.39ZM123.52 183.37c-.31-.32-.46-.76-.46-1.34v-2.91c0-.57.16-1.02.47-1.34.31-.32.76-.48 1.36-.48s1.05.16 1.36.47.46.76.46 1.34v2.91c0 .57-.16 1.02-.47 1.34-.31.32-.76.48-1.36.48s-1.05-.16-1.36-.48Zm2.06-.62c.15-.17.23-.4.23-.71v-2.91c0-.31-.07-.55-.22-.71-.15-.17-.38-.25-.7-.25s-.55.08-.7.25c-.15.17-.22.4-.22.71v2.91c0 .31.08.55.23.71.15.17.38.25.7.25s.55-.08.7-.25ZM127.93 182.89h.9v.9l-.9.89v-1.78ZM131.6 183.79h-.9v-5.41l-.91.56v-.93l.91-.61h.9v6.39ZM132.96 183.01l2.23-2.97c.13-.17.23-.35.3-.53.07-.18.11-.35.11-.51 0-.26-.07-.46-.22-.6s-.36-.21-.64-.21c-.26 0-.47.08-.63.23-.16.15-.26.37-.29.65s-.93 0-.93 0c.05-.37.16-.68.32-.94.16-.26.37-.46.63-.59.26-.14.55-.21.89-.21.38 0 .71.07.98.2s.47.32.62.57.21.55.21.9c0 .23-.05.47-.14.71s-.22.48-.39.71l-1.85 2.51h2.42v.85h-3.6V183Z"/></g></svg>