<svg xmlns="http://www.w3.org/2000/svg" width="455.025" height="651.87" viewBox="0 0 341.269 488.902"><defs><pattern id="Новый_узор_3" data-name="Новый узор 3" width="35.15" height="35.15" patternTransform="translate(-7.256 -21.209)" patternUnits="userSpaceOnUse"><path class="cls-1" d="M0 0h35.15v35.15H0z"/><path class="cls-2" d="M35.149 35.15h35.15V70.3h-35.15z"/><path class="cls-2" d="M0 35.15h35.15V70.3H0zM-35.15 35.15H0V70.3h-35.15z"/><path class="cls-2" d="M35.149.001h35.15v35.15h-35.15z"/><path class="cls-2" d="M0 .001h35.15v35.15H0zM-35.15.001H0v35.15h-35.15zM35.149-35.149h35.15V.001h-35.15z"/><path class="cls-2" d="M0-35.149h35.15V.001H0zM-35.15-35.149H0V.001h-35.15z"/></pattern><pattern id="Новый_узор_4" data-name="Новый узор 4" width="9.822" height="9.822" patternTransform="translate(-4.109 -8.736)" patternUnits="userSpaceOnUse"><path class="cls-1" d="M0 0h9.822v9.822H0z"/><path class="cls-3" d="M14.733 19.647L9.82 14.735l4.913-4.913 4.912 4.913-4.912 4.912z"/><path class="cls-3" d="M4.911 19.647l-4.913-4.912 4.913-4.913 4.912 4.913-4.912 4.912z"/><path class="cls-3" d="M-4.912 19.647l-4.912-4.912 4.912-4.913 4.913 4.913-4.913 4.912zM14.733 9.825L9.82 4.912 14.733 0l4.912 4.912-4.912 4.913z"/><path class="cls-3" d="M4.911 9.825L-.002 4.912 4.911 0l4.912 4.912-4.912 4.913z"/><path class="cls-3" d="M-4.912 9.825l-4.912-4.913L-4.912 0 .001 4.912l-4.913 4.913zM14.733.003L9.82-4.91l4.913-4.912 4.912 4.912L14.733.003z"/><path class="cls-3" d="M4.911.003L-.002-4.91l4.913-4.912L9.823-4.91 4.911.003z"/><path class="cls-3" d="M-4.912.003L-9.824-4.91l4.912-4.912L.001-4.91-4.912.003z"/></pattern><pattern id="Новый_узор_5" data-name="Новый узор 5" width="22.872" height="23.072" patternTransform="translate(-8.441 -10.048)" patternUnits="userSpaceOnUse"><path class="cls-1" d="M0 0h22.872v23.072H0z"/><path class="cls-4" d="M22.664 17.512v11.12H.208v-11.12h22.456m.108-.108H.1V28.74h22.672V17.4zM22.664 5.976V17.1H.208V5.976h22.456m.108-.108H.1V17.2h22.672V5.868zM22.664-5.56V5.56H.208V-5.56h22.456m.108-.108H.1V5.668h22.672V-5.668z"/></pattern><style>.cls-1,.cls-11,.cls-13,.cls-15,.cls-2,.cls-3,.cls-4,.cls-9{fill:none}.cls-2{stroke:#ededed}.cls-11,.cls-13,.cls-2,.cls-3,.cls-9{stroke-linecap:round;stroke-linejoin:round}.cls-11,.cls-2,.cls-3,.cls-9{stroke-width:.4px}.cls-3,.cls-4{stroke:#e6e6e6}.cls-10,.cls-11,.cls-3{fill-rule:evenodd}.cls-4{stroke-miterlimit:10;stroke-width:.2px}.cls-11,.cls-13,.cls-9{stroke:#000}.cls-13{stroke-width:.388px}.cls-15{stroke:gray;stroke-width:.6px;stroke-miterlimit:22.926}</style></defs><g id="_137" data-name="137"><path id="fon" d="M32.256 25.119v309.838l-15.014 33.692a40.539 40.539 0 0015.014 3.026v110.657h285.908V25.119z" fill="#fff" fill-rule="evenodd"/><g id="grid"><path stroke="#dcdcdc" fill="url(#Новый_узор_3)" stroke-width=".4" stroke-linecap="round" stroke-linejoin="round" d="M32.256 24.929H318.11v457.403H32.256z" id="grid-2" data-name="grid"/></g><g id="wet_xones" data-name="wet xones" fill-rule="evenodd"><path fill="url(#Новый_узор_4)" d="M102.726 385.221h-5.855v22.673H41.326v48.176h14.736v21.351H75.71v-4.536H102.726v4.536h33.513v-92.2h-33.513z"/><path fill="url(#Новый_узор_5)" d="M105.939 30.409H40.992V129.786h19.226v-6.046h45.721V30.409z"/></g><g id="walls"><path class="cls-9" d="M273.522 482.332h44.588m0 0V24.929m0 0h-44.588m0 0v457.4M268.987 81.609h-15.491M276.545 81.609h-5.668M270.877 81.609h-1.89M268.987 148.491h-15.491M276.545 148.491h-5.668M270.877 148.491h-1.89M276.545 148.491V81.609M253.496 148.491V81.609M268.987 148.491v-3.778M268.987 144.712h1.891M270.877 144.712v3.778M270.877 109.948v1.891M270.877 111.838h-1.89M268.987 111.838v-1.89M269.932 144.712v-32.874M268.987 144.712v-32.874M270.877 111.838v32.874M268.987 109.948v-.943M268.987 109.004h.944M269.932 109.004v-.945M269.932 108.059h.945M270.877 108.059v1.889M270.877 81.609v3.779M270.877 85.388h-.945M269.932 85.388v-.945M269.932 84.443h-.944M268.987 84.443v-2.834M270.877 85.388v22.671M268.043 106.17V87.276M268.043 109.004v-2.834M268.043 106.17h1.889M269.932 106.17v2.834M269.932 109.004h-1.889M269.932 84.443v2.833M269.932 87.277h-1.889M268.043 87.277v-2.833M268.043 84.443h1.889M269.932 87.277v18.894M268.043 106.17V87.276M268.987 106.17V87.276M270.877 148.491h-1.89M270.877 148.491h-1.89M276.545 148.491h-5.668M268.987 148.491h-15.491M270.877 81.609h-1.89M270.877 81.609h-1.89M276.545 81.609h-5.668M268.987 81.609h-15.491M276.545 148.491h-23.05M268.987 282.632h-15.491M276.545 282.632h-5.668M270.877 282.632h-1.89M268.987 216.506h-15.491M276.545 216.506h-5.668M270.877 216.506h-1.89M276.545 216.506v66.126M253.496 216.506v66.126M268.987 216.506v3.778M268.987 220.284h1.891M270.877 220.284v-3.778M270.877 254.292v-1.89M270.877 252.403h-1.89M268.987 252.403v1.89M269.932 220.284v32.118M268.987 220.284v32.118M270.877 252.403v-32.118M268.987 254.292v.945M268.987 255.237h.944M269.932 255.237v.944M269.932 256.182h.945M270.877 256.182v-1.889M270.877 282.632v-3.779M270.877 278.853h-.945M269.932 278.853v.945M269.932 279.798h-.944M268.987 279.798v2.834M270.877 278.853v-22.672M268.043 258.071v18.893M268.043 255.237v2.834M268.043 258.071h1.889M269.932 258.071v-2.834M269.932 255.237h-1.889M269.932 279.798v-2.834M269.932 276.964h-1.889M268.043 276.964v2.834M268.043 279.798h1.889M269.932 276.964v-18.893M268.043 258.071v18.893M268.987 258.071v18.893M270.877 216.506h-1.89M270.877 216.506h-1.89M276.545 216.506h-5.668M268.987 216.506h-15.491M270.877 282.632h-1.89M270.877 282.632h-1.89M276.545 282.632h-5.668M268.987 282.632h-15.491M276.545 282.632h-23.05M268.987 361.227h-15.491M276.545 361.227h-5.668M270.877 361.227h-1.89M268.987 444.358h-15.491M276.545 444.358h-5.668M270.877 444.358h-1.89M276.545 444.358v-83.13M253.496 444.358v-83.13M268.987 444.358v-3.779M268.987 440.578h1.891M270.877 440.578v3.78M270.877 404.682v1.889M270.877 406.571h-1.89M268.987 406.571v-1.889M269.932 440.578v-34.007M268.987 440.578v-34.007M270.877 406.571v34.007M268.987 404.682v-.945M268.987 403.737h.944M269.932 403.737v-.945M269.932 402.792h.945M270.877 402.792v1.89M270.877 361.227v3.779M270.877 365.006h-.945M269.932 365.006v-.944M269.932 364.062h-.944M268.987 364.062v-2.834M270.877 365.006v37.786M268.043 400.903v-34.008M268.043 403.737v-2.834M268.043 400.903h1.889M269.932 400.903v2.834M269.932 403.737h-1.889M269.932 364.062v2.833M269.932 366.895h-1.889M268.043 366.895v-2.833M268.043 364.062h1.889M269.932 366.895v34.008M268.043 400.903v-34.008M268.987 400.903v-34.008M270.877 444.358h-1.89M270.877 444.358h-1.89M276.545 444.358h-5.668M268.987 444.358h-15.491M270.877 361.227h-1.89M270.877 361.227h-1.89M276.545 361.227h-5.668M268.987 361.227h-15.491M94.879 90.161a26.687 26.687 0 0011.061 3.35"/><path class="cls-10" d="M94.781 90.144l1.387.6 11.283-25.95v-.454h-1.512L94.781 90.144z"/><path class="cls-11" d="M149.149 170.117a35.25 35.25 0 012.587 12.57"/><path class="cls-10" d="M149.116 170.029l-29.271 12.659v1.51h.453l29.418-12.781-.6-1.388z"/><path class="cls-11" d="M94.877 161.974a31.1 31.1 0 0011.062 2.273"/><path class="cls-10" d="M94.781 161.938l1.413.568 11.282-25.95-.025-.422h-1.512l-11.158 25.804z"/><path class="cls-11" d="M16.691 368.494a43.913 43.913 0 0015.565 3.2"/><path class="cls-10" d="M16.598 368.453l1.388.6 15.781-36.355v-.453h-1.511l-15.658 36.208z"/><path class="cls-11" d="M151.749 375.164a34.879 34.879 0 01-12.557 2.577"/><path class="cls-10" d="M151.85 375.12l-12.658-29.271-1.512-.001v.453l12.782 29.42 1.388-.601zM105.529 396.38l25.803-11.159v-1.51h-.454l-25.951 11.281.602 1.388z"/><path class="cls-11" d="M104.952 395.049a31.437 31.437 0 01-1.733-9.828M94.879 90.161a26.687 26.687 0 0011.061 3.35"/><path class="cls-10" d="M94.781 90.144l1.387.6 11.283-25.95v-.454h-1.512L94.781 90.144z"/><path class="cls-11" d="M149.149 170.117a35.25 35.25 0 012.587 12.57"/><path class="cls-10" d="M149.116 170.029l-29.271 12.659v1.51h.453l29.418-12.781-.6-1.388z"/><path class="cls-11" d="M94.877 161.974a31.1 31.1 0 0011.062 2.273"/><path class="cls-10" d="M94.781 161.938l1.413.568 11.282-25.95-.025-.422h-1.512l-11.158 25.804z"/><path class="cls-11" d="M16.691 368.494a43.913 43.913 0 0015.565 3.2"/><path class="cls-10" d="M16.598 368.453l1.388.6 15.781-36.355v-.453h-1.511l-15.658 36.208z"/><path class="cls-11" d="M151.749 375.164a34.879 34.879 0 01-12.557 2.577"/><path class="cls-10" d="M151.85 375.12l-12.658-29.271-1.512-.001v.453l12.782 29.42 1.388-.601zM105.529 396.38l25.803-11.159v-1.51h-.454l-25.951 11.281.602 1.388z"/><path class="cls-11" d="M104.952 395.049a31.437 31.437 0 01-1.733-9.828"/><path d="M253.5 488.662h-46.056v-11.241H253.5v-33.063h23.049v44.3zm-221.239 0V371.7h1.51v-.455h7.558v117.417zm9.064-469.873V332.7h-7.558v-.453h-1.51V18.789zm235.219 0v62.82H253.5v-62.82zm-69.378 172.966H253.5v24.75h23.049v-68.014H253.5v34.2h-46.334v9.068zm46.334 90.876h23.049v78.6H253.5z" stroke-miterlimit="3" stroke-width=".48" stroke="#000" fill-rule="evenodd"/><path class="cls-9" d="M267.986 364.039l-28.056 28.055M239.93 392.094a39.677 39.677 0 0028.056 11.621"/><path class="cls-13" d="M268.93 440.556l-29-25.904M239.93 414.652a40.936 40.936 0 0128.056-10.952"/></g><g id="wall_2" data-name="wall 2"><path d="M253.5 19.072999999999993v11.336H108.961v34.385h-1.511v-.454h-1.51V30.409H41.325V19.073zM108.961 165.305v17.382h10.884v1.513h.453v7.557H41.325v-9.068H60.6v-13.983H41.325v-3.022h22.293v17.003h42.32v-18.44h1.511v-.453h1.511v1.511zM56.06 477.4v.017h19.65v-4.535h27.016v4.518l33.513.017-.067-92.2h-4.84v-1.51h-.454V382.2h5.292v-4.912h1.512v.453h1.511q0 49.838.071 99.682h68.182v10.957H41.325v-10.959h11.713v-18.328H41.325v-3.023h14.737v21.33zm43.644.017v-1.512H78.733v1.5l20.971.017zm107.462-285.662v-9.068h-55.43v1.513h-.453v7.557zM63.241 126.764zm42.7-33.253h3.022v43.076h-1.511v-.453h-1.512v-3.324H41.315v-3.024h18.9v-6.046h45.721V93.511zm0 33.253h-42.7v3.022h42.7v-3.022zM64 319.851H41.325v-3.022H64v3.022zm75.195 0v26h-1.515v.453h-1.512v-26.45h-31.362v-3.022H253.5v3.022zM93.848 404.87V382.2h9.824v1.512h-.453v1.51h-6.348v22.673H41.326v-3.025z" fill="#fff"/><path class="cls-15" d="M48.6 19.07l-7.27 6.41M56.02 19.07L43.15 30.41M63.44 19.07L50.57 30.41M70.87 19.07L58 30.41M78.29 19.07L65.42 30.41M85.71 19.07L72.84 30.41M93.14 19.07L80.26 30.41M100.55 19.07L87.68 30.41M107.98 19.07L95.1 30.41M115.4 19.07l-12.87 11.34M122.83 19.07l-12.88 11.34M108.96 31.28l-3.02 2.67M130.25 19.07l-12.88 11.34M108.96 37.82l-3.02 2.66M137.67 19.07L124.8 30.41M108.96 44.36l-3.02 2.66M108.96 50.89l-3.02 2.67M145.09 19.07l-12.88 11.34M108.96 57.43l-3.02 2.67M152.51 19.07l-12.87 11.34M159.93 19.07l-12.87 11.34M108.96 63.97l-.93.82M167.36 19.07l-12.87 11.34M41.67 129.79l-.35.31M174.78 19.07l-12.87 11.34M49.1 129.79l-3.43 3.02M182.2 19.07l-12.87 11.34M63.38 123.74l-3.16 2.79M56.52 129.79l-3.43 3.02M189.63 19.07l-12.87 11.34M63.94 129.79l-3.43 3.02M70.81 123.74l-3.43 3.02M197.04 19.07l-12.87 11.34M108.96 96.66l-3.02 2.67M71.36 129.79l-3.43 3.02M78.22 123.74l-3.42 3.02M108.96 103.2l-3.02 2.67M78.78 129.79l-3.43 3.02M85.65 123.74l-3.43 3.02M204.47 19.07l-12.88 11.34M108.96 109.74l-3.02 2.67M86.2 129.79l-3.42 3.02M45.46 165.68l-3.44 3.03M93.07 123.74l-3.43 3.02M211.89 19.07l-12.87 11.34M108.96 116.28l-3.02 2.67M93.63 129.79l-3.43 3.02M52.89 165.68l-3.44 3.03M100.5 123.74l-3.43 3.02M219.32 19.07l-12.88 11.34M108.96 122.82l-4.47 3.94M60.31 165.68l-3.44 3.03M101.05 129.79l-3.43 3.02M226.74 19.07l-12.87 11.34M108.96 129.36l-3.91 3.45M48.42 182.69l-7.09 6.25M63.62 169.3l-3.02 2.66M234.16 19.07l-12.87 11.34M63.62 175.84l-3.02 2.66M55.84 182.69l-10.3 9.07M108.96 135.89l-.79.7M241.58 19.07L228.7 30.41M63.62 182.38l-10.65 9.38M249 19.07l-12.87 11.34M70.69 182.69l-10.3 9.07M253.5 21.65l-9.95 8.76M78.11 182.69l-10.29 9.07M253.5 28.19l-2.52 2.22M106.47 164.25l-.53.47M85.54 182.69l-10.3 9.07M92.96 182.69l-10.3 9.07M108.96 168.59l-3.02 2.66M100.37 182.69l-10.29 9.07M108.96 175.12l-3.02 2.67M108.96 181.66l-11.46 10.1M115.22 182.69l-10.3 9.07M120.3 184.76l-7.95 7M120.3 191.3l-.53.46M152.33 182.69l-.59.52M159.75 182.69l-8.47 7.46M167.18 182.69l-10.3 9.07M174.6 182.69l-10.29 9.07M182.02 182.69l-10.29 9.07M189.45 182.69l-10.3 9.07M196.86 182.69l-10.29 9.07M44.59 316.83l-3.26 2.87M204.29 182.69l-10.3 9.07M52.01 316.83l-3.42 3.02M207.17 186.69l-5.76 5.07M59.44 316.83l-3.43 3.02M64 319.35l-.57.5M111.39 316.83l-3.42 3.02M118.82 316.83l-3.43 3.02M126.24 316.83l-3.43 3.02M133.67 316.83l-3.43 3.02M141.08 316.83l-4.91 4.33M48.56 404.87l-3.43 3.02M148.5 316.83l-3.42 3.02M139.19 325.03l-3.02 2.66M55.99 404.87l-3.43 3.02M155.93 316.83l-3.43 3.02M139.19 331.58l-3.02 2.66M63.41 404.87l-3.43 3.02M163.35 316.83l-3.43 3.02M139.19 338.11l-3.02 2.66M70.83 404.87l-3.42 3.02M96.57 382.2l-2.72 2.39M137.68 345.98l-.36.32M139.19 344.65l-1.36 1.2M170.78 316.83l-3.43 3.02M96.87 388.47l-3.02 2.66M78.26 404.87l-3.43 3.02M103.67 382.48l-3.11 2.74M178.2 316.83l-3.43 3.02M96.87 395.01l-3.02 2.66M85.67 404.87l-3.42 3.02M185.61 316.83l-3.42 3.02M96.87 401.55l-3.02 2.66M93.1 404.87l-3.43 3.02M193.04 316.83l-3.43 3.02M42.4 456.07l-1.07.94M200.46 316.83l-3.43 3.02M49.82 456.07l-3.43 3.02M133.68 382.2l-2.35 2.07M138.74 377.74l-2.57 2.26M207.88 316.83l-3.42 3.02M139.19 383.88l-3.02 2.66M56.06 457.12l-3.02 2.66M215.31 316.83l-3.43 3.02M139.2 390.42l-3.02 2.66M56.06 463.66l-3.02 2.66M222.73 316.83l-3.43 3.02M139.2 396.95l-3.02 2.66M47.86 477.42l-6.53 5.75M56.06 470.19l-3.02 2.66M230.16 316.83l-3.43 3.02M139.21 403.48l-3.02 2.66M56.06 476.73l-13.23 11.65M237.57 316.83l-3.43 3.02M139.21 410.02l-3.02 2.66M62.69 477.42l-12.44 10.96M244.99 316.83l-3.42 3.02M252.42 316.83l-3.43 3.02M70.12 477.42l-12.44 10.96M139.21 416.55l-3.01 2.66M78.73 476.37L65.1 488.38M82.69 472.89l-3.43 3.02M139.22 423.09l-3.02 2.66M84.98 477.41l-12.46 10.97M90.11 472.89l-3.43 3.02M139.22 429.63l-3.01 2.65M92.4 477.41l-12.45 10.97M97.53 472.89l-3.43 3.02M139.23 436.16l-3.02 2.66M102.73 474.85l-15.36 13.53M139.23 442.69l-3.01 2.66M107.25 477.4l-12.46 10.98M139.24 449.22l-3.02 2.66M114.67 477.41l-12.46 10.97M139.24 455.76l-3.01 2.66M122.09 477.41l-12.46 10.97M139.25 462.29l-3.02 2.66M129.5 477.42l-12.44 10.96M139.25 468.83l-3.01 2.66M139.26 475.36l-14.78 13.02M144.34 477.42l-12.44 10.96M151.76 477.42l-12.44 10.96M159.19 477.42l-12.45 10.96M166.61 477.42l-12.44 10.96M174.03 477.42l-12.44 10.96M181.46 477.42l-12.44 10.96M188.88 477.42l-12.44 10.96M196.3 477.42l-12.44 10.96M203.72 477.42l-12.44 10.96M207.44 480.68l-8.74 7.7M207.44 487.22l-1.32 1.16"/><path d="M108.962 93.511h0M253.5 19.073v11.336H108.961v34.385h-1.511v-.454h-1.51V30.409H41.325V19.073zM108.961 165.305v17.382h10.884v1.513h.453v7.557H41.325v-9.068H60.6v-13.983H41.325v-3.022h22.293v1.916h0v15.087h42.32v-17.382h0v-1.058h1.511v-.453h1.511v1.511zM56.06 477.4v.017h19.65v-4.535h27.016v4.518l33.513.017-.067-92.2h-4.84v-1.51h-.454V382.2h5.292v-4.912h1.512v.453h1.511q0 49.838.071 99.682h68.182v10.957H41.325v-10.959h11.713v-18.328H41.325v-3.023h14.737v3.023h0V477.4zm43.644.017v-1.512H78.733v1.5l20.971.017zm107.462-285.662v-9.068h-55.43v1.513h-.453v7.557zM63.241 126.764zm42.7-33.253h3.022v43.076h-1.511v-.453h-1.512v-3.324H41.315v-3.024h18.9v-6.046h45.721V93.511zm0 33.253h-42.7v3.022h42.7v-3.022zM64 319.851H41.325v-3.022H64v3.022zm75.195 0v26h-1.515v.453h-1.512v-26.45h-31.362v-3.022H253.5v3.022zM93.848 404.87V382.2h9.824v1.512h-.453v1.51h-6.348v22.673H41.326v-3.025z" stroke-width=".567" stroke-miterlimit="22.926" stroke="#000" fill-rule="evenodd" fill="none"/></g></g><g id="Слой_4" data-name="Слой 4"><path class="cls-9" d="M35.666 371.524H1.575" id="LINE"/><path class="cls-9" d="M35.666 332.862H1.575" id="LINE-2" data-name="LINE"/><path class="cls-9" d="M1.662 332.862v38.662" id="LINE-3" data-name="LINE"/><path d="M12.381 361.148v1.395H3.959l.868 1.415H3.385l-.943-1.415v-1.395zM12.381 356.493v1.395H3.959l.868 1.415H3.385l-.943-1.415v-1.395zM11.739 353.517a2.869 2.869 0 01-2.079.72H5.142a2.856 2.856 0 01-2.082-.724 3.393 3.393 0 010-4.229 2.862 2.862 0 012.085-.721H9.66a2.856 2.856 0 012.082.725 3.379 3.379 0 010 4.229zm-.968-3.207a1.591 1.591 0 00-1.111-.352H5.142a1.6 1.6 0 00-1.111.349 1.742 1.742 0 000 2.187 1.6 1.6 0 001.111.349H9.66a1.591 1.591 0 001.111-.352 1.733 1.733 0 000-2.181zM11.739 345.792a2.869 2.869 0 01-2.079.721H5.142a2.856 2.856 0 01-2.082-.725 3.391 3.391 0 010-4.228 2.858 2.858 0 012.085-.721H9.66a2.856 2.856 0 012.082.724 3.379 3.379 0 010 4.229zm-.968-3.207a1.6 1.6 0 00-1.111-.352H5.142a1.605 1.605 0 00-1.111.349 1.743 1.743 0 000 2.188 1.6 1.6 0 001.111.348H9.66a1.6 1.6 0 001.111-.351 1.735 1.735 0 000-2.182z"/><path class="cls-9" d="M1.662 371.524l1.461-1.461" id="LINE-4" data-name="LINE"/><path class="cls-9" d="M.201 370.063l1.461 1.461" id="LINE-5" data-name="LINE"/><path class="cls-9" d="M1.661 332.862L.2 334.323" id="LINE-6" data-name="LINE"/><path class="cls-9" d="M3.122 334.323l-1.461-1.461" id="LINE-7" data-name="LINE"/><path class="cls-9" d="M58.075 30.868v98.918" id="LINE-8" data-name="LINE"/><path d="M54.67 93l-4.621-3.466a3.46 3.46 0 00-.824-.468 2.181 2.181 0 00-.8-.168h-.014a1.209 1.209 0 00-.923.349 1.394 1.394 0 00-.328.991 1.369 1.369 0 00.359.985 1.631 1.631 0 001.015.458h.007v1.442h-.007a3.727 3.727 0 01-1.459-.5 2.566 2.566 0 01-.923-.981 2.93 2.93 0 01-.318-1.388 3.47 3.47 0 01.3-1.518 2.138 2.138 0 01.886-.957 2.813 2.813 0 011.4-.328h.007a3.079 3.079 0 011.1.219 4.734 4.734 0 011.108.608l3.91 2.878V87.4h1.335V93zM55.631 84.962a2.29 2.29 0 01-1.026.947 3.716 3.716 0 01-1.623.324h-.007a5.608 5.608 0 01-1.162-.129 6.8 6.8 0 01-1.2-.376 3.278 3.278 0 01-.2-.089l-.2-.1-4.279-2.16v-1.5l4.966 2.536-.246-.007a1.189 1.189 0 01-.5-.5 1.575 1.575 0 01-.178-.765 2.438 2.438 0 01.349-1.327 2.169 2.169 0 011.015-.84 4.025 4.025 0 011.6-.288h.007a3.783 3.783 0 011.64.326 2.284 2.284 0 011.039.949 3.351 3.351 0 010 3zm-1.4-2.52a1.728 1.728 0 00-1.169-.358h-.007a1.971 1.971 0 00-1.289.376 1.313 1.313 0 00-.454 1.073 1.132 1.132 0 00.458.964 2.124 2.124 0 001.292.342h.007a1.7 1.7 0 001.165-.36 1.474 1.474 0 000-2.037zM55.689 77.4a2.407 2.407 0 01-.855.951 3.391 3.391 0 01-1.346.489h-.007v-1.391h.007a1.3 1.3 0 00.851-.437 1.421 1.421 0 00.3-.944 1.261 1.261 0 00-.448-1.035 1.941 1.941 0 00-1.261-.366h-.83a1.933 1.933 0 00-1.255.366 1.261 1.261 0 00-.447 1.035 1.317 1.317 0 00.2.7 1.964 1.964 0 00.574.588v1.271h-5.231V73.56h1.326v3.67H49.5a1.979 1.979 0 01-.328-.581 1.894 1.894 0 01-.116-.656 2.9 2.9 0 01.355-1.473 2.284 2.284 0 011.039-.93 3.9 3.9 0 011.648-.318h.834a3.773 3.773 0 011.647.329 2.32 2.32 0 011.043.957 3 3 0 01.359 1.51 2.928 2.928 0 01-.292 1.332zM55.238 70.5a2.869 2.869 0 01-2.079.721h-4.518a2.856 2.856 0 01-2.082-.725 3.391 3.391 0 010-4.228 2.858 2.858 0 012.085-.721h4.518a2.856 2.856 0 012.082.724 3.379 3.379 0 010 4.229zm-.968-3.207a1.6 1.6 0 00-1.111-.352h-4.518a1.605 1.605 0 00-1.111.349 1.743 1.743 0 000 2.188 1.6 1.6 0 001.111.348h4.518a1.6 1.6 0 001.111-.351 1.735 1.735 0 000-2.182z"/><path class="cls-9" d="M58.075 129.736l-1.461-1.461" id="LINE-9" data-name="LINE"/><path class="cls-9" d="M59.536 128.275l-1.461 1.461" id="LINE-10" data-name="LINE"/><path class="cls-9" d="M58.076 30.868l1.461 1.461" id="LINE-11" data-name="LINE"/><path class="cls-9" d="M56.615 32.329l1.461-1.461" id="LINE-12" data-name="LINE"/><path class="cls-9" d="M240.393 30.868v151.63" id="LINE-13" data-name="LINE"/><path d="M235.464 121.025l-7.2-3.336v-1.435l7.117 3.254v-4.874h1.292v6.391zm-3.111-4.286v-1.36h5.852v1.36zM237.555 112.2a2.861 2.861 0 01-2.078.721h-4.518a2.843 2.843 0 110-5.674h4.518a2.559 2.559 0 012.824 2.837 2.812 2.812 0 01-.746 2.116zm-.967-3.2a1.6 1.6 0 00-1.111-.351h-4.518a1.6 1.6 0 00-1.111.348 1.743 1.743 0 000 2.188 1.6 1.6 0 001.111.348h4.518a1.6 1.6 0 001.111-.351 1.735 1.735 0 000-2.182zM229.5 100.066l8.7 2.571v1.483l-8.613-2.57v2.529h1.428v1.4h-2.754v-5.408zM237.555 97.432a2.865 2.865 0 01-2.078.72h-4.518a2.843 2.843 0 110-5.673h4.518a2.856 2.856 0 012.082.724 3.377 3.377 0 010 4.229zm-.967-3.207a1.591 1.591 0 00-1.111-.352h-4.518a1.6 1.6 0 00-1.111.349 1.742 1.742 0 000 2.187 1.6 1.6 0 001.111.349h4.518a1.591 1.591 0 001.111-.352 1.733 1.733 0 000-2.181z"/><path class="cls-9" d="M240.393 182.498l-1.461-1.461" id="LINE-14" data-name="LINE"/><path class="cls-9" d="M241.854 181.037l-1.461 1.461" id="LINE-15" data-name="LINE"/><path class="cls-9" d="M240.394 30.868l1.461 1.461" id="LINE-16" data-name="LINE"/><path class="cls-9" d="M238.933 32.329l1.461-1.461" id="LINE-17" data-name="LINE"/><path class="cls-9" d="M232.242 320.001v156.982" id="LINE-18" data-name="LINE"/><path d="M227.313 407.681l-7.2-3.336v-1.436l7.116 3.254v-4.874h1.292v6.392zM224.2 403.4v-1.361h5.852v1.361zM230.047 397.522v1.395h-8.422l.868 1.415h-1.442l-.943-1.415v-1.395zM229.808 393.94a2.5 2.5 0 01-.967 1.057 2.79 2.79 0 01-1.453.372h-.164a2.793 2.793 0 01-1.4-.372 2.492 2.492 0 01-.992-1 2.179 2.179 0 01-.83.845 2.244 2.244 0 01-1.145.317h-.24a2.641 2.641 0 01-1.37-.349 2.356 2.356 0 01-.916-.984 3.516 3.516 0 010-2.953 2.356 2.356 0 01.916-.984 2.641 2.641 0 011.37-.349h.24a2.2 2.2 0 011.155.325 2.158 2.158 0 01.82.858 2.576 2.576 0 011-1.008 2.726 2.726 0 011.4-.38h.164a2.79 2.79 0 011.453.372 2.5 2.5 0 01.967 1.057 3.846 3.846 0 010 3.171zm-5.671-2.324a1.248 1.248 0 00-.516-.5 1.628 1.628 0 00-.772-.178h-.1a1.5 1.5 0 00-.738.178 1.229 1.229 0 00-.5.5 1.654 1.654 0 000 1.477 1.229 1.229 0 00.5.5 1.517 1.517 0 00.745.178h.1a1.593 1.593 0 00.762-.178 1.25 1.25 0 00.512-.5 1.589 1.589 0 000-1.477zm4.481-.116a1.376 1.376 0 00-.536-.571 1.555 1.555 0 00-.8-.2h-.095a1.571 1.571 0 00-.8.2 1.376 1.376 0 00-.536.571 2 2 0 000 1.709 1.366 1.366 0 00.54.571 1.585 1.585 0 00.807.2h.1a1.535 1.535 0 00.793-.2 1.368 1.368 0 00.53-.571 1.863 1.863 0 00.188-.855 1.825 1.825 0 00-.191-.854zM229.856 385.952a2.407 2.407 0 01-.855.951 3.406 3.406 0 01-1.346.489h-.007V386h.007a1.3 1.3 0 00.851-.437 1.423 1.423 0 00.3-.944 1.261 1.261 0 00-.448-1.035 1.941 1.941 0 00-1.261-.366h-.834a1.933 1.933 0 00-1.255.366 1.261 1.261 0 00-.447 1.035 1.314 1.314 0 00.205.7 1.941 1.941 0 00.574.588v1.272h-5.236v-5.066h1.326v3.671h2.235a1.992 1.992 0 01-.328-.581 1.9 1.9 0 01-.116-.656 2.9 2.9 0 01.355-1.474 2.287 2.287 0 011.039-.929 3.9 3.9 0 011.648-.318h.834a3.788 3.788 0 011.647.328 2.332 2.332 0 011.043.957 3 3 0 01.359 1.511 2.931 2.931 0 01-.29 1.33z"/><path class="cls-9" d="M232.242 477.338l-1.461-1.462" id="LINE-19" data-name="LINE"/><path class="cls-9" d="M233.703 475.876l-1.461 1.462" id="LINE-20" data-name="LINE"/><path class="cls-9" d="M232.243 320.001l1.461 1.461" id="LINE-21" data-name="LINE"/><path class="cls-9" d="M230.781 321.462l1.462-1.461" id="LINE-22" data-name="LINE"/><path class="cls-9" d="M241.49 191.755v125.074" id="LINE-23" data-name="LINE"/><path d="M239.4 278.751l-.3.636a2.513 2.513 0 01-.882 1.022 3.187 3.187 0 01-1.391.488v-1.421a1.5 1.5 0 00.7-.267 1.238 1.238 0 00.407-.53 2.011 2.011 0 00.133-.762 1.483 1.483 0 00-.369-1.073 1.378 1.378 0 00-1.039-.383h-.3a1.677 1.677 0 00-1.152.362 1.3 1.3 0 00-.407 1.026v.7h-1.326v-.7a1.164 1.164 0 00-.349-.9 1.4 1.4 0 00-.984-.321h-.308a1.19 1.19 0 00-.909.339 1.337 1.337 0 00-.321.96 1.462 1.462 0 00.133.636 1.219 1.219 0 00.41.474 1.853 1.853 0 00.694.284v1.415a3.611 3.611 0 01-1.394-.515 2.534 2.534 0 01-.882-.961 2.855 2.855 0 01-.3-1.333 2.754 2.754 0 01.677-1.989 2.519 2.519 0 011.907-.7H232a2.146 2.146 0 011.3.4 2.277 2.277 0 01.807 1.141 2.02 2.02 0 01.8-1.26 2.647 2.647 0 011.586-.449h.164a3.067 3.067 0 011.484.335 2.212 2.212 0 01.936.975 3.386 3.386 0 01.322 1.541zM239.4 271.348l-.3.635a2.516 2.516 0 01-.882 1.023 3.187 3.187 0 01-1.391.488v-1.422a1.509 1.509 0 00.7-.266 1.241 1.241 0 00.407-.531 2 2 0 00.133-.761 1.485 1.485 0 00-.369-1.074 1.381 1.381 0 00-1.039-.382h-.3a1.677 1.677 0 00-1.152.362 1.3 1.3 0 00-.407 1.025v.7h-1.326v-.7a1.163 1.163 0 00-.349-.9 1.4 1.4 0 00-.984-.321h-.308a1.19 1.19 0 00-.909.339 1.335 1.335 0 00-.321.96 1.454 1.454 0 00.133.635 1.215 1.215 0 00.41.475 1.87 1.87 0 00.694.284v1.415a3.627 3.627 0 01-1.394-.516 2.531 2.531 0 01-.882-.96 2.858 2.858 0 01-.3-1.333 2.758 2.758 0 01.677-1.99 2.522 2.522 0 011.907-.7H232a2.152 2.152 0 011.3.4 2.284 2.284 0 01.807 1.142 2.022 2.022 0 01.8-1.261 2.654 2.654 0 011.586-.448h.164a3.055 3.055 0 011.484.335 2.212 2.212 0 01.936.975 3.383 3.383 0 01.322 1.541zM239.1 264.241a2.407 2.407 0 01-.855.951 3.385 3.385 0 01-1.346.489h.001v-1.395h.007a1.3 1.3 0 00.851-.437 1.423 1.423 0 00.3-.944 1.261 1.261 0 00-.448-1.035 1.941 1.941 0 00-1.261-.366h-.834a1.933 1.933 0 00-1.255.366 1.261 1.261 0 00-.447 1.035 1.32 1.32 0 00.205.7 1.962 1.962 0 00.574.587v1.272h-5.236V260.4h1.326v3.671h2.235a1.979 1.979 0 01-.328-.581 1.9 1.9 0 01-.116-.656 2.9 2.9 0 01.355-1.474 2.287 2.287 0 011.039-.929 3.9 3.9 0 011.648-.318h.834a3.773 3.773 0 011.647.329 2.32 2.32 0 011.043.957 3 3 0 01.359 1.51 2.928 2.928 0 01-.298 1.332zM238.653 257.338a2.869 2.869 0 01-2.079.721h-4.518a2.856 2.856 0 01-2.082-.725 3.393 3.393 0 010-4.229 2.861 2.861 0 012.085-.72h4.518a2.854 2.854 0 012.082.724 3.379 3.379 0 010 4.229zm-.968-3.207a1.591 1.591 0 00-1.111-.352h-4.518a1.605 1.605 0 00-1.111.349 1.742 1.742 0 000 2.187 1.6 1.6 0 001.111.349h4.518a1.6 1.6 0 001.111-.351 1.731 1.731 0 000-2.182z"/><path class="cls-9" d="M241.49 316.829l-1.461-1.462" id="LINE-24" data-name="LINE"/><path class="cls-9" d="M242.951 315.367l-1.461 1.462" id="LINE-25" data-name="LINE"/><path class="cls-9" d="M241.491 191.755l1.461 1.462" id="LINE-26" data-name="LINE"/><path class="cls-9" d="M240.03 193.217l1.461-1.462" id="LINE-27" data-name="LINE"/><path class="cls-9" d="M58.075 132.81v32.175" id="LINE-28" data-name="LINE"/><path d="M55.641 157.876a2.5 2.5 0 01-.967 1.057 2.79 2.79 0 01-1.453.372h-.164a2.793 2.793 0 01-1.4-.372 2.492 2.492 0 01-.992-1 2.183 2.183 0 01-.83.844 2.245 2.245 0 01-1.145.318h-.24a2.651 2.651 0 01-1.37-.349 2.362 2.362 0 01-.916-.984 3.519 3.519 0 010-2.954 2.368 2.368 0 01.916-.984 2.651 2.651 0 011.37-.349h.24a2.2 2.2 0 011.155.326 2.156 2.156 0 01.82.857 2.576 2.576 0 01.995-1.008 2.726 2.726 0 011.4-.38h.164a2.79 2.79 0 011.453.372 2.5 2.5 0 01.967 1.057 3.848 3.848 0 010 3.172zm-5.671-2.324a1.248 1.248 0 00-.516-.5 1.628 1.628 0 00-.772-.178h-.1a1.5 1.5 0 00-.738.178 1.235 1.235 0 00-.5.5 1.652 1.652 0 000 1.476 1.235 1.235 0 00.5.5 1.507 1.507 0 00.745.178h.1a1.582 1.582 0 00.762-.178 1.25 1.25 0 00.512-.5 1.587 1.587 0 000-1.476zm4.481-.116a1.378 1.378 0 00-.536-.572 1.555 1.555 0 00-.8-.2h-.095a1.571 1.571 0 00-.8.2 1.385 1.385 0 00-.536.572 2 2 0 000 1.709 1.372 1.372 0 00.54.571 1.585 1.585 0 00.807.2h.1a1.535 1.535 0 00.793-.2 1.374 1.374 0 00.53-.571 1.869 1.869 0 00.188-.855 1.825 1.825 0 00-.191-.854zM55.641 150a2.5 2.5 0 01-.967 1.057 2.79 2.79 0 01-1.453.372h-.164a2.793 2.793 0 01-1.4-.372 2.492 2.492 0 01-.992-1 2.183 2.183 0 01-.83.844 2.245 2.245 0 01-1.145.318h-.24a2.651 2.651 0 01-1.37-.349 2.362 2.362 0 01-.916-.984 3.519 3.519 0 010-2.954 2.368 2.368 0 01.916-.984 2.651 2.651 0 011.37-.349h.24a2.2 2.2 0 011.155.326 2.156 2.156 0 01.82.857 2.576 2.576 0 01.995-1.008 2.726 2.726 0 011.4-.38h.164a2.79 2.79 0 011.453.372 2.5 2.5 0 01.967 1.057 3.848 3.848 0 010 3.172zm-5.671-2.324a1.248 1.248 0 00-.516-.5 1.628 1.628 0 00-.772-.178h-.1a1.5 1.5 0 00-.738.178 1.235 1.235 0 00-.5.5 1.652 1.652 0 000 1.476 1.235 1.235 0 00.5.5 1.507 1.507 0 00.745.178h.1a1.582 1.582 0 00.762-.178 1.25 1.25 0 00.512-.5 1.587 1.587 0 000-1.476zm4.481-.116a1.378 1.378 0 00-.536-.572 1.555 1.555 0 00-.8-.2h-.095a1.571 1.571 0 00-.8.2 1.385 1.385 0 00-.536.572 2 2 0 000 1.709 1.372 1.372 0 00.54.571 1.585 1.585 0 00.807.2h.1a1.535 1.535 0 00.793-.2 1.374 1.374 0 00.53-.571 1.869 1.869 0 00.188-.855 1.825 1.825 0 00-.191-.853zM55.238 142.731a2.865 2.865 0 01-2.079.721h-4.518a2.856 2.856 0 01-2.082-.724 3.393 3.393 0 010-4.229 2.862 2.862 0 012.085-.721h4.518a2.856 2.856 0 012.082.725 3.377 3.377 0 010 4.228zm-.968-3.207a1.6 1.6 0 00-1.111-.351h-4.518a1.6 1.6 0 00-1.111.348 1.743 1.743 0 000 2.188 1.605 1.605 0 001.111.349h4.518a1.6 1.6 0 001.111-.352 1.735 1.735 0 000-2.182z"/><path class="cls-9" d="M58.075 164.934l-1.461-1.461" id="LINE-29" data-name="LINE"/><path class="cls-9" d="M59.536 163.473l-1.461 1.461" id="LINE-30" data-name="LINE"/><path class="cls-9" d="M58.076 132.81l1.461 1.461" id="LINE-31" data-name="LINE"/><path class="cls-9" d="M56.615 134.271l1.461-1.461" id="LINE-32" data-name="LINE"/><path class="cls-9" d="M136.239 377.286h37.044" id="LINE-33" data-name="LINE"/><path class="cls-9" d="M136.239 346.301h37.044" id="LINE-34" data-name="LINE"/><path class="cls-9" d="M173.196 346.301v30.985" id="LINE-35" data-name="LINE"/><path d="M166.065 367.557l.246.006a1.032 1.032 0 01.462.516 2.081 2.081 0 01.147.817 2.189 2.189 0 01-.363 1.251 2.361 2.361 0 01-1.022.838 3.688 3.688 0 01-1.527.3H164a3.823 3.823 0 01-1.648-.324 2.293 2.293 0 01-1.039-.951 2.986 2.986 0 01-.355-1.5 2.922 2.922 0 01.362-1.5 2.325 2.325 0 011.053-.947 3.884 3.884 0 011.661-.325h.007a5.184 5.184 0 011.138.137 6.993 6.993 0 011.2.39l.181.082c.061.027.122.056.181.089l4.259 2.119v1.5zm-.861-.066a1.953 1.953 0 00-1.251-.358h-.007a1.857 1.857 0 00-1.217.358 1.421 1.421 0 000 2.037 1.852 1.852 0 001.224.36h.007a1.918 1.918 0 001.247-.36 1.393 1.393 0 000-2.037zM170.358 363.172a2.865 2.865 0 01-2.078.721h-4.519a2.854 2.854 0 01-2.081-.725 3.389 3.389 0 010-4.229 2.86 2.86 0 012.084-.72h4.519a2.856 2.856 0 012.082.724 3.38 3.38 0 010 4.229zm-.967-3.207a1.591 1.591 0 00-1.111-.352h-4.519a1.6 1.6 0 00-1.11.349 1.738 1.738 0 000 2.187 1.6 1.6 0 001.11.349h4.519a1.591 1.591 0 001.111-.352 1.733 1.733 0 000-2.181zM170.358 355.447a2.861 2.861 0 01-2.078.721h-4.519a2.849 2.849 0 01-2.081-.725 3.388 3.388 0 010-4.228 2.857 2.857 0 012.084-.721h4.519a2.852 2.852 0 012.082.725 3.379 3.379 0 010 4.228zm-.967-3.207a1.6 1.6 0 00-1.111-.351h-4.519a1.6 1.6 0 00-1.11.348 1.74 1.74 0 000 2.188 1.6 1.6 0 001.11.348h4.519a1.6 1.6 0 001.111-.351 1.735 1.735 0 000-2.182z"/><path class="cls-9" d="M173.196 377.286l-1.461-1.461" id="LINE-36" data-name="LINE"/><path class="cls-9" d="M174.657 375.825l-1.461 1.461" id="LINE-37" data-name="LINE"/><path class="cls-9" d="M173.197 346.301l1.461 1.462" id="LINE-38" data-name="LINE"/><path class="cls-9" d="M171.735 347.763l1.462-1.462" id="LINE-39" data-name="LINE"/><path class="cls-9" d="M55.162 320.233v84.553" id="LINE-40" data-name="LINE"/><path d="M51.757 376.431l-4.622-3.466a3.439 3.439 0 00-.823-.468 2.19 2.19 0 00-.8-.168H45.5a1.2 1.2 0 00-.923.349 1.388 1.388 0 00-.328.991 1.364 1.364 0 00.359.984 1.623 1.623 0 001.015.458h.007v1.443h-.007a3.731 3.731 0 01-1.46-.5 2.562 2.562 0 01-.923-.982 2.934 2.934 0 01-.317-1.387 3.456 3.456 0 01.3-1.518 2.136 2.136 0 01.885-.957 2.805 2.805 0 011.4-.328h.007a3.088 3.088 0 011.1.219 4.673 4.673 0 011.107.608l3.91 2.878v-3.76h1.327v5.606zM51.757 369.2l-4.622-3.466a3.435 3.435 0 00-.823-.467 2.169 2.169 0 00-.8-.168H45.5a1.207 1.207 0 00-.923.348 1.392 1.392 0 00-.328.992 1.364 1.364 0 00.359.984 1.629 1.629 0 001.015.458h.007v1.442h-.007a3.731 3.731 0 01-1.46-.5 2.566 2.566 0 01-.923-.981 2.936 2.936 0 01-.317-1.388 3.451 3.451 0 01.3-1.517 2.131 2.131 0 01.885-.957 2.805 2.805 0 011.4-.329h.007a3.11 3.11 0 011.1.219 4.713 4.713 0 011.107.609l3.91 2.878v-3.76h1.327v5.6zM53.069 360.079l-.3.636a2.513 2.513 0 01-.882 1.022 3.2 3.2 0 01-1.391.489V360.8a1.5 1.5 0 00.7-.267 1.238 1.238 0 00.407-.53 1.992 1.992 0 00.133-.762 1.483 1.483 0 00-.369-1.073 1.376 1.376 0 00-1.039-.383h-.3a1.678 1.678 0 00-1.152.362 1.3 1.3 0 00-.406 1.026v.7h-1.335v-.7a1.167 1.167 0 00-.348-.9 1.407 1.407 0 00-.985-.321H45.5a1.188 1.188 0 00-.909.339 1.335 1.335 0 00-.322.96 1.462 1.462 0 00.134.636 1.211 1.211 0 00.41.474 1.846 1.846 0 00.694.284v1.416a3.626 3.626 0 01-1.4-.516 2.534 2.534 0 01-.882-.961 2.867 2.867 0 01-.3-1.333 2.755 2.755 0 01.676-1.989 2.519 2.519 0 011.908-.7h.164a2.145 2.145 0 011.3.4 2.263 2.263 0 01.807 1.142 2.023 2.023 0 01.8-1.261 2.643 2.643 0 011.586-.448h.164a3.065 3.065 0 011.483.334 2.22 2.22 0 01.937.975 3.4 3.4 0 01.321 1.541zM52.324 353.691a2.862 2.862 0 01-2.078.721h-4.519a2.843 2.843 0 110-5.674h4.519a2.559 2.559 0 012.823 2.837 2.812 2.812 0 01-.745 2.116zm-.967-3.207a1.6 1.6 0 00-1.111-.351h-4.519a1.607 1.607 0 00-1.111.348 1.743 1.743 0 000 2.188 1.607 1.607 0 001.111.349h4.519a1.6 1.6 0 001.111-.352 1.735 1.735 0 000-2.182z"/><path class="cls-9" d="M55.162 404.786l-1.462-1.461" id="LINE-41" data-name="LINE"/><path class="cls-9" d="M56.623 403.325l-1.461 1.461" id="LINE-42" data-name="LINE"/><path class="cls-9" d="M55.162 320.233l1.462 1.461" id="LINE-43" data-name="LINE"/><path class="cls-9" d="M53.701 321.694l1.461-1.461" id="LINE-44" data-name="LINE"/><path class="cls-9" d="M133.495 320.233v61.666" id="LINE-45" data-name="LINE"/><path d="M131.3 346.068v1.4h-8.422l.868 1.415H122.3l-.943-1.415v-1.4zM131.051 342.746a2.285 2.285 0 01-1.026.947 3.716 3.716 0 01-1.623.325h-.002a5.537 5.537 0 01-1.162-.13 6.771 6.771 0 01-1.2-.376 3.278 3.278 0 01-.2-.089l-.195-.1-4.279-2.16v-1.5l4.956 2.536-.246-.007a1.189 1.189 0 01-.5-.5 1.572 1.572 0 01-.178-.765 2.44 2.44 0 01.348-1.326 2.173 2.173 0 011.016-.841 4.026 4.026 0 011.6-.287h.006a3.788 3.788 0 011.641.325 2.29 2.29 0 011.039.949 3.351 3.351 0 010 3zm-1.4-2.519a1.723 1.723 0 00-1.169-.359h-.007a1.969 1.969 0 00-1.289.376 1.315 1.315 0 00-.454 1.073 1.13 1.13 0 00.458.964 2.122 2.122 0 001.292.342h.006a1.7 1.7 0 001.166-.359 1.474 1.474 0 000-2.037zM131.4 334.892l-.3.635a2.506 2.506 0 01-.881 1.023 3.187 3.187 0 01-1.392.488v-1.422a1.509 1.509 0 00.7-.266 1.231 1.231 0 00.406-.531 1.983 1.983 0 00.134-.761 1.485 1.485 0 00-.369-1.074 1.377 1.377 0 00-1.039-.382h-.3a1.677 1.677 0 00-1.152.362 1.3 1.3 0 00-.407 1.025v.7h-1.326v-.7a1.163 1.163 0 00-.349-.9 1.4 1.4 0 00-.984-.321h-.308a1.193 1.193 0 00-.909.338 1.339 1.339 0 00-.321.96 1.456 1.456 0 00.133.636 1.215 1.215 0 00.41.475 1.87 1.87 0 00.694.284v1.415a3.627 3.627 0 01-1.394-.516 2.526 2.526 0 01-.882-.961 2.852 2.852 0 01-.3-1.333 2.757 2.757 0 01.677-1.989 2.519 2.519 0 011.907-.7h.164a2.152 2.152 0 011.3.4 2.284 2.284 0 01.807 1.142 2.022 2.022 0 01.8-1.261 2.647 2.647 0 011.586-.448h.164a3.055 3.055 0 011.484.335 2.212 2.212 0 01.936.975 3.383 3.383 0 01.322 1.541zM130.657 328.5a2.865 2.865 0 01-2.078.721h-4.518a2.856 2.856 0 01-2.082-.725 3.393 3.393 0 010-4.229 2.861 2.861 0 012.085-.72h4.518a2.856 2.856 0 012.082.724 3.377 3.377 0 010 4.229zm-.967-3.207a1.6 1.6 0 00-1.111-.352h-4.518a1.605 1.605 0 00-1.111.349 1.742 1.742 0 000 2.187 1.6 1.6 0 001.111.349h4.518a1.6 1.6 0 001.111-.351 1.735 1.735 0 000-2.182z"/><path class="cls-9" d="M133.495 381.899l-1.461-1.461" id="LINE-46" data-name="LINE"/><path class="cls-9" d="M134.956 380.438l-1.461 1.461" id="LINE-47" data-name="LINE"/><path class="cls-9" d="M133.496 320.233l1.461 1.461" id="LINE-48" data-name="LINE"/><path class="cls-9" d="M132.035 321.694l1.461-1.461" id="LINE-49" data-name="LINE"/><path class="cls-9" d="M55.162 407.837v48.146" id="LINE-50" data-name="LINE"/><path d="M52.967 441.627v1.394h-8.422l.868 1.416H43.97l-.943-1.416v-1.394zM51.757 439.521l-4.622-3.465a3.406 3.406 0 00-.823-.468 2.19 2.19 0 00-.8-.168H45.5a1.2 1.2 0 00-.923.349 1.388 1.388 0 00-.328.991 1.364 1.364 0 00.359.984 1.629 1.629 0 001.015.458h.007v1.443h-.007a3.731 3.731 0 01-1.46-.5 2.562 2.562 0 01-.923-.982 2.936 2.936 0 01-.317-1.388 3.454 3.454 0 01.3-1.517 2.136 2.136 0 01.885-.957 2.805 2.805 0 011.4-.328h.007a3.108 3.108 0 011.1.218 4.713 4.713 0 011.107.609l3.91 2.878v-3.76h1.327v5.605zM52.717 431.482a2.3 2.3 0 01-1.025.948 3.721 3.721 0 01-1.624.324h-.007a5.545 5.545 0 01-1.162-.13 6.761 6.761 0 01-1.2-.376c-.068-.027-.136-.057-.2-.089s-.131-.063-.2-.1l-4.279-2.16v-1.5l4.956 2.537-.246-.007a1.212 1.212 0 01-.5-.5 1.579 1.579 0 01-.178-.766 2.441 2.441 0 01.349-1.326 2.176 2.176 0 011.015-.841 4.047 4.047 0 011.6-.287h.007a3.791 3.791 0 011.641.325 2.3 2.3 0 011.039.949 3.355 3.355 0 010 3zm-1.4-2.519a1.726 1.726 0 00-1.169-.359h-.007a1.966 1.966 0 00-1.288.376 1.316 1.316 0 00-.455 1.074 1.133 1.133 0 00.458.964 2.131 2.131 0 001.292.341h.007a1.7 1.7 0 001.168-.359 1.475 1.475 0 000-2.037zM52.775 423.925a2.418 2.418 0 01-.854.951 3.41 3.41 0 01-1.347.488h-.007v-1.394h.007a1.3 1.3 0 00.851-.438 1.413 1.413 0 00.3-.943 1.259 1.259 0 00-.448-1.035 1.939 1.939 0 00-1.261-.366h-.834a1.93 1.93 0 00-1.254.366 1.261 1.261 0 00-.448 1.035 1.314 1.314 0 00.2.7 1.953 1.953 0 00.574.588v1.272h-5.227v-5.069h1.326v3.671h2.236a2 2 0 01-.329-.581 1.926 1.926 0 01-.116-.656 2.886 2.886 0 01.356-1.474 2.284 2.284 0 011.039-.93 3.9 3.9 0 011.647-.317h.834a3.778 3.778 0 011.648.328 2.329 2.329 0 011.042.957 3 3 0 01.359 1.511 2.931 2.931 0 01-.294 1.336z"/><path class="cls-9" d="M55.162 455.983l-1.462-1.461" id="LINE-51" data-name="LINE"/><path class="cls-9" d="M56.623 454.522l-1.461 1.461" id="LINE-52" data-name="LINE"/><path class="cls-9" d="M55.162 407.837l1.462 1.461" id="LINE-53" data-name="LINE"/><path class="cls-9" d="M53.701 409.298l1.461-1.461" id="LINE-54" data-name="LINE"/><path class="cls-9" d="M73.828 407.837v69.312" id="LINE-55" data-name="LINE"/><path d="M71.633 442.168v1.395h-8.422l.868 1.415h-1.442l-.943-1.415v-1.395zM71.394 438.586a2.5 2.5 0 01-.967 1.057 2.79 2.79 0 01-1.453.372h-.164a2.8 2.8 0 01-1.4-.372 2.492 2.492 0 01-.991-1 2.179 2.179 0 01-.83.845 2.245 2.245 0 01-1.145.318H64.2a2.651 2.651 0 01-1.37-.349 2.362 2.362 0 01-.916-.984 3.519 3.519 0 010-2.954 2.362 2.362 0 01.916-.984 2.651 2.651 0 011.37-.349h.24a2.2 2.2 0 011.155.326 2.156 2.156 0 01.82.857 2.576 2.576 0 011-1.008 2.726 2.726 0 011.4-.38h.164a2.79 2.79 0 011.453.372 2.5 2.5 0 01.967 1.057 3.848 3.848 0 010 3.172zm-5.671-2.324a1.248 1.248 0 00-.516-.5 1.628 1.628 0 00-.772-.178h-.1a1.5 1.5 0 00-.738.178 1.222 1.222 0 00-.5.5 1.652 1.652 0 000 1.476 1.222 1.222 0 00.5.5 1.517 1.517 0 00.745.178h.1a1.6 1.6 0 00.763-.178 1.25 1.25 0 00.512-.5 1.587 1.587 0 000-1.476zm4.481-.116a1.378 1.378 0 00-.536-.572 1.555 1.555 0 00-.8-.2h-.095a1.568 1.568 0 00-.8.2 1.378 1.378 0 00-.536.572 2 2 0 000 1.708 1.368 1.368 0 00.54.572 1.583 1.583 0 00.806.2h.1a1.535 1.535 0 00.793-.2 1.371 1.371 0 00.53-.572A1.862 1.862 0 0070.4 437a1.825 1.825 0 00-.2-.854zM62.938 426.9l8.695 2.571v1.483l-8.613-2.57v2.529h1.428v1.395h-2.754V426.9zM71.442 423.55a2.413 2.413 0 01-.855.951 3.4 3.4 0 01-1.347.488h-.006V423.6h.006a1.3 1.3 0 00.852-.438 1.419 1.419 0 00.3-.943 1.261 1.261 0 00-.448-1.035 1.941 1.941 0 00-1.261-.366h-.834a1.933 1.933 0 00-1.255.366 1.261 1.261 0 00-.447 1.035 1.314 1.314 0 00.2.7 1.941 1.941 0 00.574.588v1.272h-5.227v-5.066h1.326v3.671h2.235a1.992 1.992 0 01-.328-.581 1.9 1.9 0 01-.116-.656 2.886 2.886 0 01.355-1.474 2.289 2.289 0 011.039-.93 3.9 3.9 0 011.648-.317h.834a3.773 3.773 0 011.647.328 2.331 2.331 0 011.043.957 3 3 0 01.359 1.511 2.944 2.944 0 01-.294 1.328z"/><path class="cls-9" d="M73.828 477.149l-1.461-1.461" id="LINE-56" data-name="LINE"/><path class="cls-9" d="M75.29 475.688l-1.462 1.461" id="LINE-57" data-name="LINE"/><path class="cls-9" d="M73.829 407.837l1.461 1.461" id="LINE-58" data-name="LINE"/><path class="cls-9" d="M72.368 409.298l1.461-1.461" id="LINE-59" data-name="LINE"/><path class="cls-9" d="M133.453 385.149v92" id="LINE-60" data-name="LINE"/><path d="M130.048 445.845l-4.621-3.466a3.426 3.426 0 00-.824-.468 2.181 2.181 0 00-.8-.168h-.014a1.205 1.205 0 00-.923.349 1.392 1.392 0 00-.328.991 1.368 1.368 0 00.359.984 1.626 1.626 0 001.015.458h.007v1.443h-.007a3.721 3.721 0 01-1.459-.5 2.554 2.554 0 01-.923-.982 2.923 2.923 0 01-.318-1.387 3.47 3.47 0 01.3-1.518 2.138 2.138 0 01.886-.957 2.8 2.8 0 011.4-.328h.007a3.083 3.083 0 011.1.219 4.7 4.7 0 011.108.608l3.91 2.878v-3.76h1.326v5.606zM128.524 439.009l-7.2-3.336v-1.436l7.117 3.254v-4.874h1.292v6.392zm-3.111-4.286v-1.361h5.852v1.361zM122.563 425.774l8.7 2.571v1.483l-8.613-2.57v2.529h1.428v1.4h-2.754v-5.408zM131.067 422.421a2.407 2.407 0 01-.855.951 3.4 3.4 0 01-1.347.488h-.006v-1.394h.006a1.293 1.293 0 00.852-.438 1.419 1.419 0 00.3-.943 1.261 1.261 0 00-.448-1.035 1.941 1.941 0 00-1.261-.366h-.834a1.933 1.933 0 00-1.255.366 1.261 1.261 0 00-.447 1.035 1.314 1.314 0 00.2.7 1.941 1.941 0 00.574.588v1.272h-5.236v-5.066h1.326v3.671h2.235a1.992 1.992 0 01-.328-.581 1.9 1.9 0 01-.116-.656 2.888 2.888 0 01.355-1.474 2.289 2.289 0 011.039-.93 3.916 3.916 0 011.648-.317h.834a3.773 3.773 0 011.647.328 2.331 2.331 0 011.043.957 3 3 0 01.359 1.511 2.944 2.944 0 01-.285 1.333z"/><path class="cls-9" d="M133.453 477.149l-1.461-1.461" id="LINE-61" data-name="LINE"/><path class="cls-9" d="M134.915 475.688l-1.462 1.461" id="LINE-62" data-name="LINE"/><path class="cls-9" d="M133.454 385.149l1.461 1.462" id="LINE-63" data-name="LINE"/><path class="cls-9" d="M131.993 386.611l1.461-1.462" id="LINE-64" data-name="LINE"/><path class="cls-9" d="M106.077 93.511h23.499" id="LINE-65" data-name="LINE"/><path class="cls-9" d="M106.077 64.605h23.499" id="LINE-66" data-name="LINE"/><path class="cls-9" d="M129.575 64.605v28.906" id="LINE-67" data-name="LINE"/><path d="M127.141 87.837a2.5 2.5 0 01-.967 1.057 2.79 2.79 0 01-1.453.372h-.164a2.793 2.793 0 01-1.4-.372 2.494 2.494 0 01-.992-1 2.179 2.179 0 01-.83.845 2.245 2.245 0 01-1.145.318h-.24a2.651 2.651 0 01-1.37-.349 2.368 2.368 0 01-.916-.984 3.519 3.519 0 010-2.954 2.362 2.362 0 01.916-.984 2.651 2.651 0 011.37-.349h.24a2.2 2.2 0 011.155.326 2.156 2.156 0 01.82.857 2.576 2.576 0 011-1.008 2.726 2.726 0 011.4-.38h.164a2.79 2.79 0 011.453.372 2.5 2.5 0 01.967 1.057 3.848 3.848 0 010 3.172zm-5.671-2.324a1.248 1.248 0 00-.516-.5 1.628 1.628 0 00-.772-.178h-.1a1.5 1.5 0 00-.738.178 1.235 1.235 0 00-.5.5 1.652 1.652 0 000 1.476 1.235 1.235 0 00.5.5 1.517 1.517 0 00.745.178h.1a1.593 1.593 0 00.762-.178 1.25 1.25 0 00.512-.5 1.587 1.587 0 000-1.476zm4.481-.117a1.382 1.382 0 00-.536-.571 1.555 1.555 0 00-.8-.2h-.095a1.571 1.571 0 00-.8.2 1.388 1.388 0 00-.536.571 2 2 0 000 1.709 1.368 1.368 0 00.54.572 1.585 1.585 0 00.807.2h.1a1.535 1.535 0 00.793-.2 1.371 1.371 0 00.53-.572 1.862 1.862 0 00.188-.854 1.832 1.832 0 00-.191-.851zM126.738 80.567a2.865 2.865 0 01-2.079.721h-4.518a2.852 2.852 0 01-2.082-.725 3.391 3.391 0 010-4.228 2.858 2.858 0 012.085-.721h4.518a2.852 2.852 0 012.082.725 3.377 3.377 0 010 4.228zm-.968-3.207a1.6 1.6 0 00-1.111-.351h-4.518a1.6 1.6 0 00-1.111.348 1.743 1.743 0 000 2.188 1.605 1.605 0 001.111.349h4.518a1.6 1.6 0 001.111-.352 1.735 1.735 0 000-2.182zM126.738 72.843a2.869 2.869 0 01-2.079.72h-4.518a2.856 2.856 0 01-2.082-.724 3.393 3.393 0 010-4.229 2.861 2.861 0 012.085-.72h4.518a2.856 2.856 0 012.082.724 3.379 3.379 0 010 4.229zm-.968-3.207a1.591 1.591 0 00-1.111-.352h-4.518a1.6 1.6 0 00-1.111.349 1.742 1.742 0 000 2.187 1.6 1.6 0 001.111.349h4.518a1.591 1.591 0 001.111-.352 1.733 1.733 0 000-2.181z"/><path class="cls-9" d="M129.575 93.511l-1.461-1.461" id="LINE-68" data-name="LINE"/><path class="cls-9" d="M131.036 92.05l-1.461 1.461" id="LINE-69" data-name="LINE"/><path class="cls-9" d="M129.576 64.605l1.461 1.461" id="LINE-70" data-name="LINE"/><path class="cls-9" d="M128.115 66.066l1.461-1.461" id="LINE-71" data-name="LINE"/><path class="cls-9" d="M106.077 163.794h23.499" id="LINE-72" data-name="LINE"/><path class="cls-9" d="M106.077 136.587h23.499" id="LINE-73" data-name="LINE"/><path class="cls-9" d="M129.575 136.587v27.207" id="LINE-74" data-name="LINE"/><path d="M127.141 159.5a2.5 2.5 0 01-.967 1.057 2.79 2.79 0 01-1.453.372h-.164a2.793 2.793 0 01-1.4-.372 2.488 2.488 0 01-.992-1 2.179 2.179 0 01-.83.845 2.245 2.245 0 01-1.145.318h-.24a2.651 2.651 0 01-1.37-.349 2.362 2.362 0 01-.916-.984 3.519 3.519 0 010-2.954 2.368 2.368 0 01.916-.984 2.651 2.651 0 011.37-.349h.24a2.2 2.2 0 011.155.326 2.156 2.156 0 01.82.857 2.576 2.576 0 011-1.008 2.726 2.726 0 011.4-.38h.164a2.79 2.79 0 011.453.372 2.5 2.5 0 01.967 1.057 3.848 3.848 0 010 3.172zm-5.671-2.324a1.248 1.248 0 00-.516-.5 1.628 1.628 0 00-.772-.178h-.1a1.5 1.5 0 00-.738.178 1.235 1.235 0 00-.5.5 1.652 1.652 0 000 1.476 1.235 1.235 0 00.5.5 1.517 1.517 0 00.745.178h.1a1.593 1.593 0 00.762-.178 1.25 1.25 0 00.512-.5 1.587 1.587 0 000-1.476zm4.481-.116a1.378 1.378 0 00-.536-.572 1.555 1.555 0 00-.8-.2h-.095a1.571 1.571 0 00-.8.2 1.385 1.385 0 00-.536.572 2 2 0 000 1.709 1.372 1.372 0 00.54.571 1.585 1.585 0 00.807.2h.1a1.535 1.535 0 00.793-.2 1.374 1.374 0 00.53-.571 1.869 1.869 0 00.188-.855 1.825 1.825 0 00-.191-.852zM126.738 152.232a2.865 2.865 0 01-2.079.721h-4.518a2.856 2.856 0 01-2.082-.724 3.393 3.393 0 010-4.229 2.862 2.862 0 012.085-.721h4.518a2.856 2.856 0 012.082.725 3.377 3.377 0 010 4.228zm-.968-3.207a1.6 1.6 0 00-1.111-.351h-4.518a1.6 1.6 0 00-1.111.348 1.743 1.743 0 000 2.188 1.605 1.605 0 001.111.349h4.518a1.6 1.6 0 001.111-.352 1.735 1.735 0 000-2.182zM126.738 144.508a2.869 2.869 0 01-2.079.721h-4.518a2.856 2.856 0 01-2.082-.725 3.393 3.393 0 010-4.229 2.861 2.861 0 012.085-.72h4.518a2.856 2.856 0 012.082.724 3.379 3.379 0 010 4.229zm-.968-3.207a1.591 1.591 0 00-1.111-.352h-4.518a1.6 1.6 0 00-1.111.349 1.742 1.742 0 000 2.187 1.6 1.6 0 001.111.349h4.518a1.591 1.591 0 001.111-.352 1.733 1.733 0 000-2.181z"/><path class="cls-9" d="M129.575 163.841l-1.461-1.461" id="LINE-75" data-name="LINE"/><path class="cls-9" d="M131.036 162.38l-1.461 1.461" id="LINE-76" data-name="LINE"/><path class="cls-9" d="M129.576 136.587l1.461 1.462" id="LINE-77" data-name="LINE"/><path class="cls-9" d="M128.115 138.049l1.461-1.462" id="LINE-78" data-name="LINE"/><path class="cls-9" d="M120.345 190.846v23.5" id="LINE-79" data-name="LINE"/><path class="cls-9" d="M151.283 190.846v23.5" id="LINE-80" data-name="LINE"/><path class="cls-9" d="M151.283 214.345h-30.938" id="LINE-81" data-name="LINE"/><path d="M129.043 207.214l-.007.246a1.024 1.024 0 01-.516.462 2.077 2.077 0 01-.817.147 2.2 2.2 0 01-1.251-.362 2.374 2.374 0 01-.838-1.022 3.709 3.709 0 01-.3-1.528v-.007a3.838 3.838 0 01.324-1.648 2.3 2.3 0 01.952-1.039 3 3 0 011.5-.355 2.932 2.932 0 011.5.362 2.328 2.328 0 01.946 1.053 3.869 3.869 0 01.325 1.661v.007a5.184 5.184 0 01-.137 1.138 6.9 6.9 0 01-.389 1.2c-.028.059-.055.119-.082.181s-.057.122-.089.181l-2.119 4.259h-1.5zm.065-.861a1.949 1.949 0 00.359-1.251v-.002a1.859 1.859 0 00-.359-1.217 1.421 1.421 0 00-2.037 0 1.859 1.859 0 00-.359 1.224v.007a1.922 1.922 0 00.359 1.247 1.393 1.393 0 002.037 0zM133.427 211.507a2.865 2.865 0 01-.72-2.078v-4.518a2.856 2.856 0 01.724-2.082 3.389 3.389 0 014.229 0 2.862 2.862 0 01.721 2.085v4.518a2.856 2.856 0 01-.725 2.082 3.38 3.38 0 01-4.229 0zm3.208-.967a1.6 1.6 0 00.351-1.111v-4.518a1.6 1.6 0 00-.349-1.111 1.742 1.742 0 00-2.187 0 1.605 1.605 0 00-.349 1.111v4.518a1.6 1.6 0 00.352 1.111 1.735 1.735 0 002.182 0zM141.152 211.507a2.865 2.865 0 01-.721-2.078v-4.518a2.856 2.856 0 01.725-2.082 3.389 3.389 0 014.229 0 2.861 2.861 0 01.72 2.085v4.518a2.856 2.856 0 01-.724 2.082 3.38 3.38 0 01-4.229 0zm3.207-.967a1.591 1.591 0 00.352-1.111v-4.518a1.605 1.605 0 00-.349-1.111 1.742 1.742 0 00-2.187 0 1.6 1.6 0 00-.349 1.111v4.518a1.6 1.6 0 00.351 1.111 1.735 1.735 0 002.182 0z"/><path class="cls-9" d="M120.298 214.345l1.462-1.461" id="LINE-82" data-name="LINE"/><path class="cls-9" d="M121.76 215.806l-1.462-1.461" id="LINE-83" data-name="LINE"/><path class="cls-9" d="M151.283 214.346l-1.461 1.461" id="LINE-84" data-name="LINE"/><path class="cls-9" d="M149.822 212.885l1.461 1.461" id="LINE-85" data-name="LINE"/><path class="cls-9" d="M120.345 214.345H40.117" id="LINE-86" data-name="LINE"/><path d="M66.1 210.94l3.466-4.621a3.426 3.426 0 00.468-.824 2.185 2.185 0 00.168-.8v-.014a1.205 1.205 0 00-.349-.923 1.388 1.388 0 00-.991-.328 1.368 1.368 0 00-.984.359 1.626 1.626 0 00-.458 1.015v.007h-1.446v-.007a3.721 3.721 0 01.5-1.459 2.554 2.554 0 01.982-.923 2.923 2.923 0 011.387-.318 3.456 3.456 0 011.518.3 2.141 2.141 0 01.957.885 2.809 2.809 0 01.328 1.4v.007a3.083 3.083 0 01-.219 1.1 4.7 4.7 0 01-.608 1.108l-2.878 3.91H71.7v1.326h-5.6zM74.2 211.507a2.861 2.861 0 01-.721-2.078v-4.518a2.852 2.852 0 01.725-2.082 3.388 3.388 0 014.228 0 2.858 2.858 0 01.721 2.085v4.518a2.852 2.852 0 01-.725 2.082 3.379 3.379 0 01-4.228 0zm3.207-.967a1.6 1.6 0 00.352-1.111v-4.518a1.605 1.605 0 00-.349-1.111 1.743 1.743 0 00-2.188 0 1.6 1.6 0 00-.348 1.111v4.518a1.6 1.6 0 00.351 1.111 1.735 1.735 0 002.182 0zM82.873 212.252l-.636-.3a2.492 2.492 0 01-1.022-.882 3.191 3.191 0 01-.489-1.391h1.422a1.5 1.5 0 00.267.7 1.236 1.236 0 00.53.406 1.992 1.992 0 00.762.134 1.479 1.479 0 001.073-.37 1.376 1.376 0 00.383-1.039v-.3a1.677 1.677 0 00-.362-1.152 1.3 1.3 0 00-1.026-.407h-.7v-1.326h.7a1.161 1.161 0 00.9-.349 1.4 1.4 0 00.322-.984v-.308a1.192 1.192 0 00-.339-.909 1.339 1.339 0 00-.96-.321 1.462 1.462 0 00-.636.133 1.219 1.219 0 00-.474.41 1.87 1.87 0 00-.285.694H80.89a3.627 3.627 0 01.516-1.394 2.518 2.518 0 01.961-.882 2.855 2.855 0 011.333-.3 2.753 2.753 0 011.989.677 2.519 2.519 0 01.7 1.907v.164a2.145 2.145 0 01-.4 1.3 2.272 2.272 0 01-1.142.806 2.027 2.027 0 011.261.8 2.647 2.647 0 01.448 1.586v.164a3.058 3.058 0 01-.334 1.481 2.2 2.2 0 01-.974.936 3.389 3.389 0 01-1.541.321zM89.26 211.507a2.865 2.865 0 01-.72-2.078v-4.518a2.856 2.856 0 01.724-2.082 3.389 3.389 0 014.229 0 2.862 2.862 0 01.721 2.085v4.518a2.856 2.856 0 01-.725 2.082 3.38 3.38 0 01-4.229 0zm3.208-.967a1.6 1.6 0 00.351-1.111v-4.518a1.6 1.6 0 00-.349-1.111 1.742 1.742 0 00-2.187 0 1.605 1.605 0 00-.349 1.111v4.518a1.6 1.6 0 00.352 1.111 1.735 1.735 0 002.182 0z"/><path class="cls-9" d="M41.325 214.345l1.462-1.461" id="LINE-87" data-name="LINE"/><path class="cls-9" d="M42.787 215.806l-1.462-1.461" id="LINE-88" data-name="LINE"/><path class="cls-9" d="M120.576 214.345l-1.461 1.461" id="LINE-89" data-name="LINE"/><path class="cls-9" d="M119.115 212.884l1.461 1.461" id="LINE-90" data-name="LINE"/><path class="cls-9" d="M253.495 214.345H151.33" id="LINE-91" data-name="LINE"/><path d="M183.47 210.94l3.466-4.621a3.46 3.46 0 00.468-.824 2.185 2.185 0 00.168-.8v-.014a1.209 1.209 0 00-.349-.923 1.391 1.391 0 00-.991-.328 1.369 1.369 0 00-.985.359 1.631 1.631 0 00-.458 1.015v.007h-1.442v-.007a3.721 3.721 0 01.5-1.459 2.559 2.559 0 01.981-.923 2.93 2.93 0 011.388-.318 3.456 3.456 0 011.518.3 2.141 2.141 0 01.957.885 2.82 2.82 0 01.328 1.4v.007a3.083 3.083 0 01-.219 1.1 4.771 4.771 0 01-.608 1.108l-2.878 3.91h3.759v1.326h-5.6zM195.987 203.455l-2.571 8.695h-1.483l2.57-8.613h-2.529v1.428h-1.395v-2.755h5.408zM199.637 212.252l-.636-.3a2.5 2.5 0 01-1.022-.882 3.191 3.191 0 01-.489-1.391h1.422a1.5 1.5 0 00.267.7 1.236 1.236 0 00.53.406 1.992 1.992 0 00.762.134 1.479 1.479 0 001.073-.37 1.376 1.376 0 00.383-1.039v-.3a1.677 1.677 0 00-.362-1.152 1.3 1.3 0 00-1.026-.407h-.7v-1.326h.7a1.164 1.164 0 00.9-.349 1.4 1.4 0 00.321-.984v-.308a1.188 1.188 0 00-.339-.909 1.339 1.339 0 00-.96-.321 1.462 1.462 0 00-.636.133 1.219 1.219 0 00-.474.41 1.853 1.853 0 00-.284.694h-1.415a3.611 3.611 0 01.515-1.394 2.518 2.518 0 01.961-.882 2.855 2.855 0 011.333-.3 2.75 2.75 0 011.989.677 2.519 2.519 0 01.7 1.907v.164a2.145 2.145 0 01-.4 1.3 2.269 2.269 0 01-1.141.806 2.025 2.025 0 011.26.8 2.647 2.647 0 01.449 1.586v.164a3.069 3.069 0 01-.335 1.484 2.212 2.212 0 01-.975.936 3.386 3.386 0 01-1.541.321zM206.025 211.507a2.861 2.861 0 01-.721-2.078v-4.518a2.852 2.852 0 01.725-2.082 3.388 3.388 0 014.228 0 2.858 2.858 0 01.721 2.085v4.518a2.852 2.852 0 01-.725 2.082 3.379 3.379 0 01-4.228 0zm3.207-.967a1.6 1.6 0 00.351-1.111v-4.518a1.6 1.6 0 00-.348-1.111 1.743 1.743 0 00-2.188 0 1.605 1.605 0 00-.349 1.111v4.518a1.6 1.6 0 00.352 1.111 1.735 1.735 0 002.182 0z"/><path class="cls-9" d="M151.283 214.345l1.461-1.461" id="LINE-92" data-name="LINE"/><path class="cls-9" d="M152.744 215.806l-1.461-1.461" id="LINE-93" data-name="LINE"/><path class="cls-9" d="M253.495 214.346l-1.461 1.461" id="LINE-94" data-name="LINE"/><path class="cls-9" d="M252.034 212.885l1.461 1.461" id="LINE-95" data-name="LINE"/><path class="cls-9" d="M136.228 466.877H56.275" id="LINE-96" data-name="LINE"/><path d="M82.655 463.472l3.465-4.621a3.4 3.4 0 00.468-.825 2.177 2.177 0 00.168-.8v-.013a1.2 1.2 0 00-.349-.923 1.388 1.388 0 00-.991-.328 1.368 1.368 0 00-.984.358 1.631 1.631 0 00-.458 1.016v.007h-1.443v-.007a3.742 3.742 0 01.5-1.46 2.569 2.569 0 01.982-.923 2.924 2.924 0 011.388-.317 3.469 3.469 0 011.517.3 2.138 2.138 0 01.957.886 2.805 2.805 0 01.328 1.4v.007a3.108 3.108 0 01-.218 1.1 4.713 4.713 0 01-.609 1.107l-2.878 3.91h3.76v1.327h-5.603zM92.437 464.682h-1.395v-8.422l-1.415.868v-1.442l1.415-.944h1.395zM99.826 455.986l-2.57 8.7h-1.483l2.57-8.614h-2.529v1.428h-1.395v-2.755h5.407zM102.461 464.039a2.867 2.867 0 01-.721-2.078v-4.519a2.856 2.856 0 01.725-2.082 3.393 3.393 0 014.229 0 2.863 2.863 0 01.72 2.085v4.519a2.558 2.558 0 01-2.837 2.823 2.819 2.819 0 01-2.116-.748zm3.207-.968a1.59 1.59 0 00.352-1.11v-4.519a1.6 1.6 0 00-.349-1.111 1.742 1.742 0 00-2.187 0 1.6 1.6 0 00-.349 1.111v4.519a1.59 1.59 0 00.352 1.11 1.73 1.73 0 002.181 0z"/><path class="cls-9" d="M56.275 466.877l1.462-1.462" id="LINE-97" data-name="LINE"/><path class="cls-9" d="M57.737 468.338l-1.462-1.461" id="LINE-98" data-name="LINE"/><path class="cls-9" d="M136.228 466.877l-1.461 1.461" id="LINE-99" data-name="LINE"/><path class="cls-9" d="M134.767 465.416l1.461 1.461" id="LINE-100" data-name="LINE"/><path class="cls-9" d="M253.495 466.877H139.174" id="LINE-101" data-name="LINE"/><path d="M184.054 464.784l-.635-.305a2.506 2.506 0 01-1.023-.881 3.182 3.182 0 01-.488-1.391h1.422a1.509 1.509 0 00.266.7 1.241 1.241 0 00.531.407 2.006 2.006 0 00.761.133 1.485 1.485 0 001.074-.369 1.377 1.377 0 00.382-1.039v-.3a1.677 1.677 0 00-.362-1.152 1.3 1.3 0 00-1.025-.406h-.7v-1.326h.7a1.167 1.167 0 00.9-.349 1.4 1.4 0 00.321-.984v-.308a1.19 1.19 0 00-.338-.909 1.335 1.335 0 00-.96-.322 1.456 1.456 0 00-.636.133 1.215 1.215 0 00-.475.41 1.868 1.868 0 00-.284.695h-1.415a3.626 3.626 0 01.516-1.395 2.534 2.534 0 01.961-.882 2.852 2.852 0 011.333-.3 2.757 2.757 0 011.989.676 2.521 2.521 0 01.7 1.908v.164a2.156 2.156 0 01-.4 1.3 2.282 2.282 0 01-1.142.806 2.019 2.019 0 011.261.8 2.643 2.643 0 01.448 1.586v.164a3.054 3.054 0 01-.335 1.483 2.214 2.214 0 01-.975.937 3.4 3.4 0 01-1.541.321zM190.442 464.039a2.867 2.867 0 01-.721-2.078v-4.519a2.856 2.856 0 01.725-2.082 3.393 3.393 0 014.229 0 2.863 2.863 0 01.72 2.085v4.519a2.558 2.558 0 01-2.837 2.823 2.819 2.819 0 01-2.116-.748zm3.207-.968a1.59 1.59 0 00.352-1.11v-4.519a1.6 1.6 0 00-.349-1.111 1.742 1.742 0 00-2.187 0 1.6 1.6 0 00-.349 1.111v4.519a1.59 1.59 0 00.352 1.11 1.73 1.73 0 002.181 0zM197.3 463.472l3.465-4.621a3.4 3.4 0 00.468-.825 2.156 2.156 0 00.168-.8v-.013a1.207 1.207 0 00-.348-.923 1.392 1.392 0 00-.992-.328 1.368 1.368 0 00-.984.358 1.631 1.631 0 00-.458 1.016v.007h-1.442v-.007a3.726 3.726 0 01.5-1.46 2.559 2.559 0 01.981-.923 2.924 2.924 0 011.388-.317 3.469 3.469 0 011.517.3 2.133 2.133 0 01.957.886 2.805 2.805 0 01.328 1.4v.007a3.108 3.108 0 01-.218 1.1 4.713 4.713 0 01-.609 1.107l-2.878 3.91h3.76v1.327H197.3zM205.4 464.039a2.867 2.867 0 01-.721-2.078v-4.519a2.856 2.856 0 01.725-2.082 3.393 3.393 0 014.229 0 2.863 2.863 0 01.72 2.085v4.519a2.558 2.558 0 01-2.837 2.823 2.819 2.819 0 01-2.116-.748zm3.207-.968a1.59 1.59 0 00.352-1.11v-4.519a1.6 1.6 0 00-.349-1.111 1.742 1.742 0 00-2.187 0 1.6 1.6 0 00-.349 1.111v4.519a1.59 1.59 0 00.352 1.11 1.73 1.73 0 002.181 0z"/><path class="cls-9" d="M139.174 466.877l1.462-1.462" id="LINE-102" data-name="LINE"/><path class="cls-9" d="M140.636 468.338l-1.462-1.461" id="LINE-103" data-name="LINE"/><path class="cls-9" d="M253.495 466.877l-1.461 1.461" id="LINE-104" data-name="LINE"/><path class="cls-9" d="M252.034 465.416l1.461 1.461" id="LINE-105" data-name="LINE"/><path class="cls-9" d="M253.495 295.572H41.325" id="LINE-106" data-name="LINE"/><path d="M167.017 293.479l-.635-.3a2.516 2.516 0 01-1.023-.882 3.187 3.187 0 01-.488-1.392h1.422a1.5 1.5 0 00.266.7 1.241 1.241 0 00.531.407 1.983 1.983 0 00.761.133 1.485 1.485 0 001.074-.369 1.382 1.382 0 00.382-1.04v-.3a1.678 1.678 0 00-.362-1.152 1.3 1.3 0 00-1.025-.407h-.7v-1.326h.7a1.163 1.163 0 00.9-.349 1.4 1.4 0 00.321-.984v-.318a1.191 1.191 0 00-.341-.9 1.335 1.335 0 00-.96-.321 1.455 1.455 0 00-.635.134 1.2 1.2 0 00-.475.41 1.864 1.864 0 00-.284.693h-1.415a3.627 3.627 0 01.516-1.394 2.531 2.531 0 01.96-.882 2.87 2.87 0 011.333-.3 2.758 2.758 0 011.99.677 2.522 2.522 0 01.7 1.907v.164a2.152 2.152 0 01-.4 1.3 2.27 2.27 0 01-1.142.806 2.032 2.032 0 011.261.8 2.654 2.654 0 01.448 1.586v.164a3.055 3.055 0 01-.335 1.484 2.212 2.212 0 01-.975.936 3.383 3.383 0 01-1.541.321zM176.205 288.441l-.007.247a1.027 1.027 0 01-.516.461 2.077 2.077 0 01-.817.147 2.189 2.189 0 01-1.251-.362 2.374 2.374 0 01-.838-1.022 3.706 3.706 0 01-.3-1.528v-.007a3.841 3.841 0 01.324-1.648 2.3 2.3 0 01.952-1.039 3 3 0 011.5-.355 2.932 2.932 0 011.5.362 2.328 2.328 0 01.946 1.053 3.875 3.875 0 01.325 1.661v.007a5.2 5.2 0 01-.137 1.139 6.892 6.892 0 01-.389 1.2c-.028.059-.055.12-.082.182s-.057.122-.089.18l-2.119 4.259h-1.5zm.065-.861a1.943 1.943 0 00.359-1.251v-.007a1.855 1.855 0 00-.359-1.217 1.421 1.421 0 00-2.037 0 1.861 1.861 0 00-.359 1.224v.007a1.925 1.925 0 00.359 1.248 1.394 1.394 0 002.037 0zM181.308 293.186a2.413 2.413 0 01-.951-.855 3.4 3.4 0 01-.488-1.347v-.006h1.394v.006a1.3 1.3 0 00.438.852 1.42 1.42 0 00.943.3 1.26 1.26 0 001.035-.448 1.934 1.934 0 00.367-1.261v-.827a1.924 1.924 0 00-.367-1.254 1.257 1.257 0 00-1.035-.448 1.316 1.316 0 00-.7.205 1.941 1.941 0 00-.588.574h-1.271v-5.236h5.065v1.326h-3.671V287a1.992 1.992 0 01.581-.328 1.926 1.926 0 01.656-.116 2.9 2.9 0 011.474.355 2.289 2.289 0 01.93 1.039 3.9 3.9 0 01.317 1.648v.834a3.773 3.773 0 01-.328 1.647 2.326 2.326 0 01-.957 1.043 3 3 0 01-1.511.358 2.931 2.931 0 01-1.333-.294zM188.212 292.734a2.861 2.861 0 01-.721-2.078v-4.518a2.843 2.843 0 115.674 0v4.518a2.558 2.558 0 01-2.837 2.823 2.812 2.812 0 01-2.116-.745zm3.207-.966a1.6 1.6 0 00.351-1.112v-4.518a1.6 1.6 0 00-.348-1.111 1.743 1.743 0 00-2.188 0 1.605 1.605 0 00-.349 1.111v4.518a1.6 1.6 0 00.352 1.112 1.738 1.738 0 002.182 0zM66.522 293.377h-1.4v-8.422l-1.415.868v-1.442l1.415-.943h1.4zM73.911 284.682l-2.57 8.695h-1.483l2.57-8.613H69.9v1.428h-1.4v-2.754h5.407zM78.225 293.377H76.83v-8.422l-1.415.868v-1.442l1.415-.943h1.395zM81.2 292.734a2.865 2.865 0 01-.72-2.078v-4.518a2.843 2.843 0 115.674 0v4.518a2.854 2.854 0 01-.725 2.082 3.38 3.38 0 01-4.229 0zm3.207-.966a1.594 1.594 0 00.352-1.112v-4.518a1.6 1.6 0 00-.349-1.111 1.742 1.742 0 00-2.187 0 1.6 1.6 0 00-.349 1.111v4.518a1.594 1.594 0 00.352 1.112 1.737 1.737 0 002.181 0z"/><path class="cls-9" d="M104.68 295.572l1.461-1.461" id="LINE-107" data-name="LINE"/><path class="cls-9" d="M106.141 297.033l-1.461-1.461" id="LINE-108" data-name="LINE"/><path class="cls-9" d="M41.325 295.572l1.462-1.461" id="LINE-109" data-name="LINE"/><path class="cls-9" d="M42.787 297.033l-1.462-1.461" id="LINE-110" data-name="LINE"/><path class="cls-9" d="M104.68 295.572l-1.461 1.461" id="LINE-111" data-name="LINE"/><path class="cls-9" d="M103.219 294.111l1.461 1.461" id="LINE-112" data-name="LINE"/><path class="cls-9" d="M253.495 295.573l-1.461 1.461" id="LINE-113" data-name="LINE"/><path class="cls-9" d="M252.034 294.112l1.461 1.461" id="LINE-114" data-name="LINE"/><path class="cls-9" d="M253.495 52.165H108.961" id="LINE-115" data-name="LINE"/><path d="M166.867 50.072l-.636-.3a2.513 2.513 0 01-1.022-.882 3.191 3.191 0 01-.489-1.391h1.422a1.5 1.5 0 00.267.7 1.23 1.23 0 00.53.407 1.992 1.992 0 00.762.133 1.483 1.483 0 001.073-.369 1.376 1.376 0 00.383-1.039v-.3a1.676 1.676 0 00-.362-1.151 1.3 1.3 0 00-1.026-.407h-.7v-1.334h.7a1.168 1.168 0 00.9-.349 1.4 1.4 0 00.321-.984V42.5a1.188 1.188 0 00-.339-.909 1.339 1.339 0 00-.96-.321 1.462 1.462 0 00-.636.133 1.211 1.211 0 00-.474.41 1.853 1.853 0 00-.284.694h-1.415a3.616 3.616 0 01.515-1.4 2.523 2.523 0 01.961-.881 2.855 2.855 0 011.333-.3 2.754 2.754 0 011.989.676 2.521 2.521 0 01.7 1.908v.164a2.15 2.15 0 01-.4 1.3 2.269 2.269 0 01-1.141.806 2.025 2.025 0 011.26.8 2.645 2.645 0 01.449 1.586v.164a3.063 3.063 0 01-.335 1.483 2.209 2.209 0 01-.975.937 3.4 3.4 0 01-1.541.321zM173.86 49.73a2.5 2.5 0 01-1.057-.967 2.786 2.786 0 01-.372-1.452v-.165a2.8 2.8 0 01.372-1.4 2.5 2.5 0 011-.991 2.175 2.175 0 01-.845-.831 2.242 2.242 0 01-.318-1.145v-.239a2.657 2.657 0 01.349-1.371 2.374 2.374 0 01.984-.916 3.529 3.529 0 012.954 0 2.368 2.368 0 01.984.916 2.657 2.657 0 01.349 1.371v.239a2.2 2.2 0 01-.326 1.156 2.163 2.163 0 01-.857.82 2.569 2.569 0 011.008 1 2.725 2.725 0 01.38 1.4v.165a2.786 2.786 0 01-.372 1.452 2.5 2.5 0 01-1.057.967 3.848 3.848 0 01-3.172 0zm2.441-1.189a1.384 1.384 0 00.571-.537 1.551 1.551 0 00.2-.8v-.1a1.567 1.567 0 00-.2-.8 1.39 1.39 0 00-.571-.537 2.007 2.007 0 00-1.709 0 1.377 1.377 0 00-.572.541 1.583 1.583 0 00-.2.806v.1a1.538 1.538 0 00.2.793 1.362 1.362 0 00.572.529 2.021 2.021 0 001.709 0zm-.117-4.481a1.254 1.254 0 00.5-.516 1.618 1.618 0 00.178-.773v-.095a1.493 1.493 0 00-.178-.738 1.222 1.222 0 00-.5-.5 1.652 1.652 0 00-1.476 0 1.222 1.222 0 00-.5.5 1.517 1.517 0 00-.178.745v.1a1.593 1.593 0 00.178.762 1.252 1.252 0 00.5.513 1.6 1.6 0 001.476 0zM180.259 48.76l3.465-4.621a3.393 3.393 0 00.468-.824 2.185 2.185 0 00.168-.8v-.014a1.2 1.2 0 00-.349-.923 1.388 1.388 0 00-.991-.328 1.368 1.368 0 00-.984.359 1.629 1.629 0 00-.458 1.015v.007h-1.443v-.007a3.748 3.748 0 01.5-1.46 2.566 2.566 0 01.982-.922 2.924 2.924 0 011.388-.318 3.454 3.454 0 011.517.3 2.141 2.141 0 01.957.885 2.806 2.806 0 01.328 1.4v.006a3.108 3.108 0 01-.218 1.1 4.713 4.713 0 01-.609 1.107l-2.88 3.922h3.76v1.326h-5.605zM188.362 49.327a2.865 2.865 0 01-.721-2.078V42.73a2.854 2.854 0 01.725-2.081 3.388 3.388 0 014.228 0 2.857 2.857 0 01.721 2.084v4.519a2.856 2.856 0 01-.724 2.082 3.38 3.38 0 01-4.229 0zm3.207-.967a1.6 1.6 0 00.352-1.111V42.73a1.6 1.6 0 00-.349-1.11 1.738 1.738 0 00-2.187 0 1.6 1.6 0 00-.349 1.11v4.519a1.6 1.6 0 00.351 1.111 1.735 1.735 0 002.182 0z"/><path class="cls-9" d="M108.962 52.165l1.462-1.462" id="LINE-116" data-name="LINE"/><path class="cls-9" d="M110.424 53.626l-1.462-1.461" id="LINE-117" data-name="LINE"/><path class="cls-9" d="M253.495 52.165l-1.461 1.461" id="LINE-118" data-name="LINE"/><path class="cls-9" d="M252.034 50.704l1.461 1.461" id="LINE-119" data-name="LINE"/><path class="cls-9" d="M318.008 14.165h-41.047" id="LINE-120" data-name="LINE"/><path d="M287.3 11.97h-1.4V3.548l-1.415.868V2.974l1.415-.944h1.4zM289.4 10.76l3.466-4.621a3.46 3.46 0 00.468-.824 2.185 2.185 0 00.168-.8v-.01a1.208 1.208 0 00-.349-.923 1.388 1.388 0 00-.991-.328 1.371 1.371 0 00-.985.359 1.629 1.629 0 00-.458 1.015v.007h-1.442v-.007a3.731 3.731 0 01.5-1.46 2.563 2.563 0 01.981-.922 2.93 2.93 0 011.388-.318 3.456 3.456 0 011.518.3 2.141 2.141 0 01.957.885 2.806 2.806 0 01.328 1.4v.006a3.088 3.088 0 01-.219 1.1 4.673 4.673 0 01-.608 1.107l-2.878 3.911h3.76v1.333H289.4zM297.505 11.327a2.861 2.861 0 01-.721-2.078V4.73a2.849 2.849 0 01.725-2.081 3.388 3.388 0 014.228 0 2.857 2.857 0 01.721 2.084v4.516a2.852 2.852 0 01-.725 2.082 3.379 3.379 0 01-4.228 0zm3.207-.967a1.6 1.6 0 00.351-1.111V4.73a1.6 1.6 0 00-.348-1.11 1.74 1.74 0 00-2.188 0 1.6 1.6 0 00-.349 1.11v4.519a1.6 1.6 0 00.352 1.111 1.735 1.735 0 002.182 0zM305.229 11.327a2.865 2.865 0 01-.72-2.078V4.73a2.853 2.853 0 01.724-2.081 3.389 3.389 0 014.229 0 2.86 2.86 0 01.72 2.084v4.516a2.856 2.856 0 01-.724 2.082 3.38 3.38 0 01-4.229 0zm3.207-.967a1.591 1.591 0 00.352-1.111V4.73a1.6 1.6 0 00-.349-1.11 1.738 1.738 0 00-2.187 0 1.6 1.6 0 00-.349 1.11v4.519a1.591 1.591 0 00.352 1.111 1.733 1.733 0 002.181 0z"/><path class="cls-9" d="M276.962 14.165l1.462-1.462" id="LINE-121" data-name="LINE"/><path class="cls-9" d="M278.424 15.626l-1.462-1.461" id="LINE-122" data-name="LINE"/><path class="cls-9" d="M318.008 14.165l-1.458 1.461" id="LINE-123" data-name="LINE"/><path class="cls-9" d="M316.55 12.704l1.458 1.461" id="LINE-124" data-name="LINE"/><path class="cls-9" d="M318.054 25.149V8.087M276.638 25.149V8.087"/><path class="cls-9" d="M136.228 452.303H41.325" id="LINE-125" data-name="LINE"/><path d="M80.723 448.9l3.466-4.621a3.416 3.416 0 00.467-.823 2.169 2.169 0 00.168-.8v-.013a1.205 1.205 0 00-.348-.923 1.391 1.391 0 00-.991-.328 1.369 1.369 0 00-.985.359 1.629 1.629 0 00-.458 1.015v.006H80.6v-.006a3.721 3.721 0 01.5-1.459 2.559 2.559 0 01.981-.923 2.93 2.93 0 011.388-.319 3.456 3.456 0 011.518.305 2.141 2.141 0 01.957.885 2.816 2.816 0 01.328 1.4v.007a3.106 3.106 0 01-.219 1.1 4.765 4.765 0 01-.608 1.107l-2.878 3.91h3.759v1.326h-5.603zM89.545 449.916a2.4 2.4 0 01-.951-.854 3.41 3.41 0 01-.488-1.347v-.007H89.5v.007a1.3 1.3 0 00.438.851 1.413 1.413 0 00.943.3 1.261 1.261 0 001.035-.447 1.944 1.944 0 00.366-1.262v-.834a1.93 1.93 0 00-.366-1.254 1.259 1.259 0 00-1.035-.448 1.314 1.314 0 00-.7.2 1.953 1.953 0 00-.588.574h-1.269v-5.236h5.066v1.326h-3.671v2.235a2.015 2.015 0 01.581-.328 1.926 1.926 0 01.656-.116 2.886 2.886 0 011.474.356 2.289 2.289 0 01.93 1.039 3.9 3.9 0 01.317 1.647v.834a3.775 3.775 0 01-.328 1.648 2.331 2.331 0 01-.957 1.043 3 3 0 01-1.511.358 2.931 2.931 0 01-1.336-.285zM96.794 449.858a2.293 2.293 0 01-.947-1.025 3.718 3.718 0 01-.324-1.624v-.009a5.545 5.545 0 01.13-1.162 6.787 6.787 0 01.376-1.2c.027-.069.056-.136.088-.2l.1-.2 2.16-4.279h1.5l-2.536 4.956.007-.246a1.2 1.2 0 01.5-.5 1.59 1.59 0 01.766-.178 2.435 2.435 0 011.326.349 2.182 2.182 0 01.841 1.015 4.05 4.05 0 01.287 1.6v.007a3.783 3.783 0 01-.326 1.64 2.279 2.279 0 01-.949 1.039 3.351 3.351 0 01-3 0zm2.52-1.4a1.726 1.726 0 00.358-1.169v-.007A1.968 1.968 0 0099.3 446a1.311 1.311 0 00-1.073-.455 1.133 1.133 0 00-.964.458 2.126 2.126 0 00-.342 1.292v.007a1.7 1.7 0 00.36 1.166 1.475 1.475 0 002.037 0zM103.633 449.465a2.867 2.867 0 01-.721-2.078v-4.519a2.854 2.854 0 01.725-2.081 3.39 3.39 0 014.228 0 2.859 2.859 0 01.721 2.085v4.519a2.856 2.856 0 01-.724 2.082 3.38 3.38 0 01-4.229 0zm3.207-.967a1.6 1.6 0 00.352-1.111v-4.519a1.6 1.6 0 00-.349-1.11 1.738 1.738 0 00-2.187 0 1.6 1.6 0 00-.349 1.11v4.519a1.6 1.6 0 00.351 1.111 1.735 1.735 0 002.182 0z"/><path class="cls-9" d="M41.326 452.303l1.461-1.462" id="LINE-126" data-name="LINE"/><path class="cls-9" d="M42.787 453.764l-1.461-1.461" id="LINE-127" data-name="LINE"/><path class="cls-9" d="M136.228 452.303l-1.461 1.461" id="LINE-128" data-name="LINE"/><path class="cls-9" d="M134.767 450.842l1.461 1.461" id="LINE-129" data-name="LINE"/><path class="cls-9" d="M93.848 395.413H41.325" id="LINE-130" data-name="LINE"/><path d="M61.342 393.218h-1.394V384.8l-1.416.868v-1.442l1.416-.944h1.394zM63.461 390.483l3.336-7.2h1.436l-3.254 7.117h4.874v1.292h-6.392zm4.286-3.11h1.361v5.852h-1.361zM71.411 392.008l3.466-4.621a3.445 3.445 0 00.468-.824 2.185 2.185 0 00.168-.8v-.014a1.2 1.2 0 00-.349-.923 1.388 1.388 0 00-.991-.328 1.368 1.368 0 00-.984.358 1.629 1.629 0 00-.458 1.016v.007h-1.443v-.007a3.726 3.726 0 01.5-1.46 2.562 2.562 0 01.982-.923 2.922 2.922 0 011.387-.317 3.47 3.47 0 011.518.3 2.149 2.149 0 01.957.886 2.806 2.806 0 01.328 1.4v.006a3.088 3.088 0 01-.219 1.1 4.673 4.673 0 01-.608 1.107l-2.878 3.911h3.76v1.326h-5.604zM79.515 392.575a2.862 2.862 0 01-.721-2.078v-4.518a2.854 2.854 0 01.725-2.083 3.39 3.39 0 014.228 0 2.856 2.856 0 01.721 2.085v4.519a2.559 2.559 0 01-2.837 2.823 2.816 2.816 0 01-2.116-.748zm3.207-.968a1.593 1.593 0 00.351-1.11v-4.518a1.608 1.608 0 00-.348-1.112 1.743 1.743 0 00-2.188 0 1.608 1.608 0 00-.348 1.112v4.521a1.593 1.593 0 00.351 1.11 1.731 1.731 0 002.182 0z"/><path class="cls-9" d="M41.326 395.413l1.461-1.462" id="LINE-131" data-name="LINE"/><path class="cls-9" d="M42.787 396.874l-1.461-1.461" id="LINE-132" data-name="LINE"/><path class="cls-9" d="M93.953 395.413l-1.461 1.461" id="LINE-133" data-name="LINE"/><path class="cls-9" d="M92.492 393.952l1.461 1.461" id="LINE-134" data-name="LINE"/><path class="cls-9" d="M276.545 216.506h21.623" id="LINE-135" data-name="LINE"/><path class="cls-9" d="M276.545 282.641h21.623" id="LINE-136" data-name="LINE"/><path class="cls-9" d="M276.545 360.785h21.623" id="LINE-137" data-name="LINE"/><path class="cls-9" d="M276.545 444.358h21.623" id="LINE-138" data-name="LINE"/><path class="cls-9" d="M298.295 216.683v265.649" id="LINE-139" data-name="LINE"/><path d="M296.036 258.268v1.394h-8.422l.868 1.415h-1.442l-.944-1.415v-1.394zM287.341 250.878l8.695 2.57v1.484l-8.613-2.571v2.53h1.428v1.394H286.1v-5.407zM296.036 246.564v1.4h-8.422l.868 1.415h-1.442l-.944-1.415v-1.4zM295.393 243.588a2.865 2.865 0 01-2.078.721H288.8a2.856 2.856 0 01-2.082-.725 3.389 3.389 0 010-4.229 2.861 2.861 0 012.085-.72h4.518a2.856 2.856 0 012.082.724 3.38 3.38 0 010 4.229zm-.967-3.207a1.591 1.591 0 00-1.111-.352H288.8a1.605 1.605 0 00-1.111.349 1.742 1.742 0 000 2.187 1.6 1.6 0 001.111.349h4.518a1.6 1.6 0 001.111-.351 1.735 1.735 0 000-2.182zM294.826 416.26l-4.621-3.466a3.46 3.46 0 00-.824-.468 2.185 2.185 0 00-.8-.168h-.014a1.205 1.205 0 00-.923.349 1.388 1.388 0 00-.328.991 1.368 1.368 0 00.359.984 1.626 1.626 0 001.015.458h.007v1.443h-.007a3.721 3.721 0 01-1.459-.5 2.554 2.554 0 01-.923-.982 2.923 2.923 0 01-.318-1.387 3.456 3.456 0 01.3-1.518 2.141 2.141 0 01.885-.957 2.809 2.809 0 011.4-.328h.007a3.083 3.083 0 011.1.219 4.7 4.7 0 011.108.608l3.91 2.878v-3.76h1.326v5.606zM296.036 406.478v1.394h-8.422l.868 1.415h-1.442l-.944-1.415v-1.394zM295.786 403.155a2.285 2.285 0 01-1.025.948 3.732 3.732 0 01-1.624.324h-.006a5.53 5.53 0 01-1.162-.13 6.771 6.771 0 01-1.2-.376c-.068-.027-.136-.057-.2-.089s-.131-.063-.2-.1l-4.28-2.16v-1.5l4.956 2.536-.246-.006a1.212 1.212 0 01-.5-.5 1.59 1.59 0 01-.177-.766 2.44 2.44 0 01.348-1.326 2.181 2.181 0 011.015-.841 4.05 4.05 0 011.6-.287h.007a3.791 3.791 0 011.641.325 2.3 2.3 0 011.039.949 3.355 3.355 0 010 3zm-1.4-2.519a1.721 1.721 0 00-1.169-.359h-.006a1.967 1.967 0 00-1.289.376 1.316 1.316 0 00-.455 1.074 1.13 1.13 0 00.458.963 2.126 2.126 0 001.292.342h.007a1.7 1.7 0 001.166-.359 1.473 1.473 0 000-2.037zM295.393 396.316a2.861 2.861 0 01-2.078.721H288.8a2.856 2.856 0 01-2.082-.724 3.389 3.389 0 010-4.229 2.862 2.862 0 012.085-.721h4.518a2.852 2.852 0 012.082.725 3.379 3.379 0 010 4.228zm-.967-3.207a1.6 1.6 0 00-1.111-.351H288.8a1.6 1.6 0 00-1.111.348 1.743 1.743 0 000 2.188 1.605 1.605 0 001.111.349h4.518a1.6 1.6 0 001.111-.352 1.735 1.735 0 000-2.182zM291.1 469.354l.246.006a1.028 1.028 0 01.462.516 2.077 2.077 0 01.147.817 2.2 2.2 0 01-.362 1.251 2.372 2.372 0 01-1.022.838 3.709 3.709 0 01-1.528.3h-.007a3.823 3.823 0 01-1.648-.324 2.293 2.293 0 01-1.039-.951 3 3 0 01-.355-1.5 2.932 2.932 0 01.362-1.5 2.325 2.325 0 011.053-.947 3.884 3.884 0 011.661-.325h.007a5.184 5.184 0 011.138.137 6.993 6.993 0 011.2.39l.181.082c.061.027.122.056.181.088l4.259 2.12v1.5zm-.861-.066a1.949 1.949 0 00-1.251-.358h-.007a1.859 1.859 0 00-1.217.358 1.421 1.421 0 000 2.037 1.859 1.859 0 001.224.36H289a1.924 1.924 0 001.247-.36 1.393 1.393 0 000-2.037zM293.3 466.373l-7.2-3.336V461.6l7.116 3.253v-4.874h1.292v6.392zm-3.111-4.286v-1.36h5.852v1.36zM295.393 457.552a2.865 2.865 0 01-2.078.72H288.8a2.856 2.856 0 01-2.082-.724 3.389 3.389 0 010-4.229 2.861 2.861 0 012.085-.72h4.518a2.856 2.856 0 012.082.724 3.38 3.38 0 010 4.229zm-.967-3.207a1.591 1.591 0 00-1.111-.352H288.8a1.6 1.6 0 00-1.111.349 1.742 1.742 0 000 2.187 1.6 1.6 0 001.111.349h4.518a1.591 1.591 0 001.111-.352 1.733 1.733 0 000-2.181zM294.826 334.843l-4.621-3.466a3.46 3.46 0 00-.824-.468 2.185 2.185 0 00-.8-.168h-.014a1.205 1.205 0 00-.923.349 1.388 1.388 0 00-.328.991 1.368 1.368 0 00.359.984 1.626 1.626 0 001.015.458h.007v1.443h-.007a3.721 3.721 0 01-1.459-.5 2.554 2.554 0 01-.923-.982 2.923 2.923 0 01-.318-1.387 3.456 3.456 0 01.3-1.518 2.141 2.141 0 01.885-.957 2.809 2.809 0 011.4-.328h.007a3.083 3.083 0 011.1.219 4.7 4.7 0 011.108.608l3.92 2.879v-3.76h1.326v5.606zM296.036 325.061v1.394h-8.422l.868 1.415h-1.442l-.944-1.415v-1.394zM293.3 322.941l-7.2-3.336v-1.435l7.116 3.254v-4.874h1.292v6.391zm-3.111-4.286V317.3h5.852v1.36zM295.393 314.12a2.861 2.861 0 01-2.078.721H288.8a2.852 2.852 0 01-2.082-.725 3.388 3.388 0 010-4.228 2.858 2.858 0 012.085-.721h4.518a2.852 2.852 0 012.082.725 3.379 3.379 0 010 4.228zm-.967-3.207a1.6 1.6 0 00-1.111-.351H288.8a1.6 1.6 0 00-1.111.348 1.743 1.743 0 000 2.188 1.6 1.6 0 001.111.348h4.518a1.6 1.6 0 001.111-.351 1.735 1.735 0 000-2.182z"/><path class="cls-9" d="M298.295 216.683l1.461 1.438" id="LINE-141" data-name="LINE"/><path class="cls-9" d="M296.834 218.121l1.461-1.438" id="LINE-142" data-name="LINE"/><path class="cls-9" d="M298.295 282.631l1.461 1.439" id="LINE-143" data-name="LINE"/><path class="cls-9" d="M296.834 284.07l1.461-1.439" id="LINE-144" data-name="LINE"/><path class="cls-9" d="M298.295 360.683l1.461 1.438" id="LINE-145" data-name="LINE"/><path class="cls-9" d="M296.834 362.121l1.461-1.438" id="LINE-146" data-name="LINE"/><path class="cls-9" d="M298.295 444.358l1.461 1.438" id="LINE-147" data-name="LINE"/><path class="cls-9" d="M296.834 445.796l1.461-1.438" id="LINE-148" data-name="LINE"/><path class="cls-9" d="M298.295 282.631l-1.461-1.438" id="LINE-149" data-name="LINE"/><path class="cls-9" d="M299.756 281.193l-1.461 1.438" id="LINE-150" data-name="LINE"/><path class="cls-9" d="M298.295 482.332l-1.461-1.438" id="LINE-151" data-name="LINE"/><g id="LINE-152" data-name="LINE"><path class="cls-9" d="M299.756 480.894l-1.461 1.438"/><path class="cls-9" d="M276.545 148.337h21.623" id="LINE-153" data-name="LINE"/><path class="cls-9" d="M298.295 148.712v67.687"/><path d="M296.036 193.835v1.394h-8.422l.868 1.416h-1.442l-.944-1.416v-1.394zM295.8 190.253a2.5 2.5 0 01-.968 1.057 2.786 2.786 0 01-1.452.372h-.164a2.8 2.8 0 01-1.4-.372 2.5 2.5 0 01-.991-1 2.179 2.179 0 01-.83.845 2.248 2.248 0 01-1.146.318h-.239a2.651 2.651 0 01-1.37-.349 2.362 2.362 0 01-.916-.984 3.519 3.519 0 010-2.954 2.362 2.362 0 01.916-.984 2.651 2.651 0 011.37-.349h.239a2.2 2.2 0 011.156.326 2.156 2.156 0 01.82.857 2.576 2.576 0 011-1.008 2.726 2.726 0 011.4-.38h.164a2.786 2.786 0 011.452.372 2.5 2.5 0 01.968 1.057 3.859 3.859 0 010 3.172zm-5.671-2.324a1.248 1.248 0 00-.516-.5 1.628 1.628 0 00-.772-.178h-.1a1.5 1.5 0 00-.738.178 1.222 1.222 0 00-.5.5 1.652 1.652 0 000 1.476 1.222 1.222 0 00.5.5 1.517 1.517 0 00.745.178h.1a1.6 1.6 0 00.763-.178 1.25 1.25 0 00.512-.5 1.6 1.6 0 000-1.476zm4.481-.116a1.378 1.378 0 00-.536-.572 1.555 1.555 0 00-.8-.2h-.1a1.567 1.567 0 00-.8.2 1.378 1.378 0 00-.536.572 2 2 0 000 1.708 1.368 1.368 0 00.54.572 1.583 1.583 0 00.806.2h.1a1.535 1.535 0 00.793-.2 1.371 1.371 0 00.53-.572 1.862 1.862 0 00.188-.854 1.825 1.825 0 00-.188-.854zM293.3 183.841l-7.2-3.336v-1.436l7.116 3.254v-4.874h1.292v6.392zm-3.111-4.286v-1.361h5.852v1.361zM295.393 175.02a2.865 2.865 0 01-2.078.72H288.8a2.856 2.856 0 01-2.082-.724 3.389 3.389 0 010-4.229 2.862 2.862 0 012.085-.721h4.518a2.856 2.856 0 012.082.725 3.38 3.38 0 010 4.229zm-.967-3.207a1.591 1.591 0 00-1.111-.352H288.8a1.6 1.6 0 00-1.111.349 1.742 1.742 0 000 2.187 1.605 1.605 0 001.111.349h4.518a1.591 1.591 0 001.111-.352 1.733 1.733 0 000-2.181z"/><path class="cls-9" d="M298.295 148.513l1.461 1.439" id="LINE-154" data-name="LINE"/><path class="cls-9" d="M296.834 149.952l1.461-1.439" id="LINE-155" data-name="LINE"/><path class="cls-9" d="M298.295 216.524l-1.461-1.438M299.756 215.086l-1.461 1.438"/></g><path class="cls-9" d="M298.295 414.116l-1.461-1.438" id="LINE-156" data-name="LINE"/><g id="LINE-157" data-name="LINE"><path class="cls-9" d="M299.756 412.678l-1.461 1.438"/><path class="cls-9" d="M276.545 81.462h21.623" id="LINE-158" data-name="LINE"/><path class="cls-9" d="M298.295 81.837v66.346"/><path d="M296.036 123.551v1.394h-8.422l.868 1.415h-1.442l-.944-1.415v-1.394zM287.341 116.161l8.695 2.57v1.484l-8.613-2.57v2.529h1.428v1.394H286.1v-5.407zM296.036 111.848v1.394h-8.422l.868 1.415h-1.442l-.944-1.415v-1.394zM295.393 108.871a2.861 2.861 0 01-2.078.721H288.8a2.852 2.852 0 01-2.082-.725 3.388 3.388 0 010-4.228 2.858 2.858 0 012.085-.721h4.518a2.852 2.852 0 012.082.725 3.379 3.379 0 010 4.228zm-.967-3.207a1.6 1.6 0 00-1.111-.351H288.8a1.6 1.6 0 00-1.111.348 1.743 1.743 0 000 2.188 1.6 1.6 0 001.111.348h4.518a1.6 1.6 0 001.111-.351 1.735 1.735 0 000-2.182z"/><path class="cls-9" d="M298.295 81.638l1.461 1.439" id="LINE-159" data-name="LINE"/><path class="cls-9" d="M296.834 83.077l1.461-1.439" id="LINE-160" data-name="LINE"/><path class="cls-9" d="M298.295 148.308l-1.461-1.438M299.756 146.87l-1.461 1.438"/></g><path class="cls-9" d="M298.295 362.116l-1.461-1.438" id="LINE-161" data-name="LINE"/><g id="LINE-162" data-name="LINE"><path class="cls-9" d="M299.756 360.678l-1.461 1.438"/><path class="cls-9" d="M276.545 29.462h21.623" id="LINE-163" data-name="LINE"/><path class="cls-9" d="M298.295 29.837v51.479"/><path d="M296.036 66.129v1.394h-8.422l.868 1.415h-1.442l-.944-1.415v-1.394zM293.3 64.01l-7.2-3.336v-1.436l7.116 3.254v-4.874h1.292v6.392zm-3.111-4.286v-1.361h5.852v1.361zM295.393 55.188a2.861 2.861 0 01-2.078.721H288.8a2.856 2.856 0 01-2.082-.724 3.389 3.389 0 010-4.229 2.862 2.862 0 012.085-.721h4.518a2.856 2.856 0 012.082.725 3.379 3.379 0 010 4.228zm-.967-3.207a1.6 1.6 0 00-1.111-.351H288.8a1.6 1.6 0 00-1.111.349 1.742 1.742 0 000 2.187 1.605 1.605 0 001.111.349h4.518a1.6 1.6 0 001.111-.352 1.735 1.735 0 000-2.182zM295.844 46.745a2.4 2.4 0 01-.854.951 3.411 3.411 0 01-1.347.489h-.007v-1.4h.007a1.292 1.292 0 00.851-.437 1.418 1.418 0 00.3-.944 1.261 1.261 0 00-.448-1.035 1.943 1.943 0 00-1.261-.366h-.834a1.933 1.933 0 00-1.255.366 1.261 1.261 0 00-.448 1.035 1.315 1.315 0 00.206.7 1.941 1.941 0 00.574.588v1.272H286.1V42.9h1.327v3.671h2.235a1.969 1.969 0 01-.328-.581 1.9 1.9 0 01-.116-.656 2.891 2.891 0 01.355-1.474 2.287 2.287 0 011.039-.929 3.9 3.9 0 011.648-.318h.834a3.791 3.791 0 011.647.328 2.331 2.331 0 011.043.957 3 3 0 01.358 1.511 2.931 2.931 0 01-.298 1.336z"/><path class="cls-9" d="M298.295 29.638l1.461 1.439" id="LINE-164" data-name="LINE"/><path class="cls-9" d="M296.834 31.077l1.461-1.439" id="LINE-165" data-name="LINE"/><path class="cls-9" d="M298.295 81.441l-1.461-1.438M299.756 80.003l-1.461 1.438"/></g><g id="LINE-166" data-name="LINE"><path class="cls-9" d="M317.858 24.972h21.623" id="LINE-167" data-name="LINE"/><path class="cls-9" d="M339.607 25.347v456.771"/><path d="M337.348 266.09v1.394h-8.421l.868 1.415h-1.443l-.943-1.415v-1.394zM336.138 263.985l-4.621-3.465a3.406 3.406 0 00-.823-.468 2.187 2.187 0 00-.8-.167h-.013a1.205 1.205 0 00-.923.348 1.389 1.389 0 00-.328.991 1.369 1.369 0 00.358.984 1.634 1.634 0 001.016.458h.006v1.442h-.006a3.7 3.7 0 01-1.459-.5 2.545 2.545 0 01-.924-.98 2.933 2.933 0 01-.318-1.388 3.467 3.467 0 01.3-1.516 2.128 2.128 0 01.886-.957 2.805 2.805 0 011.4-.328h.007a3.086 3.086 0 011.1.218 4.733 4.733 0 011.107.609l3.91 2.877v-3.759h1.326v5.6zM337.348 254.2v1.4h-8.421l.868 1.415h-1.443l-.943-1.415v-1.4zM337.451 250.213l-.3.636a2.512 2.512 0 01-.883 1.021 3.161 3.161 0 01-1.39.488v-1.42a1.514 1.514 0 00.7-.267 1.227 1.227 0 00.406-.53 1.976 1.976 0 00.134-.762 1.483 1.483 0 00-.369-1.073 1.378 1.378 0 00-1.039-.383h-.3a1.672 1.672 0 00-1.151.362 1.3 1.3 0 00-.407 1.026v.7h-1.327v-.7a1.167 1.167 0 00-.348-.9 1.4 1.4 0 00-.985-.321h-.307a1.193 1.193 0 00-.909.338 1.342 1.342 0 00-.322.961 1.444 1.444 0 00.134.635 1.206 1.206 0 00.41.475 1.855 1.855 0 00.694.284v1.414a3.606 3.606 0 01-1.4-.515 2.522 2.522 0 01-.882-.96 2.867 2.867 0 01-.3-1.333 2.758 2.758 0 01.677-1.99 2.526 2.526 0 011.907-.7h.164a2.144 2.144 0 011.3.4 2.281 2.281 0 01.807 1.141 2.014 2.014 0 01.8-1.26 2.645 2.645 0 011.586-.449h.164a3.074 3.074 0 011.483.335 2.214 2.214 0 01.937.975 3.4 3.4 0 01.321 1.541zM337.157 243.108a2.4 2.4 0 01-.855.95 3.391 3.391 0 01-1.346.489h-.007v-1.4h.007a1.288 1.288 0 00.851-.437 1.416 1.416 0 00.3-.944 1.26 1.26 0 00-.448-1.035 1.941 1.941 0 00-1.261-.365h-.834a1.933 1.933 0 00-1.255.365 1.262 1.262 0 00-.447 1.035 1.312 1.312 0 00.205.7 1.953 1.953 0 00.574.588v1.271h-5.236v-5.064h1.326v3.67h2.235a1.969 1.969 0 01-.328-.581 1.927 1.927 0 01-.116-.657 2.871 2.871 0 01.356-1.472 2.273 2.273 0 011.039-.93 3.884 3.884 0 011.647-.317h.834a3.778 3.778 0 011.648.328 2.325 2.325 0 011.043.957 3.008 3.008 0 01.358 1.509 2.933 2.933 0 01-.29 1.34z"/><path class="cls-9" d="M339.607 25.149l1.462 1.438" id="LINE-168" data-name="LINE"/><path class="cls-9" d="M338.146 26.587l1.461-1.438" id="LINE-169" data-name="LINE"/><path class="cls-9" d="M339.607 482.243l-1.461-1.438M341.069 480.805l-1.462 1.438"/></g><path class="cls-9" d="M318.159 482.316h21.666"/><path class="cls-9" d="M298.295 444.358l-1.461-1.439" id="LINE-170" data-name="LINE"/><path class="cls-9" d="M299.756 442.919l-1.461 1.439" id="LINE-171" data-name="LINE"/><path class="cls-9" d="M298.295 360.785l-1.461-1.438" id="LINE-172" data-name="LINE"/><path class="cls-9" d="M299.756 359.347l-1.461 1.438" id="LINE-173" data-name="LINE"/><path class="cls-9" d="M103.219 363.598v21.623" id="LINE-174" data-name="LINE"/><path class="cls-9" d="M130.742 363.598v21.623" id="LINE-175" data-name="LINE"/><path class="cls-9" d="M130.742 363.597h-27.523" id="LINE-176" data-name="LINE"/><path d="M107.67 361.163a2.5 2.5 0 01-1.056-.968 2.777 2.777 0 01-.373-1.452v-.164a2.784 2.784 0 01.373-1.4 2.483 2.483 0 01.995-.991 2.184 2.184 0 01-.845-.832 2.24 2.24 0 01-.317-1.144v-.239a2.651 2.651 0 01.348-1.371 2.364 2.364 0 01.985-.916 3.516 3.516 0 012.953 0 2.362 2.362 0 01.984.916 2.652 2.652 0 01.349 1.371v.239a2.2 2.2 0 01-.326 1.155 2.159 2.159 0 01-.857.821 2.567 2.567 0 011.008.994 2.726 2.726 0 01.38 1.4v.164a2.786 2.786 0 01-.372 1.452 2.5 2.5 0 01-1.057.968 3.848 3.848 0 01-3.172 0zm2.441-1.189a1.39 1.39 0 00.571-.537 1.554 1.554 0 00.2-.8v-.1a1.571 1.571 0 00-.2-.8 1.388 1.388 0 00-.571-.536 2.007 2.007 0 00-1.709 0 1.381 1.381 0 00-.572.54 1.6 1.6 0 00-.2.807v.1a1.545 1.545 0 00.2.793 1.371 1.371 0 00.572.53 2.021 2.021 0 001.709 0zm-.117-4.482a1.251 1.251 0 00.5-.515 1.624 1.624 0 00.178-.773v-.1a1.493 1.493 0 00-.178-.738 1.222 1.222 0 00-.5-.5 1.652 1.652 0 00-1.476 0 1.222 1.222 0 00-.5.5 1.517 1.517 0 00-.178.745v.1a1.587 1.587 0 00.178.761 1.246 1.246 0 00.5.513 1.587 1.587 0 001.476 0zM114.94 360.76a2.864 2.864 0 01-.721-2.078v-4.519a2.852 2.852 0 01.725-2.082 3.391 3.391 0 014.228 0 2.858 2.858 0 01.721 2.085v4.519a2.849 2.849 0 01-.725 2.081 3.377 3.377 0 01-4.228 0zm3.207-.968a1.6 1.6 0 00.351-1.11v-4.519a1.607 1.607 0 00-.348-1.111 1.743 1.743 0 00-2.188 0 1.607 1.607 0 00-.348 1.111v4.519a1.6 1.6 0 00.351 1.11 1.731 1.731 0 002.182 0zM122.664 360.76a2.868 2.868 0 01-.72-2.078v-4.519a2.856 2.856 0 01.724-2.082 3.393 3.393 0 014.229 0 2.861 2.861 0 01.72 2.085v4.519a2.853 2.853 0 01-.724 2.081 3.379 3.379 0 01-4.229 0zm3.207-.968a1.59 1.59 0 00.352-1.11v-4.519a1.6 1.6 0 00-.349-1.111 1.742 1.742 0 00-2.187 0 1.6 1.6 0 00-.349 1.111v4.519a1.59 1.59 0 00.352 1.11 1.73 1.73 0 002.181 0z"/><path class="cls-9" d="M103.219 363.597l1.461-1.461" id="LINE-177" data-name="LINE"/><path class="cls-9" d="M104.68 365.058l-1.461-1.461" id="LINE-178" data-name="LINE"/><path class="cls-9" d="M130.742 363.598l-1.461 1.461" id="LINE-179" data-name="LINE"/><path class="cls-9" d="M129.281 362.137l1.461 1.461" id="LINE-180" data-name="LINE"/><path class="cls-9" d="M104.742 318.097H63.969" id="LINE-181" data-name="LINE"/><path d="M77.83 310.967l-.007.246a1.027 1.027 0 01-.516.461 2.077 2.077 0 01-.817.147 2.2 2.2 0 01-1.251-.362 2.374 2.374 0 01-.838-1.022 3.709 3.709 0 01-.3-1.528v-.009a3.833 3.833 0 01.324-1.647 2.285 2.285 0 01.952-1.039 2.986 2.986 0 011.5-.356 2.913 2.913 0 011.5.363 2.316 2.316 0 01.946 1.052 3.87 3.87 0 01.325 1.662v.006a5.177 5.177 0 01-.137 1.138 6.875 6.875 0 01-.389 1.2c-.028.059-.055.119-.082.181s-.057.122-.089.182l-2.119 4.258h-1.5zm.065-.862a1.943 1.943 0 00.359-1.251v-.006a1.85 1.85 0 00-.359-1.217 1.419 1.419 0 00-2.037 0 1.854 1.854 0 00-.359 1.223v.007a1.924 1.924 0 00.359 1.247 1.391 1.391 0 002.037 0zM81.344 314.692l3.465-4.621a3.393 3.393 0 00.468-.824 2.181 2.181 0 00.168-.8v-.013a1.2 1.2 0 00-.349-.923 1.388 1.388 0 00-.991-.328 1.368 1.368 0 00-.984.358 1.631 1.631 0 00-.458 1.016v.006H81.22v-.006a3.72 3.72 0 01.5-1.46 2.554 2.554 0 01.982-.923 2.924 2.924 0 011.388-.318 3.469 3.469 0 011.517.3 2.138 2.138 0 01.957.886 2.8 2.8 0 01.328 1.4v.007a3.108 3.108 0 01-.218 1.1 4.733 4.733 0 01-.609 1.107l-2.878 3.91h3.76v1.334h-5.603zM89.447 315.26a2.868 2.868 0 01-.721-2.078v-4.519a2.856 2.856 0 01.725-2.082 3.391 3.391 0 014.228 0 2.858 2.858 0 01.721 2.085v4.519a2.853 2.853 0 01-.724 2.081 3.379 3.379 0 01-4.229 0zm3.207-.968a1.6 1.6 0 00.352-1.11v-4.519a1.607 1.607 0 00-.349-1.111 1.743 1.743 0 00-2.188 0 1.607 1.607 0 00-.348 1.111v4.519a1.6 1.6 0 00.351 1.11 1.731 1.731 0 002.182 0z"/><path class="cls-9" d="M63.969 318.097l1.461-1.461" id="LINE-182" data-name="LINE"/><path class="cls-9" d="M65.43 319.558l-1.461-1.461" id="LINE-183" data-name="LINE"/><path class="cls-9" d="M104.742 318.098l-1.461 1.461" id="LINE-184" data-name="LINE"/><path class="cls-9" d="M103.281 316.637l1.461 1.461" id="LINE-185" data-name="LINE"/><path class="cls-9" d="M106.077 52.169H41.325" id="LINE-186" data-name="LINE"/><path d="M70.143 49.974h-1.394v-8.422l-1.415.868v-1.442l1.415-.944h1.394zM77.533 41.278l-2.57 8.7h-1.484l2.571-8.618h-2.53v1.429h-1.394v-2.755h5.407zM79.967 49.724a2.3 2.3 0 01-.948-1.025 3.721 3.721 0 01-.324-1.624v-.007a5.545 5.545 0 01.13-1.162 6.761 6.761 0 01.376-1.2c.027-.068.057-.136.089-.2s.063-.131.095-.2l2.161-4.279h1.5l-2.533 4.963.007-.246a1.212 1.212 0 01.5-.5 1.579 1.579 0 01.766-.178 2.441 2.441 0 011.326.349 2.182 2.182 0 01.841 1.015 4.047 4.047 0 01.287 1.6v.007a3.791 3.791 0 01-.325 1.641 2.3 2.3 0 01-.949 1.039 3.355 3.355 0 01-3 0zm2.519-1.4a1.726 1.726 0 00.358-1.169v-.005a1.972 1.972 0 00-.375-1.288 1.316 1.316 0 00-1.074-.455 1.133 1.133 0 00-.964.458 2.131 2.131 0 00-.341 1.292v.007a1.7 1.7 0 00.359 1.166 1.475 1.475 0 002.037 0zM86.805 49.331a2.866 2.866 0 01-.72-2.078v-4.519a2.843 2.843 0 115.674 0v4.519a2.852 2.852 0 01-.725 2.081 3.379 3.379 0 01-4.229 0zm3.207-.967a1.593 1.593 0 00.352-1.111v-4.519a1.6 1.6 0 00-.349-1.11 1.738 1.738 0 00-2.187 0 1.6 1.6 0 00-.349 1.11v4.519a1.593 1.593 0 00.352 1.111 1.733 1.733 0 002.181 0z"/><path class="cls-9" d="M41.325 52.169l1.462-1.462" id="LINE-187" data-name="LINE"/><path class="cls-9" d="M42.787 53.63l-1.462-1.461" id="LINE-188" data-name="LINE"/><path class="cls-9" d="M105.966 52.169l-1.461 1.462" id="LINE-189" data-name="LINE"/><path class="cls-9" d="M104.505 50.708l1.461 1.461" id="LINE-190" data-name="LINE"/><path class="cls-9" d="M106.077 177.48H63.619" id="LINE-191" data-name="LINE"/><path d="M76.053 175.285h-1.395v-8.422l-1.415.868v-1.442l1.415-.944h1.395zM80.708 175.285h-1.394v-8.422l-1.415.868v-1.442l1.415-.944h1.394zM84.7 175.387l-.635-.3a2.516 2.516 0 01-1.023-.882 3.178 3.178 0 01-.488-1.391h1.422a1.5 1.5 0 00.266.7 1.241 1.241 0 00.531.407 1.987 1.987 0 00.761.133 1.485 1.485 0 001.074-.369 1.375 1.375 0 00.382-1.039v-.3a1.676 1.676 0 00-.362-1.151 1.3 1.3 0 00-1.025-.407h-.7v-1.326h.7a1.167 1.167 0 00.9-.349 1.4 1.4 0 00.321-.984v-.308a1.191 1.191 0 00-.338-.909 1.334 1.334 0 00-.96-.321 1.456 1.456 0 00-.636.133 1.207 1.207 0 00-.475.41 1.87 1.87 0 00-.284.694h-1.413a3.632 3.632 0 01.516-1.395 2.534 2.534 0 01.961-.882 2.864 2.864 0 011.333-.3 2.757 2.757 0 011.989.676 2.521 2.521 0 01.7 1.908v.164a2.156 2.156 0 01-.4 1.3 2.276 2.276 0 01-1.142.806 2.023 2.023 0 011.261.8 2.645 2.645 0 01.448 1.586v.164a3.051 3.051 0 01-.335 1.483 2.209 2.209 0 01-.975.937 3.4 3.4 0 01-1.541.321zM91.088 174.642a2.865 2.865 0 01-.721-2.078v-4.519a2.852 2.852 0 01.725-2.081 3.391 3.391 0 014.229 0 2.863 2.863 0 01.72 2.085v4.519a2.856 2.856 0 01-.724 2.082 3.38 3.38 0 01-4.229 0zm3.207-.967a1.593 1.593 0 00.352-1.111v-4.519a1.6 1.6 0 00-.349-1.11 1.738 1.738 0 00-2.187 0 1.6 1.6 0 00-.349 1.11v4.519a1.593 1.593 0 00.352 1.111 1.733 1.733 0 002.181 0z"/><path class="cls-9" d="M63.619 177.48l1.462-1.461" id="LINE-192" data-name="LINE"/><path class="cls-9" d="M65.081 178.941l-1.462-1.461" id="LINE-193" data-name="LINE"/><path class="cls-9" d="M105.966 177.481l-1.461 1.461" id="LINE-194" data-name="LINE"/><path class="cls-9" d="M104.505 176.019l1.461 1.462" id="LINE-195" data-name="LINE"/><path class="cls-9" d="M104.68 295.572v21.257" id="LINE-196" data-name="LINE"/></g></svg>