<svg xmlns="http://www.w3.org/2000/svg" width="536.326" height="99.11mm" viewBox="0 0 402.245 280.942"><defs><pattern id="Новый_узор_3" data-name="Новый узор 3" width="35.15" height="35.15" patternUnits="userSpaceOnUse"><path class="cls-1" d="M0 0h35.15v35.15H0z"/><path class="cls-2" d="M35.149 35.15h35.15V70.3h-35.15z"/><path class="cls-2" d="M0 35.15h35.15V70.3H0zM-35.15 35.15H0V70.3h-35.15z"/><path class="cls-2" d="M35.149.001h35.15v35.15h-35.15z"/><path class="cls-2" d="M0 .001h35.15v35.15H0zM-35.15.001H0v35.15h-35.15zM35.149-35.149h35.15V.001h-35.15z"/><path class="cls-2" d="M0-35.149h35.15V.001H0zM-35.15-35.149H0V.001h-35.15z"/></pattern><pattern id="Новый_узор_4" data-name="Новый узор 4" width="9.822" height="9.822" patternUnits="userSpaceOnUse"><path class="cls-1" d="M0 0h9.822v9.822H0z"/><path class="cls-3" d="M14.733 19.647L9.82 14.735l4.913-4.913 4.912 4.913-4.912 4.912z"/><path class="cls-3" d="M4.911 19.647l-4.913-4.912 4.913-4.913 4.912 4.913-4.912 4.912z"/><path class="cls-3" d="M-4.912 19.647l-4.912-4.912 4.912-4.913 4.913 4.913-4.913 4.912zM14.733 9.825L9.82 4.912 14.733 0l4.912 4.912-4.912 4.913z"/><path class="cls-3" d="M4.911 9.825L-.002 4.912 4.911 0l4.912 4.912-4.912 4.913z"/><path class="cls-3" d="M-4.912 9.825l-4.912-4.913L-4.912 0 .001 4.912l-4.913 4.913zM14.733.003L9.82-4.91l4.913-4.912 4.912 4.912L14.733.003z"/><path class="cls-3" d="M4.911.003L-.002-4.91l4.913-4.912L9.823-4.91 4.911.003z"/><path class="cls-3" d="M-4.912.003L-9.824-4.91l4.912-4.912L.001-4.91-4.912.003z"/></pattern><pattern id="Новый_узор_5" data-name="Новый узор 5" width="22.872" height="23.072" patternUnits="userSpaceOnUse"><path class="cls-1" d="M0 0h22.872v23.072H0z"/><path class="cls-4" d="M22.664 17.512v11.12H.208v-11.12h22.456m.108-.108H.1V28.74h22.672V17.4zM22.664 5.976V17.1H.208V5.976h22.456m.108-.108H.1V17.2h22.672V5.868zM22.664-5.56V5.56H.208V-5.56h22.456m.108-.108H.1V5.668h22.672V-5.668z"/></pattern><style>.cls-1,.cls-11,.cls-13,.cls-2,.cls-3,.cls-4,.cls-9{fill:none}.cls-2{stroke:#ededed}.cls-11,.cls-2,.cls-3,.cls-9{stroke-linecap:round;stroke-linejoin:round;stroke-width:.4px}.cls-3,.cls-4{stroke:#e6e6e6}.cls-10,.cls-11,.cls-3,.cls-5{fill-rule:evenodd}.cls-4{stroke-miterlimit:10;stroke-width:.2px}.cls-5{fill:#fff}.cls-11,.cls-9{stroke:#000}.cls-13{stroke:gray;stroke-width:.6px;stroke-miterlimit:22.926}</style></defs><g id="_3" data-name="3"><path class="cls-5" d="M39.586.283v43.348L24.017 78.214a43.8 43.8 0 0015.569 3.2v199.243h331V.283z" id="fon"/><g id="grid"><path stroke="#dcdcdc" fill="url(#Новый_узор_3)" stroke-width=".4" stroke-linecap="round" stroke-linejoin="round" d="M39.161.2h331.197v280.375H39.161z" id="grid-2" data-name="grid"/></g><g id="wet_zones" data-name="wet zones" fill-rule="evenodd"><path fill="url(#Новый_узор_4)" d="M56.771 94.183v29.662h15.681v17.098h61.592v-46.76H56.771z"/><path fill="url(#Новый_узор_5)" d="M48.49 151.995v87.287h15.649v14.737h50.634V151.995H48.49z"/></g><g id="walls"><path class="cls-9" d="M363.217 24.278h-15.492M370.775 24.278h-5.668M365.107 24.278h-1.89M363.217 90.404h-15.492M370.775 90.404h-5.668M365.107 90.404h-1.89M370.775 90.404V24.278M347.725 90.404V24.278M363.217 90.404v-3.779M363.217 86.625h1.891M365.107 86.625v3.779M365.107 52.618v1.89M365.107 54.507h-1.89M363.217 54.507v-1.89M364.162 86.625V54.507M363.217 86.625V54.507M365.107 54.507v32.118M363.217 52.618v-.944M363.217 51.673h.944M364.162 51.673v-.945M364.162 50.729h.945M365.107 50.729v1.889M365.107 24.278v3.779M365.107 28.057h-.945M364.162 28.057v-.944M364.162 27.112h-.944M363.217 27.112v-2.834M365.107 28.057v22.672M362.273 48.839V29.945M362.273 51.673v-2.834M362.273 48.839h1.889M364.162 48.839v2.834M364.162 51.673h-1.889M364.162 27.112v2.833M364.162 29.946h-1.889M362.273 29.946v-2.833M362.273 27.112h1.889M364.162 29.946V48.84M362.273 48.839V29.945M363.217 48.839V29.945M365.107 90.404h-1.89M365.107 90.404h-1.89M370.775 90.404h-5.668M363.217 90.404h-15.492M365.107 24.278h-1.89M365.107 24.278h-1.89M370.775 24.278h-5.668M363.217 24.278h-15.492M370.775 90.404h-23.05M363.217 247.217h-15.492M370.775 247.217h-5.668M365.107 247.217h-1.89M363.217 164.087h-15.492M370.775 164.087h-5.668M365.107 164.087h-1.89M370.775 164.087v83.13M347.725 164.087v83.13M363.217 164.087v3.778M363.217 167.866h1.891M365.107 167.866v-3.778M365.107 218.877v-1.89M365.107 216.988h-1.89M363.217 216.988v1.89M364.162 167.866v49.122M363.217 167.866v49.122M365.107 216.988v-49.122M363.217 218.877v.946M363.217 219.822h.944M364.162 219.822v.945M364.162 220.767h.945M365.107 220.767v-1.89M365.107 247.217v-3.778M365.107 243.439h-.945M364.162 243.439v.944M364.162 244.383h-.944M363.217 244.383v2.834M365.107 243.439v-22.672M362.273 222.656v18.893M362.273 219.822v2.834M362.273 222.656h1.889M364.162 222.656v-2.834M364.162 219.822h-1.889M364.162 244.383v-2.834M364.162 241.549h-1.889M362.273 241.549v2.834M362.273 244.383h1.889M364.162 241.549v-18.893M362.273 222.656v18.893M363.217 222.656v18.893M365.107 164.087h-1.89M365.107 164.087h-1.89M370.775 164.087h-5.668M363.217 164.087h-15.492M365.107 247.217h-1.89M365.107 247.217h-1.89M370.775 247.217h-5.668M363.217 247.217h-15.492M370.775 247.217h-23.05M178.393 164.554A35.319 35.319 0 00180.974 152"/><path class="cls-10" d="M178.354 164.655l.6-1.388-29.418-12.782h-.453v1.511l29.271 12.659zM23.926 78.157l1.381.613 15.782-36.355v-.454h-1.511L23.926 78.157z"/><path class="cls-11" d="M102.613 80.1a30.7 30.7 0 00-2.275 11.062"/><path class="cls-10" d="M102.648 80.001l-.515 1.424 25.864 11.247h.453l.001-1.513-25.803-11.158z"/><path class="cls-11" d="M103.706 192.548a30.609 30.609 0 0111.067-2.276"/><path class="cls-10" d="M103.614 192.582l11.159 25.804h1.51v-.454l-11.282-25.95-1.387.6z"/><path d="M370.775 280.658h-23.05v-33.441h23.05v33.441zm-331.2 0V82.468h0V81.41h1.511v-.453h7.558v60.081h-.154V152h.157c0 42.887-.157 85.974-.157 128.663zM347.725.283h23.05v23.994h-23.05V.283zM48.647 9.73v32.685h-7.558v-.454h-1.511V40.9h0V.283h9.069V9.73zM347.725 90.4h23.05v73.684h-23.05V152H214.45v-10.962h133.275z" stroke-width=".5" stroke="#000" fill-rule="evenodd" stroke-linecap="round" stroke-linejoin="round"/><path class="cls-11" d="M24.017 78.214a43.321 43.321 0 0015.569 3.2"/></g><g id="wall_2" data-name="wall 2"><path class="cls-5" d="M48.647.283V9.73h11.337v20.782H48.647v3.024h14.358V9.73h71.038v23.806h3.023V9.73h210.659V.283zm80.862 90.877h7.558v49.878h12.469v9.447h-.453V152H117.8v38.732h-1.514v-.453h-1.51V152H48.49v-10.962h20.939v-14.171H48.647v-3.022h5.1V94.183h-5.1v-3.024h51.691v1.512h.454v1.511H56.771v29.662h15.681V141.037h61.593V94.183H128v-1.511h.453V91.16h1.059zM48.49 280.658v-10.2h12.626V242.3H48.647v-3.022h15.492v14.737h50.634v-35.629h1.51v-.454h1.517v52.524h73.3v-71.8h3.022v71.8h153.6v10.2zm66.283-10.2v-13.417H64.139v13.415zm99.677-129.42V152h-33.476v-1.51h-.453v-9.447z"/><path class="cls-13" d="M55.17.363l-6.52 5.74M62.59.363l-10.72 9.45M70.02.363l-10.73 9.45M63.01 13.073l-3.03 2.67M77.44.363l-10.73 9.45M63.01 19.613l-3.03 2.67M50.55 30.593l-1.9 1.67M84.87.363l-10.73 9.45M57.97 30.593l-3.44 3.03M63.01 26.153l-3.03 2.67M92.29.363l-10.73 9.45M63.01 32.693l-1.05.93M99.71.363l-10.73 9.45M107.13.363L96.4 9.813M114.55.363l-10.73 9.45M121.97.363l-10.72 9.45M129.4.363l-10.73 9.45M136.82.363l-10.73 9.45M144.24.363l-10.72 9.45M137.07 13.213l-3.03 2.67M151.66.363l-10.73 9.45M137.07 19.753l-3.03 2.67M55.92 91.243l-3.43 3.02M159.08.363l-10.72 9.45M137.07 26.293l-3.03 2.67M63.34 91.243l-3.42 3.02M56.77 97.033l-3.02 2.66M166.51.363l-10.73 9.45M56.77 103.573l-3.02 2.66M70.77 91.243l-3.43 3.02M137.07 32.833l-.89.79M173.93.363l-10.73 9.45M56.77 110.113l-3.02 2.66M78.19 91.243l-3.43 3.02M181.35.363l-10.72 9.45M56.77 116.653l-3.02 2.66M85.61 91.243l-3.43 3.02M188.78.363l-10.73 9.45M56.77 123.183l-4.28 3.77M93.03 91.243l-3.43 3.02M196.19.363l-10.73 9.45M63.35 123.923l-3.43 3.03M100.34 91.343l-3.32 2.92M203.62.363l-10.73 9.45M70.78 123.923l-3.44 3.03M51.25 141.123l-2.76 2.43M211.04.363l-10.73 9.45M72.45 128.993l-3.02 2.66M58.68 141.123l-10.19 8.97M218.46.363l-10.72 9.45M72.45 135.533l-3.02 2.66M66.1 141.123l-12.44 10.96M225.89.363l-10.73 9.45M73.52 141.123l-12.44 10.96M128.43 92.753l-.43.38M130.15 91.243l-1.7 1.49M233.31.363l-10.73 9.45M80.95 141.123l-12.44 10.96M137.07 91.683l-3.03 2.67M240.73.363l-10.72 9.45M88.36 141.123l-12.44 10.96M137.07 98.213l-3.03 2.67M248.15.363l-10.73 9.45M95.79 141.123l-12.44 10.96M137.07 104.753l-3.03 2.67M255.57.363l-10.72 9.45M103.21 141.123l-12.44 10.96M137.07 111.293l-3.03 2.67M263 .363l-10.73 9.45M110.63 141.123l-12.44 10.96M137.07 117.833l-3.03 2.67M270.42.363l-10.73 9.45M118.06 141.123l-12.45 10.96M137.07 124.373l-3.03 2.67M277.84.363l-10.72 9.45M125.48 141.123l-12.44 10.96M137.07 130.913l-3.03 2.67M285.27.363l-10.73 9.45M132.9 141.123l-12.45 10.96M117.8 154.423l-3.03 2.67M137.07 137.443l-3.03 2.67M292.68.363l-10.73 9.45M117.8 160.963l-3.03 2.67M140.32 141.123l-12.44 10.96M300.11.363l-10.73 9.45M117.8 167.503l-3.03 2.67M147.74 141.123l-12.44 10.96M307.53.363l-10.73 9.45M117.8 174.043l-3.03 2.67M149.54 146.083l-6.81 6M314.95.363l-10.72 9.45M117.8 180.583l-3.03 2.66M51.07 239.363l-2.42 2.13M322.38.363l-10.73 9.45M58.49 239.363l-3.43 3.02M117.8 187.123l-3.03 2.66M329.8.363l-10.73 9.45M64.14 240.933l-3.02 2.66M337.22.363l-10.72 9.45M64.14 247.463l-3.02 2.66M344.64.363l-10.73 9.45M347.72 4.183l-6.39 5.63M64.14 254.003l-3.02 2.66M192.28 141.123l-11.31 9.96M71.45 254.103l-3.43 3.02M52.79 270.543l-4.3 3.78M64.14 260.543l-3.02 2.66M199.7 141.123l-12.44 10.96M78.87 254.103l-3.43 3.02M64.14 267.083l-3.02 2.66M60.21 270.543l-11.58 10.2M207.12 141.123l-12.44 10.96M117.8 226.353l-3.03 2.66M67.63 270.543l-11.58 10.2M214.45 141.203l-12.35 10.88M214.45 147.743l-4.92 4.34M75.06 270.543l-11.58 10.2M117.8 232.893l-3.03 2.66M82.47 270.543l-11.58 10.2M117.8 239.423l-3.03 2.67M108.56 254.103l-3.43 3.02M89.9 270.543l-11.58 10.2M117.8 245.963l-3.03 2.67M97.32 270.543l-11.58 10.2M117.8 252.503l-5.25 4.62M104.74 270.543l-11.58 10.2M117.8 259.043l-3.03 2.67M193.67 198.743l-2.57 2.26M112.16 270.543l-11.57 10.2M117.8 265.583l-3.03 2.66M119.59 270.543l-11.58 10.2M194.12 204.883l-3.02 2.66M127 270.543l-11.58 10.2M194.12 211.423l-3.02 2.66M134.43 270.543l-11.58 10.2M194.12 217.963l-3.02 2.66M141.85 270.543l-11.58 10.2M194.12 224.503l-3.02 2.66M149.28 270.543l-11.58 10.2M194.12 231.043l-3.02 2.66M156.7 270.543l-11.58 10.2M194.12 237.583l-3.02 2.66M164.12 270.543l-11.58 10.2M194.12 244.113l-3.02 2.66M171.55 270.543l-11.58 10.2M194.12 250.653l-3.02 2.66M178.96 270.543l-11.58 10.2M194.12 257.193l-3.02 2.66M186.38 270.543l-11.57 10.2M194.12 263.733l-3.02 2.66M194.12 270.273l-11.89 10.47M201.23 270.543l-11.58 10.2M208.65 270.543l-11.57 10.2M216.08 270.543l-11.58 10.2M223.49 270.543l-11.58 10.2M230.92 270.543l-11.58 10.2M238.34 270.543l-11.58 10.2M245.76 270.543l-11.57 10.2M253.19 270.543l-11.58 10.2M260.61 270.543l-11.58 10.2M268.04 270.543l-11.58 10.2M275.45 270.543l-11.58 10.2M282.87 270.543l-11.58 10.2M290.3 270.543l-11.58 10.2M297.72 270.543l-11.58 10.2M305.14 270.543l-11.57 10.2M312.57 270.543l-11.58 10.2M319.98 270.543l-11.58 10.2M327.41 270.543l-11.58 10.2M334.83 270.543l-11.58 10.2M342.25 270.543l-11.57 10.2M347.72 272.263l-9.62 8.48M347.72 278.803l-2.2 1.94"/><path d="M184.85 141.123l-4.33 3.82v5.62h.45v1.52h33.48v-10.96zm9.27 129.42v-71.8h-3.02v71.8h-73.3v-50.73l-3.03 2.67V254.1h-13.64l-3.43 3.02h17.07v13.42H64.14v-13.42h18.73l3.42-3.02H64.14v-14.74H48.65v3.02h12.47v28.16H48.49v10.2h299.23v-10.2zm-57.05-129.42v-49.88h-8.62v1.51H128v1.51h6.04v46.86H72.45v-17.2H56.77v-29.66h44.02v-1.51h-.45v-1.51H48.65v3.02h5.1v29.66h-5.1v3.03h20.78v14.17H48.49v10.96h66.28v38.27h1.51v.46h1.52v-38.73h31.28v-1.52h.46v-9.44zM48.65.363v9.45h11.33v20.78H48.65v3.03h14.36V9.813h71.03v23.81h3.03V9.813h210.65V.363z" fill-rule="evenodd" fill="none"/><path d="M48.647.283V9.73h11.337v20.782H48.647v3.024h14.358V9.73h71.038v23.806h3.023V9.73h210.659V.283zm80.862 90.877h7.558v49.878h12.469v9.447h-.453V152H117.8v38.732h-1.514v-.453h-1.51V152H48.49v-10.962h20.939v-14.171H48.647v-3.022h5.1V94.183h-5.1v-3.024h51.691v1.512h.454v1.511H56.771v29.662h15.681v3.022h0v14.171h61.593V94.183H128v-1.511h.453V91.16h1.059zM48.49 280.658v-10.2h12.626V242.3H48.647v-3.022h15.492v14.737h50.634v-35.629h1.51v-.454h1.517v52.524h73.3v-71.8h3.022v71.8h153.6v10.2zm66.283-10.2v-13.417H64.139v13.415zm99.677-129.42V152h-33.476v-1.51h-.453v-9.447z" stroke-width=".567" stroke-miterlimit="22.926" stroke="#000" fill-rule="evenodd" fill="none"/></g></g><g id="sizes"><path class="cls-9" d="M383.96 9.335h-14.664" id="LINE"/><path class="cls-9" d="M383.96 24.278h-14.664" id="LINE-2" data-name="LINE"/><path class="cls-9" d="M383.959 90.403H359.82" id="LINE-3" data-name="LINE"/><path class="cls-9" d="M384.022 164.088h-24.14" id="LINE-4" data-name="LINE"/><path class="cls-9" d="M384.022 247.217h-24.14" id="LINE-5" data-name="LINE"/><path class="cls-9" d="M384.022 270.585h-13.437" id="LINE-6" data-name="LINE"/><path d="M398.8 65.958v1.395h-8.422l.868 1.415H389.8l-.944-1.415v-1.395zM390.1 58.568l8.695 2.571v1.483l-8.613-2.57v2.529h1.428v1.395h-2.755v-5.408zM398.8 54.255v1.394h-8.422l.868 1.415H389.8l-.944-1.415v-1.394zM398.156 51.278a2.861 2.861 0 01-2.078.721h-4.518a2.848 2.848 0 01-2.081-.725 3.386 3.386 0 010-4.228 2.858 2.858 0 012.085-.721h4.518a2.558 2.558 0 012.823 2.837 2.812 2.812 0 01-.749 2.116zm-.967-3.207a1.594 1.594 0 00-1.111-.351h-4.518a1.6 1.6 0 00-1.111.348 1.743 1.743 0 000 2.188 1.605 1.605 0 001.111.349h4.518a1.594 1.594 0 001.111-.352 1.735 1.735 0 000-2.182zM398.9 23.824l-.3.636a2.5 2.5 0 01-.882 1.022 3.2 3.2 0 01-1.391.489v-1.422a1.5 1.5 0 00.7-.267 1.232 1.232 0 00.407-.53 1.992 1.992 0 00.133-.762 1.483 1.483 0 00-.37-1.073 1.374 1.374 0 00-1.039-.383h-.3a1.672 1.672 0 00-1.152.363 1.3 1.3 0 00-.407 1.025v.7h-1.326v-.7a1.16 1.16 0 00-.348-.9 1.4 1.4 0 00-.984-.322h-.309a1.191 1.191 0 00-.908.339 1.335 1.335 0 00-.322.96 1.477 1.477 0 00.133.636 1.207 1.207 0 00.411.474 1.863 1.863 0 00.694.285v1.415a3.626 3.626 0 01-1.395-.516 2.534 2.534 0 01-.882-.961 2.855 2.855 0 01-.3-1.333 2.753 2.753 0 01.678-1.989 2.516 2.516 0 011.906-.7h.164a2.152 2.152 0 011.3.4 2.272 2.272 0 01.806 1.142 2.024 2.024 0 01.8-1.261A2.643 2.643 0 01396 20.14h.164a3.057 3.057 0 011.483.335 2.212 2.212 0 01.937.974 3.4 3.4 0 01.32 1.541zM396.065 18.294l-7.2-3.336v-1.436l7.117 3.254V11.9h1.291v6.392zm-3.111-4.286v-1.361h5.852v1.361zM398.157 9.473a2.866 2.866 0 01-2.078.72h-4.519a2.853 2.853 0 01-2.081-.724 2.82 2.82 0 01-.742-2.113 2.828 2.828 0 01.739-2.116 2.859 2.859 0 012.084-.72h4.519a2.853 2.853 0 012.081.724 2.822 2.822 0 01.741 2.112 2.82 2.82 0 01-.744 2.117zm-.968-3.207a1.587 1.587 0 00-1.11-.352h-4.519a1.6 1.6 0 00-1.111.349 1.4 1.4 0 00-.386 1.093 1.4 1.4 0 00.386 1.094 1.6 1.6 0 001.111.349h4.519a1.587 1.587 0 001.11-.352 1.408 1.408 0 00.386-1.091 1.407 1.407 0 00-.386-1.09z"/><path class="cls-9" d="M384.03 164.088l-.077-73.685" id="LINE-7" data-name="LINE"/><path d="M398.8 135.64v1.394h-8.422l.867 1.415H389.8l-.944-1.415v-1.394zM393.864 129.863l.246.007a1.022 1.022 0 01.461.516 2.077 2.077 0 01.147.817 2.189 2.189 0 01-.362 1.251 2.374 2.374 0 01-1.022.838 3.706 3.706 0 01-1.528.3h-.006a3.828 3.828 0 01-1.649-.324 2.3 2.3 0 01-1.039-.951 3 3 0 01-.355-1.5 2.926 2.926 0 01.363-1.5 2.318 2.318 0 011.053-.946 3.867 3.867 0 011.66-.325h.008a5.191 5.191 0 011.138.137 6.9 6.9 0 011.2.389c.058.028.119.055.18.082s.122.057.181.089l4.26 2.119v1.5zM393 129.8a1.954 1.954 0 00-1.252-.359h-.006a1.857 1.857 0 00-1.217.359 1.419 1.419 0 000 2.037 1.856 1.856 0 001.223.359h.008a1.924 1.924 0 001.247-.359 1.4 1.4 0 000-2.037zM390.1 121.065l8.7 2.571v1.483l-8.613-2.57v2.529h1.427v1.395h-2.754v-5.408zM398.157 118.431a2.866 2.866 0 01-2.078.72h-4.519a2.853 2.853 0 01-2.081-.724 3.389 3.389 0 010-4.229 2.859 2.859 0 012.084-.72h4.519a2.853 2.853 0 012.081.724 3.382 3.382 0 010 4.229zm-.968-3.207a1.587 1.587 0 00-1.11-.352h-4.519a1.6 1.6 0 00-1.111.349 1.742 1.742 0 000 2.187 1.6 1.6 0 001.111.349h4.519a1.587 1.587 0 001.11-.352 1.733 1.733 0 000-2.181zM397.589 219.267l-4.621-3.466a3.439 3.439 0 00-.823-.468 2.185 2.185 0 00-.8-.168h-.014a1.206 1.206 0 00-.924.349 1.388 1.388 0 00-.328.991 1.368 1.368 0 00.359.984 1.631 1.631 0 001.016.458h.006v1.443h-.006a3.726 3.726 0 01-1.46-.5 2.562 2.562 0 01-.923-.982 2.923 2.923 0 01-.318-1.387 3.442 3.442 0 01.305-1.518 2.145 2.145 0 01.884-.957 2.813 2.813 0 011.4-.328 3.089 3.089 0 011.1.219 4.673 4.673 0 011.107.608l3.911 2.878v-3.76h1.34v5.606zM397.589 212.034l-4.621-3.466a3.435 3.435 0 00-.823-.467 2.165 2.165 0 00-.8-.168h-.014a1.209 1.209 0 00-.924.348 1.391 1.391 0 00-.328.991 1.369 1.369 0 00.359.985 1.637 1.637 0 001.016.458h.006v1.442h-.006a3.726 3.726 0 01-1.46-.5 2.566 2.566 0 01-.923-.981 2.927 2.927 0 01-.318-1.388 3.437 3.437 0 01.305-1.517 2.14 2.14 0 01.884-.957 2.813 2.813 0 011.4-.329 3.111 3.111 0 011.1.219 4.713 4.713 0 011.107.609l3.911 2.878v-3.76h1.34v5.6zM398.157 203.931a2.866 2.866 0 01-2.078.72h-4.519a2.853 2.853 0 01-2.081-.724 3.389 3.389 0 010-4.229 2.859 2.859 0 012.084-.72h4.519a2.853 2.853 0 012.081.724 3.382 3.382 0 010 4.229zm-.968-3.207a1.587 1.587 0 00-1.11-.352h-4.519a1.6 1.6 0 00-1.111.349 1.742 1.742 0 000 2.187 1.6 1.6 0 001.111.349h4.519a1.587 1.587 0 001.11-.352 1.733 1.733 0 000-2.181zM398.157 196.206a2.862 2.862 0 01-2.078.721h-4.519a2.849 2.849 0 01-2.081-.725 3.388 3.388 0 010-4.228 2.855 2.855 0 012.084-.721h4.519a2.849 2.849 0 012.081.725 3.381 3.381 0 010 4.228zm-.968-3.206a1.592 1.592 0 00-1.11-.352h-4.519a1.605 1.605 0 00-1.111.349 1.743 1.743 0 000 2.188 1.6 1.6 0 001.111.348h4.519a1.591 1.591 0 001.11-.351 1.735 1.735 0 000-2.182z"/><path class="cls-9" d="M383.96 24.278l-1.461-1.461" id="LINE-8" data-name="LINE"/><path class="cls-9" d="M385.42 22.815l-1.461 1.462" id="LINE-9" data-name="LINE"/><path class="cls-9" d="M383.951 24.246l1.462 1.461" id="LINE-10" data-name="LINE"/><path class="cls-9" d="M382.492 25.709l1.461-1.461" id="LINE-11" data-name="LINE"/><path class="cls-9" d="M383.959 9.335l1.461.903" id="LINE-12" data-name="LINE"/><path class="cls-9" d="M382.499 10.239l1.461-.903" id="LINE-13" data-name="LINE"/><path class="cls-9" d="M384.022 90.403l-.062-66.006" id="LINE-14" data-name="LINE"/><path class="cls-9" d="M383.96 24.331V9.335"/><path d="M398.362 268.389a2.282 2.282 0 01-1.025.947 3.716 3.716 0 01-1.623.324h-.008a5.545 5.545 0 01-1.162-.13 6.751 6.751 0 01-1.195-.376 2.018 2.018 0 01-.2-.089l-.194-.095-4.279-2.16v-1.5l4.955 2.536-.246-.007a1.192 1.192 0 01-.5-.5 1.579 1.579 0 01-.178-.766 2.434 2.434 0 01.348-1.326 2.182 2.182 0 011.015-.841 4.052 4.052 0 011.6-.287h.006a3.8 3.8 0 011.64.325 2.287 2.287 0 011.039.95 3.351 3.351 0 010 3zm-1.4-2.52a1.725 1.725 0 00-1.168-.358h-.008a1.968 1.968 0 00-1.288.376 1.311 1.311 0 00-.454 1.073 1.133 1.133 0 00.457.964 2.134 2.134 0 001.293.342h.006a1.7 1.7 0 001.166-.36 1.475 1.475 0 000-2.037zM398.714 260.534l-.3.636a2.5 2.5 0 01-.882 1.022 3.187 3.187 0 01-1.39.489v-1.422a1.5 1.5 0 00.7-.267 1.23 1.23 0 00.406-.53 1.992 1.992 0 00.133-.762 1.483 1.483 0 00-.369-1.073 1.376 1.376 0 00-1.039-.383h-.3a1.674 1.674 0 00-1.151.362 1.3 1.3 0 00-.408 1.026v.7h-1.334v-.7a1.163 1.163 0 00-.347-.9 1.4 1.4 0 00-.985-.322h-.308a1.192 1.192 0 00-.909.339 1.339 1.339 0 00-.322.96 1.462 1.462 0 00.134.636 1.212 1.212 0 00.41.474 1.87 1.87 0 00.694.285v1.415a3.621 3.621 0 01-1.394-.516 2.528 2.528 0 01-.883-.961 2.867 2.867 0 01-.3-1.333 2.758 2.758 0 01.678-1.989 2.516 2.516 0 011.906-.7h.164a2.145 2.145 0 011.3.4 2.274 2.274 0 01.807 1.142 2.024 2.024 0 01.8-1.261 2.643 2.643 0 011.586-.448h.164a3.05 3.05 0 011.482.335 2.214 2.214 0 01.938.974 3.416 3.416 0 01.32 1.541zM398.421 253.428a2.416 2.416 0 01-.856.951 3.4 3.4 0 01-1.345.488h-.008v-1.394h.008a1.293 1.293 0 00.85-.438 1.419 1.419 0 00.3-.943 1.258 1.258 0 00-.447-1.035 1.944 1.944 0 00-1.262-.367h-.834a1.932 1.932 0 00-1.254.367 1.258 1.258 0 00-.447 1.035 1.316 1.316 0 00.2.7 1.953 1.953 0 00.574.588v1.271h-5.236v-5.065H390v3.671h2.234a2.015 2.015 0 01-.328-.581 1.925 1.925 0 01-.115-.656 2.876 2.876 0 01.356-1.474 2.279 2.279 0 011.039-.93 3.888 3.888 0 011.646-.317h.834a3.778 3.778 0 011.648.328 2.324 2.324 0 011.042.957 2.993 2.993 0 01.359 1.511 2.944 2.944 0 01-.294 1.333z"/><path class="cls-9" d="M383.96 270.585l-1.461-1.461" id="LINE-15" data-name="LINE"/><path class="cls-9" d="M385.42 269.122l-1.461 1.461" id="LINE-16" data-name="LINE"/><path class="cls-9" d="M383.959 247.217l1.461 1.462" id="LINE-17" data-name="LINE"/><path class="cls-9" d="M382.499 248.68l1.461-1.461" id="LINE-18" data-name="LINE"/><path class="cls-9" d="M384.023 270.585l-.063-8.669" id="LINE-19" data-name="LINE"/><path class="cls-9" d="M383.96 261.849v-14.632"/><path class="cls-9" d="M383.96 90.403l1.461 1.461" id="LINE-20" data-name="LINE"/><path class="cls-9" d="M382.499 91.864l1.461-1.461" id="LINE-21" data-name="LINE"/><path class="cls-9" d="M384.022 90.404l-1.461-1.461" id="LINE-22" data-name="LINE"/><path class="cls-9" d="M385.483 88.943l-1.461 1.461" id="LINE-23" data-name="LINE"/><path class="cls-9" d="M383.951 164.087l1.462 1.462" id="LINE-24" data-name="LINE"/><path class="cls-9" d="M382.492 165.55l1.461-1.461" id="LINE-25" data-name="LINE"/><path class="cls-9" d="M384.022 247.217l-.062-82.978" id="LINE-26" data-name="LINE"/><path class="cls-9" d="M384.022 247.261l-1.461-1.461" id="LINE-27" data-name="LINE"/><path class="cls-9" d="M385.483 245.8l-1.461 1.461" id="LINE-28" data-name="LINE"/><path class="cls-9" d="M384.022 164.087l-1.461-1.461" id="LINE-29" data-name="LINE"/><path class="cls-9" d="M385.483 162.626l-1.461 1.461" id="LINE-30" data-name="LINE"/><path class="cls-9" d="M323.242 151.995v118.461" id="LINE-31" data-name="LINE"/><path d="M320.774 221.828l-.3.636a2.492 2.492 0 01-.882 1.022 3.2 3.2 0 01-1.391.489v-1.422a1.507 1.507 0 00.7-.267 1.244 1.244 0 00.406-.53 1.992 1.992 0 00.134-.762 1.479 1.479 0 00-.37-1.073 1.376 1.376 0 00-1.039-.383h-.3a1.681 1.681 0 00-1.153.362 1.306 1.306 0 00-.406 1.026v.7h-1.326v-.7a1.164 1.164 0 00-.349-.9 1.4 1.4 0 00-.984-.321h-.314a1.188 1.188 0 00-.909.339 1.334 1.334 0 00-.321.96 1.462 1.462 0 00.133.636 1.2 1.2 0 00.41.474 1.863 1.863 0 00.694.285v1.415a3.615 3.615 0 01-1.394-.516 2.518 2.518 0 01-.882-.961 2.843 2.843 0 01-.3-1.333 2.751 2.751 0 01.677-1.989 2.519 2.519 0 011.907-.7h.164a2.148 2.148 0 011.3.4 2.278 2.278 0 01.806 1.142 2.023 2.023 0 01.8-1.261 2.645 2.645 0 011.586-.448h.164a3.061 3.061 0 011.484.335 2.21 2.21 0 01.936.974 3.4 3.4 0 01.321 1.541zM320.672 213.762v1.394h-8.422l.868 1.415h-1.442l-.944-1.415v-1.394zM311.977 206.372l8.7 2.57v1.484l-8.613-2.57v2.529h1.428v1.394h-2.755v-5.407zM320.48 203.019a2.418 2.418 0 01-.854.951 3.41 3.41 0 01-1.347.488h-.007v-1.394h.007a1.293 1.293 0 00.851-.438 1.416 1.416 0 00.305-.943 1.261 1.261 0 00-.449-1.036 1.938 1.938 0 00-1.26-.366h-.834a1.933 1.933 0 00-1.255.366 1.264 1.264 0 00-.448 1.036 1.318 1.318 0 00.206.7 1.941 1.941 0 00.574.588v1.271h-5.237v-5.065h1.327v3.671h2.235a1.947 1.947 0 01-.328-.581 1.9 1.9 0 01-.116-.657 2.885 2.885 0 01.355-1.473 2.279 2.279 0 011.039-.93 3.9 3.9 0 011.648-.317h.834a3.777 3.777 0 011.647.328 2.329 2.329 0 011.042.957 3 3 0 01.359 1.511 2.931 2.931 0 01-.294 1.333z"/><path class="cls-9" d="M323.242 270.456l-1.462-1.462" id="LINE-32" data-name="LINE"/><path class="cls-9" d="M324.703 268.994l-1.461 1.462" id="LINE-33" data-name="LINE"/><path class="cls-9" d="M323.242 151.995l1.461 1.462" id="LINE-34" data-name="LINE"/><path class="cls-9" d="M321.781 153.457l1.461-1.462" id="LINE-35" data-name="LINE"/><path class="cls-9" d="M323.242 10.012v130.764" id="LINE-36" data-name="LINE"/><path d="M320.774 87.884l-.3.636a2.5 2.5 0 01-.882 1.022 3.182 3.182 0 01-1.391.488v-1.422a1.507 1.507 0 00.7-.266 1.25 1.25 0 00.406-.53 1.992 1.992 0 00.134-.762 1.477 1.477 0 00-.37-1.073 1.376 1.376 0 00-1.039-.383h-.3a1.681 1.681 0 00-1.153.362 1.3 1.3 0 00-.406 1.025v.705h-1.326v-.705a1.163 1.163 0 00-.349-.9 1.4 1.4 0 00-.984-.321h-.314a1.188 1.188 0 00-.909.339 1.333 1.333 0 00-.321.96 1.454 1.454 0 00.133.635 1.2 1.2 0 00.41.475 1.846 1.846 0 00.694.284v1.415a3.615 3.615 0 01-1.394-.515 2.525 2.525 0 01-.882-.961 2.843 2.843 0 01-.3-1.333 2.754 2.754 0 01.677-1.99 2.522 2.522 0 011.907-.7h.164a2.148 2.148 0 011.3.4 2.275 2.275 0 01.806 1.141 2.023 2.023 0 01.8-1.261 2.652 2.652 0 011.586-.448h.164a3.072 3.072 0 011.484.335 2.218 2.218 0 01.936.975 3.4 3.4 0 01.321 1.541zM317.938 82.354l-7.2-3.336v-1.436l7.116 3.254v-4.874h1.292v6.392zm-3.111-4.287v-1.36h5.852v1.36zM315.736 70.732l.246.007a1.026 1.026 0 01.461.516 2.059 2.059 0 01.148.817 2.2 2.2 0 01-.362 1.251 2.375 2.375 0 01-1.023.838 3.7 3.7 0 01-1.527.3h-.007a3.82 3.82 0 01-1.648-.324 2.288 2.288 0 01-1.039-.951 2.986 2.986 0 01-.355-1.5 2.922 2.922 0 01.362-1.5 2.32 2.32 0 011.053-.947 3.869 3.869 0 011.661-.325h.007a5.191 5.191 0 011.138.137 7.077 7.077 0 011.2.389c.058.028.119.055.18.082s.123.057.182.089l4.259 2.12v1.5zm-.861-.065a1.953 1.953 0 00-1.251-.358h-.007a1.859 1.859 0 00-1.217.358 1.421 1.421 0 000 2.037 1.859 1.859 0 001.224.36h.007a1.924 1.924 0 001.247-.36 1.393 1.393 0 000-2.037zM320.48 65.629a2.412 2.412 0 01-.854.951 3.41 3.41 0 01-1.347.488h-.007v-1.394h.007a1.288 1.288 0 00.851-.438 1.414 1.414 0 00.305-.943 1.259 1.259 0 00-.449-1.035 1.938 1.938 0 00-1.26-.366h-.834a1.933 1.933 0 00-1.255.366 1.261 1.261 0 00-.448 1.035 1.315 1.315 0 00.206.7 1.941 1.941 0 00.574.588v1.269h-5.237v-5.066h1.327v3.671h2.235a1.947 1.947 0 01-.328-.581 1.9 1.9 0 01-.116-.656 2.888 2.888 0 01.355-1.474 2.279 2.279 0 011.039-.93 3.913 3.913 0 011.648-.317h.834a3.777 3.777 0 011.647.328 2.329 2.329 0 011.042.957 3 3 0 01.359 1.511 2.931 2.931 0 01-.294 1.336z"/><path class="cls-9" d="M323.242 140.776l-1.462-1.461" id="LINE-37" data-name="LINE"/><path class="cls-9" d="M324.703 139.315l-1.461 1.461" id="LINE-38" data-name="LINE"/><path class="cls-9" d="M323.242 9.867l1.461 1.462" id="LINE-39" data-name="LINE"/><path class="cls-9" d="M321.781 11.329l1.461-1.462" id="LINE-40" data-name="LINE"/><path class="cls-9" d="M347.725 28.423h-210.52" id="LINE-41" data-name="LINE"/><path d="M229.854 26.037a2.409 2.409 0 01-.952-.855 3.4 3.4 0 01-.488-1.347v-.006h1.4v.006a1.292 1.292 0 00.437.852 1.42 1.42 0 00.943.3 1.264 1.264 0 001.036-.448 1.941 1.941 0 00.366-1.261v-.834a1.933 1.933 0 00-.366-1.255 1.263 1.263 0 00-1.036-.447 1.316 1.316 0 00-.7.205 1.953 1.953 0 00-.588.574h-1.271v-5.232h5.065v1.326h-3.671v2.235a2 2 0 01.581-.328 1.9 1.9 0 01.657-.116 2.885 2.885 0 011.473.355 2.284 2.284 0 01.93 1.039 3.9 3.9 0 01.317 1.648v.834a3.773 3.773 0 01-.328 1.647 2.331 2.331 0 01-.957 1.043 3 3 0 01-1.511.359 2.937 2.937 0 01-1.337-.294zM237.476 26.037a2.416 2.416 0 01-.952-.855 3.4 3.4 0 01-.488-1.347v-.006h1.4v.006a1.292 1.292 0 00.437.852 1.421 1.421 0 00.944.3 1.261 1.261 0 001.035-.448 1.941 1.941 0 00.366-1.261v-.834a1.933 1.933 0 00-.366-1.255 1.261 1.261 0 00-1.035-.447 1.317 1.317 0 00-.7.205 1.953 1.953 0 00-.588.574h-1.271v-5.232h5.065v1.326h-3.671v2.235a2 2 0 01.581-.328 1.9 1.9 0 01.657-.116 2.885 2.885 0 011.473.355 2.284 2.284 0 01.93 1.039 3.9 3.9 0 01.317 1.648v.834a3.773 3.773 0 01-.328 1.647 2.326 2.326 0 01-.957 1.043 3 3 0 01-1.51.359 2.941 2.941 0 01-1.339-.294zM244.725 25.979a2.292 2.292 0 01-.948-1.026 3.731 3.731 0 01-.324-1.623v-.007a5.537 5.537 0 01.13-1.162 6.771 6.771 0 01.376-1.2c.027-.068.057-.135.089-.2s.063-.131.1-.2l2.16-4.279h1.5l-2.537 4.956.007-.246a1.2 1.2 0 01.5-.5 1.579 1.579 0 01.766-.178 2.44 2.44 0 011.326.348 2.179 2.179 0 01.841 1.016 4.044 4.044 0 01.287 1.6v.022a3.785 3.785 0 01-.325 1.641 2.29 2.29 0 01-.949 1.039 3.351 3.351 0 01-3 0zm2.519-1.4a1.728 1.728 0 00.359-1.169v-.007a1.969 1.969 0 00-.376-1.289 1.316 1.316 0 00-1.074-.454 1.131 1.131 0 00-.964.458 2.131 2.131 0 00-.341 1.292v.006a1.7 1.7 0 00.359 1.166 1.474 1.474 0 002.037 0zM251.563 25.585a2.865 2.865 0 01-.72-2.078v-4.518a2.856 2.856 0 01.724-2.082 3.393 3.393 0 014.229 0 2.862 2.862 0 01.721 2.085v4.518a2.856 2.856 0 01-.725 2.082 3.377 3.377 0 01-4.229 0zm3.208-.967a1.6 1.6 0 00.351-1.111v-4.518a1.6 1.6 0 00-.349-1.111 1.742 1.742 0 00-2.187 0 1.605 1.605 0 00-.349 1.111v4.518a1.591 1.591 0 00.352 1.111 1.735 1.735 0 002.182 0z"/><path class="cls-9" d="M137.205 28.423l1.462-1.461" id="LINE-42" data-name="LINE"/><path class="cls-9" d="M138.667 29.884l-1.462-1.461" id="LINE-43" data-name="LINE"/><path class="cls-9" d="M347.725 28.424l-1.461 1.461" id="LINE-44" data-name="LINE"/><path class="cls-9" d="M346.264 26.963l1.461 1.461" id="LINE-45" data-name="LINE"/><path class="cls-9" d="M347.725 262.282H194.124" id="LINE-46" data-name="LINE"/><path d="M257.95 257.353l3.336-7.2h1.436l-3.254 7.116h4.874v1.292h-6.392zm4.286-3.11h1.364v5.851h-1.361zM268.108 260.087h-1.394v-8.421l-1.415.868v-1.443l1.415-.943h1.394zM271.085 259.445a2.864 2.864 0 01-.721-2.078v-4.519a2.843 2.843 0 115.674 0v4.519a2.559 2.559 0 01-2.837 2.823 2.816 2.816 0 01-2.116-.745zm3.207-.967a1.6 1.6 0 00.352-1.111v-4.519a1.607 1.607 0 00-.349-1.111 1.743 1.743 0 00-2.188 0 1.607 1.607 0 00-.348 1.111v4.519a1.6 1.6 0 00.351 1.111 1.735 1.735 0 002.182 0zM278.81 259.445a2.864 2.864 0 01-.721-2.078v-4.519a2.843 2.843 0 115.674 0v4.519a2.852 2.852 0 01-.725 2.081 3.377 3.377 0 01-4.228 0zm3.207-.967a1.6 1.6 0 00.351-1.111v-4.519a1.607 1.607 0 00-.348-1.111 1.743 1.743 0 00-2.188 0 1.607 1.607 0 00-.349 1.111v4.519a1.6 1.6 0 00.352 1.111 1.735 1.735 0 002.182 0z"/><path class="cls-9" d="M194.124 262.282l1.461-1.461" id="LINE-47" data-name="LINE"/><path class="cls-9" d="M195.585 263.744l-1.461-1.462" id="LINE-48" data-name="LINE"/><path class="cls-9" d="M347.725 262.283l-1.461 1.461" id="LINE-49" data-name="LINE"/><path class="cls-9" d="M346.264 260.822l1.461 1.461" id="LINE-50" data-name="LINE"/><path class="cls-9" d="M347.725 166.343H117.904" id="LINE-51" data-name="LINE"/><path d="M219.7 164.405a2.285 2.285 0 01-.947-1.026 3.7 3.7 0 01-.324-1.623v-.007a5.608 5.608 0 01.129-1.162 6.761 6.761 0 01.376-1.2 3.344 3.344 0 01.188-.395l2.16-4.279h1.5l-2.535 4.956.006-.246a1.2 1.2 0 01.5-.5 1.572 1.572 0 01.765-.178 2.44 2.44 0 011.327.349 2.173 2.173 0 01.839 1.015 4.025 4.025 0 01.288 1.6v.007a3.783 3.783 0 01-.325 1.64 2.285 2.285 0 01-.949 1.039 3.351 3.351 0 01-3 0zm2.52-1.4a1.728 1.728 0 00.357-1.169v-.007a1.972 1.972 0 00-.375-1.288 1.315 1.315 0 00-1.074-.455 1.132 1.132 0 00-.963.458 2.117 2.117 0 00-.342 1.292v.007a1.7 1.7 0 00.36 1.165 1.277 1.277 0 001.013.407 1.291 1.291 0 001.028-.408zM226.542 164.012a2.868 2.868 0 01-.721-2.078v-4.519a2.852 2.852 0 01.725-2.081 3.39 3.39 0 014.228 0 2.858 2.858 0 01.721 2.085v4.519a2.982 2.982 0 01-4.953 2.078zm3.207-.968a1.593 1.593 0 00.352-1.11v-4.519a1.607 1.607 0 00-.348-1.111 1.743 1.743 0 00-2.188 0 1.607 1.607 0 00-.349 1.111v4.519a1.593 1.593 0 00.351 1.11 1.731 1.731 0 002.182 0zM234.872 164.415a2.514 2.514 0 01-1.057-.967 2.79 2.79 0 01-.371-1.453v-.164a2.8 2.8 0 01.371-1.4 2.494 2.494 0 011-.991 2.184 2.184 0 01-.846-.831 2.241 2.241 0 01-.317-1.145v-.239a2.651 2.651 0 01.348-1.371 2.362 2.362 0 01.984-.916 3.519 3.519 0 012.954 0 2.362 2.362 0 01.984.916 2.652 2.652 0 01.35 1.371v.239a2.2 2.2 0 01-.327 1.155 2.159 2.159 0 01-.857.821 2.567 2.567 0 011.008.994 2.729 2.729 0 01.381 1.4V162a2.791 2.791 0 01-.373 1.453 2.491 2.491 0 01-1.057.967 3.848 3.848 0 01-3.172 0zm2.441-1.189a1.384 1.384 0 00.571-.537 1.544 1.544 0 00.2-.8v-.1a1.557 1.557 0 00-.2-.8 1.384 1.384 0 00-.571-.537 2.007 2.007 0 00-1.709 0 1.387 1.387 0 00-.572.54 1.6 1.6 0 00-.2.807v.1a1.545 1.545 0 00.2.793 1.371 1.371 0 00.572.53 2.021 2.021 0 001.709 0zm-.117-4.481a1.256 1.256 0 00.5-.516 1.644 1.644 0 00.178-.773v-.1a1.517 1.517 0 00-.178-.738 1.237 1.237 0 00-.5-.5 1.652 1.652 0 00-1.476 0 1.232 1.232 0 00-.5.5 1.509 1.509 0 00-.178.745v.1a1.582 1.582 0 00.178.762 1.256 1.256 0 00.5.513 1.6 1.6 0 001.476 0zM242.86 164.463a2.413 2.413 0 01-.951-.855 3.415 3.415 0 01-.488-1.346v-.007h1.394v.007a1.306 1.306 0 00.438.851 1.424 1.424 0 00.943.3 1.255 1.255 0 001.035-.448 1.934 1.934 0 00.368-1.261v-.834a1.923 1.923 0 00-.368-1.254 1.255 1.255 0 00-1.035-.448 1.322 1.322 0 00-.7.205 1.976 1.976 0 00-.588.574h-1.268v-5.236h5.066v1.326h-3.672v2.235a2 2 0 01.582-.328 1.917 1.917 0 01.656-.116 2.882 2.882 0 011.473.356 2.274 2.274 0 01.93 1.039 3.892 3.892 0 01.318 1.647v.834a3.778 3.778 0 01-.328 1.648 2.334 2.334 0 01-.957 1.042 3.01 3.01 0 01-1.512.359 2.934 2.934 0 01-1.336-.29z"/><path class="cls-9" d="M117.904 166.343l1.462-1.461" id="LINE-52" data-name="LINE"/><path class="cls-9" d="M119.366 167.804l-1.462-1.461" id="LINE-53" data-name="LINE"/><path class="cls-9" d="M347.725 166.344l-1.461 1.461" id="LINE-54" data-name="LINE"/><path class="cls-9" d="M346.264 164.883l1.461 1.461" id="LINE-55" data-name="LINE"/><path class="cls-9" d="M191.041 262.285h-73.229" id="LINE-56" data-name="LINE"/><path d="M144.453 260.09h-1.394v-8.422l-1.415.869v-1.443l1.415-.943h1.394zM150.229 255.155l-.006.246a1.031 1.031 0 01-.516.461 2.077 2.077 0 01-.817.147 2.189 2.189 0 01-1.251-.362 2.367 2.367 0 01-.838-1.022 3.706 3.706 0 01-.3-1.528v-.007a3.818 3.818 0 01.324-1.647 2.288 2.288 0 01.951-1.039 2.986 2.986 0 011.5-.356 2.923 2.923 0 011.5.363 2.323 2.323 0 01.947 1.052 3.891 3.891 0 01.325 1.662v.006a5.193 5.193 0 01-.137 1.139 6.955 6.955 0 01-.39 1.2l-.082.181a2.537 2.537 0 01-.088.182l-2.12 4.258h-1.5zm.066-.862a1.948 1.948 0 00.358-1.25v-.007a1.857 1.857 0 00-.358-1.217 1.419 1.419 0 00-2.037 0 1.858 1.858 0 00-.36 1.224v.006a1.925 1.925 0 00.36 1.248 1.392 1.392 0 002.037 0zM153.743 258.88l3.466-4.621a3.474 3.474 0 00.468-.823 2.19 2.19 0 00.168-.8v-.013a1.2 1.2 0 00-.349-.923 1.388 1.388 0 00-.991-.328 1.366 1.366 0 00-.984.358 1.629 1.629 0 00-.458 1.016v.006h-1.443v-.006a3.726 3.726 0 01.5-1.46 2.562 2.562 0 01.982-.923 2.923 2.923 0 011.387-.318 3.456 3.456 0 011.518.305 2.136 2.136 0 01.957.885 2.8 2.8 0 01.328 1.4v.007a3.088 3.088 0 01-.219 1.1 4.692 4.692 0 01-.608 1.107l-2.878 3.91h3.76v1.326h-5.606zM161.847 259.448a2.864 2.864 0 01-.721-2.078v-4.519a2.843 2.843 0 115.674 0v4.519a2.559 2.559 0 01-2.837 2.823 2.816 2.816 0 01-2.116-.745zm3.207-.967a1.6 1.6 0 00.351-1.111v-4.519a1.607 1.607 0 00-.348-1.111 1.743 1.743 0 00-2.188 0 1.607 1.607 0 00-.348 1.111v4.519a1.6 1.6 0 00.351 1.111 1.735 1.735 0 002.182 0z"/><path class="cls-9" d="M117.812 262.285l1.461-1.461" id="LINE-57" data-name="LINE"/><path class="cls-9" d="M119.273 263.747l-1.461-1.462" id="LINE-58" data-name="LINE"/><path class="cls-9" d="M191.114 262.286l-1.461 1.461" id="LINE-59" data-name="LINE"/><path class="cls-9" d="M189.653 260.825l1.461 1.461" id="LINE-60" data-name="LINE"/><path class="cls-9" d="M114.699 173.422H48.823" id="LINE-61" data-name="LINE"/><path d="M72.153 171.228h-1.394v-8.422l-1.415.868v-1.443l1.415-.943h1.394zM79.543 162.532l-2.57 8.7h-1.484l2.571-8.614h-2.53v1.429h-1.394v-2.755h5.407zM81.977 170.978a2.3 2.3 0 01-.948-1.025 3.721 3.721 0 01-.324-1.624v-.007a5.545 5.545 0 01.13-1.162 6.761 6.761 0 01.376-1.2c.027-.068.057-.136.089-.2s.063-.131.1-.195l2.16-4.279h1.5l-2.537 4.956.007-.242a1.212 1.212 0 01.5-.5 1.579 1.579 0 01.766-.178 2.441 2.441 0 011.326.349 2.176 2.176 0 01.841 1.015 4.047 4.047 0 01.287 1.6v.007a3.791 3.791 0 01-.325 1.641 2.3 2.3 0 01-.949 1.039 3.355 3.355 0 01-3 0zm2.519-1.4a1.726 1.726 0 00.358-1.169v-.009a1.972 1.972 0 00-.375-1.288 1.316 1.316 0 00-1.074-.455 1.133 1.133 0 00-.964.458 2.131 2.131 0 00-.341 1.292v.007a1.7 1.7 0 00.359 1.166 1.475 1.475 0 002.037 0zM88.815 170.585a2.866 2.866 0 01-.72-2.078v-4.519a2.843 2.843 0 115.674 0v4.519a2.852 2.852 0 01-.725 2.081 3.379 3.379 0 01-4.229 0zm3.207-.967a1.593 1.593 0 00.352-1.111v-4.519a1.6 1.6 0 00-.349-1.111 1.742 1.742 0 00-2.187 0 1.6 1.6 0 00-.349 1.111v4.519a1.593 1.593 0 00.352 1.111 1.733 1.733 0 002.181 0z"/><path class="cls-9" d="M48.823 173.422l1.461-1.461" id="LINE-62" data-name="LINE"/><path class="cls-9" d="M50.284 174.884l-1.461-1.462" id="LINE-63" data-name="LINE"/><path class="cls-9" d="M114.773 173.423l-1.461 1.461" id="LINE-64" data-name="LINE"/><path class="cls-9" d="M113.312 171.962l1.461 1.461" id="LINE-65" data-name="LINE"/><path class="cls-9" d="M114.699 248.751h-50.56" id="LINE-66" data-name="LINE"/><path d="M72.733 246.673h-1.394v-8.422l-1.415.868v-1.442l1.415-.944h1.394zM76.726 246.775l-.636-.3a2.5 2.5 0 01-1.023-.882 3.19 3.19 0 01-.488-1.391H76a1.5 1.5 0 00.267.7 1.23 1.23 0 00.53.406 1.992 1.992 0 00.762.134 1.479 1.479 0 001.073-.37 1.376 1.376 0 00.383-1.039v-.3a1.672 1.672 0 00-.363-1.152 1.3 1.3 0 00-1.025-.407h-.7v-1.326h.7a1.162 1.162 0 00.9-.349 1.4 1.4 0 00.322-.984v-.315a1.192 1.192 0 00-.339-.909 1.339 1.339 0 00-.96-.321 1.459 1.459 0 00-.636.133 1.215 1.215 0 00-.475.41 1.886 1.886 0 00-.284.694h-1.412a3.627 3.627 0 01.516-1.394 2.518 2.518 0 01.961-.882 2.852 2.852 0 011.333-.3 2.753 2.753 0 011.989.677 2.519 2.519 0 01.7 1.907v.164a2.152 2.152 0 01-.4 1.3 2.276 2.276 0 01-1.142.806 2.027 2.027 0 011.261.8 2.647 2.647 0 01.448 1.586v.164a3.058 3.058 0 01-.335 1.484 2.21 2.21 0 01-.974.936 3.4 3.4 0 01-1.541.321zM83.832 246.481a2.4 2.4 0 01-.951-.854 3.41 3.41 0 01-.488-1.347v-.007h1.394v.007a1.288 1.288 0 00.438.851 1.414 1.414 0 00.943.305 1.261 1.261 0 001.035-.448 1.943 1.943 0 00.366-1.261v-.834a1.933 1.933 0 00-.366-1.255 1.261 1.261 0 00-1.035-.448 1.315 1.315 0 00-.7.206 1.941 1.941 0 00-.588.574h-1.269v-5.237h5.066v1.327h-3.671v2.24a1.969 1.969 0 01.581-.328 1.9 1.9 0 01.656-.116 2.888 2.888 0 011.474.355 2.282 2.282 0 01.929 1.039 3.9 3.9 0 01.318 1.648v.834a3.791 3.791 0 01-.328 1.647 2.331 2.331 0 01-.957 1.043 3 3 0 01-1.511.358 2.931 2.931 0 01-1.336-.299zM90.735 246.03a2.865 2.865 0 01-.72-2.078v-4.518a2.856 2.856 0 01.724-2.082 3.389 3.389 0 014.229 0 2.861 2.861 0 01.72 2.085v4.518a2.856 2.856 0 01-.724 2.082 3.38 3.38 0 01-4.229 0zm3.207-.967a1.591 1.591 0 00.352-1.111v-4.518a1.6 1.6 0 00-.349-1.111 1.742 1.742 0 00-2.187 0 1.6 1.6 0 00-.349 1.111v4.518a1.591 1.591 0 00.352 1.111 1.733 1.733 0 002.181 0z"/><path class="cls-9" d="M64.139 248.868l1.461-1.461" id="LINE-67" data-name="LINE"/><path class="cls-9" d="M65.6 250.329l-1.461-1.461" id="LINE-68" data-name="LINE"/><path class="cls-9" d="M114.773 248.868l-1.461 1.462" id="LINE-69" data-name="LINE"/><path class="cls-9" d="M113.312 247.407l1.461 1.461" id="LINE-70" data-name="LINE"/><path class="cls-9" d="M101.583 152.117v101.902" id="LINE-71" data-name="LINE"/><path d="M97.8 218.774l-4.621-3.465a3.393 3.393 0 00-.824-.468 2.185 2.185 0 00-.8-.168h-.014a1.2 1.2 0 00-.923.349 1.388 1.388 0 00-.328.991 1.368 1.368 0 00.359.984 1.631 1.631 0 001.015.458h.007v1.445h-.007a3.742 3.742 0 01-1.459-.5 2.569 2.569 0 01-.923-.982 2.924 2.924 0 01-.318-1.388 3.454 3.454 0 01.3-1.517 2.141 2.141 0 01.885-.957 2.809 2.809 0 011.4-.328h.006a3.1 3.1 0 011.1.218 4.713 4.713 0 011.107.609l3.911 2.878v-3.76h1.326v5.6zM90.317 206.258l8.7 2.57v1.484l-8.617-2.571v2.53h1.429v1.394h-2.756v-5.407zM96.278 205.027l-7.2-3.336v-1.435l7.122 3.254v-4.874h1.292v6.391zm-3.11-4.286v-1.36h5.852v1.36zM97.8 197.077l-4.621-3.466a3.421 3.421 0 00-.824-.467 2.165 2.165 0 00-.8-.168h-.014a1.207 1.207 0 00-.923.348 1.391 1.391 0 00-.328.991 1.369 1.369 0 00.359.985 1.631 1.631 0 001.015.458h.007v1.442h-.007a3.727 3.727 0 01-1.459-.5 2.566 2.566 0 01-.923-.981 2.927 2.927 0 01-.318-1.388 3.451 3.451 0 01.3-1.517 2.136 2.136 0 01.885-.957 2.809 2.809 0 011.4-.329h.006a3.106 3.106 0 011.1.219 4.713 4.713 0 011.107.609l3.911 2.877v-3.759h1.326v5.6z"/><path class="cls-9" d="M101.583 254.019l-1.461-1.462" id="LINE-72" data-name="LINE"/><path class="cls-9" d="M103.044 252.557l-1.461 1.462" id="LINE-73" data-name="LINE"/><path class="cls-9" d="M101.584 151.995l1.461 1.462" id="LINE-74" data-name="LINE"/><path class="cls-9" d="M100.122 153.457l1.462-1.462" id="LINE-75" data-name="LINE"/><path class="cls-9" d="M51.393 152.117v87.165" id="LINE-76" data-name="LINE"/><path d="M62.929 209.816l-4.621-3.465a3.393 3.393 0 00-.824-.468 2.185 2.185 0 00-.8-.168h-.014a1.2 1.2 0 00-.923.349 1.388 1.388 0 00-.328.991 1.368 1.368 0 00.359.984 1.629 1.629 0 001.015.458h.007v1.442a3.742 3.742 0 01-1.459-.5 2.569 2.569 0 01-.923-.982 2.924 2.924 0 01-.318-1.388 3.454 3.454 0 01.3-1.517 2.141 2.141 0 01.885-.957 2.809 2.809 0 011.4-.328h.006a3.1 3.1 0 011.1.218 4.713 4.713 0 011.107.609l3.911 2.878v-3.76h1.326v5.6zM64.241 200.7l-.3.636a2.531 2.531 0 01-.882 1.023 3.212 3.212 0 01-1.392.488v-1.422a1.491 1.491 0 00.7-.267 1.227 1.227 0 00.408-.53 2.012 2.012 0 00.132-.762 1.483 1.483 0 00-.369-1.073 1.376 1.376 0 00-1.039-.383h-.3a1.671 1.671 0 00-1.151.363 1.3 1.3 0 00-.407 1.025v.7h-1.333v-.7a1.164 1.164 0 00-.349-.9 1.4 1.4 0 00-.984-.322h-.308a1.193 1.193 0 00-.909.339 1.339 1.339 0 00-.321.96 1.462 1.462 0 00.133.636 1.222 1.222 0 00.41.475 1.886 1.886 0 00.694.284v1.415a3.639 3.639 0 01-1.395-.516 2.55 2.55 0 01-.882-.961 2.867 2.867 0 01-.3-1.333 2.757 2.757 0 01.676-1.989 2.521 2.521 0 011.908-.7h.164a2.154 2.154 0 011.3.4 2.276 2.276 0 01.806 1.142 2.027 2.027 0 01.8-1.261 2.645 2.645 0 011.586-.448h.163a3.051 3.051 0 011.483.335 2.207 2.207 0 01.937.974 3.389 3.389 0 01.321 1.541zM63.947 193.591a2.4 2.4 0 01-.854.951 3.4 3.4 0 01-1.347.488h-.007v-1.394h.007a1.3 1.3 0 00.852-.438 1.418 1.418 0 00.3-.943 1.261 1.261 0 00-.447-1.035 1.944 1.944 0 00-1.262-.366h-.834a1.93 1.93 0 00-1.254.366 1.261 1.261 0 00-.448 1.035 1.323 1.323 0 00.2.7 1.945 1.945 0 00.575.588v1.272H54.2v-5.066h1.326v3.671h2.236a1.992 1.992 0 01-.328-.581 1.9 1.9 0 01-.117-.656 2.9 2.9 0 01.356-1.474 2.289 2.289 0 011.039-.93 3.9 3.9 0 011.647-.317h.834a3.775 3.775 0 011.648.328 2.326 2.326 0 011.043.957 3 3 0 01.358 1.511 2.918 2.918 0 01-.295 1.333zM63.5 186.688a2.865 2.865 0 01-2.078.72H56.9a2.855 2.855 0 01-2.081-.724 3.391 3.391 0 010-4.229 2.865 2.865 0 012.085-.721h4.519a2.854 2.854 0 012.082.725 3.38 3.38 0 010 4.229zm-.967-3.207a1.593 1.593 0 00-1.111-.352H56.9a1.6 1.6 0 00-1.11.349 1.738 1.738 0 000 2.187 1.6 1.6 0 001.11.349h4.519a1.593 1.593 0 001.111-.352 1.733 1.733 0 000-2.181z"/><path class="cls-9" d="M51.393 239.282l-1.461-1.461" id="LINE-77" data-name="LINE"/><path class="cls-9" d="M52.854 237.821l-1.461 1.461" id="LINE-78" data-name="LINE"/><path class="cls-9" d="M51.394 151.995l1.461 1.462" id="LINE-79" data-name="LINE"/><path class="cls-9" d="M49.933 153.457l1.461-1.462" id="LINE-80" data-name="LINE"/><path class="cls-9" d="M129.349 190.727h-11.552" id="LINE-81" data-name="LINE"/><path class="cls-9" d="M129.349 217.918h-11.552" id="LINE-82" data-name="LINE"/><path class="cls-9" d="M129.349 190.727l1.461 1.461" id="LINE-83" data-name="LINE"/><path class="cls-9" d="M127.887 192.188l1.462-1.461" id="LINE-84" data-name="LINE"/><path class="cls-9" d="M129.349 217.918v-27.191" id="LINE-85" data-name="LINE"/><path d="M141.579 213.633a2.494 2.494 0 01-.967 1.056 2.779 2.779 0 01-1.453.373H139a2.787 2.787 0 01-1.4-.373 2.489 2.489 0 01-.991-1 2.182 2.182 0 01-.831.845 2.241 2.241 0 01-1.145.317h-.239a2.645 2.645 0 01-1.37-.348 2.352 2.352 0 01-.916-.985 3.507 3.507 0 010-2.953 2.349 2.349 0 01.916-.984 2.646 2.646 0 011.37-.349h.239a2.2 2.2 0 011.155.326 2.145 2.145 0 01.821.857 2.569 2.569 0 011-1.008 2.722 2.722 0 011.4-.38h.164a2.788 2.788 0 011.453.372 2.5 2.5 0 01.967 1.057 3.848 3.848 0 010 3.172zm-5.67-2.324a1.254 1.254 0 00-.516-.5 1.618 1.618 0 00-.773-.178h-.1a1.5 1.5 0 00-.738.178 1.226 1.226 0 00-.5.5 1.644 1.644 0 000 1.476 1.226 1.226 0 00.5.5 1.523 1.523 0 00.745.178h.1a1.593 1.593 0 00.762-.178 1.258 1.258 0 00.513-.5 1.6 1.6 0 000-1.476zm4.481-.117a1.388 1.388 0 00-.536-.571 1.56 1.56 0 00-.8-.2h-.1a1.567 1.567 0 00-.8.2 1.39 1.39 0 00-.537.571 2.007 2.007 0 000 1.709 1.387 1.387 0 00.54.572 1.6 1.6 0 00.807.2h.1a1.542 1.542 0 00.793-.2 1.373 1.373 0 00.531-.572 1.861 1.861 0 00.187-.854 1.832 1.832 0 00-.185-.855zM141.176 206.363a2.862 2.862 0 01-2.078.721h-4.519a2.849 2.849 0 01-2.081-.725 3.39 3.39 0 010-4.228 2.859 2.859 0 012.085-.721h4.517a2.852 2.852 0 012.082.725 3.379 3.379 0 010 4.228zm-.967-3.207a1.6 1.6 0 00-1.111-.351h-4.519a1.6 1.6 0 00-1.11.348 1.74 1.74 0 000 2.188 1.6 1.6 0 001.11.348h4.521a1.6 1.6 0 001.111-.351 1.735 1.735 0 000-2.182zM141.176 198.639a2.866 2.866 0 01-2.078.72h-4.519a2.853 2.853 0 01-2.081-.724 3.391 3.391 0 010-4.229 2.863 2.863 0 012.085-.72h4.517a2.856 2.856 0 012.082.724 3.38 3.38 0 010 4.229zm-.967-3.207a1.593 1.593 0 00-1.111-.352h-4.519a1.6 1.6 0 00-1.11.349 1.738 1.738 0 000 2.187 1.6 1.6 0 001.11.349h4.521a1.593 1.593 0 001.111-.352 1.733 1.733 0 000-2.181z"/><path class="cls-9" d="M129.349 217.918l1.461-1.461" id="LINE-86" data-name="LINE"/><path class="cls-9" d="M127.887 216.457l1.462 1.461" id="LINE-87" data-name="LINE"/><path class="cls-9" d="M212.431 198.583h-18.307" id="LINE-88" data-name="LINE"/><path class="cls-9" d="M212.494 270.456l-.063-71.795" id="LINE-89" data-name="LINE"/><path d="M208.061 247.421l-4.622-3.466a3.46 3.46 0 00-.824-.468 2.181 2.181 0 00-.8-.168h-.013a1.208 1.208 0 00-.923.349 1.389 1.389 0 00-.328.991 1.37 1.37 0 00.358.985 1.631 1.631 0 001.016.458h.007v1.442h-.007a3.72 3.72 0 01-1.46-.5 2.559 2.559 0 01-.923-.981 2.929 2.929 0 01-.317-1.388 3.47 3.47 0 01.3-1.518 2.138 2.138 0 01.886-.957 2.813 2.813 0 011.4-.328h.007a3.088 3.088 0 011.1.219 4.708 4.708 0 011.107.608l3.91 2.878v-3.76h1.327v5.606zM209.271 237.639v1.394h-8.422l.868 1.415h-1.443l-.943-1.415v-1.394zM206.536 235.52l-7.2-3.336v-1.436l7.118 3.252v-4.874h1.292v6.392zm-3.11-4.287v-1.36h5.851v1.36zM209.079 225.98a2.418 2.418 0 01-.854.951 3.416 3.416 0 01-1.347.488h-.007v-1.4h.007a1.292 1.292 0 00.851-.437 1.415 1.415 0 00.3-.943 1.261 1.261 0 00-.448-1.036 1.941 1.941 0 00-1.261-.366h-.834a1.933 1.933 0 00-1.255.366 1.266 1.266 0 00-.447 1.036 1.316 1.316 0 00.2.7 1.964 1.964 0 00.574.588v1.273h-5.236v-5.065h1.326v3.671h2.236a1.972 1.972 0 01-.329-.581 1.9 1.9 0 01-.116-.657 2.875 2.875 0 01.356-1.473 2.279 2.279 0 011.039-.93 3.9 3.9 0 011.647-.317h.834a3.778 3.778 0 011.648.328 2.334 2.334 0 011.042.957 3 3 0 01.359 1.511 2.944 2.944 0 01-.285 1.336z"/><path class="cls-9" d="M212.431 198.583l1.461 1.461" id="LINE-90" data-name="LINE"/><path class="cls-9" d="M210.97 200.044l1.461-1.461" id="LINE-91" data-name="LINE"/><path class="cls-9" d="M212.493 270.456l-1.461-1.462" id="LINE-92" data-name="LINE"/><path class="cls-9" d="M213.954 268.994l-1.461 1.462" id="LINE-93" data-name="LINE"/><path class="cls-9" d="M149.536 121.073v21.623" id="LINE-94" data-name="LINE"/><path class="cls-9" d="M180.521 121.073v21.623" id="LINE-95" data-name="LINE"/><path class="cls-9" d="M180.521 121.072h-30.985" id="LINE-96" data-name="LINE"/><path d="M158.257 113.941l-.007.246a1.022 1.022 0 01-.516.461 2.059 2.059 0 01-.817.147 2.189 2.189 0 01-1.251-.362 2.374 2.374 0 01-.838-1.022 3.706 3.706 0 01-.3-1.528v-.007a3.836 3.836 0 01.324-1.647 2.29 2.29 0 01.952-1.039 2.986 2.986 0 011.5-.355 2.922 2.922 0 011.5.362 2.323 2.323 0 01.946 1.053 3.869 3.869 0 01.325 1.661v.007a5.191 5.191 0 01-.137 1.138 6.865 6.865 0 01-.389 1.2c-.028.059-.055.12-.082.182s-.057.122-.089.181l-2.119 4.258h-1.5zm.065-.861a1.947 1.947 0 00.359-1.251v-.007a1.852 1.852 0 00-.359-1.217 1.419 1.419 0 00-2.037 0 1.857 1.857 0 00-.359 1.224v.006a1.925 1.925 0 00.359 1.248 1.393 1.393 0 002.037 0zM162.642 118.234a2.864 2.864 0 01-.721-2.078v-4.519a2.843 2.843 0 115.674 0v4.519a2.559 2.559 0 01-2.837 2.823 2.812 2.812 0 01-2.116-.745zm3.207-.967a1.6 1.6 0 00.351-1.111v-4.519a1.607 1.607 0 00-.348-1.111 1.743 1.743 0 00-2.188 0 1.607 1.607 0 00-.349 1.111v4.519a1.6 1.6 0 00.352 1.111 1.735 1.735 0 002.182 0zM170.366 118.234a2.868 2.868 0 01-.72-2.078v-4.519a2.852 2.852 0 01.724-2.081 3.391 3.391 0 014.229 0 2.861 2.861 0 01.72 2.085v4.519a2.558 2.558 0 01-2.837 2.823 2.815 2.815 0 01-2.116-.749zm3.207-.967a1.593 1.593 0 00.352-1.111v-4.519a1.6 1.6 0 00-.349-1.111 1.742 1.742 0 00-2.187 0 1.6 1.6 0 00-.349 1.111v4.519a1.593 1.593 0 00.352 1.111 1.733 1.733 0 002.181 0z"/><path class="cls-9" d="M149.536 121.073l1.461-1.461" id="LINE-97" data-name="LINE"/><path class="cls-9" d="M150.997 122.534l-1.461-1.461" id="LINE-98" data-name="LINE"/><path class="cls-9" d="M180.521 121.073l-1.461 1.461" id="LINE-99" data-name="LINE"/><path class="cls-9" d="M179.06 119.612l1.461 1.461" id="LINE-100" data-name="LINE"/><path class="cls-9" d="M100.338 69.503v21.623" id="LINE-101" data-name="LINE"/><path class="cls-9" d="M128.451 69.503v21.623" id="LINE-102" data-name="LINE"/><path class="cls-9" d="M128.451 69.502h-28.113" id="LINE-103" data-name="LINE"/><path d="M105.084 67.067a2.5 2.5 0 01-1.057-.967 2.788 2.788 0 01-.372-1.453v-.164a2.8 2.8 0 01.372-1.4 2.5 2.5 0 011-.991 2.186 2.186 0 01-.844-.831 2.242 2.242 0 01-.318-1.145v-.239a2.652 2.652 0 01.349-1.371 2.368 2.368 0 01.984-.916 3.526 3.526 0 012.953 0 2.371 2.371 0 01.985.916 2.651 2.651 0 01.348 1.371v.239a2.2 2.2 0 01-.325 1.156 2.169 2.169 0 01-.857.82 2.573 2.573 0 011.008.994 2.731 2.731 0 01.38 1.4v.164a2.788 2.788 0 01-.372 1.453 2.508 2.508 0 01-1.057.967 3.848 3.848 0 01-3.172 0zm2.44-1.189a1.38 1.38 0 00.572-.537 1.561 1.561 0 00.2-.8v-.1a1.577 1.577 0 00-.2-.8 1.387 1.387 0 00-.572-.537 2.007 2.007 0 00-1.709 0 1.384 1.384 0 00-.571.54 1.59 1.59 0 00-.2.807v.1a1.538 1.538 0 00.2.793 1.366 1.366 0 00.571.529 1.856 1.856 0 00.855.188 1.837 1.837 0 00.854-.183zm-.116-4.481a1.254 1.254 0 00.5-.516 1.63 1.63 0 00.178-.773v-.095a1.51 1.51 0 00-.178-.739 1.226 1.226 0 00-.5-.495 1.652 1.652 0 00-1.476 0 1.226 1.226 0 00-.5.495 1.513 1.513 0 00-.178.746v.1a1.582 1.582 0 00.178.762 1.252 1.252 0 00.5.513 1.6 1.6 0 001.476 0zM112.354 66.664a2.861 2.861 0 01-.721-2.078v-4.519a2.853 2.853 0 01.724-2.081 3.391 3.391 0 014.229 0 2.863 2.863 0 01.721 2.085v4.519a2.856 2.856 0 01-.725 2.082 3.379 3.379 0 01-4.228 0zm3.207-.967a1.6 1.6 0 00.351-1.111v-4.519a1.6 1.6 0 00-.349-1.11 1.738 1.738 0 00-2.187 0 1.6 1.6 0 00-.349 1.11v4.519a1.6 1.6 0 00.352 1.111 1.735 1.735 0 002.182 0zM120.078 66.664a2.865 2.865 0 01-.721-2.078v-4.519a2.854 2.854 0 01.725-2.081 3.391 3.391 0 014.229 0 2.863 2.863 0 01.72 2.085v4.519a2.856 2.856 0 01-.724 2.082 3.38 3.38 0 01-4.229 0zm3.207-.967a1.593 1.593 0 00.352-1.111v-4.519a1.6 1.6 0 00-.349-1.11 1.738 1.738 0 00-2.187 0 1.6 1.6 0 00-.349 1.11v4.519a1.593 1.593 0 00.348 1.114 1.733 1.733 0 002.181 0z"/><path class="cls-9" d="M100.338 69.503l1.461-1.462" id="LINE-104" data-name="LINE"/><path class="cls-9" d="M101.799 70.964l-1.461-1.461" id="LINE-105" data-name="LINE"/><path class="cls-9" d="M128.451 69.503l-1.461 1.461" id="LINE-106" data-name="LINE"/><path class="cls-9" d="M126.99 68.041l1.461 1.462" id="LINE-107" data-name="LINE"/><path class="cls-9" d="M134.044 28.423H63.241" id="LINE-108" data-name="LINE"/><path d="M88.787 26.228h-1.394v-8.422l-1.415.868v-1.442l1.415-.943h1.394zM92.369 25.989a2.5 2.5 0 01-1.056-.967 2.781 2.781 0 01-.373-1.453v-.164a2.791 2.791 0 01.373-1.4 2.5 2.5 0 011-.991 2.179 2.179 0 01-.845-.83 2.244 2.244 0 01-.317-1.145V18.8a2.65 2.65 0 01.348-1.37 2.364 2.364 0 01.985-.916 3.516 3.516 0 012.953 0 2.362 2.362 0 01.984.916 2.651 2.651 0 01.349 1.37v.24a2.2 2.2 0 01-.326 1.155 2.149 2.149 0 01-.857.82 2.576 2.576 0 011.008 1 2.726 2.726 0 01.38 1.4v.164a2.79 2.79 0 01-.372 1.453 2.5 2.5 0 01-1.057.967 3.848 3.848 0 01-3.172 0zM94.81 24.8a1.382 1.382 0 00.571-.536 1.555 1.555 0 00.2-.8v-.1a1.568 1.568 0 00-.2-.8 1.382 1.382 0 00-.571-.536 2 2 0 00-1.709 0 1.368 1.368 0 00-.572.54 1.593 1.593 0 00-.2.806v.1a1.545 1.545 0 00.2.793 1.371 1.371 0 00.572.53 1.862 1.862 0 00.854.188 1.832 1.832 0 00.855-.185zm-.117-4.481a1.248 1.248 0 00.5-.516 1.617 1.617 0 00.178-.772v-.1a1.493 1.493 0 00-.178-.738 1.222 1.222 0 00-.5-.5 1.652 1.652 0 00-1.476 0 1.222 1.222 0 00-.5.5 1.517 1.517 0 00-.178.745v.1a1.6 1.6 0 00.178.763 1.25 1.25 0 00.5.512 1.587 1.587 0 001.476 0zM104.052 17.533l-2.571 8.7H100l2.57-8.613h-2.529v1.428h-1.396v-2.759h5.407zM106.687 25.585a2.861 2.861 0 01-.721-2.078v-4.518a2.856 2.856 0 01.724-2.082 3.393 3.393 0 014.229 0 2.862 2.862 0 01.721 2.085v4.518a2.856 2.856 0 01-.725 2.082 3.375 3.375 0 01-4.228 0zm3.207-.967a1.6 1.6 0 00.351-1.111v-4.518a1.6 1.6 0 00-.349-1.111 1.742 1.742 0 00-2.187 0 1.605 1.605 0 00-.349 1.111v4.518a1.6 1.6 0 00.352 1.111 1.735 1.735 0 002.182 0z"/><path class="cls-9" d="M63.241 28.423l1.461-1.461" id="LINE-109" data-name="LINE"/><path class="cls-9" d="M64.702 29.884l-1.461-1.461" id="LINE-110" data-name="LINE"/><path class="cls-9" d="M134.118 28.424l-1.461 1.461" id="LINE-111" data-name="LINE"/><path class="cls-9" d="M132.657 26.962l1.461 1.462" id="LINE-112" data-name="LINE"/><path class="cls-9" d="M134.044 98.588H56.771" id="LINE-113" data-name="LINE"/><path d="M82.613 110.463l3.466-4.621a3.439 3.439 0 00.468-.823 2.19 2.19 0 00.168-.8v-.013a1.2 1.2 0 00-.349-.923 1.388 1.388 0 00-.991-.328 1.368 1.368 0 00-.984.358 1.629 1.629 0 00-.458 1.016v.006H82.49v-.006a3.726 3.726 0 01.5-1.46 2.562 2.562 0 01.982-.923 2.923 2.923 0 011.387-.318 3.456 3.456 0 011.518.305 2.136 2.136 0 01.957.885 2.8 2.8 0 01.328 1.4v.007a3.088 3.088 0 01-.219 1.1 4.692 4.692 0 01-.608 1.107l-2.878 3.91h3.76v1.326h-5.604zM92.4 111.673H91v-8.422l-1.415.869v-1.443l1.415-.943h1.4zM95.372 111.031a2.868 2.868 0 01-.721-2.078v-4.519a2.852 2.852 0 01.725-2.081 3.39 3.39 0 014.228 0 2.858 2.858 0 01.721 2.085v4.519a2.558 2.558 0 01-2.837 2.823 2.819 2.819 0 01-2.116-.749zm3.207-.967a1.6 1.6 0 00.352-1.111v-4.519a1.607 1.607 0 00-.349-1.111 1.742 1.742 0 00-2.187 0 1.6 1.6 0 00-.349 1.111v4.519a1.6 1.6 0 00.351 1.111 1.735 1.735 0 002.182 0zM103.1 111.031a2.864 2.864 0 01-.721-2.078v-4.519a2.843 2.843 0 115.674 0v4.519a2.559 2.559 0 01-2.837 2.823 2.816 2.816 0 01-2.116-.745zm3.207-.967a1.6 1.6 0 00.351-1.111v-4.519a1.607 1.607 0 00-.348-1.111 1.743 1.743 0 00-2.188 0 1.607 1.607 0 00-.348 1.111v4.519a1.6 1.6 0 00.351 1.111 1.735 1.735 0 002.182 0z"/><path class="cls-9" d="M56.771 98.588l1.461-1.462" id="LINE-114" data-name="LINE"/><path class="cls-9" d="M58.232 100.049l-1.461-1.461" id="LINE-115" data-name="LINE"/><path class="cls-9" d="M134.118 98.588l-1.461 1.462" id="LINE-116" data-name="LINE"/><path class="cls-9" d="M132.657 97.127l1.461 1.461" id="LINE-117" data-name="LINE"/><path class="cls-9" d="M129.943 94.218v46.725" id="LINE-118" data-name="LINE"/><path d="M127.373 128.851v1.394h-8.422l.868 1.415h-1.442l-.943-1.415v-1.394zM126.163 126.745l-4.621-3.466a3.44 3.44 0 00-.824-.467 2.16 2.16 0 00-.8-.168h-.014a1.208 1.208 0 00-.923.348 1.4 1.4 0 00-.328.991 1.365 1.365 0 00.359.985 1.631 1.631 0 001.015.458h.007v1.442h-.007a3.731 3.731 0 01-1.46-.5 2.566 2.566 0 01-.923-.981 2.938 2.938 0 01-.317-1.388 3.463 3.463 0 01.3-1.517 2.14 2.14 0 01.886-.958 2.81 2.81 0 011.4-.328h.007a3.109 3.109 0 011.1.219 4.739 4.739 0 011.108.609l3.91 2.877v-3.761h1.326v5.605zM122.438 115.842l.246.007a1.029 1.029 0 01.461.515 2.082 2.082 0 01.147.818 2.2 2.2 0 01-.362 1.251 2.378 2.378 0 01-1.023.838 3.7 3.7 0 01-1.527.3h-.007a3.815 3.815 0 01-1.647-.324 2.283 2.283 0 01-1.039-.951 2.976 2.976 0 01-.356-1.5 2.922 2.922 0 01.362-1.5 2.318 2.318 0 011.053-.946 3.868 3.868 0 011.661-.326h.007a5.184 5.184 0 011.138.137 6.993 6.993 0 011.2.39l.181.082c.062.027.122.057.181.089l4.259 2.119v1.5zm-.862-.066a1.953 1.953 0 00-1.251-.358h-.007a1.854 1.854 0 00-1.216.358 1.42 1.42 0 000 2.038 1.854 1.854 0 001.223.359h.007a1.924 1.924 0 001.247-.359 1.392 1.392 0 000-2.038zM126.73 111.457a2.862 2.862 0 01-2.078.721h-4.518a2.843 2.843 0 110-5.674h4.518a2.848 2.848 0 012.081.725 3.374 3.374 0 010 4.228zm-.967-3.207a1.6 1.6 0 00-1.111-.352h-4.518a1.608 1.608 0 00-1.112.349 1.747 1.747 0 000 2.188 1.608 1.608 0 001.112.348h4.518a1.6 1.6 0 001.111-.351 1.735 1.735 0 000-2.182z"/><path class="cls-9" d="M129.943 140.943l-1.461-1.461" id="LINE-119" data-name="LINE"/><path class="cls-9" d="M131.404 139.482l-1.461 1.461" id="LINE-120" data-name="LINE"/><path class="cls-9" d="M129.943 94.392l1.462 1.462" id="LINE-121" data-name="LINE"/><path class="cls-9" d="M128.482 95.854l1.461-1.462" id="LINE-122" data-name="LINE"/><path class="cls-9" d="M76.78 9.773v81.353" id="LINE-123" data-name="LINE"/><path d="M73 68.549l-4.621-3.466a3.474 3.474 0 00-.823-.468 2.19 2.19 0 00-.8-.168h-.014a1.209 1.209 0 00-.923.349 1.392 1.392 0 00-.328.991 1.367 1.367 0 00.36.985 1.634 1.634 0 001.014.458h.007v1.442h-.007a3.732 3.732 0 01-1.459-.5 2.566 2.566 0 01-.923-.981 2.93 2.93 0 01-.318-1.388 3.456 3.456 0 01.3-1.518 2.139 2.139 0 01.884-.957 2.809 2.809 0 011.4-.328h.007a3.083 3.083 0 011.1.219 4.7 4.7 0 011.108.608l3.91 2.878v-3.76h1.336v5.606zM74.21 58.767v1.394h-8.422l.868 1.415h-1.442l-.943-1.415v-1.394zM74.21 54.111v1.4h-8.422l.868 1.415h-1.442l-.943-1.415v-1.4zM74.019 50.416a2.407 2.407 0 01-.855.951 3.415 3.415 0 01-1.347.489h-.006v-1.4h.006a1.291 1.291 0 00.852-.438 1.419 1.419 0 00.3-.943 1.261 1.261 0 00-.448-1.035 1.939 1.939 0 00-1.261-.366h-.83a1.93 1.93 0 00-1.254.366 1.259 1.259 0 00-.448 1.035 1.314 1.314 0 00.205.7 1.941 1.941 0 00.574.588v1.272h-5.236v-5.064H65.6v3.671h2.235a1.992 1.992 0 01-.328-.581 1.922 1.922 0 01-.116-.656 2.9 2.9 0 01.355-1.474 2.282 2.282 0 011.039-.929 3.9 3.9 0 011.648-.318h.834a3.788 3.788 0 011.647.328 2.326 2.326 0 011.043.957 3 3 0 01.359 1.511 2.931 2.931 0 01-.297 1.336z"/><path class="cls-9" d="M76.78 91.126l-1.461-1.461" id="LINE-124" data-name="LINE"/><path class="cls-9" d="M78.242 89.665l-1.462 1.461" id="LINE-125" data-name="LINE"/><path class="cls-9" d="M76.781 9.773l1.461 1.461" id="LINE-126" data-name="LINE"/><path class="cls-9" d="M75.32 11.234l1.461-1.461" id="LINE-127" data-name="LINE"/><path class="cls-9" d="M14.541 81.416h24.358" id="LINE-128" data-name="LINE"/><path class="cls-9" d="M14.541 42.42h25.045" id="LINE-129" data-name="LINE"/><path class="cls-9" d="M14.541 81.416l-1.461-1.461" id="LINE-130" data-name="LINE"/><path class="cls-9" d="M16.002 79.955l-1.461 1.461" id="LINE-131" data-name="LINE"/><path class="cls-9" d="M14.54 42.42v38.996" id="LINE-132" data-name="LINE"/><path d="M11.97 70.874v1.4H3.548l.868 1.415H2.974l-.944-1.42v-1.4zM11.97 66.219v1.394H3.548l.868 1.415H2.974l-.944-1.415v-1.394zM11.327 63.242a2.862 2.862 0 01-2.078.721H4.73a2.853 2.853 0 01-2.082-.725 3.39 3.39 0 010-4.228 2.855 2.855 0 012.084-.721h4.517a2.848 2.848 0 012.081.725 3.377 3.377 0 010 4.228zm-.968-3.207a1.593 1.593 0 00-1.11-.351H4.73a1.607 1.607 0 00-1.111.348 1.743 1.743 0 000 2.188 1.607 1.607 0 001.111.348h4.519a1.593 1.593 0 001.11-.351 1.731 1.731 0 000-2.182zM11.327 55.518a2.866 2.866 0 01-2.078.72H4.73a2.857 2.857 0 01-2.082-.724 3.391 3.391 0 010-4.229 2.859 2.859 0 012.084-.721h4.517a2.852 2.852 0 012.081.725 3.379 3.379 0 010 4.229zm-.968-3.207a1.589 1.589 0 00-1.11-.352H4.73a1.6 1.6 0 00-1.111.349 1.742 1.742 0 000 2.187 1.6 1.6 0 001.111.349h4.519a1.589 1.589 0 001.11-.352 1.73 1.73 0 000-2.181z"/><path class="cls-9" d="M14.541 42.42l-1.461 1.461" id="LINE-133" data-name="LINE"/><path class="cls-9" d="M16.002 43.881l-1.461-1.461" id="LINE-134" data-name="LINE"/><path class="cls-9" d="M192.273 151.996v46.587" id="LINE-135" data-name="LINE"/><path d="M204.76 192.012v1.394h-8.422l.868 1.415h-1.442l-.944-1.415v-1.394zM204.117 189.035a2.861 2.861 0 01-2.078.721h-4.518a2.852 2.852 0 01-2.082-.725 3.388 3.388 0 010-4.228 2.858 2.858 0 012.085-.721h4.518a2.558 2.558 0 012.823 2.837 2.812 2.812 0 01-.748 2.116zm-.967-3.207a1.6 1.6 0 00-1.111-.351h-4.518a1.6 1.6 0 00-1.111.348 1.74 1.74 0 000 2.188 1.6 1.6 0 001.111.348h4.518a1.6 1.6 0 001.111-.351 1.735 1.735 0 000-2.182zM204.862 180.363l-.3.636a2.523 2.523 0 01-.882 1.023 3.212 3.212 0 01-1.392.488v-1.422a1.491 1.491 0 00.7-.267 1.227 1.227 0 00.408-.53 1.993 1.993 0 00.132-.762 1.483 1.483 0 00-.369-1.073 1.374 1.374 0 00-1.039-.383h-.3a1.671 1.671 0 00-1.151.363 1.3 1.3 0 00-.407 1.025v.7h-1.326v-.7a1.161 1.161 0 00-.349-.9 1.4 1.4 0 00-.984-.322h-.308a1.193 1.193 0 00-.909.339 1.339 1.339 0 00-.321.96 1.477 1.477 0 00.133.636 1.217 1.217 0 00.411.475 1.881 1.881 0 00.693.284v1.415a3.639 3.639 0 01-1.395-.516 2.539 2.539 0 01-.881-.961 2.855 2.855 0 01-.3-1.333 2.753 2.753 0 01.677-1.989 2.517 2.517 0 011.907-.7h.164a2.152 2.152 0 011.3.4 2.276 2.276 0 01.806 1.142 2.027 2.027 0 01.8-1.261 2.645 2.645 0 011.586-.448h.164a3.051 3.051 0 011.483.335 2.207 2.207 0 01.937.974 3.389 3.389 0 01.321 1.541zM204.117 173.976a2.865 2.865 0 01-2.078.72h-4.518a2.856 2.856 0 01-2.082-.724 3.389 3.389 0 010-4.229 2.862 2.862 0 012.085-.721h4.518a2.558 2.558 0 012.823 2.837 2.816 2.816 0 01-.748 2.117zm-.967-3.207a1.591 1.591 0 00-1.111-.352h-4.518a1.6 1.6 0 00-1.111.349 1.738 1.738 0 000 2.187 1.6 1.6 0 001.111.349h4.518a1.591 1.591 0 001.111-.352 1.733 1.733 0 000-2.181z"/><path class="cls-9" d="M192.273 198.583l-1.462-1.461" id="LINE-136" data-name="LINE"/><path class="cls-9" d="M193.734 197.122l-1.461 1.461" id="LINE-137" data-name="LINE"/><path class="cls-9" d="M192.273 151.996l1.461 1.461" id="LINE-138" data-name="LINE"/><path class="cls-9" d="M190.812 153.457l1.461-1.461" id="LINE-139" data-name="LINE"/><path class="cls-9" d="M135.441 33.536V91.16" id="LINE-140" data-name="LINE"/><path d="M149.083 71.2v1.4h-8.422l.868 1.415h-1.442l-.943-1.415v-1.4zM148.892 67.505a2.407 2.407 0 01-.855.951 3.4 3.4 0 01-1.347.488h-.006V67.55h.006a1.291 1.291 0 00.852-.438 1.419 1.419 0 00.3-.943 1.261 1.261 0 00-.448-1.035 1.939 1.939 0 00-1.261-.366h-.833a1.93 1.93 0 00-1.254.366 1.259 1.259 0 00-.448 1.035 1.314 1.314 0 00.205.7 1.941 1.941 0 00.574.588v1.272h-5.236V63.66h1.326v3.671h2.235a1.992 1.992 0 01-.328-.581 1.926 1.926 0 01-.116-.656 2.9 2.9 0 01.355-1.474 2.294 2.294 0 011.039-.93 3.916 3.916 0 011.648-.317h.834a3.773 3.773 0 011.647.328 2.326 2.326 0 011.043.957 3 3 0 01.359 1.511 2.931 2.931 0 01-.291 1.336zM149.083 58.923v1.394h-8.422l.868 1.415h-1.442l-.943-1.415v-1.394zM148.892 55.228a2.413 2.413 0 01-.855.951 3.4 3.4 0 01-1.347.488h-.006v-1.4h.006a1.29 1.29 0 00.852-.437 1.42 1.42 0 00.3-.943 1.264 1.264 0 00-.448-1.036 1.939 1.939 0 00-1.261-.366h-.833a1.93 1.93 0 00-1.254.366 1.261 1.261 0 00-.448 1.036 1.316 1.316 0 00.205.7 1.941 1.941 0 00.574.588v1.271h-5.236v-5.063h1.326v3.671h2.235a1.992 1.992 0 01-.328-.581 1.927 1.927 0 01-.116-.657 2.9 2.9 0 01.355-1.473 2.294 2.294 0 011.039-.93 3.9 3.9 0 011.648-.313h.834a3.773 3.773 0 011.647.328 2.326 2.326 0 011.043.957 3 3 0 01.359 1.511 2.931 2.931 0 01-.291 1.332z"/><path class="cls-9" d="M135.441 91.159l-1.462-1.461" id="LINE-141" data-name="LINE"/><path class="cls-9" d="M136.902 89.698l-1.461 1.461" id="LINE-142" data-name="LINE"/><path class="cls-9" d="M135.441 33.536l1.462 1.461" id="LINE-143" data-name="LINE"/><path class="cls-9" d="M133.98 34.997l1.461-1.461" id="LINE-144" data-name="LINE"/></g></svg>