<svg xmlns="http://www.w3.org/2000/svg" width="474.603" height="523.718" viewBox="0 0 355.952 392.789"><defs><pattern id="Новый_узор_3" data-name="Новый узор 3" width="35.15" height="35.15" patternTransform="translate(-7.256 -21.209)" patternUnits="userSpaceOnUse"><path class="cls-1" d="M0 0h35.15v35.15H0z"/><path class="cls-2" d="M35.149 35.15h35.15V70.3h-35.15z"/><path class="cls-2" d="M0 35.15h35.15V70.3H0zM-35.15 35.15H0V70.3h-35.15z"/><path class="cls-2" d="M35.149.001h35.15v35.15h-35.15z"/><path class="cls-2" d="M0 .001h35.15v35.15H0zM-35.15.001H0v35.15h-35.15zM35.149-35.149h35.15V.001h-35.15z"/><path class="cls-2" d="M0-35.149h35.15V.001H0zM-35.15-35.149H0V.001h-35.15z"/></pattern><pattern id="Новый_узор_4" data-name="Новый узор 4" width="9.822" height="9.822" patternTransform="translate(-4.109 -8.736)" patternUnits="userSpaceOnUse"><path class="cls-1" d="M0 0h9.822v9.822H0z"/><path class="cls-3" d="M14.733 19.647L9.82 14.735l4.913-4.913 4.912 4.913-4.912 4.912z"/><path class="cls-3" d="M4.911 19.647l-4.913-4.912 4.913-4.913 4.912 4.913-4.912 4.912z"/><path class="cls-3" d="M-4.912 19.647l-4.912-4.912 4.912-4.913 4.913 4.913-4.913 4.912zM14.733 9.825L9.82 4.912 14.733 0l4.912 4.912-4.912 4.913z"/><path class="cls-3" d="M4.911 9.825L-.002 4.912 4.911 0l4.912 4.912-4.912 4.913z"/><path class="cls-3" d="M-4.912 9.825l-4.912-4.913L-4.912 0 .001 4.912l-4.913 4.913zM14.733.003L9.82-4.91l4.913-4.912 4.912 4.912L14.733.003z"/><path class="cls-3" d="M4.911.003L-.002-4.91l4.913-4.912L9.823-4.91 4.911.003z"/><path class="cls-3" d="M-4.912.003L-9.824-4.91l4.912-4.912L.001-4.91-4.912.003z"/></pattern><style>.cls-1,.cls-13,.cls-2,.cls-3,.cls-7,.cls-9{fill:none}.cls-2{stroke:#ededed}.cls-2,.cls-3,.cls-7,.cls-9{stroke-linecap:round;stroke-linejoin:round;stroke-width:.4px}.cls-3{stroke:#e6e6e6}.cls-3,.cls-4,.cls-8,.cls-9{fill-rule:evenodd}.cls-4{fill:#fff}.cls-7,.cls-9{stroke:#000}.cls-13{stroke:gray;stroke-width:.6px;stroke-miterlimit:22.926}</style></defs><g id="_146" data-name="146"><path id="fon" class="cls-4" d="M318.522 194.829a42.87 42.87 0 0015.024-2.954l-15.024-33.484V.284H74.234v138.109H32.763v120.916h41.471v133.2h175.14v-21.92h47.61v-23.616h21.538z"/><path id="grid" stroke="#dcdcdc" fill="url(#Новый_узор_3)" stroke-width=".4" stroke-linecap="round" stroke-linejoin="round" d="M318.522.284H74.234v138.109H32.763v120.916h41.471v133.196h175.14v-21.916h47.61v-23.616h21.538V.284z"/><path id="wet_zones" data-name="wet zones" fill="url(#Новый_узор_4)" fill-rule="evenodd" d="M309.453 37.503h-15.492V11.242h-49.877v119.971h60.752V94.749h4.617V37.503z"/><g id="walls"><path class="cls-7" d="M334.076 191.639a43.238 43.238 0 01-15.554 3.2"/><path class="cls-8" d="M334.18 191.601l-15.658-36.209h-1.512v.454l15.783 36.355 1.387-.6z"/><path class="cls-9" d="M205.361 111.321a34.223 34.223 0 00-2.54 12.336"/><path class="cls-8" d="M205.394 111.223l-.6 1.388 28.898 12.556h.453v-1.51l-28.751-12.434z"/><path class="cls-9" d="M275.511 120.15a33.122 33.122 0 012.278 11.064"/><path class="cls-8" d="M275.479 120.054l-25.804 11.159.001 1.512h.453l25.95-11.283-.6-1.388z"/><path class="cls-7" d="M81.791 285.759h15.492M74.234 285.759h5.668M79.902 285.759h1.89M81.791 351.886h15.492M74.234 351.886h5.668M79.902 351.886h1.89M74.234 351.886v-66.127M97.284 351.886v-66.127M81.791 351.886v-3.78M81.791 348.107h-1.89M79.902 348.107v3.779M79.902 314.099v1.889M79.902 315.988h1.89M81.791 315.988v-1.889M80.847 348.107v-32.118M81.791 348.107v-32.118M79.902 315.988v32.118M81.791 314.099v-.945M81.791 313.154h-.945M80.847 313.154v-.944M80.847 312.21h-.945M79.902 312.21v1.889M79.902 285.759v3.779M79.902 289.538h.945M80.847 289.538v-.945M80.847 288.593h.944M81.791 288.593v-2.834M79.902 289.538v22.672M82.736 310.32v-18.893M82.736 313.154v-2.834M82.736 310.32h-1.889M80.847 310.32v2.834M80.847 313.154h1.889M80.847 288.593v2.834M80.847 291.427h1.889M82.736 291.427v-2.834M82.736 288.593h-1.889M80.847 291.427v18.893M82.736 310.32v-18.893M81.791 310.32v-18.893M79.902 351.886h1.89M79.902 351.886h1.89M74.234 351.886h5.668M81.791 351.886h15.492M79.902 285.759h1.89M79.902 285.759h1.89M74.234 285.759h5.668M81.791 285.759h15.492M74.234 285.759h23.05M81.791 158.042h15.492M74.234 158.042h5.668M79.902 158.042h1.89M81.791 241.172h15.492M74.234 241.172h5.668M79.902 241.172h1.89M74.234 241.172v-83.129M97.284 241.172v-83.129M81.791 241.172v-3.779M81.791 237.393h-1.89M79.902 237.393v3.779M79.902 201.496v1.889M79.902 203.386h1.89M81.791 203.386v-1.889M80.847 237.393v-34.007M81.791 237.393v-34.007M79.902 203.386v34.007M81.791 201.496v-.945M81.791 200.551h-.945M80.847 200.551v-.945M80.847 199.607h-.945M79.902 199.607v1.89M79.902 158.042v3.778M79.902 161.82h.945M80.847 161.82v-.945M80.847 160.875h.944M81.791 160.875v-2.832M82.736 160.875l28.055 28.056M79.902 161.82v37.786M82.736 197.717v-34.008M82.736 200.551v-2.834M82.736 197.717h-1.889M80.847 197.717v2.834M80.847 200.551h1.889M80.847 160.875v2.835M80.847 163.71h1.889M82.736 163.71v-2.835M82.736 160.875h-1.889M80.847 163.71v34.008M82.736 197.717v-34.008M81.791 197.717v-34.008"/><path class="cls-9" d="M110.79 188.931a39.677 39.677 0 01-28.055 11.621"/><path stroke-width=".385" stroke="#000" stroke-linecap="round" stroke-linejoin="round" fill="none" d="M81.791 237.393l29-25.937"/><path d="M110.79 211.456a41.37 41.37 0 00-28.055-10.747" stroke-width=".385" stroke="#000" fill-rule="evenodd" stroke-linecap="round" stroke-linejoin="round" fill="none"/><path class="cls-7" d="M79.902 241.172h1.89M79.902 241.172h1.89M74.234 241.172h5.668M81.791 241.172h15.492M79.902 158.042h1.89M79.902 158.042h1.89M74.234 158.042h5.668M81.791 158.042h15.492M81.791 100.607h15.492M74.234 100.607h5.668M79.902 100.607h1.89M81.791 34.481h15.492M74.234 34.481h5.668M79.902 34.481h1.89M74.234 34.481v66.126M97.284 34.481v66.126M81.791 34.481v3.778M81.791 38.259h-1.89M79.902 38.259V34.48M79.902 72.267v-1.889M79.902 70.378h1.89M81.791 70.378v1.889M80.847 38.259v32.118M81.791 38.259v32.118M79.902 70.378V38.259M81.791 72.267v.945M81.791 73.212h-.945M80.847 73.212v.945M80.847 74.156h-.945M79.902 74.156v-1.89M79.902 100.607v-3.778M79.902 96.828h.945M80.847 96.828v.944M80.847 97.773h.944M81.791 97.773v2.834M79.902 96.828V74.156M82.736 76.046v18.893M82.736 73.212v2.834M82.736 76.046h-1.889M80.847 76.046v-2.834M80.847 73.212h1.889M80.847 97.773v-2.834M80.847 94.939h1.889M82.736 94.939v2.834M82.736 97.773h-1.889M80.847 94.939V76.046M82.736 76.046v18.893M81.791 76.046v18.893M79.902 34.481h1.89M79.902 34.481h1.89M74.234 34.481h5.668M81.791 34.481h15.492M79.902 100.607h1.89M79.902 100.607h1.89M74.234 100.607h5.668M81.791 100.607h15.492M74.234 34.481h23.05"/><path class="cls-9" d="M74.327 259.309H32.763m0 0V138.393m0 0h41.564m0 0v120.916"/><path d="M74.234 392.505v-40.619h23.05V382.3H142.6v10.2zM318.522.283h-9.068v155.563h7.557v-.454h1.511V.283zm-80.107 370.306zm71.039-34.2V194.387h7.557v.453h1.511v152.133h-9.068v-10.58zM74.234.283v34.2h23.05V.283zM142.6 123.657H97.284v-23.051h-23.05v57.435h23.05v-23.8H142.6v-10.58zM74.234 241.172h23.05v44.587h-23.05z" stroke-miterlimit="3" stroke-width=".48" stroke="#000" fill-rule="evenodd"/></g><g id="wall_2" data-name="wall 2"><path class="cls-4" d="M278.846 131.213h26.074V94.749h4.535v3.024h-1.512v33.44h1.512v3.024h-32.12v-1.512h.453v-1.512zm7.936 239.376h-37.408v21.916H142.6V382.3h95.812v-22.669h48.367v-23.238h22.672v10.58h-12.47v23.616zM142.6 123.657v10.58h60.671v-9.07h-.453v-1.51zM309.454.283v10.959h-12.47v23.239h12.47V37.5h-15.493V11.242h-49.877v119.971h5.592v1.512h.453v1.512h-16.437v-9.07h.453v-1.51h6.915V11.242H97.284V.283zm-71.416 231.253v-22.671h3.022v22.671h68.394v3.022h-71.417v-3.022zm57.435 33.252h13.981v3.023H298.5v11.336h10.958v3.022h-13.985z"/><path class="cls-13" d="M97.45.28l-.17.15M104.88.28l-7.6 6.69M112.3.28L99.86 11.24M119.72.28l-12.44 10.96M127.14.28L114.7 11.24M134.56.28l-12.44 10.96M141.98.28l-12.44 10.96M149.41.28l-12.44 10.96M156.83.28l-12.44 10.96M164.25.28l-12.44 10.96M171.67.28l-12.44 10.96M179.09.28l-12.44 10.96M186.52.28l-12.44 10.96M193.94.28L181.5 11.24M201.37.28l-12.45 10.96M208.79.28l-12.44 10.96M216.21.28l-12.44 10.96M223.63.28l-12.44 10.96M231.05.28l-12.44 10.96M238.47.28l-12.44 10.96M245.9.28l-12.44 10.96M253.32.28l-12.44 10.96M244.08 14.96l-3.02 2.66M260.74.28L248.3 11.24M244.08 21.49l-3.02 2.66M268.16.28l-12.44 10.96M244.08 28.03l-3.02 2.66M275.58.28l-12.44 10.96M244.08 34.57l-3.02 2.67M142.95 123.66l-.35.31M283.01.28l-12.44 10.96M244.08 41.11l-3.02 2.66M150.38 123.66l-7.78 6.85M290.43.28l-12.44 10.96M244.08 47.65l-3.02 2.66M157.8 123.66l-12.01 10.58M297.85.28l-12.44 10.96M244.08 54.18l-3.02 2.66M165.21 123.66l-12.01 10.58M305.27.28l-12.44 10.96M244.08 60.73l-3.02 2.66M172.64 123.66l-12.01 10.58M309.45 3.14l-9.19 8.1M296.98 14.13l-3.02 2.66M309.45 9.68l-1.77 1.56M244.08 67.27l-3.02 2.66M180.06 123.66l-12.01 10.58M296.98 20.66l-3.02 2.67M244.08 73.8l-3.02 2.66M187.48 123.66l-12.01 10.58M296.98 27.2l-3.02 2.66M244.08 80.34L241.06 83M194.91 123.66l-12.01 10.58M296.98 33.74l-3.02 2.66M244.08 86.88l-3.02 2.66M202.33 123.66l-12.01 10.58M303.57 34.48l-3.43 3.02M309.45 35.84l-1.89 1.66M203.27 129.37l-5.52 4.87M244.08 93.42l-3.02 2.66M244.08 99.96l-3.02 2.66M244.08 106.49l-3.02 2.66M244.08 113.03l-3.02 2.66M239.44 123.66l-5.75 5.07M244.08 119.57l-3.02 2.67M244.08 126.11l-9.23 8.13M245.72 131.21l-3.44 3.03M250.13 133.86l-.44.38M309.36 94.75l-4.44 3.92M307.94 102.54l-3.02 2.67M282.82 131.21l-3.44 3.03M307.94 109.08l-3.02 2.67M307.94 115.62l-3.02 2.67M290.25 131.21l-3.44 3.03M297.67 131.21l-3.44 3.03M307.94 122.16l-3.02 2.67M307.94 128.7l-6.29 5.54M309.45 133.91l-.38.33M239.21 208.86l-1.17 1.03M241.06 213.77l-3.02 2.66M241.06 220.31l-3.02 2.66M241.06 226.85l-3.02 2.66M243.15 231.54l-3.42 3.02M250.57 231.54l-3.42 3.02M258 231.54l-3.43 3.02M265.42 231.54l-3.43 3.02M272.85 231.54l-3.43 3.02M280.26 231.54l-3.42 3.02M287.69 231.54l-3.43 3.02M295.11 231.54l-3.43 3.02M302.53 231.54l-3.43 3.02M309.45 231.98l-2.92 2.58M146.24 382.3l-3.64 3.21M153.66 382.3l-11.06 9.75M161.08 382.3l-11.59 10.21M301.9 264.79l-6.43 5.66M168.51 382.3l-11.59 10.21M309.32 264.79l-3.43 3.02M175.93 382.3l-11.59 10.21M298.5 274.32l-3.03 2.67M183.35 382.3l-11.59 10.21M300.44 279.15l-3.43 3.02M307.87 279.15l-3.43 3.02M190.77 382.3l-11.59 10.21M198.2 382.3l-11.59 10.21M205.61 382.3l-11.59 10.21M238.77 359.63l-.35.31M213.04 382.3l-11.59 10.21M220.46 382.3l-11.59 10.21M246.19 359.63l-7.77 6.85M227.88 382.3l-11.59 10.21M253.62 359.63l-15.2 13.39M287.42 336.39l-.64.57M235.31 382.3l-11.59 10.21M261.04 359.63l-22.62 19.93M268.46 359.63l-12.44 10.96M249.37 376.45l-18.23 16.06M294.85 336.39l-8.07 7.11M275.88 359.63l-12.44 10.96M249.37 382.98l-10.81 9.53M302.26 336.39l-15.48 13.64M283.31 359.63l-12.45 10.96M249.37 389.52l-3.39 2.99M309.45 336.6l-11.77 10.37M296.98 347.58l-10.2 8.99M309.45 343.14l-4.35 3.83M296.98 354.12l-18.69 16.47M296.98 360.66l-11.27 9.93M296.98 367.2l-3.85 3.39"/><path d="M278.846 131.213h26.074V94.749h4.535v3.024h-1.512v33.44h1.512v3.024h-32.12v-1.512h.453v-1.512zm7.936 239.376h-37.408v21.916H142.6V382.3h95.812v-22.669h48.367v-23.238h22.672v10.58h-12.47v23.616zM142.6 123.657v10.58h60.671v-9.07h-.453v-1.51zM309.454.283v10.959h-12.47v23.239h12.47V37.5h-15.493V11.242h-49.877v119.971h5.592v1.512h.453v1.512h-16.437v-9.07h.453v-1.51h6.915V11.242H97.284V.283zm-71.416 231.253v-22.671h3.022v22.671h68.394v3.022h-71.417v-3.022zm57.435 33.252h13.981v3.023H298.5v11.336h10.958v3.022h-13.985z" stroke-width=".567" stroke-miterlimit="22.926" stroke="#000" fill-rule="evenodd" fill="none"/></g></g><g id="sizes"><path class="cls-7" d="M341.79 155.846h-24.203" id="LINE"/><path class="cls-7" d="M341.79 194.841h-24.203" id="LINE-2" data-name="LINE"/><path class="cls-7" d="M341.791 194.52v-38.674" id="LINE-3" data-name="LINE"/><path d="M352.507 184.069v1.4h-8.422l.869 1.415h-1.443l-.944-1.415v-1.4zM352.507 179.414v1.4h-8.422l.869 1.415h-1.443l-.944-1.415v-1.4zM351.864 176.438a2.865 2.865 0 01-2.078.72h-4.517a2.852 2.852 0 01-2.082-.724 3.387 3.387 0 010-4.229 2.863 2.863 0 012.086-.721h4.517a2.853 2.853 0 012.082.725 3.377 3.377 0 010 4.229zm-.967-3.208a1.594 1.594 0 00-1.111-.351h-4.517a1.6 1.6 0 00-1.112.349 1.742 1.742 0 000 2.187 1.608 1.608 0 001.112.349h4.517a1.594 1.594 0 001.111-.352 1.731 1.731 0 000-2.182zM351.864 168.713a2.865 2.865 0 01-2.078.721h-4.517a2.853 2.853 0 01-2.082-.725 3.387 3.387 0 010-4.229 2.862 2.862 0 012.086-.72h4.517a2.558 2.558 0 012.824 2.837 2.816 2.816 0 01-.75 2.116zm-.967-3.207a1.59 1.59 0 00-1.111-.352h-4.517a1.608 1.608 0 00-1.112.349 1.742 1.742 0 000 2.187 1.6 1.6 0 001.112.349h4.517a1.594 1.594 0 001.111-.351 1.731 1.731 0 000-2.182z"/><path class="cls-7" d="M341.791 155.846l1.461 1.461" id="LINE-4" data-name="LINE"/><path class="cls-7" d="M340.33 157.307l1.461-1.461" id="LINE-5" data-name="LINE"/><path class="cls-7" d="M341.79 194.841l-1.461-1.461" id="LINE-6" data-name="LINE"/><path class="cls-7" d="M343.252 193.38l-1.462 1.461" id="LINE-7" data-name="LINE"/><path class="cls-7" d="M202.821 102.033v21.624" id="LINE-8" data-name="LINE"/><path class="cls-7" d="M234.063 102.033v21.624" id="LINE-9" data-name="LINE"/><path class="cls-7" d="M234.063 102.033h-31.242" id="LINE-10" data-name="LINE"/><path d="M211.67 94.9l-.007.246a1.027 1.027 0 01-.516.461 2.056 2.056 0 01-.817.147 2.189 2.189 0 01-1.251-.362 2.374 2.374 0 01-.838-1.022 3.706 3.706 0 01-.3-1.528v-.007a3.821 3.821 0 01.325-1.647 2.283 2.283 0 01.951-1.039 2.986 2.986 0 011.5-.356 2.923 2.923 0 011.5.363 2.321 2.321 0 01.946 1.052 3.876 3.876 0 01.325 1.662v.006a5.25 5.25 0 01-.136 1.139 6.955 6.955 0 01-.39 1.2l-.082.181a2.549 2.549 0 01-.089.182l-2.119 4.258h-1.5zm.065-.861a1.947 1.947 0 00.359-1.251v-.007a1.852 1.852 0 00-.359-1.217 1.419 1.419 0 00-2.037 0 1.857 1.857 0 00-.359 1.224v.012a1.925 1.925 0 00.359 1.248 1.393 1.393 0 002.037 0zM216.055 99.2a2.864 2.864 0 01-.721-2.078V92.6a2.843 2.843 0 115.674 0v4.519a2.559 2.559 0 01-2.837 2.823 2.816 2.816 0 01-2.116-.742zm3.207-.967a1.6 1.6 0 00.351-1.111V92.6a1.607 1.607 0 00-.348-1.111 1.743 1.743 0 00-2.188 0 1.607 1.607 0 00-.348 1.111v4.519a1.6 1.6 0 00.351 1.111 1.735 1.735 0 002.182 0zM223.779 99.2a2.868 2.868 0 01-.72-2.078V92.6a2.843 2.843 0 115.673 0v4.519a2.852 2.852 0 01-.724 2.081 3.379 3.379 0 01-4.229 0zm3.207-.967a1.593 1.593 0 00.352-1.111V92.6a1.6 1.6 0 00-.349-1.111 1.742 1.742 0 00-2.187 0 1.6 1.6 0 00-.349 1.111v4.519a1.593 1.593 0 00.352 1.111 1.733 1.733 0 002.181 0z"/><path class="cls-7" d="M202.821 102.033l1.461-1.461" id="LINE-11" data-name="LINE"/><path class="cls-7" d="M204.282 103.495l-1.461-1.462" id="LINE-12" data-name="LINE"/><path class="cls-7" d="M234.063 102.033l-1.461 1.462" id="LINE-13" data-name="LINE"/><path class="cls-7" d="M232.602 100.572l1.461 1.461" id="LINE-14" data-name="LINE"/><path class="cls-7" d="M249.763 109.59v21.623" id="LINE-15" data-name="LINE"/><path class="cls-7" d="M277.975 109.59v21.623" id="LINE-16" data-name="LINE"/><path class="cls-7" d="M277.975 109.59h-28.212" id="LINE-17" data-name="LINE"/><path d="M254.558 107.155a2.509 2.509 0 01-1.057-.967 2.79 2.79 0 01-.372-1.453v-.164a2.8 2.8 0 01.372-1.4 2.5 2.5 0 011-.991 2.186 2.186 0 01-.845-.83 2.244 2.244 0 01-.317-1.145v-.24a2.641 2.641 0 01.349-1.37 2.356 2.356 0 01.984-.916 3.516 3.516 0 012.953 0 2.356 2.356 0 01.984.916 2.641 2.641 0 01.349 1.37v.24a2.2 2.2 0 01-.325 1.155 2.162 2.162 0 01-.857.82 2.58 2.58 0 011.007 1 2.726 2.726 0 01.38 1.4v.164a2.79 2.79 0 01-.372 1.453 2.5 2.5 0 01-1.057.967 3.846 3.846 0 01-3.171 0zm2.44-1.19a1.376 1.376 0 00.571-.536 1.555 1.555 0 00.2-.8v-.095a1.569 1.569 0 00-.2-.8 1.376 1.376 0 00-.569-.534 2 2 0 00-1.709 0 1.372 1.372 0 00-.571.54 1.583 1.583 0 00-.2.806v.1a1.535 1.535 0 00.2.793 1.374 1.374 0 00.571.53 1.863 1.863 0 00.855.188 1.825 1.825 0 00.854-.192zm-.116-4.481a1.248 1.248 0 00.5-.516 1.628 1.628 0 00.178-.772v-.1a1.5 1.5 0 00-.178-.738 1.222 1.222 0 00-.5-.5 1.654 1.654 0 00-1.477 0 1.222 1.222 0 00-.5.5 1.517 1.517 0 00-.177.745v.1a1.6 1.6 0 00.177.763 1.25 1.25 0 00.5.512 1.589 1.589 0 001.477 0zM261.827 106.751a2.865 2.865 0 01-.721-2.078v-4.518a2.856 2.856 0 01.725-2.082 3.393 3.393 0 014.229 0 2.861 2.861 0 01.72 2.085v4.518a2.856 2.856 0 01-.724 2.082 3.377 3.377 0 01-4.229 0zm3.207-.967a1.591 1.591 0 00.352-1.111v-4.518a1.6 1.6 0 00-.349-1.111 1.742 1.742 0 00-2.187 0 1.6 1.6 0 00-.349 1.111v4.518a1.591 1.591 0 00.352 1.111 1.733 1.733 0 002.181 0zM269.552 106.751a2.861 2.861 0 01-.721-2.078v-4.518a2.852 2.852 0 01.725-2.082 3.391 3.391 0 014.228 0 2.858 2.858 0 01.721 2.085v4.518a2.852 2.852 0 01-.725 2.082 3.375 3.375 0 01-4.228 0zm3.207-.967a1.6 1.6 0 00.351-1.111v-4.518a1.6 1.6 0 00-.348-1.111 1.743 1.743 0 00-2.188 0 1.6 1.6 0 00-.348 1.111v4.518a1.6 1.6 0 00.351 1.111 1.735 1.735 0 002.182 0z"/><path class="cls-7" d="M249.763 109.59l1.461-1.461" id="LINE-18" data-name="LINE"/><path class="cls-7" d="M251.224 111.051l-1.461-1.461" id="LINE-19" data-name="LINE"/><path class="cls-7" d="M277.975 109.59l-1.462 1.461" id="LINE-20" data-name="LINE"/><path class="cls-7" d="M276.513 108.129l1.462 1.461" id="LINE-21" data-name="LINE"/><path class="cls-7" d="M225.459 234.649h15.601" id="LINE-22" data-name="LINE"/><path class="cls-7" d="M225.459 208.768h15.601" id="LINE-23" data-name="LINE"/><path class="cls-7" d="M225.459 208.768v25.881" id="LINE-24" data-name="LINE"/><path d="M214.568 225.706l8.7 2.57v1.484l-8.614-2.571v2.53h1.429v1.394h-2.755v-5.407zM222.621 223.071a2.862 2.862 0 01-2.078.721h-4.519a2.853 2.853 0 01-2.082-.725 3.391 3.391 0 010-4.228 2.859 2.859 0 012.085-.721h4.519a2.559 2.559 0 012.823 2.837 2.816 2.816 0 01-.748 2.116zm-.968-3.207a1.6 1.6 0 00-1.11-.351h-4.519a1.607 1.607 0 00-1.111.348 1.743 1.743 0 000 2.188 1.607 1.607 0 001.111.348h4.519a1.6 1.6 0 001.11-.351 1.731 1.731 0 000-2.182zM222.621 215.347a2.866 2.866 0 01-2.078.72h-4.519a2.857 2.857 0 01-2.082-.724 3.393 3.393 0 010-4.229 2.863 2.863 0 012.085-.72h4.519a2.852 2.852 0 012.081.724 3.379 3.379 0 010 4.229zm-.968-3.207a1.59 1.59 0 00-1.11-.352h-4.519a1.6 1.6 0 00-1.111.349 1.742 1.742 0 000 2.187 1.6 1.6 0 001.111.349h4.519a1.59 1.59 0 001.11-.352 1.73 1.73 0 000-2.181z"/><path class="cls-7" d="M225.459 234.649l-1.461-1.461" id="LINE-25" data-name="LINE"/><path class="cls-7" d="M226.921 233.188l-1.462 1.461" id="LINE-26" data-name="LINE"/><path class="cls-7" d="M225.459 208.768l1.462 1.462" id="LINE-27" data-name="LINE"/><path class="cls-7" d="M223.998 210.23l1.461-1.462" id="LINE-28" data-name="LINE"/><path class="cls-7" d="M287.156 130.91V11.435" id="LINE-29" data-name="LINE"/><path d="M297.983 85.734l-.3.636a2.516 2.516 0 01-.882 1.023 3.2 3.2 0 01-1.392.488v-1.422a1.5 1.5 0 00.7-.267 1.232 1.232 0 00.407-.53 1.992 1.992 0 00.133-.762 1.479 1.479 0 00-.37-1.073 1.374 1.374 0 00-1.039-.383h-.3a1.672 1.672 0 00-1.152.363 1.3 1.3 0 00-.407 1.025v.7h-1.331v-.7a1.162 1.162 0 00-.349-.9 1.4 1.4 0 00-.984-.322h-.308a1.2 1.2 0 00-.909.339 1.339 1.339 0 00-.321.96 1.459 1.459 0 00.134.636 1.206 1.206 0 00.41.475 1.881 1.881 0 00.693.284v1.415a3.639 3.639 0 01-1.395-.516 2.539 2.539 0 01-.881-.961 2.852 2.852 0 01-.3-1.333 2.753 2.753 0 01.677-1.989 2.519 2.519 0 011.907-.7h.164a2.152 2.152 0 011.3.4 2.276 2.276 0 01.806 1.142 2.032 2.032 0 01.8-1.261 2.647 2.647 0 011.586-.448h.164a3.058 3.058 0 011.484.335 2.21 2.21 0 01.936.974 3.389 3.389 0 01.321 1.541zM297.881 77.668v1.395h-8.422l.868 1.415h-1.442l-.944-1.415v-1.395zM297.983 73.676l-.3.636a2.52 2.52 0 01-.882 1.022 3.187 3.187 0 01-1.392.488V74.4a1.5 1.5 0 00.7-.266 1.244 1.244 0 00.407-.53 1.992 1.992 0 00.133-.762 1.477 1.477 0 00-.37-1.073 1.374 1.374 0 00-1.039-.383h-.3a1.677 1.677 0 00-1.152.362 1.3 1.3 0 00-.407 1.025v.7h-1.331v-.7a1.163 1.163 0 00-.349-.9 1.4 1.4 0 00-.984-.321h-.308a1.191 1.191 0 00-.909.339 1.337 1.337 0 00-.321.96 1.455 1.455 0 00.134.635 1.2 1.2 0 00.41.475 1.848 1.848 0 00.693.284v1.415a3.638 3.638 0 01-1.395-.515 2.546 2.546 0 01-.881-.961 2.855 2.855 0 01-.3-1.333 2.754 2.754 0 01.677-1.99 2.522 2.522 0 011.907-.7h.164a2.146 2.146 0 011.3.4 2.269 2.269 0 01.806 1.141 2.032 2.032 0 01.8-1.261 2.654 2.654 0 011.586-.448h.164a3.069 3.069 0 011.484.335 2.212 2.212 0 01.936.975 3.386 3.386 0 01.321 1.541zM297.238 67.288a2.861 2.861 0 01-2.078.721h-4.518a2.848 2.848 0 01-2.081-.725 3.386 3.386 0 010-4.228 2.858 2.858 0 012.085-.721h4.518a2.558 2.558 0 012.823 2.837 2.812 2.812 0 01-.749 2.116zm-.967-3.207a1.594 1.594 0 00-1.111-.352h-4.518a1.605 1.605 0 00-1.111.349 1.743 1.743 0 000 2.188 1.6 1.6 0 001.111.348h4.518a1.594 1.594 0 001.111-.351 1.735 1.735 0 000-2.182z"/><path class="cls-7" d="M287.156 11.435l1.461 1.461" id="LINE-30" data-name="LINE"/><path class="cls-7" d="M285.695 12.896l1.461-1.461" id="LINE-31" data-name="LINE"/><path class="cls-7" d="M287.155 130.91l-1.461-1.462" id="LINE-32" data-name="LINE"/><path class="cls-7" d="M288.616 129.448l-1.461 1.462" id="LINE-33" data-name="LINE"/><path class="cls-7" d="M309.161 49.2h-64.832" id="LINE-34" data-name="LINE"/><path d="M256.363 47.005h-1.394v-8.422l-1.415.868v-1.442l1.415-.944h1.394zM263.753 38.31l-2.57 8.7H259.7l2.571-8.613h-2.53v1.423h-1.394v-2.755h5.407zM266.993 46.766a2.5 2.5 0 01-1.056-.968 2.777 2.777 0 01-.373-1.452v-.164a2.791 2.791 0 01.373-1.4 2.5 2.5 0 011-.991 2.175 2.175 0 01-.845-.831 2.241 2.241 0 01-.317-1.145v-.239a2.65 2.65 0 01.348-1.37 2.364 2.364 0 01.985-.916 3.516 3.516 0 012.953 0 2.362 2.362 0 01.984.916 2.651 2.651 0 01.349 1.37v.239a2.2 2.2 0 01-.326 1.156 2.149 2.149 0 01-.857.82 2.576 2.576 0 011.008.995 2.726 2.726 0 01.38 1.4v.164a2.786 2.786 0 01-.372 1.452 2.5 2.5 0 01-1.057.968 3.859 3.859 0 01-3.172 0zm2.441-1.19a1.382 1.382 0 00.571-.536 1.555 1.555 0 00.2-.8v-.1a1.567 1.567 0 00-.2-.8 1.382 1.382 0 00-.571-.536 2 2 0 00-1.709 0 1.374 1.374 0 00-.572.54 1.593 1.593 0 00-.2.806v.1a1.545 1.545 0 00.2.793 1.377 1.377 0 00.572.53 1.862 1.862 0 00.854.188 1.829 1.829 0 00.855-.185zm-.117-4.481a1.248 1.248 0 00.5-.516 1.617 1.617 0 00.178-.772v-.1a1.493 1.493 0 00-.178-.738 1.222 1.222 0 00-.5-.5 1.652 1.652 0 00-1.476 0 1.222 1.222 0 00-.5.5 1.517 1.517 0 00-.178.745v.1a1.6 1.6 0 00.178.763 1.25 1.25 0 00.5.512 1.6 1.6 0 001.476 0zM274.263 46.362a2.861 2.861 0 01-.721-2.078v-4.518a2.852 2.852 0 01.725-2.082 3.388 3.388 0 014.228 0 2.858 2.858 0 01.721 2.085v4.518a2.852 2.852 0 01-.725 2.082 3.379 3.379 0 01-4.228 0zm3.207-.967a1.6 1.6 0 00.351-1.111v-4.518a1.6 1.6 0 00-.348-1.111 1.743 1.743 0 00-2.188 0 1.6 1.6 0 00-.348 1.111v4.518a1.6 1.6 0 00.351 1.111 1.735 1.735 0 002.182 0z"/><path class="cls-7" d="M244.329 49.2l1.462-1.461" id="LINE-35" data-name="LINE"/><path class="cls-7" d="M245.791 50.661l-1.462-1.461" id="LINE-36" data-name="LINE"/><path class="cls-7" d="M309.161 49.201l-1.461 1.461" id="LINE-37" data-name="LINE"/><path class="cls-7" d="M307.7 47.74l1.461 1.461" id="LINE-38" data-name="LINE"/><path class="cls-7" d="M309.239 222.078H241.33" id="LINE-39" data-name="LINE"/><path d="M258.182 219.883h-1.4v-8.422l-1.415.868v-1.442l1.415-.944h1.4zM261.764 219.644a2.5 2.5 0 01-1.057-.967 2.79 2.79 0 01-.372-1.453v-.164a2.8 2.8 0 01.372-1.4 2.5 2.5 0 011-.991 2.186 2.186 0 01-.845-.83 2.242 2.242 0 01-.317-1.146v-.239a2.641 2.641 0 01.349-1.37 2.356 2.356 0 01.984-.916 3.516 3.516 0 012.953 0 2.364 2.364 0 01.985.916 2.65 2.65 0 01.348 1.37v.239a2.2 2.2 0 01-.325 1.156 2.162 2.162 0 01-.857.82 2.58 2.58 0 011.007 1 2.726 2.726 0 01.38 1.4v.164a2.79 2.79 0 01-.372 1.453 2.5 2.5 0 01-1.056.967 3.859 3.859 0 01-3.172 0zm2.44-1.19a1.382 1.382 0 00.571-.536 1.555 1.555 0 00.2-.8v-.1a1.564 1.564 0 00-.2-.8 1.372 1.372 0 00-.571-.537 2 2 0 00-1.709 0 1.372 1.372 0 00-.571.54 1.586 1.586 0 00-.2.806v.1a1.535 1.535 0 00.2.793 1.374 1.374 0 00.571.53 1.863 1.863 0 00.855.188 1.825 1.825 0 00.85-.184zm-.116-4.48a1.25 1.25 0 00.5-.517 1.626 1.626 0 00.178-.772v-.1a1.506 1.506 0 00-.178-.738 1.235 1.235 0 00-.5-.5 1.654 1.654 0 00-1.477 0 1.235 1.235 0 00-.5.5 1.517 1.517 0 00-.177.745v.1a1.6 1.6 0 00.177.763 1.258 1.258 0 00.5.513 1.6 1.6 0 001.477 0zM269.033 219.24a2.865 2.865 0 01-.72-2.078v-4.518a2.852 2.852 0 01.724-2.081 3.387 3.387 0 014.229 0 2.861 2.861 0 01.72 2.085v4.518a2.557 2.557 0 01-2.837 2.823 2.815 2.815 0 01-2.116-.749zm3.207-.967a1.59 1.59 0 00.352-1.111v-4.518a1.6 1.6 0 00-.349-1.111 1.738 1.738 0 00-2.187 0 1.6 1.6 0 00-.349 1.111v4.518a1.59 1.59 0 00.352 1.111 1.733 1.733 0 002.181 0zM276.758 219.24a2.861 2.861 0 01-.721-2.078v-4.518a2.848 2.848 0 01.725-2.081 3.386 3.386 0 014.228 0 2.858 2.858 0 01.721 2.085v4.518a2.558 2.558 0 01-2.837 2.823 2.812 2.812 0 01-2.116-.749zm3.207-.967a1.594 1.594 0 00.351-1.111v-4.518a1.6 1.6 0 00-.348-1.111 1.74 1.74 0 00-2.188 0 1.6 1.6 0 00-.348 1.111v4.518a1.594 1.594 0 00.351 1.111 1.735 1.735 0 002.182 0z"/><path class="cls-7" d="M241.33 222.078l1.461-1.461" id="LINE-40" data-name="LINE"/><path class="cls-7" d="M242.791 223.539l-1.461-1.461" id="LINE-41" data-name="LINE"/><path class="cls-7" d="M309.239 222.079l-1.461 1.461" id="LINE-42" data-name="LINE"/><path class="cls-7" d="M307.778 220.618l1.461 1.461" id="LINE-43" data-name="LINE"/><path class="cls-7" d="M240.851 35.315H97.611" id="LINE-44" data-name="LINE"/><path d="M160.336 33.223l-.636-.3a2.5 2.5 0 01-1.022-.881 3.2 3.2 0 01-.489-1.391h1.422a1.5 1.5 0 00.267.7 1.238 1.238 0 00.53.407 2.011 2.011 0 00.762.133 1.483 1.483 0 001.073-.369 1.378 1.378 0 00.383-1.039v-.3a1.677 1.677 0 00-.362-1.152 1.3 1.3 0 00-1.026-.407h-.7v-1.335h.7a1.164 1.164 0 00.9-.349 1.4 1.4 0 00.321-.984v-.308a1.19 1.19 0 00-.339-.909 1.339 1.339 0 00-.96-.321 1.462 1.462 0 00-.636.133 1.219 1.219 0 00-.474.41 1.853 1.853 0 00-.284.694h-1.415a3.611 3.611 0 01.515-1.394 2.534 2.534 0 01.961-.882 2.855 2.855 0 011.333-.3 2.754 2.754 0 011.989.677 2.519 2.519 0 01.7 1.907v.164a2.145 2.145 0 01-.4 1.3 2.277 2.277 0 01-1.141.807 2.02 2.02 0 011.26.8 2.647 2.647 0 01.449 1.586v.164a3.067 3.067 0 01-.335 1.484 2.212 2.212 0 01-.975.936 3.389 3.389 0 01-1.541.322zM167.329 32.881a2.5 2.5 0 01-1.057-.967 2.79 2.79 0 01-.372-1.453V30.3a2.793 2.793 0 01.372-1.4 2.494 2.494 0 011-.992 2.179 2.179 0 01-.845-.83 2.245 2.245 0 01-.318-1.145v-.24a2.651 2.651 0 01.349-1.37 2.368 2.368 0 01.984-.916 3.519 3.519 0 012.954 0 2.362 2.362 0 01.984.916 2.651 2.651 0 01.349 1.37v.24a2.2 2.2 0 01-.326 1.155 2.156 2.156 0 01-.857.82 2.576 2.576 0 011.008 1 2.726 2.726 0 01.38 1.4v.164a2.79 2.79 0 01-.372 1.453 2.5 2.5 0 01-1.057.967 3.848 3.848 0 01-3.172 0zm2.441-1.19a1.382 1.382 0 00.571-.536 1.555 1.555 0 00.2-.8v-.095a1.571 1.571 0 00-.2-.8 1.382 1.382 0 00-.571-.536 2 2 0 00-1.709 0 1.368 1.368 0 00-.572.54 1.585 1.585 0 00-.2.807v.1a1.535 1.535 0 00.2.793 1.371 1.371 0 00.572.53 1.862 1.862 0 00.854.188 1.832 1.832 0 00.855-.191zm-.117-4.481a1.248 1.248 0 00.5-.516 1.617 1.617 0 00.178-.772v-.1a1.493 1.493 0 00-.178-.738 1.229 1.229 0 00-.5-.5 1.652 1.652 0 00-1.476 0 1.229 1.229 0 00-.5.5 1.517 1.517 0 00-.178.745v.1a1.593 1.593 0 00.178.762 1.25 1.25 0 00.5.512 1.587 1.587 0 001.476 0zM174.6 32.478a2.865 2.865 0 01-.721-2.079v-4.518a2.852 2.852 0 01.721-2.081 3.391 3.391 0 014.228 0 2.858 2.858 0 01.721 2.085V30.4a2.852 2.852 0 01-.725 2.082 3.377 3.377 0 01-4.228 0zm3.207-.968a1.6 1.6 0 00.351-1.111v-4.518a1.6 1.6 0 00-.348-1.111 1.743 1.743 0 00-2.188 0 1.605 1.605 0 00-.349 1.111V30.4a1.6 1.6 0 00.352 1.111 1.735 1.735 0 002.182 0zM182.323 32.478a2.869 2.869 0 01-.72-2.079v-4.518a2.856 2.856 0 01.724-2.082 3.393 3.393 0 014.229 0 2.861 2.861 0 01.72 2.085V30.4a2.856 2.856 0 01-.724 2.082 3.379 3.379 0 01-4.229 0zm3.207-.968a1.591 1.591 0 00.352-1.111v-4.518a1.6 1.6 0 00-.349-1.111 1.742 1.742 0 00-2.187 0 1.6 1.6 0 00-.346 1.111V30.4a1.591 1.591 0 00.352 1.111 1.733 1.733 0 002.181 0z"/><path class="cls-7" d="M97.458 35.315l1.461-1.461" id="LINE-45" data-name="LINE"/><path class="cls-7" d="M98.919 36.776l-1.461-1.461" id="LINE-46" data-name="LINE"/><path class="cls-7" d="M240.851 35.315l-1.461-1.461" id="LINE-47" data-name="LINE"/><path class="cls-7" d="M239.39 36.776l1.461-1.461" id="LINE-48" data-name="LINE"/><path class="cls-7" d="M125.68 11.695v111.648" id="LINE-49" data-name="LINE"/><path d="M123.212 86.331l-.3.636a2.506 2.506 0 01-.882 1.022 3.187 3.187 0 01-1.39.489v-1.422a1.5 1.5 0 00.7-.267 1.236 1.236 0 00.406-.53 1.992 1.992 0 00.133-.762 1.483 1.483 0 00-.369-1.073 1.376 1.376 0 00-1.039-.383h-.3a1.674 1.674 0 00-1.151.362 1.3 1.3 0 00-.408 1.026v.7h-1.326v-.7a1.167 1.167 0 00-.347-.9 1.407 1.407 0 00-.985-.321h-.308a1.188 1.188 0 00-.909.339 1.339 1.339 0 00-.322.96 1.462 1.462 0 00.134.636 1.219 1.219 0 00.41.474 1.851 1.851 0 00.7.284v1.415a3.609 3.609 0 01-1.395-.515 2.528 2.528 0 01-.883-.961 2.867 2.867 0 01-.3-1.333 2.754 2.754 0 01.678-1.989 2.516 2.516 0 011.906-.7h.164a2.143 2.143 0 011.3.4 2.271 2.271 0 01.807 1.141 2.022 2.022 0 01.8-1.26 2.643 2.643 0 011.586-.449h.164a3.061 3.061 0 011.482.335 2.222 2.222 0 01.938.975 3.416 3.416 0 01.32 1.541zM122.468 79.943a2.864 2.864 0 01-2.078.721h-4.52a2.851 2.851 0 01-2.081-.725 3.391 3.391 0 010-4.228 2.857 2.857 0 012.084-.721h4.52a2.851 2.851 0 012.081.725 3.381 3.381 0 010 4.228zm-.968-3.207a1.6 1.6 0 00-1.11-.351h-4.52a1.6 1.6 0 00-1.11.348 1.743 1.743 0 000 2.188 1.6 1.6 0 001.11.349h4.52a1.6 1.6 0 001.11-.352 1.735 1.735 0 000-2.182zM120.376 73.076l-7.2-3.336v-1.435l7.117 3.254v-4.874h1.291v6.391zm-3.111-4.286v-1.36h5.851v1.36zM122.468 64.255a2.868 2.868 0 01-2.078.721h-4.52a2.855 2.855 0 01-2.081-.725 3.393 3.393 0 010-4.229 2.86 2.86 0 012.084-.72h4.52a2.855 2.855 0 012.081.724 3.382 3.382 0 010 4.229zm-.968-3.207a1.59 1.59 0 00-1.11-.352h-4.52a1.6 1.6 0 00-1.11.349 1.742 1.742 0 000 2.187 1.6 1.6 0 001.11.349h4.52a1.59 1.59 0 001.11-.352 1.733 1.733 0 000-2.181z"/><path class="cls-7" d="M125.68 123.357l-1.461-1.462" id="LINE-50" data-name="LINE"/><path class="cls-7" d="M127.141 121.895l-1.461 1.462" id="LINE-51" data-name="LINE"/><path class="cls-7" d="M125.681 11.532l1.461 1.461" id="LINE-52" data-name="LINE"/><path class="cls-7" d="M124.219 12.993l1.462-1.461" id="LINE-53" data-name="LINE"/><path class="cls-7" d="M238.104 370.956H97.524" id="LINE-54" data-name="LINE"/><path d="M161.087 368.864l-.636-.3a2.513 2.513 0 01-1.022-.882 3.2 3.2 0 01-.489-1.391h1.422a1.5 1.5 0 00.267.7 1.238 1.238 0 00.53.407 2.011 2.011 0 00.762.133 1.483 1.483 0 001.073-.369 1.376 1.376 0 00.383-1.039v-.3a1.678 1.678 0 00-.362-1.152 1.306 1.306 0 00-1.026-.406h-.7v-1.326h.7a1.168 1.168 0 00.9-.349 1.4 1.4 0 00.321-.984v-.308a1.187 1.187 0 00-.339-.909 1.334 1.334 0 00-.96-.321 1.476 1.476 0 00-.636.132 1.214 1.214 0 00-.474.411 1.846 1.846 0 00-.284.694H159.1a3.626 3.626 0 01.516-1.4 2.523 2.523 0 01.961-.881 2.843 2.843 0 011.333-.3 2.754 2.754 0 011.989.676 2.521 2.521 0 01.7 1.908v.164a2.15 2.15 0 01-.4 1.3 2.275 2.275 0 01-1.141.806 2.019 2.019 0 011.26.8 2.643 2.643 0 01.448 1.586v.164a3.065 3.065 0 01-.334 1.483 2.214 2.214 0 01-.975.937 3.4 3.4 0 01-1.541.321zM171.888 360.066l-2.571 8.7h-1.483l2.57-8.614h-2.529v1.429h-1.4v-2.755h5.408zM178.936 360.066l-2.571 8.7h-1.483l2.57-8.614h-2.529v1.429h-1.4v-2.755h5.408zM181.57 368.119a2.866 2.866 0 01-.72-2.078v-4.519a2.857 2.857 0 01.724-2.082 3.391 3.391 0 014.229 0 2.859 2.859 0 01.72 2.084v4.519a2.852 2.852 0 01-.724 2.081 3.379 3.379 0 01-4.229 0zm3.207-.968a1.589 1.589 0 00.352-1.11v-4.519a1.6 1.6 0 00-.349-1.111 1.742 1.742 0 00-2.187 0 1.6 1.6 0 00-.349 1.111v4.519a1.589 1.589 0 00.352 1.11 1.73 1.73 0 002.181 0z"/><path class="cls-7" d="M97.452 370.956l1.461-1.461" id="LINE-55" data-name="LINE"/><path class="cls-7" d="M98.913 372.418l-1.461-1.462" id="LINE-56" data-name="LINE"/><path class="cls-7" d="M238.196 370.956l-1.461-1.461" id="LINE-57" data-name="LINE"/><path class="cls-7" d="M236.735 372.418l1.461-1.462" id="LINE-58" data-name="LINE"/><path class="cls-7" d="M295.098 279.06H97.512" id="LINE-59" data-name="LINE"/><path d="M185.169 276.674a2.4 2.4 0 01-.951-.855 3.416 3.416 0 01-.489-1.346v-.007h1.395v.007a1.291 1.291 0 00.438.851 1.419 1.419 0 00.943.3 1.261 1.261 0 001.035-.447 1.944 1.944 0 00.366-1.262v-.834a1.93 1.93 0 00-.366-1.254 1.259 1.259 0 00-1.035-.448 1.314 1.314 0 00-.7.205 1.953 1.953 0 00-.588.574h-1.272v-5.236h5.066v1.326h-3.671v2.235a2.015 2.015 0 01.581-.328 1.922 1.922 0 01.656-.116 2.9 2.9 0 011.474.355 2.284 2.284 0 01.929 1.04 3.9 3.9 0 01.318 1.647v.834a3.785 3.785 0 01-.328 1.647 2.326 2.326 0 01-.957 1.043 2.993 2.993 0 01-1.511.359 2.931 2.931 0 01-1.333-.29zM191.2 275.655l3.466-4.621a3.454 3.454 0 00.468-.823 2.19 2.19 0 00.168-.8v-.011a1.2 1.2 0 00-.349-.922 1.388 1.388 0 00-.991-.329 1.367 1.367 0 00-.984.36 1.623 1.623 0 00-.458 1.014v.007h-1.443v-.007a3.732 3.732 0 01.5-1.459 2.559 2.559 0 01.982-.922 2.923 2.923 0 011.387-.319 3.456 3.456 0 011.518.305 2.136 2.136 0 01.957.885 2.8 2.8 0 01.328 1.4v.007a3.079 3.079 0 01-.219 1.1 4.7 4.7 0 01-.608 1.108l-2.878 3.91h3.76v1.326H191.2zM200.023 276.674a2.406 2.406 0 01-.951-.855 3.4 3.4 0 01-.488-1.346v-.007h1.4v.007a1.29 1.29 0 00.437.851 1.42 1.42 0 00.943.3 1.263 1.263 0 001.036-.447 1.944 1.944 0 00.366-1.262v-.834a1.93 1.93 0 00-.366-1.254 1.261 1.261 0 00-1.036-.448 1.316 1.316 0 00-.7.205 1.953 1.953 0 00-.588.574H198.8v-5.236h5.065v1.326H200.2v2.235a2.015 2.015 0 01.581-.328 1.927 1.927 0 01.657-.116 2.9 2.9 0 011.473.355 2.292 2.292 0 01.93 1.04 3.9 3.9 0 01.317 1.647v.834a3.77 3.77 0 01-.328 1.647 2.326 2.326 0 01-.957 1.043 2.993 2.993 0 01-1.511.359 2.931 2.931 0 01-1.339-.29zM206.927 276.223a2.862 2.862 0 01-.721-2.078v-4.519a2.843 2.843 0 115.674 0v4.519a2.853 2.853 0 01-.725 2.082 3.379 3.379 0 01-4.228 0zm3.207-.967a1.6 1.6 0 00.351-1.111v-4.519a1.6 1.6 0 00-.348-1.11 1.74 1.74 0 00-2.188 0 1.6 1.6 0 00-.348 1.11v4.519a1.6 1.6 0 00.351 1.111 1.735 1.735 0 002.182 0z"/><path class="cls-7" d="M97.44 279.06l1.461-1.461" id="LINE-60" data-name="LINE"/><path class="cls-7" d="M98.901 280.522l-1.461-1.462" id="LINE-61" data-name="LINE"/><path class="cls-7" d="M295.19 279.06l-1.461-1.461" id="LINE-62" data-name="LINE"/><path class="cls-7" d="M293.729 280.522l1.461-1.462" id="LINE-63" data-name="LINE"/><path class="cls-7" d="M238.331 349.792v9.839" id="LINE-64" data-name="LINE"/><path class="cls-7" d="M286.79 349.792v9.839" id="LINE-65" data-name="LINE"/><path class="cls-7" d="M286.633 349.792h-48.302" id="LINE-66" data-name="LINE"/><path d="M252.509 347.584h-1.395v-8.422l-1.416.868v-1.442l1.416-.943h1.395zM254.614 346.374l3.465-4.621a3.41 3.41 0 00.469-.823 2.211 2.211 0 00.168-.8v-.014a1.206 1.206 0 00-.35-.923 1.391 1.391 0 00-.99-.328 1.361 1.361 0 00-.984.36 1.619 1.619 0 00-.459 1.014v.007h-1.442v-.007a3.732 3.732 0 01.5-1.459 2.566 2.566 0 01.981-.923 2.927 2.927 0 011.388-.318 3.462 3.462 0 011.518.305 2.144 2.144 0 01.957.884 2.809 2.809 0 01.328 1.4v.007a3.1 3.1 0 01-.219 1.1 4.739 4.739 0 01-.609 1.108l-2.877 3.91h3.76v1.326h-5.606zM265.517 342.648l-.006.247a1.035 1.035 0 01-.516.461 2.082 2.082 0 01-.818.147 2.185 2.185 0 01-1.25-.362 2.36 2.36 0 01-.838-1.022 3.706 3.706 0 01-.3-1.528v-.007a3.8 3.8 0 01.324-1.647 2.3 2.3 0 01.951-1.04 2.994 2.994 0 011.5-.355 2.928 2.928 0 011.5.362 2.333 2.333 0 01.948 1.053 3.875 3.875 0 01.324 1.661v.007a5.14 5.14 0 01-.137 1.139 6.974 6.974 0 01-.388 1.2c-.028.059-.055.12-.082.182s-.057.122-.09.18l-2.119 4.259h-1.5zm.066-.861a1.949 1.949 0 00.357-1.251v-.007a1.856 1.856 0 00-.357-1.216 1.419 1.419 0 00-2.037 0 1.856 1.856 0 00-.359 1.223v.007a1.925 1.925 0 00.359 1.248 1.394 1.394 0 002.037 0zM269.9 346.941a2.865 2.865 0 01-.72-2.078v-4.518a2.856 2.856 0 01.724-2.081 3.387 3.387 0 014.229 0 2.861 2.861 0 01.72 2.085v4.518a2.558 2.558 0 01-2.835 2.824 2.82 2.82 0 01-2.118-.75zm3.207-.966a1.594 1.594 0 00.352-1.112v-4.518a1.6 1.6 0 00-.348-1.111 1.742 1.742 0 00-2.187 0 1.6 1.6 0 00-.35 1.111v4.518a1.594 1.594 0 00.352 1.112 1.737 1.737 0 002.181 0z"/><path class="cls-7" d="M238.331 349.793l1.461-1.461" id="LINE-67" data-name="LINE"/><path class="cls-7" d="M239.792 351.254l-1.461-1.461" id="LINE-68" data-name="LINE"/><path class="cls-7" d="M286.633 349.793l-1.461 1.461" id="LINE-69" data-name="LINE"/><path class="cls-7" d="M285.172 348.332l1.461 1.461" id="LINE-70" data-name="LINE"/><path class="cls-7" d="M286.79 326.553v9.84" id="LINE-71" data-name="LINE"/><path class="cls-7" d="M309.247 326.554H286.79" id="LINE-72" data-name="LINE"/><path d="M288.793 324.1a2.285 2.285 0 01-.947-1.026 3.713 3.713 0 01-.325-1.623v-.007a5.545 5.545 0 01.13-1.162 6.761 6.761 0 01.376-1.2c.028-.068.057-.136.089-.2s.064-.131.1-.194l2.16-4.28h1.5l-2.536 4.956.007-.246a1.189 1.189 0 01.5-.5 1.572 1.572 0 01.765-.178 2.447 2.447 0 011.327.349 2.174 2.174 0 01.84 1.015 4.026 4.026 0 01.287 1.6v.007a3.791 3.791 0 01-.325 1.641 2.3 2.3 0 01-.949 1.039 3.355 3.355 0 01-3 0zm2.52-1.4a1.726 1.726 0 00.358-1.169v-.007a1.971 1.971 0 00-.376-1.289 1.316 1.316 0 00-1.073-.454 1.132 1.132 0 00-.964.458 2.124 2.124 0 00-.342 1.292v.007a1.7 1.7 0 00.359 1.165 1.475 1.475 0 002.038 0zM295.632 323.7a2.862 2.862 0 01-.721-2.078v-4.519a2.853 2.853 0 01.725-2.082 3.391 3.391 0 014.228 0 2.859 2.859 0 01.721 2.085v4.519a2.559 2.559 0 01-2.837 2.823 2.816 2.816 0 01-2.116-.748zm3.207-.968a1.593 1.593 0 00.351-1.11v-4.519a1.607 1.607 0 00-.348-1.111 1.743 1.743 0 00-2.188 0 1.607 1.607 0 00-.348 1.111v4.519a1.593 1.593 0 00.351 1.11 1.731 1.731 0 002.182 0zM303.356 323.7a2.866 2.866 0 01-.72-2.078v-4.519a2.857 2.857 0 01.724-2.082 3.393 3.393 0 014.229 0 2.863 2.863 0 01.721 2.085v4.519a2.852 2.852 0 01-.725 2.081 3.379 3.379 0 01-4.229 0zm3.207-.968a1.589 1.589 0 00.352-1.11v-4.519a1.6 1.6 0 00-.349-1.111 1.742 1.742 0 00-2.187 0 1.6 1.6 0 00-.349 1.111v4.519a1.589 1.589 0 00.352 1.11 1.73 1.73 0 002.181 0z"/><path class="cls-7" d="M286.79 326.554l1.461-1.461" id="LINE-73" data-name="LINE"/><path class="cls-7" d="M288.251 328.016l-1.461-1.462" id="LINE-74" data-name="LINE"/><path class="cls-7" d="M309.247 326.554l-1.461 1.462" id="LINE-75" data-name="LINE"/><path class="cls-7" d="M307.786 325.093l1.461 1.461" id="LINE-76" data-name="LINE"/><path class="cls-7" d="M142.499 134.686v247.281" id="LINE-77" data-name="LINE"/><path d="M139.68 260.933a2.3 2.3 0 01-1.026.947 3.718 3.718 0 01-1.624.324h-.007a5.552 5.552 0 01-1.162-.13 6.814 6.814 0 01-1.2-.376 2.249 2.249 0 01-.2-.089l-.195-.095-4.28-2.16v-1.5l4.956 2.536-.246-.007a1.2 1.2 0 01-.5-.5 1.59 1.59 0 01-.178-.766 2.443 2.443 0 01.349-1.326 2.185 2.185 0 011.016-.841 4.042 4.042 0 011.6-.287H137a3.8 3.8 0 011.641.325 2.292 2.292 0 011.039.95 3.359 3.359 0 010 3zm-1.4-2.52a1.726 1.726 0 00-1.169-.358h-.011a1.968 1.968 0 00-1.288.376 1.314 1.314 0 00-.455 1.073 1.136 1.136 0 00.458.964 2.135 2.135 0 001.292.342h.007a1.7 1.7 0 001.166-.36 1.475 1.475 0 000-2.037zM139.68 253.748a2.29 2.29 0 01-1.026.947 3.718 3.718 0 01-1.624.325h-.007a5.552 5.552 0 01-1.162-.13 6.814 6.814 0 01-1.2-.376 3.026 3.026 0 01-.2-.089l-.195-.1-4.28-2.16v-1.5l4.956 2.536-.246-.007a1.2 1.2 0 01-.5-.5 1.583 1.583 0 01-.178-.765 2.441 2.441 0 01.349-1.326 2.173 2.173 0 011.016-.841 4.024 4.024 0 011.6-.287H137a3.785 3.785 0 011.641.325 2.29 2.29 0 011.039.949 3.359 3.359 0 010 3zm-1.4-2.519a1.721 1.721 0 00-1.169-.359h-.011a1.968 1.968 0 00-1.288.376 1.314 1.314 0 00-.455 1.073 1.135 1.135 0 00.458.964 2.128 2.128 0 001.292.342h.007a1.7 1.7 0 001.166-.359 1.475 1.475 0 000-2.037zM140.031 245.894l-.3.635a2.531 2.531 0 01-.882 1.023 3.187 3.187 0 01-1.392.488v-1.422a1.5 1.5 0 00.7-.266 1.236 1.236 0 00.408-.531 2.007 2.007 0 00.132-.761 1.485 1.485 0 00-.369-1.074 1.375 1.375 0 00-1.039-.382h-.3a1.676 1.676 0 00-1.151.362 1.3 1.3 0 00-.407 1.025v.7H134.1v-.7a1.167 1.167 0 00-.349-.9 1.4 1.4 0 00-.984-.321h-.308a1.193 1.193 0 00-.909.338 1.339 1.339 0 00-.321.96 1.456 1.456 0 00.133.636 1.21 1.21 0 00.411.475 1.864 1.864 0 00.693.284v1.415a3.639 3.639 0 01-1.4-.516 2.539 2.539 0 01-.881-.961 2.852 2.852 0 01-.3-1.333 2.757 2.757 0 01.676-1.989 2.521 2.521 0 011.908-.7h.164a2.154 2.154 0 011.3.4 2.276 2.276 0 01.806 1.142 2.027 2.027 0 01.8-1.261 2.645 2.645 0 011.586-.448h.164a3.051 3.051 0 011.483.335 2.209 2.209 0 01.937.975 3.383 3.383 0 01.321 1.541zM139.737 238.787a2.4 2.4 0 01-.854.951 3.4 3.4 0 01-1.347.489h-.007v-1.4h.007a1.3 1.3 0 00.852-.437 1.423 1.423 0 00.3-.944 1.261 1.261 0 00-.447-1.035 1.944 1.944 0 00-1.262-.366h-.834a1.925 1.925 0 00-1.253.366 1.259 1.259 0 00-.449 1.035 1.323 1.323 0 00.205.7 1.945 1.945 0 00.575.588v1.272h-5.237v-5.066h1.326v3.671h2.236a1.992 1.992 0 01-.328-.581 1.923 1.923 0 01-.117-.656 2.9 2.9 0 01.356-1.474 2.287 2.287 0 011.039-.929 3.9 3.9 0 011.647-.318h.834a3.789 3.789 0 011.648.328 2.326 2.326 0 011.043.957 3 3 0 01.358 1.511 2.918 2.918 0 01-.291 1.338z"/><path class="cls-7" d="M142.499 382.102l-1.461-1.461" id="LINE-78" data-name="LINE"/><path class="cls-7" d="M143.96 380.641l-1.461 1.461" id="LINE-79" data-name="LINE"/><path class="cls-7" d="M142.499 134.523l1.462 1.461" id="LINE-80" data-name="LINE"/><path class="cls-7" d="M141.038 135.984l1.461-1.461" id="LINE-81" data-name="LINE"/><path class="cls-7" d="M74.046 351.839H50.464" id="LINE-82" data-name="LINE"/><path class="cls-7" d="M74.046 285.804H50.464" id="LINE-83" data-name="LINE"/><path class="cls-7" d="M50.464 285.804v66.035" id="LINE-84" data-name="LINE"/><path d="M48.27 328.993v1.395h-8.422l.868 1.415h-1.443l-.943-1.415v-1.395zM39.574 321.6l8.7 2.57v1.483l-8.614-2.57v2.529h1.429v1.4H38.33V321.6zM48.078 318.25a2.412 2.412 0 01-.854.951 3.4 3.4 0 01-1.347.488h-.007V318.3h.007a1.293 1.293 0 00.851-.438 1.413 1.413 0 00.3-.943 1.261 1.261 0 00-.447-1.035 1.944 1.944 0 00-1.262-.366h-.834a1.93 1.93 0 00-1.254.366 1.261 1.261 0 00-.448 1.035 1.314 1.314 0 00.2.7 1.953 1.953 0 00.574.588v1.272H38.33V314.4h1.326v3.671h2.236a2.018 2.018 0 01-.329-.581 1.9 1.9 0 01-.116-.656 2.879 2.879 0 01.356-1.474 2.277 2.277 0 011.039-.929 3.9 3.9 0 011.647-.318h.834a3.792 3.792 0 011.648.328 2.324 2.324 0 011.042.957 2.993 2.993 0 01.359 1.511 2.931 2.931 0 01-.294 1.341zM47.627 311.347a2.866 2.866 0 01-2.078.72H41.03a2.857 2.857 0 01-2.082-.724 3.393 3.393 0 010-4.229 2.863 2.863 0 012.085-.72h4.519a2.852 2.852 0 012.081.724 3.379 3.379 0 010 4.229zm-.968-3.207a1.589 1.589 0 00-1.11-.352H41.03a1.6 1.6 0 00-1.111.349 1.742 1.742 0 000 2.187 1.6 1.6 0 001.111.349h4.519a1.589 1.589 0 001.11-.352 1.73 1.73 0 000-2.181z"/><path class="cls-7" d="M50.464 351.839l1.461-1.461" id="LINE-85" data-name="LINE"/><path class="cls-7" d="M49.003 350.378l1.461 1.461" id="LINE-86" data-name="LINE"/><path class="cls-7" d="M50.467 285.804l-1.462 1.461" id="LINE-87" data-name="LINE"/><path class="cls-7" d="M51.928 287.265l-1.461-1.461" id="LINE-88" data-name="LINE"/><path class="cls-7" d="M74.046 285.759H50.464" id="LINE-89" data-name="LINE"/><path class="cls-7" d="M74.046 241.134H50.464" id="LINE-90" data-name="LINE"/><path class="cls-7" d="M50.464 241.134v44.625" id="LINE-91" data-name="LINE"/><path d="M48.271 273.763v1.394h-8.422l.867 1.415h-1.442l-.943-1.415v-1.394zM47.06 271.657l-4.622-3.466a3.416 3.416 0 00-.823-.467 2.16 2.16 0 00-.8-.168h-.013a1.209 1.209 0 00-.924.348 1.392 1.392 0 00-.328.992 1.368 1.368 0 00.359.984 1.631 1.631 0 001.016.458h.006v1.442h-.006a3.72 3.72 0 01-1.46-.5 2.559 2.559 0 01-.923-.981 2.924 2.924 0 01-.318-1.388 3.451 3.451 0 01.3-1.517 2.136 2.136 0 01.885-.957 2.809 2.809 0 011.4-.329h.006a3.111 3.111 0 011.1.219 4.713 4.713 0 011.107.609l3.91 2.878v-3.76h1.327v5.6zM47.628 263.554a2.868 2.868 0 01-2.078.72h-4.52a2.855 2.855 0 01-2.081-.724 3.393 3.393 0 010-4.229 2.86 2.86 0 012.084-.72h4.52a2.855 2.855 0 012.081.724 3.382 3.382 0 010 4.229zm-.968-3.207a1.59 1.59 0 00-1.11-.347h-4.52a1.6 1.6 0 00-1.11.349 1.742 1.742 0 000 2.187 1.6 1.6 0 001.11.349h4.52a1.59 1.59 0 001.11-.352 1.733 1.733 0 000-2.181zM47.628 255.829a2.864 2.864 0 01-2.078.721h-4.52a2.851 2.851 0 01-2.081-.725 3.391 3.391 0 010-4.228 2.857 2.857 0 012.084-.721h4.52a2.851 2.851 0 012.081.725 3.381 3.381 0 010 4.228zm-.968-3.207a1.6 1.6 0 00-1.11-.351h-4.52a1.6 1.6 0 00-1.11.348 1.743 1.743 0 000 2.188 1.6 1.6 0 001.11.348h4.52a1.6 1.6 0 001.11-.351 1.735 1.735 0 000-2.182z"/><path class="cls-7" d="M50.464 285.759l1.461-1.461" id="LINE-92" data-name="LINE"/><path class="cls-7" d="M49.003 284.298l1.461 1.461" id="LINE-93" data-name="LINE"/><path class="cls-7" d="M50.467 241.134l-1.462 1.461" id="LINE-94" data-name="LINE"/><path class="cls-7" d="M51.928 242.595l-1.461-1.461" id="LINE-95" data-name="LINE"/><path class="cls-7" d="M74.048 241.134H50.467" id="LINE-96" data-name="LINE"/><path class="cls-7" d="M74.048 158.082H50.467" id="LINE-97" data-name="LINE"/><path class="cls-7" d="M50.467 158.082v83.052" id="LINE-98" data-name="LINE"/><path d="M47.06 217.468L42.438 214a3.441 3.441 0 00-.824-.468 2.181 2.181 0 00-.8-.168h-.013a1.2 1.2 0 00-.923.349 1.388 1.388 0 00-.328.991 1.364 1.364 0 00.359.984 1.621 1.621 0 001.015.458h.007v1.443h-.007a3.731 3.731 0 01-1.46-.5 2.551 2.551 0 01-.922-.982 2.911 2.911 0 01-.318-1.387 3.456 3.456 0 01.3-1.518 2.136 2.136 0 01.885-.957 2.8 2.8 0 011.4-.328h.007a3.084 3.084 0 011.1.219 4.673 4.673 0 011.107.608l3.91 2.878v-3.76h1.337v5.606zM47.06 210.235l-4.622-3.465a3.374 3.374 0 00-.824-.468 2.16 2.16 0 00-.8-.168h-.013a1.207 1.207 0 00-.923.348 1.392 1.392 0 00-.328.992 1.364 1.364 0 00.359.984 1.626 1.626 0 001.015.458h.007v1.442h-.007a3.731 3.731 0 01-1.46-.5 2.549 2.549 0 01-.922-.981 2.912 2.912 0 01-.318-1.388 3.454 3.454 0 01.3-1.517 2.131 2.131 0 01.885-.957 2.8 2.8 0 011.4-.328h.007a3.1 3.1 0 011.1.218 4.713 4.713 0 011.107.609l3.91 2.878v-3.76h1.337v5.605zM47.627 202.132a2.867 2.867 0 01-2.078.721H41.03a2.858 2.858 0 01-2.082-.725 3.393 3.393 0 010-4.229 2.863 2.863 0 012.085-.72h4.519a2.558 2.558 0 012.823 2.837 2.815 2.815 0 01-.748 2.116zm-.968-3.207a1.589 1.589 0 00-1.11-.352H41.03a1.6 1.6 0 00-1.111.349 1.742 1.742 0 000 2.187 1.6 1.6 0 001.111.349h4.519a1.589 1.589 0 001.11-.352 1.73 1.73 0 000-2.181zM47.627 194.407a2.862 2.862 0 01-2.078.721H41.03a2.853 2.853 0 01-2.082-.725 3.391 3.391 0 010-4.228 2.859 2.859 0 012.085-.721h4.519a2.559 2.559 0 012.823 2.837 2.812 2.812 0 01-.748 2.116zm-.968-3.207a1.593 1.593 0 00-1.11-.351H41.03a1.608 1.608 0 00-1.111.348 1.743 1.743 0 000 2.188 1.608 1.608 0 001.111.348h4.519a1.593 1.593 0 001.11-.351 1.731 1.731 0 000-2.182z"/><path class="cls-7" d="M50.467 241.134l1.461-1.461" id="LINE-99" data-name="LINE"/><path class="cls-7" d="M49.005 239.673l1.462 1.461" id="LINE-100" data-name="LINE"/><path class="cls-7" d="M50.469 158.082l-1.461 1.461" id="LINE-101" data-name="LINE"/><path class="cls-7" d="M51.93 159.543l-1.461-1.461" id="LINE-102" data-name="LINE"/><path class="cls-7" d="M74.046 158.082H50.464" id="LINE-103" data-name="LINE"/><path class="cls-7" d="M74.046 100.564H50.464" id="LINE-104" data-name="LINE"/><path class="cls-7" d="M50.464 100.564v57.518" id="LINE-105" data-name="LINE"/><path d="M48.27 139.834v1.4h-8.422l.868 1.415h-1.443l-.943-1.415v-1.4zM48.078 136.139a2.418 2.418 0 01-.854.951 3.4 3.4 0 01-1.347.488h-.007v-1.394h.007a1.3 1.3 0 00.851-.438 1.415 1.415 0 00.3-.943 1.259 1.259 0 00-.447-1.035 1.939 1.939 0 00-1.262-.367h-.834a1.924 1.924 0 00-1.254.367 1.26 1.26 0 00-.448 1.035 1.316 1.316 0 00.2.7 1.953 1.953 0 00.574.588v1.271H38.33v-5.065h1.326v3.671h2.236a2.018 2.018 0 01-.329-.581 1.9 1.9 0 01-.116-.656 2.876 2.876 0 01.356-1.474 2.284 2.284 0 011.039-.93 3.9 3.9 0 011.647-.317h.834a3.778 3.778 0 011.648.328 2.324 2.324 0 011.042.957 2.993 2.993 0 01.359 1.511 2.931 2.931 0 01-.294 1.333zM47.627 129.235a2.862 2.862 0 01-2.078.721H41.03a2.853 2.853 0 01-2.082-.725 3.391 3.391 0 010-4.228 2.859 2.859 0 012.085-.721h4.519a2.559 2.559 0 012.823 2.837 2.812 2.812 0 01-.748 2.116zm-.968-3.207a1.593 1.593 0 00-1.11-.351H41.03a1.608 1.608 0 00-1.111.348 1.743 1.743 0 000 2.188 1.609 1.609 0 001.111.349h4.519a1.593 1.593 0 001.11-.352 1.731 1.731 0 000-2.182zM47.627 121.511a2.866 2.866 0 01-2.078.72H41.03a2.857 2.857 0 01-2.082-.724 3.393 3.393 0 010-4.229 2.863 2.863 0 012.085-.72h4.519a2.558 2.558 0 012.823 2.837 2.815 2.815 0 01-.748 2.116zm-.968-3.207a1.589 1.589 0 00-1.11-.352H41.03a1.6 1.6 0 00-1.111.349 1.742 1.742 0 000 2.187 1.6 1.6 0 001.111.349h4.519a1.589 1.589 0 001.11-.352 1.73 1.73 0 000-2.181z"/><path class="cls-7" d="M50.464 158.082l1.461-1.461" id="LINE-106" data-name="LINE"/><path class="cls-7" d="M49.003 156.621l1.461 1.461" id="LINE-107" data-name="LINE"/><path class="cls-7" d="M50.467 100.564l-1.462 1.462" id="LINE-108" data-name="LINE"/><path class="cls-7" d="M51.928 102.026l-1.461-1.462" id="LINE-109" data-name="LINE"/><path class="cls-7" d="M74.046 100.564H50.464" id="LINE-110" data-name="LINE"/><path class="cls-7" d="M74.046 34.529H50.464" id="LINE-111" data-name="LINE"/><path class="cls-7" d="M50.464 34.529v66.035" id="LINE-112" data-name="LINE"/><path d="M48.27 77.718v1.394h-8.422l.868 1.415h-1.443l-.943-1.415v-1.394zM39.574 70.328l8.7 2.57v1.484l-8.614-2.57v2.529h1.429v1.394H38.33v-5.407zM48.078 66.975a2.418 2.418 0 01-.854.951 3.4 3.4 0 01-1.347.488h-.007V67.02h.007a1.3 1.3 0 00.851-.438 1.415 1.415 0 00.3-.943 1.259 1.259 0 00-.447-1.035 1.939 1.939 0 00-1.262-.367h-.834a1.924 1.924 0 00-1.254.367 1.26 1.26 0 00-.448 1.035 1.316 1.316 0 00.2.7 1.953 1.953 0 00.574.588v1.271H38.33V63.13h1.326v3.67h2.236a2.018 2.018 0 01-.329-.581 1.9 1.9 0 01-.116-.657 2.875 2.875 0 01.353-1.472 2.284 2.284 0 011.039-.93 3.9 3.9 0 011.647-.317h.834a3.778 3.778 0 011.648.328 2.324 2.324 0 011.042.957 2.993 2.993 0 01.359 1.511 2.931 2.931 0 01-.291 1.336zM47.627 60.071a2.862 2.862 0 01-2.078.721H41.03a2.853 2.853 0 01-2.082-.725 3.391 3.391 0 010-4.228 2.859 2.859 0 012.085-.721h4.519a2.559 2.559 0 012.823 2.837 2.812 2.812 0 01-.748 2.116zm-.968-3.207a1.593 1.593 0 00-1.11-.351H41.03a1.608 1.608 0 00-1.111.348 1.743 1.743 0 000 2.188 1.608 1.608 0 001.111.348h4.519a1.593 1.593 0 001.11-.351 1.731 1.731 0 000-2.182z"/><path class="cls-7" d="M50.464 100.564l1.461-1.461" id="LINE-113" data-name="LINE"/><path class="cls-7" d="M49.003 99.103l1.461 1.461" id="LINE-114" data-name="LINE"/><path class="cls-7" d="M50.467 34.529l-1.462 1.461" id="LINE-115" data-name="LINE"/><path class="cls-7" d="M51.928 35.99l-1.461-1.461" id="LINE-116" data-name="LINE"/><path class="cls-7" d="M74.046 34.529H50.464" id="LINE-117" data-name="LINE"/><path class="cls-7" d="M74.046 11.242H50.464" id="LINE-118" data-name="LINE"/><path class="cls-7" d="M50.464 11.242v23.287" id="LINE-119" data-name="LINE"/><path d="M48.021 31.9a2.3 2.3 0 01-1.021.946 3.718 3.718 0 01-1.624.324h-.007a5.545 5.545 0 01-1.162-.13 6.735 6.735 0 01-1.2-.376c-.068-.027-.136-.057-.2-.089s-.131-.063-.2-.1l-4.279-2.16v-1.5l4.956 2.537-.246-.007a1.2 1.2 0 01-.5-.5 1.59 1.59 0 01-.178-.766 2.432 2.432 0 01.349-1.326 2.169 2.169 0 011.016-.841 4.038 4.038 0 011.6-.287h.007a3.788 3.788 0 011.641.325 2.3 2.3 0 011.039.949 3.359 3.359 0 010 3zm-1.4-2.519a1.726 1.726 0 00-1.169-.358h-.007a1.976 1.976 0 00-1.289.375 1.316 1.316 0 00-.456 1.072 1.133 1.133 0 00.458.964 2.131 2.131 0 001.292.341h.007a1.706 1.706 0 001.166-.359 1.475 1.475 0 000-2.037zM48.372 24.044l-.3.636a2.508 2.508 0 01-.88 1.022 3.191 3.191 0 01-1.392.488v-1.421a1.5 1.5 0 00.7-.267 1.236 1.236 0 00.407-.53 2.011 2.011 0 00.133-.762 1.483 1.483 0 00-.369-1.073 1.376 1.376 0 00-1.039-.383h-.3a1.678 1.678 0 00-1.152.362 1.3 1.3 0 00-.406 1.026v.7h-1.336v-.7a1.167 1.167 0 00-.348-.9 1.4 1.4 0 00-.985-.321H40.8a1.187 1.187 0 00-.909.339 1.337 1.337 0 00-.322.96 1.477 1.477 0 00.133.636 1.236 1.236 0 00.41.474 1.858 1.858 0 00.7.284v1.415a3.622 3.622 0 01-1.4-.515 2.526 2.526 0 01-.882-.961 2.855 2.855 0 01-.3-1.333 2.754 2.754 0 01.676-1.989 2.52 2.52 0 011.908-.705h.164a2.145 2.145 0 011.3.4 2.265 2.265 0 01.807 1.141 2.018 2.018 0 01.8-1.26 2.645 2.645 0 011.586-.449h.164a3.063 3.063 0 011.483.335 2.214 2.214 0 01.937.975 3.4 3.4 0 01.321 1.541zM48.078 16.938a2.418 2.418 0 01-.854.951 3.4 3.4 0 01-1.347.488h-.007v-1.395h.007a1.292 1.292 0 00.851-.437 1.415 1.415 0 00.3-.943 1.263 1.263 0 00-.447-1.036 1.944 1.944 0 00-1.262-.366h-.834a1.93 1.93 0 00-1.254.366 1.264 1.264 0 00-.448 1.036 1.316 1.316 0 00.2.7 1.964 1.964 0 00.574.588v1.271H38.33v-5.068h1.326v3.671h2.236a2.031 2.031 0 01-.329-.581 1.9 1.9 0 01-.116-.657 2.875 2.875 0 01.356-1.473 2.284 2.284 0 011.039-.93 3.9 3.9 0 011.647-.317h.834a3.778 3.778 0 011.648.328 2.324 2.324 0 011.042.957 2.993 2.993 0 01.359 1.511 2.931 2.931 0 01-.294 1.336z"/><path class="cls-7" d="M50.464 34.529l1.461-1.461" id="LINE-120" data-name="LINE"/><path class="cls-7" d="M49.003 33.068l1.461 1.461" id="LINE-121" data-name="LINE"/><path class="cls-7" d="M50.467 11.242l-1.462 1.461" id="LINE-122" data-name="LINE"/><path class="cls-7" d="M51.928 12.703l-1.461-1.461" id="LINE-123" data-name="LINE"/><path class="cls-7" d="M74.046 382.304H50.464" id="LINE-124" data-name="LINE"/><path class="cls-7" d="M74.046 351.839H50.464" id="LINE-125" data-name="LINE"/><path class="cls-7" d="M50.464 351.839v30.465" id="LINE-126" data-name="LINE"/><path d="M48.03 376.5a2.509 2.509 0 01-.967 1.057 2.79 2.79 0 01-1.453.372h-.164a2.8 2.8 0 01-1.4-.372 2.479 2.479 0 01-.991-1 2.193 2.193 0 01-.83.845 2.251 2.251 0 01-1.146.318h-.239a2.652 2.652 0 01-1.371-.349 2.368 2.368 0 01-.916-.984 3.529 3.529 0 010-2.954 2.374 2.374 0 01.916-.984 2.652 2.652 0 011.371-.349h.239a2.2 2.2 0 011.155.326 2.165 2.165 0 01.821.857 2.573 2.573 0 01.994-1.008 2.728 2.728 0 011.4-.38h.164a2.79 2.79 0 011.453.372 2.509 2.509 0 01.967 1.057 3.848 3.848 0 010 3.172zm-5.67-2.324a1.254 1.254 0 00-.516-.5 1.635 1.635 0 00-.773-.178h-.095a1.51 1.51 0 00-.739.178 1.229 1.229 0 00-.5.5 1.652 1.652 0 000 1.476 1.229 1.229 0 00.5.5 1.523 1.523 0 00.745.178h.1a1.593 1.593 0 00.762-.178 1.258 1.258 0 00.513-.5 1.6 1.6 0 000-1.476zm4.481-.116a1.38 1.38 0 00-.537-.572 1.551 1.551 0 00-.8-.2h-.1a1.571 1.571 0 00-.8.2 1.391 1.391 0 00-.536.572 2.007 2.007 0 000 1.709 1.384 1.384 0 00.54.571 1.59 1.59 0 00.807.2h.1a1.532 1.532 0 00.793-.2 1.377 1.377 0 00.531-.571 1.868 1.868 0 00.187-.855 1.837 1.837 0 00-.185-.852zM45.535 370.09l-7.2-3.336v-1.436l7.116 3.254V363.7h1.292v6.392zm-3.11-4.286v-1.361h5.851v1.357zM47.627 361.269a2.866 2.866 0 01-2.078.72H41.03a2.857 2.857 0 01-2.082-.724 3.393 3.393 0 010-4.229 2.863 2.863 0 012.085-.721h4.519a2.852 2.852 0 012.081.725 3.379 3.379 0 010 4.229zm-.968-3.207a1.589 1.589 0 00-1.11-.352H41.03a1.6 1.6 0 00-1.111.349 1.742 1.742 0 000 2.187 1.6 1.6 0 001.111.349h4.519a1.589 1.589 0 001.11-.352 1.73 1.73 0 000-2.181z"/><path class="cls-7" d="M50.464 382.304l1.461-1.462" id="LINE-127" data-name="LINE"/><path class="cls-7" d="M49.003 380.842l1.461 1.462" id="LINE-128" data-name="LINE"/><path class="cls-7" d="M50.467 351.839l-1.462 1.461" id="LINE-129" data-name="LINE"/><path class="cls-7" d="M51.928 353.3l-1.461-1.461" id="LINE-130" data-name="LINE"/><path class="cls-7" d="M74.071 175.109H32.847" id="LINE-131" data-name="LINE"/><path d="M43.255 172.913h-1.4v-8.422l-1.415.868v-1.442l1.415-.943h1.4zM45.36 171.7l3.466-4.621a3.426 3.426 0 00.468-.824 2.181 2.181 0 00.168-.8v-.014a1.205 1.205 0 00-.349-.923 1.392 1.392 0 00-.991-.328 1.368 1.368 0 00-.984.359 1.626 1.626 0 00-.458 1.015v.007h-1.443v-.007a3.721 3.721 0 01.5-1.459 2.554 2.554 0 01.982-.923 2.923 2.923 0 011.387-.318 3.47 3.47 0 011.518.3 2.138 2.138 0 01.957.886 2.8 2.8 0 01.328 1.4v.007a3.079 3.079 0 01-.219 1.1 4.7 4.7 0 01-.608 1.108l-2.878 3.91h3.76v1.326H45.36zM53.464 172.271a2.865 2.865 0 01-.721-2.079v-4.518a2.852 2.852 0 01.725-2.082 3.391 3.391 0 014.228 0 2.858 2.858 0 01.721 2.085v4.518a2.852 2.852 0 01-.725 2.082 3.377 3.377 0 01-4.228 0zm3.207-.968a1.6 1.6 0 00.351-1.111v-4.518a1.6 1.6 0 00-.348-1.111 1.743 1.743 0 00-2.188 0 1.6 1.6 0 00-.348 1.111v4.518a1.6 1.6 0 00.351 1.111 1.735 1.735 0 002.182 0zM61.188 172.271a2.869 2.869 0 01-.72-2.079v-4.518a2.856 2.856 0 01.724-2.082 3.393 3.393 0 014.229 0 2.862 2.862 0 01.721 2.085v4.518a2.856 2.856 0 01-.725 2.082 3.379 3.379 0 01-4.229 0zm3.212-.971a1.6 1.6 0 00.351-1.111v-4.518a1.6 1.6 0 00-.349-1.111 1.742 1.742 0 00-2.187 0 1.605 1.605 0 00-.349 1.111v4.518a1.591 1.591 0 00.352 1.111 1.735 1.735 0 002.182 0z"/><path class="cls-7" d="M32.847 175.109l1.461-1.461" id="LINE-132" data-name="LINE"/><path class="cls-7" d="M34.308 176.571l-1.461-1.462" id="LINE-133" data-name="LINE"/><path class="cls-7" d="M74.071 175.109l-1.462 1.462" id="LINE-134" data-name="LINE"/><path class="cls-7" d="M72.609 173.648l1.462 1.461" id="LINE-135" data-name="LINE"/><path class="cls-7" d="M37.747 259.309H14.165" id="LINE-136" data-name="LINE"/><path class="cls-7" d="M37.747 138.392H14.165" id="LINE-137" data-name="LINE"/><path class="cls-7" d="M14.165 138.392v120.917" id="LINE-138" data-name="LINE"/><path d="M12.072 212.074l-.3.636a2.522 2.522 0 01-.882 1.022 3.2 3.2 0 01-1.392.489V212.8a1.491 1.491 0 00.7-.267A1.227 1.227 0 0010.6 212a2.012 2.012 0 00.132-.762 1.483 1.483 0 00-.369-1.073 1.376 1.376 0 00-1.039-.383h-.3a1.676 1.676 0 00-1.151.362 1.3 1.3 0 00-.407 1.026v.7H6.139v-.7a1.164 1.164 0 00-.349-.9 1.4 1.4 0 00-.984-.322H4.5a1.193 1.193 0 00-.909.339 1.339 1.339 0 00-.321.96 1.477 1.477 0 00.133.636 1.207 1.207 0 00.411.474 1.865 1.865 0 00.693.285v1.415a3.639 3.639 0 01-1.395-.516 2.539 2.539 0 01-.881-.961 2.855 2.855 0 01-.3-1.333 2.757 2.757 0 01.676-1.989 2.521 2.521 0 011.908-.7h.164a2.148 2.148 0 011.3.4 2.272 2.272 0 01.806 1.142 2.027 2.027 0 01.8-1.261 2.645 2.645 0 011.586-.448h.164a3.051 3.051 0 011.483.335 2.2 2.2 0 01.937.974 3.389 3.389 0 01.321 1.541zM10.76 206.558l-4.621-3.466a3.426 3.426 0 00-.824-.468 2.185 2.185 0 00-.8-.168h-.01a1.2 1.2 0 00-.923.349 1.388 1.388 0 00-.328.991 1.368 1.368 0 00.359.984 1.626 1.626 0 001.015.458h.007v1.443h-.007a3.727 3.727 0 01-1.459-.5 2.562 2.562 0 01-.923-.982 2.923 2.923 0 01-.318-1.387 3.456 3.456 0 01.3-1.518 2.141 2.141 0 01.885-.957 2.809 2.809 0 011.4-.328h.006a3.084 3.084 0 011.1.219 4.673 4.673 0 011.107.608l3.911 2.878v-3.76h1.333v5.606zM11.327 198.454a2.861 2.861 0 01-2.078.721H4.73a2.851 2.851 0 01-2.081-.725 3.388 3.388 0 010-4.228 2.857 2.857 0 012.081-.722h4.519a2.85 2.85 0 012.082.725 3.379 3.379 0 010 4.228zm-.967-3.207a1.6 1.6 0 00-1.111-.351H4.73a1.6 1.6 0 00-1.11.348 1.74 1.74 0 000 2.188 1.6 1.6 0 001.11.348h4.519a1.6 1.6 0 001.111-.351 1.735 1.735 0 000-2.182zM11.327 190.729a2.861 2.861 0 01-2.078.721H4.73a2.855 2.855 0 01-2.081-.724 3.389 3.389 0 010-4.229 2.861 2.861 0 012.084-.721h4.516a2.854 2.854 0 012.082.725 3.379 3.379 0 010 4.228zm-.967-3.207a1.6 1.6 0 00-1.111-.351H4.73a1.6 1.6 0 00-1.11.349 1.738 1.738 0 000 2.187 1.6 1.6 0 001.11.349h4.519a1.6 1.6 0 001.111-.352 1.735 1.735 0 000-2.182z"/><path class="cls-7" d="M14.165 259.309l1.461-1.461" id="LINE-139" data-name="LINE"/><path class="cls-7" d="M12.704 257.848l1.461 1.461" id="LINE-140" data-name="LINE"/><path class="cls-7" d="M14.168 138.392l-1.462 1.461" id="LINE-141" data-name="LINE"/><path class="cls-7" d="M15.629 139.853l-1.461-1.461" id="LINE-142" data-name="LINE"/><path class="cls-7" d="M287.156 231.214v-96.793" id="LINE-143" data-name="LINE"/><path d="M296.671 195.07l-4.621-3.47a3.435 3.435 0 00-.823-.467 2.173 2.173 0 00-.8-.168h-.014a1.208 1.208 0 00-.923.348 1.392 1.392 0 00-.328.992 1.368 1.368 0 00.359.984 1.634 1.634 0 001.015.458h.007v1.442h-.007a3.727 3.727 0 01-1.459-.5 2.559 2.559 0 01-.923-.981 2.924 2.924 0 01-.318-1.388 3.437 3.437 0 01.305-1.517 2.134 2.134 0 01.884-.957 2.809 2.809 0 011.4-.328h.007a3.1 3.1 0 011.1.218 4.739 4.739 0 011.108.609l3.91 2.878v-3.76h1.326v5.6zM297.689 186.248a2.4 2.4 0 01-.854.951 3.415 3.415 0 01-1.347.489h-.007v-1.395h.007a1.291 1.291 0 00.852-.438 1.419 1.419 0 00.3-.943 1.261 1.261 0 00-.448-1.035 1.941 1.941 0 00-1.261-.366h-.831a1.928 1.928 0 00-1.254.366 1.259 1.259 0 00-.449 1.035 1.315 1.315 0 00.206.7 1.941 1.941 0 00.574.588v1.272h-5.237V182.4h1.327v3.671h2.233a1.992 1.992 0 01-.328-.581 1.922 1.922 0 01-.116-.656 2.9 2.9 0 01.355-1.474 2.282 2.282 0 011.039-.929 3.9 3.9 0 011.648-.318h.834a3.788 3.788 0 011.647.328 2.326 2.326 0 011.043.957 3 3 0 01.358 1.511 2.918 2.918 0 01-.291 1.339zM297.642 178.739a2.5 2.5 0 01-.967 1.057 2.79 2.79 0 01-1.453.372h-.164a2.8 2.8 0 01-1.4-.372 2.5 2.5 0 01-.991-1 2.186 2.186 0 01-.83.845 2.252 2.252 0 01-1.146.317h-.239a2.641 2.641 0 01-1.37-.349 2.356 2.356 0 01-.916-.984 3.516 3.516 0 010-2.953 2.364 2.364 0 01.916-.985 2.65 2.65 0 011.37-.348h.239a2.2 2.2 0 011.156.325 2.155 2.155 0 01.82.857 2.58 2.58 0 011-1.007 2.728 2.728 0 011.4-.38h.164a2.79 2.79 0 011.453.372 2.5 2.5 0 01.967 1.056 3.859 3.859 0 010 3.172zm-5.67-2.324a1.25 1.25 0 00-.517-.5 1.626 1.626 0 00-.772-.178h-.1a1.506 1.506 0 00-.738.178 1.226 1.226 0 00-.5.5 1.646 1.646 0 000 1.477 1.238 1.238 0 00.5.5 1.52 1.52 0 00.745.177h.1a1.6 1.6 0 00.763-.177 1.271 1.271 0 00.513-.5 1.6 1.6 0 000-1.477zm4.48-.116a1.376 1.376 0 00-.536-.571 1.555 1.555 0 00-.8-.2h-.1a1.564 1.564 0 00-.8.2 1.378 1.378 0 00-.537.571 2 2 0 000 1.709 1.378 1.378 0 00.54.571 1.586 1.586 0 00.806.2h.1a1.535 1.535 0 00.793-.2 1.374 1.374 0 00.53-.571 1.863 1.863 0 00.188-.855 1.825 1.825 0 00-.184-.853zM297.238 171.47a2.865 2.865 0 01-2.078.72h-4.518a2.852 2.852 0 01-2.081-.724 3.387 3.387 0 010-4.229 2.861 2.861 0 012.085-.72h4.518a2.557 2.557 0 012.823 2.837 2.815 2.815 0 01-.749 2.116zm-.967-3.207a1.59 1.59 0 00-1.111-.352h-4.518a1.6 1.6 0 00-1.111.349 1.742 1.742 0 000 2.187 1.6 1.6 0 001.111.349h4.518a1.59 1.59 0 001.111-.352 1.733 1.733 0 000-2.181z"/><path class="cls-7" d="M287.156 134.421l1.461 1.461" id="LINE-144" data-name="LINE"/><path class="cls-7" d="M285.695 135.882l1.461-1.461" id="LINE-145" data-name="LINE"/><path class="cls-7" d="M287.155 231.214l-1.461-1.461" id="LINE-146" data-name="LINE"/><path class="cls-7" d="M288.616 229.753l-1.461 1.461" id="LINE-147" data-name="LINE"/></g></svg>