<svg version="1.1" id="_x31_1_1_" xmlns="http://www.w3.org/2000/svg" x="0" y="0" viewBox="0 0 347.766 386.609" xml:space="preserve"><style>.st0{fill-rule:evenodd;clip-rule:evenodd;fill:#fff}.st1{stroke-width:.4;stroke-linecap:round;stroke-linejoin:round}.st1,.st2{fill-rule:evenodd;clip-rule:evenodd;fill:none;stroke:#999;stroke-miterlimit:3}.st2,.st3,.st4{stroke-linecap:round;stroke-linejoin:round}.st3{fill-rule:evenodd;clip-rule:evenodd;fill:#8a8a8a;stroke:#999;stroke-miterlimit:10}.st4{fill:none;stroke:#000;stroke-miterlimit:3}.st5,.st6,.st8{fill-rule:evenodd;clip-rule:evenodd}.st6,.st8{fill:none}.st6{stroke-linecap:round;stroke-linejoin:round;stroke:#000;stroke-miterlimit:3}.st8{stroke:#666;stroke-width:.6;stroke-miterlimit:22.9256}</style><g id="fon_1_"><path id="fon" class="st0" d="M.447.5h331.939v385.609H.447z"/></g><g id="mebel_11_"><path class="st1" d="M257.96 96.288h49.123m-63.292-11.335h63.292m-63.292-11.337h63.292m-63.292-11.335h63.292m-32.308-11.336h32.308m-32.308-11.336h12.668m10.563 0h9.077m-32.308-11.336h11.913m12.071 0h9.835m-5.29 71.038V21.567m-22.672 77.744V21.567M257.96 99.311V52.173M290.44399999999996 194.911l1.713-1.713M283.497 194.911l8.66-8.66M276.55 194.911l15.607-15.607m14.627-14.627l.865-.865M269.604 194.911l22.554-22.554m7.679-7.68l7.812-7.812M262.657 194.911l29.5-29.5m.734-.734l14.758-14.758m-51.939 44.992l44.946-44.947m-51.893 44.947l44.532-44.532m12.05-12.05l2.304-2.304m-62.347 55.4l43.126-43.125m10.634-10.634l8.503-8.503m-62.263 55.315l41.28-41.279m5.552-5.553l8.483-8.483m-55.315 48.368l48.369-48.368m-48.369 41.422l41.422-41.422m-41.422 34.474l34.475-34.474m-34.475 27.527l27.528-27.527m-27.528 20.581l20.581-20.581m-20.581 13.634l13.634-13.634m-13.634 6.687l6.687-6.687m55.66 6.377l-6.377-6.377m1.999 8.947l-8.947-8.947m13.325 20.27l-.187-.187m-11.916-11.915l-8.169-8.168m20.272 27.218l-6.471-6.472m-11.38-11.38l-9.366-9.366m27.217 34.164l-12.835-12.835m-8.122-8.122l-13.207-13.207m28.567 35.514l-35.514-35.514m28.567 35.514l-35.514-35.514m32.566 39.513l-39.513-39.513m39.513 46.461l-46.46-46.46m46.46 53.406l-46.855-46.855m46.855 53.802l-46.855-46.856m45.302 52.25l-45.302-45.303m38.355 45.303l-38.355-38.356m31.408 38.356l-31.408-31.408M269.764 194.911l-24.462-24.462M262.817 194.911l-17.515-17.515M255.87 194.911l-10.568-10.568M248.923 194.911l-3.621-3.621m0 34.736"/><path class="st2" d="M243.791 52.173h30.984M274.775 52.173V21.566M251.347 28.179a.945.945 0 11-1.89 0 .945.945 0 011.89 0zM259.5 34.55l-1.397.372m0 0l-1.208.793m0 0l-.898 1.132m0 0l-.497 1.358m0 0l-.042 1.445m0 0l.413 1.385m0 0l.829 1.184m0 0l1.159.864m0 0l1.372.455m0 0h1.445m0 0l1.372-.455m0 0l1.16-.864m0 0l.828-1.184m0 0l.414-1.385m0 0l-.044-1.445m0 0l-.495-1.358m0 0l-.898-1.132m0 0l-1.209-.793m0 0l-1.397-.372m0 0v-5.538m0 0l.456.108m0 0l.489.037m0 0l.489-.037m0 0l.455-.108m0 0l.392-.172m0 0l.3-.225m0 0l.189-.261m0 0l.064-.281m0 0v-.402m0 0l-.019-.12m0 0l-.064-.277m0 0l-.055-.104m0 0l-.181-.251m0 0l-.078-.07m0 0l-.274-.205m0 0l-.357-.157m0 0l-.195-.052m0 0l-.25-.059m0 0l-.019-.688m0 0l-.01-.796m0 0h1.729m0 0v-.435m0 0h2.871m0 0l.16-.058m0 0l.083-.149m0 0l-.033-.167m0 0l-.133-.105m0 0l-.486-.157m0 0l-.726-.316m0 0l-1.007-.573m0 0l-.729-.258m0 0v-.125m0 0h.604m0 0v-.982m0 0h-2.569m0 0v.877m0 0l-.063.038m0 0l-.032.034m0 0l-.026.04m0 0l-.278.673m0 0h-.697m0 0v-1.36m0 0h1.058m0 0v-.302m0 0h-3.023m0 0v.302m0 0h1.058m0 0v1.36m0 0h-1.436m0 0v.151m0 0h-.416m0 0v-.302m0 0h.152m0 0v-.529m0 0h.604m0 0v-.982m0 0h-2.569m0 0v.982m0 0h.604m0 0v.529m0 0h.152m0 0v.302m0 0h-.152m0 0v1.512m0 0h2.57m0 0v2.154m0 0h.082m0 0h.094m0 0h.124m0 0h.149m0 0h.042m0 0v7.504M261.844 23.229h-.21m-.001 0l.14-.341m0 0l.326-.053m0 0l.008.002m0 0v.241m0 0h.151m0 0v.302m0 0h-.415m.001 0v-.151M263.317 23.38v-.24m0 0l.676.239m0 0l.988.564m0 0l.053.023m0 0h-1.566m0 0v-.586m0 0h-.151M257.46 22.549v.529M256.779 22.549v.529M263.117 22.549h.351M262.258 23.078h.189M262.448 23.078h.68M263.128 23.078h.014M262.448 22.902v.176M263.128 23.073v.005M263.317 23.38h-1.059M260.965 24.892h-.558M263.468 23.966v.491M260.898 25.458h-.491M266.263 24.445l.077.012M262.114 22.341l-.047.002M262.284 22.373l-.17-.032M261.57 22.425l-.047.01M261.523 22.435l-.02.009M263.468 22.673l-.453-.161M263.015 22.512l-.73-.138M262.159 22.846l-.06-.011M266.263 24.445l-.512-.167M265.752 24.278l-.717-.312"/><path class="st3" d="M263.057 22.529h.108a.108.108 0 10-.216 0 .108.108 0 00.216 0h-.108z"/><path class="st2" d="M262.068 22.343l-.498.082M260.409 26.947l-.002-.001M260.407 26.416l.002-.001M261.844 23.776v-.127M261.844 23.531v-.103M261.844 23.649v-.118M261.633 23.229h-.523M262.881 22.985l-.722-.139M263.317 23.139l-.436-.153"/><path class="st3" d="M261.163 23.862h.108a.108.108 0 00-.108-.108.108.108 0 00-.108.108.108.108 0 00.216 0h-.108z"/><path class="st2" d="M261.254 23.818l-.091.044M261.352 23.802l-.098.017M261.45 23.818l-.098-.016M261.541 23.862l-.091-.044"/><path class="st3" d="M261.541 23.862h.108a.108.108 0 10-.216 0 .108.108 0 00.216 0h-.108z"/><path class="st2" d="M261.697 26.359l-.346-.026M261.352 26.333l-.345.026M261.768 26.376l-.072-.017M260.686 26.435l-.196.052M261.007 26.359l-.321.076M261.721 24.029l.009.062M260.49 26.487l-.083.037M260.936 26.376l.02-.688M260.974 24.092l.009-.062M260.983 24.029l.026-.058M261.009 23.971l.042-.049M261.051 23.922l.055-.038M261.106 23.884l.056-.021M261.163 23.862l.007-.002M261.17 23.86l.068-.009M261.238 23.851h.228M261.466 23.851l.068.009M261.534 23.86l.007.002M261.541 23.863l.056.021M261.597 23.884l.055.038M261.653 23.922l.042.05M261.695 23.971l.026.059M260.955 25.687l.019-1.596M261.739 24.892l-.009-.801M261.844 24.589h-.108M260.968 24.589h-.561M259.5 34.55v5.343M260.407 34.55v5.343M259.5 39.892h.907M256.44 22.549h1.36M256.591 23.078h1.058M256.591 23.38h1.058M258.065 23.38v1.209M261.844 24.589V23.38M259.5 21.868h.907M259.5 23.229v3.816M260.407 29.011v-5.783M258.065 24.589h1.436M259.009 24.892h.492M259.009 25.458h.492M260.898 24.892v1.493M260.407 37.227a1.89 1.89 0 11-.907 0M258.065 24.506a.34.34 0 110-.589M299.126 36.558l-.469 1.645m0-.001l-.718 1.552m0 0l-.968 1.23m0 0l-1.248.943m0 0l-1.448.593m0 .001l-1.551.206m0 0l-1.551-.206m0 0l-1.447-.593m0-.001l-1.249-.943m0 0l-.967-1.23m0 0l-.719-1.552m0 0l-.469-1.645m0 .001l-.207-1.697m0-.001l.059-1.709m0 0l1.223-11.585m0 .001h10.654m0 0l1.223 11.585m0-.001l.06 1.709m0 0l-.208 1.697M288.607 27.287h4.117M292.724 27.287h4.117M292.724 42.441a5.74 5.74 0 01-3.063-.887M289.66 41.554c-2.217-1.723-3.414-4.238-3.249-6.83M286.412 34.725c-.07-2.609.69-5.185 2.195-7.437M296.841 27.287c1.505 2.253 2.265 4.828 2.195 7.437M299.035 34.725c.165 2.591-1.031 5.106-3.248 6.83M295.787 41.554a5.753 5.753 0 01-3.064.887M288.076 21.566h9.296m0 0v.189m0 0h-9.296m0 0v-.189M302.17 21.566h-18.893M302.17 17.032h-18.893M302.17 21.566v-4.534M283.277 21.566v-4.534M322.575 126.14H257.96m0 0V99.312m0 0h64.615m0 0v26.828M315.036 101.458l.935.082m0 0l.907.242m0 0l.85.395m0 0l.769.536m0 0l.664.662m0 0l.539.766m0 0l.396.847m0 0l.243.904m0 0l.082.932m0 0v11.804m0 0l-.082.932m0 0l-.243.903m0 0l-.396.848m0 0l-.539.766m0 0l-.664.661m0 0l-.769.537m0 0l-.85.395m0 0l-.907.242m0 0l-.935.082m0 0h-43.615m0 0l-1.963-.172m0 0l-1.904-.508m0 0l-1.787-.83m0 0l-1.614-1.127m0 0l-1.394-1.388m0 0l-1.13-1.609m0 0l-.833-1.78m0 0l-.51-1.897m0 0l-.172-1.957m0 0l.172-1.957m0 0l.51-1.897m0 0l.833-1.78m0 0l1.13-1.609m0 0l1.394-1.389m0 0l1.614-1.126m0 0l1.787-.83m0 0l1.904-.509m0 0l1.963-.171m0 0h43.615M314.451 112.726a.945.945 0 11-1.89-.001.945.945 0 011.89.001zM292.658 150.301l-1.645-.469m0 0l-1.552-.718m0 0l-1.23-.967m0 0l-.943-1.249m0 0l-.593-1.448m0 0l-.206-1.551m0 0l.206-1.551m0 0l.593-1.447m0 0l.943-1.249m0 0l1.23-.967m0 0l1.552-.719m0 0l1.645-.469m0 0l1.697-.207m0 0l1.71.059m0 0l11.584 1.223m0 0v10.654m0 0l-11.584 1.223m0 0l-1.71.06m0 0l-1.697-.208M301.928 139.783v4.116M301.928 143.899v4.117M286.775 143.899a5.732 5.732 0 01.887-3.063M287.661 140.836c1.723-2.217 4.238-3.413 6.829-3.248M294.491 137.588c2.609-.07 5.185.689 7.437 2.195M301.928 148.016c-2.252 1.505-4.828 2.266-7.437 2.195M294.491 150.211c-2.591.165-5.106-1.031-6.829-3.249M287.661 146.963a5.743 5.743 0 01-.887-3.063M307.649 139.252v9.295m0 0h-.189m0 0v-9.295m0 0h.189M307.649 153.346v-18.893M312.184 153.346v-18.893M307.649 153.346h4.535M307.649 134.453h4.535M307.649 194.344v-29.1m0 0l-.166-.401m0 0l-.401-.166m0 0h-14.358m0 0l-.401.166m0 0l-.166.401m0 0v29.1m0 0l.166.401m0 0l.401.166m0 0h14.358m0 0l.401-.166m0 0l.166-.401M303.493 193.211v-12.964m0-.907v-12.962M302.926 165.81h-9.068M293.291 166.377v26.833M293.858 193.777h9.068M302.926 165.81c.313 0 .567.254.567.567M293.291 166.377c0-.313.253-.567.567-.567M293.858 193.777a.567.567 0 01-.567-.566M303.493 193.211a.567.567 0 01-.567.566M301.006 180.247a.755.755 0 01-1.209 0h1.209zm-1.209-.907a.756.756 0 011.209 0h-1.209zM307.12 179.341v.907m0 0h-7.749m0 0l-.3-.257m0 0v-.394m0 0l.3-.256m0 0h7.749M307.12 180.55v-1.511m0 0h.265m0 0v1.511m0 0h-.265M307.385 180.927v-2.268m0 0h.264m0 0v2.268m0 0h-.264M305.76 183.062h1.625m0 0v-.094m0 0h.132m0 0v-.284m0 0h.132m0 0v1.89m0 0h-.132m0 0v-.284m0 0h-.132m0 0v-.094m0 0h-1.625m0 0v-.322m0 0h-.416m0 0v1.078m0 0h-.491m0 0v-2.646m0 0h.491m0 0v1.077m0 0h.416m0 0v-.321M305.76 176.525h1.625m0 0v.095m0 0h.132m0 0v.283m0 0h.132m0 0v-1.889m0 0h-.132m0 0v.283m0 0h-.132m0 0v.095m0 0h-1.625m0 0v.321m0 0h-.416m0 0v-1.077m0 0h-.491m0 0v2.645m0 0h.491m0 0v-1.077m0 0h.416m0 0v.321M305.344 183.875l-.072-.072M305.344 183.384l-.072.072M305.76 183.875v-.491M307.385 184.196v-1.134M307.517 182.968v1.322M305.344 175.713l-.072.072M305.344 176.204l-.072-.072M305.76 175.713v.492M307.385 175.392v1.133M307.517 176.62v-1.322M305.344 183.629a.246.246 0 11-.492 0 .246.246 0 01.492 0zM305.344 175.958a.246.246 0 11-.492 0 .246.246 0 01.492 0zM307.649 194.911h-62.347M245.302 194.911v32.118M301.981 220.417a.944.944 0 11-1.889 0 .944.944 0 011.889 0zM279.257 214.046l1.397-.372m0 0l1.208-.793m0 0l.898-1.132m0 0l.497-1.358m0 0l.042-1.445m0 0l-.413-1.385m0 0l-.828-1.184m0 0l-1.159-.864m0 0l-1.373-.455m0 0h-1.445m0 0l-1.372.455m0 0l-1.159.864m0 0l-.829 1.184m0 0l-.413 1.385m0 0l.043 1.445m0 0l.496 1.358m0 0l.898 1.132m0 0l1.208.793m0 0l1.397.372m0 0v5.538m0 0l-.455-.108m0 0l-.49-.037m0 0l-.488.037m0 0l-.456.108m0 0l-.392.172m0 0l-.3.225m0 0l-.188.261m0 0l-.065.281m0 0v.402m0 0l.02.12m0 0l.063.278m0 0l.055.103m0 0l.181.251m0 0l.078.07m0 0l.274.205m0 0l.357.157m0 0l.195.052m0 0l.25.059m0 0l.02.688m0 0l.009.796m0 0h-1.728m0 0v.435m0 0h-2.872m0 0l-.16.058m0 0l-.083.149m0 0l.033.167m0 0l.133.105m0 0l.486.157m0 0l.726.315m0 0l1.007.574m0 0l.73.258m0 0v.125m0 0h-.605m0 0v.982m0 0h2.569m0 0v-.877m0 0l.063-.038m0 0l.032-.034m0 0l.026-.04m0 0l.278-.673m0 0h.697m0 0v1.36m0 0h-1.058m0 0v.302m0 0h3.023m0 0v-.302m0 0h-1.058m0 0v-1.36m0 0h1.436m0 0v-.151m0 0h.416m0 0v.302m0 0h-.151m0 0v.529m0 0h-.605m0 0v.982m0 0h2.57m0 0v-.982m0 0h-.605m0 0v-.529m0 0h-.151m0 0v-.302m0 0h.151m0 0v-1.512m0 0h-2.57m0 0v-2.154m0 0h-.082m0 0h-.094m0 0h-.123m0 0h-.15m0 0h-.042m0 0v-7.504M276.914 225.366h.209m0 0l-.14.341m0 0l-.325.053m0 .001l-.008-.002m0 0v-.241m0 0h-.152m0 0v-.302m0 0h.416m0 0v.151M275.441 225.216v.24m0 0l-.677-.239m0 0l-.987-.563m0 0l-.053-.024m0 0h1.566m0 0v.586m0 0h.151M281.298 226.047v-.529M281.978 226.047v-.529M275.641 226.047h-.352M276.499 225.518h-.189M276.31 225.518h-.68M275.629 225.518h-.013M276.31 225.694v-.176M275.629 225.523v-.005M275.441 225.216h1.058M277.793 223.704h.558M275.29 224.63v-.491M277.859 223.138h.491M272.494 224.151l-.076-.012M276.643 226.254l.047-.002M276.473 226.222l.17.032M277.188 226.171l.046-.01M277.235 226.16l.02-.009M275.29 225.922l.453.161M275.742 226.083l.731.139M276.599 225.75l.059.01M272.494 224.151l.512.167M273.006 224.318l.718.312M275.7 226.066h.001M276.69 226.252l.498-.082M278.348 221.649l.002.001M278.35 222.179l-.002.002M276.914 224.819v.128M276.914 225.064v.103M276.914 224.947v.117M277.124 225.366h.524M275.876 225.61l.723.14M275.441 225.456l.436.154"/><path class="st3" d="M277.595 224.733h.108a.108.108 0 10-.216 0 .108.108 0 00.216 0h-.108z"/><path class="st2" d="M277.504 224.778l.091-.044M277.405 224.793l.098-.015M277.308 224.778l.098.015M277.217 224.733l.091.044"/><path class="st3" d="M277.217 224.733h.108a.108.108 0 10-.216 0 .108.108 0 00.216 0h-.108z"/><path class="st2" d="M277.061 222.237l.345.026M277.405 222.263l.346-.026M276.99 222.22l.07.017M278.072 222.161l.195-.053M277.75 222.237l.321-.077M277.037 224.566l-.009-.062M278.267 222.109l.083-.036M277.822 222.22l-.02.688M277.783 224.504l-.009.062M277.775 224.566l-.026.058M277.748 224.624l-.042.05M277.706 224.674l-.055.038M277.651 224.712l-.056.021M277.594 224.733l-.007.003M277.588 224.736l-.07.008M277.519 224.744h-.227M277.292 224.744l-.068-.008M277.224 224.736l-.007-.003M277.216 224.733l-.056-.021M277.16 224.712l-.055-.038M277.105 224.674l-.042-.05M277.063 224.624l-.026-.058M277.802 222.908l-.019 1.596M277.018 223.704l.01.8M276.914 224.006h.107M277.789 224.006h.561M279.257 214.046v-5.343M278.35 214.046v-5.343M279.257 208.703h-.907M282.318 226.047h-1.36M282.167 225.518h-1.058M282.167 225.216h-1.058M280.693 225.216v-1.209M276.914 224.006v1.209M279.257 226.727h-.907M279.257 225.366v-3.816M278.35 219.584v5.783M280.693 224.006h-1.436M279.748 223.704h-.491M279.748 223.138h-.491M277.859 223.704v-1.493M278.35 211.368a1.889 1.889 0 11.907 0M280.693 224.09a.339.339 0 01.464.125.34.34 0 01-.464.464M123.63 273.214H31.054m0 0v-15.2m0 0h92.576m0 0v15.2M123.63 272.458H31.054M77.342 273.214v-.756M123.63 273.214v-.756M307.082 99.312v-61.97M322.575 99.312v-61.97M307.082 37.342h15.493M307.082 99.312h15.493M308.216 92.51V75.128M308.216 75.128h11.714M319.93 75.128v3.533m0 2.645v2.059m0 .907v2.06m0 2.645v3.533M319.93 92.51h-11.714M308.216 61.525V44.143M308.216 44.143h11.714M319.93 44.143v3.533m0 2.645v2.06m0 .907v2.06m0 2.644v3.533M319.93 61.525h-11.714M318.346 84.272a1.135 1.135 0 01-2.079 0h2.079zm-2.078-.907a1.133 1.133 0 012.077 0h-2.077zM318.346 53.288a1.135 1.135 0 01-2.078 0h2.078zm-2.079-.907a1.134 1.134 0 012.078 0h-2.078zM322.046 83.365v.907m0 .001h-7.749m0 0l-.3-.256m0 0v-.395m0-.001l.3-.256m0 0h7.749M322.046 84.575v-1.512m0 0h.264m0 0v1.512m0 0h-.264M322.31 84.953v-2.268m0 0h.265m0 0v2.268m0 0h-.265M320.686 87.088h1.625m0 0v-.095m0 0h.132m0 0v-.283m0 0h.132m0 0v1.89m0 0h-.132m0 0v-.284m0 0h-.132m0 0v-.094m0 0h-1.625m0 0V87.9m0 0h-.416m0 0v1.078m0 0h-.491m0 0v-2.646m0 0h.491m0 0v1.077m0 0h.416m0 0v-.321M320.686 80.551h1.625m0 0v.095m0 0h.132m0 0v.283m0 0h.132m0 0v-1.89m0 0h-.132m0 0v.284m0-.001h-.132m0 0v.094m0 .001h-1.625m0 0v.322m0 0h-.416m0 0v-1.078m0 0h-.491m0 0v2.646m0 0h.491m0 0V80.23m0 0h.416m0 0v.321M322.046 52.381v.907m0 0h-7.749m0 0l-.3-.256m0 0v-.395m0 0l.3-.256m0 0h7.749M322.046 53.59v-1.512m0 0h.264m0 0v1.512m0 0h-.264M322.31 53.968V51.7m0 0h.265m0 0v2.268m0 0h-.265M320.686 56.103h1.625m0 0v-.094m0 0h.132m0 0v-.284m0 0h.132m0 0v1.889m0 0h-.132m0 0v-.283m0 0h-.132m0 0v-.095m0 0h-1.625m0 0v-.321m0 0h-.416m0 0v1.077m0 0h-.491m0 0v-2.645m0 0h.491m0 0v1.077m0 0h.416m0 0v-.321M320.686 49.566h1.625m0 0v.094m0 0h.132m0 0v.284m0 0h.132m0 0v-1.889m0 0h-.132m0 0v.283m0 0h-.132m0 0v.095m0 0h-1.625m0 0v.321m0 0h-.416m0 0v-1.077m0 0h-.491m0 0v2.645m0 0h.491m0 0v-1.077m0 0h.416m0 0v.321M320.27 87.9l-.072-.072M320.27 87.409l-.072.072M320.686 87.9v-.491M322.31 88.222v-1.135M322.443 86.993v1.323M320.27 79.738l-.072.072M320.27 80.229l-.072-.072M320.686 79.738v.491M322.31 79.417v1.134M322.443 80.645v-1.323M320.27 56.915l-.072-.072M320.27 56.424l-.072.072M320.686 56.915v-.491M322.31 57.236v-1.133M322.443 56.009v1.322M320.27 48.754l-.072.072M320.27 49.245l-.072-.072M320.686 48.754v.491M322.31 48.432v1.133M322.443 49.66v-1.322M320.27 87.655a.246.246 0 11-.492 0 .246.246 0 01.492 0zM320.27 79.984a.246.246 0 11-.492 0 .246.246 0 01.492 0zM320.27 56.67a.246.246 0 11-.492 0 .246.246 0 01.492 0zM320.27 48.999a.246.246 0 11-.492 0 .246.246 0 01.492 0zM114.032 376.663v-1.89m0 0h-73.38m0 0v1.89m0 0h73.381M114.032 338.877h-36.69m0 0v26.45m0 0h36.69m0 0v-26.45M77.342 338.877H40.651m0 0v26.45m0 0h36.691m0 0v-26.45M40.651 338.877h-9.597m0 0v37.786m0 0h9.597m0 0v-37.786M123.63 338.877h-9.598m0 0v37.786m0 0h9.598m0 0v-37.786M77.342 374.773v-9.446m0 0h-41.49m0 0v9.446m0 0h41.49M77.342 374.773v-9.446m0 0h41.489m0 0v9.446m0 0H77.342M219.607 330.563v-22.672m0 0h22.672m0 0v22.672m0 0h-22.672M234.722 319.228h-7.558M233.615 321.9l-5.344-5.344M230.943 323.006v-7.557M228.271 321.9l5.344-5.344M214.506 356.825h-19.271m0 0l-.534.222m0 0l-.222.534m0 0v17.382m0 0l.222.534m0 0l.534.221m0 0h19.271m0 0l.534-.221m0 0l.222-.534m0 0v-17.382m0 0l-.222-.534m0 0l-.534-.222M216.207 353.991h-22.672M216.207 376.663h-22.672M216.207 353.991v22.672M193.535 353.991v22.672M212.617 358.714h-15.493M196.368 359.47v11.714M197.124 371.94h15.493M213.372 371.184V359.47"/><path class="st3" d="M212.617 358.714h.108c0-.059-.049-.108-.108-.108s-.108.049-.108.108a.108.108 0 00.216 0h-.108z"/><path class="st2" d="M196.368 359.47c0-.417.338-.756.756-.756M197.124 371.94a.756.756 0 01-.756-.756M213.372 371.184a.756.756 0 01-.755.756M212.617 358.714c.417 0 .755.338.755.756M205.211 367.107l-.101-.24m0 0l-.24-.099m0 0l-.24.1m0 0l-.099.24m0 0v7.477m0 0l.099.24m0 0l.241.099m0 0l.24-.099m0 0l.1-.24m0 0v-7.478M205.625 372.658h-.415m0 0v1.927m0 0l-.099.24m0 0l-.241.1m0 0l-.24-.1m0 0l-.1-.24m0 0v-1.927m0 0h-.414m0 0v2.456m0-.001h1.509m0 0v-2.456M205.615 371.297h-.404m0 0v1.323m0 0h.404m0 0v-1.323M204.127 371.297v1.323m0 0h.404m0 0v-1.323m0 0h-.404M219.607 330.563v22.672M242.279 330.563v22.672M219.607 330.563h22.672M219.607 353.235h22.672M140.823 374.585h21.916m0 0v-18.516m0 0h-21.916m0 0v18.516M151.78 363.304v-5.298M151.78 358.006h1.097M151.78 363.304h1.097M160.635 363.304v-5.298M159.539 358.006h1.096M159.539 363.304h1.096M148.274 360.439a2.74 2.74 0 11-5.48 0 2.74 2.74 0 015.48 0zM150.774 368.678a3.968 3.968 0 11-7.936 0 3.968 3.968 0 017.936 0z"/><path class="st2" d="M149.073 368.678a2.268 2.268 0 11-4.536 0 2.268 2.268 0 014.536 0zM158.853 360.624a2.646 2.646 0 11-5.291 0 2.646 2.646 0 015.291 0zM160.726 369.215a3.4 3.4 0 11-6.802 0 3.4 3.4 0 016.802 0zM132.699 376.663h38.164M132.699 353.991h38.164M132.699 376.663v-22.672M170.863 376.663v-22.672M193.535 353.991h-22.672M193.535 376.663h-22.672M193.535 353.991v22.672M170.863 353.991v22.672M263.817 365.327a7.179 7.179 0 01-7.18 7.179 7.179 7.179 0 110-14.358 7.179 7.179 0 017.18 7.179zM232.414 338.743a3.411 3.411 0 11-6.822 0 3.411 3.411 0 016.822 0z"/><path class="st2" d="M231.892 338.743a2.89 2.89 0 11-5.78 0 2.89 2.89 0 015.78 0zM230.75 345.051a2.58 2.58 0 11-5.16-.001 2.58 2.58 0 015.16.001z"/><path class="st2" d="M229.615 345.051a1.445 1.445 0 11-2.89 0 1.445 1.445 0 012.89 0zM59.582 20.905a3.778 3.778 0 11-7.557 0 3.778 3.778 0 017.557 0z"/><path class="st2" d="M56.937 20.905a1.134 1.134 0 11-2.267 0 1.134 1.134 0 012.267 0zM148.38 20.905a3.778 3.778 0 11-7.557 0 3.778 3.778 0 017.557 0z"/><path class="st2" d="M145.735 20.905a1.134 1.134 0 11-2.267 0 1.134 1.134 0 012.267 0zM137.044 138.609a3.778 3.778 0 11-7.556 0 3.778 3.778 0 017.556 0z"/><path class="st2" d="M134.399 138.609a1.134 1.134 0 11-2.268 0 1.134 1.134 0 012.268 0zM48.246 138.609a3.778 3.778 0 11-7.557 0 3.778 3.778 0 017.557 0z"/><path class="st2" d="M45.601 138.609a1.134 1.134 0 11-2.268 0 1.134 1.134 0 012.268 0zM242.279 252.724v-22.672m0 0h80.296m0 0v22.672m0 0h-80.296M322.575 241.01v.756m0 0h-80.296m0 0v-.756m0 0h80.296M248.205 250.731v-18.626m0 0h.755m0 0v18.626m0 0h-.755M250.209 250.731v-18.626m0 0h.756m0 0v18.626m0 0h-.756M252.214 250.731v-18.626m0 0h.756m0 0v18.626m0 0h-.756M254.218 250.731v-18.626m0 0h.755m0 0v18.626m0 0h-.755M258.465 250.596l-2.242-18.491m0-.001l.751-.091m-.001 0l2.241 18.491m.001.001l-.75.091M183.143 129.163h-22.671m0 0v64.992m0 0h22.671m0 0v-64.992M171.429 194.155h.756m0 0v-64.992m0 0h-.756m0 0v64.992M181.151 136.6h-18.626m0 0v.756m0 0h18.626m0 0v-.756M181.151 138.604h-18.626m0 0v.755m0 0h18.626m0 0v-.755M181.151 140.609h-18.626m0 0v.756m0 0h18.626m0 0v-.756M181.151 142.613h-18.626m0 0v.756m0 0h18.626m0 0v-.756M181.016 146.859l-18.491-2.241m-.001 0l-.091.75m0 0l18.491 2.241m0 0l.091-.75M178.798 11.458h61.97m0 0V34.13m0 0H201.47m0 0v51.956m0 0h-22.672m0 0V11.458M190.512 86.086h-.756m0 0v-63.67m0 0l.756.756m0 0v62.914M231.731 13.103v18.626m0 0h-.755m0 0V13.103m0 0h.755M229.726 13.103v18.626m0 0h-.756m0 0V13.103m0 0h.756M227.721 13.103v18.626m0 0h-.756m0 0V13.103m0 0h.756M225.716 13.103v18.626m0 0h-.755m.001 0V13.103m0 0h.755M221.471 13.616l2.242 18.491m0 0l-.751.091m0 0l-2.241-18.491m0 0l.75-.091M240.768 22.416v.756m0 0h-50.256m0 0l-.756-.756m0 0h51.012M245.302 376.663v-24.562m0 0h61.793m0 0v24.562m0 0h-61.793M307.095 364.949v.756m0 0h-39.122m0 0v-.756m0 0h39.122M275.411 374.67v-18.626m0 0h.755m0 0v18.626m0 0h-.755M277.415 374.67v-18.626m0 0h.756m0 0v18.626m0 0h-.756M279.42 374.67v-18.626m0 0h.756m0 0v18.626m0 0h-.756M281.425 374.67v-18.626m0 0h.755m0 0v18.626m0 0h-.755M285.671 374.535l-2.242-18.491m0 0l.751-.091m0 0l2.241 18.491m0 0l-.75.091M299.903 312.426h22.672m0 0v39.675m0 0h-22.672m0 0v-39.675M311.617 352.101h-.756m0 0v-39.675m0 0h.756m0 0v39.675M301.896 319.863h18.626m0 0v.756m0 0h-18.626m0 0v-.756M301.896 321.867h18.626m0 0v.756m0 0h-18.626m0 0v-.756M301.896 323.872h18.626m0 0v.755m0 0h-18.626m0 0v-.755M301.896 325.877h18.626m0 0v.756m0 0h-18.626m0 0v-.756M302.031 330.123l18.491-2.241m.001 0l.091.75m0 0l-18.491 2.241m0 0l-.091-.75M262.646 364.811l-1.233.449m0 0h-1.312m0 0l-1.234-.449m0 0l-1.473.342m0 0h-1.512m0 0l-1.473-.342m0 0l-1.235.45m0 0h-1.314m0 0l-1.235-.45m0 0l2.232 2.987m0 0h7.558m0 0l2.231-2.987M260.414 368.06h-7.557m0 0v-.262m0 0h7.557m0 0v.262M260.414 368.583h-7.557m0 0v-.261m0 0h7.557m0 0v.261M255.794 363.296l.891-.085m0 0l.022.226m0 0l-.477.046m0 0l1.383 1.142m0 0l-.126.152m0 0l-.642-.53m0 0l-.067.081m0 0l.74.611m0 0l-.121.146m0 0l-.739-.61m0 0l-.081.097m0 0l.601.497m0 0l-.107.13m0 0l-.601-.497m0 0l-.081.098m0 0l.415.342m0 0l-.116.14m0 0l-1.422-1.174M267.974 353.991h-22.672m0 0v22.672m0 0h22.672m0 0v-22.672M54.453 264.269v-1.02m0 0h44.369m0 0v1.02m0 0H54.453M55.857 263.25l-.709-3.41m0 0l-.68.141m0 0l.68 3.269m0 0h.709M64.154 263.25v-.833m0 0l.152-.566m0 0l.415-.415m0 0l.567-.152m0 0h22.699m0 0l.566.152m0 0l.415.415m0 0l.153.566m0 0v.833m0 0H64.154M55.857 264.627l-.709 3.41m0 0l-.68-.141m0 0l.68-3.269m0 0h.709M97.418 263.25l.709-3.41m0 0l.681.141m0 0l-.681 3.269m0 0h-.709M97.418 264.567l.709 3.41m0 0l.681-.141m0 0l-.681-3.269m0 0h-.709M54.453 264.567v-.298m0 0h44.369m0 0v.298m0 0H54.453M54.859 208.514h68.015m0 0v-75.573m0 0H54.859m0 0v75.573M56.748 210.403h64.237m0 0l.722-.144m0 0l.614-.409m0 0l.409-.613m0 0l.144-.723m0 0H54.859m0 0l.143.723m0 0l.41.613m0 0l.613.409m0 0l.723.144M54.859 129.163h68.015m0 0v3.778m0 0H54.859m0 0v-3.778M122.874 129.163H54.859m0 0v1.889m0 0h68.015m0 0v-1.889M124.764 129.163h17.004m0 0v18.893m0 0h-17.004m0 0v-18.893M52.97 129.163H35.966m0 0v18.893m0 0H52.97m0 0v-18.893M94.913 134.831h25.694m0 0l.267.11m0 0l.111.267m0 0v12.47m0 0l-.111.267m0 0l-.267.111m0 0H94.913m0 0l-.268-.111m0 0l-.11-.267m0 0v-12.47m0 0l.11-.267m0 0l.268-.11M82.821 134.831H57.126m0 0l-.267.11m0 0l-.111.267m0 0v12.47m0 0l.111.267m0 0l.267.111m0 0h25.695m0 0l.267-.111m0 0l.111-.267m0 0v-12.47m0 0l-.111-.267m0 0l-.267-.11M54.859 147.032h1.889M83.199 147.032h11.336M120.985 147.032h1.889M54.859 152.042h68.015m0 0v18.686m0 0L54.859 155.82m0 0v-3.778M66.195 90.81h68.015m0 0V15.237m0 0H66.195m0 0V90.81M68.084 92.699h64.237m0 0l.723-.144m0 0l.613-.409m0 0l.409-.614m0 0l.144-.722m0 0H66.195m0 0l.143.722m0 0l.41.614m0 0l.613.409m0 0l.723.144M66.195 11.458h68.015m0 0v3.779m0 0H66.195m0 0v-3.779M134.21 11.458H66.195m0 0v1.889m0 0h68.015m0 0v-1.889M136.099 11.458h17.004m0 0v18.893m0 0h-17.004m0 0V11.458M64.305 11.458H47.301m0 0v18.893m0 0h17.004m0 0V11.458M106.248 17.126h25.695m0 0l.267.111m0 0l.111.267m0 0v12.469m0 0l-.111.268m0 0l-.267.11m0 0h-25.695m0 0l-.267-.11m0 0l-.111-.268m0 0V17.504m0 0l.111-.267m0 0l.267-.111M94.157 17.126H68.463m0 0l-.267.111m-.001 0l-.111.267m0 0v12.469m0 0l.111.268m0 0l.267.11m.001 0h25.694m0 0l.268-.11m-.001 0l.11-.268m0 0V17.504m0 0l-.11-.267m0 0l-.268-.111M66.195 29.328h1.889M94.535 29.328h11.335M132.321 29.328h1.889M66.195 34.337h68.015m0 0v18.686m0 0L66.195 38.116m0 0v-3.779M226.795 334.674v.963m0 0h-1.205m0 0v12.524m0 0h1.205m0 0v.964M236.799 336.138v9.634m0-.001h-.479m.001 0v-.722m0 0h.238m-.001 0v-8.189m0 0h-.238m.001 0v-.723m0 .001h.479M236.321 336.138l-.103.048m-.103.047l-.104.047m-.102.046l-.104.047m-.103.048l-.103.048m-.103.046l-.103.048m-.103.047l-.103.047m-.103.046l-.103.047m-.103.049l-.103.047m-.103.047l-.103.047m-.103.047l-.103.046m-.104.049l-.103.047m-.103.047l-.103.047m-.103.047l-.103.047m-.103.047l-.103.046m-.103.049l-.103.047m-.104.047l-.103.047m-.103.047l-.103.048M236.321 345.772l-.103-.047m-.103-.047l-.104-.048m-.102-.046l-.104-.048m-.103-.047l-.103-.047m-.103-.047l-.103-.047m-.103-.048l-.103-.047m-.103-.047l-.103-.047m-.103-.048l-.103-.047m-.103-.046l-.103-.048m-.103-.047l-.103-.047m-.104-.047l-.103-.047m-.103-.048l-.103-.046m-.103-.048l-.103-.047m-.103-.047l-.103-.047m-.103-.047l-.103-.048m-.104-.047l-.103-.047m-.103-.047l-.103-.047M236.321 336.138v.078m0 .113v.114m0 .112v.114m0 .114v.078m0-.001l-.051.042m-.088.072l-.089.072m-.087.07l-.088.072m-.088.072l-.089.071m-.087.071l-.088.071m-.088.073l-.089.071m-.088.071l-.087.071m-.088.073l-.089.071m-.088.071l-.087.071m-.088.072l-.088.072m-.089.071l-.088.072m-.087.071l-.088.072m-.089.071l-.088.071m-.087.072l-.088.071m-.089.072l-.088.072m-.088.071l-.087.071m-.089.071l-.088.072m-.088.072l-.088.071m-.088.071l-.088.071m-.088.071l-.088.072m-.087.072l-.089.072m-.088.07l-.088.072m-.088.072l-.051.042M236.321 345.772v-.078m0-.113v-.114m0-.113v-.113m0-.114v-.077m0 0l-.051-.042m-.088-.072l-.089-.071m-.087-.072l-.088-.071m-.088-.072l-.089-.071m-.087-.072l-.088-.071m-.088-.072l-.089-.071m-.088-.071l-.087-.072m-.088-.071l-.089-.072m-.088-.071l-.087-.072m-.088-.071l-.088-.071m-.089-.072l-.088-.071m-.087-.072l-.088-.071m-.089-.072l-.088-.071m-.087-.072l-.088-.071m-.089-.072l-.088-.071m-.088-.071l-.087-.072m-.089-.071l-.088-.072m-.088-.071l-.088-.072m-.088-.071l-.088-.071m-.088-.072l-.088-.071m-.087-.072l-.089-.072m-.088-.071l-.088-.071m-.088-.072l-.051-.041M219.607 353.235h22.672m0 0v23.428m0 0h-26.072m0 0v-22.672m0 0h3.4m0 0v-.756M52.124 21.766l3.679-.86m0-.001l1.584-3.431m0 0l-1.584 3.431m0 0l1.306 3.545M148.281 21.766l-3.68-.86m0-.001l-1.583-3.431m0 0l1.583 3.431m0 0l-1.306 3.545M136.945 137.749l-3.679.86m0 0l-1.584 3.431m0 0l1.584-3.431m0 0l-1.306-3.545M40.788 137.749l3.68.86m0 0l1.583 3.431m0 0l-1.583-3.431m0 0l1.306-3.545M189.162 293.701l-4.109-4.109m0 0l-.426-.407m0 0l-.43-.371m0 0l-.424-.328m0 0l-.403-.276m0 0l-.017-.009m.001 0l-.375-.216m0 0l-.332-.147m-.001 0l-.025-.008m0 0l-.281-.075m0 0l-.028-.004m0 0l-.22.002m0 0l-.03.002m0 0l-.029.007m0 0l-.027.013m.001 0l-.154.078m-.001 0l-.024.018m0 0l-.012.01m0 0l-1.133 1.134m0 0l-1.03-1.029m0 0l-5.217 5.217m11.115 11.116l5.217-5.218m0 0l-1.029-1.029m0 0l1.134-1.134m0 0l.011-.011m0 0l.017-.025m0 0l.078-.154m0 0l.013-.027m0 0l.008-.029m.001 0l.002-.029m0 0l.001-.221m-.001 0l-.003-.028m.001 0l-.075-.281m-.001 0l-.008-.025m0 0l-.148-.332m.001 0l-.214-.376m-.001 0l-.011-.016m0 0l-.276-.404m0 0l-.328-.423m0 0l-.371-.429m0 0l-.407-.427M180.015 289.684l9.057 9.057M180.138 289.807l.897-.898M188.947 298.617l.898-.898M185.074 302.737l4.665-4.664M176.018 293.68l4.664-4.664M184.024 290.614l4.117 4.117M181.035 288.909c.354-.354 1.691.409 2.988 1.706M188.14 294.731c1.296 1.296 2.06 2.634 1.705 2.988M152.564 322.083l4.108 4.108m0 0l.427.408m0 0l.43.371m0 0l.423.328m0 0l.404.275m0 0l.016.011m0 0l.376.215m0 0l.332.147m0 0l.024.008m0 0l.281.075m0 0l.029.003m0 0l.22-.001m0 0l.03-.002m0 0l.028-.008m0 0l.027-.012m0 0l.154-.078m0 0l.025-.018m0 0l.011-.011m0 0l1.134-1.133m0 0l1.029 1.029m0 0l5.218-5.218m-11.116-11.114l-5.216 5.217m0 0l1.029 1.029m0 0l-1.135 1.134m0 0l-.01.011m0 0l-.017.025m0 0l-.078.153m0 0l-.013.027m0 0l-.008.03m0 0l-.002.029m0 0l-.001.221m0 0l.003.027m0 0l.074.282m0 0l.009.025m0 0l.147.332m0 0l.215.375m0 0l.01.016m0 0l.276.404m0 0l.329.424m0 0l.371.429m0 0l.407.427M161.711 326.101l-9.057-9.057M161.588 325.977l-.898.898M152.778 317.167l-.897.897M156.651 313.047l-4.664 4.664M165.708 322.103l-4.664 4.665M157.702 325.17l-4.117-4.117M160.69 326.875c-.354.354-1.692-.409-2.988-1.705M153.585 321.053c-1.296-1.296-2.06-2.634-1.705-2.988M156.672 289.592l-4.108 4.109m0 0l-.408.427m0 0l-.371.429m0 0l-.329.423m0 0l-.275.404m0 0l-.01.016m0 0l-.216.376m0 0l-.146.332m0 0l-.009.025m0 0l-.074.281m0 0l-.003.028m0 0l.001.221m0 0l.002.029m0 0l.008.029m0 0l.012.027m0 0l.078.154m0 0l.018.024m0 0l.01.012m0 0l1.134 1.133m0 0l-1.029 1.03m0 0l5.217 5.217m11.115-11.114l-5.218-5.217m0-.001l-1.028 1.029m0 0l-1.135-1.134m0 0l-.01-.01m0 0l-.026-.018m0 0l-.153-.078m0 0l-.027-.013m0 0l-.029-.007m0 0l-.029-.002m0 0l-.221-.002m0 0l-.028.004m0 0l-.281.075m0 0l-.025.008m0 0l-.332.147m0 0l-.376.215m0 0l-.015.01m0 0l-.405.276m0 0l-.423.328m0 0l-.429.371m0 0l-.427.407M152.655 298.74l9.057-9.057M152.778 298.617l-.897-.898M161.588 289.807l-.898-.898M165.708 293.68l-4.664-4.664M156.651 302.736l-4.664-4.663M153.585 294.731l4.117-4.117M151.88 297.719c-.354-.354.409-1.692 1.705-2.988M157.701 290.614c1.297-1.296 2.635-2.059 2.988-1.705M185.053 326.191l4.109-4.108m0 0l.408-.427m0 0l.371-.43m0 0l.328-.424m0 0l.275-.403m0 0l.011-.017m0 0l.215-.375m0 0l.147-.332m0 0l.008-.024m0 0l.075-.282m0 0l.003-.028m0 .001l-.001-.22m0 0l-.002-.03m0-.001l-.008-.029m0 0l-.012-.027m0 0l-.078-.154m0 0l-.018-.024m0 0l-.011-.012m0 0l-1.133-1.133m0 0l1.029-1.03m0 0l-5.218-5.218m-11.115 11.116l5.218 5.218m0 0l1.029-1.029m0-.001l1.134 1.134m0 0l.011.011m0 0l.025.017m0 0l.153.078m0 0l.027.013m0 0l.03.008m0 0l.029.002m0 0l.221.001m0 .001l.027-.003m0-.001l.281-.075m0 0l.026-.008m0 0l.332-.148m0 0l.375-.214m0 0l.016-.011m0 0l.404-.276m0 .001l.424-.328m0 0l.429-.371m0-.001l.426-.407M189.072 317.044l-9.057 9.057M188.947 317.167l.898.897M180.138 325.977l.897.898M176.018 322.103l4.664 4.665M185.074 313.047l4.665 4.664M188.141 321.053l-4.117 4.117M189.846 318.065c.354.354-.409 1.691-1.705 2.987M184.024 325.169c-1.296 1.296-2.634 2.06-2.988 1.705M185.977 307.892c0 8.348-6.767 15.114-15.114 15.114-8.348 0-15.115-6.766-15.115-15.114 0-8.347 6.767-15.114 15.115-15.114 8.347-.001 15.114 6.767 15.114 15.114z"/></g><g id="walls"><path class="st4" d="M8.058 280.875H23.55M.501 280.875h5.667M6.169 280.875h1.889M8.058 364.004H23.55M.501 364.004h5.667M6.169 364.004h1.889M.501 364.004v-83.129M23.55 364.004v-83.129M8.058 364.004v-3.778M8.058 360.226H6.169M6.169 360.226v3.778M6.169 309.214v1.89M6.169 311.104h1.889M8.058 311.104v-1.89M7.113 360.226v-49.122M8.058 360.226v-49.122M6.169 311.104v49.122M8.058 309.214v-.944M8.058 308.27h-.945M7.113 308.27v-.945M7.113 307.325h-.944M6.169 307.325v1.889M6.169 280.875v3.778M6.169 284.653h.944M7.113 284.653v-.945M7.113 283.708h.945M8.058 283.708v-2.833M6.169 284.653v22.672M9.002 305.436v-18.893M9.002 308.27v-2.834M9.002 305.436H7.113M7.113 305.436v2.834M7.113 308.27h1.889M7.113 283.708v2.834M7.113 286.543h1.889M9.002 286.543v-2.834M9.002 283.708H7.113M7.113 286.543v18.893M9.002 305.436v-18.893M8.058 305.436v-18.893M6.169 364.004h1.889M6.169 364.004h1.889M.501 364.004h5.667M8.058 364.004H23.55M6.169 280.875h1.889M6.169 280.875h1.889M.501 280.875h5.667M8.058 280.875H23.55M.501 280.875H23.55"/><g><path class="st4" d="M8.058 224.195H23.55M.501 224.195h5.667M6.169 224.195h1.889M8.058 158.069H23.55M.501 158.069h5.667M6.169 158.069h1.889M.501 158.069v66.126M23.55 158.069v66.126M8.058 158.069v3.779M8.058 161.848H6.169M6.169 161.848v-3.779M6.169 195.855v-1.889M6.169 193.966h1.889M8.058 193.966v1.889M7.113 161.848v32.118M8.058 161.848v32.118M6.169 193.966v-32.118M8.058 195.855v.945M8.058 196.8h-.945M7.113 196.8v.945M7.113 197.745h-.944M6.169 197.745v-1.89M6.169 224.195v-3.778M6.169 220.417h.944M7.113 220.417v.944M7.113 221.361h.945M8.058 221.361v2.834M6.169 220.417v-22.672M9.002 199.634v18.893M9.002 196.8v2.834M9.002 199.634H7.113M7.113 199.634V196.8M7.113 196.8h1.889M7.113 221.361v-2.834M7.113 218.527h1.889M9.002 218.527v2.834M9.002 221.361H7.113M7.113 218.527v-18.893M9.002 199.634v18.893M8.058 199.634v18.893M6.169 158.069h1.889M6.169 158.069h1.889M.501 158.069h5.667M8.058 158.069H23.55M6.169 224.195h1.889M6.169 224.195h1.889M.501 224.195h5.667M8.058 224.195H23.55M.501 158.069H23.55"/></g><g><path class="st4" d="M8.058 101.39H23.55M.501 101.39h5.667M6.169 101.39h1.889M8.058 35.264H23.55M.501 35.264h5.667M6.169 35.264h1.889M.501 35.264v66.126M23.55 35.264v66.126M8.058 35.264v3.778M8.058 39.042H6.169M6.169 39.042v-3.779M6.169 73.05v-1.889M6.169 71.161h1.889M8.058 71.161v1.889M7.113 39.042v32.119M8.058 39.042v32.119M6.169 71.161V39.042M8.058 73.05v.944M8.058 73.994h-.945M7.113 73.994v.945M7.113 74.939h-.944M6.169 74.939V73.05M6.169 101.39v-3.778M6.169 97.611h.944M7.113 97.611v.944M7.113 98.555h.945M8.058 98.555v2.835M6.169 97.611V74.939M9.002 76.829v18.893M9.002 73.994v2.834M9.002 76.829H7.113M7.113 76.829v-2.834M7.113 73.994h1.889M7.113 98.555v-2.832M7.113 95.722h1.889M9.002 95.722v2.833M9.002 98.555H7.113M7.113 95.722V76.829M9.002 76.829v18.893M8.058 76.829v18.893M6.169 35.264h1.889M6.169 35.264h1.889M.501 35.264h5.667M8.058 35.264H23.55M6.169 101.39h1.889M6.169 101.39h1.889M.501 101.39h5.667M8.058 101.39H23.55M.501 35.264H23.55"/></g><g><path class="st4" d="M201.572 113.577c-1.817 4.871-2.315 7.37-2.58 12.563"/><path class="st5" d="M201.612 113.481l-.6 1.388 29.418 12.782h.453l.001-1.511z"/><path class="st6" d="M347.266 301.365c-6.024 2.248-9.147 2.873-15.569 3.202"/><path class="st5" d="M347.355 301.326l-15.658-36.208h-1.511v.453l15.783 36.355z"/><path class="st6" d="M277.361 321.975c1.571-4.239 2.036-6.545 2.267-11.06"/><path class="st5" d="M277.319 322.073l.6-1.387-25.95-11.283h-.454v1.512z"/><g><path class="st6" d="M257.925 164.262c-4.87 1.818-7.377 2.322-12.569 2.587"/><path class="st5" d="M258.014 164.229l-12.658-29.272h-1.512v.454l12.783 29.418z"/></g><g><path class="st6" d="M170.631 204.6c4.87-1.817 7.375-2.32 12.566-2.586"/><path class="st5" d="M170.539 204.634l12.658 29.272h1.512v-.453l-12.783-29.419z"/></g><g><path class="st6" d="M254.917 84.384c-4.177 1.557-6.471 2.036-11.072 2.271"/><path class="st5" d="M255.003 84.346l-11.159-25.804h-1.511v.454l11.283 25.95z"/></g></g><path d="M322.629 386.109v-81.996h7.557v.453h1.511v81.543h-9.068 0zm0-120.538h7.557v-.405h1.512V.5h-9.061v10.958h-.007l-.001 254.113h0zM.5 386.109v-22.105h23.05v22.105H.5h0zm155.51-128.284H23.55v23.049H.5v-56.679h23.05v23.05h132.46v10.58h0zm0-246.367H23.55v23.806H.5V.5h155.51v10.958h0zM23.55 158.069H.5V101.39h23.05v56.679z" fill-rule="evenodd" clip-rule="evenodd" stroke="#000" stroke-linecap="round" stroke-linejoin="round" stroke-miterlimit="3"/><path class="st0" d="M245.356 133.899v1.058h-1.512v.454h-1.511v-6.249H230.43v-1.511h.453v-1.511h9.938V86.202h1.512v.453h1.511v9.633h14.17v29.852h64.615v3.022h-11.903v97.867h11.903v3.023h-80.296v-63.657h1.511v.454h1.512v60.18h62.347v-97.867h-62.347v4.737zM23.55 376.663v9.446h299.079v-9.446h-10.958v-20.027h10.958v-3.023h-13.981v23.05h-63.292v-65.748h6.159v-1.512h.454v-1.511h-9.731v3.023h.095v65.748H23.55zm132.46-118.838v-10.58h27.187v-13.339h1.512v-.453h1.511v24.372h-30.21zM156.01.5v10.958h19.819v74.628h3.023V11.458h61.969v47.538h1.512v-.454h1.511V21.566h64.804v15.776h13.981v-3.023h-10.958V11.458h10.965V.5H156.01zm87.834 10.958h64.804v7.085h-64.804v-7.085zm78.785 299.457h-43.001v-1.512h-.453v-1.511h43.454v3.023zM186.22 202.468v-73.306h13.225v-1.511h-.453v-1.511H23.549v3.022h159.647v72.852h1.512v.454h1.512zm57.624-103.157v26.829h11.147V99.311h-11.147z"/><g><path class="st8" d="M159.099.672l-3.02 2.66M166.519.672l-10.44 9.2M23.899 126.312l-.28.24M173.939.672l-12.44 10.96M31.309 126.312l-3.44 3.03M181.359.672l-12.44 10.96M38.739 126.312l-3.44 3.03M188.779.672l-12.88 11.35M46.159 126.312l-3.44 3.03M196.209.672l-12.45 10.96M178.919 15.902l-3.02 2.66M53.579 126.312l-3.44 3.03M203.629.672l-12.44 10.96M178.919 22.442l-3.02 2.66M61.009 126.312l-3.44 3.03M211.049.672l-12.44 10.96M178.919 28.982l-3.02 2.66M68.429 126.312l-3.44 3.03M218.479.672l-12.45 10.96M178.919 35.522l-3.02 2.66M75.849 126.312l-3.44 3.03M225.889.672l-12.44 10.96M178.919 42.052l-3.02 2.66M83.269 126.312l-3.44 3.03M233.319.672l-12.44 10.96M178.919 48.592l-3.02 2.66M90.689 126.312l-3.44 3.03M178.919 55.132l-3.02 2.66M98.119 126.312l-3.44 3.03M240.739.672l-12.44 10.96M178.919 61.672l-3.02 2.66M105.539 126.312l-3.44 3.03M248.159.672l-12.44 10.96M178.919 68.212l-3.02 2.66M112.959 126.312l-3.44 3.03M255.589.672l-14.7 12.95M178.919 74.752l-3.02 2.66M120.389 126.312l-3.44 3.03M243.909 17.492l-3.02 2.66M263.009.672l-12.44 10.96M249.939 18.722l-3.43 3.02M127.799 126.312l-3.44 3.03M178.919 81.282l-3.02 2.66M243.909 24.032l-3.02 2.66M270.429.672l-12.44 10.96M257.359 18.722l-3.43 3.02M135.229 126.312l-3.44 3.03M243.909 30.572l-3.02 2.66M277.849.672l-12.44 10.96M264.779 18.722l-3.43 3.02M142.649 126.312l-3.44 3.03M243.909 37.112l-3.02 2.66M285.269.672l-12.44 10.96M272.199 18.722l-3.42 3.02M150.069 126.312l-3.44 3.03M243.909 43.652l-3.02 2.66M292.689.672l-12.44 10.96M279.629 18.722l-3.43 3.02M157.499 126.312l-3.44 3.03M243.909 50.192l-3.02 2.66M300.119.672l-12.44 10.96M287.049 18.722l-3.42 3.02M243.909 56.732l-2.77 2.44M164.919 126.312l-3.44 3.03M307.539.672l-12.44 10.96M294.479 18.722l-3.43 3.02M172.339 126.312l-3.44 3.03M314.969.672l-12.45 10.96M301.889 18.722l-3.43 3.02M179.759 126.312l-3.44 3.03M322.379.672l-13.66 12.03M322.699 6.932l-5.33 4.7M187.179 126.312l-3.91 3.45M311.739 16.592l-5.85 5.15M194.609 126.312l-3.44 3.03M186.289 133.642l-3.02 2.66M311.739 23.132l-3.02 2.66M199.509 128.532l-.92.81M186.289 140.182l-3.02 2.66M243.909 89.422l-3.02 2.66M311.739 29.662l-3.02 2.66M243.909 95.962l-3.02 2.66M186.289 146.712l-3.02 2.66M313.679 34.492l-3.44 3.03M321.109 34.492l-3.44 3.03M186.289 153.252l-3.02 2.66M250.759 96.462l-3.43 3.02M243.909 102.492l-3.02 2.66M186.289 159.792l-3.02 2.66M258.079 96.552l-3.33 2.93M243.909 109.032l-3.02 2.66M186.289 166.332l-3.02 2.66M231.719 126.312l-.77.67M258.079 103.092l-3.02 2.66M243.909 115.572l-3.02 2.66M186.289 172.872l-3.02 2.66M243.909 122.112l-3.02 2.66M258.079 109.622l-3.02 2.66M239.139 126.312l-3.44 3.03M186.289 179.402l-3.02 2.67M258.079 116.162l-3.02 2.66M246.559 126.312l-4.16 3.67M186.289 185.952l-3.02 2.66M243.909 135.192l-.45.39M245.419 133.862l-1.44 1.27M258.079 122.702l-3.02 2.67M253.989 126.312l-3.44 3.03M186.289 192.492l-3.02 2.66M261.409 126.312l-3.44 3.03M186.289 199.022l-3.02 2.66M268.829 126.312l-3.44 3.03M276.249 126.312l-3.44 3.03M283.669 126.312l-3.44 3.03M244.879 167.022l-2.48 2.19M291.099 126.312l-3.44 3.03M245.419 173.092l-3.02 2.66M161.039 247.422l-4.96 4.37M298.519 126.312l-3.44 3.03M305.939 126.312l-3.44 3.03M168.459 247.422l-12.01 10.58M183.609 234.082l-.34.3M245.419 179.632l-3.02 2.66M313.359 126.312l-5.59 4.93M186.289 238.252l-3.02 2.66M28.969 376.842l-5.35 4.72M175.889 247.422l-12.01 10.58M245.419 186.162l-3.02 2.66M310.789 135.112l-3.02 2.66M320.779 126.312l-3.44 3.03M186.289 244.792l-15 13.21M36.389 376.842l-10.72 9.44M245.419 192.702l-3.02 2.66M310.789 141.652l-3.02 2.66M186.289 251.332l-7.58 6.67M43.809 376.842l-10.72 9.44M245.419 199.242l-3.02 2.66M310.789 148.192l-3.02 2.66M51.229 376.842l-10.71 9.44M186.289 257.872l-.15.13M245.419 205.782l-3.02 2.66M310.789 154.732l-3.02 2.66M58.659 376.842l-10.72 9.44M245.419 212.322l-3.02 2.66M310.789 161.272l-3.02 2.66M66.079 376.842l-10.71 9.44M245.419 218.862l-3.02 2.66M310.789 167.812l-3.02 2.66M73.509 376.842l-10.72 9.44M245.419 225.402l-3.02 2.66M310.789 174.342l-3.02 2.66M80.919 376.842l-10.72 9.44M250.789 227.202l-3.44 3.03M310.789 180.882l-3.02 2.66M88.339 376.842l-10.71 9.44M258.209 227.202l-3.44 3.03M310.789 187.422l-3.02 2.66M95.769 376.842l-10.72 9.44M265.629 227.202l-3.44 3.03M310.789 193.962l-3.02 2.66M103.189 376.842l-10.72 9.44M273.059 227.202l-3.44 3.03M310.789 200.502l-3.02 2.66M110.609 376.842l-10.71 9.44M280.479 227.202l-3.44 3.03M310.789 207.042l-3.02 2.66M118.039 376.842l-10.72 9.44M287.899 227.202l-3.44 3.03M310.789 213.582l-3.02 2.66M125.459 376.842l-10.71 9.44M295.329 227.202l-3.44 3.03M310.789 220.112l-3.02 2.66M132.879 376.842l-10.72 9.44M302.749 227.202l-3.44 3.03M140.299 376.842l-10.72 9.44M310.789 226.652l-4.06 3.58M147.719 376.842l-10.71 9.44M317.589 227.202l-3.44 3.03M322.699 229.242l-1.13.99M155.149 376.842l-10.72 9.44M162.569 376.842l-10.72 9.44M248.059 308.072l-5.66 4.99M169.999 376.842l-10.72 9.44M177.409 376.842l-10.72 9.44M245.419 316.932l-3.02 2.66M184.829 376.842l-10.71 9.44M245.419 323.472l-3.02 2.66M192.259 376.842l-10.72 9.44M245.419 330.012l-3.02 2.66M199.679 376.842l-10.72 9.44M245.419 336.552l-3.02 2.66M285.169 308.072l-3.43 3.02M207.099 376.842l-10.71 9.44M245.419 343.092l-3.02 2.66M214.529 376.842l-10.72 9.44M292.589 308.072l-3.43 3.02M245.419 349.632l-3.02 2.66M221.949 376.842l-10.72 9.44M300.019 308.072l-3.43 3.02M245.419 356.162l-3.02 2.67M229.369 376.842l-10.72 9.44M307.429 308.072l-3.42 3.02M245.419 362.702l-3.02 2.66M245.419 369.242l-3.02 2.66M314.859 308.072l-3.43 3.02M236.789 376.842l-10.72 9.44M322.279 308.072l-3.43 3.02M245.419 375.782l-11.92 10.5M251.639 376.842l-10.72 9.44M259.059 376.842l-10.72 9.44M266.489 376.842l-10.72 9.44M273.899 376.842l-10.71 9.44M281.329 376.842l-10.72 9.44M314.909 353.792l-6.19 5.46M288.749 376.842l-10.72 9.44M311.739 363.122l-3.02 2.67M322.339 353.792l-3.43 3.02M296.169 376.842l-10.72 9.44M311.739 369.662l-3.02 2.67M303.589 376.842l-10.71 9.44M311.739 376.202l-11.44 10.08M318.439 376.842l-10.72 9.44M322.699 379.622l-7.56 6.66M322.699 386.162l-.13.12"/></g><path d="M245.356 133.899v1.058h-1.512v.454h-1.511v-6.249H230.43v-1.511h.453v-1.511h9.938V86.202h1.512v.453h1.511v9.633h14.17v29.852h64.615v3.022h-11.903v97.867h11.903v3.023h-80.296v-63.657h1.511v.454h1.512v60.18h62.347v-97.867h-62.347v4.737h0zM23.55 376.663v9.446h299.079v-9.446h-10.958v-20.027h10.958v-3.023h-13.981v23.05h-63.292v-65.748h6.159v-1.512h.454v-1.511h-9.731v3.023h.095v65.748H23.55h0zm132.46-118.838v-10.58h27.187v-13.339h1.512v-.453h1.511v24.372h-30.21 0zM156.01.5v10.958h19.819v74.628h3.023V11.458h61.969v47.538h1.512v-.454h1.511V21.566h64.804v15.776h13.981v-3.023h-10.958V11.458h10.965V.5H156.01h0zm87.834 10.958h64.804v7.085h-64.804v-7.085h0zm78.785 299.457h-43.001v-1.512h-.453v-1.511h43.454v3.023h0zM186.22 202.468v-73.306h13.225v-1.511h-.453v-1.511H23.549v3.022h159.647v72.852h1.512v.454h1.512zm57.624-103.157v26.829h11.147V99.311h-11.147z" fill-rule="evenodd" clip-rule="evenodd" fill="none" stroke="#000" stroke-linecap="round" stroke-linejoin="round" stroke-miterlimit="22.926"/></g><g id="sizes_8_"><path d="M190.881 142.768l3.656-7.938h2.031l-3.563 7.844h5.336v1.766h-7.461v-1.672zm4.743-3.266h1.844v6.688h-1.844v-6.688zM199.928 144.276h1.859v1.906l-1.859 1.578v-3.484zM207.67 140.541l.188.281c-.131.24-.327.416-.59.527a2.375 2.375 0 01-.934.168c-.558 0-1.047-.138-1.469-.414a2.733 2.733 0 01-.984-1.168c-.234-.502-.352-1.084-.352-1.746v-.008c0-.734.127-1.362.383-1.883a2.66 2.66 0 011.113-1.188c.486-.271 1.071-.406 1.754-.406.682 0 1.266.138 1.75.414.484.276.854.677 1.109 1.203s.383 1.159.383 1.898v.008c0 .396-.054.819-.16 1.27-.107.451-.26.916-.457 1.395-.026.073-.055.145-.086.215l-.094.207-2.227 4.867h-1.992l2.665-5.64zm.125-1.183c.239-.289.359-.699.359-1.23v-.008c0-.516-.12-.913-.359-1.191-.24-.278-.578-.418-1.016-.418-.443 0-.784.141-1.023.422-.24.281-.359.68-.359 1.195v.008c0 .531.119.94.359 1.227.239.287.58.43 1.023.43.438-.002.776-.146 1.016-.435zM258.376 141.018l3.656-7.938h2.031l-3.563 7.844h5.336v1.766h-7.461v-1.672zm4.742-3.266h1.844v6.688h-1.844v-6.688zM267.422 142.526h1.859v1.906l-1.859 1.578v-3.484zM271.086 142.776l3.93-5.203c.203-.266.36-.54.473-.824a2.17 2.17 0 00.168-.793v-.016c0-.38-.116-.674-.348-.883-.231-.208-.562-.313-.988-.313-.411 0-.743.126-.996.379s-.405.611-.457 1.074v.008h-1.922v-.008c.073-.682.255-1.266.547-1.75s.677-.854 1.156-1.109c.479-.255 1.031-.383 1.656-.383.692 0 1.284.116 1.773.348a2.5 2.5 0 011.121 1.012c.258.443.387.977.387 1.602v.008c0 .458-.087.923-.262 1.395a5.224 5.224 0 01-.723 1.324l-3.047 4h4.094v1.789h-6.563v-1.657zM294.3 262.583l3.656-7.937h2.031l-3.563 7.844h5.336v1.766h-7.46v-1.673zm4.743-3.266h1.844v6.688h-1.844v-6.688zM303.347 264.091h1.859v1.906l-1.859 1.578v-3.484zM307.027 262.583l3.656-7.937h2.031l-3.563 7.844h5.336v1.766h-7.461v-1.673zm4.742-3.266h1.844v6.688h-1.844v-6.688z"/><g><path d="M191.544 348.877h-1.867v-9.234l-1.5.758v-1.961l1.656-.922h1.711v11.359zM195.52 348.603c-.531-.26-.942-.629-1.234-1.105s-.438-1.029-.438-1.66v-.188c0-.567.149-1.102.449-1.602s.696-.877 1.191-1.133a2.594 2.594 0 01-1.02-.945 2.415 2.415 0 01-.387-1.305v-.281c0-.594.137-1.115.41-1.566.273-.45.657-.799 1.152-1.047.495-.247 1.07-.371 1.727-.371s1.231.124 1.727.371c.495.248.879.597 1.152 1.047.273.451.41.973.41 1.566v.281c0 .469-.132.908-.395 1.316a2.585 2.585 0 01-1.035.934c.5.261.902.64 1.207 1.137.305.498.457 1.03.457 1.598v.188c0 .631-.146 1.184-.438 1.66s-.703.846-1.234 1.105c-.531.261-1.148.391-1.852.391s-1.318-.13-1.849-.391zm2.723-1.601a1.39 1.39 0 00.586-.555c.138-.239.207-.513.207-.82v-.109c0-.302-.069-.567-.207-.797a1.415 1.415 0 00-.582-.535c-.25-.127-.542-.191-.875-.191s-.625.064-.875.191c-.25.128-.444.308-.582.539a1.537 1.537 0 00-.207.801v.117c0 .308.069.58.207.816.138.237.333.42.586.547.253.128.543.191.871.191s.618-.064.871-.195zm-.125-4.988c.216-.122.383-.297.5-.523s.176-.488.176-.785v-.109c0-.275-.059-.521-.176-.734a1.204 1.204 0 00-.5-.492c-.216-.114-.465-.172-.746-.172s-.53.058-.746.172a1.204 1.204 0 00-.5.492 1.521 1.521 0 00-.176.742v.117c0 .292.059.55.176.773.117.225.284.397.5.52.216.123.465.184.746.184s.53-.062.746-.185zM202.754 346.971h1.859v1.906l-1.859 1.578v-3.484zM207.438 348.143c-.565-.567-.848-1.359-.848-2.375v-5.164c0-1.021.284-1.813.852-2.379.567-.564 1.391-.848 2.469-.848 1.083 0 1.907.281 2.473.844s.848 1.357.848 2.383v5.164c0 1.021-.284 1.814-.852 2.379-.567.565-1.391.848-2.469.848-1.083-.001-1.908-.284-2.473-.852zm3.574-1.379c.234-.294.352-.717.352-1.27v-4.617c0-.552-.117-.975-.352-1.27-.234-.294-.602-.441-1.102-.441s-.867.147-1.102.441c-.234.295-.352.718-.352 1.27v4.617c0 .553.117.976.352 1.27.234.295.602.441 1.102.441s.868-.146 1.102-.441z"/></g><g><path d="M157.3 243.134h-1.867V233.9l-1.5.758v-1.961l1.656-.922h1.711v11.359zM159.55 241.477l3.93-5.203c.203-.266.36-.54.473-.824.111-.284.168-.548.168-.793v-.016c0-.38-.116-.675-.348-.883-.232-.208-.562-.313-.988-.313-.412 0-.744.126-.996.379-.253.253-.405.61-.457 1.074v.008h-1.922v-.008c.072-.683.255-1.266.547-1.75a2.95 2.95 0 011.156-1.109c.479-.255 1.031-.383 1.656-.383.692 0 1.283.116 1.773.348.489.231.863.569 1.121 1.012s.387.977.387 1.602v.008c0 .458-.088.923-.262 1.395a5.255 5.255 0 01-.723 1.324l-3.047 4h4.094v1.789h-6.563v-1.657zM167.777 241.227h1.859v1.906l-1.859 1.578v-3.484zM175.519 237.493l.188.281a1.176 1.176 0 01-.59.527 2.375 2.375 0 01-.934.168c-.558 0-1.047-.138-1.469-.414s-.75-.665-.984-1.168-.352-1.085-.352-1.746v-.008c0-.734.127-1.362.383-1.883a2.66 2.66 0 011.113-1.188c.486-.271 1.071-.406 1.754-.406.682 0 1.266.138 1.75.414s.854.677 1.109 1.203.383 1.159.383 1.898v.008c0 .396-.054.819-.16 1.27-.107.45-.26.915-.457 1.395-.026.073-.055.145-.086.215l-.094.207-2.227 4.867h-1.992l2.665-5.64zm.125-1.183c.239-.289.359-.699.359-1.23v-.008c0-.516-.12-.913-.359-1.191-.24-.278-.578-.418-1.016-.418-.443 0-.784.141-1.023.422-.24.281-.359.68-.359 1.195v.008c0 .531.119.94.359 1.227.239.286.58.43 1.023.43.438-.002.776-.146 1.016-.435z"/></g><g><path d="M149.059 81.975h-1.867V72.74l-1.5.758v-1.961l1.656-.922h1.711v11.36zM151.309 80.318l3.93-5.203c.203-.266.36-.54.473-.824.111-.284.168-.548.168-.793v-.016c0-.38-.116-.674-.348-.883-.232-.208-.562-.313-.988-.313-.412 0-.744.126-.996.379-.253.253-.405.611-.457 1.074v.008h-1.922v-.007c.072-.682.255-1.266.547-1.75a2.95 2.95 0 011.156-1.109c.479-.255 1.031-.383 1.656-.383.692 0 1.283.116 1.773.348a2.5 2.5 0 011.121 1.012c.258.443.387.977.387 1.602v.008c0 .458-.088.923-.262 1.395a5.255 5.255 0 01-.723 1.324l-3.047 4h4.094v1.789h-6.563v-1.658zM159.536 80.068h1.859v1.906l-1.859 1.578v-3.484zM165.434 82.092l-.766-.359c-.511-.239-.918-.59-1.223-1.051s-.486-1.012-.543-1.652h1.914c.041.281.127.515.258.699.13.185.299.324.508.418.208.094.45.141.727.141.469 0 .83-.126 1.086-.379.255-.252.383-.61.383-1.074v-.305c0-.5-.113-.887-.34-1.16s-.551-.41-.973-.41h-.883v-1.781h.883c.359 0 .637-.118.832-.355.195-.237.293-.569.293-.996v-.273c0-.401-.105-.709-.316-.926-.211-.216-.51-.324-.895-.324-.234 0-.444.05-.629.148a1.288 1.288 0 00-.473.449 2.049 2.049 0 00-.281.738h-1.906c.083-.656.274-1.221.574-1.695a2.977 2.977 0 011.156-1.078c.471-.245 1.004-.367 1.598-.367.989 0 1.756.258 2.301.773.544.516.816 1.242.816 2.18v.266c0 .547-.144 1.023-.43 1.43-.287.406-.693.706-1.219.898.583.13 1.035.426 1.355.887s.48 1.048.48 1.762v.266c0 .662-.129 1.227-.387 1.695s-.635.826-1.129 1.07c-.495.245-1.089.367-1.781.367l-.99-.002z"/></g><g><path d="M287.094 59.996a2.866 2.866 0 01-1.129-1.074c-.286-.471-.466-1.032-.539-1.684v-.008h1.867v.008c.047.417.192.741.438.973.245.232.565.348.961.348.442 0 .785-.146 1.027-.438.242-.292.363-.706.363-1.242v-.953c0-.531-.116-.942-.348-1.234-.231-.292-.559-.438-.98-.438-.292 0-.556.078-.793.234s-.423.375-.559.656h-1.727v-6.258h5.945v1.789h-4.078v2.281c.177-.161.397-.286.66-.375.263-.088.527-.133.793-.133.62 0 1.151.136 1.594.406.442.271.78.667 1.012 1.188.231.521.348 1.148.348 1.883v.953c0 .734-.129 1.362-.387 1.883-.258.521-.632.918-1.121 1.191s-1.078.41-1.766.41a3.333 3.333 0 01-1.581-.366zM293.926 58.339h1.859v1.906l-1.859 1.578v-3.484zM297.59 58.589l3.93-5.203c.203-.266.36-.54.473-.824a2.17 2.17 0 00.168-.793v-.016c0-.38-.116-.674-.348-.883-.231-.208-.562-.313-.988-.313-.411 0-.743.126-.996.379s-.405.611-.457 1.074v.008h-1.922v-.008c.073-.682.255-1.266.547-1.75s.677-.854 1.156-1.109c.479-.255 1.031-.383 1.656-.383.692 0 1.284.116 1.773.348a2.5 2.5 0 011.121 1.012c.258.443.387.977.387 1.602v.008c0 .458-.087.923-.262 1.395a5.224 5.224 0 01-.723 1.324l-3.047 4h4.094v1.789h-6.563v-1.657z"/></g><g><path d="M277.625 347.104l-.766-.359c-.511-.239-.918-.59-1.223-1.051s-.486-1.012-.543-1.652h1.914c.041.281.127.515.258.699.13.186.299.324.508.418.208.094.45.141.727.141.469 0 .83-.126 1.086-.379.255-.252.383-.61.383-1.074v-.305c0-.5-.113-.887-.34-1.16s-.551-.41-.973-.41h-.883v-1.781h.883c.359 0 .637-.118.832-.355.195-.236.293-.568.293-.996v-.273c0-.4-.105-.709-.316-.926-.211-.216-.51-.324-.895-.324-.234 0-.444.05-.629.148-.186.1-.343.249-.473.449a2.049 2.049 0 00-.281.738h-1.906c.083-.656.274-1.221.574-1.695a2.977 2.977 0 011.156-1.078 3.424 3.424 0 011.598-.367c.989 0 1.756.258 2.301.773.544.516.816 1.242.816 2.18v.266c0 .547-.144 1.023-.43 1.43-.287.406-.693.706-1.219.898.583.131 1.035.426 1.355.887s.48 1.049.48 1.762v.266c0 .662-.129 1.227-.387 1.695s-.635.826-1.129 1.07c-.495.245-1.089.367-1.781.367l-.99-.002zM283.812 345.081h1.859v1.906l-1.859 1.578v-3.484zM287.476 345.331l3.93-5.203c.203-.266.36-.54.473-.824.111-.283.168-.548.168-.793v-.016c0-.38-.116-.674-.348-.883-.232-.208-.562-.313-.988-.313-.412 0-.744.127-.996.379-.253.253-.405.611-.457 1.074v.008h-1.922v-.008c.072-.682.255-1.266.547-1.75a2.95 2.95 0 011.156-1.109c.479-.255 1.031-.383 1.656-.383.692 0 1.283.116 1.773.348a2.5 2.5 0 011.121 1.012c.258.443.387.977.387 1.602v.008c0 .459-.088.924-.262 1.395a5.255 5.255 0 01-.723 1.324l-3.047 4h4.094v1.789h-6.563v-1.657z"/></g><g><path d="M207.92 77.947l3.656-7.938h2.031l-3.563 7.844h5.336v1.766h-7.461v-1.672zm4.743-3.265h1.844v6.688h-1.844v-6.688zM216.967 79.455h1.859v1.906l-1.859 1.578v-3.484zM224.71 75.721l.188.281c-.131.24-.327.416-.59.527a2.375 2.375 0 01-.934.168c-.558 0-1.047-.138-1.469-.414a2.733 2.733 0 01-.984-1.168c-.234-.502-.352-1.084-.352-1.746v-.008c0-.734.127-1.362.383-1.883a2.66 2.66 0 011.113-1.188c.486-.271 1.071-.406 1.754-.406.682 0 1.266.138 1.75.414.484.276.854.677 1.109 1.203s.383 1.159.383 1.898v.008c0 .396-.054.819-.16 1.27-.107.451-.26.916-.457 1.395-.026.073-.055.145-.086.215l-.094.207-2.227 4.867h-1.992l2.665-5.64zm.125-1.184c.239-.289.359-.699.359-1.23v-.008c0-.516-.12-.913-.359-1.191-.24-.278-.578-.418-1.016-.418-.443 0-.784.141-1.023.422-.24.281-.359.68-.359 1.195v.008c0 .531.119.94.359 1.227.239.287.58.43 1.023.43.437-.001.775-.146 1.016-.435z"/></g></g></svg>