<svg version="1.1" id="_x31_04_1_" xmlns="http://www.w3.org/2000/svg" x="0" y="0" viewBox="0 0 346.963 451.006" xml:space="preserve"><style>.st0,.st1{fill-rule:evenodd;clip-rule:evenodd}.st0{fill:#fff}.st1{stroke:#999;stroke-width:.4}.st1,.st2,.st3{fill:none;stroke-linecap:round;stroke-linejoin:round;stroke-miterlimit:3}.st2{fill-rule:evenodd;clip-rule:evenodd;stroke:#999}.st3{stroke:#020203}.st5,.st6,.st7{fill-rule:evenodd;clip-rule:evenodd}.st5{stroke:#020203;stroke-linecap:round;stroke-linejoin:round;stroke-miterlimit:3;fill:none}.st6,.st7{fill:#020203}.st7{fill:none;stroke:#666;stroke-width:.6;stroke-miterlimit:22.9256}.st9{fill:#050008}</style><path class="st0" d="M228.577 0v58.677H45.286v266.5H.161v121h45.125v4.721h285.958V0z"/><g id="mebel_1_"><path class="st1" d="M253.736 402.816h45.721m-45.721-11.336h52.901m-52.901-11.336h52.901m-52.901-11.336h52.901m-52.901-11.336h52.901m-52.901-11.336h52.901m-52.901-11.335h20.752m12.908 0h19.24m-17.948 72.076v-82.752m-22.672 82.752v-82.752M315.374 125.18l2.221-2.22m-9.168 2.22l9.168-9.167m-16.115 9.167l8.407-8.406m-15.354 8.406l8.138-8.138m12.042-12.04l2.882-2.882m-30.009 23.06l10.465-10.465m10.378-10.377l8.442-8.441m-36.232 29.283l15.986-15.985m4.56-4.56l8.739-8.738m-36.232 29.283l29.285-29.284m-36.231 29.284l29.284-29.284m-36.232 29.284l35.88-35.879m-42.826 35.879l42.826-42.827m-49.773 42.827l49.773-49.773m-55.923 48.976l55.923-55.923m-55.923 48.976l55.923-55.922m-55.923 48.976l14.594-14.594m.898-.898l40.431-40.431m-55.923 48.975l7.646-7.646m7.846-7.845l40.431-40.43m-55.923 48.975l.7-.7m14.359-14.359l.095-.095m.243-.242l40.526-40.526m-40.432 33.484l36.642-36.641M255.246 67.211l29.694-29.694m-29.694 22.747l22.747-22.747m-22.747 15.799l15.8-15.8m-15.799 8.853l8.853-8.853m-8.853 1.906l1.906-1.906m38.525.462l-.461-.461m.461 7.408l-7.409-7.409m7.409 14.356l-14.356-14.356m14.356 21.304l-21.303-21.304m21.303 28.251l-28.25-28.25m28.25 35.197l-35.197-35.197m57.114 64.06l-5.68-5.68M295.678 79.66l-40.431-40.431m58.75 65.697l-9.03-9.029m-9.289-9.291l-40.431-40.431m50.983 57.931l-8.209-8.209m-2.343-2.344l-40.431-40.431m62.348 69.294l-5.84-5.84m-11.535-11.535l-44.973-44.973m58.165 65.112l-7.977-7.977m-8.6-8.599l-41.589-41.589m-15.077-15.077l-.063-.063m66.359 73.305l-51.218-51.217m44.271 51.217l-44.272-44.27m37.325 44.27l-37.324-37.324M285.624 125.18l-30.377-30.377M278.677 125.18l-29.284-29.284m22.337 29.284l-29.284-29.284m22.337 29.284l-25.028-25.028m18.081 25.028l-18.081-18.08m11.134 18.08l-11.134-11.134m4.187 11.134l-4.187-4.187"/><path class="st2" d="M239.755 52.442v28.529m0 0l.166.4m-.001 0l.401.166m.001 0h14.358m0 0l.401-.166m0 0l.166-.4m-.001 0V52.442m0 0l-.166-.401m.001 0l-.401-.166m0 0h-14.358m0 0l-.401.166m-.001 0l-.166.401M243.911 53.576v12.678m0 .906v12.678M244.478 80.404h9.069M254.113 79.837V53.575M253.547 53.009h-9.069M244.478 80.404a.566.566 0 01-.567-.566M254.113 79.837a.566.566 0 01-.567.566M253.547 53.009c.313 0 .567.254.567.567M243.911 53.576c0-.312.254-.567.567-.567M247.607 67.16a.755.755 0 01-1.209 0h1.209zm-1.209-.906a.753.753 0 011.209 0h-1.209zM240.283 67.16v-.907m0 0h7.748m0 0l.301.256m0 0v.395m0 0l-.3.256m0 0h-7.749M240.283 65.951v1.512m0 0h-.265m0 0v-1.512m0 0h.265M240.019 65.573v2.268m0 0h-.264m0 0v-2.268m0 0h.264M241.644 63.438h-1.625m0 0v.095m0 0h-.132m0 0v.283m0 0h-.132m0 0v-1.889m0 0h.132m0 0v.283m0 0h.132m0 0v.095m0 0h1.625m0 0v.321m0 0h.416m0 0v-1.077m0 0h.491m0 0v2.645m0 0h-.491m0 0v-1.077m0 0h-.416m0 0v.321M241.644 69.975h-1.625m0 0v-.094m0 0h-.132m0 0v-.284m0 0h-.132m0 0v1.89m0 0h.132m0 0v-.284m0 0h.132m0 0v-.094m0 0h1.625m0 0v-.322m0 0h.416m0 0v1.077m0 0h.491m0 0v-2.645m0 0h-.491m0 0v1.077m0 0h-.416m0 0v-.321M242.059 62.625l.072.072M242.059 63.117l.072-.072M241.644 62.625v.492M240.019 62.305v1.133M239.887 63.533V62.21M242.059 70.788l.072-.072M242.059 70.296l.072.072M241.644 70.788v-.491M240.019 71.109v-1.134M239.887 69.881v1.322M242.551 62.871a.246.246 0 11-.492 0 .246.246 0 01.492 0zM242.551 70.542a.246.246 0 01-.492 0 .246.246 0 01.492 0zM313.249 11.066h-64.615m0 0v26.45m0 0h64.615m0 0v-26.45M305.71 35.401l.935-.081m0 0l.907-.238m0 0l.85-.39m0 0l.769-.529m0 0l.664-.652m0 0l.539-.756m0 0l.396-.835m0 0l.243-.891m0 0l.082-.918m0 0V18.472m0 0l-.082-.918m0 0l-.243-.891m0 0l-.396-.835m0 0l-.539-.756m0 0l-.664-.652m0 0l-.769-.529m0 0l-.85-.389m0 0l-.907-.239m0 0l-.935-.081m0 0h-43.615m0 0l-1.963.169m0 0l-1.904.501m0 0l-1.786.819m0 0l-1.615 1.11m0 0l-1.394 1.37m0 0l-1.13 1.586m0 0l-.833 1.755m0 0l-.51 1.87m0 0l-.172 1.93m0 0l.172 1.928m0 0l.51 1.871m0 0l.833 1.755m0 0l1.13 1.586m0 0l1.394 1.37m0 0l1.615 1.11m0 0l1.786.819m0 0l1.904.501m0 0l1.963.169m0 0h43.615M305.125 24.292a.945.945 0 11-1.89 0 .945.945 0 011.89 0zM302.603 117.035l-1.645-.469m0 0l-1.552-.718m0 0l-1.23-.968m0 0l-.943-1.248m0 0l-.593-1.448m0 0l-.206-1.551m0 0l.206-1.551m0 0l.593-1.448m0 0l.943-1.248m0 0l1.23-.968m0 0l1.552-.718m0 0l1.645-.469m0 0l1.697-.207m0 0l1.71.059m0 0l11.585 1.223m0 0v10.654m0 0l-11.585 1.223m0 0l-1.71.059m0 0l-1.697-.207M311.873 106.517v4.117M311.873 110.633v4.116M296.719 110.633a5.738 5.738 0 01.887-3.063M297.606 107.57c1.723-2.217 4.238-3.414 6.83-3.249M304.436 104.321c2.609-.07 5.185.69 7.437 2.195M311.873 114.75c-2.252 1.506-4.828 2.266-7.437 2.195M304.436 116.945c-2.591.165-5.107-1.031-6.83-3.248M297.606 113.697a5.743 5.743 0 01-.887-3.063M317.594 105.985v9.295m0 0h-.189m0 0v-9.295m0 0h.189M317.594 120.08v-18.894M322.129 120.08v-18.894M317.594 120.08h4.534M317.594 101.186h4.534M299.457 406.877h-45.721M253.736 406.877v33.819M293.789 434.083a.945.945 0 11-1.89 0 .945.945 0 011.89 0zM278.863 427.713l1.397-.372m0 0l1.209-.793m0 0l.898-1.132m0 0l.496-1.358m0 0l.043-1.445m0 0l-.414-1.385m0 0l-.828-1.184m0 0l-1.159-.864m0 0l-1.372-.455m0 0h-1.446m0 0l-1.372.455m0 0l-1.159.864m0 0l-.829 1.184m0 0l-.413 1.385m0 0l.043 1.445m0 0l.496 1.358m0 0l.898 1.132m0 0l1.209.793m0 0l1.396.372m0 0v5.538m0 0l-.455-.108m0 0l-.489-.037m0 0l-.489.037m0 0l-.456.108m0 0l-.391.172m0 0l-.3.225m0 0l-.189.261m0 0l-.064.281m0 0v.402m0 0l.019.12m0 0l.064.278m0 0l.054.103m0 0l.182.251m0 0l.077.071m0 0l.274.204m0 0l.357.157m0 0l.195.052m0 0l.251.059m0 0l.019.688m0 0l.009.796m0 0h-1.728m0 0v.435m0 0h-2.872m0 0l-.16.059m0 0l-.083.148m0 0l.034.167m0 0l.133.105m0 0l.485.158m0 0l.726.314m0 0l1.008.574m0 0l.729.258m0 0v.125m0 0h-.605m0 0v.982m0 0h2.57m0 0v-.877m0 0l.062-.038m0 0l.033-.034m0 0l.025-.04m0 0l.278-.673m0 0h.697m0 0v1.36m0 0h-1.057m0 0v.302m0 0h3.022m0 0v-.302m0 0h-1.058m0 0v-1.36m0 0h1.436m0 0v-.151m0 0h.416m0 0v.302m0 0h-.151m0 0v.529m0 0h-.605m0 0v.982m0 0h2.57m0 0v-.982m0 0h-.605m0 0v-.529m0 0h-.151m0 0v-.302m0 0h.151m0 0v-1.512m0 0h-2.57m0 0v-2.154m0 0h-.082m0 0h-.093m0 0h-.124m0 0h-.149m0 0h-.043m0 0v-7.504M277.466 436.804h.491M277.954 435.316l.002.001M277.956 435.847l-.002.001M276.667 435.904l.345.026M277.012 435.93l.345-.026M276.596 435.887l.071.017M277.677 435.828l.197-.052M277.357 435.904l.321-.077M277.873 435.776l.083-.036M277.427 435.887l-.019.688M277.408 436.575l-.019 1.596M278.863 427.713v-5.343M277.956 427.713v-5.343M278.863 422.37h-.907M278.863 439.034v-3.816M277.956 433.251v5.783M279.354 436.804h-.491M277.466 437.371v-1.493M277.956 425.036a1.89 1.89 0 11.907 0M274.54 339.117l.469 1.645m0 .001l.718 1.551m0 0l.968 1.23m0-.001l1.248.943m0 .001l1.448.594m0 0l1.551.205m0 0l1.551-.205m0 0l1.447-.594m0 0l1.249-.943m0-.001l.967-1.23m0 .001l.719-1.551m0 0l.469-1.645m0-.001l.207-1.698m0 0l-.059-1.709m0 .001l-1.223-11.585m0 0h-10.654m0 0l-1.223 11.585m0 0l-.06 1.709m0-.001l.208 1.698M285.058 329.847h-4.116M280.941 329.847h-4.116M284.005 344.114a5.752 5.752 0 01-3.063.887M287.253 337.284c.165 2.591-1.031 5.107-3.248 6.83M285.058 329.847c1.505 2.253 2.266 4.828 2.195 7.437M274.63 337.284c-.07-2.609.69-5.185 2.195-7.437M277.878 344.114c-2.217-1.723-3.413-4.238-3.248-6.83M280.941 345a5.747 5.747 0 01-3.064-.887M285.589 324.126h-9.295m0 0v.188m0 0h9.295m0 0v-.188M271.495 324.126h18.893M271.495 319.591h18.893M271.495 324.126v-4.535M290.388 324.126v-4.535M168.528 299.857H68.394m0 0v15.115m0 .001h100.134m0 0v-15.115M168.528 300.613H68.394M118.461 299.857v.755M168.528 299.857v.755M248.634 37.516h-8.879m0 0v-26.45m0 0h8.879m0 0v26.45M313.249 37.516h8.88m0 0v-26.45m0 0h-8.88m0 0v26.45M295.678 92.873h10.958m0 0V67.179m0 0h15.492m0 0V42.051m0 0h-26.45m0 0v50.822M255.247 51.875h-15.492m0 0V37.516m0 0h15.492m0 0v14.359M255.247 95.896h-15.492m0 0V81.537m0 0h15.492m0 0v14.359M85.549 192.63v1.889m0-.001h73.381m-.001 0v-1.889m0 .001h-73.38M85.549 230.416h36.69m-.001 0v-26.45m0-.001h-36.69m.001 0v26.45M122.239 230.416h36.69m0 0v-26.45m0-.001h-36.69m0 0v26.45M158.929 230.416h9.598m0 0V192.63m0 0h-9.598m0 0v1.889m0 9.446v26.45M75.951 230.416h9.598m0 0v-26.45m0-9.448v-1.889m0 .001h-9.598m0 0v37.786M122.239 194.518v9.447m0 0h41.489m0 0v-9.447m0 0h-41.489M122.239 194.518v9.447m0 0H80.75m0 0v-9.447m0 0h41.489M276.407 293.896h-22.671m0 0v22.672m0 0h22.671m0 0v-22.672M265.071 309.011v-7.557M267.743 307.905l-5.343-5.344M268.85 305.233h-7.557M267.743 302.56l-5.343 5.345M279.617 295.813h19.271m0 0l.534.221m0 0l.222.534m0 0v17.382m0 0l-.222.535m0 0l-.534.221m0 0h-19.271m0 0l-.534-.221m0 0l-.222-.535m0 0v-17.382m0 0l.222-.534m0 0l.534-.221M276.407 293.896h45.722M276.407 316.568h45.722M276.407 293.896v22.672M322.129 293.896v22.672M281.506 297.703h15.492M297.755 298.458v11.714M296.998 310.928h-7.002m-1.487 0h-7.002M280.751 310.172v-11.713M281.506 297.703h.108a.108.108 0 00-.108-.108c-.06 0-.108.048-.108.108s.048.108.108.108.108-.048.108-.108h-.108zM296.998 297.703c.417 0 .756.338.756.756M297.755 310.172a.757.757 0 01-.756.756M281.506 310.928a.755.755 0 01-.755-.756M280.751 298.458c0-.417.338-.756.755-.756M288.912 306.095l.1-.24m0 0l.241-.099m0 0l.24.1m0 0l.099.241m0 0v7.476m0 0l-.099.24m0 0l-.241.099m0 0l-.24-.099m0 0l-.1-.24m0 0v-7.478M288.498 311.646h.415m0 0v1.927m0 0l.099.24m0 0l.241.1m0 0l.24-.1m0 0l.1-.24m0 0v-1.927m0 0h.414m0 0v2.456m0 0h-1.509m0 0v-2.456M288.508 310.286h.404m0 0v1.322m0 0h-.404m0 0v-1.322M289.996 310.286v1.322m0 0h-.404m0 0v-1.322m0 0h.404M299.457 290.496v-22.671M322.129 290.496v-22.671M299.457 290.496h22.672M299.457 267.824h22.672M301.535 243.924v-21.916m0 0h18.516m0 0v21.916m0 0h-18.516M312.815 232.966h5.299M318.114 232.966v-1.096M312.815 232.966v-1.096M312.815 224.112h5.299M318.114 225.208v-1.096M312.815 225.208v-1.096M318.42 239.212a2.739 2.739 0 11-5.477 0 2.739 2.739 0 015.477 0zM311.409 237.941a3.968 3.968 0 11-7.935 0 3.968 3.968 0 017.935 0z"/><path class="st2" d="M309.709 237.941a2.268 2.268 0 11-4.536 0 2.268 2.268 0 014.536 0zM318.14 228.539a2.645 2.645 0 11-5.29 0 2.645 2.645 0 015.29 0zM310.305 227.421a3.401 3.401 0 11-6.803 0 3.401 3.401 0 016.803 0zM299.457 253.087v-40.242M322.129 253.087v-40.242M299.457 253.087h22.672M299.457 212.845h22.672M306.636 341.318v53.468M322.129 341.318v53.468M306.636 394.786h15.493M306.636 341.318h15.493M307.77 345.995v17.382M307.77 363.376h11.714M319.484 363.376v-17.382M319.484 345.995H307.77M307.77 372.728v17.382M307.77 390.11h11.714M319.484 390.11v-3.533m0-2.646v-2.059m0-.906v-2.06m0-2.645v-3.533M319.484 372.728H307.77M317.994 354.685a1.134 1.134 0 11-2.269 0 1.134 1.134 0 012.269 0zM317.899 381.873a1.135 1.135 0 01-2.078 0h2.078zm-2.078-.907a1.134 1.134 0 012.079 0h-2.079zM321.6 355.139v-.907m0 0h-7.749m0 0l-.3.256m0 0v.395m0 0l.3.256m0 0h7.749M321.6 353.93v1.511m0-.001h.264m0 0v-1.511m0 .001h-.264M321.864 353.552v2.267m0 0h.265m0 0v-2.267m0 0h-.265M320.24 351.417h1.625m-.001 0v.094m0 0h.132m0 0v.284m0 0h.132m.001 0v-1.889m0 0h-.132m-.001 0v.283m0 0h-.132m0 0v.094m0 0h-1.625m.001 0v.322m0 0h-.416m-.001 0v-1.077m0 0h-.491m0 0v2.644m0 0h.491m0 0v-1.076m0 0h.416m.001 0v.321M320.24 357.954h1.625m-.001 0v-.094m0 0h.132m0 0v-.283m0 0h.132m.001 0v1.889m0 0h-.132m-.001 0v-.283m0-.001h-.132m0 0v-.095m0 0h-1.625m.001 0v-.322m0 .001h-.416m-.001 0v1.078m0 0h-.491m0 0v-2.645m0-.001h.491m0 0v1.076m0 .001h.416m.001 0v-.321M321.6 381.872v-.907m0 .001h-7.749m0 0l-.3.256m0 0v.395m0-.001l.3.256m0 0h7.749M321.6 380.663v1.511m0 .001h.264m0 0v-1.511m0-.001h-.264M321.864 380.286v2.267m0-.001h.265m0 0v-2.267m0 .001h-.265M320.24 378.151h1.625m-.001 0v.094m0 0h.132m0 0v.284m0 0h.132m.001 0v-1.89m0 0h-.132m-.001 0v.283m0 0h-.132m0 0v.095m0 0h-1.625m.001 0v.322m0 0h-.416m-.001 0v-1.078m0 0h-.491m0 0v2.646m0 0h.491m0 0v-1.077m0 0h.416m.001 0v.321M320.24 384.688h1.625m-.001 0v-.095m0 0h.132m0 0v-.283m0 0h.132m.001 0v1.889m0 0h-.132m-.001 0v-.283m0 0h-.132m0 0v-.095m0 0h-1.625m.001 0v-.321m0 0h-.416m-.001 0v1.077m0 0h-.491m0 0v-2.645m0 0h.491m0 0v1.077m0 0h.416m.001 0v-.321M319.823 350.605l-.072.072M319.823 351.096l-.072-.072M320.24 350.605v.49M321.864 350.283v1.134M321.996 351.511v-1.322M319.823 358.766l-.072-.072M319.823 358.275l-.072.072M320.24 358.766v-.491M321.864 359.087v-1.134M321.996 357.859v1.323M319.823 377.338l-.072.072M319.823 377.829l-.072-.072M320.24 377.338v.491M321.864 377.017v1.134M321.996 378.245v-1.323M319.823 385.5l-.072-.072M319.823 385.009l-.072.072M320.24 385.5v-.491M321.864 385.821v-1.133M321.996 384.593v1.322M319.823 350.85a.246.246 0 11-.492 0 .246.246 0 01.492 0zM319.823 358.521a.246.246 0 11-.492 0 .246.246 0 01.492 0zM319.823 377.584a.246.246 0 11-.492 0 .246.246 0 01.492 0zM319.823 385.254a.246.246 0 11-.492 0 .246.246 0 01.492 0zM317.972 55.843a7.18 7.18 0 11-14.36-.001 7.18 7.18 0 0114.36.001zM312.263 282.317a3.412 3.412 0 11-6.823-.001 3.412 3.412 0 016.823.001z"/><path class="st2" d="M311.742 282.317a2.89 2.89 0 11-5.78 0 2.89 2.89 0 015.78 0zM310.599 276.008a2.58 2.58 0 11-5.16 0 2.58 2.58 0 015.16 0z"/><path class="st2" d="M309.464 276.008a1.444 1.444 0 11-2.889.001 1.444 1.444 0 012.889-.001zM177.183 430.305a3.778 3.778 0 11-7.557 0 3.778 3.778 0 017.557 0z"/><path class="st2" d="M174.538 430.305a1.134 1.134 0 11-2.269 0 1.134 1.134 0 012.269 0zM88.385 430.305a3.778 3.778 0 11-7.557 0 3.778 3.778 0 017.557 0z"/><path class="st2" d="M85.74 430.305a1.134 1.134 0 11-2.267 0 1.134 1.134 0 012.267 0zM190.076 78.892a3.78 3.78 0 11-7.558 0 3.78 3.78 0 017.558 0z"/><path class="st2" d="M187.43 78.892a1.134 1.134 0 11-2.269 0 1.134 1.134 0 012.269 0zM101.278 78.892a3.778 3.778 0 11-7.557.001 3.778 3.778 0 017.557-.001z"/><path class="st2" d="M98.632 78.892a1.134 1.134 0 11-2.267 0 1.134 1.134 0 012.267 0zM94.998 361.345h68.015m0 0v75.573m0 0H94.998m0 0v-75.573M96.887 359.456h64.237m0 0l.722.144m0 0l.614.409m0 0l.409.613m0 0l.144.723m0 0H94.998m0 0l.143-.723m0 0l.41-.613m0 0l.613-.409m0 0l.723-.144M94.998 440.696h68.015m0 0v-3.778m0 0H94.998m0 0v3.778M164.902 440.696h17.004m0 0v-18.893m0 0h-17.004m0 0v18.893M93.108 440.696H76.104m0 0v-18.893m0 0h17.004m0 0v18.893M135.051 435.029h25.695m0 0l.267-.111m0 0l.111-.267m0 0v-12.47m0 0l-.111-.267m0 0l-.267-.111m0 0h-25.695m0 0l-.267.111m0 0l-.111.267m0 0v12.47m0 0l.111.267m0 0l.267.111M122.959 435.029H97.265m0 0l-.268-.111m0 0l-.11-.267m0 0v-12.47m0 0l.11-.267m0 0l.268-.111m0 0h25.694m0 0l.268.111m0 0l.11.267m0 0v12.47m0 0l-.11.267m0 0l-.268.111M94.998 422.827h1.889M123.337 422.827h11.336M161.124 422.827h1.889M94.998 417.817h68.015m0 0v-18.686m0 0l-68.015 14.907m0 0v3.779M175.905 149.742h-68.016m0 0V74.169m0 0h68.016m0 0v75.573M174.016 151.631h-64.237m0 0l-.723-.144m0 0l-.613-.41m0 0l-.409-.613m0 0l-.144-.722m0 0h68.015m0 0l-.144.722m0 0l-.409.613m0 0l-.613.41m0 0l-.723.144M175.905 70.391h-68.016m0 0v3.779m0 0h68.016m0 0v-3.779M107.89 70.391h68.016m0 0v1.889m0 0H107.89m0 0v-1.889M106.001 70.391H88.998m0 0v18.893m0 0h17.003m0 0V70.391M177.795 70.391h17.004m0 0v18.893m0 0h-17.004m0 0V70.391M135.852 76.059h-25.695m0 0l-.267.111m0 0l-.111.267m0 0v12.469m0 0l.111.268m0 0l.267.11m0 0h25.695m0 0l.267-.11m0 0l.111-.268m0 0V76.437m0 0l-.111-.267m0 0l-.267-.111M147.944 76.059h25.695m-.001 0l.267.111m.001 0l.111.267m0 0v12.469m0 0l-.111.268m0 0l-.267.11m-.001 0h-25.695m.001 0l-.267-.11m0 0l-.111-.268m0 0V76.437m0 0l.111-.267m0 0l.267-.111M175.905 88.26h-1.889M147.566 88.26H136.23M109.78 88.26h-1.891M175.905 93.27h-68.016m0 0v18.686m0-.001l68.016-14.907m0 0V93.27M214.06 70.391h22.672m0 0v70.661m0 0H214.06m0 0V70.391M225.774 141.051h-.756m0 0V70.39m0 0h.756m0 0v70.661M216.053 77.827h18.626m0 0v.756m0 .001h-18.626m0 0v-.756M216.053 79.832h18.626m0 0v.755m0 .001h-18.626m0 0v-.755M216.053 81.837h18.626m0 0v.756m0 0h-18.626m0 0v-.756M216.053 83.841h18.626m0 0v.756m0 0h-18.626m0 0v-.756M216.188 88.088l18.491-2.241m0-.001l.091.75m0 0l-18.491 2.241m0 .001l-.091-.75M95.761 308.801v1.02m0 0h44.369m0 0v-1.02m0 0H95.761M97.164 309.821l-.709 3.41m0 0l-.68-.141m0 0l.68-3.269m0 0h.709M105.462 309.821v.833m0 0l.152.566m-.001 0l.415.415m0 0l.567.152m.001 0h22.699m0 0l.567-.152m0 0l.414-.415m-.001 0l.152-.566m.001 0v-.833m0 0h-24.966M97.164 308.445l-.709-3.41m0 0l-.68.141m0 0l.68 3.269m0 0h.709M138.726 309.821l.709 3.41m0 0l.68-.141m0 0l-.68-3.269m0 0h-.709M138.726 308.504l.709-3.41m0 0l.68.141m0 0l-.68 3.269m0 0h-.709M95.761 308.504v.297m0 0h44.369m0 0v-.297m0 0H95.761M198.001 440.696v-72.171m0 0h22.672m0 0v50.066m0 0h30.04m0 0v22.105m0 0h-52.712M250.712 429.549v.756m0 0h-41.891m.001 0l.756-.756m0 0h41.135M209.578 429.549l-.756.756m0 0v-61.78m0 0h.756m0 0v61.024M199.857 376.036h18.626m0 0v.755m0 .001h-18.626m0 0v-.755M199.857 378.041h18.626m0 0v.756m0 0h-18.626m0 0v-.756M199.857 380.046h18.626m0 0v.755m0 0h-18.626m0 0v-.755M199.857 382.05h18.626m0 0v.756m0 0h-18.626m0 0v-.756M199.992 386.296l18.491-2.241m0 0l.091.75m0 0l-18.491 2.241m0 0l-.091-.75M248.634 37.516h-8.879m0 0v-26.45m0 0h8.879m0 0v26.45M282.075 209.822v-22.671m0 0h40.054m0 0v22.671m0 0h-40.054M322.129 198.245v.756m0 0H282.15m0 0v-.756m0 0h39.979M289.587 207.966V189.34m0 0h.756m0 0v18.626m0 0h-.756M291.591 207.966V189.34m0 0h.756m.001 0v18.626m0 0h-.756M293.596 207.966V189.34m0 0h.755m0 0v18.626m0 0h-.755M295.601 207.966V189.34m0 0h.756m0 0v18.626m0 0h-.756M299.847 207.831l-2.241-18.491m0 0l.75-.091m0 0l2.241 18.491m0 0l-.75.091M310.277 49.835l.449 1.233m0 0v1.312m0 0l-.449 1.234m0 0l.342 1.472m0 0v1.513m0 0l-.342 1.474m0 0l.45 1.234m0 0v1.314m0 0l-.45 1.234m0 0l2.987-2.231m0 0v-7.558m0 0l-2.987-2.231M313.526 52.067v7.558m0 0h-.261m0 0v-7.558m0 0h.261M314.049 52.067v7.558m0 0h-.262m0 0v-7.558m0 0h.262M308.762 56.686l-.085-.891m-.001 0l.226-.021m0 0l.046.477m0 0l1.142-1.384m0 0l.152.126m0 0l-.53.642m0 0l.081.068m0 0l.611-.74m0 0l.147.12m0 0l-.611.74m0 0l.097.081m0 0l.496-.602m0 0l.131.108m0 0l-.497.601m0 0l.097.08m0 0l.343-.414m0 0l.14.115m0 0l-1.174 1.423M299.457 44.507v22.672m0 0h22.672m0 0V44.507m0 0h-22.672M276.407 316.568h45.722m0 0V212.845m0 0h-22.672m0 0v81.051m0 0h-23.05m0 0v22.672M306.645 286.385v-.963m0 0h-1.205m0 0v-12.524m0 0h1.205m0 0v-.964M316.171 284.921l-.103-.047m-.103-.047l-.104-.048m-.102-.046l-.104-.048m-.103-.047l-.103-.047m-.103-.047l-.103-.047m-.104-.048l-.103-.047m-.102-.046l-.103-.048m-.103-.047l-.103-.047m-.104-.047l-.103-.048m-.102-.047l-.103-.047m-.105-.047l-.103-.047m-.102-.047l-.103-.047m-.103-.047l-.103-.048m-.103-.047l-.104-.047m-.103-.047l-.104-.047m-.102-.047l-.103-.048m-.104-.047l-.103-.047M316.171 275.288l-.103.047m-.103.048l-.104.047m-.102.047l-.104.047m-.103.047l-.103.047m-.103.046l-.103.047m-.104.048l-.103.047m-.102.047l-.103.047m-.103.048l-.103.048m-.104.047l-.103.047m-.102.046l-.103.047m-.105.048l-.103.047m-.102.048l-.103.046m-.103.048l-.103.047m-.103.046l-.104.047m-.103.048l-.104.048m-.102.047l-.103.047m-.104.047l-.103.047M316.171 284.921v-.078m0-.113v-.113m0-.114v-.113m0-.114v-.078m0 0l-.051-.041m-.089-.072l-.088-.071m-.088-.072l-.088-.071m-.087-.072l-.089-.071m-.087-.072l-.088-.071m-.088-.071l-.089-.072m-.089-.071l-.087-.072m-.087-.071l-.089-.072m-.089-.071l-.087-.071m-.087-.072l-.089-.071m-.088-.072l-.088-.071m-.088-.072l-.088-.071m-.088-.072l-.088-.071m-.088-.071l-.088-.072m-.088-.071l-.088-.072m-.089-.071l-.087-.072m-.088-.071l-.088-.072m-.089-.071l-.088-.071m-.087-.072l-.088-.071m-.088-.072l-.088-.071m-.087-.072l-.089-.071m-.088-.072l-.088-.071m-.088-.071l-.051-.042M316.171 275.288v.078m0 .112v.114m0 .114v.113m0 .114v.078m0 0l-.051.042m-.089.071l-.088.071m-.088.072l-.088.071m-.087.072l-.089.071m-.087.072l-.088.071m-.088.071l-.089.072m-.089.07l-.087.072m-.087.072l-.089.072m-.089.071l-.087.072m-.087.071l-.089.072m-.088.07l-.088.071m-.088.073l-.088.071m-.088.071l-.088.071m-.088.073l-.088.071m-.088.071l-.088.072m-.089.071l-.087.072m-.088.071l-.088.072m-.089.072l-.088.071m-.087.071l-.088.072m-.088.071l-.088.071m-.087.072l-.089.072m-.088.071l-.088.072m-.088.07l-.051.042M316.649 275.288v9.634m0 0h-.479m0 0v-.723m0-.001h.238m0 0v-8.188m0 .001h-.238m0 0v-.723m0 0h.479M322.129 37.516h-8.88m0 0v-26.45m0 0h8.88m0 0v26.45M297.568 42.051h-1.889m-.001 0v50.822m0 0h1.889m.001 0V42.051M255.247 51.875h-15.492m0 0V37.516m0 0h15.492m0 0v14.359M255.247 95.896h-15.492m0 0V81.537m0 0h15.492m0 0v14.359M177.084 429.445l-3.68.86m0 0l-1.583 3.431m0 0l1.583-3.431m0 0l-1.306-3.546M80.927 429.445l3.679.86m0 0l1.584 3.431m0 0l-1.584-3.431m0 0l1.306-3.546M189.976 78.032l-3.679.86m0 0l-1.584 3.431m0 0l1.584-3.431m0 0l-1.306-3.546M93.819 78.032l3.679.86m0 0l1.584 3.431m0 0l-1.584-3.431m0 0l1.306-3.546"/><g><path class="st2" d="M232.673 204.883l-4.109-4.109m0-.001l-.426-.407m0 0l-.43-.371m0 0l-.424-.328m0 0l-.403-.276m0 0l-.017-.009m0 .001l-.375-.216m0 0l-.332-.147m0-.001l-.025-.008m0 0l-.281-.075m0 .001l-.028-.004m0-.001l-.22.002m0 0l-.03.002m0 .001l-.029.007m0-.001l-.027.013m0 0l-.154.078m0 0l-.024.018m0 .001l-.012.01m0-.001l-1.133 1.134m0 .001l-1.03-1.029m0-.001l-5.217 5.217m11.114 11.117l5.217-5.218m.001 0l-1.029-1.029m0-.001l1.134-1.134m-.001 0l.011-.011m.001 0l.017-.025m0 0l.078-.154m0 .001l.013-.027m0 0l.008-.029m0-.001l.002-.029m0 0l.001-.221m0 0l-.003-.028m0 .001l-.075-.281m0-.001l-.008-.025m0 0l-.148-.332m0 .001l-.214-.376m0-.001l-.011-.016m0 .001l-.276-.404m0-.001l-.328-.423m0 0l-.371-.429m0 0l-.407-.427M223.525 200.865l9.057 9.057M223.648 200.988l.897-.898M232.458 209.798l.898-.898M228.585 213.918l4.664-4.664M219.528 204.861l4.664-4.663M227.534 201.796l4.117 4.117M224.546 200.091c.354-.354 1.691.409 2.988 1.706M231.65 205.912c1.296 1.296 2.06 2.634 1.705 2.988M196.074 233.264l4.108 4.108m0 0l.427.408m0 0l.43.371m0 0l.423.328m0 0l.404.275m0 0l.016.011m0 0l.376.215m0 0l.332.147m0 0l.024.008m0 0l.281.075m0 0l.029.003m0 0l.22-.001m0 0l.03-.002m0 0l.028-.008m0 0l.027-.012m0 0l.154-.078m0 0l.025-.018m0 0l.011-.011m0 0l1.134-1.133m0 0l1.029 1.029m0 0l5.219-5.218m-11.117-11.114l-5.216 5.217m0 0l1.029 1.029m0 0l-1.135 1.134m0 0l-.01.011m0 0l-.017.025m0 0l-.078.153m0 0l-.013.027m0 0l-.008.03m0 0l-.002.029m0 0l-.001.221m0 0l.003.027m0 0l.074.282m0 0l.009.025m0 0l.147.332m0 0l.215.375m0 0l.01.016m0 0l.276.404m0 0l.329.424m0 0l.371.429m0 0l.407.427M205.222 237.282l-9.057-9.057M205.098 237.158l-.897.898M196.288 228.348l-.897.897M200.161 224.229l-4.663 4.664M209.218 233.285l-4.664 4.664M201.213 236.351l-4.117-4.117M204.2 238.056c-.354.354-1.692-.409-2.988-1.705M197.095 232.234c-1.296-1.296-2.06-2.634-1.705-2.988M200.182 200.773l-4.108 4.109m0 .001l-.408.427m0-.001l-.371.429m.001.001l-.329.423m-.001-.001l-.275.404m0 .001l-.01.016m0 0l-.216.376m0 0l-.146.332m0-.001l-.009.025m0 .001l-.074.281m0 0l-.003.028m.001 0l.001.221m-.001-.001l.002.029m0 .001l.008.029m0 0l.012.027m.001 0l.078.154m-.001-.001l.018.024m0 0l.01.012m.001 0l1.134 1.133m-.001 0l-1.029 1.03m0 .001l5.217 5.217m11.116-11.115l-5.218-5.217m0 0l-1.028 1.029m-.001 0l-1.135-1.134m0-.001l-.01-.01m0 .001l-.026-.018m0 0l-.153-.078m0-.001l-.027-.013m0 .001l-.029-.007m0 0l-.029-.002m.001 0l-.221-.002m-.001 0l-.028.004m0 0l-.281.075m.001-.001l-.025.008m0 .001l-.332.147m-.001 0l-.376.215m.001 0l-.015.01m0-.001l-.405.276m-.001.001l-.423.328m0 0l-.429.371m.001 0l-.427.407M196.165 209.921l9.057-9.057M196.288 209.798l-.897-.898M205.098 200.988l-.897-.898M209.218 204.861l-4.664-4.663M200.161 213.917l-4.663-4.663M197.095 205.912l4.117-4.117M195.39 208.9c-.354-.354.409-1.692 1.705-2.988M201.212 201.795c1.297-1.296 2.635-2.059 2.988-1.705M228.563 237.373l4.109-4.108m0 0l.408-.427m0-.001l.371-.43m0 .001l.328-.424m0 0l.275-.403m0 0l.011-.017m0 0l.215-.375m0 0l.147-.332m0 0l.008-.024m0 0l.075-.282m0 0l.003-.028m0 0l-.001-.22m0 0l-.002-.03m0 0l-.008-.029m0-.001l-.012-.027m0 .001l-.078-.154m0 0l-.018-.024m0 0l-.011-.012m0 0l-1.133-1.133m0 0l1.029-1.03m0 0l-5.218-5.218m-11.115 11.115l5.219 5.218m-.001 0l1.029-1.029m0-.001l1.134 1.134m0 .001l.011.011m0 0l.025.017m0 0l.153.078m0 0l.027.013m0 0l.03.008m0 0l.029.002m0 0l.221.001m0 0l.027-.003m0 0l.281-.075m0-.001l.026-.008m0 .001l.332-.148m0 0l.375-.214m0 0l.016-.011m0 0l.404-.276m0 0l.424-.328m0 0l.429-.371m0 0l.426-.407M232.582 228.225l-9.057 9.057M232.458 228.348l.898.897M223.648 237.158l.897.898M219.528 233.285l4.664 4.664M228.585 224.228l4.664 4.665M231.651 232.234l-4.117 4.117M233.356 229.246c.354.354-.409 1.691-1.705 2.987M227.534 236.35c-1.296 1.296-2.634 2.06-2.988 1.705M229.487 219.073c0 8.348-6.767 15.114-15.114 15.114-8.348 0-15.115-6.766-15.115-15.114 0-8.347 6.767-15.114 15.115-15.114 8.347 0 15.114 6.767 15.114 15.114z"/></g></g><g id="walls_1_"><path class="st3" d="M52.955 427.282h15.492M45.398 427.282h5.668M51.066 427.282h1.889M52.955 344.152h15.492M45.398 344.152h5.668M51.066 344.152h1.889M45.398 344.152v83.13M68.447 344.152v83.13M52.955 344.152v3.779M52.955 347.931h-1.889M51.066 347.931v-3.779M51.066 383.828v-1.889M51.066 381.939h1.889M52.955 381.939v1.889M52.011 347.931v34.008M52.955 347.931v34.008M51.066 381.939v-34.008M52.955 383.828v.945M52.955 384.773h-.944M52.011 384.773v.944M52.011 385.717h-.945M51.066 385.717v-1.889M51.066 427.282v-3.779M51.066 423.503h.945M52.011 423.503v.945M52.011 424.448h.944M52.955 424.448v2.834M53.9 424.448l28.055-28.055M51.066 423.503v-37.786M53.9 387.606v34.008M53.9 384.773v2.833M53.9 387.606h-1.889M52.011 387.606v-2.833M52.011 384.773H53.9M52.011 424.448v-2.834M52.011 421.614H53.9M53.9 421.614v2.834M53.9 424.448h-1.889M52.011 421.614v-34.008M53.9 387.606v34.008M52.955 387.606v34.008M53.9 384.773a39.675 39.675 0 0128.055 11.621M51.066 344.152h1.889M51.066 344.152h1.889M45.398 344.152h5.668M52.955 344.152h15.492M51.066 427.282h1.889M51.066 427.282h1.889M45.398 427.282h5.668M52.955 427.282h15.492M45.398 344.152h23.049"/><g><path class="st3" d="M52.955 216.435h15.492M45.398 216.435h5.668M51.066 216.435h1.889M52.955 282.561h15.492M45.398 282.561h5.668M51.066 282.561h1.889M45.398 282.561v-66.126M68.447 282.561v-66.126M52.955 282.561v-3.779M52.955 278.782h-1.889M51.066 278.782v3.779M51.066 244.774v1.889M51.066 246.663h1.889M52.955 246.663v-1.889M52.011 278.782v-32.119M52.955 278.782v-32.119M51.066 246.663v32.119M52.955 244.774v-.944M52.955 243.83h-.944M52.011 243.83v-.945M52.011 242.885h-.945M51.066 242.885v1.889M51.066 216.435v3.778M51.066 220.213h.945M52.011 220.213v-.945M52.011 219.268h.944M52.955 219.268v-2.833M51.066 220.213v22.672M53.9 240.995v-18.892M53.9 243.83v-2.834M53.9 240.995h-1.889M52.011 240.995v2.835M52.011 243.83H53.9M52.011 219.268v2.834M52.011 222.102H53.9M53.9 222.102v-2.834M53.9 219.268h-1.889M52.011 222.102v18.893M53.9 240.995v-18.892M52.955 240.995v-18.892M51.066 282.561h1.889M51.066 282.561h1.889M45.398 282.561h5.668M52.955 282.561h15.492M51.066 216.435h1.889M51.066 216.435h1.889M45.398 216.435h5.668M52.955 216.435h15.492M45.398 216.435h23.049"/></g><g><path class="st3" d="M52.955 158.999h15.492M45.398 158.999h5.668M51.066 158.999h1.889M52.955 92.873h15.492M45.398 92.873h5.668M51.066 92.873h1.889M45.398 92.873v66.126M68.447 92.873v66.126M52.955 92.873v3.779M52.955 96.652h-1.889M51.066 96.652v-3.779M51.066 130.659v-1.889M51.066 128.77h1.889M52.955 128.77v1.889M52.011 96.652v32.118M52.955 96.652v32.118M51.066 128.77V96.652M52.955 130.659v.945M52.955 131.604h-.944M52.011 131.604v.945M52.011 132.549h-.945M51.066 132.549v-1.89M51.066 158.999v-3.778M51.066 155.221h.945M52.011 155.221v.944M52.011 156.165h.944M52.955 156.165v2.834M51.066 155.221v-22.672M53.9 134.438v18.893M53.9 131.604v2.834M53.9 134.438h-1.889M52.011 134.438v-2.834M52.011 131.604H53.9M52.011 156.165v-2.834M52.011 153.331H53.9M53.9 153.331v2.834M53.9 156.165h-1.889M52.011 153.331v-18.893M53.9 134.438v18.893M52.955 134.438v18.893M51.066 92.873h1.889M51.066 92.873h1.889M45.398 92.873h5.668M52.955 92.873h15.492M51.066 158.999h1.889M51.066 158.999h1.889M45.398 158.999h5.668M52.955 158.999h15.492M45.398 92.873h23.049"/></g><path class="st3" d="M45.398 325.259H.054m0 0v120.916m0 0h45.344m0 0V325.259"/><path d="M155.332 192.629H68.448v23.805h-23.05v-57.435h23.05v23.05h86.884v10.58h0zM322.183.108h9.068V141.8h-1.511v.454h-7.557V.108h0zm0 431.708h7.557v.453h1.511v18.629h-9.068v-19.082h0zm-166.851 19.082H45.398v-23.616h23.05v13.414h86.884v10.202h0zM68.448 92.873h-23.05V59.432h23.05v33.441h0zm253.735 87.923v233.638h7.557v-.453h1.511V181.249h-1.511v-.453h-7.557 0zM68.448 344.152h-23.05V282.56h23.05v61.592z" fill-rule="evenodd" clip-rule="evenodd" fill="#020203" stroke="#020203" stroke-miterlimit="3"/><path class="st0" d="M68.448 319.591v-3.023h142.407v1.511h.453v1.512H68.448zM236.786 70.39v-.001H68.448V59.432h160.403V.108H322.183v10.958h-82.374V125.18h5.97v1.512h.453v1.511h-6.423v18.515h-1.512v-.453h-1.511V70.39zm62.725 370.306v-45.911h22.672v10.581h-12.47v35.33h12.47v10.202H155.332v-10.202h39.7v-72.172h3.023v72.172h52.712v-55.437h1.511v.454h1.512v54.983h45.721zM155.332 182.049v10.58h84.477v-16.248h-1.512v.453h-1.511v5.215h-81.454zm88.472 134.519h6.963v-22.672h3.023v22.672h68.392v3.023h-10.957v18.704h10.958v3.023h-13.981v-17.193H253.79V357.6h-1.512v.453h-1.511v-38.462h-8.474v-1.512h.453v-1.511h1.058zm64.398 3.023H253.79v1.511h54.412v-1.511zm13.981-279.052v-3.023h-26.451v3.023h26.451zM306.69 68.69v3.023h.001v21.16h-10.958v3.023H317.65v29.284h-44.513v1.512h-.453v1.511h49.5v-3.023h-1.512V95.896h1.512v-3.023h-12.471v-21.16h12.47V68.69H306.69zm15.493 141.132v3.022h-43.076V187.15h3.022v22.672h40.054zm0 203.101zm0 18.893"/><g><path class="st5" d="M338.434 430.801c-2.895 1.025-4.119 1.26-7.182 1.469"/><path class="st6" d="M338.529 430.751l-7.278-16.77-1.573-.083.061.536 7.366 16.891z"/><g><path class="st5" d="M264.849 383.44c-4.294 1.602-6.482 2.038-11.06 2.273"/><path class="st6" d="M264.948 383.403L253.79 357.6h-1.512v.453l11.283 25.95z"/><g><path class="st5" d="M213.441 304c-1.663 4.473-2.338 7.707-2.586 12.568"/><path class="st6" d="M213.474 303.909l-.599 1.388 29.418 12.782h.453v-1.51z"/></g></g><g><path class="st5" d="M346.801 178.055c-6.026 2.247-9.127 2.866-15.55 3.194"/><path class="st6" d="M346.909 178.008L331.251 141.8h-1.512v.455l15.783 36.353z"/><g><path class="st5" d="M224.742 148.738c4.617-1.714 7.125-2.221 12.044-2.472"/><path class="st6" d="M224.652 148.776l12.133 28.058h1.512v-.453l-12.258-28.205z"/></g><g><path class="st5" d="M270.924 114.425c1.542 4.118 1.988 6.366 2.211 10.755"/><path class="st6" d="M270.889 114.322l-25.11 10.858v1.512h.453l25.257-10.983z"/></g></g></g><g><path class="st7" d="M73.64 59.61l-5.05 4.45M81.07 59.61L68.64 70.56M88.49 59.61L76.06 70.56M95.91 59.61L83.48 70.56M103.34 59.61L90.91 70.56M110.75 59.61L98.32 70.56M118.18 59.61l-12.43 10.95M125.6 59.61l-12.43 10.95M133.02 59.61l-12.43 10.95M140.45 59.61l-12.43 10.95M147.87 59.61l-12.43 10.95M155.29 59.61l-12.44 10.95M230.06.28l-1.06.93M162.71 59.61l-12.43 10.95M237.48.28L229 7.75M170.13 59.61L157.7 70.56M244.91.28L229 14.29M177.56 59.61l-12.43 10.95M252.33.28L229 20.83M184.98 59.61l-12.43 10.95M239.95 17.72L229 27.37M259.75.28l-12.44 10.96M192.4 59.61l-12.43 10.95M239.95 24.26L229 33.9M267.17.28l-12.44 10.96M199.82 59.61l-12.43 10.95M239.95 30.8L229 40.44M274.59.28l-12.44 10.96M207.24 59.61l-12.43 10.95M239.95 37.34L229 46.98M282.02.28l-12.45 10.96M214.67 59.61l-12.43 10.95M239.95 43.88L229 53.52M289.44.28L277 11.24M222.09 59.61l-12.43 10.95M296.86.28l-12.44 10.96M239.95 50.41l-22.87 20.15M304.29.28l-12.44 10.96M239.95 56.96l-15.44 13.6M311.71.28l-12.44 10.96M239.95 63.5l-8.02 7.06M319.13.28l-12.45 10.96M239.95 70.03l-3.02 2.66M322.33 4l-8.22 7.24M239.95 76.57l-3.02 2.66M322.33 10.53l-.8.71M239.95 83.1l-3.02 2.67M298.93 37.69l-3.05 2.69M239.95 89.65l-3.02 2.66M239.95 96.19l-3.02 2.66M306.35 37.69l-3.43 3.02M239.95 102.72l-3.02 2.66M313.77 37.69l-3.42 3.02M321.19 37.69l-3.43 3.02M157.12 182.22l-1.64 1.45M239.95 109.26l-3.02 2.66M239.95 115.8l-3.02 2.66M164.55 182.22l-9.07 7.99M239.95 122.34l-3.02 2.66M171.97 182.22l-12.01 10.58M308.07 68.87l-1.23 1.08M179.4 182.22l-12.01 10.58M239.95 128.88l-3.02 2.66M243.94 125.36l-3.43 3.02M186.82 182.22l-12.01 10.58M239.95 135.41l-3.02 2.67M315.49 68.87l-3.43 3.02M309.86 73.83l-3.02 2.66M322.33 69.39l-2.84 2.5M194.24 182.22l-12.01 10.58M239.95 141.96l-3.02 2.66M309.86 80.37l-3.02 2.66M201.66 182.22l-12.01 10.58M302.88 93.05l-3.43 3.02M309.86 86.9l-3.02 2.66M209.08 182.22l-12.01 10.58M273.63 125.36l-.35.31M310.3 93.05l-3.42 3.02M216.5 182.22l-12.01 10.58M317.73 93.05l-3.43 3.02M281.05 125.36l-3.43 3.02M322.33 95.53l-.61.54M223.93 182.22l-12.01 10.58M71.22 316.74l-2.63 2.32M320.82 96.86l-3.03 2.67M288.47 125.36l-3.43 3.02M231.35 182.22l-12.01 10.58M78.65 316.74l-3.44 3.03M237.27 177.01l-.34.3M320.82 103.41l-3.03 2.67M295.9 125.36l-3.43 3.02M239.95 181.19l-13.18 11.61M86.07 316.74l-3.44 3.03M320.82 109.95l-3.03 2.66M303.32 125.36l-3.43 3.02M93.5 316.74l-3.44 3.03M239.95 187.72l-5.76 5.08M320.82 116.48l-3.03 2.67M310.74 125.36l-3.42 3.02M100.91 316.74l-3.44 3.03M320.82 123.02l-6.09 5.36M322.33 128.23l-.17.15M108.33 316.74l-3.44 3.03M115.76 316.74l-3.44 3.03M123.18 316.74l-3.44 3.03M130.61 316.74l-3.44 3.03M282.27 189.67l-3.02 2.66M138.03 316.74l-3.44 3.03M145.44 316.74l-3.44 3.03M282.27 196.21l-3.02 2.66M152.87 316.74l-3.44 3.03M282.27 202.75l-3.02 2.66M160.29 316.74l-3.44 3.03M282.27 209.29l-3.02 2.66M167.71 316.74l-3.44 3.03M288.88 210l-3.43 3.02M175.14 316.74l-3.44 3.03M296.31 210l-3.43 3.02M182.56 316.74l-3.44 3.03M303.73 210l-3.43 3.02M189.99 316.74l-3.44 3.03M311.15 210l-3.43 3.02M318.57 210l-3.43 3.02M197.4 316.74l-3.44 3.03M204.82 316.74l-3.44 3.03M211 317.84l-2.19 1.93M252.83 294.07l-1.92 1.69M253.94 299.63l-3.03 2.67M253.94 306.16l-3.03 2.67M249.36 316.74l-3.44 3.03M253.94 312.7l-3.03 2.67M197.8 368.7l-2.62 2.3M256.78 316.74l-5.87 5.17M198.2 374.88l-3.02 2.66M259.05 321.28l-3.43 3.02M264.2 316.74l-3.44 3.03M253.94 325.78l-3.03 2.67M198.2 381.42l-3.02 2.66M266.47 321.28l-3.43 3.02M271.63 316.74l-3.44 3.03M253.94 332.32l-3.03 2.67M198.2 387.96l-3.02 2.66M273.9 321.28l-3.43 3.02M279.05 316.74l-3.44 3.03M253.94 338.86l-3.03 2.67M198.2 394.5l-3.02 2.66M281.32 321.28l-3.43 3.02M286.47 316.74l-3.43 3.03M253.94 345.4l-3.03 2.67M198.2 401.04l-3.02 2.66M253.94 351.93l-3.03 2.67M293.89 316.74l-3.44 3.03M288.74 321.28l-3.43 3.02M198.2 407.57l-3.02 2.66M160.4 440.87l-4.92 4.34M301.31 316.74l-3.44 3.03M296.16 321.28l-3.43 3.02M167.83 440.87l-11.58 10.2M198.2 414.11l-3.02 2.66M308.74 316.74l-3.44 3.03M303.58 321.28l-3.43 3.02M175.25 440.87l-11.58 10.2M198.2 420.65l-3.02 2.66M316.16 316.74l-3.44 3.03M311.37 320.96l-3.79 3.34M322.33 317.84l-2.19 1.93M182.68 440.87l-11.58 10.2M198.2 427.19l-3.02 2.66M311.37 327.5l-3.02 2.66M190.1 440.87l-11.58 10.2M198.2 433.73l-3.02 2.66M252.51 385.89l-1.6 1.41M311.37 334.04l-3.02 2.66M198.2 440.27l-12.26 10.8M253.94 391.16l-3.03 2.67M313.76 338.47l-3.43 3.02M321.18 338.47l-3.43 3.02M253.94 397.7l-3.03 2.67M204.94 440.87l-11.58 10.2M253.94 404.24l-3.03 2.67M212.36 440.87l-11.58 10.2M253.94 410.78l-3.03 2.67M219.78 440.87l-11.57 10.2M253.94 417.32l-3.03 2.67M227.21 440.87l-11.58 10.2M253.94 423.86l-3.03 2.67M234.63 440.87l-11.58 10.2M253.94 430.39l-3.03 2.67M242.05 440.87l-11.58 10.2M301.59 394.96l-1.93 1.7M253.94 436.93l-3.03 2.67M249.47 440.87l-11.58 10.2M309.01 394.96l-9.35 8.23M256.89 440.87l-11.58 10.2M316.43 394.96l-16.77 14.77M264.32 440.87l-11.58 10.2M309.86 407.29l-10.2 8.98M322.33 396.3l-10.48 9.24M271.74 440.87l-11.58 10.2M322.33 402.84l-3.06 2.7M309.86 413.83l-10.2 8.98M279.16 440.87l-11.57 10.2M309.86 420.37l-10.2 8.98M286.59 440.87l-11.58 10.2M309.86 426.9l-10.2 8.99M294 440.87l-11.57 10.2M309.86 433.44l-20.01 17.63M309.86 439.98l-12.59 11.09M316.27 440.87l-11.58 10.2M322.33 442.07l-10.21 9M322.33 448.61l-2.79 2.46"/></g><path d="M68.448 319.591v-3.023h142.407v1.511h.453v1.512H68.448h0zM236.786 70.39v-.001H68.448V59.432h160.403V.108H322.183v10.958h-82.374V125.18h5.97v1.512h.453v1.511h-6.423v18.515h-1.512v-.453h-1.511V70.39h0zm62.725 370.306v-45.911h22.672v10.581h-12.47v35.33h12.47v10.202H155.332v-10.202h39.7v-72.172h3.023v72.172h52.712v-55.437h1.511v.454h1.512v54.983h45.721zM155.332 182.049v10.58h84.477v-16.248h-1.512v.453h-1.511v5.215h-81.454 0zm88.472 134.519h6.963v-22.672h3.023v22.672h68.392v3.023h-10.957v18.704h10.958v3.023h-13.981v-17.193H253.79V357.6h-1.512v.453h-1.511v-38.462h-8.474v-1.512h.453v-1.511h1.058zm64.398 3.023H253.79v1.511h54.412v-1.511h0zm13.981-279.052h-26.451v-3.023h26.451v3.023h0zM306.69 68.69h15.493v3.023h-12.47v21.16h12.471v3.023h-1.512v29.284h1.512v3.023h-49.5v-1.511h.453v-1.512h44.513V95.896h-21.917v-3.023h10.958v-21.16h-.001V68.69h0zm15.493 141.132v3.022h-43.076V187.15h3.022v22.672h40.054zm0 203.101h0zm0 18.893" fill-rule="evenodd" clip-rule="evenodd" fill="none" stroke="#020203" stroke-miterlimit="22.926"/></g><g id="sizes"><path class="st9" d="M75.285 176.944h-1.594v-9.625l-1.617.992v-1.648l1.617-1.078h1.594v11.359zM79.847 177.061l-.727-.348a2.857 2.857 0 01-1.168-1.008c-.295-.439-.48-.97-.559-1.59h1.625c.047.323.148.589.305.797.156.209.357.363.605.465.247.102.537.152.871.152.525 0 .935-.141 1.227-.422.291-.281.438-.677.438-1.188v-.344c0-.567-.139-1.006-.414-1.316-.276-.31-.667-.465-1.172-.465h-.805v-1.516h.805c.442 0 .786-.133 1.031-.398.244-.266.367-.641.367-1.125v-.352c0-.447-.129-.794-.387-1.039-.258-.244-.624-.367-1.098-.367a1.68 1.68 0 00-.727.152c-.214.102-.395.258-.543.469s-.257.476-.324.793H77.58c.104-.619.301-1.15.59-1.594a2.886 2.886 0 011.098-1.008c.442-.229.95-.344 1.523-.344.979 0 1.736.258 2.273.773.536.516.805 1.242.805 2.18v.188c0 .568-.154 1.063-.461 1.484-.308.422-.742.729-1.305.922.619.136 1.1.44 1.441.914.341.475.512 1.078.512 1.813v.188c0 .662-.128 1.227-.383 1.695a2.53 2.53 0 01-1.113 1.07c-.487.245-1.074.367-1.762.367l-.951.002zM86.167 175.35h1.594v1.594l-1.594 1.578v-3.172zM91.593 176.725a2.75 2.75 0 01-1.086-.977c-.279-.427-.465-.939-.559-1.539v-.008h1.594v.008c.057.417.224.741.5.973.275.232.635.348 1.078.348.51 0 .904-.17 1.184-.512.278-.341.418-.821.418-1.441v-.953c0-.614-.14-1.092-.418-1.434-.279-.341-.674-.512-1.184-.512-.276 0-.542.078-.797.234a2.225 2.225 0 00-.672.656h-1.453v-5.984h5.789v1.516h-4.195v2.555a2.262 2.262 0 011.414-.508c.656 0 1.217.136 1.684.406.466.271.82.667 1.063 1.188.242.521.363 1.148.363 1.883v.953c0 .734-.125 1.362-.375 1.883-.25.521-.615.918-1.094 1.191-.479.273-1.055.41-1.727.41-.573 0-1.081-.112-1.527-.336zM300.695 139.361l3.813-8.227h1.641l-3.719 8.133H308v1.477h-7.305v-1.383zm4.898-3.555h1.555v6.688h-1.555v-6.688zM309.796 140.892h1.594v1.594l-1.594 1.578v-3.172zM316.32 142.486h-1.594v-9.625l-1.617.992v-1.648l1.617-1.078h1.594v11.359z"/><g><path class="st9" d="M169.5 309.488l3.961-5.281c.229-.302.407-.615.535-.941.128-.325.191-.629.191-.91v-.016c0-.453-.133-.805-.398-1.055s-.644-.375-1.133-.375c-.464 0-.839.137-1.125.41s-.461.66-.523 1.16v.008h-1.648v-.008c.094-.65.285-1.207.574-1.668s.663-.813 1.121-1.055.987-.363 1.586-.363c.677 0 1.255.116 1.734.348.479.232.844.569 1.094 1.012.25.443.375.977.375 1.602v.008c0 .401-.083.82-.25 1.258s-.398.859-.695 1.266l-3.289 4.469h4.297v1.516H169.5v-1.385zM180.68 310.87h-1.594v-9.625l-1.617.992v-1.648l1.617-1.078h1.594v11.359zM183.102 309.277h1.594v1.594l-1.594 1.578v-3.172zM186.727 307.745l3.813-8.227h1.641l-3.719 8.133h5.57v1.477h-7.305v-1.383zm4.898-3.554h1.555v6.688h-1.555v-6.688z"/></g><g><path class="st9" d="M245.115 109.386c-.474-.269-.835-.659-1.082-1.172s-.371-1.132-.371-1.855v-.008c0-.422.05-.864.148-1.328a7.568 7.568 0 01.641-1.82l2.469-4.891h1.719l-2.898 5.664.008-.281c.13-.245.32-.435.57-.57s.542-.203.875-.203c.589 0 1.094.133 1.516.398s.742.652.961 1.16.328 1.118.328 1.832v.008c0 .729-.124 1.354-.371 1.875s-.609.917-1.086 1.188-1.048.406-1.715.406-1.239-.134-1.712-.403zm2.879-1.598c.273-.313.41-.758.41-1.336v-.008c0-.636-.144-1.126-.43-1.473s-.695-.52-1.227-.52c-.474 0-.841.175-1.102.523s-.391.841-.391 1.477v.008c0 .578.137 1.022.41 1.332s.66.465 1.16.465c.507.001.896-.155 1.17-.468zM251.951 108.077h1.594v1.594l-1.594 1.578v-3.172zM257.716 109.788l-.727-.348c-.485-.232-.874-.567-1.168-1.008s-.48-.97-.559-1.59h1.625c.047.323.148.589.305.797s.358.363.605.465.538.152.871.152c.526 0 .935-.141 1.227-.422s.438-.677.438-1.188v-.344c0-.567-.138-1.007-.414-1.316s-.667-.465-1.172-.465h-.805v-1.516h.805c.442 0 .786-.133 1.031-.398s.367-.641.367-1.125v-.352c0-.448-.129-.794-.387-1.039s-.624-.367-1.098-.367c-.271 0-.513.051-.727.152s-.395.258-.543.469-.257.476-.324.793h-1.617c.104-.62.301-1.151.59-1.594s.655-.778 1.098-1.008.95-.344 1.523-.344c.979 0 1.737.258 2.273.773s.805 1.242.805 2.18v.188c0 .567-.153 1.063-.461 1.484s-.742.729-1.305.922c.62.136 1.101.44 1.441.914s.512 1.078.512 1.813v.188c0 .661-.128 1.227-.383 1.695s-.626.825-1.113 1.07-1.074.367-1.762.367l-.951.002z"/></g><g><path class="st9" d="M198.868 361.426h-1.594v-9.625l-1.617.992v-1.648l1.617-1.078h1.594v11.359zM204.188 361.426h-1.594v-9.625l-1.617.992v-1.648l1.617-1.078h1.594v11.359zM206.61 359.832h1.594v1.594l-1.594 1.578v-3.172zM216.258 351.489l-2.938 9.938h-1.695l2.938-9.844h-2.891v1.633h-1.594v-3.148h6.18v1.421z"/></g><g><path class="st9" d="M259.237 399.656l3.813-8.227h1.641l-3.719 8.133h5.57v1.477h-7.305v-1.383zm4.898-3.555h1.555v6.688h-1.555v-6.688zM268.338 401.187h1.594v1.594l-1.594 1.578v-3.172zM277.987 392.843l-2.938 9.938h-1.695l2.938-9.844h-2.891v1.633h-1.594v-3.148h6.18v1.421z"/></g><g><path class="st9" d="M8.505 419.176l3.813-8.227h1.641l-3.719 8.133h5.57v1.477H8.505v-1.383zm4.899-3.555h1.555v6.688h-1.555v-6.688zM17.607 420.707h1.594v1.594l-1.594 1.578v-3.172zM21.216 420.918l3.961-5.281c.229-.302.407-.615.535-.941.127-.325.191-.629.191-.91v-.016c0-.453-.133-.805-.398-1.055s-.644-.375-1.133-.375c-.464 0-.839.137-1.125.41-.287.273-.461.66-.523 1.16v.008h-1.648v-.008c.094-.65.285-1.207.574-1.668s.662-.813 1.121-1.055c.458-.242.986-.363 1.586-.363.677 0 1.255.116 1.734.348.479.232.844.569 1.094 1.012.25.443.375.977.375 1.602v.008c0 .401-.084.82-.25 1.258a5.417 5.417 0 01-.695 1.266l-3.289 4.469h4.297v1.516h-6.406v-1.385z"/></g></g></svg>