<svg id="_1" data-name="1" xmlns="http://www.w3.org/2000/svg" width="711.969" height="465.691" viewBox="0 0 533.975 349.269"><defs><style>.cls-10,.cls-11,.cls-2,.cls-3,.cls-4,.cls-6,.cls-8{fill:none}.cls-2,.cls-3,.cls-4{stroke:#999}.cls-10,.cls-11,.cls-2,.cls-3,.cls-4,.cls-6,.cls-8{stroke-linecap:round;stroke-linejoin:round}.cls-2{stroke-width:.4px}.cls-11,.cls-2,.cls-3,.cls-7,.cls-8{fill-rule:evenodd}.cls-6,.cls-8{stroke:#000}.cls-10,.cls-11{stroke:#666;stroke-width:.6px}</style></defs><g id="fon"><path id="fon-2" data-name="fon" fill="#fff" d="M.554.446H533.53v332.502H.554z"/></g><g id="mebel"><path class="cls-2" d="M129.087 309.938l.317-.317m-7.16.214l7.16-7.161m-14.104 7.161l14.1-14.108m-21.05 14.108l21.05-21.055m-40.048 33.106l.189-.188m11.859-11.863l28-28m-40.048 33.104l.189-.188m4.916-4.916l34.943-34.949m-41.89 34.949l41.89-41.895m-48.837 41.895l48.837-48.842m-51.25 44.3l49.118-49.118m-60.6 53.656l.318-.318m11.934-11.935l41.4-41.4m-60.6 53.656l6.6-6.6m11.349-11.348l35.705-35.706m-60.6 53.656l12.975-12.976m8-8l32.682-32.681m-59.023 52.076l52.076-52.076m-52.076 45.128l45.129-45.128M47.408 294.36l38.182-38.181m-38.182 31.234l31.235-31.234m-31.235 24.288L71.7 256.179m-24.289 17.34l17.341-17.34m-17.344 10.393L57.8 256.179m-10.394 3.446l3.447-3.446m78.549 3.915l-3.914-3.915m3.914 10.862l-10.862-10.862m10.86 17.809l-17.8-17.809m17.8 24.756l-24.755-24.756m24.755 31.7l-31.7-31.7m31.7 38.649l-38.645-38.649m38.649 45.6l-45.6-45.6m45.6 52.543l-52.542-52.543m46.707 53.656l-53.655-53.656m46.709 53.656l-53.656-53.656m46.709 53.656l-53.655-53.656m46.708 53.656l-53.656-53.656m46.709 53.656L77.443 291.5m-1.791-1.8l-28.244-28.239m42.133 49.078l-.189-.188m-.517-.516L78.74 299.74m-9.89-9.89l-21.442-21.442m42.133 49.079l-.189-.189m-7.463-7.463l-3.812-3.812M66.156 294.1l-18.748-18.746m18.677 25.624L47.408 282.3m19.5 26.444l-19.5-19.5m13.639 20.586L47.408 296.2m6.692 13.635l-6.693-6.693M249.187 307.946h21.57m10.894 0h21.569m-54.033-11.336h20.437m13.161 0h20.435m-54.033-11.336h54.033m-54.033-11.336h54.033M249.187 262.6h54.033m-17.757 46.477V257.69m-22.673 51.389V257.69"/><path class="cls-3" d="M270.914 121.942V27.477m0 0H255.8m0 0v94.465m0 0h15.114"/><path class="cls-4" d="M270.159 121.942V27.477M270.914 74.709h-.755M270.914 121.942h-.755"/><path class="cls-3" d="M65.946 294.843l.468-1.645m0 0l.718-1.552m0 0l.968-1.229m0 0l1.249-.943m0 0l1.448-.594m0 0l1.55-.2m0 0l1.551.2m0 0l1.448.594m0 0l1.248.943m0 0l.967 1.229m0 0l.72 1.552m0 0l.468 1.645m0 0l.208 1.7m0 0l-.06 1.709m0 0l-1.223 11.585m0 0H67.02m0 0L65.8 298.25m0 0l-.059-1.709m0 0l.208-1.7"/><path class="cls-4" d="M76.464 304.114h-4.116M72.348 304.114h-4.117"/><path class="cls-3" d="M72.348 288.96a5.741 5.741 0 013.063.887M75.411 289.846a8.024 8.024 0 013.248 6.831M78.659 296.676a12.73 12.73 0 01-2.2 7.437M68.231 304.114a12.724 12.724 0 01-2.194-7.437M66.036 296.676a8.022 8.022 0 013.248-6.83M69.284 289.846a5.752 5.752 0 013.063-.887M77 309.835h-9.3m0 0v-.189m0 0H77m0 0v.189"/><path class="cls-4" d="M62.901 309.835h18.894M62.901 314.37h18.894M62.901 309.835v4.535M81.794 309.835v4.535"/><path class="cls-3" d="M90.107 324.194h38.731m0 0l.4-.166m0 0l.166-.4m0 0V310.4m0 0l-.166-.4m0 0l-.4-.166m0 0H90.107m0 0l-.4.166m0 0l-.165.4m0 0v13.225m0 0l.165.4m0 0l.4.166M91.24 320.037zm18.686 0z"/><path class="cls-4" d="M128.272 319.47v-7.936M127.704 310.969H91.24M90.674 311.535v7.936"/><path class="cls-3" d="M128.272 319.47a.567.567 0 01-.567.567M127.7 310.969a.566.566 0 01.567.566M90.674 311.535a.566.566 0 01.566-.566M91.24 320.037a.566.566 0 01-.566-.566M110.229 317.255a.757.757 0 01-.3.6v-1.208a.753.753 0 01.3.6zm-1.211.6a.757.757 0 010-1.208zM109.926 323.664h-.906m0 0v-7.748m0 0l.256-.3m0 0h.394m0 0l.256.3m0 0v7.748M108.717 323.664h1.512m0 0v.265m0 0h-1.512m0 0v-.265M108.339 323.929h2.267m0 0v.265m0 0h-2.267m0 0v-.265M106.2 322.3v1.625m0 0h.1m0 0v.132m0 0h.283m0 0v.133m0 0h-1.89m0 0v-.133m0 0h.283m0 0v-.132m0 0h.095m0 0V322.3m0 0h.322m0 0v-.416m0 0h-1.078m0 0v-.484m0 0h2.646m0 0v.491m0 0h-1.077m0 0v.416m0 0h.321M112.741 322.3v1.625m0 0h-.095m0 0v.132m0 0h-.283m0 0v.133m0 0h1.889m0 0v-.133m0 0h-.283m0 0v-.132m0 0h-.094m0 0V322.3m0 0h-.322m0 0v-.416m0 0h1.077m0 0v-.484m0 0h-2.645m0 0v.491m0 0h1.077m0 0v.416m0 0h-.321"/><path class="cls-4" d="M105.392 321.888l.072-.072M105.883 321.888l-.072-.072M105.392 322.304h.491M105.07 323.929h1.134M106.299 324.061h-1.323M113.554 321.888l-.072-.072M113.063 321.888l.071-.072M113.554 322.304h-.491M113.875 323.929h-1.134M112.647 324.061h1.321"/><path class="cls-3" d="M105.883 321.643a.246.246 0 11-.246-.246.246.246 0 01.246.246zM113.554 321.643a.246.246 0 11-.246-.246.246.246 0 01.246.246z"/><path class="cls-4" d="M303.222 257.69h-54.034M303.222 238.797h-54.034M249.188 257.69v-18.893M303.222 257.69v-18.893M298.404 254.478h-17.382M281.023 254.478v-12.47"/><path class="cls-3" d="M281.023 242.008h8.237m.906 0h8.234"/><path class="cls-4" d="M298.404 242.008v12.47M271.387 254.478h-17.382M254.005 254.478v-12.47"/><path class="cls-3" d="M254.005 242.008h8.237m.907 0h8.238"/><path class="cls-4" d="M271.387 242.008v12.47"/><path class="cls-3" d="M290.847 244.8a1.133 1.133 0 01-.681 1.039v-2.079a1.136 1.136 0 01.681 1.04zm-1.587 1.039a1.134 1.134 0 010-2.079zM263.829 244.8a1.132 1.132 0 01-.68 1.039v-2.078a1.132 1.132 0 01.68 1.039zm-1.587 1.039a1.134 1.134 0 010-2.078zM289.26 239.325h.906m0 0v7.748m0 0l-.256.3m0 0h-.394m0 0l-.256-.3m0 0v-7.748M290.469 239.325h-1.512m0 0v-.265m0 0h1.512m0 0v.265M290.847 239.061h-2.268m0 0v-.261m0 0h2.268m0 0v.264M292.981 240.686v-1.625m0 0h-.095m0 0v-.132m0 0h-.286m0 0v-.129m0 0h1.889m0 0v.132m0 0h-.282m0 0v.132m0 0h-.1m0 0v1.625m0 0h-.322m0 0v.416m0 0h1.078m0 0v.491m0 0h-2.647m0 0v-.496m0 0h1.084m0 0v-.416m0 0h-.322M286.444 240.686v-1.625m0 0h.095m0 0v-.132m0 0h.283m0 0v-.129m0 0h-1.89m0 0v.132m0 0h.284m0 0v.132m0 0h.094m0 0v1.625m0 0h.322m0 0v.416m0 0h-1.078m0 0v.491m0 0h2.646m0 0v-.496m0 0h-1.076m0 0v-.416m0 0h.32M262.242 239.325h.907m0 0v7.748m0 0l-.256.3m0 0h-.393m0 0l-.256-.3m0 0v-7.748M263.451 239.325h-1.511m0 0v-.265m0 0h1.511m0 0v.265M263.829 239.061h-2.267m0 0v-.261m0 0h2.267m0 0v.264M265.965 240.686v-1.625m0 0h-.095m0 0v-.132m0 0h-.283m0 0v-.129m0 0h1.889m0 0v.132m0 0h-.283m0 0v.132m0 0h-.093m0 0v1.625m0 0h-.321m0 0v.416m0 0h1.077m0 0v.491m0 0h-2.645m0 0v-.496m0 0h1.076m0 0v-.416m0 0h-.32M259.428 240.686v-1.625m0 0h.094m0 0v-.132m0 0h.284m0 0v-.129m0 0h-1.89m0 0v.132m0 0h.283m0 0v.132m0 0h.095m0 0v1.625m0 0h.322m0 0v.416m0 0h-1.078m0 0v.491m0 0h2.646m0 0v-.496m0 0h-1.077m0 0v-.416m0 0h.321"/><path class="cls-4" d="M293.794 241.101l-.072.072M293.303 241.101l.072.072M293.794 240.686h-.491M294.115 239.061h-1.134M292.887 238.929h1.323M285.633 241.101l.071.072M286.123 241.101l-.071.072M285.633 240.686h.49M285.311 239.061h1.134M286.539 238.929h-1.322M266.777 241.101l-.072.072M266.285 241.101l.072.072M266.777 240.686h-.491M267.098 239.061h-1.133M265.87 238.929h1.322M258.615 241.101l.072.072M259.107 241.101l-.072.072M258.615 240.686h.491M258.294 239.061h1.134M259.522 238.929H258.2"/><path class="cls-3" d="M293.794 241.347a.246.246 0 11-.245-.246.246.246 0 01.245.246zM286.123 241.347a.245.245 0 11-.245-.246.245.245 0 01.245.246zM266.777 241.347a.246.246 0 11-.246-.246.246.246 0 01.246.246zM259.107 241.347a.246.246 0 11-.246-.246.246.246 0 01.246.246zM269.8 294.088l.469-1.645m0 0l.718-1.552m0 0l.967-1.23m0 0l1.249-.943m0 0l1.448-.593m0 0l1.551-.206m0 0l1.551.206m0 0l1.447.593m0 0l1.248.943m0 0l.968 1.23m0 0l.719 1.552m0 0l.469 1.645m0 0l.207 1.7m0 0l-.059 1.709m0 0l-1.223 11.585m0 0h-10.651m0 0l-1.223-11.582m0 0l-.059-1.709m0 0l.207-1.7"/><path class="cls-4" d="M280.321 303.358h-4.116M276.205 303.358h-4.117"/><path class="cls-3" d="M276.205 288.2a5.734 5.734 0 013.063.887M279.268 289.091a8.019 8.019 0 013.248 6.829M282.516 295.92a12.729 12.729 0 01-2.194 7.437M272.088 303.358a12.732 12.732 0 01-2.2-7.437M269.893 295.92a8.022 8.022 0 013.248-6.829M273.141 289.091a5.749 5.749 0 013.064-.887M280.853 309.079h-9.3m0 0v-.189m0 0h9.3m0 0v.189"/><path class="cls-4" d="M266.758 309.079h18.894M266.758 313.614h18.894M266.758 309.079v4.534M285.651 309.079v4.534"/><path class="cls-3" d="M222.359 309.079V238.8m0 0h26.829m0 0v70.283m0 0h-26.829M247.041 300.879l-.082 1.017m0 0l-.241.986m0 0l-.4.926m0 0l-.537.836m0 0l-.661.722m0 0l-.766.585m0 0l-.847.432m0 0l-.9.264m0 0l-.931.089m0 0h-11.8m0 0l-.932-.089m0 0l-.9-.264m0 0l-.847-.432m0 0l-.766-.585m0 0l-.661-.722m0 0l-.537-.836m0 0l-.395-.926m0 0l-.242-.986m0 0l-.082-1.017m0 0v-47.44m0 0l.172-2.136m0 0l.508-2.071m0 0l.83-1.943m0 0l1.127-1.756m0 0l1.388-1.516m0 0l1.61-1.23m0 0l1.78-.906m0 0l1.9-.555m0 0l1.957-.187m0 0l1.956.187m0 0l1.9.555m0 0l1.78.906m0 0l1.609 1.23m0 0l1.389 1.516m0 0l1.126 1.756m0 0l.83 1.943m0 0l.509 2.071m0 0l.171 2.136m0 0v47.44M236.718 300.01a.945.945 0 11-.944-.944.945.945 0 01.944.944zM19.068 199.877h65.75m0 0v-26.829m0 0h-65.75m0 0v26.829M26.739 175.2l-.951.082m0 0l-.923.242m0 0l-.865.395m0 0l-.782.536m0 0l-.676.661m0 0l-.548.767m0 0l-.4.847m0 0l-.248.9m0 0l-.083.932m0 0v11.8m0 0l.083.931m0 0l.248.9m0 0l.4.848m0 0l.548.766m0 0l.676.661m0 0l.782.537m0 0l.865.4m0 0l.923.241m0 0l.951.083m0 0h44.38m0 0l2-.172m0 0l1.937-.508m0 0l1.818-.83m0 0l1.643-1.127m0 0l1.418-1.389m0 0l1.151-1.608m0 0l.847-1.78m0 0l.519-1.9m0 0l.175-1.956m0 0l-.175-1.957m0 0l-.519-1.9m0 0l-.847-1.78m0 0l-1.151-1.609m0 0l-1.418-1.389m0 0l-1.643-1.126m0 0l-1.818-.831m0 0l-1.937-.508m0 0l-2-.171m0 0h-44.38M29.082 186.463a.945.945 0 11-.944-.945.944.944 0 01.944.945zM382.006 38.113h-1.889m0 0V111.5m0 0h1.889m0 0V38.113M344.22 38.113V74.8m0 0h26.45m0 0V38.113m0 0h-26.45M344.22 74.8v36.69m0 0h26.45m0 0V74.8m0 0h-26.45M344.22 111.5v9.6m0 0h37.786m0 0v-9.6m0 0h-1.89m-9.446 0h-26.45M344.22 28.516v9.6m0 0h26.45m9.446 0h1.89m0 0v-9.6m0 0H344.22M380.117 74.8h-9.447m0 0v41.489m0 0h9.447m0 0V74.8M380.117 74.8h-9.447m0 0V33.315m0 0h9.447m0 0V74.8M371.048 164.546h-19.271m0 0l-.534.222m0 0l-.221.534m0 0v17.382m0 0l.221.534m0 0l.534.222m0 0h19.271m0 0l.534-.222m0 0l.222-.534m0 0V165.3m0 0l-.222-.534m0 0l-.534-.222"/><path class="cls-4" d="M378.416 161.712h-34.008M378.416 184.384h-34.008M378.416 161.712v22.672M344.408 161.712v22.672M369.159 166.436h-15.493M352.91 167.192v11.714M353.666 179.661h15.493M369.914 178.906v-11.714"/><path class="cls-3" d="M369.159 166.436h.108a.108.108 0 00-.216 0 .108.108 0 10.216 0zM352.91 167.192a.757.757 0 01.756-.756M353.666 179.661a.756.756 0 01-.756-.755M369.914 178.906a.756.756 0 01-.755.755M369.159 166.436a.755.755 0 01.755.756M361.753 174.828l-.1-.24m0 0l-.24-.1m0 0l-.24.1m0 0l-.1.241m0 0v7.476m0 0l.1.24m0 0l.24.1m0 0l.241-.1m0 0l.1-.24m0 0v-7.478M362.167 180.379h-.414m0 0v1.927m0 0l-.1.24m0 0l-.241.1m0 0l-.24-.1m0 0l-.1-.24m0 0v-1.927m0 0h-.414m0 0v2.457m0 0h1.509m0 0v-2.457M362.156 179.018h-.4m0 0v1.323m0 0h.4m0 0v-1.323M360.668 179.018v1.323m0 0h.4m0 0v-1.323m0 0h-.4"/><path class="cls-4" d="M401.088 161.712h-22.672M401.088 184.384h-22.672M401.088 161.712v22.672M378.416 161.712v22.672"/><path class="cls-3" d="M401.088 161.712h53.09m0 0v22.672m0 0h-53.09m0 0v-22.672M482.14 163.791h-21.916m0 0v18.515m0 0h21.916m0 0v-18.515"/><path class="cls-4" d="M471.182 175.071v5.299M471.182 180.369h-1.096M471.182 175.071h-1.096M462.328 175.071v5.299M463.424 180.369h-1.096M463.424 175.071h-1.096"/><path class="cls-3" d="M480.167 177.936a2.74 2.74 0 11-2.739-2.74 2.74 2.74 0 012.739 2.74zM480.124 169.7a3.968 3.968 0 11-3.968-3.967 3.968 3.968 0 013.968 3.967z"/><path class="cls-3" d="M478.424 169.7a2.267 2.267 0 11-2.268-2.267 2.267 2.267 0 012.268 2.267zM469.4 177.751a2.645 2.645 0 11-2.645-2.645 2.645 2.645 0 012.645 2.645zM469.038 169.161a3.4 3.4 0 11-3.4-3.4 3.4 3.4 0 013.4 3.4z"/><path class="cls-4" d="M488.186 161.712h-34.008M488.186 184.384h-34.008M488.186 161.712v22.672M454.178 161.712v22.672"/><path class="cls-3" d="M344.408 161.712h-22.672m0 0v22.672m0 0h22.672m0 0v-22.672"/><path class="cls-4" d="M333.073 176.827v-7.557M335.745 175.721l-5.344-5.345M336.852 173.048h-7.558M335.745 170.376l-5.344 5.344"/><path class="cls-3" d="M488.186 161.712h22.294m0 0v22.672m0 0h-22.294m0 0v-22.672M396.32 171.107a3.411 3.411 0 11-3.411-3.411 3.412 3.412 0 013.411 3.411z"/><path class="cls-3" d="M395.8 171.107a2.89 2.89 0 11-2.89-2.89 2.89 2.89 0 012.89 2.89zM389.18 170.276a2.579 2.579 0 11-2.579-2.58 2.58 2.58 0 012.579 2.58z"/><path class="cls-3" d="M388.046 170.276a1.446 1.446 0 11-1.445-1.445 1.445 1.445 0 011.445 1.445zM37.584 267.514a7.179 7.179 0 11-7.18-7.179 7.18 7.18 0 017.18 7.179zM23.981 43.422a3.779 3.779 0 11-3.781-3.779 3.778 3.778 0 013.781 3.779z"/><path class="cls-3" d="M21.336 43.422a1.134 1.134 0 11-1.136-1.134 1.134 1.134 0 011.136 1.134zM23.981 132.22a3.779 3.779 0 11-3.778-3.779 3.778 3.778 0 013.778 3.779z"/><path class="cls-3" d="M21.336 132.22a1.134 1.134 0 11-1.134-1.134 1.134 1.134 0 011.134 1.134zM152.832 43.422a3.779 3.779 0 11-3.778-3.779 3.777 3.777 0 013.778 3.779z"/><path class="cls-3" d="M150.188 43.422a1.134 1.134 0 11-1.134-1.134 1.134 1.134 0 011.134 1.134zM152.832 132.22a3.779 3.779 0 11-3.778-3.779 3.777 3.777 0 013.778 3.779z"/><path class="cls-3" d="M150.188 132.22a1.134 1.134 0 11-1.134-1.134 1.134 1.134 0 011.134 1.134zM403.734 313.8a3.779 3.779 0 11-3.778-3.778 3.779 3.779 0 013.778 3.778z"/><path class="cls-3" d="M401.088 313.8a1.134 1.134 0 11-1.133-1.133 1.134 1.134 0 011.133 1.133zM492.531 313.8a3.779 3.779 0 11-3.779-3.778 3.779 3.779 0 013.779 3.778z"/><path class="cls-3" d="M489.886 313.8a1.134 1.134 0 11-1.134-1.133 1.134 1.134 0 011.134 1.133zM90.107 121.828V53.813m0 0H14.534m0 0v68.015m0 0h75.573M92 119.939V55.7m0 0l-.144-.723m0 0l-.409-.613m0 0l-.613-.409m0 0l-.724-.144m0 0v68.015m0 0l.724-.143m0 0l.613-.41m0 0l.409-.613m0 0l.144-.723M10.756 121.828V53.813m0 0h3.778m0 0v68.015m0 0h-3.778M10.756 53.813v68.015m0 0h1.89m0 0V53.813m0 0h-1.89M10.756 51.924v-17m0 0H29.65m0 0v17m0 0H10.756M10.756 123.718v17m0 0H29.65m0 0v-17m0 0H10.756M16.424 81.775V56.08m0 0l.11-.267m0 0l.266-.113m0 0h12.47m0 0l.266.111m0 0l.112.267m0 0v25.7m0 0l-.112.267m0 0l-.266.111m0 0H16.8m0 0l-.268-.111m0 0l-.11-.267M16.424 93.867v25.694m0 0l.11.267m0 0l.268.111m0 0h12.47m0 0l.266-.111m0 0l.112-.267m0 0V93.867m0 0l-.112-.268m0 0l-.266-.11m0 0H16.8m0 0l-.268.11m0 0l-.11.268"/><path class="cls-4" d="M28.625 121.828v-1.889M28.625 93.489V82.153M28.625 55.702v-1.889"/><path class="cls-3" d="M33.635 121.828V53.813m0 0h18.687m0 0l-14.909 68.015m0 0h-3.778M218.958 121.828V53.813m0 0h-75.572m0 0v68.015m0 0h75.572M220.848 119.939V55.7m0 0l-.144-.723m0 0l-.41-.613m0 0l-.612-.409m0 0l-.724-.144m0 0v68.015m0 0l.724-.143m0 0l.612-.41m0 0l.41-.613m0 0l.144-.723M139.608 121.828V53.813m0 0h3.778m0 0v68.015m0 0h-3.778M139.608 53.813v68.015m0 0h1.892m0 0V53.813m0 0h-1.889M139.608 51.924v-17m0 0H158.5m0 0v17m0 0h-18.892M139.608 123.718v17m0 0H158.5m0 0v-17m0 0h-18.892M145.275 81.775V56.08m0 0l.111-.267m0 0l.268-.111m0 0h12.469m0 0l.267.111m0 0l.11.267m0 0v25.7m0 0l-.11.267m0 0l-.267.111m0 0h-12.469m0 0l-.268-.111m0 0l-.111-.267M145.275 93.867v25.694m0 0l.111.267m0 0l.268.111m0 0h12.469m0 0l.267-.111m0 0l.11-.267m0 0V93.867m0 0l-.11-.268m0 0l-.267-.11m0 0h-12.469m0 0l-.268.11m0 0l-.111.268"/><path class="cls-4" d="M157.477 121.828v-1.889M157.477 93.489V82.153M157.477 55.702v-1.889"/><path class="cls-3" d="M162.487 121.828V53.813m0 0h18.686m0 0l-14.908 68.015m0 0h-3.778M262.056 51.821h-1.021m0 0v44.368m0 0h1.021m0 0V51.821M261.035 53.224l-3.41-.709m0 0l.141-.68m0 0l3.269.68m0 0v.709M261.035 61.522h-.835m0 0l-.566.152m0 0l-.415.415m0 0l-.153.567m0 0v22.7m0 0l.153.566m0 0l.415.415m0 0l.566.152m0 0h.832m0 0V61.522M262.412 53.224l3.41-.709m0 0l-.141-.68m0 0l-3.269.68m0 0v.709M261.035 94.785l-3.41.709m0 0l.141.682m0 0l3.269-.682m0 0v-.709M262.354 94.785l3.41.709m0 0l-.141.682m0 0l-3.269-.682m0 0v-.709M262.354 51.821h-.3m0 0v44.368m0 0h.3m0 0V51.821M189.485 185.14v-22.672m0 0h63.292m0 0v22.672m0 0h-63.292M252.777 173.426v.756m0 0h-63.292m0 0v-.756m0 0h63.292M196.922 183.147v-18.626m0 0h.756m0 0v18.626m0 0h-.756M198.927 183.147v-18.626m0 0h.755m0 0v18.626m0 0h-.755M200.931 183.147v-18.626m0 0h.756m0 0v18.626m0 0h-.756M202.936 183.147v-18.626m0 0h.756m0 0v18.626m0 0h-.756M207.182 183.011l-2.241-18.49m0 0l.75-.091m0 0l2.241 18.491m0 0l-.75.09M10.756 170.026v-22.672m0 0h71.038m0 0v22.672m0 0H10.756M81.794 158.312v.756m0 0H10.756m0 0v-.756m0 0h71.038M18.193 168.032v-18.626m0 0h.756m0 0v18.626m0 0h-.756M20.2 168.032v-18.626m0 0h.756m0 0v18.626m0 0H20.2M22.2 168.032v-18.626m0 0h.756m0 0v18.626m0 0H22.2M24.206 168.032v-18.626m0 0h.756m0 0v18.626m0 0h-.756M28.452 167.9l-2.241-18.491m0 0l.751-.091m0 0l2.24 18.491m0 0l-.75.091M196.664 238.8h22.672m0 0v85.4m0 0h-22.672m0 0v-85.4M208.378 324.194h-.756m0 0V238.8m0 0h.756m0 0v85.4M198.657 246.233h18.626m0 0v.756m0 0h-18.626m0 0v-.756M198.657 248.238h18.626m0 0v.755m0 0h-18.626m0 0v-.755M198.657 250.242h18.626m0 0V251m0 0h-18.626m0 0v-.756M198.657 252.247h18.626m0 0V253m0 0h-18.626m0 0v-.756M198.793 256.493l18.49-2.241m0 0l.091.75m0 0l-18.49 2.241m0 0l-.091-.75M360.279 312.291l-.756-.756m0 0V238.8m0 0h.756m0 0v73.494M306.245 323.249v-22.671m0 0h42.32m0 0V238.8m0 0h22.672m0 0v84.452m0 0h-64.992M359.524 311.535l.756.756m0 0h-54.034m0 0v-.756m0 0h53.278M315.193 321.256V302.63m0 0h.756m0 0v18.626m0 0h-.756M317.2 321.256V302.63m0 0h.756m0 0v18.626m0 0h-.756M319.2 321.256V302.63m0 0h.756m0 0v18.626m0 0h-.756M321.207 321.256V302.63m0 0h.756m0 0v18.626m0 0h-.756M325.453 321.12l-2.242-18.491m0 0l.751-.091m0 0l2.241 18.491m0 0l-.75.091M478.362 243.9h-68.017m0 0v75.573m0 0h68.017m0 0V243.9M476.472 242.008h-64.236m0 0l-.724.144m0 0l-.612.41m0 0l-.409.613m0 0l-.145.723m0 0h68.016m0 0l-.145-.723m0 0l-.409-.613m0 0l-.612-.41m0 0l-.724-.144M478.362 323.249h-68.017m0 0v-3.778m0 0h68.017m0 0v3.778M410.346 323.249h68.016m0 0v-1.889m0 0h-68.016m0 0v1.889M408.456 323.249h-17m0 0v-18.893m0 0h17m0 0v18.893M480.25 323.249h17m0 0v-18.893m0 0h-17m0 0v18.893M438.308 317.581h-25.694m0 0l-.268-.111m0 0l-.11-.267m0 0v-12.47m0 0l.11-.267m0 0l.268-.111m0 0h25.694m0 0l.267.111m0 0l.111.267m0 0V317.2m0 0l-.111.267m0 0l-.267.111M450.4 317.581h25.694m0 0l.267-.111m0 0l.11-.267m0 0v-12.47m0 0l-.11-.267m0 0l-.267-.111m0 0H450.4m0 0l-.268.111m0 0l-.11.267m0 0V317.2m0 0l.11.267m0 0l.268.111"/><path class="cls-4" d="M478.362 305.379h-1.891M450.022 305.379h-11.336M412.236 305.379h-1.891"/><path class="cls-3" d="M478.362 300.37h-68.017m0 0v-18.686m0 0l68.017 14.907m0 0v3.779M396.978 168.9h-.964m0 0v-1.2m0 0h-12.523m0 0v1.2m0 0h-.963M395.514 178.905h-9.634m0 0v-.479m0 0h.723m0 0v.237m0 0h8.188m0 0v-.237m0 0h.723m0 0v.479M395.514 178.426l-.047-.1m-.047-.1l-.048-.1m-.046-.1l-.047-.1m-.048-.1l-.047-.1m-.047-.1l-.048-.1m-.047-.1l-.047-.1m-.046-.1l-.048-.1m-.047-.1l-.047-.1m-.047-.1l-.048-.1m-.047-.1l-.047-.1m-.047-.1l-.047-.1m-.047-.1l-.047-.1m-.048-.1l-.047-.1m-.048-.1l-.046-.1m-.047-.1l-.047-.1m-.047-.1l-.048-.1m-.047-.1l-.047-.1M385.88 178.426l.048-.1m.047-.1l.047-.1m.046-.1l.048-.1m.047-.1l.047-.1m.048-.1l.047-.1m.047-.1l.047-.1m.047-.1l.047-.1m.047-.1l.047-.1m.048-.1l.047-.1m.047-.1l.047-.1m.047-.1l.047-.1m.048-.1l.047-.1m.047-.1l.047-.1m.048-.1l.046-.1m.047-.1l.048-.1m.047-.1l.047-.1m.047-.1l.048-.1M395.514 178.426h-.078m-.113 0h-.114m-.113 0h-.113m-.114 0h-.078m0 0l-.042-.051m-.071-.088l-.071-.088m-.072-.088l-.071-.088m-.071-.088l-.072-.088m-.072-.088l-.071-.088m-.071-.088l-.072-.088m-.072-.089l-.071-.087m-.071-.088l-.072-.088m-.071-.089l-.071-.087m-.072-.088l-.072-.088m-.071-.089l-.071-.088m-.072-.087l-.071-.088m-.071-.088l-.072-.089m-.072-.087l-.071-.088m-.071-.088l-.072-.089m-.071-.088l-.072-.087m-.071-.088l-.072-.089m-.071-.088l-.071-.087m-.072-.088l-.071-.089m-.072-.088l-.071-.088m-.072-.087l-.071-.088m-.071-.089l-.072-.088m-.071-.087l-.043-.052M385.88 178.426h.078m.113 0h.114m.113 0h.113m.114 0h.078m0 0l.042-.051m.071-.088l.071-.088m.072-.088l.072-.088m.071-.088l.071-.088m.072-.088l.071-.088m.071-.088l.072-.088m.072-.089l.071-.087m.071-.088l.072-.088m.071-.089l.071-.087m.072-.088l.072-.088m.069-.091l.071-.088m.072-.087l.072-.088m.071-.088l.071-.089m.072-.087l.071-.088m.071-.088l.072-.089m.072-.088l.071-.087m.071-.088l.072-.089m.071-.088l.071-.087m.072-.088l.072-.089m.071-.088l.071-.088m.072-.087l.071-.088m.072-.089l.072-.088m.071-.087l.042-.052M29.889 261.506l.449 1.233m0 0v1.312m0 0l-.449 1.233m0 0l.342 1.474m0 0v1.512m0 0l-.342 1.473m0 0l.45 1.235m0 0v1.314m0 0l-.45 1.235m0 0l2.987-2.232m0 0v-7.558m0 0l-2.987-2.231M33.138 263.738v7.562m0 0h-.262m0 0v-7.558m0 0h.262M33.661 263.738v7.562m0 0H33.4m0 0v-7.558m0 0h.262M28.373 268.358l-.085-.891m0 0l.227-.022m0 0l.045.477m0 0l1.142-1.383m0 0l.152.126m0 0l-.53.642m0 0l.082.067m0 0l.611-.74m0 0l.146.121m0 0l-.611.74m0 0l.1.08m0 0l.5-.6m0 0l.13.107m0 0l-.5.6m0 0l.1.081m0 0l.343-.414m0 0l.139.115m0 0l-1.174 1.422M19.068 256.178v22.672m0 0h22.673m0 0v-22.672m0 0H19.068M87.84 253.155v-16.248m0 0h41.56m0 0v16.248m0 0H87.84M45.52 256.178h1.889m0 0v53.657m0 0H45.52m0 0v-53.657M19.342 39.743l.86 3.679m0 0l3.431 1.583m0 0L20.2 43.422m0 0l-3.546 1.306M19.342 135.9l.86-3.679m0 0l3.431-1.584m0 0L20.2 132.22m0 0l-3.546-1.307M148.193 39.743l.86 3.679m0 0l3.431 1.583m0 0l-3.431-1.583m0 0l-3.545 1.306M148.193 135.9l.86-3.679m0 0l3.431-1.584m0 0l-3.431 1.584m0 0l-3.545-1.307M396.276 314.662l3.68-.86m0 0l1.582-3.431m0 0l-1.582 3.431m0 0l1.305 3.546M492.432 314.662l-3.68-.86m0 0l-1.583-3.431m0 0l1.583 3.431m0 0l-1.305 3.546M441.422 60.248V57.22m0 0h-.859m0 0h-17.175m0 0h-.859m0 0v3.028M422.529 53.792v3.427m0 0h.859m0 0V54m0 0h-.058m0 0l-.294.2m0 0l-.342-.087m0 0l-.165-.312M423.33 51.433l-.294.2m0 0l-.343-.087m0 0l-.164-.312m0 0v2.561m0 0l.164.313m0 0l.343.087m0 0l.294-.2m0 0h17.291m0 0l.293.2m0 0l.343-.087m0 0l.165-.313m0 0v-2.564m0 0l-.165.312m0 0l-.343.087m0 0l-.293-.2m0 0H423.33M441.422 53.792l-.165.312m0 0l-.342.087m0 0l-.294-.2m0 0h-.058m0 0v3.224m0 0h.859m0 0v-3.423M439.758 51.028l-1.004-.226h-13.557l-1.004.226h15.565zM424.193 51.028h15.566m0 0l-1-.227m0 0H425.2m0 0l-1 .227M423.33 51.028l-.294-.2m0 0l-.343.087m0 0l-.164.312m0 0l.164.313m0 0l.343.087m0 0l.294-.2m0 0h17.291m0 0l.293.2m0 0l.343-.087m0 0l.165-.313m0 0l-.165-.312m0 0l-.343-.087m0 0l-.293.2m0 0H423.33M463.339 60.248V57.22m0 0h-.859m0 0h-17.175m0 0h-.859m0 0v3.028M444.446 53.792v3.427m0 0h.859m0 0V54m0 0h-.058m0 0l-.293.2m0 0l-.343-.087m0 0l-.165-.312M445.247 51.433l-.293.2m0 0l-.343-.087m0 0l-.165-.312m0 0v2.561m0 0l.165.313m0 0l.343.087m0 0l.293-.2m0 0h17.291m0 0l.293.2m0 0l.343-.087m0 0l.165-.313m0 0v-2.564m0 0l-.165.312m0 0l-.343.087m0 0l-.293-.2m0 0h-17.291M463.339 53.792l-.165.312m0 0l-.342.087m0 0l-.3-.2m0 0h-.057m0 0v3.224m0 0h.859m0 0v-3.423M461.675 51.028l-1.004-.226h-13.556l-1.005.226h15.565zM446.109 51.028h15.566m0 0l-1-.227m0 0h-13.561m0 0l-1 .227M445.247 51.028l-.293-.2m0 0l-.343.087m0 0l-.165.312m0 0l.165.313m0 0l.343.087m0 0l.293-.2m0 0h17.291m0 0l.293.2m0 0l.343-.087m0 0l.165-.313m0 0l-.165-.312m0 0l-.343-.087m0 0l-.293.2m0 0h-17.291M441.422 94.256v3.027m0 0h-.859m0 0h-17.175m0 0h-.859m0 0v-3.027M423.33 103.07l-.294-.2m0 0l-.343.087m0 0l-.164.312m0 0v-2.561m0 0l.164-.313m0 0l.343-.087m0 0l.294.2m0 0h17.291m0 0l.293-.2m0 0l.343.087m0 0l.165.313m0 0v2.561m0 0l-.165-.312m0 0l-.343-.087m0 0l-.293.2m0 0H423.33M441.422 100.711l-.165-.312m0 0l-.342-.087m0 0l-.294.2m0 0h-.058m0 0v-3.229m0 0h.859m0 0v3.428M425.197 103.703h13.558l1.003-.227h-15.565l1.004.227zM424.193 103.476h15.566m0 0l-1 .227m0 0H425.2m0 0l-1-.227M423.33 103.476l-.294.2m0 0l-.343-.087m0 0l-.164-.312m0 0l.164-.313m0 0l.343-.087m0 0l.294.2m0 0h17.291m0 0l.293-.2m0 0l.343.087m0 0l.165.313m0 0l-.165.312m0 0l-.343.087m0 0l-.293-.2m0 0H423.33M463.339 94.256v3.027m0 0h-.859m0 0h-17.175m0 0h-.859m0 0v-3.027M444.446 100.711v-3.428m0 0h.859m0 0v3.225m0 0h-.058m0 0l-.293-.2m0 0l-.343.087m0 0l-.165.312M445.247 103.07l-.293-.2m0 0l-.343.087m0 0l-.165.312m0 0v-2.561m0 0l.165-.313m0 0l.343-.087m0 0l.293.2m0 0h17.291m0 0l.293-.2m0 0l.343.087m0 0l.165.313m0 0v2.561m0 0l-.165-.312m0 0l-.343-.087m0 0l-.293.2m0 0h-17.291M463.339 100.711l-.165-.312m0 0l-.342-.087m0 0l-.3.2m0 0h-.057m0 0v-3.229m0 0h.859m0 0v3.428M447.114 103.703h13.557l1.004-.227H446.11l1.004.227zM446.109 103.476h15.566m0 0l-1 .227m0 0h-13.561m0 0l-1-.227M445.247 103.476l-.293.2m0 0l-.343-.087m0 0l-.165-.312m0 0l.165-.313m0 0l.343-.087m0 0l.293.2m0 0h17.291m0 0l.293-.2m0 0l.343.087m0 0l.165.313m0 0l-.165.312m0 0l-.343.087m0 0l-.293-.2m0 0h-17.291M466.362 60.248V57.22m0 0h.859m0 0H484.4m0 0h.859m0 0v3.028M485.255 53.792v3.427m0 0h-.855m0 0V54m0 0h.058m0 0l.293.2m0 0l.343-.087m0 0l.165-.312M484.454 51.433l.293.2m0 0l.343-.087m0 0l.165-.312m0 0v2.561m0 0l-.165.313m0 0l-.343.087m0 0l-.293-.2m0 0h-17.291m0 0l-.293.2m0 0l-.343-.087m0 0l-.165-.313m0 0v-2.564m0 0l.165.312m0 0l.343.087m0 0l.293-.2m0 0h17.291M466.362 53.792l.165.312m0 0l.342.087m0 0l.294-.2m0 0h.058m0 0v3.224m0 0h-.859m0 0v-3.423M483.592 51.028l-1.005-.226H469.03l-1.004.226h15.566zM483.591 51.028h-15.565m0 0l1-.227m0 0h13.557m0 0l1 .227M484.454 51.028l.293-.2m0 0l.343.087m0 0l.165.312m0 0l-.165.313m0 0l-.343.087m0 0l-.293-.2m0 0h-17.291m0 0l-.293.2m0 0l-.343-.087m0 0l-.165-.313m0 0l.165-.312m0 0l.343-.087m0 0l.293.2m0 0h17.291M466.362 94.256v3.027m0 0h.859m0 0H484.4m0 0h.859m0 0v-3.027M485.255 100.711v-3.428m0 0h-.855m0 0v3.225m0 0h.058m0 0l.293-.2m0 0l.343.087m0 0l.165.312M484.454 103.07l.293-.2m0 0l.343.087m0 0l.165.312m0 0v-2.561m0 0l-.165-.313m0 0l-.343-.087m0 0l-.293.2m0 0h-17.291m0 0l-.293-.2m0 0l-.343.087m0 0l-.165.313m0 0v2.561m0 0l.165-.312m0 0l.343-.087m0 0l.293.2m0 0h17.291M466.362 100.711l.165-.312m0 0l.342-.087m0 0l.294.2m0 0h.058m0 0v-3.229m0 0h-.859m0 0v3.428M469.03 103.703h13.557l1.005-.227h-15.566l1.004.227zM483.591 103.476h-15.565m0 0l1 .227m0 0h13.557m0 0l1-.227M484.454 103.476l.293.2m0 0l.343-.087m0 0l.165-.312m0 0l-.165-.313m0 0l-.343-.087m0 0l-.293.2m0 0h-17.291m0 0l-.293-.2m0 0l-.343.087m0 0l-.165.313m0 0l.165.312m0 0l.343.087m0 0l.293-.2m0 0h17.291M493.492 94.255V60.247m0 0H414.14m0 0v34.008m0 0h79.352M422.529 100.711v-3.428m0 0h.859m0 0v3.225m0 0h-.058m0 0l-.293-.2m0 0l-.343.087m0 0l-.165.312"/><path d="M18.931 246.976h-4.318V228.3h4.318zm11.732-16c-1.054.036-2.375.247-3.452.361l1.909-1.9zm8.722 1.774l-.744.743-.1-.127-.022-.022-1.229-.963-1.512-.7a.106.106 0 00-.076-.081l-1.445-.412 1.783-1.777zm-3.454-24.294l-1.858 1.851V206.6zm-.013 6.934l-1.845 1.838v-3.683zm-.025 16.761a8.506 8.506 0 013.027 2.458.1.1 0 00.017.061 5.409 5.409 0 01.642 1.42 5.811 5.811 0 01.228 1.572v.006a5.752 5.752 0 01-.227 1.58 5.4 5.4 0 01-.6 1.354.1.1 0 00-.036.03 8.519 8.519 0 01-3.05 2.487 7.47 7.47 0 01-3.679.721H32.2a12.344 12.344 0 01-3.82-.5 13.052 13.052 0 01-3.507-1.642v-8.118a13.055 13.055 0 013.507-1.643 12.313 12.313 0 013.811-.5h.019a7.445 7.445 0 013.683.717zm.091 11.163a8.731 8.731 0 003.081-2.488.111.111 0 00.053-.043 5.591 5.591 0 00.668-1.475 6.011 6.011 0 00.236-1.632v-.008a5.978 5.978 0 00-.236-1.638 5.587 5.587 0 00-.651-1.449.11.11 0 00-.022-.076 8.875 8.875 0 00-2.419-2.167l.477.22 1.21.949.926 1.224.582 1.418.2 1.52a6.606 6.606 0 01-.479 2.194l-.306.742-.927 1.226-1.209.948-1.476.683a.114.114 0 00-.045 0zm-1.605-43.354l1.51 1.509-1.816 1.816v-2.867a.1.1 0 00-.011-.047l-.172-.411zm-15.232 10.674h.053v2.052h-.049zm.479 12.726l-.339-.14-.14-.339v-6.334h.025a.108.108 0 00.108-.108v-.175h.02a.107.107 0 00.107-.095h1.518a.108.108 0 00.108-.108v-.213h.2v.969a.108.108 0 00.108.108h.491a.108.108 0 00.108-.108v-2.645a.108.108 0 00-.108-.108h-.491a.108.108 0 00-.108.108v.969h-.2v-.213a.108.108 0 00-.108-.108h-1.514a.108.108 0 00-.107-.095h-.024v-.175a.108.108 0 00-.108-.108h-.025V212.9h.153a.108.108 0 00.108-.108v-.27h.156a.108.108 0 00.108-.108v-.195h3.413v9.559a.678.678 0 00.674.663h8.5a.676.676 0 00.675-.675V201.54a.676.676 0 00-.674-.663h-8.5a.674.674 0 00-.674.675v9.548h-3.41v-.2a.108.108 0 00-.108-.108h-.156v-.27a.108.108 0 00-.108-.108h-.157v-1.541h.025a.108.108 0 00.108-.108v-.176h.02a.107.107 0 00.107-.094h1.518a.108.108 0 00.108-.108v-.213h.2v.969a.108.108 0 00.108.108h.491a.108.108 0 00.108-.108V206.5a.108.108 0 00-.108-.108h-.491a.108.108 0 00-.108.108v.969h-.2v-.214a.107.107 0 00-.108-.107h-1.514a.107.107 0 00-.107-.095h-.024v-.176a.108.108 0 00-.108-.108h-.025v-6.332l.141-.339.339-.14h13.751l.339.14.14.339v22.442l-.14.339-.339.14zm-.214-7.407v-.917h1.409v.917zm1.85-.329v.008h-.228v-.275h.229v0a.343.343 0 00-.028.135.349.349 0 00.027.132zm.466-.455a.314.314 0 00-.091-.024h-.064a.363.363 0 00-.12.027v-.889h.275zm0 .327v.01a.137.137 0 01-.036.083.139.139 0 01-.085.043.143.143 0 01-.075-.012l-.042-.031a.162.162 0 01-.027-.041v0a.126.126 0 01-.009-.049.142.142 0 01.01-.052.144.144 0 01.031-.046h0a.156.156 0 01.039-.026.147.147 0 01.048-.011h.025a.139.139 0 01.083.043.137.137 0 01.036.083zm-.175.351a.47.47 0 00.084 0 .333.333 0 00.09-.025v.888h-.275v-.888a.366.366 0 00.102.025zm-2.142-3.539v-1.3h.048v1.3zm6.721.216a.865.865 0 00.376-.087h.01a.87.87 0 00.27-.212h.528a.107.107 0 00.076-.032l.287-.244a.108.108 0 00.046-.088v-.394a.108.108 0 00-.043-.086l-.292-.249a.1.1 0 00-.074-.03h-.528a.863.863 0 00-1.312 0h-2.171v-9.546a.459.459 0 01.458-.459h8.5a.458.458 0 01.458.459v20.216a.459.459 0 01-.459.459h-8.5a.459.459 0 01-.458-.46v-9.546h2.171a.877.877 0 00.271.212.867.867 0 00.387.087zm-.325-.3h.649l-.044.024a.65.65 0 01-.28.063.631.631 0 01-.289-.068zm.649-1.123h-.648l.034-.018a.652.652 0 01.58 0zm.3.216h.523l.232.2v.3l-.231.2h-7.6v-.691c2.051-.012 5.044.136 7.074-.012zm-7.342-3.031v-.918h1.409v.918zm1.849-.332v.011h-.228v-.275h.227a.353.353 0 00-.027.135.361.361 0 00.026.126zm.467-.452a.358.358 0 00-.092-.025h-.069a.351.351 0 00-.114.027v-.889h.275zm0 .327v.01a.137.137 0 01-.036.082.138.138 0 01-.2 0 .138.138 0 01-.027-.042h0a.146.146 0 01-.008-.048.141.141 0 01.011-.054h0a.126.126 0 01.028-.04.132.132 0 01.04-.028.154.154 0 01.074-.011.139.139 0 01.086.045.135.135 0 01.034.081zm-.156.352h.072a.378.378 0 00.083-.024v.889h-.275v-.889a.363.363 0 00.119.021zm.574 21.232l2.229 2.229-4.985.526zm-3 3l7.637-.806.006.006a.107.107 0 00.152 0l.026-.026 3.662-.386 1.7-.059.568.069q-.348-.01-.7.012a12.53 12.53 0 00-3.883.511 13.265 13.265 0 00-3.612 1.7.108.108 0 00-.05.091v8.232a.11.11 0 00.054.094 13.251 13.251 0 003.609 1.7 12.528 12.528 0 003.873.512h0q.352.023.7.012l-.566.069-1.7-.059-8.325-.879-3.158-.333zm0 10.676l2.635.279L19.147 246zm65.678 7.011l.038-.038a.108.108 0 00-.152-.153l-.038.039-3.318-3.318 3.314-3.306.042.042a.108.108 0 00.152-.153l-.041-.041.041-.042a.107.107 0 10-.152-.152l-.042.042-3.321-3.314 3.321-3.314.042.042a.107.107 0 00.152 0 .109.109 0 000-.153l-.042-.041.042-.042a.107.107 0 10-.152-.152l-.042.042-3.321-3.314 3.321-3.313.042.042a.107.107 0 10.152-.152l-.042-.042.042-.042a.108.108 0 00-.152-.153l-.042.043-3.322-3.314 3.322-3.314.042.043a.108.108 0 00.152-.153l-.042-.042.042-.042a.107.107 0 10-.152-.152l-.042.042-3.322-3.314 3.322-3.311.042.043a.107.107 0 00.152 0 .109.109 0 000-.153l-.042-.042.042-.042a.107.107 0 10-.152-.152l-.042.042-3.322-3.313 3.322-3.314.042.043a.108.108 0 00.152-.153l-.042-.042.042-.042a.107.107 0 10-.152-.152l-.042.042L81.3 205l3.318-3.317.1.1a.108.108 0 00.152-.153l-.1-.1.1-.1a.107.107 0 10-.152-.152l-.1.1-1.418-1.418h1.582a.108.108 0 100-.216H34.467a.108.108 0 00-.136 0H19.606a.119.119 0 00-.05.012l-.389.162a.107.107 0 00-.061.059l-.164.394a.1.1 0 00-.011.047V222.9a.119.119 0 00.012.05l.163.392a.116.116 0 00.023.036l.035.023.392.162a.119.119 0 00.05.012h1.123l-1.766 1.766a.107.107 0 00.152.152l1.919-1.918h2.226l2.208 2.208-3.321 3.321-3.032-3.031a.107.107 0 00-.152.152l3.031 3.031-2.847 2.844v-3.913a.108.108 0 00-.108-.108h-4.534a.108.108 0 00-.108.108v18.894a.108.108 0 00.108.108 65.908 65.908 0 014.534 0 .1.1 0 00.042-.009L22 250.1l-2.955 2.956a.107.107 0 00.152.152l2.956-2.955 2.956 2.955a.107.107 0 10.152-.152L22.3 250.1l3.321-3.321 3.321 3.321-2.956 2.956a.107.107 0 00.152.152l2.956-2.956 2.956 2.956a.107.107 0 10.152-.152l-2.955-2.956 3.321-3.321 3.321 3.32-2.956 2.957a.107.107 0 00.152.152l2.956-2.956L39 253.206a.107.107 0 10.152-.152l-2.958-2.954 3.314-3.314 3.328 3.321-2.956 2.95a.107.107 0 00.152.152l2.957-2.95 2.956 2.95a.107.107 0 10.152-.152l-2.956-2.95 3.32-3.313 3.321 3.314-2.955 2.949a.107.107 0 00.152.152l2.956-2.949 2.956 2.949a.107.107 0 10.152-.152l-2.956-2.949 3.329-3.321 3.317 3.317-2.959 2.953a.107.107 0 000 .152.109.109 0 00.153 0l2.959-2.953 2.953 2.953a.107.107 0 10.152-.152l-2.953-2.957 3.324-3.317 3.317 3.317-2.959 2.953a.107.107 0 000 .152.109.109 0 00.153 0l2.959-2.953 2.953 2.953a.109.109 0 00.153 0 .107.107 0 000-.152l-2.954-2.953 3.325-3.318 3.318 3.318-2.96 2.953a.107.107 0 10.152.152l2.96-2.953 2.953 2.953a.107.107 0 00.152-.152l-2.953-2.953 3.325-3.317 3.318 3.317-2.959 2.953a.107.107 0 00.152.152l2.959-2.952 2.952 2.952a.109.109 0 00.153 0 .107.107 0 000-.152l-2.952-2.953 3.324-3.317 3.318 3.317-2.96 2.953a.107.107 0 00.152.152l2.96-2.953.039.039a.107.107 0 10.152-.152zm-.308-13.86l-3.318 3.315-3.322-3.314 3.322-3.314zm-58.745-10.456l2.208-2.208h2.227l2.237 2.238-3.325 3.317zm3.5 3.5l3.326-3.317 3.294 3.294-1.873 1.866a14.4 14.4 0 00-3.061-.157zM40.1 236.11l-.01-.033-.588-1.431-.016-.031-.715-.946.765-.764 3.317 3.318-2.712 2.706a5.925 5.925 0 00-.041-2.819zm6.238-10.3l-3.324 3.318-3.338-3.338L43 222.479zm-6.638-6.935l3.325-3.318 3.3 3.3L43 222.174zm3.453 3.452l3.327-3.315 3.332 3.333-3.324 3.317zm3.48-3.467l3.327-3.315 3.33 3.33-3.325 3.317zm3.332 3.637l3.317 3.317-3.325 3.317-3.317-3.317zm.152-.152l3.325-3.318 3.317 3.317-3.324 3.318zm3.478-3.47l3.283-3.276 3.321 3.313-3.287 3.28zm3.317 3.621l3.287 3.288-3.321 3.321-3.291-3.291zm.152-.152l3.288-3.28 3.287 3.28-3.288 3.287zm3.44-3.432l3.321-3.314 3.284 3.276-3.309 3.318zM63.8 222.5l3.355 3.348-3.294 3.287-3.348-3.347zm.152-.152l3.318-3.317 3.359 3.351-3.329 3.31zm3.47-3.47l3.317-3.317 3.363 3.355-3.321 3.314zm3.359 3.656l3.321 3.314-3.321 3.313-3.321-3.313zm.153-.152l3.32-3.313 3.321 3.313-3.32 3.313zm-.042-6.973l3.317-3.317 3.366 3.359-3.321 3.313zm-.153-.152l-3.279-3.273 3.321-3.313 3.275 3.268zm-.152.152l-3.317 3.317-3.284-3.276 3.321-3.313zm-6.753-.111l-3.321-3.314 3.321-3.313 3.321 3.313zm-.152.152l-3.321 3.314-3.321-3.314 3.321-3.314zm-6.8-.152l-3.331-3.323 3.324-3.312 3.325 3.317zm-.152.152l-3.283 3.276-3.33-3.329 3.282-3.27zm-6.765-.206l-3.306-3.305 3.276-3.268 3.311 3.3zm-.153.153l-3.328 3.314-3.3-3.3 3.325-3.318zm-6.783-.14l-3.329-3.331 3.327-3.315 3.324 3.324zm-.152.152l-3.325 3.317-3.329-3.329 3.327-3.315zm-.025 6.922l-3.328 3.315-3.3-3.3 3.325-3.317zm.01 6.957l-3.324 3.312-3.338-3.34 3.327-3.314zm-3.172 3.469l3.324-3.317 3.317 3.317-3.324 3.317zm3.477-3.469l3.324-3.318 3.318 3.317-3.325 3.313zm6.794.152l3.3 3.295-3.321 3.321-3.3-3.3zm.153-.153l3.324-3.317 3.291 3.291-3.321 3.321zm6.768.127l3.343 3.343-3.325 3.313-3.34-3.339zm.152-.153l3.321-3.321 3.348 3.347-3.325 3.313zm6.821.179l3.317 3.317-3.324 3.317-3.318-3.317zm.153-.153L67.3 226l3.321 3.314-3.3 3.291zm6.768.178l3.321 3.314-3.3 3.295-3.318-3.317zm.152-.151L74.25 226l3.321 3.313-3.321 3.314zm6.8.151l3.321 3.314-3.321 3.314-3.328-3.318zm-3.328-3.621l3.321-3.314 3.321 3.314-3.321 3.313zm0-6.932l3.321-3.313 3.32 3.313-3.32 3.314zm-.046-6.977l3.318-3.317 3.37 3.363-3.319 3.319zm3.317-3.621l-3.271-3.265 3.321-3.314L80.99 205zm-.152.152l-3.319 3.317-3.275-3.268 3.321-3.314zm-6.745-.1l-3.321-3.313 3.321-3.314 3.321 3.313zm-.153.152l-3.321 3.311-3.321-3.314L67.3 205.2zm-6.794-.152l-3.327-3.321 3.323-3.311 3.323 3.316zm-.152.152l-3.321 3.314-3.328-3.322 3.323-3.31zm-6.8-.159l-3.314-3.307 3.321-3.314 3.317 3.31zm-.152.151l-3.323 3.309-3.311-3.3 3.321-3.314zm-6.788-.144l-3.325-3.318 3.324-3.312 3.323 3.316zm-.152.152l-3.276 3.268-3.324-3.324 3.274-3.262zm-6.752-.208l-3.315-3.315 3.271-3.258 3.318 3.311zm-.153.152l-3.328 3.315-3.314-3.315 3.328-3.315zm-6.794-.152l-2.011-2.01v-2.71l1.968-1.968 3.37 3.37zm0 .305l3.315 3.314-3.328 3.315-2-2v-2.629zm-.013 6.933l3.33 3.33-3.325 3.317-2-2v-2.656zm3.3 10.249l-3.327 3.314-3.3-3.3 3.324-3.317zm.707 13.5l2.927-2.92 3.3 3.3-3.333 3.333-3.137-3.13zm3.08-3.073l3.324-3.316 3.3 3.3-3.32 3.321zm6.776.135l3.336 3.336-3.325 3.317-3.332-3.333zm.152-.153l3.321-3.321 3.34 3.34-3.324 3.317zm6.813.171l3.318 3.317-3.325 3.318-3.317-3.317zm.153-.152l3.324-3.317 3.318 3.317-3.324 3.315zm6.794.152l3.317 3.318-3.323 3.315-3.317-3.318zm.153-.152l3.325-3.318 3.317 3.318-3.325 3.317zm6.794.152l3.318 3.317-3.325 3.317-3.318-3.317zm.153-.153l3.3-3.3 3.32 3.314-3.306 3.3zm6.776.171l3.321 3.314-3.31 3.3-3.318-3.317zm6.794-7.083l-3.32 3.313-3.322-3.314L81.2 226zm0-6.932l-3.316 3.312-3.321-3.314 3.321-3.314zm0-6.932L81.2 218.76l-3.321-3.313 3.321-3.314zm0-6.931l-3.316 3.312-3.37-3.363 3.317-3.318zm-1.626-8.555l1.569 1.566-3.317 3.318-3.268-3.261 1.626-1.625zm-3.694 0l-1.475 1.471-1.474-1.471zm-3.254 0l1.627 1.623-3.32 3.315-3.321-3.313 1.627-1.624zm-3.692 0l-1.475 1.472-1.475-1.474zm-3.255 0l1.627 1.624L67.3 204.9l-3.324-3.315 1.628-1.622zm-3.694 0l-1.475 1.47-1.473-1.47zm-3.253 0l1.625 1.622-3.323 3.311-3.317-3.31 1.627-1.623zm-3.693 0l-1.474 1.471-1.474-1.471zm-3.253 0l1.627 1.623-3.32 3.315-3.323-3.315 1.627-1.621zm-3.695 0l-1.474 1.469-1.473-1.469zm-3.251 0l1.624 1.621-3.324 3.312-3.317-3.311 1.627-1.622zm-3.695 0l-1.475 1.47-1.473-1.47zm-3.253 0l1.625 1.622-3.27 3.258-3.37-3.371 1.5-1.509zm-3.811 0l-1.357 1.357-1.357-1.357zm-3.5 23.383l.162-.392a.106.106 0 00.012-.05V220.5l1.849 1.849-3.32 3.312-2.085-2.085H33.4a.119.119 0 00.05-.012l.392-.162a.141.141 0 00.036-.024zm-10.334.233h4.111l-2.056 2.055zm2.055 2.36l3.348 3.348-2.1 2.092-2.218.234-2.348-2.355zm-3.472 24.01l-3-3v-.648l2.911-2.91.2.02 3.213 3.213zm.448-6.5l5.471.578-2.446 2.446zm6.5 6.5l-3.321-3.32 2.57-2.57 1.681.178 2.391 2.391zm1.271-5.676a11.251 11.251 0 004.863-.458l-2.66 2.661zm5.676 5.676l-3.321-3.321 2.929-2.928a.112.112 0 00.072-.006l.469-.217 3.165 3.158zm3.466-3.466l-3.109-3.1.875-.405L38.52 242l.025-.025.942-1.246.016-.031.248-.6 3.073 3.067zm3.482 3.473l-3.329-3.321 3.317-3.317 3.332 3.325zm.14-6.79l3.333-3.332 3.332 3.332-3.333 3.325zm6.806 6.791l-3.321-3.314 3.332-3.325 3.317 3.317zm.163-6.791l3.325-3.317 3.317 3.317-3.324 3.317zm6.787 6.787l-3.317-3.318 3.325-3.317 3.317 3.318zm.16-6.787l3.325-3.318 3.317 3.318-3.325 3.317zm6.787 6.787l-3.317-3.318 3.324-3.317 3.318 3.317zm.16-6.787l3.325-3.317 3.317 3.317-3.325 3.317zm6.787 6.787l-3.317-3.318 3.324-3.317 3.318 3.317zm.16-6.787l3.325-3.318 3.317 3.318-3.325 3.317zm6.787 6.787l-3.318-3.318 3.325-3.317 3.318 3.317zm.16-6.787l3.311-3.3 3.321 3.314-3.318 3.3z" stroke-width=".2" fill-rule="evenodd" stroke-linecap="round" stroke-linejoin="round" stroke="#999" fill="none"/></g><g id="sizes"><path d="M483.556 211.7h-1.594v-9.625l-1.617.992v-1.647l1.617-1.078h1.594zM488.118 211.818l-.726-.347a2.864 2.864 0 01-1.168-1.008 3.636 3.636 0 01-.559-1.59h1.625a1.72 1.72 0 00.305.8 1.417 1.417 0 00.6.465 2.294 2.294 0 00.871.152 1.7 1.7 0 001.227-.422 1.57 1.57 0 00.437-1.187v-.344a1.909 1.909 0 00-.414-1.316 1.487 1.487 0 00-1.171-.465h-.8v-1.516h.8a1.335 1.335 0 001.031-.4 1.6 1.6 0 00.367-1.125v-.352a1.364 1.364 0 00-.387-1.039 1.531 1.531 0 00-1.1-.367 1.682 1.682 0 00-.727.152 1.4 1.4 0 00-.543.469 2.14 2.14 0 00-.324.793h-1.617a4.119 4.119 0 01.59-1.594 2.9 2.9 0 011.1-1.008 3.269 3.269 0 011.524-.343 3.145 3.145 0 012.273.773 2.884 2.884 0 01.805 2.18v.187a2.457 2.457 0 01-.461 1.485 2.6 2.6 0 01-1.305.921 2.316 2.316 0 011.442.915 3.033 3.033 0 01.511 1.812v.188a3.5 3.5 0 01-.383 1.695 2.515 2.515 0 01-1.113 1.07 3.883 3.883 0 01-1.762.367zM494.439 210.107h1.593v1.593l-1.593 1.578zM502.243 206.061l-.008.281a1.165 1.165 0 01-.589.527 2.375 2.375 0 01-.934.168 2.505 2.505 0 01-1.43-.414 2.707 2.707 0 01-.957-1.168 4.216 4.216 0 01-.34-1.746v-.009a4.352 4.352 0 01.372-1.883 2.617 2.617 0 011.086-1.187 3.41 3.41 0 011.714-.406 3.341 3.341 0 011.711.414 2.66 2.66 0 011.082 1.2 4.437 4.437 0 01.371 1.9v.008a5.867 5.867 0 01-.156 1.3 8.052 8.052 0 01-.445 1.371l-.094.207c-.031.07-.065.14-.1.207L501.1 211.7h-1.719zm.075-.985a2.222 2.222 0 00.41-1.43v-.007a2.117 2.117 0 00-.41-1.391 1.624 1.624 0 00-2.329 0 2.128 2.128 0 00-.41 1.4v.008a2.206 2.206 0 00.41 1.426 1.593 1.593 0 002.329 0zM225.027 40.168h-1.593v-9.625l-1.617.993v-1.649l1.617-1.078h1.593zM227.434 38.786L231.4 33.5a3.917 3.917 0 00.535-.941 2.494 2.494 0 00.191-.91v-.016a1.379 1.379 0 00-.4-1.054 1.592 1.592 0 00-1.133-.375 1.558 1.558 0 00-1.125.41 1.862 1.862 0 00-.523 1.16v.008h-1.649v-.008a4.249 4.249 0 01.574-1.668 2.92 2.92 0 011.121-1.055 3.349 3.349 0 011.586-.363 3.956 3.956 0 011.735.348 2.438 2.438 0 011.093 1.011 3.211 3.211 0 01.375 1.6v.008a3.516 3.516 0 01-.25 1.257 5.4 5.4 0 01-.695 1.266l-3.289 4.469h4.3v1.515h-6.406zM235.715 38.575h1.594v1.593l-1.594 1.579zM240.715 39.883a2.6 2.6 0 01-1.082-1.172 4.24 4.24 0 01-.371-1.855v-.008a6.429 6.429 0 01.148-1.328 7.673 7.673 0 01.43-1.367q.047-.117.1-.231l.109-.222 2.469-4.891h1.718l-2.9 5.664.008-.281a1.362 1.362 0 01.57-.57 1.8 1.8 0 01.875-.2 2.784 2.784 0 011.516.4 2.491 2.491 0 01.961 1.16 4.633 4.633 0 01.328 1.832v.008a4.345 4.345 0 01-.371 1.875 2.613 2.613 0 01-1.086 1.187 3.825 3.825 0 01-3.426 0zm2.879-1.6A1.97 1.97 0 00244 36.95v-.008a2.257 2.257 0 00-.43-1.473 1.5 1.5 0 00-1.226-.519 1.3 1.3 0 00-1.1.523 2.426 2.426 0 00-.39 1.477v.008a1.948 1.948 0 00.41 1.332 1.687 1.687 0 002.328 0zM274.141 156.929l3.961-5.281a3.955 3.955 0 00.535-.941 2.5 2.5 0 00.191-.911v-.015a1.381 1.381 0 00-.4-1.055 1.592 1.592 0 00-1.133-.375 1.562 1.562 0 00-1.125.41 1.865 1.865 0 00-.523 1.16v.008H274v-.008a4.249 4.249 0 01.574-1.668 2.918 2.918 0 011.126-1.053 3.349 3.349 0 011.586-.364 3.97 3.97 0 011.735.348 2.441 2.441 0 011.093 1.012 3.208 3.208 0 01.375 1.6v.008a3.522 3.522 0 01-.25 1.258 5.4 5.4 0 01-.695 1.266l-3.294 4.472h4.3v1.516h-6.406zM284.094 158.039a2.857 2.857 0 01-1.207-1.106 3.179 3.179 0 01-.426-1.66v-.188a3.191 3.191 0 01.426-1.6 2.848 2.848 0 011.137-1.133 2.477 2.477 0 01-.965-.949 2.555 2.555 0 01-.364-1.309v-.273a3.026 3.026 0 01.4-1.567 2.691 2.691 0 011.125-1.046 4.013 4.013 0 013.375 0 2.7 2.7 0 011.125 1.046 3.035 3.035 0 01.4 1.567v.273a2.526 2.526 0 01-.371 1.321 2.469 2.469 0 01-.98.937 2.953 2.953 0 011.152 1.137 3.127 3.127 0 01.434 1.6v.188a3.179 3.179 0 01-.426 1.66 2.863 2.863 0 01-1.207 1.106 4.407 4.407 0 01-3.625 0zm2.789-1.36a1.57 1.57 0 00.652-.613 1.769 1.769 0 00.231-.91v-.11a1.788 1.788 0 00-.231-.918 1.582 1.582 0 00-.652-.613 2.287 2.287 0 00-1.953 0 1.581 1.581 0 00-.653.617 1.818 1.818 0 00-.23.922v.117a1.76 1.76 0 00.23.907 1.567 1.567 0 00.653.6 2.306 2.306 0 001.953 0zm-.133-5.121a1.423 1.423 0 00.57-.59 1.847 1.847 0 00.2-.883v-.109a1.712 1.712 0 00-.2-.844 1.406 1.406 0 00-.57-.566 1.887 1.887 0 00-1.687 0 1.414 1.414 0 00-.571.566 1.737 1.737 0 00-.2.852v.117a1.818 1.818 0 00.2.871 1.439 1.439 0 00.571.586 1.822 1.822 0 001.687 0zM291.422 156.718h1.594v1.594l-1.594 1.578zM299.227 152.671l-.008.282a1.172 1.172 0 01-.59.527 2.372 2.372 0 01-.934.168 2.5 2.5 0 01-1.429-.414 2.7 2.7 0 01-.957-1.168 4.207 4.207 0 01-.34-1.746v-.008a4.367 4.367 0 01.371-1.883 2.617 2.617 0 011.086-1.187 3.414 3.414 0 011.715-.407 3.354 3.354 0 011.711.414 2.673 2.673 0 011.082 1.2 4.437 4.437 0 01.371 1.9v.008a5.927 5.927 0 01-.156 1.3 8.057 8.057 0 01-.446 1.371l-.094.207a3.94 3.94 0 01-.1.207l-2.422 4.867h-1.719zm.074-.984a2.222 2.222 0 00.41-1.43v-.008a2.116 2.116 0 00-.41-1.39 1.623 1.623 0 00-2.328 0 2.123 2.123 0 00-.41 1.4v.008a2.2 2.2 0 00.41 1.426 1.592 1.592 0 002.328 0zM146.712 316.138h-1.594v-9.625l-1.617.992v-1.648l1.617-1.078h1.594zM150.114 315.4a3.276 3.276 0 01-.824-2.375v-5.164a3.265 3.265 0 01.828-2.379 3.873 3.873 0 014.832 0 3.265 3.265 0 01.825 2.383v5.164a3.261 3.261 0 01-.829 2.379 3.862 3.862 0 01-4.832 0zm3.664-1.106a1.815 1.815 0 00.4-1.269v-5.164a1.833 1.833 0 00-.4-1.27 1.992 1.992 0 00-2.5 0 1.838 1.838 0 00-.4 1.27v5.164a1.82 1.82 0 00.4 1.269 1.977 1.977 0 002.492 0zM157.493 314.544h1.594v1.594l-1.594 1.578zM161.63 315.4a3.272 3.272 0 01-.824-2.375v-5.164a3.261 3.261 0 01.828-2.379 3.873 3.873 0 014.832 0 3.265 3.265 0 01.824 2.383v5.164a3.261 3.261 0 01-.828 2.379 3.862 3.862 0 01-4.832 0zm3.664-1.106a1.815 1.815 0 00.4-1.269v-5.164a1.833 1.833 0 00-.4-1.27 1.992 1.992 0 00-2.5 0 1.833 1.833 0 00-.4 1.27v5.164a1.815 1.815 0 00.4 1.269 1.977 1.977 0 002.492 0zM252.071 270.577l3.813-8.227h1.641l-3.719 8.133h5.57v1.476h-7.3zm4.9-3.555h1.555v6.687h-1.556zM261.173 272.108h1.594v1.592l-1.594 1.578zM265.31 272.967a3.269 3.269 0 01-.825-2.375v-5.164a3.265 3.265 0 01.829-2.379 3.876 3.876 0 014.832 0 3.271 3.271 0 01.824 2.383v5.164a3.265 3.265 0 01-.828 2.379 3.859 3.859 0 01-4.832 0zm3.664-1.1a1.821 1.821 0 00.4-1.27v-5.164a1.833 1.833 0 00-.4-1.269 1.989 1.989 0 00-2.5 0 1.829 1.829 0 00-.4 1.269v5.164a1.816 1.816 0 00.4 1.27 1.981 1.981 0 002.492 0zM102.756 40.168h-1.594v-9.625l-1.617.993v-1.649l1.617-1.078h1.594zM105.162 38.786l3.961-5.282a3.883 3.883 0 00.535-.941 2.5 2.5 0 00.192-.91v-.016a1.376 1.376 0 00-.4-1.054 1.589 1.589 0 00-1.133-.375 1.561 1.561 0 00-1.125.41 1.867 1.867 0 00-.523 1.16v.008h-1.648v-.008a4.233 4.233 0 01.574-1.668 2.92 2.92 0 011.121-1.055 3.346 3.346 0 011.586-.363 3.948 3.948 0 011.734.348 2.436 2.436 0 011.094 1.011 3.211 3.211 0 01.375 1.6v.008a3.516 3.516 0 01-.25 1.257 5.4 5.4 0 01-.695 1.266l-3.289 4.469h4.3v1.515h-6.406zM113.443 38.575h1.594v1.593l-1.594 1.579zM119.967 40.168h-1.594v-9.625l-1.617.993v-1.649l1.617-1.078h1.594zM103.729 222.027l3.961-5.281a3.955 3.955 0 00.535-.941 2.5 2.5 0 00.191-.91v-.016a1.381 1.381 0 00-.4-1.055 1.592 1.592 0 00-1.133-.375 1.562 1.562 0 00-1.125.41 1.874 1.874 0 00-.524 1.161v.007h-1.648v-.007a4.243 4.243 0 01.574-1.668 2.92 2.92 0 011.121-1.055 3.349 3.349 0 011.586-.363 3.97 3.97 0 011.735.347 2.446 2.446 0 011.093 1.012 3.211 3.211 0 01.375 1.6v.007a3.517 3.517 0 01-.25 1.258 5.4 5.4 0 01-.7 1.266l-3.289 4.469h4.3v1.515h-6.406zM112.01 221.816h1.59v1.594l-1.594 1.578zM117.776 223.527l-.727-.347a2.87 2.87 0 01-1.168-1.008 3.649 3.649 0 01-.559-1.59h1.625a1.72 1.72 0 00.3.8 1.414 1.414 0 00.606.465 2.294 2.294 0 00.871.152 1.7 1.7 0 001.226-.422 1.571 1.571 0 00.438-1.187v-.344a1.914 1.914 0 00-.414-1.316 1.489 1.489 0 00-1.172-.465H118v-1.516h.805a1.335 1.335 0 001.031-.4 1.6 1.6 0 00.367-1.125v-.352a1.364 1.364 0 00-.387-1.039 1.53 1.53 0 00-1.1-.367 1.682 1.682 0 00-.727.152 1.4 1.4 0 00-.543.469 2.14 2.14 0 00-.324.793h-1.612a4.135 4.135 0 01.59-1.594 2.9 2.9 0 011.1-1.008 3.271 3.271 0 011.524-.343 3.145 3.145 0 012.273.773 2.884 2.884 0 01.805 2.18v.187a2.45 2.45 0 01-.461 1.485 2.6 2.6 0 01-1.3.921 2.316 2.316 0 011.442.915 3.026 3.026 0 01.511 1.812v.188a3.5 3.5 0 01-.382 1.695 2.518 2.518 0 01-1.114 1.07 3.882 3.882 0 01-1.761.367zM56.324 247.19l-.726-.347a2.864 2.864 0 01-1.168-1.008 3.636 3.636 0 01-.559-1.59H55.5a1.72 1.72 0 00.3.8 1.417 1.417 0 00.6.465 2.294 2.294 0 00.871.152 1.691 1.691 0 001.227-.422 1.569 1.569 0 00.438-1.187v-.344a1.909 1.909 0 00-.415-1.316 1.487 1.487 0 00-1.171-.465h-.8v-1.516h.8a1.335 1.335 0 001.031-.4 1.6 1.6 0 00.367-1.125v-.352a1.364 1.364 0 00-.387-1.039 1.531 1.531 0 00-1.1-.367 1.682 1.682 0 00-.727.152 1.4 1.4 0 00-.543.469 2.14 2.14 0 00-.324.793h-1.608a4.119 4.119 0 01.59-1.594 2.9 2.9 0 011.1-1.008 3.269 3.269 0 011.524-.343 3.145 3.145 0 012.273.773 2.884 2.884 0 01.8 2.18v.187a2.457 2.457 0 01-.461 1.485 2.606 2.606 0 01-1.3.922 2.31 2.31 0 011.442.914 3.033 3.033 0 01.511 1.812v.188a3.5 3.5 0 01-.383 1.695 2.515 2.515 0 01-1.113 1.07 3.883 3.883 0 01-1.762.367zM62.645 245.479h1.593v1.594l-1.593 1.578zM68.07 246.854a2.754 2.754 0 01-1.086-.976 3.893 3.893 0 01-.558-1.539v-.008h1.594v.008a1.473 1.473 0 00.5.973 1.623 1.623 0 001.078.347 1.437 1.437 0 001.183-.512 2.215 2.215 0 00.418-1.441v-.953a2.209 2.209 0 00-.418-1.434 1.442 1.442 0 00-1.183-.511 1.5 1.5 0 00-.8.234 2.225 2.225 0 00-.672.656h-1.45v-5.984h5.789v1.515h-4.2v2.555a2.275 2.275 0 01.664-.375 2.2 2.2 0 01.75-.133 3.293 3.293 0 011.683.407 2.6 2.6 0 011.063 1.187 4.445 4.445 0 01.363 1.883v.953a4.322 4.322 0 01-.375 1.883 2.649 2.649 0 01-1.094 1.191 3.42 3.42 0 01-1.726.41 3.358 3.358 0 01-1.523-.336zM95.473 273.458l3.812-8.227h1.641l-3.719 8.133h5.57v1.476h-7.3zm4.9-3.555h1.555v6.687h-1.555zM104.574 274.989h1.594v1.594l-1.594 1.578zM110 276.364a2.765 2.765 0 01-1.086-.977 3.877 3.877 0 01-.558-1.539v-.008h1.593v.008a1.482 1.482 0 00.5.973 1.621 1.621 0 001.078.347 1.441 1.441 0 001.184-.511 2.226 2.226 0 00.418-1.442v-.953a2.21 2.21 0 00-.418-1.433 1.441 1.441 0 00-1.184-.512 1.5 1.5 0 00-.8.234 2.229 2.229 0 00-.672.657h-1.453v-5.985h5.798v1.516h-4.2v2.554a2.288 2.288 0 01.664-.375 2.212 2.212 0 01.75-.132 3.294 3.294 0 011.684.406 2.6 2.6 0 011.062 1.187 4.429 4.429 0 01.364 1.883v.953a4.316 4.316 0 01-.375 1.883 2.656 2.656 0 01-1.094 1.192 3.435 3.435 0 01-1.727.41 3.364 3.364 0 01-1.528-.336zM331.047 296.587l-.727-.348a2.856 2.856 0 01-1.168-1.008 3.644 3.644 0 01-.558-1.589h1.625a1.7 1.7 0 00.305.8 1.4 1.4 0 00.605.465 2.275 2.275 0 00.871.153 1.7 1.7 0 001.227-.422 1.571 1.571 0 00.437-1.188v-.35a1.915 1.915 0 00-.414-1.317 1.491 1.491 0 00-1.172-.465h-.8v-1.515h.8a1.331 1.331 0 001.031-.4 1.592 1.592 0 00.368-1.125v-.351a1.364 1.364 0 00-.387-1.039 1.532 1.532 0 00-1.1-.368 1.667 1.667 0 00-.726.153 1.386 1.386 0 00-.543.468 2.123 2.123 0 00-.324.793h-1.618a4.152 4.152 0 01.59-1.593 2.877 2.877 0 011.1-1.008 3.265 3.265 0 011.523-.344 3.146 3.146 0 012.274.774 2.881 2.881 0 01.8 2.179v.188a2.447 2.447 0 01-.461 1.484 2.6 2.6 0 01-1.3.922 2.312 2.312 0 011.441.914 3.028 3.028 0 01.512 1.813v.187a3.5 3.5 0 01-.383 1.695 2.528 2.528 0 01-1.113 1.071 3.883 3.883 0 01-1.762.367zM337.367 294.876h1.594v1.594l-1.594 1.578zM342.664 296.2a2.86 2.86 0 01-1.207-1.105 3.182 3.182 0 01-.426-1.66v-.188a3.191 3.191 0 01.426-1.6 2.848 2.848 0 011.137-1.133 2.484 2.484 0 01-.965-.949 2.559 2.559 0 01-.363-1.309v-.273a3.035 3.035 0 01.4-1.567 2.712 2.712 0 011.125-1.047 4.023 4.023 0 013.375 0 2.7 2.7 0 011.125 1.047 3.026 3.026 0 01.4 1.567v.273a2.52 2.52 0 01-.371 1.32 2.481 2.481 0 01-.981.938 2.944 2.944 0 011.152 1.136 3.133 3.133 0 01.434 1.6v.188a3.182 3.182 0 01-.426 1.66 2.855 2.855 0 01-1.207 1.105 4.4 4.4 0 01-3.625 0zm2.789-1.359a1.585 1.585 0 00.653-.613 1.78 1.78 0 00.23-.911v-.117a1.793 1.793 0 00-.23-.918 1.585 1.585 0 00-.653-.613 2.287 2.287 0 00-1.953 0 1.566 1.566 0 00-.652.617 1.806 1.806 0 00-.231.922v.117a1.744 1.744 0 00.231.906 1.554 1.554 0 00.652.606 2.127 2.127 0 00.977.215 2.086 2.086 0 00.976-.215zm-.133-5.121a1.431 1.431 0 00.571-.59 1.858 1.858 0 00.2-.883v-.109a1.719 1.719 0 00-.2-.844 1.4 1.4 0 00-.571-.566 1.879 1.879 0 00-1.687 0 1.394 1.394 0 00-.57.566 1.727 1.727 0 00-.2.852v.117a1.81 1.81 0 00.2.871 1.431 1.431 0 00.57.586 1.822 1.822 0 001.687 0z"/></g><path class="cls-6" d="M28.65 8.057v13.604M28.65.5v5.668M28.65 6.168v1.889M111.78 8.057v13.604M111.78.5v5.668M111.78 6.168v1.889M111.78.5H28.65M111.78 21.661H28.65M111.78 8.057h-3.778M108.001 8.057V6.169M108.001 6.168h3.778M56.99 6.168h1.89M58.879 6.168v1.889M58.879 8.057h-1.89M108.001 7.113H58.879M108.001 8.057H58.879M58.879 6.168h49.122M56.99 8.057h-.944M56.046 8.057v-.943M56.046 7.113H55.1M55.1 7.113v-.945M55.1 6.168h1.89M28.65 6.168h3.778M32.428 6.168v.946M32.428 7.113h-.944M31.484 7.113v.944M31.484 8.057H28.65M32.428 6.168H55.1M53.211 9.003H34.318M56.046 9.003h-2.835M53.211 9.003V7.114M53.211 7.113h2.835M56.046 7.113v1.889M31.484 7.113h2.834M34.318 7.113v1.889M34.318 9.003h-2.834M31.484 9.003V7.114M34.318 7.113h18.894M53.211 9.003H34.318M53.211 8.057H34.318M111.78 6.168v1.889M111.78 6.168v1.889M111.78.5v5.668M111.78 8.057v13.604M28.65 6.168v1.889M28.65 6.168v1.889M28.65.5v5.668M28.65 8.057v13.604M111.78.5v21.16M232.696 8.057v13.604M232.696.5v5.668M232.696 6.168v1.889M166.57 8.057v13.604M166.57.5v5.668M166.57 6.168v1.889M166.57.5h66.126M166.57 21.661h66.126M166.57 8.057h3.778M170.348 8.057V6.169M170.348 6.168h-3.778M204.356 6.168h-1.889M202.467 6.168v1.889M202.467 8.057h1.889M170.348 7.113h32.119M170.348 8.057h32.119M202.467 6.168h-32.119M204.356 8.057h.945M205.301 8.057v-.943M205.301 7.113h.944M206.246 7.113v-.945M206.246 6.168h-1.89M232.696 6.168h-3.778M228.917 6.168v.946M228.917 7.113h.944M229.862 7.113v.944M229.862 8.057h2.834M228.917 6.168h-22.672M208.135 9.003h18.893M205.301 9.003h2.834M208.135 9.003V7.114M208.135 7.113h-2.834M205.301 7.113v1.889M229.862 7.113h-2.834M227.028 7.113v1.889M227.028 9.003h2.834M229.862 9.003V7.114M227.028 7.113h-18.893M208.135 9.003h18.893M208.135 8.057h18.893M166.57 6.168v1.889M166.57 6.168v1.889M166.57.5v5.668M166.57 8.057v13.604M232.696 6.168v1.889M232.696 6.168v1.889M232.696.5v5.668M232.696 8.057v13.604M232.696.5v21.16M344.166 8.057v13.604M344.166.5v5.668M344.166 6.168v1.889M278.04 8.057v13.604M278.04.5v5.668M278.04 6.168v1.889M278.04.5h66.126M278.04 21.661h66.126M278.04 8.057h3.778M281.818 8.057V6.169M281.818 6.168h-3.778M315.826 6.168h-1.89M313.936 6.168v1.889M313.936 8.057h1.89M281.818 7.113h32.118M281.818 8.057h32.118M313.936 6.168h-32.118M315.826 8.057h.944M316.77 8.057v-.943M316.77 7.113h.945M317.715 7.113v-.945M317.715 6.168h-1.89M344.166 6.168h-3.778M340.387 6.168v.946M340.387 7.113h.944M341.332 7.113v.944M341.332 8.057h2.834M340.387 6.168h-22.672M319.605 9.003h18.893M316.77 9.003h2.835M319.605 9.003V7.114M319.605 7.113h-2.835M316.77 7.113v1.889M341.332 7.113h-2.835M338.497 7.113v1.889M338.497 9.003h2.835M341.332 9.003V7.114M338.497 7.113h-18.892M319.605 9.003h18.893M319.605 8.057h18.893M278.04 6.168v1.889M278.04 6.168v1.889M278.04.5v5.668M278.04 8.057v13.604M344.166 6.168v1.889M344.166 6.168v1.889M344.166.5v5.668M344.166 8.057v13.604M344.166 21.661V.501M436.364 8.057v13.604M436.364.5v5.668M436.364 6.168v1.889M436.364.5h97.111M436.364 21.661h74.062M436.364 8.057h4.724M441.088 8.057V6.169M441.088 6.168h-4.725M525.917 6.168h-4.724M521.194 6.168v1.889M521.194 8.057h4.724M527.807 6.168h-1.89M441.088 8.057h80.105M521.194 6.168h-80.106M436.364 6.168v1.889M436.364 6.168v1.889M436.364.5v5.668M436.364 8.057v13.604M525.917 152.968h-15.491M533.475 152.968h-5.668M527.807 152.968h-1.89M533.475 152.968V.5M510.425 152.968V21.66M525.917 152.968v-4.724M525.917 148.244h1.891M527.807 148.244v4.724M527.807 8.057v4.723M527.807 12.781h-1.89M525.917 12.781V8.058M527.807 6.168v1.889M525.917 148.244V12.78M527.807 12.781v135.463M527.807 152.968h-1.89M527.807 152.968h-1.89M533.475 152.968h-5.668M525.917 152.968h-15.491M525.917 212.481h-15.491M533.475 212.481h-5.668M527.807 212.481h-1.89M525.917 295.611h-15.491M533.475 295.611h-5.668M527.807 295.611h-1.89M533.475 295.611v-83.13M510.425 295.611v-83.13M525.917 295.611v-3.779M525.917 291.832h1.891M527.807 291.832v3.779M527.807 240.821v1.889M527.807 242.71h-1.89M525.917 242.71v-1.889M526.862 291.832v-49.121M525.917 291.832v-49.121M527.807 242.71v49.122M525.917 240.821v-.945M525.917 239.876h.944M526.862 239.876v-.944M526.862 238.932h.945M527.807 238.932v1.889M527.807 212.481v3.779M527.807 216.26h-.945M526.862 216.26v-.945M526.862 215.315h-.944M525.917 215.315v-2.834M527.807 216.26v22.672M524.973 237.042V218.15M524.973 239.876v-2.834M524.973 237.042h1.889M526.862 237.042v2.834M526.862 239.876h-1.889M526.862 215.315v2.835M526.862 218.149h-1.889M524.973 218.149v-2.834M524.973 215.315h1.889M526.862 218.149v18.893M524.973 237.042V218.15M525.917 237.042V218.15M527.807 295.611h-1.89M527.807 295.611h-1.89M533.475 295.611h-5.668M525.917 295.611h-15.491M527.807 212.481h-1.89M527.807 212.481h-1.89M533.475 212.481h-5.668M525.917 212.481h-15.491M533.475 295.611h-23.05M525.918 63.126h1.89v5.133h-1.89zM525.918 106.484h1.89v5.133h-1.89zM152.311 348.769a43.882 43.882 0 01-3.2-15.56"/><path class="cls-7" d="M152.353 348.866l36.209-15.657v-1.512h-.454l-36.355 15.782.6 1.387z"/><path class="cls-8" d="M118.289 302.671a28.849 28.849 0 0011.061 2.274"/><path class="cls-7" d="M118.192 302.635l1.388.6 11.282-25.95v-.454h-1.512l-11.158 25.804z"/><path class="cls-8" d="M73.7 206.6a31.314 31.314 0 0111.061-2.268"/><path class="cls-7" d="M73.604 206.643l11.158 25.804 1.512-.001v-.452l-11.282-25.951-1.388.6z"/><path class="cls-8" d="M95.9 157.3a34.9 34.9 0 00-2.58 12.568"/><path class="cls-7" d="M95.935 157.208l-.6 1.388 29.481 12.883h.454l.078-1.512-29.413-12.759z"/><path class="cls-8" d="M174.456 172.525a37.843 37.843 0 012.58 12.561"/><path class="cls-7" d="M174.417 172.428l-29.272 12.658v1.512h.455l29.417-12.783-.6-1.387z"/><path class="cls-8" d="M317.45 249.8a31.334 31.334 0 01-2.267-11.06"/><path class="cls-7" d="M317.493 249.901l25.804-11.158-.001-1.512h-.453l-25.95 11.283.6 1.387z"/><path class="cls-8" d="M320.251 225.659a35.274 35.274 0 01-12.549 2.58"/><path class="cls-7" d="M320.36 225.618l-12.658-29.271h-1.512v.453l12.783 29.418 1.387-.6z"/><path class="cls-8" d="M293.631 265.855a30.959 30.959 0 0111.105-2.289"/><path class="cls-7" d="M293.541 265.9l11.155 25.819h1.512v-.453l-11.28-25.966-1.387.6z"/><path d="M.5 333.209h148.613V331.7h.453v-7.56h-10.013V306h0v-1.511h-8.691v.453h-1.512V306h0v18.14H.5v9.069zm201.7 0h-13.638V331.7h-.454v-7.56h14.1v-.94h9.144v10.014zM377.144 323.2h133.281v-27.589h23.05v37.6H377.144V323.2zM.5.5h28.15v21.161H.5V.5zm139.053 275.273h0v-47.61h-10.2v47.61h0v1.058h1.512v.454h8.691v-1.512zm237.591-91.442h133.281v-31.363h23.05v59.513h-23.05v-17.192H377.144v-10.958zm-237.591 9.824h-10.2V21.661H111.78V.5h54.79v21.161h-27.017v172.494zM436.364 21.661h-92.2V.5h92.2v21.161zM232.7.5h45.34v21.161H232.7z" stroke="#000" fill-rule="evenodd" stroke-linecap="round" stroke-linejoin="round"/><path class="cls-10" d="M1.57 21.66l-1.07.95M8.99 21.66L.5 29.14M10.7 26.7L.5 35.69M10.7 33.24L.5 42.22M10.7 39.77L.5 48.76M10.7 46.31L.5 55.3M10.7 52.86L.5 61.84M10.7 59.39L.5 68.38M10.7 65.93L.5 74.91M10.7 72.47L.5 81.45M10.7 79L.5 87.99M10.7 85.55L.5 94.53M10.7 92.08L.5 101.07M10.7 98.62L.5 107.6M10.7 105.16L.5 114.14M10.7 111.7L.5 120.69M10.7 118.24L.5 127.22M10.7 124.77L.5 133.76M10.7 131.31L.5 140.3M10.7 137.85L.5 146.83M10.7 144.39L.5 153.38M10.7 150.93L.5 159.91M10.7 157.47L.5 166.45M10.7 164L.5 172.99M11.35 169.97L.5 179.53M10.7 177.08L.5 186.07M18.78 169.97L15.34 173M10.7 183.62L.5 192.6M26.19 169.97L22.75 173M19.2 176.13l-3.02 2.66M10.7 190.16L.5 199.14M33.61 169.97L30.18 173M19.2 182.67l-3.02 2.66M10.7 196.7L.5 205.69M41.04 169.97L37.6 173M19.2 189.21l-3.02 2.66M10.7 203.24L.5 212.22M48.46 169.97L45.02 173M19.2 195.75l-3.02 2.66M10.7 209.77L.5 218.76M55.89 169.97L52.45 173M19.2 202.29l-3.02 2.66M10.7 216.31L.5 225.3M63.31 169.97L59.87 173M19.2 208.82l-3.02 2.66M10.7 222.85L.5 231.84M70.73 169.97L67.29 173M19.2 215.36l-3.02 2.66M10.7 229.39L.5 238.38M78.15 169.97L74.71 173M19.2 221.9l-3.02 2.66M10.7 235.93L.5 244.91M85.57 169.97L82.13 173M253.93 21.66l-1.21 1.07M19.2 228.44l-3.02 2.66M10.7 242.47L.5 251.45M87.79 174.56l-3.03 2.66M92.99 169.97L89.56 173M255.75 26.6l-3.03 2.66M19.2 234.98l-3.02 2.66M10.7 249L.5 257.99M87.79 181.09l-3.03 2.67M255.75 33.13l-3.03 2.67M19.2 241.52l-3.02 2.66M10.7 255.55L.5 264.53M87.79 187.64l-3.03 2.67M255.75 39.68l-3.03 2.67M19.2 248.06l-3.02 2.66M10.7 262.08L.5 271.07M87.79 194.17l-3.03 2.67M255.75 46.21l-3.03 2.67"/><path class="cls-11" d="M20.9 253.1l-1.7 1.5-3.02 2.66"/><path class="cls-10" d="M10.7 268.62L.5 277.6M28.32 253.1l-3.43 3.02M87.79 200.71l-3.03 2.67M255.75 52.75l-3.03 2.67M19.2 261.13l-3.02 2.66M10.7 275.16L.5 284.14M35.74 253.1l-3.43 3.02M129.35 170.63l-2.67 2.36M255.75 59.29l-3.03 2.67M19.2 267.67l-3.02 2.66M10.7 281.69L.5 290.68M43.16 253.1l-3.43 3.02M255.75 65.82l-3.03 2.67M19.2 274.21l-3.02 2.66M10.7 288.24L.5 297.22M50.59 253.1l-3.43 3.02M255.75 72.37l-3.03 2.67M19.2 280.75l-3.02 2.66M10.7 294.77L.5 303.76M58.01 253.1l-3.43 3.02M255.75 78.9l-3.03 2.67M19.2 287.29l-3.02 2.66M10.7 301.31L.5 310.3M65.43 253.1L62 256.12M87.79 233.4l-3.03 2.67M142.63 185.09l-3.08 2.72M255.75 85.44l-3.03 2.67M19.2 293.82l-3.02 2.67M10.7 307.85L.5 316.83M72.85 253.1l-3.43 3.02M255.75 91.98l-3.03 2.67M87.79 239.94l-3.03 2.67M19.2 300.36l-3.02 2.66M15.93 309.78l-3.43 3.02M10.7 314.39L.5 323.38M80.28 253.1l-3.43 3.02M255.75 98.52l-3.03 2.67M87.79 246.48l-3.03 2.67M19.2 306.9l-3.02 2.66M23.35 309.78l-3.42 3.02M255.75 105.06l-3.03 2.67M87.79 253.02l-3.52 3.1M10.7 320.93l-3.65 3.21M30.78 309.78l-3.43 3.02M255.75 111.6l-3.03 2.66M95.12 253.1l-3.43 3.02M38.2 309.78l-3.43 3.02M255.75 118.13l-3.03 2.67M179.74 185.09l-3.16 2.79M102.54 253.1l-3.43 3.02M41.5 313.41l-3.03 2.67M109.97 253.1l-3.43 3.02M255.75 124.68l-3.03 2.67M187.17 185.09l-3.43 3.02M45.63 309.78l-3.43 3.02M53.05 309.78l-3.43 3.02M194.59 185.09l-3.43 3.02M255.75 131.21l-3.03 2.67M117.39 253.1l-3.43 3.02M41.5 319.95l-3.03 2.67M60.46 309.78l-3.42 3.02M202.01 185.09l-3.43 3.02M255.75 137.75l-3.03 2.67M124.81 253.1l-3.43 3.02M67.89 309.78l-3.43 3.02M129.35 255.63l-.55.49M255.75 144.29l-3.03 2.67M209.43 185.09l-3.43 3.02M75.31 309.78l-3.43 3.02M255.75 150.82l-3.03 2.67M216.85 185.09l-3.43 3.02M82.73 309.78l-3.42 3.02M255.75 157.37l-3.03 2.67M224.28 185.09l-3.43 3.02M89.49 310.37l-3.03 2.67M255.75 163.91l-3.03 2.66M231.7 185.09l-3.43 3.02M89.49 316.9l-3.03 2.67M255.75 170.44l-3.03 2.67M239.12 185.09l-3.43 3.02M246.54 185.09l-3.43 3.02M255.75 176.98l-3.03 2.67M89.49 323.44l-.8.7M255.75 183.52l-5.21 4.59M203.92 235.72l-3.43 3.02M211.34 235.72l-3.43 3.02M218.76 235.72l-3.43 3.02M226.19 235.72l-3.43 3.02M222.31 239.14l-3.03 2.66M233.61 235.72l-3.43 3.02M222.31 245.67l-3.03 2.67M309.1 169.22l-4.42 3.89M307.7 176.99l-3.02 2.66M316.52 169.22l-3.43 3.02M222.31 252.21l-3.03 2.67M241.03 235.72l-3.43 3.02M307.7 183.52l-3.02 2.66M321.68 171.21l-3.02 2.66M222.31 258.74l-3.03 2.67M248.45 235.72l-3.43 3.02"/><path class="cls-11" d="M304.68 192.72l3.02-2.66 6.5-5.73"/><path class="cls-10" d="M321.68 177.74l-3.02 2.66M222.31 265.28l-3.03 2.67M255.87 235.72l-3.43 3.02M321.68 184.29l-12.49 11M222.31 271.83l-3.03 2.66M263.3 235.72l-3.43 3.02M329.05 184.33l-12.44 10.96M222.31 278.36l-3.03 2.67M270.71 235.72l-3.43 3.02M336.47 184.33l-12.44 10.96M222.31 284.9l-3.03 2.67M278.14 235.72l-3.43 3.02M343.89 184.33l-12.44 10.96M222.31 291.44l-3.03 2.67M285.56 235.72l-3.43 3.02M351.32 184.33l-12.44 10.96M222.31 297.98l-3.03 2.67M292.98 235.72l-3.43 3.02M358.73 184.33l-12.44 10.96M307.72 229.27l-3.03 2.66M222.31 304.51l-3.03 2.67M300.4 235.72l-3.43 3.02M366.16 184.33l-12.44 10.96M224.6 309.03l-5.32 4.69M307.82 235.72l-3.43 3.02M373.58 184.33l-12.44 10.96M315.24 235.72l-3.42 3.02M228.6 312.05l3.43-3.02M219.28 320.26l3.03-2.67M307.72 242.35l-3.03 2.67M215.95 323.19l-4.6 4.05M307.72 248.89l-3.02 2.66M236.02 312.05l3.43-3.02M212 333.21l11.38-10.02M377.14 187.73l-8.58 7.56M377.14 194.27l-1.15 1.02M230.8 323.19l-11.37 10.02M246.87 309.03l-3.42 3.02M307.72 255.43l-3.02 2.66M307.72 261.97l-1.91 1.68M238.22 323.19l-11.37 10.02M248 314.58l-3.02 2.66M254.29 309.03l-3.42 3.02M344.93 235.72l-1.71 1.51M248 321.11l-13.74 12.1M261.71 309.03l-3.43 3.02M269.13 309.03l-3.42 3.02M253.06 323.19l-11.37 10.02M352.35 235.72l-3.42 3.02M276.56 309.03l-3.43 3.02M260.48 323.19l-11.37 10.02M359.78 235.72l-3.43 3.02M283.98 309.03l-3.43 3.02M267.91 323.19l-11.38 10.02M367.2 235.72l-3.43 3.02M291.41 309.03l-3.43 3.02M275.33 323.19l-11.37 10.02M307.72 294.66l-3.02 2.66M374.2 236.09l-3.02 2.67M307.72 301.2l-3.02 2.66M282.75 323.19l-11.37 10.02M298.83 309.03l-3.43 3.02M374.2 242.63l-3.02 2.66M307.72 307.74l-4.9 4.31M290.18 323.19l-11.38 10.02M374.2 249.17l-3.02 2.66M307.72 314.27l-3.02 2.66M297.59 323.19l-11.37 10.02M374.2 255.7l-3.02 2.67M307.72 320.81l-14.08 12.4M374.2 262.24l-3.02 2.67M312.44 323.19l-11.37 10.02M374.2 268.78l-3.02 2.67M319.87 323.19l-11.38 10.02M374.2 275.32l-3.02 2.67M327.29 323.19l-11.38 10.02M374.2 281.86l-3.02 2.66M334.71 323.19l-11.37 10.02M374.2 288.4l-3.02 2.66M342.13 323.19l-11.38 10.02M374.2 294.93l-3.02 2.67M349.55 323.19l-11.37 10.02M374.2 301.47l-3.02 2.67M356.97 323.19l-11.37 10.02M374.2 308.01l-3.02 2.67M364.4 323.19l-11.38 10.02M374.2 314.55l-3.02 2.67M374.2 321.09l-13.75 12.12M377.14 325.04l-9.27 8.17M377.14 331.57l-1.86 1.64"/><path class="cls-8" d="M377.144 333.209V323.2h-2.939v-87.48h-31.362v1.511h.453v1.512h27.887V323.2h-63.464v-31.934h-1.511v.453H304.7v17.306h-82.395v-70.282H304.7v24.91h1.512v.454h1.511v-25.364h7.466v-1.512h.454v-1.511h-7.92v-7.423h-1.511v-.453H304.7v7.876H196.61v3.023h22.672V323.2h-7.935v10.014zM304.7 323.2H248v-11.152h56.7V323.2zm-59.72 0h-22.675v-11.152h22.671V323.2zM.5 21.661h10.2v148.311h82.66v1.512h.454v1.51h-6.03v31.792h-1.51v-.453h-1.511V173H19.2v136.781h70.285v14.359h-3.022V312.8H41.5v11.34h-3.026V312.8H10.7v11.34H.5V21.661zM10.7 173v136.781h5.48V173zm366.442 22.294v-10.963h-55.459v-15.114h-17V196.8h1.511v-.453h1.506v-24.108h10.96v12.092H307.7v10.958zM125.27 169.967v1.512h-.454v1.511h4.534v-3.023zm127.453 15.119V21.661h3.023v166.448h-79.164V186.6h.455v-1.512zM129.35 256.125H19.2V253.1h65.563v-20.654h1.511v-.452h1.512V253.1h41.564v3.023zm10.2-71.039v3.023h6.05V186.6h-.455v-1.512z"/></svg>