<svg version="1.1" id="_x31_00_1_" xmlns="http://www.w3.org/2000/svg" x="0" y="0" viewBox="0 0 533.976 464.624" xml:space="preserve"><style>.st0,.st1{fill-rule:evenodd;clip-rule:evenodd}.st0{fill:#fff}.st1{stroke:#999;stroke-width:.4}.st1,.st2,.st5{fill:none;stroke-linecap:round;stroke-linejoin:round;stroke-miterlimit:3}.st2{fill-rule:evenodd;clip-rule:evenodd;stroke:#999}.st5{stroke:#020203}.st5,.st6,.st7,.st8{fill-rule:evenodd;clip-rule:evenodd}.st6{stroke:#020203;stroke-miterlimit:22.9256;fill:none}.st7,.st8{fill:#020203}.st8{fill:none;stroke:#666;stroke-width:.6;stroke-miterlimit:22.9256}.st9{fill:#050008}</style><path class="st0" d="M533.469 193.361h-43.625V.5H.5v332.736h200.594v130.888h288.75V314.486h43.625z"/><g id="mebel"><path class="st1" d="M265.2 319.605l3.205-3.206m-10.153 3.206l10.153-10.153M258.903 312.007l9.502-9.502m-24.046 17.1l2.794-2.794m12.042-12.043l9.21-9.21m-30.993 24.047l9.077-9.077m10.424-10.424l11.492-11.493m-37.941 30.994l16.274-16.274m4.71-4.71l16.957-16.957m-43.832 36.886l43.832-43.832m-43.832 36.885l43.832-43.832m-43.832 36.885l13.012-13.012m3.236-3.236l27.584-27.584m-43.832 36.885l6.065-6.065m10.183-10.183l27.584-27.584m-27.584 20.637l27.584-27.584m-27.584 20.637l25.046-25.045m-25.84 18.893l18.893-18.893m-25.841 18.893l18.893-18.893m-25.84 18.893l18.894-18.893m-20.453 13.506l13.506-13.506m-13.506 6.558l6.559-6.558m37.273 3.74l-3.74-3.74m3.74 10.687l-10.688-10.687m10.688 17.634l-17.634-17.634m17.634 24.581l-24.581-24.581m24.581 31.528l-31.528-31.528m31.528 38.475l-38.475-38.475m38.475 45.422l-43.832-43.832m43.832 50.778l-27.584-27.584m-5.891-5.891l-10.357-10.357m43.832 50.779l-27.584-27.584m-12.838-12.838l-3.41-3.41m43.832 50.78L240.821 281.2m27.584 34.531l-9.035-9.035m-8.057-8.058l-10.492-10.492m24.511 31.459l-6.54-6.54m-11.364-11.364l-10.057-10.057m21.014 27.961l-.256-.256m-11.925-11.925l-15.78-15.78M246.977 315.143l-22.403-22.403m19.917 26.865l-19.918-19.918m12.971 19.918l-12.971-12.971m6.024 12.971l-6.024-6.024M313.819 437.711l1.441-1.441m-8.388 1.441l8.388-8.388m-15.335 8.388l15.335-15.335m-22.281 15.335l22.281-22.281m-39.809 32.861l1.646-1.646m8.934-8.934l29.229-29.228m-46.755 39.808l8.592-8.592m1.988-1.988l36.176-36.175m-52.766 45.817l52.765-52.764m-51.945 44.998l50.644-50.644m-66.296 59.348l3.69-3.69m11.937-11.937l43.721-43.72m-66.294 59.347l9.973-9.973m9.954-9.954l39.422-39.421m-61.89 54.943l13.59-13.59m2.409-2.409l38.943-38.944m-54.942 47.995l47.995-47.995m-47.995 41.048l41.048-41.047m-41.048 34.1l34.101-34.1m-34.101 27.153l27.153-27.153m-27.153 20.206l20.207-20.206m-20.207 13.26l13.26-13.26m-13.26 6.313l6.313-6.313m70.771 1.43l-1.431-1.43m1.431 8.377l-8.378-8.377m8.378 15.324l-15.324-15.324m15.324 22.271l-22.271-22.271m22.271 29.217l-29.219-29.217m29.219 36.165l-36.165-36.165m36.165 43.111l-43.112-43.111m41.821 48.767l-48.768-48.767m41.82 48.767l-48.768-48.767m56.936 63.882l-.145-.145m-14.969-14.97l-48.767-48.767m41.82 48.767l-48.768-48.767m41.821 48.767l-48.004-48.004m41.057 48.004l-41.058-41.057m38.921 45.866l-38.921-38.92m38.921 45.868l-1.134-1.135m-.042-.042l-12.278-12.278m-8.516-8.516l-16.951-16.951m30.799 37.745l-5.951-5.95m-11.507-11.507l-13.34-13.34m12.352 19.299l-12.352-12.352m13.172 20.119l-13.172-13.172m9.956 16.903l-9.956-9.956m3.01 9.956l-3.01-3.01M128.595 314.882h.756M10.703 303.546h91.064m26.828 0h.756M10.703 292.21h91.064m26.828 0h.756M10.703 280.874h4.534m20.894 0h65.636m26.828 0h.756M10.703 269.538h91.064m26.828 0h.756m-36.652 35.709v-44.966m-22.672 44.966v-44.966m-22.672 44.966v-44.966m-22.672 44.966v-16.348m0-12.648v-15.97"/><path class="st2" d="M154.754 21.66v106.237m0 0h-15.199m0 0V21.66m0 0h15.199M153.998 21.66v106.237M154.754 74.779h-.756M154.754 21.66h-.756M224.573 261.981v29.095m0 0l.166.402m0 0l.401.166m0 0h15.115m0 0l.4-.166m0 0l.166-.402m0 0v-29.095m0 0l-.166-.401m0 0l-.4-.165m0 0H225.14m0 0l-.401.165m0 0l-.166.401M228.729 263.115v12.961m0 .906v12.961M229.297 290.51h9.824M239.687 289.943v-26.828M239.121 262.548h-9.824M229.297 290.51a.567.567 0 01-.567-.567M239.687 289.943a.567.567 0 01-.566.567M239.121 262.548c.312 0 .566.254.566.567M228.729 263.115c0-.313.254-.567.567-.567M232.631 276.982a.755.755 0 01-1.208 0h1.208zm-1.209-.906a.757.757 0 011.21 0h-1.21zM225.102 276.983v-.907m0 0h7.748m0 0l.301.256m0 0v.395m0 0l-.301.256m0 0h-7.748M225.102 275.773v1.511m0 0h-.265m0 0v-1.511m0 0h.265M224.838 275.395v2.267m0 0h-.265m0 0v-2.267m0 0h.265M226.463 273.26h-1.625m0 0v.094m0 .001h-.132m0 0v.284m0 0h-.133m0 0v-1.889m0 0h.133m0 0v.283m0 0h.132m0 0v.095m0-.001h1.625m0 0v.321m0 .001h.415m0 0v-1.077m0-.001h.491m0 0v2.645m0 .001h-.491m0 0v-1.077m0 0h-.415m0 0v.321M226.463 279.798h-1.625m0 0v-.094m0 0h-.132m0 0v-.284m0 0h-.133m0 0v1.889m0 0h.133m0 0v-.283m0 0h.132m0 0v-.095m0-.001h1.625m0 0v-.321m0 .001h.415m0 0v1.077m0-.001h.491m0 0v-2.645m0 .001h-.491m0 0v1.077m0 0h-.415m0 0v-.321M226.878 272.449l.072.071M226.878 272.94l.072-.072M226.463 272.449v.491M224.838 272.127v1.133M224.706 273.355v-1.322M226.878 280.61l.072-.072M226.878 280.119l.072.072M226.463 280.61v-.491M224.838 280.931v-1.133M224.706 279.703v1.322M227.369 272.694a.245.245 0 11-.491 0 .246.246 0 01.491 0zM227.369 280.364a.245.245 0 11-.491 0 .246.246 0 11.491 0zM259.176 304.613l-.469-1.645m0 0l-.718-1.551m0 .001l-.967-1.23m0 0l-1.248-.943m0 0l-1.449-.594m0-.001l-1.55-.205m0 0l-1.551.205m0 0l-1.448.594m0 .001l-1.248.943m0 0l-.968 1.23m0 0l-.718 1.551m0-.001l-.47 1.645m0 0l-.207 1.698m0 .001l.06 1.709m0 0l1.222 11.585m0-.001h10.655m0 0l1.222-11.585m0 .001l.06-1.709m0 0l-.208-1.698M248.658 313.884h4.116M252.774 313.884h4.116M249.711 299.617a5.743 5.743 0 013.063-.887M246.463 306.447c-.165-2.591 1.031-5.106 3.248-6.829M248.658 313.884c-1.506-2.253-2.266-4.828-2.195-7.437M259.086 306.447c.07 2.609-.689 5.184-2.195 7.437M255.838 299.617c2.217 1.723 3.413 4.238 3.248 6.83M252.774 298.731a5.738 5.738 0 013.063.887M248.127 319.605h9.295m0 0v-.188m0 0h-9.295m0 0v.188M262.22 319.605h-18.892M262.22 324.14h-18.892M262.22 319.605v4.535M243.328 319.605v4.535M211.348 388.944v63.882m0 0h26.829m0 0v-63.882m0 0h-26.829M236.03 396.396l-.081-.924m0 0l-.242-.897m0 0l-.396-.841m0 0l-.536-.76m0 0l-.662-.656m0 0l-.766-.532m0 0l-.847-.392m0 0l-.904-.241m0 0l-.932-.081m0 0H218.86m0 0l-.932.081m0 0l-.903.241m0 0l-.848.392m0 0l-.766.532m0 0l-.661.656m0 0l-.537.76m0 0l-.395.841m0 0l-.242.897m0 0l-.082.924m0 0v43.121m0 0l.172 1.941m0 0l.508 1.882m0 0l.83 1.766m0 0l1.127 1.597m0 0l1.388 1.378m0 0l1.61 1.117m0 0l1.779.823m0 0l1.897.505m0 0l1.957.17m0 0l1.956-.17m0 0l1.898-.505m0 0l1.78-.823m0 0l1.609-1.117m0 0l1.389-1.378m0 0l1.126-1.597m0 0l.83-1.766m0 0l.509-1.882m0 0l.171-1.941m0 0v-43.121M225.707 398.012a.945.945 0 11-1.89 0 .945.945 0 011.89 0zM277.663 452.826h37.03m0 0l.402-.167m0 0l.166-.4m0 0v-13.981m0 0l-.166-.401m0 0l-.402-.166m0 0h-37.03m0 0l-.4.166m0 0l-.166.401m0 0v13.981m0 0l.166.4m0 0l.4.167M278.797 448.669h16.927m.908 0h16.928M314.127 448.102v-8.691M313.56 438.845h-34.764M278.229 439.411v8.691M314.127 448.102a.567.567 0 01-.566.567M313.56 438.845c.312 0 .566.253.566.566M278.229 439.411c0-.313.255-.566.567-.566M278.797 448.669a.568.568 0 01-.567-.567M296.934 445.681a.755.755 0 01-.302.604v-1.208a.752.752 0 01.302.604zm-1.21.604a.755.755 0 010-1.208v1.208zM296.632 452.297h-.907m0 0v-7.749m0 0l.257-.3m0 0h.394m0 0l.256.3m0 0v7.749M295.423 452.297h1.512m0 0v.265m0 0h-1.512m0 0v-.265M295.045 452.561h2.268m0 0v.265m0 0h-2.268m0 0v-.265M292.91 450.937v1.625m0 0h.094m0 0v.132m0 0h.284m0 0v.132m0 0h-1.89m0 0v-.132m0 0h.283m0 0v-.132m0 0h.095m0 0v-1.625m0 0h.322m0 0v-.416m0 0h-1.078m0 0v-.491m0 0h2.646m0 0v.491m0 0h-1.077m0 0v.416m0 0h.321M299.447 450.937v1.625m0 0h-.095m0 0v.132m0 0h-.283m0 0v.132m0 0h1.889m0 0v-.132m0 0h-.283m0 0v-.132m0 0h-.095m0 0v-1.625m0 0h-.321m0 0v-.416m0 0h1.077m0 0v-.491m0 0h-2.645m0 0v.491m0 0h1.076m0 0v.416m0 0h-.32M292.098 450.521l.072-.072M292.589 450.521l-.072-.072M292.098 450.937h.491M291.776 452.561h1.134M293.004 452.694h-1.322M300.26 450.521l-.072-.072M299.768 450.521l.072-.072M300.26 450.937h-.492M300.58 452.561h-1.133M299.352 452.694h1.322M292.589 450.275a.246.246 0 11-.49 0 .246.246 0 01.49 0zM300.26 450.275a.246.246 0 11-.493 0 .246.246 0 01.493 0zM263.472 433.299l-.469-1.645m0 .001l-.718-1.552m-.001 0l-.967-1.229m.001-.001l-1.249-.943m0 0l-1.448-.594m-.001 0l-1.551-.205m.001.001l-1.551.205m-.001-.001l-1.447.594m.001 0l-1.249.943m-.001 0l-.967 1.229m.001.001l-.719 1.552m0 0l-.469 1.645m0-.001l-.208 1.698m-.001 0l.06 1.709m.001 0l1.223 11.585m-.001.001h10.654m0 0l1.223-11.585m.001-.001l.059-1.709m0 0l-.207-1.698M252.953 442.57h4.116M257.069 442.57h4.117M254.006 428.303a5.747 5.747 0 013.063-.886M250.758 435.133c-.165-2.592 1.031-5.107 3.248-6.83M252.953 442.57c-1.506-2.253-2.266-4.828-2.195-7.437M263.382 435.133c.069 2.609-.69 5.185-2.195 7.437M260.133 428.303c2.218 1.723 3.414 4.238 3.249 6.83M257.069 427.417a5.737 5.737 0 013.063.886M252.422 448.291h9.296m0 0v-.189m0 0h-9.296m0 0v.189M266.516 448.291h-18.893M266.516 452.826h-18.893M266.516 448.291v4.535M247.623 448.291v4.535M128.597 324.14v-63.859m0 0h-26.828m-.001 0v63.859m0 0h26.828M103.914 316.69l.082.924m0 0l.242.896m0 0l.395.841m0 0l.537.759m0 0l.661.656m0 0l.767.532m0 0l.846.392m0 0l.904.241m0 0l.932.08m0 0h11.804m0 0l.933-.08m0 0l.903-.241m0 0l.848-.392m0 0l.765-.532m0 0l.661-.656m0 0l.537-.759m0 0l.396-.841m0 0l.241-.896m0 0l.082-.924m0 0v-43.104m0 0l-.172-1.941m0 0l-.508-1.882m0 0l-.83-1.765m0 0l-1.126-1.596m0 0l-1.389-1.378m0-.001l-1.609-1.117m0 .001l-1.78-.823m0 0l-1.897-.504m0 0l-1.956-.17m0 0l-1.957.17m0 0l-1.898.504m0 0l-1.779.823m0 0l-1.61 1.117m0-.001l-1.388 1.378m0 .001l-1.127 1.596m0 0l-.83 1.765m0 0l-.508 1.882m0 0l-.172 1.941m0 0v43.104M116.127 315.071a.945.945 0 11-1.89 0 .945.945 0 011.89 0zM30.228 288.977l1.646-.469m0 0l1.551-.718m0 0l1.23-.968m0 0l.943-1.248m0 0l.594-1.448m0 0l.205-1.551m0 0l-.205-1.551m0 0l-.594-1.447m0 0l-.943-1.249m0 0l-1.23-.967m0 0l-1.551-.719m0 0l-1.646-.469m0 0l-1.697-.207m0 0l-1.709.059m0 0l-11.585 1.223m0 0v10.654m0 0l11.585 1.223m0 0l1.709.06m0 0l1.697-.208M20.959 278.458v4.117M20.959 282.575v4.117M35.225 279.511c.57.889.881 1.961.887 3.063M28.396 276.263c2.591-.165 5.106 1.031 6.829 3.249M20.959 278.458c2.253-1.505 4.827-2.266 7.437-2.195M28.396 288.886c-2.61.07-5.185-.689-7.437-2.195M35.225 285.638c-1.723 2.217-4.238 3.413-6.829 3.248M36.112 282.574a5.744 5.744 0 01-.887 3.064M15.237 277.927v9.296m0 0h.189m0 0v-9.296m0 0h-.189M15.237 292.022v-18.894M10.703 292.022v-18.894M15.237 292.022h-4.534M15.237 273.128h-4.534M303.786 74.556h-28.39M274.263 73.423V45.032M275.396 43.899h28.39M304.92 45.032v28.391M314.315 34.503h-38.919M274.263 35.636v7.129M275.396 43.899h29.523M304.92 43.899v29.524M306.054 74.556h7.128M314.315 73.423v-38.92M275.396 39.793h33.629M309.025 39.793v33.63M274.263 32.991h41.563M315.827 32.991v41.565M274.263 32.991v2.645M313.181 74.556h2.647M306.054 74.556h-2.268M274.263 42.765v2.267M304.92 43.899l9.396-9.396M275.396 74.556a1.133 1.133 0 01-1.134-1.133M274.263 45.032c0-.626.507-1.134 1.134-1.134M303.786 43.899c.626 0 1.134.508 1.134 1.134M304.92 73.423c0 .626-.508 1.133-1.134 1.133M274.263 35.636c0-.626.507-1.133 1.134-1.133M275.396 43.899a1.133 1.133 0 01-1.134-1.133M306.054 74.556a1.134 1.134 0 01-1.134-1.133M314.315 73.423c0 .626-.507 1.133-1.134 1.133M275.396 39.793a1.134 1.134 0 01-1.134-1.134M310.159 74.556a1.134 1.134 0 01-1.134-1.133M236.476 32.991h37.787M236.476 32.991v2.645M274.263 32.991v2.645M236.476 42.765v2.267M274.263 42.765v2.267M273.129 74.556h-35.52M236.476 73.423V45.032M237.609 43.899h35.52M274.263 45.032v28.391M273.129 34.503h-35.52M236.476 35.636v7.129M237.609 43.899h35.52M274.263 42.765v-7.129M237.609 39.793h35.52M237.609 74.556a1.133 1.133 0 01-1.133-1.133M236.476 45.032c0-.626.507-1.134 1.133-1.134M273.129 43.899c.626 0 1.134.508 1.134 1.134M274.263 73.423c0 .626-.508 1.133-1.134 1.133M236.476 35.636c0-.626.507-1.133 1.133-1.133M237.609 43.899a1.133 1.133 0 01-1.133-1.133M274.263 42.765c0 .626-.508 1.133-1.134 1.133M273.129 34.503c.626 0 1.134.507 1.134 1.133M237.609 39.793a1.134 1.134 0 01-1.133-1.134M274.263 38.66c0 .626-.508 1.134-1.134 1.134M203.602 74.556h-4.157M198.689 73.801V33.747M199.445 32.991h4.157M204.357 33.747v40.054M203.602 32.991h32.874M236.476 32.991v2.645M236.476 42.765v2.267M235.343 74.556h-29.852M204.357 73.423V45.032M205.491 43.899h29.852M236.476 45.032v28.391M235.343 34.503h-29.852M204.357 35.636v7.129M205.491 43.899h29.852M236.476 42.765v-7.129M205.491 39.793h29.852M199.445 74.556a.756.756 0 01-.756-.755M198.689 33.747c0-.417.339-.756.756-.756M203.602 32.991c.417 0 .755.338.755.756M204.357 73.801a.755.755 0 01-.755.755M205.491 74.556a1.134 1.134 0 01-1.134-1.133M204.357 45.032c0-.626.508-1.134 1.134-1.134M235.343 43.899c.626 0 1.134.508 1.134 1.134M236.476 73.423c0 .626-.508 1.133-1.134 1.133M204.357 35.636c0-.626.508-1.133 1.134-1.133M205.491 43.899a1.134 1.134 0 01-1.134-1.133M236.476 42.765c0 .626-.508 1.133-1.134 1.133M235.343 34.503c.626 0 1.134.507 1.134 1.133M205.491 39.793a1.134 1.134 0 01-1.134-1.134M236.476 38.66c0 .626-.508 1.134-1.134 1.134M274.263 107.43v4.156M275.019 112.342h40.053M315.827 111.586v-4.155M315.071 106.675h-40.053M315.827 107.43V74.556M315.827 74.556h-2.646M306.054 74.556h-2.268M274.263 75.69v29.851M275.396 106.675h28.39M304.92 105.541V75.69M303.786 74.556h-28.39M314.315 75.69v29.851M313.181 106.675h-7.128M304.92 105.541V75.69M306.054 74.556h7.128M309.025 105.541V75.69M275.019 112.342a.755.755 0 01-.756-.756M315.827 111.586a.756.756 0 01-.756.756M315.071 106.675c.418 0 .756.338.756.756M274.263 107.43c0-.417.338-.756.756-.756M275.396 106.675a1.133 1.133 0 01-1.134-1.133M304.92 105.541c0 .626-.508 1.133-1.134 1.133M303.786 74.556c.626 0 1.134.507 1.134 1.134M274.263 75.69c0-.626.507-1.134 1.134-1.134M314.315 105.541c0 .626-.507 1.133-1.134 1.133M306.054 106.675a1.134 1.134 0 01-1.134-1.133M304.92 75.69c0-.626.508-1.134 1.134-1.134M313.181 74.556c.627 0 1.134.507 1.134 1.134M310.159 106.675a1.134 1.134 0 01-1.134-1.133M309.025 75.69c0-.626.508-1.134 1.134-1.134M33.185 305.247H15.237m0 0v5.29m0 0h17.948m0 0v-5.29M268.405 319.605h-43.832m0 0v4.535m0 0h43.832m0 0v-4.535M101.768 305.247H33.185M101.768 324.14H33.185M33.185 305.247v18.893M101.768 305.247v18.893M93.313 308.458H75.931M75.931 308.458v12.47M75.931 320.928h8.237m.909 0h8.237M93.313 320.928v-12.47M59.022 308.458H41.64M41.64 308.458v12.47M41.64 320.928h8.237m.909 0h8.237M59.022 320.928v-12.47M85.756 318.135c0 .464-.279.863-.679 1.038v-2.077c.4.176.679.575.679 1.039zm-1.587 1.039a1.135 1.135 0 010-2.078v2.078zM51.465 318.135c0 .464-.279.863-.679 1.038v-2.077c.4.176.679.575.679 1.039zm-1.587 1.039a1.135 1.135 0 010-2.078v2.078zM84.169 323.611h.907m0 0v-7.748m0 0l-.256-.301m0 0h-.395m0 0l-.256.301m0 0v7.748M85.378 323.611h-1.511m0 0v.265m0 0h1.511m0 0v-.265M85.756 323.875h-2.267m0 0v.265m0 0h2.267m0 0v-.265M87.891 322.25v1.625m0 0h-.094m-.001 0v.132m0 0h-.283m.001 0v.133m0 0h1.889m0 0v-.133m0 0h-.283m-.001 0v-.132m0 0h-.095m0 0v-1.625m0 0h-.322m0 0v-.416m0 0h1.078m0 0v-.491m0 0h-2.645m0 0v.491m0 0h1.076m0 0v.416m0 0h-.321M81.354 322.25v1.625m0 0h.094m0 0v.132m0 0h.284m0 0v.133m0 0h-1.89m0 0v-.133m0 0h.283m0 0v-.132m0 0h.095m0 0v-1.625m0 0h.322m0 0v-.416m0 0h-1.078m0 0v-.491m0 0h2.645m0 0v.491m0 0h-1.076m0 0v.416m0 0h.321M49.878 323.611h.907m0 0v-7.748m0 0l-.256-.301m0 0h-.395m0 0l-.256.301m0 0v7.748M51.087 323.611h-1.511m0 0v.265m0 0h1.511m0 0v-.265M51.465 323.875h-2.267m0 0v.265m0 0h2.267m0 0v-.265M53.6 322.25v1.625m0 0h-.094m-.001 0v.132m0 0h-.283m.001 0v.133m0 0h1.889m0 0v-.133m0 0h-.283m-.001 0v-.132m0 0h-.095m0 0v-1.625m0 0h-.322m0 0v-.416m0 0h1.078m0 0v-.491m0 0h-2.646m.001 0v.491m0 0h1.077m-.001 0v.416m0 0h-.32M47.062 322.25v1.625m0 0h.095m0 0v.132m0 0h.283m0 0v.133m0 0h-1.889m0 0v-.133m0 0h.283m0 0v-.132m0 0h.095m0 0v-1.625m0 0h.321m0 0v-.416m0 0h-1.077m0 0v-.491m0 0h2.645m0 0v.491m0 0h-1.077m0 0v.416m0 0h.321M88.703 321.835l-.071-.072M88.212 321.835l.072-.072M88.703 322.25h-.491M89.024 323.875H87.89M87.797 324.007h1.322M80.542 321.835l.071-.072M81.033 321.835l-.072-.072M80.542 322.25h.491M80.221 323.875h1.133M81.448 324.007h-1.322M54.412 321.835l-.071-.072M53.921 321.835l.072-.072M54.412 322.25h-.491M54.733 323.875h-1.134M53.506 324.007h1.322M46.25 321.835l.072-.072M46.741 321.835l-.071-.072M46.25 322.25h.491M45.93 323.875h1.133M47.157 324.007h-1.322M88.703 321.589a.245.245 0 11-.491 0 .246.246 0 11.491 0zM81.033 321.589a.246.246 0 11-.492 0 .246.246 0 01.492 0zM54.412 321.589a.245.245 0 11-.491 0 .246.246 0 11.491 0zM46.741 321.589a.245.245 0 11-.491 0 .246.246 0 11.491 0zM370.995 165.609h-19.271m0 0l-.534.221m0 0l-.221.534m0 0v17.382m0-.001l.221.535m0 .001l.534.221m0-.001h19.271m0 0l.534-.221m0 .001l.222-.535m0-.001v-17.382m0 .001l-.222-.534m0 0l-.534-.221M378.363 162.019h-34.008M378.363 186.202h-34.008M378.363 162.019v24.183M344.355 162.019v24.183M369.106 167.498h-15.493M352.857 168.253v11.714M353.613 180.723h7.001M362.103 180.723h7.003M369.861 179.967v-11.714M369.106 167.498h.108a.108.108 0 10-.216 0 .108.108 0 00.216 0h-.108zM352.857 168.253c0-.417.339-.755.756-.755M353.613 180.723a.756.756 0 01-.756-.756M369.861 179.967a.756.756 0 01-.755.756M369.106 167.498c.417 0 .755.338.755.755M361.7 175.89l-.101-.24m0 0l-.24-.099m0 0l-.24.1m0 0l-.1.241m0 0v7.476m0 0l.1.24m0 0l.24.099m0 .001l.241-.099m0-.001l.1-.24m0 0v-7.478M362.114 181.441h-.414m0 0v1.927m0 0l-.1.241m0 0l-.241.099m0 0l-.24-.099m0 0l-.1-.241m0 0v-1.927m0 0h-.414m0 0v2.456m0-.001h1.509m0 0v-2.456M362.103 180.08h-.403m0 0v1.323m0 0h.403m0 0v-1.323M360.615 180.08v1.323m0 0h.404m0 0v-1.323m0 0h-.404M401.035 162.019h-22.672M401.035 186.202h-22.672M401.035 162.019v24.183M378.363 162.019v24.183M401.035 162.019h9.638m0 0v24.183m0 0h-9.638m0 0v-24.183M438.635 164.853h-21.916m0 0v18.515m0 0h21.916m0 0v-18.515M427.677 176.133v5.299M427.677 181.431h-1.096M427.677 176.133h-1.096M418.822 176.133v5.299M419.918 181.431h-1.096M419.918 176.133h-1.096M436.662 178.998a2.74 2.74 0 11-5.479 0 2.74 2.74 0 015.479 0zM436.619 170.759a3.968 3.968 0 11-7.936 0 3.968 3.968 0 017.936 0z"/><path class="st2" d="M434.919 170.759a2.268 2.268 0 11-4.536-.002 2.268 2.268 0 014.536.002z"/><circle class="st2" cx="423.249" cy="178.813" r="2.645"/><path class="st2" d="M425.532 170.222a3.4 3.4 0 11-6.801 0 3.4 3.4 0 016.801 0zM444.681 162.019h-34.008M444.681 186.202h-34.008M444.681 162.019v24.183M410.673 162.019v24.183M344.355 162.019h-22.672m0 0v24.183m0 0h22.672m0 0v-24.183M333.02 177.889v-7.558M335.692 176.782l-5.344-5.343M336.799 174.111h-7.558M335.692 171.439l-5.344 5.343M444.681 162.019h22.294m0 0v24.183m0 0h-22.294m0 0v-24.183M229.863 373.073a7.179 7.179 0 11-14.358 0 7.179 7.179 0 0114.358 0zM396.265 172.923a3.41 3.41 0 11-6.822 0 3.41 3.41 0 016.822 0z"/><path class="st2" d="M395.744 172.923a2.89 2.89 0 11-5.78 0 2.891 2.891 0 115.78 0zM389.125 172.091a2.579 2.579 0 11-5.158 0 2.579 2.579 0 115.158 0z"/><path class="st2" d="M387.991 172.091a1.445 1.445 0 11-2.89 0 1.445 1.445 0 012.89 0zM22.983 44.71a3.778 3.778 0 11-7.557 0 3.778 3.778 0 017.557 0z"/><path class="st2" d="M20.339 44.71a1.134 1.134 0 11-2.269 0 1.134 1.134 0 012.269 0zM22.983 133.508a3.778 3.778 0 11-7.557 0 3.778 3.778 0 017.557 0z"/><path class="st2" d="M20.339 133.508a1.134 1.134 0 11-2.269 0 1.134 1.134 0 012.269 0zM364.572 205.726a3.78 3.78 0 11-7.558 0 3.78 3.78 0 017.558 0z"/><path class="st2" d="M361.927 205.726a1.134 1.134 0 11-2.267-.001 1.134 1.134 0 012.267.001zM453.369 205.726a3.778 3.778 0 11-7.557.001 3.778 3.778 0 017.557-.001z"/><path class="st2" d="M450.724 205.726a1.134 1.134 0 11-2.267-.001 1.134 1.134 0 012.267.001zM364.884 444.324a3.78 3.78 0 11-7.558-.002 3.78 3.78 0 017.558.002z"/><path class="st2" d="M362.238 444.324a1.134 1.134 0 11-2.268-.002 1.134 1.134 0 012.268.002zM453.681 444.324a3.778 3.778 0 11-7.557 0 3.778 3.778 0 017.557 0z"/><path class="st2" d="M451.036 444.324a1.134 1.134 0 11-2.267-.001 1.134 1.134 0 012.267.001zM439.199 274.686h-68.015m0 0v-75.573m0 0h68.015m0 0v75.573M437.31 276.575h-64.237m0 0l-.723-.144m0 0l-.612-.409m0 0l-.41-.613m0 0l-.144-.723m0 0h68.015m0 0l-.144.723m0 0l-.409.613m0 0l-.613.409m0 0l-.723.144M439.199 195.335h-68.015m0 0v3.778m0 0h68.015m0 0v-3.778M371.184 195.335H439.2m0 0v1.889m0 0h-68.015m-.001 0v-1.889M369.295 195.335h-17.004m0 0v18.893m0 0h17.004m0 0v-18.893M441.089 195.335h17.004m0 0v18.893m0 0h-17.004m0 0v-18.893M399.146 201.003h-25.695m0 0l-.267.11m0 0l-.111.268m0 0v12.469m0 0l.111.267m0 0l.267.111m0 0h25.695m0 0l.267-.111m0 0l.111-.267m0 0v-12.469m0 0l-.111-.268m0 0l-.267-.11M411.238 201.003h25.694m0 0l.267.11m0 0l.111.268m0 0v12.469m0 0l-.111.267m0 0l-.267.111m0 0h-25.694m0 0l-.268-.111m0 0l-.111-.267m0 0v-12.469m0 0l.111-.268m0 0l.268-.11M439.199 213.205h-1.889M410.859 213.205h-11.335M373.073 213.205h-1.889M439.199 218.214h-68.015m0 0V236.9m0 0l68.015-14.908m0 0v-3.778M318.283 195.335h22.672m0 0v77.651m0 0h-22.672m0 0v-77.651M329.997 272.986h-.756m0 0v-77.651m0 0h.756m0 0v77.651M320.276 202.772h18.626m0 0v.755m0 0h-18.626m0 0v-.755M320.276 204.777h18.626m0 0v.756m0 0h-18.626m0 0v-.756M320.276 206.781h18.626m0 0v.756m0 .001h-18.626m0 0v-.756M320.276 208.786h18.626m0 0v.756m0 0h-18.626m0 0v-.756M320.412 213.032l18.49-2.241m0-.001l.091.75m0 .001l-18.49 2.241m0-.001l-.091-.75M145.809 103.554h-1.02m.001 0v-44.37m0 0h1.02m-.001 0v44.37M144.79 102.15l-3.41.709m0 .001l.141.68m0-.001l3.269-.68m0 .001v-.709M144.79 93.853h-.833m0 0l-.566-.152m0 0l-.415-.414m0 0l-.152-.568m0 0V70.02m0 0l.152-.566m0 0l.415-.415m0 0l.566-.152m0 0h.833m0 0v24.966M146.167 102.15l3.41.709m0 .001l-.141.68m0-.001l-3.269-.68m0 .001v-.709M144.79 60.589l-3.41-.709m0 0l.141-.68m0 0l3.269.68m0 0v.709M146.107 60.589l3.41-.709m0 0l-.141-.68m0 0l-3.269.68m0 0v.709M146.107 103.554h-.298m0 0v-44.37m0 0h.298m0 0v44.37M90.054 55.101v68.016m0 0H14.481m0 0V55.101m0 0h75.572M91.943 56.991v64.237m0-.001l-.144.723m0 .001l-.409.613m0 0l-.613.409m0-.001l-.724.144m0 0V55.102m0 0l.724.144m0 0l.613.409m0-.001l.409.613m0 .001l.144.723M10.703 55.101v68.016m0 0h3.778m0 0V55.101m0 0h-3.778M10.703 123.117V55.101m0 0h1.89m0 0v68.016m0 0h-1.89M10.703 125.006v17.004m0 0h18.894m0 0v-17.004m0 0H10.703M10.703 53.212V36.208m0 0h18.894m0 0v17.004m0 0H10.703M16.371 95.155v25.695m0 0l.11.267m0 0l.268.111m0-.001h12.47m0 0l.266-.111m0 .001l.112-.267m0 0V95.155m0 0l-.112-.267m0-.001l-.266-.111m0 0h-12.47m0 0l-.268.111m0 0l-.11.267M16.371 83.063V57.368m0 0l.11-.267m0 0l.268-.111m0 0h12.47m0 0l.266.111m0 0l.112.267m0 0v25.695m0 0l-.112.267m0 0l-.266.111m0 0h-12.47m0 0l-.268-.111m0 0l-.11-.267M28.572 55.101v1.889M28.572 83.441v11.335M28.572 121.228v1.889M33.582 55.101v68.016m0 0h18.687m0 0L37.36 55.101m0 0h-3.778M198.879 242.522h22.672m0 0v81.618m0 0h-22.672m0 0v-81.618M210.593 324.14h-.756m0 0v-81.618m0 0h.756m0 0v81.618M200.871 249.958h18.627m0 0v.756m0 0h-18.627m0 0v-.756M200.871 251.963h18.627m0 0v.756m0 0h-18.627m0 0v-.756M200.871 253.968h18.627m0 0v.755m0-.001h-18.627m0 0v-.755M200.871 255.972h18.627m0 0v.756m0 0h-18.627m0 0v-.756M201.007 260.218l18.491-2.241m0 0l.091.75m0 0l-18.491 2.241m0 0l-.091-.75M197.367 186.266v-24.23m0 0h106.936m0 0v24.23m0 0H197.367M304.302 174.552v.756m0 0H197.367m0 0v-.756m0 0h106.936M204.805 184.274v-18.626m0 0h.756m0 0v18.626m0 0h-.756M206.808 184.274v-18.626m0 0h.756m0 0v18.626m0 0h-.756M208.813 184.274v-18.626m0 0h.756m0 0v18.626m0 0h-.756M210.818 184.274v-18.626m0 0h.756m0 0v18.626m0 0h-.756M215.064 184.138l-2.242-18.491m0 0l.751-.091m0 0l2.241 18.491m0 0l-.75.091M371.496 373.474h68.016m0 0v75.573m0 0h-68.016m0 0v-75.573M373.386 371.585h64.236m-.001 0l.724.144m0 0l.612.409m0 0l.409.614m.001 0l.145.722m0 0h-68.016m-.001 0l.144-.722m0 0l.41-.614m.001 0l.612-.409m0 0l.724-.144M371.496 452.826h68.016m0 0v-3.779m0 0h-68.016m0 0v3.779M439.512 452.826h-68.016m-.001 0v-1.889m0 0h68.016m.001 0v1.889M441.4 452.826h17.004m0 0v-18.893m0 0H441.4m0 0v18.893M369.607 452.826h-17.004m0 0v-18.893m0 0h17.004m0 0v18.893M411.55 447.158h25.694m0 0l.268-.11m0-.001l.11-.268m0 0V434.31m0 0l-.11-.267m0 0l-.268-.111m0 0H411.55m0 0l-.268.111m0 0l-.11.267m0 0v12.469m0 0l.11.268m0 0l.268.11M399.458 447.158h-25.694m0 0l-.268-.11m0-.001l-.11-.268m0 0V434.31m0 0l.11-.267m0 0l.268-.111m0 0h25.694m0 0l.268.111m0 0l.11.267m0 0v12.469m0 0l-.11.268m0 0l-.268.11M371.496 434.956h1.89M399.836 434.956h11.336M437.622 434.956h1.89M371.496 429.946h68.016m0 0V411.26m0 0l-68.016 14.908m0 .001v3.778M222.168 367.065l.449 1.233m0 0v1.313m0 0l-.449 1.233m0 0l.343 1.473m0 0v1.513m0 0l-.343 1.473m0 0l.45 1.234m0 0v1.314m0 0l-.45 1.235m0 0l2.987-2.232m0 0v-7.558m0 0l-2.987-2.231M225.417 369.296v7.558m0 0h-.262m0 0v-7.558m0 0h.262M225.94 369.296v7.558m0 0h-.262m0 0v-7.558m0 0h.262M220.652 373.916l-.085-.891m0 0l.227-.021m0 0l.045.476m0 0l1.142-1.383m0 0l.152.126m0 0l-.53.642m0 0l.082.067m0 0l.611-.74m0 0l.146.121m0 0l-.611.74m0 0l.097.08m0 0l.497-.601m0 0l.13.108m0 0l-.497.601m0 0l.098.08m0 0l.343-.414m0 0l.139.115m0 0l-1.174 1.422M211.348 361.737v22.672m0 0h22.672m0 0v-22.672m0 0h-22.672M243.089 333.209v25.505m0 0h-13.981m0 0v-25.505m0 0h13.981M10.703 172.805v22.672m0 0h58.203m0 0v-22.672m0 0H10.703M68.906 184.519v-.755m0 0H10.703m0 0v.755m0 0h58.203M18.14 174.798v18.626m0 .001h.756m0 0v-18.626m0-.001h-.756M20.144 174.798v18.626m0 .001h.756m0 0v-18.626m0-.001h-.756M22.149 174.798v18.626m0 .001h.756m0 0v-18.626m0-.001h-.756M24.153 174.798v18.626m0 .001h.756m0 0v-18.626m0-.001h-.756M28.399 174.934l-2.241 18.491m0 0l.751.091m0 0l2.24-18.491m0 0l-.75-.091M10.703 257.258v-22.672m0 0h58.203m0 0v22.672m0 0H10.703M68.906 245.544v.756m0 0H10.703m0 0v-.756m0 0h58.203M18.14 255.265v-18.626m0 0h.756m0 0v18.626m0 0h-.756M20.144 255.265v-18.626m0 0h.756m0 0v18.626m0 0h-.756M22.149 255.265v-18.626m0 0h.756m0 0v18.626m0 0h-.756M24.153 255.265v-18.626m0 0h.756m0 0v18.626m0 0h-.756M28.399 255.13l-2.241-18.491m0 0l.751-.091m0 0l2.24 18.491m0 0l-.75.091M33.185 305.247H15.237m0 0v5.29m0 0h17.948m0 0v-5.29M318.283 452.826h22.672m0 0v-70.11m0 0h-22.672m0 0v70.11M329.997 382.753h-.756m0 0v70.073m0 0h.756m0 0v-70.073M320.276 445.389h18.626m0 0v-.756m0 0h-18.626m0 0v.756M320.276 443.384h18.626m0 0v-.755m0 0h-18.626m0 0v.755M320.276 441.38h18.626m0 0v-.756m0 0h-18.626m0 0v.756M320.276 439.375h18.626m0 0v-.755m0 0h-18.626m0 0v.755M320.412 435.129l18.49 2.241m0 0l.091-.75m0 0l-18.49-2.241m0 0l-.091.75M396.923 170.715h-.963m0 0v-1.204m0 .001h-12.524m0 0v1.204m0-.001h-.963M395.459 180.72h-9.634m0 0v-.478m0 0h.723m0 0v.237m0 0h8.188m0 0v-.237m0 0h.723m0 0v.478M395.459 180.242l-.047-.104m-.047-.103l-.048-.103m-.046-.103l-.047-.103m-.047-.103l-.048-.103m-.047-.103l-.047-.103m-.047-.103l-.048-.103m-.046-.103l-.047-.103m-.048-.103l-.047-.103m-.047-.104l-.048-.102m-.047-.104l-.047-.103m-.047-.103l-.047-.103m-.047-.103l-.047-.103m-.047-.103l-.048-.104m-.047-.102l-.046-.104m-.048-.103l-.047-.103m-.047-.103l-.048-.103m-.047-.103l-.047-.103M385.825 180.242l.048-.104m.047-.103l.047-.103m.046-.103l.048-.103m.047-.103l.047-.103m.048-.103l.047-.103m.047-.103l.047-.103m.047-.103l.047-.103m.047-.103l.048-.103m.047-.104l.047-.102m.048-.104l.046-.103m.047-.103l.047-.103m.048-.103l.047-.103m.047-.103l.047-.104m.048-.102l.046-.104m.047-.103l.048-.103m.047-.103l.047-.103m.047-.103l.048-.103M395.459 180.242h-.077m-.114 0h-.114m-.113 0h-.113m-.114 0h-.078m0 0l-.041-.051m-.072-.089l-.071-.088m-.072-.088l-.071-.088m-.071-.088l-.072-.088m-.072-.088l-.071-.088m-.071-.088l-.072-.088m-.071-.088l-.071-.088m-.072-.088l-.072-.088m-.071-.088l-.071-.088m-.072-.087l-.071-.089m-.071-.088l-.072-.088m-.072-.088l-.071-.088m-.071-.088l-.072-.088m-.072-.088l-.071-.088m-.071-.088l-.072-.088m-.071-.088l-.071-.088m-.072-.088l-.072-.088m-.071-.088l-.071-.088m-.072-.088l-.071-.088m-.071-.088l-.072-.088m-.072-.088l-.071-.088m-.071-.088l-.072-.088m-.071-.088l-.042-.052M385.825 180.242h.078m.113 0h.114m.113 0h.114m.114 0h.077m0 0l.042-.051m.071-.089l.071-.088m.072-.088l.072-.088m.071-.088l.071-.088m.072-.088l.071-.088m.071-.088l.072-.088m.072-.088l.071-.088m.071-.088l.072-.088m.072-.088l.071-.088m.071-.087l.072-.089m.071-.088l.071-.088m.072-.088l.072-.088m.071-.088l.071-.088m.072-.088l.071-.088m.071-.088l.073-.088m.071-.088l.071-.088m.071-.088l.072-.088m.071-.088l.072-.088m.072-.088l.071-.088m.071-.088l.071-.088m.072-.088l.071-.088m.072-.088l.072-.088m.071-.088l.042-.052M18.345 41.031l.86 3.679m0 0l3.431 1.584m0 0l-3.431-1.584m0 0l-3.546 1.306M18.345 137.187l.86-3.679m0 0l3.431-1.584m0 0l-3.431 1.584m0 0l-3.546-1.306M357.113 206.587l3.68-.86m0-.001l1.584-3.431m0 .001l-1.584 3.431m0-.001l1.306 3.546M453.27 206.587l-3.68-.86m0-.001l-1.583-3.431m0 .001l1.583 3.431m0-.001l-1.306 3.546M357.426 445.184l3.68-.86m0 0l1.583-3.432m0 0l-1.583 3.432m0 0l1.305 3.545M453.582 445.184l-3.68-.86m0 0l-1.583-3.432m0 0l1.583 3.432m0 0l-1.305 3.545"/><g><path class="st2" d="M402.215 82.231v3.029m0 0h.858m0 0h17.176m0 0h.859m.001 0v-3.029M421.109 88.688V85.26m0 0h-.859m0 0v3.224m0 0h.058m-.001 0l.293-.196m.001 0l.343.087m0 .001l.165.312M420.307 91.046l.293-.196m0 0l.343.086m0 0l.165.313m0 0v-2.562m0 0l-.165-.312m0 .001l-.343-.087m0-.001l-.293.196m0 0h-17.291m0 0l-.293-.196m0 0l-.343.087m0 .001l-.165.312m0-.001v2.562m0 0l.165-.313m0 0l.343-.086m0 0l.293.196m0 0h17.291M402.215 88.688l.165-.312m.001 0l.342-.087m-.001-.001l.294.196m0 0h.057m0 0V85.26m0 0h-.858m0 0v3.427M419.445 91.452H403.88m0 0l1.004.227m0 0h13.557m0 0l1.004-.227M420.307 91.452l.293.196m0 0l.343-.087m0 0l.165-.312m0 0l-.165-.313m0 0l-.343-.086m0 0l-.293.196m0 0h-17.291m0 0l-.293-.196m0 0l-.343.086m0 0l-.165.313m0 0l.165.312m0 0l.343.087m0 0l.293-.196m0 0h17.291M380.298 82.231v3.029m0 0h.859m.001 0h17.176m0 0h.859m-.001 0v-3.029M399.192 88.688V85.26m0 0h-.859m0 0v3.224m0 0h.058m0 0l.294-.196m0 0l.342.087m0 .001l.165.312M398.391 91.046l.294-.196m0 0l.342.086m0 0l.165.313m0 0v-2.562m0 0l-.165-.312m0 .001l-.342-.087m0-.001l-.294.196m0 0H381.1m0 0l-.293-.196m0 0l-.343.087m0 .001l-.165.312m0-.001v2.562m0 0l.165-.313m0 0l.343-.086m0 0l.293.196m0 0h17.291M380.298 88.688l.165-.312m0 0l.343-.087m0-.001l.294.196m0 0h.057m.001 0V85.26m0 0h-.859m-.001 0v3.427M397.529 91.452h-15.566m-.001 0l1.005.227m.001 0h13.556m-.001 0l1.005-.227M398.391 91.452l.294.196m0 0l.342-.087m0 0l.165-.312m0 0l-.165-.313m0 0l-.342-.086m0 0l-.294.196m0 0H381.1m0 0l-.293-.196m0 0l-.343.086m0 0l-.165.313m0 0l.165.312m0 0l.343.087m0 0l.293-.196m0 0h17.291M402.215 48.224v-3.028m0 0h.858m0 0h17.176m0 0h.859m.001 0v3.028M421.109 41.769v3.427m0 0h-.859m0 0v-3.224m0 0h.058m-.001 0l.293.196m.001 0l.343-.087m0 0l.165-.312M420.307 39.41l.293.196m0 0l.343-.087m0 0l.165-.312m0 0v2.562m0 0l-.165.312m0 0l-.343.087m0 0l-.293-.196m0 0h-17.291m0 0l-.293.196m0 0l-.343-.087m0 0l-.165-.312m0 0v-2.562m0 0l.165.312m0 0l.343.087m0 0l.293-.196m0 0h17.291M402.215 41.769l.165.312m.001 0l.342.087m-.001 0l.294-.196m0 0h.057m0 0v3.224m0 0h-.858m0 0v-3.427M419.445 39.005H403.88m0 0l1.004-.227m0 0h13.557m0 0l1.004.227M420.307 39.005l.293-.197m0 0l.343.087m0 0l.165.312m0 0l-.165.313m0 0l-.343.087m0 0l-.293-.197m0 0h-17.291m0 0l-.293.197m0 0l-.343-.087m0 0l-.165-.313m0 0l.165-.312m0 0l.343-.087m0 0l.293.197m0 0h17.291M380.298 48.224v-3.028m0 0h.859m.001 0h17.176m0 0h.859m-.001 0v3.028M399.192 41.769v3.427m0 0h-.859m0 0v-3.224m0 0h.058m0 0l.294.196m0 0l.342-.087m0 0l.165-.312M398.391 39.41l.294.196m0 0l.342-.087m0 0l.165-.312m0 0v2.562m0 0l-.165.312m0 0l-.342.087m0 0l-.294-.196m0 0H381.1m0 0l-.293.196m0 0l-.343-.087m0 0l-.165-.312m0 0v-2.562m0 0l.165.312m0 0l.343.087m0 0l.293-.196m0 0h17.291M380.298 41.769l.165.312m0 0l.343.087m0 0l.294-.196m0 0h.057m.001 0v3.224m0 0h-.859m-.001 0v-3.427M397.529 39.005h-15.566m-.001 0l1.005-.227m.001 0h13.556m-.001 0l1.005.227M398.391 39.005l.294-.197m0 0l.342.087m0 0l.165.312m0 0l-.165.313m0 0l-.342.087m0 0l-.294-.197m0 0H381.1m0 0l-.293.197m0 0l-.343-.087m0 0l-.165-.313m0 0l.165-.312m0 0l.343-.087m0 0l.293.197m0 0h17.291M377.276 82.231v3.029m0 0h-.859m0 0h-17.176m0 0h-.858m0 0v-3.029M358.382 88.688V85.26m0 0h.858m0 0v3.224m0 0h-.057m0 0l-.294-.196m0 0l-.342.087m0 .001l-.165.312M359.183 91.046l-.293-.196m0 0l-.343.086m0 0l-.165.313m0 0v-2.562m0 0l.165-.312m0 .001l.343-.087m0-.001l.293.196m0 0h17.291m0 0l.293-.196m0 0l.343.087m0 .001l.165.312m0-.001v2.562m0 0l-.165-.313m0 0l-.343-.086m0 0l-.293.196m0 0h-17.291M377.276 88.688l-.165-.312m0 0l-.343-.087m0-.001l-.293.196m0 0h-.058m0 0V85.26m0 0h.859m0 0v3.427M360.046 91.452h15.565m0 0l-1.004.227m0 0H361.05m0 0l-1.004-.227M359.183 91.452l-.293.196m0 0l-.343-.087m0 0l-.165-.312m0 0l.165-.313m0 0l.343-.086m0 0l.293.196m0 0h17.291m0 0l.293-.196m0 0l.343.086m0 0l.165.313m0 0l-.165.312m0 0l-.343.087m0 0l-.293-.196m0 0h-17.291M377.276 48.224v-3.028m0 0h-.859m0 0h-17.176m0 0h-.858m0 0v3.028M358.382 41.769v3.427m0 0h.858m0 0v-3.224m0 0h-.057m0 0l-.294.196m0 0l-.342-.087m0 0l-.165-.312M359.183 39.41l-.293.196m0 0l-.343-.087m0 0l-.165-.312m0 0v2.562m0 0l.165.312m0 0l.343.087m0 0l.293-.196m0 0h17.291m0 0l.293.196m0 0l.343-.087m0 0l.165-.312m0 0v-2.562m0 0l-.165.312m0 0l-.343.087m0 0l-.293-.196m0 0h-17.291M377.276 41.769l-.165.312m0 0l-.343.087m0 0l-.293-.196m0 0h-.058m0 0v3.224m0 0h.859m0 0v-3.427M360.046 39.005h15.565m0 0l-1.004-.227m0 0H361.05m0 0l-1.004.227M359.183 39.005l-.293-.197m0 0l-.343.087m0 0l-.165.312m0 0l.165.313m0 0l.343.087m0 0l.293-.197m0 0h17.291m0 0l.293.197m0 0l.343-.087m0 0l.165-.313m0 0l-.165-.312m0 0l-.343-.087m0 0l-.293.197m0 0h-17.291M350.032 48.224v34.008m0 0h79.351m0 0V48.224m0 0h-79.351"/></g></g><g id="walls"><path d="M533.476 314.504h-43.454m0 0V193.588m0 0h43.454m0 0v120.916" fill="none" stroke="#020203" stroke-linecap="round" stroke-linejoin="round" stroke-miterlimit="3"/><path d="M.5 333.209h148.614v-1.512h.453v-7.557h-10.013v-78.974h-8.691v.454h-1.512v78.52H.5v9.069h0zM10.702 21.661h17.949V.5H.5v21.161h10.202zm200.646 311.548v130.915h-9.069V333.209h-13.716v-1.512h-.454v-7.557h23.24v9.069h-.001zm255.624 119.579V435.42h23.05v28.704h-23.05v-11.336h0zm0-266.522v-33.059h23.05v60.03h-23.05v-17.902l-89.847-.182v-8.887h89.847zm0 147.887h-89.784v-10.958h89.784v-26.828h23.05v74.817h-23.05v-37.031h0zM129.351 212.67V21.661h-17.57V.5h54.79v21.161h-27.017v192.521h-8.691v-.454h-1.512v-1.058h0zM384.976 21.661h-40.811V.5h40.811v21.161h0zm-106.935 0h-45.344V.5h45.344v21.161z" fill-rule="evenodd" clip-rule="evenodd" fill="#020203" stroke="#020203" stroke-miterlimit="3"/><path class="st0" d="M377.188 334.153v-10.958h-58.906v-6.726h-1.511v-.453h-1.511v22.905h1.511v-.453h1.511v-4.315h58.906zM.5 21.661h10.202v148.122h58.204v3.023H10.702v84.453l60.837-.001v1.512h-.453v1.51l-55.848.001v51.011h18.137v12.848h-3.023v-9.825H10.703v-3.023h1.512v-51.011h-1.513v63.859H.5V21.661zM318.282 195.28l58.843-.127v-8.887h-55.441v-22.717h-17.382v22.717H197.367v3.023h71.038v11.856h1.511v-.453h1.512v-5.54h43.832v89.878h1.511v-.453h1.511V195.28zm-10.958-9.014v-19.695h11.337v19.695h-11.337zm-42.288 53.233h3.368v-9.447h1.511v.453h1.512v93.635h1.511v9.069h-1.511v5.712h-1.513v-.453h-1.51v-5.259h-39.298v25.505h-17.759v-3.023h14.736v-22.482h-14.736v-9.069h10.202v-81.619h-22.672v-3.022h37.442v1.511h-.454v1.511h-11.294v81.619h43.833v-81.619h-4.426v-1.511h-.453v-1.511h1.511zm53.246 213.289h148.69v11.336H211.348v-11.336h26.828v-4.497h37.786v4.497h39.298v-63.845h-5.215v-1.511h-.453v-1.512h5.668v-16.014h1.511v.454h1.511v82.428zm-46.854-81.37v-1.512h-1.513v.454h-1.51v15.56h-57.057v3.023h70.584v-1.511h.454v-1.512h-10.958v-14.502zm-30.23 81.37h31.741v-1.474h-31.741v1.474zm-111.847-195.53v3.022H99.197v-1.51h-.453v-1.512h30.607z"/><path class="st5" d="M28.651 8.057v13.604M28.651.5v5.668M28.651 6.168v1.889M111.781 8.057v13.604M111.781.5v5.668M111.781 6.168v1.889M111.781.5h-83.13M111.781 21.661h-83.13M111.781 8.057h-3.779M108.002 8.057V6.169M108.002 6.168h3.778M56.991 6.168h1.89M58.88 6.168v1.889M58.88 8.057h-1.89M108.002 7.113H58.88M108.002 8.057H58.88M58.88 6.168h49.122M56.991 8.057h-.944M56.046 8.057v-.943M56.046 7.113h-.945M55.101 7.113v-.945M55.101 6.168h1.89M28.651 6.168h3.778M32.429 6.168v.946M32.429 7.113h-.944M31.485 7.113v.944M31.485 8.057h-2.834M32.429 6.168h22.672M53.212 9.002H34.319M56.046 9.002h-2.834M53.212 9.002V7.114M53.212 7.113h2.834M56.046 7.113v1.889M31.485 7.113h2.834M34.319 7.113v1.889M34.319 9.002h-2.834M31.485 9.002V7.114M34.319 7.113h18.894M53.212 9.002H34.319M53.212 8.057H34.319M111.781 6.168v1.889M111.781 6.168v1.889M111.781.5v5.668M111.781 8.057v13.604M28.651 6.168v1.889M28.651 6.168v1.889M28.651.5v5.668M28.651 8.057v13.604M111.781.5v21.16"/><g><path class="st5" d="M232.697 8.057v13.604M232.697.5v5.668M232.697 6.168v1.889M166.571 8.057v13.604M166.571.5v5.668M166.571 6.168v1.889M166.571.5h66.126M166.571 21.661h66.126M166.571 8.057h3.778M170.349 8.057V6.169M170.349 6.168h-3.778M204.357 6.168h-1.889M202.468 6.168v1.889M202.468 8.057h1.889M170.349 7.113h32.119M170.349 8.057h32.119M202.468 6.168h-32.119M204.357 8.057h.945M205.302 8.057v-.943M205.302 7.113h.944M206.246 7.113v-.945M206.246 6.168h-1.889M232.697 6.168h-3.778M228.918 6.168v.946M228.918 7.113h.944M229.863 7.113v.944M229.863 8.057h2.834M228.918 6.168h-22.672M208.136 9.002h18.893M205.302 9.002h2.834M208.136 9.002V7.114M208.136 7.113h-2.834M205.302 7.113v1.889M229.863 7.113h-2.834M227.029 7.113v1.889M227.029 9.002h2.834M229.863 9.002V7.114M227.029 7.113h-18.893M208.136 9.002h18.893M208.136 8.057h18.893M166.571 6.168v1.889M166.571 6.168v1.889M166.571.5v5.668M166.571 8.057v13.604M232.697 6.168v1.889M232.697 6.168v1.889M232.697.5v5.668M232.697 8.057v13.604M232.697 21.661V.501"/></g><g><path class="st5" d="M344.167 8.057v13.604M344.167.5v5.668M344.167 6.168v1.889M278.04 8.057v13.604M278.04.5v5.668M278.04 6.168v1.889M278.04.5h66.127M278.04 21.661h66.127M278.04 8.057h3.778M281.819 8.057V6.169M281.819 6.168h-3.778M315.827 6.168h-1.891M313.937 6.168v1.889M313.937 8.057h1.89M281.819 7.113h32.118M281.819 8.057h32.118M313.937 6.168h-32.118M315.827 8.057h.943M316.771 8.057v-.943M316.771 7.113h.945M317.716 7.113v-.945M317.716 6.168h-1.89M344.167 6.168h-3.779M340.388 6.168v.946M340.388 7.113h.944M341.332 7.113v.944M341.332 8.057h2.835M340.388 6.168h-22.672M319.606 9.002h18.893M316.771 9.002h2.835M319.606 9.002V7.114M319.606 7.113h-2.835M316.771 7.113v1.889M341.332 7.113h-2.834M338.498 7.113v1.889M338.498 9.002h2.834M341.332 9.002V7.114M338.498 7.113h-18.893M319.606 9.002h18.893M319.606 8.057h18.893M278.04 6.168v1.889M278.04 6.168v1.889M278.04.5v5.668M278.04 8.057v13.604M344.167 6.168v1.889M344.167 6.168v1.889M344.167.5v5.668M344.167 8.057v13.604"/></g><g><path class="st5" d="M384.976 8.057v13.604M384.976.5v5.668M384.976 6.168v1.889M384.976.5h105.046M384.976 21.661h81.996M384.976 8.057h4.723M389.699 8.057V6.169M389.699 6.168h-4.723M482.464 6.168h-4.724M477.741 6.168v1.889M477.741 8.057h4.724M484.354 6.168h-1.89M389.699 8.057h88.042M477.741 6.168h-88.042M384.976 6.168v1.889M384.976 6.168v1.889M384.976.5v5.668M384.976 8.057v13.604M482.464 153.207h-15.492M490.022 153.207h-5.668M484.354 153.207h-1.89M490.022 153.207V.501M466.972 153.207V21.66M482.464 153.207v-4.723M482.464 148.483h1.89M484.354 148.483v4.723M484.354 8.057v4.724M484.354 12.781h-1.89M482.464 12.781V8.058M484.354 6.168v1.889M482.464 148.483V12.78M484.354 12.781v135.703M484.354 153.207h-1.89M484.354 153.207h-1.89M490.022 153.207h-5.668M482.464 153.207h-15.492"/></g><g><path class="st5" d="M482.464 296.367h-15.492M490.022 296.367h-5.668M484.354 296.367h-1.89M482.464 213.237h-15.492M490.022 213.237h-5.668M484.354 213.237h-1.89M490.022 213.237v83.13M466.972 213.237v83.13M482.464 213.237v3.778M482.464 217.016h1.89M484.354 217.016v-3.778M484.354 252.913v-1.889M484.354 251.024h-1.89M482.464 251.024v1.889M483.409 217.016v34.008M482.464 217.016v34.008M484.354 251.024v-34.008M482.464 252.913v.944M482.464 253.857h.944M483.409 253.857v.945M483.409 254.802h.945M484.354 254.802v-1.889M484.354 296.367v-3.779M484.354 292.588h-.945M483.409 292.588v.945M483.409 293.533h-.944M482.464 293.533v2.834M481.52 253.857l-28.056 28.055M484.354 292.588v-37.786M481.52 256.691v34.008M481.52 253.857v2.834M481.52 256.691h1.889M483.409 256.691v-2.834M483.409 253.857h-1.889M483.409 293.533v-2.834M483.409 290.699h-1.889M481.52 290.699v2.834M481.52 293.533h1.889M483.409 290.699v-34.008M481.52 256.691v34.008M482.464 256.691v34.008M481.52 293.533a39.68 39.68 0 01-28.056-11.621M484.354 213.237h-1.89M484.354 213.237h-1.89M490.022 213.237h-5.668M482.464 213.237h-15.492M484.354 296.367h-1.89M484.354 296.367h-1.89M490.022 296.367h-5.668M482.464 296.367h-15.492M490.022 296.367h-23.05"/></g><g><path class="st5" d="M482.464 371.184h-15.492M490.022 371.184h-5.668M484.354 371.184h-1.89M482.464 436.176h-15.492M490.022 436.176h-5.668M484.354 436.176h-1.89M490.022 436.176v-64.992M466.972 436.176v-64.992M482.464 436.176v-3.779M482.464 432.397h1.89M484.354 432.397v3.779M484.354 399.524v1.889M484.354 401.413h-1.89M482.464 401.413v-1.889M483.409 432.397v-30.984M482.464 432.397v-30.984M484.354 401.413v30.984M482.464 399.524v-.945M482.464 398.579h.944M483.409 398.579v-.945M483.409 397.634h.945M484.354 397.634v1.89M484.354 371.184v3.778M484.354 374.962h-.945M483.409 374.962v-.944M483.409 374.018h-.944M482.464 374.018v-2.834M484.354 374.962v22.672M481.52 395.745v-18.893M481.52 398.579v-2.834M481.52 395.745h1.889M483.409 395.745v2.834M483.409 398.579h-1.889M483.409 374.018v2.834M483.409 376.852h-1.889M481.52 376.852v-2.834M481.52 374.018h1.889M483.409 376.852v18.893M481.52 395.745v-18.893M482.464 395.745v-18.893M484.354 436.176h-1.89M484.354 436.176h-1.89M490.022 436.176h-5.668M482.464 436.176h-15.492M484.354 371.184h-1.89M484.354 371.184h-1.89M490.022 371.184h-5.668M482.464 371.184h-15.492M490.022 435.421h-23.05"/></g><g><path class="st6" d="M482.464 63.216h1.89v5.133h-1.89zM482.464 106.573h1.89v5.133h-1.89z"/></g><g><path class="st5" d="M330.846 287.162c-4.871-1.817-7.371-2.319-12.563-2.585"/><path class="st7" d="M330.941 287.197l-1.387-.6-12.658 29.272-.015.6h1.402z"/><g><path class="st5" d="M116.693 216.348l3.048-1.137m0 0l3.147-.821m0 0l3.215-.496m0 0l3.248-.166"/><path transform="rotate(-23.384 123.722 230.689)" class="st7" d="M122.96 214.738h1.512v31.892h-1.512z"/><path class="st5" d="M116.693 216.348l12.658 29.272M130.739 245.02l-12.658-29.271M118.081 215.749l-1.389.599M73.364 271.358c-1.602-4.296-2.045-6.498-2.279-11.077"/><path class="st7" d="M73.394 271.44l25.804-11.159-.001-1.511h-.453l-25.95 11.282z"/><path class="st5" d="M238.138 253.58c-1.602-4.296-2.038-6.479-2.271-11.058"/><path class="st7" d="M238.175 253.68l25.804-11.159v-1.511h-.453l-25.951 11.283z"/><path class="st5" d="M283.165 228.097c-4.552 1.699-6.885 2.161-11.737 2.408"/><path class="st7" d="M283.261 228.056l-11.833-27.364h-1.512v.453l11.958 27.511z"/><path class="st5" d="M255.847 367.777c4.81 1.796 7.431 2.32 12.557 2.582"/><path class="st7" d="M255.747 367.74l1.387.6 12.781-29.419v-.453h-1.511z"/><g><path class="st5" d="M330.841 367.784c-4.324 1.615-7.948 2.341-12.558 2.576"/><path class="st7" d="M330.941 367.74l-12.658-29.272h-1.512v.453l12.783 29.419z"/><path class="st5" d="M284.223 399.997c-1.479-3.881-2.076-6.843-2.291-11.053"/><path class="st7" d="M284.241 400.102l25.805-11.159-.001-1.511h-.453l-25.95 11.283z"/><g><path class="st5" d="M152.97 347.713c-2.019-5.297-2.833-9.339-3.126-15.085"/><path class="st7" d="M152.995 347.857l35.217-15.23-.001-2.063h-.618l-35.417 15.4z"/></g></g></g></g><g><path class="st8" d="M5.446 21.662l-4.95 4.36M10.706 23.562l-10.21 8.99M10.706 30.102l-10.21 9M10.706 36.642l-10.21 8.99M10.706 43.182l-10.21 8.99M10.706 49.712l-10.21 9M10.706 56.262l-10.21 8.99M10.706 62.792l-10.21 9M10.706 69.332l-10.21 8.99M10.706 75.872l-10.21 8.99M10.706 82.412l-10.21 8.99M10.706 88.952l-10.21 8.99M10.706 95.482l-10.21 9M10.706 102.022l-10.21 9M10.706 108.562l-10.21 8.99M10.706 115.102l-10.21 9M10.706 121.642l-10.21 8.99M10.706 128.182l-10.21 8.99M10.706 134.712l-10.21 9M10.706 141.262l-10.21 8.99M10.706 147.792l-10.21 9M10.706 154.332l-10.21 8.99M10.706 160.872l-10.21 8.99M10.706 167.412l-10.21 8.99M15.436 169.782l-3.44 3.03M10.706 173.952l-10.21 8.99M22.856 169.782l-3.44 3.03M10.706 180.482l-10.21 9M30.276 169.782l-3.44 3.03M10.706 187.022l-10.21 8.99M37.696 169.782l-3.44 3.03M10.706 193.562l-10.21 8.99M45.126 169.782l-3.44 3.03M10.706 200.102l-10.21 9M52.546 169.782l-3.44 3.03M10.706 206.642l-10.21 8.99M59.966 169.782l-3.44 3.03M10.706 213.182l-10.21 8.99M67.386 169.782l-3.44 3.03M10.706 219.712l-10.21 8.99M10.706 226.252l-10.21 8.99M10.706 232.792l-10.21 9M10.706 239.332l-10.21 8.99M10.706 245.872l-10.21 8.99M10.706 252.412l-10.21 8.99M12.616 257.262l-12.12 10.68M15.236 261.492l-3.02 2.66M10.706 265.482l-10.21 9M20.036 257.262l-3.42 3.02M15.236 268.032l-3.02 2.66M10.706 272.022l-10.21 8.99M27.466 257.262l-3.43 3.02M15.236 274.572l-3.02 2.66M10.706 278.562l-10.21 8.99M34.886 257.262l-3.43 3.02M15.236 281.112l-3.02 2.66M10.706 285.102l-10.21 8.99M42.306 257.262l-3.42 3.02M15.236 287.652l-3.02 2.66M10.706 291.642l-10.21 8.99M49.736 257.262l-3.43 3.02M15.236 294.182l-3.02 2.66M10.706 298.172l-10.21 9M57.146 257.262l-3.42 3.02M15.236 300.722l-3.02 2.66M10.706 304.712l-10.21 8.99M64.566 257.262l-3.42 3.02M71.536 257.662l-2.97 2.62M10.706 311.252l-10.21 8.99M15.236 307.262l-3.02 2.66M10.706 317.792l-7.21 6.35M18.086 311.292l-3.43 3.02M25.506 311.292l-3.43 3.02M32.926 311.292l-3.42 3.02M101.686 257.262l-2.49 2.19M33.376 317.432l-3.03 2.67M33.376 323.972l-.19.17M109.106 257.262l-3.43 3.02M116.526 257.262l-3.42 3.02M204.536 186.272l-3.43 3.02M123.956 257.262l-3.43 3.02M129.346 259.052l-1.4 1.23M211.956 186.272l-3.42 3.02M219.376 186.272l-3.42 3.02M226.806 186.272l-3.43 3.02M234.226 186.272l-3.43 3.02M241.646 186.272l-3.43 3.02M249.066 186.272l-3.42 3.02M256.496 186.272l-3.43 3.02M203.486 239.502l-3.43 3.02M263.916 186.272l-3.43 3.02M271.336 186.272l-3.43 3.02M210.916 239.502l-3.43 3.02M304.556 163.552l-.25.22M278.766 186.272l-10.36 9.12M218.336 239.502l-3.43 3.02M286.186 186.272l-10.08 8.88M271.426 199.272l-2.12 1.87M225.756 239.502l-4.21 3.71M311.976 163.552l-3.43 3.02M307.326 167.652l-3.02 2.66M293.606 186.272l-10.08 8.88M233.186 239.502l-3.43 3.02M224.576 247.082l-3.03 2.67M319.396 163.552l-3.43 3.02M307.326 174.192l-3.02 2.66M301.026 186.272l-10.08 8.88M224.576 253.612l-3.03 2.67M321.686 168.072l-3.03 2.67M307.326 180.722l-3.02 2.66M308.446 186.272l-10.08 8.88M224.576 260.152l-3.03 2.67M321.686 174.612l-3.03 2.67M315.866 186.272l-10.08 8.88M224.576 266.692l-3.03 2.67M321.686 181.152l-3.03 2.67M224.576 273.232l-3.03 2.67M271.426 231.962l-3.02 2.66M323.296 186.272l-10.08 8.88M318.286 197.222l-3.03 2.67M224.576 279.772l-3.03 2.67M271.426 238.502l-4.56 4.02M330.716 186.272l-10.22 9.01M318.286 203.762l-3.03 2.67M224.576 286.312l-3.03 2.67M271.426 245.042l-3.02 2.66M338.146 186.272l-10.21 8.99M318.286 210.292l-3.03 2.67M224.576 292.842l-3.03 2.67M271.426 251.572l-3.02 2.66M345.556 186.272l-10.19 8.97M318.286 216.832l-3.03 2.67M224.576 299.382l-3.03 2.67M271.426 258.112l-3.02 2.66M352.976 186.272l-10.16 8.96M318.286 223.372l-3.03 2.67M224.576 305.922l-3.03 2.67M271.426 264.652l-3.02 2.66M360.406 186.272l-10.15 8.94M318.286 229.912l-3.03 2.67M224.75 312.361l-3.204 2.771M271.426 271.192l-3.02 2.66M367.826 186.272l-10.12 8.92M318.286 236.452l-3.03 2.67M224.719 318.767l-3.173 2.905M218.746 324.142l-7.4 6.52M271.426 277.732l-3.02 2.66M375.246 186.272l-10.11 8.91M377.126 191.162l-4.54 4M271.426 284.272l-3.02 2.66M226.469 324.048l-10.603 9.164M318.286 242.992l-3.03 2.67M271.426 290.802l-3.02 2.66M233.719 324.111l-10.433 9.101M318.286 249.522l-3.03 2.67M271.426 297.342l-3.02 2.66M229.106 334.622l-3.02 2.66M241.187 324.017l-10.481 9.195M318.286 256.062l-3.03 2.67M271.426 303.882l-3.02 2.66M229.106 341.162l-3.02 2.66M212.616 355.692l-1.27 1.12M248.426 324.142l-10.29 9.07M318.286 262.602l-3.03 2.67M271.426 310.422l-3.02 2.66M229.106 347.702l-3.02 2.66M220.036 355.692l-3.42 3.02M255.856 324.142l-10.3 9.07M318.286 269.142l-3.03 2.67M271.426 316.962l-3.02 2.66M229.106 354.242l-5.07 4.47M263.276 324.142l-10.29 9.07M318.286 275.682l-3.03 2.67M318.286 282.222l-3.03 2.67M271.426 323.502l-11.02 9.71M272.936 328.712l-5.11 4.5M215.406 385.922l-3.43 3.02M271.426 336.572l-2.272 1.912M222.836 385.922l-3.43 3.02M230.256 385.922l-3.43 3.02M271.426 369.383l-3.02 2.66M316.766 316.252l-1.51 1.33M237.676 385.922l-3.42 3.02M271.426 375.923l-2.7 2.38M245.096 385.922l-3.42 3.02M318.286 321.452l-3.03 2.67M323.736 323.192l-8.48 7.47M252.526 385.922l-3.43 3.02M331.146 323.192l-12.44 10.96M318.286 334.522l-3.03 2.67M259.936 385.922l-3.42 3.02M338.576 323.192l-12.44 10.96M271.426 382.342l-3.02 2.66M267.366 385.922l-3.43 3.02M345.996 323.192l-12.44 10.96M274.786 385.922l-3.43 3.02M282.216 385.922l-3.43 3.02M353.426 323.192l-12.44 10.96M213.726 452.792l-2.38 2.1M360.846 323.192l-12.44 10.96M221.146 452.792l-9.8 8.64M368.266 323.192l-12.44 10.96M228.576 452.792l-12.87 11.33M318.286 373.762l-3.03 2.67M375.696 323.192l-12.44 10.96M377.186 328.412l-6.52 5.74M235.986 452.792l-12.86 11.33M241.096 448.292l-2.92 2.57M311.896 385.922l-1.85 1.63M318.286 380.292l-3.03 2.67M243.416 452.792l-12.86 11.33M248.516 448.292l-3.42 3.02M318.286 386.832l-3.03 2.67M250.836 452.792l-12.86 11.33M255.946 448.292l-3.43 3.02M318.286 393.372l-3.03 2.67M258.256 452.792l-12.86 11.33M263.366 448.292l-3.43 3.02M318.286 399.912l-3.03 2.67M265.686 452.792l-12.87 11.33M270.786 448.292l-3.42 3.02M318.286 406.452l-3.03 2.67M275.966 450.272l-15.72 13.85M318.286 412.992l-3.03 2.67M280.526 452.792l-12.87 11.33M318.286 419.522l-3.03 2.67M287.946 452.792l-12.86 11.33M318.286 426.062l-3.03 2.67M295.366 452.792l-12.86 11.33M318.286 432.602l-3.03 2.67M302.796 452.792l-12.86 11.33M318.286 439.142l-3.03 2.67M310.216 452.792l-12.86 11.33M318.286 445.682l-3.03 2.67M318.286 452.222l-13.51 11.9M325.056 452.792l-12.86 11.33M332.476 452.792l-12.86 11.33M339.906 452.792l-12.86 11.33M347.326 452.792l-12.86 11.33M354.746 452.792l-12.86 11.33M362.176 452.792l-12.86 11.33M369.596 452.792l-12.86 11.33M377.016 452.792l-12.87 11.33M384.436 452.792l-12.86 11.33M391.856 452.792l-12.86 11.33M399.286 452.792l-12.86 11.33M406.706 452.792l-12.86 11.33M414.126 452.792l-12.86 11.33M421.546 452.792l-12.86 11.33M428.966 452.792l-12.86 11.33M436.396 452.792l-12.86 11.33M443.816 452.792l-12.86 11.33M451.236 452.792l-12.86 11.33M458.666 452.792l-12.86 11.33M466.086 452.792l-12.86 11.33M466.976 458.542l-6.34 5.58"/></g><path class="st6" d="M377.188 334.153v-10.958h-58.906v-6.726h-1.511v-.453h-1.511v22.905h1.511v-.453h1.511v-4.315h58.906zM.5 21.661h10.202v148.122h58.204v3.023H10.702v84.453l60.837-.001v1.512h-.453v1.51l-55.848.001v51.011h18.137v12.848h-3.023v-9.825H10.703v-3.023h1.512v-51.011h-1.513v63.859H.5V21.661zM318.282 195.28l58.843-.127v-8.887h-55.441v-22.717h-17.382v22.717H197.367v3.023h71.038v11.856h1.511v-.453h1.512v-5.54h43.832v89.878h1.511v-.453h1.511V195.28zm-10.958-9.014v-19.695h11.337v19.695h-11.337zm-42.288 53.233h3.368v-9.447h1.511v.453h1.512v93.635h1.511v9.069h-1.511v5.712h-1.513v-.453h-1.51v-5.259h-39.298v25.505h-17.759v-3.023h14.736v-22.482h-14.736v-9.069h10.202v-81.619h-22.672v-3.022h37.442v1.511h-.454v1.511h-11.294v81.619h43.833v-81.619h-4.426v-1.511h-.453v-1.511h1.511zm53.246 213.289h148.69v11.336H211.348v-11.336h26.828v-4.497h37.786v4.497h39.298v-63.845h-5.215v-1.511h-.453v-1.512h5.668v-16.014h1.511v.454h1.511v82.428zm-46.854-81.37v14.502h10.958v1.512h-.454v1.511h-70.584v-3.023h57.057v-15.56h1.51v-.454h1.513v1.512zm-30.23 81.37h31.741v-1.474h-31.741v1.474zm-111.847-195.53v3.022H99.197v-1.51h-.453v-1.512h30.607z"/></g><g id="sizes"><path class="st9" d="M77.793 181.029h-1.594v-9.625l-1.617.992v-1.648l1.617-1.078h1.594v11.359zM84.394 175.389l-.008.281c-.13.24-.327.416-.59.527a2.372 2.372 0 01-.934.168c-.542 0-1.019-.138-1.43-.414-.411-.276-.73-.665-.957-1.168-.227-.502-.34-1.084-.34-1.746v-.008c0-.734.124-1.362.371-1.883a2.615 2.615 0 011.086-1.188c.477-.271 1.048-.406 1.715-.406s1.237.138 1.711.414a2.66 2.66 0 011.082 1.203c.247.526.371 1.159.371 1.898v.008c0 .406-.052.84-.156 1.301s-.253.918-.445 1.371l-.094.207c-.031.07-.065.14-.102.207l-2.422 4.867h-1.719l2.861-5.639zm.075-.985c.273-.338.41-.815.41-1.43v-.008c0-.599-.137-1.063-.41-1.391s-.66-.492-1.16-.492c-.505 0-.895.164-1.168.492s-.41.794-.41 1.398v.008c0 .615.137 1.09.41 1.426s.663.504 1.168.504c.499.001.886-.168 1.16-.507zM88.426 179.436h1.594v1.594l-1.594 1.578v-3.172zM93.851 180.811a2.75 2.75 0 01-1.086-.977c-.278-.427-.465-.94-.559-1.539v-.008H93.8v.008c.058.417.224.741.5.973.276.232.636.348 1.078.348.511 0 .905-.17 1.184-.512.278-.341.418-.821.418-1.441v-.953c0-.614-.14-1.092-.418-1.434-.278-.341-.673-.512-1.184-.512-.276 0-.542.078-.797.234s-.479.375-.672.656h-1.453v-5.984h5.789v1.516H94.05v2.555a2.275 2.275 0 011.414-.508c.656 0 1.218.136 1.684.406.466.271.82.667 1.063 1.188.242.521.363 1.148.363 1.883v.953c0 .734-.125 1.362-.375 1.883-.25.521-.614.918-1.094 1.191s-1.055.41-1.727.41c-.572-.001-1.081-.113-1.527-.336zM418.437 108.364l-.727-.348a2.857 2.857 0 01-1.168-1.008c-.294-.44-.48-.97-.559-1.59h1.625c.047.323.148.589.305.797.156.208.358.363.605.465s.538.152.871.152c.526 0 .935-.141 1.227-.422s.438-.677.438-1.188v-.344c0-.567-.138-1.006-.414-1.316-.276-.31-.667-.465-1.172-.465h-.805v-1.516h.805c.442 0 .786-.133 1.031-.398s.367-.641.367-1.125v-.352c0-.448-.129-.794-.387-1.039-.258-.245-.624-.367-1.098-.367-.271 0-.513.051-.727.152s-.395.258-.543.469-.257.476-.324.793h-1.617c.104-.62.301-1.151.59-1.594a2.893 2.893 0 011.098-1.008c.442-.229.95-.344 1.523-.344.979 0 1.737.258 2.273.773s.805 1.242.805 2.18v.188c0 .568-.153 1.063-.461 1.484s-.742.729-1.305.922c.62.136 1.101.44 1.441.914.341.474.512 1.078.512 1.813v.188c0 .662-.128 1.227-.383 1.695s-.626.826-1.113 1.07c-.487.245-1.074.367-1.762.367l-.951.002zM430.781 98.31l-2.938 9.938h-1.695l2.938-9.844h-2.891v1.633h-1.594v-3.148h6.18v1.421zM432.812 106.653h1.594v1.594l-1.594 1.578v-3.172zM438.109 107.974c-.521-.26-.923-.629-1.207-1.105s-.426-1.03-.426-1.66v-.188c0-.567.142-1.102.426-1.602s.663-.877 1.137-1.133c-.401-.219-.723-.535-.965-.949s-.363-.85-.363-1.309v-.273c0-.594.133-1.116.398-1.566.266-.45.641-.799 1.125-1.047.484-.247 1.047-.371 1.688-.371s1.203.124 1.688.371c.484.248.859.597 1.125 1.047.266.451.398.973.398 1.566v.273c0 .469-.124.909-.371 1.32a2.472 2.472 0 01-.98.938c.479.261.863.64 1.152 1.137a3.13 3.13 0 01.434 1.598v.188c0 .63-.142 1.184-.426 1.66s-.687.845-1.207 1.105c-.521.261-1.125.391-1.813.391s-1.292-.131-1.813-.391zm2.789-1.36c.281-.146.499-.35.652-.613.153-.263.23-.566.23-.91v-.109c0-.349-.077-.655-.23-.918a1.576 1.576 0 00-.652-.613c-.281-.146-.606-.219-.977-.219s-.695.073-.977.219c-.281.146-.499.352-.652.617s-.23.573-.23.922v.117c0 .344.077.646.23.906.153.261.371.462.652.605.281.144.606.215.977.215s.696-.073.977-.219zm-.132-5.121c.245-.138.435-.334.57-.59.136-.255.203-.549.203-.883v-.109c0-.317-.067-.599-.203-.844s-.325-.434-.57-.566-.526-.199-.844-.199-.599.066-.844.199-.435.322-.57.566a1.726 1.726 0 00-.203.852v.117c0 .328.067.619.203.871.136.253.325.448.57.586.245.138.526.207.844.207s.598-.069.844-.207zM333.063 319.084h-1.594v-9.625l-1.617.992v-1.648l1.617-1.078h1.594v11.359zM335.485 315.959l3.813-8.227h1.641l-3.719 8.133h5.57v1.477h-7.305v-1.383zm4.899-3.554h1.555v6.688h-1.555v-6.688zM344.587 317.491h1.594v1.594l-1.594 1.578v-3.172zM349.192 318.35c-.55-.567-.824-1.359-.824-2.375v-5.164c0-1.021.276-1.813.828-2.379s1.356-.848 2.414-.848c1.063 0 1.868.281 2.418.844s.824 1.356.824 2.383v5.164c0 1.021-.276 1.813-.828 2.379s-1.356.848-2.414.848c-1.062 0-1.868-.285-2.418-.852zm3.664-1.105c.269-.294.402-.718.402-1.27v-5.164c0-.552-.133-.976-.398-1.27s-.683-.441-1.25-.441-.984.147-1.25.441-.398.718-.398 1.27v5.164c0 .552.134.976.402 1.27s.684.441 1.246.441.978-.147 1.246-.441z"/><g><path class="st9" d="M437.322 351.912h-1.594v-9.625l-1.617.992v-1.648l1.617-1.078h1.594v11.359zM439.728 350.529l3.961-5.281c.229-.302.407-.616.535-.941s.191-.629.191-.91v-.016c0-.453-.133-.805-.398-1.055s-.644-.375-1.133-.375c-.464 0-.839.137-1.125.41s-.461.66-.523 1.16v.008h-1.648v-.008c.094-.651.285-1.207.574-1.668s.663-.813 1.121-1.055.987-.363 1.586-.363c.677 0 1.255.116 1.734.348s.844.569 1.094 1.012.375.977.375 1.602v.008c0 .401-.083.82-.25 1.258s-.398.859-.695 1.266l-3.289 4.469h4.297v1.516h-6.406v-1.385zM448.01 350.318h1.594v1.594l-1.594 1.578v-3.172zM453.01 351.626c-.474-.269-.835-.659-1.082-1.172s-.371-1.132-.371-1.855v-.008c0-.422.05-.864.148-1.328a7.568 7.568 0 01.641-1.82l2.469-4.891h1.719l-2.898 5.664.008-.281c.13-.245.32-.435.57-.57s.542-.203.875-.203c.589 0 1.094.133 1.516.398s.742.652.961 1.16.328 1.118.328 1.832v.008c0 .729-.124 1.354-.371 1.875s-.609.917-1.086 1.188-1.048.406-1.715.406-1.239-.134-1.712-.403zm2.879-1.597c.273-.313.41-.758.41-1.336v-.008c0-.636-.144-1.126-.43-1.473s-.695-.52-1.227-.52c-.474 0-.841.175-1.102.523s-.391.841-.391 1.477v.008c0 .578.137 1.022.41 1.332s.66.465 1.16.465c.506.001.896-.156 1.17-.468z"/></g><g><path class="st9" d="M149.722 309.849l-.008.281c-.13.239-.327.415-.59.527s-.574.168-.934.168c-.542 0-1.019-.138-1.43-.414s-.73-.665-.957-1.168-.34-1.085-.34-1.746v-.008c0-.734.124-1.362.371-1.883s.609-.917 1.086-1.188 1.048-.406 1.715-.406 1.237.138 1.711.414.835.677 1.082 1.203.371 1.159.371 1.898v.008c0 .406-.052.84-.156 1.301a8.052 8.052 0 01-.539 1.578c-.031.07-.065.14-.102.207l-2.422 4.867h-1.719l2.861-5.639zm.074-.984c.273-.339.41-.815.41-1.43v-.008c0-.599-.137-1.063-.41-1.391s-.66-.492-1.16-.492c-.505 0-.895.164-1.168.492s-.41.794-.41 1.398v.008c0 .614.137 1.09.41 1.426s.663.504 1.168.504c.5.001.886-.168 1.16-.507zM153.753 313.896h1.594v1.594l-1.594 1.578v-3.172zM158.358 314.755c-.55-.567-.824-1.359-.824-2.375v-5.164c0-1.021.276-1.813.828-2.379s1.356-.848 2.414-.848c1.063 0 1.868.281 2.418.844s.824 1.356.824 2.383v5.164c0 1.021-.276 1.813-.828 2.379s-1.356.848-2.414.848c-1.062 0-1.868-.284-2.418-.852zm3.664-1.105c.269-.294.402-.718.402-1.27v-5.164c0-.552-.133-.976-.398-1.27s-.683-.441-1.25-.441-.984.147-1.25.441-.398.718-.398 1.27v5.164c0 .552.134.976.402 1.27s.684.441 1.246.441.978-.147 1.246-.441z"/></g><g><path class="st9" d="M49.879 299.468c-.445-.224-.808-.55-1.086-.977s-.465-.94-.559-1.539v-.008h1.594v.008c.058.417.224.741.5.973s.636.348 1.078.348c.511 0 .905-.171 1.184-.512s.418-.821.418-1.441v-.953c0-.614-.14-1.093-.418-1.434s-.673-.512-1.184-.512c-.276 0-.542.078-.797.234s-.479.375-.672.656h-1.453v-5.984h5.789v1.516h-4.195v2.555a2.275 2.275 0 011.414-.508c.656 0 1.218.136 1.684.406s.82.667 1.063 1.188.363 1.148.363 1.883v.953c0 .734-.125 1.362-.375 1.883s-.614.918-1.094 1.191-1.055.41-1.727.41c-.573 0-1.082-.112-1.527-.336zM56.789 298.093h1.594v1.594l-1.594 1.578v-3.172zM63.312 299.687h-1.594v-9.625l-1.617.992v-1.648l1.617-1.078h1.594v11.359z"/></g><g><path class="st9" d="M294.63 208.828a2.75 2.75 0 01-1.086-.977c-.278-.427-.465-.94-.559-1.539v-.008h1.594v.008c.058.417.224.741.5.973.276.232.636.348 1.078.348.511 0 .905-.17 1.184-.512.278-.341.418-.821.418-1.441v-.953c0-.614-.14-1.092-.418-1.434-.278-.341-.673-.512-1.184-.512-.276 0-.542.078-.797.234s-.479.375-.672.656h-1.453v-5.984h5.789v1.516h-4.195v2.555a2.275 2.275 0 011.414-.508c.656 0 1.218.136 1.684.406.466.271.82.667 1.063 1.188.242.521.363 1.148.363 1.883v.953c0 .734-.125 1.362-.375 1.883-.25.521-.614.918-1.094 1.191s-1.055.41-1.727.41c-.573 0-1.082-.113-1.527-.336zM301.54 207.453h1.594v1.594l-1.594 1.578v-3.172zM306.54 208.761a2.61 2.61 0 01-1.082-1.172c-.247-.513-.371-1.131-.371-1.855v-.008c0-.422.05-.864.148-1.328a7.673 7.673 0 01.532-1.597l.109-.223 2.469-4.891h1.719l-2.898 5.664.008-.281c.13-.245.32-.435.57-.57.25-.135.542-.203.875-.203.589 0 1.094.133 1.516.398s.742.652.961 1.16.328 1.119.328 1.832v.008c0 .729-.124 1.354-.371 1.875a2.615 2.615 0 01-1.086 1.188c-.477.271-1.048.406-1.715.406s-1.238-.134-1.712-.403zm2.879-1.597c.273-.313.41-.758.41-1.336v-.008c0-.635-.144-1.126-.43-1.473-.286-.346-.695-.52-1.227-.52-.474 0-.841.175-1.102.523-.261.349-.391.841-.391 1.477v.008c0 .578.137 1.022.41 1.332.273.31.66.465 1.16.465.507 0 .896-.156 1.17-.468z"/></g><g><path class="st9" d="M246.981 349.979h-1.594v-9.625l-1.617.992v-1.648l1.617-1.078h1.594v11.359zM249.403 348.385h1.594v1.594l-1.594 1.578v-3.172zM254.7 349.706c-.521-.261-.923-.629-1.207-1.105s-.426-1.03-.426-1.66v-.188c0-.567.142-1.102.426-1.602s.663-.878 1.137-1.133c-.401-.219-.723-.535-.965-.949s-.363-.851-.363-1.309v-.273c0-.594.133-1.116.398-1.566s.641-.8 1.125-1.047 1.047-.371 1.688-.371 1.203.124 1.688.371.859.597 1.125 1.047.398.973.398 1.566v.273c0 .469-.124.909-.371 1.32s-.574.724-.98.938c.479.261.863.64 1.152 1.137s.434 1.03.434 1.598v.188c0 .63-.142 1.184-.426 1.66s-.687.845-1.207 1.105-1.125.391-1.813.391-1.292-.131-1.813-.391zm2.789-1.36c.281-.146.499-.351.652-.613s.23-.566.23-.91v-.109c0-.349-.077-.655-.23-.918s-.371-.468-.652-.613-.606-.219-.977-.219-.695.073-.977.219-.499.352-.652.617-.23.573-.23.922v.117c0 .344.077.646.23.906s.371.462.652.605.606.215.977.215.696-.073.977-.219zm-.133-5.121c.245-.138.435-.335.57-.59s.203-.55.203-.883v-.109c0-.317-.067-.599-.203-.844s-.325-.434-.57-.566-.526-.199-.844-.199-.599.066-.844.199-.435.321-.57.566-.203.528-.203.852v.117c0 .328.067.618.203.871s.325.448.57.586.526.207.844.207.599-.069.844-.207z"/></g><g><path class="st9" d="M288.276 427.708l3.813-8.227h1.641l-3.719 8.133h5.57v1.477h-7.305v-1.383zm4.899-3.554h1.555v6.688h-1.555v-6.688zM297.378 429.24h1.594v1.594l-1.594 1.578v-3.172zM307.026 420.896l-2.938 9.938h-1.695l2.938-9.844h-2.891v1.633h-1.594v-3.148h6.18v1.421z"/></g><g><path class="st9" d="M245.971 262.524l3.961-5.281c.229-.302.407-.616.535-.941s.191-.629.191-.91v-.016c0-.453-.133-.805-.398-1.055s-.644-.375-1.133-.375c-.464 0-.839.137-1.125.41s-.461.66-.523 1.16v.008h-1.648v-.008c.094-.651.285-1.207.574-1.668s.663-.813 1.121-1.055.987-.363 1.586-.363c.677 0 1.255.116 1.734.348s.844.569 1.094 1.012.375.977.375 1.602v.008c0 .401-.083.82-.25 1.258s-.398.859-.695 1.266l-3.289 4.469h4.297v1.516h-6.406v-1.385zM254.252 262.313h1.594v1.594l-1.594 1.578v-3.172zM259.678 263.688c-.445-.224-.808-.55-1.086-.977s-.465-.94-.559-1.539v-.008h1.594v.008c.058.417.224.741.5.973s.636.348 1.078.348c.511 0 .905-.171 1.184-.512s.418-.821.418-1.441v-.953c0-.614-.14-1.093-.418-1.434s-.673-.512-1.184-.512c-.276 0-.542.078-.797.234s-.479.375-.672.656h-1.453v-5.984h5.789v1.516h-4.195v2.555a2.275 2.275 0 011.414-.508c.656 0 1.218.136 1.684.406s.82.667 1.063 1.188.363 1.148.363 1.883v.953c0 .734-.125 1.362-.375 1.883s-.614.918-1.094 1.191-1.055.41-1.727.41c-.573 0-1.082-.112-1.527-.336z"/></g><g><path class="st9" d="M499.962 287.506l3.813-8.227h1.641l-3.719 8.133h5.57v1.477h-7.305v-1.383zm4.898-3.554h1.555v6.688h-1.555v-6.688zM509.063 289.038h1.594v1.594l-1.594 1.578v-3.172zM514.829 290.749l-.727-.348a2.857 2.857 0 01-1.168-1.008c-.294-.439-.48-.97-.559-1.59H514c.047.323.148.589.305.797.156.209.358.363.605.465s.538.152.871.152c.526 0 .935-.141 1.227-.422s.438-.677.438-1.188v-.344c0-.567-.138-1.006-.414-1.316-.276-.31-.667-.465-1.172-.465h-.805v-1.516h.805c.442 0 .786-.133 1.031-.398s.367-.641.367-1.125v-.352c0-.447-.129-.794-.387-1.039-.258-.244-.624-.367-1.098-.367-.271 0-.513.051-.727.152s-.395.258-.543.469-.257.476-.324.793h-1.617c.104-.619.301-1.15.59-1.594a2.893 2.893 0 011.098-1.008c.442-.229.95-.344 1.523-.344.979 0 1.737.258 2.273.773s.805 1.242.805 2.18v.188c0 .568-.153 1.063-.461 1.484s-.742.729-1.305.922c.62.136 1.101.44 1.441.914.341.475.512 1.078.512 1.813v.188c0 .662-.128 1.227-.383 1.695s-.626.826-1.113 1.07c-.487.245-1.074.367-1.762.367l-.951.002z"/></g></g></svg>