<svg version="1.1" id="_x31_38_1_" xmlns="http://www.w3.org/2000/svg" x="0" y="0" viewBox="0 0 488.632 531.331" xml:space="preserve"><style>.st1{stroke-width:.4;stroke-miterlimit:3}.st1,.st2{fill-rule:evenodd;clip-rule:evenodd;fill:none;stroke:#999;stroke-linecap:round;stroke-linejoin:round}.st2,.st3{stroke-miterlimit:3}.st3,.st4,.st5{fill:none;stroke:#000;stroke-linecap:round;stroke-linejoin:round}.st4{fill-rule:evenodd;clip-rule:evenodd;stroke-miterlimit:22.9256}.st5{stroke-miterlimit:3}.st5,.st6,.st8{fill-rule:evenodd;clip-rule:evenodd}.st8{fill:none;stroke:#666;stroke-width:.6;stroke-miterlimit:22.9256}</style><path fill-rule="evenodd" clip-rule="evenodd" fill="#fff" d="M446.538 6.09V.392H203.204V191.84H.608v226.666h5.763v112.433h481.766V6.09z"/><g id="mebel"><path class="st1" d="M226.088 71.16h57.247m-55.734-11.336h55.734m-55.734-11.335h55.734m-57.247-11.337h30.889m.005 0h26.354M226.09 25.817h24.527m12.727 0h19.992m-13.319 51.011V15.992m-22.672 60.836V15.992m-22.672 28.83M91.511 258.958l1.949-1.95m-8.896 1.95l8.896-8.897m-15.844 8.897l15.844-15.844m-22.79 15.844l22.79-22.791m-29.737 22.791L93.46 229.22m-36.684 29.738l36.684-36.685m-43.631 36.685l43.631-43.632m-47.234 40.287l40.109-40.11m-40.109 33.163l33.162-33.162M46.226 241.72l26.216-26.216m-26.216 19.268l20.783-20.784m-20.783 13.837l20.783-20.784M42.155 224.95l24.855-24.855M35.207 224.95l7.979-7.979m2.222-2.222L61.656 198.5m-33.395 26.45l6.839-6.839m9.922-9.922l9.689-9.689m-29.644 22.697l3.749-3.749m11.929-11.929l7.019-7.019m-13.919 6.971l6.971-6.971M26.078 206.291l7.79-7.791M25.067 200.356l1.856-1.856m66.537 20.551l-3.547-3.547m3.547 10.494l-10.493-10.494M67.01 199.547l-1.047-1.047m27.497 34.444l-17.44-17.44m-9.01-9.01l-7.994-7.994m34.444 41.392l-24.387-24.388m-2.063-2.063L52.07 198.5m41.39 48.338L45.122 198.5m48.338 55.285L38.175 198.5m53.511 60.458l-45.669-45.67m-8.155-8.155l-6.633-6.633m53.509 60.458l-41.849-41.85M31.5 205.719l-6.433-6.433m52.724 59.672l-31.565-31.566m-2.442-2.442l-6.658-6.658m-11.909-11.91l-.15-.15m45.778 52.726l-24.619-24.619m-9.389-9.389l-7.441-7.441m34.502 41.449l-17.672-17.672M29.891 224.95l-4.824-4.824m31.883 38.832l-10.724-10.724M50.004 258.958l-3.778-3.778m-34.384-34.385"/><path class="st2" d="M211.353 76.828h73.495m0 0v26.828m0 0h-73.495m0 0V76.828M219.928 101.509l-1.063-.081m0 0l-1.032-.242m0 0l-.968-.396m0 0l-.874-.536m0 0l-.755-.661m0 0l-.612-.766m0 0l-.451-.847m0 0l-.277-.905m0 0l-.093-.931m0 0V84.34m0 0l.093-.932m0 0l.277-.903m0-.001l.451-.848m0 .001l.612-.765m0-.001l.755-.661m0 0l.874-.537m0 0l.968-.395m0 0l1.032-.242m0 0l1.063-.082m0 0h49.608m0 0l2.234.171m0 0l2.166.509m0 0l2.031.83m0 0l1.837 1.127m0 0l1.585 1.388m0 0l1.286 1.609m0 0l.947 1.78m0 0l.58 1.897m0 0l.196 1.956m0 .001l-.196 1.957m0-.001l-.58 1.898m0 0l-.947 1.78m0 .001l-1.286 1.609m0-.001l-1.585 1.388m0 0L275.967 100m0 0l-2.031.83m0 0l-2.166.508m0 0l-2.234.171m0 0h-49.608M221.366 90.242a.945.945 0 11-1.89 0 .945.945 0 011.89 0zM250.578 30.984l.469 1.645m0 0l.718 1.551m0 0l.968 1.23m0 0l1.248.943m0 0l1.448.594m0 0l1.55.205m0 0l1.552-.205m0 0l1.447-.594m0 0l1.249-.943m0 0l.967-1.23m0 0l.719-1.551m0 0l.469-1.645m0 0l.207-1.698m0 0l-.059-1.709m0 0l-1.223-11.585m0 0h-10.654m0 0l-1.223 11.585m0 0l-.059 1.709m0 0l.207 1.698M261.097 21.713h-4.117M256.979 21.713h-4.115M260.044 35.98c-.89.57-1.962.881-3.064.887M263.292 29.151c.165 2.591-1.031 5.106-3.248 6.829M261.097 21.713c1.506 2.253 2.266 4.827 2.195 7.437M250.669 29.151c-.07-2.61.689-5.185 2.194-7.437M253.917 35.98c-2.217-1.723-3.414-4.238-3.248-6.829M256.979 36.867a5.743 5.743 0 01-3.063-.887M261.628 15.992h-9.296m0 0v.189m0 0h9.296m0 0v-.189M247.533 15.992h18.894M247.533 11.458h18.894M247.533 15.992v-4.534M266.427 15.992v-4.534M46.227 258.959v-34.008M46.227 224.951H11.842M19.398 252.346a.944.944 0 11-1.889 0 .944.944 0 011.889 0zM24.825 243.248l.372 1.397m0 0l.792 1.208m0 0l1.133.899m0 0l1.358.496m0 0l1.445.043m0 0l1.384-.414m0 0l1.185-.828m0 0l.864-1.159m0 0l.454-1.372m0 0v-1.446m0 0l-.454-1.372m0 0l-.864-1.159m0 0l-1.185-.828m0 0l-1.384-.414m0 0l-1.445.043m0 0l-1.358.496m0 0l-1.133.898m0 0l-.792 1.209m0 0l-.372 1.397m0 0h-5.538m0 0l.108-.456m0 0l.037-.49m0 0l-.037-.488m0 0l-.108-.456m0 0l-.173-.392m0 0l-.224-.299m0 0l-.261-.189m0 0l-.281-.064m0 0h-.402m0 0l-.12.019m0 0l-.278.064m0 0l-.104.054m0 0l-.25.181m0 0l-.07.078m0 0l-.205.275m0 0l-.157.356m0 0l-.052.195m0 0l-.06.25m0 0l-.687.02m0 0l-.796.01m0 0v-1.729m0 0h-.435m0 0v-2.872m0 0l-.059-.159m0 0l-.148-.084m0 0l-.167.033m0 0l-.105.134m0 0l-.157.485m0 0l-.316.727m0 0l-.573 1.007m0 0l-.259.729m0 0h-.124m0 0v-.605m0 0h-.982m0 0v2.57m0 0h.877m0 0l.038.063m0 0l.034.032m0 0l.04.025m0 0l.673.278m0 0v.698m0 0h-1.361m0 0v-1.059m0 0h-.301m0 0v3.024m0 0h.301m0 0v-1.059m0 0h1.361m0 0v1.437m0 0h.151m0 0v.415m0 0h-.303m0 0v-.151m0 0h-.528m0 0v-.605m0 0h-.982m0 0v2.57m0 0h.982m0 0v-.604m0 0h.528m0 0v-.152m0 0h.303m0 0v.152m0 0h1.512m0 0v-2.571m0 0h2.153m0 0v-.082m0 0v-.093m0 0v-.124m0 0v-.149m0 0v-.043m0 0h7.505M13.504 240.906v.209m0 0l-.341-.141m0 0l-.053-.325m0 0l.002-.008m0 0h.241m0 0v-.151m0 0h.302m0 0v.416m0 0h-.151M13.655 239.431h-.24m0 0l.239-.676m0 0l.563-.988m0 0l.024-.053m0 0v1.567m0 0h-.586m0 0v.15M12.824 245.289h.528M12.824 245.968h.528M12.824 239.632v-.352M13.353 240.49v-.189M13.353 240.301v-.681M13.353 239.621v-.015M13.177 240.301h.176M13.348 239.621h.005M13.655 239.431v1.059M15.167 241.784v.558M14.241 239.281h.491M15.734 241.85v.491M14.72 236.485l.013-.076M12.616 240.635l.002.047M12.649 240.464l-.032.171M12.7 241.179l.01.046M12.71 241.225l.009.021M12.948 239.281l-.16.453M12.788 239.734l-.14.73M13.121 240.589l-.011.061M14.72 236.485l-.167.512M14.553 236.997l-.312.718M12.805 239.691v.001M12.618 240.681l.082.498M17.222 242.339l-.002.003M16.691 242.342l-.002-.003M14.052 240.906h-.128M13.807 240.906h-.104M13.924 240.906h-.117M13.504 241.115v.523M13.261 239.867l-.14.723M13.415 239.431l-.154.436M14.138 241.585h.108a.108.108 0 10-.216 0 .108.108 0 00.216 0h-.108zM14.093 241.495l.045.091M14.078 241.396l.015.099M14.093 241.299l-.015.097M14.138 241.208l-.045.091M14.138 241.208v-.001M16.634 241.051l-.026.345M16.607 241.396l.027.345M16.651 240.98l-.017.071M16.71 242.062l.052.196M16.634 241.741l.076.321M14.305 241.028l.062-.009M16.762 242.258l.036.084M16.651 241.812l-.688-.02M14.366 241.774l-.062-.009M14.305 241.765l-.058-.026M14.247 241.739l-.05-.042M14.197 241.697l-.038-.055M14.159 241.642l-.021-.057M14.138 241.585l-.003-.007M14.135 241.578l-.008-.068M14.127 241.51v-.227M14.127 241.283l.008-.068M14.135 241.214l.003-.007M14.138 241.207l.021-.056M14.159 241.151l.038-.055M14.197 241.096l.05-.042M14.247 241.054l.058-.025M15.963 241.793l-1.597-.019M15.167 241.01l-.801.009M14.864 240.906v.107M14.864 241.78v.562M24.825 243.248h5.343M24.825 242.342h5.343M30.168 243.248v-.906M12.824 246.309v-1.36M13.353 246.158v-1.059M13.655 246.158v-1.059M13.655 244.684h1.209M14.864 240.906h-1.209M12.144 243.248v-.906M13.504 243.248h3.816M19.287 242.342h-5.783M14.864 244.684v-1.437M15.167 243.739v-.491M15.734 243.739v-.491M15.167 241.85h1.493M27.503 242.342a1.888 1.888 0 113.668.906 1.889 1.889 0 01-3.668 0M14.781 244.684a.34.34 0 11-.589 0M92.894 198.5H67.577m0 0l-.401.166m0 0l-.166.4m0 0v15.871m0 0l.166.401m0 0l.401.166m0 0h25.317m0 0l.4-.166m0 0l.166-.401m0 0v-15.871m0 0l-.166-.4m0 0l-.4-.166M91.76 202.656H80.688m-.907 0H68.71M68.144 203.223v10.58M68.71 214.371h23.05M92.326 213.803v-10.58M68.144 203.223c0-.313.254-.567.566-.567M68.71 214.371a.568.568 0 01-.566-.567M92.326 213.803a.568.568 0 01-.566.567M91.76 202.656c.312 0 .566.254.566.567M80.99 206.16a.757.757 0 01-.302.605v-1.21a.754.754 0 01.302.605zm-1.209.604a.757.757 0 010-1.21v1.21zM79.781 199.029h.907m0 0v7.748m0 0l-.256.301m0 0h-.395m0 0l-.256-.301m0 0v-7.748M80.99 199.029h-1.511m0 0v-.265m0 0h1.511m0 0v.265M81.368 198.764h-2.267m0 0v-.265m0 0h2.267m0 0v.265M83.503 200.389v-1.625m0 0h-.094m0 0v-.132m0 0h-.284m0 0v-.133m0 0h1.89m0 0v.133m0 0h-.283m0 0v.132m0 0h-.095m0 0v1.625m0 0h-.322m0 0v.415m0 0h1.078m0 0v.492m0 0h-2.646m0 0v-.492m0 0h1.077m0 0v-.415m0 0h-.321M76.966 200.389v-1.625m0 0h.095m0 0v-.132m0 0h.283m0 0v-.133m0 0h-1.889m0 0v.133m0 0h.283m0 0v.132m0 0h.095m0 0v1.625m0 0h.321m0 0v.415m0 0h-1.077m0 0v.492m0 0h2.645m0 0v-.492m0 0h-1.076m0 0v-.415m0 0h.32M84.316 200.804l-.072.072M83.824 200.804l.072.072M84.316 200.389h-.491M84.637 198.764h-1.134M83.409 198.632h1.322M76.153 200.804l.072.072M76.646 200.804l-.072.072M76.153 200.389h.492M75.833 198.764h1.133M77.061 198.632h-1.322M84.316 201.051a.246.246 0 11-.491 0 .246.246 0 01.491 0zM76.646 201.051a.246.246 0 11-.492 0 .246.246 0 01.492 0zM40.059 205.323l1.645.47m0 0l1.551.717m0 0l1.23.968m0 0l.943 1.248m0 0l.594 1.449m0 0l.205 1.55m0 0l-.205 1.551m0 0l-.594 1.447m0 0l-.943 1.249m0 0l-1.23.967m0 0l-1.551.719m0 0l-1.645.469m0 0l-1.698.208m0 0l-1.709-.06m0 0l-11.585-1.223m0 0v-10.654m0 0l11.585-1.222m0 0l1.709-.06m0 0l1.698.207M30.788 215.842v-4.116M30.788 211.725v-4.117M45.941 211.725a5.746 5.746 0 01-.886 3.063M45.056 214.789c-1.724 2.217-4.239 3.413-6.83 3.248M38.226 218.037c-2.609.07-5.185-.689-7.437-2.195M30.788 207.608c2.253-1.505 4.828-2.265 7.437-2.194M38.226 205.414c2.591-.165 5.106 1.031 6.829 3.248M45.055 208.662c.57.889.881 1.961.887 3.063M25.066 216.373v-9.295m0 0h.189m0 0v9.295m0 0h-.189M25.066 202.279v18.893M20.532 202.279v9.824M25.066 202.279h-4.533M25.066 221.171h-3.022M367.823 340.833h-3.028m0 0v.859m0 0v17.175m0 0v.86m0 0h3.028M361.368 359.726h3.427m0 0v-.859m0 0h-3.225m0 0v.057m0 0l.196.294m0 0l-.086.343m0 0l-.312.165M359.009 358.924l.196.294m0 .001l-.087.343m0-.001l-.312.165m0 .001h2.562m0 0l.313-.165m0-.001l.086-.343m0 .001l-.196-.294m0-.001v-17.29m0 .001l.196-.294m0-.001l-.086-.343m0 0l-.313-.165m0 0h-2.562m0 0l.312.165m0 0l.087.343m0 0l-.196.294m0 .001v17.29M361.368 340.833l.312.165m0 0l.086.343m0 0l-.196.294m0 0v.057m0 0h3.225m0 0v-.859m0 0h-3.427M358.603 358.062v-15.565m0 0l-.227 1.004m0 0v13.556m0 0l.227 1.005M358.603 358.924l-.196.294m.001.001l.086.343m-.001-.001l.312.165m.001.001l.313-.165m0-.001l.087-.343m0 .001l-.197-.294m0-.001v-17.29m0 .001l.197-.294m0-.001l-.087-.343m0 0l-.313-.165m0 0l-.312.165m-.001 0l-.086.343m.001 0l.196.294m-.001.001v17.29M367.823 318.917h-3.028m0 0v.858m0 0v17.176m0 0v.859m0 0h3.028M361.368 337.809h3.427m0 0v-.858m0 0h-3.225m0 0v.057m0 0l.196.294m0 0l-.086.342m0 0l-.312.165M359.009 337.009l.196.294m0-.001l-.087.342m0 .001l-.312.165m0 0h2.562m0 0l.313-.165m0 0l.086-.342m0-.001l-.196-.294m0 .001v-17.291m0-.001l.196-.294m0 0l-.086-.342m0 .001l-.313-.165m0 0h-2.562m0 0l.312.165m0 0l.087.342m0-.001l-.196.294m0 0v17.291M361.368 318.917l.312.165m0 0l.086.342m0 0l-.196.294m0 0v.057m0 0h3.225m0 0v-.858m0 0h-3.427M358.603 336.146V320.58m0 0l-.227 1.004m0 0v13.557m0 0l.227 1.005M358.603 337.009l-.196.294m.001-.001l.086.342m-.001.001l.312.165m.001 0l.313-.165m0 0l.087-.342m0-.001l-.197-.294m0 .001v-17.291m0-.001l.197-.294m0 0l-.087-.342m0 .001l-.313-.165m0 0l-.312.165m-.001 0l-.086.342m.001-.001l.196.294m-.001 0v17.291M401.832 340.833h3.027m0 0v.859m0 0v17.175m0 0v.86m0 0h-3.027M408.286 359.726h-3.427m0 0v-.859m0 0h3.225m0 0v.057m0 0l-.196.294m0 0l.086.343m0 0l.312.165M410.646 358.924l-.196.294m-.001.001l.087.343m0-.001l.312.165m.001.001h-2.562m0 0l-.313-.165m0-.001l-.086-.343m-.001.001l.196-.294m.001-.001v-17.29m0 .001l-.196-.294m-.001-.001l.086-.343m.001 0l.313-.165m0 0h2.562m0 0l-.312.165m-.001 0l-.087.343m0 0l.196.294m.001.001v17.29M408.286 340.833l-.312.165m0 0l-.086.343m0 0l.196.294m0 0v.057m0 0h-3.225m0 0v-.859m0 0h3.427M411.051 358.062v-15.565m0 0l.227 1.004m0 0v13.556m0 0l-.227 1.005M411.051 358.924l.196.294m0 .001l-.086.343m0-.001l-.312.165m0 .001l-.313-.165m0-.001l-.087-.343m0 .001l.197-.294m0-.001v-17.29m0 .001l-.197-.294m0-.001l.087-.343m0 0l.313-.165m0 0l.312.165m0 0l.086.343m0 0l-.196.294m0 .001v17.29M401.832 318.917h3.027m0 0v.858m0 0v17.176m0 0v.859m0 0h-3.027M408.286 337.809h-3.427m0 0v-.858m0 0h3.225m0 0v.057m0 0l-.196.294m0 0l.086.342m0 0l.312.165M410.646 337.009l-.196.294m-.001-.001l.087.342m0 .001l.312.165m.001 0h-2.562m0 0l-.313-.165m0 0l-.086-.342m-.001-.001l.196-.294m.001.001v-17.291m0-.001l-.196-.294m-.001 0l.086-.342m.001.001l.313-.165m0 0h2.562m0 0l-.312.165m-.001 0l-.087.342m0-.001l.196.294m.001 0v17.291M408.286 318.917l-.312.165m0 0l-.086.342m0 0l.196.294m0 0v.057m0 0h-3.225m0 0v-.858m0 0h3.427M411.051 336.146V320.58m0 0l.227 1.004m0 0v13.557m0 0l-.227 1.005M411.051 337.009l.196.294m0-.001l-.086.342m0 .001l-.312.165m0 0l-.313-.165m0 0l-.087-.342m0-.001l.197-.294m0 .001v-17.291m0-.001l-.197-.294m0 0l.087-.342m0 .001l.313-.165m0 0l.312.165m0 0l.086.342m0-.001l-.196.294m0 0v17.291M287.979 189.441h135.544m.001 0v-15.115m0 0H287.979m0 0v15.115M287.979 188.685h135.545M355.752 189.441v-.756M287.979 189.441v-.756M401.831 307.316h-34.008m0 0v60.458m0 0h34.008m0 0v-60.458M22.044 224.951H11.842m0 0v-12.848m0 0h10.202m0 0v12.848M226.09 33.941h-14.737m0 0v10.881m0 0h14.737m0 0V33.941M211.353 76.828h14.737m0 0V65.947m0 0h-14.737m0 0v10.881M309.651 293.343v22.672m0 0h-21.728m-.001 0v-22.672m0 0h21.728M295.165 304.679h7.243M296.226 302.119l5.121 5.121M298.786 301.058v7.242M301.347 302.119l-5.121 5.121M329.141 377.607h21.916m0 0v18.515m0 0h-21.916m0 0v-18.515M340.099 388.887v5.299M340.099 394.186h1.096M340.099 388.887h1.096M348.952 388.887v5.299M347.856 394.186h1.097M347.856 388.887h1.097M336.592 391.753a2.739 2.739 0 11-5.477 0 2.739 2.739 0 015.477 0zM339.091 383.513a3.967 3.967 0 11-7.935 0 3.969 3.969 0 017.935 0z"/><path class="st2" d="M337.391 383.513a2.268 2.268 0 11-4.536 0 2.268 2.268 0 014.536 0zM347.171 391.567a2.645 2.645 0 11-5.29.001 2.645 2.645 0 015.29-.001zM349.044 382.976a3.4 3.4 0 11-6.8.002 3.4 3.4 0 016.8-.002zM322.8 375.529h34.598M322.8 398.201h34.598M322.8 375.529v22.672M357.398 375.529v22.672M307.288 317.716v19.271m0 0l-.221.535m0 0l-.534.22m0-.001h-17.382m0 0l-.535-.22m0 .001l-.221-.535m0 0v-19.271m0 0l.221-.534m0-.001l.535-.221m0 0h17.382m0 0l.534.221m0 0l.221.534M309.651 316.015v22.672M287.923 316.015v22.672M309.651 316.015h-21.729M309.651 338.687h-21.729M305.399 319.605v15.492M304.644 335.853H292.93M292.174 335.097v-7.003m0-1.486v-7.003M292.93 318.849h11.714M305.399 319.605h.108c0-.06-.048-.108-.108-.108s-.108.048-.108.108.048.108.108.108.108-.048.108-.108h-.108zM305.399 335.097a.756.756 0 01-.756.756M292.93 335.853a.756.756 0 01-.756-.756M292.174 319.605c0-.418.339-.756.756-.756M304.644 318.849c.417 0 .756.338.756.756M297.007 327.012l.24.1m0-.001l.099.241m0 .001l-.101.24m0-.001l-.24.099m0 0h-7.477m0 0l-.24-.1m0 0l-.099-.24m0 0l.099-.24m0 0l.24-.1m0 .001h7.479M291.456 326.596v.415m0 .001h-1.928m0 0l-.24.1m0-.001l-.1.24m0 0l.1.24m0 0l.24.1m0 0h1.928m0 0v.414m0 0H289m0 0v-1.509m0 0h2.456M292.816 326.607v.404m0 0h-1.322m0 0v-.404m0 0h1.322M292.816 328.095h-1.322m0 0v-.404m0 0h1.322m0 0v.404M309.651 338.687v22.672M287.923 338.687v22.672M309.651 338.687h-21.729M309.651 361.359h-21.729M410.146 265.004v-1.889m0 0h-63.935m.001 0v1.889m0 0h63.935M410.146 227.217H378.18m0 0v26.45m0 .001h31.967m-.001 0v-26.45M378.18 227.217h-31.968m0 0v26.45m0 .001h31.968m0 0v-26.45M346.212 227.217h-9.598m0 0v37.786m0 0h9.598m0 0v-1.89m0-9.445v-26.45M419.745 227.217h-9.599m0 0v26.45m0 9.447v1.89m0-.001h9.599m0 0v-37.786M378.18 263.115v-9.447m0 0h-36.767m0 0v9.447m0 0h36.767M378.18 263.115v-9.447m0 0h36.767m0 0v9.447m0 0H378.18M304.611 346.866a3.411 3.411 0 11-6.822.002 3.411 3.411 0 016.822-.002z"/><path class="st2" d="M304.09 346.866a2.89 2.89 0 11-5.78.001 2.89 2.89 0 015.78-.001zM304.611 353.174a2.58 2.58 0 11-5.16 0 2.58 2.58 0 015.16 0z"/><path class="st2" d="M303.478 353.174a1.444 1.444 0 11-2.891 0 1.444 1.444 0 012.891 0zM229.868 119.527a7.179 7.179 0 01-14.358 0 7.179 7.179 0 1114.358 0zM407.725 19.96a3.778 3.778 0 11-7.557 0 3.778 3.778 0 017.557 0z"/><path class="st2" d="M405.079 19.96a1.134 1.134 0 11-2.269 0 1.134 1.134 0 012.269 0zM318.927 19.96a3.778 3.778 0 11-7.557 0 3.778 3.778 0 017.557 0z"/><path class="st2" d="M316.281 19.96a1.134 1.134 0 11-2.269 0 1.134 1.134 0 012.269 0zM152.596 296.353a3.778 3.778 0 11-7.557 0 3.778 3.778 0 017.557 0z"/><path class="st2" d="M149.95 296.353a1.134 1.134 0 11-2.267 0 1.134 1.134 0 012.267 0zM152.596 385.151a3.778 3.778 0 11-7.557 0 3.778 3.778 0 017.557 0z"/><path class="st2" d="M149.95 385.151a1.134 1.134 0 11-2.267 0 1.134 1.134 0 012.267 0zM24.122 296.744a3.778 3.778 0 11-7.557.001 3.778 3.778 0 017.557-.001z"/><path class="st2" d="M21.478 296.744a1.134 1.134 0 11-2.267 0 1.134 1.134 0 012.267 0zM24.122 385.543a3.778 3.778 0 11-7.556 0 3.778 3.778 0 017.556 0z"/><path class="st2" d="M21.478 385.543a1.134 1.134 0 11-2.267-.001 1.134 1.134 0 012.267.001zM393.554 90.809h-68.015m0 0V15.236m0 0h68.015m0 0v75.573M391.665 92.698h-64.236m0 0l-.724-.144m0 0l-.612-.409m0 0l-.41-.613m0 0l-.144-.723m0 0h68.015m0 0l-.144.723m0 0l-.409.613m0 0l-.613.409m0 0l-.723.144M393.554 11.458h-68.015m0 0v3.778m0 0h68.015m0 0v-3.778M325.539 11.458h68.015m0 0v1.89m0 0h-68.015m0 0v-1.89M323.649 11.458h-17.004m.001 0v18.894m0 0h17.004m-.001 0V11.458M395.443 11.458h17.004m.001 0v18.894m0 0h-17.004m-.001 0V11.458M353.501 17.126h-25.695m0 0l-.267.11m0 0l-.11.268m0 0v12.47m0 0l.11.266m0 0l.267.112m0 0h25.695m0 0l.267-.112m0 0l.111-.266m0 0v-12.47m0 0l-.111-.268m0 0l-.267-.11M365.593 17.126h25.694m0 0l.267.11m0 0l.111.268m0 0v12.47m0 0l-.111.266m0 0l-.267.112m0 0h-25.694m0 0l-.268-.112m0 0l-.11-.266m0 0v-12.47m0 0l.11-.268m0 0l.268-.11M393.554 29.328h-1.889M365.215 29.328h-11.336M327.429 29.328h-1.89M393.554 34.337h-68.015m0 0v18.687m0-.001l68.015-14.909m0 .001v-3.778M423.524 165.248v-22.672m0 0h-97.871m-.001 0v22.672m0 0h97.871M325.539 153.535v.755m0 0h97.984m0 0v-.755m0 0h-97.984M416.086 163.255v-18.627m0 0h-.756m0 0v18.627m0 0h.756M414.081 163.255v-18.627m0 0h-.755m0 0v18.627m0 0h.755M412.077 163.255v-18.627m0 0h-.756m0 0v18.627m0 0h.756M410.072 163.255v-18.627m0 0h-.756m0 0v18.627m0 0h.756M405.826 163.12l2.241-18.491m0 0l-.75-.091m0 0l-2.241 18.491m0 0l.75.091M211.353 130.863h22.672m0 0v58.568m0 0h-22.672m0 0v-58.568M223.067 189.431h-.756m0 0v-58.568m0 0h.756m0 0v58.568M213.346 140.481h18.626m0 0v.756m0 0h-18.626m0 0v-.756M213.346 142.486h18.626m0 0v.756m0 0h-18.626m0 0v-.756M213.346 144.491h18.626m0 0v.755m0 0h-18.626m0 0v-.755M213.346 146.496h18.626m0 0v.755m0 0h-18.626m0 0v-.755M213.482 150.741l18.49-2.241m0 0l.092.75m-.001 0l-18.491 2.242m.001 0l-.091-.751M96.484 198.5v21.538m0 0h46.854m-.001 0V198.5m0 0H96.484M143.338 209.647v-.756m0 0H96.484m0 0v.756m0 0h46.854M99.826 199.926v18.626m0 0h.756m0 0v-18.626m0 0h-.756M101.831 199.926v18.626m0 0h.756m0 0v-18.626m0 0h-.756M103.835 199.926v18.626m0 0h.756m0 0v-18.626m0 0h-.756M105.84 199.926v18.626m0 0h.756m0 0v-18.626m0 0h-.756M110.086 200.061l-2.241 18.491m0 0l.75.091m0 0l2.241-18.491m0 0l-.75-.091M200.773 198.5v21.538m0 0h30.229m0 0V198.5m0 0h-30.229M231.002 209.647v-.756m0 0h-30.229m0 0v.756m0 0h30.229M225.879 199.926v18.626m0 0h-.756m0 0v-18.626m0 0h.756M223.874 199.926v18.626m0 0h-.756m0 0v-18.626m0 0h.756M219.628 200.061l2.241 18.491m0 0l-.75.091m0 0l-2.241-18.491m0 0l.75-.091M219.666 374.759v-68.016m0 0h-75.572m0 0v68.016m0 0h75.572M221.556 372.871v-64.237m0 0l-.144-.723m0 0l-.41-.613m0 0l-.613-.409m0 0l-.723-.145m0 0v68.016m0 0l.723-.144m0 0l.613-.409m0 0l.41-.613m0 0l.144-.723M140.315 374.759v-68.016m0 0h3.779m0 0v68.016m0 0h-3.779M140.315 306.744v68.016m0 0h1.89m0 0v-68.016m0 0h-1.89M140.315 304.855v-17.004m0 0h18.894m0 0v17.004m0 0h-18.894M140.315 376.649v17.004m0 0h18.894m0 0v-17.004m0 0h-18.894M145.984 334.706v-25.694m0 0l.11-.268m-.001 0l.267-.11m.001 0h12.47m-.001 0l.267.11m0 0l.111.268m.001 0v25.694m0 0l-.111.268m-.001 0l-.267.11m0 0h-12.47m.001 0l-.267-.11m-.001 0l-.11-.268M145.984 346.798v25.695m0 0l.11.267m-.001 0l.267.111m.001-.001h12.47m-.001 0l.267-.111m0 .001l.111-.267m.001 0v-25.695m0 0l-.111-.267m-.001 0l-.267-.111m0-.001h-12.47m.001 0l-.267.111m-.001.001l-.11.267M158.185 374.759v-1.889M158.185 346.419v-11.336M158.185 308.633v-1.89M163.194 374.759v-68.016m0 0h18.686m0 0l-14.908 68.016m0 0h-3.778M91.192 375.151v-68.016m0 0H15.62m0 0v68.016m0 0h75.572M93.082 373.261v-64.236m0 0l-.144-.724m0 .001l-.41-.612m0 0l-.612-.41m0-.001l-.724-.144m0 0v68.016m0 0l.724-.144m0 .001l.612-.41m0-.001l.41-.613m0 0l.144-.723M11.842 375.151v-68.016m0 0h3.778m0 0v68.016m0 0h-3.778M11.842 307.135v68.016m0 0h1.889m0 0v-68.016m0 0h-1.889M11.842 305.246v-17.004m0 0h18.893m0 0v17.004m0 0H11.842M11.842 377.04v17.004m0 0h18.893m0 0V377.04m0 0H11.842M17.51 335.097v-25.694m0 0l.11-.268m0 0l.268-.11m0 0h12.469m0 0l.267.11m0 0l.111.268m0 0v25.694m0 0l-.111.268m0 0l-.267.11m0 0H17.888m0 0l-.268-.11m0 0l-.11-.268M17.51 347.189v25.694m0 0l.11.268m0 0l.268.11m0 0h12.469m0 0l.267-.11m0 0l.111-.268m0 0v-25.694m0 0l-.111-.268m0 0l-.267-.11m0 0H17.888m0 0l-.268.11m0 0l-.11.268M29.711 375.151v-1.89M29.711 346.811v-11.336M29.711 309.025v-1.89M34.721 375.151v-68.016m0 0h18.686m0 0l-14.908 68.016m0 0h-3.778M284.848 398.201h-22.672m0 0v-136.22m0 0h22.672m0 0v136.22M273.134 261.981h.756m0 0v136.22m0 0h-.756m0 0v-136.22M282.855 390.763h-18.626m-.001 0v-.756m0 0h18.626m.001 0v.756M282.855 388.759h-18.626m-.001 0v-.755m0 0h18.626m.001 0v.755M282.855 386.754h-18.626m-.001 0v-.756m0 .001h18.626m.001 0v.756M282.855 384.75h-18.626m-.001 0v-.756m0 0h18.626m.001 0v.756M282.72 380.504l-18.491 2.241m0 0l-.091-.75m0 0l18.49-2.241m0 0l.092.75M11.842 261.981v22.672m0 0h78.973m0 0v-22.672m0 0H11.842M90.815 273.695v-.756m0 0H11.842m0 0v.756m0 0h78.973M19.278 263.974V282.6m0 0h.756m0 0v-18.626m0 0h-.756M21.283 263.974V282.6m0 0h.756m0 0v-18.626m0 0h-.756M23.288 263.974V282.6m0 0h.755m0 0v-18.626m0 0h-.755M25.292 263.974V282.6m0 0h.756m0 0v-18.626m0 0h-.756M29.538 264.109L27.297 282.6m0 0l.75.091m0 0l2.241-18.491m0 0l-.75-.091M396.156 180.572v-1.02m0 0h-44.369m0 0v1.02m0 0h44.369M394.752 179.552l.71-3.41m0 0l.68.141m0 0l-.68 3.269m0 0h-.71M386.455 179.552v-.832m0 0l-.152-.567m0 .001l-.415-.415m0-.001l-.567-.152m0 0h-22.699m0 0l-.566.152m0 0l-.415.415m0 .001l-.153.567m0-.001v.832m0 0h24.967M394.752 180.93l.71 3.41m0-.001l.68-.141m0 0l-.68-3.269m0 .001h-.71M353.192 179.552l-.71-3.41m-.001 0l-.68.141m0 0l.68 3.269m0 0h.71M353.192 180.87l-.71 3.41m-.001 0l-.68-.141m0 0l.68-3.269m0 0h.71M396.156 180.87v-.298m0 0h-44.369m0 0v.298m0 0h44.369M226.09 33.941h-14.737m0 0v42.887m0 0h14.737m0 0V33.941M303.407 342.797v.964m0 .001h1.204m0 0v12.523m0 0h-1.204m0 0v.964M293.402 344.262v9.634m0-.001h.479m0 0v-.723m0 0h-.238m0 0v-8.188m0 0h.238m0 0v-.723m0 .001h-.479M293.881 353.895l.104-.048m.102-.047l.104-.047m.102-.046l.104-.047m.103-.048l.103-.047m.103-.047l.103-.048m.103-.047l.103-.047m.103-.046l.103-.048m.103-.047l.104-.047m.102-.048l.104-.047m.102-.047l.104-.047m.103-.047l.103-.047m.104-.047l.102-.048m.104-.047l.102-.047m.104-.047l.102-.047m.104-.047l.102-.047m.104-.048l.103-.047m.103-.047l.103-.047M293.881 344.262v.078m0 .113v.114m0 .112v.113m0 .114v.078m0 0l.052.042m.088.071l.088.071m.087.072l.088.072m.088.07l.089.072m.088.072l.088.071m.088.071l.088.072m.088.072l.087.071m.088.071l.089.072m.088.072l.088.071m.088.071l.088.072m.088.072l.088.071m.087.071l.088.071m.089.072l.088.071m.088.072l.088.071m.088.071l.088.072m.088.072l.087.072m.089.07l.088.072m.088.071l.088.071m.088.072l.088.072m.088.071l.088.071m.087.072l.089.071m.088.071l.088.073m.088.072l.052.042M293.881 353.895v-.078m0-.113v-.114m0-.113v-.113m0-.114v-.078m0 0l.052-.042m.088-.071l.088-.071m.087-.072l.088-.071m.088-.072l.089-.071m.088-.072l.088-.071m.088-.071l.088-.072m.088-.071l.087-.072m.088-.071l.089-.072m.088-.071l.088-.071m.088-.072l.088-.072m.088-.071l.088-.071m.087-.072l.088-.071m.089-.071l.088-.072m.088-.072l.088-.071m.088-.071l.088-.072m.088-.071l.087-.071m.089-.072l.088-.072m.088-.071l.088-.071m.088-.072l.088-.072m.088-.071l.088-.071m.087-.072l.089-.071m.088-.071l.088-.073m.088-.071l.052-.042M309.651 361.359h-21.728m-.001 0v36.842m0 0h23.428m.001 0H322.8m-.001 0v-22.672m0 0H309.65m.001 0v-14.17M309.651 293.343h-7.799m-.001 0v-17.382m0 0h7.799m.001 0v17.382M223.205 125.535l-.449-1.233m0 0v-1.313m0 0l.449-1.233m0 0l-.343-1.473m0 0v-1.513m0 0l.343-1.472m0 0l-.45-1.235m0 0v-1.314m0 0l.45-1.235m0 0l-2.987 2.232m0 0v7.558m0 0l2.987 2.231M219.956 123.303v-7.558m0 0h.262m0 0v7.558m0 0h-.262M219.433 123.303v-7.558m0 0h.262m0 0v7.558m0 0h-.262M224.721 118.683l.085.891m0 0l-.227.021m0 0l-.045-.476m0 0l-1.142 1.382m0 0l-.152-.125m0 0l.53-.642m0 0l-.081-.067m0 0l-.612.74m0 0l-.146-.121m0 0l.611-.74m0 0l-.097-.08m0 0l-.497.601m0 0l-.13-.108m0 0l.496-.6m0 0l-.097-.081m0 0l-.343.415m0 0l-.139-.116m0 0l1.174-1.422M234.024 130.863v-22.672m0 0h-22.672m0 0v22.672m0 0h22.672M140.315 281.63v-22.671m0-.001h70.472m0 0v22.671m0 .001h-70.472M210.786 269.916v.756m0 0h-70.472m0 0v-.756m0 0h70.472M149.934 279.636V261.01m0 0h.756m0 0v18.626m0 0h-.756M151.939 279.636V261.01m0 0h.756m0 0v18.626m0 0h-.756M153.942 279.636V261.01m0 0h.756m0 0v18.626m0 0h-.756M155.947 279.636V261.01m0 0h.756m0 0v18.626m0 0h-.756M160.194 279.502l-2.241-18.491m0-.001l.75-.091m0 0l2.242 18.491m-.001.001l-.751.091M407.625 19.099l-3.68.86m0 0l-1.583 3.431m0 0l1.583-3.431m0 0l-1.305-3.546M311.469 19.099l3.679.86m0 0l1.584 3.431m0 0l-1.584-3.431m0 0l1.306-3.546M147.956 292.673l.86 3.68m0 0l3.431 1.584m0 0l-3.431-1.584m0 0l-3.545 1.305M147.956 388.83l.86-3.679m0 0l3.431-1.584m0 0l-3.431 1.584m0 0l-3.545-1.306M19.483 293.065l.86 3.679m.001 0l3.431 1.584m0 0l-3.431-1.584m0 0l-3.546 1.306M19.483 389.221l.86-3.679m.001 0l3.431-1.584m0 0l-3.431 1.584m0 0l-3.546-1.306M211.353 45.388V65.38m0 .001l.167.401m0-.001l.4.166m0 .001h15.115m0 0l.401-.166m0-.001l.166-.401m0 .001V45.388m0 0l-.166-.4m0 0l-.401-.166m0 0H211.92m0 0l-.4.166m0 0l-.167.4M215.51 46.522v8.41m0 .906v8.41M216.076 64.813h9.825M226.468 64.247V46.522M225.902 45.956h-9.826M216.076 64.813a.567.567 0 01-.566-.566M226.468 64.247a.567.567 0 01-.566.566M225.902 45.956c.312 0 .566.253.566.566M215.51 46.522c0-.313.254-.566.566-.566M219.412 55.838a.754.754 0 01-1.209 0h1.209zm-1.21-.906a.753.753 0 011.209 0h-1.209zM211.882 55.838v-.906m0-.001h7.748m0 0l.301.256m0 .001v.394m0 0l-.301.256m0 0h-7.748M211.882 54.629v1.512m0 0h-.264m0 0v-1.512m0 0h.264M211.618 54.251v2.268m0 0h-.266m0 0v-2.268m0 0h.266M213.242 52.116h-1.624m0 0v.095m0 0h-.133m0 0v.283m0 0h-.133m0 0v-1.89m0 0h.133m0 0v.283m0 0h.133m0 0v.095m0 0h1.624m0 0v.322m0 0h.416m0 0v-1.078m0 0h.491m0 0v2.646m0 0h-.491m0 0v-1.077m0 0h-.416m0 0v.321M213.242 58.653h-1.624m0 0v-.095m0 0h-.133m0 0v-.283m0 0h-.133m0 0v1.89m0 0h.133m0 0v-.284m0 0h.133m0 0v-.094m0 0h1.624m0 0v-.322m0 0h.416m0 0v1.078m0 0h.491m0 0v-2.646m0 0h-.491m0 0v1.077m0 0h-.416m0 0v-.321M213.658 51.303l.072.072M213.658 51.795l.072-.072M213.242 51.303v.491M211.618 50.982v1.134M211.485 52.21v-1.322M213.658 59.465l.072-.071M213.658 58.974l.072.072M213.242 59.465v-.491M211.618 59.787v-1.134M211.485 58.558v1.322M214.149 51.549a.246.246 0 11-.491-.001.246.246 0 01.491.001zM214.149 59.219a.246.246 0 11-.492 0 .246.246 0 01.492 0z"/></g><g id="walls_1_"><path class="st3" d="M6.357 418.227v112.604m0 0h481.775m0 0V6.167m0 0h-44.588m0 0v412.098m0 0l-437.187-.038M439.01 135.586h-15.492M446.568 135.586H440.9M440.9 135.586h-1.89M439.01 52.456h-15.492M446.568 52.456H440.9M440.9 52.456h-1.89M446.568 52.456v83.13M423.518 52.456v83.13M439.01 52.456v3.778M439.01 56.234h1.89M440.9 56.234v-3.778M440.9 92.131v-1.889M440.9 90.242h-1.89M439.01 90.242v1.89M439.954 56.234v34.008M439.01 56.234v34.008M440.9 90.242V56.234M439.01 92.131v.945M439.01 93.076h.944M439.954 93.076v.945M439.954 94.021h.946M440.9 94.021v-1.89M440.9 135.586v-3.778M440.9 131.807h-.945M439.954 131.807v.944M439.954 132.751h-.943M439.01 132.751v2.835M438.066 132.751l-28.056-28.054M440.9 131.807V94.021M438.066 95.91v34.008M438.066 93.076v2.834M438.066 95.91h1.889M439.954 95.91v-2.834M439.954 93.076h-1.889M439.954 132.751v-2.834M439.954 129.917h-1.889M438.066 129.917v2.834M438.066 132.751h1.889M439.954 129.917V95.91M438.066 95.91v34.008M439.01 95.91v34.008M410.01 104.697a39.68 39.68 0 0128.056-11.621M440.9 52.456h-1.89M440.9 52.456h-1.89M446.568 52.456H440.9M439.01 52.456h-15.492M440.9 135.586h-1.89M440.9 135.586h-1.89M446.568 135.586H440.9M439.01 135.586h-15.492"/><g><path class="st3" d="M439.01 265.004h-15.492M446.568 265.004H440.9M440.9 265.004h-1.89M446.568 265.004v154.357M423.518 265.004v133.197M439.01 265.004v4.724M439.01 269.727h1.89M440.9 269.727v-4.724M440.9 411.803v-4.723M440.9 407.081h-1.89M439.01 407.081v4.723M440.9 413.693v-1.89M439.01 269.727v137.354M440.9 407.081V269.727M440.9 265.004h-1.89M440.9 265.004h-1.89M446.568 265.004H440.9M439.01 265.004h-15.492M357.392 411.803v-13.602M357.392 419.361v-5.668M357.392 413.693v-1.89M357.392 419.361h89.176M357.392 398.201h66.126M357.392 411.803h4.723M362.115 411.803v1.89M362.115 413.693h-4.724M439.01 413.693h-4.724M434.286 413.693v-1.89M434.286 411.803h4.725M440.9 413.693h-1.89M362.115 411.803h72.172M434.286 413.693h-72.171M357.392 413.693v-1.89M357.392 413.693v-1.89M357.392 419.361v-5.668M357.392 411.803v-13.602"/><g><path class="st3" d="M164.209 411.803v-13.602M164.209 419.361v-5.668M164.209 413.693v-1.89M238.837 411.803v-13.602M238.837 419.361v-5.668M238.837 413.693v-1.89M238.837 419.361h-74.628M238.837 398.201h-74.628M238.837 411.803h-3.779M235.058 411.803v1.89M235.058 413.693h3.779M203.412 413.693h1.891M205.302 413.693v-1.89M205.302 411.803h-1.89M235.058 412.748h-29.756M235.058 411.803h-29.756M205.302 413.693h29.756M203.412 411.803h-.944M202.468 411.803v.944M202.468 412.748h-.945M201.523 412.748v.945M201.523 413.693h1.89M164.209 413.693h3.778M167.988 413.693v-.945M167.988 412.748h-.944M167.043 412.748v-.944M167.043 411.803h-2.834M167.043 410.859l25.049-25.049M167.988 413.693h33.535M199.634 410.859h-29.757M202.468 410.859h-2.834M199.634 410.859v1.889M199.634 412.748h2.834M202.468 412.748v-1.889M167.043 412.748h2.834M169.877 412.748v-1.889M169.877 410.859h-2.834M167.043 410.859v1.889M169.877 412.748h29.757M199.634 410.859h-29.757M199.634 411.803h-29.757M192.092 385.81a35.42 35.42 0 0110.376 25.049M238.837 413.693v-1.89M238.837 413.693v-1.89M238.837 419.361v-5.668M238.837 411.803v-13.602M164.209 413.693v-1.89M164.209 413.693v-1.89M164.209 419.361v-5.668M164.209 411.803v-13.602M164.209 419.361v-21.16"/><g><path class="st3" d="M28.651 411.803v-13.602M28.651 419.361v-5.668M28.651 413.693v-1.89M111.78 411.803v-13.602M111.78 419.361v-5.668M111.78 413.693v-1.89M111.78 419.361H28.651M111.78 398.201H28.651M111.78 411.803h-3.778M108.002 411.803v1.89M108.002 413.693h3.778M56.99 413.693h1.891M58.88 413.693v-1.89M58.88 411.803h-1.89M108.002 412.748H58.88M108.002 411.803H58.88M58.88 413.693h49.122M56.99 411.803h-.943M56.046 411.803v.944M56.046 412.748h-.945M55.101 412.748v.945M55.101 413.693h1.89M28.651 413.693h3.778M32.429 413.693v-.945M32.429 412.748h-.944M31.485 412.748v-.944M31.485 411.803h-2.834M32.429 413.693h22.672M53.212 410.859H34.318M56.046 410.859h-2.834M53.212 410.859v1.889M53.212 412.748h2.834M56.046 412.748v-1.889M31.485 412.748h2.834M34.319 412.748v-1.889M34.319 410.859h-2.834M31.485 410.859v1.889M34.319 412.748h18.894M53.212 410.859H34.318M53.212 411.803H34.318M111.78 413.693v-1.89M111.78 413.693v-1.89M111.78 419.361v-5.668M111.78 411.803v-13.602M28.651 413.693v-1.89M28.651 413.693v-1.89M28.651 419.361v-5.668M28.651 411.803v-13.602M28.651 419.361v-21.16"/></g></g></g><g><path class="st4" d="M439.01 349.257h1.89v5.133h-1.89zM439.01 305.899h1.89v5.133h-1.89z"/></g><g><path class="st5" d="M223.519 274.535c-1.818-4.869-2.346-7.364-2.611-12.554"/><path class="st6" d="M223.528 274.639l29.271-12.658v-1.511h-.453l-29.394 12.77z"/><g><path class="st5" d="M272.291 227.477c4.454-1.693 7.722-2.353 12.551-2.6"/><path class="st6" d="M272.184 227.496l12.658 29.272h1.511v-.454l-12.782-29.418z"/><g><path class="st5" d="M154.773 173.872c-2.247 6.026-2.876 9.136-3.203 15.559"/><path class="st6" d="M154.81 173.773l-.6 1.387 36.354 15.782h.454l.001-1.511z"/><path class="st5" d="M300.435 130.7c-4.87-1.817-7.379-2.294-12.571-2.557"/><path class="st6" d="M300.523 130.761l-1.387-.6-12.783 29.418v.453h1.512z"/><g><path class="st5" d="M273.771 69.938c4.294 1.601 6.494 2.038 11.071 2.271"/><path class="st6" d="M273.683 69.9l1.388.6 11.282-25.951v-.453l-1.511-.001z"/></g><g><path class="st5" d="M273.167 204.46c1.805 4.808 2.325 7.429 2.588 12.555"/><path class="st6" d="M273.135 204.357l-29.272 12.658v1.511h.453l29.419-12.782z"/></g></g></g><g><path class="st5" d="M101.563 274.243c-1.743-4.699-2.26-7.255-2.517-12.262"/><path class="st6" d="M101.605 274.34l28.578-12.358-.001-1.512h-.453l-28.725 12.481z"/><g><path class="st5" d="M80.889 224.855c4.817-1.788 7.433-2.318 12.565-2.579"/><path class="st6" d="M80.796 224.895l12.658 29.271h1.512v-.453l-12.783-29.419z"/></g></g><g><path class="st5" d="M223.519 274.535c-1.818-4.869-2.346-7.364-2.611-12.554"/><path class="st6" d="M223.528 274.639l29.271-12.658v-1.511h-.453l-29.394 12.77z"/><g><path class="st5" d="M272.291 227.477c4.454-1.693 7.722-2.353 12.551-2.6"/><path class="st6" d="M272.184 227.496l12.658 29.272h1.511v-.454l-12.782-29.418z"/><g><path class="st5" d="M154.773 173.872c-2.247 6.026-2.876 9.136-3.203 15.559"/><path class="st6" d="M154.81 173.773l-.6 1.387 36.354 15.782h.454l.001-1.511z"/><path class="st5" d="M300.435 130.7c-4.87-1.817-7.379-2.294-12.571-2.557"/><path class="st6" d="M300.523 130.761l-1.387-.6-12.783 29.418v.453h1.512z"/><g><path class="st5" d="M273.771 69.938c4.294 1.601 6.494 2.038 11.071 2.271"/><path class="st6" d="M273.683 69.9l1.388.6 11.282-25.951v-.453l-1.511-.001z"/></g><g><path class="st5" d="M273.167 204.46c1.805 4.808 2.325 7.429 2.588 12.555"/><path class="st6" d="M273.135 204.357l-29.272 12.658v1.511h.453l29.419-12.782z"/></g></g></g><g><path class="st5" d="M101.563 274.243c-1.743-4.699-2.26-7.255-2.517-12.262"/><path class="st6" d="M101.605 274.34l28.578-12.358-.001-1.512h-.453l-28.725 12.481z"/><g><path class="st5" d="M80.889 224.855c4.817-1.788 7.433-2.318 12.565-2.579"/><path class="st6" d="M80.796 224.895l12.658 29.271h1.512v-.453l-12.783-29.419z"/></g></g></g></g><path d="M423.518 174.316h-46.427v-9.068h46.427v-29.662h23.049v129.418h-23.049v-90.688h0zM202.279.5h9.069v188.932h19.65v9.068h-40.433v-7.558h.454v-1.51h11.26V.5h0zm221.239 10.958h-46.051V.5h69.1v51.956h-23.049V11.458h0zM152.023 198.5v-7.558h-.453v-1.51h-1.058v-.001H.5v9.069l150.012-.001v.001h1.511zM.5 419.361h28.151V398.2H.5v21.161h0zm356.892 0H238.837V398.2h118.555v21.161h0zM140.309 380.73v17.47h23.899v21.161H111.78V398.2h19.461v-17.47h9.068z" fill-rule="evenodd" clip-rule="evenodd" stroke="#000" stroke-linecap="round" stroke-linejoin="round" stroke-miterlimit="3"/><g><path class="st8" d="M214.6.28l-3.47 3.06M222.02.28l-10.89 9.59M229.44.28L217 11.24M4.68 198.28l-4.4 3.88M236.87.28l-14.03 12.36M11.62 198.71L.28 208.69M225.87 16.51l-3.03 2.66M230.13 12.75l-3.44 3.03M244.29.28l-12.44 10.96M11.62 205.24L.28 215.23M225.87 23.04l-3.03 2.67M237.55 12.75l-3.44 3.03M251.71.28l-12.44 10.96M217.18 30.7l-3.43 3.02M24.84 200.13l-3.02 2.66M14.93 208.86L.28 221.77M259.13.28l-12.44 10.96M244.98 12.75l-3.44 3.03M225.87 29.58l-4.7 4.14M11.62 218.32L.28 228.31M24.84 206.67l-5.92 5.22M252.39 12.75l-3.44 3.03M266.55.28l-12.44 10.96M11.62 224.85L.28 234.84M24.84 213.21l-3.02 2.66M259.82 12.75l-3.44 3.03M273.97.28l-12.44 10.96M24.84 219.75l-3.02 2.66M11.62 231.39L.28 241.38M267.24 12.75l-3.44 3.03M281.4.28l-12.44 10.96M11.62 237.93L.28 247.92M274.67 12.75l-3.44 3.03M288.82.28l-12.44 10.96M11.62 244.47L.28 254.46M282.08 12.75l-3.44 3.03M296.24.28L283.8 11.24M11.62 251.01L.28 261M287.65 14.39l-3.02 2.66M303.66.28l-12.44 10.96M11.62 257.55L.28 267.54M287.65 20.92l-3.02 2.66M311.08.28l-12.44 10.96M11.62 264.08L.28 274.07M17.69 258.74l-3.43 3.02M287.65 27.46l-3.02 2.66M318.51.28l-12.44 10.96M93.74 198.28l-.5.44M11.62 270.62L.28 280.61M25.11 258.74l-3.43 3.02M287.65 34l-3.02 2.66M325.93.28l-12.44 10.96M11.62 277.16L.28 287.15M96.26 202.6l-3.02 2.66M32.54 258.74l-3.43 3.02M333.35.28l-12.44 10.96M287.65 40.54l-3.02 2.66M39.96 258.74l-3.43 3.02M96.26 209.14l-3.02 2.66M11.62 283.7L.28 293.69M216.25 103.44l-3.43 3.02M340.78.28l-12.44 10.96M47.38 258.74l-3.42 3.02M96.26 215.68l-3.02 2.66M11.62 290.24L.28 300.23M223.67 103.44l-3.42 3.02M348.2.28l-12.44 10.96M54.8 258.74l-3.43 3.02M11.62 296.78L.28 306.77M96.26 222.22l-.33.29M231.09 103.44l-3.43 3.02M355.62.28l-12.44 10.96M62.22 258.74l-3.43 3.02M11.62 303.32L.28 313.31M238.52 103.44l-3.43 3.02M245.94 103.44l-3.43 3.02M11.62 309.85L.28 319.84M69.64 258.74l-3.42 3.02M363.04.28L350.6 11.24M253.36 103.44l-3.43 3.02M11.62 316.39L.28 326.38M77.07 258.74l-3.43 3.02M287.65 73.23l-3.02 2.66M370.46.28l-12.44 10.96M287.65 79.77l-3.02 2.66M84.49 258.74l-3.43 3.02M11.62 322.93L.28 332.92M260.78 103.44l-3.42 3.02M377.25.84l-11.8 10.4M377.25 7.38l-4.38 3.86M268.21 103.44l-3.43 3.02M96.26 254.91l-3.02 2.66M11.62 329.47L.28 339.46M91.92 258.74l-3.43 3.02M287.65 86.31l-3.02 2.66M275.63 103.44l-3.43 3.02M99.28 258.79l-3.38 2.97M11.62 336.01L.28 346M287.65 92.85l-3.02 2.66M283.05 103.44l-3.43 3.02M11.62 342.55L.28 352.54M287.65 99.39l-3.02 2.66M11.62 349.08L.28 359.07M287.65 105.92l-3.02 2.66M11.62 355.62L.28 365.61M287.65 112.46l-3.02 2.66M11.62 362.16L.28 372.15M287.65 119l-3.02 2.66M136.45 258.74l-5.43 4.78M11.62 368.7L.28 378.69M287.65 125.54l-3.02 2.66M11.62 375.24L.28 385.23M140.09 262.07l-9.07 7.99M11.62 381.78L.28 391.77M140.09 268.61l-9.07 7.99M233.8 192.59l-3.02 2.66M11.62 388.31L.65 397.98M140.09 275.14l-9.07 7.99M140.4 281.41l-9.38 8.26M11.62 394.85l-3.55 3.13M233.8 199.13l-3.02 2.66M286.14 159.56l-1.51 1.33M147.82 281.41l-3.44 3.03M140.09 288.22l-9.07 7.99M233.8 205.67l-3.02 2.66M233.8 212.21l-3.02 2.66M140.09 294.76l-9.07 7.99M155.25 281.41l-3.44 3.03M287.65 164.77l-3.02 2.66M236.01 216.8l-3.42 3.02M140.09 301.3l-9.07 7.99M162.67 281.41l-3.44 3.03M294.78 165.03l-10.15 8.94M287.65 177.85l-3.02 2.66M243.43 216.8l-3.43 3.02M140.09 307.84l-9.07 7.99M170.09 281.41l-3.44 3.03M302.2 165.03l-10.3 9.07M287.65 184.39l-3.02 2.66M140.09 314.38l-9.07 7.99M177.51 281.41l-3.44 3.03M309.62 165.03l-10.29 9.07M287.65 190.92l-3.02 2.66M210.67 258.74l-.11.09M140.09 320.91l-9.07 7.99M184.93 281.41l-3.44 3.03M317.04 165.03l-10.29 9.07M287.65 197.46l-3.02 2.66M218.09 258.74l-3.43 3.02M192.36 281.41l-3.44 3.03M140.09 327.45l-9.07 7.99M213.59 262.7l-3.03 2.67M324.47 165.03l-10.3 9.07M287.65 204l-3.02 2.66M199.78 281.41l-3.44 3.03M140.09 333.99l-9.07 7.99M213.59 269.24l-3.03 2.67M331.89 165.03l-10.3 9.07M287.65 210.54l-3.02 2.66M280.55 216.8l-3.43 3.02M207.2 281.41l-3.44 3.03M140.09 340.53l-9.07 7.99M213.59 275.78l-3.03 2.67M339.31 165.03l-10.29 9.07M287.65 217.08l-3.11 2.74M213.59 282.32l-2.41 2.12M140.09 347.07l-9.07 7.99M346.73 165.03l-10.29 9.07M140.09 353.61l-9.07 7.99M287.65 223.62l-1.51 1.33M354.16 165.03l-10.3 9.07M140.09 360.14l-9.07 7.99M255.2 258.74l-2.62 2.31M361.57 165.03l-10.29 9.07M262.62 258.74l-3.43 3.02M140.09 366.68l-9.07 7.99M369 165.03l-10.3 9.07M270.05 258.74l-3.43 3.02M140.09 373.22l-8.27 7.29M376.42 165.03l-10.29 9.07M376.87 171.18l-3.32 2.92M140.09 379.76l-.85.75M277.47 258.74l-3.43 3.02M287.65 256.31l-6.18 5.45M287.65 262.85l-3.02 2.66M287.65 269.39l-3.02 2.66M287.85 275.75l-3.22 2.83M295.27 275.75l-3.43 3.02M287.65 282.46l-3.02 2.66M301.63 276.69l-3.02 2.66M287.65 289l-3.02 2.66M287.65 295.54l-3.02 2.66M301.63 283.23l-3.02 2.66M293.83 290.1l-3.44 3.03M301.63 289.76l-3.82 3.37M287.65 302.08l-3.02 2.66M287.65 308.62l-3.02 2.66M287.65 315.15l-3.02 2.66M287.65 321.69l-3.02 2.66M287.65 328.23l-3.02 2.66M287.65 334.77l-3.02 2.66M287.65 341.31l-3.02 2.66M287.65 347.85l-3.02 2.66M287.65 354.39l-3.02 2.66M287.65 360.92l-3.02 2.66M287.65 367.46l-3.02 2.66M287.65 374l-3.02 2.66M287.65 380.54l-3.02 2.66M287.65 387.08l-3.02 2.66M287.65 393.62l-3.02 2.66"/></g><path class="st4" d="M226.083.5h151.384v10.958h-89.603l.001 33.091h-1.512v-.453h-1.51l-.001-1.058V15.992h-58.759v17.949h-14.735v-3.023h11.713v-19.46h-11.713V.5h14.735zm-85.774 281.13h70.472v-22.671l10.58-.001v1.512h-.453v1.511h-7.104v22.671h-73.495v96.078h-9.068V261.981h-1.058v-1.511h-.454v-1.512h10.58v22.672zm147.556-25.316h-1.512v.454h-1.51l-.001 2.19h-32.496v1.512h.453v1.511h32.043V398.2h3.022l.001-104.856 13.981-.001v-17.382h-13.981v-19.647zm10.958 34.007h-10.958v-11.337h10.958v11.337zm-10.959-162.179h-1.511v.453h-1.511v-21.917h-73.494v-3.023h73.494l.001-31.447h1.51v-.453h1.512l-.001 56.387zm.001 37.106l-.001-5.215h-1.511v-.453h-1.511v57.435l-9.088.001v1.51h-.453v1.512l9.541-.001.001 4.839h1.51v.454h1.512v-51.014h89.226v-9.068h-89.226zm-44.654 51.768h.652v1.51h.453v1.512h-13.318v-30.606h3.021v27.583c.764 0 9.192-.002 9.192.001zM97.988 258.958h-1.511v-5.245h-1.511v.453h-1.511v4.792H11.836v-46.855h10.203v12.847h3.022V198.5h-3.022v10.58H11.836V198.5H.5v199.7h11.336V261.981h87.21v-1.511h.454v-1.512h-1.512zm186.854-247.5h-58.759v1.511h58.759v-1.511zM96.477 222.728V198.5h-3.022v23.775h1.511v.453h1.511z"/></g><g id="sizes"><path d="M293.972 202.209h-1.867v-9.234l-1.5.758v-1.961l1.656-.922h1.711v11.359zM299.292 202.209h-1.867v-9.234l-1.5.758v-1.961l1.656-.922h1.711v11.359zM301.503 200.303h1.859v1.906l-1.859 1.578v-3.484zM307.007 201.959c-.466-.245-.843-.603-1.129-1.074s-.466-1.032-.539-1.684v-.008h1.867v.008c.047.417.192.741.438.973s.565.348.961.348c.442 0 .785-.146 1.027-.438s.363-.706.363-1.242v-.953c0-.531-.116-.942-.348-1.234s-.559-.438-.98-.438c-.292 0-.556.078-.793.234s-.423.375-.559.656h-1.727v-6.258h5.945v1.789h-4.078v2.281c.177-.161.397-.286.66-.375s.527-.133.793-.133c.62 0 1.151.136 1.594.406s.78.667 1.012 1.188.348 1.148.348 1.883v.953c0 .734-.129 1.362-.387 1.883s-.632.918-1.121 1.191-1.078.41-1.766.41a3.333 3.333 0 01-1.581-.366zM186.837 210.298l.188.281c-.13.239-.327.415-.59.527s-.574.168-.934.168c-.558 0-1.047-.138-1.469-.414s-.75-.665-.984-1.168-.352-1.085-.352-1.746v-.008c0-.734.128-1.362.383-1.883s.626-.917 1.113-1.188 1.071-.406 1.754-.406 1.266.138 1.75.414.854.677 1.109 1.203.383 1.159.383 1.898v.008c0 .396-.054.819-.16 1.27s-.259.915-.457 1.395c-.026.073-.055.145-.086.215l-.094.207-2.227 4.867h-1.992l2.665-5.64zm.125-1.184c.239-.289.359-.699.359-1.23v-.008c0-.516-.12-.913-.359-1.191s-.578-.418-1.016-.418c-.442 0-.784.141-1.023.422s-.359.68-.359 1.195v.008c0 .531.12.94.359 1.227s.581.43 1.023.43c.438-.001.777-.145 1.016-.435zM190.931 214.032h1.859v1.906l-1.859 1.578v-3.484zM197.665 215.939h-1.867v-9.234l-1.5.758v-1.961l1.656-.922h1.711v11.359zM107.703 394.103h-1.867v-9.234l-1.5.758v-1.961l1.656-.922h1.711v11.359zM113.024 394.103h-1.867v-9.234l-1.5.758v-1.961l1.656-.922h1.711v11.359zM115.235 392.197h1.859v1.906l-1.859 1.578v-3.484zM121.133 394.22l-.766-.359c-.511-.239-.918-.59-1.223-1.051s-.485-1.012-.543-1.652h1.914c.042.281.128.515.258.699s.3.324.508.418.45.141.727.141c.469 0 .831-.126 1.086-.379s.383-.61.383-1.074v-.305c0-.5-.113-.887-.34-1.16s-.551-.41-.973-.41h-.883v-1.781h.883c.359 0 .637-.118.832-.355s.293-.569.293-.996v-.273c0-.401-.105-.71-.316-.926s-.509-.324-.895-.324c-.234 0-.444.05-.629.148s-.343.249-.473.449-.224.446-.281.738h-1.906c.083-.656.274-1.222.574-1.695s.685-.833 1.156-1.078 1.004-.367 1.598-.367c.989 0 1.757.258 2.301.773s.816 1.242.816 2.18v.266c0 .547-.144 1.023-.43 1.43s-.692.706-1.219.898c.583.13 1.035.426 1.355.887s.48 1.048.48 1.762v.266c0 .661-.129 1.227-.387 1.695s-.634.825-1.129 1.07-1.089.367-1.781.367l-.99-.002z"/><g><path d="M235.121 394.103h-1.867v-9.234l-1.5.758v-1.961l1.656-.922h1.711v11.359zM237.371 392.447l3.93-5.203c.203-.266.36-.54.473-.824s.168-.548.168-.793v-.016c0-.38-.116-.675-.348-.883s-.562-.313-.988-.313c-.411 0-.743.126-.996.379s-.405.61-.457 1.074v.008h-1.922v-.008c.073-.683.255-1.266.547-1.75s.677-.854 1.156-1.109 1.031-.383 1.656-.383c.692 0 1.284.116 1.773.348s.863.569 1.121 1.012.387.977.387 1.602v.008c0 .458-.087.923-.262 1.395s-.415.913-.723 1.324l-3.047 4h4.094v1.789h-6.563v-1.657zM245.598 392.197h1.859v1.906l-1.859 1.578v-3.484zM251.496 394.22l-.766-.359c-.511-.239-.918-.59-1.223-1.051s-.485-1.012-.543-1.652h1.914c.042.281.128.515.258.699s.3.324.508.418.45.141.727.141c.469 0 .831-.126 1.086-.379s.383-.61.383-1.074v-.305c0-.5-.113-.887-.34-1.16s-.551-.41-.973-.41h-.883v-1.781h.883c.359 0 .637-.118.832-.355s.293-.569.293-.996v-.273c0-.401-.105-.71-.316-.926s-.509-.324-.895-.324c-.234 0-.444.05-.629.148s-.343.249-.473.449-.224.446-.281.738h-1.906c.083-.656.274-1.222.574-1.695s.685-.833 1.156-1.078 1.004-.367 1.598-.367c.989 0 1.757.258 2.301.773s.816 1.242.816 2.18v.266c0 .547-.144 1.023-.43 1.43s-.692.706-1.219.898c.583.13 1.035.426 1.355.887s.48 1.048.48 1.762v.266c0 .661-.129 1.227-.387 1.695s-.634.825-1.129 1.07-1.089.367-1.781.367l-.99-.002z"/></g><g><path d="M49.392 254.975l-.766-.359c-.511-.239-.918-.59-1.223-1.051s-.485-1.012-.543-1.652h1.914c.042.281.128.515.258.699s.3.324.508.418.45.141.727.141c.469 0 .831-.126 1.086-.379s.383-.61.383-1.074v-.305c0-.5-.113-.887-.34-1.16s-.551-.41-.973-.41h-.883v-1.781h.883c.359 0 .637-.118.832-.355s.293-.569.293-.996v-.273c0-.401-.105-.71-.316-.926s-.509-.324-.895-.324c-.234 0-.444.05-.629.148s-.343.249-.473.449-.224.446-.281.738h-1.906c.083-.656.274-1.222.574-1.695s.685-.833 1.156-1.078 1.004-.367 1.598-.367c.989 0 1.757.258 2.301.773s.816 1.242.816 2.18v.266c0 .547-.144 1.023-.43 1.43s-.692.706-1.219.898c.583.13 1.035.426 1.355.887s.48 1.048.48 1.762v.266c0 .661-.129 1.227-.387 1.695s-.634.825-1.129 1.07-1.089.367-1.781.367l-.99-.002zM55.579 252.951h1.859v1.906l-1.859 1.578v-3.484zM61.478 254.975l-.766-.359c-.511-.239-.918-.59-1.223-1.051s-.485-1.012-.543-1.652h1.914c.042.281.128.515.258.699s.3.324.508.418.45.141.727.141c.469 0 .831-.126 1.086-.379s.383-.61.383-1.074v-.305c0-.5-.113-.887-.34-1.16s-.551-.41-.973-.41h-.883v-1.781h.883c.359 0 .637-.118.832-.355s.293-.569.293-.996v-.273c0-.401-.105-.71-.316-.926s-.509-.324-.895-.324c-.234 0-.444.05-.629.148s-.343.249-.473.449-.224.446-.281.738h-1.906c.083-.656.274-1.222.574-1.695s.685-.833 1.156-1.078 1.004-.367 1.598-.367c.989 0 1.757.258 2.301.773s.816 1.242.816 2.18v.266c0 .547-.144 1.023-.43 1.43s-.692.706-1.219.898c.583.13 1.035.426 1.355.887s.48 1.048.48 1.762v.266c0 .661-.129 1.227-.387 1.695s-.634.825-1.129 1.07c-.495.245-1.089.367-1.781.367l-.99-.002z"/></g><g><path d="M261.857 117.547l3.656-7.938h2.031l-3.563 7.844h5.336v1.766h-7.461v-1.672zm4.742-3.266h1.844v6.688h-1.844v-6.688zM270.904 119.055h1.859v1.906l-1.859 1.578v-3.484zM276.407 120.711c-.466-.245-.843-.603-1.129-1.074s-.466-1.032-.539-1.684v-.008h1.867v.008c.047.417.192.741.438.973s.565.348.961.348c.442 0 .785-.146 1.027-.438s.363-.706.363-1.242v-.953c0-.531-.116-.942-.348-1.234s-.559-.438-.98-.438c-.292 0-.556.078-.793.234s-.423.375-.559.656h-1.727v-6.258h5.945v1.789h-4.078v2.281c.177-.161.397-.286.66-.375s.527-.133.793-.133c.62 0 1.151.136 1.594.406s.78.667 1.012 1.188.348 1.148.348 1.883v.953c0 .734-.129 1.362-.387 1.883s-.632.918-1.121 1.191-1.078.41-1.766.41a3.336 3.336 0 01-1.581-.366z"/></g><g><path d="M227.03 25.343l3.656-7.938h2.031l-3.563 7.844h5.336v1.766h-7.461v-1.672zm4.743-3.266h1.844v6.688h-1.844v-6.688zM236.077 26.851h1.859v1.906l-1.859 1.578v-3.484zM239.757 25.343l3.656-7.938h2.031l-3.563 7.844h5.336v1.766h-7.461v-1.672zm4.742-3.266h1.844v6.688h-1.844v-6.688z"/></g><g><path d="M297.945 161.144h-1.867v-9.234l-1.5.758v-1.961l1.656-.922h1.711v11.359zM302.035 160.894c-.466-.245-.843-.603-1.129-1.074s-.466-1.032-.539-1.684v-.008h1.867v.008c.047.417.192.741.438.973s.565.348.961.348c.442 0 .785-.146 1.027-.438s.363-.706.363-1.242v-.953c0-.531-.116-.942-.348-1.234s-.559-.438-.98-.438c-.292 0-.556.078-.793.234s-.423.375-.559.656h-1.727v-6.258h5.945v1.789h-4.078v2.281c.177-.161.397-.286.66-.375s.527-.133.793-.133c.62 0 1.151.136 1.594.406s.78.667 1.012 1.188.348 1.148.348 1.883v.953c0 .734-.129 1.362-.387 1.883s-.632.918-1.121 1.191-1.078.41-1.766.41a3.336 3.336 0 01-1.581-.366zM308.867 159.238h1.859v1.906l-1.859 1.578v-3.484zM312.531 159.488l3.93-5.203c.203-.266.36-.54.473-.824s.168-.548.168-.793v-.016c0-.38-.116-.675-.348-.883s-.562-.313-.988-.313c-.411 0-.743.126-.996.379s-.405.61-.457 1.074v.008h-1.922v-.008c.073-.683.255-1.266.547-1.75s.677-.854 1.156-1.109 1.031-.383 1.656-.383c.692 0 1.284.116 1.773.348s.863.569 1.121 1.012.387.977.387 1.602v.008c0 .458-.087.923-.262 1.395s-.415.913-.723 1.324l-3.047 4h4.094v1.789h-6.563v-1.657z"/></g><g><path d="M383 295.436l.188.281c-.13.239-.327.415-.59.527s-.574.168-.934.168c-.558 0-1.047-.138-1.469-.414s-.75-.665-.984-1.168-.352-1.085-.352-1.746v-.008c0-.734.128-1.362.383-1.883s.626-.917 1.113-1.188 1.071-.406 1.754-.406 1.266.138 1.75.414.854.677 1.109 1.203.383 1.159.383 1.898v.008c0 .396-.054.819-.16 1.27s-.259.915-.457 1.395c-.026.073-.055.145-.086.215l-.094.207-2.227 4.867h-1.992l2.665-5.64zm.125-1.183c.239-.289.359-.699.359-1.23v-.008c0-.516-.12-.913-.359-1.191s-.578-.418-1.016-.418c-.442 0-.784.141-1.023.422s-.359.68-.359 1.195v.008c0 .531.12.94.359 1.227s.581.43 1.023.43c.438-.002.777-.146 1.016-.435zM387.094 299.171h1.859v1.906l-1.859 1.578v-3.484zM392.188 300.792c-.484-.269-.854-.659-1.109-1.172s-.383-1.132-.383-1.855v-.008c0-.417.051-.855.152-1.316a8.32 8.32 0 01.532-1.609c.035-.075.069-.149.105-.223l2.391-4.891h2.063l-2.813 5.664-.266-.281c.13-.245.32-.435.57-.57s.542-.203.875-.203c.604 0 1.122.133 1.555.398s.762.652.988 1.16.34 1.118.34 1.832v.008c0 .729-.128 1.354-.383 1.875s-.626.917-1.113 1.188-1.071.406-1.754.406-1.266-.135-1.75-.403zm2.773-1.793c.239-.266.359-.646.359-1.141v-.008c0-.552-.122-.978-.367-1.277s-.597-.449-1.055-.449c-.427 0-.757.151-.988.453s-.348.729-.348 1.281v.008c0 .495.12.874.359 1.137s.578.395 1.016.395c.443-.001.785-.134 1.024-.399z"/></g><g><path d="M207.239 466.87l3.656-7.938h2.031l-3.563 7.844h5.336v1.766h-7.461v-1.672zm4.743-3.266h1.844v6.688h-1.844v-6.688zM222.521 460.346l-2.742 9.938h-2.008l2.703-9.57h-2.422v1.672h-1.867v-3.461h6.336v1.421zM224.341 468.378h1.859v1.906l-1.859 1.578v-3.484zM228.005 468.628l3.93-5.203c.203-.266.36-.54.473-.824s.168-.548.168-.793v-.016c0-.38-.116-.675-.348-.883s-.562-.313-.988-.313c-.411 0-.743.126-.996.379s-.405.61-.457 1.074v.008h-1.922v-.008c.073-.683.255-1.266.547-1.75s.677-.854 1.156-1.109 1.031-.383 1.656-.383c.692 0 1.284.116 1.773.348s.863.569 1.121 1.012.387.977.387 1.602v.008c0 .458-.087.923-.262 1.395s-.415.913-.723 1.324l-3.047 4h4.094v1.789h-6.563v-1.657z"/></g></g></svg>