<svg version="1.1" id="_x31_40_1_" xmlns="http://www.w3.org/2000/svg" x="0" y="0" viewBox="0 0 301.752 392.349" xml:space="preserve"><style>.st2,.st3{fill:none;stroke-linecap:round;stroke-linejoin:round;stroke-miterlimit:3}.st2{fill-rule:evenodd;clip-rule:evenodd;stroke:#999}.st3{stroke:#000}.st4,.st5,.st7{fill-rule:evenodd;clip-rule:evenodd}.st5,.st7{fill:none}.st5{stroke-linecap:round;stroke-linejoin:round;stroke:#000;stroke-miterlimit:3}.st7{stroke:#666;stroke-width:.6;stroke-miterlimit:22.9256}</style><path fill-rule="evenodd" clip-rule="evenodd" fill="#fff" d="M42.029 5.182H0v381.5h41.529v5.667h175.416v-22.125h47.375v-23.25h21.375V0H42.029z"/><g id="mebel"><path d="M268.26 130.95l4.124-4.124m-11.071 4.124l11.071-11.071m-18.018 11.071l11.14-11.14m-18.087 11.14l10.703-10.702m12.051-12.052l2.211-2.21m-31.912 24.964l12.747-12.747m10.669-10.67l8.495-8.495m-38.857 31.912l17.775-17.775m5.711-5.712l12.977-12.978m-43.411 36.465l36.464-36.464m-43.41 36.464l38.393-38.394m-45.34 38.394l45.34-45.34m-46.477 39.528l46.477-46.476m-46.477 39.53l46.477-46.477m-46.477 39.531l46.477-46.478m-46.477 39.531l46.477-46.477m12.457-12.458l6.435-6.435m-65.369 58.423l46.477-46.477m6.235-6.236l7.399-7.4m-60.111 53.166l45.041-45.041m7.671-7.671l.453-.454m-53.165 46.219l38.094-38.094M211.548 76.51l31.147-31.147m-31.147 24.201l24.201-24.201m-24.201 17.254l17.253-17.253M211.548 55.67l10.306-10.306m-10.306 3.359l3.359-3.359m-3.359-3.587h0m0-6.947h0m0-6.947h0m0-6.947h0m0-6.947h0m65.37 26.518l-3.267-3.267m1.177 8.124l-8.124-8.124m1.178 8.124l-3.621-3.622m-6.236 7.66l-4.038-4.038m4.038 10.985L247.04 45.364m10.985 17.932l-17.932-17.932m-28.545-28.545h0m46.477 53.424l-24.879-24.879m-21.598-21.599h0m46.477 53.425L226.2 45.364m-14.652-14.652h0m60.836 67.783l-4.009-4.009m-10.35-10.35l-38.772-38.772m-7.705-7.705h0m60.836 67.783l-10.956-10.956m-3.403-3.403l-45.719-45.719m-.758-.758h0m56.409 63.356l-56.409-56.41m60.836 67.784l-.228-.228m-11.921-11.921L211.548 58.5m60.836 67.783l-6.511-6.511M254.501 108.4l-42.954-42.954m58.557 65.504l-10.599-10.599m-8.084-8.084l-39.873-39.873m51.609 58.556l-51.609-51.609m44.662 51.609l-44.662-44.662m37.715 44.662l-37.715-37.715m30.768 37.715l-30.768-30.769m23.821 30.769l-23.821-23.821m16.875 23.821l-16.875-16.875m9.928 16.875l-9.928-9.928m2.981 9.928l-2.981-2.981" fill-rule="evenodd" clip-rule="evenodd" fill="none" stroke="#999" stroke-width=".4" stroke-linecap="round" stroke-linejoin="round" stroke-miterlimit="3"/><path class="st2" d="M211.548 45.364h49.877M261.425 45.364V10.79M219.105 17.402a.945.945 0 11-1.89 0 .945.945 0 011.89 0zM236.014 23.772l-1.397.372m0 0l-1.208.793m0 .001l-.898 1.133m0-.001l-.496 1.357m0 0l-.043 1.446m0 0l.413 1.384m0 0l.829 1.185m0 0l1.159.863m0 0l1.371.455m0 0h1.446m0 0l1.372-.455m0 0l1.16-.863m0 0l.828-1.185m0 0l.414-1.384m0 0l-.044-1.446m0 0l-.496-1.357m0 0l-.897-1.133m0 .001l-1.209-.793m0-.001l-1.397-.372m0 0v-5.538m0 0l.455.108m0 0l.49.037m0 0l.488-.037m0 0l.456-.108m0 0l.392-.172m0 0l.3-.225m0 0l.188-.261m0 0l.065-.28m0 0v-.402m0 .001l-.019-.121m0-.001l-.064-.277m0 .001l-.055-.104m0-.001l-.181-.251m0 0l-.078-.07m0 0l-.274-.205m0 0l-.357-.157m0 0l-.195-.051m0 0l-.25-.06m0 .001l-.019-.688m0-.001l-.01-.796m0 .001h1.728m0 0v-.435m0-.001h2.872m0 0l.16-.058m0 0l.083-.148m0 0l-.033-.167m0 0l-.133-.105m0 0l-.486-.158m0 0l-.726-.315m0 0l-1.007-.574m0 0l-.73-.258m0 0v-.125m0 0h.605m0 0v-.981m0 0h-2.57m0 0v.878m0-.001l-.062.037m0 .001l-.032.034m0-.001l-.026.041m0 0l-.278.673m0 0h-.697m0 0v-1.361m0 0h1.058m0 0v-.301m0 0h-3.023m0 0v.302m0-.001h1.058m0 0v1.361m0 0h-1.436m0 0v.151m0 0h-.416m0 0V12.3m0 0h.152m0 0v-.529m0 0h.604m0 0v-.981m0 0h-2.57m0 0v.982m0-.001h.605m0 0v.529m0 0h.151m0 0v.303m0 0h-.151m0 0v1.511m0 .001h2.57m0 0v2.154m0-.001h.082m0 0h.094m0 0h.123m0 0h.15m0 0h.042m0 0v7.504M238.357 12.452h-.209m0 0l.14-.341m0 0l.325-.053m0 0l.008.001m0 0v.242m0 0h.152m0 0v.302m0 0h-.416m0 0v-.151M239.83 12.603v-.24m0 0l.677.239m0 0l.987.564m0 0l.053.022m0 0h-1.566m.001 0v-.585m0 0h-.151M233.974 11.771v.529M233.293 11.771v.529M239.631 11.771h.351M238.772 12.301h.189M238.961 12.301h.68M239.642 12.301h.014M238.961 12.125v.176M239.642 12.296v.005M239.83 12.603h-1.057M237.479 14.114h-.559M239.981 13.189v.49M237.412 14.682h-.491M242.777 13.668l.076.012M238.628 11.564l-.047.002M238.798 11.597l-.17-.033M238.083 11.648l-.047.01M238.036 11.658l-.019.009M239.981 11.896l-.453-.16M239.529 11.736l-.731-.139M238.673 12.069l-.06-.011M242.777 13.668l-.512-.167M242.265 13.501l-.717-.312M239.571 11.753h-.001M238.581 11.566l-.498.082M236.923 16.17l-.002-.002M236.921 15.639l.002-.001M238.357 12.999v-.128M238.357 12.754v-.103M238.357 12.872v-.118M238.147 12.452h-.523M239.395 12.208l-.722-.14M239.83 12.363l-.436-.154M237.677 13.085v.001M237.767 13.041l-.091.044M237.866 13.026l-.098.015M237.963 13.041l-.098-.015M238.055 13.085l-.091-.044M238.055 13.085v.001M238.21 15.582l-.345-.026M237.866 15.556l-.345.026M238.282 15.599l-.071-.017M237.2 15.658l-.195.051M237.521 15.582l-.321.076M238.235 13.252l.009.062M237.004 15.709l-.083.037M237.45 15.599l.02-.689M237.488 13.314l.009-.062M237.497 13.252l.026-.058M237.523 13.195l.042-.05M237.565 13.145l.055-.038M237.62 13.107l.056-.021M237.677 13.085l.007-.002M237.684 13.083l.068-.008M237.752 13.075h.227M237.979 13.075l.069.008M238.048 13.083l.007.002M238.055 13.086l.056.021M238.111 13.107l.055.038M238.166 13.145l.042.05M238.208 13.195l.027.058M237.469 14.91l.019-1.595M238.253 14.114l-.009-.8M238.357 13.812h-.107M237.482 13.812h-.561M236.014 23.772v5.343M236.921 23.772v5.343M236.014 29.115h.907M232.954 11.771h1.36M233.104 12.301h1.058M233.104 12.603h1.058M234.578 12.603v1.209M238.357 13.812v-1.209M236.014 11.092h.907M236.014 12.452v3.816M236.921 18.234v-5.782M234.578 13.812h1.436M235.523 14.114h.491M235.523 14.682h.491M237.412 14.114v1.493M236.921 26.45a1.89 1.89 0 11-.907 0M234.578 13.729a.34.34 0 110-.589M257.392 120.159l-1.645-.469m0 0l-1.552-.718m0 0l-1.23-.968m0 0l-.943-1.248m0 0l-.593-1.448m0 0l-.206-1.551m0 0l.206-1.551m0 0l.593-1.448m0 0l.943-1.248m0 0l1.23-.968m0 0l1.552-.718m0 0l1.645-.469m0 0l1.697-.207m0 0l1.71.059m0 0l11.585 1.223m0 0v10.654m0 0l-11.585 1.223m0 0l-1.71.059m0 0l-1.697-.207M266.662 109.64v4.117M266.662 113.757v4.117M251.509 113.757a5.743 5.743 0 01.887-3.063M252.395 110.693c1.723-2.217 4.238-3.413 6.83-3.248M259.225 107.445c2.609-.07 5.185.689 7.437 2.195M266.662 117.873c-2.252 1.505-4.828 2.266-7.437 2.195M259.225 120.069c-2.591.165-5.107-1.031-6.83-3.249M252.395 116.82a5.743 5.743 0 01-.887-3.063M272.384 109.109v9.295m0 0h-.189m0 0v-9.295m0 0h.189M272.384 123.204V104.31M276.918 123.204V104.31M272.384 123.204h4.534M272.384 104.31h4.534M64.75 149.097h97.488m0 0v-15.114m0 0H64.75m0 0v15.114M64.75 148.341h97.488M113.495 149.097v-.756M64.75 149.097v-.756M144.249 353.7v3.028m0 0h.859m.001 0h17.175m-.001 0h.859m.001 0V353.7M163.143 360.155v-3.427m0 0h-.859m-.001 0v3.224m0 0h.058m0 0l.293-.196m.001 0l.343.087m0 0l.165.312M162.341 362.514l.293-.196m0 0l.343.086m0 0l.165.313m0 0v-2.562m0 0l-.165-.312m0 0l-.343-.087m0 0l-.293.196m0 0H145.05m0 0l-.293-.196m0 0l-.343.087m0 0l-.165.312m0 0v2.562m0 0l.165-.313m0 0l.343-.086m0 0l.293.196m0 0h17.291M144.249 360.155l.165-.312m0 0l.342-.087m0 0l.294.196m0 0h.058m.001 0v-3.224m0 0h-.859m-.001 0v3.427M161.479 362.92h-15.566m0 0l1.005.227m0 0h13.556m0 0l1.005-.227M162.341 362.92l.293.196m0 0l.343-.086m0 0l.165-.313m0 0l-.165-.313m0 0l-.343-.086m0 0l-.293.196m0 0H145.05m0 0l-.293-.196m0 0l-.343.086m0 0l-.165.313m0 0l.165.313m0 0l.343.086m0 0l.293-.196m0 0h17.291M122.333 353.7v3.028m0 0h.859m0 0h17.175m0 0h.859m0 0V353.7M141.226 360.155v-3.427m0 0h-.859m0 0v3.224m0 0h.058m0 0l.294-.196m0 0l.342.087m0 0l.165.312M140.425 362.514l.294-.196m0 0l.342.086m0 0l.165.313m0 0v-2.562m0 0l-.165-.312m0 0l-.342-.087m0 0l-.294.196m0 0h-17.291m0 0l-.293-.196m0 0l-.343.087m0 0l-.165.312m0 0v2.562m0 0l.165-.313m0 0l.343-.086m0 0l.293.196m0 0h17.291M122.333 360.155l.165-.312m0 0l.342-.087m0 0l.294.196m0 0h.058m0 0v-3.224m0 0h-.859m0 0v3.427M139.563 362.92h-15.566m-.001 0l1.005.227m.001 0h13.556m-.001 0l1.005-.227M140.425 362.92l.294.196m0 0l.342-.086m0 0l.165-.313m0 0l-.165-.313m0 0l-.342-.086m0 0l-.294.196m0 0h-17.291m0 0l-.293-.196m0 0l-.343.086m0 0l-.165.313m0 0l.165.313m0 0l.343.086m0 0l.293-.196m0 0h17.291M144.249 319.692v-3.028m0 0h.859m.001 0h17.175m-.001 0h.859m.001 0v3.028M163.143 313.237v3.427m0 0h-.859m-.001 0v-3.224m0 0h.058m0 0l.293.196m.001 0l.343-.087m0 0l.165-.312M162.341 310.878l.293.196m0 0l.343-.087m0 0l.165-.312m0 0v2.562m0 0l-.165.312m0 0l-.343.087m0 0l-.293-.196m0 0H145.05m0 0l-.293.196m0 0l-.343-.087m0 0l-.165-.312m0 0v-2.562m0 0l.165.312m0 0l.343.087m0 0l.293-.196m0 0h17.291M144.249 313.237l.165.312m0 0l.342.087m0 0l.294-.196m0 0h.058m.001 0v3.224m0 0h-.859m-.001 0v-3.427M161.479 310.472h-15.566m0 0l1.005-.227m0 0h13.556m0 0l1.005.227M162.341 310.472l.293-.196m0 0l.343.086m0 0l.165.313m0 0l-.165.312m0 0l-.343.087m0 0l-.293-.196m0 0H145.05m0 0l-.293.196m0 0l-.343-.087m0 0l-.165-.312m0 0l.165-.313m0 0l.343-.086m0 0l.293.196m0 0h17.291M122.333 319.692v-3.028m0 0h.859m0 0h17.175m0 0h.859m0 0v3.028M141.226 313.237v3.427m0 0h-.859m0 0v-3.224m0 0h.058m0 0l.294.196m0 0l.342-.087m0 0l.165-.312M140.425 310.878l.294.196m0 0l.342-.087m0 0l.165-.312m0 0v2.562m0 0l-.165.312m0 0l-.342.087m0 0l-.294-.196m0 0h-17.291m0 0l-.293.196m0 0l-.343-.087m0 0l-.165-.312m0 0v-2.562m0 0l.165.312m0 0l.343.087m0 0l.293-.196m0 0h17.291M122.333 313.237l.165.312m0 0l.342.087m0 0l.294-.196m0 0h.058m0 0v3.224m0 0h-.859m0 0v-3.427M139.563 310.472h-15.566m-.001 0l1.005-.227m.001 0h13.556m-.001 0l1.005.227M140.425 310.472l.294-.196m0 0l.342.086m0 0l.165.313m0 0l-.165.312m0 0l-.342.087m0 0l-.294-.196m0 0h-17.291m0 0l-.293.196m0 0l-.343-.087m0 0l-.165-.312m0 0l.165-.313m0 0l.343-.086m0 0l.293.196m0 0h17.291M119.31 353.7v3.028m0 0h-.859m-.001 0h-17.175m.001 0h-.859m-.001 0V353.7M100.416 360.155v-3.427m0 0h.859m.001 0v3.224m0 0h-.058m-.001 0l-.294-.196m0 0l-.342.087m0 0l-.165.312M101.218 362.514l-.294-.196m0 0l-.342.086m0 0l-.165.313m0 0v-2.562m0 0l.165-.312m0 0l.342-.087m0 0l.294.196m0 0h17.291m0 0l.293-.196m0 0l.343.087m0 0l.165.312m0 0v2.562m0 0l-.165-.313m0 0l-.343-.086m0 0l-.293.196m0 0h-17.291M119.31 360.155l-.165-.312m0 0l-.343-.087m0 0l-.293.196m-.001 0h-.058m0 0v-3.224m0 0h.859m.001 0v3.427M102.08 362.92h15.565m0 0l-1.004.227m0 0h-13.556m0 0l-1.005-.227M101.218 362.92l-.294.196m0 0l-.342-.086m0 0l-.165-.313m0 0l.165-.313m0 0l.342-.086m0 0l.294.196m0 0h17.291m0 0l.293-.196m0 0l.343.086m0 0l.165.313m0 0l-.165.313m0 0l-.343.086m0 0l-.293-.196m0 0h-17.291M119.31 319.692v-3.028m0 0h-.859m-.001 0h-17.175m.001 0h-.859m-.001 0v3.028M100.416 313.237v3.427m0 0h.859m.001 0v-3.224m0 0h-.058m-.001 0l-.294.196m0 0l-.342-.087m0 0l-.165-.312M101.218 310.878l-.294.196m0 0l-.342-.087m0 0l-.165-.312m0 0v2.562m0 0l.165.312m0 0l.342.087m0 0l.294-.196m0 0h17.291m0 0l.293.196m0 0l.343-.087m0 0l.165-.312m0 0v-2.562m0 0l-.165.312m0 0l-.343.087m0 0l-.293-.196m0 0h-17.291M119.31 313.237l-.165.312m0 0l-.343.087m0 0l-.293-.196m-.001 0h-.058m0 0v3.224m0 0h.859m.001 0v-3.427M102.08 310.472h15.565m0 0l-1.004-.227m0 0h-13.556m0 0l-1.005.227M101.218 310.472l-.294-.196m0 0l-.342.086m0 0l-.165.313m0 0l.165.312m0 0l.342.087m0 0l.294-.196m0 0h17.291m0 0l.293.196m0 0l.343-.087m0 0l.165-.312m0 0l-.165-.313m0 0l-.343-.086m0 0l-.293.196m0 0h-17.291M92.141 319.692V353.7m0 0h79.352m.001 0v-34.008m0 0H92.141M152.638 277.938v-1.89m0 0H79.257m0 0v1.89m0 0h73.381M152.638 240.152h-36.69m.001 0v26.451m0 0h36.69m-.001 0v-26.451M115.948 240.152h-36.69m0 0v26.451m0 0h36.69m0 0v-26.451M79.258 240.152H69.66m0 0v37.787m0 0h9.598m0 0v-1.89m0-9.446v-26.451M162.236 240.152h-9.598m0 0v26.451m0 9.446v1.89m0 0h9.598m0 0v-37.787M115.948 276.049v-9.446m0 0H74.459m0 0v9.446m0 0h41.489M115.948 276.049v-9.446m0 0h41.489m0 0v9.446m0 0h-41.489M228.174 256.967h-22.672m0 0v-22.672m0 0h22.672m0 0v22.672M216.838 241.852v7.557M219.51 242.959l-5.344 5.344M220.616 245.631h-7.557M219.51 248.303l-5.344-5.344M257.08 304.388v-19.271m0 .001l.221-.534m0 0l.535-.222m0 0h17.381m0 0l.535.222m0 0l.221.534m0 0v19.271m0-.001l-.221.534m0 0l-.535.222m0 .001h-17.381m0 0l-.535-.222m0-.001l-.221-.534M254.246 306.089v-22.672M276.918 306.089v-22.672M254.246 306.089h22.672M254.246 283.418h22.672M258.97 302.5v-15.494M259.725 286.251h11.714M272.195 287.007V302.5M271.439 303.255h-11.714M258.97 302.5h.108a.108.108 0 00-.108-.108.108.108 0 10.108.108h-.108zM258.97 287.007c0-.417.338-.756.755-.756M271.439 286.251c.417 0 .756.339.756.756M272.195 302.5a.756.756 0 01-.756.755M259.725 303.255a.755.755 0 01-.755-.755M267.362 295.093l-.24-.1m0 0l-.099-.241m0 0l.1-.24m0 0l.24-.099m0 0h7.477m0 0l.24.099m0 0l.099.241m0 0l-.099.241m0 0l-.24.099m0 0h-7.478M272.912 295.508v-.415m0 0h1.927m0 0l.24-.099m.001 0l.1-.241m0 0l-.1-.24m0 0l-.24-.1m-.001 0h-1.927m0 0v-.414m0 0h2.456m0 0v1.509m0 0h-2.456M271.552 295.498v-.404m0-.001h1.323m0 0v.404m0 .001h-1.323M271.552 294.009h1.323m0 0v.404m0 0h-1.323m0 0v-.404M254.246 328.761v-22.672M276.918 328.761v-22.672M254.246 328.761h22.672M254.246 306.089h22.672M219.105 338.774h21.916m0 0v18.515m0 0h-21.916m0 0v-18.515M230.063 350.054v5.299M230.063 355.353h1.096M230.063 350.054h1.096M238.917 350.054v5.299M237.821 355.353h1.096M237.821 350.054h1.096M226.556 352.92a2.74 2.74 0 11-5.479.001 2.74 2.74 0 015.479-.001zM229.055 344.681a3.968 3.968 0 11-7.936 0 3.968 3.968 0 017.936 0z"/><path class="st2" d="M227.355 344.681a2.267 2.267 0 11-4.534 0 2.267 2.267 0 014.534 0zM237.135 352.735a2.646 2.646 0 11-5.291-.001 2.646 2.646 0 015.291.001zM239.009 344.144a3.401 3.401 0 11-6.803 0 3.401 3.401 0 016.803 0zM205.88 336.696h48.366M205.88 359.368h48.366M205.88 336.696v22.672M254.246 336.696v22.672M258.025 94.486V45.363M276.918 94.486V45.363M258.025 45.364h18.893M258.025 94.486h18.893M261.237 90.896V73.515M261.237 73.515h12.469M273.706 73.515v8.237m0 .907v8.238M273.706 90.896h-12.469M261.237 66.335V48.954M261.237 48.953h12.469M273.706 48.953v8.237m0 .907v8.237M273.706 66.335h-12.469M271.953 82.659a1.134 1.134 0 01-2.079 0h2.079zm-2.079-.907a1.133 1.133 0 012.077 0h-2.077zM271.953 58.097a1.134 1.134 0 01-2.079 0h2.079zm-2.079-.906a1.135 1.135 0 012.079 0h-2.079zM276.389 81.752v.907m0 0h-7.749m0 0l-.3-.256m0 0v-.395m0 0l.3-.256m0 0h7.749M276.389 82.961v-1.512m0 0h.264m0 0v1.512m0 0h-.264M276.653 83.339v-2.267m0 0h.265m0 0v2.267m0 0h-.265M275.029 85.474h1.625m0 0v-.094m0 0h.132m0 0v-.284m0-.001h.132m0 0v1.89m0 .001h-.132m0 0v-.283m0-.001h-.132m0 0v-.095m0 0h-1.625m0 0v-.322m0 0h-.416m0 0v1.078m0 .001h-.491m0 0v-2.645m0-.001h.491m0 0v1.076m0 .001h.416m0 0v-.321M275.029 78.937h1.625m0 0v.094m0 0h.132m0 0v.283m0 0h.132m0 0v-1.889m0 0h-.132m0 0v.284m0 0h-.132m0 0v.094m0 0h-1.625m0 0v.322m0 0h-.416m0 0v-1.077m0 0h-.491m0 0v2.644m0 0h.491m0 0v-1.076m0 0h.416m0 0v.321M276.389 57.191v.907m0 0h-7.749m0 0l-.3-.256m0 0v-.395m0 0l.3-.256m0 0h7.749M276.389 58.4v-1.512m0 0h.264m0 0V58.4m0 0h-.264M276.653 58.778v-2.267m0 0h.265m0 0v2.267m0 0h-.265M275.029 60.913h1.625m0 0v-.095m0 0h.132m0 0v-.283m0 0h.132m0 0v1.889m0 0h-.132m0 0v-.283m0 0h-.132m0 0v-.095m0 0h-1.625m0 0v-.321m0 0h-.416m0 0v1.077m0 0h-.491m0 0v-2.645m0 0h.491m0 0v1.077m0 0h.416m0 0v-.321M275.029 54.376h1.625m0 0v.094m0 0h.132m0 0v.284m0 0h.132m0 0v-1.89m0 0h-.132m0 0v.284m0 0h-.132m0 0v.094m0 0h-1.625m0 0v.322m0 0h-.416m0 0v-1.078m0 0h-.491m0 0v2.645m0 0h.491m0 0v-1.076m0 0h.416m0 0v.321M274.613 86.286l-.072-.072M274.613 85.795l-.072.072M275.029 86.286v-.491M276.653 86.607v-1.134M276.785 85.379v1.323M274.613 78.124l-.072.073M274.613 78.616l-.072-.072M275.029 78.124v.492M276.653 77.803v1.134M276.785 79.031v-1.322M274.613 61.725l-.072-.072M274.613 61.234l-.072.072M275.029 61.725v-.491M276.653 62.046v-1.133M276.785 60.818v1.322M274.613 53.563l-.072.073M274.613 54.055l-.072-.072M275.029 53.563v.491M276.653 53.242v1.134M276.785 54.47v-1.322M274.613 86.041a.246.246 0 11-.491-.001.246.246 0 01.491.001zM274.613 78.37a.246.246 0 11-.492 0 .246.246 0 01.492 0zM274.613 61.479a.246.246 0 11-.492 0 .246.246 0 01.492 0zM274.613 53.809a.246.246 0 11-.492 0 .246.246 0 01.492 0zM246.689 245.631a7.18 7.18 0 11-14.36 0 7.18 7.18 0 0114.36 0zM267.053 320.581a3.413 3.413 0 11-6.825-.001 3.413 3.413 0 016.825.001z"/><path class="st2" d="M266.531 320.581a2.89 2.89 0 11-5.78 0 2.89 2.89 0 015.78 0zM265.388 314.273a2.58 2.58 0 11-5.16-.001 2.58 2.58 0 015.16.001z"/><path class="st2" d="M264.254 314.273a1.444 1.444 0 11-2.889.001 1.444 1.444 0 012.889-.001zM169.133 19.48a3.779 3.779 0 11-7.558-.002 3.779 3.779 0 017.558.002z"/><path class="st2" d="M166.487 19.48a1.133 1.133 0 11-2.265 0 1.133 1.133 0 012.265 0zM80.335 19.48a3.779 3.779 0 11-7.558-.002 3.779 3.779 0 017.558.002z"/><path class="st2" d="M77.69 19.48a1.134 1.134 0 11-2.267-.001 1.134 1.134 0 012.267.001zM154.963 90.329H86.947m0 0V14.757m0 0h68.016m0 0v75.572M153.073 92.219H88.837m0 0l-.723-.144m0 0l-.613-.41m0-.001l-.41-.612m0 0l-.144-.724m0 0h68.016m0 0l-.144.724m0 0l-.41.612m0 0l-.613.41m0 .001l-.723.144M154.963 10.978H86.947m0 0v3.778m0 0h68.016m0 0v-3.778M86.947 10.978h68.016m0 0v1.889m0 0H86.947m0 0v-1.889M85.058 10.978H68.054m0 0v18.893m0 .001h17.004m0 0V10.978M156.852 10.978h17.004m0 0v18.893m0 .001h-17.004m0 0V10.978M114.909 16.646H89.214m0 0l-.267.111m0 0l-.11.267m0 0v12.47m0 0l.11.267m0 0l.267.111m0 0h25.695m0 0l.267-.111m0 0l.111-.267m0 0v-12.47m0 0l-.111-.267m0 0l-.267-.111M127.001 16.646h25.694m0 0l.267.111m0 0l.111.267m0 0v12.47m0 0l-.111.267m0 0l-.267.111m0 0h-25.694m0 0l-.268-.111m0 0l-.11-.267m0 0v-12.47m0 0l.11-.267m0 0l.268-.111M154.963 28.848h-1.89M126.623 28.848h-11.336M88.837 28.848h-1.89M154.963 33.857H86.947m0 0v18.686m0 0l68.016-14.908m0 0v-3.778M208.525 10.978h-22.672m0 0v70.66m0 0h22.672m0 0v-70.66M196.811 81.639h.755m0 0v-70.66m0 0h-.755m0 0v70.66M206.721 18.415h-18.626m0 0v.756m0 0h18.626m0 0v-.756M206.721 20.42h-18.626m0 0v.756m0 0h18.626m0 0v-.756M206.721 22.424h-18.626m0 0v.756m0 0h18.626m0 0v-.756M206.721 24.429h-18.626m0 0v.756m0 0h18.626m0 0v-.756M206.585 28.675l-18.491-2.241m0 0l-.091.75m0 0l18.491 2.241m0 0l.091-.75M135.814 140.228v-1.02m0 0H91.445m0 0v1.02m0 0h44.369M134.41 139.208l.71-3.41m0 0l.68.141m0 0l-.68 3.269m0 0h-.71M126.113 139.208v-.832m0 0l-.152-.567m0 0l-.415-.414m0 0l-.567-.153m0 0H102.28m0 0l-.566.153m0 0l-.415.414m0 0l-.153.567m0 0v.832m0 0h24.967M134.41 140.585l.71 3.41m0 0l.68-.141m0 0l-.68-3.269m0 0h-.71M92.85 139.208l-.71-3.41m-.001 0l-.68.141m0 0l.68 3.269m0 0h.71M92.85 140.526l-.71 3.41m-.001 0l-.68-.141m0 0l.68-3.269m0 0h.71M135.814 140.526v-.298m0 0H91.445m0 0v.298m0 0h44.369M208.525 231.273V208.6m0 0h68.393m0 0v22.672m0 .001h-68.393M276.918 219.559v.756m0 0h-68.393m0 0v-.756m0 0h68.393M217.473 229.279v-18.626m0 0h.756m0 0v18.626m0 0h-.756M219.478 229.279v-18.626m0 0h.755m0 0v18.626m0 0h-.755M221.482 229.279v-18.626m0 0h.755m0 0v18.626m0 0h-.755M223.487 229.279v-18.626m0 0h.756m0 0v18.626m0 0h-.756M227.733 229.145l-2.241-18.491m0-.001l.75-.091m0 0l2.241 18.491m0 0l-.75.091M254.246 263.013h22.672m0 0v-28.717m0 0h-26.072m0 0v22.672m0 0h3.4m0 0v6.045M261.425 283.418h-7.179m0 0v-20.405m0-.001h7.179m0 0v20.405M233.501 246.147l1.233-.449m0 0h1.312m0 0l1.233.449m0 0l1.474-.342m0 0h1.512m0 0l1.473.342m0 0l1.235-.45m0 0h1.314m0 0l1.234.45m0 0l-2.231-2.987m0 0h-7.558m0 0l-2.231 2.987M235.733 242.898h7.557m0 0v.262m0 0h-7.557m0 0v-.262M235.733 242.375h7.557m0 0v.262m0 0h-7.557m0 0v-.262M240.353 247.662l-.891.085m0 0l-.022-.226m0 0l.477-.046m0 .001l-1.383-1.142m0-.001l.126-.152m0 .001l.642.53m0-.001l.067-.082m0 .001l-.74-.61m0 0l.121-.147m0 0l.74.611m0 0l.08-.097m0 0l-.601-.497m0 0l.107-.13m0 0l.602.496m0 0l.08-.097m0 0l-.414-.342m0-.001l.115-.14m0 0l1.422 1.174M228.174 256.967h22.672m0 0v-22.672m0 0h-22.672m0 0v22.672M261.434 324.65v-.963m0 0h-1.205m0 0v-12.524m0 0h1.205m0 0v-.964M270.96 323.186l-.103-.047m-.103-.047l-.104-.048m-.102-.045l-.104-.047m-.103-.049l-.103-.047m-.103-.047l-.103-.047m-.103-.047l-.103-.047m-.103-.048l-.103-.047m-.103-.047l-.103-.048m-.103-.046l-.103-.047m-.103-.048l-.103-.047m-.104-.047l-.103-.047m-.103-.046l-.103-.047m-.103-.049l-.103-.047m-.103-.046l-.104-.047m-.102-.048l-.104-.047m-.103-.048l-.103-.047m-.103-.047l-.103-.047M270.96 313.553l-.103.047m-.103.048l-.104.047m-.102.046l-.104.048m-.103.047l-.103.047m-.103.047l-.103.047m-.103.048l-.103.047m-.103.047l-.103.047m-.103.046l-.103.048m-.103.047l-.103.047m-.103.048l-.103.047m-.104.047l-.103.047m-.103.048l-.103.047m-.103.047l-.103.047m-.103.047l-.104.047m-.102.047l-.104.048m-.103.047l-.103.047m-.103.046l-.103.048M270.96 323.186v-.078m0-.113v-.114m0-.113v-.113m0-.114v-.077m0 .001l-.051-.042m-.089-.073l-.088-.071m-.087-.072l-.088-.071m-.088-.071l-.089-.071m-.087-.072l-.088-.072m-.088-.071l-.089-.072m-.088-.07l-.087-.072m-.088-.072l-.089-.072m-.088-.071l-.087-.072m-.088-.071l-.089-.071m-.088-.072l-.088-.071m-.087-.072l-.088-.071m-.089-.072l-.088-.071m-.088-.071l-.088-.072m-.088-.071l-.088-.072m-.088-.071l-.087-.072m-.089-.071l-.088-.072m-.088-.071l-.088-.071m-.088-.071l-.088-.071m-.088-.073l-.088-.071m-.087-.072l-.089-.071m-.088-.071l-.088-.072m-.088-.071l-.051-.042M270.96 313.553v.078m0 .113v.114m0 .113v.113m0 .114v.078m0 0l-.051.042m-.089.071l-.088.071m-.087.072l-.088.071m-.088.072l-.089.071m-.087.072l-.088.071m-.088.072l-.089.071m-.088.071l-.087.072m-.088.071l-.089.072m-.088.071l-.087.072m-.088.07l-.089.071m-.088.073l-.088.071m-.087.072l-.088.071m-.089.072l-.088.071m-.088.071l-.088.071m-.088.072l-.088.072m-.088.071l-.087.072m-.089.071l-.088.072m-.088.071l-.088.071m-.088.072l-.088.071m-.088.072l-.088.071m-.087.072l-.089.072m-.088.071l-.088.072m-.088.071l-.051.041M271.438 313.553v9.634m0 0h-.479m0 0v-.722m0 0h.238m0 0v-8.189m0 0h-.238m0 0v-.723m0 0h.479M254.246 328.761h22.672m0 0v7.368m0 0h-22.672m0 0v-7.368M169.033 18.62l-3.679.86m0 0l-1.584 3.431m0 0l1.584-3.431m0 0l-1.306-3.546M72.877 18.62l3.679.86m0 0l1.584 3.431m0 0l-1.584-3.431m0 0l1.306-3.546"/></g><g id="walls_1_"><path class="st3" d="M.121 386.954h44.588m0 0V5.123m0 0H.121m0 0v381.831M49.243 285.686h15.492M41.686 285.686h5.668M47.354 285.686h1.89M49.243 351.812h15.492M41.686 351.812h5.668M47.354 351.812h1.89M41.686 351.812v-66.126M64.735 351.812v-66.126M49.243 351.812v-3.779M49.243 348.033h-1.89M47.354 348.033v3.779M47.354 314.026v1.889M47.354 315.915h1.89M49.243 315.915v-1.889M48.298 348.033v-32.118M49.243 348.033v-32.118M47.354 315.915v32.118M49.243 314.026v-.945M49.243 313.081h-.945M48.298 313.081v-.944M48.298 312.137h-.945M47.354 312.137v1.889M47.354 285.686v3.779M47.354 289.465h.944M48.298 289.465v-.945M48.298 288.52h.945M49.243 288.52v-2.834M47.354 289.465v22.672M50.187 310.247v-18.893M50.187 313.081v-2.834M50.187 310.247h-1.889M48.298 310.247v2.834M48.298 313.081h1.889M48.298 288.52v2.834M48.298 291.354h1.889M50.187 291.354v-2.834M50.187 288.52h-1.889M48.298 291.354v18.893M50.187 310.247v-18.893M49.243 310.247v-18.893M47.354 351.812h1.89M47.354 351.812h1.89M41.686 351.812h5.668M49.243 351.812h15.492M47.354 285.686h1.89M47.354 285.686h1.89M41.686 285.686h5.668M49.243 285.686h15.492M41.686 285.686h23.049"/><g><path class="st3" d="M49.243 157.969h15.492M41.686 157.969h5.668M47.354 157.969h1.89M49.243 241.098h15.492M41.686 241.098h5.668M47.354 241.098h1.89M41.686 241.098v-83.129M64.735 241.098v-83.129M49.243 241.098v-3.779M49.243 237.319h-1.89M47.354 237.319v3.779M47.354 201.423v1.889M47.354 203.312h1.89M49.243 203.312v-1.889M48.298 237.319v-34.007M49.243 237.319v-34.007M47.354 203.312v34.007M49.243 201.423v-.945M49.243 200.478h-.945M48.298 200.478v-.945M48.298 199.533h-.945M47.354 199.533v1.89M47.354 157.969v3.778M47.354 161.747h.944M48.298 161.747v-.945M48.298 160.802h.945M49.243 160.802v-2.833M50.187 160.802l28.056 28.055M47.354 161.747v37.786M50.187 197.644v-34.008M50.187 200.478v-2.834M50.187 197.644h-1.889M48.298 197.644v2.834M48.298 200.478h1.889M48.298 160.802v2.834M48.298 163.636h1.889M50.187 163.636v-2.834M50.187 160.802h-1.889M48.298 163.636v34.008M50.187 197.644v-34.008M49.243 197.644v-34.008M78.242 188.858a39.677 39.677 0 01-28.055 11.621M47.354 241.098h1.89M47.354 241.098h1.89M41.686 241.098h5.668M49.243 241.098h15.492M47.354 157.969h1.89M47.354 157.969h1.89M41.686 157.969h5.668M49.243 157.969h15.492"/><g><path class="st3" d="M49.243 100.533h15.492M41.686 100.533h5.668M47.354 100.533h1.89M49.243 34.407h15.492M41.686 34.407h5.668M47.354 34.407h1.89M41.686 34.407v66.126M64.735 34.407v66.126M49.243 34.407v3.779M49.243 38.186h-1.89M47.354 38.186v-3.779M47.354 72.193v-1.889M47.354 70.304h1.89M49.243 70.304v1.889M48.298 38.186v32.118M49.243 38.186v32.118M47.354 70.304V38.186M49.243 72.193v.945M49.243 73.138h-.945M48.298 73.138v.945M48.298 74.083h-.945M47.354 74.083v-1.89M47.354 100.533v-3.778M47.354 96.755h.944M48.298 96.755v.944M48.298 97.699h.945M49.243 97.699v2.834M47.354 96.755V74.083M50.187 75.972v18.893M50.187 73.138v2.834M50.187 75.972h-1.889M48.298 75.972v-2.834M48.298 73.138h1.889M48.298 97.699v-2.834M48.298 94.865h1.889M50.187 94.865v2.834M50.187 97.699h-1.889M48.298 94.865V75.972M50.187 75.972v18.893M49.243 75.972v18.893M47.354 34.407h1.89M47.354 34.407h1.89M41.686 34.407h5.668M49.243 34.407h15.492M47.354 100.533h1.89M47.354 100.533h1.89M41.686 100.533h5.668M49.243 100.533h15.492M41.686 34.407h23.049"/></g></g><g><path class="st3" d="M301.542 191.567c-6.023 2.248-9.147 2.874-15.568 3.202"/><path class="st4" d="M301.632 191.527l-15.658-36.209h-1.512v.454l15.783 36.355z"/><g><path class="st5" d="M172.818 111.257c-1.785 4.783-2.286 7.229-2.545 12.327"/><path class="st4" d="M172.859 111.158l-.613 1.38 28.897 12.556h.454v-1.51z"/><g><path class="st5" d="M242.97 120.07c1.601 4.293 2.038 6.493 2.271 11.07"/><path class="st4" d="M242.931 119.981l-25.804 11.159-.017 1.511h.47l25.951-11.282z"/></g></g><g><path class="st5" d="M301.542 191.567c-6.023 2.248-9.147 2.874-15.568 3.202"/><path class="st4" d="M301.632 191.527l-15.658-36.209h-1.512v.454l15.783 36.355z"/><g><path class="st5" d="M172.818 111.257c-1.785 4.783-2.286 7.229-2.545 12.327"/><path class="st4" d="M172.859 111.158l-.613 1.38 28.897 12.556h.454v-1.51z"/><g><path class="st5" d="M242.97 120.07c1.601 4.293 2.038 6.493 2.271 11.07"/><path class="st4" d="M242.931 119.981l-25.804 11.159-.017 1.511h.47l25.951-11.282z"/></g></g></g></g><path d="M276.906 346.9h9.068V194.767h-1.511v-.453h-7.557V346.9h0zm9.067-192.64v1.058h-1.511v.454h-7.557L276.894-.083h9.068l.011 154.343h0zM110.055 382.23h-45.32v-30.418h-23.05v40.62h68.369V382.23h.001zM41.686 241.098h23.05v44.588h-23.05v-44.588h0zm23.049-229.93v23.239h-23.05l-.012-34.49h23.05l.012 11.251h0zm45.32 112.415h-45.32v-23.05h-23.05v57.435h23.05v-23.805h45.319v-10.58z" fill-rule="evenodd" clip-rule="evenodd" stroke="#000" stroke-linecap="round" stroke-linejoin="round" stroke-miterlimit="3"/><g><path class="st7" d="M68.39-.003l-3.58 3.15M75.81-.003l-11 9.69M83.24-.003l-12.45 10.96M90.65-.003l-12.44 10.96M98.08-.003l-12.45 10.96M105.5-.003l-12.44 10.96M112.92-.003l-12.44 10.96M120.34-.003l-12.44 10.96M127.77-.003l-12.44 10.96M135.18-.003l-12.44 10.96M142.61-.003l-12.44 10.96M150.03-.003l-12.44 10.96M157.46-.003l-12.45 10.96M164.88-.003l-12.44 10.96M172.3-.003l-12.44 10.96M179.73-.003l-12.45 10.96M187.14-.003l-12.44 10.96M194.57-.003l-12.45 10.96M201.99-.003l-12.44 10.96M209.41-.003l-12.44 10.96M216.83-.003l-12.44 10.96M211.61 11.137l-3.02 2.66M224.26-.003l-12.44 10.96M211.61 17.677l-3.02 2.66M231.67-.003l-12.44 10.96M211.61 24.207l-3.02 2.66M239.1-.003l-12.44 10.96M211.61 30.747l-3.02 2.66M246.52-.003l-12.44 10.96M211.61 37.287l-3.02 2.67M113.9 123.367l-3.77 3.32M253.95-.003l-12.45 10.96M211.61 43.827l-3.02 2.66M121.32 123.367l-11.19 9.86M261.37-.003l-12.44 10.96M211.61 50.367l-3.02 2.66M128.75 123.367l-12.01 10.58M268.79-.003l-12.44 10.96M211.61 56.897l-3.02 2.67M136.16 123.367l-12.01 10.58M276.21-.003l-14.72 12.96M276.98 5.857l-5.79 5.1M211.61 63.437l-3.02 2.66M143.58 123.367l-12.01 10.58M264.51 16.837l-3.02 2.66M211.61 69.987l-3.02 2.66M151.01 123.367L139 133.947M264.51 23.377l-3.02 2.67M211.61 76.517l-3.02 2.66M158.43 123.367l-12.01 10.58M264.51 29.917l-3.02 2.66M211.61 83.057l-3.02 2.66M165.85 123.367l-12.01 10.58M267.09 34.187l-3.44 3.03M211.61 89.597l-3.02 2.66M170.81 125.537l-9.54 8.41M274.51 34.187l-3.44 3.03M170.81 132.087l-2.12 1.86M211.61 96.137l-3.02 2.66M211.61 102.677l-3.02 2.66M211.61 109.207l-3.02 2.66M201.25 124.877l-.03.03M202.96 123.367l-1.28 1.13M211.61 115.747l-3.02 2.66M211.61 122.287l-10.39 9.16M211.61 128.827l-5.81 5.12M216.65 130.927l-3.42 3.02M272.9 94.457l-.45.39M276.98 97.397l-.1.09M275.47 98.727l-3.02 2.66M246.34 130.927l-1.02.9M275.47 105.267l-3.02 2.66M253.76 130.927l-3.42 3.02M275.47 111.807l-3.02 2.66M261.19 130.927l-3.43 3.02M275.47 118.347l-3.02 2.66M275.47 124.887l-3.02 2.66M268.61 130.927l-3.43 3.02M276.03 130.927l-3.43 3.02M208.59 209.947l-3.02 2.67M208.59 216.487l-3.02 2.67M208.59 223.027l-3.02 2.67M208.59 229.567l-3.02 2.66M214.1 231.247l-3.42 3.02M221.53 231.247l-3.43 3.02M228.95 231.247l-3.43 3.02M236.37 231.247l-3.42 3.02M243.8 231.247l-3.43 3.02M251.21 231.247l-3.42 3.02M258.64 231.247l-3.43 3.02M266.06 231.247l-3.43 3.02M273.48 231.247l-3.43 3.02M117.18 382.017l-7.05 6.21M124.6 382.017l-11.58 10.2M265.43 264.497l-2.43 2.14M132.02 382.017l-11.58 10.2M139.44 382.017l-11.58 10.2M272.85 264.497l-3.43 3.02M266.03 270.507l-3.03 2.67M146.86 382.017l-11.57 10.2M276.98 267.397l-.14.12M266.03 277.037l-3.03 2.67M271.39 278.857l-3.42 3.02M154.29 382.017l-11.58 10.2M276.98 280.477l-1.59 1.4M161.71 382.017l-11.58 10.2M169.14 382.017l-11.58 10.2M176.55 382.017l-11.58 10.2M209.71 359.347l-3.76 3.31M183.98 382.017l-11.58 10.2M191.4 382.017l-11.58 10.2M217.13 359.347l-11.18 9.85M198.82 382.017l-11.58 10.2M224.56 359.347l-18.61 16.39M258.36 336.107l-4.05 3.57M216.9 372.627l-22.23 19.59M231.98 359.347l-12.43 10.95M239.4 359.347l-12.43 10.95M216.9 379.167l-14.81 13.05M265.79 336.107l-11.48 10.11M246.82 359.347l-12.43 10.95M216.9 385.707l-7.39 6.51M273.2 336.107l-18.89 16.64M264.51 350.307l-10.2 8.98M254.24 359.347l-12.43 10.95M276.98 339.317l-8.36 7.37M276.98 345.857l-.94.83M264.51 356.847l-15.27 13.45M264.51 363.377l-7.85 6.92M264.51 369.917l-.43.38"/></g><path d="M246.298 131.14h26.073l-.001-36.464h4.535v3.023h-1.513l.001 33.441h1.512v3.023h-32.118v-1.512h.453v-1.511h1.058zM208.512 11.169H64.735V.21h212.17v10.958h-12.47v23.239h12.47v3.023h-12.47v8.124h-3.022V11.168h-49.878V131.14h5.574v1.511h.471v1.512h-16.437v-9.069h.454v-1.511h6.915V11.169h0zM110.055 382.23v10.202h106.771v-21.916h47.61V346.9h12.47v-10.581h-22.672v23.239h-48.366v22.672h-95.813 0zm0-258.647v10.58h60.671v-9.069h-.453v-1.511h-60.218 0zm166.85 110.902h-71.416v-25.694h3.023v22.671h68.393v3.023h0zm-13.981 30.229h13.981v3.023h-10.958v11.336h10.958v3.023h-13.981v-17.382z" fill-rule="evenodd" clip-rule="evenodd" fill="none" stroke="#000" stroke-linecap="round" stroke-linejoin="round" stroke-miterlimit="22.926"/></g><g id="sizes"><path d="M70.649 234.652l3.961-5.281c.229-.302.407-.616.535-.941s.191-.629.191-.91v-.016c0-.453-.133-.805-.398-1.055s-.644-.375-1.133-.375c-.464 0-.839.137-1.125.41s-.461.66-.523 1.16v.008h-1.648v-.008c.094-.651.285-1.207.574-1.668s.663-.813 1.121-1.055.987-.363 1.586-.363c.677 0 1.255.116 1.734.348s.844.569 1.094 1.012.375.977.375 1.602v.008c0 .401-.083.82-.25 1.258s-.398.859-.695 1.266l-3.289 4.469h4.297v1.516H70.65v-1.385zM80.731 235.816c-.445-.224-.808-.55-1.086-.977s-.465-.94-.559-1.539v-.008h1.594v.008c.058.417.224.741.5.973s.636.348 1.078.348c.511 0 .905-.171 1.184-.512s.418-.821.418-1.441v-.953c0-.614-.14-1.093-.418-1.434s-.673-.512-1.184-.512c-.276 0-.542.078-.797.234s-.479.375-.672.656h-1.453v-5.984h5.789v1.516H80.93v2.555a2.275 2.275 0 011.414-.508c.656 0 1.218.136 1.684.406s.82.667 1.063 1.188.363 1.148.363 1.883v.953c0 .734-.125 1.362-.375 1.883s-.614.918-1.094 1.191-1.055.41-1.727.41c-.573 0-1.082-.112-1.527-.336zM87.641 234.441h1.594v1.594l-1.594 1.578v-3.172zM94.164 236.035H92.57v-9.625l-1.617.992v-1.648l1.617-1.078h1.594v11.359zM254.497 144.656l3.812-8.227h1.641l-3.719 8.133h5.57v1.477h-7.305v-1.383zm4.899-3.555h1.555v6.688h-1.555v-6.688zM263.599 146.187h1.594v1.594l-1.594 1.578v-3.172zM268.896 147.507a2.849 2.849 0 01-1.207-1.105c-.284-.477-.426-1.03-.426-1.66v-.188c0-.567.142-1.102.426-1.602.283-.5.662-.877 1.137-1.133-.401-.219-.723-.535-.965-.949s-.363-.85-.363-1.309v-.273c0-.594.133-1.116.398-1.566.266-.45.641-.799 1.125-1.047.484-.247 1.047-.371 1.688-.371s1.203.124 1.688.371c.484.248.859.597 1.125 1.047.266.451.398.973.398 1.566v.273c0 .469-.124.909-.371 1.32a2.478 2.478 0 01-.98.938c.479.261.863.64 1.152 1.137a3.13 3.13 0 01.434 1.598v.188c0 .63-.143 1.184-.426 1.66a2.854 2.854 0 01-1.207 1.105c-.521.261-1.125.391-1.813.391s-1.293-.13-1.813-.391zm2.789-1.359c.281-.146.498-.35.652-.613.153-.263.23-.566.23-.91v-.109c0-.349-.077-.655-.23-.918a1.582 1.582 0 00-.652-.613 2.09 2.09 0 00-.977-.219c-.37 0-.695.073-.977.219a1.573 1.573 0 00-.652.617c-.154.266-.23.573-.23.922v.117c0 .344.076.646.23.906.153.261.371.462.652.605.281.144.606.215.977.215.369 0 .695-.073.977-.219zm-.133-5.121c.244-.138.435-.334.57-.59.135-.255.203-.549.203-.883v-.109c0-.317-.068-.599-.203-.844a1.406 1.406 0 00-.57-.566 1.74 1.74 0 00-.844-.199c-.318 0-.6.066-.844.199a1.4 1.4 0 00-.57.566 1.726 1.726 0 00-.203.852v.117c0 .328.067.619.203.871.135.253.325.448.57.586.244.138.525.207.844.207.318 0 .599-.069.844-.207z"/><g><path d="M231.238 280.176a2.757 2.757 0 01-1.086-.977c-.278-.427-.465-.939-.559-1.539v-.008h1.594v.008c.058.417.225.741.5.973.276.232.636.348 1.078.348.511 0 .905-.17 1.184-.512.279-.341.418-.821.418-1.441v-.953c0-.614-.139-1.092-.418-1.434-.278-.341-.673-.512-1.184-.512-.275 0-.541.078-.797.234a2.237 2.237 0 00-.672.656h-1.453v-5.984h5.789v1.516h-4.195v2.555c.198-.161.42-.286.664-.375.245-.088.495-.133.75-.133.656 0 1.218.136 1.684.406a2.6 2.6 0 011.063 1.188c.242.521.363 1.148.363 1.883v.953c0 .734-.125 1.362-.375 1.883-.25.521-.614.918-1.094 1.191-.479.273-1.055.41-1.727.41-.571 0-1.081-.113-1.527-.336zM238.149 278.801h1.594v1.594l-1.594 1.578v-3.172zM247.797 270.457l-2.938 9.938h-1.695l2.938-9.844h-2.891v1.633h-1.594v-3.148h6.18v1.421z"/></g><g><path d="M220.067 60.897a2.75 2.75 0 01-1.086-.977c-.279-.427-.465-.94-.559-1.539v-.008h1.594v.008c.057.417.224.741.5.973.275.232.635.348 1.078.348.51 0 .904-.17 1.184-.512.278-.341.418-.821.418-1.441v-.953c0-.614-.14-1.092-.418-1.434-.279-.341-.674-.512-1.184-.512-.276 0-.542.078-.797.234a2.225 2.225 0 00-.672.656h-1.453v-5.984h5.789v1.516h-4.195v2.555a2.262 2.262 0 011.414-.508c.656 0 1.217.136 1.684.406.466.271.82.667 1.063 1.188.242.521.363 1.148.363 1.883v.953c0 .734-.125 1.362-.375 1.883-.25.521-.615.918-1.094 1.191-.479.273-1.055.41-1.727.41-.573 0-1.082-.112-1.527-.336zM226.977 59.522h1.594v1.594l-1.594 1.578v-3.172zM233.5 61.116h-1.594v-9.625l-1.617.992v-1.648l1.617-1.078h1.594v11.359z"/></g><g><path d="M74.968 119.222h-1.594v-9.625l-1.617.992v-1.648l1.617-1.078h1.594v11.359zM80.288 119.222h-1.594v-9.625l-1.617.992v-1.648l1.617-1.078h1.594v11.359zM82.71 117.628h1.594v1.594L82.71 120.8v-3.172zM88.476 119.339l-.727-.348a2.857 2.857 0 01-1.168-1.008c-.294-.44-.48-.97-.559-1.59h1.625c.047.323.148.589.305.797.156.208.358.363.605.465s.538.152.871.152c.526 0 .935-.141 1.227-.422s.438-.677.438-1.188v-.344c0-.567-.138-1.006-.414-1.316-.276-.31-.667-.465-1.172-.465h-.805v-1.516h.805c.442 0 .786-.133 1.031-.398s.367-.641.367-1.125v-.352c0-.448-.129-.794-.387-1.039-.258-.245-.624-.367-1.098-.367-.271 0-.513.051-.727.152s-.395.258-.543.469-.257.476-.324.793H86.21c.104-.62.301-1.151.59-1.594a2.893 2.893 0 011.098-1.008c.442-.229.95-.344 1.523-.344.979 0 1.737.258 2.273.773s.805 1.242.805 2.18v.188c0 .568-.153 1.063-.461 1.484s-.742.729-1.305.922c.62.136 1.101.44 1.441.914.341.474.512 1.078.512 1.813v.188c0 .662-.128 1.227-.383 1.695s-.626.826-1.113 1.07c-.487.245-1.074.367-1.762.367l-.952.002z"/></g><g><path d="M17.1 222.121h-1.594v-9.625l-1.617.992v-1.648l1.617-1.078H17.1v11.359zM20.502 221.387c-.55-.567-.824-1.359-.824-2.375v-5.164c0-1.021.275-1.813.828-2.379.552-.564 1.356-.848 2.414-.848 1.063 0 1.868.281 2.418.844.549.563.824 1.357.824 2.383v5.164c0 1.021-.276 1.814-.828 2.379-.553.565-1.357.848-2.414.848-1.062-.001-1.869-.284-2.418-.852zm3.664-1.106c.268-.294.402-.717.402-1.27v-5.164c0-.552-.133-.975-.398-1.27-.266-.294-.683-.441-1.25-.441-.568 0-.984.147-1.25.441-.266.295-.398.718-.398 1.27v5.164c0 .553.134.976.402 1.27.268.295.684.441 1.246.441s.978-.146 1.246-.441zM28.35 220.527h1.594v1.594l-1.594 1.578v-3.172zM33.647 221.848a2.849 2.849 0 01-1.207-1.105c-.284-.477-.426-1.029-.426-1.66v-.188c0-.567.142-1.102.426-1.602.283-.5.662-.877 1.137-1.133-.401-.219-.723-.535-.965-.949s-.363-.85-.363-1.309v-.273c0-.594.133-1.115.398-1.566.266-.45.641-.799 1.125-1.047.484-.247 1.047-.371 1.688-.371s1.203.124 1.688.371c.484.248.859.597 1.125 1.047.266.451.398.973.398 1.566v.273c0 .469-.124.909-.371 1.32a2.472 2.472 0 01-.98.938c.479.261.863.64 1.152 1.137a3.13 3.13 0 01.434 1.598v.188c0 .631-.143 1.184-.426 1.66a2.848 2.848 0 01-1.207 1.105c-.521.261-1.125.391-1.813.391s-1.293-.131-1.813-.391zm2.789-1.36c.281-.146.498-.35.652-.613.153-.263.23-.566.23-.91v-.109c0-.349-.077-.654-.23-.918a1.582 1.582 0 00-.652-.613 2.09 2.09 0 00-.977-.219c-.37 0-.695.073-.977.219a1.573 1.573 0 00-.652.617c-.154.266-.23.573-.23.922v.117c0 .344.076.646.23.906.153.261.371.463.652.605.281.144.606.215.977.215.369 0 .695-.072.977-.219zm-.133-5.121c.244-.138.435-.334.57-.59.135-.255.203-.549.203-.883v-.109c0-.317-.068-.599-.203-.844a1.412 1.412 0 00-.57-.566 1.74 1.74 0 00-.844-.199c-.318 0-.6.066-.844.199a1.4 1.4 0 00-.57.566 1.726 1.726 0 00-.203.852v.117c0 .328.067.619.203.871.135.253.325.448.57.586.244.139.525.207.844.207.318 0 .599-.068.844-.207z"/></g></g></svg>