<svg version="1.1" id="_x31_44" xmlns="http://www.w3.org/2000/svg" x="0" y="0" viewBox="0 0 488.86 463.484" xml:space="preserve"><style>.st1{fill-rule:evenodd;clip-rule:evenodd;stroke:#999;stroke-width:.4}.st1,.st2,.st3{fill:none;stroke-linecap:round;stroke-linejoin:round;stroke-miterlimit:3}.st2{fill-rule:evenodd;clip-rule:evenodd;stroke:#999}.st3{stroke:#000}.st4,.st5,.st7,.st8{fill-rule:evenodd;clip-rule:evenodd}.st5,.st7,.st8{fill:none}.st5{stroke:#000;stroke-linecap:round;stroke-linejoin:round;stroke-miterlimit:3}.st7,.st8{stroke-miterlimit:22.9256}.st7{stroke-linecap:round;stroke-linejoin:round;stroke:#000}.st8{stroke:#666;stroke-width:.6}</style><path fill="#fff" d="M.5 419.667h154.03v43.317h91.055V419.53h201.212V154.648h41.511V33.731h-41.511V.552L202.155.5l.259 189.101L.635 189.6z"/><g id="mebel_2_"><path class="st1" d="M226.165 71.329h57.247m-55.733-11.336h55.734m-55.734-11.336h55.734M226.165 37.32h30.889m.005 0h26.354m-57.246-11.334h24.527m12.727 0h19.992m-13.319 51.011V16.161m-22.672 60.836V16.161m-22.672 28.83M91.588 259.127l1.949-1.95m-8.896 1.95l8.896-8.897m-15.844 8.897l15.844-15.844m-22.79 15.844l22.79-22.791M63.8 259.127l29.737-29.738m-36.684 29.738l36.684-36.685m-43.631 36.685l43.631-43.632m-47.234 40.287l40.109-40.11m-40.109 33.163l33.162-33.162M46.303 241.889l26.216-26.216m-26.216 19.268l20.783-20.784m-20.783 13.836l20.783-20.784m-24.854 17.91l24.855-24.855m-31.803 24.855l7.979-7.98m2.222-2.221l16.248-16.249m-33.395 26.45l6.839-6.839m9.922-9.922l9.689-9.689m-29.644 22.697l3.749-3.749m11.929-11.93l7.019-7.019m-13.918 6.972l6.971-6.971M26.155 206.46l7.79-7.791M25.144 200.524L27 198.669M93.537 219.219l-3.547-3.547m3.547 10.495l-10.493-10.494m-15.957-15.958l-1.047-1.047m27.497 34.445l-17.44-17.44m-9.01-9.011l-7.994-7.994m34.444 41.393L69.15 215.672m-2.063-2.063l-14.94-14.941m41.39 48.339l-48.338-48.338m48.338 55.284l-55.285-55.285m53.511 60.459l-45.669-45.67m-8.155-8.155l-6.633-6.633m53.509 60.458l-41.849-41.85m-11.389-11.39l-6.433-6.433m52.724 59.673l-31.565-31.566m-2.442-2.442l-6.658-6.658m-11.909-11.91l-.15-.15m45.778 52.726l-24.619-24.619m-9.389-9.389l-7.441-7.441m34.502 41.449l-17.672-17.672m-16.335-16.336l-4.824-4.824m31.883 38.832l-10.724-10.724M50.081 259.127l-3.778-3.778M11.92 220.964"/><path class="st2" d="M211.43 76.996h73.495m0 0v26.828m0 .001H211.43m0 0V76.996M220.005 101.678l-1.063-.081m0 0l-1.032-.242m0 0l-.968-.396m0 0l-.874-.536m0 0l-.755-.661m0 0l-.612-.766m0 0l-.451-.847m0 0l-.277-.905m0 0l-.093-.931m0 0V84.508m0 0l.093-.932m0 0l.277-.903m0 0l.451-.848m0 0l.612-.765m0 0l.755-.661m0 0l.874-.537m0 0l.968-.395m0 0l1.032-.242m0 0l1.063-.082m0 0h49.608m0 0l2.234.171m0 0l2.166.509m0 0l2.031.83m0 0l1.837 1.127m0 0l1.585 1.388m0 0l1.286 1.609m0 0l.947 1.78m0 0l.58 1.897m0 0l.196 1.956m0 0l-.196 1.957m0 0l-.58 1.898m0 0l-.947 1.78m0 0l-1.286 1.609m0 0l-1.585 1.388m0 0l-1.837 1.127m0 0l-2.031.83m0 0l-2.166.508m0 0l-2.234.171m0 0h-49.608M221.443 90.411a.945.945 0 11-1.89 0 .945.945 0 011.89 0zM250.655 31.153l.469 1.645m0 0l.718 1.551m0 0l.968 1.23m0 0l1.248.943m0 0l1.448.594m0 0l1.55.205m0 0l1.552-.205m0 0l1.447-.594m0 0l1.249-.943m0 0l.967-1.23m0 0l.719-1.551m0 0l.469-1.645m0 0l.207-1.698m0 0l-.059-1.709m0 0l-1.223-11.585m0 0H251.73m0 0l-1.223 11.585m0 0l-.059 1.709m0 0l.207 1.698M261.174 21.882h-4.117M257.057 21.882h-4.116M260.121 36.149c-.89.57-1.962.881-3.064.887M263.369 29.32c.165 2.591-1.031 5.106-3.248 6.829M261.174 21.882c1.506 2.253 2.266 4.827 2.195 7.437M250.746 29.32c-.07-2.61.689-5.185 2.194-7.437M253.994 36.149c-2.217-1.723-3.414-4.238-3.248-6.829M257.057 37.036a5.743 5.743 0 01-3.063-.887M261.705 16.161h-9.296m0 0v.189m0 0h9.296m0 0v-.189M247.61 16.161h18.894M247.61 11.626h18.894M247.61 16.161v-4.534M266.504 16.161v-4.534M46.304 259.128v-34.009M46.304 225.12H11.919M19.476 252.514a.944.944 0 11-1.889 0 .944.944 0 011.889 0zM24.902 243.416l.372 1.397m0 0l.792 1.208m0 .001l1.133.899m0-.001l1.358.496m0 0l1.445.043m0 .001l1.384-.414m0-.001l1.185-.828m0 0l.864-1.159m0 0l.454-1.372m0 0v-1.446m0 0l-.454-1.372m0 0l-.864-1.159m0 0l-1.185-.828m0 0l-1.384-.414m0 0l-1.445.043m0 .001l-1.358.496m0-.001l-1.133.898m0 0l-.792 1.209m0 0l-.372 1.397m0 .001h-5.538m0 0l.108-.456m0-.001l.037-.49m0 0l-.037-.488m0 0l-.108-.456m0 0l-.173-.392m0 0l-.224-.299m0 0l-.261-.189m0 .001l-.281-.064m0-.001h-.402m0 0l-.12.019m0 0l-.278.064m0 .001l-.104.054m0-.001l-.25.181m0 .001l-.07.078m0-.001l-.205.275m0 0l-.157.356m0 0l-.052.195m0 0l-.06.25m0 0l-.687.02m0 0l-.796.01m0 .001v-1.729m0-.001h-.435m0 0v-2.872m0 0l-.059-.159m0 0l-.148-.084m0 0l-.167.033m0 .001l-.105.134m0-.001l-.157.485m0 0l-.316.727m0 0l-.573 1.007m0 0l-.259.729m0 0h-.124m0 0v-.605m0 0h-.982m0 0v2.57m0 0h.877m0 0l.038.063m0 0l.034.032m0 0l.04.025m0 .001l.673.278m0-.001v.698m0 .001H12.22m0 0v-1.059m0 0h-.301m0 0v3.024m0 0h.301m0 0v-1.059m0-.001h1.361m0 0v1.437m0 0h.151m0 0v.415m0 0h-.303m0 0v-.151m0 .001h-.528m0 0v-.605m0-.001h-.982m0 0v2.57m0 .001h.982m0 0v-.604m0-.001h.528m0 0v-.152m0 .001h.303m0 0v.152m0-.001h1.512m0 0v-2.571m0 0h2.153m0 0v-.082m0 .001v-.093m0 0v-.124m0-.001v-.149m0 .001v-.043m0-.001h7.505M13.581 241.075v.209m0 0l-.341-.141m0 0l-.053-.325m0 0l.002-.008m0 0h.241m0 0v-.151m0 0h.302m0 0v.416m0 0h-.151M13.733 239.6h-.24m-.001 0l.239-.676m0 0l.563-.988m0 0l.024-.053m0 0v1.567m0 0h-.586m.001 0v.15M12.901 245.457h.528M12.901 246.137h.528M12.901 239.8v-.351M13.43 240.659v-.189M13.43 240.469v-.68M13.43 239.79v-.015M13.254 240.469h.176M13.425 239.79h.005M13.733 239.6v1.059M15.244 241.953v.558M14.318 239.45h.491M15.811 242.019v.491M14.797 236.654l.013-.076M12.693 240.803l.002.047M12.726 240.633l-.032.17M12.777 241.348l.01.046M12.787 241.394l.009.021M13.026 239.45l-.161.453M12.865 239.903l-.14.73M13.198 240.758l-.011.06M14.797 236.654l-.167.512M14.63 237.166l-.312.718M12.882 239.86v.001M12.695 240.85l.082.498M17.299 242.508l-.002.002M16.768 242.51l-.002-.002M14.129 241.075h-.128M13.884 241.075h-.104M14.001 241.075h-.117M13.581 241.284v.523M13.338 240.036l-.14.723M13.492 239.6l-.154.436M14.215 241.754h.108a.109.109 0 00-.108-.108.108.108 0 00-.108.108.108.108 0 00.216 0h-.108zM14.17 241.664l.045.091M14.155 241.565l.015.099M14.17 241.467l-.015.098M14.215 241.376l-.045.091M16.711 241.22l-.026.345M16.685 241.565l.026.345M16.728 241.149l-.017.071M16.787 242.231l.052.196M16.711 241.91l.076.321M14.382 241.197l.062-.009M16.839 242.427l.036.083M16.728 241.981l-.687-.02M14.443 241.943l-.062-.009M14.382 241.934l-.058-.026M14.324 241.908l-.05-.042M14.275 241.866l-.038-.055M14.236 241.811l-.021-.057M14.215 241.754l-.003-.008M14.212 241.747l-.008-.068M14.204 241.678v-.227M14.204 241.452l.008-.068M14.212 241.383l.003-.007M14.215 241.376l.021-.057M14.236 241.32l.038-.055M14.275 241.265l.049-.042M14.324 241.223l.058-.026M16.04 241.961l-1.597-.019M15.244 241.178l-.801.01M14.942 241.075v.107M14.942 241.949v.562M24.902 243.416h5.343M24.902 242.51h5.343M30.245 243.416v-.905M12.901 246.478v-1.36M13.43 246.327v-1.059M13.733 246.327v-1.059M13.733 244.853h1.209M14.942 241.075h-1.209M12.221 243.416v-.905M13.581 243.416h3.816M19.364 242.51h-5.783M14.942 244.853v-1.437M15.244 243.908v-.491M15.811 243.908v-.491M15.244 242.019h1.493M27.58 242.51a1.888 1.888 0 113.668.906 1.889 1.889 0 01-3.668 0M14.858 244.853a.34.34 0 11-.589 0M92.971 198.668H67.654m0 0l-.401.166m0 0l-.166.4m0 .001v15.871m0-.001l.166.401m0 .001l.401.166m0-.001h25.317m0 0l.4-.166m0 .001l.166-.401m0-.001v-15.871m0 .001l-.166-.4m0-.001l-.4-.166M91.837 202.825H80.765m-.907 0H68.787M68.221 203.392v10.58M68.787 214.54h23.05M92.403 213.972v-10.58M68.221 203.392c0-.313.254-.567.566-.567M68.787 214.54a.568.568 0 01-.566-.567M92.403 213.972a.568.568 0 01-.566.567M91.837 202.825c.312 0 .566.254.566.567M81.068 206.329a.757.757 0 01-.302.605v-1.21a.756.756 0 01.302.605zm-1.21.604a.757.757 0 010-1.21v1.21zM79.858 199.198h.907m0 0v7.748m0 0l-.256.301m0 0h-.395m.001 0l-.256-.301m-.001 0v-7.748M81.068 199.198h-1.511m-.001 0v-.265m0 0h1.511m.001 0v.265M81.445 198.933h-2.267m0 0v-.265m0 0h2.267m0 0v.265M83.58 200.558v-1.625m0 0h-.094m0 0v-.132m0 0h-.284m0 0v-.133m0 0h1.89m0 0v.133m0 0h-.283m0 0v.132m0 0h-.095m0 0v1.625m0 0h-.322m0 0v.415m0 0h1.078m0 0v.492m0 0h-2.646m0 0v-.492m0 0h1.077m0 0v-.415m0 0h-.321M77.043 200.558v-1.625m0 0h.095m0 0v-.132m0 0h.283m0 0v-.133m0 0h-1.889m0 0v.133m0 0h.283m0 0v.132m0 0h.095m0 0v1.625m0 0h.321m0 0v.415m0 0h-1.077m0 0v.492m0 0h2.645m0 0v-.492m0 0h-1.076m0 0v-.415m0 0h.32M84.393 200.973l-.072.072M83.901 200.973l.072.072M84.393 200.558h-.491M84.714 198.933H83.58M83.486 198.801h1.322M76.231 200.973l.072.072M76.723 200.973l-.072.072M76.231 200.558h.491M75.91 198.933h1.133M77.138 198.801h-1.322M84.393 201.219a.246.246 0 11-.491 0 .246.246 0 01.491 0zM76.723 201.219a.246.246 0 11-.492 0 .246.246 0 01.492 0zM40.136 205.492l1.645.47m0 0l1.551.717m0 0l1.23.968m0 0l.943 1.248m0 0l.594 1.449m0 0l.205 1.55m0 0l-.205 1.551m0 0l-.594 1.447m0 0l-.943 1.249m0 0l-1.23.967m0 0l-1.551.719m0 0l-1.645.469m0 0l-1.698.208m0 0l-1.709-.06m0 0l-11.585-1.223m0 0v-10.654m0 0l11.585-1.222m0 0l1.709-.06m0 0l1.698.207M30.865 216.01v-4.116M30.865 211.894v-4.117M46.019 211.894a5.746 5.746 0 01-.886 3.063M45.133 214.958c-1.724 2.217-4.239 3.413-6.83 3.248M38.303 218.205c-2.609.07-5.185-.689-7.437-2.195M30.865 207.777c2.253-1.505 4.828-2.265 7.437-2.194M38.303 205.582c2.591-.165 5.106 1.031 6.829 3.248M45.132 208.83c.57.889.881 1.961.887 3.063M25.143 216.542v-9.295m0-.001h.189m0 0v9.295m0 .001h-.189M25.143 202.448v18.893M20.609 202.448v9.824M25.143 202.448H20.61M25.143 221.34h-3.022M367.901 341.001h-3.028m0 0v.859m0 0v17.175m0 0v.86m0 0h3.028M361.445 359.895h3.427m0 0v-.859m0 0h-3.225m0 0v.057m0 0l.196.294m0 0l-.086.343m0 0l-.312.165M359.086 359.093l.196.294m0 0l-.087.343m0 0l-.312.165m0 0h2.562m0 0l.313-.165m0 0l.086-.343m0 0l-.196-.294m0 0v-17.29m0 0l.196-.294m0 0l-.086-.343m0 0l-.313-.165m0 0h-2.562m0 0l.312.165m0 0l.087.343m0 0l-.196.294m0 0v17.29M361.445 341.001l.312.165m0 0l.086.343m0 0l-.196.294m0 0v.057m0 0h3.225m0 0v-.859m0 0h-3.427M358.681 358.231v-15.565m0 0l-.227 1.004m0 0v13.556m0 0l.227 1.005M358.681 359.093l-.196.294m0 0l.086.343m0 0l.312.165m0 0l.313-.165m0 0l.087-.343m0 0l-.197-.294m0 0v-17.29m0 0l.197-.294m0 0l-.087-.343m0 0l-.313-.165m0 0l-.312.165m0 0l-.086.343m0 0l.196.294m0 0v17.29M367.901 319.085h-3.028m0 0v.858m0 0v17.176m0 0v.859m0 .001h3.028M361.445 337.978h3.427m0 0v-.858m0 0h-3.225m0 0v.057m0 0l.196.294m0 0l-.086.342m0 0l-.312.165M359.086 337.177l.196.294m0 0l-.087.342m0 0l-.312.165m0 0h2.562m0 0l.313-.165m0 0l.086-.342m0 0l-.196-.294m0 0v-17.291m0 0l.196-.294m0 0l-.086-.342m0 0l-.313-.165m0 0h-2.562m0 0l.312.165m0 0l.087.342m0 0l-.196.294m0 0v17.291M361.445 319.085l.312.165m0 0l.086.342m0 0l-.196.294m0 0v.057m0 0h3.225m0 0v-.858m0 0h-3.427M358.681 336.315v-15.566m0 0l-.227 1.004m0 0v13.557m0 0l.227 1.005M358.681 337.177l-.196.294m0 0l.086.342m0 0l.312.165m0 0l.313-.165m0 0l.087-.342m0 0l-.197-.294m0 0v-17.291m0 0l.197-.294m0 0l-.087-.342m0 0l-.313-.165m0 0l-.312.165m0 0l-.086.342m0 0l.196.294m0 0v17.291M401.909 341.001h3.027m0 0v.859m0 0v17.175m0 0v.86m0 0h-3.027M408.363 359.895h-3.427m0 0v-.859m0 0h3.225m0 0v.057m0 0l-.196.294m0 0l.086.343m0 0l.312.165M410.723 359.093l-.196.294m0 0l.087.343m0 0l.312.165m0 0h-2.562m0 0l-.313-.165m0 0l-.086-.343m0 0l.196-.294m0 0v-17.29m0 0l-.196-.294m0 0l.086-.343m0 0l.313-.165m0 0h2.562m0 0l-.312.165m0 0l-.087.343m0 0l.196.294m0 0v17.29M408.363 341.001l-.312.165m0 0l-.086.343m0 0l.196.294m0 0v.057m0 0h-3.225m0 0v-.859m0 0h3.427M411.128 358.231v-15.565m0 0l.227 1.004m0 0v13.556m0 0l-.227 1.005M411.128 359.093l.196.294m0 0l-.086.343m0 0l-.312.165m0 0l-.313-.165m0 0l-.087-.343m0 0l.197-.294m0 0v-17.29m0 0l-.197-.294m0 0l.087-.343m0 0l.313-.165m0 0l.312.165m0 0l.086.343m0 0l-.196.294m0 0v17.29M401.909 319.085h3.027m0 0v.858m0 0v17.176m0 0v.859m0 .001h-3.027M408.363 337.978h-3.427m0 0v-.858m0 0h3.225m0 0v.057m0 0l-.196.294m0 0l.086.342m0 0l.312.165M410.723 337.177l-.196.294m0 0l.087.342m0 0l.312.165m0 0h-2.562m0 0l-.313-.165m0 0l-.086-.342m0 0l.196-.294m0 0v-17.291m0 0l-.196-.294m0 0l.086-.342m0 0l.313-.165m0 0h2.562m0 0l-.312.165m0 0l-.087.342m0 0l.196.294m0 0v17.291M408.363 319.085l-.312.165m0 0l-.086.342m0 0l.196.294m0 0v.057m0 0h-3.225m0 0v-.858m0 0h3.427M411.128 336.315v-15.566m0 0l.227 1.004m0 0v13.557m0 0l-.227 1.005M411.128 337.177l.196.294m0 0l-.086.342m0 0l-.312.165m0 0l-.313-.165m0 0l-.087-.342m0 0l.197-.294m0 0v-17.291m0 0l-.197-.294m0 0l.087-.342m0 0l.313-.165m0 0l.312.165m0 0l.086.342m0 0l-.196.294m0 0v17.291M288.057 189.61h135.544m0 0v-15.115m0 0H288.057m0 0v15.115M288.057 188.854h135.544M355.829 189.61v-.756M288.057 189.61v-.756M401.908 307.485H367.9m0 0v60.458m0 0h34.008m0 0v-60.458M22.121 225.12H11.919m0 0v-12.848m0 0h10.202m0 0v12.848M226.167 34.11H211.43m0 0v10.881m0 0h14.737m0 0V34.11M211.43 76.996h14.737m0 0v-10.88m0 0H211.43m0 0v10.881M309.728 293.512v22.672m0 0H288m0 0v-22.672m0 0h21.728M295.242 304.848h7.243M296.303 302.288l5.121 5.121M298.863 301.227v7.242M301.424 302.288l-5.121 5.121M329.218 377.776h21.916m0 0v18.515m0 0h-21.916m0 0v-18.515M340.176 389.056v5.299M340.176 394.355h1.096M340.176 389.056h1.096M349.029 389.056v5.299M347.934 394.355h1.096M347.934 389.056h1.096M336.669 391.921a2.739 2.739 0 11-5.477 0 2.739 2.739 0 015.477 0zM339.168 383.682a3.967 3.967 0 11-7.935 0 3.969 3.969 0 017.935 0z"/><path class="st2" d="M337.468 383.682a2.268 2.268 0 11-4.536 0 2.268 2.268 0 014.536 0zM347.248 391.736a2.645 2.645 0 11-5.29.001 2.645 2.645 0 015.29-.001zM349.121 383.145a3.4 3.4 0 11-6.8.002 3.4 3.4 0 016.8-.002zM322.877 375.698h34.598M322.877 398.37h34.598M322.877 375.698v22.672M357.475 375.698v22.672M307.365 317.884v19.271m0 0l-.221.535m0 0l-.534.22m0 0h-17.382m0 0l-.535-.22m0 0l-.221-.535m0 0v-19.271m0 0l.221-.534m0 0l.535-.221m0 0h17.382m0 0l.534.221m0 0l.221.534M309.728 316.184v22.672M288 316.184v22.672M309.728 316.184H288M309.728 338.856H288M305.477 319.774v15.492M304.721 336.022h-11.714M292.251 335.266v-7.003m0-1.486v-7.003M293.007 319.018h11.714M305.477 319.774h.108a.108.108 0 10-.216 0 .108.108 0 00.216 0h-.108zM305.477 335.266a.756.756 0 01-.756.756M293.007 336.022a.756.756 0 01-.756-.756M292.251 319.774c0-.418.339-.756.756-.756M304.721 319.018c.417 0 .756.338.756.756M297.084 327.18l.24.1m0 0l.099.241m0 0l-.101.24m0 0l-.24.099m0 0h-7.477m0 0l-.24-.1m0 0l-.099-.24m0 0l.099-.24m0 0l.24-.1m0 0h7.479M291.533 326.765v.415m0 0h-1.928m0 0l-.24.1m0 0l-.1.24m0 0l.1.24m0 0l.24.1m0 0h1.928m0 0v.414m0 0h-2.456m0 0v-1.509m0 0h2.456M292.894 326.776v.404m0 0h-1.322m-.001 0v-.404m0 0h1.322M292.894 328.264h-1.322m-.001 0v-.404m0 0h1.322m.001 0v.404M309.728 338.856v22.672M288 338.856v22.672M309.728 338.856H288M309.728 361.528H288M410.224 265.172v-1.889m0 0h-63.935m0 0v1.889m0 0h63.935M410.224 227.386h-31.967m0 0v26.45m0 0h31.967m0 0v-26.45M378.257 227.386h-31.968m0 0v26.45m0 0h31.968m0 0v-26.45M346.289 227.386h-9.598m0 0v37.786m0 0h9.598m0 0v-1.89m0-9.445v-26.45M419.822 227.386h-9.599m0 0v26.45m0 9.447v1.89m0-.001h9.599m0 0v-37.786M378.257 263.284v-9.447m0 0H341.49m0 0v9.447m0 0h36.767M378.257 263.284v-9.447m0 0h36.767m0 0v9.447m0 0h-36.767M304.689 347.035a3.411 3.411 0 11-6.822.002 3.411 3.411 0 016.822-.002z"/><path class="st2" d="M304.167 347.035a2.89 2.89 0 11-5.78.001 2.89 2.89 0 015.78-.001zM304.689 353.343a2.58 2.58 0 11-5.16 0 2.58 2.58 0 015.16 0z"/><path class="st2" d="M303.555 353.343a1.444 1.444 0 11-2.891 0 1.444 1.444 0 012.891 0zM229.945 119.696a7.179 7.179 0 01-14.358 0 7.179 7.179 0 1114.358 0zM407.802 20.128a3.778 3.778 0 11-7.557 0 3.778 3.778 0 017.557 0z"/><path class="st2" d="M405.156 20.128a1.134 1.134 0 11-2.269 0 1.134 1.134 0 012.269 0zM319.004 20.128a3.778 3.778 0 11-7.557 0 3.778 3.778 0 017.557 0z"/><path class="st2" d="M316.358 20.128a1.134 1.134 0 11-2.269 0 1.134 1.134 0 012.269 0zM152.673 296.522a3.778 3.778 0 11-7.557 0 3.778 3.778 0 017.557 0z"/><path class="st2" d="M150.027 296.522a1.134 1.134 0 11-2.267 0 1.134 1.134 0 012.267 0zM152.673 385.32a3.778 3.778 0 11-7.557 0 3.778 3.778 0 017.557 0z"/><path class="st2" d="M150.027 385.32a1.134 1.134 0 11-2.267 0 1.134 1.134 0 012.267 0zM24.199 296.912a3.778 3.778 0 11-7.557.001 3.778 3.778 0 017.557-.001z"/><path class="st2" d="M21.555 296.912a1.134 1.134 0 11-2.267 0 1.134 1.134 0 012.267 0zM24.199 385.711a3.778 3.778 0 11-7.556 0 3.778 3.778 0 017.556 0z"/><path class="st2" d="M21.555 385.711a1.134 1.134 0 11-2.267-.001 1.134 1.134 0 012.267.001zM393.631 90.978h-68.015m0 0V15.405m0 0h68.015m0 0v75.573M391.742 92.867h-64.236m0 0l-.724-.144m0 0l-.612-.409m0 0l-.41-.613m0 0l-.144-.723m0 0h68.015m0 0l-.144.723m0 0l-.409.613m0 0l-.613.409m0 0l-.723.144M393.631 11.626h-68.015m0 0v3.778m0 0h68.015m0 0v-3.778M325.616 11.626h68.015m0 0v1.89m0 .001h-68.015m0 0v-1.89M323.727 11.626h-17.004m0 0V30.52m0 0h17.004m0 0V11.626M395.52 11.626h17.004m.001 0V30.52m0 0H395.52m0 0V11.626M353.578 17.295h-25.695m0 0l-.267.11m0 0l-.11.268m0-.001v12.47m0 .001l.11.266m0-.001l.267.112m0 0h25.695m0 0l.267-.112m0 0l.111-.266m0 .001v-12.47m0-.001l-.111-.268m0 .001l-.267-.11M365.67 17.295h25.694m0 0l.267.11m0 0l.111.268m0-.001v12.47m0 .001l-.111.266m0-.001l-.267.112m0 0H365.67m0 0l-.268-.112m0 0l-.11-.266m0 .001v-12.47m0-.001l.11-.268m0 .001l.268-.11M393.631 29.497h-1.889M365.292 29.497h-11.336M327.506 29.497h-1.89M393.631 34.505h-68.015m0 0v18.687m0 0l68.015-14.909m0 0v-3.778M423.601 165.416v-22.672m0 0H325.73m0 0v22.672m0 0h97.871M325.616 153.704v.755m0 0H423.6m0 0v-.755m0 0h-97.984M416.163 163.424v-18.627m0 0h-.756m0 0v18.627m0 0h.756M414.158 163.424v-18.627m0 0h-.755m0 0v18.627m0 0h.755M412.154 163.424v-18.627m0 0h-.756m0 0v18.627m0 0h.756M410.15 163.424v-18.627m0 0h-.756m0 0v18.627m0 0h.756M405.903 163.288l2.241-18.491m0 0l-.75-.091m0 0l-2.241 18.491m0 0l.75.091M211.43 131.032h22.672m0 0V189.6m0 0H211.43m0 0v-58.568M223.145 189.6h-.756m0 0v-58.568m0 0h.756m0 0V189.6M213.423 140.65h18.626m0 0v.756m0 0h-18.626m0 0v-.756M213.423 142.655h18.626m0 0v.756m0 0h-18.626m0 0v-.756M213.423 144.66h18.626m0 0v.755m0 0h-18.626m0 0v-.755M213.423 146.665h18.626m0 0v.755m0 0h-18.626m0 0v-.755M213.559 150.91l18.49-2.241m0 0l.092.75m0 0l-18.491 2.242m0 0l-.091-.751M96.561 198.668v21.538m0 0h46.854m-.001 0v-21.538m0 0H96.561M143.415 209.816v-.756m0 0H96.561m0 0v.756m0 0h46.854M99.903 200.095v18.626m0 0h.756m0 0v-18.626m0 0h-.756M101.908 200.095v18.626m0 0h.756m0 0v-18.626m0 0h-.756M103.912 200.095v18.626m0 0h.756m0 0v-18.626m0 0h-.756M105.917 200.095v18.626m0 0h.756m0 0v-18.626m0 0h-.756M110.163 200.23l-2.241 18.491m0 0l.75.091m0 0l2.241-18.491m0 0l-.75-.091M200.85 198.668v21.538m0 0h30.229m0 0v-21.538m0 0H200.85M231.079 209.816v-.756m0 0H200.85m0 0v.756m0 0h30.229M225.956 200.095v18.626m0 0h-.756m0 0v-18.626m0 0h.756M223.951 200.095v18.626m0 0h-.756m0 0v-18.626m0 0h.756M219.705 200.23l2.241 18.491m0 0l-.75.091m0 0l-2.241-18.491m0 0l.75-.091M219.743 374.928v-68.016m0 0h-75.572m0 0v68.016m0 0h75.572M221.633 373.039v-64.237m0 0l-.144-.723m0 .001l-.41-.613m0-.001l-.613-.409m0 .001l-.723-.145m0 0v68.016m0-.001l.723-.144m0 0l.613-.409m0 0l.41-.613m0 .001l.144-.723M140.392 374.928v-68.016m0 0h3.779m0 0v68.016m0 0h-3.779M140.392 306.913v68.016m0-.001h1.89m0 0v-68.016m0 .001h-1.89M140.392 305.024V288.02m0 0h18.894m0 0v17.004m0 0h-18.894M140.392 376.818v17.004m0 0h18.894m0 0v-17.004m0 0h-18.894M146.061 334.874V309.18m0 .001l.11-.268m0-.001l.267-.11m0 0h12.47m0 0l.267.11m0 0l.111.268m0 .001v25.694m0-.001l-.111.268m0 .001l-.267.11m0-.001h-12.47m0 0l-.267-.11m0 .001l-.11-.268M146.061 346.966v25.695m0 0l.11.267m0 0l.267.111m0 0h12.47m0 0l.267-.111m0 0l.111-.267m0 0v-25.695m0 0l-.111-.267m0 0l-.267-.111m0 0h-12.47m0 0l-.267.111m0 0l-.11.267M158.262 374.928v-1.889M158.262 346.588v-11.336M158.262 308.802v-1.89M163.271 374.928v-68.016m0 0h18.686m0 0l-14.908 68.016m0 0h-3.778M91.269 375.32v-68.016m0 0H15.698m0 0v68.016m0 0H91.27M93.159 373.43v-64.236m0 0l-.144-.724m0 0l-.41-.612m0 0l-.612-.41m0 0l-.724-.144m0 0v68.016m0 0l.724-.144m0 0l.612-.41m0 0l.41-.613m0 0l.144-.723M11.919 375.32v-68.016m0 0h3.778m0 0v68.016m0 0h-3.778M11.919 307.304v68.016m0 0h1.889m0 0v-68.016m0 0h-1.889M11.919 305.414V288.41m0 .001h18.893m0 0v17.004m0-.001H11.919M11.919 377.208v17.004m0 .001h18.893m0 0v-17.004m0-.001H11.919M17.587 335.266v-25.694m0 0l.11-.268m0 0l.268-.11m0 0h12.469m0 0l.267.11m0 0l.111.268m0 0v25.694m0 0l-.111.268m0 0l-.267.11m0 0H17.965m0 0l-.268-.11m0 0l-.11-.268M17.587 347.358v25.694m0 0l.11.268m0 0l.268.11m0 0h12.469m0 0l.267-.11m0 0l.111-.268m0 0v-25.694m0 0l-.111-.268m0 0l-.267-.11m0 0H17.965m0 0l-.268.11m0 0l-.11.268M29.788 375.32v-1.89M29.788 346.98v-11.336M29.788 309.194v-1.89M34.798 375.32v-68.016m0 0h18.686m0 0L38.576 375.32m0 0h-3.778M284.925 398.37h-22.672m0 0V262.15m0 0h22.672m0 0v136.22M273.211 262.15h.756m0 0v136.22m0 0h-.756m0 0V262.15M282.932 390.932h-18.626m0 0v-.756m0 0h18.626m0 0v.756M282.932 388.927h-18.626m0 0v-.755m0 0h18.626m0 0v.755M282.932 386.923h-18.626m0 0v-.756m0 0h18.626m0 0v.756M282.932 384.918h-18.626m0 0v-.756m0 0h18.626m0 0v.756M282.797 380.672l-18.491 2.241m0 0l-.091-.75m0 0l18.49-2.241m0 0l.092.75M11.919 262.15v22.672m0 0h78.973m0 0V262.15m0 0H11.919M90.892 273.864v-.756m0 0H11.919m0 0v.756m0 0h78.973M19.355 264.143v18.626m0 0h.756m0 0v-18.626m0 0h-.756M21.36 264.143v18.626m0 0h.756m0 0v-18.626m0 0h-.756M23.365 264.143v18.626m0 0h.755m0 0v-18.626m0 0h-.755M25.369 264.143v18.626m0 0h.756m0 0v-18.626m0 0h-.756M29.615 264.278l-2.241 18.491m0 0l.75.091m0 0l2.241-18.491m0 0l-.75-.091M396.233 180.741v-1.02m0 0h-44.369m0 0v1.02m0 0h44.369M394.829 179.721l.71-3.41m0 0l.68.141m0 0l-.68 3.269m0 0h-.71M386.532 179.721v-.832m0 0l-.152-.567m0 0l-.415-.415m0 0l-.567-.152m0 0h-22.699m0 0l-.566.152m0 0l-.415.415m0 0l-.153.567m0 0v.832m0 0h24.967M394.829 181.098l.71 3.41m0 0l.68-.141m0 0l-.68-3.269m0 0h-.71M353.269 179.721l-.71-3.41m0 0l-.68.141m0 0l.68 3.269m0 0h.71M353.269 181.038l-.71 3.41m0 0l-.68-.141m0 .001l.68-3.269m0-.001h.71M396.233 181.038v-.298m0 0h-44.369m0 0v.298m0 0h44.369M226.167 34.11H211.43m0 0v42.887m0 0h14.737m0 0V34.11M303.484 342.966v.964m0 0h1.204m0 0v12.523m0 0h-1.204m0 0v.964M293.479 344.43v9.634m0 0h.479m.001 0v-.723m0 0h-.238m-.001 0v-8.188m0 0h.238m.001 0v-.723m0 0h-.479M293.958 354.064l.104-.048m.102-.047l.104-.047m.102-.046l.104-.047m.103-.048l.103-.047m.103-.047l.103-.048m.103-.047l.103-.047m.103-.046l.103-.048m.103-.047l.104-.047m.102-.048l.104-.047m.102-.047l.104-.047m.103-.047l.103-.047m.104-.047l.102-.048m.104-.047l.102-.047m.104-.047l.102-.047m.104-.047l.102-.047m.104-.048l.103-.047m.103-.047l.103-.047M293.958 344.43v.078m0 .113v.114m0 .113v.113m0 .114v.078m0 0l.052.042m.088.071l.088.071m.087.072l.088.072m.088.07l.089.072m.088.072l.088.071m.088.071l.088.072m.088.072l.087.071m.088.071l.089.072m.088.071l.088.071m.088.072l.088.072m.088.071l.088.071m.087.072l.088.071m.089.072l.088.071m.088.072l.088.071m.088.071l.088.072m.088.071l.087.072m.089.071l.088.072m.088.071l.088.071m.088.072l.088.072m.088.071l.088.071m.087.072l.089.071m.088.071l.088.073m.088.071l.052.042M293.958 354.064v-.078m0-.113v-.114m0-.113v-.113m0-.114v-.078m0 0l.052-.042m.088-.071l.088-.071m.087-.072l.088-.071m.088-.072l.089-.071m.088-.072l.088-.071m.088-.071l.088-.072m.088-.071l.087-.072m.088-.071l.089-.072m.088-.071l.088-.071m.088-.072l.088-.072m.088-.071l.088-.071m.087-.072l.088-.071m.089-.071l.088-.072m.088-.072l.088-.071m.088-.071l.088-.072m.088-.071l.087-.071m.089-.072l.088-.072m.088-.071l.088-.071m.088-.072l.088-.072m.088-.071l.088-.071m.087-.072l.089-.071m.088-.071l.088-.073m.088-.071l.052-.042M309.728 361.528H288m0 0v36.842m0 0h23.428m0 0h11.449m-.001 0v-22.672m0 0h-13.149m.001 0v-14.17M309.728 293.512h-7.799m-.001 0V276.13m0 0h7.799m.001 0v17.382M223.282 125.704l-.449-1.233m0 0v-1.313m0 0l.449-1.233m0-.001l-.343-1.473m0 .001v-1.513m0-.001l.343-1.472m0 .001l-.45-1.235m0 0v-1.314m0-.001l.45-1.235m0 0l-2.987 2.232m0 0v7.558m0 0l2.987 2.231M220.033 123.472v-7.558m0 0h.262m0 0v7.558m0 0h-.262M219.51 123.472v-7.558m0 0h.262m0 0v7.558m0 0h-.262M224.798 118.852l.085.891m0 0l-.227.021m0 0l-.045-.476m0 0l-1.142 1.382m0 0l-.152-.125m0 0l.53-.642m0 0l-.081-.067m0 0l-.612.74m0 0l-.146-.121m0 0l.611-.74m0 0l-.097-.08m0 0l-.497.601m0 0l-.13-.108m0 0l.496-.6m0 0l-.097-.081m0 0l-.343.415m0 0l-.139-.116m0 0l1.174-1.422M234.102 131.032V108.36m0 0H211.43m0 0v22.672m0 0h22.672M140.392 281.798v-22.671m0 0h70.472m0 0v22.671m0 0h-70.472M210.863 270.085v.756m0 0h-70.472m0 0v-.756m0 0h70.472M150.011 279.805v-18.626m0 0h.756m0 0v18.626m0 0h-.756M152.016 279.805v-18.626m0 0h.756m0 0v18.626m0 0h-.756M154.019 279.805v-18.626m0 0h.756m0 0v18.626m0 0h-.756M156.024 279.805v-18.626m0 0h.756m0 0v18.626m0 0h-.756M160.271 279.67l-2.241-18.491m0 0l.75-.091m0 0l2.242 18.491m0 0l-.751.091M407.702 19.268l-3.68.86m0 0l-1.583 3.431m0 0l1.583-3.431m0 0l-1.305-3.546M311.546 19.268l3.679.86m0 0l1.584 3.431m0 0l-1.584-3.431m0 0l1.306-3.546M148.033 292.842l.86 3.68m0 0l3.431 1.584m0 0l-3.431-1.584m0 0l-3.545 1.305M148.033 388.999l.86-3.679m0-.001l3.431-1.584m0 0l-3.431 1.584m0 0l-3.545-1.306M19.561 293.234l.86 3.679m0 0l3.431 1.584m0 0l-3.431-1.584m0 0l-3.546 1.306M19.561 389.39l.86-3.679m0 0l3.431-1.584m0 0l-3.431 1.584m0 0l-3.546-1.306M211.43 45.557v19.992m0 0l.167.401m0 0l.4.166m0 0h15.115m0 0l.401-.166m0 0l.166-.401m0 0V45.557m0 0l-.166-.4m0 0l-.401-.166m0 0h-15.115m0 0l-.4.166m0 0l-.167.4M215.587 46.691v8.41m0 .905v8.41M216.153 64.982h9.825M226.545 64.415V46.691M225.979 46.125h-9.826M216.153 64.982a.567.567 0 01-.566-.566M226.545 64.415a.567.567 0 01-.566.566M225.979 46.125c.312 0 .566.253.566.566M215.587 46.691c0-.313.254-.566.566-.566M219.489 56.006a.754.754 0 01-1.209 0h1.209zm-1.21-.906a.753.753 0 011.209 0h-1.209zM211.959 56.006V55.1m0 0h7.748m0 0l.301.256m0 0v.394m0 0l-.301.256m0 0h-7.748M211.959 54.797v1.512m0 0h-.264m0 0v-1.512m0 0h.264M211.695 54.419v2.268m0 0h-.266m0 0v-2.268m0 0h.266M213.319 52.285h-1.624m0 0v.095m0 0h-.133m0 0v.283m0 0h-.133m0 0v-1.89m0 0h.133m0 0v.283m0 0h.133m0 0v.095m0 0h1.624m0 0v.322m0 0h.416m0 0v-1.078m0 0h.491m0 0v2.646m0 0h-.491m0 0v-1.077m0 0h-.416m0 0v.321M213.319 58.822h-1.624m0 0v-.095m0 0h-.133m0 0v-.283m0 0h-.133m0 0v1.89m0 0h.133m0 0v-.284m0 0h.133m0 0v-.094m0 0h1.624m0 0v-.322m0 0h.416m0 0v1.078m0 0h.491m0 0v-2.646m0 0h-.491m0 0v1.077m0 0h-.416m0 0v-.321M213.735 51.472l.072.072M213.735 51.963l.072-.072M213.319 51.472v.491M211.695 51.151v1.134M211.562 52.379v-1.323M213.735 59.634l.072-.072M213.735 59.143l.072.072M213.319 59.634v-.491M211.695 59.956v-1.134M211.562 58.727v1.322M214.226 51.718a.246.246 0 11-.491-.001.246.246 0 01.491.001zM214.226 59.388a.246.246 0 11-.492 0 .246.246 0 01.492 0z"/></g><g id="walls"><path class="st3" d="M439.145 135.754h-15.492M446.703 135.754h-5.668M441.035 135.754h-1.89M439.145 52.624h-15.492M446.703 52.624h-5.668M441.035 52.624h-1.89M446.703 52.624v83.13M423.653 52.624v83.13M439.145 52.624v3.778M439.145 56.403h1.89M441.035 56.403v-3.778M441.035 92.3v-1.89M441.035 90.411h-1.89M439.145 90.411v1.89M440.09 56.403v34.008M439.145 56.403v34.008M441.035 90.411V56.403M439.145 92.3v.944M439.145 93.245h.944M440.09 93.245v.945M440.09 94.19h.945M441.035 94.19V92.3M441.035 135.754v-3.778M441.035 131.976h-.945M440.09 131.976v.944M440.09 132.92h-.944M439.145 132.92v2.834M438.201 132.92l-28.056-28.055M441.035 131.976V94.19M438.201 96.078v34.008M438.201 93.245v2.834M438.201 96.078h1.889M440.09 96.078v-2.833M440.09 93.245h-1.889M440.09 132.92v-2.834M440.09 130.086h-1.889M438.201 130.086v2.834M438.201 132.92h1.889M440.09 130.086V96.078M438.201 96.078v34.008M439.145 96.078v34.008M410.145 104.865a39.68 39.68 0 0128.056-11.621M441.035 52.624h-1.89M441.035 52.624h-1.89M446.703 52.624h-5.668M439.145 52.624h-15.492M441.035 135.754h-1.89M441.035 135.754h-1.89M446.703 135.754h-5.668M439.145 135.754h-15.492"/><g><path class="st3" d="M439.145 265.172h-15.492M446.703 265.172h-5.668M441.035 265.172h-1.89M446.703 265.172v154.357M423.653 265.172v133.197M439.145 265.172v4.724M439.145 269.896h1.89M441.035 269.896v-4.724M441.035 411.972v-4.723M441.035 407.249h-1.89M439.145 407.249v4.724M441.035 413.862v-1.89M439.145 269.896V407.25M441.035 407.249V269.896M441.035 265.172h-1.89M441.035 265.172h-1.89M446.703 265.172h-5.668M439.145 265.172h-15.492M357.527 411.972v-13.603M357.527 419.53v-5.668M357.527 413.862v-1.89M357.527 419.53h89.176M357.527 398.37h66.126M357.527 411.972h4.723M362.25 411.972v1.89M362.25 413.862h-4.724M439.145 413.862h-4.724M434.421 413.862v-1.89M434.421 411.972h4.725M441.035 413.862h-1.89M362.25 411.972h72.172M434.421 413.862H362.25M357.527 413.862v-1.89M357.527 413.862v-1.89M357.527 419.53v-5.668M357.527 411.972v-13.603"/></g><g><path class="st3" d="M164.344 411.972v-13.603M164.344 419.53v-5.668M164.344 413.862v-1.89M238.972 411.972v-13.603M238.972 419.53v-5.668M238.972 413.862v-1.89M238.972 419.53h-74.628M238.972 398.37h-74.628M238.972 411.972h-3.779M235.193 411.972v1.89M235.193 413.862h3.779M203.547 413.862h1.891M205.437 413.862v-1.89M205.437 411.972h-1.89M235.193 412.916h-29.756M235.193 411.972h-29.756M205.437 413.862h29.756M203.547 411.972h-.944M202.603 411.972v.944M202.603 412.916h-.945M201.658 412.916v.945M201.658 413.862h1.89M164.344 413.862h3.778M168.123 413.862v-.945M168.123 412.916h-.944M167.178 412.916v-.943M167.178 411.972h-2.834M167.178 411.028l25.049-25.049M168.123 413.862h33.535M199.769 411.028h-29.757M202.603 411.028h-2.834M199.769 411.028v1.889M199.769 412.916h2.834M202.603 412.916v-1.889M167.178 412.916h2.834M170.012 412.916v-1.889M170.012 411.028h-2.834M167.178 411.028v1.889M170.012 412.916h29.757M199.769 411.028h-29.757M199.769 411.972h-29.757M192.227 385.979a35.42 35.42 0 0110.376 25.049M238.972 413.862v-1.89M238.972 413.862v-1.89M238.972 419.53v-5.668M238.972 411.972v-13.603M164.344 413.862v-1.89M164.344 413.862v-1.89M164.344 419.53v-5.668M164.344 411.972v-13.603M164.344 419.53v-21.16"/></g><g><path class="st3" d="M28.786 411.972v-13.603M28.786 419.53v-5.668M28.786 413.862v-1.89M111.915 411.972v-13.603M111.915 419.53v-5.668M111.915 413.862v-1.89M111.915 419.53H28.786M111.915 398.37H28.786M111.915 411.972h-3.778M108.137 411.972v1.89M108.137 413.862h3.778M57.125 413.862h1.891M59.015 413.862v-1.89M59.015 411.972h-1.89M108.137 412.916H59.015M108.137 411.972H59.015M59.015 413.862h49.122M57.125 411.972h-.943M56.181 411.972v.944M56.181 412.916h-.945M55.236 412.916v.945M55.236 413.862h1.89M28.786 413.862h3.778M32.564 413.862v-.945M32.564 412.916h-.944M31.62 412.916v-.943M31.62 411.972h-2.834M32.564 413.862h22.672M53.347 411.028H34.453M56.181 411.028h-2.834M53.347 411.028v1.889M53.347 412.916h2.834M56.181 412.916v-1.889M31.62 412.916h2.834M34.454 412.916v-1.889M34.454 411.028H31.62M31.62 411.028v1.889M34.454 412.916h18.894M53.347 411.028H34.453M53.347 411.972H34.453M111.915 413.862v-1.89M111.915 413.862v-1.89M111.915 419.53v-5.668M111.915 411.972v-13.603M28.786 413.862v-1.89M28.786 413.862v-1.89M28.786 419.53v-5.668M28.786 411.972v-13.603M28.786 419.53v-21.16"/></g><g><path class="st3" d="M488.36 154.648h-41.564m.001 0V33.731m0 0h41.564m-.001 0v120.917M154.897 419.53h90.688m0 0v43.454m0 0h-90.688m0 0V419.53"/></g><g><path class="st3" d="M101.74 274.508c-1.774-4.757-2.298-7.287-2.559-12.358"/><path class="st4" d="M101.74 274.508l28.578-12.358-.001-1.512h-.453l-28.725 12.482z"/><g><path class="st5" d="M223.626 274.711c-1.818-4.869-2.318-7.37-2.584-12.561"/><path class="st4" d="M223.662 274.808l29.272-12.658v-1.512h-.453l-29.419 12.782z"/><g><path class="st5" d="M272.415 227.624c4.87-1.816 7.371-2.314 12.562-2.579"/><path class="st4" d="M272.319 227.665l12.658 29.272h1.511v-.454l-12.782-29.418z"/><g><path class="st5" d="M154.909 174.025c-2.221 5.978-2.879 9.205-3.204 15.575"/><path class="st4" d="M154.945 173.942l-.6 1.387 36.354 15.781h.454l.001-1.51z"/><g><path class="st5" d="M300.587 130.899c-4.87-1.817-7.396-2.325-12.587-2.588"/><path class="st4" d="M300.658 130.93l-1.387-.6-12.783 29.418v.453H288z"/><g><path class="st5" d="M273.918 70.083c4.235 1.617 6.538 2.064 11.059 2.295"/><path class="st4" d="M273.818 70.069l1.388.6 11.282-25.952v-.453h-1.511z"/></g></g><g><path class="st5" d="M273.29 204.629c1.818 4.868 2.333 7.365 2.599 12.554"/><path class="st4" d="M273.27 204.526l-29.272 12.658v1.51h.453l29.419-12.781z"/></g></g></g><g><path class="st5" d="M81.016 225.014c4.871-1.817 7.381-2.305 12.573-2.57"/><path class="st4" d="M80.931 225.064l12.658 29.271h1.512v-.453l-12.783-29.419z"/></g></g></g><path d="M211.483.669h-9.069v188.932h-11.26v1.51h-.454v7.558h40.433v-9.068h-19.65V.669h0zM11.971 419.53H.635v-21.161h28.151v21.161H11.971h0zm140.187-220.862v-7.558h-.453v-1.51l-151.07-.001v9.068l151.523.001h0zM377.601.669h69.1v51.956h-23.049V11.627h-46.051V.669h0zm46.052 173.816h-46.427v-9.068h46.427v-29.662h23.049v129.418h-23.049v-90.688h0zM357.527 419.53H238.972v-21.161h118.555v21.161h0zm-193.184 0h-52.428v-21.161h19.461v-17.47h9.068v17.47h23.899v21.161z" fill-rule="evenodd" clip-rule="evenodd" stroke="#000" stroke-linecap="round" stroke-linejoin="round" stroke-miterlimit="3"/><path class="st7" d="M439.239 349.426h1.89v5.133h-1.89zM439.239 306.068h1.89v5.133h-1.89z"/><g><path class="st8" d="M218.145.841l-6.54 5.76M225.565.841l-12.44 10.96M.795 198.841l-.04.04M232.985.841l-12.44 10.96M8.215 198.841l-7.46 6.58M240.405.841l-12.44 10.96M226.345 13.221l-3.03 2.67M12.095 201.961l-11.34 9.99M226.345 19.761l-3.03 2.67M247.825.841l-12.44 10.96M233.665 13.311l-3.43 3.03M213.295 31.261l-1.69 1.49M23.055 198.841l-.76.67M12.095 208.501l-11.34 9.99M220.715 31.261l-3.42 3.02M241.095 13.311l-3.44 3.03M255.255.841l-12.45 10.96M226.345 26.301l-3.03 2.67M18.475 209.421l-3.44 3.03M12.095 215.041l-11.34 9.99M25.315 203.391l-3.02 2.67M248.515 13.311l-3.44 3.03M262.675.841l-12.44 10.96M226.345 32.841l-1.63 1.44M25.315 209.931l-2.86 2.52M12.095 221.581l-11.34 9.99M255.945 13.311l-3.44 3.03M270.095.841l-12.44 10.96M12.095 228.121l-11.34 9.99M263.365 13.311l-3.44 3.03M277.525.841l-12.45 10.96M12.095 234.651l-11.34 9.99M270.785 13.311l-3.44 3.03M284.935.841l-12.44 10.96M12.095 241.191l-11.34 9.99M278.205 13.311l-3.44 3.03M292.365.841l-12.45 10.96M12.095 247.731l-11.34 9.99M299.785.841l-17.6 15.5M12.095 254.271l-11.34 9.99M307.205.841l-12.44 10.96M288.125 17.651l-3.02 2.66M13.805 259.301l-13.05 11.5M314.635.841l-12.44 10.96M288.125 24.191l-3.02 2.66M12.095 267.351l-11.34 9.99M21.235 259.301l-3.43 3.02M322.055.841l-12.44 10.96M288.125 30.731l-3.02 2.66M96.735 199.331l-3.02 2.66M12.095 273.891l-11.34 9.99M28.655 259.301l-3.43 3.02M329.475.841l-12.45 10.96M288.125 37.261l-3.02 2.66M212.365 104.001l-.76.67M12.095 280.421l-11.34 9.99M96.735 205.861l-3.02 2.66M36.075 259.301l-3.43 3.02M336.895.841l-12.44 10.96M288.125 43.801l-1.24 1.09M219.785 104.001l-3.43 3.02M12.095 286.961l-11.34 9.99M96.735 212.401l-3.02 2.66M43.495 259.301l-3.43 3.02M344.315.841l-12.44 10.96M227.215 104.001l-3.43 3.02M96.735 218.941l-3.02 2.66M12.095 293.501l-11.34 9.99M50.915 259.301l-3.43 3.02M234.635 104.001l-3.43 3.02M351.745.841l-12.44 10.96M12.095 300.041l-11.34 9.99M58.345 259.301l-3.43 3.02M242.055 104.001l-3.42 3.02M359.165.841l-12.44 10.96M12.095 306.581l-11.34 9.99M65.765 259.301l-3.43 3.02M249.485 104.001l-3.43 3.02M285.185 72.551l-.08.07M366.585.841l-12.44 10.96M12.095 313.121l-11.34 9.98M73.185 259.301l-3.43 3.02M288.125 76.501l-3.02 2.66M256.905 104.001l-3.43 3.02M374.015.841l-12.45 10.96M12.095 319.651l-11.34 9.99M80.605 259.301l-3.43 3.02M288.125 83.031l-3.02 2.66M264.325 104.001l-3.43 3.02M377.725 4.101l-8.74 7.7M12.095 326.191l-11.34 9.99M88.035 259.301l-3.43 3.02M288.125 89.571l-3.02 2.66M271.745 104.001l-3.43 3.02M377.725 10.641l-1.32 1.16M96.735 258.171l-4.71 4.15M12.095 332.731l-11.34 9.99M288.125 96.111l-3.02 2.66M279.165 104.001l-3.42 3.02M12.095 339.271l-11.34 9.99M288.125 102.651l-4.96 4.37M12.095 345.811l-11.34 9.99M12.095 352.351l-11.34 9.99M12.095 358.891l-11.34 9.99M132.565 259.301l-2.12 1.86M12.095 365.421l-11.34 9.99M12.095 371.961l-11.34 9.99M139.985 259.301l-8.48 7.47M12.095 378.501l-11.34 9.99M140.565 265.331l-9.06 7.98M12.095 385.041l-11.34 9.99M140.565 271.871l-9.06 7.98M234.315 190.196l-3.06 2.7M234.315 196.446l-3.06 2.7M234.315 202.696l-3.06 2.7M234.315 208.946l-3.06 2.7M234.315 215.196l-3.06 2.7M237.19 217.362l-3.06 2.7M242.69 217.362l-3.06 2.7M284.065 217.362l-3.06 2.7M278.19 217.362l-3.06 2.7M12.095 391.581l-7.9 6.96M140.565 278.411l-9.06 7.98M12.095 398.111l-.48.43M143.945 281.971l-12.44 10.96M140.565 291.481l-9.06 7.99M151.365 281.971l-3.44 3.03M290.895 165.591l-5.79 5.1M140.565 298.021l-9.06 7.98M158.785 281.971l-3.44 3.03M166.205 281.971l-3.44 3.03M140.565 304.561l-9.06 7.98M298.325 165.591l-13.22 11.64M288.125 181.111l-3.02 2.66M140.565 311.101l-9.06 7.98M173.625 281.971l-3.44 3.03M305.745 165.591l-10.3 9.07M288.125 187.651l-3.02 2.66M140.565 317.631l-9.07 7.99M181.055 281.971l-3.44 3.03M313.165 165.591l-10.3 9.07M288.125 194.191l-3.22 2.976M214.205 259.301l-3.17 2.8M140.565 324.171l-9.07 7.99M188.475 281.971l-3.44 3.03M320.585 165.591l-10.29 9.07M288.125 200.731l-3.02 2.66M221.615 259.321l-3.41 3M195.905 281.971l-3.44 3.03M140.565 330.721l-9.07 7.99M214.065 265.971l-3.03 2.67M328.015 165.591l-10.3 9.07M288.125 207.261l-3.02 2.66M203.315 281.971l-3.44 3.03M140.565 337.251l-9.07 7.99M214.065 272.501l-3.03 2.67M335.425 165.591l-10.29 9.07M288.125 213.801l-3.02 2.66M210.735 281.971l-3.44 3.03M214.065 279.041l-3.03 2.67M140.565 343.791l-9.07 7.99M342.855 165.591l-10.3 9.07M140.565 350.321l-9.07 7.99M288.125 220.341l-3.02 2.66M350.275 165.591l-10.3 9.07M140.565 356.871l-9.07 7.99M357.705 165.591l-10.3 9.07M140.565 363.411l-9.07 7.99M258.745 259.301l-3.43 3.02M365.125 165.591l-10.3 9.07M266.165 259.301l-3.43 3.02M140.565 369.941l-9.07 7.99M372.545 165.591l-10.29 9.07M273.585 259.301l-3.43 3.02M140.565 376.481l-5.21 4.59M377.345 167.901l-7.68 6.76M377.345 174.431l-.26.23M281.005 259.301l-3.43 3.02M288.125 259.571l-3.12 2.75M288.125 266.111l-3.02 2.66M288.125 272.651l-3.02 2.66M291.385 276.311l-6.28 5.54M298.815 276.311l-3.43 3.02M288.125 285.731l-3.02 2.66M302.105 279.951l-3.02 2.66M289.945 290.661l-4.84 4.26M297.365 290.661l-3.43 3.02M302.105 286.481l-3.02 2.66M288.125 298.801l-3.02 2.66M302.105 293.021l-.76.67M288.125 305.341l-3.02 2.66M288.125 311.881l-3.02 2.66M288.125 318.421l-3.02 2.66M288.125 324.961l-3.02 2.66M288.125 331.491l-3.02 2.66M288.125 338.031l-3.02 2.66M288.125 344.571l-3.02 2.66M288.125 351.111l-3.02 2.66M288.125 357.651l-3.02 2.66M288.125 364.181l-3.02 2.66M288.125 370.731l-3.02 2.66M288.125 377.261l-3.02 2.66M288.125 383.801l-3.02 2.66M288.125 390.341l-3.02 2.66M288.125 396.881l-1.88 1.66"/></g><path class="st7" d="M284.977 128.764h1.511v-.453h1.511V73.436H288v-1.512h-1.512v.453h-1.51v1.058h-.001v30.389h-73.494v3.023h73.494v21.917zM11.972 209.248l-.001-10.58H.635v199.7h11.336V262.15h87.21v-1.511h.454v-1.512h-3.023v-5.245h-1.511v.453H93.59v4.792H11.971v-46.855h10.203v12.847h3.022v-26.45h-3.022v10.58H11.972v-.001zm128.472 49.879v22.672h70.472v-22.672h10.58v1.512h-.453v1.511h-7.104v22.671h-73.495v96.078h-9.068l.002-118.747-1.06-.001v-1.511h-.454v-1.512c3.398-.002 6.976-.001 10.58-.001zM288 165.417l-.001-5.215h-1.511v-.453h-1.511v57.435l-9.088.001v1.51h-.453v1.512l9.541-.001.001 4.839h1.51v.454H288l-.001-51.014h89.227v-9.068H288zm-44.002 51.768v1.51h.453v1.512h-13.318V189.6h3.021v27.583l9.844.002zM377.601.669v10.958h-89.603l.001 33.091h-1.512v-.453h-1.51l-.001-28.104h-58.759l.001 17.949h-14.735v-3.023h11.713v-19.46h-11.713V.669h166.118zm-92.624 10.958h-58.759v1.511h58.759v-1.511zm3.022 267.526h10.959v11.337h-10.959v-11.337zm.001-22.67h-1.512v.454h-1.51l-.001 1.058v1.132h-32.496v1.512h.453v1.511h32.043v136.219h3.022V293.497l13.982.016v-17.382h-13.982l.001-19.648zM93.59 198.669h3.022v24.228h-1.511v-.453H93.59v-23.775z"/></g><g id="sizes_3_"><path d="M173.879 442.754l3.93-5.203c.203-.266.36-.54.473-.824s.168-.548.168-.793v-.016c0-.38-.116-.675-.348-.883s-.562-.313-.988-.313c-.411 0-.743.126-.996.379s-.405.61-.457 1.074v.008h-1.922v-.008c.073-.683.255-1.266.547-1.75s.677-.854 1.156-1.109 1.031-.383 1.656-.383c.692 0 1.284.116 1.773.348s.863.569 1.121 1.012.387.977.387 1.602v.008c0 .458-.087.923-.262 1.395s-.415.913-.723 1.324l-3.047 4h4.094v1.789h-6.563v-1.657zM182.105 442.504h1.859v1.906l-1.859 1.578v-3.484zM187.496 444.137c-.531-.261-.942-.629-1.234-1.105s-.438-1.03-.438-1.66v-.188c0-.567.149-1.102.449-1.602s.696-.878 1.191-1.133c-.422-.219-.762-.534-1.02-.945s-.387-.847-.387-1.305v-.281c0-.594.137-1.116.41-1.566s.657-.8 1.152-1.047 1.07-.371 1.727-.371 1.231.124 1.727.371.879.597 1.152 1.047.41.973.41 1.566v.281c0 .469-.132.907-.395 1.316s-.608.72-1.035.934c.5.261.902.64 1.207 1.137s.457 1.03.457 1.598v.188c0 .63-.146 1.184-.438 1.66s-.703.845-1.234 1.105-1.148.391-1.852.391-1.318-.13-1.849-.391zm2.723-1.602c.253-.13.448-.315.586-.555s.207-.513.207-.82v-.109c0-.302-.069-.567-.207-.797s-.332-.407-.582-.535-.542-.191-.875-.191-.625.063-.875.191-.444.308-.582.539-.207.499-.207.801v.117c0 .308.069.579.207.816s.333.419.586.547.543.191.871.191.618-.065.871-.195zm-.125-4.988c.216-.122.383-.297.5-.523s.176-.488.176-.785v-.109c0-.276-.059-.521-.176-.734s-.284-.378-.5-.492-.465-.172-.746-.172-.53.058-.746.172-.383.278-.5.492-.176.461-.176.742v.117c0 .292.059.55.176.773s.284.397.5.52.465.184.746.184.53-.063.746-.185zM460.896 57.719l3.656-7.938h2.031l-3.563 7.844h5.336v1.766h-7.461v-1.672zm4.743-3.266h1.844v6.688h-1.844v-6.688zM469.943 59.227h1.859v1.906l-1.859 1.578v-3.484zM473.607 59.477l3.93-5.203c.203-.266.36-.54.473-.824s.168-.548.168-.793v-.016c0-.38-.116-.675-.348-.883s-.562-.313-.988-.313c-.411 0-.743.126-.996.379s-.405.61-.457 1.074v.008h-1.922v-.008c.073-.683.255-1.266.547-1.75s.677-.854 1.156-1.109 1.031-.383 1.656-.383c.692 0 1.284.116 1.773.348s.863.569 1.121 1.012.387.977.387 1.602v.008c0 .458-.087.923-.262 1.395s-.415.913-.723 1.324l-3.047 4h4.094v1.789h-6.563v-1.657zM296.049 204.378h-1.867v-9.234l-1.5.758v-1.961l1.656-.922h1.711v11.359zM301.369 204.378h-1.867v-9.234l-1.5.758v-1.961l1.656-.922h1.711v11.359zM303.58 202.472h1.859v1.906l-1.859 1.578v-3.484zM309.084 204.128c-.466-.245-.843-.603-1.129-1.074s-.466-1.032-.539-1.684v-.008h1.867v.008c.047.417.192.741.438.973s.565.348.961.348c.442 0 .785-.146 1.027-.438s.363-.706.363-1.242v-.953c0-.531-.116-.942-.348-1.234s-.559-.438-.98-.438c-.292 0-.556.078-.793.234s-.423.375-.559.656h-1.727v-6.258h5.945v1.789h-4.078v2.281c.177-.161.397-.286.66-.375s.527-.133.793-.133c.62 0 1.151.136 1.594.406s.78.667 1.012 1.188.348 1.148.348 1.883v.953c0 .734-.129 1.362-.387 1.883s-.632.918-1.121 1.191-1.078.41-1.766.41a3.333 3.333 0 01-1.581-.366zM183.914 210.467l.188.281c-.13.239-.327.415-.59.527s-.574.168-.934.168c-.558 0-1.047-.138-1.469-.414s-.75-.665-.984-1.168-.352-1.085-.352-1.746v-.008c0-.734.128-1.362.383-1.883s.626-.917 1.113-1.188 1.071-.406 1.754-.406 1.266.138 1.75.414.854.677 1.109 1.203.383 1.159.383 1.898v.008c0 .396-.054.819-.16 1.27s-.259.915-.457 1.395c-.026.073-.055.145-.086.215l-.094.207-2.227 4.867h-1.992l2.665-5.64zm.125-1.184c.239-.289.359-.699.359-1.23v-.008c0-.516-.12-.913-.359-1.191s-.578-.418-1.016-.418c-.442 0-.784.141-1.023.422s-.359.68-.359 1.195v.008c0 .531.12.94.359 1.227s.581.43 1.023.43c.438-.001.777-.146 1.016-.435zM188.008 214.201h1.859v1.906l-1.859 1.578v-3.484zM194.742 216.108h-1.867v-9.234l-1.5.758v-1.961l1.656-.922h1.711v11.359z"/><g><path d="M106.78 391.272h-1.867v-9.234l-1.5.758v-1.961l1.656-.922h1.711v11.359zM112.1 391.272h-1.867v-9.234l-1.5.758v-1.961l1.656-.922h1.711v11.359zM114.311 389.365h1.859v1.906l-1.859 1.578v-3.484zM120.21 391.389l-.766-.359c-.511-.239-.918-.59-1.223-1.051s-.485-1.012-.543-1.652h1.914c.042.281.128.515.258.699s.3.324.508.418.45.141.727.141c.469 0 .831-.126 1.086-.379s.383-.61.383-1.074v-.305c0-.5-.113-.887-.34-1.16s-.551-.41-.973-.41h-.883v-1.781h.883c.359 0 .637-.118.832-.355s.293-.569.293-.996v-.273c0-.401-.105-.71-.316-.926s-.509-.324-.895-.324c-.234 0-.444.05-.629.148s-.343.249-.473.449-.224.446-.281.738h-1.906c.083-.656.274-1.222.574-1.695s.685-.833 1.156-1.078 1.004-.367 1.598-.367c.989 0 1.757.258 2.301.773s.816 1.242.816 2.18v.266c0 .547-.144 1.023-.43 1.43s-.692.706-1.219.898c.583.13 1.035.426 1.355.887s.48 1.048.48 1.762v.266c0 .661-.129 1.227-.387 1.695s-.634.825-1.129 1.07-1.089.367-1.781.367l-.99-.002z"/></g><g><path d="M236.198 392.272h-1.867v-9.234l-1.5.758v-1.961l1.656-.922h1.711v11.359zM238.448 390.615l3.93-5.203c.203-.266.36-.54.473-.824s.168-.548.168-.793v-.016c0-.38-.116-.675-.348-.883s-.562-.313-.988-.313c-.411 0-.743.126-.996.379s-.405.61-.457 1.074v.008h-1.922v-.008c.073-.683.255-1.266.547-1.75s.677-.854 1.156-1.109 1.031-.383 1.656-.383c.692 0 1.284.116 1.773.348s.863.569 1.121 1.012.387.977.387 1.602v.008c0 .458-.087.923-.262 1.395s-.415.913-.723 1.324l-3.047 4h4.094v1.789h-6.563v-1.657zM246.675 390.365h1.859v1.906l-1.859 1.578v-3.484zM252.573 392.389l-.766-.359c-.511-.239-.918-.59-1.223-1.051s-.485-1.012-.543-1.652h1.914c.042.281.128.515.258.699s.3.324.508.418.45.141.727.141c.469 0 .831-.126 1.086-.379s.383-.61.383-1.074v-.305c0-.5-.113-.887-.34-1.16s-.551-.41-.973-.41h-.883v-1.781h.883c.359 0 .637-.118.832-.355s.293-.569.293-.996v-.273c0-.401-.105-.71-.316-.926s-.509-.324-.895-.324c-.234 0-.444.05-.629.148s-.343.249-.473.449-.224.446-.281.738h-1.906c.083-.656.274-1.222.574-1.695s.685-.833 1.156-1.078 1.004-.367 1.598-.367c.989 0 1.757.258 2.301.773.544.516.816 1.242.816 2.18v.266c0 .547-.144 1.023-.43 1.43-.286.406-.692.706-1.219.898.583.13 1.035.426 1.355.887s.48 1.048.48 1.762v.266c0 .661-.129 1.227-.387 1.695s-.634.825-1.129 1.07-1.089.367-1.781.367l-.99-.002z"/></g><g><path d="M52.469 255.144l-.766-.359c-.511-.239-.918-.59-1.223-1.051s-.485-1.012-.543-1.652h1.914c.042.281.128.515.258.699s.3.324.508.418.45.141.727.141c.469 0 .831-.126 1.086-.379s.383-.61.383-1.074v-.305c0-.5-.113-.887-.34-1.16s-.551-.41-.973-.41h-.883v-1.781h.883c.359 0 .637-.118.832-.355s.293-.569.293-.996v-.273c0-.401-.105-.71-.316-.926s-.509-.324-.895-.324c-.234 0-.444.05-.629.148s-.343.249-.473.449-.224.446-.281.738h-1.906c.083-.656.274-1.222.574-1.695s.685-.833 1.156-1.078 1.004-.367 1.598-.367c.989 0 1.757.258 2.301.773s.816 1.242.816 2.18v.266c0 .547-.144 1.023-.43 1.43s-.692.706-1.219.898c.583.13 1.035.426 1.355.887s.48 1.048.48 1.762v.266c0 .661-.129 1.227-.387 1.695s-.634.825-1.129 1.07-1.089.367-1.781.367l-.99-.002zM58.656 253.12h1.859v1.906l-1.859 1.578v-3.484zM64.555 255.144l-.766-.359c-.511-.239-.918-.59-1.223-1.051s-.485-1.012-.543-1.652h1.914c.042.281.128.515.258.699s.3.324.508.418.45.141.727.141c.469 0 .831-.126 1.086-.379s.383-.61.383-1.074v-.305c0-.5-.113-.887-.34-1.16s-.551-.41-.973-.41h-.883v-1.781h.883c.359 0 .637-.118.832-.355s.293-.569.293-.996v-.273c0-.401-.105-.71-.316-.926s-.509-.324-.895-.324c-.234 0-.444.05-.629.148s-.343.249-.473.449-.224.446-.281.738h-1.906c.083-.656.274-1.222.574-1.695s.685-.833 1.156-1.078a3.415 3.415 0 011.598-.367c.989 0 1.757.258 2.301.773s.816 1.242.816 2.18v.266c0 .547-.144 1.023-.43 1.43s-.692.706-1.219.898c.583.13 1.035.426 1.355.887s.48 1.048.48 1.762v.266c0 .661-.129 1.227-.387 1.695s-.634.825-1.129 1.07-1.089.367-1.781.367l-.99-.002z"/></g><g><path d="M260.933 119.716l3.656-7.938h2.031l-3.563 7.844h5.336v1.766h-7.461v-1.672zm4.743-3.266h1.844v6.688h-1.844v-6.688zM269.98 121.224h1.859v1.906l-1.859 1.578v-3.484zM275.484 122.88c-.466-.245-.843-.603-1.129-1.074s-.466-1.032-.539-1.684v-.008h1.867v.008c.047.417.192.741.438.973s.565.348.961.348c.442 0 .785-.146 1.027-.438s.363-.706.363-1.242v-.953c0-.531-.116-.942-.348-1.234s-.559-.438-.98-.438c-.292 0-.556.078-.793.234s-.423.375-.559.656h-1.727v-6.258h5.945v1.789h-4.078v2.281c.177-.161.397-.286.66-.375s.527-.133.793-.133c.62 0 1.151.136 1.594.406s.78.667 1.012 1.188.348 1.148.348 1.883v.953c0 .734-.129 1.362-.387 1.883s-.632.918-1.121 1.191-1.078.41-1.766.41a3.333 3.333 0 01-1.581-.366z"/></g><g><path d="M227.107 26.512l3.656-7.938h2.031l-3.563 7.844h5.336v1.766h-7.461v-1.672zm4.742-3.266h1.844v6.688h-1.844v-6.688zM236.154 28.02h1.859v1.906l-1.859 1.578V28.02zM239.834 26.512l3.656-7.938h2.031l-3.563 7.844h5.336v1.766h-7.461v-1.672zm4.742-3.266h1.844v6.688h-1.844v-6.688z"/></g><g><path d="M301.786 159.087h-1.867v-9.234l-1.5.758v-1.961l1.656-.922h1.711v11.359zM305.876 158.837c-.466-.245-.843-.603-1.129-1.074s-.466-1.032-.539-1.684v-.008h1.867v.008c.047.417.192.741.438.973s.565.348.961.348c.442 0 .785-.146 1.027-.438s.363-.706.363-1.242v-.953c0-.531-.116-.942-.348-1.234s-.559-.438-.98-.438c-.292 0-.556.078-.793.234s-.423.375-.559.656h-1.727v-6.258h5.945v1.789h-4.078v2.281c.177-.161.397-.286.66-.375s.527-.133.793-.133c.62 0 1.151.136 1.594.406s.78.667 1.012 1.188.348 1.148.348 1.883v.953c0 .734-.129 1.362-.387 1.883s-.632.918-1.121 1.191-1.078.41-1.766.41a3.336 3.336 0 01-1.581-.366zM312.708 157.181h1.859v1.906l-1.859 1.578v-3.484zM316.372 157.431l3.93-5.203c.203-.266.36-.54.473-.824s.168-.548.168-.793v-.016c0-.38-.116-.675-.348-.883s-.562-.313-.988-.313c-.411 0-.743.126-.996.379s-.405.61-.457 1.074v.008h-1.922v-.008c.073-.683.255-1.266.547-1.75s.677-.854 1.156-1.109 1.031-.383 1.656-.383c.692 0 1.284.116 1.773.348s.863.569 1.121 1.012.387.977.387 1.602v.008c0 .458-.087.923-.262 1.395s-.415.913-.723 1.324l-3.047 4h4.094v1.789h-6.563v-1.657z"/></g><g><path d="M378.851 292.564l.188.281c-.13.239-.327.415-.59.527s-.574.168-.934.168c-.558 0-1.047-.138-1.469-.414s-.75-.665-.984-1.168-.352-1.085-.352-1.746v-.008c0-.734.128-1.362.383-1.883s.626-.917 1.113-1.188 1.071-.406 1.754-.406 1.266.138 1.75.414.854.677 1.109 1.203.383 1.159.383 1.898v.008c0 .396-.054.819-.16 1.27s-.259.915-.457 1.395c-.026.073-.055.145-.086.215l-.094.207-2.227 4.867h-1.992l2.665-5.64zm.125-1.184c.239-.289.359-.699.359-1.23v-.008c0-.516-.12-.913-.359-1.191s-.578-.418-1.016-.418c-.442 0-.784.141-1.023.422s-.359.68-.359 1.195v.008c0 .531.12.94.359 1.227s.581.43 1.023.43c.438-.001.777-.146 1.016-.435zM382.945 296.298h1.859v1.906l-1.859 1.578v-3.484zM388.038 297.919c-.484-.269-.854-.659-1.109-1.172s-.383-1.132-.383-1.855v-.008c0-.417.051-.855.152-1.316a8.32 8.32 0 01.532-1.609c.035-.075.069-.149.105-.223l2.391-4.891h2.062l-2.812 5.664-.266-.281c.13-.245.32-.435.57-.57s.542-.203.875-.203c.604 0 1.122.133 1.554.398.433.266.762.652.988 1.16s.34 1.118.34 1.832v.008c0 .729-.128 1.354-.383 1.875s-.626.917-1.113 1.188c-.487.271-1.071.406-1.753.406s-1.265-.134-1.75-.403zm2.774-1.793c.239-.266.359-.646.359-1.141v-.008c0-.552-.122-.978-.367-1.277s-.597-.449-1.055-.449c-.427 0-.757.151-.988.453s-.348.729-.348 1.281v.008c0 .495.12.874.359 1.137s.578.395 1.016.395c.443 0 .785-.133 1.024-.399z"/></g></g></svg>