<svg version="1.1" id="_x31_45_1_" xmlns="http://www.w3.org/2000/svg" x="0" y="0" viewBox="0 0 488.024 565.31" xml:space="preserve"><style>.st1{fill-rule:evenodd;clip-rule:evenodd;stroke:#999;stroke-width:.4}.st1,.st2,.st3{fill:none;stroke-linecap:round;stroke-linejoin:round;stroke-miterlimit:3}.st2{fill-rule:evenodd;clip-rule:evenodd;stroke:#999}.st3{stroke:#000}.st4,.st5,.st7,.st8{fill-rule:evenodd;clip-rule:evenodd}.st5,.st7,.st8{fill:none}.st5{stroke:#000;stroke-linecap:round;stroke-linejoin:round;stroke-miterlimit:3}.st7,.st8{stroke-miterlimit:22.9256}.st7{stroke-linecap:round;stroke-linejoin:round;stroke:#000}.st8{stroke:#666;stroke-width:.6}</style><path fill-rule="evenodd" clip-rule="evenodd" fill="#fff" d="M488.024 291.819H285.813V22.969h-21.538V0h-58.568v22.78H41.143v135.382H-.19v121.167h41.25v.209h.375v242.21h198.373v43.454h90.835v-43.123h157.381z"/><g id="mebel_1_"><path class="st1" d="M401.385 355.488h70.66m-70.66-11.336h54.421m9.43 0h6.81m-70.661-11.336h52.635m-52.635-11.336h70.66m-3.211 43.266v-20.973m0-11.333v-16.438m-22.672 48.744v-48.745m-22.671 48.745v-48.745"/><path class="st2" d="M134.845 460.96v3.028m0 0h.859m0 0h17.175m0 0h.859m0 0v-3.028M153.738 467.415v-3.427m0 0h-.859m0 0v3.225m0 0h.058m0 0l.294-.197m0 0l.342.087m0 0l.165.312M152.937 469.775l.294-.196m0 0l.342.086m0-.001l.165.312m0 .001v-2.561m0-.001l-.165-.313m0 .001l-.342-.087m0 0l-.294.197m0-.001h-17.291m0 0l-.293-.197m0 .001l-.343.087m0 0l-.165.313m0-.001v2.561m0 .001l.165-.312m0-.001l.343-.086m0 .001l.293.196m0 0h17.291M134.845 467.415l.165-.312m0 0l.342-.087m0 0l.294.197m0 0h.058m0 0v-3.225m0 0h-.859m0 0v3.427M152.075 470.18h-15.566m0 0l1.005.227m0 0h13.556m0 0l1.005-.227M152.937 470.18l.294.196m0 0l.342-.087m0 0l.165-.312m0 0l-.165-.313m0 0l-.342-.086m0 0l-.294.197m0 0h-17.291m0 0l-.293-.197m0 0l-.343.086m0 0l-.165.313m0 0l.165.312m0 0l.343.087m0 0l.293-.196m0 0h17.291M112.929 460.96v3.028m0 0h.858m0 0h17.176m0 0h.859m0 0v-3.028M131.822 467.415v-3.427m0 0h-.859m0 0v3.225m0 0h.058m0 0l.294-.197m0 0l.342.087m0 0l.165.312M131.02 469.775l.294-.196m0 0l.342.086m.001-.001l.165.312m0 .001v-2.561m0-.001l-.165-.313m0 .001l-.342-.087m-.001 0l-.294.197m0-.001h-17.291m0 0l-.293-.197m.001.001l-.343.087m0 0l-.165.313m-.001-.001v2.561m0 .001l.165-.312m.001-.001l.343-.086m0 .001l.293.196m-.001 0h17.291M112.929 467.415l.165-.312m0 0l.342-.087m0 0l.294.197m0 0h.057m0 0v-3.225m0 0h-.858m0 0v3.427M130.158 470.18h-15.566m0 0l1.004.227m0 0h13.557m0 0l1.005-.227M131.02 470.18l.294.196m0 0l.342-.087m.001 0l.165-.312m0 0l-.165-.313m0 0l-.342-.086m-.001 0l-.294.197m0 0h-17.291m0 0l-.293-.197m.001 0l-.343.086m0 0l-.165.313m-.001 0l.165.312m.001 0l.343.087m0 0l.293-.196m-.001 0h17.291M134.845 426.952v-3.028m0 0h.859m0 0h17.175m0 0h.859m0 0v3.028M153.738 420.496v3.428m0 0h-.859m0 0v-3.225m0 0h.058m0 0l.294.196m0 0l.342-.087m0 0l.165-.312M152.937 418.138l.294.196m0 0l.342-.087m0 0l.165-.312m0 0v2.561m0 0l-.165.313m0 0l-.342.087m0 0l-.294-.196m0 0h-17.291m0 0l-.293.196m0 0l-.343-.087m0 0l-.165-.313m0 0v-2.561m0 0l.165.312m0 0l.343.087m0 0l.293-.196m0 0h17.291M134.845 420.496l.165.312m0 0l.342.087m0 0l.294-.196m0 0h.058m0 0v3.225m0 0h-.859m0 0v-3.428M152.075 417.733h-15.566m0 0l1.005-.227m0 0h13.556m0 0l1.005.227M152.937 417.733l.294-.197m0 0l.342.087m0-.001l.165.312m0 .001l-.165.313m0-.001l-.342.087m0 0l-.294-.197m0 0h-17.291m0 0l-.293.197m0 0l-.343-.087m0 0l-.165-.313m0 .001l.165-.312m0-.001l.343-.087m0 .001l.293.197m0 0h17.291M112.929 426.952v-3.028m0 0h.858m0 0h17.176m0 0h.859m0 0v3.028M131.822 420.496v3.428m0 0h-.859m0 0v-3.225m0 0h.058m0 0l.294.196m0 0l.342-.087m0 0l.165-.312M131.02 418.138l.294.196m0 0l.342-.087m.001 0l.165-.312m0 0v2.561m0 0l-.165.313m0 0l-.342.087m-.001 0l-.294-.196m0 0h-17.291m0 0l-.293.196m.001 0l-.343-.087m0 0l-.165-.313m-.001 0v-2.561m0 0l.165.312m.001 0l.343.087m0 0l.293-.196m-.001 0h17.291M112.929 420.496l.165.312m0 0l.342.087m0 0l.294-.196m0 0h.057m0 0v3.225m0 0h-.858m0 0v-3.428M130.158 417.733h-15.566m0 0l1.004-.227m0 0h13.557m0 0l1.005.227M131.02 417.733l.294-.197m0 0l.342.087m.001-.001l.165.312m0 .001l-.165.313m0-.001l-.342.087m-.001 0l-.294-.197m0 0h-17.291m0 0l-.293.197m.001 0l-.343-.087m0 0l-.165-.313m-.001.001l.165-.312m.001-.001l.343-.087m0 .001l.293.197m-.001 0h17.291M109.905 460.96v3.028m0 0h-.859m0 0H91.871m0 0h-.859m0 0v-3.028M91.012 467.415v-3.427m0 0h.859m0 0v3.225m0 0h-.058m0 0l-.294-.197m0 0l-.342.087m0 0l-.165.312M91.813 469.775l-.294-.196m0 0l-.342.086m.001-.001l-.165.312m0 .001v-2.561m0-.001l.165-.313m0 .001l.342-.087m-.001 0l.294.197m0-.001h17.291m0 0l.293-.197m0 .001l.343.087m0 0l.165.313m0-.001v2.561m0 .001l-.165-.312m0-.001l-.343-.086m0 .001l-.293.196m0 0H91.813M109.905 467.415l-.165-.312m0 0l-.342-.087m0 0l-.294.197m0 0h-.058m0 0v-3.225m0 0h.859m0 0v3.427M92.676 470.18h15.566m0 0l-1.005.227m0 0H93.681m0 0l-1.005-.227M91.813 470.18l-.294.196m0 0l-.342-.087m.001 0l-.165-.312m0 0l.165-.313m0 0l.342-.086m-.001 0l.294.197m0 0h17.291m0 0l.293-.197m0 0l.343.086m0 0l.165.313m0 0l-.165.312m0 0l-.343.087m0 0l-.293-.196m0 0H91.813M109.905 426.952v-3.028m0 0h-.859m0 0H91.871m0 0h-.859m0 0v3.028M91.012 420.496v3.428m0 0h.859m0 0v-3.225m0 0h-.058m0 0l-.294.196m0 0l-.342-.087m0 0l-.165-.312M91.813 418.138l-.294.196m0 0l-.342-.087m.001 0l-.165-.312m0 0v2.561m0 0l.165.313m0 0l.342.087m-.001 0l.294-.196m0 0h17.291m0 0l.293.196m0 0l.343-.087m0 0l.165-.313m0 0v-2.561m0 0l-.165.312m0 0l-.343.087m0 0l-.293-.196m0 0H91.813M109.905 420.496l-.165.312m0 0l-.342.087m0 0l-.294-.196m0 0h-.058m0 0v3.225m0 0h.859m0 0v-3.428M92.676 417.733h15.566m0 0l-1.005-.227m0 0H93.681m0 0l-1.005.227M91.813 417.733l-.294-.197m0 0l-.342.087m.001-.001l-.165.312m0 .001l.165.313m0-.001l.342.087m-.001 0l.294-.197m0 0h17.291m0 0l.293.197m0 0l.343-.087m0 0l.165-.313m0 .001l-.165-.312m0-.001l-.343-.087m0 .001l-.293.197m0 0H91.813M238.526 477.589v-28.391M237.393 448.065h-28.391M207.869 449.198v28.391M209.002 478.723h28.391M198.473 488.118v-38.92M199.606 448.065h7.128M207.869 449.198v29.524M207.869 478.723h29.524M238.526 479.856v7.128M237.393 488.118h-38.92M203.763 449.198v33.63M203.763 482.828h33.63M196.961 448.065v41.564M196.961 489.63h41.565M196.961 448.065h2.646M238.526 486.984v2.646M238.526 479.856v-2.267M206.735 448.065h2.267M207.869 478.723l-9.396 9.396M237.393 448.065c.626 0 1.134.508 1.134 1.134M207.869 449.198c0-.626.508-1.134 1.133-1.134M209.002 478.723a1.134 1.134 0 01-1.133-1.134M238.526 477.589c0 .626-.508 1.134-1.134 1.134M198.473 449.198c0-.626.508-1.134 1.134-1.134M206.735 448.065c.626 0 1.134.508 1.134 1.134M237.393 478.723c.626 0 1.134.507 1.134 1.133M238.526 486.984c0 .626-.508 1.134-1.134 1.134M202.629 448.065c.626 0 1.133.508 1.133 1.134M237.393 482.828c.626 0 1.134.508 1.134 1.133M196.961 410.278v37.787M196.961 410.278h2.646M196.961 448.065h2.646M206.735 410.278h2.267M206.735 448.065h2.267M238.526 446.932v-35.52M237.393 410.278h-28.391M207.869 411.412v35.52M209.002 448.065h28.391M198.473 446.932v-35.52M199.606 410.278h7.128M207.869 411.412v35.52M206.735 448.065h-7.128M203.763 411.412v35.52M237.393 410.278c.626 0 1.134.508 1.134 1.134M207.869 411.412c0-.626.508-1.134 1.133-1.134M209.002 448.065a1.134 1.134 0 01-1.133-1.133M238.526 446.932c0 .625-.508 1.133-1.134 1.133M198.473 411.412c0-.626.508-1.134 1.134-1.134M206.735 410.278c.626 0 1.134.508 1.134 1.134M207.869 446.932c0 .625-.507 1.133-1.134 1.133M199.606 448.065a1.134 1.134 0 01-1.134-1.133M202.629 410.278c.626 0 1.133.508 1.133 1.134M203.763 446.932c0 .625-.507 1.133-1.133 1.133M238.526 377.404v-4.156M237.77 372.492h-40.053M196.961 373.248v4.156M197.717 378.16h40.054M196.961 377.404v32.874M196.961 410.278h2.646M206.735 410.278h2.267M238.526 409.145v-29.851M237.393 378.16h-28.391M207.869 379.294v29.851M209.002 410.278h28.391M198.473 409.145v-29.851M199.606 378.16h7.128M207.869 379.294v29.851M206.735 410.278h-7.128M203.763 379.294v29.851M237.77 372.492c.417 0 .756.338.756.756M196.961 373.248c0-.418.339-.756.756-.756M197.717 378.16a.757.757 0 01-.756-.756M238.526 377.404a.756.756 0 01-.756.756M237.393 378.16c.626 0 1.134.508 1.134 1.134M207.869 379.294c0-.626.508-1.134 1.133-1.134M209.002 410.278a1.134 1.134 0 01-1.133-1.134M238.526 409.145c0 .626-.508 1.134-1.134 1.134M198.473 379.294c0-.626.508-1.134 1.134-1.134M206.735 378.16c.626 0 1.134.508 1.134 1.134M207.869 409.145c0 .626-.507 1.134-1.134 1.134M199.606 410.278a1.134 1.134 0 01-1.134-1.134M202.629 378.16c.626 0 1.133.508 1.133 1.134M203.763 409.145c0 .626-.507 1.134-1.133 1.134M238.526 489.63h37.786M238.526 489.63v-2.646M276.312 489.63v-2.646M238.526 479.856v-2.267M276.312 479.856v-2.267M275.179 448.065h-35.52M238.526 449.198v28.391M239.66 478.723h35.52M276.312 477.589v-28.391M275.179 488.118h-35.52M238.526 486.984v-7.129M239.66 478.723h35.52M276.312 479.856v7.128M239.66 482.828h35.52M238.526 449.198c0-.626.507-1.134 1.133-1.134M239.66 478.723a1.134 1.134 0 01-1.133-1.134M276.312 477.589c0 .626-.508 1.134-1.133 1.134M275.179 448.065c.625 0 1.133.508 1.133 1.134M239.66 488.118a1.134 1.134 0 01-1.133-1.134M238.526 479.856c0-.626.507-1.133 1.133-1.133M275.179 478.723c.625 0 1.133.507 1.133 1.133M276.312 486.984c0 .626-.508 1.134-1.133 1.134M238.526 483.961c0-.625.507-1.133 1.133-1.133M275.179 482.828c.625 0 1.133.508 1.133 1.133M332.529 414.246v71.794m0 0h15.2m0 0v-71.794m0 0h-15.2M333.285 414.246v71.794M332.529 450.143h.756M332.529 414.246h.756M374.935 300.887v63.859m0 0h26.451m-.001 0v-63.859m0 0h-26.451M399.269 308.337l-.08-.924m0 0l-.239-.895m0 0l-.389-.841m0 0l-.53-.761m0 0l-.652-.655m0 0l-.755-.532m0 0l-.836-.393m0 0l-.89-.239m0 0l-.919-.081m0 0h-11.638m0 0l-.919.081m0 0l-.891.239m0 0l-.835.393m0 0l-.756.532m0 0l-.651.655m0 0l-.53.761m0 0l-.389.841m0 0l-.239.895m0 0l-.08.924m0 0v43.104m0 0l.168 1.942m0 0l.502 1.881m0 0l.818 1.765m0 0l1.111 1.596m0 0l1.369 1.378m0 0l1.586 1.117m0 0l1.755.823m0 0l1.871.504m0 0l1.929.17m0 0l1.929-.17m0 0l1.87-.504m0 0l1.755-.823m0 0l1.587-1.117m0 0l1.369-1.378m0 0l1.111-1.596m0 0l.818-1.765m0 0l.502-1.881m0 0l.168-1.942m0 0v-43.104M389.104 309.955a.945.945 0 11-1.89 0 .945.945 0 011.89 0zM457.054 344.509l-1.645-.469m0 0l-1.551-.718m0 0l-1.23-.968m0 0l-.943-1.249m0 0l-.594-1.448m0 0l-.206-1.55m0 0l.206-1.551m0 0l.594-1.448m0 0l.943-1.248m0 0l1.23-.967m0 0l1.551-.719m0 0l1.645-.469m0 0l1.698-.208m0 0l1.709.06m0 0l11.585 1.223m0 0v10.654m0 0l-11.585 1.222m0 0l-1.709.06m0 0l-1.698-.207M466.324 333.99v4.116M466.324 338.107v4.116M451.171 338.107a5.73 5.73 0 01.887-3.063M452.058 335.043c1.723-2.217 4.238-3.413 6.829-3.248M458.887 331.795c2.609-.07 5.185.689 7.437 2.195M466.324 342.223c-2.253 1.506-4.828 2.266-7.437 2.195M458.887 344.418c-2.591.165-5.106-1.031-6.829-3.248M452.058 341.17a5.743 5.743 0 01-.887-3.063M472.046 333.459v9.295m0 0h-.189m0 0v-9.295m0 0h.189M472.046 347.553V328.66M476.58 347.553V328.66M472.046 347.553h4.534M472.046 328.66h4.534M82.662 426.952v34.008m0 0h79.351m-.001 0v-34.008m0 0h-79.35M462.976 316.002h-61.591M462.976 300.887h-61.591M401.385 316.002v-15.115M462.976 316.002v-15.115M456.269 314.868h-17.381M438.888 314.868v-11.336M438.888 303.532h3.532m2.645 0h2.06m.907 0h2.059m2.646 0h3.533M456.269 303.532v11.336M425.474 314.868h-17.381M408.092 314.868v-11.336M408.092 303.532h3.532m2.646 0h2.06m.906 0h2.06m2.645 0h3.533M425.474 303.532v11.336M448.712 306.071c0 .465-.279.864-.68 1.039v-2.079c.4.176.68.576.68 1.04zm-1.587 1.04a1.134 1.134 0 010-2.078v2.078zM417.917 306.071c0 .465-.28.864-.681 1.039v-2.079c.401.176.681.576.681 1.04zm-1.588 1.04a1.133 1.133 0 010-2.078v2.078zM447.126 301.416h.906m0 0v7.748m0 0l-.256.301m0 0h-.394m0 0l-.256-.301m0 0v-7.748M448.335 301.416h-1.512m0 0v-.265m0 0h1.512m0 0v.265M448.712 301.151h-2.267m0 0v-.265m0 0h2.267m0 0v.265M450.848 302.776v-1.625m0 0h-.095m0 0v-.132m0 .001h-.283m0 0v-.133m0-.001h1.889m0 0v.133m0 .001h-.283m0 0v.132m0-.001h-.094m0 0v1.625m0 0h-.322m0 0v.415m0 0h1.077m0 0v.492m0 .001h-2.645m0 0v-.492m0-.001h1.077m0 0v-.415m0 0h-.321M444.311 302.776v-1.625m0 0h.094m-.001 0v-.132m0 .001h.284m0 0v-.133m0-.001h-1.89m.001 0v.133m0 .001h.284m-.001 0v.132m0-.001h.094m0 0v1.625m0 0h.322m0 0v.415m0 0h-1.078m0 0v.492m0 .001h2.646m0 0v-.492m0-.001h-1.077m0 0v-.415m0 0h.321M416.329 301.416h.907m.001 0v7.748m0 0l-.256.301m0 0h-.395m-.001 0l-.256-.301m0 0v-7.748M417.539 301.416h-1.512m0 0v-.265m0 0h1.512m0 0v.265M417.917 301.151h-2.268m0 0v-.265m0 0h2.268m0 0v.265M420.052 302.776v-1.625m0 0h-.095m0 0v-.132m0 .001h-.283m0 0v-.133m0-.001h1.889m0 0v.133m0 .001h-.283m0 0v.132m0-.001h-.095m0 0v1.625m0 0h-.321m0 0v.415m0 0h1.077m0 0v.492m0 .001h-2.645m0 0v-.492m0-.001h1.077m0 0v-.415m0 0h-.321M413.514 302.776v-1.625m0 0h.094m.001 0v-.132m0 .001h.284m0 0v-.133m0-.001h-1.89m-.001 0v.133m0 .001h.284m0 0v.132m0-.001h.094m.001 0v1.625m0 0h.322m0 0v.415m0 0h-1.078m0 0v.492m0 .001h2.646m-.001 0v-.492m0-.001h-1.077m.001 0v-.415m0 0h.321M451.66 303.191l-.072.072M451.169 303.191l.071.072M451.66 302.776h-.491M451.981 301.151h-1.134M450.753 301.02h1.322M443.498 303.191l.072.072M443.989 303.191l-.072.072M443.498 302.776h.491M443.177 301.151h1.134M444.405 301.02h-1.322M420.864 303.191l-.072.072M420.372 303.191l.073.072M420.864 302.776h-.491M421.185 301.151h-1.133M419.957 301.02h1.322M412.702 303.191l.072.072M413.193 303.191l-.072.072M412.702 302.776h.491M412.381 301.151h1.134M413.609 301.02h-1.322M451.66 303.438a.246.246 0 11-.492 0 .246.246 0 01.492 0zM443.989 303.438a.246.246 0 11-.492 0 .246.246 0 01.492 0zM420.864 303.438a.246.246 0 11-.491 0 .246.246 0 01.491 0zM413.193 303.438a.246.246 0 11-.492 0 .246.246 0 01.492 0zM166.921 323.748h-22.672m0 0v-22.672m0 0h22.672m0 0v22.672M155.585 308.633v7.558M158.257 309.74l-5.344 5.344M159.364 312.412h-7.557M158.257 315.084l-5.344-5.344M142.549 320.914h-19.271m0 0l-.534-.222m0 0l-.221-.534m0 0v-17.382m0 0l.221-.534m0 0l.534-.222m0 0h19.271m0 0l.535.222m0 0l.221.534m0 0v17.382m0 0l-.221.534m0 0l-.535.222M144.249 323.748h-22.672M144.249 301.076h-22.672M144.249 323.748v-22.672M121.578 323.748v-22.672M140.66 319.025h-15.493M124.411 318.269v-11.714M125.167 305.799h15.493M141.415 306.555v11.714M140.66 319.024h.108c0-.059-.049-.108-.108-.108s-.108.049-.108.108a.108.108 0 00.216 0h-.108zM125.167 319.025a.756.756 0 01-.755-.756M124.411 306.555c0-.417.338-.756.755-.756M140.66 305.799c.417 0 .756.339.756.756M141.415 318.269a.756.756 0 01-.756.756M133.254 310.632l-.101.24m0 0l-.24.099m0 0l-.241-.1m0 0l-.099-.241m0 0v-7.476m0 0l.1-.24m0 0l.241-.099m0 0l.24.099m0 0l.1.24m0 0v7.478M133.668 305.081h-.414m0 0v-1.927m0 0l-.1-.24m0 0l-.24-.1m0 0l-.241.1m0 0l-.1.24m0 0v1.927m0 0h-.414m0 0v-2.456m0 0h1.509m0 0v2.456M133.658 306.442h-.404m0 0v-1.322m0 0h.404m0 0v1.322M132.169 306.442v-1.322m0 0h.404m0 0v1.322m0 0h-.404M121.578 323.748H98.906M121.578 301.076H98.906M121.578 323.748v-22.672M98.906 323.748v-22.672M85.114 343.102v21.916m0 0H66.598m0 0v-21.916m0 0h18.516M73.834 354.059h-5.299M68.535 354.059v1.097M73.834 354.059v1.097M73.834 362.913h-5.299M68.535 361.817v1.096M73.834 361.817v1.096M73.707 347.814a2.74 2.74 0 11-5.479 0 2.74 2.74 0 015.479 0zM83.175 349.084a3.969 3.969 0 11-7.937-.001 3.969 3.969 0 017.937.001z"/><path class="st2" d="M81.475 349.084a2.268 2.268 0 11-4.536 0 2.268 2.268 0 014.536 0zM73.798 358.486a2.645 2.645 0 11-5.29 0 2.645 2.645 0 015.29 0zM83.146 359.604a3.4 3.4 0 11-6.802 0 3.4 3.4 0 016.802 0zM87.192 330.927v36.464M64.521 330.927v36.464M87.192 330.927H64.521M87.192 367.391H64.521M189.593 323.748h-22.672m0 0v-22.672m0 0h22.672m0 0v22.672M116.81 314.353a3.41 3.41 0 11-6.824 0 3.41 3.41 0 016.824 0z"/><path class="st2" d="M116.289 314.353a2.89 2.89 0 11-5.78.001 2.89 2.89 0 015.78-.001zM109.669 315.185a2.579 2.579 0 11-5.158 0 2.579 2.579 0 015.158 0z"/><path class="st2" d="M108.535 315.185a1.445 1.445 0 11-2.89 0 1.445 1.445 0 012.89 0zM471.856 476.971a3.78 3.78 0 11-7.557 0 3.78 3.78 0 017.557 0z"/><path class="st2" d="M469.212 476.971a1.134 1.134 0 11-2.267 0 1.134 1.134 0 012.267 0zM471.856 388.174a3.78 3.78 0 11-7.558-.002 3.78 3.78 0 017.558.002z"/><path class="st2" d="M469.212 388.174a1.134 1.134 0 11-2.268-.002 1.134 1.134 0 012.268.002zM74.958 281.616a3.778 3.778 0 11-7.557 0 3.778 3.778 0 017.557 0z"/><path class="st2" d="M72.312 281.616a1.134 1.134 0 11-2.267.001 1.134 1.134 0 012.267-.001zM155.263 281.616a3.778 3.778 0 11-7.557 0 3.778 3.778 0 017.557 0z"/><path class="st2" d="M152.618 281.616a1.134 1.134 0 11-2.269 0 1.134 1.134 0 012.269 0zM341.473 473.032h1.02m0 0v-44.369m0 0h-1.02m0 0v44.369M342.493 471.628l3.411.71m0 0l-.142.68m0 0l-3.269-.68m0 0v-.71M342.493 463.33h.833m0 0l.566-.151m0 0l.415-.415m0 0l.152-.567m0 0v-22.699m0 0l-.152-.567m0 0l-.415-.415m0 0l-.566-.152m0 0h-.833m0 0v24.966M341.116 471.628l-3.41.71m0 0l.141.68m0 0l3.269-.68m0 0v-.71M342.493 430.066l3.411-.709m0 .001l-.142-.68m0-.001l-3.269.68m0 .001v.709M341.176 430.066l-3.41-.709m0 .001l.141-.68m0-.001l3.269.68m0 .001v.709M341.176 473.032h.297m0 0v-44.369m0 0h-.297m0 0v44.369M397.229 466.58v-68.016m0 0H472.8m0 0v68.016m0 0h-75.572M395.339 464.69v-64.236m0 .001l.144-.724m0-.001l.409-.612m0 0l.613-.41m0 0l.723-.144m0 .001v68.016m0-.001l-.723-.145m0 0l-.613-.409m0 0l-.409-.612m0 0l-.144-.724M476.58 466.58v-68.016m0 0h-3.779m0 0v68.016m0 0h3.779M476.58 398.565v68.016m0-.001h-1.89m0 0v-68.016m0 .001h1.89M476.58 396.676v-17.004m0 0h-18.894m0 0v17.004m0 0h18.894M476.58 468.47v17.003m0 0h-18.894m0 0V468.47m0 0h18.894M470.912 426.526v-25.694m0 0l-.11-.268m0 0l-.268-.11m0 0h-12.47m0 0l-.266.11m0 0l-.112.268m0 0v25.694m0 0l.112.267m0 0l.266.111m0 0h12.47m0 0l.268-.111m0 0l.11-.267M470.912 438.618v25.694m0 0l-.11.268m0 0l-.268.11m0 0h-12.47m0 0l-.266-.11m0 0l-.112-.268m0 0v-25.694m0 0l.112-.268m0 0l.266-.11m0 0h12.47m0 0l.268.11m0 0l.11.268M458.71 466.58v-1.89M458.71 438.24v-11.336M458.71 400.454v-1.89M453.701 466.58v-68.016m0 0h-18.686m0 0l14.907 68.016m0 0h3.779M356.797 500.588h19.838m0 0v-88.987m0 0h-19.838m0 0v88.987M367.188 411.601h-.756m0 0v88.987m0 0h.756m0 0v-88.987M357.468 493.15h18.626m0 0v-.756m0 0h-18.626m0 0v.756M357.468 491.146h18.626m0 0v-.755m0 0h-18.626m0 0v.755M357.468 489.142h18.626m0 0v-.756m0 0h-18.626m0 0v.756M357.468 487.137h18.626m0 0v-.756m0 0h-18.626m0 0v.756M357.603 482.891l18.491 2.241m0 0l.091-.75m0 0l-18.491-2.241m0 0l-.091.75M347.729 300.887h24.183m-.001 0v63.859m0 0h-24.183m.001 0v-63.859M359.442 364.746h-.756m0 0v-63.859m0 0h.756m0 0v63.859M349.721 308.324h18.626m.001 0v.756m0 0h-18.626m-.001 0v-.756M349.721 310.328h18.626m.001 0v.756m0 0h-18.626m-.001 0v-.756M349.721 312.333h18.626m.001 0v.756m0 0h-18.626m-.001 0v-.756M349.721 314.338h18.626m.001 0v.756m0 0h-18.626m-.001 0v-.756M349.857 318.584l18.491-2.242m0 0l.091.751m0 0l-18.491 2.241m0 0l-.091-.75M261.576 290.118V176.381m0 0h15.115m0 0v113.737m0 0h-15.115M176.279 290.118V275.57m0 0h37.308m0 0v14.548m0 0h-37.308M77.29 210.767h68.016m0 0v75.572m0 0H77.29m0 0v-75.572M79.179 208.878h64.237m0 0l.723.144m0 0l.613.409m0 0l.409.613m0 0l.144.723m0 0H77.29m0 0l.143-.723m0 0l.41-.613m0 0l.613-.409m0 0l.723-.144M77.29 290.118h68.016m0 0v-3.779m0 0H77.29m0 0v3.779M145.306 290.118H77.29m0 0v-1.89m0 0h68.016m0 0v1.89M145.306 290.118h12.358m0 0v-16.653m0 0h-12.358m0 0v16.653M77.29 290.118H65.01m0 0v-16.557m0 0h12.28m0 0v16.557M117.344 284.45h25.694m0 0l.267-.111m0 0l.111-.267m0 0v-12.47m0 0l-.111-.266m0 0l-.267-.112m0 0h-25.694m0 0l-.268.112m0 0l-.11.266m0 0v12.47m0 0l.11.267m0 0l.268.111M105.252 284.45H79.557m0 0l-.267-.111m0 0l-.111-.267m0 0v-12.47m0 0l.111-.266m0 0l.267-.112m0 0h25.695m0 0l.267.112m0 0l.111.266m0 0v12.47m0 0l-.111.267m0 0l-.267.111M77.29 272.248h1.889M105.63 272.248h11.336M143.416 272.248h1.89M77.29 267.239h68.016m0 0v-18.687m0 0L77.29 263.46m0 0v3.779M98.906 323.748v-22.672m0 0H64.521m0 0v29.851m0 0h22.671m0 0v-7.179m0 0h11.714M117.467 316.561h-.963m0 0v1.203m0-.001h-12.525m0 0v-1.203m0 .001h-.963M116.003 307.033l-.047.104m-.047.103l-.048.103m-.047.103l-.047.103m-.047.103l-.047.104m-.047.102l-.048.104m-.047.102l-.047.104m-.047.102l-.047.104m-.047.102l-.048.104m-.046.103l-.048.103m-.047.103l-.047.103m-.047.104l-.047.103m-.048.103l-.046.103m-.048.103l-.047.103m-.047.103l-.047.103m-.047.103l-.048.103m-.047.104l-.047.102m-.047.104l-.047.103M106.37 307.033l.047.104m.047.103l.048.103m.045.103l.048.103m.047.103l.047.104m.048.102l.047.104m.047.102l.048.104m.047.102l.047.104m.046.102l.047.104m.048.103l.048.103m.046.103l.047.103m.048.104l.047.103m.048.103l.046.103m.047.103l.048.103m.047.103l.047.103m.047.103l.047.103m.048.104l.047.102m.047.104l.047.103M116.003 307.033h-.078m-.113 0h-.114m-.113 0h-.114m-.113 0h-.078m0 0l-.042.052m-.071.089l-.071.088m-.072.087l-.071.088m-.072.088l-.071.088m-.072.088l-.071.088m-.071.088l-.072.088m-.071.089l-.072.087m-.071.088l-.072.088m-.071.088l-.072.088m-.071.088l-.071.089m-.072.088l-.071.087m-.072.088l-.071.088m-.072.088l-.071.088m-.072.088l-.071.089m-.071.088l-.072.088m-.071.087l-.072.088m-.071.088l-.072.088m-.072.088l-.071.088m-.071.089l-.071.088m-.072.088l-.071.087m-.072.088l-.072.088m-.071.088l-.071.088m-.071.089l-.042.051M106.37 307.033h.078m.113 0h.113m.114 0h.113m.114 0h.078m0 0l.041.052m.071.089l.072.088m.072.087l.071.088m.071.088l.071.088m.073.088l.071.088m.071.088l.072.088m.071.089l.072.087m.071.088l.072.088m.071.088l.071.088m.072.088l.071.089m.072.088l.071.087m.072.088l.071.088m.072.088l.071.088m.071.088l.071.089m.071.088l.072.088m.072.087l.072.088m.07.088l.072.088m.072.088l.071.088m.071.089l.071.088m.073.088l.071.087m.071.088l.071.088m.073.088l.071.088m.071.089l.041.051M106.37 306.556h9.634m0 0v.478m0 0h-.723m0 0v-.237m0 0h-8.188m0 0v.237m0 0h-.723m0 0v-.478M252.885 125.748h8.69m0 0v50.633m0 0h-8.69m0 0v-50.633M468.939 480.65l-.86-3.68m0 0l-3.431-1.583m-.001.001l3.431 1.583m.001-.001l3.546-1.305M468.939 384.494l-.86 3.68m0 0l-3.431 1.583m-.001 0l3.431-1.583m.001 0l3.546 1.305M67.5 282.477l3.679-.86m0 0l1.584-3.431m0 0l-1.584 3.431m0 0l1.306 3.546M155.164 282.477l-3.68-.86m0 0l-1.583-3.431m0 0l1.583 3.431m0 0l-1.305 3.546"/><path class="st1" d="M257.004 95.329l4.572-4.572m-11.519 4.572l11.519-11.518M243.11 95.329l18.465-18.465m4.206-4.205l6.375-6.375m-35.992 29.045l32.676-32.676m-39.623 32.676l31.855-31.855M222.27 95.329l32.683-32.683m11.59-11.59l5.613-5.613m-55.545 48.598l34.859-34.859m8.767-8.768l9.119-9.119m-52.745 45.8l45.799-45.8m-45.799 38.852l38.852-38.852m-38.852 31.906l31.905-31.905m-31.905 24.957l24.959-24.958m-24.959 18.012l18.012-18.012m-18.012 11.064l11.064-11.064m-11.064 4.117l4.117-4.117m51.428 3.605l-3.605-3.605m3.383 10.33l-10.33-10.33m2.563 9.511l-9.51-9.51m17.499 24.445l-3.11-3.11m-12.018-12.018l-9.318-9.318m24.416 31.364l-9.363-9.363m-10.258-10.259l-11.742-11.742m24.416 31.364l-9.827-9.827m-4.044-4.044l-17.493-17.493m27.76 34.707l-34.707-34.707m34.707 41.653l-41.653-41.653m41.653 48.6L216.611 44.93m43.453 50.399l-43.453-43.452m36.506 43.452l-36.506-36.505m29.558 36.505l-29.558-29.558m22.612 29.558l-22.612-22.611m15.665 22.611l-15.665-15.664m8.718 15.664l-8.718-8.717m1.771 8.717l-1.771-1.77"/><path class="st2" d="M216.61 41.295h37.408M254.019 41.295V11.066M224.167 17.679a.945.945 0 11-1.89 0 .945.945 0 011.89 0zM236.098 24.049l-1.397.372m0 0l-1.209.793m0 0l-.898 1.133m0 0l-.496 1.358m0 0l-.042 1.444m0 0l.413 1.385m0 .001l.828 1.185m0-.001l1.16.863m0 .001l1.371.455m0-.001h1.446m0 0l1.372-.455m0 .001l1.16-.863m0-.001l.828-1.185m0 .001l.414-1.385m0-.001l-.044-1.444m0 0l-.496-1.358m0 0l-.898-1.133m0 0l-1.208-.793m0 0l-1.397-.372m0 0v-5.538m0 0l.455.108m0 0l.49.038m0 0l.488-.038m0 0l.456-.108m0 0l.392-.172m0 0l.3-.225m0 .001l.188-.261m0-.001l.065-.28m0 0v-.402m0 0l-.019-.121m0 0l-.064-.277m0 0l-.055-.104m0 0l-.181-.25m0 0l-.078-.071m0 0l-.274-.205m0 0l-.357-.157m0 0l-.196-.052m0 0l-.249-.059m0 0l-.02-.688m0 0l-.009-.796m0 .001h1.728m0 0v-.434m0 0h2.872m0 0l.16-.059m0 0l.083-.149m0-.001l-.033-.166m0 0l-.133-.106m0 0l-.486-.157m0 0l-.726-.315m0 0l-1.008-.574m0 0l-.729-.258m0 0v-.125m0 0h.605m0 0v-.982m0 0h-2.57m0 0v.877m0 0l-.062.038m0 0l-.033.034m0 .001l-.025.041m0-.001l-.278.672m0 0h-.697m0 0v-1.36m0 0h1.058m0 0v-.302m0 0h-3.023m0 0v.302m0 0h1.058m0 0v1.36m0 0h-1.436m0 0v.152m0 0h-.416m0 0v-.303m0 0h.151m0 0v-.529m0 0h.605m0 0v-.982m0 0h-2.57m0 0v.982m0 0h.605m0 0v.529m0 0h.151m0 0v.303m0 0h-.151m0 0v1.511m0 .001h2.57m0 0v2.154m0-.001h.082m0 0h.094m0 0h.123m0 0h.15m0 0h.042m0 0v7.504M238.441 12.729h-.21m0 0l.141-.341m0 0l.325-.053m0 0l.008.002m0 0v.241m0 0h.152m0 0v.302m0 0h-.416m0 0v-.151M239.914 12.88v-.24m0 0l.677.239m0 0l.988.563m0 0l.053.023m0 0h-1.567m0 0v-.585m0 0h-.151M234.058 12.048v.529M233.377 12.048v.529M239.714 12.048h.351M238.856 12.578h.189M239.045 12.578h.68M239.725 12.578h.015M239.045 12.401v.176M239.725 12.573v.005M239.914 12.88h-1.058M237.562 14.391h-.557M240.065 13.465v.493M237.495 14.958h-.491M242.861 13.944l.076.014M238.712 11.841l-.047.002M238.882 11.873l-.17-.032M238.167 11.925l-.046.01M238.12 11.935l-.019.008M240.065 12.173l-.453-.16M239.613 12.013l-.731-.14M238.757 12.346l-.06-.011M242.861 13.944l-.512-.166M242.349 13.778l-.717-.313M239.655 12.029h.108a.108.108 0 00-.108-.108.108.108 0 10.108.108h-.108zM238.665 11.843l-.498.082M237.007 16.446l-.002-.001M237.005 15.916l.002-.002M238.441 13.276v-.127M238.441 13.031v-.104M238.441 13.149v-.118M238.231 12.729h-.523M239.479 12.486l-.722-.141M239.914 12.64l-.436-.154M237.761 13.363h-.001M237.851 13.318l-.091.044M237.95 13.303l-.098.015M238.047 13.318l-.098-.015M238.138 13.363l-.091-.045M238.138 13.363h.001M238.294 15.858l-.345-.025M237.95 15.833l-.345.026M238.366 15.876l-.071-.017M237.283 15.935l-.195.051M237.605 15.858l-.322.076M238.318 13.53l.009.062M237.088 15.986l-.083.037M237.534 15.876l.019-.688M237.572 13.592l.009-.062M237.581 13.53l.026-.059M237.607 13.472l.042-.05M237.649 13.422l.055-.038M237.704 13.384l.056-.021M237.761 13.363l.007-.002M237.768 13.36l.068-.008M237.836 13.352h.227M238.063 13.352l.068.008M238.131 13.36l.007.002M238.139 13.363l.056.021M238.195 13.384l.055.038M238.25 13.422l.042.05M238.292 13.472l.026.058M237.553 15.188l.019-1.596M238.337 14.391l-.009-.8M238.441 14.089h-.107M237.566 14.089h-.561M236.098 24.049v5.343M237.005 24.049v5.343M236.098 29.393h.907M233.038 12.048h1.359M233.188 12.578h1.058M233.188 12.88h1.058M234.662 12.88v1.209M238.441 14.089V12.88M236.098 11.368h.907M236.098 12.729v3.816M237.005 18.512v-5.783M234.662 14.089h1.436M235.607 14.391h.491M235.607 14.958h.491M237.495 14.391v1.493M237.005 26.727a1.89 1.89 0 11-.907 0M234.662 14.006a.339.339 0 01-.464-.125.339.339 0 01.464-.464M276.69 94.763V73.225m0 0l-.166-.401m0 0l-.401-.166m0 0h-13.981m0 0l-.4.166m0 0l-.167.401m0 0v21.538m0 0l.167.4m0 0l.4.166m0 0h13.981m0 0l.401-.166m0 0l.166-.4M272.534 93.629v-9.182m0-.907v-9.182M271.967 73.791h-8.691M262.71 74.358V93.63M263.276 94.196h8.691M271.967 73.791c.313 0 .567.253.567.567M262.71 74.358c0-.313.253-.567.567-.567M263.276 94.196a.567.567 0 01-.567-.567M272.534 93.629a.567.567 0 01-.567.567M270.151 84.447a.754.754 0 01-1.21 0h1.21zm-1.209-.907a.755.755 0 011.208 0h-1.208zM276.162 83.54v.907m0 0h-7.749m0 0l-.3-.256m-.001 0v-.395m0 0l.3-.256m.001 0h7.749M276.162 84.75v-1.512m0 0h.264m0 0v1.512m0 0h-.264M276.426 85.127V82.86m0 0h.265m0 0v2.267m0 0h-.265M274.801 87.262h1.625m0 0v-.094m0 0h.132m0 0v-.283m0 0h.132m0 0v1.889m0 0h-.132m0 0v-.283m0 0h-.132m0 0v-.095m0 0h-1.625m0 0v-.322m0 0h-.416m0 0v1.078m0 0h-.491m0 0v-2.645m0 0h.491m0 0v1.076m0 0h.416m0 0v-.321M274.801 80.725h1.625m0 0v.094m0 0h.132m0 0v.284m0 0h.132m0 0v-1.889m0 0h-.132m0 0v.283m0 0h-.132m0 0v.095m0 0h-1.625m0 0v.321m0 0h-.416m0 0v-1.077m0 0h-.491m0 0v2.645m0 0h.491m0 0v-1.077m0 0h.416m0 0v.321M274.385 88.074l-.072-.071M274.385 87.583l-.072.072M274.801 88.074v-.491M276.426 88.396v-1.134M276.558 87.168v1.322M274.385 79.913l-.072.072M274.385 80.404l-.072-.072M274.801 79.913v.491M276.426 79.592v1.133M276.558 80.819v-1.322M274.385 87.829a.245.245 0 11-.491 0 .246.246 0 11.491 0zM274.385 80.158a.246.246 0 11-.492 0 .246.246 0 01.492 0zM257.164 63.378l-1.645-.468m.001 0l-1.552-.719m0 0l-1.23-.967m0 0l-.943-1.249m-.001 0l-.593-1.448m0 0l-.206-1.55m0 0l.206-1.552m0 0l.593-1.447m0 0l.943-1.248m.001 0l1.23-.968m0 0l1.552-.719m0 0l1.645-.468m-.001 0l1.697-.208m.001 0l1.71.059m-.001 0l11.585 1.223m0 0v10.654m0 0l-11.585 1.224m0 0l-1.71.059m.001 0l-1.697-.208M266.435 52.86v4.117M266.435 56.977v4.116M251.281 56.977a5.738 5.738 0 01.887-3.063M252.168 53.913c1.723-2.217 4.238-3.414 6.83-3.248M258.998 50.665c2.609-.071 5.185.689 7.437 2.195M266.435 61.093c-2.252 1.506-4.828 2.266-7.437 2.195M258.998 63.288c-2.591.165-5.107-1.031-6.83-3.248M252.168 60.04a5.743 5.743 0 01-.887-3.063M272.156 52.329v9.295m0 0h-.189m0 0v-9.295m0 0h.189M272.156 66.423V47.53M276.69 66.423V47.53M272.156 66.423h4.534M272.156 47.53h4.534M254.019 41.295h18.138m0 0v-8.313m0 0h-18.138m0 0v8.313M272.534 111.2a7.18 7.18 0 11-14.36-.001 7.18 7.18 0 0114.36.001zM175.797 41.484a3.779 3.779 0 11-7.558 0 3.779 3.779 0 017.558 0z"/><path class="st2" d="M173.152 41.484a1.134 1.134 0 11-2.267.001 1.134 1.134 0 012.267-.001zM87 41.484a3.778 3.778 0 11-7.557.001A3.778 3.778 0 0187 41.484z"/><path class="st2" d="M84.355 41.484a1.134 1.134 0 11-2.267.001 1.134 1.134 0 012.267-.001zM213.587 32.982h-22.672m0 0v62.347m0 0h22.672m0 0V32.982M201.874 95.329h.756m0 0V32.982m0 0h-.756m0 0v62.347M211.595 40.419h-18.626m0 0v.756m0 0h18.626m0 0v-.756M211.595 42.424h-18.626m0 0v.755m0 0h18.626m0 0v-.755M211.595 44.428h-18.626m0 0v.756m0 0h18.626m0 0v-.756M211.595 46.433h-18.626m0 0v.755m0 0h18.626m0 0v-.755M211.459 50.679l-18.491-2.241m0 0l-.091.75m0 0l18.491 2.241m0 0l.091-.75M64.521 144.83v22.671m0 0h149.067m-.001 0V144.83m0 0H64.521M213.587 156.543v-.755m0 0H64.52m0 0v.755m0 0h149.067M71.957 146.822v18.627m0 0h.756m0 0v-18.627m0 0h-.756M73.962 146.822v18.627m0 0h.756m0 0v-18.627m0 0h-.756M75.967 146.822v18.627m0 0h.755m0 0v-18.627m0 0h-.755M77.971 146.822v18.627m0 0h.755m0 0v-18.627m0 0h-.755M82.217 146.958l-2.241 18.491m0 0l.75.09m0 0l2.241-18.49m0 0l-.75-.091M161.627 112.334H93.612m0 0V36.761m0 0h68.015m0 0v75.573M159.738 114.223H95.501m0 0l-.723-.144m0 0l-.613-.409m0 0l-.409-.613m0 0l-.144-.723m0 0h68.015m0 0l-.143.723m0 0l-.41.613m0 0l-.613.409m0 0l-.723.144M161.627 32.982H93.612m0 0v3.779m0 0h68.015m0 0v-3.779M93.612 32.982h68.015m0 0v1.89m0 0H93.612m0 0v-1.89M91.723 32.982H74.719m0 0v18.893m0 0h17.004m0 0V32.982M163.517 32.982h17.004m0 0v18.893m0 0h-17.004m0 0V32.982M121.574 38.65H95.879m0 0l-.267.11m0 .001l-.111.268m0-.001v12.469m0 .001l.111.267m0 0l.267.111m0-.001h25.695m0 0l.267-.111m0 .001l.111-.267m0 0v-12.47m0 0l-.111-.268m0 .001l-.267-.11M133.666 38.65h25.694m0 0l.267.11m0 .001l.111.268m0-.001v12.469m0 .001l-.111.267m0 0l-.267.111m0-.001h-25.694m0 0l-.268-.111m0 .001l-.11-.267m0 0v-12.47m0 0l.11-.268m0 .001l.268-.11M161.627 50.852h-1.889M133.288 50.852h-11.336M95.501 50.852h-1.889M161.627 55.861H93.612m0 0v18.686m0 .001l68.015-14.908m0-.001v-3.778M264.839 105.191l.449 1.233m0 0v1.313m0 .001l-.449 1.233m0 0l.342 1.473m0-.001v1.513m0 .001l-.342 1.473m0-.001l.45 1.235m0 0v1.313m0 .001l-.45 1.235m0 0l2.987-2.232m0 0v-7.558m0 0l-2.987-2.231M268.087 107.423v7.558m0 0h-.261m0 0v-7.558m0 0h.261M268.611 107.423v7.558m0 0h-.262m0 0v-7.558m0 0h.262M263.323 112.043l-.085-.891m0 0l.226-.021m0 0l.046.476m0 0l1.142-1.382m0 0l.152.125m0 0l-.53.642m0 0l.081.068m0 0l.611-.741m0 0l.147.121m0 0l-.611.74m0 0l.097.081m0 0l.496-.602m0 0l.131.108m0 0l-.497.601m0 0l.097.08m0 0l.343-.414m0 0l.14.115m0 0l-1.174 1.422M254.019 99.863v22.672m0 0h22.672m0 0V99.863m0 0h-22.672M252.885 98.353h23.805m0 0v27.396m0 0h-23.805m0 0V98.353M254.019 41.295h18.138m0 0v-8.313m0 0h-18.138m0 0v8.313M175.698 40.624l-3.679.86m0 0l-1.584 3.432m0 0l1.584-3.432m0 0l-1.306-3.545M79.542 40.624l3.68.86m0 0l1.583 3.432m-.001 0l-1.583-3.432m.001 0l1.306-3.545"/></g><g id="walls"><path class="st3" d="M459.441 514.191v-13.603M459.441 521.748v-5.668M459.441 516.08v-1.89M376.311 514.191v-13.603M376.311 521.748v-5.668M376.311 516.08v-1.89M376.311 521.748h83.129M376.311 500.588h83.129M376.311 514.191h3.779M380.09 514.191v1.889M380.09 516.08h-3.779M431.101 516.08h-1.889M429.212 516.08v-1.89M429.212 514.191h1.889M380.09 515.135h49.122M380.09 514.191h49.122M429.212 516.08H380.09M431.101 514.191h.945M432.046 514.191v.944M432.046 515.135h.944M432.991 515.135v.945M432.991 516.08h-1.889M459.441 516.08h-3.778M455.662 516.08v-.945M455.662 515.135h.946M456.608 515.135v-.944M456.608 514.191h2.833M455.662 516.08H432.99M434.88 513.246h18.893M432.046 513.246h2.834M434.88 513.246v1.889M434.88 515.135h-2.834M432.046 515.135v-1.889M456.608 515.135h-2.835M453.773 515.135v-1.889M453.773 513.246h2.835M456.608 513.246v1.889M453.773 515.135H434.88M434.88 513.246h18.893M434.88 514.191h18.893M376.311 516.08v-1.89M376.311 516.08v-1.89M376.311 521.748v-5.668M376.311 514.191v-13.603M459.441 516.08v-1.89M459.441 516.08v-1.89M459.441 521.748v-5.668M459.441 514.191v-13.603M376.311 521.748v-21.16"/><g><path class="st3" d="M249.255 514.191v-13.603M249.255 521.748v-5.668M249.255 516.08v-1.89M323.883 514.191v-13.603M323.883 521.748v-5.668M323.883 516.08v-1.89M323.883 521.748h-74.628M323.883 500.588h-74.628M323.883 514.191h-2.834M321.049 514.191v.944M321.049 515.135h-.945M320.104 515.135v.945M320.104 516.08h3.779M284.679 516.08h1.889M286.569 516.08v-.945M286.569 515.135h-.944M285.624 515.135v-.944M285.624 514.191h-.945M321.049 513.246L296 488.197M286.569 516.08h33.535M318.215 513.246h-29.756M321.049 513.246h-2.834M318.215 513.246v1.889M318.215 515.135h2.834M321.049 515.135v-1.889M285.624 515.135h2.834M288.458 515.135v-1.889M288.458 513.246h-2.834M285.624 513.246v1.889M288.458 515.135h29.756M318.215 513.246h-29.756M318.215 514.191h-29.756M284.679 514.191h-1.889M282.79 514.191v1.889M282.79 516.08h1.889M249.255 516.08h3.779M253.033 516.08v-1.89M253.033 514.191h-3.778M282.79 515.135h-29.757M282.79 514.191h-29.757M253.033 516.08h29.757M285.624 513.246a35.424 35.424 0 0110.375-25.049M323.883 516.08v-1.89M323.883 516.08v-1.89M323.883 521.748v-5.668M323.883 514.191v-13.603M249.255 516.08v-1.89M249.255 516.08v-1.89M249.255 521.748v-5.668M249.255 514.191v-13.603M249.255 521.748v-21.16"/></g><g><path class="st3" d="M130.537 514.191v-13.603M130.537 521.748v-5.668M130.537 516.08v-1.89M130.537 521.748H41.525M130.537 500.588H64.575M130.537 514.191h-4.723M125.814 514.191v1.889M125.814 516.08h4.723M49.082 516.08h4.723M53.805 516.08v-1.89M53.805 514.191h-4.723M47.193 516.08h1.89M125.814 514.191H53.805M53.805 516.08h72.009M130.537 516.08v-1.89M130.537 516.08v-1.89M130.537 521.748v-5.668M130.537 514.191v-13.603M49.082 367.391h15.492M41.525 367.391h5.668M47.193 367.391h1.89M41.525 367.391v154.357M64.575 367.391v133.197M49.082 367.391v4.724M49.082 372.114h-1.89M47.193 372.114v-4.724M47.193 514.191v-4.724M47.193 509.468h1.89M49.082 509.468v4.723M47.193 516.08v-1.89M49.082 372.114v137.354M47.193 509.468V372.114M47.193 367.391h1.89M47.193 367.391h1.89M41.525 367.391h5.668M49.082 367.391h15.492"/></g><g><path class="st3" d="M49.082 177.515h15.492M41.525 177.515h5.668M47.193 177.515h1.89M49.082 260.645h15.492M41.525 260.645h5.668M47.193 260.645h1.89M41.525 260.645v-83.13M64.575 260.645v-83.13M49.082 260.645v-3.779M49.082 256.866h-1.89M47.193 256.866v3.778M47.193 220.969v1.89M47.193 222.858h1.89M49.082 222.858v-1.889M48.138 256.866v-34.008M49.082 256.866v-34.008M47.193 222.858v34.008M49.082 220.969v-.944M49.082 220.025h-.945M48.138 220.025v-.945M48.138 219.08h-.945M47.193 219.08v1.889M47.193 177.515v3.778M47.193 181.293h.945M48.138 181.293v-.944M48.138 180.349h.944M49.082 180.349v-2.834M50.027 180.349l28.055 28.055M47.193 181.293v37.787M50.027 217.191v-34.009M50.027 220.025v-2.834M50.027 217.191h-1.889M48.138 217.191v2.834M48.138 220.025h1.889M48.138 180.349v2.834M48.138 183.183h1.889M50.027 183.183v-2.834M50.027 180.349h-1.889M48.138 183.183v34.008M50.027 217.191v-34.009M49.082 217.191v-34.009M78.081 208.403a39.677 39.677 0 01-28.055 11.621M47.193 260.645h1.89M47.193 260.645h1.89M41.525 260.645h5.668M49.082 260.645h15.492M47.193 177.515h1.89M47.193 177.515h1.89M41.525 177.515h5.668M49.082 177.515h15.492"/></g><g><path class="st3" d="M49.082 120.836h15.492M41.525 120.836h5.668M47.193 120.836h1.89M49.082 54.709h15.492M41.525 54.709h5.668M47.193 54.709h1.89M41.525 54.709v66.127M64.575 54.709v66.127M49.082 54.709v3.778M49.082 58.488h-1.89M47.193 58.488V54.71M47.193 92.496v-1.89M47.193 90.607h1.89M49.082 90.607v1.889M48.138 58.488v32.119M49.082 58.488v32.119M47.193 90.607v-32.12M49.082 92.496v.944M49.082 93.44h-.945M48.138 93.44v.945M48.138 94.385h-.945M47.193 94.385v-1.889M47.193 120.836v-3.779M47.193 117.057h.945M48.138 117.057v.944M48.138 118.001h.944M49.082 118.001v2.835M47.193 117.057V94.385M50.027 96.274v18.893M50.027 93.44v2.834M50.027 96.274h-1.889M48.138 96.274V93.44M48.138 93.44h1.889M48.138 118.001v-2.834M48.138 115.167h1.889M50.027 115.167v2.834M50.027 118.001h-1.889M48.138 115.167V96.274M50.027 96.274v18.893M49.082 96.274v18.893M47.193 54.709h1.89M47.193 54.709h1.89M41.525 54.709h5.668M49.082 54.709h15.492M47.193 120.836h1.89M47.193 120.836h1.89M41.525 120.836h5.668M49.082 120.836h15.492M41.525 54.709h23.05"/></g><g><path class="st3" d="M41.618 279.538H.054m0 0V158.621m0 0h41.564m0 0v120.917M239.808 521.748h90.687m-.001 0v43.454m0 0h-90.687m.001 0v-43.454"/></g><g><path class="st3" d="M222.694 84.268c-1.601 4.293-2.034 6.485-2.268 11.061"/><path class="st4" d="M222.736 84.171l-.6 1.387 25.95 11.283h.453l.001-1.512z"/><g><path class="st5" d="M201.08 107.279c5.55-2.304 7.929-2.342 12.562-2.578"/><path class="st4" d="M200.983 107.321l12.659 29.27 1.51.001v-.454l-12.781-29.419z"/><g><path class="st5" d="M201.082 203.542c4.84 1.803 7.402 2.314 12.559 2.577"/><path class="st4" d="M200.983 203.499l1.388.6 12.781-29.418v-.454h-1.51z"/><g><path class="st5" d="M413.612 353.682c-1.602 4.295-2.046 6.486-2.28 11.064"/><path class="st4" d="M413.641 353.587l-.599 1.388 25.95 11.282h.453v-1.511z"/><g><path class="st5" d="M363.373 401.851c-4.848 1.828-7.397 2.333-12.568 2.597"/><path class="st4" d="M363.464 401.828l-12.658-29.271h-1.511v.453l12.782 29.418z"/></g><g><path class="st5" d="M335.007 276.259c2.247 5.967 2.891 9.196 3.217 15.559"/><path class="st4" d="M334.982 276.16l-36.208 15.658v1.511h.454l36.354-15.782z"/><g><path class="st5" d="M254.335 277.486c1.704 4.564 2.354 7.849 2.599 12.632"/><path class="st4" d="M254.299 277.387l-29.44 12.73v1.512h.454l29.586-12.855z"/></g></g></g></g></g></g><path d="M285.813 22.969h-9.068v278.107h22.483v-7.747h-.454v-1.51h-12.961V22.969h0zM487.97 291.818v9.068l-150.201.001v-7.558h.453v-1.51l149.748-.001h0zm0 229.93h-28.529v-21.161h28.529v21.161h0zM41.525 22.78h68.369v10.202H64.575v21.727h-23.05V22.78h0zm89.012 498.968v-21.161h118.718v21.161H130.537h0zm245.775 0h-52.429v-21.161h52.429v21.161h0zM109.894 290.117v10.955c190.719-.01 31.08.004-45.319.004v66.315h-23.05V260.644h23.05v29.473h45.319zM64.575 177.515h-23.05v-56.68h23.05v56.68z" fill-rule="evenodd" clip-rule="evenodd" stroke="#000" stroke-linecap="round" stroke-linejoin="round" stroke-miterlimit="3"/><path class="st7" d="M47.286 451.219h1.889v5.133h-1.889zM47.286 408.712h1.889v5.133h-1.889z"/><g><path class="st8" d="M116.93 22.96l-7.05 6.21M124.34 22.96l-11.58 10.2M131.76 22.96l-11.57 10.2M139.19 22.96l-11.58 10.2M146.61 22.96l-11.58 10.2M154.04 22.96l-11.58 10.2M161.46 22.96l-11.58 10.2M168.88 22.96l-11.58 10.2M176.3 22.96l-11.58 10.2M209.47.28L205.7 3.6M183.72 22.96l-11.58 10.2M216.89.28l-11.19 9.86M191.15 22.96l-11.58 10.2M224.31.28l-18.61 16.4M198.57 22.96l-11.58 10.2M216.65 13.57l-22.24 19.59M231.74.28L219.3 11.24M70.89 141.98L67.46 145M216.65 20.1l-14.82 13.06M239.15.28l-12.44 10.96M78.3 141.98L74.87 145M216.65 26.64l-7.4 6.52M246.58.28l-12.44 10.96M85.72 141.98L82.3 145M216.65 33.18l-3.02 2.66M254 .28l-12.44 10.96M93.15 141.98L89.72 145M216.65 39.72l-3.02 2.66M261.42.28l-12.44 10.96M100.57 141.98L97.14 145M216.65 46.26l-3.02 2.66M264.26 4.32l-10.2 8.99M107.99 141.98l-3.42 3.02M216.65 52.8l-3.02 2.66M264.26 10.86l-10.2 8.99M115.42 141.98l-3.43 3.02M216.65 59.34L213.63 62M264.26 17.4l-10.2 8.99M122.84 141.98l-3.43 3.02M216.65 65.87l-3.02 2.67M265.16 23.14l-11.1 9.78M130.26 141.98l-3.43 3.02M216.65 72.41l-3.02 2.67M272.59 23.14l-11.38 10.02M137.68 141.98l-3.43 3.02M216.65 78.95l-3.02 2.66M276.73 26.03l-8.1 7.13M145.1 141.98l-3.43 3.02M216.65 85.49l-3.02 2.66M276.73 32.57l-.67.59M275.22 33.9l-3.02 2.66M152.53 141.98L149.1 145M216.65 92.03l-3.02 2.66M275.22 40.44l-3.02 2.66M159.95 141.98l-3.43 3.02M216.65 98.57l-3.02 2.66M220.13 95.51l-3.43 3.02M275.22 46.98l-3.02 2.66M167.37 141.98l-3.42 3.02M275.22 53.51l-3.02 2.66M216.65 105.1l-.26.23M174.79 141.98l-3.43 3.02M275.22 60.05l-3.02 2.66M182.21 141.98l-3.42 3.02M275.22 66.59l-3.02 2.66M189.64 141.98l-3.43 3.02M276.73 71.8l-1.17 1.03M249.81 95.51l-1.28 1.13M248.1 97.02l-.02.01M197.06 141.98l-3.43 3.02M257.24 95.51l-3.43 3.02M204.48 141.98l-3.42 3.02M211.91 141.98l-3.43 3.02M216.65 137.8l-3.02 2.66M264.67 95.5l-3.44 3.03M216.65 144.34l-3.02 2.66M272.09 95.5l-3.44 3.03M276.73 97.95l-.66.58M216.65 150.87l-3.02 2.67M216.65 157.41l-3.02 2.67M216.65 163.95l-3.02 2.66M267.25 125.92l-4.88 4.3M216.65 170.49l-3.02 2.66M265.4 134.09l-3.03 2.67M274.67 125.92l-3.43 3.02M265.4 140.63l-3.03 2.67M265.4 147.16l-3.03 2.67M110.35 290.29l-.47.41M265.4 153.7l-3.03 2.67M117.77 290.29l-7.89 6.95M265.4 160.24l-3.03 2.67M125.19 290.29l-12.44 10.96M216.65 209.72l-3.02 2.66M265.4 166.78l-3.03 2.67M216.65 216.26l-3.02 2.66M132.62 290.29l-12.45 10.96M265.4 173.32l-3.03 2.67M216.65 222.8l-3.02 2.66M140.04 290.29l-12.44 10.96M272.58 173.53l-3.44 3.03M216.65 229.34l-3.02 2.66M163.97 275.75l-5.51 4.85M147.46 290.29l-12.44 10.96M276.73 176.42l-.16.14M161.49 284.47l-3.03 2.67M171.38 275.75l-3.42 3.02M154.88 290.29l-12.44 10.96M216.65 235.87l-3.02 2.67M176.32 277.94l-3.02 2.66M162.3 290.29l-12.44 10.96M216.65 242.41l-3.02 2.66M176.32 284.48l-3.02 2.66M169.72 290.29l-12.44 10.96M216.65 248.95l-3.02 2.66M177.15 290.29l-12.44 10.96M216.65 255.49l-3.02 2.66M184.57 290.29l-12.44 10.96M216.65 262.03l-3.02 2.66M216.65 268.57l-3.02 2.66M192 290.29l-12.44 10.96M216.65 275.1l-3.02 2.67M199.41 290.29l-12.44 10.96M216.65 281.64l-3.02 2.67M206.84 290.29l-12.45 10.96M216.65 288.18l-14.83 13.07M221.68 290.29l-12.44 10.96M225.3 293.64l-8.64 7.61M225.3 300.18l-1.21 1.07M258.79 290.29l-2.32 2.04M266.21 290.29l-9.74 8.58M273.64 290.29l-12.44 10.96M276.73 294.11l-8.11 7.14M276.73 300.65l-.69.6M372.74 301.06l-.79.7M374.98 305.63l-3.03 2.67M374.98 312.16l-3.03 2.67M374.98 318.7l-3.03 2.67M374.98 325.24l-3.03 2.67M374.98 331.78l-3.03 2.67M374.98 338.32l-3.03 2.67M374.98 344.86l-3.03 2.67M352.21 364.92l-4.44 3.91M359.63 364.92l-3.43 3.02M374.98 351.4l-3.03 2.67M350.79 372.71l-.03.02M367.05 364.92l-3.43 3.02M374.98 357.94l-3.03 2.67M374.98 364.47l-3.93 3.47M381.9 364.92l-3.43 3.02M389.32 364.92l-3.43 3.02M396.74 364.92l-3.43 3.02M466.04 303.87l-3.02 2.66M350.79 405.4l-3.02 2.66M350.79 411.94l-3.02 2.66M466.04 310.41l-3.02 2.66M476.66 301.06l-.04.03M404.17 364.92l-3.43 3.02M350.79 418.47l-3.02 2.67M411.32 365.15l-3.16 2.79M472.07 311.64l-3.44 3.03M484.08 301.06l-7.46 6.57M350.79 425.01l-3.02 2.66M487.96 304.18l-11.91 10.49M475.11 315.5l-3.02 2.66M350.79 431.55l-3.02 2.66M487.96 310.71l-11.34 9.99M475.11 322.03l-3.02 2.66M350.79 438.09l-3.02 2.66M487.96 317.26l-11.34 9.99M475.11 328.58l-3.02 2.66M350.79 444.63l-3.02 2.66M441.28 364.92l-2.3 2.02M487.96 323.79l-11.34 9.99M475.11 335.11l-3.02 2.66M350.79 451.17l-3.02 2.66M475.11 341.65l-3.02 2.66M487.96 330.33l-11.34 9.99M448.7 364.92l-3.43 3.02M350.79 457.7l-3.02 2.66M475.11 348.19l-3.02 2.66M487.96 336.87l-11.34 9.99M456.11 364.92l-3.42 3.02M350.79 464.25l-3.02 2.66M475.11 354.73l-3.02 2.66M487.96 343.41l-11.34 9.99M463.54 364.92l-3.43 3.02M350.79 470.78l-3.02 2.66M475.11 361.27l-3.02 2.66M487.96 349.95l-11.34 9.99M470.96 364.92l-3.42 3.02M350.79 477.32l-3.02 2.66M487.96 356.49l-13 11.45M350.79 483.86l-3.02 2.66M487.96 363.02l-11.34 9.99M350.79 490.4l-3.02 2.66M487.96 369.56l-11.34 9.99M487.96 376.1l-11.34 9.99M350.79 496.94l-3.02 2.66M487.96 382.64l-11.34 9.99M487.96 389.18l-11.34 9.99M487.96 395.71l-11.34 9.99M487.96 402.26l-11.34 9.99M487.96 408.79l-11.34 9.99M487.96 415.33l-11.34 9.99M487.96 421.87l-11.34 9.99M487.96 428.4l-11.34 9.99M487.96 434.95l-11.34 9.99M487.96 441.49l-11.34 9.99M487.96 448.02l-11.34 9.99M487.96 454.56l-11.34 9.99M487.96 461.1l-11.34 9.99M487.96 467.64l-11.34 9.99M487.96 474.18l-11.34 9.99M487.96 480.71l-11.34 9.99M487.96 487.26l-11.34 9.99M487.96 493.79l-7.91 6.97M487.96 500.33l-.49.43"/></g><path class="st7" d="M487.97 311.467v-10.58h-11.336v10.58h-10.58v-10.58h-3.023v13.603h9.07v50.257h-32.655v1.51h-.453v1.512h37.642v132.818h11.336v-189.12h-.001zm-12.847 53.279l1.511.001V314.49h-1.511v50.256zm-365.229-74.629v10.955l115.419.004v-9.447h-.454v-1.512h-8.194v-84.452h-1.512v.454h-1.511v83.998h-37.308V275.57h-17.86v14.546h-48.58v.001zm63.417 0h-11.814v-11.524h11.814v11.524zm83.17 10.959h20.264v-10.959h-19.811v1.512h-.453v9.447zm-2.408-271.564V11.066h-37.408V95.33h3.762v1.511h.454v1.511h-4.216v6.802h-1.512v-.454h-1.511V32.981H109.894V22.78h95.813V.108h58.568v22.861h12.47v10.013h-1.512v36.653h1.512v3.023h-4.534V32.982h-18.138v-3.47zm96.733 343.045h-1.511v.453h-1.512v-8.301h3.023v.037h21.16v-63.859h3.023v63.859l36.344.001v1.51h.453v1.512h-60.98v4.788zm0 32.949v95.081h-3.023v-96.593h1.512v.454h1.511v1.058zM213.642 144.829H64.575v-3.022h149.067v-5.215h1.511v-.453h1.512v38.543h-1.512v-.454h-1.511v-29.399zm63.103-46.478v-3.022l-28.205.001v1.511h-.453v1.511l28.658-.001zm-14.359 75.006v-47.61h14.359v3.022h-11.336v44.588h11.336v3.023h-14.359v-3.023z"/></g><g id="sizes_4_"><path d="M256.204 545.246l3.961-5.281c.229-.302.407-.616.535-.941s.191-.629.191-.91v-.016c0-.453-.133-.805-.398-1.055s-.644-.375-1.133-.375c-.464 0-.839.137-1.125.41s-.461.66-.523 1.16v.008h-1.648v-.008c.094-.651.285-1.207.574-1.668s.663-.813 1.121-1.055.987-.363 1.586-.363c.677 0 1.255.116 1.734.348s.844.569 1.094 1.012.375.977.375 1.602v.008c0 .401-.083.82-.25 1.258s-.398.859-.695 1.266l-3.289 4.469h4.297v1.516h-6.406v-1.385zM264.486 545.035h1.594v1.594l-1.594 1.578v-3.172zM269.783 546.355c-.521-.261-.923-.629-1.207-1.105s-.426-1.03-.426-1.66v-.188c0-.567.142-1.102.426-1.602s.663-.878 1.137-1.133c-.401-.219-.723-.535-.965-.949s-.363-.851-.363-1.309v-.273c0-.594.133-1.116.398-1.566s.641-.8 1.125-1.047 1.047-.371 1.688-.371 1.203.124 1.688.371.859.597 1.125 1.047.398.973.398 1.566v.273c0 .469-.124.909-.371 1.32s-.574.724-.98.938c.479.261.863.64 1.152 1.137s.434 1.03.434 1.598v.188c0 .63-.142 1.184-.426 1.66s-.687.845-1.207 1.105-1.125.391-1.813.391-1.293-.13-1.813-.391zm2.789-1.359c.281-.146.499-.351.652-.613s.23-.566.23-.91v-.109c0-.349-.077-.655-.23-.918s-.371-.468-.652-.613-.606-.219-.977-.219-.695.073-.977.219-.499.352-.652.617-.23.573-.23.922v.117c0 .344.077.646.23.906s.371.462.652.605.606.215.977.215.695-.074.977-.219zm-.133-5.121c.245-.138.435-.335.57-.59s.203-.55.203-.883v-.109c0-.317-.067-.599-.203-.844s-.325-.434-.57-.566-.526-.199-.844-.199-.599.066-.844.199-.435.321-.57.566-.203.528-.203.852v.117c0 .328.067.618.203.871s.325.448.57.586.526.207.844.207.599-.069.844-.207zM15.122 264.982l3.813-8.227h1.641l-3.719 8.133h5.57v1.477h-7.305v-1.383zm4.899-3.554h1.555v6.688h-1.555v-6.688zM24.224 266.513h1.594v1.594l-1.594 1.578v-3.172zM27.833 266.724l3.961-5.281c.229-.302.407-.616.535-.941.127-.325.191-.629.191-.91v-.016c0-.453-.133-.805-.398-1.055s-.644-.375-1.133-.375c-.464 0-.839.137-1.125.41-.287.273-.461.66-.523 1.16v.008h-1.648v-.008c.094-.651.285-1.207.574-1.668s.663-.813 1.121-1.055c.458-.242.987-.363 1.586-.363.677 0 1.255.116 1.734.348.479.231.844.569 1.094 1.012s.375.977.375 1.602v.008c0 .401-.083.82-.25 1.258a5.417 5.417 0 01-.695 1.266l-3.289 4.469h4.297v1.516h-6.406v-1.385zM186.453 270.709h-1.594v-9.625l-1.617.992v-1.648l1.617-1.078h1.594v11.359zM190.676 270.49a2.758 2.758 0 01-1.086-.977c-.279-.427-.465-.94-.559-1.539v-.008h1.594v.008c.057.417.224.741.5.973.275.231.635.348 1.078.348.51 0 .904-.171 1.184-.512.278-.341.418-.821.418-1.441v-.953c0-.614-.14-1.093-.418-1.434-.279-.341-.674-.512-1.184-.512-.276 0-.542.078-.797.234a2.225 2.225 0 00-.672.656h-1.453v-5.984h5.789v1.516h-4.195v2.555a2.262 2.262 0 011.414-.508c.656 0 1.217.136 1.684.406.466.271.82.667 1.063 1.188s.363 1.148.363 1.883v.953c0 .734-.125 1.362-.375 1.883s-.615.918-1.094 1.191c-.479.273-1.055.41-1.727.41-.573 0-1.082-.112-1.527-.336zM197.586 269.115h1.594v1.594l-1.594 1.578v-3.172zM201.196 269.326l3.961-5.281c.229-.302.407-.616.535-.941.127-.325.191-.629.191-.91v-.016c0-.453-.133-.805-.398-1.055s-.644-.375-1.133-.375c-.464 0-.839.137-1.125.41-.287.273-.461.66-.523 1.16v.008h-1.648v-.008c.094-.651.285-1.207.574-1.668s.662-.813 1.121-1.055c.458-.242.986-.363 1.586-.363.677 0 1.255.116 1.734.348.479.231.844.569 1.094 1.012s.375.977.375 1.602v.008c0 .401-.084.82-.25 1.258a5.417 5.417 0 01-.695 1.266l-3.289 4.469h4.297v1.516h-6.406v-1.385zM73.44 136.696h-1.594v-9.625l-1.617.992v-1.648l1.617-1.078h1.594v11.359zM78.76 136.696h-1.594v-9.625l-1.617.992v-1.648l1.617-1.078h1.594v11.359zM81.182 135.102h1.594v1.594l-1.594 1.578v-3.172zM86.948 136.813l-.727-.348a2.857 2.857 0 01-1.168-1.008c-.294-.44-.48-.97-.559-1.59h1.625c.047.323.148.589.305.797s.358.363.605.465c.247.102.538.152.871.152.526 0 .935-.141 1.227-.422s.438-.677.438-1.188v-.344c0-.567-.138-1.007-.414-1.316s-.667-.465-1.172-.465h-.805v-1.516h.805c.442 0 .786-.133 1.031-.398s.367-.641.367-1.125v-.352c0-.448-.129-.794-.387-1.039s-.624-.367-1.098-.367c-.271 0-.513.051-.727.152s-.395.258-.543.469-.257.476-.324.793h-1.617c.104-.62.301-1.151.59-1.594s.655-.778 1.098-1.008c.442-.229.95-.344 1.523-.344.979 0 1.737.258 2.273.773s.805 1.242.805 2.18v.188c0 .567-.153 1.063-.461 1.484s-.742.729-1.305.922c.62.136 1.101.44 1.441.914s.512 1.078.512 1.813v.188c0 .661-.128 1.227-.383 1.695s-.626.825-1.113 1.07-1.074.367-1.762.367l-.951.002z"/><g><path d="M236.256 184.439l-2.938 9.938h-1.695l2.938-9.844h-2.891v1.633h-1.594v-3.148h6.18v1.421zM238.287 192.783h1.594v1.594l-1.594 1.578v-3.172zM243.713 194.158a2.758 2.758 0 01-1.086-.977c-.279-.427-.465-.94-.559-1.539v-.008h1.594v.008c.057.417.224.741.5.973.275.231.635.348 1.078.348.51 0 .904-.171 1.184-.512.278-.341.418-.821.418-1.441v-.953c0-.614-.14-1.093-.418-1.434-.279-.341-.674-.512-1.184-.512-.276 0-.542.078-.797.234a2.225 2.225 0 00-.672.656h-1.453v-5.984h5.789v1.516h-4.195v2.555a2.262 2.262 0 011.414-.508c.656 0 1.217.136 1.684.406.466.271.82.667 1.063 1.188s.363 1.148.363 1.883v.953c0 .734-.125 1.362-.375 1.883s-.615.918-1.094 1.191c-.479.273-1.055.41-1.727.41-.573-.001-1.081-.113-1.527-.336z"/></g><g><path d="M222.762 55.173l-.727-.348a2.857 2.857 0 01-1.168-1.008c-.295-.44-.48-.97-.559-1.59h1.625c.047.323.148.589.305.797.156.208.357.363.605.465.247.102.537.152.871.152.525 0 .935-.141 1.227-.422.291-.281.438-.677.438-1.188v-.344c0-.567-.139-1.006-.414-1.316-.276-.31-.667-.465-1.172-.465h-.805V48.39h.805c.442 0 .786-.133 1.031-.398.244-.266.367-.641.367-1.125v-.352c0-.448-.129-.794-.387-1.039-.258-.245-.624-.367-1.098-.367a1.68 1.68 0 00-.727.152c-.214.102-.395.258-.543.469s-.257.476-.324.793h-1.617c.104-.62.301-1.151.59-1.594a2.886 2.886 0 011.098-1.008c.442-.229.95-.344 1.523-.344.979 0 1.736.258 2.273.773.536.516.805 1.242.805 2.18v.188c0 .568-.154 1.063-.461 1.484-.308.422-.742.729-1.305.922.619.136 1.1.44 1.441.914.341.474.512 1.078.512 1.813v.188c0 .662-.128 1.227-.383 1.695a2.53 2.53 0 01-1.113 1.07c-.487.245-1.074.367-1.762.367l-.951.002zM229.082 53.462h1.594v1.594l-1.594 1.578v-3.172zM232.692 53.673l3.961-5.281c.229-.302.407-.616.535-.941.127-.325.191-.629.191-.91v-.016c0-.453-.133-.805-.398-1.055s-.644-.375-1.133-.375c-.464 0-.839.137-1.125.41-.287.273-.461.66-.523 1.16v.008h-1.648v-.008c.094-.651.285-1.207.574-1.668s.662-.813 1.121-1.055c.458-.242.986-.363 1.586-.363.677 0 1.255.116 1.734.348.479.232.844.569 1.094 1.012.25.443.375.977.375 1.602v.008c0 .401-.084.82-.25 1.258a5.417 5.417 0 01-.695 1.266l-3.289 4.469h4.297v1.516h-6.406v-1.385z"/></g><g><path d="M96.589 343.441h-1.594v-9.625l-1.617.992v-1.648l1.617-1.078h1.594v11.359zM100.683 343.168a2.855 2.855 0 01-1.207-1.105c-.284-.477-.426-1.03-.426-1.66v-.188c0-.567.142-1.102.426-1.602.283-.5.662-.878 1.137-1.133-.401-.219-.723-.535-.965-.949s-.363-.851-.363-1.309v-.273c0-.594.133-1.116.398-1.566s.641-.8 1.125-1.047 1.047-.371 1.688-.371 1.203.124 1.688.371.859.597 1.125 1.047.398.973.398 1.566v.273c0 .469-.124.909-.371 1.32a2.485 2.485 0 01-.98.938c.479.261.863.64 1.152 1.137s.434 1.03.434 1.598v.188c0 .63-.143 1.184-.426 1.66a2.854 2.854 0 01-1.207 1.105c-.521.261-1.125.391-1.813.391s-1.293-.13-1.813-.391zm2.789-1.36c.281-.146.498-.351.652-.613.153-.263.23-.566.23-.91v-.109c0-.349-.077-.655-.23-.918-.154-.263-.371-.468-.652-.613s-.607-.219-.977-.219-.695.073-.977.219-.499.352-.652.617c-.154.266-.23.573-.23.922v.117c0 .344.076.646.23.906.153.261.371.462.652.605s.606.215.977.215c.37 0 .696-.073.977-.219zm-.133-5.121c.244-.138.435-.335.57-.59.135-.255.203-.55.203-.883v-.109c0-.317-.068-.599-.203-.844a1.406 1.406 0 00-.57-.566 1.74 1.74 0 00-.844-.199c-.318 0-.6.066-.844.199a1.394 1.394 0 00-.57.566 1.724 1.724 0 00-.203.852v.117c0 .328.067.618.203.871.135.253.325.448.57.586.244.138.525.207.844.207.318 0 .599-.069.844-.207zM108.011 341.847h1.594v1.594l-1.594 1.578v-3.172zM113.011 343.156a2.609 2.609 0 01-1.082-1.172c-.248-.513-.371-1.132-.371-1.855v-.008c0-.422.049-.864.148-1.328a7.648 7.648 0 01.641-1.82l2.469-4.891h1.719l-2.898 5.664.008-.281c.13-.245.32-.435.57-.57s.541-.203.875-.203c.588 0 1.094.133 1.516.398s.742.652.961 1.16.328 1.118.328 1.832v.008c0 .729-.124 1.354-.371 1.875-.248.521-.609.917-1.086 1.188s-1.049.406-1.715.406c-.668-.001-1.238-.134-1.712-.403zm2.879-1.598c.273-.313.41-.758.41-1.336v-.008c0-.636-.144-1.126-.43-1.473-.287-.347-.695-.52-1.227-.52-.475 0-.842.175-1.102.523-.261.349-.391.841-.391 1.477v.008c0 .578.137 1.022.41 1.332s.66.465 1.16.465c.507.001.897-.155 1.17-.468z"/></g><g><path d="M246.433 440.953h-1.594v-9.625l-1.617.992v-1.648l1.617-1.078h1.594v11.359zM254.878 431.015l-2.938 9.938h-1.695l2.938-9.844h-2.891v1.633h-1.594v-3.148h6.18v1.421zM256.91 439.359h1.594v1.594l-1.594 1.578v-3.172zM262.675 441.07l-.727-.348a2.857 2.857 0 01-1.168-1.008c-.295-.44-.48-.97-.559-1.59h1.625c.047.323.148.589.305.797s.357.363.605.465c.247.102.537.152.871.152.525 0 .935-.141 1.227-.422.291-.281.438-.677.438-1.188v-.344c0-.567-.139-1.007-.414-1.316-.276-.31-.667-.465-1.172-.465h-.805v-1.516h.805c.442 0 .786-.133 1.031-.398.244-.266.367-.641.367-1.125v-.352c0-.448-.129-.794-.387-1.039s-.624-.367-1.098-.367a1.68 1.68 0 00-.727.152c-.214.102-.395.258-.543.469s-.257.476-.324.793h-1.617c.104-.62.301-1.151.59-1.594s.654-.778 1.098-1.008c.442-.229.95-.344 1.523-.344.979 0 1.736.258 2.273.773.536.516.805 1.242.805 2.18v.188c0 .567-.154 1.063-.461 1.484-.308.422-.742.729-1.305.922.619.136 1.1.44 1.441.914.341.474.512 1.078.512 1.813v.188c0 .661-.128 1.227-.383 1.695a2.536 2.536 0 01-1.113 1.07c-.487.245-1.074.367-1.762.367l-.951.002z"/></g><g><path d="M409.945 496.145h-1.594v-9.625l-1.617.992v-1.648l1.617-1.078h1.594v11.359zM415.265 496.145h-1.594v-9.625l-1.617.992v-1.648l1.617-1.078h1.594v11.359zM417.687 494.552h1.594v1.594l-1.594 1.578v-3.172zM422.292 495.411c-.55-.567-.824-1.359-.824-2.375v-5.164c0-1.021.276-1.813.828-2.379s1.356-.848 2.414-.848c1.063 0 1.868.281 2.418.844s.824 1.356.824 2.383v5.164c0 1.021-.276 1.813-.828 2.379s-1.356.848-2.414.848c-1.062 0-1.868-.285-2.418-.852zm3.664-1.106c.269-.294.402-.718.402-1.27v-5.164c0-.552-.133-.976-.398-1.27s-.683-.441-1.25-.441-.984.147-1.25.441-.398.718-.398 1.27v5.164c0 .552.134.976.402 1.27s.684.441 1.246.441.978-.147 1.246-.441z"/></g><g><path d="M417.344 333.502l3.813-8.227h1.641l-3.719 8.133h5.57v1.477h-7.305v-1.383zm4.899-3.555h1.555v6.688h-1.555v-6.688zM426.446 335.033h1.594v1.594l-1.594 1.578v-3.172zM430.071 333.502l3.813-8.227h1.641l-3.719 8.133h5.57v1.477h-7.305v-1.383zm4.898-3.555h1.555v6.688h-1.555v-6.688z"/></g><g><path d="M268.841 325.535l3.813-8.227h1.641l-3.719 8.133h5.57v1.477h-7.305v-1.383zm4.899-3.555h1.555v6.688h-1.555v-6.688zM277.943 327.066h1.594v1.594l-1.594 1.578v-3.172zM285.747 323.019l-.008.281a1.176 1.176 0 01-.59.527 2.375 2.375 0 01-.934.168c-.542 0-1.019-.138-1.43-.414-.412-.276-.73-.665-.957-1.168s-.34-1.085-.34-1.746v-.008c0-.734.123-1.362.371-1.883.247-.521.609-.917 1.086-1.188s1.048-.406 1.715-.406c.666 0 1.236.138 1.711.414.474.276.834.677 1.082 1.203.247.526.371 1.159.371 1.898v.008c0 .406-.053.84-.156 1.301a8.052 8.052 0 01-.539 1.578c-.031.07-.065.14-.102.207l-2.422 4.867h-1.719l2.861-5.639zm.075-.984c.273-.339.41-.815.41-1.43v-.008c0-.599-.137-1.063-.41-1.391s-.66-.492-1.16-.492c-.506 0-.895.164-1.168.492s-.41.794-.41 1.398v.008c0 .614.137 1.09.41 1.426s.662.504 1.168.504c.499.001.886-.168 1.16-.507z"/></g></g></svg>