<?xml version="1.0" encoding="utf-8"?>
<!-- Generator: Adobe Illustrator 27.0.0, SVG Export Plug-In . SVG Version: 6.00 Build 0)  -->
<svg version="1.1" id="Слой_1" xmlns="http://www.w3.org/2000/svg" xmlns:xlink="http://www.w3.org/1999/xlink" x="0px" y="0px"
     viewBox="0 0 347 178" style="enable-background:new 0 0 347 178;" xml:space="preserve">
<style type="text/css">

		.st0{clip-path:url(#SVGID_00000155855214504705727530000012817148683814740663_);fill:#FFFFFF;stroke:#000000;stroke-miterlimit:10;}
	.st1{clip-path:url(#SVGID_00000155855214504705727530000012817148683814740663_);}
	.st2{fill:none;stroke:#999999;stroke-width:0.4;stroke-linecap:round;stroke-linejoin:round;stroke-miterlimit:3;}
	.st3{fill:none!important;stroke:#999999;stroke-linecap:round;stroke-linejoin:round;stroke-miterlimit:3;}
	.st4{fill-rule:evenodd;clip-rule:evenodd;fill:#999999;}
	.st5{fill:none;stroke:#000000;stroke-linecap:round;stroke-linejoin:round;stroke-miterlimit:3;}
	.st6{fill-rule:evenodd;clip-rule:evenodd;}
	.st7{fill:unset!important;fill-rule:evenodd;clip-rule:evenodd;stroke:#000000;stroke-linecap:round;stroke-linejoin:round;stroke-miterlimit:3;}
	.st8{fill-rule:evenodd;clip-rule:evenodd;fill:#FEFEFE;}
	.st9{fill:none;stroke:#666666;stroke-width:0.6;stroke-miterlimit:22.9256;}
	.st10{fill:none;stroke:#000000;stroke-linecap:round;stroke-linejoin:round;stroke-miterlimit:22.926;}
</style>
    <g>
	<defs>
		<rect id="SVGID_1_" y="0" width="347" height="177.8"/>
	</defs>
        <clipPath id="SVGID_00000169531605399763987410000008291101207575636665_">
		<use xlink:href="#SVGID_1_"  style="overflow:visible;"/>
	</clipPath>

        <rect x="15.7" y="0.1" style="clip-path:url(#SVGID_00000169531605399763987410000008291101207575636665_);fill:#FFFFFF;stroke:#000000;stroke-miterlimit:10;" width="331.2" height="177.6"/>
        <g id="_x31_6" style="clip-path:url(#SVGID_00000169531605399763987410000008291101207575636665_);">
		<g id="_x34__1_">
			<g id="mebel_3_">
				<path id="Vector" class="st2" d="M107.8,139.1l3.2-3.2 M85.7,154.2l0.5-0.5 M100.8,139.1l10.2-10.2 M78.8,154.2l7.5-7.5
					 M93.9,139.1L111,122 M75.1,150.9l11.1-11.1 M86.9,139.1L111,115 M75.9,143.1l35.1-35.1 M57.9,154.2l5.6-5.6 M75.1,137
					l35.9-35.9 M54.3,150.8l8.6-8.6 M71.6,133.5L111,94.2 M54.3,143.9l56.1-56.1 M54.3,136.9l49.2-49.2 M54.3,130l42.2-42.2
					 M54.3,123.1l35.3-35.3 M54.3,116.1l28.3-28.3 M54.3,109.2l21.4-21.4 M54.3,102.2l14.4-14.4 M54.3,95.3l7.5-7.5 M54.3,88.3
					l0.5-0.5 M111,89.2l-1.4-1.4 M111,96.1l-8.3-8.3 M111,103.1L95.7,87.8 M111,110L88.8,87.8 M111,116.9L81.8,87.8 M111,123.9
					L74.9,87.8 M111,130.8L67.9,87.8 M111,137.8l-50-50 M105.3,139.1l-51-51 M98.4,139.1L54.3,95 M91.4,139.1L54.3,102 M86.2,140.8
					l-31.9-31.9 M86.2,147.8l-11.4-11.4 M72.2,133.7l-17.9-17.9 M85.7,154.2l-9.9-9.9 M65.8,134.3l-11.5-11.5 M78.8,154.2l-3.6-3.6
					 M63.2,138.6l-8.9-8.9 M63.2,145.6l-8.9-8.9 M64,153.3l-9.7-9.7 M57.9,154.2l-3.6-3.6"/>
                <path id="Vector_2" class="st3" d="M311.1,25.5h-83.9V10.3h83.9V25.5z M311.1,25.5v-0.8h-83.9 M269.1,25.5v-0.8 M63.5,137.5
					l-0.5,1.6l-0.2,1.7l0.1,1.7 M63.5,137.5l0.7-1.6 M64.2,136l1-1.2 M65.2,134.8l1.2-0.9l1.4-0.6l1.5-0.2l1.6,0.2l1.4,0.6l1.2,0.9
					 M73.7,134.8l1,1.2 M74.6,136l0.7,1.6 M75.4,137.5l0.5,1.6l0.2,1.7l-0.1,1.7l-1.2,11.6l-10.7,0l-1.2-11.6 M63.1,141
					c-0.1,2.6,0.7,5.2,2.2,7.4h4.1h4.1c1.5-2.3,2.3-4.8,2.2-7.4c0.2-2.6-1-5.1-3.2-6.8c-0.9-0.6-2-0.9-3.1-0.9
					c-1.1,0-2.1,0.3-3.1,0.9C64.1,135.9,62.9,138.4,63.1,141 M95.3,153.9v-1.6H95 M95.3,153.9L95.3,153.9l0.1,0.1h0.3l0,0.1h-1.9
					l0-0.1h0.3l0-0.1h0.1 M95.3,153.9h-1.1 M94.2,153.9v-1.6h0.3 M94.5,152.3v-0.4 M94.5,152.3H95 M94.5,151.9h-1.1l0-0.5h2.6v0.5
					H95 M94.5,151.9L94.5,151.9 M95,151.9v0.4 M95,151.9L95,151.9 M101.9,152.3v1.6h-0.1v0.1h-0.3v0.1h1.9V154h-0.3l0-0.1H103
					 M103,153.9l0-1.6h-0.3 M103,153.9h-1.1 M102.7,152.3l0-0.4 M102.7,152.3h-0.5 M102.7,151.9h1.1v-0.5h-2.6l0,0.5h1.1
					 M102.7,151.9L102.7,151.9 M102.2,151.9l0,0.4 M102.2,151.9L102.2,151.9 M102.2,152.3h-0.3 M95.4,154h-1.3 M102.3,151.8
					C102.3,151.8,102.3,151.8,102.3,151.8c0.1,0.1,0.1,0.1,0.2,0.1c0.1,0,0.2-0.1,0.2-0.2c0-0.1,0-0.1-0.1-0.2c0,0-0.1-0.1-0.2-0.1
					c-0.1,0-0.1,0-0.2,0.1c0,0-0.1,0.1-0.1,0.2C102.2,151.7,102.2,151.7,102.3,151.8C102.2,151.8,102.3,151.8,102.3,151.8z
					 M101.8,154h1.3 M54.3,135V87.8H24.8 M27.7,108.4h0.4v1.7l0.8,0l0.7,0l0.1-0.2l0.1-0.2l0.2-0.4l0.2-0.3l0.1-0.1l0.3-0.2l0.1-0.1
					l0.3-0.1l0.1,0h0.4l0.3,0.1l0.3,0.2l0.2,0.3l0.2,0.4l0.1,0.5l0,0.5l0,0.5l-0.1,0.5h5.5l0.4-1.4l0.8-1.2l1.1-0.9l1.4-0.5l1.4,0
					l1.4,0.4l1.2,0.8l0.9,1.2l0.5,1.4v1.4l-0.5,1.4l-0.9,1.2l-1.2,0.8l-1.4,0.4l-1.4,0l-1.4-0.5L39,115l-0.8-1.2l-0.4-1.4h-7.5v0
					v0.2v0.1v0.1v0.1h-2.2v2.6h-1.5v-0.2h-0.3v0.2h-0.5v0.6h-1v-2.6h1v0.6h0.5v0.2h0.3v-0.4h-0.2v-1.4h-1.4v1.1h-0.3v-3h0.3v1.1h1.4
					v-0.7l-0.7-0.3l0,0l0,0l0-0.1 M27.7,108.4v-2.9 M27.7,108.4h-0.5 M27.7,105.6l-0.1-0.2l-0.1-0.1l-0.2,0l-0.1,0.1l-0.2,0.5
					l-0.3,0.7l-0.6,1l-0.3,0.7 M27.7,105.6L27.7,105.6l-0.2,0.6l-0.3,0.7 M25.9,108.4h-0.1 M25.9,108.4l-0.2,0.5l-0.1,0.7l0,0.2l0,0
					 M25.8,108.4v-0.6h-1v2.6h0.9 M25.8,108.4v0.4 M25.7,110.4L25.7,110.4L25.7,110.4 M26.1,109.8l0.1,0.3l0.3,0.1v-0.2h0.2v-0.4
					 M26.1,109.8L26.1,109.8l0.2,0v-0.2 M26.1,109.8L26.1,109.8 M26.3,109.6h0.3 M26.3,109.6v-0.2 M26.6,109.6v-1.1 M26.6,108.6
					h-0.2l0.2-0.7l0.6-1l0-0.1 M26.6,108.6v-0.2h0.6 M27.2,106.9v1.6 M25.8,114.4h0.5 M25.8,115.1h0.5 M26.3,109.5v-0.7 M26.3,109.5
					h-0.2 M26.3,108.8L26.3,108.8 M26.3,108.8L26.3,108.8 M28.2,110.9v0.6 M28.7,111v0.5 M74.1,154.2h-9.3V154h9.3V154.2z M60,154.2
					h18.9v4.5H60V154.2z M86.8,154.2h23.6l0.4-0.2l0.2-0.4l0-14l-0.2-0.4l-0.4-0.2H86.8l-0.4,0.2l-0.2,0.4l0,14l0.2,0.4L86.8,154.2z
					 M87.9,150h10.2h0.2h0.8h10.2c0.2,0,0.3-0.1,0.4-0.2c0.1-0.1,0.2-0.2,0.2-0.4v-8.7c0-0.3-0.3-0.6-0.6-0.6H87.9
					c-0.3,0-0.6,0.3-0.6,0.6v8.7c0,0.1,0.1,0.3,0.2,0.4C87.6,150,87.8,150,87.9,150z M99.4,147c0,0.1,0,0.2-0.1,0.3
					s-0.1,0.2-0.2,0.3v-1.2c0.1,0.1,0.2,0.2,0.2,0.3C99.3,146.8,99.4,146.9,99.4,147z M98.2,147.6c-0.1-0.1-0.2-0.2-0.2-0.3
					c-0.1-0.1-0.1-0.2-0.1-0.3s0-0.2,0.1-0.3c0.1-0.1,0.1-0.2,0.2-0.3V147.6z M99.1,153.7h-0.9v-7.7l0.3-0.3h0.4l0.3,0.3V153.7z
					 M97.9,153.7h1.5v0.3h-1.5V153.7z M97.5,153.9h2.3v0.3h-2.3V153.9z M95,151.6c0,0,0,0.1,0,0.1c0,0-0.1,0.1-0.1,0.1
					c0,0-0.1,0-0.1,0c0,0-0.1,0-0.1-0.1c0,0-0.1-0.1-0.1-0.1c0,0,0-0.1,0-0.1c0,0,0.1-0.1,0.1-0.1c0,0,0.1,0,0.1,0
					C94.9,151.4,95,151.5,95,151.6z M32.4,128.4c0,0.3-0.1,0.5-0.3,0.7s-0.4,0.3-0.7,0.3c-0.3,0-0.5-0.1-0.7-0.3
					c-0.2-0.2-0.3-0.4-0.3-0.7c0-0.3,0.1-0.5,0.3-0.7c0.2-0.2,0.4-0.3,0.7-0.3c0.3,0,0.5,0.1,0.7,0.3S32.4,128.1,32.4,128.4z"/>
                <path id="Vector_3" class="st4" d="M25.9,108.9C25.9,108.8,25.9,108.8,25.9,108.9c-0.1-0.1-0.1-0.1-0.1-0.1c0,0-0.1,0-0.1,0
					c0,0,0,0,0,0.1s0,0.1,0,0.1c0,0,0,0,0.1,0C25.8,109,25.9,108.9,25.9,108.9C25.9,108.9,25.9,108.9,25.9,108.9z"/>
                <path id="Vector_4" class="st3" d="M25.6,109.8l0.1,0.5 M30.2,111.5L30.2,111.5 M29.7,111.5L29.7,111.5 M27,110.1h-0.1h-0.1
					h-0.1 M26.5,110.3v0.5 M26.1,109.7l0.1-0.7l0.2-0.4"/>
                <path id="Vector_5" class="st4" d="M27.2,110.7C27.2,110.7,27.2,110.7,27.2,110.7c-0.1-0.1-0.1-0.1-0.1-0.1c0,0-0.1,0-0.1,0
					c0,0,0,0,0,0.1s0,0.1,0,0.1c0,0,0,0,0.1,0C27.2,110.9,27.2,110.8,27.2,110.7C27.2,110.8,27.2,110.8,27.2,110.7z"/>
                <path id="Vector_6" class="st3" d="M27.1,110.7L27.1,110.7l-0.1-0.2l0-0.1l0-0.1"/>
                <path id="Vector_7" class="st4" d="M27.2,110.4C27.2,110.3,27.2,110.3,27.2,110.4c-0.1-0.1-0.1-0.1-0.1-0.1c0,0-0.1,0-0.1,0
					c0,0,0,0,0,0.1c0,0.1,0,0.1,0.1,0.1S27.2,110.4,27.2,110.4z"/>
                <path id="Vector_8" class="st3" d="M29.6,110.2l0,0.3 M29.6,110.6l0,0.3l0.1,0.3l0.1,0.2l0,0.1 M29.6,110.1L29.6,110.1
					 M27.3,110.2L27.3,110.2l0.9,0 M29.6,111l-0.7,0l-1.6,0l-0.1,0l-0.1,0l0,0l0-0.1l0-0.1l0,0l0-0.1v-0.2l0-0.1l0,0l0-0.1l0-0.1
					l0,0l0.1,0 M27.9,110.2v-0.1h-1.2 M27.9,110.9v0.6 M37.8,112.4h5.3v-0.9h-5.3 M25.8,115.5v-1.4 M26.3,115.3v-1.1 M26.6,115.3
					v-1.1 M26.6,113.8h1.2v-1.4 M25.1,112.4v-0.9 M26.5,112.4h3.8 M32.3,111.5h-5.8 M28.2,112.9v-0.5 M28.7,112.9v-0.5 M28.2,111
					h1.5 M40.5,111.5c0.1-0.4,0.4-0.8,0.8-1.1c0.4-0.3,0.8-0.4,1.3-0.3c0.5,0.1,0.9,0.3,1.2,0.6c0.3,0.3,0.5,0.8,0.5,1.3
					c0,0.5-0.2,0.9-0.5,1.3c-0.3,0.3-0.7,0.6-1.2,0.6c-0.5,0.1-0.9-0.1-1.3-0.3c-0.4-0.3-0.7-0.7-0.8-1.1 M27.8,113.8
					c0,0.1,0,0.1,0,0.2c0,0.1,0,0.1,0,0.2c0,0.1-0.1,0.1-0.1,0.1c-0.1,0-0.1,0-0.2,0c-0.1,0-0.1,0-0.2,0c-0.1,0-0.1-0.1-0.1-0.1
					c0-0.1,0-0.1,0-0.2c0-0.1,0-0.1,0-0.2 M273.5,129h36.7h9.6v37.8 M273.5,129v26.4 M273.5,129h-36.7v26.4 M273.5,155.4v9.4H315
					v-9.4H273.5z M273.5,155.4H232l0,9.4h41.5 M273.5,155.4h36.7V129 M273.5,155.4h-36.7 M273.5,155.4V129 M227.2,166.7V129h9.6
					v26.4 M227.2,166.7h9.6v-1.9 M310.2,129v26.4 M310.2,164.9v1.9 M310.2,166.7h9.6 M136.7,112V89.3H114V112 M136.7,112H114
					 M136.7,112v22.7H114V112 M121.6,100.6h7.6 M122.7,103.3l5.3-5.3 M125.3,104.4v-7.6 M128,103.3l-5.3-5.3 M132,115.5V131
					 M131.2,131.8h-11.7 M118.7,131v-15.5 M119.5,114.8h11.7 M310.2,166.7v-1.9h-73.4v1.9H310.2z M133.8,113.7v19.3l-0.2,0.5
					l-0.5,0.2h-17.4l-0.5-0.2l-0.2-0.5v-19.3l0.2-0.5l0.5-0.2h17.4l0.5,0.2L133.8,113.7z"/>
                <path id="Vector_9" class="st4" d="M132.1,115.5C132.1,115.5,132.1,115.5,132.1,115.5c-0.1-0.1-0.1-0.1-0.1-0.1c0,0-0.1,0-0.1,0
					c0,0,0,0,0,0.1c0,0.1,0,0.1,0.1,0.1C132,115.7,132.1,115.6,132.1,115.5z"/>
                <path id="Vector_10" class="st3" d="M132,131c0,0.2-0.1,0.4-0.2,0.5c-0.1,0.1-0.3,0.2-0.5,0.2 M119.5,131.8
					c-0.2,0-0.4-0.1-0.5-0.2c-0.1-0.1-0.2-0.3-0.2-0.5 M118.7,115.5c0-0.4,0.3-0.8,0.8-0.8 M131.2,114.8c0.4,0,0.8,0.3,0.8,0.8
					 M115.8,123.5l0.2,0.1h7.5l0.2-0.1l0.1-0.2l-0.1-0.2l-0.2-0.1h-7.5 M115.8,123.5l-0.1-0.2l0.1-0.2l0.2-0.1 M115.8,123.5
					l-0.1-0.2 M115.8,123.5l0.2,0.1h1.9v0.4h-2.5v-1.5h2.5v0.4h-1.9 M204.5,148.1h1.1v5.3h-1.1 M197.8,148.1h-1.1v5.3h1.1
					 M119.4,122.5v0.4h-1.3v-0.4H119.4z M119.4,124h-1.3v-0.4h1.3V124z M138.6,144.1h22.7v22.7h-22.7V144.1z M216.5,164.7h-21.9
					v-18.5h21.9V164.7z M214.5,150.5c0,0.4-0.1,0.7-0.2,1.1c-0.1,0.3-0.3,0.6-0.6,0.9c-0.3,0.3-0.6,0.5-0.9,0.6
					c-0.3,0.1-0.7,0.2-1.1,0.2c-0.4,0-0.7-0.1-1.1-0.2c-0.3-0.1-0.6-0.3-0.9-0.6c-0.3-0.3-0.5-0.6-0.6-0.9c-0.1-0.3-0.2-0.7-0.2-1.1
					c0-0.7,0.3-1.4,0.8-1.9c0.5-0.5,1.2-0.8,1.9-0.8s1.4,0.3,1.9,0.8C214.2,149.1,214.5,149.8,214.5,150.5z M214.5,158.8
					c0,1.1-0.4,2.1-1.2,2.8c-0.7,0.7-1.8,1.2-2.8,1.2c-1.1,0-2.1-0.4-2.8-1.2c-0.7-0.7-1.2-1.8-1.2-2.8c0-1.1,0.4-2.1,1.2-2.8
					c0.4-0.4,0.8-0.7,1.3-0.9c0.5-0.2,1-0.3,1.5-0.3c0.5,0,1,0.1,1.5,0.3c0.5,0.2,0.9,0.5,1.3,0.9c0.4,0.4,0.7,0.8,0.9,1.3
					C214.4,157.7,214.5,158.2,214.5,158.8z"/>
                <path id="Vector_11" class="st3" d="M183.9,166.7h43.3v-22.7h-43.3 M183.9,166.7v-22.7 M212.8,158.8c0,0.3,0,0.6-0.2,0.9
					c-0.1,0.3-0.3,0.5-0.5,0.8c-0.2,0.2-0.5,0.4-0.7,0.5c-0.3,0.1-0.6,0.2-0.9,0.2s-0.6-0.1-0.9-0.2c-0.3-0.1-0.5-0.3-0.7-0.5
					c-0.2-0.2-0.4-0.5-0.5-0.8c-0.1-0.3-0.2-0.6-0.2-0.9c0-0.6,0.3-1.2,0.7-1.6c0.4-0.4,1-0.6,1.6-0.6c0.6,0,1.2,0.2,1.6,0.6
					C212.5,157.6,212.8,158.2,212.8,158.8z M203.8,150.7c0,0.3-0.1,0.7-0.2,1s-0.3,0.6-0.6,0.9c-0.2,0.2-0.5,0.4-0.9,0.6
					c-0.3,0.1-0.7,0.2-1,0.2c-0.3,0-0.7-0.1-1-0.2c-0.3-0.1-0.6-0.3-0.9-0.6c-0.2-0.2-0.4-0.5-0.6-0.9s-0.2-0.7-0.2-1
					c0-0.7,0.3-1.4,0.8-1.9c0.5-0.5,1.2-0.8,1.9-0.8c0.7,0,1.4,0.3,1.9,0.8S203.8,150,203.8,150.7z M203.4,159.3
					c0,0.9-0.4,1.8-1,2.4s-1.5,1-2.4,1c-0.9,0-1.8-0.4-2.4-1c-0.6-0.6-1-1.5-1-2.4c0-0.9,0.4-1.8,1-2.4c0.6-0.6,1.5-1,2.4-1
					c0.9,0,1.8,0.4,2.4,1S203.4,158.4,203.4,159.3z M179.8,156.4c0,1.9-0.8,3.7-2.1,5.1c-1.3,1.3-3.2,2.1-5.1,2.1
					c-1.9,0-3.7-0.8-5.1-2.1c-1.3-1.3-2.1-3.2-2.1-5.1c0-1.9,0.8-3.7,2.1-5.1c1.3-1.3,3.2-2.1,5.1-2.1c1.9,0,3.7,0.8,5.1,2.1
					C179,152.6,179.8,154.5,179.8,156.4z M150.2,153.5c0,0.9-0.4,1.8-1,2.4s-1.5,1-2.4,1s-1.8-0.4-2.4-1s-1-1.5-1-2.4s0.4-1.8,1-2.4
					s1.5-1,2.4-1s1.8,0.4,2.4,1S150.2,152.6,150.2,153.5z"/>
                <path id="Vector_12" class="st3" d="M149.6,153.5c0,0.8-0.3,1.5-0.8,2c-0.5,0.5-1.3,0.8-2,0.8c-0.8,0-1.5-0.3-2-0.8
					c-0.5-0.5-0.8-1.3-0.8-2c0-0.8,0.3-1.5,0.8-2c0.5-0.5,1.3-0.8,2-0.8c0.8,0,1.5,0.3,2,0.8C149.3,152,149.6,152.7,149.6,153.5z
					 M155.6,152.6c0,0.3-0.1,0.7-0.2,1c-0.1,0.3-0.3,0.6-0.6,0.8c-0.2,0.2-0.5,0.4-0.8,0.6c-0.3,0.1-0.6,0.2-1,0.2s-0.7-0.1-1-0.2
					c-0.3-0.1-0.6-0.3-0.8-0.6c-0.2-0.2-0.4-0.5-0.6-0.8c-0.1-0.3-0.2-0.6-0.2-1c0-0.7,0.3-1.3,0.8-1.8c0.5-0.5,1.1-0.8,1.8-0.8
					c0.7,0,1.3,0.3,1.8,0.8C155.4,151.3,155.6,152,155.6,152.6z"/>
                <path id="Vector_13" class="st3" d="M252.3,16.6v-1h44.4v1 M252.3,16.6h44.4 M252.3,16.6v0.3h44.4v-0.3 M253,15.5l-0.7-3.3
					l0.7-0.1l0.7,3.4L253,15.5 M296,15.5l0.7-3.3l-0.7-0.1l-0.7,3.4L296,15.5 M257.6,103.6h37.8l0-18.9h-37.8L257.6,103.6
					 M169.1,156.3l1.2-0.4l1.5,0.3h1.5l1.5-0.3l1.2,0.4h1.3l1.2-0.4l-2.2,3 M169.1,156.3h-1.3l-1.2-0.4 M166.6,155.8l2.2,3h7.6
					 M176.4,158.8l0,0.3h-7.6v-0.3 M171.7,154.3l0.9-0.1l0,0.2l-0.5,0l1.4,1.1l-0.1,0.2l-0.6-0.5l-0.1,0.1l0.7,0.6l-0.1,0.1
					l-0.7-0.6l-0.1,0.1l0.6,0.5l-0.1,0.1l-0.6-0.5l-0.1,0.1l0.4,0.3l-0.1,0.1l-1.4-1.2 M166.9,33V10.3 M166.9,33h60.3V10.3h-60.3
					 M166.9,33h-54.4V10.3h54.4 M227.2,21.3V22h-60.3 M166.9,22v-0.8h60.3 M142.7,151.3h1v-1.2h12.5v1.2h1 M153.8,160.8v0.5h-9.6
					v-0.5 M153.8,160.8h-0.7 M153.8,160.8l0-0.1 M153.8,160.8L153.8,160.8 M153.1,160.8v0.2h-8.2v-0.2 M153.1,160.8L153.1,160.8
					 M153.1,160.8L153.1,160.8 M144.9,160.8h-0.7 M144.9,160.8L144.9,160.8 M144.9,160.8L144.9,160.8 M144.1,160.8l0-0.1
					 M144.1,160.8L144.1,160.8 M144.2,160.6l0-0.1 M144.3,160.4l0-0.1 M144.4,160.2l0-0.1 M144.5,160l0-0.1 M144.6,159.8l0-0.1
					 M144.7,159.6l0-0.1 M144.8,159.3l0-0.1 M144.9,159.1l0-0.1 M145,158.9l0-0.1 M145.1,158.7l0-0.1 M145.2,158.5l0-0.1
					 M145.3,158.3l0-0.1 M145.4,158.1l0-0.1 M145.5,157.9l0-0.1 M145.6,157.7l0-0.1 M145.7,157.5l0-0.1 M153.7,160.6l0-0.1
					 M153.6,160.4l0-0.1 M153.5,160.2l0-0.1 M153.4,160l0-0.1 M153.3,159.8l0-0.1 M153.2,159.6l0-0.1 M153.1,159.3l0-0.1 M153,159.1
					l0-0.1 M152.9,158.9l0-0.1 M152.8,158.7l0-0.1 M152.7,158.5l0-0.1 M152.6,158.3l0-0.1 M152.6,158.1l0-0.1 M152.5,157.9l0-0.1
					 M152.4,157.7l0-0.1 M152.3,157.5l0-0.1 M144.3,160.8h0.1 M144.6,160.8h0.1 M145,160.6L145,160.6 M145.1,160.5L145.1,160.5
					 M145.3,160.3L145.3,160.3 M145.4,160.1L145.4,160.1 M145.6,159.9L145.6,159.9 M145.7,159.8L145.7,159.8 M145.8,159.6
					L145.8,159.6 M146,159.4L146,159.4 M146.1,159.2L146.1,159.2 M146.3,159.1L146.3,159.1 M146.4,158.9L146.4,158.9 M146.6,158.7
					L146.6,158.7 M146.7,158.5L146.7,158.5 M146.8,158.4L146.8,158.4 M147,158.2L147,158.2 M147.1,158L147.1,158 M147.3,157.8
					L147.3,157.8 M147.4,157.7L147.4,157.7 M147.6,157.5L147.6,157.5 M147.7,157.3L147.7,157.3 M147.8,157.1L147.8,157.1 M148,157
					L148,157 M153.6,160.8h-0.1 M153.4,160.8h-0.1 M152.9,160.6L152.9,160.6 M152.8,160.5L152.8,160.5 M152.7,160.3L152.7,160.3
					 M152.5,160.1L152.5,160.1 M152.4,159.9L152.4,159.9 M152.2,159.8L152.2,159.8 M152.1,159.6L152.1,159.6 M151.9,159.4
					L151.9,159.4 M151.8,159.2L151.8,159.2 M151.7,159.1L151.7,159.1 M151.5,158.9L151.5,158.9 M151.4,158.7L151.4,158.7
					 M151.2,158.5L151.2,158.5 M151.1,158.4L151.1,158.4 M150.9,158.2L150.9,158.2 M150.8,158L150.8,158 M150.7,157.8L150.7,157.8
					 M150.5,157.7L150.5,157.7 M150.4,157.5L150.4,157.5 M150.2,157.3L150.2,157.3 M150.1,157.1L150.1,157.1 M149.9,157L149.9,157
					 M136.7,134.6H114v32.1 M114,166.7h24.6v-22.7h-1.9v-9.4 M191.6,89.5l5.2-5.2l1,1l1.1-1.1l0,0l0,0l0.2-0.1l0,0l0,0l0,0l0.2,0
					l0,0l0.3,0.1l0,0l0.3,0.1l0.4,0.2l0,0l0.4,0.3l0.4,0.3l0.4,0.4l0.4,0.4l4.1,4.1l0.4,0.4l0.4,0.4l0.3,0.4l0.3,0.4l0,0l0.2,0.4
					l0.1,0.3l0,0l0.1,0.3l0,0l0,0.2l0,0l0,0l0,0l-0.1,0.2l0,0l0,0l-1.1,1.1l1,1l-5.2,5.2 M197.1,86l9.1,9.1 M197.3,86.1l0.9-0.9
					c0.4-0.4,1.7,0.4,3,1.7l4.1,4.1 M206.1,94.9L207,94 M202.2,99l4.7-4.7 M193.1,90l4.7-4.7 M205.3,91c1.3,1.3,2.1,2.6,1.7,3
					 M177,124.2L177,124.2L177,124.2l-0.2,0.1l0,0l0,0l0,0l-0.2,0l0,0l-0.3-0.1l0,0l-0.3-0.1l-0.4-0.2l0,0l-0.4-0.3l-0.4-0.3
					l-0.4-0.4l-0.4-0.4l-4.1-4.1l-0.4-0.4l-0.4-0.4l-0.3-0.4l-0.3-0.4l0,0l-0.2-0.4l-0.1-0.3l0,0l-0.1-0.3l0,0l0-0.2l0,0l0,0l0,0
					l0.1-0.2l0,0l0,0 M177,124.2l1.1-1.1l1,1l5.2-5.2 M173.3,107.8l-5.2,5.2l1,1l-1.1,1.1 M178.8,122.4l-9.1-9.1 M178.7,122.3
					l-0.9,0.9 M169.9,113.5l-0.9,0.9 M173.8,109.4l-4.7,4.7 M182.8,118.4l-4.7,4.7 M174.8,121.5l-4.1-4.1c-1.3-1.3-2.1-2.6-1.7-3
					 M177.8,123.2c-0.4,0.4-1.7-0.4-3-1.7 M173.8,85.9l-4.1,4.1l-0.4,0.4l-0.4,0.4l-0.3,0.4l-0.3,0.4l0,0l-0.2,0.4l-0.1,0.3l0,0
					l-0.1,0.3 M167.8,92.7L167.8,92.7l0,0.2l0,0 M167.8,93L167.8,93L167.8,93l0.1,0.2l0,0 M168,93.2L168,93.2l1.1,1.1l-1,1
					 M168.1,95.4l5.2,5.2 M184.4,89.5l-5.2-5.2l-1,1l4.7,4.7 M178.2,85.3l-1.1-1.1l0,0 M177,84.2L177,84.2l-0.2-0.1l0,0 M176.8,84.1
					L176.8,84.1 M176.8,84.1L176.8,84.1l-0.2,0 M176.5,84.1L176.5,84.1l-0.3,0.1l0,0l-0.3,0.1 M175.9,84.3l-0.4,0.2l0,0l-0.4,0.3
					l-0.4,0.3 M174.6,85.1l-0.4,0.4l-0.4,0.4 M169.8,95.1l9.1-9.1 M169.9,94.9L169,94c-0.4-0.4,0.4-1.7,1.7-3 M178.7,86.1l-0.9-0.9
					 M173.8,99l-4.7-4.7 M170.7,91l4.1-4.1c1.3-1.3,2.6-2.1,3-1.7 M202.7,107.8l5.2,5.2l-1,1l1.1,1.1l0,0l0,0l0.1,0.2l0,0l0,0l0,0
					l0,0.2l0,0L208,116l0,0l-0.1,0.3l-0.2,0.4l0,0l-0.3,0.4l-0.3,0.4l-0.4,0.4l-0.4,0.4l-4.1,4.1l-0.4,0.4l-0.4,0.4l-0.4,0.3
					l-0.4,0.3l0,0l-0.4,0.2l-0.3,0.1l0,0l-0.3,0.1l0,0l-0.2,0l0,0l0,0l0,0l-0.2-0.1l0,0l0,0l-1.1-1.1l-1,1l-5.2-5.2 M206.2,113.4
					l-9.1,9.1 M206.1,113.5l0.9,0.9c0.4,0.4-0.4,1.7-1.7,3l-4.1,4.1c-1.3,1.3-2.6,2.1-3,1.7 M197.3,122.3l0.9,0.9 M193.1,118.4
					l4.7,4.7 M202.2,109.4l4.7,4.7 M154.5,152.6c0,0.4-0.2,0.8-0.4,1c-0.3,0.3-0.6,0.4-1,0.4c-0.4,0-0.8-0.2-1-0.4
					c-0.3-0.3-0.4-0.6-0.4-1c0-0.4,0.2-0.8,0.4-1c0.3-0.3,0.6-0.4,1-0.4c0.4,0,0.8,0.2,1,0.4C154.4,151.9,154.5,152.3,154.5,152.6z
					 M262,15.5v-0.8l0.2-0.6l0.4-0.4l0.6-0.2h22.7l0.6,0.2l0.4,0.4l0.2,0.6v0.8H262z M253.7,16.9l-0.7,3.4l-0.7-0.1l0.7-3.3H253.7z
					 M295.2,16.9l0.7,3.4l0.7-0.1l-0.7-3.3H295.2z M24.8,33V10.3h84.6V33H24.8z M109.5,21.3V22H24.8v-0.8H109.5z M32.3,31V12.4H33
					V31H32.3z M34.3,31V12.4H35V31H34.3z M36.3,31V12.4H37V31H36.3z M38.3,31V12.4H39V31H38.3z M42.5,30.9l-2.2-18.5l0.8-0.1
					l2.2,18.5L42.5,30.9z M176.4,159.6h-7.6v-0.3h7.6V159.6z M183.9,144.1h-22.7v22.7h22.7V144.1z M170,31V12.4h0.8V31H170z M172,31
					V12.4h0.8V31H172z M174,31V12.4h0.8V31H174z M176,31V12.4h0.8V31H176z M180.3,30.9L178,12.4l0.8-0.1l2.2,18.5L180.3,30.9z
					 M203.1,104.2c0,8.3-6.8,15.1-15.1,15.1c-8.3,0-15.1-6.8-15.1-15.1c0-8.3,6.8-15.1,15.1-15.1C196.3,89.1,203.1,95.9,203.1,104.2
					z"/>
			</g>
            <g id="walls">
				<path id="Vector_14" class="st5" d="M339.4,50.6h-15.5v83.1 M339.4,50.6h1.9 M339.4,50.6v2.8l0.9,0 M341.2,50.6h5.7v83.1
					 M341.2,50.6v3.8 M339.4,133.7h-15.5 M339.4,133.7h1.9 M339.4,133.7v-3.8 M323.9,133.7h23.1 M346.9,133.7h-5.7 M341.2,133.7
					v-3.8 M339.4,129.9h1.9 M339.4,129.9V80.8 M341.2,129.9V80.8 M341.2,80.8v-1.9V77V54.3 M341.2,80.8h-1.9 M339.4,80.8v-1.9v-0.9
					h0.9 M340.3,129.9V80.8 M340.3,77.9V77l0.9,0 M340.3,77.9v-2.8V56.2 M340.3,77.9h-1.9v-2.8 M341.2,54.3h-0.9 M340.3,54.3v-0.9
					 M340.3,53.4v2.8 M338.4,75.1V56.2 M338.4,75.1h1.9 M338.4,56.2l1.9,0 M338.4,56.2v-2.8l1.9,0 M339.4,75.1V56.2 M0.2,74.1
					c6,2.2,9.1,2.9,15.6,3.2"/>
                <path id="Vector_15" class="st6" d="M0.1,74l1.4,0.6l15.8-36.4v-0.5h-1.5L0.1,74z"/>
                <path id="Vector_16" class="st5" d="M76.8,97.3c-1.4-3.9-1.7-5.5-2-9.6"/>
                <path id="Vector_17" class="st6" d="M76.8,97.4l22.3-9.7l0-1.5h-0.5L76.2,96L76.8,97.4z"/>
                <path id="Vector_18" class="st7" d="M346.9,177.7H190.6v-11h133.3v-33.1h23L346.9,177.7L346.9,177.7z M15.7,177.7V77.3h1.5v-0.5
					h7.6c0,33.7-0.2,67.4-0.2,100.9H15.7z M346.9,0.1v50.4h-23.1V0.1H346.9z M24.8,38.3h-7.6v-0.5h-1.5V0.1h8.9
					C24.6,12.9,24.8,25.4,24.8,38.3z"/>
                <path id="Vector_19" class="st8" d="M24.6,166.7h26.6V138H24.8v-3h29.5v3l0,16.2h56.7V87.8H99.2v-1.5h-0.5v-1.5h37.9v3H114v79
					h76.6v11h-166L24.6,166.7z M73.8,84.7h-49v3h50v-1.5h0.5v-1.5L73.8,84.7z M54.3,166.7h56.7v-9.5H54.3V166.7z M112.4,10.3V33h-3
					V10.3H24.6V0.1h299.2v10.2H112.4z"/>
                <g id="Group">
					<path id="Vector_20" class="st9" d="M29,0l-4.3,3.8 M36.4,0L24.9,10.2 M43.9,0L32.3,10.2 M51.3,0L39.7,10.2 M58.7,0L47.1,10.2
						 M66.1,0L54.5,10.2 M73.6,0L62,10.2 M81,0L69.4,10.2 M88.4,0L76.8,10.2 M95.8,0L84.2,10.2 M103.2,0L91.6,10.2 M110.7,0
						L99.1,10.2 M118.1,0l-11.6,10.2 M125.5,0l-11.6,10.2 M112.5,11.4l-3,2.7 M29.4,84.6l-3.4,3 M132.9,0l-11.6,10.2 M112.5,17.9
						l-3,2.7 M36.8,84.6l-3.4,3 M140.3,0l-11.6,10.2 M112.5,24.5l-3,2.7 M44.3,84.6l-3.4,3 M147.8,0l-11.6,10.2 M112.5,31l-2.1,1.8
						 M51.7,84.6l-3.4,3 M155.2,0l-11.6,10.2 M59.1,84.6l-3.4,3 M162.6,0L151,10.2 M66.5,84.6l-3.4,3 M170,0l-11.6,10.2 M74,84.6
						l-3.4,3 M177.5,0l-11.6,10.2 M184.9,0l-11.6,10.2 M31.8,134.9l-3.4,3 M192.3,0l-11.6,10.2 M39.2,134.9l-3.4,3 M199.7,0
						l-11.6,10.2 M103.6,84.6l-3.4,3 M46.6,134.9l-3.4,3 M207.1,0l-11.6,10.2 M54,134.9l-3.4,3 M111.1,84.6l-3.4,3 M214.6,0
						L203,10.2 M114,88.5l-3,2.7 M114,93.5l-3,2.7 M114,98.5l-3,2.7 M114,103.5l-3,2.7 M114,108.5l-3,2.7 M114,113.5l-3,2.7
						 M114,118.5l-3,2.7 M114,123.5l-3,2.7 M114,128.5l-3,2.7 M114,133.5l-3,2.7 M25.4,166.6l-0.7,0.6 M54.3,141.1l-3,2.7
						 M118.5,84.6l-3.4,3 M222,0l-11.6,10.2 M54.3,147.6l-3,2.7 M32.8,166.6l-8.1,7.1 M125.9,84.6l-3.4,3 M229.4,0l-11.6,10.2
						 M133.3,84.6l-3.4,3 M40.2,166.6l-12.4,11 M54.5,154l-3.2,2.8 M236.8,0l-11.6,10.2 M61.9,154l-3.4,3 M54.3,160.7l-3,2.7
						 M47.7,166.6l-12.4,11 M244.3,0l-11.6,10.2 M69.3,154l-3.4,3 M55.1,166.6l-12.4,11 M251.7,0l-11.6,10.2 M76.8,154l-3.4,3
						 M83.8,154l-3.4,3 M90.8,154l-3.4,3 M97.8,154l-3.4,3 M62.5,166.6l-12.5,11 M259.1,0l-11.6,10.2 M69.9,166.6l-12.4,11 M266.5,0
						l-11.6,10.2 M77.4,166.6l-12.4,11 M274,0l-11.6,10.2 M84.8,166.6l-12.4,11 M114,140.8l-3,2.7 M281.4,0l-11.6,10.2 M106.5,154
						l-3.4,3 M92.2,166.6l-12.4,11 M114,147.4l-3,2.7 M288.8,0l-11.6,10.2 M99.6,166.6l-12.4,11 M114,153.9l-3.6,3.2 M296.2,0
						l-11.6,10.2 M107.1,166.6l-12.4,11 M114,160.4l-3,2.7 M303.6,0L292,10.2 M114.5,166.6l-12.4,11 M311.1,0l-11.6,10.2
						 M121.9,166.6l-12.5,11 M318.5,0l-11.6,10.2 M129.3,166.6l-12.4,11 M323.9,1.7l-9.6,8.5 M136.7,166.6l-12.4,11 M323.9,8.2
						l-2.2,1.9 M144.2,166.6l-12.4,11 M151.6,166.6l-12.4,11 M159,166.6l-12.4,11 M166.4,166.6l-12.4,11 M173.9,166.6l-12.4,11
						 M181.3,166.6l-12.4,11 M188.7,166.6l-12.4,11 M190.7,171.4l-7,6.2"/>
				</g>
                <path id="Vector_21" class="st10" d="M24.6,166.7h26.6V138H24.8v-3h29.5v3l0,16.2h56.7V87.8H99.2v-1.5h-0.5v-1.5h37.9v3H114v79
					h76.6v11h-166L24.6,166.7z M73.8,84.7h1.5v1.5h-0.5v1.5h-0.7H24.8v-3H73.8z M54.3,166.7h56.7v-9.5H54.3V166.7z M112.4,10.3V33
					h-3V10.3H24.6V0.1h299.2v10.2H112.4z"/>
			</g>
		</g>
            <g id="sizes">
			<g id="sizes_3_">
				<path id="Vector_22" d="M290.9,41h-1.6v-9.6l-1.6,1v-1.6l1.6-1.1h1.6V41z M294.7,40.7c-0.5-0.3-0.9-0.7-1.1-1.2
					c-0.2-0.5-0.4-1.1-0.4-1.9v0c0-0.4,0.1-0.9,0.1-1.3c0.1-0.6,0.3-1.1,0.5-1.6l0.1-0.2l2.5-4.9h1.7l-2.9,5.7l0-0.3
					c0.1-0.2,0.3-0.4,0.6-0.6s0.5-0.2,0.9-0.2c0.6,0,1.1,0.1,1.5,0.4s0.7,0.7,1,1.2s0.3,1.1,0.3,1.8v0c0,0.7-0.1,1.4-0.4,1.9
					c-0.2,0.5-0.6,0.9-1.1,1.2c-0.5,0.3-1,0.4-1.7,0.4S295.1,41,294.7,40.7z M297.5,39.1c0.3-0.3,0.4-0.8,0.4-1.3v0
					c0-0.6-0.1-1.1-0.4-1.5c-0.3-0.3-0.7-0.5-1.2-0.5c-0.5,0-0.8,0.2-1.1,0.5c-0.3,0.3-0.4,0.8-0.4,1.5v0c0,0.6,0.1,1,0.4,1.3
					c0.3,0.3,0.7,0.5,1.2,0.5C296.9,39.6,297.3,39.4,297.5,39.1z M301.5,39.4h1.6V41l-1.6,1.6V39.4z M309.3,35.4l0,0.3
					c-0.1,0.2-0.3,0.4-0.6,0.5c-0.3,0.1-0.6,0.2-0.9,0.2c-0.5,0-1-0.1-1.4-0.4c-0.4-0.3-0.7-0.7-1-1.2c-0.2-0.5-0.3-1.1-0.3-1.7v0
					c0-0.7,0.1-1.4,0.4-1.9c0.2-0.5,0.6-0.9,1.1-1.2c0.5-0.3,1-0.4,1.7-0.4c0.7,0,1.2,0.1,1.7,0.4c0.5,0.3,0.9,0.7,1.1,1.2
					c0.2,0.5,0.4,1.2,0.4,1.9v0c0,0.4-0.1,0.8-0.2,1.3c-0.1,0.5-0.3,0.9-0.4,1.4l-0.1,0.2c0,0.1-0.1,0.1-0.1,0.2l-2.4,4.9h-1.7
					L309.3,35.4z M309.4,34.4c0.3-0.3,0.4-0.8,0.4-1.4v0c0-0.6-0.1-1.1-0.4-1.4c-0.3-0.3-0.7-0.5-1.2-0.5c-0.5,0-0.9,0.2-1.2,0.5
					c-0.3,0.3-0.4,0.8-0.4,1.4v0c0,0.6,0.1,1.1,0.4,1.4c0.3,0.3,0.7,0.5,1.2,0.5C308.7,34.9,309.1,34.7,309.4,34.4z"/>
                <g id="Group_2">
					<path id="Vector_23" d="M141.3,139.7c-0.5-0.3-0.9-0.7-1.1-1.2c-0.2-0.5-0.4-1.1-0.4-1.9v0c0-0.4,0.1-0.9,0.1-1.3
						c0.1-0.6,0.3-1.1,0.5-1.6l0.1-0.2l2.5-4.9h1.7l-2.9,5.7l0-0.3c0.1-0.2,0.3-0.4,0.6-0.6c0.2-0.1,0.5-0.2,0.9-0.2
						c0.6,0,1.1,0.1,1.5,0.4c0.4,0.3,0.7,0.7,1,1.2c0.2,0.5,0.3,1.1,0.3,1.8v0c0,0.7-0.1,1.4-0.4,1.9c-0.2,0.5-0.6,0.9-1.1,1.2
						c-0.5,0.3-1,0.4-1.7,0.4C142.4,140.1,141.8,139.9,141.3,139.7z M144.2,138.1c0.3-0.3,0.4-0.8,0.4-1.3v0c0-0.6-0.1-1.1-0.4-1.5
						c-0.3-0.3-0.7-0.5-1.2-0.5c-0.5,0-0.8,0.2-1.1,0.5c-0.3,0.3-0.4,0.8-0.4,1.5v0c0,0.6,0.1,1,0.4,1.3c0.3,0.3,0.7,0.5,1.2,0.5
						C143.6,138.5,143.9,138.4,144.2,138.1z M148.2,138.4h1.6v1.6l-1.6,1.6V138.4z M152.8,139.2c-0.6-0.6-0.8-1.4-0.8-2.4v-5.2
						c0-1,0.3-1.8,0.8-2.4c0.6-0.6,1.4-0.8,2.4-0.8c1.1,0,1.9,0.3,2.4,0.8c0.6,0.6,0.8,1.4,0.8,2.4v5.2c0,1-0.3,1.8-0.8,2.4
						s-1.4,0.8-2.4,0.8C154.1,140.1,153.3,139.8,152.8,139.2z M156.4,138.1c0.3-0.3,0.4-0.7,0.4-1.3v-5.2c0-0.6-0.1-1-0.4-1.3
						c-0.3-0.3-0.7-0.4-1.2-0.4s-1,0.1-1.2,0.4c-0.3,0.3-0.4,0.7-0.4,1.3v5.2c0,0.6,0.1,1,0.4,1.3c0.3,0.3,0.7,0.4,1.2,0.4
						S156.2,138.4,156.4,138.1z"/>
				</g>
                <g id="Group_3">
					<path id="Vector_24" d="M87.4,119l-0.7-0.3c-0.5-0.2-0.9-0.6-1.2-1c-0.3-0.4-0.5-1-0.6-1.6h1.6c0,0.3,0.1,0.6,0.3,0.8
						c0.2,0.2,0.4,0.4,0.6,0.5c0.2,0.1,0.5,0.2,0.9,0.2c0.5,0,0.9-0.1,1.2-0.4s0.4-0.7,0.4-1.2v-0.3c0-0.6-0.1-1-0.4-1.3
						s-0.7-0.5-1.2-0.5h-0.8v-1.5h0.8c0.4,0,0.8-0.1,1-0.4c0.2-0.3,0.4-0.6,0.4-1.1v-0.4c0-0.4-0.1-0.8-0.4-1
						c-0.3-0.2-0.6-0.4-1.1-0.4c-0.3,0-0.5,0.1-0.7,0.2c-0.2,0.1-0.4,0.3-0.5,0.5c-0.1,0.2-0.3,0.5-0.3,0.8h-1.6
						c0.1-0.6,0.3-1.2,0.6-1.6c0.3-0.4,0.7-0.8,1.1-1c0.4-0.2,1-0.3,1.5-0.3c1,0,1.7,0.3,2.3,0.8c0.5,0.5,0.8,1.2,0.8,2.2v0.2
						c0,0.6-0.2,1.1-0.5,1.5c-0.3,0.4-0.7,0.7-1.3,0.9c0.6,0.1,1.1,0.4,1.4,0.9c0.3,0.5,0.5,1.1,0.5,1.8v0.2c0,0.7-0.1,1.2-0.4,1.7
						c-0.3,0.5-0.6,0.8-1.1,1.1c-0.5,0.2-1.1,0.4-1.8,0.4L87.4,119z M93.7,117.3h1.6v1.6l-1.6,1.6V117.3z M97.3,115.7l3.8-8.2h1.6
						l-3.7,8.1h5.6v1.5h-7.3V115.7z M102.2,112.2h1.6v6.7h-1.6V112.2z"/>
				</g>
                <g id="Group_4">
					<path id="Vector_25" d="M29.3,43.3l3.8-8.2h1.6l-3.7,8.1h5.6v1.5h-7.3L29.3,43.3L29.3,43.3z M34.2,39.7h1.6v6.7h-1.6V39.7z
						 M38.4,44.8H40v1.6L38.4,48V44.8z M42.1,43.3l3.8-8.2h1.6l-3.7,8.1h5.6v1.5h-7.3V43.3z M47,39.7h1.6v6.7H47V39.7z"/>
				</g>
			</g>
		</g>
	</g>
</g>
</svg>