<svg version="1.1" id="_x31_47_1_" xmlns="http://www.w3.org/2000/svg" x="0" y="0" viewBox="0 0 359.686 458.134" xml:space="preserve"><style>.st1{fill-rule:evenodd;clip-rule:evenodd;stroke-width:.4}.st1,.st2{fill:none;stroke:#999;stroke-linecap:round;stroke-linejoin:round;stroke-miterlimit:3}.st2,.st4,.st5,.st7,.st8{fill-rule:evenodd;clip-rule:evenodd}.st5,.st7,.st8{fill:none}.st5{stroke:#000;stroke-linecap:round;stroke-linejoin:round;stroke-miterlimit:3}.st7,.st8{stroke-miterlimit:22.9256}.st7{stroke-linecap:round;stroke-linejoin:round;stroke:#000}.st8{stroke:#666;stroke-width:.6}</style><path fill-rule="evenodd" clip-rule="evenodd" fill="#fff" d="M41.849.555v193.019H.266v121h41.583v143.114h243.417V333.574h73.164V.555z"/><g id="mebel_5_"><path class="st1" d="M212.576 422.439h30.229m-30.229-11.336h60.081m-60.081-11.335h60.081m-60.081-11.337h39.88M212.576 377.096h60.081m-5.102 35.141v-14.728m0-11.732v-11.704m-22.671 38.164v-38.164M222.212 431.68v-57.607M265.099 254.479l3.022-3.022m-9.968 3.022l9.968-9.968m-16.916 9.968l16.916-16.916m-23.862 16.916l23.862-23.862m-30.81 23.862l30.81-30.809m-37.756 30.809l37.756-37.756m-44.702 37.756l44.703-44.703m-51.651 44.703l51.651-51.65m-56.304 49.356l37.346-37.346m9.307-9.307l9.651-9.651m-56.309 49.362l34.219-34.219m11.775-11.775l4.85-4.851m-50.85 43.904l33.763-33.764m-33.768 26.822l34.588-34.589m-34.593 27.647l20.572-20.572m3.445-3.445l6.003-6.003m-30.026 23.079l13.631-13.631m-13.636 6.689l6.689-6.689m-6.694-.252l.085-.085m56.255-3.346l-5.764-5.765m5.764 12.711l-10.604-10.604m10.604 17.551l-9.784-9.784m9.784 16.732l-10.165-10.165m-11.804-11.806l-4.636-4.635m26.605 33.552l-13.181-13.181m-9.452-9.452l-9.674-9.674m32.307 39.255l-32.307-32.307m32.307 39.253l-37.999-37.999m37.999 44.946l-44.946-44.946m43.687 50.634l-50.634-50.633m43.687 50.633l-48.132-48.132m41.185 48.132l-41.18-41.18m34.233 41.18l-34.227-34.228m27.28 34.228l-27.275-27.275m20.328 27.275l-20.323-20.323m13.376 20.323l-13.37-13.371m6.423 13.371l-6.418-6.418"/><path class="st2" d="M156.842 97.665v3.142m0-.001h.858m0 0h17.176m0 0h.859m0 0v-3.142M175.735 104.233v-3.427m0 0h-.859m0 0v3.225m0 0h.058m0 0l.293-.197m0 0l.343.087m0 0l.165.312M174.934 106.592l.293-.196m-.001 0l.343.086m0 0l.165.313m.001 0v-2.562m0 0l-.165-.313m-.001 0l-.343-.086m0 0l-.293.196m.001 0h-17.291m0 0l-.293-.196m-.001 0l-.343.086m0 0l-.165.313m0 0v2.562m0 0l.165-.313m0 0l.343-.086m0 0l.293.196m.001 0h17.291M156.842 104.233l.165-.312m0 0l.342-.087m0 0l.294.197m0 0h.057m0 0v-3.225m0 0h-.858m0 0v3.427M174.071 106.997h-15.565m0 0l1.004.227m0 .001h13.557m0 0l1.004-.227M174.934 106.997l.293.197m-.001.001l.343-.087m0 0l.165-.313m.001 0l-.165-.312m-.001 0l-.343-.087m0 0l-.293.197m.001 0h-17.291m0 0l-.293-.197m-.001 0l-.343.087m0 0l-.165.312m0 0l.165.313m0 0l.343.087m0 0l.293-.197m.001-.001h17.291M134.925 97.665v3.142m0-.001h.859m0 0h17.175m0 0h.86m0 0v-3.142M153.818 104.233v-3.427m0 0h-.859m0 0v3.225m0 0h.057m0 0l.294-.197m0 0l.343.087m0 0l.165.312M153.016 106.592l.294-.196m.001 0l.343.086m0 0l.165.313m0 0v-2.562m0 0l-.165-.313m0 0l-.343-.086m0 0l-.294.196m-.001 0h-17.29m0 0l-.294-.196m.001 0l-.343.086m0 0l-.165.313m0 0v2.562m0 0l.165-.313m0 0l.343-.086m0 0l.294.196m-.001 0h17.29M134.925 104.233l.165-.312m0 0l.343-.087m0 0l.294.197m0 0h.057m0 0v-3.225m0 0h-.859m0 0v3.427M152.154 106.997h-15.565m0 0l1.004.227m0 .001h13.556m0 0l1.005-.227M153.016 106.997l.294.197m.001.001l.343-.087m0 0l.165-.313m0 0l-.165-.312m0 0l-.343-.087m0 0l-.294.197m-.001 0h-17.29m0 0l-.294-.197m.001 0l-.343.087m0 0l-.165.312m0 0l.165.313m0 0l.343.087m0 0l.294-.197m-.001-.001h17.29M156.842 63.657v-2.915m0 0h.858m0 0h17.176m0 0h.859m0 0v2.915M175.735 57.315v3.427m0 0h-.859m0 0v-3.225m0 0h.058m0 0l.293.197m0 0l.343-.087m0 0l.165-.312M174.934 54.956l.293.196m-.001 0l.343-.086m0 0l.165-.313m.001 0v2.562m0 0l-.165.312m-.001 0l-.343.087m0 0l-.293-.196m.001 0h-17.291m0 0l-.293.196m-.001 0l-.343-.087m0 0l-.165-.312m0 0v-2.562m0 0l.165.313m0 0l.343.086m0 0l.293-.196m.001 0h17.291M156.842 57.315l.165.312m0 0l.342.087m0 0l.294-.197m0 0h.057m0 0v3.225m0 0h-.858m0 0v-3.427M174.071 54.55h-15.565m0 0l1.004-.227m0 0h13.557m0 0l1.004.227M174.934 54.55l.293-.197m-.001 0l.343.087m0 0l.165.313m.001 0l-.165.312m-.001 0l-.343.087m0 0l-.293-.197m.001 0h-17.291m0 0l-.293.197m-.001 0l-.343-.087m0 0l-.165-.312m0 0l.165-.313m0 0l.343-.087m0 0l.293.197m.001 0h17.291M134.925 63.657v-2.915m0 0h.859m0 0h17.175m0 0h.86m0 0v2.915M153.818 57.315v3.427m0 0h-.859m0 0v-3.225m0 0h.057m0 0l.294.197m0 0l.343-.087m0 0l.165-.312M153.016 54.956l.294.196m.001 0l.343-.086m0 0l.165-.313m0 0v2.562m0 0l-.165.312m0 0l-.343.087m0 0l-.294-.196m-.001 0h-17.29m0 0l-.294.196m.001 0l-.343-.087m0 0l-.165-.312m0 0v-2.562m0 0l.165.313m0 0l.343.086m0 0l.294-.196m-.001 0h17.29M134.925 57.315l.165.312m0 0l.343.087m0 0l.294-.197m0 0h.057m0 0v3.225m0 0h-.859m0 0v-3.427M152.154 54.55h-15.565m0 0l1.004-.227m0 0h13.556m0 0l1.005.227M153.016 54.55l.294-.197m.001 0l.343.087m0 0l.165.313m0 0l-.165.312m0 0l-.343.087m0 0l-.294-.197m-.001 0h-17.29m0 0l-.294.197m.001 0l-.343-.087m0 0l-.165-.312m0 0l.165-.313m0 0l.343-.087m0 0l.294.197m-.001 0h17.29M131.901 97.665v3.142m0-.001h-.858m0 0h-17.176m0 0h-.859m0 0v-3.142M113.009 104.233v-3.427m0 0h.858m0 0v3.225m0 0h-.057m0 0l-.294-.197m0 0l-.342.087m0 0l-.165.312M113.81 106.592l-.293-.196m-.001 0l-.343.086m0 0l-.165.313m.001 0v-2.562m0 0l.165-.313m-.001 0l.343-.086m0 0l.293.196m.001 0h17.291m0 0l.293-.196m-.001 0l.343.086m0 0l.165.313m0 0v2.562m0 0l-.165-.313m0 0l-.343-.086m0 0l-.293.196m.001 0H113.81M131.901 104.233l-.165-.312m0 0l-.342-.087m0 0l-.294.197m0 0h-.057m0 0v-3.225m0 0h.858m0 0v3.427M114.672 106.997h15.565m0 0l-1.004.227m0 .001h-13.557m0 0l-1.004-.227M113.81 106.997l-.293.197m-.001.001l-.343-.087m0 0l-.165-.313m.001 0l.165-.312m-.001 0l.343-.087m0 0l.293.197m.001 0h17.291m0 0l.293-.197m-.001 0l.343.087m0 0l.165.312m0 0l-.165.313m0 0l-.343.087m0 0l-.293-.197m.001-.001H113.81M131.901 63.657v-2.915m0 0h-.858m0 0h-17.176m0 0h-.859m0 0v2.915M113.009 57.315v3.427m0 0h.858m0 0v-3.225m0 0h-.057m0 0l-.294.197m0 0l-.342-.087m0 0l-.165-.312M113.81 54.956l-.293.196m-.001 0l-.343-.086m0 0l-.165-.313m.001 0v2.562m0 0l.165.312m-.001 0l.343.087m0 0l.293-.196m.001 0h17.291m0 0l.293.196m-.001 0l.343-.087m0 0l.165-.312m0 0v-2.562m0 0l-.165.313m0 0l-.343.086m0 0l-.293-.196m.001 0H113.81M131.901 57.315l-.165.312m0 0l-.342.087m0 0l-.294-.197m0 0h-.057m0 0v3.225m0 0h.858m0 0v-3.427M114.672 54.55h15.565m0 0l-1.004-.227m0 0h-13.557m0 0l-1.004.227M113.81 54.55l-.293-.197m-.001 0l-.343.087m0 0l-.165.313m.001 0l.165.312m-.001 0l.343.087m0 0l.293-.197m.001 0h17.291m0 0l.293.197m-.001 0l.343-.087m0 0l.165-.312m0 0l-.165-.313m0 0l-.343-.087m0 0l-.293.197m.001 0H113.81M333.029 33.76v94.466m0 0h15.2m0 0V33.76m0 0h-15.2M333.785 33.76v94.466M333.029 80.993h.756M333.029 33.76h.756M268.121 188.353v66.126m0 0h27.962m0 0v-66.126m0 0h-27.962M293.847 196.067l-.085-.957m0 0l-.252-.927m0 .001l-.413-.871m0-.001l-.559-.787m0 0l-.689-.679m0 0l-.798-.551m0 0l-.884-.406m0 0l-.942-.248m0 0l-.97-.084m0 0h-12.304m0 0l-.971.084m0 0l-.942.248m0 0l-.883.406m0 0l-.798.551m0 0l-.69.679m0 0l-.559.787m0 0l-.412.871m-.001.001l-.252.927m.001-.001l-.085.957m0 0v44.635m0 0l.178 2.01m-.001 0l.53 1.948m.001 0l.865 1.828m0 0l1.175 1.653m0 0l1.447 1.426m-.001 0l1.677 1.157m0 .001l1.855.852m.001-.001l1.978.523m0 0l2.039.176m0 0l2.039-.176m0 0l1.977-.523m0 0l1.856-.852m0 .001l1.677-1.157m0-.001l1.447-1.426m0 0l1.175-1.653m0 0l.865-1.828m0 0l.529-1.948m0 0l.179-2.01m0 0v-44.635M283.047 197.421a.945.945 0 11-1.89 0 .945.945 0 011.89 0zM245.566 209.389l.468 1.645m0 0l.719 1.552m0 0l.967 1.23m0 0l1.249.942m0 0l1.448.594m0 0l1.551.206m0 0l1.551-.206m0 0l1.447-.594m0 0l1.249-.942m0 0l.967-1.23m0 0l.719-1.552m0 0l.468-1.645m0 0l.208-1.698m0 0l-.059-1.709m0 0l-1.223-11.585m0 0h-10.654m0 0l-1.223 11.585m0 0l-.06 1.709m0 0l.208 1.698M256.084 200.119h-4.115M251.968 200.119h-4.117M255.032 214.386a5.734 5.734 0 01-3.063.886M258.28 207.556c.165 2.592-1.031 5.106-3.248 6.83M256.084 200.119c1.505 2.252 2.266 4.828 2.195 7.437M245.656 207.556c-.07-2.609.69-5.185 2.195-7.437M248.904 214.386c-2.217-1.723-3.413-4.238-3.248-6.83M251.968 215.272a5.734 5.734 0 01-3.064-.886M256.616 194.398h-9.295m0 0v.189m0 0h9.295m0 0v-.189M242.521 194.398h18.893M242.521 189.863h18.893M242.521 194.398v-4.535M261.414 194.398v-4.535M235.248 188.351h-22.911m-.001 0l-.4.166m.001 0l-.167.401m0 0v14.361m0 0l.167.401m0 0l.4.166m-.001 0h22.911m.001 0l.401-.166m0 0l.166-.401m-.001 0v-14.361m0 0l-.166-.401m.001 0l-.401-.166M234.114 192.508h-9.869m-.906 0h-9.869M212.904 193.074v9.071M213.471 202.712h20.644M234.681 202.145v-9.07M212.904 193.074c0-.313.253-.566.566-.566M213.471 202.712a.566.566 0 01-.566-.567M234.681 202.145a.567.567 0 01-.566.567M234.114 192.508c.312 0 .566.253.566.566M224.548 195.6a.755.755 0 01-.303.605v-1.21a.754.754 0 01.303.605zm-1.209.605a.755.755 0 010-1.209v1.209zM223.339 188.88h.907m0 0v7.748m0 0l-.256.301m0 0h-.395m0 0l-.256-.301m0 0v-7.748M224.548 188.88h-1.512m0 0v-.265m0 0h1.512m0 0v.265M224.926 188.616h-2.268m0 0v-.265m0 0h2.268m0 0v.265M227.061 190.241v-1.625m0 0h-.095m0 0v-.132m0 0h-.283m0 0v-.133m0 0h1.889m0 0v.133m0 0h-.283m0 0v.132m0 0h-.095m0 0v1.625m0 0h-.321m0 0v.416m0 0h1.077m0 0v.491m0 0h-2.645m0 0v-.491m0 0h1.077m0 0v-.416m0 0h-.321M220.524 190.241v-1.625m0 0h.094m0 0v-.132m0 0h.284m0 0v-.133m0 0h-1.889m0 0v.133m0 0h.283m0 0v.132m0 0h.094m0 0v1.625m0 0h.322m0 0v.416m0 0h-1.077m0 0v.491m0 0h2.645m0 0v-.491m0 0h-1.077m0 0v-.416m0 0h.321M227.873 190.656l-.072.072M227.382 190.656l.072.072M227.873 190.241h-.491M228.194 188.616h-1.133M226.966 188.483h1.323M219.711 190.656l.072.072M220.203 190.656l-.072.072M219.711 190.241h.491M219.39 188.616h1.134M220.618 188.483h-1.322M227.873 190.902a.246.246 0 11-.491 0 .246.246 0 01.491 0zM220.203 190.902a.246.246 0 11-.492 0 .246.246 0 01.492 0zM257.664 398.045l-1.645-.468m.001 0l-1.552-.719m0 0l-1.23-.967m0 0l-.943-1.249m-.001 0l-.593-1.448m0 0l-.206-1.551m0 0l.206-1.551m0 0l.593-1.447m0 0l.943-1.249m.001 0l1.23-.967m0 0l1.552-.719m0 0l1.645-.469m-.001 0l1.697-.207m.001 0l1.71.059m-.001 0l11.585 1.223m0 0v10.654m0 0l-11.585 1.223m0 0l-1.71.06m.001 0l-1.697-.208M266.935 387.527v4.116M266.935 391.643v4.117M251.781 391.643a5.743 5.743 0 01.887-3.063M252.668 388.579c1.723-2.217 4.238-3.413 6.83-3.248M259.498 385.332c2.609-.07 5.185.689 7.437 2.195M266.935 395.76c-2.252 1.505-4.828 2.266-7.437 2.195M259.498 397.955c-2.591.165-5.107-1.031-6.83-3.249M252.668 394.707a5.743 5.743 0 01-.887-3.063M272.656 386.996v9.295m0 0h-.189m0 0v-9.295m0 0h.189M272.656 401.09v-18.893M277.19 401.09v-18.893M272.656 401.09h4.534M272.656 382.197h4.534M277.19 412.237h-34.386M242.805 412.237v34.386M271.522 440.01a.945.945 0 11-1.89-.001.945.945 0 011.89.001zM261.48 433.639l1.396-.372m0 0l1.209-.793m0 0l.898-1.133m.001 0l.496-1.358m0 0l.043-1.445m-.001 0l-.413-1.384m0 0l-.829-1.185m.001 0l-1.158-.863m-.001 0l-1.372-.455m.001 0h-1.446m-.001 0l-1.372.455m0 0l-1.16.863m0 0l-.828 1.185m0 0l-.414 1.384m.001 0l.044 1.445m0 0l.496 1.358m-.001 0l.897 1.133m0 0l1.209.793m0 0l1.397.372m0 0v5.538m0 0l-.455-.108m0 0l-.49-.037m.001 0l-.488.037m-.001 0l-.456.108m0 0l-.392.172m0 0l-.3.225m0 0l-.188.261m0 0l-.065.28m.001 0v.402m0 0l.019.121m0 0l.064.277m-.001 0l.055.104m0 0l.181.251m0 0l.078.07m0 0l.274.205m.001 0l.357.157m-.001 0l.195.051m0 0l.25.06m0 0l.019.688m0 0l.01.796m0 0h-1.729m.001 0v.434m0 0h-2.871m0 0l-.16.059m-.001 0l-.083.149m0 0l.033.166m.001 0l.133.105m-.001 0l.486.158m0 0l.726.315m.001 0l1.007.574m-.001 0l.729.258m.001 0v.125m0 0h-.604m-.001 0v.982m0 0h2.57m0 0v-.878m0 0l.062-.037m0 0l.032-.034m0 0l.026-.041m.001 0l.278-.673m-.001 0h.697m0 0v1.361m0 0h-1.058m0 0v.302m0 0h3.023m0 0v-.302m0 0h-1.058m0 0v-1.361m0 0h1.436m0 0v-.151m0 0h.416m0 0v.303m0 0h-.152m0 0v.529m0 0h-.604m0 0v.982m0 0h2.569m0 0v-.982m0 0h-.604m.001 0v-.529m0 0h-.151m-.001 0v-.303m0 0h.151m.001 0v-1.511m0 0h-2.57m-.001 0v-2.154m0 0h-.082m0 0h-.094m0 0h-.123m0 0h-.15m0 0h-.042m0 0v-7.504M259.138 444.96h.209m-.001 0l-.14.341m.001 0l-.325.053m0-.001l-.009-.001m-.001 0v-.242m0 .001h-.151m.001 0v-.302m0-.001h.416m0 0v.151M257.664 444.809v.241m0 0l-.677-.24m0 0l-.987-.564m0 0l-.053-.022m0 0h1.566m0 0v.585m0 0h.151M263.521 445.64v-.529M264.201 445.64v-.529M257.864 445.64h-.351M258.722 445.111h-.189M258.533 445.111h-.68M257.853 445.111h-.014M258.533 445.287v-.176M257.853 445.116v-.005M257.664 444.809h1.058M260.016 443.297h.557M257.513 444.223v-.492M260.082 442.731h.491M254.717 443.744l-.076-.012M258.866 445.847l.047-.002M258.697 445.815l.169.032M259.411 445.764l.047-.01M259.458 445.754l.02-.01M257.513 445.516l.453.16M257.966 445.676l.731.139M258.822 445.342l.06.011M254.717 443.744l.513.167M255.229 443.911l.717.312M257.924 445.659h.108a.108.108 0 10-.216 0 .108.108 0 00.216 0h-.108zM258.914 445.845l.497-.082M260.571 441.242l.002.002M260.573 441.772l-.002.003M259.138 444.412v.127M259.138 444.657v.104M259.138 444.54v.118M259.347 444.96h.523M258.1 445.203l.722.139M257.664 445.049l.436.154M259.818 444.326h.108a.108.108 0 10-.216 0 .108.108 0 00.216 0h-.108zM259.727 444.371l.091-.044M259.629 444.386l.098-.015M259.531 444.371l.098.015M259.44 444.326l.091.044M259.44 444.326h.108a.108.108 0 10-.216 0 .108.108 0 00.216 0h-.108zM259.284 441.829l.345.027M259.629 441.856l.345-.026M259.213 441.813l.071.017M260.295 441.754l.196-.051M259.974 441.829l.32-.075M259.26 444.159l-.009-.062M260.491 441.702l.083-.037M260.045 441.813l-.019.688M260.007 444.097l-.009.062M259.998 444.159l-.027.058M259.971 444.217l-.042.05M259.93 444.267l-.055.038M259.874 444.305l-.056.021M259.818 444.326l-.007.002M259.811 444.329l-.068.008M259.742 444.337h-.227M259.515 444.337l-.068-.008M259.447 444.329l-.007-.002M259.44 444.326l-.057-.021M259.383 444.305l-.055-.038M259.329 444.267l-.043-.05M259.286 444.217l-.025-.058M260.026 442.501l-.019 1.596M259.241 443.297l.01.801M259.138 443.599h.107M260.013 443.599h.561M261.48 433.639v-5.343M260.573 433.639v-5.343M261.48 428.296h-.907M264.541 445.64h-1.36M264.39 445.111h-1.058M264.39 444.809h-1.058M262.916 444.809V443.6M259.138 443.599v1.209M261.48 446.32h-.907M261.48 444.96v-3.817M260.573 439.177v5.782M262.916 443.599h-1.436M261.972 443.297h-.491M261.972 442.731h-.491M260.082 443.297v-1.493M260.573 430.961a1.888 1.888 0 01-1.38-2.288 1.888 1.888 0 112.287 2.288M262.916 443.683a.34.34 0 110 .589M213.143 446.623h29.096m0 0l.4-.166m0 0l.166-.401m0 0v-13.809m0 0l-.166-.401m0 0l-.4-.166m0 0h-29.096m0 0l-.4.166m0 0l-.167.401m-.001 0v13.809m0 0l.167.401m.001 0l.4.166M214.276 442.466h12.96m.908 0h12.961M241.671 441.899v-8.519M241.104 432.813h-26.827M213.71 433.38v8.52M241.671 441.899a.567.567 0 01-.567.567M241.104 432.813c.313 0 .567.254.567.567M213.71 433.38c0-.313.253-.567.567-.567M214.276 442.466a.567.567 0 01-.567-.567M228.446 439.524a.755.755 0 01-.303.605v-1.21a.755.755 0 01.303.605zm-1.209.605a.755.755 0 010-1.208v1.208zM228.144 446.093h-.907m0 0v-7.748m0 0l.256-.301m-.001 0h.395m.001 0l.256.301m0 0v7.748M226.935 446.093h1.512m0 0v.265m0 0h-1.512m0 0v-.265M226.556 446.358h2.268m0 0v.265m0 0h-2.268m0 0v-.265M224.422 444.733v1.625m0 0h.094m0 0v.132m0 0h.284m0 0v.133m0 0h-1.89m0 0v-.133m0 0h.284m0 0v-.132m0 0h.094m0 0v-1.625m0 0h.322m0 0v-.416m0 0h-1.077m0 0v-.491m0 0h2.645m0 0v.491m0 0h-1.077m0 0v.416m0 0h.321M230.959 444.733v1.625m0 0h-.095m0 0v.132m0 0h-.283m0 0v.133m0 0h1.889m0 0v-.133m0 0h-.283m0 0v-.132m0 0h-.095m0 0v-1.625m0 0h-.321m0 0v-.416m0 0h1.077m0 0v-.491m0 0h-2.645m0 0v.491m0 0h1.077m0 0v.416m0 0h-.321M223.609 444.318l.072-.072M224.101 444.318l-.072-.072M223.609 444.733h.491M223.288 446.358h1.134M224.516 446.49h-1.322M231.771 444.318l-.072-.072M231.28 444.318l.072-.072M231.771 444.733h-.491M232.092 446.358h-1.133M230.864 446.49h1.323M224.101 444.072a.246.246 0 11-.492 0 .246.246 0 01.492 0zM231.771 444.072a.246.246 0 11-.491 0 .246.246 0 01.491 0zM104.696 63.657v34.008m0 0h79.351m0 0V63.657m0 0h-79.351M214.276 44.084h1.889m0 0v73.381m0-.001h-1.889m0 0v-73.38M252.062 44.084v36.69m0 0h-26.45m.001 0v-36.69m0 0h26.45M252.062 80.774v36.69m0 0h-26.45m.001 0v-36.69m0 0h26.45M252.062 117.464v9.598m0 .001h-37.786m.001 0v-9.598m0-.001h1.889m9.447 0h26.45M252.062 34.486v9.598m0 0h-26.45m-9.446 0h-1.889m0 0v-9.598m0 0h37.786M216.166 80.774h9.447m0 0v41.489m0 0h-9.447m0 0V80.774M216.166 80.774h9.447m0 0V39.285m0 0h-9.447m0 0v41.489M184.236 165.492h-19.271m0 0l-.535.221m0 0l-.221.535m0 0v17.381m0 0l.221.535m0 0l.535.221m0 0h19.271m0 0l.534-.221m0 0l.221-.535m0 0v-17.381m0 0l-.221-.535m0 0l-.534-.221M191.604 162.658h-34.008M191.604 185.33h-34.008M191.604 162.658v22.672M157.597 162.658v22.672M182.347 167.382h-15.492M166.099 168.137v11.714M166.855 180.607h7.002m1.488 0h7.002M183.102 179.851v-11.714M182.347 167.382h.108a.108.108 0 10-.216 0 .108.108 0 00.216 0h-.108zM166.099 168.137c0-.417.338-.755.756-.755M166.855 180.607a.756.756 0 01-.756-.756M183.102 179.851a.756.756 0 01-.756.756M182.347 167.382c.417 0 .756.338.756.755M174.941 175.775l-.101-.24m0-.001l-.24-.099m0 .001l-.241.1m0 0l-.099.24m0 0v7.476m0-.001l.1.241m0 0l.241.099m0 .001l.24-.099m0-.001l.1-.241m0 0v-7.477M175.355 181.325h-.414m0 0v1.927m0 0l-.1.241m0 0l-.24.099m0 0l-.241-.099m0 0l-.1-.241m0 0v-1.927m0 0h-.414m0 0v2.456m0 0h1.509m0 0v-2.456M175.345 179.964h-.404m0 0v1.323m0 0h.404m0 0v-1.323M173.856 179.964v1.323m0 0h.404m0 0v-1.323m0 0h-.404M157.597 162.658h-22.672M157.597 185.33h-22.672M157.597 162.658v22.672M134.925 162.658v22.672M65.021 162.658h22.671m-.001 0v22.672m0 0h-22.67m0 0v-22.672M115.654 164.736H93.738m0 0v18.515m0 0h21.916m0 0v-18.515M104.696 176.016v5.299M104.696 181.316H103.6M104.696 176.016H103.6M95.842 176.016v5.299M96.937 181.316h-1.096M96.937 176.016h-1.096M113.681 178.882a2.74 2.74 0 11-5.479 0 2.74 2.74 0 015.479 0zM113.639 170.643a3.968 3.968 0 11-7.936 0 3.968 3.968 0 017.936 0z"/><path class="st2" d="M111.938 170.643a2.267 2.267 0 11-4.534 0 2.267 2.267 0 014.534 0zM102.914 178.697a2.646 2.646 0 11-5.291 0 2.646 2.646 0 015.291 0zM102.552 170.106a3.4 3.4 0 11-6.801 0 3.4 3.4 0 016.801 0zM121.7 162.658H87.692M121.7 185.33H87.692M121.7 162.658v22.672M87.692 162.658v22.672M214.276 162.658h-22.672m0 0v22.672m0 0h22.672m0 0v-22.672M202.94 177.773v-7.558M205.612 176.666l-5.344-5.344M206.719 173.994h-7.557M205.612 171.322l-5.344 5.344M134.925 162.658H121.7M134.925 185.33H121.7M134.925 162.658v22.672M121.7 162.658v22.672M152.829 172.053a3.412 3.412 0 11-6.824 0 3.412 3.412 0 016.824 0z"/><path class="st2" d="M152.307 172.053a2.89 2.89 0 11-5.78 0 2.89 2.89 0 015.78 0zM145.689 171.221a2.58 2.58 0 11-5.16 0 2.58 2.58 0 015.16 0z"/><path class="st2" d="M144.554 171.221a1.445 1.445 0 11-2.89 0 1.445 1.445 0 012.89 0zM79.002 204.79a3.78 3.78 0 11-7.558 0 3.78 3.78 0 017.558 0z"/><path class="st2" d="M76.356 204.79a1.134 1.134 0 11-2.267-.001 1.134 1.134 0 012.267.001zM167.799 204.79a3.78 3.78 0 11-7.558 0 3.78 3.78 0 017.558 0z"/><path class="st2" d="M165.154 204.79a1.133 1.133 0 11-2.265 0 1.133 1.133 0 012.265 0zM80.607 438.121a3.778 3.778 0 11-7.557 0 3.778 3.778 0 017.557 0z"/><path class="st2" d="M77.962 438.121a1.134 1.134 0 11-2.267-.001 1.134 1.134 0 012.267.001zM169.405 438.121a3.778 3.778 0 11-7.557 0 3.778 3.778 0 017.557 0z"/><path class="st2" d="M166.76 438.121a1.133 1.133 0 11-2.265 0 1.133 1.133 0 012.265 0zM341.973 103.882h1.02m0 0V59.513m0 0h-1.02m0 0v44.369M342.993 102.478l3.411.709m0 0l-.142.681m0 0l-3.269-.681m0 0v-.709M342.993 94.181h.833m0 0l.566-.152m0 0l.415-.415m0 0l.152-.566m0 0v-22.7m0 0l-.152-.566m0 0l-.415-.415m0 0l-.566-.152m0 0h-.833m0 0v24.966M341.616 102.478l-3.41.709m0 0l.141.681m0 0l3.269-.681m0 0v-.709M342.993 60.917l3.411-.709m0 0l-.142-.681m0 0l-3.269.681m0 0v.709M341.676 60.917l-3.41-.709m0 0l.141-.681m0 0l3.269.681m0 0v.709M341.676 103.882h.297m0 0V59.513m0 0h-.297m0 0v44.369M186.081 194.396h22.672m0 0v68.962m0 0h-22.672m0 0v-68.962M197.794 263.359h-.755m0 0v-68.962m0 0h.755m0 0v68.962M188.074 201.833H206.7m0 0v.756m0 0h-18.626m0 0v-.756M188.074 203.838H206.7m0 0v.755m0 0h-18.626m0 0v-.755M188.074 205.842H206.7m0 0v.756m0 0h-18.626m0 0v-.756M188.074 207.847H206.7m0 0v.756m0 0h-18.626m0 0v-.756M188.209 212.093l18.491-2.241m0 0l.091.75m0 0l-18.491 2.241m0 0l-.091-.75M153.629 273.75H85.614m0 0v-75.573m0 0h68.015m0 0v75.573M151.74 275.639H87.504m0 0l-.723-.144m0 0l-.613-.409m0 0l-.41-.613m0 0l-.143-.723m0 0h68.015m0 0l-.144.723m0 0l-.41.613m0 0l-.613.409m0 0l-.723.144M153.629 194.399H85.614m0 0v3.778m0 0h68.015m0 0v-3.778M85.614 194.399h68.015m0 0v1.889m0 0H85.614m0 0v-1.889M83.725 194.399H66.72m0 0v18.893m0 0h17.004m.001 0v-18.893M155.519 194.399h17.004m-.001 0v18.893m0 0h-17.004m.001 0v-18.893M113.576 200.067H87.882m0 0l-.268.11m0 0l-.11.267m0 0v12.47m0 0l.11.267m0 0l.268.111m0 0h25.694m0 0l.267-.111m0 0l.111-.267m0 0v-12.47m0 0l-.111-.267m0 0l-.267-.11M125.667 200.067h25.695m0 0l.267.11m0 0l.111.267m0 0v12.47m0 0l-.111.267m0 0l-.267.111m0 0h-25.695m0 0l-.267-.111m0 0l-.11-.267m0 0v-12.47m0 0l.11-.267m0 0l.267-.11M153.629 212.268h-1.89M125.289 212.268h-11.335M87.503 212.268h-1.889M153.629 217.278H85.614m0 0v18.686m0 0l68.015-14.908m0 0v-3.778M87.22 367.271h68.016m0 0v75.572m0 0H87.22m0 0v-75.572M89.109 365.382h64.236m0 0l.723.144m0 0l.613.409m0 0l.41.614m0 0l.144.722m0 0H87.219m0 0l.144-.722m0 0l.41-.614m0 0l.613-.409m0 0l.723-.144M87.22 446.623h68.016m0 0v-3.779m0 0H87.22m0 0v3.779M155.235 446.623H87.219m0 0v-1.89m0 0h68.016m0 0v1.89M157.124 446.623h17.004m.001 0v-18.894m0 0h-17.004m-.001 0v18.894M85.33 446.623H68.327m0 0v-18.894m0 0H85.33m0 0v18.894M127.273 440.954h25.694m0 0l.267-.11m0 0l.111-.267m0 0v-12.47m0 0l-.111-.267m0 0l-.267-.111m0 0h-25.694m0 0l-.268.111m0 0l-.11.267m0 0v12.47m0 0l.11.267m0 0l.268.11M115.182 440.954H89.487m0 0l-.267-.11m0 0l-.11-.267m0 0v-12.47m0 0l.11-.267m0 0l.267-.111m0 0h25.695m0 0l.267.111m0 0l.111.267m-.001 0v12.47m0 0l-.111.267m.001 0l-.267.11M87.22 428.753h1.89M115.559 428.753h11.336M153.346 428.753h1.89M87.22 423.744h68.016m0 0v-18.686m0 0L87.22 419.965m0 0v3.779M234.681 162.658v22.672m0 0h61.403m-.001 0v-22.672m0 0H234.68M296.083 174.372v-.756m0 0H234.68m.001 0v.756m0 0h61.403M242.118 164.651v18.626m0 0h.756m0 0v-18.626m0 0h-.756M244.122 164.651v18.626m0 0h.756m0 0v-18.626m0 0h-.756M246.127 164.651v18.626m0 0h.756m0 0v-18.626m0 0h-.756M248.132 164.651v18.626m0 0h.755m0 0v-18.626m0 0h-.755M252.377 164.787l-2.241 18.491m0 0l.75.091m0 0l2.241-18.491m0 0l-.75-.091M153.486 169.846h-.963m0 0v-1.205m0 0h-12.524m0 0v1.205m0 0h-.964M152.023 179.851h-9.634m-.001 0v-.478m0-.001h.723m0 0v.237m0 0h8.188m0 0v-.237m0 0h.723m.001 0v.478M152.023 179.372l-.047-.104m-.048-.102l-.048-.103m-.046-.103l-.048-.103m-.047-.103l-.047-.103m-.046-.103l-.047-.103m-.049-.103l-.047-.103m-.046-.104l-.047-.103m-.048-.104l-.048-.103m-.047-.102l-.047-.103m-.047-.103l-.047-.103m-.046-.104l-.047-.103m-.048-.103l-.046-.103m-.049-.103l-.047-.103m-.047-.104l-.047-.103m-.047-.102l-.048-.103m-.046-.103l-.047-.103m-.048-.103l-.047-.103M142.389 179.372l.047-.104m.047-.102l.048-.103m.046-.103l.048-.103m.047-.103l.047-.103m.047-.103l.048-.103m.047-.103l.047-.103m.047-.104l.047-.103m.047-.104l.048-.103m.046-.102l.048-.103m.047-.103l.047-.103m.047-.104l.047-.103m.048-.103l.046-.103m.048-.103l.047-.103m.047-.104l.047-.103m.047-.102l.047-.103m.048-.103l.047-.103m.047-.103l.047-.103M152.023 179.372h-.078m-.113 0h-.114m-.114 0h-.113m-.114 0h-.078m0 0l-.041-.052m-.072-.087l-.071-.088m-.071-.088l-.071-.088m-.073-.088l-.071-.088m-.072-.088l-.071-.088m-.071-.088l-.072-.088m-.071-.088l-.072-.088m-.071-.088l-.072-.088m-.07-.088l-.071-.088m-.073-.089l-.071-.088m-.071-.087l-.071-.088m-.073-.088l-.071-.088m-.071-.088l-.071-.088m-.073-.088l-.071-.088m-.071-.088l-.072-.088m-.07-.088l-.072-.088m-.072-.088l-.072-.088m-.07-.088l-.071-.088m-.073-.089l-.071-.088m-.072-.087l-.071-.088m-.072-.088l-.072-.088m-.071-.088l-.071-.088m-.072-.088l-.041-.052M142.389 179.372h.078m.113 0h.114m.113 0h.113m.114 0h.078m0 0l.042-.052m.071-.087l.071-.088m.072-.088l.071-.088m.072-.088l.071-.088m.072-.088l.071-.088m.071-.088l.072-.088m.071-.088l.072-.088m.071-.088l.072-.088m.071-.088l.072-.088m.071-.089l.071-.088m.072-.087l.071-.088m.072-.088l.071-.088m.072-.088l.071-.088m.072-.088l.071-.088m.071-.088l.072-.088m.071-.088l.072-.088m.071-.088l.072-.088m.071-.088l.072-.088m.071-.089l.071-.088m.072-.087l.071-.088m.072-.088l.071-.088m.072-.088l.071-.088m.071-.088l.042-.052M267.366 324.195h22.294m0 0V296.8m0 0h-22.294m0 0v27.395M278.702 296.8h-.755m0 0v27.395m0 0h.755m0 0V296.8M268.981 316.758h18.626m0 0v-.756m0 0h-18.626m0 0v.756M268.981 314.754h18.626m0 0v-.756m0-.001h-18.626m0 0v.756M268.981 312.749h18.626m0 0v-.756m0-.001h-18.626m0 0v.756M268.981 310.744h18.626m0 0v-.755m0 0h-18.626m0 0v.755M269.116 306.498l18.491 2.241m0 0l.091-.75m0 0l-18.491-2.241m0 0l-.091.75M209.553 446.623h-22.671m0 0V371.05m0-.001h22.671m0 0v75.573M197.839 371.049h.756m0 0v75.573m0 0h-.756m0 0v-75.573M207.56 439.186h-18.626m0 0v-.756m0 0h18.626m0 0v.756M207.56 437.181h-18.626m0 0v-.755m0 0h18.626m0 0v.755M207.56 435.176h-18.626m0 0v-.756m0 0h18.626m0 0v.756M207.56 433.171h-18.626m0 0v-.756m0 0h18.626m0 0v.756M207.425 428.926l-18.491 2.241m0 0l-.091-.75m0 0l18.491-2.241m0 0l.091.75M71.543 205.65l3.679-.86m0 0l1.584-3.432m0 0l-1.584 3.432m0 0l1.306 3.546M167.7 205.65l-3.68-.86m0 0l-1.583-3.432m0 0l1.583 3.432m0 0l-1.306 3.546M73.149 438.981l3.679-.86m0 0l1.584-3.431m0 0l-1.584 3.431m0 0l1.306 3.545M169.306 438.981l-3.679-.86m0 0l-1.584-3.431m0 0l1.584 3.431m0 0l-1.306 3.545"/></g><g id="walls_1_"><path d="M301.5 348.939c-2.236-6.005-2.897-9.222-3.225-15.621" fill="none" stroke="#000" stroke-linecap="round" stroke-linejoin="round" stroke-miterlimit="3"/><path class="st4" d="M301.516 348.975l36.208-15.657v-1.512h-.454l-36.355 15.782z"/><path class="st5" d="M243.229 385.181c1.62-4.232 2.066-6.535 2.297-11.054"/><path class="st4" d="M243.216 385.285l.6-1.387-25.951-11.283h-.453v1.512z"/><path class="st5" d="M227.565 345.876c-1.806-4.783-2.335-7.465-2.596-12.558"/><path class="st4" d="M227.589 345.976l29.272-12.658v-1.512h-.454l-29.418 12.783z"/><g><path class="st5" d="M243.259 243.474c1.569 4.236 2.036 6.548 2.266 11.06"/><path class="st4" d="M243.216 243.375l-25.817 11.152.013 1.518h.453l25.951-11.283z"/><g><path class="st5" d="M196.225 278.516c4.927-1.792 7.321-2.314 12.572-2.582"/><path class="st4" d="M196.139 278.554l12.659 29.272h1.51v-.454l-12.781-29.418z"/></g></g><path d="M298.728 324.249H277.19v133.385h9.068V333.318h12.016v-1.512h.454v-7.557h0zm49.5 0V21.77h-26.261V.609h26.261V.5h10.958v332.818h-21.462v-1.512h-.454v-7.557h10.958zM65.021 446.676v-22.482h-23.05v33.44h23.05v-10.958h0zm-23.05-293.599h23.05v32.307l45.536-.001v9.069l-45.536.001v18.137h-23.05v-59.513h0zm0 142.643h23.05v28.529h45.538v9.069H65.021v24.75h-23.05V295.72h0zM144.372 21.77H97.517V.609h46.855V21.77h0zM210.498.609h45.344V21.77h-45.344V.609z" fill-rule="evenodd" clip-rule="evenodd" stroke="#000" stroke-linecap="round" stroke-linejoin="round" stroke-miterlimit="3"/><g><path class="st5" d="M144.372 8.167V21.77M144.372.609v5.669M144.372 6.278v1.889M210.498 8.167V21.77M210.498.609v5.669M210.498 6.278v1.889M210.498.609h-66.126M210.498 21.77h-66.126M210.498 8.167h-3.78M206.719 8.167V6.278M206.719 6.278h3.779M172.711 6.278h1.889M174.6 6.278v1.889M174.6 8.167h-1.888M206.719 7.222H174.6M206.719 8.167H174.6M174.6 6.278h32.118M172.711 8.167h-.945M171.766 8.167v-.944M171.766 7.222h-.944M170.822 7.222v-.945M170.822 6.278h1.889M144.372 6.278h3.778M148.15 6.278v.945M148.15 7.222h-.945M147.206 7.222v.944M147.206 8.167h-2.834M148.15 6.278h22.672M168.933 9.112h-18.894M171.766 9.112h-2.833M168.933 9.112V7.223M168.933 7.222h2.833M171.766 7.222v1.889M147.206 7.222h2.833M150.039 7.222v1.889M150.039 9.112h-2.834M147.206 9.112V7.223M150.039 7.222h18.893M168.933 9.112h-18.894M168.933 8.167h-18.894M210.498 6.278v1.889M210.498 6.278v1.889M210.498.609v5.669M210.498 8.167V21.77M144.372 6.278v1.889M144.372 6.278v1.889M144.372.609v5.669M144.372 8.167V21.77M210.498.609V21.77"/><g><path class="st5" d="M255.841 8.167V21.77M255.841.609v5.669M255.841 6.278v1.889M321.967 8.167V21.77M321.967.609v5.669M321.967 6.278v1.889M321.967.609h-66.126M321.967 21.77h-66.126M321.967 8.167h-3.778M318.188 8.167V6.278M318.188 6.278h3.778M284.181 6.278h1.889M286.07 6.278v1.889M286.07 8.167h-1.889M318.188 7.222H286.07M318.188 8.167H286.07M286.07 6.278h32.118M284.181 8.167h-.945M283.236 8.167v-.944M283.236 7.222h-.945M282.292 7.222v-.945M282.292 6.278h1.889M255.841 6.278h3.779M259.62 6.278v.945M259.62 7.222h-.945M258.675 7.222v.944M258.675 8.167h-2.834M259.62 6.278h22.671M280.402 9.112h-18.893M283.236 9.112h-2.834M280.402 9.112V7.223M280.402 7.222h2.834M283.236 7.222v1.889M258.675 7.222h2.834M261.509 7.222v1.889M261.509 9.112h-2.834M258.675 9.112V7.223M261.509 7.222h18.893M280.402 9.112h-18.893M280.402 8.167h-18.893M321.967 6.278v1.889M321.967 6.278v1.889M321.967.609v5.669M321.967 8.167V21.77M255.841 6.278v1.889M255.841 6.278v1.889M255.841.609v5.669M255.841 8.167V21.77M321.967.609V21.77"/></g><g><path class="st5" d="M49.528 424.194H65.02M41.971 424.194h5.668M47.639 424.194h1.89M49.528 358.068H65.02M41.971 358.068h5.668M47.639 358.068h1.89M41.971 358.068v66.126M65.021 358.068v66.126M49.528 358.068v3.778M49.528 361.846h-1.89M47.639 361.846v-3.779M47.639 395.854v-1.889M47.639 393.965h1.89M49.528 393.965v1.889M48.583 361.846v32.119M49.528 361.846v32.119M47.639 393.965v-32.119M49.528 395.854v.944M49.528 396.798h-.945M48.583 396.798v.945M48.583 397.743h-.945M47.639 397.743v-1.889M47.639 424.194v-3.778M47.639 420.415h.944M48.583 420.415v.944M48.583 421.359h.945M49.528 421.359v2.835M47.639 420.415v-22.672M50.472 399.633v18.893M50.472 396.798v2.835M50.472 399.633h-1.889M48.583 399.633v-2.834M48.583 396.798h1.889M48.583 421.359v-2.832M48.583 418.526h1.889M50.472 418.526v2.833M50.472 421.359h-1.889M48.583 418.526v-18.893M50.472 399.633v18.893M49.528 399.633v18.893M47.639 358.068h1.89M47.639 358.068h1.89M41.971 358.068h5.668M49.528 358.068H65.02M47.639 424.194h1.89M47.639 424.194h1.89M41.971 424.194h5.668M49.528 424.194H65.02M41.971 358.068h23.05"/></g><g><path class="st5" d="M49.528 295.72H65.02M41.971 295.72h5.668M47.639 295.72h1.89M49.528 212.59H65.02M41.971 212.59h5.668M47.639 212.59h1.89M41.971 212.59v83.13M65.021 212.59v83.13M49.528 212.59v3.78M49.528 216.369h-1.89M47.639 216.369v-3.779M47.639 252.266v-1.889M47.639 250.377h1.89M49.528 250.377v1.889M48.583 216.369v34.008M49.528 216.369v34.008M47.639 250.377v-34.008M49.528 252.266v.944M49.528 253.211h-.945M48.583 253.211v.945M48.583 254.155h-.945M47.639 254.155v-1.889M47.639 295.72v-3.779M47.639 291.941h.944M48.583 291.941v.946M48.583 292.886h.945M49.528 292.886v2.834M50.472 292.886l28.056-28.054M47.639 291.941v-37.785M50.472 256.045v34.007M50.472 253.211v2.834M50.472 256.045h-1.889M48.583 256.045v-2.834M48.583 253.211h1.889M48.583 292.886v-2.834M48.583 290.052h1.889M50.472 290.052v2.834M50.472 292.886h-1.889M48.583 290.052v-34.007M50.472 256.045v34.007M49.528 256.045v34.007M50.472 253.211a39.675 39.675 0 0128.055 11.621M47.639 212.59h1.89M47.639 212.59h1.89M41.971 212.59h5.668M49.528 212.59H65.02M47.639 295.72h1.89M47.639 295.72h1.89M41.971 295.72h5.668M49.528 295.72H65.02"/></g><g><path class="st5" d="M97.517 8.167V21.77M97.517.609v5.669M97.517 6.278v1.889M97.517.609H41.971M97.517 21.77H65.021M97.517 8.167h-4.724M92.793 8.167V6.278M92.793 6.278h4.723M49.528 6.278h4.723M54.251 6.278v1.889M54.251 8.167h-4.723M47.639 6.278h1.89M92.793 8.167H54.251M54.251 6.278h38.542M97.517 6.278v1.889M97.517 6.278v1.889M97.517.609v5.669M97.517 8.167V21.77M49.528 153.077H65.02M41.971 153.077h5.668M47.639 153.077h1.89M41.971 153.077V.609M65.021 153.077V21.769M49.528 153.077v-4.724M49.528 148.354h-1.89M47.639 148.354v4.724M47.639 8.167v4.723M47.639 12.89h1.89M49.528 12.89V8.167M47.639 6.278v1.889M49.528 148.354V12.89M47.639 12.89v135.464M47.639 153.077h1.89M47.639 153.077h1.89M41.971 153.077h5.668M49.528 153.077H65.02"/></g><path class="st5" d="M42.064 314.613H.5m0 0V193.697m0 0h41.564m0 0v120.916"/><path class="st7" d="M47.639 106.238h1.89v5.133h-1.89zM47.639 63.73h1.89v5.133h-1.89z"/></g><g><path class="st8" d="M112.9 185.513l-2.3 2.03M120.33 185.513l-9.73 8.57M127.75 185.513l-10.3 9.07M135.17 185.513l-10.29 9.07M142.59 185.513l-10.29 9.07M150.01 185.513l-10.3 9.07M157.44 185.513l-10.3 9.07M164.86 185.513l-10.3 9.07M172.28 185.513l-10.3 9.07M179.7 185.513l-10.29 9.07M187.13 185.513l-10.3 9.07M220.29 162.843l-5.97 5.26M194.55 185.513l-10.29 9.07M227.7 162.843l-3.44 3.03M217.34 171.973l-3.02 2.66M201.97 185.513l-10.3 9.07M234.73 163.193l-3.05 2.68M217.34 178.513l-3.02 2.66M209.39 185.513l-10.3 9.07M211.82 189.913l-5.3 4.67M234.73 169.733l-3.03 2.67M217.34 185.053l-3.96 3.49M211.83 196.443l-3.03 2.67M234.73 176.273l-3.03 2.67M224.24 185.513l-3.44 3.03M211.83 202.983l-3.02 2.66M234.73 182.813l-3.03 2.67M231.66 185.513l-3.44 3.03M211.84 209.513l-3.03 2.67M239.08 185.513l-3.44 3.03M239.63 191.563l-3.43 3.02M211.84 216.043l-3.03 2.67M246.5 185.513l-3.44 3.03M247.06 191.563l-3.43 3.02M211.85 222.583l-3.03 2.66M253.93 185.513l-3.44 3.03M254.48 191.563l-3.43 3.02M211.85 229.113l-3.03 2.67M261.35 185.513l-3.44 3.03M261.9 191.563l-3.43 3.02M111.13 324.383l-.52.46M211.86 235.643l-3.04 2.68M268.76 185.523l-3.61 3.18M299.15 165.293l-3.02 2.66M211.86 242.183l-3.03 2.67M118.55 324.383l-7.94 7M268.17 192.583l-2.27 2M276.18 185.523l-3.43 3.02M299.15 171.833l-3.02 2.66M211.87 248.723l-3.04 2.67M125.98 324.383l-10.3 9.07M283.61 185.523l-3.43 3.02M299.15 178.363l-3.02 2.66M291.02 185.523l-3.42 3.02M133.39 324.383l-10.29 9.07M212.53 254.673l-3.7 3.26M299.15 184.903l-4.13 3.64M217.91 256.473l-1.39 1.22M140.82 324.383l-10.3 9.07M211.86 261.803l-3.03 2.66M299.15 191.443l-3.02 2.66M148.24 324.383l-10.3 9.07M211.87 268.333l-3.03 2.66M299.15 197.983l-3.02 2.66M211.87 274.863l-1.52 1.34M155.66 324.383l-10.29 9.07M299.15 204.523l-3.02 2.66M163.09 324.383l-10.3 9.07M299.15 211.063l-3.02 2.66M249.64 254.673l-3.43 3.02M170.51 324.383l-10.3 9.07M299.15 217.603l-3.02 2.66M177.93 324.383l-10.29 9.07M257.06 254.673l-3.42 3.02M299.15 224.133l-3.02 2.66M185.35 324.383l-10.3 9.07M264.48 254.673l-3.43 3.02M299.15 230.673l-3.02 2.66M192.77 324.383l-10.29 9.07M211.87 307.563l-3.03 2.67M271.91 254.663l-3.43 3.03M299.15 237.213l-3.02 2.66M211.87 314.103l-3.03 2.67M200.2 324.383l-10.3 9.07M279.34 254.663l-3.44 3.03M299.15 243.753l-3.02 2.66M211.87 320.643l-3.03 2.66M68.64 446.813l-3.57 3.14M207.62 324.383l-10.3 9.07M286.76 254.663l-3.44 3.03M299.15 250.293l-3.02 2.66M215.04 324.383l-10.29 9.07M76.06 446.813l-10.99 9.68M294.19 254.663l-3.44 3.03M299.15 256.833l-.98.86M83.49 446.813l-12.44 10.96M222.47 324.383l-10.3 9.07M225.47 328.273l-5.88 5.18M90.9 446.813l-12.44 10.96M267.41 297.863l-3.02 2.66M98.33 446.813l-12.45 10.96M105.75 446.813l-12.44 10.96M267.41 304.403l-3.02 2.66M113.17 446.813l-12.44 10.96M267.41 310.943l-3.02 2.66M120.6 446.813l-12.44 10.96M259.58 324.383l-3.13 2.75M267.41 317.483l-3.02 2.66M267.41 324.023l-10.5 9.25M213.81 371.243l-4.21 3.7M128.02 446.813l-12.44 10.96M212.62 378.823l-3.02 2.66M274.41 324.383l-12.29 10.83M135.43 446.813l-12.44 10.96M212.62 385.353l-3.02 2.67M277.24 328.433l-5.7 5.02M265.15 339.083l-3.03 2.67M142.86 446.813l-12.44 10.96M212.62 391.903l-3.02 2.66M265.15 345.623l-3.03 2.67M150.28 446.813l-12.44 10.96M212.62 398.443l-3.02 2.66M265.15 352.163l-3.03 2.67M157.71 446.813l-12.45 10.96M212.62 404.973l-3.02 2.66M250.91 371.243l-3.42 3.02M265.15 358.703l-3.03 2.67M165.13 446.813l-12.44 10.96M212.62 411.513l-3.02 2.66M265.15 365.243l-3.03 2.67M258.34 371.243l-3.43 3.02M172.55 446.813l-12.44 10.96M212.62 418.053l-3.02 2.66M265.76 371.243l-3.43 3.02M179.98 446.813l-12.45 10.96M212.62 424.593l-3.02 2.66M273.18 371.243l-3.43 3.02M187.39 446.813l-12.44 10.96M212.62 431.133l-3.02 2.66M277.24 374.203l-.07.06M275.73 375.533l-3.03 2.67M194.82 446.813l-12.45 10.96M212.62 437.663l-3.02 2.67M275.73 382.073l-3.03 2.67M202.24 446.813l-12.44 10.96M212.62 444.203l-15.4 13.57M275.73 388.613l-3.03 2.67M217.09 446.813l-12.44 10.96M275.73 395.153l-3.03 2.67M224.51 446.813l-12.44 10.96M275.73 401.693l-3.03 2.67M275.73 408.223l-3.03 2.67M231.92 446.813l-12.44 10.96M239.35 446.813l-12.44 10.96M246.77 446.813l-12.44 10.96M254.2 446.813l-12.45 10.96M261.62 446.813l-12.44 10.96M269.04 446.813l-12.44 10.96M276.46 446.813l-12.44 10.96M277.24 452.663l-5.8 5.11"/></g><path class="st7" d="M211.82 254.534l-.049-66.129 24.043.001v6.046l32.307.001v-6.045h-3.023v3.022h-26.261v-3.023l57.246.001v66.126l-50.531.001v1.511h-.48v1.511h54.034v-94.844h-3.023v22.672l-61.403-.001v-22.67l-20.404.001v22.669l-103.72.002v9.069l98.195-.002.046 80.426v1.058h1.511v.454h1.512l-.01-18.832h6.055v-1.511h-.453v-1.511l-5.592-.003zm0 53.821v15.894h13.602v7.557h-.453v1.512H110.558v-9.069h98.239v-16.423h1.511v-.454h1.512v.983zm46.099 15.894h6.423v-27.395h3.023v27.395h9.825v9.069h-12.092v37.786h12.092v3.023h-1.512v35.141h1.512v3.023h-4.534v-38.164h-27.131v-1.512h-.453v-1.511h17.003v-37.786h-5.214v-1.512h-.454v-7.557h1.512zm19.272 122.427v10.958H65.021v-10.958h144.532v-75.572h8.313v1.511h-.453v1.512h-4.837v72.549h64.615zm-45.534-261.294v-19.647h-14.359v19.647h14.359z"/></g><g id="sizes"><path d="M14.662 296.678l4.113-8.93h2.285l-4.008 8.824h6.003v1.986h-8.394v-1.88zm5.335-3.674h2.074v7.523h-2.074v-7.523zM24.839 298.374h2.092v2.145l-2.092 1.775v-3.92zM28.962 298.655l4.421-5.854c.229-.299.405-.607.531-.927s.189-.617.189-.893v-.018c0-.428-.131-.759-.392-.993s-.631-.352-1.111-.352c-.463 0-.837.143-1.121.427s-.455.687-.514 1.208v.009h-2.162v-.009c.082-.768.287-1.424.615-1.969s.762-.961 1.301-1.248 1.16-.431 1.863-.431c.779 0 1.444.131 1.995.392s.971.64 1.261 1.138.436 1.099.436 1.802v.009c0 .516-.099 1.039-.295 1.569s-.467 1.026-.813 1.489l-3.428 4.5h4.605v2.013H28.96v-1.862zM76.035 358.013h-2.101v-10.389l-1.688.853v-2.206l1.863-1.037h1.925v12.779zM78.566 356.15l4.421-5.854c.229-.299.405-.608.531-.928s.189-.616.189-.892v-.018c0-.428-.131-.759-.392-.993s-.631-.352-1.111-.352c-.463 0-.837.142-1.121.426s-.455.688-.514 1.209v.009h-2.162v-.009c.082-.768.287-1.424.615-1.969s.762-.961 1.301-1.248 1.16-.431 1.863-.431c.779 0 1.444.13 1.995.391s.971.641 1.261 1.139.436 1.099.436 1.802v.009c0 .516-.099 1.038-.295 1.568s-.467 1.027-.813 1.49l-3.428 4.5h4.605v2.013h-7.383v-1.862zM87.821 355.869h2.092v2.145l-2.092 1.775v-3.92zM93.885 357.706c-.598-.293-1.061-.708-1.389-1.244s-.492-1.158-.492-1.867v-.211c0-.639.168-1.239.505-1.802s.784-.987 1.341-1.274c-.475-.246-.857-.601-1.147-1.063s-.435-.952-.435-1.468v-.316c0-.668.153-1.256.461-1.763s.74-.899 1.297-1.178 1.204-.417 1.942-.417 1.386.139 1.942.417.988.671 1.296 1.178.462 1.095.462 1.763v.316c0 .527-.148 1.021-.444 1.48s-.684.811-1.164 1.051c.563.293 1.015.719 1.357 1.278s.515 1.159.515 1.798v.211c0 .709-.164 1.331-.492 1.867s-.791.951-1.389 1.244-1.292.439-2.083.439-1.485-.146-2.083-.439zm3.063-1.802c.284-.146.504-.354.659-.624s.233-.577.233-.923v-.123c0-.34-.078-.639-.233-.896s-.373-.459-.654-.603-.609-.215-.984-.215-.703.071-.984.215-.5.346-.655.606-.232.562-.232.901v.132c0 .346.077.651.232.918s.375.472.659.615.611.216.98.216.695-.072.979-.219zm-.141-5.612c.243-.138.431-.334.563-.589s.198-.549.198-.883v-.123c0-.311-.066-.586-.198-.826s-.319-.425-.563-.554-.522-.193-.839-.193-.597.064-.84.193-.431.313-.563.554-.197.519-.197.835v.132c0 .328.065.618.197.87s.319.446.563.584.523.207.84.207.596-.069.839-.207z"/><g><path d="M174.59 318.232h-2.101v-10.389l-1.688.853v-2.206l1.863-1.037h1.925v12.779zM179.635 318.364l-.861-.404c-.574-.269-1.033-.663-1.376-1.182s-.546-1.139-.61-1.859h2.153c.047.316.144.579.29.787s.337.364.571.47.507.158.817.158c.527 0 .935-.142 1.222-.426s.431-.688.431-1.209v-.343c0-.563-.128-.997-.383-1.305s-.619-.462-1.094-.462h-.993v-2.004h.993c.404 0 .716-.133.936-.399s.33-.641.33-1.121v-.308c0-.451-.119-.798-.356-1.041s-.572-.365-1.006-.365c-.264 0-.5.056-.708.167s-.385.28-.531.506-.252.502-.316.83h-2.145c.094-.738.309-1.374.646-1.907s.771-.938 1.301-1.213 1.13-.413 1.798-.413c1.113 0 1.976.29 2.588.87s.919 1.397.919 2.452v.299c0 .615-.161 1.151-.483 1.608s-.779.794-1.371 1.011c.656.146 1.164.479 1.524.998s.541 1.179.541 1.981v.299c0 .744-.146 1.38-.436 1.907s-.713.929-1.27 1.204-1.225.413-2.004.413l-1.117.001zM186.596 316.088h2.092v2.145l-2.092 1.775v-3.92zM190.736 314.391l4.113-8.93h2.285l-4.008 8.824h6.003v1.986h-8.394v-1.88zm5.335-3.673h2.074v7.523h-2.074v-7.523z"/></g><g><path d="M244.529 235.351l-.861-.404c-.574-.269-1.033-.664-1.376-1.183s-.546-1.138-.61-1.858h2.153c.047.316.144.578.29.786s.337.365.571.471.507.158.817.158c.527 0 .935-.143 1.222-.427s.431-.687.431-1.208v-.343c0-.563-.128-.998-.383-1.306s-.619-.461-1.094-.461h-.993v-2.004h.993c.404 0 .716-.134.936-.4s.33-.64.33-1.12v-.308c0-.451-.119-.799-.356-1.042s-.572-.364-1.006-.364c-.264 0-.5.056-.708.167s-.385.279-.531.505-.252.503-.316.831h-2.145c.094-.738.309-1.374.646-1.907s.771-.938 1.301-1.213 1.13-.413 1.798-.413c1.113 0 1.976.29 2.588.87s.919 1.397.919 2.452v.299c0 .615-.161 1.151-.483 1.608s-.779.794-1.371 1.011c.656.146 1.164.479 1.524.997s.541 1.18.541 1.982v.299c0 .744-.146 1.38-.436 1.907s-.713.929-1.27 1.204-1.225.413-2.004.413l-1.117.001zM251.49 233.075h2.092v2.145l-2.092 1.775v-3.92zM262.582 224.04l-3.085 11.18h-2.259l3.041-10.767h-2.725v1.881h-2.101v-3.894h7.128v1.6z"/></g><g><path d="M138.475 130.777l-.861-.404c-.574-.269-1.033-.664-1.376-1.182s-.546-1.138-.61-1.859h2.153c.047.316.144.579.29.787s.337.365.571.47.507.158.817.158c.527 0 .935-.142 1.222-.426s.431-.687.431-1.208v-.343c0-.563-.128-.998-.383-1.305s-.619-.461-1.094-.461h-.993V123h.993c.404 0 .716-.133.936-.4s.33-.64.33-1.121v-.308c0-.451-.119-.798-.356-1.042s-.572-.365-1.006-.365c-.264 0-.5.056-.708.167s-.385.28-.531.505-.252.502-.316.831h-2.145c.094-.738.309-1.374.646-1.907s.771-.938 1.301-1.213 1.13-.413 1.798-.413c1.113 0 1.976.29 2.588.87s.919 1.397.919 2.452v.299c0 .615-.161 1.151-.483 1.608s-.779.794-1.371 1.011c.656.146 1.164.479 1.524.998s.541 1.179.541 1.982v.299c0 .744-.146 1.38-.436 1.907s-.713.929-1.27 1.204-1.225.413-2.004.413h-1.117zM145.48 128.782l4.421-5.854c.229-.299.405-.608.531-.927s.189-.617.189-.892v-.018c0-.428-.131-.759-.392-.993s-.631-.352-1.111-.352c-.463 0-.837.142-1.121.426s-.455.687-.514 1.208v.009h-2.162v-.009c.082-.768.287-1.424.615-1.969s.762-.961 1.301-1.248 1.16-.431 1.863-.431c.779 0 1.444.13 1.995.391s.971.64 1.261 1.138.436 1.099.436 1.802v.009c0 .516-.099 1.039-.295 1.569s-.467 1.027-.813 1.49l-3.428 4.5h4.605v2.013h-7.383v-1.862zM154.735 128.5h2.092v2.145l-2.092 1.775v-3.92zM160.926 130.364c-.524-.275-.947-.678-1.27-1.208s-.524-1.162-.606-1.894v-.009h2.101v.009c.053.469.217.833.492 1.094s.636.391 1.081.391c.498 0 .883-.164 1.155-.492s.409-.794.409-1.397v-1.072c0-.598-.131-1.061-.392-1.389s-.628-.492-1.103-.492c-.328 0-.626.088-.893.264s-.476.422-.628.738h-1.942v-7.04h6.688v2.013h-4.588v2.566c.199-.182.446-.322.742-.422s.594-.149.893-.149c.697 0 1.295.152 1.793.457s.877.75 1.138 1.336.392 1.292.392 2.118v1.072c0 .826-.146 1.532-.436 2.118s-.71 1.033-1.261 1.34-1.213.461-1.986.461c-.66 0-1.254-.138-1.779-.413z"/></g><g><path d="M317.249 310.19a3.27 3.27 0 01-1.389-1.244c-.328-.535-.492-1.158-.492-1.867v-.211c0-.639.168-1.239.505-1.802s.784-.987 1.341-1.274c-.475-.246-.857-.601-1.147-1.063s-.435-.952-.435-1.468v-.316c0-.668.153-1.256.461-1.762.308-.508.74-.9 1.297-1.178.557-.279 1.204-.418 1.942-.418s1.386.139 1.942.418c.557.277.988.67 1.296 1.178.308.506.462 1.094.462 1.762v.316c0 .527-.148 1.021-.444 1.48a2.907 2.907 0 01-1.164 1.051 3.416 3.416 0 011.357 1.279c.343.559.515 1.158.515 1.797v.211c0 .709-.164 1.332-.492 1.867-.328.537-.791.951-1.389 1.244s-1.292.439-2.083.439-1.486-.146-2.083-.439zm3.062-1.802c.284-.146.504-.354.659-.624s.233-.577.233-.923v-.123c0-.34-.078-.639-.233-.896s-.373-.458-.654-.603c-.281-.143-.609-.215-.984-.215s-.703.072-.984.215c-.281.145-.5.346-.655.607-.155.26-.232.561-.232.9v.132c0 .346.077.651.232.919.155.266.375.471.659.615.284.143.611.215.98.215s.695-.072.979-.219zm-.14-5.612c.243-.137.431-.334.563-.588a1.9 1.9 0 00.198-.884v-.123c0-.311-.066-.586-.198-.826s-.319-.425-.563-.554-.522-.193-.839-.193-.597.064-.84.193-.431.313-.563.554-.197.519-.197.835v.132c0 .328.065.618.197.87s.319.447.563.584c.243.139.523.207.84.207s.595-.068.839-.207zM325.387 308.353h2.092v2.145l-2.092 1.775v-3.92zM331.118 310.177a2.977 2.977 0 01-1.248-1.318c-.287-.576-.431-1.272-.431-2.087v-.009c0-.469.057-.963.171-1.48a9.429 9.429 0 01.716-2.062l2.689-5.502h2.32l-3.164 6.372-.299-.316c.146-.275.36-.489.642-.642s.609-.229.984-.229c.68 0 1.263.149 1.749.448s.856.734 1.111 1.305c.255.572.383 1.259.383 2.062v.009c0 .82-.144 1.523-.431 2.109s-.705 1.031-1.253 1.336-1.205.457-1.973.457-1.421-.151-1.966-.453zm3.12-2.017c.27-.299.404-.727.404-1.283v-.009c0-.621-.138-1.1-.413-1.438-.275-.336-.671-.505-1.187-.505-.48 0-.852.17-1.112.51s-.391.82-.391 1.441v.009c0 .557.135.982.404 1.279.27.295.65.443 1.143.443.499.001.882-.148 1.152-.447z"/></g><g><path d="M219.846 427.712l-.861-.404c-.574-.269-1.033-.663-1.376-1.182s-.546-1.139-.61-1.859h2.153c.047.316.144.579.29.787s.337.364.571.47.507.158.817.158c.527 0 .935-.142 1.222-.426s.431-.688.431-1.209v-.343c0-.563-.128-.997-.383-1.305s-.619-.462-1.094-.462h-.993v-2.004h.993c.404 0 .716-.133.936-.399s.33-.641.33-1.121v-.308c0-.451-.119-.798-.356-1.041s-.572-.365-1.006-.365c-.264 0-.5.056-.708.167s-.385.28-.531.506-.252.502-.316.83h-2.145c.094-.738.309-1.374.646-1.907s.771-.938 1.301-1.213 1.13-.413 1.798-.413c1.113 0 1.976.29 2.588.87s.919 1.397.919 2.452v.299c0 .615-.161 1.151-.483 1.608s-.779.794-1.371 1.011c.656.146 1.164.479 1.524.998s.541 1.179.541 1.981v.299c0 .744-.146 1.38-.436 1.907s-.713.929-1.27 1.204-1.225.413-2.004.413l-1.117.001zM226.807 425.435h2.092v2.145l-2.092 1.775v-3.92zM230.929 425.717l4.421-5.854c.229-.299.405-.607.531-.927s.189-.617.189-.893v-.018c0-.428-.131-.759-.392-.993s-.631-.352-1.111-.352c-.463 0-.837.143-1.121.427s-.455.687-.514 1.208v.009h-2.162v-.009c.082-.768.287-1.424.615-1.969s.762-.961 1.301-1.248 1.16-.431 1.863-.431c.779 0 1.444.131 1.995.392s.971.64 1.261 1.138.436 1.099.436 1.802v.009c0 .516-.099 1.039-.295 1.569s-.467 1.026-.813 1.489l-3.428 4.5h4.605v2.013h-7.383v-1.862z"/></g></g></svg>