<svg version="1.1" id="_x31_78_1_" xmlns="http://www.w3.org/2000/svg" x="0" y="0" viewBox="0 0 488.632 667.74" xml:space="preserve"><style>.st1{stroke-width:.4;stroke-linecap:round;stroke-linejoin:round;stroke-miterlimit:3}.st1,.st2,.st3{fill:none;stroke:#999}.st2{stroke-linecap:round;stroke-linejoin:round;stroke-miterlimit:3}.st3{fill-rule:evenodd;clip-rule:evenodd}.st3,.st4{stroke-linecap:round;stroke-linejoin:round;stroke-miterlimit:3}.st4,.st6,.st7{fill:none;stroke:#000}.st6{fill-rule:evenodd;clip-rule:evenodd;stroke-miterlimit:22.9256}.st7{stroke-linecap:round;stroke-linejoin:round;stroke-miterlimit:3}.st7,.st8,.st9{fill-rule:evenodd;clip-rule:evenodd}.st9{fill:none;stroke:#666;stroke-width:.6;stroke-miterlimit:22.9256}</style><path fill-rule="evenodd" clip-rule="evenodd" fill="#fff" d="M201.987 331.044v336.304h244.292v-24.554h41.91v-190.25h-41.66V300.21h41.66V179.377h-41.868V.392H.449v330.652z"/><g id="mebel_2_"><path class="st1" d="M364.439 523.084h59.135m-59.135-11.335h59.135m-59.135-11.336h59.135m-59.135-11.336h59.135m-71.226-11.336h71.226m-50.091-11.336h50.091m-71.226-11.336h71.226m-15.209 77.273v-80.107m-22.672 80.107v-80.107M363.022 481.709v-8.661m0-12.908v-7.905M282.444 500.413h60.078m-60.078-11.336h40.299m5.75 0h14.029m-60.078-11.336h37.091m18.453 0h4.534m-60.078-11.336h43.832m-43.832-11.336h43.832m-43.832-11.336h43.832m-43.832-11.336h39.296m14.171 68.016v-12.119m0-11.093v-6.828m-22.672 30.04v-75.762m-22.672 75.951v-75.951M125.009 258.391l4.399-4.399M118.062 258.391l11.347-11.346M111.115 258.391l18.293-18.293M109.759 252.8l19.649-19.65m-25.763 18.818l25.764-25.764m-32.712 25.764l32.711-32.711M74.259 267.46l5.272-5.272m10.22-10.22l39.658-39.658m-62.097 55.15l12.219-12.219m3.272-3.273l42.321-42.321m-63.78 56.834l56.833-56.834m-56.013 49.066l49.067-49.066m-64.76 57.813l3.723-3.723m11.932-11.933l42.157-42.157M39.525 267.46l10.006-10.006m9.936-9.937l37.87-37.87m-57.86 50.913l11.166-11.166m2.311-2.311l37.436-37.436m-50.913 43.966l43.966-43.966m-43.966 37.019l37.019-37.019m-37.019 30.072l30.072-30.072m-30.072 23.125l23.125-23.125m-23.125 16.178l16.178-16.178m-16.178 9.231l9.231-9.231m-9.231 2.284l2.284-2.284m87.647 1.765l-1.764-1.765m1.764 8.712l-8.711-8.712m8.711 15.659l-15.659-15.659m15.659 22.606l-22.605-22.606m22.605 29.553l-29.552-29.553m29.552 36.5l-36.5-36.5m36.5 43.447l-43.447-43.447m41.797 48.744l-48.743-48.744m41.797 48.744l-48.744-48.744m41.797 48.744l-4.106-4.106m-2.317-2.317l-42.321-42.321m35.373 42.321l-42.32-42.321m35.374 42.321l-42.321-42.321m35.374 42.321l-42.32-42.321m35.503 42.45l-40.307-40.306m40.054 47.001l-40.054-40.054m40.054 47.001l-40.054-40.055m34.828 41.776l-11.833-11.833m-8.827-8.827l-14.168-14.168m27.881 34.828l-5.534-5.534m-11.608-11.609l-10.738-10.738m9.949 16.897l-9.95-9.95m10.77 17.716l-10.77-10.77m7.04 13.988l-7.04-7.04m.094 7.04l-.093-.094"/><path class="st2" d="M407.75 70.786h-28.391M378.227 69.652v-28.39M379.36 40.128h28.391M408.884 41.262v28.39M418.281 30.733H379.36M378.227 31.866v7.129M379.36 40.128h29.524M408.884 40.128v29.524M410.018 70.786h7.129M418.281 69.652V30.733M379.36 36.022h33.63M412.99 36.022v33.63M378.227 29.221h41.564M419.791 29.221v41.565M378.227 29.221v2.645M417.147 70.786h2.645M410.018 70.786h-2.268M378.227 38.995v2.267M408.884 40.128l9.396-9.396M379.36 70.786a1.133 1.133 0 01-1.133-1.134M378.227 41.262c0-.626.507-1.134 1.133-1.134M407.75 40.128c.626 0 1.134.508 1.134 1.134M408.884 69.652c0 .626-.508 1.134-1.134 1.134M378.227 31.866c0-.626.507-1.133 1.133-1.133M379.36 40.128a1.133 1.133 0 01-1.133-1.133M410.018 70.786a1.134 1.134 0 01-1.134-1.134M418.281 69.652c0 .626-.508 1.134-1.134 1.134M379.36 36.022a1.133 1.133 0 01-1.133-1.133M414.123 70.786a1.134 1.134 0 01-1.134-1.134M340.44 29.221h37.787M340.44 29.221v2.645M378.227 29.221v2.645M340.44 38.995v2.267M378.227 38.995v2.267M377.093 70.786h-35.52M340.44 69.652v-28.39M341.574 40.128h35.52M378.227 41.262v28.39M377.093 30.733h-35.52M340.44 31.866v7.129M341.574 40.128h35.52M378.227 38.995v-7.129M341.574 36.022h35.52M341.574 70.786a1.134 1.134 0 01-1.134-1.134M340.44 41.262c0-.626.508-1.134 1.134-1.134M377.093 40.128c.626 0 1.134.508 1.134 1.134M378.227 69.652c0 .626-.508 1.134-1.134 1.134M340.44 31.866c0-.626.508-1.133 1.134-1.133M341.574 40.128a1.134 1.134 0 01-1.134-1.133M378.227 38.995c0 .626-.508 1.133-1.134 1.133M377.093 30.733c.626 0 1.134.507 1.134 1.133M341.574 36.022a1.134 1.134 0 01-1.134-1.133M378.227 34.889c0 .626-.508 1.133-1.134 1.133M307.567 70.786h-4.157M302.655 70.03V29.977M303.41 29.221h4.156M308.322 29.977V70.03M307.567 29.221h32.873M340.44 29.221v2.645M340.44 38.995v2.267M339.307 70.786h-29.852M308.322 69.652v-28.39M309.455 40.128h29.852M340.44 41.262v28.39M339.307 30.733h-29.852M308.322 31.866v7.129M309.455 40.128h29.852M340.44 38.995v-7.129M309.455 36.022h29.852M303.41 70.786a.755.755 0 01-.755-.756M302.655 29.977c0-.417.338-.756.755-.756M307.567 29.221c.417 0 .755.338.755.756M308.322 70.03a.756.756 0 01-.755.756M309.455 70.786a1.134 1.134 0 01-1.134-1.134M308.322 41.262c0-.626.508-1.134 1.134-1.134M339.307 40.128c.626 0 1.133.508 1.133 1.134M340.44 69.652c0 .626-.507 1.134-1.133 1.134M308.322 31.866c0-.626.508-1.133 1.134-1.133M309.455 40.128a1.134 1.134 0 01-1.134-1.133M340.44 38.995c0 .626-.507 1.133-1.133 1.133M339.307 30.733c.626 0 1.133.507 1.133 1.133M309.455 36.022a1.134 1.134 0 01-1.134-1.133M340.44 34.889c0 .626-.507 1.133-1.133 1.133M419.791 70.786v37.787M419.791 70.786h-2.645M419.791 108.572h-2.645M410.018 70.786h-2.268M410.018 108.572h-2.268M378.227 107.439v-35.52M379.36 70.786h28.391M408.884 71.919v35.52M407.75 108.572h-28.391M418.281 107.439v-35.52M417.147 70.786h-7.129M408.884 71.919v35.52M410.018 108.572h7.129M412.99 71.919v35.52M378.227 71.919c0-.626.507-1.133 1.133-1.133M407.75 70.786c.626 0 1.134.507 1.134 1.133M408.884 107.439c0 .626-.508 1.134-1.134 1.134M379.36 108.572a1.134 1.134 0 01-1.133-1.134M417.147 70.786c.626 0 1.134.507 1.134 1.133M408.884 71.919c0-.626.508-1.133 1.134-1.133M410.018 108.572a1.134 1.134 0 01-1.134-1.134M418.281 107.439c0 .626-.508 1.134-1.134 1.134M412.99 71.919c0-.626.508-1.133 1.134-1.133M414.123 108.572a1.134 1.134 0 01-1.134-1.134M39.477 276.907v-67.26m0 0H10.759m0 0v67.26m0 0h28.718M13.057 269.06l.087.974m0 0l.26.943m0 0l.423.886m0 0l.574.8m0 0l.708.691m0 0l.82.56m0 0l.907.413m0 0l.967.253m0 0l.997.085m0 0h12.636m0 0l.997-.085m0 0l.968-.253m0 0l.907-.413m0 0l.82-.56m0 0l.708-.691m0 0l.575-.8m0 0l.422-.886m0 0l.259-.943m0 0l.088-.974m0 0v-45.4m0 0l-.184-2.044m0 0l-.544-1.982m0 0l-.888-1.859m0 0l-1.206-1.681m0 0l-1.487-1.451m0 0l-1.722-1.177m0 0l-1.905-.866m0 0l-2.032-.532m0 0l-2.093-.178m0 0l-2.095.178m0 0l-2.031.532m0 0l-1.906.866m0 0l-1.721 1.177m0 0l-1.487 1.451m0 0l-1.207 1.681m0 0l-.887 1.859m0 0l-.545 1.982m0 0l-.183 2.044m0 0v45.4"/><path class="st3" d="M26.063 267.838a.944.944 0 11-1.889 0 .944.944 0 011.889 0zM62.316 252.469l-.469-1.645m0 0l-.718-1.552m0 0l-.967-1.23m0 0l-1.249-.943m0 0l-1.448-.593m0 0l-1.55-.206m0 0l-1.552.206m0 0l-1.447.593m0 0l-1.249.943m0 0l-.967 1.23m0 0l-.719 1.552m0 0l-.469 1.645m0 0l-.207 1.697m0 0l.059 1.71m0 0l1.223 11.584m0 0h10.654m0 0l1.223-11.584m0 0l.059-1.71m0 0l-.207-1.697M51.797 261.739h4.117M55.914 261.739h4.116M52.85 247.472c.89-.57 1.962-.88 3.064-.886M49.602 254.301c-.165-2.591 1.031-5.106 3.248-6.83M51.797 261.739c-1.505-2.253-2.266-4.828-2.195-7.437M62.226 254.301c.07 2.61-.689 5.185-2.195 7.437M58.978 247.472c2.217 1.723 3.413 4.239 3.248 6.83M55.914 246.585a5.751 5.751 0 013.063.886M51.266 267.46h9.296m0 0v-.189m0 0h-9.296m0 0v.189M65.361 267.46H46.467M65.361 271.994H46.467M65.361 267.46v4.534M46.467 267.46v4.534M80.097 267.46h29.096m0 0l.4-.166m0 0l.166-.401m0 0v-14.358m0 0l-.166-.401m0 0l-.4-.166m0 0H80.097m0 0l-.4.166m0 0l-.166.401m0 0v14.358m0 0l.166.401m0 0l.4.166M81.231 263.304h12.96m.907 0h12.961M108.625 262.737v-9.069M108.059 253.101H81.231M80.664 253.668v9.069M108.625 262.737a.566.566 0 01-.566.567M108.059 253.101c.313 0 .566.254.566.567M80.664 253.668c0-.313.253-.567.566-.567M81.231 263.304a.566.566 0 01-.566-.567M95.401 260.212a.754.754 0 01-.302.604v-1.21a.76.76 0 01.302.606zm-1.21.604a.757.757 0 010-1.209v1.209zM95.098 266.931h-.906m0 0v-7.748m0 0l.256-.301m0 0h.394m0 0l.256.301m0 0v7.748M93.889 266.931h1.512m0 0v.265m0 0h-1.512m0 0v-.265M93.511 267.196h2.268m0 0v.264m0 0h-2.268m0 0v-.264M91.376 265.571v1.625m0 0h.095m0 0v.132m0 0h.283m0 0v.132m0 0h-1.89m0 0v-.132m0 0h.284m0 0v-.132m0 0h.094m0 0v-1.625m0 0h.322m0 0v-.416m0 0h-1.078m0 0v-.491m0 0h2.646m0 0v.491m0 0h-1.077m0 0v.416m0 0h.321M97.913 265.571v1.625m0 0h-.095m0 0v.132m0 0h-.283m0 0v.132m0 0h1.89m0 0v-.132m0 0h-.283m0 0v-.132m0 0h-.095m0 0v-1.625m0 0h-.322m0 0v-.416m0 0h1.078m0 0v-.491m0 0h-2.646m0 0v.491m0 0h1.077m0 0v.416m0 0h-.321M90.564 265.155l.072-.072M91.055 265.155l-.072-.072M90.564 265.571h.491M90.242 267.196h1.135M91.471 267.328h-1.322M98.726 265.155l-.072-.072M98.235 265.155l.072-.072M98.726 265.571h-.491M99.047 267.196h-1.134M97.819 267.328h1.322M91.055 264.91a.245.245 0 11-.491 0 .246.246 0 11.491 0zM98.726 264.91a.246.246 0 11-.491 0 .246.246 0 01.491 0zM345.545 424.651h78.029m0 0v27.584m0 0h-78.029m0 0v-27.584M354.649 450.028l-1.129-.084m0 0l-1.095-.249m0 0l-1.027-.406m0 0l-.929-.552m0 0l-.8-.68m0 0l-.651-.787m0 0l-.478-.872m0 0l-.294-.929m0 0l-.099-.958m0 0v-12.137m0 0l.099-.958m0 0l.294-.929m0 0l.478-.871m0 0l.651-.788m0 0l.8-.68m0 0l.929-.552m0 0l1.027-.406m0 0l1.095-.249m0 0l1.129-.084m0 0h52.67m0 0l2.371.176m0 0l2.299.523m0 0l2.157.854m0 0l1.95 1.158m0 0l1.683 1.428m0 0l1.365 1.654m0 0l1.007 1.83m0 0l.615 1.951m0 0l.208 2.012m0 0l-.208 2.012m0 0l-.615 1.95m0 0l-1.007 1.831m0 0l-1.365 1.654m0 0l-1.683 1.428m0 0l-1.95 1.158m0 0l-2.157.853m0 0l-2.299.523m0 0l-2.371.176m0 0h-52.67M355.559 438.443a.944.944 0 11-1.889 0 .944.944 0 011.889 0zM342.523 500.602v30.229M291.511 524.218a.945.945 0 11-1.89 0 .945.945 0 011.89 0zM312.98 517.847l-1.396-.372m0 0l-1.209-.793m0 0l-.898-1.132m0 0l-.496-1.358m0 0l-.043-1.445m0 0l.413-1.385m0 0l.829-1.184m0 0l1.159-.864m0 0l1.372-.455m0 0h1.446m0 0l1.372.455m0 0l1.159.864m0 0l.828 1.184m0 0l.414 1.385m0 0l-.044 1.445m0 0l-.495 1.358m0 0l-.898 1.132m0 0l-1.209.793m0 0l-1.397.372m0 0v5.538m0 0l.456-.108m0 0l.489-.037m0 0l.489.037m0 0l.456.108m0 0l.391.172m0 0l.3.225m0 0l.189.261m0 0l.064.28m0 0v.403m0 0l-.019.12m0 0l-.064.278m0 0l-.054.103m0 0l-.181.251m0 0l-.078.07m0 0l-.275.205m0 0l-.356.157m0 0l-.195.052m0 0l-.25.059m0 0l-.02.688m0 0l-.01.796m0 0h1.729m0 0v.435m0 0h2.872m0 0l.159.058m0 0l.084.149m0 0l-.033.166m0 0l-.134.106m0 0l-.485.157m0 0l-.727.315m0 0l-1.007.574m0 0l-.729.258m0 0v.125m0 0h.605m0 0v.982m0 0h-2.57m0 0v-.877m0 0l-.024-.011m0 0l-.039-.027m0 0l-.032-.034m0 0l-.025-.04m0 0l-.279-.673m0 0h-.697m0 0v1.36m0 0h1.059m0 0v.302m0 0h-3.024m0 0v-.302m0 0h1.058m0 0v-1.36m0 0h-1.436m0 0v-.152m0 0h-.415m0 0v.303m0 0h.151m0 0v.529m0 0h.605m0 0v.982m0 0h-2.57m0 0v-.982m0 0h.604m0 0v-.529m0 0h.152m0 0v-.303m0 0h-.152m0 0v-1.511m0 0h2.571m0 0v-2.154m0 0h.022m0 0h.06m0 0h.093m0 0h.124m0 0h.149m0 0h.042m0 0v-7.504M315.323 529.168h-.209m-.001 0l.14.341m.001 0l.326.053m-.001 0l.008-.002m0 0v-.241m0 0h.151m0 0v-.302m0 0h-.416m.001 0v.151M316.797 529.017v.241m0 0l.676-.24m0 0l.988-.563m0 0l.053-.023m0 0h-1.567m0 0v.585m0 0h-.15M310.94 529.848v-.529M310.26 529.848v-.529M316.597 529.848h.351M315.738 529.319h.19M315.928 529.319h.68M316.608 529.319h.015M315.928 529.495v-.176M316.608 529.324v-.005M316.797 529.017h-1.059M314.445 527.505h-.558M316.948 528.431v-.491M314.378 526.938h-.491M319.744 527.952l.076-.012M315.594 530.056l-.047-.002M315.764 530.024l-.17.031M315.049 529.972l-.047-.01M315.002 529.962l-.02-.009M316.948 529.724l-.453.161M316.495 529.884l-.73.139M315.639 529.551l-.06.011M319.744 527.952l-.513.167M319.232 528.119l-.718.312M316.537 529.867h-.001M315.547 530.054l-.498-.082M313.889 525.45l-.002.002M313.887 525.981l.002.001M315.323 528.621v.127M315.323 528.866v.103M315.323 528.748v.118M315.113 529.168h-.522M316.361 529.411l-.722.14M316.797 529.257l-.437.154M314.643 528.535h.108a.108.108 0 10-.216 0 .108.108 0 00.216 0h-.108zM314.734 528.579l-.091-.044M314.831 528.594l-.098-.015M314.93 528.579l-.099.015M315.021 528.535l-.091.044M315.021 528.535h.001M315.176 526.038l-.345.026M314.831 526.065l-.344-.027M315.248 526.021l-.072.017M314.166 525.962l-.196-.052M314.487 526.038l-.32-.076M315.201 528.367l.009-.062M313.97 525.91l-.083-.036M314.415 526.021l.02.688M314.454 528.305l.01.062M314.463 528.367l.026.058M314.49 528.425l.041.049M314.531 528.475l.056.038M314.586 528.513l.057.021M314.643 528.534l.007.003M314.65 528.537l.068.008M314.718 528.545h.228M314.946 528.545l.068-.008M315.014 528.537l.007-.003M315.022 528.534l.056-.021M315.078 528.513l.055-.038M315.132 528.475l.042-.049M315.174 528.425l.026-.058M314.435 526.709l.019 1.596M315.219 527.505l-.01.801M315.323 527.808h-.107M314.448 527.808h-.561M312.98 517.847v-5.343M313.887 517.847v-5.343M312.98 512.504h.907M309.919 529.848h1.36M310.071 529.319h1.059M310.071 529.017h1.059M311.544 529.017v-1.209M315.323 527.808v1.209M312.98 530.528h.907M312.98 529.168v-3.816M313.887 523.385v5.783M311.544 527.808h1.436M312.49 527.505h.49M312.49 526.938h.49M314.378 527.505v-1.493M312.98 515.17a1.888 1.888 0 11.907-3.668 1.89 1.89 0 010 3.668M311.544 528.48a.34.34 0 110-.589M367.339 472.996l1.645-.469m0 0l1.551-.718m0 0l1.23-.967m0 0l.943-1.249m0 0l.594-1.448m0 0l.206-1.551m0 0l-.206-1.551m0 0l-.594-1.447m0 0l-.943-1.249m0 0l-1.23-.967m0 0l-1.551-.719m0 0l-1.645-.469m0 0l-1.698-.207m0 0l-1.709.059m0 0l-11.584 1.223m0 0v10.654m0 0l11.584 1.223m0 0l1.709.06m0 0l1.698-.208M358.069 462.478v4.116M358.069 466.594v4.117M372.336 463.53c.57.889.88 1.961.886 3.063M365.506 460.282c2.591-.165 5.106 1.031 6.83 3.248M358.069 462.478c2.253-1.506 4.828-2.266 7.437-2.195M365.506 472.906c-2.609.07-5.185-.69-7.437-2.195M372.336 469.657c-1.724 2.217-4.239 3.413-6.83 3.249M373.222 466.594a5.737 5.737 0 01-.886 3.063M352.348 461.946v9.295m0 0h.188m0 0v-9.295m0 0h-.188M352.348 476.041v-18.894M347.813 476.041v-18.894M352.348 476.041h-4.535M352.348 457.147h-4.535M342.523 439.199v30.607m0 0l-.166.401m0 0l-.4.166m0 0h-15.115m0 0l-.401-.166m0 0l-.166-.401m0 0v-30.607m0 0l.166-.401m0 0l.401-.166m0 0h15.115m0 0l.4.166m0 0l.166.401M338.367 440.333v13.716m0 .906v13.716M337.8 469.239h-9.825M327.409 468.672v-28.339M327.975 439.766h9.825M338.367 468.672a.567.567 0 01-.566.567M327.975 469.239a.567.567 0 01-.566-.567M327.409 440.333c0-.313.254-.567.566-.567M337.8 439.766c.312 0 .566.254.566.567M335.674 454.955a.754.754 0 01-1.209 0h1.209zm-1.209-.906a.755.755 0 011.209 0h-1.209zM341.994 454.956v-.907m0 0h-7.749m0 0l-.301.256m.001 0v.395m0 0l.301.256m-.001 0h7.749M341.994 453.747v1.511m0 0h.264m0 0v-1.511m0 0h-.264M342.258 453.369v2.267m0 0h.265m0 0v-2.267m0 0h-.265M340.633 451.234h1.625m0 0v.095m0 0h.133m0 0v.283m0-.001h.132m0 0v-1.889m0 0h-.132m0 0v.283m0 .001h-.133m0 0v.095m0 0h-1.625m0 0v.321m0-.001h-.415m0 0v-1.077m0 .001h-.491m0 0v2.645m0 0h.491m0 0v-1.077m0-.001h.415m0 0v.321M340.633 457.771h1.625m0 0v-.095m0 0h.133m0 0v-.283m0 0h.132m0 0v1.889m0 0h-.132m0 0v-.283m0 0h-.133m0 0v-.095m0 0h-1.625m0 0v-.321m0 0h-.415m0 0v1.077m0 0h-.491m0 0v-2.645m0 0h.491m0 0v1.077m0 0h.415m0 0v-.321M340.218 450.421l-.072.072M340.218 450.913l-.072-.072M340.633 450.421v.492M342.258 450.1v1.133M342.391 451.328v-1.322M340.218 458.584l-.072-.072M340.218 458.092l-.072.072M340.633 458.584v-.493M342.258 458.904v-1.133M342.391 457.676v1.323M340.218 450.667a.246.246 0 11-.492 0 .246.246 0 01.492 0zM340.218 458.337a.246.246 0 11-.492 0 .246.246 0 01.492 0zM322.997 489.149l-1.646-.469m0 0l-1.551-.718m0 0l-1.23-.968m0 0l-.943-1.248m0 .001l-.594-1.448m0 0l-.205-1.551m0-.001l.205-1.551m0 0l.594-1.448m0 0l.943-1.248m0 .001l1.23-.967m0-.001l1.551-.719m0 .001l1.646-.469m0-.001l1.697-.207m0 0l1.709.059m0 0l11.585 1.223m0 .001v10.654m0-.001l-11.585 1.223m0 0l-1.709.06m0 .001l-1.697-.208M332.267 478.631l.001 4.117M332.268 482.748v4.117M317.114 482.748a5.747 5.747 0 01.887-3.064M318 479.684c1.723-2.217 4.238-3.413 6.83-3.248M324.83 476.436c2.609-.071 5.184.689 7.437 2.195M332.268 486.864c-2.254 1.505-4.828 2.265-7.437 2.195M324.83 489.059c-2.592.166-5.107-1.031-6.83-3.248M318 485.811a5.752 5.752 0 01-.887-3.063M337.988 478.1v9.295m0 0h-.188m.001 0V478.1m0 0h.188M337.988 492.194v-18.893M342.523 492.194v-18.893M337.988 492.194h4.534M337.988 473.301h4.534M358.149 198.313v3.027m0-.001h-.858m0 0h-17.176m0 0h-.859m0 0v-3.027M339.256 204.767v-3.427m0 0h.858m0 0v3.224m0 0h-.057m0 0l-.293-.196m0 0l-.343.087m0 0l-.165.312M340.057 207.125l-.293-.196m0 .001l-.343.086m0 0l-.165.313m0-.001v-2.562m0 .001l.165-.312m0 0l.343-.087m0 0l.293.196m0 0h17.291m0 0l.294-.196m0 0l.343.087m0 0l.164.312m0 0v2.562m0-.001l-.164-.313m0 .001l-.343-.086m0 0l-.294.196m0-.001h-17.291M358.149 204.767l-.164-.312m0 0l-.343-.087m0 0l-.294.196m0 0h-.057m0 0v-3.224m0 0h.858m0 0v3.427M340.919 207.531h15.566m0 0l-1.004.227m0 0h-13.557m0 0l-1.005-.227M340.057 207.531l-.293.196m0 0l-.343-.087m0 0l-.165-.312m0 0l.165-.313m0 0l.343-.086m0 0l.293.196m0 0h17.291m0 0l.294-.196m0 0l.343.086m0 0l.164.313m0 0l-.164.312m0 0l-.343.087m0 0l-.294-.196m0 0h-17.291M380.066 198.313v3.027m0-.001h-.858m0 0h-17.176m0 0h-.86m0 0v-3.027M361.172 204.767v-3.427m0 0h.859m0 0v3.224m0 0h-.057m0 0l-.294-.196m0 0l-.343.087m0 0l-.165.312M361.974 207.125l-.294-.196m0 .001l-.343.086m0 0l-.165.313m0-.001v-2.562m0 .001l.165-.312m0 0l.343-.087m0 0l.294.196m0 0h17.29m0 0l.294-.196m0 0l.343.087m0 0l.165.312m0 0v2.562m0-.001l-.165-.313m0 .001l-.343-.086m0 0l-.294.196m0-.001h-17.29M380.066 204.767l-.165-.312m0 0l-.343-.087m0 0l-.294.196m0 0h-.056m0 0v-3.224m0 0h.858m0 0v3.427M362.836 207.531h15.565m0 0l-1.004.227m0 0h-13.556m0 0l-1.005-.227M361.974 207.531l-.294.196m0 0l-.343-.087m0 0l-.165-.312m0 0l.165-.313m0 0l.343-.086m0 0l.294.196m0 0h17.29m0 0l.294-.196m0 0l.343.086m0 0l.165.313m0 0l-.165.312m0 0l-.343.087m0 0l-.294-.196m0 0h-17.29M358.149 164.306v-3.03m0-.001h-.858m0 0h-17.176m0 0h-.859m0 0v3.03M339.256 157.848v3.427m0 0h.858m0 0v-3.224m0 0h-.057m0 0l-.293.196m0 0l-.343-.087m0 0l-.165-.312M340.057 155.489l-.293.196m0 0l-.343-.087m0 0l-.165-.312m0 0v2.562m0 0l.165.312m0 0l.343.087m0 0l.293-.196m0 0h17.291m0 0l.294.196m0 0l.343-.087m0 0l.164-.312m0 0v-2.562m0 0l-.164.312m0 0l-.343.087m0 0l-.294-.196m0 0h-17.291M358.149 157.848l-.164.312m0 0l-.343.087m0 0l-.294-.196m0 0h-.057m0 0v3.224m0 0h.858m0 0v-3.427M340.919 155.084h15.566m0 0l-1.004-.227m0 0h-13.557m0 0l-1.005.227M340.057 155.084l-.293-.197m0 0l-.343.087m0 0l-.165.312m0 0l.165.313m0 0l.343.087m0 0l.293-.197m0 0h17.291m0 0l.294.197m0 0l.343-.087m0 0l.164-.313m0 0l-.164-.312m0 0l-.343-.087m0 0l-.294.197m0 0h-17.291M380.066 164.306v-3.03m0-.001h-.858m0 0h-17.176m0 0h-.86m0 0v3.03M361.172 157.848v3.427m0 0h.859m0 0v-3.224m0 0h-.057m0 0l-.294.196m0 0l-.343-.087m0 0l-.165-.312M361.974 155.489l-.294.196m0 0l-.343-.087m0 0l-.165-.312m0 0v2.562m0 0l.165.312m0 0l.343.087m0 0l.294-.196m0 0h17.29m0 0l.294.196m0 0l.343-.087m0 0l.165-.312m0 0v-2.562m0 0l-.165.312m0 0l-.343.087m0 0l-.294-.196m0 0h-17.29M380.066 157.848l-.165.312m0 0l-.343.087m0 0l-.294-.196m0 0h-.056m0 0v3.224m0 0h.858m0 0v-3.427M362.836 155.084h15.565m0 0l-1.004-.227m0 0h-13.556m0 0l-1.005.227M361.974 155.084l-.294-.197m0 0l-.343.087m0 0l-.165.312m0 0l.165.313m0 0l.343.087m0 0l.294-.197m0 0h17.29m0 0l.294.197m0 0l.343-.087m0 0l.165-.313m0 0l-.165-.312m0 0l-.343-.087m0 0l-.294.197m0 0h-17.29M383.089 198.313v3.027m0-.001h.858m0 0h17.176m0 0h.859m0 0v-3.027M401.982 204.767v-3.427m0 0h-.858m0 0v3.224m0 0h.057m0 0l.294-.196m0 0l.342.087m0 0l.165.312M401.181 207.125l.294-.196m0 .001l.342.086m0 0l.165.313m0-.001v-2.562m0 .001l-.165-.312m0 0l-.342-.087m0 0l-.294.196m0 0H383.89m0 0l-.293-.196m0 0l-.343.087m0 0l-.165.312m0 0v2.562m0-.001l.165-.313m0 .001l.343-.086m0 0l.293.196m0-.001h17.291M383.089 204.767l.165-.312m0 0l.343-.087m0 0l.293.196m0 0h.057m0 0v-3.224m0 0h-.858m0 0v3.427M400.319 207.531h-15.565m0 0l1.003.227m0 0h13.557m0 0l1.005-.227M401.181 207.531l.294.196m0 0l.342-.087m0 0l.165-.312m0 0l-.165-.313m0 0l-.342-.086m0 0l-.294.196m0 0H383.89m0 0l-.293-.196m0 0l-.343.086m0 0l-.165.313m0 0l.165.312m0 0l.343.087m0 0l.293-.196m0 0h17.291M383.089 164.306v-3.03m0-.001h.858m0 0h17.176m0 0h.859m0 0v3.03M401.982 157.848v3.427m0 0h-.858m0 0v-3.224m0 0h.057m0 0l.294.196m0 0l.342-.087m0 0l.165-.312M401.181 155.489l.294.196m0 0l.342-.087m0 0l.165-.312m0 0v2.562m0 0l-.165.312m0 0l-.342.087m0 0l-.294-.196m0 0H383.89m0 0l-.293.196m0 0l-.343-.087m0 0l-.165-.312m0 0v-2.562m0 0l.165.312m0 0l.343.087m0 0l.293-.196m0 0h17.291M383.089 157.848l.165.312m0 0l.343.087m0 0l.293-.196m0 0h.057m0 0v3.224m0 0h-.858m0 0v-3.427M400.319 155.084h-15.565m0 0l1.003-.227m0 0h13.557m0 0l1.005.227M401.181 155.084l.294-.197m0 0l.342.087m0 0l.165.312m0 0l-.165.313m0 0l-.342.087m0 0l-.294-.197m0 0H383.89m0 0l-.293.197m0 0l-.343-.087m0 0l-.165-.313m0 0l.165-.312m0 0l.343-.087m0 0l.293.197m0 0h17.291M410.332 164.306v34.007m0 0h-79.351m0 0v-34.007m0 0h79.351M109.759 259.903h19.649m0 0v7.557m0 0h-19.649m0 0v-7.557M388.135 580.794l6.947 6.948M396.685 587.741l2.803-2.802M399.488 584.939l1.603 1.604M401.09 586.543l17.635-17.635M418.725 568.908l-1.604-1.604M417.121 567.305l1.474-1.473M418.594 564.229l-6.946-6.947M410.044 558.885l6.947 6.947M402.724 566.206l6.946 6.947M399.488 584.939l17.634-17.634M388.135 580.794l-6.947-6.946M381.188 572.244l2.803-2.802M383.991 569.442l-1.605-1.603M382.387 567.839l17.635-17.634M400.022 550.205l1.603 1.603M401.624 551.808l1.474-1.473M404.701 550.335l6.947 6.947M410.044 558.885l-6.946-6.947M402.724 566.206l-6.947-6.947M383.991 569.442l17.634-17.634M396.685 587.741a1.133 1.133 0 01-1.603 0M418.594 564.229c.443.443.443 1.16 0 1.603M418.594 565.832a1.135 1.135 0 01-1.603 0M411.274 573.153a1.134 1.134 0 01-1.604 0M381.188 573.848a1.136 1.136 0 010-1.604M403.098 550.335a1.135 1.135 0 011.603 0M403.098 551.938a1.133 1.133 0 010-1.603M395.777 559.259a1.136 1.136 0 010-1.604M307.193 284.653h19.271m0 0l.535.221m0 0l.22.535m0 0v17.381m0 0l-.22.535m0 0l-.535.221m0 0h-19.271m0 0l-.534-.221m0 0l-.222-.535m0 0v-17.381m0 0l.222-.535m0 0l.534-.221M299.824 281.819h34.009M299.824 304.49h34.009M299.824 281.819v22.671M333.832 281.819v22.671M309.082 286.542h15.492M325.33 287.298v11.714M324.575 299.768h-7.002m-1.489 0h-7.002M308.327 299.012v-11.714M309.082 286.542h.108a.108.108 0 10-.216 0 .108.108 0 00.216 0h-.108zM324.575 286.542c.417 0 .756.339.756.756M325.33 299.012a.757.757 0 01-.756.756M309.082 299.768a.756.756 0 01-.756-.756M308.327 287.298c0-.417.338-.756.756-.756M316.488 294.935l.101-.241m0 0l.241-.098m0 0l.24.1m0 0l.099.24m0 0v7.477m0 0l-.1.24m0 0l-.24.099m0 0l-.24-.099m0 0l-.101-.24m0 0v-7.478M316.074 300.485h.414m-.001 0v1.927m0 0l.101.24m.001 0l.24.1m-.001.001l.24-.1m.001-.001l.1-.24m0 0v-1.927m0 0h.414m-.001 0v2.456m0 0h-1.509m.001 0v-2.456M316.084 299.125h.403m0 0v1.322m0 0h-.403m0 0v-1.322M317.573 299.125v1.322m0 0h-.404m0 0v-1.322m0 0h.404M333.832 281.819h22.672M333.832 304.49h22.672M333.832 281.819v22.671M356.504 281.819v22.671M423.575 281.819h-22.672m0 0v22.671m0 0h22.672m0 0v-22.671M372.941 283.897h21.916m0 0v18.516m0 0h-21.916m0 0v-18.516M383.899 295.177v5.299M383.899 300.476h1.096M383.899 295.177h1.096M392.753 295.177v5.299M391.657 300.476h1.097M391.657 295.177h1.097M380.392 298.043a2.74 2.74 0 11-5.479 0 2.74 2.74 0 015.479 0zM382.892 289.803a3.967 3.967 0 11-7.935.001 3.967 3.967 0 017.935-.001z"/><path class="st3" d="M381.191 289.803a2.268 2.268 0 11-4.536 0 2.268 2.268 0 014.536 0zM390.971 297.858a2.646 2.646 0 11-5.291-.001 2.646 2.646 0 015.291.001zM392.844 289.267a3.4 3.4 0 11-6.8 0 3.4 3.4 0 016.8 0zM366.895 281.819h34.008M366.895 304.49h34.008M366.895 281.819v22.671M400.903 281.819v22.671M277.153 281.819h22.672m-.001 0v22.671m0 0h-22.672m.001 0v-22.671M288.488 296.934v-7.558M285.817 295.827l5.344-5.344M284.71 293.155h7.557M285.817 290.483l5.344 5.344M356.504 281.819h10.391M356.504 304.49h10.391M356.504 281.819v22.671M366.895 281.819v22.671M364.439 532.342v-50.633M345.545 532.342v-50.633M364.439 481.709h-18.894M364.439 532.342h-18.894M361.227 528.374v-17.382M361.227 510.993h-12.469M348.758 510.993v8.237m0 .906v8.238M348.758 528.374h12.469M361.227 503.058v-17.382M361.227 485.676h-12.469M348.758 485.676v8.238m0 .906v8.238M348.758 503.058h12.469M352.59 520.136a1.134 1.134 0 01-2.079 0h2.079zm-2.079-.907a1.134 1.134 0 012.078 0h-2.078zM352.59 494.82a1.134 1.134 0 01-2.079 0h2.079zm-2.08-.906a1.134 1.134 0 012.079 0h-2.079zM346.075 519.23v.907m0 .001h7.749m0 0l.301-.257m-.001-.001v-.394m0 0l-.301-.256m.001 0h-7.749M346.075 520.439v-1.512m0 0h-.264m-.001 0v1.512m0 0h.264M345.811 520.818v-2.268m0 0h-.266m0 0v2.268m0 0h.266M347.435 522.952h-1.624m0 0v-.094m0 0h-.133m0 0v-.284m0 0h-.133m0 0v1.89m0 0h.133m0 0v-.284m0 0h.133m0 0v-.094m0 0h1.624m0 0v-.322m0 0h.416m0 0v1.077m0 0h.491m0 0v-2.645m0 0h-.491m0 0v1.077m0 0h-.416m0 0v-.321M347.435 516.415h-1.624m0 0v.095m0 0h-.133m0 0v.283m0 0h-.133m0 0v-1.889m0 0h.133m0 0v.283m0 0h.133m0 0v.095m0 0h1.624m0 0v.321m0 0h.416m0 0v-1.077m0 0h.491m0 0v2.645m0 0h-.491m0 0v-1.077m0 0h-.416m0 0v.321M346.075 493.914v.907m0 0h7.749m0 0l.301-.256m-.001 0v-.396m0 0l-.301-.255m.001 0h-7.749M346.075 495.123v-1.511m0 0h-.264m-.001 0v1.511m0 0h.264M345.811 495.501v-2.267m0 0h-.266m0 0v2.267m0 0h.266M347.435 497.635h-1.624m0 0v-.095m0 0h-.133m0 0v-.283m0 0h-.133m0 0v1.889m0 0h.133m0 0v-.283m0 0h.133m0 0v-.094m0 0h1.624m0 0v-.322m0 0h.416m0 0v1.077m0 0h.491m0 0v-2.644m0 0h-.491m0 0v1.076m0 0h-.416m0 0v-.321M347.435 491.099h-1.624m0 0v.094m0 0h-.133m0 0v.283m0 0h-.133m0 0v-1.889m0 0h.133m0 0v.283m0 0h.133m0 0v.095m0 0h1.624m0 0v.322m0 0h.416m0 0v-1.078m0 0h.491m0 0v2.645m0 0h-.491m0 0v-1.077m0 0h-.416m0 0v.322M347.851 523.765l.072-.072M347.851 523.274l.072.072M347.435 523.765v-.491M345.811 524.086v-1.134M345.678 522.858v1.322M347.851 515.603l.072.072M347.851 516.094l.072-.072M347.435 515.603v.491M345.811 515.282v1.133M345.678 516.51v-1.323M347.851 498.448l.072-.072M347.851 497.957l.072.072M347.435 498.448v-.491M345.811 498.769v-1.134M345.678 497.541v1.323M347.851 490.286l.072.071M347.851 490.777l.072-.072M347.435 490.286v.491M345.811 489.965v1.134M345.678 491.193v-1.323M348.342 523.519a.246.246 0 11-.492 0 .246.246 0 01.492 0zM348.342 515.848a.246.246 0 11-.492 0 .246.246 0 01.492 0zM348.342 498.202a.246.246 0 11-.492 0 .246.246 0 01.492 0zM348.342 490.531a.246.246 0 11-.492 0 .246.246 0 01.492 0zM36.437 298.445a7.18 7.18 0 11-14.36 0 7.18 7.18 0 0114.36 0zM359.375 89.847c0 7.22-5.853 13.073-13.073 13.073-7.22 0-13.073-5.853-13.073-13.073 0-7.22 5.853-13.073 13.073-13.073 7.219 0 13.073 5.853 13.073 13.073zM345.423 291.214a3.412 3.412 0 11-6.823-.001 3.412 3.412 0 016.823.001z"/><path class="st3" d="M344.902 291.214a2.89 2.89 0 11-5.78 0 2.89 2.89 0 015.78 0zM350.899 290.382a2.579 2.579 0 11-5.158 0 2.579 2.579 0 115.158 0z"/><path class="st3" d="M349.765 290.382a1.445 1.445 0 11-2.89 0 1.445 1.445 0 012.89 0zM391.491 592.611c0 7.22-5.853 13.073-13.073 13.073-7.22 0-13.073-5.853-13.073-13.073 0-7.22 5.853-13.073 13.073-13.073 7.22 0 13.073 5.853 13.073 13.073zM23.985 121.048a3.78 3.78 0 11-7.558 0 3.78 3.78 0 017.558 0z"/><path class="st3" d="M21.339 121.048a1.134 1.134 0 11-2.267 0 1.134 1.134 0 012.267 0zM23.985 32.251a3.779 3.779 0 11-7.558-.002 3.779 3.779 0 017.558.002z"/><path class="st3" d="M21.339 32.251a1.134 1.134 0 11-2.267-.001 1.134 1.134 0 012.267.001zM152.836 121.048a3.78 3.78 0 11-7.558 0 3.78 3.78 0 017.558 0z"/><path class="st3" d="M150.191 121.048a1.134 1.134 0 11-2.269 0 1.134 1.134 0 012.269 0zM152.836 32.251a3.779 3.779 0 11-7.558-.002 3.779 3.779 0 017.558.002z"/><path class="st3" d="M150.191 32.251a1.134 1.134 0 11-2.268-.002 1.134 1.134 0 012.268.002zM322.497 316.96a3.78 3.78 0 11-7.558 0 3.78 3.78 0 017.558 0z"/><path class="st3" d="M319.851 316.96a1.134 1.134 0 11-2.267 0 1.134 1.134 0 012.267 0zM411.294 316.96a3.779 3.779 0 11-7.558 0 3.779 3.779 0 017.558 0z"/><path class="st3" d="M408.649 316.96a1.134 1.134 0 11-2.267.001 1.134 1.134 0 012.267-.001zM90.111 42.642v68.016m0 0H14.538m0 0V42.642m0 0h75.573M92 44.531v64.236m0 0l-.145.723m0 0l-.409.613m0 0l-.613.41m0 0l-.723.144m0 0V42.641m0 0l.723.144m0 0l.613.41m0 0l.409.613m0 0l.145.723M10.759 42.642v68.016m0 0h3.778m0 0V42.642m0 0h-3.778M10.759 110.657V42.641m0 0h1.89m0 0v68.016m0 0h-1.89M10.759 112.546v17.003m0 0h18.894m0 0v-17.003m0 0H10.759M10.759 40.752V23.749m0 0h18.894m0 0v17.004m0-.001H10.759M16.427 82.695v25.695m0 0l.111.267m0 0l.267.11m0 0h12.47m0 0l.266-.11m0 0l.112-.267m0 0V82.695m0 0l-.112-.268m0 0l-.266-.11m0 0h-12.47m0 0l-.267.11m0 0l-.111.268M16.427 70.604V44.909m0 0l.111-.268m0 .001l.267-.11m0 0h12.47m0 0l.266.11m0 0l.112.268m0-.001v25.694m0 .001l-.112.267m0 0l-.266.111m0-.001h-12.47m0 0l-.267-.111m0 .001l-.111-.267M28.629 42.642v1.89M28.629 70.981v11.336M28.629 108.768v1.89M33.638 42.642v68.016m0 0h18.687m0 0L37.417 42.642m0 0h-3.779M218.961 42.642v68.016m0 0h-75.572m0 0V42.642m0 0h75.572M220.851 44.531v64.236m0 0l-.144.723m0 0l-.409.613m0 0l-.613.41m0 0l-.724.144m0 0V42.641m0 0l.724.144m0 0l.613.41m0 0l.409.613m0 0l.144.723M139.611 42.642v68.016m0 0h3.778m0 0V42.642m0 0h-3.778M139.611 110.657V42.641m0 0h1.89m0 0v68.016m0 0h-1.89M139.611 112.546v17.003m0 0h18.893m0 0v-17.003m0 0h-18.893M139.611 40.752V23.749m0 0h18.893m0 0v17.004m0-.001h-18.893M145.279 82.695v25.695m0 0l.11.267m0 0l.268.11m0 0h12.469m0 0l.267-.11m0 0l.111-.267m0 0V82.695m0 0l-.111-.268m0 0l-.267-.11m0 0h-12.469m0 0l-.268.11m0 0l-.11.268M145.279 70.604V44.909m0 0l.11-.268m0 .001l.268-.11m0 0h12.469m0 0l.267.11m0 0l.111.268m0-.001v25.694m0 .001l-.111.267m0 0l-.267.111m0-.001h-12.469m0 0l-.268-.111m0 .001l-.11-.267M157.48 42.642v1.89M157.48 70.981v11.336M157.48 108.768v1.89M162.49 42.642v68.016m0 0h18.686m0 0l-14.908-68.016m0 0h-3.778M29.774 304.453l-.449-1.233m0 0v-1.313m0 0l.449-1.233m0 0l-.343-1.473m0 0v-1.512m0 0l.343-1.474m0 0l-.45-1.234m0 0v-1.314m0 0l.45-1.235m0 0l-2.988 2.232m0 0v7.558m0 0l2.988 2.231M26.525 302.222v-7.558m0 0h.261m0 0v7.558m0 0h-.261M26.001 302.222v-7.558m0 0h.262m0 0v7.558m0 0h-.262M31.288 297.602l.085.891m0 0l-.226.021m0 0l-.045-.476m0 0l-1.142 1.383m0 0l-.152-.126m0 0l.53-.642m0 0l-.082-.067m0 0l-.611.74m0 0l-.146-.121m0 0l.61-.74m0 0l-.097-.08m0 0l-.496.601m0 0l-.13-.108m0 0l.496-.601m0 0l-.098-.08m0 0l-.342.414m0 0l-.139-.115m0 0l1.174-1.422M40.593 309.781v-22.672m0 0H17.922m0 0v22.672m0 0h22.671M70.461 284.464H17.939m0 0v-4.534m0 0h52.522m0 0v4.534M17.939 284.464l52.522-4.534m0 0v4.534m0 0l-52.522-4.534m0 0v4.534M70.461 284.464v-13.981m0 0l58.947 13.981m0 0v-13.981m0 0l-58.947 13.981M70.461 270.483h58.947m0 0v13.981m0 0H70.461m0 0v-13.981M397.124 386.865h-68.016m0 0v-75.573m0 0h68.016m0 0v75.573M395.235 388.754h-64.236m0 0l-.723-.144m0 0l-.613-.409m0 0l-.41-.613m0 0l-.144-.723m0 0h68.016m0 0l-.144.723m0 0l-.41.613m0 0l-.612.409m0 0l-.724.144M397.124 307.514h-68.016m0 0v3.778m0 0h68.016m0 0v-3.778M329.109 307.514h68.016m0 0v1.889m0 0h-68.016m0 0v-1.889M327.219 307.514h-17.004m0 0v18.893m0 0h17.004m0 0v-18.893M399.013 307.514h17.005m0 0v18.893m0 0h-17.005m0 0v-18.893M357.071 313.182h-25.694m0 0l-.268.11m-.001 0l-.11.268m.001 0v12.469m0 0l.11.267m-.001 0l.268.111m.001 0h25.694m0 0l.268-.111m0 0l.11-.267m0 0V313.56m0 0l-.11-.268m0 0l-.268-.11M369.163 313.182h25.694m0 0l.268.11m0 0l.11.268m-.001 0v12.469m0 0l-.11.267m.001 0l-.268.111m0 0h-25.694m0 0l-.268-.111m-.001 0l-.11-.267m0 0V313.56m0 0l.11-.268m0 0l.268-.11M397.124 325.383h-1.89M368.784 325.383h-11.336M330.998 325.383h-1.89M397.124 330.393h-68.016m0 0v18.686m0 0l68.016-14.907m0 0v-3.779M267.152 578.441h68.016m0 0v75.572m0 0h-68.016m0 0v-75.572M269.041 576.552h64.236m0 0l.723.144m0 0l.613.41m0 0l.41.613m0 0l.144.723m.001 0h-68.016m-.001 0l.144-.723m0 0l.41-.613m.001 0l.612-.41m0 0l.724-.144M267.152 657.792h68.016m0 0v-3.779m0 .001h-68.016m0 0v3.779M335.167 657.792h-68.016m0 0v-1.889m0 0h68.016m0 0v1.889M337.056 657.792h17.004m0 0V638.9m0 0h-17.004m0 0v18.893M265.262 657.792h-17.004m0 0V638.9m0 0h17.004m0 0v18.893M307.205 652.125H332.9m0 0l.268-.111m-.001-.001l.11-.267m0 0v-12.469m0 0l-.11-.268m0 .001l-.268-.11m.001 0h-25.694m-.001 0l-.268.11m0 0l-.11.268m0-.001v12.469m0 0l.11.267m0 0l.268.111M295.114 652.125h-25.695m-.001 0l-.267-.111m.001-.001l-.11-.267m-.001 0v-12.469m0 0l.11-.268m.001.001l.267-.11m-.001 0h25.695m.001 0l.268.11m0 0l.11.268m0-.001v12.469m0 0l-.11.267m0 0l-.268.111M267.152 639.923h1.89M295.492 639.923h11.336M333.278 639.923h1.89M267.152 634.914h68.016m0 0v-18.686m0 0l-68.016 14.907m0 0v3.779M21.717 143.521h.756m0 0v51.389m0 0l-.756.756m0 0v-52.145M89.922 206.624v-22.672m0 0H33.431m0 0v-40.431m0 0H10.759m0 0v63.103m0 0h79.163M22.473 194.911l-.756.755m0 0h68.205m0 0v-.755m0 0H22.473M82.485 204.632v-18.626m0-.001h-.756m0 0v18.626m0 .001h.756M80.48 204.632v-18.626m0-.001h-.756m0 0v18.626m0 .001h.756M78.475 204.632v-18.626m0-.001h-.755m0 0v18.626m0 .001h.755M76.471 204.632v-18.626m0-.001h-.756m0 0v18.626m0 .001h.756M72.225 204.496l2.241-18.491m0 0l-.75-.091m0 0l-2.241 18.491m0 0l.75.091M109.759 265.949h19.649m0 0v-7.558m0 0h-19.649m0 0v7.558M258.637 182.819v22.671m0 0h-72.549m0 0v-22.671m0 0h72.549M186.088 194.533v-.756m0 0h72.549m0 0v.756m0 0h-72.549M249.689 184.811v18.626m0 .001h-.755m0 0v-18.626m0-.001h.755M247.684 184.811v18.626m0 .001h-.755m0 0v-18.626m0-.001h.755M245.68 184.811v18.626m0 .001h-.756m0 0v-18.626m0-.001h.756M243.675 184.811v18.626m0 .001h-.756m0 0v-18.626m0-.001h.756M239.429 184.947l2.241 18.491m0 0l-.75.091m0 0l-2.241-18.491m0 0l.75-.091M258.637 157.124v22.672m0 0h-72.549m0 0v-22.672m0 0h72.549M186.088 168.838v-.756m0 0h72.549m0 0v.756m0 0h-72.549M249.311 159.117v18.626m0 0h-.756m0 0v-18.626m0 0h.756M247.307 159.117v18.626m0 0h-.756m0 0v-18.626m0 0h.756M245.302 159.117v18.626m0 0h-.756m0 0v-18.626m0 0h.756M243.297 159.117v18.626m0 0h-.756m0 0v-18.626m0 0h.756M239.051 159.253l2.242 18.491m0 0l-.751.091m0 0l-2.241-18.491m0 0l.75-.091M261.661 152.412h18.516m0 0l-18.516-56.679m0 0h18.516m0 0l-18.516 56.679M280.176 152.412V95.733m0 0H261.66m0 0v56.679m0 0h18.516M261.661 209.091h18.516m0 0l-18.516-56.679m0 0h18.516m0 0l-18.516 56.679M280.176 209.091v-56.679m0 0H261.66m0 0v56.679m0 0h18.516M337.943 289.007h.963m0 0v-1.205m0 0h12.524m0 0v1.205m0 0h.963M339.407 299.011h9.634m-.001 0v-.478m0 0h-.723m.001 0v.238m0 0h-8.188m0 0v-.238m0 0h-.723m0 0v.478M339.407 298.533l.047-.104m.047-.103l.048-.103m.046-.103l.047-.103m.048-.103l.047-.103m.047-.103l.047-.103m.048-.103l.047-.103m.046-.103l.048-.104m.047-.103l.047-.103m.047-.103l.047-.103m.048-.103l.047-.103m.047-.103l.047-.104m.047-.103l.047-.103m.048-.103l.047-.103m.047-.103l.047-.103m.047-.103l.047-.103m.047-.103l.048-.103m.047-.103l.048-.104M349.04 298.533l-.048-.104m-.047-.103l-.047-.103m-.046-.103l-.047-.103m-.048-.103l-.047-.103m-.046-.103l-.048-.103m-.048-.103l-.047-.103m-.047-.103l-.047-.104m-.047-.103l-.048-.103m-.047-.103l-.047-.103m-.047-.103l-.047-.103m-.047-.103l-.047-.104m-.047-.103l-.047-.103m-.048-.103l-.047-.103m-.047-.103l-.047-.103m-.047-.103l-.047-.103m-.047-.103l-.047-.103m-.048-.103l-.048-.104M339.407 298.533h.078m.113 0h.114m.112 0h.113m.115 0h.078m0 0l.042-.052m.071-.088l.071-.088m.071-.088l.071-.088m.071-.088l.072-.088m.073-.088l.071-.088m.071-.088l.072-.088m.071-.088l.072-.088m.071-.088l.072-.088m.071-.088l.071-.088m.071-.088l.071-.088m.073-.088l.071-.088m.072-.088l.071-.088m.071-.088l.072-.088m.072-.088l.071-.088m.071-.088l.072-.088m.07-.088l.071-.088m.073-.088l.072-.088m.071-.088l.071-.088m.072-.088l.071-.088m.072-.088l.071-.088m.072-.088l.071-.088m.071-.088l.073-.088m.071-.088l.042-.052M349.04 298.533h-.078m-.112 0h-.114m-.114 0h-.113m-.114 0h-.078m0 0l-.042-.052m-.071-.088l-.071-.088m-.072-.088l-.071-.088m-.072-.088l-.071-.088m-.072-.088l-.071-.088m-.071-.088l-.072-.088m-.072-.088l-.071-.088m-.071-.088l-.072-.088m-.071-.088l-.072-.088m-.071-.088l-.072-.088m-.07-.088l-.071-.088m-.073-.088l-.071-.088m-.071-.088l-.071-.088m-.073-.088l-.071-.088m-.071-.088l-.072-.088m-.072-.088l-.071-.088m-.071-.088l-.072-.088m-.071-.088l-.072-.088m-.072-.088l-.071-.088m-.071-.088l-.071-.088m-.072-.088l-.071-.088m-.072-.088l-.072-.088m-.071-.088l-.042-.052M279.42 424.651h-22.672m0 0v107.69m0 .001h22.672m0 0v-107.69M267.706 532.342h.755m.001 0v-107.69m0 0h-.755m-.001 0v107.69M277.427 432.088h-18.626m0 0v.756m0 0h18.626m0 0v-.756M277.427 434.093h-18.626m0 0v.755m0 0h18.626m0 0v-.755M277.427 436.097h-18.626m0 0v.756m0 0h18.626m0 0v-.756M277.427 438.102h-18.626m0 0v.755m0 0h18.626m0 0v-.755M277.291 442.348l-18.49-2.241m0 0l-.092.75m0 0l18.491 2.241m0 0l.091-.75M260.149 307.514h22.672m0 0v62.536m0 0h-22.672m0 0v-62.536M271.863 370.05h-.756m0 0v-62.536m0 0h.756m0 0v62.536M262.142 314.95h18.626m0 0v.756m0 0h-18.626m0 0v-.756M262.142 316.955h18.626m0 0v.756m0 0h-18.626m0 0v-.756M262.142 318.96h18.626m0 0v.755m0 0h-18.626m0 0v-.755M262.142 320.965h18.626m0 0v.756m0 0h-18.626m0 0v-.756M262.278 325.211l18.49-2.242m0 0l.091.75m0-.001l-18.491 2.242m-.001.001l-.09-.75M267.152 562.414h68.016m0 0v12.785m0 0h-68.016m0 0v-12.785M21.066 124.728l-.86-3.679m0 0l-3.431-1.584m0 0l3.431 1.584m0 0l3.546-1.306M21.066 28.571l-.86 3.68m0 0l-3.431 1.583m0 0l3.431-1.583m0 0l3.546 1.305M149.917 124.728l-.86-3.679m0 0l-3.431-1.584m0 0l3.431 1.584m0 0l3.546-1.306M149.917 28.571l-.86 3.68m0 0l-3.431 1.583m0 0l3.431-1.583m0 0l3.546 1.305M315.038 317.82l3.679-.86m0 0l1.584-3.431m.001 0l-1.584 3.431m-.001 0l1.306 3.546M411.195 317.82l-3.679-.86m0 0l-1.584-3.431m0 0l1.584 3.431m0 0l-1.306 3.546M275.576 75.35l-.812 1.296m.001 0l-1.025 1.029m0 0l-.67.438m0 0l-.777.32m0 0l-1.019.164m-.001 0l-1.028-.097m.001 0l-1.045-.37m-.001 0l-.888-.65m0 0l-.85-1.244m0 0l-.801-1.291m0 0l-.925-.824m.001 0l-1.138-.493m-.001 0l-1.036-.138m0 0l-.916.048m.001 0l-.904.179M261.742 73.716l.62-.945m0 0l.752-.834m.001 0l1.023-.765m0 0l.99-.415m-.001 0l1.043-.166m.001 0l1.044.099m0 0l.991.376m0 0l.511.322M268.716 71.388l-.118-.453m0 0l-.481-.465m0 0l-.564-.269m0 0l-.267-.056M267.286 70.145l1.077-.843m0 0l1.132-.417m.001 0l1.212-.138m-.001 0l1.349.074m0 0l.641.171m.001 0l.592.299m-.001 0l.924.901m.001 0l.937 1.439m-.001 0l.824 1.779M275.975 73.41l-.654-.651m0 0l-1.322-.943m0 0l-.5-.249m0 0l-.536-.118m0 0l-.695.152m0 0l-.633.413m0 0l-.599.762m0 0l-.466.184m0 0l-.519.015m0 0l-.778-.164m0 0l-.909-.663M268.364 72.148l.12.646m0 0l.409.85m0 .001l.618.727m0 0l.475.404m0 0l.545.292m0 0l.513.108m0 0l.863-.032m0 0l1.088-.391M272.994 74.752l-.655.675m.001 0l-.924.319m-.001 0l-.776.029m.001 0l-.308-.065M270.332 75.71l.493.757m-.001.001l.575.513m0 0l.711.24m.001-.001l.552-.077m-.001.001l.52-.233m0 0l1.513-.987m0 0l.881-.574"/></g><g id="walls"><path class="st4" d="M28.65 8.058v13.603M28.65.501v5.668M28.65 6.169v1.889M111.781 8.058v13.603M111.781.501v5.668M111.781 6.169v1.889M111.781.501H28.65M111.781 21.661H28.65M111.781 8.058h-3.779M108.002 8.058V6.169M108.002 6.169h3.779M56.991 6.169h1.889M58.88 6.169v1.889M58.88 8.058h-1.889M108.002 7.114H58.88M108.002 8.058H58.88M58.88 6.169h49.122M56.991 8.058h-.945M56.046 8.058v-.944M56.046 7.114h-.944M55.101 7.114v-.945M55.101 6.169h1.89M28.65 6.169h3.779M32.429 6.169v.945M32.429 7.114h-.943M31.485 7.114v.944M31.485 8.058H28.65M32.429 6.169h22.672M53.212 9.003H34.319M56.046 9.003h-2.834M53.212 9.003V7.114M53.212 7.114h2.834M56.046 7.114v1.889M31.485 7.114h2.834M34.319 7.114v1.889M34.319 9.003h-2.834M31.485 9.003V7.114M34.319 7.114h18.893M53.212 9.003H34.319M53.212 8.058H34.319M111.781 6.169v1.889M111.781 6.169v1.889M111.781.501v5.668M111.781 8.058v13.603M28.65 6.169v1.889M28.65 6.169v1.889M28.65.501v5.668M28.65 8.058v13.603M111.781.501v21.16"/><g><path class="st4" d="M232.697 8.058v13.603M232.697.501v5.668M232.697 6.169v1.889M166.57 8.058v13.603M166.57.501v5.668M166.57 6.169v1.889M166.57.501h66.127M166.57 21.661h66.127M166.57 8.058h3.779M170.349 8.058V6.169M170.349 6.169h-3.779M204.357 6.169h-1.89M202.468 6.169v1.889M202.468 8.058h1.89M170.349 7.114h32.118M170.349 8.058h32.118M202.468 6.169H170.35M204.357 8.058h.944M205.302 8.058v-.944M205.302 7.114h.944M206.246 7.114v-.945M206.246 6.169h-1.889M232.697 6.169h-3.779M228.918 6.169v.945M228.918 7.114h.944M229.862 7.114v.944M229.862 8.058h2.835M228.918 6.169h-22.672M208.135 9.003h18.895M205.302 9.003h2.833M208.135 9.003V7.114M208.135 7.114h-2.834M205.302 7.114v1.889M229.862 7.114h-2.833M227.029 7.114v1.889M227.029 9.003h2.833M229.862 9.003V7.114M227.029 7.114h-18.894M208.135 9.003h18.895M208.135 8.058h18.895M166.57 6.169v1.889M166.57 6.169v1.889M166.57.501v5.668M166.57 8.058v13.603M232.697 6.169v1.889M232.697 6.169v1.889M232.697.501v5.668M232.697 8.058v13.603M232.697 21.661V.501"/></g><g><path class="st4" d="M344.166 8.058v13.603M344.166.501v5.668M344.166 6.169v1.889M278.04 8.058v13.603M278.04.501v5.668M278.04 6.169v1.889M278.04.501h66.126M278.04 21.661h66.126M278.04 8.058h3.779M281.819 8.058V6.169M281.819 6.169h-3.779M315.827 6.169h-1.89M313.937 6.169v1.889M313.937 8.058h1.89M281.819 7.114h32.118M281.819 8.058h32.118M313.937 6.169h-32.118M315.827 8.058h.944M316.771 8.058v-.944M316.771 7.114h.944M317.715 7.114v-.945M317.715 6.169h-1.889M344.166 6.169h-3.778M340.388 6.169v.945M340.388 7.114h.943M341.332 7.114v.944M341.332 8.058h2.834M340.388 6.169h-22.673M319.605 9.003h18.893M316.771 9.003h2.834M319.605 9.003V7.114M319.605 7.114h-2.834M316.771 7.114v1.889M341.332 7.114h-2.834M338.498 7.114v1.889M338.498 9.003h2.834M341.332 9.003V7.114M338.498 7.114h-18.893M319.605 9.003h18.893M319.605 8.058h18.893M278.04 6.169v1.889M278.04 6.169v1.889M278.04.501v5.668M278.04 8.058v13.603M344.166 6.169v1.889M344.166 6.169v1.889M344.166.501v5.668M344.166 8.058v13.603"/></g><g><path class="st4" d="M387.993 8.058v13.603M387.993.501v5.668M387.993 6.169v1.889M387.993.501h58.574M387.993 21.661h35.524M387.993 8.058h4.724M392.717 8.058V6.169M392.717 6.169h-4.724M439.01 6.169h-4.723M434.287 6.169v1.889M434.287 8.058h4.723M440.899 6.169h-1.89M392.717 8.058h41.57M434.287 6.169h-41.57M387.993 6.169v1.889M387.993 6.169v1.889M387.993.501v5.668M387.993 8.058v13.603M439.01 152.969h-15.492M446.567 152.969h-5.668M440.899 152.969h-1.89M446.567 152.969V.501M423.518 152.969V21.661M439.01 152.969v-4.724M439.01 148.245h1.89M440.899 148.245v4.724M440.899 8.058v4.723M440.899 12.781h-1.89M439.01 12.781V8.058M440.899 6.169v1.889M439.01 148.245V12.781M440.899 12.781v135.464M440.899 152.969h-1.89M440.899 152.969h-1.89M446.567 152.969h-5.668M439.01 152.969h-15.492"/></g><g><path class="st4" d="M439.01 198.312h-15.492M446.567 198.312h-5.668M440.899 198.312h-1.89M439.01 281.442h-15.492M446.567 281.442h-5.668M440.899 281.442h-1.89M446.567 281.442v-83.129M423.518 281.442v-83.129M439.01 281.442v-3.779M439.01 277.663h1.89M440.899 277.663v3.779M440.899 241.767v1.889M440.899 243.656h-1.89M439.01 243.656v-1.889M439.955 277.663v-34.007M439.01 277.663v-34.007M440.899 243.656v34.007M439.01 241.767v-.945M439.01 240.822h.944M439.955 240.822v-.945M439.955 239.877h.944M440.899 239.877v1.89M440.899 198.312v3.778M440.899 202.091h-.944M439.955 202.091v-.944M439.955 201.146h-.945M439.01 201.146v-2.834M438.065 201.146l-28.055 28.056M440.899 202.091v37.786M438.065 237.988V203.98M438.065 240.822v-2.834M438.065 237.988h1.89M439.955 237.988v2.834M439.955 240.822h-1.89M439.955 201.146v2.833M439.955 203.98h-1.89M438.065 203.98v-2.833M438.065 201.146h1.89M439.955 203.98v34.008M438.065 237.988V203.98M439.01 237.988V203.98M438.065 240.822a39.676 39.676 0 01-28.055-11.621M440.899 281.442h-1.89M440.899 281.442h-1.89M446.567 281.442h-5.668M439.01 281.442h-15.492M440.899 198.312h-1.89M440.899 198.312h-1.89M446.567 198.312h-5.668M439.01 198.312h-15.492M446.567 281.442h-23.05"/></g><g><path class="st4" d="M439.01 343.789h-15.492M446.567 343.789h-5.668M440.899 343.789h-1.89M439.01 409.915h-15.492M446.567 409.915h-5.668M440.899 409.915h-1.89M446.567 409.915V343.79M423.518 409.915V343.79M439.01 409.915v-3.778M439.01 406.137h1.89M440.899 406.137v3.779M440.899 372.129v1.89M440.899 374.018h-1.89M439.01 374.018v-1.889M439.955 406.137v-32.118M439.01 406.137v-32.118M440.899 374.018v32.119M439.01 372.129v-.944M439.01 371.185h.944M439.955 371.185v-.945M439.955 370.24h.944M440.899 370.24v1.889M440.899 343.789v3.779M440.899 347.568h-.944M439.955 347.568v-.944M439.955 346.624h-.945M439.01 346.624v-2.834M440.899 347.568v22.672M438.065 368.351v-18.894M438.065 371.185v-2.834M438.065 368.351h1.89M439.955 368.351v2.834M439.955 371.185h-1.89M439.955 346.624v2.833M439.955 349.457h-1.89M438.065 349.457v-2.833M438.065 346.624h1.89M439.955 349.457v18.894M438.065 368.351v-18.894M439.01 368.351v-18.894M440.899 409.915h-1.89M440.899 409.915h-1.89M446.567 409.915h-5.668M439.01 409.915h-15.492M440.899 343.789h-1.89M440.899 343.789h-1.89M446.567 343.789h-5.668M439.01 343.789h-15.492M446.567 409.915h-23.05"/></g><g><path class="st4" d="M439.01 456.015h-15.492M446.567 456.015h-5.668M440.899 456.015h-1.89M439.01 522.141h-15.492M446.567 522.141h-5.668M440.899 522.141h-1.89M446.567 522.141v-66.125M423.518 522.141v-66.125M439.01 522.141v-3.779M439.01 518.362h1.89M440.899 518.362v3.778M440.899 484.355v1.889M440.899 486.244h-1.89M439.01 486.244v-1.889M439.955 518.362v-32.118M439.01 518.362v-32.118M440.899 486.244v32.118M439.01 484.355v-.945M439.01 483.41h.944M439.955 483.41v-.944M439.955 482.466h.944M440.899 482.466v1.889M440.899 456.015v3.779M440.899 459.794h-.944M439.955 459.794v-.945M439.955 458.849h-.945M439.01 458.849v-2.834M440.899 459.794v22.672M438.065 480.576v-18.893M438.065 483.41v-2.834M438.065 480.576h1.89M439.955 480.576v2.834M439.955 483.41h-1.89M439.955 458.849v2.834M439.955 461.683h-1.89M438.065 461.683v-2.834M438.065 458.849h1.89M439.955 461.683v18.893M438.065 480.576v-18.893M439.01 480.576v-18.893M440.899 522.141h-1.89M440.899 522.141h-1.89M446.567 522.141h-5.668M439.01 522.141h-15.492M440.899 456.015h-1.89M440.899 456.015h-1.89M446.567 456.015h-5.668M439.01 456.015h-15.492M446.567 522.141h-23.05"/></g><g><path class="st4" d="M439.01 640.541h-15.492M446.567 640.541h-5.668M440.899 640.541h-1.89M439.01 557.412h-15.492M446.567 557.412h-5.668M440.899 557.412h-1.89M446.567 557.412v83.13M423.518 557.412v83.13M439.01 557.412v3.779M439.01 561.19h1.89M440.899 561.19v-3.779M440.899 597.087v-1.89M440.899 595.198h-1.89M439.01 595.198v1.89M439.955 561.19v34.007M439.01 561.19v34.007M440.899 595.198v-34.007M439.01 597.087v.944M439.01 598.032h.944M439.955 598.032v.945M439.955 598.977h.944M440.899 598.977v-1.89M440.899 640.541v-3.778M440.899 636.763h-.944M439.955 636.763v.945M439.955 637.708h-.945M439.01 637.708v2.833M438.065 637.708l-28.055-28.055M440.899 636.763v-37.786M438.065 600.866v34.007M438.065 598.032v2.834M438.065 600.866h1.89M439.955 600.866v-2.834M439.955 598.032h-1.89M439.955 637.708v-2.834M439.955 634.874h-1.89M438.065 634.874v2.834M438.065 637.708h1.89M439.955 634.874v-34.007M438.065 600.866v34.007M439.01 600.866v34.007M410.01 609.652a39.677 39.677 0 0128.055-11.621M440.899 557.412h-1.89M440.899 557.412h-1.89M446.567 557.412h-5.668M439.01 557.412h-15.492M440.899 640.541h-1.89M440.899 640.541h-1.89M446.567 640.541h-5.668M439.01 640.541h-15.492"/></g><g><path class="st4" d="M446.567 557.412v-35.271M488.132 300.335h-41.564m0 0V179.419m0 0h41.564m0 0v120.916M488.132 643.057h-41.564m0 0V452.614m0 0h41.564m0 0v190.443"/></g><path d="M278.04 21.662h-45.343V.501h45.343v21.161h0zM.5 324.14l128.851.001.001-9.371h1.512v-.454h8.689l-.001 9.825h10.959v7.557h-.453v1.512H.5v-9.07h0zm0-302.479V.5l28.15.001v21.161L.5 21.661h0zm128.852 177.483h1.512v-.454h8.689v25.695h-8.689v-.453h-1.512v-24.788h0zm10.201-177.482h27.018V.501H111.78v21.161h17.572v145.59h1.512v.454h8.689V21.662h0zm77.273 305.501h1.058v-1.512h.454v-1.511h-29.286v7.557h.454v1.512h12.773v334.03h9.068V327.163h5.479zM446.567 667.24v-26.698h-23.05v26.698h23.05zM139.553 287.109v-35.518h-8.689v.454h-1.512v34.612h1.512v.453h8.689v-.001zm283.964 235.032h23.05v35.271h-23.05v-35.271h0zm0-112.226h23.05v46.099h-23.05v-46.099h0zm0-128.474h23.05v62.348h-23.05v-62.348h0zm0-128.472h23.05v45.343h-23.05v-45.343h0zM387.993 21.662h-43.827V.501h43.827v21.161z" fill-rule="evenodd" clip-rule="evenodd" stroke="#000" stroke-miterlimit="3"/><g><path class="st6" d="M439.078 63.196h1.821v5.133h-1.821zM439.078 106.554h1.821v5.133h-1.821z"/></g><g><path class="st7" d="M207.176 245.221c-1.551-4.201-2.043-6.593-2.271-11.067"/><path class="st8" d="M207.214 245.312l-.6-1.387 25.95-11.283h.453v1.512z"/><path class="st7" d="M118.353 249.805c4.295 1.602 6.483 2.033 11.06 2.267"/><path class="st8" d="M118.255 249.762l11.159-25.803h1.511v.453l-11.282 25.95z"/><path class="st7" d="M116.836 169.865c4.87-1.817 7.387-2.32 12.577-2.586"/><path class="st8" d="M116.755 169.899l1.387-.6 12.783 29.418v.454h-1.512z"/><g><path class="st7" d="M172.609 146.099c1.818 4.871 2.336 7.373 2.601 12.565"/><path class="st8" d="M172.59 146.006l.601 1.387-29.418 12.782h-.455v-1.511z"/></g><g><path class="st7" d="M118.346 288.994c4.293-1.602 6.488-2.041 11.064-2.275"/><path class="st8" d="M118.253 289.028l1.387-.599 11.283 25.95v.453h-1.512z"/><g><path class="st7" d="M186.26 348.695c2.09-5.568 2.918-9.505 3.226-15.548"/><path class="st8" d="M186.245 348.804l-36.208-15.657v-1.512h.453l36.355 15.782z"/><g><path class="st7" d="M247.147 339.713c1.824-4.816 2.339-7.427 2.601-12.565"/><path class="st8" d="M247.128 339.806l-29.271-12.658v-1.512h.453l29.418 12.783z"/><g><path class="st7" d="M272.346 386.985c-4.829-1.802-7.46-2.329-12.607-2.593"/><path class="st8" d="M272.448 387.022L259.74 416.41h-1.556v-.466l12.838-29.539z"/><g><path class="st7" d="M314.586 435.066c1.566-4.198 2.001-6.33 2.23-10.805"/><path class="st8" d="M313.986 436.454l-29.031-11.807v-1.512h.454l29.177 11.931z"/><g><path class="st7" d="M247.21 436.877c1.822-4.884 2.319-7.386 2.585-12.592"/><path class="st8" d="M247.169 436.973l-29.343-12.689-.001-1.552h.466l29.494 12.817z"/></g></g></g></g></g></g><g><path class="st7" d="M373.824 521.286c-1.507 3.499-2.09 7.312-2.285 11.101"/><path class="st8" d="M374.335 520.066l29.054 12.347v1.511h-.454l-29.2-12.469z"/></g></g><g><path class="st9" d="M7.743 21.765l-7.02 6.18M10.833 25.575l-10.11 8.91M10.833 32.115l-10.11 8.9M10.833 38.655l-10.11 8.9M10.833 45.195l-10.11 8.91M10.833 51.725l-10.11 8.91M10.833 58.265l-10.11 8.91M10.833 64.805l-10.11 8.91M10.833 71.345l-10.11 8.91M10.833 77.885l-10.11 8.91M10.833 84.425l-10.11 8.9M10.833 90.955l-10.11 8.91M10.833 97.505l-10.11 8.9M10.833 104.035l-10.11 8.91M10.833 110.575l-10.11 8.91M10.833 117.115l-10.11 8.9M10.833 123.655l-10.11 8.9M10.833 130.195l-10.11 8.91M10.833 136.725l-10.11 8.91M13.853 140.605l-13.13 11.57M10.833 149.805l-10.11 8.91M21.273 140.605l-3.43 3.02M10.833 156.345l-10.11 8.91M28.703 140.605l-3.43 3.02M10.833 162.885l-10.11 8.91M36.123 140.605l-3.43 3.02M10.833 169.425l-10.11 8.9M43.543 140.605l-3.42 3.02M10.833 175.955l-10.11 8.91M50.963 140.605l-3.43 3.02M10.833 182.505l-10.11 8.9M58.393 140.605l-3.43 3.02M10.833 189.035l-10.11 8.91M65.813 140.605l-3.43 3.02M10.833 195.575l-10.11 8.91M73.233 140.605l-3.43 3.02M80.653 140.605l-3.42 3.02M10.833 202.115l-10.11 8.91M13.023 206.725l-12.3 10.83M20.443 206.725l-3.44 3.03M10.833 215.195l-10.11 8.9M27.863 206.725l-3.44 3.03M10.833 221.725l-10.11 8.91M35.283 206.725l-3.44 3.03M10.833 228.265l-10.11 8.91M42.713 206.725l-3.44 3.03M10.833 234.805l-10.11 8.91M260.103 21.765l-1.3 1.14M50.133 206.725l-3.44 3.03M10.833 241.345l-10.11 8.91M261.833 26.775l-3.03 2.67M57.553 206.725l-3.44 3.03M10.833 247.885l-10.11 8.91M261.833 33.315l-3.03 2.67M64.983 206.725l-3.44 3.03M10.833 254.425l-10.11 8.9M261.833 39.845l-3.03 2.67M72.393 206.725l-3.44 3.03M10.833 260.955l-10.11 8.91M261.833 46.385l-3.03 2.67M79.813 206.725l-3.43 3.03M10.833 267.495l-10.11 8.91M262.893 51.995l-4.09 3.6M143.433 157.225l-3.44 3.03M10.833 274.035l-10.11 8.91M87.243 206.725l-3.44 3.03M261.833 59.465l-3.03 2.67M270.313 51.995l-3.43 3.02M10.833 280.575l-10.11 8.91M14.873 277.015l-3.43 3.02M94.663 206.725l-3.44 3.03M261.833 66.005l-3.03 2.67M277.733 51.995l-3.43 3.02M22.293 277.015l-3.42 3.02M10.833 287.115l-10.11 8.91M18.113 280.705l-3.03 2.67M102.093 206.725l-3.44 3.03M261.833 72.535l-3.03 2.67M280.343 56.235l-3.02 2.66M29.723 277.015l-3.43 3.02M10.833 293.655l-10.11 8.9M18.113 287.245l-3.03 2.67M40.443 267.565l-.8.71M109.513 206.725l-3.44 3.03M261.833 79.085l-3.03 2.67M280.343 62.775l-3.02 2.66M42.673 272.145l-3.03 2.67M47.873 267.565l-3.43 3.02M18.103 293.785l-3.03 2.67M10.833 300.195l-10.11 8.9M37.143 277.015l-3.43 3.02M116.933 206.725l-3.44 3.03M261.833 85.615l-3.03 2.67M280.343 69.315l-3.02 2.66M180.543 157.225l-3.44 3.03M55.293 267.565l-3.43 3.02M18.103 300.325l-3.03 2.67M10.833 306.725l-10.11 8.91M44.563 277.015l-3.43 3.02M124.353 206.725l-3.44 3.03M186.253 158.735l-3.02 2.66M280.343 75.855l-3.02 2.66M261.833 92.155l-3.03 2.67M129.573 208.665l-1.24 1.09M51.983 277.015l-3.43 3.02M13.813 310.645l-13.09 11.53M18.093 306.875l-3.02 2.66M62.713 267.565l-3.43 3.02M186.253 165.275l-3.02 2.66M280.343 82.385l-3.02 2.66M261.833 98.695l-3.03 2.67M268.513 92.815l-3.43 3.02M59.403 277.015l-3.42 3.02M10.833 319.805l-5.04 4.44M21.233 310.645l-3.43 3.02M70.133 267.565l-3.43 3.02M186.253 171.815l-3.02 2.66M280.343 88.935l-3.02 2.66M261.833 105.235l-3.03 2.67M275.943 92.805l-3.43 3.02M66.833 277.015l-3.43 3.02M28.663 310.645l-3.43 3.02M77.563 267.565l-3.43 3.02M70.633 273.665l-3.02 2.66M186.253 178.355l-3.02 2.66M280.343 95.465l-.4.36M261.833 111.775l-3.03 2.67M36.083 310.645l-3.43 3.02M84.983 267.565l-3.43 3.02M186.253 184.895l-3.02 2.66M261.833 118.315l-3.03 2.67M191.913 179.905l-3.43 3.02M39.643 314.045l-3.02 2.66M92.403 267.565l-3.43 3.02M186.253 191.425l-3.02 2.66M261.833 124.845l-3.03 2.67M199.333 179.905l-3.43 3.02M39.643 320.575l-3.02 2.66M99.823 267.565l-3.43 3.02M186.253 197.965l-3.02 2.66M261.833 131.385l-3.03 2.67M206.753 179.905l-3.43 3.02M107.243 267.565l-3.43 3.02M186.253 204.505l-3.02 2.66M261.833 137.925l-3.03 2.67M214.183 179.905l-3.43 3.02M114.673 267.565l-3.43 3.02M122.093 267.565l-3.43 3.02M221.603 179.905l-3.43 3.02M261.833 144.465l-3.03 2.67M186.253 211.045l-3.02 2.66M129.513 267.565l-3.42 3.02M229.023 179.905l-3.42 3.02M261.833 151.005l-3.03 2.67M186.253 217.585l-3.02 2.66M186.253 224.125l-3.02 2.66M261.833 157.545l-3.03 2.67M236.453 179.905l-3.43 3.02M186.253 230.665l-3.02 2.66M261.833 164.085l-3.03 2.67M243.873 179.905l-3.43 3.02M192.963 231.295l-3.43 3.02M261.833 170.625l-3.03 2.67M251.293 179.905l-3.42 3.02M200.373 231.295l-3.43 3.02M261.833 177.155l-3.03 2.67M258.713 179.905l-3.43 3.02M261.833 183.695l-3.03 2.67M205.073 233.695l-.7.62M261.833 190.235l-3.03 2.67M261.833 196.775l-3.03 2.67M261.833 203.315l-3.03 2.67M261.833 209.855l-3.03 2.67M237.493 231.295l-3.43 3.02M244.913 231.295l-3.43 3.02M261.833 216.385l-3.03 2.67M252.333 231.295l-3.43 3.02M261.833 222.925l-3.03 2.67M261.833 229.465l-5.5 4.85M261.663 281.925l-4.37 3.85M260.313 289.655l-3.02 2.66M269.083 281.925l-3.43 3.02M260.313 296.195l-3.02 2.66M276.513 281.925l-3.43 3.02M260.313 302.725l-3.02 2.66M276.943 288.075l-3.02 2.66M260.313 309.265l-3.02 2.66M265.613 304.595l-3.43 3.02M276.943 294.615l-3.02 2.66M260.313 315.805l-3.02 2.66M273.043 304.595l-3.43 3.02M250.733 324.245l-1.18 1.04M276.943 301.155l-3.02 2.66M280.463 304.595l-3.43 3.02M260.313 322.345l-5.59 4.92M287.883 304.595l-3.42 3.02M260.313 328.885l-3.02 2.66M295.303 304.595l-3.42 3.02M260.313 335.425l-3.02 2.66M302.723 304.595l-3.43 3.02M260.313 341.955l-3.02 2.66M310.143 304.595l-3.42 3.02M260.313 348.495l-3.02 2.66M317.573 304.595l-3.43 3.02M260.313 355.035l-3.02 2.66M260.313 361.575l-3.02 2.66M324.993 304.595l-3.43 3.02M260.313 368.115l-3.02 2.66M332.423 304.595l-3.43 3.02M260.313 374.655l-3.02 2.66M339.843 304.595l-3.43 3.02M214.293 421.735l-2.72 2.39M260.313 381.195l-3.02 2.66M347.263 304.595l-3.43 3.02M354.683 304.595l-3.43 3.02M362.103 304.595l-3.43 3.02M369.533 304.595l-3.43 3.02M376.953 304.595l-3.43 3.02M251.403 421.735l-1.72 1.51M257.833 416.065l-.54.48M384.373 304.595l-3.43 3.02M260.313 420.425l-4.92 4.33M391.803 304.595l-3.43 3.02M266.243 421.735l-3.43 3.02M399.213 304.595l-3.43 3.02M273.663 421.735l-3.43 3.02M406.633 304.595l-3.42 3.02M281.083 421.735l-3.42 3.02M414.063 304.595l-3.43 3.02M421.483 304.595l-3.43 3.02M285.183 424.665l-.1.09M282.613 426.935l-3.02 2.66M282.613 433.475l-3.02 2.66M282.613 440.005l-3.02 2.66M282.613 446.545l-3.02 2.66M318.193 421.735l-1.57 1.39M282.613 453.085l-3.02 2.66M282.613 459.625l-3.02 2.66M325.623 421.735l-3.71 3.27M282.613 466.165l-3.02 2.66M333.043 421.735l-3.43 3.02M324.933 428.875l-3.02 2.67M282.613 472.705l-3.02 2.66M340.463 421.735l-3.42 3.02M324.933 435.415l-3.02 2.67M282.613 479.235l-3.02 2.66M347.893 421.735l-5.2 4.58M332.023 435.715l-3.43 3.02M282.613 485.775l-3.02 2.66M345.713 430.195l-3.02 2.66M355.313 421.735l-3.43 3.02M339.443 435.715l-3.43 3.02M345.713 436.725l-3.02 2.66M362.733 421.735l-3.43 3.02M282.613 492.315l-3.02 2.66M345.713 443.265l-3.02 2.66M370.153 421.735l-3.43 3.02M282.613 498.855l-3.02 2.66M282.613 505.395l-3.02 2.66M377.573 421.735l-3.42 3.02M345.713 449.805l-3.02 2.66M282.613 511.935l-3.02 2.66M350.263 452.335l-3.44 3.03M385.003 421.735l-3.43 3.02M345.713 456.345l-3.02 2.66M259.323 532.445l-2.4 2.12M282.613 518.475l-3.02 2.66M352.513 456.895l-3.02 2.66M392.423 421.735l-3.43 3.02M345.713 462.885l-3.02 2.66M266.753 532.445l-3.43 3.02M282.613 525.005l-3.02 2.66M352.513 463.435l-3.02 2.66M399.843 421.735l-3.42 3.02M345.713 469.425l-7.56 6.66M274.173 532.445l-3.43 3.02M341.183 479.945l-3.03 2.67M352.513 469.965l-3.02 2.66M407.263 421.735l-3.43 3.02M345.713 475.955l-3.02 2.66M282.613 531.545l-4.46 3.92M341.183 486.485l-3.03 2.67M352.513 476.505l-6.03 5.31M345.713 482.495l-3.02 2.66M414.683 421.735l-3.43 3.02M289.013 532.445l-3.43 3.02M341.183 493.025l-3.03 2.67M422.113 421.735l-3.43 3.02M345.713 489.035l-3.02 2.66M296.433 532.445l-3.43 3.02M345.713 495.575l-5.82 5.13M303.863 532.445l-3.43 3.02M345.713 502.115l-3.02 2.66M311.283 532.445l-3.43 3.02M345.713 508.655l-3.02 2.66M318.703 532.445l-3.44 3.03M345.713 515.195l-3.02 2.66M326.133 532.445l-3.44 3.03M345.713 521.725l-3.02 2.66M333.543 532.445l-3.44 3.03M345.713 528.265l-3.02 2.66M340.963 532.445l-3.44 3.03M348.393 532.445l-3.44 3.03M213.403 657.895l-1.83 1.62M355.813 532.445l-3.44 3.03M220.833 657.895l-9.26 8.15M363.233 532.445l-3.43 3.03M370.663 532.445l-3.44 3.03M228.253 657.895l-10.73 9.45M235.673 657.895l-10.73 9.45M243.093 657.895l-10.73 9.45M250.513 657.895l-10.72 9.45M257.943 657.895l-10.73 9.45M407.773 532.445l-3.44 3.03M265.363 657.895l-10.73 9.45M272.783 657.895l-10.72 9.45M415.193 532.445l-3.43 3.03M422.613 532.445l-3.43 3.02M280.203 657.895l-10.73 9.45M287.623 657.895l-10.73 9.45M295.053 657.895l-10.73 9.45M302.473 657.895l-10.73 9.45M309.893 657.895l-10.72 9.45M317.323 657.895l-10.73 9.45M324.743 657.895l-10.73 9.45M332.163 657.895l-10.73 9.45M339.583 657.895l-10.73 9.45M347.003 657.895l-10.72 9.45M354.433 657.895l-10.73 9.45M361.853 657.895l-10.73 9.45M369.273 657.895l-10.72 9.45M376.693 657.895l-10.73 9.45M384.113 657.895l-10.73 9.45M391.543 657.895l-10.73 9.45M398.963 657.895l-10.73 9.45M406.383 657.895l-10.72 9.45M413.813 657.895l-10.73 9.45M421.233 657.895l-10.73 9.45M423.743 662.215l-5.82 5.13"/></g><path class="st6" d="M129.351 206.625v3.023H10.702v-.171h-.094v67.431H39.42v-9.446c29.977-.006 59.954-.001 89.931-.001v3.023H70.404v9.447H17.882l-.018 30.607h21.555v13.603h-3.023v-10.58H10.608v10.579H.5V21.661h10.108v118.838h72.266v3.023H10.702v-.083h-.094v63.186h118.743zM10.608 310.537l4.234.001.017-30.607h-4.251v30.606zm56.774-40.053h-24.94v6.424h24.94v-6.424zm72.171-110.336v-3.023h4.081v1.512h.454v1.511h-4.535zm283.964 497.645v9.446h-212.17v-9.446h212.17zM261.603 21.662V51.89h18.514v40.806l-3.022.002V54.914h-15.493V92.71l18.515-.011v3.023l-18.515.011v138.476H232.96v-1.511h-.453v-1.511h26.073V182.82h-72.55v48.367h19.273v1.511h-.455v1.511h-21.84v-74.061h-7.936v-1.511h.454v-1.512h10.504v22.672h72.55V21.662h3.023zm161.914 399.967v3.023h-78.028v27.584h6.801l.001 29.474h-6.802v50.633h25.997v1.512h.453v1.511H256.692v-3.023h22.672V424.651h-29.588v-1.511h-.453v-1.512h7.746v-5.668h1.511v.454h1.511v5.214h25.317v1.512h-.453v1.511h-2.568v107.691h60.079v-31.74h-4.535v-30.229h4.535v-31.741h-20.783v-13.981h-4.836v-1.511h-.454v-1.512l107.124.001zM276.718 283.545v20.946h146.8v3.023H260.091v77.008h-1.511v.454h-1.511v-57.813h-7.293v-1.512h-.453v-1.511h7.746v-42.32h19.649v1.725zm-65.371 141.106v-3.023h6.991v1.377h-.454v1.646h-6.537zm62.348-120.159v-19.649h-13.604v19.649h13.604zm149.822 230.874v-3.023h-20.141v1.512h-.453v1.511h20.594zm-82.563-61.969v24.183h1.512v-24.183h-1.512zm4.535-18.138v23.428h3.778v-23.428h-3.778zm-3.023-30.608h-17.76v10.958h17.76v-10.958z"/></g><g id="sizes_3_"><path d="M400.903 523.058c-.445-.224-.808-.55-1.086-.977s-.465-.94-.559-1.539v-.008h1.594v.008c.058.417.224.741.5.973s.636.348 1.078.348c.511 0 .905-.171 1.184-.512s.418-.821.418-1.441v-.953c0-.614-.14-1.093-.418-1.434s-.673-.512-1.184-.512c-.276 0-.542.078-.797.234s-.479.375-.672.656h-1.453v-5.984h5.789v1.516h-4.195v2.555a2.275 2.275 0 011.414-.508c.656 0 1.218.136 1.684.406s.82.667 1.063 1.188.363 1.148.363 1.883v.953c0 .734-.125 1.362-.375 1.883s-.614.918-1.094 1.191-1.055.41-1.727.41c-.573 0-1.082-.112-1.527-.336zM407.813 521.683h1.594v1.594l-1.594 1.578v-3.172zM413.239 523.058c-.445-.224-.808-.55-1.086-.977s-.465-.94-.559-1.539v-.008h1.594v.008c.058.417.224.741.5.973s.636.348 1.078.348c.511 0 .905-.171 1.184-.512s.418-.821.418-1.441v-.953c0-.614-.14-1.093-.418-1.434s-.673-.512-1.184-.512c-.276 0-.542.078-.797.234s-.479.375-.672.656h-1.453v-5.984h5.789v1.516h-4.195v2.555a2.275 2.275 0 011.414-.508c.656 0 1.218.136 1.684.406s.82.667 1.063 1.188.363 1.148.363 1.883v.953c0 .734-.125 1.362-.375 1.883s-.614.918-1.094 1.191-1.055.41-1.727.41c-.573 0-1.082-.112-1.527-.336zM269.816 226.488l-.727-.348a2.857 2.857 0 01-1.168-1.008c-.294-.44-.48-.97-.559-1.59h1.625c.047.323.148.589.305.797.156.208.358.363.605.465s.538.152.871.152c.526 0 .935-.141 1.227-.422s.438-.677.438-1.188v-.344c0-.567-.138-1.006-.414-1.316-.276-.31-.667-.465-1.172-.465h-.805v-1.516h.805c.442 0 .786-.133 1.031-.398s.367-.641.367-1.125v-.352c0-.448-.129-.794-.387-1.039-.258-.245-.624-.367-1.098-.367-.271 0-.513.051-.727.152s-.395.258-.543.469-.257.476-.324.793h-1.617c.104-.62.301-1.151.59-1.594a2.893 2.893 0 011.098-1.008c.442-.229.95-.344 1.523-.344.979 0 1.737.258 2.273.773s.805 1.242.805 2.18v.188c0 .568-.153 1.063-.461 1.484s-.742.729-1.305.922c.62.136 1.101.44 1.441.914.341.474.512 1.078.512 1.813v.188c0 .662-.128 1.227-.383 1.695s-.626.826-1.113 1.07c-.487.245-1.074.367-1.762.367l-.951.002zM279.035 226.371h-1.594v-9.625l-1.617.992v-1.648l1.617-1.078h1.594v11.359zM281.457 224.777h1.594v1.594l-1.594 1.578v-3.172zM285.082 223.246l3.813-8.227h1.641l-3.719 8.133h5.57v1.477h-7.305v-1.383zm4.898-3.555h1.555v6.688h-1.555v-6.688zM189.092 223.706l3.961-5.281c.229-.302.407-.616.535-.941.128-.325.191-.629.191-.91v-.016c0-.453-.133-.805-.398-1.055s-.644-.375-1.133-.375c-.464 0-.839.137-1.125.41s-.461.66-.523 1.16v.008h-1.648v-.008c.094-.651.285-1.207.574-1.668s.663-.813 1.121-1.055.987-.363 1.586-.363c.677 0 1.255.116 1.734.348.479.232.844.569 1.094 1.012.25.443.375.977.375 1.602v.008c0 .401-.083.82-.25 1.258s-.398.859-.695 1.266l-3.289 4.469h4.297v1.516h-6.406v-1.385zM197.374 223.495h1.594v1.594l-1.594 1.578v-3.172zM203.139 225.206l-.727-.348a2.857 2.857 0 01-1.168-1.008c-.294-.44-.48-.97-.559-1.59h1.625c.047.323.148.589.305.797.156.208.358.363.605.465s.538.152.871.152c.526 0 .935-.141 1.227-.422s.438-.677.438-1.188v-.344c0-.567-.138-1.006-.414-1.316-.276-.31-.667-.465-1.172-.465h-.805v-1.516h.805c.442 0 .786-.133 1.031-.398s.367-.641.367-1.125v-.352c0-.448-.129-.794-.387-1.039-.258-.245-.624-.367-1.098-.367-.271 0-.513.051-.727.152s-.395.258-.543.469-.257.476-.324.793h-1.617c.104-.62.301-1.151.59-1.594a2.893 2.893 0 011.098-1.008c.442-.229.95-.344 1.523-.344.979 0 1.737.258 2.273.773s.805 1.242.805 2.18v.188c0 .568-.153 1.063-.461 1.484s-.742.729-1.305.922c.62.136 1.101.44 1.441.914.341.474.512 1.078.512 1.813v.188c0 .662-.128 1.227-.383 1.695s-.626.826-1.113 1.07c-.487.245-1.074.367-1.762.367l-.951.002zM287.968 494.375l3.813-8.227h1.641l-3.719 8.133h5.57v1.477h-7.305v-1.383zm4.899-3.555h1.555v6.688h-1.555v-6.688zM297.07 495.906h1.594v1.594l-1.594 1.578v-3.172zM303.593 497.5H302v-9.625l-1.617.992v-1.648L302 486.14h1.594v11.36zM233.618 38.287h-1.594v-9.625l-1.617.992v-1.648l1.617-1.078h1.594v11.359zM236.024 36.905l3.961-5.281c.229-.302.407-.616.535-.941.128-.325.191-.629.191-.91v-.016c0-.453-.133-.805-.398-1.055s-.644-.375-1.133-.375c-.464 0-.839.137-1.125.41s-.461.66-.523 1.16v.008h-1.648v-.008c.094-.651.285-1.207.574-1.668s.663-.813 1.121-1.055.987-.363 1.586-.363c.677 0 1.255.116 1.734.348.479.232.844.569 1.094 1.012.25.443.375.977.375 1.602v.008c0 .401-.083.82-.25 1.258s-.398.859-.695 1.266l-3.289 4.469h4.297v1.516h-6.406v-1.385zM244.305 36.694h1.594v1.594l-1.594 1.578v-3.172zM247.915 36.905l3.961-5.281c.229-.302.407-.616.535-.941.128-.325.191-.629.191-.91v-.016c0-.453-.133-.805-.398-1.055s-.644-.375-1.133-.375c-.464 0-.839.137-1.125.41s-.461.66-.523 1.16v.008h-1.648v-.008c.094-.651.285-1.207.574-1.668s.663-.813 1.121-1.055.987-.363 1.586-.363c.677 0 1.255.116 1.734.348.479.232.844.569 1.094 1.012.25.443.375.977.375 1.602v.008c0 .401-.083.82-.25 1.258s-.398.859-.695 1.266l-3.289 4.469h4.297v1.516h-6.406v-1.385z"/><g><path d="M102.372 38.551h-1.594v-9.625l-1.617.992V28.27l1.617-1.078h1.594v11.359zM106.594 38.332a2.75 2.75 0 01-1.086-.977c-.278-.427-.465-.94-.559-1.539v-.008h1.594v.008c.058.417.224.741.5.973.276.232.636.348 1.078.348.511 0 .905-.17 1.184-.512.278-.341.418-.821.418-1.441v-.953c0-.614-.14-1.092-.418-1.434-.278-.341-.673-.512-1.184-.512-.276 0-.542.078-.797.234s-.479.375-.672.656H105.2v-5.984h5.789v1.516h-4.195v2.555a2.275 2.275 0 011.414-.508c.656 0 1.218.136 1.684.406.466.271.82.667 1.063 1.188.242.521.363 1.148.363 1.883v.953c0 .734-.125 1.362-.375 1.883-.25.521-.614.918-1.094 1.191s-1.055.41-1.727.41c-.573 0-1.082-.112-1.528-.336zM113.505 36.957h1.594v1.594l-1.594 1.578v-3.172zM119.27 38.668l-.727-.348a2.857 2.857 0 01-1.168-1.008c-.294-.44-.48-.97-.559-1.59h1.625c.047.323.148.589.305.797.156.208.358.363.605.465s.538.152.871.152c.526 0 .935-.141 1.227-.422s.438-.677.438-1.188v-.344c0-.567-.138-1.006-.414-1.316-.276-.31-.667-.465-1.172-.465h-.805v-1.516h.805c.442 0 .786-.133 1.031-.398s.367-.641.367-1.125v-.352c0-.448-.129-.794-.387-1.039-.258-.245-.624-.367-1.098-.367-.271 0-.513.051-.727.152s-.395.258-.543.469-.257.476-.324.793h-1.617c.104-.62.301-1.151.59-1.594a2.893 2.893 0 011.098-1.008c.442-.229.95-.344 1.523-.344.979 0 1.737.258 2.273.773s.805 1.242.805 2.18v.188c0 .568-.153 1.063-.461 1.484s-.742.729-1.305.922c.62.136 1.101.44 1.441.914.341.474.512 1.078.512 1.813v.188c0 .662-.128 1.227-.383 1.695s-.626.826-1.113 1.07c-.487.245-1.074.367-1.762.367l-.951.002z"/></g><g><path d="M215.404 649.301l3.961-5.281c.229-.302.407-.615.535-.941.128-.325.191-.629.191-.91v-.016c0-.453-.133-.805-.398-1.055s-.644-.375-1.133-.375c-.464 0-.839.137-1.125.41s-.461.66-.523 1.16v.008h-1.648v-.008c.094-.65.285-1.207.574-1.668s.663-.813 1.121-1.055.987-.363 1.586-.363c.677 0 1.255.116 1.734.348.479.232.844.569 1.094 1.012.25.443.375.977.375 1.602v.008c0 .401-.083.82-.25 1.258s-.398.859-.695 1.266l-3.289 4.469h4.297v1.516h-6.406v-1.385zM225.826 650.801l-.727-.348a2.857 2.857 0 01-1.168-1.008c-.294-.439-.48-.97-.559-1.59h1.625c.047.323.148.589.305.797.156.209.358.363.605.465s.538.152.871.152c.526 0 .935-.141 1.227-.422s.438-.677.438-1.188v-.344c0-.567-.138-1.006-.414-1.316-.276-.31-.667-.465-1.172-.465h-.805v-1.516h.805c.442 0 .786-.133 1.031-.398s.367-.641.367-1.125v-.352c0-.447-.129-.794-.387-1.039-.258-.244-.624-.367-1.098-.367-.271 0-.513.051-.727.152s-.395.258-.543.469-.257.476-.324.793h-1.617c.104-.619.301-1.15.59-1.594a2.893 2.893 0 011.098-1.008c.442-.229.95-.344 1.523-.344.979 0 1.737.258 2.273.773s.805 1.242.805 2.18v.188c0 .568-.153 1.063-.461 1.484s-.742.729-1.305.922c.62.136 1.101.44 1.441.914.341.475.512 1.078.512 1.813v.188c0 .662-.128 1.227-.383 1.695s-.626.826-1.113 1.07c-.487.245-1.074.367-1.762.367l-.951.002zM232.146 649.09h1.594v1.594l-1.594 1.578v-3.172zM241.795 640.746l-2.938 9.938h-1.695l2.938-9.844h-2.891v1.633h-1.594v-3.148h6.18v1.421z"/></g><g><path d="M85.458 220.805l3.813-8.227h1.641l-3.719 8.133h5.57v1.477h-7.305v-1.383zm4.899-3.554h1.555v6.688h-1.555v-6.688zM94.56 222.337h1.594v1.594l-1.594 1.578v-3.172zM104.208 213.993l-2.938 9.938h-1.695l2.938-9.844h-2.891v1.633h-1.594v-3.148h6.18v1.421z"/></g><g><path d="M288.248 325.783h-1.594v-9.625l-1.617.992v-1.648l1.617-1.078h1.594v11.359zM290.654 324.401l3.961-5.281c.229-.302.407-.616.535-.941.128-.325.191-.629.191-.91v-.016c0-.453-.133-.805-.398-1.055s-.644-.375-1.133-.375c-.464 0-.839.137-1.125.41s-.461.66-.523 1.16v.008h-1.648v-.008c.094-.651.285-1.207.574-1.668s.663-.813 1.121-1.055.987-.363 1.586-.363c.677 0 1.255.116 1.734.348.479.232.844.569 1.094 1.012.25.443.375.977.375 1.602v.008c0 .401-.083.82-.25 1.258s-.398.859-.695 1.266l-3.289 4.469h4.297v1.516h-6.406v-1.385zM298.935 324.19h1.594v1.594l-1.594 1.578v-3.172zM304.361 325.565a2.75 2.75 0 01-1.086-.977c-.278-.427-.465-.94-.559-1.539v-.008h1.594v.008c.058.417.224.741.5.973.276.232.636.348 1.078.348.511 0 .905-.17 1.184-.512.278-.341.418-.821.418-1.441v-.953c0-.614-.14-1.092-.418-1.434-.278-.341-.673-.512-1.184-.512-.276 0-.542.078-.797.234s-.479.375-.672.656h-1.453v-5.984h5.789v1.516h-4.195v2.555a2.275 2.275 0 011.414-.508c.656 0 1.218.136 1.684.406.466.271.82.667 1.063 1.188.242.521.363 1.148.363 1.883v.953c0 .734-.125 1.362-.375 1.883-.25.521-.614.918-1.094 1.191s-1.055.41-1.727.41c-.573 0-1.082-.113-1.527-.336z"/></g><g><path d="M199.287 312.401l-.008.281c-.13.24-.327.416-.59.527a2.372 2.372 0 01-.934.168c-.542 0-1.019-.138-1.43-.414-.411-.276-.73-.665-.957-1.168-.227-.502-.34-1.084-.34-1.746v-.008c0-.734.124-1.362.371-1.883a2.615 2.615 0 011.086-1.188c.477-.271 1.048-.406 1.715-.406s1.237.138 1.711.414a2.66 2.66 0 011.082 1.203c.247.526.371 1.159.371 1.898v.008c0 .406-.052.84-.156 1.301s-.253.918-.445 1.371l-.094.207c-.031.07-.065.14-.102.207l-2.422 4.867h-1.719l2.861-5.639zm.074-.985c.273-.338.41-.815.41-1.43v-.008c0-.599-.137-1.063-.41-1.391s-.66-.492-1.16-.492c-.505 0-.895.164-1.168.492s-.41.794-.41 1.398v.008c0 .615.137 1.09.41 1.426s.663.504 1.168.504c.5.001.887-.168 1.16-.507zM203.318 316.447h1.594v1.594l-1.594 1.578v-3.172zM209.084 318.158l-.727-.348a2.857 2.857 0 01-1.168-1.008c-.294-.44-.48-.97-.559-1.59h1.625c.047.323.148.589.305.797.156.208.358.363.605.465s.538.152.871.152c.526 0 .935-.141 1.227-.422s.438-.677.438-1.188v-.344c0-.567-.138-1.006-.414-1.316-.276-.31-.667-.465-1.172-.465h-.805v-1.516h.805c.442 0 .786-.133 1.031-.398s.367-.641.367-1.125v-.352c0-.448-.129-.794-.387-1.039-.258-.245-.624-.367-1.098-.367-.271 0-.513.051-.727.152s-.395.258-.543.469-.257.476-.324.793h-1.617c.104-.62.301-1.151.59-1.594a2.893 2.893 0 011.098-1.008c.442-.229.95-.344 1.523-.344.979 0 1.737.258 2.273.773s.805 1.242.805 2.18v.188c0 .568-.153 1.063-.461 1.484s-.742.729-1.305.922c.62.136 1.101.44 1.441.914.341.474.512 1.078.512 1.813v.188c0 .662-.128 1.227-.383 1.695s-.626.826-1.113 1.07c-.487.245-1.074.367-1.762.367l-.951.002z"/></g><g><path d="M107.123 318.956l-.727-.348a2.857 2.857 0 01-1.168-1.008c-.294-.44-.48-.97-.559-1.59h1.625c.047.323.148.589.305.797.156.208.358.363.605.465s.538.152.871.152c.526 0 .935-.141 1.227-.422s.438-.677.438-1.188v-.344c0-.567-.138-1.006-.414-1.316-.276-.31-.667-.465-1.172-.465h-.805v-1.516h.805c.442 0 .786-.133 1.031-.398s.367-.641.367-1.125v-.35c0-.448-.129-.794-.387-1.039-.258-.245-.624-.367-1.098-.367-.271 0-.513.051-.727.152s-.395.258-.543.469-.257.476-.324.793h-1.617c.104-.62.301-1.151.59-1.594a2.893 2.893 0 011.098-1.008c.442-.229.95-.344 1.523-.344.979 0 1.737.258 2.273.773s.805 1.242.805 2.18v.188c0 .568-.153 1.063-.461 1.484s-.742.729-1.305.922c.62.136 1.101.44 1.441.914.341.474.512 1.078.512 1.813v.188c0 .662-.128 1.227-.383 1.695s-.626.826-1.113 1.07c-.487.245-1.074.367-1.762.367h-.951zM113.443 317.245h1.594v1.594l-1.594 1.578v-3.172zM118.443 318.554a2.61 2.61 0 01-1.082-1.172c-.247-.513-.371-1.131-.371-1.855v-.008c0-.422.05-.864.148-1.328a7.673 7.673 0 01.532-1.597l.109-.223 2.469-4.891h1.719l-2.898 5.664.008-.281c.13-.245.32-.435.57-.57.25-.135.542-.203.875-.203.589 0 1.094.133 1.516.398s.742.652.961 1.16.328 1.119.328 1.832v.008c0 .729-.124 1.354-.371 1.875a2.615 2.615 0 01-1.086 1.188c-.477.271-1.048.406-1.715.406s-1.238-.135-1.712-.403zm2.879-1.598c.273-.313.41-.758.41-1.336v-.008c0-.635-.144-1.126-.43-1.473-.286-.346-.695-.52-1.227-.52-.474 0-.841.175-1.102.523-.261.349-.391.841-.391 1.477v.008c0 .578.137 1.022.41 1.332.273.31.66.465 1.16.465.507.001.897-.155 1.17-.468z"/></g><g><path d="M215.404 393.766l3.961-5.281c.229-.302.407-.616.535-.941s.191-.629.191-.91v-.016c0-.453-.133-.805-.398-1.055s-.644-.375-1.133-.375c-.464 0-.839.137-1.125.41s-.461.66-.523 1.16v.008h-1.648v-.008c.094-.651.285-1.207.574-1.668s.663-.813 1.121-1.055.987-.363 1.586-.363c.677 0 1.255.116 1.734.348s.844.569 1.094 1.012.375.977.375 1.602v.008c0 .401-.083.82-.25 1.258s-.398.859-.695 1.266l-3.289 4.469h4.297v1.516h-6.406v-1.385zM223.685 393.555h1.594v1.594l-1.594 1.578v-3.172zM231.49 389.509l-.008.281c-.13.239-.327.415-.59.527s-.574.168-.934.168c-.542 0-1.019-.138-1.43-.414s-.73-.665-.957-1.168-.34-1.085-.34-1.746v-.008c0-.734.124-1.362.371-1.883s.609-.917 1.086-1.188 1.048-.406 1.715-.406 1.237.138 1.711.414.835.677 1.082 1.203.371 1.159.371 1.898v.008c0 .406-.052.84-.156 1.301a8.052 8.052 0 01-.539 1.578c-.031.07-.065.14-.102.207l-2.422 4.867h-1.719l2.861-5.639zm.074-.985c.273-.339.41-.815.41-1.43v-.008c0-.599-.137-1.063-.41-1.391s-.66-.492-1.16-.492c-.505 0-.895.164-1.168.492s-.41.794-.41 1.398v.008c0 .614.137 1.09.41 1.426s.663.504 1.168.504c.5.001.887-.168 1.16-.507z"/></g><g><path d="M462.124 622.006a2.75 2.75 0 01-1.086-.977c-.278-.427-.465-.939-.559-1.539v-.008h1.594v.008c.058.417.224.741.5.973.276.232.636.348 1.078.348.511 0 .905-.17 1.184-.512.278-.341.418-.821.418-1.441v-.953c0-.614-.14-1.092-.418-1.434-.278-.341-.673-.512-1.184-.512-.276 0-.542.078-.797.234s-.479.375-.672.656h-1.453v-5.984h5.789v1.516h-4.195v2.555a2.275 2.275 0 011.414-.508c.656 0 1.218.136 1.684.406.466.271.82.667 1.063 1.188.242.521.363 1.148.363 1.883v.953c0 .734-.125 1.362-.375 1.883-.25.521-.614.918-1.094 1.191s-1.055.41-1.727.41c-.573 0-1.082-.113-1.527-.336zM469.034 620.631h1.594v1.594l-1.594 1.578v-3.172zM476.839 616.584l-.008.281c-.13.24-.327.416-.59.527a2.372 2.372 0 01-.934.168c-.542 0-1.019-.138-1.43-.414-.411-.275-.73-.665-.957-1.168-.227-.502-.34-1.084-.34-1.746v-.008c0-.734.124-1.361.371-1.883a2.62 2.62 0 011.086-1.188c.477-.271 1.048-.406 1.715-.406s1.237.139 1.711.414c.474.276.835.678 1.082 1.203.247.526.371 1.159.371 1.898v.008c0 .406-.052.84-.156 1.301s-.253.918-.445 1.371l-.094.207c-.031.07-.065.14-.102.207l-2.422 4.867h-1.719l2.861-5.639zm.074-.985c.273-.338.41-.814.41-1.43v-.008c0-.599-.137-1.063-.41-1.391s-.66-.492-1.16-.492c-.505 0-.895.164-1.168.492s-.41.795-.41 1.398v.008c0 .615.137 1.09.41 1.426s.663.504 1.168.504c.5.001.886-.168 1.16-.507z"/></g><g><path d="M460.835 261.115l3.961-5.281c.229-.302.407-.616.535-.941.128-.325.191-.629.191-.91v-.016c0-.453-.133-.805-.398-1.055s-.644-.375-1.133-.375c-.464 0-.839.137-1.125.41s-.461.66-.523 1.16v.008h-1.648v-.008c.094-.651.285-1.207.574-1.668s.663-.813 1.121-1.055.987-.363 1.586-.363c.677 0 1.255.116 1.734.348.479.232.844.569 1.094 1.012.25.443.375.977.375 1.602v.008c0 .401-.083.82-.25 1.258s-.398.859-.695 1.266l-3.289 4.469h4.297v1.516h-6.406v-1.385zM469.116 260.904h1.594v1.594l-1.594 1.578v-3.172zM474.116 262.213a2.61 2.61 0 01-1.082-1.172c-.247-.513-.371-1.131-.371-1.855v-.008c0-.422.05-.864.148-1.328a7.673 7.673 0 01.532-1.597l.109-.223 2.469-4.891h1.719l-2.898 5.664.008-.281c.13-.245.32-.435.57-.57.25-.135.542-.203.875-.203.589 0 1.094.133 1.516.398s.742.652.961 1.16.328 1.119.328 1.832v.008c0 .729-.124 1.354-.371 1.875a2.615 2.615 0 01-1.086 1.188c-.477.271-1.048.406-1.715.406s-1.238-.135-1.712-.403zm2.879-1.598c.273-.313.41-.758.41-1.336v-.008c0-.635-.144-1.126-.43-1.473-.286-.346-.695-.52-1.227-.52-.474 0-.841.175-1.102.523-.261.349-.391.841-.391 1.477v.008c0 .578.137 1.022.41 1.332.273.31.66.465 1.16.465.507.001.896-.156 1.17-.468z"/></g></g></svg>