<svg version="1.1" id="_x31_80" xmlns="http://www.w3.org/2000/svg" x="0" y="0" viewBox="0 0 489.01 670.762" xml:space="preserve"><style>.st1{fill-rule:evenodd;clip-rule:evenodd;stroke:#999;stroke-width:.4}.st1,.st2,.st3{fill:none;stroke-linecap:round;stroke-linejoin:round;stroke-miterlimit:3}.st2{fill-rule:evenodd;clip-rule:evenodd;stroke:#999}.st3{stroke:#000}.st4,.st6{fill-rule:evenodd;clip-rule:evenodd;fill:none;stroke-miterlimit:22.9256}.st4{stroke-linecap:round;stroke-linejoin:round;stroke:#000}.st6{stroke:#666;stroke-width:.6}.st7{fill:none;stroke:#000;stroke-linecap:round;stroke-linejoin:round;stroke-miterlimit:3}.st7,.st8{fill-rule:evenodd;clip-rule:evenodd}</style><path fill-rule="evenodd" clip-rule="evenodd" fill="#fff" d="M285.29 439.888V.392H41.956V26.93H.54v189.791h41.416v151.834H.415v120.833h41.541V670.37h446.427V439.888z"/><g id="mebel_1_"><path class="st1" d="M472.23699999999997 501.58000000000004l1.511-1.511M465.291 501.58l2.799-2.799M458.344 501.58l9.746-9.746M451.397 501.58l13.216-13.216M444.449 501.58l12.396-12.396m-19.342 12.396l13.285-13.285m11.558-11.558l5.744-5.744m-37.533 30.587l16.805-16.805m8.671-8.671l12.057-12.057m-44.481 37.533l39.331-39.331m-46.278 39.331l37.821-37.821m-44.77 37.822l37.823-37.822m-44.77 37.822l37.822-37.822m-44.769 37.822l37.822-37.822m-44.768 37.822l37.822-37.822m-43.814 36.866l36.866-36.867m-36.866 29.92l29.919-29.919M382.881 486.731l22.972-22.973m-22.972 16.026l16.025-16.025m-16.025 9.08l9.079-9.08m-9.079 2.132l2.132-2.132m83.077 1.426l-2.938-2.936m2.938 9.883l-9.884-9.883M466.149 477.138l-13.379-13.379m5.612 12.559l-12.559-12.559m30.873 37.821l-1.511-1.511m-7.095-7.096l-4.501-4.501m-11.824-11.824l-12.889-12.889m30.874 37.821l-1.511-1.511m-.149-.148l-10.785-10.786m-9.528-9.528l-15.848-15.849m30.874 37.822l-37.821-37.821M455.856 501.58l-37.821-37.821M448.909 501.58l-37.821-37.821M441.962 501.58l-37.821-37.821M435.015 501.58l-37.822-37.821m-14.159-14.16l-.152-.152m45.186 52.133l-37.821-37.821M421.121 501.58l-37.926-37.926m-.21-.21l-.104-.104m31.293 38.24l-31.292-31.292M407.228 501.581l-24.347-24.347M400.282 501.581l-17.4-17.4M393.334 501.581l-10.453-10.452m3.506 10.452l-3.506-3.506M65.1 223.628h35.329M65.1 212.292h35.329M65.1 200.957h8.414m17.933 0h69.439M65.1 189.621h3.694m27.373 0h64.72M65.1 178.285h2.271m30.22 0h37.96M65.1 166.949h3.644m27.473 0h60.136M65.1 155.613h8.232m18.298 0h64.723M65.1 144.277h91.253m1.984 60.647v-19.116m-22.672 19.116v-26.362m0-4.402v-39.897m-22.672 70.661v-70.661m-22.671 89.554v-21.45m0-48.391v-19.713M67.65 223.817v-40.724m0-9.843v-38.987M187.337 223.628h39.676m-39.676-11.336h39.676m-56.302-11.335h56.302m-36.53-11.336h36.53m-56.302-11.336h56.302m-63.103-11.336h63.103m-63.103-11.336h32.874m-32.874-11.336h2.267m53.09 79.54v-59.325m-22.672 59.325v-74.595m0-14.802v-.156m-22.672 74.06v-9.259m0-11.332v-38.355"/><path class="st2" d="M111.529 540.009V568.4M110.396 569.534H82.005M80.872 568.4v-28.391M82.005 538.875h28.391M71.475 529.48v38.92M72.609 569.534h7.129M80.872 568.4v-29.524M80.872 538.875h29.524M111.529 537.743v-7.129M110.396 529.48h-38.92M76.766 568.4v-33.63M76.766 534.77h33.63M69.964 569.534v-41.565M69.964 527.968h41.565M69.964 569.534h2.645M111.529 530.614v-2.646M111.529 537.743v2.267M79.738 569.534h2.267M80.872 538.875l-9.396-9.396M111.529 568.4c0 .626-.508 1.134-1.133 1.134M82.005 569.534a1.134 1.134 0 01-1.133-1.134M80.872 540.009c0-.626.507-1.134 1.133-1.134M110.396 538.875c.625 0 1.133.508 1.133 1.134M72.609 569.534a1.134 1.134 0 01-1.134-1.134M80.872 568.4c0 .626-.508 1.134-1.134 1.134M111.529 537.743c0 .626-.508 1.133-1.133 1.133M110.396 529.48c.625 0 1.133.507 1.133 1.134M76.766 568.4c0 .626-.507 1.134-1.133 1.134M111.529 533.636c0 .626-.508 1.134-1.133 1.134M69.964 607.32v-37.786M69.964 607.32h2.645M69.964 569.534h2.645M79.738 607.32h2.267M79.738 569.534h2.267M111.529 570.666v35.521M110.396 607.32H82.005M80.872 606.186v-35.52M82.005 569.534h28.391M71.475 570.666v35.521M72.609 607.32h7.129M80.872 606.186v-35.52M79.738 569.534h-7.129M76.766 606.186v-35.52M111.529 606.186c0 .626-.508 1.134-1.133 1.134M82.005 607.32a1.134 1.134 0 01-1.133-1.134M80.872 570.666c0-.626.507-1.133 1.133-1.133M110.396 569.534c.625 0 1.133.507 1.133 1.133M72.609 607.32a1.134 1.134 0 01-1.134-1.134M80.872 606.186c0 .626-.508 1.134-1.134 1.134M79.738 569.534c.626 0 1.134.507 1.134 1.133M71.475 570.666c0-.626.508-1.133 1.134-1.133M76.766 606.186c0 .626-.507 1.134-1.133 1.134M75.632 569.534c.626 0 1.133.507 1.133 1.133M111.529 640.194v4.156M110.773 645.106H70.72M69.964 644.35v-4.156M70.72 639.438h40.053M69.964 640.194V607.32M69.964 607.32h2.645M79.738 607.32h2.267M111.529 608.453v29.852M110.396 639.438H82.005M80.872 638.304v-29.851M82.005 607.32h28.391M71.475 608.453v29.852M72.609 639.438h7.129M80.872 638.304v-29.851M79.738 607.32h-7.129M76.766 638.304v-29.851M111.529 644.35a.756.756 0 01-.756.756M70.72 645.106a.757.757 0 01-.756-.756M69.964 640.194c0-.418.338-.756.756-.756M110.773 639.438c.417 0 .756.338.756.756M111.529 638.304c0 .626-.508 1.134-1.133 1.134M82.005 639.438a1.134 1.134 0 01-1.133-1.134M80.872 608.453c0-.626.507-1.134 1.133-1.134M110.396 607.32c.625 0 1.133.508 1.133 1.134M72.609 639.438a1.134 1.134 0 01-1.134-1.134M80.872 638.304c0 .626-.508 1.134-1.134 1.134M79.738 607.32c.626 0 1.134.508 1.134 1.134M71.475 608.453c0-.626.508-1.134 1.134-1.134M76.766 638.304c0 .626-.507 1.134-1.133 1.134M75.632 607.32c.626 0 1.133.508 1.133 1.134M111.529 527.968h37.787M111.529 527.968v2.646M149.316 527.968v2.646M111.529 537.743v2.267M149.316 537.743v2.267M148.182 569.534h-35.519M111.529 568.4v-28.391M112.663 538.875h35.519M149.316 540.009V568.4M148.182 529.48h-35.519M111.529 530.614v7.129M112.663 538.875h35.519M149.316 537.743v-7.129M112.663 534.77h35.519M112.663 569.534a1.134 1.134 0 01-1.134-1.134M111.529 540.009c0-.626.507-1.134 1.134-1.134M148.182 538.875c.626 0 1.134.508 1.134 1.134M149.316 568.4c0 .626-.508 1.134-1.134 1.134M111.529 530.614c0-.627.507-1.134 1.134-1.134M112.663 538.875a1.134 1.134 0 01-1.134-1.133M149.316 537.743c0 .626-.508 1.133-1.134 1.133M148.182 529.48c.626 0 1.134.507 1.134 1.134M112.663 534.77a1.134 1.134 0 01-1.134-1.134M149.316 533.636c0 .626-.508 1.134-1.134 1.134M135.493 504.569v3.028m0 0h.859m0 0h17.176m0 0h.859m0 0v-3.028M154.386 511.025v-3.428m0 0h-.859m0 0v3.225m0 0h.058m0 0l.293-.196m0 0l.343.086m0 0l.165.313M153.585 513.383l.293-.196m0 0l.343.087m0 0l.165.312m0 0v-2.561m0 0l-.165-.314m0 0l-.343-.086m0 0l-.293.196m0 0h-17.291m0 0l-.293-.196m0 0l-.343.086m0 0l-.165.314m0 0v2.561m0 0l.165-.312m0 0l.343-.087m0 0l.293.196m0 0h17.291M135.493 511.025l.165-.313m0 0l.343-.086m0 0l.294.196m0 0h.057m0 0v-3.225m0 0h-.859m0 0v3.428M152.723 513.788h-15.566m-.001 0l1.004.228m.001.001h13.557m0 0l1.005-.228M153.585 513.788l.293.196m0 .001l.343-.086m0-.001l.165-.312m0 .001l-.165-.313m0 0l-.343-.087m0 0l-.293.197m0 0h-17.291m0 0l-.293-.197m0 0l-.343.087m0 0l-.165.313m0 0l.165.312m0-.001l.343.086m0 .001l.293-.196m0-.001h17.291M113.577 504.569v3.028m0 0h.858m0 0h17.176m0 0h.859m0 0v-3.028M132.469 511.025v-3.428m0 0h-.858m0 0v3.225m0 0h.057m0 0l.294-.196m0 0l.342.086m0 0l.165.313M131.669 513.383l.293-.196m-.001 0l.343.087m0 0l.165.312m0 0v-2.561m0 0l-.165-.314m0 0l-.343-.086m0 0l-.293.196m.001 0h-17.291m0 0l-.293-.196m-.001 0l-.343.086m0 0l-.165.314m0 0v2.561m0 0l.165-.312m0 0l.343-.087m0 0l.293.196m.001 0h17.291M113.577 511.025l.165-.313m0 0l.342-.086m0 0l.294.196m0 0h.057m0 0v-3.225m0 0h-.858m0 0v3.428M130.806 513.788h-15.565m0 0l1.004.228m0 .001h13.557m0 0l1.004-.228M131.669 513.788l.293.196m-.001.001l.343-.086m0-.001l.165-.312m0 .001l-.165-.313m0 0l-.343-.087m0 0l-.293.197m.001 0h-17.291m0 0l-.293-.197m-.001 0l-.343.087m0 0l-.165.313m0 0l.165.312m0-.001l.343.086m0 .001l.293-.196m.001-.001h17.291M135.493 470.561v-3.028m0 0h.859m0 0h17.176m0 0h.859m0 0v3.028M154.386 464.106v3.427m0 0h-.859m0 0v-3.224m0 0h.058m0 0l.293.196m0 0l.343-.087m0 0l.165-.312M153.585 461.747l.293.196m0 .001l.343-.087m0 0l.165-.312m0 0v2.561m0 0l-.165.313m0 0l-.343.087m0 0l-.293-.196m0-.001h-17.291m0 0l-.293.196m0 .001l-.343-.087m0 0l-.165-.313m0 0v-2.561m0 0l.165.312m0 0l.343.087m0 0l.293-.196m0-.001h17.291M135.493 464.106l.165.312m0 0l.343.087m0 0l.294-.196m0 0h.057m0 0v3.224m0 0h-.859m0 0v-3.427M152.723 461.341h-15.566m-.001 0l1.004-.227m.001 0h13.557m0 0l1.005.227M153.585 461.341l.293-.196m0 0l.343.087m0 0l.165.312m0 0l-.165.313m0 0l-.343.087m0 0l-.293-.197m0 0h-17.291m0 0l-.293.197m0 0l-.343-.087m0 0l-.165-.313m0 0l.165-.312m0 0l.343-.087m0 0l.293.196m0 0h17.291M113.577 470.561v-3.028m0 0h.858m0 0h17.176m0 0h.859m0 0v3.028M132.469 464.106v3.427m0 0h-.858m0 0v-3.224m0 0h.057m0 0l.294.196m0 0l.342-.087m0 0l.165-.312M131.669 461.747l.293.196m-.001.001l.343-.087m0 0l.165-.312m0 0v2.561m0 0l-.165.313m0 0l-.343.087m0 0l-.293-.196m.001-.001h-17.291m0 0l-.293.196m-.001.001l-.343-.087m0 0l-.165-.313m0 0v-2.561m0 0l.165.312m0 0l.343.087m0 0l.293-.196m.001-.001h17.291M113.577 464.106l.165.312m0 0l.342.087m0 0l.294-.196m0 0h.057m0 0v3.224m0 0h-.858m0 0v-3.427M130.806 461.341h-15.565m0 0l1.004-.227m0 0h13.557m0 0l1.004.227M131.669 461.341l.293-.196m-.001 0l.343.087m0 0l.165.312m0 0l-.165.313m0 0l-.343.087m0 0l-.293-.197m.001 0h-17.291m0 0l-.293.197m-.001 0l-.343-.087m0 0l-.165-.313m0 0l.165-.312m0 0l.343-.087m0 0l.293.196m.001 0h17.291M110.553 504.569v3.028m0 0h-.859m0 0H92.518m0 0h-.858m0 0v-3.028M91.66 511.025v-3.428m0 0h.858m0 0v3.225m0 0h-.057m0 0l-.294-.196m0 0l-.342.086m0 0l-.165.313M92.462 513.383l-.294-.196m-.001 0l-.343.087m0 0l-.164.312m0 0v-2.561m0 0l.164-.314m0 0l.343-.086m0 0l.294.196m.001 0h17.291m-.001 0l.293-.196m0 0l.343.086m0 0l.165.314m0 0v2.561m0 0l-.165-.312m0 0l-.343-.087m0 0l-.293.196m0 0h-17.29M110.553 511.025l-.165-.313m0 0l-.343-.086m0 0l-.293.196m0 0h-.058m0 0v-3.225m0 0h.859m0 0v3.428M93.324 513.788h15.565m0 0l-1.004.228m0 .001H94.329m0 0l-1.005-.228M92.462 513.788l-.294.196m-.001.001l-.343-.086m0-.001l-.164-.312m0 .001l.164-.313m0 0l.343-.087m0 0l.294.197m.001 0h17.291m-.001 0l.293-.197m0 0l.343.087m0 0l.165.313m0 0l-.165.312m0-.001l-.343.086m0 .001l-.293-.196m0-.001h-17.29M110.553 470.561v-3.028m0 0h-.859m0 0H92.518m0 0h-.858m0 0v3.028M91.66 464.106v3.427m0 0h.858m0 0v-3.224m0 0h-.057m0 0l-.294.196m0 0l-.342-.087m0 0l-.165-.312M92.462 461.747l-.294.196m-.001.001l-.343-.087m0 0l-.164-.312m0 0v2.561m0 0l.164.313m0 0l.343.087m0 0l.294-.196m.001-.001h17.291m-.001 0l.293.196m0 .001l.343-.087m0 0l.165-.313m0 0v-2.561m0 0l-.165.312m0 0l-.343.087m0 0l-.293-.196m0-.001h-17.29M110.553 464.106l-.165.312m0 0l-.343.087m0 0l-.293-.196m0 0h-.058m0 0v3.224m0 0h.859m0 0v-3.427M93.324 461.341h15.565m0 0l-1.004-.227m0 0H94.329m0 0l-1.005.227M92.462 461.341l-.294-.196m-.001 0l-.343.087m0 0l-.164.312m0 0l.164.313m0 0l.343.087m0 0l.294-.197m.001 0h17.291m-.001 0l.293.197m0 0l.343-.087m0 0l.165-.313m0 0l-.165-.312m0 0l-.343-.087m0 0l-.293.196m0 0h-17.29M477.158 501.58h-64.236m0 0v26.072m0 0h64.236m0 0V501.58M469.664 525.568l.93-.08m0 0l.901-.235m0 0l.846-.384m0 0l.763-.522m0 0l.661-.642m0 0l.535-.744m0 0l.394-.825m0 0l.241-.878m0 0l.083-.905m0 0v-11.472m0 0l-.083-.906m0 0l-.241-.878m0 0l-.394-.823m0 0l-.535-.745m0 0l-.661-.643m0 0l-.763-.521m0 0l-.846-.384m0 0l-.901-.235m0 0l-.93-.079m0 0h-43.36m0 0l-1.952.166m0 0l-1.893.494m0 0l-1.775.806m0 0l-1.605 1.096m0 0l-1.386 1.349m0 0l-1.124 1.563m0 0l-.828 1.731m0 0l-.508 1.843m0 0l-.17 1.902m0 0l.17 1.901m0 0l.508 1.844m0 0l.828 1.73m0 0l1.124 1.564m0 0l1.386 1.349m0 0l1.605 1.095m0 0l1.775.807m0 0l1.893.494m0 0l1.952.167m0 0h43.36M469.034 514.617a.944.944 0 11-1.889 0 .944.944 0 011.889 0zM414.055 449.401h-30.607m0 0l-.4.166m0 0l-.167.4m0 0v13.226m0 0l.167.401m0 0l.4.166m0 0h30.607m0 0l.401-.166m0 0l.166-.401m0 0v-13.226m0 0l-.166-.4m0 0l-.401-.166M412.922 453.557h-13.717m-.907 0h-13.716M384.015 454.125v7.935M384.582 462.627h28.34M413.488 462.059v-7.935M384.015 454.125c0-.313.253-.567.567-.567M384.582 462.627a.567.567 0 01-.567-.567M413.488 462.059a.567.567 0 01-.566.567M412.922 453.557c.312 0 .566.254.566.567M399.507 456.34a.752.752 0 01-.302.604v-1.209a.754.754 0 01.302.605zm-1.209.604a.753.753 0 010-1.208v1.208zM398.298 449.93h.907m0 0v7.748m0 0l-.256.301m0 0h-.395m0 0l-.256-.301m0 0v-7.748M399.507 449.93h-1.511m0 0v-.265m0 0h1.511m0 0v.265M399.885 449.665h-2.267m0 0v-.265m0 0h2.267m0 0v.265M402.02 451.29v-1.625m0 0h-.094m0 0v-.132m0 .001h-.283m0 0v-.134m0 0h1.889m0 0v.133m0 .001h-.283m0 0v.132m0-.001h-.095m0 0v1.625m0 0h-.322m0 0v.415m0 0h1.078m0 0v.492m0 .001h-2.645m0 0v-.492m0-.001h1.076m0 0v-.415m0 0h-.321M395.483 451.29v-1.625m0 0h.094m.001 0v-.132m0 .001h.283m-.001 0v-.134m0 0h-1.889m0 0v.133m0 .001h.284m0 0v.132m0-.001h.094m0 0v1.625m0 0h.322m0 0v.415m0 0h-1.078m0 0v.492m0 .001h2.645m0 0v-.492m0-.001h-1.076m.001 0v-.415m0 0h.321M402.833 451.705l-.072.072M402.341 451.705l.072.072M402.833 451.29h-.491M403.154 449.665h-1.134M401.926 449.534h1.323M394.671 451.705l.072.072M395.162 451.705l-.072.072M394.671 451.29h.491M394.35 449.665h1.134M395.578 449.534h-1.322M402.833 451.952a.246.246 0 11-.492 0 .246.246 0 01.492 0zM395.162 451.952a.246.246 0 11-.492 0 .246.246 0 01.492 0zM453.098 489.073l-1.645-.469m0 0l-1.551-.719m0 0l-1.231-.967m0 0l-.942-1.248m-.001 0l-.594-1.449m.001 0l-.205-1.55m0 0l.205-1.551m0 0l.594-1.448m-.001 0l.942-1.248m.001 0l1.231-.968m0 0l1.551-.719m0 0l1.645-.469m0 0l1.698-.207m0 0l1.709.06m0 0l11.585 1.223m-.001 0v10.654m0 0l-11.585 1.222m.001 0l-1.709.06m0 0l-1.698-.207M462.368 478.553v4.117M462.368 482.67v4.116M447.215 482.67a5.73 5.73 0 01.887-3.063M448.102 479.607c1.723-2.217 4.238-3.413 6.83-3.248M454.932 476.359c2.608-.07 5.184.689 7.437 2.194M462.368 486.786c-2.253 1.506-4.828 2.266-7.437 2.195M454.932 488.982c-2.592.165-5.107-1.031-6.83-3.248M448.102 485.734a5.746 5.746 0 01-.887-3.063M468.09 478.023v9.295m0 0h-.189m0 0v-9.295m0 0h.189M468.09 492.117v-18.893M472.624 492.117v-18.893M468.09 492.117h4.534M468.09 473.224h4.534M304.985 606.189l.007-.005M304.985 606.189h-1.294M304.284 607.829l.107.192M304.391 608.022l.173.138M304.564 608.16l.212.061M304.777 608.22l.219-.026M304.996 608.194l.192-.108M305.188 608.085l.137-.175M305.325 607.911l.06-.214M305.385 607.697l-.026-.221M307.634 599.427l.121-1.901M310.227 598.165v-.639M312.111 598.096l.216-.043M312.328 598.053l.183-.124M312.511 597.929l.123-.185M312.634 597.744l.042-.218M297.673 606.189h6.018M303.691 606.189l.593 1.64M304.284 607.829l.431 1.338M304.714 609.166l.142.073M304.856 609.24l.86-.282M305.717 608.957l.073-.144M305.79 608.814l-.432-1.338M305.359 607.476l-.366-1.292M304.993 606.184l1.053-.654M306.046 605.53l.898-1.878M306.944 603.652l.601-2.811M307.544 600.841l.09-1.414M307.634 599.427h1.462M309.097 599.427h1.13M310.227 599.427v-1.263M310.227 598.165l1.884-.069M312.111 598.096h1.394M313.505 598.096l.113-.114M313.619 597.982v-.456M304.985 588.862l.007.006M304.985 588.862h-1.294M304.284 587.223l.107-.194M304.391 587.029l.173-.138M304.564 586.891l.212-.061M304.777 586.83l.219.027M304.996 586.857l.192.109M305.188 586.966l.137.175M305.325 587.141l.06.214M305.385 587.355l-.026.221M307.634 595.624l.121 1.902M310.227 596.887v.639M312.111 596.956l.216.043M312.328 596.998l.183.125M312.511 597.123l.123.185M312.634 597.307l.042.219M297.673 588.862h6.018M303.691 588.862l.593-1.639M304.284 587.223l.431-1.338M304.714 585.885l.142-.073M304.856 585.812l.86.282M305.717 586.094l.073.144M305.79 586.238l-.432 1.338M305.359 587.576l-.366 1.292M304.993 588.868l1.053.654M306.046 589.522l.898 1.878M306.944 591.4l.601 2.811M307.544 594.21l.09 1.414M307.634 595.624h1.462M309.097 595.624h1.13M310.227 595.624v1.264M310.227 596.887l1.884.068M312.111 596.956h1.394M313.505 596.956l.113.113M313.619 597.07v.456M300.996 608.078l2.155-.115m0-.001l1.826-.33m0 .001l1.221-.493m-.001 0l.428-.583m.001-.001l-.428-.582m-.001.001l-1.221-.494m.001-.001l-1.826-.329m0 .001l-2.155-.116m0-.001l-2.155.116m0 .001l-1.167.21m-.001 2.39l1.167.211m.001-.001l2.155.115M300.996 586.974l2.155.115m0 0l1.826.329m0 0l1.221.494m-.001 0l.428.583m.001 0l-.428.582m-.001 0l-1.221.493m.001 0l-1.826.33m0 0l-2.155.116m0 0l-2.155-.116m0 0l-1.167-.211m-.001-2.39l1.167-.21m.001 0l2.155-.115M309.581 603.453l.544-1.813M308.339 605.735l-.412.301M308.937 604.993l-.599.742M310.667 598.854l-.183 1.27M310.733 597.526l-.066 1.328M310.125 601.639l.359-1.516M309.581 603.453l-.644 1.54M311.416 598.933l.069-1.407M307.377 597.526l-.091 2.153M307.286 599.679l-.3 2.085M306.986 601.764l-.538 1.944M306.448 603.709l-.291 1.474M306.157 605.183l.441.673M306.599 605.856l.671.192M307.27 606.048l.396.033M307.666 606.081l.261-.046M307.927 606.035h.461M308.388 606.035l.412-.301M308.8 605.735l1.108-1.179M309.908 604.556l.418-.959M310.326 603.597l.442-1.198M310.769 602.399l.411-1.819M311.181 600.58l.235-1.646M309.581 591.599l.544 1.813M308.339 589.317l-.412-.301M308.937 590.059l-.599-.742M310.667 596.197l-.183-1.269M310.733 597.526l-.066-1.329M310.125 593.413l.359 1.515M309.581 591.599l-.644-1.54M311.416 596.119l.069 1.407M307.377 597.526l-.091-2.154M307.286 595.372l-.3-2.084M306.986 593.288l-.538-1.944M306.448 591.343l-.291-1.475M306.157 589.869l.441-.673M306.599 589.196l.671-.192M307.27 589.003l.396-.033M307.666 588.97l.261.046M307.927 589.016h.461M308.388 589.016l.412.301M308.8 589.317l1.108 1.179M309.908 590.496l.418.959M310.326 591.455l.442 1.198M310.769 592.653l.411 1.819M311.181 594.472l.235 1.646M311.006 599.821l-.126.758m0 0l-.163.75m0 0l-.267 1.108m0 0l-.139.104m0 0l-.272-.009m0 0l-.732-.18m0 0l-.492-.236m0 0l-.152-.314m0 0l.223-.923m0 0l.143-.662m0 0l.112-.667m0 0l.08-.672m0 0l.048-.675m0 0l.016-.677m0 0l-.016-.677m0 0l-.048-.674m0 0l-.08-.673m0 0l-.112-.667m0 0l-.143-.661m0 0l-.223-.924m0 0l.152-.315m0 0l.492-.235m0 0l.732-.18m0 0l.272-.01m0 0l.139.105m0 0l.267 1.108m0 0l.163.75m0 0l.126.757m0 0l.091.763m0 0l.054.765m0 0l.019.768m0 0l-.019.768m0 0l-.054.765m0 0l-.091.762M227.013 164.493h-30.229M196.784 164.493v-30.229M221.345 140.876a.945.945 0 11-1.89 0 .945.945 0 011.89 0zM214.099 147.247l1.397.372m0 0l1.208.793m0 0l.899 1.132m0 0l.496 1.358m0 0l.042 1.445m0 0l-.413 1.385m0 0l-.828 1.184m0 0l-1.159.864m0 0l-1.372.455m0 0h-1.446m0 0l-1.372-.455m0 0l-1.16-.864m0 0l-.828-1.184m0 0l-.413-1.385m0 0l.043-1.445m-.001 0l.496-1.358m.001 0l.898-1.132m0 0l1.208-.793m0 0l1.397-.372m0 0v-5.538m0 0l-.455.108m0 0l-.49.037m0 0l-.488-.037m0 0l-.456-.108m0 0l-.392-.172m0 0l-.3-.225m0 0l-.188-.261m0 0l-.065-.281m0 0v-.402m0 0l.019-.121m0 0l.064-.277m0 0l.055-.103m0 0l.181-.251m0 0l.078-.071m0 0l.274-.204m-.001 0l.357-.157m.001 0l.195-.052m0 0l.25-.059m0 0l.02-.688m0 0l.009-.796m0 0h-1.729m-.001 0v-.435m0 0h-2.871m.001 0l-.16-.059m0 0l-.083-.148m0 0l.033-.167m0 0l.133-.105m0 0l.486-.158m0 0l.726-.315m0 0l1.008-.573m0 0l.728-.259m-.001 0v-.124m0 0h-.604m.001 0v-.983m0 0h2.57m0 0v.878m0 0l.023.01m0 0l.039.028m0 0l.033.034m0 0l.025.04m-.001 0l.278.673m.001 0h.697m0 0v-1.36m0 0h-1.058m0 0v-.303m0 0h3.023m0 0v.303m0 0h-1.058m0 0v1.36m0 0h1.436m0 0v.151m0 0h.416m0 0v-.302m0 0h-.151m-.001 0v-.529m0 0h-.605m.001 0v-.983m0 0h2.569m0 0v.983m0 0h-.604m0 0v.529m0 0h-.151m0 0v.302m0 0h.151m0 0v1.512m0 0h-2.57m0 0v2.154m0 0h-.023m0 0h-.059m0 0h-.094m0 0h-.123m0 0h-.15m0 0h-.042m0 0v7.504M211.756 135.926h.21m0 0l-.141-.341m0 0l-.325-.053m0 0l-.009.001m0 0v.242m0 0h-.151m0 0v.302m0 0h.416m0 0v-.151M210.282 136.077v-.241m0 0l-.676.24m0 0l-.988.564m0 0l-.053.023m0 0h1.566m0 0v-.586m0 0h.151M216.139 135.246v.529M216.819 135.246v.529M210.483 135.246h-.353M211.34 135.775h-.189M211.152 135.775h-.681M210.471 135.775h-.014M211.152 135.599v.176M210.471 135.77v.005M210.282 136.077h1.058M212.635 137.589h.557M210.131 136.663v.491M212.701 138.155h.491M207.336 137.142l-.077.012M211.485 135.039l.047.002M211.315 135.071l.17-.032M212.03 135.122l.046.01M212.076 135.132l.02.009M210.131 135.37l.453-.16M210.584 135.21l.731-.139M211.44 135.544l.059-.012M207.336 137.142l.511-.167M207.848 136.975l.717-.312M210.542 135.227h.108a.108.108 0 10-.216 0 .108.108 0 00.216 0h-.108zM211.532 135.04l.498.082M213.189 139.644l.002-.002M213.192 139.113l-.002-.002M211.756 136.474v-.127M211.756 136.228v-.103M211.756 136.346v-.118M211.966 135.926h.523M210.718 135.682l.722-.138M210.282 135.836l.436-.154M212.436 136.559h.108a.108.108 0 10-.216 0 .108.108 0 00.216 0h-.108zM212.345 136.515l.091.044M212.247 136.5l.098.015M212.149 136.515l.098-.015M212.059 136.559l.091-.043M212.059 136.559h-.002M211.902 139.056l.345-.026M212.247 139.03l.345.026M211.831 139.073l.071-.017M212.913 139.132l.196.051M212.592 139.056l.321.076M211.878 136.726l-.008.063M213.109 139.184l.083.037M212.663 139.073l-.019-.688M212.625 136.789l-.009-.063M212.616 136.726l-.026-.057M212.59 136.669l-.042-.05M212.548 136.619l-.055-.038M212.493 136.581l-.057-.021M212.436 136.559l-.007-.002M212.429 136.557l-.069-.008M212.36 136.549h-.227M212.134 136.549l-.068.008M212.065 136.557l-.007.002M212.057 136.56l-.055.021M212.002 136.581l-.055.038M211.947 136.619l-.042.05M211.905 136.669l-.026.058M212.644 138.385l-.019-1.596M211.86 137.589l.009-.8M211.756 137.287h.108M212.631 137.287h.561M214.099 147.247v5.343M213.192 147.247v5.343M214.099 152.59h-.907M217.16 135.246h-1.36M217.008 135.775h-1.058M217.008 136.077h-1.058M215.535 136.077v1.209M211.756 137.287v-1.209M214.099 134.566h-.907M214.099 135.926v3.816M213.192 141.709v-5.783M215.535 137.287h-1.436M214.59 137.589h-.491M214.59 138.155h-.491M212.701 137.589v1.493M214.099 149.924a1.89 1.89 0 11-.907 0M215.535 136.614a.338.338 0 01.464.125.34.34 0 01-.464.464M185.703 186.997l1.645.469m0 0l1.552.718m0 0l1.229.968m0 0l.943 1.248m0 0l.594 1.448m0 0l.205 1.551m0 0l-.205 1.551m0 0l-.594 1.448m0 0l-.943 1.248m0 0l-1.229.968m0 0l-1.552.718m0 0l-1.645.469m0 0l-1.698.207m0 0l-1.709-.059m0 0l-11.585-1.223m0 0v-10.654m0 0l11.585-1.223m0 0l1.709-.06m0 0l1.698.208M176.432 197.515v-4.116M176.432 193.399v-4.116M191.587 193.399a5.74 5.74 0 01-.887 3.063M190.7 196.462c-1.723 2.217-4.238 3.413-6.83 3.249M183.87 199.711c-2.609.07-5.185-.69-7.437-2.195M176.432 189.283c2.253-1.506 4.828-2.266 7.437-2.195M183.87 187.087c2.591-.165 5.106 1.031 6.83 3.248M190.7 190.336c.57.889.881 1.961.887 3.063M170.711 198.047v-9.295m0 0h.189m0 0v9.295m0 0h-.189M170.711 183.952v18.894M166.177 183.952v18.894M170.711 183.952h-4.534M170.711 202.846h-4.534M141.361 182.763l-1.645-.469m0 0l-1.552-.718m0 0l-1.23-.968m0 0l-.943-1.248m0 0l-.593-1.448m0 0l-.206-1.551m0 0l.206-1.551m0 0l.593-1.448m0 0l.943-1.248m0 0l1.23-.967m0 0l1.552-.719m0 0l1.645-.469m0 0l1.697-.207m0 0l1.709.059m0 0l11.585 1.223m0 0v10.654m0 0l-11.585 1.223m0 0l-1.709.06m0 0l-1.697-.208M150.631 172.245v4.117M150.631 176.361v4.116M135.478 176.361a5.746 5.746 0 01.886-3.064M136.364 173.297c1.723-2.217 4.238-3.413 6.83-3.248M143.194 170.049c2.609-.07 5.185.69 7.437 2.195M150.631 180.477c-2.253 1.505-4.828 2.266-7.437 2.195M143.194 182.673c-2.591.166-5.106-1.031-6.83-3.248M136.364 179.425a5.742 5.742 0 01-.886-3.063M156.352 171.713v9.295m0 0h-.189m.001 0v-9.295m0 0h.189M156.352 185.807v-18.892M160.887 185.807v-18.892M156.352 185.807h4.536M156.352 166.915h4.536M196.217 134.263h-29.473m0 0l-.401.166m0 0l-.166.401m0 0v13.981m0 0l.166.401m0 0l.401.166m0 0h29.473m0 0l.401-.166m0 0l.166-.401m0 0V134.83m0 0l-.166-.401m0 0l-.401-.166M195.084 138.42h-13.15m-.907 0h-13.15M167.311 138.987v8.69M167.878 148.244h27.205M195.651 147.677v-8.69M167.311 138.987c0-.313.254-.566.567-.566M167.878 148.244a.567.567 0 01-.567-.567M195.651 147.677a.567.567 0 01-.567.567M195.084 138.42c.313 0 .567.253.567.566M182.236 141.408a.755.755 0 01-.303.605v-1.21a.752.752 0 01.303.605zm-1.209.605a.755.755 0 010-1.21v1.21zM181.027 134.792h.907m0 0v7.748m0 .001l-.256.301m0-.001h-.395m0 0l-.256-.301m0 .001v-7.748M182.236 134.792h-1.512m0 0v-.265m0 0h1.512m0 0v.265M182.614 134.528h-2.268m0 0v-.265m0 0h2.268m0 0v.265M184.749 136.153v-1.625m0 0h-.094m0 0v-.132m0 0h-.284m0 0v-.133m0 0h1.89m0 0v.133m0 0h-.284m0 0v.132m0 0h-.094m0 0v1.625m0 0h-.322m0 0v.416m0 0h1.078m0 0v.491m0 0h-2.646m0 0v-.491m0 0h1.077m0 0v-.416m0 0h-.321M178.212 136.153v-1.625m0 0h.095m0 0v-.132m0 0h.283m0 0v-.133m0 0h-1.889m0 0v.133m0 0h.283m0 0v.132m0 0h.095m0 0v1.625m0 0h.321m0 0v.416m0 0h-1.077m0 0v.491m0 0h2.645m0 0v-.491m0 0h-1.077m0 0v-.416m0 0h.321M185.561 136.568l-.072.072M185.07 136.568l.072.072M185.561 136.153h-.49M185.883 134.528h-1.134M184.655 134.396h1.322M177.4 136.568l.072.072M177.891 136.568l-.072.072M177.4 136.153h.491M177.079 134.528h1.133M178.306 134.396h-1.322M185.561 136.814a.246.246 0 11-.492 0 .246.246 0 01.492 0zM177.891 136.814a.246.246 0 11-.492 0 .246.246 0 01.492 0zM83.347 470.561v34.008m0 0h79.352m0 0v-34.008m0 0H83.347M297.673 620.198h-20.405m0 0v-56.27m0 0h20.405m0 0v56.27M203.207 564.082h20.027m0 0v-36.43m0 0h-20.027m0 0v36.43M203.207 607.915h20.027m0 0v13.795m0 0h-20.027m0 0v-13.795M455.998 463.76h-41.376m0 0v-14.359m0 0h41.376m0 0v14.359M409.899 501.58h-27.018m0 0v26.072m0 0h27.018m0 0V501.58M97.595 178.171l-.18-4.132m0 0l-.538-4.1m0 0l-.892-4.039m0 0l-1.24-3.945m0 0l-1.577-3.824m0 0l-1.342-2.271m0 0l-1.645-2.061m0 0l-1.917-1.811m0 0l-1.276-.921m0 0l-1.421-.679m0 0l-1.518-.417m0 0l-1.569-.14m0 0l-1.568.14m0 0l-1.519.417m0 0l-1.42.679m0 0l-1.277.921m0 0l-1.917 1.811m0 0l-1.645 2.061m0 0l-1.341 2.271m0 0l-1.578 3.824m0 0l-1.239 3.945m0 0l-.892 4.039m0 0l-.538 4.1m0 0l-.18 4.132m0 0l.18 4.132m0 0l.538 4.1m0 0l.892 4.039m0 0l1.239 3.945m0 0l1.578 3.823m0 0l1.341 2.271m0 0l1.645 2.061m0 0l1.917 1.811m0 0l1.277.922m0 0l1.42.679m0 0l1.519.416m0 0l1.568.14m0 0l1.569-.14m0 0l1.518-.416m0 0l1.421-.679m0 0l1.276-.922m0 0l1.917-1.811m0 0l1.645-2.061m0 0l1.342-2.271m0 0l1.577-3.823m0 0l1.24-3.945m0 0l.892-4.039m0 0l.538-4.1m0 0l.18-4.132M100.429 204.924h60.458M100.429 223.817h60.458M160.887 204.924v18.893M100.429 204.924v18.893M106.852 208.136h17.382M124.234 208.136v12.469M124.234 220.605h-8.237m-.908 0h-8.237M106.852 220.605v-12.469M137.081 208.136h17.382M154.463 208.136v12.469M154.463 220.605h-8.237m-.908 0h-8.237M137.081 220.605v-12.469M116.677 217.812c0 .465-.279.865-.68 1.039v-2.079c.401.176.68.575.68 1.04zm-1.588 1.04a1.134 1.134 0 010-2.078v2.078zM146.906 217.812c0 .465-.28.864-.68 1.039v-2.078c.4.175.68.575.68 1.039zm-1.588 1.04a1.134 1.134 0 010-2.078v2.078zM115.997 223.288h-.907m0 0v-7.749m0 0l.256-.3m0 0h.395m0 0l.256.3m0 0v7.749M114.788 223.288h1.512m0 0v.264m0 0h-1.512m0 0v-.264M114.41 223.552h2.267m0 0v.265m0 0h-2.267m0 0v-.265M112.275 221.928v1.625m0 0h.095m0 0v.132m0 0h.283m0 0v.132m0 0h-1.889m0 0v-.132m0 0h.283m0 0v-.132m0 0h.094m0 0v-1.625m0 0h.322m0 0v-.416m0 0h-1.077m0 0v-.491m0 0h2.645m0 0v.491m0 0h-1.077m0 0v.416m0 0h.321M118.812 221.928v1.625m0 0h-.095m0 0v.132m0 0h-.283m0 0v.132m0 0h1.89m0 0v-.132m0 0h-.284m0 0v-.132m0 0h-.094m0 0v-1.625m0 0h-.322m0 0v-.416m0 0h1.077m0 0v-.491m0 0h-2.644m0 0v.491m0 0h1.076m0 0v.416m0 0h-.321M146.226 223.288h-.907m0 0v-7.749m0 0l.256-.3m0 0h.395m0 0l.256.3m0 0v7.749M145.017 223.288h1.512m0 0v.264m0 0h-1.512m0 0v-.264M144.639 223.552h2.268m0 0v.265m0 0h-2.268m0 0v-.265M142.504 221.928v1.625m0 0h.095m0 0v.132m0 0h.283m0 0v.132m0 0h-1.889m0 0v-.132m0 0h.283m0 0v-.132m0 0h.095m0 0v-1.625m0 0h.321m0 0v-.416m0 0h-1.077m0 0v-.491m0 0h2.645m0 0v.491m0 0h-1.077m0 0v.416m0 0h.321M149.041 221.928v1.625m0 0h-.094m0 0v.132m0 0h-.284m0 0v.132m0 0h1.89m0 0v-.132m0 0h-.284m0 0v-.132m0 0h-.094m0 0v-1.625m0 0h-.322m0 0v-.416m0 0h1.077m0 0v-.491m0 0h-2.645m0 0v.491m0 0h1.077m0 0v.416m0 0h-.321M111.462 221.512l.072-.072M111.954 221.512l-.072-.072M111.462 221.928h.491M111.141 223.552h1.134M112.37 223.685h-1.323M119.624 221.512l-.072-.072M119.133 221.512l.072-.072M119.624 221.928h-.49M119.946 223.552h-1.134M118.717 223.685h1.323M141.692 221.512l.072-.072M142.183 221.512l-.072-.072M141.692 221.928h.491M141.37 223.552h1.133M142.599 223.685h-1.323M149.853 221.512l-.072-.072M149.362 221.512l.072-.072M149.853 221.928h-.491M150.175 223.552h-1.134M148.947 223.685h1.322M111.954 221.266a.246.246 0 11-.492 0 .246.246 0 01.492 0zM119.624 221.266a.246.246 0 11-.492 0 .246.246 0 01.492 0zM142.183 221.266a.246.246 0 11-.492 0 .246.246 0 01.492 0zM149.853 221.266a.246.246 0 11-.492 0 .246.246 0 01.492 0zM178.08 424.84v22.672m0 0h22.672m-.001 0V424.84m0 0H178.08M193.194 436.176h-7.557M192.088 433.504l-5.344 5.344M189.416 432.397v7.558M186.744 433.504l5.344 5.344M179.996 413.503v-19.271m0 0l.221-.534m.001 0l.535-.221m-.001 0h17.381m.001 0l.535.221m0 0l.221.534m0 0v19.271m0 0l-.221.534m0 0l-.535.222m0 0h-17.381m-.001 0l-.535-.222m.001 0l-.221-.534M178.08 424.84v-61.975M200.751 424.84v-61.975M178.08 424.84h22.671M178.08 362.866h22.671M181.886 411.615v-15.493M182.642 395.367h11.713M195.111 396.121v7.004m0 1.486v7.004M194.355 412.371h-11.713M181.886 411.615h.108a.108.108 0 00-.216 0c0 .059.049.108.108.108s.108-.049.108-.108h-.108zM181.886 396.121c0-.417.338-.755.756-.755M194.355 395.367c.417 0 .756.338.756.755M195.111 411.615a.756.756 0 01-.756.756M182.642 412.371a.757.757 0 01-.756-.756M190.279 404.208l-.241-.101m0 .001l-.098-.24m0-.001l.1-.24m0 0l.24-.1m0 .001h7.476m0 0l.241.1m0-.001l.099.241m0 .001l-.099.24m0-.001l-.241.1m0 0h-7.477M195.829 404.623v-.414m0-.001h1.927m0 0l.24-.1m0 .001l.1-.24m0 0l-.1-.241m0 0l-.24-.1m0 0h-1.927m0 0v-.414m0 0h2.456m0 0v1.509m0 0h-2.456M194.469 404.613v-.404m0 0h1.322m0 0v.404m0 0h-1.322M194.469 403.124h1.322m0 0v.403m0 .001h-1.322m0 0v-.403M166.744 385.537h-22.672M166.744 362.866h-22.672M166.744 385.537v-22.671M144.072 385.537v-22.671M93.06 383.459H71.144m0 0v-18.515m0-.001H93.06m0 0v18.515M82.103 372.179v-5.299M82.103 366.88h-1.097M82.103 372.179h-1.097M73.249 372.179v-5.299M74.344 366.88h-1.096M74.344 372.179h-1.096M91.088 369.313a2.739 2.739 0 11-5.478.002 2.739 2.739 0 015.478-.002zM91.045 377.552a3.968 3.968 0 11-7.935 0 3.968 3.968 0 017.935 0z"/><path class="st2" d="M89.345 377.552a2.268 2.268 0 11-4.536 0 2.268 2.268 0 014.536 0zM80.321 369.498a2.646 2.646 0 11-5.291-.001 2.646 2.646 0 015.291.001zM79.959 378.089a3.4 3.4 0 11-6.801-.001 3.4 3.4 0 016.801.001zM99.106 385.537H65.098M99.106 362.866H65.098M99.106 385.537v-22.671M65.099 385.537v-22.671M161.976 376.142a3.411 3.411 0 11-6.822 0 3.411 3.411 0 016.822 0z"/><path class="st2" d="M161.455 376.142a2.89 2.89 0 11-5.781 0 2.89 2.89 0 015.781 0zM154.835 376.974a2.579 2.579 0 11-5.158 0 2.579 2.579 0 015.158 0z"/><path class="st2" d="M153.701 376.974a1.445 1.445 0 11-2.89 0 1.445 1.445 0 012.89 0zM402.908 516.317a7.18 7.18 0 11-7.179-7.179 7.179 7.179 0 017.179 7.179zM96.453 178.285c0 13.719-6.256 24.84-13.973 24.84-7.716 0-13.972-11.121-13.972-24.84s6.256-24.841 13.972-24.841c7.717 0 13.973 11.122 13.973 24.841z"/><path class="st2" d="M84.559 178.285a2.078 2.078 0 11-4.156 0 2.078 2.078 0 014.156 0zM471.49 547.645a3.778 3.778 0 11-7.557.001 3.778 3.778 0 017.557-.001z"/><path class="st2" d="M468.846 547.645a1.134 1.134 0 11-2.267 0 1.134 1.134 0 012.267 0zM471.49 636.444a3.778 3.778 0 11-7.556 0 3.778 3.778 0 017.556 0z"/><path class="st2" d="M468.846 636.444a1.134 1.134 0 11-2.267-.001 1.134 1.134 0 012.267.001zM172.209 350.391a3.778 3.778 0 11-7.557 0 3.778 3.778 0 017.557 0z"/><path class="st2" d="M169.564 350.391a1.134 1.134 0 11-2.267 0 1.134 1.134 0 012.267 0zM83.41 350.391a3.778 3.778 0 11-7.557 0 3.778 3.778 0 017.557 0z"/><path class="st2" d="M80.765 350.391a1.134 1.134 0 11-2.267 0 1.134 1.134 0 012.267 0zM90.811 19.393a3.78 3.78 0 11-7.558 0 3.78 3.78 0 017.558 0z"/><path class="st2" d="M88.166 19.393a1.134 1.134 0 11-2.267 0 1.134 1.134 0 012.267 0zM179.608 19.393a3.78 3.78 0 11-7.558 0 3.78 3.78 0 017.558 0z"/><path class="st2" d="M176.963 19.393a1.134 1.134 0 11-2.267.001 1.134 1.134 0 012.267-.001zM165.439 89.297H97.422m0 0V13.725m0 0h68.016m.001 0v75.572M163.549 91.187H99.313m0 0l-.723-.144m0 0l-.613-.409m0 0l-.41-.613m0 0l-.144-.724m0 0h68.016m0 0l-.144.724m0 0l-.41.613m0 0l-.613.409m0 0l-.723.144M165.439 9.947H97.422m0 0v3.778m0 0h68.016m.001 0V9.947M97.423 9.947h68.016m0 0v1.889m0 0H97.423m0 0V9.947M95.534 9.947H78.53m0 0V28.84m0 0h17.004m0 0V9.947M167.328 9.947h17.004m0 0V28.84m0 0h-17.004m0 0V9.947M125.385 15.614H99.691m0 0l-.267.111m0 0l-.111.267m0 0v12.47m0 0l.111.267m0 0l.267.111m0 0h25.694m0 0l.268-.111m0 0l.11-.267m0 0v-12.47m0 0l-.11-.267m0 0l-.268-.111M137.477 15.614h25.695m0 0l.267.111m-.001 0l.11.267m.001 0v12.47m0 0l-.11.267m-.001 0l-.267.111m.001 0h-25.695m0 0l-.267-.111m0 0l-.111-.267m0 0v-12.47m0 0l.111-.267m0 0l.267-.111M165.439 27.816h-1.891M137.099 27.816h-11.336M99.313 27.816h-1.891M165.439 32.826H97.422m0 0v18.686m0 0l68.016-14.908m.001 0v-3.778M397.807 626.052v-68.016m0 0h75.573m0 0v68.016m0 0h-75.573M395.918 624.162v-64.236m0 .001l.144-.723m0-.001l.409-.613m0 .001l.613-.41m0-.001l.723-.144m0 0v68.016m0 .001l-.723-.144m0 0l-.613-.41m0-.001l-.409-.612m0 0l-.144-.724M477.158 626.052v-68.016m0 0h-3.778m0 0v68.016m0 0h3.778M477.158 558.036v68.016m0 .001h-1.89m0 0v-68.016m0-.001h1.89M477.158 556.147v-17.004m0 0h-18.893m0 0v17.004m0 0h18.893M477.158 627.941v17.004m0 0h-18.893m0 0v-17.004m0 0h18.893M471.49 585.999v-25.694m0-.001l-.11-.268m0 .001l-.268-.11m0 0h-12.47m0 0l-.266.11m0 0l-.111.268m0-.001v25.694m0 .001l.111.268m0-.001l.266.11m0 0h12.47m0 0l.268-.11m0 0l.11-.268M471.49 598.09v25.694m0 0l-.11.268m0 0l-.268.11m0 0h-12.47m0 0l-.266-.11m0 0l-.111-.268m0 0V598.09m0 0l.111-.268m0 0l.266-.11m0 0h12.47m0 0l.268.11m0 0l.11.268M459.289 626.052v-1.89M459.289 597.712v-11.336M459.289 559.926v-1.89M454.279 626.052v-68.016m0 0h-18.686m0 0l14.908 68.016m0 0h3.778M329.981 563.928h-52.712m0 0v-10.58m0 0h52.712m0 0v10.58M277.268 563.928l52.712-10.58m0 0v10.58m0 0l-52.712-10.58m0 0v10.58M230.036 378.363h-26.262m0 0v69.149m0 0h26.262m0 0v-69.149M214.733 447.512h.756m0 0v-69.149m0 0h-.756m0 0v69.149M224.454 385.8h-18.626m-.001 0v.755m0 0h18.626m.001 0v-.755M224.454 387.804h-18.626m-.001 0v.756m0 0h18.626m.001 0v-.756M224.454 389.809h-18.626m-.001 0v.756m0 0h18.626m.001 0v-.756M224.454 391.814h-18.626m-.001 0v.755m0 0h18.626m.001 0v-.755M224.318 396.06l-18.491-2.242m0 0l-.091.751m0 0l18.491 2.241m0 0l.091-.75M90.023 280.487h68.016m0 0v75.572m0 0H90.023m0 0v-75.572M91.913 278.597h64.237m-.001 0l.722.144m.001 0l.614.41m0 0l.409.612m-.001 0l.144.724m0 0H90.023m0 0l.144-.724m0 0l.41-.612m0 0l.613-.41m0 0l.723-.144M90.023 359.837h68.016m0 0v-3.778m0 0H90.023m0 0v3.778M158.038 359.837H90.023m0 0v-1.889m0 0h68.016m-.001 0v1.889M159.928 359.837h17.004m0 0v-18.893m0 0h-17.004m0 0v18.893M88.134 359.837H71.13m0 0v-18.893m0 0h17.004m0 0v18.893M130.077 354.169h25.695m0 0l.267-.11m0 0l.111-.268m0 0v-12.469m0 0l-.111-.267m0 0l-.267-.111m0 0h-25.695m0 0l-.267.111m0 0l-.111.267m0 0v12.469m0 0l.111.268m0 0l.267.11M117.985 354.169H92.291m0 0l-.267-.11m0 0l-.111-.268m0 0v-12.469m0 0l.111-.267m0 0l.267-.111m0 0h25.694m0 0l.268.111m0 0l.11.267m0 0v12.469m0 0l-.11.268m0 0l-.268.11M90.023 341.968h1.89M118.363 341.968h11.336M156.149 341.968h1.889M90.023 336.958h68.016m0 0v-18.686m0 0L90.023 333.18m0 0v3.778M65.099 226.84v22.671m0 0h92.94m-.001 0V226.84m0 0h-92.94M158.076 238.553v-.755m0 0H65.098m0 0v.755m0 0h92.978M72.536 228.833v18.626m0 0h.756m0 0v-18.626m0 0h-.756M74.541 228.833v18.626m0 0h.755m-.001 0v-18.626m0 0h-.755M76.545 228.833v18.626m0 0h.756m0 0v-18.626m0 0h-.756M78.55 228.833v18.626m0 0h.755m0 0v-18.626m0 0h-.755M82.795 228.968l-2.241 18.491m0 0l.75.091m0 0l2.241-18.491m0 0l-.75-.091M208.876 9.947v22.671m0 0h46.477m-.001 0V9.947m0 0h-46.477M255.352 21.661v-.756m0 0h-46.477m.001 0v.756m0 0h46.477M216.313 11.939v18.626m0 .001h.756m0 0V11.939m0 0h-.756M218.318 11.939v18.626m0 .001h.756m0 0V11.939m0 0h-.756M220.322 11.939v18.626m0 .001h.756m0 0V11.939m0 0h-.756M222.326 11.939v18.626m0 .001h.756m0 0V11.939m0 0h-.756M226.572 12.075l-2.241 18.491m0 0l.75.091m0 0l2.241-18.491m0 0l-.75-.091M277.268 54.912h-21.916m0 0v45.344m0 0h21.916m0 0V54.912M265.555 100.256h.756m0 0V54.912m0 0h-.756m0 0v45.344M275.276 62.349H256.65m0 0v.756m0 0h18.626m0 0v-.756M275.276 64.354H256.65m0 0v.756m0 0h18.626m0 0v-.756M275.276 66.358H256.65m0 0v.755m0 0h18.626m0 0v-.755M275.276 68.363H256.65m0 0v.756m0 0h18.626m0 0v-.756M275.141 72.609l-18.491-2.241m0 0l-.091.75m0 0l18.491 2.241m0 0l.091-.75M280.292 550.325v-22.672m0 0h49.689m-.001 0v22.672m0 0h-49.689M329.981 538.611v.756m0 0h-49.689m0 0v-.756m0 0h49.689M289.24 548.331v-18.626m0 .001h.755m0 0v18.626m0-.001h-.755M291.245 548.331v-18.626m0 .001h.756m0 0v18.626m0-.001h-.756M293.249 548.331v-18.626m0 .001h.756m0 0v18.626m0-.001h-.756M295.254 548.331v-18.626m0 .001h.756m0 0v18.626m0-.001h-.756M299.5 548.197l-2.242-18.491m0 0l.751-.09m0 0l2.241 18.49m0 0l-.75.091M227.013 359.848h-22.672m0 0v-81.251m0 0h22.672m0 0v81.251M215.299 278.597h.755m0 0v81.251m0 0h-.755m0 0v-81.251M225.02 352.411h-18.626m0 0v-.756m0 0h18.626m0 0v.756M225.02 350.407h-18.626m0 0v-.757m0 0h18.626m0 0v.757M225.02 348.402h-18.626m0 0v-.756m0 0h18.626m0 0v.756M225.02 346.397h-18.626m0 0v-.756m0 0h18.626m0 0v.756M224.885 342.151l-18.491 2.241m0 0l-.091-.75m0 0l18.491-2.241m0 0l.091.75M200.751 424.84v-61.975m0 0H65.098m0 0v22.672m0 0h112.981m0 0v39.303m0 0h22.672M162.633 378.349h-.963m0 0v1.204m0 0h-12.524m0 0v-1.204m0 0h-.964M161.17 368.823l-.048.104m-.047.103l-.047.103m-.047.103l-.047.103m-.047.103l-.048.104m-.046.102l-.048.104m-.047.102l-.047.104m-.047.102l-.047.104m-.048.102l-.047.104m-.047.103l-.047.103m-.047.103l-.047.103m-.047.104l-.048.102m-.047.104l-.047.103m-.047.103l-.047.103m-.047.103l-.047.103m-.048.103l-.047.103m-.047.103l-.047.103m-.047.104l-.048.102M151.536 368.823l.047.104m.047.103l.047.103m.047.103l.048.103m.047.103l.047.104m.047.102l.047.104m.047.102l.047.104m.048.102l.047.104m.047.102l.048.104m.047.103l.047.103m.046.103l.047.103m.048.104l.047.102m.048.104l.046.103m.048.103l.047.103m.047.103l.047.103m.048.103l.047.103m.047.103l.047.103m.047.104l.047.102M161.17 368.823h-.078m-.113 0h-.114m-.113 0h-.114m-.113 0h-.078m0 0l-.042.052m-.071.088l-.072.089m-.071.087l-.071.088m-.072.088l-.071.088m-.072.088l-.071.088m-.072.088l-.071.088m-.072.088l-.071.087m-.072.089l-.071.088m-.071.088l-.072.088m-.071.088l-.072.088m-.071.089l-.072.087m-.071.088l-.071.088m-.072.088l-.071.088m-.072.088l-.071.088m-.072.089l-.071.088m-.071.087l-.072.088m-.071.088l-.072.088m-.072.088l-.071.088m-.072.088l-.071.089m-.071.088l-.072.087m-.071.088l-.072.088m-.071.088l-.072.088m-.071.088l-.042.052M151.536 368.823h.078m.113 0h.114m.113 0h.113m.114 0h.078m0 0l.041.052m.072.088l.072.089m.071.087l.071.088m.071.088l.071.088m.073.088l.071.088m.071.088l.071.088m.072.088l.072.087m.071.089l.072.088m.071.088l.072.088m.071.088l.071.088m.072.089l.071.087m.072.088l.071.088m.072.088l.071.088m.072.088l.071.088m.072.089l.071.088m.071.087l.072.088m.071.088l.072.088m.071.088l.072.088m.071.088l.071.089m.072.088l.071.087m.071.088l.072.088m.072.088l.072.088m.07.088l.041.052M151.536 368.345h9.634m0 0v.478m0 0h-.722m0 0v-.237m0 0h-8.189m0 0v.237m0 0h-.723m0 0v-.478M401.737 515.801l-1.233.449m0 0h-1.312m0 0l-1.234-.449m0 0l-1.473.342m0 0h-1.512m0 0l-1.473-.342m0 0l-1.235.45m0 0h-1.314m0 0l-1.234-.45m0 0l2.231 2.987m0 0h7.558m0 0l2.231-2.987M399.506 519.05h-7.557m-.001 0v-.262m0 0h7.557m.001 0v.262M399.506 519.574h-7.557m-.001 0v-.262m0 0h7.557m.001 0v.262M394.885 514.287l.891-.085m0-.001l.022.225m0 .001l-.477.046m0-.001l1.383 1.142m0 .001l-.126.152m0-.001l-.642-.53m0 .001l-.067.081m0-.001l.74.612m0 0l-.121.146m0 0l-.739-.611m0 .001l-.081.097m0 0l.601.497m0-.001l-.107.13m0 .001l-.601-.497m0 0l-.081.098m0-.001l.414.343m0 0l-.115.139m0 .001l-1.422-1.174M407.065 504.981h-22.672m0 0v22.672m0 0h22.672m0 0v-22.672M409.899 501.58h-27.018m0 0v1.134m0 .001h27.018m0 0v-1.134M414.622 463.76h39.864m0 0v-14.359m0 0h-39.864m0 0v14.359M333.004 649.102h22.671m0 0v-57.058m0 0h-22.671m0 0v57.058M344.717 592.044h-.756m0 0v57.058m0 0h.756m0 0v-57.058M334.997 641.664h18.626m0 0v-.756m0 0h-18.626m0 0v.756M334.997 639.66h18.626m0 0v-.755m0 0h-18.626m0 0v.755M334.997 637.656h18.626m0 0v-.756m0 0h-18.626m0 0v.756M334.997 635.651h18.626m0 0v-.756m0 0h-18.626m0 0v.756M335.132 631.405l18.491 2.241m0 0l.091-.75m0 0l-18.491-2.241m0 0l-.091.75M338.294 530.676h-5.29m0 0v61.368m0 0h5.29m0 0v-61.368M67.428 190.358h8.288m0 0v.921m0 0h-8.288m0 0v-.921M67.428 191.279h1.315m0 0v3.026m0 0h-1.315m0 0v-3.026M466.852 543.966l.86 3.679m0 0l3.431 1.584m0 0l-3.431-1.584m0 0l-3.546 1.306M466.852 640.123l.86-3.679m0 0l3.431-1.584m0 0l-3.431 1.584m0 0l-3.546-1.306M172.109 349.531l-3.68.86m0 0l-1.583 3.431m0 0l1.583-3.431m0 0l-1.306-3.546M75.953 349.531l3.679.86m0 0l1.584 3.431m0 0l-1.584-3.431m0 0l1.306-3.546M83.352 20.253l3.679-.86m0 0l1.584-3.431m0 0l-1.584 3.431m0 0l1.306 3.546M179.509 20.253l-3.679-.86m0 0l-1.584-3.431m0 0l1.584 3.431m0 0l-1.306 3.546M206.957 587.495l.743 1.186m-.001 0l.939.942m.001 0l.614.401m0-.001l.711.293m0 .001l.932.151m0 0l.942-.089m0 0l.957-.339m-.001 0l.812-.596m.001-.001l.78-1.138m-.001.001l.733-1.182m0 0l.846-.755m.001-.001l1.042-.451m0 0l.949-.126m-.001.001l.838.043m.001 0l.829.164M219.623 585.999l-.568-.865m0-.001l-.688-.764m0 0l-.937-.7m0 .001l-.906-.38m0-.001l-.955-.151m0 0l-.956.089m0 0l-.908.345m0 0l-.467.294M213.238 583.867l.108-.415m0 0l.44-.426m0 0l.516-.245m0 0l.245-.052M214.547 582.729l-.986-.772m0 0l-1.036-.382m0 0l-1.11-.126m0 0l-1.235.068m0 0l-.587.156m0 0l-.542.274m0 0l-.846.825m0 0l-.859 1.317m0 0l-.754 1.629M206.592 585.718l.6-.597m0 0l1.21-.862m0 0l.458-.228m0 0l.489-.109m0 0l.638.14m0 0l.579.378m0 0l.549.698m0 0l.426.168m0 0l.475.014m0 0l.713-.15m0 0l.833-.607M213.562 584.563l-.111.592m-.001 0l-.374.778m.001 0l-.566.665m-.001 0l-.435.37m.001 0l-.499.268m-.001 0l-.469.098m.001 0l-.79-.029m0 0l-.997-.358M209.321 586.947l.601.618m0 0l.845.292m0 0l.711.027m0 0l.282-.059M211.76 587.825l-.452.692m0 0l-.527.47m0 0l-.651.22m0 0l-.505-.07m0 0l-.475-.213m0 0l-1.387-.904m0 0l-.806-.525"/></g><g id="walls"><path class="st3" d="M459.982 662.704v-13.602M459.982 670.262v-5.668M459.982 664.594v-1.89M376.852 662.704v-13.602M376.852 670.262v-5.668M376.852 664.594v-1.89M376.852 670.262h83.13M376.852 649.102h83.13M376.852 662.704h3.778M380.63 662.704v1.89M380.63 664.594h-3.778M431.642 664.594h-1.89M429.752 664.594v-1.89M429.752 662.704h1.89M380.63 663.649h49.122M380.63 662.704h49.122M429.752 664.594H380.63M431.642 662.704h.944M432.586 662.704v.944M432.586 663.649h.945M433.531 663.649v.945M433.531 664.594h-1.889M459.982 664.594h-3.78M456.202 664.594v-.945M456.202 663.649h.945M457.147 663.649v-.944M457.147 662.704h2.835M456.202 664.594h-22.671M435.42 661.76h18.894M432.586 661.76h2.834M435.42 661.76v1.889M435.42 663.649h-2.834M432.586 663.649v-1.889M457.147 663.649h-2.834M454.313 663.649v-1.889M454.313 661.76h2.834M457.147 661.76v1.889M454.313 663.649h-18.894M435.42 661.76h18.894M435.42 662.704h18.894M376.852 664.594v-1.89M376.852 664.594v-1.89M376.852 670.262v-5.668M376.852 662.704v-13.602M459.982 664.594v-1.89M459.982 664.594v-1.89M459.982 670.262v-5.668M459.982 662.704v-13.602M376.852 670.262v-21.16"/><g><path class="st3" d="M254.046 662.704v-13.602M254.046 670.262v-5.668M254.046 664.594v-1.89M320.172 662.704v-13.602M320.172 670.262v-5.668M320.172 664.594v-1.89M320.172 670.262h-66.126M320.172 649.102h-66.126M320.172 662.704h-3.779M316.393 662.704v1.89M316.393 664.594h3.779M282.386 664.594h1.889M284.275 664.594v-1.89M284.275 662.704h-1.889M316.393 663.649h-32.118M316.393 662.704h-32.118M284.275 664.594h32.118M282.386 662.704h-.945M281.441 662.704v.944M281.441 663.649h-.944M280.497 663.649v.945M280.497 664.594h1.889M254.046 664.594h3.779M257.825 664.594v-.945M257.825 663.649h-.945M256.88 663.649v-.944M256.88 662.704h-2.834M257.825 664.594h22.672M278.607 661.76h-18.893M281.441 661.76h-2.834M278.607 661.76v1.889M278.607 663.649h2.834M281.441 663.649v-1.889M256.88 663.649h2.834M259.714 663.649v-1.889M259.714 661.76h-2.834M256.88 661.76v1.889M259.714 663.649h18.893M278.607 661.76h-18.893M278.607 662.704h-18.893M320.172 664.594v-1.89M320.172 664.594v-1.89M320.172 670.262v-5.668M320.172 662.704v-13.602M254.046 664.594v-1.89M254.046 664.594v-1.89M254.046 670.262v-5.668M254.046 662.704v-13.602M254.046 670.262v-21.16"/></g><g><path class="st3" d="M131.077 662.704v-13.602M131.077 670.262v-5.668M131.077 664.594v-1.89M131.077 670.262H42.064M131.077 649.102H65.114M131.077 662.704h-4.723M126.354 662.704v1.89M126.354 664.594h4.723M49.622 664.594h4.723M54.345 664.594v-1.89M54.345 662.704h-4.723M47.733 664.594h1.889M126.354 662.704H54.345M54.345 664.594h72.009M131.077 664.594v-1.89M131.077 664.594v-1.89M131.077 670.262v-5.668M131.077 662.704v-13.602M49.622 515.905h15.492M42.064 515.905h5.669M47.733 515.905h1.889M42.064 515.905v154.357M65.114 515.905v133.197M49.622 515.905v4.724M49.622 520.628h-1.889M47.733 520.628v-4.724M47.733 662.704v-4.723M47.733 657.982h1.889M49.622 657.982v4.723M47.733 664.594v-1.89M49.622 520.628v137.354M47.733 657.982V520.628M47.733 515.905h1.889M47.733 515.905h1.889M42.064 515.905h5.669M49.622 515.905h15.492"/></g><g><path class="st3" d="M49.622 470.561h15.492M42.064 470.561h5.669M47.733 470.561h1.889M49.622 387.431h15.492M42.064 387.431h5.669M47.733 387.431h1.889M42.064 387.431v83.13M65.114 387.431v83.13M49.622 387.431v3.779M49.622 391.21h-1.889M47.733 391.21v-3.779M47.733 427.107v-1.889M47.733 425.218h1.889M49.622 425.218v1.889M48.677 391.21v34.008M49.622 391.21v34.008M47.733 425.218V391.21M49.622 427.107v.945M49.622 428.052h-.945M48.677 428.052v.944M48.677 428.996h-.944M47.733 428.996v-1.889M47.733 470.561v-3.778M47.733 466.783h.944M48.677 466.783v.944M48.677 467.727h.945M49.622 467.727v2.834M50.566 467.727l28.055-28.055M47.733 466.783v-37.787M50.566 430.886v34.007M50.566 428.052v2.834M50.566 430.886h-1.889M48.677 430.886v-2.834M48.677 428.052h1.889M48.677 467.727v-2.834M48.677 464.893h1.889M50.566 464.893v2.834M50.566 467.727h-1.889M48.677 464.893v-34.007M50.566 430.886v34.007M49.622 430.886v34.007M50.566 428.052a39.676 39.676 0 0128.055 11.62M47.733 387.431h1.889M47.733 387.431h1.889M42.064 387.431h5.669M49.622 387.431h15.492M47.733 470.561h1.889M47.733 470.561h1.889M42.064 470.561h5.669M49.622 470.561h15.492M42.064 387.431h23.05"/></g><g><path class="st3" d="M49.622 342.088h15.492M42.064 342.088h5.669M47.733 342.088h1.889M49.622 275.961h15.492M42.064 275.961h5.669M47.733 275.961h1.889M42.064 275.961v66.127M65.114 275.961v66.127M49.622 275.961v3.779M49.622 279.74h-1.889M47.733 279.74v-3.779M47.733 313.748v-1.89M47.733 311.859h1.889M49.622 311.859v1.89M48.677 279.74v32.119M49.622 279.74v32.119M47.733 311.859v-32.118M49.622 313.748v.944M49.622 314.693h-.945M48.677 314.693v.944M48.677 315.637h-.944M47.733 315.637v-1.889M47.733 342.088v-3.779M47.733 338.309h.944M48.677 338.309v.945M48.677 339.254h.945M49.622 339.254v2.834M47.733 338.309v-22.672M50.566 317.527v18.894M50.566 314.693v2.834M50.566 317.527h-1.889M48.677 317.527v-2.834M48.677 314.693h1.889M48.677 339.254v-2.834M48.677 336.42h1.889M50.566 336.42v2.834M50.566 339.254h-1.889M48.677 336.42v-18.894M50.566 317.527v18.894M49.622 317.527v18.894M47.733 275.961h1.889M47.733 275.961h1.889M42.064 275.961h5.669M49.622 275.961h15.492M47.733 342.088h1.889M47.733 342.088h1.889M42.064 342.088h5.669M49.622 342.088h15.492"/></g><g><path class="st3" d="M49.622 213.615h15.492M42.064 213.615h5.669M47.733 213.615h1.889M49.622 147.489h15.492M42.064 147.489h5.669M47.733 147.489h1.889M42.064 147.489v66.126M65.114 147.489v66.126M49.622 147.489v3.778M49.622 151.267h-1.889M47.733 151.267v-3.778M47.733 185.275v-1.889M47.733 183.386h1.889M49.622 183.386v1.889M48.677 151.267v32.119M49.622 151.267v32.119M47.733 183.386v-32.119M49.622 185.275v.945M49.622 186.22h-.945M48.677 186.22v.944M48.677 187.164h-.944M47.733 187.164v-1.889M47.733 213.615v-3.779M47.733 209.836h.944M48.677 209.836v.945M48.677 210.781h.945M49.622 210.781v2.834M47.733 209.836v-22.672M50.566 189.054v18.893M50.566 186.22v2.834M50.566 189.054h-1.889M48.677 189.054v-2.834M48.677 186.22h1.889M48.677 210.781v-2.834M48.677 207.947h1.889M50.566 207.947v2.834M50.566 210.781h-1.889M48.677 207.947v-18.893M50.566 189.054v18.893M49.622 189.054v18.893M47.733 147.489h1.889M47.733 147.489h1.889M42.064 147.489h5.669M49.622 147.489h15.492M47.733 213.615h1.889M47.733 213.615h1.889M42.064 213.615h5.669M49.622 213.615h15.492M42.064 147.489h23.05"/></g><g><path class="st3" d="M49.622 28.532h15.492M42.064 28.532h5.669M47.733 28.532h1.889M49.622 111.661h15.492M42.064 111.661h5.669M47.733 111.661h1.889M42.064 111.661v-83.13M65.114 111.661v-83.13M49.622 111.661v-3.778M49.622 107.883h-1.889M47.733 107.883v3.778M47.733 71.986v1.889M47.733 73.875h1.889M49.622 73.875v-1.889M48.677 107.883V73.875M49.622 107.883V73.875M47.733 73.875v34.008M49.622 71.986v-.945M49.622 71.041h-.945M48.677 71.041v-.944M48.677 70.097h-.944M47.733 70.097v1.889M47.733 28.532v3.778M47.733 32.31h.944M48.677 32.31v-.945M48.677 31.366h.945M49.622 31.366v-2.834M50.566 31.366L78.621 59.42M47.733 32.31v37.787M50.566 68.207V34.199M50.566 71.041v-2.834M50.566 68.207h-1.889M48.677 68.207v2.834M48.677 71.041h1.889M48.677 31.366v2.833M48.677 34.199h1.889M50.566 34.199v-2.833M50.566 31.366h-1.889M48.677 34.199v34.008M50.566 68.207V34.199M49.622 68.207V34.199M78.622 59.421a39.677 39.677 0 01-28.055 11.621M47.733 111.661h1.889M47.733 111.661h1.889M42.064 111.661h5.669M49.622 111.661h15.492M47.733 28.532h1.889M47.733 28.532h1.889M42.064 28.532h5.669M49.622 28.532h15.492M42.064 28.745h23.05"/></g><g><path class="st3" d="M42.064 111.661v35.827M42.064 489.454H.501m0 0V368.539m0 0h41.564m-.001 0v120.916M.5 26.573h45.344m0 0v190.443m0 0H.5m0 0V26.573"/></g><g><path class="st4" d="M47.733 599.733h1.889v5.133h-1.889zM47.733 557.226h1.889v5.133h-1.889z"/></g><g><path d="M488.51 670.262h-28.529v-21.161h17.193V449.4h-199.89v-36.577h1.512v-.454h7.557v27.963H488.51v229.93h0zm-446.445-558.6h23.049v35.826H42.065v-35.826h0zm211.981 558.6H131.077v-21.161h122.969v21.161h0zm122.805 0v-21.161h-56.679v21.161h56.679zm-90.498-296.434V37.908h-9.069v335.467h1.512v.453h7.557zM277.284 9.946v7.558h9.069V.5h-9.069v9.446h0zM42.065.5v28.245h23.049V.5H42.065h0zm235.219 17.004v1.511h7.558v-.453h1.511v-1.058h-9.069 0zm0 18.893v1.511h9.069V36.85h-1.511v-.453h-7.558 0zM42.065 470.561h23.049v45.344H42.065v-45.344h0zm0-128.473h23.049v45.343H42.065v-45.343h0zm23.049-66.127H42.065v-62.346h23.049v62.346z" fill-rule="evenodd" clip-rule="evenodd" stroke="#000" stroke-linecap="round" stroke-linejoin="round" stroke-miterlimit="3"/><path class="st6" d="M66.606.702l-1.26 1.11M74.026.702l-8.68 7.65M81.456.702l-10.72 9.44M88.876.702l-10.72 9.44M96.306.702l-10.72 9.44M103.726.702l-10.72 9.44M111.136.702l-10.71 9.44M118.566.702l-10.72 9.44M125.986.702l-10.72 9.44M133.406.702l-10.71 9.44M140.836.702l-10.72 9.44M148.256.702l-10.72 9.44M155.676.702l-10.72 9.44M163.096.702l-10.72 9.44M170.516.702l-10.71 9.44M177.946.702l-10.72 9.44M185.366.702l-10.72 9.44M192.786.702l-10.71 9.44M200.216.702l-10.72 9.44M207.626.702l-10.71 9.44M215.056.702l-10.72 9.44M66.636 131.442l-1.29 1.14M74.066 131.442l-3.43 3.02M209.116 12.472l-3.02 2.66M222.476.702l-10.72 9.44M81.486 131.442l-3.43 3.02M209.116 19.012l-3.02 2.66M229.896.702l-10.71 9.44M88.906 131.442l-3.42 3.02M209.116 25.552l-3.02 2.66M237.326.702l-10.72 9.44M96.336 131.442l-3.43 3.02M209.116 32.092l-3.02 2.66M244.746.702l-10.72 9.44M252.166.702l-10.72 9.44M209.116 38.622l-3.02 2.66M101.356 133.552l-1.04.91M259.586.702l-10.72 9.44M209.116 45.162l-3.02 2.66M267.006.702l-11.41 10.05M209.116 51.702l-3.02 2.66M274.426.702l-18.83 16.59M209.116 58.242l-3.02 2.66M265.046 15.512l-9.45 8.32M209.116 64.782l-3.02 2.66M277.516 4.522l-6.38 5.62M133.446 131.442l-.65.57M140.866 131.442l-3.43 3.02M209.116 71.322l-3.02 2.66M265.046 22.052l-9.45 8.32M148.286 131.442l-3.43 3.02M209.116 77.852l-1.21 1.07M265.046 28.582l-9.45 8.32M155.706 131.442l-3.43 3.02M265.046 35.122l-9.45 8.32M159.616 134.532l-3.02 2.66M265.046 41.662l-9.45 8.32M163.126 131.442l-3.43 3.02M159.616 141.072l-3.02 2.66M170.556 131.442l-3.43 3.02M267.926 45.662l-10.73 9.45M164.156 137.072l-3.02 2.66M65.466 224.012l-.12.11M72.896 224.012l-3.44 3.03M164.156 143.612l-3.02 2.66M275.346 45.662l-10.72 9.45M177.976 131.442l-3.43 3.02M159.616 147.612l-3.02 2.66M80.316 224.012l-3.44 3.03M164.156 150.152l-3.02 2.66M277.516 50.292l-5.47 4.82M185.396 131.442l-3.42 3.02M159.616 154.152l-3.02 2.66M87.746 224.012l-3.44 3.03M164.156 156.692l-3.02 2.66M192.826 131.442l-3.43 3.02M159.616 160.692l-3.02 2.66M95.156 224.012l-3.44 3.03M164.156 163.232l-3.02 2.66M200.236 131.442l-3.43 3.02M159.616 167.232l-3.02 2.66M102.576 224.012l-3.44 3.03M207.666 131.442l-3.43 3.02M159.616 173.772l-3.02 2.66M164.156 169.772l-3.02 2.66M110.006 224.012l-3.44 3.03M215.086 131.442l-3.43 3.02M159.616 180.302l-3.02 2.66M164.896 175.652l-3.76 3.31M117.426 224.012l-3.44 3.03M222.506 131.442l-3.43 3.02M164.156 182.842l-3.58 3.16M170.956 176.852l-3.02 2.66M124.846 224.012l-3.44 3.03M229.936 131.442l-3.43 3.02M164.156 189.382l-3.02 2.66M170.956 183.392l-3.02 2.66M132.276 224.012l-3.44 3.03M230.286 137.672l-3.03 2.67M164.156 195.922l-3.02 2.66M170.956 189.932l-3.02 2.66M139.686 224.012l-3.44 3.03M230.286 144.202l-3.03 2.67M164.156 202.462l-3.02 2.66M170.956 196.472l-3.02 2.66M147.116 224.012l-3.44 3.03M230.286 150.742l-3.03 2.67M164.696 208.522l-3.56 3.14M170.956 203.012l-3.02 2.66M154.536 224.012l-3.44 3.03M172.116 208.522l-3.44 3.03M230.286 157.282l-3.03 2.67M164.156 215.532l-3.02 2.66M164.156 222.072l-5.64 4.97M230.286 163.822l-3.03 2.67M179.546 208.522l-3.44 3.03M186.966 208.522l-3.44 3.03M230.286 170.362l-3.03 2.67M169.386 224.012l-3.44 3.03M187.586 214.512l-3.03 2.67M230.286 176.902l-3.03 2.67M176.806 224.012l-3.44 3.03M187.586 221.052l-3.03 2.67M230.286 183.432l-3.03 2.67M184.226 224.012l-3.44 3.03M191.636 224.022l-3.43 3.02M230.286 189.972l-3.03 2.67M230.286 196.512l-3.03 2.67M230.286 203.052l-3.03 2.67M230.286 209.592l-3.03 2.67M66.956 360.012l-1.61 1.42M230.286 216.132l-3.03 2.67M230.286 222.672l-4.54 4M74.376 360.012l-3.44 3.03M236.166 224.022l-3.43 3.02M230.286 229.202l-3.03 2.67M81.786 360.012l-3.43 3.03M230.286 235.742l-3.03 2.67M89.216 360.022l-3.44 3.02M96.636 360.022l-3.44 3.02M104.056 360.022l-3.44 3.03M111.476 360.022l-3.43 3.03M273.286 224.022l-3.14 2.76M118.896 360.022l-3.43 3.03M277.516 226.832l-.24.21M126.306 360.032l-3.43 3.02M230.286 274.972l-3.03 2.67M133.736 360.032l-3.44 3.02M141.156 360.032l-3.43 3.02M230.286 281.512l-3.03 2.67M148.576 360.032l-3.43 3.02M230.286 288.052l-3.03 2.67M155.996 360.032l-3.43 3.02M230.286 294.592l-3.03 2.67M163.416 360.032l-3.43 3.02M230.286 301.132l-3.03 2.67M170.836 360.042l-3.42 3.02M230.286 307.672l-3.03 2.67M178.256 360.042l-3.43 3.02M230.286 314.202l-3.03 2.67M185.676 360.042l-3.43 3.02M230.286 320.742l-3.03 2.67M193.096 360.042l-3.43 3.02M230.286 327.282l-3.03 2.67M200.516 360.042l-3.42 3.02M230.286 333.822l-3.03 2.67M207.936 360.052l-3.42 3.01M204.016 363.502l-3.02 2.66M230.286 340.362l-3.03 2.67M215.356 360.052l-3.42 3.01M204.016 370.042l-3.02 2.66M230.286 346.902l-3.03 2.67M222.776 360.052l-3.43 3.02M205.186 375.542l-4.19 3.69M230.286 353.432l-3.03 2.67M212.616 375.542l-3.43 3.02M204.016 383.112l-3.02 2.66M230.286 359.972l-3.52 3.1M220.036 375.542l-3.43 3.02M204.016 389.652l-3.02 2.66M230.286 366.512l-3.03 2.67M230.286 373.052l-6.26 5.51M204.016 396.192l-3.02 2.66M204.016 402.732l-3.02 2.66M204.016 409.272l-3.02 2.66M204.016 415.812l-3.02 2.66M204.016 422.342l-3.02 2.66M204.016 428.882l-3.02 2.66M204.016 435.422l-3.02 2.66M204.016 441.962l-3.02 2.66M206.186 564.282l-2.73 2.4M213.606 564.282l-3.43 3.02M206.476 570.562l-3.02 2.66M221.026 564.282l-3.43 3.02M206.476 577.092l-3.02 2.67M223.476 568.662l-3.02 2.66M206.476 583.642l-3.02 2.66M223.476 575.202l-3.02 2.66M206.476 590.182l-3.02 2.66M280.536 531.472l-3.02 2.66M223.476 581.742l-3.02 2.66M206.476 596.712l-3.02 2.66M380.896 449.602l-.79.69M206.476 603.252l-3.02 2.66M223.476 588.272l-3.02 2.66M280.536 538.012l-3.02 2.66M280.536 544.552l-3.02 2.66M223.476 594.822l-3.02 2.66M211.816 605.092l-3.43 3.02M383.126 454.182l-3.02 2.66M281.186 550.522l-3.42 3.01M223.476 601.352l-3.02 2.66M219.236 605.092l-3.43 3.02M383.126 460.712l-3.02 2.67M383.126 467.252l-3.02 2.66M223.476 607.892l-.25.22M288.606 550.522l-3.42 3.01M296.026 550.522l-3.43 3.02M303.446 550.522l-3.43 3.02M336.606 527.852l-6.38 5.62M310.866 550.522l-3.42 3.02M341.106 530.422l-.51.45M318.296 550.522l-3.43 3.02M333.246 537.352l-3.02 2.66M382.336 500.642l-2.23 1.96M325.716 550.522l-3.44 3.03M333.246 543.882l-3.02 2.66M333.246 550.422l-3.55 3.13M383.126 506.482l-3.02 2.66M333.246 556.962l-3.02 2.67M383.126 513.022l-3.02 2.66M459.266 452.492l-3.02 2.66M333.246 563.502l-3.02 2.66M373.716 527.852l-1.17 1.03M383.126 519.562l-3.02 2.66M333.246 570.042l-3.02 2.66M383.126 526.102l-5.42 4.77M410.726 501.782l-.58.51M459.266 459.022l-3.02 2.66M413.166 506.172l-3.02 2.66M388.556 527.852l-3.43 3.02M333.246 576.572l-3.02 2.66M466.236 459.422l-3.44 3.03M413.166 512.712l-3.02 2.66M395.986 527.852l-3.43 3.02M333.246 583.122l-3.02 2.66M473.666 459.422l-5.33 4.69M413.166 519.252l-3.02 2.66M403.406 527.852l-3.43 3.02M333.246 589.662l-3.02 2.66M471.356 467.992l-3.02 2.66M333.246 596.192l-3.02 2.66M413.166 525.792l-5.77 5.08M471.356 474.532l-3.02 2.66M333.246 602.732l-3.02 2.66M418.246 527.852l-3.43 3.02M471.356 481.072l-3.02 2.66M333.246 609.262l-3.02 2.67M425.666 527.852l-3.43 3.02M471.356 487.602l-3.02 2.66M333.246 615.812l-3.02 2.66M433.096 527.852l-3.43 3.02M471.356 494.142l-3.02 2.66M475.266 497.242l-3.44 3.03M440.516 527.852l-3.43 3.02M333.246 622.352l-3.02 2.66M447.936 527.852l-3.43 3.02M333.246 628.882l-3.02 2.66M455.356 527.852l-3.43 3.02M333.246 635.422l-3.02 2.66M462.786 527.852l-3.43 3.02M333.246 641.962l-3.02 2.67M333.246 648.502l-.91.8M470.206 527.852l-3.43 3.02M477.406 528.042l-3.21 2.83"/><path class="st4" d="M277.284 223.817v3.023h-7.368v-1.512h.454v-1.511h6.914zm-212.17-89.554v-3.023h36.471v1.512h-.454v1.511H65.114zm161.915-3.023l3.023.001v92.576h8.426v1.511h.453v1.512h-8.879v13.72h-1.512v-.453h-1.511V226.84h-1.512v-1.512h.454v-1.511h1.058v-89.554h-63.103v41.187h6.801v32.874h17.214v3.023h-.588v12.47h6.726v1.511h.453v1.512H65.114v-3.023h95.789v-38.01h-4.535v-51.544h-23.346v-1.511h-.453v-1.512h94.46zm155.868 396.413h27.017v-26.072h3.023v26.072h64.237v3.023H372.771v-1.511h-.454v-1.512h7.557V500.9h1.512v-.453h1.511v27.206zm-105.613 25.68l52.712.015v95.753h3.023V530.676h7.86v-1.511h.453v-1.512h-11.336v22.672h-49.689v-22.672h-3.023v25.68zm0-552.833v9.446h-12.469v35.519h12.469v9.447h-21.916V9.946h-46.477v68.771h-3.023V9.946H65.114V.5h212.17zm-57.057 604.391v-37.786h-13.981v37.786h13.981zm235.787-155.49h3.022v9.824h18.138v3.023h-6.046v34.798h6.046v3.022h-9.069l.001-37.82h-12.092v-12.847zm-76.14 23.387h1.512v.453h1.511v-23.84h-3.023v23.387zM227.029 362.869l-23.239-.005v12.476h23.239v-12.471zm-23.239 15.494v69.148h-3.023v-84.647l-135.653-.026v-3.023l161.915.032v-87.835h1.511v-.466h1.512v106.817H203.79zm-44.399-195.578h1.512v-48.522h-1.512v48.522zm4.535-4.312v29.851h3.778v-29.851h-3.778zm0 45.344h20.404v-12.47h-20.404v12.47zm39.297 381.074v-40.808h20.027v43.831h-20.027v-3.023z"/><g><path class="st7" d="M293.511 35.386c-2.893 1.023-4.096 1.255-7.158 1.464"/><path class="st8" d="M293.612 35.348l-7.259-16.786h-1.511v.453l7.353 16.865z"/><g><path class="st7" d="M261.727 376.571c6.026-2.247 9.134-2.868 15.558-3.195"/><path class="st8" d="M261.626 376.614l15.658 36.21 1.512-.001v-.454l-15.783-36.354z"/><g><path class="st7" d="M214.462 269.419c4.54 1.685 7.811 2.337 12.567 2.579"/><path class="st8" d="M214.37 269.379l1.387.6 12.783-29.419v-.453h-1.511z"/><g><path class="st7" d="M241.055 211.256c-1.786 4.813-2.316 7.433-2.578 12.56"/><path class="st8" d="M241.098 211.158l-.601 1.388 29.419 12.782h.454v-1.511z"/><g><path class="st7" d="M196.673 211.258c-1.817 4.87-2.329 7.367-2.594 12.559"/><path class="st8" d="M196.699 211.158l-.6 1.388 29.418 12.782h.454v-1.511z"/></g></g><g><path class="st7" d="M103.711 146.831c-1.817-4.871-2.315-7.376-2.58-12.568"/><path class="st8" d="M103.751 146.922l29.271-12.659.001-1.511h-.453l-29.419 12.782z"/></g></g><g><path class="st7" d="M370.174 543.237c1.817-4.813 2.334-7.427 2.596-12.561"/><path class="st8" d="M370.15 543.334l.6-1.388-29.418-12.781h-.453v1.511z"/><g><path class="st7" d="M368.814 498.634c4.253 1.543 6.537 2.035 11.06 2.268"/><path class="st8" d="M368.716 498.591l1.387.6 11.283-25.95v-.453l-1.512-.001z"/></g></g></g></g></g></g><g id="sizes_1_"><path d="M208.008 124.217l3.961-5.281c.229-.302.407-.616.535-.941.127-.325.191-.629.191-.91v-.016c0-.453-.133-.805-.398-1.055s-.644-.375-1.133-.375c-.464 0-.839.137-1.125.41-.287.273-.461.66-.523 1.16v.008h-1.648v-.008c.094-.651.285-1.207.574-1.668s.662-.813 1.121-1.055c.458-.242.986-.363 1.586-.363.677 0 1.255.116 1.734.348.479.232.844.569 1.094 1.012.25.443.375.977.375 1.602v.008c0 .401-.084.82-.25 1.258a5.417 5.417 0 01-.695 1.266l-3.289 4.469h4.297v1.516h-6.406v-1.385zM217.27 124.865c-.55-.567-.824-1.359-.824-2.375v-5.164c0-1.021.275-1.813.828-2.379.552-.565 1.356-.848 2.414-.848 1.063 0 1.868.281 2.418.844.549.563.824 1.357.824 2.383v5.164c0 1.021-.276 1.814-.828 2.379-.553.565-1.357.848-2.414.848-1.062 0-1.869-.284-2.418-.852zm3.664-1.105c.268-.294.402-.717.402-1.27v-5.164c0-.552-.133-.975-.398-1.27-.266-.294-.683-.441-1.25-.441-.568 0-.984.147-1.25.441-.266.294-.398.718-.398 1.27v5.164c0 .552.134.976.402 1.27.268.294.684.441 1.246.441s.978-.147 1.246-.441zM225.118 124.006h1.594v1.594l-1.594 1.578v-3.172zM228.727 124.217l3.961-5.281c.229-.302.407-.616.535-.941.127-.325.191-.629.191-.91v-.016c0-.453-.133-.805-.398-1.055s-.644-.375-1.133-.375c-.464 0-.839.137-1.125.41-.287.273-.461.66-.523 1.16v.008h-1.648v-.008c.094-.651.285-1.207.574-1.668s.662-.813 1.121-1.055c.458-.242.986-.363 1.586-.363.677 0 1.255.116 1.734.348.479.232.844.569 1.094 1.012.25.443.375.977.375 1.602v.008c0 .401-.084.82-.25 1.258a5.417 5.417 0 01-.695 1.266l-3.289 4.469h4.297v1.516h-6.406v-1.385zM121.629 201.293a2.75 2.75 0 01-1.086-.977c-.278-.427-.465-.94-.559-1.539v-.008h1.594v.008c.058.417.224.741.5.973.276.232.636.348 1.078.348.511 0 .905-.17 1.184-.512.278-.341.418-.821.418-1.441v-.953c0-.614-.14-1.092-.418-1.434-.278-.341-.673-.512-1.184-.512-.276 0-.542.078-.797.234s-.479.375-.672.656h-1.453v-5.984h5.789v1.516h-4.195v2.555a2.275 2.275 0 011.414-.508c.656 0 1.218.136 1.684.406.466.271.82.667 1.063 1.188.242.521.363 1.148.363 1.883v.953c0 .734-.125 1.362-.375 1.883-.25.521-.614.918-1.094 1.191s-1.055.41-1.727.41c-.573 0-1.082-.112-1.527-.336zM128.539 199.918h1.594v1.594l-1.594 1.578v-3.172zM133.836 201.238c-.521-.26-.923-.629-1.207-1.105s-.426-1.03-.426-1.66v-.188c0-.567.142-1.102.426-1.602s.663-.877 1.137-1.133c-.401-.219-.723-.535-.965-.949s-.363-.85-.363-1.309v-.273c0-.594.133-1.116.398-1.566.266-.45.641-.799 1.125-1.047.484-.247 1.047-.371 1.688-.371s1.203.124 1.688.371c.484.248.859.597 1.125 1.047.266.451.398.973.398 1.566v.273c0 .469-.124.909-.371 1.32a2.472 2.472 0 01-.98.938c.479.261.863.64 1.152 1.137a3.13 3.13 0 01.434 1.598v.188c0 .63-.142 1.184-.426 1.66s-.687.845-1.207 1.105c-.521.261-1.125.391-1.813.391s-1.293-.13-1.813-.391zm2.789-1.359c.281-.146.499-.35.652-.613.153-.263.23-.566.23-.91v-.109c0-.349-.077-.655-.23-.918a1.576 1.576 0 00-.652-.613c-.281-.146-.606-.219-.977-.219s-.695.073-.977.219c-.281.146-.499.352-.652.617s-.23.573-.23.922v.117c0 .344.077.646.23.906.153.261.371.462.652.605.281.144.606.215.977.215s.695-.073.977-.219zm-.133-5.121c.245-.138.435-.334.57-.59.136-.255.203-.549.203-.883v-.109c0-.317-.067-.599-.203-.844s-.325-.434-.57-.566-.526-.199-.844-.199-.599.066-.844.199-.435.322-.57.566a1.726 1.726 0 00-.203.852v.117c0 .328.067.619.203.871.136.253.325.448.57.586.245.138.526.207.844.207s.599-.069.844-.207zM185.798 184.56l-.727-.348a2.857 2.857 0 01-1.168-1.008c-.294-.44-.48-.97-.559-1.59h1.625c.047.323.148.589.305.797.156.208.358.363.605.465s.538.152.871.152c.526 0 .935-.141 1.227-.422s.438-.677.438-1.188v-.344c0-.567-.138-1.006-.414-1.316-.276-.31-.667-.465-1.172-.465h-.805v-1.516h.805c.442 0 .786-.133 1.031-.398s.367-.641.367-1.125v-.352c0-.448-.129-.794-.387-1.039-.258-.245-.624-.367-1.098-.367-.271 0-.513.051-.727.152s-.395.258-.543.469-.257.476-.324.793h-1.617c.104-.62.301-1.151.59-1.594a2.893 2.893 0 011.098-1.008c.442-.229.95-.344 1.523-.344.979 0 1.737.258 2.273.773s.805 1.242.805 2.18v.188c0 .568-.153 1.063-.461 1.484s-.742.729-1.305.922c.62.136 1.101.44 1.441.914.341.474.512 1.078.512 1.813v.188c0 .662-.128 1.227-.383 1.695s-.626.826-1.113 1.07c-.487.245-1.074.367-1.762.367l-.951.002zM192.119 182.849h1.594v1.594l-1.594 1.578v-3.172zM197.545 184.224a2.75 2.75 0 01-1.086-.977c-.278-.427-.465-.94-.559-1.539v-.008h1.594v.008c.058.417.224.741.5.973.276.232.636.348 1.078.348.511 0 .905-.17 1.184-.512.278-.341.418-.821.418-1.441v-.953c0-.614-.14-1.092-.418-1.434-.278-.341-.673-.512-1.184-.512-.276 0-.542.078-.797.234s-.479.375-.672.656h-1.453v-5.984h5.789v1.516h-4.195v2.555a2.275 2.275 0 011.414-.508c.656 0 1.218.136 1.684.406.466.271.82.667 1.063 1.188.242.521.363 1.148.363 1.883v.953c0 .734-.125 1.362-.375 1.883-.25.521-.614.918-1.094 1.191s-1.055.41-1.727.41c-.573 0-1.082-.113-1.527-.336zM204.851 523.638l-.727-.348c-.485-.232-.874-.567-1.168-1.008s-.48-.97-.559-1.59h1.625c.047.323.148.589.305.797s.358.363.605.465.538.152.871.152c.526 0 .935-.141 1.227-.422s.438-.677.438-1.188v-.344c0-.567-.138-1.007-.414-1.316s-.667-.465-1.172-.465h-.805v-1.516h.805c.442 0 .786-.133 1.031-.398s.367-.641.367-1.125v-.352c0-.448-.129-.794-.387-1.039s-.624-.367-1.098-.367c-.271 0-.513.051-.727.152s-.395.258-.543.469-.257.476-.324.793h-1.617c.104-.62.301-1.151.59-1.594s.655-.778 1.098-1.008.95-.344 1.523-.344c.979 0 1.737.258 2.273.773s.805 1.242.805 2.18v.188c0 .567-.153 1.063-.461 1.484s-.742.729-1.305.922c.62.136 1.101.44 1.441.914s.512 1.078.512 1.813v.188c0 .661-.128 1.227-.383 1.695s-.626.825-1.113 1.07-1.074.367-1.762.367l-.951.002zM212.546 523.236c-.474-.269-.835-.659-1.082-1.172s-.371-1.132-.371-1.855v-.009c0-.422.05-.864.148-1.328a7.568 7.568 0 01.641-1.82l2.469-4.891h1.719l-2.898 5.664.008-.281c.13-.245.32-.435.57-.57s.542-.203.875-.203c.589 0 1.094.133 1.516.398s.742.652.961 1.16.328 1.118.328 1.832v.008c0 .729-.124 1.354-.371 1.875s-.609.917-1.086 1.188-1.048.406-1.715.406-1.238-.134-1.712-.402zm2.879-1.598c.273-.313.41-.758.41-1.336v-.008c0-.636-.144-1.126-.43-1.473s-.695-.52-1.227-.52c-.474 0-.841.175-1.102.523s-.391.841-.391 1.477v.008c0 .578.137 1.022.41 1.332s.66.465 1.16.465c.507.001.897-.156 1.17-.468zM219.382 521.927h1.594v1.594l-1.594 1.578v-3.172zM222.992 522.138l3.961-5.281c.229-.302.407-.616.535-.941s.191-.629.191-.91v-.016c0-.453-.133-.805-.398-1.055s-.644-.375-1.133-.375c-.464 0-.839.137-1.125.41s-.461.66-.523 1.16v.008h-1.648v-.008c.094-.651.285-1.207.574-1.668s.663-.813 1.121-1.055.987-.363 1.586-.363c.677 0 1.255.116 1.734.348s.844.569 1.094 1.012.375.977.375 1.602v.008c0 .401-.083.82-.25 1.258s-.398.859-.695 1.266l-3.289 4.469h4.297v1.516h-6.406v-1.385z"/><g><path d="M343.714 587.91h-1.594v-9.625l-1.617.992v-1.648l1.617-1.078h1.594v11.359zM349.034 587.91h-1.594v-9.625l-1.617.992v-1.648l1.617-1.078h1.594v11.359zM351.456 586.317h1.594v1.594l-1.594 1.578v-3.172zM356.881 587.692c-.445-.224-.808-.55-1.086-.977s-.465-.94-.559-1.539v-.008h1.594v.008c.058.417.224.741.5.973s.636.348 1.078.348c.511 0 .905-.171 1.184-.512s.418-.821.418-1.441v-.953c0-.614-.14-1.093-.418-1.434s-.673-.512-1.184-.512c-.276 0-.542.078-.797.234s-.479.375-.672.656h-1.453v-5.984h5.789v1.516h-4.195v2.555a2.275 2.275 0 011.414-.508c.656 0 1.218.136 1.684.406s.82.667 1.063 1.188.363 1.148.363 1.883v.953c0 .734-.125 1.362-.375 1.883s-.614.918-1.094 1.191-1.055.41-1.727.41c-.572 0-1.081-.113-1.527-.336z"/></g><g><path d="M216.812 459.974a2.855 2.855 0 01-1.207-1.105c-.284-.477-.426-1.03-.426-1.66v-.188c0-.567.142-1.102.426-1.602.283-.5.662-.878 1.137-1.133-.401-.219-.723-.535-.965-.949s-.363-.851-.363-1.309v-.273c0-.594.133-1.116.398-1.566s.641-.8 1.125-1.047 1.047-.371 1.688-.371 1.203.124 1.688.371.859.597 1.125 1.047.398.973.398 1.566v.273c0 .469-.124.909-.371 1.32a2.485 2.485 0 01-.98.938c.479.261.863.64 1.152 1.137s.434 1.03.434 1.598v.188c0 .63-.143 1.184-.426 1.66a2.854 2.854 0 01-1.207 1.105c-.521.261-1.125.391-1.813.391s-1.292-.13-1.813-.391zm2.789-1.36c.281-.146.498-.351.652-.613.153-.263.23-.566.23-.91v-.109c0-.349-.077-.655-.23-.918-.154-.263-.371-.468-.652-.613s-.607-.219-.977-.219-.695.073-.977.219-.499.352-.652.617c-.154.266-.23.573-.23.922v.117c0 .344.076.646.23.906.153.261.371.462.652.605s.606.215.977.215c.37 0 .696-.073.977-.219zm-.133-5.121c.244-.138.435-.335.57-.59.135-.255.203-.55.203-.883v-.109c0-.317-.068-.599-.203-.844a1.406 1.406 0 00-.57-.566 1.74 1.74 0 00-.844-.199c-.318 0-.6.066-.844.199a1.394 1.394 0 00-.57.566 1.724 1.724 0 00-.203.852v.117c0 .328.067.618.203.871.135.253.325.448.57.586.244.138.525.207.844.207.318 0 .599-.069.844-.207zM224.14 458.654h1.594v1.594l-1.594 1.578v-3.172zM230.664 460.247h-1.594v-9.625l-1.617.992v-1.648l1.617-1.078h1.594v11.359z"/></g><g><path d="M396.518 494.323l3.813-8.227h1.641l-3.719 8.133h5.57v1.477h-7.305v-1.383zm4.899-3.554h1.555v6.688h-1.555v-6.688zM405.62 495.855h1.594v1.594l-1.594 1.578v-3.172zM410.62 497.163c-.474-.269-.835-.659-1.082-1.172s-.371-1.132-.371-1.855v-.008c0-.422.05-.864.148-1.328a7.568 7.568 0 01.641-1.82l2.469-4.891h1.719l-2.898 5.664.008-.281c.13-.245.32-.435.57-.57s.542-.203.875-.203c.589 0 1.094.133 1.516.398s.742.652.961 1.16.328 1.118.328 1.832v.008c0 .729-.124 1.354-.371 1.875s-.609.917-1.086 1.188-1.048.406-1.715.406-1.239-.134-1.712-.403zm2.879-1.597c.273-.313.41-.758.41-1.336v-.008c0-.636-.144-1.126-.43-1.473s-.695-.52-1.227-.52c-.474 0-.841.175-1.102.523s-.391.841-.391 1.477v.008c0 .578.137 1.022.41 1.332s.66.465 1.16.465c.507 0 .896-.156 1.17-.468z"/></g><g><path d="M183.72 350.712h-1.594v-9.625l-1.617.992v-1.648l1.617-1.078h1.594v11.359zM186.142 347.587l3.813-8.227h1.641l-3.719 8.133h5.57v1.477h-7.305v-1.383zm4.899-3.555h1.555v6.688h-1.555v-6.688zM195.244 349.118h1.594v1.594l-1.594 1.578v-3.172zM203.048 345.071l-.008.281c-.13.239-.327.415-.59.527s-.574.168-.934.168c-.542 0-1.019-.138-1.43-.414s-.73-.665-.957-1.168-.34-1.085-.34-1.746v-.008c0-.734.124-1.362.371-1.883s.609-.917 1.086-1.188 1.048-.406 1.715-.406 1.237.138 1.711.414.835.677 1.082 1.203.371 1.159.371 1.898v.008c0 .406-.052.84-.156 1.301a8.052 8.052 0 01-.539 1.578c-.031.07-.065.14-.102.207l-2.422 4.867h-1.719l2.861-5.639zm.075-.984c.273-.339.41-.815.41-1.43v-.008c0-.599-.137-1.063-.41-1.391s-.66-.492-1.16-.492c-.505 0-.895.164-1.168.492s-.41.794-.41 1.398v.008c0 .614.137 1.09.41 1.426s.663.504 1.168.504c.5.001.886-.168 1.16-.507z"/></g><g><path d="M240.93 294.418l3.813-8.227h1.641l-3.719 8.133h5.57v1.477h-7.305v-1.383zm4.899-3.555h1.555v6.688h-1.555v-6.688zM250.032 295.949h1.594v1.594l-1.594 1.578v-3.172zM253.657 294.418l3.813-8.227h1.641l-3.719 8.133h5.57v1.477h-7.305v-1.383zm4.898-3.555h1.555v6.688h-1.555v-6.688z"/></g><g><path d="M357.331 463.852a2.609 2.609 0 01-1.082-1.172c-.248-.513-.371-1.132-.371-1.855v-.008c0-.422.049-.864.148-1.328a7.648 7.648 0 01.641-1.82l2.469-4.891h1.719l-2.898 5.664.008-.281c.13-.245.32-.435.57-.57s.541-.203.875-.203c.588 0 1.094.133 1.516.398s.742.652.961 1.16.328 1.118.328 1.832v.008c0 .729-.124 1.354-.371 1.875-.248.521-.609.917-1.086 1.188s-1.049.406-1.715.406c-.668-.001-1.239-.135-1.712-.403zm2.879-1.598c.273-.313.41-.758.41-1.336v-.008c0-.636-.144-1.126-.43-1.473-.287-.347-.695-.52-1.227-.52-.475 0-.842.175-1.102.523-.261.349-.391.841-.391 1.477v.008c0 .578.137 1.022.41 1.332s.66.465 1.16.465c.507.001.896-.155 1.17-.468zM364.167 462.543h1.594v1.594l-1.594 1.578v-3.172zM367.792 461.012l3.813-8.227h1.641l-3.719 8.133h5.57v1.477h-7.305v-1.383zm4.898-3.555h1.555v6.688h-1.555v-6.688z"/></g><g><path d="M20.296 210.073a2.75 2.75 0 01-1.086-.977c-.279-.427-.465-.94-.559-1.539v-.008h1.594v.008c.057.417.224.741.5.973.276.232.635.348 1.078.348.51 0 .905-.17 1.184-.512.278-.341.418-.821.418-1.441v-.953c0-.614-.14-1.092-.418-1.434-.279-.341-.673-.512-1.184-.512-.276 0-.542.078-.797.234a2.237 2.237 0 00-.672.656h-1.453v-5.984h5.789v1.516h-4.195v2.555a2.275 2.275 0 011.414-.508c.656 0 1.217.136 1.684.406.466.271.82.667 1.063 1.188.242.521.363 1.148.363 1.883v.953c0 .734-.125 1.362-.375 1.883-.25.521-.615.918-1.094 1.191-.479.273-1.055.41-1.727.41-.573 0-1.082-.112-1.527-.336zM27.206 208.698H28.8v1.594l-1.594 1.578v-3.172zM35.01 204.651l-.008.281c-.13.24-.327.416-.59.527a2.372 2.372 0 01-.934.168c-.542 0-1.019-.138-1.43-.414-.412-.276-.73-.665-.957-1.168-.227-.502-.34-1.084-.34-1.746v-.008c0-.734.124-1.362.371-1.883a2.615 2.615 0 011.086-1.188c.477-.271 1.048-.406 1.715-.406s1.237.138 1.711.414c.474.276.834.677 1.082 1.203.247.526.371 1.159.371 1.898v.008c0 .406-.052.84-.156 1.301a8.052 8.052 0 01-.445 1.371l-.094.207c-.031.07-.065.14-.102.207l-2.422 4.867h-1.719l2.861-5.639zm.075-.984c.273-.338.41-.815.41-1.43v-.008c0-.599-.137-1.063-.41-1.391s-.66-.492-1.16-.492c-.505 0-.895.164-1.168.492s-.41.794-.41 1.398v.008c0 .615.137 1.09.41 1.426s.663.504 1.168.504c.499 0 .886-.168 1.16-.507z"/></g><g><path d="M13.461 391.968l3.961-5.281c.229-.302.407-.616.535-.941.127-.325.191-.629.191-.91v-.016c0-.453-.133-.805-.398-1.055s-.644-.375-1.133-.375c-.464 0-.839.137-1.125.41-.287.273-.461.66-.523 1.16v.008H13.32v-.008c.094-.651.285-1.207.574-1.668s.663-.813 1.121-1.055c.458-.242.987-.363 1.586-.363.677 0 1.255.116 1.734.348.479.231.844.569 1.094 1.012s.375.977.375 1.602v.008c0 .401-.083.82-.25 1.258a5.417 5.417 0 01-.695 1.266l-3.289 4.469h4.297v1.516h-6.406v-1.385zM21.742 391.757h1.594v1.594l-1.594 1.578v-3.172zM26.742 393.066a2.614 2.614 0 01-1.082-1.172c-.248-.513-.371-1.132-.371-1.855v-.008c0-.422.049-.864.148-1.328a7.648 7.648 0 01.532-1.597l.109-.223 2.469-4.891h1.719l-2.898 5.664.008-.281c.13-.245.32-.435.57-.57s.542-.203.875-.203c.588 0 1.094.133 1.516.398s.742.652.961 1.16.328 1.118.328 1.832V390c0 .729-.124 1.354-.371 1.875-.248.521-.609.917-1.086 1.188s-1.048.406-1.715.406c-.668-.001-1.238-.135-1.712-.403zm2.879-1.598c.273-.313.41-.758.41-1.336v-.008c0-.636-.144-1.126-.43-1.473-.287-.347-.695-.52-1.227-.52-.474 0-.841.175-1.102.523-.261.349-.391.841-.391 1.477v.008c0 .578.137 1.022.41 1.332s.66.465 1.16.465c.507.001.897-.156 1.17-.468z"/></g></g></svg>