<svg version="1.1" id="_x31_81_1_" xmlns="http://www.w3.org/2000/svg" x="0" y="0" viewBox="0 0 487.781 667.739"
     xml:space="preserve"><style>.st1{stroke-width:.4}.st1,.st2{fill-rule:evenodd;clip-rule:evenodd;fill:none;stroke:#999;stroke-linecap:round;stroke-linejoin:round;stroke-miterlimit:3}.st3,.st5{fill:none;stroke:#020203;stroke-linecap:round;stroke-linejoin:round;stroke-miterlimit:3}.st5,.st6,.st7,.st8{fill-rule:evenodd;clip-rule:evenodd}.st6{stroke:#020203;stroke-miterlimit:22.9256;fill:none}.st7,.st8{fill:#020203}.st8{fill:none;stroke:#666;stroke-width:.6;stroke-miterlimit:22.9256}.st9{fill:#020203!important;stroke:unset!important;}</style>
    <path fill-rule="evenodd" clip-rule="evenodd" fill="#fff"
          d="M42.046.392V179.21H.254v121h41.792v152.167H.588v190.5h41.458v24.47h243.375V331.543H487.34V.392z"/>
    <g id="mebel"><path class="st1" d="M150.642 496.824h55.545m-34.386-11.338h34.385m-55.544-11.335h55.545m-43.832-11.336h43.832m-43.832-11.336h43.832m-43.832-11.336h43.832m-39.298-11.336h39.298m-8.124 71.795V423.14m-22.672 77.462V423.14m-22.673 77.462v-9.569m0-11.093v-9.567m0-31.741M64.956 523.651h59.235m-59.235-11.336h59.235m-59.235-11.336h59.235m-59.235-11.336h59.235m-59.235-11.336h71.326m-71.326-11.336h50.166m-50.166-11.336h71.326m-71.326-11.336h.099m-.099-11.336h.099m60.503 48.745v-8.278m0-12.918v-8.278m-22.672 78.596v-78.596M80.215 530.83v-78.596M446.612 267.459l2.541-2.541m-9.488 2.541l9.488-9.487m-16.435 9.487l1.511-1.511m4.263-4.263l10.66-10.66m-23.38 16.434l1.606-1.606m11.902-11.902l9.873-9.873m-30.329 23.381l7.891-7.891m11.403-11.403l11.035-11.035m-37.275 30.329l14.247-14.248m8.196-8.195l14.831-14.831M409.1 263.29l40.053-40.052M409.1 256.342l40.053-40.053m-42.624 35.678l42.321-42.321m-49.268 42.321l42.321-42.321m-49.268 42.321l42.321-42.321m-57.203 50.256l1.118-1.118m6.817-6.817l42.321-42.321m-57.203 50.256l50.256-50.256m-61.859 54.914l.019-.019m4.638-4.639l50.255-50.256m-55.007 48.061l48.06-48.06m-48.155 41.207l41.207-41.207m-41.301 34.355l34.356-34.356m-34.451 27.504l27.503-27.503m-27.597 20.65l20.65-20.651m-20.745 13.799l13.799-13.798m-13.894 6.946l6.946-6.946m-7.04.092l.094-.092m90.612 4.731l-4.732-4.732m4.732 11.679l-11.678-11.678m11.678 18.624l-18.625-18.625m18.625 25.573l-25.572-25.572m25.572 32.518l-32.519-32.519m32.519 39.466l-39.466-39.466m39.466 46.414l-46.413-46.413m46.413 53.359l-9.845-9.845m-8.16-8.16l-35.353-35.354m50.865 57.812l-7.939-7.939m-11.39-11.39l-38.484-38.483m50.865 57.812l-1.654-1.654m-11.908-11.908l-44.249-44.25m50.865 57.812l-1.511-1.511m-4.322-4.322l-51.979-51.979m50.865 57.812l-57.813-57.813m50.866 57.813l-9.772-9.772m-5.72-5.72l-42.321-42.321m50.866 57.813l-2.824-2.825m-12.668-12.667l-37.927-37.927m30.98 37.927l-30.883-30.883m23.936 30.883L358.7 228.129m20.171 27.118l-20.074-20.073M376.579 259.902l-17.685-17.685m10.739 17.685l-10.642-10.642m3.694 10.642l-3.596-3.596m.133 7.08l-.036-.036"/>
        <path class="st2"
              d="M82.746 70.786h28.391M112.27 69.652v-28.39M111.137 40.128H82.746M81.612 41.262v28.39M72.216 30.732h38.92M112.27 31.866v7.129M111.137 40.128H81.613M81.612 40.128v29.524M80.479 70.786H73.35M72.216 69.652V30.733M111.137 36.022h-33.63M77.507 36.022v33.63M112.27 29.221H70.705M70.705 29.221v41.565M112.27 29.221v2.645M73.35 70.786h-2.645M80.479 70.786h2.267M112.27 38.995v2.267M81.612 40.128l-9.396-9.396M112.27 69.652c0 .626-.507 1.134-1.133 1.134M111.137 40.128c.626 0 1.133.508 1.133 1.134M81.612 41.262c0-.626.508-1.134 1.134-1.134M82.746 70.786a1.134 1.134 0 01-1.134-1.134M111.137 30.732c.626 0 1.133.507 1.133 1.133M112.27 38.995c0 .626-.507 1.133-1.133 1.133M81.612 69.652c0 .626-.507 1.134-1.133 1.134M73.35 70.786a1.134 1.134 0 01-1.134-1.134M112.27 34.889c0 .626-.507 1.133-1.133 1.133M77.507 69.652c0 .626-.508 1.134-1.134 1.134M150.057 29.221H112.27M150.057 29.221v2.645M112.27 29.221v2.645M150.057 38.995v2.267M112.27 38.995v2.267M113.404 70.786h35.519M150.057 69.652v-28.39M148.923 40.128h-35.519M112.27 41.262v28.39M113.404 30.732h35.519M150.057 31.866v7.129M148.923 40.128h-35.519M112.27 38.995v-7.129M148.923 36.022h-35.519M150.057 69.652c0 .626-.508 1.134-1.134 1.134M148.923 40.128c.626 0 1.134.508 1.134 1.134M112.27 41.262c0-.626.507-1.134 1.134-1.134M113.404 70.786a1.134 1.134 0 01-1.134-1.134M148.923 30.732c.626 0 1.134.507 1.134 1.133M150.057 38.995c0 .626-.508 1.133-1.134 1.133M113.404 40.128a1.134 1.134 0 01-1.134-1.133M112.27 31.866c0-.626.507-1.133 1.134-1.133M150.057 34.889c0 .626-.508 1.133-1.134 1.133M113.404 36.022a1.134 1.134 0 01-1.134-1.133M182.93 70.786h4.157M187.843 70.03V29.977M187.087 29.221h-4.157M182.175 29.976v40.053M182.93 29.221h-32.874M150.057 29.221v2.645M150.057 38.995v2.267M151.19 70.786h29.851M182.175 69.652v-28.39M181.041 40.128H151.19M150.057 41.262v28.39M151.19 30.732h29.851M182.175 31.866v7.129M181.041 40.128H151.19M150.057 38.995v-7.129M181.041 36.022H151.19M187.843 70.03a.756.756 0 01-.756.756M187.087 29.221c.417 0 .756.338.756.756M182.175 29.976c0-.417.338-.756.755-.756M182.93 70.786a.755.755 0 01-.755-.756M182.175 69.652c0 .626-.508 1.134-1.134 1.134M181.041 40.128c.626 0 1.134.508 1.134 1.134M150.057 41.262c0-.626.507-1.134 1.133-1.134M151.19 70.786a1.133 1.133 0 01-1.133-1.134M181.041 30.732c.626 0 1.134.507 1.134 1.133M182.175 38.995c0 .626-.508 1.133-1.134 1.133M151.19 40.128a1.133 1.133 0 01-1.133-1.133M150.057 31.866c0-.626.507-1.133 1.133-1.133M182.175 34.889c0 .626-.508 1.133-1.134 1.133M151.19 36.022a1.133 1.133 0 01-1.133-1.133M70.705 70.786v37.787M70.705 70.786h2.645M70.705 108.572h2.645M80.479 70.786h2.267M80.479 108.572h2.267M112.27 107.438v-35.52M111.137 70.786H82.746M81.612 71.919v35.52M82.746 108.572h28.391M72.216 107.438v-35.52M73.35 70.786h7.129M81.612 71.919v35.52M80.479 108.572H73.35M77.507 71.919v35.52M111.137 70.786c.626 0 1.133.507 1.133 1.133M81.612 71.919c0-.626.508-1.133 1.134-1.133M82.746 108.572a1.134 1.134 0 01-1.134-1.134M112.27 107.438c0 .626-.507 1.134-1.133 1.134M72.216 71.919c0-.626.508-1.133 1.134-1.133M80.479 70.786c.626 0 1.133.507 1.133 1.133M81.612 107.438c0 .626-.507 1.134-1.133 1.134M73.35 108.572a1.134 1.134 0 01-1.134-1.134M76.373 70.786c.626 0 1.134.507 1.134 1.133M77.507 107.438c0 .626-.508 1.134-1.134 1.134M130.48 198.311v3.029m0-.001h.858m0 0h17.176m0 0h.859m.001 0v-3.029M149.374 204.767v-3.427m0 0h-.859m0 0v3.224m0-.001h.058m0 0l.293-.196m0 0l.343.087m0 0l.165.312M148.572 207.125l.293-.196m0 .001l.343.086m0-.001l.165.313m0 0v-2.562m0 0l-.165-.312m0 0l-.343-.087m0 0l-.293.196m0 0h-17.291m0 0l-.293-.196m0 0l-.343.087m0 0l-.165.312m0 0v2.562m0 0l.165-.313m0 0l.343-.086m0 .001l.293.196m0-.001h17.291M130.48 204.767l.165-.312m.001-.001l.342-.087m-.001 0l.294.196m0 0h.057m0 0v-3.224m0 .001h-.858m0 0v3.427M147.71 207.531h-15.565m0 0l1.004.227m0 0h13.557m0 0l1.004-.227M148.572 207.531l.293.196m0 0l.343-.087m0 0l.165-.312m0 0l-.165-.313m0 0l-.343-.086m0 0l-.293.196m0 0h-17.291m0 0l-.293-.196m0 0l-.343.086m0 0l-.165.313m0 0l.165.312m0 0l.343.087m0 0l.293-.196m0 0h17.291M108.563 198.311v3.029m0-.001h.859m.001 0h17.176m0 0h.859m0 0v-3.029M127.457 204.767v-3.427m0 0h-.859m0 0v3.224m0-.001h.058m0 0l.294-.196m0 0l.342.087m0 0l.165.312M126.656 207.125l.294-.196m0 .001l.342.086m0-.001l.165.313m0 0v-2.562m0 0l-.165-.312m0 0l-.342-.087m0 0l-.294.196m0 0h-17.291m0 0l-.293-.196m0 0l-.343.087m0 0l-.165.312m0 0v2.562m0 0l.165-.313m0 0l.343-.086m0 .001l.293.196m0-.001h17.291M108.563 204.767l.165-.312m0-.001l.343-.087m0 0l.294.196m0 0h.057m.001 0v-3.224m0 .001h-.859m-.001 0v3.427M125.794 207.531h-15.566m-.001 0l1.005.227m.001 0h13.556m-.001 0l1.005-.227M126.656 207.531l.294.196m0 0l.342-.087m0 0l.165-.312m0 0l-.165-.313m0 0l-.342-.086m0 0l-.294.196m0 0h-17.291m0 0l-.293-.196m0 0l-.343.086m0 0l-.165.313m0 0l.165.312m0 0l.343.087m0 0l.293-.196m0 0h17.291M130.48 164.303v-3.028m0 0h.858m0 0h17.176m0 0h.859m.001 0v3.028M149.374 157.848v3.427m0 0h-.859m0 0v-3.224m0 0h.058m0 0l.293.196m0 0l.343-.087m0 0l.165-.312M148.572 155.489l.293.196m0 0l.343-.087m0 0l.165-.312m0 0v2.562m0 0l-.165.312m0 0l-.343.087m0 0l-.293-.196m0 0h-17.291m0 0l-.293.196m0 0l-.343-.087m0 0l-.165-.312m0 0v-2.562m0 0l.165.312m0 0l.343.087m0 0l.293-.196m0 0h17.291M130.48 157.848l.165.312m.001 0l.342.087m-.001 0l.294-.196m0 0h.057m0 0v3.224m0 0h-.858m0 0v-3.427M147.71 155.084h-15.565m0 0l1.004-.227m0 0h13.557m0 0l1.004.227M148.572 155.084l.293-.197m0 0l.343.087m0 0l.165.312m0 0l-.165.313m0 0l-.343.087m0 0l-.293-.197m0 0h-17.291m0 0l-.293.197m0 0l-.343-.087m0 0l-.165-.313m0 0l.165-.312m0 0l.343-.087m0 0l.293.197m0 0h17.291M108.563 164.303v-3.028m0 0h.859m.001 0h17.176m0 0h.859m0 0v3.028M127.457 157.848v3.427m0 0h-.859m0 0v-3.224m0 0h.058m0 0l.294.196m0 0l.342-.087m0 0l.165-.312M126.656 155.489l.294.196m0 0l.342-.087m0 0l.165-.312m0 0v2.562m0 0l-.165.312m0 0l-.342.087m0 0l-.294-.196m0 0h-17.291m0 0l-.293.196m0 0l-.343-.087m0 0l-.165-.312m0 0v-2.562m0 0l.165.312m0 0l.343.087m0 0l.293-.196m0 0h17.291M108.563 157.848l.165.312m0 0l.343.087m0 0l.294-.196m0 0h.057m.001 0v3.224m0 0h-.859m-.001 0v-3.427M125.794 155.084h-15.566m-.001 0l1.005-.227m.001 0h13.556m-.001 0l1.005.227M126.656 155.084l.294-.197m0 0l.342.087m0 0l.165.312m0 0l-.165.313m0 0l-.342.087m0 0l-.294-.197m0 0h-17.291m0 0l-.293.197m0 0l-.343-.087m0 0l-.165-.313m0 0l.165-.312m0 0l.343-.087m0 0l.293.197m0 0h17.291M105.541 198.311v3.029m0-.001h-.859m0 0H87.506m0 0h-.858m0 0v-3.029M86.647 204.767v-3.427m0 0h.858m0 0v3.224m0-.001h-.057m0 0l-.294-.196m.001 0l-.342.087m-.001 0l-.165.312M87.448 207.125l-.293-.196m0 .001l-.343.086m0-.001l-.165.313m0 0v-2.562m0 0l.165-.312m0 0l.343-.087m0 0l.293.196m0 0h17.291m0 0l.293-.196m0 0l.343.087m0 0l.165.312m0 0v2.562m0 0l-.165-.313m0 0l-.343-.086m0 .001l-.293.196m0-.001H87.448M105.541 204.767l-.165-.312m0-.001l-.343-.087m0 0l-.293.196m0 0h-.058m0 0v-3.224m0 .001h.859m0 0v3.427M88.311 207.531h15.565m0 0l-1.004.227m0 0H89.315m0 0l-1.004-.227M87.448 207.531l-.293.196m0 0l-.343-.087m0 0l-.165-.312m0 0l.165-.313m0 0l.343-.086m0 0l.293.196m0 0h17.291m0 0l.293-.196m0 0l.343.086m0 0l.165.313m0 0l-.165.312m0 0l-.343.087m0 0l-.293-.196m0 0H87.448M105.541 164.303v-3.028m0 0h-.859m0 0H87.506m0 0h-.858m0 0v3.028M86.647 157.848v3.427m0 0h.858m0 0v-3.224m0 0h-.057m0 0l-.294.196m.001 0l-.342-.087m-.001 0l-.165-.312M87.448 155.489l-.293.196m0 0l-.343-.087m0 0l-.165-.312m0 0v2.562m0 0l.165.312m0 0l.343.087m0 0l.293-.196m0 0h17.291m0 0l.293.196m0 0l.343-.087m0 0l.165-.312m0 0v-2.562m0 0l-.165.312m0 0l-.343.087m0 0l-.293-.196m0 0H87.448M105.541 157.848l-.165.312m0 0l-.343.087m0 0l-.293-.196m0 0h-.058m0 0v3.224m0 0h.859m0 0v-3.427M88.311 155.084h15.565m0 0l-1.004-.227m0 0H89.315m0 0l-1.004.227M87.448 155.084l-.293-.197m0 0l-.343.087m0 0l-.165.312m0 0l.165.313m0 0l.343.087m0 0l.293-.197m0 0h17.291m0 0l.293.197m0 0l.343-.087m0 0l.165-.313m0 0l-.165-.312m0 0l-.343-.087m0 0l-.293.197m0 0H87.448M477.114 276.907v-67.26m0 0h-27.962m0 0v67.26m0 0h27.962M451.39 269.06l.085.974m0 0l.252.943m0 0l.412.886m0-.001l.559.8m0 .001l.689.691m0-.001l.799.56m0 .001l.884.413m0 0l.941.253m0-.001l.971.085m0 0h12.304m0 0l.97-.085m0 0l.943-.253m0 .001l.882-.413m0 0l.799-.56m0-.001l.69-.691m0 .001l.558-.8m0-.001l.412-.886m0 .001l.252-.943m0 0l.085-.974m0 0v-45.4m0 0l-.177-2.044m0-.001l-.531-1.982m0 0l-.865-1.859m0 .001l-1.174-1.681m0 0l-1.447-1.451m0 0l-1.677-1.177m0 0l-1.855-.866m0 0l-1.978-.532m0 0l-2.039-.178m0-.001l-2.039.178m0 .001l-1.977.532m0 0l-1.856.866m0 0l-1.677 1.177m0 0l-1.448 1.451m0 0l-1.174 1.681m0 0l-.865 1.859m0-.001l-.53 1.982m0 0l-.178 2.044m0 .001v45.4M464.078 267.838a.944.944 0 11-1.889 0 .944.944 0 011.889 0zM439.118 250.957l-.469-1.645m0 0l-.719-1.551m0 0l-.967-1.231m0 0l-1.248-.942m0 0l-1.448-.594m0 0l-1.551-.206m0 0l-1.552.206m0 0l-1.447.594m0 0l-1.248.942m0 0l-.968 1.231m0 0l-.718 1.551m0 0l-.469 1.645m0 0l-.208 1.698m0 0l.06 1.709m0 0l1.223 11.585m0 0h10.654m0 0l1.223-11.585m0 0l.059-1.709m0 0l-.207-1.698M428.599 260.227h4.116M432.715 260.227h4.117M429.652 245.96a5.734 5.734 0 013.063-.886M426.404 252.79c-.165-2.592 1.031-5.106 3.248-6.83M428.599 260.227c-1.506-2.252-2.266-4.828-2.195-7.437M439.027 252.79c.071 2.609-.689 5.185-2.195 7.437M435.779 245.96c2.217 1.723 3.413 4.238 3.248 6.83M432.715 245.074a5.737 5.737 0 013.064.886M428.068 265.949h9.295m0 0v-.189m0 0h-9.295m0 0v.189M442.162 265.949h-18.893M442.162 270.483h-18.893M442.162 265.949v4.534M423.269 265.949v4.534M379.437 267.46h29.095m0 0l.401-.166m0 0l.166-.401m0 0v-14.358m0 0l-.166-.401m0 0l-.401-.166m0 0h-29.095m0 0l-.401.166m0 0l-.166.401m0 0v14.358m0 0l.166.401m0 0l.401.166M380.57 263.303h12.961m.907 0h12.96M407.966 262.737v-9.069M407.399 253.101H380.57M380.003 253.668v9.069M407.966 262.737a.567.567 0 01-.567.567M407.399 253.101c.313 0 .567.254.567.567M380.003 253.668c0-.313.254-.567.567-.567M380.57 263.303a.567.567 0 01-.567-.567M394.74 260.212a.752.752 0 01-.302.604v-1.208a.752.752 0 01.302.604zm-1.209.604a.755.755 0 010-1.209v1.209zM394.438 266.931h-.907m0 0v-7.748m0 0l.256-.301m0 0h.395m0 0l.256.301m0 0v7.748M393.229 266.931h1.511m0 0v.265m0 0h-1.511m0 0v-.265M392.851 267.196h2.267m0 0v.264m0 0h-2.267m0 0v-.264M390.716 265.571v1.625m0 0h.095m0 0v.132m0 0h.283m0 0v.132m0 0h-1.889m0 0v-.132m0 0h.283m0 0v-.132m0 0h.094m0 0v-1.625m0 0h.322m0 0v-.416m0 0h-1.077m0 0v-.491m0 0h2.645m0 0v.491m0 0h-1.077m0 0v.416m0 0h.321M397.253 265.571v1.625m0 0h-.095m0 0v.132m0 0h-.282m0 0v.132m0 0h1.889m0 0v-.132m0 0h-.284m0 0v-.132m0 0h-.094m0 0v-1.625m0 0h-.322m0 0v-.416m0 0h1.078m0 0v-.491m0 0h-2.645m0 0v.491m0 0h1.076m0 0v.416m0 0h-.321M389.903 265.155l.072-.072M390.395 265.155l-.072-.072M389.903 265.571h.491M389.582 267.196h1.134M390.811 267.328h-1.323M398.066 265.155l-.072-.072M397.574 265.155l.072-.072M398.066 265.571h-.491M398.387 267.196h-1.134M397.158 267.328h1.323M390.395 264.91a.246.246 0 11-.491 0 .246.246 0 01.491 0zM398.066 264.91a.246.246 0 11-.492 0 .246.246 0 01.492 0zM143.083 423.139H65.054m0 0v29.096m0 .001h78.029m0 0V423.14M133.981 449.907l1.129-.088m0 0l1.095-.263m-.001 0l1.027-.428m0 0l.929-.582m.001 0l.801-.718m0 0l.65-.83m0 0l.479-.92m-.001 0l.293-.98m0 0l.099-1.01m0 0v-12.802m0 0l-.099-1.01m0 0l-.293-.98m0 0l-.479-.919m.001 0l-.65-.831m0 0l-.801-.718m0 0l-.929-.582m-.001 0l-1.027-.428m0 0l-1.095-.263m.001 0l-1.129-.088m0 0h-52.67m0 0l-2.372.186m0 0l-2.299.551m.001 0l-2.157.9m-.001 0l-1.95 1.222m0 0l-1.683 1.506m0 0l-1.365 1.745m.001 0l-1.006 1.931m0 0l-.616 2.057m0 0l-.208 2.122m0 0l.208 2.122m0 0l.616 2.057m0 0l1.006 1.931m0 0l1.365 1.745m-.001 0l1.683 1.507m0 0l1.95 1.221m0 0l2.157.9m.001 0l2.299.551m-.001 0l2.372.186m0 0h52.669M134.959 437.688a.945.945 0 11-1.89-.001.945.945 0 011.89.001zM206.187 500.602h-60.08M146.107 500.602v30.229M200.519 524.218a.945.945 0 11-1.89 0 .945.945 0 011.89 0zM177.161 517.847l1.397-.372m0 0l1.208-.793m0 0l.898-1.132m0 0l.496-1.358m0 0l.043-1.445m0 0l-.413-1.385m0 0l-.829-1.184m0 0l-1.159-.864m0 0l-1.372-.455m0 0h-1.445m0 0l-1.372.455m0 0l-1.16.864m0 0l-.828 1.184m0 0l-.414 1.385m0 0l.044 1.445m0 0l.496 1.358m0 0l.897 1.132m0 0l1.209.793m0 0l1.397.372m0 0v5.538m0 0l-.455-.108m0 0l-.49-.037m0 0l-.488.037m0 0l-.456.108m0 0l-.392.172m0 0l-.3.225m0 0l-.188.261m0 0l-.065.28m0 0v.403m0 0l.019.12m0 0l.064.278m0 0l.054.103m0 0l.182.251m0 0l.078.07m0 0l.274.205m0 0l.357.157m0 0l.195.052m0 0l.25.059m0 0l.019.688m0 0l.01.796m0 0h-1.729m0 0v.435m0 0h-2.871m0 0l-.16.058m0 0l-.083.149m0 0l.033.166m0 0l.133.106m0 0l.486.157m0 0l.726.315m0 0l1.007.574m0 0l.729.258m0 0v.125m0 0h-.604m0 0v.982m0 0h2.569m0 0v-.877m0 0l.063-.038m0 0l.032-.034m0 0l.026-.04m0 0l.278-.673m0 0h.697m0 0v1.36m0 0h-1.058m0 0v.302m0 0h3.023m0 0v-.302m0 0h-1.058m0 0v-1.36m0 0h1.436m0 0v-.152m0 0h.416m0 0v.303m0 0h-.152m0 0v.529m0 0h-.604m0 0v.982m0 0h2.57m0 0v-.982m0 0h-.605m0 0v-.529m0 0h-.151m0 0v-.303m0 0h.151m0 0v-1.511m0 0h-2.57m0 0v-2.154m0 0h-.082m0 0h-.094m0 0h-.123m0 0h-.15m0 0h-.042m0 0v-7.504M174.818 529.168h.209m0 0l-.14.341m0 0l-.325.053m0 0l-.008-.002m0 0v-.241m0 0h-.152m0 0v-.302m0 0h.416m0 0v.151M173.344 529.016v.241m0 .001l-.677-.24m0 0l-.988-.563m0 0l-.052-.023m0 0h1.566m0 0v.585m0-.001h.151M179.201 529.848v-.529M179.881 529.848v-.529M173.544 529.848h-.351M174.402 529.319h-.188M174.213 529.319h-.679M173.533 529.319h-.015M174.213 529.495v-.176M173.533 529.324v-.005M173.344 529.016h1.058M175.696 527.505h.558M173.193 528.431v-.491M175.763 526.938h.491M170.398 527.952l-.076-.012M174.547 530.056l.047-.002M174.377 530.023l.17.032M175.091 529.972l.046-.01M175.138 529.962l.02-.009M173.193 529.724l.453.161M173.646 529.884l.731.139M174.502 529.551l.06.011M170.398 527.952l.512.167M170.909 528.119l.718.312M173.604 529.867h.001M174.594 530.054l.498-.082M176.251 525.45l.002.002M176.254 525.981l-.002.001M174.818 528.62v.127M174.818 528.866v.103M174.818 528.748v.118M175.027 529.168h.523M173.78 529.411l.722.14M173.344 529.257l.436.154M175.499 528.534h.108a.108.108 0 10-.216 0 .108.108 0 00.216 0h-.108zM175.407 528.579l.091-.044M175.309 528.594l.098-.015M175.211 528.579l.098.015M175.12 528.534l.091.045M175.12 528.534h.108a.108.108 0 10-.216 0 .108.108 0 00.216 0h-.108zM174.964 526.038l.345.026M175.309 526.064l.345-.026M174.893 526.021l.071.017M175.975 525.962l.195-.052M175.654 526.038l.321-.076M174.94 528.367l-.009-.062M176.17 525.91l.083-.036M175.725 526.021l-.02.687M175.687 528.305l-.009.062M175.678 528.367l-.026.058M175.651 528.425l-.042.049M175.609 528.474l-.055.038M175.555 528.513l-.056.021M175.498 528.534l-.007.003M175.491 528.537l-.068.008M175.423 528.545h-.228M175.196 528.545l-.069-.008M175.127 528.537l-.007-.003M175.12 528.534l-.056-.021M175.063 528.513l-.055-.038M175.009 528.474l-.042-.048M174.967 528.425l-.027-.058M175.706 526.709l-.019 1.596M174.922 527.505l.009.8M174.818 527.807h.107M175.693 527.807h.561M177.161 517.847v-5.343M176.254 517.847v-5.343M177.161 512.504h-.907M180.221 529.848h-1.36M180.071 529.319h-1.059M180.071 529.016h-1.059M178.597 529.016v-1.209M174.818 527.807v1.209M177.161 530.528h-.907M177.161 529.168v-3.816M176.254 523.385v5.783M178.597 527.807h-1.436M177.651 527.505h-.491M177.651 526.938h-.491M175.763 527.505v-1.493M176.254 515.169a1.89 1.89 0 11.907 0M178.597 527.891a.34.34 0 110 .589M121.291 473.373l-1.645-.469m0 .001l-1.552-.718m0-.001l-1.23-.968m0 .001l-.943-1.248m0-.001l-.593-1.448m-.001 0l-.206-1.551m.001 0l.206-1.551m-.001.001l.593-1.447m.001-.001l.943-1.249m0 0l1.23-.967m0 .001l1.552-.719m0 0l1.645-.469m0 0l1.698-.207m0-.001l1.709.059m0 .001l11.585 1.223m0 0v10.654m0-.001l-11.585 1.223m0 0l-1.709.06m0 .001l-1.698-.208M130.561 462.855v4.117M130.561 466.972v4.117M115.407 466.972a5.738 5.738 0 01.887-3.063M116.294 463.908c1.723-2.217 4.238-3.413 6.829-3.248M123.123 460.66c2.61-.07 5.185.689 7.437 2.195M130.561 471.088c-2.253 1.505-4.828 2.265-7.437 2.195M123.123 473.283c-2.591.165-5.106-1.031-6.829-3.248M116.294 470.035a5.743 5.743 0 01-.887-3.063M136.282 462.324v9.296m0 0h-.189m0 0v-9.296m0 0h.189M136.282 476.418v-18.892M140.816 476.418v-18.892M136.282 476.418h4.534M136.282 457.525h4.534M146.107 439.199v30.607m0 0l.166.401m-.001 0l.401.166m.001 0h15.115m-.001 0l.4-.166m0 0l.166-.401m.001 0v-30.607m0 0l-.166-.401m-.001 0l-.4-.166m0 0h-15.115m.001 0l-.401.166m-.001 0l-.166.401M150.263 440.332v13.716m0 .907v13.716M150.83 469.239h9.825M161.221 468.672v-28.339M160.654 439.766h-9.825M150.83 469.239a.566.566 0 01-.566-.567M161.221 468.672a.566.566 0 01-.566.567M160.654 439.766c.313 0 .566.254.566.567M150.263 440.332c0-.313.253-.567.566-.567M154.165 454.955a.753.753 0 01-1.209 0h1.209zm-1.208-.907a.755.755 0 011.208 0h-1.208zM146.636 454.956v-.907m0 0h7.748m0 0l.301.256m0 0v.395m0 0l-.301.256m0 0h-7.748M146.636 453.747v1.511m0 0h-.265m0 0v-1.511m0 0h.265M146.371 453.368v2.267m0 .001h-.265m0 0v-2.267m0-.001h.265M147.996 451.233h-1.625m0 0v.095m0 0h-.132m0 0v.283m0 0h-.132m0 0v-1.889m0 0h.132m0 0v.283m0 0h.132m0 0v.095m0 0h1.625m0 0v.321m0 0h.416m-.001 0v-1.077m0 0h.491m.001 0v2.645m0 0h-.491m-.001 0v-1.077m0 0h-.416m.001 0v.321M147.996 457.771h-1.625m0 0v-.095m0 0h-.132m0 0v-.283m0 0h-.132m0 0v1.889m0 0h.132m0 0v-.283m0 0h.132m0 0v-.095m0 0h1.625m0 0v-.321m0 0h.416m-.001 0v1.077m0 0h.491m.001 0v-2.645m0 0h-.491m-.001 0v1.077m0 0h-.416m.001 0v-.321M148.412 450.421l.072.072M148.412 450.913l.072-.072M147.996 450.421v.492M146.371 450.1v1.133M146.239 451.328v-1.322M148.412 458.583l.072-.072M148.412 458.092l.072.072M147.996 458.583v-.492M146.371 458.904v-1.133M146.239 457.676v1.323M148.903 450.667a.246.246 0 11-.492 0 .246.246 0 01.492 0zM148.903 458.337a.246.246 0 11-.492 0 .246.246 0 01.492 0zM165.633 491.888l1.645-.469m-.001.001l1.552-.718m0 0l1.229-.967m.001 0l.944-1.249m-.001 0l.593-1.448m0 0l.206-1.551m0 0l-.206-1.551m0 0l-.593-1.447m0-.001l-.944-1.249m.001.001l-1.229-.967m-.001 0l-1.552-.719m0-.001l-1.645-.469m.001.001l-1.697-.207m-.001 0l-1.71.059m0 0l-11.584 1.223m.001 0v10.654m0 0l11.584 1.223m-.001 0l1.71.06m0-.001l1.697-.208M156.362 481.371v4.115M156.362 485.487v4.117M170.629 482.423c.571.889.881 1.961.887 3.063M163.799 479.175c2.591-.165 5.107 1.031 6.83 3.248M156.362 481.371c2.253-1.505 4.828-2.266 7.437-2.195M163.799 491.799c-2.609.07-5.185-.69-7.437-2.195M170.629 488.551c-1.723 2.217-4.238 3.413-6.83 3.248M171.516 485.487a5.747 5.747 0 01-.887 3.064M150.641 480.839v9.295m0 0h.188m0 0v-9.295m0 0h-.188M150.641 494.933V476.04M146.107 494.933V476.04M150.641 494.933h-4.535M150.641 476.04h-4.535M78.297 164.303v34.008m0 0h79.351m0 0v-34.008m0 0H78.297M378.87 259.903h-19.649m0 0v7.557m0 0h19.649m0 0v-7.557M99.58 580.794l-6.948 6.947M91.029 587.741l-2.802-2.802M88.227 584.939l-1.603 1.604M86.624 586.542L68.99 568.908M68.99 568.908l1.603-1.604M70.593 567.305l-1.473-1.473M69.12 564.229l6.947-6.947M77.67 558.885l-6.947 6.947M84.991 566.206l-6.947 6.947M88.227 584.939l-17.634-17.634M99.58 580.794l6.946-6.947M106.526 572.244l-2.802-2.802M103.724 569.442l1.603-1.603M105.327 567.839l-17.634-17.634M87.693 550.205l-1.603 1.602M86.09 551.807l-1.473-1.472M83.014 550.335l-6.947 6.947M77.67 558.885l6.947-6.947M84.991 566.206l6.947-6.947M103.724 569.442L86.09 551.808M92.633 587.741a1.134 1.134 0 01-1.604 0M69.12 565.832a1.133 1.133 0 010-1.603M70.723 565.832a1.135 1.135 0 01-1.603 0M78.044 573.153a1.133 1.133 0 01-1.603 0M106.526 572.244a1.134 1.134 0 010 1.604M83.014 550.335a1.136 1.136 0 011.604 0M84.617 550.335c.442.442.442 1.16 0 1.603M91.938 557.656a1.134 1.134 0 010 1.604M124.191 530.831v-49.123M143.083 530.831v-49.123M124.191 481.708h18.892M124.191 530.831h18.892M127.403 527.241v-17.382M127.403 509.859h12.469M139.872 509.859v8.238m0 .906v8.238M139.872 527.241h-12.47M127.403 502.68v-17.382M127.403 485.298h12.469M139.872 485.298v8.238m0 .906v8.238M139.872 502.68h-12.47M138.119 519.003a1.135 1.135 0 01-2.079 0h2.079zm-2.08-.906a1.134 1.134 0 012.08 0h-2.08zM138.119 494.442a1.135 1.135 0 01-2.079 0h2.079zm-2.08-.906a1.135 1.135 0 012.079 0h-2.079zM142.555 518.096v.907m0 .001h-7.749m0 0l-.3-.256m0 0v-.395m0 0l.3-.256m0-.001h7.749M142.555 519.306v-1.512m0 0h.264m0 0v1.512m0 0h-.264M142.819 519.684v-2.267m0-.001h.265m0 0v2.267m0 .001h-.265M141.194 521.818h1.625m0 0v-.094m0 0h.132m0 0v-.284m0 0h.132m0 0v1.89m0 0h-.132m0 0v-.284m0 0h-.132m0 0v-.094m0 0h-1.625m0 0v-.322m0 0h-.416m0 0v1.078m0 0h-.491m0 0v-2.645m0 0h.491m0 0v1.076m0 0h.416m0 0v-.321M141.194 515.282h1.625m0 0v.094m0 0h.132m0 0v.283m0 0h.132m0 0v-1.889m0 0h-.132m0 0v.283m0 0h-.132m0 0v.095m0 0h-1.625m0 0v.322m0 0h-.416m0 0v-1.077m0 0h-.491m0 0v2.644m0 0h.491m0 0v-1.076m0 0h.416m0 0v.321M142.555 493.536v.907m0 0h-7.749m0 0l-.3-.256m0-.001v-.396m0 0l.3-.255m0 .001h7.749M142.555 494.745v-1.511m0-.001h.264m0 0v1.511m0 .001h-.264M142.819 495.122v-2.267m0 0h.265m0 0v2.267m0 0h-.265M141.194 497.257h1.625m0 0v-.094m0 0h.132m0 0v-.283m0 0h.132m0 0v1.889m0 0h-.132m0 0v-.284m0 0h-.132m0 0v-.094m0 0h-1.625m0 0v-.322m0 0h-.416m0 0v1.077m0 0h-.491m0 0v-2.644m0 0h.491m0 0v1.076m0 0h.416m0 0v-.321M141.194 490.721h1.625m0 0v.094m0 0h.132m0 0v.284m0 0h.132m0 0v-1.89m0 0h-.132m0 0v.283m0-.001h-.132m0 0v.095m0 .001h-1.625m0 0v.322m0 0h-.416m0 0v-1.078m0 0h-.491m0 0v2.645m0 0h.491m0 0v-1.077m0 0h.416m0 0v.322M140.779 522.631l-.072-.072M140.779 522.14l-.072.071M141.194 522.631v-.491M142.819 522.952v-1.134M142.951 521.724v1.322M140.779 514.469l-.072.072M140.779 514.961l-.072-.073M141.194 514.469v.491M142.819 514.148v1.134M142.951 515.376v-1.323M140.779 498.07l-.072-.072M140.779 497.578l-.072.073M141.194 498.07v-.491M142.819 498.391v-1.134M142.951 497.163v1.322M140.779 489.908l-.072.072M140.779 490.399l-.072-.072M141.194 489.908v.491M142.819 489.587v1.134M142.951 490.815v-1.323M140.779 522.385a.246.246 0 11-.492 0 .246.246 0 01.492 0zM140.779 514.715a.246.246 0 11-.492 0 .246.246 0 01.492 0zM140.779 497.824a.246.246 0 11-.492 0 .246.246 0 01.492 0zM140.779 490.154a.246.246 0 11-.491-.001.246.246 0 01.491.001zM181.437 284.653h-19.271m-.001 0l-.534.221m.001 0l-.222.535m-.001 0v17.381m0 0l.222.535m.001 0l.534.221m-.001 0h19.271m.001 0l.535-.221m0 0l.221-.535m0 0v-17.381m0 0l-.221-.535m0 0l-.535-.221M188.805 281.819h-34.007M188.805 304.49h-34.007M188.805 281.819v22.671M154.797 281.819v22.671M179.548 286.542h-15.493M163.299 287.298v11.714M164.055 299.767h7.002m1.488 0h7.002M180.303 299.012v-11.714M179.548 286.542h.108a.108.108 0 00-.108-.108c-.06 0-.108.048-.108.108s.048.108.108.108a.108.108 0 00.108-.108h-.108zM163.299 287.298c0-.417.338-.756.756-.756M164.055 299.767a.757.757 0 01-.756-.756M180.303 299.012a.756.756 0 01-.755.756M179.548 286.542c.417 0 .755.339.755.756M172.141 294.935l-.1-.241m0 0l-.241-.098m0 0l-.24.1m0 0l-.099.24m0 0v7.477m0 0l.099.24m0 0l.241.099m0 0l.24-.099m0 0l.1-.24m0 0v-7.478M172.556 300.485h-.415m0 0v1.927m0 0l-.099.24m0 0l-.241.1m0 0l-.24-.1m0 0l-.1-.24m0 0v-1.927m0 0h-.414m0 0v2.456m0 0h1.509m0 0v-2.456M172.545 299.125h-.404m0 0v1.322m0 0h.404m0 0v-1.322M171.057 299.125v1.322m0 0h.404m0 0v-1.322m0 0h-.404M154.797 281.819h-22.672M154.797 304.49h-22.672M154.797 281.819v22.671M132.126 281.819v22.671M65.055 281.819h22.672m0 0v22.671m0 0H65.055m0 0v-22.671M115.689 283.897H93.773m0 0v18.516m0 0h21.916m0 0v-18.516M104.73 295.177v5.299M104.73 300.476h-1.095M104.73 295.177h-1.095M95.876 295.177v5.299M96.972 300.476h-1.096M96.972 295.177h-1.096M113.716 298.043a2.74 2.74 0 11-5.479 0 2.74 2.74 0 015.479 0zM113.673 289.803a3.967 3.967 0 11-7.934.002 3.967 3.967 0 017.934-.002z"/>
        <path class="st2"
              d="M111.973 289.803a2.268 2.268 0 11-4.536 0 2.268 2.268 0 014.536 0zM102.949 297.858a2.646 2.646 0 11-5.292-.002 2.646 2.646 0 015.292.002zM102.587 289.267a3.4 3.4 0 11-6.803-.001 3.4 3.4 0 016.803.001zM121.734 281.819H87.727M121.734 304.49H87.727M121.734 281.819v22.671M87.727 281.819v22.671M211.477 281.819h-22.672m0 0v22.671m0 0h22.672m0 0v-22.671M200.141 296.933v-7.558M202.813 295.827l-5.344-5.344M203.92 293.155h-7.557M202.813 290.483l-5.344 5.344M132.126 281.819h-10.391M132.126 304.49h-10.391M132.126 281.819v22.671M121.734 281.819v22.671M466.533 298.445a7.18 7.18 0 11-14.36 0 7.18 7.18 0 0114.36 0zM155.4 89.847c0 7.22-5.853 13.073-13.073 13.073-7.219 0-13.073-5.853-13.073-13.073 0-7.22 5.854-13.073 13.073-13.073 7.22 0 13.073 5.853 13.073 13.073zM123.285 592.611c0 7.22-5.853 13.073-13.073 13.073-7.22 0-13.073-5.853-13.073-13.073 0-7.22 5.853-13.073 13.073-13.073 7.22 0 13.073 5.853 13.073 13.073zM150.029 291.214a3.41 3.41 0 11-6.822 0 3.41 3.41 0 016.822 0z"/>
        <path class="st2"
              d="M149.508 291.214a2.89 2.89 0 11-5.78 0 2.89 2.89 0 015.78 0zM142.889 290.382a2.58 2.58 0 11-5.16 0 2.58 2.58 0 015.16 0z"/>
        <path class="st2"
              d="M141.754 290.382a1.444 1.444 0 11-2.889.001 1.444 1.444 0 012.889-.001zM84.892 316.96a3.778 3.778 0 11-7.557.001 3.778 3.778 0 017.557-.001z"/>
        <path class="st2"
              d="M82.248 316.96a1.134 1.134 0 11-2.267.001 1.134 1.134 0 012.267-.001zM173.691 316.96a3.78 3.78 0 11-7.558 0 3.78 3.78 0 017.558 0z"/>
        <path class="st2"
              d="M171.045 316.96a1.134 1.134 0 11-2.267 0 1.134 1.134 0 012.267 0zM342.595 32.251a3.779 3.779 0 11-7.558-.002 3.779 3.779 0 017.558.002z"/>
        <path class="st2"
              d="M339.95 32.251a1.134 1.134 0 11-2.268-.002 1.134 1.134 0 012.268.002zM342.595 121.048a3.78 3.78 0 11-7.558 0 3.78 3.78 0 017.558 0z"/>
        <path class="st2"
              d="M339.95 121.048a1.134 1.134 0 11-2.269 0 1.134 1.134 0 012.269 0zM471.446 32.251a3.778 3.778 0 11-7.556 0 3.778 3.778 0 017.556 0z"/>
        <path class="st2"
              d="M468.802 32.251a1.134 1.134 0 11-2.268-.002 1.134 1.134 0 012.268.002zM471.446 121.048a3.778 3.778 0 11-7.557.001 3.778 3.778 0 017.557-.001z"/>
        <path class="st2"
              d="M468.802 121.048a1.134 1.134 0 11-2.269 0 1.134 1.134 0 012.269 0zM236.783 648.346a3.78 3.78 0 11-7.558 0 3.78 3.78 0 017.558 0z"/>
        <path class="st2"
              d="M234.138 648.346a1.134 1.134 0 11-2.267 0 1.134 1.134 0 012.267 0zM147.985 648.346a3.78 3.78 0 11-7.558 0 3.78 3.78 0 017.558 0z"/>
        <path class="st2"
              d="M145.34 648.346a1.134 1.134 0 11-2.269 0 1.134 1.134 0 012.269 0zM397.763 110.657V42.641m0 0h75.573m0 0v68.016m0 0h-75.573M395.874 108.767V44.532m0 0l.144-.723m0-.001l.409-.613m0 0l.613-.41m0 .001l.723-.144m0 0v68.016m0 0l-.723-.144m0-.001l-.613-.41m0 0l-.409-.613m0 .001l-.144-.723M477.114 110.657V42.641m0 0h-3.778m0 0v68.016m0 0h3.778M477.114 42.642v68.016m0 0h-1.89m0 0V42.642m0 0h1.89M477.114 40.752V23.748m0 0h-18.893m0 0v17.004m0 0h18.893M477.114 112.546v17.003m0 0h-18.893m0 0v-17.003m0 0h18.893M471.446 70.603V44.909m0 0l-.11-.268m0 0l-.268-.11m0 .001h-12.47m0 0l-.266.11m0-.001l-.111.268m0 0v25.694m0 0l.111.267m0 0l.266.111m0 0h12.47m0 0l.268-.111m0 0l.11-.267M471.446 82.695v25.695m0 0l-.11.267m0 0l-.268.11m0 0h-12.47m0 0l-.266-.11m0 0l-.111-.267m0 0V82.695m0 0l.111-.268m0 0l.266-.11m0 0h12.47m0 0l.268.11m0 0l.11.268M459.245 110.657v-1.89M459.245 82.317V70.981M459.245 44.531v-1.89M454.235 110.657V42.641m0 0h-18.686m0 0l14.908 68.016m0 0h3.778M466.156 143.521h-.756m0 0v51.389m0 0l.756.756m0 0v-52.145M397.952 206.624v-22.672m0 0h56.49m0 0v-40.431m0 0h22.672m0 0v63.103m0 0h-79.162M465.4 194.911l.756.755m0 0h-68.204m0 0v-.755m0 0H465.4M405.389 204.631v-18.626m0 0h.756m0 0v18.626m0 0h-.756M407.394 204.631v-18.626m0 0h.756m0 0v18.626m0 0h-.756M409.398 204.631v-18.626m0 0h.755m.001 0v18.626m0 0h-.755M411.403 204.631v-18.626m0 0h.756m0 0v18.626m0 0h-.756M415.649 204.496l-2.242-18.491m0 0l.751-.091m0 0l2.241 18.491m0 0l-.75.091M268.912 110.657V42.641m0 0h75.572m0 0v68.016m0 0h-75.572M267.022 108.767V44.532m0 0l.144-.723m0-.001l.41-.613m.001 0l.613-.41m-.001.001l.723-.144m.001 0v68.016m0 0l-.723-.144m-.001-.001l-.613-.41m.001 0l-.41-.613m-.001.001l-.144-.723M348.263 110.657V42.641m0 0h-3.779m0 0v68.016m0 0h3.779M348.263 42.642v68.016m0 0h-1.889m0 0V42.642m0 0h1.889M348.263 40.752V23.748m0 0H329.37m0 0v17.004m0 0h18.893M348.263 112.546v17.003m0 0H329.37m0 0v-17.003m0 0h18.893M342.595 70.603V44.909m0 0l-.111-.268m0 0l-.267-.11m0 .001h-12.47m0 0l-.266.11m0-.001l-.111.268m0 0v25.694m0 0l.111.267m0 0l.266.111m0 0h12.47m0 0l.267-.111m0 0l.111-.267M342.595 82.695v25.695m0 0l-.111.267m0 0l-.267.11m0 0h-12.47m0 0l-.266-.11m0 0l-.111-.267m0 0V82.695m0 0l.111-.268m0 0l.266-.11m0 0h12.47m0 0l.267.11m0 0l.111.268M330.393 110.657v-1.89M330.393 82.317V70.981M330.393 44.531v-1.89M325.384 110.657V42.641m0 0h-18.686m0 0l14.907 68.016m0 0h3.779M231.503 184.33v22.672m0 0h72.568m.001 0V184.33m0 0h-72.568M304.071 196.044v-.756m0 0h-72.568m0 0v.756m0 0h72.568M238.94 186.323v18.626m0 0h.756m0 0v-18.626m0 0h-.756M240.945 186.323v18.626m0 0h.755m.001 0v-18.626m0 0h-.755M242.949 186.323v18.626m0 0h.756m0 0v-18.626m0 0h-.756M244.954 186.323v18.626m0 0h.756m0 0v-18.626m0 0h-.756M249.2 186.458l-2.241 18.491m0 0l.75.091m0 0l2.241-18.491m0 0l-.75-.091M231.503 158.636v22.671m0 0h72.55m0 0v-22.671m0 0h-72.55M304.053 170.35v-.756m0 0h-72.55m0 0v.756m0 0h72.55M239.318 160.628v18.626m0 0h.756m0 0v-18.626m0 0h-.756M241.323 160.628v18.626m0 0h.756m0 0v-18.626m0 0h-.756M243.327 160.628v18.626m0 0h.756m0 0v-18.626m0 0h-.756M245.332 160.628v18.626m0 0h.756m0 0v-18.626m0 0h-.756M249.578 160.764l-2.241 18.491m0 0l.75.091m0 0l2.241-18.491m0 0l-.75-.091M458.839 292.436l.448 1.233m0 0v1.313m0 0l-.448 1.233m0 0l.342 1.473m0 0v1.513m0 0l-.342 1.473m0 0l.449 1.234m0 .001v1.314m0-.001l-.449 1.235m0 0l2.987-2.232m0 0v-7.557m0 0l-2.987-2.232M462.088 294.668v7.557m0 0h-.262m0 0v-7.557m0 0h.262M462.61 294.668v7.557m0 0h-.262m.001 0v-7.557m0 0h.262M457.323 299.289l-.085-.891m0-.001l.226-.022m0 0l.045.477m0 .001l1.142-1.383m0 0l.152.125m0 0l-.529.642m0 0l.081.068m0 0l.611-.74m0-.001l.146.121m0 0l-.61.739m0 0l.096.081m0 0l.497-.601m0 .001l.13.107m0 0l-.496.601m0-.001l.098.081m0 .001l.342-.415m0 0l.139.116m0-.001l-1.173 1.422M448.019 287.109v22.672m0 0h22.672m0 0v-22.672m0 0h-22.672M418.168 284.464h52.522m0 0v-4.534m0 0h-52.522m0 0v4.534M470.691 284.464l-52.522-4.534m0 0v4.534m0 0l52.522-4.534m0 0v4.534M418.168 284.464v-13.981m0 0l-58.947 13.981m0 0v-13.981m0 0l58.947 13.981M418.168 270.483h-58.947m0 0v13.981m0 0h58.947m0 0v-13.981M228.481 152.4h-18.515m0 0l18.515-56.679m0 0h-18.515m0 0l18.515 56.679M209.966 152.4V95.721m0 0h18.515m-.001 0V152.4m0 0h-18.515M228.481 209.08h-18.515m0 0l18.515-56.68m0 0h-18.515m0 0l18.515 56.68M209.966 209.08V152.4m0 0h18.515m-.001 0v56.68m0 0h-18.515M209.21 423.139h22.672m0 0V530.83m0 .001H209.21m0 0V423.139M220.923 530.831h-.756m0 0V423.139m0 0h.756m0 0V530.83M211.203 432.088h18.626m0 0v.756m0 0h-18.626m0 0v-.756M211.203 434.093h18.626m0 0v.755m0 0h-18.626m0 0v-.755M211.203 436.097h18.626m0 0v.756m0 0h-18.626m0 0v-.756M211.203 438.102h18.626m0 0v.755m0 0h-18.626m0 0v-.755M211.338 442.348l18.491-2.241m0 0l.091.75m0 0l-18.491 2.241m0 0l-.091-.75M228.481 307.513h-22.672m0 0v62.536m0 .001h22.672m0 0v-62.536M216.767 370.05h.756m0 0v-62.536m0 0h-.756m0 0v62.536M226.487 314.95h-18.626m0 0v.756m0 0h18.626m0 0v-.756M226.487 316.955h-18.626m0 0v.756m0 0h18.626m0 0v-.756M226.487 318.96h-18.626m0 0v.755m0 0h18.626m0 0v-.755M226.487 320.964h-18.626m0 0v.756m0 0h18.626m0 0v-.756M226.353 325.211l-18.491-2.242m0 0l-.091.75m0-.001l18.491 2.242m0 .001l.091-.75M159.52 386.865H91.505m0 0v-75.573m0 0h68.016m-.001 0v75.573M157.631 388.754H93.394m0 0l-.723-.144m0 0l-.613-.409m0 0l-.409-.613m0 0l-.144-.723m0 0h68.015m0 0l-.143.723m0 0l-.41.613m0 0l-.613.409m0 0l-.723.144M159.52 307.513H91.505m0 0v3.778m0 .001h68.016m-.001 0v-3.778M91.505 307.513h68.016m0 0v1.889m0 0H91.505m0 0v-1.889M89.616 307.513H72.613m0 0v18.893m0 .001h17.003m0 0v-18.893M161.41 307.513h17.004m0 0v18.893m0 .001H161.41m0 0v-18.893M119.467 313.182H93.772m0 0l-.267.11m0 0l-.111.268m0 0v12.469m0 0l.111.267m0 0l.267.111m0 0h25.695m0 0l.267-.111m0 0l.111-.267m0 0V313.56m0 0l-.111-.268m0 0l-.267-.11M131.559 313.182h25.695m0 0l.267.11m0 0l.111.268m0 0v12.469m0 0l-.111.267m0 0l-.267.111m0 0h-25.695m0 0l-.267-.111m0 0l-.111-.267m0 0V313.56m0 0l.111-.268m0 0l.267-.11M159.52 325.383h-1.889M131.181 325.383h-11.335M93.395 325.383h-1.89M159.52 330.392H91.505m0 0v18.686m0 0l68.016-14.907m-.001.001v-3.779M154.598 578.441h68.015m0 0v75.572m0 0h-68.015m0 0v-75.572M156.487 576.552h64.236m0 0l.723.144m0 0l.613.41m0 0l.41.613m0 0l.143.723m0 0h-68.015m0 0l.144-.723m0 0l.41-.613m0 0l.613-.41m0 0l.723-.144M154.598 657.792h68.015m0 0v-3.779m0 0h-68.015m0 0v3.779M222.613 657.792h-68.015m0 0v-1.889m0 0h68.015m0 0v1.889M224.502 657.792h17.003m.001 0v-18.893m0 0h-17.003m-.001 0v18.893M152.708 657.792h-17.003m0 0v-18.893m0 0h17.003m0 0v18.893M194.651 652.125h25.695m0 0l.267-.111m0-.001l.111-.267m0 0v-12.469m0 0l-.111-.268m0 0l-.267-.11m0 0h-25.695m0 0l-.267.11m0 0l-.11.268m0 0v12.469m0 0l.11.267m0 0l.267.111M182.56 652.125h-25.694m0 0l-.268-.111m0-.001l-.11-.267m0 0v-12.469m0 0l.11-.268m0 0l.268-.11m0 0h25.694m0 0l.267.11m0 0l.111.268m-.001 0v12.469m0 0l-.111.267m.001 0l-.267.111M154.598 639.923h1.89M182.937 639.923h11.337M220.724 639.923h1.889M154.598 634.914h68.015m0 0v-18.686m0-.001l-68.015 14.907m0 .001v3.779M222.613 562.414h-68.015m0 0v12.785m0 0h68.015m0 0v-12.785M150.687 289.007h-.964m0 0v-1.205m0 0h-12.524m0 0v1.205m0 0h-.963M149.223 299.011h-9.634m0 0v-.478m0 0h.722m0 0v.238m0 0h8.189m0 0v-.238m0 0h.723m0 0v.478M149.223 298.533l-.047-.104m-.047-.103l-.048-.103m-.047-.103l-.047-.103m-.047-.103l-.048-.103m-.046-.103l-.048-.103m-.047-.103l-.047-.103m-.047-.103l-.047-.104m-.047-.103l-.048-.103m-.047-.103l-.047-.103m-.047-.103l-.047-.103m-.047-.103l-.048-.104m-.047-.103l-.046-.103m-.048-.103l-.047-.103m-.047-.103l-.047-.103m-.047-.103l-.048-.103m-.047-.103l-.047-.103m-.047-.103l-.047-.104M139.59 298.533l.047-.104m.046-.103l.047-.103m.047-.103l.048-.103m.047-.103l.047-.103m.048-.103l.047-.103m.046-.103l.048-.103m.046-.103l.048-.104m.047-.103l.047-.103m.048-.103l.047-.103m.047-.103l.047-.103m.047-.103l.047-.104m.048-.103l.046-.103m.048-.103l.048-.103m.046-.103l.047-.103m.047-.103l.047-.103m.048-.103l.046-.103m.048-.103l.047-.104M149.223 298.533h-.078m-.113 0h-.114m-.113 0h-.114m-.113 0h-.078m0 0l-.042-.052m-.071-.088l-.072-.088m-.071-.088l-.071-.088m-.072-.088l-.071-.088m-.072-.088l-.071-.088m-.072-.088l-.071-.088m-.071-.088l-.072-.088m-.071-.088l-.072-.088m-.071-.088l-.072-.088m-.071-.088l-.072-.088m-.071-.088l-.072-.088m-.071-.088l-.071-.088m-.072-.088l-.071-.088m-.072-.088l-.071-.088m-.072-.088l-.071-.088m-.071-.088l-.072-.088m-.071-.088l-.072-.088m-.072-.088l-.071-.088m-.071-.088l-.072-.088m-.071-.088l-.071-.088m-.072-.088l-.072-.088m-.071-.088l-.071-.088m-.072-.088l-.042-.052M139.59 298.533h.078m.112 0h.113m.113 0h.114m.114 0h.077m0 0l.042-.052m.071-.088l.072-.088m.072-.088l.071-.088m.072-.088l.071-.088m.071-.088l.072-.088m.071-.088l.072-.088m.071-.088l.072-.088m.071-.088l.071-.088m.073-.088l.071-.088m.071-.088l.071-.088m.073-.088l.071-.088m.071-.088l.071-.088m.073-.088l.071-.088m.07-.088l.072-.088m.071-.088l.072-.088m.071-.088l.072-.088m.071-.088l.071-.088m.072-.088l.071-.088m.072-.088l.071-.088m.072-.088l.071-.088m.071-.088l.072-.088m.072-.088l.071-.088m.071-.088l.042-.052M359.221 267.46h19.649m0 0v-7.557m0 0h-19.649m0 0v7.557M77.435 317.82l3.68-.86m0 0l1.583-3.431m0 0l-1.583 3.431m0 0l1.305 3.546M173.591 317.82l-3.679-.86m0 0l-1.584-3.431m0 0l1.584 3.431m0 0l-1.306 3.546M337.956 28.571l.86 3.68m0 0l3.432 1.583m0 0l-3.432-1.583m0 0l-3.545 1.305M337.956 124.728l.86-3.679m0 0l3.432-1.584m0 0l-3.432 1.584m0 0l-3.545-1.306M466.808 28.571l.86 3.68m0 0l3.431 1.583m0 0l-3.431-1.583m0 0l-3.546 1.305M466.808 124.728l.86-3.679m0 0l3.431-1.584m0 0l-3.431 1.584m0 0l-3.546-1.306M236.683 647.485l-3.68.86m.001 0l-1.583 3.431m0 0l1.583-3.431m0 0l-1.305-3.545M140.527 647.485l3.68.86m0 0l1.583 3.431m0 0l-1.583-3.431m0 0l1.306-3.545M212.611 71.689l.527-1.436m0 0l.791-1.218m-.001 0l.566-.567m0 0l.694-.473m0 0l.963-.37m0 0l1.026-.119m0 0l1.099.147m0 0l1.002.454m0 0l1.09 1.041m0 0l1.05 1.098m0 0l1.074.616m0 .001l1.215.247m0-.001l1.042-.078m0 .001l.887-.235m0 0l.848-.362M226.484 70.435l-.412 1.053m0 0l-.564.97m0 0l-.843.96m0-.001l-.882.61m0 0l-.987.377m0 0l-1.041.12m0 .001l-1.049-.164m0-.001l-.566-.21M220.141 74.15l.209.419m0 0l.566.356m0 0l.608.147m0 0h.272M221.796 75.072l-.88 1.048m0 0l-1.021.641m0 0l-1.158.385m0 0l-1.336.205m0 0l-.662-.035m0 0l-.641-.17m0 0l-1.089-.691m0 0l-1.215-1.215m0 0l-1.173-1.571M212.62 73.669l.775.503m.001 0l1.487.649m0 0l.541.14m0 0l.549.007m0 0l.649-.294m0 0l.534-.533m0 0l.43-.87m0 0l.417-.276m0 0l.504-.122m0 0h.797m0 0l1.026.461M220.33 73.334l-.251-.607m0-.001l-.576-.747m0 0l-.755-.583m0 0l-.548-.298m0 0l-.593-.174m0 0h-.524m-.001 0l-.838.21m.001 0l-.984.607M215.26 71.742l.502-.796m0 0l.839-.502m0 0l.754-.189m0 0h.314M217.67 70.255l-.639-.639m0 0l-.669-.383m0 0l-.745-.088m-.001 0l-.525.189m0 0l-.46.334m.001 0l-1.277 1.278m0 0l-.744.744"/></g>
    <g id="walls_1_"><path class="st3" d="M255.935 8.057v13.604M255.935.5v5.668M255.935 6.168v1.889M322.06 8.057v13.604M322.06.5v5.668M322.06 6.168v1.889M322.06.5h-66.124M322.06 21.661h-66.124M322.06 8.057h-3.778M318.282 8.057V6.169M318.282 6.168h3.779M284.274 6.168h1.889M286.163 6.168v1.889M286.163 8.057h-1.889M318.282 7.113h-32.118M318.282 8.057h-32.118M286.163 6.168h32.119M284.274 8.057h-.945M283.33 8.057v-.943M283.33 7.113h-.945M282.385 7.113v-.945M282.385 6.168h1.889M255.935 6.168h3.778M259.713 6.168v.946M259.713 7.113h-.945M258.768 7.113v.944M258.768 8.057h-2.832M259.713 6.168h22.672M280.496 9.002h-18.894M283.33 9.002h-2.834M280.496 9.002V7.114M280.496 7.113h2.833M283.33 7.113v1.889M258.768 7.113h2.835M261.603 7.113v1.889M261.603 9.002h-2.835M258.768 9.002V7.114M261.603 7.113h18.893M280.496 9.002h-18.894M280.496 8.057h-18.894M322.06 6.168v1.889M322.06 6.168v1.889M322.06.5v5.668M322.06 8.057v13.604M255.935 6.168v1.889M255.935 6.168v1.889M255.935.5v5.668M255.935 8.057v13.604M322.06.5v21.16"/>
        <path d="M359.28 285.9h-1.512v.454h-9.446V251.59h8.691v.454h1.511v1.058h.756V285.9h0zm-72.928 381.339h-9.069V324.14h21.538v7.557h-.453v1.512h-12.016v334.03h0zm51.013-343.099v7.557h.453v1.512h149.464v-9.069H359.28v-10.127h-1.512v-.453h-9.446v10.58h-10.957 0zM65.113 657.793v-17.382H42.064v26.828h23.049v-9.446h0zM487.281 21.661H459.98V.5h27.301v21.161h0zm-128.757 202.27h-1.511v.453h-8.691v-25.695h8.691v.454h1.511v24.788h0zm-10.202-56.226h8.691v-.454h1.511V21.661h18.326V.5h-54.79v21.161h26.262v146.044h0zM65.113 557.282H42.064v-35.898h23.049v35.898h0zM42.064 152.968h23.049v45.343H42.064v-45.343h0zm23.049 190.821H42.064v-62.348h23.049v62.348h0zm0 111.47H42.064v-45.344h23.049v45.344h0zm79.352-433.598H97.61V.5h46.855v21.161h0zM210.591.5h45.343v21.161h-45.343V.5z"
              fill-rule="evenodd" clip-rule="evenodd" fill="#020203" stroke="#020203" stroke-miterlimit="3"/>
        <g><path class="st5" d="M49.622 640.412h15.491M42.064 640.412h5.668M47.732 640.412h1.889M49.622 557.282h15.491M42.064 557.282h5.668M47.732 557.282h1.889M42.064 557.282v83.13M65.114 557.282v83.13M49.622 557.282v3.779M49.622 561.06h-1.889M47.732 561.06v-3.779M47.732 596.957v-1.89M47.732 595.068h1.889M49.622 595.068v1.89M48.677 561.06v34.007M49.622 561.06v34.007M47.732 595.068v-34.007M49.622 596.957v.944M49.622 597.902h-.946M48.677 597.902v.945M48.677 598.847h-.944M47.732 598.847v-1.89M47.732 640.412v-3.778M47.732 636.633h.944M48.677 636.633v.944M48.677 637.578h.945M49.622 637.578v2.834M50.566 637.578l28.055-28.056M47.732 636.633v-37.786M50.566 600.736v34.007M50.566 597.902v2.834M50.566 600.736h-1.889M48.677 600.736v-2.834M48.677 597.902h1.889M48.677 637.578v-2.835M48.677 634.743h1.889M50.566 634.743v2.835M50.566 637.578h-1.889M48.677 634.743v-34.006M50.566 600.736v34.007M49.622 600.736v34.007M50.566 597.902a39.673 39.673 0 0128.055 11.621M47.732 557.282h1.889M47.732 557.282h1.889M42.064 557.282h5.668M49.622 557.282h15.491M47.732 640.412h1.889M47.732 640.412h1.889M42.064 640.412h5.668M49.622 640.412h15.491M42.064 557.282h23.05"/>
            <g><path class="st5" d="M49.622 521.384h15.491M42.064 521.384h5.668M47.732 521.384h1.889M49.622 455.259h15.491M42.064 455.259h5.668M47.732 455.259h1.889M42.064 455.259v66.125M65.114 455.259v66.125M49.622 455.259v3.779M49.622 459.037h-1.889M47.732 459.037v-3.778M47.732 493.045v-1.889M47.732 491.156h1.889M49.622 491.156v1.889M48.677 459.037v32.119M49.622 459.037v32.119M47.732 491.156v-32.118M49.622 493.045v.944M49.622 493.989h-.946M48.677 493.989v.945M48.677 494.934h-.944M47.732 494.934v-1.889M47.732 521.384v-3.778M47.732 517.606h.944M48.677 517.606v.944M48.677 518.55h.945M49.622 518.55v2.834M47.732 517.606v-22.672M50.566 496.824v18.893M50.566 493.989v2.834M50.566 496.824h-1.889M48.677 496.824v-2.834M48.677 493.989h1.889M48.677 518.55v-2.833M48.677 515.717h1.889M50.566 515.717v2.833M50.566 518.55h-1.889M48.677 515.717v-18.893M50.566 496.824v18.893M49.622 496.824v18.893M47.732 455.259h1.889M47.732 455.259h1.889M42.064 455.259h5.668M49.622 455.259h15.491M47.732 521.384h1.889M47.732 521.384h1.889M42.064 521.384h5.668M49.622 521.384h15.491M42.064 455.259h23.05"/>
                <g><path class="st5" d="M49.622 409.915h15.491M42.064 409.915h5.668M47.732 409.915h1.889M49.622 343.788h15.491M42.064 343.788h5.668M47.732 343.788h1.889M42.064 343.788v66.126M65.114 343.788v66.126M49.622 343.788v3.779M49.622 347.567h-1.889M47.732 347.567v-3.779M47.732 381.575v-1.889M47.732 379.686h1.889M49.622 379.686v1.889M48.677 347.567v32.119M49.622 347.567v32.119M47.732 379.686v-32.119M49.622 381.575v.945M49.622 382.52h-.946M48.677 382.52v.944M48.677 383.464h-.944M47.732 383.464v-1.889M47.732 409.915v-3.779M47.732 406.136h.944M48.677 406.136v.944M48.677 407.081h.945M49.622 407.081v2.833M47.732 406.136v-22.672M50.566 385.354v18.893M50.566 382.52v2.834M50.566 385.354h-1.889M48.677 385.354v-2.834M48.677 382.52h1.889M48.677 407.081v-2.834M48.677 404.247h1.889M50.566 404.247v2.833M50.566 407.081h-1.889M48.677 404.247v-18.893M50.566 385.354v18.893M49.622 385.354v18.893M47.732 343.788h1.889M47.732 343.788h1.889M42.064 343.788h5.668M49.622 343.788h15.491M47.732 409.915h1.889M47.732 409.915h1.889M42.064 409.915h5.668M49.622 409.915h15.491M42.064 343.788h23.05"/>
                    <g><path class="st5" d="M49.622 198.312h15.491M42.064 198.312h5.668M47.732 198.312h1.889M49.622 281.441h15.491M42.064 281.441h5.668M47.732 281.441h1.889M42.064 281.441v-83.129M65.114 281.441v-83.129M49.622 281.441v-3.779M49.622 277.663h-1.889M47.732 277.663v3.778M47.732 241.766v1.889M47.732 243.655h1.889M49.622 243.655v-1.889M48.677 277.663v-34.007M49.622 277.663v-34.007M47.732 243.655v34.007M49.622 241.766v-.945M49.622 240.821h-.946M48.677 240.821v-.945M48.677 239.876h-.944M47.732 239.876v1.89M47.732 198.312v3.778M47.732 202.09h.944M48.677 202.09v-.944M48.677 201.146h.945M49.622 201.146v-2.834M50.566 201.146l28.055 28.055M47.732 202.09v37.786M50.566 237.987v-34.008M50.566 240.821v-2.834M50.566 237.987h-1.889M48.677 237.987v2.834M48.677 240.821h1.889M48.677 201.146v2.833M48.677 203.979h1.889M50.566 203.979v-2.833M50.566 201.146h-1.889M48.677 203.979v34.008M50.566 237.987v-34.008M49.622 237.987v-34.008M78.621 229.201a39.677 39.677 0 01-28.055 11.621M47.732 281.441h1.889M47.732 281.441h1.889M42.064 281.441h5.668M49.622 281.441h15.491M47.732 198.312h1.889M47.732 198.312h1.889M42.064 198.312h5.668M49.622 198.312h15.491M65.114 198.312h-23.05"/>
                        <g><path class="st5" d="M144.465 8.057v13.604M144.465.5v5.668M144.465 6.168v1.889M210.591 8.057v13.604M210.591.5v5.668M210.591 6.168v1.889M210.591.5h-66.126M210.591 21.661h-66.126M210.591 8.057h-3.779M206.813 8.057V6.169M206.813 6.168h3.778M172.804 6.168h1.891M174.694 6.168v1.889M174.694 8.057h-1.89M206.813 7.113h-32.119M206.813 8.057h-32.119M174.694 6.168h32.118M172.804 8.057h-.944M171.86 8.057v-.943M171.86 7.113h-.944M170.915 7.113v-.945M170.915 6.168h1.889M144.465 6.168h3.778M148.244 6.168v.946M148.244 7.113h-.945M147.299 7.113v.944M147.299 8.057h-2.833M148.244 6.168h22.671M169.026 9.002h-18.893M171.86 9.002h-2.833M169.026 9.002V7.114M169.026 7.113h2.833M171.86 7.113v1.889M147.299 7.113h2.834M150.133 7.113v1.889M150.133 9.002h-2.834M147.299 9.002V7.114M150.133 7.113h18.893M169.026 9.002h-18.893M169.026 8.057h-18.893M210.591 6.168v1.889M210.591 6.168v1.889M210.591.5v5.668M210.591 8.057v13.604M144.465 6.168v1.889M144.465 6.168v1.889M144.465.5v5.668M144.465 8.057v13.604M210.591.5v21.16"/>
                            <g><path class="st5" d="M376.851 8.057v13.604M376.851.5v5.668M376.851 6.168v1.889M459.981 8.057v13.604M459.981.5v5.668M459.981 6.168v1.889M459.981.5h-83.13M459.981 21.661h-83.13M459.981 8.057h-3.779M456.202 8.057V6.169M456.202 6.168h3.778M405.19 6.168h1.89M407.08 6.168v1.889M407.08 8.057h-1.89M456.202 7.113h-49.123M456.202 8.057h-49.123M407.08 6.168h49.122M405.19 8.057h-.945M404.246 8.057v-.943M404.246 7.113h-.944M403.301 7.113v-.945M403.301 6.168h1.889M376.851 6.168h3.778M380.629 6.168v.946M380.629 7.113h-.945M379.685 7.113v.944M379.685 8.057h-2.834M380.629 6.168h22.672M401.412 9.002h-18.893M404.246 9.002h-2.833M401.412 9.002V7.114M401.412 7.113h2.833M404.246 7.113v1.889M379.685 7.113h2.833M382.519 7.113v1.889M382.519 9.002h-2.834M379.685 9.002V7.114M382.519 7.113h18.893M401.412 9.002h-18.893M401.412 8.057h-18.893M459.981 6.168v1.889M459.981 6.168v1.889M459.981.5v5.668M459.981 8.057v13.604M376.851 6.168v1.889M376.851 6.168v1.889M376.851.5v5.668M376.851 8.057v13.604M459.981.5v21.16"/></g>
                            <g><path class="st5" d="M97.61 8.057v13.604M97.61.5v5.668M97.61 6.168v1.889M97.61.5H42.064M97.61 21.661H65.113M97.61 8.057h-4.724M92.887 8.057V6.169M92.887 6.168h4.724M49.622 6.168h4.722M54.345 6.168v1.889M54.345 8.057h-4.723M47.732 6.168h1.889M92.887 8.057H54.345M54.345 6.168h38.542M97.61 6.168v1.889M97.61 6.168v1.889M97.61.5v5.668M97.61 8.057v13.604M49.622 152.968h15.491M42.064 152.968h5.668M47.732 152.968h1.889M42.064 152.968V.5M65.114 152.968V21.66M49.622 152.968v-4.724M49.622 148.245h-1.889M47.732 148.245v4.724M47.732 8.057v4.724M47.732 12.781h1.889M49.622 12.781V8.058M47.732 6.168v1.889M49.622 148.245V12.781M47.732 12.781v135.464M47.732 152.968h1.889M47.732 152.968h1.889M42.064 152.968h5.668M49.622 152.968h15.491"/></g></g></g></g></g>
            <g><path class="st5" d="M42.064 521.384v35.897M42.064 300.334H.5m0 0V179.418m0 0h41.564m0 0v120.916M42.064 643.057H.5m0 0V452.613m0 0h41.564m0 0v190.443"/></g>
            <path class="st6" d="M47.732 106.129h1.889v5.133h-1.889zM47.732 63.621h1.889v5.133h-1.889z"/></g>
        <g><path class="st5" d="M301.594 348.757c-2.09-5.568-2.918-9.505-3.226-15.548"/>
            <path class="st7" d="M301.609 348.866l36.208-15.657v-1.512h-.452l-36.356 15.782z"/>
            <path class="st5" d="M370.345 288.175c-4.293-1.602-6.488-2.041-11.065-2.275"/>
            <path class="st7" d="M370.439 288.209l-1.388-.599-11.283 25.95v.453h1.512z"/>
            <path class="st5" d="M281.512 246.787c1.551-4.201 2.043-6.593 2.271-11.067"/>
            <path class="st7" d="M281.473 246.878l.601-1.387-25.951-11.283h-.453v1.512z"/>
            <path class="st5" d="M369.584 249.777c-4.294 1.602-6.483 2.033-11.06 2.267"/>
            <path class="st7" d="M369.683 249.734l-11.159-25.803h-1.511v.453l11.282 25.95z"/>
            <path class="st5" d="M371.102 169.837c-4.87-1.817-7.387-2.32-12.577-2.586"/>
            <path class="st7" d="M371.183 169.871l-1.387-.6-12.783 29.418v.454h1.511z"/>
            <g><path class="st5" d="M315.328 146.071c-1.818 4.871-2.336 7.373-2.601 12.565"/>
                <path class="st7" d="M315.347 145.978l-.6 1.387 29.418 12.782h.454v-1.511z"/></g>
            <g><path class="st5" d="M241.456 339.728c-1.824-4.816-2.339-7.427-2.601-12.565"/>
                <path class="st7" d="M241.475 339.821l29.271-12.658v-1.512h-.453l-29.418 12.783z"/></g>
            <g><path class="st5" d="M174.015 433.945c-1.566-4.198-2.001-6.33-2.23-10.805"/>
                <path class="st7" d="M174.041 434.042l25.211-10.902.001-1.512h-.455l-25.357 11.027z"/></g>
            <g><path class="st5" d="M216.28 386.476c4.696-1.752 7.255-2.265 12.259-2.522"/>
                <path class="st7" d="M216.181 386.513l12.358 28.578h1.513v-.453l-12.484-28.725z"/></g>
            <g><path class="st5" d="M241.373 435.404c-1.774-4.757-2.258-7.193-2.518-12.264"/>
                <path class="st7" d="M241.413 435.498l28.578-12.358v-1.512h-.454l-28.724 12.483z"/>
                <g><path class="st5" d="M114.944 519.73c1.507 3.498 2.09 7.312 2.285 11.101"/>
                    <path class="st7" d="M114.919 519.672l-25.804 11.159v1.511h.454l25.95-11.282z"/></g></g></g>
        <g><path class="st8" d="M231.579 21.8l-3.02 2.66M231.579 28.34l-3.02 2.66M231.579 34.88l-3.02 2.66M212.389 51.79l-2.72 2.39M231.579 41.42l-3.02 2.66M212.689 58.06l-3.02 2.66M219.809 51.79l-3.44 3.03M231.579 47.96l-3.02 2.66M212.689 64.6l-3.02 2.66M227.229 51.79l-3.44 3.03M212.689 71.13l-3.02 2.66M231.579 54.49l-3.02 2.66M212.689 77.68l-3.02 2.66M231.579 61.04l-3.02 2.66M212.689 84.21l-3.02 2.66M231.579 67.57l-3.02 2.66M212.689 90.75l-3.02 2.66M231.579 74.11l-3.02 2.66M218.009 92.6l-3.43 3.03M231.579 80.65l-3.02 2.66M225.429 92.6l-3.44 3.03M231.579 87.18l-3.02 2.66M231.579 93.73l-3.02 2.66M231.579 100.26l-3.02 2.66M231.579 106.8l-3.02 2.66M231.579 113.34l-3.02 2.66M231.579 119.88l-3.02 2.66M231.579 126.42l-3.02 2.66M231.579 132.95l-3.02 2.66M231.579 139.49l-3.02 2.66M231.579 146.03l-3.02 2.66M231.579 152.57l-3.02 2.66M231.579 159.11l-3.02 2.66M66.649 304.4l-1.52 1.34M231.579 165.65l-3.02 2.66M74.069 304.4l-3.42 3.02M231.579 172.18l-3.02 2.66M81.489 304.4l-3.43 3.02M231.579 178.73l-3.02 2.66M88.909 304.4l-3.42 3.02M236.179 181.21l-3.44 3.03M231.579 185.26l-3.02 2.66M96.339 304.4l-3.43 3.02M243.599 181.21l-3.44 3.03M231.579 191.8l-3.02 2.66M103.759 304.4l-3.43 3.02M111.179 304.4l-3.42 3.02M251.029 181.21l-3.44 3.03M231.579 198.34l-3.02 2.66M231.579 204.88l-3.02 2.66M118.609 304.4l-3.43 3.02M258.449 181.21l-3.44 3.03M231.579 211.42l-3.02 2.66M126.019 304.4l-3.42 3.02M265.869 181.21l-3.44 3.03M231.579 217.95l-3.02 2.66M133.449 304.4l-3.43 3.02M273.289 181.21l-3.44 3.03M306.449 158.54l-2.32 2.04M231.579 224.49l-3.02 2.66M140.869 304.4l-3.43 3.02M280.709 181.21l-3.44 3.03M312.749 159.53l-2.31 2.03M231.579 231.03l-3.02 2.66M148.289 304.4l-3.43 3.02M307.159 164.45l-3.03 2.67M288.139 181.21l-3.44 3.03M237.229 232.6l-3.43 3.02M155.719 304.4l-3.43 3.02M307.159 170.99l-3.03 2.67M295.559 181.21l-3.44 3.03M484.209 21.57l-7.02 6.18M244.649 232.6l-3.43 3.02M163.139 304.4l-3.43 3.02M307.159 177.53l-3.03 2.67M302.979 181.21l-3.43 3.03M487.299 25.38l-10.11 8.91M170.559 304.4l-3.42 3.02M252.069 232.6l-3.43 3.02M307.159 184.07l-3.03 2.67M487.299 31.92l-10.11 8.9M177.979 304.4l-3.43 3.02M307.159 190.6l-3.03 2.67M487.299 38.46l-10.11 8.91M348.339 160.87l-.78.69M185.409 304.4l-3.43 3.02M307.159 197.15l-3.03 2.67M487.299 45l-10.11 8.9M192.829 304.4l-3.43 3.02M218.569 281.72l-3.44 3.03M214.579 285.24l-3.02 2.66M307.159 203.68l-3.03 2.67M487.299 51.53l-10.11 8.91M200.249 304.4l-3.43 3.02M225.999 281.72l-3.44 3.03M214.579 291.78l-3.02 2.66M68.999 420.02l-3.43 3.02M307.159 210.22l-3.03 2.67M487.299 58.07l-10.11 8.91M207.669 304.4l-3.42 3.02M231.579 283.34l-3.02 2.66M214.579 298.32l-3.02 2.66M76.419 420.02l-3.42 3.02M289.179 232.6l-3.43 3.02M307.159 216.76l-3.03 2.67M487.299 64.62l-10.11 8.9M215.099 304.4l-3.43 3.02M231.579 289.88l-3.02 2.66M83.849 420.02l-3.43 3.02M307.159 223.3l-3.03 2.67M296.609 232.6l-3.43 3.02M487.299 71.15l-10.11 8.91M408.689 140.4l-2.91 2.56M304.019 232.6l-3.43 3.02M307.159 229.84l-3.03 2.67M91.259 420.02l-3.42 3.02M231.579 296.41l-3.02 2.67M222.519 304.4l-3.43 3.02M487.299 77.69l-10.11 8.9M416.109 140.4l-3.44 3.03M98.689 420.02l-3.43 3.02M231.579 302.95l-5.07 4.47M487.299 84.22l-10.11 8.91M423.529 140.4l-3.44 3.03M106.109 420.02l-3.43 3.02M231.579 309.49l-3.02 2.66M487.299 90.76l-10.11 8.91M430.949 140.4l-3.44 3.03M113.529 420.02l-3.42 3.02M231.579 316.03l-3.02 2.66M487.299 97.31l-10.11 8.9M438.379 140.4l-3.44 3.03M363.309 206.53l-3.43 3.02M120.959 420.02l-3.43 3.02M231.579 322.57l-3.02 2.66M487.299 103.84l-10.11 8.91M445.799 140.4l-3.44 3.03M231.579 329.11l-3.02 2.66M128.379 420.02l-3.43 3.02M237.339 324.04l-3.44 3.03M370.729 206.53l-3.43 3.02M487.299 110.38l-10.11 8.9M453.219 140.4l-3.44 3.03M231.579 335.64l-3.02 2.66M135.799 420.02l-3.43 3.02M378.149 206.53l-3.43 3.02M487.299 116.92l-10.11 8.9M460.639 140.4l-3.44 3.03M231.579 342.18l-3.02 2.66M143.219 420.02l-3.43 3.02M385.569 206.53l-3.43 3.02M487.299 123.46l-10.11 8.9M468.069 140.4l-3.44 3.03M231.579 348.72l-3.02 2.66M150.649 420.02l-3.43 3.02M146.189 423.94l-3.03 2.67M392.999 206.53l-3.43 3.02M487.299 130l-10.11 8.9M475.489 140.4l-3.44 3.03M231.579 355.26l-3.02 2.66M158.069 420.02l-3.43 3.02M146.189 430.48l-3.03 2.67M400.419 206.53l-3.43 3.02M487.299 136.53l-10.11 8.91M231.579 361.8l-3.02 2.66M165.489 420.02l-3.43 3.02M147.909 435.51l-4.75 4.18M274.449 324.04l-3.44 3.03M407.839 206.53l-3.43 3.02M487.299 143.07l-10.11 8.91M231.579 368.34l-3.02 2.66M172.259 420.6l-2.77 2.44M136.449 452.14l-.09.08M166.969 425.26l-3.02 2.66M146.189 443.56l-3.03 2.67M155.329 435.51l-3.44 3.03M415.259 206.53l-3.42 3.02M487.299 149.61l-10.11 8.91M231.579 374.88l-3.02 2.66M166.969 431.8l-3.02 2.66M146.189 450.1l-5.74 5.06M139.379 456.1l-3.03 2.67M162.749 435.51l-3.44 3.03M422.689 206.53l-3.43 3.02M487.299 156.15l-10.11 8.91M139.379 462.63l-3.06 2.7M146.189 456.63l-3.03 2.67M166.969 438.33l-.24.21M231.579 381.41l-2.78 2.45M361.049 267.36l-1.75 1.54M430.109 206.53l-3.43 3.02M487.299 162.69l-10.11 8.9M139.379 469.17l-3.09 2.73M146.189 463.17l-3.03 2.67M69.489 530.74l-3.43 3.02M437.529 206.53l-3.43 3.02M368.479 267.36l-3.44 3.03M487.299 169.22l-10.11 8.91M375.899 267.36l-3.44 3.03M444.949 206.53l-3.43 3.02M202.599 420.02l-3.33 2.93M146.189 469.71l-3.03 2.67M76.909 530.74l-3.43 3.02M139.379 475.71l-3.11 2.74M487.299 175.76l-10.11 8.91M383.319 267.36l-3.44 3.03M452.369 206.53l-3.43 3.02M210.019 420.02l-3.75 3.31M146.189 476.25l-6.08 5.36M84.339 530.74l-3.43 3.02M150.719 472.26l-3.02 2.66M487.299 182.31l-10.11 8.9M390.749 267.36l-3.44 3.03M459.799 206.53l-3.43 3.02M89.589 532.65l-1.26 1.11M217.449 420.02l-3.43 3.02M150.719 478.8l-3.02 2.66M146.189 482.79l-3.03 2.67M209.289 427.21l-3.02 2.66M487.299 188.84l-10.11 8.91M398.169 267.36l-3.44 3.03M467.219 206.53l-3.43 3.02M231.089 414.54l-2.53 2.23M224.869 420.02l-3.43 3.02M150.719 485.34l-3.02 2.66M146.189 489.33l-3.03 2.67M209.289 433.75l-3.02 2.66M487.299 195.38l-10.11 8.9M405.589 267.36l-3.44 3.03M474.639 206.53l-3.43 3.02M232.289 420.02l-3.43 3.02M150.719 491.87l-3.02 2.66M146.189 495.86l-3.03 2.67M209.289 440.28l-3.02 2.66M487.299 201.91l-10.11 8.91M413.009 267.36l-3.44 3.03M239.329 420.35l-3.05 2.69M209.289 446.82l-3.02 2.66M146.189 502.4l-3.03 2.67M150.719 498.41l-2.38 2.1M487.299 208.46l-10.11 8.9M420.429 267.36l-3.43 3.03M121.449 530.74l-3.43 3.02M209.289 453.36l-3.02 2.66M146.189 508.94l-3.03 2.67M487.299 215l-10.11 8.9M421.269 273.16l-3.02 2.66M427.859 267.36l-3.44 3.03M209.289 459.9l-3.02 2.66M128.869 530.74l-3.43 3.02M146.189 515.48l-3.03 2.67M487.299 221.53l-10.11 8.91M424.549 276.81l-3.54 3.12M435.279 267.36l-3.44 3.03M209.289 466.44l-3.02 2.66M136.289 530.74l-3.42 3.02M146.189 522.02l-3.03 2.67M487.299 228.07l-10.11 8.91M431.969 276.81l-3.42 3.02M442.699 267.36l-3.44 3.03M209.289 472.98l-3.02 2.66M146.189 528.56l-5.9 5.2M487.299 234.61l-10.11 8.91M439.399 276.81l-3.43 3.02M449.229 268.15l-3.02 2.66M276.829 420.02l-3.43 3.02M209.289 479.52l-3.02 2.66M151.139 530.74l-3.43 3.02M487.299 241.15l-10.11 8.9M449.229 274.68l-5.84 5.15M209.289 486.05l-3.02 2.66M158.559 530.74l-3.43 3.02M487.299 247.69l-10.11 8.9M454.239 276.81l-3.43 3.02M209.289 492.59l-3.02 2.66M165.979 530.74l-3.43 3.02M487.299 254.22l-10.11 8.91M461.659 276.81l-3.43 3.02M209.289 499.13l-3.02 2.66M173.399 530.74l-3.42 3.02M487.299 260.76l-10.11 8.91M469.079 276.81l-3.43 3.02M209.289 505.67l-3.02 2.66M180.829 530.74l-3.43 3.02M487.299 267.31l-10.11 8.9M476.509 276.81l-5.74 5.06M209.289 512.21l-3.02 2.66M188.249 530.74l-3.43 3.02M487.299 273.84l-10.11 8.91M473.789 285.74l-3.02 2.66M209.289 518.75l-3.02 2.66M195.679 530.74l-3.43 3.02M487.299 280.38l-10.11 8.9M473.789 292.28l-3.02 2.66M453.169 310.44l-3.94 3.47M209.289 525.28l-3.02 2.66M203.089 530.74l-3.43 3.02M487.299 286.91l-10.11 8.91M460.589 310.44l-3.42 3.02M473.789 298.82l-3.02 2.66M452.259 317.78l-3.03 2.67M66.389 657.7l-1.26 1.11M210.509 530.74l-3.43 3.02M487.299 293.46l-10.11 8.9M468.019 310.44l-3.43 3.02M473.789 305.36l-3.02 2.66M73.809 657.7l-8.68 7.65M217.939 530.74l-3.43 3.02M487.299 300l-10.11 8.9M475.439 310.44l-3.42 3.02M81.239 657.7l-10.72 9.44M225.359 530.74l-3.43 3.02M487.299 306.53l-10.11 8.91M231.959 531.47l-2.6 2.29M88.659 657.7l-10.71 9.44M487.299 313.07l-10.11 8.91M96.089 657.7l-10.72 9.44M487.299 319.6l-5.03 4.44M103.499 657.7l-10.72 9.44M110.919 657.7l-10.71 9.44M118.349 657.7l-10.72 9.44M125.769 657.7l-10.71 9.44M133.189 657.7l-10.71 9.44M140.619 657.7l-10.72 9.44M148.039 657.7l-10.71 9.44M155.459 657.7l-10.72 9.44M162.879 657.7l-10.71 9.44M170.299 657.7l-10.71 9.44M177.729 657.7l-10.72 9.44M185.149 657.7l-10.71 9.44M192.579 657.7l-10.72 9.44M199.989 657.7l-10.72 9.44M207.419 657.7l-10.72 9.44M214.839 657.7l-10.72 9.44M222.259 657.7l-10.72 9.44M229.679 657.7l-10.71 9.44M237.109 657.7l-10.72 9.44M244.519 657.7l-10.71 9.44M251.949 657.7l-10.72 9.44M259.369 657.7l-10.72 9.44M266.789 657.7l-10.71 9.44M274.219 657.7l-10.72 9.44M277.299 661.52l-6.37 5.62"/></g>
        <path class="st6"
              d="M487.281 209.476V324.14h-10.108v-10.58h-3.404v-.001h-21.535v10.58h-3.023v-13.603h21.536l.001-30.607H421.25v.099h-3.023v-9.546H359.28v-3.023h89.93v9.447h27.963v-67.26H358.524v-3.023h118.649V143.52h-71.416v-3.023h71.416V21.661h10.108v187.815zM269.537 420.117v1.511h.454v1.512h7.292v-3.023h-7.746zM65.014 423.14v-3.023h107.223v1.511h-.453v1.512h-4.837v15.492h-20.782v31.741h4.535l-.001 30.229h-4.534v30.229h60.08V423.14h-6.993v-1.512h-.454v-1.511h29.741v-5.026h1.512v-.453h1.511v5.479h7.746v1.511h-.454v1.512h-29.586v107.691h22.672v3.023H116.774v-1.512h.454v-1.511h25.914v-49.122h-6.898c0-9.723.097-19.632.097-29.474h6.801V423.14H65.014zm412.159-112.603V279.93h-3.4l-.003 30.607h3.403zM277.284 657.793v9.446H65.113v-9.446h212.171zm168.904-387.31H421.25v6.424h24.939v-6.424h-.001zM228.54 21.661h3.023v159.647h72.55v-22.672h8.615v1.511h.453v1.512h-6.045v74.061h-23.352v-1.512h-.454v-1.511h20.783v-48.366h-72.55v48.366h24.561v1.511h-.453v1.512H228.54V95.722h-18.893V51.89h18.893V21.661zm3.022 305.502h7.292v-1.512h.454v-1.511h-7.746v-42.321h-20.027v22.672H65.113v3.023H228.54v76.442h1.512v.453h1.511v-57.246h-.001zm45.722 0h-6.538v-1.512h-.453v-1.511h6.991v3.023zM65.115 533.854v-3.023h24v1.511h.454v1.512H65.115zm81.051-36.275h1.511v-24.183h-1.511v24.183zm-6.802-18.893h3.779v-23.428h-3.779v23.428zm6.802-55.546v12.469h17.76V423.14h-17.76zm82.374-118.649v-19.649h-13.981v19.649h13.981zm119.782-145.855v3.023h-4.157v-1.512h.454v-1.511H348.322zM228.54 92.699V54.913h-15.87v37.786h15.87z"/></g>
    <g id="sizes"><path class="st9" d="M72.873 526.5a2.75 2.75 0 01-1.086-.977c-.279-.427-.465-.939-.559-1.539v-.008h1.594v.008c.057.417.224.741.5.973.276.232.635.348 1.078.348.51 0 .905-.17 1.184-.512.278-.341.418-.821.418-1.441v-.953c0-.614-.14-1.092-.418-1.434-.279-.341-.673-.512-1.184-.512-.276 0-.542.078-.797.234a2.237 2.237 0 00-.672.656h-1.453v-5.984h5.789v1.516h-4.195v2.555a2.275 2.275 0 011.414-.508c.656 0 1.217.136 1.684.406.466.271.82.667 1.063 1.188.242.521.363 1.148.363 1.883v.953c0 .734-.125 1.362-.375 1.883-.25.521-.615.918-1.094 1.191-.479.273-1.055.41-1.727.41-.573 0-1.082-.112-1.527-.336zM79.783 525.125h1.594v1.594l-1.594 1.578v-3.172zM85.208 526.5a2.75 2.75 0 01-1.086-.977c-.278-.427-.465-.939-.559-1.539v-.008h1.594v.008c.058.417.224.741.5.973.276.232.636.348 1.078.348.511 0 .905-.17 1.184-.512.278-.341.418-.821.418-1.441v-.953c0-.614-.14-1.092-.418-1.434-.278-.341-.673-.512-1.184-.512-.276 0-.542.078-.797.234s-.479.375-.672.656h-1.453v-5.984h5.789v1.516h-4.195v2.555a2.275 2.275 0 011.414-.508c.656 0 1.218.136 1.684.406.466.271.82.667 1.063 1.188.242.521.363 1.148.363 1.883v.953c0 .734-.125 1.362-.375 1.883-.25.521-.614.918-1.094 1.191s-1.055.41-1.727.41c-.573 0-1.082-.112-1.527-.336zM136.271 146.473l-.727-.348c-.485-.232-.874-.567-1.168-1.008s-.48-.97-.559-1.59h1.625c.047.323.148.589.305.797s.358.363.605.465.538.152.871.152c.526 0 .935-.141 1.227-.422s.438-.677.438-1.188v-.344c0-.567-.138-1.007-.414-1.316s-.667-.465-1.172-.465h-.805v-1.516h.805c.442 0 .786-.133 1.031-.398s.367-.641.367-1.125v-.352c0-.448-.129-.794-.387-1.039s-.624-.367-1.098-.367c-.271 0-.513.051-.727.152s-.395.258-.543.469-.257.476-.324.793h-1.617c.104-.62.301-1.151.59-1.594s.655-.778 1.098-1.008.95-.344 1.523-.344c.979 0 1.737.258 2.273.773s.805 1.242.805 2.18v.188c0 .567-.153 1.063-.461 1.484s-.742.729-1.305.922c.62.136 1.101.44 1.441.914s.512 1.078.512 1.813v.188c0 .661-.128 1.227-.383 1.695s-.626.825-1.113 1.07-1.074.367-1.762.367l-.951.002zM145.489 146.356h-1.594v-9.625l-1.617.992v-1.648l1.617-1.078h1.594v11.359zM147.911 144.762h1.594v1.594l-1.594 1.578v-3.172zM151.536 143.231l3.813-8.227h1.641l-3.719 8.133h5.57v1.477h-7.305v-1.383zm4.899-3.555h1.555v6.688h-1.555v-6.688zM237.675 225.693l3.961-5.281c.229-.302.407-.615.535-.941.127-.325.191-.629.191-.91v-.016c0-.453-.133-.805-.398-1.055s-.644-.375-1.133-.375c-.464 0-.839.137-1.125.41-.287.273-.461.66-.523 1.16v.008h-1.648v-.008c.094-.65.285-1.207.574-1.668s.662-.813 1.121-1.055c.458-.242.986-.363 1.586-.363.677 0 1.255.116 1.734.348.479.232.844.569 1.094 1.012.25.443.375.977.375 1.602v.008c0 .401-.084.82-.25 1.258a5.417 5.417 0 01-.695 1.266l-3.289 4.469h4.297v1.516h-6.406v-1.385zM245.956 225.482h1.594v1.594l-1.594 1.578v-3.172zM251.722 227.193l-.727-.348a2.857 2.857 0 01-1.168-1.008c-.295-.439-.48-.97-.559-1.59h1.625c.047.323.148.589.305.797.156.209.357.363.605.465.247.102.537.152.871.152.525 0 .935-.141 1.227-.422.291-.281.438-.677.438-1.188v-.344c0-.567-.139-1.006-.414-1.316-.276-.31-.667-.465-1.172-.465h-.805v-1.516h.805c.442 0 .786-.133 1.031-.398.244-.266.367-.641.367-1.125v-.352c0-.447-.129-.794-.387-1.039-.258-.244-.624-.367-1.098-.367a1.68 1.68 0 00-.727.152c-.214.102-.395.258-.543.469s-.257.476-.324.793h-1.617c.104-.619.301-1.15.59-1.594a2.886 2.886 0 011.098-1.008c.442-.229.95-.344 1.523-.344.979 0 1.736.258 2.273.773.536.516.805 1.242.805 2.18v.188c0 .568-.154 1.063-.461 1.484-.308.422-.742.729-1.305.922.619.136 1.1.44 1.441.914.341.475.512 1.078.512 1.813v.188c0 .662-.128 1.227-.383 1.695a2.53 2.53 0 01-1.113 1.07c-.487.245-1.074.367-1.762.367l-.951.002zM184.275 493.363l3.813-8.227h1.641l-3.719 8.133h5.57v1.477h-7.305v-1.383zm4.898-3.555h1.555v6.688h-1.555v-6.688zM193.376 494.894h1.594v1.594l-1.594 1.578v-3.172zM199.9 496.488h-1.594v-9.625l-1.617.992v-1.648l1.617-1.078h1.594v11.359zM238.711 153.005h-1.594v-9.625l-1.617.992v-1.648l1.617-1.078h1.594v11.359zM241.117 151.622l3.961-5.281c.229-.302.407-.615.535-.941.128-.325.191-.629.191-.91v-.016c0-.453-.133-.805-.398-1.055s-.644-.375-1.133-.375c-.464 0-.839.137-1.125.41s-.461.66-.523 1.16v.008h-1.648v-.008c.094-.65.285-1.207.574-1.668s.663-.813 1.121-1.055.987-.363 1.586-.363c.677 0 1.255.116 1.734.348.479.232.844.569 1.094 1.012.25.443.375.977.375 1.602v.008c0 .401-.083.82-.25 1.258s-.398.859-.695 1.266l-3.289 4.469h4.297v1.516h-6.406v-1.385zM249.399 151.412h1.594v1.594l-1.594 1.578v-3.172zM253.008 151.622l3.961-5.281c.229-.302.407-.615.535-.941.128-.325.191-.629.191-.91v-.016c0-.453-.133-.805-.398-1.055s-.644-.375-1.133-.375c-.464 0-.839.137-1.125.41s-.461.66-.523 1.16v.008h-1.648v-.008c.094-.65.285-1.207.574-1.668s.663-.813 1.121-1.055.987-.363 1.586-.363c.677 0 1.255.116 1.734.348.479.232.844.569 1.094 1.012.25.443.375.977.375 1.602v.008c0 .401-.083.82-.25 1.258s-.398.859-.695 1.266l-3.289 4.469h4.297v1.516h-6.406v-1.385z"/>
        <g><path class="st9" d="M367.019 39.52h-1.594v-9.625l-1.617.992v-1.648l1.617-1.078h1.594V39.52zM371.241 39.301a2.758 2.758 0 01-1.086-.977c-.279-.427-.465-.94-.559-1.539v-.008h1.594v.008c.057.417.224.741.5.973.275.231.635.348 1.078.348.51 0 .904-.171 1.184-.512.278-.341.418-.821.418-1.441V35.2c0-.614-.14-1.093-.418-1.434-.279-.341-.674-.512-1.184-.512-.276 0-.542.078-.797.234a2.225 2.225 0 00-.672.656h-1.453V28.16h5.789v1.516h-4.195v2.555a2.262 2.262 0 011.414-.508c.656 0 1.217.136 1.684.406.466.271.82.667 1.063 1.188s.363 1.148.363 1.883v.953c0 .734-.125 1.362-.375 1.883s-.615.918-1.094 1.191c-.479.273-1.055.41-1.727.41-.573 0-1.081-.112-1.527-.336zM378.151 37.926h1.594v1.594l-1.594 1.578v-3.172zM383.917 39.637l-.727-.348a2.857 2.857 0 01-1.168-1.008c-.295-.44-.48-.97-.559-1.59h1.625c.047.323.148.589.305.797s.357.363.605.465c.247.102.537.152.871.152.525 0 .935-.141 1.227-.422.291-.281.438-.677.438-1.188v-.344c0-.567-.139-1.007-.414-1.316-.276-.31-.667-.465-1.172-.465h-.805v-1.516h.805c.442 0 .786-.133 1.031-.398.244-.266.367-.641.367-1.125v-.352c0-.448-.129-.794-.387-1.039s-.624-.367-1.098-.367a1.68 1.68 0 00-.727.152c-.214.102-.395.258-.543.469s-.257.476-.324.793h-1.617c.104-.62.301-1.151.59-1.594s.654-.778 1.098-1.008c.442-.229.95-.344 1.523-.344.979 0 1.736.258 2.273.773.536.516.805 1.242.805 2.18v.188c0 .567-.154 1.062-.461 1.484-.308.422-.742.729-1.305.922.619.136 1.1.44 1.441.914.341.474.512 1.078.512 1.813v.188c0 .661-.128 1.227-.383 1.695a2.536 2.536 0 01-1.113 1.07c-.487.245-1.074.367-1.762.367l-.951.002z"/></g>
        <g><path class="st9" d="M365.102 222.534l3.813-8.227h1.641l-3.719 8.133h5.57v1.477h-7.305v-1.383zm4.898-3.555h1.555v6.688H370v-6.688zM374.203 224.065h1.594v1.594l-1.594 1.578v-3.172zM383.852 215.721l-2.938 9.938h-1.695l2.938-9.844h-2.891v1.633h-1.594V214.3h6.18v1.421z"/></g>
        <g><path class="st9" d="M183.677 324.771h-1.594v-9.625l-1.617.992v-1.648l1.617-1.078h1.594v11.359zM186.083 323.388l3.961-5.281c.229-.302.407-.615.535-.941.127-.325.191-.629.191-.91v-.016c0-.453-.133-.805-.398-1.055s-.644-.375-1.133-.375c-.464 0-.839.137-1.125.41-.287.273-.461.66-.523 1.16v.008h-1.648v-.008c.094-.65.285-1.207.574-1.668s.662-.813 1.121-1.055c.458-.242.986-.363 1.586-.363.677 0 1.255.116 1.734.348.479.232.844.569 1.094 1.012.25.443.375.977.375 1.602v.008c0 .401-.084.82-.25 1.258a5.417 5.417 0 01-.695 1.266l-3.289 4.469h4.297v1.516h-6.406v-1.385zM194.364 323.177h1.594v1.594l-1.594 1.578v-3.172zM199.79 324.552a2.75 2.75 0 01-1.086-.977c-.279-.427-.465-.939-.559-1.539v-.008h1.594v.008c.057.417.224.741.5.973.275.232.635.348 1.078.348.51 0 .904-.17 1.184-.512.278-.341.418-.821.418-1.441v-.953c0-.614-.14-1.092-.418-1.434-.279-.341-.674-.512-1.184-.512-.276 0-.542.078-.797.234a2.225 2.225 0 00-.672.656h-1.453v-5.984h5.789v1.516h-4.195v2.555a2.262 2.262 0 011.414-.508c.656 0 1.217.136 1.684.406.466.271.82.667 1.063 1.188.242.521.363 1.148.363 1.883v.953c0 .734-.125 1.362-.375 1.883-.25.521-.615.918-1.094 1.191-.479.273-1.055.41-1.727.41-.573 0-1.082-.112-1.527-.336z"/></g>
        <g><path class="st9" d="M279.966 310.376l-.008.281c-.13.239-.327.415-.59.527s-.574.168-.934.168c-.542 0-1.019-.138-1.43-.414s-.73-.665-.957-1.168-.34-1.085-.34-1.746v-.008c0-.734.124-1.362.371-1.883s.609-.917 1.086-1.188 1.048-.406 1.715-.406 1.237.138 1.711.414.835.677 1.082 1.203.371 1.159.371 1.898v.008c0 .406-.052.84-.156 1.301a8.052 8.052 0 01-.539 1.578c-.031.07-.065.14-.102.207l-2.422 4.867h-1.719l2.861-5.639zm.074-.984c.273-.339.41-.815.41-1.43v-.008c0-.599-.137-1.063-.41-1.391s-.66-.492-1.16-.492c-.505 0-.895.164-1.168.492s-.41.794-.41 1.398v.008c0 .614.137 1.09.41 1.426s.663.504 1.168.504c.5.001.887-.168 1.16-.507zM283.997 314.423h1.594v1.594l-1.594 1.578v-3.172zM289.763 316.134l-.727-.348c-.485-.232-.874-.567-1.168-1.008s-.48-.97-.559-1.59h1.625c.047.323.148.589.305.797s.358.363.605.465.538.152.871.152c.526 0 .935-.141 1.227-.422s.438-.677.438-1.188v-.344c0-.567-.138-1.007-.414-1.316s-.667-.465-1.172-.465h-.805v-1.516h.805c.442 0 .786-.133 1.031-.398s.367-.641.367-1.125v-.352c0-.448-.129-.794-.387-1.039s-.624-.367-1.098-.367c-.271 0-.513.051-.727.152s-.395.258-.543.469-.257.476-.324.793h-1.617c.104-.62.301-1.151.59-1.594s.655-.778 1.098-1.008.95-.344 1.523-.344c.979 0 1.737.258 2.273.773s.805 1.242.805 2.18v.188c0 .567-.153 1.063-.461 1.484s-.742.729-1.305.922c.62.136 1.101.44 1.441.914s.512 1.078.512 1.813V313c0 .661-.128 1.227-.383 1.695s-.626.825-1.113 1.07-1.074.367-1.762.367l-.951.002z"/></g>
        <g><path class="st9" d="M369.033 320.134l-.727-.348c-.485-.232-.874-.567-1.168-1.008s-.48-.97-.559-1.59h1.625c.047.323.148.589.305.797s.358.363.605.465.538.152.871.152c.526 0 .935-.141 1.227-.422s.438-.677.438-1.188v-.344c0-.567-.138-1.007-.414-1.316s-.667-.465-1.172-.465h-.805v-1.516h.805c.442 0 .786-.133 1.031-.398s.367-.641.367-1.125v-.352c0-.448-.129-.794-.387-1.039s-.624-.367-1.098-.367c-.271 0-.513.051-.727.152s-.395.258-.543.469-.257.476-.324.793h-1.617c.104-.62.301-1.151.59-1.594s.655-.778 1.098-1.008.95-.344 1.523-.344c.979 0 1.737.258 2.273.773s.805 1.242.805 2.18v.188c0 .567-.153 1.063-.461 1.484s-.742.729-1.305.922c.62.136 1.101.44 1.441.914s.512 1.078.512 1.813V317c0 .661-.128 1.227-.383 1.695s-.626.825-1.113 1.07-1.074.367-1.762.367l-.951.002zM375.354 318.423h1.594v1.594l-1.594 1.578v-3.172zM380.354 319.732c-.474-.269-.835-.659-1.082-1.172s-.371-1.132-.371-1.855v-.008c0-.422.05-.864.148-1.328a7.568 7.568 0 01.641-1.82l2.469-4.891h1.719l-2.898 5.664.008-.281c.13-.245.32-.435.57-.57s.542-.203.875-.203c.589 0 1.094.133 1.516.398s.742.652.961 1.16.328 1.118.328 1.832v.008c0 .729-.124 1.354-.371 1.875s-.609.917-1.086 1.188-1.048.406-1.715.406-1.239-.135-1.712-.403zm2.879-1.598c.273-.313.41-.758.41-1.336v-.008c0-.636-.144-1.126-.43-1.473s-.695-.52-1.227-.52c-.474 0-.841.175-1.102.523s-.391.841-.391 1.477v.008c0 .578.137 1.022.41 1.332s.66.465 1.16.465c.506.001.896-.155 1.17-.468z"/></g>
        <g><path class="st9" d="M254.809 392.557l3.961-5.281c.229-.302.407-.615.535-.941.127-.325.191-.629.191-.91v-.016c0-.453-.133-.805-.398-1.055s-.644-.375-1.133-.375c-.464 0-.839.137-1.125.41-.287.273-.461.66-.523 1.16v.008h-1.648v-.008c.094-.65.285-1.207.574-1.668s.662-.813 1.121-1.055c.458-.242.986-.363 1.586-.363.677 0 1.255.116 1.734.348.479.232.844.569 1.094 1.012.25.443.375.977.375 1.602v.008c0 .401-.084.82-.25 1.258a5.417 5.417 0 01-.695 1.266l-3.289 4.469h4.297v1.516h-6.406v-1.385zM263.09 392.346h1.594v1.594l-1.594 1.578v-3.172zM270.895 388.299l-.008.281c-.131.24-.327.416-.59.527a2.375 2.375 0 01-.934.168c-.542 0-1.019-.138-1.43-.414-.412-.275-.73-.665-.957-1.168-.227-.502-.34-1.084-.34-1.746v-.008c0-.734.123-1.361.371-1.883a2.62 2.62 0 011.086-1.188c.477-.271 1.048-.406 1.715-.406.666 0 1.236.139 1.711.414a2.67 2.67 0 011.082 1.203c.247.526.371 1.159.371 1.898v.008c0 .406-.053.84-.156 1.301a8.052 8.052 0 01-.445 1.371l-.094.207c-.031.07-.065.14-.102.207l-2.422 4.867h-1.719l2.861-5.639zm.074-.984c.273-.338.41-.814.41-1.43v-.008c0-.599-.137-1.063-.41-1.391s-.66-.492-1.16-.492c-.506 0-.895.164-1.168.492s-.41.795-.41 1.398v.008c0 .615.137 1.09.41 1.426s.662.504 1.168.504c.5.001.886-.168 1.16-.507z"/></g>
        <g><path class="st9" d="M71.056 651.276l3.961-5.281c.229-.302.407-.616.535-.941.127-.325.191-.629.191-.91v-.016c0-.453-.133-.805-.398-1.055s-.644-.375-1.133-.375c-.464 0-.839.137-1.125.41-.287.273-.461.66-.523 1.16v.008h-1.648v-.008c.094-.651.285-1.207.574-1.668s.663-.813 1.121-1.055c.458-.242.987-.363 1.586-.363.677 0 1.255.116 1.734.348.479.231.844.569 1.094 1.012s.375.977.375 1.602v.008c0 .401-.083.82-.25 1.258a5.417 5.417 0 01-.695 1.266l-3.289 4.469h4.297v1.516h-6.406v-1.385zM81.478 652.776l-.727-.348a2.857 2.857 0 01-1.168-1.008c-.294-.44-.48-.97-.559-1.59h1.625c.047.323.148.589.305.797s.358.363.605.465c.247.102.538.152.871.152.526 0 .934-.141 1.226-.422s.438-.677.438-1.188v-.344c0-.567-.138-1.007-.414-1.316s-.667-.465-1.171-.465h-.805v-1.516h.805c.442 0 .786-.133 1.031-.398s.367-.641.367-1.125v-.352c0-.448-.129-.794-.387-1.039s-.624-.367-1.097-.367c-.271 0-.513.051-.727.152-.214.102-.395.258-.543.469s-.257.476-.324.793h-1.617c.104-.62.301-1.151.59-1.594s.655-.778 1.098-1.008c.442-.229.95-.344 1.523-.344.979 0 1.737.258 2.273.773s.805 1.242.805 2.18v.188c0 .567-.153 1.063-.461 1.484s-.742.729-1.305.922c.62.136 1.101.44 1.441.914s.512 1.078.512 1.813v.188c0 .661-.128 1.227-.383 1.695s-.626.825-1.113 1.07-1.074.367-1.761.367l-.953.002zM87.798 651.065h1.594v1.594l-1.594 1.578v-3.172zM97.446 642.721l-2.938 9.938h-1.695l2.938-9.844H92.86v1.633h-1.594V641.3h6.18v1.421z"/></g>
        <g><path class="st9" d="M20.255 622.005a2.75 2.75 0 01-1.086-.977c-.279-.427-.465-.939-.559-1.539v-.008h1.594v.008c.057.417.224.741.5.973.276.232.635.348 1.078.348.51 0 .905-.17 1.184-.512.278-.341.418-.821.418-1.441v-.953c0-.614-.14-1.092-.418-1.434-.279-.341-.673-.512-1.184-.512-.276 0-.542.078-.797.234a2.237 2.237 0 00-.672.656H18.86v-5.984h5.789v1.516h-4.195v2.555a2.275 2.275 0 011.414-.508c.656 0 1.217.136 1.684.406.466.271.82.667 1.063 1.188.242.521.363 1.148.363 1.883v.953c0 .734-.125 1.362-.375 1.883-.25.521-.615.918-1.094 1.191-.479.273-1.055.41-1.727.41-.572 0-1.081-.112-1.527-.336zM27.166 620.63h1.594v1.594l-1.594 1.578v-3.172zM34.97 616.583l-.008.281c-.13.24-.327.416-.59.527a2.372 2.372 0 01-.934.168c-.542 0-1.019-.138-1.43-.414-.412-.275-.73-.665-.957-1.168-.227-.502-.34-1.084-.34-1.746v-.008c0-.734.124-1.361.371-1.883a2.62 2.62 0 011.086-1.188c.477-.271 1.048-.406 1.715-.406s1.237.139 1.711.414a2.67 2.67 0 011.082 1.203c.247.526.371 1.159.371 1.898v.008c0 .406-.052.84-.156 1.301a8.052 8.052 0 01-.445 1.371l-.094.207c-.031.07-.065.14-.102.207l-2.422 4.867h-1.719l2.861-5.639zm.075-.984c.273-.338.41-.814.41-1.43v-.008c0-.599-.137-1.063-.41-1.391s-.66-.492-1.16-.492c-.505 0-.895.164-1.168.492s-.41.795-.41 1.398v.008c0 .615.137 1.09.41 1.426s.663.504 1.168.504c.499.001.886-.168 1.16-.507z"/></g>
        <g><path class="st9" d="M18.966 261.115l3.961-5.281c.229-.302.407-.615.535-.941.127-.325.191-.629.191-.91v-.016c0-.453-.133-.805-.398-1.055s-.644-.375-1.133-.375c-.464 0-.839.137-1.125.41-.287.273-.461.66-.523 1.16v.008h-1.648v-.008c.094-.65.285-1.207.574-1.668s.663-.813 1.121-1.055c.458-.242.987-.363 1.586-.363.677 0 1.255.116 1.734.348.479.232.844.569 1.094 1.012.25.443.375.977.375 1.602v.008c0 .401-.083.82-.25 1.258a5.417 5.417 0 01-.695 1.266l-3.289 4.469h4.297v1.516h-6.406v-1.385zM27.248 260.904h1.594v1.594l-1.594 1.578v-3.172zM32.248 262.212a2.604 2.604 0 01-1.082-1.172c-.248-.513-.371-1.131-.371-1.855v-.008c0-.422.049-.864.148-1.328a7.673 7.673 0 01.532-1.597l.109-.223 2.469-4.891h1.719l-2.898 5.664.008-.281c.13-.244.32-.435.57-.57.25-.135.542-.203.875-.203.588 0 1.094.133 1.516.398s.742.652.961 1.16.328 1.119.328 1.832v.008c0 .729-.124 1.354-.371 1.875a2.62 2.62 0 01-1.086 1.188c-.477.271-1.048.406-1.715.406-.668 0-1.239-.134-1.712-.403zm2.879-1.597c.273-.313.41-.758.41-1.336v-.008c0-.635-.144-1.126-.43-1.473-.287-.346-.695-.52-1.227-.52-.474 0-.841.175-1.102.523-.261.35-.391.842-.391 1.477v.008c0 .578.137 1.022.41 1.332.273.311.66.465 1.16.465.506 0 .896-.156 1.17-.468z"/></g></g></svg>