<svg version="1.1" id="_x31_84_1_" xmlns="http://www.w3.org/2000/svg" x="0" y="0" viewBox="0 0 489.01 670.762" xml:space="preserve"><style>.st1{fill-rule:evenodd;clip-rule:evenodd;stroke:#999;stroke-width:.4;stroke-linecap:round;stroke-linejoin:round}.st1,.st2,.st3{fill:none;stroke-miterlimit:3}.st2{fill-rule:evenodd;clip-rule:evenodd;stroke-linecap:round;stroke-linejoin:round;stroke:#999}.st3{stroke:#000}.st4,.st5,.st7,.st8{fill-rule:evenodd;clip-rule:evenodd}.st5,.st7,.st8{fill:none}.st5{stroke:#000;stroke-miterlimit:3}.st7,.st8{stroke-miterlimit:22.9256}.st7{stroke-width:.6;stroke:#666}.st8{stroke:#000}</style><path fill-rule="evenodd" clip-rule="evenodd" fill="#fff" d="M285.009 440.555V.392H41.915v26.163H.384V216.93h41.531v151.437H.509v121.021h41.406v180.874h446.04V440.555z"/><g id="mebel"><path class="st1" d="M65.061 212.292h20.593m64.237 0h18.893M65.061 200.957h103.723M65.061 189.621h10.103m13.8 0h55.086m20.199 0h4.535M65.061 178.285h3.977m26.052 0h73.693M65.061 166.949h1.996m30.014 0h41.483m-73.493-11.336h2.75m28.507 0h42.237m-73.494-11.336h6.42m21.167 0h45.907m23.711 69.338v-21.671m0-11.072v-12.601m-22.672 36.653v-36.653m-22.672 36.653v-70.661M94.25 204.924v-24.025m0-32.813v-13.823m-22.671 79.352v-28.742m0-40.762v-9.848M472.198 501.58000000000004l1.511-1.511M465.252 501.58l2.799-2.799M458.305 501.58l9.746-9.746M451.358 501.58l13.216-13.216M444.411 501.58l12.396-12.396m-19.343 12.396l13.285-13.285m11.558-11.558l5.744-5.744m-37.534 30.587l16.806-16.806m8.671-8.67l12.057-12.057M423.57 501.58l39.332-39.331m-46.279 39.331l37.821-37.821m-44.769 37.822l37.823-37.822m-44.771 37.822l37.822-37.822m-44.769 37.822l37.822-37.822m-44.768 37.822l37.822-37.822m-43.813 36.866l36.866-36.867m-36.866 29.92l29.919-29.919M382.843 486.731l22.972-22.973M382.843 479.784l16.025-16.025m-16.025 9.08l9.079-9.08m-9.079 2.132l2.132-2.132m83.076 1.426l-2.938-2.936m2.938 9.883l-9.884-9.883M466.111 477.138l-13.38-13.379M458.344 476.318l-12.559-12.559m30.873 37.821l-1.511-1.511m-7.096-7.096l-4.501-4.501m-11.824-11.824l-12.889-12.889m30.874 37.821l-1.511-1.511m-.149-.148l-10.785-10.786m-9.527-9.528l-15.848-15.849m30.873 37.822l-37.821-37.821m30.875 37.821l-37.821-37.821M448.871 501.58l-37.821-37.821m30.874 37.821l-37.821-37.821m30.874 37.821l-37.822-37.821m-14.16-14.16l-.152-.152m45.187 52.133l-37.821-37.821m30.874 37.821l-37.926-37.926m-.21-.21l-.104-.104m31.292 38.24l-31.292-31.292M407.19 501.581l-24.348-24.347M400.243 501.581l-17.4-17.4M393.295 501.581l-10.452-10.452m3.506 10.452l-3.506-3.506"/><path class="st2" d="M87.656 598.657h28.391M117.18 599.79v28.391M116.046 629.315H87.655M86.522 628.181V599.79M77.126 638.71h38.92M117.18 637.577v-7.129M116.046 629.315H86.522M86.522 629.315v-29.524M85.389 598.657h-7.13M77.126 599.79v38.92M116.046 633.42h-33.63M82.417 633.42v-33.63M117.18 640.222H75.615M75.615 640.222v-41.565M117.18 640.222v-2.646M78.259 598.657h-2.644M85.389 598.657h2.267M117.18 630.448v-2.267M86.522 629.315l-9.396 9.396M116.046 598.657c.626 0 1.133.508 1.133 1.134M117.18 628.181c0 .626-.507 1.134-1.133 1.134M87.656 629.315a1.134 1.134 0 01-1.133-1.134M86.522 599.79c0-.626.507-1.134 1.133-1.134M117.18 637.577c0 .626-.507 1.134-1.133 1.134M116.046 629.315c.626 0 1.133.507 1.133 1.133M85.389 598.657c.626 0 1.134.508 1.134 1.134M77.126 599.79c0-.626.507-1.134 1.133-1.134M116.046 633.42c.626 0 1.133.508 1.133 1.134M81.283 598.657c.626 0 1.134.508 1.134 1.134M154.966 640.222H117.18M154.966 640.222v-2.646M117.18 640.222v-2.646M154.966 630.448v-2.267M117.18 630.448v-2.267M118.313 598.657h35.519M154.966 599.79v28.391M153.832 629.315h-35.519M117.18 628.181V599.79M118.313 638.71h35.519M154.966 637.577v-7.129M153.832 629.315h-35.519M117.18 630.448v7.129M153.832 633.42h-35.519M153.832 598.657c.626 0 1.133.508 1.133 1.134M154.966 628.181c0 .626-.507 1.134-1.133 1.134M118.313 629.315a1.134 1.134 0 01-1.134-1.134M117.18 599.79c0-.626.508-1.134 1.134-1.134M154.966 637.577c0 .626-.507 1.134-1.133 1.134M153.832 629.315c.626 0 1.133.507 1.133 1.133M117.18 630.448c0-.626.508-1.133 1.134-1.133M118.313 638.71a1.134 1.134 0 01-1.134-1.134M153.832 633.42c.626 0 1.133.508 1.133 1.134M117.18 634.554c0-.626.508-1.134 1.134-1.134M187.84 598.657h4.156M192.752 599.413v40.053M191.997 640.222h-4.157M187.084 639.466v-40.054M187.84 640.222h-32.875M154.966 640.222v-2.646M154.966 630.448v-2.267M156.1 598.657h29.851M187.084 599.79v28.391M185.951 629.315H156.1M154.966 628.181V599.79M156.1 638.71h29.851M187.084 637.577v-7.129M185.951 629.315H156.1M154.966 630.448v7.129M185.951 633.42H156.1M191.997 598.657c.417 0 .756.339.756.756M192.752 639.466a.756.756 0 01-.756.756M187.84 640.222a.757.757 0 01-.756-.756M187.084 599.413c0-.417.338-.756.756-.756M185.951 598.657c.626 0 1.134.508 1.134 1.134M187.084 628.181c0 .626-.508 1.134-1.134 1.134M156.1 629.315a1.134 1.134 0 01-1.134-1.134M154.966 599.79c0-.626.508-1.134 1.134-1.134M187.084 637.577c0 .626-.508 1.134-1.134 1.134M185.951 629.315c.626 0 1.134.507 1.134 1.133M154.966 630.448c0-.626.508-1.133 1.134-1.133M156.1 638.71a1.134 1.134 0 01-1.134-1.134M185.951 633.42c.626 0 1.134.508 1.134 1.134M154.966 634.554c0-.626.508-1.134 1.134-1.134M75.615 598.657v-37.786M75.615 598.657h2.644M75.615 560.871h2.644M85.389 598.657h2.267M85.389 560.871h2.267M117.18 562.004v35.519M116.046 598.657H87.655M86.522 597.523v-35.519M87.656 560.871h28.391M77.126 562.004v35.519M78.259 598.657h7.13M86.522 597.523v-35.519M85.389 560.871h-7.13M82.417 597.523v-35.519M117.18 597.523c0 .627-.507 1.134-1.133 1.134M87.656 598.657a1.133 1.133 0 01-1.133-1.134M86.522 562.004c0-.626.507-1.134 1.133-1.134M116.046 560.871c.626 0 1.133.508 1.133 1.134M78.259 598.657a1.133 1.133 0 01-1.133-1.134M86.522 597.523c0 .627-.508 1.134-1.134 1.134M85.389 560.871c.626 0 1.134.508 1.134 1.134M77.126 562.004c0-.626.507-1.134 1.133-1.134M82.417 597.523c0 .627-.507 1.134-1.134 1.134M81.283 560.871c.626 0 1.134.508 1.134 1.134M135.454 510.528v3.028m0 0h.859m0 0h17.176m0 0h.859m0 0v-3.028M154.348 516.983v-3.427m0 0h-.859m-.001 0v3.225m0 0h.058m.001 0l.293-.196m-.001 0l.343.086m.001 0l.165.312M153.546 519.342l.293-.196m0 0l.343.086m0 0l.165.313m0 0v-2.562m0 0l-.165-.313m0 0l-.343-.086m0 0l-.293.196m0 0h-17.291m0 0l-.293-.196m0 0l-.343.086m0 0l-.165.313m0 0v2.562m0 0l.165-.313m0 0l.343-.086m0 0l.293.196m0 0h17.291M135.454 516.983l.165-.312m0 0l.343-.086m0 0l.294.196m0 0h.057m0 0v-3.225m0 0h-.859m0 0v3.427M152.684 519.747h-15.566m0 0l1.004.227m0 .001h13.557m0 0l1.005-.227M153.546 519.747l.293.196m0 .001l.343-.086m0-.001l.165-.312m0 .001l-.165-.314m0 0l-.343-.086m0 0l-.293.197m0 0h-17.291m0 0l-.293-.197m0 0l-.343.086m0 0l-.165.314m0 0l.165.312m0-.001l.343.086m0 .001l.293-.196m0-.001h17.291M113.538 510.528v3.028m0 0h.858m0 0h17.176m0 0h.859m0 0v-3.028M132.43 516.983v-3.427m0 0h-.858m0 0v3.225m0 0h.057m.001 0l.294-.196m0 0l.342.086m0 0l.165.312M131.63 519.342l.293-.196m0 0l.343.086m0 0l.165.313m0 0v-2.562m0 0l-.165-.313m0 0l-.343-.086m0 0l-.293.196m0 0h-17.291m0 0l-.293-.196m0 0l-.343.086m0 0l-.165.313m0 0v2.562m0 0l.165-.313m0 0l.343-.086m0 0l.293.196m0 0h17.291M113.538 516.983l.165-.312m0 0l.342-.086m0 0l.294.196m0 0h.057m0 0v-3.225m0 0h-.858m0 0v3.427M130.767 519.747h-15.565m0 0l1.004.227m0 .001h13.557m0 0l1.004-.227M131.63 519.747l.293.196m0 .001l.343-.086m0-.001l.165-.312m0 .001l-.165-.314m0 0l-.343-.086m0 0l-.293.197m0 0h-17.291m0 0l-.293-.197m0 0l-.343.086m0 0l-.165.314m0 0l.165.312m0-.001l.343.086m0 .001l.293-.196m0-.001h17.291M135.454 476.52v-3.028m0 0h.859m0 0h17.176m0 0h.859m0 0v3.028M154.348 470.065v3.427m0 0h-.859m-.001 0v-3.224m0 0h.058m.001 0l.293.196m-.001 0l.343-.087m.001 0l.165-.312M153.546 467.706l.293.196m0-.001l.343-.086m0 .001l.165-.313m0 0v2.562m0 0l-.165.313m0 0l-.343.087m0 0l-.293-.196m0-.001h-17.291m0 0l-.293.196m0 .001l-.343-.087m0 0l-.165-.313m0 0v-2.562m0 0l.165.313m0 0l.343.086m0-.001l.293-.196m0 .001h17.291M135.454 470.065l.165.312m0 0l.343.087m0 0l.294-.196m0 0h.057m0 0v3.224m0 0h-.859m0 0v-3.427M152.684 467.3h-15.566m0 0l1.004-.227m0 0h13.557m0 0l1.005.227M153.546 467.3l.293-.196m0 0l.343.086m0 0l.165.312m0 0l-.165.314m0 0l-.343.086m0 0l-.293-.197m0 0h-17.291m0 0l-.293.197m0 0l-.343-.086m0 0l-.165-.314m0 0l.165-.312m0 0l.343-.086m0 0l.293.196m0 0h17.291M113.538 476.52v-3.028m0 0h.858m0 0h17.176m0 0h.859m0 0v3.028M132.43 470.065v3.427m0 0h-.858m0 0v-3.224m0 0h.057m.001 0l.294.196m0 0l.342-.087m0 0l.165-.312M131.63 467.706l.293.196m0-.001l.343-.086m0 .001l.165-.313m0 0v2.562m0 0l-.165.313m0 0l-.343.087m0 0l-.293-.196m0-.001h-17.291m0 0l-.293.196m0 .001l-.343-.087m0 0l-.165-.313m0 0v-2.562m0 0l.165.313m0 0l.343.086m0-.001l.293-.196m0 .001h17.291M113.538 470.065l.165.312m0 0l.342.087m0 0l.294-.196m0 0h.057m0 0v3.224m0 0h-.858m0 0v-3.427M130.767 467.3h-15.565m0 0l1.004-.227m0 0h13.557m0 0l1.004.227M131.63 467.3l.293-.196m0 0l.343.086m0 0l.165.312m0 0l-.165.314m0 0l-.343.086m0 0l-.293-.197m0 0h-17.291m0 0l-.293.197m0 0l-.343-.086m0 0l-.165-.314m0 0l.165-.312m0 0l.343-.086m0 0l.293.196m0 0h17.291M110.515 510.528v3.028m0 0h-.859m0 0H92.479m0 0h-.858m0 0v-3.028M91.621 516.983v-3.427m0 0h.858m0 0v3.225m0 0h-.057m.001 0l-.294-.196m-.001 0l-.342.086m0 0l-.165.312M92.423 519.342l-.294-.196m0 0l-.343.086m0 0l-.164.313m0 0v-2.562m0 0l.164-.313m0 0l.343-.086m0 0l.294.196m0 0h17.291m0 0l.293-.196m0 0l.343.086m0 0l.165.313m0 0v2.562m0 0l-.165-.313m0 0l-.343-.086m0 0l-.293.196m0 0H92.423M110.515 516.983l-.165-.312m-.001 0l-.343-.086m0 0l-.293.196m.001 0h-.058m0 0v-3.225m0 0h.859m0 0v3.427M93.285 519.747h15.565m0 0l-1.004.227m0 .001H94.29m0 0l-1.005-.227M92.423 519.747l-.294.196m0 .001l-.343-.086m0-.001l-.164-.312m0 .001l.164-.314m0 0l.343-.086m0 0l.294.197m0 0h17.291m0 0l.293-.197m0 0l.343.086m0 0l.165.314m0 0l-.165.312m0-.001l-.343.086m0 .001l-.293-.196m0-.001H92.423M110.515 476.52v-3.028m0 0h-.859m0 0H92.479m0 0h-.858m0 0v3.028M91.621 470.065v3.427m0 0h.858m0 0v-3.224m0 0h-.057m.001 0l-.294.196m-.001 0l-.342-.087m0 0l-.165-.312M92.423 467.706l-.294.196m0-.001l-.343-.086m0 .001l-.164-.313m0 0v2.562m0 0l.164.313m0 0l.343.087m0 0l.294-.196m0-.001h17.291m0 0l.293.196m0 .001l.343-.087m0 0l.165-.313m0 0v-2.562m0 0l-.165.313m0 0l-.343.086m0-.001l-.293-.196m0 .001H92.423M110.515 470.065l-.165.312m-.001 0l-.343.087m0 0l-.293-.196m.001 0h-.058m0 0v3.224m0 0h.859m0 0v-3.427M93.285 467.3h15.565m0 0l-1.004-.227m0 0H94.29m0 0l-1.005.227M92.423 467.3l-.294-.196m0 0l-.343.086m0 0l-.164.312m0 0l.164.314m0 0l.343.086m0 0l.294-.197m0 0h17.291m0 0l.293.197m0 0l.343-.086m0 0l.165-.314m0 0l-.165-.312m0 0l-.343-.086m0 0l-.293.196m0 0H92.423M477.119 501.58h-64.236m0 0v26.072m0 0h64.236m0 0V501.58M469.625 525.568l.93-.08m0 0l.901-.235m0 0l.846-.384m0 0l.763-.522m.001 0l.661-.642m-.001 0l.535-.744m.001 0l.394-.825m-.001 0l.241-.878m0 0l.083-.905m0 0v-11.472m0 0l-.083-.906m0 0l-.241-.878m0 0l-.394-.823m.001 0l-.535-.745m-.001 0l-.661-.643m.001 0l-.763-.521m-.001 0l-.846-.384m0 0l-.901-.235m0 0l-.93-.079m0 0h-43.36m.001 0l-1.952.166m-.001 0l-1.893.494m0 0l-1.775.806m0 0l-1.605 1.096m0 0l-1.386 1.349m0 0l-1.124 1.563m.001 0l-.828 1.731m0 0l-.508 1.843m-.001 0l-.17 1.902m.001 0l.17 1.901m-.001 0l.508 1.844m.001 0l.828 1.73m0 0l1.124 1.564m-.001 0l1.386 1.349m0 0l1.605 1.095m0 0l1.775.807m0 0l1.893.494m0 0l1.952.167m.001 0h43.36M468.996 514.617a.944.944 0 11-1.889 0 .944.944 0 011.889 0zM414.016 449.401h-30.607m0 0l-.4.166m0 0l-.167.4m0 0v13.226m0 0l.167.401m0 0l.4.166m0 0h30.607m0 0l.401-.166m.001 0l.166-.401m-.001 0v-13.226m0 0l-.166-.4m.001 0l-.401-.166M412.883 453.557h-13.717m-.907 0h-13.716M383.976 454.125v7.935M384.543 462.627h28.34M413.45 462.059v-7.935M383.976 454.125c0-.313.253-.567.567-.567M384.543 462.627a.567.567 0 01-.567-.567M413.45 462.059a.567.567 0 01-.566.567M412.883 453.557c.312 0 .566.254.566.567M399.469 456.34a.752.752 0 01-.302.604v-1.209a.757.757 0 01.302.605zm-1.21.604a.753.753 0 010-1.208v1.208zM398.26 449.93h.907m0 0v7.748m0 0l-.256.301m0 0h-.395m0 0l-.256-.301m0 0v-7.748M399.469 449.93h-1.511m0 0v-.265m0 0h1.511m0 0v.265M399.847 449.665h-2.267m-.001 0v-.265m0 0h2.267m.001 0v.265M401.982 451.29v-1.625m0 0h-.094m-.001 0v-.132m0 .001h-.283m0 0v-.134m0 0h1.889m0 0v.133m0 .001h-.283m0 0v.132m0-.001h-.095m0 0v1.625m0 0h-.322m0 0v.415m0 0h1.078m0 0v.492m0 .001h-2.645m0 0v-.492m0-.001h1.076m0 0v-.415m0 0h-.321M395.445 451.29v-1.625m0 0h.094m0 0v-.132m0 .001h.283m0 0v-.134m0 0h-1.889m0 0v.133m0 .001h.284m0 0v.132m0-.001h.094m0 0v1.625m0 0h.322m0 0v.415m0 0h-1.078m0 0v.492m0 .001h2.645m0 0v-.492m0-.001h-1.076m0 0v-.415m0 0h.321M402.794 451.705l-.072.072M402.303 451.705l.072.072M402.794 451.29h-.491M403.115 449.665h-1.134M401.887 449.534h1.323M394.632 451.705l.072.072M395.123 451.705l-.072.072M394.632 451.29h.491M394.311 449.665h1.134M395.539 449.534h-1.322M402.794 451.952a.246.246 0 11-.492 0 .246.246 0 01.492 0zM395.123 451.952a.246.246 0 11-.492 0 .246.246 0 01.492 0zM453.059 489.073l-1.645-.469m0 0l-1.551-.719m0 0l-1.231-.967m0 0l-.942-1.248m0 0l-.594-1.449m0 0l-.205-1.55m0 0l.205-1.551m0 0l.594-1.448m0 0l.942-1.248m0 0l1.231-.968m0 0l1.551-.719m0 0l1.645-.469m0 0l1.698-.207m0 0l1.709.06m0 0l11.585 1.223m0 0v10.654m0 0l-11.585 1.222m0 0l-1.709.06m0 0l-1.698-.207M462.33 478.553v4.117M462.33 482.67v4.116M447.176 482.67a5.73 5.73 0 01.887-3.063M448.063 479.607c1.723-2.217 4.238-3.413 6.83-3.248M454.893 476.359c2.608-.07 5.184.689 7.437 2.194M462.33 486.786c-2.253 1.506-4.828 2.266-7.437 2.195M454.893 488.982c-2.592.165-5.107-1.031-6.83-3.248M448.063 485.734a5.746 5.746 0 01-.887-3.063M468.051 478.023v9.295m0 0h-.189m0 0v-9.295m0 0h.189M468.051 492.117v-18.893M472.585 492.117v-18.893M468.051 492.117h4.534M468.051 473.224h4.534M149.257 192.81l-1.645-.469m0 0l-1.551-.718m0 0l-1.23-.968m0 .001l-.943-1.248m0-.001l-.594-1.448m0 .001l-.205-1.551m0-.001l.205-1.551m0 .001l.594-1.448m0-.001l.943-1.248m0 .001l1.23-.968m0 0l1.551-.718m0 0l1.645-.469m0-.001l1.698-.207m0 0l1.709.059m0 0l11.585 1.223m0 .001v10.654m0 0l-11.585 1.223m0-.001l-1.709.06m0 .001l-1.698-.208M158.528 182.292v4.117M158.528 186.409v4.116M143.374 186.409a5.738 5.738 0 01.887-3.063M144.261 183.345c1.723-2.217 4.238-3.414 6.829-3.249M151.09 180.097c2.61-.07 5.185.69 7.437 2.195M158.528 190.525c-2.253 1.506-4.828 2.266-7.437 2.195M151.091 192.72c-2.591.165-5.107-1.031-6.83-3.248M144.261 189.472a5.743 5.743 0 01-.887-3.063M164.249 181.761v9.295m0 0h-.188m0 0v-9.295m0 0h.188M164.249 195.855v-18.893M168.784 195.855v-18.893M164.249 195.855h4.535M164.249 176.962h4.535M121.78 261.092l-.004-.007M121.78 261.092v1.295M123.419 261.794l.194-.107M123.613 261.687l.138-.173M123.751 261.514l.061-.213M123.812 261.301l-.027-.219M123.786 261.082l-.11-.192M123.676 260.89l-.174-.137M123.502 260.753l-.214-.06M123.288 260.694l-.222.025M115.018 258.444l-1.901-.121M113.755 255.851h-.638M113.688 253.967l-.044-.217M113.644 253.751l-.124-.184M113.52 253.567l-.185-.122M113.336 253.445l-.218-.043M121.78 268.405v-6.018M121.78 262.387l1.639-.593M123.419 261.794l1.338-.431M124.757 261.364l.073-.143M124.83 261.221l-.281-.859M124.548 260.362l-.144-.073M124.405 260.289l-1.338.431M123.067 260.719l-1.291.366M121.776 261.085l-.655-1.053M121.12 260.033l-1.877-.898M119.243 259.134l-2.812-.601M116.432 258.534l-1.414-.09M115.018 258.444v-1.463M115.018 256.981v-1.13M115.018 255.851h-1.263M113.755 255.851l-.068-1.884M113.688 253.967v-1.395M113.688 252.573l-.114-.113M113.573 252.459h-.456M104.454 261.092l.004-.007M104.454 261.092v1.295M102.814 261.794l-.194-.107M102.62 261.687l-.138-.173M102.482 261.514l-.06-.213M102.422 261.301l.026-.219M102.448 261.082l.109-.192M102.557 260.89l.175-.137M102.732 260.753l.214-.06M102.946 260.694l.221.025M111.215 258.444l1.902-.121M112.479 255.851h.639M112.546 253.967l.043-.217M112.59 253.751l.124-.184M112.714 253.567l.185-.122M112.898 253.445l.22-.043M104.454 268.405v-6.018M104.454 262.387l-1.639-.593M102.814 261.794l-1.338-.431M101.476 261.364l-.073-.143M101.403 261.221l.282-.859M101.685 260.362l.144-.073M101.829 260.289l1.338.431M103.167 260.719l1.291.366M104.458 261.085l.655-1.053M105.113 260.033l1.878-.898M106.991 259.134l2.811-.601M109.802 258.534l1.414-.09M111.215 258.444v-1.463M111.215 256.981v-1.13M111.215 255.851h1.263M112.479 255.851l.068-1.884M112.546 253.967v-1.395M112.546 252.573l.114-.113M112.66 252.459h.458M123.669 265.082l-.116-2.154m0 .001l-.329-1.827m0-.001l-.494-1.221m0 0l-.582-.429m0 .001l-.582.429m0-.001l-.494 1.221m0 0l-.329 1.827m0 .001l-.116 2.154m0-.001l.116 2.154m0 0l.21 1.169m2.389 0l.211-1.169m0 0l.116-2.154M102.565 265.082l.115-2.154m0 .001l.33-1.827m0-.001l.493-1.221m0 0l.583-.429m0 .001l.582.429m0-.001l.493 1.221m0 0l.33 1.827m0 .001l.116 2.154m0-.001l-.116 2.154m0 0l-.211 1.169m-2.389 0l-.211-1.169m0 0l-.115-2.154M119.043 256.498l-1.813-.544M121.326 257.739l.301.412M120.584 257.142l.742.597M114.445 255.411l1.269.183M113.117 255.345l1.328.065M117.23 255.954l-1.516-.36M119.043 256.498l1.541.644M114.524 254.662l-1.407-.068M113.117 258.702l2.153.091M115.27 258.793l2.084.299M117.354 259.092l1.945.538M119.3 259.63l1.475.291M120.774 259.921l.672-.441M121.447 259.48l.192-.671M121.639 258.809l.034-.397M121.673 258.412l-.046-.262M121.627 258.151v-.461M121.627 257.69l-.301-.412M121.326 257.278l-1.18-1.107M120.147 256.17l-.959-.418M119.188 255.752l-1.198-.442M117.99 255.31l-1.819-.413M116.17 254.897l-1.646-.234M107.19 256.498l1.813-.544M104.908 257.739l-.301.412M105.65 257.142l-.742.597M111.789 255.411l-1.269.183M113.117 255.345l-1.329.065M109.003 255.954l1.516-.36M107.19 256.498l-1.541.644M111.71 254.662l1.407-.068M113.117 258.702l-2.154.091M110.963 258.793l-2.084.299M108.879 259.092l-1.945.538M106.934 259.63l-1.475.291M105.459 259.921l-.673-.441M104.786 259.48l-.192-.671M104.594 258.809l-.033-.397M104.561 258.412l.046-.262M104.607 258.151v-.461M104.607 257.69l.301-.412M104.908 257.278l1.178-1.107M106.086 256.17l.959-.418M107.045 255.752l1.199-.442M108.244 255.31l1.819-.413M110.063 254.897l1.647-.234M115.413 255.073l.757.126m0 0l.75.162m0 0l1.108.268m0 0l.105.138m-.001 0l-.01.273m.001 0l-.18.732m0 0l-.236.491m-.001 0l-.314.153m.001 0l-.923-.224m-.001 0l-.661-.142m.001 0l-.668-.112m0 0l-.672-.08m-.001 0l-.675-.049m.001 0l-.676-.015m0 0l-.678.015m-.001 0l-.674.049m.001 0l-.672.08m-.001 0l-.668.112m.001 0l-.661.142m0 0l-.924.224m0 0l-.314-.153m-.001 0l-.236-.491m.001 0l-.18-.732m0 0l-.009-.273m0 0l.104-.138m0 0l1.109-.268m-.001 0l.75-.162m.001 0l.757-.126m0 0l.762-.091m0 0l.766-.055m0 0l.768-.018m0 0l.767.018m-.001 0l.766.055m0 0l.762.091M83.309 476.52v34.008m0 0h79.352m0 0V476.52m0 0H83.309M150.903 268.405v26.072m0 0H90.445m0 0v-26.072m0 0h60.458M97.178 164.493l-.18-4.132m0 0l-.538-4.1m.001 0l-.892-4.039m0 0l-1.24-3.945m0 0l-1.577-3.823m0 0l-1.341-2.271m0 0l-1.646-2.062m-.001 0l-1.917-1.811m.001 0l-1.276-.921m0 0l-1.421-.679m0 0l-1.518-.416m0 0l-1.569-.141m0 0l-1.568.141m0 0l-1.518.416m0 0l-1.421.679m0 0l-1.277.921m0 0l-1.917 1.811m0 0l-1.645 2.062m-.001 0l-1.341 2.271m.001 0l-1.578 3.823m0 0l-1.239 3.945m0 0l-.892 4.039m0 0l-.538 4.1m0 0l-.18 4.132m0 0l.18 4.132m0 0l.538 4.1m0 0l.892 4.039m0 0l1.239 3.945m0 0l1.578 3.823m0 0l1.341 2.271m-.001 0l1.645 2.061m.001 0l1.917 1.812m0 0l1.277.92m0 0l1.421.679m0 0l1.518.417m0 0l1.568.14m0 0l1.569-.14m0 0l1.518-.417m0 0l1.421-.679m0 0l1.276-.92m0 0l1.917-1.812m-.001 0l1.646-2.061m.001 0l1.341-2.271m0 0l1.577-3.823m0 0l1.24-3.945m0 0l.892-4.039m0 0l.538-4.1m-.001 0l.18-4.132M168.784 213.615h-18.893m0 0v10.202m0 0h18.893m0 0v-1.512m0 0v-8.69M65.06 213.615v10.202m0 0h20.594m0 0v-10.202m0 0H65.06M412.883 501.58h-30.041m0 0v26.072m0 0h30.041m0 0V501.58M414.583 463.76h41.376m0 0v-14.359m0 0h-41.376m0 0v14.359M99.585 45.965l-6.947 6.947M91.034 52.912l-2.801-2.802M88.232 50.11l-1.603 1.604M86.629 51.713L68.995 34.079M68.995 34.079l1.603-1.604M70.598 32.476l-1.473-1.473M69.126 29.4l6.946-6.947M77.675 24.056l-6.947 6.947M84.996 31.377l-6.947 6.947M88.232 50.11L70.598 32.476M99.585 45.965l6.947-6.947M106.532 37.415l-2.802-2.802M103.729 34.613l1.603-1.603M105.332 33.01L87.698 15.375M87.699 15.376l-1.604 1.603M86.095 16.979l-1.473-1.473M83.019 15.506l-6.947 6.947M77.675 24.056l6.947-6.947M84.996 31.377l6.947-6.947M103.729 34.613L86.095 16.979M92.638 52.912a1.136 1.136 0 01-1.604 0M69.126 31.003a1.133 1.133 0 010-1.603M70.729 31.003a1.133 1.133 0 01-1.603 0M78.049 38.324a1.133 1.133 0 01-1.603 0M106.532 37.415c.443.442.443 1.16 0 1.603M83.019 15.506a1.136 1.136 0 011.604 0M84.622 15.506a1.135 1.135 0 010 1.603M91.943 22.827a1.133 1.133 0 010 1.603M99.585 71.532l-6.947-6.947M91.034 64.584l-2.801 2.803M88.232 67.387l-1.603-1.604M86.629 65.784L68.995 83.418M68.995 83.418l1.603 1.603M70.598 85.021l-1.473 1.473M69.126 88.097l6.946 6.947M77.675 93.441l-6.947-6.947M84.996 86.12l-6.947-6.947M88.232 67.387L70.598 85.021M99.585 71.532l6.947 6.947M106.532 80.081l-2.802 2.802M103.729 82.884l1.603 1.603M105.332 84.487l-17.634 17.635M87.699 102.122l-1.604-1.604M86.095 100.518l-1.473 1.473M83.019 101.991l-6.947-6.947M77.675 93.441l6.947 6.947M84.996 86.12l6.947 6.947M103.729 82.884l-17.634 17.634M91.034 64.584a1.136 1.136 0 011.604 0M69.126 88.097a1.133 1.133 0 010-1.603M69.126 86.494a1.133 1.133 0 011.603 0M76.446 79.173a1.133 1.133 0 011.603 0M106.532 78.478c.443.443.443 1.16 0 1.603M84.622 101.991a1.134 1.134 0 01-1.604 0M84.622 100.388c.442.442.442 1.16 0 1.603M91.943 93.067a1.134 1.134 0 010 1.604M78.767 328.551l.417.639m0 0l.36.681m0 0l.319.702m0 0l.295.699m0 0l.286.672m0 0l.295.62m-.001 0l.32.546m.001 0l.304.377m0 0l.227.302m0 0l.428.417m-.001 0l.542.384m0 0l.395.227m.001 0l.223.115m0 0l.433.208m-.001 0l.683.257m.001 0l.664.178m-.001 0l.142.023m.001 0l.457.068m0 0l1.147.034m0 0l1.112-.032m-.001 0l1.115-.099m.001 0l1.075-.172m0 0l.933-.218m0 0l.885-.271m0 0l.753-.332m-.001 0l.588-.395m.001 0l.346-.272m-.001 0l.383-.31m.001 0l.411-.359m-.001 0l.643-.614m.001 0l.411-.436m0 0l.4-.504m0 0l.375-.581m0 0l.34-.668m0 0l.294-.764m0 0l.222-.633m0 0l.17-.553m0 0l.127-.537m-.001 0l.092-.582m.001 0l.067-.689m0 0l.05-.858m-.001 0l.013-.347m0 0l.043-.735m.001 0l.055-1.378m0 0l.055-1.738m0 0l-.055-1.747m0 0l-.055-1.388m0 0l-.056-1.114m-.001 0l-.05-.862m.001 0l-.067-.692m0 0l-.092-.583m-.001 0l-.127-.538m.001 0l-.17-.554m0 0l-.222-.632m0 0l-.306-.766m0 0l-.346-.671m0 0l-.375-.586m0 0l-.395-.508m0 0l-.407-.44m0 0l-.353-.331m0 0l-.326-.322m-.001 0l-.414-.363m.001 0l-.388-.311m-.001 0l-.351-.264m.001 0l-.603-.389m0 0l-.755-.325m-.001 0l-.843-.267m.001 0l-.974-.233m0 0l-1.051-.157m0 0l-1.091-.087m0 0l-1.094-.021m0 0l-1.139.032m0 0l-.598.092m0 0l-.664.181m0 0l-.683.258m0 0l-.434.214m0 0l-.222.115m-.001 0l-.396.228m0 0l-.542.387m0 0l-.427.421m0 0l-.531.677m0 0l-.32.547m-.001 0l-.295.621m.001 0l-.286.671m0 0l-.294.697m0 0l-.32.703m0 0l-.36.68m0 0l-.417.638m0 0l-.092.108m-.001 0l.035-.211m.001 0l.122-.599m0 0l.255-1.02m0 0l.197-.908m-.001 0l.061-.512m.001 0l.094-.683m-.001 0l-.165-.424m0 0l-.122-.305m.001 0l-.327-.054m0 0l-.715-.06m0 0l-.46.005m-.001 0l-.748.235m0 0l-.93.559m0 0l-1.009.973m.001 0l-1.182 1.717m0 0l-.867 1.983m0 0l-.63 2.691m0 0l-.035.251m0 0l-.296 3.274m-.001 0l.292 3.278m0 0l.037.214m.001 0l.629 2.686m0 0l.865 1.972m-.001 0l1.186 1.675m0 0l1.008.965m0 0l.931.55m.001 0l.748.229m0 0l.46-.001m-.001 0l.716-.062m.001 0l.327-.054m0 0l.122-.306m-.001 0l.165-.422m0 0l-.155-1.186m0 0l-.197-.908m.001 0l-.311-1.326m-.001 0l-.092-.503m.001 0l.083.096M105.205 352.255l-.638-.418m0 0l-.682-.359m0 0l-.702-.32m0 0l-.699-.294m0 0l-.671-.287m0 0l-.621-.295m0 0l-.546-.319m0 0l-.377-.304m0 0l-.302-.227m0 0l-.417-.428m0 0l-.384-.543m0 0l-.226-.395m0 0l-.115-.222m0 0l-.208-.434m0 0l-.257-.683m0 0l-.179-.664m0 0l-.023-.141m0 0l-.068-.457m0 0l-.034-1.147m0 0l.032-1.113m0 0l.099-1.115m0 0l.172-1.074m0 0l.219-.934m0 0l.27-.885m0 0l.332-.753m0 0l.395-.587m0 0l.272-.346m0 0l.311-.384m0 0l.358-.41m0 0l.614-.643m0 0l.437-.412m0 0l.504-.399m0 0l.581-.375m0 0l.667-.34m0 0l.764-.294m0 0l.633-.222m0 0l.553-.17m0 0l.537-.127m0 0l.582-.092m0 0l.69-.068m0 0l.858-.049m0 0l.347-.013m0 0l.734-.043m0 0l1.378-.056m0 0l1.738-.054m0 0l1.747.054m0 0l1.389.056m0 0l1.113.056m0 0l.863.049m0 0l.691.068m0 0l.584.092m0 0l.537.127m0 0l.554.17m0 0l.632.222m0 0l.766.306m0 0l.671.345m0 0l.586.375m0 0l.508.396m0 0l.44.406m0 0l.331.354m0 0l.322.326m0 0l.364.414m0 0l.31.388m0 0l.264.35m0 0l.39.604m0 0l.325.755m0 0l.267.842m0 0l.232.975m0 0l.157 1.051m0 0l.087 1.091m0 0l.021 1.093m0 0l-.031 1.14m0 0l-.092.598m0 0l-.181.664m0 0l-.259.683m0 0l-.214.434m0 0l-.114.222m0 0l-.229.395m0 0l-.387.542m0 0l-.42.429m0 0l-.678.531m0 0l-.547.319m0 0l-.621.295m0 0l-.671.286m0 0l-.697.295m0 0l-.702.319m0 0l-.681.36m0 0l-.638.418m0 0l-.107.092m0 0l.21-.035m0 0l.599-.122m0 0l1.02-.255m0 0l.908-.198m0 0l.512-.06m0 0l.683-.095m0 0l.424.165m0 0l.306.122m0 0l.054.327m0 0l.059.715m0 0l-.004.46m0 0l-.236.748m0 0l-.558.931m0 0l-.974 1.009m0 0l-1.717 1.181m0 0l-1.982.868m0 0l-2.692.629m0 0l-.251.035m0 0l-3.273.296m0 0l-3.279-.292m0 0l-.213-.036m0 0l-2.687-.629m0 0l-1.972-.865m0 0l-1.674-1.185m0 0l-.966-1.009m0 0l-.55-.931m0 0l-.228-.748m0 0l.001-.46m0 0l.061-.717m0 0l.054-.327m0 0l.306-.122m0 0l.422-.165m0 0l1.186.155m0 0l.908.198m0 0l1.326.31m0 0l.503.092m0 0l-.096-.082M293.643 575.919l2.984 9.36M298.051 586.014l3.776-1.203M301.827 584.811l.689 2.16M302.516 586.971l23.76-7.574M326.276 579.397l-.688-2.16M325.588 577.237l1.984-.633M328.308 575.18l-2.983-9.36M323.164 566.508l2.984 9.36M313.3 569.653l2.984 9.36M301.827 584.811l23.761-7.574M293.643 575.919l-2.983-9.36M291.395 565.133l3.776-1.203M295.172 563.93l-.689-2.16M294.483 561.77l23.76-7.574M318.243 554.196l.688 2.16M318.931 556.356l1.986-.633M322.341 556.46l2.984 9.36M323.164 566.508l-2.983-9.36M313.3 569.653l-2.983-9.361M295.172 563.93l23.759-7.574M298.051 586.014a1.133 1.133 0 01-1.424-.735M328.308 575.18a1.133 1.133 0 01-.736 1.424M327.572 576.604a1.133 1.133 0 01-1.424-.735M317.708 579.748a1.134 1.134 0 01-1.424-.735M290.659 566.558a1.135 1.135 0 01.735-1.425M320.917 555.723c.596-.19 1.234.14 1.424.736M320.181 557.148a1.134 1.134 0 01.736-1.425M310.316 560.291a1.134 1.134 0 01.736-1.424M291.177 622.209l3.37-9.229M296.001 612.305l3.722 1.359M299.724 613.665l.777-2.13M300.501 611.535l23.425 8.554M323.927 620.088l-.778 2.13M323.149 622.218l1.957.715M325.782 624.387l-3.371 9.228M320.282 632.837l3.37-9.229M310.557 629.286l3.37-9.23M299.724 613.665l23.425 8.553M291.177 622.209l-3.37 9.229M288.483 632.891l3.723 1.359M292.206 634.25l-.778 2.13M291.428 636.38l23.425 8.554M314.853 644.934l.778-2.129M315.631 642.805l1.957.714M319.041 642.843l3.37-9.229M320.282 632.837l-3.37 9.229M310.557 629.286l-3.37 9.229M292.206 634.25l23.425 8.555M294.547 612.981a1.134 1.134 0 011.454-.676M325.106 622.933c.588.215.891.865.676 1.454M323.652 623.609a1.134 1.134 0 011.454-.676M313.927 620.057a1.134 1.134 0 011.454-.676M288.483 632.891a1.133 1.133 0 01-.676-1.453M319.041 642.843a1.133 1.133 0 01-1.454.676M317.588 643.519a1.133 1.133 0 01-.676-1.453M307.863 639.968a1.134 1.134 0 01-.676-1.454M168.784 134.263h-30.229M138.555 134.263v34.008M138.555 168.271h30.229M163.116 140.876a.945.945 0 11-1.89 0 .945.945 0 011.89 0zM155.8 152.703l-.372-1.397m0 0l-.793-1.208m0 0l-1.132-.898m0 0l-1.358-.496m0 0l-1.445-.043m0 0l-1.385.413m0 0l-1.185.829m0 0l-.863 1.159m0 0l-.455 1.372m0 0v1.445m0 0l.455 1.372m0 0l.863 1.16m0 0l1.185.828m0 0l1.385.414m0 0l1.445-.044m0 0l1.358-.496m0 0l1.132-.897m0 0l.793-1.209m0 0l.372-1.397m0 0h5.538m0 0l-.108.455m0 0l-.037.49m0 0l.037.488m0 0l.108.456m0 0l.172.392m0 0l.225.3m0 0l.261.188m0 0l.28.065m0 0h.403m0 0l.12-.019m0 0l.277-.064m0 0l.104-.055m0 0l.251-.181m0 0l.07-.078m0 0l.205-.274m0 0l.157-.357m0 0l.052-.195m0 0l.059-.25m0 0l.688-.019m0 0l.796-.01m0 0v1.728m0 0h.435m0 0v2.872m0 0l.058.16m0 0l.149.083m0 0l.167-.033m0 0l.105-.133m0 0l.157-.486m0 0l.315-.726m0 0l.574-1.007m0 0l.258-.73m0 0h.125m0 0v.605m0 0h.982m0 0v-2.569m0 0h-.877m0 0l-.038-.063m0 0l-.034-.032m0 0l-.041-.026m0 0l-.672-.278m0 0v-.697m0 0h1.36m0 0v1.058m0 0h.302m0 0v-3.023m0 0h-.302m0 0v1.058m0 0h-1.36m0 0v-1.436m0 0h-.152m0 0v-.416m0 0h.303m0 0v.152m0 0h.529m0 0v.604m0 0h.982m0 0v-2.57m0 0h-.982m0 0v.605m0 0h-.529m0 0v.151m0 0h-.303m0 0v-.151m0 0h-1.511m0 0v2.57m0 0h-2.154m0 0v.082m0 0v.094m0 0v.123m0 0v.15m0 0v.042m0 0H155.8M167.121 155.046v-.209m0 0l.341.14m0 0l.053.325m0 0l-.002.008m0 0h-.241m0 0v.152m0 0h-.302m0 0v-.416m0 0h.151M166.97 156.519h.241m0 0l-.24.677m0 .001l-.563.988m0-.001l-.023.052m0 .001v-1.566m0-.001h.585m0 0v-.151M167.801 150.663h-.529M167.801 149.982h-.529M167.801 156.32v.351M167.272 155.461v.189M167.272 155.65v.68M167.272 156.331v.015M167.448 155.65h-.176M167.277 156.331h-.005M166.97 156.519v-1.058M165.458 154.167v-.557M166.384 156.67h-.491M164.891 154.101v-.491M165.905 159.466l-.012.076M168.009 155.317l-.002-.047M167.976 155.487l.032-.17M167.925 154.772l-.01-.046M167.915 154.726l-.009-.02M167.677 156.67l.161-.453M167.837 156.218l.139-.73M167.504 155.362l.011-.06M165.905 159.466l.167-.512M166.072 158.955l.312-.718M167.82 156.26v-.001M168.007 155.27l-.082-.498M163.403 153.612l.001-.002M163.934 153.61l.001.002M166.574 155.046h.127M166.819 155.046h.103M166.701 155.046h.118M167.121 154.836v-.523M167.364 156.084l.14-.722M167.21 156.519l.154-.436M166.488 154.366h.108a.108.108 0 00-.108-.108.108.108 0 00-.108.108.108.108 0 00.216 0h-.108zM166.531 154.457l-.043-.091M166.547 154.555l-.016-.098M166.531 154.652l.017-.098M166.488 154.744l.044-.091M166.488 154.744h.108a.108.108 0 10-.216 0 .108.108 0 00.216 0h-.108zM163.991 154.9l.026-.345M164.017 154.555l-.026-.345M163.974 154.971l.017-.071M163.915 153.889l-.052-.196M163.991 154.21l-.076-.321M166.32 154.924l-.062.009M163.863 153.693l-.037-.083M163.974 154.139l.688.019M166.258 154.177l.062.009M166.32 154.186l.058.026M166.378 154.212l.049.042M166.428 154.254l.039.055M166.466 154.309l.021.056M166.487 154.366l.002.007M166.49 154.373l.007.068M166.498 154.441v.227M166.498 154.668l-.008.069M166.49 154.737l-.002.007M166.487 154.744l-.021.056M166.466 154.8l-.039.055M166.428 154.855l-.049.042M166.378 154.897l-.058.027M164.662 154.158l1.596.019M165.458 154.942l.801-.009M165.76 155.046v-.107M165.76 154.171v-.561M155.8 152.703h-5.343M155.8 153.61h-5.343M150.457 152.703v.907M167.801 149.643v1.36M167.272 149.794v1.057M166.97 149.794v1.057M166.97 151.267h-1.21M165.76 155.046h1.21M168.481 152.703v.907M167.121 152.703h-3.816M161.338 153.61h5.783M165.76 151.267v1.436M165.458 152.212v.491M164.891 152.212v.491M165.458 154.101h-1.493M153.122 153.61a1.89 1.89 0 110-.907M165.844 151.267a.34.34 0 11.589 0M85.654 204.924h64.237M85.654 223.817h64.237M149.891 204.924v18.893M85.654 204.924v18.893M93.022 208.136h17.382M110.404 208.136v12.469M110.404 220.605h-8.237m-.908 0h-8.237M93.022 220.605v-12.469M125.141 208.136h17.38M142.522 208.136v12.469M142.522 220.605h-8.237m-.907 0h-8.237M125.141 220.605v-12.469M102.847 217.812c0 .465-.28.864-.68 1.039v-2.079c.4.176.68.576.68 1.04zm-1.588 1.04a1.134 1.134 0 010-2.078v2.078zM134.965 217.812c0 .465-.279.864-.679 1.039v-2.078c.399.175.679.575.679 1.039zm-1.587 1.04a1.135 1.135 0 010-2.08v2.08zM102.166 223.288h-.907m.001 0v-7.749m0 0l.256-.3m0 0h.395m-.001 0l.256.3m0 0v7.749M100.957 223.288h1.512m0 0v.264m0 0h-1.512m0 0v-.264M100.579 223.552h2.267m.001 0v.265m0 0h-2.267m-.001 0v-.265M98.444 221.928v1.625m0 0h.095m0 0v.132m0 0h.283m0 0v.132m0 0h-1.889m0 0v-.132m0 0h.283m0 0v-.132m0 0h.094m0 0v-1.625m0 0h.322m0 0v-.416m0 0h-1.077m0 0v-.491m0 0H99.2m0 0v.491m0 0h-1.077m0 0v.416m0 0h.321M104.981 221.928v1.625m0 0h-.095m0 0v.132m0 0h-.283m0 0v.132m0 0h1.89m0 0v-.132m0 0h-.284m0 0v-.132m0 0h-.094m0 0v-1.625m0 0h-.322m0 0v-.416m0 0h1.078m0 0v-.491m0 0h-2.646m.001 0v.491m0 0h1.077m-.001 0v.416m0 0h-.321M134.285 223.288h-.907m0 0v-7.749m0 0l.256-.3m-.001 0h.395m.001 0l.256.3m0 0v7.749M133.076 223.288h1.511m0 0v.264m0 0h-1.511m0 0v-.264M132.698 223.552h2.267m0 0v.265m0 0h-2.267m0 0v-.265M130.563 221.928v1.625m0 0h.094m0 0v.132m0 0h.284m0 0v.132m0 0h-1.89m0 0v-.132m0 0h.283m0 0v-.132m0 0h.095m0 0v-1.625m0 0h.322m0 0v-.416m0 0h-1.078m0 0v-.491m0 0h2.645m0 0v.491m0 0h-1.076m0 0v.416m0 0h.321M137.099 221.928v1.625m0 0h-.094m.001 0v.132m0 0h-.283m0 0v.132m0 0h1.889m-.001 0v-.132m0 0h-.284m.001 0v-.132m0 0h-.094m0 0v-1.625m0 0h-.322m-.001 0v-.416m0 0h1.078m.001 0v-.491m0 0h-2.645m0 0v.491m0 0h1.076m0 0v.416m0 0h-.321M97.632 221.512l.072-.072M98.123 221.512l-.072-.072M97.632 221.928h.491M97.31 223.552h1.134M98.539 223.685h-1.323M105.794 221.512l-.072-.072M105.303 221.512l.072-.072M105.794 221.928h-.491M106.115 223.552h-1.134M104.887 223.685h1.323M129.75 221.512l.072-.072M130.242 221.512l-.072-.072M129.75 221.928h.492M129.429 223.552h1.134M130.657 223.685h-1.323M137.912 221.512l-.072-.072M137.421 221.512l.072-.072M137.912 221.928h-.491M138.233 223.552h-1.134M137.005 223.685h1.322M98.123 221.266a.246.246 0 11-.492 0 .246.246 0 01.492 0zM105.794 221.266a.246.246 0 11-.492 0 .246.246 0 01.492 0zM130.242 221.266a.246.246 0 11-.492 0 .246.246 0 01.492 0zM137.912 221.266a.246.246 0 11-.492 0 .246.246 0 01.492 0zM165.194 382.676h-19.271m0 0l-.534-.221m0 0l-.221-.535m0 0v-17.382m0 0l.221-.534m0 0l.534-.221m0 0h19.271m0 0l.535.221m0 0l.221.534m0 0v17.382m0 0l-.221.535m0 0l-.535.221M178.041 385.51h-44.965M178.041 362.838h-44.965M178.041 385.51v-22.672M133.076 385.51v-22.672M163.305 380.787h-15.494M147.057 380.031v-11.713M147.812 367.562h7.002m1.488 0h7.003M164.061 368.318v11.713M163.305 380.787h.108a.108.108 0 10-.216 0 .108.108 0 00.216 0h-.108zM147.812 380.787a.756.756 0 01-.755-.757M147.057 368.318c0-.418.338-.756.755-.756M163.305 367.562c.417 0 .756.338.756.756M164.061 380.031a.756.756 0 01-.756.757M155.898 372.394l-.1.24m0 0l-.241.099m0 0l-.24-.1m0 0l-.099-.24m0 0v-7.477m0 0l.099-.24m0 0l.241-.099m0 0l.24.099m0 0l.1.24m0 0v7.478M156.313 366.844h-.415m0 0v-1.928m0 0l-.099-.24m0 0l-.24-.1m0 0l-.241.1m0 0l-.1.24m0 0v1.928m0 0h-.414m0 0v-2.456m0 0h1.509m0 0v2.456M156.303 368.204h-.404m0 0v-1.322m0 0h.404m0 0v1.322M154.814 368.204v-1.322m0 0h.404m0 0v1.322m0 0h-.404M221.873 443.129v-21.916m0 0h-18.516m.001 0v21.916m0 0h18.516M210.593 432.171h-5.299M205.294 432.171v-1.097M210.593 432.171v-1.097M210.593 423.317h-5.299M205.294 424.413v-1.097M210.593 424.413v-1.097M210.467 438.417a2.74 2.74 0 11-5.479-.001 2.74 2.74 0 015.479.001zM219.935 437.146a3.968 3.968 0 11-7.935 0 3.968 3.968 0 017.935 0z"/><path class="st2" d="M218.234 437.146a2.268 2.268 0 11-4.536 0 2.268 2.268 0 014.536 0zM210.558 427.744a2.646 2.646 0 11-5.292-.002 2.646 2.646 0 015.292.002zM219.905 426.627a3.4 3.4 0 11-6.803-.001 3.4 3.4 0 016.803.001zM224.518 449.401v-69.526M200.713 449.401v-69.526M224.518 449.401h-23.805M224.518 379.874h-23.805M178.041 385.51h22.672m0 0v-22.672m0 0h-22.672m0 0v22.672M189.377 370.396v7.558M186.705 371.502l5.344 5.344M185.598 374.174h7.558M186.705 376.846l5.344-5.344M87.732 385.478h22.672M87.732 362.806h22.672M87.732 385.478v-22.672M110.404 385.478v-22.672M110.404 385.51h22.672M110.404 362.838h22.672M110.404 385.51v-22.672M133.076 385.51v-22.672M65.06 385.478h22.672M65.06 362.806h22.672M65.06 385.478v-22.672M87.732 385.478v-22.672M123.29 57.783c0 7.22-5.853 13.073-13.073 13.073-7.22 0-13.073-5.853-13.073-13.073 0-7.22 5.853-13.073 13.073-13.073 7.22 0 13.073 5.853 13.073 13.073zM121.651 320.57a9.445 9.445 0 01-9.447 9.446 9.445 9.445 0 01-9.446-9.446 9.446 9.446 0 019.446-9.446 9.446 9.446 0 019.447 9.446zM375.663 460.737a7.18 7.18 0 11-14.36 0 7.18 7.18 0 0114.36 0zM327.986 599.749c0 7.22-5.853 13.072-13.073 13.072-7.22 0-13.073-5.852-13.073-13.072 0-7.22 5.853-13.073 13.073-13.073 7.22-.001 13.073 5.852 13.073 13.073zM96.036 164.606c0 13.719-6.255 24.84-13.973 24.84-7.716 0-13.972-11.121-13.972-24.84s6.256-24.841 13.972-24.841c7.719 0 13.973 11.122 13.973 24.841z"/><path class="st2" d="M84.143 164.606a2.078 2.078 0 11-4.157 0 2.078 2.078 0 014.157 0zM121.994 376.116a3.41 3.41 0 11-6.822 0 3.41 3.41 0 016.822 0z"/><path class="st2" d="M121.473 376.116a2.89 2.89 0 11-5.78 0 2.89 2.89 0 015.78 0zM127.471 376.948a2.58 2.58 0 11-5.159 0 2.58 2.58 0 015.159 0z"/><path class="st2" d="M126.336 376.948a1.444 1.444 0 11-2.888 0 1.444 1.444 0 012.888 0zM471.451 547.645a3.778 3.778 0 11-7.557.001 3.778 3.778 0 017.557-.001z"/><path class="st2" d="M468.807 547.645a1.134 1.134 0 11-2.267 0 1.134 1.134 0 012.267 0zM471.451 636.444a3.778 3.778 0 11-7.556 0 3.778 3.778 0 017.556 0z"/><path class="st2" d="M468.807 636.444a1.134 1.134 0 11-2.267-.001 1.134 1.134 0 012.267.001zM147.986 19.393a3.78 3.78 0 11-7.558 0 3.78 3.78 0 017.558 0z"/><path class="st2" d="M145.341 19.393a1.134 1.134 0 11-2.267 0 1.134 1.134 0 012.267 0zM236.784 19.393a3.78 3.78 0 11-7.558 0 3.78 3.78 0 017.558 0z"/><path class="st2" d="M234.139 19.393a1.134 1.134 0 11-2.267 0 1.134 1.134 0 012.267 0zM222.614 89.297h-68.016m0 0V13.725m0 0h68.016m0 0v75.572M220.725 91.187h-64.237m0 0l-.723-.144m-.001 0l-.613-.409m.001 0l-.409-.613m-.001 0l-.144-.724m0 0h68.015m.001 0l-.143.724m-.001 0l-.41.613m.001 0l-.613.409m-.001 0l-.723.144M222.614 9.947h-68.016m0 0v3.778m0 0h68.016m0 0V9.947M154.598 9.947h68.016m0 0v1.889m0 0h-68.016m0 0V9.947M152.709 9.947h-17.004m0 0V28.84m0 0h17.004m0 0V9.947M224.503 9.947h17.004m0 0V28.84m0 0h-17.004m0 0V9.947M182.56 15.614h-25.694m0 0l-.267.111m0 0l-.111.267m0 0v12.47m0 0l.111.267m0 0l.267.111m0 0h25.694m0 0l.268-.111m0 0l.11-.267m0 0v-12.47m0 0l-.11-.267m0 0l-.268-.111M194.652 15.614h25.695m0 0l.267.111m0 0l.111.267m0 0v12.47m0 0l-.111.267m0 0l-.267.111m0 0h-25.695m0 0l-.267-.111m0 0l-.111-.267m0 0v-12.47m0 0l.111-.267m0 0l.267-.111M222.614 27.816h-1.889M194.274 27.816h-11.336M156.488 27.816h-1.89M222.614 32.826h-68.016m0 0v18.686m0 0l68.016-14.908m0 0v-3.778M397.768 626.052v-68.016m0 0h75.573m0 0v68.016m0 0h-75.573M395.879 624.162v-64.236m0 .001l.144-.723m0-.001l.409-.613m0 .001l.613-.41m.001-.001l.723-.144m-.001 0v68.016m0 .001l-.723-.144m.001 0l-.613-.41m-.001-.001l-.409-.612m0 0l-.144-.724M477.119 626.052v-68.016m0 0h-3.778m.001 0v68.016m0 0h3.778M477.119 558.036v68.016m0 .001h-1.89m.001 0v-68.016m0-.001h1.89M477.119 556.147v-17.004m0 0h-18.893m.001 0v17.004m0 0h18.893M477.119 627.941v17.004m0 0h-18.893m.001 0v-17.004m0 0h18.893M471.451 585.999v-25.694m0-.001l-.11-.268m.001.001l-.268-.11m0 0h-12.47m-.001 0l-.266.11m.001 0l-.111.268m0-.001v25.694m0 .001l.111.268m0-.001l.266.11m-.001 0h12.47m.001 0l.268-.11m0 0l.11-.268M471.451 598.09v25.694m0 0l-.11.268m.001 0l-.268.11m0 0h-12.47m-.001 0l-.266-.11m.001 0l-.111-.268m0 0V598.09m0 0l.111-.268m0 0l.266-.11m-.001 0h12.47m.001 0l.268.11m0 0l.11.268M459.25 626.052v-1.89M459.25 597.712v-11.336M459.25 559.926v-1.89M454.241 626.052v-68.016m0 0h-18.686m0 0l14.908 68.016m0 0h3.778M222.614 91.187h-68.016m0 0v12.786m0 0h68.016m0 0V91.187M200.335 226.84h22.672m0 0v83.508m0 0h-22.672m0 0V226.84M212.049 310.348h-.755m0 0V226.84m0 0h.755m0 0v83.508M202.328 234.277h18.626m0 0v.756m0 0h-18.626m0 0v-.756M202.328 236.282h18.626m0 0v.756m0 0h-18.626m0 0v-.756M202.328 238.286h18.626m0 0v.756m0 0h-18.626m0 0v-.756M202.328 240.291h18.626m0 0v.756m0 0h-18.626m0 0v-.756M202.463 244.537l18.491-2.241m0-.001l.091.75m0 0l-18.491 2.241m0 .001l-.091-.75M362.476 461.252l1.233-.448m0 0h1.312m0 0l1.234.448m0 0l1.473-.342m0 0h1.512m0 0l1.473.342m0 0l1.235-.449m0 0h1.314m0 0l1.235.449m0 0l-2.232-2.986m0 0h-7.558m0 0l-2.231 2.986M364.708 458.004h7.558m0 0v.262m0 0h-7.558m0 0v-.262M364.708 457.481h7.558m0 0v.262m0 0h-7.558m0 0v-.262M369.327 462.768l-.891.085m.001 0l-.022-.226m-.001 0l.477-.045m0 0l-1.383-1.142m0 0l.126-.152m.001 0l.642.529m0 0l.067-.081m0 0l-.74-.611m-.001 0l.121-.146m0 0l.74.61m.001 0l.08-.097m0 0l-.601-.496m0 0l.107-.13m0 0l.601.496m-.001 0l.081-.097m0 0l-.414-.343m.001 0l.115-.139m-.001 0l1.422 1.173M357.148 471.317h22.671m0 0v-21.916m0 0h-22.671m0 0v21.916M357.148 471.317h-23.995m0 0v-21.916m0 0h23.995m0 0v21.916M330.131 471.317v-21.916m0 0H277.23m0 0v21.916m0 0h52.901M277.23 460.359v.756m0 0h52.901m0 0v-.756m0 0H277.23M322.694 470.08v-18.626m0-.001h-.755m0 0v18.626m0 .001h.755M320.689 470.08v-18.626m0-.001h-.755m0 0v18.626m0 .001h.755M318.685 470.08v-18.626m0-.001h-.756m0 0v18.626m0 .001h.756M316.68 470.08v-18.626m0-.001h-.756m0 0v18.626m0 .001h.756M312.434 469.945l2.242-18.491m0 0l-.75-.091m0 0l-2.242 18.491m0 0l.75.091M67.011 176.68H75.3m0 0v.921m0 0h-8.289m0 0v-.921M67.011 177.601h1.316m0 0v3.026m0 0h-1.316m0 0v-3.026M65.06 213.615h20.594m0 0v10.202m0 0H65.06m0 0v-10.202M168.784 213.615h-18.893m0 0v10.202m0 0h18.893m0 0v-10.202M235.288 145.222v.755m0 0h-54.412m-.001 0l-.756-.755m0 0h55.168M218.404 137.012v18.626m0 0h-.755m0 0v-18.626m0 0h.755M216.399 137.012v18.626m0 0h-.756m0 0v-18.626m0 0h.756M214.395 137.012v18.626m0 0h-.755m-.001 0v-18.626m0 0h.755M212.39 137.012v18.626m0 0h-.756m0 0v-18.626m0 0h.756M208.144 137.147l2.242 18.491m0 0l-.751.091m0 0l-2.241-18.491m0 0l.75-.091M180.875 208.325h-.756m0 0v-63.103m0 0l.756.755m0 0v62.348M226.03 223.817h-36.464m0 0v-15.492m0 0h36.464m0 0v15.492M65.06 226.84h132.252m0 0v15.115m0 0H65.06m0 0V226.84M131.186 241.954H65.06m0 0V226.84m0 0h66.126m0 0v15.115M98.123 241.954H65.06m0 0V226.84m0 0h33.063m0 0v15.115M65.06 226.84l33.063 15.115m0 0V226.84m0 0L65.06 241.955M131.186 226.84l-33.063 15.115m0 0V226.84m0 0l33.063 15.115M131.186 226.84l33.063 15.115m0 0V226.84m0 0l-33.063 15.115M197.312 226.84l-33.063 15.115m0 0V226.84m0 0l33.063 15.115M382.843 527.653h30.041m0 0v-26.072m0 0h-30.041m0 0v26.072M455.959 463.76h-41.376m0 0v-14.359m0 0h41.376m0 0v14.359M114.514 378.323h.963m0 0v1.204m0 0h12.524m0 0v-1.204m0 0h.964M115.978 368.318h9.634m0 0v.479m0 0h-.723m0 0v-.238m0 0h-8.188m0 0v.238m0 0h-.723m0 0v-.479M115.978 368.796l.047.103m.047.103l.048.104m.047.102l.047.104m.047.103l.047.103m.047.103l.048.103m.047.103l.047.103m.047.103l.047.103m.047.103l.048.104m.046.102l.048.104m.047.102l.047.104m.047.103l.047.103m.048.103l.046.103m.048.104l.047.102m.047.104l.047.102m.047.104l.047.102m.048.104l.047.102m.047.104l.047.103M125.612 368.796l-.047.103m-.047.103l-.048.104m-.046.102l-.048.104m-.047.103l-.047.103m-.047.103l-.047.103m-.047.103l-.048.103m-.047.103l-.047.103m-.047.103l-.047.104m-.047.102l-.048.104m-.047.102l-.047.104m-.047.103l-.047.103m-.048.103l-.046.103m-.047.104l-.048.102m-.047.104l-.047.102m-.047.104l-.047.102m-.048.104l-.047.102m-.047.104l-.047.103M115.978 368.796h.078m.113 0h.114m.113 0h.113m.114 0h.078m0 0l.042.052m.071.088l.071.088m.072.087l.071.088m.072.088l.071.088m.072.088l.071.089m.071.088l.072.088m.071.088l.072.087m.071.088l.072.089m.071.088l.072.088m.071.088l.072.088m.071.088l.071.088m.072.087l.071.088m.072.088l.071.088m.072.089l.071.088m.071.088l.072.088m.071.088l.072.087m.071.089l.072.088m.072.088l.071.088m.071.088l.071.088m.072.088l.071.088m.072.087l.072.088m.071.088l.071.089m.072.088l.042.052M125.612 368.796h-.078m-.113 0h-.114m-.113 0h-.113m-.114 0h-.078m0 0l-.041.052m-.071.088l-.072.088m-.072.087l-.071.088m-.072.088l-.071.088m-.072.088l-.071.089m-.071.088l-.072.088m-.071.088l-.072.087m-.071.088l-.072.089m-.071.088l-.071.088m-.072.088l-.071.088m-.072.088l-.071.088m-.072.087l-.071.088m-.072.088l-.071.088m-.072.089l-.071.088m-.071.088l-.072.088m-.071.088l-.072.087m-.071.089l-.072.088m-.071.088l-.071.088m-.072.088l-.071.088m-.072.088l-.071.088m-.072.087l-.072.088m-.071.088l-.071.089m-.072.088l-.041.052M220.362 359.816h4.156m0 0v20.059m0 0h-4.156m0 0v-20.059M466.813 543.966l.86 3.679m0 0l3.431 1.584m0 0l-3.431-1.584m0 0l-3.546 1.306M466.813 640.123l.86-3.679m0 0l3.431-1.584m0 0l-3.431 1.584m0 0l-3.546-1.306M140.528 20.253l3.679-.86m0 0l1.584-3.431m0 0l-1.584 3.431m0 0l1.306 3.546M236.684 20.253l-3.679-.86m0 0l-1.584-3.431m0 0l1.584 3.431m0 0l-1.306 3.546M207.014 559.81l.743 1.187m0 0l.939.942m-.001 0l.613.4m.001 0l.712.294m0 0l.932.15m-.001 0l.942-.088m.001 0l.957-.339m0 0l.812-.597m-.001 0l.78-1.137m.001 0l.733-1.182m0 0l.846-.755m-.001 0l1.042-.451m0 0l.948-.127m.001 0l.839.044m0 0l.828.164M219.68 558.315l-.568-.865m0 0l-.687-.764m0 0l-.938-.7m0 0l-.905-.38m0 0l-.955-.152m0 0l-.956.09m0 0l-.908.345m0 0l-.468.294M213.295 556.183l.109-.415m0 0l.439-.426m0 0l.516-.246m0 0l.245-.051M214.604 555.045l-.986-.772m0 0l-1.036-.382m-.001 0l-1.109-.127m.001 0l-1.236.068m-.001 0l-.587.157m0 0l-.542.274m0 0l-.845.825m0 0l-.859 1.317m.001 0l-.755 1.629M206.649 558.035l.6-.597m0 0l1.21-.862m0 0l.457-.228m0 0l.491-.109m0 0l.637.14m0 0l.579.378m0 0l.548.697m0 0l.427.169m0 0l.475.014m0 0l.713-.151m0 0l.832-.606M213.618 556.879l-.11.592m0 0l-.375.777m0 0l-.566.666m0 0l-.435.37m0 0l-.498.268m0 0l-.47.098m0 0l-.79-.029m0 0l-.997-.358M209.378 559.263l.601.618m-.001 0l.845.292m.001 0l.712.027m-.001 0l.281-.06M211.816 560.14l-.452.693m0 0l-.527.47m0 0l-.65.22m0 0l-.506-.071m0 0l-.475-.213m0 0l-1.387-.903m0 0l-.806-.526"/></g><g id="walls_1_"><path class="st3" d="M.5 26.573h45.344m0 0v190.443m0 0H.5m0 0V26.573M49.622 213.615h15.492M42.064 213.615h5.669M47.733 213.615h1.889M49.622 147.489h15.492M42.064 147.489h5.669M47.733 147.489h1.889M42.064 147.489v66.126M65.114 147.489v66.126M49.622 147.489v3.778M49.622 151.267h-1.889M47.733 151.267v-3.778M47.733 185.275v-1.889M47.733 183.386h1.889M49.622 183.386v1.889M48.677 151.267v32.119M49.622 151.267v32.119M47.733 183.386v-32.119M49.622 185.275v.945M49.622 186.22h-.945M48.677 186.22v.944M48.677 187.164h-.944M47.733 187.164v-1.889M47.733 213.615v-3.779M47.733 209.836h.944M48.677 209.836v.945M48.677 210.781h.945M49.622 210.781v2.834M47.733 209.836v-22.672M50.566 189.054v18.893M50.566 186.22v2.834M50.566 189.054h-1.889M48.677 189.054v-2.834M48.677 186.22h1.889M48.677 210.781v-2.834M48.677 207.947h1.889M50.566 207.947v2.834M50.566 210.781h-1.889M48.677 207.947v-18.893M50.566 189.054v18.893M49.622 189.054v18.893M47.733 147.489h1.889M47.733 147.489h1.889M42.064 147.489h5.669M49.622 147.489h15.492M47.733 213.615h1.889M47.733 213.615h1.889M42.064 213.615h5.669M49.622 213.615h15.492M42.064 147.489h23.05"/><g><path class="st3" d="M49.622 28.532h15.492M42.064 28.532h5.669M47.733 28.532h1.889M49.622 111.661h15.492M42.064 111.661h5.669M47.733 111.661h1.889M42.064 111.661v-83.13M65.114 111.661v-83.13M49.622 111.661v-3.778M49.622 107.883h-1.889M47.733 107.883v3.778M47.733 71.986v1.889M47.733 73.875h1.889M49.622 73.875v-1.889M48.677 107.883V73.875M49.622 107.883V73.875M47.733 73.875v34.008M49.622 71.986v-.945M49.622 71.041h-.945M48.677 71.041v-.944M48.677 70.097h-.944M47.733 70.097v1.889M47.733 28.532v3.778M47.733 32.31h.944M48.677 32.31v-.945M48.677 31.366h.945M49.622 31.366v-2.834M50.566 31.366L78.621 59.42M47.733 32.31v37.787M50.566 68.207V34.199M50.566 71.041v-2.834M50.566 68.207h-1.889M48.677 68.207v2.834M48.677 71.041h1.889M48.677 31.366v2.833M48.677 34.199h1.889M50.566 34.199v-2.833M50.566 31.366h-1.889M48.677 34.199v34.008M50.566 68.207V34.199M49.622 68.207V34.199M78.622 59.421a39.677 39.677 0 01-28.055 11.621M47.733 111.661h1.889M47.733 111.661h1.889M42.064 111.661h5.669M49.622 111.661h15.492M47.733 28.532h1.889M47.733 28.532h1.889M42.064 28.532h5.669M49.622 28.532h15.492M42.064 28.745h23.05"/></g><g><path class="st3" d="M459.982 662.704v-13.602M459.982 670.262v-5.668M459.982 664.594v-1.89M376.852 662.704v-13.602M376.852 670.262v-5.668M376.852 664.594v-1.89M376.852 670.262h83.13M376.852 649.102h83.13M376.852 662.704h3.778M380.63 662.704v1.89M380.63 664.594h-3.778M431.642 664.594h-1.89M429.752 664.594v-1.89M429.752 662.704h1.89M380.63 663.649h49.122M380.63 662.704h49.122M429.752 664.594H380.63M431.642 662.704h.944M432.586 662.704v.944M432.586 663.649h.945M433.531 663.649v.945M433.531 664.594h-1.889M459.982 664.594h-3.78M456.202 664.594v-.945M456.202 663.649h.945M457.147 663.649v-.944M457.147 662.704h2.835M456.202 664.594h-22.671M435.42 661.76h18.894M432.586 661.76h2.834M435.42 661.76v1.889M435.42 663.649h-2.834M432.586 663.649v-1.889M457.147 663.649h-2.834M454.313 663.649v-1.889M454.313 661.76h2.834M457.147 661.76v1.889M454.313 663.649h-18.894M435.42 661.76h18.894M435.42 662.704h18.894M376.852 664.594v-1.89M376.852 664.594v-1.89M376.852 670.262v-5.668M376.852 662.704v-13.602M459.982 664.594v-1.89M459.982 664.594v-1.89M459.982 670.262v-5.668M459.982 662.704v-13.602M376.852 670.262v-21.16"/><g><path class="st3" d="M254.046 662.704v-13.602M254.046 670.262v-5.668M254.046 664.594v-1.89M320.172 662.704v-13.602M320.172 670.262v-5.668M320.172 664.594v-1.89M320.172 670.262h-66.126M320.172 649.102h-66.126M320.172 662.704h-3.779M316.393 662.704v1.89M316.393 664.594h3.779M282.386 664.594h1.889M284.275 664.594v-1.89M284.275 662.704h-1.889M316.393 663.649h-32.118M316.393 662.704h-32.118M284.275 664.594h32.118M282.386 662.704h-.945M281.441 662.704v.944M281.441 663.649h-.944M280.497 663.649v.945M280.497 664.594h1.889M254.046 664.594h3.779M257.825 664.594v-.945M257.825 663.649h-.945M256.88 663.649v-.944M256.88 662.704h-2.834M257.825 664.594h22.672M278.607 661.76h-18.893M281.441 661.76h-2.834M278.607 661.76v1.889M278.607 663.649h2.834M281.441 663.649v-1.889M256.88 663.649h2.834M259.714 663.649v-1.889M259.714 661.76h-2.834M256.88 661.76v1.889M259.714 663.649h18.893M278.607 661.76h-18.893M278.607 662.704h-18.893M320.172 664.594v-1.89M320.172 664.594v-1.89M320.172 670.262v-5.668M320.172 662.704v-13.602M254.046 664.594v-1.89M254.046 664.594v-1.89M254.046 670.262v-5.668M254.046 662.704v-13.602M254.046 670.262v-21.16"/></g><g><path class="st3" d="M131.077 662.704v-13.602M131.077 670.262v-5.668M131.077 664.594v-1.89M131.077 670.262H42.064M131.077 649.102H65.114M131.077 662.704h-4.723M126.354 662.704v1.89M126.354 664.594h4.723M49.622 664.594h4.723M54.345 664.594v-1.89M54.345 662.704h-4.723M47.733 664.594h1.889M126.354 662.704H54.345M54.345 664.594h72.009M131.077 664.594v-1.89M131.077 664.594v-1.89M131.077 670.262v-5.668M131.077 662.704v-13.602M49.622 515.905h15.492M42.064 515.905h5.669M47.733 515.905h1.889M42.064 515.905v154.357M65.114 515.905v133.197M49.622 515.905v4.724M49.622 520.628h-1.889M47.733 520.628v-4.724M47.733 662.704v-4.723M47.733 657.982h1.889M49.622 657.982v4.723M47.733 664.594v-1.89M49.622 520.628v137.354M47.733 657.982V520.628M47.733 515.905h1.889M47.733 515.905h1.889M42.064 515.905h5.669M49.622 515.905h15.492"/></g><g><path class="st3" d="M49.622 470.561h15.492M42.064 470.561h5.669M47.733 470.561h1.889M49.622 387.431h15.492M42.064 387.431h5.669M47.733 387.431h1.889M42.064 387.431v83.13M65.114 387.431v83.13M49.622 387.431v3.779M49.622 391.21h-1.889M47.733 391.21v-3.779M47.733 427.107v-1.889M47.733 425.218h1.889M49.622 425.218v1.889M48.677 391.21v34.008M49.622 391.21v34.008M47.733 425.218V391.21M49.622 427.107v.945M49.622 428.052h-.945M48.677 428.052v.944M48.677 428.996h-.944M47.733 428.996v-1.889M47.733 470.561v-3.778M47.733 466.783h.944M48.677 466.783v.944M48.677 467.727h.945M49.622 467.727v2.834M50.566 467.727l28.055-28.055M47.733 466.783v-37.787M50.566 430.886v34.007M50.566 428.052v2.834M50.566 430.886h-1.889M48.677 430.886v-2.834M48.677 428.052h1.889M48.677 467.727v-2.834M48.677 464.893h1.889M50.566 464.893v2.834M50.566 467.727h-1.889M48.677 464.893v-34.007M50.566 430.886v34.007M49.622 430.886v34.007M50.566 428.052a39.676 39.676 0 0128.055 11.62M47.733 387.431h1.889M47.733 387.431h1.889M42.064 387.431h5.669M49.622 387.431h15.492M47.733 470.561h1.889M47.733 470.561h1.889M42.064 470.561h5.669M49.622 470.561h15.492M42.064 387.431h23.05"/></g><g><path class="st3" d="M49.622 342.088h15.492M42.064 342.088h5.669M47.733 342.088h1.889M49.622 275.961h15.492M42.064 275.961h5.669M47.733 275.961h1.889M42.064 275.961v66.127M65.114 275.961v66.127M49.622 275.961v3.779M49.622 279.74h-1.889M47.733 279.74v-3.779M47.733 313.748v-1.89M47.733 311.859h1.889M49.622 311.859v1.89M48.677 279.74v32.119M49.622 279.74v32.119M47.733 311.859v-32.118M49.622 313.748v.944M49.622 314.693h-.945M48.677 314.693v.944M48.677 315.637h-.944M47.733 315.637v-1.889M47.733 342.088v-3.779M47.733 338.309h.944M48.677 338.309v.945M48.677 339.254h.945M49.622 339.254v2.834M47.733 338.309v-22.672M50.566 317.527v18.894M50.566 314.693v2.834M50.566 317.527h-1.889M48.677 317.527v-2.834M48.677 314.693h1.889M48.677 339.254v-2.834M48.677 336.42h1.889M50.566 336.42v2.834M50.566 339.254h-1.889M48.677 336.42v-18.894M50.566 317.527v18.894M49.622 317.527v18.894M47.733 275.961h1.889M47.733 275.961h1.889M42.064 275.961h5.669M49.622 275.961h15.492M47.733 342.088h1.889M47.733 342.088h1.889M42.064 342.088h5.669M49.622 342.088h15.492"/></g><path class="st3" d="M42.064 489.454H.501m0 0V368.539m0 0h41.564m-.001 0v120.916"/></g><g><path class="st3" d="M293.513 35.375c-2.892 1.023-4.099 1.266-7.16 1.475"/><path class="st4" d="M293.612 35.348l-7.259-16.786h-1.511v.453l7.347 16.851z"/><g><path class="st5" d="M301.915 272.663c-6.024-2.249-9.14-2.871-15.562-3.199"/><path class="st4" d="M302.011 272.703l-1.387-.6-15.782 36.355v.452h1.511z"/></g><g><path class="st5" d="M241.06 211.258c-1.817 4.87-2.316 7.367-2.582 12.558"/><path class="st4" d="M241.098 211.158l-.601 1.388 29.419 12.782h.454v-1.511z"/><g><path class="st5" d="M104.462 146.835c-1.789-4.821-2.319-7.437-2.582-12.572"/><path class="st4" d="M104.5 146.922l29.272-12.659v-1.511h-.454L103.9 145.534z"/></g></g><g><path class="st5" d="M370.192 515.09c1.788 4.814 2.316 7.434 2.578 12.562"/><path class="st4" d="M370.15 514.995l-29.272 12.656.001 1.513.451-.001 29.42-12.781z"/><g><path class="st5" d="M393.965 474.302c-4.293-1.602-6.492-2.036-11.069-2.271"/><path class="st4" d="M394.056 474.341l-1.387-.601-11.283 25.95v.454l1.51.001z"/></g></g></g><path d="M42.065 111.662h23.049v35.826H42.065v-35.826h0zm235.219-92.647h7.558v-.453h1.511V.5h-9.069v18.515h0zm9.069 250.448h-1.511v.453h-7.558V36.396h7.558v.453h1.511v232.614h0zM488.51 440.332H286.353V308.91h-1.511v-.452h-7.558V449.4H488.51v-9.068h0zm-28.529 208.769v21.161h28.529v-21.161h-28.529 0zM65.114 28.745H42.065V.5h23.049v28.245h0zm188.932 641.517H131.077v-21.161h122.969v21.161h0zm122.805 0h-56.679v-21.161h56.679v21.161h0zM42.065 470.561h23.049v45.344H42.065v-45.344h0zm0-128.473h23.049v45.343H42.065v-45.343h0zm23.049-66.127H42.065v-62.346h23.049v62.346z" fill-rule="evenodd" clip-rule="evenodd" stroke="#000" stroke-miterlimit="3"/><g><path class="st7" d="M66.212.672l-1.26 1.11M73.632.672l-8.68 7.65M81.062.672l-10.73 9.45M88.472.672l-10.73 9.45M95.902.672l-10.73 9.45M103.322.672l-10.73 9.45M110.742.672l-10.72 9.45M118.172.672l-10.73 9.45M125.592.672l-10.73 9.45M133.002.672l-10.72 9.45M140.432.672l-10.73 9.45M147.852.672l-10.72 9.45M155.282.672l-10.73 9.45M162.702.672l-10.73 9.45M170.122.672l-10.72 9.45M177.552.672l-10.73 9.45M184.962.672l-10.72 9.45M192.392.672l-10.73 9.45M199.812.672l-10.73 9.45M207.232.672l-10.72 9.45M214.662.672l-10.73 9.45M66.242 131.412l-1.3 1.15M73.672 131.412l-3.44 3.03M222.082.672l-10.73 9.45M81.082 131.412l-3.44 3.03M229.502.672l-10.73 9.45M88.512 131.412l-3.44 3.03M236.922.672l-10.73 9.45M95.932 131.412l-3.44 3.03M244.342.672l-10.72 9.45M251.772.672l-10.73 9.45M102.172 132.452l-2.26 1.99M259.192.672l-10.73 9.45M266.612.672l-11.41 10.06M274.032.672l-18.83 16.59M264.652 15.472l-9.45 8.33M277.122 4.492l-6.39 5.63M264.652 22.012l-9.45 8.33M140.462 131.412l-3.44 3.03M147.892 131.412l-3.44 3.03M264.652 28.552l-9.45 8.33M155.312 131.412l-3.44 3.03M264.652 35.092l-9.45 8.33M162.732 131.412l-3.43 3.03M264.652 41.632l-9.45 8.33M65.062 223.992l-.12.11M267.522 45.642l-10.72 9.45M170.162 131.412l-3.44 3.03M177.572 131.412l-3.44 3.03M274.942 45.642l-10.73 9.45M171.692 136.592l-3.02 2.66M72.482 223.992l-3.43 3.02M185.002 131.412l-3.44 3.03M277.122 50.262l-5.48 4.83M171.692 143.132l-3.02 2.66M79.902 223.992l-3.43 3.02M192.422 131.412l-3.44 3.03M171.692 149.672l-3.02 2.66M87.332 223.992l-3.43 3.02M199.842 131.412l-3.44 3.03M171.692 156.212l-3.02 2.66M94.752 223.992l-3.43 3.02M207.272 131.412l-3.44 3.03M171.692 162.752l-3.02 2.66M165.232 168.442l-1.1.97M102.172 223.992l-3.43 3.02M214.692 131.412l-3.44 3.03M109.602 223.992l-3.43 3.02M167.162 173.282l-3.03 2.67M171.692 169.292l-3.02 2.66M222.112 131.412l-3.44 3.03M117.012 223.992l-3.43 3.02M167.162 179.812l-3.03 2.67M171.692 175.822l-3.02 2.66M229.532 131.412l-3.44 3.03M124.442 223.992l-3.43 3.02M167.162 186.352l-3.03 2.67M171.692 182.362l-3.02 2.66M235.172 132.982l-1.66 1.46M131.862 223.992l-3.43 3.02M167.162 192.892l-3.03 2.67M171.692 188.902l-3.02 2.66M171.692 195.442l-3.02 2.66M139.282 223.992l-3.43 3.02M167.162 199.432l-3.03 2.67M171.692 201.982l-3.02 2.66M146.712 223.992l-3.43 3.02M167.162 205.972l-3.03 2.67M171.712 208.502l-6.1 5.38M154.132 223.992l-3.43 3.02M179.142 208.502l-3.43 3.02M161.552 223.992l-3.42 3.02M171.692 215.062l-3.02 2.66M186.552 208.502l-3.42 3.02M171.692 221.592l-6.15 5.42M189.452 212.492l-3.02 2.66M176.392 223.992l-3.42 3.02M189.452 219.032l-3.02 2.66M183.822 223.992l-3.43 3.02M191.242 223.992l-3.43 3.02M198.662 223.992l-3.42 3.02M200.222 229.162l-3.02 2.66M206.092 223.992l-3.43 3.02M200.222 235.692l-3.02 2.66M213.502 223.992l-3.43 3.02M200.222 242.232l-3.02 2.66M220.932 223.992l-3.43 3.02M66.542 359.992l-1.6 1.41M73.962 359.992l-3.42 3.02M228.352 223.992l-3.43 3.02M200.222 248.772l-3.02 2.66M81.392 359.992l-3.43 3.02M235.772 223.992l-3.43 3.02M200.222 255.312l-3.02 2.66M88.812 359.992l-3.43 3.02M200.222 261.852l-3.02 2.66M96.242 359.992l-3.43 3.02M200.222 268.392l-3.02 2.66M200.222 274.922l-3.02 2.66M103.652 359.992l-3.43 3.02M200.222 281.462l-3.02 2.66M111.072 359.992l-3.42 3.02M200.222 288.002l-3.02 2.66M269.752 226.752l1.51-1.33 1.62-1.43M118.502 359.992l-3.43 3.02M200.222 294.542l-3.02 2.66M277.122 226.802l-.24.21M125.922 359.992l-3.43 3.02M200.222 301.082l-3.02 2.66M133.352 359.992l-3.43 3.02M200.222 307.622l-3.02 2.66M140.772 359.992l-3.43 3.02M148.192 359.992l-3.42 3.02M155.612 359.992l-3.43 3.02M163.032 359.992l-3.43 3.02M170.452 359.992l-3.42 3.02M177.882 359.992l-3.43 3.02M185.302 359.992l-3.43 3.02M192.732 359.992l-3.43 3.02M200.142 359.992l-3.43 3.02M207.572 359.992l-3.43 3.02M203.622 363.472l-3.02 2.66M214.992 359.992l-3.43 3.02M203.622 370.002l-3.02 2.66M220.252 361.892l-3.03 2.67M203.622 376.542l-3.02 2.66M220.252 368.432l-3.03 2.67M210.502 377.022l-3.44 3.03M220.252 374.972l-5.76 5.08M206.082 537.842l-3.03 2.67M209.552 534.782l-3.44 3.03M216.972 534.782l-3.44 3.03M206.082 544.382l-3.03 2.67M223.082 535.942l-3.02 2.66M206.082 550.922l-3.03 2.67M223.082 542.482l-3.02 2.66M206.082 557.462l-3.03 2.67M333.042 452.152l-3.02 2.66M223.082 549.022l-3.02 2.66M206.082 563.992l-3.03 2.67M206.082 570.532l-3.03 2.67M223.082 555.552l-3.02 2.66M333.042 458.692l-3.02 2.66M333.042 465.222l-3.02 2.66M223.082 562.092l-3.02 2.66M206.082 577.062l-3.03 2.67M213.462 577.102l-3.44 3.03M223.082 568.632l-3.02 2.66M206.082 583.602l-3.03 2.67M223.082 575.172l-5.63 4.96M206.082 590.152l-3.03 2.67M223.082 581.712l-3.02 2.66M211.152 592.222l-3.43 3.02M380.502 449.572l-.8.71M223.082 588.252l-3.02 2.66M218.572 592.222l-3.43 3.02M382.732 454.152l-3.03 2.66M223.082 594.782l-.52.46M382.732 460.682l-3.03 2.67M382.732 467.222l-3.03 2.67M336.192 527.832l-6.36 5.61M341.162 530.002l-.97.85M332.852 537.322l-3.02 2.66M382.272 500.322l-1.2 1.06-1.37 1.21M332.852 543.862l-3.02 2.66M382.732 506.452l-3.03 2.67M332.852 550.392l-3.02 2.66M382.732 512.992l-3.03 2.67M332.852 556.932l-3.02 2.66M382.732 519.532l-3.03 2.67M458.872 452.462l-3.03 2.67M373.312 527.832l-.71.63M332.852 563.472l-3.02 2.66M382.732 526.072l-5.43 4.78M458.872 459.002l-3.03 2.67M332.852 570.012l-3.02 2.66M465.832 459.402l-3.42 3.02M332.852 576.552l-3.02 2.66M388.152 527.832l-3.43 3.02M473.262 459.402l-5.32 4.68M484.412 449.572l-7.41 6.53M332.852 583.082l-3.02 2.66M395.572 527.832l-3.42 3.02M402.992 527.832l-3.43 3.02M488.342 452.652l-11.34 9.99M470.962 467.962l-3.02 2.66M332.852 589.622l-3.02 2.66M410.422 527.832l-3.43 3.02M488.342 459.192l-11.34 9.99M470.962 474.502l-3.02 2.66M332.852 596.162l-3.02 2.66M417.842 527.832l-3.43 3.02M488.342 465.732l-11.34 9.99M470.962 481.042l-3.02 2.66M332.852 602.702l-3.02 2.66M425.262 527.832l-3.43 3.02M488.342 472.262l-11.34 9.99M470.962 487.572l-3.02 2.66M332.852 609.242l-3.02 2.66M432.682 527.832l-3.42 3.02M488.342 478.802l-11.34 9.99M470.962 494.112l-3.02 2.66M332.852 615.772l-3.02 2.66M474.862 497.222l-3.43 3.02M488.342 485.352l-11.34 9.98M440.112 527.832l-3.43 3.02M332.852 622.322l-3.02 2.66M488.342 491.882l-11.34 9.99M447.532 527.832l-3.43 3.02M332.852 628.862l-3.02 2.66M488.342 498.422l-11.34 9.99M454.952 527.832l-3.43 3.02M332.852 635.392l-3.02 2.66M488.342 504.952l-11.34 9.99M462.372 527.832l-3.43 3.02M332.852 641.932l-3.02 2.66M488.342 511.502l-11.34 9.99M469.802 527.832l-3.43 3.02M332.852 648.472l-.91.8M488.342 518.042l-14.55 12.81M488.342 524.572l-11.34 9.99M488.342 531.112l-11.34 9.99M488.342 537.652l-11.34 9.98M488.342 544.192l-11.34 9.99M488.342 550.732l-11.34 9.99M488.342 557.262l-11.34 9.99M488.342 563.802l-11.34 9.99M488.342 570.342l-11.34 9.99M488.342 576.882l-11.34 9.99M488.342 583.422l-11.34 9.99M488.342 589.952l-11.34 9.99M488.342 596.492l-11.34 9.99M488.342 603.042l-11.34 9.98M488.342 609.572l-11.34 9.99M488.342 616.112l-11.34 9.99M488.342 622.642l-11.34 9.99M488.342 629.192l-11.34 9.99M488.342 635.732l-11.34 9.99M488.342 642.262l-7.95 7.01M488.342 648.802l-.53.47"/></g><path class="st8" d="M47.733 599.733h1.889v5.133h-1.889zM47.733 557.226h1.889v5.133h-1.889zM65.114.5v9.446l190.254.001v44.965h21.916v-9.447h-12.469V9.946h12.469V.5H65.114zm412.06 448.9h11.336V649.101h-11.336V530.676H372.317v-1.512h.454v-1.511h7.103v-26.45h3.023v26.45h94.277v-27.585h-9.069l.001-37.82h-12.092v-12.847h3.022v9.824h18.138V449.4zm0 47.646v-34.798h-6.046v34.798h6.046zM271.428 223.817h5.856v3.023h-5.856v-3.023zm0 3.023v-3.023h-1.058v1.511h-.454v1.512h1.512zm-32.497 0v-1.512h-.453v-1.511h-1.058v3.023h1.511zm-173.817-95.6h37.22v1.512h-.454v1.511H65.114v-3.023zm69.716 0h-1.512v1.512h.454v1.511h35.066v34.008h-4.535V213.702h3.023v-.087h1.512v10.202H65.114v3.023h132.252v83.507h3.023V226.84h37.031v-3.023h-47.8v-15.493h-17.759v-74.061h63.481v-3.023H134.83zm51.767 92.577v-12.47h-14.736v12.47h14.736zm-19.271-52.523v39.298h1.512v-39.298h-1.512zm53.09 188.521v20.059h-19.649v-17.036H65.114v-3.023h155.302zm-3.023 17.036v-14.013H203.79v14.013h13.603zm2.834 160.781h-13.981v39.298h13.981v-39.298zm-13.981 54.412h13.981v-12.092h-13.981v12.092zm17.004 0v3.022h-20.027v-60.457h20.027v57.435zm156.624-142.643h3.023v22.631h-1.511v.453h-1.512v-23.084zm-49.689 0h3.023v21.916h-3.023v-21.916zm-.188 78.252h10.882v1.511h.453v1.512h-8.313v118.425h-3.023l.001-121.448zm49.877-26.45h3.023v-1.058h-1.511v-.454h-1.512v1.512z"/></g><g id="sizes"><path d="M204.808 529.126l-.727-.348c-.485-.232-.874-.567-1.168-1.008s-.48-.97-.559-1.59h1.625c.047.323.148.589.305.797s.358.363.605.465.538.152.871.152c.526 0 .935-.141 1.227-.422s.438-.677.438-1.188v-.344c0-.567-.138-1.007-.414-1.316s-.667-.465-1.172-.465h-.805v-1.516h.805c.442 0 .786-.133 1.031-.398s.367-.641.367-1.125v-.352c0-.448-.129-.794-.387-1.039s-.624-.367-1.098-.367c-.271 0-.513.051-.727.152s-.395.258-.543.469-.257.476-.324.793h-1.617c.104-.62.301-1.151.59-1.594s.655-.778 1.098-1.008.95-.344 1.523-.344c.979 0 1.737.258 2.273.773s.805 1.242.805 2.18v.188c0 .567-.153 1.063-.461 1.484s-.742.729-1.305.922c.62.136 1.101.44 1.441.914s.512 1.078.512 1.813v.188c0 .661-.128 1.227-.383 1.695s-.626.825-1.113 1.07-1.074.367-1.762.367l-.951.002zM212.8 528.736c-.521-.261-.923-.629-1.207-1.105s-.426-1.03-.426-1.66v-.188c0-.567.142-1.102.426-1.602s.663-.878 1.137-1.133c-.401-.219-.723-.535-.965-.949s-.363-.851-.363-1.309v-.273c0-.594.133-1.116.398-1.566s.641-.8 1.125-1.047 1.047-.371 1.688-.371 1.203.124 1.688.371.859.597 1.125 1.047.398.973.398 1.566v.273c0 .469-.124.909-.371 1.32s-.574.724-.98.938c.479.261.863.64 1.152 1.137s.434 1.03.434 1.598v.188c0 .63-.142 1.184-.426 1.66s-.687.845-1.207 1.105-1.125.391-1.813.391-1.292-.131-1.813-.391zm2.789-1.36c.281-.146.499-.351.652-.613s.23-.566.23-.91v-.109c0-.349-.077-.655-.23-.918s-.371-.468-.652-.613-.606-.219-.977-.219-.695.073-.977.219-.499.352-.652.617-.23.573-.23.922v.117c0 .344.077.646.23.906s.371.462.652.605.606.215.977.215.696-.073.977-.219zm-.133-5.121c.245-.138.435-.335.57-.59s.203-.55.203-.883v-.109c0-.317-.067-.599-.203-.844s-.325-.434-.57-.566-.526-.199-.844-.199-.599.066-.844.199-.435.321-.57.566-.203.528-.203.852v.117c0 .328.067.618.203.871s.325.448.57.586.526.207.844.207.599-.069.844-.207zM220.128 527.415h1.594v1.594l-1.594 1.578v-3.172zM229.777 519.071l-2.938 9.938h-1.695l2.938-9.844h-2.891v1.633h-1.594v-3.148h6.18v1.421zM247.12 73.259h-1.594v-9.625l-1.617.992v-1.648l1.617-1.078h1.594v11.359zM255.566 63.322l-2.938 9.938h-1.695l2.938-9.844h-2.891v1.633h-1.594V61.9h6.18v1.422zM257.597 71.666h1.594v1.594l-1.594 1.578v-3.172zM261.222 70.134l3.813-8.227h1.641l-3.719 8.133h5.57v1.477h-7.305v-1.383zm4.898-3.554h1.555v6.688h-1.555V66.58zM71.386 206.069a2.61 2.61 0 01-1.082-1.172c-.248-.513-.371-1.131-.371-1.855v-.008c0-.422.049-.864.148-1.328a7.673 7.673 0 01.532-1.597l.109-.223 2.469-4.891h1.719l-2.898 5.664.008-.281c.13-.245.32-.435.57-.57.25-.135.542-.203.875-.203.588 0 1.094.133 1.516.398s.742.652.961 1.16.328 1.119.328 1.832v.008c0 .729-.124 1.354-.371 1.875a2.62 2.62 0 01-1.086 1.188c-.477.271-1.048.406-1.715.406-.668-.001-1.238-.134-1.712-.403zm2.879-1.598c.273-.313.41-.758.41-1.336v-.008c0-.635-.144-1.126-.43-1.473-.287-.346-.695-.52-1.227-.52-.474 0-.841.175-1.102.523-.261.349-.391.841-.391 1.477v.008c0 .578.137 1.022.41 1.332.273.31.66.465 1.16.465.507.001.896-.155 1.17-.468zM78.222 204.76h1.594v1.594l-1.594 1.578v-3.172zM83.987 206.471l-.727-.348a2.857 2.857 0 01-1.168-1.008c-.294-.44-.48-.97-.559-1.59h1.625c.047.323.148.589.305.797.156.208.358.363.605.465s.538.152.871.152c.526 0 .935-.141 1.227-.422s.438-.677.438-1.188v-.344c0-.567-.138-1.006-.414-1.316-.276-.31-.667-.465-1.172-.465h-.805v-1.516h.805c.442 0 .786-.133 1.031-.398s.367-.641.367-1.125v-.352c0-.448-.129-.794-.387-1.039-.258-.245-.624-.367-1.098-.367-.271 0-.513.051-.727.152s-.395.258-.543.469-.257.476-.324.793H81.72c.104-.62.301-1.151.59-1.594a2.893 2.893 0 011.098-1.008c.442-.229.95-.344 1.523-.344.979 0 1.737.258 2.273.773s.805 1.242.805 2.18v.188c0 .568-.153 1.063-.461 1.484s-.742.729-1.305.922c.62.136 1.101.44 1.441.914.341.474.512 1.078.512 1.813v.188c0 .662-.128 1.227-.383 1.695s-.626.826-1.113 1.07c-.487.245-1.074.367-1.762.367l-.951.002z"/><g><path d="M212.115 200.002a2.61 2.61 0 01-1.082-1.172c-.247-.513-.371-1.131-.371-1.855v-.008c0-.422.05-.864.148-1.328a7.673 7.673 0 01.532-1.597l.109-.223 2.469-4.891h1.719l-2.898 5.664.008-.281c.13-.245.32-.435.57-.57.25-.135.542-.203.875-.203.589 0 1.094.133 1.516.398s.742.652.961 1.16.328 1.119.328 1.832v.008c0 .729-.124 1.354-.371 1.875a2.615 2.615 0 01-1.086 1.188c-.477.271-1.048.406-1.715.406s-1.238-.134-1.712-.403zm2.879-1.598c.273-.313.41-.758.41-1.336v-.008c0-.635-.144-1.126-.43-1.473-.286-.346-.695-.52-1.227-.52-.474 0-.841.175-1.102.523-.261.349-.391.841-.391 1.477v.008c0 .578.137 1.022.41 1.332.273.31.66.465 1.16.465.507.001.897-.155 1.17-.468zM218.951 198.694h1.594v1.594l-1.594 1.578v-3.172zM222.561 198.904l3.961-5.281c.229-.302.407-.616.535-.941.128-.325.191-.629.191-.91v-.016c0-.453-.133-.805-.398-1.055s-.644-.375-1.133-.375c-.464 0-.839.137-1.125.41s-.461.66-.523 1.16v.008h-1.648v-.008c.094-.651.285-1.207.574-1.668s.663-.813 1.121-1.055.987-.363 1.586-.363c.677 0 1.255.116 1.734.348.479.232.844.569 1.094 1.012.25.443.375.977.375 1.602v.008c0 .401-.083.82-.25 1.258s-.398.859-.695 1.266l-3.289 4.469h4.297v1.516h-6.406v-1.385z"/></g><g><path d="M171.052 259.155h-1.594v-9.625l-1.617.992v-1.648l1.617-1.078h1.594v11.359zM173.458 257.773l3.961-5.281c.229-.302.407-.616.535-.941s.191-.629.191-.91v-.016c0-.453-.133-.805-.398-1.055s-.644-.375-1.133-.375c-.464 0-.839.137-1.125.41s-.461.66-.523 1.16v.008h-1.648v-.008c.094-.651.285-1.207.574-1.668s.663-.813 1.121-1.055.987-.363 1.586-.363c.677 0 1.255.116 1.734.348s.844.569 1.094 1.012.375.977.375 1.602v.008c0 .401-.083.82-.25 1.258s-.398.859-.695 1.266l-3.289 4.469h4.297v1.516h-6.406v-1.385zM181.739 257.562h1.594v1.594l-1.594 1.578v-3.172zM185.349 257.773l3.961-5.281c.229-.302.407-.616.535-.941s.191-.629.191-.91v-.016c0-.453-.133-.805-.398-1.055s-.644-.375-1.133-.375c-.464 0-.839.137-1.125.41s-.461.66-.523 1.16v.008h-1.648v-.008c.094-.651.285-1.207.574-1.668s.663-.813 1.121-1.055.987-.363 1.586-.363c.677 0 1.255.116 1.734.348s.844.569 1.094 1.012.375.977.375 1.602v.008c0 .401-.083.82-.25 1.258s-.398.859-.695 1.266l-3.289 4.469h4.297v1.516h-6.406v-1.385z"/></g><g><path d="M341.37 644.016h-1.594v-9.625l-1.617.992v-1.648l1.617-1.078h1.594v11.359zM346.691 644.016h-1.594v-9.625l-1.617.992v-1.648l1.617-1.078h1.594v11.359zM349.112 642.422h1.594v1.594l-1.594 1.578v-3.172zM352.737 640.891l3.813-8.227h1.641l-3.719 8.133h5.57v1.477h-7.305v-1.383zm4.899-3.555h1.555v6.688h-1.555v-6.688z"/></g><g><path d="M386.347 518.437l3.813-8.227h1.641l-3.719 8.133h5.57v1.477h-7.305v-1.383zm4.898-3.555h1.555v6.688h-1.555v-6.688zM395.448 519.968h1.594v1.594l-1.594 1.578v-3.172zM400.448 521.277a2.609 2.609 0 01-1.082-1.172c-.248-.513-.371-1.132-.371-1.855v-.008c0-.422.049-.864.148-1.328a7.648 7.648 0 01.641-1.82l2.469-4.891h1.719l-2.898 5.664.008-.281c.13-.245.32-.435.57-.57s.541-.203.875-.203c.588 0 1.094.133 1.516.398s.742.652.961 1.16.328 1.118.328 1.832v.008c0 .729-.124 1.354-.371 1.875-.248.521-.609.917-1.086 1.188s-1.049.406-1.715.406c-.668-.001-1.238-.135-1.712-.403zm2.879-1.598c.273-.313.41-.758.41-1.336v-.008c0-.636-.144-1.126-.43-1.473-.287-.347-.695-.52-1.227-.52-.475 0-.842.175-1.102.523-.261.349-.391.841-.391 1.477v.008c0 .578.137 1.022.41 1.332s.66.465 1.16.465c.507.001.897-.156 1.17-.468z"/></g><g><path d="M257.891 234.587l-2.937 9.938h-1.695l2.937-9.844h-2.891v1.633h-1.594v-3.148h6.18v1.421zM259.922 242.931h1.594v1.594l-1.594 1.578v-3.172zM263.531 243.142l3.961-5.281c.229-.302.407-.616.535-.941s.191-.629.191-.91v-.016c0-.453-.133-.805-.398-1.055s-.644-.375-1.133-.375c-.464 0-.839.137-1.125.41s-.461.66-.523 1.16v.008h-1.648v-.008c.094-.651.285-1.207.574-1.668s.663-.813 1.121-1.055.987-.363 1.586-.363c.677 0 1.255.116 1.734.348.479.232.844.569 1.094 1.012s.375.977.375 1.602v.008c0 .401-.083.82-.25 1.258s-.398.859-.695 1.266l-3.289 4.469h4.297v1.516h-6.406v-1.385z"/></g><g><path d="M14.649 475.869l3.961-5.281c.229-.302.407-.616.535-.941.127-.325.191-.629.191-.91v-.016c0-.453-.133-.805-.398-1.055s-.644-.375-1.133-.375c-.464 0-.839.137-1.125.41-.287.273-.461.66-.523 1.16v.008h-1.648v-.008c.094-.651.285-1.207.574-1.668s.663-.813 1.121-1.055c.458-.242.987-.363 1.586-.363.677 0 1.255.116 1.734.348.479.231.844.569 1.094 1.012s.375.977.375 1.602v.008c0 .401-.083.82-.25 1.258a5.417 5.417 0 01-.695 1.266l-3.289 4.469h4.297v1.516H14.65v-1.385zM22.93 475.658h1.594v1.594l-1.594 1.578v-3.172zM27.93 476.967a2.614 2.614 0 01-1.082-1.172c-.248-.513-.371-1.132-.371-1.855v-.008c0-.422.049-.864.148-1.328a7.648 7.648 0 01.532-1.597l.109-.223 2.469-4.891h1.719l-2.898 5.664.008-.281c.13-.245.32-.435.57-.57s.542-.203.875-.203c.588 0 1.094.133 1.516.398s.742.652.961 1.16.328 1.118.328 1.832v.008c0 .729-.124 1.354-.371 1.875-.248.521-.609.917-1.086 1.188s-1.048.406-1.715.406c-.668-.001-1.238-.134-1.712-.403zm2.879-1.598c.273-.313.41-.758.41-1.336v-.008c0-.636-.144-1.126-.43-1.473-.287-.347-.695-.52-1.227-.52-.474 0-.841.175-1.102.523-.261.349-.391.841-.391 1.477v.008c0 .578.137 1.022.41 1.332s.66.465 1.16.465c.507.001.897-.155 1.17-.468z"/></g><g><path d="M16.466 200.42a2.75 2.75 0 01-1.086-.977c-.279-.427-.465-.94-.559-1.539v-.008h1.594v.008c.057.417.224.741.5.973.276.232.635.348 1.078.348.51 0 .905-.17 1.184-.512.278-.341.418-.821.418-1.441v-.953c0-.614-.14-1.092-.418-1.434-.279-.341-.673-.512-1.184-.512-.276 0-.542.078-.797.234a2.237 2.237 0 00-.672.656h-1.453v-5.984h5.789v1.516h-4.195v2.555a2.275 2.275 0 011.414-.508c.656 0 1.217.136 1.684.406.466.271.82.667 1.063 1.188.242.521.363 1.148.363 1.883v.953c0 .734-.125 1.362-.375 1.883-.25.521-.615.918-1.094 1.191-.479.273-1.055.41-1.727.41-.573 0-1.082-.112-1.527-.336zM23.376 199.045h1.594v1.594l-1.594 1.578v-3.172zM31.18 194.998l-.008.281c-.13.24-.327.416-.59.527a2.372 2.372 0 01-.934.168c-.542 0-1.019-.138-1.43-.414-.412-.276-.73-.665-.957-1.168-.227-.502-.34-1.084-.34-1.746v-.008c0-.734.124-1.362.371-1.883a2.615 2.615 0 011.086-1.188c.477-.271 1.048-.406 1.715-.406s1.237.138 1.711.414c.474.276.834.677 1.082 1.203.247.526.371 1.159.371 1.898v.008c0 .406-.052.84-.156 1.301a8.052 8.052 0 01-.445 1.371l-.094.207c-.031.07-.065.14-.102.207l-2.422 4.867h-1.719l2.861-5.639zm.075-.984c.273-.338.41-.815.41-1.43v-.008c0-.599-.137-1.063-.41-1.391s-.66-.492-1.16-.492c-.505 0-.895.164-1.168.492s-.41.794-.41 1.398v.008c0 .615.137 1.09.41 1.426s.663.504 1.168.504c.499.001.886-.168 1.16-.507z"/></g><g><path d="M252.314 466.468h-1.594v-9.625l-1.617.992v-1.648l1.617-1.078h1.594v11.359zM254.72 465.085l3.961-5.281c.229-.302.407-.616.535-.941s.191-.629.191-.91v-.016c0-.453-.133-.805-.398-1.055s-.644-.375-1.133-.375c-.464 0-.839.137-1.125.41s-.461.66-.523 1.16v.008h-1.648v-.008c.094-.651.285-1.207.574-1.668s.663-.813 1.121-1.055c.458-.242.987-.363 1.586-.363.677 0 1.255.116 1.734.348s.844.569 1.094 1.012.375.977.375 1.602v.008c0 .401-.083.82-.25 1.258s-.398.859-.695 1.266l-3.289 4.469h4.297v1.516h-6.406v-1.385zM263.001 464.874h1.594v1.594l-1.594 1.578v-3.172zM266.626 463.343l3.813-8.227h1.641l-3.719 8.133h5.57v1.477h-7.305v-1.383zm4.899-3.555h1.555v6.688h-1.555v-6.688z"/></g></g></svg>