<svg version="1.1" id="_x31_85_1_" xmlns="http://www.w3.org/2000/svg" x="0" y="0" viewBox="0 0 487.876 667.739" xml:space="preserve"><style>.st1{fill-rule:evenodd;clip-rule:evenodd;stroke:#999;stroke-width:.4;stroke-linecap:round;stroke-linejoin:round}.st1,.st2,.st3{fill:none;stroke-miterlimit:3}.st2{fill-rule:evenodd;clip-rule:evenodd;stroke-linecap:round;stroke-linejoin:round;stroke:#999}.st3{stroke:#000}.st4,.st5,.st7,.st8{fill-rule:evenodd;clip-rule:evenodd}.st5,.st7,.st8{fill:none}.st5{stroke:#000;stroke-miterlimit:3}.st7,.st8{stroke-miterlimit:22.9256}.st7{stroke-width:.6;stroke:#666}.st8{stroke:#000}</style><path fill-rule="evenodd" clip-rule="evenodd" fill="#fff" d="M41.946.392v178.964H.509v121.021h41.437v152.292H.509v190.458h41.437v24.22h244.042V332.71h201.704V.392z"/><g id="mebel"><path class="st1" d="M446.616 267.46l2.541-2.541m-9.487 2.541l9.488-9.487m-10.482 3.534l10.482-10.481m-23.382 16.434l1.462-1.462m12.064-12.064l9.855-9.856m-30.329 23.382l7.746-7.747m10.956-10.955l11.627-11.627m-37.274 30.329l14.358-14.358m6.764-6.765l16.152-16.152m-40.053 33.105l40.053-40.052m-40.053 33.105l40.053-40.053m-42.624 35.678l42.321-42.321m-49.267 42.321l42.321-42.321M392.639 251.968l42.321-42.321m-57.202 50.256l1.118-1.118m6.817-6.817l42.321-42.321m-57.204 50.256l50.256-50.256m-61.859 54.913l.019-.019m4.639-4.638l50.255-50.256m-55.007 48.06l48.06-48.06m-48.155 41.207l41.207-41.207m-41.301 34.356l34.356-34.356m-34.451 27.503l27.503-27.503m-27.597 20.651l20.65-20.651m-20.745 13.798l13.799-13.798m-13.894 6.946l6.946-6.946m-7.04.092l.094-.092m90.612 4.732l-4.732-4.732m4.732 11.678l-11.678-11.678m11.678 18.625l-18.625-18.625m18.625 25.572l-25.572-25.572m25.572 32.519l-32.519-32.519m32.519 39.466l-39.466-39.466m39.466 46.413l-46.413-46.413m46.413 53.359l-9.965-9.965m-6.71-6.71l-36.684-36.684m50.866 57.813l-7.794-7.794m-10.937-10.937l-39.083-39.082m50.866 57.813l-1.51-1.51m-12.061-12.062l-44.241-44.241m44.854 51.801l-51.801-51.801m50.866 57.813l-57.813-57.813m50.866 57.813l-9.772-9.772m-5.72-5.72l-42.321-42.321m50.866 57.813l-2.824-2.825m-12.668-12.667l-37.927-37.927m30.98 37.927l-30.883-30.883m23.936 30.883l-23.839-23.839m20.172 27.118l-20.074-20.073M376.584 259.903l-17.685-17.685m10.739 17.685l-10.642-10.642m3.694 10.642l-3.596-3.596m.132 7.079l-.036-.036M65.053 523.084h7.564m34.007 0H145.8m-80.757-11.335h7.575m34.006 0H145.8m-80.768-11.336h7.586m34.006 0H145.8m-80.779-11.336H145.8m-80.789-11.336h80.79M65 466.405h95.092m-95.103-11.336h23.41m25.115 0h25.685m-74.22-11.336h7.918m56.119 0h31.075m-95.123-11.336h13.567m44.842 0h19.711m-5.589 98.434V423.14m-22.672 107.691v-76.174m0-26.004v-5.513m-22.671 66.126v-33.34m0-28.542v-4.244M69.484 530.831V423.14"/><path class="st2" d="M82.713 70.786h28.39M112.237 69.652v-28.39M111.104 40.128h-28.39M81.58 41.262v28.39M72.184 30.733h38.92M112.237 31.866v7.129M111.104 40.128H81.58M81.58 40.128v29.524M80.446 70.786h-7.129M72.184 69.652V30.733M111.104 36.022h-33.63M77.474 36.022v33.63M112.237 29.221H70.672M70.672 29.221v41.565M112.237 29.221v2.645M73.317 70.786h-2.645M80.446 70.786h2.267M112.237 38.995v2.267M81.58 40.128l-9.396-9.396M112.237 69.652c0 .626-.508 1.134-1.134 1.134M111.104 40.128c.626 0 1.134.508 1.134 1.134M81.58 41.262c0-.626.507-1.134 1.134-1.134M82.713 70.786a1.134 1.134 0 01-1.134-1.134M111.104 30.733c.626 0 1.134.507 1.134 1.133M112.237 38.995c0 .626-.508 1.133-1.134 1.133M81.58 69.652c0 .626-.507 1.134-1.133 1.134M73.317 70.786a1.134 1.134 0 01-1.134-1.134M112.237 34.889c0 .626-.508 1.133-1.134 1.133M77.474 69.652c0 .626-.507 1.134-1.133 1.134M150.024 29.221h-37.787M150.024 29.221v2.645M112.237 29.221v2.645M150.024 38.995v2.267M112.237 38.995v2.267M113.371 70.786h35.519M150.024 69.652v-28.39M148.89 40.128h-35.519M112.237 41.262v28.39M113.371 30.733h35.519M150.024 31.866v7.129M148.89 40.128h-35.519M112.237 38.995v-7.129M148.89 36.022h-35.519M150.024 69.652c0 .626-.507 1.134-1.134 1.134M148.89 40.128c.626 0 1.134.508 1.134 1.134M112.237 41.262c0-.626.507-1.134 1.133-1.134M113.371 70.786a1.133 1.133 0 01-1.133-1.134M148.89 30.733c.626 0 1.134.507 1.134 1.133M150.024 38.995c0 .626-.507 1.133-1.134 1.133M113.371 40.128a1.133 1.133 0 01-1.133-1.133M112.237 31.866c0-.626.507-1.133 1.133-1.133M150.024 34.889c0 .626-.507 1.133-1.134 1.133M113.371 36.022a1.133 1.133 0 01-1.133-1.133M182.897 70.786h4.157M187.81 70.03V29.977M187.054 29.221h-4.157M182.141 29.977V70.03M182.897 29.221h-32.873M150.024 29.221v2.645M150.024 38.995v2.267M151.157 70.786h29.852M182.141 69.652v-28.39M181.008 40.128h-29.852M150.024 41.262v28.39M151.157 30.733h29.852M182.141 31.866v7.129M181.008 40.128h-29.852M150.024 38.995v-7.129M181.008 36.022h-29.852M187.81 70.03a.756.756 0 01-.755.756M187.054 29.221c.417 0 .755.338.755.756M182.141 29.977c0-.417.338-.756.756-.756M182.897 70.786a.756.756 0 01-.756-.756M182.141 69.652c0 .626-.507 1.134-1.133 1.134M181.008 40.128c.626 0 1.133.508 1.133 1.134M150.024 41.262c0-.626.508-1.134 1.133-1.134M151.157 70.786a1.134 1.134 0 01-1.133-1.134M181.008 30.733c.626 0 1.133.507 1.133 1.133M182.141 38.995c0 .626-.507 1.133-1.133 1.133M151.157 40.128a1.133 1.133 0 01-1.133-1.133M150.024 31.866c0-.626.508-1.133 1.133-1.133M182.141 34.889c0 .626-.507 1.133-1.133 1.133M151.157 36.022a1.133 1.133 0 01-1.133-1.133M70.672 70.786v37.787M70.672 70.786h2.645M70.672 108.572h2.645M80.446 70.786h2.267M80.446 108.572h2.267M112.237 107.439v-35.52M111.104 70.786h-28.39M81.58 71.919v35.52M82.713 108.572h28.39M72.184 107.439v-35.52M73.317 70.786h7.129M81.58 71.919v35.52M80.446 108.572h-7.129M77.474 71.919v35.52M111.104 70.786c.626 0 1.134.507 1.134 1.133M81.58 71.919c0-.626.507-1.133 1.134-1.133M82.713 108.572a1.134 1.134 0 01-1.134-1.134M112.237 107.439c0 .626-.508 1.134-1.134 1.134M72.184 71.919c0-.626.507-1.133 1.134-1.133M80.446 70.786c.626 0 1.133.507 1.133 1.133M81.58 107.439c0 .626-.507 1.134-1.133 1.134M73.317 108.572a1.134 1.134 0 01-1.134-1.134M76.34 70.786c.626 0 1.133.507 1.133 1.133M77.474 107.439c0 .626-.507 1.134-1.133 1.134M145.101 459.771l-1.645-.469m-.001 0l-1.551-.718m.001 0l-1.23-.968m0-.001l-.943-1.248m0 .001l-.594-1.448m0-.001l-.206-1.551m0 .001l.206-1.551m0-.001l.594-1.447m0 .001l.943-1.249m0-.001l1.23-.967m0 .001l1.551-.719m-.001-.001l1.645-.469m.001.001l1.698-.207m0 0l1.709.059m0 0l11.585 1.223m-.001-.001v10.654m0 0l-11.585 1.223m.001.001l-1.709.06m0-.001l-1.698-.208M154.371 449.252v4.117M154.371 453.369v4.117M139.218 453.369a5.731 5.731 0 01.886-3.063M140.104 450.305c1.723-2.217 4.238-3.414 6.83-3.248M146.934 447.057c2.609-.071 5.185.689 7.437 2.195M154.371 457.485c-2.252 1.505-4.828 2.265-7.437 2.195M146.934 459.68c-2.591.166-5.106-1.031-6.83-3.248M140.104 456.433a5.737 5.737 0 01-.886-3.064M160.092 448.721v9.296m0 0h-.189m0 0v-9.296m0 0h.189M160.092 462.816v-18.894M164.626 462.816v-18.894M160.092 462.816h4.534M160.092 443.922h4.534M100.664 378.579l-.008.005M100.664 378.579h1.294M101.366 376.94l-.108-.194M101.258 376.746l-.173-.138M101.085 376.608l-.213-.061M100.872 376.548l-.219.026M100.653 376.574l-.192.108M100.461 376.683l-.137.175M100.324 376.858l-.06.214M100.265 377.072l.026.221M98.015 385.341l-.121 1.901M95.422 386.604v.639M93.538 386.673l-.216.042M93.322 386.716l-.184.124M93.138 386.839l-.123.186M93.016 387.025l-.043.218M107.975 378.579h-6.017M101.958 378.579l-.592-1.639M101.366 376.94l-.431-1.338M100.935 375.602l-.143-.073M100.793 375.529l-.86.281M99.932 375.811l-.072.145M99.86 375.955l.431 1.338M100.291 377.293l.365 1.291M100.656 378.584l-1.053.655M99.604 379.239l-.899 1.878M98.705 381.117l-.6 2.811M98.105 383.927l-.09 1.414M98.015 385.341h-1.463M96.552 385.341h-1.13M95.422 385.341v1.263M95.422 386.604l-1.884.069M93.538 386.673h-1.394M92.144 386.673l-.113.113M92.031 386.786v.457M100.664 395.906l-.008-.004M100.664 395.906h1.294M101.366 397.545l-.108.194M101.258 397.739l-.173.138M101.085 397.877l-.213.061M100.872 397.938l-.219-.026M100.653 397.911l-.192-.108M100.461 397.803l-.137-.175M100.324 397.628l-.06-.214M100.265 397.414l.026-.221M98.015 389.144l-.121-1.901M95.422 387.881v-.638M93.538 387.813l-.216-.043M93.322 387.77l-.184-.124M93.138 387.646l-.123-.185M93.016 387.461l-.043-.218M107.975 395.906h-6.017M101.958 395.906l-.592 1.639M101.366 397.545l-.431 1.338M100.935 398.883l-.143.074M100.793 398.957l-.86-.282M99.932 398.674l-.072-.144M99.86 398.531l.431-1.338M100.291 397.192l.365-1.29M100.656 395.902l-1.053-.656M99.604 395.247l-.899-1.878M98.705 393.369l-.6-2.811M98.105 390.558l-.09-1.415M98.015 389.144h-1.463M96.552 389.144h-1.13M95.422 389.144v-1.263M95.422 387.881l-1.884-.068M93.538 387.813h-1.394M92.144 387.813l-.113-.114M92.031 387.699v-.457M104.653 376.691l-2.154.116m0 0l-1.827.329m0 0l-1.221.494m0-.001l-.428.582m0 .001l.428.583m0-.001l1.221.493m0 0l1.827.329m0 .001l2.154.116m0-.001l2.155-.116m0 .001l1.167-.21m0-2.39l-1.167-.21m0 0l-2.155-.116M104.653 397.795l-2.154-.116m0 0l-1.827-.33m0 0l-1.221-.493m0 0l-.428-.582m0 0l.428-.582m0 0l1.221-.494m0 0l1.827-.329m0 0l2.154-.116m0 0l2.155.116m0 0l1.167.21m0 2.389l-1.167.211m0 0l-2.155.116M96.069 381.316l-.545 1.813M97.31 379.034l.412-.301M96.713 379.776l.597-.743M94.982 385.914l.183-1.269M94.916 387.243l.066-1.329M95.524 383.129l-.359 1.516M96.069 381.316l.644-1.541M94.233 385.836l-.069 1.407M98.273 387.243l.091-2.154M98.363 385.089l.3-2.084M98.663 383.005l.538-1.945M99.202 381.06l.291-1.474M99.492 379.586l-.441-.673M99.051 378.913l-.671-.192M98.38 378.72l-.397-.034M97.982 378.686l-.26.047M97.722 378.733h-.461M97.261 378.733l-.412.301M96.849 379.034l-1.108 1.179M95.741 380.212l-.418.959M95.323 381.171l-.442 1.199M94.881 382.37l-.413 1.819M94.468 384.189l-.235 1.647M96.069 393.17l-.545-1.814M97.31 395.451l.412.301M96.713 394.71l.597.741M94.982 388.571l.183 1.269M94.916 387.243l.066 1.329M95.524 391.356l-.359-1.516M96.069 393.17l.644 1.54M94.233 388.649l-.069-1.406M98.273 387.243l.091 2.154M98.363 389.397l.3 2.084M98.663 391.481l.538 1.944M99.202 393.426l.291 1.475M99.492 394.9l-.441.672M99.051 395.573l-.671.192M98.38 395.765l-.397.033M97.982 395.798l-.26-.046M97.722 395.752h-.461M97.261 395.752l-.412-.301M96.849 395.451l-1.108-1.178M95.741 394.273l-.418-.959M95.323 393.314l-.442-1.199M94.881 392.115l-.413-1.819M94.468 390.296l-.235-1.647M94.643 384.947l.127-.757m0 0l.162-.75m0 0l.268-1.109m0 0l.138-.104m0 0l.272.01m0 0l.733.18m0 0l.491.235m0 0l.152.314m0 0l-.223.924m0 0l-.143.661m0 0l-.112.667m0 0l-.08.672m0 0l-.048.676m0 0l-.016.676m0 0l.016.677m0 0l.048.675m0 0l.08.672m0 0l.112.667m0 0l.143.662m0 0l.223.924m0 0l-.152.314m0 0l-.491.235m0 0l-.733.18m0 0l-.272.01m0 0l-.138-.104m0 0l-.268-1.109m0 0l-.162-.75m0 0l-.127-.757m0 0l-.091-.762m0 0l-.054-.766m0 0l-.018-.768m0 0l.018-.767m0 0l.054-.766m0 0l.091-.762M477.119 276.907v-67.26m0 0h-27.962m0 0v67.26m0 0h27.962M451.395 269.06l.085.974m0 0l.252.943m0 0l.412.886m-.001 0l.559.8m0 0l.689.691m.001 0l.799.56m-.001 0l.884.413m0 0l.941.253m.001 0l.971.085m-.001 0h12.304m.001 0l.97-.085m0 0l.943-.253m0 0l.882-.413m-.001 0l.799-.56m.001 0l.69-.691m0 0l.558-.8m-.001 0l.412-.886m.001 0l.252-.943m0 0l.085-.974m0 0v-45.4m0 0l-.177-2.044m-.001 0l-.531-1.982m0 0l-.865-1.859m.001 0l-1.174-1.681m0 0l-1.447-1.451m0 0l-1.677-1.177m-.001 0l-1.855-.866m0 0l-1.978-.532m0 0l-2.039-.178m0 0l-2.039.178m.001 0l-1.977.532m-.001 0l-1.856.866m.001 0l-1.677 1.177m0 0l-1.448 1.451m0 0l-1.174 1.681m0 0l-.865 1.859m-.001 0l-.53 1.982m.001 0l-.178 2.044m0 0v45.4M464.083 267.838a.944.944 0 11-1.889 0 .944.944 0 011.889 0zM439.123 252.469l-.469-1.645m-.001 0l-.719-1.552m.001 0l-.967-1.23m0 0l-1.248-.943m0 0l-1.448-.593m0 0l-1.551-.206m-.001 0l-1.552.206m.001 0l-1.447.593m-.001 0l-1.248.943m.001 0l-.968 1.23m0 0l-.718 1.552m0 0l-.469 1.645m-.001 0l-.208 1.697m0 0l.06 1.71m.001 0l1.223 11.584m0 0h10.654m0 0l1.223-11.584m-.001 0l.059-1.71m0 0l-.207-1.697M428.604 261.739h4.116M432.72 261.739h4.117M429.657 247.472a5.751 5.751 0 013.063-.886M426.409 254.301c-.165-2.591 1.031-5.106 3.248-6.83M428.604 261.739c-1.506-2.253-2.266-4.828-2.195-7.437M439.032 254.301c.071 2.61-.689 5.185-2.195 7.437M435.784 247.472c2.217 1.723 3.413 4.239 3.248 6.83M432.72 246.585a5.755 5.755 0 013.064.886M428.073 267.46h9.295m0 0v-.189m0 0h-9.295m0 0v.189M442.167 267.46h-18.893M442.167 271.994h-18.893M442.167 267.46v4.534M423.274 267.46v4.534M379.442 267.46h29.095m0 0l.401-.166m0 0l.166-.401m0 0v-14.358m0 0l-.166-.401m0 0l-.401-.166m0 0h-29.095m0 0l-.401.166m0 0l-.166.401m0 0v14.358m0 0l.166.401m0 0l.401.166M380.575 263.304h12.961m.907 0h12.96M407.97 262.737v-9.069M407.404 253.101h-26.829M380.008 253.668v9.069M407.97 262.737a.567.567 0 01-.567.567M407.404 253.101c.313 0 .567.254.567.567M380.008 253.668c0-.313.254-.567.567-.567M380.575 263.304a.567.567 0 01-.567-.567M394.745 260.212a.752.752 0 01-.302.604v-1.208a.754.754 0 01.302.604zm-1.209.604a.755.755 0 010-1.209v1.209zM394.443 266.931h-.907m0 0v-7.748m0 0l.256-.301m0 0h.395m0 0l.256.301m0 0v7.748M393.234 266.931h1.511m0 0v.265m0 0h-1.511m0 0v-.265M392.856 267.196h2.267m0 0v.264m0 0h-2.267m0 0v-.264M390.721 265.571v1.625m0 0h.095m0 0v.132m0 0h.283m0 0v.132m0 0h-1.889m0 0v-.132m0 0h.283m0 0v-.132m0 0h.094m0 0v-1.625m0 0h.322m0 0v-.416m0 0h-1.077m0 0v-.491m0 0h2.645m0 0v.491m0 0H390.4m0 0v.416m0 0h.321M397.258 265.571v1.625m0 0h-.095m0 0v.132m0 0h-.282m0 0v.132m0 0h1.889m0 0v-.132m0 0h-.284m0 0v-.132m0 0h-.094m0 0v-1.625m0 0h-.322m0 0v-.416m0 0h1.078m0 0v-.491m0 0h-2.645m0 0v.491m0 0h1.076m0 0v.416m0 0h-.321M389.908 265.155l.072-.072M390.4 265.155l-.072-.072M389.908 265.571h.491M389.587 267.196h1.134M390.815 267.328h-1.323M398.07 265.155l-.072-.072M397.579 265.155l.072-.072M398.07 265.571h-.491M398.392 267.196h-1.134M397.163 267.328h1.323M390.4 264.91a.246.246 0 11-.491 0 .246.246 0 01.491 0zM398.07 264.91a.246.246 0 11-.492 0 .246.246 0 01.492 0zM103.601 164.304v-3.028m0-.001h-.858m0 0H85.567m0 0h-.859m0 0v3.028M84.708 157.848v3.427m0 0h.858m.001 0v-3.224m0 0h-.057m0 0l-.294.196m0 0l-.342-.087m-.001 0l-.165-.312M85.509 155.489l-.293.196m0 0l-.343-.087m0 0l-.165-.312m0 0v2.562m0 0l.165.312m0 0l.343.087m0 0l.293-.196m0 0H102.8m0 0l.293.196m0 0l.343-.087m0 0l.165-.312m0 0v-2.562m0 0l-.165.312m0 0l-.343.087m0 0l-.293-.196m0 0H85.509M103.601 157.848l-.165.312m0 0l-.342.087m0 0l-.294-.196m0 0h-.057m0 0v3.224m0 0h.858m0 0v-3.427M86.372 155.084h15.565m0 0l-1.004-.227m0 0H87.376m0 0l-1.004.227M85.509 155.084l-.293-.197m0 0l-.343.087m0 0l-.165.312m0 0l.165.313m0 0l.343.087m0 0l.293-.197m0 0H102.8m0 0l.293.197m0 0l.343-.087m0 0l.165-.313m0 0l-.165-.312m0 0l-.343-.087m0 0l-.293.197m0 0H85.509M125.517 164.304v-3.028m0-.001h-.859m.001 0h-17.175m-.001 0h-.859m.001 0v3.028M106.625 157.848v3.427m0 0h.859m-.001 0v-3.224m0 0h-.058m.001 0l-.293.196m0 0l-.343-.087m0 0l-.165-.312M107.426 155.489l-.293.196m0 0l-.343-.087m0 0l-.165-.312m0 0v2.562m0 0l.165.312m0 0l.343.087m0 0l.293-.196m0 0h17.291m0 0l.293.196m0 0l.343-.087m0 0l.165-.312m0 0v-2.562m0 0l-.165.312m0 0l-.343.087m0 0l-.293-.196m0 0h-17.291M125.517 157.848l-.165.312m0 0l-.342.087m.001 0l-.294-.196m-.001 0h-.058m.001 0v3.224m0 0h.859m-.001 0v-3.427M108.288 155.084h15.566m0 0l-1.005-.227m0 0h-13.556m0 0l-1.005.227M107.426 155.084l-.293-.197m0 0l-.343.087m0 0l-.165.312m0 0l.165.313m0 0l.343.087m0 0l.293-.197m0 0h17.291m0 0l.293.197m0 0l.343-.087m0 0l.165-.313m0 0l-.165-.312m0 0l-.343-.087m0 0l-.293.197m0 0h-17.291M125.517 198.311v3.029m0-.001h-.859m.001 0h-17.175m-.001 0h-.859m.001 0v-3.029M106.625 204.767v-3.427m0 0h.859m-.001 0v3.224m0 0h-.058m.001 0l-.293-.196m0 0l-.343.087m0 0l-.165.312M107.426 207.125l-.293-.196m0 .001l-.343.086m0 0l-.165.313m0-.001v-2.562m0 .001l.165-.312m0 0l.343-.087m0 0l.293.196m0 0h17.291m0 0l.293-.196m0 0l.343.087m0 0l.165.312m0 0v2.562m0-.001l-.165-.313m0 .001l-.343-.086m0 0l-.293.196m0-.001h-17.291M125.517 204.767l-.165-.312m0 0l-.342-.087m.001 0l-.294.196m-.001 0h-.058m.001 0v-3.224m0 0h.859m-.001 0v3.427M108.288 207.531h15.566m0 0l-1.005.227m0 0h-13.556m0 0l-1.005-.227M107.426 207.531l-.293.196m0 0l-.343-.087m0 0l-.165-.312m0 0l.165-.313m0 0l.343-.086m0 0l.293.196m0 0h17.291m0 0l.293-.196m0 0l.343.086m0 0l.165.313m0 0l-.165.312m0 0l-.343.087m0 0l-.293-.196m0 0h-17.291M128.541 164.304v-3.028m0-.001h.859m0 0h17.176m0 0h.859m0 0v3.028M147.434 157.848v3.427m0 0h-.859m.001 0v-3.224m0 0h.057m-.001 0l.294.196m0 0l.343-.087m0 0l.165-.312M146.633 155.489l.294.196m0 0l.343-.087m0 0l.165-.312m0 0v2.562m0 0l-.165.312m0 0l-.343.087m0 0l-.294-.196m0 0h-17.291m0 0l-.293.196m0 0l-.343-.087m0 0l-.165-.312m0 0v-2.562m0 0l.165.312m0 0l.343.087m0 0l.293-.196m0 0h17.291M128.541 157.848l.165.312m0 0l.343.087m0 0l.293-.196m0 0h.058m0 0v3.224m0 0h-.859m0 0v-3.427M145.77 155.084h-15.565m0 0l1.004-.227m.001 0h13.557m-.001 0l1.004.227M146.633 155.084l.294-.197m0 0l.343.087m0 0l.165.312m0 0l-.165.313m0 0l-.343.087m0 0l-.294-.197m0 0h-17.291m0 0l-.293.197m0 0l-.343-.087m0 0l-.165-.313m0 0l.165-.312m0 0l.343-.087m0 0l.293.197m0 0h17.291M128.541 198.311v3.029m0-.001h.859m0 0h17.176m0 0h.859m0 0v-3.029M147.434 204.767v-3.427m0 0h-.859m.001 0v3.224m0 0h.057m-.001 0l.294-.196m0 0l.343.087m0 0l.165.312M146.633 207.125l.294-.196m0 .001l.343.086m0 0l.165.313m0-.001v-2.562m0 .001l-.165-.312m0 0l-.343-.087m0 0l-.294.196m0 0h-17.291m0 0l-.293-.196m0 0l-.343.087m0 0l-.165.312m0 0v2.562m0-.001l.165-.313m0 .001l.343-.086m0 0l.293.196m0-.001h17.291M128.541 204.767l.165-.312m0 0l.343-.087m0 0l.293.196m0 0h.058m0 0v-3.224m0 0h-.859m0 0v3.427M145.77 207.531h-15.565m0 0l1.004.227m.001 0h13.557m-.001 0l1.004-.227M146.633 207.531l.294.196m0 0l.343-.087m0 0l.165-.312m0 0l-.165-.313m0 0l-.343-.086m0 0l-.294.196m0 0h-17.291m0 0l-.293-.196m0 0l-.343.086m0 0l-.165.313m0 0l.165.312m0 0l.343.087m0 0l.293-.196m0 0h17.291M103.601 198.311v3.029m0-.001h-.858m0 0H85.567m0 0h-.859m0 0v-3.029M84.708 204.767v-3.427m0 0h.858m.001 0v3.224m0 0h-.057m0 0l-.294-.196m0 0l-.342.087m-.001 0l-.165.312M85.509 207.125l-.293-.196m0 .001l-.343.086m0 0l-.165.313m0-.001v-2.562m0 .001l.165-.312m0 0l.343-.087m0 0l.293.196m0 0H102.8m0 0l.293-.196m0 0l.343.087m0 0l.165.312m0 0v2.562m0-.001l-.165-.313m0 .001l-.343-.086m0 0l-.293.196m0-.001H85.509M103.601 204.767l-.165-.312m0 0l-.342-.087m0 0l-.294.196m0 0h-.057m0 0v-3.224m0 0h.858m0 0v3.427M86.372 207.531h15.565m0 0l-1.004.227m0 0H87.376m0 0l-1.004-.227M85.509 207.531l-.293.196m0 0l-.343-.087m0 0l-.165-.312m0 0l.165-.313m0 0l.343-.086m0 0l.293.196m0 0H102.8m0 0l.293-.196m0 0l.343.086m0 0l.165.313m0 0l-.165.312m0 0l-.343.087m0 0l-.293-.196m0 0H85.509M155.746 198.311v-34.008m0 .001h-79.35m0 0v34.008m0-.001h79.351M107.976 353.235h26.072m0 0v56.679m0 0h-26.072m0 0v-56.679M65.06 409.915h60.424m-.001 0v10.202m0 0H65.06m0 0v-10.202M146.206 324.518v-17.004m0 0h40.573m0 0v17.004m0 0h-40.573M65.06 307.514h40.573m-.001 0v17.004m0 0H65.06m0 0v-17.004M105.633 324.518v-17.004m0 0h40.573m0 0v17.004m0 0h-40.573M186.779 324.518v-17.004m0 0h42.084m0 0v17.004m0 0h-42.084M378.875 259.903h-19.649m0 0v7.557m0 0h19.649m0 0v-7.557M209.025 275.962v-19.271m0 0l.221-.534m0 0l.535-.221m0 0h17.382m0 0l.534.221m0 0l.221.534m0 0v19.271m0 0l-.221.535m0 0l-.534.221m0 0h-17.382m0 0l-.535-.221m0 0l-.221-.535M206.191 281.441v-30.229M228.863 281.441v-30.229M206.191 281.441h22.673M206.191 251.212h22.673M210.915 274.073V258.58M211.67 257.825h11.714M224.14 258.58v7.002m0 1.489v7.002M223.384 274.829H211.67M210.915 274.073h.108a.108.108 0 10-.216 0 .108.108 0 00.216 0h-.108zM210.915 258.58c0-.417.338-.755.755-.755M223.384 257.825c.417 0 .756.338.756.755M224.14 274.073a.756.756 0 01-.756.756M211.67 274.829a.755.755 0 01-.755-.756M219.308 266.667l-.24-.101m0 0l-.099-.24m0 0l.1-.241m0 0l.24-.099m0 0h7.477m0 0l.24.1m0 0l.099.241m-.001 0l-.099.24m.001 0l-.24.1m0 0h-7.478M224.858 267.081v-.414m0 0h1.927m0 0l.24-.1m0 0l.1-.24m0 0l-.1-.241m0 0l-.24-.1m0 0h-1.927m0 0v-.414m0 0h2.457m0 0v1.509m0 0h-2.457M223.498 267.071v-.404m0 0h1.323m-.001 0v.404m0 0h-1.323M223.498 265.582h1.323m-.001 0v.404m0 0h-1.323m.001 0v-.404M99.584 571.029l-6.947 6.947M91.034 577.977l-2.802-2.803M88.232 575.174l-1.603 1.604M86.629 576.777l-17.634-17.634M68.995 559.143l1.603-1.604M70.598 557.54l-1.473-1.473M69.125 554.464l6.947-6.947M77.675 549.12l-6.947 6.947M84.996 556.441l-6.947 6.947M88.232 575.174L70.598 557.54M99.584 571.029l6.947-6.947M106.531 562.48l-2.802-2.803M103.729 559.677l1.603-1.603M105.332 558.074l-17.634-17.635M87.698 540.44l-1.604 1.603M86.095 542.043l-1.473-1.473M83.018 540.57l-6.946 6.947M77.675 549.12l6.947-6.947M84.996 556.441l6.947-6.947M103.729 559.677l-17.634-17.634M92.638 577.977a1.136 1.136 0 01-1.604 0M69.125 556.067a1.133 1.133 0 010-1.603M70.728 556.067a1.133 1.133 0 01-1.603 0M78.049 563.388a1.133 1.133 0 01-1.603 0M106.531 562.48c.443.442.443 1.16 0 1.603M83.018 540.57a1.134 1.134 0 011.604 0M84.622 540.57a1.135 1.135 0 010 1.603M91.943 547.891a1.134 1.134 0 010 1.604M99.584 624.928l-6.947-6.947M91.034 617.982l-2.802 2.802M88.232 620.784l-1.603-1.603M86.629 619.181l-17.634 17.634M68.995 636.815l1.603 1.603M70.598 638.418l-1.473 1.473M69.125 641.494l6.947 6.947M77.675 646.837l-6.947-6.946M84.996 639.517l-6.947-6.947M88.232 620.784l-17.634 17.634M99.584 624.928l6.947 6.947M106.531 633.478l-2.802 2.802M103.729 636.28l1.603 1.604M105.332 637.884l-17.634 17.634M87.698 655.518l-1.604-1.603M86.095 653.915l-1.473 1.473M83.018 655.388l-6.946-6.947M77.675 646.837l6.947 6.948M84.996 639.517l6.947 6.947M103.729 636.28l-17.634 17.635M91.034 617.982a1.134 1.134 0 011.604 0M69.125 641.494a1.134 1.134 0 010-1.604M69.125 639.891a1.133 1.133 0 011.603 0M76.446 632.57a1.133 1.133 0 011.603 0M106.531 631.875a1.133 1.133 0 010 1.603M84.622 655.388a1.134 1.134 0 01-1.604 0M84.622 653.785c.442.442.442 1.16 0 1.603M91.943 646.464c.443.442.443 1.16 0 1.603M310.904 77.059l6.947 6.947M319.454 84.006l2.801-2.802M322.256 81.204l1.604 1.604M323.859 82.807l17.634-17.634M341.493 65.173l-1.603-1.603M339.89 63.57l1.473-1.473M341.363 60.494l-6.947-6.947M332.813 55.149l6.947 6.948M325.492 62.471l6.947 6.947M322.256 81.204L339.89 63.57M310.904 77.059l-6.947-6.947M303.957 68.509l2.802-2.802M306.759 65.707l-1.604-1.604M305.156 64.103L322.79 46.47M322.79 46.47l1.603 1.603M324.393 48.073l1.473-1.473M327.469 46.6l6.947 6.947M332.813 55.149l-6.947-6.946M325.492 62.471l-6.947-6.947M306.759 65.707l17.634-17.634M319.454 84.006a1.133 1.133 0 01-1.603 0M341.363 60.494a1.135 1.135 0 010 1.603M341.363 62.097a1.135 1.135 0 01-1.603 0M334.042 69.418a1.134 1.134 0 01-1.604 0M303.957 70.112a1.134 1.134 0 010-1.604M325.866 46.6a1.135 1.135 0 011.603 0M325.866 48.203a1.133 1.133 0 010-1.603M318.546 55.524a1.134 1.134 0 010-1.604M310.904 101.149l6.947-6.947M319.454 94.202l2.801 2.802M322.256 97.004l1.604-1.603M323.859 95.401l17.634 17.634M341.493 113.035l-1.603 1.604M339.89 114.639l1.473 1.473M341.363 117.715l-6.947 6.946M332.813 123.059l6.947-6.947M325.492 115.737l6.947-6.947M322.256 97.004l17.634 17.634M310.904 101.149l-6.947 6.947M303.957 109.699l2.802 2.802M306.759 112.502l-1.604 1.603M305.156 114.105l17.634 17.634M322.79 131.739l1.603-1.603M324.393 130.136l1.473 1.473M327.469 131.609l6.947-6.948M332.813 123.059l-6.947 6.947M325.492 115.737l-6.947 6.947M306.759 112.502l17.634 17.634M317.85 94.202a1.133 1.133 0 011.603 0M341.363 116.111a1.136 1.136 0 010 1.604M339.76 116.111a1.135 1.135 0 011.603 0M332.439 108.791a1.134 1.134 0 011.604 0M303.957 109.699a1.134 1.134 0 010-1.604M327.469 131.609a1.135 1.135 0 01-1.603 0M325.866 131.609a1.133 1.133 0 010-1.603M318.546 124.288a1.133 1.133 0 010-1.603M210.537 412.962l-.746.156m0 0l-.737.228m0 0l-.722.271m0 0l-.702.285m0 0l-.677.273m0 0l-.647.23m0 0l-.613.16m0 0l-.481.052m0 0l-.374.053m0 0l-.598-.008m0 0l-.655-.112m0 0l-.44-.12m0 0l-.238-.075m0 0l-.453-.16m0 0l-.666-.301m0 0l-.596-.343m0 0l-.115-.084m0 0l-.372-.275m0 0l-.835-.787m0 0l-.764-.809m0 0l-.718-.859m0 0l-.639-.881m0 0l-.505-.814m0 0l-.435-.817m0 0l-.297-.768m0 0l-.137-.695m0 0l-.052-.436m0 0l-.052-.492m0 0l-.037-.543m0 0l-.02-.889m0 0l.018-.6m0 0l.074-.638m0 0l.146-.677m0 0l.231-.713m0 0l.333-.748m0 0l.29-.603m0 0l.271-.512m0 0l.29-.469m0 0l.346-.477m0 0l.44-.535m0 0l.572-.642m0 0l.236-.255m0 0l.489-.549m0 0l.936-1.014m0 0l1.19-1.267m0 0l1.274-1.197m0 0l1.021-.942m0 0l.827-.748m0 0l.645-.575m0 0l.536-.442m0 0l.478-.347m0 0l.47-.29m0 0l.512-.272m0 0l.604-.29m0 0l.758-.325m0 0l.718-.23m0 0l.68-.149m0 0l.639-.08m0 0l.599-.024m0 0l.483.016m0 0l.459.003m0 0l.549.036m0 0l.495.054m0 0l.434.061m0 0l.702.152m0 0l.764.304m0 0l.784.407m0 0l.854.525m0 0l.854.632m0 0l.832.71m0 0l.789.758m0 0l.784.828m0 0l.357.488m0 0l.342.597m0 0l.3.667m0 0l.155.457m0 0l.076.238m0 0l.118.442m0 0l.11.657m0 0l.006.6m0 0l-.105.855m0 0l-.16.613m0 0l-.23.647m0 0l-.273.677m0 0l-.285.702m0 0l-.27.721m0 0l-.227.737m0 0l-.156.746m0 0l-.01.141m0 0l.123-.174m0 0l.338-.51m0 0l.54-.901m0 0l.503-.782m0 0l.32-.405m0 0l.416-.55m0 0l.416-.183m0 0l.303-.129m0 0l.269.192m0 0l.547.464m0 0l.322.328m0 0l.363.696m0 0l.263 1.053m0 0l.025 1.401m0 0l-.379 2.051m0 0l-.788 2.014m0 0l-1.457 2.349m0 0l-.154.202m0 0l-2.105 2.524m0 0l-2.525 2.112m0 0l-.176.125m0 0l-2.346 1.455m0 0l-2.005.783m0 0l-2.022.345m0 0l-1.395-.03m0 0l-1.048-.269m0 0l-.691-.368m0 0l-.325-.326m0 0l-.463-.55m0 0l-.192-.269m0 0l.129-.303m0 0l.182-.415m0 0l.949-.729m0 0l.78-.503m0 0l1.158-.718m0 0l.42-.29m0 0l-.126.009M165.35 409.854l.747.156m0 0l.736.228m0-.001l.722.271m0 0l.702.285m0 .001l.677.273m0 0l.647.23m0 0l.613.16m0 0l.481.051m-.001-.001l.374.054m.001.001l.598-.008m-.001 0l.656-.112m.001 0l.439-.12m0-.001l.238-.075m0 .001l.454-.16m0-.001l.665-.301m0 0l.596-.343m0 0l.115-.084m0 .001l.372-.275m0 0l.835-.787m0 0l.765-.809m0 0l.717-.859m0-.001l.639-.881m0 0l.505-.815m0 .001l.435-.816m0-.001l.297-.768m0 .001l.137-.695m0-.001l.052-.436m0 0l.052-.492m0 .001l.037-.543m0 0l.02-.889m0 0l-.017-.6m0 0l-.075-.639m0 0l-.145-.676m0 0l-.232-.713m0 0l-.333-.748m0 0l-.29-.604m0-.001l-.271-.511m0 .001l-.29-.47m0-.001l-.346-.477m0 .001l-.44-.534m0 0l-.572-.643m0 0l-.235-.254m0-.001l-.49-.549m0 .001l-.936-1.014m0 0l-1.19-1.267m0 0l-1.274-1.197m0 0l-1.021-.942m0 0l-.826-.749m0 0l-.645-.574m0 0l-.537-.442m-.001-.001l-.478-.348m.001.001l-.47-.29m0 0l-.511-.271m-.001 0l-.604-.29m.001 0l-.758-.325m0 0l-.719-.231m0 0l-.679-.148m0 0l-.64-.08m0 0l-.598-.024m-.001 0l-.484.016m.001 0l-.458.003m0 0l-.55.036m0 0l-.494.054m0 0l-.434.061m0 0l-.702.151m0 0l-.764.305m-.001 0l-.785.407m.001-.001l-.854.525m-.001 0l-.854.632m.001.001l-.832.709m0 0l-.789.759m0 0l-.783.828m0 0l-.357.488m0-.001l-.342.597m0 0l-.3.667m0 0l-.155.457m0 .001l-.077.238m0-.001l-.118.442m0 .001l-.11.656m0 0l-.005.601m0 0l.104.854m0 0l.16.613m0 0l.231.647m0 0l.272.677m0 0l.285.702m-.001-.001l.27.722m.001.001l.227.736m0 0l.156.746m0 0l.011.142m0 0l-.124-.174m-.001 0l-.338-.51m.001 0l-.54-.902m0 0l-.503-.781m0-.001l-.319-.405m0 .001l-.417-.55m0-.001l-.415-.183m0 .001l-.303-.129m0 0l-.27.192m0 0l-.547.464m0 0l-.322.328m0 0l-.363.696m0-.001l-.263 1.053m0 .001l-.025 1.401m0 0l.379 2.051m0 0l.788 2.013m0-.001l1.458 2.35m0 .001l.153.201m0 0l2.105 2.525m0-.001l2.525 2.112m0 .001l.177.125m0 0l2.345 1.455m0 0l2.005.782m0 0l2.023.346m0-.001l1.395-.031m-.001.001l1.048-.269m.001 0l.69-.367m0-.001l.325-.326m0 0l.463-.55m0 .001l.193-.27m0-.001l-.13-.302m0 .001l-.181-.415m0 0l-.95-.73m0 0l-.78-.502m0 0l-1.158-.718m0 0l-.42-.29m-.001 0l.126.009M206.191 228.54v22.672M228.863 228.54v22.672M206.191 228.54h22.673M206.191 251.212h22.673M65.06 281.441h22.672m0 0v23.049m0 0H65.06m0 0v-23.049M144.883 283.708h-21.916m0 0v18.516m0 0h21.916m0 0v-18.516M133.925 294.988v5.299M133.925 300.287h-1.096M133.925 294.988h-1.096M125.071 294.988v5.299M126.167 300.287h-1.096M126.167 294.988h-1.096M142.911 297.853a2.74 2.74 0 11-5.48 0 2.74 2.74 0 015.48 0zM142.867 289.615a3.967 3.967 0 11-7.934 0 3.967 3.967 0 017.934 0z"/><path class="st2" d="M141.168 289.615a2.267 2.267 0 11-4.534 0 2.267 2.267 0 014.534 0zM132.143 297.669a2.645 2.645 0 11-5.29 0 2.645 2.645 0 015.29 0zM131.781 289.078a3.4 3.4 0 11-6.802 0 3.4 3.4 0 016.802 0zM157.447 281.441h-47.044M157.447 304.49h-47.044M157.447 281.441v23.049M110.403 281.441v23.049M206.191 205.868v22.672m0 0h22.672m.001 0v-22.672m0 0h-22.672M221.306 217.205h-7.558M220.199 214.532l-5.344 5.344M217.527 213.426v7.557M214.855 214.532l5.344 5.344M202.791 281.441h-22.672M202.791 304.49h-22.672M202.791 281.441v23.049M180.119 281.441v23.049M180.119 281.441h-22.672M180.119 304.49h-22.672M180.119 281.441v23.049M157.447 281.441v23.049M87.731 281.441h22.672m0 0v23.049m0 0H87.731m0 0v-23.049M145.801 530.831v-64.237M164.693 530.831v-64.237M145.801 466.594h18.893M145.801 530.831h18.893M149.012 523.462v-17.381M149.012 506.081h12.47M161.482 506.081v8.237m0 .907v8.237M161.482 523.462h-12.47M149.012 491.344v-17.382M149.012 473.962h12.47M161.482 473.962v8.238m0 .907v8.237M161.482 491.344h-12.47M159.728 515.225a1.135 1.135 0 01-2.078 0h2.078zm-2.078-.908a1.133 1.133 0 012.077 0h-2.077zM159.728 483.107a1.135 1.135 0 01-2.078 0h2.078zm-2.078-.907a1.134 1.134 0 012.078 0h-2.078zM164.164 514.318v.907m0 0h-7.748m.001 0l-.301-.256m-.001 0v-.395m0 0l.301-.256m.001 0h7.748M164.164 515.528v-1.512m0 0h.264m.001 0v1.512m0 0h-.264M164.429 515.905v-2.268m0 0h.265m0 0v2.268m0 0h-.265M162.804 518.04h1.625m0 0v-.095m0 0h.132m0 0v-.283m0 0h.132m0 0v1.889m0 0h-.132m0 0v-.283m0 0h-.132m0 0v-.094m0 0h-1.625m0 0v-.322m0 0h-.416m0 0v1.077m0 0h-.491m0 0v-2.645m0 0h.491m0 0v1.077m0 0h.416m0 0v-.321M162.804 511.503h1.625m0 0v.095m0 0h.132m0 0v.283m0 0h.132m0 0v-1.89m0 0h-.132m0 0v.284m0 0h-.132m0 0v.094m0 0h-1.625m0 0v.322m0 0h-.416m0 0v-1.078m0 0h-.491m0 0v2.645m0 0h.491m0 0v-1.076m0 0h.416m0 0v.321M164.164 482.2v.907m0 0h-7.748m.001 0l-.301-.256m-.001 0v-.395m0 0l.301-.256m.001 0h7.748M164.164 483.409v-1.511m0 0h.264m.001 0v1.511m0 0h-.264M164.429 483.787v-2.267m0 0h.265m0 0v2.267m0 0h-.265M162.804 485.921h1.625m0 0v-.094m0 .001h.132m0 0v-.284m0 0h.132m0 0v1.889m0 0h-.132m0 0v-.283m0-.001h-.132m0 0v-.094m0 .001h-1.625m0 0v-.322m0 0h-.416m0 0v1.077m0-.001h-.491m0 0v-2.644m0 .001h.491m0 0v1.076m0 0h.416m0 0v-.321M162.804 479.385h1.625m0 0v.094m0 0h.132m0 0v.283m0 0h.132m0 0v-1.889m0 0h-.132m0 0v.284m0 0h-.132m0 0v.094m0 0h-1.625m0 0v.322m0 0h-.416m0 0v-1.078m0 0h-.491m0 0v2.645m0 0h.491m0 0v-1.076m0 0h.416m0 0v.321M162.389 518.853l-.072-.072M162.389 518.361l-.072.071M162.804 518.853v-.491M164.429 519.174v-1.134M164.562 517.945v1.323M162.389 510.691l-.072.072M162.389 511.182l-.072-.072M162.804 510.691v.49M164.429 510.369v1.134M164.562 511.598v-1.323M162.389 486.734l-.072-.072M162.389 486.243l-.072.072M162.804 486.734v-.491M164.429 487.055v-1.134M164.562 485.827v1.322M162.389 478.572l-.072.072M162.389 479.064l-.072-.072M162.804 478.572v.491M164.429 478.251v1.134M164.562 479.479v-1.322M162.389 518.607a.246.246 0 11-.492 0 .246.246 0 01.492 0zM162.389 510.936a.246.246 0 11-.492 0 .246.246 0 01.492 0zM162.389 486.488a.246.246 0 11-.492 0 .246.246 0 01.492 0zM162.389 478.818c0 .135-.11.246-.246.246a.246.246 0 010-.492c.136 0 .246.11.246.246zM106.625 530.831v-41.565M106.625 489.266H72.618M72.617 489.266v41.565M100.956 524.218a.945.945 0 11-1.89 0 .945.945 0 011.89 0zM88.185 517.847l1.397-.372m0 0l1.208-.793m0 0l.898-1.132m0 0l.497-1.358m0 0l.042-1.445m0 0l-.413-1.385m0 0l-.829-1.184m0 0l-1.159-.864m0 0l-1.372-.455m0 0h-1.445m0 0l-1.372.455m0 0l-1.16.864m0 0l-.828 1.184m0 0l-.414 1.385m0 0l.044 1.445m0 0l.495 1.358m0 0l.898 1.132m0 0l1.209.793m0 0l1.397.372m0 0v5.538m0 0l-.456-.108m0 0l-.489-.037m0 0l-.489.037m0 0l-.455.108m0 0l-.392.172m0 0l-.3.225m0 0l-.189.261m0 0l-.064.28m0 0v.403m0 0l.019.12m0 0l.064.278m0 0l.055.103m0 0l.181.251m0 0l.078.07m0 0l.274.205m0 0l.357.157m0 0l.195.052m0 0l.25.059m0 0l.02.688m0 0l.009.796m0 0h-1.729m0 0v.435m0 0h-2.871m0 0l-.16.058m0 0l-.083.149m0 0l.033.166m0 0l.133.106m0 0l.486.157m0 0l.726.315m0 0l1.007.574m0 0l.729.258m0 0v.125m0 0h-.604m0 0v.982m0 0h2.569m0 0v-.877m0 0l.063-.038m0 0l.032-.034m0 0l.026-.04m0 0l.278-.673m0 0h.697m0 0v1.36m0 0H86.22m0 0v.302m0 0h3.023m0 0v-.302m0 0h-1.058m0 0v-1.36m0 0h1.436m0 0v-.152m0 0h.416m0 0v.303m0 0h-.151m0 0v.529m0 0h-.605m0 0v.982m0 0h2.569m0 0v-.982m0 0h-.604m0 0v-.529m0 0h-.152m0 0v-.303m0 0h.152m0 0v-1.511m0 0h-2.57m0 0v-2.154m0 0h-.082m0 0H88.5m0 0h-.123m0 0h-.15m0 0h-.042m0 0v-7.504M85.842 529.168h.209m0 0l-.14.341m0 0l-.325.053m0 0l-.009-.002m0 0v-.241m0 0h-.151m0 0v-.302m0 0h.416m0 0v.151M84.368 529.017v.241m0 0l-.676-.24m0 0l-.988-.563m0 0l-.053-.023m0 0h1.566m0 0v.585m0 0h.151M90.225 529.848v-.529M90.906 529.848v-.529M84.568 529.848h-.351M85.427 529.319h-.189M85.237 529.319h-.68M84.558 529.319h-.014M85.237 529.495v-.176M84.558 529.324v-.005M84.368 529.017h1.059M86.721 527.505h.558M84.217 528.431v-.491M86.787 526.938h.491M81.422 527.952l-.076-.012M85.571 530.056l.047-.002M85.401 530.024l.17.031M86.116 529.972l.046-.01M86.163 529.962l.019-.009M84.217 529.724l.453.161M84.67 529.884l.73.139M85.526 529.551l.06.011M81.422 527.952l.512.167M81.934 528.119l.717.312M84.628 529.867h.108a.108.108 0 10-.216 0 .108.108 0 00.216 0h-.108zM85.618 530.054l.499-.082M87.276 525.45l.002.002M87.278 525.981l-.002.001M85.842 528.621v.127M85.842 528.866v.103M85.842 528.748v.118M86.052 529.168h.523M84.804 529.411l.722.14M84.368 529.257l.436.154M86.523 528.535h.108a.108.108 0 00-.216 0 .108.108 0 00.216 0h-.108zM86.431 528.579l.091-.044M86.334 528.594l.097-.015M86.235 528.579l.098.015M86.145 528.535l.091.044M86.145 528.535h.108a.108.108 0 10-.216 0 .108.108 0 00.216 0h-.108zM85.989 526.038l.345.026M86.334 526.065l.345-.027M85.917 526.021l.071.017M86.999 525.962l.197-.052M86.678 526.038l.321-.076M85.964 528.367l-.009-.062M87.195 525.91l.083-.036M86.749 526.021l-.019.688M86.711 528.305l-.009.062M86.702 528.367l-.026.058M86.676 528.425l-.042.049M86.634 528.475l-.055.038M86.579 528.513l-.056.021M86.522 528.534l-.007.003M86.515 528.537l-.068.008M86.447 528.545h-.227M86.22 528.545l-.068-.008M86.152 528.537l-.007-.003M86.144 528.534l-.056-.021M86.088 528.513l-.055-.038M86.033 528.475l-.042-.049M85.991 528.425l-.027-.058M86.73 526.709l-.019 1.596M85.946 527.505l.009.801M85.842 527.808h.107M86.717 527.808h.561M88.185 517.847v-5.343M87.278 517.847v-5.343M88.185 512.504h-.907M91.246 529.848h-1.36M91.094 529.319h-1.058M91.094 529.017h-1.058M89.621 529.017v-1.209M85.842 527.808v1.209M88.185 530.528h-.907M88.185 529.168v-3.816M87.278 523.385v5.783M89.621 527.808h-1.436M88.676 527.505h-.491M88.676 526.938h-.491M86.787 527.505v-1.493M87.278 515.17a1.89 1.89 0 11.907 0M89.621 527.891a.34.34 0 110 .589M155.405 89.847c0 7.22-5.853 13.073-13.073 13.073-7.219 0-13.073-5.853-13.073-13.073 0-7.22 5.854-13.073 13.073-13.073 7.22 0 13.073 5.853 13.073 13.073zM123.289 611.179c0 7.22-5.853 13.073-13.073 13.073-7.22 0-13.073-5.853-13.073-13.073 0-7.22 5.853-13.073 13.073-13.073 7.22 0 13.073 5.853 13.073 13.073zM314.35 89.847c0 7.22-5.853 13.073-13.073 13.073-7.22 0-13.073-5.853-13.073-13.073 0-7.22 5.853-13.073 13.073-13.073 7.22 0 13.073 5.853 13.073 13.073zM198.464 384.866a9.446 9.446 0 01-9.447 9.446 9.446 9.446 0 01-9.446-9.446 9.447 9.447 0 1118.893 0zM129.296 441.655c0 8.348-12.688 15.115-28.34 15.115-15.651 0-28.339-6.767-28.339-15.115 0-8.347 12.688-15.114 28.339-15.114 15.652 0 28.34 6.767 28.34 15.114z"/><path class="st2" d="M125.684 441.655c0 7.717-11.122 13.973-24.841 13.973-13.719 0-24.84-6.256-24.84-13.973 0-7.717 11.121-13.973 24.84-13.973s24.841 6.256 24.841 13.973z"/><path class="st2" d="M102.922 441.655a2.08 2.08 0 11-4.159 0 2.08 2.08 0 014.159 0zM466.538 298.445a7.18 7.18 0 11-14.36 0 7.18 7.18 0 0114.36 0zM218.998 236.719a3.412 3.412 0 11-6.824 0 3.412 3.412 0 016.824 0z"/><path class="st2" d="M218.477 236.719a2.89 2.89 0 11-5.78 0 2.89 2.89 0 015.78 0zM217.334 243.028a2.58 2.58 0 11-5.161-.001 2.58 2.58 0 015.161.001z"/><path class="st2" d="M216.2 243.028a1.445 1.445 0 11-2.89 0 1.445 1.445 0 012.89 0zM471.451 32.251a3.778 3.778 0 11-7.556 0 3.778 3.778 0 017.556 0z"/><path class="st2" d="M468.807 32.251a1.134 1.134 0 11-2.268-.002 1.134 1.134 0 012.268.002zM471.451 121.048a3.778 3.778 0 11-7.557.001 3.778 3.778 0 017.557-.001z"/><path class="st2" d="M468.807 121.048a1.134 1.134 0 11-2.269 0 1.134 1.134 0 012.269 0zM236.712 648.346a3.778 3.778 0 11-7.557.001 3.778 3.778 0 017.557-.001z"/><path class="st2" d="M234.067 648.346a1.134 1.134 0 11-2.269 0 1.134 1.134 0 012.269 0zM147.915 648.346a3.78 3.78 0 11-7.558 0 3.78 3.78 0 017.558 0z"/><path class="st2" d="M145.27 648.346a1.134 1.134 0 11-2.269 0 1.134 1.134 0 012.269 0zM254.558 208.891h-22.672m0 0v72.928m0 0h22.672m0 0v-72.928M242.844 281.819h.756m0 0v-72.928m0 0h-.756m0 0v72.928M252.565 217.84H233.94m0 0v.755m0 0h18.626m-.001 0v-.755M252.565 219.844H233.94m0 0v.756m0 0h18.626m-.001 0v-.756M252.565 221.849H233.94m0 0v.755m0 0h18.626m-.001 0v-.755M252.565 223.854H233.94m0 0v.756m0 0h18.626m-.001 0v-.756M252.43 228.1l-18.491-2.242m0 0l-.091.751m0 0l18.491 2.241m0 0l.091-.75M228.863 435.609v.756m0 0h-47.988m0 0l-.756-.756m0 0h48.744M218.403 427.4v18.626m0-.001h-.755m0 0V427.4m0 0h.755M216.399 427.4v18.626m0-.001h-.756m0 0V427.4m0 0h.756M214.394 427.4v18.626m0-.001h-.755m0 0V427.4m0 0h.755M212.39 427.4v18.626m0-.001h-.756m0 0V427.4m0 0h.756M208.143 427.535l2.242 18.491m.001 0l-.751.091m-.001 0l-2.241-18.491m.001 0l.75-.091M180.875 519.117l-.756.755m0 0v-84.263m0 0l.756.756m0 0v82.752M154.527 578.441h68.016m0 0v75.572m0 0h-68.016m0 0v-75.572M156.417 576.552h64.237m0 0l.722.144m0 0l.614.41m0 0l.409.613m0 0l.144.723m0 0h-68.016m-.001 0l.144-.723m0 0l.41-.613m.001 0l.613-.41m-.001 0l.723-.144M154.527 657.792h68.016m0 0v-3.779m0 .001h-68.016m0 0v3.779M222.542 657.792h-68.016m0 0v-1.889m0 0h68.016m0 0v1.889M224.432 657.792h17.004m-.001 0V638.9m0 0h-17.004m.001 0v18.893M152.638 657.792h-17.004m0 0V638.9m0 0h17.004m0 0v18.893M194.58 652.125h25.695m0 0l.266-.111m.001-.001l.112-.267m0 0v-12.469m0 0l-.112-.268m0 .001l-.266-.11m-.001 0H194.58m0 0l-.267.11m0 0l-.111.268m.001-.001v12.469m0 0l.111.267m-.001 0l.267.111M182.489 652.125h-25.695m0 0l-.267-.111m0-.001l-.11-.267m0 0v-12.469m0 0l.11-.268m0 .001l.267-.11m0 0h25.695m0 0l.267.11m0 0l.111.268m0-.001v12.469m0 0l-.111.267m0 0l-.267.111M154.527 639.923h1.89M182.867 639.923h11.336M220.653 639.923h1.889M154.527 634.914h68.016m0 0v-18.686m0 0l-68.016 14.907m0 0v3.779M222.542 562.414h-68.016m0 0v12.785m0 0h68.016m0 0v-12.785M227.352 519.117v.755m0 0h-47.233m0 0l.756-.755m0 0h46.477M201.114 528.838v-18.626m0 0h.756m0 0v18.626m0 0h-.756M203.119 528.838v-18.626m0 0h.756m0 0v18.626m0 0h-.756M205.123 528.838v-18.626m0 0h.756m0 0v18.626m0 0h-.756M207.128 528.838v-18.626m0 0h.756m0 0v18.626m0 0h-.756M211.374 528.702l-2.241-18.491m0 0l.75-.091m0 0l2.241 18.491m0 0l-.75.091M88.769 426.603v8.288m0 0h-.921m0 0v-8.288m0 0h.921M87.849 426.603v1.315m0 0h-3.026m0 0v-1.315m0 0h3.026M397.768 110.657V42.641m0 0h75.573m0 0v68.016m0 0h-75.573M395.879 108.768V44.532m0 0l.144-.723m0 0l.409-.613m0 0l.613-.41m0 0l.723-.144m0 0v68.016m0 0l-.723-.144m0 0l-.613-.41m0 0l-.409-.613m0 0l-.144-.723M477.119 110.657V42.641m0 0h-3.778m0 0v68.016m0 0h3.778M477.119 42.642v68.016m0 0h-1.89m0 0V42.642m0 0h1.89M477.119 40.752V23.749m0 0h-18.893m0 0v17.004m0-.001h18.893M477.119 112.546v17.003m0 0h-18.893m0 0v-17.003m0 0h18.893M471.451 70.604V44.909m0 0l-.11-.268m0 .001l-.268-.11m0 0h-12.47m0 0l-.266.11m0 0l-.111.268m0-.001v25.694m0 .001l.111.267m0 0l.266.111m0-.001h12.47m0 0l.268-.111m0 .001l.11-.267M471.451 82.695v25.695m0 0l-.11.267m0 0l-.268.11m0 0h-12.47m0 0l-.266-.11m0 0l-.111-.267m0 0V82.695m0 0l.111-.268m0 0l.266-.11m0 0h12.47m0 0l.268.11m0 0l.11.268M459.25 110.657v-1.89M459.25 82.317V70.981M459.25 44.531v-1.89M454.24 110.657V42.641m0 0h-18.686m0 0l14.908 68.016m0 0h3.778M466.161 143.521h-.756m0 0v51.389m0 0l.756.756m0 0v-52.145M397.957 206.624v-22.672m0 0h56.49m0 0v-40.431m0 0h22.672m0 0v63.103m0 0h-79.162M465.405 194.911l.756.755m0 0h-68.204m0 0v-.755m0 0h67.448M405.394 204.632v-18.626m0-.001h.756m0 0v18.626m0 .001h-.756M407.398 204.632v-18.626m0-.001h.756m0 0v18.626m0 .001h-.756M409.403 204.632v-18.626m0-.001h.755m0 0v18.626m0 .001h-.755M411.408 204.632v-18.626m0-.001h.756m0 0v18.626m0 .001h-.756M415.654 204.496l-2.242-18.491m0 0l.751-.091m0 0l2.241 18.491m0 0l-.75.091M458.844 292.436l.448 1.233m0 0v1.313m0 .001l-.448 1.233m0 0l.342 1.473m0-.001v1.513m0 .001l-.342 1.473m0-.001l.449 1.234m0 .001v1.314m0 0l-.449 1.235m0 0l2.987-2.232m0 0v-7.557m0-.001l-2.987-2.232M462.093 294.668v7.557m0 .001h-.262m0 0v-7.557m0-.001h.262M462.615 294.668v7.557m0 .001h-.262m0 0v-7.557m0-.001h.262M457.328 299.289l-.085-.891m0 0l.226-.022m0 0l.045.477m0 0l1.142-1.383m0 0l.152.125m0 0l-.529.642m0 0l.081.068m0 0l.611-.74m0 0l.146.121m0 0l-.61.739m0 0l.096.081m0 0l.497-.601m0 0l.13.107m0 0l-.496.601m0 0l.098.081m0 0l.342-.415m0 0l.139.116m0 0l-1.173 1.422M448.023 287.109v22.672m0 0h22.672m0 0v-22.672m0 0h-22.672M418.173 284.464h52.522m0 0v-4.534m0 0h-52.522m0 0v4.534M470.695 284.464l-52.522-4.534m0 0v4.534m0 0l52.522-4.534m0 0v4.534M418.173 284.464v-13.981m0 0l-58.947 13.981m0 0v-13.981m0 0l58.947 13.981M418.173 270.483h-58.947m0 0v13.981m0 0h58.947m0 0v-13.981M213.379 232.65v.964m0 0h-1.205m0 0v12.524m0 0h1.205m0 0v.963M223.384 234.114v9.634m0 0h-.479m0 0v-.722m0 0h.238m0 0v-8.189m0 0h-.238m0 0v-.723m0 0h.479M222.905 234.114l-.103.048m-.103.047l-.104.047m-.102.047l-.104.047m-.103.047l-.103.048m-.103.046l-.103.048m-.103.047l-.103.047m-.103.047l-.103.047m-.103.047l-.103.048m-.103.047l-.103.047m-.103.047l-.103.047m-.104.047l-.103.048m-.103.047l-.103.047m-.103.047l-.103.047m-.103.047l-.103.047m-.103.047l-.103.048m-.104.047l-.103.047m-.103.047l-.103.048M222.905 243.748l-.103-.047m-.103-.047l-.104-.047m-.102-.047l-.104-.047m-.103-.048l-.103-.047m-.103-.047l-.103-.047m-.103-.048l-.103-.047m-.103-.046l-.103-.048m-.103-.047l-.103-.047m-.103-.047l-.103-.047m-.103-.048l-.103-.047m-.104-.047l-.103-.047m-.103-.047l-.103-.047m-.103-.047l-.103-.048m-.103-.047l-.103-.047m-.103-.047l-.103-.047m-.104-.047l-.103-.047m-.103-.048l-.103-.047M222.905 234.114v.078m0 .113v.114m0 .113v.113m0 .114v.078m0 0l-.051.042m-.088.071l-.089.072m-.087.071l-.088.071m-.088.072l-.089.071m-.087.072l-.088.071m-.088.072l-.089.071m-.088.072l-.087.071m-.088.071l-.089.072m-.088.071l-.087.072m-.088.071l-.088.072m-.089.071l-.088.071m-.087.072l-.088.071m-.089.072l-.088.071m-.087.072l-.088.071m-.089.072l-.088.071m-.088.071l-.087.072m-.089.071l-.088.072m-.088.072l-.087.071m-.088.072l-.089.071m-.088.071l-.088.071m-.087.072l-.089.072m-.088.071l-.088.072m-.088.071l-.051.042M222.905 243.748v-.078m0-.113v-.113m0-.113v-.114m0-.114v-.077m0 0l-.051-.042m-.088-.072l-.089-.071m-.087-.072l-.088-.071m-.088-.071l-.089-.072m-.087-.071l-.088-.072m-.088-.071l-.089-.072m-.088-.071l-.087-.072m-.088-.071l-.089-.071m-.088-.072l-.087-.071m-.088-.072l-.088-.071m-.089-.072l-.088-.071m-.087-.072l-.088-.071m-.089-.071l-.088-.072m-.087-.071l-.088-.072m-.089-.071l-.088-.072m-.088-.071l-.087-.072m-.089-.071l-.088-.071m-.088-.072l-.087-.071m-.088-.072l-.089-.071m-.088-.072l-.088-.071m-.087-.072l-.089-.071m-.088-.071l-.088-.072m-.088-.071l-.051-.042M359.226 267.46h19.649m0 0v-7.557m0 0h-19.649m0 0v7.557M202.791 304.49h10.202m0 0v-13.98m0 0h15.87m0 0v-9.069m0 0h-26.072m0 0v23.049M65.06 307.514l40.573 17.004m-.001 0v-17.004m0 0L65.06 324.518M146.206 307.514l-40.573 17.004m0 0v-17.004m0 0l40.573 17.004M146.206 307.514l40.573 17.004m0 0v-17.004m0 0l-40.573 17.004M228.863 307.514l-42.084 17.004m0 0v-17.004m0 0l42.084 17.004M466.813 28.571l.86 3.68m0 0l3.431 1.583m0 0l-3.431-1.583m0 0l-3.546 1.305M466.813 124.728l.86-3.679m0 0l3.431-1.584m0 0l-3.431 1.584m0 0l-3.546-1.306M236.613 647.485l-3.679.86m0 0l-1.584 3.431m0 .001l1.584-3.431m0-.001l-1.306-3.545M140.457 647.485l3.679.86m-.001 0l1.584 3.431m0 .001l-1.584-3.431m0-.001l1.306-3.545M223.543 104.206l.743 1.187m0 0l.939.941m0 0l.614.401m0 0l.711.294m0 0l.932.15m0 0l.942-.089m0 0l.957-.339m0 0l.812-.595m0 0l.78-1.139m0 0l.733-1.182m0 0l.846-.754m0 0l1.042-.451m0 0l.948-.127m0 0l.839.043m0 0l.829.164M236.21 102.71l-.568-.865m-.001.001l-.688-.763m0 0l-.937-.701m0 0l-.906-.38m0 0l-.955-.152m0-.001l-.956.09m0 .001l-.908.345m0 0l-.467.295M229.825 100.579l.108-.415m0 0l.44-.426m0 0l.516-.246m0 0l.244-.051M231.133 99.441l-.986-.772m0 0l-1.035-.382m0 0l-1.11-.127m0 0l-1.236.069m0 0l-.586.156m0 0l-.543.274m0 0l-.845.825m0 0l-.859 1.318m0 0l-.754 1.629M223.179 102.431l.599-.597m0 0l1.21-.862m0 0l.458-.228m0 0l.49-.109m0 0l.637.14m0 0l.58.377m0 0l.548.698m0 0l.427.169m0 0l.474.014m0 0l.714-.151m0 0l.832-.607M230.147 101.275l-.11.592m0 0l-.374.778m0 0l-.567.665m.001 0l-.435.37m-.001 0l-.498.267m0 0l-.47.099m0 0l-.79-.029m0 0l-.997-.358M225.907 103.659l.601.618m0 0l.846.292m0 0l.711.027m0 0l.281-.06M228.346 104.536l-.452.693m0 0l-.527.47m0 0l-.651.219m0 0l-.505-.07m0 0l-.476-.213m0 0l-1.386-.904m0 0l-.806-.525"/></g><g id="walls_1_"><path class="st3" d="M144.465 8.057v13.604M144.465.5v5.668M144.465 6.168v1.889M210.591 8.057v13.604M210.591.5v5.668M210.591 6.168v1.889M210.591.5h-66.126M210.591 21.661h-66.126M210.591 8.057h-3.779M206.813 8.057V6.169M206.813 6.168h3.778M172.804 6.168h1.891M174.694 6.168v1.889M174.694 8.057h-1.89M206.813 7.113h-32.119M206.813 8.057h-32.119M174.694 6.168h32.118M172.804 8.057h-.944M171.86 8.057v-.943M171.86 7.113h-.944M170.915 7.113v-.945M170.915 6.168h1.889M144.465 6.168h3.778M148.244 6.168v.946M148.244 7.113h-.945M147.299 7.113v.944M147.299 8.057h-2.833M148.244 6.168h22.671M169.026 9.002h-18.893M171.86 9.002h-2.833M169.026 9.002V7.114M169.026 7.113h2.833M171.86 7.113v1.889M147.299 7.113h2.834M150.133 7.113v1.889M150.133 9.002h-2.834M147.299 9.002V7.114M150.133 7.113h18.893M169.026 9.002h-18.893M169.026 8.057h-18.893M210.591 6.168v1.889M210.591 6.168v1.889M210.591.5v5.668M210.591 8.057v13.604M144.465 6.168v1.889M144.465 6.168v1.889M144.465.5v5.668M144.465 8.057v13.604M210.591.5v21.16"/><g><path class="st3" d="M255.935 8.057v13.604M255.935.5v5.668M255.935 6.168v1.889M322.06 8.057v13.604M322.06.5v5.668M322.06 6.168v1.889M322.06.5h-66.124M322.06 21.661h-66.124M322.06 8.057h-3.778M318.282 8.057V6.169M318.282 6.168h3.779M284.274 6.168h1.889M286.163 6.168v1.889M286.163 8.057h-1.889M318.282 7.113h-32.118M318.282 8.057h-32.118M286.163 6.168h32.119M284.274 8.057h-.945M283.33 8.057v-.943M283.33 7.113h-.945M282.385 7.113v-.945M282.385 6.168h1.889M255.935 6.168h3.778M259.713 6.168v.946M259.713 7.113h-.945M258.769 7.113v.944M258.769 8.057h-2.833M259.713 6.168h22.672M280.496 9.002h-18.894M283.33 9.002h-2.834M280.496 9.002V7.114M280.496 7.113h2.833M283.33 7.113v1.889M258.769 7.113h2.834M261.603 7.113v1.889M261.603 9.002h-2.834M258.769 9.002V7.114M261.603 7.113h18.893M280.496 9.002h-18.894M280.496 8.057h-18.894M322.06 6.168v1.889M322.06 6.168v1.889M322.06.5v5.668M322.06 8.057v13.604M255.935 6.168v1.889M255.935 6.168v1.889M255.935.5v5.668M255.935 8.057v13.604M322.06.5v21.16"/><g><path class="st3" d="M376.851 8.057v13.604M376.851.5v5.668M376.851 6.168v1.889M459.981 8.057v13.604M459.981.5v5.668M459.981 6.168v1.889M459.981.5h-83.13M459.981 21.661h-83.13M459.981 8.057h-3.779M456.202 8.057V6.169M456.202 6.168h3.778M405.19 6.168h1.89M407.08 6.168v1.889M407.08 8.057h-1.89M456.202 7.113h-49.123M456.202 8.057h-49.123M407.08 6.168h49.122M405.19 8.057h-.945M404.246 8.057v-.943M404.246 7.113h-.944M403.301 7.113v-.945M403.301 6.168h1.889M376.851 6.168h3.778M380.629 6.168v.946M380.629 7.113h-.945M379.685 7.113v.944M379.685 8.057h-2.834M380.629 6.168h22.672M401.412 9.002h-18.893M404.246 9.002h-2.833M401.412 9.002V7.114M401.412 7.113h2.833M404.246 7.113v1.889M379.685 7.113h2.833M382.519 7.113v1.889M382.519 9.002h-2.834M379.685 9.002V7.114M382.519 7.113h18.893M401.412 9.002h-18.893M401.412 8.057h-18.893M459.981 6.168v1.889M459.981 6.168v1.889M459.981.5v5.668M459.981 8.057v13.604M376.851 6.168v1.889M376.851 6.168v1.889M376.851.5v5.668M376.851 8.057v13.604M459.981.5v21.16"/></g></g><g><path class="st3" d="M97.61 8.057v13.604M97.61.5v5.668M97.61 6.168v1.889M97.61.5H42.064M97.61 21.661H65.113M97.61 8.057h-4.724M92.887 8.057V6.169M92.887 6.168h4.724M49.622 6.168h4.722M54.345 6.168v1.889M54.345 8.057h-4.723M47.732 6.168h1.889M92.887 8.057H54.345M54.345 6.168h38.542M97.61 6.168v1.889M97.61 6.168v1.889M97.61.5v5.668M97.61 8.057v13.604M49.622 152.968h15.491M42.064 152.968h5.668M47.732 152.968h1.889M42.064 152.968V.5M65.114 152.968V21.66M49.622 152.968v-4.724M49.622 148.245h-1.889M47.732 148.245v4.724M47.732 8.057v4.724M47.732 12.781h1.889M49.622 12.781V8.058M47.732 6.168v1.889M49.622 148.245V12.781M47.732 12.781v135.464M47.732 152.968h1.889M47.732 152.968h1.889M42.064 152.968h5.668M49.622 152.968h15.491"/></g><g><path class="st3" d="M49.622 198.312h15.491M42.064 198.312h5.668M47.732 198.312h1.889M49.622 281.441h15.491M42.064 281.441h5.668M47.732 281.441h1.889M42.064 281.441v-83.129M65.114 281.441v-83.129M49.622 281.441v-3.779M49.622 277.663h-1.889M47.732 277.663v3.778M47.732 241.766v1.889M47.732 243.655h1.889M49.622 243.655v-1.889M48.677 277.663v-34.007M49.622 277.663v-34.007M47.732 243.655v34.007M49.622 241.766v-.945M49.622 240.821h-.946M48.677 240.821v-.945M48.677 239.876h-.944M47.732 239.876v1.89M47.732 198.312v3.778M47.732 202.09h.944M48.677 202.09v-.944M48.677 201.146h.945M49.622 201.146v-2.834M50.566 201.146l28.055 28.055M47.732 202.09v37.786M50.566 237.987v-34.008M50.566 240.821v-2.834M50.566 237.987h-1.889M48.677 237.987v2.834M48.677 240.821h1.889M48.677 201.146v2.833M48.677 203.979h1.889M50.566 203.979v-2.833M50.566 201.146h-1.889M48.677 203.979v34.008M50.566 237.987v-34.008M49.622 237.987v-34.008M78.621 229.201a39.677 39.677 0 01-28.055 11.621M47.732 281.441h1.889M47.732 281.441h1.889M42.064 281.441h5.668M49.622 281.441h15.491M47.732 198.312h1.889M47.732 198.312h1.889M42.064 198.312h5.668M49.622 198.312h15.491M65.114 198.312h-23.05"/><g><path class="st3" d="M49.622 557.282h15.491M42.064 557.282h5.668M47.732 557.282h1.889M49.622 640.412h15.491M42.064 640.412h5.668M47.732 640.412h1.889M42.064 640.412v-83.13M65.114 640.412v-83.13M49.622 640.412v-3.778M49.622 636.633h-1.889M47.732 636.633v3.778M47.732 600.736v1.889M47.732 602.625h1.889M49.622 602.625v-1.888M48.677 636.633v-34.008M49.622 636.633v-34.008M47.732 602.625v34.008M49.622 600.736v-.945M49.622 599.791h-.946M48.677 599.791v-.944M48.677 598.847h-.944M47.732 598.847v1.889M47.732 557.282v3.779M47.732 561.06h.944M48.677 561.06v-.945M48.677 560.116h.945M49.622 560.116v-2.834M50.566 560.116l28.055 28.055M47.732 561.06v37.787M50.566 596.957V562.95M50.566 599.791v-2.834M50.566 596.957h-1.889M48.677 596.957v2.834M48.677 599.791h1.889M48.677 560.116v2.834M48.677 562.95h1.889M50.566 562.95v-2.835M50.566 560.116h-1.889M48.677 562.95v34.008M50.566 596.957V562.95M49.622 596.957V562.95M78.621 588.171a39.677 39.677 0 01-28.055 11.621M47.732 640.412h1.889M47.732 640.412h1.889M42.064 640.412h5.668M49.622 640.412h15.491M47.732 557.282h1.889M47.732 557.282h1.889M42.064 557.282h5.668M49.622 557.282h15.491M42.064 557.282h23.05"/><g><path class="st3" d="M49.622 521.384h15.491M42.064 521.384h5.668M47.732 521.384h1.889M49.622 455.259h15.491M42.064 455.259h5.668M47.732 455.259h1.889M42.064 455.259v66.125M65.114 455.259v66.125M49.622 455.259v3.779M49.622 459.037h-1.889M47.732 459.037v-3.778M47.732 493.045v-1.889M47.732 491.156h1.889M49.622 491.156v1.889M48.677 459.037v32.119M49.622 459.037v32.119M47.732 491.156v-32.118M49.622 493.045v.944M49.622 493.989h-.946M48.677 493.989v.945M48.677 494.934h-.944M47.732 494.934v-1.889M47.732 521.384v-3.778M47.732 517.606h.944M48.677 517.606v.944M48.677 518.55h.945M49.622 518.55v2.834M47.732 517.606v-22.672M50.566 496.824v18.893M50.566 493.989v2.834M50.566 496.824h-1.889M48.677 496.824v-2.834M48.677 493.989h1.889M48.677 518.55v-2.833M48.677 515.717h1.889M50.566 515.717v2.833M50.566 518.55h-1.889M48.677 515.717v-18.893M50.566 496.824v18.893M49.622 496.824v18.893M47.732 455.259h1.889M47.732 455.259h1.889M42.064 455.259h5.668M49.622 455.259h15.491M47.732 521.384h1.889M47.732 521.384h1.889M42.064 521.384h5.668M49.622 521.384h15.491M42.064 455.259h23.05"/></g><g><path class="st3" d="M49.622 409.915h15.491M42.064 409.915h5.668M47.732 409.915h1.889M49.622 343.788h15.491M42.064 343.788h5.668M47.732 343.788h1.889M42.064 343.788v66.126M65.114 343.788v66.126M49.622 343.788v3.78M49.622 347.567h-1.889M47.732 347.567v-3.779M47.732 381.575v-1.889M47.732 379.686h1.889M49.622 379.686v1.889M48.677 347.567v32.119M49.622 347.567v32.119M47.732 379.686v-32.119M49.622 381.575v.945M49.622 382.52h-.946M48.677 382.52v.944M48.677 383.464h-.944M47.732 383.464v-1.889M47.732 409.915v-3.779M47.732 406.136h.944M48.677 406.136v.944M48.677 407.081h.945M49.622 407.081v2.833M47.732 406.136v-22.672M50.566 385.354v18.893M50.566 382.52v2.834M50.566 385.354h-1.889M48.677 385.354v-2.834M48.677 382.52h1.889M48.677 407.081v-2.834M48.677 404.247h1.889M50.566 404.247v2.833M50.566 407.081h-1.889M48.677 404.247v-18.893M50.566 385.354v18.893M49.622 385.354v18.893M47.732 343.788h1.889M47.732 343.788h1.889M42.064 343.788h5.668M49.622 343.788h15.491M47.732 409.915h1.889M47.732 409.915h1.889M42.064 409.915h5.668M49.622 409.915h15.491M42.064 343.788h23.05"/></g></g></g><g><path class="st3" d="M42.064 300.334H.5m0 0V179.418m0 0h41.564m0 0v120.916M42.064 643.057H.5m0 0V452.613m0 0h41.564m0 0v190.443"/></g><g><path class="st3" d="M136.757 519.789c1.586 4.228 2.044 6.534 2.274 11.042"/><path class="st4" d="M136.724 519.686l-25.772 11.145-.001 1.511h.454l25.919-11.269z"/><g><path class="st5" d="M241.37 435.397c-1.765-4.733-2.257-7.219-2.515-12.257"/><path class="st4" d="M241.413 435.498l28.578-12.358v-1.512h-.454l-28.724 12.483z"/><g><path class="st5" d="M216.359 360.631c4.812 1.787 7.432 2.316 12.559 2.577"/><path class="st4" d="M216.259 360.588l1.387.6 12.783-29.419v-.453h-1.512z"/><g><path class="st5" d="M301.57 348.775c-2.22-5.97-2.877-9.204-3.202-15.566"/><path class="st4" d="M301.609 348.866l36.208-15.657.001-1.512h-.453l-36.356 15.782z"/><g><path class="st5" d="M371.087 169.829c-4.814-1.787-7.434-2.316-12.562-2.579"/><path class="st4" d="M371.183 169.871l-1.387-.6-12.783 29.418v.454h1.512z"/><g><path class="st5" d="M369.582 249.756c-4.295 1.602-6.48 2.053-11.058 2.288"/><path class="st4" d="M369.683 249.734l-11.159-25.803h-1.511v.453l11.282 25.95z"/><g><path class="st5" d="M370.343 288.168c-4.293-1.602-6.486-2.034-11.062-2.267"/><path class="st4" d="M370.439 288.209l-1.388-.599-11.283 25.95v.453h1.512z"/></g></g><g><path class="st5" d="M291.551 249.767c-4.234 1.588-6.541 2.046-11.055 2.277"/><path class="st4" d="M291.654 249.734l-11.159-25.803h-1.51v.453l11.282 25.95z"/></g></g></g></g></g></g><path d="M487.376 333.209v-9.069H359.281v-10.235h-1.512v-.345h-9.446v10.58h-10.958v7.557h.453v1.512h149.558zm-201.024 0v334.03h-9.069V324.14h21.538v7.557h-.453v1.512h-12.016 0zM477.173 21.661H459.98V.5h27.395v21.161h-10.202 0zM348.322 167.705h8.691v-.454h1.511V21.661h18.326V.5h-54.79v21.161h26.262v146.044h0zm0 83.885v34.764h9.446v-.454h1.512v-32.798h-.756v-1.058h-1.511v-.454h-8.691 0zm0-28.717v1.511h8.691v-.453h1.511v-24.788h-1.511v-.454h-8.691v24.184h0zM65.113 343.789H42.064v-62.348h23.049v62.348h0zm0 111.47H42.064v-45.344h23.049v45.344h0zm.001 211.98H42.065v-26.828h23.049v26.828h0zm-.001-109.957H42.064v-35.898h23.049v35.898h0zM42.064 152.968h23.049v45.343H42.064v-45.343h0zM144.465 21.661H97.61V.5h46.855v21.161h0zM210.591.5h45.343v21.161h-45.343V.5z" fill-rule="evenodd" clip-rule="evenodd" stroke="#000" stroke-miterlimit="3"/><g><path class="st7" d="M219.74 64.705l-.19.16M227.16 64.705l-3.43 3.02M222.57 68.745l-3.02 2.66M234.58 64.705l-3.42 3.02M222.57 75.285l-3.02 2.66M239.58 66.845l-3.03 2.67M223.13 81.335l-3.58 3.15M239.58 73.375l-3.03 2.67M222.57 88.365l-3.02 2.66M230.54 81.335l-3.42 3.02M239.58 79.915l-5.04 4.44M222.57 94.895l-3.02 2.66M239.58 86.455l-3.03 2.67M222.57 101.445l-3.02 2.66M239.58 92.995l-3.03 2.67M222.57 107.975l-3.02 2.66M239.58 99.535l-3.03 2.67M222.57 114.515l-3.02 2.66M239.58 106.075l-3.03 2.67M222.57 121.055l-3.02 2.66M239.58 112.605l-3.03 2.67M228.76 122.135l-3.44 3.03M236.19 122.135l-3.44 3.03M239.58 119.145l-3.03 2.67M66.33 304.455l-1.52 1.34M73.75 304.455l-3.44 3.03M81.18 304.455l-3.44 3.03M88.6 304.455l-3.44 3.03M96.03 304.455l-3.44 3.03M103.45 304.455l-3.44 3.03M110.87 304.455l-3.44 3.03M230.24 205.835l-1.62 1.42M118.29 304.455l-3.44 3.03M125.71 304.455l-3.44 3.03M237.66 205.835l-3.42 3.02M231.64 211.145l-3.02 2.66M133.14 304.455l-3.44 3.03M245.09 205.835l-3.43 3.02M231.64 217.675l-3.02 2.67M140.56 304.455l-3.44 3.03M252.51 205.835l-3.43 3.02M231.64 224.215l-3.02 2.66M147.98 304.455l-3.44 3.03M259.93 205.835l-3.43 3.02M231.64 230.755l-3.02 2.66M155.41 304.455l-3.44 3.03M267.36 205.835l-3.43 3.02M231.64 237.295l-3.02 2.66M483.89 21.625l-7.02 6.18M162.82 304.455l-3.44 3.03M274.77 205.835l-3.42 3.02M231.64 243.835l-3.02 2.66M487.08 25.345l-10.21 9M170.24 304.455l-3.44 3.03M280.2 207.595l-3.03 2.67M231.64 250.375l-3.02 2.66M487.08 31.885l-10.21 8.99M177.67 304.455l-3.44 3.03M280.2 214.135l-3.03 2.67M231.64 256.905l-3.02 2.66M487.08 38.425l-10.21 8.99M280.2 220.665l-3.03 2.67M231.64 263.445l-3.02 2.66M185.09 304.455l-3.44 3.03M487.08 44.965l-10.21 9M231.64 269.985l-3.02 2.66M192.52 304.455l-3.44 3.03M487.08 51.505l-10.21 8.99M68.68 420.085l-3.43 3.02M231.64 276.525l-3.02 2.66M215.81 290.475l-3.06 2.69M199.94 304.455l-3.44 3.03M487.08 58.045l-10.21 8.99M76.1 420.085l-3.43 3.02M223.23 290.475l-3.44 3.03M233.1 281.785l-4.48 3.94M207.36 304.455l-3.44 3.03M215.77 297.045l-3.02 2.66M487.08 64.575l-10.21 9M83.52 420.085l-3.43 3.02M240.51 281.785l-3.43 3.02M215.77 303.575l-4.43 3.91M231.64 289.595l-4.43 3.91M487.08 71.115l-10.21 9M408.36 140.465l-2.9 2.56M280.2 253.365l-3.03 2.67M90.94 420.085l-3.43 3.02M247.94 281.785l-3.43 3.02M222.2 304.455l-3.44 3.03M231.64 296.145l-3.02 2.66M487.08 77.655l-10.21 9M415.78 140.465l-3.43 3.02M98.36 420.085l-3.42 3.02M255.36 281.785l-3.43 3.02M280.2 259.905l-3.03 2.67M231.64 302.675l-5.45 4.81M487.08 84.195l-10.21 8.99M423.2 140.465l-3.42 3.02M105.79 420.085l-3.43 3.02M262.78 281.785l-3.43 3.02M280.2 266.445l-3.03 2.67M231.64 309.215l-3.02 2.66M487.08 90.735l-10.21 8.99M430.63 140.465l-3.43 3.02M113.21 420.085l-3.43 3.02M270.2 281.785l-3.42 3.02M280.2 272.975l-3.03 2.67M231.64 315.755l-3.02 2.66M487.08 97.275l-10.21 9M438.05 140.465l-3.43 3.02M362.98 206.595l-3.42 3.02M280.2 279.525l-6 5.28M120.64 420.085l-3.43 3.02M231.64 322.295l-3.02 2.66M487.08 103.815l-10.21 8.99M370.4 206.595l-3.43 3.02M445.47 140.465l-3.43 3.02M231.64 328.835l-1.58 1.39-1.21 1.06M128.05 420.085l-3.43 3.02M487.08 110.345l-10.21 9M377.82 206.595l-3.43 3.02M452.89 140.465l-3.43 3.02M135.47 420.085l-3.42 3.02M487.08 116.885l-10.21 8.99M385.24 206.595l-3.42 3.02M460.31 140.465l-3.42 3.02M142.9 420.085l-3.43 3.02M487.08 123.425l-10.21 8.99M392.67 206.595l-3.43 3.02M467.73 140.465l-3.42 3.02M150.32 420.085l-3.43 3.02M145.87 424.005l-3.03 2.67M487.08 129.965l-10.21 9M400.09 206.595l-3.42 3.02M475.16 140.465l-3.43 3.02M157.75 420.085l-3.43 3.02M145.87 430.545l-3.03 2.67M487.08 136.505l-10.21 8.99M407.52 206.595l-3.43 3.02M230.28 362.725l-.15.13M229.77 363.175l-1.15 1.01M165.17 420.085l-3.43 3.02M147.58 435.575l-3.42 3.02M487.08 143.035l-10.21 9M414.93 206.595l-3.43 3.02M172.58 420.085l-3.43 3.02M231.64 368.065l-3.02 2.66M155 435.575l-3.43 3.02M167.4 424.655l-3.02 2.66M487.08 149.575l-10.21 9M422.35 206.595l-3.42 3.02M180.01 420.085l-3.43 3.02M231.64 374.595l-3.02 2.66M162.42 435.575l-3.43 3.02M167.4 431.185l-3.02 2.67M487.08 156.115l-10.21 9M429.78 206.595l-3.43 3.02M360.73 267.425l-1.75 1.54M187.43 420.085l-3.43 3.02M231.64 381.145l-3.02 2.66M162.87 441.725l-3.02 2.66M167.4 437.735l-3.02 2.66M487.08 162.655l-10.21 9M368.15 267.425l-3.44 3.03M437.2 206.595l-3.43 3.02M69.18 530.795l-3.44 3.03M194.85 420.085l-3.42 3.02M231.64 387.685l-3.02 2.66M162.87 448.265l-3.02 2.66M167.4 444.275l-3.02 2.66M487.08 169.195l-10.21 8.99M375.57 267.425l-3.44 3.03M444.62 206.595l-3.42 3.02M202.28 420.085l-3.43 3.02M231.64 394.215l-3.02 2.66M76.6 530.795l-3.44 3.03M167.4 450.805l-3.02 2.66M162.87 454.805l-3.02 2.66M487.08 175.735l-10.21 8.99M382.99 267.425l-3.44 3.03M452.05 206.595l-3.43 3.02M209.7 420.085l-3.43 3.02M231.64 400.755l-3.02 2.66M84.03 530.795l-3.44 3.03M167.4 457.345l-3.02 2.66M162.87 461.335l-3.02 2.66M487.08 182.275l-10.21 9M390.42 267.425l-3.44 3.03M459.47 206.595l-3.42 3.02M217.13 420.085l-3.43 3.02M231.64 407.295l-3.02 2.66M91.45 530.795l-3.44 3.03M167.4 463.885l-3.04 2.68M487.08 188.815l-10.21 8.99M397.84 267.425l-3.44 3.03M466.89 206.595l-3.43 3.02M224.54 420.085l-3.43 3.02M231.64 413.835l-3.02 2.66M98.87 530.795l-3.44 3.03M167.4 470.425l-3.02 2.66M487.08 195.345l-10.21 9M405.26 267.425l-3.44 3.03M474.31 206.595l-3.43 3.02M231.96 420.085l-3.42 3.02M106.29 530.795l-3.44 3.03M167.4 476.965l-3.02 2.66M487.08 201.885l-10.21 9M412.68 267.425l-3.44 3.03M239.01 420.415l-3.05 2.69M111.11 533.085l-.84.74M231.64 426.905l-3.02 2.66M167.4 483.495l-3.02 2.67M487.08 208.425l-10.21 8.99M420.1 267.425l-3.44 3.03M231.64 433.445l-3.02 2.66M167.4 490.035l-3.02 2.66M487.08 214.965l-10.21 9M420.95 273.225l-3.02 2.66M427.53 267.425l-3.44 3.03M231.64 439.985l-3.02 2.67M167.4 496.585l-3.02 2.66M487.08 221.505l-10.21 8.99M424.23 276.875l-3.43 3.02M434.95 267.425l-3.44 3.03M231.64 446.525l-3.02 2.66M167.4 503.115l-3.02 2.66M487.08 228.035l-10.21 9M431.64 276.875l-3.43 3.02M442.37 267.425l-3.44 3.03M231.64 453.065l-1.31 1.15M143.4 530.795l-3.44 3.03M167.4 509.655l-3.02 2.66M487.08 234.575l-10.21 9M439.06 276.875l-3.42 3.02M448.91 268.205l-3.02 2.66M276.5 420.085l-3.43 3.02M167.4 516.195l-3.02 2.66M150.82 530.795l-3.44 3.03M487.08 241.115l-10.21 9M448.91 274.745l-5.85 5.15M167.4 522.735l-3.02 2.66M158.25 530.795l-3.44 3.03M487.08 247.655l-10.21 9M453.91 276.875l-3.43 3.02M167.4 529.275l-5.17 4.55M487.08 254.195l-10.21 8.99M461.33 276.875l-3.42 3.02M173.09 530.795l-3.44 3.03M487.08 260.735l-10.21 8.99M468.76 276.875l-3.43 3.02M180.52 530.795l-3.44 3.03M487.08 267.275l-10.21 8.99M476.18 276.875l-5.73 5.05M187.94 530.795l-3.44 3.03M487.08 273.805l-10.21 9M473.47 285.795l-3.02 2.66M195.36 530.795l-3.44 3.03M487.08 280.345l-10.21 9M473.47 292.335l-3.02 2.66M452.85 310.505l-3.94 3.47M230.13 506.705l-3.02 2.66M202.78 530.795l-3.44 3.03M473.47 298.875l-3.02 2.66M487.08 286.885l-10.21 9M460.27 310.505l-3.43 3.02M451.93 317.855l-3.02 2.66M66.07 657.765l-1.26 1.11M230.13 513.235l-3.02 2.66M210.2 530.795l-3.44 3.03M473.47 305.415l-3.02 2.66M487.08 293.425l-10.21 8.99M467.69 310.505l-3.43 3.02M73.49 657.765l-8.68 7.65M230.13 519.775l-3.02 2.66M217.62 530.795l-3.44 3.03M487.08 299.965l-10.21 9M475.12 310.505l-3.43 3.02M80.92 657.765l-10.72 9.44M230.13 526.315l-3.02 2.67M225.05 530.795l-3.44 3.03M487.08 306.505l-10.21 8.99M230.13 532.855l-1.1.97M88.34 657.765l-10.72 9.44M487.08 313.035l-10.21 9M95.75 657.765l-10.71 9.44M487.08 319.575l-5.14 4.53M103.18 657.765l-10.72 9.44M110.6 657.765l-10.71 9.44M118.03 657.765l-10.72 9.44M125.45 657.765l-10.72 9.44M132.87 657.765l-10.71 9.44M140.29 657.765l-10.72 9.44M147.71 657.765l-10.71 9.44M155.14 657.765l-10.72 9.44M162.56 657.765l-10.72 9.44M169.98 657.765l-10.71 9.44M177.41 657.765l-10.72 9.44M184.83 657.765l-10.71 9.44M192.25 657.765l-10.72 9.44M199.67 657.765l-10.72 9.44M207.09 657.765l-10.71 9.44M214.52 657.765l-10.72 9.44M221.94 657.765l-10.72 9.44M229.36 657.765l-10.71 9.44M236.78 657.765l-10.72 9.44M244.2 657.765l-10.71 9.44M251.63 657.765l-10.72 9.44M259.05 657.765l-10.72 9.44M266.47 657.765l-10.71 9.44M273.9 657.765l-10.72 9.44M276.98 661.585l-6.37 5.62"/></g><path class="st8" d="M47.732 63.621h1.889v5.133h-1.889zM47.732 106.129h1.889v5.133h-1.889zM65.114 657.793v9.446h212.17v-9.446H65.114zM477.173 21.661h10.202V324.14h-10.202v-10.58h-24.939v10.58h-3.023v-13.603h21.536l.001-30.607h-52.522v-9.447h-58.947v-3.023h89.932v3.023h-.001v6.424h27.963v-67.26H358.525v-3.023h118.649v-63.103h-71.416v-3.023h71.416V21.661h-.001zm0 288.876V279.93h-3.401l-.003 30.607h3.404zM236.852 84.386h-13.981v37.786h13.981V84.386zm40.432 335.731v3.023h-7.292v-1.512h-.454v-1.511h7.746zm.188-211.225H231.94v72.927h45.532V251.59h1.512v.454h1.511v32.798H231.94v45.416h-3.023v-22.744H65.113v-3.023h147.934V290.51h15.87v-84.641h51.578v18.062h-1.511v.453h-1.512v-15.492zm-48.555 95.599v-10.958H216.07v10.958h12.847zm-90.34 229.363h88.828v-3.023h-59.702V423.14h61.214v31.107h3.023V423.14h6.914v-1.512h.454v-1.511h-7.368v-55.851h-3.023v55.851H65.015v3.023h78.128v15.492h17.004v27.962h4.534v64.237h-25.649v1.511h-.454v1.512h-.001zm-28.684 0h-44.78v-3.023h45.838v1.511h.454v1.512h-1.512zm120.536 0h-3.023v-30.485h3.023v30.485zM164.68 423.14h-18.515v12.469h18.515V423.14zm0 40.431v-24.939h-1.511v24.939h1.511zm67.26-100.817h-1.511v.454h-1.512v1.058h3.023v-1.512zm0-32.496h-3.023v1.058h1.512v.453h1.511v-1.511zm214.248-53.351v-6.424H421.25v6.424h24.938zM219.849 122.172V64.737h20.027v60.457h-20.027v-3.022zm3.022-40.809h13.981V67.76h-13.981v13.603z"/></g><g id="sizes"><path d="M219.362 147.172l-.727-.348a2.857 2.857 0 01-1.168-1.008c-.295-.44-.48-.97-.559-1.59h1.625c.047.323.148.589.305.797.156.208.357.363.605.465.247.102.537.152.871.152.525 0 .935-.141 1.227-.422.291-.281.438-.677.438-1.188v-.344c0-.567-.139-1.006-.414-1.316-.276-.31-.667-.465-1.172-.465h-.805v-1.516h.805c.442 0 .786-.133 1.031-.398.244-.266.367-.641.367-1.125v-.352c0-.448-.129-.794-.387-1.039-.258-.245-.624-.367-1.098-.367a1.68 1.68 0 00-.727.152c-.214.102-.395.258-.543.469s-.257.476-.324.793h-1.617c.104-.62.301-1.151.59-1.594a2.886 2.886 0 011.098-1.008c.442-.229.95-.344 1.523-.344.979 0 1.736.258 2.273.773.536.516.805 1.242.805 2.18v.188c0 .568-.154 1.063-.461 1.484-.308.422-.742.729-1.305.922.619.136 1.1.44 1.441.914.341.474.512 1.078.512 1.813v.188c0 .662-.128 1.227-.383 1.695a2.53 2.53 0 01-1.113 1.07c-.487.245-1.074.367-1.762.367l-.951.002zM227.483 146.836a2.75 2.75 0 01-1.086-.977c-.279-.427-.465-.94-.559-1.539v-.008h1.594v.008c.057.417.224.741.5.973.275.232.635.348 1.078.348.51 0 .904-.17 1.184-.512.278-.341.418-.821.418-1.441v-.953c0-.614-.14-1.092-.418-1.434-.279-.341-.674-.512-1.184-.512-.276 0-.542.078-.797.234a2.225 2.225 0 00-.672.656h-1.453v-5.984h5.789v1.516h-4.195v2.555a2.262 2.262 0 011.414-.508c.656 0 1.217.136 1.684.406.466.271.82.667 1.063 1.188.242.521.363 1.148.363 1.883v.953c0 .734-.125 1.362-.375 1.883-.25.521-.615.918-1.094 1.191-.479.273-1.055.41-1.727.41-.573 0-1.082-.112-1.527-.336zM234.393 145.461h1.594v1.594l-1.594 1.578v-3.172zM240.159 147.172l-.727-.348a2.857 2.857 0 01-1.168-1.008c-.295-.44-.48-.97-.559-1.59h1.625c.047.323.148.589.305.797.156.208.357.363.605.465.247.102.537.152.871.152.525 0 .935-.141 1.227-.422.291-.281.438-.677.438-1.188v-.344c0-.567-.139-1.006-.414-1.316-.276-.31-.667-.465-1.172-.465h-.805v-1.516h.805c.442 0 .786-.133 1.031-.398.244-.266.367-.641.367-1.125v-.352c0-.448-.129-.794-.387-1.039-.258-.245-.624-.367-1.098-.367a1.68 1.68 0 00-.727.152c-.214.102-.395.258-.543.469s-.257.476-.324.793h-1.617c.104-.62.301-1.151.59-1.594a2.886 2.886 0 011.098-1.008c.442-.229.95-.344 1.523-.344.979 0 1.736.258 2.273.773.536.516.805 1.242.805 2.18v.188c0 .568-.154 1.063-.461 1.484-.308.422-.742.729-1.305.922.619.136 1.1.44 1.441.914.341.474.512 1.078.512 1.813v.188c0 .662-.128 1.227-.383 1.695a2.53 2.53 0 01-1.113 1.07c-.487.245-1.074.367-1.762.367l-.951.002zM373.325 200.541h-1.594v-9.625l-1.617.992v-1.648l1.617-1.078h1.594v11.359zM377.548 200.322a2.75 2.75 0 01-1.086-.977c-.278-.427-.465-.939-.559-1.539v-.008h1.594v.008c.058.417.224.741.5.973.276.232.636.348 1.078.348.511 0 .905-.17 1.184-.512.278-.341.418-.821.418-1.441v-.953c0-.614-.14-1.092-.418-1.434-.278-.341-.673-.512-1.184-.512-.276 0-.542.078-.797.234s-.479.375-.672.656h-1.453v-5.984h5.789v1.516h-4.195v2.555a2.275 2.275 0 011.414-.508c.656 0 1.218.136 1.684.406.466.271.82.667 1.063 1.188.242.521.363 1.148.363 1.883v.953c0 .734-.125 1.362-.375 1.883-.25.521-.614.918-1.094 1.191s-1.055.41-1.727.41c-.573 0-1.082-.113-1.527-.336zM384.458 198.947h1.594v1.594l-1.594 1.578v-3.172zM390.223 200.658l-.727-.348a2.857 2.857 0 01-1.168-1.008c-.294-.439-.48-.97-.559-1.59h1.625c.047.323.148.589.305.797.156.209.358.363.605.465s.538.152.871.152c.526 0 .935-.141 1.227-.422s.438-.677.438-1.188v-.344c0-.567-.138-1.006-.414-1.316-.276-.31-.667-.465-1.172-.465h-.805v-1.516h.805c.442 0 .786-.133 1.031-.398s.367-.641.367-1.125V192c0-.447-.129-.794-.387-1.039-.258-.244-.624-.367-1.098-.367-.271 0-.513.051-.727.152s-.395.258-.543.469-.257.476-.324.793h-1.617c.104-.619.301-1.15.59-1.594a2.893 2.893 0 011.098-1.008c.442-.229.95-.344 1.523-.344.979 0 1.737.258 2.273.773s.805 1.242.805 2.18v.188c0 .568-.153 1.063-.461 1.484s-.742.729-1.305.922c.62.136 1.101.44 1.441.914.341.475.512 1.078.512 1.813v.188c0 .662-.128 1.227-.383 1.695s-.626.826-1.113 1.07c-.487.245-1.074.367-1.762.367l-.951.002zM369.249 221.046l3.813-8.227h1.641l-3.719 8.133h5.57v1.477h-7.305v-1.383zm4.898-3.554h1.555v6.688h-1.555v-6.688zM378.35 222.578h1.594v1.594l-1.594 1.578v-3.172zM387.999 214.234l-2.938 9.938h-1.695l2.938-9.844h-2.891v1.633h-1.594v-3.148h6.18v1.421zM427.872 319.69l-.727-.348a2.857 2.857 0 01-1.168-1.008c-.295-.44-.48-.97-.559-1.59h1.625c.047.323.148.589.305.797s.357.363.605.465c.247.102.537.152.871.152.525 0 .935-.141 1.227-.422.291-.281.438-.677.438-1.188v-.344c0-.567-.139-1.007-.414-1.316-.276-.31-.667-.465-1.172-.465h-.805v-1.516h.805c.442 0 .786-.133 1.031-.398.244-.266.367-.641.367-1.125v-.352c0-.448-.129-.794-.387-1.039s-.624-.367-1.098-.367a1.68 1.68 0 00-.727.152c-.214.102-.395.258-.543.469s-.257.476-.324.793h-1.617c.104-.62.301-1.151.59-1.594s.654-.778 1.098-1.008c.442-.229.95-.344 1.523-.344.979 0 1.736.258 2.273.773.536.516.805 1.242.805 2.18v.188c0 .567-.154 1.063-.461 1.484-.308.422-.742.729-1.305.922.619.136 1.1.44 1.441.914.341.474.512 1.078.512 1.813v.188c0 .661-.128 1.227-.383 1.695a2.536 2.536 0 01-1.113 1.07c-.487.245-1.074.367-1.762.367l-.951.002zM434.192 317.979h1.594v1.594l-1.594 1.578v-3.172zM439.192 319.288a2.609 2.609 0 01-1.082-1.172c-.248-.513-.371-1.132-.371-1.855v-.008c0-.422.049-.864.148-1.328a7.648 7.648 0 01.641-1.82l2.469-4.891h1.719l-2.898 5.664.008-.281c.13-.245.32-.435.57-.57s.541-.203.875-.203c.588 0 1.094.133 1.516.398s.742.652.961 1.16.328 1.118.328 1.832v.008c0 .729-.124 1.354-.371 1.875s-.609.917-1.086 1.188-1.049.406-1.715.406c-.668-.001-1.238-.135-1.712-.403zm2.879-1.598c.273-.313.41-.758.41-1.336v-.008c0-.636-.144-1.126-.43-1.473-.287-.347-.695-.52-1.227-.52-.475 0-.842.175-1.102.523-.261.349-.391.841-.391 1.477v.008c0 .578.137 1.022.41 1.332s.66.465 1.16.465c.507.001.897-.155 1.17-.468z"/><g><path d="M184.045 274.36h-1.594v-9.625l-1.617.992v-1.648l1.617-1.078h1.594v11.359zM189.365 274.36h-1.594v-9.625l-1.617.992v-1.648l1.617-1.078h1.594v11.359zM191.787 272.766h1.594v1.594l-1.594 1.578v-3.172zM197.213 274.141c-.445-.224-.808-.55-1.086-.977s-.465-.94-.559-1.539v-.008h1.594v.008c.058.417.224.741.5.973s.636.348 1.078.348c.511 0 .905-.171 1.184-.512s.418-.821.418-1.441v-.953c0-.614-.14-1.093-.418-1.434s-.673-.512-1.184-.512c-.276 0-.542.078-.797.234s-.479.375-.672.656h-1.453V263h5.789v1.516h-4.195v2.555a2.275 2.275 0 011.414-.508c.656 0 1.218.136 1.684.406s.82.667 1.063 1.188.363 1.148.363 1.883v.953c0 .734-.125 1.362-.375 1.883s-.614.918-1.094 1.191-1.055.41-1.727.41c-.573 0-1.082-.112-1.527-.336z"/></g><g><path d="M255.98 274.357l3.961-5.281c.229-.302.407-.615.535-.941.128-.325.191-.629.191-.91v-.016c0-.453-.133-.805-.398-1.055s-.644-.375-1.133-.375c-.464 0-.839.137-1.125.41s-.461.66-.523 1.16v.008h-1.648v-.008c.094-.65.285-1.207.574-1.668s.663-.813 1.121-1.055.987-.363 1.586-.363c.677 0 1.255.116 1.734.348.479.232.844.569 1.094 1.012.25.443.375.977.375 1.602v.008c0 .401-.083.82-.25 1.258s-.398.859-.695 1.266l-3.289 4.469h4.297v1.516h-6.406v-1.385zM264.261 274.146h1.594v1.594l-1.594 1.578v-3.172zM270.027 275.857l-.727-.348a2.857 2.857 0 01-1.168-1.008c-.294-.439-.48-.97-.559-1.59h1.625c.047.323.148.589.305.797.156.209.358.363.605.465s.538.152.871.152c.526 0 .935-.141 1.227-.422s.438-.677.438-1.188v-.344c0-.567-.138-1.006-.414-1.316-.276-.31-.667-.465-1.172-.465h-.805v-1.516h.805c.442 0 .786-.133 1.031-.398s.367-.641.367-1.125v-.352c0-.447-.129-.794-.387-1.039-.258-.244-.624-.367-1.098-.367-.271 0-.513.051-.727.152s-.395.258-.543.469-.257.476-.324.793h-1.617c.104-.619.301-1.15.59-1.594a2.893 2.893 0 011.098-1.008c.442-.229.95-.344 1.523-.344.979 0 1.737.258 2.273.773s.805 1.242.805 2.18v.188c0 .568-.153 1.063-.461 1.484s-.742.729-1.305.922c.62.136 1.101.44 1.441.914.341.475.512 1.078.512 1.813v.188c0 .662-.128 1.227-.383 1.695s-.626.826-1.113 1.07c-.487.245-1.074.367-1.762.367l-.951.002z"/></g><g><path d="M112.931 344.326h-1.594v-9.625l-1.617.992v-1.648l1.617-1.078h1.594v11.359zM115.338 342.943l3.961-5.281c.229-.302.407-.615.535-.941.128-.325.191-.629.191-.91v-.016c0-.453-.133-.805-.398-1.055s-.644-.375-1.133-.375c-.464 0-.839.137-1.125.41s-.461.66-.523 1.16v.008h-1.648v-.008c.094-.65.285-1.207.574-1.668s.663-.813 1.121-1.055.987-.363 1.586-.363c.677 0 1.255.116 1.734.348.479.232.844.569 1.094 1.012.25.443.375.977.375 1.602v.008c0 .401-.083.82-.25 1.258s-.398.859-.695 1.266l-3.289 4.469h4.297v1.516h-6.406v-1.385zM123.619 342.732h1.594v1.594l-1.594 1.578v-3.172zM129.045 344.107a2.75 2.75 0 01-1.086-.977c-.278-.427-.465-.939-.559-1.539v-.008h1.594v.008c.058.417.224.741.5.973.276.232.636.348 1.078.348.511 0 .905-.17 1.184-.512.278-.341.418-.821.418-1.441v-.953c0-.614-.14-1.092-.418-1.434-.278-.341-.673-.512-1.184-.512-.276 0-.542.078-.797.234s-.479.375-.672.656h-1.453v-5.984h5.789v1.516h-4.195v2.555a2.275 2.275 0 011.414-.508c.656 0 1.218.136 1.684.406.466.271.82.667 1.063 1.188.242.521.363 1.148.363 1.883v.953c0 .734-.125 1.362-.375 1.883-.25.521-.614.918-1.094 1.191s-1.055.41-1.727.41c-.573 0-1.082-.112-1.527-.336z"/></g><g><path d="M78.515 467.767l-2.938 9.938h-1.695l2.938-9.844h-2.891v1.633h-1.594v-3.148h6.18v1.421zM80.547 476.111h1.594v1.594l-1.594 1.578v-3.172zM85.152 476.97c-.55-.567-.824-1.359-.824-2.375v-5.164c0-1.021.275-1.813.828-2.379.552-.564 1.356-.848 2.414-.848 1.063 0 1.868.281 2.418.844.549.563.824 1.357.824 2.383v5.164c0 1.021-.276 1.814-.828 2.379-.553.565-1.357.848-2.414.848-1.062 0-1.869-.283-2.418-.852zm3.664-1.105c.268-.294.402-.717.402-1.27v-5.164c0-.552-.133-.975-.398-1.27-.266-.294-.683-.441-1.25-.441-.568 0-.984.147-1.25.441-.266.295-.398.718-.398 1.27v5.164c0 .553.134.976.402 1.27.268.295.684.441 1.246.441s.978-.146 1.246-.441z"/></g><g><path d="M184.165 446.534l3.813-8.227h1.641l-3.719 8.133h5.57v1.477h-7.305v-1.383zm4.898-3.555h1.555v6.688h-1.555v-6.688zM193.266 448.065h1.594v1.594l-1.594 1.578v-3.172zM199.032 449.776l-.727-.348a2.857 2.857 0 01-1.168-1.008c-.294-.439-.48-.97-.559-1.59h1.625c.047.323.148.589.305.797.156.209.358.363.605.465s.538.152.871.152c.526 0 .935-.141 1.227-.422s.438-.677.438-1.188v-.344c0-.567-.138-1.006-.414-1.316-.276-.31-.667-.465-1.172-.465h-.805v-1.516h.805c.442 0 .786-.133 1.031-.398s.367-.641.367-1.125v-.352c0-.447-.129-.794-.387-1.039-.258-.244-.624-.367-1.098-.367-.271 0-.513.051-.727.152s-.395.258-.543.469-.257.476-.324.793h-1.617c.104-.619.301-1.15.59-1.594a2.893 2.893 0 011.098-1.008c.442-.229.95-.344 1.523-.344.979 0 1.737.258 2.273.773s.805 1.242.805 2.18v.188c0 .568-.153 1.063-.461 1.484s-.742.729-1.305.922c.62.136 1.101.44 1.441.914.341.475.512 1.078.512 1.813v.188c0 .662-.128 1.227-.383 1.695s-.626.826-1.113 1.07c-.487.245-1.074.367-1.762.367l-.951.002z"/></g><g><path d="M243.844 645.082l3.961-5.281c.229-.302.407-.616.535-.941.127-.325.191-.629.191-.91v-.016c0-.453-.133-.805-.398-1.055s-.644-.375-1.133-.375c-.464 0-.839.137-1.125.41-.287.273-.461.66-.523 1.16v.008h-1.648v-.008c.094-.651.285-1.207.574-1.668s.662-.813 1.121-1.055c.458-.242.986-.363 1.586-.363.677 0 1.255.116 1.734.348.479.231.844.569 1.094 1.012s.375.977.375 1.602v.008c0 .401-.084.82-.25 1.258a5.417 5.417 0 01-.695 1.266l-3.289 4.469h4.297v1.516h-6.406v-1.385zM252.11 645.082l3.961-5.281c.229-.302.407-.616.535-.941.127-.325.191-.629.191-.91v-.016c0-.453-.133-.805-.398-1.055s-.644-.375-1.133-.375c-.464 0-.839.137-1.125.41-.287.273-.461.66-.523 1.16v.008h-1.648v-.008c.094-.651.285-1.207.574-1.668s.662-.813 1.121-1.055c.458-.242.986-.363 1.586-.363.677 0 1.255.116 1.734.348.479.231.844.569 1.094 1.012s.375.977.375 1.602v.008c0 .401-.084.82-.25 1.258a5.417 5.417 0 01-.695 1.266l-3.289 4.469h4.297v1.516h-6.406v-1.385zM260.391 644.871h1.594v1.594l-1.594 1.578v-3.172zM264.997 645.73c-.55-.567-.824-1.359-.824-2.375v-5.164c0-1.021.275-1.813.828-2.379.552-.565 1.356-.848 2.414-.848 1.063 0 1.868.281 2.418.844.549.563.824 1.356.824 2.383v5.164c0 1.021-.276 1.813-.828 2.379-.553.565-1.357.848-2.414.848-1.063 0-1.869-.285-2.418-.852zm3.664-1.105c.268-.294.402-.718.402-1.27v-5.164c0-.552-.133-.976-.398-1.27s-.683-.441-1.25-.441c-.568 0-.984.147-1.25.441s-.398.718-.398 1.27v5.164c0 .552.134.976.402 1.27.268.294.684.441 1.246.441s.977-.147 1.246-.441z"/></g><g><path d="M248.04 295.17l-.008.281c-.13.24-.327.416-.59.527a2.372 2.372 0 01-.934.168c-.542 0-1.019-.138-1.43-.414-.411-.275-.73-.665-.957-1.168-.227-.502-.34-1.084-.34-1.746v-.008c0-.734.124-1.361.371-1.883a2.62 2.62 0 011.086-1.188c.477-.271 1.048-.406 1.715-.406s1.237.139 1.711.414c.474.276.835.678 1.082 1.203.247.526.371 1.159.371 1.898v.008c0 .406-.052.84-.156 1.301s-.253.918-.445 1.371l-.094.207c-.031.07-.065.14-.102.207l-2.422 4.867h-1.719l2.861-5.639zm.074-.984c.273-.338.41-.814.41-1.43v-.008c0-.599-.137-1.063-.41-1.391s-.66-.492-1.16-.492c-.505 0-.895.164-1.168.492s-.41.795-.41 1.398v.008c0 .615.137 1.09.41 1.426s.663.504 1.168.504c.5.001.887-.168 1.16-.507zM252.071 299.217h1.594v1.594l-1.594 1.578v-3.172zM257.368 300.538a2.855 2.855 0 01-1.207-1.105c-.284-.477-.426-1.029-.426-1.66v-.188c0-.567.142-1.102.426-1.602.284-.5.663-.877 1.137-1.133-.401-.219-.723-.535-.965-.949s-.363-.85-.363-1.309v-.273c0-.594.133-1.115.398-1.566.266-.45.641-.799 1.125-1.047.484-.247 1.047-.371 1.688-.371s1.203.124 1.688.371c.484.248.859.597 1.125 1.047.266.451.398.973.398 1.566v.273c0 .469-.124.909-.371 1.32a2.465 2.465 0 01-.98.938c.479.261.863.64 1.152 1.137a3.13 3.13 0 01.434 1.598v.188c0 .631-.142 1.184-.426 1.66s-.687.846-1.207 1.105c-.521.261-1.125.391-1.813.391s-1.293-.131-1.813-.391zm2.789-1.36c.281-.146.499-.35.652-.613.153-.263.23-.566.23-.91v-.109c0-.349-.077-.654-.23-.918a1.576 1.576 0 00-.652-.613c-.281-.146-.606-.219-.977-.219s-.695.073-.977.219c-.281.146-.499.352-.652.617s-.23.573-.23.922v.117c0 .344.077.646.23.906.153.261.371.463.652.605.281.144.606.215.977.215s.696-.072.977-.219zm-.133-5.121c.245-.138.435-.334.57-.59.136-.255.203-.549.203-.883v-.109c0-.317-.067-.599-.203-.844-.136-.244-.325-.434-.57-.566s-.526-.199-.844-.199-.599.066-.844.199-.435.322-.57.566a1.726 1.726 0 00-.203.852v.117c0 .328.067.619.203.871.136.253.325.448.57.586.245.139.526.207.844.207s.599-.068.844-.207z"/></g><g><path d="M16.452 617.972a2.75 2.75 0 01-1.086-.977c-.279-.427-.465-.939-.559-1.539v-.008h1.594v.008c.057.417.224.741.5.973.276.232.635.348 1.078.348.51 0 .905-.17 1.184-.512.278-.341.418-.821.418-1.441v-.953c0-.614-.14-1.092-.418-1.434-.279-.341-.673-.512-1.184-.512-.276 0-.542.078-.797.234a2.237 2.237 0 00-.672.656h-1.453v-5.984h5.789v1.516h-4.195v2.555a2.275 2.275 0 011.414-.508c.656 0 1.217.136 1.684.406.466.271.82.667 1.063 1.188.242.521.363 1.148.363 1.883v.953c0 .734-.125 1.362-.375 1.883-.25.521-.615.918-1.094 1.191-.479.273-1.055.41-1.727.41-.573 0-1.082-.112-1.527-.336zM23.362 616.597h1.594v1.594l-1.594 1.578v-3.172zM31.167 612.55l-.008.281c-.13.24-.327.416-.59.527a2.372 2.372 0 01-.934.168c-.542 0-1.019-.138-1.43-.414-.412-.275-.73-.665-.957-1.168-.227-.502-.34-1.084-.34-1.746v-.008c0-.734.124-1.361.371-1.883a2.62 2.62 0 011.086-1.188c.477-.271 1.048-.406 1.715-.406s1.237.139 1.711.414a2.67 2.67 0 011.082 1.203c.247.526.371 1.159.371 1.898v.008c0 .406-.052.84-.156 1.301a8.052 8.052 0 01-.445 1.371l-.094.207c-.031.07-.065.14-.102.207l-2.422 4.867h-1.719l2.861-5.639zm.074-.984c.273-.338.41-.814.41-1.43v-.008c0-.599-.137-1.063-.41-1.391s-.66-.492-1.16-.492c-.505 0-.895.164-1.168.492s-.41.795-.41 1.398v.008c0 .615.137 1.09.41 1.426s.663.504 1.168.504c.5.001.887-.168 1.16-.507z"/></g><g><path d="M14.649 288.242l3.961-5.281c.229-.302.407-.615.535-.941.127-.325.191-.629.191-.91v-.016c0-.453-.133-.805-.398-1.055s-.644-.375-1.133-.375c-.464 0-.839.137-1.125.41-.287.273-.461.66-.523 1.16v.008h-1.648v-.008c.094-.65.285-1.207.574-1.668s.663-.813 1.121-1.055c.458-.242.987-.363 1.586-.363.677 0 1.255.116 1.734.348.479.232.844.569 1.094 1.012.25.443.375.977.375 1.602v.008c0 .401-.083.82-.25 1.258a5.417 5.417 0 01-.695 1.266l-3.289 4.469h4.297v1.516H14.65v-1.385zM22.93 288.031h1.594v1.594l-1.594 1.578v-3.172zM27.93 289.339a2.604 2.604 0 01-1.082-1.172c-.248-.513-.371-1.131-.371-1.855v-.008c0-.422.049-.864.148-1.328a7.673 7.673 0 01.532-1.597l.109-.223 2.469-4.891h1.719l-2.898 5.664.008-.281c.13-.244.32-.435.57-.57.25-.135.542-.203.875-.203.588 0 1.094.133 1.516.398s.742.652.961 1.16.328 1.119.328 1.832v.008c0 .729-.124 1.354-.371 1.875a2.62 2.62 0 01-1.086 1.188c-.477.271-1.048.406-1.715.406-.668 0-1.238-.134-1.712-.403zm2.879-1.597c.273-.313.41-.758.41-1.336v-.008c0-.635-.144-1.126-.43-1.473-.287-.346-.695-.52-1.227-.52-.474 0-.841.175-1.102.523-.261.35-.391.842-.391 1.477v.008c0 .578.137 1.022.41 1.332.273.311.66.465 1.16.465.507.001.897-.156 1.17-.468z"/></g></g></svg>