<svg version="1.1" id="_x32__1_" xmlns="http://www.w3.org/2000/svg" xmlns:xlink="http://www.w3.org/1999/xlink" x="0" y="0" viewBox="0 0 346.964 158.352" xml:space="preserve"><style>.st2,.st3{fill:none;stroke-linecap:round;stroke-linejoin:round}.st2{fill-rule:evenodd;clip-rule:evenodd;stroke:#999;stroke-miterlimit:22.9256}.st3{stroke:#000;stroke-miterlimit:3}.st4,.st6{fill-rule:evenodd;clip-rule:evenodd}.st6{fill:none;stroke:#666;stroke-width:.6;stroke-miterlimit:22.9256}</style><g id="fon_1_"><path id="fon" fill-rule="evenodd" clip-rule="evenodd" fill="#fff" d="M15.55.108h331.414v158.136H15.55z"/></g><g id="mebel_1_"><path d="M107.129 72.28l3.481-3.481m-10.428 3.481l10.428-10.429M93.235 72.28l17.375-17.375M86.288 72.28l24.322-24.321M79.341 72.28l31.269-31.269M72.395 72.28l35.99-35.991M65.447 72.28l35.991-35.991M58.5 72.28l35.991-35.991M55.442 68.392l32.103-32.103M55.442 61.445L86.616 30.27M55.442 54.497l12.645-12.645m8.092-8.092l10.437-10.437M55.442 47.551l8.784-8.784m11.372-11.372l6.41-6.41M55.442 40.604l7.573-7.572m11.92-11.921l.126-.126m-19.618 12.67l8.349-8.349m-8.349 1.403l5.724-5.724m49.442 21.218l-5.913-5.914m5.913 12.861l-12.86-12.861M86.616 25.155l-4.17-4.17m28.163 35.111L90.803 36.289m-4.187-4.187L75.499 20.985m35.11 42.058L75.673 28.107m34.936 41.883L76.043 35.423M63.995 23.375l-2.39-2.39m44.348 51.295L73.898 40.225M63.332 29.659l-7.889-7.889m43.563 50.51L68.653 41.928m-5.242-5.242l-7.969-7.969M92.06 72.28L55.443 35.663M85.112 72.28l-29.67-29.67m22.724 29.67L55.442 49.557M71.219 72.28L55.442 56.504m8.83 15.776l-8.83-8.83m1.883 8.83l-1.883-1.883" fill-rule="evenodd" clip-rule="evenodd" fill="none" stroke="#999" stroke-width=".4" stroke-linecap="round" stroke-linejoin="round" stroke-miterlimit="22.926"/><path class="st2" d="M212.246 87.583V11.066m0 0h15.114m0 0v76.517m0 0h-15.114M213.002 87.583V11.066M212.246 49.325h.756M212.246 87.583h.756M75.986 35.882l-.469 1.645m0 0l-.718 1.552m0 0l-.967 1.23m0 0l-1.249.943m0 0l-1.448.593m0 0l-1.55.206m0 0l-1.552-.206m0 0l-1.447-.593m0 0l-1.249-.943m0 0l-.967-1.23m0 0l-.719-1.552m0 0l-.469-1.645m0 0l-.207-1.697m0 0l.059-1.71m0 0l1.223-11.584m0 0h10.654m0 0l1.223 11.584m0 0l.059 1.71m0 0l-.207 1.697M65.467 26.612h4.118M69.585 26.612h4.116M69.585 41.766a5.752 5.752 0 01-3.064-.886M66.52 40.879c-2.217-1.723-3.413-4.238-3.248-6.83M63.272 34.049c-.07-2.609.69-5.184 2.195-7.437M73.701 26.612c1.505 2.253 2.266 4.828 2.195 7.437M75.896 34.049c.165 2.592-1.031 5.107-3.248 6.83M72.648 40.879c-.89.57-1.962.88-3.063.886M64.936 20.891h9.296m0 0v.188m0 0h-9.296m0 0v-.188M79.031 20.891H60.137M79.031 16.356H60.137M79.031 20.891v-4.535M60.138 20.891v-4.535M110.044 21.174H87.183m0 0l-.401.166m0 0l-.166.401m0 0v13.981m0 0l.166.4m0 0l.401.166m0 0h22.861m0 0l.4-.166m0 0l.166-.4m0 0V21.741m0 0l-.166-.401m0 0l-.4-.166M108.91 25.331h-9.844m-.906 0h-9.844M87.75 25.897v8.691M88.316 35.155h20.594M109.477 34.588v-8.691M87.75 25.897c0-.313.254-.566.566-.566M88.316 35.155a.567.567 0 01-.566-.567M109.477 34.588a.566.566 0 01-.566.567M108.91 25.331c.313 0 .566.253.566.566M99.369 28.319a.755.755 0 01-.303.605v-1.21a.755.755 0 01.303.605zm-1.209.605a.754.754 0 010-1.21v1.21zM98.16 21.703h.907m0 0v7.748m0 .001l-.257.301m0-.001h-.394m0 0l-.256-.301m0 .001v-7.748M99.369 21.703h-1.512m0 0v-.265m0 0h1.512m0 0v.265M99.747 21.439h-2.268m0 0v-.265m0 0h2.268m0 0v.265M101.882 23.064v-1.625m0 0h-.095m0 0v-.132m0 0h-.283m0 0v-.133m0 0h1.89m0 0v.133m0 0h-.283m-.001 0v.132m0 0h-.095m.001 0v1.625m0 0h-.322m-.001 0v.415m0 0h1.078m0 0v.492m0 0h-2.646m.001 0v-.492m0 0h1.077m-.001 0v-.415m0 0h-.321M95.344 23.064v-1.625m0 0h.095m0 0v-.132m0 0h.283m.001 0v-.133m0 0h-1.89m-.001 0v.133m0 0h.283m.001 0v.132m0 0h.095m0 0v1.625m0 0h.322m0 0v.415m0 0h-1.078m-.001 0v.492m0 0H96.1m0 0v-.492m0 0h-1.077m0 0v-.415m0 0h.321M102.694 23.479l-.072.072M102.203 23.479l.071.072M102.694 23.064h-.491M103.016 21.439h-1.135M101.787 21.307h1.323M94.532 23.479l.072.072M95.023 23.479l-.072.072M94.532 23.064h.491M94.211 21.439h1.134M95.439 21.307h-1.323M102.694 23.725a.246.246 0 11-.492 0 .246.246 0 01.492 0zM95.023 23.725a.246.246 0 11-.491 0 .246.246 0 01.491 0zM55.442 72.28V40.54M55.442 40.54H24.835M32.392 65.667a.945.945 0 11-1.89 0 .945.945 0 011.89 0zM37.819 56.57l.371 1.397m0 0l.793 1.209m0 0l1.133.897m0 0l1.358.497m0 0l1.445.042m0 0l1.384-.413m0 0l1.185-.829m0 0l.864-1.159m0 0l.454-1.371m0 0v-1.446m0 0l-.454-1.372m0 0l-.864-1.16m0 0l-1.185-.828m0 0l-1.384-.414m0 0l-1.445.044m0 0l-1.358.496m0 0l-1.133.898m0 0l-.793 1.208m0 0l-.371 1.397m0 0h-5.538m0 0l.108-.456m0 0l.037-.489m0 0l-.037-.488m0 0l-.108-.456m0 0l-.173-.392m0 0l-.224-.3m0 0l-.261-.188m0 0l-.281-.065m0 0h-.402m0 0l-.121.019m0 0l-.277.064m0 0l-.104.055m0 0l-.251.181m0 0l-.07.078m0 0l-.204.274m0 0l-.157.357m0 0l-.052.195m0 0l-.06.25m0 0l-.687.019m0 0l-.796.01m0 0v-1.728m0 0h-.435m0 0v-2.872m0 0l-.059-.16m0 0l-.149-.083m0 0l-.166.033m0 0l-.105.133m0 0l-.158.486m0 0l-.315.726m0 0l-.573 1.007m0 0l-.259.73m0 0h-.125m0 0v-.605m0 0h-.982m0 0v2.57m0 0h.878m0 0l.038.062m0 0l.034.032m0 0l.04.026m0 0l.673.278m0 0v.697m0 0h-1.361m0 0v-1.058m0 0h-.302m0 0v3.023m0 0h.302m0 0V56.57m0 0h1.361m0 0v1.436m0 0h.151m0 0v.416m0 0h-.303m0 0v-.152m0 0h-.529m0 0v-.604m0 0h-.982m0 0v2.57m0 0h.982m0 0v-.605m0 0h.529m0 0v-.151m0 0h.303m0 0v.151m0 0h1.512m0 0v-2.57m0 0h2.153m0 0v-.082m0 0v-.094m0 0v-.123m0 0v-.15m0 0v-.042m0 0h7.505M26.498 54.227v.209m0 .001l-.341-.14m0 0l-.053-.325m0-.001l.001-.008m0 0h.242m0 0v-.152m0 0h.302m0 0v.416m0 0h-.151M26.649 52.754h-.24m0 0l.239-.677m0 0l.563-.988m0 0l.024-.052m0 0v1.566m0 0h-.586m0 0v.151M25.817 58.611h.529M25.817 59.291h.529M25.817 52.954v-.351M26.347 53.812v-.189M26.347 53.623v-.68M26.347 52.943v-.014M26.171 53.623h.176M26.341 52.943h.006M26.649 52.754v1.058M28.161 55.106v.558M27.235 52.603h.491M28.727 55.172v.491M27.714 49.807l.013-.076M25.61 53.956l.002.047M25.642 53.786l-.032.171M25.694 54.501l.01.047M25.704 54.548l.009.02M25.942 52.603l-.16.453M25.782 53.055l-.14.731M26.115 53.911l-.011.061M27.714 49.807l-.167.512M27.547 50.319l-.312.717M25.799 53.014h.108a.108.108 0 00-.108-.108c-.059 0-.108.049-.108.108s.049.108.108.108c.06 0 .108-.048.108-.108h-.108zM25.612 54.003l.082.498M30.216 55.662l-.002.002M29.685 55.663l-.002-.002M27.046 54.227h-.128M26.801 54.227h-.104M26.918 54.227h-.117M26.498 54.437v.523M26.255 53.19l-.14.722M26.409 52.754l-.154.436M27.132 54.908h.108a.108.108 0 00-.216 0c0 .059.049.108.108.108s.108-.049.108-.108h-.108zM27.087 54.817l.045.091M27.072 54.718l.015.099M27.087 54.621l-.015.098M27.132 54.53l-.045.091M27.132 54.53h.108a.108.108 0 10-.216 0 .108.108 0 00.216 0h-.108zM29.628 54.374l-.026.345M29.601 54.718l.026.345M29.644 54.303l-.017.071M29.704 55.385l.052.196M29.628 55.063l.076.321M27.299 54.35l.062-.009M29.756 55.58l.036.083M29.644 55.135l-.687-.019M27.36 55.096l-.062-.008M27.299 55.087l-.058-.026M27.241 55.061l-.05-.042M27.191 55.019l-.038-.055M27.153 54.964l-.021-.056M27.132 54.908l-.003-.007M27.129 54.9l-.008-.068M27.121 54.832v-.227M27.121 54.605l.008-.068M27.129 54.537l.003-.007M27.132 54.529l.021-.056M27.153 54.473l.038-.055M27.191 54.418l.05-.042M27.241 54.376l.058-.026M28.957 55.116l-1.597-.019M28.161 54.331l-.801.009M27.858 54.227v.107M27.858 55.102v.561M37.819 56.57h5.343M37.819 55.663h5.343M43.162 56.57v-.907M25.817 59.631v-1.36M26.347 59.48v-1.058M26.649 59.48v-1.058M26.649 58.006h1.209M27.858 54.227h-1.209M25.138 56.57v-.907M26.498 56.57h3.816M32.281 55.663h-5.783M27.858 58.006V56.57M28.161 57.061v-.491M28.727 57.061v-.491M28.161 55.172h1.492M40.496 55.663a1.89 1.89 0 110 .907M27.775 58.006a.339.339 0 01-.125.464.34.34 0 01-.464-.464M113.633 77.986h1.7m.001 0V20.665m0 0h-1.7m-.001 0v57.321M147.641 77.986V49.325m0 0h-23.806m0 0v28.661m0 0h23.806M147.641 49.325V20.664m0 0h-23.806m0 0v28.661m0 0h23.806M147.641 20.664v-9.598m0 0h-34.008m0 0v9.598m0 0h1.7m8.503 0h23.806M147.641 87.583v-9.598m0 0h-23.806m-8.501 0h-1.7m-.001 0v9.598m0 0h34.008M115.334 49.325h8.502m0 0V15.866m0 0h-8.502m0 0v33.459M115.334 49.325h8.502m0 0v33.459m0 0h-8.502m0 0V49.325M191.85 125.37h-22.671m0 0v23.427m0 0h22.671m0 0V125.37M180.514 140.862v-7.557M183.186 139.755l-5.344-5.344M184.294 137.083h-7.558M183.186 134.411l-5.344 5.345M212.822 128.581h-19.271m0 0l-.535.222m0 0l-.22.534m0 0v17.382m0 0l.22.534m0 0l.535.222m0 0h19.271m0 0l.534-.222m0 0l.222-.534m0 0v-17.382m0 0l-.222-.534m0 0l-.534-.222M214.522 125.37H191.85M214.522 148.797H191.85M214.522 125.37v23.427M191.85 125.37v23.427M210.932 130.471H195.44M194.684 131.227v11.714M195.44 143.696h15.492M211.688 142.941v-11.714M210.932 130.471h.108a.108.108 0 10-.216 0 .108.108 0 00.216 0h-.108zM194.684 131.227c0-.417.339-.756.756-.756M195.44 143.696a.756.756 0 01-.756-.755M211.688 142.941a.755.755 0 01-.756.755M210.932 130.471c.418 0 .756.338.756.756M203.527 138.864l-.101-.24m0 0l-.241-.099m0 0l-.239.1m0 0l-.1.241m0 0v7.476m0 0l.1.24m0 0l.24.1m0 0l.24-.1m0 0l.101-.24m0 0v-7.478M203.941 144.414h-.414m0 0v1.927m0 0l-.101.24m0 0l-.24.1m0 .001l-.24-.1m0-.001l-.1-.24m0 0v-1.927m0 0h-.414m0 0v2.456m0 0h1.509m0 0v-2.456M203.931 143.054h-.403m-.001 0v1.322m0 0h.403m.001 0v-1.322M202.442 143.054v1.322m0 0h.404m0 0v-1.322m0 0h-.404M301.242 125.37h22.672m0 0v23.427m0 0h-22.672m0 0V125.37M289.528 127.826h-21.916m0 0v18.515m0 0h21.916m0 0v-18.515M278.57 139.106v5.299M278.57 144.405h-1.096M278.57 139.106h-1.096M269.716 139.106v5.299M270.812 144.405h-1.096M270.812 139.106h-1.096M287.556 141.971a2.74 2.74 0 11-5.48 0 2.74 2.74 0 015.48 0zM287.512 133.733a3.968 3.968 0 11-7.935-.001 3.968 3.968 0 017.935.001z"/><path class="st2" d="M285.812 133.733a2.267 2.267 0 11-4.535 0 2.267 2.267 0 014.535 0z"/><circle class="st2" cx="274.143" cy="141.786" r="2.645"/><circle class="st2" cx="273.026" cy="133.195" r="3.401"/><path class="st2" d="M301.242 125.37h-45.344M301.242 148.797h-45.344M301.242 125.37v23.427M255.898 125.37v23.427M237.194 125.37h-22.672M237.194 148.797h-22.672M237.194 125.37v23.427M214.522 125.37v23.427M237.194 125.37h18.704m0 0v23.427m0 0h-18.704m0 0V125.37M145.752 137.461a7.18 7.18 0 11-14.361-.001 7.18 7.18 0 0114.361.001zM232.427 135.521a3.41 3.41 0 11-6.822 0 3.41 3.41 0 016.822 0z"/><path class="st2" d="M231.905 135.521a2.89 2.89 0 11-5.78 0 2.89 2.89 0 015.78 0zM225.286 134.689a2.579 2.579 0 11-5.158 0 2.579 2.579 0 015.158 0z"/><path class="st2" d="M224.151 134.689a1.444 1.444 0 11-2.888.002 1.444 1.444 0 012.888-.002zM24.835 148.797V125.37m0 0h84.642m0 0v23.427m0 0H24.835M109.477 137.083v.756m0 0H24.834m0 0v-.756m0 0h84.642M32.272 146.805v-18.626m0-.001h.756m0 0v18.626m0 .001h-.756M34.277 146.805v-18.626m0-.001h.755m0 0v18.626m0 .001h-.755M36.282 146.805v-18.626m0-.001h.755m0 0v18.626m0 .001h-.755M38.286 146.805v-18.626m0-.001h.756m0 0v18.626m0 .001h-.756M42.532 146.669l-2.241-18.491m0 0l.75-.091m0 0l2.241 18.491m0 0l-.75.091M221.114 24.074h1.021m0 0v44.37m0 0h-1.021m0 0v-44.37M222.135 25.478l3.41-.709m-.001 0l-.141-.68m.001 0l-3.269.68m0 0v.709M222.135 33.776h.832m0 0l.566.152m0 0l.415.414m0 0l.153.568m-.001 0v22.699m0 0l-.153.566m.001 0l-.415.415m0 0l-.566.152m0 0h-.832m0 0V33.776M220.758 25.478l-3.41-.709m0 0l.141-.68m0 0l3.269.68m0 0v.709M222.135 67.039l3.41.709m-.001 0l-.141.68m.001 0l-3.269-.68m0 0v-.709M220.817 67.039l-3.41.709m0 0l.14.68m0 0l3.27-.68m0 0v-.709M220.817 24.074h.297m0 0v44.37m0 0h-.297m0 0v-44.37M55.442 40.54H38.816m0 0V21.174m0 0h16.626m0 0V40.54M144.58 136.946l-1.233.449m0 0h-1.313m0 0l-1.232-.449m0 0l-1.474.342m0 0h-1.512m0 0l-1.473-.342m0 0l-1.235.45m0-.001h-1.314m0 0l-1.235-.45m0 .001l2.233 2.987m0-.001h7.557m0 0l2.231-2.987M142.348 140.195h-7.557m0 0v-.262m0 0h7.557m0 0v.262M142.348 140.718h-7.557m0 0v-.262m0 0h7.557m0 0v.262M137.728 135.43l.892-.085m0 .001l.021.226m0-.001l-.477.045m0 .001l1.383 1.143m0-.001l-.126.152m0 .001l-.641-.53m0 0l-.068.081m0 0l.74.611m0 0l-.121.146m0-.001l-.74-.611m0 .001l-.08.098m0-.001l.602.496m0 0l-.108.13m0 .001l-.601-.496m0 0l-.081.097m0 0l.415.342m0 0l-.115.141m0 0l-1.423-1.175M149.908 126.126h-22.672m0 0v22.671m0 0h22.672m0 0v-22.671M151.42 126.126H112.5m0 0v-.756m0 0h38.92m0 0v.756M233.084 133.313h-.964m0 0v-1.204m0 0h-12.523m0 0v1.204m0 0h-.963M231.62 143.318h-9.634m0 0v-.478m0 0h.723m0 0v.237m0 0h8.188m0 0v-.237m0 0h.723m0 0v.478M231.62 142.84l-.047-.104m-.047-.103l-.048-.103m-.046-.103l-.047-.103m-.048-.103l-.047-.103m-.047-.103l-.048-.103m-.047-.103l-.047-.103m-.047-.103l-.047-.103m-.047-.103l-.047-.103m-.047-.104l-.048-.103m-.047-.103l-.047-.103m-.047-.103l-.047-.103m-.047-.104l-.048-.103m-.047-.103l-.047-.103m-.048-.103l-.046-.103m-.047-.103l-.047-.103m-.048-.103l-.047-.103m-.047-.103l-.047-.104M221.986 142.84l.047-.104m.048-.103l.047-.103m.046-.103l.048-.103m.047-.103l.047-.103m.048-.103l.047-.103m.047-.103l.047-.103m.046-.103l.048-.103m.047-.103l.047-.103m.048-.104l.047-.103m.047-.103l.047-.103m.047-.103l.047-.103m.048-.104l.047-.103m.047-.103l.047-.103m.048-.103l.046-.103m.047-.103l.047-.103m.048-.103l.047-.103m.047-.103l.048-.104M231.62 142.84h-.078m-.113 0h-.114m-.113 0h-.113m-.114 0h-.078m0 0l-.042-.052m-.071-.088l-.071-.088m-.072-.088l-.071-.088m-.071-.088l-.072-.088m-.072-.087l-.071-.089m-.071-.088l-.072-.088m-.072-.088l-.071-.088m-.071-.088l-.072-.088m-.071-.088l-.071-.088m-.072-.088l-.072-.088m-.071-.088l-.071-.088m-.072-.088l-.071-.088m-.071-.088l-.072-.088m-.072-.088l-.071-.088m-.071-.088l-.072-.088m-.071-.088l-.072-.088m-.071-.088l-.072-.088m-.071-.088l-.071-.088m-.073-.088l-.071-.088m-.071-.088l-.071-.088m-.072-.088l-.071-.088m-.071-.088l-.073-.088m-.071-.088l-.042-.052M221.986 142.84h.078m.113 0h.114m.113 0h.113m.114 0h.078m0 0l.042-.052m.071-.088l.071-.088m.072-.088l.072-.088m.071-.088l.071-.088m.072-.087l.071-.089m.071-.088l.072-.088m.072-.088l.071-.088m.071-.088l.072-.088m.071-.088l.071-.088m.072-.088l.072-.088m.071-.088l.071-.088m.072-.088l.071-.088m.072-.088l.071-.088m.072-.088l.071-.088m.071-.088l.072-.088m.072-.088l.071-.088m.071-.088l.072-.088m.071-.088l.071-.088m.072-.088l.072-.088m.071-.088l.071-.088m.072-.088l.071-.088m.072-.088l.072-.088m.071-.088l.042-.052M294.257 33.939l-4.109-4.109m0 0l-.426-.407m0 0l-.43-.371m0 0l-.424-.328m0 0l-.403-.276m0 0l-.017-.009m0 0l-.375-.216m0 0l-.332-.147m0 0l-.025-.008m0 0l-.281-.075m0 0l-.028-.004m0 0l-.22.002m0 0l-.03.002m0 0l-.029.007m0 0l-.027.013m0 0l-.154.078m0 0l-.024.018m0 0l-.012.01m0 0l-1.133 1.134m0 0l-1.03-1.029m0 0l-5.217 5.217m11.115 11.116l5.217-5.218m0 0l-1.029-1.029m0 0l1.134-1.134m0 0l.011-.011m0 0l.017-.025m0 0l.078-.154m0 0l.013-.027m0 0l.008-.029m0 0l.002-.029m0 0l.001-.221m0 0l-.003-.028m0 0l-.075-.281m0 0l-.008-.025m0 0l-.148-.332m0 0l-.214-.376m0 0l-.011-.016m0 0l-.276-.404m0 0l-.328-.423m0 0l-.371-.429m0 0l-.407-.427M285.11 29.921l9.057 9.057M285.233 30.045l.897-.898M294.042 38.854l.898-.898M290.169 42.975l4.665-4.664M281.113 33.918l4.664-4.664M289.118 30.852l4.118 4.117M286.13 29.147c.354-.354 1.691.409 2.988 1.706M293.235 34.968c1.296 1.296 2.06 2.634 1.705 2.988M257.659 62.32l4.108 4.108m0 .001l.427.408m0 0l.43.371m0 0l.423.328m0 0l.404.275m0 0l.016.011m0 0l.376.215m0 0l.332.147m0 0l.024.008m0 0l.281.075m0 0l.029.003m0 0l.22-.001m0 0l.03-.002m0 0l.028-.008m0-.001l.027-.012m0 .001l.154-.078m0 0l.025-.018m0-.001l.011-.011m0 .001l1.134-1.133m0 0l1.029 1.029m0 0l5.219-5.218m-11.117-11.114l-5.216 5.217m0 0l1.029 1.029m0 0l-1.135 1.134m0 0l-.01.011m0 0l-.017.025m0 0l-.078.153m0 0l-.013.027m0 0l-.008.03m0 0l-.002.029m0 0l-.001.221m0 0l.003.027m0 0l.074.282m0 0l.009.025m0 0l.147.332m0-.001l.215.375m0 .001l.01.016m0 0l.276.404m0 0l.329.424m0 0l.371.429m0 0l.407.427M266.806 66.338l-9.057-9.057M266.683 66.214l-.898.898M257.872 57.405l-.896.896M261.746 53.285l-4.664 4.664M270.803 62.341l-4.664 4.664M262.797 65.407l-4.117-4.117M265.785 67.113c-.354.354-1.692-.409-2.988-1.705M258.68 61.29c-1.296-1.296-2.06-2.634-1.705-2.988M261.767 29.83l-4.108 4.109m0 0l-.408.427m0 0l-.371.429m0 0l-.329.423m0 0l-.275.404m0 0l-.01.016m0 0l-.216.376m0 0l-.146.332m0 0l-.009.025m0 0l-.074.281m0 0l-.003.028m0 0l.001.221m0 0l.002.029m0 0l.008.029m0 0l.012.027m0 0l.078.154m0 0l.018.024m0 0l.01.012m0 0l1.134 1.133m0 0l-1.029 1.03m0 0l5.217 5.217m11.115-11.115l-5.218-5.217m0 0l-1.028 1.029m0 0l-1.135-1.134m0 0l-.01-.01m0 0l-.026-.018m0 0l-.153-.078m0 0l-.027-.013m0 0l-.029-.007m0 0l-.029-.002m0 0l-.221-.002m0 0l-.028.004m0 0l-.281.075m0 0l-.025.008m0 0l-.332.147m0 0l-.376.215m0 0l-.015.01m0 0l-.405.276m0 0l-.423.328m0 0l-.429.371m0 0l-.427.407M257.75 38.978l9.056-9.057M257.872 38.854l-.896-.898M266.683 30.045l-.898-.898M270.803 33.918l-4.664-4.664M261.746 42.974l-4.664-4.663M258.68 34.969l4.117-4.117M256.975 37.956c-.354-.354.409-1.692 1.705-2.988M262.796 30.851c1.297-1.296 2.635-2.059 2.988-1.705M290.148 66.429l4.109-4.108m0 0l.408-.427m0 0l.371-.43m0 0l.328-.424m0 0l.275-.403m0 0l.011-.017m0 0l.215-.375m0 0l.147-.332m0 0l.008-.024m0 0l.075-.282m0 0l.003-.028m0 0l-.001-.22m0 0l-.002-.03m0 0l-.008-.029m0 0l-.012-.027m0 0l-.078-.154m0 0l-.018-.024m0 0l-.011-.012m0 0l-1.133-1.133m0 0l1.029-1.03m0 0l-5.218-5.218M279.53 62.817l5.219 5.218m0 0l1.029-1.029m0 0l1.134 1.134m0 0l.011.011m0 0l.025.017m0 0l.153.078m0 0l.027.013m0 0l.03.008m0 0l.029.002m0 0l.221.001m0 0l.027-.003m0 0l.281-.075m0 0l.026-.008m0 0l.332-.148m0 0l.375-.214m0 0l.016-.011m0 0l.404-.276m0 0l.424-.328m0 0l.429-.371m0 0l.426-.407M294.167 57.282l-9.058 9.057M294.042 57.405l.898.896M285.233 66.214l.897.898M281.113 62.341l4.664 4.664M290.169 53.285l4.665 4.664M293.236 61.29l-4.117 4.117M294.941 58.302c.354.354-.409 1.691-1.705 2.987M289.118 65.407c-1.296 1.296-2.634 2.06-2.988 1.705M291.072 48.129c0 8.348-6.767 15.114-15.114 15.114-8.348 0-15.115-6.766-15.115-15.114 0-8.347 6.767-15.114 15.115-15.114 8.347 0 15.114 6.767 15.114 15.114z"/></g><g id="sizes_1_"><path d="M302.253 116.637l3.813-8.227h1.641l-3.719 8.133h5.57v1.477h-7.305v-1.383zm4.898-3.555h1.555v6.688h-1.555v-6.688zM311.354 118.168h1.594v1.594l-1.594 1.578v-3.172zM319.159 114.121l-.008.281c-.13.24-.327.416-.59.527a2.372 2.372 0 01-.934.168c-.542 0-1.019-.138-1.43-.414-.411-.276-.73-.665-.957-1.168-.227-.502-.34-1.084-.34-1.746v-.008c0-.734.124-1.362.371-1.883a2.615 2.615 0 011.086-1.188c.477-.271 1.048-.406 1.715-.406s1.237.138 1.711.414a2.66 2.66 0 011.082 1.203c.247.526.371 1.159.371 1.898v.008c0 .406-.052.84-.156 1.301s-.253.918-.445 1.371l-.094.207c-.031.07-.065.14-.102.207l-2.422 4.867H316.3l2.859-5.639zm.074-.984c.273-.338.41-.815.41-1.43v-.008c0-.599-.137-1.063-.41-1.391s-.66-.492-1.16-.492c-.505 0-.895.164-1.168.492s-.41.794-.41 1.398v.008c0 .615.137 1.09.41 1.426s.663.504 1.168.504c.5.001.887-.168 1.16-.507zM29.686 87.206l3.812-8.227h1.641l-3.719 8.133h5.57v1.477h-7.305v-1.383zm4.899-3.555h1.555v6.688h-1.555v-6.688zM38.788 88.737h1.594v1.594l-1.594 1.578v-3.172zM44.554 90.448l-.727-.348a2.857 2.857 0 01-1.168-1.008c-.294-.44-.48-.97-.559-1.59h1.625c.047.323.148.589.305.797.156.208.358.363.605.465s.538.152.871.152c.526 0 .935-.141 1.227-.422s.438-.677.438-1.188v-.344c0-.567-.138-1.006-.414-1.316-.276-.31-.667-.465-1.172-.465h-.805v-1.516h.805c.442 0 .786-.133 1.031-.398s.367-.641.367-1.125v-.352c0-.448-.129-.794-.387-1.039-.258-.245-.624-.367-1.098-.367-.271 0-.513.051-.727.152s-.395.258-.543.469-.257.476-.324.793h-1.617c.104-.62.301-1.151.59-1.594a2.893 2.893 0 011.098-1.008c.442-.229.95-.344 1.523-.344.979 0 1.737.258 2.273.773s.805 1.242.805 2.18v.188c0 .568-.153 1.063-.461 1.484s-.742.729-1.305.922c.62.136 1.101.44 1.441.914.341.474.512 1.078.512 1.813v.188c0 .662-.128 1.227-.383 1.695s-.626.826-1.113 1.07c-.487.245-1.074.367-1.762.367l-.951.002z"/><g><path d="M89.235 60.784l3.961-5.281c.229-.302.407-.616.535-.941.128-.325.191-.629.191-.91v-.016c0-.453-.133-.805-.398-1.055s-.644-.375-1.133-.375c-.464 0-.839.137-1.125.41s-.461.66-.523 1.16v.008h-1.648v-.008c.094-.651.285-1.207.574-1.668s.663-.813 1.121-1.055.987-.363 1.586-.363c.677 0 1.255.116 1.734.348.479.232.844.569 1.094 1.012.25.443.375.977.375 1.602v.008c0 .401-.083.82-.25 1.258s-.398.859-.695 1.266l-3.289 4.469h4.297v1.516h-6.406v-1.385zM97.516 60.573h1.594v1.594l-1.594 1.578v-3.172zM102.813 61.894c-.521-.26-.923-.629-1.207-1.105s-.426-1.03-.426-1.66v-.189c0-.567.142-1.102.426-1.602s.663-.877 1.137-1.133c-.401-.219-.723-.535-.965-.949s-.363-.85-.363-1.309v-.273c0-.594.133-1.116.398-1.566.266-.45.641-.799 1.125-1.047.484-.247 1.047-.371 1.688-.371s1.203.124 1.688.371c.484.248.859.597 1.125 1.047.266.451.398.973.398 1.566v.273c0 .469-.124.909-.371 1.32a2.472 2.472 0 01-.98.938c.479.261.863.64 1.152 1.137a3.13 3.13 0 01.434 1.598v.188c0 .63-.142 1.184-.426 1.66s-.687.845-1.207 1.105c-.521.261-1.125.391-1.813.391s-1.292-.13-1.813-.39zm2.789-1.36c.281-.146.499-.35.652-.613.153-.263.23-.566.23-.91v-.109c0-.349-.077-.655-.23-.918a1.576 1.576 0 00-.652-.613c-.281-.146-.606-.219-.977-.219s-.695.073-.977.219c-.281.146-.499.352-.652.617s-.23.573-.23.922v.117c0 .344.077.646.23.906.153.261.371.462.652.605.281.144.606.215.977.215s.696-.073.977-.219zm-.132-5.121c.245-.138.435-.334.57-.59.136-.255.203-.549.203-.883v-.109c0-.317-.067-.599-.203-.844s-.325-.434-.57-.566-.526-.199-.844-.199-.599.066-.844.199-.435.322-.57.566a1.726 1.726 0 00-.203.852v.117c0 .328.067.619.203.871.136.253.325.448.57.586.245.138.526.207.844.207s.598-.069.844-.207z"/></g><g><path d="M165.673 29.012h-1.594v-9.625l-1.617.992v-1.648l1.617-1.078h1.594v11.359zM169.895 28.793a2.75 2.75 0 01-1.086-.977c-.278-.427-.465-.94-.559-1.539v-.007h1.594v.008c.058.417.224.741.5.973.276.232.636.348 1.078.348.511 0 .905-.17 1.184-.512.278-.341.418-.821.418-1.441v-.953c0-.614-.14-1.092-.418-1.434-.278-.341-.673-.512-1.184-.512-.276 0-.542.078-.797.234s-.479.375-.672.656H168.5v-5.984h5.789v1.516h-4.195v2.555a2.275 2.275 0 011.414-.508c.656 0 1.218.136 1.684.406.466.271.82.667 1.063 1.188.242.521.363 1.148.363 1.883v.953c0 .734-.125 1.362-.375 1.883-.25.521-.614.918-1.094 1.191s-1.055.41-1.727.41c-.573-.001-1.081-.113-1.527-.337zM176.805 27.418h1.594v1.594l-1.594 1.578v-3.172zM181.411 28.277c-.55-.567-.824-1.359-.824-2.375v-5.164c0-1.021.276-1.813.828-2.379.552-.565 1.356-.848 2.414-.848 1.063 0 1.868.281 2.418.844s.824 1.357.824 2.383v5.164c0 1.021-.276 1.814-.828 2.379-.552.565-1.356.848-2.414.848-1.063 0-1.868-.284-2.418-.852zm3.664-1.105c.269-.294.402-.717.402-1.27v-5.164c0-.552-.133-.975-.398-1.27-.266-.294-.683-.441-1.25-.441s-.984.147-1.25.441c-.266.294-.398.718-.398 1.27v5.164c0 .552.134.976.402 1.27.269.294.684.441 1.246.441s.977-.147 1.246-.441z"/></g></g><path class="st3" d="M339.352 29.204H323.86M346.91 29.204h-5.668M341.242 29.204h-1.89M339.352 112.334H323.86M346.91 112.334h-5.668M341.242 112.334h-1.89M346.91 112.334v-83.13M323.86 112.334v-83.13M339.352 112.334v-3.779M339.352 108.555h1.89M341.242 108.555v3.779M341.242 57.543v1.89M341.242 59.433h-1.89M339.352 59.433v-1.89M340.296 108.555V59.433M339.352 108.555V59.433M341.242 59.433v49.122M339.352 57.543v-.944M339.352 56.599h.944M340.296 56.599v-.945M340.296 55.654h.945M341.242 55.654v1.889M341.242 29.204v3.778M341.242 32.982h-.945M340.296 32.982v-.944M340.296 32.038h-.944M339.352 32.038v-2.834M341.242 32.982v22.672M338.408 53.765V34.871M338.408 56.599v-2.834M338.408 53.765h1.889M340.296 53.765v2.834M340.296 56.599h-1.889M340.296 32.038v2.833M340.296 34.871h-1.889M338.408 34.871v-2.832M338.408 32.038h1.889M340.296 34.871v18.895M338.408 53.765V34.871M339.352 53.765V34.871M341.242 112.334h-1.89M341.242 112.334h-1.89M346.91 112.334h-5.668M339.352 112.334H323.86M341.242 29.204h-1.89M341.242 29.204h-1.89M346.91 29.204h-5.668M339.352 29.204H323.86M346.91 112.334h-23.05"/><g><path class="st3" d="M.159 118.163c5.962 2.224 9.198 2.878 15.553 3.202"/><path class="st4" d="M.054 118.124l1.388.6 15.782-36.355v-.453h-1.512z"/><g><path d="M76.791 62.711c-1.352 3.805-1.696 5.542-1.971 9.57" fill-rule="evenodd" clip-rule="evenodd" fill="none" stroke="#000" stroke-linecap="round" stroke-linejoin="round" stroke-miterlimit="3"/><path class="st4" d="M76.819 62.621l-.601 1.388L98.7 73.791h.454l.001-1.511z"/></g></g><g><defs><path id="SVGID_1_" d="M24.782 148.797v9.447H323.86v-9.447H169.124l.001-23.427h-17.758v23.427h-38.92V125.37h-3.023v23.427H24.782zm141.319 0h-11.713v-20.404h11.713v20.404zm24.478-137.731V.108H24.782v10.958h10.959v26.451H24.782v3.022h13.981V21.174h71.794V72.28H99.155v1.511H98.7v1.512h11.856v12.28h3.022V11.066h77.001zm-151.817 0h71.794v7.085H38.762v-7.085zM69.983 72.28h4.836v1.511h.454v1.512H24.781V72.28h45.202z"/></defs><clipPath id="SVGID_2_"><use xlink:href="#SVGID_1_" overflow="visible"/></clipPath></g><g id="wall_2"><path class="st6" d="M29.328.309l-4.6 4.05M36.748.309l-12.02 10.59M44.178.309l-12.45 10.96M51.598.309l-12.44 10.96M38.708 11.659l-3.02 2.67M59.018.309l-12.44 10.96M38.708 18.199l-3.02 2.66M45.968 18.349l-3.43 3.02M66.438.309l-12.44 10.96M38.708 24.739l-3.02 2.66M31.388 37.719l-3.42 3.02M53.378 18.349l-3.43 3.02M73.858.309l-12.44 10.96M38.708 31.269l-3.02 2.67M38.708 37.809l-3.32 2.93M81.278.309l-12.44 10.96M60.808 18.349l-3.43 3.02M88.708.309l-12.44 10.96M68.228 18.349l-3.43 3.02M96.128.309l-12.44 10.96M75.648 18.349l-3.42 3.02M103.558.309l-12.44 10.96M83.078 18.349l-3.43 3.02M29.048 72.479l-3.43 3.02M110.978.309l-12.44 10.96M90.498 18.349l-3.43 3.02M97.918 18.349l-3.42 3.02M118.398.309l-12.44 10.96M36.478 72.479l-3.43 3.02M105.338 18.349l-3.43 3.02M125.818.309l-15.31 13.48M43.888 72.479l-3.43 3.02M113.528 17.669l-4.2 3.7M133.238.309l-12.44 10.96M51.318 72.479l-3.43 3.02M113.528 24.209l-3.02 2.66M140.668.309l-12.45 10.96M58.738 72.479l-3.43 3.02M113.528 30.749l-3.02 2.66M148.088.309l-12.44 10.96M66.158 72.479l-3.42 3.02M73.588 72.479l-3.43 3.02M155.508.309l-12.44 10.96M113.528 37.289l-3.02 2.66M162.938.309l-12.45 10.96M113.528 43.829l-3.02 2.66M170.348.309l-12.44 10.96M113.528 50.359l-3.02 2.66M177.768.309l-12.44 10.96M113.528 56.899l-3.02 2.66M103.268 72.479l-3.43 3.02M185.198.309l-12.44 10.96M113.528 63.439l-3.02 2.66M190.528 2.149l-10.35 9.12M113.528 69.979l-6.26 5.52M190.528 8.689l-2.93 2.58M31.248 148.999l-6.52 5.75M113.528 76.519l-3.02 2.66M113.528 83.059l-3.02 2.66M38.678 148.999l-10.72 9.44M46.098 148.999l-10.71 9.44M53.518 148.999l-10.72 9.44M60.938 148.999l-10.71 9.44M68.368 148.999l-10.72 9.44M75.788 148.999l-10.72 9.44M109.808 125.569l-.44.39M83.208 148.999l-10.71 9.44M112.398 129.829l-3.03 2.67M90.638 148.999l-10.72 9.44M112.398 136.359l-3.03 2.67M98.048 148.999l-10.71 9.44M112.398 142.899l-3.03 2.67M105.478 148.999l-10.72 9.44M112.898 148.999l-10.72 9.44M120.318 148.999l-10.71 9.44M154.338 125.569l-3.02 2.66M127.748 148.999l-10.72 9.44M154.338 132.109l-3.02 2.66M161.768 125.569l-3.43 3.02M135.168 148.999l-10.72 9.44M154.338 138.639l-3.02 2.66M169.078 125.659l-3.33 2.93M142.578 148.999l-10.71 9.44M154.338 145.179l-3.02 2.66M169.078 132.199l-3.03 2.67M150.008 148.999l-10.72 9.44M169.078 138.739l-3.03 2.67M157.428 148.999l-10.71 9.44M169.078 145.279l-3.03 2.67M164.858 148.999l-10.72 9.44M172.278 148.999l-10.72 9.44M179.698 148.999l-10.71 9.44M187.128 148.999l-10.72 9.44M194.538 148.999l-10.71 9.44M201.968 148.999l-10.72 9.44M209.388 148.999l-10.72 9.44M216.808 148.999l-10.71 9.44M224.238 148.999l-10.72 9.44M231.658 148.999l-10.72 9.44M239.068 148.999l-10.71 9.44M246.498 148.999l-10.72 9.44M253.918 148.999l-10.71 9.44M261.348 148.999l-10.72 9.44M268.768 148.999l-10.72 9.44M276.188 148.999l-10.71 9.44M283.608 148.999l-10.72 9.44M291.028 148.999l-10.71 9.44M298.458 148.999l-10.72 9.44M305.878 148.999l-10.72 9.44M313.298 148.999l-10.71 9.44M320.728 148.999l-10.72 9.44M323.808 152.819l-6.37 5.62"/></g><path d="M15.638.108h9.144v82.261h-7.558v-.453h-1.511v-1.058c-.001-34.165-.075-80.285-.075-80.75h0zm174.941 0H346.91v29.096h-23.05V11.066H190.579V.108h0zM15.712 122.423v-1.058h1.511v-.454h7.558v37.333h-9.069v-35.821h0zm308.147 26.374v-36.464h23.05v45.911h-23.05v-9.447z" fill-rule="evenodd" clip-rule="evenodd" stroke="#000" stroke-linecap="round" stroke-linejoin="round" stroke-miterlimit="3"/><path d="M24.782 148.797v9.447H323.86v-9.447H169.124l.001-23.427h-17.758v23.427h-38.92V125.37h-3.023v23.427H24.782h0zm141.319 0h-11.713v-20.404h11.713v20.404h0zm24.478-137.731V.108H24.782v10.958h10.959v26.451H24.782v3.022h13.981V21.174h71.794V72.28H99.155v1.511H98.7v1.512h11.856v12.28h3.022V11.066h77.001zm-151.817 0h71.794v7.085H38.762v-7.085h0zM69.983 72.28H24.782v3.023h50.492v-1.512h-.454V72.28h-4.837z" fill-rule="evenodd" clip-rule="evenodd" fill="none" stroke="#000" stroke-linecap="round" stroke-linejoin="round" stroke-miterlimit="22.926"/></svg>