<svg version="1.1" id="_x32_0_1_" xmlns="http://www.w3.org/2000/svg" x="0" y="0" viewBox="0 0 403.614 385.476" xml:space="preserve"><style>.st0{fill-rule:evenodd;clip-rule:evenodd;fill:#fff}.st1{fill:none;stroke:#999;stroke-width:.4;stroke-linecap:round;stroke-linejoin:round;stroke-miterlimit:3}.st1,.st2,.st4,.st5,.st7,.st8{fill-rule:evenodd;clip-rule:evenodd}.st2{stroke:#999;stroke-linecap:round;stroke-linejoin:round;stroke-miterlimit:3;fill:none}.st4,.st5,.st7,.st8{fill:#020203}.st5,.st7,.st8{fill:none}.st5{stroke:#020203;stroke-linecap:round;stroke-linejoin:round;stroke-miterlimit:3}.st7,.st8{stroke-miterlimit:22.9256}.st7{stroke-linecap:round;stroke-linejoin:round;stroke:#020203}.st8{stroke:#666;stroke-width:.6}.st9{fill:#020203}</style><path class="st0" d="M331.453 68.912V.537h-88.5v12.875H.446v326h297.757v45.417h90.833v-45.417h14.132v-270.5z"/><g id="mebel"><path class="st1" d="M219.18 105.494l.994-.993m21.678-21.679l.993-.993m-30.612 23.665l7.941-7.941m14.731-14.731l7.94-7.94m-37.558 30.612l14.887-14.887m7.785-7.785l14.886-14.887m-44.506 37.559l21.835-21.835m.837-.837l21.834-21.834m-51.452 44.506l51.452-51.453m-53.656 46.709l41.202-41.202m6.745-6.745l5.709-5.709m-53.656 46.71l36.668-36.669m10.949-10.949l6.039-6.039m-53.656 46.71l34.892-34.891m12.061-12.062l1.48-1.48M189.189 79.91l26.372-26.372m3.857-3.857l5.283-5.283m-35.512 28.565l19.426-19.426m10.803-10.802l4.311-4.311m-34.54 27.592l12.479-12.479m-12.479 5.532l5.531-5.531m48.125-11.491l-3.623-3.623m3.623 10.57l-6.421-6.421m6.421 13.367l-5.625-5.625m-11.888-11.888l-.003-.003m17.516 24.464l-6.751-6.751m-11.426-11.426l-5.25-5.25m23.427 30.374l-10.508-10.509m-8.264-8.264l-4.655-4.655m23.427 30.374l-23.539-23.539m22.632 29.58l-29.284-29.284m22.337 29.284l-29.284-29.284m22.337 29.284L198.76 53.538m22.337 29.284l-29.284-29.284m28.361 35.306L189.189 57.86m30.985 37.932l-30.985-30.985m30.985 37.931l-30.985-30.985m26.793 33.741L189.189 78.7m19.847 26.794l-19.847-19.847m12.899 19.847l-12.9-12.9m5.954 12.9l-5.953-5.953M327.109 145.736h51.012M327.109 134.4h51.012m-51.012-11.336h35.141m-35.141-11.336h12.195m9.617 0h13.328m-35.14-11.336h10.899m12.21 0h12.032M360.172 152.348V93.024m-22.671 59.324V93.024"/><path class="st2" d="M136.288 318.42V202.416m0 0h15.115m0 0V318.42m0 0h-15.115M137.044 318.42V202.416M136.288 260.418h.756M136.288 318.42h.756M72.603 285.22v4.157M71.847 290.132H31.793M31.038 289.377v-4.157M31.793 284.464h40.054M31.038 285.22v-32.874M31.038 252.346h2.645M40.812 252.346h2.267M72.603 253.479v29.852M71.469 284.464h-28.39M41.945 283.331v-29.852M43.079 252.346h28.39M32.549 253.479v29.852M33.683 284.464h7.129M41.945 283.331v-29.852M40.812 252.346h-7.129M37.839 283.331v-29.852M72.603 289.377a.755.755 0 01-.756.755M31.793 290.132a.755.755 0 01-.755-.755M31.038 285.22c0-.417.338-.756.755-.756M71.847 284.464c.417 0 .756.339.756.756M72.603 283.331c0 .626-.508 1.133-1.134 1.133M43.079 284.464a1.134 1.134 0 01-1.134-1.133M41.945 253.479c0-.626.507-1.134 1.134-1.134M71.469 252.346c.626 0 1.134.508 1.134 1.134M33.683 284.464a1.134 1.134 0 01-1.134-1.133M41.945 283.331c0 .626-.507 1.133-1.133 1.133M40.812 252.346c.626 0 1.133.508 1.133 1.134M32.549 253.479c0-.626.507-1.134 1.134-1.134M37.839 283.331c0 .626-.507 1.133-1.134 1.133M36.705 252.346c.626 0 1.134.508 1.134 1.134M31.038 252.346V214.56M31.038 252.346h2.645M31.038 214.559h2.645M40.812 252.346h2.267M40.812 214.559h2.267M72.603 215.693v35.52M71.469 252.346h-28.39M41.945 251.213v-35.52M43.079 214.559h28.39M32.549 215.693v35.52M33.683 252.346h7.129M41.945 251.213v-35.52M40.812 214.559h-7.129M37.839 251.213v-35.52M72.603 251.213c0 .625-.508 1.133-1.134 1.133M43.079 252.346a1.134 1.134 0 01-1.134-1.133M41.945 215.693c0-.626.507-1.134 1.134-1.134M71.469 214.559c.626 0 1.134.508 1.134 1.134M33.683 252.346a1.134 1.134 0 01-1.134-1.133M41.945 251.213c0 .625-.507 1.133-1.133 1.133M40.812 214.559c.626 0 1.133.508 1.133 1.134M32.549 215.693c0-.626.507-1.134 1.134-1.134M37.839 251.213c0 .625-.507 1.133-1.134 1.133M36.705 214.559c.626 0 1.134.508 1.134 1.134M72.603 181.685v-4.156M71.847 176.773H31.793M31.038 177.529v4.156M31.793 182.441h40.054M31.038 181.685v32.874M31.038 214.559h2.645M40.812 214.559h2.267M72.603 213.426v-29.851M71.469 182.441h-28.39M41.945 183.575v29.851M43.079 214.559h28.39M32.549 213.426v-29.851M33.683 182.441h7.129M41.945 183.575v29.851M40.812 214.559h-7.129M37.839 183.575v29.851M71.847 176.773c.417 0 .756.338.756.756M31.038 177.529c0-.418.338-.756.755-.756M31.793 182.441a.755.755 0 01-.755-.756M72.603 181.685a.755.755 0 01-.756.756M71.469 182.441c.626 0 1.134.508 1.134 1.134M41.945 183.575c0-.626.507-1.134 1.134-1.134M43.079 214.559a1.134 1.134 0 01-1.134-1.134M72.603 213.426c0 .627-.508 1.134-1.134 1.134M32.549 183.575c0-.626.507-1.134 1.134-1.134M40.812 182.441c.626 0 1.133.508 1.133 1.134M41.945 213.426c0 .627-.507 1.134-1.133 1.134M33.683 214.559a1.134 1.134 0 01-1.134-1.134M36.705 182.441c.626 0 1.134.508 1.134 1.134M37.839 213.426c0 .627-.507 1.134-1.134 1.134M87.717 253.479v29.849M86.583 284.462H73.736M72.603 283.328v-29.849M73.736 252.346h12.847M87.717 283.328c0 .626-.507 1.134-1.134 1.134M73.736 284.462a1.134 1.134 0 01-1.133-1.134M72.603 253.479c0-.626.507-1.134 1.133-1.134M86.583 252.346c.626 0 1.134.508 1.134 1.134M58.224 107.761v-3.028m0 0h-.859m0 0H40.189m0 0h-.859m0 0v3.028M39.331 101.305v3.427m0 .001h.859m0 0v-3.224m0-.001h-.058m0 0l-.294.196m0 0l-.342-.087m0 .001l-.165-.312M40.132 98.947l-.294.196m0 0l-.342-.087m0 0l-.165-.312m0 0v2.561m0 0l.165.313m0 0l.342.087m0 0l.294-.196m0 0h17.291m0 0l.293.196m0 0l.343-.087m0 0l.165-.313m0 0v-2.561m0 0l-.165.312m0 0l-.343.087m0 0l-.293-.196m0 0H40.132M58.224 101.305l-.165.312m0 .001l-.343.087m0-.001l-.294-.196m0 0h-.057m0 0v3.224m0 .001h.859m0 0v-3.427M40.994 98.541H56.56m0 0l-1.004-.227m0 0H41.999m0 0l-1.005.227M40.132 98.541l-.294-.196m0 0l-.342.087m0 0l-.165.312m0 0l.165.313m0 0l.342.087m0 0l.294-.197m0 0h17.291m0 0l.293.197m0 0l.343-.087m0 0l.165-.313m0 0l-.165-.312m0 0l-.343-.087m0 0l-.293.196m0 0H40.132M80.14 107.761v-3.028m0 0h-.858m0 0H62.106m0 0h-.859m0 0v3.028M61.247 101.305v3.427m0 .001h.859m0 0v-3.224m0-.001h-.058m0 0l-.293.196m0 0l-.343-.087m0 .001l-.165-.312M62.049 98.947l-.293.196m0 0l-.343-.087m0 0l-.165-.312m0 0v2.561m0 0l.165.313m0 0l.343.087m0 0l.293-.196m0 0H79.34m-.001 0l.293.196m.001 0l.343-.087m0 0l.165-.313m0 0v-2.561m0 0l-.165.312m0 0l-.343.087m0 0l-.293-.196m-.001 0h-17.29M80.14 101.305l-.165.312m0 .001l-.342.087m0-.001l-.294-.196m0 0h-.057m0 0v3.224m0 .001h.858m0 0v-3.427M62.911 98.541h15.565m0 0l-1.004-.227m0 0H63.915m0 0l-1.004.227M62.049 98.541l-.293-.196m0 0l-.343.087m0 0l-.165.312m0 0l.165.313m0 0l.343.087m0 0l.293-.197m0 0H79.34m-.001 0l.293.197m.001 0l.343-.087m0 0l.165-.313m0 0l-.165-.312m0 0l-.343-.087m0 0l-.293.196m-.001 0h-17.29M58.224 141.769v3.028m0-.001h-.859m0 0H40.189m0 0h-.859m0 0v-3.028M39.331 148.225v-3.428m0-.001h.859m0 0v3.225m0 .001h-.058m0 0l-.294-.196m0-.001l-.342.087m0 0l-.165.312M40.132 150.584l-.294-.197m0 0l-.342.087m0 0l-.165.312m0 0v-2.561m0 0l.165-.313m0 0l.342-.087m0 0l.294.196m0 0h17.291m0 0l.293-.196m0 0l.343.087m0 0l.165.313m0 0v2.561m0 0l-.165-.312m0 0l-.343-.087m0 0l-.293.197m0 0H40.132M58.224 148.225l-.165-.312m0-.001l-.343-.087m0 0l-.294.196m0 .001h-.057m0 0v-3.225m0-.001h.859m0 0v3.428M40.994 150.989H56.56m0 0l-1.004.227m0 0H41.999m0 0l-1.005-.227M40.132 150.989l-.294.196m0 0l-.342-.087m0 0l-.165-.312m0 0l.165-.313m0 0l.342-.087m0 0l.294.198m0 0h17.291m0 0l.293-.198m0 0l.343.087m0 0l.165.313m0 0l-.165.312m0 0l-.343.087m0 0l-.293-.196m0 0H40.132M80.14 141.769v3.028m0-.001h-.858m0 0H62.106m0 0h-.859m0 0v-3.028M61.247 148.225v-3.428m0-.001h.859m0 0v3.225m0 .001h-.058m0 0l-.293-.196m0-.001l-.343.087m0 0l-.165.312M62.049 150.584l-.293-.197m0 0l-.343.087m0 0l-.165.312m0 0v-2.561m0 0l.165-.313m0 0l.343-.087m0 0l.293.196m0 0H79.34m-.001 0l.293-.196m.001 0l.343.087m0 0l.165.313m0 0v2.561m0 0l-.165-.312m0 0l-.343-.087m0 0l-.293.197m-.001 0h-17.29M80.14 148.225l-.165-.312m0-.001l-.342-.087m0 0l-.294.196m0 .001h-.057m0 0v-3.225m0-.001h.858m0 0v3.428M62.911 150.989h15.565m0 0l-1.004.227m0 0H63.915m0 0l-1.004-.227M62.049 150.989l-.293.196m0 0l-.343-.087m0 0l-.165-.312m0 0l.165-.313m0 0l.343-.087m0 0l.293.198m0 0H79.34m-.001 0l.293-.198m.001 0l.343.087m0 0l.165.313m0 0l-.165.312m0 0l-.343.087m0 0l-.293-.196m-.001 0h-17.29M393.235 151.782V123.82m0 0l-.166-.4m0 0l-.401-.166m0 0h-13.98m0 0l-.401.166m0 0l-.166.4m0 0v27.962m0 0l.166.4m0 0l.401.166m0 0h13.98m0 0l.401-.166m0 0l.166-.4M389.078 150.648v-12.394m0-.906v-12.393M388.511 124.387h-8.691M379.254 124.954v25.694M379.821 151.216h8.69M388.511 124.387c.313 0 .567.253.567.566M379.254 124.954c0-.313.254-.566.567-.566M379.821 151.216a.567.567 0 01-.567-.567M389.078 150.648a.567.567 0 01-.567.567M386.695 138.255a.757.757 0 01-1.21 0h1.21zm-1.21-.907a.754.754 0 011.21 0h-1.21zM392.706 137.347v.907m0 .001h-7.748m0 0l-.301-.256m0 0v-.395m0-.001l.301-.256m0 0h7.748M392.706 138.556v-1.511m0 .001h.265m0 0v1.511m0-.001h-.265M392.97 138.935v-2.268m0 0h.264m.001 0v2.268m0 0h-.264M391.345 141.07h1.625m0 0v-.095m0 0h.132m0 0v-.283m0 0h.132m.001 0v1.889m0 0h-.132m-.001 0v-.283m0 0h-.132m0 0v-.095m0 0h-1.625m0 0v-.321m0 0h-.416m0 0v1.077m0 0h-.491m0 0v-2.645m0 0h.491m0 0v1.077m0 0h.416m0 0v-.321M391.345 134.533h1.625m0 0v.094m0 0h.132m0 0v.284m0 0h.132m.001 0v-1.89m0 0h-.132m-.001 0v.283m0 0h-.132m0 0v.095m0 0h-1.625m0 0v.322m0 0h-.416m0 0v-1.078m0 0h-.491m0 0v2.646m0 0h.491m0 0v-1.077m0 0h.416m0 0v.321M390.93 141.883l-.072-.072M390.93 141.391l-.072.071M391.345 141.883v-.491M392.97 142.203v-1.133M393.102 140.975v1.322M390.93 133.721l-.072.071M390.93 134.212l-.072-.072M391.345 133.721v.49M392.97 133.399v1.134M393.102 134.627v-1.322M390.93 141.637a.246.246 0 11-.492 0 .246.246 0 01.492 0zM390.93 133.966a.246.246 0 11-.492 0 .246.246 0 01.492 0zM337.711 108.017l.469 1.645m0-.001l.718 1.551m0 .001l.968 1.23m0 0l1.248.943m0-.001l1.448.594m0 0l1.551.206m0 .001l1.551-.206m0-.001l1.447-.594m0 0l1.249-.943m0 .001l.967-1.23m0 0l.719-1.551m0-.001l.469-1.645m0 .001l.207-1.698m0 0l-.059-1.709m0 0l-1.223-11.585m0-.001h-10.654m0 0l-1.223 11.585m0 .001l-.06 1.709m0 0l.208 1.698M348.229 98.746h-4.117M344.113 98.746h-4.117M347.176 113.013a5.752 5.752 0 01-3.063.887M350.424 106.183c.165 2.591-1.031 5.106-3.248 6.829M348.229 98.746c1.505 2.253 2.265 4.828 2.195 7.437M337.801 106.183c-.07-2.609.689-5.185 2.195-7.437M341.049 113.013c-2.217-1.723-3.413-4.238-3.248-6.829M344.113 113.899a5.74 5.74 0 01-3.063-.887M348.761 93.024h-9.295m0 0v.189m0 0h9.295m0 0v-.189M334.666 93.024h18.894M334.666 88.49h18.894M334.666 93.024V88.49M353.559 93.024V88.49M393.235 123.254h-30.984M362.25 123.254V93.025M387.567 99.636a.945.945 0 11-1.89 0 .945.945 0 011.89 0zM376.736 106.008l1.397.372m0 0l1.209.793m0 0l.897 1.133m0 0l.497 1.357m0 0l.042 1.446m0 0l-.413 1.384m0 0l-.828 1.185m0 0l-1.159.863m0 0l-1.372.455m0 0h-1.446m0 0l-1.372-.455m0 0l-1.159-.863m0 0l-.829-1.185m0 0l-.413-1.384m0 0l.043-1.446m0 0l.496-1.357m0 0l.898-1.133m0 0l1.208-.793m0 0l1.397-.372m0 0v-5.538m0 0l-.455.108m0 0l-.49.037m0 0l-.488-.037m0 0l-.456-.108m0 0l-.392-.172m0 0l-.299-.225m0 0l-.189-.26m0 0l-.065-.282m0 0v-.402m0 0l.019-.12m0 0l.064-.277m0 0l.055-.104m0 0l.181-.251m0 0l.078-.07m0 0l.274-.205m0 0l.357-.157m0 0l.195-.051m0 0l.25-.06m0 0l.02-.688m0 0l.009-.796m0 0h-1.729m0 0v-.435m0 0h-2.871m0 0l-.16-.058m0 0l-.083-.149m0 0l.033-.167m0 0l.134-.104m0 0l.485-.158m0 0l.726-.316m0 0l1.008-.573m0 0l.728-.259m0 0v-.124m0 0h-.604m0 0v-.982m0 0h2.57m0 0v.878m0 0l.023.009m0 0l.039.028m0 0l.032.035m0 0l.026.04m0 0l.278.673m0 0h.697m0 0v-1.361m0 0h-1.058m0 0v-.302m0 0h3.023m0 0v.302m0 0h-1.058m0 0v1.361m0 0h1.436m0 0v.151m0 0h.416m0 0v-.303m0 0h-.152m0 0v-.529m0 0h-.604m0 0v-.982m0 0h2.57m0 0v.982m0 0h-.605m0 0v.529m0 0h-.151m0 0v.303m0 0h.151m0 0v1.511m0 0h-2.57m0 0v2.154m0 0h-.023m0 0h-.059m0 0h-.094m0 0h-.123m0 0h-.15m0 0h-.042m0 0v7.504M374.393 94.687h.209m0 0l-.14-.342m0 0l-.325-.053m0 0l-.008.002m0 0v.242m0 0h-.152m0 0v.302m0 0h.416m0 0v-.151M372.919 94.839v-.241m0 0l-.677.239m0 0l-.987.564m0 0l-.053.023m0 0h1.566m0 0v-.585m0 0h.151M378.776 94.007v.529M379.456 94.007v.529M373.119 94.007h-.352M373.977 94.536h-.189M373.788 94.536h-.68M373.108 94.536h-.014M373.788 94.36v.176M373.108 94.531v.005M372.919 94.839h1.058M375.271 96.349h.558M372.768 95.424v.491M375.338 96.917h.491M369.973 95.903l-.076.012M374.122 93.8l.047.002M373.952 93.832l.17-.032M374.666 93.883l.047.011M374.713 93.893l.02.009M372.768 94.131l.453-.16M373.221 93.971l.731-.139M374.077 94.304l.059-.011M369.973 95.903l.511-.167M370.485 95.736l.717-.312M373.179 93.988h.108a.108.108 0 00-.108-.108.108.108 0 10.108.108h-.108zM374.169 93.802l.498.081M375.827 98.405l.002-.002M375.829 97.874l-.002-.001M374.393 95.234v-.127M374.393 94.989v-.103M374.393 95.107v-.118M374.602 94.687h.524M373.355 94.443l.722-.139M372.919 94.598l.436-.155M375.073 95.32v.001M374.982 95.276l.091.044M374.884 95.261l.098.015M374.786 95.276l.098-.016M374.695 95.32l.091-.044M374.695 95.32v.001M374.539 97.817l.345-.026M374.884 97.791l.345.026M374.468 97.834l.071-.017M375.55 97.893l.196.052M375.229 97.817l.321.076M374.515 95.488l-.009.062M375.746 97.945l.083.036M375.3 97.834l-.019-.688M375.262 95.55l-.009-.062M375.253 95.488l-.026-.059M375.227 95.43l-.042-.049M375.185 95.381l-.055-.039M375.13 95.342l-.056-.021M375.073 95.32l-.007-.002M375.066 95.318l-.068-.008M374.997 95.31h-.227M374.771 95.31l-.068.008M374.702 95.318l-.007.002M374.695 95.321l-.056.021M374.638 95.342l-.055.039M374.584 95.381l-.042.049M374.542 95.43l-.026.059M375.281 97.145l-.019-1.596M374.497 96.349l.009-.8M374.393 96.048h.107M375.268 96.048h.561M376.736 106.008v5.344M375.829 106.008v5.344M376.736 111.351h-.907M379.796 94.007h-1.36M379.645 94.536h-1.058M379.645 94.839h-1.058M378.172 94.839v1.209M374.393 96.048v-1.209M376.736 93.327h-.907M376.736 94.687v3.816M375.829 100.47v-5.783M378.172 96.048h-1.436M377.227 96.349h-.491M377.227 96.917h-.491M375.338 96.349v1.493M376.736 108.685a1.889 1.889 0 11-.907 0M378.172 95.375a.339.339 0 01.464.125.34.34 0 01-.464.464M224.257 53.415l.469 1.645m0 0l.718 1.551m0 0l.968 1.231m0 0l1.248.942m0 0l1.448.595m0 0l1.551.205m0 0l1.551-.205m0 0l1.448-.595m0 0l1.248-.942m0 0l.968-1.231m0 0l.718-1.551m0 0l.469-1.645m0 0l.208-1.697m0 0l-.06-1.71m0 0l-1.223-11.584m0 0h-10.654m0 0l-1.223 11.584m0 0l-.059 1.71m0 0l.207 1.697M234.776 44.144h-4.116M230.659 44.144h-4.117M233.723 58.412a5.742 5.742 0 01-3.063.886M236.971 51.582c.165 2.592-1.031 5.107-3.248 6.83M234.776 44.144c1.506 2.253 2.266 4.828 2.195 7.437M224.347 51.582c-.07-2.609.69-5.185 2.195-7.437M227.596 58.412c-2.217-1.723-3.414-4.238-3.249-6.83M230.659 59.298a5.731 5.731 0 01-3.063-.886M235.307 38.424h-9.295m0 0v.188m0 0h9.295m0 0v-.188M221.213 38.424h18.893M221.213 33.889h18.893M221.213 38.424v-4.535M240.106 38.424v-4.535M218.851 38.424h-29.095m0 0l-.401.166m0 0l-.166.4m0 0v13.981m0 0l.166.401m0 0l.401.166m0 0h29.095m0 0l.401-.166m0 0l.166-.401m0 0V38.99m0 0l-.166-.4m0 0l-.401-.166M217.717 42.58h-12.961m-.906 0h-12.96M190.323 43.146v8.691M190.89 52.404h26.827M218.284 51.838v-8.691M190.323 43.146c0-.312.253-.566.567-.566M190.89 52.404a.567.567 0 01-.567-.566M218.284 51.838a.567.567 0 01-.567.566M217.717 42.58c.313 0 .567.254.567.566M205.059 45.568a.755.755 0 01-.303.605v-1.211a.756.756 0 01.303.606zm-1.209.605a.755.755 0 010-1.21v1.21zM203.85 38.952h.907m0 0v7.749m0 0l-.256.3m0 0h-.395m0 0l-.256-.3m0 0v-7.749M205.059 38.952h-1.512m0 0v-.265m0 0h1.512m0 0v.265M205.437 38.687h-2.267m0 0v-.264m0 0h2.267m0 0v.264M207.571 40.312v-1.625m0 0h-.094m.001 0v-.132m0 0h-.283m-.001 0v-.132m0 0h1.889m0 0v.132m0 0h-.283m.001 0v.132m0 0h-.095m0 0v1.625m0 0h-.322m0 0v.416m0 0h1.078m0 0v.491m0 0h-2.645m0 0v-.491m0 0h1.076m0 0v-.416m0 0h-.321M201.035 40.312v-1.625m0 0h.094m0 0v-.132m0 0h.283m0 0v-.132m0 0h-1.889m0 0v.132m0 0h.284m0 0v.132m0 0h.094m0 0v1.625m0 0h.322m0 0v.416m0 0h-1.078m0 0v.491m0 0h2.645m0 0v-.491m0 0h-1.076m0 0v-.416m0 0h.321M208.384 40.728l-.072.072M207.893 40.728l.072.072M208.384 40.312h-.491M208.705 38.687h-1.134M207.477 38.556h1.323M200.222 40.728l.072.072M200.714 40.728l-.072.072M200.222 40.312h.492M199.901 38.687h1.134M201.129 38.556h-1.322M208.384 40.975a.245.245 0 11-.49 0 .245.245 0 01.49 0zM200.714 40.975a.246.246 0 11-.491-.001.246.246 0 01.491.001zM189.189 38.424v67.07m0 0h-26.828m0 0v-67.07m0 0h26.828M164.507 46.248l.082-.971m0 0l.242-.94m0 0l.395-.884m0 0l.536-.798m0 0l.662-.688m0 0l.766-.559m0 0l.848-.412m0 0l.903-.252m0 0l.932-.085m0 0h11.804m0 0l.932.085m0 0l.903.252m0 0l.848.412m0 0l.766.559m0 0l.662.688m0 0l.536.798m0 0l.395.884m0 0l.243.94m0 0l.081.971m0 0v45.273m0 0l-.171 2.038m0 0l-.509 1.976m0 0l-.83 1.855m0 0l-1.126 1.675m0 0l-1.389 1.448m0 0l-1.609 1.173m0 0l-1.78.865m0 0l-1.897.529m0 0l-1.957.179m0 0l-1.956-.179m0 0l-1.897-.529m0 0l-1.781-.865m0 0l-1.609-1.173m0 0l-1.389-1.448m0 0l-1.126-1.675m0 0l-.83-1.855m0 0l-.509-1.976m0 0l-.171-2.038m0 0V46.248M176.719 47.492a.945.945 0 11-1.89-.001.945.945 0 011.89.001zM88.594 141.769v-34.008m0 0H31.018m0 0v34.008m0 0h57.576M128.731 79.044v24.561m0 0h22.672m0 0V79.044m0 0h-22.672M143.845 91.324h-7.557M142.739 88.652l-5.344 5.344M140.067 87.546v7.557M137.395 88.652l5.344 5.344M131.565 77.344V58.073m0 0l.221-.535m0-.001l.535-.221m0 .001h17.382m0 0l.534.221m0-.001l.221.535m0 .001v19.271m0 0l-.221.534m0-.001l-.534.221m0 .001h-17.382m0 0l-.535-.221m0-.001l-.221-.534M128.731 79.044V56.372M151.403 79.044V56.372M128.731 79.044h22.672M128.731 56.372h22.672M133.454 75.454V59.962M134.21 59.206h11.714M146.68 59.962v15.492M145.924 76.21H134.21M133.454 75.454h.108a.108.108 0 10-.216 0 .108.108 0 00.216 0h-.108zM133.454 59.962c0-.418.338-.756.756-.756M145.924 59.206c.417 0 .756.338.756.756M146.68 75.454a.756.756 0 01-.756.756M134.21 76.21a.757.757 0 01-.756-.756M141.847 68.048l-.24-.101m0 0l-.099-.24m0 0l.1-.24m0 0l.24-.099m0 0h7.477m0 0l.24.099m0 0l.099.241m0 0l-.099.24m0 0l-.24.1m0 0h-7.478M147.397 68.462v-.414m0 0h1.927m0 0l.24-.1m0 0l.1-.24m0 0l-.1-.241m0 0l-.24-.099m0 0h-1.927m0 0v-.415m0 0h2.456m0 0v1.509m0 0h-2.456M146.037 68.452v-.404m0 0h1.322m0 0v.404m0 0h-1.322M146.037 66.964h1.322m0 0v.404m0 0h-1.322m0 0v-.404M123.819 46.926h-22.672M123.819 24.254h-22.672M123.819 46.926V24.254M101.147 46.926V24.254M62.7 26.332h21.916m0 0v18.516m0 0H62.7m0 0V26.332M73.657 37.611v5.299M73.657 42.91h1.096M73.657 37.611h1.096M82.511 37.611v5.299M81.415 42.91h1.096M81.415 37.611h1.096M70.151 40.477a2.74 2.74 0 11-5.479 0 2.74 2.74 0 015.479 0zM72.65 32.238a3.969 3.969 0 11-7.937-.001 3.969 3.969 0 017.937.001z"/><path class="st2" d="M70.949 32.238a2.268 2.268 0 11-4.536 0 2.268 2.268 0 014.536 0zM80.729 40.293a2.645 2.645 0 11-5.29 0 2.645 2.645 0 015.29 0zM82.603 31.701A3.4 3.4 0 1175.8 31.7a3.4 3.4 0 016.803.001zM46.168 24.254h54.979M46.168 46.926h54.979M46.168 24.254v22.672M101.147 24.254v22.672M46.168 46.926H23.496M46.168 24.254H23.496M46.168 46.926V24.254M23.496 46.926V24.254M238.689 94.158a7.18 7.18 0 11-7.179-7.18 7.18 7.18 0 017.179 7.18zM119.051 37.53a3.411 3.411 0 11-6.822 0 3.411 3.411 0 016.822 0z"/><path class="st2" d="M118.53 37.53a2.89 2.89 0 11-5.78.001 2.89 2.89 0 015.78-.001zM111.91 38.362a2.579 2.579 0 11-5.158 0 2.579 2.579 0 015.158 0z"/><circle class="st2" cx="109.331" cy="38.362" r="1.445"/><path class="st2" d="M387.567 211.579a3.778 3.778 0 11-7.557 0 3.778 3.778 0 017.557 0z"/><path class="st2" d="M384.922 211.579a1.134 1.134 0 11-2.267.001 1.134 1.134 0 012.267-.001zM387.567 300.377a3.778 3.778 0 11-7.557 0 3.778 3.778 0 017.557 0z"/><path class="st2" d="M384.922 300.377a1.134 1.134 0 11-2.267.001 1.134 1.134 0 012.267-.001zM271.752 211.579a3.778 3.778 0 11-7.557 0 3.778 3.778 0 017.557 0z"/><path class="st2" d="M269.107 211.579a1.134 1.134 0 11-2.267.001 1.134 1.134 0 012.267-.001zM271.752 300.377a3.778 3.778 0 11-7.557 0 3.778 3.778 0 017.557 0z"/><path class="st2" d="M269.107 300.377a1.134 1.134 0 11-2.267.001 1.134 1.134 0 012.267-.001zM313.883 289.985V221.97m0 0h75.573m0 0v68.015m0 0h-75.573M311.994 288.096v-64.237m0 0l.144-.723m0 .001l.409-.613m0-.001l.613-.409m0 0l.723-.144m0 0v68.015m0 0l-.723-.144m0 0l-.613-.409m0 0l-.409-.613m0 .001l-.144-.723M393.235 289.985V221.97m0 0h-3.778m0 0v68.015m0 0h3.778M393.235 221.971v68.015m0-.001h-1.889m0 0V221.97m0 .001h1.889M393.235 220.081v-17.004m0 0h-18.893m0 0v17.004m0 0h18.893M393.235 291.875v17.004m0 0h-18.893m0 0v-17.004m0 0h18.893M387.567 249.932v-25.695m0 .001l-.111-.267m0 0l-.267-.111m0-.001h-12.47m0 0l-.267.111m0 .001l-.111.267m0 0v25.695m0-.001l.111.267m0 .001l.267.111m0-.001h12.47m0 0l.267-.111m0 .001l.111-.267M387.567 262.023v25.695m0 0l-.111.267m0 0l-.267.111m0 0h-12.47m0 0l-.267-.111m0 0l-.111-.267m0 0v-25.695m0 0l.111-.267m0 0l.267-.111m0 0h12.47m0 0l.267.111m0 0l.111.267M375.365 289.985v-1.889M375.365 261.645V250.31M375.365 223.859v-1.889M370.356 289.985V221.97m0 0H351.67m0 0l14.908 68.015m0 0h3.778M198.069 289.985V221.97m0 0h75.572m0 0v68.015m0 0h-75.572M196.18 288.096v-64.237m0 0l.144-.723m0 .001l.409-.613m-.001-.001l.613-.409m0 0l.723-.144m.001 0v68.015m0 0l-.723-.144m-.001 0l-.613-.409m0 0l-.409-.613m.001.001l-.144-.723M277.42 289.985V221.97m0 0h-3.779m0 0v68.015m0 0h3.779M277.42 221.971v68.015m0-.001h-1.889m0 0V221.97m0 .001h1.889M277.42 220.081v-17.004m0 0h-18.893m0 0v17.004m0 0h18.893M277.42 291.875v17.004m0 0h-18.893m0 0v-17.004m0 0h18.893M271.752 249.932v-25.695m0 .001l-.11-.267m0 0l-.268-.111m0-.001h-12.469m0 0l-.267.111m0 .001l-.111.267m0 0v25.695m0-.001l.111.267m0 .001l.267.111m0-.001h12.469m0 0l.268-.111m0 .001l.11-.267M271.752 262.023v25.695m0 0l-.11.267m0 0l-.268.111m0 0h-12.469m0 0l-.267-.111m0 0l-.111-.267m0 0v-25.695m0 0l.111-.267m0 0l.267-.111m0 0h12.469m0 0l.268.111m0 0l.11.267M259.551 289.985v-1.889M259.551 261.645V250.31M259.551 223.859v-1.889M254.541 289.985V221.97m0 0h-18.686m0 0l14.907 68.015m0 0h3.779M142.124 215.424h1.02m0 0v44.369m0 0h-1.02m0 0v-44.369M143.144 216.828l3.41-.71m0 0l-.141-.68m0 0l-3.269.68m0 0v.71M143.144 225.125h.833m0 0l.566.152m0 0l.415.415m0 0l.152.567m0 0v22.699m0 0l-.152.566m0 0l-.415.415m0 0l-.566.153m0 0h-.833m0 0v-24.967M141.767 216.828l-3.41-.71m0 0l.141-.68m0 0l3.269.68m0 0v.71M143.144 258.389l3.41.71m0 0l-.141.68m0-.001l-3.269-.68m0 .001v-.71M141.826 258.389l-3.41.71m.001 0l.141.68m-.001-.001l3.269-.68m0 .001v-.71M141.826 215.424h.298m.001 0v44.369m0 0h-.298m-.001 0v-44.369M200.888 178.044v-22.672m0 0h76.532m0 0v22.672m0 0h-76.532M277.42 166.33v.756m0 0h-76.532m0 0v-.756m0 0h76.532M208.363 176.051v-18.626m0 0h.756m0 0v18.626m0 0h-.756M210.368 176.051v-18.626m0 0h.755m-.001 0v18.626m0 0h-.755M212.372 176.051v-18.626m0 0h.755m0 0v18.626m0 0h-.755M214.376 176.051v-18.626m0 0h.756m0 0v18.626m0 0h-.756M218.622 175.916l-2.241-18.491m0 0l.75-.091m0 0l2.241 18.49m0 0l-.75.092M370.563 155.372h22.671m0 0v45.154m0 0h-22.671m0 0v-45.154M382.277 200.526h-.756m0 0v-45.154m0 0h.756m0 0v45.154M372.556 164.32h18.626m0 0v.756m0 0h-18.626m0 0v-.756M372.556 166.325h18.626m0 0v.756m0 0h-18.626m0 0v-.756M372.556 168.33h18.626m0 0v.756m0 0h-18.626m0 0v-.756M372.556 170.334h18.626m0 0v.756m0 0h-18.626m0 0v-.756M372.691 174.58l18.491-2.241m0 0l.091.75m0 0l-18.491 2.241m0 0l-.091-.75M253.803 42.768h22.672m0 0v62.726m0 0h-22.672m0 0V42.768M265.517 105.494h-.755m0 0V42.768m0 0h.755m0 0v62.726M255.796 51.717h18.626m0 0v.756m0 0h-18.626m0 0v-.756M255.796 53.721h18.626m0 0v.756m0 0h-18.626m0 0v-.756M255.796 55.726h18.626m0 0v.756m0 0h-18.626m0 0v-.756M255.796 57.731h18.626m0 0v.755m0 0h-18.626m0 0v-.755M255.932 61.976l18.49-2.241m0 0l.092.751m0 0l-18.491 2.241m0 0l-.091-.751M237.517 93.642l-1.233.448m0 0h-1.312m0 0l-1.233-.448m0 0l-1.473.342m0 0h-1.513m0 0l-1.473-.342m0 0l-1.235.449m0 0h-1.314m0 0l-1.234-.449m0 0l2.231 2.987m0 0h7.558m0 0l2.231-2.987M235.286 96.891h-7.557m0 0v-.262m0 0h7.557m0 0v.262M235.286 97.414h-7.557m0 0v-.262m0 0h7.557m0 0v.262M230.666 92.127l.891-.085m0 0l.022.226m0 0l-.477.046m0 0l1.383 1.141m0 0l-.126.153m0 0l-.642-.53m0 0l-.067.081m0 0l.74.611m0 0l-.121.146m0 0l-.739-.61m0 0l-.081.097m0 0l.601.497m0 0l-.107.129m0 0l-.601-.496m0 0l-.081.098m0 0l.414.342m0 0l-.115.139m0 0l-1.422-1.173M242.845 82.822h-22.671m0 0v22.672m0 0h22.671m0 0V82.822M119.708 39.737h-.963m0 0v1.204m0 0h-12.524m0 0v-1.204m0 0h-.964M118.244 29.733h-9.634m0 0v.478m0 0h.722m0 0v-.238m0 0h8.189m0 0v.238m0 0h.723m0 0v-.478M118.244 30.211l-.047.104m-.048.103l-.047.103m-.047.103l-.047.103m-.047.103l-.047.104m-.047.102l-.048.104m-.047.102l-.047.104m-.047.102l-.047.104m-.048.102l-.047.104m-.046.103l-.048.103m-.047.103l-.047.103m-.047.104l-.047.103m-.048.103l-.047.102m-.047.104l-.047.103m-.047.103l-.047.103m-.048.103l-.047.103m-.047.103l-.047.103m-.047.103l-.048.103M108.61 30.211l.047.104m.048.103l.047.103m.047.103l.047.103m.047.103l.048.104m.046.102l.048.104m.047.102l.047.104m.047.102l.047.104m.047.102l.048.104m.047.103l.047.103m.047.103l.047.103m.047.104l.048.103m.047.103l.047.102m.047.104l.047.103m.048.103l.046.103m.048.103l.047.103m.047.103l.047.103m.047.103l.047.103M118.244 30.211h-.078m-.113 0h-.114m-.113 0h-.113m-.114 0h-.078m0 0l-.042.052m-.071.088l-.071.088m-.072.088l-.071.088m-.072.088l-.071.088m-.072.088l-.071.088m-.072.088l-.071.088m-.072.089l-.071.087m-.071.088l-.072.088m-.071.088l-.072.088m-.071.088l-.072.089m-.071.088l-.071.087m-.072.088l-.071.088m-.072.088l-.071.088m-.072.088l-.071.089m-.072.088l-.071.088m-.071.087l-.072.088m-.071.088l-.072.088m-.072.088l-.071.089m-.071.088l-.071.088m-.072.088l-.071.087m-.072.088l-.072.088m-.071.088l-.072.088m-.071.088l-.041.052M108.61 30.211h.078m.113 0h.114m.113 0h.114m.113 0h.078m0 0l.042.052m.071.088l.072.088m.071.088l.071.088m.072.088l.071.088m.072.088l.071.088m.072.088l.071.088m.072.089l.071.087m.072.088l.071.088m.071.088l.072.088m.071.088l.072.089m.071.088l.072.087m.071.088l.071.088m.072.088l.071.088m.072.088l.071.089m.072.088l.071.088m.072.087l.071.088m.071.088l.072.088m.072.088l.071.089m.072.088l.071.088m.071.088l.072.087m.071.088l.072.088m.071.088l.072.088m.071.088l.042.052M128.731 56.372h22.672m0 0V24.254m0 0h-27.584m0 0v22.672m0 0h4.912m0 0v9.446M382.928 207.899l.86 3.68m0 0l3.431 1.584m0 0l-3.431-1.584m0 0l-3.546 1.305M382.928 304.056l.86-3.68m0 0l3.431-1.584m0 0l-3.431 1.584m0 0l-3.546-1.306M267.113 207.899l.86 3.68m0 0l3.431 1.584m0 0l-3.431-1.584m0 0l-3.546 1.305M267.113 304.056l.86-3.68m0 0l3.431-1.584m0 0l-3.431 1.584m0 0l-3.546-1.306"/></g><g id="walls_1_"><path d="M347.254 23.27c-6.027-2.247-9.132-2.868-15.557-3.196" fill="none" stroke="#020203" stroke-linecap="round" stroke-linejoin="round" stroke-miterlimit="3"/><path class="st4" d="M347.355 23.314l-1.387-.6-15.782 36.355v.453h1.511z"/><path class="st5" d="M316.942 168.335c1.869-5.007 2.409-7.573 2.682-12.911"/><path class="st4" d="M316.932 168.435l.6-1.388-30.233-13.134h-.454l.001 1.511z"/><path class="st5" d="M196.751 167.979c1.794-4.81 2.32-7.429 2.581-12.555"/><path class="st4" d="M196.712 168.082l.6-1.388-29.418-12.781h-.454v1.511z"/><g><path class="st5" d="M138.892 118.535c4.868-1.818 7.376-2.313 12.565-2.578"/><path class="st4" d="M138.799 118.576l12.658 29.272h1.511v-.454l-12.782-29.418z"/></g><g><path class="st5" d="M216.917 94.557c1.59 4.261 2.022 6.452 2.253 10.989"/><path class="st4" d="M216.876 94.462l-25.63 11.084v1.512h.453l25.777-11.208z"/></g><g><path class="st5" d="M357.837 141.333c1.601 4.295 2.042 6.488 2.275 11.067"/><path class="st4" d="M357.804 141.243L332 152.401v1.511h.453l25.951-11.282z"/></g><path d="M162.415 184.2h-10.958v39h10.958v-39h0zM331.697.5v19.574h-1.511v.453h-7.557V.5h9.068zm-77.839 72.577v32.469H242.9V73.077h10.958zm-55.422-48.772H88.721V13.347H.5v45.344h23.05V24.306l127.907-.001v91.651h1.511v.453h9.447V24.305h36.021zm-36.021 294.167h14.17v21.16H85.897v-21.16h76.518zM322.629 68.138v-9.069h7.557v.453h1.511v8.616h71.417v271.494h-26.262v-21.16h16.437V77.206h-70.66v-9.068h0zm-11.903 271.494h-68.015v-21.16h68.015v21.16h0zM.5 141.821h23.05v45.344H.5v-45.344z" fill-rule="evenodd" clip-rule="evenodd" fill="#020203" stroke="#020203" stroke-linecap="round" stroke-linejoin="round" stroke-miterlimit="3"/><path class="st0" d="M162.415 148.906v3.495h5.479v1.512h-.454v1.511h-5.025V184.2h-10.958v-36.353h1.511v-.454h9.447v1.513zM276.53 39.798v3.023h-22.672v30.256H242.9V38.475h-80.485v-3.022H242.9V24.305H88.721V13.347H242.9V.5h79.729v10.958H276.53v28.34zm-3.023.001V11.458h-19.649v28.341h19.649zM162.415 318.472h-10.958V223.2h10.958v95.272zm124.884-166.071v1.512h-.454v1.511h-6.348v163.048h-3.023V155.424h-78.142v-1.511h-.453v-1.512h88.42zm70.943 3.023h35.142v-3.023h-34.688v1.511h-.454v1.512zm-40.034 0v-1.511h-.454v-1.512h4.969V77.149h3.023v12.906h53.279V77.206h3.023v12.849h11.525v3.022h-67.827v59.324h6.821v1.511h.453v1.512h-14.812zm-128.02-46.855h-27.773v-3.022h28.831v1.511h.453v1.511h-1.511zm28.528 0h1.512v-.001h56.302v-3.022h-56.302v.001h-1.058v1.511h-.454v1.511z"/><g><path class="st5" d="M298.446 384.976h90.687m0 0v-45.344m0 0h-90.687m0 0v45.344M388.377 339.632h-89.176m0 0v44.588m0 0h89.176m0 0v-44.588M176.585 332.074v-13.603M176.585 339.632v-5.668M176.585 333.964v-1.89M242.711 332.074v-13.603M242.711 339.632v-5.668M242.711 333.964v-1.89M242.711 339.632h-66.126M242.711 318.472h-66.126M242.711 332.074h-3.779M238.932 332.074v1.891M238.932 333.964h3.779M204.924 333.964h1.89M206.814 333.964v-1.89M206.814 332.074h-1.89M238.932 333.02h-32.118M238.932 332.074h-32.118M206.814 333.964h32.118M204.924 332.074h-.944M203.98 332.074v.946M203.98 333.02h-.945M203.035 333.02v.944M203.035 333.964h1.889M176.585 333.964h3.778M180.363 333.964v-.944M180.363 333.02h-.944M179.419 333.02v-.945M179.419 332.074h-2.834M180.363 333.964h22.672M201.146 331.13h-18.893M203.98 331.13h-2.834M201.146 331.13v1.89M201.146 333.02h2.834M203.98 333.02v-1.89M179.419 333.02h2.834M182.253 333.02v-1.89M182.253 331.13h-2.834M179.419 331.13v1.89M182.253 333.02h18.893M201.146 331.13h-18.893M201.146 332.074h-18.893M242.711 333.964v-1.89M242.711 333.964v-1.89M242.711 339.632v-5.668M242.711 332.074v-13.603M176.585 333.964v-1.89M176.585 333.964v-1.89M176.585 339.632v-5.668M176.585 332.074v-13.603M176.585 318.472v21.16"/><g><path class="st5" d="M85.898 332.074v-13.603M85.898 339.632v-5.668M85.898 333.964v-1.89M85.898 339.632H.501M85.898 318.472H23.55M85.898 332.074h-4.724M81.174 332.074v1.891M81.174 333.964h4.724M8.058 333.964h4.723M12.781 333.964v-1.89M12.781 332.074H8.058M6.169 333.964h1.889M81.174 332.074H12.781M12.781 333.964h68.393M85.898 333.964v-1.89M85.898 333.964v-1.89M85.898 339.632v-5.668M85.898 332.074v-13.603M8.058 187.165H23.55M.501 187.165h5.667M6.169 187.165h1.889M.501 187.165v152.468M23.55 187.165v131.307M8.058 187.165v4.724M8.058 191.888H6.169M6.169 191.888v-4.724M6.169 332.074v-4.722M6.169 327.352h1.889M8.058 327.352v4.723M6.169 333.964v-1.89M8.058 191.888v135.464M6.169 327.352V191.888M6.169 187.165h1.889M6.169 187.165h1.889M.501 187.165h5.667M8.058 187.165H23.55"/></g><g><path class="st5" d="M8.058 141.822H23.55M.501 141.822h5.667M6.169 141.822h1.889M8.058 58.691H23.55M.501 58.691h5.667M6.169 58.691h1.889M.501 58.691v83.131M23.55 58.691v83.131M8.058 58.691v3.779M8.058 62.47H6.169M6.169 62.47v-3.779M6.169 113.481v-1.889M6.169 111.592h1.889M8.058 111.592v1.889M7.113 62.47v49.122M8.058 62.47v49.122M6.169 111.592V62.47M8.058 113.481v.945M8.058 114.426h-.945M7.113 114.426v.944M7.113 115.371h-.944M6.169 115.371v-1.891M6.169 141.822v-3.779M6.169 138.042h.944M7.113 138.042v.946M7.113 138.988h.945M8.058 138.988v2.834M6.169 138.042V115.37M9.002 117.26v18.893M9.002 114.426v2.834M9.002 117.26H7.113M7.113 117.26v-2.834M7.113 114.426h1.889M7.113 138.988v-2.835M7.113 136.153h1.889M9.002 136.153v2.835M9.002 138.988H7.113M7.113 136.153V117.26M9.002 117.26v18.893M8.058 117.26v18.893M6.169 58.691h1.889M6.169 58.691h1.889M.501 58.691h5.667M8.058 58.691H23.55M6.169 141.822h1.889M6.169 141.822h1.889M.501 141.822h5.667M8.058 141.822H23.55M.501 58.691H23.55"/></g><path class="st7" d="M6.168 269.727h1.889v5.133H6.168zM6.168 227.219h1.889v5.133H6.168z"/><g><path class="st5" d="M310.726 332.074v-13.603M310.726 339.632v-5.668M376.852 332.074v-13.603M376.852 339.632v-5.668M376.852 339.632h-66.125M376.852 318.472h-66.125M376.852 339.632v-5.668M376.852 332.074v-13.603M310.726 339.632v-5.668M310.726 332.074v-13.603M310.726 339.632v-21.16M310.736 333.964v-1.889M376.862 333.964v-1.889M376.862 332.076h-3.778M373.084 332.076v1.889M373.084 333.964h3.778M345.688 333.964h1.891M347.578 333.964v-1.889M347.578 332.076h-1.89M373.084 333.02h-25.506M373.084 332.076h-25.506M347.578 333.964h25.506M345.688 332.076h-.944M344.744 332.076v.944M344.744 333.02h-.944M343.799 333.02v.944M343.799 333.964h1.889M310.736 333.964h3.78M314.515 333.964v-.944M314.515 333.02h-.945M313.57 333.02v-.944M313.57 332.076h-2.834M313.57 331.13l22.043-22.043M314.515 333.964h29.284M341.91 331.13h-25.506M344.744 331.13h-2.833M341.91 331.13v1.89M341.91 333.02h2.833M344.744 333.02v-1.89M313.57 333.02h2.834M316.404 333.02v-1.89M316.404 331.13h-2.834M313.57 331.13v1.89M316.404 333.02h25.506M341.91 331.13h-25.506M341.91 332.076h-25.506M335.613 309.087a31.175 31.175 0 019.13 22.043M376.862 333.964v-1.889M376.862 333.964v-1.889M310.736 333.964v-1.889M310.736 333.964v-1.889"/></g></g><g><path class="st8" d="M91.458 13.47l-2.82 2.49M98.888 13.47l-10.25 9.03M106.308 13.47l-12.44 10.96M113.728 13.47l-12.44 10.96M121.148 13.47l-12.44 10.96M128.568 13.47l-12.44 10.96M135.988 13.47l-12.44 10.96M143.418 13.47l-12.44 10.96M150.838 13.47l-12.44 10.96M158.268 13.47l-12.44 10.96M165.688 13.47l-12.44 10.96M173.108 13.47l-12.45 10.96M180.528 13.47l-12.44 10.96M162.848 35.58l-.52.46M187.948 13.47l-12.44 10.96M195.378 13.47l-12.45 10.96M170.278 35.58l-3.43 3.02M202.798 13.47l-12.44 10.96M177.698 35.58l-3.43 3.02M210.218 13.47l-12.44 10.96M185.128 35.58l-3.43 3.02M217.638 13.47l-12.44 10.96M192.538 35.58l-3.43 3.02M225.058 13.47l-12.44 10.96M199.958 35.58l-3.42 3.02M247.068.62l-4.25 3.75M232.478 13.47l-12.44 10.96M207.388 35.58l-3.43 3.02M254.498.62l-11.68 10.29M239.908 13.47l-12.44 10.96M214.808 35.58l-3.43 3.02M261.918.62l-27.03 23.81M222.228 35.58l-3.42 3.02M229.658 35.58l-3.43 3.02M253.778 14.33l-11.46 10.1M269.338.62l-12.44 10.96M237.068 35.58l-3.42 3.02M253.778 20.86l-10.96 9.66M276.758.62l-12.44 10.96M164.928 105.67l-2.6 2.29M253.778 27.4l-12.71 11.2M284.178.62l-12.44 10.96M276.448 13.97l-3.03 2.67M172.348 105.67l-3.42 3.02M253.778 33.94l-10.96 9.66M291.608.62l-12.45 10.96M276.448 20.51l-3.03 2.67M179.778 105.67l-3.43 3.02M254.418 39.92l-11.6 10.22M299.028.62l-12.44 10.96M276.448 27.05l-3.03 2.67M253.778 47.02l-10.96 9.66M187.198 105.67l-3.43 3.02M261.838 39.92l-3.43 3.02M306.448.62l-12.44 10.96M276.448 33.59l-3.03 2.67M253.778 53.56l-10.96 9.66M191.618 108.32l-.42.37M269.258 39.92l-3.42 3.02M313.878.62l-12.44 10.96M253.778 60.1l-10.96 9.66M154.538 147.52l-3.17 2.8M276.448 40.13l-3.19 2.81M321.298.62l-12.44 10.96M322.548 6.05l-6.27 5.53M161.958 147.52l-10.59 9.33M253.778 66.63l-7.45 6.57M253.778 73.17l-.03.03M163.708 152.52l-12.34 10.87M224.308 105.67l-3.43 3.02M162.328 160.27l-10.96 9.66M162.328 166.81l-10.96 9.66M231.738 105.67l-3.43 3.02M162.328 173.35l-10.96 9.66M239.158 105.67l-3.43 3.02M162.328 179.89l-5.03 4.43M246.578 105.67l-3.42 3.02M200.818 152.52l-1.73 1.52M253.998 105.67l-3.43 3.02M208.238 152.52l-3.44 3.03M261.418 105.67l-3.42 3.02M215.668 152.52l-3.44 3.03M268.848 105.67l-3.43 3.02M276.268 105.67l-3.43 3.02M223.088 152.52l-3.44 3.03M230.508 152.52l-3.44 3.03M323.348 77.27l-.71.63M157.558 223.32l-6.19 5.45M237.928 152.52l-3.44 3.03M162.328 225.66l-10.96 9.66M245.358 152.52l-3.44 3.03M325.658 81.78l-3.02 2.66M162.328 232.2l-10.96 9.65M252.778 152.52l-3.44 3.03M325.658 88.32l-3.02 2.66M325.658 94.85l-3.02 2.67M260.198 152.52l-3.44 3.03M162.328 238.73l-10.96 9.66M330.968 90.18l-3.43 3.02M325.658 101.39l-3.02 2.66M267.618 152.52l-3.44 3.03M162.328 245.27l-10.96 9.65M338.378 90.18l-3.42 3.02M325.658 107.93l-3.02 2.66M275.038 152.52l-3.44 3.03M162.328 251.81l-10.96 9.65M345.808 90.18l-3.43 3.02M325.658 114.47l-3.02 2.66M282.468 152.52l-5.08 4.47M162.328 258.35l-10.96 9.66M353.228 90.18l-3.42 3.02M325.658 121.01l-3.02 2.66M286.758 155.28l-.31.27M280.408 160.87l-3.02 2.66M162.328 264.89l-10.96 9.65M360.658 90.18l-3.43 3.02M381.968 77.94l-3.03 2.67M325.658 127.55l-3.02 2.66M280.408 167.41l-3.02 2.66M162.328 271.42l-10.96 9.66M368.078 90.18l-3.43 3.02M375.498 90.18l-3.43 3.02M162.328 277.96l-10.96 9.66M280.408 173.94l-3.02 2.66M325.658 134.08l-3.02 2.66M381.968 84.48l-3.03 2.67M325.658 140.62l-3.02 2.66M280.408 180.49l-3.02 2.66M162.328 284.51l-10.96 9.65M382.918 90.18l-3.43 3.02M390.338 90.18l-3.42 3.02M162.328 291.04l-10.96 9.66M280.408 187.02l-3.02 2.66M319.578 152.52l-1.73 1.52M325.658 147.16l-3.02 2.66M162.328 297.58l-10.96 9.65M326.998 152.52l-3.44 3.03M280.408 193.56l-3.02 2.66M162.328 304.12l-10.96 9.65M280.408 200.1l-3.02 2.66M332.688 154.04l-1.71 1.51M280.408 206.63l-3.02 2.66M162.328 310.65l-9.02 7.95M280.408 213.18l-3.02 2.66M162.328 317.2l-1.59 1.4M280.408 219.71l-3.02 2.66M280.408 226.25l-3.02 2.66M364.108 152.52l-3.44 3.03M280.408 232.79l-3.02 2.66M371.528 152.52l-3.44 3.03M280.408 239.33l-3.02 2.66M378.958 152.52l-3.44 3.03M280.408 245.87l-3.02 2.66M386.378 152.52l-3.44 3.03M280.408 252.41l-3.02 2.66M393.298 152.96l-2.94 2.59M280.408 258.94l-3.02 2.66M280.408 265.49l-3.02 2.66M280.408 272.02l-3.02 2.66M280.408 278.56l-3.02 2.66M280.408 285.1l-3.02 2.66M280.408 291.63l-3.02 2.66M280.408 298.18l-3.02 2.66M280.408 304.71l-3.02 2.66M280.408 311.25l-3.02 2.66M280.408 317.79l-.92.81"/></g><path class="st7" d="M162.415 148.906v3.495h5.479v1.512h-.454v1.511h-5.025V184.2h-10.958v-36.353h1.511v-.454h9.447v1.513zM276.53 39.798v3.023h-22.672v30.256H242.9V38.475h-80.485v-3.022H242.9V24.305H88.721V13.347H242.9V.5h79.729v10.958H276.53v28.34zm-3.023.001V11.458h-19.649v28.341h19.649zM162.415 318.472h-10.958V223.2h10.958v95.272zm124.884-166.071v1.512h-.454v1.511h-6.348v163.048h-3.023V155.424h-78.142v-1.511h-.453v-1.512h88.42zm70.943 3.023h35.142v-3.023h-34.688v1.511h-.454v1.512zm-40.034 0v-1.511h-.454v-1.512h4.969V77.149h3.023v12.906h53.279V77.206h3.023v12.849h11.525v3.022h-67.827v59.324h6.821v1.511h.453v1.512h-14.812zm-128.02-46.855h-27.773v-3.022h28.831v1.511h.453v1.511h-1.511zm28.528 0h1.512v-.001h56.302v-3.022h-56.302v.001h-1.058v1.511h-.454v1.511z"/></g><g id="sizes"><path class="st9" d="M333.588 135.965l3.961-5.281c.229-.302.407-.616.535-.941s.191-.629.191-.91v-.016c0-.453-.133-.805-.398-1.055s-.644-.375-1.133-.375c-.464 0-.839.137-1.125.41s-.461.66-.523 1.16v.008h-1.648v-.008c.094-.651.285-1.207.574-1.668s.663-.813 1.121-1.055.987-.363 1.586-.363c.677 0 1.255.116 1.734.348s.844.569 1.094 1.012.375.977.375 1.602v.008c0 .401-.083.82-.25 1.258s-.398.859-.695 1.266l-3.289 4.469h4.297v1.516h-6.406v-1.385zM341.869 135.754h1.594v1.594l-1.594 1.578v-3.172zM351.518 127.41l-2.938 9.938h-1.695l2.938-9.844h-2.891v1.633h-1.594v-3.148h6.18v1.421zM261.726 124.528c-.521-.261-.923-.629-1.207-1.105s-.426-1.03-.426-1.66v-.188c0-.567.142-1.102.426-1.602s.663-.878 1.137-1.133c-.401-.219-.723-.535-.965-.949s-.363-.851-.363-1.309v-.273c0-.594.133-1.116.398-1.566s.641-.8 1.125-1.047 1.047-.371 1.688-.371 1.203.124 1.688.371.859.597 1.125 1.047.398.973.398 1.566v.273c0 .469-.124.909-.371 1.32s-.574.724-.98.938c.479.261.863.64 1.152 1.137s.434 1.03.434 1.598v.188c0 .63-.142 1.184-.426 1.66s-.687.845-1.207 1.105-1.125.391-1.813.391-1.293-.131-1.813-.391zm2.789-1.36c.281-.146.499-.351.652-.613s.23-.566.23-.91v-.109c0-.349-.077-.655-.23-.918s-.371-.468-.652-.613-.606-.219-.977-.219-.695.073-.977.219-.499.352-.652.617-.23.573-.23.922v.117c0 .344.077.646.23.906s.371.462.652.605.606.215.977.215.695-.073.977-.219zm-.133-5.121c.245-.138.435-.335.57-.59s.203-.55.203-.883v-.109c0-.317-.067-.599-.203-.844s-.325-.434-.57-.566-.526-.199-.844-.199-.599.066-.844.199-.435.321-.57.566-.203.528-.203.852v.117c0 .328.067.618.203.871s.325.448.57.586.526.207.844.207.599-.069.844-.207zM269.054 123.207h1.594v1.594l-1.594 1.578v-3.172zM276.858 119.16l-.008.281c-.13.239-.327.415-.59.527s-.574.168-.934.168c-.542 0-1.019-.138-1.43-.414s-.73-.665-.957-1.168-.34-1.085-.34-1.746v-.008c0-.734.124-1.362.371-1.883s.609-.917 1.086-1.188 1.048-.406 1.715-.406 1.237.138 1.711.414.835.677 1.082 1.203.371 1.159.371 1.898v.008c0 .406-.052.84-.156 1.301a8.052 8.052 0 01-.539 1.578c-.031.07-.065.14-.102.207l-2.422 4.867h-1.719l2.861-5.639zm.075-.984c.273-.339.41-.815.41-1.43v-.008c0-.599-.137-1.063-.41-1.391s-.66-.492-1.16-.492c-.505 0-.895.164-1.168.492s-.41.794-.41 1.398v.008c0 .614.137 1.09.41 1.426s.663.504 1.168.504c.5.001.886-.168 1.16-.507zM290.841 310.891h-1.594v-9.625l-1.617.992v-1.648l1.617-1.078h1.594v11.359zM293.247 309.509l3.961-5.281c.229-.302.407-.616.535-.941.127-.325.191-.629.191-.91v-.016c0-.453-.133-.805-.398-1.055s-.644-.375-1.133-.375c-.464 0-.839.137-1.125.41-.287.273-.461.66-.523 1.16v.008h-1.648v-.008c.094-.651.285-1.207.574-1.668s.662-.813 1.121-1.055c.458-.242.986-.363 1.586-.363.677 0 1.255.116 1.734.348.479.231.844.569 1.094 1.012s.375.977.375 1.602v.008c0 .401-.084.82-.25 1.258a5.417 5.417 0 01-.695 1.266l-3.289 4.469h4.297v1.516h-6.406v-1.385zM301.528 309.298h1.594v1.594l-1.594 1.578v-3.172zM306.954 310.673a2.758 2.758 0 01-1.086-.977c-.279-.427-.465-.94-.559-1.539v-.008h1.594v.008c.057.417.224.741.5.973.275.231.635.348 1.078.348.51 0 .904-.171 1.184-.512.278-.341.418-.821.418-1.441v-.953c0-.614-.14-1.093-.418-1.434-.279-.341-.674-.512-1.184-.512-.276 0-.542.078-.797.234a2.225 2.225 0 00-.672.656h-1.453v-5.984h5.789v1.516h-4.195v2.555a2.262 2.262 0 011.414-.508c.656 0 1.217.136 1.684.406.466.271.82.667 1.063 1.188s.363 1.148.363 1.883v.953c0 .734-.125 1.362-.375 1.883s-.615.918-1.094 1.191c-.479.273-1.055.41-1.727.41-.573 0-1.082-.113-1.527-.336z"/><g><path class="st9" d="M119.529 196.404l3.961-5.282c.229-.302.407-.616.535-.941.127-.325.191-.629.191-.91v-.016c0-.453-.133-.805-.398-1.055s-.644-.375-1.133-.375c-.464 0-.839.137-1.125.41-.287.273-.461.66-.523 1.16v.008h-1.648v-.008c.094-.651.285-1.207.574-1.668s.662-.813 1.121-1.055c.458-.242.986-.363 1.586-.363.677 0 1.255.116 1.734.348.479.231.844.569 1.094 1.012s.375.977.375 1.602v.008c0 .401-.084.82-.25 1.258a5.417 5.417 0 01-.695 1.266l-3.289 4.469h4.297v1.516h-6.406v-1.384zM129.186 197.502a2.619 2.619 0 01-1.082-1.172c-.248-.514-.371-1.133-.371-1.855v-.008c0-.422.049-.865.148-1.329a7.648 7.648 0 01.641-1.82l2.469-4.891h1.719l-2.898 5.664.008-.281c.13-.245.32-.435.57-.57s.541-.203.875-.203c.588 0 1.094.133 1.516.398s.742.652.961 1.16.328 1.118.328 1.833v.008c0 .729-.124 1.354-.371 1.875a2.63 2.63 0 01-1.086 1.188c-.477.27-1.049.406-1.715.406-.668-.001-1.239-.136-1.712-.403zm2.879-1.598c.273-.313.41-.758.41-1.336v-.008c0-.637-.144-1.126-.43-1.473-.287-.347-.695-.52-1.227-.52-.475 0-.842.175-1.102.523-.261.349-.391.84-.391 1.477v.008c0 .578.137 1.021.41 1.332.273.309.66.465 1.16.465.506.001.896-.155 1.17-.468zM136.022 196.193h1.594v1.594l-1.594 1.578v-3.172zM139.647 194.662l3.813-8.227h1.641l-3.719 8.133h5.57v1.477h-7.305v-1.383zm4.898-3.555h1.555v6.688h-1.555v-6.688z"/></g><g><path class="st9" d="M248.459 193.911h-1.594v-9.625l-1.617.992v-1.648l1.617-1.078h1.594v11.359zM253.022 194.028l-.727-.348c-.485-.232-.874-.567-1.168-1.008s-.48-.97-.559-1.59h1.625c.047.323.148.589.305.797s.358.363.605.465.538.152.871.152c.526 0 .935-.141 1.227-.422s.438-.677.438-1.188v-.344c0-.567-.138-1.007-.414-1.316s-.667-.465-1.172-.465h-.805v-1.516h.805c.442 0 .786-.133 1.031-.398s.367-.641.367-1.125v-.352c0-.448-.129-.794-.387-1.039s-.624-.367-1.098-.367c-.271 0-.513.051-.727.152s-.395.258-.543.469-.257.476-.324.793h-1.617c.104-.62.301-1.151.59-1.594s.655-.778 1.098-1.008.95-.344 1.523-.344c.979 0 1.737.258 2.273.773s.805 1.242.805 2.18v.188c0 .567-.153 1.063-.461 1.484s-.742.729-1.305.922c.62.136 1.101.44 1.441.914s.512 1.078.512 1.813v.188c0 .661-.128 1.227-.383 1.695s-.626.825-1.113 1.07-1.074.367-1.762.367l-.951.002zM259.342 192.317h1.594v1.594l-1.594 1.578v-3.172zM263.947 193.177c-.55-.567-.824-1.359-.824-2.375v-5.164c0-1.021.276-1.813.828-2.379s1.356-.848 2.414-.848c1.063 0 1.868.281 2.418.844s.824 1.356.824 2.383v5.164c0 1.021-.276 1.813-.828 2.379s-1.356.848-2.414.848c-1.062-.001-1.868-.285-2.418-.852zm3.664-1.106c.269-.294.402-.718.402-1.27v-5.164c0-.552-.133-.976-.398-1.27s-.683-.441-1.25-.441-.984.147-1.25.441-.398.718-.398 1.27v5.164c0 .552.134.976.402 1.27s.684.441 1.246.441.978-.147 1.246-.441z"/></g><g><path class="st9" d="M215.811 75.949l-.727-.348c-.485-.232-.874-.567-1.168-1.008s-.48-.97-.559-1.59h1.625c.047.323.148.589.305.797s.358.363.605.465.538.152.871.152c.526 0 .935-.141 1.227-.422s.438-.677.438-1.188v-.344c0-.567-.138-1.007-.414-1.316s-.667-.465-1.172-.465h-.805v-1.516h.805c.442 0 .786-.133 1.031-.398s.367-.641.367-1.125v-.352c0-.448-.129-.794-.387-1.039s-.624-.367-1.098-.367c-.271 0-.513.051-.727.152s-.395.258-.543.469-.257.476-.324.793h-1.617c.104-.62.301-1.151.59-1.594s.655-.778 1.098-1.008.95-.344 1.523-.344c.979 0 1.737.258 2.273.773s.805 1.242.805 2.18v.188c0 .567-.153 1.063-.461 1.484s-.742.729-1.305.922c.62.136 1.101.44 1.441.914s.512 1.078.512 1.813v.188c0 .661-.128 1.227-.383 1.695s-.626.825-1.113 1.07-1.074.367-1.762.367l-.951.002zM222.131 74.238h1.594v1.594l-1.594 1.578v-3.172zM231.779 65.894l-2.938 9.938h-1.695l2.938-9.844h-2.891v1.633H225.6v-3.148h6.18v1.421z"/></g><g><path class="st9" d="M347.769 377.496l3.961-5.281c.229-.302.407-.616.535-.941.127-.325.191-.629.191-.91v-.016c0-.453-.133-.805-.398-1.055s-.644-.375-1.133-.375c-.464 0-.839.137-1.125.41-.287.273-.461.66-.523 1.16v.008h-1.648v-.008c.094-.651.285-1.207.574-1.668s.662-.813 1.121-1.055c.458-.242.986-.363 1.586-.363.677 0 1.255.116 1.734.348.479.231.844.569 1.094 1.012s.375.977.375 1.602v.008c0 .401-.084.82-.25 1.258a5.417 5.417 0 01-.695 1.266l-3.289 4.469h4.297v1.516h-6.406v-1.385zM356.05 377.285h1.594v1.594l-1.594 1.578v-3.172zM361.347 378.605a2.855 2.855 0 01-1.207-1.105c-.284-.477-.426-1.03-.426-1.66v-.188c0-.567.142-1.102.426-1.602.283-.5.662-.878 1.137-1.133-.401-.219-.723-.535-.965-.949s-.363-.851-.363-1.309v-.273c0-.594.133-1.116.398-1.566s.641-.8 1.125-1.047 1.047-.371 1.688-.371 1.203.124 1.688.371.859.597 1.125 1.047.398.973.398 1.566v.273c0 .469-.124.909-.371 1.32a2.485 2.485 0 01-.98.938c.479.261.863.64 1.152 1.137s.434 1.03.434 1.598v.188c0 .63-.143 1.184-.426 1.66a2.854 2.854 0 01-1.207 1.105c-.521.261-1.125.391-1.813.391s-1.293-.13-1.813-.391zm2.789-1.359c.281-.146.498-.351.652-.613.153-.263.23-.566.23-.91v-.109c0-.349-.077-.655-.23-.918-.154-.263-.371-.468-.652-.613s-.607-.219-.977-.219-.695.073-.977.219-.499.352-.652.617c-.154.266-.23.573-.23.922v.117c0 .344.076.646.23.906.153.261.371.462.652.605s.606.215.977.215c.369 0 .696-.074.977-.219zm-.133-5.121c.244-.138.435-.335.57-.59.135-.255.203-.55.203-.883v-.109c0-.317-.068-.599-.203-.844a1.406 1.406 0 00-.57-.566 1.74 1.74 0 00-.844-.199c-.318 0-.6.066-.844.199a1.394 1.394 0 00-.57.566 1.724 1.724 0 00-.203.852v.117c0 .328.067.618.203.871.135.253.325.448.57.586.244.138.525.207.844.207.318 0 .599-.069.844-.207z"/></g></g></svg>