<svg version="1.1" id="_x31_8" xmlns="http://www.w3.org/2000/svg" x="0" y="0" viewBox="0 0 403.235 526.314" xml:space="preserve"><style>.st0,.st1{fill-rule:evenodd;clip-rule:evenodd}.st0{fill:#fff}.st1{stroke:#999;stroke-width:.4}.st1,.st2,.st3{fill:none;stroke-linecap:round;stroke-linejoin:round;stroke-miterlimit:3}.st2{fill-rule:evenodd;clip-rule:evenodd;stroke:#999}.st3{stroke:#000}.st4,.st5,.st7,.st8{fill-rule:evenodd;clip-rule:evenodd}.st5,.st7,.st8{fill:none;stroke:#000}.st5{stroke-linecap:round;stroke-linejoin:round;stroke-miterlimit:3}.st7,.st8{stroke-miterlimit:22.9256}.st8{stroke:#666;stroke-width:.6}</style><path class="st0" d="M72.864.432v211.175H.555V480.94h13.476v44.5h90.5v-44.5h298.26V.432z"/><g id="mebel"><path class="st1" d="M76.04 285.53l1.222-1.222m-8.169 1.222l8.169-8.169m-15.116 8.169l15.115-15.115M55.198 285.53l22.063-22.063M48.252 285.53l29.009-29.009M41.306 285.53l35.956-35.956M34.358 285.53l42.903-42.903M27.412 285.53l49.85-49.85m-52.524 45.576l27.428-27.429m9.304-9.303l11.138-11.139m-47.87 40.923l24.294-24.294m11.775-11.774l4.854-4.854m-40.923 33.976l23.831-23.831m-23.831 16.885l24.65-24.65m-25.043 18.096l.072-.072m.321-.322l20.082-20.083M24.738 246.521l13.136-13.136M24.738 239.575l6.189-6.189m46.334 5.755l-5.755-5.755m5.755 12.702l-12.702-12.702m12.702 19.65l-16.65-16.651m16.65 23.597L61.43 244.151m15.831 22.778l-16.534-16.534m-11.652-11.654l-5.356-5.356m33.542 40.492l-19.887-19.888m-8.958-8.959l-11.645-11.645m40.49 47.438l-47.437-47.437m45.198 52.144l-50.284-50.284m43.337 50.284l-43.337-43.338m36.39 43.338l-36.39-36.39m29.443 36.39l-29.443-29.443M47.234 285.53l-22.495-22.495M40.287 285.53l-15.548-15.548m8.601 15.548l-8.602-8.602m1.655 8.602l-1.655-1.655M147.935 137.219l4.332-4.332m-11.279 4.332l11.279-11.279m-18.226 11.279l18.226-18.226m-25.173 18.226l25.173-25.173m-32.119 25.173l32.119-32.119m-39.066 32.119l36.086-36.086m-43.034 36.086l36.086-36.086m-43.033 36.086l36.087-36.086M92.36 137.219l14.809-14.809m4.467-4.467l16.81-16.81m-37.771 30.823l9.219-9.219m10.349-10.349l17.274-17.274M90.675 125.01l2.936-2.936m12.041-12.042l21.865-21.865m-29.068 22.121l24.269-24.269m-32.037 25.09l25.091-25.089m-25.097 18.148l18.15-18.148m-18.15 11.202l11.202-11.202m-11.202 4.255l4.257-4.255m57.335 19.72l-4.607-4.607m4.607 11.553l-11.553-11.553m-13.197-13.196L125.6 86.02m26.667 33.613l-18.5-18.5m-6.25-6.249l-8.864-8.864m33.614 40.56l-40.561-40.561m40.561 47.509l-47.508-47.509m44.253 51.2l-51.2-51.2m44.254 51.2l-51.201-51.2m44.254 51.2l-25.013-25.013m-.031-.03l-19.4-19.399m37.496 44.442l-17.414-17.414m-9.783-9.783L90.675 99.723m30.55 37.496l-14.642-14.642M94.69 110.685l-4.015-4.015m23.603 30.549l-14.494-14.494m7.547 14.494l-15.314-15.313m8.367 15.313l-9.709-9.708m2.762 9.708l-2.762-2.762M96.154 73.361h75.95m-75.95-11.336h75.95m-75.95-11.336h75.95m-75.95-11.336h15.577m2.854 0h23.512M96.154 28.017h10.661m12.687 0h18.595m32.874 54.978V48.61M148.3 82.995V48.61m-22.673 34.385V18.382m-22.672 64.613V18.382"/><path class="st2" d="M266.958 352.318v106.841m0 0h-15.114m0 0V352.318m0 0h15.114M266.202 352.318v106.841M266.958 405.738h-.756M266.958 352.318h-.756M172.105 48.611h-34.008M138.097 48.611V18.382M166.437 24.994a.944.944 0 11-1.889 0 .944.944 0 011.889 0zM155.606 31.365l1.396.372m0-.001l1.209.793m0 .001l.899 1.133m0 0l.495 1.357m0 0l.044 1.446m0-.001l-.414 1.384m0 0l-.828 1.185m0 .001l-1.159.863m0-.001l-1.372.455m0 0h-1.446m0 0l-1.372-.455m0 0l-1.16-.863m0 .001l-.828-1.185m0-.001l-.413-1.384m0 0l.043-1.446m0 .001l.496-1.357m0 0l.897-1.133m0 0l1.209-.793m0-.001l1.397-.372m0 .001v-5.538m0-.001l-.455.108m0 0l-.49.037m0 0l-.489-.037m0 0l-.455-.108m0 0l-.392-.172m0 0l-.299-.225m0 0l-.19-.26m0 0l-.064-.282m0 0v-.402m0 0l.019-.12m0 .001l.064-.277m0 0l.054-.104m0 0l.182-.251m0-.001l.078-.07m0 0l.274-.205m0 0l.357-.157m0 0l.195-.051m0 0l.25-.06m0 .001l.02-.688m0 0l.009-.796m0-.001h-1.729m0 0v-.435m0 0h-2.871m0 0l-.16-.058m0 0l-.083-.149m0 .001l.033-.166m0-.001l.134-.105m0 .001l.485-.158m0-.001l.726-.315m0 0l1.008-.574m0 0l.728-.258m0 .001v-.125m0-.001h-.604m0 0v-.982m0 .001h2.569m0 0v.877m0-.001l.024.01m0 .001l.039.028m0-.001l.033.034m0 0l.025.041m0 0l.278.673m0 0h.697m0 0v-1.361m0 0h-1.058m0 0v-.302m0 .001h3.023m0 0v.302m0-.001h-1.058m0 0v1.361m0 0h1.436m0 0v.151m0 0h.416m0 0v-.303m0 0h-.152m0 0v-.529m0 0h-.604m0 0v-.982m0 .001h2.569m0 0v.982m0-.001h-.604m0 0v.529m0 0h-.152m0 0v.303m0 0h.152m0 0v1.511m0 0h-2.57m0 0v2.154m0 0h-.023m0 0h-.059m0 0h-.094m0 0h-.124m0 0h-.149m0 0h-.042m0 0v7.504M153.263 20.044h.21m0 0l-.141-.341m0 0l-.326-.053m0 0l-.008.001m0 0v.242m0 0h-.151m0 0v.302m0 0h.416m0 0v-.151M151.789 20.195v-.241m0 .001l-.677.239m0-.001l-.987.564m0 .001l-.053.023m0 0h1.566m0 0v-.585m0-.001h.151M157.646 19.363v.529M158.327 19.363v.529M151.989 19.363h-.351M152.847 19.893h-.188M152.658 19.893h-.68M151.978 19.893h-.014M152.658 19.717v.176M151.978 19.888v.005M151.789 20.195h1.058M154.142 21.706h.557M151.638 20.781v.49M154.208 22.274h.49M148.842 21.26l-.075.012M152.991 19.157l.048.002M152.822 19.189l.169-.032M153.537 19.239l.046.011M153.583 19.25l.02.008M151.638 19.489l.453-.162M152.091 19.327l.73-.139M152.948 19.661l.058-.011M148.842 21.26l.513-.168M149.355 21.092l.718-.312M152.049 19.344h.001M153.038 19.159l.498.08M154.697 23.762l.001-.002M154.698 23.231l-.001-.001M153.263 20.591v-.127M153.263 20.346v-.103M153.263 20.464v-.118M153.473 20.044h.523M152.225 19.8l.723-.139M151.789 19.954l.436-.154M153.943 20.677l.001.001M153.852 20.633l.091.044M153.754 20.618l.098.015M153.656 20.633l.099-.016M153.566 20.677l.091-.044M153.566 20.677l-.001.001M153.41 23.174l.345-.026M153.754 23.148l.345.026M153.338 23.191l.071-.017M154.42 23.25l.195.052M154.099 23.174l.321.076M153.385 20.844l-.009.062M154.615 23.302l.083.036M154.17 23.191l-.02-.688M154.132 20.906l-.009-.062M154.123 20.844l-.026-.058M154.097 20.786l-.042-.05M154.055 20.737l-.056-.038M153.999 20.698l-.056-.021M153.943 20.678l-.007-.003M153.936 20.675l-.068-.008M153.867 20.667h-.227M153.641 20.667l-.068.008M153.573 20.675l-.008.003M153.565 20.678l-.056.021M153.509 20.698l-.055.038M153.454 20.737l-.043.049M153.412 20.786l-.027.058M154.151 22.502l-.019-1.596M153.366 21.706l.01-.8M153.263 21.404h.107M154.138 21.404h.561M155.606 31.365v5.343M154.698 31.365v5.343M155.606 36.708h-.907M158.666 19.363h-1.36M158.515 19.893h-1.058M158.515 20.195h-1.058M157.041 20.195v1.209M153.263 21.404v-1.209M155.606 18.684h-.907M155.606 20.044v3.816M154.698 25.826v-5.782M157.041 21.404h-1.436M156.097 21.706h-.491M156.097 22.274h-.491M154.208 21.706v1.493M155.606 34.042a1.89 1.89 0 11-.907 0M157.041 20.732a.34.34 0 110 .589M106.756 33.373l.469 1.645m0 0l.718 1.551m0 0l.968 1.23m0 0l1.248.943m0 0l1.448.594m0 0l1.551.205m0 0l1.551-.205m0 0l1.447-.594m0 0l1.249-.943m0 0l.967-1.23m0 0l.719-1.551m0 0l.469-1.645m0 0l.208-1.698m0 0l-.06-1.709m0 0l-1.223-11.585m0 0h-10.654m0 0l-1.223 11.585m0 0l-.059 1.709m0 0l.207 1.698M117.275 24.103h-4.116M113.158 24.103h-4.115M116.222 38.369c-.89.57-1.961.881-3.063.887M119.47 31.54c.165 2.591-1.031 5.106-3.248 6.829M117.275 24.103c1.506 2.253 2.266 4.828 2.195 7.437M106.847 31.54c-.071-2.609.689-5.185 2.195-7.437M110.095 38.369c-2.218-1.723-3.414-4.238-3.248-6.829M113.158 39.256a5.738 5.738 0 01-3.063-.887M117.806 18.381h-9.295m0 0v.189m0 0h9.295m0 0v-.189M103.711 18.381h18.894M103.711 13.847h18.894M103.711 18.381v-4.534M122.605 18.381v-4.534M128.083 86.019H151.7m0 0l.401.166m0 0l.166.4m0 0v13.982m0 0l-.166.4m0 0l-.401.166m0 0h-23.617m0 0l-.4-.166m0 0l-.166-.4m0 0V86.585m0 0l.166-.4m0 0l.4-.166M129.217 90.175h10.222m.906 0h10.222M151.133 90.742v8.69M150.567 100h-21.35M128.651 99.433v-8.69M150.567 90.175c.313 0 .566.254.566.567M151.133 99.433a.566.566 0 01-.566.567M129.217 100a.567.567 0 01-.566-.567M128.651 90.742c0-.313.254-.567.566-.567M140.648 93.163a.754.754 0 01-.303.605v-1.21a.755.755 0 01.303.605zm-1.209.606a.754.754 0 010-1.21v1.21zM140.345 86.548h-.906m0 0v7.748m0 0l.256.301m0 0h.394m0 0l.256-.301m0 0v-7.748M139.136 86.548h1.512m0 0v-.265m0 0h-1.512m0 0v.265M138.758 86.284h2.268m0 0v-.265m0-.001h-2.268m0 0v.265M136.623 87.908v-1.625m0 .001h.095m0 0v-.133m0 0h.283m0 0v-.132m0-.001h-1.889m0 0v.132m0 .001h.283m0 0v.133m0 0h.094m0 0v1.625m0-.001h.322m0 0v.415m0 0h-1.078m0 0v.491m0 .001h2.646m0 0v-.491m0-.001h-1.077m0 0v-.415m0 0h.321M143.16 87.908v-1.625m0 .001h-.095m0 0v-.133m0 0h-.283m0 0v-.132m0-.001h1.89m0 0v.132m0 .001h-.283m0 0v.133m0 0h-.095m0 0v1.625m0-.001h-.322m0 0v.415m0 0h1.078m0 0v.491m0 .001h-2.646m0 0v-.491m0-.001h1.077m.001 0v-.415m0 0h-.321M135.811 88.323l.072.072M136.302 88.323l-.072.072M135.811 87.908h.491M135.49 86.284h1.134M136.718 86.151h-1.322M143.973 88.323l-.071.072M143.482 88.323l.072.072M143.973 87.908h-.491M144.294 86.284h-1.134M143.066 86.151h1.323M136.302 88.57a.244.244 0 01-.245.245.245.245 0 110-.491c.136 0 .245.11.245.246zM143.973 88.57c0 .136-.11.245-.245.245a.245.245 0 11.245-.245zM105.667 122.838l1.645-.469m0 0l1.551-.718m0 0l1.23-.967m0 0l.943-1.249m0 0l.594-1.448m0 0l.205-1.55m0 0l-.205-1.551m0 0l-.594-1.448m0 0l-.943-1.248m0 0l-1.23-.967m0 0l-1.551-.719m0 0l-1.645-.469m0 0l-1.698-.208m0 0l-1.709.06m0 0l-11.585 1.222m0 0v10.655m0 0l11.585 1.222m0 0l1.709.06m0 0l1.698-.208M96.397 112.321v4.116M96.397 116.437v4.116M110.663 113.373c.57.889.881 1.961.887 3.063M103.834 110.125c2.591-.165 5.106 1.031 6.829 3.248M96.397 112.321c2.253-1.506 4.828-2.266 7.437-2.195M103.834 122.748c-2.609.07-5.185-.689-7.437-2.195M110.663 119.5c-1.723 2.217-4.238 3.413-6.829 3.248M111.55 116.437a5.738 5.738 0 01-.887 3.063M90.675 111.789v9.295m0 0h.189m0 0v-9.295m0 0h-.189M90.675 125.883V106.99M86.141 125.883V106.99M90.675 125.883h-4.534M90.675 106.99h-4.534M48.566 248.377l.469 1.645m0 0l.718 1.551m0 0l.967 1.23m0 0l1.249.943m0 0l1.448.594m0 0l1.55.205m0 0l1.552-.205m0 0l1.447-.594m0 0l1.248-.943m0 0l.968-1.23m0 0l.719-1.551m0 0l.469-1.645m0 0l.207-1.697m0 0l-.059-1.71m0 0l-1.223-11.585m0 0H49.64m0 0l-1.222 11.585m0 0l-.06 1.71m0 0l.208 1.697M59.084 239.107h-4.117M54.967 239.107h-4.116M58.031 253.373a5.752 5.752 0 01-3.063.887M61.28 246.544c.165 2.591-1.031 5.106-3.249 6.829M59.084 239.107c1.505 2.253 2.265 4.828 2.195 7.437M48.656 246.544c-.07-2.609.689-5.185 2.195-7.437M51.903 253.373c-2.217-1.723-3.413-4.238-3.248-6.829M54.967 254.26a5.74 5.74 0 01-3.063-.887M59.615 233.385H50.32m-.001 0v.189m0 0h9.295m.001 0v-.189M45.521 233.385h18.894M45.521 228.851h18.894M45.521 233.385v-4.534M64.414 233.385v-4.534M9.623 254.357v30.606m0 0l.167.402m0 0l.4.166m0 0h13.981m0 0l.401-.166m0 0l.166-.402m0 0v-30.606m0 0l-.166-.401m0 0l-.401-.166m0 0H10.19m0 0l-.4.166m0 0l-.167.401M13.781 255.49v13.716m0 .907v13.717M14.347 284.397h8.691M23.605 283.83v-28.34M23.038 254.923h-8.691M14.347 284.397a.567.567 0 01-.566-.566M23.605 283.83a.567.567 0 01-.566.566M23.038 254.923c.312 0 .566.254.566.567M13.781 255.49c0-.313.254-.567.566-.567M17.374 270.113a.755.755 0 01-1.21 0h1.21zm-1.21-.907a.755.755 0 011.208 0h-1.208zM10.153 270.113v-.907m0 .001h7.748m0 0l.301.256m0 0v.395m0-.001l-.301.256m0 0h-7.748M10.153 268.904v1.512m0 0h-.265m0 0v-1.512m0 0h.265M9.888 268.527v2.267m0-.001h-.265m0 0v-2.267m0 .001h.265M11.513 266.392H9.888m0 0v.095m0 0h-.132m0 0v.283m0 0h-.133m0 0v-1.89m0 0h.133m0 0v.283m0 0h.132m0 0v.095m0 0h1.625m0 0v.322m0 0h.416m0 0v-1.078m0 0h.491m0 0v2.646m0 0h-.491m0 0v-1.077m0 0h-.416m0 0v.321M11.513 272.929H9.888m0 0v-.095m0 0h-.132m0 0v-.283m0 0h-.133m0 0v1.889m0 0h.133m0 0v-.283m0 0h.132m0 0v-.094m0 0h1.625m0 0v-.322m0 0h.416m0 0v1.078m0 0h.491m0 0v-2.646m0 0h-.491m0 0v1.077m0 0h-.416m0 0v-.321M11.929 265.579l.072.071M11.929 266.071l.072-.072M11.513 265.579v.491M9.888 265.258v1.134M9.756 266.486v-1.322M11.929 273.741l.072-.072M11.929 273.25l.072.071M11.513 273.741v-.49M9.888 274.063v-1.134M9.756 272.834v1.322M12.42 265.824a.245.245 0 11-.491 0 .246.246 0 01.491 0zM12.42 273.495a.246.246 0 11-.492 0 .246.246 0 01.492 0zM9.623 285.53h67.638m0 0v26.828m0 0H9.623m0 0V285.53M17.515 310.212l-.979-.081m0 0l-.949-.242m0 0l-.89-.396m0 0l-.805-.536m0 0l-.695-.661m0 0l-.564-.767m0 0l-.415-.847m0 0l-.254-.904m0 0l-.086-.931m0 0v-11.805m0 0l.086-.932m0 0l.254-.903m0 0l.415-.848m0 0l.564-.766m0 0l.695-.661m0 0l.805-.536m0 0l.89-.396m0 0l.949-.242m0 0l.979-.081m0 0H63.17m0 0l2.056.171m0 0l1.992.509m0 0l1.87.829m0 0l1.691 1.127m0 0l1.459 1.388m0 0l1.183 1.61m0 0l.871 1.779m0 0l.535 1.897m0 0l.18 1.957m0 0l-.18 1.956m0 0l-.535 1.898m0 0l-.871 1.78m0 0l-1.183 1.61m0 0l-1.459 1.388m0 0l-1.691 1.127m0 0l-1.87.829m0 0l-1.992.509m0 0l-2.056.171m0 0H17.515M19.637 298.945a.944.944 0 11-1.889 0 .944.944 0 011.889 0zM333.666 320.999v28.39M334.8 350.523h28.39M364.324 349.389v-28.39M363.19 319.865H334.8M373.72 310.469v38.92M372.586 350.523h-7.129M364.324 349.389v-29.523M364.324 319.865h-29.523M333.666 318.732v-7.129M334.8 310.469h38.92M368.43 349.389v-33.63M368.43 315.759H334.8M375.232 350.523v-41.564M375.232 308.958h-41.565M375.232 350.523h-2.646M333.666 311.603v-2.645M333.666 318.732V321M365.457 350.523h-2.268M364.324 319.865l9.396-9.396M334.8 350.523a1.134 1.134 0 01-1.134-1.134M364.324 349.389c0 .626-.507 1.134-1.134 1.134M363.19 319.865c.627 0 1.134.508 1.134 1.134M333.666 320.999c0-.626.508-1.134 1.134-1.134M373.72 349.389c0 .626-.508 1.134-1.134 1.134M365.457 350.523a1.134 1.134 0 01-1.134-1.134M334.8 319.865a1.134 1.134 0 01-1.134-1.134M333.666 311.603c0-.626.508-1.134 1.134-1.134M369.564 350.523a1.134 1.134 0 01-1.134-1.134M334.8 315.759a1.134 1.134 0 01-1.134-1.133M375.232 388.309v-37.786M375.232 388.309h-2.646M375.232 350.523h-2.646M365.457 388.309h-2.268M365.457 350.523h-2.268M333.666 351.657v35.519M334.8 388.309h28.39M364.324 387.176v-35.52M363.19 350.523H334.8M373.72 351.657v35.519M372.586 388.309h-7.129M364.324 387.176v-35.52M365.457 350.523h7.129M368.43 387.176v-35.52M334.8 388.309a1.134 1.134 0 01-1.134-1.133M364.324 387.176c0 .626-.507 1.133-1.134 1.133M363.19 350.523c.627 0 1.134.508 1.134 1.134M333.666 351.657c0-.626.508-1.134 1.134-1.134M373.72 387.176c0 .626-.508 1.133-1.134 1.133M365.457 388.309a1.134 1.134 0 01-1.134-1.133M364.324 351.657c0-.626.508-1.134 1.134-1.134M372.586 350.523c.626 0 1.134.508 1.134 1.134M369.564 388.309a1.134 1.134 0 01-1.134-1.133M368.43 351.657c0-.626.508-1.134 1.134-1.134M333.666 421.184v4.156M334.422 426.096h40.054M375.232 425.34v-4.156M374.476 420.428h-40.054M375.232 421.184v-32.875M375.232 388.309h-2.646M365.457 388.309h-2.268M333.666 389.443v29.852M334.8 420.428h28.39M364.324 419.294v-29.852M363.19 388.309H334.8M373.72 389.443v29.852M372.586 420.428h-7.129M364.324 419.294v-29.852M365.457 388.309h7.129M368.43 419.294v-29.852M334.422 426.096a.757.757 0 01-.756-.756M375.232 425.34a.757.757 0 01-.756.756M374.476 420.428c.417 0 .756.338.756.756M333.666 421.184c0-.418.339-.756.756-.756M334.8 420.428a1.134 1.134 0 01-1.134-1.134M364.324 419.294c0 .626-.507 1.134-1.134 1.134M363.19 388.309c.627 0 1.134.508 1.134 1.134M333.666 389.443c0-.626.508-1.134 1.134-1.134M373.72 419.294c0 .626-.508 1.134-1.134 1.134M365.457 420.428a1.134 1.134 0 01-1.134-1.134M364.324 389.443c0-.626.508-1.134 1.134-1.134M372.586 388.309c.626 0 1.134.508 1.134 1.134M369.564 420.428a1.134 1.134 0 01-1.134-1.134M368.43 389.443c0-.626.508-1.134 1.134-1.134M333.666 308.958H295.88M333.666 308.958v2.645M295.88 308.958v2.645M333.666 318.732V321M295.88 318.732V321M297.014 350.523h35.519M333.666 349.389v-28.39M332.533 319.865h-35.519M295.88 320.999v28.39M297.014 310.469h35.519M333.666 311.603v7.129M332.533 319.865h-35.519M295.88 318.732v-7.129M332.533 315.759h-35.519M333.666 349.389c0 .626-.508 1.134-1.134 1.134M332.533 319.865c.626 0 1.134.508 1.134 1.134M295.88 320.999c0-.626.508-1.134 1.134-1.134M297.014 350.523a1.134 1.134 0 01-1.134-1.134M332.533 310.469c.626 0 1.134.508 1.134 1.134M333.666 318.732c0 .626-.508 1.134-1.134 1.134M297.014 319.865a1.134 1.134 0 01-1.134-1.134M295.88 311.603c0-.626.508-1.134 1.134-1.134M333.666 314.626c0 .626-.508 1.133-1.134 1.133M297.014 315.759a1.134 1.134 0 01-1.134-1.133M96.155 26.505v56.491M80.662 26.505v56.491M96.155 82.996H80.662M96.155 26.505H80.662M95.021 31.937v17.382M95.021 49.319H83.307M83.307 49.319v-3.533m0-2.645v-2.06m0-.907v-2.058m0-2.646v-3.533M83.307 31.937h11.714M95.021 60.182v17.383M95.021 77.565H83.307M83.307 77.565v-3.534m0-2.645v-2.059m0-.908v-2.058m0-2.646v-3.533M83.307 60.182h11.714M86.97 41.081a1.133 1.133 0 01-2.079 0h2.079zm-2.079-.907a1.134 1.134 0 012.077 0h-2.077zM86.969 69.327a1.133 1.133 0 01-2.079 0h2.079zm-2.078-.908a1.134 1.134 0 012.077 0h-2.077zM81.191 41.081v-.907m0 0h7.748m0 0l.301.257m0 0v.394m0 0l-.301.256m0 0h-7.748M81.191 39.872v1.512m0 0h-.264m0 0v-1.512m0 0h.264M80.927 39.494v2.268m0 0h-.266m0 0v-2.268m0 0h.266M82.551 37.36h-1.624m0 0v.094m0 0h-.133m0 0v.284m0 0h-.133m0 0v-1.89m0 0h.133m0 0v.283m0 0h.133m0 0v.095m0 0h1.624m0 0v.322m0 0h.416m0 0V35.47m0 0h.491m0 0v2.646m0 0h-.491m0 0v-1.077m0 0h-.416m0 0v.321M82.551 43.897h-1.624m0 0v-.095m0 0h-.133m0 0v-.283m0 0h-.133m0 0v1.889m0 0h.133m0 0v-.282m0 0h.133m0 0v-.096m0 0h1.624m0 0v-.321m0 0h.416m0 0v1.077m0 0h.491m0 0v-2.645m0 0h-.491m0 0v1.077m0 0h-.416m0 0v-.321M81.191 69.326v-.906m0 0h7.748m0 0l.301.256m0 0v.394m0 0l-.301.256m0 0h-7.748M81.191 68.117v1.512m0 0h-.264m0 0v-1.512m0 0h.264M80.927 67.74v2.268m0 0h-.266m0 0V67.74m0 0h.266M82.551 65.605h-1.624m0 0v.095m0 0h-.133m0 0v.283m0 0h-.133m0 0v-1.89m0 0h.133m0 0v.284m0 0h.133m0 0v.094m0 0h1.624m0 0v.322m0 0h.416m0 0v-1.078m0 0h.491m0 0v2.646m0 0h-.491m0 0v-1.077m0 0h-.416m0 0v.321M82.551 72.142h-1.624m0 0v-.095m0 0h-.133m0 0v-.283m0 0h-.133m0 0v1.889m0 0h.133m0 0v-.283m0 0h.133m0 0v-.094m0 0h1.624m0 0v-.322m0 0h.416m0 0v1.078m0 0h.491m0 0v-2.646m0 0h-.491m0 0v1.077m0 0h-.416m0 0v-.321M82.967 36.547l.072.072M82.967 37.038l.072-.072M82.551 36.547v.491M80.927 36.226v1.134M80.794 37.453v-1.322M82.967 44.709l.072-.072M82.967 44.218l.072.071M82.551 44.709v-.491M80.927 45.03v-1.133M80.794 43.802v1.323M82.967 64.792l.072.072M82.967 65.283l.072-.072M82.551 64.792v.491M80.927 64.471v1.134M80.794 65.699v-1.322M82.967 72.954l.072-.072M82.967 72.463l.072.072M82.551 72.954v-.491M80.927 73.276v-1.134M80.794 72.047v1.322M83.458 36.792a.246.246 0 11-.492 0 .246.246 0 01.492 0zM83.458 44.463a.246.246 0 11-.492 0 .246.246 0 01.492 0zM83.458 65.037a.245.245 0 11-.49.002.245.245 0 01.49-.002zM83.458 72.708a.246.246 0 11-.492 0 .246.246 0 01.492 0zM251.267 245.855v-22.672m0 0H229.54m0 0v22.672m0 0h21.727M236.782 234.519h7.243M237.843 237.079l5.121-5.121M240.403 238.14v-7.242M242.964 237.079l-5.121-5.121M283.491 168.393h21.916m.001 0v-18.516m0 0h-21.916m-.001 0v18.516M294.449 157.114v-5.299M294.449 151.815h1.097M294.449 157.114h1.097M303.303 157.114v-5.299M302.207 151.815h1.096M302.207 157.114h1.096M290.943 154.247a2.74 2.74 0 11-5.479 0 2.74 2.74 0 015.479 0zM293.442 162.486a3.968 3.968 0 11-7.936 0 3.968 3.968 0 017.936 0z"/><path class="st2" d="M291.741 162.486a2.268 2.268 0 11-4.536-.002 2.268 2.268 0 014.536.002zM301.521 154.432a2.646 2.646 0 11-5.291 0 2.646 2.646 0 015.291 0zM303.395 163.024a3.4 3.4 0 11-6.802-.002 3.4 3.4 0 016.802.002zM277.151 170.471h34.597M277.151 147.799h34.597M277.151 170.471v-22.672M311.747 170.471v-22.672M248.906 221.483v-19.271m0 0l-.222-.535m-.001 0l-.534-.22m.001 0h-17.382m0 0l-.534.22m0 0l-.222.535m0 0v19.271m0 0l.222.534m0 0l.534.222m0 0h17.382m0 0l.534-.222m-.001 0l.222-.534M251.267 223.183v-22.672M229.54 223.183v-22.672M251.267 223.183H229.54M251.267 200.511H229.54M247.016 219.593v-15.492M246.261 203.345h-11.715M233.79 204.101v15.492M234.546 220.349h11.715M247.016 219.593h.108a.108.108 0 00-.108-.108.108.108 0 10.108.108h-.108zM246.261 203.345c.417 0 .755.339.755.756M233.79 204.101c0-.417.339-.756.756-.756M234.546 220.349a.756.756 0 01-.756-.756M247.016 219.593a.755.755 0 01-.755.756M238.623 212.187l.24-.1m0 0l.099-.241m0 0l-.1-.24m0 0l-.241-.099m0 0h-7.476m0 0l-.24.1m0 0l-.099.24m0 0l.099.24m0 0l.24.1m0 0h7.478M233.074 212.602v-.415m0 0h-1.928m-.001 0l-.24-.1m.001 0l-.1-.24m0 0l.1-.24m0 0l.24-.1m-.001 0h1.928m.001 0v-.414m0 0h-2.457m0 0v1.509m0 0h2.457M234.433 212.591v-.404m0 0h-1.322m0 0v.404m0 0h1.322M234.433 211.103h-1.322m0 0v.404m0 0h1.322m0 0v-.404M251.267 200.511v-22.672M229.54 200.511v-22.672M251.267 200.511H229.54M251.267 177.839H229.54M121.471 232.629a7.18 7.18 0 11-14.36 0 7.18 7.18 0 0114.36 0zM98.799 232.629a7.18 7.18 0 11-14.36 0 7.18 7.18 0 0114.36 0zM246.228 192.332a3.41 3.41 0 11-6.822 0 3.41 3.41 0 016.822 0z"/><path class="st2" d="M245.707 192.332a2.891 2.891 0 11-5.782 0 2.891 2.891 0 015.782 0zM246.228 186.024a2.578 2.578 0 11-5.158 0 2.579 2.579 0 115.158 0z"/><path class="st2" d="M245.094 186.024a1.445 1.445 0 11-2.89 0 1.445 1.445 0 012.89 0zM274.884 20.837a3.78 3.78 0 11-7.558 0 3.78 3.78 0 017.558 0z"/><path class="st2" d="M272.238 20.837a1.134 1.134 0 11-2.269 0 1.134 1.134 0 012.269 0zM363.681 20.837a3.778 3.778 0 11-7.557.001 3.778 3.778 0 017.557-.001z"/><path class="st2" d="M361.036 20.837a1.134 1.134 0 11-2.269 0 1.134 1.134 0 012.269 0zM140.742 352.713a3.779 3.779 0 11-7.558 0 3.779 3.779 0 017.558 0z"/><path class="st2" d="M138.097 352.713a1.134 1.134 0 11-2.267.001 1.134 1.134 0 012.267-.001zM140.742 441.511a3.778 3.778 0 11-7.56 0 3.778 3.778 0 017.56 0z"/><path class="st2" d="M138.097 441.511a1.134 1.134 0 11-2.267.001 1.134 1.134 0 012.267-.001zM22.849 352.318a3.778 3.778 0 11-7.557 0 3.778 3.778 0 017.557 0z"/><path class="st2" d="M20.204 352.318a1.134 1.134 0 11-2.269 0 1.134 1.134 0 012.269 0zM22.849 441.115a3.778 3.778 0 11-7.557 0 3.778 3.778 0 017.557 0z"/><path class="st2" d="M20.204 441.115a1.134 1.134 0 11-2.269 0 1.134 1.134 0 012.269 0zM281.496 90.742h68.015m0 0V15.169m0 0h-68.015m0 0v75.573M283.386 92.631h64.236m0 0l.723-.144m0 0l.613-.409m0 0l.409-.613m0 0l.144-.723m0 0h-68.015m0 0l.144.723m0 0l.409.613m0 0l.613.409m0 0l.724.144M281.496 11.391h68.015m0 0v3.778m0 0h-68.015m0 0v-3.778M349.511 11.391h-68.015m0 0v1.89m0 0h68.015m0 0v-1.89M351.401 11.391h17.004m0 0v18.893m0 0h-17.004m0 0V11.391M279.607 11.391h-17.004m0 0v18.893m0 0h17.004m0 0V11.391M321.55 17.059h25.694m0 0l.267.11m0 0l.111.268m0 0v12.47m0 0l-.111.266m0 0l-.267.111m0 0H321.55m0 0l-.268-.111m0 0l-.111-.266m0 0v-12.47m0 0l.111-.268m0 0l.268-.11M309.458 17.059h-25.695m0 0l-.267.11m0 0l-.11.268m0 0v12.47m0 0l.11.266m0 0l.267.111m0 0h25.695m0 0l.267-.111m0 0l.111-.266m0 0v-12.47m0 0l-.111-.268m0 0l-.267-.11M281.496 29.26h1.89M309.836 29.26h11.335M347.622 29.26h1.889M281.496 34.27h68.015m0 0v18.686m0 0l-68.015-14.907m0 0V34.27M216.693 11.391h22.672m0 0v81.618m0 0h-22.672m0 0V11.391M228.407 93.009h-.756m0 0V11.391m0 0h.756m0 0v81.618M237.362 13.617h-18.626m.001 0v.756m0 0h18.626m-.001 0v-.756M237.362 15.62h-18.626m.001 0v.756m0 0h18.626m-.001 0v-.756M237.362 17.625h-18.626m.001 0v.756m0 0h18.626m-.001 0v-.756M237.362 19.63h-18.626m.001 0v.756m0 0h18.626m-.001 0v-.756M237.228 23.876l-18.491-2.241m0 0l-.091.75m0 0l18.491 2.241m0 0l.091-.75M80.662 216.759v-22.671m0 0h68.771m0 0v22.671m0 0H80.662M149.433 205.045v.756m0 0H80.662m0 0v-.756m0 0h68.771M88.099 214.766V196.14m0 0h.756m0 0v18.626m0 0h-.756M90.104 214.766V196.14m0 0h.755m0 0v18.626m0 0h-.755M92.109 214.766V196.14m0 0h.755m0 0v18.626m0 0h-.755M94.112 214.766V196.14m0 0h.756m0 0v18.626m0 0h-.756M98.359 214.631l-2.241-18.491m0 0l.75-.091m0 0l2.241 18.491m0 0l-.75.091M176.639 318.404v-22.672m0 .001h64.237m0 0v22.672m0-.001h-64.237M240.876 306.691v.756m0 0h-64.237m0 0v-.756m0 0h64.237M184.075 316.411v-18.626m0 0h.756m0 0v18.626m0 0h-.756M186.08 316.411v-18.626m0 0h.756m0 0v18.626m0 0h-.756M188.085 316.411v-18.626m0 0h.756m0 0v18.626m0 0h-.756M190.09 316.411v-18.626m0 0h.756m0 0v18.626m0 0h-.756M194.336 316.276l-2.241-18.49m0 0l.75-.091m0 0l2.241 18.49m0 0l-.75.091M9.623 338.053v-22.672m0 0h67.638m0 0v22.672m0 0H9.623M77.261 326.34v.755m0 0H9.623m0 0v-.755m0 0h67.638M17.061 336.061v-18.627m0 0h.756m0 0v18.627m0 0h-.756M19.066 336.061v-18.627m0 0h.755m0 0v18.627m0 0h-.755M21.07 336.061v-18.627m0 0h.756m0 0v18.627m0 0h-.756M23.075 336.061v-18.627m0 0h.756m0 0v18.627m0 0h-.756M27.321 335.925l-2.241-18.491m-.001 0l.75-.09m.001 0l2.241 18.49m0 0l-.75.091M206.868 431.119v-68.015m0 0h-75.572m.001 0v68.015m0 0h75.572M208.757 429.231v-64.236m0 0l-.144-.724m0 0l-.409-.613m0 0l-.613-.409m0 0l-.723-.144m0 0v68.015m0 0l.723-.144m0 0l.613-.409m0 0l.409-.613m0 0l.144-.723M127.517 431.119v-68.015m0 0h3.779m0 0v68.015m0 0h-3.779M127.517 363.105v68.015m0 0h1.89m0 0v-68.015m0 0h-1.89M127.517 361.215v-17.004m0 0h18.894m0 0v17.004m0 0h-18.894M127.517 433.009v17.004m0 0h18.894m0 0v-17.004m0 0h-18.894M133.185 391.067v-25.695m0 0l.11-.267m0 0l.268-.11m0 0h12.47m0 0l.266.11m0 0l.112.267m0 0v25.695m0 0l-.112.267m0 0l-.266.111m0 0h-12.47m0 0l-.268-.111m0 0l-.11-.267M133.185 403.158v25.694m0 0l.11.268m0 0l.268.11m0 .001h12.47m0 0l.266-.11m0-.001l.112-.268m0 0v-25.694m0 0l-.112-.268m0 0l-.266-.11m0 .001h-12.47m0 0l-.268.11m0-.001l-.11.268M145.386 431.119v-1.889M145.386 402.781v-11.337M145.386 364.994v-1.89M150.396 431.119v-68.015m0 0h18.686m0 0l-14.907 68.015m0 0h-3.779M88.975 430.724v-68.015m0 0H13.403m0 0v68.015m0 0h75.572M90.865 428.835v-64.237m0 0l-.144-.723m0 0l-.41-.613m0 0l-.613-.409m0 0l-.723-.144m0 0v68.015m0 0l.723-.144m0 0l.613-.409m0 0l.41-.613m0 0l.144-.723M9.623 430.724v-68.015m0 0h3.779m0 0v68.015m0 0H9.623M9.623 362.709v68.015m0 0h1.89m0 0v-68.015m0 0h-1.89M9.623 360.82v-17.004m0 0h18.894m0 0v17.004m0 0H9.623M9.623 432.613v17.004m0 .001h18.894m0 0v-17.004m0-.001H9.623M15.292 390.671v-25.695m0 0l.11-.267m0 0l.267-.111m0 0h12.47m0 0l.267.111m0 0l.111.267m0 0v25.695m0 0l-.111.267m0 0l-.267.111m0 0h-12.47m0 0l-.267-.111m0 0l-.11-.267M15.292 402.762v25.695m0 0l.11.267m0 0l.267.111m0 0h12.47m0 0l.267-.111m0 0l.111-.267m0 0v-25.695m0 0l-.111-.267m0 0l-.267-.111m0 0h-12.47m0 0l-.267.111m0 0l-.11.267M27.493 430.724v-1.889M27.493 402.384v-11.335M27.493 364.598v-1.889M32.503 430.724v-68.015m0 0h18.686m0 0l-14.908 68.015m0 0h-3.778M261.113 411.104h-1.021m-.001 0v-44.369m0 0h1.021m.001 0v44.369M260.092 409.7l-3.409.71m0-.001l.14.68m0 0l3.269-.68m0 0v-.71M260.092 401.403h-.832m0 0l-.567-.152m0 0l-.414-.415m0 0l-.153-.567m0-.001v-22.699m0 0l.153-.567m0 .001l.414-.414m0 0l.567-.153m0 0h.832m0 0v24.967M261.469 409.7l3.41.71m0-.001l-.141.68m0 0l-3.269-.68m0 0v-.71M260.092 368.139l-3.409-.71m0 0l.14-.68m0 0l3.269.68m0 0v.71M261.41 368.139l3.41-.71m-.001 0l-.14-.68m0 0l-3.27.68m.001 0v.71M261.41 411.104h-.297m0 0v-44.369m0 0h.297m0 0v44.369M120.3 232.114l-1.233.449m0 0h-1.313m0 0l-1.233-.449m0 0l-1.473.343m0 0h-1.513m0 0l-1.472-.343m0 0l-1.236.45m0-.001h-1.313m0 0l-1.235-.45m0 .001l2.232 2.987m0-.001h7.558m0 0l2.231-2.987M118.069 235.363h-7.558m0 0v-.263m0 0h7.558m0 0v.262M118.069 235.886h-7.558m0 0v-.262m0 0h7.558m0 0v.262M113.448 230.598l.891-.084m.001 0l.021.225m0 0l-.476.046m0 0l1.383 1.142m-.001 0l-.126.152m.001 0l-.642-.53m0 0l-.067.082m0 0l.74.611m-.001 0l-.121.146m0 0l-.74-.61m.001 0l-.08.096m0 0l.601.497m0 0l-.108.13m0 0l-.601-.497m0 0l-.08.098m-.001 0l.414.343m.001 0l-.115.139m-.001 0l-1.422-1.174M125.627 221.293h-22.672m0 0v22.672m0 0h22.672m0 0v-22.672M97.628 232.114l-1.233.449m0 0h-1.313m0 0l-1.232-.449m0 0l-1.474.343m0 0h-1.513m0 0l-1.472-.343m0 0l-1.235.45m0-.001h-1.314m0 0l-1.235-.45m0 .001l2.232 2.987m0-.001h7.558m0 0l2.231-2.987M95.397 235.363h-7.558m0 0v-.263m0 0h7.558m0 0v.262M95.397 235.886h-7.558m0 0v-.262m0 0h7.558m0 0v.262M90.777 230.598l.891-.084m0 0l.021.225m0 0l-.476.046m0 0l1.383 1.142m0 0l-.126.152m0 0l-.642-.53m0 0l-.067.082m0 0l.74.611m0 0l-.121.146m0 0l-.74-.61m0 0l-.08.096m0 0l.602.497m0 0l-.109.13m0 0l-.6-.497m0 0l-.081.098m0 0l.414.343m0 0l-.115.139m0 0l-1.422-1.174M102.955 221.293H80.284m0 0v22.672m0 0h22.671m0 0v-22.672M24.738 253.789H9.624m0 0v-20.404m0 0h15.115m-.001 0v20.404M80.285 245.855h69.148m0 0v-1.89m0 0H80.285m0 0v1.89M245.024 196.401v-.963m0 0h1.204m0 0v-12.524m0 0h-1.204m0 0v-.964M235.02 194.937v-9.634m0 0h.478m0 0v.723m0 0h-.237m0 0v8.188m0 0h.237m0 0v.723m0 0h-.478M235.497 185.303l.104.048m.103.047l.103.047m.103.046l.104.048m.102.047l.104.047m.102.047l.104.048m.102.047l.104.047m.102.047l.104.047m.103.047l.103.048m.103.047l.103.047m.103.047l.103.047m.104.047l.102.047m.104.047l.103.048m.103.047l.103.047m.103.048l.103.046m.103.047l.103.047m.103.048l.103.047m.104.047l.102.048M235.497 194.937v-.078m0-.113v-.114m0-.113v-.113m0-.114v-.078m0 0l.052-.041m.088-.072l.089-.071m.087-.072l.088-.071m.088-.071l.088-.072m.088-.072l.088-.071m.088-.071l.088-.072m.089-.071l.087-.072m.088-.071l.088-.072m.088-.071l.088-.071m.089-.072l.087-.071m.089-.072l.087-.071m.088-.072l.088-.071m.088-.071l.088-.072m.088-.072l.088-.071m.088-.071l.089-.072m.087-.071l.088-.071m.088-.072l.088-.072m.088-.071l.088-.071m.088-.072l.089-.071m.088-.071l.087-.072m.088-.072l.088-.071m.088-.071l.088-.072m.088-.072l.052-.041M235.497 185.303v.078m0 .113v.114m0 .113v.113m0 .114v.078m0 0l.052.042m.088.071l.089.071m.087.072l.088.072m.088.071l.088.071m.088.072l.088.071m.088.071l.088.072m.089.072l.087.071m.088.071l.088.072m.088.071l.088.072m.089.071l.087.072m.089.071l.087.071m.088.072l.088.071m.088.072l.088.071m.088.072l.088.071m.088.071l.089.072m.087.071l.088.072m.088.071l.088.072m.088.071l.088.071m.088.073l.089.071m.088.071l.087.071m.088.072l.088.071m.088.071l.088.073m.088.071l.052.042M251.267 177.839H229.54m0 0v-14.736m0 0h24.939m0 0v-15.304m0 0h22.672m0 0v22.672m0 0h-25.884m0 0v7.368M357.069 170.471h22.672m0 0v-22.672m0 0h-22.672m0 0v22.672M334.397 170.471h22.672m0 0v-22.672m0 0h-22.672m0 0v22.672M311.725 170.471h22.672m0 0v-22.672m0 0h-22.672m0 0v22.672M267.425 21.698l3.68-.86m0 0l1.584-3.431m0-.001l-1.584 3.431m0 .001l1.306 3.546M363.582 21.698l-3.68-.86m0 0l-1.583-3.431m0-.001l1.583 3.431m0 .001l-1.305 3.546M136.103 349.033l.861 3.68m0 .001l3.431 1.584m0 0l-3.431-1.584m0 0l-3.547 1.306M136.103 445.191l.861-3.68m0 0l3.431-1.583m0 0l-3.431 1.583m0 0l-3.547-1.305M18.21 348.638l.86 3.68m0 0l3.431 1.584m0 0l-3.431-1.584m0 0l-3.546 1.305M18.21 444.795l.86-3.68m0 0l3.431-1.584m0 0l-3.431 1.584m0 0l-3.546-1.306M351.401 231.76h3.028m0 0v-.859m0 0v-17.175m0 0v-.859m0 0h-3.028M357.856 212.867h-3.427m0 0v.859m0 0h3.224m0 0v-.058m0 0l-.196-.294m0 0l.087-.342m0 0l.312-.165M360.216 213.668l-.197-.294m0 0l.087-.343m0 0l.312-.164m0 0h-2.561m0 0l-.313.164m0 0l-.087.343m0 0l.196.294m0 0v17.291m0 0l-.196.293m0 0l.087.343m0 0l.313.165m0 0h2.561m0 0l-.312-.165m0 0l-.087-.343m0 0l.197-.293m0 0v-17.291M357.856 231.76l-.312-.165m0 0l-.087-.342m0 0l.196-.294m0 0v-.058m0 0h-3.224m0 0v.859m0 0h3.427M360.621 230.096l.225-1.004v-13.557l-.225-1.004zM360.621 214.531v15.566m0-.001l.227-1.005m0 .001v-13.556m0-.001l-.227-1.005M360.621 213.668l.196-.294m0 0l-.087-.343m0 0l-.312-.164m0 0l-.313.164m0 0l-.087.343m0 0l.198.294m0 0v17.291m0 0l-.198.293m0 0l.087.343m0 0l.313.165m0 0l.312-.165m0 0l.087-.343m0 0l-.196-.293m0 0v-17.291M351.401 253.676h3.028m0 0v-.859m0 .001v-17.175m0-.001v-.859m0 .001h-3.028M357.856 234.784h-3.427m0 0v.859m0-.001h3.224m0 0v-.058m0 .001l-.196-.293m0-.001l.087-.343m0 .001l.312-.165M360.216 235.585l-.197-.293m0 0l.087-.343m0 0l.312-.165m0 0h-2.561m0 0l-.313.165m0 0l-.087.343m0 0l.196.293m0 0v17.291m0 0l-.196.293m0 0l.087.343m0 0l.313.165m0 0h2.561m0 0l-.312-.165m0 0l-.087-.343m0 0l.197-.293m0 0v-17.291M357.856 253.676l-.312-.165m0 0l-.087-.342m0 .001l.196-.294m0-.001v-.058m0 .001h-3.224m0 0v.859m0-.001h3.427M360.621 252.013l.225-1.005v-13.555l-.225-1.006zM360.621 236.447v15.566m0 0l.227-1.005m0 0v-13.556m0 0l-.227-1.005M360.621 235.585l.196-.293m0 0l-.087-.343m0 0l-.312-.165m0 0l-.313.165m0 0l-.087.343m0 0l.198.293m0 0v17.291m0 0l-.198.293m0 0l.087.343m0 0l.313.165m0 0l.312-.165m0 0l.087-.343m0 0l-.196-.293m0 0v-17.291M317.393 231.76h-3.027m0 0v-.859m0 0v-17.175m0 0v-.859m0 0h3.027M308.579 213.668l.196-.294m0 0l-.087-.343m0 0l-.312-.164m0 0h2.561m0 0l.313.164m0 0l.087.343m0 0l-.196.294m0 0v17.291m0 0l.196.293m0 0l-.087.343m0 0l-.313.165m0 0h-2.561m0 0l.312-.165m0 0l.087-.343m0 0l-.196-.293m0 0v-17.291M310.937 231.76l.312-.165m0 0l.087-.342m0 0l-.196-.294m0 0v-.058m0 0h3.225m0 0v.859m0 0h-3.428M307.946 215.535v13.558l.227 1.003v-15.565zM308.173 214.531v15.566m0-.001l-.227-1.005m0 .001v-13.556m0-.001l.227-1.005M308.173 213.668l-.196-.294m0 0l.087-.343m0 0l.312-.164m0 0l.313.164m0 0l.087.343m0 0l-.197.294m0 0v17.291m0 0l.197.293m0 0l-.087.343m0 0l-.313.165m0 0l-.312-.165m0 0l-.087-.343m0 0l.196-.293m0 0v-17.291M317.393 253.676h-3.027m0 0v-.859m0 .001v-17.175m0-.001v-.859m0 .001h3.027M310.937 234.784h3.428m0 0v.859m0-.001h-3.225m0 0v-.058m0 .001l.196-.293m0-.001l-.087-.343m0 .001l-.312-.165M308.579 235.585l.196-.293m0 0l-.087-.343m0 0l-.312-.165m0 0h2.561m0 0l.313.165m0 0l.087.343m0 0l-.196.293m0 0v17.291m0 0l.196.293m0 0l-.087.343m0 0l-.313.165m0 0h-2.561m0 0l.312-.165m0 0l.087-.343m0 0l-.196-.293m0 0v-17.291M310.937 253.676l.312-.165m0 0l.087-.342m0 .001l-.196-.294m0-.001v-.058m0 .001h3.225m0 0v.859m0-.001h-3.428M307.946 237.452v13.556l.227 1.005v-15.566zM308.173 236.447v15.566m0 0l-.227-1.005m0 0v-13.556m0 0l.227-1.005M308.173 235.585l-.196-.293m0 0l.087-.343m0 0l.312-.165m0 0l.313.165m0 0l.087.343m0 0l-.197.293m0 0v17.291m0 0l.197.293m0 0l-.087.343m0 0l-.313.165m0 0l-.312-.165m0 0l-.087-.343m0 0l.196-.293m0 0v-17.291M351.401 256.7h3.028m0 0v.859m0 0v17.175m0 0v.859m0 0h-3.028M357.856 275.593h-3.427m0 0v-.859m0 0h3.224m0 0v.058m0 0l-.196.293m0 0l.087.343m0 0l.312.165M360.216 274.792l-.197.293m0 0l.087.343m0 0l.312.165m0 0h-2.561m0 0l-.313-.165m0 0l-.087-.343m0 0l.196-.293m0 0v-17.291m0 0l-.196-.293m0 0l.087-.343m0 0l.313-.165m0 0h2.561m0 0l-.312.165m0 0l-.087.343m0 0l.197.293m0 0v17.291M357.856 256.7l-.312.165m0 0l-.087.342m0 0l.196.294m0 0v.058m0 0h-3.224m0 0v-.859m0 0h3.427M360.621 273.929l.225-1.004v-13.557l-.225-1.004zM360.621 273.929v-15.565m0 0l.227 1.004m0 0v13.557m0 0l-.227 1.004M360.621 274.792l.196.293m0 0l-.087.343m0 0l-.312.165m0 0l-.313-.165m0 0l-.087-.343m0 0l.198-.293m0 0v-17.291m0 0l-.198-.293m0 0l.087-.343m0 0l.313-.165m0 0l.312.165m0 0l.087.343m0 0l-.196.293m0 0v17.291M317.393 256.7h-3.027m0 0v.859m0 0v17.175m0 0v.859m0 0h3.027M310.937 275.593h3.428m0 0v-.859m0 0h-3.225m0 0v.058m0 0l.196.293m0 0l-.087.343m0 0l-.312.165M308.579 274.792l.196.293m0 0l-.087.343m0 0l-.312.165m0 0h2.561m0 0l.313-.165m0 0l.087-.343m0 0l-.196-.293m0 0v-17.291m0 0l.196-.293m0 0l-.087-.343m0 0l-.313-.165m0 0h-2.561m0 0l.312.165m0 0l.087.343m0 0l-.196.293m0 0v17.291M310.937 256.7l.312.165m0 0l.087.342m0 0l-.196.294m0 0v.058m0 0h3.225m0 0v-.859m0 0h-3.428M307.946 259.368v13.557l.227 1.004v-15.565zM308.173 273.929v-15.565m0 0l-.227 1.004m0 0v13.557m0 0l.227 1.004M308.173 274.792l-.196.293m0 0l.087.343m0 0l.312.165m0 0l.313-.165m0 0l.087-.343m0 0l-.197-.293m0 0v-17.291m0 0l.197-.293m0 0l-.087-.343m0 0l-.313-.165m0 0l-.312.165m0 0l-.087.343m0 0l.196.293m0 0v17.291M317.394 283.83h34.008m-.001 0v-79.352m0 0h-34.008m.001 0v79.352M310.938 212.867h3.428m0 0v.859m0 0h-3.225m0 0v-.058m0 0l.196-.293m0 0l-.087-.343m0 0l-.312-.165"/></g><g id="walls_1_"><path class="st3" d="M395.177 34.214h-15.492M402.735 34.214h-5.668M397.067 34.214h-1.89M395.177 100.34h-15.492M402.735 100.34h-5.668M397.067 100.34h-1.89M402.735 100.34V34.214M379.685 100.34V34.214M395.177 100.34v-3.778M395.177 96.562h1.89M397.067 96.562v3.778M397.067 62.554v1.889M397.067 64.443h-1.89M395.177 64.443v-1.889M396.122 96.562V64.443M395.177 96.562V64.443M397.067 64.443v32.119M395.177 62.554v-.945M395.177 61.609h.944M396.122 61.609v-.944M396.122 60.665h.945M397.067 60.665v1.89M397.067 34.214v3.778M397.067 37.993h-.945M396.122 37.993v-.944M396.122 37.048h-.944M395.177 37.048v-2.834M397.067 37.993v22.672M394.233 58.775V39.882M394.233 61.609v-2.834M394.233 58.775h1.889M396.122 58.775v2.834M396.122 61.609h-1.889M396.122 37.048v2.834M396.122 39.882h-1.889M394.233 39.882v-2.834M394.233 37.048h1.889M396.122 39.882v18.893M394.233 58.775V39.882M395.177 58.775V39.882M397.067 100.34h-1.89M397.067 100.34h-1.89M402.735 100.34h-5.668M395.177 100.34h-15.492M397.067 34.214h-1.89M397.067 34.214h-1.89M402.735 34.214h-5.668M395.177 34.214h-15.492M402.735 100.34h-23.05"/><g><path class="st3" d="M395.177 174.023h-15.492M402.735 174.023h-5.668M397.067 174.023h-1.89M395.177 257.154h-15.492M402.735 257.154h-5.668M397.067 257.154h-1.89M402.735 257.154v-83.131M379.685 257.154v-83.131M395.177 257.154v-3.779M395.177 253.374h1.89M397.067 253.374v3.779M397.067 202.364v1.889M397.067 204.252h-1.89M395.177 204.252v-1.889M396.122 253.374v-49.122M395.177 253.374v-49.122M397.067 204.252v49.122M395.177 202.364v-.945M395.177 201.419h.944M396.122 201.419v-.945M396.122 200.474h.945M397.067 200.474v1.89M397.067 174.023v3.779M397.067 177.802h-.945M396.122 177.802v-.945M396.122 176.857h-.944M395.177 176.857v-2.834M397.067 177.802v22.672M394.233 198.584v-18.893M394.233 201.419v-2.835M394.233 198.584h1.889M396.122 198.584v2.835M396.122 201.419h-1.889M396.122 176.857v2.835M396.122 179.692h-1.889M394.233 179.692v-2.835M394.233 176.857h1.889M396.122 179.692v18.893M394.233 198.584v-18.893M395.177 198.584v-18.893M397.067 257.154h-1.89M397.067 257.154h-1.89M402.735 257.154h-5.668M395.177 257.154h-15.492M397.067 174.023h-1.89M397.067 174.023h-1.89M402.735 174.023h-5.668M395.177 174.023h-15.492M379.685 257.154h23.05"/></g><g><path class="st3" d="M160.991 56.244c4.295-1.601 6.481-2.033 11.058-2.268"/><path class="st4" d="M160.891 56.285l11.158 25.805 1.512-.001v-.453l-11.283-25.95z"/><path class="st5" d="M55.975 151.544c6.027-2.247 9.139-2.871 15.563-3.198"/><path class="st4" d="M55.88 151.585l15.658 36.209 1.511-.001v-.453l-15.782-36.355z"/><g><path class="st5" d="M212.057 124.812c1.819 4.872 2.312 7.364 2.577 12.559"/><path class="st4" d="M212.015 124.712l-29.272 12.658v1.512h.453l29.419-12.783z"/><g><path class="st5" d="M118.319 151.459c-1.603-4.296-2.036-6.485-2.27-11.065"/><path class="st4" d="M118.36 151.552l25.803-11.159-.001-1.51h-.453l-25.949 11.281z"/></g></g><g><path class="st5" d="M165.957 308.444c1.788-4.812 2.317-7.432 2.579-12.56"/><path class="st4" d="M165.916 308.542l.601-1.387-29.419-12.782h-.453v1.511z"/></g><g><path class="st5" d="M89.722 308.448c-1.788-4.815-2.318-7.433-2.578-12.563"/><path class="st4" d="M89.763 308.542l29.271-12.658v-1.511h-.453l-29.418 12.782z"/></g><g><path class="st5" d="M92.789 276.595c-4.871 1.817-7.367 2.312-12.559 2.578"/><path class="st4" d="M92.887 276.553l-12.658-29.272h-1.511v.454l12.781 29.418z"/></g></g><path d="M379.685 100.34h23.05v73.683h-23.05v-26.072H314.58v-10.58h65.104V100.34h.001zM80.45.584c0 49.242.157 98.785.157 148.215h-7.558v-.453h-1.511V.584h8.912zm165.96 0h156.325v33.631h-23.05V11.543H246.41V.584h0zM.5 208.976h71.038v-21.183h1.511v-.453h7.558l-.001 30.704H9.568V459.31h16.816v21.16H.5V208.976h0zm159.836.98v41.341h-10.958v-41.341h10.958zM317.338 480.47h-90.687v-21.16h90.687v21.16h0zm-156.813 0H92.508v-21.16h68.017v21.16h0zm242.21-152.468h-23.05v-70.85h23.05v70.85z" fill-rule="evenodd" clip-rule="evenodd" stroke="#000" stroke-linecap="round" stroke-linejoin="round" stroke-miterlimit="3"/><path class="st4" d="M240.821 325.038h10.958v39h-10.958z"/><path class="st0" d="M214.181 140.393h12.28l.001 105.614h3.023v-82.753h24.94v-15.303h60.155v-10.58h-99.945v1.511h-.454v1.511zm-77.083 152.468v1.512h-.453v1.511h-9.184V459.31h-3.022V295.884h-5.405v-1.511h-.453v-1.512h18.517zM80.45.5h165.959v11.043h-4.078v81.618h-3.022V11.543h-64.238v42.886h-1.511v-.453h-1.511V18.533h-75.95v8.124H80.607v-3.022h12.469V11.543H80.45V.5zm79.886 209.456h-10.958v-15.717h10.958v15.717zM172.05 11.543H96.099v3.967h75.951v-3.967zm79.352 136.408v12.28h-21.917v-12.28h21.917zM9.568 233.537v-3.022h20.216v-12.471h3.023v12.471h44.776v-12.471h3.023v29.237h-1.511v.454h-1.512v-14.198H9.568zm81.051-96.167v-51.2l61.593.001v51.2h-8.503v1.512h.453v1.51l39.034.001v-1.511h-.453v-1.511h-7.671V81.636h-1.511v.453h-1.511v1.058H80.608v3.023h6.989v51.201h-6.99v3.022h35.442v-1.51h.454v-1.512l-25.884-.001zm81.431-22.105v22.106h-16.815v-22.106h16.815zm-16.815-3.022h16.815V86.17h-16.815v26.073zm96.544 347.067h-10.958v-95.272h10.958v95.272zm-10.958-134.272v-29.154h-72.286v-1.511h-.453v-1.512h83.697v32.177h-10.958zM87.965 292.853h-7.368v-13.689h-1.511v-.453h-1.512v33.792l-68.005.008v3.022l68.005-.008v22.672h3.023v-42.321h6.915v-1.511h.453v-1.512zm61.789-74.809v-3.022H80.606v3.022h69.148z"/><g><path class="st5" d="M14.103 480.47h90.687m0 0v45.344m0 0H14.103m0 0V480.47M104.034 525.058H14.859m0 0V480.47m0 0h89.175m0 0v44.588"/><path class="st7" d="M395.178 410.99h1.89v5.133h-1.89zM395.178 367.632h1.89v5.133h-1.89z"/><path class="st5" d="M395.177 328.003h-15.492M402.735 328.003h-5.668M397.067 328.003h-1.89M402.735 328.003V480.47M379.685 328.003V459.31M395.177 328.003v4.723M395.177 332.726h1.89M397.067 332.726v-4.724M397.067 472.912v-4.722M397.067 468.19h-1.89M395.177 468.19v4.723M397.067 474.802v-1.89M395.177 332.726V468.19M397.067 468.19V332.726M397.067 328.003h-1.89M397.067 328.003h-1.89M402.735 328.003h-5.668M395.177 328.003h-15.492M317.338 472.912V459.31M317.338 480.47v-5.668M317.338 474.802v-1.89M317.338 480.47h85.396M317.338 459.31h62.347M317.338 472.912h4.724M322.061 472.912v1.89M322.061 474.802h-4.724M395.177 474.802h-4.724M390.454 474.802v-1.89M390.454 472.912h4.724M397.067 474.802h-1.89M322.061 472.912h68.393M390.454 474.802h-68.393M317.338 474.802v-1.89M317.338 474.802v-1.89M317.338 480.47v-5.668M317.338 472.912V459.31"/><g><path class="st5" d="M226.651 472.912V459.31M226.651 480.47v-5.668M226.651 474.802v-1.89M160.524 472.912V459.31M160.524 480.47v-5.668M160.524 474.802v-1.89M160.524 480.47h66.127M160.524 459.31h66.127M160.524 472.912h3.779M164.303 472.912v1.89M164.303 474.802h-3.779M198.311 474.802h-1.89M196.422 474.802v-1.89M196.422 472.912h1.889M164.303 473.858h32.118M164.303 472.912h32.118M196.422 474.802h-32.118M198.311 472.912h.944M199.256 472.912v.946M199.256 473.858h.944M200.2 473.858v.944M200.2 474.802h-1.889M226.651 474.802h-3.779M222.872 474.802v-.944M222.872 473.858h.945M223.817 473.858v-.945M223.817 472.912h2.834M222.872 474.802H200.2M202.089 471.968h18.894M199.256 471.968h2.833M202.089 471.968v1.89M202.089 473.858h-2.833M199.256 473.858v-1.89M223.817 473.858h-2.834M220.983 473.858v-1.89M220.983 471.968h2.834M223.817 471.968v1.89M220.983 473.858h-18.894M202.089 471.968h18.894M202.089 472.912h18.894M160.524 474.802v-1.89M160.524 474.802v-1.89M160.524 480.47v-5.668M160.524 472.912V459.31M226.651 474.802v-1.89M226.651 474.802v-1.89M226.651 480.47v-5.668M226.651 472.912V459.31M160.524 480.47v-21.16"/></g><g><path class="st5" d="M92.545 473.858v-1.889M26.419 473.858v-1.889M26.419 471.969h3.778M30.197 471.969v1.889M30.197 473.858h-3.778M57.593 473.858h-1.89M55.703 473.858v-1.889M55.703 471.969h1.89M30.197 472.914h25.506M30.197 471.969h25.506M55.703 473.858H30.197M57.593 471.969h.944M58.537 471.969v.944M58.537 472.914h.944M59.482 472.914v.944M59.482 473.858h-1.889M92.545 473.858h-3.779M88.766 473.858v-.944M88.766 472.914h.945M89.711 472.914v-.945M89.711 471.969h2.834M89.711 471.024l-22.043-22.043M88.766 473.858H59.482M61.371 471.024h25.506M58.537 471.024h2.834M61.371 471.024v1.89M61.371 472.914h-2.834M58.537 472.914v-1.891M89.711 472.914h-2.834M86.877 472.914v-1.891M86.877 471.024h2.834M89.711 471.024v1.89M86.877 472.914H61.371M61.371 471.024h25.506M58.537 471.024a31.171 31.171 0 019.131-22.043M26.419 473.858v-1.889M26.419 473.858v-1.889M92.545 473.858v-1.889M92.545 473.858v-1.889M61.371 471.969h25.506"/><g><path class="st5" d="M26.276 472.894v-13.635M26.276 480.47v-5.681M92.403 472.894v-13.635M92.403 480.47v-5.681M92.403 480.47H26.276M92.403 459.259H26.276M92.403 480.47v-7.576M92.403 472.894v-13.635M26.276 480.47v-5.681M26.276 472.894v-13.635M26.276 480.47v-21.211"/></g></g></g><g><path class="st8" d="M80.822.429l-.4.35M88.242.429l-7.82 6.89M95.672.429l-12.55 11.05M103.092.429l-12.54 11.05M110.512.429l-12.54 11.05M96.062 13.159l-3.02 2.66M84.252 23.569l-3.43 3.02M91.672 23.569l-3.43 3.02M100.902 15.439l-3.44 3.03M96.062 19.699l-3.02 2.66M117.942.429l-12.55 11.05M108.322 15.439l-3.44 3.03M96.062 26.239l-.4.35M125.362.429l-12.55 11.05M115.742 15.439l-3.44 3.03M132.782.429l-12.55 11.05M123.162 15.439l-3.44 3.03M140.202.429l-12.54 11.05M130.582 15.439l-3.44 3.03M147.622.429l-12.54 11.05M138.012 15.439l-3.44 3.03M155.052.429l-12.55 11.05M145.432 15.439l-3.44 3.03M162.472.429l-12.54 11.05M152.852 15.439l-3.44 3.03M169.892.429l-12.55 11.05M160.272 15.439l-3.44 3.03M83.492 83.079l-2.92 2.57M177.312.429l-12.54 11.05M167.692 15.439l-3.44 3.03M90.912 83.079l-3.43 3.02M184.732.429l-12.71 11.2M175.042 15.509l-3.36 2.96M192.162.429l-12.55 11.05M90.582 89.909l-3.02 2.66M98.342 83.079l-3.43 3.02M175.042 22.049l-3.02 2.66M199.582.429l-12.54 11.05M90.582 96.449l-3.02 2.66M105.762 83.079l-3.43 3.02M175.042 28.589l-3.02 2.66M207.002.429l-12.54 11.05M90.582 102.989l-3.02 2.66M113.182 83.079l-3.43 3.02M175.042 35.119l-3.02 2.66M214.422.429l-12.54 11.05M90.582 109.519l-3.02 2.66M120.602 83.079l-3.43 3.02M175.042 41.659l-3.02 2.66M221.842.429l-12.54 11.05M90.582 116.059l-3.02 2.66M128.022 83.079l-3.43 3.02M229.272.429l-12.55 11.05M175.042 48.199l-3.02 2.66M90.582 122.599l-3.02 2.66M135.452 83.079l-3.43 3.02M236.692.429l-12.54 11.05M90.582 129.139l-3.02 2.66M81.322 137.299l-.75.66M142.872 83.079l-3.43 3.02M244.112.429l-12.54 11.05M90.582 135.679l-5.28 4.65M150.292 83.079l-3.43 3.02M246.372 4.979l-7.38 6.5M96.162 137.299l-3.44 3.03M157.712 83.079l-5.53 4.87M242.302 15.109l-3.02 2.66M155.202 91.839l-3.02 2.66M103.592 137.299l-3.44 3.03M165.142 83.079l-3.43 3.02M242.302 21.639l-3.02 2.66M155.202 98.369l-3.02 2.66M111.012 137.299l-3.44 3.03M174.272 81.569l-5.14 4.53M242.302 28.179l-3.02 2.66M12.692 230.449l-3.16 2.78M116.012 139.429l-1.02.9M155.202 104.909l-3.02 2.66M175.042 87.429l-3.02 2.66M242.302 34.719l-3.02 2.66M20.112 230.449l-3.43 3.02M32.772 219.299l-3.02 2.66M155.202 111.449l-3.02 2.66M175.042 93.969l-3.02 2.66M242.302 41.259l-3.02 2.66M161.792 112.179l-3.43 3.02M32.772 225.839l-3.02 2.66M27.542 230.449l-3.43 3.02M155.202 117.989l-3.02 2.66M175.042 100.509l-3.02 2.66M242.302 47.799l-3.02 2.66M169.222 112.179l-3.43 3.02M34.962 230.449l-3.43 3.02M155.202 124.529l-3.02 2.66M175.042 107.049l-3.02 2.66M242.302 54.339l-3.02 2.66M155.202 131.059l-3.02 2.67M148.122 137.299l-3.44 3.03M42.382 230.449l-3.43 3.02M175.042 113.589l-3.02 2.66M242.302 60.869l-3.02 2.66M155.542 137.299l-3.44 3.03M49.802 230.449l-3.43 3.02M175.042 120.119l-3.02 2.66M242.302 67.409l-3.02 2.66M162.962 137.299l-3.44 3.03M57.222 230.449l-3.43 3.02M175.042 126.659l-3.02 2.66M175.042 133.199l-3.02 2.66M64.642 230.449l-3.42 3.02M78.802 217.979l-1.25 1.1M82.232 214.959l-1.66 1.46M170.392 137.299l-3.44 3.03M242.302 73.949l-3.02 2.66M177.812 137.299l-3.44 3.03M72.072 230.449l-3.43 3.02M89.652 214.959l-3.43 3.02M80.572 222.959l-3.02 2.66M242.302 80.489l-3.02 2.66M242.302 87.029l-3.02 2.66M183.162 139.119l-1.37 1.21M80.572 229.499l-4.51 3.97M97.072 214.959l-3.43 3.02M80.572 236.039l-3.02 2.66M104.492 214.959l-3.42 3.02M80.572 242.579l-3.02 2.66M111.922 214.959l-3.43 3.02M119.342 214.959l-3.43 3.02M214.922 137.299l-.32.28M150.362 194.169l-1.02.9M16.102 312.439l-3.44 3.03M126.762 214.959l-3.43 3.02M157.782 194.169l-8.44 7.44M23.522 312.439l-3.43 3.03M134.182 214.959l-3.43 3.02M222.342 137.299l-3.44 3.03M160.302 198.489l-10.96 9.66M30.952 312.439l-3.43 3.03M141.612 214.959l-3.43 3.02M229.772 137.299l-3.44 3.03M38.372 312.439l-3.43 3.03M149.032 214.959l-3.43 3.02M160.302 205.029l-5.51 4.86M237.192 137.299l-10.76 9.48M45.802 312.439l-3.43 3.03M80.562 281.819l-3.02 2.66M244.612 137.299l-12.01 10.58M229.452 150.659l-3.02 2.66M80.562 288.349l-3.02 2.66M53.212 312.439l-3.43 3.02M252.032 137.299l-12.01 10.58M229.452 157.189l-3.02 2.66M82.942 292.789l-5.4 4.76M60.632 312.439l-3.43 3.02M233.502 160.159l-3.44 3.03M259.452 137.299l-12.01 10.58M229.452 163.729l-3.02 2.66M68.062 312.439l-3.43 3.02M229.452 170.269l-3.02 2.66M254.392 148.299l-3.02 2.66M266.882 137.299l-12.01 10.58M240.932 160.159l-3.44 3.03M87.482 295.329l-.54.48M80.562 301.429l-3.02 2.66M75.482 312.439l-3.43 3.02M229.452 176.809l-3.02 2.66M254.392 154.839l-3.02 2.66M274.302 137.299l-12.01 10.58M248.352 160.159l-3.44 3.03M80.562 307.969l-3.02 2.66M80.562 314.509l-3.02 2.66M281.722 137.299l-12.01 10.58M254.392 161.379l-2.06 1.81M229.452 183.349l-3.02 2.66M80.562 321.039l-3.02 2.66M289.152 137.299l-12.02 10.58M229.452 189.889l-3.02 2.66M80.562 327.589l-3.02 2.66M120.062 292.789l-1.51 1.33M296.572 137.299l-12.01 10.58M229.452 196.429l-3.02 2.66M80.562 334.119l-3.02 2.66M127.482 292.789l-3.44 3.03M303.992 137.299l-12.02 10.58M229.452 202.959l-3.02 2.66M229.452 209.499l-3.02 2.66M311.412 137.299l-12.01 10.58M134.902 292.789l-3.44 3.03M127.432 299.369l-3.03 2.67M229.452 216.039l-3.02 2.66M314.552 141.069l-7.73 6.81M127.432 305.909l-3.03 2.67M127.432 312.449l-3.03 2.66M314.552 147.609l-.31.27M229.452 222.579l-3.02 2.66M127.432 318.989l-3.03 2.67M229.452 229.119l-3.02 2.66M127.432 325.529l-3.03 2.67M229.452 235.659l-3.02 2.66M127.432 332.059l-3.03 2.67M172.012 292.789l-3.44 3.03M229.452 242.189l-3.02 2.66M127.432 338.599l-3.03 2.67M179.432 292.789l-3.44 3.03M127.432 345.139l-3.03 2.67M186.862 292.789l-3.44 3.03M127.432 351.679l-3.03 2.67M194.282 292.789l-3.44 3.03M127.432 358.219l-3.03 2.67M201.702 292.789l-3.44 3.03M127.432 364.749l-3.03 2.67M209.122 292.789l-3.44 3.03M127.432 371.289l-3.03 2.67M216.552 292.789l-3.44 3.03M127.432 377.829l-3.03 2.67M223.972 292.789l-3.44 3.03M127.432 384.369l-3.03 2.67M231.392 292.789l-3.44 3.03M127.432 390.909l-3.03 2.67M238.812 292.789l-3.44 3.03M127.432 397.439l-3.03 2.67M246.232 292.789l-5.44 4.8M127.432 403.989l-3.03 2.67M251.742 294.479l-10.95 9.65M127.432 410.529l-3.03 2.66M251.742 301.019l-10.95 9.65M127.432 417.059l-3.03 2.67M251.742 307.549l-10.95 9.65M127.432 423.599l-3.03 2.67M251.742 314.089l-10.95 9.65M127.432 430.139l-3.03 2.67M251.742 320.629l-4.92 4.34M127.432 436.679l-3.03 2.67M127.432 443.219l-3.03 2.66M127.432 449.749l-3.03 2.67M127.432 456.299l-3.03 2.67M247.082 363.969l-6.29 5.54M251.742 366.399l-10.95 9.65M251.742 372.939l-10.95 9.64M251.742 379.479l-10.95 9.65M251.742 386.019l-10.95 9.64M251.742 392.549l-10.95 9.65M251.742 399.089l-10.95 9.65M251.742 405.629l-10.95 9.65M251.742 412.169l-10.95 9.65M251.742 418.709l-10.95 9.65M251.742 425.249l-10.95 9.64M251.742 431.779l-10.95 9.65M251.742 438.329l-10.95 9.64M251.742 444.859l-10.95 9.65M251.742 451.399l-8.9 7.84M251.742 457.939l-1.48 1.3"/></g><path class="st7" d="M214.181 140.393h12.28l.001 105.614h3.023v-82.753h24.94v-15.303h60.155v-10.58h-99.945v1.511h-.454v1.511zm-77.083 152.468v1.512h-.453v1.511h-9.184V459.31h-3.022V295.884h-5.405v-1.511h-.453v-1.512h18.517zM80.45.5h165.959v11.043h-4.078v81.618h-3.022V11.543h-64.238v42.886h-1.511v-.453h-1.511V18.533h-75.95v8.124H80.607v-3.022h12.469V11.543H80.45V.5zm79.886 209.456h-10.958v-15.717h10.958v15.717zM172.05 11.543H96.099v3.967h75.951v-3.967zm79.352 136.408h-21.917v12.28h21.917v-12.28zM9.568 233.537v-3.022h20.216v-12.471h3.023v12.471h44.776v-12.471h3.023v29.237h-1.511v.454h-1.512v-14.198H9.568zm81.051-96.167l25.885.001v1.512h-.454v1.51H80.608v-3.022h6.99V86.17h-6.989v-3.023h91.442v-1.058h1.511v-.453h1.511v55.735h7.671v1.511h.453v1.511l-39.034-.001v-1.51h-.453v-1.512h8.503v-51.2H90.619v51.2zm81.431-22.105h-16.815v22.106h16.815v-22.106zm-16.815-3.022h16.815V86.17h-16.815v26.073zm96.544 347.067h-10.958v-95.272h10.958v95.272zm-10.958-134.272v-29.154h-72.286v-1.511h-.453v-1.512h83.697v32.177h-10.958zM87.965 292.853h-7.368v-13.689h-1.511v-.453h-1.512v33.792l-68.005.008v3.022l68.005-.008v22.672h3.023v-42.321h6.915v-1.511h.453v-1.512zm61.789-74.809H80.606v-3.022h69.148v3.022z"/></g><g id="sizes"><path d="M27.895 246.272l-.727-.348c-.485-.232-.874-.567-1.168-1.008s-.48-.97-.559-1.59h1.625c.047.323.148.589.305.797s.358.363.605.465.538.152.871.152c.526 0 .935-.141 1.227-.422s.438-.677.438-1.188v-.344c0-.567-.138-1.007-.414-1.316s-.667-.465-1.172-.465h-.805v-1.516h.805c.442 0 .786-.133 1.031-.398s.367-.641.367-1.125v-.352c0-.448-.129-.794-.387-1.039s-.624-.367-1.098-.367c-.271 0-.513.051-.727.152s-.395.258-.543.469-.257.476-.324.793h-1.617c.104-.62.301-1.151.59-1.594s.655-.778 1.098-1.008.95-.344 1.523-.344c.979 0 1.737.258 2.273.773s.805 1.242.805 2.18v.188c0 .567-.153 1.063-.461 1.484s-.742.729-1.305.922c.62.136 1.101.44 1.441.914s.512 1.078.512 1.813v.188c0 .661-.128 1.227-.383 1.695s-.626.825-1.113 1.07-1.074.367-1.762.367l-.951.002zM34.215 244.561h1.594v1.594l-1.594 1.578v-3.172zM39.641 245.936c-.445-.224-.808-.55-1.086-.977s-.465-.94-.559-1.539v-.008h1.594v.008c.058.417.224.741.5.973s.636.348 1.078.348c.511 0 .905-.171 1.184-.512s.418-.821.418-1.441v-.953c0-.614-.14-1.093-.418-1.434s-.673-.512-1.184-.512c-.276 0-.542.078-.797.234s-.479.375-.672.656h-1.453v-5.984h5.789v1.516H39.84v2.555a2.275 2.275 0 011.414-.508c.656 0 1.218.136 1.684.406s.82.667 1.063 1.188.363 1.148.363 1.883v.953c0 .734-.125 1.362-.375 1.883s-.614.918-1.094 1.191-1.055.41-1.727.41c-.573 0-1.082-.113-1.527-.336zM101.153 450.698h-1.594v-9.625l-1.617.992v-1.648l1.617-1.078h1.594v11.359zM106.473 450.698h-1.594v-9.625l-1.617.992v-1.648l1.617-1.078h1.594v11.359zM108.895 449.105h1.594v1.594l-1.594 1.578v-3.172zM114.192 450.425c-.521-.261-.923-.629-1.207-1.105s-.426-1.03-.426-1.66v-.188c0-.567.142-1.102.426-1.602s.663-.878 1.137-1.133c-.401-.219-.723-.535-.965-.949s-.363-.851-.363-1.309v-.273c0-.594.133-1.116.398-1.566s.641-.8 1.125-1.047 1.047-.371 1.688-.371 1.203.124 1.688.371.859.597 1.125 1.047.398.973.398 1.566v.273c0 .469-.124.909-.371 1.32s-.574.724-.98.938c.479.261.863.64 1.152 1.137s.434 1.03.434 1.598v.188c0 .63-.142 1.184-.426 1.66s-.687.845-1.207 1.105-1.125.391-1.813.391-1.293-.13-1.813-.391zm2.789-1.359c.281-.146.499-.351.652-.613s.23-.566.23-.91v-.109c0-.349-.077-.655-.23-.918s-.371-.468-.652-.613-.606-.219-.977-.219-.695.073-.977.219-.499.352-.652.617-.23.573-.23.922v.117c0 .344.077.646.23.906s.371.462.652.605.606.215.977.215.696-.074.977-.219zm-.133-5.121c.245-.138.435-.335.57-.59s.203-.55.203-.883v-.109c0-.317-.067-.599-.203-.844s-.325-.434-.57-.566-.526-.199-.844-.199-.599.066-.844.199-.435.321-.57.566-.203.528-.203.852v.117c0 .328.067.618.203.871s.325.448.57.586.526.207.844.207.599-.07.844-.207zM212.258 331.92h-1.594v-9.625l-1.617.992v-1.648l1.617-1.078h1.594v11.359zM216.821 332.037l-.727-.348c-.485-.232-.874-.567-1.168-1.008s-.48-.97-.559-1.59h1.625c.047.323.148.589.305.797s.358.363.605.465.538.152.871.152c.526 0 .935-.141 1.227-.422s.438-.677.438-1.188v-.344c0-.567-.138-1.007-.414-1.316s-.667-.465-1.172-.465h-.805v-1.516h.805c.442 0 .786-.133 1.031-.398s.367-.641.367-1.125v-.352c0-.448-.129-.794-.387-1.039s-.624-.367-1.098-.367c-.271 0-.513.051-.727.152s-.395.258-.543.469-.257.476-.324.793h-1.617c.104-.62.301-1.151.59-1.594s.655-.778 1.098-1.008.95-.344 1.523-.344c.979 0 1.737.258 2.273.773s.805 1.242.805 2.18v.188c0 .567-.153 1.063-.461 1.484s-.742.729-1.305.922c.62.136 1.101.44 1.441.914s.512 1.078.512 1.813v.188c0 .661-.128 1.227-.383 1.695s-.626.825-1.113 1.07-1.074.367-1.762.367l-.951.002zM223.141 330.326h1.594v1.594l-1.594 1.578v-3.172zM227.746 331.186c-.55-.567-.824-1.359-.824-2.375v-5.164c0-1.021.276-1.813.828-2.379s1.356-.848 2.414-.848c1.063 0 1.868.281 2.418.844s.824 1.356.824 2.383v5.164c0 1.021-.276 1.813-.828 2.379s-1.356.848-2.414.848c-1.062-.001-1.868-.285-2.418-.852zm3.664-1.106c.269-.294.402-.718.402-1.27v-5.164c0-.552-.133-.976-.398-1.27s-.683-.441-1.25-.441-.984.147-1.25.441-.398.718-.398 1.27v5.164c0 .552.134.976.402 1.27s.684.441 1.246.441.978-.147 1.246-.441z"/><g><path d="M348.508 442.67h-1.594v-9.625l-1.617.992v-1.648l1.617-1.078h1.594v11.359zM352.731 442.451c-.445-.224-.808-.55-1.086-.977s-.465-.94-.559-1.539v-.008h1.594v.008c.058.417.224.741.5.973s.636.348 1.078.348c.511 0 .905-.171 1.184-.512s.418-.821.418-1.441v-.953c0-.614-.14-1.093-.418-1.434s-.673-.512-1.184-.512c-.276 0-.542.078-.797.234s-.479.375-.672.656h-1.453v-5.984h5.789v1.516h-4.195v2.555a2.275 2.275 0 011.414-.508c.656 0 1.218.136 1.684.406s.82.667 1.063 1.188.363 1.148.363 1.883v.953c0 .734-.125 1.362-.375 1.883s-.614.918-1.094 1.191-1.055.41-1.727.41c-.573 0-1.082-.112-1.527-.336zM359.641 441.076h1.594v1.594l-1.594 1.578v-3.172zM364.246 441.936c-.55-.567-.824-1.359-.824-2.375v-5.164c0-1.021.276-1.813.828-2.379s1.356-.848 2.414-.848c1.063 0 1.868.281 2.418.844s.824 1.356.824 2.383v5.164c0 1.021-.276 1.813-.828 2.379s-1.356.848-2.414.848c-1.062-.001-1.868-.285-2.418-.852zm3.664-1.106c.269-.294.402-.718.402-1.27v-5.164c0-.552-.133-.976-.398-1.27s-.683-.441-1.25-.441-.984.147-1.25.441-.398.718-.398 1.27v5.164c0 .552.134.976.402 1.27s.684.441 1.246.441.978-.147 1.246-.441z"/></g><g><path d="M256.692 184.237h-1.594v-9.625l-1.617.992v-1.648l1.617-1.078h1.594v11.359zM259.114 181.112l3.813-8.227h1.641l-3.719 8.133h5.57v1.477h-7.305v-1.383zm4.898-3.554h1.555v6.688h-1.555v-6.688zM268.215 182.644h1.594v1.594l-1.594 1.578v-3.172zM273.512 183.964c-.521-.261-.923-.629-1.207-1.105s-.426-1.03-.426-1.66v-.188c0-.567.142-1.102.426-1.602s.663-.878 1.137-1.133c-.401-.219-.723-.535-.965-.949s-.363-.851-.363-1.309v-.273c0-.594.133-1.116.398-1.566s.641-.8 1.125-1.047 1.047-.371 1.688-.371 1.203.124 1.688.371.859.597 1.125 1.047.398.973.398 1.566v.273c0 .469-.124.909-.371 1.32s-.574.724-.98.938c.479.261.863.64 1.152 1.137s.434 1.03.434 1.598v.188c0 .63-.142 1.184-.426 1.66s-.687.845-1.207 1.105-1.125.391-1.813.391-1.292-.13-1.813-.391zm2.789-1.359c.281-.146.499-.351.652-.613s.23-.566.23-.91v-.109c0-.349-.077-.655-.23-.918s-.371-.468-.652-.613-.606-.219-.977-.219-.695.073-.977.219-.499.352-.652.617-.23.573-.23.922v.117c0 .344.077.646.23.906s.371.462.652.605.606.215.977.215.696-.074.977-.219zm-.133-5.121c.245-.138.435-.335.57-.59s.203-.55.203-.883v-.109c0-.317-.067-.599-.203-.844s-.325-.434-.57-.566-.526-.199-.844-.199-.599.066-.844.199-.435.321-.57.566-.203.528-.203.852v.117c0 .328.067.618.203.871s.325.448.57.586.526.207.844.207.599-.07.844-.207z"/></g><g><path d="M139.764 189.986h-1.594v-9.625l-1.617.992v-1.648l1.617-1.078h1.594v11.359zM142.186 186.861l3.813-8.227h1.641l-3.719 8.133h5.57v1.477h-7.305v-1.383zm4.898-3.555h1.555v6.688h-1.555v-6.688zM151.287 188.392h1.594v1.594l-1.594 1.578v-3.172zM160.936 180.048l-2.938 9.938h-1.695l2.938-9.844h-2.891v1.633h-1.594v-3.148h6.18v1.421z"/></g><g><path d="M223.046 108.78h-1.502v-9.625l-1.524.992v-1.648l1.524-1.078h1.502v11.359zM231.008 98.843l-2.77 9.938h-1.598l2.77-9.844h-2.726v1.633h-1.502v-3.148h5.826v1.421zM232.923 107.187h1.502v1.594l-1.502 1.578v-3.172zM237.916 108.507c-.491-.26-.871-.629-1.138-1.105s-.401-1.03-.401-1.66v-.188c0-.567.134-1.102.401-1.602s.625-.877 1.072-1.133a2.42 2.42 0 01-.91-.949 2.674 2.674 0 01-.342-1.309v-.273c0-.594.125-1.116.375-1.566.25-.45.604-.799 1.061-1.047.457-.247.987-.371 1.591-.371s1.134.124 1.591.371c.457.248.81.597 1.061 1.047.25.451.375.973.375 1.566v.273c0 .469-.117.909-.35 1.32a2.403 2.403 0 01-.924.938c.452.261.813.64 1.086 1.137a3.27 3.27 0 01.409 1.598v.188c0 .63-.134 1.184-.401 1.66a2.755 2.755 0 01-1.138 1.105c-.491.261-1.061.391-1.709.391-.648 0-1.218-.13-1.709-.391zm2.63-1.359c.265-.146.47-.35.615-.613.145-.263.217-.566.217-.91v-.109c0-.349-.073-.655-.217-.918a1.531 1.531 0 00-.615-.613c-.265-.146-.572-.219-.921-.219s-.655.073-.92.219c-.265.146-.47.352-.615.617a1.895 1.895 0 00-.217.922v.117c0 .344.073.646.217.906.145.261.35.462.615.605.265.144.572.215.92.215s.656-.073.921-.219zm-.125-5.121a1.4 1.4 0 00.538-.59c.127-.255.191-.549.191-.883v-.109a1.81 1.81 0 00-.191-.844 1.361 1.361 0 00-.538-.566 1.565 1.565 0 00-.796-.199c-.299 0-.564.066-.795.199a1.38 1.38 0 00-.538.566 1.826 1.826 0 00-.191.852v.117c0 .328.064.619.191.871.128.253.307.448.538.586.231.138.496.207.795.207.3 0 .565-.069.796-.207z"/></g><g><path d="M101.037 75.461l3.813-8.227h1.641l-3.719 8.133h5.57v1.477h-7.305v-1.383zm4.899-3.555h1.555v6.688h-1.555v-6.688zM110.139 76.992h1.594v1.594l-1.594 1.578v-3.172zM114.744 77.852c-.55-.567-.824-1.359-.824-2.375v-5.164c0-1.021.276-1.813.828-2.379s1.356-.848 2.414-.848c1.063 0 1.868.281 2.418.844s.824 1.356.824 2.383v5.164c0 1.021-.276 1.813-.828 2.379s-1.356.848-2.414.848c-1.062-.001-1.868-.285-2.418-.852zm3.665-1.106c.269-.294.402-.718.402-1.27v-5.164c0-.552-.133-.976-.398-1.27s-.683-.441-1.25-.441-.984.147-1.25.441-.398.718-.398 1.27v5.164c0 .552.134.976.402 1.27s.684.441 1.246.441.977-.147 1.246-.441z"/></g><g><path d="M95.537 97.551l3.961-5.281c.229-.302.407-.616.535-.941s.191-.629.191-.91v-.016c0-.453-.133-.805-.398-1.055s-.644-.375-1.133-.375c-.464 0-.839.137-1.125.41s-.461.66-.523 1.16v.008h-1.648v-.008c.094-.651.285-1.207.574-1.668s.663-.813 1.121-1.055.987-.363 1.586-.363c.677 0 1.255.116 1.734.348s.844.569 1.094 1.012.375.977.375 1.602v.008c0 .401-.083.82-.25 1.258s-.398.859-.695 1.266l-3.289 4.469h4.297v1.516h-6.406v-1.385zM103.819 97.34h1.594v1.594l-1.594 1.578V97.34zM110.342 98.934h-1.594v-9.625l-1.617.992v-1.648l1.617-1.078h1.594v11.359z"/></g><g><path d="M42.674 518.235l3.961-5.281c.229-.302.407-.616.535-.941s.191-.629.191-.91v-.016c0-.453-.133-.805-.398-1.055s-.644-.375-1.133-.375c-.464 0-.839.137-1.125.41s-.461.66-.523 1.16v.008h-1.648v-.008c.094-.651.285-1.207.574-1.668s.663-.813 1.121-1.055.987-.363 1.586-.363c.677 0 1.255.116 1.734.348s.844.569 1.094 1.012.375.977.375 1.602v.008c0 .401-.083.82-.25 1.258s-.398.859-.695 1.266l-3.289 4.469h4.297v1.516h-6.406v-1.385zM50.955 518.024h1.594v1.594l-1.594 1.578v-3.172zM56.252 519.344c-.521-.261-.923-.629-1.207-1.105s-.426-1.03-.426-1.66v-.188c0-.567.142-1.102.426-1.602s.663-.878 1.137-1.133c-.401-.219-.723-.535-.965-.949s-.363-.851-.363-1.309v-.273c0-.594.133-1.116.398-1.566s.641-.8 1.125-1.047 1.047-.371 1.688-.371 1.203.124 1.688.371.859.597 1.125 1.047.398.973.398 1.566v.273c0 .469-.124.909-.371 1.32s-.574.724-.98.938c.479.261.863.64 1.152 1.137s.434 1.03.434 1.598v.188c0 .63-.142 1.184-.426 1.66s-.687.845-1.207 1.105-1.125.391-1.813.391-1.292-.13-1.813-.391zm2.789-1.359c.281-.146.499-.351.652-.613s.23-.566.23-.91v-.109c0-.349-.077-.655-.23-.918s-.371-.468-.652-.613-.606-.219-.977-.219-.695.073-.977.219-.499.352-.652.617-.23.573-.23.922v.117c0 .344.077.646.23.906s.371.462.652.605.606.215.977.215.696-.074.977-.219zm-.132-5.122c.245-.138.435-.335.57-.59s.203-.55.203-.883v-.109c0-.317-.067-.599-.203-.844s-.325-.434-.57-.566-.526-.199-.844-.199-.599.066-.844.199-.435.321-.57.566-.203.528-.203.852v.117c0 .328.067.618.203.871s.325.448.57.586.526.207.844.207.598-.069.844-.207z"/></g></g></svg>