<svg version="1.1" id="_x36__1_" xmlns="http://www.w3.org/2000/svg" x="0" y="0" viewBox="0 0 403.235 480.97" xml:space="preserve"><style>.st0,.st1{fill-rule:evenodd;clip-rule:evenodd}.st0{fill:#fff}.st1{stroke:#999;stroke-width:.4}.st1,.st2,.st3{fill:none;stroke-linecap:round;stroke-linejoin:round;stroke-miterlimit:3}.st2{fill-rule:evenodd;clip-rule:evenodd;stroke:#999}.st3{stroke:#000}.st4,.st5,.st7,.st8{fill-rule:evenodd;clip-rule:evenodd}.st5,.st7,.st8{fill:none}.st5{stroke:#000;stroke-linecap:round;stroke-linejoin:round;stroke-miterlimit:3}.st7,.st8{stroke-miterlimit:22.9256}.st7{stroke-linecap:round;stroke-linejoin:round;stroke:#000}.st8{stroke:#666;stroke-width:.6}</style><path class="st0" d="M74.03.214v211.117H.446V480.1H402.79V.214z"/><g id="mebel_6_"><path class="st1" d="M76.039 285.312l1.222-1.222m-8.169 1.222l8.169-8.169m-15.116 8.169l15.115-15.115m-22.062 15.115l22.063-22.063m-29.009 22.063l29.009-29.009m-35.956 29.009l35.956-35.956m-42.904 35.956l42.903-42.903m-49.849 42.903l49.85-49.85m-52.523 45.576l27.428-27.429m9.303-9.303l11.138-11.139M24.738 274.09l24.294-24.294m11.774-11.775l4.854-4.854m-40.922 33.976l23.831-23.831m-23.831 16.885l24.65-24.65m-25.044 18.096l.072-.072m.322-.321l20.082-20.083m-20.082 13.136l13.136-13.136m-13.136 6.189l6.189-6.189m46.334 5.755l-5.755-5.755m5.755 12.702l-12.702-12.702m12.702 19.65l-16.65-16.651m16.65 23.597L61.43 243.932m15.831 22.778l-16.534-16.534m-11.653-11.653l-5.356-5.356m33.543 40.491L57.373 253.77m-8.958-8.958L36.77 233.167m40.491 47.437l-47.437-47.437m45.198 52.145l-50.284-50.284m43.337 50.284l-43.337-43.338m36.39 43.338l-36.39-36.39m29.442 36.39l-29.443-29.443M47.233 285.312l-22.495-22.495M40.286 285.312l-15.548-15.548m8.602 15.548l-8.602-8.602m1.655 8.602l-1.655-1.655M147.934 137l4.332-4.332M140.987 137l11.279-11.279M134.04 137l18.226-18.226M127.093 137l25.173-25.173M120.147 137l32.119-32.119M113.2 137l36.086-36.086M106.252 137l36.086-36.086M99.305 137l36.087-36.086M92.359 137l14.809-14.809m4.468-4.467l16.81-16.81m-37.772 30.823l9.219-9.219m10.349-10.348l17.274-17.274m-36.842 29.895l2.936-2.936m12.042-12.041l21.865-21.865M98.449 110.07l24.269-24.269M90.681 110.89l25.091-25.089m-25.098 18.148l18.15-18.148m-18.15 11.202l11.202-11.202m-11.202 4.255l4.257-4.255m57.335 19.72l-4.607-4.607m4.607 11.553l-11.553-11.553m-13.196-13.196l-1.917-1.917m26.666 33.613l-18.5-18.5m-6.249-6.249l-8.864-8.864m33.613 40.561l-40.561-40.561m40.561 47.509l-47.508-47.509M149.011 137l-51.2-51.2m44.254 51.2L90.864 85.8m44.254 51.2l-25.013-25.013m-.03-.03l-19.4-19.4M128.17 137l-17.414-17.414m-9.783-9.783L90.674 99.505M121.224 137l-14.642-14.642m-11.893-11.891l-4.015-4.015M114.277 137l-14.494-14.494M107.33 137l-15.314-15.313M100.383 137l-9.709-9.708M93.436 137l-2.762-2.762M96.154 73.142h75.95m-75.95-11.336h75.95M96.154 50.47h75.95m-75.95-11.336h15.577m2.853 0h23.512M96.154 27.798h10.661m12.687 0h18.595m32.874 54.979V48.392m-22.672 34.385V48.392m-22.672 34.385V18.163m-22.672 64.614V18.163"/><path class="st2" d="M266.958 352.099V458.94m0 0h-15.114m0 0V352.099m0 0h15.114M266.202 352.099V458.94M266.958 405.52h-.756M266.958 352.099h-.756M172.104 48.392h-34.008M138.096 48.392V18.163M166.436 24.776a.944.944 0 11-1.889 0 .944.944 0 011.889 0zM155.605 31.146l1.396.372m0 0l1.209.793m0 0l.899 1.133m0 0l.495 1.357m0 0l.044 1.446m0 0l-.414 1.384m0 0l-.828 1.185m0 0l-1.159.863m0 0l-1.372.455m0 0h-1.446m0 0l-1.372-.455m0 0l-1.16-.863m0 0l-.828-1.185m0 0l-.413-1.384m0 0l.043-1.446m0 0l.496-1.357m0 0l.897-1.133m0 0l1.209-.793m0 0l1.397-.372m0 0v-5.538m0 0l-.455.108m0 0l-.49.037m0 0l-.489-.037m0 0l-.455-.108m0 0l-.392-.172m0 0l-.299-.225m0 0l-.19-.26m0 0l-.064-.282m0 0v-.402m0 0l.019-.12m0 0l.064-.277m0 0l.054-.104m0 0l.182-.251m0 0l.078-.07m0 0l.274-.205m0 0l.357-.157m0 0l.195-.051m0 0l.25-.06m0 0l.02-.688m0 0l.009-.796m0 0h-1.729m0 0v-.435m0 0h-2.871m0 0l-.16-.058m0 0l-.083-.149m0 0l.033-.166m0 0l.134-.105m0 0l.485-.158m0 0l.726-.315m0 0l1.008-.574m0 0l.728-.258m0 0v-.125m0 0h-.604m0 0v-.982m0 0h2.569m0 0v.877m0 0l.024.01m0 0l.039.028m0 0l.033.034m0 0l.025.041m0 0l.278.673m0 0h.697m0 0v-1.361m0 0h-1.058m0 0v-.302m0 0h3.023m0 0v.302m0 0h-1.058m0 0v1.361m0 0h1.436m0 0v.151m0 0h.416m0 0v-.303m0 0h-.152m0 0v-.529m0 0h-.604m0 0v-.982m0 0h2.569m0 0v.982m0 0h-.604m0 0v.529m0 0h-.152m0 0v.303m0 0h.152m0 0v1.511m0 0h-2.57m0 0v2.154m0 0h-.023m0 0h-.059m0 0h-.094m0 0h-.124m0 0h-.149m0 0h-.042m0 0v7.504M153.262 19.826h.21m0 0l-.141-.341m0 0l-.326-.053m0 0l-.008.001m0 0v.242m0 0h-.151m0 0v.302m0 0h.416m0 0v-.151M151.789 19.977v-.241m0 0l-.677.239m0 0l-.987.564m0 0l-.053.023m0 0h1.566m0 0v-.585m0 0h.151M157.645 19.145v.529M158.326 19.145v.529M151.989 19.145h-.352M152.846 19.674h-.188M152.658 19.674h-.681M151.977 19.674h-.014M152.658 19.498v.177M151.977 19.669v.006M151.789 19.977h1.058M154.141 21.488h.557M151.637 20.562v.491M154.208 22.055h.49M148.841 21.041l-.075.013M152.991 18.938l.047.002M152.821 18.97l.17-.032M153.536 19.021l.047.011M153.583 19.032l.019.008M151.637 19.27l.453-.161M152.09 19.109l.73-.139M152.947 19.443l.059-.011M148.841 21.041l.513-.167M149.354 20.874l.718-.313M153.038 18.94l.498.081M154.696 23.544l.002-.002M154.698 23.012l-.002-.001M153.262 20.373v-.127M153.262 20.127v-.102M153.262 20.246v-.119M153.472 19.826h.523M152.224 19.582l.723-.139M151.789 19.736l.436-.154M153.942 20.459h.001M153.851 20.415l.091.044M153.754 20.399l.097.016M153.656 20.415l.098-.017M153.565 20.459l.091-.045M153.565 20.459h-.001M153.409 22.956l.345-.026M153.754 22.929l.345.026M153.337 22.972l.072-.017M154.419 23.032l.195.052M154.098 22.956l.321.076M153.384 20.626l-.009.061M154.615 23.083l.083.036M154.169 22.972l-.019-.688M154.131 20.688l-.009-.062M154.123 20.626l-.026-.059M154.096 20.568l-.042-.05M154.054 20.518l-.056-.038M153.998 20.48l-.055-.021M153.942 20.459l-.007-.002M153.935 20.457l-.068-.008M153.867 20.449h-.227M153.64 20.449l-.068.008M153.572 20.457l-.007.002M153.564 20.459l-.056.021M153.508 20.48l-.055.038M153.454 20.518l-.043.05M153.411 20.568l-.026.058M154.15 22.284l-.019-1.596M153.366 21.488l.01-.8M153.262 21.186h.107M154.137 21.186h.561M155.605 31.146v5.344M154.698 31.146v5.344M155.605 36.49h-.907M158.665 19.145h-1.359M158.514 19.674h-1.058M158.514 19.977h-1.058M157.041 19.977v1.209M153.262 21.186v-1.209M155.605 18.465h-.907M155.605 19.826v3.816M154.698 25.608v-5.782M157.041 21.186h-1.436M156.096 21.488h-.491M156.096 22.055h-.491M154.208 21.488v1.493M155.605 33.824a1.89 1.89 0 11-.907 0M157.041 20.513a.34.34 0 110 .589M106.755 33.155l.469 1.645m.001 0l.718 1.551m0 0l.968 1.23m-.001 0l1.248.943m0 0l1.448.594m0 0l1.551.205m0 0l1.551-.205m.001 0l1.447-.594m-.001 0l1.249-.943m0 0l.967-1.23m.001 0l.719-1.551m-.001 0l.469-1.645m.001 0l.208-1.698m0 0l-.06-1.709m-.001 0l-1.223-11.585m0 0H107.83m0 0l-1.223 11.585m0 0l-.059 1.709m0 0l.207 1.698M117.274 23.884h-4.116M113.158 23.884h-4.116M116.221 38.151c-.89.57-1.961.881-3.063.887M119.469 31.322c.165 2.591-1.031 5.106-3.248 6.829M117.274 23.884c1.506 2.253 2.266 4.828 2.195 7.437M106.846 31.322c-.071-2.609.689-5.185 2.195-7.437M110.094 38.151c-2.218-1.723-3.414-4.238-3.248-6.829M113.158 39.038a5.738 5.738 0 01-3.063-.887M117.805 18.163h-9.295m0 0v.189m0 0h9.295m0 0v-.189M103.71 18.163h18.894M103.71 13.628h18.894M103.71 18.163v-4.535M122.604 18.163v-4.535M128.082 85.8H151.7m0 0l.401.166m0 0l.166.4m0 0v13.982m0 0l-.166.4m0 0l-.401.166m0 0h-23.617m-.001 0l-.4-.166m0 0l-.166-.4m.001 0V86.366m0 0l.166-.4m-.001 0l.4-.166M129.216 89.956h10.222m.906 0h10.222M151.132 90.524v8.69M150.566 99.782h-21.35M128.65 99.214v-8.69M150.566 89.956c.313 0 .566.254.566.567M151.132 99.214a.566.566 0 01-.566.567M129.216 99.782a.567.567 0 01-.566-.567M128.65 90.524c0-.313.254-.567.566-.567M140.647 92.945a.752.752 0 01-.303.605v-1.21a.755.755 0 01.303.605zm-1.209.605a.754.754 0 010-1.21v1.21zM140.344 86.33h-.906m0 0v7.748m0-.001l.256.301m0 0h.394m0 0l.256-.301m0 0V86.33M139.135 86.33h1.512m0 0v-.265m0-.001h-1.512m0 0v.265M138.757 86.065h2.268m0 0V85.8m0 0h-2.268m0 0v.265M136.623 87.69v-1.625m0 0h.095m0 0v-.133m0 0h.283m0 0V85.8m0 0h-1.889m0 0v.132m0 0h.283m0 0v.133m0 0h.094m0 0v1.625m0 0h.322m0 0v.415m0 0h-1.078m0 0v.491m0 0h2.646m0 0v-.491m0 0h-1.077m0 0v-.415m0 0h.321M143.16 87.69v-1.625m0 0h-.095m0 0v-.133m0 0h-.283m0 0V85.8m0 0h1.89m0 0v.132m0 0h-.283m0 0v.133m0 0h-.095m0 0v1.625m0 0h-.322m0 0v.415m0 0h1.078m0 0v.491m0 0h-2.646m0 0v-.491m0 0h1.077m0 0v-.415m0 0h-.321M135.81 88.105l.072.072M136.301 88.105l-.072.072M135.81 87.69h.491M135.489 86.065h1.134M136.717 85.932h-1.322M143.972 88.105l-.071.072M143.481 88.105l.072.072M143.972 87.69h-.491M144.294 86.065h-1.134M143.065 85.932h1.323M136.301 88.351a.244.244 0 01-.245.245.245.245 0 110-.491c.136 0 .245.11.245.246zM143.972 88.351c0 .136-.11.245-.245.245a.245.245 0 11.245-.245zM105.667 122.62l1.645-.469m0 0l1.551-.718m-.001 0l1.23-.967m.001 0l.943-1.249m-.001 0l.594-1.448m.001 0l.205-1.55m0 0l-.205-1.551m0 0l-.594-1.448m-.001 0l-.943-1.248m.001 0l-1.23-.967m-.001 0l-1.551-.719m.001 0l-1.645-.469m0 0l-1.698-.208m0 0l-1.709.06m0 0l-11.585 1.222m-.001 0v10.655m0 0l11.585 1.222m.001 0l1.709.06m0 0l1.698-.208M96.396 112.102v4.116M96.396 116.218v4.116M110.663 113.155c.57.889.881 1.961.887 3.063M103.833 109.907c2.591-.165 5.106 1.031 6.829 3.248M96.396 112.102c2.253-1.506 4.828-2.266 7.437-2.195M103.833 122.53c-2.609.07-5.185-.689-7.437-2.195M110.663 119.282c-1.723 2.217-4.238 3.413-6.829 3.248M111.549 116.218a5.738 5.738 0 01-.887 3.063M90.674 111.571v9.295m0 0h.189m0 0v-9.295m0 0h-.189M90.674 125.664v-18.892M86.14 125.664v-18.892M90.674 125.664H86.14M90.674 106.772H86.14M48.565 248.159l.469 1.645m0 0l.718 1.551m0 0l.967 1.23m0 0l1.249.943m0 0l1.448.594m0 0l1.55.205m0 0l1.552-.205m0 0l1.447-.594m0 0l1.248-.943m0 0l.968-1.23m0 0l.719-1.551m0 0l.469-1.645m0 0l.207-1.697m0 0l-.059-1.71m0 0l-1.223-11.585m0 0H49.639m0 0l-1.222 11.585m0 0l-.06 1.71m0 0l.208 1.697M59.083 238.888h-4.117M54.966 238.888H50.85M58.03 253.155a5.752 5.752 0 01-3.063.887M61.279 246.326c.165 2.591-1.031 5.106-3.249 6.829M59.083 238.888c1.505 2.253 2.265 4.828 2.195 7.437M48.655 246.326c-.07-2.609.689-5.185 2.195-7.437M51.903 253.155c-2.217-1.723-3.413-4.238-3.248-6.829M54.966 254.042a5.74 5.74 0 01-3.063-.887M59.614 233.166h-9.295m0 0v.189m0 0h9.295m0 0v-.189M45.52 233.166h18.894M45.52 228.632h18.894M45.52 233.166v-4.534M64.414 233.166v-4.534M9.623 254.138v30.606m0 0l.167.402m0 0l.4.166m0 0h13.981m0 0l.401-.166m0 0l.166-.402m0 0v-30.606m0 0l-.166-.401m0 0l-.401-.166m0 0H10.19m0 0l-.4.166m0 0l-.167.401M13.78 255.272v13.716m0 .907v13.717M14.346 284.178h8.691M23.604 283.612v-28.34M23.038 254.705h-8.691M14.346 284.178a.567.567 0 01-.566-.566M23.604 283.612a.567.567 0 01-.566.566M23.038 254.705c.312 0 .566.254.566.567M13.78 255.272c0-.313.254-.567.566-.567M17.373 269.895a.755.755 0 01-1.21 0h1.21zm-1.209-.907a.755.755 0 011.208 0h-1.208zM10.152 269.895v-.907m0 0H17.9m0 0l.301.256m0 0v.395m0 0l-.301.256m0 0h-7.748M10.152 268.686v1.512m0 0h-.265m0 0v-1.512m0 0h.265M9.887 268.308v2.267m0 0h-.265m0 0v-2.267m0 0h.265M11.512 266.173H9.887m0 0v.095m0 0h-.132m0 0v.283m0 0h-.133m0 0v-1.89m0 0h.133m0 0v.283m0 0h.132m0 0v.095m0 0h1.625m0 0v.322m0 0h.416m0 0v-1.078m0 0h.491m0 0v2.646m0 0h-.491m0 0v-1.077m0 0h-.416m0 0v.321M11.512 272.711H9.887m0 0v-.095m0-.001h-.132m0 0v-.283m0 0h-.133m0 0v1.889m0 0h.133m0 0v-.283m0 .001h.132m0 0v-.094m0-.001h1.625m0 0v-.322m0 0h.416m0 0v1.078m0 0h.491m0 0v-2.646m0 .001h-.491m0 0v1.077m0-.001h-.416m0 0v-.321M11.928 265.361l.072.071M11.928 265.852l.072-.072M11.512 265.361v.491M9.887 265.039v1.135M9.756 266.268v-1.323M11.928 273.523l.072-.072M11.928 273.032l.072.071M11.512 273.523v-.491M9.887 273.844v-1.134M9.756 272.616v1.322M12.42 265.606a.245.245 0 11-.491 0c0-.136.109-.245.245-.245s.246.109.246.245zM12.42 273.277a.246.246 0 11-.492 0 .246.246 0 01.492 0zM9.623 285.312h67.638m0 0v26.828m0 0H9.623m0 0v-26.828M17.514 309.994l-.979-.081m0 0l-.949-.242m0 0l-.89-.396m0 0l-.805-.536m0 0l-.695-.661m0 0l-.564-.767m0 0l-.415-.847m0 0l-.254-.904m0 0l-.086-.931m0 0v-11.805m0 0l.086-.932m0 0l.254-.903m0 0l.415-.848m0 0l.564-.766m0 0l.695-.661m0 0l.805-.536m0 0l.89-.396m0 0l.949-.242m0 0l.979-.081m0 0h45.655m0 0l2.056.171m0 0l1.992.509m0 0l1.87.829m0 0l1.691 1.127m0 0l1.459 1.388m0 0l1.183 1.61m0 0l.871 1.779m0 0l.535 1.897m0 0l.18 1.957m0 0l-.18 1.956m0 0l-.535 1.898m0 0l-.871 1.78m0 0l-1.183 1.61m0 0l-1.459 1.388m0 0l-1.691 1.127m0 0l-1.87.829m0 0l-1.992.509m0 0l-2.056.171m0 0H17.514M19.636 298.726a.944.944 0 11-1.889 0 .944.944 0 011.889 0zM333.666 320.781v28.39M334.799 350.304h28.39M364.323 349.17v-28.39M363.189 319.647h-28.39M373.719 310.25v38.92M372.586 350.304h-7.129M364.323 349.17v-29.523M364.323 319.647H334.8M333.666 318.513v-7.129M334.799 310.25h38.92M368.429 349.17v-33.63M368.429 315.541h-33.63M375.231 350.304V308.74M375.231 308.74h-41.565M375.231 350.304h-2.646M333.666 311.384v-2.645M333.666 318.513v2.268M365.457 350.304h-2.268M364.323 319.647l9.396-9.396M334.799 350.304a1.134 1.134 0 01-1.134-1.134M364.323 349.17c0 .626-.507 1.134-1.134 1.134M363.189 319.647c.627 0 1.134.508 1.134 1.134M333.666 320.781c0-.626.508-1.134 1.134-1.134M373.719 349.17c0 .626-.508 1.134-1.134 1.134M365.457 350.304a1.134 1.134 0 01-1.134-1.134M334.799 319.647a1.134 1.134 0 01-1.134-1.134M333.666 311.384c0-.626.508-1.134 1.134-1.134M369.563 350.304a1.134 1.134 0 01-1.134-1.134M334.799 315.541a1.134 1.134 0 01-1.134-1.133M375.231 388.09v-37.786M375.231 388.09h-2.646M375.231 350.304h-2.646M365.457 388.09h-2.268M365.457 350.304h-2.268M333.666 351.438v35.52M334.799 388.09h28.39M364.323 386.958v-35.521M363.189 350.304h-28.39M373.719 351.438v35.52M372.586 388.09h-7.129M364.323 386.958v-35.521M365.457 350.304h7.129M368.429 386.958v-35.521M334.799 388.09a1.134 1.134 0 01-1.134-1.133M364.323 386.958c0 .626-.507 1.133-1.134 1.133M363.189 350.304c.627 0 1.134.508 1.134 1.134M333.666 351.438c0-.626.508-1.134 1.134-1.134M373.719 386.958c0 .626-.508 1.133-1.134 1.133M365.457 388.09a1.134 1.134 0 01-1.134-1.133M364.323 351.438c0-.626.508-1.134 1.134-1.134M372.586 350.304c.626 0 1.134.508 1.134 1.134M369.563 388.09a1.134 1.134 0 01-1.134-1.133M368.429 351.438c0-.626.508-1.134 1.134-1.134M333.666 420.965v4.156M334.421 425.878h40.055M375.231 425.122v-4.156M374.475 420.209h-40.054M375.231 420.965V388.09M375.231 388.09h-2.646M365.457 388.09h-2.268M333.666 389.224v29.852M334.799 420.209h28.39M364.323 419.076v-29.852M363.189 388.09h-28.39M373.719 389.224v29.852M372.586 420.209h-7.129M364.323 419.076v-29.852M365.457 388.09h7.129M368.429 419.076v-29.852M334.421 425.878a.757.757 0 01-.756-.756M375.231 425.122a.757.757 0 01-.756.756M374.475 420.209c.417 0 .756.338.756.756M333.666 420.965c0-.418.339-.756.756-.756M334.799 420.209a1.134 1.134 0 01-1.134-1.134M364.323 419.076c0 .626-.507 1.134-1.134 1.134M363.189 388.09c.627 0 1.134.508 1.134 1.134M333.666 389.224c0-.626.508-1.134 1.134-1.134M373.719 419.076c0 .626-.508 1.134-1.134 1.134M365.457 420.209a1.134 1.134 0 01-1.134-1.134M364.323 389.224c0-.626.508-1.134 1.134-1.134M372.586 388.09c.626 0 1.134.508 1.134 1.134M369.563 420.209a1.134 1.134 0 01-1.134-1.134M368.429 389.224c0-.626.508-1.134 1.134-1.134M333.666 308.74H295.88M333.666 308.74v2.645M295.88 308.74v2.645M333.666 318.513v2.268M295.88 318.513v2.268M297.013 350.304h35.519M333.666 349.17v-28.39M332.532 319.647h-35.519M295.88 320.781v28.39M297.013 310.25h35.519M333.666 311.384v7.129M332.532 319.647h-35.519M295.88 318.513v-7.129M332.532 315.541h-35.519M333.666 349.17c0 .626-.508 1.134-1.134 1.134M332.532 319.647c.626 0 1.134.508 1.134 1.134M295.88 320.781c0-.626.508-1.134 1.134-1.134M297.013 350.304a1.134 1.134 0 01-1.134-1.134M332.532 310.25c.626 0 1.134.508 1.134 1.134M333.666 318.513c0 .626-.508 1.134-1.134 1.134M297.013 319.647a1.134 1.134 0 01-1.134-1.134M295.88 311.384c0-.626.508-1.134 1.134-1.134M333.666 314.408c0 .626-.508 1.133-1.134 1.133M297.013 315.541a1.134 1.134 0 01-1.134-1.133M96.154 26.287v56.491M80.661 26.287v56.491M96.154 82.778H80.661M96.154 26.287H80.661M95.02 31.718V49.1M95.02 49.1H83.306M83.306 49.1v-3.533m0-2.645v-2.06m0-.906v-2.059m0-2.646v-3.533M83.306 31.718H95.02M95.02 59.963v17.383M95.02 77.346H83.306M83.306 77.346v-3.534m0-2.645v-2.059m0-.908v-2.058m0-2.646v-3.533M83.306 59.963H95.02M86.969 40.863a1.135 1.135 0 01-2.079 0h2.079zm-2.078-.907a1.134 1.134 0 012.078 0h-2.078zM86.969 69.108a1.133 1.133 0 01-2.079 0h2.079zm-2.078-.908a1.133 1.133 0 012.078 0h-2.078zM81.19 40.863v-.907m0 0h7.748m0 0l.301.257m0 0v.394m0 0l-.301.256m0 0H81.19M81.19 39.654v1.512m0 0h-.264m0 0v-1.512m0 0h.264M80.926 39.276v2.268m0 0h-.266m0 0v-2.268m0 0h.266M82.55 37.141h-1.624m0 0v.094m0 0h-.133m0 0v.284m0 0h-.133m0 0v-1.89m0 0h.133m0 0v.283m0 0h.133m0 0v.095m0 0h1.624m0 0v.322m0 0h.416m0 0v-1.078m0 0h.491m0 0v2.646m0 0h-.491m0 0V36.82m0 0h-.416m0 0v.321M82.55 43.678h-1.624m0 0v-.095m0 0h-.133m0 0V43.3m0 0h-.133m0 0v1.889m0 0h.133m0 0v-.282m0 0h.133m0 0v-.096m0 0h1.624m0 0v-.321m0 0h.416m0 0v1.077m0 0h.491m0 0v-2.645m0 0h-.491m0 0v1.077m0 0h-.416m0 0v-.321M81.19 69.108v-.906m0 0h7.748m0 0l.301.256m0 0v.394m0 0l-.301.256m0 0H81.19M81.19 67.899v1.512m0 0h-.264m0 0v-1.512m0 0h.264M80.926 67.521v2.268m0 0h-.266m0 0v-2.268m0 0h.266M82.55 65.386h-1.624m0 0v.095m0 0h-.133m0 0v.283m0 0h-.133m0 0v-1.89m0 0h.133m0 0v.284m0 0h.133m0 0v.094m0 0h1.624m0 0v.322m0 0h.416m0 0v-1.078m0 0h.491m0 0v2.646m0 0h-.491m0 0v-1.077m0 0h-.416m0 0v.321M82.55 71.923h-1.624m0 0v-.095m0 0h-.133m0 0v-.283m0 0h-.133m0 0v1.889m0 0h.133m0 0v-.283m0 0h.133m0 0v-.094m0 0h1.624m0 0v-.322m0 0h.416m0 0v1.078m0 0h.491m0 0v-2.646m0 0h-.491m0 0v1.077m0 0h-.416m0 0v-.321M82.966 36.329l.072.072M82.966 36.82l.072-.072M82.55 36.329v.491M80.926 36.007v1.134M80.793 37.235v-1.322M82.966 44.491l.072-.072M82.966 43.999l.072.071M82.55 44.491V44M80.926 44.811v-1.133M80.793 43.583v1.324M82.966 64.574l.072.072M82.966 65.065l.072-.072M82.55 64.574v.491M80.926 64.252v1.135M80.793 65.481v-1.322M82.966 72.736l.072-.072M82.966 72.245l.072.072M82.55 72.736v-.491M80.926 73.057v-1.134M80.793 71.829v1.322M83.457 36.574a.246.246 0 11-.492 0 .246.246 0 01.492 0zM83.457 44.245a.246.246 0 11-.492 0 .246.246 0 01.492 0zM83.457 64.819a.245.245 0 11-.49.002.245.245 0 01.49-.002zM83.457 72.49a.246.246 0 11-.492 0 .246.246 0 01.492 0zM251.266 245.636v-22.672m0 0h-21.727m0 0v22.672m0 0h21.727M236.782 234.3h7.242M237.842 236.861l5.121-5.121M240.403 237.921v-7.242M242.964 236.861l-5.122-5.121M283.491 168.174h21.916m0 0v-18.516m0 0h-21.916m0 0v18.516M294.449 156.895v-5.299M294.449 151.596h1.096M294.449 156.895h1.096M303.302 156.895v-5.299M302.207 151.596h1.096M302.207 156.895h1.096M290.942 154.029a2.74 2.74 0 11-5.479 0 2.74 2.74 0 015.479 0zM293.441 162.268a3.968 3.968 0 11-7.936 0 3.968 3.968 0 017.936 0z"/><path class="st2" d="M291.741 162.268a2.268 2.268 0 11-4.536-.002 2.268 2.268 0 014.536.002zM301.52 154.213a2.646 2.646 0 11-5.291 0 2.646 2.646 0 015.291 0zM303.394 162.805a3.4 3.4 0 11-6.802-.002 3.4 3.4 0 016.802.002zM277.15 170.253h34.597M277.15 147.581h34.597M277.15 170.253v-22.672M311.747 170.253v-22.672M248.905 221.264v-19.271m0 0l-.222-.535m0 0l-.534-.22m0 0h-17.382m0 0l-.534.22m0 0l-.222.535m0 0v19.271m0 0l.222.534m0 0l.534.222m0 0h17.382m0 0l.534-.222m0 0l.222-.534M251.266 222.964v-22.672M229.54 222.964v-22.672M251.266 222.964h-21.727M251.266 200.292h-21.727M247.015 219.374v-15.491M246.26 203.127h-11.715M233.79 203.882v15.492M234.546 220.13h11.715M247.015 219.374h.108a.108.108 0 10-.216 0 .108.108 0 00.216 0h-.108zM246.26 203.127c.417 0 .755.339.755.756M233.79 203.882c0-.417.339-.756.756-.756M234.546 220.13a.756.756 0 01-.756-.756M247.015 219.374a.755.755 0 01-.755.756M238.623 211.968l.24-.1m0 0l.099-.241m0 0l-.1-.24m0 0l-.241-.099m0 0h-7.476m0 0l-.24.1m0 0l-.099.24m0 0l.099.24m0 0l.24.1m0 0h7.478M233.073 212.383v-.415m0 0h-1.928m0 0l-.24-.1m0 0l-.1-.24m0 0l.1-.24m0 0l.24-.1m0 0h1.928m0 0v-.414m0 0h-2.457m0 0v1.509m0 0h2.457M234.432 212.373v-.404m0 0h-1.322m0 0v.404m0 0h1.322M234.432 210.884h-1.322m0 0v.404m0 0h1.322m0 0v-.404M251.266 200.292V177.62M229.54 200.292V177.62M251.266 200.292h-21.727M251.266 177.621h-21.727M121.47 232.411a7.18 7.18 0 11-14.36 0 7.18 7.18 0 0114.36 0zM98.799 232.411a7.18 7.18 0 11-14.36 0 7.18 7.18 0 0114.36 0zM246.227 192.114a3.41 3.41 0 11-6.822 0 3.41 3.41 0 016.822 0z"/><path class="st2" d="M245.707 192.114a2.891 2.891 0 11-5.782 0 2.891 2.891 0 015.782 0zM246.227 185.805a2.578 2.578 0 11-5.158 0 2.579 2.579 0 115.158 0z"/><path class="st2" d="M245.093 185.805a1.445 1.445 0 11-2.89 0 1.445 1.445 0 012.89 0zM274.883 20.619a3.78 3.78 0 11-7.558 0 3.78 3.78 0 017.558 0z"/><path class="st2" d="M272.238 20.619a1.134 1.134 0 11-2.269 0 1.134 1.134 0 012.269 0zM363.68 20.619a3.778 3.778 0 11-7.557.001 3.778 3.778 0 017.557-.001z"/><path class="st2" d="M361.036 20.619a1.134 1.134 0 11-2.269 0 1.134 1.134 0 012.269 0zM140.742 352.495a3.779 3.779 0 11-7.558 0 3.779 3.779 0 017.558 0z"/><path class="st2" d="M138.096 352.495a1.134 1.134 0 11-2.267.001 1.134 1.134 0 012.267-.001zM140.742 441.292a3.778 3.778 0 11-7.56 0 3.778 3.778 0 017.56 0z"/><path class="st2" d="M138.096 441.292a1.134 1.134 0 11-2.267.001 1.134 1.134 0 012.267-.001zM22.848 352.099a3.778 3.778 0 11-7.557 0 3.778 3.778 0 017.557 0z"/><path class="st2" d="M20.204 352.099a1.134 1.134 0 11-2.269 0 1.134 1.134 0 012.269 0zM22.848 440.897a3.778 3.778 0 11-7.557 0 3.778 3.778 0 017.557 0z"/><path class="st2" d="M20.204 440.897a1.134 1.134 0 11-2.269 0 1.134 1.134 0 012.269 0zM281.496 90.524h68.015m0 0V14.951m0 0h-68.015m0 0v75.573M283.385 92.413h64.236m0 0l.723-.144m0 0l.613-.409m0 0l.409-.613m0-.001l.144-.723m0 .001h-68.015m0 0l.144.723m0-.001l.409.613m0 .001l.613.409m0 0l.724.144M281.496 11.172h68.015m0 0v3.778m0 0h-68.015m0 0v-3.778M349.51 11.172h-68.015m0 0v1.89m0 0h68.015m0 0v-1.89M351.4 11.172h17.004m0 0v18.893m0 0H351.4m0 0V11.172M279.606 11.172h-17.004m0 0v18.893m0 0h17.004m0 0V11.172M321.549 16.84h25.694m0 0l.267.11m0 0l.111.268m0 0v12.47m0 0l-.111.266m0 0l-.267.111m0 0h-25.694m0 0l-.268-.111m0 0l-.111-.266m0 0v-12.47m0 0l.111-.268m0 0l.268-.11M309.458 16.84h-25.695m0 0l-.267.11m0 0l-.11.268m0 0v12.47m0 0l.11.266m0 0l.267.111m0 0h25.695m0 0l.267-.111m0 0l.111-.266m0 0v-12.47m0 0l-.111-.268m0 0l-.267-.11M281.496 29.042h1.89M309.836 29.042h11.335M347.622 29.042h1.889M281.496 34.051h68.015m0 0v18.686m0 0L281.496 37.83m0 0v-3.779M216.692 11.172h22.672m0 0V92.79m0 0h-22.672m0 0V11.172M228.406 92.791h-.756m0 0V11.173m0 0h.756m0 0v81.618M237.362 13.398h-18.626m0 0v.756m0 0h18.626m0 0v-.756M237.362 15.402h-18.626m0 0v.756m0 0h18.626m0 0v-.756M237.362 17.407h-18.626m0 0v.756m0 0h18.626m0 0v-.756M237.362 19.412h-18.626m0 0v.756m0 0h18.626m0 0v-.756M237.227 23.658l-18.491-2.241m0 0l-.091.75m0 0l18.491 2.241m0 0l.091-.75M80.661 216.541V193.87m0-.001h68.771m0 0v22.671m0 .001H80.661M149.432 204.827v.756m0 0H80.661m0 0v-.756m0 0h68.771M88.098 214.547v-18.626m0 0h.756m0 0v18.626m0 0h-.756M90.103 214.547v-18.626m0 0h.755m0 0v18.626m0 0h-.755M92.108 214.547v-18.626m0 0h.755m0 0v18.626m0 0h-.755M94.112 214.547v-18.626m0 0h.756m0 0v18.626m0 0h-.756M98.358 214.413l-2.241-18.491m0-.001l.75-.091m0 0l2.241 18.491m0 .001l-.75.091M176.638 318.186v-22.672m0 0h64.237m0 0v22.672m0 0h-64.237M240.876 306.472v.756m0 0h-64.237m0 0v-.756m0 0h64.237M184.075 316.193v-18.626m0 0h.756m0 0v18.626m0 0h-.756M186.08 316.193v-18.626m0 0h.756m0 0v18.626m0 0h-.756M188.085 316.193v-18.626m0 0h.756m0 0v18.626m0 0h-.756M190.089 316.193v-18.626m0 0h.756m0 0v18.626m0 0h-.756M194.335 316.057l-2.241-18.49m0 0l.75-.091m0 0l2.241 18.49m.001 0l-.75.091M9.623 337.835v-22.672m0 0h67.638m0 0v22.672m0 0H9.623M77.26 326.122v.755m0 0H9.622m0 0v-.755m0 0H77.26M17.06 335.842v-18.627m0 0h.756m0 0v18.627m0 0h-.756M19.065 335.842v-18.627m0 0h.755m0 0v18.627m0 0h-.755M21.069 335.842v-18.627m0 0h.756m0 0v18.627m0 0h-.756M23.074 335.842v-18.627m0 0h.756m0 0v18.627m0 0h-.756M27.32 335.707l-2.241-18.491m0 0l.75-.09m0 0l2.241 18.49m0 0l-.75.091M206.868 430.901v-68.015m0 0h-75.572m0 0v68.015m0 0h75.572M208.756 429.012v-64.236m0 0l-.144-.724m0 0l-.409-.613m0 0l-.613-.409m.001 0l-.723-.144m-.001 0v68.015m0 0l.723-.144m.001 0l.613-.409m-.001 0l.409-.613m0 0l.144-.723M127.516 430.901v-68.015m0 0h3.779m0 0v68.015m0 0h-3.779M127.516 362.886v68.015m0 0h1.89m0 0v-68.015m0 0h-1.89M127.516 360.996v-17.004m0 .001h18.894m0 0v17.004m0-.001h-18.894M127.516 432.791v17.004m0 0h18.894m0 0v-17.004m0 0h-18.894M133.184 390.848v-25.695m0 0l.11-.267m0 0l.268-.11m0 0h12.47m0 0l.266.11m0 0l.112.267m0 0v25.695m0 0l-.112.267m0 0l-.266.111m0 0h-12.47m0 0l-.268-.111m0 0l-.11-.267M133.184 402.94v25.694m0 0l.11.268m0 0l.268.11m0 0h12.47m0 0l.266-.11m0 0l.112-.268m0 0V402.94m0 0l-.112-.268m0 0l-.266-.11m0 0h-12.47m0 0l-.268.11m0 0l-.11.268M145.385 430.901v-1.889M145.385 402.562v-11.336M145.385 364.776v-1.89M150.395 430.901v-68.015m0 0h18.686m0 0l-14.907 68.015m0 0h-3.779M88.974 430.505V362.49m0 0H13.402m0 0v68.015m0 0h75.572M90.864 428.617V364.38m0 0l-.144-.723m0 0l-.41-.613m0 0l-.613-.409m0 0l-.723-.144m0 0v68.015m0 0l.723-.144m0 0l.613-.409m0 0l.41-.613m0 0l.144-.723M9.623 430.505V362.49m0 0h3.779m0 0v68.015m0 0H9.623M9.623 362.491v68.015m0 0h1.89m0 0v-68.015m0 0h-1.89M9.623 360.601v-17.004m0 0h18.894m0 0v17.004m0 0H9.623M9.623 432.395v17.004m0 0h18.894m0 0v-17.004m0 0H9.623M15.292 390.453v-25.695m0 0l.11-.267m0 0l.267-.111m0 0h12.47m0 0l.267.111m0 0l.111.267m0 0v25.695m0 0l-.111.267m0 0l-.267.111m0 0h-12.47m0 0l-.267-.111m0 0l-.11-.267M15.292 402.544v25.695m0 0l.11.267m0 0l.267.111m0-.001h12.47m0 0l.267-.111m0 .001l.111-.267m0 0v-25.695m0 0l-.111-.267m0 0l-.267-.111m0-.001h-12.47m0 0l-.267.111m0 .001l-.11.267M27.493 430.505v-1.889M27.493 402.165v-11.334M27.493 364.379v-1.889M32.502 430.505V362.49m0 0h18.686m0 0L36.28 430.505m0 0h-3.778M261.112 410.885h-1.021m0 0v-44.369m0 0h1.021m0 0v44.369M260.091 409.481l-3.409.71m0 0l.14.68m0 0l3.269-.68m0 0v-.71M260.091 401.184h-.832m0 0l-.567-.152m0 0l-.414-.415m0 0l-.153-.567m0 0v-22.699m0 0l.153-.567m0 0l.414-.414m0 0l.567-.153m0 0h.832m0 0v24.967M261.468 409.481l3.41.71m0 0l-.141.68m0 0l-3.269-.68m0 0v-.71M260.091 367.92l-3.409-.71m0 0l.14-.68m0 0l3.269.68m0 0v.71M261.409 367.92l3.41-.71m0 0l-.14-.68m0 0l-3.27.68m0 0v.71M261.409 410.885h-.297m0 0v-44.369m0 0h.297m0 0v44.369M120.299 231.895l-1.233.449m0 0h-1.313m0 0l-1.233-.449m0 0l-1.473.343m0 0h-1.513m0 0l-1.472-.343m0 0l-1.236.45m0 0h-1.313m0 0l-1.235-.45m0 0l2.232 2.987m0 0h7.558m0 0l2.231-2.987M118.068 235.144h-7.558m0 0v-.262m0 0h7.558m0 0v.262M118.068 235.667h-7.558m0 0v-.262m0 .001h7.558m0 0v.262M113.448 230.379l.891-.084m0 0l.021.225m0 0l-.476.046m0 0l1.383 1.142m0 0l-.126.152m0 0l-.642-.53m0 0l-.067.082m0 0l.74.611m0 0l-.121.146m0 0l-.74-.61m0 0l-.08.096m0 0l.601.497m0 0l-.108.13m0 0l-.601-.497m0 0l-.08.098m0 0l.414.343m0 0l-.115.139m0 0l-1.422-1.174M125.627 221.075h-22.672m-.001 0v22.672m0 0h22.672m.001 0v-22.672M97.628 231.895l-1.233.449m0 0h-1.313m0 0l-1.232-.449m0 0l-1.474.343m0 0h-1.513m-.001 0l-1.472-.343m.001 0l-1.235.45m0 0h-1.314m-.001 0l-1.235-.45m0 0l2.232 2.987m0 0h7.558m0 0l2.231-2.987M95.396 235.144h-7.558m0 0v-.262m0 0h7.558m0 0v.262M95.396 235.667h-7.558m0 0v-.262m0 .001h7.558m0 0v.262M90.776 230.379l.891-.084m0 0l.021.225m0 0l-.476.046m0 0l1.383 1.142m0 0l-.126.152m0 0l-.642-.53m0 0l-.067.082m0 0l.74.611m0 0l-.121.146m0 0l-.74-.61m0 0l-.08.096m0 0l.602.497m0 0l-.109.13m0 0l-.6-.497m0 0l-.081.098m0 0l.414.343m0 0l-.115.139m0 0l-1.422-1.174M102.955 221.075H80.284m0 0v22.672m0 0h22.671m0 0v-22.672M24.738 253.571H9.623m0 0v-20.404m0 0h15.115m0 0v20.404M80.284 245.636h69.148m0 0v-1.89m0 0H80.284m0 0v1.89M245.023 196.182v-.963m0 0h1.204m0 0v-12.524m0 0h-1.204m0 0v-.964M235.019 194.718v-9.634m0 0h.478m0 0v.723m0 0h-.237m0 0v8.188m0 0h.237m0 0v.723m0 0h-.478M235.497 185.085l.104.048m.103.047l.103.047m.103.046l.104.048m.102.046l.104.047m.102.048l.104.048m.102.047l.104.047m.102.046l.104.047m.103.047l.103.048m.103.047l.103.047m.103.048l.103.047m.104.046l.102.047m.104.048l.103.048m.103.046l.103.047m.103.048l.103.046m.103.047l.103.047m.103.048l.103.047m.104.047l.102.048M235.497 194.718v-.078m0-.113v-.114m0-.113v-.113m0-.114v-.078m0 0l.052-.041m.088-.072l.089-.071m.087-.072l.088-.071m.088-.071l.088-.072m.088-.072l.088-.071m.088-.071l.088-.072m.089-.071l.087-.072m.088-.071l.088-.072m.088-.071l.088-.071m.089-.072l.087-.071m.089-.072l.087-.071m.088-.072l.088-.071m.088-.071l.088-.072m.088-.072l.088-.071m.088-.071l.089-.072m.087-.071l.088-.071m.088-.072l.088-.072m.088-.071l.088-.071m.088-.072l.089-.071m.088-.071l.087-.072m.088-.072l.088-.071m.088-.071l.088-.072m.088-.072l.052-.041M235.497 185.085v.078m0 .112v.114m0 .113v.113m0 .114v.078m0 0l.052.042m.088.072l.089.071m.087.071l.088.072m.088.072l.088.071m.088.071l.088.071m.088.071l.088.072m.089.072l.087.071m.088.071l.088.072m.088.072l.088.072m.089.07l.087.072m.089.071l.087.071m.088.072l.088.071m.088.072l.088.071m.088.072l.088.071m.088.072l.089.072m.087.07l.088.072m.088.072l.088.072m.088.07l.088.071m.088.073l.089.071m.088.071l.087.071m.088.073l.088.071m.088.071l.088.073m.088.071l.052.042M251.266 177.621h-21.727m0 0v-14.736m0-.001h24.939m0 0V147.58m0 .001h22.672m0 0v22.672m0 0h-25.884m0 0v7.368M357.068 170.253h22.672m0 0v-22.672m0 0h-22.672m0 0v22.672M334.396 170.253h22.672m0 0v-22.672m0 0h-22.672m0 0v22.672M311.724 170.253h22.672m0 0v-22.672m0 0h-22.672m0 0v22.672M267.424 21.479l3.68-.86m0 0l1.584-3.431m0 0l-1.584 3.431m0 0l1.306 3.546M363.582 21.479l-3.68-.86m0 0l-1.583-3.431m0 0l1.583 3.431m0 0l-1.305 3.546M136.102 348.815l.861 3.68m0 0l3.431 1.584m0 0l-3.431-1.584m0 0l-3.547 1.306M136.102 444.972l.861-3.68m0 0l3.431-1.583m0 0l-3.431 1.583m0 0l-3.547-1.305M18.21 348.419l.86 3.68m0 0l3.431 1.584m0 0l-3.431-1.584m0 0l-3.546 1.305M18.21 444.577l.86-3.68m0 0l3.431-1.584m0 0l-3.431 1.584m0 0l-3.546-1.306M351.4 231.542h3.028m0 0v-.859m0-.001v-17.175m0 .001v-.859m0-.001H351.4M357.856 212.648h-3.427m0 0v.859m0 .001h3.224m0 0v-.058m0-.001l-.196-.294m0 .001l.087-.342m0-.001l.312-.165M360.215 213.45l-.197-.294m0 0l.087-.343m0 0l.312-.164m0 0h-2.561m0 0l-.313.164m0 0l-.087.343m0 0l.196.294m0 0v17.291m0 0l-.196.293m0 0l.087.343m0 0l.313.165m0 0h2.561m0 0l-.312-.165m0 0l-.087-.343m0 0l.197-.293m0 0V213.45M357.856 231.542l-.312-.165m0 0l-.087-.342m0-.001l.196-.294m0 .001v-.058m0-.001h-3.224m0 0v.859m0 .001h3.427M360.62 229.877l.225-1.004v-13.557l-.225-1.004zM360.62 214.312v15.566m0 0l.227-1.005m0 0v-13.556m0 0l-.227-1.005M360.62 213.45l.196-.294m0 0l-.087-.343m0 0l-.312-.164m0 0l-.313.164m0 0l-.087.343m0 0l.198.294m0 0v17.291m0 0l-.198.293m0 0l.087.343m0 0l.313.165m0 0l.312-.165m0 0l.087-.343m0 0l-.196-.293m0 0V213.45M351.4 253.458h3.028m0 0v-.859m0 0v-17.175m0 0v-.859m0 0H351.4M357.856 234.565h-3.427m0 0v.859m0 0h3.224m0 0v-.058m0 0l-.196-.293m0 0l.087-.343m0 0l.312-.165M360.215 235.366l-.197-.293m0 0l.087-.343m0 0l.312-.165m0 0h-2.561m0 0l-.313.165m0 0l-.087.343m0 0l.196.293m0 0v17.291m0 0l-.196.293m0 0l.087.343m0 0l.313.165m0 0h2.561m0 0l-.312-.165m0 0l-.087-.343m0 0l.197-.293m0 0v-17.291M357.856 253.458l-.312-.165m0 0l-.087-.342m0 0l.196-.294m0 0v-.058m0 0h-3.224m0 0v.859m0 0h3.427M360.62 251.794l.225-1.004v-13.556l-.225-1.005zM360.62 236.228v15.566m0 .001l.227-1.005m0-.001v-13.556m0 .001l-.227-1.005M360.62 235.366l.196-.293m0 0l-.087-.343m0 0l-.312-.165m0 0l-.313.165m0 0l-.087.343m0 0l.198.293m0 0v17.291m0 0l-.198.293m0 0l.087.343m0 0l.313.165m0 0l.312-.165m0 0l.087-.343m0 0l-.196-.293m0 0v-17.291M317.392 231.542h-3.027m0 0v-.859m0-.001v-17.175m0 .001v-.859m0-.001h3.027M308.578 213.45l.196-.294m0 0l-.087-.343m0 0l-.312-.164m0 0h2.561m0 0l.313.164m0 0l.087.343m0 0l-.196.294m0 0v17.291m0 0l.196.293m0 0l-.087.343m0 0l-.313.165m0 0h-2.561m0 0l.312-.165m0 0l.087-.343m0 0l-.196-.293m0 0V213.45M310.937 231.542l.312-.165m0 0l.087-.342m0-.001l-.196-.294m0 .001v-.058m0-.001h3.225m0 0v.859m0 .001h-3.428M307.945 215.316v13.558l.227 1.003v-15.565zM308.172 214.312v15.566m0 0l-.227-1.005m0 0v-13.556m0 0l.227-1.005M308.172 213.45l-.196-.294m0 0l.087-.343m0 0l.312-.164m0 0l.313.164m0 0l.087.343m0 0l-.197.294m0 0v17.291m0 0l.197.293m0 0l-.087.343m0 0l-.313.165m0 0l-.312-.165m0 0l-.087-.343m0 0l.196-.293m0 0V213.45M317.392 253.458h-3.027m0 0v-.859m0 0v-17.175m0 0v-.859m0 0h3.027M310.937 234.565h3.428m0 0v.859m0 0h-3.225m0 0v-.058m0 0l.196-.293m0 0l-.087-.343m0 0l-.312-.165M308.578 235.366l.196-.293m0 0l-.087-.343m0 0l-.312-.165m0 0h2.561m0 0l.313.165m0 0l.087.343m0 0l-.196.293m0 0v17.291m0 0l.196.293m0 0l-.087.343m0 0l-.313.165m0 0h-2.561m0 0l.312-.165m0 0l.087-.343m0 0l-.196-.293m0 0v-17.291M310.937 253.458l.312-.165m0 0l.087-.342m0 0l-.196-.294m0 0v-.058m0 0h3.225m0 0v.859m0 0h-3.428M307.945 237.234v13.556l.227 1.004v-15.565zM308.172 236.228v15.566m0 .001l-.227-1.005m0-.001v-13.556m0 .001l.227-1.005M308.172 235.366l-.196-.293m0 0l.087-.343m0 0l.312-.165m0 0l.313.165m0 0l.087.343m0 0l-.197.293m0 0v17.291m0 0l.197.293m0 0l-.087.343m0 0l-.313.165m0 0l-.312-.165m0 0l-.087-.343m0 0l.196-.293m0 0v-17.291M351.4 256.481h3.028m0 0v.859m0 .001v17.175m0-.001v.859m0 .001H351.4M357.856 275.375h-3.427m0 0v-.859m0-.001h3.224m0 0v.058m0 .001l-.196.293m0 0l.087.343m0 0l.312.165M360.215 274.573l-.197.293m0 0l.087.343m0 0l.312.165m0 0h-2.561m0 0l-.313-.165m0 0l-.087-.343m0 0l.196-.293m0 0v-17.291m0 0l-.196-.293m0 0l.087-.343m0 0l.313-.165m0 0h2.561m0 0l-.312.165m0 0l-.087.343m0 0l.197.293m0 0v17.291M357.856 256.481l-.312.165m0 0l-.087.342m0 0l.196.294m0 0v.058m0 .001h-3.224m0 0v-.859m0-.001h3.427M360.62 273.711l.225-1.004V259.15l-.225-1.005zM360.62 273.71v-15.565m0 .001l.227 1.004m0-.001v13.557m0 .001l-.227 1.004M360.62 274.573l.196.293m0 0l-.087.343m0 0l-.312.165m0 0l-.313-.165m0 0l-.087-.343m0 0l.198-.293m0 0v-17.291m0 0l-.198-.293m0 0l.087-.343m0 0l.313-.165m0 0l.312.165m0 0l.087.343m0 0l-.196.293m0 0v17.291M317.392 256.481h-3.027m0 0v.859m0 .001v17.175m0-.001v.859m0 .001h3.027M310.937 275.375h3.428m0 0v-.859m0-.001h-3.225m0 0v.058m0 .001l.196.293m0 0l-.087.343m0 0l-.312.165M308.578 274.573l.196.293m0 0l-.087.343m0 0l-.312.165m0 0h2.561m0 0l.313-.165m0 0l.087-.343m0 0l-.196-.293m0 0v-17.291m0 0l.196-.293m0 0l-.087-.343m0 0l-.313-.165m0 0h-2.561m0 0l.312.165m0 0l.087.343m0 0l-.196.293m0 0v17.291M310.937 256.481l.312.165m0 0l.087.342m0 0l-.196.294m0 0v.058m0 .001h3.225m0 0v-.859m0-.001h-3.428M307.945 259.15v13.557l.227 1.004v-15.565zM308.172 273.71v-15.565m0 .001l-.227 1.004m0-.001v13.557m0 .001l.227 1.004M308.172 274.573l-.196.293m0 0l.087.343m0 0l.312.165m0 0l.313-.165m0 0l.087-.343m0 0l-.197-.293m0 0v-17.291m0 0l.197-.293m0 0l-.087-.343m0 0l-.313-.165m0 0l-.312.165m0 0l-.087.343m0 0l.196.293m0 0v17.291M317.393 283.612h34.008m0 0V204.26m0 0h-34.008m0 0v79.352M310.937 212.649h3.428m0 0v.859m0 0h-3.225m0 0v-.058m0 0l.196-.293m0 0l-.087-.343m0 0l-.312-.165"/></g><g id="sizes_5_"><path d="M27.894 246.053l-.727-.348c-.485-.232-.874-.567-1.168-1.008s-.48-.97-.559-1.59h1.625c.047.323.148.589.305.797s.358.363.605.465.538.152.871.152c.526 0 .935-.141 1.227-.422s.438-.677.438-1.188v-.344c0-.567-.138-1.007-.414-1.316s-.667-.465-1.172-.465h-.805v-1.516h.805c.442 0 .786-.133 1.031-.398s.367-.641.367-1.125v-.352c0-.448-.129-.794-.387-1.039s-.624-.367-1.098-.367c-.271 0-.513.051-.727.152s-.395.258-.543.469-.257.476-.324.793h-1.617c.104-.62.301-1.151.59-1.594s.655-.778 1.098-1.008.95-.344 1.523-.344c.979 0 1.737.258 2.273.773s.805 1.242.805 2.18v.188c0 .567-.153 1.063-.461 1.484s-.742.729-1.305.922c.62.136 1.101.44 1.441.914s.512 1.078.512 1.813v.188c0 .661-.128 1.227-.383 1.695s-.626.825-1.113 1.07-1.074.367-1.762.367l-.951.002zM34.214 244.342h1.594v1.594l-1.594 1.578v-3.172zM39.64 245.717c-.445-.224-.808-.55-1.086-.977s-.465-.94-.559-1.539v-.008h1.594v.008c.058.417.224.741.5.973s.636.348 1.078.348c.511 0 .905-.171 1.184-.512s.418-.821.418-1.441v-.953c0-.614-.14-1.093-.418-1.434s-.673-.512-1.184-.512c-.276 0-.542.078-.797.234s-.479.375-.672.656h-1.453v-5.984h5.789v1.516h-4.195v2.555a2.275 2.275 0 011.414-.508c.656 0 1.218.136 1.684.406s.82.667 1.063 1.188.363 1.148.363 1.883v.953c0 .734-.125 1.362-.375 1.883s-.614.918-1.094 1.191-1.055.41-1.727.41c-.573 0-1.081-.113-1.527-.336zM101.152 450.479h-1.594v-9.625l-1.617.992v-1.648l1.617-1.078h1.594v11.359zM106.472 450.479h-1.594v-9.625l-1.617.992v-1.648l1.617-1.078h1.594v11.359zM108.894 448.886h1.594v1.594l-1.594 1.578v-3.172zM114.191 450.206c-.521-.261-.923-.629-1.207-1.105s-.426-1.03-.426-1.66v-.188c0-.567.142-1.102.426-1.602s.663-.878 1.137-1.133c-.401-.219-.723-.535-.965-.949s-.363-.851-.363-1.309v-.273c0-.594.133-1.116.398-1.566s.641-.8 1.125-1.047 1.047-.371 1.688-.371 1.203.124 1.688.371.859.597 1.125 1.047.398.973.398 1.566v.273c0 .469-.124.909-.371 1.32s-.574.724-.98.938c.479.261.863.64 1.152 1.137s.434 1.03.434 1.598v.188c0 .63-.142 1.184-.426 1.66s-.687.845-1.207 1.105-1.125.391-1.813.391-1.292-.13-1.813-.391zm2.789-1.359c.281-.146.499-.351.652-.613s.23-.566.23-.91v-.109c0-.349-.077-.655-.23-.918s-.371-.468-.652-.613-.606-.219-.977-.219-.695.073-.977.219-.499.352-.652.617-.23.573-.23.922v.117c0 .344.077.646.23.906s.371.462.652.605.606.215.977.215.696-.074.977-.219zm-.133-5.121c.245-.138.435-.335.57-.59s.203-.55.203-.883v-.109c0-.317-.067-.599-.203-.844s-.325-.434-.57-.566-.526-.199-.844-.199-.599.066-.844.199-.435.321-.57.566-.203.528-.203.852v.117c0 .328.067.618.203.871s.325.448.57.586.526.207.844.207.599-.07.844-.207zM212.257 331.701h-1.594v-9.625l-1.617.992v-1.648l1.617-1.078h1.594v11.359zM216.82 331.818l-.727-.348c-.485-.232-.874-.567-1.168-1.008s-.48-.97-.559-1.59h1.625c.047.323.148.589.305.797s.358.363.605.465.538.152.871.152c.526 0 .935-.141 1.227-.422s.438-.677.438-1.188v-.344c0-.567-.138-1.007-.414-1.316s-.667-.465-1.172-.465h-.805v-1.516h.805c.442 0 .786-.133 1.031-.398s.367-.641.367-1.125v-.352c0-.448-.129-.794-.387-1.039s-.624-.367-1.098-.367c-.271 0-.513.051-.727.152s-.395.258-.543.469-.257.476-.324.793h-1.617c.104-.62.301-1.151.59-1.594s.655-.778 1.098-1.008.95-.344 1.523-.344c.979 0 1.737.258 2.273.773s.805 1.242.805 2.18v.188c0 .567-.153 1.063-.461 1.484s-.742.729-1.305.922c.62.136 1.101.44 1.441.914s.512 1.078.512 1.813v.188c0 .661-.128 1.227-.383 1.695s-.626.825-1.113 1.07-1.074.367-1.762.367l-.951.002zM223.14 330.107h1.594v1.594l-1.594 1.578v-3.172zM227.746 330.967c-.55-.567-.824-1.359-.824-2.375v-5.164c0-1.021.276-1.813.828-2.379s1.356-.848 2.414-.848c1.063 0 1.868.281 2.418.844s.824 1.356.824 2.383v5.164c0 1.021-.276 1.813-.828 2.379s-1.356.848-2.414.848c-1.063-.001-1.868-.285-2.418-.852zm3.664-1.106c.269-.294.402-.718.402-1.27v-5.164c0-.552-.133-.976-.398-1.27s-.683-.441-1.25-.441-.984.147-1.25.441-.398.718-.398 1.27v5.164c0 .552.134.976.402 1.27s.684.441 1.246.441.977-.147 1.246-.441z"/><g><path d="M348.507 442.451h-1.594v-9.625l-1.617.992v-1.648l1.617-1.078h1.594v11.359zM352.73 442.232c-.445-.224-.808-.55-1.086-.977s-.465-.94-.559-1.539v-.008h1.594v.008c.058.417.224.741.5.973s.636.348 1.078.348c.511 0 .905-.171 1.184-.512s.418-.821.418-1.441v-.953c0-.614-.14-1.093-.418-1.434s-.673-.512-1.184-.512c-.276 0-.542.078-.797.234s-.479.375-.672.656h-1.453v-5.984h5.789v1.516h-4.195v2.555a2.275 2.275 0 011.414-.508c.656 0 1.218.136 1.684.406s.82.667 1.063 1.188.363 1.148.363 1.883v.953c0 .734-.125 1.362-.375 1.883s-.614.918-1.094 1.191-1.055.41-1.727.41c-.573 0-1.082-.112-1.527-.336zM359.64 440.857h1.594v1.594l-1.594 1.578v-3.172zM364.246 441.717c-.55-.567-.824-1.359-.824-2.375v-5.164c0-1.021.276-1.813.828-2.379s1.356-.848 2.414-.848c1.063 0 1.868.281 2.418.844s.824 1.356.824 2.383v5.164c0 1.021-.276 1.813-.828 2.379s-1.356.848-2.414.848c-1.063-.001-1.868-.285-2.418-.852zm3.664-1.106c.269-.294.402-.718.402-1.27v-5.164c0-.552-.133-.976-.398-1.27s-.683-.441-1.25-.441-.984.147-1.25.441-.398.718-.398 1.27v5.164c0 .552.134.976.402 1.27s.684.441 1.246.441.977-.147 1.246-.441z"/></g><g><path d="M256.691 183.019h-1.594v-9.625l-1.617.992v-1.648l1.617-1.078h1.594v11.359zM259.113 179.894l3.813-8.227h1.641l-3.719 8.133h5.57v1.477h-7.305v-1.383zm4.898-3.555h1.555v6.688h-1.555v-6.688zM268.214 181.425h1.594v1.594l-1.594 1.578v-3.172zM273.511 182.745c-.521-.261-.923-.629-1.207-1.105s-.426-1.03-.426-1.66v-.188c0-.567.142-1.102.426-1.602s.663-.878 1.137-1.133c-.401-.219-.723-.535-.965-.949s-.363-.851-.363-1.309v-.273c0-.594.133-1.116.398-1.566s.641-.8 1.125-1.047 1.047-.371 1.688-.371 1.203.124 1.688.371.859.597 1.125 1.047.398.973.398 1.566v.273c0 .469-.124.909-.371 1.32s-.574.724-.98.938c.479.261.863.64 1.152 1.137s.434 1.03.434 1.598v.188c0 .63-.142 1.184-.426 1.66s-.687.845-1.207 1.105-1.125.391-1.813.391-1.292-.13-1.813-.391zm2.789-1.359c.281-.146.499-.351.652-.613s.23-.566.23-.91v-.109c0-.349-.077-.655-.23-.918s-.371-.468-.652-.613-.606-.219-.977-.219-.695.073-.977.219-.499.352-.652.617-.23.573-.23.922v.117c0 .344.077.646.23.906s.371.462.652.605.606.215.977.215.696-.074.977-.219zm-.132-5.121c.245-.138.435-.335.57-.59s.203-.55.203-.883v-.109c0-.317-.067-.599-.203-.844s-.325-.434-.57-.566-.526-.199-.844-.199-.599.066-.844.199-.435.321-.57.566-.203.528-.203.852v.117c0 .328.067.618.203.871s.325.448.57.586.526.207.844.207.598-.07.844-.207z"/></g><g><path d="M139.763 189.767h-1.594v-9.625l-1.617.992v-1.648l1.617-1.078h1.594v11.359zM142.185 186.642l3.813-8.227h1.641l-3.719 8.133h5.57v1.477h-7.305v-1.383zm4.899-3.555h1.555v6.688h-1.555v-6.688zM151.287 188.173h1.594v1.594l-1.594 1.578v-3.172zM160.935 179.829l-2.938 9.938h-1.695l2.938-9.844h-2.891v1.633h-1.594v-3.148h6.18v1.421z"/></g><g><path d="M223.269 105.561h-1.594v-9.625l-1.617.992V95.28l1.617-1.078h1.594v11.359zM231.714 95.624l-2.938 9.938h-1.695l2.938-9.844h-2.891v1.633h-1.594v-3.148h6.18v1.421zM233.746 103.968h1.594v1.594l-1.594 1.578v-3.172zM239.043 105.288c-.521-.261-.923-.629-1.207-1.105s-.426-1.03-.426-1.66v-.188c0-.567.142-1.102.426-1.602s.663-.878 1.137-1.133c-.401-.219-.723-.535-.965-.949s-.363-.851-.363-1.309v-.273c0-.594.133-1.116.398-1.566s.641-.8 1.125-1.047 1.047-.371 1.688-.371 1.203.124 1.688.371.859.597 1.125 1.047.398.973.398 1.566v.273c0 .469-.124.909-.371 1.32s-.574.724-.98.938c.479.261.863.64 1.152 1.137s.434 1.03.434 1.598v.188c0 .63-.142 1.184-.426 1.66s-.687.845-1.207 1.105-1.125.391-1.813.391-1.293-.13-1.813-.391zm2.789-1.359c.281-.146.499-.351.652-.613s.23-.566.23-.91v-.109c0-.349-.077-.655-.23-.918s-.371-.468-.652-.613-.606-.219-.977-.219-.695.073-.977.219-.499.352-.652.617-.23.573-.23.922v.117c0 .344.077.646.23.906s.371.462.652.605.606.215.977.215.695-.074.977-.219zm-.133-5.121c.245-.138.435-.335.57-.59s.203-.55.203-.883v-.109c0-.317-.067-.599-.203-.844s-.325-.434-.57-.566-.526-.199-.844-.199-.599.066-.844.199-.435.321-.57.566-.203.528-.203.852v.117c0 .328.067.618.203.871s.325.448.57.586.526.207.844.207.599-.07.844-.207z"/></g><g><path d="M101.037 75.242l3.813-8.227h1.641l-3.719 8.133h5.57v1.477h-7.305v-1.383zm4.898-3.555h1.555v6.688h-1.555v-6.688zM110.138 76.773h1.594v1.594l-1.594 1.578v-3.172zM114.744 77.633c-.55-.567-.824-1.359-.824-2.375v-5.164c0-1.021.276-1.813.828-2.379s1.356-.848 2.414-.848c1.063 0 1.868.281 2.418.844s.824 1.356.824 2.383v5.164c0 1.021-.276 1.813-.828 2.379s-1.356.848-2.414.848c-1.063-.001-1.868-.285-2.418-.852zm3.664-1.106c.269-.294.402-.718.402-1.27v-5.164c0-.552-.133-.976-.398-1.27s-.683-.441-1.25-.441-.984.147-1.25.441-.398.718-.398 1.27v5.164c0 .552.134.976.402 1.27s.684.441 1.246.441.977-.147 1.246-.441z"/></g><g><path d="M95.537 97.332l3.961-5.281c.229-.302.407-.616.535-.941s.191-.629.191-.91v-.016c0-.453-.133-.805-.398-1.055s-.644-.375-1.133-.375c-.464 0-.839.137-1.125.41s-.461.66-.523 1.16v.008h-1.648v-.008c.094-.651.285-1.207.574-1.668s.663-.813 1.121-1.055.987-.363 1.586-.363c.677 0 1.255.116 1.734.348s.844.569 1.094 1.012.375.977.375 1.602v.008c0 .401-.083.82-.25 1.258s-.398.859-.695 1.266l-3.289 4.469h4.297v1.516h-6.406v-1.385zM103.818 97.121h1.594v1.594l-1.594 1.578v-3.172zM110.341 98.715h-1.594V89.09l-1.617.992v-1.648l1.617-1.078h1.594v11.359z"/></g></g><g id="walls"><g id="walls_1_"><path class="st3" d="M395.177 34.214h-15.492M402.735 34.214h-5.668M397.067 34.214h-1.89M395.177 100.34h-15.492M402.735 100.34h-5.668M397.067 100.34h-1.89M402.735 100.34V34.214M379.685 100.34V34.214M395.177 100.34v-3.778M395.177 96.562h1.89M397.067 96.562v3.778M397.067 62.554v1.889M397.067 64.443h-1.89M395.177 64.443v-1.889M396.122 96.562V64.443M395.177 96.562V64.443M397.067 64.443v32.119M395.177 62.554v-.945M395.177 61.609h.944M396.122 61.609v-.944M396.122 60.665h.945M397.067 60.665v1.89M397.067 34.214v3.778M397.067 37.993h-.945M396.122 37.993v-.944M396.122 37.048h-.944M395.177 37.048v-2.834M397.067 37.993v22.672M394.233 58.775V39.882M394.233 61.609v-2.834M394.233 58.775h1.889M396.122 58.775v2.834M396.122 61.609h-1.889M396.122 37.048v2.834M396.122 39.882h-1.889M394.233 39.882v-2.834M394.233 37.048h1.889M396.122 39.882v18.893M394.233 58.775V39.882M395.177 58.775V39.882M397.067 100.34h-1.89M397.067 100.34h-1.89M402.735 100.34h-5.668M395.177 100.34h-15.492M397.067 34.214h-1.89M397.067 34.214h-1.89M402.735 34.214h-5.668M395.177 34.214h-15.492M402.735 100.34h-23.05"/><g><path class="st3" d="M395.177 174.023h-15.492M402.735 174.023h-5.668M397.067 174.023h-1.89M395.177 257.154h-15.492M402.735 257.154h-5.668M397.067 257.154h-1.89M402.735 257.154v-83.131M379.685 257.154v-83.131M395.177 257.154v-3.779M395.177 253.374h1.89M397.067 253.374v3.779M397.067 202.364v1.889M397.067 204.252h-1.89M395.177 204.252v-1.889M396.122 253.374v-49.122M395.177 253.374v-49.122M397.067 204.252v49.122M395.177 202.364v-.945M395.177 201.419h.944M396.122 201.419v-.945M396.122 200.474h.945M397.067 200.474v1.89M397.067 174.023v3.779M397.067 177.802h-.945M396.122 177.802v-.945M396.122 176.857h-.944M395.177 176.857v-2.834M397.067 177.802v22.672M394.233 198.584v-18.893M394.233 201.419v-2.835M394.233 198.584h1.889M396.122 198.584v2.835M396.122 201.419h-1.889M396.122 176.857v2.835M396.122 179.692h-1.889M394.233 179.692v-2.835M394.233 176.857h1.889M396.122 179.692v18.893M394.233 198.584v-18.893M395.177 198.584v-18.893M397.067 257.154h-1.89M397.067 257.154h-1.89M402.735 257.154h-5.668M395.177 257.154h-15.492M397.067 174.023h-1.89M397.067 174.023h-1.89M402.735 174.023h-5.668M395.177 174.023h-15.492M379.685 257.154h23.05"/></g><g><path class="st3" d="M160.991 56.244c4.295-1.601 6.481-2.033 11.058-2.268"/><path class="st4" d="M160.891 56.285l11.158 25.805 1.512-.001v-.453l-11.283-25.95z"/><path class="st5" d="M55.975 151.544c6.027-2.247 9.139-2.871 15.563-3.198"/><path class="st4" d="M55.88 151.585l15.658 36.209 1.511-.001v-.453l-15.782-36.355z"/><g><path class="st5" d="M212.057 124.812c1.819 4.872 2.312 7.364 2.577 12.559"/><path class="st4" d="M212.015 124.712l-29.272 12.658v1.512h.453l29.419-12.783z"/><g><path class="st5" d="M118.319 151.459c-1.603-4.296-2.036-6.485-2.27-11.065"/><path class="st4" d="M118.36 151.552l25.803-11.159-.001-1.51h-.453l-25.949 11.281z"/></g></g><g><path class="st5" d="M165.957 308.444c1.788-4.812 2.317-7.432 2.579-12.56"/><path class="st4" d="M165.916 308.542l.601-1.387-29.419-12.782h-.453v1.511z"/></g><g><path class="st5" d="M89.722 308.448c-1.788-4.815-2.318-7.433-2.578-12.563"/><path class="st4" d="M89.763 308.542l29.271-12.658v-1.511h-.453l-29.418 12.782z"/></g><g><path class="st5" d="M92.789 276.595c-4.871 1.817-7.367 2.312-12.559 2.578"/><path class="st4" d="M92.887 276.553l-12.658-29.272h-1.511v.454l12.781 29.418z"/></g></g><path d="M379.685 100.34h23.05v73.683h-23.05v-26.072H314.58v-10.58h65.104V100.34h.001zM80.45.584c0 49.242.157 98.785.157 148.215h-7.558v-.453h-1.511V.584h8.912zm165.96 0h156.325v33.631h-23.05V11.543H246.41V.584h0zM.5 208.976h71.038v-21.183h1.511v-.453h7.558l-.001 30.704H9.568V459.31h16.816v21.16H.5V208.976h0zm159.836.98v41.341h-10.958v-41.341h10.958zM317.338 480.47h-90.687v-21.16h90.687v21.16h0zm-156.813 0H92.508v-21.16h68.017v21.16h0zm242.21-152.468h-23.05v-70.85h23.05v70.85z" fill-rule="evenodd" clip-rule="evenodd" stroke="#000" stroke-linecap="round" stroke-linejoin="round" stroke-miterlimit="3"/><path class="st4" d="M240.821 325.038h10.958v39h-10.958z"/><path class="st0" d="M214.181 140.393h12.28l.001 105.614h3.023v-82.753h24.94v-15.303h60.155v-10.58h-99.945v1.511h-.454v1.511zm-77.083 152.468v1.512h-.453v1.511h-9.184V459.31h-3.022V295.884h-5.405v-1.511h-.453v-1.512h18.517zM80.45.5h165.959v11.043h-4.078v81.618h-3.022V11.543h-64.238v42.886h-1.511v-.453h-1.511V18.533h-75.95v8.124H80.607v-3.022h12.469V11.543H80.45V.5zm79.886 209.456h-10.958v-15.717h10.958v15.717zM172.05 11.543H96.099v3.967h75.951v-3.967zm79.352 136.408v12.28h-21.917v-12.28h21.917zM9.568 233.537v-3.022h20.216v-12.471h3.023v12.471h44.776v-12.471h3.023v29.237h-1.511v.454h-1.512v-14.198H9.568zm81.051-96.167v-51.2l61.593.001v51.2h-8.503v1.512h.453v1.51l39.034.001v-1.511h-.453v-1.511h-7.671V81.636h-1.511v.453h-1.511v1.058H80.608v3.023h6.989v51.201h-6.99v3.022h35.442v-1.51h.454v-1.512l-25.884-.001zm81.431-22.105v22.106h-16.815v-22.106h16.815zm-16.815-3.022h16.815V86.17h-16.815v26.073zm96.544 347.067h-10.958v-95.272h10.958v95.272zm-10.958-134.272v-29.154h-72.286v-1.511h-.453v-1.512h83.697v32.177h-10.958zM87.965 292.853h-7.368v-13.689h-1.511v-.453h-1.512v33.792l-68.005.008v3.022l68.005-.008v22.672h3.023v-42.321h6.915v-1.511h.453v-1.512zm61.789-74.809v-3.022H80.606v3.022h69.148z"/><g><path class="st7" d="M395.178 410.99h1.89v5.133h-1.89zM395.178 367.632h1.89v5.133h-1.89z"/><path class="st5" d="M395.177 328.003h-15.492M402.735 328.003h-5.668M397.067 328.003h-1.89M402.735 328.003V480.47M379.685 328.003V459.31M395.177 328.003v4.723M395.177 332.726h1.89M397.067 332.726v-4.724M397.067 472.912v-4.722M397.067 468.19h-1.89M395.177 468.19v4.723M397.067 474.802v-1.89M395.177 332.726V468.19M397.067 468.19V332.726M397.067 328.003h-1.89M397.067 328.003h-1.89M402.735 328.003h-5.668M395.177 328.003h-15.492M317.338 472.912V459.31M317.338 480.47v-5.668M317.338 474.802v-1.89M317.338 480.47h85.396M317.338 459.31h62.347M317.338 472.912h4.724M322.061 472.912v1.89M322.061 474.802h-4.724M395.177 474.802h-4.724M390.454 474.802v-1.89M390.454 472.912h4.724M397.067 474.802h-1.89M322.061 472.912h68.393M390.454 474.802h-68.393M317.338 474.802v-1.89M317.338 474.802v-1.89M317.338 480.47v-5.668M317.338 472.912V459.31"/><g><path class="st5" d="M226.651 472.912V459.31M226.651 480.47v-5.668M226.651 474.802v-1.89M160.524 472.912V459.31M160.524 480.47v-5.668M160.524 474.802v-1.89M160.524 480.47h66.127M160.524 459.31h66.127M160.524 472.912h3.779M164.303 472.912v1.89M164.303 474.802h-3.779M198.311 474.802h-1.89M196.422 474.802v-1.89M196.422 472.912h1.889M164.303 473.858h32.118M164.303 472.912h32.118M196.422 474.802h-32.118M198.311 472.912h.944M199.256 472.912v.946M199.256 473.858h.944M200.2 473.858v.944M200.2 474.802h-1.889M226.651 474.802h-3.779M222.872 474.802v-.944M222.872 473.858h.945M223.817 473.858v-.945M223.817 472.912h2.834M222.872 474.802H200.2M202.089 471.968h18.894M199.256 471.968h2.833M202.089 471.968v1.89M202.089 473.858h-2.833M199.256 473.858v-1.89M223.817 473.858h-2.834M220.983 473.858v-1.89M220.983 471.968h2.834M223.817 471.968v1.89M220.983 473.858h-18.894M202.089 471.968h18.894M202.089 472.912h18.894M160.524 474.802v-1.89M160.524 474.802v-1.89M160.524 480.47v-5.668M160.524 472.912V459.31M226.651 474.802v-1.89M226.651 474.802v-1.89M226.651 480.47v-5.668M226.651 472.912V459.31M160.524 480.47v-21.16"/></g><g><path class="st5" d="M92.545 473.858v-1.889M26.419 473.858v-1.889M26.419 471.969h3.778M30.197 471.969v1.889M30.197 473.858h-3.778M57.593 473.858h-1.89M55.703 473.858v-1.889M55.703 471.969h1.89M30.197 472.914h25.506M30.197 471.969h25.506M55.703 473.858H30.197M57.593 471.969h.944M58.537 471.969v.944M58.537 472.914h.944M59.482 472.914v.944M59.482 473.858h-1.889M92.545 473.858h-3.779M88.766 473.858v-.944M88.766 472.914h.945M89.711 472.914v-.945M89.711 471.969h2.834M88.766 473.858H59.482M61.371 471.024h25.506M58.537 471.024h2.834M61.371 471.024v1.89M61.371 472.914h-2.834M58.537 472.914v-1.891M89.711 472.914h-2.834M86.877 472.914v-1.891M86.877 471.024h2.834M89.711 471.024v1.89M86.877 472.914H61.371M61.371 471.024h25.506M26.419 473.858v-1.889M26.419 473.858v-1.889M92.545 473.858v-1.889M92.545 473.858v-1.889M61.371 471.969h25.506"/><g><path class="st5" d="M26.276 472.894v-13.635M26.276 480.47v-5.681M92.403 472.894v-13.635M92.403 480.47v-5.681M92.403 480.47H26.276M92.403 459.259H26.276M92.403 480.47v-7.576M92.403 472.894v-13.635M26.276 480.47v-5.681M26.276 472.894v-13.635M26.276 480.47v-21.211"/></g></g></g><g><path class="st8" d="M80.89.577l-.4.35M88.32.577l-7.83 6.89M95.74.577l-12.53 11.04M103.16.577l-12.53 11.04M96.14 13.297l-3.03 2.67M110.58.577l-12.54 11.04M84.31 23.717l-3.43 3.02M91.73 23.717l-3.43 3.02M100.96 15.587l-3.43 3.02M118 .577l-12.53 11.04M96.14 19.837l-3.03 2.67M108.39 15.587l-3.43 3.02M125.43.577l-12.54 11.04M96.14 26.377l-.41.36M115.81 15.587l-3.43 3.02M132.85.577l-12.53 11.04M123.23 15.587l-3.43 3.02M140.27.577l-12.53 11.04M130.65 15.587l-3.42 3.02M147.69.577l-12.53 11.04M138.07 15.587l-3.43 3.02M155.11.577l-12.53 11.04M145.5 15.587l-3.43 3.02M162.53.577L150 11.617M152.92 15.587l-3.43 3.02M169.96.577l-12.54 11.04M160.34 15.587l-3.43 3.02M177.38.577l-12.53 11.04M83.56 83.227l-2.92 2.57M167.76 15.587l-3.42 3.02M90.98 83.227l-3.43 3.02M184.8.577l-12.71 11.2M98.41 83.227l-3.43 3.02M192.23.577l-12.53 11.04M175.11 15.657l-3.35 2.95M90.66 90.047l-3.03 2.67M105.83 83.227l-3.43 3.02M199.65.577l-12.53 11.04M175.11 22.197l-3.02 2.66M90.66 96.587l-3.03 2.67M113.24 83.227l-3.42 3.02M207.07.577l-12.54 11.04M175.11 28.727l-3.02 2.66M90.66 103.117l-3.03 2.67M120.67 83.227l-3.43 3.02M214.49.577l-12.53 11.04M175.11 35.267l-3.02 2.66M90.66 109.657l-3.03 2.67M90.66 116.207l-3.03 2.66M175.11 41.807l-3.02 2.66M221.91.577l-12.53 11.04M128.09 83.227l-3.43 3.02M90.66 122.737l-3.03 2.67M229.34.577l-12.53 11.04M175.11 48.347l-3.02 2.66M135.52 83.227l-3.43 3.02M90.66 129.277l-3.03 2.67M236.76.577l-12.53 11.04M142.94 83.227l-3.43 3.02M81.39 137.447l-.75.66M90.66 135.817l-5.28 4.65M244.18.577l-12.53 11.04M150.36 83.227l-3.43 3.02M96.23 137.447l-3.43 3.02M246.45 5.117l-7.38 6.5M157.78 83.227l-5.53 4.87M155.27 91.977l-3.02 2.66M103.65 137.447l-3.42 3.02M242.37 15.247l-3.02 2.66M165.2 83.227l-3.43 3.02M155.27 98.517l-3.02 2.66M111.08 137.447l-3.43 3.02M242.37 21.787l-3.02 2.66M174.34 81.717l-5.14 4.53M116.09 139.567l-1.02.9M175.11 87.577l-3.02 2.66M242.37 28.327l-3.02 2.66M155.27 105.057l-3.02 2.66M12.76 230.597l-3.16 2.78M20.18 230.597l-3.43 3.02M32.84 219.447l-3.02 2.66M175.11 94.117l-3.02 2.66M242.37 34.867l-3.02 2.66M155.27 111.597l-3.02 2.66M32.84 225.987l-3.02 2.66M27.61 230.597l-3.43 3.02M161.87 112.317l-3.44 3.03M242.37 41.407l-3.02 2.66M175.11 100.657l-3.02 2.66M155.27 118.137l-3.02 2.66M35.02 230.597l-3.43 3.02M169.29 112.317l-3.44 3.03M242.37 47.937l-3.02 2.66M175.11 107.187l-3.02 2.66M155.27 124.667l-3.02 2.66M42.44 230.597l-3.42 3.02M148.18 137.447l-3.42 3.02M175.11 113.727l-3.02 2.66M242.37 54.477l-3.02 2.66M155.27 131.207l-3.02 2.66M49.87 230.597l-3.43 3.02M175.11 120.267l-3.02 2.66M242.37 61.017l-3.02 2.66M155.61 137.447l-3.43 3.02M57.29 230.597l-3.43 3.02M175.11 126.807l-3.02 2.66M242.37 67.557l-3.02 2.66M163.03 137.447l-3.42 3.02M64.71 230.597l-3.42 3.02M78.88 218.117l-1.26 1.11M82.31 215.097l-1.67 1.47M175.11 133.347l-3.02 2.66M242.37 74.097l-3.02 2.66M170.46 137.447l-3.43 3.02M177.88 137.447l-3.43 3.02M242.37 80.637l-3.02 2.66M89.73 215.097l-3.43 3.02M72.14 230.597l-3.43 3.02M80.64 223.107l-3.02 2.66M242.37 87.177l-3.02 2.66M183.23 139.267l-1.36 1.2M97.15 215.097l-3.42 3.02M80.64 229.647l-4.51 3.97M104.57 215.097l-3.43 3.02M80.64 236.177l-3.02 2.66M80.64 242.717l-3.02 2.66M112 215.097l-3.43 3.02M119.42 215.097l-3.43 3.02M16.17 312.587l-3.43 3.02M214.99 137.447l-.32.28M150.43 194.317l-1.02.9M126.84 215.097l-3.43 3.02M134.26 215.097l-3.42 3.02M222.41 137.447l-3.43 3.02M157.85 194.317l-8.44 7.44M23.6 312.587l-3.43 3.02M141.69 215.097l-3.43 3.02M229.84 137.447l-3.43 3.02M160.37 198.637l-10.96 9.66M31.03 312.587l-3.44 3.02M237.25 137.447l-10.75 9.47M160.37 205.177l-5.52 4.86M149.11 215.097l-3.43 3.02M38.44 312.587l-3.43 3.02M244.67 137.447l-12.01 10.58M229.52 150.797l-3.02 2.66M80.63 281.957l-3.02 2.66M45.87 312.577l-3.44 3.03M80.63 288.497l-3.02 2.66M229.52 157.337l-3.02 2.66M252.1 137.447l-12.01 10.58M53.29 312.577l-3.44 3.03M83.03 292.927l-5.42 4.77M233.57 160.307l-3.42 3.02M229.52 163.877l-3.02 2.66M259.52 137.447l-12.01 10.58M60.72 312.577l-3.44 3.03M80.63 301.577l-3.02 2.66M87.55 295.477l-.54.48M241 160.307l-3.43 3.02M229.52 170.417l-3.02 2.66M266.95 137.447l-12.01 10.58M254.46 148.447l-3.02 2.66M68.14 312.577l-3.44 3.03M80.63 308.117l-3.02 2.66M248.42 160.307l-3.43 3.02M229.52 176.957l-3.02 2.66M274.37 137.447l-12.01 10.58M254.46 154.987l-3.02 2.66M75.56 312.577l-3.43 3.03M281.79 137.447l-12.01 10.58M254.46 161.527l-2.05 1.8M229.52 183.497l-3.02 2.66M80.63 314.657l-3.02 2.66M80.63 321.187l-3.02 2.66M289.21 137.447l-12.01 10.58M229.52 190.027l-3.02 2.66M80.63 327.727l-3.02 2.66M296.63 137.447l-12.01 10.58M229.52 196.567l-3.02 2.66M120.13 292.937l-1.51 1.33M304.06 137.447l-12.02 10.58M229.52 203.107l-3.02 2.66M127.55 292.937l-3.43 3.02M80.63 334.267l-3.02 2.66M127.5 299.517l-3.02 2.66M134.97 292.937l-3.43 3.02M229.52 209.647l-3.02 2.66M311.48 137.447l-12.01 10.58M127.5 306.057l-3.02 2.66M229.52 216.187l-3.02 2.66M314.62 141.217l-7.73 6.81M127.5 312.597l-3.02 2.66M314.62 147.757l-.3.27M229.52 222.727l-3.02 2.66M127.5 319.127l-3.02 2.67M229.52 229.257l-3.02 2.66M127.5 325.667l-3.02 2.66M229.52 235.797l-3.02 2.66M127.5 332.207l-3.02 2.66M172.08 292.937l-3.43 3.02M229.52 242.337l-3.02 2.66M127.5 338.747l-3.02 2.66M179.51 292.937l-3.43 3.02M127.5 345.287l-3.02 2.66M186.93 292.937l-3.43 3.02M194.35 292.937l-3.43 3.02M127.5 351.827l-2.54 2.24-.48.42M201.77 292.937l-3.43 3.02M127.5 358.357l-3.02 2.66M209.19 292.937l-3.43 3.02M127.5 364.897l-3.02 2.66M216.62 292.937l-3.43 3.02M127.5 371.437l-3.02 2.66M224.04 292.937l-3.43 3.02M127.5 377.977l-3.02 2.66M231.46 292.937l-3.43 3.02M127.5 384.517l-3.02 2.66M238.88 292.937l-3.43 3.02M127.5 391.057l-3.02 2.66M246.31 292.937l-5.45 4.8M127.5 397.597l-3.02 2.66M251.82 294.617l-10.96 9.65M127.5 404.137l-3.02 2.66M251.82 301.157l-10.96 9.65M127.5 410.667l-3.02 2.66M251.82 307.687l-10.96 9.66M127.5 417.207l-3.02 2.66M251.82 314.227l-5.49 4.84-5.47 4.82M127.5 423.747l-3.02 2.66M251.82 320.777l-4.93 4.34M127.5 430.287l-3.02 2.66M127.5 436.827l-3.02 2.66M127.5 443.357l-3.02 2.66M127.5 449.897l-3.02 2.66M127.5 456.447l-3.02 2.66M247.15 364.117l-6.29 5.54M251.82 366.537l-10.96 9.66M251.82 373.077l-10.96 9.66M251.82 379.617l-10.96 9.65M251.82 386.157l-10.96 9.65M251.82 392.687l-10.96 9.66M251.82 399.227l-10.96 9.66M251.82 405.777l-10.96 9.65M251.82 412.307l-10.96 9.66M251.82 418.847l-10.96 9.65M251.82 425.377l-10.96 9.66M251.82 431.927l-10.96 9.65M251.82 438.467l-10.96 9.65M251.82 444.997l-10.96 9.66M251.82 451.537l-8.91 7.85M251.82 458.077l-1.49 1.31"/></g><path class="st7" d="M214.181 140.393h12.28l.001 105.614h3.023v-82.753h24.94v-15.303h60.155v-10.58h-99.945v1.511h-.454v1.511zm-77.083 152.468v1.512h-.453v1.511h-9.184V459.31h-3.022V295.884h-5.405v-1.511h-.453v-1.512h18.517zM80.45.5h165.959v11.043h-4.078v81.618h-3.022V11.543h-64.238v42.886h-1.511v-.453h-1.511V18.533h-75.95v8.124H80.607v-3.022h12.469V11.543H80.45V.5zm79.886 209.456h-10.958v-15.717h10.958v15.717zM172.05 11.543H96.099v3.967h75.951v-3.967zm79.352 136.408h-21.917v12.28h21.917v-12.28zM9.568 233.537v-3.022h20.216v-12.471h3.023v12.471h44.776v-12.471h3.023v29.237h-1.511v.454h-1.512v-14.198H9.568zm81.051-96.167l25.885.001v1.512h-.454v1.51H80.608v-3.022h6.99V86.17h-6.989v-3.023h91.442v-1.058h1.511v-.453h1.511v55.735h7.671v1.511h.453v1.511l-39.034-.001v-1.51h-.453v-1.512h8.503v-51.2H90.619v51.2zm81.431-22.105h-16.815v22.106h16.815v-22.106zm-16.815-3.022h16.815V86.17h-16.815v26.073zm96.544 347.067h-10.958v-95.272h10.958v95.272zm-10.958-134.272v-29.154h-72.286v-1.511h-.453v-1.512h83.697v32.177h-10.958zM87.965 292.853h-7.368v-13.689h-1.511v-.453h-1.512v33.792l-68.005.008v3.022l68.005-.008v22.672h3.023v-42.321h6.915v-1.511h.453v-1.512zm61.789-74.809H80.606v-3.022h69.148v3.022z"/></g></g></svg>