<svg version="1.1" id="_x35_0" xmlns="http://www.w3.org/2000/svg" x="0" y="0" viewBox="0 0 347.861 430.064" xml:space="preserve"><style>.st0{fill-rule:evenodd;clip-rule:evenodd;fill:#fff}.st1{stroke-width:.4}.st1,.st2{fill-rule:evenodd;clip-rule:evenodd;fill:none;stroke:#999;stroke-linecap:round;stroke-linejoin:round;stroke-miterlimit:3}.st3,.st4{fill-rule:evenodd;clip-rule:evenodd}.st4,.st5{fill:none;stroke:#000;stroke-linecap:round;stroke-linejoin:round;stroke-miterlimit:3}.st7{fill-rule:evenodd;clip-rule:evenodd;fill:none;stroke:#666;stroke-width:.6;stroke-miterlimit:22.9256}</style><g id="fon_1_"><path id="fon" class="st0" d="M15.748.443h331.607v429.069H15.748z"/></g><g id="mebel"><path class="st1" d="M97.164 403.436l.001-.001m-6.466-.562l6.466-6.385M67.018 419.31l.032-.031m16.613-16.406l13.502-13.333M76.628 402.873l20.537-20.279m-27.572 20.279l27.572-27.226m-34.608 27.226L97.165 368.7m-41.643 34.173l41.643-41.12m-48.678 41.12l48.678-48.067m-55.714 48.067l55.714-55.014m-56.251 48.599l11.43-11.286m9.319-9.203l35.502-35.056m-56.251 48.598l5.067-5.004m11.888-11.739l39.296-38.803m-45.791 38.269l45.791-45.217m-53.656 46.038l53.656-52.983M40.914 368.67l14.764-14.579m4.368-4.314l37.119-36.654m-56.251 48.601l7.73-7.633m11.402-11.26l37.119-36.653m-56.251 48.599l.695-.686m18.437-18.206l35.478-35.034m-41.856 34.385l.038-.038m6.34-6.26l28.444-28.087m-41.857 34.385l.038-.038m13.375-13.207l21.409-21.14m-41.857 34.385l.038-.038m20.41-20.155l14.373-14.193m-41.858 34.386l.038-.038m27.447-27.101l7.338-7.246m-41.858 34.385l.038-.038m34.482-34.048l.303-.299m36.816 4.833l-4.895-4.833m4.895 11.78l-11.931-11.78m11.931 18.727L78.2 300.851m18.965 25.674l-26-25.674m26 32.621l-33.037-32.621m33.037 39.567l-37.119-36.652m37.119 43.6l-37.119-36.653m37.119 43.599L60.046 317.66m37.119 43.599l-37.119-36.652m37.119 43.599l-37.119-36.652m37.119 43.599l-37.119-36.652m-3.306-3.265l-.038-.038M97.165 382.1l-37.119-36.652m-10.342-10.212l-.038-.038m47.499 53.849l-37.119-36.652m-17.377-17.159l-.038-.038m54.534 60.796L54.73 354.091m-19.096-18.855l-.038-.038m61.569 67.743l-49.47-48.85m-19.096-18.855l-.038-.038m61.5 67.675l-49.147-48.531m42.113 48.531l-21.494-21.224m-9.594-9.474l-11.025-10.887m35.077 41.585l-18.455-18.224m-11.96-11.81l-4.662-4.604m28.041 34.638l-18.081-17.855M61.92 402.873l-18.913-18.676M54.884 402.873l-13.97-13.796m6.936 13.796l-6.936-6.85M41.476 100.347h55.546M41.476 89.011h55.546M41.476 77.675h55.546M41.476 66.338h55.546M41.476 55.004h55.546M41.476 43.668h55.546M41.476 32.331h21.851m12.977 0h20.717m-10.958 74.864V21.327m-22.671 85.868V36.142m0-4.428V21.327"/><path class="st2" d="M63.413 36.318l.469 1.645m0 0l.718 1.551m0 0l.967 1.231m0 0l1.249.942m0 0l1.448.594m0 0l1.55.206m0 0l1.552-.206m0 0l1.447-.594m0 0l1.249-.942m0 0l.967-1.231m0 0l.719-1.551m0 0l.469-1.645m0 0l.207-1.698m0 0l-.059-1.709m0 0l-1.223-11.585m0 0H64.488m0 0l-1.223 11.585m0 0l-.06 1.709m0 0l.208 1.698M73.932 27.048h-4.117M69.815 27.047h-4.116M72.879 41.314a5.74 5.74 0 01-3.064.886M76.127 34.485c.165 2.591-1.031 5.106-3.248 6.83M73.932 27.048c1.506 2.252 2.266 4.828 2.195 7.437M63.503 34.485c-.07-2.609.69-5.185 2.195-7.437M66.752 41.314c-2.218-1.723-3.414-4.238-3.249-6.83M69.816 42.201a5.728 5.728 0 01-3.063-.886M74.463 21.326h-9.296m0 0v.189m0 0h9.296m0 0v-.189M60.368 21.326h18.894M60.368 16.792h18.894M60.368 21.326v-4.534M79.262 21.326v-4.534M25.227 134.024h71.795m0 0v-26.828m0 0H25.227m0 0v26.828M33.604 109.342l-1.039.082m0 0l-1.008.242m0 0l-.945.395m0 0l-.854.536m0 0l-.738.662m0 0l-.598.766m0 0l-.44.847m0 0l-.271.904m0 0l-.09.932m0 0v11.804m0 0l.09.932m0 0l.271.903m0 0l.44.848m0 0l.598.766m0 0l.738.661m0 0l.854.537m0 0l.945.395m0 0l1.008.242m0 0l1.039.082m0 0h48.461m0 0l2.182-.171m0 0l2.115-.509m0 0l1.984-.83m0 0l1.794-1.126m0 0l1.549-1.389m0 0l1.256-1.609m0 0l.926-1.78m0 0l.567-1.897m0 0l.19-1.957m0 0l-.19-1.957m0 0l-.567-1.897m0 0l-.926-1.78m0 0l-1.256-1.609m0 0l-1.549-1.389m0 0l-1.794-1.126m0 0l-1.984-.83m0 0l-2.115-.509m0 0l-2.182-.171m0 0H33.604M35.241 120.61a.944.944 0 11-1.889 0 .944.944 0 011.889 0zM324.306 274.768H150.489m0 0v15.114m0 0h173.817m0 0v-15.114M324.306 275.524H150.489M237.398 274.768v.756M324.306 274.768v.756M66.604 419.31h29.095m0 0l.401-.166m0 0l.166-.4m0 0V403.44m0 0l-.166-.401m0 0l-.401-.166m0 0H66.604m0 0l-.401.166m0 0l-.166.401m0 0v15.304m0 0l.166.4m0 0l.401.166M67.737 415.154h12.962m.906 0h12.959M95.132 414.587v-10.014M94.565 404.007H67.737M67.17 404.574v10.014M95.132 414.587a.567.567 0 01-.567.566M94.565 404.007c.313 0 .567.253.567.567M67.17 404.574c0-.313.254-.567.566-.567M67.737 415.154a.567.567 0 01-.566-.566M81.907 411.805a.752.752 0 01-.301.603v-1.207a.759.759 0 01.301.604zm-1.209.605a.754.754 0 010-1.21v1.21zM81.605 418.781h-.907m0 0v-7.748m0 0l.256-.301m0 0h.395m0 0l.256.301m0 0v7.748M80.396 418.781h1.511m0 0v.265m0 0h-1.511m0 0v-.265M80.018 419.046h2.267m0 0v.264m0 0h-2.267m0 0v-.264M77.883 417.421v1.625m0 0h.094m0 0v.132m0 0h.283m0 0v.132m0 0h-1.889m0 0v-.132m0 0h.283m0 0v-.132m0 0h.095m0 0v-1.625m0 0h.322m0 0v-.416m0 0h-1.078m0 0v-.491m0 0h2.645m0 0v.491m0 0h-1.077m0 0v.416m0 0h.322M84.419 417.421v1.625m0 0h-.094m0 0v.132m0 0h-.284m0 0v.132m0 0h1.89m0 0v-.132m0 0h-.283m0 0v-.132m0 0h-.095m0 0v-1.625m0 0h-.322m0 0v-.416m0 0h1.078m0 0v-.491m0 0h-2.646m0 0v.491m0 0h1.077m0 0v.416m0 0h-.321M77.071 417.005l.07-.072M77.561 417.005l-.071-.072M77.071 417.421h.489M76.749 419.046h1.134M77.977 419.178h-1.322M85.231 417.005l-.07-.072M84.741 417.005l.072-.072M85.231 417.421h-.49M85.553 419.046h-1.134M84.326 419.178h1.321M77.561 416.76a.245.245 0 11-.49 0 .245.245 0 11.49 0zM85.231 416.76a.245.245 0 11-.491 0 .246.246 0 11.491 0zM55.711 372.25l1.645.469m0 0l1.552.719m0 0l1.23.967m0 0l.942 1.248m0 0l.594 1.448m0 0l.206 1.551m0 0l-.206 1.551m0 0l-.594 1.447m0 0l-.942 1.249m0 0l-1.23.967m0 0l-1.552.719m0 0l-1.645.469m0 0l-1.697.207m0 0l-1.71-.059m0 0l-11.584-1.223m0 0v-10.654m0 0l11.584-1.223m0 0l1.71-.059m0 0l1.697.207M46.442 382.769v-4.116M46.442 378.653v-4.117M61.594 378.653a5.742 5.742 0 01-.886 3.063M60.708 381.716c-1.724 2.217-4.238 3.413-6.83 3.248M53.878 384.964c-2.609.07-5.185-.69-7.437-2.195M46.442 374.536c2.252-1.505 4.827-2.266 7.437-2.195M53.878 372.341c2.592-.165 5.106 1.031 6.83 3.248M60.708 375.589c.57.889.88 1.961.886 3.064M40.72 383.3v-9.295m0 0h.188m0 0v9.295m0 0h-.188M40.72 369.206v18.893M36.186 369.206v18.893M40.72 369.206h-4.534M40.72 388.099h-4.534M59.612 300.813v34.385M59.612 335.198H25.227M32.784 307.425a.945.945 0 11-1.89 0 .945.945 0 011.89 0zM38.211 317.571l.371-1.396m0 0l.793-1.209m0 0l1.133-.898m0 0l1.358-.496m0 0l1.445-.043m0 0l1.384.413m0 0l1.185.829m0 0l.864 1.159m0 0l.454 1.371m0 0v1.446m0 0l-.454 1.372m0 0l-.864 1.16m0 0l-1.185.828m0 0l-1.384.414m0 0l-1.445-.044m0 0l-1.358-.495m0 0l-1.133-.898m0 0l-.793-1.209m0 0l-.371-1.397m0 0h-5.538m0 0l.108.455m0 0l.037.49m0 0l-.037.489m0 0l-.108.455m0 0l-.173.392m0 0l-.224.3m0 0l-.261.189m0 0l-.281.064m0 0h-.402m0 0l-.121-.019m0 0l-.277-.064m0 0l-.104-.055m0 0l-.251-.181m0 0l-.07-.078m0 0l-.204-.274m0 0l-.157-.357m0 0l-.052-.195m0 0l-.06-.25m0 0l-.687-.019m0 0l-.796-.01m0 0v1.729m0 0h-.435m0 0v2.871m0 0l-.059.16m0 0l-.149.083m0 0l-.166-.033m0 0l-.105-.133m0 0l-.158-.486m0 0l-.315-.726m0 0l-.573-1.007m0 0l-.259-.729m0 0h-.125m0 0v.604m0 0h-.982m0 0v-2.569m0 0h.878m0 0l.01-.024m0 0l.028-.039m0 0l.034-.033m0 0l.04-.025m0 0l.673-.278m0 0v-.697m0 0h-1.361m0 0v1.058m0 0h-.302m0 0v-3.023m0 0h.302m0 0v1.058m0 0h1.361m0 0v-1.436m0 0h.151m0 0v-.416m0 0h-.303m0 0v.152m0 0h-.529m0 0v.604m0 0h-.982m0 0v-2.569m0 0h.982m0 0v.604m0 0h.529m0 0v.152m0 0h.303m0 0v-.152m0 0h1.512m0 0v2.57m0 0h2.153m0 0v.023m0 0v.059m0 0v.094m0 0v.124m0 0v.149m0 0v.042m0 0h7.505M26.89 319.913v-.209m0 0l-.341.14m0 0l-.053.325m0 0l.001.009m0 0h.242m0 0v.151m0 0h.302m0 0v-.416m0 0h-.151M27.041 321.387h-.24m0 0l.239.677m0 0l.563.988m0 0l.024.052m0 0v-1.566m0 0h-.586m0 0v-.151M26.209 315.531h.529M26.209 314.85h.529M26.209 321.187v.352M26.739 320.329v.189M26.739 320.518v.68M26.739 321.198v.014M26.563 320.518h.176M26.733 321.198h.006M27.041 321.387v-1.058M28.553 319.035v-.558M27.627 321.538h.491M29.119 318.969v-.491M28.106 324.334l.013.076M26.002 320.185l.002-.047M26.035 320.355l-.033-.17M26.086 319.64l.01-.047M26.096 319.593l.009-.02M26.334 321.538l-.16-.453M26.174 321.085l-.14-.73M26.507 320.229l-.011-.06M28.106 324.334l-.167-.512M27.939 323.822l-.312-.717M26.191 321.127h.108a.108.108 0 10-.216 0 .108.108 0 00.216 0h-.108zM26.004 320.138l.082-.498M30.608 318.48l-.002-.002M30.077 318.477l-.002.002M27.438 319.913h-.128M27.193 319.913h-.104M27.31 319.913h-.117M26.89 319.704v-.523M26.647 320.951l-.14-.722M26.801 321.387l-.154-.436M27.524 319.233h.108c0-.059-.049-.108-.108-.108s-.108.049-.108.108a.108.108 0 00.216 0h-.108zM27.479 319.325l.045-.091M27.464 319.422l.015-.098M27.479 319.52l-.015-.098M27.524 319.611l-.045-.091M27.524 319.611h.108a.108.108 0 10-.216 0 .108.108 0 00.216 0h-.108zM30.02 319.767l-.026-.345M29.993 319.422l.026-.345M30.036 319.838l-.017-.071M30.096 318.756l.052-.196M30.02 319.077l.076-.32M27.691 319.791l.062.009M30.148 318.56l.036-.083M30.036 319.006l-.687.019M27.752 319.044l-.062.009M27.691 319.054l-.058.025M27.633 319.08l-.05.042M27.583 319.122l-.038.055M27.545 319.177l-.021.056M27.524 319.233l-.003.007M27.521 319.24l-.008.068M27.513 319.309v.227M27.513 319.536l.008.068M27.521 319.604l.003.007M27.524 319.612l.021.056M27.545 319.668l.038.055M27.583 319.723l.05.042M27.633 319.765l.058.026M29.349 319.025l-1.597.019M28.553 319.809l-.801-.008M28.25 319.913v-.106M28.25 319.039v-.562M38.211 317.571h5.343M38.211 318.477h5.343M43.554 317.571v.907M26.209 314.51v1.36M26.739 314.661v1.059M27.041 314.661v1.059M27.041 316.135h1.209M28.25 319.913h-1.209M25.53 317.571v.907M26.89 317.571h3.816M32.673 318.477H26.89M28.25 316.135v1.436M28.553 317.08v.491M29.119 317.08v.491M28.553 318.969h1.492M40.888 317.571a1.889 1.889 0 110 .907M27.578 316.135a.34.34 0 11.589 0M160.842 202.795v1.889m0 0h73.381m0 0v-1.889m0 0h-73.381M160.842 240.581h36.691m0 0V214.13m0 0h-36.691m0 0v26.451M197.533 240.581h36.689m.001 0V214.13m0 0h-36.689m-.001 0v26.451M234.223 240.581h9.598m0 0v-37.786m0 0h-9.598m0 0v1.889m0 9.447v26.45M151.244 240.581h9.598m0 0v-26.45m0-9.447v-1.889m0 0h-9.598m0 0v37.786M197.533 204.684v9.446m0 0h41.488m0 0v-9.446m0 0h-41.488M197.533 204.684v9.446m0 0h-41.49m.001 0v-9.446m0 0h41.49M193.944 158.396h19.271m0 0l.534-.221m0 0l.221-.535m-.001 0v-17.381m0 0l-.221-.535m.001 0l-.534-.221m0 0h-19.271m0 0l-.535.221m0 0l-.221.535m0 0v17.381m0 0l.221.535m0 0l.535.221M192.242 161.23h22.672M192.242 138.558h22.672M192.242 161.23v-22.672M214.914 161.23v-22.672M195.832 156.506h15.492M212.08 155.75v-11.713M211.324 143.282h-7.002m-1.488 0h-7.001M195.076 144.037v11.713M195.832 156.506h.108a.108.108 0 10-.216 0 .108.108 0 00.216 0h-.108zM212.08 155.75a.755.755 0 01-.756.756M211.324 143.282c.418 0 .756.338.756.755M195.076 144.037c0-.417.339-.755.756-.755M195.832 156.506a.756.756 0 01-.756-.756M203.239 148.114l.101.24m0 0l.24.099m-.001 0l.24-.1m.001 0l.1-.24m-.001 0v-7.477m0 0l-.101-.24m.001 0l-.24-.099m0 0l-.24.099m-.001 0l-.1.24m.001 0v7.478M202.824 142.563h.414m0 0v-1.927m0 0l.1-.24m0 0l.24-.1m.001 0l.24.1m-.001 0l.101.24m0 0v1.927m0 0h.414m0 0v-2.456m0 0h-1.509m0 0v2.456M202.834 143.924h.404m0 0v-1.323m0 0h-.404m0 0v1.323M204.323 143.924v-1.323m0 0h-.403m-.001 0v1.323m0 0h.403M214.914 161.23h22.672M214.914 138.558h22.672M214.914 161.23v-22.672M237.586 161.23v-22.672M275.819 159.152h21.916m0 0v-18.516m0 0h-21.916m0 0v18.516M286.776 147.872v-5.299M286.776 142.573h1.097M286.776 147.872h1.097M295.631 147.872v-5.299M294.534 142.573h1.097M294.534 147.872h1.097M283.27 145.006a2.74 2.74 0 11-5.48 0 2.74 2.74 0 015.48 0zM285.769 153.245a3.968 3.968 0 11-7.936 0 3.968 3.968 0 017.936 0z"/><path class="st2" d="M284.069 153.245a2.267 2.267 0 11-4.535 0 2.267 2.267 0 014.535 0zM293.849 145.191a2.645 2.645 0 11-5.29.001 2.645 2.645 0 015.29-.001zM295.722 153.782a3.4 3.4 0 11-6.801 0 3.4 3.4 0 016.801 0zM237.586 161.23h64.048M237.586 138.558h64.048M237.586 161.23v-22.672M301.634 161.23v-22.672M169.572 161.23h22.671m-.001 0v-22.672m0 0h-22.671m.001 0v22.672M180.906 146.116v7.556M178.234 147.222l5.345 5.344M177.128 149.894h7.558M178.234 152.566l5.345-5.344M41.476 35.59v71.605M25.227 35.59v71.605M41.476 107.196H25.227M41.476 35.59H25.227M40.342 44.801v17.381M40.342 62.183h-12.47M27.872 62.183V58.65m0-2.646v-2.059m0-.907v-2.059m0-2.645v-3.533M27.872 44.801h12.47M40.342 80.603v17.382M40.342 97.985h-12.47M27.872 97.985v-8.238m0-.906v-8.238M27.872 80.603h12.47M31.705 53.945a1.136 1.136 0 01-2.079 0h2.079zm-2.079-.907a1.134 1.134 0 012.078 0h-2.078zM31.704 89.748a1.135 1.135 0 01-2.078 0h2.078zm-2.079-.907a1.132 1.132 0 012.079 0h-2.079zM25.756 53.945v-.907m0 0h7.748m0 0l.301.256m0 0v.395m0 0l-.301.256m0 0h-7.748M25.756 52.736v1.512m0 0h-.264m0 0v-1.512m0 0h.264M25.493 52.358v2.267m0 0h-.266m-.001 0v-2.267m0 0h.266M27.116 50.223h-1.624m.001 0v.095m0 0h-.133m0 0v.283m0 0h-.133m-.001 0v-1.89m0 0h.133m.001 0v.284m0 0h.133m0 0v.094m0 0h1.624m-.001 0v.322m0 0h.416m0 0v-1.077m0 0h.491m.001 0v2.645m0 0h-.491m-.001 0v-1.077m0 0h-.416m0 0v.321M27.116 56.76h-1.624m.001 0v-.095m0 0h-.133m0 0v-.283m0 0h-.133m-.001 0v1.89m0 0h.133m.001 0v-.284m0 0h.133m0 0v-.094m0 0h1.624m-.001 0v-.322m0 0h.416m0 0v1.078m0 0h.491m.001 0v-2.646m0 0h-.491m-.001 0v1.077m0 0h-.416m0 0v-.321M25.756 89.748v-.908m0 0h7.748m0 0l.301.257m0 .001v.394m0 0l-.301.256m0 0h-7.748M25.756 88.539v1.511m0-.001h-.264m0 0v-1.511m0 .001h.264M25.493 88.161v2.267m0 0h-.266m-.001 0v-2.267m0 0h.266M27.116 86.026h-1.624m.001 0v.094m0 0h-.133m0 0v.284m0 0h-.133m-.001 0v-1.89m0 0h.133m.001 0v.283m0 0h.133m0 0v.095m0 0h1.624m-.001 0v.322m0 0h.416m0 0v-1.077m0 0h.491m.001 0v2.645m0 0h-.491m-.001 0v-1.077m0 0h-.416m0 0v.321M27.116 92.563h-1.624m.001 0v-.095m0 0h-.133m0 0v-.283m0 0h-.133m-.001 0v1.889m0 0h.133m.001 0v-.283m0 0h.133m0 0v-.095m0 0h1.624m-.001 0v-.321m0 0h.416m0 0v1.077m0 0h.491m.001 0v-2.645m0 0h-.491m-.001 0v1.077m0 0h-.416m0 0v-.321M27.532 49.411l.072.072M27.532 49.902l.072-.071M27.116 49.411v.49M25.493 49.089v1.134M25.36 50.318v-1.323M27.532 57.573l.072-.072M27.532 57.081l.072.072M27.116 57.573v-.491M25.493 57.894V56.76M25.36 56.665v1.323M27.532 85.213l.072.072M27.532 85.704l.072-.072M27.116 85.213v.491M25.493 84.892v1.134M25.36 86.12v-1.323M27.532 93.375l.072-.072M27.532 92.884l.072.072M27.116 93.375v-.491M25.493 93.696v-1.133M25.36 92.468v1.323M28.024 49.657a.246.246 0 11-.491-.001.246.246 0 01.491.001zM28.024 57.327a.246.246 0 11-.492 0 .246.246 0 01.492 0zM28.024 85.459a.246.246 0 11-.492 0 .246.246 0 01.492 0zM28.024 93.129a.246.246 0 11-.492 0 .246.246 0 01.492 0zM324.306 161.23h-22.672m0 0v-22.672m0 0h22.672m0 0v22.672M226.505 151.835a3.412 3.412 0 11-6.823 0 3.412 3.412 0 016.823 0z"/><path class="st2" d="M225.984 151.835a2.89 2.89 0 11-5.78 0 2.89 2.89 0 015.78 0zM231.982 152.667a2.58 2.58 0 11-5.16 0 2.58 2.58 0 015.16 0z"/><path class="st2" d="M230.847 152.667a1.444 1.444 0 11-2.888.002 1.444 1.444 0 012.888-.002zM43.743 186.924a7.18 7.18 0 11-14.36 0 7.18 7.18 0 0114.36 0zM294.844 20.854a3.778 3.778 0 11-7.557 0 3.778 3.778 0 017.557 0z"/><path class="st2" d="M292.199 20.854a1.134 1.134 0 11-2.269 0 1.134 1.134 0 012.269 0zM206.046 20.854a3.778 3.778 0 11-7.557 0 3.778 3.778 0 017.557 0z"/><path class="st2" d="M203.402 20.854a1.134 1.134 0 11-2.269 0 1.134 1.134 0 012.269 0zM293.986 409.864a3.778 3.778 0 11-7.557 0 3.778 3.778 0 017.557 0z"/><path class="st2" d="M291.341 409.864a1.134 1.134 0 11-2.269 0 1.134 1.134 0 012.269 0zM205.188 409.864a3.778 3.778 0 11-7.557 0 3.778 3.778 0 017.557 0z"/><path class="st2" d="M202.543 409.864a1.134 1.134 0 11-2.269 0 1.134 1.134 0 012.269 0zM100.044 34.079V11.407m0 0h62.348m0 0v71.416m0 0H139.72m0 0V34.079m0 0h-39.676M151.434 22.365l-.756.756m0 0h-50.634m0 0v-.756m0 0h51.39M108.992 13.4v18.626m0 0h.756m0 0V13.4m0 0h-.756M110.997 13.4v18.626m0 0h.756m0 0V13.4m0 0h-.756M113.002 13.4v18.626m0 0h.755m0 0V13.4m0 0h-.755M115.006 13.4v18.626m0 0h.756m0 0V13.4m0 0h-.756M119.252 13.536l-2.241 18.491m0-.001l.75.091m0 0l2.241-18.491m0 .001l-.75-.091M151.434 82.823h-.756m0 0V23.121m0 0l.756-.756m0 0v60.458M212.659 90.759h68.015m0 0V15.186m0 0h-68.015m0 0v75.573M214.548 92.648h64.237m0 0l.723-.144m0 0l.613-.409m0 0l.409-.614m0 0l.144-.722m0 0h-68.015m0 0l.144.722m0 0l.409.614m0 0l.613.409m0 0l.723.144M212.659 11.407h68.015m0 0v3.779m0 0h-68.015m0 0v-3.779M280.674 11.407h-68.015m0 0v1.889m0 0h68.015m0 0v-1.889M282.564 11.407h17.004m0 0V30.3m0 0h-17.004m0 0V11.407M210.77 11.407h-17.004m0 0V30.3m0 0h17.004m0 0V11.407M252.713 17.075h25.694m0 0l.267.111m0 0l.111.267m0 0v12.469m0 0l-.111.268m0 0l-.267.11m0 0h-25.694m0 0l-.268-.11m0 0l-.11-.268m0 0V17.453m0 0l.11-.267m0 0l.268-.111M240.621 17.075h-25.695m0 0l-.267.111m0 0l-.111.267m0 0v12.469m0 0l.111.268m0 0l.267.11m0 0h25.695m0 0l.267-.11m0 0l.11-.268m0 0V17.453m0 0l-.11-.267m0 0l-.267-.111M212.659 29.277h1.889M240.998 29.277h11.337M278.785 29.277h1.889M212.659 34.286h68.015m0 0v18.686m0 0l-68.015-14.907m0 0v-3.779M36.942 175.589h-.756m0 0v-26.073m0 0l.756.756m0 0v25.317M97.022 149.516v.756m0 0h-60.08m0 0l-.756-.756m0 0h60.836M89.584 140.551v18.626m0 0h-.756m0 0v-18.626m0 0h.756M87.58 140.551v18.626m0 0h-.756m0 0v-18.626m0 0h.756M85.575 140.551v18.626m0 0h-.756m0 0v-18.626m0 0h.756M83.57 140.551v18.626m0 0h-.756m0 0v-18.626m0 0h.756M79.324 140.686l2.242 18.491m0 0l-.751.091m0 0l-2.241-18.491m0 0l.75-.091M174.118 283.637v1.02m0 0h44.37m0 0v-1.02m0 0h-44.37M175.523 284.657l-.709 3.41m0 0l-.681-.141m0 0l.681-3.269m0 0h.709M183.82 284.657v.832m0 0l.151.567m.001 0l.415.414m0 0l.567.153m0 0h22.699m-.001 0l.567-.153m0 0l.415-.414m0 0l.152-.567m.001 0v-.832m0 0H183.82M175.523 283.28l-.709-3.41m0 0l-.681.141m0 0l.681 3.269m0 0h.709M217.084 284.657l.709 3.41m0 0l.68-.141m0 0l-.68-3.269m0 0h-.709M217.084 283.339l.709-3.41m0 0l.68.141m0 0l-.68 3.269m0 0h-.709M174.118 283.339v.298m0 0h44.37m0 0v-.298m0 0h-44.37M25.227 225.467v-22.672m0 0h71.795m0 0v22.672m0 0H25.227M97.022 213.753v.755m0 0H25.227m0 0v-.755m0 0h71.795M32.664 223.474v-18.626m0-.001h.756m0 0v18.626m0 .001h-.756M34.669 223.474v-18.626m0-.001h.755m0 0v18.626m0 .001h-.755M36.674 223.474v-18.626m0-.001h.755m0 0v18.626m0 .001h-.755M38.678 223.474v-18.626m0-.001h.756m0 0v18.626m0 .001h-.756M42.924 223.338l-2.241-18.491m0 0l.75-.091m0 0l2.241 18.491m0 0l-.75.091M219.026 154.042h.963m0 0v1.205m0 0h12.523m0 0v-1.205m0 0h.964M220.489 144.037h9.635m0 0v.479m0 .001h-.724m0 0v-.238m0-.001h-8.189m0 0v.238m0 .001h-.723m.001 0v-.479M220.489 144.516l.048.103m.047.103l.047.104m.046.102l.047.104m.047.103l.047.103m.049.103l.047.103m.047.103l.048.103m.045.103l.047.103m.047.103l.048.103m.047.103l.047.103m.048.103l.046.103m.047.104l.047.103m.047.103l.048.103m.047.103l.047.103m.048.103l.046.103m.047.103l.048.103m.047.104l.047.102m.049.104l.047.103M230.123 144.516l-.048.103m-.047.103l-.048.104m-.046.102l-.047.104m-.047.103l-.048.103m-.047.103l-.047.103m-.048.103l-.047.103m-.046.103l-.047.103m-.047.103l-.048.103m-.047.103l-.048.103m-.047.103l-.046.103m-.047.104l-.048.103m-.047.103l-.047.103m-.048.103l-.047.103m-.047.103l-.046.103m-.048.103l-.047.103m-.047.104l-.047.102m-.048.104l-.047.103M220.489 144.516h.078m.112 0h.114m.113 0h.113m.116 0h.077m-.001 0l.042.051m.071.089l.071.088m.072.087l.072.088m.072.088l.071.089m.071.087l.071.089m.073.088l.071.088m.071.088l.071.087m.071.088l.073.089m.071.088l.072.088m.07.088l.072.088m.072.088l.071.088m.073.087l.071.088m.071.089l.071.088m.072.088l.072.088m.071.088l.072.088m.071.088l.071.087m.07.089l.072.088m.072.088l.071.088m.072.088l.071.088m.071.088l.071.088m.073.088l.072.088m.07.088l.072.088m.072.088l.042.051M230.123 144.516h-.078m-.113 0h-.114m-.114 0h-.113m-.114 0h-.077m0 0l-.042.051m-.071.089l-.072.088m-.071.087l-.072.088m-.071.088l-.071.089m-.072.087l-.071.089m-.072.088l-.071.088m-.072.088l-.071.087m-.071.088l-.073.089m-.071.088l-.071.088m-.071.088l-.072.088m-.071.088l-.071.088m-.073.087l-.071.088m-.071.089l-.071.088m-.072.088l-.072.088m-.071.088l-.072.088m-.071.088l-.071.087m-.072.089l-.072.088m-.071.088l-.071.088m-.072.088l-.071.088m-.071.088l-.072.088m-.072.088l-.071.088m-.071.088l-.072.088m-.071.088l-.042.051M150.111 408.352l-.755-.755m-.001 0v-68.961m0 0h.755m.001 0v69.716M100.8 419.31v-22.672m0 0h37.598m0 0v-58.002m0 0h22.672m0 0v80.674m0 0H100.8M149.356 407.597l.755.755m0-.001H100.8m0 0v-.755m0 .001h48.556M108.237 417.317v-18.626m0 0h.756m0 0v18.626m0 0h-.756M110.241 417.317v-18.626m0 0h.756m0 0v18.626m0 0h-.756M112.246 417.317v-18.626m0 0h.756m0 0v18.626m0 0h-.756M114.25 417.317v-18.626m0 0h.756m0 0v18.626m0 0h-.756M118.496 417.182l-2.241-18.491m0 0l.75-.091m0 0l2.241 18.491m0 0l-.75.091M279.816 339.959h-68.015m0 0v75.573m0 0h68.015m0 0v-75.573M277.927 338.07H213.69m0 0l-.723.144m0 0l-.613.409m0 0l-.409.613m0 0l-.144.723m0 0h68.015m0 0l-.144-.723m0 0l-.409-.613m0 0l-.613-.409m0 0l-.723-.144M279.816 419.31h-68.015m0 0v-3.778m0 0h68.015m0 0v3.778M211.801 419.31h68.015m0 0v-1.889m0 0h-68.015m0 0v1.889M209.911 419.31h-17.004m0 0v-18.893m0 0h17.004m0 0v18.893M281.705 419.31h17.004m0 0v-18.893m0 0h-17.004m0 0v18.893M239.763 413.642h-25.695m0 0l-.267-.11m0 0l-.111-.267m0 0v-12.47m0 0l.111-.267m0 0l.267-.111m0 0h25.695m0 0l.267.111m0 0l.111.267m0 0v12.47m0 0l-.111.267m0 0l-.267.11M251.854 413.642h25.695m0 0l.267-.11m0 0l.111-.267m0 0v-12.47m0 0l-.111-.267m0 0l-.267-.111m0 0h-25.695m0 0l-.267.111m0 0l-.111.267m0 0v12.47m0 0l.111.267m0 0l.267.11M279.816 401.441h-1.889M251.476 401.441h-11.335M213.69 401.441h-1.889M279.816 396.431h-68.015m0 0v-18.686m0 0l68.015 14.908m0 0v3.778M37.079 192.933l-.449-1.233m0 0v-1.312m0-.001l.449-1.234m0 0l-.343-1.473m0 .001v-1.512m0 0l.343-1.473m0-.001l-.45-1.235m0 0v-1.314m0 0l.45-1.235m0 0l-2.987 2.232m0 0v7.558m0 0l2.987 2.231M33.83 190.701v-7.557m0 0h.262m0 0v7.557m0 0h-.262M33.307 190.701v-7.557m0 0h.262m0 0v7.557m0 0h-.262M38.595 186.082l.085.891m0-.001l-.227.021m0 0l-.045-.477m0 0l-1.142 1.384m0 .001l-.152-.126m0-.001l.53-.642m0 0l-.081-.068m0 .001l-.612.74m0-.001l-.146-.12m0 .001l.611-.74m0-.001l-.097-.081m0 0l-.497.602m0 0l-.13-.108m0 0l.496-.601m0 0l-.097-.08m0 .001l-.343.414m0-.001l-.139-.115m0 .001l1.174-1.423M47.899 198.261v-22.672m0 0H25.227m0 0v22.672m0 0h22.672M59.612 335.198H40.72m0 0v18.893m0 0h18.893m-.001 0v-18.893M294.745 19.994l-3.68.86m0-.001l-1.584 3.431m0 0l1.584-3.431m0 0l-1.305-3.546M198.588 19.994l3.68.86m0-.001l1.584 3.431m0 0l-1.584-3.431m0 0l1.306-3.546M293.887 409.003l-3.68.86m0 0l-1.584 3.431m0 0l1.584-3.431m0 0l-1.305-3.546M197.731 409.003l3.679.86m0 0l1.584 3.431m0 0l-1.584-3.431m0 0l1.305-3.546M305.971 188.791l-4.109-4.109m0 0l-.426-.407m0 0l-.43-.371m0 0l-.424-.328m0 0l-.403-.276m.001 0l-.017-.009m0 0l-.375-.216m0 0l-.332-.147m-.001 0l-.025-.008m0 0l-.281-.075m0 0l-.028-.004m0 0l-.22.002m0 0l-.03.002m0 0l-.029.007m0 0l-.027.013m0 0l-.154.078m0 0l-.024.018m.001 0l-.012.01m-.001 0l-1.133 1.134m0 0l-1.03-1.029m0 0l-5.217 5.217m11.115 11.116l5.217-5.218m0 0l-1.029-1.029m0 0l1.134-1.134m0 0l.011-.011m0 0l.017-.025m0 0l.078-.154m0 0l.013-.027m0 0l.008-.029m.001 0l.002-.029m0 0l.001-.221m-.001 0l-.003-.028m.001 0l-.075-.281m-.001 0l-.008-.025m.001 0l-.148-.332m-.001 0l-.214-.376m.001 0l-.011-.016m-.001 0l-.276-.404m0 0l-.328-.423m0 0l-.371-.429m0 0l-.407-.427M296.824 184.774l9.057 9.057M296.947 184.897l.897-.898M305.756 193.707l.899-.898M301.884 197.827l4.664-4.664M292.827 188.77l4.664-4.663M300.833 185.705l4.117 4.117M297.844 183.999c.354-.354 1.691.409 2.988 1.706M304.949 189.821c1.296 1.296 2.06 2.634 1.705 2.988M269.373 217.173l4.108 4.108m0 0l.427.408m0 0l.43.371m0 0l.423.328m0 0l.404.275m0 0l.016.011m0 0l.376.215m0 0l.332.147m0 0l.024.008m0 0l.281.075m0 0l.029.003m0 0l.22-.001m0 0l.03-.002m0 0l.028-.008m0 0l.027-.012m0 0l.154-.078m0 0l.025-.018m0 0l.011-.011m0 0l1.134-1.133m0 0l1.029 1.029m0 0l5.219-5.218m-11.117-11.114l-5.216 5.217m0 0l1.029 1.029m0 0l-1.135 1.134m0 0l-.01.011m0 0l-.017.025m0 0l-.078.153m0 0l-.013.027m0 0l-.008.03m0 0l-.002.029m0 0l-.001.221m0 0l.003.027m0 0l.074.282m0 0l.009.025m0 0l.147.332m0 0l.215.375m0 0l.01.016m0 0l.276.404m0 0l.329.424m0 0l.371.429m0 0l.407.427M278.52 221.191l-9.057-9.057M278.397 221.067l-.898.898M269.587 212.257l-.897.897M273.46 208.138l-4.664 4.663M282.517 217.193l-4.664 4.665M274.512 220.26l-4.117-4.117M277.499 221.965c-.354.354-1.692-.409-2.988-1.705M270.394 216.143c-1.296-1.296-2.06-2.634-1.705-2.988M273.481 184.682l-4.108 4.109m0 0l-.408.427m0 0l-.371.429m0 .001l-.329.423m0-.001l-.275.404m0 0l-.01.016m0 .001l-.216.376m0-.001l-.146.332m0 0l-.009.025m0 .001l-.074.281m0-.001l-.003.028m0 .001l.001.221m0-.001l.002.029m0 .001l.008.029m0-.001l.012.027m0 0l.078.154m0 0l.018.024m0 0l.01.012m0 0l1.134 1.133m0 0l-1.029 1.03m0 0l5.217 5.217m11.115-11.114l-5.218-5.217m0 0l-1.028 1.029m0-.001l-1.135-1.134m0 0l-.01-.01m0 0l-.026-.018m0 .001l-.153-.078m0-.001l-.027-.013m0 .001l-.029-.007m0-.001l-.029-.002m0 .001l-.221-.002m0 0l-.028.004m0-.001l-.281.075m0 0l-.025.008m0 .001l-.332.147m0-.001l-.376.215m0 .001l-.015.01m0-.001l-.405.276m0 .001l-.423.328m0 0l-.429.371m0 0l-.427.407M269.464 193.83l9.057-9.057M269.587 193.707l-.897-.898M278.397 184.897l-.898-.898M282.517 188.77l-4.664-4.663M273.46 197.826l-4.664-4.663M270.394 189.821l4.117-4.117M268.689 192.809c-.354-.354.409-1.692 1.705-2.988M274.51 185.704c1.297-1.296 2.635-2.059 2.988-1.705M301.862 221.282l4.109-4.108m0 0l.408-.427m0-.001l.371-.43m0 0l.328-.424m0 .001l.275-.403m0 0l.011-.017m0 0l.215-.375m0 0l.147-.332m0 0l.008-.024m0-.001l.075-.282m0 0l.003-.028m0 .001l-.001-.22m0 0l-.002-.03m0 0l-.008-.029m0-.001l-.012-.027m0 .001l-.078-.154m0 0l-.018-.024m0 0l-.011-.012m0 0l-1.133-1.133m0 0l1.029-1.03m0-.001l-5.218-5.218m-11.115 11.116l5.219 5.218m-.001 0l1.029-1.029m0-.001l1.134 1.134m0 .001l.011.011m0 0l.025.017m0 0l.153.078m0 0l.027.013m0 0l.03.008m0 0l.029.002m0 0l.221.001m0 0l.027-.003m0 0l.281-.075m0-.001l.026-.008m0 .001l.332-.148m0 0l.375-.214m0 0l.016-.011m0-.001l.404-.276m0 .001l.424-.328m0 0l.429-.371m0 0l.426-.407M305.881 212.134l-9.057 9.057M305.756 212.257l.899.897M296.947 221.067l.897.898M292.827 217.193l4.664 4.665M301.884 208.137l4.664 4.664M304.95 216.143l-4.117 4.117M306.655 213.155c.354.354-.409 1.691-1.705 2.987M300.833 220.259c-1.296 1.296-2.634 2.06-2.988 1.705M302.786 202.982c0 8.348-6.767 15.114-15.114 15.114-8.348 0-15.115-6.766-15.115-15.114 0-8.347 6.767-15.114 15.115-15.114 8.347 0 15.114 6.767 15.114 15.114z"/></g><g id="walls"><path class="st3" d="M324.306.449h23.05v29.096h-23.05z"/><path class="st4" d="M339.798 29.544h-15.492M347.356 29.544h-5.668M341.688 29.544h-1.89M339.798 112.675h-15.492M347.356 112.675h-5.668M341.688 112.675h-1.89M324.306 11.407v18.137M347.356 29.544V.553M347.356 112.675v-83.13M324.306 112.675v-83.13M339.798 112.675v-3.779M339.798 108.896h1.89M341.688 108.896v3.779M341.688 57.884v1.89M341.688 59.774h-1.89M339.798 59.774v-1.89M340.742 108.896V59.774M339.798 108.896V59.774M341.688 59.774v49.122M339.798 57.884v-.944M339.798 56.94h.944M340.742 56.94v-.945M340.742 55.995h.945M341.688 55.995v1.889M341.688 29.544v3.779M341.688 33.323h-.945M340.742 33.323v-.944M340.742 32.379h-.944M339.798 32.379v-2.834M341.688 33.323v22.672M338.854 54.106V35.212M338.854 56.94v-2.834M338.854 54.106h1.889M340.742 54.106v2.834M340.742 56.94h-1.889M340.742 32.379v2.833M340.742 35.212h-1.889M338.854 35.212v-2.833M338.854 32.379h1.889M340.742 35.212v18.894M338.854 54.106V35.212M339.798 54.106V35.212M341.688 112.675h-1.89M341.688 112.675h-1.89M347.356 112.675h-5.668M339.798 112.675h-15.492M341.688 29.544h-1.89M341.688 29.544h-1.89M347.356 29.544h-5.668M339.798 29.544h-15.492"/><path class="st3" d="M324.306 112.674h23.05v60.458h-23.05z"/><path class="st4" d="M339.798 173.132h-15.492M339.798 239.259h-15.492M324.306 112.675v22.86M324.306 138.558v34.574M347.356 173.132v-60.458M347.356 112.675h-23.05M324.306 239.259v-66.126M339.798 239.259h-15.492M347.356 173.132h-5.668M341.688 173.132h-1.89M347.356 239.259h-5.668M341.688 239.259h-1.89M347.356 239.259v-66.126M339.798 239.259v-3.779M339.798 235.48h1.89M341.688 235.48v3.779M341.688 201.472v1.89M341.688 203.362h-1.89M339.798 203.362v-1.89M340.742 235.48v-32.118M339.798 235.48v-32.118M341.688 203.362v32.118M339.798 201.472v-.944M339.798 200.528h.944M340.742 200.528v-.945M340.742 199.583h.945M341.688 199.583v1.889M341.688 173.132v3.779M341.688 176.911h-.945M340.742 176.911v-.944M340.742 175.967h-.944M339.798 175.967v-2.834M341.688 176.911v22.672M338.854 197.694V178.8M338.854 200.528v-2.834M338.854 197.694h1.889M340.742 197.694v2.834M340.742 200.528h-1.889M340.742 175.967v2.833M340.742 178.8h-1.889M338.854 178.8v-2.833M338.854 175.967h1.889M340.742 178.8v18.894M338.854 197.694V178.8M339.798 197.694V178.8M341.688 239.259h-1.89M341.688 239.259h-1.89M347.356 239.259h-5.668M341.688 173.132h-1.89M341.688 173.132h-1.89M347.356 173.132h-5.668M339.798 173.132h-15.492"/><path class="st3" d="M324.306 239.258h23.05v73.684h-23.05z"/><path class="st4" d="M339.798 396.072h-15.492M347.356 396.072h-5.668M341.688 396.072h-1.89M339.798 312.942h-15.492M347.356 312.942h-5.668M341.688 312.942h-1.89M324.306 239.259v50.633M324.306 300.85v12.092M347.356 312.942v-73.683M347.356 239.259h-23.05M347.356 312.942v83.13M324.306 312.942v83.13M339.798 312.942v3.778M339.798 316.72h1.89M341.688 316.72v-3.778M341.688 367.732v-1.89M341.688 365.842h-1.89M339.798 365.842v1.89M340.742 316.72v49.122M339.798 316.72v49.122M341.688 365.842V316.72M339.798 367.732v.945M339.798 368.677h.944M340.742 368.677v.945M340.742 369.621h.945M341.688 369.621v-1.889M341.688 396.072v-3.778M341.688 392.293h-.945M340.742 392.293v.944M340.742 393.238h-.944M339.798 393.238v2.834M341.688 392.293v-22.672M338.854 371.511v18.893M338.854 368.677v2.834M338.854 371.511h1.889M340.742 371.511v-2.834M340.742 368.677h-1.889M340.742 393.238v-2.834M340.742 390.404h-1.889M338.854 390.404v2.834M338.854 393.238h1.889M340.742 390.404v-18.893M338.854 371.511v18.893M339.798 371.511v18.893M341.688 312.942h-1.89M341.688 312.942h-1.89M347.356 312.942h-5.668M339.798 312.942h-15.492M341.688 396.072h-1.89M341.688 396.072h-1.89M347.356 396.072h-5.668M339.798 396.072h-15.492"/><path class="st3" d="M324.306 396.072h23.05v33.44h-23.05z"/><path class="st4" d="M324.306 396.072v23.238M347.356 429.512v-33.44M347.356 396.072h-23.05"/><path class="st3" d="M16.158 1.394h85.397v9.069H16.158z"/><path class="st4" d="M25.227 10.463h71.795M100.044 10.463h1.512M101.556 10.463V1.394"/><path class="st3" d="M16.159 10.463h9.069v218.782h-9.069zM16.159 270.81h9.069v158.702h-9.069z"/><path class="st4" d="M25.227 229.245v-1.965M16.158 229.245v-1.965M16.158 229.245h9.068M25.227 270.81v1.965M16.158 270.81v1.965M16.158 270.81h9.068M25.227 419.31v-13.414M25.227 402.874v-64.616M25.227 335.236v-34.385M25.227 289.892v-14.17M25.227 272.7v-1.89M25.227 229.245v-90.687M25.227 135.535V35.59M25.227 32.568V10.463M16.158.551v228.694M16.158 270.81v158.702M25.945 269.752v3.023M25.945 272.775h-.718M25.227 272.775v-3.023M25.227 269.752h.719M25.227 230.303v-3.023M25.227 227.28h.719M25.945 227.28v3.023M25.945 230.303h-.718M16.158 269.752v3.023M16.158 272.775h-.944M15.214 272.775v-3.023M15.214 269.752h.944M15.214 230.303v-3.023M15.214 227.28h.944M16.158 227.28v3.023M16.158 230.303h-.944M.5 266.511l3.771 1.407m0 0l3.893 1.015m0 0l3.976.614m0 0l4.018.205"/><path class="st3" d="M25.228 269.299H17.67v.453h-1.511v1.058h9.069zM25.228 229.245h-9.069v1.058h1.511v.454h7.558z"/><path transform="rotate(-66.616 9.025 248.702)" class="st3" d="M-10.701 247.951h39.448v1.512h-39.448z"/><path class="st4" d="M25.227 269.299H17.67M17.67 269.299v.453M17.67 269.752h-1.512M16.158 269.752v1.058M16.158 270.81h9.068M25.227 270.81v-1.511M25.227 229.245h-9.068M16.158 229.245v1.058M16.158 230.303h1.512M17.67 230.303v.454M17.67 230.757h7.557M25.227 230.757v-1.512M.5 266.511l15.658-36.208M16.158 230.303l1.388.6M17.546 230.903L1.888 267.111M1.888 267.112L.5 266.511M16.158 270.81h9.068M16.158 270.81h9.068M16.158 270.81v1.965M16.158 270.81v1.965M25.227 270.81v1.965M25.227 270.81v1.965M16.158 229.245h9.068M16.158 229.245h9.068M16.158 229.245v-1.965M16.158 229.245v-1.965M25.227 229.245v-1.965M25.227 229.245v-1.965"/><path class="st3" d="M16.158.449h308.147v10.958H16.158z"/><path class="st4" d="M100.044 11.407h62.348M165.414 11.407h158.892"/><path class="st3" d="M37.696 35.59v-3.022l3.024 3.022zM37.696 10.357h3.023v22.211h-3.023z"/><path class="st3" d="M40.72 32.568v3.022l-3.023-3.022z"/><path class="st4" d="M40.72 35.59h-3.023M37.696 10.357v22.21M40.72 35.59V21.515M40.72 18.492v-8.135M37.696 10.357h3.024"/><path class="st3" d="M25.228 32.568h12.469v3.022H25.228z"/><path class="st4" d="M37.696 32.568H25.227M25.227 35.59h12.47"/><path class="st3" d="M40.72 18.492h57.435v3.023H40.72z"/><path class="st4" d="M98.155 18.492H40.72M40.72 21.515h57.435M98.155 21.515v-3.023"/><path class="st3" d="M97.022 10.463h3.023v55.581h-3.023z"/><path class="st4" d="M97.022 10.463v8.029M97.022 21.515v44.529M97.022 66.044h3.022M100.044 66.044V11.407"/><path class="st3" d="M97.022 96.273h3.023v39.262h-3.023zM97.022 138.558h3.023v22.672h-3.023z"/><path class="st4" d="M97.022 96.273v1.964M100.044 96.273v1.964M100.044 96.273h-3.022M97.022 66.044v-1.965M100.044 66.044v-1.965M100.044 66.044h-3.022M97.022 96.273v39.262M97.022 138.558v22.672M100.044 161.23v-22.672M100.044 135.535V96.273M96.303 67.102V64.08M96.303 64.08h.719M97.022 64.08v3.022M97.022 67.102h-.719M97.022 95.215v3.022M97.022 98.238h-.719M96.303 98.238v-3.022M96.303 95.215h.719M100.044 67.102V64.08M100.044 64.08h.944M100.988 64.08v3.022M100.988 67.102h-.943M100.988 95.215v3.022M100.988 98.238h-.943M100.044 98.238v-3.022M100.044 95.215h.944M85.863 69.411l2.687-1.002m-.001 0l2.774-.724m0 0l2.834-.437m.001 0l2.864-.146"/><path class="st3" d="M100.045 67.556v-1.512h-3.023v1.058h1.51v.454zM100.045 96.273v-1.511h-1.513v.453h-1.51v1.058z"/><path transform="rotate(-23.386 92.147 82.022)" class="st3" d="M91.38 67.957h1.511V96.07H91.38z"/><path class="st4" d="M100.044 67.556h-1.511M98.533 67.556v-.453M98.533 67.102h-1.512M97.022 67.102v-1.058M97.022 66.044h3.022M100.044 66.044v1.511M100.044 96.273h-3.022M97.022 96.273v-1.058M97.022 95.215h1.512M98.533 95.215v-.454M98.533 94.761h1.512M100.044 94.761v1.512M85.863 69.411l11.159 25.805M97.022 95.215l1.387-.6M98.408 94.615L87.25 68.812M87.25 68.811l-1.388.6M100.044 66.044h-3.022M100.044 66.044h-3.022M100.044 66.044v-1.965M100.044 66.044v-1.965M97.022 66.044v-1.965M97.022 66.044v-1.965M100.044 96.273h-3.022M100.044 96.273h-3.022M100.044 96.273v1.964M100.044 96.273v1.964M97.022 96.273v1.964M97.022 96.273v1.964"/><path class="st3" d="M166.547 160.096v-3.023l3.023 3.023zM166.548 138.18h3.023v18.893h-3.023z"/><path class="st3" d="M169.57 157.073v3.023l-3.022-3.023z"/><path class="st4" d="M169.572 160.096h-3.024M169.572 160.096V138.18M166.548 138.18h3.023M166.548 138.18v18.894"/><path class="st3" d="M151.812 157.073h3.022l-3.022 3.023zM154.835 157.073h11.713v3.023h-11.713zM151.812 160.096l3.022-3.023v3.023z"/><path class="st4" d="M151.812 160.096v-3.022M166.548 157.074h-11.714M151.812 160.096h14.736"/><path class="st3" d="M154.834 135.535v3.023l-3.022-3.023zM151.812 138.558h3.022v18.515h-3.022z"/><path class="st3" d="M151.812 135.535l3.022 3.023h-3.022z"/><path class="st4" d="M151.812 135.535h3.022M151.812 138.558v18.516M154.834 157.074v-18.516"/><path class="st3" d="M154.835 135.535h169.472v3.023H154.835z"/><path class="st4" d="M154.834 138.558h11.714M169.572 138.558h154.734M324.306 135.535H154.834"/><path class="st3" d="M25.228 289.892h38.92v10.958h-38.92zM94.378 289.892h10.579v10.958H94.378zM138.962 289.892h185.343v10.958H138.962z"/><path class="st4" d="M104.956 289.892h-1.965M104.956 300.85h-1.965M104.956 300.85v-10.958M138.964 289.892h1.965M138.964 300.85h1.965M138.964 300.85v-10.958M94.376 289.892h1.965M94.376 300.85h1.965M94.376 300.85v-10.958M64.147 289.892h-1.965M64.147 300.85h-1.965M64.147 300.85v-10.958M324.306 289.892H138.964M104.956 289.892h-10.58M64.147 289.892h-4.156M56.968 289.892H25.227M25.227 300.85h38.92M94.376 300.85h3.401M100.8 300.85h4.156M138.964 300.85h185.342M137.906 289.174h3.022M140.929 289.174v.718M140.929 289.892h-3.022M137.906 289.892v-.718M106.014 289.892h-3.022M102.991 289.892v-.718M102.991 289.174h3.022M106.014 289.174v.718M137.906 300.85h3.022M140.929 300.85v.945M140.929 301.795h-3.022M137.906 301.795v-.944M106.014 301.795h-3.022M102.991 301.795v-.944M102.991 300.85h3.022M106.014 300.85v.945M135.286 313.509l1.138-3.047m0 0l.82-3.148m0 0l.496-3.215m0 0l.166-3.248"/><path class="st3" d="M137.452 289.892v9.447h.453v1.511h1.058v-10.958zM104.956 289.892v10.958h1.059v-1.511h.453v-9.447z"/><path transform="rotate(-66.583 120.961 306.503)" class="st3" d="M120.195 290.54h1.512v31.892h-1.512z"/><path class="st4" d="M137.452 289.892v9.447M137.452 299.339h.454M137.906 299.339v1.512M137.906 300.85h1.058M138.964 300.85v-10.958M138.964 289.892h-1.512M104.956 289.892v10.958M104.956 300.85h1.058M106.014 300.85v-1.512M106.014 299.339h.454M106.468 299.339v-9.447M106.468 289.892h-1.512M135.286 313.509l-29.272-12.658M106.014 300.85l.601-1.387M106.615 299.463l29.27 12.658M135.886 312.121l-.6 1.387M138.964 300.85v-10.958M138.964 300.85v-10.958M138.964 300.85h1.965M138.964 300.85h1.965M138.964 289.892h1.965M138.964 289.892h1.965M104.956 300.85v-10.958M104.956 300.85v-10.958M104.956 300.85h-1.965M104.956 300.85h-1.965M104.956 289.892h-1.965M104.956 289.892h-1.965M65.205 289.174h-3.023M62.182 289.174v.718M62.182 289.892h3.023M65.205 289.892v-.718M93.319 289.892h3.021M96.341 289.892v-.718M96.341 289.174h-3.022M93.319 289.174v.718M65.205 300.85h-3.023M62.182 300.85v.945M62.182 301.795h3.023M65.205 301.795v-.944M93.319 301.795h3.021M96.341 301.795v-.944M96.341 300.85h-3.022M93.319 300.85v.945M67.515 312.009l-1.003-2.687m0 0l-.724-2.774m0 0l-.436-2.834m0 0l-.147-2.863"/><path class="st3" d="M65.658 289.892h-1.511v10.958h1.058v-1.511h.453zM94.377 289.892h-1.513v9.447h.454v1.511h1.059z"/><path transform="rotate(-23.386 80.125 305.76)" class="st3" d="M66.06 304.98h28.114v1.512H66.06z"/><path class="st4" d="M65.658 289.892v9.447M65.658 299.339h-.453M65.205 299.339v1.512M65.205 300.85h-1.059M64.147 300.85v-10.958M64.147 289.892h1.512M94.376 289.892v10.958M94.376 300.85h-1.058M93.319 300.85v-1.512M93.319 299.339h-.454M92.865 299.339v-9.447M92.865 289.892h1.512M67.515 312.009l25.804-11.158M93.319 300.85l-.6-1.387M92.719 299.463l-25.805 11.158M66.914 310.621l.601 1.387M64.147 300.85v-10.958M64.147 300.85v-10.958M64.147 300.85h-1.965M64.147 300.85h-1.965M64.147 289.892h-1.965M64.147 289.892h-1.965M94.376 300.85v-10.958M94.376 300.85v-10.958M94.376 300.85h1.965M94.376 300.85h1.965M94.376 289.892h1.965M94.376 289.892h1.965"/><path class="st3" d="M97.022 195.237h3.023v30.23h-3.023z"/><path class="st4" d="M100.044 161.23v-1.965M97.022 161.23v-1.965M97.022 161.23h3.022M100.044 195.238v1.965M97.022 195.238v1.965M97.022 195.238h3.022M100.044 225.467v-30.229M97.022 195.238v4.534M97.022 202.795v22.672M97.022 225.467h3.022M100.762 194.18v3.023M100.762 197.203h-.718M100.044 197.203v-3.023M100.044 194.18h.718M100.044 162.288v-3.023M100.044 159.265h.718M100.762 159.265v3.023M100.762 162.288h-.718M97.022 194.18v3.023M97.022 197.203h-.945M96.076 197.203v-3.023M96.076 194.18h.945M96.076 162.288v-3.023M96.076 159.265h.945M97.022 159.265v3.023M97.022 162.288h-.945M84.364 191.56l3.047 1.137m-.001 0l3.147.821m.001 0l3.215.496m0 0l3.249.166"/><path class="st3" d="M100.045 193.726h-1.513v.453h-1.51v1.058h3.023zM100.045 161.23h-3.023v1.058h1.51v.453h1.513z"/><path transform="rotate(-66.629 91.386 177.218)" class="st3" d="M75.44 176.468h31.892v1.512H75.44z"/><path class="st4" d="M100.044 193.726h-1.511M98.533 193.726v.454M98.533 194.18h-1.512M97.022 194.18v1.057M97.022 195.238h3.022M100.044 195.238v-1.512M100.044 161.23h-3.022M97.022 161.23v1.058M97.022 162.288h1.512M98.533 162.288v.453M98.533 162.741h1.512M100.044 162.741v-1.511M84.364 191.56l12.658-29.272M97.022 162.288l1.387.6M98.408 162.888l-12.657 29.271M85.75 192.16l-1.387-.601M97.022 195.238h3.022M97.022 195.238h3.022M97.022 195.238v1.965M97.022 195.238v1.965M100.044 195.238v1.965M100.044 195.238v1.965M97.022 161.23h3.022M97.022 161.23h3.022M97.022 161.23v-1.965M97.022 161.23v-1.965M100.044 161.23v-1.965M100.044 161.23v-1.965"/><path class="st3" d="M59.99 272.699v3.023h-3.022z"/><path class="st3" d="M56.968 272.699h3.022l-3.022 3.023zM25.228 272.699h31.74v3.023h-31.74z"/><path class="st4" d="M59.99 272.7v3.022M25.227 275.722h31.741M59.99 272.7H25.226"/><path class="st3" d="M56.967 275.722h3.022v14.17h-3.022z"/><path class="st4" d="M56.968 275.722v14.17M59.99 289.892v-14.17"/><path class="st3" d="M97.776 300.85h3.023v67.449h-3.023z"/><path class="st4" d="M97.778 300.85v67.449M100.8 368.299v-67.448"/><path class="st3" d="M97.776 368.299h3.023v51.011h-3.023z"/><path class="st4" d="M97.778 368.299v51.011M100.8 419.31v-51.011"/><path class="st3" d="M66.036 402.873v3.023h-3.022z"/><path class="st3" d="M63.014 402.873h3.022l-3.022 3.023zM40.72 402.873h22.294v3.023H40.72zM25.228 402.873h12.469v3.023H25.228z"/><path class="st4" d="M66.036 402.874v3.022M66.036 402.874H40.72M37.696 402.874H25.227M25.227 405.896h12.47M40.72 405.896h22.294"/><path class="st3" d="M37.696 335.236h3.024l-3.024 3.023zM37.696 338.259h3.023v81.807h-3.023z"/><path class="st3" d="M40.72 335.236v3.023h-3.023z"/><path class="st4" d="M40.72 335.236h-3.023M40.72 420.066v-14.17M40.72 402.874v-67.639M37.696 338.258v64.615M37.696 405.896v14.17M40.72 420.066h-3.023"/><path class="st3" d="M25.228 335.236h12.469v3.023H25.228z"/><path class="st4" d="M37.696 335.236H25.227M25.227 338.258h12.47"/><path class="st3" d="M161.068 338.636h3.023v80.674h-3.023z"/><path class="st4" d="M164.092 419.31v-80.674M164.092 338.636h-3.022M161.07 338.636v80.674"/><path class="st3" d="M25.228 419.31h299.078v10.202H25.228z"/><path class="st4" d="M324.306 419.31H164.092M161.07 419.31h-60.271M97.778 419.31H66.036M63.014 419.31H40.72M37.696 419.31H25.227M16.159 429.513h331.202"/><path class="st3" d="M25.228 135.535h79.729v3.023H25.228zM138.962 135.535h12.849v3.023h-12.849z"/><path class="st4" d="M104.956 138.558h-1.965M104.956 135.535h-1.965M104.956 135.535v3.023M138.964 138.558h1.965M138.964 135.535h1.965M138.964 135.535v3.023M151.812 135.535h-12.848M104.956 135.535h-4.912M97.022 135.535H25.227M25.227 138.558h71.795M100.044 138.558h4.912M138.964 138.558h12.848M137.906 139.276h3.022M140.929 139.276v-.718M140.929 138.558h-3.022M137.906 138.558v.718M106.014 138.558h-3.022M102.991 138.558v.718M102.991 139.276h3.022M106.014 139.276v-.718M137.906 135.535h3.022M140.929 135.535v-.944M140.929 134.591h-3.022M137.906 134.591v.944M106.014 134.591h-3.022M102.991 134.591v.944M102.991 135.535h3.022M106.014 135.535v-.944M135.286 122.877l1.138 3.047m0 0l.82 3.148m0 0l.496 3.215m0 0l.166 3.248"/><path class="st3" d="M137.452 138.558h1.511v-3.023h-1.058v1.512h-.453zM104.956 138.558h1.512v-1.511h-.453v-1.512h-1.059z"/><path transform="rotate(-23.384 120.961 129.905)" class="st3" d="M105.005 129.144h31.891v1.511h-31.891z"/><path class="st4" d="M137.452 138.558v-1.512M137.452 137.046h.454M137.906 137.046v-1.511M137.906 135.535h1.058M138.964 135.535v3.023M138.964 138.558h-1.512M104.956 138.558v-3.023M104.956 135.535h1.058M106.014 135.535v1.511M106.014 137.046h.454M106.468 137.046v1.512M106.468 138.558h-1.512M135.286 122.877l-29.272 12.658M106.014 135.535l.601 1.387M106.615 136.922l29.27-12.658M135.886 124.264l-.6-1.387M138.964 135.535v3.023M138.964 135.535v3.023M138.964 135.535h1.965M138.964 135.535h1.965M138.964 138.558h1.965M138.964 138.558h1.965M104.956 135.535v3.023M104.956 135.535v3.023M104.956 135.535h-1.965M104.956 135.535h-1.965M104.956 138.558h-1.965M104.956 138.558h-1.965"/><path class="st3" d="M25.228 199.772h71.794v3.023H25.228z"/><path class="st4" d="M97.022 199.772H25.227M25.227 199.772v3.023M25.227 202.795h71.795"/><path class="st3" d="M162.392 11.407h3.022v71.416h-3.022z"/><path class="st4" d="M162.392 11.407v71.416M162.392 82.823h3.022M165.414 82.823V11.407"/><path class="st3" d="M63.014 405.896h3.022v13.414h-3.022z"/><path class="st4" d="M63.014 405.896v13.414M66.036 419.31v-13.414"/><path class="st5" d="M339.797 29.596h-15.491M347.355 29.596h-5.668M341.687 29.596h-1.89M339.797 112.726h-15.491M347.355 112.726h-5.668M341.687 112.726h-1.89M347.355 112.726v-83.13M324.305 112.726v-83.13M339.797 112.726v-3.779M339.797 108.947h1.891M341.687 108.947v3.779M341.687 57.935v1.89M341.687 59.825h-1.89M339.797 59.825v-1.89M340.742 108.947V59.825M339.797 108.947V59.825M341.687 59.825v49.122M339.797 57.935v-.944M339.797 56.991h.944M340.742 56.991v-.945M340.742 56.046h.945M341.687 56.046v1.889M341.687 29.596v3.779M341.687 33.374h-.945M340.742 33.374v-.944M340.742 32.43h-.944M339.797 32.43v-2.834M341.687 33.374v22.672M338.853 54.157V35.263M338.853 56.991v-2.834M338.853 54.157h1.889M340.742 54.157v2.834M340.742 56.991h-1.889M340.742 32.43v2.833M340.742 35.264h-1.889M338.853 35.264v-2.833M338.853 32.43h1.889M340.742 35.264v18.894M338.853 54.157V35.263M339.797 54.157V35.263M341.687 112.726h-1.89M341.687 112.726h-1.89M347.355 112.726h-5.668M339.797 112.726h-15.491M341.687 29.596h-1.89M341.687 29.596h-1.89M347.355 29.596h-5.668M339.797 29.596h-15.491M347.355 112.726h-23.05"/><g><path class="st5" d="M339.797 173.184h-15.491M347.355 173.184h-5.668M341.687 173.184h-1.89M339.797 239.31h-15.491M347.355 239.31h-5.668M341.687 239.31h-1.89M347.355 239.31v-66.126M324.305 239.31v-66.126M339.797 239.31v-3.779M339.797 235.531h1.891M341.687 235.531v3.779M341.687 201.523v1.89M341.687 203.413h-1.89M339.797 203.413v-1.89M340.742 235.531v-32.118M339.797 235.531v-32.118M341.687 203.413v32.118M339.797 201.523v-.944M339.797 200.579h.944M340.742 200.579v-.945M340.742 199.634h.945M341.687 199.634v1.889M341.687 173.184v3.778M341.687 176.962h-.945M340.742 176.962v-.944M340.742 176.018h-.944M339.797 176.018v-2.834M341.687 176.962v22.672M338.853 197.745v-18.894M338.853 200.579v-2.834M338.853 197.745h1.889M340.742 197.745v2.834M340.742 200.579h-1.889M340.742 176.018v2.833M340.742 178.851h-1.889M338.853 178.851v-2.833M338.853 176.018h1.889M340.742 178.851v18.894M338.853 197.745v-18.894M339.797 197.745v-18.894M341.687 239.31h-1.89M341.687 239.31h-1.89M347.355 239.31h-5.668M339.797 239.31h-15.491M341.687 173.184h-1.89M341.687 173.184h-1.89M347.355 173.184h-5.668M339.797 173.184h-15.491M347.355 239.31h-23.05"/><g><path class="st5" d="M339.797 396.123h-15.491M347.355 396.123h-5.668M341.687 396.123h-1.89M339.797 312.993h-15.491M347.355 312.993h-5.668M341.687 312.993h-1.89M347.355 312.993v83.13M324.305 312.993v83.13M339.797 312.993v3.778M339.797 316.771h1.891M341.687 316.771v-3.778M341.687 367.783v-1.89M341.687 365.893h-1.89M339.797 365.893v1.89M340.742 316.771v49.122M339.797 316.771v49.122M341.687 365.893v-49.122M339.797 367.783v.945M339.797 368.728h.944M340.742 368.728v.945M340.742 369.673h.945M341.687 369.673v-1.89M341.687 396.123v-3.778M341.687 392.345h-.945M340.742 392.345v.944M340.742 393.289h-.944M339.797 393.289v2.834M341.687 392.345v-22.672M338.853 371.562v18.893M338.853 368.728v2.834M338.853 371.562h1.889M340.742 371.562v-2.834M340.742 368.728h-1.889M340.742 393.289v-2.834M340.742 390.455h-1.889M338.853 390.455v2.834M338.853 393.289h1.889M340.742 390.455v-18.893M338.853 371.562v18.893M339.797 371.562v18.893M341.687 312.993h-1.89M341.687 312.993h-1.89M347.355 312.993h-5.668M339.797 312.993h-15.491M341.687 396.123h-1.89M341.687 396.123h-1.89M347.355 396.123h-5.668M339.797 396.123h-15.491M347.355 396.123h-23.05"/></g></g><g><path d="M347.355.5c0 9.677-.047 19.271-.047 28.971h-23.05V11.458H191.025V.5h156.33zM16.112 269.678h1.511v-.453h7.558l.003 160.339h-9.069l-.003-159.886h0zm9.068-38.995h-7.558v-.454h-1.511V.5h9.069v230.183h0zm165.845 59.135h133.234v-50.634h23.05v73.684h-23.05v-12.092H191.025v-10.958h0zm133.28 106.18h23.003v31.716h.047v1.85h-23.05v-33.566h0zm-.047-283.398h23.05v60.458h-23.05V112.6z" fill-rule="evenodd" clip-rule="evenodd" stroke="#000" stroke-miterlimit="3"/><path class="st0" d="M65.988 419.236v.125h31.741V300.776h-4.458v-1.511h-.454v-9.447h13.604v9.447h-.453v1.511h-5.215v118.585h60.269v-80.799h3.023v80.799h160.261v10.203H25.07v-10.203h12.579v-13.539H25.18v-3.023h12.469v-64.614H25.18v-3.023h15.492v67.637h25.316v16.437zm-3.022.125v-13.539H40.672v13.539h22.294zM25.18 289.818v10.958h39.978v-1.511h.453v-9.447h-5.669v-14.17h.001v-3.023H25.18v3.023h31.74v14.17H25.18zm165.845 10.958v-10.958h-53.62v9.447h.453v1.511h53.167zM121.6.5h69.425v10.958h-25.658v71.291h-3.022V11.458H99.997l.001 56.024h-1.513v-.454h-1.51l-.001-45.587H40.672v14.075H25.18v-3.022h12.469V11.458H25.227V.5H121.6zM96.975 135.461v-40.32h1.51v-.453h1.513l.001 40.773h5.969v1.512h.453v1.511h-6.423l-.001 24.183h-1.513v-.453h-1.51v-23.73H25.18v-3.023h71.795zm-.001-124.003H40.672v6.96h56.302v-6.96zm72.549 148.565h-17.759v-21.538h-14.359v-1.511h.453v-1.512h186.401v3.023H169.523v21.538zm-72.549 42.698H25.18v-3.023h71.794l.001-5.593h1.51v-.453h1.513l-.001 31.741h-3.023v-22.672zm69.526-45.722v-18.515h-11.714v18.515H166.5z"/><path class="st4" d="M.588 266.601c6.024 2.247 9.148 2.875 15.569 3.202"/><path class="st3" d="M.5 266.562l1.388.601 15.781-36.355v-.454h-1.511z"/><path class="st4" d="M85.95 69.425c4.295-1.602 6.493-2.038 11.071-2.272"/><path class="st3" d="M85.862 69.463l11.159 25.803h1.511v-.453l-11.283-25.95z"/><g><path class="st4" d="M84.462 191.654c4.871 1.817 7.367 2.312 12.559 2.577"/><path class="st3" d="M84.363 191.611l1.387.6 12.782-29.419v-.453h-1.511z"/><g><path class="st4" d="M135.323 123.029c1.798 4.81 2.321 7.43 2.583 12.557"/><path class="st3" d="M135.286 122.928l-29.271 12.658v1.512h.453l29.419-12.783z"/></g></g><g><path class="st4" d="M135.317 313.457c1.739-4.657 2.081-7.594 2.589-12.555"/><path class="st3" d="M135.286 313.56c.153-.515.34-.95.524-1.472l-29.342-12.698h-.453v1.511l29.271 12.659z"/><path class="st4" d="M67.479 311.987c-1.603-4.297-2.039-6.505-2.274-11.085"/><path class="st3" d="M67.514 312.079l25.804-11.177-.001-1.511h-.454l-25.95 11.282c.201.462.401.943.601 1.406z"/></g><g><path class="st7" d="M29.925.723l-4.6 4.05M37.345.723l-12.02 10.59M44.765.723l-12.44 10.96M52.195.723l-14.45 12.73M59.605.723l-12.44 10.96M40.765 17.323l-3.02 2.66M30.705 32.723l-3.43 3.02M67.035.723l-12.44 10.96M40.765 23.863l-3.02 2.66M46.695 18.643l-3.43 3.02M54.115 18.643l-3.43 3.02M40.765 30.403l-6.06 5.34M74.455.723l-12.44 10.96M61.535 18.643l-3.42 3.02M81.885.723l-12.45 10.96M68.955 18.643l-3.42 3.02M89.305.723l-12.44 10.96M76.385 18.643l-3.43 3.02M96.725.723l-12.44 10.96M83.795 18.643l-3.42 3.02M104.145.723l-12.44 10.96M91.225 18.643l-3.43 3.02M111.565.723l-14.5 12.77M118.985.723l-12.44 10.96M100.095 17.363l-4.88 4.3M126.415.723l-12.44 10.96M100.095 23.903l-3.03 2.67M133.835.723l-12.44 10.96M100.095 30.443l-3.03 2.67M141.255.723l-12.44 10.96M100.095 36.983l-3.03 2.67M148.675.723l-12.44 10.96M100.095 43.513l-3.03 2.67M156.095.723l-12.44 10.96M100.095 50.053l-3.03 2.67M163.525.723l-12.44 10.96M100.095 56.593l-3.03 2.67M170.945.723l-12.44 10.96M100.095 63.133l-3.03 2.67M178.375.723l-12.45 10.96M165.455 12.103l-3.02 2.66M185.795.723l-12.44 10.96M165.455 18.643l-3.02 2.66M32.585 135.683l-3.44 3.03M191.115 2.573l-10.34 9.11M165.455 25.183l-3.02 2.66M40.015 135.683l-3.44 3.03M165.455 31.713l-3.02 2.66M191.115 9.103l-2.92 2.58M47.425 135.683l-3.44 3.03M165.455 38.253l-3.02 2.66M100.095 95.823l-3.03 2.67M54.855 135.683l-3.44 3.03M165.455 44.793l-3.02 2.66M62.275 135.683l-3.44 3.03M100.095 102.363l-3.03 2.67M165.455 51.333l-3.02 2.66M69.705 135.683l-3.44 3.03M100.095 108.903l-3.03 2.67M165.455 57.873l-3.02 2.66M77.125 135.683l-3.44 3.03M100.095 115.443l-3.03 2.67M165.455 64.413l-3.02 2.66M100.095 121.983l-3.03 2.67M84.545 135.683l-3.44 3.03M165.455 70.943l-3.02 2.66M100.095 128.513l-3.03 2.67M91.965 135.683l-3.44 3.03M100.095 135.053l-4.15 3.66M165.455 77.483l-3.02 2.66M26.465 199.923l-1.19 1.05M100.095 141.593l-3.03 2.67M106.065 136.343l-2.7 2.37M33.885 199.923l-3.43 3.02M100.095 148.133l-3.03 2.67M41.305 199.923l-3.42 3.02M100.095 154.673l-3.03 2.67M48.735 199.923l-3.43 3.02M100.095 161.213l-1.52 1.34M56.155 199.923l-3.43 3.02M63.575 199.923l-3.43 3.02M143.915 135.683l-3.44 3.03M70.995 199.923l-3.43 3.02M151.345 135.683l-3.44 3.03M78.415 199.923l-3.42 3.02M158.765 135.683l-3.44 3.03M154.875 139.113l-3.02 2.66M85.845 199.923l-3.43 3.02M166.195 135.683l-3.44 3.03M154.875 145.653l-3.02 2.66M100.095 193.903l-3.03 2.67M93.265 199.923l-3.43 3.02M169.615 139.203l-3.02 2.66M173.615 135.683l-3.44 3.03M100.095 200.443l-3.03 2.67M154.875 152.193l-3.02 2.66M169.615 145.743l-3.02 2.66M181.035 135.683l-3.44 3.03M100.095 206.983l-3.03 2.67M156.585 157.223l-3.44 3.03M25.325 272.853l-.05.04M169.615 152.273l-3.02 2.66M188.455 135.683l-3.44 3.03M100.095 213.513l-3.03 2.67M163.995 157.223l-3.43 3.03M32.735 272.853l-3.42 3.02M195.875 135.683l-3.44 3.03M169.615 158.813l-1.63 1.44M100.095 220.053l-3.03 2.67M40.165 272.853l-3.43 3.02M203.295 135.683l-3.44 3.03M28.075 290.043l-2.8 2.47M47.585 272.853l-3.43 3.02M210.725 135.683l-3.44 3.03M35.495 290.043l-10.22 9.01M55.015 272.853l-3.43 3.02M218.145 135.683l-3.44 3.03M42.915 290.043l-12.44 10.96M60.035 274.963l-3.02 2.66M225.575 135.683l-3.44 3.03M50.345 290.043l-12.44 10.96M60.035 281.503l-3.02 2.66M232.985 135.683l-3.44 3.03M60.035 288.033l-14.72 12.97M240.405 135.683l-3.44 3.03M65.185 290.043l-12.44 10.96M247.835 135.683l-3.44 3.03M65.705 296.123l-5.54 4.88M255.255 135.683l-3.44 3.03M28.555 335.393l-3.28 2.89M262.685 135.683l-3.44 3.03M35.975 335.393l-3.43 3.02M40.765 337.713l-3.02 2.66M94.875 290.043l-1.96 1.73M270.105 135.683l-3.44 3.03M102.305 290.043l-9.39 8.27M40.765 344.253l-3.02 2.66M277.525 135.683l-3.44 3.03M106.515 292.863l-9.24 8.14M40.765 350.783l-3.02 2.66M284.945 135.683l-3.44 3.03M100.845 304.393l-3.02 2.66M40.765 357.323l-3.02 2.66M106.065 299.803l-1.37 1.2M106.515 299.403l-.1.09M292.365 135.683l-3.44 3.03M100.845 310.933l-3.02 2.66M40.765 363.863l-3.02 2.66M299.785 135.683l-3.43 3.03M100.845 317.473l-3.02 2.66M40.765 370.403l-3.02 2.66M307.215 135.683l-3.44 3.03M100.845 324.013l-3.02 2.66M40.765 376.943l-3.02 2.66M139.405 290.043l-1.91 1.69M314.635 135.683l-3.44 3.03M146.835 290.043l-9.34 8.23M40.765 383.483l-3.02 2.66M100.845 330.553l-3.02 2.66M322.065 135.683l-3.44 3.03M154.245 290.043l-12.44 10.96M40.765 390.013l-3.02 2.66M100.845 337.083l-3.02 2.66M25.995 403.023l-.72.64M33.425 403.023l-3.44 3.03M100.845 343.623l-3.02 2.66M40.765 396.553l-3.02 2.66M161.675 290.043l-12.44 10.96M169.095 290.043l-12.44 10.96M40.845 403.023l-3.44 3.03M100.845 350.163l-3.02 2.66M176.525 290.043l-12.45 10.96M48.265 403.023l-3.44 3.03M40.765 409.633l-3.02 2.66M100.845 356.703l-3.02 2.66M29.465 419.583l-4.3 3.79M183.945 290.043l-12.44 10.96M55.685 403.023l-3.44 3.03M40.765 416.173l-3.02 2.66M100.845 363.243l-3.02 2.66M36.895 419.583l-11.59 10.21M191.115 290.263l-12.19 10.74M63.115 403.023l-3.44 3.03M44.315 419.583l-11.59 10.21M100.845 369.783l-3.02 2.66M100.845 376.313l-3.02 2.66M51.735 419.583l-11.59 10.21M66.085 406.933l-3.03 2.67M191.115 296.793l-4.78 4.21M100.845 382.853l-3.02 2.66M59.155 419.583l-11.59 10.21M66.085 413.473l-3.03 2.67M100.845 389.393l-3.02 2.66M66.575 419.583l-11.59 10.21M100.845 395.933l-3.02 2.66M74.005 419.583l-11.59 10.21M164.135 340.183l-3.02 2.66M164.135 346.723l-3.02 2.66M81.425 419.583l-11.59 10.21M100.845 402.473l-3.02 2.66M164.135 353.263l-3.02 2.66M88.845 419.583l-11.59 10.21M100.845 409.013l-3.02 2.66M164.135 359.803l-3.02 2.66M96.275 419.583l-11.59 10.21M100.845 415.553l-3.02 2.66M164.135 366.333l-3.02 2.66M103.685 419.583l-11.59 10.21M164.135 372.873l-3.02 2.66M111.115 419.583l-11.59 10.21M164.135 379.413l-3.02 2.66M118.535 419.583l-11.59 10.21M164.135 385.953l-3.02 2.66M125.955 419.583l-11.59 10.21M164.135 392.493l-3.02 2.66M133.385 419.583l-11.59 10.21M164.135 399.033l-3.02 2.66M140.805 419.583l-11.59 10.21M164.135 405.563l-3.02 2.66M148.225 419.583l-11.59 10.21M164.135 412.103l-3.02 2.66M155.645 419.583l-11.59 10.21M164.135 418.643l-12.66 11.15M170.495 419.583l-11.59 10.21M177.915 419.583l-11.59 10.21M185.335 419.583l-11.59 10.21M192.765 419.583l-11.59 10.21M200.175 419.583l-11.59 10.21M207.605 419.583l-11.59 10.21M215.025 419.583l-11.59 10.21M222.455 419.583l-11.59 10.21M229.875 419.583l-11.59 10.21M237.295 419.583l-11.59 10.21M244.715 419.583l-11.59 10.21M252.135 419.583l-11.59 10.21M259.555 419.583l-11.59 10.21M266.985 419.583l-11.59 10.21M274.405 419.583l-11.59 10.21M281.835 419.583l-11.59 10.21M289.245 419.583l-11.59 10.21M296.665 419.583l-11.59 10.21M304.095 419.583l-11.59 10.21M311.515 419.583l-11.59 10.21M318.945 419.583l-11.59 10.21M324.395 421.313l-9.62 8.48M324.395 427.853l-2.2 1.94"/></g><path d="M65.988 419.236v.125h31.741V300.776h-4.458v-1.511h-.454v-9.447h13.604v9.447h-.453v1.511h-5.215v118.585h60.269v-80.799h3.023v80.799h160.261v10.203H25.07v-10.203h12.579v-13.539H25.18v-3.023h12.469v-64.614H25.18v-3.023h15.492v67.637h25.316v16.437h0zm-3.022.125v-13.539H40.672v13.539h22.294zM25.18 289.818v10.958h39.978v-1.511h.453v-9.447h-5.669v-14.17h.001v-3.023H25.18v3.023h31.74v14.17H25.18h0zm165.845 10.958v-10.958h-53.62v9.447h.453v1.511h53.167zM121.6.5h69.425v10.958h-25.658v71.291h-3.022V11.458H99.997l.001 56.024h-1.513v-.454h-1.51l-.001-45.587H40.672v14.075H25.18v-3.022h12.469V11.458H25.227V.5H121.6zM96.975 135.461v-40.32h1.51v-.453h1.513l.001 40.773h5.969v1.512h.453v1.511h-6.423l-.001 24.183h-1.513v-.453h-1.51v-23.73H25.18v-3.023h71.795zm-.001-124.003v6.96H40.672v-6.96h56.302zm72.549 148.565h-17.759v-21.538h-14.359v-1.511h.453v-1.512h186.401v3.023H169.523v21.538h0zm-72.549 42.698H25.18v-3.023h71.794l.001-5.593h1.51v-.453h1.513l-.001 31.741h-3.023v-22.672h0zm69.526-45.722v-18.515h-11.714v18.515H166.5z" fill-rule="evenodd" clip-rule="evenodd" fill="none" stroke="#000" stroke-miterlimit="22.926"/></g></g><g id="sizes"><path d="M238.322 267.655l3.961-5.281c.229-.302.407-.616.535-.941s.191-.629.191-.91v-.016c0-.453-.133-.805-.398-1.055s-.644-.375-1.133-.375c-.464 0-.839.137-1.125.41s-.461.66-.523 1.16v.008h-1.648v-.008c.094-.651.285-1.207.574-1.668s.663-.813 1.121-1.055.987-.363 1.586-.363c.677 0 1.255.116 1.734.348s.844.569 1.094 1.012.375.977.375 1.602v.008c0 .401-.083.82-.25 1.258s-.398.859-.695 1.266l-3.289 4.469h4.297v1.516h-6.406v-1.385zM248.744 269.155l-.727-.348c-.485-.232-.874-.567-1.168-1.008s-.48-.97-.559-1.59h1.625c.047.323.148.589.305.797s.358.363.605.465.538.152.871.152c.526 0 .935-.141 1.227-.422s.438-.677.438-1.188v-.344c0-.567-.138-1.007-.414-1.316s-.667-.465-1.172-.465h-.805v-1.516h.805c.442 0 .786-.133 1.031-.398s.367-.641.367-1.125v-.352c0-.448-.129-.794-.387-1.039s-.624-.367-1.098-.367c-.271 0-.513.051-.727.152s-.395.258-.543.469-.257.476-.324.793h-1.617c.104-.62.301-1.151.59-1.594s.655-.778 1.098-1.008.95-.344 1.523-.344c.979 0 1.737.258 2.273.773s.805 1.242.805 2.18v.188c0 .567-.153 1.063-.461 1.484s-.742.729-1.305.922c.62.136 1.101.44 1.441.914s.512 1.078.512 1.813v.188c0 .661-.128 1.227-.383 1.695s-.626.825-1.113 1.07-1.074.367-1.762.367l-.951.002zM255.064 267.444h1.594v1.594l-1.594 1.578v-3.172zM260.83 269.155l-.727-.348c-.485-.232-.874-.567-1.168-1.008s-.48-.97-.559-1.59h1.625c.047.323.148.589.305.797s.358.363.605.465.538.152.871.152c.526 0 .935-.141 1.227-.422s.438-.677.438-1.188v-.344c0-.567-.138-1.007-.414-1.316s-.667-.465-1.172-.465h-.805v-1.516h.805c.442 0 .786-.133 1.031-.398s.367-.641.367-1.125v-.352c0-.448-.129-.794-.387-1.039s-.624-.367-1.098-.367c-.271 0-.513.051-.727.152s-.395.258-.543.469-.257.476-.324.793h-1.617c.104-.62.301-1.151.59-1.594s.655-.778 1.098-1.008.95-.344 1.523-.344c.979 0 1.737.258 2.273.773s.805 1.242.805 2.18v.188c0 .567-.153 1.063-.461 1.484s-.742.729-1.305.922c.62.136 1.101.44 1.441.914s.512 1.078.512 1.813v.188c0 .661-.128 1.227-.383 1.695s-.626.825-1.113 1.07-1.074.367-1.762.367l-.951.002zM298.374 320.621h-1.594v-9.625l-1.617.992v-1.648l1.617-1.078h1.594v11.359zM302.937 320.738l-.727-.348a2.857 2.857 0 01-1.168-1.008c-.294-.439-.48-.97-.559-1.59h1.625c.047.323.148.589.305.797.156.209.358.363.605.465s.538.152.871.152c.526 0 .935-.141 1.227-.422s.438-.677.438-1.188v-.344c0-.567-.138-1.006-.414-1.316-.276-.31-.667-.465-1.172-.465h-.805v-1.516h.805c.442 0 .786-.133 1.031-.398s.367-.641.367-1.125v-.352c0-.447-.129-.794-.387-1.039-.258-.244-.624-.367-1.098-.367-.271 0-.513.051-.727.152s-.395.258-.543.469-.257.476-.324.793h-1.617c.104-.619.301-1.15.59-1.594a2.893 2.893 0 011.098-1.008c.442-.229.95-.344 1.523-.344.979 0 1.737.258 2.273.773s.805 1.242.805 2.18v.188c0 .568-.153 1.063-.461 1.484s-.742.729-1.305.922c.62.136 1.101.44 1.441.914.341.475.512 1.078.512 1.813v.188c0 .662-.128 1.227-.383 1.695s-.626.826-1.113 1.07c-.487.245-1.074.367-1.762.367l-.951.002zM309.257 319.027h1.594v1.594l-1.594 1.578v-3.172zM315.022 320.738l-.727-.348a2.857 2.857 0 01-1.168-1.008c-.294-.439-.48-.97-.559-1.59h1.625c.047.323.148.589.305.797.156.209.358.363.605.465s.538.152.871.152c.526 0 .935-.141 1.227-.422s.438-.677.438-1.188v-.344c0-.567-.138-1.006-.414-1.316-.276-.31-.667-.465-1.172-.465h-.805v-1.516h.805c.442 0 .786-.133 1.031-.398s.367-.641.367-1.125v-.352c0-.447-.129-.794-.387-1.039-.258-.244-.624-.367-1.098-.367-.271 0-.513.051-.727.152s-.395.258-.543.469-.257.476-.324.793h-1.617c.104-.619.301-1.15.59-1.594a2.893 2.893 0 011.098-1.008c.442-.229.95-.344 1.523-.344.979 0 1.737.258 2.273.773s.805 1.242.805 2.18v.188c0 .568-.153 1.063-.461 1.484s-.742.729-1.305.922c.62.136 1.101.44 1.441.914.341.475.512 1.078.512 1.813v.188c0 .662-.128 1.227-.383 1.695s-.626.826-1.113 1.07c-.487.245-1.074.367-1.762.367l-.951.002zM116.606 392.319c-.445-.224-.808-.55-1.086-.977s-.465-.94-.559-1.539v-.008h1.594v.008c.058.417.224.741.5.973s.636.348 1.078.348c.511 0 .905-.171 1.184-.512s.418-.821.418-1.441v-.953c0-.614-.14-1.093-.418-1.434s-.673-.512-1.184-.512c-.276 0-.542.078-.797.234s-.479.375-.672.656h-1.453v-5.984H121v1.516h-4.195v2.555a2.275 2.275 0 011.414-.508c.656 0 1.218.136 1.684.406s.82.667 1.063 1.188.363 1.148.363 1.883v.953c0 .734-.125 1.362-.375 1.883s-.614.918-1.094 1.191-1.055.41-1.727.41c-.573 0-1.082-.112-1.527-.336zM123.516 390.944h1.594v1.594l-1.594 1.578v-3.172zM128.122 391.803c-.55-.567-.824-1.359-.824-2.375v-5.164c0-1.021.276-1.813.828-2.379s1.356-.848 2.414-.848c1.063 0 1.868.281 2.418.844s.824 1.356.824 2.383v5.164c0 1.021-.276 1.813-.828 2.379s-1.356.848-2.414.848c-1.063 0-1.869-.284-2.418-.852zm3.664-1.105c.269-.294.402-.718.402-1.27v-5.164c0-.552-.133-.976-.398-1.27s-.683-.441-1.25-.441-.984.147-1.25.441-.398.718-.398 1.27v5.164c0 .552.134.976.402 1.27s.684.441 1.246.441.977-.147 1.246-.441z"/><g><path d="M142.529 101.375a2.75 2.75 0 01-1.086-.977c-.278-.427-.465-.94-.559-1.539v-.008h1.594v.008c.058.417.224.741.5.973.276.232.636.348 1.078.348.511 0 .905-.17 1.184-.512.278-.341.418-.821.418-1.441v-.953c0-.614-.14-1.092-.418-1.434-.278-.341-.673-.512-1.184-.512-.276 0-.542.078-.797.234s-.479.375-.672.656h-1.453v-5.984h5.789v1.516h-4.195v2.555a2.275 2.275 0 011.414-.508c.656 0 1.218.136 1.684.406.466.271.82.667 1.063 1.188.242.521.363 1.148.363 1.883v.953c0 .734-.125 1.362-.375 1.883-.25.521-.614.918-1.094 1.191s-1.055.41-1.727.41c-.573 0-1.081-.112-1.527-.336zM149.439 100h1.594v1.594l-1.594 1.578V100zM153.064 98.469l3.813-8.227h1.641l-3.719 8.133h5.57v1.477h-7.305v-1.383zm4.899-3.555h1.555v6.688h-1.555v-6.688z"/></g><g><path d="M55.317 60.881a2.75 2.75 0 01-1.086-.977c-.278-.427-.465-.94-.559-1.539v-.008h1.594v.008c.058.417.224.741.5.973.276.232.636.348 1.078.348.511 0 .905-.17 1.184-.512.278-.341.418-.821.418-1.441v-.953c0-.614-.14-1.092-.418-1.434-.278-.341-.673-.512-1.184-.512-.276 0-.542.078-.797.234s-.479.375-.672.656h-1.453V49.74h5.789v1.516h-4.195v2.555a2.275 2.275 0 011.414-.508c.656 0 1.218.136 1.684.406.466.271.82.667 1.063 1.188.242.521.363 1.148.363 1.883v.953c0 .734-.125 1.362-.375 1.883-.25.521-.614.918-1.094 1.191s-1.055.41-1.727.41c-.573 0-1.081-.112-1.527-.336zM62.228 59.506h1.594V61.1l-1.594 1.578v-3.172zM65.853 57.975l3.813-8.227h1.641l-3.719 8.133h5.57v1.477h-7.305v-1.383zm4.898-3.555h1.555v6.688h-1.555V54.42z"/></g><g><path d="M57.045 192.533l-.727-.348a2.857 2.857 0 01-1.168-1.008c-.294-.44-.48-.97-.559-1.59h1.625c.047.323.148.589.305.797.156.208.358.363.605.465s.538.152.871.152c.526 0 .935-.141 1.227-.422s.438-.677.438-1.188v-.344c0-.567-.138-1.006-.414-1.316-.276-.31-.667-.465-1.172-.465h-.805v-1.516h.805c.442 0 .786-.133 1.031-.398s.367-.641.367-1.125v-.352c0-.448-.129-.794-.387-1.039-.258-.245-.624-.367-1.098-.367-.271 0-.513.051-.727.152s-.395.258-.543.469-.257.476-.324.793h-1.617c.104-.62.301-1.151.59-1.594a2.893 2.893 0 011.098-1.008c.442-.229.95-.344 1.523-.344.979 0 1.737.258 2.273.773s.805 1.242.805 2.18v.188c0 .568-.153 1.063-.461 1.484s-.742.729-1.305.922c.62.136 1.101.44 1.441.914.341.474.512 1.078.512 1.813v.188c0 .662-.128 1.227-.383 1.695s-.626.826-1.113 1.07c-.487.245-1.074.367-1.762.367l-.951.002zM63.365 190.823h1.594v1.594l-1.594 1.578v-3.172zM67.971 191.682c-.55-.567-.824-1.359-.824-2.375v-5.164c0-1.021.276-1.813.828-2.379.552-.565 1.356-.848 2.414-.848 1.063 0 1.868.281 2.418.844s.824 1.357.824 2.383v5.164c0 1.021-.276 1.814-.828 2.379-.552.565-1.356.848-2.414.848-1.063-.001-1.868-.284-2.418-.852zm3.664-1.106c.269-.294.402-.717.402-1.27v-5.164c0-.552-.133-.975-.398-1.27-.266-.294-.683-.441-1.25-.441s-.984.147-1.25.441c-.266.294-.398.718-.398 1.27v5.164c0 .552.134.976.402 1.27.269.294.684.441 1.246.441s.977-.146 1.246-.441z"/></g><g><path d="M43.579 261.479l3.813-8.227h1.641l-3.719 8.133h5.57v1.477h-7.305v-1.383zm4.899-3.554h1.555v6.688h-1.555v-6.688zM52.681 263.01h1.594v1.594l-1.594 1.578v-3.172zM56.29 263.221l3.961-5.281c.229-.302.407-.615.535-.941.128-.325.191-.629.191-.91v-.016c0-.453-.133-.805-.398-1.055s-.644-.375-1.133-.375c-.464 0-.839.137-1.125.41s-.461.66-.523 1.16v.008H56.15v-.008c.094-.65.285-1.207.574-1.668s.663-.813 1.121-1.055.987-.363 1.586-.363c.677 0 1.255.116 1.734.348.479.232.844.569 1.094 1.012.25.443.375.977.375 1.602v.008c0 .401-.083.82-.25 1.258s-.398.859-.695 1.266L58.4 263.09h4.297v1.516H56.29v-1.385z"/></g><g><path d="M43.199 363.745l3.813-8.227h1.641l-3.719 8.133h5.57v1.477h-7.305v-1.383zm4.899-3.555h1.555v6.688h-1.555v-6.688zM52.301 365.276h1.594v1.594l-1.594 1.578v-3.172zM61.949 356.932l-2.938 9.938h-1.695l2.938-9.844h-2.891v1.633H55.77v-3.148h6.18v1.421z"/></g><g><path d="M298.591 130.524h-1.594v-9.625l-1.617.992v-1.648l1.617-1.078h1.594v11.359zM303.153 130.641l-.727-.348a2.857 2.857 0 01-1.168-1.008c-.294-.44-.48-.97-.559-1.59h1.625c.047.323.148.589.305.797.156.208.358.363.605.465s.538.152.871.152c.526 0 .935-.141 1.227-.422s.438-.677.438-1.188v-.344c0-.567-.138-1.006-.414-1.316-.276-.31-.667-.465-1.172-.465h-.805v-1.516h.805c.442 0 .786-.133 1.031-.398s.367-.641.367-1.125v-.352c0-.448-.129-.794-.387-1.039-.258-.245-.624-.367-1.098-.367-.271 0-.513.051-.727.152s-.395.258-.543.469-.257.476-.324.793h-1.617c.104-.62.301-1.151.59-1.594a2.893 2.893 0 011.098-1.008c.442-.229.95-.344 1.523-.344.979 0 1.737.258 2.273.773s.805 1.242.805 2.18v.188c0 .568-.153 1.063-.461 1.484s-.742.729-1.305.922c.62.136 1.101.44 1.441.914.341.474.512 1.078.512 1.813v.188c0 .662-.128 1.227-.383 1.695s-.626.826-1.113 1.07c-.487.245-1.074.367-1.762.367l-.951.002zM309.474 128.93h1.594v1.594l-1.594 1.578v-3.172zM314.899 130.305a2.75 2.75 0 01-1.086-.977c-.278-.427-.465-.94-.559-1.539v-.008h1.594v.008c.058.417.224.741.5.973.276.232.636.348 1.078.348.511 0 .905-.17 1.184-.512.278-.341.418-.821.418-1.441v-.953c0-.614-.14-1.092-.418-1.434-.278-.341-.673-.512-1.184-.512-.276 0-.542.078-.797.234s-.479.375-.672.656h-1.453v-5.984h5.789v1.516h-4.195v2.555a2.275 2.275 0 011.414-.508c.656 0 1.218.136 1.684.406.466.271.82.667 1.063 1.188.242.521.363 1.148.363 1.883v.953c0 .734-.125 1.362-.375 1.883-.25.521-.614.918-1.094 1.191s-1.055.41-1.727.41c-.572 0-1.081-.112-1.527-.336z"/></g></g></svg>