<svg version="1.1" id="_x37__1_" xmlns="http://www.w3.org/2000/svg" x="0" y="0" viewBox="0 0 269.254 287.377" xml:space="preserve"><style>.st0{fill-rule:evenodd;clip-rule:evenodd;fill:#fff}.st1,.st3{fill:none;stroke-linecap:round;stroke-linejoin:round;stroke-miterlimit:3}.st1{fill-rule:evenodd;clip-rule:evenodd;stroke:#999}.st3{stroke:#000}.st4,.st5,.st7{fill-rule:evenodd;clip-rule:evenodd}.st5,.st7{fill:none}.st5{stroke-linecap:round;stroke-linejoin:round;stroke:#000;stroke-miterlimit:3}.st7{stroke:#666;stroke-width:.6;stroke-miterlimit:22.9256}</style><g id="fon_1_"><path id="fon" class="st0" d="M0 15.683h269.146v271.694H0z"/></g><g id="mebel_5_"><path class="st1" d="M150.686 188.072V266.1m0 0h-15.114m0 0v-78.028m0 0h15.114M149.931 188.072V266.1M150.686 227.086h-.755M150.686 188.072h-.755M221.347 116.655h-22.672m0 0V93.984m0 0h22.672m0 0v22.671M210.011 101.541v7.558M212.683 102.648l-5.344 5.345M213.79 105.319h-7.558M212.683 107.992l-5.344-5.345M240.24 121.757v19.271m0 0l.222.535m0 0l.534.22m0 0h17.382m0 0l.534-.22m0 0l.222-.535m0 0v-19.271m0 0l-.222-.534m0 0l-.534-.222m0 0h-17.382m0 0l-.534.222m0 0l-.222.534M237.406 120.057v22.672M260.078 120.057v22.672M237.406 120.057h22.672M237.406 142.729h22.672M242.13 123.646v15.493M242.885 139.895h11.714M255.354 139.139v-15.492M254.599 122.891h-11.714M242.13 123.646h.108a.108.108 0 10-.108.108.109.109 0 00.108-.108h-.108zM242.885 139.895a.756.756 0 01-.756-.756M255.354 139.139a.756.756 0 01-.755.756M254.599 122.891c.417 0 .755.338.755.756M242.13 123.646c0-.418.338-.756.756-.756M250.522 131.053l-.24.1m0 0l-.099.241m0 0l.1.24m0 0l.241.099m0 0H258m0 0l.24-.1m0 0l.099-.24m0 0l-.099-.24m0 0l-.24-.1m0 0h-7.478M256.073 130.638v.415m0 0H258m0 0l.24.1m0 0l.1.24m0 0l-.1.24m0 0l-.24.1m0 0h-1.927m0 0v.414m0 0h2.456m0 0v-1.509m0 0h-2.456M254.712 130.648v.404m0 .001h1.322m0 0v-.404m0-.001h-1.322M254.712 132.137h1.322m0 0v-.404m0 0h-1.322m0 0v.404M237.406 142.729V165.4M260.078 142.729V165.4M237.406 142.729h22.672M237.406 165.4h22.672M258 187.694v-21.916m0 0h-18.516m-.001 0v21.916m0 0H258M246.719 176.736h-5.299M241.42 176.736v-1.096M246.719 176.736v-1.096M246.719 167.882h-5.299M241.42 168.977v-1.095M246.719 168.977v-1.095M246.593 182.982a2.74 2.74 0 11-5.479 0 2.74 2.74 0 015.479 0zM256.061 181.711a3.968 3.968 0 11-7.936 0 3.968 3.968 0 017.936 0z"/><path class="st1" d="M254.36 181.711a2.267 2.267 0 11-4.534 0 2.267 2.267 0 014.534 0zM246.684 172.31a2.646 2.646 0 11-5.292-.002 2.646 2.646 0 015.292.002zM256.031 171.191a3.4 3.4 0 11-6.802-.002 3.4 3.4 0 016.802.002zM260.078 188.072V165.4M237.406 188.072V165.4M260.078 188.072h-22.672M260.078 165.4h-22.672M260.078 246.489h-1.89m0 0v-48.82m0 0h1.89m0 0v48.82M222.291 246.489v-24.41m0 0h26.45m.001 0v24.41m0 0h-26.45M222.291 222.079v-24.41m0 0h26.45m.001 0v24.41m0 0h-26.45M222.291 197.669v-9.597m0 0h37.786m.001 0v9.597m0 0h-1.89m-9.446 0h-26.45M222.291 256.087v-9.598m0 0h26.45m9.447 0h1.89m0 0v9.598m0 0h-37.786M258.188 222.079h-9.446m0 0V192.87m0 0h9.446m0 0v29.209M258.188 222.079h-9.446m0 0v29.209m0 0h9.446m0 0v-29.209M155.598 36.171a7.18 7.18 0 11-7.179-7.18 7.18 7.18 0 017.179 7.18zM250.212 150.907a3.411 3.411 0 11-6.822.002 3.411 3.411 0 016.822-.002z"/><path class="st1" d="M249.691 150.907a2.89 2.89 0 11-5.78.001 2.89 2.89 0 015.78-.001zM248.548 157.216a2.58 2.58 0 11-5.16 0 2.58 2.58 0 015.16 0z"/><path class="st1" d="M247.414 157.216a1.445 1.445 0 11-2.89 0 1.445 1.445 0 012.89 0zM23.158 159.26a3.778 3.778 0 11-7.557 0 3.778 3.778 0 017.557 0z"/><path class="st1" d="M20.513 159.26a1.134 1.134 0 11-2.268 0 1.134 1.134 0 012.268 0zM23.158 248.058a3.778 3.778 0 11-7.557 0 3.778 3.778 0 017.557 0z"/><path class="st1" d="M20.513 248.058a1.134 1.134 0 11-2.268 0 1.134 1.134 0 012.268 0zM89.284 237.666v-68.015m0 0H13.711m0 0v68.015m0 0h75.573M91.173 235.777V171.54m0 0l-.144-.723m0 0l-.41-.613m0 0l-.613-.409m0 0l-.723-.144m0 0v68.015m0 0l.723-.144m0 0l.613-.409m0 0l.41-.613m0 0l.144-.723M9.933 237.666v-68.015m0 0h3.778m0 0v68.015m0 0H9.933M9.933 169.652v68.015m0-.001h1.889m0 0v-68.015m0 .001H9.933M9.933 167.762v-17.004m0 0h18.893m-.001 0v17.004m0 0H9.933M9.933 239.556v17.004m0 0h18.893m-.001 0v-17.004m0 0H9.933M15.6 197.613v-25.695m0 0l.11-.267m0 0l.268-.111m.001 0h12.469m0 0l.268.111m0 0l.11.267m-.001 0v25.695m0 0l-.11.267m.001 0l-.268.111m0 0H15.979m0 0l-.268-.111m-.001 0l-.11-.267M15.6 209.704v25.695m0 0l.11.267m0 0l.268.111m.001 0h12.469m0 0l.268-.111m0 0l.11-.267m-.001 0v-25.695m0 0l-.11-.267m.001 0l-.268-.111m0 0H15.979m0 0l-.268.111m-.001 0l-.11.267M27.802 237.666v-1.889M27.802 209.326v-11.335M27.802 171.54v-1.889M32.812 237.666v-68.015m0 0h18.686m0 0L36.59 237.666m0 0h-3.778M142.663 252.371h-1.02m.001 0v-44.369m0 0h1.02m-.001 0v44.369M141.644 250.967l-3.41.71m0 0l.141.68m0 0l3.269-.68m0 0v-.71M141.644 242.67h-.832m0 0l-.567-.152m0 0l-.414-.415m0 0l-.153-.567m0 0v-22.699m0 0l.153-.566m0 0l.414-.415m0 0l.567-.153m0 0h.832m0 0v24.967M143.021 250.967l3.41.71m0 0l-.141.68m0 0l-3.269-.68m0 0v-.71M141.644 209.406l-3.41-.71m0 0l.141-.68m0 0l3.269.68m0 0v.71M142.961 209.406l3.41-.71m0 0l-.14-.68m0 0l-3.27.68m0 0v.71M142.961 252.371h-.298m0 0v-44.369m0 0h.298m0 0v44.369M9.933 93.984v52.334m0 0h22.671m0 0v-29.663m0 0h62.159m-.001 0V93.984m0 0H9.933M94.763 105.697v-.755m0 0H20.891m0 0l.756.755m0 0h73.116M40.041 95.977v18.626m0 0h.756m0 0V95.977m0 0h-.756M42.046 95.977v18.626m0 0h.755m0 0V95.977m0 0h-.755M44.05 95.977v18.626m0 0h.756m0 0V95.977m0 0h-.756M46.055 95.977v18.626m0 0h.756m0 0V95.977m0 0h-.756M50.301 96.112l-2.241 18.49m0 0l.75.092m0 0l2.241-18.491m0 0l-.75-.091M228.715 39.95h22.672m0 0v51.011m0 0h-22.672m0 0V39.95M240.429 90.961h-.756m0 0V39.95m0 0h.756m0 0v51.011M230.708 47.387h18.627m0 0v.755m0 0h-18.627m0 0v-.755M230.708 49.391h18.627m0 0v.756m0 0h-18.627m0 0v-.756M230.708 51.396h18.627m0 0v.756m0 0h-18.627m0 0v-.756M230.708 53.401h18.627m0 0v.756m0 0h-18.627m0 0v-.756M230.843 57.646l18.491-2.241m0 0l.091.75m0 0l-18.491 2.241m0 0l-.091-.75M21.646 146.318h-.756m0 0v-41.376m0 0l.756.755m0 0v40.621M154.427 35.655l-1.233.449m0 0h-1.313m0 0l-1.232-.449m0 0l-1.474.342m0 0h-1.513m0 0l-1.472-.342m0 0l-1.235.449m0 0h-1.314m0 0l-1.235-.449m0 0l2.232 2.987m0 0h7.558m0 0l2.231-2.987M152.196 38.904h-7.558m0 0v-.262m0 0h7.558m0 0v.262M152.196 39.427h-7.558m0 0v-.261m0 0h7.558m0 0v.261M147.576 34.14l.891-.085m0 0l.021.226m0-.001l-.476.046m0 .001l1.383 1.142m0-.001l-.126.152m0 .001l-.641-.53m0 0l-.068.081m0 0l.74.612m0 0l-.12.145m0 0l-.741-.61m0 0l-.08.097m0 0l.601.496m0-.001l-.107.13m0 .001l-.601-.496m0 0l-.081.098m0 0l.415.342m0 0l-.115.14m0 0l-1.423-1.174M159.755 24.835h-22.672m0 0v22.672m0 0h22.672m0 0V24.835M137.083 49.396h37.597m0 0V24.835m0 0h-37.597m0 0v24.562M244.594 146.839v.963m0 0h-1.205m0 0v12.524m0 0h1.205m0 0v.964M254.598 148.303v9.634m0 0h-.479m0 0v-.723m0 0h.238m0 0v-8.188m0 0h-.238m0 0v-.723m0 0h.479M254.119 148.303l-.103.047m-.102.048l-.104.047m-.102.046l-.104.047m-.103.047l-.104.048m-.102.047l-.104.048m-.101.047l-.104.047m-.104.046l-.103.048m-.102.047l-.103.047m-.103.048l-.103.047m-.104.047l-.103.047m-.103.047l-.103.047m-.104.047l-.103.048m-.103.047l-.102.047m-.103.047l-.103.046m-.104.048l-.102.047m-.104.047l-.102.048m-.105.047l-.103.047M254.119 157.936l-.103-.048m-.102-.046l-.104-.047m-.102-.046l-.104-.048m-.103-.047l-.104-.047m-.102-.048l-.104-.048m-.101-.047l-.104-.047m-.104-.047l-.103-.047m-.102-.046l-.103-.048m-.103-.047l-.103-.047m-.104-.048l-.103-.047m-.103-.047l-.103-.047m-.104-.046l-.103-.048m-.103-.047l-.102-.047m-.103-.048l-.103-.047m-.104-.047l-.102-.047m-.104-.048l-.102-.047m-.105-.046l-.103-.048M254.119 148.303v.078m0 .113v.114m0 .113v.113m0 .114v.078m0 0l-.052.042m-.088.071l-.088.071m-.086.072l-.088.071m-.089.071l-.088.072m-.088.072l-.089.071m-.087.071l-.088.072m-.088.071l-.087.072m-.088.071l-.088.072m-.088.071l-.088.071m-.09.072l-.088.071m-.088.072l-.088.071m-.086.072l-.088.071m-.089.071l-.088.072m-.088.072l-.088.071m-.088.071l-.088.072m-.088.071l-.087.071m-.088.072l-.088.072m-.088.071l-.089.071m-.089.072l-.088.071m-.088.071l-.088.072m-.086.072l-.088.071m-.089.071l-.089.072m-.087.072l-.051.042M254.119 157.936v-.078m0-.113v-.114m0-.113v-.113m0-.113v-.078m0-.001l-.052-.042m-.088-.07l-.088-.071m-.086-.073l-.088-.071m-.089-.071l-.088-.071m-.088-.073l-.089-.071m-.087-.071l-.088-.072m-.088-.07l-.087-.072m-.088-.072l-.088-.072m-.088-.071l-.088-.072m-.09-.07l-.088-.072m-.088-.072l-.088-.071m-.086-.071l-.088-.071m-.089-.072l-.088-.071m-.088-.072l-.088-.071m-.088-.071l-.088-.072m-.088-.072l-.087-.072m-.088-.07l-.088-.072m-.088-.072l-.089-.071m-.089-.073l-.087-.07m-.089-.072l-.088-.071m-.086-.071l-.088-.071m-.089-.072l-.089-.073m-.087-.07l-.051-.042M221.347 116.655V93.984m0 0h38.73m0 0v26.072m0 0h-22.671m0 0v-3.401m0 0h-16.059M18.519 155.58l.86 3.68m0 0l3.431 1.584m0 0l-3.431-1.584m0 0l-3.546 1.305M18.519 251.737l.86-3.68m0 0l3.431-1.584m0 0l-3.431 1.584m0 0l-3.546-1.306M182.966 140.516l-4.109-4.109m.001 0l-.426-.407m0 0l-.43-.371m0 0l-.424-.328m-.001 0l-.403-.276m.001 0l-.017-.009m0 0l-.375-.216m0 0l-.332-.147m0 0l-.025-.008m-.001 0l-.281-.075m.001 0l-.028-.004m0 0l-.22.002m0 0l-.03.002m0 0l-.029.007m0 0l-.027.013m0 0l-.154.078m-.001 0l-.024.018m.001 0l-.012.01m-.001 0l-1.133 1.134m.001 0l-1.03-1.029m0 0l-5.218 5.217m11.115 11.116l5.217-5.218m.001 0l-1.029-1.029m0 0l1.134-1.134m-.001 0l.011-.011m0 0l.017-.025m0 0l.078-.154m0 0l.013-.027m0 0l.008-.029m.001 0l.002-.029m0 0l.001-.221m0 0l-.003-.028m0 0l-.075-.281m0 0l-.008-.025m0 0l-.148-.332m0 0l-.214-.376m0 0l-.011-.016m0 0l-.276-.404m0 0l-.328-.423m0 0l-.371-.429m-.001 0l-.407-.427M173.819 136.498l9.057 9.057M173.942 136.622l.897-.898M182.752 145.431l.898-.898M178.879 149.552l4.664-4.665M169.822 140.495l4.664-4.664M177.828 137.429l4.117 4.117M174.84 135.724c.354-.354 1.691.409 2.988 1.706M181.944 141.545c1.296 1.296 2.06 2.634 1.705 2.988M146.368 168.898l4.108 4.108m0 0l.427.408m0 0l.43.371m0 0l.423.328m0 0l.404.275m0 0l.016.011m0 0l.376.215m0 0l.332.147m0 0l.024.008m0 0l.281.075m0 0l.029.003m0 0l.22-.001m0 0l.03-.002m0 0l.028-.008m0-.001l.027-.012m0 .001l.154-.078m0 0l.025-.018m0-.001l.011-.011m0 .001l1.134-1.133m0 0l1.029 1.029m0 0l5.218-5.218m-11.116-11.114l-5.216 5.217m0-.001l1.029 1.029m0 .001l-1.135 1.134m0 0l-.01.011m0 0l-.017.025m0 0l-.078.153m0 0l-.013.027m0 0l-.008.03m0 0l-.002.029m0 0l-.001.221m0 0l.003.027m0 0l.074.282m0 0l.009.025m0 0l.147.332m0 0l.215.375m0 0l.01.016m0 0l.276.404m0 0l.329.424m0 0l.371.429m0 0l.407.427M155.516 172.915l-9.058-9.057M155.393 172.791l-.899.898M146.582 163.982l-.897.897M150.455 159.862l-4.663 4.664M159.512 168.918l-4.664 4.664M151.507 171.984l-4.117-4.117M154.494 173.69c-.354.354-1.692-.409-2.988-1.705M147.389 167.867c-1.296-1.296-2.06-2.634-1.705-2.988M150.476 136.407l-4.108 4.109m0 0l-.408.427m0 0l-.371.429m0 0l-.329.423m0 0l-.275.404m0 0l-.01.016m0 0l-.216.376m0 0l-.146.332m0 0l-.009.025m0 0l-.074.281m0 0l-.003.028m.001 0l.001.221m-.001 0l.002.029m0 0l.008.029m0 0l.012.027m0 0l.078.154m0 0l.018.024m0 0l.01.012m0 0l1.134 1.133m0 0l-1.029 1.03m0 0l5.217 5.217m11.115-11.115l-5.218-5.217m.001 0l-1.028 1.029m-.001 0l-1.135-1.134m0 0l-.01-.01m0 0l-.026-.018m0 0l-.153-.078m0 0l-.027-.013m0 0l-.029-.007m0 0l-.029-.002m.001 0l-.221-.002m-.001 0l-.028.004m0 0l-.281.075m0 0l-.025.008m0 0l-.332.147m0 0l-.376.215m0 0l-.015.01m0 0l-.405.276m0 0l-.423.328m0 0l-.428.371m0 0l-.427.407M146.459 145.555l9.057-9.057M146.582 145.431l-.897-.898M155.393 136.622l-.899-.898M159.512 140.495l-4.664-4.664M150.455 149.551l-4.663-4.664M147.389 141.546l4.118-4.117M145.684 144.533c-.354-.354.409-1.692 1.705-2.988M151.506 137.428c1.297-1.296 2.635-2.059 2.988-1.705M178.857 173.006l4.109-4.108m0 0l.408-.427m0 0l.371-.43m0 0l.328-.424m0 0l.275-.403m0 0l.011-.017m0 0l.215-.375m0 0l.147-.332m0 0l.008-.024m0 0l.075-.282m0 0l.003-.028m0 0l-.001-.22m0 0l-.002-.03m0 0l-.008-.029m0 0l-.012-.027m0 0l-.078-.154m0 0l-.018-.024m0 0l-.011-.012m0 0l-1.133-1.133m0 0l1.029-1.03m0 0l-5.218-5.218m-11.115 11.115l5.218 5.218m0 0l1.029-1.029m0 0l1.134 1.134m0 0l.011.011m0 0l.025.017m0 0l.153.078m0 0l.027.013m0 0l.03.008m0 0l.029.002m0 0l.221.001m0 0l.027-.003m0 0l.281-.075m0 0l.026-.008m0 0l.332-.148m0 0l.375-.214m0 0l.016-.011m0 0l.404-.276m0 0l.424-.328m0 0l.429-.371m0 0l.426-.407M182.876 163.859l-9.057 9.057M182.752 163.982l.898.897M173.942 172.791l.897.898M169.822 168.918l4.664 4.664M178.879 159.861l4.664 4.665M181.945 167.867l-4.117 4.117M183.65 164.879c.354.354-.409 1.691-1.705 2.987M177.828 171.984c-1.296 1.296-2.634 2.06-2.988 1.705M179.781 154.706c0 8.348-6.767 15.114-15.114 15.114-8.348 0-15.115-6.766-15.115-15.114 0-8.347 6.767-15.114 15.115-15.114 8.347 0 15.114 6.767 15.114 15.114z"/><path d="M128.58 90.942a.107.107 0 11-.152-.152l1.376-1.377-3.321-3.321-3.321 3.321 1.377 1.377a.107.107 0 11-.152.152l-1.377-1.377-1.377 1.377a.109.109 0 01-.153 0 .107.107 0 010-.152l1.377-1.377-3.321-3.321-3.321 3.321 1.377 1.377a.107.107 0 11-.152.152l-1.377-1.377-1.377 1.377a.107.107 0 11-.152-.152l1.377-1.377-3.32-3.32-3.321 3.321 1.377 1.377a.107.107 0 11-.152.152l-1.377-1.377-1.377 1.377a.107.107 0 11-.152-.152l1.377-1.377-3.321-3.321-3.321 3.321 1.377 1.377a.107.107 0 010 .152.109.109 0 01-.153 0l-1.377-1.377-1.377 1.377a.107.107 0 11-.152-.152l1.377-1.377-3.321-3.321-3.321 3.321 1.377 1.377a.107.107 0 11-.152.152l-1.377-1.377-1.377 1.377a.109.109 0 01-.153 0 .107.107 0 010-.152l1.377-1.377-3.321-3.321-3.321 3.321 1.377 1.377a.107.107 0 11-.152.152l-1.377-1.377-1.377 1.377a.107.107 0 11-.152-.152l1.377-1.377-3.321-3.321-3.321 3.321 1.377 1.377a.107.107 0 010 .152.109.109 0 01-.153 0l-1.377-1.377-1.377 1.377a.107.107 0 11-.152-.152l1.377-1.377-3.321-3.321-3.321 3.32 1.377 1.377a.107.107 0 010 .152.109.109 0 01-.153 0l-1.377-1.377-1.377 1.377a.109.109 0 01-.153 0 .107.107 0 010-.152l1.377-1.377-3.32-3.32-3.321 3.321 1.377 1.377a.107.107 0 010 .152.109.109 0 01-.153 0l-1.377-1.377-1.377 1.377a.109.109 0 01-.153 0 .107.107 0 010-.152l1.377-1.377-3.321-3.321-3.321 3.321 1.377 1.377a.107.107 0 010 .152.109.109 0 01-.153 0l-1.377-1.376-1.376 1.376a.109.109 0 01-.153 0 .107.107 0 010-.152l1.376-1.377-3.321-3.322-3.321 3.321 1.377 1.377a.107.107 0 010 .152.109.109 0 01-.153 0l-1.377-1.377-1.377 1.377a.109.109 0 01-.153 0 .107.107 0 010-.152l1.377-1.377-3.32-3.32-3.321 3.321 1.377 1.377a.107.107 0 010 .152.109.109 0 01-.153 0l-1.377-1.376-1.376 1.376c-.042.042-.111.042-.153 0s-.042-.111 0-.152l1.376-1.377-3.321-3.321-3.32 3.319 1.377 1.377a.107.107 0 010 .152.109.109 0 01-.153 0l-1.377-1.377-1.377 1.377a.109.109 0 01-.153 0 .107.107 0 010-.152l1.377-1.377-3.166-3.166V90.865c0 .06-.048.108-.108.108H9.771a.108.108 0 01-.108-.108V66.48v0V24.74c0-.059.049-.108.108-.108h26.45c.06 0 .108.049.108.108v16.14h6.438l.011-.001h1.89l.011.001h1.735l.011-.001H48.693l.011.001h1.735l.011-.001h1.89l.011.001h13.088l.011-.001h1.891l.011.001h1.734l.011-.001H71.362l.011.001h1.735l.011-.001h1.89l.011.001h6.546c.055 0 .1.041.107.094l3.13 3.13 3.192-3.192a.109.109 0 01.153 0 .109.109 0 010 .153l-3.192 3.192 3.321 3.322 3.321-3.321-3.193-3.193a.109.109 0 010-.153.107.107 0 01.152 0l3.193 3.193 3.009-3.009H94.6a.108.108 0 01-.108-.108v-4.534 0-.005 0-.005 0l.001-.005v0l.001-.005v0l.001-.005v0l.001-.005v0l.002-.005v0l.002-.005v0l.002-.005v0l.002-.004v0l.003-.004v0l.003-.004v0l.003-.004v0l.003-.004v0l.003-.004v0l.004-.003v0l.004-.003v0l.004-.003v0l.004-.003v0l.004-.003v0l.004-.003v0l.005-.002v0l.005-.002v0l.005-.002v0l.005-.002v0l.005-.001v0l.005-.001v0l.005-.001v0l.005-.001v0h.005v0h18.915v0h.005v0l.005.001v0l.005.001v0l.005.001v0l.005.001v0l.005.002v0l.005.002v0l.005.002v0l.005.002v0l.004.003v0l.004.003v0l.004.003v0l.004.003v0l.004.003v0l.004.003v0l.003.004v0l.003.004v0l.003.004v0l.003.004v0l.002.004v0l.002.004v0l.002.005v0l.002.005v0l.002.005v0l.002.005v0l.001.005v0l.001.005v0l.001.005v0l.001.005v4.539c0 .06-.049.108-.108.108H109.578l3.009 3.009 3.193-3.193a.107.107 0 01.152 0 .109.109 0 010 .153l-3.193 3.193 3.321 3.321 3.321-3.321-3.193-3.193a.109.109 0 010-.153.107.107 0 01.152 0l3.193 3.193 3.193-3.193a.109.109 0 01.153 0 .109.109 0 010 .153l-3.193 3.193 3.32 3.32 3.321-3.32-3.193-3.193a.109.109 0 010-.153.109.109 0 01.153 0l3.193 3.193 3.193-3.193a.107.107 0 01.152 0 .109.109 0 010 .153l-3.193 3.193 3.322 3.322 3.321-3.321-3.193-3.193a.109.109 0 010-.153.107.107 0 01.152 0l3.193 3.193.39-.39a.107.107 0 01.152 0 .109.109 0 010 .153l-.39.39.39.39a.109.109 0 010 .153.107.107 0 01-.152 0l-.39-.39-3.321 3.321 3.32 3.32.391-.391a.107.107 0 01.152 0 .109.109 0 010 .153l-.391.391.391.391a.109.109 0 010 .153.107.107 0 01-.152 0l-.391-.391-3.321 3.321 3.321 3.321.391-.391a.107.107 0 01.152 0 .109.109 0 010 .153l-.391.391.391.391a.109.109 0 010 .153.107.107 0 01-.152 0l-.391-.391-3.321 3.321 3.321 3.321.391-.39a.107.107 0 11.152.152l-.391.39.391.391a.109.109 0 010 .153.107.107 0 01-.152 0l-.391-.391-3.321 3.321 3.321 3.32.391-.39a.107.107 0 11.152.152l-.391.39.391.391a.109.109 0 010 .153.107.107 0 01-.152 0l-.391-.391-3.322 3.321 3.321 3.321.391-.391a.107.107 0 01.152 0 .109.109 0 010 .153l-.391.391.391.391a.107.107 0 11-.152.152l-.391-.391-3.32 3.321 3.321 3.321.39-.39a.107.107 0 01.152 0 .109.109 0 010 .153l-.39.39.39.391a.107.107 0 11-.152.152l-.39-.391-3.321 3.321 1.376 1.377a.107.107 0 010 .152.109.109 0 01-.153 0l-1.376-1.376-1.372 1.374h0zM69.667 47.364a1.251 1.251 0 01-.68-1.108 1.243 1.243 0 01.68-1.108v-1.407h-1.844v.043c0 .06-.049.108-.108.108H65.07a.108.108 0 01-.108-.108v-.043h-3.317v11.498h17.166V43.741h-3.317v.043c0 .06-.049.108-.108.108H72.741a.108.108 0 01-.108-.108v-.043H70.79v1.407a1.237 1.237 0 01.68 1.102v.012a1.237 1.237 0 01-.68 1.102v1.901l-.002.02v.002h0l-.001.003v.002h0l-.001.005-.002.003-.001.002h0l-.002.005-.001.002-.001.002h0l-.001.002-.001.002-.001.001-.001.002-.001.002h-.001l-.001.002-.001.002-.001.001-.002.002-.001.001-.001.001-.002.002-.001.001-.001.001-.002.003-.001.001-.249.292-.003.004-.001.001-.002.002-.001.001-.001.002-.002.002h0v.003l-.002.002h0l-.002.001-.002.002v0l-.002.001-.002.002h0l-.002.002-.002.001h0l-.002.001-.002.001h0l-.002.001-.002.001h0l-.002.001-.002.001h-.001l-.002.001-.002.001h0l-.017.005h-.002v0h-.003l-.005.001h-.003 0-.002l-.009.001h-.395a.1.1 0 01-.046-.011h-.001l-.002-.001-.002-.001a.131.131 0 01-.036-.03l-.003-.004-.244-.286a.108.108 0 01-.031-.075v-1.898h-.001zm0-1.967a1.02 1.02 0 00-.298 1.42c.078.118.179.22.298.298v-1.718h0zm1.587.854a1.016 1.016 0 00-.464-.853v1.719c.118-.077.22-.179.297-.298.105-.159.166-.351.167-.556v-.012h0zm-.68 1.059l-.001-.014v-2.08l.001-.014v-1.556l-.001-.014.001-.014v-1.995h-.691v7.602l.198.232h.296l.198-.232V47.31h-.001zm-23.579.054a1.248 1.248 0 01-.679-1.108 1.243 1.243 0 01.679-1.107v-1.408h-1.843v.043c0 .06-.048.108-.108.108h-2.646a.108.108 0 01-.108-.108v-.043h-3.317v11.498h17.165V43.741h-3.316v.043c0 .06-.049.108-.108.108h-2.647a.108.108 0 01-.108-.108v-.043h-1.843v1.407a1.234 1.234 0 01.68 1.102v.012a1.237 1.237 0 01-.68 1.103v1.901l-.002.02v.002h0l-.001.003v.002h0l-.002.005.001.002-.001.002h0l-.002.005-.001.002-.001.002h0l-.001.002-.001.002-.001.001-.001.002-.001.002h-.001l-.001.004-.001.002v.001l-.002.002-.001.001-.001.001-.002.002v.001l-.001.001-.002.003-.001.001-.248.292-.003.004-.001.001-.002.002-.001.001-.001.002-.002.002h0l-.002.001-.002.002h0l-.002.001-.002.002v0l-.002.001-.002.002h0l-.002.002-.002.001h0l-.002.001-.002.001h0l-.002.001-.002.001h0l-.002.001-.002.001h0l-.002.001-.002.001h0l-.017.005h-.003v0h-.003l-.005.001h-.003 0-.002l-.009.001h-.395l-.009-.001h-.002 0-.003l-.005-.001h-.002v0h-.003l-.017-.005h0l-.002-.001-.002-.001h-.001l-.002-.001-.002-.001h0l-.002-.001-.002-.001h0l-.002-.001-.002-.001h0l-.002-.001-.002-.002h0l-.002-.002-.002-.001v0l-.002-.002-.002-.001h0l-.002-.002-.002-.001h0l-.008-.003-.001-.002-.001-.001-.002-.002-.001-.001-.003-.004-.249-.292-.001-.001-.002-.003-.001-.001-.001-.001-.002-.002-.001-.001-.001-.001-.002-.002v-.001l-.001-.002-.001-.002h-.001l-.001-.002-.001-.002v-.001l-.001-.002-.001-.002h0l-.001-.002-.001-.002-.002-.005h0V49.3L47 49.297l-.001-.005h0v-.002l-.001-.003h0v-.002l-.002-.02v-1.901h-.001zm0-1.967a1.024 1.024 0 00-.297 1.42c.077.118.179.22.297.298v-1.718h0zm1.587.854a1.016 1.016 0 00-.465-.854v1.718a1.032 1.032 0 00.465-.854v-.01h0zm25.535-3.062a.329.329 0 01.083.023v-.227h-.274v.227l.002-.001.008-.003a.364.364 0 01.123-.024H74.073l.023.001h.02l.001.004h0zm.272.211a.368.368 0 01.028.133v.005l-.001.011-.001.005v.001l-.003.039-.014.058-.009.023h.889v-.029l-.001-.014.001-.014V43.4h-.889 0zm-.188.135a.14.14 0 00-.034-.088.14.14 0 00-.081-.045h-.004l-.018-.001h-.004a.129.129 0 00-.045.008l-.004.002a.132.132 0 00-.042.027l-.001.001-.002.002h0l-.002.002v0l-.002.001v.001a.14.14 0 00-.035.093l.005.039.014.033a.144.144 0 00.107.066h.024a.134.134 0 00.07-.027.143.143 0 00.049-.067l.007-.045v-.002h-.002zm-.463.141a.366.366 0 01-.028-.138c0-.047.01-.093.027-.135l.001-.003h-.889v.276h.889zm-7.288-.486a.442.442 0 01.081.023v-.228h-.275v.227l.002-.001a.355.355 0 01.13-.027h.015l.005.001.019.001h.012l.003.001h.001l.004.001.003.002h0zm.268.21a.348.348 0 01.028.133v.011a.368.368 0 01-.029.132h.889V43.4h-.888 0zm-.187.135a.14.14 0 00-.034-.088l-.004-.005-.002-.002a.142.142 0 00-.074-.038h-.003l-.021-.001h-.003a.153.153 0 00-.049.01.15.15 0 00-.075.076.147.147 0 00-.01.053l.007.043a.153.153 0 00.045.066l.004.003c.02.014.045.024.07.027H66.405a.164.164 0 00.058-.018.13.13 0 00.048-.048l.015-.036.005-.036v-.006h0zm-.464.141l-.009-.024c-.014-.048-.015-.066-.019-.114 0-.047.01-.093.027-.135l.001-.003h-.889v.276h.889zM44.046 43.4a.33.33 0 01.028.133v.011a.368.368 0 01-.013.089l-.002.008-.013.035h.89V43.4h-.89 0zm-19.999-9.592c0-.29-.118-.553-.309-.743a1.05 1.05 0 00-1.487-.001 1.047 1.047 0 000 1.489 1.051 1.051 0 001.796-.745h0zm-.46.592a.836.836 0 10-1.182-1.183.836.836 0 001.182 1.183h0zm10.557 56.357h1.967V24.848H9.879v65.91h24.265v-.001zm63.73-33.58l-.329-1.157-.002-.005-.001-.005h0l-.001-.005v0L97.54 56v0l-.001-.005v-.001l-.207-1.698h0v-.005h0v-.016l.056-1.607-2.011 2.011 2.497 2.498h0zm-.216-7.162l.539-5.106-2.823 2.823 2.284 2.283h0zm-1.971-8.919l2.635 2.635.278-2.635h-2.913 0zm16.75 10.108l-2.099-2.099.364 3.448.001.005V52.571l.012.352 1.722-1.719h0zm0-6.947l-2.917-2.917.557 5.278 2.36-2.361h0zM97.545 54.276l.07.577a7.651 7.651 0 01.012-.71 12.528 12.528 0 01.51-3.878 13.257 13.257 0 011.703-3.615l.001-.001.001-.001.005-.007h.001l.001-.002.002-.002h0l.001-.002.002-.002h0l.002-.002.002-.002.004-.003.002-.002.002-.001h0l.002-.001.002-.001h0l.002-.001.002-.001.002-.001.002-.001h0l.002-.001.002-.001h0l.002-.001a.109.109 0 01.044-.01h8.233c.016 0 .03.004.043.009l.002.001h.001l.001.001.002.001.011.007.002.001h.001l.001.001.008.007.002.002h.001l.001.002.002.002h.001l.001.002.002.002h0l.001.002.002.002v0l.006.008.003.005a13.258 13.258 0 011.697 3.606c.371 1.259.545 2.563.51 3.875v0c.015.24.019.48.011.718l.071-.582-.06-1.696-.395-3.747v-.015l-.206-1.947v-.013l-.608-5.763h-10.46l-.967 9.16V50.268l-.224 2.12V52.402l-.019.179-.06 1.695h0zm11.623 4.842l.448-.967a8.765 8.765 0 01-2.44 2.909l-.006.004-.001.001-.001.001-.001.001-.002.001-.002.001-.003.001h0a5.686 5.686 0 01-1.472.663 6.036 6.036 0 01-1.64.236h-.009a6.02 6.02 0 01-1.634-.236 5.624 5.624 0 01-1.466-.66c-.007-.003-.014-.008-.021-.013a8.784 8.784 0 01-2.44-2.908l.083.178h0l.001.002.001.003.001.002.001.001v.001l.001.002.359.775.951 1.209 1.227.927.969.397.003.001.01.004.003.001.002.001.425.174.003.001.003.001.002.001.003.001v0h.001l1.522.202 1.524-.202 1.419-.583 1.007-.761h0l.002-.002.002-.002.002-.002.002-.001h0l.002-.002.002-.001.207-.157.95-1.205h0zm-1.062-12.301h-8.118a13.047 13.047 0 00-1.643 3.508 12.322 12.322 0 00-.502 3.812v.016a7.459 7.459 0 00.72 3.685c.547 1.15 1.388 2.195 2.48 3.045a5.44 5.44 0 001.422.642 5.805 5.805 0 001.582.227h.007a5.791 5.791 0 001.574-.227 5.46 5.46 0 001.417-.638c1.095-.851 1.938-1.897 2.485-3.049a7.455 7.455 0 00.721-3.681l-.001-.005V54.139a12.294 12.294 0 00-.502-3.817 13.052 13.052 0 00-1.642-3.505h0zM94.708 40.88h18.678v-4.318H94.708v4.318h0zm-82.93 36.207v.012l.001.005.168 2.002a.088.088 0 00.006.027l.497 1.931.001.005.001.003.001.002.001.003v.002l.001.003.001.002.001.003.001.002.001.003.816 1.822.001.002v.001l.001.002.001.002v.001l.001.001.001.002v.001l.001.001.001.002v.001l.001.001.002.003.003.004 1.104 1.642.002.002v0l.001.002h0l.001.002v0l.002.002v0l.002.002v0l.002.002.002.002h0l.002.002.002.002.002.002 1.366 1.423.002.002.002.002v0l.002.002.002.002.002.001v0l.002.001v0l.002.001.002.002.002.001.002.001 1.572 1.146.001.001.004.003.003.002.009.006.002.001h.001l.004.003h.001l.002.001 1.751.852.002.001.003.001.002.001.003.001.002.001.003.001.002.001.003.001.008.002 1.855.517.005.002.002.001.003.001.003.001h.006l.003.001H21.06l1.923.175H23.008l1.925-.175H24.942l.003-.001h.006l.003-.001.003-.001.002-.001.005-.002 1.855-.517.008-.002.003-.001.002-.001.003-.001.002-.001.003-.001.002-.001.003-.001.002-.001 1.75-.852.002-.001h0l.004-.003h.001l.002-.001.009-.006.003-.002.004-.003.001-.001 1.573-1.146.002-.001.002-.001.002-.002.002-.001v0l.002-.001v0l.002-.001.002-.002.002-.002v0l.002-.002.002-.002 1.366-1.423.002-.002.002-.002.002-.002h0l.002-.002.002-.002v0l.002-.002v0l.002-.002v0l.001-.002h0l.001-.002v0l.001-.002 1.103-1.642.003-.004.002-.003.001-.001v-.001l.001-.002.001-.001v-.001l.001-.002.001-.001v-.001l.001-.002.001-.002v-.001l.001-.002.816-1.822.001-.003.001-.002.001-.003.001-.002.001-.003.001-.002.001-.003.001-.002.001-.003.001-.005.498-1.931a.107.107 0 00.006-.027l.168-2.002.001-.005V32.444l-.001-.005-.08-.95a.131.131 0 00-.006-.027l-.235-.91-.001-.005-.001-.003v-.002l-.001-.003v-.002l-.001-.003-.001-.002-.001-.003-.001-.002-.001-.003-.386-.863-.001-.003v-.001l-.001-.002-.001-.002v-.001l-.001-.001-.001-.002v-.001l-.001-.001-.001-.002v-.001l-.001-.002-.002-.003-.003-.004-.522-.778-.001-.002v0l-.001-.002h0l-.001-.002v0l-.002-.002v0l-.002-.002v0l-.002-.002-.002-.002h0l-.002-.002-.002-.002-.002-.002-.648-.675-.002-.002-.002-.002v0l-.002-.002-.002-.002-.002-.001v0l-.002-.002v0l-.002-.002-.002-.002-.002-.001-.002-.001-.742-.541-.007-.004-.004-.003-.003-.002-.009-.006-.002-.001h0l-.004-.003h0l-.002-.001-.831-.405-.002-.001-.003-.001-.002-.001-.003-.001-.002-.001-.003-.001-.002-.001-.003-.001-.008-.002-.876-.244-.005-.002h-.002l-.003-.001h-.003l-.003-.001h-.003l-.003-.001H29.739h.001l-.906-.083-.019-.002H17.176l-.019.002-.906.083h-.01l-.003.001h-.003l-.003.001h-.003l-.003.001h-.002l-.005.002-.876.244-.008.002-.003.001-.002.001-.003.001-.002.001-.003.001-.002.001-.003.001-.002.001-.831.405-.002.001h-.001l-.004.003h-.001l-.002.001-.009.006-.003.002-.001.003-.001.001-.741.541-.002.001-.002.001-.002.002-.002.002v0l-.002.002v0l-.002.001-.002.002-.002.002v0l-.003.002-.002.002-.648.675-.002.002-.002.002-.002.002h0l-.002.002-.002.002v0l-.002.002v0l-.002.002v0l-.001.002h0l-.001.002v0l-.001.002-.522.778-.003.004-.002.003-.001.002v.001l-.001.002-.001.001-.001.001-.002.003-.001.001v.001l-.001.002-.001.002v.001l-.001.003-.387.863-.001.003-.001.002-.001.003-.001.002-.001.003-.001.002-.001.003-.001.002-.001.004-.001.005-.234.91a.118.118 0 00-.006.027l-.08.95-.001.005v44.644h0zm.216-44.627v44.624l.168 2 .496 1.928.812 1.812 1.1 1.637 1.357 1.414 1.569 1.143 1.741.847 1.851.515 1.909.174 1.91-.174 1.85-.515 1.74-.847 1.569-1.143 1.357-1.413 1.099-1.637.811-1.812.496-1.928.168-2V32.46l-.08-.947-.234-.908-.382-.854-.518-.772-.639-.665-.739-.538-.821-.4-.871-.242-.899-.082H17.177l-.899.082-.871.242-.821.4-.738.538-.639.665-.518.772-.383.854-.233.907-.081.948h0zm24.335 23.912h45.128V41.096h-6.34v.025c0 .06-.048.108-.108.108H74.834v.024a.107.107 0 01-.095.107v1.518c0 .06-.049.108-.108.108h-.214v.199h.97c.06 0 .108.049.108.108v.233H78.925l.005.001h0l.005.001h0l.005.001h0l.005.001h0l.005.001h0l.005.002h0l.005.002h0l.005.002h0l.004.002h0l.004.002h0l.004.003h0l.004.003h0l.004.003h0l.004.003h0l.003.004h0l.003.004h0l.003.004h0l.003.004h0l.003.004h0l.003.005h0l.002.004h0l.002.005h0l.002.005h0l.002.005h0l.001.005h0l.001.005h0l.001.005h0l.001.005h0v.005h0v11.725c0 .06-.049.108-.108.108H61.529h0-.005 0-.005 0l-.005-.001h0l-.005-.001h0l-.005-.001h0l-.005-.001h0l.001-.002h0l-.005-.002h0l-.005-.002h0l-.004-.002h0l-.004-.003h0l-.004-.003h0l-.004-.003h0l-.004-.003h0l-.004-.003h0l-.003-.004h0l-.003-.004h0l-.003-.004h0l-.003-.004h0l-.003-.004h0l-.003-.004h0l-.002-.005h0l-.002-.005h0l-.002-.005h0l-.002-.005h0l-.001-.005h0l-.001-.005h0l-.001-.005h0l-.001-.005h0v-.005h0V43.634v0-.005 0l.001-.005v0l.001-.005v0l.001-.005v0l.001-.005v0l.001-.005v0l.002-.005v0l.002-.005v0l.002-.005v0l.002-.004v0l.002-.004v0l.003-.004v0l.003-.004v0l.003-.004v0l.003-.004v0l.004-.003v0l.004-.003v0l.004-.003v0l.004-.003v0l.004-.003v0l.005-.003v0l.004-.002v0l.005-.002v0l.005-.002v0l.005-.002v0l.005-.001v0l.005-.001v0l.005-.001v0l.005-.001v0h.005v0h3.436v-.233c0-.059.049-.108.108-.108h.97v-.199h-.214a.108.108 0 01-.108-.108v-1.518a.108.108 0 01-.094-.107v-.024H65.453a.108.108 0 01-.108-.108v-.025h-12.9v.025c0 .06-.049.108-.108.108H52.161v.024c0 .055-.041.1-.094.107v1.518c0 .06-.049.108-.108.108h-.214v.199h.97c.06 0 .108.049.108.108v.233h3.428l.005.001h0l.005.001h0l.005.001h0l.005.001h0l.005.001h0l.005.002h0l.004.002h0l.005.002h0l.004.002h0l.004.002h0l.004.003h0l.004.003h0l.004.003h0l.004.003h0l.003.004h0l.003.004h0l.003.004h0l.003.004h0l.003.004h0l.003.005h0l.002.004h0l.002.005h0l.002.005h0l.002.005h0l.001.005h0l.001.005h0l.001.005h0l.001.005h0v.005h0v11.725c0 .06-.048.108-.108.108H38.855h.005-.005 0l-.005-.001h0l-.005-.001h0l-.005-.001h0l-.005-.001h0l-.005-.002h0l-.005-.002h0l-.005-.002h0l-.004-.002h0l-.006-.012h0l-.004-.003h0l-.004-.003h0l-.004-.003h0l-.004-.003h0l-.003-.004h0l-.003-.004h0l-.003-.004h0l-.003-.004h0l-.003-.004h0l-.003-.004h0l-.002-.005h0l-.002-.005h0l-.002-.005h0l-.002-.005h0l-.001-.005h0l-.001-.005h0l-.001-.005h0l-.001-.005h0v-.005h0V43.633v0-.005 0l.001-.005v0l.001-.005v0l.001-.005v0l.001-.005v0l.001-.005v0l.002-.005v0l.002-.005v0l.002-.005v0l.002-.004v0l.003-.004v0l.003-.004v0l.003-.004v0l.003-.004v0l.003-.004v0l.004-.003v0l.004-.003v0l.004-.003v0l.004-.003v0l.004-.003v0l.005-.003v0l.005-.002v0l.005-.002v0l.005-.002v0l.005-.002v0l.005-.001v0l.005-.001v0l.005-.001v0l.005-.001v0h.005v0h3.436v-.233c0-.059.049-.108.108-.108h.97v-.199h-.222a.108.108 0 01-.108-.108v-1.518a.108.108 0 01-.094-.107v-.024H42.777a.108.108 0 01-.108-.108v-.025h-6.341v15.268h.001zm36.682-15.276H71.47v.157c0 .06-.048.108-.108.108h-.27v.157c0 .06-.048.108-.108.108h-.194v1.9h1.844v-.233c0-.059.048-.108.108-.108h.969v-.199h-.214a.108.108 0 01-.108-.108V41.36h-.002l-.003-.001h-.005l-.003-.001h-.002l-.003-.001h-.002l-.003-.001h-.001l-.004-.002h-.001l-.004-.002h0l-.004-.002v0l-.004-.002h0l-.004-.002-.001-.001-.003-.002-.001-.001-.003-.002-.001-.001-.002-.002-.002-.002-.002-.002-.002-.002-.001-.001-.002-.002-.001-.001-.002-.003-.001-.001-.002-.003-.001-.001-.003-.004h0l-.003-.004v0l-.002-.004h0l-.004-.007v-.001l-.002-.003-.001-.001-.001-.003v-.001h0l-.001-.005-.001-.002-.001-.003-.001-.002-.001-.002-.001-.003v-.002l-.001-.004v-.001l-.001-.004v-.001l-.001-.005V41.228H73.116a.108.108 0 01-.108-.108v-.024h.003zm-1.757 0h-2.052v.048h2.053v-.048h-.001zm-2.268 0h-1.54v.025c0 .06-.049.108-.108.108H67.163v.029l-.001.005v.001l-.001.004v.001l-.001.004v.002l-.001.003-.001.002-.001.003-.001.002-.001.002-.001.003-.001.002-.001.003-.001.002-.001.003h.002l-.002.003-.001.001-.002.003-.001.001-.002.004h0l-.003.004-.003.004v0l-.003.003v.001l-.003.003-.001.001-.003.003-.001.001-.003.002-.001.001-.002.002-.002.001-.002.002-.002.001-.002.001-.003.002-.002.001-.003.002-.001.001-.003.002H67.1l-.004.002h-.001l-.004.002h-.001l-.005.002-.005.001h0l-.005.001h-.001l-.004.001h-.005v1.518c0 .06-.048.108-.108.108h-.213v.199h.968c.06 0 .108.049.108.108v.233h1.844v-1.9h-.194a.108.108 0 01-.108-.108v-.157h-.268a.108.108 0 01-.108-.108v-.156h0zm-18.647 0h-1.541v.157c0 .06-.048.108-.108.108h-.27v.157c0 .06-.049.108-.108.108h-.195v1.9h1.843v-.233c0-.059.049-.108.108-.108h.97v-.199h-.214a.108.108 0 01-.108-.108V41.36h-.003l-.002-.001h-.005l-.004-.001h-.001l-.004-.001h-.001l-.005-.001-.005-.002-.004-.002h0l-.004-.002-.001-.001-.003-.002h-.001l-.003-.002-.001-.001-.003-.002-.002-.001-.002-.002-.002-.001-.002-.001-.002-.002-.001-.001-.002-.002-.001-.001-.003-.003-.001-.001-.003-.003h0l-.003-.003h0l-.003-.004-.003-.004v-.001l-.002-.004V41.3l-.001-.001-.002-.003-.001-.002-.001-.003-.001-.002-.001-.003-.001-.002-.001-.002-.001-.003v-.002l-.001-.003v-.002l-.001-.004v-.001l-.001-.004v-.001l-.001-.005V41.228H50.445a.108.108 0 01-.108-.108v-.024h.002zm-1.757 0h-2.051v.048H48.583v-.048h-.001zm22.294.313v-.049H69.58v.049h1.296zm2.728 1.36H74.522V41.36h-.919v1.409h.001zm-6.959 0h.207V41.36h-.918v1.409h.711zm-19.434-1.144v7.602l.198.232h.296l.197-.232V41.625h-.691 0zm.993-.216v-.049h-1.296v.049h1.296zm3.241 1.78a.31.31 0 01.084.024v-.227h-.275v.228l.003-.001a.355.355 0 01.13-.027H51.401l.023.001h.02l.001.002h0zm.272.211a.348.348 0 01.028.133v.017a.353.353 0 01-.018.103l-.009.024h.89v-.027l-.001-.017.001-.016V43.4h-.891 0zm-.188.135a.135.135 0 00-.034-.088l-.002-.002-.001-.001-.001-.001-.002-.002h0l-.002-.002-.001-.001a.133.133 0 00-.071-.035v0h-.005l-.019-.001h-.003a.132.132 0 00-.091.037l-.001.001-.002.002h0l-.002.002a.139.139 0 00-.038.096l.005.039.014.033a.152.152 0 00.045.046l.004.002c.017.01.037.017.057.018h.024a.134.134 0 00.068-.025.146.146 0 00.051-.068l.007-.045v-.005h0zm-.462.141a.366.366 0 01-.028-.138c0-.048.01-.094.027-.136l.001-.002h-.89v.276h.89zm-7.293-.487c.03.005.058.012.085.024v-.228h-.275v.227l.002-.001a.355.355 0 01.13-.027H43.73l.023.001h.02l.001.004h0zm.085.345a.138.138 0 00-.113-.131v0h-.005l-.02-.001h-.003a.129.129 0 00-.09.038l-.001.001-.001.002h-.001a.148.148 0 00-.03.045.151.151 0 00-.01.053c.001.014.002.031.007.044a.147.147 0 00.045.064l.004.003c.02.014.044.024.069.027h.02a.139.139 0 00.057-.016l.005-.003a.15.15 0 00.049-.048c.017-.036.014-.031.02-.071v-.007h-.002zm-.463.142l-.009-.024-.014-.056-.005-.058c0-.047.01-.093.027-.135l.001-.003h-.89v.276h.89zm-3.749 45.583l3.321-3.321-3.321-3.321-3.319 3.319v.005l3.319 3.318h0zm6.947.001l3.321-3.321-3.321-3.321-3.321 3.321 3.321 3.321h0zm-3.474-3.474l3.321-3.321-3.321-3.321-3.32 3.321 3.32 3.321h0zm-3.625-3.321L36.329 79.3v6.332l3.166-3.167h0zm-3.166-3.47l3.319 3.318 3.321-3.321-3.321-3.321-3.319 3.318v.006h0zm17.212 10.264l3.321-3.321-3.321-3.321-3.321 3.321 3.321 3.321h0zm-3.473-3.473l3.321-3.321-3.321-3.321-3.321 3.321 3.321 3.321h0zm-3.474-3.473l3.321-3.321-3.321-3.321-3.321 3.321 3.321 3.321h0zm-7.099-6.795l-3.166-3.166v6.332l3.166-3.166h0zm-3.166-3.471l3.319 3.319 3.321-3.321-3.321-3.321-3.318 3.318v.005h-.001zm3.471 3.471l3.321 3.321 3.321-3.321-3.321-3.321-3.321 3.321h0zM60.488 89.26l3.321-3.321-3.322-3.322-3.321 3.321 3.322 3.322h0zm-3.474-3.474l3.321-3.321-3.321-3.32-3.321 3.321 3.321 3.32h0zm-3.473-3.473l3.321-3.321-3.321-3.321-3.321 3.321 3.321 3.321h0zm-3.473-3.474l3.321-3.321-3.321-3.321-3.321 3.321 3.321 3.321h0zM39.494 68.571l-3.166-3.166v6.331l3.166-3.165h0zm-3.165-3.47l3.318 3.318 3.321-3.321-3.321-3.321-3.319 3.318v.006h.001zm3.47 3.47l3.321 3.321 3.321-3.321-3.321-3.321-3.321 3.321h0zm3.474 3.474l3.321 3.321 3.321-3.321-3.321-3.321-3.321 3.321h0zM67.435 89.26l3.321-3.321-3.321-3.321-3.321 3.321 3.321 3.321h0zm-3.473-3.474l3.321-3.321-3.322-3.322-3.321 3.321 3.322 3.322h0zm-3.474-3.474l3.321-3.321-3.32-3.321-3.321 3.321 3.32 3.321h0zm-3.473-3.473l3.321-3.321-3.321-3.321-3.321 3.321 3.321 3.321h0zm-3.474-3.473l3.321-3.321-3.321-3.321-3.321 3.321 3.321 3.321h0zM39.495 61.625l-3.166-3.166v6.332l3.166-3.166h0zm-3.166-3.471l3.319 3.318 3.321-3.32-1.563-1.564h-3.515l-1.56 1.56v.006h-.002zm3.471 3.471l3.321 3.321 3.321-3.321-3.321-3.321-3.321 3.321h0zm3.473 3.473l3.321 3.321 3.321-3.321-3.321-3.321-3.321 3.321h0zm3.473 3.474l3.321 3.321 3.321-3.321-3.321-3.321-3.321 3.321h0zm27.635 20.687l3.321-3.321-3.321-3.32-3.321 3.32 3.321 3.321h0zm-3.473-3.473l3.32-3.321-3.321-3.321-3.321 3.321 3.322 3.321h0zm-3.473-3.473l3.32-3.32-3.322-3.322-3.321 3.321 3.323 3.321h0zm-3.474-3.474l3.321-3.32-3.321-3.321-3.32 3.321 3.32 3.32h0zm-3.473-3.473l3.32-3.32-3.321-3.321-3.32 3.321 3.321 3.32h0zm-3.474-3.474l3.32-3.321-3.321-3.321-3.32 3.321 3.321 3.321h0zM41.709 56.588l1.411 1.411 1.411-1.411h-2.822 0zm1.564 1.564l3.321 3.321 3.321-3.321-1.564-1.564h-3.514l-1.564 1.564h0zm3.473 3.473l3.321 3.321 3.321-3.321-3.321-3.321-3.321 3.321h0zm3.474 3.473l3.321 3.321 3.32-3.321-3.321-3.321-3.32 3.321h0zM81.328 89.26l3.321-3.321-3.321-3.321-3.321 3.321 3.321 3.321h0zm-3.474-3.474l3.321-3.321-3.32-3.32-3.321 3.321 3.32 3.32h0zm-3.473-3.473l3.321-3.321-3.321-3.321-3.321 3.321 3.321 3.321h0zm-3.473-3.473l3.321-3.321-3.321-3.321-3.321 3.321 3.321 3.321h0zm-3.474-3.474l3.321-3.321-3.321-3.321-3.321 3.321 3.321 3.321h0zm-3.473-3.473l3.321-3.321-3.321-3.321-3.321 3.321 3.321 3.321h0zm-3.474-3.474l3.321-3.321-3.321-3.321-3.321 3.321 3.321 3.321h0zM48.656 56.588l1.411 1.411 1.411-1.411h-2.822 0zm1.563 1.564l3.321 3.321 3.321-3.321-1.564-1.564h-3.515l-1.563 1.564h0zm3.474 3.473l3.321 3.321 3.321-3.321-3.321-3.321-3.321 3.321h0zM88.275 89.26l3.321-3.321-3.321-3.321-3.321 3.321 3.321 3.321h0zm-3.474-3.474l3.321-3.321-3.321-3.321-3.321 3.321 3.321 3.321h0zm-3.473-3.473l3.321-3.321-3.321-3.321-3.321 3.321 3.321 3.321h0zm-3.473-3.473l3.321-3.321-3.321-3.321-3.321 3.321 3.321 3.321h0zm-3.473-3.474l3.321-3.321-3.321-3.321-3.321 3.321 3.321 3.321h0zm-3.474-3.474l3.321-3.321-3.321-3.321-3.321 3.321 3.321 3.321h0zm-3.473-3.473l3.321-3.321-3.321-3.321-3.321 3.321 3.321 3.321h0zm-3.474-3.473l3.321-3.321-3.32-3.321-3.321 3.321 3.32 3.321h0zm-8.358-8.358l1.411 1.411 1.411-1.411h-2.822 0zm1.564 1.564l3.321 3.321 3.321-3.321-1.564-1.564H58.73l-1.563 1.564h0zM95.222 89.26l3.321-3.321-3.321-3.321-3.321 3.321 3.321 3.321h0zm-3.474-3.474l3.321-3.321-3.321-3.321-3.321 3.321 3.321 3.321h0zm-3.473-3.473l3.321-3.321-3.321-3.321-3.321 3.321 3.321 3.321h0zm-3.473-3.474l3.321-3.321-3.321-3.321-3.321 3.321 3.321 3.321h0zm-3.474-3.473l3.321-3.321-3.321-3.321-3.321 3.321 3.321 3.321h0zm-3.473-3.473l3.321-3.321-3.321-3.321-3.321 3.321 3.321 3.321h0zm-3.474-3.474l3.321-3.321-3.321-3.321-3.321 3.321 3.321 3.321h0zm-3.473-3.473l3.321-3.321-3.321-3.321-3.321 3.321 3.321 3.321h0zm-3.474-3.474l3.321-3.321-1.563-1.563h-3.515l-1.564 1.564 3.321 3.32h0zm-4.884-4.884l1.411 1.411 1.411-1.411H62.55h0zm39.619 32.672l3.321-3.321-3.321-3.321-3.321 3.321 3.321 3.321h0zm-3.473-3.474l3.321-3.321-3.321-3.321-3.321 3.321 3.321 3.321h0zm-3.474-3.473l3.321-3.321-3.321-3.321-3.321 3.321 3.321 3.321h0zm-3.474-3.474l3.321-3.321-3.321-3.321-3.321 3.321 3.321 3.321h0zm-3.473-3.473l3.321-3.321-3.321-3.321-3.321 3.321 3.321 3.321h0zm-3.473-3.474l3.321-3.321-3.321-3.321-3.321 3.321 3.321 3.321h0zm-3.473-3.473l3.321-3.321-3.321-3.321-3.321 3.321 3.321 3.321h0zm-3.474-3.473l3.321-3.321-3.321-3.321-3.321 3.321 3.321 3.321h0zm-3.473-3.474l3.321-3.321-1.564-1.564h-3.516L71.06 58.15l3.322 3.322h0zm-3.474-3.474l1.41-1.41h-2.821l1.411 1.41h0zm38.208 31.262l3.321-3.321-3.321-3.321-3.321 3.321 3.321 3.321h0zm-3.474-3.474l3.321-3.321-3.321-3.321-3.321 3.321 3.321 3.321h0zm-3.473-3.473l3.321-3.321-3.321-3.321-3.321 3.321 3.321 3.321h0zm-3.473-3.473l3.321-3.321-3.321-3.321-3.321 3.321 3.321 3.321h0zm-3.474-3.474l3.321-3.321-3.321-3.321-3.321 3.321 3.321 3.321h0zm-3.474-3.474l3.321-3.321-3.321-3.321-3.321 3.321 3.321 3.321h0zm-3.473-3.473l3.321-3.321-3.321-3.321-3.321 3.321 3.321 3.321h0zm-3.473-3.473l3.321-3.321-3.321-3.321-3.321 3.321 3.321 3.321h0zm-3.474-3.474l3.321-3.321-2.977-2.977v1.306a.109.109 0 01-.108.108h-1.993l-1.564 1.564 3.321 3.32h0zm-3.473-3.473l1.411-1.411h-2.822l1.411 1.411h0zm38.207 31.26l3.321-3.321-3.321-3.321-3.321 3.321 3.321 3.321h0zm-3.473-3.473l3.321-3.321-3.321-3.321-3.321 3.321 3.321 3.321h0zm-3.473-3.473l3.321-3.321-3.321-3.321-3.321 3.321 3.321 3.321h0zm-3.474-3.474l3.321-3.321-3.321-3.321-3.321 3.321 3.321 3.321h0zm-3.473-3.473l3.321-3.321-3.321-3.321-3.321 3.321 3.321 3.321h0zm-3.474-3.474l3.321-3.321-3.321-3.321-3.321 3.321 3.321 3.321h0zm-3.473-3.473l3.321-3.321-3.321-3.321-3.321 3.321 3.321 3.321h0zm-3.473-3.473l3.321-3.321-3.321-3.321-3.321 3.321 3.321 3.321h0zm-3.474-3.474l3.321-3.321-3.321-3.321-3.321 3.321 3.321 3.321h0zm-3.473-3.473l3.321-3.321-3.321-3.321-3.13 3.13v.382l3.13 3.13h0zM123.01 89.26l3.32-3.32-3.321-3.321-3.321 3.321 3.322 3.32h0zm-3.474-3.474l3.32-3.32-3.32-3.321-3.321 3.321 3.321 3.32h0zm-3.473-3.473l3.321-3.321-3.321-3.321-3.321 3.321 3.321 3.321h0zm-3.473-3.474l3.321-3.321-3.321-3.321-3.321 3.321 3.321 3.321h0zm-3.474-3.473l3.321-3.321-3.321-3.321-3.321 3.321 3.321 3.321h0zm-3.473-3.474l3.321-3.321-3.321-3.321-3.321 3.321 3.321 3.321h0zm-3.474-3.473l3.321-3.321-3.071-3.071-.354-.145-3.216 3.216 3.32 3.321h0zm-3.473-3.473l3.153-3.153-.832-.341-.003-.001-.002-.001-.004-.002h0l-.009-.004h0l-.009-.006h0l-.005-.003-1.246-.942h-.001l-.001-.001h-.001l-.002-.001h-.001l-.001-.001h-.001l-.002-.001h0l-.002-.001h0l-.002-.002h0l-.001-.001-.001-.001-.001-.001v-.001l-.001-.001-.001-.001-.001-.001-.001-.001-.001-.002h-.001l-.001-.001-.002-.002-.001-.002-.962-1.223-.001-.001-.002-.002v-.001l-.001-.002-.001-.002h0l-.001-.002-.001-.002v-.001l-.001-.002-.001-.003v-.001l-.001-.002-.001-.003h0l-.001-.002-.001-.003-.001-.002-.3-.647-3.057 3.058 3.317 3.318h0zm-3.474-3.474l3.113-3.113-.315-.68-.003-.005-.002-.005h0l-.002-.005h0l-.001-.005h0l-.001-.005h0l-.014-.051-2.773-2.773-3.321 3.321 3.319 3.321h0zm-3.473-3.473l3.321-3.321-3.321-3.321-3.321 3.321 3.321 3.321h0zm-3.474-3.474l3.321-3.321-3.321-3.321-3.321 3.321 3.321 3.321h0zm-3.625-3.321l-2.977-2.977v5.955l2.977-2.978h0zm-2.978-3.282l3.13 3.13 3.321-3.321-3.321-3.322-3.129 3.13v.383h-.001zm13.55 6.603l2.191-2.192.216-2.043-2.407-2.407-3.321 3.321 3.321 3.321h0zm-3.473-3.473l3.321-3.321-3.321-3.321-3.321 3.321 3.321 3.321h0zM81.672 41.28v5.954l2.977-2.977-2.977-2.977h0zm48.285 47.98l3.321-3.321-3.321-3.321-3.321 3.321 3.321 3.321h0zm-3.474-3.473l3.321-3.321-3.321-3.321-3.321 3.321 3.321 3.321h0zm-3.474-3.474l3.321-3.321-3.32-3.321-3.321 3.321 3.32 3.321h0zm-3.473-3.473l3.321-3.321-3.321-3.321-3.321 3.321 3.321 3.321h0zm-3.473-3.474l3.321-3.321-3.321-3.321-3.321 3.321 3.321 3.321h0zm-3.474-3.474l3.321-3.321-3.321-3.321-3.321 3.321 3.321 3.321h0zm-3.473-3.473l3.321-3.321-3.321-3.321-3.321 3.321 3.321 3.321h0zm-3.474-3.474l3.321-3.321-.905-.905-.948.716-.005.003h0l-.009.006h0l-.009.004h-.001l-.004.002-.003.001-.003.001-1.429.586-.005.002-.004.002-.005.002h-.001l-.005.001h-.001l-.005.001h-.001l-.005.001h-.001l-.005.001h-.001l-1.546.204h0l-.005.001h0l-.005.001h-.006 0-.005 0-.006l-.005-.001h-.001l-.005-.001h0l-1.241-.164 2.859 2.857h0zm-10.42-17.366l3.011-3.011.059-.56-2.911-2.911h-.318l-3.162 3.162 3.321 3.32h0zm13.01 13.009l.884.884 3.321-3.32-1.941-1.942-.412 1.445h0l-.001.005h0l-.001.005h0l-.002.005h0l-.002.005-.003.005-.712 1.535-.001.002-.001.003-.001.002h0l-.001.003-.001.002v.001l-.001.003-.001.002v.001l-.001.002-.001.002h0l-.001.002-.001.002v.001l-.002.002-.001.001-.962 1.223-.001.002-.002.002-.001.001h-.001l-.001.002-.001.001-.001.001-.001.001-.001.001v.001l-.002.001-.001.001-.001.001h0l-.002.002h0l-.002.001h0l-.002.001h-.001l-.001.001h0l-.002.001h-.001l-.001.001h-.001l-.128.097h0zm1.036 1.036l3.321 3.321 3.321-3.32-3.321-3.321-3.321 3.32h0zm3.474 3.474l3.321 3.321 3.321-3.321-3.321-3.321-3.321 3.321h0zm3.473 3.473l3.321 3.321 3.321-3.321-3.321-3.321-3.321 3.321h0zm3.474 3.474l3.321 3.321 3.321-3.32-3.321-3.321-3.321 3.32h0zm3.474 3.474l3.321 3.32 3.32-3.32-3.32-3.321-3.321 3.321h0zm3.473 3.473l3.321 3.321 3.321-3.32-3.321-3.321-3.321 3.32h0zm-16.077-23.024l2.03 2.03 3.321-3.321-3.321-3.32-1.863 1.863.037 1.053v.016h0v.005h0l-.204 1.674h0zm2.183 2.183l3.321 3.321 3.321-3.321-3.321-3.321-3.321 3.321h0zm3.473 3.474l3.321 3.321 3.321-3.321-3.321-3.321-3.321 3.321h0zm3.474 3.473l3.321 3.321 3.321-3.321-3.321-3.321-3.321 3.321h0zm3.473 3.474l3.321 3.321 3.321-3.321-3.321-3.321-3.321 3.321h0zm3.474 3.474l3.32 3.32 3.322-3.321-3.32-3.321-3.322 3.322h0zm-16.334-23.282l2.288 2.288 3.321-3.32-3.321-3.321-2.484 2.484.196 1.869h0zm2.44 2.44l3.32 3.32 3.321-3.32-3.321-3.32-3.32 3.32h0zm3.473 3.473l3.321 3.321 3.321-3.32-3.321-3.321-3.321 3.32h0zm3.474 3.474l3.321 3.321 3.32-3.32-3.321-3.321-3.32 3.32h0zm3.474 3.474l3.321 3.321 3.321-3.32-3.321-3.321-3.321 3.32h0zm3.473 3.473l3.321 3.321 3.32-3.32-3.321-3.321-3.32 3.32h0zm-10.421-17.367l3.32 3.32 3.321-3.321-3.321-3.32-3.32 3.321h0zm3.473 3.473l3.321 3.321 3.321-3.321-3.321-3.322-3.321 3.322h0zm3.474 3.474l3.321 3.321 3.321-3.321-3.32-3.321-3.322 3.321h0zm3.474 3.474l3.321 3.321 3.321-3.321-3.321-3.321-3.321 3.321h0zm-3.474-10.422l3.321 3.322 3.321-3.32-3.322-3.322-3.32 3.32h0zm3.474 3.475l3.321 3.321 3.321-3.321-3.321-3.32-3.321 3.32h0zm-90.307 6.638l1.255-1.255h-1.255v1.255h0zm9.986-16.747h-1.541v.025c0 .06-.049.108-.108.108H44.49v.029l-.001.005v.006l-.001.004v.005l-.001.002-.001.003-.001.002-.001.002-.001.003-.001.002-.001.003-.001.002-.002.003v.001l-.002.003-.001.001-.002.004v.001l-.002.004-.003.004h0l-.003.003h0l-.003.003v.001l-.003.003-.001.001-.002.002-.001.001-.002.002-.002.001-.002.001-.002.002-.002.001-.002.002-.001.001-.003.002h-.001l-.003.002-.001.001-.004.002h-.001l-.004.002-.005.002-.004.001h-.001l-.004.001h-.001l-.004.001H44.4l-.002.001h-.003v1.518c0 .06-.048.108-.108.108h-.213v.199h.969c.06 0 .108.049.108.108v.233h1.843v-1.9H46.8a.108.108 0 01-.108-.108v-.155h-.269a.108.108 0 01-.108-.108v-.156h0zm4.618 1.673H51.851V41.36h-.918v1.409h0zm-6.96 0h.207V41.36h-.918v1.409h.711z" fill-rule="evenodd" clip-rule="evenodd" fill="none" stroke="#999" stroke-width=".3" stroke-linecap="round" stroke-linejoin="round" stroke-miterlimit="3"/></g><g id="walls"><path class="st3" d="M157.488 279.707v-13.603M157.488 287.265v-5.668M157.488 281.597v-1.89M240.618 279.707v-13.603M240.618 287.265v-5.668M240.618 281.597v-1.89M240.618 287.265h-83.13M240.618 266.105h-83.13M240.618 279.707h-3.778M236.839 279.707v1.89M236.839 281.597h3.778M185.828 281.597h1.89M187.717 281.597v-1.89M187.717 279.707h-1.89M236.839 280.652h-49.122M236.839 279.707h-49.122M187.717 281.597h49.122M185.828 279.707h-.944M184.883 279.707v.945M184.883 280.652h-.945M183.938 280.652v.944M183.938 281.597h1.89M157.488 281.597h3.778M161.266 281.597v-.944M161.266 280.652h-.944M160.322 280.652v-.945M160.322 279.707h-2.834M161.266 281.597h22.672M182.049 278.763h-18.894M184.883 278.763h-2.834M182.049 278.763v1.89M182.049 280.652h2.834M184.883 280.652v-1.89M160.322 280.652h2.834M163.156 280.652v-1.89M163.156 278.763h-2.834M160.322 278.763v1.89M163.156 280.652h18.894M182.049 278.763h-18.894M182.049 279.707h-18.894M240.618 281.597v-1.89M240.618 281.597v-1.89M240.618 287.265v-5.668M240.618 279.707v-13.603M157.488 281.597v-1.89M157.488 281.597v-1.89M157.488 287.265v-5.668M157.488 279.707v-13.603M157.488 287.265v-21.16"/><g><path class="st3" d="M112.144 279.707v-13.603M112.144 287.265v-5.668M112.144 281.597v-1.89M29.015 279.707v-13.603M29.015 287.265v-5.668M29.015 281.597v-1.89M29.015 287.265h83.129M29.015 266.105h83.129M29.015 279.707h3.779M32.794 279.707v1.89M32.794 281.597h-3.78M83.805 281.597h-1.889M81.916 281.597v-1.89M81.916 279.707h1.889M32.794 280.652h49.121M32.794 279.707h49.121M81.916 281.597H32.794M83.805 279.707h.945M84.749 279.707v.945M84.749 280.652h.945M85.694 280.652v.944M85.694 281.597h-1.889M112.144 281.597h-3.778M108.366 281.597v-.944M108.366 280.652h.945M109.311 280.652v-.945M109.311 279.707h2.833M108.366 281.597H85.694M87.584 278.763h18.892M84.749 278.763h2.835M87.584 278.763v1.89M87.584 280.652h-2.835M84.749 280.652v-1.89M109.311 280.652h-2.835M106.476 280.652v-1.89M106.476 278.763h2.835M109.311 278.763v1.89M106.476 280.652H87.583M87.584 278.763h18.892M87.584 279.707h18.892M29.015 281.597v-1.89M29.015 281.597v-1.89M29.015 287.265v-5.668M29.015 279.707v-13.603M112.144 281.597v-1.89M112.144 281.597v-1.89M112.144 287.265v-5.668M112.144 279.707v-13.603M29.015 287.265v-21.16"/></g><g><path class="st3" d="M211.981.214c2.232 5.964 2.882 9.198 3.207 15.556"/><path class="st4" d="M211.947.112L175.739 15.77v1.51l.453.001 36.356-15.782z"/><path class="st5" d="M121.496 129.264c4.815 1.798 7.432 2.323 12.564 2.585"/><path class="st4" d="M121.402 129.229l1.388.601 12.782-29.419v-.453l-1.512.001z"/><g><path class="st5" d="M148.147 60.661c-4.242-1.572-6.546-2.036-11.064-2.268"/><path class="st4" d="M148.242 60.702l-1.387-.6-11.283 25.95v.453l1.512.001z"/></g></g><path d="M9.933 266.105h19.082v21.16H.108V15.77l175.631.001v1.51h.453v7.558H9.933v241.266h0zm259.213 0v21.16h-28.528v-21.16h19.46V24.838h-45.344V17.28h.454v-1.51l53.958-.001v250.336h0zm-111.658 21.159v-21.16h-45.344v21.16h45.344z" fill-rule="evenodd" clip-rule="evenodd" stroke="#000" stroke-miterlimit="3"/><path class="st0" d="M160.133 93.987h-23.05v6.424h-1.512v-.453h-1.511v-5.971H9.554v-3.022H134.06v-4.913h1.512v.453h1.511v4.46h23.05v3.022zm-24.561 172.118h-3.022c0-44.744.229-89.547-.006-134.283h1.48v-.453h1.547v134.736h.001zm96.166-226.151h-3.022V24.838h3.022V36.93h28.34v3.022h-5.669v51.013h5.669v3.022h-61.402v-3.022h52.711V39.953h-19.649v.001zM39.406 41.086h-3.023V24.838h3.023v13.225h76.14V24.838h3.022v13.225h15.493V24.839h3.023l-.001 33.553h-1.511v.454h-1.512l.001-17.76H39.406z"/><g><path class="st7" d="M39.607 26.834l-3.02 2.66M39.607 33.374l-3.02 2.66M41.557 38.194l-3.44 3.03M48.977 38.194l-3.44 3.03M56.397 38.194l-3.44 3.03M63.827 38.194l-3.44 3.03M11.187 91.104l-1.43 1.26M71.247 38.194l-3.44 3.03M78.667 38.194l-3.44 3.03M18.607 91.104l-3.43 3.02M86.087 38.194l-3.44 3.03M26.027 91.104l-3.43 3.02M93.517 38.194l-3.44 3.03M33.457 91.104l-3.43 3.02M115.947 24.974l-.2.18M100.937 38.194l-3.44 3.03M40.877 91.104l-3.43 3.02M118.767 29.024l-3.02 2.66M108.357 38.194l-3.44 3.03M48.297 91.104l-3.43 3.02M118.767 35.564l-6.42 5.66M55.717 91.104l-3.43 3.02M137.287 25.784l-3.02 2.66M123.197 38.194l-3.44 3.03M63.137 91.104l-3.43 3.02M70.567 91.104l-3.43 3.02M130.627 38.194l-3.44 3.03M137.287 32.324l-3.02 2.66M137.287 38.864l-3.02 2.66M77.987 91.104l-3.43 3.02M137.287 45.404l-3.02 2.66M85.407 91.104l-3.43 3.02M137.287 51.944l-3.02 2.66M92.827 91.104l-3.43 3.02M137.287 58.484l-.05.04M100.257 91.104l-3.43 3.02M107.677 91.104l-3.43 3.02M115.097 91.104l-3.43 3.02M122.517 91.104l-3.43 3.02M135.527 86.184l-1.26 1.11M129.937 91.104l-3.43 3.02M137.367 91.104l-3.43 3.02M137.287 97.714l-2.7 2.38M144.787 91.104l-3.43 3.02M152.207 91.104l-3.43 3.02M231.937 27.404l-3.02 2.66M159.627 91.104l-3.43 3.02M231.937 33.944l-3.02 2.66M235.817 37.064l-3.42 3.02M243.247 37.064l-3.43 3.02M135.777 131.734l-3.02 2.66M250.667 37.064l-3.43 3.02M135.777 138.274l-3 2.64M254.607 40.134l-3.02 2.66M258.087 37.064l-3.42 3.02M135.777 144.814l-2.98 2.62M254.607 46.674l-3.02 2.66M204.167 91.104l-3.43 3.02M135.777 151.354l-2.95 2.6M254.607 53.204l-3.02 2.66M135.777 157.884l-2.94 2.59M211.587 91.104l-3.43 3.02M254.607 59.744l-3.02 2.66M135.777 164.424l-2.93 2.58M219.007 91.104l-3.43 3.02M254.607 66.284l-3.02 2.66M135.777 170.964l-2.93 2.57M226.427 91.104l-3.43 3.02M254.607 72.824l-3.02 2.66M135.777 177.504l-2.92 2.57M233.857 91.104l-3.43 3.02M254.607 79.364l-3.02 2.66M135.777 184.044l-2.93 2.58M241.277 91.104l-3.43 3.02M254.607 85.904l-3.02 2.66M135.777 190.584l-2.93 2.58M248.697 91.104l-3.43 3.02M256.117 91.104l-3.43 3.02M135.777 197.114l-2.94 2.59M260.277 93.984l-.16.14M135.777 203.664l-2.95 2.59M135.777 210.194l-2.96 2.61M135.777 216.734l-2.97 2.61M135.777 223.274l-2.98 2.62M135.777 229.814l-2.98 2.63M135.777 236.354l-2.99 2.63M135.777 242.884l-3 2.65M135.777 249.424l-3.01 2.65M135.777 255.964l-3.01 2.65M135.777 262.504l-3.02 2.66"/></g><path d="M160.133 93.987h-23.05v6.424h-1.512v-.453h-1.511v-5.971H9.554v-3.022H134.06v-4.913h1.512v.453h1.511v4.46h23.05v3.022h0zm-24.561 172.118h-3.022c0-44.744.229-89.547-.006-134.283h1.48v-.453h1.547v134.736h.001zm96.166-226.151h-3.022V24.838h3.022V36.93h28.34v3.022h-5.669v51.013h5.669v3.022h-61.402v-3.022h52.711V39.953h-19.649v.001h0zM39.406 41.086h-3.023V24.838h3.023v13.225h76.14V24.838h3.022v13.225h15.493V24.839h3.023l-.001 33.553h-1.511v.454h-1.512l.001-17.76H39.406z" fill-rule="evenodd" clip-rule="evenodd" fill="none" stroke="#000" stroke-miterlimit="22.926"/></g><g id="sizes_6_"><path d="M102.208 109.677h-1.867v-9.234l-1.5.758V99.24l1.656-.922h1.711v11.359zM104.473 106.263l3.656-7.938h2.031l-3.563 7.844h5.336v1.766h-7.461v-1.672zm4.742-3.266h1.844v6.688h-1.844v-6.688zM113.52 107.77h1.859v1.906l-1.859 1.578v-3.484zM118.614 109.392c-.484-.269-.854-.659-1.109-1.172s-.383-1.132-.383-1.855v-.008c0-.417.051-.855.152-1.316a8.32 8.32 0 01.532-1.609c.035-.075.069-.149.105-.223l2.391-4.891h2.063l-2.813 5.664-.266-.281c.13-.245.32-.435.57-.57s.542-.203.875-.203c.604 0 1.122.133 1.555.398s.762.652.988 1.16.34 1.118.34 1.832v.008c0 .729-.128 1.354-.383 1.875s-.626.917-1.113 1.188-1.071.406-1.754.406-1.266-.135-1.75-.403zm2.773-1.793c.239-.266.359-.646.359-1.141v-.008c0-.552-.122-.978-.367-1.277s-.597-.449-1.055-.449c-.427 0-.757.151-.988.453s-.348.729-.348 1.281v.008c0 .495.12.874.359 1.137s.578.395 1.016.395c.443-.001.785-.134 1.024-.399z"/><g><path d="M45.624 70.956l3.656-7.937h2.031l-3.563 7.844h5.336v1.766h-7.461v-1.673zm4.742-3.266h1.844v6.688h-1.844V67.69zM54.671 72.464h1.859v1.906l-1.859 1.578v-3.484zM60.175 74.12c-.466-.245-.843-.603-1.129-1.074s-.466-1.032-.539-1.684v-.008h1.867v.008c.047.417.192.741.438.973s.565.348.961.348c.442 0 .785-.146 1.027-.438s.363-.706.363-1.242v-.953c0-.531-.116-.942-.348-1.234s-.559-.438-.98-.438c-.292 0-.556.078-.793.234s-.423.375-.559.656h-1.727V63.01h5.945v1.79h-4.078v2.281c.177-.161.397-.286.66-.375s.527-.133.793-.133c.62 0 1.151.136 1.594.406s.78.667 1.012 1.188.348 1.148.348 1.883v.953c0 .734-.129 1.362-.387 1.883s-.632.918-1.121 1.191-1.078.41-1.766.41c-.588 0-1.115-.122-1.581-.367z"/></g><g><path d="M201.434 83.604c-.466-.245-.843-.603-1.129-1.074s-.466-1.032-.539-1.684v-.008h1.867v.008c.047.417.192.741.438.973s.565.348.961.348c.442 0 .785-.146 1.027-.438s.363-.706.363-1.242v-.953c0-.531-.116-.942-.348-1.234s-.559-.438-.98-.438c-.292 0-.556.078-.793.234s-.423.375-.559.656h-1.727v-6.258h5.945v1.789h-4.078v2.281c.177-.161.397-.286.66-.375s.527-.133.793-.133c.62 0 1.151.136 1.594.406s.78.667 1.012 1.188.348 1.148.348 1.883v.953c0 .734-.129 1.362-.387 1.883s-.632.918-1.121 1.191-1.078.41-1.766.41a3.31 3.31 0 01-1.581-.366zM208.266 81.948h1.859v1.906l-1.859 1.578v-3.484zM212.949 83.12c-.565-.567-.848-1.359-.848-2.375v-5.164c0-1.021.284-1.813.852-2.379s1.391-.848 2.469-.848c1.083 0 1.907.281 2.473.844s.848 1.356.848 2.383v5.164c0 1.021-.284 1.813-.852 2.379s-1.391.848-2.469.848c-1.083 0-1.907-.285-2.473-.852zm3.575-1.379c.234-.294.352-.718.352-1.27v-4.617c0-.552-.117-.976-.352-1.27s-.602-.441-1.102-.441-.867.147-1.102.441-.352.718-.352 1.27v4.617c0 .552.117.976.352 1.27s.602.441 1.102.441.867-.147 1.102-.441z"/></g><g><path d="M205.572 134.867h-1.867v-9.234l-1.5.758v-1.961l1.656-.922h1.711v11.359zM207.838 131.453l3.656-7.938h2.031l-3.563 7.844h5.336v1.766h-7.461v-1.672zm4.742-3.266h1.844v6.688h-1.844v-6.688zM216.885 132.961h1.859v1.906l-1.859 1.578v-3.484zM221.979 134.582c-.484-.269-.854-.659-1.109-1.172s-.383-1.132-.383-1.855v-.008c0-.417.051-.855.152-1.316a8.32 8.32 0 01.532-1.609c.035-.075.069-.149.105-.223l2.391-4.891h2.063l-2.813 5.664-.266-.281c.13-.245.32-.435.57-.57s.542-.203.875-.203c.604 0 1.122.133 1.555.398s.762.652.988 1.16.34 1.118.34 1.832v.008c0 .729-.128 1.354-.383 1.875s-.626.917-1.113 1.188-1.071.406-1.754.406-1.266-.134-1.75-.403zm2.773-1.793c.239-.266.359-.646.359-1.141v-.008c0-.552-.122-.978-.367-1.277s-.597-.449-1.055-.449c-.427 0-.757.151-.988.453s-.348.729-.348 1.281v.008c0 .495.12.874.359 1.137s.578.395 1.016.395c.443-.001.785-.133 1.024-.399z"/></g></g></svg>