<svg version="1.1" id="_x39_4_1_" xmlns="http://www.w3.org/2000/svg" x="0" y="0" viewBox="0 0 347.765 300.834" xml:space="preserve"><style>.st0,.st1{fill-rule:evenodd;clip-rule:evenodd}.st0{fill:#fff}.st1{stroke:#999;stroke-width:.4}.st1,.st2,.st3{fill:none;stroke-linecap:round;stroke-linejoin:round;stroke-miterlimit:3}.st2{fill-rule:evenodd;clip-rule:evenodd;stroke:#999}.st3{stroke:#000}.st4,.st5,.st7{fill-rule:evenodd;clip-rule:evenodd}.st5,.st7{fill:none}.st5{stroke-linecap:round;stroke-linejoin:round;stroke:#000;stroke-miterlimit:3}.st7{stroke:#666;stroke-width:.6;stroke-miterlimit:22.9256}</style><path class="st0" d="M302.446 296.091h44.979V6.716h-43.854V.446h-288v299.942h286.875z"/><g id="mebel"><path class="st1" d="M39.819 100.532h49.879M39.819 89.196h49.879M39.819 77.86h49.879M39.819 66.524h49.879M39.819 55.189h49.879M39.819 43.852h49.879M39.821 32.517h18.43m13.017 0h18.43m-9.635 74.675V21.323m-22.671 85.869V21.323M86.407 274.208l3.291-3.291m-10.237 3.291l10.238-10.238M72.514 274.208l17.184-17.185M65.567 274.208l24.131-24.132m-31.079 24.132l31.079-31.079m-38.026 31.079l38.026-38.026m-44.972 38.026l44.972-44.973m-51.92 44.973l7.084-7.084m5.854-5.854l37.697-37.696m-57.581 50.634l7.199-7.199m10.701-10.702l32.734-32.733m-51.846 44.9l2.128-2.129m12.053-12.052l30.718-30.719m-38.124 31.177l8.505-8.505m2.856-2.856l19.816-19.816M29.62 254.58l8.334-8.334m9.802-9.803l12.869-12.869M29.62 247.633l1.387-1.387m16.749-16.749l5.923-5.923m36.019 6.214l-6.214-6.214m6.214 13.161l-13.161-13.161m13.161 20.108l-20.107-20.108m20.107 27.055l-27.054-27.055m27.054 34.002l-34.002-34.002m34.002 40.949L48.75 223.574m40.948 47.896l-41.943-41.944m37.734 44.682l-37.734-37.734m30.788 37.734L47.756 243.42m23.84 30.788l-27.962-27.962m21.014 27.962L50.71 260.269m-5.789-5.789l-8.234-8.234m21.015 27.962l-8.946-8.946m-10.688-10.688l-8.328-8.328M50.756 274.208l-6.918-6.918m-12.053-12.052l-2.166-2.166M43.809 274.208l-7.367-7.367m.419 7.367l-7.242-7.242m.296 7.242l-.295-.295"/><path class="st2" d="M44.61 267.196l1.645-.469m0 0l1.552-.718m0 0l1.23-.968m0 0l.943-1.248m0 0l.594-1.448m0 0l.205-1.551m0 0l-.205-1.551m0 0l-.594-1.447m0 0l-.943-1.249m0 0l-1.23-.967m0 0l-1.552-.719m0 0l-1.645-.469m0 0l-1.697-.207m0 0l-1.71.059m0 0l-11.584 1.223m0 0v10.654m0 0l11.584 1.223m0 0l1.71.06m0 0l1.697-.208M35.34 256.677v4.117M35.34 260.794v4.116M49.607 257.73c.57.89.881 1.961.887 3.064M42.777 254.482c2.592-.166 5.107 1.031 6.83 3.248M35.34 256.677c2.253-1.505 4.828-2.266 7.437-2.195M42.777 267.105c-2.609.071-5.185-.689-7.437-2.195M49.607 263.857c-1.723 2.217-4.238 3.414-6.83 3.248M50.494 260.794a5.743 5.743 0 01-.887 3.063M29.619 256.146v9.295m0 0h.188m0 0v-9.295m0 0h-.188M29.619 270.24v-18.893M25.084 270.24v-18.893M29.619 270.24h-4.535M29.619 251.347h-4.535M60.037 291.212h29.096m0 0l.4-.166m0 0l.166-.401m0 0v-15.87m0 0l-.166-.401m0 0l-.4-.166m0 0H60.037m0 0l-.4.166m0 0l-.167.401m0 0v15.87m0 0l.167.401m0 0l.4.166M61.171 287.055H74.13m.908 0h12.961M88.565 286.488v-10.58M87.999 275.341H61.171M60.603 275.908v10.58M88.565 286.488a.567.567 0 01-.566.566M87.999 275.341c.312 0 .566.254.566.567M60.603 275.908c0-.313.254-.567.567-.567M61.171 287.055a.567.567 0 01-.567-.566M75.341 283.552a.755.755 0 01-.303.605v-1.209a.75.75 0 01.303.604zm-1.211.604a.756.756 0 010-1.207v1.207zM75.038 290.683h-.907m0 0v-7.749m0 0l.256-.3m0 0h.395m0 0l.256.3m0 0v7.749M73.829 290.683h1.512m0 0v.264m0 0h-1.512m0 0v-.264M73.451 290.947h2.268m0 0v.265m0 0h-2.268m0 0v-.265M71.316 289.323v1.625m0 0h.094m0 0v.132m0-.001h.284m0 0v.132m0 .001h-1.89m0 0v-.132m0-.001h.283m0 0v-.132m0 .001h.095m0 0v-1.625m0 0h.322m0 0v-.416m0-.001h-1.078m0 0v-.491m0 0h2.646m0 0v.491m0 0h-1.077m0 0v.416m0 .001h.321M77.853 289.323v1.625m0 0h-.095m0 0v.132m0-.001h-.283m0 0v.132m0 .001h1.889m0 0v-.132m0-.001h-.283m0 0v-.132m0 .001h-.095m0 0v-1.625m0 0h-.321m0 0v-.416m0-.001h1.077m0 0v-.491m0 0h-2.645m0 0v.491m0 0h1.076m0 0v.416m0 .001h-.32M70.504 288.906l.072-.072M70.995 288.906l-.072-.072M70.504 289.323h.491M70.182 290.947h1.134M71.41 291.079h-1.322M78.666 288.906l-.072-.072M78.174 288.906l.072-.072M78.666 289.323h-.492M78.986 290.947h-1.133M77.759 291.079h1.322M70.995 288.661a.246.246 0 11-.492 0 .246.246 0 01.492 0zM78.666 288.661a.246.246 0 11-.492 0 .246.246 0 01.492 0zM58.358 36.315l.469 1.645m0 0l.718 1.551m0 0l.967 1.231m0 0l1.249.942m0 0l1.448.594m0 0l1.55.206m0 0l1.552-.206m0 0l1.447-.594m0 0l1.249-.942m0 0l.967-1.231m0 0l.719-1.551m0 0l.469-1.645m0 0l.207-1.698m0 0l-.059-1.709m0 0l-1.223-11.585m0 0H59.433m0 0L58.21 32.908m0 0l-.06 1.709m0 0l.208 1.698M68.877 27.045H64.76M64.759 27.044h-4.115M67.824 41.311a5.74 5.74 0 01-3.064.886M71.072 34.482c.165 2.591-1.031 5.106-3.248 6.83M68.877 27.045c1.505 2.252 2.266 4.828 2.195 7.437M58.448 34.482c-.07-2.609.69-5.185 2.195-7.437M61.696 41.311c-2.217-1.723-3.413-4.238-3.248-6.83M64.759 42.198a5.734 5.734 0 01-3.063-.886M69.408 21.323h-9.296m0 0v.189m0 0h9.296m0 0v-.189M55.313 21.323h18.894M55.313 16.789h18.894M55.313 21.323v-4.534M74.207 21.323v-4.534M25.084 134.399h64.615m0 0v-27.206m0 0H25.084m0 0v27.206M32.623 109.369l-.936.083m0 0l-.906.245m0 0l-.85.401m0 0l-.769.544m0 0l-.664.671m0 0l-.538.777m0 0l-.397.859m0 0l-.243.917m0 0l-.082.944m0 0v11.971m0 0l.082.945m0 0l.243.916m0 0l.397.859m0 0l.538.778m0 0l.664.67m0 0l.769.544m0 0l.85.401m0 0l.906.246m0 0l.936.082m0 0h43.615m0 0l1.963-.174m0 0l1.904-.515m0 0l1.787-.842m0 0l1.614-1.142m0 0l1.393-1.409m0 0l1.131-1.631m0 0l.833-1.806m0 0l.51-1.923m0 0l.172-1.985m0 0l-.172-1.984m0 0l-.51-1.924m0 0l-.833-1.805m0 0l-1.131-1.631m0 0l-1.393-1.409m0 0l-1.614-1.142m0 0l-1.787-.842m0 0l-1.904-.516m0 0l-1.963-.173m0 0H32.623M35.097 120.795a.945.945 0 11-1.89 0 .945.945 0 011.89 0zM280.709 276.012h-73.306m0 0v15.2m0 0h73.306m0 0v-15.2M280.709 276.768h-73.306M244.055 276.012v.756M280.709 276.012v.756M47.756 246.246H25.084m0 0v-22.672m0 0h22.672m0 0v22.672M59.469 274.208H47.377m0 0v17.004m0 0h12.092m0 0v-17.004M197.73 139.689v1.889m0 0h73.381m0 0v-1.889m0 0H197.73M197.73 177.475h36.69m0 0v-26.45m0 0h-36.69m0 0v26.45M234.421 177.475h36.69m0 0v-26.45m0 0h-36.69m0 0v26.45M271.111 177.475h9.598m0 0v-37.786m0 0h-9.598m0 0v1.889m0 9.447v26.45M188.133 177.475h9.598m-.001 0v-26.45m0-9.447v-1.889m0 0h-9.598m.001 0v37.786M234.421 141.578v9.447m0 0h41.489m0 0v-9.447m0 0h-41.489M234.421 141.578v9.447m0 0h-41.489m0 0v-9.447m0 0h41.489M39.821 34.265v72.928M25.084 34.265v72.928M39.821 107.193H25.084M39.821 34.265H25.084M38.687 43.806v17.382M38.687 61.188H27.729M27.729 61.188v-3.533m0-2.645v-2.06m0-.907v-2.059m0-2.645v-3.533M27.729 43.806h10.958M38.687 80.27v17.381M38.687 97.651H27.729M27.729 97.651v-3.533m0-2.645v-2.059m0-.907v-2.06m0-2.644V80.27M27.729 80.27h10.958M31.223 52.95a1.135 1.135 0 01-2.08 0h2.08zm-2.079-.907a1.133 1.133 0 012.078 0h-2.078zM31.223 89.413a1.135 1.135 0 01-2.08 0h2.08zm-2.079-.906a1.136 1.136 0 012.08 0h-2.08zM25.613 52.95v-.907m0 0h7.748m0 0l.301.256m0 0v.395m0 0l-.301.256m0 0h-7.748M25.613 51.741v1.511m0 0h-.264m0 0v-1.511m0 0h.264M25.349 51.363v2.267m0 0h-.266m0 0v-2.267m0 0h.266M26.973 49.228h-1.624m0 0v.094m0 0h-.133m0 0v.283m0 0h-.133m0 0v-1.889m0 0h.133m0 0V48m0 0h.133m0 0v.094m0 0h1.624m0 0v.322m0 0h.416m0 0v-1.077m0 0h.491m0 0v2.644m0 0h-.491m0 0v-1.076m0 0h-.416m0 0v.321M26.973 55.765h-1.624m0 0v-.094m0 0h-.133m0 0v-.284m0 0h-.133m0 0v1.89m0 0h.133m0 0v-.283m0 0h.133m0 0v-.095m0 0h1.624m0 0v-.322m0 0h.416m0 0v1.078m0 0h.491m0 0V55.01m0 0h-.491m0 0v1.076m0 0h-.416m0 0v-.321M25.613 89.414v-.907m0 0h7.748m0 0l.301.256m0 0v.395m0 0l-.301.256m0 0h-7.748M25.613 88.205v1.511m0 0h-.264m0 0v-1.511m0 0h.264M25.349 87.827v2.267m0 0h-.266m0 0v-2.267m0 0h.266M26.973 85.692h-1.624m0 0v.095m0 0h-.133m0 0v.283m0 0h-.133m0 0v-1.889m0 0h.133m0 0v.283m0 0h.133m0 0v.095m0 0h1.624m0 0v.321m0 0h.416m0 0v-1.077m0 0h.491m0 0v2.645m0 0h-.491m0 0v-1.077m0 0h-.416m0 0v.321M26.973 92.229h-1.624m0 0v-.094m0 0h-.133m0 0v-.284m0 0h-.133m0 0v1.89m0 0h.133m0 0v-.283m0 0h.133m0 0v-.095m0 0h1.624m0 0v-.322m0 0h.416m0 0v1.078m0 0h.491m0 0v-2.646m0 0h-.491m0 0v1.077m0 0h-.416m0 0v-.321M27.389 48.416l.072.072M27.389 48.907l.072-.072M26.973 48.416v.491M25.349 48.094v1.135M25.216 49.322v-1.321M27.389 56.577l.072-.07M27.389 56.086l.072.072M26.973 56.577v-.491M25.349 56.899v-1.134M25.216 55.671v1.323M27.389 84.88l.072.072M27.389 85.371l.072-.072M26.973 84.88v.491M25.349 84.559v1.133M25.216 85.786v-1.322M27.389 93.041l.072-.072M27.389 92.55l.072.072M26.973 93.041v-.491M25.349 93.363v-1.134M25.216 92.135v1.323M27.88 48.661a.246.246 0 11-.492 0 .246.246 0 01.492 0zM27.88 56.332a.246.246 0 11-.491-.001.246.246 0 01.491.001zM27.88 85.125a.246.246 0 11-.492 0 .246.246 0 01.492 0zM27.88 92.796a.246.246 0 11-.492 0 .246.246 0 01.492 0zM115.393 246.246v-22.672m0 0H92.721m0 0v22.672m0 0h22.672M100.279 234.91h7.558M101.385 237.582l5.345-5.343M104.057 238.689v-7.558M106.729 237.582l-5.344-5.343M112.559 247.002v19.271m0 0l-.221.534m0 0l-.534.222m0 0H94.421m0 0l-.533-.222m0 0l-.222-.534m0 0v-19.271m0 0l.222-.535m0 0l.533-.221m0 0h17.383m0 0l.534.221m0 0l.221.535M115.393 246.246v20.783M92.722 246.246v20.783M115.393 246.246H92.721M115.393 267.029H92.721M110.671 248.891v15.493M109.915 265.139H98.201M97.445 264.384v-15.493M98.201 248.135h11.714M110.671 248.891h.108a.108.108 0 10-.216 0 .108.108 0 00.216 0h-.108zM110.671 264.384a.756.756 0 01-.756.755M98.201 265.139a.756.756 0 01-.756-.755M97.445 248.891c0-.417.339-.756.756-.756M109.915 248.135c.417 0 .756.339.756.756M102.277 256.297l.24.101m0 0l.1.24m0 0l-.101.24m0 0l-.24.099m0 0H94.8m0 0l-.241-.099m0 0l-.099-.241m0 0l.099-.24m0 0l.241-.1m0 0h7.477M96.727 255.883v.415m0 0H94.8m0 0l-.241.099m0 0l-.1.24m0 0l.1.241m0 0l.241.1m0 0h1.927m0 0v.414m0 0h-2.456m0 0v-1.509m0 0h2.456M98.088 255.893v.404m0 0h-1.322m0 0v-.404m0 0h1.322M98.088 257.381h-1.322m0 0v-.404m0 0h1.322m0 0v.404M118.795 268.54h22.671M118.795 291.212h22.671M118.795 268.54v22.672M141.466 268.54v22.672M196.728 289.133h-21.916m0 0v-18.515m0 0h21.916m0 0v18.515M185.77 277.853v-5.299M185.77 272.554h-1.096M185.77 277.853h-1.096M176.917 277.853v-5.299M178.012 272.554h-1.095M178.012 277.853h-1.095M194.755 274.987a2.74 2.74 0 11-5.479.001 2.74 2.74 0 015.479-.001zM194.713 283.227a3.968 3.968 0 11-7.935 0 3.968 3.968 0 017.935 0z"/><path class="st2" d="M193.012 283.227a2.268 2.268 0 11-4.536 0 2.268 2.268 0 014.536 0zM183.988 275.173a2.645 2.645 0 11-5.29 0 2.645 2.645 0 015.29 0zM183.627 283.764a3.4 3.4 0 11-6.801 0 3.4 3.4 0 016.801 0zM207.403 291.212h-43.266M207.403 268.54h-43.266M207.403 291.212V268.54M164.137 291.212V268.54M43.599 234.91a7.18 7.18 0 11-14.36 0 7.18 7.18 0 0114.36 0zM159.981 280.821a7.179 7.179 0 11-14.358 0 7.179 7.179 0 1114.358 0zM130.384 277.935a3.41 3.41 0 11-6.822 0 3.41 3.41 0 016.822 0z"/><path class="st2" d="M129.864 277.935a2.89 2.89 0 11-5.78 0 2.89 2.89 0 015.78 0zM135.861 277.103a2.579 2.579 0 11-5.158 0 2.579 2.579 0 115.158 0z"/><path class="st2" d="M134.727 277.103a1.445 1.445 0 11-2.89 0 1.445 1.445 0 012.89 0zM264.655 20.851a3.78 3.78 0 11-7.558-.002 3.78 3.78 0 017.558.002z"/><path class="st2" d="M262.009 20.851a1.134 1.134 0 11-2.268 0 1.134 1.134 0 012.268 0zM175.857 20.851a3.78 3.78 0 11-7.558-.002 3.78 3.78 0 017.558.002z"/><path class="st2" d="M173.212 20.851a1.134 1.134 0 11-2.267.001 1.134 1.134 0 012.267-.001zM250.485 90.756h-68.016m0 0V15.183m0 0h68.016m0 0v75.573M248.595 92.645h-64.236m0 0l-.724-.144m0 0l-.612-.409m0 0l-.41-.614m.001 0l-.144-.722m0 0h68.016m-.001 0l-.145.722m0 0l-.409.614m.001 0l-.613.409m-.001 0l-.723.144M250.485 11.404h-68.016m0 0v3.779m0 0h68.016m0 0v-3.779M182.47 11.404h68.016m-.001 0v1.889m0 0H182.47m0 0v-1.889M180.581 11.404h-17.004m0 0v18.893m0 0h17.004m0 0V11.404M252.375 11.404h17.003m0 0v18.893m0 0h-17.003m0 0V11.404M210.431 17.072h-25.694m0 0l-.268.111m0 0l-.11.267m0 0v12.469m0 0l.11.268m0 0l.268.11m0 0h25.694m0 0l.268-.11m0 0l.11-.268m0 0V17.45m0 0l-.11-.267m0 0l-.268-.111M222.523 17.072h25.694m0 0l.268.111m0 0l.11.267m0 0v12.469m0 0l-.11.268m0 0l-.268.11m0 0h-25.694m0 0l-.268-.11m0 0l-.11-.268m0 0V17.45m0 0l.11-.267m0 0l.268-.111M250.485 29.274h-1.89M222.145 29.274h-11.336M184.359 29.274h-1.89M250.485 34.283h-68.016m0 0v18.686m0 0l68.016-14.907m0 0v-3.779M25.084 162.361v-22.672m0 0h64.615m0 0v22.672m0 0H25.084M89.699 150.647v.756m0 0H25.084m0 0v-.756m0 0h64.615M32.521 160.367v-18.626m0 .001h.756m0 0v18.626m0-.001h-.756M34.526 160.367v-18.626m0 .001h.755m0 0v18.626m0-.001h-.755M36.531 160.367v-18.626m0 .001h.755m0 0v18.626m0-.001h-.755M38.535 160.367v-18.626m0 .001h.756m0 0v18.626m0-.001h-.756M42.781 160.232l-2.241-18.49m0 0l.75-.091m0 0l2.241 18.49m0 0l-.75.091M35.904 228.902l.449 1.233m0 0v1.313m0 0l-.449 1.233m0 0l.343 1.473m0 0v1.513m0 0l-.343 1.473m0 0l.45 1.234m0 0v1.314m0 0l-.45 1.235m0 0l2.987-2.232m0 0v-7.557m0 0l-2.987-2.232M39.153 231.134v7.557m0 0h-.262m0 0v-7.557m0 0h.262M39.677 231.134v7.557m0 0h-.262m-.001 0v-7.557m0 0h.262M34.388 235.754l-.085-.891m0 0l.227-.022m0 0l.045.477m0 0l1.142-1.383m0 0l.152.126m0 0l-.53.642m0 0l.082.067m0 0l.611-.74m0 0l.146.121m0 0l-.611.739m0 0l.097.081m0 0l.497-.601m0 0l.13.107m0 0l-.497.601m0 0l.098.081m0 0l.343-.414m0 0l.139.115m0 0l-1.174 1.422M25.084 223.574v22.672m0 0h22.672m0 0v-22.672m0 0H25.084M92.722 34.076V11.404m0 0h54.602m-.001 0v58.035m0 0h-22.672m.001 0V34.076m0 0h-31.93M136.365 22.362l-.756.756m0 0H92.721m0 0v-.756m0 0h43.644M101.67 13.397v18.626m0 0h.756m0 0V13.397m0 0h-.756M103.675 13.397v18.626m0 0h.756m0 0V13.397m0 0h-.756M105.68 13.397v18.626m0 0h.756m0 0V13.397m0 0h-.756M107.684 13.397v18.626m0 0h.755m0 0V13.397m0 0h-.755M111.929 13.533l-2.24 18.491m0-.001l.75.091m.001 0l2.241-18.491m-.001.001l-.751-.091M136.365 69.439h-.756m0 0V23.118m0 0l.756-.756m0 0v47.077M47.378 274.208H59.47m0 0v17.004m0 0H47.378m0 0v-17.004M158.81 280.304l-1.233.449m0 0h-1.313m0 0l-1.233-.449m0 0l-1.473.342m0 .001h-1.513m0 0l-1.472-.342m0-.001l-1.236.45m0 .001h-1.313m0 0l-1.235-.45m0-.001l2.232 2.988m0 0h7.558m0 0l2.231-2.988M156.579 283.553h-7.558m0 0v-.261m0 0h7.558m0 0v.261M156.579 284.076h-7.558m0 0v-.262m0 .001h7.558m0 0v.262M151.959 278.789l.891-.085m0 0l.021.226m0 0l-.476.045m0 0l1.383 1.143m0 0l-.126.152m0 0l-.642-.53m0 0l-.067.081m0 0l.74.611m0 0l-.121.146m0 0l-.74-.61m0 0l-.081.097m0 0l.602.496m0 0l-.108.13m0 0l-.601-.496m0 0l-.08.098m0 0l.414.342m0 0l-.115.139m0 0l-1.422-1.174M164.137 268.54h-22.672m.001 0v22.672m0 0h22.672m-.001 0V268.54M122.905 275.728h.963m0 0v-1.205m0 0h12.524m0 0v1.205m0 0h.963M124.369 285.732h9.634m0 0v-.479m0 0h-.723m0 0v.238m0 0h-8.188m0 0v-.238m0 0h-.723m0 0v.479M124.369 285.254l.047-.103m.047-.104l.048-.102m.046-.104l.047-.103m.048-.103l.047-.103m.047-.103l.047-.103m.048-.103l.047-.103m.046-.103l.047-.103m.048-.103l.047-.103m.047-.103l.048-.103m.047-.104l.047-.102m.047-.104l.047-.103m.047-.103l.047-.103m.048-.103l.047-.103m.047-.103l.047-.104m.047-.102l.047-.104m.047-.103l.047-.103m.048-.103l.047-.103M134.003 285.254l-.048-.103m-.047-.104l-.047-.102m-.046-.104l-.048-.103m-.047-.103l-.047-.103m-.048-.103l-.047-.103m-.047-.103l-.048-.103m-.046-.103l-.047-.103m-.047-.103l-.048-.103m-.047-.103l-.047-.103m-.047-.104l-.047-.102m-.047-.104l-.047-.103m-.048-.103l-.047-.103m-.047-.103l-.047-.103m-.048-.103l-.046-.104m-.047-.102l-.048-.104m-.047-.103l-.047-.103m-.047-.103l-.048-.103M124.369 285.254h.078m.113 0h.114m.113 0h.113m.114 0h.078m0 0l.041-.051m.072-.089l.071-.088m.072-.087l.071-.088m.071-.088l.071-.089m.072-.087l.072-.088m.071-.088l.072-.089m.071-.088l.071-.088m.072-.088l.072-.088m.071-.088l.071-.087m.072-.088l.071-.089m.072-.088l.071-.088m.072-.088l.071-.088m.071-.088l.072-.088m.071-.087l.072-.088m.071-.089l.072-.088m.071-.088l.072-.088m.071-.088l.072-.088m.071-.088l.071-.087m.072-.089l.071-.088m.072-.088l.071-.088m.072-.088l.071-.088m.071-.088l.072-.088m.071-.087l.042-.052M134.003 285.254h-.078m-.113 0h-.114m-.113 0h-.113m-.115 0h-.077m0 0l-.042-.051m-.071-.089l-.071-.088m-.072-.087l-.071-.088m-.072-.088l-.071-.089m-.072-.087l-.071-.088m-.071-.088l-.072-.089m-.072-.088l-.071-.088m-.071-.088l-.072-.088m-.071-.088l-.072-.087m-.071-.088l-.072-.089m-.071-.088l-.071-.088m-.072-.088l-.071-.088m-.072-.088l-.071-.088m-.072-.087l-.071-.088m-.072-.089l-.072-.088m-.071-.088l-.071-.088m-.071-.088l-.072-.088m-.071-.088l-.072-.087m-.072-.089l-.071-.088m-.071-.088l-.071-.088m-.072-.088l-.071-.088m-.072-.088l-.072-.088m-.071-.087l-.042-.052M115.393 267.029H92.721m0 0v24.183m0 0h26.073m0 0V268.54m0 0h-3.401m0 0v-1.511M221.871 284.956v1.02m0 0h44.369m0 0v-1.02m0 0h-44.369M223.275 285.976l-.709 3.41m0 0l-.68-.141m0 0l.68-3.269m0 0h.709M231.573 285.976v.833m0 0l.151.566m0 0l.415.415m0 0l.568.152m0 0h22.698m0 0l.567-.152m0 0l.415-.415m0 0l.152-.566m0 0v-.833m0 0h-24.966M223.275 284.599l-.709-3.41m0 0l-.68.141m0 0l.68 3.269m0 0h.709M264.837 285.976l.709 3.41m0 0l.681-.141m0 0l-.681-3.269m0 0h-.709M264.837 284.658l.709-3.41m0 0l.681.141m0 .001l-.681 3.269m0-.001h-.709M221.871 284.658v.298m0 0h44.369m0 0v-.298m0 0h-44.369M264.555 19.991l-3.679.86m0-.001l-1.584 3.431m0 0l1.584-3.431m0 0l-1.306-3.546M168.399 19.991l3.68.86m0-.001l1.583 3.431m0 0l-1.583-3.431m0 0l1.305-3.546M186.499 214.481l-4.109-4.109m0-.001l-.426-.407m0 0l-.43-.371m0 0l-.424-.328m0 0l-.403-.276m0 .001l-.017-.009m0-.001l-.375-.216m0 0l-.332-.147m0 0l-.025-.008m0 0l-.281-.075m0 .001l-.028-.004m0-.001l-.22.002m0 0l-.03.002m0 .001l-.029.007m0-.001l-.027.013m0 0l-.154.078m0 0l-.024.018m0 .001l-.012.01m0-.001l-1.133 1.134m0 .001l-1.03-1.029m0-.001l-5.217 5.217m11.114 11.117l5.217-5.218m.001 0l-1.029-1.029m0 0l1.134-1.134m0-.001l.011-.011m0 0l.017-.025m0 0l.078-.154m0 .001l.013-.027m0 0l.008-.029m0-.001l.002-.029m0 0l.001-.221m0 0l-.003-.028m0 .001l-.075-.281m0-.001l-.008-.025m0 0l-.148-.332m0 .001l-.214-.376m0-.001l-.011-.016m0 0l-.276-.404m0 .001l-.328-.423m0-.001l-.371-.429m0 0l-.407-.427M177.351 210.463l9.057 9.057M177.474 210.586l.898-.898M186.284 219.396l.898-.898M182.411 223.516l4.664-4.664M173.354 214.459l4.665-4.663M181.36 211.394l4.117 4.117M178.372 209.689c.354-.354 1.691.409 2.988 1.706M185.476 215.51c1.296 1.296 2.06 2.634 1.705 2.988M149.9 242.862l4.108 4.108m0 0l.427.408m0 0l.43.371m0 0l.423.328m0 0l.404.275m0 0l.016.011m0 0l.376.215m0 0l.332.147m0 0l.024.008m0 0l.281.075m0 0l.029.003m0 0l.22-.001m0 0l.03-.002m0 0l.028-.008m0 0l.027-.012m0 0l.154-.078m0 0l.025-.018m0 0l.011-.011m0 0l1.134-1.133m0 0l1.029 1.029m0 0l5.219-5.218m-11.116-11.114l-5.216 5.217m-.001 0l1.029 1.029m0 0l-1.135 1.134m0 0l-.01.011m0 0l-.017.025m0 0l-.078.153m0 0l-.013.027m0 0l-.008.03m0 0l-.002.029m0 0l-.001.221m0 0l.003.027m0 0l.074.282m0 0l.009.025m0 0l.147.332m0 0l.215.375m0 0l.01.016m0 0l.276.404m0 0l.329.424m0 0l.371.429m0 0l.407.427M159.048 246.88l-9.057-9.057M158.925 246.756l-.898.898M150.114 237.946l-.897.897M153.987 233.827l-4.663 4.664M163.044 242.883l-4.664 4.664M155.039 245.949l-4.117-4.117M158.026 247.654c-.354.354-1.692-.409-2.988-1.705M150.922 241.832c-1.296-1.296-2.06-2.634-1.705-2.988M154.009 210.371l-4.108 4.109m0 .001l-.408.427m0-.001l-.371.429m0 .001l-.329.423m0 0l-.275.404m0-.001l-.01.016m0 .001l-.216.376m0 0l-.146.332m0-.001l-.009.025m0 .001l-.074.281m0 0l-.003.028m0 0l.001.221m0-.001l.002.029m0 .001l.008.029m0 0l.012.027m0 0l.078.154m0-.001l.018.024m0 .001l.01.012m0-.001l1.134 1.133m0 0l-1.029 1.03m0 .001l5.217 5.217m11.115-11.115l-5.218-5.217m0 0l-1.028 1.029m0 0l-1.135-1.134m0-.001l-.01-.01m0 .001l-.026-.018m0 0l-.153-.078m0-.001l-.027-.013m0 .001l-.029-.007m0 0l-.029-.002m0 0l-.221-.002m0 0l-.028.004m0 0l-.281.075m0-.001l-.025.008m0 .001l-.332.147m0-.001l-.376.215m0 .001l-.015.01m0 0l-.405.276m0 0l-.423.328m0 0l-.429.371m0 0l-.427.407M149.991 219.519l9.057-9.057M150.114 219.396l-.897-.898M158.925 210.586l-.898-.898M163.044 214.459l-4.664-4.663M153.987 223.515l-4.663-4.663M150.922 215.51l4.117-4.117M149.217 218.498c-.354-.354.409-1.692 1.705-2.988M155.038 211.393c1.297-1.296 2.635-2.059 2.988-1.705M182.389 246.971l4.109-4.108m0 0l.408-.427m0 0l.371-.43m0 0l.328-.424m0 0l.275-.403m0 0l.011-.017m0 0l.215-.375m.001 0l.147-.332m-.001 0l.008-.024m.001 0l.075-.282m-.001 0l.003-.028m.001 0l-.001-.22m-.001 0l-.002-.03m0 0l-.008-.029m.001 0l-.012-.027m0 0l-.078-.154m-.001 0l-.018-.024m.001 0l-.011-.012m-.001 0l-1.133-1.133m0 0l1.029-1.03m0 0l-5.218-5.218m-11.115 11.115l5.218 5.218m0 0l1.029-1.029m0 0l1.134 1.134m.001 0l.011.011m-.001 0l.025.017m.001 0l.153.078m-.001 0l.027.013m.001 0l.03.008m-.001 0l.029.002m.001 0l.221.001m-.001 0l.027-.003m.001 0l.281-.075m0 0l.026-.008m0 0l.332-.148m0 0l.375-.214m0 0l.016-.011m-.001 0l.404-.276m0 0l.424-.328m0 0l.429-.371m.001 0l.426-.407M186.408 237.823l-9.057 9.057M186.284 237.946l.898.897M177.474 246.756l.898.898M173.354 242.883l4.665 4.664M182.411 233.826l4.664 4.665M185.477 241.832l-4.117 4.117M187.182 238.844c.354.354-.409 1.691-1.705 2.987M181.36 245.948c-1.296 1.296-2.634 2.06-2.988 1.705M183.313 228.671c0 8.348-6.767 15.114-15.114 15.114-8.348 0-15.115-6.766-15.115-15.114 0-8.347 6.767-15.114 15.115-15.114 8.347 0 15.114 6.767 15.114 15.114z"/></g><g id="walls_1_"><path class="st3" d="M301.921 295.8h45.344m0 0V7.113m0 0h-45.344m0 0v40.998m0 0h.756m0 0v64.615m0 0h-.756m0 0v61.213m0 0h.756m0 0v83.13m0 0h-.756m0 0V295.8M296.253 48.489h-15.492M303.811 48.489h-5.668M298.143 48.489h-1.89M303.811 112.726h-23.05V48.489m23.05 64.237V48.489M296.253 113.481v-3.779M296.253 109.702h1.89M298.143 109.702v3.779M298.143 76.829v1.889M298.143 78.718h-1.89M296.253 78.718v-1.889M297.197 109.702V78.718M296.253 109.702V78.718M298.143 78.718v30.984M296.253 76.829v-.945M296.253 75.884h.944M297.197 75.884v-.945M297.197 74.939h.945M298.143 74.939v1.89M298.143 48.489v3.778M298.143 52.267h-.945M297.197 52.267v-.943M297.197 51.323h-.944M296.253 51.323v-2.834M298.143 52.267v22.672M295.309 73.05V54.157M295.309 75.884V73.05M295.309 73.05h1.889M297.197 73.05v2.834M297.197 75.884h-1.889M297.197 51.323v2.834M297.197 54.157h-1.889M295.309 54.157v-2.834M295.309 51.323h1.889M297.197 54.157V73.05M295.309 73.05V54.157M296.253 73.05V54.157M298.143 48.489h-1.89M298.143 48.489h-1.89M303.811 48.489h-5.668M296.253 48.489h-15.492"/><g><path class="st3" d="M296.253 257.069h-15.492M303.811 257.069h-5.668M298.143 257.069h-1.89M296.253 173.939h-15.492M303.811 173.939h-5.668M298.143 173.939h-1.89M303.811 173.939v83.13M280.761 173.939v83.13M296.253 173.939v3.779M296.253 177.718h1.89M298.143 177.718v-3.779M298.143 213.615v-1.889M298.143 211.726h-1.89M296.253 211.726v1.889M297.197 177.718v34.008M296.253 177.718v34.008M298.143 211.726v-34.008M296.253 213.615v.944M296.253 214.559h.944M297.197 214.559v.946M297.197 215.504h.945M298.143 215.504v-1.889M298.143 257.069v-3.778M298.143 253.291h-.945M297.197 253.291v.944M297.197 254.235h-.944M296.253 254.235v2.834M295.309 254.235l-28.056-28.055M298.143 253.291v-37.787M295.309 217.393v34.008M295.309 214.559v2.834M295.309 217.393h1.889M297.197 217.393v-2.834M297.197 214.559h-1.889M297.197 254.235v-2.834M297.197 251.401h-1.889M295.309 251.401v2.834M295.309 254.235h1.889M297.197 251.401v-34.008M295.309 217.393v34.008M296.253 217.393v34.008M267.253 226.18a39.681 39.681 0 0128.056-11.621M298.143 173.939h-1.89M298.143 173.939h-1.89M303.811 173.939h-5.668M296.253 173.939h-15.492M298.143 257.069h-1.89M298.143 257.069h-1.89M303.811 257.069h-5.668M296.253 257.069h-15.492"/></g><g><path class="st3" d="M.5 204.633c6.023 2.247 9.147 2.874 15.567 3.201"/><path class="st4" d="M.409 204.593l1.388.6 15.782-36.355v-.453h-1.512z"/></g><g><path class="st5" d="M78.692 75.846c4.296-1.601 6.481-2.032 11.059-2.267"/><path class="st4" d="M78.593 75.889l11.158 25.804h1.511v-.454L79.98 75.289z"/><g><path class="st5" d="M129.16 121.893c1.817 4.868 2.312 7.371 2.577 12.56"/><path class="st4" d="M129.117 121.794l-29.271 12.659v1.511h.454l29.418-12.783z"/></g></g><g><path class="st5" d="M60.613 211.005c-1.367 3.863-1.688 5.513-1.968 9.602"/><path class="st4" d="M60.652 210.909l-.571 1.401 22.539 9.807h.453l.001-1.512z"/></g><path class="st0" d="M92.774 134.453h7.072v1.511h.454v3.779h-7.526v22.294h-3.022v-22.294H25.138v-5.29h64.614v-32.76h1.511v-.454h1.511v33.214zM25.137.5v10.958H36.85v19.838H25.137v3.023h14.735V21.566H89.75l.001 52.014h1.511v.453h1.511l-.001-62.575h54.602v58.035h3.022V11.458h40.58V.5H25.137zm90.309 220.105v3.023H92.774v67.638h98.15v9.068H25.137v-9.068h19.271v-13.981H25.137v-3.023h1.511v-24.939h-1.511V246.3h4.534v27.962H47.43l.001 17.004h42.321v-67.638H82.62v-1.511h.453v-1.512h32.373zM89.75 11.458v7.085H39.872v-7.085H89.75zm-32.162 212.17H59.1v-1.511h-.454v-1.512H25.137v3.023h32.451zm223.173-89.175v5.29H131.285v-3.779h.453v-1.511h149.023z"/><path d="M303.811.5v47.989h-23.05V11.458h-89.783V.5h112.833zM25.137 11.458v157.38h-7.558v-.453h-1.511L16.067.5h9.069v10.958h.001zm-9.069 288.876v-92.5h1.511v-.454h7.558v92.954h-9.069 0zm174.855-9.068h89.837v-34.197h23.05v43.265H190.923v-9.068h0zm89.838-178.541h23.05v61.214h-23.05v-61.214z" fill-rule="evenodd" clip-rule="evenodd" stroke="#000" stroke-miterlimit="3"/><g><path class="st7" d="M27.043.726l-1.92 1.69M34.463.726l-9.34 8.23M41.893.726l-12.45 10.96M49.303.726l-12.47 10.99M56.733.726l-12.45 10.96M39.853 15.596l-3.02 2.66M29.193 31.526l-3.43 3.02M43.663 18.776l-3.43 3.02M64.153.726l-12.44 10.96M39.853 22.136l-3.02 2.66M39.853 28.676l-3.02 2.66M36.613 31.526l-3.43 3.02M71.573.726l-12.44 10.96M51.083 18.776l-3.42 3.02M79.003.726l-12.44 10.96M58.513 18.776l-3.43 3.02M86.423.726l-12.44 10.96M65.933 18.776l-3.43 3.02M93.843.726l-12.44 10.96M73.353 18.776l-3.43 3.02M101.263.726l-12.44 10.96M80.773 18.776l-3.43 3.02M92.753 14.766l-3.02 2.66M108.683.726l-12.44 10.96M88.193 18.776l-3.42 3.02M116.113.726l-12.44 10.96M92.753 21.306l-3.02 2.66M123.533.726l-12.44 10.96M92.753 27.846l-3.02 2.66M92.753 34.376l-3.02 2.66M130.953.726l-12.44 10.96M92.753 40.916l-3.02 2.66M138.383.726l-12.44 10.96M92.753 47.456l-3.02 2.66M145.793.726l-12.44 10.96M92.753 53.996l-3.02 2.66M153.223.726l-12.44 10.96M92.753 60.536l-3.02 2.66M160.643.726l-13.28 11.7M92.753 67.076l-3.02 2.66M168.063.726l-12.44 10.96M150.383 16.306l-3.02 2.66M92.753 73.606l-.75.66M175.493.726l-12.45 10.96M150.383 22.846l-3.02 2.66M30.843 134.686l-5.72 5.04M182.913.726l-12.44 10.96M150.383 29.386l-3.02 2.66M38.263 134.686l-6.01 5.29M190.333.726l-12.45 10.96M150.383 35.916l-3.02 2.66M190.963 6.706l-5.65 4.98M45.683 134.686l-6 5.29M150.383 42.456l-3.02 2.66M53.113 134.686l-6.01 5.29M90.293 101.926l-.56.5M150.383 48.996l-3.02 2.66M150.383 55.536l-3.02 2.66M60.533 134.686l-6.01 5.29M92.753 106.306l-3.02 2.66M150.383 62.076l-3.02 2.66M67.953 134.686l-6 5.29M92.753 112.846l-3.02 2.66M150.383 68.616l-1.26 1.11M75.373 134.686l-6 5.29M92.753 119.376l-3.02 2.66M82.803 134.686l-6.01 5.29M92.753 125.916l-3.02 2.66M92.753 132.456l-8.54 7.52M97.643 134.686l-7.91 6.97M92.753 145.536l-3.02 2.66M100.283 138.896l-1.22 1.08M92.753 152.076l-3.02 2.66M92.753 158.606l-3.02 2.66M29.533 220.836l-3.42 3.02M134.753 134.686l-3.48 3.06M36.953 220.836l-3.43 3.02M142.173 134.686l-6 5.29M44.383 220.836l-3.43 3.02M149.603 134.686l-6.01 5.29M51.803 220.836l-3.43 3.02M58.633 221.356l-2.83 2.5M157.023 134.686l-6.01 5.29M29.653 246.886l-3.02 2.67M29.653 253.426l-3.02 2.66M164.443 134.686l-6 5.29M29.653 259.966l-3.02 2.66M171.863 134.686l-6 5.29M29.653 266.506l-3.02 2.66M179.293 134.686l-6.01 5.29M29.653 273.036l-4.53 3.99M186.703 134.686l-6 5.29M88.913 220.836l-3.43 3.02M35.423 274.496l-3.43 3.02M194.133 134.686l-6.01 5.29M92.753 223.996l-3.02 2.66M96.333 220.836l-3.43 3.02M42.843 274.496l-3.42 3.02M201.553 134.686l-6 5.29M92.753 230.536l-3.02 2.66M103.763 220.836l-3.43 3.02M47.413 277.016l-3.02 2.66M208.983 134.686l-6.01 5.29M92.753 237.076l-3.02 2.66M111.183 220.836l-3.43 3.02M30.973 291.496l-5.85 5.15M38.393 291.496l-10.3 9.07M92.753 243.606l-3.02 2.66M115.433 223.626l-.26.23M216.403 134.686l-6.01 5.29M47.413 283.546l-3.02 2.66M47.413 290.086l-11.89 10.48M223.823 134.686l-6 5.29M92.753 250.146l-3.02 2.66M53.233 291.496l-10.3 9.07M231.243 134.686l-6.01 5.29M92.753 256.686l-3.02 2.66M92.753 263.226l-3.02 2.66M238.663 134.686l-6 5.29M60.653 291.496l-10.29 9.07M92.753 269.766l-3.02 2.66M246.093 134.686l-6.01 5.29M68.083 291.496l-10.3 9.07M92.753 276.306l-3.02 2.66M253.513 134.686l-6.01 5.29M75.503 291.496l-10.29 9.07M92.753 282.836l-3.02 2.66M260.933 134.686l-6 5.29M82.923 291.496l-10.29 9.07M268.363 134.686l-6.01 5.29M92.753 289.376l-12.7 11.19M275.773 134.686l-6 5.29M97.763 291.496l-10.29 9.07M280.743 136.846l-3.55 3.13M105.193 291.496l-10.3 9.07M112.613 291.496l-10.29 9.07M120.043 291.496l-10.3 9.07M127.463 291.496l-10.3 9.07M134.883 291.496l-10.3 9.07M142.303 291.496l-10.29 9.07M149.723 291.496l-10.3 9.07M157.143 291.496l-10.29 9.07M164.573 291.496l-10.3 9.07M171.993 291.496l-10.29 9.07M179.413 291.496l-10.29 9.07M186.843 291.496l-10.3 9.07M190.903 294.446l-6.94 6.12"/></g><path d="M92.774 134.453h7.072v1.511h.454v3.779h-7.526v22.294h-3.022v-22.294H25.138v-5.29h64.614v-32.76h1.511v-.454h1.511v33.214h0zM25.137.5v10.958H36.85v19.838H25.137v3.023h14.735V21.566H89.75l.001 52.014h1.511v.453h1.511l-.001-62.575h54.602v58.035h3.022V11.458h40.58V.5H25.137h0zm90.309 220.105v3.023H92.774v67.638h98.15v9.068H25.137v-9.068h19.271v-13.981H25.137v-3.023h1.511v-24.939h-1.511V246.3h4.534v27.962H47.43l.001 17.004h42.321v-67.638H82.62v-1.511h.453v-1.512h32.373zM89.75 11.458H39.872v7.085H89.75v-7.085h0zm-32.162 212.17H25.137v-3.023h33.509v1.512h.454v1.511h-1.512 0zm223.173-89.175v5.29H131.285v-3.779h.453v-1.511h149.023z" fill-rule="evenodd" clip-rule="evenodd" fill="none" stroke="#000" stroke-miterlimit="22.926"/></g><g id="sizes"><path d="M257.071 130.288h-1.594v-9.625l-1.617.992v-1.648l1.617-1.078h1.594v11.359zM262.391 130.288h-1.594v-9.625l-1.617.992v-1.648l1.617-1.078h1.594v11.359zM264.813 128.694h1.594v1.594l-1.594 1.578v-3.172zM268.423 128.905l3.961-5.281c.229-.302.407-.616.535-.941.128-.325.191-.629.191-.91v-.016c0-.453-.133-.805-.398-1.055s-.644-.375-1.133-.375c-.464 0-.839.137-1.125.41s-.461.66-.523 1.16v.008h-1.648v-.008c.094-.651.285-1.207.574-1.668s.663-.813 1.121-1.055.987-.363 1.586-.363c.677 0 1.255.116 1.734.348.479.232.844.569 1.094 1.012.25.443.375.977.375 1.602v.008c0 .401-.083.82-.25 1.258s-.398.859-.695 1.266l-3.289 4.469h4.297v1.516h-6.406v-1.385zM154.251 171.983l3.961-5.281c.229-.302.407-.616.535-.941s.191-.629.191-.91v-.016c0-.453-.133-.805-.398-1.055s-.644-.375-1.133-.375c-.464 0-.839.137-1.125.41s-.461.66-.523 1.16v.008h-1.648v-.008c.094-.651.285-1.207.574-1.668s.663-.813 1.121-1.055.987-.363 1.586-.363c.677 0 1.255.116 1.734.348s.844.569 1.094 1.012.375.977.375 1.602v.008c0 .401-.083.82-.25 1.258s-.398.859-.695 1.266l-3.289 4.469h4.297v1.516h-6.406v-1.385zM163.513 172.631c-.55-.567-.824-1.359-.824-2.375v-5.164c0-1.021.276-1.813.828-2.379s1.356-.848 2.414-.848c1.063 0 1.868.281 2.418.844s.824 1.356.824 2.383v5.164c0 1.021-.276 1.813-.828 2.379s-1.356.848-2.414.848c-1.063 0-1.868-.285-2.418-.852zm3.664-1.105c.269-.294.402-.718.402-1.27v-5.164c0-.552-.133-.976-.398-1.27s-.683-.441-1.25-.441-.984.147-1.25.441-.398.718-.398 1.27v5.164c0 .552.134.976.402 1.27s.684.441 1.246.441.977-.147 1.246-.441zM171.361 171.772h1.594v1.594l-1.594 1.578v-3.172zM175.966 172.631c-.55-.567-.824-1.359-.824-2.375v-5.164c0-1.021.276-1.813.828-2.379s1.356-.848 2.414-.848c1.063 0 1.868.281 2.418.844s.824 1.356.824 2.383v5.164c0 1.021-.276 1.813-.828 2.379s-1.356.848-2.414.848c-1.062 0-1.868-.285-2.418-.852zm3.664-1.105c.269-.294.402-.718.402-1.27v-5.164c0-.552-.133-.976-.398-1.27s-.683-.441-1.25-.441-.984.147-1.25.441-.398.718-.398 1.27v5.164c0 .552.134.976.402 1.27s.684.441 1.246.441.978-.147 1.246-.441z"/><g><path d="M52.75 240.752l3.961-5.281c.229-.302.407-.615.535-.941.128-.325.191-.629.191-.91v-.016c0-.453-.133-.805-.398-1.055s-.644-.375-1.133-.375c-.464 0-.839.137-1.125.41s-.461.66-.523 1.16v.008H52.61v-.008c.094-.65.285-1.207.574-1.668s.663-.813 1.121-1.055.987-.363 1.586-.363c.677 0 1.255.116 1.734.348.479.232.844.569 1.094 1.012.25.443.375.977.375 1.602v.008c0 .401-.083.82-.25 1.258s-.398.859-.695 1.266l-3.289 4.469h4.297v1.516H52.75v-1.385zM61.031 240.541h1.594v1.594l-1.594 1.578v-3.172zM66.328 241.862c-.521-.26-.923-.629-1.207-1.105s-.426-1.029-.426-1.66v-.188c0-.567.142-1.102.426-1.602s.663-.877 1.137-1.133c-.401-.219-.723-.535-.965-.949s-.363-.85-.363-1.309v-.273c0-.594.133-1.115.398-1.566.266-.45.641-.799 1.125-1.047.484-.247 1.047-.371 1.688-.371s1.203.124 1.688.371c.484.248.859.597 1.125 1.047.266.451.398.973.398 1.566v.273c0 .469-.124.909-.371 1.32a2.465 2.465 0 01-.98.938c.479.261.863.64 1.152 1.137a3.13 3.13 0 01.434 1.598v.188c0 .631-.142 1.184-.426 1.66s-.687.846-1.207 1.105c-.521.261-1.125.391-1.813.391s-1.293-.131-1.813-.391zm2.789-1.36c.281-.146.499-.35.652-.613.153-.263.23-.566.23-.91v-.109c0-.349-.077-.654-.23-.918a1.576 1.576 0 00-.652-.613c-.281-.146-.606-.219-.977-.219s-.695.073-.977.219c-.281.146-.499.352-.652.617s-.23.573-.23.922v.117c0 .344.077.646.23.906.153.261.371.463.652.605.281.144.606.215.977.215s.696-.072.977-.219zm-.133-5.121c.245-.138.435-.334.57-.59.136-.255.203-.549.203-.883v-.109c0-.317-.067-.599-.203-.844-.136-.244-.325-.434-.57-.566s-.526-.199-.844-.199-.599.066-.844.199-.435.322-.57.566a1.726 1.726 0 00-.203.852v.117c0 .328.067.619.203.871.136.253.325.448.57.586.245.139.526.207.844.207s.599-.068.844-.207z"/></g><g><path d="M31.232 215.051l-.727-.348a2.857 2.857 0 01-1.168-1.008c-.294-.439-.48-.97-.559-1.59h1.625c.047.323.148.589.305.797.156.209.358.363.605.465s.538.152.871.152c.526 0 .935-.141 1.227-.422s.438-.677.438-1.188v-.344c0-.567-.138-1.006-.414-1.316-.276-.31-.667-.465-1.172-.465h-.805v-1.516h.805c.442 0 .786-.133 1.031-.398s.367-.641.367-1.125v-.352c0-.447-.129-.794-.387-1.039-.258-.244-.624-.367-1.098-.367-.271 0-.513.051-.727.152s-.395.258-.543.469-.257.476-.324.793h-1.617c.104-.619.301-1.15.59-1.594a2.893 2.893 0 011.098-1.008c.442-.229.95-.344 1.523-.344.979 0 1.737.258 2.273.773s.805 1.242.805 2.18v.188c0 .568-.153 1.063-.461 1.484s-.742.729-1.305.922c.62.136 1.101.44 1.441.914.341.475.512 1.078.512 1.813v.188c0 .662-.128 1.227-.383 1.695s-.626.826-1.113 1.07c-.487.245-1.074.367-1.762.367l-.951.002zM37.553 213.34h1.594v1.594l-1.594 1.578v-3.172zM47.201 204.996l-2.938 9.938h-1.695l2.938-9.844h-2.891v1.633h-1.594v-3.148h6.18v1.421z"/></g><g><path d="M125.657 83.079l3.813-8.227h1.641l-3.719 8.133h5.57v1.477h-7.305v-1.383zm4.898-3.555h1.555v6.688h-1.555v-6.688zM134.759 84.61h1.594v1.594l-1.594 1.578V84.61zM144.407 76.266l-2.938 9.938h-1.695l2.938-9.844h-2.891v1.633h-1.594v-3.148h6.18v1.421z"/></g><g><path d="M319.599 91.444l-2.938 9.938h-1.695l2.938-9.844h-2.891v1.633h-1.594v-3.148h6.18v1.421zM321.63 99.787h1.594v1.594l-1.594 1.578v-3.172zM326.927 101.108c-.521-.26-.923-.629-1.207-1.105s-.426-1.03-.426-1.66v-.188c0-.567.142-1.102.426-1.602s.663-.877 1.137-1.133c-.401-.219-.723-.535-.965-.949s-.363-.85-.363-1.309v-.273c0-.594.133-1.116.398-1.566.266-.45.641-.799 1.125-1.047.484-.247 1.047-.371 1.688-.371s1.203.124 1.688.371c.484.248.859.597 1.125 1.047.266.451.398.973.398 1.566v.273c0 .469-.124.909-.371 1.32a2.472 2.472 0 01-.98.938c.479.261.863.64 1.152 1.137a3.13 3.13 0 01.434 1.598v.188c0 .63-.142 1.184-.426 1.66s-.687.845-1.207 1.105c-.521.261-1.125.391-1.813.391s-1.292-.131-1.813-.391zm2.789-1.36c.281-.146.499-.35.652-.613.153-.263.23-.566.23-.91v-.109c0-.349-.077-.655-.23-.918a1.576 1.576 0 00-.652-.613c-.281-.146-.606-.219-.977-.219s-.695.073-.977.219c-.281.146-.499.352-.652.617s-.23.573-.23.922v.117c0 .344.077.646.23.906.153.261.371.462.652.605.281.144.606.215.977.215s.696-.073.977-.219zm-.133-5.121c.245-.138.435-.334.57-.59.136-.255.203-.549.203-.883v-.109c0-.317-.067-.599-.203-.844s-.325-.434-.57-.566-.526-.199-.844-.199-.599.066-.844.199-.435.322-.57.566a1.726 1.726 0 00-.203.852v.117c0 .328.067.619.203.871.136.253.325.448.57.586.245.138.526.207.844.207s.599-.069.844-.207z"/></g></g></svg>