<svg version="1.1" id="_x39_5_1_" xmlns="http://www.w3.org/2000/svg" x="0" y="0" viewBox="0 0 347.755 306.691" xml:space="preserve"><style>.st0{fill-rule:evenodd;clip-rule:evenodd;fill:#fff}.st1{stroke-width:.4}.st1,.st2{fill-rule:evenodd;clip-rule:evenodd;fill:none;stroke:#999;stroke-linecap:round;stroke-linejoin:round;stroke-miterlimit:3}.st3,.st5{fill:none;stroke:#000;stroke-linecap:round;stroke-linejoin:round;stroke-miterlimit:3}.st5,.st6,.st7{fill-rule:evenodd;clip-rule:evenodd}.st7{fill:none;stroke:#666;stroke-width:.6;stroke-miterlimit:22.9256}</style><path class="st0" d="M304.167 300.519h43.143V5.582h-43.393V.392H15.667v305.907h288.5z"/><g id="mebel"><path class="st1" d="M40.673 111.45h17.675m13.016 0h18.431m-49.122-11.336h49.122M40.673 88.778h49.122M40.673 77.442h49.122M40.673 66.106h49.122M40.673 54.77h49.122M40.673 43.434h49.122m-9.636 79.21v-85.87m-22.672 85.87v-85.87M87.38 295.233l.028-.028m.469-.47l1.539-1.539m-1.51-5.436l1.51-1.51m-1.51-5.438l1.51-1.51m-6.63-.317l6.63-6.63m-13.577 6.63l13.577-13.577M52.657 295.22l.004-.004m16.231-16.231l20.524-20.524m-43.704 36.757l.002-.002M61.945 278.985l27.471-27.471m-34.418 27.471l34.418-34.418m-41.365 34.418l41.365-41.365m-48.312 41.365l48.312-48.312m-50.156 43.21l50.156-50.157m-57.103 50.157l11.643-11.644m6.87-6.869l38.59-38.591m-59.7 52.754l7.652-7.652m10.99-10.991l36.707-36.708m-55.349 48.404l1.369-1.369m12.063-12.063l34.971-34.972m-42.566 35.621l11.438-11.439m.861-.861l23.32-23.321m-41.456 34.51l10.328-10.328m7.808-7.808l16.374-16.374m-34.51 27.564l3.381-3.382m14.755-14.755l9.426-9.426m-9.426 2.478l2.479-2.479m-8.457 1.511l1.511-1.511m-8.458 1.511l1.511-1.511m-8.458 1.511l1.511-1.511m59.925 2.392l-2.39-2.392m2.39 9.338l-9.338-9.338m9.338 16.286l-16.285-16.285m16.285 23.233l-23.231-23.233m23.231 30.179l-30.179-30.179m30.179 37.125L52.29 214.182m37.126 44.074L47.852 216.69m-.997-.997l-1.511-1.511m44.072 51.02l-41.564-41.565m-7.944-7.944l-1.511-1.511m51.019 57.968l-41.564-41.564M32.96 215.693l-1.511-1.511m57.967 64.914l-41.564-41.564m-21.839-21.839l-.831-.831m64.234 71.182l-1.51-1.51m-5.549-5.549l-40.621-40.621m47.68 54.627l-1.51-1.51m-12.495-12.496l-24.732-24.732m-4.486-4.485l-11.404-11.404m33.675 40.621L49.279 259.8m-10.353-10.353l-9.21-9.21m31.802 38.748l-16.834-16.834M32.643 250.11l-2.927-2.926M54.57 278.985l-17.093-17.093M47.624 278.985l-17.908-17.908m27.197 34.145l-.006-.006m-16.231-16.231l-.759-.759m-4.343-4.343l-5.858-5.858m20.247 27.194l-.003-.003m-6.946.001"/><path class="st2" d="M58.244 295.233H87.34m0 0l.4-.166m0 0l.166-.4m0 0v-15.116m0 0l-.166-.4m0 0l-.4-.166m0 0H58.244m0 0l-.4.166m0 0l-.166.4m0 0v15.116m0 0l.166.4m0 0l.4.166M59.377 291.077h12.961m.906 0h12.961M86.772 290.51v-9.825M86.205 280.119H59.377M58.811 280.685v9.825M86.772 290.51a.566.566 0 01-.566.566M86.205 280.119c.313 0 .566.254.566.566M58.811 280.685c0-.312.253-.566.566-.566M59.377 291.077a.566.566 0 01-.566-.566M73.547 287.779a.754.754 0 01-.303.605v-1.21a.755.755 0 01.303.605zm-1.209.605a.754.754 0 010-1.209v1.209zM73.245 294.704h-.906m0 0v-7.748m0 0l.256-.301m0 0h.394m0 0l.256.301m0 0v7.748M72.036 294.704h1.512m0 0v.265m0 0h-1.512m0 0v-.265M71.658 294.968h2.268m0 0v.265m0 0h-2.268m0 0v-.265M69.523 293.343v1.625m0 0h.095m0 0v.133m0 0h.283m0 0v.132m0 0h-1.89m0 0v-.132m0 0h.284m0 0v-.133m0 0h.094m0 0v-1.625m0 0h.322m0 0v-.415m0 0h-1.078m0 0v-.491m0 0h2.646m0 0v.491m0 0h-1.077m0 0v.415m0 0h.321M76.06 293.343v1.625m0 0h-.095m0 0v.133m0 0h-.283m0 0v.132m0 0h1.89m0 0v-.132m0 0h-.284m0 0v-.133m0 0h-.094m0 0v-1.625m0 0h-.322m0 0v-.415m0 0h1.078m0 0v-.491m0 0h-2.646m0 0v.491m0 0h1.077m0 0v.415m0 0h-.321M68.711 292.928l.072-.072M69.202 292.928l-.072-.072M68.711 293.343h.491M68.389 294.968h1.134M69.618 295.101h-1.322M76.873 292.928l-.072-.072M76.381 292.928l.072-.072M76.873 293.343h-.491M77.194 294.968H76.06M75.965 295.101h1.322M69.202 292.682a.245.245 0 11-.49.002.245.245 0 01.49-.002zM76.873 292.682a.246.246 0 11-.492 0 .246.246 0 01.492 0zM58.455 107.652l.469-1.645m0 0l.718-1.552m0 0l.967-1.229m0 0l1.249-.943m0 0l1.448-.594m0 0l1.55-.205m0 0l1.552.205m0 0l1.447.594m0 0l1.249.943m0 0l.967 1.229m0 0l.719 1.552m0 0l.469 1.645m0 0l.207 1.698m0 0l-.059 1.709m0 0l-1.223 11.585m0 0H59.53m0 0l-1.223-11.585m0 0l-.06-1.709m0 0l.208-1.698M68.973 116.923h-4.117M64.856 116.923H60.74M64.856 101.77a5.743 5.743 0 013.064.886M67.921 102.656c2.217 1.723 3.413 4.238 3.248 6.83M71.168 109.486c.07 2.609-.69 5.184-2.195 7.437M60.74 116.923c-1.505-2.253-2.266-4.828-2.195-7.437M58.544 109.486c-.165-2.592 1.031-5.107 3.248-6.83M61.793 102.656a5.747 5.747 0 013.063-.886M69.505 122.644h-9.296m-.001 0v-.188m0 0h9.296m.001 0v.188M55.41 122.644h18.894M55.41 127.178h18.894M55.41 122.644v4.534M74.303 122.644v4.534M25.18 9.569h64.615m0 0v27.206m0 0H25.18m0 0V9.569M32.719 34.598l-.936-.083m0 0l-.906-.245m0 0l-.85-.401m0 0l-.769-.544m0 0l-.664-.67m0 0l-.538-.778m0 0l-.397-.859m0 0l-.243-.916m0 0l-.082-.945m0 0V17.186m0 0l.082-.944m0 0l.243-.916m0 0l.397-.86m0 0l.538-.777m0 0l.664-.671m0 0l.769-.544m0 0l.85-.401m0 0l.906-.246m0 0l.936-.082m0 0h43.615m0 0l1.963.174m0 0l1.904.515m0 0l1.787.842m0 0l1.614 1.142m0 0l1.393 1.409m0 0l1.131 1.631m0 0l.833 1.806m0 0l.51 1.923m0 0l.172 1.985m0 0l-.172 1.984m0 0l-.51 1.924m0 0l-.833 1.805m0 0l-1.131 1.631m0 0l-1.393 1.409m0 0l-1.614 1.142m0 0l-1.787.842m0 0l-1.904.516m0 0l-1.963.173m0 0H32.719M35.194 23.172a.944.944 0 11-1.889 0 .944.944 0 011.889 0zM44.706 262.148l1.645-.469m0 .001l1.552-.718m.001 0l1.23-.968m0 0l.943-1.248m-.001-.001l.594-1.448m.001.001l.205-1.551m0-.001l-.205-1.551m0 .001l-.594-1.448m-.001-.001l-.943-1.248m.001.001l-1.23-.968m0-.001l-1.552-.718m-.001 0l-1.645-.469m0 0l-1.697-.207m.001 0l-1.71.059m0 0l-11.584 1.223m-.001.001v10.654m0 0l11.584 1.223m.001-.001l1.71.059m0 0l1.697-.207M35.436 251.63v4.117M35.436 255.747v4.116M49.704 252.683c.57.889.881 1.961.887 3.063M42.874 249.434c2.592-.165 5.107 1.031 6.83 3.249M35.436 251.63c2.253-1.505 4.828-2.266 7.437-2.195M42.874 262.058c-2.609.07-5.185-.69-7.437-2.195M49.704 258.81c-1.723 2.217-4.238 3.413-6.83 3.248M50.59 255.747a5.743 5.743 0 01-.887 3.063M29.715 251.099v9.295m0 0h.188m0 0v-9.295m0 0h-.188M29.715 265.193V246.3M25.18 265.193V246.3M29.715 265.193H25.18M29.715 246.3H25.18M197.675 150.143h83.13m0 0v-15.114m0 0h-83.13m0 0v15.114M197.675 149.388h83.13M239.24 150.143v-.755M197.675 150.143v-.755M57.677 278.985h-17.76m0 0v16.231m0 0h17.76m0 0v-16.231M47.852 238.365H25.18m0 0v-22.672m0 0h22.672m0 0v22.672M263.65 220.605v-1.889m0 0h-56.377m0 0v1.889m0 0h56.377M263.65 182.819h-28.188m0 0v26.45m0 0h28.188m0 0v-26.45M235.462 182.819h-28.188m-.001 0v26.45m0 0h28.188m.001 0v-26.45M207.273 182.819h-9.598m0 0v37.786m0 0h9.598m0 0v-1.89m0-9.446v-26.45M273.248 182.819h-9.598m0 0v26.45m0 9.446v1.89m0 0h9.598m0 0v-37.786M235.462 218.716v-9.447m0 0h-32.987m-.001 0v9.447m0 0h32.987M235.462 218.716v-9.447m0 0h32.987m-.001 0v9.447m0 0h-32.987M40.673 107.435v-70.66M25.18 107.435v-70.66M40.673 36.775H25.18M40.673 107.435H25.18M39.162 98.461V81.08M39.162 81.08H28.204M28.204 81.08v8.236m0 .907v8.238M28.204 98.461h10.958M39.162 63.13V45.749M39.162 45.749H28.204M28.204 45.749v8.237m0 .907v8.237M28.204 63.13h10.958M31.697 90.223a1.135 1.135 0 01-2.08 0h2.08zm-2.078-.907a1.135 1.135 0 012.078 0h-2.078zM31.697 54.893a1.135 1.135 0 01-2.079 0h2.079zm-2.079-.907a1.133 1.133 0 012.078 0h-2.078zM25.71 89.316v.907m0 0h7.748m-.001 0l.301-.256m.001.001v-.395m0-.001l-.301-.256m-.001 0H25.71M25.71 90.526v-1.512m0 0h-.264m0 0v1.512m0 0h.264M25.446 90.904v-2.268m0 0h-.266m0 0v2.268m0 0h.266M27.07 93.039h-1.624m0 0v-.095m0 0h-.133m0 0v-.284m0 0h-.133m0 0v1.89m0 .001h.133m0 0v-.284m0 0h.133m0 0v-.094m0-.001h1.624m0 0v-.322m0 0h.416m0 0v1.078m0 0h.491m0 0v-2.646m0 .001h-.491m0 0v1.077m0-.001h-.416m0 0v-.321M27.07 86.502h-1.624m0 0v.095m0 0h-.133m0 0v.283m0-.001h-.133m0 0v-1.89m0 .001h.133m0 0v.284m0-.001h.133m0 0v.094m0 0h1.624m0 0v.322m0 0h.416m0 0v-1.077m0 .001h.491m0 0v2.645m0 0h-.491m0 0V86.18m0 0h-.416m0 0v.321M25.71 53.986v.907m0 0h7.748m-.001 0l.301-.256m.001 0v-.395m0 0l-.301-.256m-.001 0H25.71M25.71 55.196v-1.512m0 0h-.264m0 0v1.512m0 0h.264M25.446 55.574v-2.268m0 0h-.266m0 0v2.268m0 0h.266M27.07 57.709h-1.624m0 0v-.095m0-.001h-.133m0 0v-.283m0 .001h-.133m0 0v1.89m0 0h.133m0 0v-.284m0 0h.133m0 0v-.095m0 0h1.624m0 0v-.321m0 0h.416m0 0v1.077m0 0h.491m0 0v-2.645m0 0h-.491m0 0v1.077m0 0h-.416m0 0v-.321M27.07 51.171h-1.624m0 0v.095m0 0h-.133m0 0v.283m0 .001h-.133m0 0v-1.89m0-.001h.133m0 0v.284m0 0h.133m0 0v.094m0 .001h1.624m0 0v.322m0 0h.416m0 0v-1.078m0 0h.491m0 0v2.646m0-.001h-.491m0 0V50.85m0 .001h-.416m0 0v.321M27.486 93.851l.072-.072M27.486 93.36l.072.072M27.07 93.851v-.491M25.446 94.172v-1.134M25.313 92.944v1.323M27.486 85.689l.072.072M27.486 86.18l.072-.072M27.07 85.689v.491M25.446 85.368v1.134M25.313 86.596v-1.323M27.486 58.521l.072-.072M27.486 58.03l.072.072M27.07 58.521v-.491M25.446 58.842v-1.133M25.313 57.614v1.323M27.486 50.359l.072.072M27.486 50.85l.072-.072M27.07 50.359v.491M25.446 50.038v1.134M25.313 51.266v-1.323M27.977 93.606a.246.246 0 11-.492 0 .246.246 0 01.492 0zM27.977 85.935a.246.246 0 11-.491-.001.246.246 0 01.491.001zM27.977 58.275a.246.246 0 11-.492 0 .246.246 0 01.492 0zM27.977 50.604a.246.246 0 11-.492 0 .246.246 0 01.492 0zM169.147 233.83v-22.671m0 0h-22.672m0 0v22.671m0 0h22.672M154.032 222.495h7.558M155.139 225.167l5.344-5.344M157.811 226.273v-7.557M160.483 225.167l-5.344-5.344M166.313 235.531v19.271m0 0l-.222.534m0 0l-.534.222m0 0h-17.382m0 0l-.534-.222m0 0l-.222-.534m0 0v-19.271m0 0l.222-.534m0 0l.534-.222m0 0h17.382m0 0l.534.222m0 0l.222.534M169.147 233.83v22.672M146.475 233.83v22.672M169.147 233.83h-22.672M169.147 256.502h-22.672M164.423 237.42v15.493M163.667 253.669h-11.713M151.198 252.913V237.42M151.954 236.664h11.714M164.423 237.42h.108a.108.108 0 10-.216 0 .108.108 0 00.216 0h-.108zM164.423 252.913a.757.757 0 01-.756.756M151.954 253.669a.757.757 0 01-.756-.756M151.198 237.42c0-.417.339-.756.756-.756M163.667 236.664c.417 0 .756.338.756.756M156.031 244.826l.24.1m0 0l.099.241m0 0l-.101.24m0 0l-.24.099m0 0h-7.476m0 0l-.24-.099m0 0l-.099-.241m0 0l.099-.241m0 0l.24-.099m0 0h7.478M150.48 244.412v.415m0 0h-1.927m0 0l-.24.099m0 0l-.1.24m0 0l.1.241m0 0l.24.1m0 0h1.927m0 0v.414m0 0h-2.456m0 0v-1.509m0 0h2.456M151.84 244.422v.404m0 0h-1.322m0 0v-.404m0 0h1.322M151.84 245.91h-1.322m0 0v-.404m0 0h1.322m0 0v.404M171.036 272.561h22.672M171.036 295.233h22.672M171.036 272.561v22.672M193.708 272.561v22.672M216.002 293.155h-21.916m0 0V274.64m0 0h21.916m0 0v18.515M205.043 281.874v-5.298M205.043 276.576h-1.095M205.043 281.874h-1.095M196.19 281.874v-5.298M197.286 276.576h-1.096M197.286 281.874h-1.096M214.029 279.009a2.74 2.74 0 11-5.479 0 2.74 2.74 0 015.479 0zM213.986 287.249a3.967 3.967 0 11-7.934 0 3.967 3.967 0 017.934 0z"/><path class="st2" d="M212.286 287.249a2.267 2.267 0 11-4.534 0 2.267 2.267 0 114.534 0zM203.261 279.194a2.646 2.646 0 11-5.291 0 2.646 2.646 0 015.291 0zM202.9 287.786a3.4 3.4 0 11-6.801-.001 3.4 3.4 0 016.801.001zM216.38 295.233h-22.673M216.38 272.561h-22.673M216.38 295.233v-22.672M193.708 295.233v-22.672M43.696 227.029a7.179 7.179 0 11-14.358 0 7.179 7.179 0 0114.358 0zM182.626 281.957a3.41 3.41 0 11-6.823 0 3.411 3.411 0 116.823 0z"/><path class="st2" d="M182.105 281.957a2.89 2.89 0 11-5.78 0 2.89 2.89 0 015.78 0zM188.103 281.125a2.579 2.579 0 11-5.158 0 2.579 2.579 0 015.158 0z"/><path class="st2" d="M186.968 281.125a1.444 1.444 0 11-2.891 0 1.444 1.444 0 012.891 0zM264.865 19.015a3.78 3.78 0 11-7.558 0 3.78 3.78 0 017.558 0z"/><path class="st2" d="M262.219 19.015a1.134 1.134 0 11-2.269 0 1.134 1.134 0 012.269 0zM176.067 19.015a3.78 3.78 0 11-7.558 0 3.78 3.78 0 017.558 0z"/><path class="st2" d="M173.422 19.015a1.134 1.134 0 11-2.267 0 1.134 1.134 0 012.267 0zM250.695 88.92h-68.016m0 0V13.347m0 0h68.016m0 0V88.92M248.805 90.809h-64.236m0 0l-.724-.144m0 0l-.612-.409m0 0l-.41-.613m0 0l-.144-.723m0 0h68.016m0 0l-.144.723m0 0l-.41.613m0 0l-.613.409m0 0l-.723.144M250.695 9.569h-68.016m0 0v3.778m0 0h68.016m0 0V9.569M182.679 9.569h68.016m0 0v1.889m0 0h-68.016m0 0V9.569M180.79 9.569h-17.004m-.001 0v18.893m0 0h17.004m.001 0V9.569M252.584 9.569h17.004m-.001 0v18.893m0 0h-17.004m.001 0V9.569M210.641 15.236h-25.694m0 0l-.268.111m0 0l-.11.267m0 0v12.47m0 0l.11.267m0 0l.268.111m0 0h25.694m0 0l.268-.111m0 0l.11-.267m0 0v-12.47m0 0l-.11-.267m0 0l-.268-.111M222.733 15.236h25.694m0 0l.268.111m0 0l.11.267m0 0v12.47m0 0l-.11.267m0 0l-.268.111m0 0h-25.694m0 0l-.268-.111m0 0l-.11-.267m0 0v-12.47m0 0l.11-.267m0 0l.268-.111M250.695 27.438h-1.89M222.355 27.438h-11.336M184.569 27.438h-1.89M250.695 32.448h-68.016m0 0v18.686m0 0l68.016-14.908m0 0v-3.778M92.818 32.24V9.569m0 0h68.205m0 0V32.24m0 0H92.818M161.023 20.527v.756m0 0H92.818m0 0v-.756m0 0h68.205M101.766 30.247V11.622m0 0h.756m0 0v18.626m0-.001h-.756M103.771 30.247V11.622m0 0h.756m0 0v18.626m0-.001h-.756M105.776 30.247V11.622m0 0h.756m0 0v18.626m0-.001h-.756M107.781 30.247V11.622m0 0h.755m0 0v18.626m0-.001h-.755M112.026 30.112l-2.24-18.491m0 0l.75-.091m0 0l2.241 18.491m0 0l-.751.091M25.18 157.691v-22.672m0 0h64.615m0 0v22.672m0 0H25.18M89.795 145.977v.756m0 0H25.18m0 0v-.756m0 0h64.615M32.618 155.698v-18.626m0 0h.756m0 0v18.626m0 0h-.756M34.623 155.698v-18.626m0 0h.755m0 0v18.626m0 0h-.755M36.627 155.698v-18.626m0 0h.755m0 0v18.626m0 0h-.755M38.631 155.698v-18.626m0 0h.756m0 0v18.626m0 0h-.756M42.878 155.563l-2.241-18.491m-.001 0l.75-.091m.001 0l2.241 18.491m-.001 0l-.75.091M92.44 295.233v-22.672m0 0h49.501m0 0v22.672m0 0H92.44M141.941 283.519v.756m0 0H92.44m0 0v-.756m0 0h49.501M99.877 293.24v-18.626m0 0h.756m0 0v18.626m0 0h-.756M101.881 293.24v-18.626m0 0h.756m0 0v18.626m0 0h-.756M103.886 293.24v-18.626m0 0h.756m0 0v18.626m0 0h-.756M105.891 293.24v-18.626m0 0h.756m0 0v18.626m0 0h-.756M110.137 293.105l-2.241-18.491m0 0l.75-.091m0 0l2.241 18.491m0 0l-.75.091M107.555 272.561H92.44m0 0v-58.38m0 0h15.115m0 0v58.38M36 221.021l.449 1.233m0 0v1.312m0 0L36 224.799m0 0l.343 1.473m0 0v1.513m0 0L36 229.258m0 0l.45 1.235m.001 0v1.314m0 0L36 233.041m0 0l2.987-2.231m.001 0v-7.558m0 0L36 221.021M39.25 223.253v7.557m0-.001h-.262m0 0v-7.557m0 .001h.262M39.773 223.253v7.557m0-.001h-.262m0 0v-7.557m0 .001h.262M34.485 227.872l-.085-.891m0 0l.227-.021m0 0l.045.476m0 0l1.142-1.383m0 0l.152.126m0 0l-.53.642m0 0l.082.067m0 0l.611-.74m0 0l.146.121m0 0l-.611.74m0 0l.097.08m0 0l.497-.601m0 0l.13.107m0 0l-.497.602m0 0l.098.08m0 0l.343-.414m0 0l.139.115m0 0l-1.174 1.422M25.18 215.693v22.672m0 0h22.672m0 0v-22.672m0 0H25.18M57.677 278.985h-17.76m0 0v16.231m0 0h17.76m0 0v-16.231M169.147 256.502h-22.672m0 0v38.731m0 0h24.561m0 0v-22.672m0 0h-1.889m0 0v-16.059M175.146 279.748h.964m0 0v-1.204m0 .001h12.523m0 0v1.204m0-.001h.964M176.61 289.753h9.634m0 0v-.479m0 .001h-.722m0 0v.238m0-.001h-8.189m0 0v-.238m0 .001h-.723m0 0v.479M176.61 289.275l.048-.104m.047-.102l.047-.104m.046-.102l.048-.104m.047-.102l.047-.104m.048-.102l.047-.104m.047-.103l.048-.103m.046-.103l.047-.103m.047-.103l.048-.103m.047-.103l.047-.103m.048-.103l.046-.104m.047-.103l.047-.103m.048-.103l.047-.103m.047-.103l.048-.103m.047-.103l.046-.103m.047-.104l.048-.102m.047-.104l.047-.102m.048-.104l.047-.103M186.244 289.275l-.047-.104m-.047-.102l-.048-.104m-.046-.102l-.047-.104m-.047-.102l-.048-.104m-.047-.102l-.047-.104m-.048-.103l-.047-.103m-.046-.103l-.047-.103m-.047-.103l-.048-.103m-.047-.103l-.048-.103m-.047-.103l-.047-.104m-.046-.103l-.048-.103m-.047-.103l-.047-.103m-.048-.103l-.047-.103m-.047-.103l-.046-.103m-.048-.104l-.047-.102m-.047-.104l-.048-.102m-.047-.104l-.047-.103M176.61 289.275h.078m.113 0h.114m.113 0h.113m.114 0h.078m0 0l.042-.051m.071-.089l.071-.088m.072-.087l.072-.088m.071-.088l.071-.088m.072-.088l.071-.088m.072-.089l.071-.088m.072-.088l.071-.087m.071-.088l.072-.088m.071-.088l.072-.089m.071-.088l.072-.088m.071-.088l.071-.088m.072-.087l.072-.088m.071-.088l.071-.088m.072-.088l.071-.089m.071-.088l.073-.088m.071-.088l.071-.087m.071-.088l.072-.089m.072-.088l.07-.088m.073-.088l.071-.088m.071-.088l.071-.088m.072-.087l.072-.088m.071-.088l.072-.088m.071-.089l.042-.052M186.244 289.275h-.077m-.113 0h-.115m-.113 0h-.113m-.114 0h-.077m0 0l-.042-.051m-.071-.089l-.072-.088m-.072-.087l-.071-.088m-.071-.088l-.071-.088m-.073-.088l-.071-.088m-.071-.089l-.072-.088m-.071-.088l-.072-.087m-.071-.088l-.072-.088m-.071-.088l-.071-.089m-.072-.088l-.071-.088m-.072-.088l-.071-.088m-.072-.087l-.071-.088m-.071-.088l-.072-.088m-.071-.088l-.072-.089m-.071-.088l-.072-.088m-.071-.088l-.071-.087m-.072-.088l-.072-.089m-.071-.088l-.071-.088m-.072-.088l-.071-.088m-.071-.088l-.072-.088m-.072-.087l-.071-.088m-.071-.088l-.072-.088m-.071-.089l-.042-.052M257.646 141.274v-1.02m0 0h-44.369m0 0v1.02m0 0h44.369M256.242 140.255l.71-3.41m0 0l.68.141m0 0l-.68 3.269m0 0h-.71M247.945 140.255v-.833m0 0l-.152-.566m0 0l-.415-.415m0 0l-.567-.152m0 0h-22.699m0 0l-.566.152m0 0l-.415.415m0 0l-.153.566m0 0v.833m0 0h24.967M256.242 141.631l.71 3.41m0 0l.68-.141m0 0l-.68-3.269m0 0h-.71M214.681 140.255l-.71-3.41m0 0l-.68.141m0 0l.68 3.269m0 0h.71M214.681 141.572l-.71 3.41m0 0l-.68-.141m0 0l.68-3.269m0 0h.71M257.646 141.572v-.298m0 0h-44.369m0 0v.298m0 0h44.369M264.765 18.155l-3.68.86m0 0l-1.583 3.432m0 0l1.583-3.432m0 0l-1.305-3.546M168.609 18.155l3.679.86m0 0l1.584 3.432m0 0l-1.584-3.432m0 0l1.306-3.546M268.198 251.12l-4.109-4.109m0 0l-.426-.407m0 0l-.43-.371m0 0l-.424-.328m0 0l-.403-.276m0 0l-.017-.009m0 0l-.375-.216m0 0l-.332-.147m0 0l-.025-.008m0 0l-.281-.075m0 0l-.028-.004m0 0l-.22.002m0 0l-.03.002m0 0l-.029.007m0 0l-.027.013m0 0l-.154.078m0 0l-.024.018m0 0l-.012.01m0 0l-1.133 1.134m0 0l-1.03-1.029m0 0l-5.217 5.217m11.115 11.116l5.217-5.218m0 0l-1.029-1.029m0 0l1.134-1.134m0 0l.011-.011m0 0l.017-.025m0 0l.078-.154m0 0l.013-.027m0 0l.008-.029m0 0l.002-.029m0 0l.001-.221m0 0l-.003-.028m0 0l-.075-.281m0 0l-.008-.025m0 0l-.148-.332m0 0l-.214-.376m0 0l-.011-.016m0 0l-.276-.404m0 0l-.328-.423m0 0l-.371-.429m0 0l-.407-.427M259.051 247.102l9.057 9.057M259.174 247.226l.897-.898M267.983 256.035l.898-.897M264.11 260.156l4.665-4.664M255.054 251.099l4.664-4.664M263.06 248.033l4.117 4.117M260.071 246.328c.354-.354 1.691.409 2.988 1.706M267.176 252.149c1.296 1.296 2.06 2.634 1.705 2.988M231.6 279.502l4.108 4.108m0 0l.427.408m0 0l.43.371m0 0l.423.328m0 0l.404.275m0 0l.016.011m0 0l.376.215m0 0l.332.147m0 0l.024.008m0 0l.281.075m0 0l.029.003m0 0l.22-.001m0 0l.03-.002m0 0l.028-.008m0 0l.027-.012m0 0l.154-.078m0 0l.025-.018m0 0l.011-.011m0 0l1.134-1.133m0 0l1.029 1.029m0 0l5.219-5.218m-11.117-11.114l-5.216 5.217m0 0l1.029 1.029m0 0l-1.135 1.134m0 0l-.01.011m0 0l-.017.025m0 0l-.078.153m0 0l-.013.027m0 0l-.008.03m0 0l-.002.029m0 0l-.001.221m0 0l.003.027m0 0l.074.282m0 0l.009.025m0 0l.147.332m0 0l.215.375m0 0l.01.016m0 0l.276.404m0 0l.329.424m0 0l.371.429m0 0l.407.427M240.747 283.519l-9.057-9.057M240.624 283.395l-.898.898M231.814 274.586l-.897.897M235.686 270.466l-4.663 4.664M244.744 279.522l-4.664 4.664M236.738 282.588l-4.117-4.117M239.726 284.294c-.354.354-1.692-.409-2.988-1.705M232.621 278.471c-1.296-1.296-2.06-2.634-1.705-2.988M235.708 247.011l-4.108 4.109m0 0l-.408.427m0 0l-.371.429m0 0l-.329.423m0 0l-.275.404m0 0l-.01.016m0 0l-.216.376m0 0l-.146.332m0 0l-.009.025m0 0l-.074.281m0 0l-.003.028m0 0l.001.221m0 0l.002.029m0 0l.008.029m0 0l.012.027m0 0l.078.154m0 0l.018.024m0 0l.01.012m0 0l1.134 1.133m0 0l-1.029 1.03m0 0l5.217 5.217m11.115-11.115l-5.218-5.217m0 0l-1.028 1.029m0 0l-1.135-1.134m0 0l-.01-.01m0 0l-.026-.018m0 0l-.153-.078m0 0l-.027-.013m0 0l-.029-.007m0 0l-.029-.002m0 0l-.221-.002m0 0l-.028.004m0 0l-.281.075m0 0l-.025.008m0 0l-.332.147m0 0l-.376.215m0 0l-.015.01m0 0l-.405.276m0 0l-.423.328m0 0l-.429.371m0 0l-.427.407M231.69 256.159l9.057-9.057M231.814 256.035l-.897-.897M240.624 247.226l-.898-.898M244.744 251.099l-4.664-4.664M235.686 260.155l-4.663-4.663M232.621 252.15l4.117-4.117M230.916 255.138c-.354-.354.409-1.692 1.705-2.988M236.737 248.032c1.297-1.296 2.635-2.059 2.988-1.705M264.089 283.61l4.109-4.108m0 0l.408-.427m0 0l.371-.43m0 0l.328-.424m0 0l.275-.403m0 0l.011-.017m0 0l.215-.375m0 0l.147-.332m0 0l.008-.024m0 0l.075-.282m0 0l.003-.028m0 0l-.001-.22m0 0l-.002-.03m0 0l-.008-.029m0 0l-.012-.027m0 0l-.078-.154m0 0l-.018-.024m0 0l-.011-.012m0 0l-1.133-1.133m0 0l1.029-1.03m0 0l-5.218-5.218m-11.116 11.115l5.219 5.218m0 0l1.029-1.029m0 0l1.134 1.134m0 0l.011.011m0 0l.025.017m0 0l.153.078m0 0l.027.013m0 0l.03.008m0 0l.029.002m0 0l.221.001m0 0l.027-.003m0 0l.281-.075m0 0l.026-.008m0 0l.332-.148m0 0l.375-.214m0 0l.016-.011m0 0l.404-.276m0 0l.424-.328m0 0l.429-.371m0 0l.426-.407M268.107 274.463l-9.056 9.057M267.983 274.586l.898.897M259.174 283.395l.897.898M255.054 279.522l4.664 4.664M264.11 270.466l4.665 4.664M267.177 278.471l-4.117 4.117M268.882 275.483c.354.354-.409 1.691-1.705 2.987M263.06 282.588c-1.296 1.296-2.634 2.06-2.988 1.705M265.013 265.31c0 8.348-6.767 15.114-15.114 15.114-8.348 0-15.115-6.766-15.115-15.114 0-8.347 6.767-15.114 15.115-15.114 8.347 0 15.114 6.767 15.114 15.114z"/></g><g id="walls_1_"><path class="st3" d="M301.911 262.926v38.165m0 0h45.344m0 0V5.79m0 0h-45.344m0 0v29.285m0 0h.756m0 0v64.614m0 0h-.756m0 0l.031 80.107m0 0h.725m0 0v83.13m0 0h-.756M296.243 100.445h-15.492M303.801 100.445h-5.668M298.133 100.445h-1.89M296.243 34.319h-15.492M303.801 34.319h-5.668M298.133 34.319h-1.89M303.801 34.319v66.126M280.751 34.319v66.126M296.243 34.319v3.778M296.243 38.097h1.89M298.133 38.097v-3.778M298.133 72.105v-1.89M298.133 70.215h-1.89M296.243 70.215v1.89M297.188 38.097v32.118M296.243 38.097v32.118M298.133 70.215V38.097M296.243 72.105v.945M296.243 73.05h.944M297.188 73.05v.944M297.188 73.994h.945M298.133 73.994v-1.889M298.133 100.445v-3.779M298.133 96.666h-.945M297.188 96.666v.945M297.188 97.611h-.944M296.243 97.611v2.834M298.133 96.666V73.994M295.299 75.884v18.893M295.299 73.05v2.834M295.299 75.884h1.889M297.188 75.884V73.05M297.188 73.05h-1.889M297.188 97.611v-2.834M297.188 94.777h-1.889M295.299 94.777v2.834M295.299 97.611h1.889M297.188 94.777V75.884M295.299 75.884v18.893M296.243 75.884v18.893M298.133 34.319h-1.89M298.133 34.319h-1.89M303.801 34.319h-5.668M296.243 34.319h-15.492M298.133 100.445h-1.89M298.133 100.445h-1.89M303.801 100.445h-5.668M296.243 100.445h-15.492M303.801 100.445h-23.05"/><g><path class="st3" d="M296.243 262.17h-15.492M303.801 262.17h-5.668M298.133 262.17h-1.89M296.243 179.04h-15.492M303.801 179.04h-5.668M298.133 179.04h-1.89M303.801 179.04v83.13M280.751 179.04v83.13M296.243 179.04v3.779M296.243 182.819h1.89M298.133 182.819v-3.779M298.133 218.716v-1.889M298.133 216.827h-1.89M296.243 216.827v1.889M297.188 182.819v34.008M296.243 182.819v34.008M298.133 216.827v-34.009M296.243 218.716v.945M296.243 219.661h.944M297.188 219.661v.944M297.188 220.605h.945M298.133 220.605v-1.889M298.133 262.17v-3.779M298.133 258.391h-.945M297.188 258.391v.945M297.188 259.336h-.944M296.243 259.336v2.834M295.299 259.336l-28.056-28.055M298.133 258.391v-37.786M295.299 222.494v34.007M295.299 219.661v2.833M295.299 222.494h1.889M297.188 222.494v-2.833M297.188 219.661h-1.889M297.188 259.336v-2.834M297.188 256.502h-1.889M295.299 256.502v2.834M295.299 259.336h1.889M297.188 256.502v-34.007M295.299 222.494v34.007M296.243 222.494v34.007M267.243 231.281a39.677 39.677 0 0128.056-11.621M298.133 179.04h-1.89M298.133 179.04h-1.89M303.801 179.04h-5.668M296.243 179.04h-15.492M298.133 262.17h-1.89M298.133 262.17h-1.89M303.801 262.17h-5.668M296.243 262.17h-15.492"/></g><path class="st0" d="M92.764 69.237h-1.511v.453h-1.511l-.001 52.765H40.619v-15.02H25.127v3.023h12.469v19.271H25.127v5.29h64.614v22.672h3.022v-22.672h6.907v-3.779h-.453v-1.511h-6.454l.001-60.492zM190.914.5v9.068H92.763l.001 32.463h-1.511v-.454h-1.511l-.001-32.008H25.127V.5h165.787zM39.862 295.216v.017h49.501v-81.052H77.84v-1.511h-.453v-1.512h35.592v1.512h-.453v1.511h-20.14v81.052h51.012v-81.052h-6.538v-1.511h-.453v-1.512h10.014v84.075h44.825v10.958H25.128v-10.958H36.84v-18.327H25.127v-3.023h1.511v-32.496h-1.511v-3.023h4.534v35.519h10.201v21.333zm240.889-165.487v5.29H130.654v-3.779h.453v-1.511h149.644zM25.127 211.158v3.023h28.38v-1.511h.453v-1.512H25.127zm15.492-81.429v-4.251h49.122v4.251H40.619z"/><path d="M303.801 306.191H191.245v-10.958h89.505V262.17h23.05v44.021h.001zm-287.743 0V205.755h1.511v-.454h7.558v100.89h-9.069 0zm9.069-139.432h-7.558v-.453h-1.511V.5h9.069v166.259h0zM190.914.5h112.887v33.818h-23.05V9.568h-89.837V.5h0zm89.837 99.944h23.05v78.596h-23.05v-78.596z" fill-rule="evenodd" clip-rule="evenodd" stroke="#000" stroke-miterlimit="3"/><g><path class="st5" d="M78.684 43.849c4.296-1.602 6.478-2.037 11.057-2.272"/><path class="st6" d="M78.583 43.887L89.741 69.69h1.512v-.453L79.97 43.287z"/><path class="st5" d="M128.522 117.164c1.818 4.868 2.32 7.374 2.585 12.564"/><path class="st6" d="M128.487 117.07l-29.271 12.659v1.511h.453l29.42-12.782z"/><path class="st5" d="M.5 202.558c5.131 2.275 9.728 3.068 15.558 3.197"/><path class="st6" d="M.4 202.514l1.388.6 15.781-36.355v-.453h-1.511z"/><path class="st5" d="M55.469 223.739c-1.363-3.853-1.684-5.481-1.962-9.558"/><path class="st6" d="M55.506 223.84l22.335-9.659.014-1.658-.614.271-22.336 9.659z"/><path class="st5" d="M114.489 223.737c-1.363-3.851-1.685-5.48-1.963-9.556"/><path class="st6" d="M114.524 223.84l22.337-9.659-.006-1.629-.595.242-22.335 9.659z"/></g><g><path class="st7" d="M31.025.672l-5.85 5.15M38.445.672l-10.29 9.07M45.875.672l-10.3 9.07M53.295.672l-10.29 9.07M60.715.672l-10.29 9.07M68.135.672l-10.3 9.07M75.555.672l-10.29 9.07M82.985.672l-10.3 9.07M90.405.672l-10.3 9.07M97.825.672l-10.29 9.07M105.255.672l-10.3 9.07M92.805 11.632l-3.02 2.66M112.675.672l-10.3 9.07M92.805 18.172l-3.02 2.66M120.095.672l-10.3 9.07M92.805 24.712l-3.02 2.66M127.515.672l-10.3 9.07M92.805 31.252l-3.02 2.66M134.936.672l-10.291 9.07M92.805 37.792l-3.02 2.66M142.365.672l-10.3 9.07M149.785.672l-10.3 9.07M28.385 107.612l-3.21 2.83M157.205.672l-10.29 9.07M35.815 107.612l-3.43 3.02M164.625.672l-10.299 9.07M40.665 109.872l-3.02 2.66M172.046.672l-10.291 9.07M92.805 70.482l-3.02 2.66M25.345 129.902l-.17.15M40.665 116.412l-3.02 2.66M179.475.672l-10.3 9.07M41.025 122.632l-3.38 2.98M92.805 77.022l-3.02 2.66M32.775 129.902l-6.01 5.29M186.895.672l-10.3 9.07M92.805 83.562l-3.02 2.66M40.665 129.492l-6.47 5.7M48.445 122.632l-3.42 3.02M190.955 3.632l-6.93 6.11M92.805 90.102l-3.02 2.66M47.625 129.902l-6.01 5.29M55.875 122.632l-3.43 3.02M92.805 96.632l-3.02 2.66M55.045 129.902l-6.01 5.29M63.295 122.632l-3.43 3.02M92.805 103.172l-3.02 2.66M62.465 129.902l-6.01 5.29M70.715 122.632l-3.43 3.02M92.805 109.712l-3.02 2.66M69.885 129.902l-6.01 5.29M78.135 122.632l-3.43 3.02M92.805 116.252l-3.02 2.66M77.305 129.902l-6 5.29M85.555 122.632l-3.43 3.02M92.805 122.792l-3.25 2.86M84.725 129.902l-6 5.29M92.805 129.332l-6.66 5.86M99.265 130.172l-5.7 5.02M92.805 135.862l-3.02 2.66M92.805 142.402l-3.02 2.66M92.805 148.942l-3.02 2.66M92.805 155.482l-2.71 2.38M29.405 211.332l-3.43 3.02M36.825 211.332l-3.43 3.02M136.686 129.902l-5.991 5.28M44.245 211.332l-3.42 3.02M51.675 211.332l-3.43 3.02M144.115 129.902l-6.01 5.29M28.205 238.542l-3.03 2.67M151.535 129.902l-6.01 5.29M29.705 243.752l-3.02 2.66M158.945 129.902l-6 5.29M29.705 250.292l-3.02 2.66M166.375 129.902l-6.01 5.29M29.705 256.832l-3.02 2.66M81.355 211.332l-3.43 3.02M173.796 129.902l-6 5.29M29.705 263.372l-3.02 2.66M88.785 211.332l-3.43 3.02M181.215 129.902l-6 5.29M29.705 269.912l-3.02 2.66M96.205 211.332l-3.43 3.02M92.435 214.652l-3.03 2.67M188.645 129.902l-6.01 5.29M32.415 274.062l-3.43 3.02M103.625 211.332l-3.43 3.02M92.435 221.192l-3.03 2.67M196.065 129.902l-6 5.29M39.845 274.062l-3.43 3.02M92.435 227.732l-3.03 2.67M111.055 211.332l-3.43 3.02M203.485 129.902l-6 5.29M39.905 280.542l-3.02 2.66M92.435 234.262l-3.03 2.67M210.906 129.902l-6.011 5.29M39.905 287.082l-3.02 2.66M92.435 240.802l-3.03 2.67M30.445 295.412l-5.27 4.64M218.326 129.902l-6 5.29M39.905 293.622l-14.46 12.74M92.435 247.342l-3.03 2.67M225.755 129.902l-6.01 5.29M45.295 295.412l-12.43 10.95M92.435 253.882l-3.03 2.67M140.735 211.332l-3.42 3.02M233.175 129.902l-6 5.29M52.715 295.412l-12.43 10.95M146.465 212.832l-3.02 2.66M92.435 260.422l-3.03 2.67M240.605 129.902l-6.01 5.29M60.135 295.412l-12.43 10.95M146.465 219.362l-3.02 2.66M92.435 266.962l-3.03 2.67M248.025 129.902l-6.009 5.29M67.555 295.412l-12.43 10.95M146.465 225.902l-3.02 2.66M92.435 273.502l-3.03 2.66M255.436 129.902l-6 5.29M74.985 295.412l-12.43 10.95M146.465 232.442l-3.02 2.66M92.435 280.032l-3.03 2.67M262.866 129.902l-6.011 5.29M82.405 295.412l-12.43 10.95M146.465 238.982l-3.02 2.66M92.435 286.572l-3.03 2.67M270.285 129.902l-6 5.29M92.435 293.112l-15.04 13.25M146.465 245.522l-3.02 2.66M277.706 129.902l-6 5.29M97.255 295.412l-12.43 10.95M146.465 252.062l-3.02 2.66M280.796 133.722l-1.671 1.47M146.465 258.602l-3.02 2.66M104.675 295.412l-12.43 10.95M146.465 265.142l-3.02 2.66M112.095 295.412l-12.43 10.95M146.465 271.672l-3.02 2.66M119.515 295.412l-12.43 10.95M146.465 278.212l-3.02 2.66M126.935 295.412l-12.43 10.95M146.465 284.752l-3.02 2.66M134.365 295.412l-12.43 10.95M146.465 291.292l-3.02 2.66M141.785 295.412l-12.43 10.95M149.205 295.412l-12.43 10.95M156.625 295.412l-12.43 10.95M164.046 295.412l-12.431 10.95M171.475 295.412l-12.429 10.95M178.895 295.412l-12.43 10.95M186.315 295.412l-12.43 10.95M191.296 297.562l-9.991 8.8M191.296 304.102l-2.561 2.26"/></g><path d="M92.764 69.237h-1.511v.453h-1.511l-.001 52.765H40.619v-15.02H25.127v3.023h12.469v19.271H25.127v5.29h64.614v22.672h3.022v-22.672h6.907v-3.779h-.453v-1.511h-6.454l.001-60.492h0zM190.914.5v9.068H92.763l.001 32.463h-1.511v-.454h-1.511l-.001-32.008H25.127V.5h165.787zM39.862 295.216v.017h49.501v-81.052H77.84v-1.511h-.453v-1.512h35.592v1.512h-.453v1.511h-20.14v81.052h51.012v-81.052h-6.538v-1.511h-.453v-1.512h10.014v84.075h44.825v10.958H25.128v-10.958H36.84v-18.327H25.127v-3.023h1.511v-32.496h-1.511v-3.023h4.534v35.519h10.201v21.333h0zm240.889-165.487v5.29H130.654v-3.779h.453v-1.511h149.644zM25.127 211.158H53.96v1.512h-.453v1.511h-28.38v-3.023h0zm15.492-81.429v-4.251h49.122v4.251H40.619z" fill-rule="evenodd" clip-rule="evenodd" fill="none" stroke="#000" stroke-miterlimit="22.926"/></g><g id="sizes"><path d="M169.281 150.771h-1.594v-9.625l-1.617.992v-1.648l1.617-1.078h1.594v11.359zM171.703 147.646l3.813-8.227h1.641l-3.719 8.133h5.57v1.477h-7.305v-1.383zm4.898-3.555h1.555v6.688h-1.555v-6.688zM180.804 149.177h1.594v1.594l-1.594 1.578v-3.172zM184.414 149.388l3.961-5.281c.229-.302.407-.616.535-.941.128-.325.191-.629.191-.91v-.016c0-.453-.133-.805-.398-1.055s-.644-.375-1.133-.375c-.464 0-.839.137-1.125.41s-.461.66-.523 1.16v.008h-1.648v-.008c.094-.651.285-1.207.574-1.668s.663-.813 1.121-1.055.987-.363 1.586-.363c.677 0 1.255.116 1.734.348.479.232.844.569 1.094 1.012.25.443.375.977.375 1.602v.008c0 .401-.083.82-.25 1.258s-.398.859-.695 1.266l-3.289 4.469h4.297v1.516h-6.406v-1.385zM142.296 123.6h-1.594v-9.625l-1.617.992v-1.648l1.617-1.078h1.594V123.6zM146.518 123.382a2.75 2.75 0 01-1.086-.977c-.278-.427-.465-.94-.559-1.539v-.008h1.594v.008c.058.417.224.741.5.973.276.232.636.348 1.078.348.511 0 .905-.17 1.184-.512.278-.341.418-.821.418-1.441v-.953c0-.614-.14-1.092-.418-1.434-.278-.341-.673-.512-1.184-.512-.276 0-.542.078-.797.234s-.479.375-.672.656h-1.453v-5.984h5.789v1.516h-4.195v2.555a2.275 2.275 0 011.414-.508c.656 0 1.218.136 1.684.406.466.271.82.667 1.063 1.188.242.521.363 1.148.363 1.883v.953c0 .734-.125 1.362-.375 1.883-.25.521-.614.918-1.094 1.191s-1.055.41-1.727.41c-.573 0-1.081-.113-1.527-.336zM153.428 122.007h1.594v1.594l-1.594 1.578v-3.172zM158.428 123.315a2.61 2.61 0 01-1.082-1.172c-.247-.513-.371-1.131-.371-1.855v-.008c0-.422.05-.864.148-1.328a7.673 7.673 0 01.532-1.597l.109-.223 2.469-4.891h1.719l-2.898 5.664.008-.281c.13-.245.32-.435.57-.57.25-.135.542-.203.875-.203.589 0 1.094.133 1.516.398s.742.652.961 1.16.328 1.119.328 1.832v.008c0 .729-.124 1.354-.371 1.875a2.615 2.615 0 01-1.086 1.188c-.477.271-1.048.406-1.715.406s-1.238-.134-1.712-.403zm2.879-1.597c.273-.313.41-.758.41-1.336v-.008c0-.635-.144-1.126-.43-1.473-.286-.346-.695-.52-1.227-.52-.474 0-.841.175-1.102.523-.261.349-.391.841-.391 1.477v.008c0 .578.137 1.022.41 1.332.273.31.66.465 1.16.465.507 0 .897-.156 1.17-.468z"/><g><path d="M61.472 96.552a2.75 2.75 0 01-1.086-.977c-.278-.427-.465-.94-.559-1.539v-.008h1.594v.008c.058.417.224.741.5.973.276.232.636.348 1.078.348.511 0 .905-.17 1.184-.512.278-.341.418-.821.418-1.441v-.953c0-.614-.14-1.092-.418-1.434-.278-.341-.673-.512-1.184-.512-.276 0-.542.078-.797.234s-.479.375-.672.656h-1.453v-5.984h5.789v1.516h-4.195v2.555a2.275 2.275 0 011.414-.508c.656 0 1.218.136 1.684.406.466.271.82.667 1.063 1.188.242.521.363 1.148.363 1.883v.953c0 .734-.125 1.362-.375 1.883-.25.521-.614.918-1.094 1.191s-1.055.41-1.727.41c-.573 0-1.081-.112-1.527-.336zM68.382 95.177h1.594v1.594l-1.594 1.578v-3.172zM74.906 96.771h-1.594v-9.625l-1.617.992V86.49l1.617-1.078h1.594v11.359z"/></g><g><path d="M33.653 206.149l-.727-.348c-.485-.232-.874-.567-1.168-1.008s-.48-.97-.559-1.59h1.625c.047.323.148.589.305.797s.358.363.605.465.538.152.871.152c.526 0 .935-.141 1.227-.422s.438-.677.438-1.188v-.344c0-.567-.138-1.007-.414-1.316s-.667-.465-1.172-.465h-.804v-1.516h.805c.442 0 .786-.133 1.031-.398s.367-.641.367-1.125v-.352c0-.448-.129-.794-.387-1.039s-.624-.367-1.098-.367c-.271 0-.513.051-.727.152s-.395.258-.543.469-.257.476-.324.793h-1.617c.104-.62.301-1.151.59-1.594s.655-.778 1.098-1.008.95-.344 1.523-.344c.979 0 1.737.258 2.273.773s.805 1.242.805 2.18v.188c0 .567-.153 1.063-.461 1.484s-.742.729-1.305.922c.62.136 1.101.44 1.441.914s.512 1.078.512 1.813v.188c0 .661-.128 1.227-.383 1.695s-.626.825-1.113 1.07-1.074.367-1.762.367l-.952.002zM39.973 204.438h1.594v1.594l-1.594 1.578v-3.172zM44.973 205.747c-.474-.269-.835-.659-1.082-1.172s-.371-1.132-.371-1.855v-.008c0-.422.05-.864.148-1.328a7.568 7.568 0 01.641-1.82l2.469-4.891h1.719l-2.898 5.664.008-.281c.13-.245.32-.435.57-.57s.542-.203.875-.203c.589 0 1.094.133 1.516.398s.742.652.961 1.16.328 1.118.328 1.832v.008c0 .729-.124 1.354-.371 1.875s-.609.917-1.086 1.188-1.048.406-1.715.406-1.238-.134-1.712-.403zm2.879-1.598c.273-.313.41-.758.41-1.336v-.008c0-.636-.144-1.126-.43-1.473s-.695-.52-1.227-.52c-.474 0-.841.175-1.102.523s-.391.841-.391 1.477v.008c0 .578.137 1.022.41 1.332s.66.465 1.16.465c.507.001.897-.155 1.17-.468z"/></g><g><path d="M69.627 274.974l-.727-.348a2.857 2.857 0 01-1.168-1.008c-.294-.439-.48-.97-.559-1.59h1.625c.047.323.148.589.305.797.156.209.358.363.605.465s.538.152.871.152c.526 0 .935-.141 1.227-.422s.438-.677.438-1.188v-.344c0-.567-.138-1.006-.414-1.316-.276-.31-.667-.465-1.172-.465h-.805v-1.516h.805c.442 0 .786-.133 1.031-.398s.367-.641.367-1.125v-.352c0-.447-.129-.794-.387-1.039-.258-.244-.624-.367-1.098-.367-.271 0-.513.051-.727.152s-.395.258-.543.469-.257.476-.324.793H67.36c.104-.619.301-1.15.59-1.594a2.893 2.893 0 011.098-1.008c.442-.229.95-.344 1.523-.344.979 0 1.737.258 2.273.773s.805 1.242.805 2.18v.188c0 .568-.153 1.063-.461 1.484s-.742.729-1.305.922c.62.136 1.101.44 1.441.914.341.475.512 1.078.512 1.813v.188c0 .662-.128 1.227-.383 1.695s-.626.826-1.113 1.07c-.487.245-1.074.367-1.762.367l-.951.002zM75.947 273.264h1.594v1.594l-1.594 1.578v-3.172zM81.713 274.974l-.727-.348a2.857 2.857 0 01-1.168-1.008c-.294-.439-.48-.97-.559-1.59h1.625c.047.323.148.589.305.797.156.209.358.363.605.465s.538.152.871.152c.526 0 .935-.141 1.227-.422s.438-.677.438-1.188v-.344c0-.567-.138-1.006-.414-1.316-.276-.31-.667-.465-1.172-.465h-.805v-1.516h.805c.442 0 .786-.133 1.031-.398s.367-.641.367-1.125v-.352c0-.447-.129-.794-.387-1.039-.258-.244-.624-.367-1.098-.367-.271 0-.513.051-.727.152s-.395.258-.543.469-.257.476-.324.793h-1.617c.104-.619.301-1.15.59-1.594a2.893 2.893 0 011.098-1.008c.442-.229.95-.344 1.523-.344.979 0 1.737.258 2.273.773s.805 1.242.805 2.18v.188c0 .568-.153 1.063-.461 1.484s-.742.729-1.305.922c.62.136 1.101.44 1.441.914.341.475.512 1.078.512 1.813v.188c0 .662-.128 1.227-.383 1.695s-.626.826-1.113 1.07c-.487.245-1.074.367-1.762.367l-.951.002z"/></g><g><path d="M120.506 267.07l3.961-5.281c.229-.302.407-.616.535-.941s.191-.629.191-.91v-.016c0-.453-.133-.805-.398-1.055s-.644-.375-1.133-.375c-.464 0-.839.137-1.125.41s-.461.66-.523 1.16v.008h-1.648v-.008c.094-.651.285-1.207.574-1.668s.663-.813 1.121-1.055.987-.363 1.586-.363c.677 0 1.255.116 1.734.348s.844.569 1.094 1.012.375.977.375 1.602v.008c0 .401-.083.82-.25 1.258s-.398.859-.695 1.266l-3.289 4.469h4.297v1.516h-6.406v-1.385zM128.787 266.859h1.594v1.594l-1.594 1.578v-3.172zM134.084 268.18c-.521-.261-.923-.629-1.207-1.105s-.426-1.03-.426-1.66v-.188c0-.567.142-1.102.426-1.602s.663-.878 1.137-1.133c-.401-.219-.723-.535-.965-.949s-.363-.851-.363-1.309v-.273c0-.594.133-1.116.398-1.566s.641-.8 1.125-1.047 1.047-.371 1.688-.371 1.203.124 1.688.371.859.597 1.125 1.047.398.973.398 1.566v.273c0 .469-.124.909-.371 1.32s-.574.724-.98.938c.479.261.863.64 1.152 1.137s.434 1.03.434 1.598v.188c0 .63-.142 1.184-.426 1.66s-.687.845-1.207 1.105-1.125.391-1.813.391-1.293-.131-1.813-.391zm2.789-1.36c.281-.146.499-.351.652-.613s.23-.566.23-.91v-.109c0-.349-.077-.655-.23-.918s-.371-.468-.652-.613-.606-.219-.977-.219-.695.073-.977.219-.499.352-.652.617-.23.573-.23.922v.117c0 .344.077.646.23.906s.371.462.652.605.606.215.977.215.695-.073.977-.219zm-.133-5.121c.245-.138.435-.335.57-.59s.203-.55.203-.883v-.109c0-.317-.067-.599-.203-.844s-.325-.434-.57-.566-.526-.199-.844-.199-.599.066-.844.199-.435.321-.57.566-.203.528-.203.852v.117c0 .328.067.618.203.871s.325.448.57.586.526.207.844.207.599-.069.844-.207z"/></g><g><path d="M315.122 110.628c-.521-.26-.923-.629-1.207-1.105s-.426-1.03-.426-1.66v-.188c0-.567.142-1.102.426-1.602s.663-.877 1.137-1.133c-.401-.219-.723-.535-.965-.949s-.363-.85-.363-1.309v-.273c0-.594.133-1.116.398-1.566.266-.45.641-.799 1.125-1.047.484-.247 1.047-.371 1.688-.371s1.203.124 1.688.371c.484.248.859.597 1.125 1.047.266.451.398.973.398 1.566v.273c0 .469-.124.909-.371 1.32a2.472 2.472 0 01-.98.938c.479.261.863.64 1.152 1.137a3.13 3.13 0 01.434 1.598v.188c0 .63-.142 1.184-.426 1.66s-.687.845-1.207 1.105c-.521.261-1.125.391-1.813.391s-1.292-.13-1.813-.391zm2.789-1.359c.281-.146.499-.35.652-.613.153-.263.23-.566.23-.91v-.109c0-.349-.077-.655-.23-.918a1.576 1.576 0 00-.652-.613c-.281-.146-.606-.219-.977-.219s-.695.073-.977.219c-.281.146-.499.352-.652.617s-.23.573-.23.922v.117c0 .344.077.646.23.906.153.261.371.462.652.605.281.144.606.215.977.215s.696-.073.977-.219zm-.133-5.121c.245-.138.435-.334.57-.59.136-.255.203-.549.203-.883v-.109c0-.317-.067-.599-.203-.844s-.325-.434-.57-.566-.526-.199-.844-.199-.599.066-.844.199-.435.322-.57.566a1.726 1.726 0 00-.203.852v.117c0 .328.067.619.203.871.136.253.325.448.57.586.245.138.526.207.844.207s.599-.069.844-.207zM322.45 109.308h1.594v1.594l-1.594 1.578v-3.172zM327.876 110.683a2.75 2.75 0 01-1.086-.977c-.278-.427-.465-.94-.559-1.539v-.008h1.594v.008c.058.417.224.741.5.973.276.232.636.348 1.078.348.511 0 .905-.17 1.184-.512.278-.341.418-.821.418-1.441v-.953c0-.614-.14-1.092-.418-1.434-.278-.341-.673-.512-1.184-.512-.276 0-.542.078-.797.234s-.479.375-.672.656h-1.453v-5.984h5.789v1.516h-4.195v2.555a2.275 2.275 0 011.414-.508c.656 0 1.218.136 1.684.406.466.271.82.667 1.063 1.188.242.521.363 1.148.363 1.883v.953c0 .734-.125 1.362-.375 1.883-.25.521-.614.918-1.094 1.191s-1.055.41-1.727.41c-.573 0-1.082-.112-1.527-.336z"/></g><g><path d="M170.132 263.328l3.813-8.227h1.641l-3.719 8.133h5.57v1.477h-7.305v-1.383zm4.899-3.555h1.555v6.688h-1.555v-6.688zM179.234 264.859h1.594v1.594l-1.594 1.578v-3.172zM184.234 266.168c-.474-.269-.835-.659-1.082-1.172s-.371-1.132-.371-1.855v-.008c0-.422.05-.864.148-1.328a7.568 7.568 0 01.641-1.82l2.469-4.891h1.719l-2.898 5.664.008-.281c.13-.245.32-.435.57-.57s.542-.203.875-.203c.589 0 1.094.133 1.516.398s.742.652.961 1.16.328 1.118.328 1.832v.008c0 .729-.124 1.354-.371 1.875s-.609.917-1.086 1.188-1.048.406-1.715.406-1.238-.135-1.712-.403zm2.879-1.598c.273-.313.41-.758.41-1.336v-.008c0-.636-.144-1.126-.43-1.473s-.695-.52-1.227-.52c-.474 0-.841.175-1.102.523s-.391.841-.391 1.477v.008c0 .578.137 1.022.41 1.332s.66.465 1.16.465c.507.001.896-.155 1.17-.468z"/></g></g></svg>