<svg version="1.1" id="_x39_7_1_" xmlns="http://www.w3.org/2000/svg" x="0" y="0" viewBox="0 0 534.354 601.17" xml:space="preserve"><style>.st0,.st1,.st2{fill-rule:evenodd;clip-rule:evenodd;fill:#fff}.st1,.st2{fill:none;stroke:#999;stroke-linecap:round;stroke-linejoin:round;stroke-miterlimit:3}.st2{stroke-width:.4}.st3,.st4{stroke:#020203}.st3{fill:none;stroke-linecap:round;stroke-linejoin:round;stroke-miterlimit:3}.st4{fill-rule:evenodd;clip-rule:evenodd}.st4,.st6,.st7,.st8{fill:none;stroke-miterlimit:22.9256}.st6{fill-rule:evenodd;clip-rule:evenodd;stroke-width:.6;stroke:#666}.st7,.st8{stroke:#020203}.st8{stroke-linecap:round;stroke-linejoin:round;stroke-miterlimit:3}.st8,.st9{fill-rule:evenodd;clip-rule:evenodd}.st10,.st9{fill:#020203}</style><path class="st0" d="M527.53 486.738h6.435v-341H331.53V1H47.363v6.488H.389v592.641H527.53z"/><g id="mebel"><path class="st1" d="M139.435 269.602h3.027m.001 0v-.859m0 0v-17.176m0 0v-.859m0 0h-3.027M145.89 250.709h-3.427m0 0v.858m0 0h3.224m0 0v-.056m0 0l-.196-.295m0 0l.087-.342m0 0l.312-.165M148.25 251.51l-.197-.295m-.001 0l.087-.342m.001 0l.313-.165m-.001 0h-2.562m.001 0l-.312.165m-.001 0l-.087.342m0 0l.196.295m.001 0v17.29m0 0l-.196.294m-.001 0l.087.342m0 0l.312.166m.001 0h2.562m-.001 0l-.313-.166m.001 0l-.087-.342m-.001 0l.197-.294m.001 0v-17.29M145.89 269.602l-.312-.166m0 0l-.087-.342m0 0l.196-.294m0 0v-.057m0 0h-3.224m0 0v.859m0 0h3.427M148.655 252.372v15.566m0 0l.227-1.004m0 0v-13.556m0 0l-.227-1.006M148.655 251.51l.197-.295m0 0l-.087-.342m0 0l-.313-.165m0 0l-.312.165m0 0l-.087.342m0 0l.197.295m0 0v17.29m0 0l-.197.294m0 0l.087.342m0 0l.312.166m0 0l.313-.166m0 0l.087-.342m0 0l-.197-.294m0 0v-17.29M139.435 291.518h3.027m.001 0v-.858m0 0v-17.176m0 0v-.859m0 0h-3.027M145.89 272.626h-3.427m0 0v.858m0 0h3.224m0 0v-.057m0 0l-.196-.294m0 0l.087-.343m0 0l.312-.164M148.25 273.427l-.197-.294m-.001 0l.087-.343m.001 0l.313-.164m-.001-.001h-2.562m.001 0l-.312.164m-.001.001l-.087.343m0 0l.196.294m.001 0v17.291m0 0l-.196.293m-.001-.001l.087.343m0 0l.312.165m.001 0h2.562m-.001 0l-.313-.165m.001 0l-.087-.343m-.001 0l.197-.293m.001.001v-17.291M145.89 291.518l-.312-.165m0 0l-.087-.343m0 0l.196-.293m0 0v-.057m0 0h-3.224m0 0v.858m0 0h3.427M148.655 274.289v15.565m0 0l.227-1.003m0 0v-13.557m0 0l-.227-1.005M148.655 273.427l.197-.294m0 0l-.087-.343m0 0l-.313-.164m0-.001l-.312.164m0 .001l-.087.343m0 0l.197.294m0 0v17.291m0 0l-.197.293m0-.001l.087.343m0 0l.312.165m0 0l.313-.165m0 0l.087-.343m0 0l-.197-.293m0 .001v-17.291M105.427 269.602h-3.029m.001 0v-.859m0 0v-17.176m0 0v-.859m0 0h3.029M98.972 250.709h3.427m0 0v.858m0 0h-3.224m0 0v-.056m0 0l.196-.295m0 0l-.087-.342m0 0l-.312-.165M96.613 251.51l.196-.295m0 0l-.086-.342m0 0l-.313-.165m0 0h2.562m0 0l.312.165m0 0l.087.342m0 0l-.196.295m0 0v17.29m0 0l.196.294m0 0l-.087.342m0 0l-.312.166m0 0H96.41m0 0l.313-.166m0 0l.086-.342m0 0l-.196-.294m0 0v-17.29M98.972 269.602l.312-.166m0 0l.087-.342m0 0l-.196-.294m0 0v-.057m0 0h3.224m0 0v.859m0 0h-3.427M96.207 252.372v15.566m0 0l-.226-1.004m0 0v-13.556m0 0l.226-1.006M96.207 251.51l-.196-.295m0 0l.087-.342m0 0l.312-.165m0 0l.313.165m0 0l.086.342m0 0l-.196.295m0 0v17.29m0 0l.196.294m0 0l-.086.342m0 0l-.313.166m0 0l-.312-.166m0 0l-.087-.342m0 0l.196-.294m0 0v-17.29M105.427 291.518h-3.029m.001 0v-.858m0 0v-17.176m0 0v-.859m0 0h3.029M98.972 272.626h3.427m0 0v.858m0 0h-3.224m0 0v-.057m0 0l.196-.294m0 0l-.087-.343m0 0l-.312-.164M96.613 273.427l.196-.294m0 0l-.086-.343m0 0l-.313-.164m0-.001h2.562m0 0l.312.164m0 .001l.087.343m0 0l-.196.294m0 0v17.291m0 0l.196.293m0-.001l-.087.343m0 0l-.312.165m0 0H96.41m0 0l.313-.165m0 0l.086-.343m0 0l-.196-.293m0 .001v-17.291M98.972 291.518l.312-.165m0 0l.087-.343m0 0l-.196-.293m0 0v-.057m0 0h3.224m0 0v.858m0 0h-3.427M96.207 274.289v15.565m0 0l-.226-1.003m0 0v-13.557m0 0l.226-1.005M96.207 273.427l-.196-.294m0 0l.087-.343m0 0l.312-.164m0-.001l.313.164m0 .001l.086.343m0 0l-.196.294m0 0v17.291m0 0l.196.293m0-.001l-.086.343m0 0l-.313.165m0 0l-.312-.165m0 0l-.087-.343m0 0l.196-.293m0 .001v-17.291M139.435 294.542h3.027m.001 0v.858m0 0v17.176m0 0v.859m0 0h-3.027M145.89 313.434h-3.427m0 0v-.858m0 0h3.224m0 0v.057m0 0l-.196.294m0 0l.087.343m0 0l.312.164M148.25 312.633l-.197.294m-.001.001l.087.343m.001 0l.313.164m-.001-.001h-2.562m.001 0l-.312-.164m-.001.001l-.087-.343m0 0l.196-.294m.001-.001v-17.291m0 .001l-.196-.293m-.001-.001l.087-.343m0 0l.312-.165m.001.001h2.562m-.001 0l-.313.165m.001-.001l-.087.343m-.001 0l.197.293m.001.001v17.291M145.89 294.542l-.312.165m0 0l-.087.343m0 0l.196.293m0 0v.057m0 0h-3.224m0 0v-.858m0 0h3.427M148.655 311.771v-15.566m0 0l.227 1.004m0 0v13.557m0 0l-.227 1.005M148.655 312.633l.197.294m0 .001l-.087.343m0 0l-.313.164m0-.001l-.312-.164m0 .001l-.087-.343m0 0l.197-.294m0-.001v-17.291m0 .001l-.197-.293m0-.001l.087-.343m0 0l.312-.165m0 .001l.313.165m0-.001l.087.343m0 0l-.197.293m0 .001v17.291M105.427 294.542h-3.029m.001 0v.858m0 0v17.176m0 0v.859m0 0h3.029M98.972 313.434h3.427m0 0v-.858m0 0h-3.224m0 0v.057m0 0l.196.294m0 0l-.087.343m0 0l-.312.164M96.613 312.633l.196.294m0 .001l-.086.343m0 0l-.313.164m0-.001h2.562m0 0l.312-.164m0 .001l.087-.343m0 0l-.196-.294m0-.001v-17.291m0 .001l.196-.293m0-.001l-.087-.343m0 0l-.312-.165m0 .001H96.41m0 0l.313.165m0-.001l.086.343m0 0l-.196.293m0 .001v17.291M98.972 294.542l.312.165m0 0l.087.343m0 0l-.196.293m0 0v.057m0 0h3.224m0 0v-.858m0 0h-3.427M96.207 311.771v-15.566m0 0l-.226 1.004m0 0v13.557m0 0l.226 1.005M96.207 312.633l-.196.294m0 .001l.087.343m0 0l.312.164m0-.001l.313-.164m0 .001l.086-.343m0 0l-.196-.294m0-.001v-17.291m0 .001l.196-.293m0-.001l-.086-.343m0 0l-.313-.165m0 .001l-.312.165m0-.001l-.087.343m0 0l.196.293m0 .001v17.291"/><path class="st2" d="M339.194 307.764l.035-.035m4.559-4.558l.004-.003m-11.545 4.596l.025-.026m11.506-11.504l.013-.013M325.3 307.764l.016-.016m14.963-14.962l3.512-3.512m-25.438 18.49l.007-.007m14.963-14.962l10.469-10.468m-17.426 10.478l17.426-17.426m-33.265 26.32l2.629-2.628m6.255-6.257l24.38-24.381m-40.212 33.266l40.213-40.212m-39.594 32.645l39.594-39.594m-54.106 47.161l2.763-2.763m12.043-12.044l39.299-39.3m-58.916 51.969l6.91-6.91m10.429-10.429l41.577-41.577m-58.916 51.969l7.153-7.154m4.729-4.727l42.873-42.872m-54.755 47.806l47.807-47.807m-47.807 40.86l40.861-40.86m-40.876 33.929l33.929-33.929m-33.929 26.982l26.982-26.982m-26.982 20.035l20.035-20.034m-20.035 13.087l13.088-13.088m-13.088 6.141l6.141-6.141m52.79 5.003l-5.002-5.003m5.002 11.949l-11.95-11.949m11.95 18.896l-18.896-18.896m18.896 25.843l-25.843-25.843m25.843 32.79l-32.79-32.79m32.79 39.737l-39.737-39.737m39.737 46.683l-46.684-46.683m46.684 53.631L290.16 237.86m53.631 60.578l-.01-.01m-5.639-5.639l-53.282-53.281M331.205 292.798l-46.345-46.344m54.364 61.31l-.035-.035m-14.922-14.921l-39.407-39.406m47.417 54.362l-.026-.026m-14.922-14.921l-32.469-32.468m40.47 47.415l-.016-.016m-12.164-12.164l-8.654-8.653m-6.364-6.365l-13.271-13.271m33.522 40.469l-.007-.007m-6.058-6.058l-8.067-8.067m-10.826-10.826l-8.565-8.565m20.51 27.458l-1.782-1.782m-12.058-12.058l-6.655-6.655m7.195 14.142l-7.195-7.195m6.602 13.548l-6.601-6.602M257.638 78.874h49.878m-49.878-11.335h49.878m-49.878-11.336h64.993m-64.993-11.336h39.438m21.021 0h4.534m-64.993-11.336h64.993m-22.482 45.627V51.243m0-10.651V29.091m-22.673 50.067V29.091m-45.344 50.067"/><path class="st1" d="M230.811 10.575v68.583m0 0h26.829m-.001 0V10.575m0 0H230.81M255.493 18.577l-.082-.992m0 0l-.242-.963m0 0l-.395-.902m0 0l-.536-.817m0 0l-.662-.704m0 0l-.766-.571m0 0l-.847-.422m0 0l-.904-.258m0 0l-.932-.086m0 0h-11.804m0 0l-.932.086m0 0l-.903.258m0 0l-.848.422m0 0l-.766.571m0 0l-.661.704m0 0l-.537.817m0 0l-.395.902m0 0l-.242.963m0 0l-.082.992m0 0V64.87m0 0l.171 2.084m0 0l.509 2.02m0 0l.83 1.897m0 0l1.126 1.714m0 0l1.389 1.478m0 0l1.609 1.201m0 0l1.78.884m0 0l1.897.541m0 0l1.957.183m0 0l1.957-.183m0 0l1.897-.541m0 0l1.78-.884m0 0l1.609-1.201m0 0l1.389-1.478m0 0l1.126-1.714m0 0l.83-1.897m0 0l.509-2.02m0 0l.171-2.084m0 0V18.577M245.169 19.644a.945.945 0 11-1.89-.001.945.945 0 011.89.001zM303.105 52.319l-1.645-.469m0 0l-1.552-.718m0 0l-1.23-.967m0 0l-.943-1.248m0 0l-.593-1.449m0 0l-.206-1.55m0 0l.206-1.552m0 0l.593-1.447m0 0l.943-1.248m0 0l1.23-.968m0 0l1.552-.719m0 0l1.645-.469m0 0l1.697-.207m0 0l1.71.06m0 0l11.585 1.222m0 0v10.655m0 0l-11.585 1.222m0 0l-1.71.06m0 0l-1.697-.208M312.375 41.801v4.117M312.375 45.918v4.116M297.222 45.918a5.738 5.738 0 01.887-3.063M298.109 42.854c1.723-2.217 4.238-3.413 6.83-3.248M304.939 39.606c2.609-.07 5.185.689 7.437 2.195M312.375 50.034c-2.252 1.506-4.828 2.266-7.437 2.195M304.939 52.229c-2.591.165-5.107-1.031-6.83-3.248M298.109 48.981a5.743 5.743 0 01-.887-3.063M318.097 41.27v9.295m0 0h-.189m0 0V41.27m0 0h.189M318.097 55.364V36.471M322.631 55.364V36.471M318.097 55.364h4.534M318.097 36.471h4.534M227.703 334.688v117.137m0 0h15.199m-.001 0V334.688m0 0h-15.199M228.458 334.688v117.137M227.703 393.256h.755M227.703 334.688h.755M121.902 439.709v-28.391M120.769 410.185H92.378M91.245 411.318v28.391M92.378 440.842h28.391M81.849 450.238v-38.92M82.982 410.185h7.129M91.245 411.318v29.524M91.245 440.842h29.524M121.902 441.975v7.129M120.769 450.238h-38.92M87.139 411.318v33.63M87.139 444.948h33.63M80.337 410.185v41.564M80.337 451.75h41.565M80.337 410.185h2.645M121.902 449.104v2.646M121.902 441.975v-2.267M90.111 410.185h2.267M91.245 440.842l-9.396 9.396M120.769 410.185c.626 0 1.133.507 1.133 1.133M91.245 411.318c0-.626.507-1.133 1.133-1.133M92.378 440.842a1.134 1.134 0 01-1.133-1.134M121.902 439.709c0 .626-.507 1.134-1.133 1.134M81.849 411.318c0-.626.507-1.133 1.133-1.133M90.111 410.185c.626 0 1.134.507 1.134 1.133M120.769 440.842c.626 0 1.133.507 1.133 1.133M121.902 449.104c0 .627-.507 1.134-1.133 1.134M86.005 410.185c.626 0 1.134.507 1.134 1.133M120.769 444.948c.626 0 1.133.508 1.133 1.134M80.337 372.398v37.787M80.337 372.398h2.645M80.337 410.185h2.645M90.111 372.398h2.267M90.111 410.185h2.267M121.902 409.052v-35.521M120.769 372.398H92.378M91.245 373.532v35.52M92.378 410.185h28.391M81.849 409.052v-35.521M82.982 372.398h7.129M91.245 373.532v35.52M90.111 410.185h-7.129M87.139 373.532v35.52M120.769 372.398c.626 0 1.133.508 1.133 1.134M91.245 373.532c0-.626.507-1.134 1.133-1.134M92.378 410.185a1.134 1.134 0 01-1.133-1.134M121.902 409.052c0 .626-.507 1.134-1.133 1.134M81.849 373.532c0-.626.507-1.134 1.133-1.134M90.111 372.398c.626 0 1.134.508 1.134 1.134M91.245 409.052c0 .626-.508 1.134-1.134 1.134M82.982 410.185a1.134 1.134 0 01-1.133-1.134M86.005 372.398c.626 0 1.134.508 1.134 1.134M87.139 409.052c0 .626-.508 1.134-1.134 1.134M121.902 339.524v-4.156M121.146 334.612H81.093M80.337 335.368v4.156M81.093 340.28h40.053M80.337 339.524v32.874M80.337 372.398h2.645M90.111 372.398h2.267M121.902 371.265v-29.852M120.769 340.28H92.378M91.245 341.414v29.852M92.378 372.398h28.391M81.849 371.265v-29.852M82.982 340.28h7.129M91.245 341.414v29.852M90.111 372.398h-7.129M87.139 341.414v29.852M121.146 334.612c.418 0 .756.339.756.756M80.337 335.368c0-.417.338-.756.756-.756M81.093 340.28a.756.756 0 01-.756-.756M121.902 339.524a.755.755 0 01-.756.756M120.769 340.28c.626 0 1.133.508 1.133 1.134M91.245 341.414c0-.626.507-1.134 1.133-1.134M92.378 372.398a1.133 1.133 0 01-1.133-1.133M121.902 371.265c0 .626-.507 1.133-1.133 1.133M81.849 341.414c0-.626.507-1.134 1.133-1.134M90.111 340.28c.626 0 1.134.508 1.134 1.134M91.245 371.265c0 .626-.508 1.133-1.134 1.133M82.982 372.398a1.133 1.133 0 01-1.133-1.133M86.005 340.28c.626 0 1.134.508 1.134 1.134M87.139 371.265c0 .626-.508 1.133-1.134 1.133M121.902 451.75h37.787M121.902 451.75v-2.646M159.689 451.75v-2.646M121.902 441.975v-2.267M159.689 441.975v-2.267M158.555 410.185h-35.519M121.902 411.318v28.391M123.036 440.842h35.519M159.689 439.709v-28.391M158.555 450.238h-35.519M121.902 449.104v-7.129M123.036 440.842h35.519M159.689 441.975v7.129M123.036 444.948h35.519M121.902 411.318c0-.626.508-1.133 1.134-1.133M123.036 440.842a1.134 1.134 0 01-1.134-1.134M159.689 439.709c0 .626-.508 1.134-1.134 1.134M158.555 410.185c.626 0 1.134.507 1.134 1.133M123.036 450.238a1.134 1.134 0 01-1.134-1.134M121.902 441.975c0-.626.508-1.133 1.134-1.133M158.555 440.842c.626 0 1.134.507 1.134 1.133M159.689 449.104c0 .627-.508 1.134-1.134 1.134M121.902 446.082c0-.626.508-1.134 1.134-1.134M158.555 444.948c.626 0 1.134.508 1.134 1.134M304.472 286.727l-.469-1.645m0 0l-.718-1.551m0 0l-.968-1.231m0 0l-1.248-.942m0 0l-1.448-.594m0 0l-1.551-.206m0 0l-1.551.206m0 0l-1.447.594m0 0l-1.249.942m0 0l-.968 1.231m0 0l-.718 1.551m0 0l-.469 1.645m0 0l-.207 1.697m0 0l.059 1.71m0 0l1.223 11.584m0 0h10.654m0 0l1.223-11.584m0 0l.06-1.71m0 0l-.208-1.697M293.953 295.998h4.117M298.07 295.998h4.117M295.006 281.731a5.747 5.747 0 013.064-.887M291.759 288.56c-.166-2.591 1.031-5.106 3.248-6.829M293.953 295.998c-1.505-2.253-2.266-4.828-2.195-7.437M304.382 288.56c.07 2.609-.689 5.185-2.195 7.437M301.134 281.731c2.217 1.723 3.413 4.238 3.248 6.829M298.07 280.844a5.734 5.734 0 013.063.887M293.422 301.719h9.295m0 0v-.188m0-.001h-9.295m0 0v.188M307.517 301.719h-18.894M307.517 306.254h-18.894M307.517 301.719v4.534M288.623 301.719v4.534M313.733 307.764l29.493-.04m0 0l.401-.167m0 0l.166-.4m0 0l-.019-13.81m0 0l-.166-.4m0 0l-.401-.165m0 0l-29.494.039m0 0l-.4.167m0 0l-.166.401m0 0l.019 13.809m0 0l.166.4m0 0l.401.166M314.862 303.606l13.159-.018m.907-.001l13.16-.018M342.654 303.003l-.012-8.52M342.075 293.917l-27.226.037M314.283 294.521l.011 8.519M342.654 303.003a.566.566 0 01-.566.566M342.075 293.917c.313 0 .567.253.567.566M314.283 294.521c0-.313.253-.567.566-.567M314.862 303.606a.568.568 0 01-.568-.566M329.226 300.646a.752.752 0 01-.302.604l-.001-1.21a.759.759 0 01.303.606zm-1.209.605a.755.755 0 01-.002-1.209l.002 1.209zM328.933 307.214l-.907.001m0 0l-.01-7.748m0 .001l.255-.301m-.001 0l.395-.001m.001-.001l.257.301m-.001 0l.01 7.748M327.724 307.216l1.512-.003m0 .001v.266m0-.001l-1.512.002m0 0v-.265M327.346 307.481l2.267-.003m0 0l.001.265m0 0l-2.268.003m0 0v-.265M325.209 305.859l.002 1.625m0 0h.095m0 0v.132m0 0h.283m0 0v.133m0 0l-1.889.002m0 0v-.133m0 0h.283m0 0v-.133m0 0h.095m0 0l-.002-1.624m0 0l.321-.001m0 0l-.001-.415m0 0l-1.077.001m0 0l-.001-.491m0 0l2.645-.003m0 0l.001.49m0 0l-1.077.002m0 0l.001.416m0 0l.321-.001M331.746 305.85l.002 1.625m0 0h-.094m0 0v.133m0 0h-.283m0 0v.133m0 0l1.889-.003m0 0v-.133m0 0l-.284.001m0 0v-.133m0 0h-.094m0 0l-.002-1.625m0 0l-.322.001m0 0v-.415m0 0l1.077-.002m0 0l-.001-.491m0 0l-2.645.004m0 0l.001.491m0 0l1.077-.002m0 0v.416m0 0h-.321M324.396 305.445l.072-.072M324.887 305.444l-.072-.072M324.397 305.86h.491M324.077 307.485l1.135-.001M325.305 307.616l-1.321.002M332.558 305.434l-.072-.072M332.067 305.434l.072-.072M332.558 305.849l-.491.001M332.882 307.473l-1.133.002M331.654 307.608l1.323-.002M324.887 305.199a.245.245 0 11-.491 0 .246.246 0 11.491 0zM332.558 305.188a.246.246 0 11-.492 0 .246.246 0 01.492 0zM284.86 237.86v40.054M284.86 277.914h-31M261.417 244.472a.945.945 0 11-1.89 0 .945.945 0 011.89 0zM266.843 253.57l.373-1.397m0 0l.792-1.208m0 0l1.133-.899m0 0l1.358-.495m0 0l1.445-.044m0 0l1.384.414m0 0l1.185.828m0 0l.863 1.159m0 0l.455 1.372m0 0v1.446m0 0l-.455 1.372m0 0l-.863 1.16m0 0l-1.185.828m0 0l-1.384.413m0 0l-1.445-.043m0 0l-1.358-.496m0 0l-1.133-.897m0 0l-.792-1.209m0 0l-.373-1.397m0 0h-5.538m0 0l.109.455m0 0l.036.49m0 0l-.036.489m0 0l-.109.455m0 0l-.172.392m0 0l-.225.299m0 0l-.261.19m0 0l-.28.064m0 0h-.402m0 0l-.121-.019m0 0l-.277-.064m0 0l-.104-.054m0 0l-.251-.182m0 0l-.07-.078m0 0l-.205-.274m0 0l-.157-.357m0 0l-.051-.195m0 0l-.06-.25m0 0l-.688-.02m0 0l-.796-.009m0 0v1.729m0 0h-.434m0 0v2.871m0 0l-.059.16m0 0l-.148.083m0 0l-.167-.033m0 0l-.105-.134m0 0l-.158-.485m0 0l-.315-.726m0 0l-.574-1.008m0 0l-.258-.728m0 0h-.124m0 0v.604m0 0h-.983m0 0v-2.569m0 0h.878m0 0l.01-.024m0 0l.027-.039m0 0l.035-.033m0 0l.04-.025m0 0l.673-.278m0 0v-.697m0 0h-1.361m0 0v1.058m0 0h-.302m0 0v-3.023m0 0h.302m0 0v1.058m0 0h1.361m0 0v-1.437m0 0h.151m0 0v-.415m0 0h-.303m0 0v.152m0 0h-.528m0 0v.604m0 0h-.983m0 0v-2.569m0 0h.983m0 0v.604m0 0h.528m0 0v.152m0 0h.303m0 0v-.152m0 0h1.511m0 0v2.57m0 0h2.154m0 0v.023m0 0v.059m0 0v.094m0 0v.123m0 0v.15m0 0v.042m0 0h7.504M255.523 255.913v-.21m0 0l-.341.141m0 0l-.053.325m0 0l.002.009m0 0h.241m0 0v.151m0 0h.302m0 0v-.416m0 0h-.151M255.674 257.386h-.24m0 0l.239.677m0 0l.564.987m0 0l.023.054m0 0v-1.567m0 0h-.586m0 0v-.151M254.843 251.53h.529M254.843 250.849h.529M254.843 257.186v.352M255.372 256.329v.188M255.372 256.517v.681M255.372 257.198v.014M255.196 256.517h.176M255.367 257.198h.005M255.674 257.386v-1.058M257.186 255.034v-.557M256.26 257.538h.491M257.752 254.968v-.491M256.739 260.333l.012.076M254.635 256.184l.002-.048M254.667 256.354l-.032-.17M254.719 255.639l.01-.047M254.729 255.592l.009-.02M254.967 257.538l-.161-.453M254.807 257.085l-.14-.73M255.139 256.228l-.009-.06M256.739 260.333l-.167-.512M256.572 259.821l-.312-.717M254.824 257.127v-.001M254.637 256.136l.082-.497M259.24 254.479l-.001-.002M258.71 254.477l-.002.002M256.07 255.913h-.127M255.825 255.913h-.103M255.943 255.913h-.118M255.523 255.703v-.523M255.279 256.951l-.14-.723M255.433 257.386l-.154-.436M256.156 255.233v-.001M256.112 255.324l.044-.091M256.097 255.422l.015-.098M256.112 255.519l-.015-.098M256.156 255.61l-.044-.091M256.156 255.61v.001M258.652 255.766l-.026-.345M258.626 255.422l.026-.346M258.669 255.838l-.017-.071M258.729 254.756l.051-.195M258.652 255.077l.077-.321M256.323 255.791l.062.009M258.78 254.56l.037-.083M258.669 255.006l-.688.02M256.385 255.044l-.062.009M256.323 255.052l-.058.026M256.266 255.079l-.051.043M256.216 255.122l-.038.054M256.178 255.175l-.021.057M256.157 255.233l-.003.007M256.154 255.24l-.008.068M256.145 255.308v.227M256.145 255.535l.008.068M256.154 255.603l.003.007M256.157 255.611l.021.056M256.178 255.667l.038.056M256.216 255.722l.05.042M256.266 255.764l.057.026M257.981 255.025l-1.596.019M257.186 255.809l-.8-.01M256.883 255.913v-.107M256.883 255.038v-.561M266.843 253.57h5.343M266.843 254.477h5.343M272.186 253.57v.907M254.843 250.51v1.36M255.372 250.661v1.058M255.674 250.661v1.058M255.674 252.134h1.209M256.883 255.913h-1.209M254.163 253.57v.907M255.523 253.57h3.816M261.306 254.477h-5.784M256.883 252.134v1.436M257.186 253.079v.491M257.752 253.079v.491M257.186 254.968h1.493M269.521 253.57a1.89 1.89 0 110 .907M256.211 252.134a.34.34 0 11.589 0M105.427 321.748h34.008m0 0v-79.352m0 0h-34.008m0 0v79.352M307.517 65.767h15.115m0 0v13.391m0 0h-15.115m0 0V65.767M284.875 277.914h-17.412m0 0v29.851m0 0h17.412m0 0v-29.851M227.599 176.458h-22.672m0 0v-22.672m0 0h22.672m0 0v22.672M216.263 161.342v7.558M218.935 162.45l-5.344 5.344M220.041 165.122h-7.556M218.935 167.793l-5.344-5.343M197.558 173.624h-19.271m.001 0l-.534-.222m0 0l-.221-.534m0 0v-17.382m0 0l.221-.534m0 0l.534-.222m0 0h19.271m-.001 0l.535.222m.001 0l.221.534m-.001 0v17.382m0 0l-.221.534m.001 0l-.535.222M204.927 176.458H170.92M204.927 153.786H170.92M204.927 176.458v-22.672M170.919 176.458v-22.672M195.669 171.734h-15.492M179.421 170.978v-11.714M180.177 158.509h15.492M196.425 159.264v11.714M195.67 171.734h.108a.108.108 0 00-.108-.108.108.108 0 00-.108.108c0 .06.048.108.108.108s.108-.048.108-.108h-.108zM180.177 171.734a.756.756 0 01-.756-.756M179.421 159.264c0-.417.338-.756.756-.756M195.669 158.509c.417 0 .755.339.755.756M196.425 170.978a.756.756 0 01-.755.756M188.263 163.341l-.1.24m0 0l-.241.099m0 0l-.24-.1m0 .001l-.099-.241m0-.001v-7.476m0 .001l.099-.24m0-.001l.241-.099m0 .001l.24.099m0-.001l.1.24m0 .001v7.478M188.678 157.791h-.415m0 0v-1.927m0 0l-.099-.24m0 0l-.24-.1m0 0l-.241.1m0 0l-.1.24m0 0v1.927m0 0h-.414m0 0v-2.456m0 0h1.509m0 0v2.456M188.668 159.151h-.404m-.001 0v-1.322m0 0h.404m.001 0v1.322M187.179 159.151v-1.322m0 0h.404m0 0v1.322m0 0h-.404M170.919 176.458h-22.672M170.919 153.786h-22.672M170.919 176.458v-22.672M148.248 176.458v-22.672M125.576 176.458h22.672m0 0v-22.672m0 0h-22.672m0 0v22.672M119.53 174.379H97.614m0 0v-18.516m0 .001h21.916m0 0v18.516M108.572 163.099V157.8M108.572 157.8h-1.096M108.572 163.099h-1.096M99.718 163.099V157.8M100.814 157.8h-1.096M100.814 163.099h-1.096M117.558 160.233a2.74 2.74 0 11-5.48 0 2.74 2.74 0 015.48 0zM117.514 168.472a3.968 3.968 0 11-7.935 0 3.968 3.968 0 017.935 0z"/><path class="st1" d="M115.814 168.472a2.267 2.267 0 11-4.535.001 2.267 2.267 0 014.535-.001zM106.79 160.419a2.645 2.645 0 11-5.29 0 2.645 2.645 0 015.29 0zM106.428 169.01a3.4 3.4 0 11-6.802 0 3.4 3.4 0 016.802 0zM125.576 176.458H91.568M125.576 153.786H91.568M125.576 176.458v-22.672M91.568 176.458v-22.672M68.896 176.458h22.672m0 0v-22.672m0 0H68.896m0 0v22.672M257.639 29.091h50.633M257.639 10.575h50.633M308.272 29.091V10.574M257.639 29.091V10.574M261.606 26.068h17.381M278.988 26.068V15.11M278.988 15.11h-8.238m-.906 0h-8.237M261.606 15.11v10.958M286.923 26.068h17.382M304.305 26.068V15.11M304.305 15.11h-8.239m-.905 0h-8.237M286.923 15.11v10.958M271.43 17.564c0 .465-.28.865-.681 1.04v-2.08c.402.175.681.575.681 1.04zm-1.586 1.039a1.133 1.133 0 010-2.079v2.079zM296.748 17.564c0 .465-.28.865-.681 1.04v-2.08c.4.175.681.575.681 1.04zm-1.587 1.039a1.133 1.133 0 010-2.078v2.078zM270.751 11.104h-.907m0 0v7.749m0 0l.256.301m0 0h.395m0 0l.256-.301m0 0v-7.749M269.541 11.104h1.512m0 0v-.265m0 0h-1.512m0 0v.265M269.164 10.839h2.267m-.001 0v-.265m0 0h-2.267m.001 0v.265M267.029 12.464v-1.625m0 0h.095m0 0v-.132m0 .001h.283m0 0v-.133m0-.001h-1.89m0 0v.133m0 .001h.284m0 0v.132m0-.001h.094m0 0v1.625m0 0h.322m0 0v.416m0 0h-1.078m0 0v.491m0 .001h2.646m0 0v-.492m0 0h-1.077m0 0v-.416m0 0h.321M273.566 12.464v-1.625m0 0h-.095m0 0v-.132m0 .001h-.283m0 0v-.133m0-.001h1.889m0 0v.133m0 .001h-.283m0 0v.132m0-.001h-.094m0 0v1.625m0 0h-.322m0 0v.416m0 0h1.077m0 0v.491m0 .001h-2.645m0 0v-.492m0 0h1.077m0 0v-.416m0 0h-.321M296.068 11.104h-.907m0 0v7.749m0 0l.256.301m0 0h.395m0 0l.256-.301m0 0v-7.749M294.858 11.104h1.511m0 0v-.265m0 0h-1.511m0 0v.265M294.48 10.839h2.267m0 0v-.265m0 0h-2.267m0 0v.265M292.346 12.464v-1.625m0 0h.094m0 0v-.132m0 .001h.284m0 0v-.133m0-.001h-1.889m0 0v.133m0 .001h.283m0 0v.132m0-.001h.094m0 0v1.625m0 0h.322m0 0v.416m0 0h-1.078m0 0v.491m0 .001h2.646m0 0v-.492m0 0h-1.077m0 0v-.416m0 0h.321M298.883 12.464v-1.625m0 0h-.095m0 0v-.132m0 .001h-.283m0 0v-.133m0-.001h1.889m0 0v.133m0 .001h-.283m0 0v.132m0-.001h-.095m0 0v1.625m0 0h-.321m0 0v.416m0 0h1.077m0 0v.491m0 .001h-2.645m0 0v-.492m0 0h1.077m0 0v-.416m0 0h-.321M266.216 12.881l.072.072M266.707 12.881l-.072.072M266.216 12.464h.491M265.895 10.839h1.134M267.123 10.708h-1.322M274.378 12.881l-.072.072M273.887 12.881l.072.072M274.378 12.464h-.491M274.7 10.839h-1.134M273.471 10.708h1.323M291.533 12.881l.072.072M292.024 12.881l-.072.072M291.533 12.464h.491M291.212 10.839h1.134M292.44 10.708h-1.322M299.695 12.881l-.072.072M299.203 12.881l.072.072M299.695 12.464h-.491M300.016 10.839h-1.133M298.788 10.708h1.323M266.707 13.126a.245.245 0 11-.49.002.245.245 0 01.49-.002zM274.378 13.126a.245.245 0 11-.49.002.245.245 0 01.49-.002zM292.024 13.126a.245.245 0 11-.49.002.245.245 0 01.49-.002zM299.695 13.126a.245.245 0 11-.49.002.245.245 0 01.49-.002zM166.151 167.062a3.411 3.411 0 11-6.824 0 3.411 3.411 0 016.824 0z"/><path class="st1" d="M165.63 167.062a2.89 2.89 0 11-5.78.001 2.89 2.89 0 015.78-.001zM159.011 167.894a2.579 2.579 0 11-5.158 0 2.579 2.579 0 015.158 0z"/><path class="st1" d="M157.876 167.894a1.444 1.444 0 11-2.889.001 1.444 1.444 0 012.889-.001zM387.679 356.331a3.778 3.778 0 11-7.557 0 3.778 3.778 0 017.557 0z"/><path class="st1" d="M385.034 356.331a1.134 1.134 0 11-2.267.001 1.134 1.134 0 012.267-.001zM387.679 445.129a3.778 3.778 0 11-7.557 0 3.778 3.778 0 017.557 0z"/><path class="st1" d="M385.034 445.129a1.134 1.134 0 11-2.267.001 1.134 1.134 0 012.267-.001zM97.435 20.344a3.778 3.778 0 11-7.557.001 3.778 3.778 0 017.557-.001z"/><path class="st1" d="M94.79 20.344a1.133 1.133 0 11-2.266.002 1.133 1.133 0 012.266-.002zM186.233 20.344a3.778 3.778 0 11-7.557.001 3.778 3.778 0 017.557-.001z"/><path class="st1" d="M183.588 20.344a1.133 1.133 0 11-2.266.002 1.133 1.133 0 012.266-.002zM171.675 89.927h-68.016m0 0V14.354m0 0h68.016m0 0v75.572M169.785 91.816H105.55m0 0l-.723-.144m-.001 0l-.614-.41m0 0l-.409-.613m.001 0l-.144-.723m0 0h68.016m0 0l-.144.723m0 0l-.41.613m-.001 0l-.613.41m.001 0l-.723.144M171.675 10.575h-68.016m0 0v3.779m0 0h68.016m0 0v-3.779M103.66 10.575h68.016m0 0v1.89m0 0H103.66m0 0v-1.89M101.77 10.575H84.766m0 0v18.894m0 0h17.004m0 0V10.575M173.564 10.575h17.004m0 0v18.894m0 0h-17.004m0 0V10.575M131.621 16.244h-25.695m.001 0l-.267.11m0 0l-.11.268m0 0v12.469m0 0l.11.267m0 0l.267.111m0 0h25.695m-.001 0l.268-.111m.001 0l.11-.267m0 0V16.622m0 0l-.11-.268m0 0l-.268-.11M143.713 16.244h25.694m0 0l.267.11m0 0l.111.268m0 0v12.469m0 0l-.111.267m0 0l-.267.111m0 0h-25.694m0 0l-.268-.111m0 0l-.11-.267m0 0V16.622m0 0l.11-.268m0 0l.268-.11M171.675 28.445h-1.89M143.335 28.445h-11.336M105.549 28.445h-1.89M171.675 33.455h-68.016m0 0v18.686m0 0l68.016-14.908m0 0v-3.778M205.116 10.575h22.671m0 0v68.583m0 0h-22.671m0 0V10.575M216.83 79.158h-.756m0 0V10.575m0 0h.756m0 0v68.583M207.109 18.012h18.626m0 0v.756m0 0h-18.626m0 0v-.756M207.109 20.017h18.626m0 0v.756m0 0h-18.626m0 0v-.756M207.109 22.022h18.626m0 0v.756m0 0h-18.626m0 0v-.756M207.109 24.026h18.626m0 0v.756m0 0h-18.626m0 0v-.756M207.244 28.272l18.491-2.241m0 0l.091.75m0 0l-18.491 2.241m0 0l-.091-.75M299.959 83.692h22.672m.001 0v59.136m0 0H299.96m-.001 0V83.692M310.723 83.692h.755m-.001 0v59.136m0 0h-.755m.001 0V83.692M320.443 135.39h-18.626m0 0v-.756m0 0h18.626m0 0v.756M320.443 133.385h-18.626m0 0v-.755m0 0h18.626m0 0v.755M320.443 131.382h-18.626m0 0v-.756m0 0h18.626m0 0v.756M320.443 129.377h-18.626m0 0v-.756m0 0h18.626m0 0v.756M320.308 125.131l-18.491 2.241m-.001 0l-.091-.75m0 0l18.492-2.241m.001 0l.09.75M314.318 434.348v-68.015m0 0h75.573m0 0v68.015m0 0h-75.573M312.429 432.46v-64.237m0 0l.144-.723m0 0l.41-.613m0 0l.613-.409m0 0l.723-.144m0 0v68.015m0 0l-.723-.144m0 0l-.613-.409m0 0l-.41-.613m0 0l-.144-.723M393.669 434.348v-68.015m0 0h-3.778m0 0v68.015m0 0h3.778M393.669 366.334v68.015m0 0h-1.889m0 0v-68.015m0 0h1.889M393.669 364.444V347.44m0 0h-18.893m0 0v17.004m0 0h18.893M393.669 436.238v17.004m0 0h-18.893m0 0v-17.004m0 0h18.893M388.001 394.296v-25.695m0 0l-.11-.267m0 0l-.267-.111m0-.001h-12.47m0 0l-.268.111m0 .001l-.11.267m0 0v25.695m0 0l.11.267m0 0l.268.11m0 0h12.47m0 0l.267-.11m0 0l.11-.267M388.001 406.387v25.694m0 0l-.11.268m0 0l-.267.11m0 0h-12.47m0 0l-.268-.11m0 0l-.11-.268m0 0v-25.694m0 0l.11-.268m0 0l.268-.11m0 0h12.47m0 0l.267.11m0 0l.11.268M375.8 434.348v-1.889M375.8 406.009v-11.336M375.8 368.222v-1.889M370.79 434.348v-68.015m0 0h-18.686m0 0l14.908 68.015m0 0h3.778M236.647 393.473h1.02m0 0v-44.369m0 0h-1.02m0 0v44.369M237.666 392.07l3.41.709m0 0l-.141.681m0 0l-3.269-.681m0 0v-.709M237.666 383.772h.832m0 0l.567-.151m0 0l.415-.415m0 0l.152-.567m.001 0V359.94m0 0l-.152-.567m-.001 0l-.415-.415m0 0l-.567-.152m0 0h-.832m0 0v24.966M236.289 392.07l-3.41.709m.001 0l.141.681m-.001 0l3.269-.681m0 0v-.709M237.666 350.508l3.41-.709m0 .001l-.141-.681m0-.001l-3.269.681m0 .001v.709M236.349 350.508l-3.41-.709m0 .001l.141-.681m0-.001l3.269.681m0 .001v.709M236.349 393.473h.298m0 0v-44.369m0 0h-.298m0 0v44.369M253.86 234.836v-24.561m0 0h89.931m0 0v24.561m0 0H253.86M343.792 221.612v.756m0 0H253.86m0 0v-.756m0 0h89.931M261.297 231.333v-18.626m0 0h.756m0 0v18.626m0 0h-.756M263.302 231.333v-18.626m0 0h.756m0 0v18.626m0 0h-.756M265.306 231.333v-18.626m0 0h.756m0 0v18.626m0 0h-.756M267.311 231.333v-18.626m0 0h.756m0 0v18.626m0 0h-.756M271.557 231.197l-2.242-18.49m0 0l.751-.091m0 0l2.241 18.49m0 0l-.75.091M284.875 277.914h-17.412m0 0v29.851m0 0h17.412m0 0v-29.851M324.521 333.46v-22.672m0 0h-70.66m-.001 0v154.734m0 0h22.672m.001 0V333.46m0 0h47.988M264.954 321.746l.756.756m0 0h58.81m.001 0v-.756m0 0h-59.566M264.954 465.522h.756m0 0V322.501m0 0l-.756-.755m0 0v143.776M274.676 457.33H256.05m0 0v-.756m0 0h18.626m0 0v.756M274.676 455.325H256.05m0 0v-.756m0 0h18.626m0 0v.756M274.676 453.321H256.05m0 0v-.756m0 0h18.626m0 0v.756M274.676 451.316H256.05m0 0v-.756m0 0h18.626m0 0v.756M274.54 447.07l-18.491 2.241m0 0l-.091-.75m0 0l18.491-2.241m0 0l.091.75M166.809 169.27h-.964m0 0v1.203m0 0h-12.524m0 0v-1.203m0 0h-.963M165.345 159.743l-.047.104m-.048.103l-.047.103m-.047.103l-.047.103m-.047.103l-.048.104m-.046.102l-.048.104m-.047.102l-.047.104m-.047.102l-.047.104m-.047.102l-.048.104m-.047.103l-.047.103m-.047.103l-.047.103m-.047.104l-.048.103m-.047.103l-.046.103m-.048.103l-.047.103m-.047.103l-.047.103m-.047.103l-.048.103m-.047.104l-.047.102m-.047.104l-.047.103M155.711 159.743l.047.104m.047.103l.047.103m.047.103l.048.103m.047.103l.047.104m.047.102l.047.104m.048.102l.047.104m.046.102l.048.104m.047.102l.047.104m.047.103l.047.103m.048.103l.047.103m.047.104l.047.103m.047.103l.047.103m.047.103l.048.103m.047.103l.047.103m.047.103l.047.103m.048.104l.046.102m.048.104l.047.103M165.345 159.743h-.078m-.113 0h-.114m-.113 0h-.113m-.114 0h-.078m0 0l-.042.052m-.071.089l-.072.088m-.071.087l-.071.088m-.072.088l-.071.088m-.072.088l-.071.088m-.072.088l-.071.088m-.071.089l-.072.087m-.071.088l-.072.088m-.071.088l-.072.088m-.071.088l-.072.089m-.071.088l-.071.087m-.072.088l-.071.088m-.072.088l-.071.088m-.072.088l-.071.089m-.072.088l-.071.088m-.071.087l-.072.088m-.071.088l-.072.088m-.072.088l-.071.088m-.071.089l-.072.088m-.071.088l-.071.087m-.072.088l-.072.088m-.071.088l-.072.088m-.071.089l-.042.051M155.711 159.743h.078m.113 0h.113m.113 0h.114m.114 0h.077m0 0l.042.052m.072.089l.071.088m.072.087l.071.088m.072.088l.071.088m.071.088l.072.088m.071.088l.072.088m.071.089l.072.087m.071.088l.071.088m.072.088l.071.088m.072.088l.071.089m.072.088l.071.087m.072.088l.071.088m.072.088l.071.088m.071.088l.072.089m.071.088l.072.088m.071.087l.072.088m.071.088l.071.088m.072.088l.071.088m.072.089l.071.088m.072.088l.071.087m.072.088l.071.088m.072.088l.071.088m.071.089l.042.051M155.711 159.265h9.634m0 0v.478m0 0h-.723m0 0v-.237m0 0h-8.189m0 0v.237m0 0h-.722m0 0v-.478M222.22 128.28h36.665m0 0v14.548m0 0H222.22m0 0V128.28M307.517 65.767h15.115m0 0v13.391m0 0h-15.115m0 0V65.767M383.04 352.651l.86 3.68m0 0l3.431 1.584m0 0l-3.431-1.584m0 0l-3.546 1.306M383.04 448.808l.86-3.68m0 0l3.431-1.584m0 0l-3.431 1.584m0 0l-3.546-1.305M89.978 21.205l3.679-.86m0 0l1.584-3.431m0 0l-1.584 3.431m0 0l1.306 3.546M186.134 21.205l-3.679-.86m0 0l-1.584-3.431m0 0l1.584 3.431m0 0l-1.306 3.546"/><g><path class="st1" d="M518.364 218.212a7.179 7.179 0 11-14.358 0 7.179 7.179 0 1114.358 0zM516.53 346.317a3.778 3.778 0 11-7.557.001 3.778 3.778 0 017.557-.001z"/><path class="st1" d="M513.885 346.317a1.134 1.134 0 11-2.267 0 1.134 1.134 0 012.267 0zM516.53 435.115a3.778 3.778 0 11-7.557.001 3.778 3.778 0 017.557-.001z"/><path class="st1" d="M513.885 435.115a1.134 1.134 0 11-2.267 0 1.134 1.134 0 012.267 0zM443.169 424.336V356.32m0-.001h75.572m0 0v68.016m0 .001h-75.572M441.28 422.446V358.21m0 0l.144-.723m0 0l.409-.613m0 0l.613-.41m0 0l.723-.144m0 0v68.016m0 0l-.723-.144m0 0l-.613-.41m0 0l-.409-.613m0 0l-.144-.723M522.521 424.336V356.32m0-.001h-3.779m0 0v68.016m0 .001h3.779M522.521 356.32v68.016m0 0h-1.89m0 0V356.32m0 0h1.89M522.521 354.43v-17.004m0 0h-18.894m0 0v17.004m0 0h18.894M522.521 426.225v17.004m0 0h-18.894m0 0v-17.004m0 0h18.894M516.853 384.282v-25.694m0 0l-.11-.268m0 0l-.268-.11m0 0h-12.47m0 0l-.266.11m0 0l-.112.268m0 0v25.694m0 0l.112.268m0 0l.266.11m0 0h12.47m0 0l.268-.11m0 0l.11-.268M516.853 396.374v25.694m0 0l-.11.268m0 0l-.268.11m0 0h-12.47m0 0l-.266-.11m0 0l-.112-.268m0 0v-25.694m0 0l.112-.268m0 0l.266-.11m0 0h12.47m0 0l.268.11m0 0l.11.268M504.651 424.336v-1.89M504.651 395.996V384.66M504.651 358.21v-1.89M499.642 424.336V356.32m0-.001h-18.686m0 0l14.907 68.016m0 .001h3.779M511.701 224.219l-.449-1.233m0 0v-1.313m0 0l.449-1.232m0 0l-.342-1.474m0 0v-1.513m0 0l.342-1.472m0 0l-.45-1.236m0 0v-1.313m0 0l.45-1.235m0 0l-2.987 2.232m0 0v7.558m0 0l2.987 2.231M508.452 221.988v-7.558m0 0h.262m0 0v7.558m0 0h-.262M507.929 221.988v-7.558m0 0h.261m0 0v7.558m0 0h-.261M513.216 217.368l.085.891m0 0l-.226.021m0 0l-.046-.476m0 0l-1.142 1.383m0 0l-.152-.126m0 0l.53-.642m0 0l-.081-.067m0 0l-.612.74m0 0l-.145-.121m0 0l.61-.74m0 0l-.097-.08m0 0l-.496.601m0 0l-.131-.107m0 0l.497-.601m0 0l-.098-.081m0 0l-.342.414m0 0l-.139-.115m0 0l1.173-1.422M522.521 229.546v-22.671m0 .001h-22.672m0 0v22.671m0-.001h22.672M402.738 176.268v-22.672m0 0h106.179m0 0v22.672m0 0H402.738M508.917 164.554v.756m0 0H402.738m0 0v-.756m0 0h106.179M412.442 174.275v-18.626m0 0h.755m0 0v18.626m0 0h-.755M414.447 174.275v-18.626m0 0h.756m0 0v18.626m0 0h-.756M416.451 174.275v-18.626m0 0h.756m0 0v18.626m0 0h-.756M418.456 174.275v-18.626m0 0h.755m.001 0v18.626m0 0h-.755M422.702 174.14l-2.242-18.491m0 0l.751-.091m0 0l2.241 18.491m0 0l-.75.091M451.86 255.242V232.57m0 0h70.661m0 0v74.628m0 0h-22.672m0 0v-51.956m0 0H451.86M511.426 243.528l-.756.756m0 0h-58.81m0 0v-.756m0 0h59.566M511.426 307.198h-.756m0 0v-62.914m0 0l.756-.756m0 0v63.67M501.705 297.494h18.626m0 0v-.756m0 0h-18.626m0 0v.756M501.705 295.489h18.626m0 0v-.756m0 0h-18.626m0 0v.756M501.705 293.485h18.626m0 0v-.756m0 0h-18.626m0 0v.756M501.705 291.48h18.626m0 0v-.756m0 0h-18.626m0 0v.756M501.84 287.234l18.491 2.241m0 0l.091-.75m0 0l-18.49-2.241m0 0l-.092.75M499.849 176.268h22.672m0 0v30.607m0 0h-22.672m0 0v-30.607M511.426 206.876h-.756m0 0v-30.607m0 0h.756m0 0v30.607M501.705 183.78h18.626m0 0v.756m0 0h-18.626m0 0v-.756M501.705 185.785h18.626m0 0v.756m0 0h-18.626m0 0v-.756M501.705 187.79h18.626m0 0v.756m0 0h-18.626m0 0v-.756M501.705 189.795h18.626m0 0v.755m0 0h-18.626m0 0v-.755M501.84 194.04l18.491-2.241m0 0l.091.751m0 0l-18.49 2.24m0 0l-.092-.75M511.891 342.638l.86 3.679m0 0l3.431 1.584m0 0l-3.431-1.584m0 0l-3.546 1.306M511.891 438.795l.86-3.68m0 0l3.431-1.583m0 0l-3.431 1.583m0 0l-3.546-1.305"/></g></g><g id="walls_1_"><path class="st3" d="M45.844 7.803H.5m0 0V600.67m0 0h527.119m0 0V487.311m0 0H504.57m0 0v.756m0 0h-81.619m0 0v-.756m0 0h-46.855m0 0v.756m0 0h-64.614m0 0v-.756m0 0h-94.088m0 0v.756m0 0H177.34m0 0v-.756m0 0h-46.099m0 0v.794m0 0h-86.19m0 0V334.844m0 0h.793m0 0v-74.628m0 0h-.756m0 0v-83.13m0 0h.756m0 0v-63.103m0 0h-.756m0 0V49.368m0 0h.756m0 0V7.803M505.325 479.754V466.15M505.325 487.311v-5.667M505.325 481.644v-1.89M422.195 479.754V466.15M422.195 487.311v-5.667M422.195 481.644v-1.89M422.195 487.311h83.13M422.195 466.151h83.13M422.195 479.754h3.779M425.974 479.754v1.89M425.974 481.644h-3.779M476.986 481.644h-1.89M475.096 481.644v-1.89M475.096 479.754h1.89M425.974 480.698h49.122M425.974 479.754h49.122M475.096 481.644h-49.122M476.986 479.754h.945M477.93 479.754v.944M477.93 480.698h.945M478.875 480.698v.945M478.875 481.644h-1.889M505.325 481.644h-3.778M501.547 481.644v-.945M501.547 480.698h.945M502.492 480.698v-.944M502.492 479.754h2.833M501.547 481.644h-22.672M480.764 478.81h18.893M477.93 478.81h2.834M480.764 478.81v1.889M480.764 480.698h-2.834M477.93 480.698v-1.889M502.492 480.698h-2.835M499.657 480.698v-1.889M499.657 478.81h2.835M502.492 478.81v1.889M499.657 480.698h-18.893M480.764 478.81h18.893M480.764 479.754h18.893M422.195 481.644v-1.89M422.195 481.644v-1.89M422.195 487.311v-5.667M422.195 479.754V466.15M505.325 481.644v-1.89M505.325 481.644v-1.89M505.325 487.311v-5.667M505.325 479.754V466.15M422.195 487.311v-21.16"/><g><path class="st3" d="M310.726 479.754V466.15M310.726 487.311v-5.667M310.726 481.644v-1.89M376.852 479.754V466.15M376.852 487.311v-5.667M376.852 481.644v-1.89M376.852 487.311h-66.126M376.852 466.151h-66.126M376.852 479.754h-3.779M373.073 479.754v1.89M373.073 481.644h3.779M339.066 481.644h1.889M340.955 481.644v-1.89M340.955 479.754h-1.889M373.073 480.698h-32.118M373.073 479.754h-32.118M340.955 481.644h32.118M339.066 479.754h-.946M338.121 479.754v.944M338.121 480.698h-.944M337.177 480.698v.945M337.177 481.644h1.889M310.726 481.644h3.779M314.504 481.644v-.945M314.504 480.698h-.944M313.56 480.698v-.944M313.56 479.754h-2.834M314.504 481.644h22.673M335.287 478.81h-18.893M338.121 478.81h-2.834M335.287 478.81v1.889M335.287 480.698h2.834M338.121 480.698v-1.889M313.56 480.698h2.834M316.394 480.698v-1.889M316.394 478.81h-2.834M313.56 478.81v1.889M316.394 480.698h18.893M335.287 478.81h-18.893M335.287 479.754h-18.893M376.852 481.644v-1.89M376.852 481.644v-1.89M376.852 487.311v-5.667M376.852 479.754V466.15M310.726 481.644v-1.89M310.726 481.644v-1.89M310.726 487.311v-5.667M310.726 479.754V466.15M310.726 487.311v-21.16"/></g><g><path class="st3" d="M176.585 479.754V466.15M176.585 487.311v-5.667M176.585 481.644v-1.89M218.149 479.754V466.15M218.149 487.311v-5.667M218.149 481.644v-1.89M218.149 487.311h-41.565M218.149 466.151h-41.565M218.149 479.754h-3.778M214.371 479.754v1.89M214.371 481.644h3.779M204.924 481.644h1.89M206.814 481.644v-1.89M206.814 479.754h-1.89M214.371 480.698h-7.557M214.371 479.754h-7.557M206.814 481.644h7.557M204.924 479.754h-.944M203.98 479.754v.944M203.98 480.698h-.945M203.035 480.698v.945M203.035 481.644h1.889M176.585 481.644h3.778M180.363 481.644v-.945M180.363 480.698h-.944M179.419 480.698v-.944M179.419 479.754h-2.834M180.363 481.644h22.672M201.146 478.81h-18.893M203.98 478.81h-2.834M201.146 478.81v1.889M201.146 480.698h2.834M203.98 480.698v-1.889M179.419 480.698h2.834M182.253 480.698v-1.889M182.253 478.81h-2.834M179.419 478.81v1.889M182.253 480.698h18.893M201.146 478.81h-18.893M201.146 479.754h-18.893M218.149 481.644v-1.89M218.149 481.644v-1.89M218.149 487.311v-5.667M218.149 479.754V466.15M176.585 481.644v-1.89M176.585 481.644v-1.89M176.585 487.311v-5.667M176.585 479.754V466.15M176.585 466.151v21.16"/></g><g><path class="st3" d="M131.241 479.754V466.15M131.241 487.311v-5.667M131.241 481.644v-1.89M131.241 487.311H45.844M131.241 466.151H68.893M131.241 479.754h-4.723M126.518 479.754v1.89M126.518 481.644h4.723M53.401 481.644h4.723M58.124 481.644v-1.89M58.124 479.754h-4.723M51.512 481.644h1.889M126.518 479.754H58.124M58.124 481.644h68.394M131.241 481.644v-1.89M131.241 481.644v-1.89M131.241 487.311v-5.667M131.241 479.754V466.15M53.401 334.844h15.492M45.844 334.844h5.668M51.512 334.844h1.889M45.844 334.844v152.467M68.893 334.844v131.307M53.401 334.844v4.723M53.401 339.567h-1.889M51.512 339.567v-4.723M51.512 479.754v-4.724M51.512 475.03h1.889M53.401 475.03v4.724M51.512 481.644v-1.89M53.401 339.567V475.03M51.512 475.03V339.566M51.512 334.844h1.889M51.512 334.844h1.889M45.844 334.844h5.668M53.401 334.844h15.492"/></g><g><path class="st3" d="M53.401 176.229h15.492M45.844 176.229h5.668M51.512 176.229h1.889M53.401 259.359h15.492M45.844 259.359h5.668M51.512 259.359h1.889M45.844 259.359v-83.131M68.893 259.359v-83.131M53.401 259.359v-3.778M53.401 255.58h-1.889M51.512 255.58v3.778M51.512 219.683v1.89M51.512 221.572h1.889M53.401 221.572v-1.89M52.457 255.58v-34.008M53.401 255.58v-34.008M51.512 221.572v34.008M53.401 219.683v-.944M53.401 218.738h-.944M52.457 218.738v-.945M52.457 217.793h-.945M51.512 217.793v1.89M51.512 176.229v3.779M51.512 180.008h.945M52.457 180.008v-.945M52.457 179.063h.944M53.401 179.063v-2.834M54.346 179.063l28.055 28.055M51.512 180.008v37.785M54.346 215.904v-34.008M54.346 218.738v-2.834M54.346 215.904h-1.889M52.457 215.904v2.834M52.457 218.738h1.889M52.457 179.063v2.834M52.457 181.897h1.889M54.346 181.897v-2.834M54.346 179.063h-1.889M52.457 181.897v34.008M54.346 215.904v-34.008M53.401 215.904v-34.008M82.401 207.117a39.679 39.679 0 01-28.055 11.621M51.512 259.359h1.889M51.512 259.359h1.889M45.844 259.359h5.668M53.401 259.359h15.492M51.512 176.229h1.889M51.512 176.229h1.889M45.844 176.229h5.668M53.401 176.229h15.492"/></g><g><path class="st3" d="M53.401 113.982h15.492M45.844 113.982h5.668M51.512 113.982h1.889M53.401 30.853h15.492M45.844 30.853h5.668M51.512 30.853h1.889M45.844 30.853v83.13M68.893 30.853v83.13M53.401 30.853v3.778M53.401 34.631h-1.889M51.512 34.631v-3.778M51.512 85.643v-1.89M51.512 83.753h1.889M53.401 83.753v1.89M52.457 34.631v49.122M53.401 34.631v49.122M51.512 83.753V34.631M53.401 85.643v.945M53.401 86.588h-.944M52.457 86.588v.944M52.457 87.532h-.945M51.512 87.532v-1.89M51.512 113.982v-3.778M51.512 110.204h.945M52.457 110.204v.944M52.457 111.149h.944M53.401 111.149v2.833M51.512 110.204V87.532M54.346 89.422v18.893M54.346 86.588v2.834M54.346 89.422h-1.889M52.457 89.422v-2.834M52.457 86.588h1.889M52.457 111.149v-2.834M52.457 108.315h1.889M54.346 108.315v2.834M54.346 111.149h-1.889M52.457 108.315V89.422M54.346 89.422v18.893M53.401 89.422v18.893M51.512 30.853h1.889M51.512 30.853h1.889M45.844 30.853h5.668M53.401 30.853h15.492M51.512 113.982h1.889M51.512 113.982h1.889M45.844 113.982h5.668M53.401 113.982h15.492M45.844 30.853h23.049"/></g><g><path class="st4" d="M51.531 423.865h1.89v5.133h-1.89zM51.531 381.358h1.89v5.133h-1.89z"/></g><g><path class="st0" d="M533.854 210.526v247.342h-11.336V310.849h-70.661v-3.022h70.661v-74.629H402.736v14.284h-9.069v-37.105h7.557v.453h1.512v19.345h119.782v-62.347h-13.603v-13.603h3.023v10.58h10.58v-10.58h11.336v56.301zm-131.118-28.867v-27.434h-9.069v28.946h7.557v-.453h1.512v-1.059zm-84.641-151.94l-9.825-.001V11.204h-77.462v68.582h35.007v1.511h-.454v1.511h-60.248v-3.022h22.672V11.204H68.894V.5h253.735v10.704h-11.336v15.491h11.336v3.023h-1.512v33.655h1.512v3.021h-4.535l.001-36.675zm4.534 113.736H222.218v-14.546h-17.859v14.546h-48.58v10.959H322.63v-10.959h-.001zm-103.434 0h-11.814v-11.524h11.814v11.524zm34.747 322.763v-97.45h-10.959v97.45h10.959zm0-255.314v24.561h89.847v-24.561h3.023v37.031h-1.511v-.453h-1.512v-8.994h-89.847v40.054h13.519v29.851h17.412v-6.066h28.287l.003 6.066h30.626v-29.02h1.512v-.453h1.511v29.473h10.391v1.512h-.453v1.511H253.942v18.602h-10.959V210.904h10.959zm0 70.661v26.828h10.496v-26.828h-10.496zm148.794-2.645h-9.069v29.473h-5.479v1.512h.453v1.511h5.026v11.602h9.069V278.92zm-92.597 26.43h-22.243v3.043h22.245l-.002-3.043zm12.49-225.564h-29.608v1.511h.454v1.511h29.154v-3.022z"/><path d="M533.854 145.157H384.107v1.51h-.453v7.558c50.067.014 100.134 0 150.201 0v-9.068h-.001zm-464.96 9.257v22.671h-23.05v-63.104h23.05v29.474h86.884v10.959H68.894h0zm453.624 303.454v8.283h-17.193v21.16h28.529v-29.443h-11.336 0zM68.894 30.853h-23.05V.5h23.05v30.353h0zM322.629.5h9.068v144.656l12.961.001v1.51h.454v7.558l-22.483-.001V.5h0zm71.038 322.518v143.133h-16.815v21.16h45.344v-21.16h-19.46V323.018h-9.069 0zM242.9 210.904h.083v119.114h10.875v38.751h-10.875c0 261.034-.083-104.668-.083-157.865h0zM45.844 259.359h23.05v75.484h-23.05v-75.484h0zm130.741 227.952h-45.344v-21.16h45.344v21.16h0zm134.141 0v-21.16H218.15v21.16h92.576z" fill-rule="evenodd" clip-rule="evenodd" fill="#020203" stroke="#020203" stroke-miterlimit="3"/><path class="st6" d="M72.064.499l-3.17 2.79M79.484.499l-10.59 9.33M86.914.499l-12.15 10.7M94.334.499l-12.14 10.7M101.754.499l-12.15 10.7M109.174.499l-12.15 10.7M116.594.499l-12.14 10.7M124.024.499l-12.15 10.7M131.444.499l-12.15 10.7M138.864.499l-12.14 10.7M146.284.499l-12.15 10.7M153.704.499l-12.14 10.7M161.134.499l-12.15 10.7M168.554.499l-12.15 10.7M175.974.499l-12.14 10.7M183.404.499l-12.15 10.7M190.824.499l-12.14 10.7M198.244.499l-12.15 10.7M205.664.499l-12.15 10.7M213.084.499l-12.14 10.7M220.514.499l-12.15 10.7M227.934.499l-12.15 10.7M235.354.499l-12.14 10.7M242.774.499l-14.99 13.21M250.194.499l-12.14 10.7M230.814 17.579l-3.03 2.67M257.624.499l-12.15 10.7M230.814 24.109l-3.03 2.67M265.044.499l-12.15 10.7M230.814 30.649l-3.03 2.67M272.464.499l-12.14 10.7M230.814 37.189l-3.03 2.67M279.894.499l-12.15 10.7M230.814 43.729l-3.03 2.67M287.304.499l-12.14 10.7M230.814 50.269l-3.03 2.67M294.734.499l-12.15 10.7M230.814 56.809l-3.03 2.67M212.154 79.779l-3.43 3.02M302.154.499l-12.15 10.7M230.814 63.339l-3.03 2.67M230.814 69.879l-3.03 2.67M309.574.499l-12.14 10.7M219.584 79.779l-3.43 3.02M230.814 76.419l-3.03 2.67M317.004.499l-12.15 10.7M227.004 79.779l-3.43 3.02M234.424 79.779l-3.42 3.02M311.294 12.069l-3.02 2.66M162.154 143.449l-6.37 5.61M322.634 2.079l-10.36 9.12M322.634 8.619l-2.93 2.58M241.854 79.779l-3.44 3.03M311.294 18.609l-3.02 2.66M169.574 143.449l-12.44 10.96M249.264 79.779l-3.44 3.03M311.294 25.139l-3.02 2.66M176.994 143.449l-12.45 10.96M256.694 79.779l-3.44 3.03M316.964 26.689l-3.44 3.03M184.414 143.449l-12.44 10.96M322.634 28.229l-4.54 4M264.114 79.779l-3.44 3.03M208.344 128.909l-3.98 3.5M191.834 143.449l-12.44 10.96M321.124 36.099l-3.03 2.67M199.264 143.449l-12.45 10.96M215.764 128.909l-3.43 3.02M207.384 136.289l-3.02 2.66M321.124 42.639l-3.03 2.67M207.384 142.829l-13.14 11.58M222.224 129.759l-3.03 2.67M321.124 49.179l-3.03 2.67M214.104 143.449l-12.44 10.96M222.224 136.299l-3.03 2.67M321.124 55.709l-3.03 2.67M293.804 79.779l-.78.68M222.224 142.829l-13.14 11.58M321.124 62.249l-3.03 2.67M301.224 79.779l-3.44 3.03M228.944 143.449l-12.44 10.96M308.644 79.779l-3.43 3.03M236.374 143.449l-12.45 10.96M316.074 79.779l-3.44 3.02M243.794 143.449l-12.44 10.96M322.634 80.539l-2.57 2.26M251.214 143.449l-12.44 10.96M258.644 143.449l-12.44 10.96M265.364 144.069l-11.74 10.34M265.364 150.599l-4.32 3.81M303.174 143.449l-5.92 5.22M310.594 143.449l-12.44 10.96M318.014 143.449l-12.44 10.96M248.874 210.899l-5.89 5.19M322.634 145.919l-9.64 8.49M322.634 152.459l-2.22 1.95M253.944 212.969l-10.96 9.65M253.944 219.509l-10.96 9.65M253.944 226.049l-10.96 9.65M253.944 232.589l-10.96 9.65M258.104 235.459l-3.43 3.02M253.944 239.119l-10.96 9.66M265.524 235.459l-3.43 3.02M253.944 245.659l-10.96 9.66M272.944 235.459l-3.43 3.02M253.944 252.199l-10.96 9.65M280.364 235.459l-3.42 3.02M253.944 258.739l-10.96 9.65M287.794 235.459l-3.43 3.02M253.944 265.279l-10.96 9.65M295.214 235.459l-3.43 3.02M253.944 271.819l-10.96 9.65M394.864 154.219l-1.19 1.05M302.644 235.459l-3.43 3.02M253.944 278.359l-10.96 9.65M253.944 284.889l-10.96 9.66M310.054 235.459l-3.42 3.02M261.154 278.539l-3.43 3.02M402.284 154.219l-8.61 7.58M253.944 291.429l-10.96 9.65M317.474 235.459l-3.42 3.02M267.464 279.519l-3.02 2.66M345.354 210.899l-1.56 1.38M402.744 160.349l-9.07 7.99M253.944 297.969l-10.96 9.65M324.904 235.459l-3.43 3.02M346.814 216.159l-3.02 2.66M267.464 286.059l-3.02 2.66M402.744 166.889l-9.07 7.99M253.944 304.509l-10.96 9.65M332.324 235.459l-3.43 3.02M346.814 222.699l-3.02 2.66M267.464 292.599l-3.02 2.66M402.744 173.429l-9.07 7.99M402.744 179.969l-3.64 3.2M267.464 299.139l-3.02 2.66M346.814 229.239l-3.02 2.66M339.754 235.459l-3.43 3.02M256.964 308.389l-13.98 12.31M264.384 308.389l-3.43 3.02M346.814 235.779l-3.07 2.7M267.464 305.679l-3.02 2.66M253.944 317.589l-10.96 9.65M346.814 242.309l-3.02 2.66M253.944 324.119l-6.69 5.89M271.804 308.389l-3.43 3.02M286.114 302.319l-1.24 1.09M279.224 308.389l-3.43 3.02M397.914 210.369l-4.24 3.74M293.534 302.319l-3.44 3.03M287.904 307.279l-4.69 4.13M294.074 308.389l-3.43 3.02M300.964 302.319l-3.44 3.03M402.744 212.659l-9.07 7.99M301.494 308.389l-3.43 3.02M308.384 302.319l-3.44 3.03M402.744 219.199l-9.07 7.99M402.744 225.739l-9.07 7.99M308.914 308.389l-3.42 3.02M313.164 304.649l-3.02 2.66M247.804 368.769l-4.82 4.24M405.134 230.169l-11.46 10.1M346.814 281.549l-3.02 2.66M316.344 308.389l-3.43 3.02M346.814 288.079l-3.02 2.66M323.764 308.389l-3.43 3.02M402.744 238.809l-9.07 7.99M253.944 369.889l-10.96 9.66M412.554 230.169l-3.43 3.02M331.184 308.389l-3.43 3.02M346.814 294.619l-3.02 2.66M253.944 376.429l-10.96 9.65M402.744 245.349l-2.42 2.13M419.974 230.169l-3.43 3.02M511.944 155.689l-3.03 2.67M338.604 308.389l-3.43 3.02M346.814 301.159l-3.02 2.66M253.944 382.969l-10.96 9.65M427.394 230.169l-3.43 3.02M434.814 230.169l-3.42 3.02M253.944 389.499l-10.96 9.66M346.814 307.689l-4.22 3.72M511.944 162.229l-3.03 2.67M528.454 154.219l-5.93 5.23M442.244 230.169l-3.43 3.02M353.444 308.389l-3.43 3.02M253.944 396.039l-10.96 9.66M516.444 164.799l-3.43 3.02M449.664 230.169l-3.43 3.02M394.324 278.919l-.65.57M253.944 402.589l-10.96 9.65M533.854 156.009l-13.41 11.81M457.084 230.169l-3.42 3.02M253.944 409.119l-10.96 9.66M401.744 278.919l-8.07 7.11M533.854 162.549l-11.33 9.98M464.514 230.169l-3.43 3.02M253.944 415.659l-10.96 9.65M402.744 284.579l-9.07 7.99M533.854 169.079l-11.33 9.99M471.924 230.169l-3.43 3.02M253.944 422.189l-10.96 9.66M402.744 291.109l-9.07 7.99M533.854 175.619l-11.33 9.98M479.354 230.169l-3.43 3.02M253.944 428.739l-10.96 9.65M390.564 308.389l-1.92 1.69M402.744 297.659l-9.07 7.99M533.854 182.159l-11.33 9.98M486.774 230.169l-3.43 3.02M253.944 435.279l-10.96 9.65M402.744 304.199l-9.07 7.99M533.854 188.699l-11.33 9.98M494.194 230.169l-3.42 3.02M253.944 441.809l-10.96 9.66M402.744 310.729l-9.07 7.99M533.854 195.239l-11.33 9.98M501.624 230.169l-3.43 3.02M402.744 317.269l-6.52 5.74M253.944 448.349l-10.96 9.65M533.854 201.769l-11.33 9.99M509.044 230.169l-3.42 3.02M253.944 454.889l-10.96 9.66M533.854 208.319l-11.33 9.98M516.464 230.169l-3.43 3.02M253.944 461.429l-5.44 4.79M533.854 214.849l-11.33 9.98M533.854 221.389l-13.4 11.8M533.854 227.929l-11.33 9.98M533.854 234.469l-11.33 9.98M458.014 307.819l-3.44 3.03M533.854 241.009l-11.33 9.98M465.434 307.819l-3.44 3.03M533.854 247.549l-11.33 9.98M472.854 307.819l-3.44 3.03M533.854 254.079l-11.33 9.98M480.274 307.819l-3.44 3.03M533.854 260.619l-11.33 9.98M487.694 307.819l-3.44 3.03M533.854 267.159l-11.33 9.98M495.124 307.819l-3.44 3.03M533.854 273.699l-11.33 9.98M502.544 307.819l-3.44 3.03M533.854 280.239l-11.33 9.98M533.854 286.769l-11.33 9.98M509.964 307.819l-3.44 3.03M533.854 293.309l-11.33 9.98M517.384 307.819l-3.44 3.03M533.854 299.849l-12.49 11M533.854 306.389l-11.33 9.98M533.854 312.929l-11.33 9.98M533.854 319.459l-11.33 9.99M533.854 326.009l-11.33 9.98M533.854 332.549l-11.33 9.98M533.854 339.079l-11.33 9.98M533.854 345.619l-11.33 9.98M533.854 352.159l-11.33 9.98M533.854 358.699l-11.33 9.98M533.854 365.239l-11.33 9.98M533.854 371.769l-11.33 9.98M533.854 378.309l-11.33 9.98M533.854 384.849l-11.33 9.98M533.854 391.389l-11.33 9.98M533.854 397.929l-11.33 9.98M533.854 404.459l-11.33 9.98M533.854 411.009l-11.33 9.98M533.854 417.539l-11.33 9.99M533.854 424.079l-11.33 9.98M533.854 430.619l-11.33 9.98M533.854 437.159l-11.33 9.98M533.854 443.699l-11.33 9.98M533.854 450.239l-8.67 7.63M533.854 456.769l-1.25 1.1"/><g><path class="st7" d="M322.629 79.786h-29.608v1.511h.454v1.511h29.154zM297.051 143.455h25.578v10.959h-25.578zM346.812 278.92h-1.511v.453h-1.512v29.02h-30.626l-.003-6.065h-28.287v6.065h-17.412v-29.851h-13.519v-40.054h89.847v8.994h1.512v.453h1.511v-37.031h-3.023v24.561h-89.847v-24.561h-10.959v119.114h10.959v-18.602H356.75v-1.511h.453v-1.512h-10.391V278.92zm-82.374 29.473h-10.496v-26.828h10.496v26.828zm23.458 0v-3.043h22.243l.002 3.043h-22.245zM401.224 182.718h1.512V154.225h-9.069v28.946h7.557zM227.785 79.786h-22.672v3.022h60.248v-1.511h.454v-1.511h-35.007V11.204h77.462v18.514h9.825v.001l-.001 36.675h4.535v-3.021h-1.512V29.718h1.512v-3.023h-11.336V11.204h11.336V.5H68.894v10.704h158.891zM522.518 154.225v10.58h-10.58v-10.58h-3.023v13.603h13.603v62.347H402.736V210.83h-1.512v-.453h-7.557v37.105h9.069v-14.284h119.782v74.629h-70.661v3.022h70.661v147.019h11.336V154.225zM265.738 143.455h-43.52v-14.546h-17.859v14.546h-48.58v10.959h109.96v-10.959zm-46.543 0h-11.814v-11.524h11.814v11.524zM393.667 308.393h-5.479v1.512h.453v1.511h5.026v11.602h9.069V278.92h-9.069zM242.983 368.768h10.959v97.45h-10.959z"/></g></g><path class="st0" d="M296.103 158.676l-31 .833v-17.896l30.041 1.396z"/><path class="st4" d="M264.697 154.342v-10.916M295.78 143.759v10.583"/><g><path class="st8" d="M267.632 93.876c-1.482-3.975-2.05-6.76-2.271-11.068"/><path class="st9" d="M267.671 93.967l25.804-11.158v-1.512h-.454l-25.95 11.283z"/><g><path class="st8" d="M267.967 130.904c-1.817 4.871-2.34 7.36-2.605 12.552"/><path class="st9" d="M267.981 130.797l-.6 1.388 29.419 12.782h.453v-1.512z"/><g><path class="st8" d="M380.909 129.596c2.218 5.968 2.873 9.202 3.199 15.56"/><path class="st9" d="M380.866 129.498l-36.208 15.658v1.511h.454l36.354-15.782z"/><g><path class="st8" d="M415.293 276.797c-4.801 1.793-7.441 2.315-12.557 2.576"/><path class="st9" d="M415.394 276.753l-12.658-29.271h-1.512v.453l12.783 29.419z"/><g><path class="st8" d="M413.794 208.559c-4.295 1.602-6.481 2.038-11.058 2.272"/><path class="st9" d="M413.894 208.522l-11.166-25.771-1.504-.033v.453l11.282 25.951z"/><g><path class="st8" d="M331.22 276.792c4.816 1.79 7.437 2.319 12.568 2.581"/><path class="st9" d="M331.131 276.753l1.387.601 12.783-29.419v-.453h-1.512z"/><g><path class="st8" d="M359.343 323.96c-1.819-4.803-2.332-7.419-2.593-12.543"/><path class="st9" d="M359.358 324.069l29.284-12.653-.001-1.511h-.453l-29.418 12.781z"/></g></g></g></g></g></g></g></g><g id="sizes"><path class="st10" d="M177.967 138.697h-1.594v-9.625l-1.617.992v-1.648l1.617-1.078h1.594v11.359zM182.06 138.423c-.521-.261-.923-.629-1.207-1.105s-.426-1.03-.426-1.66v-.188c0-.567.142-1.102.426-1.602s.663-.878 1.137-1.133c-.401-.219-.723-.535-.965-.949s-.363-.851-.363-1.309v-.273c0-.594.133-1.116.398-1.566s.641-.8 1.125-1.047 1.047-.371 1.688-.371 1.203.124 1.688.371.859.597 1.125 1.047.398.973.398 1.566v.273c0 .469-.124.909-.371 1.32s-.574.724-.98.938c.479.261.863.64 1.152 1.137s.434 1.03.434 1.598v.188c0 .63-.142 1.184-.426 1.66s-.687.845-1.207 1.105-1.125.391-1.813.391-1.292-.13-1.813-.391zm2.79-1.359c.281-.146.499-.351.652-.613s.23-.566.23-.91v-.109c0-.349-.077-.655-.23-.918s-.371-.468-.652-.613-.606-.219-.977-.219-.695.073-.977.219-.499.352-.652.617-.23.573-.23.922v.117c0 .344.077.646.23.906s.371.462.652.605.606.215.977.215.695-.073.977-.219zm-.133-5.121c.245-.138.435-.335.57-.59s.203-.55.203-.883v-.109c0-.317-.067-.599-.203-.844s-.325-.434-.57-.566-.526-.199-.844-.199-.599.066-.844.199-.435.321-.57.566-.203.528-.203.852v.117c0 .328.067.618.203.871s.325.448.57.586.526.207.844.207.599-.069.844-.207zM189.389 137.103h1.594v1.594l-1.594 1.578v-3.172zM194.389 138.412c-.474-.269-.835-.659-1.082-1.172s-.371-1.132-.371-1.855v-.008c0-.422.05-.864.148-1.328a7.568 7.568 0 01.641-1.82l2.469-4.891h1.719l-2.898 5.664.008-.281c.13-.245.32-.435.57-.57s.542-.203.875-.203c.589 0 1.094.133 1.516.398s.742.652.961 1.16.328 1.118.328 1.832v.008c0 .729-.124 1.354-.371 1.875s-.609.917-1.086 1.188-1.048.406-1.715.406-1.239-.135-1.712-.403zm2.878-1.598c.273-.313.41-.758.41-1.336v-.008c0-.636-.144-1.126-.43-1.473s-.695-.52-1.227-.52c-.474 0-.841.175-1.102.523s-.391.841-.391 1.477v.008c0 .578.137 1.022.41 1.332s.66.465 1.16.465c.507.001.897-.155 1.17-.468zM109.326 238.263h-1.594v-9.625l-1.617.992v-1.648l1.617-1.078h1.594v11.359zM113.122 237.978a2.614 2.614 0 01-1.082-1.172c-.248-.513-.371-1.132-.371-1.855v-.008c0-.422.049-.864.148-1.328a7.648 7.648 0 01.532-1.597l.109-.223 2.469-4.891h1.719l-2.898 5.664.008-.281c.13-.245.32-.435.57-.57s.542-.203.875-.203c.588 0 1.094.133 1.516.398s.742.652.961 1.16.328 1.118.328 1.832v.008c0 .729-.124 1.354-.371 1.875-.248.521-.609.917-1.086 1.188s-1.048.406-1.715.406c-.668-.001-1.238-.134-1.712-.403zm2.879-1.598c.273-.313.41-.758.41-1.336v-.008c0-.636-.144-1.126-.43-1.473-.287-.347-.695-.52-1.227-.52-.474 0-.841.175-1.102.523-.261.349-.391.841-.391 1.477v.008c0 .578.137 1.022.41 1.332s.66.465 1.16.465c.507.001.897-.155 1.17-.468zM119.958 236.67h1.594v1.594l-1.594 1.578v-3.172zM125.724 238.38l-.727-.348a2.857 2.857 0 01-1.168-1.008c-.294-.44-.48-.97-.559-1.59h1.625c.047.323.148.589.305.797s.358.363.605.465c.247.102.538.152.871.152.526 0 .935-.141 1.227-.422.292-.281.438-.677.438-1.188v-.344c0-.567-.138-1.007-.414-1.316-.276-.31-.667-.465-1.172-.465h-.805v-1.516h.805c.442 0 .786-.133 1.031-.398.245-.266.367-.641.367-1.125v-.352c0-.448-.129-.794-.387-1.039s-.624-.367-1.098-.367c-.271 0-.513.051-.727.152-.214.102-.395.258-.543.469s-.257.476-.324.793h-1.617c.104-.62.301-1.151.59-1.594s.655-.778 1.098-1.008c.442-.229.95-.344 1.523-.344.979 0 1.737.258 2.273.773.536.516.805 1.242.805 2.18v.188c0 .567-.154 1.063-.461 1.484-.308.422-.742.729-1.305.922.62.136 1.1.44 1.441.914.341.474.512 1.078.512 1.813v.188c0 .661-.128 1.227-.383 1.695a2.526 2.526 0 01-1.113 1.07c-.487.245-1.074.367-1.762.367l-.951.002zM122.89 404.664l3.961-5.281c.229-.302.407-.616.535-.941.127-.325.191-.629.191-.91v-.016c0-.453-.133-.805-.398-1.055s-.644-.375-1.133-.375c-.464 0-.839.137-1.125.41-.287.273-.461.66-.523 1.16v.008h-1.648v-.008c.094-.651.285-1.207.574-1.668s.663-.813 1.121-1.055c.458-.242.987-.363 1.586-.363.677 0 1.255.116 1.734.348.479.231.844.569 1.094 1.012s.375.977.375 1.602v.008c0 .401-.083.82-.25 1.258a5.417 5.417 0 01-.695 1.266L125 404.533h4.297v1.516h-6.406v-1.385zM131.155 404.664l3.961-5.281c.229-.302.407-.616.535-.941s.191-.629.191-.91v-.016c0-.453-.133-.805-.398-1.055s-.644-.375-1.133-.375c-.464 0-.839.137-1.125.41s-.461.66-.523 1.16v.008h-1.648v-.008c.094-.651.285-1.207.574-1.668s.663-.813 1.121-1.055.987-.363 1.586-.363c.677 0 1.255.116 1.734.348s.844.569 1.094 1.012.375.977.375 1.602v.008c0 .401-.083.82-.25 1.258s-.398.859-.695 1.266l-3.289 4.469h4.297v1.516h-6.406v-1.385zM139.436 404.453h1.594v1.594l-1.594 1.578v-3.172zM149.085 396.109l-2.938 9.938h-1.695l2.938-9.844h-2.891v1.633h-1.594v-3.148h6.18v1.421z"/><g><path class="st10" d="M328.421 324.523h-1.594v-9.625l-1.617.992v-1.648l1.617-1.078h1.594v11.359zM332.643 324.304a2.758 2.758 0 01-1.086-.977c-.279-.427-.465-.94-.559-1.539v-.008h1.594v.008c.057.417.224.741.5.973.275.231.635.348 1.078.348.51 0 .904-.171 1.184-.512.278-.341.418-.821.418-1.441v-.953c0-.614-.14-1.093-.418-1.434-.279-.341-.674-.512-1.184-.512-.276 0-.542.078-.797.234a2.225 2.225 0 00-.672.656h-1.453v-5.984h5.789v1.516h-4.195v2.555a2.262 2.262 0 011.414-.508c.656 0 1.217.136 1.684.406.466.271.82.667 1.063 1.188s.363 1.148.363 1.883v.953c0 .734-.125 1.362-.375 1.883s-.615.918-1.094 1.191c-.479.273-1.055.41-1.727.41-.572 0-1.081-.113-1.527-.336zM339.554 322.929h1.594v1.594l-1.594 1.578v-3.172zM343.163 323.14l3.961-5.281c.229-.302.407-.616.535-.941.127-.325.191-.629.191-.91v-.016c0-.453-.133-.805-.398-1.055s-.644-.375-1.133-.375c-.464 0-.839.137-1.125.41-.287.273-.461.66-.523 1.16v.008h-1.648v-.008c.094-.651.285-1.207.574-1.668s.662-.813 1.121-1.055c.458-.242.986-.363 1.586-.363.677 0 1.255.116 1.734.348.479.231.844.569 1.094 1.012s.375.977.375 1.602v.008c0 .401-.084.82-.25 1.258a5.417 5.417 0 01-.695 1.266l-3.289 4.469h4.297v1.516h-6.406v-1.385z"/></g><g><path class="st10" d="M498.886 325.958h-1.594v-9.625l-1.617.992v-1.648l1.617-1.078h1.594v11.359zM503.448 326.075l-.727-.348c-.485-.232-.874-.567-1.168-1.008s-.48-.97-.559-1.59h1.625c.047.323.148.589.305.797s.358.363.605.465.538.152.871.152c.526 0 .935-.141 1.227-.422s.438-.677.438-1.188v-.344c0-.567-.138-1.007-.414-1.316s-.667-.465-1.172-.465h-.805v-1.516h.805c.442 0 .786-.133 1.031-.398s.367-.641.367-1.125v-.352c0-.448-.129-.794-.387-1.039s-.624-.367-1.098-.367c-.271 0-.513.051-.727.152s-.395.258-.543.469-.257.476-.324.793h-1.617c.104-.62.301-1.151.59-1.594s.655-.778 1.098-1.008.95-.344 1.523-.344c.979 0 1.737.258 2.273.773s.805 1.242.805 2.18v.188c0 .567-.153 1.063-.461 1.484s-.742.729-1.305.922c.62.136 1.101.44 1.441.914s.512 1.078.512 1.813v.188c0 .661-.128 1.227-.383 1.695s-.626.825-1.113 1.07-1.074.367-1.762.367l-.951.002zM509.768 324.364h1.594v1.594l-1.594 1.578v-3.172zM516.292 325.958h-1.594v-9.625l-1.617.992v-1.648l1.617-1.078h1.594v11.359z"/></g><g><path class="st10" d="M319.391 170.487h-1.594v-9.625l-1.617.992v-1.648l1.617-1.078h1.594v11.359zM322.793 169.753c-.55-.567-.824-1.359-.824-2.375v-5.164c0-1.021.275-1.813.828-2.379.552-.565 1.356-.848 2.414-.848 1.063 0 1.868.281 2.418.844.549.563.824 1.356.824 2.383v5.164c0 1.021-.276 1.813-.828 2.379-.553.565-1.357.848-2.414.848-1.063-.001-1.869-.285-2.418-.852zm3.664-1.106c.268-.294.402-.718.402-1.27v-5.164c0-.552-.133-.976-.398-1.27s-.683-.441-1.25-.441c-.568 0-.984.147-1.25.441s-.398.718-.398 1.27v5.164c0 .552.134.976.402 1.27.268.294.684.441 1.246.441s.977-.147 1.246-.441zM330.641 168.893h1.594v1.594l-1.594 1.578v-3.172zM336.066 170.268a2.758 2.758 0 01-1.086-.977c-.279-.427-.465-.94-.559-1.539v-.008h1.594v.008c.057.417.224.741.5.973.275.231.635.348 1.078.348.51 0 .904-.171 1.184-.512.278-.341.418-.821.418-1.441v-.953c0-.614-.14-1.093-.418-1.434-.279-.341-.674-.512-1.184-.512-.276 0-.542.078-.797.234a2.225 2.225 0 00-.672.656h-1.453v-5.984h5.789v1.516h-4.195v2.555a2.262 2.262 0 011.414-.508c.656 0 1.217.136 1.684.406.466.271.82.667 1.063 1.188s.363 1.148.363 1.883v.953c0 .734-.125 1.362-.375 1.883s-.615.918-1.094 1.191c-.479.273-1.055.41-1.727.41-.573 0-1.081-.112-1.527-.336z"/></g><g><path class="st10" d="M436.818 246.542c-.474-.269-.835-.659-1.082-1.172s-.371-1.132-.371-1.855v-.008c0-.422.05-.864.148-1.328a7.568 7.568 0 01.641-1.82l2.469-4.891h1.719l-2.898 5.664.008-.281c.13-.245.32-.435.57-.57s.542-.203.875-.203c.589 0 1.094.133 1.516.398s.742.652.961 1.16.328 1.118.328 1.832v.008c0 .729-.124 1.354-.371 1.875s-.609.917-1.086 1.188-1.048.406-1.715.406-1.238-.135-1.712-.403zm2.879-1.598c.273-.313.41-.758.41-1.336v-.008c0-.636-.144-1.126-.43-1.473s-.695-.52-1.227-.52c-.474 0-.841.175-1.102.523s-.391.841-.391 1.477v.008c0 .578.137 1.022.41 1.332s.66.465 1.16.465c.507.001.897-.156 1.17-.468zM443.654 245.233h1.594v1.594l-1.594 1.578v-3.172zM450.178 246.827h-1.594v-9.625l-1.617.992v-1.648l1.617-1.078h1.594v11.359z"/></g><g><path class="st10" d="M285.867 247.481l3.813-8.227h1.641l-3.719 8.133h5.57v1.477h-7.305v-1.383zm4.899-3.555h1.555v6.688h-1.555v-6.688zM294.969 249.012h1.594v1.594l-1.594 1.578v-3.172zM299.574 249.872c-.55-.567-.824-1.359-.824-2.375v-5.164c0-1.021.276-1.813.828-2.379s1.356-.848 2.414-.848c1.063 0 1.868.281 2.418.844s.824 1.356.824 2.383v5.164c0 1.021-.276 1.813-.828 2.379s-1.356.848-2.414.848c-1.062-.001-1.868-.285-2.418-.852zm3.664-1.106c.269-.294.402-.718.402-1.27v-5.164c0-.552-.133-.976-.398-1.27s-.683-.441-1.25-.441-.984.147-1.25.441-.398.718-.398 1.27v5.164c0 .552.134.976.402 1.27s.684.441 1.246.441.978-.147 1.246-.441z"/></g><g><path class="st10" d="M408.114 225.131c-.474-.269-.835-.659-1.082-1.172s-.371-1.132-.371-1.855v-.008c0-.422.05-.864.148-1.328a7.568 7.568 0 01.641-1.82l2.469-4.891h1.719l-2.898 5.664.008-.281c.13-.245.32-.435.57-.57s.542-.203.875-.203c.589 0 1.094.133 1.516.398s.742.652.961 1.16.328 1.118.328 1.832v.008c0 .729-.124 1.354-.371 1.875s-.609.917-1.086 1.188-1.048.406-1.715.406-1.238-.134-1.712-.403zm2.879-1.597c.273-.313.41-.758.41-1.336v-.008c0-.636-.144-1.126-.43-1.473s-.695-.52-1.227-.52c-.474 0-.841.175-1.102.523s-.391.841-.391 1.477v.008c0 .578.137 1.022.41 1.332s.66.465 1.16.465c.507.001.897-.156 1.17-.468zM414.95 223.823h1.594v1.594l-1.594 1.578v-3.172zM418.559 224.034l3.961-5.281c.229-.302.407-.616.535-.941s.191-.629.191-.91v-.016c0-.453-.133-.805-.398-1.055s-.644-.375-1.133-.375c-.464 0-.839.137-1.125.41s-.461.66-.523 1.16v.008h-1.648v-.008c.094-.651.285-1.207.574-1.668s.663-.813 1.121-1.055.987-.363 1.586-.363c.677 0 1.255.116 1.734.348s.844.569 1.094 1.012.375.977.375 1.602v.008c0 .401-.083.82-.25 1.258s-.398.859-.695 1.266l-3.289 4.469h4.297v1.516h-6.406v-1.385z"/></g><g><path class="st10" d="M260.15 71.906l3.813-8.227h1.641l-3.719 8.133h5.57v1.477h-7.305v-1.383zm4.899-3.555h1.555v6.688h-1.555v-6.688zM269.252 73.437h1.594v1.594l-1.594 1.578v-3.172zM273.857 74.296c-.55-.567-.824-1.359-.824-2.375v-5.164c0-1.021.276-1.813.828-2.379.552-.565 1.356-.848 2.414-.848 1.063 0 1.868.281 2.418.844s.824 1.356.824 2.383v5.164c0 1.021-.276 1.813-.828 2.379s-1.356.848-2.414.848c-1.062 0-1.868-.284-2.418-.852zm3.664-1.105c.269-.294.402-.718.402-1.27v-5.164c0-.552-.133-.976-.398-1.27s-.683-.441-1.25-.441-.984.147-1.25.441-.398.718-.398 1.27v5.164c0 .552.134.976.402 1.27s.684.441 1.246.441.978-.147 1.246-.441z"/></g><g><path class="st10" d="M281.975 559.76a2.758 2.758 0 01-1.086-.977c-.279-.427-.465-.94-.559-1.539v-.008h1.594v.008c.057.417.224.741.5.973.275.231.635.348 1.078.348.51 0 .904-.171 1.184-.512.278-.341.418-.821.418-1.441v-.953c0-.614-.14-1.093-.418-1.434-.279-.341-.674-.512-1.184-.512-.276 0-.542.078-.797.234a2.225 2.225 0 00-.672.656h-1.453v-5.984h5.789v1.516h-4.195v2.555a2.262 2.262 0 011.414-.508c.656 0 1.217.136 1.684.406.466.271.82.667 1.063 1.188s.363 1.148.363 1.883v.953c0 .734-.125 1.362-.375 1.883s-.615.918-1.094 1.191c-.479.273-1.055.41-1.727.41-.572 0-1.081-.113-1.527-.336zM288.87 558.596l3.961-5.281c.229-.302.407-.616.535-.941.127-.325.191-.629.191-.91v-.016c0-.453-.133-.805-.398-1.055s-.644-.375-1.133-.375c-.464 0-.839.137-1.125.41-.287.273-.461.66-.523 1.16v.008h-1.648v-.008c.094-.651.285-1.207.574-1.668s.662-.813 1.121-1.055c.458-.242.986-.363 1.586-.363.677 0 1.255.116 1.734.348.479.231.844.569 1.094 1.012s.375.977.375 1.602v.008c0 .401-.084.82-.25 1.258a5.417 5.417 0 01-.695 1.266l-3.289 4.469h4.297v1.516h-6.406v-1.385zM297.151 558.385h1.594v1.594l-1.594 1.578v-3.172zM302.917 560.096l-.727-.348a2.857 2.857 0 01-1.168-1.008c-.295-.44-.48-.97-.559-1.59h1.625c.047.323.148.589.305.797s.357.363.605.465c.247.102.537.152.871.152.525 0 .935-.141 1.227-.422.291-.281.438-.677.438-1.188v-.344c0-.567-.139-1.007-.414-1.316-.276-.31-.667-.465-1.172-.465h-.805v-1.516h.805c.442 0 .786-.133 1.031-.398.244-.266.367-.641.367-1.125v-.352c0-.448-.129-.794-.387-1.039s-.624-.367-1.098-.367a1.68 1.68 0 00-.727.152c-.214.102-.395.258-.543.469s-.257.476-.324.793h-1.617c.104-.62.301-1.151.59-1.594s.654-.778 1.098-1.008c.442-.229.95-.344 1.523-.344.979 0 1.736.258 2.273.773.536.516.805 1.242.805 2.18v.188c0 .567-.154 1.063-.461 1.484-.308.422-.742.729-1.305.922.619.136 1.1.44 1.441.914.341.474.512 1.078.512 1.813v.188c0 .661-.128 1.227-.383 1.695a2.536 2.536 0 01-1.113 1.07c-.487.245-1.074.367-1.762.367l-.951.002z"/></g></g></svg>