<svg version="1.1" id="_x39_9_1_" xmlns="http://www.w3.org/2000/svg" x="0" y="0" viewBox="0 0 533.219 458.78" xml:space="preserve"><style>.st0{fill-rule:evenodd;clip-rule:evenodd;fill:#fff}.st1{fill:none;stroke:#999;stroke-linecap:round;stroke-linejoin:round;stroke-miterlimit:3}.st1,.st2,.st4,.st5,.st6,.st8{fill-rule:evenodd;clip-rule:evenodd}.st2{stroke:#999;stroke-width:.4;stroke-linecap:round;stroke-linejoin:round;stroke-miterlimit:3;fill:none}.st4,.st5,.st6,.st8{fill:#020203}.st5,.st6,.st8{fill:none}.st5{stroke:#020203;stroke-linecap:round;stroke-linejoin:round;stroke-miterlimit:3}.st6,.st8{stroke-miterlimit:22.9256}.st6{stroke-linecap:round;stroke-linejoin:round;stroke:#020203}.st8{stroke:#666;stroke-width:.6}</style><path class="st0" d="M330.509 332.285h202.265V.445H.446v457.89h330.063z"/><g id="mebel"><path class="st1" d="M162.55 82.173v3.028m0 0h.859m0 0h17.175m-.001 0h.859m.001 0v-3.028M181.443 88.628v-3.427m0 0h-.859m0 0v3.224m0 0h.058m0 0l.293-.196m0 0l.343.087m0 0l.165.312M180.641 90.986l.293-.196m0 0l.343.087m0 0l.165.312m0 .001v-2.562m0-.001l-.165-.312m0 .001l-.343-.087m0-.001l-.293.196m0 0H163.35m0 0l-.293-.196m0 0l-.343.087m0 .001l-.165.312m0-.001v2.562m0 .001l.165-.312m0-.001l.343-.087m0 0l.293.196m0 0h17.291M162.55 88.628l.165-.312m0 0l.342-.087m0 0l.294.196m-.001 0h.058m.001 0v-3.224m0 0h-.859m0 0v3.427M179.779 91.392h-15.566m0 0l1.005.227m0 0h13.556m0 0l1.005-.227M180.641 91.392l.293.196m0 0l.343-.086m0 0l.165-.313m0 0l-.165-.312m0 0l-.343-.087m0 0l-.293.196m0 0H163.35m0 0l-.293-.196m0 0l-.343.087m0 0l-.165.312m0 0l.165.313m0 0l.343.086m0 0l.293-.196m0 0h17.291M140.632 82.173v3.028m0 0h.859m.001 0h17.176m0 0h.859m0 0v-3.028M159.526 88.628v-3.427m0 0h-.859m0 0v3.224m0 0h.058m0 0l.294-.196m0 0l.342.087m0 0l.165.312M158.725 90.986l.294-.196m0 0l.342.087m0 0l.165.312m0 .001v-2.562m0-.001l-.165-.312m0 .001l-.342-.087m0-.001l-.294.196m0 0h-17.291m0 0l-.293-.196m0 0l-.343.087m0 .001l-.165.312m0-.001v2.562m0 .001l.165-.312m0-.001l.343-.087m0 0l.293.196m0 0h17.291M140.632 88.628l.165-.312m.001 0l.343-.087m0 0l.294.196m-.001 0h.057m.001 0v-3.224m0 0h-.859m-.001 0v3.427M157.863 91.392h-15.566m-.001 0l1.005.227m.001 0h13.556m-.001 0l1.005-.227M158.725 91.392l.294.196m0 0l.342-.086m0 0l.165-.313m0 0l-.165-.312m0 0l-.342-.087m0 0l-.294.196m0 0h-17.291m0 0l-.293-.196m0 0l-.343.087m0 0l-.165.312m0 0l.165.313m0 0l.343.086m0 0l.293-.196m0 0h17.291M162.55 48.164v-3.028m0 0h.859m0 0h17.175m-.001 0h.859m.001 0v3.028M181.443 41.709v3.427m0 0h-.859m0 0v-3.224m0 0h.058m0 0l.293.196m0 0l.343-.087m0 0l.165-.312M180.641 39.35l.293.196m0 0l.343-.086m0 0l.165-.313m0 0v2.562m0 0l-.165.312m0 0l-.343.087m0 0l-.293-.196m0 0H163.35m0 0l-.293.196m0 0l-.343-.087m0 0l-.165-.312m0 0v-2.562m0 0l.165.313m0 0l.343.086m0 0l.293-.196m0 0h17.291M162.55 41.709l.165.312m0 0l.342.087m0 0l.294-.196m-.001 0h.058m.001 0v3.224m0 0h-.859m0 0v-3.427M179.779 38.944h-15.566m0 0l1.005-.227m0 0h13.556m0 0l1.005.227M180.641 38.944l.293-.196m0 0l.343.087m0 0l.165.312m0 0l-.165.313m0 0l-.343.086m0 .001l-.293-.196m0-.001H163.35m0 0l-.293.196m0 .001l-.343-.086m0-.001l-.165-.313m0 0l.165-.312m0 0l.343-.087m0 0l.293.196m0 0h17.291M140.632 48.164v-3.028m0 0h.859m.001 0h17.176m0 0h.859m0 0v3.028M159.526 41.709v3.427m0 0h-.859m0 0v-3.224m0 0h.058m0 0l.294.196m0 0l.342-.087m0 0l.165-.312M158.725 39.35l.294.196m0 0l.342-.086m0 0l.165-.313m0 0v2.562m0 0l-.165.312m0 0l-.342.087m0 0l-.294-.196m0 0h-17.291m0 0l-.293.196m0 0l-.343-.087m0 0l-.165-.312m0 0v-2.562m0 0l.165.313m0 0l.343.086m0 0l.293-.196m0 0h17.291M140.632 41.709l.165.312m.001 0l.343.087m0 0l.294-.196m-.001 0h.057m.001 0v3.224m0 0h-.859m-.001 0v-3.427M157.863 38.944h-15.566m-.001 0l1.005-.227m.001 0h13.556m-.001 0l1.005.227M158.725 38.944l.294-.196m0 0l.342.087m0 0l.165.312m0 0l-.165.313m0 0l-.342.086m0 .001l-.294-.196m0-.001h-17.291m0 0l-.293.196m0 .001l-.343-.086m0-.001l-.165-.313m0 0l.165-.312m0 0l.343-.087m0 0l.293.196m0 0h17.291M137.61 82.173v3.028m0 0h-.859m0 0h-17.175m0 0h-.859m0 0v-3.028M118.716 88.628v-3.427m0 0h.859m.001 0v3.224m0 0h-.058m-.001 0l-.294-.196m.001 0l-.342.087m0 0l-.165.312M119.518 90.986l-.294-.196m0 0l-.342.087m0 0l-.165.312m0 .001v-2.562m0-.001l.165-.312m0 .001l.342-.087m0-.001l.294.196m0 0h17.291m0 0l.293-.196m0 0l.343.087m0 .001l.165.312m0-.001v2.562m0 .001l-.165-.312m0-.001l-.343-.087m0 0l-.293.196m0 0h-17.291M137.61 88.628l-.165-.312m0 0l-.343-.087m0 0l-.293.196m0 0h-.058m0 0v-3.224m0 0h.859m0 0v3.427M120.38 91.392h15.565m0 0l-1.004.227m0 0h-13.556m0 0l-1.005-.227M119.518 91.392l-.294.196m0 0l-.342-.086m0 0l-.165-.313m0 0l.165-.312m0 0l.342-.087m0 0l.294.196m0 0h17.291m0 0l.293-.196m0 0l.343.087m0 0l.165.312m0 0l-.165.313m0 0l-.343.086m0 0l-.293-.196m0 0h-17.291M137.61 48.164v-3.028m0 0h-.859m0 0h-17.175m0 0h-.859m0 0v3.028M118.716 41.709v3.427m0 0h.859m.001 0v-3.224m0 0h-.058m-.001 0l-.294.196m.001 0l-.342-.087m0 0l-.165-.312M119.518 39.35l-.294.196m0 0l-.342-.086m0 0l-.165-.313m0 0v2.562m0 0l.165.312m0 0l.342.087m0 0l.294-.196m0 0h17.291m0 0l.293.196m0 0l.343-.087m0 0l.165-.312m0 0v-2.562m0 0l-.165.313m0 0l-.343.086m0 0l-.293-.196m0 0h-17.291M137.61 41.709l-.165.312m0 0l-.343.087m0 0l-.293-.196m0 0h-.058m0 0v3.224m0 0h.859m0 0v-3.427M120.38 38.944h15.565m0 0l-1.004-.227m0 0h-13.556m0 0l-1.005.227M119.518 38.944l-.294-.196m0 0l-.342.087m0 0l-.165.312m0 0l.165.313m0 0l.342.086m0 .001l.294-.196m0-.001h17.291m0 0l.293.196m0 .001l.343-.086m0-.001l.165-.313m0 0l-.165-.312m0 0l-.343-.087m0 0l-.293.196m0 0h-17.291"/><path class="st2" d="M292.856 431.884l2.891-2.89m-9.945 2.998l9.945-9.945m-16.785 9.838l16.785-16.785m-23.732 16.785l23.731-23.732m-30.678 23.732l30.678-30.679m-37.625 30.679l22.086-22.086m2.051-2.052l13.488-13.488m-44.572 37.626l22.351-22.351m9.906-9.906l10.064-10.064m-49.268 42.321l26.616-26.616m11.924-11.924l3.781-3.781m-49.268 42.321l33.503-33.503m-40.45 33.503l41.27-41.27m-48.216 41.269l44.209-44.209m-51.157 44.209l46.855-46.855m-47.277 40.331l40.33-40.331m-40.33 33.384L249.4 385.03m-33.383 26.436l26.436-26.437m-26.436 19.491l19.49-19.491m-19.49 12.543l12.542-12.543m-12.542 5.597l5.596-5.597m74.133 5.782l-1.247-1.247m1.247 8.194l-8.194-8.194m8.194 15.141l-13.17-13.17m13.17 20.116l-12.35-12.351m12.35 19.299l-12.689-12.69m-11.82-11.821l-9.059-9.059m33.568 40.517l-15.657-15.658m-9.516-9.516l-15.342-15.342m39.907 46.854l-46.854-46.855m39.907 46.855l-46.854-46.855m39.908 46.856L234.39 385.03m39.907 46.855l-46.854-46.855m39.908 46.855l-46.855-46.855m39.908 46.855l-44.387-44.388m37.44 44.388l-37.44-37.44m30.493 37.44l-30.493-30.494m23.546 30.494l-23.546-23.546m16.599 23.546l-16.599-16.6m9.814 16.76l-9.814-9.814m2.705 9.653l-2.705-2.705M305.149 266.758l6.089-6.089m-13.036 6.089l13.036-13.036m-19.983 13.036l19.983-19.983m-26.93 19.983l26.93-26.93m-33.877 26.93l33.877-33.876m-40.823 33.876l40.823-40.823m-47.77 40.823l47.77-47.771m-54.717 47.771l54.717-54.717m-61.664 54.717l54.979-54.979m-61.926 54.979l54.979-54.979m-58.918 51.971l51.97-51.971m-51.97 45.023l45.023-45.023m-45.023 38.078l40.81-40.811m-40.81 33.863l22.132-22.133m4.197-4.196l14.481-14.481m-40.81 33.864l16.45-16.45m10.282-10.283l9.344-9.344m-36.076 29.129l14.045-14.046m12.017-12.016l3.067-3.067m-29.129 22.183l14.252-14.252m-14.252 7.304l15.063-15.063m.166-.166l.006-.006m-15.235 8.289l8.288-8.288m-8.288 1.34l1.341-1.341m71.209 11.902l-.172-.172m.172 7.12l-6.956-6.956m6.956 13.902l-13.903-13.903m13.903 20.85l-20.85-20.85m-10.89-10.89l-1.003-1.003m32.743 39.69l-27.797-27.797m-3.943-3.943l-7.95-7.95m39.69 46.637l-46.637-46.637m46.637 53.583l-46.007-46.006m-7.575-7.575l-.002-.002m53.584 60.531l-45.706-45.706m-12.053-12.053l-2.771-2.771m59.924 66.871l-47.377-47.377m-10.433-10.433l-9.062-9.062m59.925 66.872L257.8 220.873m-4.73-4.73l-14.382-14.382m58.05 64.997l-58.05-58.05m51.104 58.05l-51.104-51.104m44.156 51.104l-44.156-44.156m37.21 44.156l-37.21-37.209m30.263 37.209l-30.263-30.263m23.315 30.263l-23.315-23.316m16.369 23.316l-16.369-16.369m9.422 16.369l-9.422-9.422m2.475 9.422l-2.475-2.475M431.398 303.6h86.531m-86.531-11.336h86.531m-86.531-11.336h65.638m-65.638-11.336h86.531m-11.336 35.709v-16.148m0-13.048v-17.281m-22.671 46.477v-46.477m-22.672 46.477v-46.477m-22.672 46.477v-46.477"/><path class="st1" d="M246.573 78.394h28.39M276.097 77.26V48.87M274.963 47.736h-28.39M245.439 48.87v28.39M236.043 38.34h38.92M276.097 39.474v7.128M274.963 47.736h-29.524M245.439 47.736V77.26M244.306 78.394h-7.129M236.043 77.26V38.34M274.963 43.63h-33.63M241.333 43.63v33.63M276.097 36.828h-41.565M234.532 36.828v41.565M276.097 36.828v2.646M237.177 78.394h-2.645M244.306 78.394h2.267M276.097 46.602v2.268M245.439 47.736l-9.396-9.396M276.097 77.26c0 .626-.508 1.134-1.134 1.134M274.963 47.736c.626 0 1.134.508 1.134 1.134M245.439 48.87c0-.626.507-1.134 1.134-1.134M246.573 78.394a1.134 1.134 0 01-1.134-1.134M274.963 38.34c.626 0 1.134.508 1.134 1.134M276.097 46.602c0 .626-.508 1.134-1.134 1.134M245.439 77.26c0 .626-.507 1.134-1.133 1.134M237.177 78.394a1.134 1.134 0 01-1.134-1.134M276.097 42.497c0 .626-.508 1.133-1.134 1.133M241.333 77.26c0 .626-.507 1.134-1.133 1.134M313.883 36.828h-37.786M313.883 36.828v2.646M276.097 36.828v2.646M313.883 46.602v2.268M276.097 46.602v2.268M277.23 78.394h35.519M313.883 77.26V48.87M312.749 47.736H277.23M276.097 48.87v28.39M277.23 38.34h35.519M313.883 39.474v7.128M312.749 47.736H277.23M276.097 46.602v-7.128M312.749 43.63H277.23M313.883 77.26c0 .626-.507 1.134-1.134 1.134M312.749 47.736c.626 0 1.134.508 1.134 1.134M276.097 48.87c0-.626.507-1.134 1.133-1.134M277.23 78.394a1.134 1.134 0 01-1.133-1.134M312.749 38.34c.626 0 1.134.508 1.134 1.134M313.883 46.602c0 .626-.507 1.134-1.134 1.134M277.23 47.736a1.133 1.133 0 01-1.133-1.134M276.097 39.474c0-.626.507-1.134 1.133-1.134M313.883 42.497c0 .626-.507 1.133-1.134 1.133M277.23 43.63a1.133 1.133 0 01-1.133-1.133M346.757 78.394h4.157M351.669 77.638V37.584M350.914 36.828h-4.157M346.002 37.584v40.054M346.757 36.828h-32.874M313.883 36.828v2.646M313.883 46.602v2.268M315.016 78.394h29.852M346.002 77.26V48.87M344.868 47.736h-29.852M313.883 48.87v28.39M315.016 38.34h29.852M346.002 39.474v7.128M344.868 47.736h-29.852M313.883 46.602v-7.128M344.868 43.63h-29.852M351.669 77.638a.756.756 0 01-.755.756M350.914 36.828c.417 0 .755.339.755.756M346.002 37.584c0-.417.338-.756.755-.756M346.757 78.394a.755.755 0 01-.755-.756M346.002 77.26c0 .626-.508 1.134-1.134 1.134M344.868 47.736c.626 0 1.134.508 1.134 1.134M313.883 48.87c0-.626.507-1.134 1.133-1.134M315.016 78.394a1.134 1.134 0 01-1.133-1.134M344.868 38.34c.626 0 1.134.508 1.134 1.134M346.002 46.602c0 .626-.508 1.134-1.134 1.134M315.016 47.736a1.133 1.133 0 01-1.133-1.134M313.883 39.474c0-.626.507-1.134 1.133-1.134M346.002 42.497c0 .626-.508 1.133-1.134 1.133M315.016 43.63a1.133 1.133 0 01-1.133-1.133M276.097 111.268v4.156M275.341 116.18h-40.053M234.532 115.424v-4.156M235.288 110.512h40.053M234.532 111.268V78.394M234.532 78.394h2.645M244.306 78.394h2.267M276.097 79.527v29.852M274.963 110.512h-28.39M245.439 109.379V79.526M246.573 78.394h28.39M236.043 79.527v29.852M237.177 110.512h7.129M245.439 109.379V79.526M244.306 78.394h-7.129M241.333 109.379V79.526M276.097 115.424a.756.756 0 01-.756.756M235.288 116.18a.756.756 0 01-.756-.756M234.532 111.268c0-.417.338-.756.756-.756M275.341 110.512c.417 0 .756.338.756.756M276.097 109.379c0 .625-.508 1.133-1.134 1.133M246.573 110.512a1.134 1.134 0 01-1.134-1.133M245.439 79.527c0-.626.507-1.133 1.134-1.133M274.963 78.394c.626 0 1.134.507 1.134 1.133M237.177 110.512a1.134 1.134 0 01-1.134-1.133M245.439 109.379c0 .625-.507 1.133-1.133 1.133M244.306 78.394c.626 0 1.133.507 1.133 1.133M236.043 79.527c0-.626.508-1.133 1.134-1.133M241.333 109.379c0 .625-.507 1.133-1.133 1.133M240.2 78.394c.626 0 1.133.507 1.133 1.133M378.488 33.045v94.466m0 0h15.114m0 0V33.045m0 0h-15.114M379.244 33.045v94.466M378.488 80.278h.756M378.488 33.045h.756M310.671 195.342h-30.607m0 0l-.4.166m0 0l-.166.401m0 0v15.303m0 0l.166.401m0 0l.4.166m0 0h30.607m0 0l.401-.166m0 0l.166-.401m0 0v-15.303m0 0l-.166-.401m0 0l-.401-.166M309.538 199.499h-13.717m-.907 0h-13.717M280.631 200.065v10.014M281.198 210.646h28.34M310.104 210.079v-10.013M280.631 200.065c0-.313.254-.567.567-.567M281.198 210.646a.567.567 0 01-.567-.567M310.104 210.079a.566.566 0 01-.566.567M309.538 199.499c.313 0 .566.253.566.567M296.124 202.848a.752.752 0 01-.303.604v-1.21a.757.757 0 01.303.606zm-1.21.604a.753.753 0 010-1.209v1.209zM294.914 195.871h.907m.001 0v7.748m0 0l-.256.301m-.001 0h-.395m0 0l-.256-.301m0 0v-7.748M296.124 195.871h-1.512m0 0v-.265m0 0h1.512m0 0v.265M296.502 195.607h-2.268m0 0v-.265m0 0h2.268m0 0v.265M298.637 197.232v-1.625m0 0h-.095m0 0v-.132m0 0h-.283m-.001 0v-.133m0 0h1.889m0 0v.133m0 0h-.283m.001 0v.132m0 0h-.095m0 0v1.625m0 0h-.321m-.001 0v.416m0 0h1.077m0 0v.491m0 0h-2.645m0 0v-.491m0 0h1.077m0 0v-.416m0 0h-.321M292.099 197.232v-1.625m0 0h.094m0 0v-.132m0 0h.284m0 0v-.133m0 0h-1.89m0 0v.133m0 0h.284m0 0v.132m0 0h.094m0 0v1.625m0 0h.322m0 0v.416m0 0h-1.078m0 0v.491m0 0h2.646m0 0v-.491m0 0h-1.077m0 0v-.416m0 0h.321M299.448 197.647l-.072.072M298.957 197.647l.072.072M299.448 197.232h-.491M299.77 195.607h-1.133M298.542 195.474h1.323M291.287 197.647l.072.072M291.778 197.647l-.072.072M291.287 197.232h.491M290.966 195.607h1.134M292.194 195.474h-1.322M299.448 197.893a.246.246 0 11-.491 0 .246.246 0 01.491 0zM291.778 197.893a.246.246 0 11-.492 0 .246.246 0 01.492 0zM265.513 214.871l-.467 1.646m0 0l-.717 1.552m0 0l-.965 1.231m0 0l-1.248.944m0 0l-1.447.596m0 0l-1.551.207m0 0l-1.551-.204m0 0l-1.449-.593m0 0l-1.249-.941m0 0l-.969-1.229m0 0l-.72-1.551m0 0l-.47-1.644m0 0l-.21-1.698m0 0l.057-1.709m0 0l1.211-11.586m0 0l10.654-.011m0 0l1.236 11.583m0 0l.061 1.709m0 0l-.206 1.698M254.985 205.613l4.116-.005M259.102 205.608l4.117-.004M259.118 220.762a5.744 5.744 0 01-3.064-.884M256.053 219.878c-2.219-1.721-3.418-4.234-3.255-6.826M252.798 213.052c-.073-2.609.684-5.186 2.187-7.44M263.218 205.604c1.508 2.251 2.271 4.825 2.203 7.435M265.421 213.038c.168 2.591-1.026 5.107-3.241 6.833M262.18 219.871a5.743 5.743 0 01-3.063.89M254.447 199.892l9.295-.01m.001 0v.189m0 0l-9.295.01m-.001 0v-.189M268.542 199.877l-18.893.02M268.537 195.342l-18.893.021M268.542 199.877l-.005-4.535M249.649 199.897l-.005-4.534M295.746 385.03v62.348m0 0h26.828m0 0V385.03m0 0h-26.828M320.428 392.303l-.081-.902m-.001 0l-.242-.874m0 0l-.396-.822m0 0l-.536-.741m0 0l-.662-.64m0 0l-.766-.52m.001 0l-.847-.383m0 0l-.904-.234m0 0l-.932-.079m0 0h-11.804m0 0l-.932.079m0 0l-.903.234m-.001 0l-.848.383m.001 0l-.766.52m-.001 0l-.661.64m.001 0l-.537.741m0 0l-.395.822m0 0l-.242.874m-.001 0l-.082.902m.001 0v42.085m0 0l.172 1.894m-.001 0l.508 1.837m.001 0l.83 1.724m0 0l1.127 1.558m-.001 0l1.389 1.345m.001 0l1.608 1.091m-.001 0l1.78.804m.001 0l1.897.492m0 0l1.957.166m0 0l1.957-.166m0 0l1.897-.492m0 0l1.78-.804m-.001 0l1.609-1.091m0 0l1.389-1.345m0 0l1.127-1.558m0 0l.83-1.724m0 0l.508-1.837m0 0l.171-1.894m.001 0v-42.085M310.104 394.098a.945.945 0 11-1.89 0 .945.945 0 011.89 0zM226.219 447.377h29.095m0 0l.401-.167m0 0l.166-.4m0 0v-14.359m0 0l-.166-.401m0 0l-.401-.166m0 0h-29.095m0 0l-.401.166m0 0l-.166.401m0 0v14.359m0 0l.166.4m0 0l.401.167M227.352 443.22h12.961m.907 0h12.962M254.747 442.653v-9.067M254.181 433.018h-26.829M226.786 433.585v9.068M254.747 442.653a.565.565 0 01-.566.566M254.181 433.018c.313 0 .566.254.566.567M226.786 433.585c0-.313.253-.567.566-.567M227.352 443.22a.565.565 0 01-.566-.566M241.522 440.129a.752.752 0 01-.303.604v-1.21a.756.756 0 01.303.606zm-1.209.604a.755.755 0 010-1.207v1.207zM241.22 446.848h-.907m0 0v-7.749m0 0l.256-.3m0 0h.395m0 0l.256.3m0 0v7.749M240.011 446.848h1.511m0 0v.265m0 0h-1.511m0 0v-.265M239.633 447.112h2.267m0 0v.265m0 .001h-2.267m0 0v-.265M237.498 445.487v1.625m0 0h.095m0 0v.132m0 .001h.283m0 0v.133m0 0h-1.889m0 0v-.133m0 0h.283m0 0v-.132m0-.001h.095m0 0v-1.625m0 0h.321m0 0v-.416m0 .001h-1.077m0 0v-.491m0 0h2.645m0 0v.491m0 0h-1.077m0 0v.416m0-.001h.321M244.035 445.487v1.625m0 0h-.094m0 0v.132m0 .001h-.284m0 0v.133m0 0h1.89m0 0v-.133m0 0h-.283m0 0v-.132m0-.001h-.095m0 0v-1.625m0 0h-.322m0 0v-.416m0 .001h1.078m0 0v-.491m0 0h-2.646m0 0v.491m0 0h1.077m0 0v.416m0-.001h-.321M236.686 445.072l.072-.072M237.177 445.072l-.072-.072M236.686 445.487h.491M236.364 447.112h1.133M237.593 447.244h-1.322M244.847 445.072l-.072-.072M244.356 445.072l.072-.072M244.847 445.487h-.491M245.169 447.112h-1.134M243.941 447.244h1.323M237.177 444.826a.246.246 0 11-.491-.001.246.246 0 01.491.001zM244.847 444.826a.246.246 0 11-.491-.001.246.246 0 01.491.001zM283.443 404.555l-.469 1.645m0 0l-.718 1.552m0 0l-.968 1.229m0 0l-1.248.943m0 0l-1.448.594m0 0l-1.551.205m0 0l-1.551-.205m0 0l-1.447-.594m0 0l-1.249-.943m0 0l-.967-1.229m0 0l-.719-1.552m0 0l-.469-1.645m0 0l-.207-1.698m0 0l.059-1.709m0 0l1.223-11.585m0 0h10.654m0 0l1.223 11.585m0 0l.06 1.709m0 0l-.208 1.698M272.925 395.285h4.116M277.041 395.285h4.117M277.041 410.438a5.742 5.742 0 01-3.063-.886M273.978 409.552c-2.217-1.723-3.413-4.238-3.248-6.83M270.73 402.722c-.07-2.61.69-5.185 2.195-7.437M281.158 395.285c1.506 2.252 2.266 4.827 2.195 7.437M283.353 402.722c.165 2.591-1.031 5.107-3.248 6.83M280.105 409.552c-.89.57-1.961.881-3.064.886M272.394 389.564h9.295m0 0v.189m0 0h-9.295m0 0v-.189M286.488 389.564h-18.893M286.488 385.03h-18.893M286.488 389.564v-4.534M267.595 389.564v-4.534M256.448 447.377h29.095m0 0l.401-.167m0 0l.166-.4m0 0v-14.359m0 0l-.166-.401m0 0l-.401-.166m0 0h-29.095m0 0l-.401.166m0 0l-.166.401m0 0v14.359m0 0l.166.4m0 0l.401.167M257.582 443.22h12.96m.907 0h12.96M284.977 442.653v-9.067M284.41 433.018h-26.828M257.015 433.585v9.068M284.977 442.653a.566.566 0 01-.567.566M284.41 433.018c.312 0 .567.254.567.567M257.015 433.585c0-.313.254-.567.567-.567M257.582 443.22a.566.566 0 01-.567-.566M271.751 440.129a.755.755 0 01-.302.604v-1.209a.754.754 0 01.302.605zm-1.209.604a.755.755 0 010-1.207v1.207zM271.449 446.848h-.907m0 0v-7.749m0 0l.256-.3m0 0h.395m0 0l.256.3m0 0v7.749M270.24 446.848h1.511m0 0v.265m0 0h-1.511m0 0v-.265M269.862 447.112h2.267m0 0v.265m0 .001h-2.267m0 0v-.265M267.727 445.487v1.625m0 0h.094m0 0v.132m0 .001h.284m0 0v.133m0 0h-1.89m0 0v-.133m0 0h.283m0 0v-.132m0-.001h.095m0 0v-1.625m0 0h.322m0 0v-.416m0 .001h-1.078m0 0v-.491m0 0h2.646m0 0v.491m0 0h-1.077m0 0v.416m0-.001h.321M274.264 445.487v1.625m0 0h-.095m.001 0v.132m0 .001h-.283m-.001 0v.133m0 0h1.889m0 0v-.133m0 0h-.283m0 0v-.132m0-.001h-.095m0 0v-1.625m0 0h-.321m0 0v-.416m0 .001h1.077m.001 0v-.491m0 0h-2.645m-.001 0v.491m0 0h1.077m0 0v.416m0-.001h-.321M266.915 445.072l.072-.072M267.406 445.072l-.072-.072M266.915 445.487h.491M266.594 447.112h1.134M267.822 447.244h-1.323M275.077 445.072l-.072-.072M274.585 445.072l.072-.072M275.077 445.487h-.492M275.398 447.112h-1.133M274.17 447.244h1.323M267.406 444.826a.246.246 0 11-.491-.001.246.246 0 01.491.001zM275.077 444.826a.246.246 0 11-.491-.001.246.246 0 01.491.001zM404.57 324.193v-65.37m0 0h26.828m0 0v65.37m0 0H404.57M429.252 316.567l-.082.946m0 0l-.242.917m0 0l-.395.86m0 0l-.536.778m0 0l-.662.672m0 0l-.766.545m0 0l-.848.401m0 0l-.903.246m0 0l-.932.082m0 0h-11.804m0 0l-.932-.082m0 0l-.903-.246m0 0l-.848-.401m0 0l-.766-.545m0 0l-.662-.672m0 0l-.536-.778m0 0l-.395-.86m0 0l-.243-.917m0 0l-.081-.946m0 0v-44.125m0 0l.171-1.987m0 0l.509-1.926m0 0l.83-1.807m0 0l1.127-1.634m0 0l1.388-1.41m0 0l1.609-1.144m0 0l1.78-.842m0 0l1.897-.516m0 0l1.957-.174m0 0l1.957.174m0 0l1.897.516m0 0l1.78.842m0 0l1.609 1.144m0 0l1.389 1.41m0 0l1.126 1.634m0 0l.83 1.807m0 0l.509 1.926m0 0l.171 1.987m0 0v44.125M418.929 315.125a.946.946 0 11-1.891-.001.946.946 0 011.891.001zM502.937 289.031l-1.645-.469m0-.001l-1.551-.718m0 0l-1.23-.968m0 0l-.943-1.248m0 .001l-.594-1.448m0-.001l-.206-1.551m0 0l.206-1.551m0 0l.594-1.447m0 .001l.943-1.249m0-.001l1.23-.967m0 0l1.551-.719m0 .001l1.645-.469m0-.001l1.698-.207m0 .001l1.709.059m0-.001l11.585 1.223m0 0v10.654m0 0l-11.585 1.223m0 .001l-1.709.06m0-.001l-1.698-.208M512.208 278.512v4.117M512.208 282.628v4.118M497.054 282.628a5.732 5.732 0 01.887-3.063M497.941 279.565c1.723-2.217 4.238-3.414 6.829-3.249M504.77 276.317c2.609-.07 5.185.69 7.437 2.195M512.208 286.745c-2.253 1.505-4.828 2.265-7.437 2.195M504.77 288.94c-2.591.165-5.106-1.031-6.829-3.248M497.941 285.692a5.744 5.744 0 01-.887-3.064M517.93 277.981v9.296m0 0h-.189m-.001 0v-9.296m0 0h.189M517.93 292.075v-18.894M522.464 292.075v-18.894M517.93 292.075h4.534M517.93 273.182h4.534M110.404 48.165v34.007m0 0h79.351m0 0V48.165m0 0h-79.351M225.652 431.884h-9.636m0 0v15.493m0 .001h9.636m0 0v-15.493M267.595 389.564h28.151m0 0v-4.534m0 0h-28.151m0 0v4.534M295.746 431.884h-9.636m0 0v15.493m0 .001h9.636m0 0v-15.493M499.98 305.301h17.949m0 0v6.045m0-.001H499.98m0 0V305.3M259.66 163.602h-22.672m0 0v22.672m0 0h22.672m0 0v-22.672M248.324 178.716v-7.557M250.996 177.61l-5.344-5.344M252.102 174.938h-7.557M250.996 172.266l-5.344 5.344M206.948 166.436h-19.271m0 0l-.535.221m0 0l-.221.535m0 0v17.381m0 0l.221.535m0 0l.535.221m0 0h19.271m0 0l.534-.221m0 0l.222-.535m0 0v-17.381m0 0l-.222-.535m0 0l-.534-.221M214.316 163.602h-34.008M214.316 186.274h-34.008M214.316 163.602v22.672M180.309 163.602v22.672M205.059 168.325h-15.493M188.811 169.081v11.714M189.566 181.55h15.493M205.814 180.794v-11.713M205.059 168.325h.108a.108.108 0 10-.216 0 .108.108 0 00.216 0h-.108zM188.811 169.081c0-.417.338-.756.756-.756M189.566 181.55a.756.756 0 01-.756-.755M205.814 180.794a.755.755 0 01-.755.755M205.059 168.325c.417 0 .755.338.755.756M197.653 176.718l-.1-.241m-.001 0l-.241-.098m.001 0l-.241.1m0 0l-.098.24m-.001 0v7.477m0 0l.099.24m0 0l.241.099m.001 0l.24-.099m-.001 0l.1-.24m.001 0v-7.478M198.067 182.268h-.414m0 0v1.928m0 0l-.1.24m0 0l-.24.1m0 0l-.241-.1m0 0l-.099-.24m0 0v-1.928m0 0h-.415m0 0v2.457m0 0h1.509m0 0v-2.457M198.056 180.908h-.404m0 0v1.322m0 0h.404m0 0v-1.322M196.568 180.908v1.322m0 0h.404m0 0v-1.322m0 0h-.404M180.309 163.602h-22.672M180.309 186.274h-22.672M180.309 163.602v22.672M157.637 163.602v22.672M91.511 163.602h22.672m-.001 0v22.672m0 0H91.511m0 0v-22.672M142.144 165.68h-21.916m0 0v18.516m0 0h21.916m0 0V165.68M131.186 176.96v5.298M131.186 182.259h-1.096M131.186 176.96h-1.096M122.332 176.96v5.298M123.428 182.259h-1.096M123.428 176.96h-1.096M140.172 179.825a2.74 2.74 0 11-5.479.001 2.74 2.74 0 015.479-.001zM140.129 171.586a3.968 3.968 0 11-7.935 0 3.968 3.968 0 017.935 0z"/><path class="st1" d="M138.429 171.586a2.267 2.267 0 11-4.534 0 2.267 2.267 0 014.534 0zM129.404 179.641a2.646 2.646 0 11-5.292-.002 2.646 2.646 0 015.292.002zM129.043 171.049a3.401 3.401 0 11-6.803 0 3.401 3.401 0 016.803 0zM148.19 163.602h-34.008M148.19 186.274h-34.008M148.19 163.602v22.672M114.182 163.602v22.672M68.839 163.602h22.672m0 0v22.672m0 0H68.839m0 0v-22.672M236.988 163.602h-22.672m0 0v22.672m0 0h22.672m0 0v-22.672M225.652 178.716v-7.557M228.324 177.61l-5.344-5.344M229.43 174.938h-7.557M228.324 172.266l-5.344 5.344M157.637 163.602h-9.447M157.637 186.274h-9.447M157.637 163.602v22.672M148.19 163.602v22.672M431.398 305.301h68.582M431.398 324.193h68.582M499.98 305.301v18.892M431.398 305.301v18.892M439.853 308.512h17.381M457.235 308.512v12.47M457.235 320.982h-8.226m-.938 0h-8.217M439.853 320.982v-12.47M474.144 308.512h17.382M491.526 308.512v12.47M491.526 320.982h-8.238m-.907 0h-8.237M474.144 320.982v-12.47M449.677 318.189c0 .464-.28.863-.68 1.039v-2.078c.401.175.68.575.68 1.039zm-1.587 1.039a1.135 1.135 0 010-2.078v2.078zM483.968 318.189c0 .464-.279.864-.68 1.039v-2.078c.401.175.68.575.68 1.039zm-1.587 1.039a1.135 1.135 0 010-2.078v2.078zM448.997 323.664h-.907m0 0v-7.748m0 0l.256-.301m0 0h.395m0 0l.256.301m0 0v7.748M447.788 323.664h1.511m0 0v.265m0 0h-1.511m0 0v-.265M447.41 323.929h2.267m0 0v.265m0 0h-2.267m0 0v-.265M445.276 322.304v1.625m0 0h.094m0 0v.132m0 0h.284m0 0v.133m0 0h-1.89m0 0v-.133m0 0h.284m0 0v-.132m0 0h.094m0 0v-1.625m0 0h.322m0 0v-.416m0 0h-1.078m0 0v-.491m0 0h2.646m0 0v.491m0 0h-1.077m0 0v.416m0 0h.321M451.813 322.304v1.625m0 0h-.095m0 0v.132m0 0h-.283m0 0v.133m0 0h1.889m0 0v-.133m0 0h-.283m0 0v-.132m0 0h-.095m0 0v-1.625m0 0h-.321m0 0v-.416m0 0h1.077m0 0v-.491m0 0h-2.645m0 0v.491m0 0h1.077m0 0v.416m0 0h-.321M483.288 323.664h-.907m0 0v-7.748m0 0l.256-.301m0 0h.395m.001 0l.256.301m-.001 0v7.748M482.079 323.664h1.511m0 0v.265m0 0h-1.511m0 0v-.265M481.702 323.929h2.267m-.001 0v.265m0 0h-2.267m.001 0v-.265M479.567 322.304v1.625m0 0h.094m0 0v.132m0 0h.284m0 0v.133m0 0h-1.89m0 0v-.133m0 0h.284m0 0v-.132m0 0h.094m0 0v-1.625m0 0h.322m0 0v-.416m0 0h-1.077m0 0v-.491m0 0h2.645m0 0v.491m0 0h-1.077m0 0v.416m0 0h.321M486.103 322.304v1.625m0 0h-.094m0 0v.132m0 0h-.283m0 0v.133m0 0h1.889m0 0v-.133m0 0h-.283m0 0v-.132m0 0h-.095m0 0v-1.625m0 0h-.322m0 0v-.416m0 0h1.078m0 0v-.491m0 0h-2.645m0 0v.491m0 0h1.076m0 0v.416m0 0h-.321M444.463 321.888l.072-.072M444.954 321.888l-.072-.072M444.463 322.304h.491M444.142 323.929h1.134M445.37 324.061h-1.322M452.625 321.888l-.072-.072M452.134 321.888l.072-.072M452.625 322.304h-.491M452.946 323.929h-1.133M451.718 324.061h1.323M478.754 321.888l.072-.072M479.245 321.888l-.072-.072M478.754 322.304h.491M478.433 323.929h1.134M479.661 324.061h-1.322M486.916 321.888l-.072-.072M486.425 321.888l.072-.072M486.916 322.304h-.491M487.237 323.929h-1.134M486.009 324.061h1.323M444.954 321.643a.246.246 0 11-.492 0 .246.246 0 01.492 0zM452.625 321.643a.246.246 0 11-.492 0 .246.246 0 01.492 0zM479.245 321.643a.246.246 0 11-.492 0 .246.246 0 01.492 0zM486.916 321.643a.246.246 0 11-.492 0 .246.246 0 01.492 0zM279.12 370.671a7.179 7.179 0 01-7.18 7.179 7.179 7.179 0 110-14.358 7.179 7.179 0 017.18 7.179zM175.541 172.997a3.41 3.41 0 11-6.822 0 3.41 3.41 0 016.822 0z"/><path class="st1" d="M175.02 172.997a2.89 2.89 0 11-5.78 0 2.89 2.89 0 015.78 0zM168.401 172.165a2.58 2.58 0 11-5.16 0 2.58 2.58 0 015.16 0z"/><path class="st1" d="M167.266 172.165a1.445 1.445 0 11-2.89 0 1.445 1.445 0 012.89 0zM88.488 204.789a3.78 3.78 0 11-7.558 0 3.78 3.78 0 017.558 0z"/><path class="st1" d="M85.843 204.789a1.134 1.134 0 11-2.267-.001 1.134 1.134 0 012.267.001zM177.286 204.789a3.778 3.778 0 11-7.557.001 3.778 3.778 0 017.557-.001z"/><path class="st1" d="M174.64 204.789a1.133 1.133 0 11-2.265 0 1.133 1.133 0 012.265 0zM516.796 44.764a3.778 3.778 0 11-7.56 0 3.778 3.778 0 017.56 0z"/><path class="st1" d="M514.15 44.764a1.134 1.134 0 11-2.267.001 1.134 1.134 0 012.267-.001zM516.796 133.562a3.778 3.778 0 11-7.56 0 3.778 3.778 0 017.56 0z"/><path class="st1" d="M514.15 133.562a1.134 1.134 0 11-2.267.001 1.134 1.134 0 012.267-.001zM82.371 438.253a3.778 3.778 0 11-7.557 0 3.778 3.778 0 017.557 0z"/><path class="st1" d="M79.726 438.253a1.134 1.134 0 11-2.267-.001 1.134 1.134 0 012.267.001zM171.169 438.253a3.778 3.778 0 11-7.557 0 3.778 3.778 0 017.557 0z"/><path class="st1" d="M168.523 438.253a1.133 1.133 0 11-2.265 0 1.133 1.133 0 012.265 0zM387.357 103.167h1.02m0 0V58.798m0 0h-1.02m0 0v44.369M388.376 101.763l3.411.709m0 0l-.142.681m0 0l-3.269-.681m0 0v-.709M388.376 93.466h.833m0 0l.566-.152m0 0l.415-.415m0 0l.152-.566m0-.001v-22.7m0 0l-.152-.566m0 .001l-.415-.415m0 0l-.566-.152m0-.001h-.833m0 0v24.966M387 101.763l-3.41.709m0 0l.141.681m0 0l3.269-.681m0 0v-.709M388.376 60.202l3.411-.709m0 0l-.142-.681m0 0l-3.269.681m0 0v.709M387.059 60.202l-3.41-.709m0 0l.141-.681m0 0l3.269.681m0 0v.709M387.059 103.167h.297m0 0V58.798m0 0h-.297m0 0v44.369M280.064 186.274v-22.672m0-.001h56.49m0 0v22.672m0 .001h-56.49M336.555 174.56v.756m0 0h-56.49m-.001 0v-.756m0 0h56.49M287.501 184.28v-18.626m0 .001h.756m0 0v18.626m0-.001h-.756M289.506 184.28v-18.626m0 .001h.756m0 0v18.626m0-.001h-.756M291.51 184.28v-18.626m0 .001h.756m0 0v18.626m0-.001h-.756M293.516 184.28v-18.626m0 .001h.755m-.001 0v18.626m0-.001h-.755M297.761 184.145l-2.241-18.491m0 0l.75-.091m0 0l2.241 18.491m0 0l-.75.091M163.116 274.693H95.1m0 0V199.12m0 .001h68.016m0 0v75.573M161.227 276.583H96.989m0 0l-.722-.144m0 0l-.614-.409m0 0l-.409-.614m0 0l-.144-.722m0 0h68.016m0 0l-.144.722m0 0l-.41.614m.001 0l-.613.409m-.001 0l-.723.144M163.116 195.342H95.1m0 0v3.779m0 0h68.016m0 0v-3.779M95.1 195.342h68.016m0 0v1.89m0 0H95.1m0 0v-1.89M93.211 195.342H76.207m0 0v18.894m0 0h17.004m0 0v-18.894M165.005 195.342h17.004m0 0v18.894m0 0h-17.004m0 0v-18.894M123.062 201.01H97.367m0 0l-.267.111m0 0l-.111.267m0 0v12.47m0 0l.111.267m0 0l.267.111m0 0h25.695m0 0l.267-.111m0 0l.111-.267m0 0v-12.47m0 0l-.111-.267m0 0l-.267-.111M135.154 201.01h25.694m0 0l.267.111m0 0l.111.267m0 0v12.47m0 0l-.111.267m0 0l-.267.111m0 0h-25.694m0 0l-.268-.111m0 0l-.11-.267m0 0v-12.47m0 0l.11-.267m0 0l.268-.111M163.116 213.212h-1.89M134.776 213.212H123.44M96.989 213.212H95.1M163.116 218.221H95.1m0 0v18.686m0 0l68.016-14.908m0 0v-3.778M212.998 195.342h22.672m0 0v71.417m0 0h-22.672m0 0v-71.417M224.712 266.758h-.755m0 0v-71.417m0 .001h.755m0 0v71.417M214.992 202.779h18.626m-.001 0v.755m0 .001h-18.626m.001 0v-.755M214.992 204.783h18.626m-.001 0v.756m0 0h-18.626m.001 0v-.756M214.992 206.788h18.626m-.001 0v.756m0 0h-18.626m.001 0v-.756M214.992 208.793h18.626m-.001 0v.755m0 0h-18.626m.001 0v-.755M215.127 213.039l18.491-2.241m0 0l.091.75m0 0l-18.491 2.241m0 0l-.091-.75M314.261 189.297h22.293m0 0v80.485m0 0h-22.293m0 0v-80.485M325.975 269.781h-.756m0 0v-80.485m0 0h.756m0 0v80.485M316.254 198.434h18.626m0 0v.756m0 0h-18.626m0 0v-.756M316.254 200.439h18.626m0 0v.755m0 0h-18.626m0 0v-.755M316.254 202.443h18.626m0 0v.756m0 0h-18.626m0 0v-.756M316.254 204.448h18.626m0 0v.756m0 0h-18.626m0 0v-.756M316.389 208.694l18.491-2.241m0-.001l.091.75m0 .001l-18.491 2.241m0 0l-.091-.75M88.594 368.026h68.016m.001 0v75.572m0 0H88.594m0 0v-75.572M90.484 366.136h64.237m0 0l.722.144m0 0l.614.41m0 0l.409.613m0 0l.144.723m0 0H88.594m0 0l.144-.723m0 0l.41-.613m0 0l.613-.41m0 0l.723-.144M88.594 447.377h68.016m.001 0v-3.779m0 0H88.594m0 0v3.779M156.61 447.377H88.594m0 0v-1.89m0 0h68.016m0 0v1.89M158.499 447.377h17.004m0 0v-18.894m0 0h-17.004m0 0v18.894M86.705 447.377H69.701m0 0v-18.894m0 0h17.004m0 0v18.894M128.648 441.709h25.695m0 0l.267-.111m0 0l.111-.267m0 0v-12.469m0 0l-.111-.268m0 0l-.267-.11m0 0h-25.695m0 0l-.267.11m0 0l-.111.268m0 0v12.469m0 0l.111.267m0 0l.267.111M116.556 441.709H90.862m0 0l-.267-.111m0 0l-.111-.267m0 0v-12.469m0 0l.111-.268m0 0l.267-.11m0 0h25.694m0 0l.268.11m0 0l.11.268m0 0v12.469m0 0l-.11.267m0 0l-.268.111M88.594 429.507h1.89M116.934 429.507h11.336M154.721 429.507h1.889M88.594 424.498h68.016m.001 0v-18.686m0 0l-68.016 14.907m-.001 0v3.779M190.322 383.14h22.672m0 0v64.237m0 0h-22.672m0 0V383.14M202.036 447.377h-.756m0 0V383.14m0 0h.756m0 0v64.237M192.315 390.577h18.626m0 0v.755m0 0h-18.626m0 0v-.755M192.315 392.581h18.626m0 0v.756m0 0h-18.626m0 0v-.756M192.315 394.586h18.626m0 0v.756m0 0h-18.626m0 0v-.756M192.315 396.591h18.626m0 0v.755m0 0h-18.626m0 0v-.755M192.45 400.837l18.491-2.241m0 0l.091.75m0 0l-18.491 2.241m0 0l-.091-.75M277.948 370.155l-1.233.449m0 0h-1.312m.001 0l-1.234-.449m0 0l-1.473.342m-.001 0h-1.512m0 0l-1.474-.342m0 0l-1.234.45m.001 0h-1.314m0 0l-1.235-.45m0 0l2.232 2.987m0 0h7.557m-.001 0l2.232-2.987M275.717 373.403h-7.557m0 0v-.262m0 .001h7.557m0 0v.262M275.717 373.927h-7.557m0 0v-.262m0 0h7.557m0 0v.262M271.097 368.639l.891-.085m0 0l.022.226m0 0l-.477.045m0 0l1.383 1.143m0 0l-.126.152m0 0l-.642-.53m0 0l-.067.081m0 0l.74.611m0 0l-.121.147m0 0l-.74-.612m0 0l-.08.098m0 0l.601.496m0 0l-.107.131m0 0l-.602-.497m0 0l-.08.097m0 0l.414.343m0 0l-.115.14m0 0l-1.422-1.174M283.276 359.335h-22.672m0 0v22.672m0 0h22.672m0 0v-22.672M443.112 123.171V55.154m0 0h75.572m0 0v68.016m0 .001h-75.572M441.223 121.281V57.045m0 0l.144-.723m0-.001l.409-.613m0 .001l.613-.409m0 0l.723-.144m0 0v68.015m0-.001l-.723-.144m0 0l-.613-.409m0 .001l-.409-.613m0-.001l-.144-.723M522.464 123.171V55.154m0 0h-3.779m0 0v68.016m0 .001h3.779M522.464 55.155v68.016m0 0h-1.89m0 0V55.155m0 0h1.89M522.464 53.266V36.262m0 0H503.57m0 0v17.004m0 0h18.894M522.464 125.06v17.004m0 0H503.57m0 0V125.06m0 0h18.894M516.796 83.117V57.422m0 0l-.11-.267m0 0l-.268-.111m0 0h-12.47m0 0l-.266.111m0 0l-.112.267m0 0v25.695m0 0l.112.267m0 0l.266.111m0 0h12.47m0 0l.268-.111m0 0l.11-.267M516.796 95.208v25.695m0 0l-.11.267m0 0l-.268.111m0 0h-12.47m0 0l-.266-.111m0 0l-.112-.267m0 0V95.208m0 0l.112-.267m0 0l.266-.111m0 0h12.47m0 0l.268.111m0 0l.11.267M504.594 123.171v-1.889M504.594 94.83V83.495M504.594 57.044v-1.889M499.585 123.171V55.154m0 0h-18.686m0 0l14.907 68.016m0 .001h3.779M522.464 172.859v22.672m0 0H464.26m0 0v-22.672m0 0h58.204M464.26 184.573v-.755m0 0h58.204m0 0v.755m0 0H464.26M515.027 174.852v18.626m0 0h-.756m0 0v-18.626m0 0h.756M513.022 174.852v18.626m0 0h-.756m0 0v-18.626m0 0h.756M511.017 174.852v18.626m0 0h-.756m0 0v-18.626m0 0h.756M509.013 174.852v18.626m0 0h-.756m0 0v-18.626m0 0h.756M504.767 174.987l2.24 18.491m0 0l-.75.091m0 0l-2.241-18.491m0 0l.751-.091M176.198 170.789h-.963m0 0v-1.204m0 0h-12.524m0 0v1.204m0 0h-.964M174.734 180.794H165.1m0 0v-.478m0 0h.723m0 0v.237m0 0h8.188m0 0v-.237m0 0h.723m0 0v.478M174.734 180.316l-.047-.104m-.047-.102l-.048-.104m-.046-.103l-.048-.103m-.047-.103l-.047-.103m-.047-.104l-.047-.103m-.047-.102l-.048-.103m-.047-.103l-.047-.103m-.047-.103l-.047-.103m-.047-.104l-.048-.104m-.047-.101l-.047-.104m-.047-.104l-.047-.103m-.048-.102l-.046-.103m-.047-.103l-.048-.103m-.047-.104l-.047-.102m-.047-.104l-.047-.103m-.048-.104l-.047-.103m-.047-.102l-.047-.103M165.1 180.316l.047-.104m.047-.102l.048-.104m.047-.103l.047-.103m.047-.103l.047-.103m.047-.104l.048-.103m.047-.102l.047-.103m.047-.103l.047-.103m.047-.103l.048-.103m.046-.104l.048-.104m.047-.101l.047-.104m.047-.104l.047-.103m.048-.102l.046-.103m.048-.103l.047-.103m.047-.104l.047-.102m.047-.104l.047-.103m.048-.104l.047-.103m.047-.102l.047-.103M174.734 180.316h-.078m-.113 0h-.114m-.113 0h-.113m-.114 0h-.078m0 0l-.041-.051m-.071-.089l-.072-.088m-.072-.088l-.071-.088m-.072-.088l-.071-.088m-.072-.088l-.071-.087m-.071-.09l-.072-.088m-.071-.088l-.072-.087m-.071-.089l-.072-.088m-.071-.087l-.071-.088m-.072-.088l-.071-.088m-.072-.088l-.071-.088m-.072-.088l-.071-.089m-.072-.087l-.071-.088m-.072-.088l-.071-.088m-.071-.089l-.072-.088m-.071-.088l-.072-.088m-.071-.088l-.072-.088m-.071-.087l-.071-.088m-.072-.088l-.071-.088m-.072-.088l-.071-.088m-.072-.088l-.072-.088m-.071-.088l-.071-.088m-.072-.088l-.041-.052M165.1 180.316h.078m.113 0h.114m.113 0h.113m.114 0h.078m.001 0l.042-.051m.07-.089l.071-.088m.072-.088l.071-.088m.072-.088l.071-.088m.072-.088l.071-.087m.071-.09l.072-.088m.071-.088l.072-.087m.072-.089l.072-.088m.07-.087l.072-.088m.071-.088l.072-.088m.071-.088l.071-.088m.072-.088l.071-.089m.072-.087l.071-.088m.072-.088l.071-.088m.071-.089l.072-.088m.071-.088l.072-.088m.071-.088l.072-.088m.072-.087l.071-.088m.071-.088l.071-.088m.072-.088l.071-.088m.072-.088l.072-.088m.071-.088l.071-.088m.072-.088l.042-.052M283.276 382.007h39.298m0 0v-21.916m0 0h-39.298m0 0v21.916M522.464 255.8v-22.672m0 0H464.26m0 0V255.8m0 0h58.204M464.26 244.087v.755m0 0h58.204m0 0v-.755m0 0H464.26M515.027 253.807v-18.626m0 0h-.756m0 0v18.626m0 0h.756M513.022 253.807v-18.626m0 0h-.756m0 0v18.626m0 0h.756M511.017 253.807v-18.626m0 0h-.756m0 0v18.626m0 0h.756M509.013 253.807v-18.626m0 0h-.756m0 0v18.626m0 0h.756M504.767 253.672l2.24-18.491m0 0l-.75-.091m0 0l-2.241 18.491m0 0l.751.091M499.98 305.301h17.949m0 0v6.045m0-.001H499.98m0 0V305.3M81.03 205.649l3.679-.86m0 0l1.584-3.432m0 0l-1.584 3.432m0 0l1.306 3.546M177.186 205.649l-3.679-.86m0 0l-1.584-3.432m0 0l1.584 3.432m0 0l-1.306 3.546M512.157 41.085l.86 3.679m0 0l3.431 1.584m0 0l-3.431-1.584m0 0l-3.546 1.306M512.157 137.241l.86-3.679m0 0l3.431-1.584m0 0l-3.431 1.584m0 0l-3.546-1.306M74.913 439.113l3.679-.86m0 0l1.584-3.431m0 0l-1.584 3.431m0 0l1.306 3.546M171.069 439.113l-3.679-.86m0 0l-1.584-3.431m0 0l1.584 3.431m0 0l-1.306 3.546"/></g><g id="walls_1_"><path d="M434.788 269.824c-1.601-4.296-2.042-6.475-2.278-11.054" fill="none" stroke="#020203" stroke-linecap="round" stroke-linejoin="round" stroke-miterlimit="3"/><path class="st4" d="M434.82 269.928l25.804-11.158v-1.512h-.454l-25.95 11.283z"/><path class="st5" d="M416.436 219.331c-4.875-1.818-7.379-2.275-12.568-2.581"/><path transform="rotate(-66.609 409.52 233.713)" class="st4" d="M393.558 232.951h31.892v1.511h-31.892z"/><path class="st5" d="M268.542 255.645c-1.602 4.297-2.041 6.481-2.275 11.061"/><path class="st4" d="M268.576 255.546l-.6 1.387 25.95 11.283h.454v-1.511z"/><g><path class="st5" d="M200.479 291.505c4.819-1.79 7.436-2.32 12.57-2.582"/><path class="st4" d="M200.389 291.543l12.659 29.272h1.512v-.454l-12.784-29.418z"/></g><g><path class="st5" d="M348.05 348.766c-2.248-6.022-2.876-9.137-3.204-15.557"/><path class="st4" d="M348.087 348.866l36.208-15.657v-1.512h-.453l-36.355 15.782z"/><g><path class="st5" d="M247.521 395.953c1.569-4.202 2.026-6.498 2.255-10.976"/><path class="st4" d="M247.484 396.053l.6-1.387-25.763-11.202h-.453v1.512z"/><g><path class="st5" d="M200.482 367.352c4.816 1.797 7.434 2.324 12.567 2.586"/><path class="st4" d="M200.389 367.317l1.387.6 12.784-29.418v-.454h-1.512z"/><g><path class="st5" d="M292.11 338.229c1.602-4.296 2.035-6.487 2.269-11.067"/><path class="st4" d="M292.071 338.321l.6-1.387-25.951-11.283h-.453v1.512z"/></g></g></g></g><path class="st0" d="M532.719 311.292V21.661h-10.202v148.122h-58.191v3.023h58.191v82.941H460.17v1.511h.454v1.512h56.227v52.522h-16.816v12.848h3.023v-9.825h19.46v9.825h10.202v-12.848h-.001zM310.158 458.28h12.47v-10.957H216.07v-62.347h5.797v-1.512h.453v-1.511h-6.25v-12.47h-1.511v.454h-1.511v77.386H68.893v10.957h241.265zm-14.72-134.14h27.19v3.023H311.67v29.851h10.958v3.023h-13.981v-32.874H294.38v-1.512h-.454v-1.511h1.512zm-28.718 0v1.511h-.453v1.512h-5.609v54.79h61.97v3.023h-72.852v-1.512h-.454v-1.511h8.313V324.14h9.085zm-50.649-3.779h-1.511v.454h-1.511v2.38h-57.052v10.958h57.05v2.173h.002v1.719h1.511v.454h1.511v-18.138zM156.027 186.22v9.069h79.698l-.005 71.416h-22.671l.001 22.218h1.511v.453h1.511v-19.648h50.65v-1.512h-.453v-1.511h-27.524l.004-66.872h40.805v-4.544h31.74v71.416h-16.913v1.511h-.454v1.512h20.39v-80.485h22.294v-3.023H280.12v-22.671h-20.404v22.671H156.027zm82.72 9.069h37.782v1.521h-37.782v-1.521zm38.348-9.069h-14.359v-19.649h14.359v19.649zm245.422 125.072h-2.645V258.77h2.645v52.522zm-118.743-55.545h29.19v1.511h-.454v1.512h-28.736v-3.023z"/><g><path class="st5" d="M.5 456.203h45.344m0 0v-32.119m0 0h-.756m0 0V359.47m0 0h.756m0 0v-63.103m0 0h-.756m0 0v-83.13m0 0h.756m0 0v-61.025m0 0h-.794m0 0V.5m0 0H.5m0 0v455.703M53.401 424.085h15.492M45.843 424.085h5.669M51.512 424.085h1.889M53.401 357.958h15.492M45.843 357.958h5.669M51.512 357.958h1.889M45.843 357.958v66.127M68.893 357.958v66.127M53.401 357.958v3.779M53.401 361.737h-1.889M51.512 361.737v-3.779M51.512 395.745v-1.889M51.512 393.856h1.889M53.401 393.856v1.889M52.457 361.737v32.119M53.401 361.737v32.119M51.512 393.856v-32.119M53.401 395.745v.944M53.401 396.689h-.944M52.457 396.689v.945M52.457 397.634h-.946M51.512 397.634v-1.889M51.512 424.085v-3.779M51.512 420.306h.945M52.457 420.306v.944M52.457 421.25h.943M53.401 421.25v2.835M51.512 420.306v-22.672M54.346 399.524v18.893M54.346 396.689v2.834M54.346 399.524h-1.889M52.457 399.524v-2.834M52.457 396.689h1.889M52.457 421.25v-2.832M52.457 418.417h1.889M54.346 418.417v2.833M54.346 421.25h-1.889M52.457 418.417v-18.893M54.346 399.524v18.893M53.401 399.524v18.893M51.512 357.958h1.889M51.512 357.958h1.889M45.843 357.958h5.669M53.401 357.958h15.492M51.512 424.085h1.889M51.512 424.085h1.889M45.843 424.085h5.669M53.401 424.085h15.492M45.843 357.958h23.05"/><g><path class="st5" d="M53.401 295.611h15.492M45.843 295.611h5.669M51.512 295.611h1.889M53.401 212.481h15.492M45.843 212.481h5.669M51.512 212.481h1.889M45.843 212.481v83.13M68.893 212.481v83.13M53.401 212.481v3.779M53.401 216.26h-1.889M51.512 216.26v-3.779M51.512 252.157v-1.889M51.512 250.268h1.889M53.401 250.268v1.889M52.457 216.26v34.008M53.401 216.26v34.008M51.512 250.268V216.26M53.401 252.157v.944M53.401 253.102h-.944M52.457 253.102v.945M52.457 254.046h-.946M51.512 254.046v-1.889M51.512 295.611v-3.779M51.512 291.832h.945M52.457 291.832v.945M52.457 292.777h.943M53.401 292.777v2.834M54.346 292.777L82.4 264.722M51.512 291.832v-37.785M54.346 255.936v34.007M54.346 253.102v2.834M54.346 255.936h-1.889M52.457 255.936v-2.834M52.457 253.102h1.889M52.457 292.777v-2.834M52.457 289.943h1.889M54.346 289.943v2.834M54.346 292.777h-1.889M52.457 289.943v-34.007M54.346 255.936v34.007M53.401 255.936v34.007M54.346 253.102a39.675 39.675 0 0128.055 11.621M51.512 212.481h1.889M51.512 212.481h1.889M45.843 212.481h5.669M53.401 212.481h15.492M51.512 295.611h1.889M51.512 295.611h1.889M45.843 295.611h5.669M53.401 295.611h15.492"/></g><g><path class="st5" d="M189.809 8.057v13.604M189.809.5v5.668M189.809 6.168v1.889M255.935 8.057v13.604M255.935.5v5.668M255.935 6.168v1.889M255.935.5h-66.126M255.935 21.661h-66.126M255.935 8.057h-3.779M252.157 8.057V6.169M252.157 6.168h3.778M218.149 6.168h1.889M220.038 6.168v1.889M220.038 8.057h-1.889M252.157 7.113h-32.119M252.157 8.057h-32.119M220.038 6.168h32.118M218.149 8.057h-.945M217.204 8.057v-.943M217.204 7.113h-.944M216.26 7.113v-.945M216.26 6.168h1.889M189.809 6.168h3.779M193.588 6.168v.946M193.588 7.113h-.945M192.644 7.113v.944M192.644 8.057h-2.835M193.588 6.168h22.672M214.371 9.002h-18.894M217.204 9.002h-2.833M214.371 9.002V7.114M214.371 7.113h2.833M217.204 7.113v1.889M192.644 7.113h2.833M195.477 7.113v1.889M195.477 9.002h-2.834M192.644 9.002V7.114M195.477 7.113h18.893M214.371 9.002h-18.894M214.371 8.057h-18.894M255.935 6.168v1.889M255.935 6.168v1.889M255.935.5v5.668M255.935 8.057v13.604M189.809 6.168v1.889M189.809 6.168v1.889M189.809.5v5.668M189.809 8.057v13.604M255.935.5v21.16"/><g><path class="st5" d="M301.279 8.057v13.604M301.279.5v5.668M301.279 6.168v1.889M367.405 8.057v13.604M367.405.5v5.668M367.405 6.168v1.889M367.405.5h-66.126M367.405 21.661h-66.126M367.405 8.057h-3.778M363.626 8.057V6.169M363.626 6.168h3.778M329.619 6.168h1.889M331.508 6.168v1.889M331.508 8.057h-1.889M363.626 7.113h-32.118M363.626 8.057h-32.118M331.508 6.168h32.118M329.619 8.057h-.945M328.674 8.057v-.943M328.674 7.113h-.945M327.729 7.113v-.945M327.729 6.168h1.89M301.279 6.168h3.779M305.058 6.168v.946M305.058 7.113h-.945M304.113 7.113v.944M304.113 8.057h-2.834M305.058 6.168h22.671M325.84 9.002h-18.893M328.674 9.002h-2.834M325.84 9.002V7.114M325.84 7.113h2.834M328.674 7.113v1.889M304.113 7.113h2.834M306.947 7.113v1.889M306.947 9.002h-2.834M304.113 9.002V7.114M306.947 7.113h18.893M325.84 9.002h-18.893M325.84 8.057h-18.893M367.405 6.168v1.889M367.405 6.168v1.889M367.405.5v5.668M367.405 8.057v13.604M301.279 6.168v1.889M301.279 6.168v1.889M301.279.5v5.668M301.279 8.057v13.604M367.405.5v21.16"/></g><g><path class="st5" d="M422.195 8.057v13.604M422.195.5v5.668M422.195 6.168v1.889M505.325 8.057v13.604M505.325.5v5.668M505.325 6.168v1.889M505.325.5h-83.13M505.325 21.661h-83.13M505.325 8.057h-3.779M501.546 8.057V6.169M501.546 6.168h3.778M450.535 6.168h1.889M452.424 6.168v1.889M452.424 8.057h-1.889M501.546 7.113h-49.122M501.546 8.057h-49.122M452.424 6.168h49.122M450.535 8.057h-.945M449.59 8.057v-.943M449.59 7.113h-.945M448.645 7.113v-.945M448.645 6.168h1.89M422.195 6.168h3.779M425.974 6.168v.946M425.974 7.113h-.945M425.029 7.113v.944M425.029 8.057h-2.834M425.974 6.168h22.671M446.756 9.002h-18.893M449.59 9.002h-2.834M446.756 9.002V7.114M446.756 7.113h2.834M449.59 7.113v1.889M425.029 7.113h2.834M427.863 7.113v1.889M427.863 9.002h-2.834M425.029 9.002V7.114M427.863 7.113h18.893M446.756 9.002h-18.893M446.756 8.057h-18.893M505.325 6.168v1.889M505.325 6.168v1.889M505.325.5v5.668M505.325 8.057v13.604M422.195 6.168v1.889M422.195 6.168v1.889M422.195.5v5.668M422.195 8.057v13.604M505.325.5v21.16"/></g><g><path class="st5" d="M144.466 8.057v13.604M144.466.5v5.668M144.466 6.168v1.889M144.466.5H45.843M144.466 21.661H68.893M144.466 8.057h-4.724M139.743 8.057V6.169M139.743 6.168h4.723M53.401 6.168h4.723M58.124 6.168v1.889M58.124 8.057h-4.723M51.512 6.168h1.889M139.743 8.057H58.124M58.124 6.168h81.619M144.466 6.168v1.889M144.466 6.168v1.889M144.466.5v5.668M144.466 8.057v13.604M53.401 153.724h15.492M45.843 153.724h5.669M51.512 153.724h1.889M45.843 153.724V.5M68.893 153.724V21.661M53.401 153.724V149M53.401 149h-1.889M51.512 149v4.725M51.512 8.057v4.724M51.512 12.781h1.889M53.401 12.781V8.058M51.512 6.168v1.889M53.401 149V12.78M51.512 12.781v136.22M51.512 153.724h1.889M51.512 153.724h1.889M45.843 153.724h5.669M53.401 153.724h15.492"/></g></g><g><path class="st6" d="M51.511 63.641h1.89v5.133h-1.89zM51.511 106.148h1.89v5.133h-1.89z"/></g></g><path d="M331.697 458.28V333.209h13.15v-1.512h.454v-7.557h-22.672v134.14h9.068zM68.893 424.085h-23.05v34.195h23.05v-34.195h0zm87.103-89.932H68.893v23.806h-23.05v-62.348h23.05v27.584h87.103v10.958h0zm227.846-10.013v7.557h.453v1.512h148.424v-9.069H403.868v-75.497h-1.511l-8.691-.454v75.951h-9.824 0zM532.719.5h-27.395v21.161h27.395V.5h0zM393.666 217.205h8.691l1.511-.454V21.661h18.327V.5h-54.79v21.161h26.261v195.544h0zm-237.639-21.916H68.893v17.192h-23.05v-58.757h23.05v32.496h87.133v9.069h.001zm33.782-173.628h-45.344V.5h45.344v21.161h0zM255.935.5h45.344v21.161h-45.344V.5z" fill-rule="evenodd" clip-rule="evenodd" fill="#020203" stroke="#020203" stroke-linecap="round" stroke-linejoin="round" stroke-miterlimit="3"/><g><path class="st8" d="M163.065 186.035l-7 6.17M170.495 186.035l-10.29 9.06M177.915 186.035l-10.29 9.06M185.325 186.035l-10.28 9.06M192.755 186.035l-10.29 9.06M200.175 186.035l-10.28 9.06M207.605 186.035l-10.29 9.06M215.025 186.035l-10.29 9.06M222.445 186.035l-10.28 9.06M229.865 186.035l-10.28 9.06M263.035 163.355l-3.29 2.9M237.285 186.035l-10.28 9.06M262.775 170.125l-3.03 2.67M270.455 163.355l-3.44 3.03M244.715 186.035l-10.29 9.06M240.125 196.615l-4.37 3.85M262.775 176.655l-3.03 2.67M277.875 163.355l-3.44 3.03M252.135 186.035l-10.29 9.06M238.785 204.335l-3.03 2.67M259.555 186.035l-10.28 9.06M280.155 167.895l-3.02 2.66M262.775 183.205l-3.03 2.67M247.545 196.615l-3.44 3.03M238.785 210.875l-3.03 2.67M266.985 186.035l-10.29 9.06M280.155 174.435l-3.02 2.66M254.975 196.615l-3.44 3.03M238.785 217.405l-3.03 2.67M274.395 186.035l-10.28 9.06M280.155 180.965l-3.02 2.66M262.385 196.615l-3.44 3.03M238.785 223.945l-3.03 2.67M281.815 186.035l-10.28 9.06M269.805 196.615l-3.44 3.03M238.785 230.485l-3.03 2.67M289.245 186.035l-15.45 13.61M238.775 237.035l-3.02 2.66M296.665 186.035l-10.28 9.06M238.775 243.575l-3.02 2.66M304.095 186.035l-10.29 9.06M238.775 250.115l-3.02 2.66M216.105 270.085l-3.02 2.66M220.155 266.515l-3.43 3.02M311.515 186.035l-10.29 9.06M314.355 190.065l-5.71 5.03M216.105 276.625l-3.02 2.66M227.575 266.515l-3.43 3.02M163.455 323.005l-7.42 6.53M238.775 256.645l-3.02 2.67M318.935 186.035l-3.43 3.02M314.355 196.605l-3.03 2.67M234.995 266.515l-3.43 3.02M216.105 283.155l-3.02 2.66M170.865 323.005l-12.44 10.96M238.775 263.185l-3.02 2.66M326.355 186.035l-3.43 3.02M333.775 186.035l-3.42 3.02M242.415 266.515l-3.42 3.02M178.295 323.005l-12.45 10.96M314.355 203.145l-3.03 2.67M528.005 21.475l-5.45 4.8M249.845 266.515l-3.43 3.02M185.715 323.005l-12.44 10.96M314.355 209.685l-3.03 2.67M532.755 23.825l-10.2 8.99M257.265 266.515l-3.43 3.02M193.135 323.005l-12.44 10.96M314.355 216.225l-3.03 2.67M532.755 30.365l-10.2 8.99M200.555 323.005l-12.44 10.96M264.685 266.515l-3.43 3.02M314.355 222.755l-3.03 2.67M532.755 36.915l-10.2 8.98M207.985 323.005l-12.44 10.96M314.355 229.305l-3.03 2.67M532.755 43.445l-10.2 8.99M216.105 322.385l-13.15 11.58M74.485 447.135l-5.56 4.9M314.355 235.835l-3.03 2.67M532.755 49.985l-10.2 8.98M216.105 328.925l-5.72 5.04M81.915 447.135l-12.43 10.95M314.355 242.375l-3.03 2.67M532.755 56.515l-10.2 8.99M89.335 447.135l-12.43 10.95M216.105 335.465l-2.72 2.39M314.355 248.915l-3.03 2.67M532.755 63.065l-10.2 8.98M96.765 447.135l-12.43 10.95M301.795 266.515l-3.42 3.02M314.355 255.455l-3.03 2.67M532.755 69.605l-10.2 8.98M309.225 266.515l-3.43 3.02M104.185 447.135l-12.43 10.95M314.355 261.995l-3.03 2.67M532.755 76.135l-10.2 8.99M314.355 268.535l-1.14 1M111.605 447.135l-12.43 10.95M532.755 82.675l-10.2 8.99M258.875 323.945l-1.2 1.06M119.035 447.135l-12.43 10.95M532.755 89.215l-10.2 8.99M266.295 323.945l-3.44 3.03M126.445 447.135l-12.43 10.95M214.305 369.745l-1.22 1.07M214.815 369.295l-.22.19M260.695 328.875l-3.02 2.66M532.755 95.755l-10.2 8.98M216.105 374.695l-3.02 2.66M133.875 447.135l-12.43 10.95M260.695 335.415l-3.02 2.66M532.755 102.295l-10.2 8.98M216.105 381.235l-3.02 2.66M141.295 447.135l-12.43 10.95M260.695 341.955l-3.02 2.66M532.755 108.825l-10.2 8.99M216.105 387.775l-3.02 2.66M148.715 447.135l-12.43 10.95M222.355 382.265l-2.86 2.52M260.695 348.495l-3.02 2.66M532.755 115.365l-10.2 8.99M471.195 169.595l-3.43 3.02M295.985 323.945l-1.73 1.52M216.105 394.315l-3.02 2.66M156.145 447.135l-12.43 10.95M260.695 355.035l-3.02 2.66M260.695 361.575l-3.02 2.66M478.625 169.595l-3.43 3.02M532.755 121.915l-10.2 8.98M303.405 323.945l-3.44 3.03M163.565 447.135l-12.43 10.95M216.105 400.855l-3.02 2.66M260.695 368.105l-3.02 2.66M486.045 169.595l-3.43 3.02M532.755 128.445l-10.2 8.99M310.825 323.945l-3.44 3.03M170.985 447.135l-12.43 10.95M216.105 407.385l-3.02 2.66M260.695 374.645l-3.02 2.66M493.465 169.595l-3.43 3.02M532.755 134.985l-10.2 8.98M311.705 329.705l-3.02 2.66M318.245 323.945l-3.44 3.03M252.615 381.765l-2.8 2.46M178.405 447.135l-12.43 10.95M216.105 413.925l-3.02 2.66M260.695 381.185l-4.09 3.6M500.885 169.595l-3.43 3.02M532.755 141.515l-10.2 8.99M322.665 326.595l-.44.38M311.705 336.245l-3.02 2.66M185.825 447.135l-12.43 10.95M216.105 420.465l-3.02 2.66M267.455 381.765l-3.42 3.02M508.315 169.595l-3.43 3.02M532.755 148.065l-10.2 8.98M410.735 255.555l-3.43 3.02M311.705 342.785l-3.02 2.66M193.255 447.135l-12.43 10.95M216.105 427.005l-3.02 2.66M274.885 381.765l-3.43 3.02M418.155 255.555l-3.43 3.02M532.755 154.605l-10.2 8.98M515.735 169.595l-3.43 3.02M311.705 349.325l-3.02 2.66M200.675 447.135l-12.43 10.95M216.105 433.545l-3.02 2.66M282.305 381.765l-3.43 3.02M425.575 255.555l-3.43 3.02M532.755 161.135l-13.03 11.48M311.705 355.865l-3.02 2.66M208.095 447.135l-12.43 10.95M216.105 440.085l-3.02 2.66M289.725 381.765l-3.43 3.02M532.755 167.675l-10.2 8.98M432.995 255.555l-3.43 3.02M318.035 356.825l-3.43 3.02M216.105 446.615l-13.02 11.47M297.145 381.765l-3.43 3.02M322.665 359.285l-.63.56M532.755 174.215l-10.2 8.99M222.935 447.135l-12.43 10.95M304.565 381.765l-3.42 3.02M532.755 180.755l-10.2 8.98M230.365 447.135l-12.43 10.95M311.995 381.765l-3.43 3.02M532.755 187.295l-10.2 8.98M237.785 447.135l-12.43 10.95M319.415 381.765l-3.43 3.02M532.755 193.825l-10.2 8.99M462.685 255.555l-2.03 1.79M245.205 447.135l-12.43 10.95M252.635 447.135l-12.43 10.95M532.755 200.365l-10.2 8.99M470.105 255.555l-3.43 3.02M260.055 447.135l-12.43 10.95M532.755 206.905l-10.2 8.99M477.535 255.555l-3.43 3.02M267.475 447.135l-12.43 10.95M532.755 213.445l-10.2 8.98M484.955 255.555l-3.43 3.02M274.895 447.135l-12.43 10.95M532.755 219.985l-10.2 8.98M492.375 255.555l-3.43 3.02M282.315 447.135l-12.43 10.95M532.755 226.515l-10.2 8.99M499.795 255.555l-3.43 3.02M289.745 447.135l-12.43 10.95M532.755 233.065l-10.2 8.98M507.225 255.555l-3.43 3.02M297.165 447.135l-12.43 10.95M532.755 239.605l-10.2 8.98M514.645 255.555l-3.43 3.02M304.585 447.135l-12.43 10.95M532.755 246.135l-10.2 8.99M522.065 255.555l-5.18 4.56M312.005 447.135l-12.43 10.95M532.755 252.675l-10.2 8.98M519.905 263.995l-3.02 2.66M319.425 447.135l-12.43 10.95M532.755 259.205l-10.2 8.99M519.905 270.525l-3.02 2.67M322.665 450.825l-8.24 7.26M532.755 265.755l-10.2 8.98M519.905 277.075l-3.02 2.66M519.905 283.615l-3.02 2.66M532.755 272.295l-10.2 8.98M322.665 457.365l-.82.72M519.905 290.145l-3.02 2.66M532.755 278.825l-10.2 8.99M532.755 285.365l-10.2 8.99M519.905 296.685l-3.02 2.66M503.535 311.105l-3.47 3.06M510.965 311.105l-3.43 3.02M519.905 303.225l-3.02 2.66M532.755 291.905l-10.2 8.99M503.095 318.035l-3.03 2.67M532.755 298.445l-10.2 8.98M519.905 309.765l-4.95 4.36M532.755 304.985l-10.38 9.14M532.755 311.515l-10.2 8.99M532.755 318.065l-6.68 5.88"/></g><path class="st6" d="M532.719 311.292V21.661h-10.202v148.122h-58.191v3.023h58.191v82.941H460.17v1.511h.454v1.512h56.227v52.522h-16.816v12.848h3.023v-9.825h19.46v9.825h10.202v-12.848h-.001zM310.158 458.28h12.47v-10.957H216.07v-62.347h5.797v-1.512h.453v-1.511h-6.25v-12.47h-1.511v.454h-1.511v77.386H68.893v10.957h241.265zm-14.72-134.14h27.19v3.023H311.67v29.851h10.958v3.023h-13.981v-32.874H294.38v-1.512h-.454v-1.511h1.512zm-28.718 0v1.511h-.453v1.512h-5.609v54.79h61.97v3.023h-72.852v-1.512h-.454v-1.511h8.313V324.14h9.085zm-50.649-3.779h-1.511v.454h-1.511v2.38h-57.052v10.958h57.05v2.173h.002v1.719h1.511v.454h1.511v-18.138zM156.027 186.22v9.069h79.698l-.005 71.416h-22.671l.001 22.218h1.511v.453h1.511v-19.648h50.65v-1.512h-.453v-1.511h-27.524l.004-66.872h40.805v-4.544h31.74v71.416h-16.913v1.511h-.454v1.512h20.39v-80.485h22.294v-3.023H280.12v-22.671h-20.404v22.671H156.027zm82.72 9.069h37.782v1.521h-37.782v-1.521zm38.348-9.069h-14.359v-19.649h14.359v19.649zm245.422 125.072V258.77h-2.645v52.522h2.645zm-118.743-55.545h29.19v1.511h-.454v1.512h-28.736v-3.023z"/></g><g id="sizes"><path d="M75.755 351.972h-1.594v-9.625l-1.617.992v-1.648l1.617-1.078h1.594v11.359zM81.075 351.972h-1.594v-9.625l-1.617.992v-1.648l1.617-1.078h1.594v11.359zM83.497 350.379h1.594v1.594l-1.594 1.578v-3.172zM88.923 351.754a2.758 2.758 0 01-1.086-.977c-.279-.427-.465-.94-.559-1.539v-.008h1.594v.008c.057.417.224.741.5.973.276.231.635.348 1.078.348.51 0 .905-.171 1.184-.512.278-.341.418-.821.418-1.441v-.953c0-.614-.14-1.093-.418-1.434-.279-.341-.673-.512-1.184-.512-.276 0-.542.078-.797.234a2.237 2.237 0 00-.672.656h-1.453v-5.984h5.789v1.516h-4.195v2.555a2.275 2.275 0 011.414-.508c.656 0 1.217.136 1.684.406.466.271.82.667 1.063 1.188s.363 1.148.363 1.883v.953c0 .734-.125 1.362-.375 1.883s-.615.918-1.094 1.191c-.479.273-1.055.41-1.727.41-.573 0-1.082-.113-1.527-.336zM187.86 212.107h-1.594v-9.625l-1.617.992v-1.648l1.617-1.078h1.594v11.359zM190.282 208.982l3.813-8.227h1.641l-3.719 8.133h5.57v1.477h-7.305v-1.383zm4.898-3.555h1.555v6.688h-1.555v-6.688zM199.383 210.513h1.594v1.594l-1.594 1.578v-3.172zM207.188 206.466l-.008.281c-.131.24-.327.416-.59.527a2.375 2.375 0 01-.934.168c-.542 0-1.019-.138-1.43-.414-.412-.276-.73-.665-.957-1.168-.227-.502-.34-1.084-.34-1.746v-.008c0-.734.123-1.362.371-1.883a2.615 2.615 0 011.086-1.188c.477-.271 1.048-.406 1.715-.406.666 0 1.236.138 1.711.414.474.276.834.677 1.082 1.203.247.526.371 1.159.371 1.898v.008c0 .406-.053.84-.156 1.301a8.052 8.052 0 01-.445 1.371l-.094.207c-.031.07-.065.14-.102.207l-2.422 4.867h-1.719l2.861-5.639zm.074-.984c.273-.338.41-.815.41-1.43v-.008c0-.599-.137-1.063-.41-1.391s-.66-.492-1.16-.492c-.506 0-.895.164-1.168.492s-.41.794-.41 1.398v.008c0 .615.137 1.09.41 1.426s.662.504 1.168.504c.5.001.887-.168 1.16-.507zM283.009 94.155h-1.594V84.53l-1.617.992v-1.648l1.617-1.078h1.594v11.359zM287.232 93.936a2.75 2.75 0 01-1.086-.977c-.279-.427-.465-.94-.559-1.539v-.008h1.594v.008c.057.417.224.741.5.973.275.232.635.348 1.078.348.51 0 .904-.17 1.184-.512.278-.341.418-.821.418-1.441v-.953c0-.614-.14-1.092-.418-1.434-.279-.341-.674-.512-1.184-.512-.276 0-.542.078-.797.234a2.225 2.225 0 00-.672.656h-1.453v-5.984h5.789v1.516h-4.195v2.555a2.262 2.262 0 011.414-.508c.656 0 1.217.136 1.684.406.466.271.82.667 1.063 1.188.242.521.363 1.148.363 1.883v.953c0 .734-.125 1.362-.375 1.883-.25.521-.615.918-1.094 1.191-.479.273-1.055.41-1.727.41-.573 0-1.082-.112-1.527-.336zM294.142 92.561h1.594v1.594l-1.594 1.578v-3.172zM300.665 94.155h-1.594V84.53l-1.617.992v-1.648l1.617-1.078h1.594v11.359z"/><g><path d="M468.185 164.219h-1.594v-9.625l-1.617.992v-1.648l1.617-1.078h1.594v11.359zM474.787 158.579l-.008.281c-.131.24-.327.416-.59.527a2.375 2.375 0 01-.934.168c-.542 0-1.019-.138-1.43-.414-.412-.276-.73-.665-.957-1.168-.227-.502-.34-1.084-.34-1.746v-.008c0-.734.123-1.362.371-1.883a2.615 2.615 0 011.086-1.188c.477-.271 1.048-.406 1.715-.406.666 0 1.236.138 1.711.414.474.276.834.677 1.082 1.203.247.526.371 1.159.371 1.898v.008c0 .406-.053.84-.156 1.301a8.052 8.052 0 01-.445 1.371l-.094.207c-.031.07-.065.14-.102.207l-2.422 4.867h-1.719l2.861-5.639zm.074-.985c.273-.338.41-.815.41-1.43v-.008c0-.599-.137-1.063-.41-1.391s-.66-.492-1.16-.492c-.506 0-.895.164-1.168.492s-.41.794-.41 1.398v.008c0 .615.137 1.09.41 1.426s.662.504 1.168.504c.5.001.886-.168 1.16-.507zM478.818 162.626h1.594v1.594l-1.594 1.578v-3.172zM482.443 161.094l3.813-8.227h1.641L484.178 161h5.57v1.477h-7.305v-1.383zm4.898-3.554h1.555v6.688h-1.555v-6.688z"/></g><g><path d="M467.79 287.736a2.75 2.75 0 01-1.086-.977c-.278-.427-.465-.939-.559-1.539v-.008h1.594v.008c.058.417.224.741.5.973.276.232.636.348 1.078.348.511 0 .905-.17 1.184-.512.278-.341.418-.821.418-1.441v-.953c0-.614-.14-1.092-.418-1.434-.278-.341-.673-.512-1.184-.512-.276 0-.542.078-.797.234s-.479.375-.672.656h-1.453v-5.984h5.789v1.516h-4.195v2.555a2.275 2.275 0 011.414-.508c.656 0 1.218.136 1.684.406.466.271.82.667 1.063 1.188.242.521.363 1.148.363 1.883v.953c0 .734-.125 1.362-.375 1.883-.25.521-.614.918-1.094 1.191s-1.055.41-1.727.41c-.572 0-1.081-.112-1.527-.336zM474.701 286.361h1.594v1.594l-1.594 1.578v-3.172zM481.224 287.955h-1.594v-9.625l-1.617.992v-1.648l1.617-1.078h1.594v11.359z"/></g><g><path d="M312.707 320.078h-1.594v-9.625l-1.617.992v-1.648l1.617-1.078h1.594v11.359zM315.114 318.695l3.961-5.281c.229-.302.407-.616.535-.941.127-.325.191-.629.191-.91v-.016c0-.453-.133-.805-.398-1.055s-.644-.375-1.133-.375c-.464 0-.839.137-1.125.41-.287.273-.461.66-.523 1.16v.008h-1.648v-.008c.094-.651.285-1.207.574-1.668s.662-.813 1.121-1.055c.458-.242.986-.363 1.586-.363.677 0 1.255.116 1.734.348.479.231.844.569 1.094 1.012s.375.977.375 1.602v.008c0 .401-.084.82-.25 1.258a5.417 5.417 0 01-.695 1.266l-3.289 4.469h4.297v1.516h-6.406v-1.385zM323.395 318.484h1.594v1.594l-1.594 1.578v-3.172zM328.692 319.804a2.855 2.855 0 01-1.207-1.105c-.284-.477-.426-1.03-.426-1.66v-.188c0-.567.142-1.102.426-1.602.283-.5.662-.878 1.137-1.133-.401-.219-.723-.535-.965-.949s-.363-.851-.363-1.309v-.273c0-.594.133-1.116.398-1.566s.641-.8 1.125-1.047 1.047-.371 1.688-.371 1.203.124 1.688.371.859.597 1.125 1.047.398.973.398 1.566v.273c0 .469-.124.909-.371 1.32a2.485 2.485 0 01-.98.938c.479.261.863.64 1.152 1.137s.434 1.03.434 1.598v.188c0 .63-.143 1.184-.426 1.66a2.854 2.854 0 01-1.207 1.105c-.521.261-1.125.391-1.813.391s-1.293-.13-1.813-.391zm2.789-1.359c.281-.146.498-.351.652-.613.153-.263.23-.566.23-.91v-.109c0-.349-.077-.655-.23-.918-.154-.263-.371-.468-.652-.613s-.607-.219-.977-.219-.695.073-.977.219-.499.352-.652.617c-.154.266-.23.573-.23.922v.117c0 .344.076.646.23.906.153.261.371.462.652.605s.606.215.977.215c.37 0 .696-.073.977-.219zm-.133-5.121c.244-.138.435-.335.57-.59.135-.255.203-.55.203-.883v-.109c0-.317-.068-.599-.203-.844a1.406 1.406 0 00-.57-.566 1.74 1.74 0 00-.844-.199c-.318 0-.6.066-.844.199a1.394 1.394 0 00-.57.566 1.724 1.724 0 00-.203.852v.117c0 .328.067.618.203.871.135.253.325.448.57.586.244.138.525.207.844.207.318 0 .599-.069.844-.207z"/></g><g><path d="M266.022 355.218h-1.594v-9.625l-1.617.992v-1.648l1.617-1.078h1.594v11.359zM268.444 353.624h1.594v1.594l-1.594 1.578v-3.172zM276.249 349.577l-.008.281c-.13.239-.327.415-.59.527s-.574.168-.934.168c-.542 0-1.019-.138-1.43-.414s-.73-.665-.957-1.168-.34-1.085-.34-1.746v-.008c0-.734.124-1.362.371-1.883s.609-.917 1.086-1.188 1.048-.406 1.715-.406 1.237.138 1.711.414.835.677 1.082 1.203.371 1.159.371 1.898v.008c0 .406-.052.84-.156 1.301a8.052 8.052 0 01-.539 1.578c-.031.07-.065.14-.102.207l-2.422 4.867h-1.719l2.861-5.639zm.074-.984c.273-.339.41-.815.41-1.43v-.008c0-.599-.137-1.063-.41-1.391s-.66-.492-1.16-.492c-.505 0-.895.164-1.168.492s-.41.794-.41 1.398v.008c0 .614.137 1.09.41 1.426s.663.504 1.168.504c.5 0 .886-.169 1.16-.507z"/></g><g><path d="M289.267 227.681l-.727-.348a2.857 2.857 0 01-1.168-1.008c-.295-.439-.48-.97-.559-1.59h1.625c.047.323.148.589.305.797.156.209.357.363.605.465.247.102.537.152.871.152.525 0 .935-.141 1.227-.422.291-.281.438-.677.438-1.188v-.344c0-.567-.139-1.006-.414-1.316-.276-.31-.667-.465-1.172-.465h-.805V220.9h.805c.442 0 .786-.133 1.031-.398.244-.266.367-.641.367-1.125v-.352c0-.447-.129-.794-.387-1.039-.258-.244-.624-.367-1.098-.367a1.68 1.68 0 00-.727.152c-.214.102-.395.258-.543.469s-.257.476-.324.793H287c.104-.619.301-1.15.59-1.594a2.886 2.886 0 011.098-1.008c.442-.229.95-.344 1.523-.344.979 0 1.736.258 2.273.773.536.516.805 1.242.805 2.18v.188c0 .568-.154 1.063-.461 1.484-.308.422-.742.729-1.305.922.619.136 1.1.44 1.441.914.341.475.512 1.078.512 1.813v.188c0 .662-.128 1.227-.383 1.695a2.53 2.53 0 01-1.113 1.07c-.487.245-1.074.367-1.762.367h-.951zM295.587 225.97h1.594v1.594l-1.594 1.578v-3.172zM301.013 227.345a2.75 2.75 0 01-1.086-.977c-.279-.427-.465-.939-.559-1.539v-.008h1.594v.008c.057.417.224.741.5.973.275.232.635.348 1.078.348.51 0 .904-.17 1.184-.512.278-.341.418-.821.418-1.441v-.953c0-.614-.14-1.092-.418-1.434-.279-.341-.674-.512-1.184-.512-.276 0-.542.078-.797.234a2.225 2.225 0 00-.672.656h-1.453v-5.984h5.789v1.516h-4.195v2.555a2.262 2.262 0 011.414-.508c.656 0 1.217.136 1.684.406.466.271.82.667 1.063 1.188.242.521.363 1.148.363 1.883v.953c0 .734-.125 1.362-.375 1.883-.25.521-.615.918-1.094 1.191-.479.273-1.055.41-1.727.41-.573 0-1.082-.112-1.527-.336z"/></g><g><path d="M220.015 424.641l3.813-8.227h1.641l-3.719 8.133h5.57v1.477h-7.305v-1.383zm4.899-3.554h1.555v6.688h-1.555v-6.688zM229.117 426.173h1.594v1.594l-1.594 1.578v-3.172zM234.542 427.548c-.445-.224-.808-.55-1.086-.977s-.465-.94-.559-1.539v-.008h1.594v.008c.058.417.224.741.5.973s.636.348 1.078.348c.511 0 .905-.171 1.184-.512s.418-.821.418-1.441v-.953c0-.614-.14-1.093-.418-1.434s-.673-.512-1.184-.512c-.276 0-.542.078-.797.234s-.479.375-.672.656h-1.453v-5.984h5.789v1.516h-4.195v2.555a2.275 2.275 0 011.414-.508c.656 0 1.218.136 1.684.406s.82.667 1.063 1.188.363 1.148.363 1.883v.953c0 .734-.125 1.362-.375 1.883s-.614.918-1.094 1.191-1.055.41-1.727.41c-.572 0-1.081-.113-1.527-.336z"/></g><g><path d="M76.829 158.113l3.961-5.281c.229-.302.407-.616.535-.941.127-.325.191-.629.191-.91v-.016c0-.453-.133-.805-.398-1.055s-.644-.375-1.133-.375c-.464 0-.839.137-1.125.41-.287.273-.461.66-.523 1.16v.008h-1.648v-.008c.094-.651.285-1.207.574-1.668s.663-.813 1.121-1.055c.458-.242.987-.363 1.586-.363.677 0 1.255.116 1.734.348.479.232.844.569 1.094 1.012.25.443.375.977.375 1.602v.008c0 .401-.083.82-.25 1.258a5.417 5.417 0 01-.695 1.266l-3.289 4.469h4.297v1.516H76.83v-1.385zM85.094 158.113l3.961-5.281c.229-.302.407-.616.535-.941.127-.325.191-.629.191-.91v-.016c0-.453-.133-.805-.398-1.055s-.644-.375-1.133-.375c-.464 0-.839.137-1.125.41-.287.273-.461.66-.523 1.16v.008h-1.648v-.008c.094-.651.285-1.207.574-1.668s.663-.813 1.121-1.055c.458-.242.987-.363 1.586-.363.677 0 1.255.116 1.734.348.479.232.844.569 1.094 1.012.25.443.375.977.375 1.602v.008c0 .401-.083.82-.25 1.258a5.417 5.417 0 01-.695 1.266l-3.289 4.469H91.5v1.516h-6.406v-1.385zM93.375 157.902h1.594v1.594l-1.594 1.578v-3.172zM99.899 159.496h-1.594v-9.625l-1.617.992v-1.648l1.617-1.078h1.594v11.359z"/></g><g><path d="M19.579 375.94h-1.594v-9.625l-1.617.992v-1.648l1.617-1.078h1.594v11.359zM21.985 374.557l3.961-5.281c.229-.302.407-.615.535-.941.127-.325.191-.629.191-.91v-.016c0-.453-.133-.805-.398-1.055s-.644-.375-1.133-.375c-.464 0-.839.137-1.125.41-.287.273-.461.66-.523 1.16v.008h-1.648v-.008c.094-.65.285-1.207.574-1.668s.663-.813 1.121-1.055c.458-.242.987-.363 1.586-.363.677 0 1.255.116 1.734.348.479.232.844.569 1.094 1.012.25.443.375.977.375 1.602v.008c0 .401-.083.82-.25 1.258a5.417 5.417 0 01-.695 1.266l-3.289 4.469h4.297v1.516h-6.406v-1.385zM30.267 374.346h1.594v1.594l-1.594 1.578v-3.172zM35.267 375.655a2.604 2.604 0 01-1.082-1.172c-.248-.513-.371-1.131-.371-1.855v-.008c0-.422.049-.864.148-1.328a7.673 7.673 0 01.532-1.597l.109-.223 2.469-4.891h1.719l-2.898 5.664.008-.281c.13-.244.32-.435.57-.57.25-.135.542-.203.875-.203.588 0 1.094.133 1.516.398s.742.652.961 1.16.328 1.119.328 1.832v.008c0 .729-.124 1.354-.371 1.875a2.62 2.62 0 01-1.086 1.188c-.477.271-1.048.406-1.715.406-.668-.001-1.239-.134-1.712-.403zm2.878-1.598c.273-.313.41-.758.41-1.336v-.008c0-.635-.144-1.126-.43-1.473-.287-.346-.695-.52-1.227-.52-.474 0-.841.175-1.102.523-.261.35-.391.842-.391 1.477v.008c0 .578.137 1.022.41 1.332.273.311.66.465 1.16.465.507.001.897-.155 1.17-.468z"/></g></g></svg>