<svg width="80" height="80" viewBox="0 0 80 80" fill="none" xmlns="http://www.w3.org/2000/svg">
<path d="M67.5 35C67.5 17.0507 52.9493 2.5 35 2.5C17.0507 2.5 2.5 17.0507 2.5 35C2.5 52.9493 17.0507 67.5 35 67.5" stroke="#AD7C53" stroke-width="1.5"/>
<path d="M29.0001 33.0002C31.2093 33.0002 33.0002 31.2093 33.0002 29.0001C33.0002 26.7909 31.2093 25 29.0001 25C26.7909 25 25 26.7909 25 29.0001C25 31.2093 26.7909 33.0002 29.0001 33.0002Z" stroke="#AD7C53" stroke-width="1.5" stroke-miterlimit="10" stroke-linecap="square"/>
<path d="M40.9923 44.9997C43.2015 44.9997 44.9924 43.2088 44.9924 40.9996C44.9924 38.7904 43.2015 36.9995 40.9923 36.9995C38.7831 36.9995 36.9922 38.7904 36.9922 40.9996C36.9922 43.2088 38.7831 44.9997 40.9923 44.9997Z" stroke="#AD7C53" stroke-width="1.5" stroke-miterlimit="10" stroke-linecap="square"/>
<path d="M26.9922 42.9999L42.9926 26.9995" stroke="#AD7C53" stroke-width="1.5" stroke-miterlimit="10" stroke-linecap="square"/>
<path d="M47.5 50V60C47.5 64.1425 54.215 67.5 62.5 67.5C70.785 67.5 77.5 64.1425 77.5 60V50" stroke="#AD7C53" stroke-width="1.5" stroke-miterlimit="10"/>
<path d="M47.5 60V70C47.5 74.1425 54.215 77.5 62.5 77.5C70.785 77.5 77.5 74.1425 77.5 70V60" stroke="#AD7C53" stroke-width="1.5" stroke-miterlimit="10"/>
<path d="M62.5 57.5C70.7843 57.5 77.5 54.1421 77.5 50C77.5 45.8579 70.7843 42.5 62.5 42.5C54.2157 42.5 47.5 45.8579 47.5 50C47.5 54.1421 54.2157 57.5 62.5 57.5Z" stroke="#AD7C53" stroke-width="1.5" stroke-miterlimit="10" stroke-linecap="square"/>
</svg>
