<svg width="80" height="80" viewBox="0 0 80 80" fill="none" xmlns="http://www.w3.org/2000/svg">
<path d="M65.8333 31.25V7C65.8333 5.89543 64.9378 5 63.8333 5H9.5C8.39543 5 7.5 5.89543 7.5 7V72.9999C7.5 74.1045 8.39543 74.9999 9.5 74.9999H27.9166" stroke="#AD7C53" stroke-width="1.5" stroke-miterlimit="10" stroke-linecap="round" stroke-linejoin="round"/>
<path d="M22.1094 22.5H54.1927" stroke="#AD7C53" stroke-width="1.5" stroke-miterlimit="10" stroke-linecap="round" stroke-linejoin="round"/>
<path d="M22.1094 34.166H54.1927" stroke="#AD7C53" stroke-width="1.5" stroke-miterlimit="10" stroke-linecap="round" stroke-linejoin="round"/>
<path d="M22.1094 45.834H30.8594" stroke="#AD7C53" stroke-width="1.5" stroke-miterlimit="10" stroke-linecap="round" stroke-linejoin="round"/>
<path d="M43.3792 71.4357C41.7382 69.7947 41.7382 67.1353 43.3792 65.4943L64.7253 44.1482C66.3663 42.5072 69.0256 42.5072 70.6666 44.1482C72.3076 45.7892 72.3076 48.4486 70.6666 50.0896L49.3205 71.4357C47.6795 73.0767 45.0202 73.0767 43.3792 71.4357Z" stroke="#AD7C53" stroke-width="1.5" stroke-miterlimit="10" stroke-linecap="round" stroke-linejoin="round"/>
<path d="M43.3661 71.4347L39.5312 75.0008" stroke="#AD7C53" stroke-width="1.5" stroke-miterlimit="10" stroke-linecap="round" stroke-linejoin="round"/>
<path d="M65.9668 65.4961L73.0964 58.3665L62.8906 48.7524" stroke="#AD7C53" stroke-width="1.5" stroke-miterlimit="10" stroke-linecap="round" stroke-linejoin="round"/>
</svg>
