<svg width="80" height="80" viewBox="0 0 80 80" fill="none" xmlns="http://www.w3.org/2000/svg">
<path d="M68.5714 30V9.5C68.5714 8.39543 67.676 7.5 66.5714 7.5H39.2857M36.0714 67.5H12C10.8954 67.5 10 66.6046 10 65.5V30M39.2857 7.5H12C10.8954 7.5 10 8.39543 10 9.5V30M39.2857 7.5V30M39.2857 30H10M39.2857 30V43.9286" stroke="#AD7C53" stroke-width="1.5" stroke-miterlimit="10" stroke-linecap="round" stroke-linejoin="round"/>
<path d="M73.2935 58.6672H49.9609V75H73.2935V58.6672Z" stroke="#AD7C53" stroke-width="1.5" stroke-miterlimit="10" stroke-linecap="round" stroke-linejoin="round"/>
<path d="M54.625 51.6663V46.9998C54.625 45.1433 55.3625 43.3629 56.6752 42.0502C57.9879 40.7375 59.7683 40 61.6248 40V40C63.4812 40 65.2616 40.7375 66.5744 42.0502C67.8871 43.3629 68.6245 45.1433 68.6245 46.9998V51.6663" stroke="#AD7C53" stroke-width="1.5" stroke-miterlimit="10" stroke-linecap="round" stroke-linejoin="round"/>
</svg>
